<?xml version="1.0" encoding="UTF-8" standalone="no"?>
<!DOCTYPE svg PUBLIC "-//W3C//DTD SVG 1.1//EN"
 "http://www.w3.org/Graphics/SVG/1.1/DTD/svg11.dtd">
<!-- Generated by graphviz version 9.0.0 (20230911.1827)
 -->
<!-- Title: dependency&#45;cruiser output Pages: 1 -->
<svg width="774pt" height="494pt"
 viewBox="0.00 0.00 774.12 494.25" xmlns="http://www.w3.org/2000/svg" xmlns:xlink="http://www.w3.org/1999/xlink">
<g id="graph0" class="graph" transform="scale(1 1) rotate(0) translate(4 490.25)">
<title>dependency&#45;cruiser output</title>
<polygon fill="white" stroke="none" points="-4,4 -4,-490.25 770.12,-490.25 770.12,4 -4,4"/>
<g id="clust1" class="cluster">
<title>cluster_src</title>
<path fill="#ffffff" stroke="black" stroke-width="2" d="M20,-10.25C20,-10.25 746.12,-10.25 746.12,-10.25 752.12,-10.25 758.12,-16.25 758.12,-22.25 758.12,-22.25 758.12,-466.25 758.12,-466.25 758.12,-472.25 752.12,-478.25 746.12,-478.25 746.12,-478.25 20,-478.25 20,-478.25 14,-478.25 8,-472.25 8,-466.25 8,-466.25 8,-22.25 8,-22.25 8,-16.25 14,-10.25 20,-10.25"/>
<text text-anchor="middle" x="383.06" y="-465.7" font-family="Helvetica,sans-Serif" font-weight="bold" font-size="9.00">src</text>
</g>
<g id="clust2" class="cluster">
<title>cluster_src/application</title>
<path fill="#ffffff" stroke="black" stroke-width="2" d="M152.25,-195.25C152.25,-195.25 644.12,-195.25 644.12,-195.25 650.12,-195.25 656.12,-201.25 656.12,-207.25 656.12,-207.25 656.12,-429.25 656.12,-429.25 656.12,-435.25 650.12,-441.25 644.12,-441.25 644.12,-441.25 152.25,-441.25 152.25,-441.25 146.25,-441.25 140.25,-435.25 140.25,-429.25 140.25,-429.25 140.25,-207.25 140.25,-207.25 140.25,-201.25 146.25,-195.25 152.25,-195.25"/>
<text text-anchor="middle" x="398.19" y="-428.7" font-family="Helvetica,sans-Serif" font-weight="bold" font-size="9.00">application</text>
</g>
<g id="clust3" class="cluster">
<title>cluster_src/application/ports</title>
<path fill="#ffffff" stroke="black" stroke-width="2" d="M429.38,-203.25C429.38,-203.25 636.12,-203.25 636.12,-203.25 642.12,-203.25 648.12,-209.25 648.12,-215.25 648.12,-215.25 648.12,-308.25 648.12,-308.25 648.12,-314.25 642.12,-320.25 636.12,-320.25 636.12,-320.25 429.38,-320.25 429.38,-320.25 423.38,-320.25 417.38,-314.25 417.38,-308.25 417.38,-308.25 417.38,-215.25 417.38,-215.25 417.38,-209.25 423.38,-203.25 429.38,-203.25"/>
<text text-anchor="middle" x="532.75" y="-307.7" font-family="Helvetica,sans-Serif" font-weight="bold" font-size="9.00">ports</text>
</g>
<g id="clust4" class="cluster">
<title>cluster_src/application/services</title>
<path fill="#ffffff" stroke="black" stroke-width="2" d="M160.25,-203.25C160.25,-203.25 362.5,-203.25 362.5,-203.25 368.5,-203.25 374.5,-209.25 374.5,-215.25 374.5,-215.25 374.5,-308.25 374.5,-308.25 374.5,-314.25 368.5,-320.25 362.5,-320.25 362.5,-320.25 160.25,-320.25 160.25,-320.25 154.25,-320.25 148.25,-314.25 148.25,-308.25 148.25,-308.25 148.25,-215.25 148.25,-215.25 148.25,-209.25 154.25,-203.25 160.25,-203.25"/>
<text text-anchor="middle" x="261.38" y="-307.7" font-family="Helvetica,sans-Serif" font-weight="bold" font-size="9.00">services</text>
</g>
<g id="clust5" class="cluster">
<title>cluster_src/application/usecases</title>
<path fill="#ffffff" stroke="black" stroke-width="2" d="M160.25,-328.25C160.25,-328.25 397.38,-328.25 397.38,-328.25 403.38,-328.25 409.38,-334.25 409.38,-340.25 409.38,-340.25 409.38,-402.25 409.38,-402.25 409.38,-408.25 403.38,-414.25 397.38,-414.25 397.38,-414.25 160.25,-414.25 160.25,-414.25 154.25,-414.25 148.25,-408.25 148.25,-402.25 148.25,-402.25 148.25,-340.25 148.25,-340.25 148.25,-334.25 154.25,-328.25 160.25,-328.25"/>
<text text-anchor="middle" x="278.81" y="-401.7" font-family="Helvetica,sans-Serif" font-weight="bold" font-size="9.00">usecases</text>
</g>
<g id="clust6" class="cluster">
<title>cluster_src/domain</title>
<path fill="#ffffff" stroke="black" stroke-width="2" d="M676.12,-303.25C676.12,-303.25 738.12,-303.25 738.12,-303.25 744.12,-303.25 750.12,-309.25 750.12,-315.25 750.12,-315.25 750.12,-381.25 750.12,-381.25 750.12,-387.25 744.12,-393.25 738.12,-393.25 738.12,-393.25 676.12,-393.25 676.12,-393.25 670.12,-393.25 664.12,-387.25 664.12,-381.25 664.12,-381.25 664.12,-315.25 664.12,-315.25 664.12,-309.25 670.12,-303.25 676.12,-303.25"/>
<text text-anchor="middle" x="707.12" y="-380.7" font-family="Helvetica,sans-Serif" font-weight="bold" font-size="9.00">domain</text>
</g>
<g id="clust7" class="cluster">
<title>cluster_src/domain/entities</title>
<path fill="#ffffff" stroke="black" stroke-width="2" d="M684.12,-311.25C684.12,-311.25 730.12,-311.25 730.12,-311.25 736.12,-311.25 742.12,-317.25 742.12,-323.25 742.12,-323.25 742.12,-354.25 742.12,-354.25 742.12,-360.25 736.12,-366.25 730.12,-366.25 730.12,-366.25 684.12,-366.25 684.12,-366.25 678.12,-366.25 672.12,-360.25 672.12,-354.25 672.12,-354.25 672.12,-323.25 672.12,-323.25 672.12,-317.25 678.12,-311.25 684.12,-311.25"/>
<text text-anchor="middle" x="707.12" y="-353.7" font-family="Helvetica,sans-Serif" font-weight="bold" font-size="9.00">entities</text>
</g>
<g id="clust8" class="cluster">
<title>cluster_src/infrastructure</title>
<path fill="#ffffff" stroke="black" stroke-width="2" d="M230.25,-34.25C230.25,-34.25 483.38,-34.25 483.38,-34.25 489.38,-34.25 495.38,-40.25 495.38,-46.25 495.38,-46.25 495.38,-175.25 495.38,-175.25 495.38,-181.25 489.38,-187.25 483.38,-187.25 483.38,-187.25 230.25,-187.25 230.25,-187.25 224.25,-187.25 218.25,-181.25 218.25,-175.25 218.25,-175.25 218.25,-46.25 218.25,-46.25 218.25,-40.25 224.25,-34.25 230.25,-34.25"/>
<text text-anchor="middle" x="356.81" y="-174.7" font-family="Helvetica,sans-Serif" font-weight="bold" font-size="9.00">infrastructure</text>
</g>
<g id="clust10" class="cluster">
<title>cluster_src/infrastructure/services</title>
<path fill="#ffffff" stroke="black" stroke-width="2" d="M429.38,-42.25C429.38,-42.25 475.38,-42.25 475.38,-42.25 481.38,-42.25 487.38,-48.25 487.38,-54.25 487.38,-54.25 487.38,-85.25 487.38,-85.25 487.38,-91.25 481.38,-97.25 475.38,-97.25 475.38,-97.25 429.38,-97.25 429.38,-97.25 423.38,-97.25 417.38,-91.25 417.38,-85.25 417.38,-85.25 417.38,-54.25 417.38,-54.25 417.38,-48.25 423.38,-42.25 429.38,-42.25"/>
<text text-anchor="middle" x="452.38" y="-84.7" font-family="Helvetica,sans-Serif" font-weight="bold" font-size="9.00">services</text>
</g>
<g id="clust9" class="cluster">
<title>cluster_src/infrastructure/adapters</title>
<path fill="#ffffff" stroke="black" stroke-width="2" d="M238.25,-43.25C238.25,-43.25 396.25,-43.25 396.25,-43.25 402.25,-43.25 408.25,-49.25 408.25,-55.25 408.25,-55.25 408.25,-148.25 408.25,-148.25 408.25,-154.25 402.25,-160.25 396.25,-160.25 396.25,-160.25 238.25,-160.25 238.25,-160.25 232.25,-160.25 226.25,-154.25 226.25,-148.25 226.25,-148.25 226.25,-55.25 226.25,-55.25 226.25,-49.25 232.25,-43.25 238.25,-43.25"/>
<text text-anchor="middle" x="317.25" y="-147.7" font-family="Helvetica,sans-Serif" font-weight="bold" font-size="9.00">adapters</text>
</g>
<g id="clust11" class="cluster">
<title>cluster_src/infrastructure/video</title>
<path fill="#ffffff" stroke="black" stroke-width="2" d="M429.38,-105.25C429.38,-105.25 475.38,-105.25 475.38,-105.25 481.38,-105.25 487.38,-111.25 487.38,-117.25 487.38,-117.25 487.38,-148.25 487.38,-148.25 487.38,-154.25 481.38,-160.25 475.38,-160.25 475.38,-160.25 429.38,-160.25 429.38,-160.25 423.38,-160.25 417.38,-154.25 417.38,-148.25 417.38,-148.25 417.38,-117.25 417.38,-117.25 417.38,-111.25 423.38,-105.25 429.38,-105.25"/>
<text text-anchor="middle" x="452.38" y="-147.7" font-family="Helvetica,sans-Serif" font-weight="bold" font-size="9.00">video</text>
</g>
<g id="clust12" class="cluster">
<title>cluster_src/presentation</title>
<path fill="#ffffff" stroke="black" stroke-width="2" d="M28,-273.25C28,-273.25 120.25,-273.25 120.25,-273.25 126.25,-273.25 132.25,-279.25 132.25,-285.25 132.25,-285.25 132.25,-382.25 132.25,-382.25 132.25,-388.25 126.25,-394.25 120.25,-394.25 120.25,-394.25 28,-394.25 28,-394.25 22,-394.25 16,-388.25 16,-382.25 16,-382.25 16,-285.25 16,-285.25 16,-279.25 22,-273.25 28,-273.25"/>
<text text-anchor="middle" x="74.12" y="-381.7" font-family="Helvetica,sans-Serif" font-weight="bold" font-size="9.00">presentation</text>
</g>
<g id="clust13" class="cluster">
<title>cluster_src/presentation/stores</title>
<path fill="#ffffff" stroke="black" stroke-width="2" d="M36,-281.25C36,-281.25 112.25,-281.25 112.25,-281.25 118.25,-281.25 124.25,-287.25 124.25,-293.25 124.25,-293.25 124.25,-355.25 124.25,-355.25 124.25,-361.25 118.25,-367.25 112.25,-367.25 112.25,-367.25 36,-367.25 36,-367.25 30,-367.25 24,-361.25 24,-355.25 24,-355.25 24,-293.25 24,-293.25 24,-287.25 30,-281.25 36,-281.25"/>
<text text-anchor="middle" x="74.12" y="-354.7" font-family="Helvetica,sans-Serif" font-weight="bold" font-size="9.00">stores</text>
</g>
<!-- src/application/ports/IVideoParser.ts -->
<g id="node1" class="node">
<title>src/application/ports/IVideoParser.ts</title>
<g id="a_node1"><a xlink:href="src/application/ports/IVideoParser.ts" xlink:title="IVideoParser.ts">
<path fill="#ddfeff" stroke="black" d="M604.83,-230.88C604.83,-230.88 538.67,-230.88 538.67,-230.88 535.46,-230.88 532.25,-227.67 532.25,-224.46 532.25,-224.46 532.25,-218.04 532.25,-218.04 532.25,-214.84 535.46,-211.63 538.67,-211.63 538.67,-211.63 604.83,-211.63 604.83,-211.63 608.04,-211.63 611.25,-214.84 611.25,-218.04 611.25,-218.04 611.25,-224.46 611.25,-224.46 611.25,-227.67 608.04,-230.88 604.83,-230.88"/>
<text text-anchor="start" x="540.25" y="-218.33" font-family="Helvetica,sans-Serif" font-size="9.00">IVideoParser.ts</text>
</a>
</g>
</g>
<!-- src/domain/entities/index.ts -->
<g id="node2" class="node">
<title>src/domain/entities/index.ts</title>
<g id="a_node2"><a xlink:href="src/domain/entities/index.ts" xlink:title="index.ts">
<path fill="#ddfeff" stroke="black" d="M727.71,-338.88C727.71,-338.88 686.54,-338.88 686.54,-338.88 683.33,-338.88 680.12,-335.67 680.12,-332.46 680.12,-332.46 680.12,-326.04 680.12,-326.04 680.12,-322.84 683.33,-319.63 686.54,-319.63 686.54,-319.63 727.71,-319.63 727.71,-319.63 730.92,-319.63 734.12,-322.84 734.12,-326.04 734.12,-326.04 734.12,-332.46 734.12,-332.46 734.12,-335.67 730.92,-338.88 727.71,-338.88"/>
<text text-anchor="start" x="691.38" y="-326.33" font-family="Helvetica,sans-Serif" font-size="9.00">index.ts</text>
</a>
</g>
</g>
<!-- src/application/ports/IVideoParser.ts&#45;&gt;src/domain/entities/index.ts -->
<g id="edge1" class="edge">
<title>src/application/ports/IVideoParser.ts&#45;&gt;src/domain/entities/index.ts</title>
<path fill="none" stroke="#000000" stroke-opacity="0.200000" d="M611.66,-221.19C626.73,-222.87 643.39,-227.01 656.12,-236.25 681.76,-254.86 695.57,-290.71 701.84,-312.06"/>
<polygon fill="none" stroke="#000000" stroke-opacity="0.200000" points="699.79,-312.52 703.41,-317.75 703.83,-311.4 699.79,-312.52"/>
</g>
<!-- src/application/ports/IVideoStorage.ts -->
<g id="node3" class="node">
<title>src/application/ports/IVideoStorage.ts</title>
<g id="a_node3"><a xlink:href="src/application/ports/IVideoStorage.ts" xlink:title="IVideoStorage.ts">
<path fill="#ddfeff" stroke="black" d="M607.08,-261.88C607.08,-261.88 536.42,-261.88 536.42,-261.88 533.21,-261.88 530,-258.67 530,-255.46 530,-255.46 530,-249.04 530,-249.04 530,-245.84 533.21,-242.63 536.42,-242.63 536.42,-242.63 607.08,-242.63 607.08,-242.63 610.29,-242.63 613.5,-245.84 613.5,-249.04 613.5,-249.04 613.5,-255.46 613.5,-255.46 613.5,-258.67 610.29,-261.88 607.08,-261.88"/>
<text text-anchor="start" x="538" y="-249.33" font-family="Helvetica,sans-Serif" font-size="9.00">IVideoStorage.ts</text>
</a>
</g>
</g>
<!-- src/application/ports/IVideoStorage.ts&#45;&gt;src/domain/entities/index.ts -->
<g id="edge2" class="edge">
<title>src/application/ports/IVideoStorage.ts&#45;&gt;src/domain/entities/index.ts</title>
<path fill="none" stroke="#000000" stroke-opacity="0.200000" d="M613.8,-253.82C627.98,-255.82 643.47,-259.75 656.12,-267.25 674.53,-278.16 688.94,-298.52 697.48,-312.93"/>
<polygon fill="none" stroke="#000000" stroke-opacity="0.200000" points="695.65,-313.96 700.44,-318.14 699.3,-311.89 695.65,-313.96"/>
</g>
<!-- src/application/ports/IVideoThumbnailGenerator.ts -->
<g id="node4" class="node">
<title>src/application/ports/IVideoThumbnailGenerator.ts</title>
<g id="a_node4"><a xlink:href="src/application/ports/IVideoThumbnailGenerator.ts" xlink:title="IVideoThumbnailGenerator.ts">
<path fill="#ddfeff" stroke="black" d="M633.71,-292.88C633.71,-292.88 509.79,-292.88 509.79,-292.88 506.58,-292.88 503.38,-289.67 503.38,-286.46 503.38,-286.46 503.38,-280.04 503.38,-280.04 503.38,-276.84 506.58,-273.63 509.79,-273.63 509.79,-273.63 633.71,-273.63 633.71,-273.63 636.92,-273.63 640.12,-276.84 640.12,-280.04 640.12,-280.04 640.12,-286.46 640.12,-286.46 640.12,-289.67 636.92,-292.88 633.71,-292.88"/>
<text text-anchor="start" x="511.38" y="-280.33" font-family="Helvetica,sans-Serif" font-size="9.00">IVideoThumbnailGenerator.ts</text>
</a>
</g>
</g>
<!-- src/application/ports/index.ts -->
<g id="node5" class="node">
<title>src/application/ports/index.ts</title>
<g id="a_node5"><a xlink:href="src/application/ports/index.ts" xlink:title="index.ts">
<path fill="#ddfeff" stroke="black" d="M472.96,-230.88C472.96,-230.88 431.79,-230.88 431.79,-230.88 428.58,-230.88 425.38,-227.67 425.38,-224.46 425.38,-224.46 425.38,-218.04 425.38,-218.04 425.38,-214.84 428.58,-211.63 431.79,-211.63 431.79,-211.63 472.96,-211.63 472.96,-211.63 476.17,-211.63 479.38,-214.84 479.38,-218.04 479.38,-218.04 479.38,-224.46 479.38,-224.46 479.38,-227.67 476.17,-230.88 472.96,-230.88"/>
<text text-anchor="start" x="436.62" y="-218.33" font-family="Helvetica,sans-Serif" font-size="9.00">index.ts</text>
</a>
</g>
</g>
<!-- src/application/ports/index.ts&#45;&gt;src/application/ports/IVideoParser.ts -->
<g id="edge3" class="edge">
<title>src/application/ports/index.ts&#45;&gt;src/application/ports/IVideoParser.ts</title>
<path fill="none" stroke="#000000" stroke-width="2" stroke-opacity="0.200000" d="M479.72,-221.25C495.13,-221.25 514.86,-221.25 532.02,-221.25"/>
<polygon fill="#000000" fill-opacity="0.200000" stroke="#000000" stroke-width="2" stroke-opacity="0.200000" points="534.83,-219.86 538.73,-227.96 530.63,-224.06 534.83,-219.86"/>
</g>
<!-- src/application/ports/index.ts&#45;&gt;src/application/ports/IVideoStorage.ts -->
<g id="edge4" class="edge">
<title>src/application/ports/index.ts&#45;&gt;src/application/ports/IVideoStorage.ts</title>
<path fill="none" stroke="#000000" stroke-width="2" stroke-opacity="0.200000" d="M479.71,-230.17C487.31,-232.61 495.63,-235.16 529.63,-243.72"/>
<polygon fill="#000000" fill-opacity="0.200000" stroke="#000000" stroke-width="2" stroke-opacity="0.200000" points="532.44,-242.33 536.34,-250.43 528.24,-246.53 532.44,-242.33"/>
</g>
<!-- src/application/ports/index.ts&#45;&gt;src/application/ports/IVideoThumbnailGenerator.ts -->
<g id="edge5" class="edge">
<title>src/application/ports/index.ts&#45;&gt;src/application/ports/IVideoThumbnailGenerator.ts</title>
<path fill="none" stroke="#000000" stroke-width="2" stroke-opacity="0.200000" d="M461.09,-231.17C470.06,-241.99 485.9,-259 514.4,-273.15"/>
<polygon fill="#000000" fill-opacity="0.200000" stroke="#000000" stroke-width="2" stroke-opacity="0.200000" points="517.21,-271.75 521.11,-279.85 513.01,-275.95 517.21,-271.75"/>
</g>
<!-- src/application/services/FileParserService.ts -->
<g id="node6" class="node">
<title>src/application/services/FileParserService.ts</title>
<g id="a_node6"><a xlink:href="src/application/services/FileParserService.ts" xlink:title="FileParserService.ts">
<path fill="#ddfeff" stroke="black" d="M360.08,-230.88C360.08,-230.88 274.42,-230.88 274.42,-230.88 271.21,-230.88 268,-227.67 268,-224.46 268,-224.46 268,-218.04 268,-218.04 268,-214.84 271.21,-211.63 274.42,-211.63 274.42,-211.63 360.08,-211.63 360.08,-211.63 363.29,-211.63 366.5,-214.84 366.5,-218.04 366.5,-218.04 366.5,-224.46 366.5,-224.46 366.5,-227.67 363.29,-230.88 360.08,-230.88"/>
<text text-anchor="start" x="276" y="-218.33" font-family="Helvetica,sans-Serif" font-size="9.00">FileParserService.ts</text>
</a>
</g>
</g>
<!-- src/application/services/FileParserService.ts&#45;&gt;src/domain/entities/index.ts -->
<g id="edge7" class="edge">
<title>src/application/services/FileParserService.ts&#45;&gt;src/domain/entities/index.ts</title>
<path fill="none" stroke="#000000" stroke-opacity="0.200000" d="M366.83,-218.15C382.48,-219.76 398.56,-224.64 409.38,-236.25 422.6,-250.46 403.17,-310.02 417.38,-323.25 426.56,-331.81 598.26,-330.65 672.45,-329.74"/>
<polygon fill="none" stroke="#000000" stroke-opacity="0.200000" points="672.25,-331.84 678.22,-329.67 672.19,-327.64 672.25,-331.84"/>
</g>
<!-- src/application/services/FileParserService.ts&#45;&gt;src/application/ports/index.ts -->
<g id="edge6" class="edge">
<title>src/application/services/FileParserService.ts&#45;&gt;src/application/ports/index.ts</title>
<path fill="none" stroke="#000000" stroke-opacity="0.200000" d="M366.69,-221.25C383.68,-221.25 402.38,-221.25 417.88,-221.25"/>
<polygon fill="none" stroke="#000000" stroke-opacity="0.200000" points="417.69,-223.35 423.69,-221.25 417.69,-219.15 417.69,-223.35"/>
</g>
<!-- src/infrastructure/services/index.ts -->
<g id="node7" class="node">
<title>src/infrastructure/services/index.ts</title>
<g id="a_node7"><a xlink:href="src/infrastructure/services/index.ts" xlink:title="index.ts">
<path fill="#ddfeff" stroke="black" d="M472.96,-69.88C472.96,-69.88 431.79,-69.88 431.79,-69.88 428.58,-69.88 425.38,-66.67 425.38,-63.46 425.38,-63.46 425.38,-57.04 425.38,-57.04 425.38,-53.84 428.58,-50.63 431.79,-50.63 431.79,-50.63 472.96,-50.63 472.96,-50.63 476.17,-50.63 479.38,-53.84 479.38,-57.04 479.38,-57.04 479.38,-63.46 479.38,-63.46 479.38,-66.67 476.17,-69.88 472.96,-69.88"/>
<text text-anchor="start" x="436.62" y="-57.33" font-family="Helvetica,sans-Serif" font-size="9.00">index.ts</text>
</a>
</g>
</g>
<!-- src/application/services/FileParserService.ts&#45;&gt;src/infrastructure/services/index.ts -->
<g id="edge8" class="edge">
<title>src/application/services/FileParserService.ts&#45;&gt;src/infrastructure/services/index.ts</title>
<path fill="none" stroke="#000000" stroke-width="2" stroke-opacity="0.200000" d="M345.69,-211.31C366.72,-202.18 394.56,-186.5 409.38,-163.25 424.07,-140.19 406.59,-127.38 417.38,-102.25 421.45,-92.75 428.33,-83.64 434.83,-76.35"/>
<polygon fill="#000000" fill-opacity="0.200000" stroke="#000000" stroke-width="2" stroke-opacity="0.200000" points="435.95,-78.22 438.53,-72.41 432.89,-75.35 435.95,-78.22"/>
</g>
<!-- src/infrastructure/video/index.ts -->
<g id="node8" class="node">
<title>src/infrastructure/video/index.ts</title>
<g id="a_node8"><a xlink:href="src/infrastructure/video/index.ts" xlink:title="index.ts">
<path fill="#ddfeff" stroke="black" d="M472.96,-132.88C472.96,-132.88 431.79,-132.88 431.79,-132.88 428.58,-132.88 425.38,-129.67 425.38,-126.46 425.38,-126.46 425.38,-120.04 425.38,-120.04 425.38,-116.84 428.58,-113.63 431.79,-113.63 431.79,-113.63 472.96,-113.63 472.96,-113.63 476.17,-113.63 479.38,-116.84 479.38,-120.04 479.38,-120.04 479.38,-126.46 479.38,-126.46 479.38,-129.67 476.17,-132.88 472.96,-132.88"/>
<text text-anchor="start" x="436.62" y="-120.33" font-family="Helvetica,sans-Serif" font-size="9.00">index.ts</text>
</a>
</g>
</g>
<!-- src/application/services/FileParserService.ts&#45;&gt;src/infrastructure/video/index.ts -->
<g id="edge9" class="edge">
<title>src/application/services/FileParserService.ts&#45;&gt;src/infrastructure/video/index.ts</title>
<path fill="none" stroke="#000000" stroke-width="2" stroke-opacity="0.200000" d="M336.06,-211.31C354.94,-200.45 385.3,-182.09 409.38,-163.25 418.67,-155.98 428.25,-146.99 435.92,-139.37"/>
<polygon fill="#000000" fill-opacity="0.200000" stroke="#000000" stroke-width="2" stroke-opacity="0.200000" points="437,-141.26 439.73,-135.51 434.02,-138.31 437,-141.26"/>
</g>
<!-- src/application/services/FiltersService.ts -->
<g id="node9" class="node">
<title>src/application/services/FiltersService.ts</title>
<g id="a_node9"><a xlink:href="src/application/services/FiltersService.ts" xlink:title="FiltersService.ts">
<path fill="#ddfeff" stroke="black" d="M351.46,-261.88C351.46,-261.88 283.04,-261.88 283.04,-261.88 279.83,-261.88 276.62,-258.67 276.62,-255.46 276.62,-255.46 276.62,-249.04 276.62,-249.04 276.62,-245.84 279.83,-242.63 283.04,-242.63 283.04,-242.63 351.46,-242.63 351.46,-242.63 354.67,-242.63 357.88,-245.84 357.88,-249.04 357.88,-249.04 357.88,-255.46 357.88,-255.46 357.88,-258.67 354.67,-261.88 351.46,-261.88"/>
<text text-anchor="start" x="284.62" y="-249.33" font-family="Helvetica,sans-Serif" font-size="9.00">FiltersService.ts</text>
</a>
</g>
</g>
<!-- src/application/services/FiltersService.ts&#45;&gt;src/domain/entities/index.ts -->
<g id="edge10" class="edge">
<title>src/application/services/FiltersService.ts&#45;&gt;src/domain/entities/index.ts</title>
<path fill="none" stroke="#000000" stroke-opacity="0.200000" d="M358.19,-248.74C376.25,-249.41 396.4,-253.71 409.38,-267.25 429.82,-288.59 395.26,-313.66 417.38,-333.25 436.1,-349.85 601.23,-338.13 673.03,-332.16"/>
<polygon fill="none" stroke="#000000" stroke-opacity="0.200000" points="672.77,-334.29 678.58,-331.7 672.42,-330.11 672.77,-334.29"/>
</g>
<!-- src/application/services/Hotkeys.ts -->
<g id="node10" class="node">
<title>src/application/services/Hotkeys.ts</title>
<g id="a_node10"><a xlink:href="src/application/services/Hotkeys.ts" xlink:title="Hotkeys.ts">
<path fill="#ddfeff" stroke="black" d="M340.21,-292.88C340.21,-292.88 294.29,-292.88 294.29,-292.88 291.08,-292.88 287.88,-289.67 287.88,-286.46 287.88,-286.46 287.88,-280.04 287.88,-280.04 287.88,-276.84 291.08,-273.63 294.29,-273.63 294.29,-273.63 340.21,-273.63 340.21,-273.63 343.42,-273.63 346.62,-276.84 346.62,-280.04 346.62,-280.04 346.62,-286.46 346.62,-286.46 346.62,-289.67 343.42,-292.88 340.21,-292.88"/>
<text text-anchor="start" x="295.88" y="-280.33" font-family="Helvetica,sans-Serif" font-size="9.00">Hotkeys.ts</text>
</a>
</g>
</g>
<!-- src/application/services/index.ts -->
<g id="node11" class="node">
<title>src/application/services/index.ts</title>
<g id="a_node11"><a xlink:href="src/application/services/index.ts" xlink:title="index.ts">
<path fill="#ddfeff" stroke="black" d="M203.83,-292.88C203.83,-292.88 162.67,-292.88 162.67,-292.88 159.46,-292.88 156.25,-289.67 156.25,-286.46 156.25,-286.46 156.25,-280.04 156.25,-280.04 156.25,-276.84 159.46,-273.63 162.67,-273.63 162.67,-273.63 203.83,-273.63 203.83,-273.63 207.04,-273.63 210.25,-276.84 210.25,-280.04 210.25,-280.04 210.25,-286.46 210.25,-286.46 210.25,-289.67 207.04,-292.88 203.83,-292.88"/>
<text text-anchor="start" x="167.5" y="-280.33" font-family="Helvetica,sans-Serif" font-size="9.00">index.ts</text>
</a>
</g>
</g>
<!-- src/application/services/index.ts&#45;&gt;src/application/services/FileParserService.ts -->
<g id="edge11" class="edge">
<title>src/application/services/index.ts&#45;&gt;src/application/services/FileParserService.ts</title>
<path fill="none" stroke="#000000" stroke-width="2" stroke-opacity="0.200000" d="M188.61,-273.14C193.92,-262.14 203.98,-244.97 267.54,-221.21"/>
<polygon fill="#000000" fill-opacity="0.200000" stroke="#000000" stroke-width="2" stroke-opacity="0.200000" points="270.35,-219.82 274.25,-227.92 266.15,-224.02 270.35,-219.82"/>
</g>
<!-- src/application/services/index.ts&#45;&gt;src/application/services/FiltersService.ts -->
<g id="edge12" class="edge">
<title>src/application/services/index.ts&#45;&gt;src/application/services/FiltersService.ts</title>
<path fill="none" stroke="#000000" stroke-width="2" stroke-opacity="0.200000" d="M202.93,-273.29C207.81,-271.01 213.13,-268.81 276.57,-255.7"/>
<polygon fill="#000000" fill-opacity="0.200000" stroke="#000000" stroke-width="2" stroke-opacity="0.200000" points="279.37,-254.3 283.27,-262.4 275.17,-258.5 279.37,-254.3"/>
</g>
<!-- src/application/services/index.ts&#45;&gt;src/application/services/Hotkeys.ts -->
<g id="edge13" class="edge">
<title>src/application/services/index.ts&#45;&gt;src/application/services/Hotkeys.ts</title>
<path fill="none" stroke="#000000" stroke-width="2" stroke-opacity="0.200000" d="M210.64,-283.25C232.91,-283.25 264.73,-283.25 287.61,-283.25"/>
<polygon fill="#000000" fill-opacity="0.200000" stroke="#000000" stroke-width="2" stroke-opacity="0.200000" points="290.42,-281.86 294.32,-289.96 286.22,-286.06 290.42,-281.86"/>
</g>
<!-- src/application/usecases/AddVideosFromFilesUseCase.ts -->
<g id="node12" class="node">
<title>src/application/usecases/AddVideosFromFilesUseCase.ts</title>
<g id="a_node12"><a xlink:href="src/application/usecases/AddVideosFromFilesUseCase.ts" xlink:title="AddVideosFromFilesUseCase.ts">
<path fill="#ddfeff" stroke="black" d="M386.71,-386.88C386.71,-386.88 247.79,-386.88 247.79,-386.88 244.58,-386.88 241.38,-383.67 241.38,-380.46 241.38,-380.46 241.38,-374.04 241.38,-374.04 241.38,-370.84 244.58,-367.63 247.79,-367.63 247.79,-367.63 386.71,-367.63 386.71,-367.63 389.92,-367.63 393.12,-370.84 393.12,-374.04 393.12,-374.04 393.12,-380.46 393.12,-380.46 393.12,-383.67 389.92,-386.88 386.71,-386.88"/>
<text text-anchor="start" x="249.38" y="-374.33" font-family="Helvetica,sans-Serif" font-size="9.00">AddVideosFromFilesUseCase.ts</text>
</a>
</g>
</g>
<!-- src/application/usecases/AddVideosFromFilesUseCase.ts&#45;&gt;src/domain/entities/index.ts -->
<g id="edge15" class="edge">
<title>src/application/usecases/AddVideosFromFilesUseCase.ts&#45;&gt;src/domain/entities/index.ts</title>
<path fill="none" stroke="#000000" stroke-opacity="0.200000" d="M393.29,-381.72C462.81,-383.73 568.4,-381.35 656.12,-356.25 666.25,-353.36 676.63,-348.18 685.29,-343.13"/>
<polygon fill="none" stroke="#000000" stroke-opacity="0.200000" points="686.21,-345.02 690.25,-340.11 684.03,-341.43 686.21,-345.02"/>
</g>
<!-- src/application/usecases/AddVideosFromFilesUseCase.ts&#45;&gt;src/application/ports/index.ts -->
<g id="edge14" class="edge">
<title>src/application/usecases/AddVideosFromFilesUseCase.ts&#45;&gt;src/application/ports/index.ts</title>
<path fill="none" stroke="#000000" stroke-opacity="0.200000" d="M393.56,-372.1C399.31,-369.61 404.68,-366.39 409.38,-362.25 445.62,-330.32 451.23,-268.63 451.69,-238.57"/>
<polygon fill="none" stroke="#000000" stroke-opacity="0.200000" points="453.79,-238.83 451.71,-232.82 449.59,-238.82 453.79,-238.83"/>
</g>
<!-- src/application/usecases/UpdateVideoThumbnailsUseCase.ts -->
<g id="node13" class="node">
<title>src/application/usecases/UpdateVideoThumbnailsUseCase.ts</title>
<g id="a_node13"><a xlink:href="src/application/usecases/UpdateVideoThumbnailsUseCase.ts" xlink:title="UpdateVideoThumbnailsUseCase.ts">
<path fill="#ddfeff" stroke="black" d="M394.96,-355.88C394.96,-355.88 239.54,-355.88 239.54,-355.88 236.33,-355.88 233.12,-352.67 233.12,-349.46 233.12,-349.46 233.12,-343.04 233.12,-343.04 233.12,-339.84 236.33,-336.63 239.54,-336.63 239.54,-336.63 394.96,-336.63 394.96,-336.63 398.17,-336.63 401.38,-339.84 401.38,-343.04 401.38,-343.04 401.38,-349.46 401.38,-349.46 401.38,-352.67 398.17,-355.88 394.96,-355.88"/>
<text text-anchor="start" x="241.12" y="-343.33" font-family="Helvetica,sans-Serif" font-size="9.00">UpdateVideoThumbnailsUseCase.ts</text>
</a>
</g>
</g>
<!-- src/application/usecases/UpdateVideoThumbnailsUseCase.ts&#45;&gt;src/domain/entities/index.ts -->
<g id="edge17" class="edge">
<title>src/application/usecases/UpdateVideoThumbnailsUseCase.ts&#45;&gt;src/domain/entities/index.ts</title>
<path fill="none" stroke="#000000" stroke-opacity="0.200000" d="M401.81,-347.16C407.07,-347.19 412.3,-347.23 417.38,-347.25 523.48,-347.79 551.59,-365.5 656.12,-347.25 662.93,-346.06 670.04,-344.03 676.68,-341.75"/>
<polygon fill="none" stroke="#000000" stroke-opacity="0.200000" points="677.34,-343.75 682.25,-339.72 675.9,-339.8 677.34,-343.75"/>
</g>
<!-- src/application/usecases/UpdateVideoThumbnailsUseCase.ts&#45;&gt;src/application/ports/index.ts -->
<g id="edge16" class="edge">
<title>src/application/usecases/UpdateVideoThumbnailsUseCase.ts&#45;&gt;src/application/ports/index.ts</title>
<path fill="none" stroke="#000000" stroke-opacity="0.200000" d="M387.4,-336.3C395.39,-333.05 402.96,-328.81 409.38,-323.25 434.89,-301.16 445.18,-261.15 449.11,-238.36"/>
<polygon fill="none" stroke="#000000" stroke-opacity="0.200000" points="451.17,-238.82 450.02,-232.57 447.02,-238.17 451.17,-238.82"/>
</g>
<!-- src/application/usecases/index.ts -->
<g id="node14" class="node">
<title>src/application/usecases/index.ts</title>
<g id="a_node14"><a xlink:href="src/application/usecases/index.ts" xlink:title="index.ts">
<path fill="#ddfeff" stroke="black" d="M203.83,-355.88C203.83,-355.88 162.67,-355.88 162.67,-355.88 159.46,-355.88 156.25,-352.67 156.25,-349.46 156.25,-349.46 156.25,-343.04 156.25,-343.04 156.25,-339.84 159.46,-336.63 162.67,-336.63 162.67,-336.63 203.83,-336.63 203.83,-336.63 207.04,-336.63 210.25,-339.84 210.25,-343.04 210.25,-343.04 210.25,-349.46 210.25,-349.46 210.25,-352.67 207.04,-355.88 203.83,-355.88"/>
<text text-anchor="start" x="167.5" y="-343.33" font-family="Helvetica,sans-Serif" font-size="9.00">index.ts</text>
</a>
</g>
</g>
<!-- src/application/usecases/index.ts&#45;&gt;src/application/usecases/AddVideosFromFilesUseCase.ts -->
<g id="edge18" class="edge">
<title>src/application/usecases/index.ts&#45;&gt;src/application/usecases/AddVideosFromFilesUseCase.ts</title>
<path fill="none" stroke="#000000" stroke-width="2" stroke-opacity="0.200000" d="M202.93,-356.22C207.81,-358.49 213.13,-360.69 241.11,-368.03"/>
<polygon fill="#000000" fill-opacity="0.200000" stroke="#000000" stroke-width="2" stroke-opacity="0.200000" points="243.91,-366.64 247.81,-374.74 239.71,-370.84 243.91,-366.64"/>
</g>
<!-- src/application/usecases/index.ts&#45;&gt;src/application/usecases/UpdateVideoThumbnailsUseCase.ts -->
<g id="edge19" class="edge">
<title>src/application/usecases/index.ts&#45;&gt;src/application/usecases/UpdateVideoThumbnailsUseCase.ts</title>
<path fill="none" stroke="#000000" stroke-width="2" stroke-opacity="0.200000" d="M210.64,-346.25C217.34,-346.25 224.9,-346.25 232.82,-346.25"/>
<polygon fill="#000000" fill-opacity="0.200000" stroke="#000000" stroke-width="2" stroke-opacity="0.200000" points="235.63,-344.86 239.53,-352.96 231.43,-349.06 235.63,-344.86"/>
</g>
<!-- src/infrastructure/adapters/VideoParserAdapter.ts -->
<g id="node15" class="node">
<title>src/infrastructure/adapters/VideoParserAdapter.ts</title>
<g id="a_node15"><a xlink:href="src/infrastructure/adapters/VideoParserAdapter.ts" xlink:title="VideoParserAdapter.ts">
<path fill="#ddfeff" stroke="black" d="M364.96,-101.88C364.96,-101.88 269.54,-101.88 269.54,-101.88 266.33,-101.88 263.12,-98.67 263.12,-95.46 263.12,-95.46 263.12,-89.04 263.12,-89.04 263.12,-85.84 266.33,-82.63 269.54,-82.63 269.54,-82.63 364.96,-82.63 364.96,-82.63 368.17,-82.63 371.38,-85.84 371.38,-89.04 371.38,-89.04 371.38,-95.46 371.38,-95.46 371.38,-98.67 368.17,-101.88 364.96,-101.88"/>
<text text-anchor="start" x="271.12" y="-89.33" font-family="Helvetica,sans-Serif" font-size="9.00">VideoParserAdapter.ts</text>
</a>
</g>
</g>
<!-- src/infrastructure/adapters/VideoParserAdapter.ts&#45;&gt;src/domain/entities/index.ts -->
<g id="edge21" class="edge">
<title>src/infrastructure/adapters/VideoParserAdapter.ts&#45;&gt;src/domain/entities/index.ts</title>
<path fill="none" stroke="#000000" stroke-opacity="0.200000" d="M371.78,-93.88C385.54,-91.72 399.3,-86.9 409.38,-77.25 421.85,-65.32 403.97,-50.13 417.38,-39.25 444.29,-17.41 463.35,-25.97 495.38,-39.25 588.78,-77.98 600.95,-115.52 656.12,-200.25 679.88,-236.74 695.06,-286.22 701.9,-312.01"/>
<polygon fill="none" stroke="#000000" stroke-opacity="0.200000" points="699.85,-312.46 703.38,-317.75 703.92,-311.41 699.85,-312.46"/>
</g>
<!-- src/infrastructure/adapters/VideoParserAdapter.ts&#45;&gt;src/application/ports/index.ts -->
<g id="edge20" class="edge">
<title>src/infrastructure/adapters/VideoParserAdapter.ts&#45;&gt;src/application/ports/index.ts</title>
<path fill="none" stroke="#000000" stroke-opacity="0.200000" d="M371.72,-90.13C385.65,-92.25 399.5,-97.17 409.38,-107.25 418.17,-116.24 413.23,-151.39 417.38,-163.25 422.65,-178.36 432.03,-193.92 439.6,-205.12"/>
<polygon fill="none" stroke="#000000" stroke-opacity="0.200000" points="437.79,-206.19 442.94,-209.92 441.24,-203.8 437.79,-206.19"/>
</g>
<!-- src/infrastructure/adapters/VideoParserAdapter.ts&#45;&gt;src/infrastructure/services/index.ts -->
<g id="edge22" class="edge">
<title>src/infrastructure/adapters/VideoParserAdapter.ts&#45;&gt;src/infrastructure/services/index.ts</title>
<path fill="none" stroke="#000000" stroke-width="2" stroke-opacity="0.200000" d="M371.69,-85.49C384.17,-83.35 397.34,-80.64 409.38,-77.25 413.14,-76.2 417.03,-74.91 420.85,-73.52"/>
<polygon fill="#000000" fill-opacity="0.200000" stroke="#000000" stroke-width="2" stroke-opacity="0.200000" points="421.36,-75.57 426.2,-71.45 419.85,-71.65 421.36,-75.57"/>
</g>
<!-- src/infrastructure/adapters/VideoParserAdapter.ts&#45;&gt;src/infrastructure/video/index.ts -->
<g id="edge23" class="edge">
<title>src/infrastructure/adapters/VideoParserAdapter.ts&#45;&gt;src/infrastructure/video/index.ts</title>
<path fill="none" stroke="#000000" stroke-width="2" stroke-opacity="0.200000" d="M371.64,-99.2C384.12,-101.33 397.3,-103.99 409.38,-107.25 412.67,-108.14 416.07,-109.2 419.43,-110.33"/>
<polygon fill="#000000" fill-opacity="0.200000" stroke="#000000" stroke-width="2" stroke-opacity="0.200000" points="418.45,-112.21 424.81,-112.25 419.87,-108.25 418.45,-112.21"/>
</g>
<!-- src/infrastructure/adapters/VideoStorageAdapter.ts -->
<g id="node16" class="node">
<title>src/infrastructure/adapters/VideoStorageAdapter.ts</title>
<g id="a_node16"><a xlink:href="src/infrastructure/adapters/VideoStorageAdapter.ts" xlink:title="VideoStorageAdapter.ts">
<path fill="#ddfeff" stroke="black" d="M367.21,-70.88C367.21,-70.88 267.29,-70.88 267.29,-70.88 264.08,-70.88 260.88,-67.67 260.88,-64.46 260.88,-64.46 260.88,-58.04 260.88,-58.04 260.88,-54.84 264.08,-51.63 267.29,-51.63 267.29,-51.63 367.21,-51.63 367.21,-51.63 370.42,-51.63 373.62,-54.84 373.62,-58.04 373.62,-58.04 373.62,-64.46 373.62,-64.46 373.62,-67.67 370.42,-70.88 367.21,-70.88"/>
<text text-anchor="start" x="268.88" y="-58.33" font-family="Helvetica,sans-Serif" font-size="9.00">VideoStorageAdapter.ts</text>
</a>
</g>
</g>
<!-- src/infrastructure/adapters/VideoStorageAdapter.ts&#45;&gt;src/domain/entities/index.ts -->
<g id="edge25" class="edge">
<title>src/infrastructure/adapters/VideoStorageAdapter.ts&#45;&gt;src/domain/entities/index.ts</title>
<path fill="none" stroke="#000000" stroke-opacity="0.200000" d="M338.75,-51.19C397.19,-24.09 566.23,42.85 656.12,-41.25 695.86,-78.43 704.11,-255.42 705.74,-311.9"/>
<polygon fill="none" stroke="#000000" stroke-opacity="0.200000" points="703.64,-311.87 705.9,-317.81 707.84,-311.76 703.64,-311.87"/>
</g>
<!-- src/infrastructure/adapters/VideoStorageAdapter.ts&#45;&gt;src/application/ports/index.ts -->
<g id="edge24" class="edge">
<title>src/infrastructure/adapters/VideoStorageAdapter.ts&#45;&gt;src/application/ports/index.ts</title>
<path fill="none" stroke="#000000" stroke-opacity="0.200000" d="M373.95,-59.12C387.23,-61.39 400.2,-66.4 409.38,-76.25 422.6,-90.46 411.43,-144.77 417.38,-163.25 422.27,-178.49 431.67,-194.04 439.35,-205.2"/>
<polygon fill="none" stroke="#000000" stroke-opacity="0.200000" points="437.57,-206.31 442.75,-209.99 440.99,-203.88 437.57,-206.31"/>
</g>
<!-- src/infrastructure/adapters/VideoStorageAdapter.ts&#45;&gt;src/infrastructure/services/index.ts -->
<g id="edge26" class="edge">
<title>src/infrastructure/adapters/VideoStorageAdapter.ts&#45;&gt;src/infrastructure/services/index.ts</title>
<path fill="none" stroke="#000000" stroke-width="2" stroke-opacity="0.200000" d="M373.94,-60.83C388.15,-60.73 403.05,-60.62 415.94,-60.52"/>
<polygon fill="#000000" fill-opacity="0.200000" stroke="#000000" stroke-width="2" stroke-opacity="0.200000" points="415.92,-62.62 421.91,-60.47 415.89,-58.42 415.92,-62.62"/>
</g>
<!-- src/infrastructure/adapters/VideoThumbnailGeneratorAdapter.ts -->
<g id="node17" class="node">
<title>src/infrastructure/adapters/VideoThumbnailGeneratorAdapter.ts</title>
<g id="a_node17"><a xlink:href="src/infrastructure/adapters/VideoThumbnailGeneratorAdapter.ts" xlink:title="VideoThumbnailGeneratorAdapter.ts">
<path fill="#ddfeff" stroke="black" d="M393.83,-132.88C393.83,-132.88 240.67,-132.88 240.67,-132.88 237.46,-132.88 234.25,-129.67 234.25,-126.46 234.25,-126.46 234.25,-120.04 234.25,-120.04 234.25,-116.84 237.46,-113.63 240.67,-113.63 240.67,-113.63 393.83,-113.63 393.83,-113.63 397.04,-113.63 400.25,-116.84 400.25,-120.04 400.25,-120.04 400.25,-126.46 400.25,-126.46 400.25,-129.67 397.04,-132.88 393.83,-132.88"/>
<text text-anchor="start" x="242.25" y="-120.33" font-family="Helvetica,sans-Serif" font-size="9.00">VideoThumbnailGeneratorAdapter.ts</text>
</a>
</g>
</g>
<!-- src/infrastructure/adapters/VideoThumbnailGeneratorAdapter.ts&#45;&gt;src/application/ports/index.ts -->
<g id="edge27" class="edge">
<title>src/infrastructure/adapters/VideoThumbnailGeneratorAdapter.ts&#45;&gt;src/application/ports/index.ts</title>
<path fill="none" stroke="#000000" stroke-opacity="0.200000" d="M332,-133.37C355.84,-150.92 404.9,-187.04 432.12,-207.08"/>
<polygon fill="none" stroke="#000000" stroke-opacity="0.200000" points="430.61,-208.57 436.68,-210.44 433.1,-205.19 430.61,-208.57"/>
</g>
<!-- src/infrastructure/adapters/VideoThumbnailGeneratorAdapter.ts&#45;&gt;src/infrastructure/video/index.ts -->
<g id="edge28" class="edge">
<title>src/infrastructure/adapters/VideoThumbnailGeneratorAdapter.ts&#45;&gt;src/infrastructure/video/index.ts</title>
<path fill="none" stroke="#000000" stroke-width="2" stroke-opacity="0.200000" d="M400.67,-123.25C405.98,-123.25 411.15,-123.25 416.04,-123.25"/>
<polygon fill="#000000" fill-opacity="0.200000" stroke="#000000" stroke-width="2" stroke-opacity="0.200000" points="416,-125.35 422,-123.25 416,-121.15 416,-125.35"/>
</g>
<!-- src/presentation/stores/appStateStore.ts -->
<g id="node18" class="node">
<title>src/presentation/stores/appStateStore.ts</title>
<g id="a_node18"><a xlink:href="src/presentation/stores/appStateStore.ts" xlink:title="appStateStore.ts">
<path fill="#ddfeff" stroke="black" d="M109.83,-308.88C109.83,-308.88 38.42,-308.88 38.42,-308.88 35.21,-308.88 32,-305.67 32,-302.46 32,-302.46 32,-296.04 32,-296.04 32,-292.84 35.21,-289.63 38.42,-289.63 38.42,-289.63 109.83,-289.63 109.83,-289.63 113.04,-289.63 116.25,-292.84 116.25,-296.04 116.25,-296.04 116.25,-302.46 116.25,-302.46 116.25,-305.67 113.04,-308.88 109.83,-308.88"/>
<text text-anchor="start" x="40" y="-296.33" font-family="Helvetica,sans-Serif" font-size="9.00">appStateStore.ts</text>
</a>
</g>
</g>
<!-- src/presentation/stores/appStateStore.ts&#45;&gt;src/application/services/index.ts -->
<g id="edge29" class="edge">
<title>src/presentation/stores/appStateStore.ts&#45;&gt;src/application/services/index.ts</title>
<path fill="none" stroke="#000000" stroke-width="2" stroke-opacity="0.200000" d="M116.54,-293.07C126.64,-291.56 137.34,-289.96 147.12,-288.5"/>
<polygon fill="#000000" fill-opacity="0.200000" stroke="#000000" stroke-width="2" stroke-opacity="0.200000" points="147.17,-290.62 152.79,-287.65 146.55,-286.46 147.17,-290.62"/>
</g>
<!-- src/presentation/stores/videosStore.ts -->
<g id="node19" class="node">
<title>src/presentation/stores/videosStore.ts</title>
<g id="a_node19"><a xlink:href="src/presentation/stores/videosStore.ts" xlink:title="videosStore.ts">
<path fill="#ddfeff" stroke="black" d="M104.96,-339.88C104.96,-339.88 43.29,-339.88 43.29,-339.88 40.08,-339.88 36.88,-336.67 36.88,-333.46 36.88,-333.46 36.88,-327.04 36.88,-327.04 36.88,-323.84 40.08,-320.63 43.29,-320.63 43.29,-320.63 104.96,-320.63 104.96,-320.63 108.17,-320.63 111.38,-323.84 111.38,-327.04 111.38,-327.04 111.38,-333.46 111.38,-333.46 111.38,-336.67 108.17,-339.88 104.96,-339.88"/>
<text text-anchor="start" x="44.88" y="-327.33" font-family="Helvetica,sans-Serif" font-size="9.00">videosStore.ts</text>
</a>
</g>
</g>
<!-- src/presentation/stores/videosStore.ts&#45;&gt;src/domain/entities/index.ts -->
<g id="edge32" class="edge">
<title>src/presentation/stores/videosStore.ts&#45;&gt;src/domain/entities/index.ts</title>
<path fill="none" stroke="#000000" stroke-opacity="0.200000" d="M79.53,-340.26C88.24,-358.74 109.5,-398.11 140.25,-417.25 207.81,-459.31 236.66,-450.25 316.25,-450.25 316.25,-450.25 316.25,-450.25 453.38,-450.25 549.92,-450.25 573.25,-421.79 656.12,-372.25 669.1,-364.49 682,-353.3 691.44,-344.27"/>
<polygon fill="none" stroke="#000000" stroke-opacity="0.200000" points="692.67,-346.01 695.5,-340.31 689.74,-343 692.67,-346.01"/>
</g>
<!-- src/presentation/stores/videosStore.ts&#45;&gt;src/application/services/index.ts -->
<g id="edge30" class="edge">
<title>src/presentation/stores/videosStore.ts&#45;&gt;src/application/services/index.ts</title>
<path fill="none" stroke="#000000" stroke-width="2" stroke-opacity="0.200000" d="M111.66,-322.48C118.63,-320.49 125.77,-318.09 132.25,-315.25 142.62,-310.71 153.29,-304.17 162.1,-298.19"/>
<polygon fill="#000000" fill-opacity="0.200000" stroke="#000000" stroke-width="2" stroke-opacity="0.200000" points="163.12,-300.04 166.83,-294.88 160.71,-296.6 163.12,-300.04"/>
</g>
<!-- src/presentation/stores/videosStore.ts&#45;&gt;src/application/usecases/index.ts -->
<g id="edge31" class="edge">
<title>src/presentation/stores/videosStore.ts&#45;&gt;src/application/usecases/index.ts</title>
<path fill="none" stroke="#000000" stroke-width="2" stroke-opacity="0.200000" d="M111.69,-335.71C123.17,-337.43 135.81,-339.32 147.18,-341.02"/>
<polygon fill="#000000" fill-opacity="0.200000" stroke="#000000" stroke-width="2" stroke-opacity="0.200000" points="146.75,-343.07 152.99,-341.88 147.37,-338.92 146.75,-343.07"/>
</g>
</g>
</svg>
