<?xml version="1.0" encoding="UTF-8" standalone="no"?>
<!DOCTYPE svg PUBLIC "-//W3C//DTD SVG 1.1//EN"
 "http://www.w3.org/Graphics/SVG/1.1/DTD/svg11.dtd">
<!-- Generated by graphviz version 9.0.0 (20230911.1827)
 -->
<!-- Title: dependency&#45;cruiser output Pages: 1 -->
<svg width="458pt" height="218pt"
 viewBox="0.00 0.00 458.00 218.00" xmlns="http://www.w3.org/2000/svg" xmlns:xlink="http://www.w3.org/1999/xlink">
<g id="graph0" class="graph" transform="scale(1 1) rotate(0) translate(4 214)">
<title>dependency&#45;cruiser output</title>
<polygon fill="white" stroke="none" points="-4,4 -4,-214 454,-214 454,4 -4,4"/>
<g id="clust1" class="cluster">
<title>cluster_src</title>
<path fill="#ffffff" stroke="black" stroke-width="2" d="M20,-8C20,-8 430,-8 430,-8 436,-8 442,-14 442,-20 442,-20 442,-190 442,-190 442,-196 436,-202 430,-202 430,-202 20,-202 20,-202 14,-202 8,-196 8,-190 8,-190 8,-20 8,-20 8,-14 14,-8 20,-8"/>
<text text-anchor="middle" x="225" y="-189.45" font-family="Helvetica,sans-Serif" font-weight="bold" font-size="9.00">src</text>
</g>
<g id="clust2" class="cluster">
<title>cluster_src/application</title>
<path fill="#ffffff" stroke="black" stroke-width="2" d="M106,-79C106,-79 344,-79 344,-79 350,-79 356,-85 356,-91 356,-91 356,-153 356,-153 356,-159 350,-165 344,-165 344,-165 106,-165 106,-165 100,-165 94,-159 94,-153 94,-153 94,-91 94,-91 94,-85 100,-79 106,-79"/>
<text text-anchor="middle" x="225" y="-152.45" font-family="Helvetica,sans-Serif" font-weight="bold" font-size="9.00">application</text>
</g>
<g id="clust4" class="cluster">
<title>cluster_src/infrastructure</title>
<path fill="#ffffff" stroke="black" stroke-width="2" d="M215,-16C215,-16 266,-16 266,-16 272,-16 278,-22 278,-28 278,-28 278,-59 278,-59 278,-65 272,-71 266,-71 266,-71 215,-71 215,-71 209,-71 203,-65 203,-59 203,-59 203,-28 203,-28 203,-22 209,-16 215,-16"/>
<text text-anchor="middle" x="240.5" y="-58.45" font-family="Helvetica,sans-Serif" font-weight="bold" font-size="9.00">infrastructure</text>
</g>
<g id="clust5" class="cluster">
<title>cluster_src/presentation</title>
<path fill="#ffffff" stroke="black" stroke-width="2" d="M28,-110C28,-110 74,-110 74,-110 80,-110 86,-116 86,-122 86,-122 86,-153 86,-153 86,-159 80,-165 74,-165 74,-165 28,-165 28,-165 22,-165 16,-159 16,-153 16,-153 16,-122 16,-122 16,-116 22,-110 28,-110"/>
<text text-anchor="middle" x="51" y="-152.45" font-family="Helvetica,sans-Serif" font-weight="bold" font-size="9.00">presentation</text>
</g>
<g id="clust3" class="cluster">
<title>cluster_src/domain</title>
<path fill="#ffffff" stroke="black" stroke-width="2" d="M376,-102C376,-102 422,-102 422,-102 428,-102 434,-108 434,-114 434,-114 434,-145 434,-145 434,-151 428,-157 422,-157 422,-157 376,-157 376,-157 370,-157 364,-151 364,-145 364,-145 364,-114 364,-114 364,-108 370,-102 376,-102"/>
<text text-anchor="middle" x="399" y="-144.45" font-family="Helvetica,sans-Serif" font-weight="bold" font-size="9.00">domain</text>
</g>
<!-- src/application/dependencies.ts -->
<g id="node1" class="node">
<title>src/application/dependencies.ts</title>
<g id="a_node1"><a xlink:href="src/application/dependencies.ts" xlink:title="dependencies.ts">
<path fill="#ddfeff" stroke="black" d="M180.58,-106.62C180.58,-106.62 108.42,-106.62 108.42,-106.62 105.21,-106.62 102,-103.42 102,-100.21 102,-100.21 102,-93.79 102,-93.79 102,-90.58 105.21,-87.38 108.42,-87.38 108.42,-87.38 180.58,-87.38 180.58,-87.38 183.79,-87.38 187,-90.58 187,-93.79 187,-93.79 187,-100.21 187,-100.21 187,-103.42 183.79,-106.62 180.58,-106.62"/>
<text text-anchor="start" x="110" y="-94.08" font-family="Helvetica,sans-Serif" font-size="9.00">dependencies.ts</text>
</a>
</g>
</g>
<!-- src/application/usecases -->
<g id="node2" class="node">
<title>src/application/usecases</title>
<g id="a_node2"><a xlink:href="src/application/usecases" xlink:title="usecases">
<polygon fill="#ffffcc" stroke="black" points="268.62,-106.62 213.51,-106.62 211.38,-104.49 211.38,-87.38 266.49,-87.38 268.62,-89.51 268.62,-106.62"/>
<polyline fill="none" stroke="black" points="266.49,-104.49 211.38,-104.49"/>
<polyline fill="none" stroke="black" points="266.49,-104.49 266.49,-87.38"/>
<polyline fill="none" stroke="black" points="266.49,-104.49 268.62,-106.62"/>
<text text-anchor="start" x="219.38" y="-94.08" font-family="Helvetica,sans-Serif" font-size="9.00">usecases</text>
</a>
</g>
</g>
<!-- src/application/dependencies.ts&#45;&gt;src/application/usecases -->
<g id="edge1" class="edge">
<title>src/application/dependencies.ts&#45;&gt;src/application/usecases</title>
<path fill="none" stroke="#000000" stroke-width="2" stroke-opacity="0.200000" d="M187.33,-97C192.19,-97 197.12,-97 201.91,-97"/>
<polygon fill="#000000" fill-opacity="0.200000" stroke="#000000" stroke-width="2" stroke-opacity="0.200000" points="201.86,-99.1 207.86,-97 201.86,-94.9 201.86,-99.1"/>
</g>
<!-- src/infrastructure/adapters -->
<g id="node3" class="node">
<title>src/infrastructure/adapters</title>
<g id="a_node3"><a xlink:href="src/infrastructure/adapters" xlink:title="adapters">
<polygon fill="#ffffcc" stroke="black" points="267,-43.62 215.14,-43.62 213,-41.49 213,-24.38 264.86,-24.38 267,-26.51 267,-43.62"/>
<polyline fill="none" stroke="black" points="264.86,-41.49 213,-41.49"/>
<polyline fill="none" stroke="black" points="264.86,-41.49 264.86,-24.38"/>
<polyline fill="none" stroke="black" points="264.86,-41.49 267,-43.62"/>
<text text-anchor="start" x="221.62" y="-31.07" font-family="Helvetica,sans-Serif" font-size="9.00">adapters</text>
</a>
</g>
</g>
<!-- src/application/dependencies.ts&#45;&gt;src/infrastructure/adapters -->
<g id="edge2" class="edge">
<title>src/application/dependencies.ts&#45;&gt;src/infrastructure/adapters</title>
<path fill="none" stroke="#000000" stroke-width="2" stroke-opacity="0.200000" d="M160.52,-86.88C175.65,-76.68 199.18,-60.83 216.53,-49.14"/>
<polygon fill="#000000" fill-opacity="0.200000" stroke="#000000" stroke-width="2" stroke-opacity="0.200000" points="217.7,-50.88 221.5,-45.79 215.36,-47.4 217.7,-50.88"/>
</g>
<!-- src/application/ports -->
<g id="node4" class="node">
<title>src/application/ports</title>
<g id="a_node4"><a xlink:href="src/application/ports" xlink:title="ports">
<polygon fill="#ffffcc" stroke="black" points="348,-106.62 296.14,-106.62 294,-104.49 294,-87.38 345.86,-87.38 348,-89.51 348,-106.62"/>
<polyline fill="none" stroke="black" points="345.86,-104.49 294,-104.49"/>
<polyline fill="none" stroke="black" points="345.86,-104.49 345.86,-87.38"/>
<polyline fill="none" stroke="black" points="345.86,-104.49 348,-106.62"/>
<text text-anchor="start" x="310.5" y="-94.08" font-family="Helvetica,sans-Serif" font-size="9.00">ports</text>
</a>
</g>
</g>
<!-- src/application/usecases&#45;&gt;src/application/ports -->
<g id="edge5" class="edge">
<title>src/application/usecases&#45;&gt;src/application/ports</title>
<path fill="none" stroke="#000000" stroke-opacity="0.200000" d="M269.07,-97C274.69,-97 280.64,-97 286.41,-97"/>
<polygon fill="none" stroke="#000000" stroke-opacity="0.200000" points="286.09,-99.1 292.09,-97 286.09,-94.9 286.09,-99.1"/>
</g>
<!-- src/domain/entities -->
<g id="node5" class="node">
<title>src/domain/entities</title>
<g id="a_node5"><a xlink:href="src/domain/entities" xlink:title="entities">
<polygon fill="#ffffcc" stroke="black" points="426,-129.62 374.14,-129.62 372,-127.49 372,-110.38 423.86,-110.38 426,-112.51 426,-129.62"/>
<polyline fill="none" stroke="black" points="423.86,-127.49 372,-127.49"/>
<polyline fill="none" stroke="black" points="423.86,-127.49 423.86,-110.38"/>
<polyline fill="none" stroke="black" points="423.86,-127.49 426,-129.62"/>
<text text-anchor="start" x="384" y="-117.08" font-family="Helvetica,sans-Serif" font-size="9.00">entities</text>
</a>
</g>
</g>
<!-- src/application/usecases&#45;&gt;src/domain/entities -->
<g id="edge6" class="edge">
<title>src/application/usecases&#45;&gt;src/domain/entities</title>
<path fill="none" stroke="#000000" stroke-opacity="0.200000" d="M269.04,-106.75C277.02,-109.17 285.77,-111.5 294,-113 317.31,-117.25 343.98,-118.98 364.47,-119.66"/>
<polygon fill="none" stroke="#000000" stroke-opacity="0.200000" points="364.16,-121.75 370.21,-119.82 364.28,-117.55 364.16,-121.75"/>
</g>
<!-- src/infrastructure/adapters&#45;&gt;src/application/ports -->
<g id="edge7" class="edge">
<title>src/infrastructure/adapters&#45;&gt;src/application/ports</title>
<path fill="none" stroke="#000000" stroke-opacity="0.200000" d="M253.69,-44.12C266.71,-54.5 287.07,-70.74 301.8,-82.49"/>
<polygon fill="none" stroke="#000000" stroke-opacity="0.200000" points="300.16,-83.86 306.16,-85.96 302.77,-80.58 300.16,-83.86"/>
</g>
<!-- src/infrastructure/adapters&#45;&gt;src/domain/entities -->
<g id="edge8" class="edge">
<title>src/infrastructure/adapters&#45;&gt;src/domain/entities</title>
<path fill="none" stroke="#000000" stroke-opacity="0.200000" d="M267.23,-39.91C291.62,-46.22 328.25,-57.85 356,-76 367.6,-83.59 378.34,-94.96 386.06,-104.24"/>
<polygon fill="none" stroke="#000000" stroke-opacity="0.200000" points="384.33,-105.44 389.73,-108.8 387.6,-102.81 384.33,-105.44"/>
</g>
<!-- src/application/ports&#45;&gt;src/domain/entities -->
<g id="edge3" class="edge">
<title>src/application/ports&#45;&gt;src/domain/entities</title>
<path fill="none" stroke="#000000" stroke-opacity="0.200000" d="M348.15,-104.92C353.47,-106.52 359.13,-108.24 364.65,-109.91"/>
<polygon fill="none" stroke="#000000" stroke-opacity="0.200000" points="363.74,-111.83 370.09,-111.55 364.96,-107.81 363.74,-111.83"/>
</g>
<!-- src/application/services -->
<g id="node6" class="node">
<title>src/application/services</title>
<g id="a_node6"><a xlink:href="src/application/services" xlink:title="services">
<polygon fill="#ffffcc" stroke="black" points="171.5,-137.62 119.64,-137.62 117.5,-135.49 117.5,-118.38 169.36,-118.38 171.5,-120.51 171.5,-137.62"/>
<polyline fill="none" stroke="black" points="169.36,-135.49 117.5,-135.49"/>
<polyline fill="none" stroke="black" points="169.36,-135.49 169.36,-118.38"/>
<polyline fill="none" stroke="black" points="169.36,-135.49 171.5,-137.62"/>
<text text-anchor="start" x="127.25" y="-125.08" font-family="Helvetica,sans-Serif" font-size="9.00">services</text>
</a>
</g>
</g>
<!-- src/application/services&#45;&gt;src/domain/entities -->
<g id="edge4" class="edge">
<title>src/application/services&#45;&gt;src/domain/entities</title>
<path fill="none" stroke="#000000" stroke-opacity="0.200000" d="M171.57,-127.17C217.59,-125.72 313.18,-122.69 364.2,-121.07"/>
<polygon fill="none" stroke="#000000" stroke-opacity="0.200000" points="364.25,-123.17 370.18,-120.88 364.12,-118.97 364.25,-123.17"/>
</g>
<!-- src/presentation/stores -->
<g id="node7" class="node">
<title>src/presentation/stores</title>
<g id="a_node7"><a xlink:href="src/presentation/stores" xlink:title="stores">
<polygon fill="#ffffcc" stroke="black" points="78,-137.62 26.14,-137.62 24,-135.49 24,-118.38 75.86,-118.38 78,-120.51 78,-137.62"/>
<polyline fill="none" stroke="black" points="75.86,-135.49 24,-135.49"/>
<polyline fill="none" stroke="black" points="75.86,-135.49 75.86,-118.38"/>
<polyline fill="none" stroke="black" points="75.86,-135.49 78,-137.62"/>
<text text-anchor="start" x="37.88" y="-125.08" font-family="Helvetica,sans-Serif" font-size="9.00">stores</text>
</a>
</g>
</g>
<!-- src/presentation/stores&#45;&gt;src/application/dependencies.ts -->
<g id="edge10" class="edge">
<title>src/presentation/stores&#45;&gt;src/application/dependencies.ts</title>
<path fill="none" stroke="#000000" stroke-width="2" stroke-opacity="0.200000" d="M77.66,-117.9C83.04,-115.88 88.68,-113.82 94,-112 96.12,-111.28 98.3,-110.55 100.5,-109.83"/>
<polygon fill="#000000" fill-opacity="0.200000" stroke="#000000" stroke-width="2" stroke-opacity="0.200000" points="101.09,-111.85 106.17,-108.02 99.81,-107.85 101.09,-111.85"/>
</g>
<!-- src/presentation/stores&#45;&gt;src/domain/entities -->
<g id="edge11" class="edge">
<title>src/presentation/stores&#45;&gt;src/domain/entities</title>
<path fill="none" stroke="#000000" stroke-opacity="0.200000" d="M58.7,-137.77C66.06,-147.53 78.85,-161.94 94,-168 202.12,-211.25 249.96,-216.12 356,-168 370.33,-161.5 381.69,-147.42 388.97,-136.19"/>
<polygon fill="none" stroke="#000000" stroke-opacity="0.200000" points="390.64,-137.48 391.98,-131.27 387.05,-135.29 390.64,-137.48"/>
</g>
<!-- src/presentation/stores&#45;&gt;src/application/services -->
<g id="edge9" class="edge">
<title>src/presentation/stores&#45;&gt;src/application/services</title>
<path fill="none" stroke="#000000" stroke-width="2" stroke-opacity="0.200000" d="M78.47,-128C87.76,-128 98.35,-128 108.25,-128"/>
<polygon fill="#000000" fill-opacity="0.200000" stroke="#000000" stroke-width="2" stroke-opacity="0.200000" points="108.07,-130.1 114.07,-128 108.07,-125.9 108.07,-130.1"/>
</g>
</g>
</svg>
