<?xml version="1.0" encoding="UTF-8" standalone="no"?>
<!DOCTYPE svg PUBLIC "-//W3C//DTD SVG 1.1//EN"
 "http://www.w3.org/Graphics/SVG/1.1/DTD/svg11.dtd">
<!-- Generated by graphviz version 9.0.0 (20230911.1827)
 -->
<!-- Title: dependency&#45;cruiser output Pages: 1 -->
<svg width="1009pt" height="630pt"
 viewBox="0.00 0.00 1009.38 630.48" xmlns="http://www.w3.org/2000/svg" xmlns:xlink="http://www.w3.org/1999/xlink">
<g id="graph0" class="graph" transform="scale(1 1) rotate(0) translate(4 626.48)">
<title>dependency&#45;cruiser output</title>
<polygon fill="white" stroke="none" points="-4,4 -4,-626.48 1005.38,-626.48 1005.38,4 -4,4"/>
<g id="clust1" class="cluster">
<title>cluster_src</title>
<path fill="#ffffff" stroke="black" stroke-width="2" d="M20,-17.48C20,-17.48 981.38,-17.48 981.38,-17.48 987.38,-17.48 993.38,-23.48 993.38,-29.48 993.38,-29.48 993.38,-602.48 993.38,-602.48 993.38,-608.48 987.38,-614.48 981.38,-614.48 981.38,-614.48 20,-614.48 20,-614.48 14,-614.48 8,-608.48 8,-602.48 8,-602.48 8,-29.48 8,-29.48 8,-23.48 14,-17.48 20,-17.48"/>
<text text-anchor="middle" x="500.69" y="-601.93" font-family="Helvetica,sans-Serif" font-weight="bold" font-size="9.00">src</text>
</g>
<g id="clust2" class="cluster">
<title>cluster_src/application</title>
<path fill="#ffffff" stroke="black" stroke-width="2" d="M298.25,-216.48C298.25,-216.48 879.38,-216.48 879.38,-216.48 885.38,-216.48 891.38,-222.48 891.38,-228.48 891.38,-228.48 891.38,-575.48 891.38,-575.48 891.38,-581.48 885.38,-587.48 879.38,-587.48 879.38,-587.48 298.25,-587.48 298.25,-587.48 292.25,-587.48 286.25,-581.48 286.25,-575.48 286.25,-575.48 286.25,-228.48 286.25,-228.48 286.25,-222.48 292.25,-216.48 298.25,-216.48"/>
<text text-anchor="middle" x="588.81" y="-574.93" font-family="Helvetica,sans-Serif" font-weight="bold" font-size="9.00">application</text>
</g>
<g id="clust3" class="cluster">
<title>cluster_src/application/ports</title>
<path fill="#ffffff" stroke="black" stroke-width="2" d="M615.5,-224.48C615.5,-224.48 871.38,-224.48 871.38,-224.48 877.38,-224.48 883.38,-230.48 883.38,-236.48 883.38,-236.48 883.38,-329.48 883.38,-329.48 883.38,-335.48 877.38,-341.48 871.38,-341.48 871.38,-341.48 615.5,-341.48 615.5,-341.48 609.5,-341.48 603.5,-335.48 603.5,-329.48 603.5,-329.48 603.5,-236.48 603.5,-236.48 603.5,-230.48 609.5,-224.48 615.5,-224.48"/>
<text text-anchor="middle" x="743.44" y="-328.93" font-family="Helvetica,sans-Serif" font-weight="bold" font-size="9.00">ports</text>
</g>
<g id="clust4" class="cluster">
<title>cluster_src/application/services</title>
<path fill="#ffffff" stroke="black" stroke-width="2" d="M481.5,-443.48C481.5,-443.48 683.75,-443.48 683.75,-443.48 689.75,-443.48 695.75,-449.48 695.75,-455.48 695.75,-455.48 695.75,-548.48 695.75,-548.48 695.75,-554.48 689.75,-560.48 683.75,-560.48 683.75,-560.48 481.5,-560.48 481.5,-560.48 475.5,-560.48 469.5,-554.48 469.5,-548.48 469.5,-548.48 469.5,-455.48 469.5,-455.48 469.5,-449.48 475.5,-443.48 481.5,-443.48"/>
<text text-anchor="middle" x="582.62" y="-547.93" font-family="Helvetica,sans-Serif" font-weight="bold" font-size="9.00">services</text>
</g>
<g id="clust5" class="cluster">
<title>cluster_src/application/stores</title>
<path fill="#ffffff" stroke="black" stroke-width="2" d="M306.25,-224.48C306.25,-224.48 449.5,-224.48 449.5,-224.48 455.5,-224.48 461.5,-230.48 461.5,-236.48 461.5,-236.48 461.5,-298.48 461.5,-298.48 461.5,-304.48 455.5,-310.48 449.5,-310.48 449.5,-310.48 306.25,-310.48 306.25,-310.48 300.25,-310.48 294.25,-304.48 294.25,-298.48 294.25,-298.48 294.25,-236.48 294.25,-236.48 294.25,-230.48 300.25,-224.48 306.25,-224.48"/>
<text text-anchor="middle" x="377.88" y="-297.93" font-family="Helvetica,sans-Serif" font-weight="bold" font-size="9.00">stores</text>
</g>
<g id="clust6" class="cluster">
<title>cluster_src/application/usecases</title>
<path fill="#ffffff" stroke="black" stroke-width="2" d="M481.5,-349.48C481.5,-349.48 718.62,-349.48 718.62,-349.48 724.62,-349.48 730.62,-355.48 730.62,-361.48 730.62,-361.48 730.62,-423.48 730.62,-423.48 730.62,-429.48 724.62,-435.48 718.62,-435.48 718.62,-435.48 481.5,-435.48 481.5,-435.48 475.5,-435.48 469.5,-429.48 469.5,-423.48 469.5,-423.48 469.5,-361.48 469.5,-361.48 469.5,-355.48 475.5,-349.48 481.5,-349.48"/>
<text text-anchor="middle" x="600.06" y="-422.93" font-family="Helvetica,sans-Serif" font-weight="bold" font-size="9.00">usecases</text>
</g>
<g id="clust7" class="cluster">
<title>cluster_src/domain</title>
<path fill="#ffffff" stroke="black" stroke-width="2" d="M911.38,-305.48C911.38,-305.48 973.38,-305.48 973.38,-305.48 979.38,-305.48 985.38,-311.48 985.38,-317.48 985.38,-317.48 985.38,-383.48 985.38,-383.48 985.38,-389.48 979.38,-395.48 973.38,-395.48 973.38,-395.48 911.38,-395.48 911.38,-395.48 905.38,-395.48 899.38,-389.48 899.38,-383.48 899.38,-383.48 899.38,-317.48 899.38,-317.48 899.38,-311.48 905.38,-305.48 911.38,-305.48"/>
<text text-anchor="middle" x="942.38" y="-382.93" font-family="Helvetica,sans-Serif" font-weight="bold" font-size="9.00">domain</text>
</g>
<g id="clust8" class="cluster">
<title>cluster_src/domain/entities</title>
<path fill="#ffffff" stroke="black" stroke-width="2" d="M919.38,-313.48C919.38,-313.48 965.38,-313.48 965.38,-313.48 971.38,-313.48 977.38,-319.48 977.38,-325.48 977.38,-325.48 977.38,-356.48 977.38,-356.48 977.38,-362.48 971.38,-368.48 965.38,-368.48 965.38,-368.48 919.38,-368.48 919.38,-368.48 913.38,-368.48 907.38,-362.48 907.38,-356.48 907.38,-356.48 907.38,-325.48 907.38,-325.48 907.38,-319.48 913.38,-313.48 919.38,-313.48"/>
<text text-anchor="middle" x="942.38" y="-355.93" font-family="Helvetica,sans-Serif" font-weight="bold" font-size="9.00">entities</text>
</g>
<g id="clust9" class="cluster">
<title>cluster_src/infrastructure</title>
<path fill="#ffffff" stroke="black" stroke-width="2" d="M551.5,-55.48C551.5,-55.48 838,-55.48 838,-55.48 844,-55.48 850,-61.48 850,-67.48 850,-67.48 850,-196.48 850,-196.48 850,-202.48 844,-208.48 838,-208.48 838,-208.48 551.5,-208.48 551.5,-208.48 545.5,-208.48 539.5,-202.48 539.5,-196.48 539.5,-196.48 539.5,-67.48 539.5,-67.48 539.5,-61.48 545.5,-55.48 551.5,-55.48"/>
<text text-anchor="middle" x="694.75" y="-195.93" font-family="Helvetica,sans-Serif" font-weight="bold" font-size="9.00">infrastructure</text>
</g>
<g id="clust12" class="cluster">
<title>cluster_src/infrastructure/video</title>
<path fill="#ffffff" stroke="black" stroke-width="2" d="M784,-126.48C784,-126.48 830,-126.48 830,-126.48 836,-126.48 842,-132.48 842,-138.48 842,-138.48 842,-169.48 842,-169.48 842,-175.48 836,-181.48 830,-181.48 830,-181.48 784,-181.48 784,-181.48 778,-181.48 772,-175.48 772,-169.48 772,-169.48 772,-138.48 772,-138.48 772,-132.48 778,-126.48 784,-126.48"/>
<text text-anchor="middle" x="807" y="-168.93" font-family="Helvetica,sans-Serif" font-weight="bold" font-size="9.00">video</text>
</g>
<g id="clust11" class="cluster">
<title>cluster_src/infrastructure/services</title>
<path fill="#ffffff" stroke="black" stroke-width="2" d="M784,-63.48C784,-63.48 830,-63.48 830,-63.48 836,-63.48 842,-69.48 842,-75.48 842,-75.48 842,-106.48 842,-106.48 842,-112.48 836,-118.48 830,-118.48 830,-118.48 784,-118.48 784,-118.48 778,-118.48 772,-112.48 772,-106.48 772,-106.48 772,-75.48 772,-75.48 772,-69.48 778,-63.48 784,-63.48"/>
<text text-anchor="middle" x="807" y="-105.93" font-family="Helvetica,sans-Serif" font-weight="bold" font-size="9.00">services</text>
</g>
<g id="clust10" class="cluster">
<title>cluster_src/infrastructure/adapters</title>
<path fill="#ffffff" stroke="black" stroke-width="2" d="M559.5,-64.48C559.5,-64.48 717.5,-64.48 717.5,-64.48 723.5,-64.48 729.5,-70.48 729.5,-76.48 729.5,-76.48 729.5,-169.48 729.5,-169.48 729.5,-175.48 723.5,-181.48 717.5,-181.48 717.5,-181.48 559.5,-181.48 559.5,-181.48 553.5,-181.48 547.5,-175.48 547.5,-169.48 547.5,-169.48 547.5,-76.48 547.5,-76.48 547.5,-70.48 553.5,-64.48 559.5,-64.48"/>
<text text-anchor="middle" x="638.5" y="-168.93" font-family="Helvetica,sans-Serif" font-weight="bold" font-size="9.00">adapters</text>
</g>
<g id="clust13" class="cluster">
<title>cluster_src/presentation</title>
<path fill="#ffffff" stroke="black" stroke-width="2" d="M28,-44.48C28,-44.48 266.25,-44.48 266.25,-44.48 272.25,-44.48 278.25,-50.48 278.25,-56.48 278.25,-56.48 278.25,-248.48 278.25,-248.48 278.25,-254.48 272.25,-260.48 266.25,-260.48 266.25,-260.48 28,-260.48 28,-260.48 22,-260.48 16,-254.48 16,-248.48 16,-248.48 16,-56.48 16,-56.48 16,-50.48 22,-44.48 28,-44.48"/>
<text text-anchor="middle" x="147.12" y="-247.93" font-family="Helvetica,sans-Serif" font-weight="bold" font-size="9.00">presentation</text>
</g>
<g id="clust14" class="cluster">
<title>cluster_src/presentation/components</title>
<path fill="#ffffff" stroke="black" stroke-width="2" d="M144.25,-52.48C144.25,-52.48 258.25,-52.48 258.25,-52.48 264.25,-52.48 270.25,-58.48 270.25,-64.48 270.25,-64.48 270.25,-221.48 270.25,-221.48 270.25,-227.48 264.25,-233.48 258.25,-233.48 258.25,-233.48 144.25,-233.48 144.25,-233.48 138.25,-233.48 132.25,-227.48 132.25,-221.48 132.25,-221.48 132.25,-64.48 132.25,-64.48 132.25,-58.48 138.25,-52.48 144.25,-52.48"/>
<text text-anchor="middle" x="201.25" y="-220.93" font-family="Helvetica,sans-Serif" font-weight="bold" font-size="9.00">components</text>
</g>
<g id="clust16" class="cluster">
<title>cluster_src/presentation/components/utils</title>
<path fill="#ffffff" stroke="black" stroke-width="2" d="M152.25,-88.48C152.25,-88.48 250.25,-88.48 250.25,-88.48 256.25,-88.48 262.25,-94.48 262.25,-100.48 262.25,-100.48 262.25,-131.48 262.25,-131.48 262.25,-137.48 256.25,-143.48 250.25,-143.48 250.25,-143.48 152.25,-143.48 152.25,-143.48 146.25,-143.48 140.25,-137.48 140.25,-131.48 140.25,-131.48 140.25,-100.48 140.25,-100.48 140.25,-94.48 146.25,-88.48 152.25,-88.48"/>
<text text-anchor="middle" x="201.25" y="-130.93" font-family="Helvetica,sans-Serif" font-weight="bold" font-size="9.00">utils</text>
</g>
<g id="clust15" class="cluster">
<title>cluster_src/presentation/components/inputs</title>
<path fill="#ffffff" stroke="black" stroke-width="2" d="M171.38,-151.48C171.38,-151.48 231.12,-151.48 231.12,-151.48 237.12,-151.48 243.12,-157.48 243.12,-163.48 243.12,-163.48 243.12,-194.48 243.12,-194.48 243.12,-200.48 237.12,-206.48 231.12,-206.48 231.12,-206.48 171.38,-206.48 171.38,-206.48 165.38,-206.48 159.38,-200.48 159.38,-194.48 159.38,-194.48 159.38,-163.48 159.38,-163.48 159.38,-157.48 165.38,-151.48 171.38,-151.48"/>
<text text-anchor="middle" x="201.25" y="-193.93" font-family="Helvetica,sans-Serif" font-weight="bold" font-size="9.00">inputs</text>
</g>
<g id="clust17" class="cluster">
<title>cluster_src/presentation/views</title>
<path fill="#ffffff" stroke="black" stroke-width="2" d="M36,-133.48C36,-133.48 112.25,-133.48 112.25,-133.48 118.25,-133.48 124.25,-139.48 124.25,-145.48 124.25,-145.48 124.25,-207.48 124.25,-207.48 124.25,-213.48 118.25,-219.48 112.25,-219.48 112.25,-219.48 36,-219.48 36,-219.48 30,-219.48 24,-213.48 24,-207.48 24,-207.48 24,-145.48 24,-145.48 24,-139.48 30,-133.48 36,-133.48"/>
<text text-anchor="middle" x="74.12" y="-206.93" font-family="Helvetica,sans-Serif" font-weight="bold" font-size="9.00">views</text>
</g>
<!-- src/application/ports/IVideoParser.ts -->
<g id="node1" class="node">
<title>src/application/ports/IVideoParser.ts</title>
<g id="a_node1"><a xlink:href="src/application/ports/IVideoParser.ts" xlink:title="IVideoParser.ts">
<path fill="#ddfeff" stroke="black" d="M840.08,-314.11C840.08,-314.11 773.92,-314.11 773.92,-314.11 770.71,-314.11 767.5,-310.9 767.5,-307.69 767.5,-307.69 767.5,-301.28 767.5,-301.28 767.5,-298.07 770.71,-294.86 773.92,-294.86 773.92,-294.86 840.08,-294.86 840.08,-294.86 843.29,-294.86 846.5,-298.07 846.5,-301.28 846.5,-301.28 846.5,-307.69 846.5,-307.69 846.5,-310.9 843.29,-314.11 840.08,-314.11"/>
<text text-anchor="start" x="775.5" y="-301.56" font-family="Helvetica,sans-Serif" font-size="9.00">IVideoParser.ts</text>
</a>
</g>
</g>
<!-- src/domain/entities/index.ts -->
<g id="node2" class="node">
<title>src/domain/entities/index.ts</title>
<g id="a_node2"><a xlink:href="src/domain/entities/index.ts" xlink:title="index.ts">
<path fill="#ddfeff" stroke="black" d="M962.96,-341.11C962.96,-341.11 921.79,-341.11 921.79,-341.11 918.58,-341.11 915.38,-337.9 915.38,-334.69 915.38,-334.69 915.38,-328.28 915.38,-328.28 915.38,-325.07 918.58,-321.86 921.79,-321.86 921.79,-321.86 962.96,-321.86 962.96,-321.86 966.17,-321.86 969.38,-325.07 969.38,-328.28 969.38,-328.28 969.38,-334.69 969.38,-334.69 969.38,-337.9 966.17,-341.11 962.96,-341.11"/>
<text text-anchor="start" x="926.62" y="-328.56" font-family="Helvetica,sans-Serif" font-size="9.00">index.ts</text>
</a>
</g>
</g>
<!-- src/application/ports/IVideoParser.ts&#45;&gt;src/domain/entities/index.ts -->
<g id="edge1" class="edge">
<title>src/application/ports/IVideoParser.ts&#45;&gt;src/domain/entities/index.ts</title>
<path fill="none" stroke="#000000" stroke-opacity="0.200000" d="M846.94,-312.37C866.35,-316.3 889.58,-321 908.15,-324.76"/>
<polygon fill="none" stroke="#000000" stroke-opacity="0.200000" points="907.49,-326.77 913.79,-325.9 908.32,-322.65 907.49,-326.77"/>
</g>
<!-- src/application/ports/IVideoStorage.ts -->
<g id="node3" class="node">
<title>src/application/ports/IVideoStorage.ts</title>
<g id="a_node3"><a xlink:href="src/application/ports/IVideoStorage.ts" xlink:title="IVideoStorage.ts">
<path fill="#ddfeff" stroke="black" d="M842.33,-252.11C842.33,-252.11 771.67,-252.11 771.67,-252.11 768.46,-252.11 765.25,-248.9 765.25,-245.69 765.25,-245.69 765.25,-239.28 765.25,-239.28 765.25,-236.07 768.46,-232.86 771.67,-232.86 771.67,-232.86 842.33,-232.86 842.33,-232.86 845.54,-232.86 848.75,-236.07 848.75,-239.28 848.75,-239.28 848.75,-245.69 848.75,-245.69 848.75,-248.9 845.54,-252.11 842.33,-252.11"/>
<text text-anchor="start" x="773.25" y="-239.56" font-family="Helvetica,sans-Serif" font-size="9.00">IVideoStorage.ts</text>
</a>
</g>
</g>
<!-- src/application/ports/IVideoStorage.ts&#45;&gt;src/domain/entities/index.ts -->
<g id="edge2" class="edge">
<title>src/application/ports/IVideoStorage.ts&#45;&gt;src/domain/entities/index.ts</title>
<path fill="none" stroke="#000000" stroke-opacity="0.200000" d="M848.99,-243.41C863.32,-245.33 878.93,-249.38 891.38,-257.48 912.52,-271.26 926.99,-297.43 934.72,-314.66"/>
<polygon fill="none" stroke="#000000" stroke-opacity="0.200000" points="932.74,-315.36 937.03,-320.05 936.6,-313.71 932.74,-315.36"/>
</g>
<!-- src/application/ports/IVideoThumbnailGenerator.ts -->
<g id="node4" class="node">
<title>src/application/ports/IVideoThumbnailGenerator.ts</title>
<g id="a_node4"><a xlink:href="src/application/ports/IVideoThumbnailGenerator.ts" xlink:title="IVideoThumbnailGenerator.ts">
<path fill="#ddfeff" stroke="black" d="M868.96,-283.11C868.96,-283.11 745.04,-283.11 745.04,-283.11 741.83,-283.11 738.62,-279.9 738.62,-276.69 738.62,-276.69 738.62,-270.28 738.62,-270.28 738.62,-267.07 741.83,-263.86 745.04,-263.86 745.04,-263.86 868.96,-263.86 868.96,-263.86 872.17,-263.86 875.38,-267.07 875.38,-270.28 875.38,-270.28 875.38,-276.69 875.38,-276.69 875.38,-279.9 872.17,-283.11 868.96,-283.11"/>
<text text-anchor="start" x="746.62" y="-270.56" font-family="Helvetica,sans-Serif" font-size="9.00">IVideoThumbnailGenerator.ts</text>
</a>
</g>
</g>
<!-- src/application/ports/index.ts -->
<g id="node5" class="node">
<title>src/application/ports/index.ts</title>
<g id="a_node5"><a xlink:href="src/application/ports/index.ts" xlink:title="index.ts">
<path fill="#ddfeff" stroke="black" d="M659.08,-283.11C659.08,-283.11 617.92,-283.11 617.92,-283.11 614.71,-283.11 611.5,-279.9 611.5,-276.69 611.5,-276.69 611.5,-270.28 611.5,-270.28 611.5,-267.07 614.71,-263.86 617.92,-263.86 617.92,-263.86 659.08,-263.86 659.08,-263.86 662.29,-263.86 665.5,-267.07 665.5,-270.28 665.5,-270.28 665.5,-276.69 665.5,-276.69 665.5,-279.9 662.29,-283.11 659.08,-283.11"/>
<text text-anchor="start" x="622.75" y="-270.56" font-family="Helvetica,sans-Serif" font-size="9.00">index.ts</text>
</a>
</g>
</g>
<!-- src/application/ports/index.ts&#45;&gt;src/application/ports/IVideoParser.ts -->
<g id="edge3" class="edge">
<title>src/application/ports/index.ts&#45;&gt;src/application/ports/IVideoParser.ts</title>
<path fill="none" stroke="#000000" stroke-width="2" stroke-opacity="0.200000" d="M665.88,-278.4C693.12,-283.47 735.9,-291.43 767.03,-297.23"/>
<polygon fill="#000000" fill-opacity="0.200000" stroke="#000000" stroke-width="2" stroke-opacity="0.200000" points="769.84,-295.84 773.74,-303.94 765.64,-300.04 769.84,-295.84"/>
</g>
<!-- src/application/ports/index.ts&#45;&gt;src/application/ports/IVideoStorage.ts -->
<g id="edge4" class="edge">
<title>src/application/ports/index.ts&#45;&gt;src/application/ports/IVideoStorage.ts</title>
<path fill="none" stroke="#000000" stroke-width="2" stroke-opacity="0.200000" d="M665.88,-268.57C692.47,-263.62 733.89,-255.91 764.81,-250.15"/>
<polygon fill="#000000" fill-opacity="0.200000" stroke="#000000" stroke-width="2" stroke-opacity="0.200000" points="767.62,-248.76 771.52,-256.86 763.42,-252.96 767.62,-248.76"/>
</g>
<!-- src/application/ports/index.ts&#45;&gt;src/application/ports/IVideoThumbnailGenerator.ts -->
<g id="edge5" class="edge">
<title>src/application/ports/index.ts&#45;&gt;src/application/ports/IVideoThumbnailGenerator.ts</title>
<path fill="none" stroke="#000000" stroke-width="2" stroke-opacity="0.200000" d="M665.88,-273.48C685.41,-273.48 712.94,-273.48 738.44,-273.48"/>
<polygon fill="#000000" fill-opacity="0.200000" stroke="#000000" stroke-width="2" stroke-opacity="0.200000" points="741.25,-272.09 745.15,-280.19 737.05,-276.29 741.25,-272.09"/>
</g>
<!-- src/application/services/FileParserService.ts -->
<g id="node6" class="node">
<title>src/application/services/FileParserService.ts</title>
<g id="a_node6"><a xlink:href="src/application/services/FileParserService.ts" xlink:title="FileParserService.ts">
<path fill="#ddfeff" stroke="black" d="M681.33,-471.11C681.33,-471.11 595.67,-471.11 595.67,-471.11 592.46,-471.11 589.25,-467.9 589.25,-464.69 589.25,-464.69 589.25,-458.28 589.25,-458.28 589.25,-455.07 592.46,-451.86 595.67,-451.86 595.67,-451.86 681.33,-451.86 681.33,-451.86 684.54,-451.86 687.75,-455.07 687.75,-458.28 687.75,-458.28 687.75,-464.69 687.75,-464.69 687.75,-467.9 684.54,-471.11 681.33,-471.11"/>
<text text-anchor="start" x="597.25" y="-458.56" font-family="Helvetica,sans-Serif" font-size="9.00">FileParserService.ts</text>
</a>
</g>
</g>
<!-- src/application/services/FileParserService.ts&#45;&gt;src/application/ports/IVideoParser.ts -->
<g id="edge6" class="edge">
<title>src/application/services/FileParserService.ts&#45;&gt;src/application/ports/IVideoParser.ts</title>
<path fill="none" stroke="#000000" stroke-opacity="0.200000" d="M688.15,-456.7C702.92,-453.38 718.44,-447.8 730.62,-438.48 735.92,-434.44 778.81,-355.17 797.43,-320.5"/>
<polygon fill="none" stroke="#000000" stroke-opacity="0.200000" points="799.11,-321.81 800.1,-315.52 795.41,-319.82 799.11,-321.81"/>
</g>
<!-- src/application/services/FileParserService.ts&#45;&gt;src/domain/entities/index.ts -->
<g id="edge7" class="edge">
<title>src/application/services/FileParserService.ts&#45;&gt;src/domain/entities/index.ts</title>
<path fill="none" stroke="#000000" stroke-opacity="0.200000" d="M688.16,-451.55C740.98,-439.28 826.48,-415.06 891.38,-375.48 904.58,-367.43 917.63,-355.78 927.09,-346.49"/>
<polygon fill="none" stroke="#000000" stroke-opacity="0.200000" points="928.41,-348.15 931.15,-342.42 925.43,-345.19 928.41,-348.15"/>
</g>
<!-- src/infrastructure/services/index.ts -->
<g id="node7" class="node">
<title>src/infrastructure/services/index.ts</title>
<g id="a_node7"><a xlink:href="src/infrastructure/services/index.ts" xlink:title="index.ts">
<path fill="#ddfeff" stroke="black" d="M827.58,-91.11C827.58,-91.11 786.42,-91.11 786.42,-91.11 783.21,-91.11 780,-87.9 780,-84.69 780,-84.69 780,-78.28 780,-78.28 780,-75.07 783.21,-71.86 786.42,-71.86 786.42,-71.86 827.58,-71.86 827.58,-71.86 830.79,-71.86 834,-75.07 834,-78.28 834,-78.28 834,-84.69 834,-84.69 834,-87.9 830.79,-91.11 827.58,-91.11"/>
<text text-anchor="start" x="791.25" y="-78.56" font-family="Helvetica,sans-Serif" font-size="9.00">index.ts</text>
</a>
</g>
</g>
<!-- src/application/services/FileParserService.ts&#45;&gt;src/infrastructure/services/index.ts -->
<g id="edge8" class="edge">
<title>src/application/services/FileParserService.ts&#45;&gt;src/infrastructure/services/index.ts</title>
<path fill="none" stroke="#000000" stroke-width="2" stroke-opacity="0.200000" d="M687.95,-460.56C703.98,-457.65 720.33,-451.36 730.62,-438.48 741.56,-424.81 729.94,-138.68 738.62,-123.48 745.99,-110.6 759.08,-101.13 771.77,-94.47"/>
<polygon fill="#000000" fill-opacity="0.200000" stroke="#000000" stroke-width="2" stroke-opacity="0.200000" points="772.36,-96.52 776.84,-92.01 770.53,-92.74 772.36,-96.52"/>
</g>
<!-- src/infrastructure/video/index.ts -->
<g id="node8" class="node">
<title>src/infrastructure/video/index.ts</title>
<g id="a_node8"><a xlink:href="src/infrastructure/video/index.ts" xlink:title="index.ts">
<path fill="#ddfeff" stroke="black" d="M827.58,-154.11C827.58,-154.11 786.42,-154.11 786.42,-154.11 783.21,-154.11 780,-150.9 780,-147.69 780,-147.69 780,-141.28 780,-141.28 780,-138.07 783.21,-134.86 786.42,-134.86 786.42,-134.86 827.58,-134.86 827.58,-134.86 830.79,-134.86 834,-138.07 834,-141.28 834,-141.28 834,-147.69 834,-147.69 834,-150.9 830.79,-154.11 827.58,-154.11"/>
<text text-anchor="start" x="791.25" y="-141.56" font-family="Helvetica,sans-Serif" font-size="9.00">index.ts</text>
</a>
</g>
</g>
<!-- src/application/services/FileParserService.ts&#45;&gt;src/infrastructure/video/index.ts -->
<g id="edge9" class="edge">
<title>src/application/services/FileParserService.ts&#45;&gt;src/infrastructure/video/index.ts</title>
<path fill="none" stroke="#000000" stroke-width="2" stroke-opacity="0.200000" d="M687.87,-460.49C703.89,-457.58 720.26,-451.3 730.62,-438.48 745.8,-419.73 729.72,-243.91 738.62,-221.48 748.54,-196.49 770.29,-174.13 786.41,-160.03"/>
<polygon fill="#000000" fill-opacity="0.200000" stroke="#000000" stroke-width="2" stroke-opacity="0.200000" points="787.39,-161.95 790.61,-156.47 784.68,-158.75 787.39,-161.95"/>
</g>
<!-- src/application/services/FiltersService.ts -->
<g id="node9" class="node">
<title>src/application/services/FiltersService.ts</title>
<g id="a_node9"><a xlink:href="src/application/services/FiltersService.ts" xlink:title="FiltersService.ts">
<path fill="#ddfeff" stroke="black" d="M672.71,-502.11C672.71,-502.11 604.29,-502.11 604.29,-502.11 601.08,-502.11 597.88,-498.9 597.88,-495.69 597.88,-495.69 597.88,-489.28 597.88,-489.28 597.88,-486.07 601.08,-482.86 604.29,-482.86 604.29,-482.86 672.71,-482.86 672.71,-482.86 675.92,-482.86 679.12,-486.07 679.12,-489.28 679.12,-489.28 679.12,-495.69 679.12,-495.69 679.12,-498.9 675.92,-502.11 672.71,-502.11"/>
<text text-anchor="start" x="605.88" y="-489.56" font-family="Helvetica,sans-Serif" font-size="9.00">FiltersService.ts</text>
</a>
</g>
</g>
<!-- src/application/services/FiltersService.ts&#45;&gt;src/domain/entities/index.ts -->
<g id="edge10" class="edge">
<title>src/application/services/FiltersService.ts&#45;&gt;src/domain/entities/index.ts</title>
<path fill="none" stroke="#000000" stroke-opacity="0.200000" d="M679.34,-488.81C733.11,-481.97 829.33,-462.82 891.38,-410.48 911.75,-393.3 926.56,-365.66 934.56,-348.04"/>
<polygon fill="none" stroke="#000000" stroke-opacity="0.200000" points="936.29,-349.33 936.77,-342.99 932.44,-347.65 936.29,-349.33"/>
</g>
<!-- src/application/services/Hotkeys.ts -->
<g id="node10" class="node">
<title>src/application/services/Hotkeys.ts</title>
<g id="a_node10"><a xlink:href="src/application/services/Hotkeys.ts" xlink:title="Hotkeys.ts">
<path fill="#ddfeff" stroke="black" d="M661.46,-533.11C661.46,-533.11 615.54,-533.11 615.54,-533.11 612.33,-533.11 609.12,-529.9 609.12,-526.69 609.12,-526.69 609.12,-520.28 609.12,-520.28 609.12,-517.07 612.33,-513.86 615.54,-513.86 615.54,-513.86 661.46,-513.86 661.46,-513.86 664.67,-513.86 667.88,-517.07 667.88,-520.28 667.88,-520.28 667.88,-526.69 667.88,-526.69 667.88,-529.9 664.67,-533.11 661.46,-533.11"/>
<text text-anchor="start" x="617.12" y="-520.56" font-family="Helvetica,sans-Serif" font-size="9.00">Hotkeys.ts</text>
</a>
</g>
</g>
<!-- src/application/services/index.ts -->
<g id="node11" class="node">
<title>src/application/services/index.ts</title>
<g id="a_node11"><a xlink:href="src/application/services/index.ts" xlink:title="index.ts">
<path fill="#ddfeff" stroke="black" d="M525.08,-471.11C525.08,-471.11 483.92,-471.11 483.92,-471.11 480.71,-471.11 477.5,-467.9 477.5,-464.69 477.5,-464.69 477.5,-458.28 477.5,-458.28 477.5,-455.07 480.71,-451.86 483.92,-451.86 483.92,-451.86 525.08,-451.86 525.08,-451.86 528.29,-451.86 531.5,-455.07 531.5,-458.28 531.5,-458.28 531.5,-464.69 531.5,-464.69 531.5,-467.9 528.29,-471.11 525.08,-471.11"/>
<text text-anchor="start" x="488.75" y="-458.56" font-family="Helvetica,sans-Serif" font-size="9.00">index.ts</text>
</a>
</g>
</g>
<!-- src/application/services/index.ts&#45;&gt;src/application/services/FileParserService.ts -->
<g id="edge11" class="edge">
<title>src/application/services/index.ts&#45;&gt;src/application/services/FileParserService.ts</title>
<path fill="none" stroke="#000000" stroke-width="2" stroke-opacity="0.200000" d="M531.89,-461.48C548.22,-461.48 569.68,-461.48 588.98,-461.48"/>
<polygon fill="#000000" fill-opacity="0.200000" stroke="#000000" stroke-width="2" stroke-opacity="0.200000" points="591.79,-460.09 595.69,-468.19 587.59,-464.29 591.79,-460.09"/>
</g>
<!-- src/application/services/index.ts&#45;&gt;src/application/services/FiltersService.ts -->
<g id="edge12" class="edge">
<title>src/application/services/index.ts&#45;&gt;src/application/services/FiltersService.ts</title>
<path fill="none" stroke="#000000" stroke-width="2" stroke-opacity="0.200000" d="M524.18,-471.45C529.06,-473.72 534.38,-475.92 597.82,-489.04"/>
<polygon fill="#000000" fill-opacity="0.200000" stroke="#000000" stroke-width="2" stroke-opacity="0.200000" points="600.62,-487.65 604.52,-495.75 596.42,-491.85 600.62,-487.65"/>
</g>
<!-- src/application/services/index.ts&#45;&gt;src/application/services/Hotkeys.ts -->
<g id="edge13" class="edge">
<title>src/application/services/index.ts&#45;&gt;src/application/services/Hotkeys.ts</title>
<path fill="none" stroke="#000000" stroke-width="2" stroke-opacity="0.200000" d="M509.86,-471.6C515.17,-482.6 525.23,-499.77 608.92,-524.79"/>
<polygon fill="#000000" fill-opacity="0.200000" stroke="#000000" stroke-width="2" stroke-opacity="0.200000" points="611.72,-523.4 615.62,-531.5 607.52,-527.6 611.72,-523.4"/>
</g>
<!-- src/application/stores/appStateStore.ts -->
<g id="node12" class="node">
<title>src/application/stores/appStateStore.ts</title>
<g id="a_node12"><a xlink:href="src/application/stores/appStateStore.ts" xlink:title="appStateStore.ts">
<path fill="#ddfeff" stroke="black" d="M447.08,-283.11C447.08,-283.11 375.67,-283.11 375.67,-283.11 372.46,-283.11 369.25,-279.9 369.25,-276.69 369.25,-276.69 369.25,-270.28 369.25,-270.28 369.25,-267.07 372.46,-263.86 375.67,-263.86 375.67,-263.86 447.08,-263.86 447.08,-263.86 450.29,-263.86 453.5,-267.07 453.5,-270.28 453.5,-270.28 453.5,-276.69 453.5,-276.69 453.5,-279.9 450.29,-283.11 447.08,-283.11"/>
<text text-anchor="start" x="377.25" y="-270.56" font-family="Helvetica,sans-Serif" font-size="9.00">appStateStore.ts</text>
</a>
</g>
</g>
<!-- src/application/stores/appStateStore.ts&#45;&gt;src/application/services/index.ts -->
<g id="edge14" class="edge">
<title>src/application/stores/appStateStore.ts&#45;&gt;src/application/services/index.ts</title>
<path fill="none" stroke="#000000" stroke-width="2" stroke-opacity="0.200000" d="M413.6,-283.44C417.39,-310.8 431.11,-388.47 469.5,-438.48 471.7,-441.35 474.35,-443.98 477.2,-446.35"/>
<polygon fill="#000000" fill-opacity="0.200000" stroke="#000000" stroke-width="2" stroke-opacity="0.200000" points="475.57,-447.76 481.64,-449.63 478.07,-444.38 475.57,-447.76"/>
</g>
<!-- src/application/stores/index.ts -->
<g id="node13" class="node">
<title>src/application/stores/index.ts</title>
<g id="a_node13"><a xlink:href="src/application/stores/index.ts" xlink:title="index.ts">
<path fill="#ddfeff" stroke="black" d="M349.83,-252.11C349.83,-252.11 308.67,-252.11 308.67,-252.11 305.46,-252.11 302.25,-248.9 302.25,-245.69 302.25,-245.69 302.25,-239.28 302.25,-239.28 302.25,-236.07 305.46,-232.86 308.67,-232.86 308.67,-232.86 349.83,-232.86 349.83,-232.86 353.04,-232.86 356.25,-236.07 356.25,-239.28 356.25,-239.28 356.25,-245.69 356.25,-245.69 356.25,-248.9 353.04,-252.11 349.83,-252.11"/>
<text text-anchor="start" x="313.5" y="-239.56" font-family="Helvetica,sans-Serif" font-size="9.00">index.ts</text>
</a>
</g>
</g>
<!-- src/application/stores/index.ts&#45;&gt;src/application/stores/appStateStore.ts -->
<g id="edge15" class="edge">
<title>src/application/stores/index.ts&#45;&gt;src/application/stores/appStateStore.ts</title>
<path fill="none" stroke="#000000" stroke-width="2" stroke-opacity="0.200000" d="M354.12,-252.45C359.1,-254.48 364.34,-256.58 382.45,-263.47"/>
<polygon fill="#000000" fill-opacity="0.200000" stroke="#000000" stroke-width="2" stroke-opacity="0.200000" points="385.25,-262.07 389.15,-270.17 381.05,-266.27 385.25,-262.07"/>
</g>
<!-- src/application/stores/videosStore.ts -->
<g id="node14" class="node">
<title>src/application/stores/videosStore.ts</title>
<g id="a_node14"><a xlink:href="src/application/stores/videosStore.ts" xlink:title="videosStore.ts">
<path fill="#ddfeff" stroke="black" d="M442.21,-252.11C442.21,-252.11 380.54,-252.11 380.54,-252.11 377.33,-252.11 374.12,-248.9 374.12,-245.69 374.12,-245.69 374.12,-239.28 374.12,-239.28 374.12,-236.07 377.33,-232.86 380.54,-232.86 380.54,-232.86 442.21,-232.86 442.21,-232.86 445.42,-232.86 448.62,-236.07 448.62,-239.28 448.62,-239.28 448.62,-245.69 448.62,-245.69 448.62,-248.9 445.42,-252.11 442.21,-252.11"/>
<text text-anchor="start" x="382.12" y="-239.56" font-family="Helvetica,sans-Serif" font-size="9.00">videosStore.ts</text>
</a>
</g>
</g>
<!-- src/application/stores/index.ts&#45;&gt;src/application/stores/videosStore.ts -->
<g id="edge16" class="edge">
<title>src/application/stores/index.ts&#45;&gt;src/application/stores/videosStore.ts</title>
<path fill="none" stroke="#000000" stroke-width="2" stroke-opacity="0.200000" d="M356.49,-242.48C362.05,-242.48 368.03,-242.48 373.9,-242.48"/>
<polygon fill="#000000" fill-opacity="0.200000" stroke="#000000" stroke-width="2" stroke-opacity="0.200000" points="376.71,-241.09 380.61,-249.19 372.51,-245.29 376.71,-241.09"/>
</g>
<!-- src/application/stores/videosStore.ts&#45;&gt;src/domain/entities/index.ts -->
<g id="edge22" class="edge">
<title>src/application/stores/videosStore.ts&#45;&gt;src/domain/entities/index.ts</title>
<path fill="none" stroke="#000000" stroke-opacity="0.200000" d="M448.97,-247.91C453.84,-250.14 458.26,-253.23 461.5,-257.48 471.8,-271.02 457.32,-551.62 469.5,-563.48 552.63,-644.47 620.19,-599.17 730.62,-563.48 814.46,-536.39 836.23,-516.19 891.38,-447.48 915.9,-416.93 930.55,-372.52 937.16,-348.48"/>
<polygon fill="none" stroke="#000000" stroke-opacity="0.200000" points="939.13,-349.24 938.64,-342.9 935.07,-348.16 939.13,-349.24"/>
</g>
<!-- src/application/stores/videosStore.ts&#45;&gt;src/application/ports/IVideoStorage.ts -->
<g id="edge18" class="edge">
<title>src/application/stores/videosStore.ts&#45;&gt;src/application/ports/IVideoStorage.ts</title>
<path fill="none" stroke="#000000" stroke-opacity="0.200000" d="M449.05,-242.48C520.33,-242.48 677.53,-242.48 757.39,-242.48"/>
<polygon fill="none" stroke="#000000" stroke-opacity="0.200000" points="757.36,-244.58 763.36,-242.48 757.36,-240.38 757.36,-244.58"/>
</g>
<!-- src/application/stores/videosStore.ts&#45;&gt;src/application/services/index.ts -->
<g id="edge19" class="edge">
<title>src/application/stores/videosStore.ts&#45;&gt;src/application/services/index.ts</title>
<path fill="none" stroke="#000000" stroke-width="2" stroke-opacity="0.200000" d="M448.91,-247.96C453.78,-250.18 458.22,-253.26 461.5,-257.48 473.83,-273.4 459.67,-420.92 469.5,-438.48 471.05,-441.26 473.1,-443.77 475.42,-446.01"/>
<polygon fill="#000000" fill-opacity="0.200000" stroke="#000000" stroke-width="2" stroke-opacity="0.200000" points="473.7,-447.32 479.68,-449.46 476.34,-444.06 473.7,-447.32"/>
</g>
<!-- src/infrastructure/adapters/VideoParserAdapter.ts -->
<g id="node15" class="node">
<title>src/infrastructure/adapters/VideoParserAdapter.ts</title>
<g id="a_node15"><a xlink:href="src/infrastructure/adapters/VideoParserAdapter.ts" xlink:title="VideoParserAdapter.ts">
<path fill="#ddfeff" stroke="black" d="M686.21,-123.11C686.21,-123.11 590.79,-123.11 590.79,-123.11 587.58,-123.11 584.38,-119.9 584.38,-116.69 584.38,-116.69 584.38,-110.28 584.38,-110.28 584.38,-107.07 587.58,-103.86 590.79,-103.86 590.79,-103.86 686.21,-103.86 686.21,-103.86 689.42,-103.86 692.62,-107.07 692.62,-110.28 692.62,-110.28 692.62,-116.69 692.62,-116.69 692.62,-119.9 689.42,-123.11 686.21,-123.11"/>
<text text-anchor="start" x="592.38" y="-110.56" font-family="Helvetica,sans-Serif" font-size="9.00">VideoParserAdapter.ts</text>
</a>
</g>
</g>
<!-- src/application/stores/videosStore.ts&#45;&gt;src/infrastructure/adapters/VideoParserAdapter.ts -->
<g id="edge17" class="edge">
<title>src/application/stores/videosStore.ts&#45;&gt;src/infrastructure/adapters/VideoParserAdapter.ts</title>
<path fill="none" stroke="#000000" stroke-width="2" stroke-opacity="0.200000" d="M419.99,-232.46C437.95,-209.63 485.55,-153.78 539.5,-128.48 550.54,-123.31 562.96,-119.85 575.17,-117.55"/>
<polygon fill="#000000" fill-opacity="0.200000" stroke="#000000" stroke-width="2" stroke-opacity="0.200000" points="575.44,-119.64 581.01,-116.58 574.75,-115.5 575.44,-119.64"/>
</g>
<!-- src/application/usecases/AddVideosFromFilesUseCase.ts -->
<g id="node16" class="node">
<title>src/application/usecases/AddVideosFromFilesUseCase.ts</title>
<g id="a_node16"><a xlink:href="src/application/usecases/AddVideosFromFilesUseCase.ts" xlink:title="AddVideosFromFilesUseCase.ts">
<path fill="#ddfeff" stroke="black" d="M707.96,-408.11C707.96,-408.11 569.04,-408.11 569.04,-408.11 565.83,-408.11 562.62,-404.9 562.62,-401.69 562.62,-401.69 562.62,-395.28 562.62,-395.28 562.62,-392.07 565.83,-388.86 569.04,-388.86 569.04,-388.86 707.96,-388.86 707.96,-388.86 711.17,-388.86 714.38,-392.07 714.38,-395.28 714.38,-395.28 714.38,-401.69 714.38,-401.69 714.38,-404.9 711.17,-408.11 707.96,-408.11"/>
<text text-anchor="start" x="570.62" y="-395.56" font-family="Helvetica,sans-Serif" font-size="9.00">AddVideosFromFilesUseCase.ts</text>
</a>
</g>
</g>
<!-- src/application/stores/videosStore.ts&#45;&gt;src/application/usecases/AddVideosFromFilesUseCase.ts -->
<g id="edge20" class="edge">
<title>src/application/stores/videosStore.ts&#45;&gt;src/application/usecases/AddVideosFromFilesUseCase.ts</title>
<path fill="none" stroke="#000000" stroke-width="2" stroke-opacity="0.200000" d="M448.81,-248.68C453.58,-250.81 458.01,-253.67 461.5,-257.48 473.15,-270.22 461.8,-280.04 469.5,-295.48 488.2,-332.97 508.58,-331.42 531.5,-366.48 536.07,-373.47 532.81,-378.49 539.5,-383.48 543.93,-386.8 548.8,-389.51 553.92,-391.73"/>
<polygon fill="#000000" fill-opacity="0.200000" stroke="#000000" stroke-width="2" stroke-opacity="0.200000" points="552.96,-393.61 559.32,-393.76 554.44,-389.68 552.96,-393.61"/>
</g>
<!-- src/application/usecases/UpdateVideoThumbnailsUseCase.ts -->
<g id="node17" class="node">
<title>src/application/usecases/UpdateVideoThumbnailsUseCase.ts</title>
<g id="a_node17"><a xlink:href="src/application/usecases/UpdateVideoThumbnailsUseCase.ts" xlink:title="UpdateVideoThumbnailsUseCase.ts">
<path fill="#ddfeff" stroke="black" d="M716.21,-377.11C716.21,-377.11 560.79,-377.11 560.79,-377.11 557.58,-377.11 554.38,-373.9 554.38,-370.69 554.38,-370.69 554.38,-364.28 554.38,-364.28 554.38,-361.07 557.58,-357.86 560.79,-357.86 560.79,-357.86 716.21,-357.86 716.21,-357.86 719.42,-357.86 722.62,-361.07 722.62,-364.28 722.62,-364.28 722.62,-370.69 722.62,-370.69 722.62,-373.9 719.42,-377.11 716.21,-377.11"/>
<text text-anchor="start" x="562.38" y="-364.56" font-family="Helvetica,sans-Serif" font-size="9.00">UpdateVideoThumbnailsUseCase.ts</text>
</a>
</g>
</g>
<!-- src/application/stores/videosStore.ts&#45;&gt;src/application/usecases/UpdateVideoThumbnailsUseCase.ts -->
<g id="edge21" class="edge">
<title>src/application/stores/videosStore.ts&#45;&gt;src/application/usecases/UpdateVideoThumbnailsUseCase.ts</title>
<path fill="none" stroke="#000000" stroke-width="2" stroke-opacity="0.200000" d="M449.09,-251.7C453.39,-253.36 457.63,-255.28 461.5,-257.48 498.11,-278.38 508.31,-286.28 531.5,-321.48 537.45,-330.52 531.46,-337.24 539.5,-344.48 543.41,-348.01 547.76,-351.02 552.38,-353.59"/>
<polygon fill="#000000" fill-opacity="0.200000" stroke="#000000" stroke-width="2" stroke-opacity="0.200000" points="551.37,-355.43 557.68,-356.19 553.22,-351.66 551.37,-355.43"/>
</g>
<!-- src/infrastructure/adapters/VideoStorageAdapter.ts -->
<g id="node18" class="node">
<title>src/infrastructure/adapters/VideoStorageAdapter.ts</title>
<g id="a_node18"><a xlink:href="src/infrastructure/adapters/VideoStorageAdapter.ts" xlink:title="VideoStorageAdapter.ts">
<path fill="#ddfeff" stroke="black" d="M688.46,-92.11C688.46,-92.11 588.54,-92.11 588.54,-92.11 585.33,-92.11 582.12,-88.9 582.12,-85.69 582.12,-85.69 582.12,-79.28 582.12,-79.28 582.12,-76.07 585.33,-72.86 588.54,-72.86 588.54,-72.86 688.46,-72.86 688.46,-72.86 691.67,-72.86 694.88,-76.07 694.88,-79.28 694.88,-79.28 694.88,-85.69 694.88,-85.69 694.88,-88.9 691.67,-92.11 688.46,-92.11"/>
<text text-anchor="start" x="590.12" y="-79.56" font-family="Helvetica,sans-Serif" font-size="9.00">VideoStorageAdapter.ts</text>
</a>
</g>
</g>
<!-- src/application/stores/videosStore.ts&#45;&gt;src/infrastructure/adapters/VideoStorageAdapter.ts -->
<g id="edge23" class="edge">
<title>src/application/stores/videosStore.ts&#45;&gt;src/infrastructure/adapters/VideoStorageAdapter.ts</title>
<path fill="none" stroke="#000000" stroke-width="2" stroke-opacity="0.200000" d="M415.06,-232.47C421.27,-211.11 438.47,-160.57 469.5,-130.48 497.01,-103.82 538.26,-91.78 573.01,-86.43"/>
<polygon fill="#000000" fill-opacity="0.200000" stroke="#000000" stroke-width="2" stroke-opacity="0.200000" points="573.04,-88.55 578.69,-85.63 572.46,-84.39 573.04,-88.55"/>
</g>
<!-- src/infrastructure/adapters/VideoThumbnailGeneratorAdapter.ts -->
<g id="node19" class="node">
<title>src/infrastructure/adapters/VideoThumbnailGeneratorAdapter.ts</title>
<g id="a_node19"><a xlink:href="src/infrastructure/adapters/VideoThumbnailGeneratorAdapter.ts" xlink:title="VideoThumbnailGeneratorAdapter.ts">
<path fill="#ddfeff" stroke="black" d="M715.08,-154.11C715.08,-154.11 561.92,-154.11 561.92,-154.11 558.71,-154.11 555.5,-150.9 555.5,-147.69 555.5,-147.69 555.5,-141.28 555.5,-141.28 555.5,-138.07 558.71,-134.86 561.92,-134.86 561.92,-134.86 715.08,-134.86 715.08,-134.86 718.29,-134.86 721.5,-138.07 721.5,-141.28 721.5,-141.28 721.5,-147.69 721.5,-147.69 721.5,-150.9 718.29,-154.11 715.08,-154.11"/>
<text text-anchor="start" x="563.5" y="-141.56" font-family="Helvetica,sans-Serif" font-size="9.00">VideoThumbnailGeneratorAdapter.ts</text>
</a>
</g>
</g>
<!-- src/application/stores/videosStore.ts&#45;&gt;src/infrastructure/adapters/VideoThumbnailGeneratorAdapter.ts -->
<g id="edge24" class="edge">
<title>src/application/stores/videosStore.ts&#45;&gt;src/infrastructure/adapters/VideoThumbnailGeneratorAdapter.ts</title>
<path fill="none" stroke="#000000" stroke-width="2" stroke-opacity="0.200000" d="M435.62,-232.37C476.34,-214.64 560.57,-177.97 606.31,-158.06"/>
<polygon fill="#000000" fill-opacity="0.200000" stroke="#000000" stroke-width="2" stroke-opacity="0.200000" points="606.94,-160.08 611.61,-155.76 605.27,-156.23 606.94,-160.08"/>
</g>
<!-- src/infrastructure/adapters/VideoParserAdapter.ts&#45;&gt;src/application/ports/IVideoParser.ts -->
<g id="edge32" class="edge">
<title>src/infrastructure/adapters/VideoParserAdapter.ts&#45;&gt;src/application/ports/IVideoParser.ts</title>
<path fill="none" stroke="#000000" stroke-opacity="0.200000" d="M693.11,-110.71C707.21,-112.78 721.12,-117.84 730.62,-128.48 742.55,-141.85 727.08,-275.79 738.62,-289.48 744.18,-296.07 751.92,-300.14 760.19,-302.59"/>
<polygon fill="none" stroke="#000000" stroke-opacity="0.200000" points="759.43,-304.56 765.76,-303.93 760.41,-300.48 759.43,-304.56"/>
</g>
<!-- src/infrastructure/adapters/VideoParserAdapter.ts&#45;&gt;src/domain/entities/index.ts -->
<g id="edge33" class="edge">
<title>src/infrastructure/adapters/VideoParserAdapter.ts&#45;&gt;src/domain/entities/index.ts</title>
<path fill="none" stroke="#000000" stroke-opacity="0.200000" d="M693.03,-115.11C706.79,-112.95 720.55,-108.13 730.62,-98.48 743.1,-86.55 725.22,-71.36 738.62,-60.48 751.8,-49.79 878.33,-49.63 891.38,-60.48 930.63,-93.16 939.18,-259.82 940.94,-314.26"/>
<polygon fill="none" stroke="#000000" stroke-opacity="0.200000" points="938.84,-314 941.11,-319.93 943.03,-313.87 938.84,-314"/>
</g>
<!-- src/infrastructure/adapters/VideoParserAdapter.ts&#45;&gt;src/infrastructure/services/index.ts -->
<g id="edge34" class="edge">
<title>src/infrastructure/adapters/VideoParserAdapter.ts&#45;&gt;src/infrastructure/services/index.ts</title>
<path fill="none" stroke="#000000" stroke-width="2" stroke-opacity="0.200000" d="M693.08,-105.2C705.44,-103.14 718.51,-100.85 730.62,-98.48 743.89,-95.9 758.39,-92.72 771.1,-89.81"/>
<polygon fill="#000000" fill-opacity="0.200000" stroke="#000000" stroke-width="2" stroke-opacity="0.200000" points="771.25,-91.93 776.62,-88.53 770.3,-87.83 771.25,-91.93"/>
</g>
<!-- src/infrastructure/adapters/VideoParserAdapter.ts&#45;&gt;src/infrastructure/video/index.ts -->
<g id="edge35" class="edge">
<title>src/infrastructure/adapters/VideoParserAdapter.ts&#45;&gt;src/infrastructure/video/index.ts</title>
<path fill="none" stroke="#000000" stroke-width="2" stroke-opacity="0.200000" d="M693.06,-121.88C705.41,-123.93 718.49,-126.2 730.62,-128.48 743.87,-130.98 758.36,-133.99 771.07,-136.72"/>
<polygon fill="#000000" fill-opacity="0.200000" stroke="#000000" stroke-width="2" stroke-opacity="0.200000" points="770.28,-138.7 776.59,-137.92 771.17,-134.59 770.28,-138.7"/>
</g>
<!-- src/application/usecases/AddVideosFromFilesUseCase.ts&#45;&gt;src/application/ports/IVideoParser.ts -->
<g id="edge25" class="edge">
<title>src/application/usecases/AddVideosFromFilesUseCase.ts&#45;&gt;src/application/ports/IVideoParser.ts</title>
<path fill="none" stroke="#000000" stroke-opacity="0.200000" d="M714.42,-390.26C720.05,-388.42 725.52,-386.18 730.62,-383.48 759.09,-368.45 782.95,-338.6 795.8,-320.21"/>
<polygon fill="none" stroke="#000000" stroke-opacity="0.200000" points="797.23,-321.84 798.87,-315.7 793.76,-319.47 797.23,-321.84"/>
</g>
<!-- src/application/usecases/AddVideosFromFilesUseCase.ts&#45;&gt;src/domain/entities/index.ts -->
<g id="edge26" class="edge">
<title>src/application/usecases/AddVideosFromFilesUseCase.ts&#45;&gt;src/domain/entities/index.ts</title>
<path fill="none" stroke="#000000" stroke-opacity="0.200000" d="M714.74,-391.89C765.55,-386.01 833.63,-375.3 891.38,-356.48 900.31,-353.57 909.65,-349.28 917.8,-345.08"/>
<polygon fill="none" stroke="#000000" stroke-opacity="0.200000" points="918.69,-346.98 922.99,-342.31 916.71,-343.28 918.69,-346.98"/>
</g>
<!-- src/application/usecases/UpdateVideoThumbnailsUseCase.ts&#45;&gt;src/domain/entities/index.ts -->
<g id="edge29" class="edge">
<title>src/application/usecases/UpdateVideoThumbnailsUseCase.ts&#45;&gt;src/domain/entities/index.ts</title>
<path fill="none" stroke="#000000" stroke-opacity="0.200000" d="M723.05,-363.29C772.3,-359.96 835.68,-354.2 891.38,-344.48 896.84,-343.53 902.59,-342.28 908.16,-340.93"/>
<polygon fill="none" stroke="#000000" stroke-opacity="0.200000" points="908.31,-343.05 913.62,-339.55 907.28,-338.98 908.31,-343.05"/>
</g>
<!-- src/application/usecases/UpdateVideoThumbnailsUseCase.ts&#45;&gt;src/application/ports/IVideoStorage.ts -->
<g id="edge27" class="edge">
<title>src/application/usecases/UpdateVideoThumbnailsUseCase.ts&#45;&gt;src/application/ports/IVideoStorage.ts</title>
<path fill="none" stroke="#000000" stroke-opacity="0.200000" d="M713.87,-357.51C720.2,-354.2 725.96,-349.94 730.62,-344.48 743.25,-329.73 725.8,-272.06 738.62,-257.48 743.78,-251.63 750.66,-247.78 758.07,-245.3"/>
<polygon fill="none" stroke="#000000" stroke-opacity="0.200000" points="758.3,-247.42 763.52,-243.79 757.18,-243.37 758.3,-247.42"/>
</g>
<!-- src/application/usecases/UpdateVideoThumbnailsUseCase.ts&#45;&gt;src/application/ports/IVideoThumbnailGenerator.ts -->
<g id="edge28" class="edge">
<title>src/application/usecases/UpdateVideoThumbnailsUseCase.ts&#45;&gt;src/application/ports/IVideoThumbnailGenerator.ts</title>
<path fill="none" stroke="#000000" stroke-opacity="0.200000" d="M713.16,-357.49C719.71,-354.19 725.71,-349.94 730.62,-344.48 746.06,-327.33 725.51,-310.03 739.58,-289.2"/>
<polygon fill="none" stroke="#000000" stroke-opacity="0.200000" points="741.09,-290.67 743.27,-284.7 737.84,-288.01 741.09,-290.67"/>
</g>
<!-- src/infrastructure/adapters/VideoStorageAdapter.ts&#45;&gt;src/domain/entities/index.ts -->
<g id="edge37" class="edge">
<title>src/infrastructure/adapters/VideoStorageAdapter.ts&#45;&gt;src/domain/entities/index.ts</title>
<path fill="none" stroke="#000000" stroke-opacity="0.200000" d="M662.6,-72.44C682.35,-64.42 711.77,-53.84 738.62,-49.48 772.13,-44.05 865.36,-27.68 891.38,-49.48 932.23,-83.74 939.72,-258.5 941.08,-314.32"/>
<polygon fill="none" stroke="#000000" stroke-opacity="0.200000" points="938.98,-314.2 941.21,-320.15 943.18,-314.1 938.98,-314.2"/>
</g>
<!-- src/infrastructure/adapters/VideoStorageAdapter.ts&#45;&gt;src/application/ports/IVideoStorage.ts -->
<g id="edge36" class="edge">
<title>src/infrastructure/adapters/VideoStorageAdapter.ts&#45;&gt;src/application/ports/IVideoStorage.ts</title>
<path fill="none" stroke="#000000" stroke-opacity="0.200000" d="M695.2,-80.35C708.48,-82.62 721.45,-87.63 730.62,-97.48 743.85,-111.69 729.73,-167.23 738.62,-184.48 748.21,-203.09 766.55,-218.26 781.68,-228.42"/>
<polygon fill="none" stroke="#000000" stroke-opacity="0.200000" points="780.48,-230.14 786.66,-231.63 782.76,-226.61 780.48,-230.14"/>
</g>
<!-- src/infrastructure/adapters/VideoStorageAdapter.ts&#45;&gt;src/infrastructure/services/index.ts -->
<g id="edge38" class="edge">
<title>src/infrastructure/adapters/VideoStorageAdapter.ts&#45;&gt;src/infrastructure/services/index.ts</title>
<path fill="none" stroke="#000000" stroke-width="2" stroke-opacity="0.200000" d="M694.94,-82.15C719.94,-82 748.72,-81.83 770.71,-81.7"/>
<polygon fill="#000000" fill-opacity="0.200000" stroke="#000000" stroke-width="2" stroke-opacity="0.200000" points="770.68,-83.8 776.67,-81.66 770.66,-79.6 770.68,-83.8"/>
</g>
<!-- src/infrastructure/adapters/VideoThumbnailGeneratorAdapter.ts&#45;&gt;src/application/ports/IVideoThumbnailGenerator.ts -->
<g id="edge39" class="edge">
<title>src/infrastructure/adapters/VideoThumbnailGeneratorAdapter.ts&#45;&gt;src/application/ports/IVideoThumbnailGenerator.ts</title>
<path fill="none" stroke="#000000" stroke-opacity="0.200000" d="M657.3,-154.5C678.26,-167.25 712.49,-191.3 730.62,-221.48 739.29,-235.91 726.76,-246.55 738.62,-258.48 738.74,-258.6 738.86,-258.72 738.98,-258.83"/>
<polygon fill="none" stroke="#000000" stroke-opacity="0.200000" points="737.54,-260.37 743.52,-262.53 740.19,-257.11 737.54,-260.37"/>
</g>
<!-- src/infrastructure/adapters/VideoThumbnailGeneratorAdapter.ts&#45;&gt;src/infrastructure/video/index.ts -->
<g id="edge40" class="edge">
<title>src/infrastructure/adapters/VideoThumbnailGeneratorAdapter.ts&#45;&gt;src/infrastructure/video/index.ts</title>
<path fill="none" stroke="#000000" stroke-width="2" stroke-opacity="0.200000" d="M721.77,-144.48C738.98,-144.48 756.24,-144.48 770.62,-144.48"/>
<polygon fill="#000000" fill-opacity="0.200000" stroke="#000000" stroke-width="2" stroke-opacity="0.200000" points="770.59,-146.58 776.59,-144.48 770.59,-142.38 770.59,-146.58"/>
</g>
<!-- src/application/usecases/index.ts -->
<g id="node20" class="node">
<title>src/application/usecases/index.ts</title>
<g id="a_node20"><a xlink:href="src/application/usecases/index.ts" xlink:title="index.ts">
<path fill="#ddfeff" stroke="black" d="M525.08,-392.11C525.08,-392.11 483.92,-392.11 483.92,-392.11 480.71,-392.11 477.5,-388.9 477.5,-385.69 477.5,-385.69 477.5,-379.28 477.5,-379.28 477.5,-376.07 480.71,-372.86 483.92,-372.86 483.92,-372.86 525.08,-372.86 525.08,-372.86 528.29,-372.86 531.5,-376.07 531.5,-379.28 531.5,-379.28 531.5,-385.69 531.5,-385.69 531.5,-388.9 528.29,-392.11 525.08,-392.11"/>
<text text-anchor="start" x="488.75" y="-379.56" font-family="Helvetica,sans-Serif" font-size="9.00">index.ts</text>
</a>
</g>
</g>
<!-- src/application/usecases/index.ts&#45;&gt;src/application/usecases/AddVideosFromFilesUseCase.ts -->
<g id="edge30" class="edge">
<title>src/application/usecases/index.ts&#45;&gt;src/application/usecases/AddVideosFromFilesUseCase.ts</title>
<path fill="none" stroke="#000000" stroke-width="2" stroke-opacity="0.200000" d="M531.89,-385.68C540.85,-386.77 551.34,-388.04 562.18,-389.36"/>
<polygon fill="#000000" fill-opacity="0.200000" stroke="#000000" stroke-width="2" stroke-opacity="0.200000" points="564.99,-387.96 568.89,-396.06 560.79,-392.16 564.99,-387.96"/>
</g>
<!-- src/application/usecases/index.ts&#45;&gt;src/application/usecases/UpdateVideoThumbnailsUseCase.ts -->
<g id="edge31" class="edge">
<title>src/application/usecases/index.ts&#45;&gt;src/application/usecases/UpdateVideoThumbnailsUseCase.ts</title>
<path fill="none" stroke="#000000" stroke-width="2" stroke-opacity="0.200000" d="M531.89,-379.49C538.59,-378.72 546.15,-377.87 554.07,-376.97"/>
<polygon fill="#000000" fill-opacity="0.200000" stroke="#000000" stroke-width="2" stroke-opacity="0.200000" points="556.88,-375.57 560.78,-383.67 552.68,-379.77 556.88,-375.57"/>
</g>
<!-- src/presentation/components/VideoCard.vue -->
<g id="node21" class="node">
<title>src/presentation/components/VideoCard.vue</title>
<g id="a_node21"><a xlink:href="src/presentation/components/VideoCard.vue" xlink:title="VideoCard.vue">
<path fill="#41f083" stroke="black" d="M232.83,-80.11C232.83,-80.11 169.67,-80.11 169.67,-80.11 166.46,-80.11 163.25,-76.9 163.25,-73.69 163.25,-73.69 163.25,-67.28 163.25,-67.28 163.25,-64.07 166.46,-60.86 169.67,-60.86 169.67,-60.86 232.83,-60.86 232.83,-60.86 236.04,-60.86 239.25,-64.07 239.25,-67.28 239.25,-67.28 239.25,-73.69 239.25,-73.69 239.25,-76.9 236.04,-80.11 232.83,-80.11"/>
<text text-anchor="start" x="171.25" y="-67.56" font-family="Helvetica,sans-Serif" font-size="9.00">VideoCard.vue</text>
</a>
</g>
</g>
<!-- src/presentation/components/VideoCard.vue&#45;&gt;src/domain/entities/index.ts -->
<g id="edge42" class="edge">
<title>src/presentation/components/VideoCard.vue&#45;&gt;src/domain/entities/index.ts</title>
<path fill="none" stroke="#000000" stroke-opacity="0.200000" d="M231.14,-60.39C270.96,-47.4 345.19,-26.48 410.38,-26.48 410.38,-26.48 410.38,-26.48 639.5,-26.48 751.52,-26.48 807.13,38.34 891.38,-35.48 933.58,-72.47 940.16,-256.72 941.19,-314.28"/>
<polygon fill="none" stroke="#000000" stroke-opacity="0.200000" points="939.08,-314.05 941.27,-320.02 943.28,-313.99 939.08,-314.05"/>
</g>
<!-- src/presentation/components/VideoCard.vue&#45;&gt;src/application/stores/index.ts -->
<g id="edge41" class="edge">
<title>src/presentation/components/VideoCard.vue&#45;&gt;src/application/stores/index.ts</title>
<path fill="none" stroke="#000000" stroke-width="2" stroke-opacity="0.200000" d="M239.39,-70.17C253.04,-71.87 267.71,-76.08 278.25,-85.48 318.85,-121.72 326.72,-190.79 328.08,-223.89"/>
<polygon fill="#000000" fill-opacity="0.200000" stroke="#000000" stroke-width="2" stroke-opacity="0.200000" points="325.98,-223.61 328.24,-229.55 330.17,-223.5 325.98,-223.61"/>
</g>
<!-- src/presentation/components/inputs/FileInput.vue -->
<g id="node22" class="node">
<title>src/presentation/components/inputs/FileInput.vue</title>
<g id="a_node22"><a xlink:href="src/presentation/components/inputs/FileInput.vue" xlink:title="FileInput.vue">
<path fill="#41f083" stroke="black" d="M228.71,-179.11C228.71,-179.11 173.79,-179.11 173.79,-179.11 170.58,-179.11 167.38,-175.9 167.38,-172.69 167.38,-172.69 167.38,-166.28 167.38,-166.28 167.38,-163.07 170.58,-159.86 173.79,-159.86 173.79,-159.86 228.71,-159.86 228.71,-159.86 231.92,-159.86 235.12,-163.07 235.12,-166.28 235.12,-166.28 235.12,-172.69 235.12,-172.69 235.12,-175.9 231.92,-179.11 228.71,-179.11"/>
<text text-anchor="start" x="175.38" y="-166.56" font-family="Helvetica,sans-Serif" font-size="9.00">FileInput.vue</text>
</a>
</g>
</g>
<!-- src/presentation/components/inputs/FileInput.vue&#45;&gt;src/application/stores/index.ts -->
<g id="edge43" class="edge">
<title>src/presentation/components/inputs/FileInput.vue&#45;&gt;src/application/stores/index.ts</title>
<path fill="none" stroke="#000000" stroke-width="2" stroke-opacity="0.200000" d="M219.51,-179.48C241.16,-192.03 278.45,-213.63 303.23,-227.99"/>
<polygon fill="#000000" fill-opacity="0.200000" stroke="#000000" stroke-width="2" stroke-opacity="0.200000" points="301.93,-229.67 308.18,-230.86 304.04,-226.03 301.93,-229.67"/>
</g>
<!-- src/presentation/components/utils/DiagnosticsPanel.vue -->
<g id="node23" class="node">
<title>src/presentation/components/utils/DiagnosticsPanel.vue</title>
<g id="a_node23"><a xlink:href="src/presentation/components/utils/DiagnosticsPanel.vue" xlink:title="DiagnosticsPanel.vue">
<path fill="#41f083" stroke="black" d="M247.83,-116.11C247.83,-116.11 154.67,-116.11 154.67,-116.11 151.46,-116.11 148.25,-112.9 148.25,-109.69 148.25,-109.69 148.25,-103.28 148.25,-103.28 148.25,-100.07 151.46,-96.86 154.67,-96.86 154.67,-96.86 247.83,-96.86 247.83,-96.86 251.04,-96.86 254.25,-100.07 254.25,-103.28 254.25,-103.28 254.25,-109.69 254.25,-109.69 254.25,-112.9 251.04,-116.11 247.83,-116.11"/>
<text text-anchor="start" x="156.25" y="-103.56" font-family="Helvetica,sans-Serif" font-size="9.00">DiagnosticsPanel.vue</text>
</a>
</g>
</g>
<!-- src/presentation/components/utils/DiagnosticsPanel.vue&#45;&gt;src/infrastructure/services/index.ts -->
<g id="edge45" class="edge">
<title>src/presentation/components/utils/DiagnosticsPanel.vue&#45;&gt;src/infrastructure/services/index.ts</title>
<path fill="none" stroke="#000000" stroke-width="2" stroke-opacity="0.200000" d="M254.71,-97.47C262.62,-95.92 270.67,-94.24 278.25,-92.48 337.66,-78.72 349.39,-55.48 410.38,-55.48 410.38,-55.48 410.38,-55.48 505.5,-55.48 605.59,-55.48 631.56,-47.22 730.62,-61.48 744.13,-63.43 758.67,-66.94 771.36,-70.48"/>
<polygon fill="#000000" fill-opacity="0.200000" stroke="#000000" stroke-width="2" stroke-opacity="0.200000" points="770.54,-72.44 776.89,-72.08 771.71,-68.4 770.54,-72.44"/>
</g>
<!-- src/presentation/components/utils/DiagnosticsPanel.vue&#45;&gt;src/application/stores/index.ts -->
<g id="edge44" class="edge">
<title>src/presentation/components/utils/DiagnosticsPanel.vue&#45;&gt;src/application/stores/index.ts</title>
<path fill="none" stroke="#000000" stroke-width="2" stroke-opacity="0.200000" d="M228.65,-116.52C244.52,-123.58 264.29,-134.3 278.25,-148.48 299.84,-170.42 314.49,-203.59 322.1,-224.09"/>
<polygon fill="#000000" fill-opacity="0.200000" stroke="#000000" stroke-width="2" stroke-opacity="0.200000" points="320.1,-224.74 324.09,-229.69 324.06,-223.33 320.1,-224.74"/>
</g>
<!-- src/presentation/views/NavBar.vue -->
<g id="node24" class="node">
<title>src/presentation/views/NavBar.vue</title>
<g id="a_node24"><a xlink:href="src/presentation/views/NavBar.vue" xlink:title="NavBar.vue">
<path fill="#41f083" stroke="black" d="M98.96,-192.11C98.96,-192.11 49.29,-192.11 49.29,-192.11 46.08,-192.11 42.88,-188.9 42.88,-185.69 42.88,-185.69 42.88,-179.28 42.88,-179.28 42.88,-176.07 46.08,-172.86 49.29,-172.86 49.29,-172.86 98.96,-172.86 98.96,-172.86 102.17,-172.86 105.38,-176.07 105.38,-179.28 105.38,-179.28 105.38,-185.69 105.38,-185.69 105.38,-188.9 102.17,-192.11 98.96,-192.11"/>
<text text-anchor="start" x="50.88" y="-179.56" font-family="Helvetica,sans-Serif" font-size="9.00">NavBar.vue</text>
</a>
</g>
</g>
<!-- src/presentation/views/NavBar.vue&#45;&gt;src/application/stores/index.ts -->
<g id="edge46" class="edge">
<title>src/presentation/views/NavBar.vue&#45;&gt;src/application/stores/index.ts</title>
<path fill="none" stroke="#000000" stroke-width="2" stroke-opacity="0.200000" d="M80.34,-192.41C88.87,-207.43 107.38,-235.35 132.25,-246.48 184.38,-269.83 252.38,-260.85 293.05,-251.89"/>
<polygon fill="#000000" fill-opacity="0.200000" stroke="#000000" stroke-width="2" stroke-opacity="0.200000" points="293.47,-253.95 298.84,-250.56 292.52,-249.86 293.47,-253.95"/>
</g>
<!-- src/presentation/views/NavBar.vue&#45;&gt;src/presentation/components/inputs/FileInput.vue -->
<g id="edge47" class="edge">
<title>src/presentation/views/NavBar.vue&#45;&gt;src/presentation/components/inputs/FileInput.vue</title>
<path fill="none" stroke="#000000" stroke-width="2" stroke-opacity="0.200000" d="M105.73,-179.3C121.51,-177.67 140.98,-175.64 158.15,-173.86"/>
<polygon fill="#000000" fill-opacity="0.200000" stroke="#000000" stroke-width="2" stroke-opacity="0.200000" points="158.12,-175.97 163.87,-173.26 157.69,-171.8 158.12,-175.97"/>
</g>
<!-- src/presentation/views/VideoGallery.vue -->
<g id="node25" class="node">
<title>src/presentation/views/VideoGallery.vue</title>
<g id="a_node25"><a xlink:href="src/presentation/views/VideoGallery.vue" xlink:title="VideoGallery.vue">
<path fill="#41f083" stroke="black" d="M109.83,-161.11C109.83,-161.11 38.42,-161.11 38.42,-161.11 35.21,-161.11 32,-157.9 32,-154.69 32,-154.69 32,-148.28 32,-148.28 32,-145.07 35.21,-141.86 38.42,-141.86 38.42,-141.86 109.83,-141.86 109.83,-141.86 113.04,-141.86 116.25,-145.07 116.25,-148.28 116.25,-148.28 116.25,-154.69 116.25,-154.69 116.25,-157.9 113.04,-161.11 109.83,-161.11"/>
<text text-anchor="start" x="40" y="-148.56" font-family="Helvetica,sans-Serif" font-size="9.00">VideoGallery.vue</text>
</a>
</g>
</g>
<!-- src/presentation/views/VideoGallery.vue&#45;&gt;src/application/stores/index.ts -->
<g id="edge48" class="edge">
<title>src/presentation/views/VideoGallery.vue&#45;&gt;src/application/stores/index.ts</title>
<path fill="none" stroke="#000000" stroke-width="2" stroke-opacity="0.200000" d="M116.41,-160.09C119.32,-161.85 121.99,-163.96 124.25,-166.48 137.2,-180.98 118.39,-195.86 132.25,-209.48 154.49,-231.35 243.03,-238.79 293.17,-241.27"/>
<polygon fill="#000000" fill-opacity="0.200000" stroke="#000000" stroke-width="2" stroke-opacity="0.200000" points="292.94,-243.37 299.03,-241.54 293.13,-239.17 292.94,-243.37"/>
</g>
<!-- src/presentation/views/VideoGallery.vue&#45;&gt;src/presentation/components/VideoCard.vue -->
<g id="edge49" class="edge">
<title>src/presentation/views/VideoGallery.vue&#45;&gt;src/presentation/components/VideoCard.vue</title>
<path fill="none" stroke="#000000" stroke-width="2" stroke-opacity="0.200000" d="M80.75,-141.67C89.68,-127 108.55,-99.6 132.25,-85.48 139.04,-81.44 146.79,-78.48 154.58,-76.32"/>
<polygon fill="#000000" fill-opacity="0.200000" stroke="#000000" stroke-width="2" stroke-opacity="0.200000" points="154.72,-78.45 160.05,-74.99 153.73,-74.37 154.72,-78.45"/>
</g>
</g>
</svg>
