<?xml version="1.0" encoding="UTF-8" standalone="no"?>
<!DOCTYPE svg PUBLIC "-//W3C//DTD SVG 1.1//EN"
 "http://www.w3.org/Graphics/SVG/1.1/DTD/svg11.dtd">
<!-- Generated by graphviz version 9.0.0 (20230911.1827)
 -->
<!-- Title: dependency&#45;cruiser output Pages: 1 -->
<svg width="865pt" height="525pt"
 viewBox="0.00 0.00 865.25 525.25" xmlns="http://www.w3.org/2000/svg" xmlns:xlink="http://www.w3.org/1999/xlink">
<g id="graph0" class="graph" transform="scale(1 1) rotate(0) translate(4 521.25)">
<title>dependency&#45;cruiser output</title>
<polygon fill="white" stroke="none" points="-4,4 -4,-521.25 861.25,-521.25 861.25,4 -4,4"/>
<g id="clust1" class="cluster">
<title>cluster_src</title>
<path fill="#ffffff" stroke="black" stroke-width="2" d="M20,-10.25C20,-10.25 837.25,-10.25 837.25,-10.25 843.25,-10.25 849.25,-16.25 849.25,-22.25 849.25,-22.25 849.25,-497.25 849.25,-497.25 849.25,-503.25 843.25,-509.25 837.25,-509.25 837.25,-509.25 20,-509.25 20,-509.25 14,-509.25 8,-503.25 8,-497.25 8,-497.25 8,-22.25 8,-22.25 8,-16.25 14,-10.25 20,-10.25"/>
<text text-anchor="middle" x="428.62" y="-496.7" font-family="Helvetica,sans-Serif" font-weight="bold" font-size="9.00">src</text>
</g>
<g id="clust2" class="cluster">
<title>cluster_src/application</title>
<path fill="#ffffff" stroke="black" stroke-width="2" d="M152.25,-195.25C152.25,-195.25 735.25,-195.25 735.25,-195.25 741.25,-195.25 747.25,-201.25 747.25,-207.25 747.25,-207.25 747.25,-460.25 747.25,-460.25 747.25,-466.25 741.25,-472.25 735.25,-472.25 735.25,-472.25 152.25,-472.25 152.25,-472.25 146.25,-472.25 140.25,-466.25 140.25,-460.25 140.25,-460.25 140.25,-207.25 140.25,-207.25 140.25,-201.25 146.25,-195.25 152.25,-195.25"/>
<text text-anchor="middle" x="443.75" y="-459.7" font-family="Helvetica,sans-Serif" font-weight="bold" font-size="9.00">application</text>
</g>
<g id="clust3" class="cluster">
<title>cluster_src/application/ports</title>
<path fill="#ffffff" stroke="black" stroke-width="2" d="M520.5,-203.25C520.5,-203.25 727.25,-203.25 727.25,-203.25 733.25,-203.25 739.25,-209.25 739.25,-215.25 739.25,-215.25 739.25,-308.25 739.25,-308.25 739.25,-314.25 733.25,-320.25 727.25,-320.25 727.25,-320.25 520.5,-320.25 520.5,-320.25 514.5,-320.25 508.5,-314.25 508.5,-308.25 508.5,-308.25 508.5,-215.25 508.5,-215.25 508.5,-209.25 514.5,-203.25 520.5,-203.25"/>
<text text-anchor="middle" x="623.88" y="-307.7" font-family="Helvetica,sans-Serif" font-weight="bold" font-size="9.00">ports</text>
</g>
<g id="clust5" class="cluster">
<title>cluster_src/application/usecases</title>
<path fill="#ffffff" stroke="black" stroke-width="2" d="M261.25,-203.25C261.25,-203.25 488.5,-203.25 488.5,-203.25 494.5,-203.25 500.5,-209.25 500.5,-215.25 500.5,-215.25 500.5,-308.25 500.5,-308.25 500.5,-314.25 494.5,-320.25 488.5,-320.25 488.5,-320.25 261.25,-320.25 261.25,-320.25 255.25,-320.25 249.25,-314.25 249.25,-308.25 249.25,-308.25 249.25,-215.25 249.25,-215.25 249.25,-209.25 255.25,-203.25 261.25,-203.25"/>
<text text-anchor="middle" x="374.88" y="-307.7" font-family="Helvetica,sans-Serif" font-weight="bold" font-size="9.00">usecases</text>
</g>
<g id="clust4" class="cluster">
<title>cluster_src/application/services</title>
<path fill="#ffffff" stroke="black" stroke-width="2" d="M261.25,-328.25C261.25,-328.25 453.62,-328.25 453.62,-328.25 459.62,-328.25 465.62,-334.25 465.62,-340.25 465.62,-340.25 465.62,-433.25 465.62,-433.25 465.62,-439.25 459.62,-445.25 453.62,-445.25 453.62,-445.25 261.25,-445.25 261.25,-445.25 255.25,-445.25 249.25,-439.25 249.25,-433.25 249.25,-433.25 249.25,-340.25 249.25,-340.25 249.25,-334.25 255.25,-328.25 261.25,-328.25"/>
<text text-anchor="middle" x="357.44" y="-432.7" font-family="Helvetica,sans-Serif" font-weight="bold" font-size="9.00">services</text>
</g>
<g id="clust6" class="cluster">
<title>cluster_src/domain</title>
<path fill="#ffffff" stroke="black" stroke-width="2" d="M767.25,-303.25C767.25,-303.25 829.25,-303.25 829.25,-303.25 835.25,-303.25 841.25,-309.25 841.25,-315.25 841.25,-315.25 841.25,-381.25 841.25,-381.25 841.25,-387.25 835.25,-393.25 829.25,-393.25 829.25,-393.25 767.25,-393.25 767.25,-393.25 761.25,-393.25 755.25,-387.25 755.25,-381.25 755.25,-381.25 755.25,-315.25 755.25,-315.25 755.25,-309.25 761.25,-303.25 767.25,-303.25"/>
<text text-anchor="middle" x="798.25" y="-380.7" font-family="Helvetica,sans-Serif" font-weight="bold" font-size="9.00">domain</text>
</g>
<g id="clust7" class="cluster">
<title>cluster_src/domain/entities</title>
<path fill="#ffffff" stroke="black" stroke-width="2" d="M775.25,-311.25C775.25,-311.25 821.25,-311.25 821.25,-311.25 827.25,-311.25 833.25,-317.25 833.25,-323.25 833.25,-323.25 833.25,-354.25 833.25,-354.25 833.25,-360.25 827.25,-366.25 821.25,-366.25 821.25,-366.25 775.25,-366.25 775.25,-366.25 769.25,-366.25 763.25,-360.25 763.25,-354.25 763.25,-354.25 763.25,-323.25 763.25,-323.25 763.25,-317.25 769.25,-311.25 775.25,-311.25"/>
<text text-anchor="middle" x="798.25" y="-353.7" font-family="Helvetica,sans-Serif" font-weight="bold" font-size="9.00">entities</text>
</g>
<g id="clust8" class="cluster">
<title>cluster_src/infrastructure</title>
<path fill="#ffffff" stroke="black" stroke-width="2" d="M253.25,-34.25C253.25,-34.25 574.5,-34.25 574.5,-34.25 580.5,-34.25 586.5,-40.25 586.5,-46.25 586.5,-46.25 586.5,-175.25 586.5,-175.25 586.5,-181.25 580.5,-187.25 574.5,-187.25 574.5,-187.25 253.25,-187.25 253.25,-187.25 247.25,-187.25 241.25,-181.25 241.25,-175.25 241.25,-175.25 241.25,-46.25 241.25,-46.25 241.25,-40.25 247.25,-34.25 253.25,-34.25"/>
<text text-anchor="middle" x="413.88" y="-174.7" font-family="Helvetica,sans-Serif" font-weight="bold" font-size="9.00">infrastructure</text>
</g>
<g id="clust9" class="cluster">
<title>cluster_src/infrastructure/adapters</title>
<path fill="#ffffff" stroke="black" stroke-width="2" d="M261.25,-43.25C261.25,-43.25 487.38,-43.25 487.38,-43.25 493.38,-43.25 499.38,-49.25 499.38,-55.25 499.38,-55.25 499.38,-148.25 499.38,-148.25 499.38,-154.25 493.38,-160.25 487.38,-160.25 487.38,-160.25 261.25,-160.25 261.25,-160.25 255.25,-160.25 249.25,-154.25 249.25,-148.25 249.25,-148.25 249.25,-55.25 249.25,-55.25 249.25,-49.25 255.25,-43.25 261.25,-43.25"/>
<text text-anchor="middle" x="374.31" y="-147.7" font-family="Helvetica,sans-Serif" font-weight="bold" font-size="9.00">adapters</text>
</g>
<g id="clust11" class="cluster">
<title>cluster_src/infrastructure/video</title>
<path fill="#ffffff" stroke="black" stroke-width="2" d="M520.5,-105.25C520.5,-105.25 566.5,-105.25 566.5,-105.25 572.5,-105.25 578.5,-111.25 578.5,-117.25 578.5,-117.25 578.5,-148.25 578.5,-148.25 578.5,-154.25 572.5,-160.25 566.5,-160.25 566.5,-160.25 520.5,-160.25 520.5,-160.25 514.5,-160.25 508.5,-154.25 508.5,-148.25 508.5,-148.25 508.5,-117.25 508.5,-117.25 508.5,-111.25 514.5,-105.25 520.5,-105.25"/>
<text text-anchor="middle" x="543.5" y="-147.7" font-family="Helvetica,sans-Serif" font-weight="bold" font-size="9.00">video</text>
</g>
<g id="clust10" class="cluster">
<title>cluster_src/infrastructure/services</title>
<path fill="#ffffff" stroke="black" stroke-width="2" d="M520.5,-42.25C520.5,-42.25 566.5,-42.25 566.5,-42.25 572.5,-42.25 578.5,-48.25 578.5,-54.25 578.5,-54.25 578.5,-85.25 578.5,-85.25 578.5,-91.25 572.5,-97.25 566.5,-97.25 566.5,-97.25 520.5,-97.25 520.5,-97.25 514.5,-97.25 508.5,-91.25 508.5,-85.25 508.5,-85.25 508.5,-54.25 508.5,-54.25 508.5,-48.25 514.5,-42.25 520.5,-42.25"/>
<text text-anchor="middle" x="543.5" y="-84.7" font-family="Helvetica,sans-Serif" font-weight="bold" font-size="9.00">services</text>
</g>
<g id="clust12" class="cluster">
<title>cluster_src/presentation</title>
<path fill="#ffffff" stroke="black" stroke-width="2" d="M28,-335.25C28,-335.25 120.25,-335.25 120.25,-335.25 126.25,-335.25 132.25,-341.25 132.25,-347.25 132.25,-347.25 132.25,-444.25 132.25,-444.25 132.25,-450.25 126.25,-456.25 120.25,-456.25 120.25,-456.25 28,-456.25 28,-456.25 22,-456.25 16,-450.25 16,-444.25 16,-444.25 16,-347.25 16,-347.25 16,-341.25 22,-335.25 28,-335.25"/>
<text text-anchor="middle" x="74.12" y="-443.7" font-family="Helvetica,sans-Serif" font-weight="bold" font-size="9.00">presentation</text>
</g>
<g id="clust13" class="cluster">
<title>cluster_src/presentation/stores</title>
<path fill="#ffffff" stroke="black" stroke-width="2" d="M36,-343.25C36,-343.25 112.25,-343.25 112.25,-343.25 118.25,-343.25 124.25,-349.25 124.25,-355.25 124.25,-355.25 124.25,-417.25 124.25,-417.25 124.25,-423.25 118.25,-429.25 112.25,-429.25 112.25,-429.25 36,-429.25 36,-429.25 30,-429.25 24,-423.25 24,-417.25 24,-417.25 24,-355.25 24,-355.25 24,-349.25 30,-343.25 36,-343.25"/>
<text text-anchor="middle" x="74.12" y="-416.7" font-family="Helvetica,sans-Serif" font-weight="bold" font-size="9.00">stores</text>
</g>
<!-- src/application/dependencies.ts -->
<g id="node1" class="node">
<title>src/application/dependencies.ts</title>
<g id="a_node1"><a xlink:href="src/application/dependencies.ts" xlink:title="dependencies.ts">
<path fill="#ddfeff" stroke="black" d="M226.83,-261.88C226.83,-261.88 154.67,-261.88 154.67,-261.88 151.46,-261.88 148.25,-258.67 148.25,-255.46 148.25,-255.46 148.25,-249.04 148.25,-249.04 148.25,-245.84 151.46,-242.63 154.67,-242.63 154.67,-242.63 226.83,-242.63 226.83,-242.63 230.04,-242.63 233.25,-245.84 233.25,-249.04 233.25,-249.04 233.25,-255.46 233.25,-255.46 233.25,-258.67 230.04,-261.88 226.83,-261.88"/>
<text text-anchor="start" x="156.25" y="-249.33" font-family="Helvetica,sans-Serif" font-size="9.00">dependencies.ts</text>
</a>
</g>
</g>
<!-- src/application/usecases/index.ts -->
<g id="node2" class="node">
<title>src/application/usecases/index.ts</title>
<g id="a_node2"><a xlink:href="src/application/usecases/index.ts" xlink:title="index.ts">
<path fill="#ddfeff" stroke="black" d="M304.83,-261.88C304.83,-261.88 263.67,-261.88 263.67,-261.88 260.46,-261.88 257.25,-258.67 257.25,-255.46 257.25,-255.46 257.25,-249.04 257.25,-249.04 257.25,-245.84 260.46,-242.63 263.67,-242.63 263.67,-242.63 304.83,-242.63 304.83,-242.63 308.04,-242.63 311.25,-245.84 311.25,-249.04 311.25,-249.04 311.25,-255.46 311.25,-255.46 311.25,-258.67 308.04,-261.88 304.83,-261.88"/>
<text text-anchor="start" x="268.5" y="-249.33" font-family="Helvetica,sans-Serif" font-size="9.00">index.ts</text>
</a>
</g>
</g>
<!-- src/application/dependencies.ts&#45;&gt;src/application/usecases/index.ts -->
<g id="edge1" class="edge">
<title>src/application/dependencies.ts&#45;&gt;src/application/usecases/index.ts</title>
<path fill="none" stroke="#000000" stroke-width="2" stroke-opacity="0.200000" d="M233.48,-252.25C238.31,-252.25 243.19,-252.25 247.92,-252.25"/>
<polygon fill="#000000" fill-opacity="0.200000" stroke="#000000" stroke-width="2" stroke-opacity="0.200000" points="247.74,-254.35 253.74,-252.25 247.74,-250.15 247.74,-254.35"/>
</g>
<!-- src/infrastructure/adapters/index.ts -->
<g id="node3" class="node">
<title>src/infrastructure/adapters/index.ts</title>
<g id="a_node3"><a xlink:href="src/infrastructure/adapters/index.ts" xlink:title="index.ts">
<path fill="#ddfeff" stroke="black" d="M304.83,-116.88C304.83,-116.88 263.67,-116.88 263.67,-116.88 260.46,-116.88 257.25,-113.67 257.25,-110.46 257.25,-110.46 257.25,-104.04 257.25,-104.04 257.25,-100.84 260.46,-97.63 263.67,-97.63 263.67,-97.63 304.83,-97.63 304.83,-97.63 308.04,-97.63 311.25,-100.84 311.25,-104.04 311.25,-104.04 311.25,-110.46 311.25,-110.46 311.25,-113.67 308.04,-116.88 304.83,-116.88"/>
<text text-anchor="start" x="268.5" y="-104.33" font-family="Helvetica,sans-Serif" font-size="9.00">index.ts</text>
</a>
</g>
</g>
<!-- src/application/dependencies.ts&#45;&gt;src/infrastructure/adapters/index.ts -->
<g id="edge2" class="edge">
<title>src/application/dependencies.ts&#45;&gt;src/infrastructure/adapters/index.ts</title>
<path fill="none" stroke="#000000" stroke-width="2" stroke-opacity="0.200000" d="M198.04,-242.29C213.38,-217.97 252.9,-155.35 272.24,-124.69"/>
<polygon fill="#000000" fill-opacity="0.200000" stroke="#000000" stroke-width="2" stroke-opacity="0.200000" points="273.88,-126.04 275.3,-119.85 270.32,-123.8 273.88,-126.04"/>
</g>
<!-- src/application/usecases/AddVideosFromFilesUseCase.ts -->
<g id="node15" class="node">
<title>src/application/usecases/AddVideosFromFilesUseCase.ts</title>
<g id="a_node15"><a xlink:href="src/application/usecases/AddVideosFromFilesUseCase.ts" xlink:title="AddVideosFromFilesUseCase.ts">
<path fill="#ddfeff" stroke="black" d="M477.83,-261.88C477.83,-261.88 338.92,-261.88 338.92,-261.88 335.71,-261.88 332.5,-258.67 332.5,-255.46 332.5,-255.46 332.5,-249.04 332.5,-249.04 332.5,-245.84 335.71,-242.63 338.92,-242.63 338.92,-242.63 477.83,-242.63 477.83,-242.63 481.04,-242.63 484.25,-245.84 484.25,-249.04 484.25,-249.04 484.25,-255.46 484.25,-255.46 484.25,-258.67 481.04,-261.88 477.83,-261.88"/>
<text text-anchor="start" x="340.5" y="-249.33" font-family="Helvetica,sans-Serif" font-size="9.00">AddVideosFromFilesUseCase.ts</text>
</a>
</g>
</g>
<!-- src/application/usecases/index.ts&#45;&gt;src/application/usecases/AddVideosFromFilesUseCase.ts -->
<g id="edge21" class="edge">
<title>src/application/usecases/index.ts&#45;&gt;src/application/usecases/AddVideosFromFilesUseCase.ts</title>
<path fill="none" stroke="#000000" stroke-width="2" stroke-opacity="0.200000" d="M311.75,-252.25C318.06,-252.25 325.11,-252.25 332.44,-252.25"/>
<polygon fill="#000000" fill-opacity="0.200000" stroke="#000000" stroke-width="2" stroke-opacity="0.200000" points="335.25,-250.86 339.15,-258.96 331.05,-255.06 335.25,-250.86"/>
</g>
<!-- src/application/usecases/UpdateVideoThumbnailsUseCase.ts -->
<g id="node16" class="node">
<title>src/application/usecases/UpdateVideoThumbnailsUseCase.ts</title>
<g id="a_node16"><a xlink:href="src/application/usecases/UpdateVideoThumbnailsUseCase.ts" xlink:title="UpdateVideoThumbnailsUseCase.ts">
<path fill="#ddfeff" stroke="black" d="M486.08,-292.88C486.08,-292.88 330.67,-292.88 330.67,-292.88 327.46,-292.88 324.25,-289.67 324.25,-286.46 324.25,-286.46 324.25,-280.04 324.25,-280.04 324.25,-276.84 327.46,-273.63 330.67,-273.63 330.67,-273.63 486.08,-273.63 486.08,-273.63 489.29,-273.63 492.5,-276.84 492.5,-280.04 492.5,-280.04 492.5,-286.46 492.5,-286.46 492.5,-289.67 489.29,-292.88 486.08,-292.88"/>
<text text-anchor="start" x="332.25" y="-280.33" font-family="Helvetica,sans-Serif" font-size="9.00">UpdateVideoThumbnailsUseCase.ts</text>
</a>
</g>
</g>
<!-- src/application/usecases/index.ts&#45;&gt;src/application/usecases/UpdateVideoThumbnailsUseCase.ts -->
<g id="edge22" class="edge">
<title>src/application/usecases/index.ts&#45;&gt;src/application/usecases/UpdateVideoThumbnailsUseCase.ts</title>
<path fill="none" stroke="#000000" stroke-width="2" stroke-opacity="0.200000" d="M307.24,-262.22C312.71,-264.44 318.63,-266.61 343.52,-273.15"/>
<polygon fill="#000000" fill-opacity="0.200000" stroke="#000000" stroke-width="2" stroke-opacity="0.200000" points="346.32,-271.76 350.22,-279.86 342.12,-275.96 346.32,-271.76"/>
</g>
<!-- src/application/usecases/UpdateVideoVotesUseCase.ts -->
<g id="node17" class="node">
<title>src/application/usecases/UpdateVideoVotesUseCase.ts</title>
<g id="a_node17"><a xlink:href="src/application/usecases/UpdateVideoVotesUseCase.ts" xlink:title="UpdateVideoVotesUseCase.ts">
<path fill="#ddfeff" stroke="black" d="M472.96,-230.88C472.96,-230.88 343.79,-230.88 343.79,-230.88 340.58,-230.88 337.38,-227.67 337.38,-224.46 337.38,-224.46 337.38,-218.04 337.38,-218.04 337.38,-214.84 340.58,-211.63 343.79,-211.63 343.79,-211.63 472.96,-211.63 472.96,-211.63 476.17,-211.63 479.38,-214.84 479.38,-218.04 479.38,-218.04 479.38,-224.46 479.38,-224.46 479.38,-227.67 476.17,-230.88 472.96,-230.88"/>
<text text-anchor="start" x="345.38" y="-218.33" font-family="Helvetica,sans-Serif" font-size="9.00">UpdateVideoVotesUseCase.ts</text>
</a>
</g>
</g>
<!-- src/application/usecases/index.ts&#45;&gt;src/application/usecases/UpdateVideoVotesUseCase.ts -->
<g id="edge23" class="edge">
<title>src/application/usecases/index.ts&#45;&gt;src/application/usecases/UpdateVideoVotesUseCase.ts</title>
<path fill="none" stroke="#000000" stroke-width="2" stroke-opacity="0.200000" d="M307.24,-242.29C312.71,-240.07 318.63,-237.89 343.52,-231.36"/>
<polygon fill="#000000" fill-opacity="0.200000" stroke="#000000" stroke-width="2" stroke-opacity="0.200000" points="346.32,-229.96 350.22,-238.06 342.12,-234.16 346.32,-229.96"/>
</g>
<!-- src/infrastructure/adapters/VideoParserAdapter.ts -->
<g id="node18" class="node">
<title>src/infrastructure/adapters/VideoParserAdapter.ts</title>
<g id="a_node18"><a xlink:href="src/infrastructure/adapters/VideoParserAdapter.ts" xlink:title="VideoParserAdapter.ts">
<path fill="#ddfeff" stroke="black" d="M456.08,-101.88C456.08,-101.88 360.67,-101.88 360.67,-101.88 357.46,-101.88 354.25,-98.67 354.25,-95.46 354.25,-95.46 354.25,-89.04 354.25,-89.04 354.25,-85.84 357.46,-82.63 360.67,-82.63 360.67,-82.63 456.08,-82.63 456.08,-82.63 459.29,-82.63 462.5,-85.84 462.5,-89.04 462.5,-89.04 462.5,-95.46 462.5,-95.46 462.5,-98.67 459.29,-101.88 456.08,-101.88"/>
<text text-anchor="start" x="362.25" y="-89.33" font-family="Helvetica,sans-Serif" font-size="9.00">VideoParserAdapter.ts</text>
</a>
</g>
</g>
<!-- src/infrastructure/adapters/index.ts&#45;&gt;src/infrastructure/adapters/VideoParserAdapter.ts -->
<g id="edge33" class="edge">
<title>src/infrastructure/adapters/index.ts&#45;&gt;src/infrastructure/adapters/VideoParserAdapter.ts</title>
<path fill="none" stroke="#000000" stroke-width="2" stroke-opacity="0.200000" d="M311.75,-104C324.1,-102.48 339.25,-100.62 353.83,-98.83"/>
<polygon fill="#000000" fill-opacity="0.200000" stroke="#000000" stroke-width="2" stroke-opacity="0.200000" points="356.64,-97.44 360.54,-105.54 352.44,-101.64 356.64,-97.44"/>
</g>
<!-- src/infrastructure/adapters/VideoStorageAdapter.ts -->
<g id="node19" class="node">
<title>src/infrastructure/adapters/VideoStorageAdapter.ts</title>
<g id="a_node19"><a xlink:href="src/infrastructure/adapters/VideoStorageAdapter.ts" xlink:title="VideoStorageAdapter.ts">
<path fill="#ddfeff" stroke="black" d="M458.33,-70.88C458.33,-70.88 358.42,-70.88 358.42,-70.88 355.21,-70.88 352,-67.67 352,-64.46 352,-64.46 352,-58.04 352,-58.04 352,-54.84 355.21,-51.63 358.42,-51.63 358.42,-51.63 458.33,-51.63 458.33,-51.63 461.54,-51.63 464.75,-54.84 464.75,-58.04 464.75,-58.04 464.75,-64.46 464.75,-64.46 464.75,-67.67 461.54,-70.88 458.33,-70.88"/>
<text text-anchor="start" x="360" y="-58.33" font-family="Helvetica,sans-Serif" font-size="9.00">VideoStorageAdapter.ts</text>
</a>
</g>
</g>
<!-- src/infrastructure/adapters/index.ts&#45;&gt;src/infrastructure/adapters/VideoStorageAdapter.ts -->
<g id="edge34" class="edge">
<title>src/infrastructure/adapters/index.ts&#45;&gt;src/infrastructure/adapters/VideoStorageAdapter.ts</title>
<path fill="none" stroke="#000000" stroke-width="2" stroke-opacity="0.200000" d="M294.91,-97.3C302.29,-90.3 313.06,-81.32 351.67,-67.38"/>
<polygon fill="#000000" fill-opacity="0.200000" stroke="#000000" stroke-width="2" stroke-opacity="0.200000" points="354.47,-65.99 358.37,-74.09 350.27,-70.19 354.47,-65.99"/>
</g>
<!-- src/infrastructure/adapters/VideoThumbnailGeneratorAdapter.ts -->
<g id="node20" class="node">
<title>src/infrastructure/adapters/VideoThumbnailGeneratorAdapter.ts</title>
<g id="a_node20"><a xlink:href="src/infrastructure/adapters/VideoThumbnailGeneratorAdapter.ts" xlink:title="VideoThumbnailGeneratorAdapter.ts">
<path fill="#ddfeff" stroke="black" d="M484.96,-132.88C484.96,-132.88 331.79,-132.88 331.79,-132.88 328.58,-132.88 325.38,-129.67 325.38,-126.46 325.38,-126.46 325.38,-120.04 325.38,-120.04 325.38,-116.84 328.58,-113.63 331.79,-113.63 331.79,-113.63 484.96,-113.63 484.96,-113.63 488.17,-113.63 491.38,-116.84 491.38,-120.04 491.38,-120.04 491.38,-126.46 491.38,-126.46 491.38,-129.67 488.17,-132.88 484.96,-132.88"/>
<text text-anchor="start" x="333.38" y="-120.33" font-family="Helvetica,sans-Serif" font-size="9.00">VideoThumbnailGeneratorAdapter.ts</text>
</a>
</g>
</g>
<!-- src/infrastructure/adapters/index.ts&#45;&gt;src/infrastructure/adapters/VideoThumbnailGeneratorAdapter.ts -->
<g id="edge35" class="edge">
<title>src/infrastructure/adapters/index.ts&#45;&gt;src/infrastructure/adapters/VideoThumbnailGeneratorAdapter.ts</title>
<path fill="none" stroke="#000000" stroke-width="2" stroke-opacity="0.200000" d="M311.75,-110.72C317.5,-111.48 323.86,-112.31 330.49,-113.18"/>
<polygon fill="#000000" fill-opacity="0.200000" stroke="#000000" stroke-width="2" stroke-opacity="0.200000" points="333.3,-111.79 337.2,-119.89 329.1,-115.99 333.3,-111.79"/>
</g>
<!-- src/application/ports/IVideoParser.ts -->
<g id="node4" class="node">
<title>src/application/ports/IVideoParser.ts</title>
<g id="a_node4"><a xlink:href="src/application/ports/IVideoParser.ts" xlink:title="IVideoParser.ts">
<path fill="#ddfeff" stroke="black" d="M695.96,-230.88C695.96,-230.88 629.79,-230.88 629.79,-230.88 626.58,-230.88 623.38,-227.67 623.38,-224.46 623.38,-224.46 623.38,-218.04 623.38,-218.04 623.38,-214.84 626.58,-211.63 629.79,-211.63 629.79,-211.63 695.96,-211.63 695.96,-211.63 699.17,-211.63 702.38,-214.84 702.38,-218.04 702.38,-218.04 702.38,-224.46 702.38,-224.46 702.38,-227.67 699.17,-230.88 695.96,-230.88"/>
<text text-anchor="start" x="631.38" y="-218.33" font-family="Helvetica,sans-Serif" font-size="9.00">IVideoParser.ts</text>
</a>
</g>
</g>
<!-- src/domain/entities/index.ts -->
<g id="node5" class="node">
<title>src/domain/entities/index.ts</title>
<g id="a_node5"><a xlink:href="src/domain/entities/index.ts" xlink:title="index.ts">
<path fill="#ddfeff" stroke="black" d="M818.83,-338.88C818.83,-338.88 777.67,-338.88 777.67,-338.88 774.46,-338.88 771.25,-335.67 771.25,-332.46 771.25,-332.46 771.25,-326.04 771.25,-326.04 771.25,-322.84 774.46,-319.63 777.67,-319.63 777.67,-319.63 818.83,-319.63 818.83,-319.63 822.04,-319.63 825.25,-322.84 825.25,-326.04 825.25,-326.04 825.25,-332.46 825.25,-332.46 825.25,-335.67 822.04,-338.88 818.83,-338.88"/>
<text text-anchor="start" x="782.5" y="-326.33" font-family="Helvetica,sans-Serif" font-size="9.00">index.ts</text>
</a>
</g>
</g>
<!-- src/application/ports/IVideoParser.ts&#45;&gt;src/domain/entities/index.ts -->
<g id="edge3" class="edge">
<title>src/application/ports/IVideoParser.ts&#45;&gt;src/domain/entities/index.ts</title>
<path fill="none" stroke="#000000" stroke-opacity="0.200000" d="M702.79,-221.19C717.86,-222.87 734.51,-227.01 747.25,-236.25 772.88,-254.86 786.69,-290.71 792.96,-312.06"/>
<polygon fill="none" stroke="#000000" stroke-opacity="0.200000" points="790.91,-312.52 794.53,-317.75 794.96,-311.4 790.91,-312.52"/>
</g>
<!-- src/application/ports/IVideoStorage.ts -->
<g id="node6" class="node">
<title>src/application/ports/IVideoStorage.ts</title>
<g id="a_node6"><a xlink:href="src/application/ports/IVideoStorage.ts" xlink:title="IVideoStorage.ts">
<path fill="#ddfeff" stroke="black" d="M698.21,-292.88C698.21,-292.88 627.54,-292.88 627.54,-292.88 624.33,-292.88 621.12,-289.67 621.12,-286.46 621.12,-286.46 621.12,-280.04 621.12,-280.04 621.12,-276.84 624.33,-273.63 627.54,-273.63 627.54,-273.63 698.21,-273.63 698.21,-273.63 701.42,-273.63 704.62,-276.84 704.62,-280.04 704.62,-280.04 704.62,-286.46 704.62,-286.46 704.62,-289.67 701.42,-292.88 698.21,-292.88"/>
<text text-anchor="start" x="629.12" y="-280.33" font-family="Helvetica,sans-Serif" font-size="9.00">IVideoStorage.ts</text>
</a>
</g>
</g>
<!-- src/application/ports/IVideoStorage.ts&#45;&gt;src/domain/entities/index.ts -->
<g id="edge4" class="edge">
<title>src/application/ports/IVideoStorage.ts&#45;&gt;src/domain/entities/index.ts</title>
<path fill="none" stroke="#000000" stroke-opacity="0.200000" d="M693.14,-293.35C714.04,-300.55 742.18,-310.26 763.94,-317.77"/>
<polygon fill="none" stroke="#000000" stroke-opacity="0.200000" points="762.98,-319.65 769.33,-319.62 764.35,-315.68 762.98,-319.65"/>
</g>
<!-- src/application/ports/IVideoThumbnailGenerator.ts -->
<g id="node7" class="node">
<title>src/application/ports/IVideoThumbnailGenerator.ts</title>
<g id="a_node7"><a xlink:href="src/application/ports/IVideoThumbnailGenerator.ts" xlink:title="IVideoThumbnailGenerator.ts">
<path fill="#ddfeff" stroke="black" d="M724.83,-261.88C724.83,-261.88 600.92,-261.88 600.92,-261.88 597.71,-261.88 594.5,-258.67 594.5,-255.46 594.5,-255.46 594.5,-249.04 594.5,-249.04 594.5,-245.84 597.71,-242.63 600.92,-242.63 600.92,-242.63 724.83,-242.63 724.83,-242.63 728.04,-242.63 731.25,-245.84 731.25,-249.04 731.25,-249.04 731.25,-255.46 731.25,-255.46 731.25,-258.67 728.04,-261.88 724.83,-261.88"/>
<text text-anchor="start" x="602.5" y="-249.33" font-family="Helvetica,sans-Serif" font-size="9.00">IVideoThumbnailGenerator.ts</text>
</a>
</g>
</g>
<!-- src/application/ports/index.ts -->
<g id="node8" class="node">
<title>src/application/ports/index.ts</title>
<g id="a_node8"><a xlink:href="src/application/ports/index.ts" xlink:title="index.ts">
<path fill="#ddfeff" stroke="black" d="M564.08,-261.88C564.08,-261.88 522.92,-261.88 522.92,-261.88 519.71,-261.88 516.5,-258.67 516.5,-255.46 516.5,-255.46 516.5,-249.04 516.5,-249.04 516.5,-245.84 519.71,-242.63 522.92,-242.63 522.92,-242.63 564.08,-242.63 564.08,-242.63 567.29,-242.63 570.5,-245.84 570.5,-249.04 570.5,-249.04 570.5,-255.46 570.5,-255.46 570.5,-258.67 567.29,-261.88 564.08,-261.88"/>
<text text-anchor="start" x="527.75" y="-249.33" font-family="Helvetica,sans-Serif" font-size="9.00">index.ts</text>
</a>
</g>
</g>
<!-- src/application/ports/index.ts&#45;&gt;src/application/ports/IVideoParser.ts -->
<g id="edge5" class="edge">
<title>src/application/ports/index.ts&#45;&gt;src/application/ports/IVideoParser.ts</title>
<path fill="none" stroke="#000000" stroke-width="2" stroke-opacity="0.200000" d="M570.83,-243.33C578.43,-240.89 586.76,-238.35 622.89,-229.3"/>
<polygon fill="#000000" fill-opacity="0.200000" stroke="#000000" stroke-width="2" stroke-opacity="0.200000" points="625.7,-227.91 629.6,-236.01 621.5,-232.11 625.7,-227.91"/>
</g>
<!-- src/application/ports/index.ts&#45;&gt;src/application/ports/IVideoStorage.ts -->
<g id="edge6" class="edge">
<title>src/application/ports/index.ts&#45;&gt;src/application/ports/IVideoStorage.ts</title>
<path fill="none" stroke="#000000" stroke-width="2" stroke-opacity="0.200000" d="M570.83,-261.17C578.43,-263.61 586.76,-266.16 620.76,-274.72"/>
<polygon fill="#000000" fill-opacity="0.200000" stroke="#000000" stroke-width="2" stroke-opacity="0.200000" points="623.56,-273.33 627.46,-281.43 619.36,-277.53 623.56,-273.33"/>
</g>
<!-- src/application/ports/index.ts&#45;&gt;src/application/ports/IVideoThumbnailGenerator.ts -->
<g id="edge7" class="edge">
<title>src/application/ports/index.ts&#45;&gt;src/application/ports/IVideoThumbnailGenerator.ts</title>
<path fill="none" stroke="#000000" stroke-width="2" stroke-opacity="0.200000" d="M570.84,-252.25C578.01,-252.25 586.11,-252.25 594.45,-252.25"/>
<polygon fill="#000000" fill-opacity="0.200000" stroke="#000000" stroke-width="2" stroke-opacity="0.200000" points="597.25,-250.86 601.15,-258.96 593.05,-255.06 597.25,-250.86"/>
</g>
<!-- src/application/services/FileParserService.ts -->
<g id="node9" class="node">
<title>src/application/services/FileParserService.ts</title>
<g id="a_node9"><a xlink:href="src/application/services/FileParserService.ts" xlink:title="FileParserService.ts">
<path fill="#ddfeff" stroke="black" d="M451.21,-355.88C451.21,-355.88 365.54,-355.88 365.54,-355.88 362.33,-355.88 359.12,-352.67 359.12,-349.46 359.12,-349.46 359.12,-343.04 359.12,-343.04 359.12,-339.84 362.33,-336.63 365.54,-336.63 365.54,-336.63 451.21,-336.63 451.21,-336.63 454.42,-336.63 457.62,-339.84 457.62,-343.04 457.62,-343.04 457.62,-349.46 457.62,-349.46 457.62,-352.67 454.42,-355.88 451.21,-355.88"/>
<text text-anchor="start" x="367.12" y="-343.33" font-family="Helvetica,sans-Serif" font-size="9.00">FileParserService.ts</text>
</a>
</g>
</g>
<!-- src/application/services/FileParserService.ts&#45;&gt;src/domain/entities/index.ts -->
<g id="edge9" class="edge">
<title>src/application/services/FileParserService.ts&#45;&gt;src/domain/entities/index.ts</title>
<path fill="none" stroke="#000000" stroke-opacity="0.200000" d="M458.03,-346.84C474.1,-347.01 492.06,-347.17 508.5,-347.25 614.61,-347.79 642.72,-365.5 747.25,-347.25 754.06,-346.06 761.16,-344.03 767.81,-341.75"/>
<polygon fill="none" stroke="#000000" stroke-opacity="0.200000" points="768.46,-343.75 773.38,-339.72 767.02,-339.8 768.46,-343.75"/>
</g>
<!-- src/application/services/FileParserService.ts&#45;&gt;src/application/ports/index.ts -->
<g id="edge8" class="edge">
<title>src/application/services/FileParserService.ts&#45;&gt;src/application/ports/index.ts</title>
<path fill="none" stroke="#000000" stroke-opacity="0.200000" d="M457.91,-341.31C472.67,-337.98 488.22,-332.44 500.5,-323.25 518.8,-309.57 530.61,-285.36 536.9,-269.06"/>
<polygon fill="none" stroke="#000000" stroke-opacity="0.200000" points="538.8,-269.98 538.89,-263.62 534.86,-268.53 538.8,-269.98"/>
</g>
<!-- src/infrastructure/services/index.ts -->
<g id="node10" class="node">
<title>src/infrastructure/services/index.ts</title>
<g id="a_node10"><a xlink:href="src/infrastructure/services/index.ts" xlink:title="index.ts">
<path fill="#ddfeff" stroke="black" d="M564.08,-69.88C564.08,-69.88 522.92,-69.88 522.92,-69.88 519.71,-69.88 516.5,-66.67 516.5,-63.46 516.5,-63.46 516.5,-57.04 516.5,-57.04 516.5,-53.84 519.71,-50.63 522.92,-50.63 522.92,-50.63 564.08,-50.63 564.08,-50.63 567.29,-50.63 570.5,-53.84 570.5,-57.04 570.5,-57.04 570.5,-63.46 570.5,-63.46 570.5,-66.67 567.29,-69.88 564.08,-69.88"/>
<text text-anchor="start" x="527.75" y="-57.33" font-family="Helvetica,sans-Serif" font-size="9.00">index.ts</text>
</a>
</g>
</g>
<!-- src/application/services/FileParserService.ts&#45;&gt;src/infrastructure/services/index.ts -->
<g id="edge10" class="edge">
<title>src/application/services/FileParserService.ts&#45;&gt;src/infrastructure/services/index.ts</title>
<path fill="none" stroke="#000000" stroke-width="2" stroke-opacity="0.200000" d="M457.75,-345.26C473.77,-342.35 490.14,-336.07 500.5,-323.25 515.95,-304.14 499.88,-125.26 508.5,-102.25 512.13,-92.57 518.94,-83.43 525.51,-76.17"/>
<polygon fill="#000000" fill-opacity="0.200000" stroke="#000000" stroke-width="2" stroke-opacity="0.200000" points="526.64,-78.03 529.29,-72.25 523.62,-75.12 526.64,-78.03"/>
</g>
<!-- src/infrastructure/video/index.ts -->
<g id="node11" class="node">
<title>src/infrastructure/video/index.ts</title>
<g id="a_node11"><a xlink:href="src/infrastructure/video/index.ts" xlink:title="index.ts">
<path fill="#ddfeff" stroke="black" d="M564.08,-132.88C564.08,-132.88 522.92,-132.88 522.92,-132.88 519.71,-132.88 516.5,-129.67 516.5,-126.46 516.5,-126.46 516.5,-120.04 516.5,-120.04 516.5,-116.84 519.71,-113.63 522.92,-113.63 522.92,-113.63 564.08,-113.63 564.08,-113.63 567.29,-113.63 570.5,-116.84 570.5,-120.04 570.5,-120.04 570.5,-126.46 570.5,-126.46 570.5,-129.67 567.29,-132.88 564.08,-132.88"/>
<text text-anchor="start" x="527.75" y="-120.33" font-family="Helvetica,sans-Serif" font-size="9.00">index.ts</text>
</a>
</g>
</g>
<!-- src/application/services/FileParserService.ts&#45;&gt;src/infrastructure/video/index.ts -->
<g id="edge11" class="edge">
<title>src/application/services/FileParserService.ts&#45;&gt;src/infrastructure/video/index.ts</title>
<path fill="none" stroke="#000000" stroke-width="2" stroke-opacity="0.200000" d="M458.02,-345.01C473.87,-342.05 490.06,-335.79 500.5,-323.25 509.26,-312.73 505.24,-213.55 508.5,-200.25 513.73,-178.94 524.52,-156.13 532.55,-140.92"/>
<polygon fill="#000000" fill-opacity="0.200000" stroke="#000000" stroke-width="2" stroke-opacity="0.200000" points="534.22,-142.24 535.24,-135.97 530.53,-140.24 534.22,-142.24"/>
</g>
<!-- src/application/services/FiltersService.ts -->
<g id="node12" class="node">
<title>src/application/services/FiltersService.ts</title>
<g id="a_node12"><a xlink:href="src/application/services/FiltersService.ts" xlink:title="FiltersService.ts">
<path fill="#ddfeff" stroke="black" d="M442.58,-386.88C442.58,-386.88 374.17,-386.88 374.17,-386.88 370.96,-386.88 367.75,-383.67 367.75,-380.46 367.75,-380.46 367.75,-374.04 367.75,-374.04 367.75,-370.84 370.96,-367.63 374.17,-367.63 374.17,-367.63 442.58,-367.63 442.58,-367.63 445.79,-367.63 449,-370.84 449,-374.04 449,-374.04 449,-380.46 449,-380.46 449,-383.67 445.79,-386.88 442.58,-386.88"/>
<text text-anchor="start" x="375.75" y="-374.33" font-family="Helvetica,sans-Serif" font-size="9.00">FiltersService.ts</text>
</a>
</g>
</g>
<!-- src/application/services/FiltersService.ts&#45;&gt;src/domain/entities/index.ts -->
<g id="edge12" class="edge">
<title>src/application/services/FiltersService.ts&#45;&gt;src/domain/entities/index.ts</title>
<path fill="none" stroke="#000000" stroke-opacity="0.200000" d="M449.28,-379.89C513.4,-382.97 642.79,-384.42 747.25,-355.25 757.07,-352.51 767.17,-347.7 775.7,-342.95"/>
<polygon fill="none" stroke="#000000" stroke-opacity="0.200000" points="776.73,-344.78 780.87,-339.96 774.62,-341.15 776.73,-344.78"/>
</g>
<!-- src/application/services/Hotkeys.ts -->
<g id="node13" class="node">
<title>src/application/services/Hotkeys.ts</title>
<g id="a_node13"><a xlink:href="src/application/services/Hotkeys.ts" xlink:title="Hotkeys.ts">
<path fill="#ddfeff" stroke="black" d="M431.33,-417.88C431.33,-417.88 385.42,-417.88 385.42,-417.88 382.21,-417.88 379,-414.67 379,-411.46 379,-411.46 379,-405.04 379,-405.04 379,-401.84 382.21,-398.63 385.42,-398.63 385.42,-398.63 431.33,-398.63 431.33,-398.63 434.54,-398.63 437.75,-401.84 437.75,-405.04 437.75,-405.04 437.75,-411.46 437.75,-411.46 437.75,-414.67 434.54,-417.88 431.33,-417.88"/>
<text text-anchor="start" x="387" y="-405.33" font-family="Helvetica,sans-Serif" font-size="9.00">Hotkeys.ts</text>
</a>
</g>
</g>
<!-- src/application/services/index.ts -->
<g id="node14" class="node">
<title>src/application/services/index.ts</title>
<g id="a_node14"><a xlink:href="src/application/services/index.ts" xlink:title="index.ts">
<path fill="#ddfeff" stroke="black" d="M304.83,-386.88C304.83,-386.88 263.67,-386.88 263.67,-386.88 260.46,-386.88 257.25,-383.67 257.25,-380.46 257.25,-380.46 257.25,-374.04 257.25,-374.04 257.25,-370.84 260.46,-367.63 263.67,-367.63 263.67,-367.63 304.83,-367.63 304.83,-367.63 308.04,-367.63 311.25,-370.84 311.25,-374.04 311.25,-374.04 311.25,-380.46 311.25,-380.46 311.25,-383.67 308.04,-386.88 304.83,-386.88"/>
<text text-anchor="start" x="268.5" y="-374.33" font-family="Helvetica,sans-Serif" font-size="9.00">index.ts</text>
</a>
</g>
</g>
<!-- src/application/services/index.ts&#45;&gt;src/application/services/FileParserService.ts -->
<g id="edge13" class="edge">
<title>src/application/services/index.ts&#45;&gt;src/application/services/FileParserService.ts</title>
<path fill="none" stroke="#000000" stroke-width="2" stroke-opacity="0.200000" d="M307.24,-367.29C312.71,-365.07 318.63,-362.89 359.06,-353.2"/>
<polygon fill="#000000" fill-opacity="0.200000" stroke="#000000" stroke-width="2" stroke-opacity="0.200000" points="361.87,-351.8 365.77,-359.9 357.67,-356 361.87,-351.8"/>
</g>
<!-- src/application/services/index.ts&#45;&gt;src/application/services/FiltersService.ts -->
<g id="edge14" class="edge">
<title>src/application/services/index.ts&#45;&gt;src/application/services/FiltersService.ts</title>
<path fill="none" stroke="#000000" stroke-width="2" stroke-opacity="0.200000" d="M311.75,-377.25C328.02,-377.25 349.18,-377.25 367.46,-377.25"/>
<polygon fill="#000000" fill-opacity="0.200000" stroke="#000000" stroke-width="2" stroke-opacity="0.200000" points="370.27,-375.86 374.17,-383.96 366.07,-380.06 370.27,-375.86"/>
</g>
<!-- src/application/services/index.ts&#45;&gt;src/application/services/Hotkeys.ts -->
<g id="edge15" class="edge">
<title>src/application/services/index.ts&#45;&gt;src/application/services/Hotkeys.ts</title>
<path fill="none" stroke="#000000" stroke-width="2" stroke-opacity="0.200000" d="M307.24,-387.22C312.71,-389.44 318.63,-391.61 378.56,-404.58"/>
<polygon fill="#000000" fill-opacity="0.200000" stroke="#000000" stroke-width="2" stroke-opacity="0.200000" points="381.37,-403.19 385.27,-411.29 377.17,-407.39 381.37,-403.19"/>
</g>
<!-- src/application/usecases/AddVideosFromFilesUseCase.ts&#45;&gt;src/domain/entities/index.ts -->
<g id="edge17" class="edge">
<title>src/application/usecases/AddVideosFromFilesUseCase.ts&#45;&gt;src/domain/entities/index.ts</title>
<path fill="none" stroke="#000000" stroke-opacity="0.200000" d="M484.51,-256.28C490.44,-258.98 495.9,-262.56 500.5,-267.25 518.09,-285.22 489.68,-306.58 508.5,-323.25 517.9,-331.58 689.48,-330.55 763.6,-329.71"/>
<polygon fill="none" stroke="#000000" stroke-opacity="0.200000" points="763.39,-331.81 769.37,-329.64 763.34,-327.61 763.39,-331.81"/>
</g>
<!-- src/application/usecases/AddVideosFromFilesUseCase.ts&#45;&gt;src/application/ports/index.ts -->
<g id="edge16" class="edge">
<title>src/application/usecases/AddVideosFromFilesUseCase.ts&#45;&gt;src/application/ports/index.ts</title>
<path fill="none" stroke="#000000" stroke-opacity="0.200000" d="M484.5,-252.25C492.99,-252.25 501.29,-252.25 508.84,-252.25"/>
<polygon fill="none" stroke="#000000" stroke-opacity="0.200000" points="508.61,-254.35 514.61,-252.25 508.61,-250.15 508.61,-254.35"/>
</g>
<!-- src/application/usecases/UpdateVideoThumbnailsUseCase.ts&#45;&gt;src/domain/entities/index.ts -->
<g id="edge19" class="edge">
<title>src/application/usecases/UpdateVideoThumbnailsUseCase.ts&#45;&gt;src/domain/entities/index.ts</title>
<path fill="none" stroke="#000000" stroke-opacity="0.200000" d="M437.86,-293.36C456.56,-300.7 481.06,-311.71 500.5,-325.25 504.63,-328.13 503.85,-331.33 508.5,-333.25 553.66,-351.96 697.54,-339.85 763.56,-333.01"/>
<polygon fill="none" stroke="#000000" stroke-opacity="0.200000" points="763.58,-335.12 769.33,-332.41 763.14,-330.95 763.58,-335.12"/>
</g>
<!-- src/application/usecases/UpdateVideoThumbnailsUseCase.ts&#45;&gt;src/application/ports/index.ts -->
<g id="edge18" class="edge">
<title>src/application/usecases/UpdateVideoThumbnailsUseCase.ts&#45;&gt;src/application/ports/index.ts</title>
<path fill="none" stroke="#000000" stroke-opacity="0.200000" d="M479.34,-273.21C486.53,-271.74 493.69,-270.09 500.5,-268.25 504.27,-267.24 508.16,-266.01 512,-264.69"/>
<polygon fill="none" stroke="#000000" stroke-opacity="0.200000" points="512.43,-266.76 517.36,-262.75 511.01,-262.81 512.43,-266.76"/>
</g>
<!-- src/application/usecases/UpdateVideoVotesUseCase.ts&#45;&gt;src/application/ports/IVideoStorage.ts -->
<g id="edge20" class="edge">
<title>src/application/usecases/UpdateVideoVotesUseCase.ts&#45;&gt;src/application/ports/IVideoStorage.ts</title>
<path fill="none" stroke="#000000" stroke-opacity="0.200000" d="M479.52,-224.05C487.25,-226.78 494.49,-230.71 500.5,-236.25 511.28,-246.19 497.4,-258.68 508.5,-268.25 536.85,-292.7 580.03,-294.91 613.35,-291.88"/>
<polygon fill="none" stroke="#000000" stroke-opacity="0.200000" points="613.48,-293.98 619.23,-291.27 613.04,-289.8 613.48,-293.98"/>
</g>
<!-- src/infrastructure/adapters/VideoParserAdapter.ts&#45;&gt;src/domain/entities/index.ts -->
<g id="edge25" class="edge">
<title>src/infrastructure/adapters/VideoParserAdapter.ts&#45;&gt;src/domain/entities/index.ts</title>
<path fill="none" stroke="#000000" stroke-opacity="0.200000" d="M462.9,-93.88C476.67,-91.72 490.42,-86.9 500.5,-77.25 512.97,-65.32 495.1,-50.13 508.5,-39.25 535.42,-17.41 554.48,-25.97 586.5,-39.25 679.9,-77.98 692.07,-115.52 747.25,-200.25 771.01,-236.74 786.19,-286.22 793.03,-312.01"/>
<polygon fill="none" stroke="#000000" stroke-opacity="0.200000" points="790.97,-312.46 794.5,-317.75 795.04,-311.41 790.97,-312.46"/>
</g>
<!-- src/infrastructure/adapters/VideoParserAdapter.ts&#45;&gt;src/application/ports/index.ts -->
<g id="edge24" class="edge">
<title>src/infrastructure/adapters/VideoParserAdapter.ts&#45;&gt;src/application/ports/index.ts</title>
<path fill="none" stroke="#000000" stroke-opacity="0.200000" d="M462.85,-90.13C476.78,-92.25 490.63,-97.17 500.5,-107.25 509.29,-116.24 505.35,-151.08 508.5,-163.25 515.21,-189.17 527.03,-217.9 534.81,-235.52"/>
<polygon fill="none" stroke="#000000" stroke-opacity="0.200000" points="532.89,-236.35 537.26,-240.97 536.72,-234.63 532.89,-236.35"/>
</g>
<!-- src/infrastructure/adapters/VideoParserAdapter.ts&#45;&gt;src/infrastructure/services/index.ts -->
<g id="edge26" class="edge">
<title>src/infrastructure/adapters/VideoParserAdapter.ts&#45;&gt;src/infrastructure/services/index.ts</title>
<path fill="none" stroke="#000000" stroke-width="2" stroke-opacity="0.200000" d="M462.81,-85.49C475.3,-83.35 488.46,-80.64 500.5,-77.25 504.27,-76.2 508.15,-74.91 511.97,-73.52"/>
<polygon fill="#000000" fill-opacity="0.200000" stroke="#000000" stroke-width="2" stroke-opacity="0.200000" points="512.48,-75.57 517.33,-71.45 510.97,-71.65 512.48,-75.57"/>
</g>
<!-- src/infrastructure/adapters/VideoParserAdapter.ts&#45;&gt;src/infrastructure/video/index.ts -->
<g id="edge27" class="edge">
<title>src/infrastructure/adapters/VideoParserAdapter.ts&#45;&gt;src/infrastructure/video/index.ts</title>
<path fill="none" stroke="#000000" stroke-width="2" stroke-opacity="0.200000" d="M462.76,-99.2C475.25,-101.33 488.43,-103.99 500.5,-107.25 503.8,-108.14 507.19,-109.2 510.56,-110.33"/>
<polygon fill="#000000" fill-opacity="0.200000" stroke="#000000" stroke-width="2" stroke-opacity="0.200000" points="509.58,-112.21 515.94,-112.25 510.99,-108.25 509.58,-112.21"/>
</g>
<!-- src/infrastructure/adapters/VideoStorageAdapter.ts&#45;&gt;src/domain/entities/index.ts -->
<g id="edge29" class="edge">
<title>src/infrastructure/adapters/VideoStorageAdapter.ts&#45;&gt;src/domain/entities/index.ts</title>
<path fill="none" stroke="#000000" stroke-opacity="0.200000" d="M429.87,-51.19C488.31,-24.09 657.35,42.85 747.25,-41.25 786.99,-78.43 795.24,-255.42 796.87,-311.9"/>
<polygon fill="none" stroke="#000000" stroke-opacity="0.200000" points="794.76,-311.87 797.02,-317.81 798.96,-311.76 794.76,-311.87"/>
</g>
<!-- src/infrastructure/adapters/VideoStorageAdapter.ts&#45;&gt;src/application/ports/index.ts -->
<g id="edge28" class="edge">
<title>src/infrastructure/adapters/VideoStorageAdapter.ts&#45;&gt;src/application/ports/index.ts</title>
<path fill="none" stroke="#000000" stroke-opacity="0.200000" d="M465.08,-59.12C478.36,-61.39 491.32,-66.4 500.5,-76.25 513.73,-90.46 504.11,-144.34 508.5,-163.25 514.56,-189.33 526.55,-218.02 534.55,-235.58"/>
<polygon fill="none" stroke="#000000" stroke-opacity="0.200000" points="532.64,-236.46 537.07,-241.02 536.45,-234.69 532.64,-236.46"/>
</g>
<!-- src/infrastructure/adapters/VideoStorageAdapter.ts&#45;&gt;src/infrastructure/services/index.ts -->
<g id="edge30" class="edge">
<title>src/infrastructure/adapters/VideoStorageAdapter.ts&#45;&gt;src/infrastructure/services/index.ts</title>
<path fill="none" stroke="#000000" stroke-width="2" stroke-opacity="0.200000" d="M465.06,-60.83C479.28,-60.73 494.18,-60.62 507.07,-60.52"/>
<polygon fill="#000000" fill-opacity="0.200000" stroke="#000000" stroke-width="2" stroke-opacity="0.200000" points="507.05,-62.62 513.03,-60.47 507.02,-58.42 507.05,-62.62"/>
</g>
<!-- src/infrastructure/adapters/VideoThumbnailGeneratorAdapter.ts&#45;&gt;src/application/ports/index.ts -->
<g id="edge31" class="edge">
<title>src/infrastructure/adapters/VideoThumbnailGeneratorAdapter.ts&#45;&gt;src/application/ports/index.ts</title>
<path fill="none" stroke="#000000" stroke-opacity="0.200000" d="M422.73,-133.24C441.12,-147.27 474.87,-174.04 500.5,-200.25 511.62,-211.63 522.88,-225.73 530.93,-236.38"/>
<polygon fill="none" stroke="#000000" stroke-opacity="0.200000" points="529.1,-237.44 534.38,-240.99 532.47,-234.93 529.1,-237.44"/>
</g>
<!-- src/infrastructure/adapters/VideoThumbnailGeneratorAdapter.ts&#45;&gt;src/infrastructure/video/index.ts -->
<g id="edge32" class="edge">
<title>src/infrastructure/adapters/VideoThumbnailGeneratorAdapter.ts&#45;&gt;src/infrastructure/video/index.ts</title>
<path fill="none" stroke="#000000" stroke-width="2" stroke-opacity="0.200000" d="M491.79,-123.25C497.11,-123.25 502.28,-123.25 507.16,-123.25"/>
<polygon fill="#000000" fill-opacity="0.200000" stroke="#000000" stroke-width="2" stroke-opacity="0.200000" points="507.13,-125.35 513.13,-123.25 507.13,-121.15 507.13,-125.35"/>
</g>
<!-- src/presentation/stores/appStateStore.ts -->
<g id="node21" class="node">
<title>src/presentation/stores/appStateStore.ts</title>
<g id="a_node21"><a xlink:href="src/presentation/stores/appStateStore.ts" xlink:title="appStateStore.ts">
<path fill="#ddfeff" stroke="black" d="M109.83,-370.88C109.83,-370.88 38.42,-370.88 38.42,-370.88 35.21,-370.88 32,-367.67 32,-364.46 32,-364.46 32,-358.04 32,-358.04 32,-354.84 35.21,-351.63 38.42,-351.63 38.42,-351.63 109.83,-351.63 109.83,-351.63 113.04,-351.63 116.25,-354.84 116.25,-358.04 116.25,-358.04 116.25,-364.46 116.25,-364.46 116.25,-367.67 113.04,-370.88 109.83,-370.88"/>
<text text-anchor="start" x="40" y="-358.33" font-family="Helvetica,sans-Serif" font-size="9.00">appStateStore.ts</text>
</a>
</g>
</g>
<!-- src/presentation/stores/appStateStore.ts&#45;&gt;src/application/services/index.ts -->
<g id="edge36" class="edge">
<title>src/presentation/stores/appStateStore.ts&#45;&gt;src/application/services/index.ts</title>
<path fill="none" stroke="#000000" stroke-width="2" stroke-opacity="0.200000" d="M116.74,-364.45C155.24,-367.41 211.82,-371.76 248.1,-374.55"/>
<polygon fill="#000000" fill-opacity="0.200000" stroke="#000000" stroke-width="2" stroke-opacity="0.200000" points="247.7,-376.63 253.85,-374.99 248.02,-372.44 247.7,-376.63"/>
</g>
<!-- src/presentation/stores/videosStore.ts -->
<g id="node22" class="node">
<title>src/presentation/stores/videosStore.ts</title>
<g id="a_node22"><a xlink:href="src/presentation/stores/videosStore.ts" xlink:title="videosStore.ts">
<path fill="#ddfeff" stroke="black" d="M104.96,-401.88C104.96,-401.88 43.29,-401.88 43.29,-401.88 40.08,-401.88 36.88,-398.67 36.88,-395.46 36.88,-395.46 36.88,-389.04 36.88,-389.04 36.88,-385.84 40.08,-382.63 43.29,-382.63 43.29,-382.63 104.96,-382.63 104.96,-382.63 108.17,-382.63 111.38,-385.84 111.38,-389.04 111.38,-389.04 111.38,-395.46 111.38,-395.46 111.38,-398.67 108.17,-401.88 104.96,-401.88"/>
<text text-anchor="start" x="44.88" y="-389.33" font-family="Helvetica,sans-Serif" font-size="9.00">videosStore.ts</text>
</a>
</g>
</g>
<!-- src/presentation/stores/videosStore.ts&#45;&gt;src/application/dependencies.ts -->
<g id="edge37" class="edge">
<title>src/presentation/stores/videosStore.ts&#45;&gt;src/application/dependencies.ts</title>
<path fill="none" stroke="#000000" stroke-width="2" stroke-opacity="0.200000" d="M111.58,-387.78C119.02,-385.53 126.36,-382.2 132.25,-377.25 165.48,-349.37 180.5,-298.15 186.42,-270.73"/>
<polygon fill="#000000" fill-opacity="0.200000" stroke="#000000" stroke-width="2" stroke-opacity="0.200000" points="188.44,-271.36 187.56,-265.07 184.32,-270.54 188.44,-271.36"/>
</g>
<!-- src/presentation/stores/videosStore.ts&#45;&gt;src/domain/entities/index.ts -->
<g id="edge39" class="edge">
<title>src/presentation/stores/videosStore.ts&#45;&gt;src/domain/entities/index.ts</title>
<path fill="none" stroke="#000000" stroke-opacity="0.200000" d="M87.94,-402.12C119.35,-425.29 203.48,-481.25 283.25,-481.25 283.25,-481.25 283.25,-481.25 544.5,-481.25 649.92,-481.25 749.24,-382.95 784.1,-344.45"/>
<polygon fill="none" stroke="#000000" stroke-opacity="0.200000" points="785.33,-346.23 787.76,-340.36 782.2,-343.43 785.33,-346.23"/>
</g>
<!-- src/presentation/stores/videosStore.ts&#45;&gt;src/application/services/index.ts -->
<g id="edge38" class="edge">
<title>src/presentation/stores/videosStore.ts&#45;&gt;src/application/services/index.ts</title>
<path fill="none" stroke="#000000" stroke-width="2" stroke-opacity="0.200000" d="M111.85,-389.61C150.32,-386.83 210.28,-382.51 248.13,-379.78"/>
<polygon fill="#000000" fill-opacity="0.200000" stroke="#000000" stroke-width="2" stroke-opacity="0.200000" points="247.93,-381.9 253.76,-379.38 247.63,-377.72 247.93,-381.9"/>
</g>
</g>
</svg>
