<?xml version="1.0" encoding="UTF-8" standalone="no"?>
<!DOCTYPE svg PUBLIC "-//W3C//DTD SVG 1.1//EN"
 "http://www.w3.org/Graphics/SVG/1.1/DTD/svg11.dtd">
<!-- Generated by graphviz version 2.43.0 (0)
 -->
<!-- Title: dependency&#45;cruiser output Pages: 1 -->
<svg width="474pt" height="278pt"
 viewBox="0.00 0.00 474.00 278.00" xmlns="http://www.w3.org/2000/svg" xmlns:xlink="http://www.w3.org/1999/xlink">
<g id="graph0" class="graph" transform="scale(1 1) rotate(0) translate(4 274)">
<title>dependency&#45;cruiser output</title>
<polygon fill="white" stroke="transparent" points="-4,4 -4,-274 470,-274 470,4 -4,4"/>
<g id="clust1" class="cluster">
<title>cluster_src</title>
<path fill="#ffffff" stroke="black" stroke-width="2" d="M20,-8C20,-8 446,-8 446,-8 452,-8 458,-14 458,-20 458,-20 458,-250 458,-250 458,-256 452,-262 446,-262 446,-262 20,-262 20,-262 14,-262 8,-256 8,-250 8,-250 8,-20 8,-20 8,-14 14,-8 20,-8"/>
<text text-anchor="middle" x="233" y="-250.8" font-family="Helvetica,sans-Serif" font-weight="bold" font-size="9.00">src</text>
</g>
<g id="clust2" class="cluster">
<title>cluster_src/application</title>
<path fill="#ffffff" stroke="black" stroke-width="2" d="M142,-34C142,-34 346,-34 346,-34 352,-34 358,-40 358,-46 358,-46 358,-104 358,-104 358,-110 352,-116 346,-116 346,-116 142,-116 142,-116 136,-116 130,-110 130,-104 130,-104 130,-46 130,-46 130,-40 136,-34 142,-34"/>
<text text-anchor="middle" x="244" y="-104.8" font-family="Helvetica,sans-Serif" font-weight="bold" font-size="9.00">application</text>
</g>
<g id="clust3" class="cluster">
<title>cluster_src/domain</title>
<path fill="#ffffff" stroke="black" stroke-width="2" d="M378,-34C378,-34 438,-34 438,-34 444,-34 450,-40 450,-46 450,-46 450,-134 450,-134 450,-140 444,-146 438,-146 438,-146 378,-146 378,-146 372,-146 366,-140 366,-134 366,-134 366,-46 366,-46 366,-40 372,-34 378,-34"/>
<text text-anchor="middle" x="408" y="-134.8" font-family="Helvetica,sans-Serif" font-weight="bold" font-size="9.00">domain</text>
</g>
<g id="clust4" class="cluster">
<title>cluster_src/infrastructure</title>
<path fill="#ffffff" stroke="black" stroke-width="2" d="M133,-124C133,-124 198,-124 198,-124 204,-124 210,-130 210,-136 210,-136 210,-224 210,-224 210,-230 204,-236 198,-236 198,-236 133,-236 133,-236 127,-236 121,-230 121,-224 121,-224 121,-136 121,-136 121,-130 127,-124 133,-124"/>
<text text-anchor="middle" x="165.5" y="-224.8" font-family="Helvetica,sans-Serif" font-weight="bold" font-size="9.00">infrastructure</text>
</g>
<g id="clust5" class="cluster">
<title>cluster_src/presentation</title>
<path fill="#ffffff" stroke="black" stroke-width="2" d="M28,-45C28,-45 93,-45 93,-45 99,-45 105,-51 105,-57 105,-57 105,-115 105,-115 105,-121 99,-127 93,-127 93,-127 28,-127 28,-127 22,-127 16,-121 16,-115 16,-115 16,-57 16,-57 16,-51 22,-45 28,-45"/>
<text text-anchor="middle" x="60.5" y="-115.8" font-family="Helvetica,sans-Serif" font-weight="bold" font-size="9.00">presentation</text>
</g>
<!-- src/application/index.ts -->
<g id="node1" class="node">
<title>src/application/index.ts</title>
<g id="a_node1"><a xlink:href="src/application/index.ts" xlink:title="index.ts">
<path fill="#ddfeff" stroke="black" d="M186,-90C186,-90 144,-90 144,-90 141,-90 138,-87 138,-84 138,-84 138,-78 138,-78 138,-75 141,-72 144,-72 144,-72 186,-72 186,-72 189,-72 192,-75 192,-78 192,-78 192,-84 192,-84 192,-87 189,-90 186,-90"/>
<text text-anchor="start" x="146.5" y="-78.8" font-family="Helvetica,sans-Serif" font-size="9.00">index.ts</text>
</a>
</g>
</g>
<!-- src/application/usecases -->
<g id="node2" class="node">
<title>src/application/usecases</title>
<g id="a_node2"><a xlink:href="src/application/usecases" xlink:title="usecases">
<polygon fill="#ffffcc" stroke="black" points="283,-90 228,-90 226,-88 226,-72 281,-72 283,-74 283,-90"/>
<polyline fill="none" stroke="black" points="281,-88 226,-88 "/>
<polyline fill="none" stroke="black" points="281,-88 281,-72 "/>
<polyline fill="none" stroke="black" points="281,-88 283,-90 "/>
<text text-anchor="start" x="234" y="-78.8" font-family="Helvetica,sans-Serif" font-size="9.00">usecases</text>
</a>
</g>
</g>
<!-- src/application/index.ts&#45;&gt;src/application/usecases -->
<g id="edge1" class="edge">
<title>src/application/index.ts&#45;&gt;src/application/usecases</title>
<path fill="none" stroke="#000000" stroke-width="2" stroke-opacity="0.200000" d="M192.25,-81C200.84,-81 210.51,-81 219.58,-81"/>
<polygon fill="#000000" fill-opacity="0.200000" stroke="#000000" stroke-width="2" stroke-opacity="0.200000" points="225.74,-83.1 219.74,-81 225.74,-78.9 225.74,-83.1"/>
</g>
<!-- src/application/ports -->
<g id="node3" class="node">
<title>src/application/ports</title>
<g id="a_node3"><a xlink:href="src/application/ports" xlink:title="ports">
<polygon fill="#ffffcc" stroke="black" points="350,-90 298,-90 296,-88 296,-72 348,-72 350,-74 350,-90"/>
<polyline fill="none" stroke="black" points="348,-88 296,-88 "/>
<polyline fill="none" stroke="black" points="348,-88 348,-72 "/>
<polyline fill="none" stroke="black" points="348,-88 350,-90 "/>
<text text-anchor="start" x="311" y="-78.8" font-family="Helvetica,sans-Serif" font-size="9.00">ports</text>
</a>
</g>
</g>
<!-- src/application/usecases&#45;&gt;src/application/ports -->
<g id="edge4" class="edge">
<title>src/application/usecases&#45;&gt;src/application/ports</title>
<path fill="none" stroke="#000000" stroke-opacity="0.200000" d="M283.32,-81C285.38,-81 287.47,-81 289.56,-81"/>
<polygon fill="none" stroke="#000000" stroke-opacity="0.200000" points="289.78,-83.1 295.78,-81 289.78,-78.9 289.78,-83.1"/>
</g>
<!-- src/domain/entities -->
<g id="node4" class="node">
<title>src/domain/entities</title>
<g id="a_node4"><a xlink:href="src/domain/entities" xlink:title="entities">
<polygon fill="#ffffcc" stroke="black" points="435,-90 383,-90 381,-88 381,-72 433,-72 435,-74 435,-90"/>
<polyline fill="none" stroke="black" points="433,-88 381,-88 "/>
<polyline fill="none" stroke="black" points="433,-88 433,-72 "/>
<polyline fill="none" stroke="black" points="433,-88 435,-90 "/>
<text text-anchor="start" x="391" y="-78.8" font-family="Helvetica,sans-Serif" font-size="9.00">entities</text>
</a>
</g>
</g>
<!-- src/application/usecases&#45;&gt;src/domain/entities -->
<g id="edge5" class="edge">
<title>src/application/usecases&#45;&gt;src/domain/entities</title>
<path fill="none" stroke="#000000" stroke-opacity="0.200000" d="M266,-71.85C273.72,-65.76 284.78,-58.29 296,-55 322.44,-47.24 333.44,-42.5 358,-55 363.39,-57.74 361.17,-62.36 366,-66 368.72,-68.05 371.76,-69.85 374.9,-71.41"/>
<polygon fill="none" stroke="#000000" stroke-opacity="0.200000" points="374.32,-73.45 380.66,-73.99 376.04,-69.62 374.32,-73.45"/>
</g>
<!-- src/domain/services -->
<g id="node6" class="node">
<title>src/domain/services</title>
<g id="a_node6"><a xlink:href="src/domain/services" xlink:title="services">
<polygon fill="#ffffcc" stroke="black" points="435,-60 383,-60 381,-58 381,-42 433,-42 435,-44 435,-60"/>
<polyline fill="none" stroke="black" points="433,-58 381,-58 "/>
<polyline fill="none" stroke="black" points="433,-58 433,-42 "/>
<polyline fill="none" stroke="black" points="433,-58 435,-60 "/>
<text text-anchor="start" x="389.5" y="-48.8" font-family="Helvetica,sans-Serif" font-size="9.00">services</text>
</a>
</g>
</g>
<!-- src/application/usecases&#45;&gt;src/domain/services -->
<g id="edge6" class="edge">
<title>src/application/usecases&#45;&gt;src/domain/services</title>
<path fill="none" stroke="#000000" stroke-width="2" stroke-opacity="0.200000" d="M262.05,-71.96C269.22,-62.92 281.62,-49.58 296,-44 321.28,-34.19 352.23,-37.25 375.02,-42.01"/>
<polygon fill="#000000" fill-opacity="0.200000" stroke="#000000" stroke-width="2" stroke-opacity="0.200000" points="374.62,-44.07 380.93,-43.32 375.53,-39.97 374.62,-44.07"/>
</g>
<!-- src/domain/repositories -->
<g id="node7" class="node">
<title>src/domain/repositories</title>
<g id="a_node7"><a xlink:href="src/domain/repositories" xlink:title="repositories">
<polygon fill="#ffffcc" stroke="black" points="442,-120 376,-120 374,-118 374,-102 440,-102 442,-104 442,-120"/>
<polyline fill="none" stroke="black" points="440,-118 374,-118 "/>
<polyline fill="none" stroke="black" points="440,-118 440,-102 "/>
<polyline fill="none" stroke="black" points="440,-118 442,-120 "/>
<text text-anchor="start" x="382" y="-108.8" font-family="Helvetica,sans-Serif" font-size="9.00">repositories</text>
</a>
</g>
</g>
<!-- src/application/usecases&#45;&gt;src/domain/repositories -->
<g id="edge7" class="edge">
<title>src/application/usecases&#45;&gt;src/domain/repositories</title>
<path fill="none" stroke="#000000" stroke-opacity="0.200000" d="M271.92,-71.87C293.86,-61.04 332.9,-46.72 358,-66 368.94,-74.41 356.69,-85.81 366,-96 366.84,-96.92 367.75,-97.79 368.7,-98.6"/>
<polygon fill="none" stroke="#000000" stroke-opacity="0.200000" points="367.73,-100.49 373.85,-102.24 370.16,-97.06 367.73,-100.49"/>
</g>
<!-- src/application/ports&#45;&gt;src/domain/entities -->
<g id="edge2" class="edge">
<title>src/application/ports&#45;&gt;src/domain/entities</title>
<path fill="none" stroke="#000000" stroke-opacity="0.200000" d="M350.26,-81C358.06,-81 366.69,-81 374.81,-81"/>
<polygon fill="none" stroke="#000000" stroke-opacity="0.200000" points="374.91,-83.1 380.91,-81 374.91,-78.9 374.91,-83.1"/>
</g>
<!-- src/application/services -->
<g id="node5" class="node">
<title>src/application/services</title>
<g id="a_node5"><a xlink:href="src/application/services" xlink:title="services">
<polygon fill="#ffffcc" stroke="black" points="192,-60 140,-60 138,-58 138,-42 190,-42 192,-44 192,-60"/>
<polyline fill="none" stroke="black" points="190,-58 138,-58 "/>
<polyline fill="none" stroke="black" points="190,-58 190,-42 "/>
<polyline fill="none" stroke="black" points="190,-58 192,-60 "/>
<text text-anchor="start" x="146.5" y="-48.8" font-family="Helvetica,sans-Serif" font-size="9.00">services</text>
</a>
</g>
</g>
<!-- src/application/services&#45;&gt;src/domain/entities -->
<g id="edge3" class="edge">
<title>src/application/services&#45;&gt;src/domain/entities</title>
<path fill="none" stroke="#000000" stroke-opacity="0.200000" d="M189.19,-41.95C228.01,-28.45 306.91,-8.22 358,-44 366.52,-49.97 358.65,-58.64 366,-66 368.67,-68.68 371.86,-70.88 375.26,-72.69"/>
<polygon fill="none" stroke="#000000" stroke-opacity="0.200000" points="374.4,-74.61 380.73,-75.23 376.17,-70.8 374.4,-74.61"/>
</g>
<!-- src/infrastructure/adapters -->
<g id="node8" class="node">
<title>src/infrastructure/adapters</title>
<g id="a_node8"><a xlink:href="src/infrastructure/adapters" xlink:title="adapters">
<polygon fill="#ffffcc" stroke="black" points="193,-210 139,-210 137,-208 137,-192 191,-192 193,-194 193,-210"/>
<polyline fill="none" stroke="black" points="191,-208 137,-208 "/>
<polyline fill="none" stroke="black" points="191,-208 191,-192 "/>
<polyline fill="none" stroke="black" points="191,-208 193,-210 "/>
<text text-anchor="start" x="145" y="-198.8" font-family="Helvetica,sans-Serif" font-size="9.00">adapters</text>
</a>
</g>
</g>
<!-- src/infrastructure/adapters&#45;&gt;src/application/ports -->
<g id="edge8" class="edge">
<title>src/infrastructure/adapters&#45;&gt;src/application/ports</title>
<path fill="none" stroke="#000000" stroke-opacity="0.200000" d="M193.01,-195.62C199.12,-193.42 205.21,-190.33 210,-186 222.68,-174.53 214.91,-164.02 226,-151 245.75,-127.83 258.53,-131.12 283,-113 291.01,-107.07 299.6,-100.09 306.67,-94.17"/>
<polygon fill="none" stroke="#000000" stroke-opacity="0.200000" points="308.07,-95.74 311.3,-90.26 305.36,-92.52 308.07,-95.74"/>
</g>
<!-- src/infrastructure/adapters&#45;&gt;src/domain/entities -->
<g id="edge9" class="edge">
<title>src/infrastructure/adapters&#45;&gt;src/domain/entities</title>
<path fill="none" stroke="#000000" stroke-opacity="0.200000" d="M193.04,-191.93C198.65,-190 204.53,-187.96 210,-186 217.15,-183.44 218.85,-182.56 226,-180 240.59,-174.78 347.76,-146.63 358,-135 369.7,-121.72 354.45,-109.4 366,-96 368.53,-93.06 371.69,-90.7 375.12,-88.8"/>
<polygon fill="none" stroke="#000000" stroke-opacity="0.200000" points="376.16,-90.63 380.7,-86.18 374.37,-86.83 376.16,-90.63"/>
</g>
<!-- src/infrastructure/adapters&#45;&gt;src/domain/repositories -->
<g id="edge10" class="edge">
<title>src/infrastructure/adapters&#45;&gt;src/domain/repositories</title>
<path fill="none" stroke="#000000" stroke-opacity="0.200000" d="M193.28,-198.98C231.95,-195.18 303.98,-184.57 358,-156 372.74,-148.2 386.44,-134.89 395.58,-124.76"/>
<polygon fill="none" stroke="#000000" stroke-opacity="0.200000" points="397.31,-125.97 399.69,-120.08 394.15,-123.2 397.31,-125.97"/>
</g>
<!-- src/infrastructure/di -->
<g id="node9" class="node">
<title>src/infrastructure/di</title>
<g id="a_node9"><a xlink:href="src/infrastructure/di" xlink:title="di">
<polygon fill="#ffffcc" stroke="black" points="192,-150 140,-150 138,-148 138,-132 190,-132 192,-134 192,-150"/>
<polyline fill="none" stroke="black" points="190,-148 138,-148 "/>
<polyline fill="none" stroke="black" points="190,-148 190,-132 "/>
<polyline fill="none" stroke="black" points="190,-148 192,-150 "/>
<text text-anchor="start" x="160.5" y="-138.8" font-family="Helvetica,sans-Serif" font-size="9.00">di</text>
</a>
</g>
</g>
<!-- src/infrastructure/di&#45;&gt;src/application/usecases -->
<g id="edge11" class="edge">
<title>src/infrastructure/di&#45;&gt;src/application/usecases</title>
<path fill="none" stroke="#000000" stroke-width="2" stroke-opacity="0.200000" d="M186.76,-131.97C194.31,-128.33 202.77,-123.86 210,-119 217.85,-113.73 218.88,-111.22 226,-105 230.05,-101.46 234.43,-97.64 238.48,-94.1"/>
<polygon fill="#000000" fill-opacity="0.200000" stroke="#000000" stroke-width="2" stroke-opacity="0.200000" points="239.91,-95.64 243.05,-90.11 237.15,-92.48 239.91,-95.64"/>
</g>
<!-- src/infrastructure/services -->
<g id="node10" class="node">
<title>src/infrastructure/services</title>
<g id="a_node10"><a xlink:href="src/infrastructure/services" xlink:title="services">
<polygon fill="#ffffcc" stroke="black" points="192,-180 140,-180 138,-178 138,-162 190,-162 192,-164 192,-180"/>
<polyline fill="none" stroke="black" points="190,-178 138,-178 "/>
<polyline fill="none" stroke="black" points="190,-178 190,-162 "/>
<polyline fill="none" stroke="black" points="190,-178 192,-180 "/>
<text text-anchor="start" x="146.5" y="-168.8" font-family="Helvetica,sans-Serif" font-size="9.00">services</text>
</a>
</g>
</g>
<!-- src/infrastructure/services&#45;&gt;src/application/ports -->
<g id="edge12" class="edge">
<title>src/infrastructure/services&#45;&gt;src/application/ports</title>
<path fill="none" stroke="#000000" stroke-opacity="0.200000" d="M192.05,-165.91C198.47,-163.69 204.95,-160.52 210,-156 222.45,-144.87 213.98,-133.59 226,-122 231.12,-117.06 266.12,-102.74 292.39,-92.41"/>
<polygon fill="none" stroke="#000000" stroke-opacity="0.200000" points="293.36,-94.29 298.18,-90.15 291.83,-90.38 293.36,-94.29"/>
</g>
<!-- src/infrastructure/services&#45;&gt;src/domain/entities -->
<g id="edge13" class="edge">
<title>src/infrastructure/services&#45;&gt;src/domain/entities</title>
<path fill="none" stroke="#000000" stroke-opacity="0.200000" d="M192.19,-162.03C205.18,-157.63 219.46,-152.88 226,-151 284.02,-134.33 313.3,-159.57 358,-119 366.01,-111.73 358.41,-103.71 366,-96 368.65,-93.31 371.83,-91.09 375.22,-89.27"/>
<polygon fill="none" stroke="#000000" stroke-opacity="0.200000" points="376.13,-91.16 380.69,-86.73 374.36,-87.36 376.13,-91.16"/>
</g>
<!-- src/infrastructure/services&#45;&gt;src/domain/repositories -->
<g id="edge14" class="edge">
<title>src/infrastructure/services&#45;&gt;src/domain/repositories</title>
<path fill="none" stroke="#000000" stroke-opacity="0.200000" d="M192.08,-171C229.89,-170.2 301.58,-165.64 358,-144 370.28,-139.29 382.56,-131.02 391.75,-123.93"/>
<polygon fill="none" stroke="#000000" stroke-opacity="0.200000" points="393.12,-125.52 396.52,-120.15 390.51,-122.23 393.12,-125.52"/>
</g>
<!-- src/presentation/components -->
<g id="node11" class="node">
<title>src/presentation/components</title>
<g id="a_node11"><a xlink:href="src/presentation/components" xlink:title="components">
<polygon fill="#ffffcc" stroke="black" points="97,-101 26,-101 24,-99 24,-83 95,-83 97,-85 97,-101"/>
<polyline fill="none" stroke="black" points="95,-99 24,-99 "/>
<polyline fill="none" stroke="black" points="95,-99 95,-83 "/>
<polyline fill="none" stroke="black" points="95,-99 97,-101 "/>
<text text-anchor="start" x="32" y="-89.8" font-family="Helvetica,sans-Serif" font-size="9.00">components</text>
</a>
</g>
</g>
<!-- src/presentation/components&#45;&gt;src/application/usecases -->
<g id="edge15" class="edge">
<title>src/presentation/components&#45;&gt;src/application/usecases</title>
<path fill="none" stroke="#000000" stroke-opacity="0.200000" d="M97.17,-96.78C127.42,-99.92 171.85,-102.39 210,-96 215.21,-95.13 220.63,-93.7 225.81,-92.07"/>
<polygon fill="none" stroke="#000000" stroke-opacity="0.200000" points="226.72,-93.98 231.74,-90.09 225.38,-90 226.72,-93.98"/>
</g>
<!-- src/presentation/stores -->
<g id="node12" class="node">
<title>src/presentation/stores</title>
<g id="a_node12"><a xlink:href="src/presentation/stores" xlink:title="stores">
<polygon fill="#ffffcc" stroke="black" points="87.5,-71 35.5,-71 33.5,-69 33.5,-53 85.5,-53 87.5,-55 87.5,-71"/>
<polyline fill="none" stroke="black" points="85.5,-69 33.5,-69 "/>
<polyline fill="none" stroke="black" points="85.5,-69 85.5,-53 "/>
<polyline fill="none" stroke="black" points="85.5,-69 87.5,-71 "/>
<text text-anchor="start" x="46.5" y="-59.8" font-family="Helvetica,sans-Serif" font-size="9.00">stores</text>
</a>
</g>
</g>
<!-- src/presentation/stores&#45;&gt;src/application/services -->
<g id="edge16" class="edge">
<title>src/presentation/stores&#45;&gt;src/application/services</title>
<path fill="none" stroke="#000000" stroke-width="2" stroke-opacity="0.200000" d="M87.63,-59.2C101,-57.76 117.41,-56 131.58,-54.48"/>
<polygon fill="#000000" fill-opacity="0.200000" stroke="#000000" stroke-width="2" stroke-opacity="0.200000" points="132.18,-56.53 137.92,-53.8 131.73,-52.35 132.18,-56.53"/>
</g>
</g>
</svg>
