<?xml version="1.0" encoding="UTF-8" standalone="no"?>
<!DOCTYPE svg PUBLIC "-//W3C//DTD SVG 1.1//EN"
 "http://www.w3.org/Graphics/SVG/1.1/DTD/svg11.dtd">
<!-- Generated by graphviz version 9.0.0 (20230911.1827)
 -->
<!-- Title: dependency&#45;cruiser output Pages: 1 -->
<svg width="435pt" height="314pt"
 viewBox="0.00 0.00 434.75 313.66" xmlns="http://www.w3.org/2000/svg" xmlns:xlink="http://www.w3.org/1999/xlink">
<g id="graph0" class="graph" transform="scale(1 1) rotate(0) translate(4 309.66)">
<title>dependency&#45;cruiser output</title>
<polygon fill="white" stroke="none" points="-4,4 -4,-309.66 430.75,-309.66 430.75,4 -4,4"/>
<g id="clust1" class="cluster">
<title>cluster_src</title>
<path fill="#ffffff" stroke="black" stroke-width="2" d="M20,-11.66C20,-11.66 406.75,-11.66 406.75,-11.66 412.75,-11.66 418.75,-17.66 418.75,-23.66 418.75,-23.66 418.75,-285.66 418.75,-285.66 418.75,-291.66 412.75,-297.66 406.75,-297.66 406.75,-297.66 20,-297.66 20,-297.66 14,-297.66 8,-291.66 8,-285.66 8,-285.66 8,-23.66 8,-23.66 8,-17.66 14,-11.66 20,-11.66"/>
<text text-anchor="middle" x="213.38" y="-285.11" font-family="Helvetica,sans-Serif" font-weight="bold" font-size="9.00">src</text>
</g>
<g id="clust2" class="cluster">
<title>cluster_src/application</title>
<path fill="#ffffff" stroke="black" stroke-width="2" d="M136.25,-31.66C136.25,-31.66 304.75,-31.66 304.75,-31.66 310.75,-31.66 316.75,-37.66 316.75,-43.66 316.75,-43.66 316.75,-171.66 316.75,-171.66 316.75,-177.66 310.75,-183.66 304.75,-183.66 304.75,-183.66 136.25,-183.66 136.25,-183.66 130.25,-183.66 124.25,-177.66 124.25,-171.66 124.25,-171.66 124.25,-43.66 124.25,-43.66 124.25,-37.66 130.25,-31.66 136.25,-31.66"/>
<text text-anchor="middle" x="220.5" y="-171.11" font-family="Helvetica,sans-Serif" font-weight="bold" font-size="9.00">application</text>
</g>
<g id="clust3" class="cluster">
<title>cluster_src/application/services</title>
<path fill="#ffffff" stroke="black" stroke-width="2" d="M206.25,-39.66C206.25,-39.66 296.75,-39.66 296.75,-39.66 302.75,-39.66 308.75,-45.66 308.75,-51.66 308.75,-51.66 308.75,-144.66 308.75,-144.66 308.75,-150.66 302.75,-156.66 296.75,-156.66 296.75,-156.66 206.25,-156.66 206.25,-156.66 200.25,-156.66 194.25,-150.66 194.25,-144.66 194.25,-144.66 194.25,-51.66 194.25,-51.66 194.25,-45.66 200.25,-39.66 206.25,-39.66"/>
<text text-anchor="middle" x="251.5" y="-144.11" font-family="Helvetica,sans-Serif" font-weight="bold" font-size="9.00">services</text>
</g>
<g id="clust4" class="cluster">
<title>cluster_src/domain</title>
<path fill="#ffffff" stroke="black" stroke-width="2" d="M336.75,-19.66C336.75,-19.66 398.75,-19.66 398.75,-19.66 404.75,-19.66 410.75,-25.66 410.75,-31.66 410.75,-31.66 410.75,-97.66 410.75,-97.66 410.75,-103.66 404.75,-109.66 398.75,-109.66 398.75,-109.66 336.75,-109.66 336.75,-109.66 330.75,-109.66 324.75,-103.66 324.75,-97.66 324.75,-97.66 324.75,-31.66 324.75,-31.66 324.75,-25.66 330.75,-19.66 336.75,-19.66"/>
<text text-anchor="middle" x="367.75" y="-97.11" font-family="Helvetica,sans-Serif" font-weight="bold" font-size="9.00">domain</text>
</g>
<g id="clust5" class="cluster">
<title>cluster_src/domain/entities</title>
<path fill="#ffffff" stroke="black" stroke-width="2" d="M344.75,-27.66C344.75,-27.66 390.75,-27.66 390.75,-27.66 396.75,-27.66 402.75,-33.66 402.75,-39.66 402.75,-39.66 402.75,-70.66 402.75,-70.66 402.75,-76.66 396.75,-82.66 390.75,-82.66 390.75,-82.66 344.75,-82.66 344.75,-82.66 338.75,-82.66 332.75,-76.66 332.75,-70.66 332.75,-70.66 332.75,-39.66 332.75,-39.66 332.75,-33.66 338.75,-27.66 344.75,-27.66"/>
<text text-anchor="middle" x="367.75" y="-70.11" font-family="Helvetica,sans-Serif" font-weight="bold" font-size="9.00">entities</text>
</g>
<g id="clust9" class="cluster">
<title>cluster_src/stores</title>
<path fill="#ffffff" stroke="black" stroke-width="2" d="M28,-85.66C28,-85.66 104.25,-85.66 104.25,-85.66 110.25,-85.66 116.25,-91.66 116.25,-97.66 116.25,-97.66 116.25,-159.66 116.25,-159.66 116.25,-165.66 110.25,-171.66 104.25,-171.66 104.25,-171.66 28,-171.66 28,-171.66 22,-171.66 16,-165.66 16,-159.66 16,-159.66 16,-97.66 16,-97.66 16,-91.66 22,-85.66 28,-85.66"/>
<text text-anchor="middle" x="66.12" y="-159.11" font-family="Helvetica,sans-Serif" font-weight="bold" font-size="9.00">stores</text>
</g>
<g id="clust6" class="cluster">
<title>cluster_src/infrastructure</title>
<path fill="#ffffff" stroke="black" stroke-width="2" d="M336.75,-117.66C336.75,-117.66 398.75,-117.66 398.75,-117.66 404.75,-117.66 410.75,-123.66 410.75,-129.66 410.75,-129.66 410.75,-258.66 410.75,-258.66 410.75,-264.66 404.75,-270.66 398.75,-270.66 398.75,-270.66 336.75,-270.66 336.75,-270.66 330.75,-270.66 324.75,-264.66 324.75,-258.66 324.75,-258.66 324.75,-129.66 324.75,-129.66 324.75,-123.66 330.75,-117.66 336.75,-117.66"/>
<text text-anchor="middle" x="367.75" y="-258.11" font-family="Helvetica,sans-Serif" font-weight="bold" font-size="9.00">infrastructure</text>
</g>
<g id="clust7" class="cluster">
<title>cluster_src/infrastructure/services</title>
<path fill="#ffffff" stroke="black" stroke-width="2" d="M344.75,-125.66C344.75,-125.66 390.75,-125.66 390.75,-125.66 396.75,-125.66 402.75,-131.66 402.75,-137.66 402.75,-137.66 402.75,-168.66 402.75,-168.66 402.75,-174.66 396.75,-180.66 390.75,-180.66 390.75,-180.66 344.75,-180.66 344.75,-180.66 338.75,-180.66 332.75,-174.66 332.75,-168.66 332.75,-168.66 332.75,-137.66 332.75,-137.66 332.75,-131.66 338.75,-125.66 344.75,-125.66"/>
<text text-anchor="middle" x="367.75" y="-168.11" font-family="Helvetica,sans-Serif" font-weight="bold" font-size="9.00">services</text>
</g>
<g id="clust8" class="cluster">
<title>cluster_src/infrastructure/video</title>
<path fill="#ffffff" stroke="black" stroke-width="2" d="M344.75,-188.66C344.75,-188.66 390.75,-188.66 390.75,-188.66 396.75,-188.66 402.75,-194.66 402.75,-200.66 402.75,-200.66 402.75,-231.66 402.75,-231.66 402.75,-237.66 396.75,-243.66 390.75,-243.66 390.75,-243.66 344.75,-243.66 344.75,-243.66 338.75,-243.66 332.75,-237.66 332.75,-231.66 332.75,-231.66 332.75,-200.66 332.75,-200.66 332.75,-194.66 338.75,-188.66 344.75,-188.66"/>
<text text-anchor="middle" x="367.75" y="-231.11" font-family="Helvetica,sans-Serif" font-weight="bold" font-size="9.00">video</text>
</g>
<!-- src/application/index.ts -->
<g id="node1" class="node">
<title>src/application/index.ts</title>
<g id="a_node1"><a xlink:href="src/application/index.ts" xlink:title="index.ts">
<path fill="#ddfeff" stroke="black" d="M179.83,-113.29C179.83,-113.29 138.67,-113.29 138.67,-113.29 135.46,-113.29 132.25,-110.08 132.25,-106.87 132.25,-106.87 132.25,-100.46 132.25,-100.46 132.25,-97.25 135.46,-94.04 138.67,-94.04 138.67,-94.04 179.83,-94.04 179.83,-94.04 183.04,-94.04 186.25,-97.25 186.25,-100.46 186.25,-100.46 186.25,-106.87 186.25,-106.87 186.25,-110.08 183.04,-113.29 179.83,-113.29"/>
<text text-anchor="start" x="143.5" y="-100.74" font-family="Helvetica,sans-Serif" font-size="9.00">index.ts</text>
</a>
</g>
</g>
<!-- src/application/services/FileParserService.ts -->
<g id="node2" class="node">
<title>src/application/services/FileParserService.ts</title>
<g id="a_node2"><a xlink:href="src/application/services/FileParserService.ts" xlink:title="FileParserService.ts">
<path fill="#ddfeff" stroke="black" d="M294.33,-129.29C294.33,-129.29 208.67,-129.29 208.67,-129.29 205.46,-129.29 202.25,-126.08 202.25,-122.87 202.25,-122.87 202.25,-116.46 202.25,-116.46 202.25,-113.25 205.46,-110.04 208.67,-110.04 208.67,-110.04 294.33,-110.04 294.33,-110.04 297.54,-110.04 300.75,-113.25 300.75,-116.46 300.75,-116.46 300.75,-122.87 300.75,-122.87 300.75,-126.08 297.54,-129.29 294.33,-129.29"/>
<text text-anchor="start" x="210.25" y="-116.74" font-family="Helvetica,sans-Serif" font-size="9.00">FileParserService.ts</text>
</a>
</g>
</g>
<!-- src/application/index.ts&#45;&gt;src/application/services/FileParserService.ts -->
<g id="edge1" class="edge">
<title>src/application/index.ts&#45;&gt;src/application/services/FileParserService.ts</title>
<path fill="none" stroke="#000000" stroke-width="2" stroke-opacity="0.200000" d="M186.35,-108.29C191.25,-109.16 196.51,-110.09 201.83,-111.04"/>
<polygon fill="#000000" fill-opacity="0.200000" stroke="#000000" stroke-width="2" stroke-opacity="0.200000" points="204.64,-109.64 208.54,-117.74 200.44,-113.84 204.64,-109.64"/>
</g>
<!-- src/application/services/FiltersService.ts -->
<g id="node3" class="node">
<title>src/application/services/FiltersService.ts</title>
<g id="a_node3"><a xlink:href="src/application/services/FiltersService.ts" xlink:title="FiltersService.ts">
<path fill="#ddfeff" stroke="black" d="M285.71,-98.29C285.71,-98.29 217.29,-98.29 217.29,-98.29 214.08,-98.29 210.88,-95.08 210.88,-91.87 210.88,-91.87 210.88,-85.46 210.88,-85.46 210.88,-82.25 214.08,-79.04 217.29,-79.04 217.29,-79.04 285.71,-79.04 285.71,-79.04 288.92,-79.04 292.12,-82.25 292.12,-85.46 292.12,-85.46 292.12,-91.87 292.12,-91.87 292.12,-95.08 288.92,-98.29 285.71,-98.29"/>
<text text-anchor="start" x="218.88" y="-85.74" font-family="Helvetica,sans-Serif" font-size="9.00">FiltersService.ts</text>
</a>
</g>
</g>
<!-- src/application/index.ts&#45;&gt;src/application/services/FiltersService.ts -->
<g id="edge2" class="edge">
<title>src/application/index.ts&#45;&gt;src/application/services/FiltersService.ts</title>
<path fill="none" stroke="#000000" stroke-width="2" stroke-opacity="0.200000" d="M186.35,-99.33C191.34,-98.5 196.71,-97.6 202.14,-96.7"/>
<polygon fill="#000000" fill-opacity="0.200000" stroke="#000000" stroke-width="2" stroke-opacity="0.200000" points="202.12,-98.83 207.69,-95.78 201.43,-94.69 202.12,-98.83"/>
</g>
<!-- src/application/services/Hotkeys.ts -->
<g id="node4" class="node">
<title>src/application/services/Hotkeys.ts</title>
<g id="a_node4"><a xlink:href="src/application/services/Hotkeys.ts" xlink:title="Hotkeys.ts">
<path fill="#ddfeff" stroke="black" d="M274.46,-67.29C274.46,-67.29 228.54,-67.29 228.54,-67.29 225.33,-67.29 222.12,-64.08 222.12,-60.87 222.12,-60.87 222.12,-54.46 222.12,-54.46 222.12,-51.25 225.33,-48.04 228.54,-48.04 228.54,-48.04 274.46,-48.04 274.46,-48.04 277.67,-48.04 280.88,-51.25 280.88,-54.46 280.88,-54.46 280.88,-60.87 280.88,-60.87 280.88,-64.08 277.67,-67.29 274.46,-67.29"/>
<text text-anchor="start" x="230.12" y="-54.74" font-family="Helvetica,sans-Serif" font-size="9.00">Hotkeys.ts</text>
</a>
</g>
</g>
<!-- src/application/index.ts&#45;&gt;src/application/services/Hotkeys.ts -->
<g id="edge3" class="edge">
<title>src/application/index.ts&#45;&gt;src/application/services/Hotkeys.ts</title>
<path fill="none" stroke="#000000" stroke-width="2" stroke-opacity="0.200000" d="M168.82,-93.64C175.19,-86.79 184.44,-78.03 221.74,-62.54"/>
<polygon fill="#000000" fill-opacity="0.200000" stroke="#000000" stroke-width="2" stroke-opacity="0.200000" points="224.55,-61.15 228.45,-69.25 220.35,-65.35 224.55,-61.15"/>
</g>
<!-- src/domain/entities/index.ts -->
<g id="node5" class="node">
<title>src/domain/entities/index.ts</title>
<g id="a_node5"><a xlink:href="src/domain/entities/index.ts" xlink:title="index.ts">
<path fill="#ddfeff" stroke="black" d="M388.33,-55.29C388.33,-55.29 347.17,-55.29 347.17,-55.29 343.96,-55.29 340.75,-52.08 340.75,-48.87 340.75,-48.87 340.75,-42.46 340.75,-42.46 340.75,-39.25 343.96,-36.04 347.17,-36.04 347.17,-36.04 388.33,-36.04 388.33,-36.04 391.54,-36.04 394.75,-39.25 394.75,-42.46 394.75,-42.46 394.75,-48.87 394.75,-48.87 394.75,-52.08 391.54,-55.29 388.33,-55.29"/>
<text text-anchor="start" x="352" y="-42.74" font-family="Helvetica,sans-Serif" font-size="9.00">index.ts</text>
</a>
</g>
</g>
<!-- src/application/services/FileParserService.ts&#45;&gt;src/domain/entities/index.ts -->
<g id="edge4" class="edge">
<title>src/application/services/FileParserService.ts&#45;&gt;src/domain/entities/index.ts</title>
<path fill="none" stroke="#000000" stroke-opacity="0.200000" d="M301.2,-111.84C306.65,-109.95 311.96,-107.59 316.75,-104.66 334.08,-94.07 348.38,-75.4 357.19,-61.9"/>
<polygon fill="none" stroke="#000000" stroke-opacity="0.200000" points="358.84,-63.22 360.26,-57.02 355.28,-60.98 358.84,-63.22"/>
</g>
<!-- src/infrastructure/services/index.ts -->
<g id="node6" class="node">
<title>src/infrastructure/services/index.ts</title>
<g id="a_node6"><a xlink:href="src/infrastructure/services/index.ts" xlink:title="index.ts">
<path fill="#ddfeff" stroke="black" d="M388.33,-153.29C388.33,-153.29 347.17,-153.29 347.17,-153.29 343.96,-153.29 340.75,-150.08 340.75,-146.87 340.75,-146.87 340.75,-140.46 340.75,-140.46 340.75,-137.25 343.96,-134.04 347.17,-134.04 347.17,-134.04 388.33,-134.04 388.33,-134.04 391.54,-134.04 394.75,-137.25 394.75,-140.46 394.75,-140.46 394.75,-146.87 394.75,-146.87 394.75,-150.08 391.54,-153.29 388.33,-153.29"/>
<text text-anchor="start" x="352" y="-140.74" font-family="Helvetica,sans-Serif" font-size="9.00">index.ts</text>
</a>
</g>
</g>
<!-- src/application/services/FileParserService.ts&#45;&gt;src/infrastructure/services/index.ts -->
<g id="edge5" class="edge">
<title>src/application/services/FileParserService.ts&#45;&gt;src/infrastructure/services/index.ts</title>
<path fill="none" stroke="#000000" stroke-width="2" stroke-opacity="0.200000" d="M300.62,-129.77C311.08,-131.97 321.95,-134.25 331.79,-136.32"/>
<polygon fill="#000000" fill-opacity="0.200000" stroke="#000000" stroke-width="2" stroke-opacity="0.200000" points="331.22,-138.35 337.52,-137.52 332.08,-134.24 331.22,-138.35"/>
</g>
<!-- src/infrastructure/video/index.ts -->
<g id="node7" class="node">
<title>src/infrastructure/video/index.ts</title>
<g id="a_node7"><a xlink:href="src/infrastructure/video/index.ts" xlink:title="index.ts">
<path fill="#ddfeff" stroke="black" d="M388.33,-216.29C388.33,-216.29 347.17,-216.29 347.17,-216.29 343.96,-216.29 340.75,-213.08 340.75,-209.87 340.75,-209.87 340.75,-203.46 340.75,-203.46 340.75,-200.25 343.96,-197.04 347.17,-197.04 347.17,-197.04 388.33,-197.04 388.33,-197.04 391.54,-197.04 394.75,-200.25 394.75,-203.46 394.75,-203.46 394.75,-209.87 394.75,-209.87 394.75,-213.08 391.54,-216.29 388.33,-216.29"/>
<text text-anchor="start" x="352" y="-203.74" font-family="Helvetica,sans-Serif" font-size="9.00">index.ts</text>
</a>
</g>
</g>
<!-- src/application/services/FileParserService.ts&#45;&gt;src/infrastructure/video/index.ts -->
<g id="edge6" class="edge">
<title>src/application/services/FileParserService.ts&#45;&gt;src/infrastructure/video/index.ts</title>
<path fill="none" stroke="#000000" stroke-width="2" stroke-opacity="0.200000" d="M262.19,-129.54C275.52,-142.81 300.63,-166.7 324.75,-183.66 329.02,-186.67 333.72,-189.58 338.38,-192.27"/>
<polygon fill="#000000" fill-opacity="0.200000" stroke="#000000" stroke-width="2" stroke-opacity="0.200000" points="337.2,-194.01 343.47,-195.08 339.24,-190.34 337.2,-194.01"/>
</g>
<!-- src/application/services/FiltersService.ts&#45;&gt;src/domain/entities/index.ts -->
<g id="edge7" class="edge">
<title>src/application/services/FiltersService.ts&#45;&gt;src/domain/entities/index.ts</title>
<path fill="none" stroke="#000000" stroke-opacity="0.200000" d="M292.44,-81.18C300.61,-79.14 309.06,-76.65 316.75,-73.66 326.51,-69.88 336.69,-64.48 345.3,-59.43"/>
<polygon fill="none" stroke="#000000" stroke-opacity="0.200000" points="346.19,-61.34 350.24,-56.45 344.02,-57.75 346.19,-61.34"/>
</g>
<!-- src/stores/appStateStore.ts -->
<g id="node8" class="node">
<title>src/stores/appStateStore.ts</title>
<g id="a_node8"><a xlink:href="src/stores/appStateStore.ts" xlink:title="appStateStore.ts">
<path fill="#ddfeff" stroke="black" d="M101.83,-113.29C101.83,-113.29 30.42,-113.29 30.42,-113.29 27.21,-113.29 24,-110.08 24,-106.87 24,-106.87 24,-100.46 24,-100.46 24,-97.25 27.21,-94.04 30.42,-94.04 30.42,-94.04 101.83,-94.04 101.83,-94.04 105.04,-94.04 108.25,-97.25 108.25,-100.46 108.25,-100.46 108.25,-106.87 108.25,-106.87 108.25,-110.08 105.04,-113.29 101.83,-113.29"/>
<text text-anchor="start" x="32" y="-100.74" font-family="Helvetica,sans-Serif" font-size="9.00">appStateStore.ts</text>
</a>
</g>
</g>
<!-- src/stores/appStateStore.ts&#45;&gt;src/application/index.ts -->
<g id="edge8" class="edge">
<title>src/stores/appStateStore.ts&#45;&gt;src/application/index.ts</title>
<path fill="none" stroke="#000000" stroke-width="2" stroke-opacity="0.200000" d="M108.69,-103.66C113.49,-103.66 118.36,-103.66 123.07,-103.66"/>
<polygon fill="#000000" fill-opacity="0.200000" stroke="#000000" stroke-width="2" stroke-opacity="0.200000" points="122.85,-105.76 128.85,-103.66 122.85,-101.56 122.85,-105.76"/>
</g>
<!-- src/stores/videosStore.ts -->
<g id="node9" class="node">
<title>src/stores/videosStore.ts</title>
<g id="a_node9"><a xlink:href="src/stores/videosStore.ts" xlink:title="videosStore.ts">
<path fill="#ddfeff" stroke="black" d="M96.96,-144.29C96.96,-144.29 35.29,-144.29 35.29,-144.29 32.08,-144.29 28.88,-141.08 28.88,-137.87 28.88,-137.87 28.88,-131.46 28.88,-131.46 28.88,-128.25 32.08,-125.04 35.29,-125.04 35.29,-125.04 96.96,-125.04 96.96,-125.04 100.17,-125.04 103.38,-128.25 103.38,-131.46 103.38,-131.46 103.38,-137.87 103.38,-137.87 103.38,-141.08 100.17,-144.29 96.96,-144.29"/>
<text text-anchor="start" x="36.88" y="-131.74" font-family="Helvetica,sans-Serif" font-size="9.00">videosStore.ts</text>
</a>
</g>
</g>
<!-- src/stores/videosStore.ts&#45;&gt;src/application/index.ts -->
<g id="edge9" class="edge">
<title>src/stores/videosStore.ts&#45;&gt;src/application/index.ts</title>
<path fill="none" stroke="#000000" stroke-width="2" stroke-opacity="0.200000" d="M101.31,-124.55C106.34,-122.97 111.44,-121.31 116.25,-119.66 118.82,-118.78 121.48,-117.84 124.14,-116.88"/>
<polygon fill="#000000" fill-opacity="0.200000" stroke="#000000" stroke-width="2" stroke-opacity="0.200000" points="124.85,-118.86 129.75,-114.81 123.39,-114.92 124.85,-118.86"/>
</g>
<!-- src/stores/videosStore.ts&#45;&gt;src/domain/entities/index.ts -->
<g id="edge10" class="edge">
<title>src/stores/videosStore.ts&#45;&gt;src/domain/entities/index.ts</title>
<path fill="none" stroke="#000000" stroke-opacity="0.200000" d="M103.5,-129.06C108.39,-126.85 112.88,-123.82 116.25,-119.66 129.03,-103.89 109.28,-42.38 124.25,-28.66 183.85,25.92 289.97,-10.67 339.67,-32.57"/>
<polygon fill="none" stroke="#000000" stroke-opacity="0.200000" points="338.58,-34.39 344.92,-34.93 340.31,-30.56 338.58,-34.39"/>
</g>
<!-- src/stores/videosStore.ts&#45;&gt;src/infrastructure/services/index.ts -->
<g id="edge11" class="edge">
<title>src/stores/videosStore.ts&#45;&gt;src/infrastructure/services/index.ts</title>
<path fill="none" stroke="#000000" stroke-width="2" stroke-opacity="0.200000" d="M74.25,-144.66C83.92,-157.25 102.49,-178.24 124.25,-186.66 198.95,-215.57 294.19,-179.14 339.9,-157.52"/>
<polygon fill="#000000" fill-opacity="0.200000" stroke="#000000" stroke-width="2" stroke-opacity="0.200000" points="340.63,-159.5 345.11,-155 338.8,-155.72 340.63,-159.5"/>
</g>
<!-- src/stores/videosStore.ts&#45;&gt;src/infrastructure/video/index.ts -->
<g id="edge12" class="edge">
<title>src/stores/videosStore.ts&#45;&gt;src/infrastructure/video/index.ts</title>
<path fill="none" stroke="#000000" stroke-width="2" stroke-opacity="0.200000" d="M72.97,-144.71C81.92,-159.02 100.53,-184.74 124.25,-195.66 192.35,-227.04 282.93,-220.12 331.85,-212.97"/>
<polygon fill="#000000" fill-opacity="0.200000" stroke="#000000" stroke-width="2" stroke-opacity="0.200000" points="331.88,-215.09 337.49,-212.11 331.24,-210.94 331.88,-215.09"/>
</g>
</g>
</svg>
