<?xml version="1.0" encoding="UTF-8" standalone="no"?>
<!DOCTYPE svg PUBLIC "-//W3C//DTD SVG 1.1//EN"
 "http://www.w3.org/Graphics/SVG/1.1/DTD/svg11.dtd">
<!-- Generated by graphviz version 9.0.0 (20230911.1827)
 -->
<!-- Title: dependency&#45;cruiser output Pages: 1 -->
<svg width="498pt" height="346pt"
 viewBox="0.00 0.00 498.12 346.22" xmlns="http://www.w3.org/2000/svg" xmlns:xlink="http://www.w3.org/1999/xlink">
<g id="graph0" class="graph" transform="scale(1 1) rotate(0) translate(4 342.22)">
<title>dependency&#45;cruiser output</title>
<polygon fill="white" stroke="none" points="-4,4 -4,-342.22 494.12,-342.22 494.12,4 -4,4"/>
<g id="clust1" class="cluster">
<title>cluster_src</title>
<path fill="#ffffff" stroke="black" stroke-width="2" d="M20,-9.22C20,-9.22 470.12,-9.22 470.12,-9.22 476.12,-9.22 482.12,-15.22 482.12,-21.22 482.12,-21.22 482.12,-318.22 482.12,-318.22 482.12,-324.22 476.12,-330.22 470.12,-330.22 470.12,-330.22 20,-330.22 20,-330.22 14,-330.22 8,-324.22 8,-318.22 8,-318.22 8,-21.22 8,-21.22 8,-15.22 14,-9.22 20,-9.22"/>
<text text-anchor="middle" x="245.06" y="-317.67" font-family="Helvetica,sans-Serif" font-weight="bold" font-size="9.00">src</text>
</g>
<g id="clust2" class="cluster">
<title>cluster_src/application</title>
<path fill="#ffffff" stroke="black" stroke-width="2" d="M119.75,-193.22C119.75,-193.22 372.62,-193.22 372.62,-193.22 378.62,-193.22 384.62,-199.22 384.62,-205.22 384.62,-205.22 384.62,-267.22 384.62,-267.22 384.62,-273.22 378.62,-279.22 372.62,-279.22 372.62,-279.22 119.75,-279.22 119.75,-279.22 113.75,-279.22 107.75,-273.22 107.75,-267.22 107.75,-267.22 107.75,-205.22 107.75,-205.22 107.75,-199.22 113.75,-193.22 119.75,-193.22"/>
<text text-anchor="middle" x="246.19" y="-266.67" font-family="Helvetica,sans-Serif" font-weight="bold" font-size="9.00">application</text>
</g>
<g id="clust3" class="cluster">
<title>cluster_src/domain</title>
<path fill="#ffffff" stroke="black" stroke-width="2" d="M404.62,-193.22C404.62,-193.22 462.12,-193.22 462.12,-193.22 468.12,-193.22 474.12,-199.22 474.12,-205.22 474.12,-205.22 474.12,-267.22 474.12,-267.22 474.12,-273.22 468.12,-279.22 462.12,-279.22 462.12,-279.22 404.62,-279.22 404.62,-279.22 398.62,-279.22 392.62,-273.22 392.62,-267.22 392.62,-267.22 392.62,-205.22 392.62,-205.22 392.62,-199.22 398.62,-193.22 404.62,-193.22"/>
<text text-anchor="middle" x="433.38" y="-266.67" font-family="Helvetica,sans-Serif" font-weight="bold" font-size="9.00">domain</text>
</g>
<g id="clust4" class="cluster">
<title>cluster_src/infrastructure</title>
<path fill="#ffffff" stroke="black" stroke-width="2" d="M256.75,-37.22C256.75,-37.22 372.62,-37.22 372.62,-37.22 378.62,-37.22 384.62,-43.22 384.62,-49.22 384.62,-49.22 384.62,-173.22 384.62,-173.22 384.62,-179.22 378.62,-185.22 372.62,-185.22 372.62,-185.22 256.75,-185.22 256.75,-185.22 250.75,-185.22 244.75,-179.22 244.75,-173.22 244.75,-173.22 244.75,-49.22 244.75,-49.22 244.75,-43.22 250.75,-37.22 256.75,-37.22"/>
<text text-anchor="middle" x="314.69" y="-172.67" font-family="Helvetica,sans-Serif" font-weight="bold" font-size="9.00">infrastructure</text>
</g>
<g id="clust5" class="cluster">
<title>cluster_src/presentation</title>
<path fill="#ffffff" stroke="black" stroke-width="2" d="M28,-217.22C28,-217.22 87.75,-217.22 87.75,-217.22 93.75,-217.22 99.75,-223.22 99.75,-229.22 99.75,-229.22 99.75,-291.22 99.75,-291.22 99.75,-297.22 93.75,-303.22 87.75,-303.22 87.75,-303.22 28,-303.22 28,-303.22 22,-303.22 16,-297.22 16,-291.22 16,-291.22 16,-229.22 16,-229.22 16,-223.22 22,-217.22 28,-217.22"/>
<text text-anchor="middle" x="57.88" y="-290.67" font-family="Helvetica,sans-Serif" font-weight="bold" font-size="9.00">presentation</text>
</g>
<!-- src/application/di -->
<g id="node1" class="node">
<title>src/application/di</title>
<g id="a_node1"><a xlink:href="src/application/di" xlink:title="di">
<polygon fill="#ffffcc" stroke="black" points="236.75,-220.85 184.89,-220.85 182.75,-218.71 182.75,-201.6 234.61,-201.6 236.75,-203.74 236.75,-220.85"/>
<polyline fill="none" stroke="black" points="234.61,-218.71 182.75,-218.71"/>
<polyline fill="none" stroke="black" points="234.61,-218.71 234.61,-201.6"/>
<polyline fill="none" stroke="black" points="234.61,-218.71 236.75,-220.85"/>
<text text-anchor="start" x="206" y="-208.3" font-family="Helvetica,sans-Serif" font-size="9.00">di</text>
</a>
</g>
</g>
<!-- src/application/usecases -->
<g id="node2" class="node">
<title>src/application/usecases</title>
<g id="a_node2"><a xlink:href="src/application/usecases" xlink:title="usecases">
<polygon fill="#ffffcc" stroke="black" points="309.62,-243.85 254.51,-243.85 252.38,-241.71 252.38,-224.6 307.49,-224.6 309.62,-226.74 309.62,-243.85"/>
<polyline fill="none" stroke="black" points="307.49,-241.71 252.38,-241.71"/>
<polyline fill="none" stroke="black" points="307.49,-241.71 307.49,-224.6"/>
<polyline fill="none" stroke="black" points="307.49,-241.71 309.62,-243.85"/>
<text text-anchor="start" x="260.38" y="-231.3" font-family="Helvetica,sans-Serif" font-size="9.00">usecases</text>
</a>
</g>
</g>
<!-- src/application/di&#45;&gt;src/application/usecases -->
<g id="edge1" class="edge">
<title>src/application/di&#45;&gt;src/application/usecases</title>
<path fill="none" stroke="#000000" stroke-width="2" stroke-opacity="0.200000" d="M236.93,-219.92C239.08,-220.63 241.27,-221.36 243.47,-222.09"/>
<polygon fill="#000000" fill-opacity="0.200000" stroke="#000000" stroke-width="2" stroke-opacity="0.200000" points="242.7,-224.05 249.06,-223.95 244.03,-220.06 242.7,-224.05"/>
</g>
<!-- src/infrastructure/adapters -->
<g id="node3" class="node">
<title>src/infrastructure/adapters</title>
<g id="a_node3"><a xlink:href="src/infrastructure/adapters" xlink:title="adapters">
<polygon fill="#ffffcc" stroke="black" points="308,-157.85 256.14,-157.85 254,-155.71 254,-138.6 305.86,-138.6 308,-140.74 308,-157.85"/>
<polyline fill="none" stroke="black" points="305.86,-155.71 254,-155.71"/>
<polyline fill="none" stroke="black" points="305.86,-155.71 305.86,-138.6"/>
<polyline fill="none" stroke="black" points="305.86,-155.71 308,-157.85"/>
<text text-anchor="start" x="262.62" y="-145.3" font-family="Helvetica,sans-Serif" font-size="9.00">adapters</text>
</a>
</g>
</g>
<!-- src/application/di&#45;&gt;src/infrastructure/adapters -->
<g id="edge2" class="edge">
<title>src/application/di&#45;&gt;src/infrastructure/adapters</title>
<path fill="none" stroke="#000000" stroke-width="2" stroke-opacity="0.200000" d="M221.88,-201.1C232.84,-191.12 249.77,-175.73 262.53,-164.11"/>
<polygon fill="#000000" fill-opacity="0.200000" stroke="#000000" stroke-width="2" stroke-opacity="0.200000" points="263.87,-165.74 266.89,-160.15 261.04,-162.63 263.87,-165.74"/>
</g>
<!-- src/infrastructure/database -->
<g id="node4" class="node">
<title>src/infrastructure/database</title>
<g id="a_node4"><a xlink:href="src/infrastructure/database" xlink:title="database">
<polygon fill="#ffffcc" stroke="black" points="308.5,-126.85 255.64,-126.85 253.5,-124.71 253.5,-107.6 306.36,-107.6 308.5,-109.74 308.5,-126.85"/>
<polyline fill="none" stroke="black" points="306.36,-124.71 253.5,-124.71"/>
<polyline fill="none" stroke="black" points="306.36,-124.71 306.36,-107.6"/>
<polyline fill="none" stroke="black" points="306.36,-124.71 308.5,-126.85"/>
<text text-anchor="start" x="261.5" y="-114.3" font-family="Helvetica,sans-Serif" font-size="9.00">database</text>
</a>
</g>
</g>
<!-- src/application/di&#45;&gt;src/infrastructure/database -->
<g id="edge3" class="edge">
<title>src/application/di&#45;&gt;src/infrastructure/database</title>
<path fill="none" stroke="#000000" stroke-width="2" stroke-opacity="0.200000" d="M212.57,-201.13C216.04,-184.64 225.07,-151.82 244.75,-132.22 245.21,-131.77 245.69,-131.32 246.17,-130.89"/>
<polygon fill="#000000" fill-opacity="0.200000" stroke="#000000" stroke-width="2" stroke-opacity="0.200000" points="247.01,-132.87 250.71,-127.71 244.59,-129.43 247.01,-132.87"/>
</g>
<!-- src/infrastructure/repository -->
<g id="node5" class="node">
<title>src/infrastructure/repository</title>
<g id="a_node5"><a xlink:href="src/infrastructure/repository" xlink:title="repository">
<polygon fill="#ffffcc" stroke="black" points="309.25,-95.85 254.89,-95.85 252.75,-93.71 252.75,-76.6 307.11,-76.6 309.25,-78.74 309.25,-95.85"/>
<polyline fill="none" stroke="black" points="307.11,-93.71 252.75,-93.71"/>
<polyline fill="none" stroke="black" points="307.11,-93.71 307.11,-76.6"/>
<polyline fill="none" stroke="black" points="307.11,-93.71 309.25,-95.85"/>
<text text-anchor="start" x="260.75" y="-83.3" font-family="Helvetica,sans-Serif" font-size="9.00">repository</text>
</a>
</g>
</g>
<!-- src/application/di&#45;&gt;src/infrastructure/repository -->
<g id="edge4" class="edge">
<title>src/application/di&#45;&gt;src/infrastructure/repository</title>
<path fill="none" stroke="#000000" stroke-width="2" stroke-opacity="0.200000" d="M211.11,-201.37C212.4,-180.34 218.24,-130.61 244.75,-101.22 245.03,-100.91 245.31,-100.61 245.61,-100.32"/>
<polygon fill="#000000" fill-opacity="0.200000" stroke="#000000" stroke-width="2" stroke-opacity="0.200000" points="246.72,-102.11 250.19,-96.78 244.16,-98.78 246.72,-102.11"/>
</g>
<!-- src/infrastructure/services -->
<g id="node6" class="node">
<title>src/infrastructure/services</title>
<g id="a_node6"><a xlink:href="src/infrastructure/services" xlink:title="services">
<polygon fill="#ffffcc" stroke="black" points="308,-64.85 256.14,-64.85 254,-62.71 254,-45.6 305.86,-45.6 308,-47.74 308,-64.85"/>
<polyline fill="none" stroke="black" points="305.86,-62.71 254,-62.71"/>
<polyline fill="none" stroke="black" points="305.86,-62.71 305.86,-45.6"/>
<polyline fill="none" stroke="black" points="305.86,-62.71 308,-64.85"/>
<text text-anchor="start" x="263.75" y="-52.3" font-family="Helvetica,sans-Serif" font-size="9.00">services</text>
</a>
</g>
</g>
<!-- src/application/di&#45;&gt;src/infrastructure/services -->
<g id="edge5" class="edge">
<title>src/application/di&#45;&gt;src/infrastructure/services</title>
<path fill="none" stroke="#000000" stroke-width="2" stroke-opacity="0.200000" d="M210.29,-201.36C209.66,-176.34 211.39,-109.62 244.75,-70.22 245.37,-69.49 246.04,-68.79 246.74,-68.12"/>
<polygon fill="#000000" fill-opacity="0.200000" stroke="#000000" stroke-width="2" stroke-opacity="0.200000" points="247.76,-69.98 251.38,-64.76 245.29,-66.58 247.76,-69.98"/>
</g>
<!-- src/infrastructure/video -->
<g id="node7" class="node">
<title>src/infrastructure/video</title>
<g id="a_node7"><a xlink:href="src/infrastructure/video" xlink:title="video">
<polygon fill="#ffffcc" stroke="black" points="376.62,-94.85 324.76,-94.85 322.62,-92.71 322.62,-75.6 374.49,-75.6 376.62,-77.74 376.62,-94.85"/>
<polyline fill="none" stroke="black" points="374.49,-92.71 322.62,-92.71"/>
<polyline fill="none" stroke="black" points="374.49,-92.71 374.49,-75.6"/>
<polyline fill="none" stroke="black" points="374.49,-92.71 376.62,-94.85"/>
<text text-anchor="start" x="338.75" y="-82.3" font-family="Helvetica,sans-Serif" font-size="9.00">video</text>
</a>
</g>
</g>
<!-- src/application/di&#45;&gt;src/infrastructure/video -->
<g id="edge6" class="edge">
<title>src/application/di&#45;&gt;src/infrastructure/video</title>
<path fill="none" stroke="#000000" stroke-width="2" stroke-opacity="0.200000" d="M211.12,-201.47C212.61,-168.19 219.35,-60.09 244.75,-39.22 267.03,-20.92 283.46,-27.1 309.62,-39.22 322.34,-45.11 332.43,-57.42 339.15,-67.83"/>
<polygon fill="#000000" fill-opacity="0.200000" stroke="#000000" stroke-width="2" stroke-opacity="0.200000" points="337.18,-68.62 342.07,-72.68 340.78,-66.46 337.18,-68.62"/>
</g>
<!-- src/application/ports -->
<g id="node9" class="node">
<title>src/application/ports</title>
<g id="a_node9"><a xlink:href="src/application/ports" xlink:title="ports">
<polygon fill="#ffffcc" stroke="black" points="376.62,-220.85 324.76,-220.85 322.62,-218.71 322.62,-201.6 374.49,-201.6 376.62,-203.74 376.62,-220.85"/>
<polyline fill="none" stroke="black" points="374.49,-218.71 322.62,-218.71"/>
<polyline fill="none" stroke="black" points="374.49,-218.71 374.49,-201.6"/>
<polyline fill="none" stroke="black" points="374.49,-218.71 376.62,-220.85"/>
<text text-anchor="start" x="339.12" y="-208.3" font-family="Helvetica,sans-Serif" font-size="9.00">ports</text>
</a>
</g>
</g>
<!-- src/application/usecases&#45;&gt;src/application/ports -->
<g id="edge10" class="edge">
<title>src/application/usecases&#45;&gt;src/application/ports</title>
<path fill="none" stroke="#000000" stroke-opacity="0.200000" d="M309.87,-224.6C311.68,-223.98 313.51,-223.35 315.34,-222.71"/>
<polygon fill="none" stroke="#000000" stroke-opacity="0.200000" points="315.94,-224.73 320.93,-220.78 314.57,-220.76 315.94,-224.73"/>
</g>
<!-- src/domain/entities -->
<g id="node10" class="node">
<title>src/domain/entities</title>
<g id="a_node10"><a xlink:href="src/domain/entities" xlink:title="entities">
<polygon fill="#ffffcc" stroke="black" points="460.38,-220.85 408.51,-220.85 406.38,-218.71 406.38,-201.6 458.24,-201.6 460.38,-203.74 460.38,-220.85"/>
<polyline fill="none" stroke="black" points="458.24,-218.71 406.38,-218.71"/>
<polyline fill="none" stroke="black" points="458.24,-218.71 458.24,-201.6"/>
<polyline fill="none" stroke="black" points="458.24,-218.71 460.38,-220.85"/>
<text text-anchor="start" x="418.38" y="-208.3" font-family="Helvetica,sans-Serif" font-size="9.00">entities</text>
</a>
</g>
</g>
<!-- src/application/usecases&#45;&gt;src/domain/entities -->
<g id="edge11" class="edge">
<title>src/application/usecases&#45;&gt;src/domain/entities</title>
<path fill="none" stroke="#000000" stroke-opacity="0.200000" d="M309.69,-234.24C330.49,-233.79 359.58,-232.19 384.62,-227.22 389.47,-226.26 394.49,-224.95 399.39,-223.48"/>
<polygon fill="none" stroke="#000000" stroke-opacity="0.200000" points="399.9,-225.52 404.99,-221.71 398.63,-221.52 399.9,-225.52"/>
</g>
<!-- src/domain/repositories -->
<g id="node12" class="node">
<title>src/domain/repositories</title>
<g id="a_node12"><a xlink:href="src/domain/repositories" xlink:title="repositories">
<polygon fill="#ffffcc" stroke="black" points="466.12,-251.85 402.76,-251.85 400.62,-249.71 400.62,-232.6 463.99,-232.6 466.12,-234.74 466.12,-251.85"/>
<polyline fill="none" stroke="black" points="463.99,-249.71 400.62,-249.71"/>
<polyline fill="none" stroke="black" points="463.99,-249.71 463.99,-232.6"/>
<polyline fill="none" stroke="black" points="463.99,-249.71 466.12,-251.85"/>
<text text-anchor="start" x="408.62" y="-239.3" font-family="Helvetica,sans-Serif" font-size="9.00">repositories</text>
</a>
</g>
</g>
<!-- src/application/usecases&#45;&gt;src/domain/repositories -->
<g id="edge12" class="edge">
<title>src/application/usecases&#45;&gt;src/domain/repositories</title>
<path fill="none" stroke="#000000" stroke-opacity="0.200000" d="M309.95,-237.2C314.2,-237.59 318.52,-237.95 322.62,-238.22 345.84,-239.79 371.85,-240.77 392.73,-241.37"/>
<polygon fill="none" stroke="#000000" stroke-opacity="0.200000" points="392.6,-243.47 398.66,-241.53 392.72,-239.27 392.6,-243.47"/>
</g>
<!-- src/infrastructure/adapters&#45;&gt;src/infrastructure/video -->
<g id="edge16" class="edge">
<title>src/infrastructure/adapters&#45;&gt;src/infrastructure/video</title>
<path fill="none" stroke="#000000" stroke-width="2" stroke-opacity="0.200000" d="M302.8,-138.1C305.19,-136.6 307.53,-134.97 309.62,-133.22 320.31,-124.35 330.16,-112.18 337.29,-102.32"/>
<polygon fill="#000000" fill-opacity="0.200000" stroke="#000000" stroke-width="2" stroke-opacity="0.200000" points="338.94,-103.61 340.65,-97.49 335.5,-101.21 338.94,-103.61"/>
</g>
<!-- src/infrastructure/adapters&#45;&gt;src/application/ports -->
<g id="edge13" class="edge">
<title>src/infrastructure/adapters&#45;&gt;src/application/ports</title>
<path fill="none" stroke="#000000" stroke-opacity="0.200000" d="M291.87,-158.24C300.01,-166.42 311.92,-178.23 322.62,-188.22 325.54,-190.95 328.69,-193.8 331.76,-196.54"/>
<polygon fill="none" stroke="#000000" stroke-opacity="0.200000" points="330.1,-197.87 335.98,-200.27 332.88,-194.73 330.1,-197.87"/>
</g>
<!-- src/infrastructure/adapters&#45;&gt;src/domain/entities -->
<g id="edge14" class="edge">
<title>src/infrastructure/adapters&#45;&gt;src/domain/entities</title>
<path fill="none" stroke="#000000" stroke-opacity="0.200000" d="M308.08,-149.84C329.58,-152.02 360.36,-157.15 384.62,-169.22 397.72,-175.74 410.05,-186.76 418.9,-195.88"/>
<polygon fill="none" stroke="#000000" stroke-opacity="0.200000" points="417.27,-197.21 422.9,-200.15 420.33,-194.33 417.27,-197.21"/>
</g>
<!-- src/infrastructure/adapters&#45;&gt;src/domain/repositories -->
<g id="edge15" class="edge">
<title>src/infrastructure/adapters&#45;&gt;src/domain/repositories</title>
<path fill="none" stroke="#000000" stroke-opacity="0.200000" d="M307.47,-158.31C337.43,-170.22 383.3,-188.64 384.62,-190.22 395.43,-203.12 381.64,-214.48 392.62,-227.22 393.32,-228.03 394.06,-228.79 394.84,-229.51"/>
<polygon fill="none" stroke="#000000" stroke-opacity="0.200000" points="393.2,-230.91 399.27,-232.79 395.7,-227.53 393.2,-230.91"/>
</g>
<!-- src/application/index.ts -->
<g id="node8" class="node">
<title>src/application/index.ts</title>
<g id="a_node8"><a xlink:href="src/application/index.ts" xlink:title="index.ts">
<path fill="#ddfeff" stroke="black" d="M163.33,-220.85C163.33,-220.85 122.17,-220.85 122.17,-220.85 118.96,-220.85 115.75,-217.64 115.75,-214.43 115.75,-214.43 115.75,-208.01 115.75,-208.01 115.75,-204.81 118.96,-201.6 122.17,-201.6 122.17,-201.6 163.33,-201.6 163.33,-201.6 166.54,-201.6 169.75,-204.81 169.75,-208.01 169.75,-208.01 169.75,-214.43 169.75,-214.43 169.75,-217.64 166.54,-220.85 163.33,-220.85"/>
<text text-anchor="start" x="127" y="-208.3" font-family="Helvetica,sans-Serif" font-size="9.00">index.ts</text>
</a>
</g>
</g>
<!-- src/application/index.ts&#45;&gt;src/application/di -->
<g id="edge7" class="edge">
<title>src/application/index.ts&#45;&gt;src/application/di</title>
<path fill="none" stroke="#000000" stroke-width="2" stroke-opacity="0.200000" d="M170.19,-211.22C174.27,-211.22 178.47,-211.22 182.55,-211.22"/>
<polygon fill="#000000" fill-opacity="0.200000" stroke="#000000" stroke-width="2" stroke-opacity="0.200000" points="185.35,-209.83 189.25,-217.93 181.15,-214.03 185.35,-209.83"/>
</g>
<!-- src/application/ports&#45;&gt;src/domain/entities -->
<g id="edge8" class="edge">
<title>src/application/ports&#45;&gt;src/domain/entities</title>
<path fill="none" stroke="#000000" stroke-opacity="0.200000" d="M376.94,-211.22C383.94,-211.22 391.6,-211.22 398.93,-211.22"/>
<polygon fill="none" stroke="#000000" stroke-opacity="0.200000" points="398.59,-213.32 404.59,-211.22 398.59,-209.12 398.59,-213.32"/>
</g>
<!-- src/application/services -->
<g id="node11" class="node">
<title>src/application/services</title>
<g id="a_node11"><a xlink:href="src/application/services" xlink:title="services">
<polygon fill="#ffffcc" stroke="black" points="169.75,-251.85 117.89,-251.85 115.75,-249.71 115.75,-232.6 167.61,-232.6 169.75,-234.74 169.75,-251.85"/>
<polyline fill="none" stroke="black" points="167.61,-249.71 115.75,-249.71"/>
<polyline fill="none" stroke="black" points="167.61,-249.71 167.61,-232.6"/>
<polyline fill="none" stroke="black" points="167.61,-249.71 169.75,-251.85"/>
<text text-anchor="start" x="125.5" y="-239.3" font-family="Helvetica,sans-Serif" font-size="9.00">services</text>
</a>
</g>
</g>
<!-- src/application/services&#45;&gt;src/domain/entities -->
<g id="edge9" class="edge">
<title>src/application/services&#45;&gt;src/domain/entities</title>
<path fill="none" stroke="#000000" stroke-opacity="0.200000" d="M164.41,-232.2C166.37,-230.71 168.2,-229.06 169.75,-227.22 177.5,-218.03 234.88,-31.1 244.75,-24.22 295.89,11.4 337.77,6.87 384.62,-34.22 408.85,-55.47 424.63,-153.85 430.16,-194.05"/>
<polygon fill="none" stroke="#000000" stroke-opacity="0.200000" points="428.05,-194.1 430.93,-199.77 432.22,-193.54 428.05,-194.1"/>
</g>
<!-- src/main.ts -->
<g id="node13" class="node">
<title>src/main.ts</title>
<g id="a_node13"><a xlink:href="src/main.ts" xlink:title="main.ts">
<path fill="#ddfeff" stroke="black" d="M78.46,-208.85C78.46,-208.85 37.29,-208.85 37.29,-208.85 34.08,-208.85 30.88,-205.64 30.88,-202.43 30.88,-202.43 30.88,-196.01 30.88,-196.01 30.88,-192.81 34.08,-189.6 37.29,-189.6 37.29,-189.6 78.46,-189.6 78.46,-189.6 81.67,-189.6 84.88,-192.81 84.88,-196.01 84.88,-196.01 84.88,-202.43 84.88,-202.43 84.88,-205.64 81.67,-208.85 78.46,-208.85"/>
<text text-anchor="start" x="42.5" y="-196.3" font-family="Helvetica,sans-Serif" font-size="9.00">main.ts</text>
</a>
</g>
</g>
<!-- src/main.ts&#45;&gt;src/application/index.ts -->
<g id="edge17" class="edge">
<title>src/main.ts&#45;&gt;src/application/index.ts</title>
<path fill="none" stroke="#000000" stroke-width="2" stroke-opacity="0.200000" d="M85.1,-203.02C91.9,-204 99.34,-205.08 106.52,-206.12"/>
<polygon fill="#000000" fill-opacity="0.200000" stroke="#000000" stroke-width="2" stroke-opacity="0.200000" points="106.18,-208.19 112.42,-206.98 106.78,-204.04 106.18,-208.19"/>
</g>
<!-- src/presentation/components -->
<g id="node14" class="node">
<title>src/presentation/components</title>
<g id="a_node14"><a xlink:href="src/presentation/components" xlink:title="components">
<polygon fill="#ffffcc" stroke="black" points="91.75,-275.85 26.14,-275.85 24,-273.71 24,-256.6 89.61,-256.6 91.75,-258.74 91.75,-275.85"/>
<polyline fill="none" stroke="black" points="89.61,-273.71 24,-273.71"/>
<polyline fill="none" stroke="black" points="89.61,-273.71 89.61,-256.6"/>
<polyline fill="none" stroke="black" points="89.61,-273.71 91.75,-275.85"/>
<text text-anchor="start" x="32" y="-263.3" font-family="Helvetica,sans-Serif" font-size="9.00">components</text>
</a>
</g>
</g>
<!-- src/presentation/components&#45;&gt;src/application/usecases -->
<g id="edge18" class="edge">
<title>src/presentation/components&#45;&gt;src/application/usecases</title>
<path fill="none" stroke="#000000" stroke-opacity="0.200000" d="M92,-265.07C114.1,-263.99 143.77,-261.97 169.75,-258.22 195.18,-254.56 223.5,-248.35 245.06,-243.16"/>
<polygon fill="none" stroke="#000000" stroke-opacity="0.200000" points="245.3,-245.27 250.63,-241.81 244.31,-241.18 245.3,-245.27"/>
</g>
<!-- src/presentation/stores -->
<g id="node15" class="node">
<title>src/presentation/stores</title>
<g id="a_node15"><a xlink:href="src/presentation/stores" xlink:title="stores">
<polygon fill="#ffffcc" stroke="black" points="84.88,-244.85 33.01,-244.85 30.88,-242.71 30.88,-225.6 82.74,-225.6 84.88,-227.74 84.88,-244.85"/>
<polyline fill="none" stroke="black" points="82.74,-242.71 30.88,-242.71"/>
<polyline fill="none" stroke="black" points="82.74,-242.71 82.74,-225.6"/>
<polyline fill="none" stroke="black" points="82.74,-242.71 84.88,-244.85"/>
<text text-anchor="start" x="44.75" y="-232.3" font-family="Helvetica,sans-Serif" font-size="9.00">stores</text>
</a>
</g>
</g>
<!-- src/presentation/stores&#45;&gt;src/application/index.ts -->
<g id="edge20" class="edge">
<title>src/presentation/stores&#45;&gt;src/application/index.ts</title>
<path fill="none" stroke="#000000" stroke-width="2" stroke-opacity="0.200000" d="M85.1,-227.63C92.05,-225.62 99.67,-223.41 107,-221.29"/>
<polygon fill="#000000" fill-opacity="0.200000" stroke="#000000" stroke-width="2" stroke-opacity="0.200000" points="107.33,-223.38 112.51,-219.69 106.16,-219.34 107.33,-223.38"/>
</g>
<!-- src/presentation/stores&#45;&gt;src/domain/entities -->
<g id="edge21" class="edge">
<title>src/presentation/stores&#45;&gt;src/domain/entities</title>
<path fill="none" stroke="#000000" stroke-opacity="0.200000" d="M84.96,-240.53C90.48,-242.73 95.81,-245.84 99.75,-250.22 109.55,-261.13 96.47,-272.86 107.75,-282.22 142.36,-310.94 163.78,-288.22 208.75,-288.22 208.75,-288.22 208.75,-288.22 282,-288.22 327.69,-288.22 351,-313.15 384.62,-282.22 403.13,-265.2 376.9,-245.84 392.62,-226.22 394.6,-223.76 397.02,-221.71 399.69,-219.99"/>
<polygon fill="none" stroke="#000000" stroke-opacity="0.200000" points="400.57,-221.9 404.91,-217.26 398.62,-218.17 400.57,-221.9"/>
</g>
<!-- src/presentation/stores&#45;&gt;src/application/services -->
<g id="edge19" class="edge">
<title>src/presentation/stores&#45;&gt;src/application/services</title>
<path fill="none" stroke="#000000" stroke-width="2" stroke-opacity="0.200000" d="M85.1,-237.44C91.9,-238.01 99.34,-238.64 106.52,-239.25"/>
<polygon fill="#000000" fill-opacity="0.200000" stroke="#000000" stroke-width="2" stroke-opacity="0.200000" points="106.24,-241.33 112.4,-239.74 106.6,-237.15 106.24,-241.33"/>
</g>
</g>
</svg>
