<?xml version="1.0" encoding="UTF-8" standalone="no"?>
<!DOCTYPE svg PUBLIC "-//W3C//DTD SVG 1.1//EN"
 "http://www.w3.org/Graphics/SVG/1.1/DTD/svg11.dtd">
<!-- Generated by graphviz version 9.0.0 (20230911.1827)
 -->
<!-- Title: dependency&#45;cruiser output Pages: 1 -->
<svg width="436pt" height="255pt"
 viewBox="0.00 0.00 435.62 255.00" xmlns="http://www.w3.org/2000/svg" xmlns:xlink="http://www.w3.org/1999/xlink">
<g id="graph0" class="graph" transform="scale(1 1) rotate(0) translate(4 251)">
<title>dependency&#45;cruiser output</title>
<polygon fill="white" stroke="none" points="-4,4 -4,-251 431.62,-251 431.62,4 -4,4"/>
<g id="clust1" class="cluster">
<title>cluster_src</title>
<path fill="#ffffff" stroke="black" stroke-width="2" d="M20,-8C20,-8 407.62,-8 407.62,-8 413.62,-8 419.62,-14 419.62,-20 419.62,-20 419.62,-227 419.62,-227 419.62,-233 413.62,-239 407.62,-239 407.62,-239 20,-239 20,-239 14,-239 8,-233 8,-227 8,-227 8,-20 8,-20 8,-14 14,-8 20,-8"/>
<text text-anchor="middle" x="213.81" y="-226.45" font-family="Helvetica,sans-Serif" font-weight="bold" font-size="9.00">src</text>
</g>
<g id="clust2" class="cluster">
<title>cluster_src/application</title>
<path fill="#ffffff" stroke="black" stroke-width="2" d="M106,-116C106,-116 321.62,-116 321.62,-116 327.62,-116 333.62,-122 333.62,-128 333.62,-128 333.62,-190 333.62,-190 333.62,-196 327.62,-202 321.62,-202 321.62,-202 106,-202 106,-202 100,-202 94,-196 94,-190 94,-190 94,-128 94,-128 94,-122 100,-116 106,-116"/>
<text text-anchor="middle" x="213.81" y="-189.45" font-family="Helvetica,sans-Serif" font-weight="bold" font-size="9.00">application</text>
</g>
<g id="clust4" class="cluster">
<title>cluster_src/infrastructure</title>
<path fill="#ffffff" stroke="black" stroke-width="2" d="M207,-22C207,-22 321.62,-22 321.62,-22 327.62,-22 333.62,-28 333.62,-34 333.62,-34 333.62,-96 333.62,-96 333.62,-102 327.62,-108 321.62,-108 321.62,-108 207,-108 207,-108 201,-108 195,-102 195,-96 195,-96 195,-34 195,-34 195,-28 201,-22 207,-22"/>
<text text-anchor="middle" x="264.31" y="-95.45" font-family="Helvetica,sans-Serif" font-weight="bold" font-size="9.00">infrastructure</text>
</g>
<g id="clust5" class="cluster">
<title>cluster_src/presentation</title>
<path fill="#ffffff" stroke="black" stroke-width="2" d="M28,-148C28,-148 74,-148 74,-148 80,-148 86,-154 86,-160 86,-160 86,-191 86,-191 86,-197 80,-203 74,-203 74,-203 28,-203 28,-203 22,-203 16,-197 16,-191 16,-191 16,-160 16,-160 16,-154 22,-148 28,-148"/>
<text text-anchor="middle" x="51" y="-190.45" font-family="Helvetica,sans-Serif" font-weight="bold" font-size="9.00">presentation</text>
</g>
<g id="clust3" class="cluster">
<title>cluster_src/domain</title>
<path fill="#ffffff" stroke="black" stroke-width="2" d="M353.62,-139C353.62,-139 399.62,-139 399.62,-139 405.62,-139 411.62,-145 411.62,-151 411.62,-151 411.62,-182 411.62,-182 411.62,-188 405.62,-194 399.62,-194 399.62,-194 353.62,-194 353.62,-194 347.62,-194 341.62,-188 341.62,-182 341.62,-182 341.62,-151 341.62,-151 341.62,-145 347.62,-139 353.62,-139"/>
<text text-anchor="middle" x="376.62" y="-181.45" font-family="Helvetica,sans-Serif" font-weight="bold" font-size="9.00">domain</text>
</g>
<!-- src/application/dependencies.ts -->
<g id="node1" class="node">
<title>src/application/dependencies.ts</title>
<g id="a_node1"><a xlink:href="src/application/dependencies.ts" xlink:title="dependencies.ts">
<path fill="#ddfeff" stroke="black" d="M180.58,-152.62C180.58,-152.62 108.42,-152.62 108.42,-152.62 105.21,-152.62 102,-149.42 102,-146.21 102,-146.21 102,-139.79 102,-139.79 102,-136.58 105.21,-133.38 108.42,-133.38 108.42,-133.38 180.58,-133.38 180.58,-133.38 183.79,-133.38 187,-136.58 187,-139.79 187,-139.79 187,-146.21 187,-146.21 187,-149.42 183.79,-152.62 180.58,-152.62"/>
<text text-anchor="start" x="110" y="-140.07" font-family="Helvetica,sans-Serif" font-size="9.00">dependencies.ts</text>
</a>
</g>
</g>
<!-- src/application/usecases -->
<g id="node2" class="node">
<title>src/application/usecases</title>
<g id="a_node2"><a xlink:href="src/application/usecases" xlink:title="usecases">
<polygon fill="#ffffcc" stroke="black" points="258.62,-174.62 203.51,-174.62 201.38,-172.49 201.38,-155.38 256.49,-155.38 258.62,-157.51 258.62,-174.62"/>
<polyline fill="none" stroke="black" points="256.49,-172.49 201.38,-172.49"/>
<polyline fill="none" stroke="black" points="256.49,-172.49 256.49,-155.38"/>
<polyline fill="none" stroke="black" points="256.49,-172.49 258.62,-174.62"/>
<text text-anchor="start" x="209.38" y="-162.07" font-family="Helvetica,sans-Serif" font-size="9.00">usecases</text>
</a>
</g>
</g>
<!-- src/application/dependencies.ts&#45;&gt;src/application/usecases -->
<g id="edge1" class="edge">
<title>src/application/dependencies.ts&#45;&gt;src/application/usecases</title>
<path fill="none" stroke="#000000" stroke-width="2" stroke-opacity="0.200000" d="M183.83,-153.1C186.74,-153.87 189.68,-154.64 192.58,-155.41"/>
<polygon fill="#000000" fill-opacity="0.200000" stroke="#000000" stroke-width="2" stroke-opacity="0.200000" points="191.87,-157.39 198.2,-156.89 192.94,-153.33 191.87,-157.39"/>
</g>
<!-- src/infrastructure/adapters -->
<g id="node3" class="node">
<title>src/infrastructure/adapters</title>
<g id="a_node3"><a xlink:href="src/infrastructure/adapters" xlink:title="adapters">
<polygon fill="#ffffcc" stroke="black" points="257,-80.62 205.14,-80.62 203,-78.49 203,-61.38 254.86,-61.38 257,-63.51 257,-80.62"/>
<polyline fill="none" stroke="black" points="254.86,-78.49 203,-78.49"/>
<polyline fill="none" stroke="black" points="254.86,-78.49 254.86,-61.38"/>
<polyline fill="none" stroke="black" points="254.86,-78.49 257,-80.62"/>
<text text-anchor="start" x="211.62" y="-68.08" font-family="Helvetica,sans-Serif" font-size="9.00">adapters</text>
</a>
</g>
</g>
<!-- src/application/dependencies.ts&#45;&gt;src/infrastructure/adapters -->
<g id="edge2" class="edge">
<title>src/application/dependencies.ts&#45;&gt;src/infrastructure/adapters</title>
<path fill="none" stroke="#000000" stroke-width="2" stroke-opacity="0.200000" d="M157.11,-132.99C171.07,-120.95 194.65,-100.62 210.98,-86.54"/>
<polygon fill="#000000" fill-opacity="0.200000" stroke="#000000" stroke-width="2" stroke-opacity="0.200000" points="212.02,-88.41 215.2,-82.9 209.28,-85.23 212.02,-88.41"/>
</g>
<!-- src/application/ports -->
<g id="node4" class="node">
<title>src/application/ports</title>
<g id="a_node4"><a xlink:href="src/application/ports" xlink:title="ports">
<polygon fill="#ffffcc" stroke="black" points="325.62,-143.62 273.76,-143.62 271.62,-141.49 271.62,-124.38 323.49,-124.38 325.62,-126.51 325.62,-143.62"/>
<polyline fill="none" stroke="black" points="323.49,-141.49 271.62,-141.49"/>
<polyline fill="none" stroke="black" points="323.49,-141.49 323.49,-124.38"/>
<polyline fill="none" stroke="black" points="323.49,-141.49 325.62,-143.62"/>
<text text-anchor="start" x="288.12" y="-131.07" font-family="Helvetica,sans-Serif" font-size="9.00">ports</text>
</a>
</g>
</g>
<!-- src/application/usecases&#45;&gt;src/application/ports -->
<g id="edge8" class="edge">
<title>src/application/usecases&#45;&gt;src/application/ports</title>
<path fill="none" stroke="#000000" stroke-opacity="0.200000" d="M252.45,-155.02C257.92,-152.48 263.87,-149.7 269.62,-147.03"/>
<polygon fill="none" stroke="#000000" stroke-opacity="0.200000" points="270.29,-149.03 274.85,-144.6 268.52,-145.23 270.29,-149.03"/>
</g>
<!-- src/domain/entities -->
<g id="node5" class="node">
<title>src/domain/entities</title>
<g id="a_node5"><a xlink:href="src/domain/entities" xlink:title="entities">
<polygon fill="#ffffcc" stroke="black" points="403.62,-166.62 351.76,-166.62 349.62,-164.49 349.62,-147.38 401.49,-147.38 403.62,-149.51 403.62,-166.62"/>
<polyline fill="none" stroke="black" points="401.49,-164.49 349.62,-164.49"/>
<polyline fill="none" stroke="black" points="401.49,-164.49 401.49,-147.38"/>
<polyline fill="none" stroke="black" points="401.49,-164.49 403.62,-166.62"/>
<text text-anchor="start" x="361.62" y="-154.07" font-family="Helvetica,sans-Serif" font-size="9.00">entities</text>
</a>
</g>
</g>
<!-- src/application/usecases&#45;&gt;src/domain/entities -->
<g id="edge9" class="edge">
<title>src/application/usecases&#45;&gt;src/domain/entities</title>
<path fill="none" stroke="#000000" stroke-opacity="0.200000" d="M258.9,-164.33C279.55,-163.74 308.36,-162.69 333.62,-161 336.34,-160.82 339.16,-160.6 341.98,-160.37"/>
<polygon fill="none" stroke="#000000" stroke-opacity="0.200000" points="342.13,-162.47 347.92,-159.85 341.76,-158.28 342.13,-162.47"/>
</g>
<!-- src/infrastructure/adapters&#45;&gt;src/application/ports -->
<g id="edge10" class="edge">
<title>src/infrastructure/adapters&#45;&gt;src/application/ports</title>
<path fill="none" stroke="#000000" stroke-opacity="0.200000" d="M240.87,-81.01C249.01,-89.2 260.92,-101 271.62,-111 274.54,-113.72 277.69,-116.58 280.76,-119.31"/>
<polygon fill="none" stroke="#000000" stroke-opacity="0.200000" points="279.1,-120.65 284.98,-123.05 281.88,-117.5 279.1,-120.65"/>
</g>
<!-- src/infrastructure/adapters&#45;&gt;src/domain/entities -->
<g id="edge11" class="edge">
<title>src/infrastructure/adapters&#45;&gt;src/domain/entities</title>
<path fill="none" stroke="#000000" stroke-opacity="0.200000" d="M236.03,-61.23C242.51,-49.85 254.95,-31.63 271.62,-24 296.68,-12.54 311.4,-7.71 333.62,-24 370.4,-50.95 375.8,-110.21 376.08,-139.67"/>
<polygon fill="none" stroke="#000000" stroke-opacity="0.200000" points="373.98,-139.61 376.06,-145.62 378.18,-139.63 373.98,-139.61"/>
</g>
<!-- src/infrastructure/services -->
<g id="node7" class="node">
<title>src/infrastructure/services</title>
<g id="a_node7"><a xlink:href="src/infrastructure/services" xlink:title="services">
<polygon fill="#ffffcc" stroke="black" points="325.62,-80.62 273.76,-80.62 271.62,-78.49 271.62,-61.38 323.49,-61.38 325.62,-63.51 325.62,-80.62"/>
<polyline fill="none" stroke="black" points="323.49,-78.49 271.62,-78.49"/>
<polyline fill="none" stroke="black" points="323.49,-78.49 323.49,-61.38"/>
<polyline fill="none" stroke="black" points="323.49,-78.49 325.62,-80.62"/>
<text text-anchor="start" x="281.38" y="-68.08" font-family="Helvetica,sans-Serif" font-size="9.00">services</text>
</a>
</g>
</g>
<!-- src/infrastructure/adapters&#45;&gt;src/infrastructure/services -->
<g id="edge12" class="edge">
<title>src/infrastructure/adapters&#45;&gt;src/infrastructure/services</title>
<path fill="none" stroke="#000000" stroke-width="2" stroke-opacity="0.200000" d="M257.33,-71C259.08,-71 260.85,-71 262.63,-71"/>
<polygon fill="#000000" fill-opacity="0.200000" stroke="#000000" stroke-width="2" stroke-opacity="0.200000" points="262.46,-73.1 268.46,-71 262.46,-68.9 262.46,-73.1"/>
</g>
<!-- src/infrastructure/video -->
<g id="node8" class="node">
<title>src/infrastructure/video</title>
<g id="a_node8"><a xlink:href="src/infrastructure/video" xlink:title="video">
<polygon fill="#ffffcc" stroke="black" points="325.62,-49.62 273.76,-49.62 271.62,-47.49 271.62,-30.38 323.49,-30.38 325.62,-32.51 325.62,-49.62"/>
<polyline fill="none" stroke="black" points="323.49,-47.49 271.62,-47.49"/>
<polyline fill="none" stroke="black" points="323.49,-47.49 323.49,-30.38"/>
<polyline fill="none" stroke="black" points="323.49,-47.49 325.62,-49.62"/>
<text text-anchor="start" x="287.75" y="-37.08" font-family="Helvetica,sans-Serif" font-size="9.00">video</text>
</a>
</g>
</g>
<!-- src/infrastructure/adapters&#45;&gt;src/infrastructure/video -->
<g id="edge13" class="edge">
<title>src/infrastructure/adapters&#45;&gt;src/infrastructure/video</title>
<path fill="none" stroke="#000000" stroke-width="2" stroke-opacity="0.200000" d="M252.45,-61.02C257.44,-58.7 262.84,-56.18 268.11,-53.73"/>
<polygon fill="#000000" fill-opacity="0.200000" stroke="#000000" stroke-width="2" stroke-opacity="0.200000" points="268.92,-55.67 273.47,-51.24 267.15,-51.86 268.92,-55.67"/>
</g>
<!-- src/application/ports&#45;&gt;src/domain/entities -->
<g id="edge3" class="edge">
<title>src/application/ports&#45;&gt;src/domain/entities</title>
<path fill="none" stroke="#000000" stroke-opacity="0.200000" d="M325.78,-141.92C331.09,-143.52 336.75,-145.24 342.27,-146.91"/>
<polygon fill="none" stroke="#000000" stroke-opacity="0.200000" points="341.36,-148.83 347.72,-148.55 342.58,-144.81 341.36,-148.83"/>
</g>
<!-- src/application/services -->
<g id="node6" class="node">
<title>src/application/services</title>
<g id="a_node6"><a xlink:href="src/application/services" xlink:title="services">
<polygon fill="#ffffcc" stroke="black" points="257,-143.62 205.14,-143.62 203,-141.49 203,-124.38 254.86,-124.38 257,-126.51 257,-143.62"/>
<polyline fill="none" stroke="black" points="254.86,-141.49 203,-141.49"/>
<polyline fill="none" stroke="black" points="254.86,-141.49 254.86,-124.38"/>
<polyline fill="none" stroke="black" points="254.86,-141.49 257,-143.62"/>
<text text-anchor="start" x="212.75" y="-131.07" font-family="Helvetica,sans-Serif" font-size="9.00">services</text>
</a>
</g>
</g>
<!-- src/application/services&#45;&gt;src/application/ports -->
<g id="edge4" class="edge">
<title>src/application/services&#45;&gt;src/application/ports</title>
<path fill="none" stroke="#000000" stroke-opacity="0.200000" d="M257.33,-134C259.66,-134 262.04,-134 264.41,-134"/>
<polygon fill="none" stroke="#000000" stroke-opacity="0.200000" points="263.97,-136.1 269.97,-134 263.97,-131.9 263.97,-136.1"/>
</g>
<!-- src/application/services&#45;&gt;src/domain/entities -->
<g id="edge5" class="edge">
<title>src/application/services&#45;&gt;src/domain/entities</title>
<path fill="none" stroke="#000000" stroke-opacity="0.200000" d="M252.96,-144.07C258.9,-146.4 265.41,-148.6 271.62,-150 294.74,-155.2 321.41,-156.91 341.96,-157.34"/>
<polygon fill="none" stroke="#000000" stroke-opacity="0.200000" points="341.69,-159.44 347.72,-157.43 341.75,-155.24 341.69,-159.44"/>
</g>
<!-- src/application/services&#45;&gt;src/infrastructure/services -->
<g id="edge6" class="edge">
<title>src/application/services&#45;&gt;src/infrastructure/services</title>
<path fill="none" stroke="#000000" stroke-width="2" stroke-opacity="0.200000" d="M243.61,-123.96C248.41,-120.03 253.86,-115.41 258.62,-111 266.8,-103.44 275.49,-94.61 282.59,-87.18"/>
<polygon fill="#000000" fill-opacity="0.200000" stroke="#000000" stroke-width="2" stroke-opacity="0.200000" points="283.93,-88.82 286.52,-83.02 280.87,-85.94 283.93,-88.82"/>
</g>
<!-- src/application/services&#45;&gt;src/infrastructure/video -->
<g id="edge7" class="edge">
<title>src/application/services&#45;&gt;src/infrastructure/video</title>
<path fill="none" stroke="#000000" stroke-width="2" stroke-opacity="0.200000" d="M246.49,-124.03C251.01,-120.42 255.55,-115.99 258.62,-111 270.67,-91.46 259.28,-78.4 271.4,-57.46"/>
<polygon fill="#000000" fill-opacity="0.200000" stroke="#000000" stroke-width="2" stroke-opacity="0.200000" points="273.11,-58.67 274.77,-52.53 269.65,-56.3 273.11,-58.67"/>
</g>
<!-- src/presentation/stores -->
<g id="node9" class="node">
<title>src/presentation/stores</title>
<g id="a_node9"><a xlink:href="src/presentation/stores" xlink:title="stores">
<polygon fill="#ffffcc" stroke="black" points="78,-175.62 26.14,-175.62 24,-173.49 24,-156.38 75.86,-156.38 78,-158.51 78,-175.62"/>
<polyline fill="none" stroke="black" points="75.86,-173.49 24,-173.49"/>
<polyline fill="none" stroke="black" points="75.86,-173.49 75.86,-156.38"/>
<polyline fill="none" stroke="black" points="75.86,-173.49 78,-175.62"/>
<text text-anchor="start" x="37.88" y="-163.07" font-family="Helvetica,sans-Serif" font-size="9.00">stores</text>
</a>
</g>
</g>
<!-- src/presentation/stores&#45;&gt;src/application/dependencies.ts -->
<g id="edge15" class="edge">
<title>src/presentation/stores&#45;&gt;src/application/dependencies.ts</title>
<path fill="none" stroke="#000000" stroke-width="2" stroke-opacity="0.200000" d="M78.47,-159.35C83.71,-158.03 89.38,-156.6 95.09,-155.17"/>
<polygon fill="#000000" fill-opacity="0.200000" stroke="#000000" stroke-width="2" stroke-opacity="0.200000" points="95.23,-157.3 100.54,-153.8 94.2,-153.23 95.23,-157.3"/>
</g>
<!-- src/presentation/stores&#45;&gt;src/domain/entities -->
<g id="edge16" class="edge">
<title>src/presentation/stores&#45;&gt;src/domain/entities</title>
<path fill="none" stroke="#000000" stroke-opacity="0.200000" d="M59.04,-175.88C66.48,-185.4 79.18,-199.18 94,-205 193.13,-243.93 236.64,-249.01 333.62,-205 347.95,-198.5 359.32,-184.42 366.59,-173.19"/>
<polygon fill="none" stroke="#000000" stroke-opacity="0.200000" points="368.26,-174.48 369.6,-168.27 364.68,-172.29 368.26,-174.48"/>
</g>
<!-- src/presentation/stores&#45;&gt;src/application/services -->
<g id="edge14" class="edge">
<title>src/presentation/stores&#45;&gt;src/application/services</title>
<path fill="none" stroke="#000000" stroke-width="2" stroke-opacity="0.200000" d="M78.25,-170.71C106.7,-174.49 152.65,-176.62 187,-159 192.06,-156.4 190.49,-152.47 195,-149 195.15,-148.89 195.3,-148.77 195.44,-148.66"/>
<polygon fill="#000000" fill-opacity="0.200000" stroke="#000000" stroke-width="2" stroke-opacity="0.200000" points="196.17,-150.69 200.1,-145.7 193.91,-147.15 196.17,-150.69"/>
</g>
</g>
</svg>
