<?xml version="1.0" encoding="UTF-8" standalone="no"?>
<!DOCTYPE svg PUBLIC "-//W3C//DTD SVG 1.1//EN"
 "http://www.w3.org/Graphics/SVG/1.1/DTD/svg11.dtd">
<!-- Generated by graphviz version 9.0.0 (20230911.1827)
 -->
<!-- Title: dependency&#45;cruiser output Pages: 1 -->
<svg width="777pt" height="310pt"
 viewBox="0.00 0.00 777.00 310.00" xmlns="http://www.w3.org/2000/svg" xmlns:xlink="http://www.w3.org/1999/xlink">
<g id="graph0" class="graph" transform="scale(1 1) rotate(0) translate(4 306)">
<title>dependency&#45;cruiser output</title>
<polygon fill="white" stroke="none" points="-4,4 -4,-306 773,-306 773,4 -4,4"/>
<g id="clust1" class="cluster">
<title>cluster_src</title>
<path fill="#ffffff" stroke="black" stroke-width="2" d="M20,-8C20,-8 749,-8 749,-8 755,-8 761,-14 761,-20 761,-20 761,-282 761,-282 761,-288 755,-294 749,-294 749,-294 20,-294 20,-294 14,-294 8,-288 8,-282 8,-282 8,-20 8,-20 8,-14 14,-8 20,-8"/>
<text text-anchor="middle" x="384.5" y="-281.45" font-family="Helvetica,sans-Serif" font-weight="bold" font-size="9.00">src</text>
</g>
<g id="clust2" class="cluster">
<title>cluster_src/application</title>
<path fill="#ffffff" stroke="black" stroke-width="2" d="M298.25,-48C298.25,-48 647,-48 647,-48 653,-48 659,-54 659,-60 659,-60 659,-188 659,-188 659,-194 653,-200 647,-200 647,-200 298.25,-200 298.25,-200 292.25,-200 286.25,-194 286.25,-188 286.25,-188 286.25,-60 286.25,-60 286.25,-54 292.25,-48 298.25,-48"/>
<text text-anchor="middle" x="472.62" y="-187.45" font-family="Helvetica,sans-Serif" font-weight="bold" font-size="9.00">application</text>
</g>
<g id="clust3" class="cluster">
<title>cluster_src/application/services</title>
<path fill="#ffffff" stroke="black" stroke-width="2" d="M481.5,-56C481.5,-56 639,-56 639,-56 645,-56 651,-62 651,-68 651,-68 651,-161 651,-161 651,-167 645,-173 639,-173 639,-173 481.5,-173 481.5,-173 475.5,-173 469.5,-167 469.5,-161 469.5,-161 469.5,-68 469.5,-68 469.5,-62 475.5,-56 481.5,-56"/>
<text text-anchor="middle" x="560.25" y="-160.45" font-family="Helvetica,sans-Serif" font-weight="bold" font-size="9.00">services</text>
</g>
<g id="clust4" class="cluster">
<title>cluster_src/application/stores</title>
<path fill="#ffffff" stroke="black" stroke-width="2" d="M306.25,-87C306.25,-87 449.5,-87 449.5,-87 455.5,-87 461.5,-93 461.5,-99 461.5,-99 461.5,-161 461.5,-161 461.5,-167 455.5,-173 449.5,-173 449.5,-173 306.25,-173 306.25,-173 300.25,-173 294.25,-167 294.25,-161 294.25,-161 294.25,-99 294.25,-99 294.25,-93 300.25,-87 306.25,-87"/>
<text text-anchor="middle" x="377.88" y="-160.45" font-family="Helvetica,sans-Serif" font-weight="bold" font-size="9.00">stores</text>
</g>
<g id="clust7" class="cluster">
<title>cluster_src/infrastructure</title>
<path fill="#ffffff" stroke="black" stroke-width="2" d="M679,-114C679,-114 741,-114 741,-114 747,-114 753,-120 753,-126 753,-126 753,-255 753,-255 753,-261 747,-267 741,-267 741,-267 679,-267 679,-267 673,-267 667,-261 667,-255 667,-255 667,-126 667,-126 667,-120 673,-114 679,-114"/>
<text text-anchor="middle" x="710" y="-254.45" font-family="Helvetica,sans-Serif" font-weight="bold" font-size="9.00">infrastructure</text>
</g>
<g id="clust8" class="cluster">
<title>cluster_src/infrastructure/services</title>
<path fill="#ffffff" stroke="black" stroke-width="2" d="M687,-185C687,-185 733,-185 733,-185 739,-185 745,-191 745,-197 745,-197 745,-228 745,-228 745,-234 739,-240 733,-240 733,-240 687,-240 687,-240 681,-240 675,-234 675,-228 675,-228 675,-197 675,-197 675,-191 681,-185 687,-185"/>
<text text-anchor="middle" x="710" y="-227.45" font-family="Helvetica,sans-Serif" font-weight="bold" font-size="9.00">services</text>
</g>
<g id="clust9" class="cluster">
<title>cluster_src/infrastructure/video</title>
<path fill="#ffffff" stroke="black" stroke-width="2" d="M687,-122C687,-122 733,-122 733,-122 739,-122 745,-128 745,-134 745,-134 745,-165 745,-165 745,-171 739,-177 733,-177 733,-177 687,-177 687,-177 681,-177 675,-171 675,-165 675,-165 675,-134 675,-134 675,-128 681,-122 687,-122"/>
<text text-anchor="middle" x="710" y="-164.45" font-family="Helvetica,sans-Serif" font-weight="bold" font-size="9.00">video</text>
</g>
<g id="clust5" class="cluster">
<title>cluster_src/domain</title>
<path fill="#ffffff" stroke="black" stroke-width="2" d="M679,-16C679,-16 741,-16 741,-16 747,-16 753,-22 753,-28 753,-28 753,-94 753,-94 753,-100 747,-106 741,-106 741,-106 679,-106 679,-106 673,-106 667,-100 667,-94 667,-94 667,-28 667,-28 667,-22 673,-16 679,-16"/>
<text text-anchor="middle" x="710" y="-93.45" font-family="Helvetica,sans-Serif" font-weight="bold" font-size="9.00">domain</text>
</g>
<g id="clust6" class="cluster">
<title>cluster_src/domain/entities</title>
<path fill="#ffffff" stroke="black" stroke-width="2" d="M687,-24C687,-24 733,-24 733,-24 739,-24 745,-30 745,-36 745,-36 745,-67 745,-67 745,-73 739,-79 733,-79 733,-79 687,-79 687,-79 681,-79 675,-73 675,-67 675,-67 675,-36 675,-36 675,-30 681,-24 687,-24"/>
<text text-anchor="middle" x="710" y="-66.45" font-family="Helvetica,sans-Serif" font-weight="bold" font-size="9.00">entities</text>
</g>
<g id="clust10" class="cluster">
<title>cluster_src/presentation</title>
<path fill="#ffffff" stroke="black" stroke-width="2" d="M28,-16C28,-16 266.25,-16 266.25,-16 272.25,-16 278.25,-22 278.25,-28 278.25,-28 278.25,-220 278.25,-220 278.25,-226 272.25,-232 266.25,-232 266.25,-232 28,-232 28,-232 22,-232 16,-226 16,-220 16,-220 16,-28 16,-28 16,-22 22,-16 28,-16"/>
<text text-anchor="middle" x="147.12" y="-219.45" font-family="Helvetica,sans-Serif" font-weight="bold" font-size="9.00">presentation</text>
</g>
<g id="clust11" class="cluster">
<title>cluster_src/presentation/components</title>
<path fill="#ffffff" stroke="black" stroke-width="2" d="M144.25,-24C144.25,-24 258.25,-24 258.25,-24 264.25,-24 270.25,-30 270.25,-36 270.25,-36 270.25,-193 270.25,-193 270.25,-199 264.25,-205 258.25,-205 258.25,-205 144.25,-205 144.25,-205 138.25,-205 132.25,-199 132.25,-193 132.25,-193 132.25,-36 132.25,-36 132.25,-30 138.25,-24 144.25,-24"/>
<text text-anchor="middle" x="201.25" y="-192.45" font-family="Helvetica,sans-Serif" font-weight="bold" font-size="9.00">components</text>
</g>
<g id="clust13" class="cluster">
<title>cluster_src/presentation/components/utils</title>
<path fill="#ffffff" stroke="black" stroke-width="2" d="M152.25,-123C152.25,-123 250.25,-123 250.25,-123 256.25,-123 262.25,-129 262.25,-135 262.25,-135 262.25,-166 262.25,-166 262.25,-172 256.25,-178 250.25,-178 250.25,-178 152.25,-178 152.25,-178 146.25,-178 140.25,-172 140.25,-166 140.25,-166 140.25,-135 140.25,-135 140.25,-129 146.25,-123 152.25,-123"/>
<text text-anchor="middle" x="201.25" y="-165.45" font-family="Helvetica,sans-Serif" font-weight="bold" font-size="9.00">utils</text>
</g>
<g id="clust12" class="cluster">
<title>cluster_src/presentation/components/inputs</title>
<path fill="#ffffff" stroke="black" stroke-width="2" d="M171.38,-60C171.38,-60 231.12,-60 231.12,-60 237.12,-60 243.12,-66 243.12,-72 243.12,-72 243.12,-103 243.12,-103 243.12,-109 237.12,-115 231.12,-115 231.12,-115 171.38,-115 171.38,-115 165.38,-115 159.38,-109 159.38,-103 159.38,-103 159.38,-72 159.38,-72 159.38,-66 165.38,-60 171.38,-60"/>
<text text-anchor="middle" x="201.25" y="-102.45" font-family="Helvetica,sans-Serif" font-weight="bold" font-size="9.00">inputs</text>
</g>
<g id="clust14" class="cluster">
<title>cluster_src/presentation/views</title>
<path fill="#ffffff" stroke="black" stroke-width="2" d="M36,-74C36,-74 112.25,-74 112.25,-74 118.25,-74 124.25,-80 124.25,-86 124.25,-86 124.25,-148 124.25,-148 124.25,-154 118.25,-160 112.25,-160 112.25,-160 36,-160 36,-160 30,-160 24,-154 24,-148 24,-148 24,-86 24,-86 24,-80 30,-74 36,-74"/>
<text text-anchor="middle" x="74.12" y="-147.45" font-family="Helvetica,sans-Serif" font-weight="bold" font-size="9.00">views</text>
</g>
<!-- src/application/services/FileParserService.ts -->
<g id="node1" class="node">
<title>src/application/services/FileParserService.ts</title>
<g id="a_node1"><a xlink:href="src/application/services/FileParserService.ts" xlink:title="FileParserService.ts">
<path fill="#ddfeff" stroke="black" d="M636.58,-114.62C636.58,-114.62 550.92,-114.62 550.92,-114.62 547.71,-114.62 544.5,-111.42 544.5,-108.21 544.5,-108.21 544.5,-101.79 544.5,-101.79 544.5,-98.58 547.71,-95.38 550.92,-95.38 550.92,-95.38 636.58,-95.38 636.58,-95.38 639.79,-95.38 643,-98.58 643,-101.79 643,-101.79 643,-108.21 643,-108.21 643,-111.42 639.79,-114.62 636.58,-114.62"/>
<text text-anchor="start" x="552.5" y="-102.08" font-family="Helvetica,sans-Serif" font-size="9.00">FileParserService.ts</text>
</a>
</g>
</g>
<!-- src/domain/entities/index.ts -->
<g id="node2" class="node">
<title>src/domain/entities/index.ts</title>
<g id="a_node2"><a xlink:href="src/domain/entities/index.ts" xlink:title="index.ts">
<path fill="#ddfeff" stroke="black" d="M730.58,-51.62C730.58,-51.62 689.42,-51.62 689.42,-51.62 686.21,-51.62 683,-48.42 683,-45.21 683,-45.21 683,-38.79 683,-38.79 683,-35.58 686.21,-32.38 689.42,-32.38 689.42,-32.38 730.58,-32.38 730.58,-32.38 733.79,-32.38 737,-35.58 737,-38.79 737,-38.79 737,-45.21 737,-45.21 737,-48.42 733.79,-51.62 730.58,-51.62"/>
<text text-anchor="start" x="694.25" y="-39.08" font-family="Helvetica,sans-Serif" font-size="9.00">index.ts</text>
</a>
</g>
</g>
<!-- src/application/services/FileParserService.ts&#45;&gt;src/domain/entities/index.ts -->
<g id="edge1" class="edge">
<title>src/application/services/FileParserService.ts&#45;&gt;src/domain/entities/index.ts</title>
<path fill="none" stroke="#000000" stroke-opacity="0.200000" d="M643.16,-96.69C648.67,-94.88 654.07,-92.68 659,-90 673.81,-81.96 687.38,-68.35 696.64,-57.67"/>
<polygon fill="none" stroke="#000000" stroke-opacity="0.200000" points="698.1,-59.2 700.34,-53.25 694.88,-56.5 698.1,-59.2"/>
</g>
<!-- src/infrastructure/services/index.ts -->
<g id="node3" class="node">
<title>src/infrastructure/services/index.ts</title>
<g id="a_node3"><a xlink:href="src/infrastructure/services/index.ts" xlink:title="index.ts">
<path fill="#ddfeff" stroke="black" d="M730.58,-212.62C730.58,-212.62 689.42,-212.62 689.42,-212.62 686.21,-212.62 683,-209.42 683,-206.21 683,-206.21 683,-199.79 683,-199.79 683,-196.58 686.21,-193.38 689.42,-193.38 689.42,-193.38 730.58,-193.38 730.58,-193.38 733.79,-193.38 737,-196.58 737,-199.79 737,-199.79 737,-206.21 737,-206.21 737,-209.42 733.79,-212.62 730.58,-212.62"/>
<text text-anchor="start" x="694.25" y="-200.07" font-family="Helvetica,sans-Serif" font-size="9.00">index.ts</text>
</a>
</g>
</g>
<!-- src/application/services/FileParserService.ts&#45;&gt;src/infrastructure/services/index.ts -->
<g id="edge2" class="edge">
<title>src/application/services/FileParserService.ts&#45;&gt;src/infrastructure/services/index.ts</title>
<path fill="none" stroke="#000000" stroke-width="2" stroke-opacity="0.200000" d="M643.23,-109.46C649.19,-111.86 654.69,-115.25 659,-120 677.08,-139.92 651.78,-157.81 667,-180 669.23,-183.25 672.07,-186.09 675.23,-188.55"/>
<polygon fill="#000000" fill-opacity="0.200000" stroke="#000000" stroke-width="2" stroke-opacity="0.200000" points="673.82,-190.14 679.99,-191.69 676.14,-186.63 673.82,-190.14"/>
</g>
<!-- src/infrastructure/video/index.ts -->
<g id="node4" class="node">
<title>src/infrastructure/video/index.ts</title>
<g id="a_node4"><a xlink:href="src/infrastructure/video/index.ts" xlink:title="index.ts">
<path fill="#ddfeff" stroke="black" d="M730.58,-149.62C730.58,-149.62 689.42,-149.62 689.42,-149.62 686.21,-149.62 683,-146.42 683,-143.21 683,-143.21 683,-136.79 683,-136.79 683,-133.58 686.21,-130.38 689.42,-130.38 689.42,-130.38 730.58,-130.38 730.58,-130.38 733.79,-130.38 737,-133.58 737,-136.79 737,-136.79 737,-143.21 737,-143.21 737,-146.42 733.79,-149.62 730.58,-149.62"/>
<text text-anchor="start" x="694.25" y="-137.07" font-family="Helvetica,sans-Serif" font-size="9.00">index.ts</text>
</a>
</g>
</g>
<!-- src/application/services/FileParserService.ts&#45;&gt;src/infrastructure/video/index.ts -->
<g id="edge3" class="edge">
<title>src/application/services/FileParserService.ts&#45;&gt;src/infrastructure/video/index.ts</title>
<path fill="none" stroke="#000000" stroke-width="2" stroke-opacity="0.200000" d="M641.65,-115.08C647.53,-116.6 653.43,-118.25 659,-120 665.13,-121.93 671.58,-124.27 677.72,-126.65"/>
<polygon fill="#000000" fill-opacity="0.200000" stroke="#000000" stroke-width="2" stroke-opacity="0.200000" points="676.7,-128.5 683.05,-128.78 678.26,-124.6 676.7,-128.5"/>
</g>
<!-- src/application/services/FiltersService.ts -->
<g id="node5" class="node">
<title>src/application/services/FiltersService.ts</title>
<g id="a_node5"><a xlink:href="src/application/services/FiltersService.ts" xlink:title="FiltersService.ts">
<path fill="#ddfeff" stroke="black" d="M627.96,-83.62C627.96,-83.62 559.54,-83.62 559.54,-83.62 556.33,-83.62 553.12,-80.42 553.12,-77.21 553.12,-77.21 553.12,-70.79 553.12,-70.79 553.12,-67.58 556.33,-64.38 559.54,-64.38 559.54,-64.38 627.96,-64.38 627.96,-64.38 631.17,-64.38 634.38,-67.58 634.38,-70.79 634.38,-70.79 634.38,-77.21 634.38,-77.21 634.38,-80.42 631.17,-83.62 627.96,-83.62"/>
<text text-anchor="start" x="561.12" y="-71.08" font-family="Helvetica,sans-Serif" font-size="9.00">FiltersService.ts</text>
</a>
</g>
</g>
<!-- src/application/services/FiltersService.ts&#45;&gt;src/domain/entities/index.ts -->
<g id="edge4" class="edge">
<title>src/application/services/FiltersService.ts&#45;&gt;src/domain/entities/index.ts</title>
<path fill="none" stroke="#000000" stroke-opacity="0.200000" d="M630.9,-63.88C645.15,-59.88 661.43,-55.33 675.42,-51.41"/>
<polygon fill="none" stroke="#000000" stroke-opacity="0.200000" points="675.83,-53.47 681.04,-49.83 674.7,-49.43 675.83,-53.47"/>
</g>
<!-- src/application/services/Hotkeys.ts -->
<g id="node6" class="node">
<title>src/application/services/Hotkeys.ts</title>
<g id="a_node6"><a xlink:href="src/application/services/Hotkeys.ts" xlink:title="Hotkeys.ts">
<path fill="#ddfeff" stroke="black" d="M616.71,-145.62C616.71,-145.62 570.79,-145.62 570.79,-145.62 567.58,-145.62 564.38,-142.42 564.38,-139.21 564.38,-139.21 564.38,-132.79 564.38,-132.79 564.38,-129.58 567.58,-126.38 570.79,-126.38 570.79,-126.38 616.71,-126.38 616.71,-126.38 619.92,-126.38 623.12,-129.58 623.12,-132.79 623.12,-132.79 623.12,-139.21 623.12,-139.21 623.12,-142.42 619.92,-145.62 616.71,-145.62"/>
<text text-anchor="start" x="572.38" y="-133.07" font-family="Helvetica,sans-Serif" font-size="9.00">Hotkeys.ts</text>
</a>
</g>
</g>
<!-- src/application/services/index.ts -->
<g id="node7" class="node">
<title>src/application/services/index.ts</title>
<g id="a_node7"><a xlink:href="src/application/services/index.ts" xlink:title="index.ts">
<path fill="#ddfeff" stroke="black" d="M525.08,-114.62C525.08,-114.62 483.92,-114.62 483.92,-114.62 480.71,-114.62 477.5,-111.42 477.5,-108.21 477.5,-108.21 477.5,-101.79 477.5,-101.79 477.5,-98.58 480.71,-95.38 483.92,-95.38 483.92,-95.38 525.08,-95.38 525.08,-95.38 528.29,-95.38 531.5,-98.58 531.5,-101.79 531.5,-101.79 531.5,-108.21 531.5,-108.21 531.5,-111.42 528.29,-114.62 525.08,-114.62"/>
<text text-anchor="start" x="488.75" y="-102.08" font-family="Helvetica,sans-Serif" font-size="9.00">index.ts</text>
</a>
</g>
</g>
<!-- src/application/services/index.ts&#45;&gt;src/application/services/FileParserService.ts -->
<g id="edge5" class="edge">
<title>src/application/services/index.ts&#45;&gt;src/application/services/FileParserService.ts</title>
<path fill="none" stroke="#000000" stroke-width="2" stroke-opacity="0.200000" d="M531.68,-105C535.69,-105 539.95,-105 544.26,-105"/>
<polygon fill="#000000" fill-opacity="0.200000" stroke="#000000" stroke-width="2" stroke-opacity="0.200000" points="547.07,-103.61 550.97,-111.71 542.87,-107.81 547.07,-103.61"/>
</g>
<!-- src/application/services/index.ts&#45;&gt;src/application/services/FiltersService.ts -->
<g id="edge6" class="edge">
<title>src/application/services/index.ts&#45;&gt;src/application/services/FiltersService.ts</title>
<path fill="none" stroke="#000000" stroke-width="2" stroke-opacity="0.200000" d="M528.88,-95.02C534,-92.94 539.4,-90.83 558.88,-84.12"/>
<polygon fill="#000000" fill-opacity="0.200000" stroke="#000000" stroke-width="2" stroke-opacity="0.200000" points="561.69,-82.72 565.59,-90.82 557.49,-86.92 561.69,-82.72"/>
</g>
<!-- src/application/services/index.ts&#45;&gt;src/application/services/Hotkeys.ts -->
<g id="edge7" class="edge">
<title>src/application/services/index.ts&#45;&gt;src/application/services/Hotkeys.ts</title>
<path fill="none" stroke="#000000" stroke-width="2" stroke-opacity="0.200000" d="M528.88,-114.98C534,-117.06 539.4,-119.17 564.04,-127.53"/>
<polygon fill="#000000" fill-opacity="0.200000" stroke="#000000" stroke-width="2" stroke-opacity="0.200000" points="566.84,-126.14 570.74,-134.24 562.64,-130.34 566.84,-126.14"/>
</g>
<!-- src/application/stores/appStateStore.ts -->
<g id="node8" class="node">
<title>src/application/stores/appStateStore.ts</title>
<g id="a_node8"><a xlink:href="src/application/stores/appStateStore.ts" xlink:title="appStateStore.ts">
<path fill="#ddfeff" stroke="black" d="M447.08,-114.62C447.08,-114.62 375.67,-114.62 375.67,-114.62 372.46,-114.62 369.25,-111.42 369.25,-108.21 369.25,-108.21 369.25,-101.79 369.25,-101.79 369.25,-98.58 372.46,-95.38 375.67,-95.38 375.67,-95.38 447.08,-95.38 447.08,-95.38 450.29,-95.38 453.5,-98.58 453.5,-101.79 453.5,-101.79 453.5,-108.21 453.5,-108.21 453.5,-111.42 450.29,-114.62 447.08,-114.62"/>
<text text-anchor="start" x="377.25" y="-102.08" font-family="Helvetica,sans-Serif" font-size="9.00">appStateStore.ts</text>
</a>
</g>
</g>
<!-- src/application/stores/appStateStore.ts&#45;&gt;src/application/services/index.ts -->
<g id="edge8" class="edge">
<title>src/application/stores/appStateStore.ts&#45;&gt;src/application/services/index.ts</title>
<path fill="none" stroke="#000000" stroke-width="2" stroke-opacity="0.200000" d="M453.94,-105C458.74,-105 463.61,-105 468.32,-105"/>
<polygon fill="#000000" fill-opacity="0.200000" stroke="#000000" stroke-width="2" stroke-opacity="0.200000" points="468.1,-107.1 474.1,-105 468.1,-102.9 468.1,-107.1"/>
</g>
<!-- src/application/stores/index.ts -->
<g id="node9" class="node">
<title>src/application/stores/index.ts</title>
<g id="a_node9"><a xlink:href="src/application/stores/index.ts" xlink:title="index.ts">
<path fill="#ddfeff" stroke="black" d="M349.83,-145.62C349.83,-145.62 308.67,-145.62 308.67,-145.62 305.46,-145.62 302.25,-142.42 302.25,-139.21 302.25,-139.21 302.25,-132.79 302.25,-132.79 302.25,-129.58 305.46,-126.38 308.67,-126.38 308.67,-126.38 349.83,-126.38 349.83,-126.38 353.04,-126.38 356.25,-129.58 356.25,-132.79 356.25,-132.79 356.25,-139.21 356.25,-139.21 356.25,-142.42 353.04,-145.62 349.83,-145.62"/>
<text text-anchor="start" x="313.5" y="-133.07" font-family="Helvetica,sans-Serif" font-size="9.00">index.ts</text>
</a>
</g>
</g>
<!-- src/application/stores/index.ts&#45;&gt;src/application/stores/appStateStore.ts -->
<g id="edge9" class="edge">
<title>src/application/stores/index.ts&#45;&gt;src/application/stores/appStateStore.ts</title>
<path fill="none" stroke="#000000" stroke-width="2" stroke-opacity="0.200000" d="M354.12,-126.03C359.1,-124 364.34,-121.9 382.45,-115.02"/>
<polygon fill="#000000" fill-opacity="0.200000" stroke="#000000" stroke-width="2" stroke-opacity="0.200000" points="385.25,-113.63 389.15,-121.73 381.05,-117.83 385.25,-113.63"/>
</g>
<!-- src/application/stores/videosStore.ts -->
<g id="node10" class="node">
<title>src/application/stores/videosStore.ts</title>
<g id="a_node10"><a xlink:href="src/application/stores/videosStore.ts" xlink:title="videosStore.ts">
<path fill="#ddfeff" stroke="black" d="M442.21,-145.62C442.21,-145.62 380.54,-145.62 380.54,-145.62 377.33,-145.62 374.12,-142.42 374.12,-139.21 374.12,-139.21 374.12,-132.79 374.12,-132.79 374.12,-129.58 377.33,-126.38 380.54,-126.38 380.54,-126.38 442.21,-126.38 442.21,-126.38 445.42,-126.38 448.62,-129.58 448.62,-132.79 448.62,-132.79 448.62,-139.21 448.62,-139.21 448.62,-142.42 445.42,-145.62 442.21,-145.62"/>
<text text-anchor="start" x="382.12" y="-133.07" font-family="Helvetica,sans-Serif" font-size="9.00">videosStore.ts</text>
</a>
</g>
</g>
<!-- src/application/stores/index.ts&#45;&gt;src/application/stores/videosStore.ts -->
<g id="edge10" class="edge">
<title>src/application/stores/index.ts&#45;&gt;src/application/stores/videosStore.ts</title>
<path fill="none" stroke="#000000" stroke-width="2" stroke-opacity="0.200000" d="M356.49,-136C362.05,-136 368.03,-136 373.9,-136"/>
<polygon fill="#000000" fill-opacity="0.200000" stroke="#000000" stroke-width="2" stroke-opacity="0.200000" points="376.71,-134.61 380.61,-142.71 372.51,-138.81 376.71,-134.61"/>
</g>
<!-- src/application/stores/videosStore.ts&#45;&gt;src/domain/entities/index.ts -->
<g id="edge12" class="edge">
<title>src/application/stores/videosStore.ts&#45;&gt;src/domain/entities/index.ts</title>
<path fill="none" stroke="#000000" stroke-opacity="0.200000" d="M448.64,-130.31C453.55,-128.11 458.07,-125.11 461.5,-121 481.01,-97.64 447.23,-73.74 469.5,-53 484.21,-39.3 613.06,-40.01 675.44,-41.19"/>
<polygon fill="none" stroke="#000000" stroke-opacity="0.200000" points="675.15,-43.28 681.19,-41.3 675.24,-39.08 675.15,-43.28"/>
</g>
<!-- src/application/stores/videosStore.ts&#45;&gt;src/infrastructure/services/index.ts -->
<g id="edge13" class="edge">
<title>src/application/stores/videosStore.ts&#45;&gt;src/infrastructure/services/index.ts</title>
<path fill="none" stroke="#000000" stroke-width="2" stroke-opacity="0.200000" d="M420.49,-145.78C430.62,-157.22 449.12,-175.65 469.5,-184 505.59,-198.79 616.74,-202.11 674.04,-202.83"/>
<polygon fill="#000000" fill-opacity="0.200000" stroke="#000000" stroke-width="2" stroke-opacity="0.200000" points="673.71,-204.92 679.73,-202.89 673.75,-200.72 673.71,-204.92"/>
</g>
<!-- src/application/stores/videosStore.ts&#45;&gt;src/infrastructure/video/index.ts -->
<g id="edge14" class="edge">
<title>src/application/stores/videosStore.ts&#45;&gt;src/infrastructure/video/index.ts</title>
<path fill="none" stroke="#000000" stroke-width="2" stroke-opacity="0.200000" d="M422.26,-145.83C432.89,-155.65 450.79,-170.1 469.5,-176 509.66,-188.66 618.92,-188.93 659,-176 671.53,-171.96 683.57,-163.48 692.7,-155.77"/>
<polygon fill="#000000" fill-opacity="0.200000" stroke="#000000" stroke-width="2" stroke-opacity="0.200000" points="694,-157.42 697.08,-151.86 691.21,-154.28 694,-157.42"/>
</g>
<!-- src/application/stores/videosStore.ts&#45;&gt;src/application/services/index.ts -->
<g id="edge11" class="edge">
<title>src/application/stores/videosStore.ts&#45;&gt;src/application/services/index.ts</title>
<path fill="none" stroke="#000000" stroke-width="2" stroke-opacity="0.200000" d="M446.56,-125.89C451.59,-124.31 456.69,-122.65 461.5,-121 464.07,-120.12 466.73,-119.18 469.39,-118.22"/>
<polygon fill="#000000" fill-opacity="0.200000" stroke="#000000" stroke-width="2" stroke-opacity="0.200000" points="470.1,-120.19 475,-116.14 468.64,-116.25 470.1,-120.19"/>
</g>
<!-- src/presentation/components/VideoCard.vue -->
<g id="node11" class="node">
<title>src/presentation/components/VideoCard.vue</title>
<g id="a_node11"><a xlink:href="src/presentation/components/VideoCard.vue" xlink:title="VideoCard.vue">
<path fill="#41f083" stroke="black" d="M232.83,-51.62C232.83,-51.62 169.67,-51.62 169.67,-51.62 166.46,-51.62 163.25,-48.42 163.25,-45.21 163.25,-45.21 163.25,-38.79 163.25,-38.79 163.25,-35.58 166.46,-32.38 169.67,-32.38 169.67,-32.38 232.83,-32.38 232.83,-32.38 236.04,-32.38 239.25,-35.58 239.25,-38.79 239.25,-38.79 239.25,-45.21 239.25,-45.21 239.25,-48.42 236.04,-51.62 232.83,-51.62"/>
<text text-anchor="start" x="171.25" y="-39.08" font-family="Helvetica,sans-Serif" font-size="9.00">VideoCard.vue</text>
</a>
</g>
</g>
<!-- src/presentation/components/VideoCard.vue&#45;&gt;src/domain/entities/index.ts -->
<g id="edge16" class="edge">
<title>src/presentation/components/VideoCard.vue&#45;&gt;src/domain/entities/index.ts</title>
<path fill="none" stroke="#000000" stroke-opacity="0.200000" d="M239.45,-39.42C281.07,-36.76 350.52,-33 410.38,-33 410.38,-33 410.38,-33 505.5,-33 573.76,-33 590.85,-34.17 659,-38 664.26,-38.3 669.83,-38.68 675.26,-39.08"/>
<polygon fill="none" stroke="#000000" stroke-opacity="0.200000" points="674.89,-41.16 681.04,-39.53 675.22,-36.97 674.89,-41.16"/>
</g>
<!-- src/presentation/components/VideoCard.vue&#45;&gt;src/application/stores/index.ts -->
<g id="edge15" class="edge">
<title>src/presentation/components/VideoCard.vue&#45;&gt;src/application/stores/index.ts</title>
<path fill="none" stroke="#000000" stroke-width="2" stroke-opacity="0.200000" d="M239.38,-43.34C252.57,-45.29 266.93,-49.25 278.25,-57 299.88,-71.82 314.13,-99.4 321.69,-117.73"/>
<polygon fill="#000000" fill-opacity="0.200000" stroke="#000000" stroke-width="2" stroke-opacity="0.200000" points="319.63,-118.24 323.77,-123.07 323.55,-116.72 319.63,-118.24"/>
</g>
<!-- src/presentation/components/inputs/FileInput.vue -->
<g id="node12" class="node">
<title>src/presentation/components/inputs/FileInput.vue</title>
<g id="a_node12"><a xlink:href="src/presentation/components/inputs/FileInput.vue" xlink:title="FileInput.vue">
<path fill="#41f083" stroke="black" d="M228.71,-87.62C228.71,-87.62 173.79,-87.62 173.79,-87.62 170.58,-87.62 167.38,-84.42 167.38,-81.21 167.38,-81.21 167.38,-74.79 167.38,-74.79 167.38,-71.58 170.58,-68.38 173.79,-68.38 173.79,-68.38 228.71,-68.38 228.71,-68.38 231.92,-68.38 235.12,-71.58 235.12,-74.79 235.12,-74.79 235.12,-81.21 235.12,-81.21 235.12,-84.42 231.92,-87.62 228.71,-87.62"/>
<text text-anchor="start" x="175.38" y="-75.08" font-family="Helvetica,sans-Serif" font-size="9.00">FileInput.vue</text>
</a>
</g>
</g>
<!-- src/presentation/components/inputs/FileInput.vue&#45;&gt;src/application/stores/index.ts -->
<g id="edge17" class="edge">
<title>src/presentation/components/inputs/FileInput.vue&#45;&gt;src/application/stores/index.ts</title>
<path fill="none" stroke="#000000" stroke-width="2" stroke-opacity="0.200000" d="M224.2,-88.1C244.79,-97.58 275.76,-111.84 298.56,-122.33"/>
<polygon fill="#000000" fill-opacity="0.200000" stroke="#000000" stroke-width="2" stroke-opacity="0.200000" points="297.48,-124.15 303.8,-124.75 299.23,-120.33 297.48,-124.15"/>
</g>
<!-- src/presentation/components/utils/DiagnosticsPanel.vue -->
<g id="node13" class="node">
<title>src/presentation/components/utils/DiagnosticsPanel.vue</title>
<g id="a_node13"><a xlink:href="src/presentation/components/utils/DiagnosticsPanel.vue" xlink:title="DiagnosticsPanel.vue">
<path fill="#41f083" stroke="black" d="M247.83,-150.62C247.83,-150.62 154.67,-150.62 154.67,-150.62 151.46,-150.62 148.25,-147.42 148.25,-144.21 148.25,-144.21 148.25,-137.79 148.25,-137.79 148.25,-134.58 151.46,-131.38 154.67,-131.38 154.67,-131.38 247.83,-131.38 247.83,-131.38 251.04,-131.38 254.25,-134.58 254.25,-137.79 254.25,-137.79 254.25,-144.21 254.25,-144.21 254.25,-147.42 251.04,-150.62 247.83,-150.62"/>
<text text-anchor="start" x="156.25" y="-138.07" font-family="Helvetica,sans-Serif" font-size="9.00">DiagnosticsPanel.vue</text>
</a>
</g>
</g>
<!-- src/presentation/components/utils/DiagnosticsPanel.vue&#45;&gt;src/infrastructure/services/index.ts -->
<g id="edge19" class="edge">
<title>src/presentation/components/utils/DiagnosticsPanel.vue&#45;&gt;src/infrastructure/services/index.ts</title>
<path fill="none" stroke="#000000" stroke-width="2" stroke-opacity="0.200000" d="M219.69,-151.03C254.66,-170.17 336.34,-210 410.38,-210 410.38,-210 410.38,-210 505.5,-210 564.53,-210 633.14,-207.02 673.71,-204.95"/>
<polygon fill="#000000" fill-opacity="0.200000" stroke="#000000" stroke-width="2" stroke-opacity="0.200000" points="673.76,-207.05 679.64,-204.64 673.54,-202.86 673.76,-207.05"/>
</g>
<!-- src/presentation/components/utils/DiagnosticsPanel.vue&#45;&gt;src/application/stores/index.ts -->
<g id="edge18" class="edge">
<title>src/presentation/components/utils/DiagnosticsPanel.vue&#45;&gt;src/application/stores/index.ts</title>
<path fill="none" stroke="#000000" stroke-width="2" stroke-opacity="0.200000" d="M254.59,-138.92C267.63,-138.41 281.3,-137.86 293.27,-137.39"/>
<polygon fill="#000000" fill-opacity="0.200000" stroke="#000000" stroke-width="2" stroke-opacity="0.200000" points="293.12,-139.5 299.03,-137.16 292.95,-135.3 293.12,-139.5"/>
</g>
<!-- src/presentation/views/NavBar.vue -->
<g id="node14" class="node">
<title>src/presentation/views/NavBar.vue</title>
<g id="a_node14"><a xlink:href="src/presentation/views/NavBar.vue" xlink:title="NavBar.vue">
<path fill="#41f083" stroke="black" d="M98.96,-132.62C98.96,-132.62 49.29,-132.62 49.29,-132.62 46.08,-132.62 42.88,-129.42 42.88,-126.21 42.88,-126.21 42.88,-119.79 42.88,-119.79 42.88,-116.58 46.08,-113.38 49.29,-113.38 49.29,-113.38 98.96,-113.38 98.96,-113.38 102.17,-113.38 105.38,-116.58 105.38,-119.79 105.38,-119.79 105.38,-126.21 105.38,-126.21 105.38,-129.42 102.17,-132.62 98.96,-132.62"/>
<text text-anchor="start" x="50.88" y="-120.08" font-family="Helvetica,sans-Serif" font-size="9.00">NavBar.vue</text>
</a>
</g>
</g>
<!-- src/presentation/views/NavBar.vue&#45;&gt;src/application/stores/index.ts -->
<g id="edge20" class="edge">
<title>src/presentation/views/NavBar.vue&#45;&gt;src/application/stores/index.ts</title>
<path fill="none" stroke="#000000" stroke-width="2" stroke-opacity="0.200000" d="M77.57,-132.84C83.21,-153.14 99.25,-199.34 132.25,-218 188.73,-249.94 221.67,-249.77 278.25,-218 302.35,-204.47 316.2,-174.08 322.97,-154.34"/>
<polygon fill="#000000" fill-opacity="0.200000" stroke="#000000" stroke-width="2" stroke-opacity="0.200000" points="324.93,-155.11 324.75,-148.76 320.93,-153.84 324.93,-155.11"/>
</g>
<!-- src/presentation/views/NavBar.vue&#45;&gt;src/presentation/components/inputs/FileInput.vue -->
<g id="edge21" class="edge">
<title>src/presentation/views/NavBar.vue&#45;&gt;src/presentation/components/inputs/FileInput.vue</title>
<path fill="none" stroke="#000000" stroke-width="2" stroke-opacity="0.200000" d="M105.65,-114.09C111.83,-112.17 118.27,-110.09 124.25,-108 138.78,-102.92 154.64,-96.76 168.1,-91.35"/>
<polygon fill="#000000" fill-opacity="0.200000" stroke="#000000" stroke-width="2" stroke-opacity="0.200000" points="168.56,-93.43 173.33,-89.23 166.98,-89.54 168.56,-93.43"/>
</g>
<!-- src/presentation/views/VideoGallery.vue -->
<g id="node15" class="node">
<title>src/presentation/views/VideoGallery.vue</title>
<g id="a_node15"><a xlink:href="src/presentation/views/VideoGallery.vue" xlink:title="VideoGallery.vue">
<path fill="#41f083" stroke="black" d="M109.83,-101.62C109.83,-101.62 38.42,-101.62 38.42,-101.62 35.21,-101.62 32,-98.42 32,-95.21 32,-95.21 32,-88.79 32,-88.79 32,-85.58 35.21,-82.38 38.42,-82.38 38.42,-82.38 109.83,-82.38 109.83,-82.38 113.04,-82.38 116.25,-85.58 116.25,-88.79 116.25,-88.79 116.25,-95.21 116.25,-95.21 116.25,-98.42 113.04,-101.62 109.83,-101.62"/>
<text text-anchor="start" x="40" y="-89.08" font-family="Helvetica,sans-Serif" font-size="9.00">VideoGallery.vue</text>
</a>
</g>
</g>
<!-- src/presentation/views/VideoGallery.vue&#45;&gt;src/application/stores/index.ts -->
<g id="edge22" class="edge">
<title>src/presentation/views/VideoGallery.vue&#45;&gt;src/application/stores/index.ts</title>
<path fill="none" stroke="#000000" stroke-width="2" stroke-opacity="0.200000" d="M116.63,-100.43C119.49,-102.22 122.09,-104.39 124.25,-107 134.79,-119.75 119.94,-169.95 132.25,-181 180.54,-224.35 217.67,-204.25 278.25,-181 293.13,-175.29 306.36,-162.87 315.47,-152.53"/>
<polygon fill="#000000" fill-opacity="0.200000" stroke="#000000" stroke-width="2" stroke-opacity="0.200000" points="316.91,-154.08 319.14,-148.13 313.68,-151.39 316.91,-154.08"/>
</g>
<!-- src/presentation/views/VideoGallery.vue&#45;&gt;src/presentation/components/VideoCard.vue -->
<g id="edge23" class="edge">
<title>src/presentation/views/VideoGallery.vue&#45;&gt;src/presentation/components/VideoCard.vue</title>
<path fill="none" stroke="#000000" stroke-width="2" stroke-opacity="0.200000" d="M88.52,-82.01C99.69,-74.13 116.29,-63.44 132.25,-57 139.18,-54.2 146.73,-51.88 154.19,-49.97"/>
<polygon fill="#000000" fill-opacity="0.200000" stroke="#000000" stroke-width="2" stroke-opacity="0.200000" points="154.57,-52.04 159.93,-48.61 153.6,-47.95 154.57,-52.04"/>
</g>
</g>
</svg>
