<?xml version="1.0" encoding="UTF-8" standalone="no"?>
<!DOCTYPE svg PUBLIC "-//W3C//DTD SVG 1.1//EN"
 "http://www.w3.org/Graphics/SVG/1.1/DTD/svg11.dtd">
<!-- Generated by graphviz version 9.0.0 (20230911.1827)
 -->
<!-- Title: dependency&#45;cruiser output Pages: 1 -->
<svg width="1009pt" height="621pt"
 viewBox="0.00 0.00 1009.38 620.87" xmlns="http://www.w3.org/2000/svg" xmlns:xlink="http://www.w3.org/1999/xlink">
<g id="graph0" class="graph" transform="scale(1 1) rotate(0) translate(4 616.87)">
<title>dependency&#45;cruiser output</title>
<polygon fill="white" stroke="none" points="-4,4 -4,-616.87 1005.38,-616.87 1005.38,4 -4,4"/>
<g id="clust1" class="cluster">
<title>cluster_src</title>
<path fill="#ffffff" stroke="black" stroke-width="2" d="M20,-19.72C20,-19.72 981.38,-19.72 981.38,-19.72 987.38,-19.72 993.38,-25.72 993.38,-31.72 993.38,-31.72 993.38,-590.72 993.38,-590.72 993.38,-596.72 987.38,-602.72 981.38,-602.72 981.38,-602.72 20,-602.72 20,-602.72 14,-602.72 8,-596.72 8,-590.72 8,-590.72 8,-31.72 8,-31.72 8,-25.72 14,-19.72 20,-19.72"/>
<text text-anchor="middle" x="500.69" y="-590.17" font-family="Helvetica,sans-Serif" font-weight="bold" font-size="9.00">src</text>
</g>
<g id="clust2" class="cluster">
<title>cluster_src/application</title>
<path fill="#ffffff" stroke="black" stroke-width="2" d="M298.25,-204.72C298.25,-204.72 879.38,-204.72 879.38,-204.72 885.38,-204.72 891.38,-210.72 891.38,-216.72 891.38,-216.72 891.38,-563.72 891.38,-563.72 891.38,-569.72 885.38,-575.72 879.38,-575.72 879.38,-575.72 298.25,-575.72 298.25,-575.72 292.25,-575.72 286.25,-569.72 286.25,-563.72 286.25,-563.72 286.25,-216.72 286.25,-216.72 286.25,-210.72 292.25,-204.72 298.25,-204.72"/>
<text text-anchor="middle" x="588.81" y="-563.17" font-family="Helvetica,sans-Serif" font-weight="bold" font-size="9.00">application</text>
</g>
<g id="clust3" class="cluster">
<title>cluster_src/application/ports</title>
<path fill="#ffffff" stroke="black" stroke-width="2" d="M615.5,-212.72C615.5,-212.72 871.38,-212.72 871.38,-212.72 877.38,-212.72 883.38,-218.72 883.38,-224.72 883.38,-224.72 883.38,-317.72 883.38,-317.72 883.38,-323.72 877.38,-329.72 871.38,-329.72 871.38,-329.72 615.5,-329.72 615.5,-329.72 609.5,-329.72 603.5,-323.72 603.5,-317.72 603.5,-317.72 603.5,-224.72 603.5,-224.72 603.5,-218.72 609.5,-212.72 615.5,-212.72"/>
<text text-anchor="middle" x="743.44" y="-317.17" font-family="Helvetica,sans-Serif" font-weight="bold" font-size="9.00">ports</text>
</g>
<g id="clust4" class="cluster">
<title>cluster_src/application/services</title>
<path fill="#ffffff" stroke="black" stroke-width="2" d="M481.5,-337.72C481.5,-337.72 683.75,-337.72 683.75,-337.72 689.75,-337.72 695.75,-343.72 695.75,-349.72 695.75,-349.72 695.75,-442.72 695.75,-442.72 695.75,-448.72 689.75,-454.72 683.75,-454.72 683.75,-454.72 481.5,-454.72 481.5,-454.72 475.5,-454.72 469.5,-448.72 469.5,-442.72 469.5,-442.72 469.5,-349.72 469.5,-349.72 469.5,-343.72 475.5,-337.72 481.5,-337.72"/>
<text text-anchor="middle" x="582.62" y="-442.17" font-family="Helvetica,sans-Serif" font-weight="bold" font-size="9.00">services</text>
</g>
<g id="clust5" class="cluster">
<title>cluster_src/application/stores</title>
<path fill="#ffffff" stroke="black" stroke-width="2" d="M306.25,-259.72C306.25,-259.72 449.5,-259.72 449.5,-259.72 455.5,-259.72 461.5,-265.72 461.5,-271.72 461.5,-271.72 461.5,-333.72 461.5,-333.72 461.5,-339.72 455.5,-345.72 449.5,-345.72 449.5,-345.72 306.25,-345.72 306.25,-345.72 300.25,-345.72 294.25,-339.72 294.25,-333.72 294.25,-333.72 294.25,-271.72 294.25,-271.72 294.25,-265.72 300.25,-259.72 306.25,-259.72"/>
<text text-anchor="middle" x="377.88" y="-333.17" font-family="Helvetica,sans-Serif" font-weight="bold" font-size="9.00">stores</text>
</g>
<g id="clust6" class="cluster">
<title>cluster_src/application/usecases</title>
<path fill="#ffffff" stroke="black" stroke-width="2" d="M481.5,-462.72C481.5,-462.72 718.62,-462.72 718.62,-462.72 724.62,-462.72 730.62,-468.72 730.62,-474.72 730.62,-474.72 730.62,-536.72 730.62,-536.72 730.62,-542.72 724.62,-548.72 718.62,-548.72 718.62,-548.72 481.5,-548.72 481.5,-548.72 475.5,-548.72 469.5,-542.72 469.5,-536.72 469.5,-536.72 469.5,-474.72 469.5,-474.72 469.5,-468.72 475.5,-462.72 481.5,-462.72"/>
<text text-anchor="middle" x="600.06" y="-536.17" font-family="Helvetica,sans-Serif" font-weight="bold" font-size="9.00">usecases</text>
</g>
<g id="clust7" class="cluster">
<title>cluster_src/domain</title>
<path fill="#ffffff" stroke="black" stroke-width="2" d="M911.38,-329.72C911.38,-329.72 973.38,-329.72 973.38,-329.72 979.38,-329.72 985.38,-335.72 985.38,-341.72 985.38,-341.72 985.38,-407.72 985.38,-407.72 985.38,-413.72 979.38,-419.72 973.38,-419.72 973.38,-419.72 911.38,-419.72 911.38,-419.72 905.38,-419.72 899.38,-413.72 899.38,-407.72 899.38,-407.72 899.38,-341.72 899.38,-341.72 899.38,-335.72 905.38,-329.72 911.38,-329.72"/>
<text text-anchor="middle" x="942.38" y="-407.17" font-family="Helvetica,sans-Serif" font-weight="bold" font-size="9.00">domain</text>
</g>
<g id="clust8" class="cluster">
<title>cluster_src/domain/entities</title>
<path fill="#ffffff" stroke="black" stroke-width="2" d="M919.38,-337.72C919.38,-337.72 965.38,-337.72 965.38,-337.72 971.38,-337.72 977.38,-343.72 977.38,-349.72 977.38,-349.72 977.38,-380.72 977.38,-380.72 977.38,-386.72 971.38,-392.72 965.38,-392.72 965.38,-392.72 919.38,-392.72 919.38,-392.72 913.38,-392.72 907.38,-386.72 907.38,-380.72 907.38,-380.72 907.38,-349.72 907.38,-349.72 907.38,-343.72 913.38,-337.72 919.38,-337.72"/>
<text text-anchor="middle" x="942.38" y="-380.17" font-family="Helvetica,sans-Serif" font-weight="bold" font-size="9.00">entities</text>
</g>
<g id="clust9" class="cluster">
<title>cluster_src/infrastructure</title>
<path fill="#ffffff" stroke="black" stroke-width="2" d="M551.5,-43.72C551.5,-43.72 838,-43.72 838,-43.72 844,-43.72 850,-49.72 850,-55.72 850,-55.72 850,-184.72 850,-184.72 850,-190.72 844,-196.72 838,-196.72 838,-196.72 551.5,-196.72 551.5,-196.72 545.5,-196.72 539.5,-190.72 539.5,-184.72 539.5,-184.72 539.5,-55.72 539.5,-55.72 539.5,-49.72 545.5,-43.72 551.5,-43.72"/>
<text text-anchor="middle" x="694.75" y="-184.17" font-family="Helvetica,sans-Serif" font-weight="bold" font-size="9.00">infrastructure</text>
</g>
<g id="clust10" class="cluster">
<title>cluster_src/infrastructure/adapters</title>
<path fill="#ffffff" stroke="black" stroke-width="2" d="M559.5,-83.72C559.5,-83.72 717.5,-83.72 717.5,-83.72 723.5,-83.72 729.5,-89.72 729.5,-95.72 729.5,-95.72 729.5,-157.72 729.5,-157.72 729.5,-163.72 723.5,-169.72 717.5,-169.72 717.5,-169.72 559.5,-169.72 559.5,-169.72 553.5,-169.72 547.5,-163.72 547.5,-157.72 547.5,-157.72 547.5,-95.72 547.5,-95.72 547.5,-89.72 553.5,-83.72 559.5,-83.72"/>
<text text-anchor="middle" x="638.5" y="-157.17" font-family="Helvetica,sans-Serif" font-weight="bold" font-size="9.00">adapters</text>
</g>
<g id="clust12" class="cluster">
<title>cluster_src/infrastructure/video</title>
<path fill="#ffffff" stroke="black" stroke-width="2" d="M784,-114.72C784,-114.72 830,-114.72 830,-114.72 836,-114.72 842,-120.72 842,-126.72 842,-126.72 842,-157.72 842,-157.72 842,-163.72 836,-169.72 830,-169.72 830,-169.72 784,-169.72 784,-169.72 778,-169.72 772,-163.72 772,-157.72 772,-157.72 772,-126.72 772,-126.72 772,-120.72 778,-114.72 784,-114.72"/>
<text text-anchor="middle" x="807" y="-157.17" font-family="Helvetica,sans-Serif" font-weight="bold" font-size="9.00">video</text>
</g>
<g id="clust11" class="cluster">
<title>cluster_src/infrastructure/services</title>
<path fill="#ffffff" stroke="black" stroke-width="2" d="M784,-51.72C784,-51.72 830,-51.72 830,-51.72 836,-51.72 842,-57.72 842,-63.72 842,-63.72 842,-94.72 842,-94.72 842,-100.72 836,-106.72 830,-106.72 830,-106.72 784,-106.72 784,-106.72 778,-106.72 772,-100.72 772,-94.72 772,-94.72 772,-63.72 772,-63.72 772,-57.72 778,-51.72 784,-51.72"/>
<text text-anchor="middle" x="807" y="-94.17" font-family="Helvetica,sans-Serif" font-weight="bold" font-size="9.00">services</text>
</g>
<g id="clust13" class="cluster">
<title>cluster_src/presentation</title>
<path fill="#ffffff" stroke="black" stroke-width="2" d="M28,-79.72C28,-79.72 266.25,-79.72 266.25,-79.72 272.25,-79.72 278.25,-85.72 278.25,-91.72 278.25,-91.72 278.25,-283.72 278.25,-283.72 278.25,-289.72 272.25,-295.72 266.25,-295.72 266.25,-295.72 28,-295.72 28,-295.72 22,-295.72 16,-289.72 16,-283.72 16,-283.72 16,-91.72 16,-91.72 16,-85.72 22,-79.72 28,-79.72"/>
<text text-anchor="middle" x="147.12" y="-283.17" font-family="Helvetica,sans-Serif" font-weight="bold" font-size="9.00">presentation</text>
</g>
<g id="clust14" class="cluster">
<title>cluster_src/presentation/components</title>
<path fill="#ffffff" stroke="black" stroke-width="2" d="M144.25,-87.72C144.25,-87.72 258.25,-87.72 258.25,-87.72 264.25,-87.72 270.25,-93.72 270.25,-99.72 270.25,-99.72 270.25,-256.72 270.25,-256.72 270.25,-262.72 264.25,-268.72 258.25,-268.72 258.25,-268.72 144.25,-268.72 144.25,-268.72 138.25,-268.72 132.25,-262.72 132.25,-256.72 132.25,-256.72 132.25,-99.72 132.25,-99.72 132.25,-93.72 138.25,-87.72 144.25,-87.72"/>
<text text-anchor="middle" x="201.25" y="-256.17" font-family="Helvetica,sans-Serif" font-weight="bold" font-size="9.00">components</text>
</g>
<g id="clust15" class="cluster">
<title>cluster_src/presentation/components/inputs</title>
<path fill="#ffffff" stroke="black" stroke-width="2" d="M171.38,-186.72C171.38,-186.72 231.12,-186.72 231.12,-186.72 237.12,-186.72 243.12,-192.72 243.12,-198.72 243.12,-198.72 243.12,-229.72 243.12,-229.72 243.12,-235.72 237.12,-241.72 231.12,-241.72 231.12,-241.72 171.38,-241.72 171.38,-241.72 165.38,-241.72 159.38,-235.72 159.38,-229.72 159.38,-229.72 159.38,-198.72 159.38,-198.72 159.38,-192.72 165.38,-186.72 171.38,-186.72"/>
<text text-anchor="middle" x="201.25" y="-229.17" font-family="Helvetica,sans-Serif" font-weight="bold" font-size="9.00">inputs</text>
</g>
<g id="clust16" class="cluster">
<title>cluster_src/presentation/components/utils</title>
<path fill="#ffffff" stroke="black" stroke-width="2" d="M152.25,-123.72C152.25,-123.72 250.25,-123.72 250.25,-123.72 256.25,-123.72 262.25,-129.72 262.25,-135.72 262.25,-135.72 262.25,-166.72 262.25,-166.72 262.25,-172.72 256.25,-178.72 250.25,-178.72 250.25,-178.72 152.25,-178.72 152.25,-178.72 146.25,-178.72 140.25,-172.72 140.25,-166.72 140.25,-166.72 140.25,-135.72 140.25,-135.72 140.25,-129.72 146.25,-123.72 152.25,-123.72"/>
<text text-anchor="middle" x="201.25" y="-166.17" font-family="Helvetica,sans-Serif" font-weight="bold" font-size="9.00">utils</text>
</g>
<g id="clust17" class="cluster">
<title>cluster_src/presentation/views</title>
<path fill="#ffffff" stroke="black" stroke-width="2" d="M36,-168.72C36,-168.72 112.25,-168.72 112.25,-168.72 118.25,-168.72 124.25,-174.72 124.25,-180.72 124.25,-180.72 124.25,-242.72 124.25,-242.72 124.25,-248.72 118.25,-254.72 112.25,-254.72 112.25,-254.72 36,-254.72 36,-254.72 30,-254.72 24,-248.72 24,-242.72 24,-242.72 24,-180.72 24,-180.72 24,-174.72 30,-168.72 36,-168.72"/>
<text text-anchor="middle" x="74.12" y="-242.17" font-family="Helvetica,sans-Serif" font-weight="bold" font-size="9.00">views</text>
</g>
<!-- src/application/ports/IVideoParser.ts -->
<g id="node1" class="node">
<title>src/application/ports/IVideoParser.ts</title>
<g id="a_node1"><a xlink:href="src/application/ports/IVideoParser.ts" xlink:title="IVideoParser.ts">
<path fill="#ddfeff" stroke="black" d="M840.08,-302.34C840.08,-302.34 773.92,-302.34 773.92,-302.34 770.71,-302.34 767.5,-299.13 767.5,-295.93 767.5,-295.93 767.5,-289.51 767.5,-289.51 767.5,-286.3 770.71,-283.09 773.92,-283.09 773.92,-283.09 840.08,-283.09 840.08,-283.09 843.29,-283.09 846.5,-286.3 846.5,-289.51 846.5,-289.51 846.5,-295.93 846.5,-295.93 846.5,-299.13 843.29,-302.34 840.08,-302.34"/>
<text text-anchor="start" x="775.5" y="-289.79" font-family="Helvetica,sans-Serif" font-size="9.00">IVideoParser.ts</text>
</a>
</g>
</g>
<!-- src/domain/entities/index.ts -->
<g id="node2" class="node">
<title>src/domain/entities/index.ts</title>
<g id="a_node2"><a xlink:href="src/domain/entities/index.ts" xlink:title="index.ts">
<path fill="#ddfeff" stroke="black" d="M962.96,-365.34C962.96,-365.34 921.79,-365.34 921.79,-365.34 918.58,-365.34 915.38,-362.13 915.38,-358.93 915.38,-358.93 915.38,-352.51 915.38,-352.51 915.38,-349.3 918.58,-346.09 921.79,-346.09 921.79,-346.09 962.96,-346.09 962.96,-346.09 966.17,-346.09 969.38,-349.3 969.38,-352.51 969.38,-352.51 969.38,-358.93 969.38,-358.93 969.38,-362.13 966.17,-365.34 962.96,-365.34"/>
<text text-anchor="start" x="926.62" y="-352.79" font-family="Helvetica,sans-Serif" font-size="9.00">index.ts</text>
</a>
</g>
</g>
<!-- src/application/ports/IVideoParser.ts&#45;&gt;src/domain/entities/index.ts -->
<g id="edge1" class="edge">
<title>src/application/ports/IVideoParser.ts&#45;&gt;src/domain/entities/index.ts</title>
<path fill="none" stroke="#000000" stroke-opacity="0.200000" d="M829.43,-302.84C852.18,-313.59 888.24,-330.62 913.26,-342.43"/>
<polygon fill="none" stroke="#000000" stroke-opacity="0.200000" points="912.31,-344.31 918.63,-344.97 914.1,-340.51 912.31,-344.31"/>
</g>
<!-- src/application/ports/IVideoStorage.ts -->
<g id="node3" class="node">
<title>src/application/ports/IVideoStorage.ts</title>
<g id="a_node3"><a xlink:href="src/application/ports/IVideoStorage.ts" xlink:title="IVideoStorage.ts">
<path fill="#ddfeff" stroke="black" d="M842.33,-240.34C842.33,-240.34 771.67,-240.34 771.67,-240.34 768.46,-240.34 765.25,-237.13 765.25,-233.93 765.25,-233.93 765.25,-227.51 765.25,-227.51 765.25,-224.3 768.46,-221.09 771.67,-221.09 771.67,-221.09 842.33,-221.09 842.33,-221.09 845.54,-221.09 848.75,-224.3 848.75,-227.51 848.75,-227.51 848.75,-233.93 848.75,-233.93 848.75,-237.13 845.54,-240.34 842.33,-240.34"/>
<text text-anchor="start" x="773.25" y="-227.79" font-family="Helvetica,sans-Serif" font-size="9.00">IVideoStorage.ts</text>
</a>
</g>
</g>
<!-- src/application/ports/IVideoStorage.ts&#45;&gt;src/domain/entities/index.ts -->
<g id="edge2" class="edge">
<title>src/application/ports/IVideoStorage.ts&#45;&gt;src/domain/entities/index.ts</title>
<path fill="none" stroke="#000000" stroke-opacity="0.200000" d="M848.93,-230.42C863.59,-232.17 879.42,-236.42 891.38,-245.72 921.11,-268.84 933.73,-313.65 938.62,-338.34"/>
<polygon fill="none" stroke="#000000" stroke-opacity="0.200000" points="936.53,-338.58 939.67,-344.11 940.66,-337.83 936.53,-338.58"/>
</g>
<!-- src/application/ports/IVideoThumbnailGenerator.ts -->
<g id="node4" class="node">
<title>src/application/ports/IVideoThumbnailGenerator.ts</title>
<g id="a_node4"><a xlink:href="src/application/ports/IVideoThumbnailGenerator.ts" xlink:title="IVideoThumbnailGenerator.ts">
<path fill="#ddfeff" stroke="black" d="M868.96,-271.34C868.96,-271.34 745.04,-271.34 745.04,-271.34 741.83,-271.34 738.62,-268.13 738.62,-264.93 738.62,-264.93 738.62,-258.51 738.62,-258.51 738.62,-255.3 741.83,-252.09 745.04,-252.09 745.04,-252.09 868.96,-252.09 868.96,-252.09 872.17,-252.09 875.38,-255.3 875.38,-258.51 875.38,-258.51 875.38,-264.93 875.38,-264.93 875.38,-268.13 872.17,-271.34 868.96,-271.34"/>
<text text-anchor="start" x="746.62" y="-258.79" font-family="Helvetica,sans-Serif" font-size="9.00">IVideoThumbnailGenerator.ts</text>
</a>
</g>
</g>
<!-- src/application/ports/index.ts -->
<g id="node5" class="node">
<title>src/application/ports/index.ts</title>
<g id="a_node5"><a xlink:href="src/application/ports/index.ts" xlink:title="index.ts">
<path fill="#ddfeff" stroke="black" d="M659.08,-271.34C659.08,-271.34 617.92,-271.34 617.92,-271.34 614.71,-271.34 611.5,-268.13 611.5,-264.93 611.5,-264.93 611.5,-258.51 611.5,-258.51 611.5,-255.3 614.71,-252.09 617.92,-252.09 617.92,-252.09 659.08,-252.09 659.08,-252.09 662.29,-252.09 665.5,-255.3 665.5,-258.51 665.5,-258.51 665.5,-264.93 665.5,-264.93 665.5,-268.13 662.29,-271.34 659.08,-271.34"/>
<text text-anchor="start" x="622.75" y="-258.79" font-family="Helvetica,sans-Serif" font-size="9.00">index.ts</text>
</a>
</g>
</g>
<!-- src/application/ports/index.ts&#45;&gt;src/application/ports/IVideoParser.ts -->
<g id="edge3" class="edge">
<title>src/application/ports/index.ts&#45;&gt;src/application/ports/IVideoParser.ts</title>
<path fill="none" stroke="#000000" stroke-width="2" stroke-opacity="0.200000" d="M665.88,-266.63C693.12,-271.7 735.9,-279.67 767.03,-285.46"/>
<polygon fill="#000000" fill-opacity="0.200000" stroke="#000000" stroke-width="2" stroke-opacity="0.200000" points="769.84,-284.07 773.74,-292.17 765.64,-288.27 769.84,-284.07"/>
</g>
<!-- src/application/ports/index.ts&#45;&gt;src/application/ports/IVideoStorage.ts -->
<g id="edge4" class="edge">
<title>src/application/ports/index.ts&#45;&gt;src/application/ports/IVideoStorage.ts</title>
<path fill="none" stroke="#000000" stroke-width="2" stroke-opacity="0.200000" d="M665.88,-256.8C692.47,-251.85 733.89,-244.14 764.81,-238.39"/>
<polygon fill="#000000" fill-opacity="0.200000" stroke="#000000" stroke-width="2" stroke-opacity="0.200000" points="767.62,-236.99 771.52,-245.09 763.42,-241.19 767.62,-236.99"/>
</g>
<!-- src/application/ports/index.ts&#45;&gt;src/application/ports/IVideoThumbnailGenerator.ts -->
<g id="edge5" class="edge">
<title>src/application/ports/index.ts&#45;&gt;src/application/ports/IVideoThumbnailGenerator.ts</title>
<path fill="none" stroke="#000000" stroke-width="2" stroke-opacity="0.200000" d="M665.88,-261.72C685.41,-261.72 712.94,-261.72 738.44,-261.72"/>
<polygon fill="#000000" fill-opacity="0.200000" stroke="#000000" stroke-width="2" stroke-opacity="0.200000" points="741.25,-260.32 745.15,-268.42 737.05,-264.52 741.25,-260.32"/>
</g>
<!-- src/application/services/FileParserService.ts -->
<g id="node6" class="node">
<title>src/application/services/FileParserService.ts</title>
<g id="a_node6"><a xlink:href="src/application/services/FileParserService.ts" xlink:title="FileParserService.ts">
<path fill="#ddfeff" stroke="black" d="M681.33,-365.34C681.33,-365.34 595.67,-365.34 595.67,-365.34 592.46,-365.34 589.25,-362.13 589.25,-358.93 589.25,-358.93 589.25,-352.51 589.25,-352.51 589.25,-349.3 592.46,-346.09 595.67,-346.09 595.67,-346.09 681.33,-346.09 681.33,-346.09 684.54,-346.09 687.75,-349.3 687.75,-352.51 687.75,-352.51 687.75,-358.93 687.75,-358.93 687.75,-362.13 684.54,-365.34 681.33,-365.34"/>
<text text-anchor="start" x="597.25" y="-352.79" font-family="Helvetica,sans-Serif" font-size="9.00">FileParserService.ts</text>
</a>
</g>
</g>
<!-- src/application/services/FileParserService.ts&#45;&gt;src/application/ports/IVideoParser.ts -->
<g id="edge6" class="edge">
<title>src/application/services/FileParserService.ts&#45;&gt;src/application/ports/IVideoParser.ts</title>
<path fill="none" stroke="#000000" stroke-opacity="0.200000" d="M687.94,-345.79C701.93,-342.3 717.07,-337.94 730.62,-332.72 749.09,-325.61 768.8,-315.03 783.43,-306.54"/>
<polygon fill="none" stroke="#000000" stroke-opacity="0.200000" points="784.37,-308.42 788.47,-303.57 782.24,-304.81 784.37,-308.42"/>
</g>
<!-- src/application/services/FileParserService.ts&#45;&gt;src/domain/entities/index.ts -->
<g id="edge7" class="edge">
<title>src/application/services/FileParserService.ts&#45;&gt;src/domain/entities/index.ts</title>
<path fill="none" stroke="#000000" stroke-opacity="0.200000" d="M688,-355.72C749.6,-355.72 854.31,-355.72 907.78,-355.72"/>
<polygon fill="none" stroke="#000000" stroke-opacity="0.200000" points="907.46,-357.82 913.46,-355.72 907.46,-353.62 907.46,-357.82"/>
</g>
<!-- src/infrastructure/services/index.ts -->
<g id="node7" class="node">
<title>src/infrastructure/services/index.ts</title>
<g id="a_node7"><a xlink:href="src/infrastructure/services/index.ts" xlink:title="index.ts">
<path fill="#ddfeff" stroke="black" d="M827.58,-79.34C827.58,-79.34 786.42,-79.34 786.42,-79.34 783.21,-79.34 780,-76.13 780,-72.93 780,-72.93 780,-66.51 780,-66.51 780,-63.3 783.21,-60.09 786.42,-60.09 786.42,-60.09 827.58,-60.09 827.58,-60.09 830.79,-60.09 834,-63.3 834,-66.51 834,-66.51 834,-72.93 834,-72.93 834,-76.13 830.79,-79.34 827.58,-79.34"/>
<text text-anchor="start" x="791.25" y="-66.79" font-family="Helvetica,sans-Serif" font-size="9.00">index.ts</text>
</a>
</g>
</g>
<!-- src/application/services/FileParserService.ts&#45;&gt;src/infrastructure/services/index.ts -->
<g id="edge8" class="edge">
<title>src/application/services/FileParserService.ts&#45;&gt;src/infrastructure/services/index.ts</title>
<path fill="none" stroke="#000000" stroke-width="2" stroke-opacity="0.200000" d="M687.87,-354.73C703.89,-351.82 720.26,-345.53 730.62,-332.72 746.07,-313.61 726.31,-132.98 738.62,-111.72 746.06,-98.87 759.16,-89.41 771.84,-82.74"/>
<polygon fill="#000000" fill-opacity="0.200000" stroke="#000000" stroke-width="2" stroke-opacity="0.200000" points="772.43,-84.79 776.9,-80.28 770.59,-81.02 772.43,-84.79"/>
</g>
<!-- src/infrastructure/video/index.ts -->
<g id="node8" class="node">
<title>src/infrastructure/video/index.ts</title>
<g id="a_node8"><a xlink:href="src/infrastructure/video/index.ts" xlink:title="index.ts">
<path fill="#ddfeff" stroke="black" d="M827.58,-142.34C827.58,-142.34 786.42,-142.34 786.42,-142.34 783.21,-142.34 780,-139.13 780,-135.93 780,-135.93 780,-129.51 780,-129.51 780,-126.3 783.21,-123.09 786.42,-123.09 786.42,-123.09 827.58,-123.09 827.58,-123.09 830.79,-123.09 834,-126.3 834,-129.51 834,-129.51 834,-135.93 834,-135.93 834,-139.13 830.79,-142.34 827.58,-142.34"/>
<text text-anchor="start" x="791.25" y="-129.79" font-family="Helvetica,sans-Serif" font-size="9.00">index.ts</text>
</a>
</g>
</g>
<!-- src/application/services/FileParserService.ts&#45;&gt;src/infrastructure/video/index.ts -->
<g id="edge9" class="edge">
<title>src/application/services/FileParserService.ts&#45;&gt;src/infrastructure/video/index.ts</title>
<path fill="none" stroke="#000000" stroke-width="2" stroke-opacity="0.200000" d="M688.14,-354.47C704,-351.51 720.19,-345.26 730.62,-332.72 748.15,-311.67 728.16,-235.03 738.62,-209.72 748.89,-184.87 770.58,-162.48 786.58,-148.34"/>
<polygon fill="#000000" fill-opacity="0.200000" stroke="#000000" stroke-width="2" stroke-opacity="0.200000" points="787.56,-150.26 790.75,-144.76 784.83,-147.08 787.56,-150.26"/>
</g>
<!-- src/application/services/FiltersService.ts -->
<g id="node9" class="node">
<title>src/application/services/FiltersService.ts</title>
<g id="a_node9"><a xlink:href="src/application/services/FiltersService.ts" xlink:title="FiltersService.ts">
<path fill="#ddfeff" stroke="black" d="M672.71,-396.34C672.71,-396.34 604.29,-396.34 604.29,-396.34 601.08,-396.34 597.88,-393.13 597.88,-389.93 597.88,-389.93 597.88,-383.51 597.88,-383.51 597.88,-380.3 601.08,-377.09 604.29,-377.09 604.29,-377.09 672.71,-377.09 672.71,-377.09 675.92,-377.09 679.12,-380.3 679.12,-383.51 679.12,-383.51 679.12,-389.93 679.12,-389.93 679.12,-393.13 675.92,-396.34 672.71,-396.34"/>
<text text-anchor="start" x="605.88" y="-383.79" font-family="Helvetica,sans-Serif" font-size="9.00">FiltersService.ts</text>
</a>
</g>
</g>
<!-- src/application/services/FiltersService.ts&#45;&gt;src/domain/entities/index.ts -->
<g id="edge10" class="edge">
<title>src/application/services/FiltersService.ts&#45;&gt;src/domain/entities/index.ts</title>
<path fill="none" stroke="#000000" stroke-opacity="0.200000" d="M679.59,-382.6C739.6,-376.44 851.73,-364.92 907.73,-359.17"/>
<polygon fill="none" stroke="#000000" stroke-opacity="0.200000" points="907.67,-361.29 913.42,-358.59 907.24,-357.11 907.67,-361.29"/>
</g>
<!-- src/application/services/Hotkeys.ts -->
<g id="node10" class="node">
<title>src/application/services/Hotkeys.ts</title>
<g id="a_node10"><a xlink:href="src/application/services/Hotkeys.ts" xlink:title="Hotkeys.ts">
<path fill="#ddfeff" stroke="black" d="M661.46,-427.34C661.46,-427.34 615.54,-427.34 615.54,-427.34 612.33,-427.34 609.12,-424.13 609.12,-420.93 609.12,-420.93 609.12,-414.51 609.12,-414.51 609.12,-411.3 612.33,-408.09 615.54,-408.09 615.54,-408.09 661.46,-408.09 661.46,-408.09 664.67,-408.09 667.88,-411.3 667.88,-414.51 667.88,-414.51 667.88,-420.93 667.88,-420.93 667.88,-424.13 664.67,-427.34 661.46,-427.34"/>
<text text-anchor="start" x="617.12" y="-414.79" font-family="Helvetica,sans-Serif" font-size="9.00">Hotkeys.ts</text>
</a>
</g>
</g>
<!-- src/application/services/index.ts -->
<g id="node11" class="node">
<title>src/application/services/index.ts</title>
<g id="a_node11"><a xlink:href="src/application/services/index.ts" xlink:title="index.ts">
<path fill="#ddfeff" stroke="black" d="M525.08,-365.34C525.08,-365.34 483.92,-365.34 483.92,-365.34 480.71,-365.34 477.5,-362.13 477.5,-358.93 477.5,-358.93 477.5,-352.51 477.5,-352.51 477.5,-349.3 480.71,-346.09 483.92,-346.09 483.92,-346.09 525.08,-346.09 525.08,-346.09 528.29,-346.09 531.5,-349.3 531.5,-352.51 531.5,-352.51 531.5,-358.93 531.5,-358.93 531.5,-362.13 528.29,-365.34 525.08,-365.34"/>
<text text-anchor="start" x="488.75" y="-352.79" font-family="Helvetica,sans-Serif" font-size="9.00">index.ts</text>
</a>
</g>
</g>
<!-- src/application/services/index.ts&#45;&gt;src/application/services/FileParserService.ts -->
<g id="edge11" class="edge">
<title>src/application/services/index.ts&#45;&gt;src/application/services/FileParserService.ts</title>
<path fill="none" stroke="#000000" stroke-width="2" stroke-opacity="0.200000" d="M531.89,-355.72C548.22,-355.72 569.68,-355.72 588.98,-355.72"/>
<polygon fill="#000000" fill-opacity="0.200000" stroke="#000000" stroke-width="2" stroke-opacity="0.200000" points="591.79,-354.32 595.69,-362.42 587.59,-358.52 591.79,-354.32"/>
</g>
<!-- src/application/services/index.ts&#45;&gt;src/application/services/FiltersService.ts -->
<g id="edge12" class="edge">
<title>src/application/services/index.ts&#45;&gt;src/application/services/FiltersService.ts</title>
<path fill="none" stroke="#000000" stroke-width="2" stroke-opacity="0.200000" d="M524.18,-365.68C529.06,-367.96 534.38,-370.16 597.82,-383.27"/>
<polygon fill="#000000" fill-opacity="0.200000" stroke="#000000" stroke-width="2" stroke-opacity="0.200000" points="600.62,-381.88 604.52,-389.98 596.42,-386.08 600.62,-381.88"/>
</g>
<!-- src/application/services/index.ts&#45;&gt;src/application/services/Hotkeys.ts -->
<g id="edge13" class="edge">
<title>src/application/services/index.ts&#45;&gt;src/application/services/Hotkeys.ts</title>
<path fill="none" stroke="#000000" stroke-width="2" stroke-opacity="0.200000" d="M509.86,-365.83C515.17,-376.83 525.23,-394 608.92,-419.02"/>
<polygon fill="#000000" fill-opacity="0.200000" stroke="#000000" stroke-width="2" stroke-opacity="0.200000" points="611.72,-417.63 615.62,-425.73 607.52,-421.83 611.72,-417.63"/>
</g>
<!-- src/application/stores/appStateStore.ts -->
<g id="node12" class="node">
<title>src/application/stores/appStateStore.ts</title>
<g id="a_node12"><a xlink:href="src/application/stores/appStateStore.ts" xlink:title="appStateStore.ts">
<path fill="#ddfeff" stroke="black" d="M447.08,-287.34C447.08,-287.34 375.67,-287.34 375.67,-287.34 372.46,-287.34 369.25,-284.13 369.25,-280.93 369.25,-280.93 369.25,-274.51 369.25,-274.51 369.25,-271.3 372.46,-268.09 375.67,-268.09 375.67,-268.09 447.08,-268.09 447.08,-268.09 450.29,-268.09 453.5,-271.3 453.5,-274.51 453.5,-274.51 453.5,-280.93 453.5,-280.93 453.5,-284.13 450.29,-287.34 447.08,-287.34"/>
<text text-anchor="start" x="377.25" y="-274.79" font-family="Helvetica,sans-Serif" font-size="9.00">appStateStore.ts</text>
</a>
</g>
</g>
<!-- src/application/stores/appStateStore.ts&#45;&gt;src/application/services/index.ts -->
<g id="edge14" class="edge">
<title>src/application/stores/appStateStore.ts&#45;&gt;src/application/services/index.ts</title>
<path fill="none" stroke="#000000" stroke-width="2" stroke-opacity="0.200000" d="M453.15,-287.67C456.1,-289.13 458.92,-290.8 461.5,-292.72 477.05,-304.28 488.62,-323.42 495.63,-337.57"/>
<polygon fill="#000000" fill-opacity="0.200000" stroke="#000000" stroke-width="2" stroke-opacity="0.200000" points="493.67,-338.34 498.12,-342.88 497.48,-336.56 493.67,-338.34"/>
</g>
<!-- src/application/stores/index.ts -->
<g id="node13" class="node">
<title>src/application/stores/index.ts</title>
<g id="a_node13"><a xlink:href="src/application/stores/index.ts" xlink:title="index.ts">
<path fill="#ddfeff" stroke="black" d="M349.83,-287.34C349.83,-287.34 308.67,-287.34 308.67,-287.34 305.46,-287.34 302.25,-284.13 302.25,-280.93 302.25,-280.93 302.25,-274.51 302.25,-274.51 302.25,-271.3 305.46,-268.09 308.67,-268.09 308.67,-268.09 349.83,-268.09 349.83,-268.09 353.04,-268.09 356.25,-271.3 356.25,-274.51 356.25,-274.51 356.25,-280.93 356.25,-280.93 356.25,-284.13 353.04,-287.34 349.83,-287.34"/>
<text text-anchor="start" x="313.5" y="-274.79" font-family="Helvetica,sans-Serif" font-size="9.00">index.ts</text>
</a>
</g>
</g>
<!-- src/application/stores/index.ts&#45;&gt;src/application/stores/appStateStore.ts -->
<g id="edge15" class="edge">
<title>src/application/stores/index.ts&#45;&gt;src/application/stores/appStateStore.ts</title>
<path fill="none" stroke="#000000" stroke-width="2" stroke-opacity="0.200000" d="M356.49,-277.72C360.5,-277.72 364.73,-277.72 368.98,-277.72"/>
<polygon fill="#000000" fill-opacity="0.200000" stroke="#000000" stroke-width="2" stroke-opacity="0.200000" points="371.78,-276.32 375.68,-284.42 367.58,-280.52 371.78,-276.32"/>
</g>
<!-- src/application/stores/videosStore.ts -->
<g id="node14" class="node">
<title>src/application/stores/videosStore.ts</title>
<g id="a_node14"><a xlink:href="src/application/stores/videosStore.ts" xlink:title="videosStore.ts">
<path fill="#ddfeff" stroke="black" d="M442.21,-318.34C442.21,-318.34 380.54,-318.34 380.54,-318.34 377.33,-318.34 374.12,-315.13 374.12,-311.93 374.12,-311.93 374.12,-305.51 374.12,-305.51 374.12,-302.3 377.33,-299.09 380.54,-299.09 380.54,-299.09 442.21,-299.09 442.21,-299.09 445.42,-299.09 448.62,-302.3 448.62,-305.51 448.62,-305.51 448.62,-311.93 448.62,-311.93 448.62,-315.13 445.42,-318.34 442.21,-318.34"/>
<text text-anchor="start" x="382.12" y="-305.79" font-family="Helvetica,sans-Serif" font-size="9.00">videosStore.ts</text>
</a>
</g>
</g>
<!-- src/application/stores/index.ts&#45;&gt;src/application/stores/videosStore.ts -->
<g id="edge16" class="edge">
<title>src/application/stores/index.ts&#45;&gt;src/application/stores/videosStore.ts</title>
<path fill="none" stroke="#000000" stroke-width="2" stroke-opacity="0.200000" d="M354.12,-287.68C359.1,-289.72 364.34,-291.81 382.45,-298.7"/>
<polygon fill="#000000" fill-opacity="0.200000" stroke="#000000" stroke-width="2" stroke-opacity="0.200000" points="385.25,-297.31 389.15,-305.41 381.05,-301.51 385.25,-297.31"/>
</g>
<!-- src/application/stores/videosStore.ts&#45;&gt;src/domain/entities/index.ts -->
<g id="edge21" class="edge">
<title>src/application/stores/videosStore.ts&#45;&gt;src/domain/entities/index.ts</title>
<path fill="none" stroke="#000000" stroke-opacity="0.200000" d="M413.11,-318.57C416.46,-360.32 431.71,-521.78 469.5,-551.72 619.78,-670.76 760.61,-601.92 891.38,-461.72 915.81,-435.51 930.29,-395.2 936.94,-372.59"/>
<polygon fill="none" stroke="#000000" stroke-opacity="0.200000" points="938.88,-373.45 938.49,-367.11 934.84,-372.31 938.88,-373.45"/>
</g>
<!-- src/application/stores/videosStore.ts&#45;&gt;src/application/ports/IVideoStorage.ts -->
<g id="edge17" class="edge">
<title>src/application/stores/videosStore.ts&#45;&gt;src/application/ports/IVideoStorage.ts</title>
<path fill="none" stroke="#000000" stroke-opacity="0.200000" d="M448.98,-298.68C453.26,-297.17 457.52,-295.51 461.5,-293.72 498.6,-276.97 500.66,-257.9 539.5,-245.72 612.98,-222.67 703.36,-223.22 757.74,-226.45"/>
<polygon fill="none" stroke="#000000" stroke-opacity="0.200000" points="757.54,-228.54 763.66,-226.82 757.8,-224.35 757.54,-228.54"/>
</g>
<!-- src/application/stores/videosStore.ts&#45;&gt;src/application/services/index.ts -->
<g id="edge18" class="edge">
<title>src/application/stores/videosStore.ts&#45;&gt;src/application/services/index.ts</title>
<path fill="none" stroke="#000000" stroke-width="2" stroke-opacity="0.200000" d="M431.7,-318.68C444.66,-325.37 461.92,-334.27 476.26,-341.67"/>
<polygon fill="#000000" fill-opacity="0.200000" stroke="#000000" stroke-width="2" stroke-opacity="0.200000" points="474.9,-343.33 481.2,-344.21 476.83,-339.6 474.9,-343.33"/>
</g>
<!-- src/application/usecases/AddVideosFromFilesUseCase.ts -->
<g id="node15" class="node">
<title>src/application/usecases/AddVideosFromFilesUseCase.ts</title>
<g id="a_node15"><a xlink:href="src/application/usecases/AddVideosFromFilesUseCase.ts" xlink:title="AddVideosFromFilesUseCase.ts">
<path fill="#ddfeff" stroke="black" d="M707.96,-521.34C707.96,-521.34 569.04,-521.34 569.04,-521.34 565.83,-521.34 562.62,-518.13 562.62,-514.93 562.62,-514.93 562.62,-508.51 562.62,-508.51 562.62,-505.3 565.83,-502.09 569.04,-502.09 569.04,-502.09 707.96,-502.09 707.96,-502.09 711.17,-502.09 714.38,-505.3 714.38,-508.51 714.38,-508.51 714.38,-514.93 714.38,-514.93 714.38,-518.13 711.17,-521.34 707.96,-521.34"/>
<text text-anchor="start" x="570.62" y="-508.79" font-family="Helvetica,sans-Serif" font-size="9.00">AddVideosFromFilesUseCase.ts</text>
</a>
</g>
</g>
<!-- src/application/stores/videosStore.ts&#45;&gt;src/application/usecases/AddVideosFromFilesUseCase.ts -->
<g id="edge19" class="edge">
<title>src/application/stores/videosStore.ts&#45;&gt;src/application/usecases/AddVideosFromFilesUseCase.ts</title>
<path fill="none" stroke="#000000" stroke-width="2" stroke-opacity="0.200000" d="M413.78,-318.76C419.1,-355.25 439.28,-479.94 469.5,-503.72 502.75,-529.88 552.17,-528.99 588.82,-523.29"/>
<polygon fill="#000000" fill-opacity="0.200000" stroke="#000000" stroke-width="2" stroke-opacity="0.200000" points="588.82,-525.42 594.38,-522.34 588.12,-521.28 588.82,-525.42"/>
</g>
<!-- src/application/usecases/UpdateVideoThumbnailsUseCase.ts -->
<g id="node16" class="node">
<title>src/application/usecases/UpdateVideoThumbnailsUseCase.ts</title>
<g id="a_node16"><a xlink:href="src/application/usecases/UpdateVideoThumbnailsUseCase.ts" xlink:title="UpdateVideoThumbnailsUseCase.ts">
<path fill="#ddfeff" stroke="black" d="M716.21,-490.34C716.21,-490.34 560.79,-490.34 560.79,-490.34 557.58,-490.34 554.38,-487.13 554.38,-483.93 554.38,-483.93 554.38,-477.51 554.38,-477.51 554.38,-474.3 557.58,-471.09 560.79,-471.09 560.79,-471.09 716.21,-471.09 716.21,-471.09 719.42,-471.09 722.62,-474.3 722.62,-477.51 722.62,-477.51 722.62,-483.93 722.62,-483.93 722.62,-487.13 719.42,-490.34 716.21,-490.34"/>
<text text-anchor="start" x="562.38" y="-477.79" font-family="Helvetica,sans-Serif" font-size="9.00">UpdateVideoThumbnailsUseCase.ts</text>
</a>
</g>
</g>
<!-- src/application/stores/videosStore.ts&#45;&gt;src/application/usecases/UpdateVideoThumbnailsUseCase.ts -->
<g id="edge20" class="edge">
<title>src/application/stores/videosStore.ts&#45;&gt;src/application/usecases/UpdateVideoThumbnailsUseCase.ts</title>
<path fill="none" stroke="#000000" stroke-width="2" stroke-opacity="0.200000" d="M411.75,-318.73C410.34,-351.08 410.86,-453.24 469.5,-496.72 491.64,-513.13 504.02,-498.78 531.5,-496.72 533.53,-496.56 546.62,-494.64 562.94,-492.17"/>
<polygon fill="#000000" fill-opacity="0.200000" stroke="#000000" stroke-width="2" stroke-opacity="0.200000" points="563.12,-494.27 568.74,-491.29 562.49,-490.12 563.12,-494.27"/>
</g>
<!-- src/infrastructure/adapters/VideoStorageAdapter.ts -->
<g id="node17" class="node">
<title>src/infrastructure/adapters/VideoStorageAdapter.ts</title>
<g id="a_node17"><a xlink:href="src/infrastructure/adapters/VideoStorageAdapter.ts" xlink:title="VideoStorageAdapter.ts">
<path fill="#ddfeff" stroke="black" d="M688.46,-111.34C688.46,-111.34 588.54,-111.34 588.54,-111.34 585.33,-111.34 582.12,-108.13 582.12,-104.93 582.12,-104.93 582.12,-98.51 582.12,-98.51 582.12,-95.3 585.33,-92.09 588.54,-92.09 588.54,-92.09 688.46,-92.09 688.46,-92.09 691.67,-92.09 694.88,-95.3 694.88,-98.51 694.88,-98.51 694.88,-104.93 694.88,-104.93 694.88,-108.13 691.67,-111.34 688.46,-111.34"/>
<text text-anchor="start" x="590.12" y="-98.79" font-family="Helvetica,sans-Serif" font-size="9.00">VideoStorageAdapter.ts</text>
</a>
</g>
</g>
<!-- src/application/stores/videosStore.ts&#45;&gt;src/infrastructure/adapters/VideoStorageAdapter.ts -->
<g id="edge22" class="edge">
<title>src/application/stores/videosStore.ts&#45;&gt;src/infrastructure/adapters/VideoStorageAdapter.ts</title>
<path fill="none" stroke="#000000" stroke-width="2" stroke-opacity="0.200000" d="M448.82,-303.18C453.71,-300.96 458.18,-297.91 461.5,-293.72 478.24,-272.6 457.03,-196.61 469.5,-172.72 487.93,-137.4 503.01,-132.72 539.5,-116.72 549.93,-112.14 561.51,-108.93 572.95,-106.69"/>
<polygon fill="#000000" fill-opacity="0.200000" stroke="#000000" stroke-width="2" stroke-opacity="0.200000" points="573.13,-108.79 578.67,-105.67 572.39,-104.65 573.13,-108.79"/>
</g>
<!-- src/infrastructure/adapters/VideoThumbnailGeneratorAdapter.ts -->
<g id="node18" class="node">
<title>src/infrastructure/adapters/VideoThumbnailGeneratorAdapter.ts</title>
<g id="a_node18"><a xlink:href="src/infrastructure/adapters/VideoThumbnailGeneratorAdapter.ts" xlink:title="VideoThumbnailGeneratorAdapter.ts">
<path fill="#ddfeff" stroke="black" d="M715.08,-142.34C715.08,-142.34 561.92,-142.34 561.92,-142.34 558.71,-142.34 555.5,-139.13 555.5,-135.93 555.5,-135.93 555.5,-129.51 555.5,-129.51 555.5,-126.3 558.71,-123.09 561.92,-123.09 561.92,-123.09 715.08,-123.09 715.08,-123.09 718.29,-123.09 721.5,-126.3 721.5,-129.51 721.5,-129.51 721.5,-135.93 721.5,-135.93 721.5,-139.13 718.29,-142.34 715.08,-142.34"/>
<text text-anchor="start" x="563.5" y="-129.79" font-family="Helvetica,sans-Serif" font-size="9.00">VideoThumbnailGeneratorAdapter.ts</text>
</a>
</g>
</g>
<!-- src/application/stores/videosStore.ts&#45;&gt;src/infrastructure/adapters/VideoThumbnailGeneratorAdapter.ts -->
<g id="edge23" class="edge">
<title>src/application/stores/videosStore.ts&#45;&gt;src/infrastructure/adapters/VideoThumbnailGeneratorAdapter.ts</title>
<path fill="none" stroke="#000000" stroke-width="2" stroke-opacity="0.200000" d="M449.1,-302.77C453.82,-300.6 458.17,-297.67 461.5,-293.72 479.69,-272.14 453.93,-254.26 469.5,-230.72 498.72,-186.55 555.2,-159.72 594.57,-145.56"/>
<polygon fill="#000000" fill-opacity="0.200000" stroke="#000000" stroke-width="2" stroke-opacity="0.200000" points="594.86,-147.68 599.83,-143.72 593.47,-143.71 594.86,-147.68"/>
</g>
<!-- src/application/usecases/AddVideosFromFilesUseCase.ts&#45;&gt;src/application/ports/IVideoParser.ts -->
<g id="edge24" class="edge">
<title>src/application/usecases/AddVideosFromFilesUseCase.ts&#45;&gt;src/application/ports/IVideoParser.ts</title>
<path fill="none" stroke="#000000" stroke-opacity="0.200000" d="M714.53,-506.23C720.33,-503.81 725.8,-500.7 730.62,-496.72 732.54,-495.14 782.15,-358.55 799.82,-309.78"/>
<polygon fill="none" stroke="#000000" stroke-opacity="0.200000" points="801.79,-310.52 801.86,-304.17 797.84,-309.09 801.79,-310.52"/>
</g>
<!-- src/application/usecases/AddVideosFromFilesUseCase.ts&#45;&gt;src/domain/entities/index.ts -->
<g id="edge25" class="edge">
<title>src/application/usecases/AddVideosFromFilesUseCase.ts&#45;&gt;src/domain/entities/index.ts</title>
<path fill="none" stroke="#000000" stroke-opacity="0.200000" d="M712.05,-501.64C718.38,-500.2 724.65,-498.56 730.62,-496.72 805.95,-473.43 830.05,-471.26 891.38,-421.72 908.83,-407.62 923.59,-386.17 932.45,-371.58"/>
<polygon fill="none" stroke="#000000" stroke-opacity="0.200000" points="934.08,-372.95 935.32,-366.72 930.46,-370.82 934.08,-372.95"/>
</g>
<!-- src/application/usecases/UpdateVideoThumbnailsUseCase.ts&#45;&gt;src/domain/entities/index.ts -->
<g id="edge28" class="edge">
<title>src/application/usecases/UpdateVideoThumbnailsUseCase.ts&#45;&gt;src/domain/entities/index.ts</title>
<path fill="none" stroke="#000000" stroke-opacity="0.200000" d="M686.88,-470.7C701.12,-467.17 716.67,-462.79 730.62,-457.72 801.04,-432.09 879.32,-390.49 917.63,-369.2"/>
<polygon fill="none" stroke="#000000" stroke-opacity="0.200000" points="918.33,-371.21 922.55,-366.45 916.28,-367.54 918.33,-371.21"/>
</g>
<!-- src/application/usecases/UpdateVideoThumbnailsUseCase.ts&#45;&gt;src/application/ports/IVideoStorage.ts -->
<g id="edge26" class="edge">
<title>src/application/usecases/UpdateVideoThumbnailsUseCase.ts&#45;&gt;src/application/ports/IVideoStorage.ts</title>
<path fill="none" stroke="#000000" stroke-opacity="0.200000" d="M714.61,-470.77C720.71,-467.44 726.21,-463.17 730.62,-457.72 745.46,-439.4 723.53,-263.83 738.62,-245.72 743.68,-239.66 750.59,-235.72 758.06,-233.22"/>
<polygon fill="none" stroke="#000000" stroke-opacity="0.200000" points="758.36,-235.31 763.6,-231.7 757.25,-231.26 758.36,-235.31"/>
</g>
<!-- src/application/usecases/UpdateVideoThumbnailsUseCase.ts&#45;&gt;src/application/ports/IVideoThumbnailGenerator.ts -->
<g id="edge27" class="edge">
<title>src/application/usecases/UpdateVideoThumbnailsUseCase.ts&#45;&gt;src/application/ports/IVideoThumbnailGenerator.ts</title>
<path fill="none" stroke="#000000" stroke-opacity="0.200000" d="M714.57,-470.74C720.68,-467.42 726.19,-463.16 730.62,-457.72 742.4,-443.27 728.14,-313.66 740.27,-278.34"/>
<polygon fill="none" stroke="#000000" stroke-opacity="0.200000" points="742.08,-279.4 743.02,-273.11 738.37,-277.45 742.08,-279.4"/>
</g>
<!-- src/infrastructure/adapters/VideoStorageAdapter.ts&#45;&gt;src/domain/entities/index.ts -->
<g id="edge32" class="edge">
<title>src/infrastructure/adapters/VideoStorageAdapter.ts&#45;&gt;src/domain/entities/index.ts</title>
<path fill="none" stroke="#000000" stroke-opacity="0.200000" d="M653.04,-91.65C671.34,-78.74 705.5,-57.02 738.62,-48.72 771.55,-40.47 865.52,-26.73 891.38,-48.72 935.77,-86.47 940.85,-278.81 941.35,-338.22"/>
<polygon fill="none" stroke="#000000" stroke-opacity="0.200000" points="939.25,-338.18 941.38,-344.17 943.45,-338.16 939.25,-338.18"/>
</g>
<!-- src/infrastructure/adapters/VideoStorageAdapter.ts&#45;&gt;src/application/ports/IVideoStorage.ts -->
<g id="edge31" class="edge">
<title>src/infrastructure/adapters/VideoStorageAdapter.ts&#45;&gt;src/application/ports/IVideoStorage.ts</title>
<path fill="none" stroke="#000000" stroke-opacity="0.200000" d="M695.35,-99.98C708.46,-102.29 721.32,-107.21 730.62,-116.72 748.21,-134.68 726.55,-150.66 738.62,-172.72 748.74,-191.2 767.23,-206.46 782.28,-216.68"/>
<polygon fill="none" stroke="#000000" stroke-opacity="0.200000" points="781.05,-218.39 787.22,-219.92 783.35,-214.87 781.05,-218.39"/>
</g>
<!-- src/infrastructure/adapters/VideoStorageAdapter.ts&#45;&gt;src/infrastructure/services/index.ts -->
<g id="edge33" class="edge">
<title>src/infrastructure/adapters/VideoStorageAdapter.ts&#45;&gt;src/infrastructure/services/index.ts</title>
<path fill="none" stroke="#000000" stroke-width="2" stroke-opacity="0.200000" d="M692.18,-91.59C717.92,-86.65 748.18,-80.83 771.03,-76.44"/>
<polygon fill="#000000" fill-opacity="0.200000" stroke="#000000" stroke-width="2" stroke-opacity="0.200000" points="771.24,-78.54 776.74,-75.34 770.45,-74.41 771.24,-78.54"/>
</g>
<!-- src/infrastructure/adapters/VideoThumbnailGeneratorAdapter.ts&#45;&gt;src/application/ports/IVideoThumbnailGenerator.ts -->
<g id="edge34" class="edge">
<title>src/infrastructure/adapters/VideoThumbnailGeneratorAdapter.ts&#45;&gt;src/application/ports/IVideoThumbnailGenerator.ts</title>
<path fill="none" stroke="#000000" stroke-opacity="0.200000" d="M657.3,-142.73C678.26,-155.48 712.49,-179.54 730.62,-209.72 739.29,-224.14 726.76,-234.78 738.62,-246.72 738.74,-246.83 738.86,-246.95 738.98,-247.06"/>
<polygon fill="none" stroke="#000000" stroke-opacity="0.200000" points="737.54,-248.6 743.52,-250.76 740.19,-245.35 737.54,-248.6"/>
</g>
<!-- src/infrastructure/adapters/VideoThumbnailGeneratorAdapter.ts&#45;&gt;src/infrastructure/video/index.ts -->
<g id="edge35" class="edge">
<title>src/infrastructure/adapters/VideoThumbnailGeneratorAdapter.ts&#45;&gt;src/infrastructure/video/index.ts</title>
<path fill="none" stroke="#000000" stroke-width="2" stroke-opacity="0.200000" d="M721.77,-132.72C738.98,-132.72 756.24,-132.72 770.62,-132.72"/>
<polygon fill="#000000" fill-opacity="0.200000" stroke="#000000" stroke-width="2" stroke-opacity="0.200000" points="770.59,-134.82 776.59,-132.72 770.59,-130.62 770.59,-134.82"/>
</g>
<!-- src/application/usecases/index.ts -->
<g id="node19" class="node">
<title>src/application/usecases/index.ts</title>
<g id="a_node19"><a xlink:href="src/application/usecases/index.ts" xlink:title="index.ts">
<path fill="#ddfeff" stroke="black" d="M525.08,-490.34C525.08,-490.34 483.92,-490.34 483.92,-490.34 480.71,-490.34 477.5,-487.13 477.5,-483.93 477.5,-483.93 477.5,-477.51 477.5,-477.51 477.5,-474.3 480.71,-471.09 483.92,-471.09 483.92,-471.09 525.08,-471.09 525.08,-471.09 528.29,-471.09 531.5,-474.3 531.5,-477.51 531.5,-477.51 531.5,-483.93 531.5,-483.93 531.5,-487.13 528.29,-490.34 525.08,-490.34"/>
<text text-anchor="start" x="488.75" y="-477.79" font-family="Helvetica,sans-Serif" font-size="9.00">index.ts</text>
</a>
</g>
</g>
<!-- src/application/usecases/index.ts&#45;&gt;src/application/usecases/AddVideosFromFilesUseCase.ts -->
<g id="edge29" class="edge">
<title>src/application/usecases/index.ts&#45;&gt;src/application/usecases/AddVideosFromFilesUseCase.ts</title>
<path fill="none" stroke="#000000" stroke-width="2" stroke-opacity="0.200000" d="M524.18,-490.68C529.06,-492.96 534.38,-495.16 562.36,-502.49"/>
<polygon fill="#000000" fill-opacity="0.200000" stroke="#000000" stroke-width="2" stroke-opacity="0.200000" points="565.16,-501.1 569.06,-509.2 560.96,-505.3 565.16,-501.1"/>
</g>
<!-- src/application/usecases/index.ts&#45;&gt;src/application/usecases/UpdateVideoThumbnailsUseCase.ts -->
<g id="edge30" class="edge">
<title>src/application/usecases/index.ts&#45;&gt;src/application/usecases/UpdateVideoThumbnailsUseCase.ts</title>
<path fill="none" stroke="#000000" stroke-width="2" stroke-opacity="0.200000" d="M531.89,-480.72C538.59,-480.72 546.15,-480.72 554.07,-480.72"/>
<polygon fill="#000000" fill-opacity="0.200000" stroke="#000000" stroke-width="2" stroke-opacity="0.200000" points="556.88,-479.32 560.78,-487.42 552.68,-483.52 556.88,-479.32"/>
</g>
<!-- src/presentation/components/VideoCard.vue -->
<g id="node20" class="node">
<title>src/presentation/components/VideoCard.vue</title>
<g id="a_node20"><a xlink:href="src/presentation/components/VideoCard.vue" xlink:title="VideoCard.vue">
<path fill="#41f083" stroke="black" d="M232.83,-115.34C232.83,-115.34 169.67,-115.34 169.67,-115.34 166.46,-115.34 163.25,-112.13 163.25,-108.93 163.25,-108.93 163.25,-102.51 163.25,-102.51 163.25,-99.3 166.46,-96.09 169.67,-96.09 169.67,-96.09 232.83,-96.09 232.83,-96.09 236.04,-96.09 239.25,-99.3 239.25,-102.51 239.25,-102.51 239.25,-108.93 239.25,-108.93 239.25,-112.13 236.04,-115.34 232.83,-115.34"/>
<text text-anchor="start" x="171.25" y="-102.79" font-family="Helvetica,sans-Serif" font-size="9.00">VideoCard.vue</text>
</a>
</g>
</g>
<!-- src/presentation/components/VideoCard.vue&#45;&gt;src/domain/entities/index.ts -->
<g id="edge37" class="edge">
<title>src/presentation/components/VideoCard.vue&#45;&gt;src/domain/entities/index.ts</title>
<path fill="none" stroke="#000000" stroke-opacity="0.200000" d="M217.71,-95.65C251.31,-74.78 334.09,-28.72 410.38,-28.72 410.38,-28.72 410.38,-28.72 639.5,-28.72 751.48,-28.72 807.19,39.12 891.38,-34.72 937.43,-75.12 941.33,-278.12 941.45,-338.65"/>
<polygon fill="none" stroke="#000000" stroke-opacity="0.200000" points="939.35,-338.4 941.45,-344.4 943.55,-338.4 939.35,-338.4"/>
</g>
<!-- src/presentation/components/VideoCard.vue&#45;&gt;src/application/stores/index.ts -->
<g id="edge36" class="edge">
<title>src/presentation/components/VideoCard.vue&#45;&gt;src/application/stores/index.ts</title>
<path fill="none" stroke="#000000" stroke-width="2" stroke-opacity="0.200000" d="M239.39,-105.4C253.04,-107.1 267.71,-111.31 278.25,-120.72 318.85,-156.95 326.72,-226.02 328.08,-259.12"/>
<polygon fill="#000000" fill-opacity="0.200000" stroke="#000000" stroke-width="2" stroke-opacity="0.200000" points="325.98,-258.84 328.24,-264.78 330.17,-258.73 325.98,-258.84"/>
</g>
<!-- src/presentation/components/inputs/FileInput.vue -->
<g id="node21" class="node">
<title>src/presentation/components/inputs/FileInput.vue</title>
<g id="a_node21"><a xlink:href="src/presentation/components/inputs/FileInput.vue" xlink:title="FileInput.vue">
<path fill="#41f083" stroke="black" d="M228.71,-214.34C228.71,-214.34 173.79,-214.34 173.79,-214.34 170.58,-214.34 167.38,-211.13 167.38,-207.93 167.38,-207.93 167.38,-201.51 167.38,-201.51 167.38,-198.3 170.58,-195.09 173.79,-195.09 173.79,-195.09 228.71,-195.09 228.71,-195.09 231.92,-195.09 235.12,-198.3 235.12,-201.51 235.12,-201.51 235.12,-207.93 235.12,-207.93 235.12,-211.13 231.92,-214.34 228.71,-214.34"/>
<text text-anchor="start" x="175.38" y="-201.79" font-family="Helvetica,sans-Serif" font-size="9.00">FileInput.vue</text>
</a>
</g>
</g>
<!-- src/presentation/components/inputs/FileInput.vue&#45;&gt;src/application/stores/index.ts -->
<g id="edge38" class="edge">
<title>src/presentation/components/inputs/FileInput.vue&#45;&gt;src/application/stores/index.ts</title>
<path fill="none" stroke="#000000" stroke-width="2" stroke-opacity="0.200000" d="M219.51,-214.71C241.16,-227.26 278.45,-248.86 303.23,-263.22"/>
<polygon fill="#000000" fill-opacity="0.200000" stroke="#000000" stroke-width="2" stroke-opacity="0.200000" points="301.93,-264.9 308.18,-266.09 304.04,-261.26 301.93,-264.9"/>
</g>
<!-- src/presentation/components/utils/DiagnosticsPanel.vue -->
<g id="node22" class="node">
<title>src/presentation/components/utils/DiagnosticsPanel.vue</title>
<g id="a_node22"><a xlink:href="src/presentation/components/utils/DiagnosticsPanel.vue" xlink:title="DiagnosticsPanel.vue">
<path fill="#41f083" stroke="black" d="M247.83,-151.34C247.83,-151.34 154.67,-151.34 154.67,-151.34 151.46,-151.34 148.25,-148.13 148.25,-144.93 148.25,-144.93 148.25,-138.51 148.25,-138.51 148.25,-135.3 151.46,-132.09 154.67,-132.09 154.67,-132.09 247.83,-132.09 247.83,-132.09 251.04,-132.09 254.25,-135.3 254.25,-138.51 254.25,-138.51 254.25,-144.93 254.25,-144.93 254.25,-148.13 251.04,-151.34 247.83,-151.34"/>
<text text-anchor="start" x="156.25" y="-138.79" font-family="Helvetica,sans-Serif" font-size="9.00">DiagnosticsPanel.vue</text>
</a>
</g>
</g>
<!-- src/presentation/components/utils/DiagnosticsPanel.vue&#45;&gt;src/infrastructure/services/index.ts -->
<g id="edge40" class="edge">
<title>src/presentation/components/utils/DiagnosticsPanel.vue&#45;&gt;src/infrastructure/services/index.ts</title>
<path fill="none" stroke="#000000" stroke-width="2" stroke-opacity="0.200000" d="M254.53,-133.65C262.54,-131.96 270.67,-129.99 278.25,-127.72 339.34,-109.39 346.6,-71.72 410.38,-71.72 410.38,-71.72 410.38,-71.72 505.5,-71.72 601.62,-71.72 715.04,-70.68 771.06,-70.1"/>
<polygon fill="#000000" fill-opacity="0.200000" stroke="#000000" stroke-width="2" stroke-opacity="0.200000" points="770.87,-72.2 776.85,-70.04 770.82,-68 770.87,-72.2"/>
</g>
<!-- src/presentation/components/utils/DiagnosticsPanel.vue&#45;&gt;src/application/stores/index.ts -->
<g id="edge39" class="edge">
<title>src/presentation/components/utils/DiagnosticsPanel.vue&#45;&gt;src/application/stores/index.ts</title>
<path fill="none" stroke="#000000" stroke-width="2" stroke-opacity="0.200000" d="M228.65,-151.75C244.52,-158.81 264.29,-169.53 278.25,-183.72 299.84,-205.65 314.49,-238.82 322.1,-259.33"/>
<polygon fill="#000000" fill-opacity="0.200000" stroke="#000000" stroke-width="2" stroke-opacity="0.200000" points="320.1,-259.97 324.09,-264.92 324.06,-258.56 320.1,-259.97"/>
</g>
<!-- src/presentation/views/NavBar.vue -->
<g id="node23" class="node">
<title>src/presentation/views/NavBar.vue</title>
<g id="a_node23"><a xlink:href="src/presentation/views/NavBar.vue" xlink:title="NavBar.vue">
<path fill="#41f083" stroke="black" d="M98.96,-227.34C98.96,-227.34 49.29,-227.34 49.29,-227.34 46.08,-227.34 42.88,-224.13 42.88,-220.93 42.88,-220.93 42.88,-214.51 42.88,-214.51 42.88,-211.3 46.08,-208.09 49.29,-208.09 49.29,-208.09 98.96,-208.09 98.96,-208.09 102.17,-208.09 105.38,-211.3 105.38,-214.51 105.38,-214.51 105.38,-220.93 105.38,-220.93 105.38,-224.13 102.17,-227.34 98.96,-227.34"/>
<text text-anchor="start" x="50.88" y="-214.79" font-family="Helvetica,sans-Serif" font-size="9.00">NavBar.vue</text>
</a>
</g>
</g>
<!-- src/presentation/views/NavBar.vue&#45;&gt;src/application/stores/index.ts -->
<g id="edge41" class="edge">
<title>src/presentation/views/NavBar.vue&#45;&gt;src/application/stores/index.ts</title>
<path fill="none" stroke="#000000" stroke-width="2" stroke-opacity="0.200000" d="M80.34,-227.64C88.87,-242.66 107.38,-270.58 132.25,-281.72 184.38,-305.06 252.38,-296.08 293.05,-287.12"/>
<polygon fill="#000000" fill-opacity="0.200000" stroke="#000000" stroke-width="2" stroke-opacity="0.200000" points="293.47,-289.18 298.84,-285.79 292.52,-285.09 293.47,-289.18"/>
</g>
<!-- src/presentation/views/NavBar.vue&#45;&gt;src/presentation/components/inputs/FileInput.vue -->
<g id="edge42" class="edge">
<title>src/presentation/views/NavBar.vue&#45;&gt;src/presentation/components/inputs/FileInput.vue</title>
<path fill="none" stroke="#000000" stroke-width="2" stroke-opacity="0.200000" d="M105.73,-214.54C121.51,-212.9 140.98,-210.87 158.15,-209.09"/>
<polygon fill="#000000" fill-opacity="0.200000" stroke="#000000" stroke-width="2" stroke-opacity="0.200000" points="158.12,-211.21 163.87,-208.5 157.69,-207.03 158.12,-211.21"/>
</g>
<!-- src/presentation/views/VideoGallery.vue -->
<g id="node24" class="node">
<title>src/presentation/views/VideoGallery.vue</title>
<g id="a_node24"><a xlink:href="src/presentation/views/VideoGallery.vue" xlink:title="VideoGallery.vue">
<path fill="#41f083" stroke="black" d="M109.83,-196.34C109.83,-196.34 38.42,-196.34 38.42,-196.34 35.21,-196.34 32,-193.13 32,-189.93 32,-189.93 32,-183.51 32,-183.51 32,-180.3 35.21,-177.09 38.42,-177.09 38.42,-177.09 109.83,-177.09 109.83,-177.09 113.04,-177.09 116.25,-180.3 116.25,-183.51 116.25,-183.51 116.25,-189.93 116.25,-189.93 116.25,-193.13 113.04,-196.34 109.83,-196.34"/>
<text text-anchor="start" x="40" y="-183.79" font-family="Helvetica,sans-Serif" font-size="9.00">VideoGallery.vue</text>
</a>
</g>
</g>
<!-- src/presentation/views/VideoGallery.vue&#45;&gt;src/application/stores/index.ts -->
<g id="edge43" class="edge">
<title>src/presentation/views/VideoGallery.vue&#45;&gt;src/application/stores/index.ts</title>
<path fill="none" stroke="#000000" stroke-width="2" stroke-opacity="0.200000" d="M116.41,-195.33C119.32,-197.08 121.99,-199.19 124.25,-201.72 137.2,-216.21 118.39,-231.09 132.25,-244.72 154.49,-266.58 243.03,-274.02 293.17,-276.51"/>
<polygon fill="#000000" fill-opacity="0.200000" stroke="#000000" stroke-width="2" stroke-opacity="0.200000" points="292.94,-278.6 299.03,-276.78 293.13,-274.4 292.94,-278.6"/>
</g>
<!-- src/presentation/views/VideoGallery.vue&#45;&gt;src/presentation/components/VideoCard.vue -->
<g id="edge44" class="edge">
<title>src/presentation/views/VideoGallery.vue&#45;&gt;src/presentation/components/VideoCard.vue</title>
<path fill="none" stroke="#000000" stroke-width="2" stroke-opacity="0.200000" d="M80.75,-176.9C89.68,-162.24 108.55,-134.83 132.25,-120.72 139.04,-116.67 146.79,-113.72 154.58,-111.56"/>
<polygon fill="#000000" fill-opacity="0.200000" stroke="#000000" stroke-width="2" stroke-opacity="0.200000" points="154.72,-113.68 160.05,-110.22 153.73,-109.6 154.72,-113.68"/>
</g>
</g>
</svg>
