<?xml version="1.0" encoding="UTF-8" standalone="no"?>
<!DOCTYPE svg PUBLIC "-//W3C//DTD SVG 1.1//EN"
 "http://www.w3.org/Graphics/SVG/1.1/DTD/svg11.dtd">
<!-- Generated by graphviz version 2.43.0 (0)
 -->
<!-- Title: dependency&#45;cruiser output Pages: 1 -->
<svg width="474pt" height="248pt"
 viewBox="0.00 0.00 474.00 248.00" xmlns="http://www.w3.org/2000/svg" xmlns:xlink="http://www.w3.org/1999/xlink">
<g id="graph0" class="graph" transform="scale(1 1) rotate(0) translate(4 244)">
<title>dependency&#45;cruiser output</title>
<polygon fill="white" stroke="transparent" points="-4,4 -4,-244 470,-244 470,4 -4,4"/>
<g id="clust1" class="cluster">
<title>cluster_src</title>
<path fill="#ffffff" stroke="black" stroke-width="2" d="M20,-8C20,-8 446,-8 446,-8 452,-8 458,-14 458,-20 458,-20 458,-220 458,-220 458,-226 452,-232 446,-232 446,-232 20,-232 20,-232 14,-232 8,-226 8,-220 8,-220 8,-20 8,-20 8,-14 14,-8 20,-8"/>
<text text-anchor="middle" x="233" y="-220.8" font-family="Helvetica,sans-Serif" font-weight="bold" font-size="9.00">src</text>
</g>
<g id="clust2" class="cluster">
<title>cluster_src/application</title>
<path fill="#ffffff" stroke="black" stroke-width="2" d="M142,-34C142,-34 346,-34 346,-34 352,-34 358,-40 358,-46 358,-46 358,-104 358,-104 358,-110 352,-116 346,-116 346,-116 142,-116 142,-116 136,-116 130,-110 130,-104 130,-104 130,-46 130,-46 130,-40 136,-34 142,-34"/>
<text text-anchor="middle" x="244" y="-104.8" font-family="Helvetica,sans-Serif" font-weight="bold" font-size="9.00">application</text>
</g>
<g id="clust3" class="cluster">
<title>cluster_src/domain</title>
<path fill="#ffffff" stroke="black" stroke-width="2" d="M378,-16C378,-16 438,-16 438,-16 444,-16 450,-22 450,-28 450,-28 450,-116 450,-116 450,-122 444,-128 438,-128 438,-128 378,-128 378,-128 372,-128 366,-122 366,-116 366,-116 366,-28 366,-28 366,-22 372,-16 378,-16"/>
<text text-anchor="middle" x="408" y="-116.8" font-family="Helvetica,sans-Serif" font-weight="bold" font-size="9.00">domain</text>
</g>
<g id="clust4" class="cluster">
<title>cluster_src/infrastructure</title>
<path fill="#ffffff" stroke="black" stroke-width="2" d="M133,-124C133,-124 198,-124 198,-124 204,-124 210,-130 210,-136 210,-136 210,-194 210,-194 210,-200 204,-206 198,-206 198,-206 133,-206 133,-206 127,-206 121,-200 121,-194 121,-194 121,-136 121,-136 121,-130 127,-124 133,-124"/>
<text text-anchor="middle" x="165.5" y="-194.8" font-family="Helvetica,sans-Serif" font-weight="bold" font-size="9.00">infrastructure</text>
</g>
<g id="clust5" class="cluster">
<title>cluster_src/presentation</title>
<path fill="#ffffff" stroke="black" stroke-width="2" d="M28,-45C28,-45 93,-45 93,-45 99,-45 105,-51 105,-57 105,-57 105,-115 105,-115 105,-121 99,-127 93,-127 93,-127 28,-127 28,-127 22,-127 16,-121 16,-115 16,-115 16,-57 16,-57 16,-51 22,-45 28,-45"/>
<text text-anchor="middle" x="60.5" y="-115.8" font-family="Helvetica,sans-Serif" font-weight="bold" font-size="9.00">presentation</text>
</g>
<!-- src/application/index.ts -->
<g id="node1" class="node">
<title>src/application/index.ts</title>
<g id="a_node1"><a xlink:href="src/application/index.ts" xlink:title="index.ts">
<path fill="#ddfeff" stroke="black" d="M186,-90C186,-90 144,-90 144,-90 141,-90 138,-87 138,-84 138,-84 138,-78 138,-78 138,-75 141,-72 144,-72 144,-72 186,-72 186,-72 189,-72 192,-75 192,-78 192,-78 192,-84 192,-84 192,-87 189,-90 186,-90"/>
<text text-anchor="start" x="146.5" y="-78.8" font-family="Helvetica,sans-Serif" font-size="9.00">index.ts</text>
</a>
</g>
</g>
<!-- src/application/usecases -->
<g id="node2" class="node">
<title>src/application/usecases</title>
<g id="a_node2"><a xlink:href="src/application/usecases" xlink:title="usecases">
<polygon fill="#ffffcc" stroke="black" points="283,-90 228,-90 226,-88 226,-72 281,-72 283,-74 283,-90"/>
<polyline fill="none" stroke="black" points="281,-88 226,-88 "/>
<polyline fill="none" stroke="black" points="281,-88 281,-72 "/>
<polyline fill="none" stroke="black" points="281,-88 283,-90 "/>
<text text-anchor="start" x="234" y="-78.8" font-family="Helvetica,sans-Serif" font-size="9.00">usecases</text>
</a>
</g>
</g>
<!-- src/application/index.ts&#45;&gt;src/application/usecases -->
<g id="edge1" class="edge">
<title>src/application/index.ts&#45;&gt;src/application/usecases</title>
<path fill="none" stroke="#000000" stroke-width="2" stroke-opacity="0.200000" d="M192.25,-81C200.84,-81 210.51,-81 219.58,-81"/>
<polygon fill="#000000" fill-opacity="0.200000" stroke="#000000" stroke-width="2" stroke-opacity="0.200000" points="225.74,-83.1 219.74,-81 225.74,-78.9 225.74,-83.1"/>
</g>
<!-- src/application/ports -->
<g id="node3" class="node">
<title>src/application/ports</title>
<g id="a_node3"><a xlink:href="src/application/ports" xlink:title="ports">
<polygon fill="#ffffcc" stroke="black" points="350,-90 298,-90 296,-88 296,-72 348,-72 350,-74 350,-90"/>
<polyline fill="none" stroke="black" points="348,-88 296,-88 "/>
<polyline fill="none" stroke="black" points="348,-88 348,-72 "/>
<polyline fill="none" stroke="black" points="348,-88 350,-90 "/>
<text text-anchor="start" x="311" y="-78.8" font-family="Helvetica,sans-Serif" font-size="9.00">ports</text>
</a>
</g>
</g>
<!-- src/application/usecases&#45;&gt;src/application/ports -->
<g id="edge4" class="edge">
<title>src/application/usecases&#45;&gt;src/application/ports</title>
<path fill="none" stroke="#000000" stroke-opacity="0.200000" d="M283.32,-81C285.38,-81 287.47,-81 289.56,-81"/>
<polygon fill="none" stroke="#000000" stroke-opacity="0.200000" points="289.78,-83.1 295.78,-81 289.78,-78.9 289.78,-83.1"/>
</g>
<!-- src/domain/entities -->
<g id="node4" class="node">
<title>src/domain/entities</title>
<g id="a_node4"><a xlink:href="src/domain/entities" xlink:title="entities">
<polygon fill="#ffffcc" stroke="black" points="435,-72 383,-72 381,-70 381,-54 433,-54 435,-56 435,-72"/>
<polyline fill="none" stroke="black" points="433,-70 381,-70 "/>
<polyline fill="none" stroke="black" points="433,-70 433,-54 "/>
<polyline fill="none" stroke="black" points="433,-70 435,-72 "/>
<text text-anchor="start" x="391" y="-60.8" font-family="Helvetica,sans-Serif" font-size="9.00">entities</text>
</a>
</g>
</g>
<!-- src/application/usecases&#45;&gt;src/domain/entities -->
<g id="edge5" class="edge">
<title>src/application/usecases&#45;&gt;src/domain/entities</title>
<path fill="none" stroke="#000000" stroke-opacity="0.200000" d="M266.39,-71.95C274.12,-66.13 285.03,-59.11 296,-56 321.81,-48.68 352.3,-51.36 374.79,-55.35"/>
<polygon fill="none" stroke="#000000" stroke-opacity="0.200000" points="374.62,-57.46 380.91,-56.51 375.4,-53.33 374.62,-57.46"/>
</g>
<!-- src/domain/services -->
<g id="node6" class="node">
<title>src/domain/services</title>
<g id="a_node6"><a xlink:href="src/domain/services" xlink:title="services">
<polygon fill="#ffffcc" stroke="black" points="435,-42 383,-42 381,-40 381,-24 433,-24 435,-26 435,-42"/>
<polyline fill="none" stroke="black" points="433,-40 381,-40 "/>
<polyline fill="none" stroke="black" points="433,-40 433,-24 "/>
<polyline fill="none" stroke="black" points="433,-40 435,-42 "/>
<text text-anchor="start" x="389.5" y="-30.8" font-family="Helvetica,sans-Serif" font-size="9.00">services</text>
</a>
</g>
</g>
<!-- src/application/usecases&#45;&gt;src/domain/services -->
<g id="edge6" class="edge">
<title>src/application/usecases&#45;&gt;src/domain/services</title>
<path fill="none" stroke="#000000" stroke-width="2" stroke-opacity="0.200000" d="M263.86,-71.8C271.44,-64.09 283.35,-53.48 296,-48 320.95,-37.18 351.77,-33.71 374.6,-32.78"/>
<polygon fill="#000000" fill-opacity="0.200000" stroke="#000000" stroke-width="2" stroke-opacity="0.200000" points="374.88,-34.87 380.81,-32.58 374.75,-30.68 374.88,-34.87"/>
</g>
<!-- src/domain/repositories -->
<g id="node7" class="node">
<title>src/domain/repositories</title>
<g id="a_node7"><a xlink:href="src/domain/repositories" xlink:title="repositories">
<polygon fill="#ffffcc" stroke="black" points="442,-102 376,-102 374,-100 374,-84 440,-84 442,-86 442,-102"/>
<polyline fill="none" stroke="black" points="440,-100 374,-100 "/>
<polyline fill="none" stroke="black" points="440,-100 440,-84 "/>
<polyline fill="none" stroke="black" points="440,-100 442,-102 "/>
<text text-anchor="start" x="382" y="-90.8" font-family="Helvetica,sans-Serif" font-size="9.00">repositories</text>
</a>
</g>
</g>
<!-- src/application/usecases&#45;&gt;src/domain/repositories -->
<g id="edge7" class="edge">
<title>src/application/usecases&#45;&gt;src/domain/repositories</title>
<path fill="none" stroke="#000000" stroke-opacity="0.200000" d="M274.07,-71.85C295.54,-62.66 331.36,-51.74 358,-66 363.65,-69.02 360.96,-74.04 366,-78 367.25,-78.98 368.57,-79.91 369.94,-80.77"/>
<polygon fill="none" stroke="#000000" stroke-opacity="0.200000" points="369.18,-82.75 375.45,-83.84 371.23,-79.09 369.18,-82.75"/>
</g>
<!-- src/application/ports&#45;&gt;src/domain/entities -->
<g id="edge2" class="edge">
<title>src/application/ports&#45;&gt;src/domain/entities</title>
<path fill="none" stroke="#000000" stroke-opacity="0.200000" d="M350.26,-75.3C358.06,-73.61 366.69,-71.74 374.81,-69.98"/>
<polygon fill="none" stroke="#000000" stroke-opacity="0.200000" points="375.49,-71.98 380.91,-68.66 374.6,-67.88 375.49,-71.98"/>
</g>
<!-- src/application/services -->
<g id="node5" class="node">
<title>src/application/services</title>
<g id="a_node5"><a xlink:href="src/application/services" xlink:title="services">
<polygon fill="#ffffcc" stroke="black" points="192,-60 140,-60 138,-58 138,-42 190,-42 192,-44 192,-60"/>
<polyline fill="none" stroke="black" points="190,-58 138,-58 "/>
<polyline fill="none" stroke="black" points="190,-58 190,-42 "/>
<polyline fill="none" stroke="black" points="190,-58 192,-60 "/>
<text text-anchor="start" x="146.5" y="-48.8" font-family="Helvetica,sans-Serif" font-size="9.00">services</text>
</a>
</g>
</g>
<!-- src/application/services&#45;&gt;src/domain/entities -->
<g id="edge3" class="edge">
<title>src/application/services&#45;&gt;src/domain/entities</title>
<path fill="none" stroke="#000000" stroke-opacity="0.200000" d="M192.27,-47.89C229.41,-44.1 299.31,-39.22 358,-48 364.14,-48.92 370.57,-50.45 376.68,-52.19"/>
<polygon fill="none" stroke="#000000" stroke-opacity="0.200000" points="376.3,-54.27 382.65,-53.99 377.51,-50.25 376.3,-54.27"/>
</g>
<!-- src/infrastructure/adapters -->
<g id="node8" class="node">
<title>src/infrastructure/adapters</title>
<g id="a_node8"><a xlink:href="src/infrastructure/adapters" xlink:title="adapters">
<polygon fill="#ffffcc" stroke="black" points="193,-180 139,-180 137,-178 137,-162 191,-162 193,-164 193,-180"/>
<polyline fill="none" stroke="black" points="191,-178 137,-178 "/>
<polyline fill="none" stroke="black" points="191,-178 191,-162 "/>
<polyline fill="none" stroke="black" points="191,-178 193,-180 "/>
<text text-anchor="start" x="145" y="-168.8" font-family="Helvetica,sans-Serif" font-size="9.00">adapters</text>
</a>
</g>
</g>
<!-- src/infrastructure/adapters&#45;&gt;src/application/ports -->
<g id="edge8" class="edge">
<title>src/infrastructure/adapters&#45;&gt;src/application/ports</title>
<path fill="none" stroke="#000000" stroke-opacity="0.200000" d="M193.15,-165.09C199.12,-162.91 205.11,-159.97 210,-156 220.83,-147.21 215.79,-138.51 226,-129 236.67,-119.07 270.15,-103.35 294.58,-92.62"/>
<polygon fill="none" stroke="#000000" stroke-opacity="0.200000" points="295.61,-94.47 300.27,-90.15 293.93,-90.62 295.61,-94.47"/>
</g>
<!-- src/infrastructure/adapters&#45;&gt;src/domain/entities -->
<g id="edge9" class="edge">
<title>src/infrastructure/adapters&#45;&gt;src/domain/entities</title>
<path fill="none" stroke="#000000" stroke-opacity="0.200000" d="M193.02,-164.07C245.23,-150.64 355.13,-122.08 358,-119 370.65,-105.41 353.95,-92.12 366,-78 368.52,-75.05 371.67,-72.68 375.1,-70.77"/>
<polygon fill="none" stroke="#000000" stroke-opacity="0.200000" points="376.13,-72.61 380.66,-68.15 374.34,-68.81 376.13,-72.61"/>
</g>
<!-- src/infrastructure/adapters&#45;&gt;src/domain/repositories -->
<g id="edge10" class="edge">
<title>src/infrastructure/adapters&#45;&gt;src/domain/repositories</title>
<path fill="none" stroke="#000000" stroke-opacity="0.200000" d="M193.2,-170.82C231.77,-169.56 303.68,-163.47 358,-137 372.84,-129.77 386.52,-116.7 395.64,-106.68"/>
<polygon fill="none" stroke="#000000" stroke-opacity="0.200000" points="397.34,-107.93 399.73,-102.04 394.19,-105.15 397.34,-107.93"/>
</g>
<!-- src/infrastructure/di -->
<g id="node9" class="node">
<title>src/infrastructure/di</title>
<g id="a_node9"><a xlink:href="src/infrastructure/di" xlink:title="di">
<polygon fill="#ffffcc" stroke="black" points="192,-150 140,-150 138,-148 138,-132 190,-132 192,-134 192,-150"/>
<polyline fill="none" stroke="black" points="190,-148 138,-148 "/>
<polyline fill="none" stroke="black" points="190,-148 190,-132 "/>
<polyline fill="none" stroke="black" points="190,-148 192,-150 "/>
<text text-anchor="start" x="160.5" y="-138.8" font-family="Helvetica,sans-Serif" font-size="9.00">di</text>
</a>
</g>
</g>
<!-- src/infrastructure/di&#45;&gt;src/application/usecases -->
<g id="edge11" class="edge">
<title>src/infrastructure/di&#45;&gt;src/application/usecases</title>
<path fill="none" stroke="#000000" stroke-width="2" stroke-opacity="0.200000" d="M187.83,-131.8C195.17,-128.26 203.21,-123.89 210,-119 218.16,-113.12 218.51,-109.71 226,-103 229.38,-99.97 233.12,-96.85 236.71,-93.94"/>
<polygon fill="#000000" fill-opacity="0.200000" stroke="#000000" stroke-width="2" stroke-opacity="0.200000" points="238.1,-95.52 241.49,-90.14 235.49,-92.24 238.1,-95.52"/>
</g>
<!-- src/presentation/components -->
<g id="node10" class="node">
<title>src/presentation/components</title>
<g id="a_node10"><a xlink:href="src/presentation/components" xlink:title="components">
<polygon fill="#ffffcc" stroke="black" points="97,-101 26,-101 24,-99 24,-83 95,-83 97,-85 97,-101"/>
<polyline fill="none" stroke="black" points="95,-99 24,-99 "/>
<polyline fill="none" stroke="black" points="95,-99 95,-83 "/>
<polyline fill="none" stroke="black" points="95,-99 97,-101 "/>
<text text-anchor="start" x="32" y="-89.8" font-family="Helvetica,sans-Serif" font-size="9.00">components</text>
</a>
</g>
</g>
<!-- src/presentation/components&#45;&gt;src/application/usecases -->
<g id="edge12" class="edge">
<title>src/presentation/components&#45;&gt;src/application/usecases</title>
<path fill="none" stroke="#000000" stroke-opacity="0.200000" d="M97.17,-96.78C127.42,-99.92 171.85,-102.39 210,-96 215.21,-95.13 220.63,-93.7 225.81,-92.07"/>
<polygon fill="none" stroke="#000000" stroke-opacity="0.200000" points="226.72,-93.98 231.74,-90.09 225.38,-90 226.72,-93.98"/>
</g>
<!-- src/presentation/stores -->
<g id="node11" class="node">
<title>src/presentation/stores</title>
<g id="a_node11"><a xlink:href="src/presentation/stores" xlink:title="stores">
<polygon fill="#ffffcc" stroke="black" points="87.5,-71 35.5,-71 33.5,-69 33.5,-53 85.5,-53 87.5,-55 87.5,-71"/>
<polyline fill="none" stroke="black" points="85.5,-69 33.5,-69 "/>
<polyline fill="none" stroke="black" points="85.5,-69 85.5,-53 "/>
<polyline fill="none" stroke="black" points="85.5,-69 87.5,-71 "/>
<text text-anchor="start" x="46.5" y="-59.8" font-family="Helvetica,sans-Serif" font-size="9.00">stores</text>
</a>
</g>
</g>
<!-- src/presentation/stores&#45;&gt;src/application/services -->
<g id="edge13" class="edge">
<title>src/presentation/stores&#45;&gt;src/application/services</title>
<path fill="none" stroke="#000000" stroke-width="2" stroke-opacity="0.200000" d="M87.63,-59.2C101,-57.76 117.41,-56 131.58,-54.48"/>
<polygon fill="#000000" fill-opacity="0.200000" stroke="#000000" stroke-width="2" stroke-opacity="0.200000" points="132.18,-56.53 137.92,-53.8 131.73,-52.35 132.18,-56.53"/>
</g>
</g>
</svg>
