<?xml version="1.0" encoding="UTF-8" standalone="no"?>
<!DOCTYPE svg PUBLIC "-//W3C//DTD SVG 1.1//EN"
 "http://www.w3.org/Graphics/SVG/1.1/DTD/svg11.dtd">
<!-- Generated by graphviz version 9.0.0 (20230911.1827)
 -->
<!-- Title: dependency&#45;cruiser output Pages: 1 -->
<svg width="441pt" height="317pt"
 viewBox="0.00 0.00 441.12 317.00" xmlns="http://www.w3.org/2000/svg" xmlns:xlink="http://www.w3.org/1999/xlink">
<g id="graph0" class="graph" transform="scale(1 1) rotate(0) translate(4 313)">
<title>dependency&#45;cruiser output</title>
<polygon fill="white" stroke="none" points="-4,4 -4,-313 437.12,-313 437.12,4 -4,4"/>
<g id="clust1" class="cluster">
<title>cluster_src</title>
<path fill="#ffffff" stroke="black" stroke-width="2" d="M20,-8C20,-8 413.12,-8 413.12,-8 419.12,-8 425.12,-14 425.12,-20 425.12,-20 425.12,-289 425.12,-289 425.12,-295 419.12,-301 413.12,-301 413.12,-301 20,-301 20,-301 14,-301 8,-295 8,-289 8,-289 8,-20 8,-20 8,-14 14,-8 20,-8"/>
<text text-anchor="middle" x="216.56" y="-288.45" font-family="Helvetica,sans-Serif" font-weight="bold" font-size="9.00">src</text>
</g>
<g id="clust2" class="cluster">
<title>cluster_src/application</title>
<path fill="#ffffff" stroke="black" stroke-width="2" d="M119.75,-178C119.75,-178 315.62,-178 315.62,-178 321.62,-178 327.62,-184 327.62,-190 327.62,-190 327.62,-252 327.62,-252 327.62,-258 321.62,-264 315.62,-264 315.62,-264 119.75,-264 119.75,-264 113.75,-264 107.75,-258 107.75,-252 107.75,-252 107.75,-190 107.75,-190 107.75,-184 113.75,-178 119.75,-178"/>
<text text-anchor="middle" x="217.69" y="-251.45" font-family="Helvetica,sans-Serif" font-weight="bold" font-size="9.00">application</text>
</g>
<g id="clust4" class="cluster">
<title>cluster_src/infrastructure</title>
<path fill="#ffffff" stroke="black" stroke-width="2" d="M199.75,-22C199.75,-22 315.62,-22 315.62,-22 321.62,-22 327.62,-28 327.62,-34 327.62,-34 327.62,-158 327.62,-158 327.62,-164 321.62,-170 315.62,-170 315.62,-170 199.75,-170 199.75,-170 193.75,-170 187.75,-164 187.75,-158 187.75,-158 187.75,-34 187.75,-34 187.75,-28 193.75,-22 199.75,-22"/>
<text text-anchor="middle" x="257.69" y="-157.45" font-family="Helvetica,sans-Serif" font-weight="bold" font-size="9.00">infrastructure</text>
</g>
<g id="clust3" class="cluster">
<title>cluster_src/domain</title>
<path fill="#ffffff" stroke="black" stroke-width="2" d="M347.62,-184C347.62,-184 405.12,-184 405.12,-184 411.12,-184 417.12,-190 417.12,-196 417.12,-196 417.12,-258 417.12,-258 417.12,-264 411.12,-270 405.12,-270 405.12,-270 347.62,-270 347.62,-270 341.62,-270 335.62,-264 335.62,-258 335.62,-258 335.62,-196 335.62,-196 335.62,-190 341.62,-184 347.62,-184"/>
<text text-anchor="middle" x="376.38" y="-257.45" font-family="Helvetica,sans-Serif" font-weight="bold" font-size="9.00">domain</text>
</g>
<g id="clust5" class="cluster">
<title>cluster_src/presentation</title>
<path fill="#ffffff" stroke="black" stroke-width="2" d="M28,-178C28,-178 87.75,-178 87.75,-178 93.75,-178 99.75,-184 99.75,-190 99.75,-190 99.75,-252 99.75,-252 99.75,-258 93.75,-264 87.75,-264 87.75,-264 28,-264 28,-264 22,-264 16,-258 16,-252 16,-252 16,-190 16,-190 16,-184 22,-178 28,-178"/>
<text text-anchor="middle" x="57.88" y="-251.45" font-family="Helvetica,sans-Serif" font-weight="bold" font-size="9.00">presentation</text>
</g>
<!-- src/application/container.ts -->
<g id="node1" class="node">
<title>src/application/container.ts</title>
<g id="a_node1"><a xlink:href="src/application/container.ts" xlink:title="container.ts">
<path fill="#ddfeff" stroke="black" d="M173.33,-205.62C173.33,-205.62 122.17,-205.62 122.17,-205.62 118.96,-205.62 115.75,-202.42 115.75,-199.21 115.75,-199.21 115.75,-192.79 115.75,-192.79 115.75,-189.58 118.96,-186.38 122.17,-186.38 122.17,-186.38 173.33,-186.38 173.33,-186.38 176.54,-186.38 179.75,-189.58 179.75,-192.79 179.75,-192.79 179.75,-199.21 179.75,-199.21 179.75,-202.42 176.54,-205.62 173.33,-205.62"/>
<text text-anchor="start" x="123.75" y="-193.07" font-family="Helvetica,sans-Serif" font-size="9.00">container.ts</text>
</a>
</g>
</g>
<!-- src/application/usecases -->
<g id="node2" class="node">
<title>src/application/usecases</title>
<g id="a_node2"><a xlink:href="src/application/usecases" xlink:title="usecases">
<polygon fill="#ffffcc" stroke="black" points="252.62,-216.62 197.51,-216.62 195.38,-214.49 195.38,-197.38 250.49,-197.38 252.62,-199.51 252.62,-216.62"/>
<polyline fill="none" stroke="black" points="250.49,-214.49 195.38,-214.49"/>
<polyline fill="none" stroke="black" points="250.49,-214.49 250.49,-197.38"/>
<polyline fill="none" stroke="black" points="250.49,-214.49 252.62,-216.62"/>
<text text-anchor="start" x="203.38" y="-204.07" font-family="Helvetica,sans-Serif" font-size="9.00">usecases</text>
</a>
</g>
</g>
<!-- src/application/container.ts&#45;&gt;src/application/usecases -->
<g id="edge1" class="edge">
<title>src/application/container.ts&#45;&gt;src/application/usecases</title>
<path fill="none" stroke="#000000" stroke-width="2" stroke-opacity="0.200000" d="M180.24,-200.66C182.23,-200.96 184.24,-201.26 186.25,-201.56"/>
<polygon fill="#000000" fill-opacity="0.200000" stroke="#000000" stroke-width="2" stroke-opacity="0.200000" points="185.75,-203.61 192,-202.41 186.37,-199.45 185.75,-203.61"/>
</g>
<!-- src/infrastructure/adapters -->
<g id="node3" class="node">
<title>src/infrastructure/adapters</title>
<g id="a_node3"><a xlink:href="src/infrastructure/adapters" xlink:title="adapters">
<polygon fill="#ffffcc" stroke="black" points="251,-142.62 199.14,-142.62 197,-140.49 197,-123.38 248.86,-123.38 251,-125.51 251,-142.62"/>
<polyline fill="none" stroke="black" points="248.86,-140.49 197,-140.49"/>
<polyline fill="none" stroke="black" points="248.86,-140.49 248.86,-123.38"/>
<polyline fill="none" stroke="black" points="248.86,-140.49 251,-142.62"/>
<text text-anchor="start" x="205.62" y="-130.07" font-family="Helvetica,sans-Serif" font-size="9.00">adapters</text>
</a>
</g>
</g>
<!-- src/application/container.ts&#45;&gt;src/infrastructure/adapters -->
<g id="edge2" class="edge">
<title>src/application/container.ts&#45;&gt;src/infrastructure/adapters</title>
<path fill="none" stroke="#000000" stroke-width="2" stroke-opacity="0.200000" d="M160.68,-185.88C172.55,-175.81 190.92,-160.22 204.65,-148.57"/>
<polygon fill="#000000" fill-opacity="0.200000" stroke="#000000" stroke-width="2" stroke-opacity="0.200000" points="205.82,-150.33 209.04,-144.85 203.1,-147.13 205.82,-150.33"/>
</g>
<!-- src/infrastructure/database -->
<g id="node4" class="node">
<title>src/infrastructure/database</title>
<g id="a_node4"><a xlink:href="src/infrastructure/database" xlink:title="database">
<polygon fill="#ffffcc" stroke="black" points="251.5,-111.62 198.64,-111.62 196.5,-109.49 196.5,-92.38 249.36,-92.38 251.5,-94.51 251.5,-111.62"/>
<polyline fill="none" stroke="black" points="249.36,-109.49 196.5,-109.49"/>
<polyline fill="none" stroke="black" points="249.36,-109.49 249.36,-92.38"/>
<polyline fill="none" stroke="black" points="249.36,-109.49 251.5,-111.62"/>
<text text-anchor="start" x="204.5" y="-99.08" font-family="Helvetica,sans-Serif" font-size="9.00">database</text>
</a>
</g>
</g>
<!-- src/application/container.ts&#45;&gt;src/infrastructure/database -->
<g id="edge3" class="edge">
<title>src/application/container.ts&#45;&gt;src/infrastructure/database</title>
<path fill="none" stroke="#000000" stroke-width="2" stroke-opacity="0.200000" d="M151.27,-185.89C155.86,-169.39 167.08,-136.54 187.75,-117 188.22,-116.55 188.71,-116.12 189.21,-115.7"/>
<polygon fill="#000000" fill-opacity="0.200000" stroke="#000000" stroke-width="2" stroke-opacity="0.200000" points="190.03,-117.68 193.81,-112.57 187.67,-114.21 190.03,-117.68"/>
</g>
<!-- src/infrastructure/repository -->
<g id="node5" class="node">
<title>src/infrastructure/repository</title>
<g id="a_node5"><a xlink:href="src/infrastructure/repository" xlink:title="repository">
<polygon fill="#ffffcc" stroke="black" points="252.25,-80.62 197.89,-80.62 195.75,-78.49 195.75,-61.38 250.11,-61.38 252.25,-63.51 252.25,-80.62"/>
<polyline fill="none" stroke="black" points="250.11,-78.49 195.75,-78.49"/>
<polyline fill="none" stroke="black" points="250.11,-78.49 250.11,-61.38"/>
<polyline fill="none" stroke="black" points="250.11,-78.49 252.25,-80.62"/>
<text text-anchor="start" x="203.75" y="-68.08" font-family="Helvetica,sans-Serif" font-size="9.00">repository</text>
</a>
</g>
</g>
<!-- src/application/container.ts&#45;&gt;src/infrastructure/repository -->
<g id="edge4" class="edge">
<title>src/application/container.ts&#45;&gt;src/infrastructure/repository</title>
<path fill="none" stroke="#000000" stroke-width="2" stroke-opacity="0.200000" d="M149.62,-186.12C151.97,-165.05 160.27,-115.23 187.75,-86 188.02,-85.71 188.3,-85.42 188.59,-85.14"/>
<polygon fill="#000000" fill-opacity="0.200000" stroke="#000000" stroke-width="2" stroke-opacity="0.200000" points="189.42,-87.15 192.93,-81.84 186.88,-83.81 189.42,-87.15"/>
</g>
<!-- src/infrastructure/services -->
<g id="node6" class="node">
<title>src/infrastructure/services</title>
<g id="a_node6"><a xlink:href="src/infrastructure/services" xlink:title="services">
<polygon fill="#ffffcc" stroke="black" points="251,-49.62 199.14,-49.62 197,-47.49 197,-30.38 248.86,-30.38 251,-32.51 251,-49.62"/>
<polyline fill="none" stroke="black" points="248.86,-47.49 197,-47.49"/>
<polyline fill="none" stroke="black" points="248.86,-47.49 248.86,-30.38"/>
<polyline fill="none" stroke="black" points="248.86,-47.49 251,-49.62"/>
<text text-anchor="start" x="206.75" y="-37.08" font-family="Helvetica,sans-Serif" font-size="9.00">services</text>
</a>
</g>
</g>
<!-- src/application/container.ts&#45;&gt;src/infrastructure/services -->
<g id="edge5" class="edge">
<title>src/application/container.ts&#45;&gt;src/infrastructure/services</title>
<path fill="none" stroke="#000000" stroke-width="2" stroke-opacity="0.200000" d="M148.69,-186.11C149.08,-161.02 153.45,-94.17 187.75,-55 188.36,-54.3 189.02,-53.63 189.7,-52.99"/>
<polygon fill="#000000" fill-opacity="0.200000" stroke="#000000" stroke-width="2" stroke-opacity="0.200000" points="190.48,-55.02 194.11,-49.8 188.02,-51.62 190.48,-55.02"/>
</g>
<!-- src/infrastructure/video -->
<g id="node7" class="node">
<title>src/infrastructure/video</title>
<g id="a_node7"><a xlink:href="src/infrastructure/video" xlink:title="video">
<polygon fill="#ffffcc" stroke="black" points="319.62,-79.62 267.76,-79.62 265.62,-77.49 265.62,-60.38 317.49,-60.38 319.62,-62.51 319.62,-79.62"/>
<polyline fill="none" stroke="black" points="317.49,-77.49 265.62,-77.49"/>
<polyline fill="none" stroke="black" points="317.49,-77.49 317.49,-60.38"/>
<polyline fill="none" stroke="black" points="317.49,-77.49 319.62,-79.62"/>
<text text-anchor="start" x="281.75" y="-67.08" font-family="Helvetica,sans-Serif" font-size="9.00">video</text>
</a>
</g>
</g>
<!-- src/application/container.ts&#45;&gt;src/infrastructure/video -->
<g id="edge6" class="edge">
<title>src/application/container.ts&#45;&gt;src/infrastructure/video</title>
<path fill="none" stroke="#000000" stroke-width="2" stroke-opacity="0.200000" d="M149.42,-186.23C151.91,-152.9 161.91,-44.64 187.75,-24 210.28,-6.01 226.46,-11.88 252.62,-24 265.34,-29.89 275.43,-42.2 282.15,-52.6"/>
<polygon fill="#000000" fill-opacity="0.200000" stroke="#000000" stroke-width="2" stroke-opacity="0.200000" points="280.18,-53.4 285.07,-57.46 283.78,-51.23 280.18,-53.4"/>
</g>
<!-- src/application/ports -->
<g id="node8" class="node">
<title>src/application/ports</title>
<g id="a_node8"><a xlink:href="src/application/ports" xlink:title="ports">
<polygon fill="#ffffcc" stroke="black" points="319.62,-205.62 267.76,-205.62 265.62,-203.49 265.62,-186.38 317.49,-186.38 319.62,-188.51 319.62,-205.62"/>
<polyline fill="none" stroke="black" points="317.49,-203.49 265.62,-203.49"/>
<polyline fill="none" stroke="black" points="317.49,-203.49 317.49,-186.38"/>
<polyline fill="none" stroke="black" points="317.49,-203.49 319.62,-205.62"/>
<text text-anchor="start" x="282.12" y="-193.07" font-family="Helvetica,sans-Serif" font-size="9.00">ports</text>
</a>
</g>
</g>
<!-- src/application/usecases&#45;&gt;src/application/ports -->
<g id="edge9" class="edge">
<title>src/application/usecases&#45;&gt;src/application/ports</title>
<path fill="none" stroke="#000000" stroke-opacity="0.200000" d="M252.87,-202.4C254.55,-202.12 256.25,-201.84 257.95,-201.56"/>
<polygon fill="none" stroke="#000000" stroke-opacity="0.200000" points="258.29,-203.63 263.87,-200.58 257.6,-199.49 258.29,-203.63"/>
</g>
<!-- src/domain/entities -->
<g id="node9" class="node">
<title>src/domain/entities</title>
<g id="a_node9"><a xlink:href="src/domain/entities" xlink:title="entities">
<polygon fill="#ffffcc" stroke="black" points="403.38,-242.62 351.51,-242.62 349.38,-240.49 349.38,-223.38 401.24,-223.38 403.38,-225.51 403.38,-242.62"/>
<polyline fill="none" stroke="black" points="401.24,-240.49 349.38,-240.49"/>
<polyline fill="none" stroke="black" points="401.24,-240.49 401.24,-223.38"/>
<polyline fill="none" stroke="black" points="401.24,-240.49 403.38,-242.62"/>
<text text-anchor="start" x="361.38" y="-230.07" font-family="Helvetica,sans-Serif" font-size="9.00">entities</text>
</a>
</g>
</g>
<!-- src/application/usecases&#45;&gt;src/domain/entities -->
<g id="edge10" class="edge">
<title>src/application/usecases&#45;&gt;src/domain/entities</title>
<path fill="none" stroke="#000000" stroke-opacity="0.200000" d="M252.89,-214.24C257.14,-215.24 261.49,-216.19 265.62,-217 290.98,-221.96 319.91,-226.11 341.7,-228.95"/>
<polygon fill="none" stroke="#000000" stroke-opacity="0.200000" points="341.37,-231.02 347.59,-229.7 341.9,-226.86 341.37,-231.02"/>
</g>
<!-- src/domain/repositories -->
<g id="node11" class="node">
<title>src/domain/repositories</title>
<g id="a_node11"><a xlink:href="src/domain/repositories" xlink:title="repositories">
<polygon fill="#ffffcc" stroke="black" points="409.12,-211.62 345.76,-211.62 343.62,-209.49 343.62,-192.38 406.99,-192.38 409.12,-194.51 409.12,-211.62"/>
<polyline fill="none" stroke="black" points="406.99,-209.49 343.62,-209.49"/>
<polyline fill="none" stroke="black" points="406.99,-209.49 406.99,-192.38"/>
<polyline fill="none" stroke="black" points="406.99,-209.49 409.12,-211.62"/>
<text text-anchor="start" x="351.62" y="-199.07" font-family="Helvetica,sans-Serif" font-size="9.00">repositories</text>
</a>
</g>
</g>
<!-- src/application/usecases&#45;&gt;src/domain/repositories -->
<g id="edge11" class="edge">
<title>src/application/usecases&#45;&gt;src/domain/repositories</title>
<path fill="none" stroke="#000000" stroke-opacity="0.200000" d="M252.93,-210.89C257.18,-211.35 261.51,-211.75 265.62,-212 293.13,-213.69 300.22,-214.84 327.62,-212 330.31,-211.72 333.07,-211.36 335.84,-210.93"/>
<polygon fill="none" stroke="#000000" stroke-opacity="0.200000" points="336.1,-213.02 341.66,-209.94 335.39,-208.88 336.1,-213.02"/>
</g>
<!-- src/infrastructure/adapters&#45;&gt;src/infrastructure/video -->
<g id="edge15" class="edge">
<title>src/infrastructure/adapters&#45;&gt;src/infrastructure/video</title>
<path fill="none" stroke="#000000" stroke-width="2" stroke-opacity="0.200000" d="M245.8,-122.88C248.19,-121.38 250.53,-119.74 252.62,-118 263.31,-109.12 273.16,-96.96 280.29,-87.09"/>
<polygon fill="#000000" fill-opacity="0.200000" stroke="#000000" stroke-width="2" stroke-opacity="0.200000" points="281.94,-88.39 283.65,-82.27 278.5,-85.99 281.94,-88.39"/>
</g>
<!-- src/infrastructure/adapters&#45;&gt;src/application/ports -->
<g id="edge12" class="edge">
<title>src/infrastructure/adapters&#45;&gt;src/application/ports</title>
<path fill="none" stroke="#000000" stroke-opacity="0.200000" d="M234.87,-143.01C243.01,-151.2 254.92,-163 265.62,-173 268.54,-175.72 271.69,-178.58 274.76,-181.31"/>
<polygon fill="none" stroke="#000000" stroke-opacity="0.200000" points="273.1,-182.65 278.98,-185.05 275.88,-179.5 273.1,-182.65"/>
</g>
<!-- src/infrastructure/adapters&#45;&gt;src/domain/entities -->
<g id="edge13" class="edge">
<title>src/infrastructure/adapters&#45;&gt;src/domain/entities</title>
<path fill="none" stroke="#000000" stroke-opacity="0.200000" d="M250.47,-143.08C280.44,-154.99 326.32,-173.39 327.62,-175 339.9,-190.08 323.15,-203.09 335.62,-218 337.6,-220.35 339.98,-222.34 342.58,-224.01"/>
<polygon fill="none" stroke="#000000" stroke-opacity="0.200000" points="341.35,-225.74 347.64,-226.68 343.31,-222.02 341.35,-225.74"/>
</g>
<!-- src/infrastructure/adapters&#45;&gt;src/domain/repositories -->
<g id="edge14" class="edge">
<title>src/infrastructure/adapters&#45;&gt;src/domain/repositories</title>
<path fill="none" stroke="#000000" stroke-opacity="0.200000" d="M251.3,-134.19C272.93,-136.13 303.78,-141.13 327.62,-154 342.29,-161.91 355.35,-175.78 364.09,-186.58"/>
<polygon fill="none" stroke="#000000" stroke-opacity="0.200000" points="362.21,-187.58 367.56,-191.02 365.52,-184.99 362.21,-187.58"/>
</g>
<!-- src/application/ports&#45;&gt;src/domain/entities -->
<g id="edge7" class="edge">
<title>src/application/ports&#45;&gt;src/domain/entities</title>
<path fill="none" stroke="#000000" stroke-opacity="0.200000" d="M311.37,-205.91C318.77,-209.88 327.51,-214.36 335.62,-218 337.78,-218.97 340.01,-219.92 342.28,-220.86"/>
<polygon fill="none" stroke="#000000" stroke-opacity="0.200000" points="341.35,-222.75 347.7,-223.04 342.91,-218.86 341.35,-222.75"/>
</g>
<!-- src/application/services -->
<g id="node10" class="node">
<title>src/application/services</title>
<g id="a_node10"><a xlink:href="src/application/services" xlink:title="services">
<polygon fill="#ffffcc" stroke="black" points="174.75,-236.62 122.89,-236.62 120.75,-234.49 120.75,-217.38 172.61,-217.38 174.75,-219.51 174.75,-236.62"/>
<polyline fill="none" stroke="black" points="172.61,-234.49 120.75,-234.49"/>
<polyline fill="none" stroke="black" points="172.61,-234.49 172.61,-217.38"/>
<polyline fill="none" stroke="black" points="172.61,-234.49 174.75,-236.62"/>
<text text-anchor="start" x="130.5" y="-224.07" font-family="Helvetica,sans-Serif" font-size="9.00">services</text>
</a>
</g>
</g>
<!-- src/application/services&#45;&gt;src/domain/entities -->
<g id="edge8" class="edge">
<title>src/application/services&#45;&gt;src/domain/entities</title>
<path fill="none" stroke="#000000" stroke-opacity="0.200000" d="M175.19,-227.7C216.56,-228.8 296.52,-230.91 341.87,-232.11"/>
<polygon fill="none" stroke="#000000" stroke-opacity="0.200000" points="341.54,-234.2 347.59,-232.26 341.65,-230.01 341.54,-234.2"/>
</g>
<!-- src/presentation/components -->
<g id="node12" class="node">
<title>src/presentation/components</title>
<g id="a_node12"><a xlink:href="src/presentation/components" xlink:title="components">
<polygon fill="#ffffcc" stroke="black" points="91.75,-205.62 26.14,-205.62 24,-203.49 24,-186.38 89.61,-186.38 91.75,-188.51 91.75,-205.62"/>
<polyline fill="none" stroke="black" points="89.61,-203.49 24,-203.49"/>
<polyline fill="none" stroke="black" points="89.61,-203.49 89.61,-186.38"/>
<polyline fill="none" stroke="black" points="89.61,-203.49 91.75,-205.62"/>
<text text-anchor="start" x="32" y="-193.07" font-family="Helvetica,sans-Serif" font-size="9.00">components</text>
</a>
</g>
</g>
<!-- src/presentation/components&#45;&gt;src/application/container.ts -->
<g id="edge16" class="edge">
<title>src/presentation/components&#45;&gt;src/application/container.ts</title>
<path fill="none" stroke="#000000" stroke-width="2" stroke-opacity="0.200000" d="M92.1,-196C96.9,-196 101.88,-196 106.79,-196"/>
<polygon fill="#000000" fill-opacity="0.200000" stroke="#000000" stroke-width="2" stroke-opacity="0.200000" points="106.48,-198.1 112.48,-196 106.48,-193.9 106.48,-198.1"/>
</g>
<!-- src/presentation/stores -->
<g id="node13" class="node">
<title>src/presentation/stores</title>
<g id="a_node13"><a xlink:href="src/presentation/stores" xlink:title="stores">
<polygon fill="#ffffcc" stroke="black" points="84.88,-236.62 33.01,-236.62 30.88,-234.49 30.88,-217.38 82.74,-217.38 84.88,-219.51 84.88,-236.62"/>
<polyline fill="none" stroke="black" points="82.74,-234.49 30.88,-234.49"/>
<polyline fill="none" stroke="black" points="82.74,-234.49 82.74,-217.38"/>
<polyline fill="none" stroke="black" points="82.74,-234.49 84.88,-236.62"/>
<text text-anchor="start" x="44.75" y="-224.07" font-family="Helvetica,sans-Serif" font-size="9.00">stores</text>
</a>
</g>
</g>
<!-- src/presentation/stores&#45;&gt;src/application/container.ts -->
<g id="edge18" class="edge">
<title>src/presentation/stores&#45;&gt;src/application/container.ts</title>
<path fill="none" stroke="#000000" stroke-width="2" stroke-opacity="0.200000" d="M85.24,-217.7C92.97,-214.97 101.57,-211.94 109.83,-209.03"/>
<polygon fill="#000000" fill-opacity="0.200000" stroke="#000000" stroke-width="2" stroke-opacity="0.200000" points="110.45,-211.03 115.4,-207.06 109.05,-207.07 110.45,-211.03"/>
</g>
<!-- src/presentation/stores&#45;&gt;src/domain/entities -->
<g id="edge19" class="edge">
<title>src/presentation/stores&#45;&gt;src/domain/entities</title>
<path fill="none" stroke="#000000" stroke-opacity="0.200000" d="M67.04,-236.8C75.89,-246.6 91.02,-261.03 107.75,-267 199.78,-299.86 234.54,-296.75 327.62,-267 339.6,-263.17 351.13,-255.13 359.86,-247.82"/>
<polygon fill="none" stroke="#000000" stroke-opacity="0.200000" points="361.16,-249.47 364.29,-243.94 358.4,-246.31 361.16,-249.47"/>
</g>
<!-- src/presentation/stores&#45;&gt;src/application/services -->
<g id="edge17" class="edge">
<title>src/presentation/stores&#45;&gt;src/application/services</title>
<path fill="none" stroke="#000000" stroke-width="2" stroke-opacity="0.200000" d="M85.24,-227C93.5,-227 102.74,-227 111.51,-227"/>
<polygon fill="#000000" fill-opacity="0.200000" stroke="#000000" stroke-width="2" stroke-opacity="0.200000" points="111.38,-229.1 117.38,-227 111.38,-224.9 111.38,-229.1"/>
</g>
</g>
</svg>
