<?xml version="1.0" encoding="UTF-8" standalone="no"?>
<!DOCTYPE svg PUBLIC "-//W3C//DTD SVG 1.1//EN"
 "http://www.w3.org/Graphics/SVG/1.1/DTD/svg11.dtd">
<!-- Generated by graphviz version 9.0.0 (20230911.1827)
 -->
<!-- Title: dependency&#45;cruiser output Pages: 1 -->
<svg width="1094pt" height="500pt"
 viewBox="0.00 0.00 1093.50 499.79" xmlns="http://www.w3.org/2000/svg" xmlns:xlink="http://www.w3.org/1999/xlink">
<g id="graph0" class="graph" transform="scale(1 1) rotate(0) translate(4 495.79)">
<title>dependency&#45;cruiser output</title>
<polygon fill="white" stroke="none" points="-4,4 -4,-495.79 1089.5,-495.79 1089.5,4 -4,4"/>
<g id="clust1" class="cluster">
<title>cluster_src</title>
<path fill="#ffffff" stroke="black" stroke-width="2" d="M20,-11.79C20,-11.79 1065.5,-11.79 1065.5,-11.79 1071.5,-11.79 1077.5,-17.79 1077.5,-23.79 1077.5,-23.79 1077.5,-471.79 1077.5,-471.79 1077.5,-477.79 1071.5,-483.79 1065.5,-483.79 1065.5,-483.79 20,-483.79 20,-483.79 14,-483.79 8,-477.79 8,-471.79 8,-471.79 8,-23.79 8,-23.79 8,-17.79 14,-11.79 20,-11.79"/>
<text text-anchor="middle" x="542.75" y="-471.24" font-family="Helvetica,sans-Serif" font-weight="bold" font-size="9.00">src</text>
</g>
<g id="clust2" class="cluster">
<title>cluster_src/application</title>
<path fill="#ffffff" stroke="black" stroke-width="2" d="M298.25,-210.79C298.25,-210.79 963.5,-210.79 963.5,-210.79 969.5,-210.79 975.5,-216.79 975.5,-222.79 975.5,-222.79 975.5,-444.79 975.5,-444.79 975.5,-450.79 969.5,-456.79 963.5,-456.79 963.5,-456.79 298.25,-456.79 298.25,-456.79 292.25,-456.79 286.25,-450.79 286.25,-444.79 286.25,-444.79 286.25,-222.79 286.25,-222.79 286.25,-216.79 292.25,-210.79 298.25,-210.79"/>
<text text-anchor="middle" x="630.88" y="-444.24" font-family="Helvetica,sans-Serif" font-weight="bold" font-size="9.00">application</text>
</g>
<g id="clust3" class="cluster">
<title>cluster_src/application/ports</title>
<path fill="#ffffff" stroke="black" stroke-width="2" d="M748.75,-218.79C748.75,-218.79 955.5,-218.79 955.5,-218.79 961.5,-218.79 967.5,-224.79 967.5,-230.79 967.5,-230.79 967.5,-323.79 967.5,-323.79 967.5,-329.79 961.5,-335.79 955.5,-335.79 955.5,-335.79 748.75,-335.79 748.75,-335.79 742.75,-335.79 736.75,-329.79 736.75,-323.79 736.75,-323.79 736.75,-230.79 736.75,-230.79 736.75,-224.79 742.75,-218.79 748.75,-218.79"/>
<text text-anchor="middle" x="852.12" y="-323.24" font-family="Helvetica,sans-Serif" font-weight="bold" font-size="9.00">ports</text>
</g>
<g id="clust4" class="cluster">
<title>cluster_src/application/services</title>
<path fill="#ffffff" stroke="black" stroke-width="2" d="M489.5,-312.79C489.5,-312.79 681.88,-312.79 681.88,-312.79 687.88,-312.79 693.88,-318.79 693.88,-324.79 693.88,-324.79 693.88,-417.79 693.88,-417.79 693.88,-423.79 687.88,-429.79 681.88,-429.79 681.88,-429.79 489.5,-429.79 489.5,-429.79 483.5,-429.79 477.5,-423.79 477.5,-417.79 477.5,-417.79 477.5,-324.79 477.5,-324.79 477.5,-318.79 483.5,-312.79 489.5,-312.79"/>
<text text-anchor="middle" x="585.69" y="-417.24" font-family="Helvetica,sans-Serif" font-weight="bold" font-size="9.00">services</text>
</g>
<g id="clust5" class="cluster">
<title>cluster_src/application/stores</title>
<path fill="#ffffff" stroke="black" stroke-width="2" d="M306.25,-233.79C306.25,-233.79 449.5,-233.79 449.5,-233.79 455.5,-233.79 461.5,-239.79 461.5,-245.79 461.5,-245.79 461.5,-307.79 461.5,-307.79 461.5,-313.79 455.5,-319.79 449.5,-319.79 449.5,-319.79 306.25,-319.79 306.25,-319.79 300.25,-319.79 294.25,-313.79 294.25,-307.79 294.25,-307.79 294.25,-245.79 294.25,-245.79 294.25,-239.79 300.25,-233.79 306.25,-233.79"/>
<text text-anchor="middle" x="377.88" y="-307.24" font-family="Helvetica,sans-Serif" font-weight="bold" font-size="9.00">stores</text>
</g>
<g id="clust6" class="cluster">
<title>cluster_src/application/usecases</title>
<path fill="#ffffff" stroke="black" stroke-width="2" d="M489.5,-218.79C489.5,-218.79 716.75,-218.79 716.75,-218.79 722.75,-218.79 728.75,-224.79 728.75,-230.79 728.75,-230.79 728.75,-292.79 728.75,-292.79 728.75,-298.79 722.75,-304.79 716.75,-304.79 716.75,-304.79 489.5,-304.79 489.5,-304.79 483.5,-304.79 477.5,-298.79 477.5,-292.79 477.5,-292.79 477.5,-230.79 477.5,-230.79 477.5,-224.79 483.5,-218.79 489.5,-218.79"/>
<text text-anchor="middle" x="603.12" y="-292.24" font-family="Helvetica,sans-Serif" font-weight="bold" font-size="9.00">usecases</text>
</g>
<g id="clust7" class="cluster">
<title>cluster_src/domain</title>
<path fill="#ffffff" stroke="black" stroke-width="2" d="M995.5,-295.79C995.5,-295.79 1057.5,-295.79 1057.5,-295.79 1063.5,-295.79 1069.5,-301.79 1069.5,-307.79 1069.5,-307.79 1069.5,-373.79 1069.5,-373.79 1069.5,-379.79 1063.5,-385.79 1057.5,-385.79 1057.5,-385.79 995.5,-385.79 995.5,-385.79 989.5,-385.79 983.5,-379.79 983.5,-373.79 983.5,-373.79 983.5,-307.79 983.5,-307.79 983.5,-301.79 989.5,-295.79 995.5,-295.79"/>
<text text-anchor="middle" x="1026.5" y="-373.24" font-family="Helvetica,sans-Serif" font-weight="bold" font-size="9.00">domain</text>
</g>
<g id="clust8" class="cluster">
<title>cluster_src/domain/entities</title>
<path fill="#ffffff" stroke="black" stroke-width="2" d="M1003.5,-303.79C1003.5,-303.79 1049.5,-303.79 1049.5,-303.79 1055.5,-303.79 1061.5,-309.79 1061.5,-315.79 1061.5,-315.79 1061.5,-346.79 1061.5,-346.79 1061.5,-352.79 1055.5,-358.79 1049.5,-358.79 1049.5,-358.79 1003.5,-358.79 1003.5,-358.79 997.5,-358.79 991.5,-352.79 991.5,-346.79 991.5,-346.79 991.5,-315.79 991.5,-315.79 991.5,-309.79 997.5,-303.79 1003.5,-303.79"/>
<text text-anchor="middle" x="1026.5" y="-346.24" font-family="Helvetica,sans-Serif" font-weight="bold" font-size="9.00">entities</text>
</g>
<g id="clust9" class="cluster">
<title>cluster_src/infrastructure</title>
<path fill="#ffffff" stroke="black" stroke-width="2" d="M481.5,-49.79C481.5,-49.79 802.75,-49.79 802.75,-49.79 808.75,-49.79 814.75,-55.79 814.75,-61.79 814.75,-61.79 814.75,-190.79 814.75,-190.79 814.75,-196.79 808.75,-202.79 802.75,-202.79 802.75,-202.79 481.5,-202.79 481.5,-202.79 475.5,-202.79 469.5,-196.79 469.5,-190.79 469.5,-190.79 469.5,-61.79 469.5,-61.79 469.5,-55.79 475.5,-49.79 481.5,-49.79"/>
<text text-anchor="middle" x="642.12" y="-190.24" font-family="Helvetica,sans-Serif" font-weight="bold" font-size="9.00">infrastructure</text>
</g>
<g id="clust10" class="cluster">
<title>cluster_src/infrastructure/adapters</title>
<path fill="#ffffff" stroke="black" stroke-width="2" d="M489.5,-58.79C489.5,-58.79 715.62,-58.79 715.62,-58.79 721.62,-58.79 727.62,-64.79 727.62,-70.79 727.62,-70.79 727.62,-163.79 727.62,-163.79 727.62,-169.79 721.62,-175.79 715.62,-175.79 715.62,-175.79 489.5,-175.79 489.5,-175.79 483.5,-175.79 477.5,-169.79 477.5,-163.79 477.5,-163.79 477.5,-70.79 477.5,-70.79 477.5,-64.79 483.5,-58.79 489.5,-58.79"/>
<text text-anchor="middle" x="602.56" y="-163.24" font-family="Helvetica,sans-Serif" font-weight="bold" font-size="9.00">adapters</text>
</g>
<g id="clust12" class="cluster">
<title>cluster_src/infrastructure/video</title>
<path fill="#ffffff" stroke="black" stroke-width="2" d="M748.75,-120.79C748.75,-120.79 794.75,-120.79 794.75,-120.79 800.75,-120.79 806.75,-126.79 806.75,-132.79 806.75,-132.79 806.75,-163.79 806.75,-163.79 806.75,-169.79 800.75,-175.79 794.75,-175.79 794.75,-175.79 748.75,-175.79 748.75,-175.79 742.75,-175.79 736.75,-169.79 736.75,-163.79 736.75,-163.79 736.75,-132.79 736.75,-132.79 736.75,-126.79 742.75,-120.79 748.75,-120.79"/>
<text text-anchor="middle" x="771.75" y="-163.24" font-family="Helvetica,sans-Serif" font-weight="bold" font-size="9.00">video</text>
</g>
<g id="clust11" class="cluster">
<title>cluster_src/infrastructure/services</title>
<path fill="#ffffff" stroke="black" stroke-width="2" d="M748.75,-57.79C748.75,-57.79 794.75,-57.79 794.75,-57.79 800.75,-57.79 806.75,-63.79 806.75,-69.79 806.75,-69.79 806.75,-100.79 806.75,-100.79 806.75,-106.79 800.75,-112.79 794.75,-112.79 794.75,-112.79 748.75,-112.79 748.75,-112.79 742.75,-112.79 736.75,-106.79 736.75,-100.79 736.75,-100.79 736.75,-69.79 736.75,-69.79 736.75,-63.79 742.75,-57.79 748.75,-57.79"/>
<text text-anchor="middle" x="771.75" y="-100.24" font-family="Helvetica,sans-Serif" font-weight="bold" font-size="9.00">services</text>
</g>
<g id="clust13" class="cluster">
<title>cluster_src/presentation</title>
<path fill="#ffffff" stroke="black" stroke-width="2" d="M28,-53.79C28,-53.79 266.25,-53.79 266.25,-53.79 272.25,-53.79 278.25,-59.79 278.25,-65.79 278.25,-65.79 278.25,-257.79 278.25,-257.79 278.25,-263.79 272.25,-269.79 266.25,-269.79 266.25,-269.79 28,-269.79 28,-269.79 22,-269.79 16,-263.79 16,-257.79 16,-257.79 16,-65.79 16,-65.79 16,-59.79 22,-53.79 28,-53.79"/>
<text text-anchor="middle" x="147.12" y="-257.24" font-family="Helvetica,sans-Serif" font-weight="bold" font-size="9.00">presentation</text>
</g>
<g id="clust14" class="cluster">
<title>cluster_src/presentation/components</title>
<path fill="#ffffff" stroke="black" stroke-width="2" d="M144.25,-61.79C144.25,-61.79 258.25,-61.79 258.25,-61.79 264.25,-61.79 270.25,-67.79 270.25,-73.79 270.25,-73.79 270.25,-230.79 270.25,-230.79 270.25,-236.79 264.25,-242.79 258.25,-242.79 258.25,-242.79 144.25,-242.79 144.25,-242.79 138.25,-242.79 132.25,-236.79 132.25,-230.79 132.25,-230.79 132.25,-73.79 132.25,-73.79 132.25,-67.79 138.25,-61.79 144.25,-61.79"/>
<text text-anchor="middle" x="201.25" y="-230.24" font-family="Helvetica,sans-Serif" font-weight="bold" font-size="9.00">components</text>
</g>
<g id="clust16" class="cluster">
<title>cluster_src/presentation/components/utils</title>
<path fill="#ffffff" stroke="black" stroke-width="2" d="M152.25,-97.79C152.25,-97.79 250.25,-97.79 250.25,-97.79 256.25,-97.79 262.25,-103.79 262.25,-109.79 262.25,-109.79 262.25,-140.79 262.25,-140.79 262.25,-146.79 256.25,-152.79 250.25,-152.79 250.25,-152.79 152.25,-152.79 152.25,-152.79 146.25,-152.79 140.25,-146.79 140.25,-140.79 140.25,-140.79 140.25,-109.79 140.25,-109.79 140.25,-103.79 146.25,-97.79 152.25,-97.79"/>
<text text-anchor="middle" x="201.25" y="-140.24" font-family="Helvetica,sans-Serif" font-weight="bold" font-size="9.00">utils</text>
</g>
<g id="clust15" class="cluster">
<title>cluster_src/presentation/components/inputs</title>
<path fill="#ffffff" stroke="black" stroke-width="2" d="M171.38,-160.79C171.38,-160.79 231.12,-160.79 231.12,-160.79 237.12,-160.79 243.12,-166.79 243.12,-172.79 243.12,-172.79 243.12,-203.79 243.12,-203.79 243.12,-209.79 237.12,-215.79 231.12,-215.79 231.12,-215.79 171.38,-215.79 171.38,-215.79 165.38,-215.79 159.38,-209.79 159.38,-203.79 159.38,-203.79 159.38,-172.79 159.38,-172.79 159.38,-166.79 165.38,-160.79 171.38,-160.79"/>
<text text-anchor="middle" x="201.25" y="-203.24" font-family="Helvetica,sans-Serif" font-weight="bold" font-size="9.00">inputs</text>
</g>
<g id="clust17" class="cluster">
<title>cluster_src/presentation/views</title>
<path fill="#ffffff" stroke="black" stroke-width="2" d="M36,-142.79C36,-142.79 112.25,-142.79 112.25,-142.79 118.25,-142.79 124.25,-148.79 124.25,-154.79 124.25,-154.79 124.25,-216.79 124.25,-216.79 124.25,-222.79 118.25,-228.79 112.25,-228.79 112.25,-228.79 36,-228.79 36,-228.79 30,-228.79 24,-222.79 24,-216.79 24,-216.79 24,-154.79 24,-154.79 24,-148.79 30,-142.79 36,-142.79"/>
<text text-anchor="middle" x="74.12" y="-216.24" font-family="Helvetica,sans-Serif" font-weight="bold" font-size="9.00">views</text>
</g>
<!-- src/application/ports/IVideoParser.ts -->
<g id="node1" class="node">
<title>src/application/ports/IVideoParser.ts</title>
<g id="a_node1"><a xlink:href="src/application/ports/IVideoParser.ts" xlink:title="IVideoParser.ts">
<path fill="#ddfeff" stroke="black" d="M924.21,-308.42C924.21,-308.42 858.04,-308.42 858.04,-308.42 854.83,-308.42 851.62,-305.21 851.62,-302 851.62,-302 851.62,-295.59 851.62,-295.59 851.62,-292.38 854.83,-289.17 858.04,-289.17 858.04,-289.17 924.21,-289.17 924.21,-289.17 927.42,-289.17 930.62,-292.38 930.62,-295.59 930.62,-295.59 930.62,-302 930.62,-302 930.62,-305.21 927.42,-308.42 924.21,-308.42"/>
<text text-anchor="start" x="859.62" y="-295.87" font-family="Helvetica,sans-Serif" font-size="9.00">IVideoParser.ts</text>
</a>
</g>
</g>
<!-- src/domain/entities/index.ts -->
<g id="node2" class="node">
<title>src/domain/entities/index.ts</title>
<g id="a_node2"><a xlink:href="src/domain/entities/index.ts" xlink:title="index.ts">
<path fill="#ddfeff" stroke="black" d="M1047.08,-331.42C1047.08,-331.42 1005.92,-331.42 1005.92,-331.42 1002.71,-331.42 999.5,-328.21 999.5,-325 999.5,-325 999.5,-318.59 999.5,-318.59 999.5,-315.38 1002.71,-312.17 1005.92,-312.17 1005.92,-312.17 1047.08,-312.17 1047.08,-312.17 1050.29,-312.17 1053.5,-315.38 1053.5,-318.59 1053.5,-318.59 1053.5,-325 1053.5,-325 1053.5,-328.21 1050.29,-331.42 1047.08,-331.42"/>
<text text-anchor="start" x="1010.75" y="-318.87" font-family="Helvetica,sans-Serif" font-size="9.00">index.ts</text>
</a>
</g>
</g>
<!-- src/application/ports/IVideoParser.ts&#45;&gt;src/domain/entities/index.ts -->
<g id="edge1" class="edge">
<title>src/application/ports/IVideoParser.ts&#45;&gt;src/domain/entities/index.ts</title>
<path fill="none" stroke="#000000" stroke-opacity="0.200000" d="M931.06,-305.51C950.47,-308.86 973.71,-312.86 992.27,-316.06"/>
<polygon fill="none" stroke="#000000" stroke-opacity="0.200000" points="991.64,-318.08 997.91,-317.03 992.35,-313.95 991.64,-318.08"/>
</g>
<!-- src/application/ports/IVideoStorage.ts -->
<g id="node3" class="node">
<title>src/application/ports/IVideoStorage.ts</title>
<g id="a_node3"><a xlink:href="src/application/ports/IVideoStorage.ts" xlink:title="IVideoStorage.ts">
<path fill="#ddfeff" stroke="black" d="M926.46,-277.42C926.46,-277.42 855.79,-277.42 855.79,-277.42 852.58,-277.42 849.38,-274.21 849.38,-271 849.38,-271 849.38,-264.59 849.38,-264.59 849.38,-261.38 852.58,-258.17 855.79,-258.17 855.79,-258.17 926.46,-258.17 926.46,-258.17 929.67,-258.17 932.88,-261.38 932.88,-264.59 932.88,-264.59 932.88,-271 932.88,-271 932.88,-274.21 929.67,-277.42 926.46,-277.42"/>
<text text-anchor="start" x="857.38" y="-264.87" font-family="Helvetica,sans-Serif" font-size="9.00">IVideoStorage.ts</text>
</a>
</g>
</g>
<!-- src/application/ports/IVideoStorage.ts&#45;&gt;src/domain/entities/index.ts -->
<g id="edge2" class="edge">
<title>src/application/ports/IVideoStorage.ts&#45;&gt;src/domain/entities/index.ts</title>
<path fill="none" stroke="#000000" stroke-opacity="0.200000" d="M933.16,-271.16C947.04,-273.34 962.34,-276.91 975.5,-282.79 988.48,-288.6 1001.1,-298.47 1010.41,-306.84"/>
<polygon fill="none" stroke="#000000" stroke-opacity="0.200000" points="1008.81,-308.22 1014.64,-310.77 1011.67,-305.15 1008.81,-308.22"/>
</g>
<!-- src/application/ports/IVideoThumbnailGenerator.ts -->
<g id="node4" class="node">
<title>src/application/ports/IVideoThumbnailGenerator.ts</title>
<g id="a_node4"><a xlink:href="src/application/ports/IVideoThumbnailGenerator.ts" xlink:title="IVideoThumbnailGenerator.ts">
<path fill="#ddfeff" stroke="black" d="M953.08,-246.42C953.08,-246.42 829.17,-246.42 829.17,-246.42 825.96,-246.42 822.75,-243.21 822.75,-240 822.75,-240 822.75,-233.59 822.75,-233.59 822.75,-230.38 825.96,-227.17 829.17,-227.17 829.17,-227.17 953.08,-227.17 953.08,-227.17 956.29,-227.17 959.5,-230.38 959.5,-233.59 959.5,-233.59 959.5,-240 959.5,-240 959.5,-243.21 956.29,-246.42 953.08,-246.42"/>
<text text-anchor="start" x="830.75" y="-233.87" font-family="Helvetica,sans-Serif" font-size="9.00">IVideoThumbnailGenerator.ts</text>
</a>
</g>
</g>
<!-- src/application/ports/index.ts -->
<g id="node5" class="node">
<title>src/application/ports/index.ts</title>
<g id="a_node5"><a xlink:href="src/application/ports/index.ts" xlink:title="index.ts">
<path fill="#ddfeff" stroke="black" d="M792.33,-246.42C792.33,-246.42 751.17,-246.42 751.17,-246.42 747.96,-246.42 744.75,-243.21 744.75,-240 744.75,-240 744.75,-233.59 744.75,-233.59 744.75,-230.38 747.96,-227.17 751.17,-227.17 751.17,-227.17 792.33,-227.17 792.33,-227.17 795.54,-227.17 798.75,-230.38 798.75,-233.59 798.75,-233.59 798.75,-240 798.75,-240 798.75,-243.21 795.54,-246.42 792.33,-246.42"/>
<text text-anchor="start" x="756" y="-233.87" font-family="Helvetica,sans-Serif" font-size="9.00">index.ts</text>
</a>
</g>
</g>
<!-- src/application/ports/index.ts&#45;&gt;src/application/ports/IVideoParser.ts -->
<g id="edge3" class="edge">
<title>src/application/ports/index.ts&#45;&gt;src/application/ports/IVideoParser.ts</title>
<path fill="none" stroke="#000000" stroke-width="2" stroke-opacity="0.200000" d="M780.46,-246.71C789.44,-257.53 805.27,-274.54 851.45,-293.88"/>
<polygon fill="#000000" fill-opacity="0.200000" stroke="#000000" stroke-width="2" stroke-opacity="0.200000" points="854.26,-292.48 858.16,-300.58 850.06,-296.68 854.26,-292.48"/>
</g>
<!-- src/application/ports/index.ts&#45;&gt;src/application/ports/IVideoStorage.ts -->
<g id="edge4" class="edge">
<title>src/application/ports/index.ts&#45;&gt;src/application/ports/IVideoStorage.ts</title>
<path fill="none" stroke="#000000" stroke-width="2" stroke-opacity="0.200000" d="M799.08,-245.71C806.68,-248.15 815.01,-250.7 849.01,-259.26"/>
<polygon fill="#000000" fill-opacity="0.200000" stroke="#000000" stroke-width="2" stroke-opacity="0.200000" points="851.81,-257.87 855.71,-265.97 847.61,-262.07 851.81,-257.87"/>
</g>
<!-- src/application/ports/index.ts&#45;&gt;src/application/ports/IVideoThumbnailGenerator.ts -->
<g id="edge5" class="edge">
<title>src/application/ports/index.ts&#45;&gt;src/application/ports/IVideoThumbnailGenerator.ts</title>
<path fill="none" stroke="#000000" stroke-width="2" stroke-opacity="0.200000" d="M799.09,-236.79C806.26,-236.79 814.36,-236.79 822.7,-236.79"/>
<polygon fill="#000000" fill-opacity="0.200000" stroke="#000000" stroke-width="2" stroke-opacity="0.200000" points="825.5,-235.4 829.4,-243.5 821.3,-239.6 825.5,-235.4"/>
</g>
<!-- src/application/services/FileParserService.ts -->
<g id="node6" class="node">
<title>src/application/services/FileParserService.ts</title>
<g id="a_node6"><a xlink:href="src/application/services/FileParserService.ts" xlink:title="FileParserService.ts">
<path fill="#ddfeff" stroke="black" d="M679.46,-371.42C679.46,-371.42 593.79,-371.42 593.79,-371.42 590.58,-371.42 587.38,-368.21 587.38,-365 587.38,-365 587.38,-358.59 587.38,-358.59 587.38,-355.38 590.58,-352.17 593.79,-352.17 593.79,-352.17 679.46,-352.17 679.46,-352.17 682.67,-352.17 685.88,-355.38 685.88,-358.59 685.88,-358.59 685.88,-365 685.88,-365 685.88,-368.21 682.67,-371.42 679.46,-371.42"/>
<text text-anchor="start" x="595.38" y="-358.87" font-family="Helvetica,sans-Serif" font-size="9.00">FileParserService.ts</text>
</a>
</g>
</g>
<!-- src/application/services/FileParserService.ts&#45;&gt;src/domain/entities/index.ts -->
<g id="edge7" class="edge">
<title>src/application/services/FileParserService.ts&#45;&gt;src/domain/entities/index.ts</title>
<path fill="none" stroke="#000000" stroke-opacity="0.200000" d="M686.13,-365.95C766.54,-372.17 923.72,-381.31 975.5,-362.79 989.81,-357.67 1002.98,-346.5 1012.2,-337.11"/>
<polygon fill="none" stroke="#000000" stroke-opacity="0.200000" points="1013.53,-338.75 1016.12,-332.94 1010.47,-335.87 1013.53,-338.75"/>
</g>
<!-- src/application/services/FileParserService.ts&#45;&gt;src/application/ports/index.ts -->
<g id="edge6" class="edge">
<title>src/application/services/FileParserService.ts&#45;&gt;src/application/ports/index.ts</title>
<path fill="none" stroke="#000000" stroke-opacity="0.200000" d="M685.94,-362.95C701.03,-361.07 716.83,-356.53 728.75,-346.79 757.19,-323.58 766.39,-278.81 769.36,-254.15"/>
<polygon fill="none" stroke="#000000" stroke-opacity="0.200000" points="771.42,-254.59 769.96,-248.4 767.25,-254.15 771.42,-254.59"/>
</g>
<!-- src/infrastructure/services/index.ts -->
<g id="node7" class="node">
<title>src/infrastructure/services/index.ts</title>
<g id="a_node7"><a xlink:href="src/infrastructure/services/index.ts" xlink:title="index.ts">
<path fill="#ddfeff" stroke="black" d="M792.33,-85.42C792.33,-85.42 751.17,-85.42 751.17,-85.42 747.96,-85.42 744.75,-82.21 744.75,-79 744.75,-79 744.75,-72.59 744.75,-72.59 744.75,-69.38 747.96,-66.17 751.17,-66.17 751.17,-66.17 792.33,-66.17 792.33,-66.17 795.54,-66.17 798.75,-69.38 798.75,-72.59 798.75,-72.59 798.75,-79 798.75,-79 798.75,-82.21 795.54,-85.42 792.33,-85.42"/>
<text text-anchor="start" x="756" y="-72.87" font-family="Helvetica,sans-Serif" font-size="9.00">index.ts</text>
</a>
</g>
</g>
<!-- src/application/services/FileParserService.ts&#45;&gt;src/infrastructure/services/index.ts -->
<g id="edge8" class="edge">
<title>src/application/services/FileParserService.ts&#45;&gt;src/infrastructure/services/index.ts</title>
<path fill="none" stroke="#000000" stroke-width="2" stroke-opacity="0.200000" d="M686.1,-365.28C701.94,-363.76 718.16,-358.83 728.75,-346.79 745.56,-327.67 727.84,-141.64 736.75,-117.79 740.37,-108.11 747.18,-98.97 753.76,-91.71"/>
<polygon fill="#000000" fill-opacity="0.200000" stroke="#000000" stroke-width="2" stroke-opacity="0.200000" points="754.89,-93.57 757.54,-87.79 751.86,-90.65 754.89,-93.57"/>
</g>
<!-- src/infrastructure/video/index.ts -->
<g id="node8" class="node">
<title>src/infrastructure/video/index.ts</title>
<g id="a_node8"><a xlink:href="src/infrastructure/video/index.ts" xlink:title="index.ts">
<path fill="#ddfeff" stroke="black" d="M792.33,-148.42C792.33,-148.42 751.17,-148.42 751.17,-148.42 747.96,-148.42 744.75,-145.21 744.75,-142 744.75,-142 744.75,-135.59 744.75,-135.59 744.75,-132.38 747.96,-129.17 751.17,-129.17 751.17,-129.17 792.33,-129.17 792.33,-129.17 795.54,-129.17 798.75,-132.38 798.75,-135.59 798.75,-135.59 798.75,-142 798.75,-142 798.75,-145.21 795.54,-148.42 792.33,-148.42"/>
<text text-anchor="start" x="756" y="-135.87" font-family="Helvetica,sans-Serif" font-size="9.00">index.ts</text>
</a>
</g>
</g>
<!-- src/application/services/FileParserService.ts&#45;&gt;src/infrastructure/video/index.ts -->
<g id="edge9" class="edge">
<title>src/application/services/FileParserService.ts&#45;&gt;src/infrastructure/video/index.ts</title>
<path fill="none" stroke="#000000" stroke-width="2" stroke-opacity="0.200000" d="M685.93,-365.13C701.75,-363.59 718.01,-358.69 728.75,-346.79 738.52,-335.97 733.31,-229.96 736.75,-215.79 741.93,-194.47 752.74,-171.66 760.78,-156.45"/>
<polygon fill="#000000" fill-opacity="0.200000" stroke="#000000" stroke-width="2" stroke-opacity="0.200000" points="762.45,-157.78 763.47,-151.5 758.76,-155.77 762.45,-157.78"/>
</g>
<!-- src/application/services/FiltersService.ts -->
<g id="node9" class="node">
<title>src/application/services/FiltersService.ts</title>
<g id="a_node9"><a xlink:href="src/application/services/FiltersService.ts" xlink:title="FiltersService.ts">
<path fill="#ddfeff" stroke="black" d="M670.83,-402.42C670.83,-402.42 602.42,-402.42 602.42,-402.42 599.21,-402.42 596,-399.21 596,-396 596,-396 596,-389.59 596,-389.59 596,-386.38 599.21,-383.17 602.42,-383.17 602.42,-383.17 670.83,-383.17 670.83,-383.17 674.04,-383.17 677.25,-386.38 677.25,-389.59 677.25,-389.59 677.25,-396 677.25,-396 677.25,-399.21 674.04,-402.42 670.83,-402.42"/>
<text text-anchor="start" x="604" y="-389.87" font-family="Helvetica,sans-Serif" font-size="9.00">FiltersService.ts</text>
</a>
</g>
</g>
<!-- src/application/services/FiltersService.ts&#45;&gt;src/domain/entities/index.ts -->
<g id="edge10" class="edge">
<title>src/application/services/FiltersService.ts&#45;&gt;src/domain/entities/index.ts</title>
<path fill="none" stroke="#000000" stroke-opacity="0.200000" d="M677.51,-399.06C743,-407.48 875.99,-416.68 975.5,-371.79 991.89,-364.4 1005.89,-349.1 1014.87,-337.36"/>
<polygon fill="none" stroke="#000000" stroke-opacity="0.200000" points="1016.35,-338.91 1018.2,-332.83 1012.96,-336.42 1016.35,-338.91"/>
</g>
<!-- src/application/services/Hotkeys.ts -->
<g id="node10" class="node">
<title>src/application/services/Hotkeys.ts</title>
<g id="a_node10"><a xlink:href="src/application/services/Hotkeys.ts" xlink:title="Hotkeys.ts">
<path fill="#ddfeff" stroke="black" d="M659.58,-340.42C659.58,-340.42 613.67,-340.42 613.67,-340.42 610.46,-340.42 607.25,-337.21 607.25,-334 607.25,-334 607.25,-327.59 607.25,-327.59 607.25,-324.38 610.46,-321.17 613.67,-321.17 613.67,-321.17 659.58,-321.17 659.58,-321.17 662.79,-321.17 666,-324.38 666,-327.59 666,-327.59 666,-334 666,-334 666,-337.21 662.79,-340.42 659.58,-340.42"/>
<text text-anchor="start" x="615.25" y="-327.87" font-family="Helvetica,sans-Serif" font-size="9.00">Hotkeys.ts</text>
</a>
</g>
</g>
<!-- src/application/services/index.ts -->
<g id="node11" class="node">
<title>src/application/services/index.ts</title>
<g id="a_node11"><a xlink:href="src/application/services/index.ts" xlink:title="index.ts">
<path fill="#ddfeff" stroke="black" d="M533.08,-340.42C533.08,-340.42 491.92,-340.42 491.92,-340.42 488.71,-340.42 485.5,-337.21 485.5,-334 485.5,-334 485.5,-327.59 485.5,-327.59 485.5,-324.38 488.71,-321.17 491.92,-321.17 491.92,-321.17 533.08,-321.17 533.08,-321.17 536.29,-321.17 539.5,-324.38 539.5,-327.59 539.5,-327.59 539.5,-334 539.5,-334 539.5,-337.21 536.29,-340.42 533.08,-340.42"/>
<text text-anchor="start" x="496.75" y="-327.87" font-family="Helvetica,sans-Serif" font-size="9.00">index.ts</text>
</a>
</g>
</g>
<!-- src/application/services/index.ts&#45;&gt;src/application/services/FileParserService.ts -->
<g id="edge11" class="edge">
<title>src/application/services/index.ts&#45;&gt;src/application/services/FileParserService.ts</title>
<path fill="none" stroke="#000000" stroke-width="2" stroke-opacity="0.200000" d="M535.49,-340.76C540.96,-342.98 546.88,-345.15 587.31,-354.85"/>
<polygon fill="#000000" fill-opacity="0.200000" stroke="#000000" stroke-width="2" stroke-opacity="0.200000" points="590.12,-353.46 594.02,-361.56 585.92,-357.66 590.12,-353.46"/>
</g>
<!-- src/application/services/index.ts&#45;&gt;src/application/services/FiltersService.ts -->
<g id="edge12" class="edge">
<title>src/application/services/index.ts&#45;&gt;src/application/services/FiltersService.ts</title>
<path fill="none" stroke="#000000" stroke-width="2" stroke-opacity="0.200000" d="M518.94,-340.85C525.41,-351.79 537.3,-368.92 595.6,-391.23"/>
<polygon fill="#000000" fill-opacity="0.200000" stroke="#000000" stroke-width="2" stroke-opacity="0.200000" points="598.4,-389.83 602.3,-397.93 594.2,-394.03 598.4,-389.83"/>
</g>
<!-- src/application/services/index.ts&#45;&gt;src/application/services/Hotkeys.ts -->
<g id="edge13" class="edge">
<title>src/application/services/index.ts&#45;&gt;src/application/services/Hotkeys.ts</title>
<path fill="none" stroke="#000000" stroke-width="2" stroke-opacity="0.200000" d="M540,-330.79C559.78,-330.79 586.78,-330.79 607.05,-330.79"/>
<polygon fill="#000000" fill-opacity="0.200000" stroke="#000000" stroke-width="2" stroke-opacity="0.200000" points="609.85,-329.4 613.75,-337.5 605.65,-333.6 609.85,-329.4"/>
</g>
<!-- src/application/stores/appStateStore.ts -->
<g id="node12" class="node">
<title>src/application/stores/appStateStore.ts</title>
<g id="a_node12"><a xlink:href="src/application/stores/appStateStore.ts" xlink:title="appStateStore.ts">
<path fill="#ddfeff" stroke="black" d="M447.08,-292.42C447.08,-292.42 375.67,-292.42 375.67,-292.42 372.46,-292.42 369.25,-289.21 369.25,-286 369.25,-286 369.25,-279.59 369.25,-279.59 369.25,-276.38 372.46,-273.17 375.67,-273.17 375.67,-273.17 447.08,-273.17 447.08,-273.17 450.29,-273.17 453.5,-276.38 453.5,-279.59 453.5,-279.59 453.5,-286 453.5,-286 453.5,-289.21 450.29,-292.42 447.08,-292.42"/>
<text text-anchor="start" x="377.25" y="-279.87" font-family="Helvetica,sans-Serif" font-size="9.00">appStateStore.ts</text>
</a>
</g>
</g>
<!-- src/application/stores/appStateStore.ts&#45;&gt;src/application/services/index.ts -->
<g id="edge14" class="edge">
<title>src/application/stores/appStateStore.ts&#45;&gt;src/application/services/index.ts</title>
<path fill="none" stroke="#000000" stroke-width="2" stroke-opacity="0.200000" d="M432.91,-292.74C447.3,-299.71 466.73,-309.12 482.67,-316.84"/>
<polygon fill="#000000" fill-opacity="0.200000" stroke="#000000" stroke-width="2" stroke-opacity="0.200000" points="481.61,-318.65 487.92,-319.38 483.44,-314.87 481.61,-318.65"/>
</g>
<!-- src/application/stores/index.ts -->
<g id="node13" class="node">
<title>src/application/stores/index.ts</title>
<g id="a_node13"><a xlink:href="src/application/stores/index.ts" xlink:title="index.ts">
<path fill="#ddfeff" stroke="black" d="M349.83,-261.42C349.83,-261.42 308.67,-261.42 308.67,-261.42 305.46,-261.42 302.25,-258.21 302.25,-255 302.25,-255 302.25,-248.59 302.25,-248.59 302.25,-245.38 305.46,-242.17 308.67,-242.17 308.67,-242.17 349.83,-242.17 349.83,-242.17 353.04,-242.17 356.25,-245.38 356.25,-248.59 356.25,-248.59 356.25,-255 356.25,-255 356.25,-258.21 353.04,-261.42 349.83,-261.42"/>
<text text-anchor="start" x="313.5" y="-248.87" font-family="Helvetica,sans-Serif" font-size="9.00">index.ts</text>
</a>
</g>
</g>
<!-- src/application/stores/index.ts&#45;&gt;src/application/stores/appStateStore.ts -->
<g id="edge15" class="edge">
<title>src/application/stores/index.ts&#45;&gt;src/application/stores/appStateStore.ts</title>
<path fill="none" stroke="#000000" stroke-width="2" stroke-opacity="0.200000" d="M354.12,-261.76C359.1,-263.79 364.34,-265.89 382.45,-272.78"/>
<polygon fill="#000000" fill-opacity="0.200000" stroke="#000000" stroke-width="2" stroke-opacity="0.200000" points="385.25,-271.38 389.15,-279.48 381.05,-275.58 385.25,-271.38"/>
</g>
<!-- src/application/stores/videosStore.ts -->
<g id="node14" class="node">
<title>src/application/stores/videosStore.ts</title>
<g id="a_node14"><a xlink:href="src/application/stores/videosStore.ts" xlink:title="videosStore.ts">
<path fill="#ddfeff" stroke="black" d="M442.21,-261.42C442.21,-261.42 380.54,-261.42 380.54,-261.42 377.33,-261.42 374.12,-258.21 374.12,-255 374.12,-255 374.12,-248.59 374.12,-248.59 374.12,-245.38 377.33,-242.17 380.54,-242.17 380.54,-242.17 442.21,-242.17 442.21,-242.17 445.42,-242.17 448.62,-245.38 448.62,-248.59 448.62,-248.59 448.62,-255 448.62,-255 448.62,-258.21 445.42,-261.42 442.21,-261.42"/>
<text text-anchor="start" x="382.12" y="-248.87" font-family="Helvetica,sans-Serif" font-size="9.00">videosStore.ts</text>
</a>
</g>
</g>
<!-- src/application/stores/index.ts&#45;&gt;src/application/stores/videosStore.ts -->
<g id="edge16" class="edge">
<title>src/application/stores/index.ts&#45;&gt;src/application/stores/videosStore.ts</title>
<path fill="none" stroke="#000000" stroke-width="2" stroke-opacity="0.200000" d="M356.49,-251.79C362.05,-251.79 368.03,-251.79 373.9,-251.79"/>
<polygon fill="#000000" fill-opacity="0.200000" stroke="#000000" stroke-width="2" stroke-opacity="0.200000" points="376.71,-250.4 380.61,-258.5 372.51,-254.6 376.71,-250.4"/>
</g>
<!-- src/application/stores/videosStore.ts&#45;&gt;src/domain/entities/index.ts -->
<g id="edge19" class="edge">
<title>src/application/stores/videosStore.ts&#45;&gt;src/domain/entities/index.ts</title>
<path fill="none" stroke="#000000" stroke-opacity="0.200000" d="M448.89,-257.28C453.77,-259.5 458.21,-262.57 461.5,-266.79 472.84,-281.37 456.36,-419.81 469.5,-432.79 522.06,-484.72 561.74,-438.79 635.62,-438.79 635.62,-438.79 635.62,-438.79 772.75,-438.79 865.25,-438.79 898.59,-443.19 975.5,-391.79 995.49,-378.43 1010.11,-354.19 1018.21,-338.04"/>
<polygon fill="none" stroke="#000000" stroke-opacity="0.200000" points="1019.91,-339.35 1020.62,-333.03 1016.13,-337.52 1019.91,-339.35"/>
</g>
<!-- src/application/stores/videosStore.ts&#45;&gt;src/application/services/index.ts -->
<g id="edge17" class="edge">
<title>src/application/stores/videosStore.ts&#45;&gt;src/application/services/index.ts</title>
<path fill="none" stroke="#000000" stroke-width="2" stroke-opacity="0.200000" d="M448.86,-257.94C453.62,-260.08 458.04,-262.95 461.5,-266.79 473.93,-280.58 458.54,-292.81 469.5,-307.79 471.83,-310.97 474.73,-313.77 477.92,-316.2"/>
<polygon fill="#000000" fill-opacity="0.200000" stroke="#000000" stroke-width="2" stroke-opacity="0.200000" points="476.54,-317.81 482.71,-319.33 478.83,-314.29 476.54,-317.81"/>
</g>
<!-- src/application/usecases/index.ts -->
<g id="node15" class="node">
<title>src/application/usecases/index.ts</title>
<g id="a_node15"><a xlink:href="src/application/usecases/index.ts" xlink:title="index.ts">
<path fill="#ddfeff" stroke="black" d="M533.08,-261.42C533.08,-261.42 491.92,-261.42 491.92,-261.42 488.71,-261.42 485.5,-258.21 485.5,-255 485.5,-255 485.5,-248.59 485.5,-248.59 485.5,-245.38 488.71,-242.17 491.92,-242.17 491.92,-242.17 533.08,-242.17 533.08,-242.17 536.29,-242.17 539.5,-245.38 539.5,-248.59 539.5,-248.59 539.5,-255 539.5,-255 539.5,-258.21 536.29,-261.42 533.08,-261.42"/>
<text text-anchor="start" x="496.75" y="-248.87" font-family="Helvetica,sans-Serif" font-size="9.00">index.ts</text>
</a>
</g>
</g>
<!-- src/application/stores/videosStore.ts&#45;&gt;src/application/usecases/index.ts -->
<g id="edge18" class="edge">
<title>src/application/stores/videosStore.ts&#45;&gt;src/application/usecases/index.ts</title>
<path fill="none" stroke="#000000" stroke-width="2" stroke-opacity="0.200000" d="M449,-251.79C457.93,-251.79 467.45,-251.79 476.31,-251.79"/>
<polygon fill="#000000" fill-opacity="0.200000" stroke="#000000" stroke-width="2" stroke-opacity="0.200000" points="476.21,-253.89 482.21,-251.79 476.21,-249.69 476.21,-253.89"/>
</g>
<!-- src/infrastructure/adapters/index.ts -->
<g id="node16" class="node">
<title>src/infrastructure/adapters/index.ts</title>
<g id="a_node16"><a xlink:href="src/infrastructure/adapters/index.ts" xlink:title="index.ts">
<path fill="#ddfeff" stroke="black" d="M533.08,-132.42C533.08,-132.42 491.92,-132.42 491.92,-132.42 488.71,-132.42 485.5,-129.21 485.5,-126 485.5,-126 485.5,-119.59 485.5,-119.59 485.5,-116.38 488.71,-113.17 491.92,-113.17 491.92,-113.17 533.08,-113.17 533.08,-113.17 536.29,-113.17 539.5,-116.38 539.5,-119.59 539.5,-119.59 539.5,-126 539.5,-126 539.5,-129.21 536.29,-132.42 533.08,-132.42"/>
<text text-anchor="start" x="496.75" y="-119.87" font-family="Helvetica,sans-Serif" font-size="9.00">index.ts</text>
</a>
</g>
</g>
<!-- src/application/stores/videosStore.ts&#45;&gt;src/infrastructure/adapters/index.ts -->
<g id="edge20" class="edge">
<title>src/application/stores/videosStore.ts&#45;&gt;src/infrastructure/adapters/index.ts</title>
<path fill="none" stroke="#000000" stroke-width="2" stroke-opacity="0.200000" d="M420.15,-241.67C437.09,-219.63 477.47,-167.09 498.4,-139.84"/>
<polygon fill="#000000" fill-opacity="0.200000" stroke="#000000" stroke-width="2" stroke-opacity="0.200000" points="499.92,-141.31 501.91,-135.27 496.59,-138.75 499.92,-141.31"/>
</g>
<!-- src/application/usecases/AddVideosFromFilesUseCase.ts -->
<g id="node17" class="node">
<title>src/application/usecases/AddVideosFromFilesUseCase.ts</title>
<g id="a_node17"><a xlink:href="src/application/usecases/AddVideosFromFilesUseCase.ts" xlink:title="AddVideosFromFilesUseCase.ts">
<path fill="#ddfeff" stroke="black" d="M706.08,-246.42C706.08,-246.42 567.17,-246.42 567.17,-246.42 563.96,-246.42 560.75,-243.21 560.75,-240 560.75,-240 560.75,-233.59 560.75,-233.59 560.75,-230.38 563.96,-227.17 567.17,-227.17 567.17,-227.17 706.08,-227.17 706.08,-227.17 709.29,-227.17 712.5,-230.38 712.5,-233.59 712.5,-233.59 712.5,-240 712.5,-240 712.5,-243.21 709.29,-246.42 706.08,-246.42"/>
<text text-anchor="start" x="568.75" y="-233.87" font-family="Helvetica,sans-Serif" font-size="9.00">AddVideosFromFilesUseCase.ts</text>
</a>
</g>
</g>
<!-- src/application/usecases/index.ts&#45;&gt;src/application/usecases/AddVideosFromFilesUseCase.ts -->
<g id="edge25" class="edge">
<title>src/application/usecases/index.ts&#45;&gt;src/application/usecases/AddVideosFromFilesUseCase.ts</title>
<path fill="none" stroke="#000000" stroke-width="2" stroke-opacity="0.200000" d="M540,-248.54C546.31,-247.76 553.36,-246.9 560.69,-246"/>
<polygon fill="#000000" fill-opacity="0.200000" stroke="#000000" stroke-width="2" stroke-opacity="0.200000" points="563.5,-244.6 567.4,-252.7 559.3,-248.8 563.5,-244.6"/>
</g>
<!-- src/application/usecases/UpdateVideoThumbnailsUseCase.ts -->
<g id="node18" class="node">
<title>src/application/usecases/UpdateVideoThumbnailsUseCase.ts</title>
<g id="a_node18"><a xlink:href="src/application/usecases/UpdateVideoThumbnailsUseCase.ts" xlink:title="UpdateVideoThumbnailsUseCase.ts">
<path fill="#ddfeff" stroke="black" d="M714.33,-277.42C714.33,-277.42 558.92,-277.42 558.92,-277.42 555.71,-277.42 552.5,-274.21 552.5,-271 552.5,-271 552.5,-264.59 552.5,-264.59 552.5,-261.38 555.71,-258.17 558.92,-258.17 558.92,-258.17 714.33,-258.17 714.33,-258.17 717.54,-258.17 720.75,-261.38 720.75,-264.59 720.75,-264.59 720.75,-271 720.75,-271 720.75,-274.21 717.54,-277.42 714.33,-277.42"/>
<text text-anchor="start" x="560.5" y="-264.87" font-family="Helvetica,sans-Serif" font-size="9.00">UpdateVideoThumbnailsUseCase.ts</text>
</a>
</g>
</g>
<!-- src/application/usecases/index.ts&#45;&gt;src/application/usecases/UpdateVideoThumbnailsUseCase.ts -->
<g id="edge26" class="edge">
<title>src/application/usecases/index.ts&#45;&gt;src/application/usecases/UpdateVideoThumbnailsUseCase.ts</title>
<path fill="none" stroke="#000000" stroke-width="2" stroke-opacity="0.200000" d="M540,-255.27C545.75,-256.02 552.11,-256.85 558.74,-257.72"/>
<polygon fill="#000000" fill-opacity="0.200000" stroke="#000000" stroke-width="2" stroke-opacity="0.200000" points="561.55,-256.33 565.45,-264.43 557.35,-260.53 561.55,-256.33"/>
</g>
<!-- src/infrastructure/adapters/VideoParserAdapter.ts -->
<g id="node19" class="node">
<title>src/infrastructure/adapters/VideoParserAdapter.ts</title>
<g id="a_node19"><a xlink:href="src/infrastructure/adapters/VideoParserAdapter.ts" xlink:title="VideoParserAdapter.ts">
<path fill="#ddfeff" stroke="black" d="M684.33,-117.42C684.33,-117.42 588.92,-117.42 588.92,-117.42 585.71,-117.42 582.5,-114.21 582.5,-111 582.5,-111 582.5,-104.59 582.5,-104.59 582.5,-101.38 585.71,-98.17 588.92,-98.17 588.92,-98.17 684.33,-98.17 684.33,-98.17 687.54,-98.17 690.75,-101.38 690.75,-104.59 690.75,-104.59 690.75,-111 690.75,-111 690.75,-114.21 687.54,-117.42 684.33,-117.42"/>
<text text-anchor="start" x="590.5" y="-104.87" font-family="Helvetica,sans-Serif" font-size="9.00">VideoParserAdapter.ts</text>
</a>
</g>
</g>
<!-- src/infrastructure/adapters/index.ts&#45;&gt;src/infrastructure/adapters/VideoParserAdapter.ts -->
<g id="edge36" class="edge">
<title>src/infrastructure/adapters/index.ts&#45;&gt;src/infrastructure/adapters/VideoParserAdapter.ts</title>
<path fill="none" stroke="#000000" stroke-width="2" stroke-opacity="0.200000" d="M540,-119.54C552.35,-118.02 567.5,-116.16 582.08,-114.37"/>
<polygon fill="#000000" fill-opacity="0.200000" stroke="#000000" stroke-width="2" stroke-opacity="0.200000" points="584.89,-112.98 588.79,-121.08 580.69,-117.18 584.89,-112.98"/>
</g>
<!-- src/infrastructure/adapters/VideoStorageAdapter.ts -->
<g id="node20" class="node">
<title>src/infrastructure/adapters/VideoStorageAdapter.ts</title>
<g id="a_node20"><a xlink:href="src/infrastructure/adapters/VideoStorageAdapter.ts" xlink:title="VideoStorageAdapter.ts">
<path fill="#ddfeff" stroke="black" d="M686.58,-86.42C686.58,-86.42 586.67,-86.42 586.67,-86.42 583.46,-86.42 580.25,-83.21 580.25,-80 580.25,-80 580.25,-73.59 580.25,-73.59 580.25,-70.38 583.46,-67.17 586.67,-67.17 586.67,-67.17 686.58,-67.17 686.58,-67.17 689.79,-67.17 693,-70.38 693,-73.59 693,-73.59 693,-80 693,-80 693,-83.21 689.79,-86.42 686.58,-86.42"/>
<text text-anchor="start" x="588.25" y="-73.87" font-family="Helvetica,sans-Serif" font-size="9.00">VideoStorageAdapter.ts</text>
</a>
</g>
</g>
<!-- src/infrastructure/adapters/index.ts&#45;&gt;src/infrastructure/adapters/VideoStorageAdapter.ts -->
<g id="edge37" class="edge">
<title>src/infrastructure/adapters/index.ts&#45;&gt;src/infrastructure/adapters/VideoStorageAdapter.ts</title>
<path fill="none" stroke="#000000" stroke-width="2" stroke-opacity="0.200000" d="M523.16,-112.84C530.54,-105.84 541.31,-96.86 579.92,-82.92"/>
<polygon fill="#000000" fill-opacity="0.200000" stroke="#000000" stroke-width="2" stroke-opacity="0.200000" points="582.72,-81.53 586.62,-89.63 578.52,-85.73 582.72,-81.53"/>
</g>
<!-- src/infrastructure/adapters/VideoThumbnailGeneratorAdapter.ts -->
<g id="node21" class="node">
<title>src/infrastructure/adapters/VideoThumbnailGeneratorAdapter.ts</title>
<g id="a_node21"><a xlink:href="src/infrastructure/adapters/VideoThumbnailGeneratorAdapter.ts" xlink:title="VideoThumbnailGeneratorAdapter.ts">
<path fill="#ddfeff" stroke="black" d="M713.21,-148.42C713.21,-148.42 560.04,-148.42 560.04,-148.42 556.83,-148.42 553.62,-145.21 553.62,-142 553.62,-142 553.62,-135.59 553.62,-135.59 553.62,-132.38 556.83,-129.17 560.04,-129.17 560.04,-129.17 713.21,-129.17 713.21,-129.17 716.42,-129.17 719.62,-132.38 719.62,-135.59 719.62,-135.59 719.62,-142 719.62,-142 719.62,-145.21 716.42,-148.42 713.21,-148.42"/>
<text text-anchor="start" x="561.62" y="-135.87" font-family="Helvetica,sans-Serif" font-size="9.00">VideoThumbnailGeneratorAdapter.ts</text>
</a>
</g>
</g>
<!-- src/infrastructure/adapters/index.ts&#45;&gt;src/infrastructure/adapters/VideoThumbnailGeneratorAdapter.ts -->
<g id="edge38" class="edge">
<title>src/infrastructure/adapters/index.ts&#45;&gt;src/infrastructure/adapters/VideoThumbnailGeneratorAdapter.ts</title>
<path fill="none" stroke="#000000" stroke-width="2" stroke-opacity="0.200000" d="M540,-126.27C545.75,-127.02 552.11,-127.85 558.74,-128.72"/>
<polygon fill="#000000" fill-opacity="0.200000" stroke="#000000" stroke-width="2" stroke-opacity="0.200000" points="561.55,-127.33 565.45,-135.43 557.35,-131.53 561.55,-127.33"/>
</g>
<!-- src/application/usecases/AddVideosFromFilesUseCase.ts&#45;&gt;src/domain/entities/index.ts -->
<g id="edge22" class="edge">
<title>src/application/usecases/AddVideosFromFilesUseCase.ts&#45;&gt;src/domain/entities/index.ts</title>
<path fill="none" stroke="#000000" stroke-opacity="0.200000" d="M712.58,-240.38C718.63,-243.15 724.16,-246.86 728.75,-251.79 741.98,-266 722.41,-325.71 736.75,-338.79 756.35,-356.67 949.33,-343.12 975.5,-338.79 981.61,-337.78 987.98,-336.12 994.04,-334.22"/>
<polygon fill="none" stroke="#000000" stroke-opacity="0.200000" points="994.52,-336.28 999.55,-332.39 993.2,-332.29 994.52,-336.28"/>
</g>
<!-- src/application/usecases/AddVideosFromFilesUseCase.ts&#45;&gt;src/application/ports/index.ts -->
<g id="edge21" class="edge">
<title>src/application/usecases/AddVideosFromFilesUseCase.ts&#45;&gt;src/application/ports/index.ts</title>
<path fill="none" stroke="#000000" stroke-opacity="0.200000" d="M712.75,-236.79C721.24,-236.79 729.54,-236.79 737.09,-236.79"/>
<polygon fill="none" stroke="#000000" stroke-opacity="0.200000" points="736.86,-238.89 742.86,-236.79 736.86,-234.69 736.86,-238.89"/>
</g>
<!-- src/application/usecases/UpdateVideoThumbnailsUseCase.ts&#45;&gt;src/domain/entities/index.ts -->
<g id="edge24" class="edge">
<title>src/application/usecases/UpdateVideoThumbnailsUseCase.ts&#45;&gt;src/domain/entities/index.ts</title>
<path fill="none" stroke="#000000" stroke-opacity="0.200000" d="M679.24,-277.86C696.99,-284.2 716.41,-294.24 728.75,-309.79 739.75,-323.66 723.04,-337.61 736.75,-348.79 757.31,-365.56 949.78,-355.29 975.5,-348.79 985.87,-346.17 996.42,-340.93 1005.14,-335.76"/>
<polygon fill="none" stroke="#000000" stroke-opacity="0.200000" points="1006.14,-337.61 1010.13,-332.66 1003.92,-334.04 1006.14,-337.61"/>
</g>
<!-- src/application/usecases/UpdateVideoThumbnailsUseCase.ts&#45;&gt;src/application/ports/index.ts -->
<g id="edge23" class="edge">
<title>src/application/usecases/UpdateVideoThumbnailsUseCase.ts&#45;&gt;src/application/ports/index.ts</title>
<path fill="none" stroke="#000000" stroke-opacity="0.200000" d="M707.59,-257.75C714.78,-256.28 721.94,-254.63 728.75,-252.79 732.52,-251.78 736.41,-250.55 740.25,-249.23"/>
<polygon fill="none" stroke="#000000" stroke-opacity="0.200000" points="740.68,-251.3 745.61,-247.29 739.26,-247.35 740.68,-251.3"/>
</g>
<!-- src/infrastructure/adapters/VideoParserAdapter.ts&#45;&gt;src/domain/entities/index.ts -->
<g id="edge28" class="edge">
<title>src/infrastructure/adapters/VideoParserAdapter.ts&#45;&gt;src/domain/entities/index.ts</title>
<path fill="none" stroke="#000000" stroke-opacity="0.200000" d="M691.15,-109.42C704.92,-107.26 718.67,-102.44 728.75,-92.79 741.22,-80.86 723.35,-65.67 736.75,-54.79 763.67,-32.95 782.73,-41.51 814.75,-54.79 930.44,-102.76 999.08,-254.48 1019.23,-305.14"/>
<polygon fill="none" stroke="#000000" stroke-opacity="0.200000" points="1017.17,-305.62 1021.3,-310.45 1021.08,-304.1 1017.17,-305.62"/>
</g>
<!-- src/infrastructure/adapters/VideoParserAdapter.ts&#45;&gt;src/application/ports/index.ts -->
<g id="edge27" class="edge">
<title>src/infrastructure/adapters/VideoParserAdapter.ts&#45;&gt;src/application/ports/index.ts</title>
<path fill="none" stroke="#000000" stroke-opacity="0.200000" d="M691.1,-105.67C705.03,-107.79 718.88,-112.71 728.75,-122.79 737.54,-131.78 732.6,-166.93 736.75,-178.79 742.03,-193.9 751.4,-209.46 758.97,-220.66"/>
<polygon fill="none" stroke="#000000" stroke-opacity="0.200000" points="757.17,-221.74 762.31,-225.46 760.62,-219.34 757.17,-221.74"/>
</g>
<!-- src/infrastructure/adapters/VideoParserAdapter.ts&#45;&gt;src/infrastructure/services/index.ts -->
<g id="edge29" class="edge">
<title>src/infrastructure/adapters/VideoParserAdapter.ts&#45;&gt;src/infrastructure/services/index.ts</title>
<path fill="none" stroke="#000000" stroke-width="2" stroke-opacity="0.200000" d="M691.06,-101.03C703.55,-98.89 716.71,-96.18 728.75,-92.79 732.52,-91.74 736.4,-90.45 740.22,-89.06"/>
<polygon fill="#000000" fill-opacity="0.200000" stroke="#000000" stroke-width="2" stroke-opacity="0.200000" points="740.73,-91.11 745.58,-86.99 739.22,-87.19 740.73,-91.11"/>
</g>
<!-- src/infrastructure/adapters/VideoParserAdapter.ts&#45;&gt;src/infrastructure/video/index.ts -->
<g id="edge30" class="edge">
<title>src/infrastructure/adapters/VideoParserAdapter.ts&#45;&gt;src/infrastructure/video/index.ts</title>
<path fill="none" stroke="#000000" stroke-width="2" stroke-opacity="0.200000" d="M691.01,-114.74C703.5,-116.87 716.68,-119.54 728.75,-122.79 732.05,-123.68 735.44,-124.74 738.81,-125.87"/>
<polygon fill="#000000" fill-opacity="0.200000" stroke="#000000" stroke-width="2" stroke-opacity="0.200000" points="737.83,-127.75 744.19,-127.79 739.24,-123.8 737.83,-127.75"/>
</g>
<!-- src/infrastructure/adapters/VideoStorageAdapter.ts&#45;&gt;src/domain/entities/index.ts -->
<g id="edge32" class="edge">
<title>src/infrastructure/adapters/VideoStorageAdapter.ts&#45;&gt;src/domain/entities/index.ts</title>
<path fill="none" stroke="#000000" stroke-opacity="0.200000" d="M657.9,-66.77C677.52,-57.67 708.37,-44.92 736.75,-39.79 789.11,-30.34 936.48,-21.62 975.5,-57.79 1011.86,-91.5 1022.31,-251.28 1024.81,-304.5"/>
<polygon fill="none" stroke="#000000" stroke-opacity="0.200000" points="1022.7,-304.41 1025.07,-310.31 1026.9,-304.22 1022.7,-304.41"/>
</g>
<!-- src/infrastructure/adapters/VideoStorageAdapter.ts&#45;&gt;src/application/ports/index.ts -->
<g id="edge31" class="edge">
<title>src/infrastructure/adapters/VideoStorageAdapter.ts&#45;&gt;src/application/ports/index.ts</title>
<path fill="none" stroke="#000000" stroke-opacity="0.200000" d="M693.33,-74.66C706.61,-76.93 719.57,-81.94 728.75,-91.79 741.98,-106 730.81,-160.31 736.75,-178.79 741.65,-194.03 751.05,-209.58 758.73,-220.74"/>
<polygon fill="none" stroke="#000000" stroke-opacity="0.200000" points="756.94,-221.85 762.13,-225.53 760.37,-219.42 756.94,-221.85"/>
</g>
<!-- src/infrastructure/adapters/VideoStorageAdapter.ts&#45;&gt;src/infrastructure/services/index.ts -->
<g id="edge33" class="edge">
<title>src/infrastructure/adapters/VideoStorageAdapter.ts&#45;&gt;src/infrastructure/services/index.ts</title>
<path fill="none" stroke="#000000" stroke-width="2" stroke-opacity="0.200000" d="M693.31,-76.38C707.53,-76.27 722.43,-76.16 735.32,-76.06"/>
<polygon fill="#000000" fill-opacity="0.200000" stroke="#000000" stroke-width="2" stroke-opacity="0.200000" points="735.3,-78.16 741.28,-76.01 735.27,-73.96 735.3,-78.16"/>
</g>
<!-- src/infrastructure/adapters/VideoThumbnailGeneratorAdapter.ts&#45;&gt;src/application/ports/index.ts -->
<g id="edge34" class="edge">
<title>src/infrastructure/adapters/VideoThumbnailGeneratorAdapter.ts&#45;&gt;src/application/ports/index.ts</title>
<path fill="none" stroke="#000000" stroke-opacity="0.200000" d="M651.37,-148.91C675.21,-166.46 724.28,-202.58 751.5,-222.62"/>
<polygon fill="none" stroke="#000000" stroke-opacity="0.200000" points="749.98,-224.11 756.06,-225.98 752.47,-220.73 749.98,-224.11"/>
</g>
<!-- src/infrastructure/adapters/VideoThumbnailGeneratorAdapter.ts&#45;&gt;src/infrastructure/video/index.ts -->
<g id="edge35" class="edge">
<title>src/infrastructure/adapters/VideoThumbnailGeneratorAdapter.ts&#45;&gt;src/infrastructure/video/index.ts</title>
<path fill="none" stroke="#000000" stroke-width="2" stroke-opacity="0.200000" d="M720.04,-138.79C725.36,-138.79 730.53,-138.79 735.41,-138.79"/>
<polygon fill="#000000" fill-opacity="0.200000" stroke="#000000" stroke-width="2" stroke-opacity="0.200000" points="735.38,-140.89 741.38,-138.79 735.38,-136.69 735.38,-140.89"/>
</g>
<!-- src/presentation/components/VideoCard.vue -->
<g id="node22" class="node">
<title>src/presentation/components/VideoCard.vue</title>
<g id="a_node22"><a xlink:href="src/presentation/components/VideoCard.vue" xlink:title="VideoCard.vue">
<path fill="#41f083" stroke="black" d="M232.83,-89.42C232.83,-89.42 169.67,-89.42 169.67,-89.42 166.46,-89.42 163.25,-86.21 163.25,-83 163.25,-83 163.25,-76.59 163.25,-76.59 163.25,-73.38 166.46,-70.17 169.67,-70.17 169.67,-70.17 232.83,-70.17 232.83,-70.17 236.04,-70.17 239.25,-73.38 239.25,-76.59 239.25,-76.59 239.25,-83 239.25,-83 239.25,-86.21 236.04,-89.42 232.83,-89.42"/>
<text text-anchor="start" x="171.25" y="-76.87" font-family="Helvetica,sans-Serif" font-size="9.00">VideoCard.vue</text>
</a>
</g>
</g>
<!-- src/presentation/components/VideoCard.vue&#45;&gt;src/domain/entities/index.ts -->
<g id="edge40" class="edge">
<title>src/presentation/components/VideoCard.vue&#45;&gt;src/domain/entities/index.ts</title>
<path fill="none" stroke="#000000" stroke-opacity="0.200000" d="M222.97,-69.78C259.78,-52.95 339.39,-20.79 410.38,-20.79 410.38,-20.79 410.38,-20.79 772.75,-20.79 862.93,-20.79 907.74,30.71 975.5,-28.79 1017.25,-65.46 1024.14,-247.81 1025.28,-304.77"/>
<polygon fill="none" stroke="#000000" stroke-opacity="0.200000" points="1023.17,-304.47 1025.38,-310.43 1027.37,-304.39 1023.17,-304.47"/>
</g>
<!-- src/presentation/components/VideoCard.vue&#45;&gt;src/application/stores/index.ts -->
<g id="edge39" class="edge">
<title>src/presentation/components/VideoCard.vue&#45;&gt;src/application/stores/index.ts</title>
<path fill="none" stroke="#000000" stroke-width="2" stroke-opacity="0.200000" d="M239.39,-79.48C253.04,-81.18 267.71,-85.39 278.25,-94.79 318.85,-131.03 326.72,-200.1 328.08,-233.2"/>
<polygon fill="#000000" fill-opacity="0.200000" stroke="#000000" stroke-width="2" stroke-opacity="0.200000" points="325.98,-232.92 328.24,-238.86 330.17,-232.8 325.98,-232.92"/>
</g>
<!-- src/presentation/components/inputs/FileInput.vue -->
<g id="node23" class="node">
<title>src/presentation/components/inputs/FileInput.vue</title>
<g id="a_node23"><a xlink:href="src/presentation/components/inputs/FileInput.vue" xlink:title="FileInput.vue">
<path fill="#41f083" stroke="black" d="M228.71,-188.42C228.71,-188.42 173.79,-188.42 173.79,-188.42 170.58,-188.42 167.38,-185.21 167.38,-182 167.38,-182 167.38,-175.59 167.38,-175.59 167.38,-172.38 170.58,-169.17 173.79,-169.17 173.79,-169.17 228.71,-169.17 228.71,-169.17 231.92,-169.17 235.12,-172.38 235.12,-175.59 235.12,-175.59 235.12,-182 235.12,-182 235.12,-185.21 231.92,-188.42 228.71,-188.42"/>
<text text-anchor="start" x="175.38" y="-175.87" font-family="Helvetica,sans-Serif" font-size="9.00">FileInput.vue</text>
</a>
</g>
</g>
<!-- src/presentation/components/inputs/FileInput.vue&#45;&gt;src/application/stores/index.ts -->
<g id="edge41" class="edge">
<title>src/presentation/components/inputs/FileInput.vue&#45;&gt;src/application/stores/index.ts</title>
<path fill="none" stroke="#000000" stroke-width="2" stroke-opacity="0.200000" d="M219.51,-188.79C241.16,-201.33 278.45,-222.94 303.23,-237.3"/>
<polygon fill="#000000" fill-opacity="0.200000" stroke="#000000" stroke-width="2" stroke-opacity="0.200000" points="301.93,-238.97 308.18,-240.17 304.04,-235.34 301.93,-238.97"/>
</g>
<!-- src/presentation/components/utils/DiagnosticsPanel.vue -->
<g id="node24" class="node">
<title>src/presentation/components/utils/DiagnosticsPanel.vue</title>
<g id="a_node24"><a xlink:href="src/presentation/components/utils/DiagnosticsPanel.vue" xlink:title="DiagnosticsPanel.vue">
<path fill="#41f083" stroke="black" d="M247.83,-125.42C247.83,-125.42 154.67,-125.42 154.67,-125.42 151.46,-125.42 148.25,-122.21 148.25,-119 148.25,-119 148.25,-112.59 148.25,-112.59 148.25,-109.38 151.46,-106.17 154.67,-106.17 154.67,-106.17 247.83,-106.17 247.83,-106.17 251.04,-106.17 254.25,-109.38 254.25,-112.59 254.25,-112.59 254.25,-119 254.25,-119 254.25,-122.21 251.04,-125.42 247.83,-125.42"/>
<text text-anchor="start" x="156.25" y="-112.87" font-family="Helvetica,sans-Serif" font-size="9.00">DiagnosticsPanel.vue</text>
</a>
</g>
</g>
<!-- src/presentation/components/utils/DiagnosticsPanel.vue&#45;&gt;src/infrastructure/services/index.ts -->
<g id="edge43" class="edge">
<title>src/presentation/components/utils/DiagnosticsPanel.vue&#45;&gt;src/infrastructure/services/index.ts</title>
<path fill="none" stroke="#000000" stroke-width="2" stroke-opacity="0.200000" d="M254.48,-107.55C262.5,-105.89 270.64,-103.97 278.25,-101.79 338.92,-84.44 347.27,-49.79 410.38,-49.79 410.38,-49.79 410.38,-49.79 513.5,-49.79 609.2,-49.79 635.7,-33.4 728.75,-55.79 734.55,-57.19 740.51,-59.45 746.04,-61.95"/>
<polygon fill="#000000" fill-opacity="0.200000" stroke="#000000" stroke-width="2" stroke-opacity="0.200000" points="744.74,-63.66 751.06,-64.4 746.58,-59.88 744.74,-63.66"/>
</g>
<!-- src/presentation/components/utils/DiagnosticsPanel.vue&#45;&gt;src/application/stores/index.ts -->
<g id="edge42" class="edge">
<title>src/presentation/components/utils/DiagnosticsPanel.vue&#45;&gt;src/application/stores/index.ts</title>
<path fill="none" stroke="#000000" stroke-width="2" stroke-opacity="0.200000" d="M228.65,-125.83C244.52,-132.89 264.29,-143.61 278.25,-157.79 299.84,-179.73 314.49,-212.89 322.1,-233.4"/>
<polygon fill="#000000" fill-opacity="0.200000" stroke="#000000" stroke-width="2" stroke-opacity="0.200000" points="320.1,-234.05 324.09,-239 324.06,-232.64 320.1,-234.05"/>
</g>
<!-- src/presentation/views/NavBar.vue -->
<g id="node25" class="node">
<title>src/presentation/views/NavBar.vue</title>
<g id="a_node25"><a xlink:href="src/presentation/views/NavBar.vue" xlink:title="NavBar.vue">
<path fill="#41f083" stroke="black" d="M98.96,-201.42C98.96,-201.42 49.29,-201.42 49.29,-201.42 46.08,-201.42 42.88,-198.21 42.88,-195 42.88,-195 42.88,-188.59 42.88,-188.59 42.88,-185.38 46.08,-182.17 49.29,-182.17 49.29,-182.17 98.96,-182.17 98.96,-182.17 102.17,-182.17 105.38,-185.38 105.38,-188.59 105.38,-188.59 105.38,-195 105.38,-195 105.38,-198.21 102.17,-201.42 98.96,-201.42"/>
<text text-anchor="start" x="50.88" y="-188.87" font-family="Helvetica,sans-Serif" font-size="9.00">NavBar.vue</text>
</a>
</g>
</g>
<!-- src/presentation/views/NavBar.vue&#45;&gt;src/application/stores/index.ts -->
<g id="edge44" class="edge">
<title>src/presentation/views/NavBar.vue&#45;&gt;src/application/stores/index.ts</title>
<path fill="none" stroke="#000000" stroke-width="2" stroke-opacity="0.200000" d="M80.34,-201.72C88.87,-216.74 107.38,-244.65 132.25,-255.79 184.38,-279.14 252.38,-270.16 293.05,-261.2"/>
<polygon fill="#000000" fill-opacity="0.200000" stroke="#000000" stroke-width="2" stroke-opacity="0.200000" points="293.47,-263.26 298.84,-259.86 292.52,-259.17 293.47,-263.26"/>
</g>
<!-- src/presentation/views/NavBar.vue&#45;&gt;src/presentation/components/inputs/FileInput.vue -->
<g id="edge45" class="edge">
<title>src/presentation/views/NavBar.vue&#45;&gt;src/presentation/components/inputs/FileInput.vue</title>
<path fill="none" stroke="#000000" stroke-width="2" stroke-opacity="0.200000" d="M105.73,-188.61C121.51,-186.97 140.98,-184.95 158.15,-183.17"/>
<polygon fill="#000000" fill-opacity="0.200000" stroke="#000000" stroke-width="2" stroke-opacity="0.200000" points="158.12,-185.28 163.87,-182.57 157.69,-181.1 158.12,-185.28"/>
</g>
<!-- src/presentation/views/VideoGallery.vue -->
<g id="node26" class="node">
<title>src/presentation/views/VideoGallery.vue</title>
<g id="a_node26"><a xlink:href="src/presentation/views/VideoGallery.vue" xlink:title="VideoGallery.vue">
<path fill="#41f083" stroke="black" d="M109.83,-170.42C109.83,-170.42 38.42,-170.42 38.42,-170.42 35.21,-170.42 32,-167.21 32,-164 32,-164 32,-157.59 32,-157.59 32,-154.38 35.21,-151.17 38.42,-151.17 38.42,-151.17 109.83,-151.17 109.83,-151.17 113.04,-151.17 116.25,-154.38 116.25,-157.59 116.25,-157.59 116.25,-164 116.25,-164 116.25,-167.21 113.04,-170.42 109.83,-170.42"/>
<text text-anchor="start" x="40" y="-157.87" font-family="Helvetica,sans-Serif" font-size="9.00">VideoGallery.vue</text>
</a>
</g>
</g>
<!-- src/presentation/views/VideoGallery.vue&#45;&gt;src/application/stores/index.ts -->
<g id="edge46" class="edge">
<title>src/presentation/views/VideoGallery.vue&#45;&gt;src/application/stores/index.ts</title>
<path fill="none" stroke="#000000" stroke-width="2" stroke-opacity="0.200000" d="M116.41,-169.4C119.32,-171.16 121.99,-173.27 124.25,-175.79 137.2,-190.29 118.39,-205.17 132.25,-218.79 154.49,-240.66 243.03,-248.1 293.17,-250.58"/>
<polygon fill="#000000" fill-opacity="0.200000" stroke="#000000" stroke-width="2" stroke-opacity="0.200000" points="292.94,-252.67 299.03,-250.85 293.13,-248.48 292.94,-252.67"/>
</g>
<!-- src/presentation/views/VideoGallery.vue&#45;&gt;src/presentation/components/VideoCard.vue -->
<g id="edge47" class="edge">
<title>src/presentation/views/VideoGallery.vue&#45;&gt;src/presentation/components/VideoCard.vue</title>
<path fill="none" stroke="#000000" stroke-width="2" stroke-opacity="0.200000" d="M80.75,-150.98C89.68,-136.31 108.55,-108.91 132.25,-94.79 139.04,-90.75 146.79,-87.79 154.58,-85.63"/>
<polygon fill="#000000" fill-opacity="0.200000" stroke="#000000" stroke-width="2" stroke-opacity="0.200000" points="154.72,-87.76 160.05,-84.3 153.73,-83.68 154.72,-87.76"/>
</g>
</g>
</svg>
