<?xml version="1.0" encoding="UTF-8" standalone="no"?>
<!DOCTYPE svg PUBLIC "-//W3C//DTD SVG 1.1//EN"
 "http://www.w3.org/Graphics/SVG/1.1/DTD/svg11.dtd">
<!-- Generated by graphviz version 2.43.0 (0)
 -->
<!-- Title: dependency&#45;cruiser output Pages: 1 -->
<svg width="511pt" height="337pt"
 viewBox="0.00 0.00 511.00 336.68" xmlns="http://www.w3.org/2000/svg" xmlns:xlink="http://www.w3.org/1999/xlink">
<g id="graph0" class="graph" transform="scale(1 1) rotate(0) translate(4 332.68)">
<title>dependency&#45;cruiser output</title>
<polygon fill="white" stroke="transparent" points="-4,4 -4,-332.68 507,-332.68 507,4 -4,4"/>
<g id="clust1" class="cluster">
<title>cluster_src</title>
<path fill="#ffffff" stroke="black" stroke-width="2" d="M20,-10.68C20,-10.68 483,-10.68 483,-10.68 489,-10.68 495,-16.68 495,-22.68 495,-22.68 495,-308.68 495,-308.68 495,-314.68 489,-320.68 483,-320.68 483,-320.68 20,-320.68 20,-320.68 14,-320.68 8,-314.68 8,-308.68 8,-308.68 8,-22.68 8,-22.68 8,-16.68 14,-10.68 20,-10.68"/>
<text text-anchor="middle" x="251.5" y="-309.48" font-family="Helvetica,sans-Serif" font-weight="bold" font-size="9.00">src</text>
</g>
<g id="clust2" class="cluster">
<title>cluster_src/application</title>
<path fill="#ffffff" stroke="black" stroke-width="2" d="M125,-188.68C125,-188.68 383,-188.68 383,-188.68 389,-188.68 395,-194.68 395,-200.68 395,-200.68 395,-258.68 395,-258.68 395,-264.68 389,-270.68 383,-270.68 383,-270.68 125,-270.68 125,-270.68 119,-270.68 113,-264.68 113,-258.68 113,-258.68 113,-200.68 113,-200.68 113,-194.68 119,-188.68 125,-188.68"/>
<text text-anchor="middle" x="254" y="-259.48" font-family="Helvetica,sans-Serif" font-weight="bold" font-size="9.00">application</text>
</g>
<g id="clust3" class="cluster">
<title>cluster_src/domain</title>
<path fill="#ffffff" stroke="black" stroke-width="2" d="M415,-188.68C415,-188.68 475,-188.68 475,-188.68 481,-188.68 487,-194.68 487,-200.68 487,-200.68 487,-258.68 487,-258.68 487,-264.68 481,-270.68 475,-270.68 475,-270.68 415,-270.68 415,-270.68 409,-270.68 403,-264.68 403,-258.68 403,-258.68 403,-200.68 403,-200.68 403,-194.68 409,-188.68 415,-188.68"/>
<text text-anchor="middle" x="445" y="-259.48" font-family="Helvetica,sans-Serif" font-weight="bold" font-size="9.00">domain</text>
</g>
<g id="clust4" class="cluster">
<title>cluster_src/infrastructure</title>
<path fill="#ffffff" stroke="black" stroke-width="2" d="M262,-38.68C262,-38.68 383,-38.68 383,-38.68 389,-38.68 395,-44.68 395,-50.68 395,-50.68 395,-168.68 395,-168.68 395,-174.68 389,-180.68 383,-180.68 383,-180.68 262,-180.68 262,-180.68 256,-180.68 250,-174.68 250,-168.68 250,-168.68 250,-50.68 250,-50.68 250,-44.68 256,-38.68 262,-38.68"/>
<text text-anchor="middle" x="322.5" y="-169.48" font-family="Helvetica,sans-Serif" font-weight="bold" font-size="9.00">infrastructure</text>
</g>
<g id="clust5" class="cluster">
<title>cluster_src/presentation</title>
<path fill="#ffffff" stroke="black" stroke-width="2" d="M28,-212.68C28,-212.68 93,-212.68 93,-212.68 99,-212.68 105,-218.68 105,-224.68 105,-224.68 105,-282.68 105,-282.68 105,-288.68 99,-294.68 93,-294.68 93,-294.68 28,-294.68 28,-294.68 22,-294.68 16,-288.68 16,-282.68 16,-282.68 16,-224.68 16,-224.68 16,-218.68 22,-212.68 28,-212.68"/>
<text text-anchor="middle" x="60.5" y="-283.48" font-family="Helvetica,sans-Serif" font-weight="bold" font-size="9.00">presentation</text>
</g>
<!-- src/application/di -->
<g id="node1" class="node">
<title>src/application/di</title>
<g id="a_node1"><a xlink:href="src/application/di" xlink:title="di">
<polygon fill="#ffffcc" stroke="black" points="242,-214.68 190,-214.68 188,-212.68 188,-196.68 240,-196.68 242,-198.68 242,-214.68"/>
<polyline fill="none" stroke="black" points="240,-212.68 188,-212.68 "/>
<polyline fill="none" stroke="black" points="240,-212.68 240,-196.68 "/>
<polyline fill="none" stroke="black" points="240,-212.68 242,-214.68 "/>
<text text-anchor="start" x="210.5" y="-203.48" font-family="Helvetica,sans-Serif" font-size="9.00">di</text>
</a>
</g>
</g>
<!-- src/application/usecases -->
<g id="node2" class="node">
<title>src/application/usecases</title>
<g id="a_node2"><a xlink:href="src/application/usecases" xlink:title="usecases">
<polygon fill="#ffffcc" stroke="black" points="317.5,-236.68 262.5,-236.68 260.5,-234.68 260.5,-218.68 315.5,-218.68 317.5,-220.68 317.5,-236.68"/>
<polyline fill="none" stroke="black" points="315.5,-234.68 260.5,-234.68 "/>
<polyline fill="none" stroke="black" points="315.5,-234.68 315.5,-218.68 "/>
<polyline fill="none" stroke="black" points="315.5,-234.68 317.5,-236.68 "/>
<text text-anchor="start" x="268.5" y="-225.48" font-family="Helvetica,sans-Serif" font-size="9.00">usecases</text>
</a>
</g>
</g>
<!-- src/application/di&#45;&gt;src/application/usecases -->
<g id="edge1" class="edge">
<title>src/application/di&#45;&gt;src/application/usecases</title>
<path fill="none" stroke="#000000" stroke-width="2" stroke-opacity="0.200000" d="M242.4,-213.75C246.28,-214.94 250.33,-216.17 254.33,-217.4"/>
<polygon fill="#000000" fill-opacity="0.200000" stroke="#000000" stroke-width="2" stroke-opacity="0.200000" points="253.8,-219.43 260.15,-219.17 255.03,-215.41 253.8,-219.43"/>
</g>
<!-- src/infrastructure/adapters -->
<g id="node3" class="node">
<title>src/infrastructure/adapters</title>
<g id="a_node3"><a xlink:href="src/infrastructure/adapters" xlink:title="adapters">
<polygon fill="#ffffcc" stroke="black" points="317,-154.68 263,-154.68 261,-152.68 261,-136.68 315,-136.68 317,-138.68 317,-154.68"/>
<polyline fill="none" stroke="black" points="315,-152.68 261,-152.68 "/>
<polyline fill="none" stroke="black" points="315,-152.68 315,-136.68 "/>
<polyline fill="none" stroke="black" points="315,-152.68 317,-154.68 "/>
<text text-anchor="start" x="269" y="-143.48" font-family="Helvetica,sans-Serif" font-size="9.00">adapters</text>
</a>
</g>
</g>
<!-- src/application/di&#45;&gt;src/infrastructure/adapters -->
<g id="edge2" class="edge">
<title>src/application/di&#45;&gt;src/infrastructure/adapters</title>
<path fill="none" stroke="#000000" stroke-width="2" stroke-opacity="0.200000" d="M226.94,-196.57C238.99,-186.53 258.48,-170.28 272.2,-158.85"/>
<polygon fill="#000000" fill-opacity="0.200000" stroke="#000000" stroke-width="2" stroke-opacity="0.200000" points="273.7,-160.34 276.96,-154.88 271.01,-157.11 273.7,-160.34"/>
</g>
<!-- src/infrastructure/database -->
<g id="node4" class="node">
<title>src/infrastructure/database</title>
<g id="a_node4"><a xlink:href="src/infrastructure/database" xlink:title="database">
<polygon fill="#ffffcc" stroke="black" points="318,-124.68 262,-124.68 260,-122.68 260,-106.68 316,-106.68 318,-108.68 318,-124.68"/>
<polyline fill="none" stroke="black" points="316,-122.68 260,-122.68 "/>
<polyline fill="none" stroke="black" points="316,-122.68 316,-106.68 "/>
<polyline fill="none" stroke="black" points="316,-122.68 318,-124.68 "/>
<text text-anchor="start" x="268" y="-113.48" font-family="Helvetica,sans-Serif" font-size="9.00">database</text>
</a>
</g>
</g>
<!-- src/application/di&#45;&gt;src/infrastructure/database -->
<g id="edge3" class="edge">
<title>src/application/di&#45;&gt;src/infrastructure/database</title>
<path fill="none" stroke="#000000" stroke-width="2" stroke-opacity="0.200000" d="M217.8,-196.54C221.32,-180.97 230.53,-149.21 250,-130.68 251.44,-129.32 253.02,-128.07 254.69,-126.93"/>
<polygon fill="#000000" fill-opacity="0.200000" stroke="#000000" stroke-width="2" stroke-opacity="0.200000" points="255.83,-128.69 259.93,-123.83 253.69,-125.08 255.83,-128.69"/>
</g>
<!-- src/infrastructure/repository -->
<g id="node5" class="node">
<title>src/infrastructure/repository</title>
<g id="a_node5"><a xlink:href="src/infrastructure/repository" xlink:title="repository">
<polygon fill="#ffffcc" stroke="black" points="320,-94.68 260,-94.68 258,-92.68 258,-76.68 318,-76.68 320,-78.68 320,-94.68"/>
<polyline fill="none" stroke="black" points="318,-92.68 258,-92.68 "/>
<polyline fill="none" stroke="black" points="318,-92.68 318,-76.68 "/>
<polyline fill="none" stroke="black" points="318,-92.68 320,-94.68 "/>
<text text-anchor="start" x="266" y="-83.48" font-family="Helvetica,sans-Serif" font-size="9.00">repository</text>
</a>
</g>
</g>
<!-- src/application/di&#45;&gt;src/infrastructure/repository -->
<g id="edge4" class="edge">
<title>src/application/di&#45;&gt;src/infrastructure/repository</title>
<path fill="none" stroke="#000000" stroke-width="2" stroke-opacity="0.200000" d="M216.42,-196.52C217.83,-176.51 223.9,-128.48 250,-100.68 250.84,-99.79 251.73,-98.95 252.68,-98.16"/>
<polygon fill="#000000" fill-opacity="0.200000" stroke="#000000" stroke-width="2" stroke-opacity="0.200000" points="254.04,-99.77 257.75,-94.6 251.63,-96.33 254.04,-99.77"/>
</g>
<!-- src/infrastructure/services -->
<g id="node6" class="node">
<title>src/infrastructure/services</title>
<g id="a_node6"><a xlink:href="src/infrastructure/services" xlink:title="services">
<polygon fill="#ffffcc" stroke="black" points="316,-64.68 264,-64.68 262,-62.68 262,-46.68 314,-46.68 316,-48.68 316,-64.68"/>
<polyline fill="none" stroke="black" points="314,-62.68 262,-62.68 "/>
<polyline fill="none" stroke="black" points="314,-62.68 314,-46.68 "/>
<polyline fill="none" stroke="black" points="314,-62.68 316,-64.68 "/>
<text text-anchor="start" x="270.5" y="-53.48" font-family="Helvetica,sans-Serif" font-size="9.00">services</text>
</a>
</g>
</g>
<!-- src/application/di&#45;&gt;src/infrastructure/services -->
<g id="edge5" class="edge">
<title>src/application/di&#45;&gt;src/infrastructure/services</title>
<path fill="none" stroke="#000000" stroke-width="2" stroke-opacity="0.200000" d="M215.62,-196.53C215.15,-172.71 217.14,-108.09 250,-70.68 251.79,-68.65 253.89,-66.88 256.18,-65.36"/>
<polygon fill="#000000" fill-opacity="0.200000" stroke="#000000" stroke-width="2" stroke-opacity="0.200000" points="257.57,-66.98 261.77,-62.21 255.51,-63.32 257.57,-66.98"/>
</g>
<!-- src/infrastructure/video -->
<g id="node7" class="node">
<title>src/infrastructure/video</title>
<g id="a_node7"><a xlink:href="src/infrastructure/video" xlink:title="video">
<polygon fill="#ffffcc" stroke="black" points="387,-93.68 335,-93.68 333,-91.68 333,-75.68 385,-75.68 387,-77.68 387,-93.68"/>
<polyline fill="none" stroke="black" points="385,-91.68 333,-91.68 "/>
<polyline fill="none" stroke="black" points="385,-91.68 385,-75.68 "/>
<polyline fill="none" stroke="black" points="385,-91.68 387,-93.68 "/>
<text text-anchor="start" x="347.5" y="-82.48" font-family="Helvetica,sans-Serif" font-size="9.00">video</text>
</a>
</g>
</g>
<!-- src/application/di&#45;&gt;src/infrastructure/video -->
<g id="edge6" class="edge">
<title>src/application/di&#45;&gt;src/infrastructure/video</title>
<path fill="none" stroke="#000000" stroke-width="2" stroke-opacity="0.200000" d="M216.44,-196.32C218.14,-164.39 225.51,-60.64 250,-40.68 274.12,-21.03 291.63,-27.92 320,-40.68 333.48,-46.75 344.18,-60.02 350.94,-70.42"/>
<polygon fill="#000000" fill-opacity="0.200000" stroke="#000000" stroke-width="2" stroke-opacity="0.200000" points="349.17,-71.54 354.11,-75.53 352.74,-69.33 349.17,-71.54"/>
</g>
<!-- src/application/ports -->
<g id="node9" class="node">
<title>src/application/ports</title>
<g id="a_node9"><a xlink:href="src/application/ports" xlink:title="ports">
<polygon fill="#ffffcc" stroke="black" points="387,-214.68 335,-214.68 333,-212.68 333,-196.68 385,-196.68 387,-198.68 387,-214.68"/>
<polyline fill="none" stroke="black" points="385,-212.68 333,-212.68 "/>
<polyline fill="none" stroke="black" points="385,-212.68 385,-196.68 "/>
<polyline fill="none" stroke="black" points="385,-212.68 387,-214.68 "/>
<text text-anchor="start" x="348" y="-203.48" font-family="Helvetica,sans-Serif" font-size="9.00">ports</text>
</a>
</g>
</g>
<!-- src/application/usecases&#45;&gt;src/application/ports -->
<g id="edge10" class="edge">
<title>src/application/usecases&#45;&gt;src/application/ports</title>
<path fill="none" stroke="#000000" stroke-opacity="0.200000" d="M317.67,-218.86C320.61,-217.93 323.61,-216.97 326.6,-216.01"/>
<polygon fill="none" stroke="#000000" stroke-opacity="0.200000" points="327.59,-217.9 332.67,-214.08 326.32,-213.9 327.59,-217.9"/>
</g>
<!-- src/domain/entities -->
<g id="node10" class="node">
<title>src/domain/entities</title>
<g id="a_node10"><a xlink:href="src/domain/entities" xlink:title="entities">
<polygon fill="#ffffcc" stroke="black" points="472,-214.68 420,-214.68 418,-212.68 418,-196.68 470,-196.68 472,-198.68 472,-214.68"/>
<polyline fill="none" stroke="black" points="470,-212.68 418,-212.68 "/>
<polyline fill="none" stroke="black" points="470,-212.68 470,-196.68 "/>
<polyline fill="none" stroke="black" points="470,-212.68 472,-214.68 "/>
<text text-anchor="start" x="428" y="-203.48" font-family="Helvetica,sans-Serif" font-size="9.00">entities</text>
</a>
</g>
</g>
<!-- src/application/usecases&#45;&gt;src/domain/entities -->
<g id="edge11" class="edge">
<title>src/application/usecases&#45;&gt;src/domain/entities</title>
<path fill="none" stroke="#000000" stroke-opacity="0.200000" d="M317.85,-227.57C339.14,-227.06 369.13,-225.44 395,-220.68 400.65,-219.64 406.58,-218.17 412.27,-216.56"/>
<polygon fill="none" stroke="#000000" stroke-opacity="0.200000" points="413.18,-218.48 418.34,-214.76 411.99,-214.45 413.18,-218.48"/>
</g>
<!-- src/domain/repositories -->
<g id="node12" class="node">
<title>src/domain/repositories</title>
<g id="a_node12"><a xlink:href="src/domain/repositories" xlink:title="repositories">
<polygon fill="#ffffcc" stroke="black" points="479,-244.68 413,-244.68 411,-242.68 411,-226.68 477,-226.68 479,-228.68 479,-244.68"/>
<polyline fill="none" stroke="black" points="477,-242.68 411,-242.68 "/>
<polyline fill="none" stroke="black" points="477,-242.68 477,-226.68 "/>
<polyline fill="none" stroke="black" points="477,-242.68 479,-244.68 "/>
<text text-anchor="start" x="419" y="-233.48" font-family="Helvetica,sans-Serif" font-size="9.00">repositories</text>
</a>
</g>
</g>
<!-- src/application/usecases&#45;&gt;src/domain/repositories -->
<g id="edge12" class="edge">
<title>src/application/usecases&#45;&gt;src/domain/repositories</title>
<path fill="none" stroke="#000000" stroke-opacity="0.200000" d="M317.74,-230.5C322.81,-230.95 328.06,-231.37 333,-231.68 356.82,-233.22 383.56,-234.21 404.82,-234.81"/>
<polygon fill="none" stroke="#000000" stroke-opacity="0.200000" points="404.89,-236.92 410.95,-234.98 405.01,-232.72 404.89,-236.92"/>
</g>
<!-- src/infrastructure/adapters&#45;&gt;src/infrastructure/video -->
<g id="edge16" class="edge">
<title>src/infrastructure/adapters&#45;&gt;src/infrastructure/video</title>
<path fill="none" stroke="#000000" stroke-width="2" stroke-opacity="0.200000" d="M311,-136.56C314.14,-134.81 317.25,-132.84 320,-130.68 331.53,-121.63 342.12,-108.71 349.35,-98.87"/>
<polygon fill="#000000" fill-opacity="0.200000" stroke="#000000" stroke-width="2" stroke-opacity="0.200000" points="351.22,-99.87 353,-93.76 347.8,-97.42 351.22,-99.87"/>
</g>
<!-- src/infrastructure/adapters&#45;&gt;src/application/ports -->
<g id="edge13" class="edge">
<title>src/infrastructure/adapters&#45;&gt;src/application/ports</title>
<path fill="none" stroke="#000000" stroke-opacity="0.200000" d="M300.2,-154.81C308.88,-162.54 321.7,-173.91 333,-183.68 336.23,-186.48 339.7,-189.44 343.03,-192.26"/>
<polygon fill="none" stroke="#000000" stroke-opacity="0.200000" points="342.14,-194.26 348.08,-196.53 344.85,-191.05 342.14,-194.26"/>
</g>
<!-- src/infrastructure/adapters&#45;&gt;src/domain/entities -->
<g id="edge14" class="edge">
<title>src/infrastructure/adapters&#45;&gt;src/domain/entities</title>
<path fill="none" stroke="#000000" stroke-opacity="0.200000" d="M317.01,-147.16C338.91,-149.2 370.11,-154.08 395,-165.68 408.73,-172.09 421.89,-183.21 431.11,-192.1"/>
<polygon fill="none" stroke="#000000" stroke-opacity="0.200000" points="429.82,-193.77 435.55,-196.51 432.77,-190.79 429.82,-193.77"/>
</g>
<!-- src/infrastructure/adapters&#45;&gt;src/domain/repositories -->
<g id="edge15" class="edge">
<title>src/infrastructure/adapters&#45;&gt;src/domain/repositories</title>
<path fill="none" stroke="#000000" stroke-opacity="0.200000" d="M315.61,-154.76C345.8,-165.55 392.25,-182.52 395,-185.68 405.47,-197.73 392.45,-208.71 403,-220.68 403.83,-221.62 404.72,-222.5 405.66,-223.33"/>
<polygon fill="none" stroke="#000000" stroke-opacity="0.200000" points="404.66,-225.2 410.75,-227.01 407.12,-221.79 404.66,-225.2"/>
</g>
<!-- src/application/index.ts -->
<g id="node8" class="node">
<title>src/application/index.ts</title>
<g id="a_node8"><a xlink:href="src/application/index.ts" xlink:title="index.ts">
<path fill="#ddfeff" stroke="black" d="M169,-214.68C169,-214.68 127,-214.68 127,-214.68 124,-214.68 121,-211.68 121,-208.68 121,-208.68 121,-202.68 121,-202.68 121,-199.68 124,-196.68 127,-196.68 127,-196.68 169,-196.68 169,-196.68 172,-196.68 175,-199.68 175,-202.68 175,-202.68 175,-208.68 175,-208.68 175,-211.68 172,-214.68 169,-214.68"/>
<text text-anchor="start" x="129.5" y="-203.48" font-family="Helvetica,sans-Serif" font-size="9.00">index.ts</text>
</a>
</g>
</g>
<!-- src/application/index.ts&#45;&gt;src/application/di -->
<g id="edge7" class="edge">
<title>src/application/index.ts&#45;&gt;src/application/di</title>
<path fill="none" stroke="#000000" stroke-width="2" stroke-opacity="0.200000" d="M175.06,-205.68C177.32,-205.68 179.61,-205.68 181.9,-205.68"/>
<polygon fill="#000000" fill-opacity="0.200000" stroke="#000000" stroke-width="2" stroke-opacity="0.200000" points="187.93,-207.78 181.93,-205.68 187.93,-203.58 187.93,-207.78"/>
</g>
<!-- src/application/ports&#45;&gt;src/domain/entities -->
<g id="edge8" class="edge">
<title>src/application/ports&#45;&gt;src/domain/entities</title>
<path fill="none" stroke="#000000" stroke-opacity="0.200000" d="M387.26,-205.68C395.06,-205.68 403.69,-205.68 411.81,-205.68"/>
<polygon fill="none" stroke="#000000" stroke-opacity="0.200000" points="411.91,-207.78 417.91,-205.68 411.91,-203.58 411.91,-207.78"/>
</g>
<!-- src/application/services -->
<g id="node11" class="node">
<title>src/application/services</title>
<g id="a_node11"><a xlink:href="src/application/services" xlink:title="services">
<polygon fill="#ffffcc" stroke="black" points="175,-244.68 123,-244.68 121,-242.68 121,-226.68 173,-226.68 175,-228.68 175,-244.68"/>
<polyline fill="none" stroke="black" points="173,-242.68 121,-242.68 "/>
<polyline fill="none" stroke="black" points="173,-242.68 173,-226.68 "/>
<polyline fill="none" stroke="black" points="173,-242.68 175,-244.68 "/>
<text text-anchor="start" x="129.5" y="-233.48" font-family="Helvetica,sans-Serif" font-size="9.00">services</text>
</a>
</g>
</g>
<!-- src/application/services&#45;&gt;src/domain/entities -->
<g id="edge9" class="edge">
<title>src/application/services&#45;&gt;src/domain/entities</title>
<path fill="none" stroke="#000000" stroke-opacity="0.200000" d="M168.34,-226.59C170.8,-224.87 173.11,-222.9 175,-220.68 182.57,-211.82 240.4,-31.29 250,-24.68 303.24,11.95 346.32,6.83 395,-35.68 441.2,-76.03 445.14,-156.87 444.64,-190.48"/>
<polygon fill="none" stroke="#000000" stroke-opacity="0.200000" points="442.54,-190.5 444.49,-196.55 446.73,-190.6 442.54,-190.5"/>
</g>
<!-- src/main.ts -->
<g id="node13" class="node">
<title>src/main.ts</title>
<g id="a_node13"><a xlink:href="src/main.ts" xlink:title="main.ts">
<path fill="#ddfeff" stroke="black" d="M81.5,-204.68C81.5,-204.68 39.5,-204.68 39.5,-204.68 36.5,-204.68 33.5,-201.68 33.5,-198.68 33.5,-198.68 33.5,-192.68 33.5,-192.68 33.5,-189.68 36.5,-186.68 39.5,-186.68 39.5,-186.68 81.5,-186.68 81.5,-186.68 84.5,-186.68 87.5,-189.68 87.5,-192.68 87.5,-192.68 87.5,-198.68 87.5,-198.68 87.5,-201.68 84.5,-204.68 81.5,-204.68"/>
<text text-anchor="start" x="43.5" y="-193.48" font-family="Helvetica,sans-Serif" font-size="9.00">main.ts</text>
</a>
</g>
</g>
<!-- src/main.ts&#45;&gt;src/application/index.ts -->
<g id="edge17" class="edge">
<title>src/main.ts&#45;&gt;src/application/index.ts</title>
<path fill="none" stroke="#000000" stroke-width="2" stroke-opacity="0.200000" d="M87.62,-198.74C96.16,-199.74 105.74,-200.86 114.68,-201.9"/>
<polygon fill="#000000" fill-opacity="0.200000" stroke="#000000" stroke-width="2" stroke-opacity="0.200000" points="114.54,-204 120.75,-202.61 115.03,-199.83 114.54,-204"/>
</g>
<!-- src/presentation/components -->
<g id="node14" class="node">
<title>src/presentation/components</title>
<g id="a_node14"><a xlink:href="src/presentation/components" xlink:title="components">
<polygon fill="#ffffcc" stroke="black" points="97,-268.68 26,-268.68 24,-266.68 24,-250.68 95,-250.68 97,-252.68 97,-268.68"/>
<polyline fill="none" stroke="black" points="95,-266.68 24,-266.68 "/>
<polyline fill="none" stroke="black" points="95,-266.68 95,-250.68 "/>
<polyline fill="none" stroke="black" points="95,-266.68 97,-268.68 "/>
<text text-anchor="start" x="32" y="-257.48" font-family="Helvetica,sans-Serif" font-size="9.00">components</text>
</a>
</g>
</g>
<!-- src/presentation/components&#45;&gt;src/application/usecases -->
<g id="edge18" class="edge">
<title>src/presentation/components&#45;&gt;src/application/usecases</title>
<path fill="none" stroke="#000000" stroke-opacity="0.200000" d="M97.15,-257.97C119.57,-256.62 149.07,-254.34 175,-250.68 201.82,-246.91 231.85,-240.7 254.21,-235.68"/>
<polygon fill="none" stroke="#000000" stroke-opacity="0.200000" points="254.91,-237.68 260.3,-234.3 253.98,-233.58 254.91,-237.68"/>
</g>
<!-- src/presentation/stores -->
<g id="node15" class="node">
<title>src/presentation/stores</title>
<g id="a_node15"><a xlink:href="src/presentation/stores" xlink:title="stores">
<polygon fill="#ffffcc" stroke="black" points="87.5,-238.68 35.5,-238.68 33.5,-236.68 33.5,-220.68 85.5,-220.68 87.5,-222.68 87.5,-238.68"/>
<polyline fill="none" stroke="black" points="85.5,-236.68 33.5,-236.68 "/>
<polyline fill="none" stroke="black" points="85.5,-236.68 85.5,-220.68 "/>
<polyline fill="none" stroke="black" points="85.5,-236.68 87.5,-238.68 "/>
<text text-anchor="start" x="46.5" y="-227.48" font-family="Helvetica,sans-Serif" font-size="9.00">stores</text>
</a>
</g>
</g>
<!-- src/presentation/stores&#45;&gt;src/application/index.ts -->
<g id="edge20" class="edge">
<title>src/presentation/stores&#45;&gt;src/application/index.ts</title>
<path fill="none" stroke="#000000" stroke-width="2" stroke-opacity="0.200000" d="M87.62,-222.35C96.24,-219.93 105.93,-217.21 114.94,-214.68"/>
<polygon fill="#000000" fill-opacity="0.200000" stroke="#000000" stroke-width="2" stroke-opacity="0.200000" points="115.54,-216.7 120.75,-213.05 114.4,-212.65 115.54,-216.7"/>
</g>
<!-- src/presentation/stores&#45;&gt;src/domain/entities -->
<g id="edge21" class="edge">
<title>src/presentation/stores&#45;&gt;src/domain/entities</title>
<path fill="none" stroke="#000000" stroke-opacity="0.200000" d="M87.8,-234.27C94.14,-236.5 100.41,-239.79 105,-244.68 114.15,-254.43 102.61,-265.27 113,-273.68 147.95,-301.98 169.03,-279.68 214,-279.68 214,-279.68 214,-279.68 290,-279.68 336.74,-279.68 360.45,-305.17 395,-273.68 412.61,-257.64 387.93,-239.13 403,-220.68 405.58,-217.53 408.88,-215.04 412.49,-213.07"/>
<polygon fill="none" stroke="#000000" stroke-opacity="0.200000" points="413.38,-214.97 417.95,-210.55 411.62,-211.16 413.38,-214.97"/>
</g>
<!-- src/presentation/stores&#45;&gt;src/application/services -->
<g id="edge19" class="edge">
<title>src/presentation/stores&#45;&gt;src/application/services</title>
<path fill="none" stroke="#000000" stroke-width="2" stroke-opacity="0.200000" d="M87.62,-231.52C96.16,-232.12 105.74,-232.79 114.68,-233.42"/>
<polygon fill="#000000" fill-opacity="0.200000" stroke="#000000" stroke-width="2" stroke-opacity="0.200000" points="114.62,-235.52 120.75,-233.84 114.91,-231.33 114.62,-235.52"/>
</g>
</g>
</svg>
