<?xml version="1.0" encoding="UTF-8" standalone="no"?>
<!DOCTYPE svg PUBLIC "-//W3C//DTD SVG 1.1//EN"
 "http://www.w3.org/Graphics/SVG/1.1/DTD/svg11.dtd">
<!-- Generated by graphviz version 9.0.0 (20230911.1827)
 -->
<!-- Title: dependency&#45;cruiser output Pages: 1 -->
<svg width="466pt" height="107pt"
 viewBox="0.00 0.00 465.75 107.00" xmlns="http://www.w3.org/2000/svg" xmlns:xlink="http://www.w3.org/1999/xlink">
<g id="graph0" class="graph" transform="scale(1 1) rotate(0) translate(4 103)">
<title>dependency&#45;cruiser output</title>
<polygon fill="white" stroke="none" points="-4,4 -4,-103 461.75,-103 461.75,4 -4,4"/>
<g id="clust1" class="cluster">
<title>cluster_src</title>
<path fill="#ffffff" stroke="black" stroke-width="2" d="M20,-8C20,-8 437.75,-8 437.75,-8 443.75,-8 449.75,-14 449.75,-20 449.75,-20 449.75,-79 449.75,-79 449.75,-85 443.75,-91 437.75,-91 437.75,-91 20,-91 20,-91 14,-91 8,-85 8,-79 8,-79 8,-20 8,-20 8,-14 14,-8 20,-8"/>
<text text-anchor="middle" x="228.88" y="-78.45" font-family="Helvetica,sans-Serif" font-weight="bold" font-size="9.00">src</text>
</g>
<!-- src/App.vue -->
<g id="node1" class="node">
<title>src/App.vue</title>
<g id="a_node1"><a xlink:href="src/App.vue" xlink:title="App.vue">
<path fill="#41f083" stroke="black" d="M130.58,-52.62C130.58,-52.62 89.42,-52.62 89.42,-52.62 86.21,-52.62 83,-49.42 83,-46.21 83,-46.21 83,-39.79 83,-39.79 83,-36.58 86.21,-33.38 89.42,-33.38 89.42,-33.38 130.58,-33.38 130.58,-33.38 133.79,-33.38 137,-36.58 137,-39.79 137,-39.79 137,-46.21 137,-46.21 137,-49.42 133.79,-52.62 130.58,-52.62"/>
<text text-anchor="start" x="93.88" y="-40.08" font-family="Helvetica,sans-Serif" font-size="9.00">App.vue</text>
</a>
</g>
</g>
<!-- src/presentation -->
<g id="node2" class="node">
<title>src/presentation</title>
<g id="a_node2"><a xlink:href="src/presentation" xlink:title="presentation">
<polygon fill="#ffffcc" stroke="black" points="217.75,-52.62 152.14,-52.62 150,-50.49 150,-33.38 215.61,-33.38 217.75,-35.51 217.75,-52.62"/>
<polyline fill="none" stroke="black" points="215.61,-50.49 150,-50.49"/>
<polyline fill="none" stroke="black" points="215.61,-50.49 215.61,-33.38"/>
<polyline fill="none" stroke="black" points="215.61,-50.49 217.75,-52.62"/>
<text text-anchor="start" x="158" y="-40.08" font-family="Helvetica,sans-Serif" font-size="9.00">presentation</text>
</a>
</g>
</g>
<!-- src/App.vue&#45;&gt;src/presentation -->
<g id="edge1" class="edge">
<title>src/App.vue&#45;&gt;src/presentation</title>
<path fill="none" stroke="#000000" stroke-width="2" stroke-opacity="0.200000" d="M137.36,-43C138.48,-43 139.62,-43 140.77,-43"/>
<polygon fill="#000000" fill-opacity="0.200000" stroke="#000000" stroke-width="2" stroke-opacity="0.200000" points="140.64,-45.1 146.64,-43 140.64,-40.9 140.64,-45.1"/>
</g>
<!-- src/application -->
<g id="node3" class="node">
<title>src/application</title>
<g id="a_node3"><a xlink:href="src/application" xlink:title="application">
<polygon fill="#ffffcc" stroke="black" points="291.75,-42.62 232.89,-42.62 230.75,-40.49 230.75,-23.38 289.61,-23.38 291.75,-25.51 291.75,-42.62"/>
<polyline fill="none" stroke="black" points="289.61,-40.49 230.75,-40.49"/>
<polyline fill="none" stroke="black" points="289.61,-40.49 289.61,-23.38"/>
<polyline fill="none" stroke="black" points="289.61,-40.49 291.75,-42.62"/>
<text text-anchor="start" x="238.75" y="-30.07" font-family="Helvetica,sans-Serif" font-size="9.00">application</text>
</a>
</g>
</g>
<!-- src/presentation&#45;&gt;src/application -->
<g id="edge7" class="edge">
<title>src/presentation&#45;&gt;src/application</title>
<path fill="none" stroke="#000000" stroke-width="2" stroke-opacity="0.200000" d="M218.15,-38.58C219.31,-38.43 220.47,-38.28 221.63,-38.12"/>
<polygon fill="#000000" fill-opacity="0.200000" stroke="#000000" stroke-width="2" stroke-opacity="0.200000" points="221.8,-40.22 227.47,-37.35 221.25,-36.06 221.8,-40.22"/>
</g>
<!-- src/domain -->
<g id="node5" class="node">
<title>src/domain</title>
<g id="a_node5"><a xlink:href="src/domain" xlink:title="domain">
<polygon fill="#ffffcc" stroke="black" points="441.75,-58.62 389.89,-58.62 387.75,-56.49 387.75,-39.38 439.61,-39.38 441.75,-41.51 441.75,-58.62"/>
<polyline fill="none" stroke="black" points="439.61,-56.49 387.75,-56.49"/>
<polyline fill="none" stroke="black" points="439.61,-56.49 439.61,-39.38"/>
<polyline fill="none" stroke="black" points="439.61,-56.49 441.75,-58.62"/>
<text text-anchor="start" x="399" y="-46.08" font-family="Helvetica,sans-Serif" font-size="9.00">domain</text>
</a>
</g>
</g>
<!-- src/presentation&#45;&gt;src/domain -->
<g id="edge8" class="edge">
<title>src/presentation&#45;&gt;src/domain</title>
<path fill="none" stroke="#000000" stroke-opacity="0.200000" d="M217.9,-47.84C222.21,-48.32 226.58,-48.73 230.75,-49 282.7,-52.38 343.11,-51.44 379.88,-50.31"/>
<polygon fill="none" stroke="#000000" stroke-opacity="0.200000" points="379.91,-52.42 385.84,-50.12 379.77,-48.22 379.91,-52.42"/>
</g>
<!-- src/infrastructure -->
<g id="node4" class="node">
<title>src/infrastructure</title>
<g id="a_node4"><a xlink:href="src/infrastructure" xlink:title="infrastructure">
<polygon fill="#ffffcc" stroke="black" points="374.75,-35.62 306.89,-35.62 304.75,-33.49 304.75,-16.38 372.61,-16.38 374.75,-18.51 374.75,-35.62"/>
<polyline fill="none" stroke="black" points="372.61,-33.49 304.75,-33.49"/>
<polyline fill="none" stroke="black" points="372.61,-33.49 372.61,-16.38"/>
<polyline fill="none" stroke="black" points="372.61,-33.49 374.75,-35.62"/>
<text text-anchor="start" x="312.75" y="-23.07" font-family="Helvetica,sans-Serif" font-size="9.00">infrastructure</text>
</a>
</g>
</g>
<!-- src/application&#45;&gt;src/infrastructure -->
<g id="edge2" class="edge">
<title>src/application&#45;&gt;src/infrastructure</title>
<path fill="none" stroke="#000000" stroke-width="2" stroke-opacity="0.200000" d="M292.05,-25.87C293.18,-25.74 294.32,-25.62 295.47,-25.49"/>
<polygon fill="#000000" fill-opacity="0.200000" stroke="#000000" stroke-width="2" stroke-opacity="0.200000" points="295.54,-27.6 301.32,-24.95 295.15,-23.42 295.54,-27.6"/>
</g>
<!-- src/application&#45;&gt;src/domain -->
<g id="edge3" class="edge">
<title>src/application&#45;&gt;src/domain</title>
<path fill="none" stroke="#000000" stroke-opacity="0.200000" d="M291.88,-39.84C296.18,-40.67 300.57,-41.43 304.75,-42 329.96,-45.46 358.69,-47.22 380.32,-48.1"/>
<polygon fill="none" stroke="#000000" stroke-opacity="0.200000" points="380.07,-50.2 386.14,-48.33 380.23,-46 380.07,-50.2"/>
</g>
<!-- src/infrastructure&#45;&gt;src/application -->
<g id="edge4" class="edge">
<title>src/infrastructure&#45;&gt;src/application</title>
<path fill="none" stroke="#000000" stroke-opacity="0.200000" d="M304.33,-33.63C302.67,-33.8 300.99,-33.96 299.32,-34.11"/>
<polygon fill="none" stroke="#000000" stroke-opacity="0.200000" points="299.37,-32 293.55,-34.56 299.7,-36.18 299.37,-32"/>
</g>
<!-- src/infrastructure&#45;&gt;src/domain -->
<g id="edge5" class="edge">
<title>src/infrastructure&#45;&gt;src/domain</title>
<path fill="none" stroke="#000000" stroke-opacity="0.200000" d="M372.56,-36.02C375.17,-36.84 377.81,-37.68 380.44,-38.5"/>
<polygon fill="none" stroke="#000000" stroke-opacity="0.200000" points="379.49,-40.41 385.85,-40.21 380.76,-36.4 379.49,-40.41"/>
</g>
<!-- src/main.ts -->
<g id="node6" class="node">
<title>src/main.ts</title>
<g id="a_node6"><a xlink:href="src/main.ts" xlink:title="main.ts">
<path fill="#ddfeff" stroke="black" d="M63.58,-52.62C63.58,-52.62 22.42,-52.62 22.42,-52.62 19.21,-52.62 16,-49.42 16,-46.21 16,-46.21 16,-39.79 16,-39.79 16,-36.58 19.21,-33.38 22.42,-33.38 22.42,-33.38 63.58,-33.38 63.58,-33.38 66.79,-33.38 70,-36.58 70,-39.79 70,-39.79 70,-46.21 70,-46.21 70,-49.42 66.79,-52.62 63.58,-52.62"/>
<text text-anchor="start" x="27.62" y="-40.08" font-family="Helvetica,sans-Serif" font-size="9.00">main.ts</text>
</a>
</g>
</g>
<!-- src/main.ts&#45;&gt;src/App.vue -->
<g id="edge6" class="edge">
<title>src/main.ts&#45;&gt;src/App.vue</title>
<path fill="none" stroke="#000000" stroke-width="2" stroke-opacity="0.200000" d="M70.44,-43C71.58,-43 72.74,-43 73.9,-43"/>
<polygon fill="#000000" fill-opacity="0.200000" stroke="#000000" stroke-width="2" stroke-opacity="0.200000" points="73.77,-45.1 79.77,-43 73.77,-40.9 73.77,-45.1"/>
</g>
</g>
</svg>
