<?xml version="1.0" encoding="UTF-8" standalone="no"?>
<!DOCTYPE svg PUBLIC "-//W3C//DTD SVG 1.1//EN"
 "http://www.w3.org/Graphics/SVG/1.1/DTD/svg11.dtd">
<!-- Generated by graphviz version 9.0.0 (20230911.1827)
 -->
<!-- Title: dependency&#45;cruiser output Pages: 1 -->
<svg width="376pt" height="110pt"
 viewBox="0.00 0.00 375.75 110.00" xmlns="http://www.w3.org/2000/svg" xmlns:xlink="http://www.w3.org/1999/xlink">
<g id="graph0" class="graph" transform="scale(1 1) rotate(0) translate(4 106)">
<title>dependency&#45;cruiser output</title>
<polygon fill="white" stroke="none" points="-4,4 -4,-106 371.75,-106 371.75,4 -4,4"/>
<g id="clust1" class="cluster">
<title>cluster_src</title>
<path fill="#ffffff" stroke="black" stroke-width="2" d="M20,-8C20,-8 347.75,-8 347.75,-8 353.75,-8 359.75,-14 359.75,-20 359.75,-20 359.75,-82 359.75,-82 359.75,-88 353.75,-94 347.75,-94 347.75,-94 20,-94 20,-94 14,-94 8,-88 8,-82 8,-82 8,-20 8,-20 8,-14 14,-8 20,-8"/>
<text text-anchor="middle" x="183.88" y="-81.45" font-family="Helvetica,sans-Serif" font-weight="bold" font-size="9.00">src</text>
</g>
<!-- src/App.vue -->
<g id="node1" class="node">
<title>src/App.vue</title>
<g id="a_node1"><a xlink:href="src/App.vue" xlink:title="App.vue">
<path fill="#41f083" stroke="black" d="M130.58,-35.62C130.58,-35.62 89.42,-35.62 89.42,-35.62 86.21,-35.62 83,-32.42 83,-29.21 83,-29.21 83,-22.79 83,-22.79 83,-19.58 86.21,-16.38 89.42,-16.38 89.42,-16.38 130.58,-16.38 130.58,-16.38 133.79,-16.38 137,-19.58 137,-22.79 137,-22.79 137,-29.21 137,-29.21 137,-32.42 133.79,-35.62 130.58,-35.62"/>
<text text-anchor="start" x="93.88" y="-23.07" font-family="Helvetica,sans-Serif" font-size="9.00">App.vue</text>
</a>
</g>
</g>
<!-- src/components -->
<g id="node2" class="node">
<title>src/components</title>
<g id="a_node2"><a xlink:href="src/components" xlink:title="components">
<polygon fill="#ffffcc" stroke="black" points="217.75,-35.62 152.14,-35.62 150,-33.49 150,-16.38 215.61,-16.38 217.75,-18.51 217.75,-35.62"/>
<polyline fill="none" stroke="black" points="215.61,-33.49 150,-33.49"/>
<polyline fill="none" stroke="black" points="215.61,-33.49 215.61,-16.38"/>
<polyline fill="none" stroke="black" points="215.61,-33.49 217.75,-35.62"/>
<text text-anchor="start" x="158" y="-23.07" font-family="Helvetica,sans-Serif" font-size="9.00">components</text>
</a>
</g>
</g>
<!-- src/App.vue&#45;&gt;src/components -->
<g id="edge1" class="edge">
<title>src/App.vue&#45;&gt;src/components</title>
<path fill="none" stroke="#000000" stroke-width="2" stroke-opacity="0.200000" d="M137.36,-26C138.48,-26 139.62,-26 140.77,-26"/>
<polygon fill="#000000" fill-opacity="0.200000" stroke="#000000" stroke-width="2" stroke-opacity="0.200000" points="140.64,-28.1 146.64,-26 140.64,-23.9 140.64,-28.1"/>
</g>
<!-- src/services -->
<g id="node3" class="node">
<title>src/services</title>
<g id="a_node3"><a xlink:href="src/services" xlink:title="services">
<polygon fill="#ffffcc" stroke="black" points="351.75,-42.62 299.89,-42.62 297.75,-40.49 297.75,-23.38 349.61,-23.38 351.75,-25.51 351.75,-42.62"/>
<polyline fill="none" stroke="black" points="349.61,-40.49 297.75,-40.49"/>
<polyline fill="none" stroke="black" points="349.61,-40.49 349.61,-23.38"/>
<polyline fill="none" stroke="black" points="349.61,-40.49 351.75,-42.62"/>
<text text-anchor="start" x="307.5" y="-30.07" font-family="Helvetica,sans-Serif" font-size="9.00">services</text>
</a>
</g>
</g>
<!-- src/App.vue&#45;&gt;src/services -->
<g id="edge2" class="edge">
<title>src/App.vue&#45;&gt;src/services</title>
<path fill="none" stroke="#000000" stroke-width="2" stroke-opacity="0.200000" d="M132.71,-36.08C165.91,-50.11 231.09,-72.19 284.75,-57 291.63,-55.05 298.5,-51.51 304.51,-47.73"/>
<polygon fill="#000000" fill-opacity="0.200000" stroke="#000000" stroke-width="2" stroke-opacity="0.200000" points="305.3,-49.73 309.09,-44.62 302.94,-46.25 305.3,-49.73"/>
</g>
<!-- src/components&#45;&gt;src/services -->
<g id="edge4" class="edge">
<title>src/components&#45;&gt;src/services</title>
<path fill="none" stroke="#000000" stroke-width="2" stroke-opacity="0.200000" d="M217.8,-18.61C237.31,-17.01 262.5,-16.74 284.75,-19 288.91,-19.42 293.29,-20.09 297.55,-20.95"/>
<polygon fill="#000000" fill-opacity="0.200000" stroke="#000000" stroke-width="2" stroke-opacity="0.200000" points="296.74,-22.92 303.06,-22.25 297.7,-18.83 296.74,-22.92"/>
</g>
<!-- src/stores -->
<g id="node5" class="node">
<title>src/stores</title>
<g id="a_node5"><a xlink:href="src/stores" xlink:title="stores">
<polygon fill="#ffffcc" stroke="black" points="284.75,-50.62 232.89,-50.62 230.75,-48.49 230.75,-31.38 282.61,-31.38 284.75,-33.51 284.75,-50.62"/>
<polyline fill="none" stroke="black" points="282.61,-48.49 230.75,-48.49"/>
<polyline fill="none" stroke="black" points="282.61,-48.49 282.61,-31.38"/>
<polyline fill="none" stroke="black" points="282.61,-48.49 284.75,-50.62"/>
<text text-anchor="start" x="244.62" y="-38.08" font-family="Helvetica,sans-Serif" font-size="9.00">stores</text>
</a>
</g>
</g>
<!-- src/components&#45;&gt;src/stores -->
<g id="edge3" class="edge">
<title>src/components&#45;&gt;src/stores</title>
<path fill="none" stroke="#000000" stroke-width="2" stroke-opacity="0.200000" d="M217.87,-32.89C219.21,-33.16 220.55,-33.44 221.89,-33.72"/>
<polygon fill="#000000" fill-opacity="0.200000" stroke="#000000" stroke-width="2" stroke-opacity="0.200000" points="221.37,-35.76 227.67,-34.93 222.23,-31.65 221.37,-35.76"/>
</g>
<!-- src/services&#45;&gt;src/components -->
<g id="edge7" class="edge">
<title>src/services&#45;&gt;src/components</title>
<path fill="none" stroke="#000000" stroke-width="2" stroke-opacity="0.200000" d="M297.43,-32.77C293.21,-32.08 288.88,-31.42 284.75,-31 265.62,-29.06 244.33,-28.99 226.34,-29.04"/>
<polygon fill="#000000" fill-opacity="0.200000" stroke="#000000" stroke-width="2" stroke-opacity="0.200000" points="226.82,-26.94 220.82,-29.06 226.83,-31.14 226.82,-26.94"/>
</g>
<!-- src/assets -->
<g id="node4" class="node">
<title>src/assets</title>
<g id="a_node4"><a xlink:href="src/assets" xlink:title="no&#45;orphans">
<polygon fill="#ffffcc" stroke="orange" points="137,-66.62 85.14,-66.62 83,-64.49 83,-47.38 134.86,-47.38 137,-49.51 137,-66.62"/>
<polyline fill="none" stroke="orange" points="134.86,-64.49 83,-64.49"/>
<polyline fill="none" stroke="orange" points="134.86,-64.49 134.86,-47.38"/>
<polyline fill="none" stroke="orange" points="134.86,-64.49 137,-66.62"/>
<text text-anchor="start" x="95.75" y="-54.08" font-family="Helvetica,sans-Serif" font-size="9.00" fill="orange">assets</text>
</a>
</g>
</g>
<!-- src/stores&#45;&gt;src/services -->
<g id="edge8" class="edge">
<title>src/stores&#45;&gt;src/services</title>
<path fill="none" stroke="#000000" stroke-width="2" stroke-opacity="0.200000" d="M285.19,-37.75C286.33,-37.6 287.49,-37.46 288.65,-37.32"/>
<polygon fill="#000000" fill-opacity="0.200000" stroke="#000000" stroke-width="2" stroke-opacity="0.200000" points="288.84,-39.41 294.54,-36.59 288.33,-35.24 288.84,-39.41"/>
</g>
<!-- src/main.ts -->
<g id="node6" class="node">
<title>src/main.ts</title>
<g id="a_node6"><a xlink:href="src/main.ts" xlink:title="main.ts">
<path fill="#ddfeff" stroke="black" d="M63.58,-50.62C63.58,-50.62 22.42,-50.62 22.42,-50.62 19.21,-50.62 16,-47.42 16,-44.21 16,-44.21 16,-37.79 16,-37.79 16,-34.58 19.21,-31.38 22.42,-31.38 22.42,-31.38 63.58,-31.38 63.58,-31.38 66.79,-31.38 70,-34.58 70,-37.79 70,-37.79 70,-44.21 70,-44.21 70,-47.42 66.79,-50.62 63.58,-50.62"/>
<text text-anchor="start" x="27.62" y="-38.08" font-family="Helvetica,sans-Serif" font-size="9.00">main.ts</text>
</a>
</g>
</g>
<!-- src/main.ts&#45;&gt;src/App.vue -->
<g id="edge5" class="edge">
<title>src/main.ts&#45;&gt;src/App.vue</title>
<path fill="none" stroke="#000000" stroke-width="2" stroke-opacity="0.200000" d="M70.44,-34.9C71.71,-34.6 73,-34.31 74.29,-34.01"/>
<polygon fill="#000000" fill-opacity="0.200000" stroke="#000000" stroke-width="2" stroke-opacity="0.200000" points="74.47,-36.12 79.85,-32.73 73.53,-32.03 74.47,-36.12"/>
</g>
<!-- src/main.ts&#45;&gt;src/assets -->
<g id="edge6" class="edge">
<title>src/main.ts&#45;&gt;src/assets</title>
<path fill="none" stroke="#000000" stroke-width="2" stroke-opacity="0.200000" d="M70.44,-47.51C71.71,-47.82 73,-48.14 74.29,-48.46"/>
<polygon fill="#000000" fill-opacity="0.200000" stroke="#000000" stroke-width="2" stroke-opacity="0.200000" points="73.53,-50.43 79.86,-49.83 74.53,-46.35 73.53,-50.43"/>
</g>
</g>
</svg>
