<?xml version="1.0" encoding="UTF-8" standalone="no"?>
<!DOCTYPE svg PUBLIC "-//W3C//DTD SVG 1.1//EN"
 "http://www.w3.org/Graphics/SVG/1.1/DTD/svg11.dtd">
<!-- Generated by graphviz version 2.43.0 (0)
 -->
<!-- Title: dependency&#45;cruiser output Pages: 1 -->
<svg width="486pt" height="104pt"
 viewBox="0.00 0.00 486.00 104.00" xmlns="http://www.w3.org/2000/svg" xmlns:xlink="http://www.w3.org/1999/xlink">
<g id="graph0" class="graph" transform="scale(1 1) rotate(0) translate(4 100)">
<title>dependency&#45;cruiser output</title>
<polygon fill="white" stroke="transparent" points="-4,4 -4,-100 482,-100 482,4 -4,4"/>
<g id="clust1" class="cluster">
<title>cluster_src</title>
<path fill="#ffffff" stroke="black" stroke-width="2" d="M20,-8C20,-8 458,-8 458,-8 464,-8 470,-14 470,-20 470,-20 470,-76 470,-76 470,-82 464,-88 458,-88 458,-88 20,-88 20,-88 14,-88 8,-82 8,-76 8,-76 8,-20 8,-20 8,-14 14,-8 20,-8"/>
<text text-anchor="middle" x="239" y="-76.8" font-family="Helvetica,sans-Serif" font-weight="bold" font-size="9.00">src</text>
</g>
<!-- src/App.vue -->
<g id="node1" class="node">
<title>src/App.vue</title>
<g id="a_node1"><a xlink:href="src/App.vue" xlink:title="App.vue">
<path fill="#41f083" stroke="black" d="M131,-40C131,-40 89,-40 89,-40 86,-40 83,-37 83,-34 83,-34 83,-28 83,-28 83,-25 86,-22 89,-22 89,-22 131,-22 131,-22 134,-22 137,-25 137,-28 137,-28 137,-34 137,-34 137,-37 134,-40 131,-40"/>
<text text-anchor="start" x="91" y="-28.8" font-family="Helvetica,sans-Serif" font-size="9.00">App.vue</text>
</a>
</g>
</g>
<!-- src/presentation -->
<g id="node2" class="node">
<title>src/presentation</title>
<g id="a_node2"><a xlink:href="src/presentation" xlink:title="presentation">
<polygon fill="#ffffcc" stroke="black" points="224,-40 152,-40 150,-38 150,-22 222,-22 224,-24 224,-40"/>
<polyline fill="none" stroke="black" points="222,-38 150,-38 "/>
<polyline fill="none" stroke="black" points="222,-38 222,-22 "/>
<polyline fill="none" stroke="black" points="222,-38 224,-40 "/>
<text text-anchor="start" x="158" y="-28.8" font-family="Helvetica,sans-Serif" font-size="9.00">presentation</text>
</a>
</g>
</g>
<!-- src/App.vue&#45;&gt;src/presentation -->
<g id="edge1" class="edge">
<title>src/App.vue&#45;&gt;src/presentation</title>
<path fill="none" stroke="#000000" stroke-width="2" stroke-opacity="0.200000" d="M137.23,-31C139.26,-31 141.34,-31 143.43,-31"/>
<polygon fill="#000000" fill-opacity="0.200000" stroke="#000000" stroke-width="2" stroke-opacity="0.200000" points="143.76,-33.1 149.76,-31 143.76,-28.9 143.76,-33.1"/>
</g>
<!-- src/application -->
<g id="node3" class="node">
<title>src/application</title>
<g id="a_node3"><a xlink:href="src/application" xlink:title="application">
<polygon fill="#ffffcc" stroke="black" points="395,-48 331,-48 329,-46 329,-30 393,-30 395,-32 395,-48"/>
<polyline fill="none" stroke="black" points="393,-46 329,-46 "/>
<polyline fill="none" stroke="black" points="393,-46 393,-30 "/>
<polyline fill="none" stroke="black" points="393,-46 395,-48 "/>
<text text-anchor="start" x="337" y="-36.8" font-family="Helvetica,sans-Serif" font-size="9.00">application</text>
</a>
</g>
</g>
<!-- src/presentation&#45;&gt;src/application -->
<g id="edge7" class="edge">
<title>src/presentation&#45;&gt;src/application</title>
<path fill="none" stroke="#000000" stroke-opacity="0.200000" d="M224.27,-32.68C253.13,-34.01 293.4,-35.87 322.77,-37.23"/>
<polygon fill="none" stroke="#000000" stroke-opacity="0.200000" points="322.77,-39.33 328.86,-37.51 322.96,-35.14 322.77,-39.33"/>
</g>
<!-- src/domain -->
<g id="node4" class="node">
<title>src/domain</title>
<g id="a_node4"><a xlink:href="src/domain" xlink:title="domain">
<polygon fill="#ffffcc" stroke="black" points="462,-48 410,-48 408,-46 408,-30 460,-30 462,-32 462,-48"/>
<polyline fill="none" stroke="black" points="460,-46 408,-46 "/>
<polyline fill="none" stroke="black" points="460,-46 460,-30 "/>
<polyline fill="none" stroke="black" points="460,-46 462,-48 "/>
<text text-anchor="start" x="418" y="-36.8" font-family="Helvetica,sans-Serif" font-size="9.00">domain</text>
</a>
</g>
</g>
<!-- src/presentation&#45;&gt;src/domain -->
<g id="edge8" class="edge">
<title>src/presentation&#45;&gt;src/domain</title>
<path fill="none" stroke="#000000" stroke-opacity="0.200000" d="M224.25,-25.08C265.86,-19.36 335.96,-13.04 395,-24 399.61,-24.86 404.39,-26.24 408.94,-27.82"/>
<polygon fill="none" stroke="#000000" stroke-opacity="0.200000" points="408.21,-29.79 414.57,-29.92 409.68,-25.86 408.21,-29.79"/>
</g>
<!-- src/infrastructure -->
<g id="node5" class="node">
<title>src/infrastructure</title>
<g id="a_node5"><a xlink:href="src/infrastructure" xlink:title="infrastructure">
<polygon fill="#ffffcc" stroke="black" points="316,-62 239,-62 237,-60 237,-44 314,-44 316,-46 316,-62"/>
<polyline fill="none" stroke="black" points="314,-60 237,-60 "/>
<polyline fill="none" stroke="black" points="314,-60 314,-44 "/>
<polyline fill="none" stroke="black" points="314,-60 316,-62 "/>
<text text-anchor="start" x="245" y="-50.8" font-family="Helvetica,sans-Serif" font-size="9.00">infrastructure</text>
</a>
</g>
</g>
<!-- src/presentation&#45;&gt;src/infrastructure -->
<g id="edge9" class="edge">
<title>src/presentation&#45;&gt;src/infrastructure</title>
<path fill="none" stroke="#000000" stroke-width="2" stroke-opacity="0.200000" d="M223.84,-40.01C227.09,-40.83 230.39,-41.66 233.68,-42.49"/>
<polygon fill="#000000" fill-opacity="0.200000" stroke="#000000" stroke-width="2" stroke-opacity="0.200000" points="233.24,-44.54 239.57,-43.97 234.27,-40.47 233.24,-44.54"/>
</g>
<!-- src/application&#45;&gt;src/domain -->
<g id="edge2" class="edge">
<title>src/application&#45;&gt;src/domain</title>
<path fill="none" stroke="#000000" stroke-opacity="0.200000" d="M395.18,-39C397.3,-39 399.45,-39 401.58,-39"/>
<polygon fill="none" stroke="#000000" stroke-opacity="0.200000" points="401.89,-41.1 407.89,-39 401.89,-36.9 401.89,-41.1"/>
</g>
<!-- src/infrastructure&#45;&gt;src/application -->
<g id="edge3" class="edge">
<title>src/infrastructure&#45;&gt;src/application</title>
<path fill="none" stroke="#000000" stroke-width="2" stroke-opacity="0.200000" d="M316.32,-46.49C318.36,-46.15 320.41,-45.8 322.46,-45.46"/>
<polygon fill="#000000" fill-opacity="0.200000" stroke="#000000" stroke-width="2" stroke-opacity="0.200000" points="322.97,-47.51 328.54,-44.44 322.27,-43.36 322.97,-47.51"/>
</g>
<!-- src/infrastructure&#45;&gt;src/domain -->
<g id="edge4" class="edge">
<title>src/infrastructure&#45;&gt;src/domain</title>
<path fill="none" stroke="#000000" stroke-opacity="0.200000" d="M316.19,-57.02C339.26,-58.51 369.03,-58.82 395,-54 399.61,-53.14 404.39,-51.76 408.94,-50.18"/>
<polygon fill="none" stroke="#000000" stroke-opacity="0.200000" points="409.68,-52.14 414.57,-48.08 408.21,-48.21 409.68,-52.14"/>
</g>
<!-- src/main.ts -->
<g id="node6" class="node">
<title>src/main.ts</title>
<g id="a_node6"><a xlink:href="src/main.ts" xlink:title="main.ts">
<path fill="#ddfeff" stroke="black" d="M64,-51C64,-51 22,-51 22,-51 19,-51 16,-48 16,-45 16,-45 16,-39 16,-39 16,-36 19,-33 22,-33 22,-33 64,-33 64,-33 67,-33 70,-36 70,-39 70,-39 70,-45 70,-45 70,-48 67,-51 64,-51"/>
<text text-anchor="start" x="26" y="-39.8" font-family="Helvetica,sans-Serif" font-size="9.00">main.ts</text>
</a>
</g>
</g>
<!-- src/main.ts&#45;&gt;src/App.vue -->
<g id="edge5" class="edge">
<title>src/main.ts&#45;&gt;src/App.vue</title>
<path fill="none" stroke="#000000" stroke-width="2" stroke-opacity="0.200000" d="M70.06,-37.59C72.32,-37.21 74.61,-36.82 76.9,-36.43"/>
<polygon fill="#000000" fill-opacity="0.200000" stroke="#000000" stroke-width="2" stroke-opacity="0.200000" points="77.37,-38.48 82.93,-35.41 76.66,-34.34 77.37,-38.48"/>
</g>
<!-- src/main.ts&#45;&gt;src/infrastructure -->
<g id="edge6" class="edge">
<title>src/main.ts&#45;&gt;src/infrastructure</title>
<path fill="none" stroke="#000000" stroke-width="2" stroke-opacity="0.200000" d="M70.41,-44.95C74.62,-45.35 78.93,-45.72 83,-46 133.51,-49.5 191.61,-51.31 230.65,-52.2"/>
<polygon fill="#000000" fill-opacity="0.200000" stroke="#000000" stroke-width="2" stroke-opacity="0.200000" points="230.7,-54.31 236.75,-52.34 230.79,-50.11 230.7,-54.31"/>
</g>
</g>
</svg>
