<?xml version="1.0" encoding="UTF-8" standalone="no"?>
<!DOCTYPE svg PUBLIC "-//W3C//DTD SVG 1.1//EN"
 "http://www.w3.org/Graphics/SVG/1.1/DTD/svg11.dtd">
<!-- Generated by graphviz version 9.0.0 (20230911.1827)
 -->
<!-- Title: dependency&#45;cruiser output Pages: 1 -->
<svg width="600pt" height="110pt"
 viewBox="0.00 0.00 599.75 110.00" xmlns="http://www.w3.org/2000/svg" xmlns:xlink="http://www.w3.org/1999/xlink">
<g id="graph0" class="graph" transform="scale(1 1) rotate(0) translate(4 106)">
<title>dependency&#45;cruiser output</title>
<polygon fill="white" stroke="none" points="-4,4 -4,-106 595.75,-106 595.75,4 -4,4"/>
<g id="clust1" class="cluster">
<title>cluster_src</title>
<path fill="#ffffff" stroke="black" stroke-width="2" d="M20,-8C20,-8 571.75,-8 571.75,-8 577.75,-8 583.75,-14 583.75,-20 583.75,-20 583.75,-82 583.75,-82 583.75,-88 577.75,-94 571.75,-94 571.75,-94 20,-94 20,-94 14,-94 8,-88 8,-82 8,-82 8,-20 8,-20 8,-14 14,-8 20,-8"/>
<text text-anchor="middle" x="295.88" y="-81.45" font-family="Helvetica,sans-Serif" font-weight="bold" font-size="9.00">src</text>
</g>
<!-- src/App.vue -->
<g id="node1" class="node">
<title>src/App.vue</title>
<g id="a_node1"><a xlink:href="src/App.vue" xlink:title="App.vue">
<path fill="#41f083" stroke="black" d="M130.58,-35.62C130.58,-35.62 89.42,-35.62 89.42,-35.62 86.21,-35.62 83,-32.42 83,-29.21 83,-29.21 83,-22.79 83,-22.79 83,-19.58 86.21,-16.38 89.42,-16.38 89.42,-16.38 130.58,-16.38 130.58,-16.38 133.79,-16.38 137,-19.58 137,-22.79 137,-22.79 137,-29.21 137,-29.21 137,-32.42 133.79,-35.62 130.58,-35.62"/>
<text text-anchor="start" x="93.88" y="-23.07" font-family="Helvetica,sans-Serif" font-size="9.00">App.vue</text>
</a>
</g>
</g>
<!-- src/components -->
<g id="node2" class="node">
<title>src/components</title>
<g id="a_node2"><a xlink:href="src/components" xlink:title="components">
<polygon fill="#ffffcc" stroke="black" points="284.75,-35.62 219.14,-35.62 217,-33.49 217,-16.38 282.61,-16.38 284.75,-18.51 284.75,-35.62"/>
<polyline fill="none" stroke="black" points="282.61,-33.49 217,-33.49"/>
<polyline fill="none" stroke="black" points="282.61,-33.49 282.61,-16.38"/>
<polyline fill="none" stroke="black" points="282.61,-33.49 284.75,-35.62"/>
<text text-anchor="start" x="225" y="-23.07" font-family="Helvetica,sans-Serif" font-size="9.00">components</text>
</a>
</g>
</g>
<!-- src/App.vue&#45;&gt;src/components -->
<g id="edge1" class="edge">
<title>src/App.vue&#45;&gt;src/components</title>
<path fill="none" stroke="#000000" stroke-width="2" stroke-opacity="0.200000" d="M137.45,-26C157.32,-26 184.93,-26 207.82,-26"/>
<polygon fill="#000000" fill-opacity="0.200000" stroke="#000000" stroke-width="2" stroke-opacity="0.200000" points="207.63,-28.1 213.63,-26 207.63,-23.9 207.63,-28.1"/>
</g>
<!-- src/views -->
<g id="node3" class="node">
<title>src/views</title>
<g id="a_node3"><a xlink:href="src/views" xlink:title="views">
<polygon fill="#ffffcc" stroke="black" points="204,-58.62 152.14,-58.62 150,-56.49 150,-39.38 201.86,-39.38 204,-41.51 204,-58.62"/>
<polyline fill="none" stroke="black" points="201.86,-56.49 150,-56.49"/>
<polyline fill="none" stroke="black" points="201.86,-56.49 201.86,-39.38"/>
<polyline fill="none" stroke="black" points="201.86,-56.49 204,-58.62"/>
<text text-anchor="start" x="165.38" y="-46.08" font-family="Helvetica,sans-Serif" font-size="9.00">views</text>
</a>
</g>
</g>
<!-- src/App.vue&#45;&gt;src/views -->
<g id="edge2" class="edge">
<title>src/App.vue&#45;&gt;src/views</title>
<path fill="none" stroke="#000000" stroke-width="2" stroke-opacity="0.200000" d="M137.44,-35.35C138.71,-35.81 140,-36.26 141.29,-36.72"/>
<polygon fill="#000000" fill-opacity="0.200000" stroke="#000000" stroke-width="2" stroke-opacity="0.200000" points="140.59,-38.7 146.94,-38.72 141.99,-34.74 140.59,-38.7"/>
</g>
<!-- src/stores -->
<g id="node7" class="node">
<title>src/stores</title>
<g id="a_node7"><a xlink:href="src/stores" xlink:title="stores">
<polygon fill="#ffffcc" stroke="black" points="351.75,-46.62 299.89,-46.62 297.75,-44.49 297.75,-27.38 349.61,-27.38 351.75,-29.51 351.75,-46.62"/>
<polyline fill="none" stroke="black" points="349.61,-44.49 297.75,-44.49"/>
<polyline fill="none" stroke="black" points="349.61,-44.49 349.61,-27.38"/>
<polyline fill="none" stroke="black" points="349.61,-44.49 351.75,-46.62"/>
<text text-anchor="start" x="311.62" y="-34.08" font-family="Helvetica,sans-Serif" font-size="9.00">stores</text>
</a>
</g>
</g>
<!-- src/components&#45;&gt;src/stores -->
<g id="edge4" class="edge">
<title>src/components&#45;&gt;src/stores</title>
<path fill="none" stroke="#000000" stroke-width="2" stroke-opacity="0.200000" d="M284.87,-31.05C286.21,-31.25 287.55,-31.46 288.89,-31.66"/>
<polygon fill="#000000" fill-opacity="0.200000" stroke="#000000" stroke-width="2" stroke-opacity="0.200000" points="288.39,-33.71 294.64,-32.55 289.03,-29.56 288.39,-33.71"/>
</g>
<!-- src/views&#45;&gt;src/components -->
<g id="edge9" class="edge">
<title>src/views&#45;&gt;src/components</title>
<path fill="none" stroke="#000000" stroke-width="2" stroke-opacity="0.200000" d="M204.36,-40.57C206.24,-39.96 208.17,-39.35 210.11,-38.72"/>
<polygon fill="#000000" fill-opacity="0.200000" stroke="#000000" stroke-width="2" stroke-opacity="0.200000" points="210.69,-40.74 215.76,-36.92 209.41,-36.74 210.69,-40.74"/>
</g>
<!-- src/views&#45;&gt;src/stores -->
<g id="edge10" class="edge">
<title>src/views&#45;&gt;src/stores</title>
<path fill="none" stroke="#000000" stroke-width="2" stroke-opacity="0.200000" d="M204.36,-47.73C225.99,-46.57 257.39,-44.65 284.75,-42 286.02,-41.88 287.32,-41.74 288.63,-41.61"/>
<polygon fill="#000000" fill-opacity="0.200000" stroke="#000000" stroke-width="2" stroke-opacity="0.200000" points="288.61,-43.72 294.33,-40.95 288.13,-39.55 288.61,-43.72"/>
</g>
<!-- src/application -->
<g id="node4" class="node">
<title>src/application</title>
<g id="a_node4"><a xlink:href="src/application" xlink:title="application">
<polygon fill="#ffffcc" stroke="black" points="425.75,-46.62 366.89,-46.62 364.75,-44.49 364.75,-27.38 423.61,-27.38 425.75,-29.51 425.75,-46.62"/>
<polyline fill="none" stroke="black" points="423.61,-44.49 364.75,-44.49"/>
<polyline fill="none" stroke="black" points="423.61,-44.49 423.61,-27.38"/>
<polyline fill="none" stroke="black" points="423.61,-44.49 425.75,-46.62"/>
<text text-anchor="start" x="372.75" y="-34.08" font-family="Helvetica,sans-Serif" font-size="9.00">application</text>
</a>
</g>
</g>
<!-- src/infrastructure -->
<g id="node5" class="node">
<title>src/infrastructure</title>
<g id="a_node5"><a xlink:href="src/infrastructure" xlink:title="infrastructure">
<polygon fill="#ffffcc" stroke="black" points="508.75,-46.62 440.89,-46.62 438.75,-44.49 438.75,-27.38 506.61,-27.38 508.75,-29.51 508.75,-46.62"/>
<polyline fill="none" stroke="black" points="506.61,-44.49 438.75,-44.49"/>
<polyline fill="none" stroke="black" points="506.61,-44.49 506.61,-27.38"/>
<polyline fill="none" stroke="black" points="506.61,-44.49 508.75,-46.62"/>
<text text-anchor="start" x="446.75" y="-34.08" font-family="Helvetica,sans-Serif" font-size="9.00">infrastructure</text>
</a>
</g>
</g>
<!-- src/application&#45;&gt;src/infrastructure -->
<g id="edge3" class="edge">
<title>src/application&#45;&gt;src/infrastructure</title>
<path fill="none" stroke="#000000" stroke-width="2" stroke-opacity="0.200000" d="M426.05,-37C427.18,-37 428.32,-37 429.47,-37"/>
<polygon fill="#000000" fill-opacity="0.200000" stroke="#000000" stroke-width="2" stroke-opacity="0.200000" points="429.31,-39.1 435.31,-37 429.31,-34.9 429.31,-39.1"/>
</g>
<!-- src/domain -->
<g id="node8" class="node">
<title>src/domain</title>
<g id="a_node8"><a xlink:href="src/domain" xlink:title="domain">
<polygon fill="#ffffcc" stroke="black" points="575.75,-46.62 523.89,-46.62 521.75,-44.49 521.75,-27.38 573.61,-27.38 575.75,-29.51 575.75,-46.62"/>
<polyline fill="none" stroke="black" points="573.61,-44.49 521.75,-44.49"/>
<polyline fill="none" stroke="black" points="573.61,-44.49 573.61,-27.38"/>
<polyline fill="none" stroke="black" points="573.61,-44.49 575.75,-46.62"/>
<text text-anchor="start" x="533" y="-34.08" font-family="Helvetica,sans-Serif" font-size="9.00">domain</text>
</a>
</g>
</g>
<!-- src/infrastructure&#45;&gt;src/domain -->
<g id="edge5" class="edge">
<title>src/infrastructure&#45;&gt;src/domain</title>
<path fill="none" stroke="#000000" stroke-width="2" stroke-opacity="0.200000" d="M509.11,-37C510.28,-37 511.45,-37 512.61,-37"/>
<polygon fill="#000000" fill-opacity="0.200000" stroke="#000000" stroke-width="2" stroke-opacity="0.200000" points="512.41,-39.1 518.41,-37 512.41,-34.9 512.41,-39.1"/>
</g>
<!-- src/assets -->
<g id="node6" class="node">
<title>src/assets</title>
<g id="a_node6"><a xlink:href="src/assets" xlink:title="no&#45;orphans">
<polygon fill="#ffffcc" stroke="orange" points="137,-66.62 85.14,-66.62 83,-64.49 83,-47.38 134.86,-47.38 137,-49.51 137,-66.62"/>
<polyline fill="none" stroke="orange" points="134.86,-64.49 83,-64.49"/>
<polyline fill="none" stroke="orange" points="134.86,-64.49 134.86,-47.38"/>
<polyline fill="none" stroke="orange" points="134.86,-64.49 137,-66.62"/>
<text text-anchor="start" x="95.75" y="-54.08" font-family="Helvetica,sans-Serif" font-size="9.00" fill="orange">assets</text>
</a>
</g>
</g>
<!-- src/stores&#45;&gt;src/application -->
<g id="edge8" class="edge">
<title>src/stores&#45;&gt;src/application</title>
<path fill="none" stroke="#000000" stroke-width="2" stroke-opacity="0.200000" d="M352.04,-37C353.18,-37 354.34,-37 355.51,-37"/>
<polygon fill="#000000" fill-opacity="0.200000" stroke="#000000" stroke-width="2" stroke-opacity="0.200000" points="355.46,-39.1 361.46,-37 355.46,-34.9 355.46,-39.1"/>
</g>
<!-- src/main.ts -->
<g id="node9" class="node">
<title>src/main.ts</title>
<g id="a_node9"><a xlink:href="src/main.ts" xlink:title="main.ts">
<path fill="#ddfeff" stroke="black" d="M63.58,-50.62C63.58,-50.62 22.42,-50.62 22.42,-50.62 19.21,-50.62 16,-47.42 16,-44.21 16,-44.21 16,-37.79 16,-37.79 16,-34.58 19.21,-31.38 22.42,-31.38 22.42,-31.38 63.58,-31.38 63.58,-31.38 66.79,-31.38 70,-34.58 70,-37.79 70,-37.79 70,-44.21 70,-44.21 70,-47.42 66.79,-50.62 63.58,-50.62"/>
<text text-anchor="start" x="27.62" y="-38.08" font-family="Helvetica,sans-Serif" font-size="9.00">main.ts</text>
</a>
</g>
</g>
<!-- src/main.ts&#45;&gt;src/App.vue -->
<g id="edge6" class="edge">
<title>src/main.ts&#45;&gt;src/App.vue</title>
<path fill="none" stroke="#000000" stroke-width="2" stroke-opacity="0.200000" d="M70.44,-34.9C71.71,-34.6 73,-34.31 74.29,-34.01"/>
<polygon fill="#000000" fill-opacity="0.200000" stroke="#000000" stroke-width="2" stroke-opacity="0.200000" points="74.47,-36.12 79.85,-32.73 73.53,-32.03 74.47,-36.12"/>
</g>
<!-- src/main.ts&#45;&gt;src/assets -->
<g id="edge7" class="edge">
<title>src/main.ts&#45;&gt;src/assets</title>
<path fill="none" stroke="#000000" stroke-width="2" stroke-opacity="0.200000" d="M70.44,-47.51C71.71,-47.82 73,-48.14 74.29,-48.46"/>
<polygon fill="#000000" fill-opacity="0.200000" stroke="#000000" stroke-width="2" stroke-opacity="0.200000" points="73.53,-50.43 79.86,-49.83 74.53,-46.35 73.53,-50.43"/>
</g>
</g>
</svg>
