<?xml version="1.0" encoding="UTF-8" standalone="no"?>
<!DOCTYPE svg PUBLIC "-//W3C//DTD SVG 1.1//EN"
 "http://www.w3.org/Graphics/SVG/1.1/DTD/svg11.dtd">
<!-- Generated by graphviz version 9.0.0 (20230911.1827)
 -->
<!-- Title: dependency&#45;cruiser output Pages: 1 -->
<svg width="600pt" height="93pt"
 viewBox="0.00 0.00 599.75 93.00" xmlns="http://www.w3.org/2000/svg" xmlns:xlink="http://www.w3.org/1999/xlink">
<g id="graph0" class="graph" transform="scale(1 1) rotate(0) translate(4 89)">
<title>dependency&#45;cruiser output</title>
<polygon fill="white" stroke="none" points="-4,4 -4,-89 595.75,-89 595.75,4 -4,4"/>
<g id="clust1" class="cluster">
<title>cluster_src</title>
<path fill="#ffffff" stroke="black" stroke-width="2" d="M20,-8C20,-8 571.75,-8 571.75,-8 577.75,-8 583.75,-14 583.75,-20 583.75,-20 583.75,-65 583.75,-65 583.75,-71 577.75,-77 571.75,-77 571.75,-77 20,-77 20,-77 14,-77 8,-71 8,-65 8,-65 8,-20 8,-20 8,-14 14,-8 20,-8"/>
<text text-anchor="middle" x="295.88" y="-64.45" font-family="Helvetica,sans-Serif" font-weight="bold" font-size="9.00">src</text>
</g>
<!-- src/App.vue -->
<g id="node1" class="node">
<title>src/App.vue</title>
<g id="a_node1"><a xlink:href="src/App.vue" xlink:title="App.vue">
<path fill="#41f083" stroke="black" d="M130.58,-42.62C130.58,-42.62 89.42,-42.62 89.42,-42.62 86.21,-42.62 83,-39.42 83,-36.21 83,-36.21 83,-29.79 83,-29.79 83,-26.58 86.21,-23.38 89.42,-23.38 89.42,-23.38 130.58,-23.38 130.58,-23.38 133.79,-23.38 137,-26.58 137,-29.79 137,-29.79 137,-36.21 137,-36.21 137,-39.42 133.79,-42.62 130.58,-42.62"/>
<text text-anchor="start" x="93.88" y="-30.07" font-family="Helvetica,sans-Serif" font-size="9.00">App.vue</text>
</a>
</g>
</g>
<!-- src/components -->
<g id="node2" class="node">
<title>src/components</title>
<g id="a_node2"><a xlink:href="src/components" xlink:title="components">
<polygon fill="#ffffcc" stroke="black" points="284.75,-35.62 219.14,-35.62 217,-33.49 217,-16.38 282.61,-16.38 284.75,-18.51 284.75,-35.62"/>
<polyline fill="none" stroke="black" points="282.61,-33.49 217,-33.49"/>
<polyline fill="none" stroke="black" points="282.61,-33.49 282.61,-16.38"/>
<polyline fill="none" stroke="black" points="282.61,-33.49 284.75,-35.62"/>
<text text-anchor="start" x="225" y="-23.07" font-family="Helvetica,sans-Serif" font-size="9.00">components</text>
</a>
</g>
</g>
<!-- src/App.vue&#45;&gt;src/components -->
<g id="edge1" class="edge">
<title>src/App.vue&#45;&gt;src/components</title>
<path fill="none" stroke="#000000" stroke-width="2" stroke-opacity="0.200000" d="M137.29,-26.08C141.51,-25.22 145.86,-24.47 150,-24 169.1,-21.82 190.39,-21.91 208.39,-22.7"/>
<polygon fill="#000000" fill-opacity="0.200000" stroke="#000000" stroke-width="2" stroke-opacity="0.200000" points="207.81,-24.78 213.91,-22.99 208.03,-20.58 207.81,-24.78"/>
</g>
<!-- src/views -->
<g id="node3" class="node">
<title>src/views</title>
<g id="a_node3"><a xlink:href="src/views" xlink:title="views">
<polygon fill="#ffffcc" stroke="black" points="204,-49.62 152.14,-49.62 150,-47.49 150,-30.38 201.86,-30.38 204,-32.51 204,-49.62"/>
<polyline fill="none" stroke="black" points="201.86,-47.49 150,-47.49"/>
<polyline fill="none" stroke="black" points="201.86,-47.49 201.86,-30.38"/>
<polyline fill="none" stroke="black" points="201.86,-47.49 204,-49.62"/>
<text text-anchor="start" x="165.38" y="-37.08" font-family="Helvetica,sans-Serif" font-size="9.00">views</text>
</a>
</g>
</g>
<!-- src/App.vue&#45;&gt;src/views -->
<g id="edge2" class="edge">
<title>src/App.vue&#45;&gt;src/views</title>
<path fill="none" stroke="#000000" stroke-width="2" stroke-opacity="0.200000" d="M137.44,-35.85C138.58,-35.97 139.74,-36.1 140.9,-36.22"/>
<polygon fill="#000000" fill-opacity="0.200000" stroke="#000000" stroke-width="2" stroke-opacity="0.200000" points="140.6,-38.3 146.79,-36.85 141.05,-34.12 140.6,-38.3"/>
</g>
<!-- src/stores -->
<g id="node7" class="node">
<title>src/stores</title>
<g id="a_node7"><a xlink:href="src/stores" xlink:title="stores">
<polygon fill="#ffffcc" stroke="black" points="351.75,-42.62 299.89,-42.62 297.75,-40.49 297.75,-23.38 349.61,-23.38 351.75,-25.51 351.75,-42.62"/>
<polyline fill="none" stroke="black" points="349.61,-40.49 297.75,-40.49"/>
<polyline fill="none" stroke="black" points="349.61,-40.49 349.61,-23.38"/>
<polyline fill="none" stroke="black" points="349.61,-40.49 351.75,-42.62"/>
<text text-anchor="start" x="311.62" y="-30.07" font-family="Helvetica,sans-Serif" font-size="9.00">stores</text>
</a>
</g>
</g>
<!-- src/components&#45;&gt;src/stores -->
<g id="edge5" class="edge">
<title>src/components&#45;&gt;src/stores</title>
<path fill="none" stroke="#000000" stroke-width="2" stroke-opacity="0.200000" d="M284.87,-29.21C286.21,-29.34 287.55,-29.47 288.89,-29.6"/>
<polygon fill="#000000" fill-opacity="0.200000" stroke="#000000" stroke-width="2" stroke-opacity="0.200000" points="288.44,-31.67 294.62,-30.16 288.85,-27.49 288.44,-31.67"/>
</g>
<!-- src/views&#45;&gt;src/components -->
<g id="edge9" class="edge">
<title>src/views&#45;&gt;src/components</title>
<path fill="none" stroke="#000000" stroke-width="2" stroke-opacity="0.200000" d="M204.36,-34.87C205.61,-34.62 206.88,-34.38 208.16,-34.13"/>
<polygon fill="#000000" fill-opacity="0.200000" stroke="#000000" stroke-width="2" stroke-opacity="0.200000" points="208.21,-36.26 213.7,-33.05 207.41,-32.13 208.21,-36.26"/>
</g>
<!-- src/views&#45;&gt;src/stores -->
<g id="edge10" class="edge">
<title>src/views&#45;&gt;src/stores</title>
<path fill="none" stroke="#000000" stroke-width="2" stroke-opacity="0.200000" d="M204.41,-42.43C226.07,-43.95 257.49,-45.1 284.75,-42 286.04,-41.85 287.36,-41.68 288.68,-41.48"/>
<polygon fill="#000000" fill-opacity="0.200000" stroke="#000000" stroke-width="2" stroke-opacity="0.200000" points="288.94,-43.57 294.48,-40.45 288.2,-39.43 288.94,-43.57"/>
</g>
<!-- src/application -->
<g id="node4" class="node">
<title>src/application</title>
<g id="a_node4"><a xlink:href="src/application" xlink:title="application">
<polygon fill="#ffffcc" stroke="black" points="425.75,-42.62 366.89,-42.62 364.75,-40.49 364.75,-23.38 423.61,-23.38 425.75,-25.51 425.75,-42.62"/>
<polyline fill="none" stroke="black" points="423.61,-40.49 364.75,-40.49"/>
<polyline fill="none" stroke="black" points="423.61,-40.49 423.61,-23.38"/>
<polyline fill="none" stroke="black" points="423.61,-40.49 425.75,-42.62"/>
<text text-anchor="start" x="372.75" y="-30.07" font-family="Helvetica,sans-Serif" font-size="9.00">application</text>
</a>
</g>
</g>
<!-- src/infrastructure -->
<g id="node5" class="node">
<title>src/infrastructure</title>
<g id="a_node5"><a xlink:href="src/infrastructure" xlink:title="infrastructure">
<polygon fill="#ffffcc" stroke="black" points="508.75,-35.62 440.89,-35.62 438.75,-33.49 438.75,-16.38 506.61,-16.38 508.75,-18.51 508.75,-35.62"/>
<polyline fill="none" stroke="black" points="506.61,-33.49 438.75,-33.49"/>
<polyline fill="none" stroke="black" points="506.61,-33.49 506.61,-16.38"/>
<polyline fill="none" stroke="black" points="506.61,-33.49 508.75,-35.62"/>
<text text-anchor="start" x="446.75" y="-23.07" font-family="Helvetica,sans-Serif" font-size="9.00">infrastructure</text>
</a>
</g>
</g>
<!-- src/application&#45;&gt;src/infrastructure -->
<g id="edge3" class="edge">
<title>src/application&#45;&gt;src/infrastructure</title>
<path fill="none" stroke="#000000" stroke-width="2" stroke-opacity="0.200000" d="M426.05,-30.27C427.18,-30.17 428.32,-30.07 429.47,-29.96"/>
<polygon fill="#000000" fill-opacity="0.200000" stroke="#000000" stroke-width="2" stroke-opacity="0.200000" points="429.53,-32.06 435.32,-29.43 429.15,-27.88 429.53,-32.06"/>
</g>
<!-- src/domain -->
<g id="node6" class="node">
<title>src/domain</title>
<g id="a_node6"><a xlink:href="src/domain" xlink:title="domain">
<polygon fill="#ffffcc" stroke="black" points="575.75,-42.62 523.89,-42.62 521.75,-40.49 521.75,-23.38 573.61,-23.38 575.75,-25.51 575.75,-42.62"/>
<polyline fill="none" stroke="black" points="573.61,-40.49 521.75,-40.49"/>
<polyline fill="none" stroke="black" points="573.61,-40.49 573.61,-23.38"/>
<polyline fill="none" stroke="black" points="573.61,-40.49 575.75,-42.62"/>
<text text-anchor="start" x="533" y="-30.07" font-family="Helvetica,sans-Serif" font-size="9.00">domain</text>
</a>
</g>
</g>
<!-- src/application&#45;&gt;src/domain -->
<g id="edge4" class="edge">
<title>src/application&#45;&gt;src/domain</title>
<path fill="none" stroke="#000000" stroke-width="2" stroke-opacity="0.200000" d="M425.85,-40.09C430.15,-40.88 434.55,-41.56 438.75,-42 469.69,-45.24 477.84,-45.52 508.75,-42 510.04,-41.85 511.36,-41.68 512.68,-41.48"/>
<polygon fill="#000000" fill-opacity="0.200000" stroke="#000000" stroke-width="2" stroke-opacity="0.200000" points="512.94,-43.57 518.48,-40.45 512.2,-39.43 512.94,-43.57"/>
</g>
<!-- src/infrastructure&#45;&gt;src/domain -->
<g id="edge6" class="edge">
<title>src/infrastructure&#45;&gt;src/domain</title>
<path fill="none" stroke="#000000" stroke-width="2" stroke-opacity="0.200000" d="M509.11,-29.3C510.28,-29.41 511.45,-29.52 512.61,-29.63"/>
<polygon fill="#000000" fill-opacity="0.200000" stroke="#000000" stroke-width="2" stroke-opacity="0.200000" points="512.25,-31.71 518.42,-30.19 512.65,-27.52 512.25,-31.71"/>
</g>
<!-- src/stores&#45;&gt;src/application -->
<g id="edge8" class="edge">
<title>src/stores&#45;&gt;src/application</title>
<path fill="none" stroke="#000000" stroke-width="2" stroke-opacity="0.200000" d="M352.04,-33C353.18,-33 354.34,-33 355.51,-33"/>
<polygon fill="#000000" fill-opacity="0.200000" stroke="#000000" stroke-width="2" stroke-opacity="0.200000" points="355.46,-35.1 361.46,-33 355.46,-30.9 355.46,-35.1"/>
</g>
<!-- src/main.ts -->
<g id="node8" class="node">
<title>src/main.ts</title>
<g id="a_node8"><a xlink:href="src/main.ts" xlink:title="main.ts">
<path fill="#ddfeff" stroke="black" d="M63.58,-42.62C63.58,-42.62 22.42,-42.62 22.42,-42.62 19.21,-42.62 16,-39.42 16,-36.21 16,-36.21 16,-29.79 16,-29.79 16,-26.58 19.21,-23.38 22.42,-23.38 22.42,-23.38 63.58,-23.38 63.58,-23.38 66.79,-23.38 70,-26.58 70,-29.79 70,-29.79 70,-36.21 70,-36.21 70,-39.42 66.79,-42.62 63.58,-42.62"/>
<text text-anchor="start" x="27.62" y="-30.07" font-family="Helvetica,sans-Serif" font-size="9.00">main.ts</text>
</a>
</g>
</g>
<!-- src/main.ts&#45;&gt;src/App.vue -->
<g id="edge7" class="edge">
<title>src/main.ts&#45;&gt;src/App.vue</title>
<path fill="none" stroke="#000000" stroke-width="2" stroke-opacity="0.200000" d="M70.44,-33C71.58,-33 72.74,-33 73.9,-33"/>
<polygon fill="#000000" fill-opacity="0.200000" stroke="#000000" stroke-width="2" stroke-opacity="0.200000" points="73.77,-35.1 79.77,-33 73.77,-30.9 73.77,-35.1"/>
</g>
</g>
</svg>
