<?xml version="1.0" encoding="UTF-8" standalone="no"?>
<!DOCTYPE svg PUBLIC "-//W3C//DTD SVG 1.1//EN"
 "http://www.w3.org/Graphics/SVG/1.1/DTD/svg11.dtd">
<!-- Generated by graphviz version 9.0.0 (20230911.1827)
 -->
<!-- Title: dependency&#45;cruiser output Pages: 1 -->
<svg width="600pt" height="121pt"
 viewBox="0.00 0.00 599.75 121.00" xmlns="http://www.w3.org/2000/svg" xmlns:xlink="http://www.w3.org/1999/xlink">
<g id="graph0" class="graph" transform="scale(1 1) rotate(0) translate(4 117)">
<title>dependency&#45;cruiser output</title>
<polygon fill="white" stroke="none" points="-4,4 -4,-117 595.75,-117 595.75,4 -4,4"/>
<g id="clust1" class="cluster">
<title>cluster_src</title>
<path fill="#ffffff" stroke="black" stroke-width="2" d="M20,-8C20,-8 571.75,-8 571.75,-8 577.75,-8 583.75,-14 583.75,-20 583.75,-20 583.75,-93 583.75,-93 583.75,-99 577.75,-105 571.75,-105 571.75,-105 20,-105 20,-105 14,-105 8,-99 8,-93 8,-93 8,-20 8,-20 8,-14 14,-8 20,-8"/>
<text text-anchor="middle" x="295.88" y="-92.45" font-family="Helvetica,sans-Serif" font-weight="bold" font-size="9.00">src</text>
</g>
<!-- src/App.vue -->
<g id="node1" class="node">
<title>src/App.vue</title>
<g id="a_node1"><a xlink:href="src/App.vue" xlink:title="App.vue">
<path fill="#41f083" stroke="black" d="M130.58,-60.62C130.58,-60.62 89.42,-60.62 89.42,-60.62 86.21,-60.62 83,-57.42 83,-54.21 83,-54.21 83,-47.79 83,-47.79 83,-44.58 86.21,-41.38 89.42,-41.38 89.42,-41.38 130.58,-41.38 130.58,-41.38 133.79,-41.38 137,-44.58 137,-47.79 137,-47.79 137,-54.21 137,-54.21 137,-57.42 133.79,-60.62 130.58,-60.62"/>
<text text-anchor="start" x="93.88" y="-48.08" font-family="Helvetica,sans-Serif" font-size="9.00">App.vue</text>
</a>
</g>
</g>
<!-- src/components -->
<g id="node2" class="node">
<title>src/components</title>
<g id="a_node2"><a xlink:href="src/components" xlink:title="components">
<polygon fill="#ffffcc" stroke="black" points="284.75,-49.62 219.14,-49.62 217,-47.49 217,-30.38 282.61,-30.38 284.75,-32.51 284.75,-49.62"/>
<polyline fill="none" stroke="black" points="282.61,-47.49 217,-47.49"/>
<polyline fill="none" stroke="black" points="282.61,-47.49 282.61,-30.38"/>
<polyline fill="none" stroke="black" points="282.61,-47.49 284.75,-49.62"/>
<text text-anchor="start" x="225" y="-37.08" font-family="Helvetica,sans-Serif" font-size="9.00">components</text>
</a>
</g>
</g>
<!-- src/App.vue&#45;&gt;src/components -->
<g id="edge1" class="edge">
<title>src/App.vue&#45;&gt;src/components</title>
<path fill="none" stroke="#000000" stroke-width="2" stroke-opacity="0.200000" d="M137.42,-48.17C141.63,-47.76 145.93,-47.35 150,-47 168.88,-45.37 189.78,-43.86 207.57,-42.66"/>
<polygon fill="#000000" fill-opacity="0.200000" stroke="#000000" stroke-width="2" stroke-opacity="0.200000" points="207.69,-44.76 213.54,-42.27 207.42,-40.57 207.69,-44.76"/>
</g>
<!-- src/views -->
<g id="node3" class="node">
<title>src/views</title>
<g id="a_node3"><a xlink:href="src/views" xlink:title="views">
<polygon fill="#ffffcc" stroke="black" points="204,-72.62 152.14,-72.62 150,-70.49 150,-53.38 201.86,-53.38 204,-55.51 204,-72.62"/>
<polyline fill="none" stroke="black" points="201.86,-70.49 150,-70.49"/>
<polyline fill="none" stroke="black" points="201.86,-70.49 201.86,-53.38"/>
<polyline fill="none" stroke="black" points="201.86,-70.49 204,-72.62"/>
<text text-anchor="start" x="165.38" y="-60.08" font-family="Helvetica,sans-Serif" font-size="9.00">views</text>
</a>
</g>
</g>
<!-- src/App.vue&#45;&gt;src/views -->
<g id="edge2" class="edge">
<title>src/App.vue&#45;&gt;src/views</title>
<path fill="none" stroke="#000000" stroke-width="2" stroke-opacity="0.200000" d="M137.44,-55.88C138.71,-56.12 140,-56.35 141.29,-56.59"/>
<polygon fill="#000000" fill-opacity="0.200000" stroke="#000000" stroke-width="2" stroke-opacity="0.200000" points="140.54,-58.59 146.82,-57.61 141.3,-54.46 140.54,-58.59"/>
</g>
<!-- src/application -->
<g id="node4" class="node">
<title>src/application</title>
<g id="a_node4"><a xlink:href="src/application" xlink:title="application">
<polygon fill="#ffffcc" stroke="black" points="425.75,-49.62 366.89,-49.62 364.75,-47.49 364.75,-30.38 423.61,-30.38 425.75,-32.51 425.75,-49.62"/>
<polyline fill="none" stroke="black" points="423.61,-47.49 364.75,-47.49"/>
<polyline fill="none" stroke="black" points="423.61,-47.49 423.61,-30.38"/>
<polyline fill="none" stroke="black" points="423.61,-47.49 425.75,-49.62"/>
<text text-anchor="start" x="372.75" y="-37.08" font-family="Helvetica,sans-Serif" font-size="9.00">application</text>
</a>
</g>
</g>
<!-- src/components&#45;&gt;src/application -->
<g id="edge5" class="edge">
<title>src/components&#45;&gt;src/application</title>
<path fill="none" stroke="#000000" stroke-width="2" stroke-opacity="0.200000" d="M284.9,-40C305.98,-40 333.4,-40 355.51,-40"/>
<polygon fill="#000000" fill-opacity="0.200000" stroke="#000000" stroke-width="2" stroke-opacity="0.200000" points="355.29,-42.1 361.29,-40 355.29,-37.9 355.29,-42.1"/>
</g>
<!-- src/domain -->
<g id="node5" class="node">
<title>src/domain</title>
<g id="a_node5"><a xlink:href="src/domain" xlink:title="domain">
<polygon fill="#ffffcc" stroke="black" points="575.75,-51.62 523.89,-51.62 521.75,-49.49 521.75,-32.38 573.61,-32.38 575.75,-34.51 575.75,-51.62"/>
<polyline fill="none" stroke="black" points="573.61,-49.49 521.75,-49.49"/>
<polyline fill="none" stroke="black" points="573.61,-49.49 573.61,-32.38"/>
<polyline fill="none" stroke="black" points="573.61,-49.49 575.75,-51.62"/>
<text text-anchor="start" x="533" y="-39.08" font-family="Helvetica,sans-Serif" font-size="9.00">domain</text>
</a>
</g>
</g>
<!-- src/components&#45;&gt;src/domain -->
<g id="edge7" class="edge">
<title>src/components&#45;&gt;src/domain</title>
<path fill="none" stroke="#000000" stroke-opacity="0.200000" d="M284.84,-34.08C307.28,-30.36 337.7,-25.91 364.75,-24 428.75,-19.49 445.43,-23.71 508.75,-34 510.54,-34.29 512.37,-34.61 514.22,-34.94"/>
<polygon fill="none" stroke="#000000" stroke-opacity="0.200000" points="513.6,-36.96 519.88,-36 514.38,-32.83 513.6,-36.96"/>
</g>
<!-- src/stores -->
<g id="node7" class="node">
<title>src/stores</title>
<g id="a_node7"><a xlink:href="src/stores" xlink:title="stores">
<polygon fill="#ffffcc" stroke="black" points="351.75,-72.62 299.89,-72.62 297.75,-70.49 297.75,-53.38 349.61,-53.38 351.75,-55.51 351.75,-72.62"/>
<polyline fill="none" stroke="black" points="349.61,-70.49 297.75,-70.49"/>
<polyline fill="none" stroke="black" points="349.61,-70.49 349.61,-53.38"/>
<polyline fill="none" stroke="black" points="349.61,-70.49 351.75,-72.62"/>
<text text-anchor="start" x="311.62" y="-60.08" font-family="Helvetica,sans-Serif" font-size="9.00">stores</text>
</a>
</g>
</g>
<!-- src/components&#45;&gt;src/stores -->
<g id="edge6" class="edge">
<title>src/components&#45;&gt;src/stores</title>
<path fill="none" stroke="#000000" stroke-width="2" stroke-opacity="0.200000" d="M283.19,-50.02C285.1,-50.63 287.02,-51.25 288.94,-51.86"/>
<polygon fill="#000000" fill-opacity="0.200000" stroke="#000000" stroke-width="2" stroke-opacity="0.200000" points="288.02,-53.77 294.37,-53.6 289.3,-49.77 288.02,-53.77"/>
</g>
<!-- src/views&#45;&gt;src/components -->
<g id="edge13" class="edge">
<title>src/views&#45;&gt;src/components</title>
<path fill="none" stroke="#000000" stroke-width="2" stroke-opacity="0.200000" d="M204.36,-54.57C206.24,-53.96 208.17,-53.35 210.11,-52.72"/>
<polygon fill="#000000" fill-opacity="0.200000" stroke="#000000" stroke-width="2" stroke-opacity="0.200000" points="210.69,-54.74 215.76,-50.92 209.41,-50.74 210.69,-54.74"/>
</g>
<!-- src/views&#45;&gt;src/stores -->
<g id="edge14" class="edge">
<title>src/views&#45;&gt;src/stores</title>
<path fill="none" stroke="#000000" stroke-width="2" stroke-opacity="0.200000" d="M204.39,-63C228.02,-63 262.84,-63 288.78,-63"/>
<polygon fill="#000000" fill-opacity="0.200000" stroke="#000000" stroke-width="2" stroke-opacity="0.200000" points="288.53,-65.1 294.53,-63 288.53,-60.9 288.53,-65.1"/>
</g>
<!-- src/application&#45;&gt;src/domain -->
<g id="edge3" class="edge">
<title>src/application&#45;&gt;src/domain</title>
<path fill="none" stroke="#000000" stroke-opacity="0.200000" d="M425.88,-38.36C448.57,-37.38 480.66,-36.56 508.75,-38 510.53,-38.09 512.36,-38.21 514.21,-38.34"/>
<polygon fill="none" stroke="#000000" stroke-opacity="0.200000" points="513.68,-40.4 519.84,-38.8 514.03,-36.22 513.68,-40.4"/>
</g>
<!-- src/infrastructure -->
<g id="node6" class="node">
<title>src/infrastructure</title>
<g id="a_node6"><a xlink:href="src/infrastructure" xlink:title="infrastructure">
<polygon fill="#ffffcc" stroke="black" points="508.75,-63.62 440.89,-63.62 438.75,-61.49 438.75,-44.38 506.61,-44.38 508.75,-46.51 508.75,-63.62"/>
<polyline fill="none" stroke="black" points="506.61,-61.49 438.75,-61.49"/>
<polyline fill="none" stroke="black" points="506.61,-61.49 506.61,-44.38"/>
<polyline fill="none" stroke="black" points="506.61,-61.49 508.75,-63.62"/>
<text text-anchor="start" x="446.75" y="-51.08" font-family="Helvetica,sans-Serif" font-size="9.00">infrastructure</text>
</a>
</g>
</g>
<!-- src/application&#45;&gt;src/infrastructure -->
<g id="edge4" class="edge">
<title>src/application&#45;&gt;src/infrastructure</title>
<path fill="none" stroke="#000000" stroke-width="2" stroke-opacity="0.200000" d="M426.05,-45.45C427.18,-45.66 428.32,-45.87 429.47,-46.08"/>
<polygon fill="#000000" fill-opacity="0.200000" stroke="#000000" stroke-width="2" stroke-opacity="0.200000" points="429.07,-48.14 435.35,-47.16 429.83,-44.01 429.07,-48.14"/>
</g>
<!-- src/infrastructure&#45;&gt;src/domain -->
<g id="edge8" class="edge">
<title>src/infrastructure&#45;&gt;src/domain</title>
<path fill="none" stroke="#000000" stroke-width="2" stroke-opacity="0.200000" d="M509.11,-48.35C510.28,-48.16 511.45,-47.97 512.61,-47.78"/>
<polygon fill="#000000" fill-opacity="0.200000" stroke="#000000" stroke-width="2" stroke-opacity="0.200000" points="512.87,-49.86 518.45,-46.82 512.19,-45.72 512.87,-49.86"/>
</g>
<!-- src/stores&#45;&gt;src/application -->
<g id="edge10" class="edge">
<title>src/stores&#45;&gt;src/application</title>
<path fill="none" stroke="#000000" stroke-width="2" stroke-opacity="0.200000" d="M352.04,-54.17C353.44,-53.7 354.86,-53.23 356.29,-52.75"/>
<polygon fill="#000000" fill-opacity="0.200000" stroke="#000000" stroke-width="2" stroke-opacity="0.200000" points="356.6,-54.86 361.62,-50.96 355.27,-50.87 356.6,-54.86"/>
</g>
<!-- src/stores&#45;&gt;src/domain -->
<g id="edge11" class="edge">
<title>src/stores&#45;&gt;src/domain</title>
<path fill="none" stroke="#000000" stroke-opacity="0.200000" d="M351.97,-69.51C388.21,-77.29 455.18,-87.24 508.75,-70 517.13,-67.3 525.24,-62.06 531.87,-56.84"/>
<polygon fill="none" stroke="#000000" stroke-opacity="0.200000" points="533.1,-58.55 536.35,-53.09 530.4,-55.33 533.1,-58.55"/>
</g>
<!-- src/stores&#45;&gt;src/infrastructure -->
<g id="edge12" class="edge">
<title>src/stores&#45;&gt;src/infrastructure</title>
<path fill="none" stroke="#000000" stroke-width="2" stroke-opacity="0.200000" d="M352.03,-61.39C373.51,-60.08 404.31,-58.19 429.43,-56.65"/>
<polygon fill="#000000" fill-opacity="0.200000" stroke="#000000" stroke-width="2" stroke-opacity="0.200000" points="429.51,-58.75 435.37,-56.29 429.26,-54.56 429.51,-58.75"/>
</g>
<!-- src/main.ts -->
<g id="node8" class="node">
<title>src/main.ts</title>
<g id="a_node8"><a xlink:href="src/main.ts" xlink:title="main.ts">
<path fill="#ddfeff" stroke="black" d="M63.58,-60.62C63.58,-60.62 22.42,-60.62 22.42,-60.62 19.21,-60.62 16,-57.42 16,-54.21 16,-54.21 16,-47.79 16,-47.79 16,-44.58 19.21,-41.38 22.42,-41.38 22.42,-41.38 63.58,-41.38 63.58,-41.38 66.79,-41.38 70,-44.58 70,-47.79 70,-47.79 70,-54.21 70,-54.21 70,-57.42 66.79,-60.62 63.58,-60.62"/>
<text text-anchor="start" x="27.62" y="-48.08" font-family="Helvetica,sans-Serif" font-size="9.00">main.ts</text>
</a>
</g>
</g>
<!-- src/main.ts&#45;&gt;src/App.vue -->
<g id="edge9" class="edge">
<title>src/main.ts&#45;&gt;src/App.vue</title>
<path fill="none" stroke="#000000" stroke-width="2" stroke-opacity="0.200000" d="M70.44,-51C71.58,-51 72.74,-51 73.9,-51"/>
<polygon fill="#000000" fill-opacity="0.200000" stroke="#000000" stroke-width="2" stroke-opacity="0.200000" points="73.77,-53.1 79.77,-51 73.77,-48.9 73.77,-53.1"/>
</g>
</g>
</svg>
