<?xml version="1.0" encoding="UTF-8" standalone="no"?>
<!DOCTYPE svg PUBLIC "-//W3C//DTD SVG 1.1//EN"
 "http://www.w3.org/Graphics/SVG/1.1/DTD/svg11.dtd">
<!-- Generated by graphviz version 2.43.0 (0)
 -->
<!-- Title: dependency&#45;cruiser output Pages: 1 -->
<svg width="619pt" height="90pt"
 viewBox="0.00 0.00 619.00 90.00" xmlns="http://www.w3.org/2000/svg" xmlns:xlink="http://www.w3.org/1999/xlink">
<g id="graph0" class="graph" transform="scale(1 1) rotate(0) translate(4 86)">
<title>dependency&#45;cruiser output</title>
<polygon fill="white" stroke="transparent" points="-4,4 -4,-86 615,-86 615,4 -4,4"/>
<g id="clust1" class="cluster">
<title>cluster_src</title>
<path fill="#ffffff" stroke="black" stroke-width="2" d="M20,-8C20,-8 591,-8 591,-8 597,-8 603,-14 603,-20 603,-20 603,-62 603,-62 603,-68 597,-74 591,-74 591,-74 20,-74 20,-74 14,-74 8,-68 8,-62 8,-62 8,-20 8,-20 8,-14 14,-8 20,-8"/>
<text text-anchor="middle" x="305.5" y="-62.8" font-family="Helvetica,sans-Serif" font-weight="bold" font-size="9.00">src</text>
</g>
<!-- src/App.vue -->
<g id="node1" class="node">
<title>src/App.vue</title>
<g id="a_node1"><a xlink:href="src/App.vue" xlink:title="App.vue">
<path fill="#41f083" stroke="black" d="M131,-41C131,-41 89,-41 89,-41 86,-41 83,-38 83,-35 83,-35 83,-29 83,-29 83,-26 86,-23 89,-23 89,-23 131,-23 131,-23 134,-23 137,-26 137,-29 137,-29 137,-35 137,-35 137,-38 134,-41 131,-41"/>
<text text-anchor="start" x="91" y="-29.8" font-family="Helvetica,sans-Serif" font-size="9.00">App.vue</text>
</a>
</g>
</g>
<!-- src/components -->
<g id="node2" class="node">
<title>src/components</title>
<g id="a_node2"><a xlink:href="src/components" xlink:title="components">
<polygon fill="#ffffcc" stroke="black" points="290,-34 219,-34 217,-32 217,-16 288,-16 290,-18 290,-34"/>
<polyline fill="none" stroke="black" points="288,-32 217,-32 "/>
<polyline fill="none" stroke="black" points="288,-32 288,-16 "/>
<polyline fill="none" stroke="black" points="288,-32 290,-34 "/>
<text text-anchor="start" x="225" y="-22.8" font-family="Helvetica,sans-Serif" font-size="9.00">components</text>
</a>
</g>
</g>
<!-- src/App.vue&#45;&gt;src/components -->
<g id="edge1" class="edge">
<title>src/App.vue&#45;&gt;src/components</title>
<path fill="none" stroke="#000000" stroke-width="2" stroke-opacity="0.200000" d="M137.32,-25.85C141.54,-25.08 145.87,-24.42 150,-24 169.88,-21.98 192.05,-21.93 210.66,-22.5"/>
<polygon fill="#000000" fill-opacity="0.200000" stroke="#000000" stroke-width="2" stroke-opacity="0.200000" points="210.76,-24.61 216.83,-22.72 210.91,-20.41 210.76,-24.61"/>
</g>
<!-- src/views -->
<g id="node3" class="node">
<title>src/views</title>
<g id="a_node3"><a xlink:href="src/views" xlink:title="views">
<polygon fill="#ffffcc" stroke="black" points="204,-48 152,-48 150,-46 150,-30 202,-30 204,-32 204,-48"/>
<polyline fill="none" stroke="black" points="202,-46 150,-46 "/>
<polyline fill="none" stroke="black" points="202,-46 202,-30 "/>
<polyline fill="none" stroke="black" points="202,-46 204,-48 "/>
<text text-anchor="start" x="164.5" y="-36.8" font-family="Helvetica,sans-Serif" font-size="9.00">views</text>
</a>
</g>
</g>
<!-- src/App.vue&#45;&gt;src/views -->
<g id="edge2" class="edge">
<title>src/App.vue&#45;&gt;src/views</title>
<path fill="none" stroke="#000000" stroke-width="2" stroke-opacity="0.200000" d="M137.06,-34.81C139.32,-35.05 141.61,-35.3 143.9,-35.54"/>
<polygon fill="#000000" fill-opacity="0.200000" stroke="#000000" stroke-width="2" stroke-opacity="0.200000" points="143.74,-37.64 149.93,-36.19 144.19,-33.46 143.74,-37.64"/>
</g>
<!-- src/stores -->
<g id="node7" class="node">
<title>src/stores</title>
<g id="a_node7"><a xlink:href="src/stores" xlink:title="stores">
<polygon fill="#ffffcc" stroke="black" points="357,-41 305,-41 303,-39 303,-23 355,-23 357,-25 357,-41"/>
<polyline fill="none" stroke="black" points="355,-39 303,-39 "/>
<polyline fill="none" stroke="black" points="355,-39 355,-23 "/>
<polyline fill="none" stroke="black" points="355,-39 357,-41 "/>
<text text-anchor="start" x="316" y="-29.8" font-family="Helvetica,sans-Serif" font-size="9.00">stores</text>
</a>
</g>
</g>
<!-- src/components&#45;&gt;src/stores -->
<g id="edge5" class="edge">
<title>src/components&#45;&gt;src/stores</title>
<path fill="none" stroke="#000000" stroke-width="2" stroke-opacity="0.200000" d="M290,-28.34C292.31,-28.55 294.63,-28.77 296.92,-28.99"/>
<polygon fill="#000000" fill-opacity="0.200000" stroke="#000000" stroke-width="2" stroke-opacity="0.200000" points="296.73,-31.08 302.9,-29.55 297.13,-26.9 296.73,-31.08"/>
</g>
<!-- src/views&#45;&gt;src/components -->
<g id="edge9" class="edge">
<title>src/views&#45;&gt;src/components</title>
<path fill="none" stroke="#000000" stroke-width="2" stroke-opacity="0.200000" d="M204.06,-34.1C206.24,-33.69 208.48,-33.27 210.75,-32.85"/>
<polygon fill="#000000" fill-opacity="0.200000" stroke="#000000" stroke-width="2" stroke-opacity="0.200000" points="211.26,-34.89 216.77,-31.71 210.48,-30.76 211.26,-34.89"/>
</g>
<!-- src/views&#45;&gt;src/stores -->
<g id="edge10" class="edge">
<title>src/views&#45;&gt;src/stores</title>
<path fill="none" stroke="#000000" stroke-width="2" stroke-opacity="0.200000" d="M204.33,-40.86C227.07,-42.08 260.79,-42.97 290,-40 292.19,-39.78 294.44,-39.49 296.7,-39.15"/>
<polygon fill="#000000" fill-opacity="0.200000" stroke="#000000" stroke-width="2" stroke-opacity="0.200000" points="297.11,-41.21 302.68,-38.15 296.41,-37.07 297.11,-41.21"/>
</g>
<!-- src/application -->
<g id="node4" class="node">
<title>src/application</title>
<g id="a_node4"><a xlink:href="src/application" xlink:title="application">
<polygon fill="#ffffcc" stroke="black" points="436,-41 372,-41 370,-39 370,-23 434,-23 436,-25 436,-41"/>
<polyline fill="none" stroke="black" points="434,-39 370,-39 "/>
<polyline fill="none" stroke="black" points="434,-39 434,-23 "/>
<polyline fill="none" stroke="black" points="434,-39 436,-41 "/>
<text text-anchor="start" x="378" y="-29.8" font-family="Helvetica,sans-Serif" font-size="9.00">application</text>
</a>
</g>
</g>
<!-- src/infrastructure -->
<g id="node5" class="node">
<title>src/infrastructure</title>
<g id="a_node5"><a xlink:href="src/infrastructure" xlink:title="infrastructure">
<polygon fill="#ffffcc" stroke="black" points="528,-34 451,-34 449,-32 449,-16 526,-16 528,-18 528,-34"/>
<polyline fill="none" stroke="black" points="526,-32 449,-32 "/>
<polyline fill="none" stroke="black" points="526,-32 526,-16 "/>
<polyline fill="none" stroke="black" points="526,-32 528,-34 "/>
<text text-anchor="start" x="457" y="-22.8" font-family="Helvetica,sans-Serif" font-size="9.00">infrastructure</text>
</a>
</g>
</g>
<!-- src/application&#45;&gt;src/infrastructure -->
<g id="edge3" class="edge">
<title>src/application&#45;&gt;src/infrastructure</title>
<path fill="none" stroke="#000000" stroke-width="2" stroke-opacity="0.200000" d="M436.04,-29.31C438.29,-29.13 440.58,-28.93 442.88,-28.74"/>
<polygon fill="#000000" fill-opacity="0.200000" stroke="#000000" stroke-width="2" stroke-opacity="0.200000" points="443.17,-30.82 448.97,-28.23 442.82,-26.64 443.17,-30.82"/>
</g>
<!-- src/domain -->
<g id="node6" class="node">
<title>src/domain</title>
<g id="a_node6"><a xlink:href="src/domain" xlink:title="domain">
<polygon fill="#ffffcc" stroke="black" points="595,-41 543,-41 541,-39 541,-23 593,-23 595,-25 595,-41"/>
<polyline fill="none" stroke="black" points="593,-39 541,-39 "/>
<polyline fill="none" stroke="black" points="593,-39 593,-23 "/>
<polyline fill="none" stroke="black" points="593,-39 595,-41 "/>
<text text-anchor="start" x="551" y="-29.8" font-family="Helvetica,sans-Serif" font-size="9.00">domain</text>
</a>
</g>
</g>
<!-- src/application&#45;&gt;src/domain -->
<g id="edge4" class="edge">
<title>src/application&#45;&gt;src/domain</title>
<path fill="none" stroke="#000000" stroke-width="2" stroke-opacity="0.200000" d="M436.35,-38.45C440.59,-39.09 444.89,-39.64 449,-40 483.98,-43.08 493.07,-43.55 528,-40 530.19,-39.78 532.44,-39.49 534.7,-39.15"/>
<polygon fill="#000000" fill-opacity="0.200000" stroke="#000000" stroke-width="2" stroke-opacity="0.200000" points="535.11,-41.21 540.68,-38.15 534.41,-37.07 535.11,-41.21"/>
</g>
<!-- src/infrastructure&#45;&gt;src/domain -->
<g id="edge6" class="edge">
<title>src/infrastructure&#45;&gt;src/domain</title>
<path fill="none" stroke="#000000" stroke-width="2" stroke-opacity="0.200000" d="M528.25,-28.5C530.37,-28.69 532.49,-28.88 534.58,-29.07"/>
<polygon fill="#000000" fill-opacity="0.200000" stroke="#000000" stroke-width="2" stroke-opacity="0.200000" points="534.6,-31.18 540.76,-29.63 534.98,-27 534.6,-31.18"/>
</g>
<!-- src/stores&#45;&gt;src/application -->
<g id="edge8" class="edge">
<title>src/stores&#45;&gt;src/application</title>
<path fill="none" stroke="#000000" stroke-width="2" stroke-opacity="0.200000" d="M357.03,-32C359.09,-32 361.2,-32 363.32,-32"/>
<polygon fill="#000000" fill-opacity="0.200000" stroke="#000000" stroke-width="2" stroke-opacity="0.200000" points="363.69,-34.1 369.69,-32 363.69,-29.9 363.69,-34.1"/>
</g>
<!-- src/main.ts -->
<g id="node8" class="node">
<title>src/main.ts</title>
<g id="a_node8"><a xlink:href="src/main.ts" xlink:title="main.ts">
<path fill="#ddfeff" stroke="black" d="M64,-41C64,-41 22,-41 22,-41 19,-41 16,-38 16,-35 16,-35 16,-29 16,-29 16,-26 19,-23 22,-23 22,-23 64,-23 64,-23 67,-23 70,-26 70,-29 70,-29 70,-35 70,-35 70,-38 67,-41 64,-41"/>
<text text-anchor="start" x="26" y="-29.8" font-family="Helvetica,sans-Serif" font-size="9.00">main.ts</text>
</a>
</g>
</g>
<!-- src/main.ts&#45;&gt;src/App.vue -->
<g id="edge7" class="edge">
<title>src/main.ts&#45;&gt;src/App.vue</title>
<path fill="none" stroke="#000000" stroke-width="2" stroke-opacity="0.200000" d="M70.06,-32C72.32,-32 74.61,-32 76.9,-32"/>
<polygon fill="#000000" fill-opacity="0.200000" stroke="#000000" stroke-width="2" stroke-opacity="0.200000" points="76.93,-34.1 82.93,-32 76.93,-29.9 76.93,-34.1"/>
</g>
</g>
</svg>
