<?xml version="1.0" encoding="UTF-8" standalone="no"?>
<!DOCTYPE svg PUBLIC "-//W3C//DTD SVG 1.1//EN"
 "http://www.w3.org/Graphics/SVG/1.1/DTD/svg11.dtd">
<!-- Generated by graphviz version 9.0.0 (20230911.1827)
 -->
<!-- Title: dependency&#45;cruiser output Pages: 1 -->
<svg width="600pt" height="125pt"
 viewBox="0.00 0.00 599.75 125.00" xmlns="http://www.w3.org/2000/svg" xmlns:xlink="http://www.w3.org/1999/xlink">
<g id="graph0" class="graph" transform="scale(1 1) rotate(0) translate(4 121)">
<title>dependency&#45;cruiser output</title>
<polygon fill="white" stroke="none" points="-4,4 -4,-121 595.75,-121 595.75,4 -4,4"/>
<g id="clust1" class="cluster">
<title>cluster_src</title>
<path fill="#ffffff" stroke="black" stroke-width="2" d="M20,-8C20,-8 571.75,-8 571.75,-8 577.75,-8 583.75,-14 583.75,-20 583.75,-20 583.75,-97 583.75,-97 583.75,-103 577.75,-109 571.75,-109 571.75,-109 20,-109 20,-109 14,-109 8,-103 8,-97 8,-97 8,-20 8,-20 8,-14 14,-8 20,-8"/>
<text text-anchor="middle" x="295.88" y="-96.45" font-family="Helvetica,sans-Serif" font-weight="bold" font-size="9.00">src</text>
</g>
<!-- src/App.vue -->
<g id="node1" class="node">
<title>src/App.vue</title>
<g id="a_node1"><a xlink:href="src/App.vue" xlink:title="App.vue">
<path fill="#41f083" stroke="black" d="M130.58,-35.62C130.58,-35.62 89.42,-35.62 89.42,-35.62 86.21,-35.62 83,-32.42 83,-29.21 83,-29.21 83,-22.79 83,-22.79 83,-19.58 86.21,-16.38 89.42,-16.38 89.42,-16.38 130.58,-16.38 130.58,-16.38 133.79,-16.38 137,-19.58 137,-22.79 137,-22.79 137,-29.21 137,-29.21 137,-32.42 133.79,-35.62 130.58,-35.62"/>
<text text-anchor="start" x="93.88" y="-23.07" font-family="Helvetica,sans-Serif" font-size="9.00">App.vue</text>
</a>
</g>
</g>
<!-- src/components -->
<g id="node2" class="node">
<title>src/components</title>
<g id="a_node2"><a xlink:href="src/components" xlink:title="components">
<polygon fill="#ffffcc" stroke="black" points="284.75,-35.62 219.14,-35.62 217,-33.49 217,-16.38 282.61,-16.38 284.75,-18.51 284.75,-35.62"/>
<polyline fill="none" stroke="black" points="282.61,-33.49 217,-33.49"/>
<polyline fill="none" stroke="black" points="282.61,-33.49 282.61,-16.38"/>
<polyline fill="none" stroke="black" points="282.61,-33.49 284.75,-35.62"/>
<text text-anchor="start" x="225" y="-23.07" font-family="Helvetica,sans-Serif" font-size="9.00">components</text>
</a>
</g>
</g>
<!-- src/App.vue&#45;&gt;src/components -->
<g id="edge1" class="edge">
<title>src/App.vue&#45;&gt;src/components</title>
<path fill="none" stroke="#000000" stroke-width="2" stroke-opacity="0.200000" d="M137.43,-24.46C141.63,-24.27 145.93,-24.1 150,-24 173.99,-23.39 180.01,-23.48 204,-24 205.3,-24.03 206.61,-24.06 207.94,-24.1"/>
<polygon fill="#000000" fill-opacity="0.200000" stroke="#000000" stroke-width="2" stroke-opacity="0.200000" points="207.71,-26.19 213.78,-24.29 207.85,-21.99 207.71,-26.19"/>
</g>
<!-- src/views -->
<g id="node3" class="node">
<title>src/views</title>
<g id="a_node3"><a xlink:href="src/views" xlink:title="views">
<polygon fill="#ffffcc" stroke="black" points="204,-49.62 152.14,-49.62 150,-47.49 150,-30.38 201.86,-30.38 204,-32.51 204,-49.62"/>
<polyline fill="none" stroke="black" points="201.86,-47.49 150,-47.49"/>
<polyline fill="none" stroke="black" points="201.86,-47.49 201.86,-30.38"/>
<polyline fill="none" stroke="black" points="201.86,-47.49 204,-49.62"/>
<text text-anchor="start" x="165.38" y="-37.08" font-family="Helvetica,sans-Serif" font-size="9.00">views</text>
</a>
</g>
</g>
<!-- src/App.vue&#45;&gt;src/views -->
<g id="edge2" class="edge">
<title>src/App.vue&#45;&gt;src/views</title>
<path fill="none" stroke="#000000" stroke-width="2" stroke-opacity="0.200000" d="M137.44,-31.69C138.71,-31.97 140,-32.25 141.29,-32.52"/>
<polygon fill="#000000" fill-opacity="0.200000" stroke="#000000" stroke-width="2" stroke-opacity="0.200000" points="140.53,-34.51 146.84,-33.72 141.41,-30.4 140.53,-34.51"/>
</g>
<!-- src/application -->
<g id="node4" class="node">
<title>src/application</title>
<g id="a_node4"><a xlink:href="src/application" xlink:title="application">
<polygon fill="#ffffcc" stroke="black" points="425.75,-49.62 366.89,-49.62 364.75,-47.49 364.75,-30.38 423.61,-30.38 425.75,-32.51 425.75,-49.62"/>
<polyline fill="none" stroke="black" points="423.61,-47.49 364.75,-47.49"/>
<polyline fill="none" stroke="black" points="423.61,-47.49 423.61,-30.38"/>
<polyline fill="none" stroke="black" points="423.61,-47.49 425.75,-49.62"/>
<text text-anchor="start" x="372.75" y="-37.08" font-family="Helvetica,sans-Serif" font-size="9.00">application</text>
</a>
</g>
</g>
<!-- src/components&#45;&gt;src/application -->
<g id="edge5" class="edge">
<title>src/components&#45;&gt;src/application</title>
<path fill="none" stroke="#000000" stroke-width="2" stroke-opacity="0.200000" d="M284.98,-22.05C304.55,-20.53 329.74,-19.99 351.75,-24 355.7,-24.72 359.75,-25.78 363.72,-27.03"/>
<polygon fill="#000000" fill-opacity="0.200000" stroke="#000000" stroke-width="2" stroke-opacity="0.200000" points="362.97,-28.99 369.32,-28.98 364.35,-25.02 362.97,-28.99"/>
</g>
<!-- src/stores -->
<g id="node7" class="node">
<title>src/stores</title>
<g id="a_node7"><a xlink:href="src/stores" xlink:title="stores">
<polygon fill="#ffffcc" stroke="black" points="351.75,-49.62 299.89,-49.62 297.75,-47.49 297.75,-30.38 349.61,-30.38 351.75,-32.51 351.75,-49.62"/>
<polyline fill="none" stroke="black" points="349.61,-47.49 297.75,-47.49"/>
<polyline fill="none" stroke="black" points="349.61,-47.49 349.61,-30.38"/>
<polyline fill="none" stroke="black" points="349.61,-47.49 351.75,-49.62"/>
<text text-anchor="start" x="311.62" y="-37.08" font-family="Helvetica,sans-Serif" font-size="9.00">stores</text>
</a>
</g>
</g>
<!-- src/components&#45;&gt;src/stores -->
<g id="edge4" class="edge">
<title>src/components&#45;&gt;src/stores</title>
<path fill="none" stroke="#000000" stroke-width="2" stroke-opacity="0.200000" d="M284.87,-32.43C286.21,-32.69 287.55,-32.95 288.89,-33.21"/>
<polygon fill="#000000" fill-opacity="0.200000" stroke="#000000" stroke-width="2" stroke-opacity="0.200000" points="288.37,-35.25 294.66,-34.33 289.17,-31.13 288.37,-35.25"/>
</g>
<!-- src/views&#45;&gt;src/components -->
<g id="edge11" class="edge">
<title>src/views&#45;&gt;src/components</title>
<path fill="none" stroke="#000000" stroke-width="2" stroke-opacity="0.200000" d="M204.36,-34.87C205.61,-34.62 206.88,-34.38 208.16,-34.13"/>
<polygon fill="#000000" fill-opacity="0.200000" stroke="#000000" stroke-width="2" stroke-opacity="0.200000" points="208.21,-36.26 213.7,-33.05 207.41,-32.13 208.21,-36.26"/>
</g>
<!-- src/views&#45;&gt;src/stores -->
<g id="edge12" class="edge">
<title>src/views&#45;&gt;src/stores</title>
<path fill="none" stroke="#000000" stroke-width="2" stroke-opacity="0.200000" d="M204.43,-41.54C208.63,-41.73 212.93,-41.9 217,-42 247.1,-42.77 254.65,-42.77 284.75,-42 286.02,-41.97 287.31,-41.93 288.62,-41.89"/>
<polygon fill="#000000" fill-opacity="0.200000" stroke="#000000" stroke-width="2" stroke-opacity="0.200000" points="288.39,-44 294.3,-41.66 288.22,-39.8 288.39,-44"/>
</g>
<!-- src/infrastructure -->
<g id="node5" class="node">
<title>src/infrastructure</title>
<g id="a_node5"><a xlink:href="src/infrastructure" xlink:title="infrastructure">
<polygon fill="#ffffcc" stroke="black" points="508.75,-49.62 440.89,-49.62 438.75,-47.49 438.75,-30.38 506.61,-30.38 508.75,-32.51 508.75,-49.62"/>
<polyline fill="none" stroke="black" points="506.61,-47.49 438.75,-47.49"/>
<polyline fill="none" stroke="black" points="506.61,-47.49 506.61,-30.38"/>
<polyline fill="none" stroke="black" points="506.61,-47.49 508.75,-49.62"/>
<text text-anchor="start" x="446.75" y="-37.08" font-family="Helvetica,sans-Serif" font-size="9.00">infrastructure</text>
</a>
</g>
</g>
<!-- src/application&#45;&gt;src/infrastructure -->
<g id="edge3" class="edge">
<title>src/application&#45;&gt;src/infrastructure</title>
<path fill="none" stroke="#000000" stroke-width="2" stroke-opacity="0.200000" d="M426.05,-40C427.18,-40 428.32,-40 429.47,-40"/>
<polygon fill="#000000" fill-opacity="0.200000" stroke="#000000" stroke-width="2" stroke-opacity="0.200000" points="429.31,-42.1 435.31,-40 429.31,-37.9 429.31,-42.1"/>
</g>
<!-- src/domain -->
<g id="node8" class="node">
<title>src/domain</title>
<g id="a_node8"><a xlink:href="src/domain" xlink:title="domain">
<polygon fill="#ffffcc" stroke="black" points="575.75,-49.62 523.89,-49.62 521.75,-47.49 521.75,-30.38 573.61,-30.38 575.75,-32.51 575.75,-49.62"/>
<polyline fill="none" stroke="black" points="573.61,-47.49 521.75,-47.49"/>
<polyline fill="none" stroke="black" points="573.61,-47.49 573.61,-30.38"/>
<polyline fill="none" stroke="black" points="573.61,-47.49 575.75,-49.62"/>
<text text-anchor="start" x="533" y="-37.08" font-family="Helvetica,sans-Serif" font-size="9.00">domain</text>
</a>
</g>
</g>
<!-- src/infrastructure&#45;&gt;src/domain -->
<g id="edge6" class="edge">
<title>src/infrastructure&#45;&gt;src/domain</title>
<path fill="none" stroke="#000000" stroke-width="2" stroke-opacity="0.200000" d="M509.11,-40C510.28,-40 511.45,-40 512.61,-40"/>
<polygon fill="#000000" fill-opacity="0.200000" stroke="#000000" stroke-width="2" stroke-opacity="0.200000" points="512.41,-42.1 518.41,-40 512.41,-37.9 512.41,-42.1"/>
</g>
<!-- src/assets -->
<g id="node6" class="node">
<title>src/assets</title>
<g id="a_node6"><a xlink:href="src/assets" xlink:title="no&#45;orphans">
<polygon fill="#ffffcc" stroke="orange" points="137,-81.62 85.14,-81.62 83,-79.49 83,-62.38 134.86,-62.38 137,-64.51 137,-81.62"/>
<polyline fill="none" stroke="orange" points="134.86,-79.49 83,-79.49"/>
<polyline fill="none" stroke="orange" points="134.86,-79.49 134.86,-62.38"/>
<polyline fill="none" stroke="orange" points="134.86,-79.49 137,-81.62"/>
<text text-anchor="start" x="95.75" y="-69.08" font-family="Helvetica,sans-Serif" font-size="9.00" fill="orange">assets</text>
</a>
</g>
</g>
<!-- src/stores&#45;&gt;src/application -->
<g id="edge10" class="edge">
<title>src/stores&#45;&gt;src/application</title>
<path fill="none" stroke="#000000" stroke-width="2" stroke-opacity="0.200000" d="M352.04,-40C353.18,-40 354.34,-40 355.51,-40"/>
<polygon fill="#000000" fill-opacity="0.200000" stroke="#000000" stroke-width="2" stroke-opacity="0.200000" points="355.46,-42.1 361.46,-40 355.46,-37.9 355.46,-42.1"/>
</g>
<!-- src/main.ts -->
<g id="node9" class="node">
<title>src/main.ts</title>
<g id="a_node9"><a xlink:href="src/main.ts" xlink:title="main.ts">
<path fill="#ddfeff" stroke="black" d="M63.58,-58.62C63.58,-58.62 22.42,-58.62 22.42,-58.62 19.21,-58.62 16,-55.42 16,-52.21 16,-52.21 16,-45.79 16,-45.79 16,-42.58 19.21,-39.38 22.42,-39.38 22.42,-39.38 63.58,-39.38 63.58,-39.38 66.79,-39.38 70,-42.58 70,-45.79 70,-45.79 70,-52.21 70,-52.21 70,-55.42 66.79,-58.62 63.58,-58.62"/>
<text text-anchor="start" x="27.62" y="-46.08" font-family="Helvetica,sans-Serif" font-size="9.00">main.ts</text>
</a>
</g>
</g>
<!-- src/main.ts&#45;&gt;src/App.vue -->
<g id="edge7" class="edge">
<title>src/main.ts&#45;&gt;src/App.vue</title>
<path fill="none" stroke="#000000" stroke-width="2" stroke-opacity="0.200000" d="M70.44,-39.65C71.71,-39.19 73,-38.74 74.29,-38.28"/>
<polygon fill="#000000" fill-opacity="0.200000" stroke="#000000" stroke-width="2" stroke-opacity="0.200000" points="74.99,-40.26 79.94,-36.28 73.59,-36.3 74.99,-40.26"/>
</g>
<!-- src/main.ts&#45;&gt;src/application -->
<g id="edge9" class="edge">
<title>src/main.ts&#45;&gt;src/application</title>
<path fill="none" stroke="#000000" stroke-width="2" stroke-opacity="0.200000" d="M70.11,-51.21C91.55,-52.9 122.72,-55.1 150,-56 239.62,-58.96 263.53,-72.06 351.75,-56 355.7,-55.28 359.75,-54.22 363.72,-52.97"/>
<polygon fill="#000000" fill-opacity="0.200000" stroke="#000000" stroke-width="2" stroke-opacity="0.200000" points="364.35,-54.98 369.32,-51.02 362.97,-51.01 364.35,-54.98"/>
</g>
<!-- src/main.ts&#45;&gt;src/assets -->
<g id="edge8" class="edge">
<title>src/main.ts&#45;&gt;src/assets</title>
<path fill="none" stroke="#000000" stroke-width="2" stroke-opacity="0.200000" d="M70.44,-58.35C71.71,-58.81 73,-59.26 74.29,-59.72"/>
<polygon fill="#000000" fill-opacity="0.200000" stroke="#000000" stroke-width="2" stroke-opacity="0.200000" points="73.59,-61.7 79.94,-61.72 74.99,-57.74 73.59,-61.7"/>
</g>
</g>
</svg>
