<?xml version="1.0" encoding="UTF-8" standalone="no"?>
<!DOCTYPE svg PUBLIC "-//W3C//DTD SVG 1.1//EN"
 "http://www.w3.org/Graphics/SVG/1.1/DTD/svg11.dtd">
<!-- Generated by graphviz version 9.0.0 (20230911.1827)
 -->
<!-- Title: dependency&#45;cruiser output Pages: 1 -->
<svg width="600pt" height="135pt"
 viewBox="0.00 0.00 599.75 135.00" xmlns="http://www.w3.org/2000/svg" xmlns:xlink="http://www.w3.org/1999/xlink">
<g id="graph0" class="graph" transform="scale(1 1) rotate(0) translate(4 131)">
<title>dependency&#45;cruiser output</title>
<polygon fill="white" stroke="none" points="-4,4 -4,-131 595.75,-131 595.75,4 -4,4"/>
<g id="clust1" class="cluster">
<title>cluster_src</title>
<path fill="#ffffff" stroke="black" stroke-width="2" d="M20,-8C20,-8 571.75,-8 571.75,-8 577.75,-8 583.75,-14 583.75,-20 583.75,-20 583.75,-107 583.75,-107 583.75,-113 577.75,-119 571.75,-119 571.75,-119 20,-119 20,-119 14,-119 8,-113 8,-107 8,-107 8,-20 8,-20 8,-14 14,-8 20,-8"/>
<text text-anchor="middle" x="295.88" y="-106.45" font-family="Helvetica,sans-Serif" font-weight="bold" font-size="9.00">src</text>
</g>
<!-- src/App.vue -->
<g id="node1" class="node">
<title>src/App.vue</title>
<g id="a_node1"><a xlink:href="src/App.vue" xlink:title="App.vue">
<path fill="#41f083" stroke="black" d="M130.58,-51.62C130.58,-51.62 89.42,-51.62 89.42,-51.62 86.21,-51.62 83,-48.42 83,-45.21 83,-45.21 83,-38.79 83,-38.79 83,-35.58 86.21,-32.38 89.42,-32.38 89.42,-32.38 130.58,-32.38 130.58,-32.38 133.79,-32.38 137,-35.58 137,-38.79 137,-38.79 137,-45.21 137,-45.21 137,-48.42 133.79,-51.62 130.58,-51.62"/>
<text text-anchor="start" x="93.88" y="-39.08" font-family="Helvetica,sans-Serif" font-size="9.00">App.vue</text>
</a>
</g>
</g>
<!-- src/components -->
<g id="node2" class="node">
<title>src/components</title>
<g id="a_node2"><a xlink:href="src/components" xlink:title="components">
<polygon fill="#ffffcc" stroke="black" points="284.75,-40.62 219.14,-40.62 217,-38.49 217,-21.38 282.61,-21.38 284.75,-23.51 284.75,-40.62"/>
<polyline fill="none" stroke="black" points="282.61,-38.49 217,-38.49"/>
<polyline fill="none" stroke="black" points="282.61,-38.49 282.61,-21.38"/>
<polyline fill="none" stroke="black" points="282.61,-38.49 284.75,-40.62"/>
<text text-anchor="start" x="225" y="-28.07" font-family="Helvetica,sans-Serif" font-size="9.00">components</text>
</a>
</g>
</g>
<!-- src/App.vue&#45;&gt;src/components -->
<g id="edge1" class="edge">
<title>src/App.vue&#45;&gt;src/components</title>
<path fill="none" stroke="#000000" stroke-width="2" stroke-opacity="0.200000" d="M137.42,-39.17C141.63,-38.76 145.93,-38.35 150,-38 168.88,-36.37 189.78,-34.86 207.57,-33.66"/>
<polygon fill="#000000" fill-opacity="0.200000" stroke="#000000" stroke-width="2" stroke-opacity="0.200000" points="207.69,-35.76 213.54,-33.27 207.42,-31.57 207.69,-35.76"/>
</g>
<!-- src/views -->
<g id="node3" class="node">
<title>src/views</title>
<g id="a_node3"><a xlink:href="src/views" xlink:title="views">
<polygon fill="#ffffcc" stroke="black" points="204,-63.62 152.14,-63.62 150,-61.49 150,-44.38 201.86,-44.38 204,-46.51 204,-63.62"/>
<polyline fill="none" stroke="black" points="201.86,-61.49 150,-61.49"/>
<polyline fill="none" stroke="black" points="201.86,-61.49 201.86,-44.38"/>
<polyline fill="none" stroke="black" points="201.86,-61.49 204,-63.62"/>
<text text-anchor="start" x="165.38" y="-51.08" font-family="Helvetica,sans-Serif" font-size="9.00">views</text>
</a>
</g>
</g>
<!-- src/App.vue&#45;&gt;src/views -->
<g id="edge2" class="edge">
<title>src/App.vue&#45;&gt;src/views</title>
<path fill="none" stroke="#000000" stroke-width="2" stroke-opacity="0.200000" d="M137.44,-46.88C138.71,-47.12 140,-47.35 141.29,-47.59"/>
<polygon fill="#000000" fill-opacity="0.200000" stroke="#000000" stroke-width="2" stroke-opacity="0.200000" points="140.54,-49.59 146.82,-48.61 141.3,-45.46 140.54,-49.59"/>
</g>
<!-- src/domain -->
<g id="node5" class="node">
<title>src/domain</title>
<g id="a_node5"><a xlink:href="src/domain" xlink:title="domain">
<polygon fill="#ffffcc" stroke="black" points="575.75,-65.62 523.89,-65.62 521.75,-63.49 521.75,-46.38 573.61,-46.38 575.75,-48.51 575.75,-65.62"/>
<polyline fill="none" stroke="black" points="573.61,-63.49 521.75,-63.49"/>
<polyline fill="none" stroke="black" points="573.61,-63.49 573.61,-46.38"/>
<polyline fill="none" stroke="black" points="573.61,-63.49 575.75,-65.62"/>
<text text-anchor="start" x="533" y="-53.08" font-family="Helvetica,sans-Serif" font-size="9.00">domain</text>
</a>
</g>
</g>
<!-- src/components&#45;&gt;src/domain -->
<g id="edge7" class="edge">
<title>src/components&#45;&gt;src/domain</title>
<path fill="none" stroke="#000000" stroke-opacity="0.200000" d="M284.85,-24.46C334.66,-15.96 431.49,-4.86 508.75,-29 516.93,-31.56 524.91,-36.5 531.5,-41.47"/>
<polygon fill="none" stroke="#000000" stroke-opacity="0.200000" points="529.94,-42.91 535.94,-45.02 532.57,-39.63 529.94,-42.91"/>
</g>
<!-- src/infrastructure -->
<g id="node6" class="node">
<title>src/infrastructure</title>
<g id="a_node6"><a xlink:href="src/infrastructure" xlink:title="infrastructure">
<polygon fill="#ffffcc" stroke="black" points="508.75,-54.62 440.89,-54.62 438.75,-52.49 438.75,-35.38 506.61,-35.38 508.75,-37.51 508.75,-54.62"/>
<polyline fill="none" stroke="black" points="506.61,-52.49 438.75,-52.49"/>
<polyline fill="none" stroke="black" points="506.61,-52.49 506.61,-35.38"/>
<polyline fill="none" stroke="black" points="506.61,-52.49 508.75,-54.62"/>
<text text-anchor="start" x="446.75" y="-42.08" font-family="Helvetica,sans-Serif" font-size="9.00">infrastructure</text>
</a>
</g>
</g>
<!-- src/components&#45;&gt;src/infrastructure -->
<g id="edge6" class="edge">
<title>src/components&#45;&gt;src/infrastructure</title>
<path fill="none" stroke="#000000" stroke-width="2" stroke-opacity="0.200000" d="M284.94,-33.1C323.4,-35.53 387.01,-39.57 429.4,-42.25"/>
<polygon fill="#000000" fill-opacity="0.200000" stroke="#000000" stroke-width="2" stroke-opacity="0.200000" points="429.22,-44.35 435.34,-42.63 429.49,-40.15 429.22,-44.35"/>
</g>
<!-- src/stores -->
<g id="node7" class="node">
<title>src/stores</title>
<g id="a_node7"><a xlink:href="src/stores" xlink:title="stores">
<polygon fill="#ffffcc" stroke="black" points="351.75,-63.62 299.89,-63.62 297.75,-61.49 297.75,-44.38 349.61,-44.38 351.75,-46.51 351.75,-63.62"/>
<polyline fill="none" stroke="black" points="349.61,-61.49 297.75,-61.49"/>
<polyline fill="none" stroke="black" points="349.61,-61.49 349.61,-44.38"/>
<polyline fill="none" stroke="black" points="349.61,-61.49 351.75,-63.62"/>
<text text-anchor="start" x="311.62" y="-51.08" font-family="Helvetica,sans-Serif" font-size="9.00">stores</text>
</a>
</g>
</g>
<!-- src/components&#45;&gt;src/stores -->
<g id="edge5" class="edge">
<title>src/components&#45;&gt;src/stores</title>
<path fill="none" stroke="#000000" stroke-width="2" stroke-opacity="0.200000" d="M283.19,-41.02C285.1,-41.63 287.02,-42.25 288.94,-42.86"/>
<polygon fill="#000000" fill-opacity="0.200000" stroke="#000000" stroke-width="2" stroke-opacity="0.200000" points="288.02,-44.77 294.37,-44.6 289.3,-40.77 288.02,-44.77"/>
</g>
<!-- src/views&#45;&gt;src/components -->
<g id="edge13" class="edge">
<title>src/views&#45;&gt;src/components</title>
<path fill="none" stroke="#000000" stroke-width="2" stroke-opacity="0.200000" d="M204.36,-45.57C206.24,-44.96 208.17,-44.35 210.11,-43.72"/>
<polygon fill="#000000" fill-opacity="0.200000" stroke="#000000" stroke-width="2" stroke-opacity="0.200000" points="210.69,-45.74 215.76,-41.92 209.41,-41.74 210.69,-45.74"/>
</g>
<!-- src/views&#45;&gt;src/stores -->
<g id="edge14" class="edge">
<title>src/views&#45;&gt;src/stores</title>
<path fill="none" stroke="#000000" stroke-width="2" stroke-opacity="0.200000" d="M204.39,-54C228.02,-54 262.84,-54 288.78,-54"/>
<polygon fill="#000000" fill-opacity="0.200000" stroke="#000000" stroke-width="2" stroke-opacity="0.200000" points="288.53,-56.1 294.53,-54 288.53,-51.9 288.53,-56.1"/>
</g>
<!-- src/application -->
<g id="node4" class="node">
<title>src/application</title>
<g id="a_node4"><a xlink:href="src/application" xlink:title="application">
<polygon fill="#ffffcc" stroke="black" points="425.75,-77.62 366.89,-77.62 364.75,-75.49 364.75,-58.38 423.61,-58.38 425.75,-60.51 425.75,-77.62"/>
<polyline fill="none" stroke="black" points="423.61,-75.49 364.75,-75.49"/>
<polyline fill="none" stroke="black" points="423.61,-75.49 423.61,-58.38"/>
<polyline fill="none" stroke="black" points="423.61,-75.49 425.75,-77.62"/>
<text text-anchor="start" x="372.75" y="-65.08" font-family="Helvetica,sans-Serif" font-size="9.00">application</text>
</a>
</g>
</g>
<!-- src/application&#45;&gt;src/domain -->
<g id="edge3" class="edge">
<title>src/application&#45;&gt;src/domain</title>
<path fill="none" stroke="#000000" stroke-opacity="0.200000" d="M425.9,-66.68C448.61,-65.55 480.7,-63.67 508.75,-61 510.53,-60.83 512.36,-60.64 514.21,-60.44"/>
<polygon fill="none" stroke="#000000" stroke-opacity="0.200000" points="514.12,-62.57 519.84,-59.8 513.64,-58.39 514.12,-62.57"/>
</g>
<!-- src/application&#45;&gt;src/infrastructure -->
<g id="edge4" class="edge">
<title>src/application&#45;&gt;src/infrastructure</title>
<path fill="none" stroke="#000000" stroke-width="2" stroke-opacity="0.200000" d="M426.05,-59.04C427.52,-58.6 429.01,-58.15 430.5,-57.7"/>
<polygon fill="#000000" fill-opacity="0.200000" stroke="#000000" stroke-width="2" stroke-opacity="0.200000" points="431.06,-59.73 436.2,-55.99 429.85,-55.7 431.06,-59.73"/>
</g>
<!-- src/infrastructure&#45;&gt;src/domain -->
<g id="edge8" class="edge">
<title>src/infrastructure&#45;&gt;src/domain</title>
<path fill="none" stroke="#000000" stroke-width="2" stroke-opacity="0.200000" d="M509.11,-50.18C510.28,-50.35 511.45,-50.53 512.61,-50.71"/>
<polygon fill="#000000" fill-opacity="0.200000" stroke="#000000" stroke-width="2" stroke-opacity="0.200000" points="512.19,-52.77 518.44,-51.58 512.82,-48.61 512.19,-52.77"/>
</g>
<!-- src/stores&#45;&gt;src/application -->
<g id="edge10" class="edge">
<title>src/stores&#45;&gt;src/application</title>
<path fill="none" stroke="#000000" stroke-width="2" stroke-opacity="0.200000" d="M352.04,-59.37C353.31,-59.63 354.6,-59.9 355.9,-60.16"/>
<polygon fill="#000000" fill-opacity="0.200000" stroke="#000000" stroke-width="2" stroke-opacity="0.200000" points="355.23,-62.17 361.53,-61.31 356.07,-58.05 355.23,-62.17"/>
</g>
<!-- src/stores&#45;&gt;src/domain -->
<g id="edge11" class="edge">
<title>src/stores&#45;&gt;src/domain</title>
<path fill="none" stroke="#000000" stroke-opacity="0.200000" d="M334.93,-63.93C342.22,-71.04 353.1,-80.04 364.75,-84 417.1,-101.8 481.73,-83.04 518.5,-68.81"/>
<polygon fill="none" stroke="#000000" stroke-opacity="0.200000" points="519.26,-70.76 524.06,-66.59 517.71,-66.86 519.26,-70.76"/>
</g>
<!-- src/stores&#45;&gt;src/infrastructure -->
<g id="edge12" class="edge">
<title>src/stores&#45;&gt;src/infrastructure</title>
<path fill="none" stroke="#000000" stroke-width="2" stroke-opacity="0.200000" d="M352.03,-52.39C373.51,-51.08 404.31,-49.19 429.43,-47.65"/>
<polygon fill="#000000" fill-opacity="0.200000" stroke="#000000" stroke-width="2" stroke-opacity="0.200000" points="429.51,-49.75 435.37,-47.29 429.26,-45.56 429.51,-49.75"/>
</g>
<!-- src/main.ts -->
<g id="node8" class="node">
<title>src/main.ts</title>
<g id="a_node8"><a xlink:href="src/main.ts" xlink:title="main.ts">
<path fill="#ddfeff" stroke="black" d="M63.58,-51.62C63.58,-51.62 22.42,-51.62 22.42,-51.62 19.21,-51.62 16,-48.42 16,-45.21 16,-45.21 16,-38.79 16,-38.79 16,-35.58 19.21,-32.38 22.42,-32.38 22.42,-32.38 63.58,-32.38 63.58,-32.38 66.79,-32.38 70,-35.58 70,-38.79 70,-38.79 70,-45.21 70,-45.21 70,-48.42 66.79,-51.62 63.58,-51.62"/>
<text text-anchor="start" x="27.62" y="-39.08" font-family="Helvetica,sans-Serif" font-size="9.00">main.ts</text>
</a>
</g>
</g>
<!-- src/main.ts&#45;&gt;src/App.vue -->
<g id="edge9" class="edge">
<title>src/main.ts&#45;&gt;src/App.vue</title>
<path fill="none" stroke="#000000" stroke-width="2" stroke-opacity="0.200000" d="M70.44,-42C71.58,-42 72.74,-42 73.9,-42"/>
<polygon fill="#000000" fill-opacity="0.200000" stroke="#000000" stroke-width="2" stroke-opacity="0.200000" points="73.77,-44.1 79.77,-42 73.77,-39.9 73.77,-44.1"/>
</g>
</g>
</svg>
