<?xml version="1.0" encoding="UTF-8" standalone="no"?>
<!DOCTYPE svg PUBLIC "-//W3C//DTD SVG 1.1//EN"
 "http://www.w3.org/Graphics/SVG/1.1/DTD/svg11.dtd">
<!-- Generated by graphviz version 9.0.0 (20230911.1827)
 -->
<!-- Title: dependency&#45;cruiser output Pages: 1 -->
<svg width="443pt" height="124pt"
 viewBox="0.00 0.00 442.75 124.00" xmlns="http://www.w3.org/2000/svg" xmlns:xlink="http://www.w3.org/1999/xlink">
<g id="graph0" class="graph" transform="scale(1 1) rotate(0) translate(4 120)">
<title>dependency&#45;cruiser output</title>
<polygon fill="white" stroke="none" points="-4,4 -4,-120 438.75,-120 438.75,4 -4,4"/>
<g id="clust1" class="cluster">
<title>cluster_src</title>
<path fill="#ffffff" stroke="black" stroke-width="2" d="M20,-8C20,-8 414.75,-8 414.75,-8 420.75,-8 426.75,-14 426.75,-20 426.75,-20 426.75,-96 426.75,-96 426.75,-102 420.75,-108 414.75,-108 414.75,-108 20,-108 20,-108 14,-108 8,-102 8,-96 8,-96 8,-20 8,-20 8,-14 14,-8 20,-8"/>
<text text-anchor="middle" x="217.38" y="-95.45" font-family="Helvetica,sans-Serif" font-weight="bold" font-size="9.00">src</text>
</g>
<!-- src/App.vue -->
<g id="node1" class="node">
<title>src/App.vue</title>
<g id="a_node1"><a xlink:href="src/App.vue" xlink:title="App.vue">
<path fill="#41f083" stroke="black" d="M130.58,-35.62C130.58,-35.62 89.42,-35.62 89.42,-35.62 86.21,-35.62 83,-32.42 83,-29.21 83,-29.21 83,-22.79 83,-22.79 83,-19.58 86.21,-16.38 89.42,-16.38 89.42,-16.38 130.58,-16.38 130.58,-16.38 133.79,-16.38 137,-19.58 137,-22.79 137,-22.79 137,-29.21 137,-29.21 137,-32.42 133.79,-35.62 130.58,-35.62"/>
<text text-anchor="start" x="93.88" y="-23.07" font-family="Helvetica,sans-Serif" font-size="9.00">App.vue</text>
</a>
</g>
</g>
<!-- src/components -->
<g id="node2" class="node">
<title>src/components</title>
<g id="a_node2"><a xlink:href="src/components" xlink:title="components">
<polygon fill="#ffffcc" stroke="black" points="284.75,-58.62 219.14,-58.62 217,-56.49 217,-39.38 282.61,-39.38 284.75,-41.51 284.75,-58.62"/>
<polyline fill="none" stroke="black" points="282.61,-56.49 217,-56.49"/>
<polyline fill="none" stroke="black" points="282.61,-56.49 282.61,-39.38"/>
<polyline fill="none" stroke="black" points="282.61,-56.49 284.75,-58.62"/>
<text text-anchor="start" x="225" y="-46.08" font-family="Helvetica,sans-Serif" font-size="9.00">components</text>
</a>
</g>
</g>
<!-- src/App.vue&#45;&gt;src/components -->
<g id="edge1" class="edge">
<title>src/App.vue&#45;&gt;src/components</title>
<path fill="none" stroke="#000000" stroke-width="2" stroke-opacity="0.200000" d="M132.05,-36.07C137.76,-38.4 144.01,-40.6 150,-42 168.76,-46.39 190.01,-48.29 208.06,-49.03"/>
<polygon fill="#000000" fill-opacity="0.200000" stroke="#000000" stroke-width="2" stroke-opacity="0.200000" points="207.55,-51.12 213.62,-49.21 207.69,-46.92 207.55,-51.12"/>
</g>
<!-- src/views -->
<g id="node3" class="node">
<title>src/views</title>
<g id="a_node3"><a xlink:href="src/views" xlink:title="views">
<polygon fill="#ffffcc" stroke="black" points="204,-35.62 152.14,-35.62 150,-33.49 150,-16.38 201.86,-16.38 204,-18.51 204,-35.62"/>
<polyline fill="none" stroke="black" points="201.86,-33.49 150,-33.49"/>
<polyline fill="none" stroke="black" points="201.86,-33.49 201.86,-16.38"/>
<polyline fill="none" stroke="black" points="201.86,-33.49 204,-35.62"/>
<text text-anchor="start" x="165.38" y="-23.07" font-family="Helvetica,sans-Serif" font-size="9.00">views</text>
</a>
</g>
</g>
<!-- src/App.vue&#45;&gt;src/views -->
<g id="edge2" class="edge">
<title>src/App.vue&#45;&gt;src/views</title>
<path fill="none" stroke="#000000" stroke-width="2" stroke-opacity="0.200000" d="M137.44,-26C138.58,-26 139.74,-26 140.9,-26"/>
<polygon fill="#000000" fill-opacity="0.200000" stroke="#000000" stroke-width="2" stroke-opacity="0.200000" points="140.77,-28.1 146.77,-26 140.77,-23.9 140.77,-28.1"/>
</g>
<!-- src/stores -->
<g id="node5" class="node">
<title>src/stores</title>
<g id="a_node5"><a xlink:href="src/stores" xlink:title="stores">
<polygon fill="#ffffcc" stroke="black" points="351.75,-35.62 299.89,-35.62 297.75,-33.49 297.75,-16.38 349.61,-16.38 351.75,-18.51 351.75,-35.62"/>
<polyline fill="none" stroke="black" points="349.61,-33.49 297.75,-33.49"/>
<polyline fill="none" stroke="black" points="349.61,-33.49 349.61,-16.38"/>
<polyline fill="none" stroke="black" points="349.61,-33.49 351.75,-35.62"/>
<text text-anchor="start" x="311.62" y="-23.07" font-family="Helvetica,sans-Serif" font-size="9.00">stores</text>
</a>
</g>
</g>
<!-- src/components&#45;&gt;src/stores -->
<g id="edge3" class="edge">
<title>src/components&#45;&gt;src/stores</title>
<path fill="none" stroke="#000000" stroke-width="2" stroke-opacity="0.200000" d="M283.19,-38.98C285.1,-38.37 287.02,-37.75 288.94,-37.14"/>
<polygon fill="#000000" fill-opacity="0.200000" stroke="#000000" stroke-width="2" stroke-opacity="0.200000" points="289.3,-39.23 294.37,-35.4 288.02,-35.23 289.3,-39.23"/>
</g>
<!-- src/services -->
<g id="node6" class="node">
<title>src/services</title>
<g id="a_node6"><a xlink:href="src/services" xlink:title="services">
<polygon fill="#ffffcc" stroke="black" points="418.75,-58.62 366.89,-58.62 364.75,-56.49 364.75,-39.38 416.61,-39.38 418.75,-41.51 418.75,-58.62"/>
<polyline fill="none" stroke="black" points="416.61,-56.49 364.75,-56.49"/>
<polyline fill="none" stroke="black" points="416.61,-56.49 416.61,-39.38"/>
<polyline fill="none" stroke="black" points="416.61,-56.49 418.75,-58.62"/>
<text text-anchor="start" x="374.5" y="-46.08" font-family="Helvetica,sans-Serif" font-size="9.00">services</text>
</a>
</g>
</g>
<!-- src/components&#45;&gt;src/services -->
<g id="edge4" class="edge">
<title>src/components&#45;&gt;src/services</title>
<path fill="none" stroke="#000000" stroke-width="2" stroke-opacity="0.200000" d="M285.14,-49C306.34,-49 333.79,-49 355.39,-49"/>
<polygon fill="#000000" fill-opacity="0.200000" stroke="#000000" stroke-width="2" stroke-opacity="0.200000" points="355.23,-51.1 361.23,-49 355.23,-46.9 355.23,-51.1"/>
</g>
<!-- src/views&#45;&gt;src/components -->
<g id="edge9" class="edge">
<title>src/views&#45;&gt;src/components</title>
<path fill="none" stroke="#000000" stroke-width="2" stroke-opacity="0.200000" d="M204.36,-34.43C206.24,-35.04 208.17,-35.65 210.11,-36.28"/>
<polygon fill="#000000" fill-opacity="0.200000" stroke="#000000" stroke-width="2" stroke-opacity="0.200000" points="209.41,-38.26 215.76,-38.08 210.69,-34.26 209.41,-38.26"/>
</g>
<!-- src/views&#45;&gt;src/stores -->
<g id="edge10" class="edge">
<title>src/views&#45;&gt;src/stores</title>
<path fill="none" stroke="#000000" stroke-width="2" stroke-opacity="0.200000" d="M204.39,-26C228.02,-26 262.84,-26 288.78,-26"/>
<polygon fill="#000000" fill-opacity="0.200000" stroke="#000000" stroke-width="2" stroke-opacity="0.200000" points="288.53,-28.1 294.53,-26 288.53,-23.9 288.53,-28.1"/>
</g>
<!-- src/assets -->
<g id="node4" class="node">
<title>src/assets</title>
<g id="a_node4"><a xlink:href="src/assets" xlink:title="no&#45;orphans">
<polygon fill="#ffffcc" stroke="orange" points="137,-66.62 85.14,-66.62 83,-64.49 83,-47.38 134.86,-47.38 137,-49.51 137,-66.62"/>
<polyline fill="none" stroke="orange" points="134.86,-64.49 83,-64.49"/>
<polyline fill="none" stroke="orange" points="134.86,-64.49 134.86,-47.38"/>
<polyline fill="none" stroke="orange" points="134.86,-64.49 137,-66.62"/>
<text text-anchor="start" x="95.75" y="-54.08" font-family="Helvetica,sans-Serif" font-size="9.00" fill="orange">assets</text>
</a>
</g>
</g>
<!-- src/stores&#45;&gt;src/services -->
<g id="edge8" class="edge">
<title>src/stores&#45;&gt;src/services</title>
<path fill="none" stroke="#000000" stroke-width="2" stroke-opacity="0.200000" d="M352.19,-35.35C353.46,-35.81 354.75,-36.26 356.04,-36.72"/>
<polygon fill="#000000" fill-opacity="0.200000" stroke="#000000" stroke-width="2" stroke-opacity="0.200000" points="355.34,-38.7 361.69,-38.72 356.74,-34.74 355.34,-38.7"/>
</g>
<!-- src/main.ts -->
<g id="node7" class="node">
<title>src/main.ts</title>
<g id="a_node7"><a xlink:href="src/main.ts" xlink:title="main.ts">
<path fill="#ddfeff" stroke="black" d="M63.58,-66.62C63.58,-66.62 22.42,-66.62 22.42,-66.62 19.21,-66.62 16,-63.42 16,-60.21 16,-60.21 16,-53.79 16,-53.79 16,-50.58 19.21,-47.38 22.42,-47.38 22.42,-47.38 63.58,-47.38 63.58,-47.38 66.79,-47.38 70,-50.58 70,-53.79 70,-53.79 70,-60.21 70,-60.21 70,-63.42 66.79,-66.62 63.58,-66.62"/>
<text text-anchor="start" x="27.62" y="-54.08" font-family="Helvetica,sans-Serif" font-size="9.00">main.ts</text>
</a>
</g>
</g>
<!-- src/main.ts&#45;&gt;src/App.vue -->
<g id="edge5" class="edge">
<title>src/main.ts&#45;&gt;src/App.vue</title>
<path fill="none" stroke="#000000" stroke-width="2" stroke-opacity="0.200000" d="M64.92,-47.02C69.8,-44.7 75.07,-42.18 80.21,-39.73"/>
<polygon fill="#000000" fill-opacity="0.200000" stroke="#000000" stroke-width="2" stroke-opacity="0.200000" points="80.87,-41.74 85.38,-37.26 79.06,-37.95 80.87,-41.74"/>
</g>
<!-- src/main.ts&#45;&gt;src/assets -->
<g id="edge6" class="edge">
<title>src/main.ts&#45;&gt;src/assets</title>
<path fill="none" stroke="#000000" stroke-width="2" stroke-opacity="0.200000" d="M70.44,-57C71.58,-57 72.74,-57 73.9,-57"/>
<polygon fill="#000000" fill-opacity="0.200000" stroke="#000000" stroke-width="2" stroke-opacity="0.200000" points="73.77,-59.1 79.77,-57 73.77,-54.9 73.77,-59.1"/>
</g>
<!-- src/main.ts&#45;&gt;src/services -->
<g id="edge7" class="edge">
<title>src/main.ts&#45;&gt;src/services</title>
<path fill="none" stroke="#000000" stroke-width="2" stroke-opacity="0.200000" d="M65.06,-67.05C70.76,-69.38 77.02,-71.59 83,-73 123.34,-82.54 134.55,-80 176,-80 176,-80 176,-80 251.88,-80 287.88,-80 327.89,-69.95 355.69,-61.3"/>
<polygon fill="#000000" fill-opacity="0.200000" stroke="#000000" stroke-width="2" stroke-opacity="0.200000" points="356.3,-63.31 361.38,-59.48 355.02,-59.31 356.3,-63.31"/>
</g>
</g>
</svg>
