<?xml version="1.0" encoding="UTF-8" standalone="no"?>
<!DOCTYPE svg PUBLIC "-//W3C//DTD SVG 1.1//EN"
 "http://www.w3.org/Graphics/SVG/1.1/DTD/svg11.dtd">
<!-- Generated by graphviz version 9.0.0 (20230911.1827)
 -->
<!-- Title: dependency&#45;cruiser output Pages: 1 -->
<svg width="600pt" height="121pt"
 viewBox="0.00 0.00 599.75 121.00" xmlns="http://www.w3.org/2000/svg" xmlns:xlink="http://www.w3.org/1999/xlink">
<g id="graph0" class="graph" transform="scale(1 1) rotate(0) translate(4 117)">
<title>dependency&#45;cruiser output</title>
<polygon fill="white" stroke="none" points="-4,4 -4,-117 595.75,-117 595.75,4 -4,4"/>
<g id="clust1" class="cluster">
<title>cluster_src</title>
<path fill="#ffffff" stroke="black" stroke-width="2" d="M20,-8C20,-8 571.75,-8 571.75,-8 577.75,-8 583.75,-14 583.75,-20 583.75,-20 583.75,-93 583.75,-93 583.75,-99 577.75,-105 571.75,-105 571.75,-105 20,-105 20,-105 14,-105 8,-99 8,-93 8,-93 8,-20 8,-20 8,-14 14,-8 20,-8"/>
<text text-anchor="middle" x="295.88" y="-92.45" font-family="Helvetica,sans-Serif" font-weight="bold" font-size="9.00">src</text>
</g>
<!-- src/App.vue -->
<g id="node1" class="node">
<title>src/App.vue</title>
<g id="a_node1"><a xlink:href="src/App.vue" xlink:title="App.vue">
<path fill="#41f083" stroke="black" d="M130.58,-58.62C130.58,-58.62 89.42,-58.62 89.42,-58.62 86.21,-58.62 83,-55.42 83,-52.21 83,-52.21 83,-45.79 83,-45.79 83,-42.58 86.21,-39.38 89.42,-39.38 89.42,-39.38 130.58,-39.38 130.58,-39.38 133.79,-39.38 137,-42.58 137,-45.79 137,-45.79 137,-52.21 137,-52.21 137,-55.42 133.79,-58.62 130.58,-58.62"/>
<text text-anchor="start" x="93.88" y="-46.08" font-family="Helvetica,sans-Serif" font-size="9.00">App.vue</text>
</a>
</g>
</g>
<!-- src/components -->
<g id="node2" class="node">
<title>src/components</title>
<g id="a_node2"><a xlink:href="src/components" xlink:title="components">
<polygon fill="#ffffcc" stroke="black" points="284.75,-47.62 219.14,-47.62 217,-45.49 217,-28.38 282.61,-28.38 284.75,-30.51 284.75,-47.62"/>
<polyline fill="none" stroke="black" points="282.61,-45.49 217,-45.49"/>
<polyline fill="none" stroke="black" points="282.61,-45.49 282.61,-28.38"/>
<polyline fill="none" stroke="black" points="282.61,-45.49 284.75,-47.62"/>
<text text-anchor="start" x="225" y="-35.08" font-family="Helvetica,sans-Serif" font-size="9.00">components</text>
</a>
</g>
</g>
<!-- src/App.vue&#45;&gt;src/components -->
<g id="edge1" class="edge">
<title>src/App.vue&#45;&gt;src/components</title>
<path fill="none" stroke="#000000" stroke-width="2" stroke-opacity="0.200000" d="M137.42,-46.17C141.63,-45.76 145.93,-45.35 150,-45 168.88,-43.37 189.78,-41.86 207.57,-40.66"/>
<polygon fill="#000000" fill-opacity="0.200000" stroke="#000000" stroke-width="2" stroke-opacity="0.200000" points="207.69,-42.76 213.54,-40.27 207.42,-38.57 207.69,-42.76"/>
</g>
<!-- src/views -->
<g id="node3" class="node">
<title>src/views</title>
<g id="a_node3"><a xlink:href="src/views" xlink:title="views">
<polygon fill="#ffffcc" stroke="black" points="204,-70.62 152.14,-70.62 150,-68.49 150,-51.38 201.86,-51.38 204,-53.51 204,-70.62"/>
<polyline fill="none" stroke="black" points="201.86,-68.49 150,-68.49"/>
<polyline fill="none" stroke="black" points="201.86,-68.49 201.86,-51.38"/>
<polyline fill="none" stroke="black" points="201.86,-68.49 204,-70.62"/>
<text text-anchor="start" x="165.38" y="-58.08" font-family="Helvetica,sans-Serif" font-size="9.00">views</text>
</a>
</g>
</g>
<!-- src/App.vue&#45;&gt;src/views -->
<g id="edge2" class="edge">
<title>src/App.vue&#45;&gt;src/views</title>
<path fill="none" stroke="#000000" stroke-width="2" stroke-opacity="0.200000" d="M137.44,-53.88C138.71,-54.12 140,-54.35 141.29,-54.59"/>
<polygon fill="#000000" fill-opacity="0.200000" stroke="#000000" stroke-width="2" stroke-opacity="0.200000" points="140.54,-56.59 146.82,-55.61 141.3,-52.46 140.54,-56.59"/>
</g>
<!-- src/application -->
<g id="node4" class="node">
<title>src/application</title>
<g id="a_node4"><a xlink:href="src/application" xlink:title="application">
<polygon fill="#ffffcc" stroke="black" points="425.75,-56.62 366.89,-56.62 364.75,-54.49 364.75,-37.38 423.61,-37.38 425.75,-39.51 425.75,-56.62"/>
<polyline fill="none" stroke="black" points="423.61,-54.49 364.75,-54.49"/>
<polyline fill="none" stroke="black" points="423.61,-54.49 423.61,-37.38"/>
<polyline fill="none" stroke="black" points="423.61,-54.49 425.75,-56.62"/>
<text text-anchor="start" x="372.75" y="-44.08" font-family="Helvetica,sans-Serif" font-size="9.00">application</text>
</a>
</g>
</g>
<!-- src/components&#45;&gt;src/application -->
<g id="edge5" class="edge">
<title>src/components&#45;&gt;src/application</title>
<path fill="none" stroke="#000000" stroke-width="2" stroke-opacity="0.200000" d="M284.9,-40.09C305.98,-41.42 333.4,-43.15 355.51,-44.55"/>
<polygon fill="#000000" fill-opacity="0.200000" stroke="#000000" stroke-width="2" stroke-opacity="0.200000" points="355.18,-46.63 361.3,-44.92 355.44,-42.44 355.18,-46.63"/>
</g>
<!-- src/domain -->
<g id="node5" class="node">
<title>src/domain</title>
<g id="a_node5"><a xlink:href="src/domain" xlink:title="no&#45;orphans">
<polygon fill="#ccffcc" stroke="orange" points="575.75,-51.62 523.89,-51.62 521.75,-49.49 521.75,-32.38 573.61,-32.38 575.75,-34.51 575.75,-51.62"/>
<polyline fill="none" stroke="orange" points="573.61,-49.49 521.75,-49.49"/>
<polyline fill="none" stroke="orange" points="573.61,-49.49 573.61,-32.38"/>
<polyline fill="none" stroke="orange" points="573.61,-49.49 575.75,-51.62"/>
<text text-anchor="start" x="533" y="-39.08" font-family="Helvetica,sans-Serif" font-size="9.00" fill="orange">domain</text>
</a>
</g>
</g>
<!-- src/components&#45;&gt;src/domain -->
<g id="edge7" class="edge">
<title>src/components&#45;&gt;src/domain</title>
<path fill="none" stroke="#000000" stroke-opacity="0.200000" d="M284.88,-34.32C333.93,-29.54 428.87,-22.93 508.75,-33 510.56,-33.23 512.41,-33.5 514.27,-33.82"/>
<polygon fill="none" stroke="#000000" stroke-opacity="0.200000" points="513.67,-35.84 519.96,-34.89 514.45,-31.71 513.67,-35.84"/>
</g>
<!-- src/stores -->
<g id="node7" class="node">
<title>src/stores</title>
<g id="a_node7"><a xlink:href="src/stores" xlink:title="stores">
<polygon fill="#ffffcc" stroke="black" points="351.75,-70.62 299.89,-70.62 297.75,-68.49 297.75,-51.38 349.61,-51.38 351.75,-53.51 351.75,-70.62"/>
<polyline fill="none" stroke="black" points="349.61,-68.49 297.75,-68.49"/>
<polyline fill="none" stroke="black" points="349.61,-68.49 349.61,-51.38"/>
<polyline fill="none" stroke="black" points="349.61,-68.49 351.75,-70.62"/>
<text text-anchor="start" x="311.62" y="-58.08" font-family="Helvetica,sans-Serif" font-size="9.00">stores</text>
</a>
</g>
</g>
<!-- src/components&#45;&gt;src/stores -->
<g id="edge6" class="edge">
<title>src/components&#45;&gt;src/stores</title>
<path fill="none" stroke="#000000" stroke-width="2" stroke-opacity="0.200000" d="M283.19,-48.02C285.1,-48.63 287.02,-49.25 288.94,-49.86"/>
<polygon fill="#000000" fill-opacity="0.200000" stroke="#000000" stroke-width="2" stroke-opacity="0.200000" points="288.02,-51.77 294.37,-51.6 289.3,-47.77 288.02,-51.77"/>
</g>
<!-- src/views&#45;&gt;src/components -->
<g id="edge12" class="edge">
<title>src/views&#45;&gt;src/components</title>
<path fill="none" stroke="#000000" stroke-width="2" stroke-opacity="0.200000" d="M204.36,-52.57C206.24,-51.96 208.17,-51.35 210.11,-50.72"/>
<polygon fill="#000000" fill-opacity="0.200000" stroke="#000000" stroke-width="2" stroke-opacity="0.200000" points="210.69,-52.74 215.76,-48.92 209.41,-48.74 210.69,-52.74"/>
</g>
<!-- src/views&#45;&gt;src/stores -->
<g id="edge13" class="edge">
<title>src/views&#45;&gt;src/stores</title>
<path fill="none" stroke="#000000" stroke-width="2" stroke-opacity="0.200000" d="M204.39,-61C228.02,-61 262.84,-61 288.78,-61"/>
<polygon fill="#000000" fill-opacity="0.200000" stroke="#000000" stroke-width="2" stroke-opacity="0.200000" points="288.53,-63.1 294.53,-61 288.53,-58.9 288.53,-63.1"/>
</g>
<!-- src/application&#45;&gt;src/domain -->
<g id="edge3" class="edge">
<title>src/application&#45;&gt;src/domain</title>
<path fill="none" stroke="#000000" stroke-width="2" stroke-opacity="0.200000" d="M425.85,-39.91C430.15,-39.12 434.55,-38.44 438.75,-38 463.47,-35.41 491.49,-36.53 512.93,-38.23"/>
<polygon fill="#000000" fill-opacity="0.200000" stroke="#000000" stroke-width="2" stroke-opacity="0.200000" points="512.52,-40.3 518.68,-38.73 512.88,-36.12 512.52,-40.3"/>
</g>
<!-- src/infrastructure -->
<g id="node6" class="node">
<title>src/infrastructure</title>
<g id="a_node6"><a xlink:href="src/infrastructure" xlink:title="infrastructure">
<polygon fill="#ffffcc" stroke="black" points="508.75,-63.62 440.89,-63.62 438.75,-61.49 438.75,-44.38 506.61,-44.38 508.75,-46.51 508.75,-63.62"/>
<polyline fill="none" stroke="black" points="506.61,-61.49 438.75,-61.49"/>
<polyline fill="none" stroke="black" points="506.61,-61.49 506.61,-44.38"/>
<polyline fill="none" stroke="black" points="506.61,-61.49 508.75,-63.62"/>
<text text-anchor="start" x="446.75" y="-51.08" font-family="Helvetica,sans-Serif" font-size="9.00">infrastructure</text>
</a>
</g>
</g>
<!-- src/application&#45;&gt;src/infrastructure -->
<g id="edge4" class="edge">
<title>src/application&#45;&gt;src/infrastructure</title>
<path fill="none" stroke="#000000" stroke-width="2" stroke-opacity="0.200000" d="M426.05,-49.73C427.18,-49.83 428.32,-49.93 429.47,-50.04"/>
<polygon fill="#000000" fill-opacity="0.200000" stroke="#000000" stroke-width="2" stroke-opacity="0.200000" points="429.15,-52.12 435.32,-50.57 429.53,-47.94 429.15,-52.12"/>
</g>
<!-- src/infrastructure&#45;&gt;src/domain -->
<g id="edge8" class="edge">
<title>src/infrastructure&#45;&gt;src/domain</title>
<path fill="none" stroke="#000000" stroke-width="2" stroke-opacity="0.200000" d="M509.11,-48.35C510.28,-48.16 511.45,-47.97 512.61,-47.78"/>
<polygon fill="#000000" fill-opacity="0.200000" stroke="#000000" stroke-width="2" stroke-opacity="0.200000" points="512.87,-49.86 518.45,-46.82 512.19,-45.72 512.87,-49.86"/>
</g>
<!-- src/stores&#45;&gt;src/application -->
<g id="edge10" class="edge">
<title>src/stores&#45;&gt;src/application</title>
<path fill="none" stroke="#000000" stroke-width="2" stroke-opacity="0.200000" d="M352.04,-55.63C353.31,-55.37 354.6,-55.1 355.9,-54.84"/>
<polygon fill="#000000" fill-opacity="0.200000" stroke="#000000" stroke-width="2" stroke-opacity="0.200000" points="356.07,-56.95 361.53,-53.69 355.23,-52.83 356.07,-56.95"/>
</g>
<!-- src/stores&#45;&gt;src/domain -->
<g id="edge11" class="edge">
<title>src/stores&#45;&gt;src/domain</title>
<path fill="none" stroke="#000000" stroke-opacity="0.200000" d="M351.96,-67.97C388.19,-76.34 455.15,-87.25 508.75,-70 517.13,-67.3 525.24,-62.06 531.87,-56.84"/>
<polygon fill="none" stroke="#000000" stroke-opacity="0.200000" points="533.1,-58.55 536.35,-53.09 530.4,-55.33 533.1,-58.55"/>
</g>
<!-- src/main.ts -->
<g id="node8" class="node">
<title>src/main.ts</title>
<g id="a_node8"><a xlink:href="src/main.ts" xlink:title="main.ts">
<path fill="#ddfeff" stroke="black" d="M63.58,-58.62C63.58,-58.62 22.42,-58.62 22.42,-58.62 19.21,-58.62 16,-55.42 16,-52.21 16,-52.21 16,-45.79 16,-45.79 16,-42.58 19.21,-39.38 22.42,-39.38 22.42,-39.38 63.58,-39.38 63.58,-39.38 66.79,-39.38 70,-42.58 70,-45.79 70,-45.79 70,-52.21 70,-52.21 70,-55.42 66.79,-58.62 63.58,-58.62"/>
<text text-anchor="start" x="27.62" y="-46.08" font-family="Helvetica,sans-Serif" font-size="9.00">main.ts</text>
</a>
</g>
</g>
<!-- src/main.ts&#45;&gt;src/App.vue -->
<g id="edge9" class="edge">
<title>src/main.ts&#45;&gt;src/App.vue</title>
<path fill="none" stroke="#000000" stroke-width="2" stroke-opacity="0.200000" d="M70.44,-49C71.58,-49 72.74,-49 73.9,-49"/>
<polygon fill="#000000" fill-opacity="0.200000" stroke="#000000" stroke-width="2" stroke-opacity="0.200000" points="73.77,-51.1 79.77,-49 73.77,-46.9 73.77,-51.1"/>
</g>
</g>
</svg>
