<?xml version="1.0" encoding="UTF-8" standalone="no"?>
<!DOCTYPE svg PUBLIC "-//W3C//DTD SVG 1.1//EN"
 "http://www.w3.org/Graphics/SVG/1.1/DTD/svg11.dtd">
<!-- Generated by graphviz version 2.43.0 (0)
 -->
<!-- Title: dependency&#45;cruiser output Pages: 1 -->
<svg width="486pt" height="104pt"
 viewBox="0.00 0.00 486.00 104.00" xmlns="http://www.w3.org/2000/svg" xmlns:xlink="http://www.w3.org/1999/xlink">
<g id="graph0" class="graph" transform="scale(1 1) rotate(0) translate(4 100)">
<title>dependency&#45;cruiser output</title>
<polygon fill="white" stroke="transparent" points="-4,4 -4,-100 482,-100 482,4 -4,4"/>
<g id="clust1" class="cluster">
<title>cluster_src</title>
<path fill="#ffffff" stroke="black" stroke-width="2" d="M20,-8C20,-8 458,-8 458,-8 464,-8 470,-14 470,-20 470,-20 470,-76 470,-76 470,-82 464,-88 458,-88 458,-88 20,-88 20,-88 14,-88 8,-82 8,-76 8,-76 8,-20 8,-20 8,-14 14,-8 20,-8"/>
<text text-anchor="middle" x="239" y="-76.8" font-family="Helvetica,sans-Serif" font-weight="bold" font-size="9.00">src</text>
</g>
<!-- src/App.vue -->
<g id="node1" class="node">
<title>src/App.vue</title>
<g id="a_node1"><a xlink:href="src/App.vue" xlink:title="App.vue">
<path fill="#41f083" stroke="black" d="M131,-34C131,-34 89,-34 89,-34 86,-34 83,-31 83,-28 83,-28 83,-22 83,-22 83,-19 86,-16 89,-16 89,-16 131,-16 131,-16 134,-16 137,-19 137,-22 137,-22 137,-28 137,-28 137,-31 134,-34 131,-34"/>
<text text-anchor="start" x="91" y="-22.8" font-family="Helvetica,sans-Serif" font-size="9.00">App.vue</text>
</a>
</g>
</g>
<!-- src/presentation -->
<g id="node2" class="node">
<title>src/presentation</title>
<g id="a_node2"><a xlink:href="src/presentation" xlink:title="presentation">
<polygon fill="#ffffcc" stroke="black" points="224,-34 152,-34 150,-32 150,-16 222,-16 224,-18 224,-34"/>
<polyline fill="none" stroke="black" points="222,-32 150,-32 "/>
<polyline fill="none" stroke="black" points="222,-32 222,-16 "/>
<polyline fill="none" stroke="black" points="222,-32 224,-34 "/>
<text text-anchor="start" x="158" y="-22.8" font-family="Helvetica,sans-Serif" font-size="9.00">presentation</text>
</a>
</g>
</g>
<!-- src/App.vue&#45;&gt;src/presentation -->
<g id="edge1" class="edge">
<title>src/App.vue&#45;&gt;src/presentation</title>
<path fill="none" stroke="#000000" stroke-width="2" stroke-opacity="0.200000" d="M137.23,-25C139.26,-25 141.34,-25 143.43,-25"/>
<polygon fill="#000000" fill-opacity="0.200000" stroke="#000000" stroke-width="2" stroke-opacity="0.200000" points="143.76,-27.1 149.76,-25 143.76,-22.9 143.76,-27.1"/>
</g>
<!-- src/application -->
<g id="node3" class="node">
<title>src/application</title>
<g id="a_node3"><a xlink:href="src/application" xlink:title="application">
<polygon fill="#ffffcc" stroke="black" points="303,-48 239,-48 237,-46 237,-30 301,-30 303,-32 303,-48"/>
<polyline fill="none" stroke="black" points="301,-46 237,-46 "/>
<polyline fill="none" stroke="black" points="301,-46 301,-30 "/>
<polyline fill="none" stroke="black" points="301,-46 303,-48 "/>
<text text-anchor="start" x="245" y="-36.8" font-family="Helvetica,sans-Serif" font-size="9.00">application</text>
</a>
</g>
</g>
<!-- src/presentation&#45;&gt;src/application -->
<g id="edge8" class="edge">
<title>src/presentation&#45;&gt;src/application</title>
<path fill="none" stroke="#000000" stroke-opacity="0.200000" d="M224.24,-31.26C226.34,-31.63 228.46,-31.99 230.58,-32.36"/>
<polygon fill="none" stroke="#000000" stroke-opacity="0.200000" points="230.6,-34.49 236.87,-33.45 231.32,-30.36 230.6,-34.49"/>
</g>
<!-- src/domain -->
<g id="node4" class="node">
<title>src/domain</title>
<g id="a_node4"><a xlink:href="src/domain" xlink:title="domain">
<polygon fill="#ffffcc" stroke="black" points="462,-48 410,-48 408,-46 408,-30 460,-30 462,-32 462,-48"/>
<polyline fill="none" stroke="black" points="460,-46 408,-46 "/>
<polyline fill="none" stroke="black" points="460,-46 460,-30 "/>
<polyline fill="none" stroke="black" points="460,-46 462,-48 "/>
<text text-anchor="start" x="418" y="-36.8" font-family="Helvetica,sans-Serif" font-size="9.00">domain</text>
</a>
</g>
</g>
<!-- src/presentation&#45;&gt;src/domain -->
<g id="edge9" class="edge">
<title>src/presentation&#45;&gt;src/domain</title>
<path fill="none" stroke="#000000" stroke-opacity="0.200000" d="M224.27,-20.75C265.88,-16.81 335.99,-13.04 395,-24 399.61,-24.86 404.39,-26.24 408.94,-27.82"/>
<polygon fill="none" stroke="#000000" stroke-opacity="0.200000" points="408.21,-29.79 414.57,-29.92 409.68,-25.86 408.21,-29.79"/>
</g>
<!-- src/application&#45;&gt;src/domain -->
<g id="edge2" class="edge">
<title>src/application&#45;&gt;src/domain</title>
<path fill="none" stroke="#000000" stroke-opacity="0.200000" d="M293.53,-48.09C300.61,-50.51 308.52,-52.79 316,-54 350.66,-59.62 360.48,-60.41 395,-54 399.61,-53.14 404.39,-51.76 408.94,-50.18"/>
<polygon fill="none" stroke="#000000" stroke-opacity="0.200000" points="409.68,-52.14 414.57,-48.08 408.21,-48.21 409.68,-52.14"/>
</g>
<!-- src/infrastructure -->
<g id="node5" class="node">
<title>src/infrastructure</title>
<g id="a_node5"><a xlink:href="src/infrastructure" xlink:title="infrastructure">
<polygon fill="#ffffcc" stroke="black" points="395,-48 318,-48 316,-46 316,-30 393,-30 395,-32 395,-48"/>
<polyline fill="none" stroke="black" points="393,-46 316,-46 "/>
<polyline fill="none" stroke="black" points="393,-46 393,-30 "/>
<polyline fill="none" stroke="black" points="393,-46 395,-48 "/>
<text text-anchor="start" x="324" y="-36.8" font-family="Helvetica,sans-Serif" font-size="9.00">infrastructure</text>
</a>
</g>
</g>
<!-- src/application&#45;&gt;src/infrastructure -->
<g id="edge3" class="edge">
<title>src/application&#45;&gt;src/infrastructure</title>
<path fill="none" stroke="#000000" stroke-width="2" stroke-opacity="0.200000" d="M303.04,-34.61C305.29,-34.56 307.58,-34.52 309.88,-34.51"/>
<polygon fill="#000000" fill-opacity="0.200000" stroke="#000000" stroke-width="2" stroke-opacity="0.200000" points="309.97,-36.61 315.97,-34.51 309.97,-32.41 309.97,-36.61"/>
</g>
<!-- src/infrastructure&#45;&gt;src/application -->
<g id="edge4" class="edge">
<title>src/infrastructure&#45;&gt;src/application</title>
<path fill="none" stroke="#000000" stroke-opacity="0.200000" d="M315.97,-43.49C313.68,-43.51 311.36,-43.5 309.07,-43.48"/>
<polygon fill="none" stroke="#000000" stroke-opacity="0.200000" points="309.08,-41.38 303.04,-43.39 309.01,-45.58 309.08,-41.38"/>
</g>
<!-- src/infrastructure&#45;&gt;src/domain -->
<g id="edge5" class="edge">
<title>src/infrastructure&#45;&gt;src/domain</title>
<path fill="none" stroke="#000000" stroke-opacity="0.200000" d="M395.25,-39C397.37,-39 399.49,-39 401.58,-39"/>
<polygon fill="none" stroke="#000000" stroke-opacity="0.200000" points="401.76,-41.1 407.76,-39 401.76,-36.9 401.76,-41.1"/>
</g>
<!-- src/main.ts -->
<g id="node6" class="node">
<title>src/main.ts</title>
<g id="a_node6"><a xlink:href="src/main.ts" xlink:title="main.ts">
<path fill="#ddfeff" stroke="black" d="M64,-45C64,-45 22,-45 22,-45 19,-45 16,-42 16,-39 16,-39 16,-33 16,-33 16,-30 19,-27 22,-27 22,-27 64,-27 64,-27 67,-27 70,-30 70,-33 70,-33 70,-39 70,-39 70,-42 67,-45 64,-45"/>
<text text-anchor="start" x="26" y="-33.8" font-family="Helvetica,sans-Serif" font-size="9.00">main.ts</text>
</a>
</g>
</g>
<!-- src/main.ts&#45;&gt;src/App.vue -->
<g id="edge6" class="edge">
<title>src/main.ts&#45;&gt;src/App.vue</title>
<path fill="none" stroke="#000000" stroke-width="2" stroke-opacity="0.200000" d="M70.06,-31.59C72.32,-31.21 74.61,-30.82 76.9,-30.43"/>
<polygon fill="#000000" fill-opacity="0.200000" stroke="#000000" stroke-width="2" stroke-opacity="0.200000" points="77.37,-32.48 82.93,-29.41 76.66,-28.34 77.37,-32.48"/>
</g>
<!-- src/main.ts&#45;&gt;src/application -->
<g id="edge7" class="edge">
<title>src/main.ts&#45;&gt;src/application</title>
<path fill="none" stroke="#000000" stroke-width="2" stroke-opacity="0.200000" d="M70.41,-39.08C74.61,-39.46 78.92,-39.79 83,-40 145.58,-43.2 161.34,-40.7 224,-40 226.03,-39.98 228.11,-39.95 230.22,-39.92"/>
<polygon fill="#000000" fill-opacity="0.200000" stroke="#000000" stroke-width="2" stroke-opacity="0.200000" points="230.59,-42.01 236.56,-39.81 230.52,-37.81 230.59,-42.01"/>
</g>
</g>
</svg>
