<?xml version="1.0" encoding="UTF-8" standalone="no"?>
<!DOCTYPE svg PUBLIC "-//W3C//DTD SVG 1.1//EN"
 "http://www.w3.org/Graphics/SVG/1.1/DTD/svg11.dtd">
<!-- Generated by graphviz version 2.43.0 (0)
 -->
<!-- Title: dependency&#45;cruiser output Pages: 1 -->
<svg width="619pt" height="118pt"
 viewBox="0.00 0.00 619.00 118.00" xmlns="http://www.w3.org/2000/svg" xmlns:xlink="http://www.w3.org/1999/xlink">
<g id="graph0" class="graph" transform="scale(1 1) rotate(0) translate(4 114)">
<title>dependency&#45;cruiser output</title>
<polygon fill="white" stroke="transparent" points="-4,4 -4,-114 615,-114 615,4 -4,4"/>
<g id="clust1" class="cluster">
<title>cluster_src</title>
<path fill="#ffffff" stroke="black" stroke-width="2" d="M20,-8C20,-8 591,-8 591,-8 597,-8 603,-14 603,-20 603,-20 603,-90 603,-90 603,-96 597,-102 591,-102 591,-102 20,-102 20,-102 14,-102 8,-96 8,-90 8,-90 8,-20 8,-20 8,-14 14,-8 20,-8"/>
<text text-anchor="middle" x="305.5" y="-90.8" font-family="Helvetica,sans-Serif" font-weight="bold" font-size="9.00">src</text>
</g>
<!-- src/App.vue -->
<g id="node1" class="node">
<title>src/App.vue</title>
<g id="a_node1"><a xlink:href="src/App.vue" xlink:title="App.vue">
<path fill="#41f083" stroke="black" d="M131,-45C131,-45 89,-45 89,-45 86,-45 83,-42 83,-39 83,-39 83,-33 83,-33 83,-30 86,-27 89,-27 89,-27 131,-27 131,-27 134,-27 137,-30 137,-33 137,-33 137,-39 137,-39 137,-42 134,-45 131,-45"/>
<text text-anchor="start" x="91" y="-33.8" font-family="Helvetica,sans-Serif" font-size="9.00">App.vue</text>
</a>
</g>
</g>
<!-- src/components -->
<g id="node2" class="node">
<title>src/components</title>
<g id="a_node2"><a xlink:href="src/components" xlink:title="components">
<polygon fill="#ffffcc" stroke="black" points="290,-37 219,-37 217,-35 217,-19 288,-19 290,-21 290,-37"/>
<polyline fill="none" stroke="black" points="288,-35 217,-35 "/>
<polyline fill="none" stroke="black" points="288,-35 288,-19 "/>
<polyline fill="none" stroke="black" points="288,-35 290,-37 "/>
<text text-anchor="start" x="225" y="-25.8" font-family="Helvetica,sans-Serif" font-size="9.00">components</text>
</a>
</g>
</g>
<!-- src/App.vue&#45;&gt;src/components -->
<g id="edge1" class="edge">
<title>src/App.vue&#45;&gt;src/components</title>
<path fill="none" stroke="#000000" stroke-width="2" stroke-opacity="0.200000" d="M137.28,-34.51C157.83,-33.35 186.78,-31.72 210.52,-30.37"/>
<polygon fill="#000000" fill-opacity="0.200000" stroke="#000000" stroke-width="2" stroke-opacity="0.200000" points="210.88,-32.46 216.75,-30.02 210.64,-28.26 210.88,-32.46"/>
</g>
<!-- src/views -->
<g id="node3" class="node">
<title>src/views</title>
<g id="a_node3"><a xlink:href="src/views" xlink:title="views">
<polygon fill="#ffffcc" stroke="black" points="204,-59 152,-59 150,-57 150,-41 202,-41 204,-43 204,-59"/>
<polyline fill="none" stroke="black" points="202,-57 150,-57 "/>
<polyline fill="none" stroke="black" points="202,-57 202,-41 "/>
<polyline fill="none" stroke="black" points="202,-57 204,-59 "/>
<text text-anchor="start" x="164.5" y="-47.8" font-family="Helvetica,sans-Serif" font-size="9.00">views</text>
</a>
</g>
</g>
<!-- src/App.vue&#45;&gt;src/views -->
<g id="edge2" class="edge">
<title>src/App.vue&#45;&gt;src/views</title>
<path fill="none" stroke="#000000" stroke-width="2" stroke-opacity="0.200000" d="M137.06,-41.61C139.32,-42.1 141.61,-42.59 143.9,-43.09"/>
<polygon fill="#000000" fill-opacity="0.200000" stroke="#000000" stroke-width="2" stroke-opacity="0.200000" points="143.62,-45.17 149.93,-44.39 144.51,-41.07 143.62,-45.17"/>
</g>
<!-- src/domain -->
<g id="node5" class="node">
<title>src/domain</title>
<g id="a_node5"><a xlink:href="src/domain" xlink:title="no&#45;orphans">
<polygon fill="#ccffcc" stroke="orange" points="595,-51 543,-51 541,-49 541,-33 593,-33 595,-35 595,-51"/>
<polyline fill="none" stroke="orange" points="593,-49 541,-49 "/>
<polyline fill="none" stroke="orange" points="593,-49 593,-33 "/>
<polyline fill="none" stroke="orange" points="593,-49 595,-51 "/>
<text text-anchor="start" x="551" y="-39.8" font-family="Helvetica,sans-Serif" font-size="9.00" fill="orange">domain</text>
</a>
</g>
</g>
<!-- src/components&#45;&gt;src/domain -->
<g id="edge6" class="edge">
<title>src/components&#45;&gt;src/domain</title>
<path fill="none" stroke="#000000" stroke-opacity="0.200000" d="M290.1,-25.86C342.48,-23.3 443.27,-20.68 528,-32 530.21,-32.3 532.47,-32.67 534.74,-33.1"/>
<polygon fill="none" stroke="#000000" stroke-opacity="0.200000" points="534.43,-35.19 540.73,-34.37 535.29,-31.08 534.43,-35.19"/>
</g>
<!-- src/stores -->
<g id="node7" class="node">
<title>src/stores</title>
<g id="a_node7"><a xlink:href="src/stores" xlink:title="stores">
<polygon fill="#ffffcc" stroke="black" points="357,-59 305,-59 303,-57 303,-41 355,-41 357,-43 357,-59"/>
<polyline fill="none" stroke="black" points="355,-57 303,-57 "/>
<polyline fill="none" stroke="black" points="355,-57 355,-41 "/>
<polyline fill="none" stroke="black" points="355,-57 357,-59 "/>
<text text-anchor="start" x="316" y="-47.8" font-family="Helvetica,sans-Serif" font-size="9.00">stores</text>
</a>
</g>
</g>
<!-- src/components&#45;&gt;src/stores -->
<g id="edge5" class="edge">
<title>src/components&#45;&gt;src/stores</title>
<path fill="none" stroke="#000000" stroke-width="2" stroke-opacity="0.200000" d="M285.23,-37.08C289.02,-38.19 292.9,-39.34 296.71,-40.46"/>
<polygon fill="#000000" fill-opacity="0.200000" stroke="#000000" stroke-width="2" stroke-opacity="0.200000" points="296.27,-42.52 302.62,-42.21 297.46,-38.5 296.27,-42.52"/>
</g>
<!-- src/views&#45;&gt;src/components -->
<g id="edge11" class="edge">
<title>src/views&#45;&gt;src/components</title>
<path fill="none" stroke="#000000" stroke-width="2" stroke-opacity="0.200000" d="M204.06,-42.31C207.95,-41.16 212.02,-39.95 216.07,-38.76"/>
<polygon fill="#000000" fill-opacity="0.200000" stroke="#000000" stroke-width="2" stroke-opacity="0.200000" points="216.83,-40.72 221.99,-37.01 215.64,-36.7 216.83,-40.72"/>
</g>
<!-- src/views&#45;&gt;src/stores -->
<g id="edge12" class="edge">
<title>src/views&#45;&gt;src/stores</title>
<path fill="none" stroke="#000000" stroke-width="2" stroke-opacity="0.200000" d="M204.3,-50C230.07,-50 269.38,-50 296.95,-50"/>
<polygon fill="#000000" fill-opacity="0.200000" stroke="#000000" stroke-width="2" stroke-opacity="0.200000" points="297,-52.1 303,-50 297,-47.9 297,-52.1"/>
</g>
<!-- src/application -->
<g id="node4" class="node">
<title>src/application</title>
<g id="a_node4"><a xlink:href="src/application" xlink:title="application">
<polygon fill="#ffffcc" stroke="black" points="436,-59 372,-59 370,-57 370,-41 434,-41 436,-43 436,-59"/>
<polyline fill="none" stroke="black" points="434,-57 370,-57 "/>
<polyline fill="none" stroke="black" points="434,-57 434,-41 "/>
<polyline fill="none" stroke="black" points="434,-57 436,-59 "/>
<text text-anchor="start" x="378" y="-47.8" font-family="Helvetica,sans-Serif" font-size="9.00">application</text>
</a>
</g>
</g>
<!-- src/application&#45;&gt;src/domain -->
<g id="edge3" class="edge">
<title>src/application&#45;&gt;src/domain</title>
<path fill="none" stroke="#000000" stroke-opacity="0.200000" d="M433.8,-40.89C438.83,-39.69 444.03,-38.65 449,-38 477.73,-34.23 510.71,-35.85 534.49,-38.05"/>
<polygon fill="none" stroke="#000000" stroke-opacity="0.200000" points="534.46,-40.15 540.64,-38.65 534.87,-35.97 534.46,-40.15"/>
</g>
<!-- src/infrastructure -->
<g id="node6" class="node">
<title>src/infrastructure</title>
<g id="a_node6"><a xlink:href="src/infrastructure" xlink:title="infrastructure">
<polygon fill="#ffffcc" stroke="black" points="528,-62 451,-62 449,-60 449,-44 526,-44 528,-46 528,-62"/>
<polyline fill="none" stroke="black" points="526,-60 449,-60 "/>
<polyline fill="none" stroke="black" points="526,-60 526,-44 "/>
<polyline fill="none" stroke="black" points="526,-60 528,-62 "/>
<text text-anchor="start" x="457" y="-50.8" font-family="Helvetica,sans-Serif" font-size="9.00">infrastructure</text>
</a>
</g>
</g>
<!-- src/application&#45;&gt;src/infrastructure -->
<g id="edge4" class="edge">
<title>src/application&#45;&gt;src/infrastructure</title>
<path fill="none" stroke="#000000" stroke-width="2" stroke-opacity="0.200000" d="M436.04,-51.15C438.29,-51.23 440.58,-51.31 442.88,-51.4"/>
<polygon fill="#000000" fill-opacity="0.200000" stroke="#000000" stroke-width="2" stroke-opacity="0.200000" points="442.9,-53.5 448.97,-51.62 443.05,-49.3 442.9,-53.5"/>
</g>
<!-- src/infrastructure&#45;&gt;src/domain -->
<g id="edge7" class="edge">
<title>src/infrastructure&#45;&gt;src/domain</title>
<path fill="none" stroke="#000000" stroke-width="2" stroke-opacity="0.200000" d="M528.25,-47.5C530.37,-47.2 532.49,-46.9 534.58,-46.6"/>
<polygon fill="#000000" fill-opacity="0.200000" stroke="#000000" stroke-width="2" stroke-opacity="0.200000" points="535.12,-48.65 540.76,-45.72 534.53,-44.49 535.12,-48.65"/>
</g>
<!-- src/stores&#45;&gt;src/application -->
<g id="edge9" class="edge">
<title>src/stores&#45;&gt;src/application</title>
<path fill="none" stroke="#000000" stroke-width="2" stroke-opacity="0.200000" d="M357.03,-50C359.09,-50 361.2,-50 363.32,-50"/>
<polygon fill="#000000" fill-opacity="0.200000" stroke="#000000" stroke-width="2" stroke-opacity="0.200000" points="363.69,-52.1 369.69,-50 363.69,-47.9 363.69,-52.1"/>
</g>
<!-- src/stores&#45;&gt;src/domain -->
<g id="edge10" class="edge">
<title>src/stores&#45;&gt;src/domain</title>
<path fill="none" stroke="#000000" stroke-opacity="0.200000" d="M350.86,-59.08C356.89,-61.44 363.6,-63.69 370,-65 438.8,-79.13 460.78,-88.35 528,-68 536.69,-65.37 545.21,-60.09 552.06,-54.98"/>
<polygon fill="none" stroke="#000000" stroke-opacity="0.200000" points="553.53,-56.5 556.95,-51.14 550.93,-53.19 553.53,-56.5"/>
</g>
<!-- src/main.ts -->
<g id="node8" class="node">
<title>src/main.ts</title>
<g id="a_node8"><a xlink:href="src/main.ts" xlink:title="main.ts">
<path fill="#ddfeff" stroke="black" d="M64,-45C64,-45 22,-45 22,-45 19,-45 16,-42 16,-39 16,-39 16,-33 16,-33 16,-30 19,-27 22,-27 22,-27 64,-27 64,-27 67,-27 70,-30 70,-33 70,-33 70,-39 70,-39 70,-42 67,-45 64,-45"/>
<text text-anchor="start" x="26" y="-33.8" font-family="Helvetica,sans-Serif" font-size="9.00">main.ts</text>
</a>
</g>
</g>
<!-- src/main.ts&#45;&gt;src/App.vue -->
<g id="edge8" class="edge">
<title>src/main.ts&#45;&gt;src/App.vue</title>
<path fill="none" stroke="#000000" stroke-width="2" stroke-opacity="0.200000" d="M70.06,-36C72.32,-36 74.61,-36 76.9,-36"/>
<polygon fill="#000000" fill-opacity="0.200000" stroke="#000000" stroke-width="2" stroke-opacity="0.200000" points="76.93,-38.1 82.93,-36 76.93,-33.9 76.93,-38.1"/>
</g>
</g>
</svg>
