<?xml version="1.0" encoding="UTF-8" standalone="no"?>
<!DOCTYPE svg PUBLIC "-//W3C//DTD SVG 1.1//EN"
 "http://www.w3.org/Graphics/SVG/1.1/DTD/svg11.dtd">
<!-- Generated by graphviz version 9.0.0 (20230911.1827)
 -->
<!-- Title: dependency&#45;cruiser output Pages: 1 -->
<svg width="466pt" height="107pt"
 viewBox="0.00 0.00 465.75 107.00" xmlns="http://www.w3.org/2000/svg" xmlns:xlink="http://www.w3.org/1999/xlink">
<g id="graph0" class="graph" transform="scale(1 1) rotate(0) translate(4 103)">
<title>dependency&#45;cruiser output</title>
<polygon fill="white" stroke="none" points="-4,4 -4,-103 461.75,-103 461.75,4 -4,4"/>
<g id="clust1" class="cluster">
<title>cluster_src</title>
<path fill="#ffffff" stroke="black" stroke-width="2" d="M20,-8C20,-8 437.75,-8 437.75,-8 443.75,-8 449.75,-14 449.75,-20 449.75,-20 449.75,-79 449.75,-79 449.75,-85 443.75,-91 437.75,-91 437.75,-91 20,-91 20,-91 14,-91 8,-85 8,-79 8,-79 8,-20 8,-20 8,-14 14,-8 20,-8"/>
<text text-anchor="middle" x="228.88" y="-78.45" font-family="Helvetica,sans-Serif" font-weight="bold" font-size="9.00">src</text>
</g>
<!-- src/App.vue -->
<g id="node1" class="node">
<title>src/App.vue</title>
<g id="a_node1"><a xlink:href="src/App.vue" xlink:title="App.vue">
<path fill="#41f083" stroke="black" d="M130.58,-49.62C130.58,-49.62 89.42,-49.62 89.42,-49.62 86.21,-49.62 83,-46.42 83,-43.21 83,-43.21 83,-36.79 83,-36.79 83,-33.58 86.21,-30.38 89.42,-30.38 89.42,-30.38 130.58,-30.38 130.58,-30.38 133.79,-30.38 137,-33.58 137,-36.79 137,-36.79 137,-43.21 137,-43.21 137,-46.42 133.79,-49.62 130.58,-49.62"/>
<text text-anchor="start" x="93.88" y="-37.08" font-family="Helvetica,sans-Serif" font-size="9.00">App.vue</text>
</a>
</g>
</g>
<!-- src/presentation -->
<g id="node2" class="node">
<title>src/presentation</title>
<g id="a_node2"><a xlink:href="src/presentation" xlink:title="presentation">
<polygon fill="#ffffcc" stroke="black" points="217.75,-49.62 152.14,-49.62 150,-47.49 150,-30.38 215.61,-30.38 217.75,-32.51 217.75,-49.62"/>
<polyline fill="none" stroke="black" points="215.61,-47.49 150,-47.49"/>
<polyline fill="none" stroke="black" points="215.61,-47.49 215.61,-30.38"/>
<polyline fill="none" stroke="black" points="215.61,-47.49 217.75,-49.62"/>
<text text-anchor="start" x="158" y="-37.08" font-family="Helvetica,sans-Serif" font-size="9.00">presentation</text>
</a>
</g>
</g>
<!-- src/App.vue&#45;&gt;src/presentation -->
<g id="edge1" class="edge">
<title>src/App.vue&#45;&gt;src/presentation</title>
<path fill="none" stroke="#000000" stroke-width="2" stroke-opacity="0.200000" d="M137.36,-40C138.48,-40 139.62,-40 140.77,-40"/>
<polygon fill="#000000" fill-opacity="0.200000" stroke="#000000" stroke-width="2" stroke-opacity="0.200000" points="140.64,-42.1 146.64,-40 140.64,-37.9 140.64,-42.1"/>
</g>
<!-- src/application -->
<g id="node3" class="node">
<title>src/application</title>
<g id="a_node3"><a xlink:href="src/application" xlink:title="application">
<polygon fill="#ffffcc" stroke="black" points="291.75,-49.62 232.89,-49.62 230.75,-47.49 230.75,-30.38 289.61,-30.38 291.75,-32.51 291.75,-49.62"/>
<polyline fill="none" stroke="black" points="289.61,-47.49 230.75,-47.49"/>
<polyline fill="none" stroke="black" points="289.61,-47.49 289.61,-30.38"/>
<polyline fill="none" stroke="black" points="289.61,-47.49 291.75,-49.62"/>
<text text-anchor="start" x="238.75" y="-37.08" font-family="Helvetica,sans-Serif" font-size="9.00">application</text>
</a>
</g>
</g>
<!-- src/presentation&#45;&gt;src/application -->
<g id="edge7" class="edge">
<title>src/presentation&#45;&gt;src/application</title>
<path fill="none" stroke="#000000" stroke-width="2" stroke-opacity="0.200000" d="M218.15,-40C219.31,-40 220.47,-40 221.63,-40"/>
<polygon fill="#000000" fill-opacity="0.200000" stroke="#000000" stroke-width="2" stroke-opacity="0.200000" points="221.45,-42.1 227.45,-40 221.45,-37.9 221.45,-42.1"/>
</g>
<!-- src/domain -->
<g id="node4" class="node">
<title>src/domain</title>
<g id="a_node4"><a xlink:href="src/domain" xlink:title="domain">
<polygon fill="#ffffcc" stroke="black" points="441.75,-40.62 389.89,-40.62 387.75,-38.49 387.75,-21.38 439.61,-21.38 441.75,-23.51 441.75,-40.62"/>
<polyline fill="none" stroke="black" points="439.61,-38.49 387.75,-38.49"/>
<polyline fill="none" stroke="black" points="439.61,-38.49 439.61,-21.38"/>
<polyline fill="none" stroke="black" points="439.61,-38.49 441.75,-40.62"/>
<text text-anchor="start" x="399" y="-28.07" font-family="Helvetica,sans-Serif" font-size="9.00">domain</text>
</a>
</g>
</g>
<!-- src/presentation&#45;&gt;src/domain -->
<g id="edge9" class="edge">
<title>src/presentation&#45;&gt;src/domain</title>
<path fill="none" stroke="#000000" stroke-opacity="0.200000" d="M208.76,-29.97C215.72,-27.52 223.43,-25.24 230.75,-24 282.47,-15.24 343.54,-20.68 380.43,-25.65"/>
<polygon fill="none" stroke="#000000" stroke-opacity="0.200000" points="379.74,-27.68 385.97,-26.43 380.32,-23.52 379.74,-27.68"/>
</g>
<!-- src/infrastructure -->
<g id="node5" class="node">
<title>src/infrastructure</title>
<g id="a_node5"><a xlink:href="src/infrastructure" xlink:title="infrastructure">
<polygon fill="#ffffcc" stroke="black" points="374.75,-63.62 306.89,-63.62 304.75,-61.49 304.75,-44.38 372.61,-44.38 374.75,-46.51 374.75,-63.62"/>
<polyline fill="none" stroke="black" points="372.61,-61.49 304.75,-61.49"/>
<polyline fill="none" stroke="black" points="372.61,-61.49 372.61,-44.38"/>
<polyline fill="none" stroke="black" points="372.61,-61.49 374.75,-63.62"/>
<text text-anchor="start" x="312.75" y="-51.08" font-family="Helvetica,sans-Serif" font-size="9.00">infrastructure</text>
</a>
</g>
</g>
<!-- src/presentation&#45;&gt;src/infrastructure -->
<g id="edge8" class="edge">
<title>src/presentation&#45;&gt;src/infrastructure</title>
<path fill="none" stroke="#000000" stroke-width="2" stroke-opacity="0.200000" d="M208.76,-50.03C215.72,-52.48 223.43,-54.76 230.75,-56 251.92,-59.59 275.75,-59.56 295.63,-58.45"/>
<polygon fill="#000000" fill-opacity="0.200000" stroke="#000000" stroke-width="2" stroke-opacity="0.200000" points="295.59,-60.55 301.44,-58.06 295.31,-56.36 295.59,-60.55"/>
</g>
<!-- src/application&#45;&gt;src/domain -->
<g id="edge2" class="edge">
<title>src/application&#45;&gt;src/domain</title>
<path fill="none" stroke="#000000" stroke-opacity="0.200000" d="M292.18,-38.22C317.45,-36.72 353.63,-34.57 379.94,-33.01"/>
<polygon fill="none" stroke="#000000" stroke-opacity="0.200000" points="380.05,-35.11 385.91,-32.65 379.8,-30.91 380.05,-35.11"/>
</g>
<!-- src/application&#45;&gt;src/infrastructure -->
<g id="edge3" class="edge">
<title>src/application&#45;&gt;src/infrastructure</title>
<path fill="none" stroke="#000000" stroke-width="2" stroke-opacity="0.200000" d="M292.05,-41.05C294.29,-41.41 296.57,-41.79 298.85,-42.2"/>
<polygon fill="#000000" fill-opacity="0.200000" stroke="#000000" stroke-width="2" stroke-opacity="0.200000" points="298.39,-44.25 304.67,-43.31 299.17,-40.13 298.39,-44.25"/>
</g>
<!-- src/infrastructure&#45;&gt;src/application -->
<g id="edge5" class="edge">
<title>src/infrastructure&#45;&gt;src/application</title>
<path fill="none" stroke="#000000" stroke-opacity="0.200000" d="M304.33,-52.18C302.67,-51.89 300.99,-51.59 299.32,-51.28"/>
<polygon fill="none" stroke="#000000" stroke-opacity="0.200000" points="299.82,-49.24 293.53,-50.15 299.01,-53.36 299.82,-49.24"/>
</g>
<!-- src/infrastructure&#45;&gt;src/domain -->
<g id="edge4" class="edge">
<title>src/infrastructure&#45;&gt;src/domain</title>
<path fill="none" stroke="#000000" stroke-opacity="0.200000" d="M372.56,-43.98C375.17,-43.16 377.81,-42.32 380.44,-41.5"/>
<polygon fill="none" stroke="#000000" stroke-opacity="0.200000" points="380.76,-43.6 385.85,-39.79 379.49,-39.59 380.76,-43.6"/>
</g>
<!-- src/main.ts -->
<g id="node6" class="node">
<title>src/main.ts</title>
<g id="a_node6"><a xlink:href="src/main.ts" xlink:title="main.ts">
<path fill="#ddfeff" stroke="black" d="M63.58,-49.62C63.58,-49.62 22.42,-49.62 22.42,-49.62 19.21,-49.62 16,-46.42 16,-43.21 16,-43.21 16,-36.79 16,-36.79 16,-33.58 19.21,-30.38 22.42,-30.38 22.42,-30.38 63.58,-30.38 63.58,-30.38 66.79,-30.38 70,-33.58 70,-36.79 70,-36.79 70,-43.21 70,-43.21 70,-46.42 66.79,-49.62 63.58,-49.62"/>
<text text-anchor="start" x="27.62" y="-37.08" font-family="Helvetica,sans-Serif" font-size="9.00">main.ts</text>
</a>
</g>
</g>
<!-- src/main.ts&#45;&gt;src/App.vue -->
<g id="edge6" class="edge">
<title>src/main.ts&#45;&gt;src/App.vue</title>
<path fill="none" stroke="#000000" stroke-width="2" stroke-opacity="0.200000" d="M70.44,-40C71.58,-40 72.74,-40 73.9,-40"/>
<polygon fill="#000000" fill-opacity="0.200000" stroke="#000000" stroke-width="2" stroke-opacity="0.200000" points="73.77,-42.1 79.77,-40 73.77,-37.9 73.77,-42.1"/>
</g>
</g>
</svg>
