<?xml version="1.0" encoding="UTF-8" standalone="no"?>
<!DOCTYPE svg PUBLIC "-//W3C//DTD SVG 1.1//EN"
 "http://www.w3.org/Graphics/SVG/1.1/DTD/svg11.dtd">
<!-- Generated by graphviz version 9.0.0 (20230911.1827)
 -->
<!-- Title: dependency&#45;cruiser output Pages: 1 -->
<svg width="466pt" height="107pt"
 viewBox="0.00 0.00 465.75 107.00" xmlns="http://www.w3.org/2000/svg" xmlns:xlink="http://www.w3.org/1999/xlink">
<g id="graph0" class="graph" transform="scale(1 1) rotate(0) translate(4 103)">
<title>dependency&#45;cruiser output</title>
<polygon fill="white" stroke="none" points="-4,4 -4,-103 461.75,-103 461.75,4 -4,4"/>
<g id="clust1" class="cluster">
<title>cluster_src</title>
<path fill="#ffffff" stroke="black" stroke-width="2" d="M20,-8C20,-8 437.75,-8 437.75,-8 443.75,-8 449.75,-14 449.75,-20 449.75,-20 449.75,-79 449.75,-79 449.75,-85 443.75,-91 437.75,-91 437.75,-91 20,-91 20,-91 14,-91 8,-85 8,-79 8,-79 8,-20 8,-20 8,-14 14,-8 20,-8"/>
<text text-anchor="middle" x="228.88" y="-78.45" font-family="Helvetica,sans-Serif" font-weight="bold" font-size="9.00">src</text>
</g>
<!-- src/App.vue -->
<g id="node1" class="node">
<title>src/App.vue</title>
<g id="a_node1"><a xlink:href="src/App.vue" xlink:title="App.vue">
<path fill="#41f083" stroke="black" d="M130.58,-35.62C130.58,-35.62 89.42,-35.62 89.42,-35.62 86.21,-35.62 83,-32.42 83,-29.21 83,-29.21 83,-22.79 83,-22.79 83,-19.58 86.21,-16.38 89.42,-16.38 89.42,-16.38 130.58,-16.38 130.58,-16.38 133.79,-16.38 137,-19.58 137,-22.79 137,-22.79 137,-29.21 137,-29.21 137,-32.42 133.79,-35.62 130.58,-35.62"/>
<text text-anchor="start" x="93.88" y="-23.07" font-family="Helvetica,sans-Serif" font-size="9.00">App.vue</text>
</a>
</g>
</g>
<!-- src/presentation -->
<g id="node2" class="node">
<title>src/presentation</title>
<g id="a_node2"><a xlink:href="src/presentation" xlink:title="presentation">
<polygon fill="#ffffcc" stroke="black" points="217.75,-35.62 152.14,-35.62 150,-33.49 150,-16.38 215.61,-16.38 217.75,-18.51 217.75,-35.62"/>
<polyline fill="none" stroke="black" points="215.61,-33.49 150,-33.49"/>
<polyline fill="none" stroke="black" points="215.61,-33.49 215.61,-16.38"/>
<polyline fill="none" stroke="black" points="215.61,-33.49 217.75,-35.62"/>
<text text-anchor="start" x="158" y="-23.07" font-family="Helvetica,sans-Serif" font-size="9.00">presentation</text>
</a>
</g>
</g>
<!-- src/App.vue&#45;&gt;src/presentation -->
<g id="edge1" class="edge">
<title>src/App.vue&#45;&gt;src/presentation</title>
<path fill="none" stroke="#000000" stroke-width="2" stroke-opacity="0.200000" d="M137.36,-26C138.48,-26 139.62,-26 140.77,-26"/>
<polygon fill="#000000" fill-opacity="0.200000" stroke="#000000" stroke-width="2" stroke-opacity="0.200000" points="140.64,-28.1 146.64,-26 140.64,-23.9 140.64,-28.1"/>
</g>
<!-- src/application -->
<g id="node3" class="node">
<title>src/application</title>
<g id="a_node3"><a xlink:href="src/application" xlink:title="application">
<polygon fill="#ffffcc" stroke="black" points="291.75,-49.62 232.89,-49.62 230.75,-47.49 230.75,-30.38 289.61,-30.38 291.75,-32.51 291.75,-49.62"/>
<polyline fill="none" stroke="black" points="289.61,-47.49 230.75,-47.49"/>
<polyline fill="none" stroke="black" points="289.61,-47.49 289.61,-30.38"/>
<polyline fill="none" stroke="black" points="289.61,-47.49 291.75,-49.62"/>
<text text-anchor="start" x="238.75" y="-37.08" font-family="Helvetica,sans-Serif" font-size="9.00">application</text>
</a>
</g>
</g>
<!-- src/presentation&#45;&gt;src/application -->
<g id="edge8" class="edge">
<title>src/presentation&#45;&gt;src/application</title>
<path fill="none" stroke="#000000" stroke-opacity="0.200000" d="M218.15,-32.18C219.82,-32.49 221.5,-32.8 223.18,-33.11"/>
<polygon fill="none" stroke="#000000" stroke-opacity="0.200000" points="222.7,-35.16 228.99,-34.19 223.47,-31.03 222.7,-35.16"/>
</g>
<!-- src/domain -->
<g id="node4" class="node">
<title>src/domain</title>
<g id="a_node4"><a xlink:href="src/domain" xlink:title="domain">
<polygon fill="#ffffcc" stroke="black" points="441.75,-49.62 389.89,-49.62 387.75,-47.49 387.75,-30.38 439.61,-30.38 441.75,-32.51 441.75,-49.62"/>
<polyline fill="none" stroke="black" points="439.61,-47.49 387.75,-47.49"/>
<polyline fill="none" stroke="black" points="439.61,-47.49 439.61,-30.38"/>
<polyline fill="none" stroke="black" points="439.61,-47.49 441.75,-49.62"/>
<text text-anchor="start" x="399" y="-37.08" font-family="Helvetica,sans-Serif" font-size="9.00">domain</text>
</a>
</g>
</g>
<!-- src/presentation&#45;&gt;src/domain -->
<g id="edge9" class="edge">
<title>src/presentation&#45;&gt;src/domain</title>
<path fill="none" stroke="#000000" stroke-opacity="0.200000" d="M218.18,-21.58C256.39,-17.45 320.74,-13.35 374.75,-24 378.7,-24.78 382.75,-25.96 386.68,-27.34"/>
<polygon fill="none" stroke="#000000" stroke-opacity="0.200000" points="385.8,-29.25 392.16,-29.44 387.31,-25.33 385.8,-29.25"/>
</g>
<!-- src/application&#45;&gt;src/domain -->
<g id="edge2" class="edge">
<title>src/application&#45;&gt;src/domain</title>
<path fill="none" stroke="#000000" stroke-opacity="0.200000" d="M284.32,-50.02C290.77,-52.48 297.92,-54.76 304.75,-56 335.36,-61.57 344.23,-62.02 374.75,-56 378.7,-55.22 382.75,-54.04 386.68,-52.66"/>
<polygon fill="none" stroke="#000000" stroke-opacity="0.200000" points="387.31,-54.67 392.16,-50.56 385.8,-50.75 387.31,-54.67"/>
</g>
<!-- src/infrastructure -->
<g id="node5" class="node">
<title>src/infrastructure</title>
<g id="a_node5"><a xlink:href="src/infrastructure" xlink:title="infrastructure">
<polygon fill="#ffffcc" stroke="black" points="374.75,-49.62 306.89,-49.62 304.75,-47.49 304.75,-30.38 372.61,-30.38 374.75,-32.51 374.75,-49.62"/>
<polyline fill="none" stroke="black" points="372.61,-47.49 304.75,-47.49"/>
<polyline fill="none" stroke="black" points="372.61,-47.49 372.61,-30.38"/>
<polyline fill="none" stroke="black" points="372.61,-47.49 374.75,-49.62"/>
<text text-anchor="start" x="312.75" y="-37.08" font-family="Helvetica,sans-Serif" font-size="9.00">infrastructure</text>
</a>
</g>
</g>
<!-- src/application&#45;&gt;src/infrastructure -->
<g id="edge3" class="edge">
<title>src/application&#45;&gt;src/infrastructure</title>
<path fill="none" stroke="#000000" stroke-width="2" stroke-opacity="0.200000" d="M292.05,-35.6C293.18,-35.57 294.32,-35.55 295.47,-35.53"/>
<polygon fill="#000000" fill-opacity="0.200000" stroke="#000000" stroke-width="2" stroke-opacity="0.200000" points="295.31,-37.64 301.31,-35.53 295.3,-33.44 295.31,-37.64"/>
</g>
<!-- src/infrastructure&#45;&gt;src/application -->
<g id="edge4" class="edge">
<title>src/infrastructure&#45;&gt;src/application</title>
<path fill="none" stroke="#000000" stroke-opacity="0.200000" d="M304.33,-44.48C302.67,-44.5 300.99,-44.5 299.32,-44.5"/>
<polygon fill="none" stroke="#000000" stroke-opacity="0.200000" points="299.59,-42.4 293.56,-44.42 299.53,-46.6 299.59,-42.4"/>
</g>
<!-- src/infrastructure&#45;&gt;src/domain -->
<g id="edge5" class="edge">
<title>src/infrastructure&#45;&gt;src/domain</title>
<path fill="none" stroke="#000000" stroke-opacity="0.200000" d="M375.11,-40C376.8,-40 378.48,-40 380.16,-40"/>
<polygon fill="none" stroke="#000000" stroke-opacity="0.200000" points="379.92,-42.1 385.92,-40 379.92,-37.9 379.92,-42.1"/>
</g>
<!-- src/main.ts -->
<g id="node6" class="node">
<title>src/main.ts</title>
<g id="a_node6"><a xlink:href="src/main.ts" xlink:title="main.ts">
<path fill="#ddfeff" stroke="black" d="M63.58,-46.62C63.58,-46.62 22.42,-46.62 22.42,-46.62 19.21,-46.62 16,-43.42 16,-40.21 16,-40.21 16,-33.79 16,-33.79 16,-30.58 19.21,-27.38 22.42,-27.38 22.42,-27.38 63.58,-27.38 63.58,-27.38 66.79,-27.38 70,-30.58 70,-33.79 70,-33.79 70,-40.21 70,-40.21 70,-43.42 66.79,-46.62 63.58,-46.62"/>
<text text-anchor="start" x="27.62" y="-34.08" font-family="Helvetica,sans-Serif" font-size="9.00">main.ts</text>
</a>
</g>
</g>
<!-- src/main.ts&#45;&gt;src/App.vue -->
<g id="edge6" class="edge">
<title>src/main.ts&#45;&gt;src/App.vue</title>
<path fill="none" stroke="#000000" stroke-width="2" stroke-opacity="0.200000" d="M70.44,-32.53C71.58,-32.33 72.74,-32.14 73.9,-31.94"/>
<polygon fill="#000000" fill-opacity="0.200000" stroke="#000000" stroke-width="2" stroke-opacity="0.200000" points="74.25,-34.01 79.81,-30.94 73.55,-29.87 74.25,-34.01"/>
</g>
<!-- src/main.ts&#45;&gt;src/application -->
<g id="edge7" class="edge">
<title>src/main.ts&#45;&gt;src/application</title>
<path fill="none" stroke="#000000" stroke-width="2" stroke-opacity="0.200000" d="M70.39,-40.85C74.6,-41.33 78.91,-41.74 83,-42 142.77,-45.82 157.88,-43.41 217.75,-42 219.04,-41.97 220.36,-41.93 221.68,-41.89"/>
<polygon fill="#000000" fill-opacity="0.200000" stroke="#000000" stroke-width="2" stroke-opacity="0.200000" points="221.59,-44 227.51,-41.69 221.44,-39.8 221.59,-44"/>
</g>
</g>
</svg>
