<?xml version="1.0" encoding="UTF-8" standalone="no"?>
<!DOCTYPE svg PUBLIC "-//W3C//DTD SVG 1.1//EN"
 "http://www.w3.org/Graphics/SVG/1.1/DTD/svg11.dtd">
<!-- Generated by graphviz version 9.0.0 (20230911.1827)
 -->
<!-- Title: dependency&#45;cruiser output Pages: 1 -->
<svg width="600pt" height="121pt"
 viewBox="0.00 0.00 599.75 121.00" xmlns="http://www.w3.org/2000/svg" xmlns:xlink="http://www.w3.org/1999/xlink">
<g id="graph0" class="graph" transform="scale(1 1) rotate(0) translate(4 117)">
<title>dependency&#45;cruiser output</title>
<polygon fill="white" stroke="none" points="-4,4 -4,-117 595.75,-117 595.75,4 -4,4"/>
<g id="clust1" class="cluster">
<title>cluster_src</title>
<path fill="#ffffff" stroke="black" stroke-width="2" d="M20,-8C20,-8 571.75,-8 571.75,-8 577.75,-8 583.75,-14 583.75,-20 583.75,-20 583.75,-93 583.75,-93 583.75,-99 577.75,-105 571.75,-105 571.75,-105 20,-105 20,-105 14,-105 8,-99 8,-93 8,-93 8,-20 8,-20 8,-14 14,-8 20,-8"/>
<text text-anchor="middle" x="295.88" y="-92.45" font-family="Helvetica,sans-Serif" font-weight="bold" font-size="9.00">src</text>
</g>
<!-- src/App.vue -->
<g id="node1" class="node">
<title>src/App.vue</title>
<g id="a_node1"><a xlink:href="src/App.vue" xlink:title="App.vue">
<path fill="#41f083" stroke="black" d="M130.58,-46.62C130.58,-46.62 89.42,-46.62 89.42,-46.62 86.21,-46.62 83,-43.42 83,-40.21 83,-40.21 83,-33.79 83,-33.79 83,-30.58 86.21,-27.38 89.42,-27.38 89.42,-27.38 130.58,-27.38 130.58,-27.38 133.79,-27.38 137,-30.58 137,-33.79 137,-33.79 137,-40.21 137,-40.21 137,-43.42 133.79,-46.62 130.58,-46.62"/>
<text text-anchor="start" x="93.88" y="-34.08" font-family="Helvetica,sans-Serif" font-size="9.00">App.vue</text>
</a>
</g>
</g>
<!-- src/components -->
<g id="node2" class="node">
<title>src/components</title>
<g id="a_node2"><a xlink:href="src/components" xlink:title="components">
<polygon fill="#ffffcc" stroke="black" points="284.75,-37.62 219.14,-37.62 217,-35.49 217,-18.38 282.61,-18.38 284.75,-20.51 284.75,-37.62"/>
<polyline fill="none" stroke="black" points="282.61,-35.49 217,-35.49"/>
<polyline fill="none" stroke="black" points="282.61,-35.49 282.61,-18.38"/>
<polyline fill="none" stroke="black" points="282.61,-35.49 284.75,-37.62"/>
<text text-anchor="start" x="225" y="-25.07" font-family="Helvetica,sans-Serif" font-size="9.00">components</text>
</a>
</g>
</g>
<!-- src/App.vue&#45;&gt;src/components -->
<g id="edge1" class="edge">
<title>src/App.vue&#45;&gt;src/components</title>
<path fill="none" stroke="#000000" stroke-width="2" stroke-opacity="0.200000" d="M137.45,-35.29C157.32,-34 184.93,-32.21 207.82,-30.73"/>
<polygon fill="#000000" fill-opacity="0.200000" stroke="#000000" stroke-width="2" stroke-opacity="0.200000" points="207.78,-32.83 213.63,-30.35 207.51,-28.64 207.78,-32.83"/>
</g>
<!-- src/views -->
<g id="node3" class="node">
<title>src/views</title>
<g id="a_node3"><a xlink:href="src/views" xlink:title="views">
<polygon fill="#ffffcc" stroke="black" points="204,-60.62 152.14,-60.62 150,-58.49 150,-41.38 201.86,-41.38 204,-43.51 204,-60.62"/>
<polyline fill="none" stroke="black" points="201.86,-58.49 150,-58.49"/>
<polyline fill="none" stroke="black" points="201.86,-58.49 201.86,-41.38"/>
<polyline fill="none" stroke="black" points="201.86,-58.49 204,-60.62"/>
<text text-anchor="start" x="165.38" y="-48.08" font-family="Helvetica,sans-Serif" font-size="9.00">views</text>
</a>
</g>
</g>
<!-- src/App.vue&#45;&gt;src/views -->
<g id="edge2" class="edge">
<title>src/App.vue&#45;&gt;src/views</title>
<path fill="none" stroke="#000000" stroke-width="2" stroke-opacity="0.200000" d="M137.44,-42.69C138.71,-42.97 140,-43.25 141.29,-43.52"/>
<polygon fill="#000000" fill-opacity="0.200000" stroke="#000000" stroke-width="2" stroke-opacity="0.200000" points="140.53,-45.51 146.84,-44.72 141.41,-41.4 140.53,-45.51"/>
</g>
<!-- src/domain -->
<g id="node5" class="node">
<title>src/domain</title>
<g id="a_node5"><a xlink:href="src/domain" xlink:title="no&#45;orphans">
<polygon fill="#ccffcc" stroke="orange" points="575.75,-51.62 523.89,-51.62 521.75,-49.49 521.75,-32.38 573.61,-32.38 575.75,-34.51 575.75,-51.62"/>
<polyline fill="none" stroke="orange" points="573.61,-49.49 521.75,-49.49"/>
<polyline fill="none" stroke="orange" points="573.61,-49.49 573.61,-32.38"/>
<polyline fill="none" stroke="orange" points="573.61,-49.49 575.75,-51.62"/>
<text text-anchor="start" x="533" y="-39.08" font-family="Helvetica,sans-Serif" font-size="9.00" fill="orange">domain</text>
</a>
</g>
</g>
<!-- src/components&#45;&gt;src/domain -->
<g id="edge6" class="edge">
<title>src/components&#45;&gt;src/domain</title>
<path fill="none" stroke="#000000" stroke-opacity="0.200000" d="M284.9,-26.05C333.98,-23.7 428.96,-21.3 508.75,-32 510.57,-32.24 512.42,-32.54 514.29,-32.88"/>
<polygon fill="none" stroke="#000000" stroke-opacity="0.200000" points="513.7,-34.91 520,-34.06 514.55,-30.79 513.7,-34.91"/>
</g>
<!-- src/stores -->
<g id="node7" class="node">
<title>src/stores</title>
<g id="a_node7"><a xlink:href="src/stores" xlink:title="stores">
<polygon fill="#ffffcc" stroke="black" points="351.75,-60.62 299.89,-60.62 297.75,-58.49 297.75,-41.38 349.61,-41.38 351.75,-43.51 351.75,-60.62"/>
<polyline fill="none" stroke="black" points="349.61,-58.49 297.75,-58.49"/>
<polyline fill="none" stroke="black" points="349.61,-58.49 349.61,-41.38"/>
<polyline fill="none" stroke="black" points="349.61,-58.49 351.75,-60.62"/>
<text text-anchor="start" x="311.62" y="-48.08" font-family="Helvetica,sans-Serif" font-size="9.00">stores</text>
</a>
</g>
</g>
<!-- src/components&#45;&gt;src/stores -->
<g id="edge5" class="edge">
<title>src/components&#45;&gt;src/stores</title>
<path fill="none" stroke="#000000" stroke-width="2" stroke-opacity="0.200000" d="M283.19,-38.02C285.1,-38.63 287.02,-39.25 288.94,-39.86"/>
<polygon fill="#000000" fill-opacity="0.200000" stroke="#000000" stroke-width="2" stroke-opacity="0.200000" points="288.02,-41.77 294.37,-41.6 289.3,-37.77 288.02,-41.77"/>
</g>
<!-- src/views&#45;&gt;src/components -->
<g id="edge11" class="edge">
<title>src/views&#45;&gt;src/components</title>
<path fill="none" stroke="#000000" stroke-width="2" stroke-opacity="0.200000" d="M204.36,-42.57C206.24,-41.96 208.17,-41.35 210.11,-40.72"/>
<polygon fill="#000000" fill-opacity="0.200000" stroke="#000000" stroke-width="2" stroke-opacity="0.200000" points="210.69,-42.74 215.76,-38.92 209.41,-38.74 210.69,-42.74"/>
</g>
<!-- src/views&#45;&gt;src/stores -->
<g id="edge12" class="edge">
<title>src/views&#45;&gt;src/stores</title>
<path fill="none" stroke="#000000" stroke-width="2" stroke-opacity="0.200000" d="M204.39,-51C228.02,-51 262.84,-51 288.78,-51"/>
<polygon fill="#000000" fill-opacity="0.200000" stroke="#000000" stroke-width="2" stroke-opacity="0.200000" points="288.53,-53.1 294.53,-51 288.53,-48.9 288.53,-53.1"/>
</g>
<!-- src/application -->
<g id="node4" class="node">
<title>src/application</title>
<g id="a_node4"><a xlink:href="src/application" xlink:title="application">
<polygon fill="#ffffcc" stroke="black" points="425.75,-60.62 366.89,-60.62 364.75,-58.49 364.75,-41.38 423.61,-41.38 425.75,-43.51 425.75,-60.62"/>
<polyline fill="none" stroke="black" points="423.61,-58.49 364.75,-58.49"/>
<polyline fill="none" stroke="black" points="423.61,-58.49 423.61,-41.38"/>
<polyline fill="none" stroke="black" points="423.61,-58.49 425.75,-60.62"/>
<text text-anchor="start" x="372.75" y="-48.08" font-family="Helvetica,sans-Serif" font-size="9.00">application</text>
</a>
</g>
</g>
<!-- src/application&#45;&gt;src/domain -->
<g id="edge3" class="edge">
<title>src/application&#45;&gt;src/domain</title>
<path fill="none" stroke="#000000" stroke-opacity="0.200000" d="M425.25,-40.89C429.72,-39.69 434.32,-38.66 438.75,-38 463.88,-34.24 492.61,-35.52 514.26,-37.59"/>
<polygon fill="none" stroke="#000000" stroke-opacity="0.200000" points="513.92,-39.67 520.11,-38.19 514.35,-35.49 513.92,-39.67"/>
</g>
<!-- src/infrastructure -->
<g id="node6" class="node">
<title>src/infrastructure</title>
<g id="a_node6"><a xlink:href="src/infrastructure" xlink:title="infrastructure">
<polygon fill="#ffffcc" stroke="black" points="508.75,-63.62 440.89,-63.62 438.75,-61.49 438.75,-44.38 506.61,-44.38 508.75,-46.51 508.75,-63.62"/>
<polyline fill="none" stroke="black" points="506.61,-61.49 438.75,-61.49"/>
<polyline fill="none" stroke="black" points="506.61,-61.49 506.61,-44.38"/>
<polyline fill="none" stroke="black" points="506.61,-61.49 508.75,-63.62"/>
<text text-anchor="start" x="446.75" y="-51.08" font-family="Helvetica,sans-Serif" font-size="9.00">infrastructure</text>
</a>
</g>
</g>
<!-- src/application&#45;&gt;src/infrastructure -->
<g id="edge4" class="edge">
<title>src/application&#45;&gt;src/infrastructure</title>
<path fill="none" stroke="#000000" stroke-width="2" stroke-opacity="0.200000" d="M426.05,-52.17C427.18,-52.21 428.32,-52.26 429.47,-52.3"/>
<polygon fill="#000000" fill-opacity="0.200000" stroke="#000000" stroke-width="2" stroke-opacity="0.200000" points="429.23,-54.39 435.31,-52.53 429.39,-50.2 429.23,-54.39"/>
</g>
<!-- src/infrastructure&#45;&gt;src/domain -->
<g id="edge7" class="edge">
<title>src/infrastructure&#45;&gt;src/domain</title>
<path fill="none" stroke="#000000" stroke-width="2" stroke-opacity="0.200000" d="M509.11,-48.35C510.28,-48.16 511.45,-47.97 512.61,-47.78"/>
<polygon fill="#000000" fill-opacity="0.200000" stroke="#000000" stroke-width="2" stroke-opacity="0.200000" points="512.87,-49.86 518.45,-46.82 512.19,-45.72 512.87,-49.86"/>
</g>
<!-- src/stores&#45;&gt;src/application -->
<g id="edge9" class="edge">
<title>src/stores&#45;&gt;src/application</title>
<path fill="none" stroke="#000000" stroke-width="2" stroke-opacity="0.200000" d="M352.04,-51C353.18,-51 354.34,-51 355.51,-51"/>
<polygon fill="#000000" fill-opacity="0.200000" stroke="#000000" stroke-width="2" stroke-opacity="0.200000" points="355.46,-53.1 361.46,-51 355.46,-48.9 355.46,-53.1"/>
</g>
<!-- src/stores&#45;&gt;src/domain -->
<g id="edge10" class="edge">
<title>src/stores&#45;&gt;src/domain</title>
<path fill="none" stroke="#000000" stroke-opacity="0.200000" d="M346.37,-61.02C352.18,-63.41 358.6,-65.66 364.75,-67 427.29,-80.65 447.81,-89.61 508.75,-70 517.13,-67.3 525.24,-62.06 531.87,-56.84"/>
<polygon fill="none" stroke="#000000" stroke-opacity="0.200000" points="533.1,-58.55 536.35,-53.09 530.4,-55.33 533.1,-58.55"/>
</g>
<!-- src/main.ts -->
<g id="node8" class="node">
<title>src/main.ts</title>
<g id="a_node8"><a xlink:href="src/main.ts" xlink:title="main.ts">
<path fill="#ddfeff" stroke="black" d="M63.58,-46.62C63.58,-46.62 22.42,-46.62 22.42,-46.62 19.21,-46.62 16,-43.42 16,-40.21 16,-40.21 16,-33.79 16,-33.79 16,-30.58 19.21,-27.38 22.42,-27.38 22.42,-27.38 63.58,-27.38 63.58,-27.38 66.79,-27.38 70,-30.58 70,-33.79 70,-33.79 70,-40.21 70,-40.21 70,-43.42 66.79,-46.62 63.58,-46.62"/>
<text text-anchor="start" x="27.62" y="-34.08" font-family="Helvetica,sans-Serif" font-size="9.00">main.ts</text>
</a>
</g>
</g>
<!-- src/main.ts&#45;&gt;src/App.vue -->
<g id="edge8" class="edge">
<title>src/main.ts&#45;&gt;src/App.vue</title>
<path fill="none" stroke="#000000" stroke-width="2" stroke-opacity="0.200000" d="M70.44,-37C71.58,-37 72.74,-37 73.9,-37"/>
<polygon fill="#000000" fill-opacity="0.200000" stroke="#000000" stroke-width="2" stroke-opacity="0.200000" points="73.77,-39.1 79.77,-37 73.77,-34.9 73.77,-39.1"/>
</g>
</g>
</svg>
