<?xml version="1.0" encoding="UTF-8" standalone="no"?>
<!DOCTYPE svg PUBLIC "-//W3C//DTD SVG 1.1//EN"
 "http://www.w3.org/Graphics/SVG/1.1/DTD/svg11.dtd">
<!-- Generated by graphviz version 9.0.0 (20230911.1827)
 -->
<!-- Title: dependency&#45;cruiser output Pages: 1 -->
<svg width="326pt" height="254pt"
 viewBox="0.00 0.00 326.00 254.00" xmlns="http://www.w3.org/2000/svg" xmlns:xlink="http://www.w3.org/1999/xlink">
<g id="graph0" class="graph" transform="scale(1 1) rotate(0) translate(4 250)">
<title>dependency&#45;cruiser output</title>
<polygon fill="white" stroke="none" points="-4,4 -4,-250 322,-250 322,4 -4,4"/>
<g id="clust1" class="cluster">
<title>cluster_src</title>
<path fill="#ffffff" stroke="black" stroke-width="2" d="M20,-8C20,-8 298,-8 298,-8 304,-8 310,-14 310,-20 310,-20 310,-226 310,-226 310,-232 304,-238 298,-238 298,-238 20,-238 20,-238 14,-238 8,-232 8,-226 8,-226 8,-20 8,-20 8,-14 14,-8 20,-8"/>
<text text-anchor="middle" x="159" y="-225.45" font-family="Helvetica,sans-Serif" font-weight="bold" font-size="9.00">src</text>
</g>
<g id="clust2" class="cluster">
<title>cluster_src/application</title>
<path fill="#ffffff" stroke="black" stroke-width="2" d="M240.75,-93C240.75,-93 290,-93 290,-93 296,-93 302,-99 302,-105 302,-105 302,-136 302,-136 302,-142 296,-148 290,-148 290,-148 240.75,-148 240.75,-148 234.75,-148 228.75,-142 228.75,-136 228.75,-136 228.75,-105 228.75,-105 228.75,-99 234.75,-93 240.75,-93"/>
<text text-anchor="middle" x="265.38" y="-135.45" font-family="Helvetica,sans-Serif" font-weight="bold" font-size="9.00">application</text>
</g>
<g id="clust4" class="cluster">
<title>cluster_src/presentation</title>
<path fill="#ffffff" stroke="black" stroke-width="2" d="M90,-16C90,-16 288.38,-16 288.38,-16 294.38,-16 300.38,-22 300.38,-28 300.38,-28 300.38,-73 300.38,-73 300.38,-79 294.38,-85 288.38,-85 288.38,-85 90,-85 90,-85 84,-85 78,-79 78,-73 78,-73 78,-28 78,-28 78,-22 84,-16 90,-16"/>
<text text-anchor="middle" x="189.19" y="-72.45" font-family="Helvetica,sans-Serif" font-weight="bold" font-size="9.00">presentation</text>
</g>
<g id="clust3" class="cluster">
<title>cluster_src/domain</title>
<path fill="#ffffff" stroke="black" stroke-width="2" d="M242.38,-156C242.38,-156 288.38,-156 288.38,-156 294.38,-156 300.38,-162 300.38,-168 300.38,-168 300.38,-199 300.38,-199 300.38,-205 294.38,-211 288.38,-211 288.38,-211 242.38,-211 242.38,-211 236.38,-211 230.38,-205 230.38,-199 230.38,-199 230.38,-168 230.38,-168 230.38,-162 236.38,-156 242.38,-156"/>
<text text-anchor="middle" x="265.38" y="-198.45" font-family="Helvetica,sans-Serif" font-weight="bold" font-size="9.00">domain</text>
</g>
<!-- src/App.vue -->
<g id="node1" class="node">
<title>src/App.vue</title>
<g id="a_node1"><a xlink:href="src/App.vue" xlink:title="App.vue">
<path fill="#41f083" stroke="black" d="M63.58,-46.62C63.58,-46.62 22.42,-46.62 22.42,-46.62 19.21,-46.62 16,-43.42 16,-40.21 16,-40.21 16,-33.79 16,-33.79 16,-30.58 19.21,-27.38 22.42,-27.38 22.42,-27.38 63.58,-27.38 63.58,-27.38 66.79,-27.38 70,-30.58 70,-33.79 70,-33.79 70,-40.21 70,-40.21 70,-43.42 66.79,-46.62 63.58,-46.62"/>
<text text-anchor="start" x="26.88" y="-34.08" font-family="Helvetica,sans-Serif" font-size="9.00">App.vue</text>
</a>
</g>
</g>
<!-- src/presentation/components -->
<g id="node2" class="node">
<title>src/presentation/components</title>
<g id="a_node2"><a xlink:href="src/presentation/components" xlink:title="components">
<polygon fill="#ffffcc" stroke="black" points="220.75,-57.62 155.14,-57.62 153,-55.49 153,-38.38 218.61,-38.38 220.75,-40.51 220.75,-57.62"/>
<polyline fill="none" stroke="black" points="218.61,-55.49 153,-55.49"/>
<polyline fill="none" stroke="black" points="218.61,-55.49 218.61,-38.38"/>
<polyline fill="none" stroke="black" points="218.61,-55.49 220.75,-57.62"/>
<text text-anchor="start" x="161" y="-45.08" font-family="Helvetica,sans-Serif" font-size="9.00">components</text>
</a>
</g>
</g>
<!-- src/App.vue&#45;&gt;src/presentation/components -->
<g id="edge1" class="edge">
<title>src/App.vue&#45;&gt;src/presentation/components</title>
<path fill="none" stroke="#000000" stroke-width="2" stroke-opacity="0.200000" d="M70.26,-32.55C89.65,-30.01 116.63,-28.04 140,-32 144.46,-32.76 149.06,-33.9 153.56,-35.23"/>
<polygon fill="#000000" fill-opacity="0.200000" stroke="#000000" stroke-width="2" stroke-opacity="0.200000" points="152.76,-37.18 159.11,-37.04 154.06,-33.18 152.76,-37.18"/>
</g>
<!-- src/presentation/views -->
<g id="node3" class="node">
<title>src/presentation/views</title>
<g id="a_node3"><a xlink:href="src/presentation/views" xlink:title="views">
<polygon fill="#ffffcc" stroke="black" points="140,-57.62 88.14,-57.62 86,-55.49 86,-38.38 137.86,-38.38 140,-40.51 140,-57.62"/>
<polyline fill="none" stroke="black" points="137.86,-55.49 86,-55.49"/>
<polyline fill="none" stroke="black" points="137.86,-55.49 137.86,-38.38"/>
<polyline fill="none" stroke="black" points="137.86,-55.49 140,-57.62"/>
<text text-anchor="start" x="101.38" y="-45.08" font-family="Helvetica,sans-Serif" font-size="9.00">views</text>
</a>
</g>
</g>
<!-- src/App.vue&#45;&gt;src/presentation/views -->
<g id="edge2" class="edge">
<title>src/App.vue&#45;&gt;src/presentation/views</title>
<path fill="none" stroke="#000000" stroke-width="2" stroke-opacity="0.200000" d="M70.49,-41.28C72.7,-41.64 74.97,-42.01 77.24,-42.38"/>
<polygon fill="#000000" fill-opacity="0.200000" stroke="#000000" stroke-width="2" stroke-opacity="0.200000" points="76.68,-44.41 82.93,-43.3 77.35,-40.27 76.68,-44.41"/>
</g>
<!-- src/application/usecases -->
<g id="node4" class="node">
<title>src/application/usecases</title>
<g id="a_node4"><a xlink:href="src/application/usecases" xlink:title="usecases">
<polygon fill="#ffffcc" stroke="black" points="294,-120.62 238.89,-120.62 236.75,-118.49 236.75,-101.38 291.86,-101.38 294,-103.51 294,-120.62"/>
<polyline fill="none" stroke="black" points="291.86,-118.49 236.75,-118.49"/>
<polyline fill="none" stroke="black" points="291.86,-118.49 291.86,-101.38"/>
<polyline fill="none" stroke="black" points="291.86,-118.49 294,-120.62"/>
<text text-anchor="start" x="244.75" y="-108.08" font-family="Helvetica,sans-Serif" font-size="9.00">usecases</text>
</a>
</g>
</g>
<!-- src/presentation/components&#45;&gt;src/application/usecases -->
<g id="edge3" class="edge">
<title>src/presentation/components&#45;&gt;src/application/usecases</title>
<path fill="none" stroke="#000000" stroke-opacity="0.200000" d="M197.11,-58.11C205.08,-66.57 217.11,-78.71 228.75,-88 232.61,-91.09 236.9,-94.14 241.13,-96.96"/>
<polygon fill="none" stroke="#000000" stroke-opacity="0.200000" points="239.77,-98.58 245.95,-100.08 242.06,-95.06 239.77,-98.58"/>
</g>
<!-- src/domain/entities -->
<g id="node5" class="node">
<title>src/domain/entities</title>
<g id="a_node5"><a xlink:href="src/domain/entities" xlink:title="entities">
<polygon fill="#ffffcc" stroke="black" points="292.38,-183.62 240.51,-183.62 238.38,-181.49 238.38,-164.38 290.24,-164.38 292.38,-166.51 292.38,-183.62"/>
<polyline fill="none" stroke="black" points="290.24,-181.49 238.38,-181.49"/>
<polyline fill="none" stroke="black" points="290.24,-181.49 290.24,-164.38"/>
<polyline fill="none" stroke="black" points="290.24,-181.49 292.38,-183.62"/>
<text text-anchor="start" x="250.38" y="-171.07" font-family="Helvetica,sans-Serif" font-size="9.00">entities</text>
</a>
</g>
</g>
<!-- src/presentation/components&#45;&gt;src/domain/entities -->
<g id="edge5" class="edge">
<title>src/presentation/components&#45;&gt;src/domain/entities</title>
<path fill="none" stroke="#000000" stroke-opacity="0.200000" d="M189.74,-58.12C193.8,-77.88 205.06,-122.16 228.75,-151 231.44,-154.28 234.73,-157.25 238.21,-159.88"/>
<polygon fill="none" stroke="#000000" stroke-opacity="0.200000" points="236.79,-161.45 242.92,-163.13 239.17,-158 236.79,-161.45"/>
</g>
<!-- src/presentation/stores -->
<g id="node6" class="node">
<title>src/presentation/stores</title>
<g id="a_node6"><a xlink:href="src/presentation/stores" xlink:title="stores">
<polygon fill="#ffffcc" stroke="black" points="292.38,-50.62 240.51,-50.62 238.38,-48.49 238.38,-31.38 290.24,-31.38 292.38,-33.51 292.38,-50.62"/>
<polyline fill="none" stroke="black" points="290.24,-48.49 238.38,-48.49"/>
<polyline fill="none" stroke="black" points="290.24,-48.49 290.24,-31.38"/>
<polyline fill="none" stroke="black" points="290.24,-48.49 292.38,-50.62"/>
<text text-anchor="start" x="252.25" y="-38.08" font-family="Helvetica,sans-Serif" font-size="9.00">stores</text>
</a>
</g>
</g>
<!-- src/presentation/components&#45;&gt;src/presentation/stores -->
<g id="edge4" class="edge">
<title>src/presentation/components&#45;&gt;src/presentation/stores</title>
<path fill="none" stroke="#000000" stroke-width="2" stroke-opacity="0.200000" d="M221.21,-44.95C223.85,-44.71 226.52,-44.46 229.18,-44.22"/>
<polygon fill="#000000" fill-opacity="0.200000" stroke="#000000" stroke-width="2" stroke-opacity="0.200000" points="229.25,-46.32 235.04,-43.68 228.87,-42.14 229.25,-46.32"/>
</g>
<!-- src/presentation/views&#45;&gt;src/presentation/components -->
<g id="edge6" class="edge">
<title>src/presentation/views&#45;&gt;src/presentation/components</title>
<path fill="none" stroke="#000000" stroke-width="2" stroke-opacity="0.200000" d="M140.36,-48C141.48,-48 142.62,-48 143.77,-48"/>
<polygon fill="#000000" fill-opacity="0.200000" stroke="#000000" stroke-width="2" stroke-opacity="0.200000" points="143.64,-50.1 149.64,-48 143.64,-45.9 143.64,-50.1"/>
</g>
<!-- src/presentation/views&#45;&gt;src/presentation/stores -->
<g id="edge7" class="edge">
<title>src/presentation/views&#45;&gt;src/presentation/stores</title>
<path fill="none" stroke="#000000" stroke-width="2" stroke-opacity="0.200000" d="M134.18,-37.98C140.1,-35.53 146.68,-33.25 153,-32 178.26,-27.02 207.26,-29.62 229.34,-33.28"/>
<polygon fill="#000000" fill-opacity="0.200000" stroke="#000000" stroke-width="2" stroke-opacity="0.200000" points="228.78,-35.32 235.06,-34.31 229.52,-31.18 228.78,-35.32"/>
</g>
</g>
</svg>
