<?xml version="1.0" encoding="UTF-8" standalone="no"?>
<!DOCTYPE svg PUBLIC "-//W3C//DTD SVG 1.1//EN"
 "http://www.w3.org/Graphics/SVG/1.1/DTD/svg11.dtd">
<!-- Generated by graphviz version 2.43.0 (0)
 -->
<!-- Title: dependency&#45;cruiser output Pages: 1 -->
<svg width="339pt" height="244pt"
 viewBox="0.00 0.00 339.00 244.00" xmlns="http://www.w3.org/2000/svg" xmlns:xlink="http://www.w3.org/1999/xlink">
<g id="graph0" class="graph" transform="scale(1 1) rotate(0) translate(4 240)">
<title>dependency&#45;cruiser output</title>
<polygon fill="white" stroke="transparent" points="-4,4 -4,-240 335,-240 335,4 -4,4"/>
<g id="clust1" class="cluster">
<title>cluster_src</title>
<path fill="#ffffff" stroke="black" stroke-width="2" d="M20,-8C20,-8 312,-8 312,-8 318,-8 324,-14 324,-20 324,-20 324,-216 324,-216 324,-222 318,-228 312,-228 312,-228 20,-228 20,-228 14,-228 8,-222 8,-216 8,-216 8,-20 8,-20 8,-14 14,-8 20,-8"/>
<text text-anchor="middle" x="166" y="-216.8" font-family="Helvetica,sans-Serif" font-weight="bold" font-size="9.00">src</text>
</g>
<g id="clust2" class="cluster">
<title>cluster_src/application</title>
<path fill="#ffffff" stroke="black" stroke-width="2" d="M254,-90C254,-90 304,-90 304,-90 310,-90 316,-96 316,-102 316,-102 316,-130 316,-130 316,-136 310,-142 304,-142 304,-142 254,-142 254,-142 248,-142 242,-136 242,-130 242,-130 242,-102 242,-102 242,-96 248,-90 254,-90"/>
<text text-anchor="middle" x="279" y="-130.8" font-family="Helvetica,sans-Serif" font-weight="bold" font-size="9.00">application</text>
</g>
<g id="clust3" class="cluster">
<title>cluster_src/domain</title>
<path fill="#ffffff" stroke="black" stroke-width="2" d="M255.5,-150C255.5,-150 301.5,-150 301.5,-150 307.5,-150 313.5,-156 313.5,-162 313.5,-162 313.5,-190 313.5,-190 313.5,-196 307.5,-202 301.5,-202 301.5,-202 255.5,-202 255.5,-202 249.5,-202 243.5,-196 243.5,-190 243.5,-190 243.5,-162 243.5,-162 243.5,-156 249.5,-150 255.5,-150"/>
<text text-anchor="middle" x="278.5" y="-190.8" font-family="Helvetica,sans-Serif" font-weight="bold" font-size="9.00">domain</text>
</g>
<g id="clust4" class="cluster">
<title>cluster_src/presentation</title>
<path fill="#ffffff" stroke="black" stroke-width="2" d="M90,-16C90,-16 301.5,-16 301.5,-16 307.5,-16 313.5,-22 313.5,-28 313.5,-28 313.5,-70 313.5,-70 313.5,-76 307.5,-82 301.5,-82 301.5,-82 90,-82 90,-82 84,-82 78,-76 78,-70 78,-70 78,-28 78,-28 78,-22 84,-16 90,-16"/>
<text text-anchor="middle" x="195.75" y="-70.8" font-family="Helvetica,sans-Serif" font-weight="bold" font-size="9.00">presentation</text>
</g>
<!-- src/App.vue -->
<g id="node1" class="node">
<title>src/App.vue</title>
<g id="a_node1"><a xlink:href="src/App.vue" xlink:title="App.vue">
<path fill="#41f083" stroke="black" d="M64,-45C64,-45 22,-45 22,-45 19,-45 16,-42 16,-39 16,-39 16,-33 16,-33 16,-30 19,-27 22,-27 22,-27 64,-27 64,-27 67,-27 70,-30 70,-33 70,-33 70,-39 70,-39 70,-42 67,-45 64,-45"/>
<text text-anchor="start" x="24" y="-33.8" font-family="Helvetica,sans-Serif" font-size="9.00">App.vue</text>
</a>
</g>
</g>
<!-- src/presentation/components -->
<g id="node2" class="node">
<title>src/presentation/components</title>
<g id="a_node2"><a xlink:href="src/presentation/components" xlink:title="components">
<polygon fill="#ffffcc" stroke="black" points="226,-56 155,-56 153,-54 153,-38 224,-38 226,-40 226,-56"/>
<polyline fill="none" stroke="black" points="224,-54 153,-54 "/>
<polyline fill="none" stroke="black" points="224,-54 224,-38 "/>
<polyline fill="none" stroke="black" points="224,-54 226,-56 "/>
<text text-anchor="start" x="161" y="-44.8" font-family="Helvetica,sans-Serif" font-size="9.00">components</text>
</a>
</g>
</g>
<!-- src/App.vue&#45;&gt;src/presentation/components -->
<g id="edge1" class="edge">
<title>src/App.vue&#45;&gt;src/presentation/components</title>
<path fill="none" stroke="#000000" stroke-width="2" stroke-opacity="0.200000" d="M70.33,-32.59C72.92,-32.35 75.51,-32.15 78,-32 105.51,-30.39 112.75,-27.88 140,-32 146.01,-32.91 152.31,-34.42 158.3,-36.14"/>
<polygon fill="#000000" fill-opacity="0.200000" stroke="#000000" stroke-width="2" stroke-opacity="0.200000" points="157.81,-38.18 164.16,-37.91 159.03,-34.16 157.81,-38.18"/>
</g>
<!-- src/presentation/views -->
<g id="node3" class="node">
<title>src/presentation/views</title>
<g id="a_node3"><a xlink:href="src/presentation/views" xlink:title="views">
<polygon fill="#ffffcc" stroke="black" points="140,-56 88,-56 86,-54 86,-38 138,-38 140,-40 140,-56"/>
<polyline fill="none" stroke="black" points="138,-54 86,-54 "/>
<polyline fill="none" stroke="black" points="138,-54 138,-38 "/>
<polyline fill="none" stroke="black" points="138,-54 140,-56 "/>
<text text-anchor="start" x="100.5" y="-44.8" font-family="Helvetica,sans-Serif" font-size="9.00">views</text>
</a>
</g>
</g>
<!-- src/App.vue&#45;&gt;src/presentation/views -->
<g id="edge2" class="edge">
<title>src/App.vue&#45;&gt;src/presentation/views</title>
<path fill="none" stroke="#000000" stroke-width="2" stroke-opacity="0.200000" d="M70.1,-40.22C73.12,-40.71 76.23,-41.21 79.33,-41.72"/>
<polygon fill="#000000" fill-opacity="0.200000" stroke="#000000" stroke-width="2" stroke-opacity="0.200000" points="79.38,-43.85 85.64,-42.74 80.05,-39.7 79.38,-43.85"/>
</g>
<!-- src/application/usecases -->
<g id="node4" class="node">
<title>src/application/usecases</title>
<g id="a_node4"><a xlink:href="src/application/usecases" xlink:title="usecases">
<polygon fill="#ffffcc" stroke="black" points="307,-116 252,-116 250,-114 250,-98 305,-98 307,-100 307,-116"/>
<polyline fill="none" stroke="black" points="305,-114 250,-114 "/>
<polyline fill="none" stroke="black" points="305,-114 305,-98 "/>
<polyline fill="none" stroke="black" points="305,-114 307,-116 "/>
<text text-anchor="start" x="258" y="-104.8" font-family="Helvetica,sans-Serif" font-size="9.00">usecases</text>
</a>
</g>
</g>
<!-- src/presentation/components&#45;&gt;src/application/usecases -->
<g id="edge3" class="edge">
<title>src/presentation/components&#45;&gt;src/application/usecases</title>
<path fill="none" stroke="#000000" stroke-opacity="0.200000" d="M202.17,-56.03C212.48,-63.91 228.02,-75.53 242,-85 246.76,-88.22 251.98,-91.56 256.92,-94.63"/>
<polygon fill="none" stroke="#000000" stroke-opacity="0.200000" points="255.92,-96.48 262.13,-97.85 258.12,-92.91 255.92,-96.48"/>
</g>
<!-- src/domain/entities -->
<g id="node5" class="node">
<title>src/domain/entities</title>
<g id="a_node5"><a xlink:href="src/domain/entities" xlink:title="entities">
<polygon fill="#ffffcc" stroke="black" points="305.5,-176 253.5,-176 251.5,-174 251.5,-158 303.5,-158 305.5,-160 305.5,-176"/>
<polyline fill="none" stroke="black" points="303.5,-174 251.5,-174 "/>
<polyline fill="none" stroke="black" points="303.5,-174 303.5,-158 "/>
<polyline fill="none" stroke="black" points="303.5,-174 305.5,-176 "/>
<text text-anchor="start" x="261.5" y="-164.8" font-family="Helvetica,sans-Serif" font-size="9.00">entities</text>
</a>
</g>
</g>
<!-- src/presentation/components&#45;&gt;src/domain/entities -->
<g id="edge5" class="edge">
<title>src/presentation/components&#45;&gt;src/domain/entities</title>
<path fill="none" stroke="#000000" stroke-opacity="0.200000" d="M193.43,-56.08C199.78,-74.63 216.32,-117.43 242,-145 245.34,-148.58 249.38,-151.8 253.53,-154.61"/>
<polygon fill="none" stroke="#000000" stroke-opacity="0.200000" points="252.6,-156.5 258.79,-157.93 254.84,-152.95 252.6,-156.5"/>
</g>
<!-- src/presentation/stores -->
<g id="node6" class="node">
<title>src/presentation/stores</title>
<g id="a_node6"><a xlink:href="src/presentation/stores" xlink:title="stores">
<polygon fill="#ffffcc" stroke="black" points="305.5,-49 253.5,-49 251.5,-47 251.5,-31 303.5,-31 305.5,-33 305.5,-49"/>
<polyline fill="none" stroke="black" points="303.5,-47 251.5,-47 "/>
<polyline fill="none" stroke="black" points="303.5,-47 303.5,-31 "/>
<polyline fill="none" stroke="black" points="303.5,-47 305.5,-49 "/>
<text text-anchor="start" x="264.5" y="-37.8" font-family="Helvetica,sans-Serif" font-size="9.00">stores</text>
</a>
</g>
</g>
<!-- src/presentation/components&#45;&gt;src/presentation/stores -->
<g id="edge4" class="edge">
<title>src/presentation/components&#45;&gt;src/presentation/stores</title>
<path fill="none" stroke="#000000" stroke-width="2" stroke-opacity="0.200000" d="M226.14,-44.13C232.47,-43.62 239.04,-43.09 245.27,-42.59"/>
<polygon fill="#000000" fill-opacity="0.200000" stroke="#000000" stroke-width="2" stroke-opacity="0.200000" points="245.56,-44.68 251.37,-42.1 245.22,-40.49 245.56,-44.68"/>
</g>
<!-- src/presentation/views&#45;&gt;src/presentation/components -->
<g id="edge6" class="edge">
<title>src/presentation/views&#45;&gt;src/presentation/components</title>
<path fill="none" stroke="#000000" stroke-width="2" stroke-opacity="0.200000" d="M140.06,-47C142.24,-47 144.48,-47 146.75,-47"/>
<polygon fill="#000000" fill-opacity="0.200000" stroke="#000000" stroke-width="2" stroke-opacity="0.200000" points="146.77,-49.1 152.77,-47 146.77,-44.9 146.77,-49.1"/>
</g>
<!-- src/presentation/views&#45;&gt;src/presentation/stores -->
<g id="edge7" class="edge">
<title>src/presentation/views&#45;&gt;src/presentation/stores</title>
<path fill="none" stroke="#000000" stroke-width="2" stroke-opacity="0.200000" d="M133.43,-37.92C139.56,-35.5 146.44,-33.22 153,-32 183.82,-26.28 219.59,-29.58 244.85,-33.54"/>
<polygon fill="#000000" fill-opacity="0.200000" stroke="#000000" stroke-width="2" stroke-opacity="0.200000" points="244.78,-35.65 251.04,-34.55 245.46,-31.51 244.78,-35.65"/>
</g>
</g>
</svg>
