<?xml version="1.0" encoding="UTF-8" standalone="no"?>
<!DOCTYPE svg PUBLIC "-//W3C//DTD SVG 1.1//EN"
 "http://www.w3.org/Graphics/SVG/1.1/DTD/svg11.dtd">
<!-- Generated by graphviz version 9.0.0 (20230911.1827)
 -->
<!-- Title: dependency&#45;cruiser output Pages: 1 -->
<svg width="527pt" height="334pt"
 viewBox="0.00 0.00 527.25 334.00" xmlns="http://www.w3.org/2000/svg" xmlns:xlink="http://www.w3.org/1999/xlink">
<g id="graph0" class="graph" transform="scale(1 1) rotate(0) translate(4 330)">
<title>dependency&#45;cruiser output</title>
<polygon fill="white" stroke="none" points="-4,4 -4,-330 523.25,-330 523.25,4 -4,4"/>
<g id="clust1" class="cluster">
<title>cluster_src</title>
<path fill="#ffffff" stroke="black" stroke-width="2" d="M20,-8C20,-8 499.25,-8 499.25,-8 505.25,-8 511.25,-14 511.25,-20 511.25,-20 511.25,-306 511.25,-306 511.25,-312 505.25,-318 499.25,-318 499.25,-318 20,-318 20,-318 14,-318 8,-312 8,-306 8,-306 8,-20 8,-20 8,-14 14,-8 20,-8"/>
<text text-anchor="middle" x="259.62" y="-305.45" font-family="Helvetica,sans-Serif" font-weight="bold" font-size="9.00">src</text>
</g>
<g id="clust3" class="cluster">
<title>cluster_src/components</title>
<path fill="#ffffff" stroke="black" stroke-width="2" d="M198.25,-16C198.25,-16 413.25,-16 413.25,-16 419.25,-16 425.25,-22 425.25,-28 425.25,-28 425.25,-185 425.25,-185 425.25,-191 419.25,-197 413.25,-197 413.25,-197 198.25,-197 198.25,-197 192.25,-197 186.25,-191 186.25,-185 186.25,-185 186.25,-28 186.25,-28 186.25,-22 192.25,-16 198.25,-16"/>
<text text-anchor="middle" x="305.75" y="-184.45" font-family="Helvetica,sans-Serif" font-weight="bold" font-size="9.00">components</text>
</g>
<g id="clust4" class="cluster">
<title>cluster_src/components/inputs</title>
<path fill="#ffffff" stroke="black" stroke-width="2" d="M213,-115C213,-115 297.5,-115 297.5,-115 303.5,-115 309.5,-121 309.5,-127 309.5,-127 309.5,-158 309.5,-158 309.5,-164 303.5,-170 297.5,-170 297.5,-170 213,-170 213,-170 207,-170 201,-164 201,-158 201,-158 201,-127 201,-127 201,-121 207,-115 213,-115"/>
<text text-anchor="middle" x="255.25" y="-157.45" font-family="Helvetica,sans-Serif" font-weight="bold" font-size="9.00">inputs</text>
</g>
<g id="clust5" class="cluster">
<title>cluster_src/components/utils</title>
<path fill="#ffffff" stroke="black" stroke-width="2" d="M206.25,-52C206.25,-52 304.25,-52 304.25,-52 310.25,-52 316.25,-58 316.25,-64 316.25,-64 316.25,-95 316.25,-95 316.25,-101 310.25,-107 304.25,-107 304.25,-107 206.25,-107 206.25,-107 200.25,-107 194.25,-101 194.25,-95 194.25,-95 194.25,-64 194.25,-64 194.25,-58 200.25,-52 206.25,-52"/>
<text text-anchor="middle" x="255.25" y="-94.45" font-family="Helvetica,sans-Serif" font-weight="bold" font-size="9.00">utils</text>
</g>
<g id="clust2" class="cluster">
<title>cluster_src/application</title>
<path fill="#ffffff" stroke="black" stroke-width="2" d="M445.25,-115C445.25,-115 491.25,-115 491.25,-115 497.25,-115 503.25,-121 503.25,-127 503.25,-127 503.25,-158 503.25,-158 503.25,-164 497.25,-170 491.25,-170 491.25,-170 445.25,-170 445.25,-170 439.25,-170 433.25,-164 433.25,-158 433.25,-158 433.25,-127 433.25,-127 433.25,-121 439.25,-115 445.25,-115"/>
<text text-anchor="middle" x="468.25" y="-157.45" font-family="Helvetica,sans-Serif" font-weight="bold" font-size="9.00">application</text>
</g>
<g id="clust7" class="cluster">
<title>cluster_src/views</title>
<path fill="#ffffff" stroke="black" stroke-width="2" d="M90,-128C90,-128 166.25,-128 166.25,-128 172.25,-128 178.25,-134 178.25,-140 178.25,-140 178.25,-202 178.25,-202 178.25,-208 172.25,-214 166.25,-214 166.25,-214 90,-214 90,-214 84,-214 78,-208 78,-202 78,-202 78,-140 78,-140 78,-134 84,-128 90,-128"/>
<text text-anchor="middle" x="128.12" y="-201.45" font-family="Helvetica,sans-Serif" font-weight="bold" font-size="9.00">views</text>
</g>
<g id="clust6" class="cluster">
<title>cluster_src/stores</title>
<path fill="#ffffff" stroke="black" stroke-width="2" d="M336.25,-205C336.25,-205 412.5,-205 412.5,-205 418.5,-205 424.5,-211 424.5,-217 424.5,-217 424.5,-279 424.5,-279 424.5,-285 418.5,-291 412.5,-291 412.5,-291 336.25,-291 336.25,-291 330.25,-291 324.25,-285 324.25,-279 324.25,-279 324.25,-217 324.25,-217 324.25,-211 330.25,-205 336.25,-205"/>
<text text-anchor="middle" x="374.38" y="-278.45" font-family="Helvetica,sans-Serif" font-weight="bold" font-size="9.00">stores</text>
</g>
<!-- src/App.vue -->
<g id="node1" class="node">
<title>src/App.vue</title>
<g id="a_node1"><a xlink:href="src/App.vue" xlink:title="App.vue">
<path fill="#41f083" stroke="black" d="M63.58,-155.62C63.58,-155.62 22.42,-155.62 22.42,-155.62 19.21,-155.62 16,-152.42 16,-149.21 16,-149.21 16,-142.79 16,-142.79 16,-139.58 19.21,-136.38 22.42,-136.38 22.42,-136.38 63.58,-136.38 63.58,-136.38 66.79,-136.38 70,-139.58 70,-142.79 70,-142.79 70,-149.21 70,-149.21 70,-152.42 66.79,-155.62 63.58,-155.62"/>
<text text-anchor="start" x="26.88" y="-143.07" font-family="Helvetica,sans-Serif" font-size="9.00">App.vue</text>
</a>
</g>
</g>
<!-- src/components/utils/DiagnosticsPanel.vue -->
<g id="node2" class="node">
<title>src/components/utils/DiagnosticsPanel.vue</title>
<g id="a_node2"><a xlink:href="src/components/utils/DiagnosticsPanel.vue" xlink:title="DiagnosticsPanel.vue">
<path fill="#41f083" stroke="black" d="M301.83,-79.62C301.83,-79.62 208.67,-79.62 208.67,-79.62 205.46,-79.62 202.25,-76.42 202.25,-73.21 202.25,-73.21 202.25,-66.79 202.25,-66.79 202.25,-63.58 205.46,-60.38 208.67,-60.38 208.67,-60.38 301.83,-60.38 301.83,-60.38 305.04,-60.38 308.25,-63.58 308.25,-66.79 308.25,-66.79 308.25,-73.21 308.25,-73.21 308.25,-76.42 305.04,-79.62 301.83,-79.62"/>
<text text-anchor="start" x="210.25" y="-67.08" font-family="Helvetica,sans-Serif" font-size="9.00">DiagnosticsPanel.vue</text>
</a>
</g>
</g>
<!-- src/App.vue&#45;&gt;src/components/utils/DiagnosticsPanel.vue -->
<g id="edge1" class="edge">
<title>src/App.vue&#45;&gt;src/components/utils/DiagnosticsPanel.vue</title>
<path fill="none" stroke="#000000" stroke-width="2" stroke-opacity="0.200000" d="M58.45,-135.96C64.33,-132.18 71.31,-128.05 78,-125 118.63,-106.47 167.25,-91.82 203.11,-82.31"/>
<polygon fill="#000000" fill-opacity="0.200000" stroke="#000000" stroke-width="2" stroke-opacity="0.200000" points="203.28,-84.44 208.56,-80.89 202.22,-80.37 203.28,-84.44"/>
</g>
<!-- src/views/NavBar.vue -->
<g id="node3" class="node">
<title>src/views/NavBar.vue</title>
<g id="a_node3"><a xlink:href="src/views/NavBar.vue" xlink:title="NavBar.vue">
<path fill="#41f083" stroke="black" d="M152.96,-186.62C152.96,-186.62 103.29,-186.62 103.29,-186.62 100.08,-186.62 96.88,-183.42 96.88,-180.21 96.88,-180.21 96.88,-173.79 96.88,-173.79 96.88,-170.58 100.08,-167.38 103.29,-167.38 103.29,-167.38 152.96,-167.38 152.96,-167.38 156.17,-167.38 159.38,-170.58 159.38,-173.79 159.38,-173.79 159.38,-180.21 159.38,-180.21 159.38,-183.42 156.17,-186.62 152.96,-186.62"/>
<text text-anchor="start" x="104.88" y="-174.07" font-family="Helvetica,sans-Serif" font-size="9.00">NavBar.vue</text>
</a>
</g>
</g>
<!-- src/App.vue&#45;&gt;src/views/NavBar.vue -->
<g id="edge2" class="edge">
<title>src/App.vue&#45;&gt;src/views/NavBar.vue</title>
<path fill="none" stroke="#000000" stroke-width="2" stroke-opacity="0.200000" d="M63.93,-155.96C68.5,-158.08 73.37,-160.22 78,-162 81.23,-163.25 84.61,-164.46 88.02,-165.62"/>
<polygon fill="#000000" fill-opacity="0.200000" stroke="#000000" stroke-width="2" stroke-opacity="0.200000" points="87.26,-167.58 93.62,-167.45 88.57,-163.59 87.26,-167.58"/>
</g>
<!-- src/views/VideoGallery.vue -->
<g id="node4" class="node">
<title>src/views/VideoGallery.vue</title>
<g id="a_node4"><a xlink:href="src/views/VideoGallery.vue" xlink:title="VideoGallery.vue">
<path fill="#41f083" stroke="black" d="M163.83,-155.62C163.83,-155.62 92.42,-155.62 92.42,-155.62 89.21,-155.62 86,-152.42 86,-149.21 86,-149.21 86,-142.79 86,-142.79 86,-139.58 89.21,-136.38 92.42,-136.38 92.42,-136.38 163.83,-136.38 163.83,-136.38 167.04,-136.38 170.25,-139.58 170.25,-142.79 170.25,-142.79 170.25,-149.21 170.25,-149.21 170.25,-152.42 167.04,-155.62 163.83,-155.62"/>
<text text-anchor="start" x="94" y="-143.07" font-family="Helvetica,sans-Serif" font-size="9.00">VideoGallery.vue</text>
</a>
</g>
</g>
<!-- src/App.vue&#45;&gt;src/views/VideoGallery.vue -->
<g id="edge3" class="edge">
<title>src/App.vue&#45;&gt;src/views/VideoGallery.vue</title>
<path fill="none" stroke="#000000" stroke-width="2" stroke-opacity="0.200000" d="M70.3,-146C72.42,-146 74.61,-146 76.83,-146"/>
<polygon fill="#000000" fill-opacity="0.200000" stroke="#000000" stroke-width="2" stroke-opacity="0.200000" points="76.47,-148.1 82.47,-146 76.47,-143.9 76.47,-148.1"/>
</g>
<!-- src/stores/appStateStore.ts -->
<g id="node10" class="node">
<title>src/stores/appStateStore.ts</title>
<g id="a_node10"><a xlink:href="src/stores/appStateStore.ts" xlink:title="appStateStore.ts">
<path fill="#ddfeff" stroke="black" d="M410.08,-232.62C410.08,-232.62 338.67,-232.62 338.67,-232.62 335.46,-232.62 332.25,-229.42 332.25,-226.21 332.25,-226.21 332.25,-219.79 332.25,-219.79 332.25,-216.58 335.46,-213.38 338.67,-213.38 338.67,-213.38 410.08,-213.38 410.08,-213.38 413.29,-213.38 416.5,-216.58 416.5,-219.79 416.5,-219.79 416.5,-226.21 416.5,-226.21 416.5,-229.42 413.29,-232.62 410.08,-232.62"/>
<text text-anchor="start" x="340.25" y="-220.07" font-family="Helvetica,sans-Serif" font-size="9.00">appStateStore.ts</text>
</a>
</g>
</g>
<!-- src/components/utils/DiagnosticsPanel.vue&#45;&gt;src/stores/appStateStore.ts -->
<g id="edge8" class="edge">
<title>src/components/utils/DiagnosticsPanel.vue&#45;&gt;src/stores/appStateStore.ts</title>
<path fill="none" stroke="#000000" stroke-width="2" stroke-opacity="0.200000" d="M279.52,-80.12C292.62,-87.09 307.96,-97.7 316.25,-112 326.1,-128.99 312.97,-183.93 324.25,-200 326.44,-203.12 329.17,-205.83 332.21,-208.18"/>
<polygon fill="#000000" fill-opacity="0.200000" stroke="#000000" stroke-width="2" stroke-opacity="0.200000" points="331.03,-209.92 337.21,-211.4 333.3,-206.39 331.03,-209.92"/>
</g>
<!-- src/components/inputs/FolderSelector.vue -->
<g id="node8" class="node">
<title>src/components/inputs/FolderSelector.vue</title>
<g id="a_node8"><a xlink:href="src/components/inputs/FolderSelector.vue" xlink:title="FolderSelector.vue">
<path fill="#41f083" stroke="black" d="M295.08,-142.62C295.08,-142.62 215.42,-142.62 215.42,-142.62 212.21,-142.62 209,-139.42 209,-136.21 209,-136.21 209,-129.79 209,-129.79 209,-126.58 212.21,-123.38 215.42,-123.38 215.42,-123.38 295.08,-123.38 295.08,-123.38 298.29,-123.38 301.5,-126.58 301.5,-129.79 301.5,-129.79 301.5,-136.21 301.5,-136.21 301.5,-139.42 298.29,-142.62 295.08,-142.62"/>
<text text-anchor="start" x="217" y="-130.07" font-family="Helvetica,sans-Serif" font-size="9.00">FolderSelector.vue</text>
</a>
</g>
</g>
<!-- src/views/NavBar.vue&#45;&gt;src/components/inputs/FolderSelector.vue -->
<g id="edge10" class="edge">
<title>src/views/NavBar.vue&#45;&gt;src/components/inputs/FolderSelector.vue</title>
<path fill="none" stroke="#000000" stroke-width="2" stroke-opacity="0.200000" d="M159.63,-168.04C165.82,-166.12 172.26,-164.05 178.25,-162 192.28,-157.19 207.58,-151.45 220.76,-146.34"/>
<polygon fill="#000000" fill-opacity="0.200000" stroke="#000000" stroke-width="2" stroke-opacity="0.200000" points="221.43,-148.34 226.25,-144.2 219.9,-144.42 221.43,-148.34"/>
</g>
<!-- src/stores/videosStore.ts -->
<g id="node9" class="node">
<title>src/stores/videosStore.ts</title>
<g id="a_node9"><a xlink:href="src/stores/videosStore.ts" xlink:title="videosStore.ts">
<path fill="#ddfeff" stroke="black" d="M405.21,-263.62C405.21,-263.62 343.54,-263.62 343.54,-263.62 340.33,-263.62 337.12,-260.42 337.12,-257.21 337.12,-257.21 337.12,-250.79 337.12,-250.79 337.12,-247.58 340.33,-244.38 343.54,-244.38 343.54,-244.38 405.21,-244.38 405.21,-244.38 408.42,-244.38 411.62,-247.58 411.62,-250.79 411.62,-250.79 411.62,-257.21 411.62,-257.21 411.62,-260.42 408.42,-263.62 405.21,-263.62"/>
<text text-anchor="start" x="345.12" y="-251.07" font-family="Helvetica,sans-Serif" font-size="9.00">videosStore.ts</text>
</a>
</g>
</g>
<!-- src/views/NavBar.vue&#45;&gt;src/stores/videosStore.ts -->
<g id="edge12" class="edge">
<title>src/views/NavBar.vue&#45;&gt;src/stores/videosStore.ts</title>
<path fill="none" stroke="#000000" stroke-width="2" stroke-opacity="0.200000" d="M148.06,-187.01C159.01,-192.52 173.17,-199.21 186.25,-204 233.8,-221.43 290.17,-235.66 328.52,-244.42"/>
<polygon fill="#000000" fill-opacity="0.200000" stroke="#000000" stroke-width="2" stroke-opacity="0.200000" points="327.63,-246.37 333.95,-245.64 328.56,-242.27 327.63,-246.37"/>
</g>
<!-- src/views/NavBar.vue&#45;&gt;src/stores/appStateStore.ts -->
<g id="edge11" class="edge">
<title>src/views/NavBar.vue&#45;&gt;src/stores/appStateStore.ts</title>
<path fill="none" stroke="#000000" stroke-width="2" stroke-opacity="0.200000" d="M159.57,-182.73C200.58,-190.46 274.12,-204.31 323.33,-213.58"/>
<polygon fill="#000000" fill-opacity="0.200000" stroke="#000000" stroke-width="2" stroke-opacity="0.200000" points="322.66,-215.59 328.94,-214.63 323.44,-211.46 322.66,-215.59"/>
</g>
<!-- src/components/VideoCard.vue -->
<g id="node6" class="node">
<title>src/components/VideoCard.vue</title>
<g id="a_node6"><a xlink:href="src/components/VideoCard.vue" xlink:title="VideoCard.vue">
<path fill="#41f083" stroke="black" d="M286.83,-43.62C286.83,-43.62 223.67,-43.62 223.67,-43.62 220.46,-43.62 217.25,-40.42 217.25,-37.21 217.25,-37.21 217.25,-30.79 217.25,-30.79 217.25,-27.58 220.46,-24.38 223.67,-24.38 223.67,-24.38 286.83,-24.38 286.83,-24.38 290.04,-24.38 293.25,-27.58 293.25,-30.79 293.25,-30.79 293.25,-37.21 293.25,-37.21 293.25,-40.42 290.04,-43.62 286.83,-43.62"/>
<text text-anchor="start" x="225.25" y="-31.07" font-family="Helvetica,sans-Serif" font-size="9.00">VideoCard.vue</text>
</a>
</g>
</g>
<!-- src/views/VideoGallery.vue&#45;&gt;src/components/VideoCard.vue -->
<g id="edge13" class="edge">
<title>src/views/VideoGallery.vue&#45;&gt;src/components/VideoCard.vue</title>
<path fill="none" stroke="#000000" stroke-width="2" stroke-opacity="0.200000" d="M132.06,-135.92C138.41,-115.95 155.41,-71.39 186.25,-49 192.79,-44.25 200.55,-40.96 208.44,-38.69"/>
<polygon fill="#000000" fill-opacity="0.200000" stroke="#000000" stroke-width="2" stroke-opacity="0.200000" points="208.74,-40.78 214.07,-37.32 207.75,-36.7 208.74,-40.78"/>
</g>
<!-- src/views/VideoGallery.vue&#45;&gt;src/stores/videosStore.ts -->
<g id="edge14" class="edge">
<title>src/views/VideoGallery.vue&#45;&gt;src/stores/videosStore.ts</title>
<path fill="none" stroke="#000000" stroke-width="2" stroke-opacity="0.200000" d="M169.9,-155.95C172.85,-157.41 175.67,-159.08 178.25,-161 183.39,-164.83 181.1,-169.19 186.25,-173 234.74,-208.88 273.67,-169.27 316.25,-212 325.08,-220.86 315.44,-230.11 324.25,-239 325.68,-240.44 327.24,-241.74 328.9,-242.92"/>
<polygon fill="#000000" fill-opacity="0.200000" stroke="#000000" stroke-width="2" stroke-opacity="0.200000" points="327.82,-244.72 334.08,-245.84 329.88,-241.06 327.82,-244.72"/>
</g>
<!-- src/application/index.ts -->
<g id="node5" class="node">
<title>src/application/index.ts</title>
<g id="a_node5"><a xlink:href="src/application/index.ts" xlink:title="index.ts">
<path fill="#ddfeff" stroke="black" d="M488.83,-142.62C488.83,-142.62 447.67,-142.62 447.67,-142.62 444.46,-142.62 441.25,-139.42 441.25,-136.21 441.25,-136.21 441.25,-129.79 441.25,-129.79 441.25,-126.58 444.46,-123.38 447.67,-123.38 447.67,-123.38 488.83,-123.38 488.83,-123.38 492.04,-123.38 495.25,-126.58 495.25,-129.79 495.25,-129.79 495.25,-136.21 495.25,-136.21 495.25,-139.42 492.04,-142.62 488.83,-142.62"/>
<text text-anchor="start" x="452.5" y="-130.07" font-family="Helvetica,sans-Serif" font-size="9.00">index.ts</text>
</a>
</g>
</g>
<!-- src/components/VideoCard.vue&#45;&gt;src/application/index.ts -->
<g id="edge5" class="edge">
<title>src/components/VideoCard.vue&#45;&gt;src/application/index.ts</title>
<path fill="none" stroke="#000000" stroke-width="2" stroke-opacity="0.200000" d="M293.54,-41.7C301.17,-43.73 309.06,-46.16 316.25,-49 364.45,-68.05 416.36,-99.64 445.02,-118.17"/>
<polygon fill="#000000" fill-opacity="0.200000" stroke="#000000" stroke-width="2" stroke-opacity="0.200000" points="443.76,-119.86 449.94,-121.38 446.06,-116.34 443.76,-119.86"/>
</g>
<!-- src/components/VideoEmbed.vue -->
<g id="node7" class="node">
<title>src/components/VideoEmbed.vue</title>
<g id="a_node7"><a xlink:href="src/components/VideoEmbed.vue" xlink:title="VideoEmbed.vue">
<path fill="#41f083" stroke="black" d="M410.83,-43.62C410.83,-43.62 337.92,-43.62 337.92,-43.62 334.71,-43.62 331.5,-40.42 331.5,-37.21 331.5,-37.21 331.5,-30.79 331.5,-30.79 331.5,-27.58 334.71,-24.38 337.92,-24.38 337.92,-24.38 410.83,-24.38 410.83,-24.38 414.04,-24.38 417.25,-27.58 417.25,-30.79 417.25,-30.79 417.25,-37.21 417.25,-37.21 417.25,-40.42 414.04,-43.62 410.83,-43.62"/>
<text text-anchor="start" x="339.5" y="-31.07" font-family="Helvetica,sans-Serif" font-size="9.00">VideoEmbed.vue</text>
</a>
</g>
</g>
<!-- src/components/VideoCard.vue&#45;&gt;src/components/VideoEmbed.vue -->
<g id="edge4" class="edge">
<title>src/components/VideoCard.vue&#45;&gt;src/components/VideoEmbed.vue</title>
<path fill="none" stroke="#000000" stroke-width="2" stroke-opacity="0.200000" d="M293.63,-34C302.75,-34 312.67,-34 322.31,-34"/>
<polygon fill="#000000" fill-opacity="0.200000" stroke="#000000" stroke-width="2" stroke-opacity="0.200000" points="322.03,-36.1 328.03,-34 322.03,-31.9 322.03,-36.1"/>
</g>
<!-- src/components/inputs/FolderSelector.vue&#45;&gt;src/application/index.ts -->
<g id="edge6" class="edge">
<title>src/components/inputs/FolderSelector.vue&#45;&gt;src/application/index.ts</title>
<path fill="none" stroke="#000000" stroke-width="2" stroke-opacity="0.200000" d="M301.77,-133C340.86,-133 396.4,-133 432.13,-133"/>
<polygon fill="#000000" fill-opacity="0.200000" stroke="#000000" stroke-width="2" stroke-opacity="0.200000" points="431.74,-135.1 437.74,-133 431.74,-130.9 431.74,-135.1"/>
</g>
<!-- src/components/inputs/FolderSelector.vue&#45;&gt;src/stores/videosStore.ts -->
<g id="edge7" class="edge">
<title>src/components/inputs/FolderSelector.vue&#45;&gt;src/stores/videosStore.ts</title>
<path fill="none" stroke="#000000" stroke-width="2" stroke-opacity="0.200000" d="M267.41,-142.71C281.09,-155.24 303.94,-178.38 316.25,-203 323.58,-217.66 313.12,-226.97 324.25,-239 325.79,-240.66 327.5,-242.14 329.34,-243.46"/>
<polygon fill="#000000" fill-opacity="0.200000" stroke="#000000" stroke-width="2" stroke-opacity="0.200000" points="328.08,-245.16 334.34,-246.28 330.15,-241.5 328.08,-245.16"/>
</g>
<!-- src/stores/videosStore.ts&#45;&gt;src/application/index.ts -->
<g id="edge9" class="edge">
<title>src/stores/videosStore.ts&#45;&gt;src/application/index.ts</title>
<path fill="none" stroke="#000000" stroke-width="2" stroke-opacity="0.200000" d="M412.05,-247.22C416.88,-245.16 421.45,-242.49 425.25,-239 450.49,-215.82 460.8,-175.5 464.83,-151.84"/>
<polygon fill="#000000" fill-opacity="0.200000" stroke="#000000" stroke-width="2" stroke-opacity="0.200000" points="466.88,-152.33 465.71,-146.09 462.73,-151.7 466.88,-152.33"/>
</g>
</g>
</svg>
