<?xml version="1.0" encoding="UTF-8" standalone="no"?>
<!DOCTYPE svg PUBLIC "-//W3C//DTD SVG 1.1//EN"
 "http://www.w3.org/Graphics/SVG/1.1/DTD/svg11.dtd">
<!-- Generated by graphviz version 9.0.0 (20230911.1827)
 -->
<!-- Title: dependency&#45;cruiser output Pages: 1 -->
<svg width="552pt" height="446pt"
 viewBox="0.00 0.00 552.12 446.00" xmlns="http://www.w3.org/2000/svg" xmlns:xlink="http://www.w3.org/1999/xlink">
<g id="graph0" class="graph" transform="scale(1 1) rotate(0) translate(4 442)">
<title>dependency&#45;cruiser output</title>
<polygon fill="white" stroke="none" points="-4,4 -4,-442 548.12,-442 548.12,4 -4,4"/>
<g id="clust1" class="cluster">
<title>cluster_src</title>
<path fill="#ffffff" stroke="black" stroke-width="2" d="M20,-8C20,-8 524.12,-8 524.12,-8 530.12,-8 536.12,-14 536.12,-20 536.12,-20 536.12,-418 536.12,-418 536.12,-424 530.12,-430 524.12,-430 524.12,-430 20,-430 20,-430 14,-430 8,-424 8,-418 8,-418 8,-20 8,-20 8,-14 14,-8 20,-8"/>
<text text-anchor="middle" x="272.06" y="-417.45" font-family="Helvetica,sans-Serif" font-weight="bold" font-size="9.00">src</text>
</g>
<g id="clust2" class="cluster">
<title>cluster_src/domain</title>
<path fill="#ffffff" stroke="black" stroke-width="2" d="M454.12,-259C454.12,-259 516.12,-259 516.12,-259 522.12,-259 528.12,-265 528.12,-271 528.12,-271 528.12,-337 528.12,-337 528.12,-343 522.12,-349 516.12,-349 516.12,-349 454.12,-349 454.12,-349 448.12,-349 442.12,-343 442.12,-337 442.12,-337 442.12,-271 442.12,-271 442.12,-265 448.12,-259 454.12,-259"/>
<text text-anchor="middle" x="485.12" y="-336.45" font-family="Helvetica,sans-Serif" font-weight="bold" font-size="9.00">domain</text>
</g>
<g id="clust3" class="cluster">
<title>cluster_src/domain/entities</title>
<path fill="#ffffff" stroke="black" stroke-width="2" d="M462.12,-267C462.12,-267 508.12,-267 508.12,-267 514.12,-267 520.12,-273 520.12,-279 520.12,-279 520.12,-310 520.12,-310 520.12,-316 514.12,-322 508.12,-322 508.12,-322 462.12,-322 462.12,-322 456.12,-322 450.12,-316 450.12,-310 450.12,-310 450.12,-279 450.12,-279 450.12,-273 456.12,-267 462.12,-267"/>
<text text-anchor="middle" x="485.12" y="-309.45" font-family="Helvetica,sans-Serif" font-weight="bold" font-size="9.00">entities</text>
</g>
<g id="clust4" class="cluster">
<title>cluster_src/infrastructure</title>
<path fill="#ffffff" stroke="black" stroke-width="2" d="M344.25,-303C344.25,-303 406.25,-303 406.25,-303 412.25,-303 418.25,-309 418.25,-315 418.25,-315 418.25,-381 418.25,-381 418.25,-387 412.25,-393 406.25,-393 406.25,-393 344.25,-393 344.25,-393 338.25,-393 332.25,-387 332.25,-381 332.25,-381 332.25,-315 332.25,-315 332.25,-309 338.25,-303 344.25,-303"/>
<text text-anchor="middle" x="375.25" y="-380.45" font-family="Helvetica,sans-Serif" font-weight="bold" font-size="9.00">infrastructure</text>
</g>
<g id="clust5" class="cluster">
<title>cluster_src/infrastructure/services</title>
<path fill="#ffffff" stroke="black" stroke-width="2" d="M352.25,-311C352.25,-311 398.25,-311 398.25,-311 404.25,-311 410.25,-317 410.25,-323 410.25,-323 410.25,-354 410.25,-354 410.25,-360 404.25,-366 398.25,-366 398.25,-366 352.25,-366 352.25,-366 346.25,-366 340.25,-360 340.25,-354 340.25,-354 340.25,-323 340.25,-323 340.25,-317 346.25,-311 352.25,-311"/>
<text text-anchor="middle" x="375.25" y="-353.45" font-family="Helvetica,sans-Serif" font-weight="bold" font-size="9.00">services</text>
</g>
<g id="clust6" class="cluster">
<title>cluster_src/presentation</title>
<path fill="#ffffff" stroke="black" stroke-width="2" d="M90,-16C90,-16 422.12,-16 422.12,-16 428.12,-16 434.12,-22 434.12,-28 434.12,-28 434.12,-283 434.12,-283 434.12,-289 428.12,-295 422.12,-295 422.12,-295 90,-295 90,-295 84,-295 78,-289 78,-283 78,-283 78,-28 78,-28 78,-22 84,-16 90,-16"/>
<text text-anchor="middle" x="256.06" y="-282.45" font-family="Helvetica,sans-Serif" font-weight="bold" font-size="9.00">presentation</text>
</g>
<g id="clust7" class="cluster">
<title>cluster_src/presentation/components</title>
<path fill="#ffffff" stroke="black" stroke-width="2" d="M206.25,-87C206.25,-87 414.12,-87 414.12,-87 420.12,-87 426.12,-93 426.12,-99 426.12,-99 426.12,-256 426.12,-256 426.12,-262 420.12,-268 414.12,-268 414.12,-268 206.25,-268 206.25,-268 200.25,-268 194.25,-262 194.25,-256 194.25,-256 194.25,-99 194.25,-99 194.25,-93 200.25,-87 206.25,-87"/>
<text text-anchor="middle" x="310.19" y="-255.45" font-family="Helvetica,sans-Serif" font-weight="bold" font-size="9.00">components</text>
</g>
<g id="clust9" class="cluster">
<title>cluster_src/presentation/components/utils</title>
<path fill="#ffffff" stroke="black" stroke-width="2" d="M214.25,-95C214.25,-95 312.25,-95 312.25,-95 318.25,-95 324.25,-101 324.25,-107 324.25,-107 324.25,-138 324.25,-138 324.25,-144 318.25,-150 312.25,-150 312.25,-150 214.25,-150 214.25,-150 208.25,-150 202.25,-144 202.25,-138 202.25,-138 202.25,-107 202.25,-107 202.25,-101 208.25,-95 214.25,-95"/>
<text text-anchor="middle" x="263.25" y="-137.45" font-family="Helvetica,sans-Serif" font-weight="bold" font-size="9.00">utils</text>
</g>
<g id="clust8" class="cluster">
<title>cluster_src/presentation/components/inputs</title>
<path fill="#ffffff" stroke="black" stroke-width="2" d="M233.38,-158C233.38,-158 293.12,-158 293.12,-158 299.12,-158 305.12,-164 305.12,-170 305.12,-170 305.12,-201 305.12,-201 305.12,-207 299.12,-213 293.12,-213 293.12,-213 233.38,-213 233.38,-213 227.38,-213 221.38,-207 221.38,-201 221.38,-201 221.38,-170 221.38,-170 221.38,-164 227.38,-158 233.38,-158"/>
<text text-anchor="middle" x="263.25" y="-200.45" font-family="Helvetica,sans-Serif" font-weight="bold" font-size="9.00">inputs</text>
</g>
<g id="clust10" class="cluster">
<title>cluster_src/presentation/stores</title>
<path fill="#ffffff" stroke="black" stroke-width="2" d="M352.25,-24C352.25,-24 398.25,-24 398.25,-24 404.25,-24 410.25,-30 410.25,-36 410.25,-36 410.25,-67 410.25,-67 410.25,-73 404.25,-79 398.25,-79 398.25,-79 352.25,-79 352.25,-79 346.25,-79 340.25,-73 340.25,-67 340.25,-67 340.25,-36 340.25,-36 340.25,-30 346.25,-24 352.25,-24"/>
<text text-anchor="middle" x="375.25" y="-66.45" font-family="Helvetica,sans-Serif" font-weight="bold" font-size="9.00">stores</text>
</g>
<g id="clust11" class="cluster">
<title>cluster_src/presentation/views</title>
<path fill="#ffffff" stroke="black" stroke-width="2" d="M98,-122C98,-122 174.25,-122 174.25,-122 180.25,-122 186.25,-128 186.25,-134 186.25,-134 186.25,-196 186.25,-196 186.25,-202 180.25,-208 174.25,-208 174.25,-208 98,-208 98,-208 92,-208 86,-202 86,-196 86,-196 86,-134 86,-134 86,-128 92,-122 98,-122"/>
<text text-anchor="middle" x="136.12" y="-195.45" font-family="Helvetica,sans-Serif" font-weight="bold" font-size="9.00">views</text>
</g>
<!-- src/App.vue -->
<g id="node1" class="node">
<title>src/App.vue</title>
<g id="a_node1"><a xlink:href="src/App.vue" xlink:title="App.vue">
<path fill="#41f083" stroke="black" d="M63.58,-149.62C63.58,-149.62 22.42,-149.62 22.42,-149.62 19.21,-149.62 16,-146.42 16,-143.21 16,-143.21 16,-136.79 16,-136.79 16,-133.58 19.21,-130.38 22.42,-130.38 22.42,-130.38 63.58,-130.38 63.58,-130.38 66.79,-130.38 70,-133.58 70,-136.79 70,-136.79 70,-143.21 70,-143.21 70,-146.42 66.79,-149.62 63.58,-149.62"/>
<text text-anchor="start" x="26.88" y="-137.07" font-family="Helvetica,sans-Serif" font-size="9.00">App.vue</text>
</a>
</g>
</g>
<!-- src/presentation/components/utils/DiagnosticsPanel.vue -->
<g id="node2" class="node">
<title>src/presentation/components/utils/DiagnosticsPanel.vue</title>
<g id="a_node2"><a xlink:href="src/presentation/components/utils/DiagnosticsPanel.vue" xlink:title="DiagnosticsPanel.vue">
<path fill="#41f083" stroke="black" d="M309.83,-122.62C309.83,-122.62 216.67,-122.62 216.67,-122.62 213.46,-122.62 210.25,-119.42 210.25,-116.21 210.25,-116.21 210.25,-109.79 210.25,-109.79 210.25,-106.58 213.46,-103.38 216.67,-103.38 216.67,-103.38 309.83,-103.38 309.83,-103.38 313.04,-103.38 316.25,-106.58 316.25,-109.79 316.25,-109.79 316.25,-116.21 316.25,-116.21 316.25,-119.42 313.04,-122.62 309.83,-122.62"/>
<text text-anchor="start" x="218.25" y="-110.08" font-family="Helvetica,sans-Serif" font-size="9.00">DiagnosticsPanel.vue</text>
</a>
</g>
</g>
<!-- src/App.vue&#45;&gt;src/presentation/components/utils/DiagnosticsPanel.vue -->
<g id="edge1" class="edge">
<title>src/App.vue&#45;&gt;src/presentation/components/utils/DiagnosticsPanel.vue</title>
<path fill="none" stroke="#000000" stroke-width="2" stroke-opacity="0.200000" d="M56.79,-129.89C62.86,-125.7 70.43,-121.28 78,-119 117.86,-106.98 164.78,-105.63 201.29,-107.2"/>
<polygon fill="#000000" fill-opacity="0.200000" stroke="#000000" stroke-width="2" stroke-opacity="0.200000" points="200.75,-109.28 206.84,-107.48 200.96,-105.08 200.75,-109.28"/>
</g>
<!-- src/presentation/views/NavBar.vue -->
<g id="node3" class="node">
<title>src/presentation/views/NavBar.vue</title>
<g id="a_node3"><a xlink:href="src/presentation/views/NavBar.vue" xlink:title="NavBar.vue">
<path fill="#41f083" stroke="black" d="M160.96,-149.62C160.96,-149.62 111.29,-149.62 111.29,-149.62 108.08,-149.62 104.88,-146.42 104.88,-143.21 104.88,-143.21 104.88,-136.79 104.88,-136.79 104.88,-133.58 108.08,-130.38 111.29,-130.38 111.29,-130.38 160.96,-130.38 160.96,-130.38 164.17,-130.38 167.38,-133.58 167.38,-136.79 167.38,-136.79 167.38,-143.21 167.38,-143.21 167.38,-146.42 164.17,-149.62 160.96,-149.62"/>
<text text-anchor="start" x="112.88" y="-137.07" font-family="Helvetica,sans-Serif" font-size="9.00">NavBar.vue</text>
</a>
</g>
</g>
<!-- src/App.vue&#45;&gt;src/presentation/views/NavBar.vue -->
<g id="edge2" class="edge">
<title>src/App.vue&#45;&gt;src/presentation/views/NavBar.vue</title>
<path fill="none" stroke="#000000" stroke-width="2" stroke-opacity="0.200000" d="M70.36,-140C78.32,-140 87.23,-140 95.84,-140"/>
<polygon fill="#000000" fill-opacity="0.200000" stroke="#000000" stroke-width="2" stroke-opacity="0.200000" points="95.62,-142.1 101.62,-140 95.62,-137.9 95.62,-142.1"/>
</g>
<!-- src/presentation/views/VideoGallery.vue -->
<g id="node4" class="node">
<title>src/presentation/views/VideoGallery.vue</title>
<g id="a_node4"><a xlink:href="src/presentation/views/VideoGallery.vue" xlink:title="VideoGallery.vue">
<path fill="#41f083" stroke="black" d="M171.83,-180.62C171.83,-180.62 100.42,-180.62 100.42,-180.62 97.21,-180.62 94,-177.42 94,-174.21 94,-174.21 94,-167.79 94,-167.79 94,-164.58 97.21,-161.38 100.42,-161.38 100.42,-161.38 171.83,-161.38 171.83,-161.38 175.04,-161.38 178.25,-164.58 178.25,-167.79 178.25,-167.79 178.25,-174.21 178.25,-174.21 178.25,-177.42 175.04,-180.62 171.83,-180.62"/>
<text text-anchor="start" x="102" y="-168.07" font-family="Helvetica,sans-Serif" font-size="9.00">VideoGallery.vue</text>
</a>
</g>
</g>
<!-- src/App.vue&#45;&gt;src/presentation/views/VideoGallery.vue -->
<g id="edge3" class="edge">
<title>src/App.vue&#45;&gt;src/presentation/views/VideoGallery.vue</title>
<path fill="none" stroke="#000000" stroke-width="2" stroke-opacity="0.200000" d="M63.88,-150.1C68.45,-152.21 73.34,-154.31 78,-156 80.35,-156.85 82.77,-157.68 85.22,-158.48"/>
<polygon fill="#000000" fill-opacity="0.200000" stroke="#000000" stroke-width="2" stroke-opacity="0.200000" points="84.42,-160.43 90.77,-160.18 85.65,-156.41 84.42,-160.43"/>
</g>
<!-- src/infrastructure/services/index.ts -->
<g id="node6" class="node">
<title>src/infrastructure/services/index.ts</title>
<g id="a_node6"><a xlink:href="src/infrastructure/services/index.ts" xlink:title="index.ts">
<path fill="#ddfeff" stroke="black" d="M395.83,-338.62C395.83,-338.62 354.67,-338.62 354.67,-338.62 351.46,-338.62 348.25,-335.42 348.25,-332.21 348.25,-332.21 348.25,-325.79 348.25,-325.79 348.25,-322.58 351.46,-319.38 354.67,-319.38 354.67,-319.38 395.83,-319.38 395.83,-319.38 399.04,-319.38 402.25,-322.58 402.25,-325.79 402.25,-325.79 402.25,-332.21 402.25,-332.21 402.25,-335.42 399.04,-338.62 395.83,-338.62"/>
<text text-anchor="start" x="359.5" y="-326.07" font-family="Helvetica,sans-Serif" font-size="9.00">index.ts</text>
</a>
</g>
</g>
<!-- src/presentation/components/utils/DiagnosticsPanel.vue&#45;&gt;src/infrastructure/services/index.ts -->
<g id="edge9" class="edge">
<title>src/presentation/components/utils/DiagnosticsPanel.vue&#45;&gt;src/infrastructure/services/index.ts</title>
<path fill="none" stroke="#000000" stroke-width="2" stroke-opacity="0.200000" d="M287.64,-123.05C300.77,-130 316.12,-140.61 324.25,-155 336.96,-177.49 323.44,-246.71 332.25,-271 337.88,-286.53 348.98,-301.57 358.36,-312.44"/>
<polygon fill="#000000" fill-opacity="0.200000" stroke="#000000" stroke-width="2" stroke-opacity="0.200000" points="356.6,-313.63 362.18,-316.69 359.73,-310.82 356.6,-313.63"/>
</g>
<!-- src/presentation/stores/index.ts -->
<g id="node9" class="node">
<title>src/presentation/stores/index.ts</title>
<g id="a_node9"><a xlink:href="src/presentation/stores/index.ts" xlink:title="index.ts">
<path fill="#ddfeff" stroke="black" d="M395.83,-51.62C395.83,-51.62 354.67,-51.62 354.67,-51.62 351.46,-51.62 348.25,-48.42 348.25,-45.21 348.25,-45.21 348.25,-38.79 348.25,-38.79 348.25,-35.58 351.46,-32.38 354.67,-32.38 354.67,-32.38 395.83,-32.38 395.83,-32.38 399.04,-32.38 402.25,-35.58 402.25,-38.79 402.25,-38.79 402.25,-45.21 402.25,-45.21 402.25,-48.42 399.04,-51.62 395.83,-51.62"/>
<text text-anchor="start" x="359.5" y="-39.08" font-family="Helvetica,sans-Serif" font-size="9.00">index.ts</text>
</a>
</g>
</g>
<!-- src/presentation/components/utils/DiagnosticsPanel.vue&#45;&gt;src/presentation/stores/index.ts -->
<g id="edge10" class="edge">
<title>src/presentation/components/utils/DiagnosticsPanel.vue&#45;&gt;src/presentation/stores/index.ts</title>
<path fill="none" stroke="#000000" stroke-width="2" stroke-opacity="0.200000" d="M280.93,-102.99C293.04,-95.65 309.77,-85.38 324.25,-76 333.65,-69.91 343.91,-62.99 352.67,-56.98"/>
<polygon fill="#000000" fill-opacity="0.200000" stroke="#000000" stroke-width="2" stroke-opacity="0.200000" points="353.68,-58.84 357.43,-53.71 351.3,-55.38 353.68,-58.84"/>
</g>
<!-- src/presentation/views/NavBar.vue&#45;&gt;src/presentation/stores/index.ts -->
<g id="edge12" class="edge">
<title>src/presentation/views/NavBar.vue&#45;&gt;src/presentation/stores/index.ts</title>
<path fill="none" stroke="#000000" stroke-width="2" stroke-opacity="0.200000" d="M141.83,-130.11C150.02,-114.1 168.52,-82.79 194.25,-68 239.36,-42.07 300.98,-38.75 339.16,-39.67"/>
<polygon fill="#000000" fill-opacity="0.200000" stroke="#000000" stroke-width="2" stroke-opacity="0.200000" points="338.78,-41.76 344.85,-39.87 338.92,-37.56 338.78,-41.76"/>
</g>
<!-- src/presentation/components/inputs/FileInput.vue -->
<g id="node10" class="node">
<title>src/presentation/components/inputs/FileInput.vue</title>
<g id="a_node10"><a xlink:href="src/presentation/components/inputs/FileInput.vue" xlink:title="FileInput.vue">
<path fill="#41f083" stroke="black" d="M290.71,-185.62C290.71,-185.62 235.79,-185.62 235.79,-185.62 232.58,-185.62 229.38,-182.42 229.38,-179.21 229.38,-179.21 229.38,-172.79 229.38,-172.79 229.38,-169.58 232.58,-166.38 235.79,-166.38 235.79,-166.38 290.71,-166.38 290.71,-166.38 293.92,-166.38 297.12,-169.58 297.12,-172.79 297.12,-172.79 297.12,-179.21 297.12,-179.21 297.12,-182.42 293.92,-185.62 290.71,-185.62"/>
<text text-anchor="start" x="237.38" y="-173.07" font-family="Helvetica,sans-Serif" font-size="9.00">FileInput.vue</text>
</a>
</g>
</g>
<!-- src/presentation/views/NavBar.vue&#45;&gt;src/presentation/components/inputs/FileInput.vue -->
<g id="edge11" class="edge">
<title>src/presentation/views/NavBar.vue&#45;&gt;src/presentation/components/inputs/FileInput.vue</title>
<path fill="none" stroke="#000000" stroke-width="2" stroke-opacity="0.200000" d="M167.73,-148.81C183.65,-153.39 203.34,-159.05 220.62,-164.02"/>
<polygon fill="#000000" fill-opacity="0.200000" stroke="#000000" stroke-width="2" stroke-opacity="0.200000" points="219.63,-165.92 225.97,-165.56 220.79,-161.89 219.63,-165.92"/>
</g>
<!-- src/presentation/components/VideoCard.vue -->
<g id="node7" class="node">
<title>src/presentation/components/VideoCard.vue</title>
<g id="a_node7"><a xlink:href="src/presentation/components/VideoCard.vue" xlink:title="VideoCard.vue">
<path fill="#41f083" stroke="black" d="M294.83,-240.62C294.83,-240.62 231.67,-240.62 231.67,-240.62 228.46,-240.62 225.25,-237.42 225.25,-234.21 225.25,-234.21 225.25,-227.79 225.25,-227.79 225.25,-224.58 228.46,-221.38 231.67,-221.38 231.67,-221.38 294.83,-221.38 294.83,-221.38 298.04,-221.38 301.25,-224.58 301.25,-227.79 301.25,-227.79 301.25,-234.21 301.25,-234.21 301.25,-237.42 298.04,-240.62 294.83,-240.62"/>
<text text-anchor="start" x="233.25" y="-228.07" font-family="Helvetica,sans-Serif" font-size="9.00">VideoCard.vue</text>
</a>
</g>
</g>
<!-- src/presentation/views/VideoGallery.vue&#45;&gt;src/presentation/components/VideoCard.vue -->
<g id="edge13" class="edge">
<title>src/presentation/views/VideoGallery.vue&#45;&gt;src/presentation/components/VideoCard.vue</title>
<path fill="none" stroke="#000000" stroke-width="2" stroke-opacity="0.200000" d="M146.7,-180.83C157.36,-191.16 175.54,-207.14 194.25,-216 201.08,-219.23 208.63,-221.78 216.15,-223.79"/>
<polygon fill="#000000" fill-opacity="0.200000" stroke="#000000" stroke-width="2" stroke-opacity="0.200000" points="215.63,-225.83 221.96,-225.19 216.62,-221.74 215.63,-225.83"/>
</g>
<!-- src/presentation/views/VideoGallery.vue&#45;&gt;src/presentation/stores/index.ts -->
<g id="edge14" class="edge">
<title>src/presentation/views/VideoGallery.vue&#45;&gt;src/presentation/stores/index.ts</title>
<path fill="none" stroke="#000000" stroke-width="2" stroke-opacity="0.200000" d="M178.58,-162.53C181.45,-160.75 184.07,-158.59 186.25,-156 204.7,-134.06 175.43,-113.63 194.25,-92 233.53,-46.86 266.7,-73.38 324.25,-57 329.16,-55.6 334.34,-54.09 339.42,-52.59"/>
<polygon fill="#000000" fill-opacity="0.200000" stroke="#000000" stroke-width="2" stroke-opacity="0.200000" points="339.77,-54.67 344.92,-50.95 338.57,-50.65 339.77,-54.67"/>
</g>
<!-- src/domain/entities/index.ts -->
<g id="node5" class="node">
<title>src/domain/entities/index.ts</title>
<g id="a_node5"><a xlink:href="src/domain/entities/index.ts" xlink:title="index.ts">
<path fill="#ddfeff" stroke="black" d="M505.71,-294.62C505.71,-294.62 464.54,-294.62 464.54,-294.62 461.33,-294.62 458.12,-291.42 458.12,-288.21 458.12,-288.21 458.12,-281.79 458.12,-281.79 458.12,-278.58 461.33,-275.38 464.54,-275.38 464.54,-275.38 505.71,-275.38 505.71,-275.38 508.92,-275.38 512.12,-278.58 512.12,-281.79 512.12,-281.79 512.12,-288.21 512.12,-288.21 512.12,-291.42 508.92,-294.62 505.71,-294.62"/>
<text text-anchor="start" x="469.38" y="-282.07" font-family="Helvetica,sans-Serif" font-size="9.00">index.ts</text>
</a>
</g>
</g>
<!-- src/presentation/components/VideoCard.vue&#45;&gt;src/domain/entities/index.ts -->
<g id="edge5" class="edge">
<title>src/presentation/components/VideoCard.vue&#45;&gt;src/domain/entities/index.ts</title>
<path fill="none" stroke="#000000" stroke-opacity="0.200000" d="M265.61,-241.02C269.82,-267.59 285.3,-339.8 332.25,-369 370.7,-392.92 394.76,-391.38 434.12,-369 459.24,-354.72 473.07,-322.28 479.51,-302.15"/>
<polygon fill="none" stroke="#000000" stroke-opacity="0.200000" points="481.47,-302.91 481.19,-296.56 477.45,-301.7 481.47,-302.91"/>
</g>
<!-- src/presentation/components/VideoEmbed.vue -->
<g id="node8" class="node">
<title>src/presentation/components/VideoEmbed.vue</title>
<g id="a_node8"><a xlink:href="src/presentation/components/VideoEmbed.vue" xlink:title="VideoEmbed.vue">
<path fill="#41f083" stroke="black" d="M411.71,-240.62C411.71,-240.62 338.79,-240.62 338.79,-240.62 335.58,-240.62 332.38,-237.42 332.38,-234.21 332.38,-234.21 332.38,-227.79 332.38,-227.79 332.38,-224.58 335.58,-221.38 338.79,-221.38 338.79,-221.38 411.71,-221.38 411.71,-221.38 414.92,-221.38 418.12,-224.58 418.12,-227.79 418.12,-227.79 418.12,-234.21 418.12,-234.21 418.12,-237.42 414.92,-240.62 411.71,-240.62"/>
<text text-anchor="start" x="340.38" y="-228.07" font-family="Helvetica,sans-Serif" font-size="9.00">VideoEmbed.vue</text>
</a>
</g>
</g>
<!-- src/presentation/components/VideoCard.vue&#45;&gt;src/presentation/components/VideoEmbed.vue -->
<g id="edge4" class="edge">
<title>src/presentation/components/VideoCard.vue&#45;&gt;src/presentation/components/VideoEmbed.vue</title>
<path fill="none" stroke="#000000" stroke-width="2" stroke-opacity="0.200000" d="M301.49,-231C308.57,-231 316.09,-231 323.5,-231"/>
<polygon fill="#000000" fill-opacity="0.200000" stroke="#000000" stroke-width="2" stroke-opacity="0.200000" points="323.1,-233.1 329.1,-231 323.1,-228.9 323.1,-233.1"/>
</g>
<!-- src/presentation/components/VideoCard.vue&#45;&gt;src/presentation/stores/index.ts -->
<g id="edge6" class="edge">
<title>src/presentation/components/VideoCard.vue&#45;&gt;src/presentation/stores/index.ts</title>
<path fill="none" stroke="#000000" stroke-width="2" stroke-opacity="0.200000" d="M301.62,-229.1C310.25,-226.84 318.56,-222.86 324.25,-216 343.03,-193.39 320.19,-110.8 332.25,-84 336.88,-73.72 345.22,-64.55 353.25,-57.43"/>
<polygon fill="#000000" fill-opacity="0.200000" stroke="#000000" stroke-width="2" stroke-opacity="0.200000" points="354.25,-59.33 357.52,-53.88 351.56,-56.11 354.25,-59.33"/>
</g>
<!-- src/presentation/components/VideoEmbed.vue&#45;&gt;src/domain/entities/index.ts -->
<g id="edge7" class="edge">
<title>src/presentation/components/VideoEmbed.vue&#45;&gt;src/domain/entities/index.ts</title>
<path fill="none" stroke="#000000" stroke-opacity="0.200000" d="M396.29,-241.03C413.54,-249.67 438.59,-262.2 457.52,-271.68"/>
<polygon fill="none" stroke="#000000" stroke-opacity="0.200000" points="456.54,-273.54 462.84,-274.35 458.42,-269.78 456.54,-273.54"/>
</g>
<!-- src/presentation/components/inputs/FileInput.vue&#45;&gt;src/presentation/stores/index.ts -->
<g id="edge8" class="edge">
<title>src/presentation/components/inputs/FileInput.vue&#45;&gt;src/presentation/stores/index.ts</title>
<path fill="none" stroke="#000000" stroke-width="2" stroke-opacity="0.200000" d="M297.57,-170.19C307.6,-166.81 317.68,-161.46 324.25,-153 343.18,-128.61 318.81,-111.79 332.25,-84 337.16,-73.85 345.54,-64.7 353.53,-57.56"/>
<polygon fill="#000000" fill-opacity="0.200000" stroke="#000000" stroke-width="2" stroke-opacity="0.200000" points="354.52,-59.47 357.75,-54 351.81,-56.26 354.52,-59.47"/>
</g>
</g>
</svg>
