<?xml version="1.0" encoding="UTF-8" standalone="no"?>
<!DOCTYPE svg PUBLIC "-//W3C//DTD SVG 1.1//EN"
 "http://www.w3.org/Graphics/SVG/1.1/DTD/svg11.dtd">
<!-- Generated by graphviz version 9.0.0 (20230911.1827)
 -->
<!-- Title: dependency&#45;cruiser output Pages: 1 -->
<svg width="333pt" height="254pt"
 viewBox="0.00 0.00 332.75 254.00" xmlns="http://www.w3.org/2000/svg" xmlns:xlink="http://www.w3.org/1999/xlink">
<g id="graph0" class="graph" transform="scale(1 1) rotate(0) translate(4 250)">
<title>dependency&#45;cruiser output</title>
<polygon fill="white" stroke="none" points="-4,4 -4,-250 328.75,-250 328.75,4 -4,4"/>
<g id="clust1" class="cluster">
<title>cluster_src</title>
<path fill="#ffffff" stroke="black" stroke-width="2" d="M20,-8C20,-8 304.75,-8 304.75,-8 310.75,-8 316.75,-14 316.75,-20 316.75,-20 316.75,-226 316.75,-226 316.75,-232 310.75,-238 304.75,-238 304.75,-238 20,-238 20,-238 14,-238 8,-232 8,-226 8,-226 8,-20 8,-20 8,-14 14,-8 20,-8"/>
<text text-anchor="middle" x="162.38" y="-225.45" font-family="Helvetica,sans-Serif" font-weight="bold" font-size="9.00">src</text>
</g>
<g id="clust2" class="cluster">
<title>cluster_src/application</title>
<path fill="#ffffff" stroke="black" stroke-width="2" d="M240.75,-93C240.75,-93 296.75,-93 296.75,-93 302.75,-93 308.75,-99 308.75,-105 308.75,-105 308.75,-136 308.75,-136 308.75,-142 302.75,-148 296.75,-148 296.75,-148 240.75,-148 240.75,-148 234.75,-148 228.75,-142 228.75,-136 228.75,-136 228.75,-105 228.75,-105 228.75,-99 234.75,-93 240.75,-93"/>
<text text-anchor="middle" x="268.75" y="-135.45" font-family="Helvetica,sans-Serif" font-weight="bold" font-size="9.00">application</text>
</g>
<g id="clust4" class="cluster">
<title>cluster_src/presentation</title>
<path fill="#ffffff" stroke="black" stroke-width="2" d="M90,-16C90,-16 291.75,-16 291.75,-16 297.75,-16 303.75,-22 303.75,-28 303.75,-28 303.75,-73 303.75,-73 303.75,-79 297.75,-85 291.75,-85 291.75,-85 90,-85 90,-85 84,-85 78,-79 78,-73 78,-73 78,-28 78,-28 78,-22 84,-16 90,-16"/>
<text text-anchor="middle" x="190.88" y="-72.45" font-family="Helvetica,sans-Serif" font-weight="bold" font-size="9.00">presentation</text>
</g>
<g id="clust3" class="cluster">
<title>cluster_src/domain</title>
<path fill="#ffffff" stroke="black" stroke-width="2" d="M245.75,-156C245.75,-156 291.75,-156 291.75,-156 297.75,-156 303.75,-162 303.75,-168 303.75,-168 303.75,-199 303.75,-199 303.75,-205 297.75,-211 291.75,-211 291.75,-211 245.75,-211 245.75,-211 239.75,-211 233.75,-205 233.75,-199 233.75,-199 233.75,-168 233.75,-168 233.75,-162 239.75,-156 245.75,-156"/>
<text text-anchor="middle" x="268.75" y="-198.45" font-family="Helvetica,sans-Serif" font-weight="bold" font-size="9.00">domain</text>
</g>
<!-- src/App.vue -->
<g id="node1" class="node">
<title>src/App.vue</title>
<g id="a_node1"><a xlink:href="src/App.vue" xlink:title="App.vue">
<path fill="#41f083" stroke="black" d="M63.58,-46.62C63.58,-46.62 22.42,-46.62 22.42,-46.62 19.21,-46.62 16,-43.42 16,-40.21 16,-40.21 16,-33.79 16,-33.79 16,-30.58 19.21,-27.38 22.42,-27.38 22.42,-27.38 63.58,-27.38 63.58,-27.38 66.79,-27.38 70,-30.58 70,-33.79 70,-33.79 70,-40.21 70,-40.21 70,-43.42 66.79,-46.62 63.58,-46.62"/>
<text text-anchor="start" x="26.88" y="-34.08" font-family="Helvetica,sans-Serif" font-size="9.00">App.vue</text>
</a>
</g>
</g>
<!-- src/presentation/components -->
<g id="node2" class="node">
<title>src/presentation/components</title>
<g id="a_node2"><a xlink:href="src/presentation/components" xlink:title="components">
<polygon fill="#ffffcc" stroke="black" points="220.75,-57.62 155.14,-57.62 153,-55.49 153,-38.38 218.61,-38.38 220.75,-40.51 220.75,-57.62"/>
<polyline fill="none" stroke="black" points="218.61,-55.49 153,-55.49"/>
<polyline fill="none" stroke="black" points="218.61,-55.49 218.61,-38.38"/>
<polyline fill="none" stroke="black" points="218.61,-55.49 220.75,-57.62"/>
<text text-anchor="start" x="161" y="-45.08" font-family="Helvetica,sans-Serif" font-size="9.00">components</text>
</a>
</g>
</g>
<!-- src/App.vue&#45;&gt;src/presentation/components -->
<g id="edge1" class="edge">
<title>src/App.vue&#45;&gt;src/presentation/components</title>
<path fill="none" stroke="#000000" stroke-width="2" stroke-opacity="0.200000" d="M70.26,-32.55C89.65,-30.01 116.63,-28.04 140,-32 144.46,-32.76 149.06,-33.9 153.56,-35.23"/>
<polygon fill="#000000" fill-opacity="0.200000" stroke="#000000" stroke-width="2" stroke-opacity="0.200000" points="152.76,-37.18 159.11,-37.04 154.06,-33.18 152.76,-37.18"/>
</g>
<!-- src/presentation/views -->
<g id="node3" class="node">
<title>src/presentation/views</title>
<g id="a_node3"><a xlink:href="src/presentation/views" xlink:title="views">
<polygon fill="#ffffcc" stroke="black" points="140,-57.62 88.14,-57.62 86,-55.49 86,-38.38 137.86,-38.38 140,-40.51 140,-57.62"/>
<polyline fill="none" stroke="black" points="137.86,-55.49 86,-55.49"/>
<polyline fill="none" stroke="black" points="137.86,-55.49 137.86,-38.38"/>
<polyline fill="none" stroke="black" points="137.86,-55.49 140,-57.62"/>
<text text-anchor="start" x="101.38" y="-45.08" font-family="Helvetica,sans-Serif" font-size="9.00">views</text>
</a>
</g>
</g>
<!-- src/App.vue&#45;&gt;src/presentation/views -->
<g id="edge2" class="edge">
<title>src/App.vue&#45;&gt;src/presentation/views</title>
<path fill="none" stroke="#000000" stroke-width="2" stroke-opacity="0.200000" d="M70.49,-41.28C72.7,-41.64 74.97,-42.01 77.24,-42.38"/>
<polygon fill="#000000" fill-opacity="0.200000" stroke="#000000" stroke-width="2" stroke-opacity="0.200000" points="76.68,-44.41 82.93,-43.3 77.35,-40.27 76.68,-44.41"/>
</g>
<!-- src/application/container.ts -->
<g id="node4" class="node">
<title>src/application/container.ts</title>
<g id="a_node4"><a xlink:href="src/application/container.ts" xlink:title="container.ts">
<path fill="#ddfeff" stroke="black" d="M294.33,-120.62C294.33,-120.62 243.17,-120.62 243.17,-120.62 239.96,-120.62 236.75,-117.42 236.75,-114.21 236.75,-114.21 236.75,-107.79 236.75,-107.79 236.75,-104.58 239.96,-101.38 243.17,-101.38 243.17,-101.38 294.33,-101.38 294.33,-101.38 297.54,-101.38 300.75,-104.58 300.75,-107.79 300.75,-107.79 300.75,-114.21 300.75,-114.21 300.75,-117.42 297.54,-120.62 294.33,-120.62"/>
<text text-anchor="start" x="244.75" y="-108.08" font-family="Helvetica,sans-Serif" font-size="9.00">container.ts</text>
</a>
</g>
</g>
<!-- src/presentation/components&#45;&gt;src/application/container.ts -->
<g id="edge3" class="edge">
<title>src/presentation/components&#45;&gt;src/application/container.ts</title>
<path fill="none" stroke="#000000" stroke-width="2" stroke-opacity="0.200000" d="M196.7,-57.9C204.61,-66.44 216.77,-78.82 228.75,-88 232.57,-90.93 236.8,-93.77 241.01,-96.4"/>
<polygon fill="#000000" fill-opacity="0.200000" stroke="#000000" stroke-width="2" stroke-opacity="0.200000" points="239.68,-98.05 245.91,-99.33 241.84,-94.45 239.68,-98.05"/>
</g>
<!-- src/domain/entities -->
<g id="node5" class="node">
<title>src/domain/entities</title>
<g id="a_node5"><a xlink:href="src/domain/entities" xlink:title="entities">
<polygon fill="#ffffcc" stroke="black" points="295.75,-183.62 243.89,-183.62 241.75,-181.49 241.75,-164.38 293.61,-164.38 295.75,-166.51 295.75,-183.62"/>
<polyline fill="none" stroke="black" points="293.61,-181.49 241.75,-181.49"/>
<polyline fill="none" stroke="black" points="293.61,-181.49 293.61,-164.38"/>
<polyline fill="none" stroke="black" points="293.61,-181.49 295.75,-183.62"/>
<text text-anchor="start" x="253.75" y="-171.07" font-family="Helvetica,sans-Serif" font-size="9.00">entities</text>
</a>
</g>
</g>
<!-- src/presentation/components&#45;&gt;src/domain/entities -->
<g id="edge5" class="edge">
<title>src/presentation/components&#45;&gt;src/domain/entities</title>
<path fill="none" stroke="#000000" stroke-opacity="0.200000" d="M189.58,-57.9C193.41,-77.65 204.36,-122.5 228.75,-151 231.7,-154.45 235.31,-157.51 239.12,-160.19"/>
<polygon fill="none" stroke="#000000" stroke-opacity="0.200000" points="237.75,-161.81 243.94,-163.26 240.01,-158.27 237.75,-161.81"/>
</g>
<!-- src/presentation/stores -->
<g id="node6" class="node">
<title>src/presentation/stores</title>
<g id="a_node6"><a xlink:href="src/presentation/stores" xlink:title="stores">
<polygon fill="#ffffcc" stroke="black" points="295.75,-50.62 243.89,-50.62 241.75,-48.49 241.75,-31.38 293.61,-31.38 295.75,-33.51 295.75,-50.62"/>
<polyline fill="none" stroke="black" points="293.61,-48.49 241.75,-48.49"/>
<polyline fill="none" stroke="black" points="293.61,-48.49 293.61,-31.38"/>
<polyline fill="none" stroke="black" points="293.61,-48.49 295.75,-50.62"/>
<text text-anchor="start" x="255.62" y="-38.08" font-family="Helvetica,sans-Serif" font-size="9.00">stores</text>
</a>
</g>
</g>
<!-- src/presentation/components&#45;&gt;src/presentation/stores -->
<g id="edge4" class="edge">
<title>src/presentation/components&#45;&gt;src/presentation/stores</title>
<path fill="none" stroke="#000000" stroke-width="2" stroke-opacity="0.200000" d="M220.82,-45.11C224.69,-44.77 228.65,-44.43 232.55,-44.09"/>
<polygon fill="#000000" fill-opacity="0.200000" stroke="#000000" stroke-width="2" stroke-opacity="0.200000" points="232.65,-46.18 238.44,-43.57 232.28,-42 232.65,-46.18"/>
</g>
<!-- src/presentation/views&#45;&gt;src/presentation/components -->
<g id="edge6" class="edge">
<title>src/presentation/views&#45;&gt;src/presentation/components</title>
<path fill="none" stroke="#000000" stroke-width="2" stroke-opacity="0.200000" d="M140.36,-48C141.48,-48 142.62,-48 143.77,-48"/>
<polygon fill="#000000" fill-opacity="0.200000" stroke="#000000" stroke-width="2" stroke-opacity="0.200000" points="143.64,-50.1 149.64,-48 143.64,-45.9 143.64,-50.1"/>
</g>
<!-- src/presentation/views&#45;&gt;src/presentation/stores -->
<g id="edge7" class="edge">
<title>src/presentation/views&#45;&gt;src/presentation/stores</title>
<path fill="none" stroke="#000000" stroke-width="2" stroke-opacity="0.200000" d="M134.18,-37.98C140.1,-35.53 146.68,-33.25 153,-32 179.48,-26.78 209.96,-29.57 232.85,-33.38"/>
<polygon fill="#000000" fill-opacity="0.200000" stroke="#000000" stroke-width="2" stroke-opacity="0.200000" points="232.28,-35.41 238.56,-34.4 233.02,-31.27 232.28,-35.41"/>
</g>
</g>
</svg>
