<?xml version="1.0" encoding="UTF-8" standalone="no"?>
<!DOCTYPE svg PUBLIC "-//W3C//DTD SVG 1.1//EN"
 "http://www.w3.org/Graphics/SVG/1.1/DTD/svg11.dtd">
<!-- Generated by graphviz version 9.0.0 (20230911.1827)
 -->
<!-- Title: dependency&#45;cruiser output Pages: 1 -->
<svg width="333pt" height="254pt"
 viewBox="0.00 0.00 332.75 254.00" xmlns="http://www.w3.org/2000/svg" xmlns:xlink="http://www.w3.org/1999/xlink">
<g id="graph0" class="graph" transform="scale(1 1) rotate(0) translate(4 250)">
<title>dependency&#45;cruiser output</title>
<polygon fill="white" stroke="none" points="-4,4 -4,-250 328.75,-250 328.75,4 -4,4"/>
<g id="clust1" class="cluster">
<title>cluster_src</title>
<path fill="#ffffff" stroke="black" stroke-width="2" d="M20,-8C20,-8 307.75,-8 307.75,-8 313.75,-8 319.75,-14 319.75,-20 319.75,-20 319.75,-226 319.75,-226 319.75,-232 313.75,-238 307.75,-238 307.75,-238 20,-238 20,-238 14,-238 8,-232 8,-226 8,-226 8,-20 8,-20 8,-14 14,-8 20,-8"/>
<text text-anchor="middle" x="163.88" y="-225.45" font-family="Helvetica,sans-Serif" font-weight="bold" font-size="9.00">src</text>
</g>
<g id="clust3" class="cluster">
<title>cluster_src/infrastructure</title>
<path fill="#ffffff" stroke="black" stroke-width="2" d="M248.75,-156C248.75,-156 299.75,-156 299.75,-156 305.75,-156 311.75,-162 311.75,-168 311.75,-168 311.75,-199 311.75,-199 311.75,-205 305.75,-211 299.75,-211 299.75,-211 248.75,-211 248.75,-211 242.75,-211 236.75,-205 236.75,-199 236.75,-199 236.75,-168 236.75,-168 236.75,-162 242.75,-156 248.75,-156"/>
<text text-anchor="middle" x="274.25" y="-198.45" font-family="Helvetica,sans-Serif" font-weight="bold" font-size="9.00">infrastructure</text>
</g>
<g id="clust2" class="cluster">
<title>cluster_src/domain</title>
<path fill="#ffffff" stroke="black" stroke-width="2" d="M250.75,-93C250.75,-93 296.75,-93 296.75,-93 302.75,-93 308.75,-99 308.75,-105 308.75,-105 308.75,-136 308.75,-136 308.75,-142 302.75,-148 296.75,-148 296.75,-148 250.75,-148 250.75,-148 244.75,-148 238.75,-142 238.75,-136 238.75,-136 238.75,-105 238.75,-105 238.75,-99 244.75,-93 250.75,-93"/>
<text text-anchor="middle" x="273.75" y="-135.45" font-family="Helvetica,sans-Serif" font-weight="bold" font-size="9.00">domain</text>
</g>
<g id="clust4" class="cluster">
<title>cluster_src/presentation</title>
<path fill="#ffffff" stroke="black" stroke-width="2" d="M90,-16C90,-16 296.75,-16 296.75,-16 302.75,-16 308.75,-22 308.75,-28 308.75,-28 308.75,-73 308.75,-73 308.75,-79 302.75,-85 296.75,-85 296.75,-85 90,-85 90,-85 84,-85 78,-79 78,-73 78,-73 78,-28 78,-28 78,-22 84,-16 90,-16"/>
<text text-anchor="middle" x="193.38" y="-72.45" font-family="Helvetica,sans-Serif" font-weight="bold" font-size="9.00">presentation</text>
</g>
<!-- src/App.vue -->
<g id="node1" class="node">
<title>src/App.vue</title>
<g id="a_node1"><a xlink:href="src/App.vue" xlink:title="App.vue">
<path fill="#41f083" stroke="black" d="M63.58,-46.62C63.58,-46.62 22.42,-46.62 22.42,-46.62 19.21,-46.62 16,-43.42 16,-40.21 16,-40.21 16,-33.79 16,-33.79 16,-30.58 19.21,-27.38 22.42,-27.38 22.42,-27.38 63.58,-27.38 63.58,-27.38 66.79,-27.38 70,-30.58 70,-33.79 70,-33.79 70,-40.21 70,-40.21 70,-43.42 66.79,-46.62 63.58,-46.62"/>
<text text-anchor="start" x="26.88" y="-34.08" font-family="Helvetica,sans-Serif" font-size="9.00">App.vue</text>
</a>
</g>
</g>
<!-- src/presentation/components -->
<g id="node2" class="node">
<title>src/presentation/components</title>
<g id="a_node2"><a xlink:href="src/presentation/components" xlink:title="components">
<polygon fill="#ffffcc" stroke="black" points="220.75,-57.62 155.14,-57.62 153,-55.49 153,-38.38 218.61,-38.38 220.75,-40.51 220.75,-57.62"/>
<polyline fill="none" stroke="black" points="218.61,-55.49 153,-55.49"/>
<polyline fill="none" stroke="black" points="218.61,-55.49 218.61,-38.38"/>
<polyline fill="none" stroke="black" points="218.61,-55.49 220.75,-57.62"/>
<text text-anchor="start" x="161" y="-45.08" font-family="Helvetica,sans-Serif" font-size="9.00">components</text>
</a>
</g>
</g>
<!-- src/App.vue&#45;&gt;src/presentation/components -->
<g id="edge1" class="edge">
<title>src/App.vue&#45;&gt;src/presentation/components</title>
<path fill="none" stroke="#000000" stroke-width="2" stroke-opacity="0.200000" d="M70.26,-32.55C89.65,-30.01 116.63,-28.04 140,-32 144.46,-32.76 149.06,-33.9 153.56,-35.23"/>
<polygon fill="#000000" fill-opacity="0.200000" stroke="#000000" stroke-width="2" stroke-opacity="0.200000" points="152.76,-37.18 159.11,-37.04 154.06,-33.18 152.76,-37.18"/>
</g>
<!-- src/presentation/views -->
<g id="node3" class="node">
<title>src/presentation/views</title>
<g id="a_node3"><a xlink:href="src/presentation/views" xlink:title="views">
<polygon fill="#ffffcc" stroke="black" points="140,-57.62 88.14,-57.62 86,-55.49 86,-38.38 137.86,-38.38 140,-40.51 140,-57.62"/>
<polyline fill="none" stroke="black" points="137.86,-55.49 86,-55.49"/>
<polyline fill="none" stroke="black" points="137.86,-55.49 137.86,-38.38"/>
<polyline fill="none" stroke="black" points="137.86,-55.49 140,-57.62"/>
<text text-anchor="start" x="101.38" y="-45.08" font-family="Helvetica,sans-Serif" font-size="9.00">views</text>
</a>
</g>
</g>
<!-- src/App.vue&#45;&gt;src/presentation/views -->
<g id="edge2" class="edge">
<title>src/App.vue&#45;&gt;src/presentation/views</title>
<path fill="none" stroke="#000000" stroke-width="2" stroke-opacity="0.200000" d="M70.49,-41.28C72.7,-41.64 74.97,-42.01 77.24,-42.38"/>
<polygon fill="#000000" fill-opacity="0.200000" stroke="#000000" stroke-width="2" stroke-opacity="0.200000" points="76.68,-44.41 82.93,-43.3 77.35,-40.27 76.68,-44.41"/>
</g>
<!-- src/domain/entities -->
<g id="node4" class="node">
<title>src/domain/entities</title>
<g id="a_node4"><a xlink:href="src/domain/entities" xlink:title="entities">
<polygon fill="#ffffcc" stroke="black" points="300.75,-120.62 248.89,-120.62 246.75,-118.49 246.75,-101.38 298.61,-101.38 300.75,-103.51 300.75,-120.62"/>
<polyline fill="none" stroke="black" points="298.61,-118.49 246.75,-118.49"/>
<polyline fill="none" stroke="black" points="298.61,-118.49 298.61,-101.38"/>
<polyline fill="none" stroke="black" points="298.61,-118.49 300.75,-120.62"/>
<text text-anchor="start" x="258.75" y="-108.08" font-family="Helvetica,sans-Serif" font-size="9.00">entities</text>
</a>
</g>
</g>
<!-- src/presentation/components&#45;&gt;src/domain/entities -->
<g id="edge5" class="edge">
<title>src/presentation/components&#45;&gt;src/domain/entities</title>
<path fill="none" stroke="#000000" stroke-opacity="0.200000" d="M199.22,-57.93C208.94,-66.27 223.43,-78.35 236.75,-88 241.04,-91.11 245.75,-94.28 250.3,-97.23"/>
<polygon fill="none" stroke="#000000" stroke-opacity="0.200000" points="248.89,-98.82 255.08,-100.28 251.15,-95.28 248.89,-98.82"/>
</g>
<!-- src/infrastructure/services -->
<g id="node5" class="node">
<title>src/infrastructure/services</title>
<g id="a_node5"><a xlink:href="src/infrastructure/services" xlink:title="services">
<polygon fill="#ffffcc" stroke="black" points="300.75,-183.62 248.89,-183.62 246.75,-181.49 246.75,-164.38 298.61,-164.38 300.75,-166.51 300.75,-183.62"/>
<polyline fill="none" stroke="black" points="298.61,-181.49 246.75,-181.49"/>
<polyline fill="none" stroke="black" points="298.61,-181.49 298.61,-164.38"/>
<polyline fill="none" stroke="black" points="298.61,-181.49 300.75,-183.62"/>
<text text-anchor="start" x="256.5" y="-171.07" font-family="Helvetica,sans-Serif" font-size="9.00">services</text>
</a>
</g>
</g>
<!-- src/presentation/components&#45;&gt;src/infrastructure/services -->
<g id="edge3" class="edge">
<title>src/presentation/components&#45;&gt;src/infrastructure/services</title>
<path fill="none" stroke="#000000" stroke-width="2" stroke-opacity="0.200000" d="M190.53,-57.83C196.23,-77.44 211.22,-122.05 236.75,-151 239.36,-153.96 242.44,-156.68 245.68,-159.14"/>
<polygon fill="#000000" fill-opacity="0.200000" stroke="#000000" stroke-width="2" stroke-opacity="0.200000" points="244.27,-160.72 250.41,-162.37 246.64,-157.25 244.27,-160.72"/>
</g>
<!-- src/presentation/stores -->
<g id="node6" class="node">
<title>src/presentation/stores</title>
<g id="a_node6"><a xlink:href="src/presentation/stores" xlink:title="stores">
<polygon fill="#ffffcc" stroke="black" points="300.75,-50.62 248.89,-50.62 246.75,-48.49 246.75,-31.38 298.61,-31.38 300.75,-33.51 300.75,-50.62"/>
<polyline fill="none" stroke="black" points="298.61,-48.49 246.75,-48.49"/>
<polyline fill="none" stroke="black" points="298.61,-48.49 298.61,-31.38"/>
<polyline fill="none" stroke="black" points="298.61,-48.49 300.75,-50.62"/>
<text text-anchor="start" x="260.62" y="-38.08" font-family="Helvetica,sans-Serif" font-size="9.00">stores</text>
</a>
</g>
</g>
<!-- src/presentation/components&#45;&gt;src/presentation/stores -->
<g id="edge4" class="edge">
<title>src/presentation/components&#45;&gt;src/presentation/stores</title>
<path fill="none" stroke="#000000" stroke-width="2" stroke-opacity="0.200000" d="M220.93,-45.27C226.49,-44.82 232.28,-44.34 237.88,-43.88"/>
<polygon fill="#000000" fill-opacity="0.200000" stroke="#000000" stroke-width="2" stroke-opacity="0.200000" points="237.65,-46 243.46,-43.42 237.31,-41.82 237.65,-46"/>
</g>
<!-- src/presentation/views&#45;&gt;src/presentation/components -->
<g id="edge6" class="edge">
<title>src/presentation/views&#45;&gt;src/presentation/components</title>
<path fill="none" stroke="#000000" stroke-width="2" stroke-opacity="0.200000" d="M140.36,-48C141.48,-48 142.62,-48 143.77,-48"/>
<polygon fill="#000000" fill-opacity="0.200000" stroke="#000000" stroke-width="2" stroke-opacity="0.200000" points="143.64,-50.1 149.64,-48 143.64,-45.9 143.64,-50.1"/>
</g>
<!-- src/presentation/views&#45;&gt;src/presentation/stores -->
<g id="edge7" class="edge">
<title>src/presentation/views&#45;&gt;src/presentation/stores</title>
<path fill="none" stroke="#000000" stroke-width="2" stroke-opacity="0.200000" d="M134.18,-37.98C140.1,-35.53 146.68,-33.25 153,-32 181.11,-26.46 213.56,-29.46 237.58,-33.43"/>
<polygon fill="#000000" fill-opacity="0.200000" stroke="#000000" stroke-width="2" stroke-opacity="0.200000" points="237.09,-35.48 243.36,-34.46 237.82,-31.34 237.09,-35.48"/>
</g>
</g>
</svg>
