<?xml version="1.0" encoding="UTF-8" standalone="no"?>
<!DOCTYPE svg PUBLIC "-//W3C//DTD SVG 1.1//EN"
 "http://www.w3.org/Graphics/SVG/1.1/DTD/svg11.dtd">
<!-- Generated by graphviz version 9.0.0 (20230911.1827)
 -->
<!-- Title: dependency&#45;cruiser output Pages: 1 -->
<svg width="460pt" height="334pt"
 viewBox="0.00 0.00 460.38 334.00" xmlns="http://www.w3.org/2000/svg" xmlns:xlink="http://www.w3.org/1999/xlink">
<g id="graph0" class="graph" transform="scale(1 1) rotate(0) translate(4 330)">
<title>dependency&#45;cruiser output</title>
<polygon fill="white" stroke="none" points="-4,4 -4,-330 456.38,-330 456.38,4 -4,4"/>
<g id="clust1" class="cluster">
<title>cluster_src</title>
<path fill="#ffffff" stroke="black" stroke-width="2" d="M20,-8C20,-8 432.38,-8 432.38,-8 438.38,-8 444.38,-14 444.38,-20 444.38,-20 444.38,-306 444.38,-306 444.38,-312 438.38,-318 432.38,-318 432.38,-318 20,-318 20,-318 14,-318 8,-312 8,-306 8,-306 8,-20 8,-20 8,-14 14,-8 20,-8"/>
<text text-anchor="middle" x="226.19" y="-305.45" font-family="Helvetica,sans-Serif" font-weight="bold" font-size="9.00">src</text>
</g>
<g id="clust2" class="cluster">
<title>cluster_src/components</title>
<path fill="#ffffff" stroke="black" stroke-width="2" d="M90,-16C90,-16 424.38,-16 424.38,-16 430.38,-16 436.38,-22 436.38,-28 436.38,-28 436.38,-153 436.38,-153 436.38,-159 430.38,-165 424.38,-165 424.38,-165 90,-165 90,-165 84,-165 78,-159 78,-153 78,-153 78,-28 78,-28 78,-22 84,-16 90,-16"/>
<text text-anchor="middle" x="257.19" y="-152.45" font-family="Helvetica,sans-Serif" font-weight="bold" font-size="9.00">components</text>
</g>
<g id="clust3" class="cluster">
<title>cluster_src/components/FolderSelector</title>
<path fill="#ffffff" stroke="black" stroke-width="2" d="M228,-52C228,-52 312.5,-52 312.5,-52 318.5,-52 324.5,-58 324.5,-64 324.5,-64 324.5,-126 324.5,-126 324.5,-132 318.5,-138 312.5,-138 312.5,-138 228,-138 228,-138 222,-138 216,-132 216,-126 216,-126 216,-64 216,-64 216,-58 222,-52 228,-52"/>
<text text-anchor="middle" x="270.25" y="-125.45" font-family="Helvetica,sans-Serif" font-weight="bold" font-size="9.00">FolderSelector</text>
</g>
<g id="clust4" class="cluster">
<title>cluster_src/components/utils</title>
<path fill="#ffffff" stroke="black" stroke-width="2" d="M98,-83C98,-83 196,-83 196,-83 202,-83 208,-89 208,-95 208,-95 208,-126 208,-126 208,-132 202,-138 196,-138 196,-138 98,-138 98,-138 92,-138 86,-132 86,-126 86,-126 86,-95 86,-95 86,-89 92,-83 98,-83"/>
<text text-anchor="middle" x="147" y="-125.45" font-family="Helvetica,sans-Serif" font-weight="bold" font-size="9.00">utils</text>
</g>
<g id="clust5" class="cluster">
<title>cluster_src/services</title>
<path fill="#ffffff" stroke="black" stroke-width="2" d="M352.5,-173C352.5,-173 418.5,-173 418.5,-173 424.5,-173 430.5,-179 430.5,-185 430.5,-185 430.5,-279 430.5,-279 430.5,-285 424.5,-291 418.5,-291 418.5,-291 352.5,-291 352.5,-291 346.5,-291 340.5,-285 340.5,-279 340.5,-279 340.5,-185 340.5,-185 340.5,-179 346.5,-173 352.5,-173"/>
<text text-anchor="middle" x="385.5" y="-278.45" font-family="Helvetica,sans-Serif" font-weight="bold" font-size="9.00">services</text>
</g>
<g id="clust6" class="cluster">
<title>cluster_src/services/VideoParsers</title>
<path fill="#ffffff" stroke="black" stroke-width="2" d="M360.5,-209C360.5,-209 410.5,-209 410.5,-209 416.5,-209 422.5,-215 422.5,-221 422.5,-221 422.5,-252 422.5,-252 422.5,-258 416.5,-264 410.5,-264 410.5,-264 360.5,-264 360.5,-264 354.5,-264 348.5,-258 348.5,-252 348.5,-252 348.5,-221 348.5,-221 348.5,-215 354.5,-209 360.5,-209"/>
<text text-anchor="middle" x="385.5" y="-251.45" font-family="Helvetica,sans-Serif" font-weight="bold" font-size="9.00">VideoParsers</text>
</g>
<g id="clust7" class="cluster">
<title>cluster_src/stores</title>
<path fill="#ffffff" stroke="black" stroke-width="2" d="M232.12,-173C232.12,-173 308.38,-173 308.38,-173 314.38,-173 320.38,-179 320.38,-185 320.38,-185 320.38,-247 320.38,-247 320.38,-253 314.38,-259 308.38,-259 308.38,-259 232.12,-259 232.12,-259 226.12,-259 220.12,-253 220.12,-247 220.12,-247 220.12,-185 220.12,-185 220.12,-179 226.12,-173 232.12,-173"/>
<text text-anchor="middle" x="270.25" y="-246.45" font-family="Helvetica,sans-Serif" font-weight="bold" font-size="9.00">stores</text>
</g>
<!-- src/App.vue -->
<g id="node1" class="node">
<title>src/App.vue</title>
<g id="a_node1"><a xlink:href="src/App.vue" xlink:title="App.vue">
<path fill="#41f083" stroke="black" d="M63.58,-74.62C63.58,-74.62 22.42,-74.62 22.42,-74.62 19.21,-74.62 16,-71.42 16,-68.21 16,-68.21 16,-61.79 16,-61.79 16,-58.58 19.21,-55.38 22.42,-55.38 22.42,-55.38 63.58,-55.38 63.58,-55.38 66.79,-55.38 70,-58.58 70,-61.79 70,-61.79 70,-68.21 70,-68.21 70,-71.42 66.79,-74.62 63.58,-74.62"/>
<text text-anchor="start" x="26.88" y="-62.08" font-family="Helvetica,sans-Serif" font-size="9.00">App.vue</text>
</a>
</g>
</g>
<!-- src/components/NavBar.vue -->
<g id="node2" class="node">
<title>src/components/NavBar.vue</title>
<g id="a_node2"><a xlink:href="src/components/NavBar.vue" xlink:title="NavBar.vue">
<path fill="#41f083" stroke="black" d="M171.83,-74.62C171.83,-74.62 122.17,-74.62 122.17,-74.62 118.96,-74.62 115.75,-71.42 115.75,-68.21 115.75,-68.21 115.75,-61.79 115.75,-61.79 115.75,-58.58 118.96,-55.38 122.17,-55.38 122.17,-55.38 171.83,-55.38 171.83,-55.38 175.04,-55.38 178.25,-58.58 178.25,-61.79 178.25,-61.79 178.25,-68.21 178.25,-68.21 178.25,-71.42 175.04,-74.62 171.83,-74.62"/>
<text text-anchor="start" x="123.75" y="-62.08" font-family="Helvetica,sans-Serif" font-size="9.00">NavBar.vue</text>
</a>
</g>
</g>
<!-- src/App.vue&#45;&gt;src/components/NavBar.vue -->
<g id="edge1" class="edge">
<title>src/App.vue&#45;&gt;src/components/NavBar.vue</title>
<path fill="none" stroke="#000000" stroke-width="2" stroke-opacity="0.200000" d="M70.27,-65C81.38,-65 94.56,-65 106.79,-65"/>
<polygon fill="#000000" fill-opacity="0.200000" stroke="#000000" stroke-width="2" stroke-opacity="0.200000" points="106.45,-67.1 112.45,-65 106.45,-62.9 106.45,-67.1"/>
</g>
<!-- src/components/utils/DiagnosticsPanel.vue -->
<g id="node3" class="node">
<title>src/components/utils/DiagnosticsPanel.vue</title>
<g id="a_node3"><a xlink:href="src/components/utils/DiagnosticsPanel.vue" xlink:title="DiagnosticsPanel.vue">
<path fill="#41f083" stroke="black" d="M193.58,-110.62C193.58,-110.62 100.42,-110.62 100.42,-110.62 97.21,-110.62 94,-107.42 94,-104.21 94,-104.21 94,-97.79 94,-97.79 94,-94.58 97.21,-91.38 100.42,-91.38 100.42,-91.38 193.58,-91.38 193.58,-91.38 196.79,-91.38 200,-94.58 200,-97.79 200,-97.79 200,-104.21 200,-104.21 200,-107.42 196.79,-110.62 193.58,-110.62"/>
<text text-anchor="start" x="102" y="-98.08" font-family="Helvetica,sans-Serif" font-size="9.00">DiagnosticsPanel.vue</text>
</a>
</g>
</g>
<!-- src/App.vue&#45;&gt;src/components/utils/DiagnosticsPanel.vue -->
<g id="edge2" class="edge">
<title>src/App.vue&#45;&gt;src/components/utils/DiagnosticsPanel.vue</title>
<path fill="none" stroke="#000000" stroke-width="2" stroke-opacity="0.200000" d="M56.93,-74.99C63.03,-79.27 70.58,-83.96 78,-87 80.35,-87.96 82.78,-88.86 85.25,-89.7"/>
<polygon fill="#000000" fill-opacity="0.200000" stroke="#000000" stroke-width="2" stroke-opacity="0.200000" points="84.55,-91.68 90.9,-91.44 85.79,-87.67 84.55,-91.68"/>
</g>
<!-- src/components/VideoGallery.vue -->
<g id="node4" class="node">
<title>src/components/VideoGallery.vue</title>
<g id="a_node4"><a xlink:href="src/components/VideoGallery.vue" xlink:title="VideoGallery.vue">
<path fill="#41f083" stroke="black" d="M182.71,-43.62C182.71,-43.62 111.29,-43.62 111.29,-43.62 108.08,-43.62 104.88,-40.42 104.88,-37.21 104.88,-37.21 104.88,-30.79 104.88,-30.79 104.88,-27.58 108.08,-24.38 111.29,-24.38 111.29,-24.38 182.71,-24.38 182.71,-24.38 185.92,-24.38 189.12,-27.58 189.12,-30.79 189.12,-30.79 189.12,-37.21 189.12,-37.21 189.12,-40.42 185.92,-43.62 182.71,-43.62"/>
<text text-anchor="start" x="112.88" y="-31.07" font-family="Helvetica,sans-Serif" font-size="9.00">VideoGallery.vue</text>
</a>
</g>
</g>
<!-- src/App.vue&#45;&gt;src/components/VideoGallery.vue -->
<g id="edge3" class="edge">
<title>src/App.vue&#45;&gt;src/components/VideoGallery.vue</title>
<path fill="none" stroke="#000000" stroke-width="2" stroke-opacity="0.200000" d="M63.47,-54.93C68.15,-52.77 73.18,-50.64 78,-49 83.82,-47.02 90.01,-45.23 96.2,-43.64"/>
<polygon fill="#000000" fill-opacity="0.200000" stroke="#000000" stroke-width="2" stroke-opacity="0.200000" points="96.33,-45.77 101.66,-42.31 95.33,-41.69 96.33,-45.77"/>
</g>
<!-- src/components/FolderSelector/FolderSelector.vue -->
<g id="node6" class="node">
<title>src/components/FolderSelector/FolderSelector.vue</title>
<g id="a_node6"><a xlink:href="src/components/FolderSelector/FolderSelector.vue" xlink:title="FolderSelector.vue">
<path fill="#41f083" stroke="black" d="M310.08,-79.62C310.08,-79.62 230.42,-79.62 230.42,-79.62 227.21,-79.62 224,-76.42 224,-73.21 224,-73.21 224,-66.79 224,-66.79 224,-63.58 227.21,-60.38 230.42,-60.38 230.42,-60.38 310.08,-60.38 310.08,-60.38 313.29,-60.38 316.5,-63.58 316.5,-66.79 316.5,-66.79 316.5,-73.21 316.5,-73.21 316.5,-76.42 313.29,-79.62 310.08,-79.62"/>
<text text-anchor="start" x="232" y="-67.08" font-family="Helvetica,sans-Serif" font-size="9.00">FolderSelector.vue</text>
</a>
</g>
</g>
<!-- src/components/NavBar.vue&#45;&gt;src/components/FolderSelector/FolderSelector.vue -->
<g id="edge6" class="edge">
<title>src/components/NavBar.vue&#45;&gt;src/components/FolderSelector/FolderSelector.vue</title>
<path fill="none" stroke="#000000" stroke-width="2" stroke-opacity="0.200000" d="M178.6,-66.26C189.55,-66.71 202.25,-67.24 214.61,-67.75"/>
<polygon fill="#000000" fill-opacity="0.200000" stroke="#000000" stroke-width="2" stroke-opacity="0.200000" points="214.42,-69.84 220.5,-67.99 214.6,-65.64 214.42,-69.84"/>
</g>
<!-- src/stores/videosStore.ts -->
<g id="node8" class="node">
<title>src/stores/videosStore.ts</title>
<g id="a_node8"><a xlink:href="src/stores/videosStore.ts" xlink:title="videosStore.ts">
<path fill="#ddfeff" stroke="black" d="M301.08,-200.62C301.08,-200.62 239.42,-200.62 239.42,-200.62 236.21,-200.62 233,-197.42 233,-194.21 233,-194.21 233,-187.79 233,-187.79 233,-184.58 236.21,-181.38 239.42,-181.38 239.42,-181.38 301.08,-181.38 301.08,-181.38 304.29,-181.38 307.5,-184.58 307.5,-187.79 307.5,-187.79 307.5,-194.21 307.5,-194.21 307.5,-197.42 304.29,-200.62 301.08,-200.62"/>
<text text-anchor="start" x="241" y="-188.07" font-family="Helvetica,sans-Serif" font-size="9.00">videosStore.ts</text>
</a>
</g>
</g>
<!-- src/components/NavBar.vue&#45;&gt;src/stores/videosStore.ts -->
<g id="edge8" class="edge">
<title>src/components/NavBar.vue&#45;&gt;src/stores/videosStore.ts</title>
<path fill="none" stroke="#000000" stroke-width="2" stroke-opacity="0.200000" d="M178.48,-65.77C189.27,-67.63 200.57,-71.66 208,-80 226.2,-100.41 203.53,-116.67 216,-141 223.12,-154.89 235.69,-166.97 246.84,-175.79"/>
<polygon fill="#000000" fill-opacity="0.200000" stroke="#000000" stroke-width="2" stroke-opacity="0.200000" points="245.41,-177.34 251.47,-179.27 247.93,-173.98 245.41,-177.34"/>
</g>
<!-- src/stores/appStateStore.ts -->
<g id="node9" class="node">
<title>src/stores/appStateStore.ts</title>
<g id="a_node9"><a xlink:href="src/stores/appStateStore.ts" xlink:title="appStateStore.ts">
<path fill="#ddfeff" stroke="black" d="M305.96,-231.62C305.96,-231.62 234.54,-231.62 234.54,-231.62 231.33,-231.62 228.12,-228.42 228.12,-225.21 228.12,-225.21 228.12,-218.79 228.12,-218.79 228.12,-215.58 231.33,-212.38 234.54,-212.38 234.54,-212.38 305.96,-212.38 305.96,-212.38 309.17,-212.38 312.38,-215.58 312.38,-218.79 312.38,-218.79 312.38,-225.21 312.38,-225.21 312.38,-228.42 309.17,-231.62 305.96,-231.62"/>
<text text-anchor="start" x="236.12" y="-219.07" font-family="Helvetica,sans-Serif" font-size="9.00">appStateStore.ts</text>
</a>
</g>
</g>
<!-- src/components/NavBar.vue&#45;&gt;src/stores/appStateStore.ts -->
<g id="edge7" class="edge">
<title>src/components/NavBar.vue&#45;&gt;src/stores/appStateStore.ts</title>
<path fill="none" stroke="#000000" stroke-width="2" stroke-opacity="0.200000" d="M178.47,-65.46C189.4,-67.26 200.79,-71.34 208,-80 226.1,-101.73 198.23,-185 216,-207 217.28,-208.58 218.7,-210 220.25,-211.28"/>
<polygon fill="#000000" fill-opacity="0.200000" stroke="#000000" stroke-width="2" stroke-opacity="0.200000" points="218.94,-212.93 225.12,-214.38 221.19,-209.39 218.94,-212.93"/>
</g>
<!-- src/components/utils/DiagnosticsPanel.vue&#45;&gt;src/stores/appStateStore.ts -->
<g id="edge13" class="edge">
<title>src/components/utils/DiagnosticsPanel.vue&#45;&gt;src/stores/appStateStore.ts</title>
<path fill="none" stroke="#000000" stroke-width="2" stroke-opacity="0.200000" d="M151.53,-110.89C159.56,-131.92 181.21,-181.23 216,-207 217.22,-207.9 218.49,-208.75 219.81,-209.55"/>
<polygon fill="#000000" fill-opacity="0.200000" stroke="#000000" stroke-width="2" stroke-opacity="0.200000" points="218.71,-211.35 225.01,-212.21 220.62,-207.61 218.71,-211.35"/>
</g>
<!-- src/components/VideoGallery.vue&#45;&gt;src/stores/videosStore.ts -->
<g id="edge12" class="edge">
<title>src/components/VideoGallery.vue&#45;&gt;src/stores/videosStore.ts</title>
<path fill="none" stroke="#000000" stroke-width="2" stroke-opacity="0.200000" d="M189.58,-37.3C196.62,-39.68 203.19,-43.36 208,-49 221.32,-64.61 207.04,-122.54 216,-141 222.77,-154.94 235.21,-166.97 246.37,-175.73"/>
<polygon fill="#000000" fill-opacity="0.200000" stroke="#000000" stroke-width="2" stroke-opacity="0.200000" points="244.95,-177.29 251.02,-179.2 247.46,-173.93 244.95,-177.29"/>
</g>
<!-- src/components/VideoCard.vue -->
<g id="node10" class="node">
<title>src/components/VideoCard.vue</title>
<g id="a_node10"><a xlink:href="src/components/VideoCard.vue" xlink:title="VideoCard.vue">
<path fill="#41f083" stroke="black" d="M301.83,-43.62C301.83,-43.62 238.67,-43.62 238.67,-43.62 235.46,-43.62 232.25,-40.42 232.25,-37.21 232.25,-37.21 232.25,-30.79 232.25,-30.79 232.25,-27.58 235.46,-24.38 238.67,-24.38 238.67,-24.38 301.83,-24.38 301.83,-24.38 305.04,-24.38 308.25,-27.58 308.25,-30.79 308.25,-30.79 308.25,-37.21 308.25,-37.21 308.25,-40.42 305.04,-43.62 301.83,-43.62"/>
<text text-anchor="start" x="240.25" y="-31.07" font-family="Helvetica,sans-Serif" font-size="9.00">VideoCard.vue</text>
</a>
</g>
</g>
<!-- src/components/VideoGallery.vue&#45;&gt;src/components/VideoCard.vue -->
<g id="edge11" class="edge">
<title>src/components/VideoGallery.vue&#45;&gt;src/components/VideoCard.vue</title>
<path fill="none" stroke="#000000" stroke-width="2" stroke-opacity="0.200000" d="M189.39,-34C200.32,-34 212.19,-34 223.35,-34"/>
<polygon fill="#000000" fill-opacity="0.200000" stroke="#000000" stroke-width="2" stroke-opacity="0.200000" points="223.09,-36.1 229.09,-34 223.09,-31.9 223.09,-36.1"/>
</g>
<!-- src/components/FolderSelector/FileVideoParser.ts -->
<g id="node5" class="node">
<title>src/components/FolderSelector/FileVideoParser.ts</title>
<g id="a_node5"><a xlink:href="src/components/FolderSelector/FileVideoParser.ts" xlink:title="FileVideoParser.ts">
<path fill="#ddfeff" stroke="black" d="M309.71,-110.62C309.71,-110.62 230.79,-110.62 230.79,-110.62 227.58,-110.62 224.38,-107.42 224.38,-104.21 224.38,-104.21 224.38,-97.79 224.38,-97.79 224.38,-94.58 227.58,-91.38 230.79,-91.38 230.79,-91.38 309.71,-91.38 309.71,-91.38 312.92,-91.38 316.12,-94.58 316.12,-97.79 316.12,-97.79 316.12,-104.21 316.12,-104.21 316.12,-107.42 312.92,-110.62 309.71,-110.62"/>
<text text-anchor="start" x="232.38" y="-98.08" font-family="Helvetica,sans-Serif" font-size="9.00">FileVideoParser.ts</text>
</a>
</g>
</g>
<!-- src/services/VideoParsers/index.ts -->
<g id="node7" class="node">
<title>src/services/VideoParsers/index.ts</title>
<g id="a_node7"><a xlink:href="src/services/VideoParsers/index.ts" xlink:title="index.ts">
<path fill="#ddfeff" stroke="black" d="M406.08,-236.62C406.08,-236.62 364.92,-236.62 364.92,-236.62 361.71,-236.62 358.5,-233.42 358.5,-230.21 358.5,-230.21 358.5,-223.79 358.5,-223.79 358.5,-220.58 361.71,-217.38 364.92,-217.38 364.92,-217.38 406.08,-217.38 406.08,-217.38 409.29,-217.38 412.5,-220.58 412.5,-223.79 412.5,-223.79 412.5,-230.21 412.5,-230.21 412.5,-233.42 409.29,-236.62 406.08,-236.62"/>
<text text-anchor="start" x="369.75" y="-224.07" font-family="Helvetica,sans-Serif" font-size="9.00">index.ts</text>
</a>
</g>
</g>
<!-- src/components/FolderSelector/FolderSelector.vue&#45;&gt;src/services/VideoParsers/index.ts -->
<g id="edge4" class="edge">
<title>src/components/FolderSelector/FolderSelector.vue&#45;&gt;src/services/VideoParsers/index.ts</title>
<path fill="none" stroke="#000000" stroke-width="2" stroke-opacity="0.200000" d="M316.64,-78.39C319.57,-80.2 322.25,-82.38 324.5,-85 361.88,-128.47 303.85,-168.91 340.5,-213 343.11,-216.14 346.42,-218.58 350.04,-220.48"/>
<polygon fill="#000000" fill-opacity="0.200000" stroke="#000000" stroke-width="2" stroke-opacity="0.200000" points="349.19,-222.4 355.54,-222.7 350.77,-218.51 349.19,-222.4"/>
</g>
<!-- src/components/FolderSelector/FolderSelector.vue&#45;&gt;src/stores/videosStore.ts -->
<g id="edge5" class="edge">
<title>src/components/FolderSelector/FolderSelector.vue&#45;&gt;src/stores/videosStore.ts</title>
<path fill="none" stroke="#000000" stroke-width="2" stroke-opacity="0.200000" d="M223.65,-77.07C218.2,-80.25 213.9,-84.72 212,-91 209.17,-100.36 209.17,-125.64 212,-135 217.21,-152.22 231.82,-166.24 245.11,-175.95"/>
<polygon fill="#000000" fill-opacity="0.200000" stroke="#000000" stroke-width="2" stroke-opacity="0.200000" points="243.65,-177.5 249.79,-179.17 246.04,-174.04 243.65,-177.5"/>
</g>
<!-- src/services/VideoParsers/index.ts&#45;&gt;src/components/FolderSelector/FileVideoParser.ts -->
<g id="edge14" class="edge">
<title>src/services/VideoParsers/index.ts&#45;&gt;src/components/FolderSelector/FileVideoParser.ts</title>
<path fill="none" stroke="#000000" stroke-width="2" stroke-opacity="0.200000" d="M358.2,-222.82C351.79,-220.75 345.37,-217.65 340.5,-213 325.74,-198.93 334.4,-187.83 324.5,-170 313.84,-150.8 298.16,-131.19 286.57,-117.81"/>
<polygon fill="#000000" fill-opacity="0.200000" stroke="#000000" stroke-width="2" stroke-opacity="0.200000" points="288.16,-116.44 282.61,-113.33 285.01,-119.22 288.16,-116.44"/>
</g>
<!-- src/services/index.ts -->
<g id="node12" class="node">
<title>src/services/index.ts</title>
<g id="a_node12"><a xlink:href="src/services/index.ts" xlink:title="index.ts">
<path fill="#ddfeff" stroke="black" d="M406.08,-200.62C406.08,-200.62 364.92,-200.62 364.92,-200.62 361.71,-200.62 358.5,-197.42 358.5,-194.21 358.5,-194.21 358.5,-187.79 358.5,-187.79 358.5,-184.58 361.71,-181.38 364.92,-181.38 364.92,-181.38 406.08,-181.38 406.08,-181.38 409.29,-181.38 412.5,-184.58 412.5,-187.79 412.5,-187.79 412.5,-194.21 412.5,-194.21 412.5,-197.42 409.29,-200.62 406.08,-200.62"/>
<text text-anchor="start" x="369.75" y="-188.07" font-family="Helvetica,sans-Serif" font-size="9.00">index.ts</text>
</a>
</g>
</g>
<!-- src/stores/videosStore.ts&#45;&gt;src/services/index.ts -->
<g id="edge15" class="edge">
<title>src/stores/videosStore.ts&#45;&gt;src/services/index.ts</title>
<path fill="none" stroke="#000000" stroke-width="2" stroke-opacity="0.200000" d="M307.71,-191C321.05,-191 336.11,-191 349.34,-191"/>
<polygon fill="#000000" fill-opacity="0.200000" stroke="#000000" stroke-width="2" stroke-opacity="0.200000" points="349.14,-193.1 355.14,-191 349.14,-188.9 349.14,-193.1"/>
</g>
<!-- src/components/VideoEmbed.vue -->
<g id="node11" class="node">
<title>src/components/VideoEmbed.vue</title>
<g id="a_node11"><a xlink:href="src/components/VideoEmbed.vue" xlink:title="VideoEmbed.vue">
<path fill="#41f083" stroke="black" d="M421.96,-43.62C421.96,-43.62 349.04,-43.62 349.04,-43.62 345.83,-43.62 342.62,-40.42 342.62,-37.21 342.62,-37.21 342.62,-30.79 342.62,-30.79 342.62,-27.58 345.83,-24.38 349.04,-24.38 349.04,-24.38 421.96,-24.38 421.96,-24.38 425.17,-24.38 428.38,-27.58 428.38,-30.79 428.38,-30.79 428.38,-37.21 428.38,-37.21 428.38,-40.42 425.17,-43.62 421.96,-43.62"/>
<text text-anchor="start" x="350.62" y="-31.07" font-family="Helvetica,sans-Serif" font-size="9.00">VideoEmbed.vue</text>
</a>
</g>
</g>
<!-- src/components/VideoCard.vue&#45;&gt;src/components/VideoEmbed.vue -->
<g id="edge9" class="edge">
<title>src/components/VideoCard.vue&#45;&gt;src/components/VideoEmbed.vue</title>
<path fill="none" stroke="#000000" stroke-width="2" stroke-opacity="0.200000" d="M308.65,-34C316.59,-34 325.12,-34 333.48,-34"/>
<polygon fill="#000000" fill-opacity="0.200000" stroke="#000000" stroke-width="2" stroke-opacity="0.200000" points="333.42,-36.1 339.42,-34 333.42,-31.9 333.42,-36.1"/>
</g>
<!-- src/components/VideoCard.vue&#45;&gt;src/services/index.ts -->
<g id="edge10" class="edge">
<title>src/components/VideoCard.vue&#45;&gt;src/services/index.ts</title>
<path fill="none" stroke="#000000" stroke-width="2" stroke-opacity="0.200000" d="M308.57,-38.51C314.62,-40.8 320.28,-44.14 324.5,-49 359.48,-89.3 309.87,-124.3 340.5,-168 343.15,-171.78 346.63,-174.99 350.46,-177.7"/>
<polygon fill="#000000" fill-opacity="0.200000" stroke="#000000" stroke-width="2" stroke-opacity="0.200000" points="349.33,-179.47 355.55,-180.75 351.48,-175.87 349.33,-179.47"/>
</g>
</g>
</svg>
