<?xml version="1.0" encoding="UTF-8" standalone="no"?>
<!DOCTYPE svg PUBLIC "-//W3C//DTD SVG 1.1//EN"
 "http://www.w3.org/Graphics/SVG/1.1/DTD/svg11.dtd">
<!-- Generated by graphviz version 9.0.0 (20230911.1827)
 -->
<!-- Title: dependency&#45;cruiser output Pages: 1 -->
<svg width="539pt" height="302pt"
 viewBox="0.00 0.00 539.25 302.00" xmlns="http://www.w3.org/2000/svg" xmlns:xlink="http://www.w3.org/1999/xlink">
<g id="graph0" class="graph" transform="scale(1 1) rotate(0) translate(4 298)">
<title>dependency&#45;cruiser output</title>
<polygon fill="white" stroke="none" points="-4,4 -4,-298 535.25,-298 535.25,4 -4,4"/>
<g id="clust1" class="cluster">
<title>cluster_src</title>
<path fill="#ffffff" stroke="black" stroke-width="2" d="M20,-8C20,-8 511.25,-8 511.25,-8 517.25,-8 523.25,-14 523.25,-20 523.25,-20 523.25,-274 523.25,-274 523.25,-280 517.25,-286 511.25,-286 511.25,-286 20,-286 20,-286 14,-286 8,-280 8,-274 8,-274 8,-20 8,-20 8,-14 14,-8 20,-8"/>
<text text-anchor="middle" x="265.62" y="-273.45" font-family="Helvetica,sans-Serif" font-weight="bold" font-size="9.00">src</text>
</g>
<g id="clust2" class="cluster">
<title>cluster_src/components</title>
<path fill="#ffffff" stroke="black" stroke-width="2" d="M90,-16C90,-16 425.25,-16 425.25,-16 431.25,-16 437.25,-22 437.25,-28 437.25,-28 437.25,-153 437.25,-153 437.25,-159 431.25,-165 425.25,-165 425.25,-165 90,-165 90,-165 84,-165 78,-159 78,-153 78,-153 78,-28 78,-28 78,-22 84,-16 90,-16"/>
<text text-anchor="middle" x="257.62" y="-152.45" font-family="Helvetica,sans-Serif" font-weight="bold" font-size="9.00">components</text>
</g>
<g id="clust3" class="cluster">
<title>cluster_src/components/FolderSelector</title>
<path fill="#ffffff" stroke="black" stroke-width="2" d="M228,-48C228,-48 417.25,-48 417.25,-48 423.25,-48 429.25,-54 429.25,-60 429.25,-60 429.25,-91 429.25,-91 429.25,-97 423.25,-103 417.25,-103 417.25,-103 228,-103 228,-103 222,-103 216,-97 216,-91 216,-91 216,-60 216,-60 216,-54 222,-48 228,-48"/>
<text text-anchor="middle" x="322.62" y="-90.45" font-family="Helvetica,sans-Serif" font-weight="bold" font-size="9.00">FolderSelector</text>
</g>
<g id="clust4" class="cluster">
<title>cluster_src/components/utils</title>
<path fill="#ffffff" stroke="black" stroke-width="2" d="M98,-83C98,-83 196,-83 196,-83 202,-83 208,-89 208,-95 208,-95 208,-126 208,-126 208,-132 202,-138 196,-138 196,-138 98,-138 98,-138 92,-138 86,-132 86,-126 86,-126 86,-95 86,-95 86,-89 92,-83 98,-83"/>
<text text-anchor="middle" x="147" y="-125.45" font-family="Helvetica,sans-Serif" font-weight="bold" font-size="9.00">utils</text>
</g>
<g id="clust5" class="cluster">
<title>cluster_src/services</title>
<path fill="#ffffff" stroke="black" stroke-width="2" d="M457.25,-126C457.25,-126 503.25,-126 503.25,-126 509.25,-126 515.25,-132 515.25,-138 515.25,-138 515.25,-169 515.25,-169 515.25,-175 509.25,-181 503.25,-181 503.25,-181 457.25,-181 457.25,-181 451.25,-181 445.25,-175 445.25,-169 445.25,-169 445.25,-138 445.25,-138 445.25,-132 451.25,-126 457.25,-126"/>
<text text-anchor="middle" x="480.25" y="-168.45" font-family="Helvetica,sans-Serif" font-weight="bold" font-size="9.00">services</text>
</g>
<g id="clust6" class="cluster">
<title>cluster_src/stores</title>
<path fill="#ffffff" stroke="black" stroke-width="2" d="M337.25,-173C337.25,-173 413.5,-173 413.5,-173 419.5,-173 425.5,-179 425.5,-185 425.5,-185 425.5,-247 425.5,-247 425.5,-253 419.5,-259 413.5,-259 413.5,-259 337.25,-259 337.25,-259 331.25,-259 325.25,-253 325.25,-247 325.25,-247 325.25,-185 325.25,-185 325.25,-179 331.25,-173 337.25,-173"/>
<text text-anchor="middle" x="375.38" y="-246.45" font-family="Helvetica,sans-Serif" font-weight="bold" font-size="9.00">stores</text>
</g>
<!-- src/App.vue -->
<g id="node1" class="node">
<title>src/App.vue</title>
<g id="a_node1"><a xlink:href="src/App.vue" xlink:title="App.vue">
<path fill="#41f083" stroke="black" d="M63.58,-74.62C63.58,-74.62 22.42,-74.62 22.42,-74.62 19.21,-74.62 16,-71.42 16,-68.21 16,-68.21 16,-61.79 16,-61.79 16,-58.58 19.21,-55.38 22.42,-55.38 22.42,-55.38 63.58,-55.38 63.58,-55.38 66.79,-55.38 70,-58.58 70,-61.79 70,-61.79 70,-68.21 70,-68.21 70,-71.42 66.79,-74.62 63.58,-74.62"/>
<text text-anchor="start" x="26.88" y="-62.08" font-family="Helvetica,sans-Serif" font-size="9.00">App.vue</text>
</a>
</g>
</g>
<!-- src/components/NavBar.vue -->
<g id="node2" class="node">
<title>src/components/NavBar.vue</title>
<g id="a_node2"><a xlink:href="src/components/NavBar.vue" xlink:title="NavBar.vue">
<path fill="#41f083" stroke="black" d="M171.83,-74.62C171.83,-74.62 122.17,-74.62 122.17,-74.62 118.96,-74.62 115.75,-71.42 115.75,-68.21 115.75,-68.21 115.75,-61.79 115.75,-61.79 115.75,-58.58 118.96,-55.38 122.17,-55.38 122.17,-55.38 171.83,-55.38 171.83,-55.38 175.04,-55.38 178.25,-58.58 178.25,-61.79 178.25,-61.79 178.25,-68.21 178.25,-68.21 178.25,-71.42 175.04,-74.62 171.83,-74.62"/>
<text text-anchor="start" x="123.75" y="-62.08" font-family="Helvetica,sans-Serif" font-size="9.00">NavBar.vue</text>
</a>
</g>
</g>
<!-- src/App.vue&#45;&gt;src/components/NavBar.vue -->
<g id="edge1" class="edge">
<title>src/App.vue&#45;&gt;src/components/NavBar.vue</title>
<path fill="none" stroke="#000000" stroke-width="2" stroke-opacity="0.200000" d="M70.27,-65C81.38,-65 94.56,-65 106.79,-65"/>
<polygon fill="#000000" fill-opacity="0.200000" stroke="#000000" stroke-width="2" stroke-opacity="0.200000" points="106.45,-67.1 112.45,-65 106.45,-62.9 106.45,-67.1"/>
</g>
<!-- src/components/utils/DiagnosticsPanel.vue -->
<g id="node3" class="node">
<title>src/components/utils/DiagnosticsPanel.vue</title>
<g id="a_node3"><a xlink:href="src/components/utils/DiagnosticsPanel.vue" xlink:title="DiagnosticsPanel.vue">
<path fill="#41f083" stroke="black" d="M193.58,-110.62C193.58,-110.62 100.42,-110.62 100.42,-110.62 97.21,-110.62 94,-107.42 94,-104.21 94,-104.21 94,-97.79 94,-97.79 94,-94.58 97.21,-91.38 100.42,-91.38 100.42,-91.38 193.58,-91.38 193.58,-91.38 196.79,-91.38 200,-94.58 200,-97.79 200,-97.79 200,-104.21 200,-104.21 200,-107.42 196.79,-110.62 193.58,-110.62"/>
<text text-anchor="start" x="102" y="-98.08" font-family="Helvetica,sans-Serif" font-size="9.00">DiagnosticsPanel.vue</text>
</a>
</g>
</g>
<!-- src/App.vue&#45;&gt;src/components/utils/DiagnosticsPanel.vue -->
<g id="edge2" class="edge">
<title>src/App.vue&#45;&gt;src/components/utils/DiagnosticsPanel.vue</title>
<path fill="none" stroke="#000000" stroke-width="2" stroke-opacity="0.200000" d="M56.93,-74.99C63.03,-79.27 70.58,-83.96 78,-87 80.35,-87.96 82.78,-88.86 85.25,-89.7"/>
<polygon fill="#000000" fill-opacity="0.200000" stroke="#000000" stroke-width="2" stroke-opacity="0.200000" points="84.55,-91.68 90.9,-91.44 85.79,-87.67 84.55,-91.68"/>
</g>
<!-- src/components/VideoGallery.vue -->
<g id="node4" class="node">
<title>src/components/VideoGallery.vue</title>
<g id="a_node4"><a xlink:href="src/components/VideoGallery.vue" xlink:title="VideoGallery.vue">
<path fill="#41f083" stroke="black" d="M182.71,-43.62C182.71,-43.62 111.29,-43.62 111.29,-43.62 108.08,-43.62 104.88,-40.42 104.88,-37.21 104.88,-37.21 104.88,-30.79 104.88,-30.79 104.88,-27.58 108.08,-24.38 111.29,-24.38 111.29,-24.38 182.71,-24.38 182.71,-24.38 185.92,-24.38 189.12,-27.58 189.12,-30.79 189.12,-30.79 189.12,-37.21 189.12,-37.21 189.12,-40.42 185.92,-43.62 182.71,-43.62"/>
<text text-anchor="start" x="112.88" y="-31.07" font-family="Helvetica,sans-Serif" font-size="9.00">VideoGallery.vue</text>
</a>
</g>
</g>
<!-- src/App.vue&#45;&gt;src/components/VideoGallery.vue -->
<g id="edge3" class="edge">
<title>src/App.vue&#45;&gt;src/components/VideoGallery.vue</title>
<path fill="none" stroke="#000000" stroke-width="2" stroke-opacity="0.200000" d="M63.47,-54.93C68.15,-52.77 73.18,-50.64 78,-49 83.82,-47.02 90.01,-45.23 96.2,-43.64"/>
<polygon fill="#000000" fill-opacity="0.200000" stroke="#000000" stroke-width="2" stroke-opacity="0.200000" points="96.33,-45.77 101.66,-42.31 95.33,-41.69 96.33,-45.77"/>
</g>
<!-- src/components/FolderSelector/FolderSelector.vue -->
<g id="node6" class="node">
<title>src/components/FolderSelector/FolderSelector.vue</title>
<g id="a_node6"><a xlink:href="src/components/FolderSelector/FolderSelector.vue" xlink:title="FolderSelector.vue">
<path fill="#41f083" stroke="black" d="M310.08,-75.62C310.08,-75.62 230.42,-75.62 230.42,-75.62 227.21,-75.62 224,-72.42 224,-69.21 224,-69.21 224,-62.79 224,-62.79 224,-59.58 227.21,-56.38 230.42,-56.38 230.42,-56.38 310.08,-56.38 310.08,-56.38 313.29,-56.38 316.5,-59.58 316.5,-62.79 316.5,-62.79 316.5,-69.21 316.5,-69.21 316.5,-72.42 313.29,-75.62 310.08,-75.62"/>
<text text-anchor="start" x="232" y="-63.08" font-family="Helvetica,sans-Serif" font-size="9.00">FolderSelector.vue</text>
</a>
</g>
</g>
<!-- src/components/NavBar.vue&#45;&gt;src/components/FolderSelector/FolderSelector.vue -->
<g id="edge7" class="edge">
<title>src/components/NavBar.vue&#45;&gt;src/components/FolderSelector/FolderSelector.vue</title>
<path fill="none" stroke="#000000" stroke-width="2" stroke-opacity="0.200000" d="M178.6,-65.25C189.55,-65.34 202.25,-65.45 214.61,-65.55"/>
<polygon fill="#000000" fill-opacity="0.200000" stroke="#000000" stroke-width="2" stroke-opacity="0.200000" points="214.49,-67.65 220.5,-65.6 214.52,-63.45 214.49,-67.65"/>
</g>
<!-- src/stores/videosStore.ts -->
<g id="node8" class="node">
<title>src/stores/videosStore.ts</title>
<g id="a_node8"><a xlink:href="src/stores/videosStore.ts" xlink:title="videosStore.ts">
<path fill="#ddfeff" stroke="black" d="M406.21,-200.62C406.21,-200.62 344.54,-200.62 344.54,-200.62 341.33,-200.62 338.12,-197.42 338.12,-194.21 338.12,-194.21 338.12,-187.79 338.12,-187.79 338.12,-184.58 341.33,-181.38 344.54,-181.38 344.54,-181.38 406.21,-181.38 406.21,-181.38 409.42,-181.38 412.62,-184.58 412.62,-187.79 412.62,-187.79 412.62,-194.21 412.62,-194.21 412.62,-197.42 409.42,-200.62 406.21,-200.62"/>
<text text-anchor="start" x="346.12" y="-188.07" font-family="Helvetica,sans-Serif" font-size="9.00">videosStore.ts</text>
</a>
</g>
</g>
<!-- src/components/NavBar.vue&#45;&gt;src/stores/videosStore.ts -->
<g id="edge9" class="edge">
<title>src/components/NavBar.vue&#45;&gt;src/stores/videosStore.ts</title>
<path fill="none" stroke="#000000" stroke-width="2" stroke-opacity="0.200000" d="M178.64,-65.63C189.46,-67.47 200.72,-71.53 208,-80 220.36,-94.39 203.05,-151.13 216,-165 244.22,-195.23 292.95,-199.15 328.93,-197.1"/>
<polygon fill="#000000" fill-opacity="0.200000" stroke="#000000" stroke-width="2" stroke-opacity="0.200000" points="328.93,-199.21 334.76,-196.68 328.62,-195.02 328.93,-199.21"/>
</g>
<!-- src/stores/appStateStore.ts -->
<g id="node9" class="node">
<title>src/stores/appStateStore.ts</title>
<g id="a_node9"><a xlink:href="src/stores/appStateStore.ts" xlink:title="appStateStore.ts">
<path fill="#ddfeff" stroke="black" d="M411.08,-231.62C411.08,-231.62 339.67,-231.62 339.67,-231.62 336.46,-231.62 333.25,-228.42 333.25,-225.21 333.25,-225.21 333.25,-218.79 333.25,-218.79 333.25,-215.58 336.46,-212.38 339.67,-212.38 339.67,-212.38 411.08,-212.38 411.08,-212.38 414.29,-212.38 417.5,-215.58 417.5,-218.79 417.5,-218.79 417.5,-225.21 417.5,-225.21 417.5,-228.42 414.29,-231.62 411.08,-231.62"/>
<text text-anchor="start" x="341.25" y="-219.07" font-family="Helvetica,sans-Serif" font-size="9.00">appStateStore.ts</text>
</a>
</g>
</g>
<!-- src/components/NavBar.vue&#45;&gt;src/stores/appStateStore.ts -->
<g id="edge8" class="edge">
<title>src/components/NavBar.vue&#45;&gt;src/stores/appStateStore.ts</title>
<path fill="none" stroke="#000000" stroke-width="2" stroke-opacity="0.200000" d="M178.72,-65.56C189.55,-67.39 200.8,-71.47 208,-80 223.09,-97.88 200.73,-167.27 216,-185 245.9,-219.72 271.9,-197.5 316.5,-208 319.08,-208.61 321.73,-209.23 324.4,-209.87"/>
<polygon fill="#000000" fill-opacity="0.200000" stroke="#000000" stroke-width="2" stroke-opacity="0.200000" points="323.71,-211.86 330.03,-211.22 324.68,-207.78 323.71,-211.86"/>
</g>
<!-- src/components/utils/DiagnosticsPanel.vue&#45;&gt;src/stores/appStateStore.ts -->
<g id="edge14" class="edge">
<title>src/components/utils/DiagnosticsPanel.vue&#45;&gt;src/stores/appStateStore.ts</title>
<path fill="none" stroke="#000000" stroke-width="2" stroke-opacity="0.200000" d="M151.09,-111.06C158.37,-132.86 178.85,-184.35 216,-207 248.26,-226.66 291.25,-229.6 324.31,-228.06"/>
<polygon fill="#000000" fill-opacity="0.200000" stroke="#000000" stroke-width="2" stroke-opacity="0.200000" points="324.03,-230.18 329.89,-227.73 323.78,-225.99 324.03,-230.18"/>
</g>
<!-- src/components/VideoGallery.vue&#45;&gt;src/stores/videosStore.ts -->
<g id="edge13" class="edge">
<title>src/components/VideoGallery.vue&#45;&gt;src/stores/videosStore.ts</title>
<path fill="none" stroke="#000000" stroke-width="2" stroke-opacity="0.200000" d="M189.56,-37.31C196.6,-39.69 203.18,-43.37 208,-49 220.77,-63.91 203.5,-121.86 216,-137 245.6,-172.85 272.74,-150.31 316.5,-166 325.79,-169.33 335.72,-173.42 344.68,-177.32"/>
<polygon fill="#000000" fill-opacity="0.200000" stroke="#000000" stroke-width="2" stroke-opacity="0.200000" points="343.82,-179.23 350.16,-179.74 345.52,-175.39 343.82,-179.23"/>
</g>
<!-- src/components/VideoCard.vue -->
<g id="node10" class="node">
<title>src/components/VideoCard.vue</title>
<g id="a_node10"><a xlink:href="src/components/VideoCard.vue" xlink:title="VideoCard.vue">
<path fill="#41f083" stroke="black" d="M301.83,-130.62C301.83,-130.62 238.67,-130.62 238.67,-130.62 235.46,-130.62 232.25,-127.42 232.25,-124.21 232.25,-124.21 232.25,-117.79 232.25,-117.79 232.25,-114.58 235.46,-111.38 238.67,-111.38 238.67,-111.38 301.83,-111.38 301.83,-111.38 305.04,-111.38 308.25,-114.58 308.25,-117.79 308.25,-117.79 308.25,-124.21 308.25,-124.21 308.25,-127.42 305.04,-130.62 301.83,-130.62"/>
<text text-anchor="start" x="240.25" y="-118.08" font-family="Helvetica,sans-Serif" font-size="9.00">VideoCard.vue</text>
</a>
</g>
</g>
<!-- src/components/VideoGallery.vue&#45;&gt;src/components/VideoCard.vue -->
<g id="edge12" class="edge">
<title>src/components/VideoGallery.vue&#45;&gt;src/components/VideoCard.vue</title>
<path fill="none" stroke="#000000" stroke-width="2" stroke-opacity="0.200000" d="M189.34,-37.5C196.4,-39.86 203.04,-43.49 208,-49 225.11,-68.02 199.17,-86.73 216,-106 218.31,-108.65 221.06,-110.85 224.06,-112.67"/>
<polygon fill="#000000" fill-opacity="0.200000" stroke="#000000" stroke-width="2" stroke-opacity="0.200000" points="222.91,-114.45 229.23,-115.16 224.73,-110.66 222.91,-114.45"/>
</g>
<!-- src/components/FolderSelector/FileVideoParser.ts -->
<g id="node5" class="node">
<title>src/components/FolderSelector/FileVideoParser.ts</title>
<g id="a_node5"><a xlink:href="src/components/FolderSelector/FileVideoParser.ts" xlink:title="FileVideoParser.ts">
<path fill="#ddfeff" stroke="black" d="M414.83,-75.62C414.83,-75.62 335.92,-75.62 335.92,-75.62 332.71,-75.62 329.5,-72.42 329.5,-69.21 329.5,-69.21 329.5,-62.79 329.5,-62.79 329.5,-59.58 332.71,-56.38 335.92,-56.38 335.92,-56.38 414.83,-56.38 414.83,-56.38 418.04,-56.38 421.25,-59.58 421.25,-62.79 421.25,-62.79 421.25,-69.21 421.25,-69.21 421.25,-72.42 418.04,-75.62 414.83,-75.62"/>
<text text-anchor="start" x="337.5" y="-63.08" font-family="Helvetica,sans-Serif" font-size="9.00">FileVideoParser.ts</text>
</a>
</g>
</g>
<!-- src/components/FolderSelector/FolderSelector.vue&#45;&gt;src/components/FolderSelector/FileVideoParser.ts -->
<g id="edge4" class="edge">
<title>src/components/FolderSelector/FolderSelector.vue&#45;&gt;src/components/FolderSelector/FileVideoParser.ts</title>
<path fill="none" stroke="#000000" stroke-width="2" stroke-opacity="0.200000" d="M316.78,-66C317.94,-66 319.09,-66 320.25,-66"/>
<polygon fill="#000000" fill-opacity="0.200000" stroke="#000000" stroke-width="2" stroke-opacity="0.200000" points="320.11,-68.1 326.11,-66 320.11,-63.9 320.11,-68.1"/>
</g>
<!-- src/services/index.ts -->
<g id="node7" class="node">
<title>src/services/index.ts</title>
<g id="a_node7"><a xlink:href="src/services/index.ts" xlink:title="index.ts">
<path fill="#ddfeff" stroke="black" d="M500.83,-153.62C500.83,-153.62 459.67,-153.62 459.67,-153.62 456.46,-153.62 453.25,-150.42 453.25,-147.21 453.25,-147.21 453.25,-140.79 453.25,-140.79 453.25,-137.58 456.46,-134.38 459.67,-134.38 459.67,-134.38 500.83,-134.38 500.83,-134.38 504.04,-134.38 507.25,-137.58 507.25,-140.79 507.25,-140.79 507.25,-147.21 507.25,-147.21 507.25,-150.42 504.04,-153.62 500.83,-153.62"/>
<text text-anchor="start" x="464.5" y="-141.07" font-family="Helvetica,sans-Serif" font-size="9.00">index.ts</text>
</a>
</g>
</g>
<!-- src/components/FolderSelector/FolderSelector.vue&#45;&gt;src/services/index.ts -->
<g id="edge5" class="edge">
<title>src/components/FolderSelector/FolderSelector.vue&#45;&gt;src/services/index.ts</title>
<path fill="none" stroke="#000000" stroke-width="2" stroke-opacity="0.200000" d="M292.92,-55.92C326.71,-41.85 392.67,-21.09 437.25,-50 462.86,-66.6 472.99,-102.87 476.9,-125.19"/>
<polygon fill="#000000" fill-opacity="0.200000" stroke="#000000" stroke-width="2" stroke-opacity="0.200000" points="474.82,-125.46 477.8,-131.08 478.97,-124.83 474.82,-125.46"/>
</g>
<!-- src/components/FolderSelector/FolderSelector.vue&#45;&gt;src/stores/videosStore.ts -->
<g id="edge6" class="edge">
<title>src/components/FolderSelector/FolderSelector.vue&#45;&gt;src/stores/videosStore.ts</title>
<path fill="none" stroke="#000000" stroke-width="2" stroke-opacity="0.200000" d="M312.31,-75.89C313.84,-77.11 315.25,-78.47 316.5,-80 341.36,-110.44 302.54,-135.92 325.25,-168 327.45,-171.11 330.19,-173.82 333.23,-176.16"/>
<polygon fill="#000000" fill-opacity="0.200000" stroke="#000000" stroke-width="2" stroke-opacity="0.200000" points="332.06,-177.9 338.25,-179.38 334.33,-174.37 332.06,-177.9"/>
</g>
<!-- src/stores/videosStore.ts&#45;&gt;src/services/index.ts -->
<g id="edge15" class="edge">
<title>src/stores/videosStore.ts&#45;&gt;src/services/index.ts</title>
<path fill="none" stroke="#000000" stroke-width="2" stroke-opacity="0.200000" d="M405.87,-180.92C415.97,-177.19 427.23,-172.72 437.25,-168 443.31,-165.15 449.67,-161.74 455.55,-158.41"/>
<polygon fill="#000000" fill-opacity="0.200000" stroke="#000000" stroke-width="2" stroke-opacity="0.200000" points="456.46,-160.31 460.6,-155.48 454.35,-156.68 456.46,-160.31"/>
</g>
<!-- src/components/VideoCard.vue&#45;&gt;src/services/index.ts -->
<g id="edge11" class="edge">
<title>src/components/VideoCard.vue&#45;&gt;src/services/index.ts</title>
<path fill="none" stroke="#000000" stroke-width="2" stroke-opacity="0.200000" d="M300.65,-131.12C308.55,-133.45 317.15,-135.64 325.25,-137 365.61,-143.79 412.69,-144.97 444.07,-144.81"/>
<polygon fill="#000000" fill-opacity="0.200000" stroke="#000000" stroke-width="2" stroke-opacity="0.200000" points="443.88,-146.92 449.86,-144.76 443.84,-142.72 443.88,-146.92"/>
</g>
<!-- src/components/VideoEmbed.vue -->
<g id="node11" class="node">
<title>src/components/VideoEmbed.vue</title>
<g id="a_node11"><a xlink:href="src/components/VideoEmbed.vue" xlink:title="VideoEmbed.vue">
<path fill="#41f083" stroke="black" d="M411.83,-130.62C411.83,-130.62 338.92,-130.62 338.92,-130.62 335.71,-130.62 332.5,-127.42 332.5,-124.21 332.5,-124.21 332.5,-117.79 332.5,-117.79 332.5,-114.58 335.71,-111.38 338.92,-111.38 338.92,-111.38 411.83,-111.38 411.83,-111.38 415.04,-111.38 418.25,-114.58 418.25,-117.79 418.25,-117.79 418.25,-124.21 418.25,-124.21 418.25,-127.42 415.04,-130.62 411.83,-130.62"/>
<text text-anchor="start" x="340.5" y="-118.08" font-family="Helvetica,sans-Serif" font-size="9.00">VideoEmbed.vue</text>
</a>
</g>
</g>
<!-- src/components/VideoCard.vue&#45;&gt;src/components/VideoEmbed.vue -->
<g id="edge10" class="edge">
<title>src/components/VideoCard.vue&#45;&gt;src/components/VideoEmbed.vue</title>
<path fill="none" stroke="#000000" stroke-width="2" stroke-opacity="0.200000" d="M308.48,-121C313.31,-121 318.33,-121 323.33,-121"/>
<polygon fill="#000000" fill-opacity="0.200000" stroke="#000000" stroke-width="2" stroke-opacity="0.200000" points="323.27,-123.1 329.27,-121 323.27,-118.9 323.27,-123.1"/>
</g>
</g>
</svg>
