<?xml version="1.0" encoding="UTF-8" standalone="no"?>
<!DOCTYPE svg PUBLIC "-//W3C//DTD SVG 1.1//EN"
 "http://www.w3.org/Graphics/SVG/1.1/DTD/svg11.dtd">
<!-- Generated by graphviz version 9.0.0 (20230911.1827)
 -->
<!-- Title: dependency&#45;cruiser output Pages: 1 -->
<svg width="449pt" height="334pt"
 viewBox="0.00 0.00 449.25 334.00" xmlns="http://www.w3.org/2000/svg" xmlns:xlink="http://www.w3.org/1999/xlink">
<g id="graph0" class="graph" transform="scale(1 1) rotate(0) translate(4 330)">
<title>dependency&#45;cruiser output</title>
<polygon fill="white" stroke="none" points="-4,4 -4,-330 445.25,-330 445.25,4 -4,4"/>
<g id="clust1" class="cluster">
<title>cluster_src</title>
<path fill="#ffffff" stroke="black" stroke-width="2" d="M20,-8C20,-8 421.25,-8 421.25,-8 427.25,-8 433.25,-14 433.25,-20 433.25,-20 433.25,-306 433.25,-306 433.25,-312 427.25,-318 421.25,-318 421.25,-318 20,-318 20,-318 14,-318 8,-312 8,-306 8,-306 8,-20 8,-20 8,-14 14,-8 20,-8"/>
<text text-anchor="middle" x="220.62" y="-305.45" font-family="Helvetica,sans-Serif" font-weight="bold" font-size="9.00">src</text>
</g>
<g id="clust2" class="cluster">
<title>cluster_src/components</title>
<path fill="#ffffff" stroke="black" stroke-width="2" d="M198.25,-16C198.25,-16 413.25,-16 413.25,-16 419.25,-16 425.25,-22 425.25,-28 425.25,-28 425.25,-185 425.25,-185 425.25,-191 419.25,-197 413.25,-197 413.25,-197 198.25,-197 198.25,-197 192.25,-197 186.25,-191 186.25,-185 186.25,-185 186.25,-28 186.25,-28 186.25,-22 192.25,-16 198.25,-16"/>
<text text-anchor="middle" x="305.75" y="-184.45" font-family="Helvetica,sans-Serif" font-weight="bold" font-size="9.00">components</text>
</g>
<g id="clust4" class="cluster">
<title>cluster_src/components/utils</title>
<path fill="#ffffff" stroke="black" stroke-width="2" d="M206.25,-24C206.25,-24 304.25,-24 304.25,-24 310.25,-24 316.25,-30 316.25,-36 316.25,-36 316.25,-67 316.25,-67 316.25,-73 310.25,-79 304.25,-79 304.25,-79 206.25,-79 206.25,-79 200.25,-79 194.25,-73 194.25,-67 194.25,-67 194.25,-36 194.25,-36 194.25,-30 200.25,-24 206.25,-24"/>
<text text-anchor="middle" x="255.25" y="-66.45" font-family="Helvetica,sans-Serif" font-weight="bold" font-size="9.00">utils</text>
</g>
<g id="clust3" class="cluster">
<title>cluster_src/components/inputs</title>
<path fill="#ffffff" stroke="black" stroke-width="2" d="M213,-115C213,-115 297.5,-115 297.5,-115 303.5,-115 309.5,-121 309.5,-127 309.5,-127 309.5,-158 309.5,-158 309.5,-164 303.5,-170 297.5,-170 297.5,-170 213,-170 213,-170 207,-170 201,-164 201,-158 201,-158 201,-127 201,-127 201,-121 207,-115 213,-115"/>
<text text-anchor="middle" x="255.25" y="-157.45" font-family="Helvetica,sans-Serif" font-weight="bold" font-size="9.00">inputs</text>
</g>
<g id="clust5" class="cluster">
<title>cluster_src/stores</title>
<path fill="#ffffff" stroke="black" stroke-width="2" d="M336.25,-205C336.25,-205 412.5,-205 412.5,-205 418.5,-205 424.5,-211 424.5,-217 424.5,-217 424.5,-279 424.5,-279 424.5,-285 418.5,-291 412.5,-291 412.5,-291 336.25,-291 336.25,-291 330.25,-291 324.25,-285 324.25,-279 324.25,-279 324.25,-217 324.25,-217 324.25,-211 330.25,-205 336.25,-205"/>
<text text-anchor="middle" x="374.38" y="-278.45" font-family="Helvetica,sans-Serif" font-weight="bold" font-size="9.00">stores</text>
</g>
<g id="clust6" class="cluster">
<title>cluster_src/views</title>
<path fill="#ffffff" stroke="black" stroke-width="2" d="M90,-124C90,-124 166.25,-124 166.25,-124 172.25,-124 178.25,-130 178.25,-136 178.25,-136 178.25,-198 178.25,-198 178.25,-204 172.25,-210 166.25,-210 166.25,-210 90,-210 90,-210 84,-210 78,-204 78,-198 78,-198 78,-136 78,-136 78,-130 84,-124 90,-124"/>
<text text-anchor="middle" x="128.12" y="-197.45" font-family="Helvetica,sans-Serif" font-weight="bold" font-size="9.00">views</text>
</g>
<!-- src/App.vue -->
<g id="node1" class="node">
<title>src/App.vue</title>
<g id="a_node1"><a xlink:href="src/App.vue" xlink:title="App.vue">
<path fill="#41f083" stroke="black" d="M63.58,-151.62C63.58,-151.62 22.42,-151.62 22.42,-151.62 19.21,-151.62 16,-148.42 16,-145.21 16,-145.21 16,-138.79 16,-138.79 16,-135.58 19.21,-132.38 22.42,-132.38 22.42,-132.38 63.58,-132.38 63.58,-132.38 66.79,-132.38 70,-135.58 70,-138.79 70,-138.79 70,-145.21 70,-145.21 70,-148.42 66.79,-151.62 63.58,-151.62"/>
<text text-anchor="start" x="26.88" y="-139.07" font-family="Helvetica,sans-Serif" font-size="9.00">App.vue</text>
</a>
</g>
</g>
<!-- src/components/utils/DiagnosticsPanel.vue -->
<g id="node2" class="node">
<title>src/components/utils/DiagnosticsPanel.vue</title>
<g id="a_node2"><a xlink:href="src/components/utils/DiagnosticsPanel.vue" xlink:title="DiagnosticsPanel.vue">
<path fill="#41f083" stroke="black" d="M301.83,-51.62C301.83,-51.62 208.67,-51.62 208.67,-51.62 205.46,-51.62 202.25,-48.42 202.25,-45.21 202.25,-45.21 202.25,-38.79 202.25,-38.79 202.25,-35.58 205.46,-32.38 208.67,-32.38 208.67,-32.38 301.83,-32.38 301.83,-32.38 305.04,-32.38 308.25,-35.58 308.25,-38.79 308.25,-38.79 308.25,-45.21 308.25,-45.21 308.25,-48.42 305.04,-51.62 301.83,-51.62"/>
<text text-anchor="start" x="210.25" y="-39.08" font-family="Helvetica,sans-Serif" font-size="9.00">DiagnosticsPanel.vue</text>
</a>
</g>
</g>
<!-- src/App.vue&#45;&gt;src/components/utils/DiagnosticsPanel.vue -->
<g id="edge1" class="edge">
<title>src/App.vue&#45;&gt;src/components/utils/DiagnosticsPanel.vue</title>
<path fill="none" stroke="#000000" stroke-width="2" stroke-opacity="0.200000" d="M56.92,-132.06C80.99,-114.04 134.9,-76.03 186.25,-56 188.57,-55.1 190.95,-54.25 193.38,-53.45"/>
<polygon fill="#000000" fill-opacity="0.200000" stroke="#000000" stroke-width="2" stroke-opacity="0.200000" points="193.71,-55.54 198.85,-51.81 192.5,-51.52 193.71,-55.54"/>
</g>
<!-- src/views/NavBar.vue -->
<g id="node3" class="node">
<title>src/views/NavBar.vue</title>
<g id="a_node3"><a xlink:href="src/views/NavBar.vue" xlink:title="NavBar.vue">
<path fill="#41f083" stroke="black" d="M152.96,-182.62C152.96,-182.62 103.29,-182.62 103.29,-182.62 100.08,-182.62 96.88,-179.42 96.88,-176.21 96.88,-176.21 96.88,-169.79 96.88,-169.79 96.88,-166.58 100.08,-163.38 103.29,-163.38 103.29,-163.38 152.96,-163.38 152.96,-163.38 156.17,-163.38 159.38,-166.58 159.38,-169.79 159.38,-169.79 159.38,-176.21 159.38,-176.21 159.38,-179.42 156.17,-182.62 152.96,-182.62"/>
<text text-anchor="start" x="104.88" y="-170.07" font-family="Helvetica,sans-Serif" font-size="9.00">NavBar.vue</text>
</a>
</g>
</g>
<!-- src/App.vue&#45;&gt;src/views/NavBar.vue -->
<g id="edge2" class="edge">
<title>src/App.vue&#45;&gt;src/views/NavBar.vue</title>
<path fill="none" stroke="#000000" stroke-width="2" stroke-opacity="0.200000" d="M63.93,-151.96C68.5,-154.08 73.37,-156.22 78,-158 81.23,-159.25 84.61,-160.46 88.02,-161.62"/>
<polygon fill="#000000" fill-opacity="0.200000" stroke="#000000" stroke-width="2" stroke-opacity="0.200000" points="87.26,-163.58 93.62,-163.45 88.57,-159.59 87.26,-163.58"/>
</g>
<!-- src/views/VideoGallery.vue -->
<g id="node4" class="node">
<title>src/views/VideoGallery.vue</title>
<g id="a_node4"><a xlink:href="src/views/VideoGallery.vue" xlink:title="VideoGallery.vue">
<path fill="#41f083" stroke="black" d="M163.83,-151.62C163.83,-151.62 92.42,-151.62 92.42,-151.62 89.21,-151.62 86,-148.42 86,-145.21 86,-145.21 86,-138.79 86,-138.79 86,-135.58 89.21,-132.38 92.42,-132.38 92.42,-132.38 163.83,-132.38 163.83,-132.38 167.04,-132.38 170.25,-135.58 170.25,-138.79 170.25,-138.79 170.25,-145.21 170.25,-145.21 170.25,-148.42 167.04,-151.62 163.83,-151.62"/>
<text text-anchor="start" x="94" y="-139.07" font-family="Helvetica,sans-Serif" font-size="9.00">VideoGallery.vue</text>
</a>
</g>
</g>
<!-- src/App.vue&#45;&gt;src/views/VideoGallery.vue -->
<g id="edge3" class="edge">
<title>src/App.vue&#45;&gt;src/views/VideoGallery.vue</title>
<path fill="none" stroke="#000000" stroke-width="2" stroke-opacity="0.200000" d="M70.3,-142C72.42,-142 74.61,-142 76.83,-142"/>
<polygon fill="#000000" fill-opacity="0.200000" stroke="#000000" stroke-width="2" stroke-opacity="0.200000" points="76.47,-144.1 82.47,-142 76.47,-139.9 76.47,-144.1"/>
</g>
<!-- src/stores/appStateStore.ts -->
<g id="node9" class="node">
<title>src/stores/appStateStore.ts</title>
<g id="a_node9"><a xlink:href="src/stores/appStateStore.ts" xlink:title="appStateStore.ts">
<path fill="#ddfeff" stroke="black" d="M410.08,-232.62C410.08,-232.62 338.67,-232.62 338.67,-232.62 335.46,-232.62 332.25,-229.42 332.25,-226.21 332.25,-226.21 332.25,-219.79 332.25,-219.79 332.25,-216.58 335.46,-213.38 338.67,-213.38 338.67,-213.38 410.08,-213.38 410.08,-213.38 413.29,-213.38 416.5,-216.58 416.5,-219.79 416.5,-219.79 416.5,-226.21 416.5,-226.21 416.5,-229.42 413.29,-232.62 410.08,-232.62"/>
<text text-anchor="start" x="340.25" y="-220.07" font-family="Helvetica,sans-Serif" font-size="9.00">appStateStore.ts</text>
</a>
</g>
</g>
<!-- src/components/utils/DiagnosticsPanel.vue&#45;&gt;src/stores/appStateStore.ts -->
<g id="edge7" class="edge">
<title>src/components/utils/DiagnosticsPanel.vue&#45;&gt;src/stores/appStateStore.ts</title>
<path fill="none" stroke="#000000" stroke-width="2" stroke-opacity="0.200000" d="M308.62,-49.38C311.46,-51.19 314.05,-53.38 316.25,-56 336.86,-80.54 306.31,-173.44 324.25,-200 326.39,-203.16 329.07,-205.9 332.09,-208.26"/>
<polygon fill="#000000" fill-opacity="0.200000" stroke="#000000" stroke-width="2" stroke-opacity="0.200000" points="330.89,-209.99 337.07,-211.49 333.18,-206.47 330.89,-209.99"/>
</g>
<!-- src/stores/videosStore.ts -->
<g id="node7" class="node">
<title>src/stores/videosStore.ts</title>
<g id="a_node7"><a xlink:href="src/stores/videosStore.ts" xlink:title="videosStore.ts">
<path fill="#ddfeff" stroke="black" d="M405.21,-263.62C405.21,-263.62 343.54,-263.62 343.54,-263.62 340.33,-263.62 337.12,-260.42 337.12,-257.21 337.12,-257.21 337.12,-250.79 337.12,-250.79 337.12,-247.58 340.33,-244.38 343.54,-244.38 343.54,-244.38 405.21,-244.38 405.21,-244.38 408.42,-244.38 411.62,-247.58 411.62,-250.79 411.62,-250.79 411.62,-257.21 411.62,-257.21 411.62,-260.42 408.42,-263.62 405.21,-263.62"/>
<text text-anchor="start" x="345.12" y="-251.07" font-family="Helvetica,sans-Serif" font-size="9.00">videosStore.ts</text>
</a>
</g>
</g>
<!-- src/views/NavBar.vue&#45;&gt;src/stores/videosStore.ts -->
<g id="edge10" class="edge">
<title>src/views/NavBar.vue&#45;&gt;src/stores/videosStore.ts</title>
<path fill="none" stroke="#000000" stroke-width="2" stroke-opacity="0.200000" d="M134.57,-183.06C143.27,-198.02 161.84,-225.68 186.25,-238 230.63,-260.41 288.52,-261.8 328.09,-259.26"/>
<polygon fill="#000000" fill-opacity="0.200000" stroke="#000000" stroke-width="2" stroke-opacity="0.200000" points="327.89,-261.38 333.72,-258.85 327.58,-257.19 327.89,-261.38"/>
</g>
<!-- src/components/inputs/FolderSelector.vue -->
<g id="node8" class="node">
<title>src/components/inputs/FolderSelector.vue</title>
<g id="a_node8"><a xlink:href="src/components/inputs/FolderSelector.vue" xlink:title="FolderSelector.vue">
<path fill="#41f083" stroke="black" d="M295.08,-142.62C295.08,-142.62 215.42,-142.62 215.42,-142.62 212.21,-142.62 209,-139.42 209,-136.21 209,-136.21 209,-129.79 209,-129.79 209,-126.58 212.21,-123.38 215.42,-123.38 215.42,-123.38 295.08,-123.38 295.08,-123.38 298.29,-123.38 301.5,-126.58 301.5,-129.79 301.5,-129.79 301.5,-136.21 301.5,-136.21 301.5,-139.42 298.29,-142.62 295.08,-142.62"/>
<text text-anchor="start" x="217" y="-130.07" font-family="Helvetica,sans-Serif" font-size="9.00">FolderSelector.vue</text>
</a>
</g>
</g>
<!-- src/views/NavBar.vue&#45;&gt;src/components/inputs/FolderSelector.vue -->
<g id="edge8" class="edge">
<title>src/views/NavBar.vue&#45;&gt;src/components/inputs/FolderSelector.vue</title>
<path fill="none" stroke="#000000" stroke-width="2" stroke-opacity="0.200000" d="M159.82,-163.74C165.93,-161.86 172.3,-159.89 178.25,-158 190.4,-154.15 203.6,-149.85 215.54,-145.91"/>
<polygon fill="#000000" fill-opacity="0.200000" stroke="#000000" stroke-width="2" stroke-opacity="0.200000" points="216.06,-147.95 221.1,-144.07 214.74,-143.96 216.06,-147.95"/>
</g>
<!-- src/views/NavBar.vue&#45;&gt;src/stores/appStateStore.ts -->
<g id="edge9" class="edge">
<title>src/views/NavBar.vue&#45;&gt;src/stores/appStateStore.ts</title>
<path fill="none" stroke="#000000" stroke-width="2" stroke-opacity="0.200000" d="M159.57,-179.23C200.58,-187.63 274.12,-202.68 323.33,-212.76"/>
<polygon fill="#000000" fill-opacity="0.200000" stroke="#000000" stroke-width="2" stroke-opacity="0.200000" points="322.65,-214.76 328.95,-213.91 323.5,-210.65 322.65,-214.76"/>
</g>
<!-- src/components/VideoCard.vue -->
<g id="node5" class="node">
<title>src/components/VideoCard.vue</title>
<g id="a_node5"><a xlink:href="src/components/VideoCard.vue" xlink:title="VideoCard.vue">
<path fill="#41f083" stroke="black" d="M286.83,-106.62C286.83,-106.62 223.67,-106.62 223.67,-106.62 220.46,-106.62 217.25,-103.42 217.25,-100.21 217.25,-100.21 217.25,-93.79 217.25,-93.79 217.25,-90.58 220.46,-87.38 223.67,-87.38 223.67,-87.38 286.83,-87.38 286.83,-87.38 290.04,-87.38 293.25,-90.58 293.25,-93.79 293.25,-93.79 293.25,-100.21 293.25,-100.21 293.25,-103.42 290.04,-106.62 286.83,-106.62"/>
<text text-anchor="start" x="225.25" y="-94.08" font-family="Helvetica,sans-Serif" font-size="9.00">VideoCard.vue</text>
</a>
</g>
</g>
<!-- src/views/VideoGallery.vue&#45;&gt;src/components/VideoCard.vue -->
<g id="edge11" class="edge">
<title>src/views/VideoGallery.vue&#45;&gt;src/components/VideoCard.vue</title>
<path fill="none" stroke="#000000" stroke-width="2" stroke-opacity="0.200000" d="M170.64,-133.02C173.36,-131.59 175.93,-129.92 178.25,-128 184.37,-122.92 179.98,-116.89 186.25,-112 192.69,-106.98 200.47,-103.56 208.43,-101.25"/>
<polygon fill="#000000" fill-opacity="0.200000" stroke="#000000" stroke-width="2" stroke-opacity="0.200000" points="208.8,-103.32 214.14,-99.87 207.82,-99.24 208.8,-103.32"/>
</g>
<!-- src/views/VideoGallery.vue&#45;&gt;src/stores/videosStore.ts -->
<g id="edge12" class="edge">
<title>src/views/VideoGallery.vue&#45;&gt;src/stores/videosStore.ts</title>
<path fill="none" stroke="#000000" stroke-width="2" stroke-opacity="0.200000" d="M170.66,-151.86C173.37,-153.34 175.93,-155.04 178.25,-157 184.32,-162.13 180.58,-167.43 186.25,-173 234.74,-220.65 260.89,-214.34 324.25,-239 326.04,-239.7 327.88,-240.38 329.74,-241.05"/>
<polygon fill="#000000" fill-opacity="0.200000" stroke="#000000" stroke-width="2" stroke-opacity="0.200000" points="328.78,-242.95 335.14,-242.91 330.15,-238.97 328.78,-242.95"/>
</g>
<!-- src/components/VideoEmbed.vue -->
<g id="node6" class="node">
<title>src/components/VideoEmbed.vue</title>
<g id="a_node6"><a xlink:href="src/components/VideoEmbed.vue" xlink:title="VideoEmbed.vue">
<path fill="#41f083" stroke="black" d="M410.83,-106.62C410.83,-106.62 337.92,-106.62 337.92,-106.62 334.71,-106.62 331.5,-103.42 331.5,-100.21 331.5,-100.21 331.5,-93.79 331.5,-93.79 331.5,-90.58 334.71,-87.38 337.92,-87.38 337.92,-87.38 410.83,-87.38 410.83,-87.38 414.04,-87.38 417.25,-90.58 417.25,-93.79 417.25,-93.79 417.25,-100.21 417.25,-100.21 417.25,-103.42 414.04,-106.62 410.83,-106.62"/>
<text text-anchor="start" x="339.5" y="-94.08" font-family="Helvetica,sans-Serif" font-size="9.00">VideoEmbed.vue</text>
</a>
</g>
</g>
<!-- src/components/VideoCard.vue&#45;&gt;src/components/VideoEmbed.vue -->
<g id="edge4" class="edge">
<title>src/components/VideoCard.vue&#45;&gt;src/components/VideoEmbed.vue</title>
<path fill="none" stroke="#000000" stroke-width="2" stroke-opacity="0.200000" d="M293.63,-97C302.75,-97 312.67,-97 322.31,-97"/>
<polygon fill="#000000" fill-opacity="0.200000" stroke="#000000" stroke-width="2" stroke-opacity="0.200000" points="322.03,-99.1 328.03,-97 322.03,-94.9 322.03,-99.1"/>
</g>
<!-- src/components/VideoCard.vue&#45;&gt;src/stores/videosStore.ts -->
<g id="edge5" class="edge">
<title>src/components/VideoCard.vue&#45;&gt;src/stores/videosStore.ts</title>
<path fill="none" stroke="#000000" stroke-width="2" stroke-opacity="0.200000" d="M293.61,-98.91C302.24,-101.17 310.55,-105.15 316.25,-112 334.35,-133.73 306.72,-216.81 324.25,-239 325.7,-240.84 327.37,-242.45 329.2,-243.88"/>
<polygon fill="#000000" fill-opacity="0.200000" stroke="#000000" stroke-width="2" stroke-opacity="0.200000" points="328.08,-245.66 334.31,-246.92 330.23,-242.05 328.08,-245.66"/>
</g>
<!-- src/components/inputs/FolderSelector.vue&#45;&gt;src/stores/videosStore.ts -->
<g id="edge6" class="edge">
<title>src/components/inputs/FolderSelector.vue&#45;&gt;src/stores/videosStore.ts</title>
<path fill="none" stroke="#000000" stroke-width="2" stroke-opacity="0.200000" d="M261.99,-142.77C276.71,-167.71 315.28,-232.2 324.25,-239 325.78,-240.16 327.4,-241.23 329.09,-242.22"/>
<polygon fill="#000000" fill-opacity="0.200000" stroke="#000000" stroke-width="2" stroke-opacity="0.200000" points="327.78,-243.92 334.09,-244.7 329.65,-240.15 327.78,-243.92"/>
</g>
</g>
</svg>
