<?xml version="1.0" encoding="UTF-8" standalone="no"?>
<!DOCTYPE svg PUBLIC "-//W3C//DTD SVG 1.1//EN"
 "http://www.w3.org/Graphics/SVG/1.1/DTD/svg11.dtd">
<!-- Generated by graphviz version 2.43.0 (0)
 -->
<!-- Title: dependency&#45;cruiser output Pages: 1 -->
<svg width="547pt" height="320pt"
 viewBox="0.00 0.00 547.00 320.00" xmlns="http://www.w3.org/2000/svg" xmlns:xlink="http://www.w3.org/1999/xlink">
<g id="graph0" class="graph" transform="scale(1 1) rotate(0) translate(4 316)">
<title>dependency&#45;cruiser output</title>
<polygon fill="white" stroke="transparent" points="-4,4 -4,-316 543,-316 543,4 -4,4"/>
<g id="clust1" class="cluster">
<title>cluster_src</title>
<path fill="#ffffff" stroke="black" stroke-width="2" d="M20,-8C20,-8 519,-8 519,-8 525,-8 531,-14 531,-20 531,-20 531,-292 531,-292 531,-298 525,-304 519,-304 519,-304 20,-304 20,-304 14,-304 8,-298 8,-292 8,-292 8,-20 8,-20 8,-14 14,-8 20,-8"/>
<text text-anchor="middle" x="269.5" y="-292.8" font-family="Helvetica,sans-Serif" font-weight="bold" font-size="9.00">src</text>
</g>
<g id="clust2" class="cluster">
<title>cluster_src/components</title>
<path fill="#ffffff" stroke="black" stroke-width="2" d="M204,-16C204,-16 433,-16 433,-16 439,-16 445,-22 445,-28 445,-28 445,-176 445,-176 445,-182 439,-188 433,-188 433,-188 204,-188 204,-188 198,-188 192,-182 192,-176 192,-176 192,-28 192,-28 192,-22 198,-16 204,-16"/>
<text text-anchor="middle" x="318.5" y="-176.8" font-family="Helvetica,sans-Serif" font-weight="bold" font-size="9.00">components</text>
</g>
<g id="clust3" class="cluster">
<title>cluster_src/components/inputs</title>
<path fill="#ffffff" stroke="black" stroke-width="2" d="M230.5,-110C230.5,-110 297.5,-110 297.5,-110 303.5,-110 309.5,-116 309.5,-122 309.5,-122 309.5,-150 309.5,-150 309.5,-156 303.5,-162 297.5,-162 297.5,-162 230.5,-162 230.5,-162 224.5,-162 218.5,-156 218.5,-150 218.5,-150 218.5,-122 218.5,-122 218.5,-116 224.5,-110 230.5,-110"/>
<text text-anchor="middle" x="264" y="-150.8" font-family="Helvetica,sans-Serif" font-weight="bold" font-size="9.00">inputs</text>
</g>
<g id="clust4" class="cluster">
<title>cluster_src/components/utils</title>
<path fill="#ffffff" stroke="black" stroke-width="2" d="M212,-50C212,-50 316,-50 316,-50 322,-50 328,-56 328,-62 328,-62 328,-90 328,-90 328,-96 322,-102 316,-102 316,-102 212,-102 212,-102 206,-102 200,-96 200,-90 200,-90 200,-62 200,-62 200,-56 206,-50 212,-50"/>
<text text-anchor="middle" x="264" y="-90.8" font-family="Helvetica,sans-Serif" font-weight="bold" font-size="9.00">utils</text>
</g>
<g id="clust5" class="cluster">
<title>cluster_src/domain</title>
<path fill="#ffffff" stroke="black" stroke-width="2" d="M465,-38C465,-38 511,-38 511,-38 517,-38 523,-44 523,-50 523,-50 523,-78 523,-78 523,-84 517,-90 511,-90 511,-90 465,-90 465,-90 459,-90 453,-84 453,-78 453,-78 453,-50 453,-50 453,-44 459,-38 465,-38"/>
<text text-anchor="middle" x="488" y="-78.8" font-family="Helvetica,sans-Serif" font-weight="bold" font-size="9.00">domain</text>
</g>
<g id="clust6" class="cluster">
<title>cluster_src/stores</title>
<path fill="#ffffff" stroke="black" stroke-width="2" d="M348,-196C348,-196 433,-196 433,-196 439,-196 445,-202 445,-208 445,-208 445,-266 445,-266 445,-272 439,-278 433,-278 433,-278 348,-278 348,-278 342,-278 336,-272 336,-266 336,-266 336,-208 336,-208 336,-202 342,-196 348,-196"/>
<text text-anchor="middle" x="390.5" y="-266.8" font-family="Helvetica,sans-Serif" font-weight="bold" font-size="9.00">stores</text>
</g>
<g id="clust7" class="cluster">
<title>cluster_src/views</title>
<path fill="#ffffff" stroke="black" stroke-width="2" d="M90,-166C90,-166 172,-166 172,-166 178,-166 184,-172 184,-178 184,-178 184,-236 184,-236 184,-242 178,-248 172,-248 172,-248 90,-248 90,-248 84,-248 78,-242 78,-236 78,-236 78,-178 78,-178 78,-172 84,-166 90,-166"/>
<text text-anchor="middle" x="131" y="-236.8" font-family="Helvetica,sans-Serif" font-weight="bold" font-size="9.00">views</text>
</g>
<!-- src/App.vue -->
<g id="node1" class="node">
<title>src/App.vue</title>
<g id="a_node1"><a xlink:href="src/App.vue" xlink:title="App.vue">
<path fill="#41f083" stroke="black" d="M64,-192C64,-192 22,-192 22,-192 19,-192 16,-189 16,-186 16,-186 16,-180 16,-180 16,-177 19,-174 22,-174 22,-174 64,-174 64,-174 67,-174 70,-177 70,-180 70,-180 70,-186 70,-186 70,-189 67,-192 64,-192"/>
<text text-anchor="start" x="24" y="-180.8" font-family="Helvetica,sans-Serif" font-size="9.00">App.vue</text>
</a>
</g>
</g>
<!-- src/components/utils/DiagnosticsPanel.vue -->
<g id="node2" class="node">
<title>src/components/utils/DiagnosticsPanel.vue</title>
<g id="a_node2"><a xlink:href="src/components/utils/DiagnosticsPanel.vue" xlink:title="DiagnosticsPanel.vue">
<path fill="#41f083" stroke="black" d="M314,-76C314,-76 214,-76 214,-76 211,-76 208,-73 208,-70 208,-70 208,-64 208,-64 208,-61 211,-58 214,-58 214,-58 314,-58 314,-58 317,-58 320,-61 320,-64 320,-64 320,-70 320,-70 320,-73 317,-76 314,-76"/>
<text text-anchor="start" x="216" y="-64.8" font-family="Helvetica,sans-Serif" font-size="9.00">DiagnosticsPanel.vue</text>
</a>
</g>
</g>
<!-- src/App.vue&#45;&gt;src/components/utils/DiagnosticsPanel.vue -->
<g id="edge1" class="edge">
<title>src/App.vue&#45;&gt;src/components/utils/DiagnosticsPanel.vue</title>
<path fill="none" stroke="#000000" stroke-width="2" stroke-opacity="0.200000" d="M59.13,-173.87C64.99,-170.39 71.77,-166.45 78,-163 135.26,-131.33 203.93,-96.5 239.32,-78.78"/>
<polygon fill="#000000" fill-opacity="0.200000" stroke="#000000" stroke-width="2" stroke-opacity="0.200000" points="240.28,-80.65 244.71,-76.09 238.41,-76.89 240.28,-80.65"/>
</g>
<!-- src/views/NavBar.vue -->
<g id="node3" class="node">
<title>src/views/NavBar.vue</title>
<g id="a_node3"><a xlink:href="src/views/NavBar.vue" xlink:title="NavBar.vue">
<path fill="#41f083" stroke="black" d="M159,-222C159,-222 103,-222 103,-222 100,-222 97,-219 97,-216 97,-216 97,-210 97,-210 97,-207 100,-204 103,-204 103,-204 159,-204 159,-204 162,-204 165,-207 165,-210 165,-210 165,-216 165,-216 165,-219 162,-222 159,-222"/>
<text text-anchor="start" x="105" y="-210.8" font-family="Helvetica,sans-Serif" font-size="9.00">NavBar.vue</text>
</a>
</g>
</g>
<!-- src/App.vue&#45;&gt;src/views/NavBar.vue -->
<g id="edge2" class="edge">
<title>src/App.vue&#45;&gt;src/views/NavBar.vue</title>
<path fill="none" stroke="#000000" stroke-width="2" stroke-opacity="0.200000" d="M63.23,-192.02C68.01,-194.11 73.15,-196.24 78,-198 82.13,-199.5 86.48,-200.95 90.85,-202.32"/>
<polygon fill="#000000" fill-opacity="0.200000" stroke="#000000" stroke-width="2" stroke-opacity="0.200000" points="90.42,-204.39 96.77,-204.14 91.65,-200.37 90.42,-204.39"/>
</g>
<!-- src/views/VideoGallery.vue -->
<g id="node4" class="node">
<title>src/views/VideoGallery.vue</title>
<g id="a_node4"><a xlink:href="src/views/VideoGallery.vue" xlink:title="VideoGallery.vue">
<path fill="#41f083" stroke="black" d="M170,-192C170,-192 92,-192 92,-192 89,-192 86,-189 86,-186 86,-186 86,-180 86,-180 86,-177 89,-174 92,-174 92,-174 170,-174 170,-174 173,-174 176,-177 176,-180 176,-180 176,-186 176,-186 176,-189 173,-192 170,-192"/>
<text text-anchor="start" x="94" y="-180.8" font-family="Helvetica,sans-Serif" font-size="9.00">VideoGallery.vue</text>
</a>
</g>
</g>
<!-- src/App.vue&#45;&gt;src/views/VideoGallery.vue -->
<g id="edge3" class="edge">
<title>src/App.vue&#45;&gt;src/views/VideoGallery.vue</title>
<path fill="none" stroke="#000000" stroke-width="2" stroke-opacity="0.200000" d="M70.27,-183C73.2,-183 76.26,-183 79.37,-183"/>
<polygon fill="#000000" fill-opacity="0.200000" stroke="#000000" stroke-width="2" stroke-opacity="0.200000" points="79.81,-185.1 85.81,-183 79.81,-180.9 79.81,-185.1"/>
</g>
<!-- src/stores/appStateStore.ts -->
<g id="node10" class="node">
<title>src/stores/appStateStore.ts</title>
<g id="a_node10"><a xlink:href="src/stores/appStateStore.ts" xlink:title="appStateStore.ts">
<path fill="#ddfeff" stroke="black" d="M431,-252C431,-252 350,-252 350,-252 347,-252 344,-249 344,-246 344,-246 344,-240 344,-240 344,-237 347,-234 350,-234 350,-234 431,-234 431,-234 434,-234 437,-237 437,-240 437,-240 437,-246 437,-246 437,-249 434,-252 431,-252"/>
<text text-anchor="start" x="352" y="-240.8" font-family="Helvetica,sans-Serif" font-size="9.00">appStateStore.ts</text>
</a>
</g>
</g>
<!-- src/components/utils/DiagnosticsPanel.vue&#45;&gt;src/stores/appStateStore.ts -->
<g id="edge9" class="edge">
<title>src/components/utils/DiagnosticsPanel.vue&#45;&gt;src/stores/appStateStore.ts</title>
<path fill="none" stroke="#000000" stroke-width="2" stroke-opacity="0.200000" d="M289.52,-76C303.29,-82.43 319.4,-92.52 328,-107 341.75,-130.17 319.02,-207.08 336,-228 336.82,-229.01 337.7,-229.96 338.64,-230.84"/>
<polygon fill="#000000" fill-opacity="0.200000" stroke="#000000" stroke-width="2" stroke-opacity="0.200000" points="337.7,-232.77 343.72,-234.78 340.27,-229.45 337.7,-232.77"/>
</g>
<!-- src/stores/videosStore.ts -->
<g id="node8" class="node">
<title>src/stores/videosStore.ts</title>
<g id="a_node8"><a xlink:href="src/stores/videosStore.ts" xlink:title="videosStore.ts">
<path fill="#ddfeff" stroke="black" d="M424.5,-222C424.5,-222 356.5,-222 356.5,-222 353.5,-222 350.5,-219 350.5,-216 350.5,-216 350.5,-210 350.5,-210 350.5,-207 353.5,-204 356.5,-204 356.5,-204 424.5,-204 424.5,-204 427.5,-204 430.5,-207 430.5,-210 430.5,-210 430.5,-216 430.5,-216 430.5,-219 427.5,-222 424.5,-222"/>
<text text-anchor="start" x="358.5" y="-210.8" font-family="Helvetica,sans-Serif" font-size="9.00">videosStore.ts</text>
</a>
</g>
</g>
<!-- src/views/NavBar.vue&#45;&gt;src/stores/videosStore.ts -->
<g id="edge13" class="edge">
<title>src/views/NavBar.vue&#45;&gt;src/stores/videosStore.ts</title>
<path fill="none" stroke="#000000" stroke-width="2" stroke-opacity="0.200000" d="M165.14,-213C210.69,-213 292.83,-213 344.08,-213"/>
<polygon fill="#000000" fill-opacity="0.200000" stroke="#000000" stroke-width="2" stroke-opacity="0.200000" points="344.17,-215.1 350.17,-213 344.17,-210.9 344.17,-215.1"/>
</g>
<!-- src/components/inputs/FileInput.vue -->
<g id="node9" class="node">
<title>src/components/inputs/FileInput.vue</title>
<g id="a_node9"><a xlink:href="src/components/inputs/FileInput.vue" xlink:title="FileInput.vue">
<path fill="#41f083" stroke="black" d="M295.5,-136C295.5,-136 232.5,-136 232.5,-136 229.5,-136 226.5,-133 226.5,-130 226.5,-130 226.5,-124 226.5,-124 226.5,-121 229.5,-118 232.5,-118 232.5,-118 295.5,-118 295.5,-118 298.5,-118 301.5,-121 301.5,-124 301.5,-124 301.5,-130 301.5,-130 301.5,-133 298.5,-136 295.5,-136"/>
<text text-anchor="start" x="234.5" y="-124.8" font-family="Helvetica,sans-Serif" font-size="9.00">FileInput.vue</text>
</a>
</g>
</g>
<!-- src/views/NavBar.vue&#45;&gt;src/components/inputs/FileInput.vue -->
<g id="edge11" class="edge">
<title>src/views/NavBar.vue&#45;&gt;src/components/inputs/FileInput.vue</title>
<path fill="none" stroke="#000000" stroke-width="2" stroke-opacity="0.200000" d="M165.08,-205.89C171.57,-203.83 178.17,-201.24 184,-198 211.18,-182.92 236.82,-156.92 251.16,-140.91"/>
<polygon fill="#000000" fill-opacity="0.200000" stroke="#000000" stroke-width="2" stroke-opacity="0.200000" points="252.84,-142.18 255.24,-136.29 249.69,-139.4 252.84,-142.18"/>
</g>
<!-- src/views/NavBar.vue&#45;&gt;src/stores/appStateStore.ts -->
<g id="edge12" class="edge">
<title>src/views/NavBar.vue&#45;&gt;src/stores/appStateStore.ts</title>
<path fill="none" stroke="#000000" stroke-width="2" stroke-opacity="0.200000" d="M155.88,-222.08C166.74,-225.81 179.86,-229.78 192,-232 240.74,-240.93 297.27,-243.29 337.33,-243.64"/>
<polygon fill="#000000" fill-opacity="0.200000" stroke="#000000" stroke-width="2" stroke-opacity="0.200000" points="337.61,-245.75 343.62,-243.69 337.63,-241.55 337.61,-245.75"/>
</g>
<!-- src/components/VideoCard.vue -->
<g id="node5" class="node">
<title>src/components/VideoCard.vue</title>
<g id="a_node5"><a xlink:href="src/components/VideoCard.vue" xlink:title="VideoCard.vue">
<path fill="#41f083" stroke="black" d="M299,-42C299,-42 229,-42 229,-42 226,-42 223,-39 223,-36 223,-36 223,-30 223,-30 223,-27 226,-24 229,-24 229,-24 299,-24 299,-24 302,-24 305,-27 305,-30 305,-30 305,-36 305,-36 305,-39 302,-42 299,-42"/>
<text text-anchor="start" x="231" y="-30.8" font-family="Helvetica,sans-Serif" font-size="9.00">VideoCard.vue</text>
</a>
</g>
</g>
<!-- src/views/VideoGallery.vue&#45;&gt;src/components/VideoCard.vue -->
<g id="edge14" class="edge">
<title>src/views/VideoGallery.vue&#45;&gt;src/components/VideoCard.vue</title>
<path fill="none" stroke="#000000" stroke-width="2" stroke-opacity="0.200000" d="M133.12,-173.99C136.68,-149.36 150.09,-80.54 192,-47 199.16,-41.27 208.01,-37.67 217.01,-35.45"/>
<polygon fill="#000000" fill-opacity="0.200000" stroke="#000000" stroke-width="2" stroke-opacity="0.200000" points="217.5,-37.49 222.92,-34.18 216.62,-33.38 217.5,-37.49"/>
</g>
<!-- src/views/VideoGallery.vue&#45;&gt;src/stores/videosStore.ts -->
<g id="edge16" class="edge">
<title>src/views/VideoGallery.vue&#45;&gt;src/stores/videosStore.ts</title>
<path fill="none" stroke="#000000" stroke-width="2" stroke-opacity="0.200000" d="M176.27,-188.16C223.19,-193.62 296.93,-202.22 344.23,-207.73"/>
<polygon fill="#000000" fill-opacity="0.200000" stroke="#000000" stroke-width="2" stroke-opacity="0.200000" points="344.24,-209.84 350.44,-208.45 344.72,-205.67 344.24,-209.84"/>
</g>
<!-- src/views/VideoGallery.vue&#45;&gt;src/stores/appStateStore.ts -->
<g id="edge15" class="edge">
<title>src/views/VideoGallery.vue&#45;&gt;src/stores/appStateStore.ts</title>
<path fill="none" stroke="#000000" stroke-width="2" stroke-opacity="0.200000" d="M166.7,-192.05C172.54,-193.85 178.49,-195.85 184,-198 187.7,-199.45 188.24,-200.7 192,-202 218.33,-211.14 288.29,-224.77 337.43,-233.77"/>
<polygon fill="#000000" fill-opacity="0.200000" stroke="#000000" stroke-width="2" stroke-opacity="0.200000" points="337.33,-235.88 343.61,-234.9 338.09,-231.75 337.33,-235.88"/>
</g>
<!-- src/components/VideoEmbed.vue -->
<g id="node6" class="node">
<title>src/components/VideoEmbed.vue</title>
<g id="a_node6"><a xlink:href="src/components/VideoEmbed.vue" xlink:title="VideoEmbed.vue">
<path fill="#41f083" stroke="black" d="M431,-42C431,-42 350,-42 350,-42 347,-42 344,-39 344,-36 344,-36 344,-30 344,-30 344,-27 347,-24 350,-24 350,-24 431,-24 431,-24 434,-24 437,-27 437,-30 437,-30 437,-36 437,-36 437,-39 434,-42 431,-42"/>
<text text-anchor="start" x="352" y="-30.8" font-family="Helvetica,sans-Serif" font-size="9.00">VideoEmbed.vue</text>
</a>
</g>
</g>
<!-- src/components/VideoCard.vue&#45;&gt;src/components/VideoEmbed.vue -->
<g id="edge4" class="edge">
<title>src/components/VideoCard.vue&#45;&gt;src/components/VideoEmbed.vue</title>
<path fill="none" stroke="#000000" stroke-width="2" stroke-opacity="0.200000" d="M305.08,-33C315.51,-33 326.91,-33 337.85,-33"/>
<polygon fill="#000000" fill-opacity="0.200000" stroke="#000000" stroke-width="2" stroke-opacity="0.200000" points="337.87,-35.1 343.87,-33 337.87,-30.9 337.87,-35.1"/>
</g>
<!-- src/domain/index.ts -->
<g id="node7" class="node">
<title>src/domain/index.ts</title>
<g id="a_node7"><a xlink:href="src/domain/index.ts" xlink:title="index.ts">
<path fill="#ddfeff" stroke="black" d="M509,-64C509,-64 467,-64 467,-64 464,-64 461,-61 461,-58 461,-58 461,-52 461,-52 461,-49 464,-46 467,-46 467,-46 509,-46 509,-46 512,-46 515,-49 515,-52 515,-52 515,-58 515,-58 515,-61 512,-64 509,-64"/>
<text text-anchor="start" x="469.5" y="-52.8" font-family="Helvetica,sans-Serif" font-size="9.00">index.ts</text>
</a>
</g>
</g>
<!-- src/components/VideoCard.vue&#45;&gt;src/domain/index.ts -->
<g id="edge5" class="edge">
<title>src/components/VideoCard.vue&#45;&gt;src/domain/index.ts</title>
<path fill="none" stroke="#000000" stroke-opacity="0.200000" d="M302.02,-42C312.91,-44.33 324.88,-46.58 336,-48 376.71,-53.21 424.03,-54.67 454.69,-55.01"/>
<polygon fill="none" stroke="#000000" stroke-opacity="0.200000" points="454.95,-57.11 460.97,-55.07 454.99,-52.91 454.95,-57.11"/>
</g>
<!-- src/components/VideoCard.vue&#45;&gt;src/stores/videosStore.ts -->
<g id="edge6" class="edge">
<title>src/components/VideoCard.vue&#45;&gt;src/stores/videosStore.ts</title>
<path fill="none" stroke="#000000" stroke-width="2" stroke-opacity="0.200000" d="M305.16,-34.06C313.87,-36.24 322.2,-40.17 328,-47 348.74,-71.43 317.43,-164.88 336,-191 338.82,-194.97 342.5,-198.23 346.6,-200.9"/>
<polygon fill="#000000" fill-opacity="0.200000" stroke="#000000" stroke-width="2" stroke-opacity="0.200000" points="345.74,-202.82 351.99,-203.97 347.82,-199.18 345.74,-202.82"/>
</g>
<!-- src/components/VideoEmbed.vue&#45;&gt;src/domain/index.ts -->
<g id="edge7" class="edge">
<title>src/components/VideoEmbed.vue&#45;&gt;src/domain/index.ts</title>
<path fill="none" stroke="#000000" stroke-opacity="0.200000" d="M430.62,-42.01C438.75,-43.88 447.22,-45.84 455.05,-47.64"/>
<polygon fill="none" stroke="#000000" stroke-opacity="0.200000" points="454.58,-49.69 460.9,-48.99 455.53,-45.59 454.58,-49.69"/>
</g>
<!-- src/stores/videosStore.ts&#45;&gt;src/domain/index.ts -->
<g id="edge10" class="edge">
<title>src/stores/videosStore.ts&#45;&gt;src/domain/index.ts</title>
<path fill="none" stroke="#000000" stroke-opacity="0.200000" d="M426.3,-203.9C433.23,-200.75 439.92,-196.56 445,-191 476.78,-156.2 484.52,-97.77 486.4,-70.24"/>
<polygon fill="none" stroke="#000000" stroke-opacity="0.200000" points="488.5,-70.35 486.75,-64.24 484.3,-70.1 488.5,-70.35"/>
</g>
<!-- src/components/inputs/FileInput.vue&#45;&gt;src/stores/videosStore.ts -->
<g id="edge8" class="edge">
<title>src/components/inputs/FileInput.vue&#45;&gt;src/stores/videosStore.ts</title>
<path fill="none" stroke="#000000" stroke-width="2" stroke-opacity="0.200000" d="M273.37,-136.36C285.89,-149.91 310.72,-175.09 336,-191 342.37,-195.01 349.61,-198.56 356.64,-201.58"/>
<polygon fill="#000000" fill-opacity="0.200000" stroke="#000000" stroke-width="2" stroke-opacity="0.200000" points="356.14,-203.64 362.49,-203.98 357.74,-199.76 356.14,-203.64"/>
</g>
</g>
</svg>
