<?xml version="1.0" encoding="UTF-8" standalone="no"?>
<!DOCTYPE svg PUBLIC "-//W3C//DTD SVG 1.1//EN"
 "http://www.w3.org/Graphics/SVG/1.1/DTD/svg11.dtd">
<!-- Generated by graphviz version 9.0.0 (20230911.1827)
 -->
<!-- Title: dependency&#45;cruiser output Pages: 1 -->
<svg width="562pt" height="302pt"
 viewBox="0.00 0.00 561.50 302.00" xmlns="http://www.w3.org/2000/svg" xmlns:xlink="http://www.w3.org/1999/xlink">
<g id="graph0" class="graph" transform="scale(1 1) rotate(0) translate(4 298)">
<title>dependency&#45;cruiser output</title>
<polygon fill="white" stroke="none" points="-4,4 -4,-298 557.5,-298 557.5,4 -4,4"/>
<g id="clust1" class="cluster">
<title>cluster_src</title>
<path fill="#ffffff" stroke="black" stroke-width="2" d="M20,-8C20,-8 535.5,-8 535.5,-8 541.5,-8 547.5,-14 547.5,-20 547.5,-20 547.5,-274 547.5,-274 547.5,-280 541.5,-286 535.5,-286 535.5,-286 20,-286 20,-286 14,-286 8,-280 8,-274 8,-274 8,-20 8,-20 8,-14 14,-8 20,-8"/>
<text text-anchor="middle" x="277.75" y="-273.45" font-family="Helvetica,sans-Serif" font-weight="bold" font-size="9.00">src</text>
</g>
<g id="clust2" class="cluster">
<title>cluster_src/components</title>
<path fill="#ffffff" stroke="black" stroke-width="2" d="M90,-16C90,-16 421.5,-16 421.5,-16 427.5,-16 433.5,-22 433.5,-28 433.5,-28 433.5,-153 433.5,-153 433.5,-159 427.5,-165 421.5,-165 421.5,-165 90,-165 90,-165 84,-165 78,-159 78,-153 78,-153 78,-28 78,-28 78,-22 84,-16 90,-16"/>
<text text-anchor="middle" x="255.75" y="-152.45" font-family="Helvetica,sans-Serif" font-weight="bold" font-size="9.00">components</text>
</g>
<g id="clust4" class="cluster">
<title>cluster_src/components/utils</title>
<path fill="#ffffff" stroke="black" stroke-width="2" d="M98,-83C98,-83 196,-83 196,-83 202,-83 208,-89 208,-95 208,-95 208,-126 208,-126 208,-132 202,-138 196,-138 196,-138 98,-138 98,-138 92,-138 86,-132 86,-126 86,-126 86,-95 86,-95 86,-89 92,-83 98,-83"/>
<text text-anchor="middle" x="147" y="-125.45" font-family="Helvetica,sans-Serif" font-weight="bold" font-size="9.00">utils</text>
</g>
<g id="clust3" class="cluster">
<title>cluster_src/components/inputs</title>
<path fill="#ffffff" stroke="black" stroke-width="2" d="M228,-69C228,-69 312.5,-69 312.5,-69 318.5,-69 324.5,-75 324.5,-81 324.5,-81 324.5,-112 324.5,-112 324.5,-118 318.5,-124 312.5,-124 312.5,-124 228,-124 228,-124 222,-124 216,-118 216,-112 216,-112 216,-81 216,-81 216,-75 222,-69 228,-69"/>
<text text-anchor="middle" x="270.25" y="-111.45" font-family="Helvetica,sans-Serif" font-weight="bold" font-size="9.00">inputs</text>
</g>
<g id="clust5" class="cluster">
<title>cluster_src/services</title>
<path fill="#ffffff" stroke="black" stroke-width="2" d="M461.5,-61C461.5,-61 527.5,-61 527.5,-61 533.5,-61 539.5,-67 539.5,-73 539.5,-73 539.5,-167 539.5,-167 539.5,-173 533.5,-179 527.5,-179 527.5,-179 461.5,-179 461.5,-179 455.5,-179 449.5,-173 449.5,-167 449.5,-167 449.5,-73 449.5,-73 449.5,-67 455.5,-61 461.5,-61"/>
<text text-anchor="middle" x="494.5" y="-166.45" font-family="Helvetica,sans-Serif" font-weight="bold" font-size="9.00">services</text>
</g>
<g id="clust6" class="cluster">
<title>cluster_src/services/VideoParsers</title>
<path fill="#ffffff" stroke="black" stroke-width="2" d="M469.5,-69C469.5,-69 519.5,-69 519.5,-69 525.5,-69 531.5,-75 531.5,-81 531.5,-81 531.5,-112 531.5,-112 531.5,-118 525.5,-124 519.5,-124 519.5,-124 469.5,-124 469.5,-124 463.5,-124 457.5,-118 457.5,-112 457.5,-112 457.5,-81 457.5,-81 457.5,-75 463.5,-69 469.5,-69"/>
<text text-anchor="middle" x="494.5" y="-111.45" font-family="Helvetica,sans-Serif" font-weight="bold" font-size="9.00">VideoParsers</text>
</g>
<g id="clust7" class="cluster">
<title>cluster_src/stores</title>
<path fill="#ffffff" stroke="black" stroke-width="2" d="M344.5,-173C344.5,-173 420.75,-173 420.75,-173 426.75,-173 432.75,-179 432.75,-185 432.75,-185 432.75,-247 432.75,-247 432.75,-253 426.75,-259 420.75,-259 420.75,-259 344.5,-259 344.5,-259 338.5,-259 332.5,-253 332.5,-247 332.5,-247 332.5,-185 332.5,-185 332.5,-179 338.5,-173 344.5,-173"/>
<text text-anchor="middle" x="382.62" y="-246.45" font-family="Helvetica,sans-Serif" font-weight="bold" font-size="9.00">stores</text>
</g>
<!-- src/App.vue -->
<g id="node1" class="node">
<title>src/App.vue</title>
<g id="a_node1"><a xlink:href="src/App.vue" xlink:title="App.vue">
<path fill="#41f083" stroke="black" d="M63.58,-74.62C63.58,-74.62 22.42,-74.62 22.42,-74.62 19.21,-74.62 16,-71.42 16,-68.21 16,-68.21 16,-61.79 16,-61.79 16,-58.58 19.21,-55.38 22.42,-55.38 22.42,-55.38 63.58,-55.38 63.58,-55.38 66.79,-55.38 70,-58.58 70,-61.79 70,-61.79 70,-68.21 70,-68.21 70,-71.42 66.79,-74.62 63.58,-74.62"/>
<text text-anchor="start" x="26.88" y="-62.08" font-family="Helvetica,sans-Serif" font-size="9.00">App.vue</text>
</a>
</g>
</g>
<!-- src/components/NavBar.vue -->
<g id="node2" class="node">
<title>src/components/NavBar.vue</title>
<g id="a_node2"><a xlink:href="src/components/NavBar.vue" xlink:title="NavBar.vue">
<path fill="#41f083" stroke="black" d="M171.83,-74.62C171.83,-74.62 122.17,-74.62 122.17,-74.62 118.96,-74.62 115.75,-71.42 115.75,-68.21 115.75,-68.21 115.75,-61.79 115.75,-61.79 115.75,-58.58 118.96,-55.38 122.17,-55.38 122.17,-55.38 171.83,-55.38 171.83,-55.38 175.04,-55.38 178.25,-58.58 178.25,-61.79 178.25,-61.79 178.25,-68.21 178.25,-68.21 178.25,-71.42 175.04,-74.62 171.83,-74.62"/>
<text text-anchor="start" x="123.75" y="-62.08" font-family="Helvetica,sans-Serif" font-size="9.00">NavBar.vue</text>
</a>
</g>
</g>
<!-- src/App.vue&#45;&gt;src/components/NavBar.vue -->
<g id="edge1" class="edge">
<title>src/App.vue&#45;&gt;src/components/NavBar.vue</title>
<path fill="none" stroke="#000000" stroke-width="2" stroke-opacity="0.200000" d="M70.27,-65C81.38,-65 94.56,-65 106.79,-65"/>
<polygon fill="#000000" fill-opacity="0.200000" stroke="#000000" stroke-width="2" stroke-opacity="0.200000" points="106.45,-67.1 112.45,-65 106.45,-62.9 106.45,-67.1"/>
</g>
<!-- src/components/utils/DiagnosticsPanel.vue -->
<g id="node3" class="node">
<title>src/components/utils/DiagnosticsPanel.vue</title>
<g id="a_node3"><a xlink:href="src/components/utils/DiagnosticsPanel.vue" xlink:title="DiagnosticsPanel.vue">
<path fill="#41f083" stroke="black" d="M193.58,-110.62C193.58,-110.62 100.42,-110.62 100.42,-110.62 97.21,-110.62 94,-107.42 94,-104.21 94,-104.21 94,-97.79 94,-97.79 94,-94.58 97.21,-91.38 100.42,-91.38 100.42,-91.38 193.58,-91.38 193.58,-91.38 196.79,-91.38 200,-94.58 200,-97.79 200,-97.79 200,-104.21 200,-104.21 200,-107.42 196.79,-110.62 193.58,-110.62"/>
<text text-anchor="start" x="102" y="-98.08" font-family="Helvetica,sans-Serif" font-size="9.00">DiagnosticsPanel.vue</text>
</a>
</g>
</g>
<!-- src/App.vue&#45;&gt;src/components/utils/DiagnosticsPanel.vue -->
<g id="edge2" class="edge">
<title>src/App.vue&#45;&gt;src/components/utils/DiagnosticsPanel.vue</title>
<path fill="none" stroke="#000000" stroke-width="2" stroke-opacity="0.200000" d="M56.93,-74.99C63.03,-79.27 70.58,-83.96 78,-87 80.35,-87.96 82.78,-88.86 85.25,-89.7"/>
<polygon fill="#000000" fill-opacity="0.200000" stroke="#000000" stroke-width="2" stroke-opacity="0.200000" points="84.55,-91.68 90.9,-91.44 85.79,-87.67 84.55,-91.68"/>
</g>
<!-- src/components/VideoGallery.vue -->
<g id="node4" class="node">
<title>src/components/VideoGallery.vue</title>
<g id="a_node4"><a xlink:href="src/components/VideoGallery.vue" xlink:title="VideoGallery.vue">
<path fill="#41f083" stroke="black" d="M182.71,-43.62C182.71,-43.62 111.29,-43.62 111.29,-43.62 108.08,-43.62 104.88,-40.42 104.88,-37.21 104.88,-37.21 104.88,-30.79 104.88,-30.79 104.88,-27.58 108.08,-24.38 111.29,-24.38 111.29,-24.38 182.71,-24.38 182.71,-24.38 185.92,-24.38 189.12,-27.58 189.12,-30.79 189.12,-30.79 189.12,-37.21 189.12,-37.21 189.12,-40.42 185.92,-43.62 182.71,-43.62"/>
<text text-anchor="start" x="112.88" y="-31.07" font-family="Helvetica,sans-Serif" font-size="9.00">VideoGallery.vue</text>
</a>
</g>
</g>
<!-- src/App.vue&#45;&gt;src/components/VideoGallery.vue -->
<g id="edge3" class="edge">
<title>src/App.vue&#45;&gt;src/components/VideoGallery.vue</title>
<path fill="none" stroke="#000000" stroke-width="2" stroke-opacity="0.200000" d="M63.47,-54.93C68.15,-52.77 73.18,-50.64 78,-49 83.82,-47.02 90.01,-45.23 96.2,-43.64"/>
<polygon fill="#000000" fill-opacity="0.200000" stroke="#000000" stroke-width="2" stroke-opacity="0.200000" points="96.33,-45.77 101.66,-42.31 95.33,-41.69 96.33,-45.77"/>
</g>
<!-- src/components/inputs/FolderSelector.vue -->
<g id="node5" class="node">
<title>src/components/inputs/FolderSelector.vue</title>
<g id="a_node5"><a xlink:href="src/components/inputs/FolderSelector.vue" xlink:title="FolderSelector.vue">
<path fill="#41f083" stroke="black" d="M310.08,-96.62C310.08,-96.62 230.42,-96.62 230.42,-96.62 227.21,-96.62 224,-93.42 224,-90.21 224,-90.21 224,-83.79 224,-83.79 224,-80.58 227.21,-77.38 230.42,-77.38 230.42,-77.38 310.08,-77.38 310.08,-77.38 313.29,-77.38 316.5,-80.58 316.5,-83.79 316.5,-83.79 316.5,-90.21 316.5,-90.21 316.5,-93.42 313.29,-96.62 310.08,-96.62"/>
<text text-anchor="start" x="232" y="-84.08" font-family="Helvetica,sans-Serif" font-size="9.00">FolderSelector.vue</text>
</a>
</g>
</g>
<!-- src/components/NavBar.vue&#45;&gt;src/components/inputs/FolderSelector.vue -->
<g id="edge4" class="edge">
<title>src/components/NavBar.vue&#45;&gt;src/components/inputs/FolderSelector.vue</title>
<path fill="none" stroke="#000000" stroke-width="2" stroke-opacity="0.200000" d="M178.6,-70.55C189.65,-72.56 202.5,-74.89 214.97,-77.15"/>
<polygon fill="#000000" fill-opacity="0.200000" stroke="#000000" stroke-width="2" stroke-opacity="0.200000" points="214.27,-79.16 220.55,-78.16 215.02,-75.03 214.27,-79.16"/>
</g>
<!-- src/stores/appStateStore.ts -->
<g id="node6" class="node">
<title>src/stores/appStateStore.ts</title>
<g id="a_node6"><a xlink:href="src/stores/appStateStore.ts" xlink:title="appStateStore.ts">
<path fill="#ddfeff" stroke="black" d="M418.33,-231.62C418.33,-231.62 346.92,-231.62 346.92,-231.62 343.71,-231.62 340.5,-228.42 340.5,-225.21 340.5,-225.21 340.5,-218.79 340.5,-218.79 340.5,-215.58 343.71,-212.38 346.92,-212.38 346.92,-212.38 418.33,-212.38 418.33,-212.38 421.54,-212.38 424.75,-215.58 424.75,-218.79 424.75,-218.79 424.75,-225.21 424.75,-225.21 424.75,-228.42 421.54,-231.62 418.33,-231.62"/>
<text text-anchor="start" x="348.5" y="-219.07" font-family="Helvetica,sans-Serif" font-size="9.00">appStateStore.ts</text>
</a>
</g>
</g>
<!-- src/components/NavBar.vue&#45;&gt;src/stores/appStateStore.ts -->
<g id="edge5" class="edge">
<title>src/components/NavBar.vue&#45;&gt;src/stores/appStateStore.ts</title>
<path fill="none" stroke="#000000" stroke-width="2" stroke-opacity="0.200000" d="M178.71,-65.57C189.53,-67.4 200.79,-71.47 208,-80 222.68,-97.36 201.16,-164.78 216,-182 248.31,-219.49 276.45,-195.16 324.5,-207 328.03,-207.87 331.67,-208.79 335.34,-209.72"/>
<polygon fill="#000000" fill-opacity="0.200000" stroke="#000000" stroke-width="2" stroke-opacity="0.200000" points="334.61,-211.7 340.94,-211.16 335.65,-207.63 334.61,-211.7"/>
</g>
<!-- src/stores/videosStore.ts -->
<g id="node7" class="node">
<title>src/stores/videosStore.ts</title>
<g id="a_node7"><a xlink:href="src/stores/videosStore.ts" xlink:title="videosStore.ts">
<path fill="#ddfeff" stroke="black" d="M413.46,-200.62C413.46,-200.62 351.79,-200.62 351.79,-200.62 348.58,-200.62 345.38,-197.42 345.38,-194.21 345.38,-194.21 345.38,-187.79 345.38,-187.79 345.38,-184.58 348.58,-181.38 351.79,-181.38 351.79,-181.38 413.46,-181.38 413.46,-181.38 416.67,-181.38 419.88,-184.58 419.88,-187.79 419.88,-187.79 419.88,-194.21 419.88,-194.21 419.88,-197.42 416.67,-200.62 413.46,-200.62"/>
<text text-anchor="start" x="353.38" y="-188.07" font-family="Helvetica,sans-Serif" font-size="9.00">videosStore.ts</text>
</a>
</g>
</g>
<!-- src/components/NavBar.vue&#45;&gt;src/stores/videosStore.ts -->
<g id="edge6" class="edge">
<title>src/components/NavBar.vue&#45;&gt;src/stores/videosStore.ts</title>
<path fill="none" stroke="#000000" stroke-width="2" stroke-opacity="0.200000" d="M178.62,-65.65C189.43,-67.49 200.7,-71.55 208,-80 219.68,-93.52 203.92,-146.84 216,-160 245.95,-192.62 298.38,-197.5 336.24,-196.04"/>
<polygon fill="#000000" fill-opacity="0.200000" stroke="#000000" stroke-width="2" stroke-opacity="0.200000" points="336.15,-198.15 342.03,-195.74 335.93,-193.96 336.15,-198.15"/>
</g>
<!-- src/components/utils/DiagnosticsPanel.vue&#45;&gt;src/stores/appStateStore.ts -->
<g id="edge13" class="edge">
<title>src/components/utils/DiagnosticsPanel.vue&#45;&gt;src/stores/appStateStore.ts</title>
<path fill="none" stroke="#000000" stroke-width="2" stroke-opacity="0.200000" d="M151.12,-110.96C158.46,-132.56 179.07,-183.55 216,-206 250.48,-226.96 296.63,-229.81 331.46,-228.07"/>
<polygon fill="#000000" fill-opacity="0.200000" stroke="#000000" stroke-width="2" stroke-opacity="0.200000" points="331.18,-230.2 337.04,-227.73 330.92,-226 331.18,-230.2"/>
</g>
<!-- src/components/VideoGallery.vue&#45;&gt;src/stores/videosStore.ts -->
<g id="edge10" class="edge">
<title>src/components/VideoGallery.vue&#45;&gt;src/stores/videosStore.ts</title>
<path fill="none" stroke="#000000" stroke-width="2" stroke-opacity="0.200000" d="M189.51,-37.36C196.55,-39.73 203.15,-43.4 208,-49 230.82,-75.34 193.96,-100.01 216,-127 247.96,-166.15 280.43,-136.28 324.5,-161 328.62,-163.31 328.54,-165.42 332.5,-168 337.53,-171.29 343.11,-174.36 348.65,-177.13"/>
<polygon fill="#000000" fill-opacity="0.200000" stroke="#000000" stroke-width="2" stroke-opacity="0.200000" points="347.61,-178.96 353.93,-179.65 349.42,-175.17 347.61,-178.96"/>
</g>
<!-- src/components/VideoCard.vue -->
<g id="node8" class="node">
<title>src/components/VideoCard.vue</title>
<g id="a_node8"><a xlink:href="src/components/VideoCard.vue" xlink:title="VideoCard.vue">
<path fill="#41f083" stroke="black" d="M301.83,-45.62C301.83,-45.62 238.67,-45.62 238.67,-45.62 235.46,-45.62 232.25,-42.42 232.25,-39.21 232.25,-39.21 232.25,-32.79 232.25,-32.79 232.25,-29.58 235.46,-26.38 238.67,-26.38 238.67,-26.38 301.83,-26.38 301.83,-26.38 305.04,-26.38 308.25,-29.58 308.25,-32.79 308.25,-32.79 308.25,-39.21 308.25,-39.21 308.25,-42.42 305.04,-45.62 301.83,-45.62"/>
<text text-anchor="start" x="240.25" y="-33.08" font-family="Helvetica,sans-Serif" font-size="9.00">VideoCard.vue</text>
</a>
</g>
</g>
<!-- src/components/VideoGallery.vue&#45;&gt;src/components/VideoCard.vue -->
<g id="edge9" class="edge">
<title>src/components/VideoGallery.vue&#45;&gt;src/components/VideoCard.vue</title>
<path fill="none" stroke="#000000" stroke-width="2" stroke-opacity="0.200000" d="M189.39,-34.68C200.32,-34.86 212.19,-35.06 223.35,-35.24"/>
<polygon fill="#000000" fill-opacity="0.200000" stroke="#000000" stroke-width="2" stroke-opacity="0.200000" points="223.05,-37.34 229.09,-35.34 223.12,-33.14 223.05,-37.34"/>
</g>
<!-- src/components/inputs/FolderSelector.vue&#45;&gt;src/stores/videosStore.ts -->
<g id="edge12" class="edge">
<title>src/components/inputs/FolderSelector.vue&#45;&gt;src/stores/videosStore.ts</title>
<path fill="none" stroke="#000000" stroke-width="2" stroke-opacity="0.200000" d="M316.63,-94.5C319.56,-96.26 322.24,-98.4 324.5,-101 344.19,-123.62 314.93,-143.7 332.5,-168 334.73,-171.09 337.49,-173.78 340.55,-176.12"/>
<polygon fill="#000000" fill-opacity="0.200000" stroke="#000000" stroke-width="2" stroke-opacity="0.200000" points="339.39,-177.87 345.58,-179.32 341.65,-174.33 339.39,-177.87"/>
</g>
<!-- src/services/VideoParsers/index.ts -->
<g id="node11" class="node">
<title>src/services/VideoParsers/index.ts</title>
<g id="a_node11"><a xlink:href="src/services/VideoParsers/index.ts" xlink:title="index.ts">
<path fill="#ddfeff" stroke="black" d="M515.08,-96.62C515.08,-96.62 473.92,-96.62 473.92,-96.62 470.71,-96.62 467.5,-93.42 467.5,-90.21 467.5,-90.21 467.5,-83.79 467.5,-83.79 467.5,-80.58 470.71,-77.38 473.92,-77.38 473.92,-77.38 515.08,-77.38 515.08,-77.38 518.29,-77.38 521.5,-80.58 521.5,-83.79 521.5,-83.79 521.5,-90.21 521.5,-90.21 521.5,-93.42 518.29,-96.62 515.08,-96.62"/>
<text text-anchor="start" x="478.75" y="-84.08" font-family="Helvetica,sans-Serif" font-size="9.00">index.ts</text>
</a>
</g>
</g>
<!-- src/components/inputs/FolderSelector.vue&#45;&gt;src/services/VideoParsers/index.ts -->
<g id="edge11" class="edge">
<title>src/components/inputs/FolderSelector.vue&#45;&gt;src/services/VideoParsers/index.ts</title>
<path fill="none" stroke="#000000" stroke-width="2" stroke-opacity="0.200000" d="M316.76,-87C358.73,-87 420.16,-87 458.44,-87"/>
<polygon fill="#000000" fill-opacity="0.200000" stroke="#000000" stroke-width="2" stroke-opacity="0.200000" points="458.15,-89.1 464.15,-87 458.15,-84.9 458.15,-89.1"/>
</g>
<!-- src/services/index.ts -->
<g id="node10" class="node">
<title>src/services/index.ts</title>
<g id="a_node10"><a xlink:href="src/services/index.ts" xlink:title="index.ts">
<path fill="#ddfeff" stroke="black" d="M515.08,-151.62C515.08,-151.62 473.92,-151.62 473.92,-151.62 470.71,-151.62 467.5,-148.42 467.5,-145.21 467.5,-145.21 467.5,-138.79 467.5,-138.79 467.5,-135.58 470.71,-132.38 473.92,-132.38 473.92,-132.38 515.08,-132.38 515.08,-132.38 518.29,-132.38 521.5,-135.58 521.5,-138.79 521.5,-138.79 521.5,-145.21 521.5,-145.21 521.5,-148.42 518.29,-151.62 515.08,-151.62"/>
<text text-anchor="start" x="478.75" y="-139.07" font-family="Helvetica,sans-Serif" font-size="9.00">index.ts</text>
</a>
</g>
</g>
<!-- src/stores/videosStore.ts&#45;&gt;src/services/index.ts -->
<g id="edge14" class="edge">
<title>src/stores/videosStore.ts&#45;&gt;src/services/index.ts</title>
<path fill="none" stroke="#000000" stroke-width="2" stroke-opacity="0.200000" d="M406.12,-180.97C422.57,-173.63 445.05,-163.61 463.09,-155.56"/>
<polygon fill="#000000" fill-opacity="0.200000" stroke="#000000" stroke-width="2" stroke-opacity="0.200000" points="463.64,-157.62 468.27,-153.25 461.93,-153.78 463.64,-157.62"/>
</g>
<!-- src/components/VideoEmbed.vue -->
<g id="node9" class="node">
<title>src/components/VideoEmbed.vue</title>
<g id="a_node9"><a xlink:href="src/components/VideoEmbed.vue" xlink:title="VideoEmbed.vue">
<path fill="#41f083" stroke="black" d="M419.08,-45.62C419.08,-45.62 346.17,-45.62 346.17,-45.62 342.96,-45.62 339.75,-42.42 339.75,-39.21 339.75,-39.21 339.75,-32.79 339.75,-32.79 339.75,-29.58 342.96,-26.38 346.17,-26.38 346.17,-26.38 419.08,-26.38 419.08,-26.38 422.29,-26.38 425.5,-29.58 425.5,-32.79 425.5,-32.79 425.5,-39.21 425.5,-39.21 425.5,-42.42 422.29,-45.62 419.08,-45.62"/>
<text text-anchor="start" x="347.75" y="-33.08" font-family="Helvetica,sans-Serif" font-size="9.00">VideoEmbed.vue</text>
</a>
</g>
</g>
<!-- src/components/VideoCard.vue&#45;&gt;src/components/VideoEmbed.vue -->
<g id="edge7" class="edge">
<title>src/components/VideoCard.vue&#45;&gt;src/components/VideoEmbed.vue</title>
<path fill="none" stroke="#000000" stroke-width="2" stroke-opacity="0.200000" d="M308.62,-36C315.72,-36 323.26,-36 330.7,-36"/>
<polygon fill="#000000" fill-opacity="0.200000" stroke="#000000" stroke-width="2" stroke-opacity="0.200000" points="330.33,-38.1 336.33,-36 330.33,-33.9 330.33,-38.1"/>
</g>
<!-- src/components/VideoCard.vue&#45;&gt;src/services/index.ts -->
<g id="edge8" class="edge">
<title>src/components/VideoCard.vue&#45;&gt;src/services/index.ts</title>
<path fill="none" stroke="#000000" stroke-width="2" stroke-opacity="0.200000" d="M288.56,-45.9C319.96,-63.61 388.7,-101.27 449.5,-127 452.5,-128.27 455.65,-129.51 458.83,-130.7"/>
<polygon fill="#000000" fill-opacity="0.200000" stroke="#000000" stroke-width="2" stroke-opacity="0.200000" points="458,-132.64 464.36,-132.7 459.43,-128.69 458,-132.64"/>
</g>
</g>
</svg>
