<?xml version="1.0" encoding="UTF-8" standalone="no"?>
<!DOCTYPE svg PUBLIC "-//W3C//DTD SVG 1.1//EN"
 "http://www.w3.org/Graphics/SVG/1.1/DTD/svg11.dtd">
<!-- Generated by graphviz version 9.0.0 (20230911.1827)
 -->
<!-- Title: dependency&#45;cruiser output Pages: 1 -->
<svg width="617pt" height="432pt"
 viewBox="0.00 0.00 616.50 432.00" xmlns="http://www.w3.org/2000/svg" xmlns:xlink="http://www.w3.org/1999/xlink">
<g id="graph0" class="graph" transform="scale(1 1) rotate(0) translate(4 428)">
<title>dependency&#45;cruiser output</title>
<polygon fill="white" stroke="none" points="-4,4 -4,-428 612.5,-428 612.5,4 -4,4"/>
<g id="clust1" class="cluster">
<title>cluster_src</title>
<path fill="#ffffff" stroke="black" stroke-width="2" d="M20,-8C20,-8 588.5,-8 588.5,-8 594.5,-8 600.5,-14 600.5,-20 600.5,-20 600.5,-404 600.5,-404 600.5,-410 594.5,-416 588.5,-416 588.5,-416 20,-416 20,-416 14,-416 8,-410 8,-404 8,-404 8,-20 8,-20 8,-14 14,-8 20,-8"/>
<text text-anchor="middle" x="304.25" y="-403.45" font-family="Helvetica,sans-Serif" font-weight="bold" font-size="9.00">src</text>
</g>
<g id="clust2" class="cluster">
<title>cluster_src/application</title>
<path fill="#ffffff" stroke="black" stroke-width="2" d="M336.25,-205C336.25,-205 580.5,-205 580.5,-205 586.5,-205 592.5,-211 592.5,-217 592.5,-217 592.5,-283 592.5,-283 592.5,-289 586.5,-295 580.5,-295 580.5,-295 336.25,-295 336.25,-295 330.25,-295 324.25,-289 324.25,-283 324.25,-283 324.25,-217 324.25,-217 324.25,-211 330.25,-205 336.25,-205"/>
<text text-anchor="middle" x="458.38" y="-282.45" font-family="Helvetica,sans-Serif" font-weight="bold" font-size="9.00">application</text>
</g>
<g id="clust3" class="cluster">
<title>cluster_src/application/services</title>
<path fill="#ffffff" stroke="black" stroke-width="2" d="M344.25,-213C344.25,-213 572.5,-213 572.5,-213 578.5,-213 584.5,-219 584.5,-225 584.5,-225 584.5,-256 584.5,-256 584.5,-262 578.5,-268 572.5,-268 572.5,-268 344.25,-268 344.25,-268 338.25,-268 332.25,-262 332.25,-256 332.25,-256 332.25,-225 332.25,-225 332.25,-219 338.25,-213 344.25,-213"/>
<text text-anchor="middle" x="458.38" y="-255.45" font-family="Helvetica,sans-Serif" font-weight="bold" font-size="9.00">services</text>
</g>
<g id="clust4" class="cluster">
<title>cluster_src/components</title>
<path fill="#ffffff" stroke="black" stroke-width="2" d="M198.25,-16C198.25,-16 432.5,-16 432.5,-16 438.5,-16 444.5,-22 444.5,-28 444.5,-28 444.5,-185 444.5,-185 444.5,-191 438.5,-197 432.5,-197 432.5,-197 198.25,-197 198.25,-197 192.25,-197 186.25,-191 186.25,-185 186.25,-185 186.25,-28 186.25,-28 186.25,-22 192.25,-16 198.25,-16"/>
<text text-anchor="middle" x="315.38" y="-184.45" font-family="Helvetica,sans-Serif" font-weight="bold" font-size="9.00">components</text>
</g>
<g id="clust5" class="cluster">
<title>cluster_src/components/inputs</title>
<path fill="#ffffff" stroke="black" stroke-width="2" d="M213,-115C213,-115 297.5,-115 297.5,-115 303.5,-115 309.5,-121 309.5,-127 309.5,-127 309.5,-158 309.5,-158 309.5,-164 303.5,-170 297.5,-170 297.5,-170 213,-170 213,-170 207,-170 201,-164 201,-158 201,-158 201,-127 201,-127 201,-121 207,-115 213,-115"/>
<text text-anchor="middle" x="255.25" y="-157.45" font-family="Helvetica,sans-Serif" font-weight="bold" font-size="9.00">inputs</text>
</g>
<g id="clust6" class="cluster">
<title>cluster_src/components/utils</title>
<path fill="#ffffff" stroke="black" stroke-width="2" d="M206.25,-52C206.25,-52 304.25,-52 304.25,-52 310.25,-52 316.25,-58 316.25,-64 316.25,-64 316.25,-95 316.25,-95 316.25,-101 310.25,-107 304.25,-107 304.25,-107 206.25,-107 206.25,-107 200.25,-107 194.25,-101 194.25,-95 194.25,-95 194.25,-64 194.25,-64 194.25,-58 200.25,-52 206.25,-52"/>
<text text-anchor="middle" x="255.25" y="-94.45" font-family="Helvetica,sans-Serif" font-weight="bold" font-size="9.00">utils</text>
</g>
<g id="clust8" class="cluster">
<title>cluster_src/views</title>
<path fill="#ffffff" stroke="black" stroke-width="2" d="M90,-161C90,-161 166.25,-161 166.25,-161 172.25,-161 178.25,-167 178.25,-173 178.25,-173 178.25,-235 178.25,-235 178.25,-241 172.25,-247 166.25,-247 166.25,-247 90,-247 90,-247 84,-247 78,-241 78,-235 78,-235 78,-173 78,-173 78,-167 84,-161 90,-161"/>
<text text-anchor="middle" x="128.12" y="-234.45" font-family="Helvetica,sans-Serif" font-weight="bold" font-size="9.00">views</text>
</g>
<g id="clust7" class="cluster">
<title>cluster_src/stores</title>
<path fill="#ffffff" stroke="black" stroke-width="2" d="M355.5,-303C355.5,-303 431.75,-303 431.75,-303 437.75,-303 443.75,-309 443.75,-315 443.75,-315 443.75,-377 443.75,-377 443.75,-383 437.75,-389 431.75,-389 431.75,-389 355.5,-389 355.5,-389 349.5,-389 343.5,-383 343.5,-377 343.5,-377 343.5,-315 343.5,-315 343.5,-309 349.5,-303 355.5,-303"/>
<text text-anchor="middle" x="393.62" y="-376.45" font-family="Helvetica,sans-Serif" font-weight="bold" font-size="9.00">stores</text>
</g>
<!-- src/App.vue -->
<g id="node1" class="node">
<title>src/App.vue</title>
<g id="a_node1"><a xlink:href="src/App.vue" xlink:title="App.vue">
<path fill="#41f083" stroke="black" d="M63.58,-188.62C63.58,-188.62 22.42,-188.62 22.42,-188.62 19.21,-188.62 16,-185.42 16,-182.21 16,-182.21 16,-175.79 16,-175.79 16,-172.58 19.21,-169.38 22.42,-169.38 22.42,-169.38 63.58,-169.38 63.58,-169.38 66.79,-169.38 70,-172.58 70,-175.79 70,-175.79 70,-182.21 70,-182.21 70,-185.42 66.79,-188.62 63.58,-188.62"/>
<text text-anchor="start" x="26.88" y="-176.07" font-family="Helvetica,sans-Serif" font-size="9.00">App.vue</text>
</a>
</g>
</g>
<!-- src/components/utils/DiagnosticsPanel.vue -->
<g id="node2" class="node">
<title>src/components/utils/DiagnosticsPanel.vue</title>
<g id="a_node2"><a xlink:href="src/components/utils/DiagnosticsPanel.vue" xlink:title="DiagnosticsPanel.vue">
<path fill="#41f083" stroke="black" d="M301.83,-79.62C301.83,-79.62 208.67,-79.62 208.67,-79.62 205.46,-79.62 202.25,-76.42 202.25,-73.21 202.25,-73.21 202.25,-66.79 202.25,-66.79 202.25,-63.58 205.46,-60.38 208.67,-60.38 208.67,-60.38 301.83,-60.38 301.83,-60.38 305.04,-60.38 308.25,-63.58 308.25,-66.79 308.25,-66.79 308.25,-73.21 308.25,-73.21 308.25,-76.42 305.04,-79.62 301.83,-79.62"/>
<text text-anchor="start" x="210.25" y="-67.08" font-family="Helvetica,sans-Serif" font-size="9.00">DiagnosticsPanel.vue</text>
</a>
</g>
</g>
<!-- src/App.vue&#45;&gt;src/components/utils/DiagnosticsPanel.vue -->
<g id="edge1" class="edge">
<title>src/App.vue&#45;&gt;src/components/utils/DiagnosticsPanel.vue</title>
<path fill="none" stroke="#000000" stroke-width="2" stroke-opacity="0.200000" d="M59.4,-169.08C65.16,-165.48 71.82,-161.44 78,-158 128.48,-129.88 189.1,-100.55 224.49,-83.85"/>
<polygon fill="#000000" fill-opacity="0.200000" stroke="#000000" stroke-width="2" stroke-opacity="0.200000" points="225.22,-85.83 229.75,-81.37 223.43,-82.03 225.22,-85.83"/>
</g>
<!-- src/views/NavBar.vue -->
<g id="node3" class="node">
<title>src/views/NavBar.vue</title>
<g id="a_node3"><a xlink:href="src/views/NavBar.vue" xlink:title="NavBar.vue">
<path fill="#41f083" stroke="black" d="M152.96,-219.62C152.96,-219.62 103.29,-219.62 103.29,-219.62 100.08,-219.62 96.88,-216.42 96.88,-213.21 96.88,-213.21 96.88,-206.79 96.88,-206.79 96.88,-203.58 100.08,-200.38 103.29,-200.38 103.29,-200.38 152.96,-200.38 152.96,-200.38 156.17,-200.38 159.38,-203.58 159.38,-206.79 159.38,-206.79 159.38,-213.21 159.38,-213.21 159.38,-216.42 156.17,-219.62 152.96,-219.62"/>
<text text-anchor="start" x="104.88" y="-207.07" font-family="Helvetica,sans-Serif" font-size="9.00">NavBar.vue</text>
</a>
</g>
</g>
<!-- src/App.vue&#45;&gt;src/views/NavBar.vue -->
<g id="edge2" class="edge">
<title>src/App.vue&#45;&gt;src/views/NavBar.vue</title>
<path fill="none" stroke="#000000" stroke-width="2" stroke-opacity="0.200000" d="M63.93,-188.96C68.5,-191.08 73.37,-193.22 78,-195 81.23,-196.25 84.61,-197.46 88.02,-198.62"/>
<polygon fill="#000000" fill-opacity="0.200000" stroke="#000000" stroke-width="2" stroke-opacity="0.200000" points="87.26,-200.58 93.62,-200.45 88.57,-196.59 87.26,-200.58"/>
</g>
<!-- src/views/VideoGallery.vue -->
<g id="node4" class="node">
<title>src/views/VideoGallery.vue</title>
<g id="a_node4"><a xlink:href="src/views/VideoGallery.vue" xlink:title="VideoGallery.vue">
<path fill="#41f083" stroke="black" d="M163.83,-188.62C163.83,-188.62 92.42,-188.62 92.42,-188.62 89.21,-188.62 86,-185.42 86,-182.21 86,-182.21 86,-175.79 86,-175.79 86,-172.58 89.21,-169.38 92.42,-169.38 92.42,-169.38 163.83,-169.38 163.83,-169.38 167.04,-169.38 170.25,-172.58 170.25,-175.79 170.25,-175.79 170.25,-182.21 170.25,-182.21 170.25,-185.42 167.04,-188.62 163.83,-188.62"/>
<text text-anchor="start" x="94" y="-176.07" font-family="Helvetica,sans-Serif" font-size="9.00">VideoGallery.vue</text>
</a>
</g>
</g>
<!-- src/App.vue&#45;&gt;src/views/VideoGallery.vue -->
<g id="edge3" class="edge">
<title>src/App.vue&#45;&gt;src/views/VideoGallery.vue</title>
<path fill="none" stroke="#000000" stroke-width="2" stroke-opacity="0.200000" d="M70.3,-179C72.42,-179 74.61,-179 76.83,-179"/>
<polygon fill="#000000" fill-opacity="0.200000" stroke="#000000" stroke-width="2" stroke-opacity="0.200000" points="76.47,-181.1 82.47,-179 76.47,-176.9 76.47,-181.1"/>
</g>
<!-- src/stores/appStateStore.ts -->
<g id="node11" class="node">
<title>src/stores/appStateStore.ts</title>
<g id="a_node11"><a xlink:href="src/stores/appStateStore.ts" xlink:title="appStateStore.ts">
<path fill="#ddfeff" stroke="black" d="M429.33,-330.62C429.33,-330.62 357.92,-330.62 357.92,-330.62 354.71,-330.62 351.5,-327.42 351.5,-324.21 351.5,-324.21 351.5,-317.79 351.5,-317.79 351.5,-314.58 354.71,-311.38 357.92,-311.38 357.92,-311.38 429.33,-311.38 429.33,-311.38 432.54,-311.38 435.75,-314.58 435.75,-317.79 435.75,-317.79 435.75,-324.21 435.75,-324.21 435.75,-327.42 432.54,-330.62 429.33,-330.62"/>
<text text-anchor="start" x="359.5" y="-318.07" font-family="Helvetica,sans-Serif" font-size="9.00">appStateStore.ts</text>
</a>
</g>
</g>
<!-- src/components/utils/DiagnosticsPanel.vue&#45;&gt;src/stores/appStateStore.ts -->
<g id="edge9" class="edge">
<title>src/components/utils/DiagnosticsPanel.vue&#45;&gt;src/stores/appStateStore.ts</title>
<path fill="none" stroke="#000000" stroke-width="2" stroke-opacity="0.200000" d="M279.73,-80C292.9,-86.93 308.25,-97.53 316.25,-112 333.37,-142.96 307.45,-239.87 324.25,-271 332.62,-286.51 348.13,-298.45 362.27,-306.77"/>
<polygon fill="#000000" fill-opacity="0.200000" stroke="#000000" stroke-width="2" stroke-opacity="0.200000" points="361.01,-308.47 367.28,-309.55 363.05,-304.8 361.01,-308.47"/>
</g>
<!-- src/components/inputs/FolderSelector.vue -->
<g id="node9" class="node">
<title>src/components/inputs/FolderSelector.vue</title>
<g id="a_node9"><a xlink:href="src/components/inputs/FolderSelector.vue" xlink:title="FolderSelector.vue">
<path fill="#41f083" stroke="black" d="M295.08,-142.62C295.08,-142.62 215.42,-142.62 215.42,-142.62 212.21,-142.62 209,-139.42 209,-136.21 209,-136.21 209,-129.79 209,-129.79 209,-126.58 212.21,-123.38 215.42,-123.38 215.42,-123.38 295.08,-123.38 295.08,-123.38 298.29,-123.38 301.5,-126.58 301.5,-129.79 301.5,-129.79 301.5,-136.21 301.5,-136.21 301.5,-139.42 298.29,-142.62 295.08,-142.62"/>
<text text-anchor="start" x="217" y="-130.07" font-family="Helvetica,sans-Serif" font-size="9.00">FolderSelector.vue</text>
</a>
</g>
</g>
<!-- src/views/NavBar.vue&#45;&gt;src/components/inputs/FolderSelector.vue -->
<g id="edge10" class="edge">
<title>src/views/NavBar.vue&#45;&gt;src/components/inputs/FolderSelector.vue</title>
<path fill="none" stroke="#000000" stroke-width="2" stroke-opacity="0.200000" d="M159.74,-202.66C166.05,-200.6 172.51,-198.07 178.25,-195 201.23,-182.73 223.88,-162.99 238.39,-149.08"/>
<polygon fill="#000000" fill-opacity="0.200000" stroke="#000000" stroke-width="2" stroke-opacity="0.200000" points="239.85,-150.6 242.67,-144.9 236.91,-147.6 239.85,-150.6"/>
</g>
<!-- src/stores/videosStore.ts -->
<g id="node10" class="node">
<title>src/stores/videosStore.ts</title>
<g id="a_node10"><a xlink:href="src/stores/videosStore.ts" xlink:title="videosStore.ts">
<path fill="#ddfeff" stroke="black" d="M424.46,-361.62C424.46,-361.62 362.79,-361.62 362.79,-361.62 359.58,-361.62 356.38,-358.42 356.38,-355.21 356.38,-355.21 356.38,-348.79 356.38,-348.79 356.38,-345.58 359.58,-342.38 362.79,-342.38 362.79,-342.38 424.46,-342.38 424.46,-342.38 427.67,-342.38 430.88,-345.58 430.88,-348.79 430.88,-348.79 430.88,-355.21 430.88,-355.21 430.88,-358.42 427.67,-361.62 424.46,-361.62"/>
<text text-anchor="start" x="364.38" y="-349.07" font-family="Helvetica,sans-Serif" font-size="9.00">videosStore.ts</text>
</a>
</g>
</g>
<!-- src/views/NavBar.vue&#45;&gt;src/stores/videosStore.ts -->
<g id="edge12" class="edge">
<title>src/views/NavBar.vue&#45;&gt;src/stores/videosStore.ts</title>
<path fill="none" stroke="#000000" stroke-width="2" stroke-opacity="0.200000" d="M137.65,-220.03C148.2,-232.02 167.11,-252.18 186.25,-266 242.17,-306.37 259.35,-313.64 324.25,-337 331.56,-339.63 339.49,-341.88 347.26,-343.78"/>
<polygon fill="#000000" fill-opacity="0.200000" stroke="#000000" stroke-width="2" stroke-opacity="0.200000" points="346.67,-345.8 352.98,-345.1 347.61,-341.71 346.67,-345.8"/>
</g>
<!-- src/views/NavBar.vue&#45;&gt;src/stores/appStateStore.ts -->
<g id="edge11" class="edge">
<title>src/views/NavBar.vue&#45;&gt;src/stores/appStateStore.ts</title>
<path fill="none" stroke="#000000" stroke-width="2" stroke-opacity="0.200000" d="M152.97,-220.05C200.47,-240.06 306.92,-284.9 360.51,-307.47"/>
<polygon fill="#000000" fill-opacity="0.200000" stroke="#000000" stroke-width="2" stroke-opacity="0.200000" points="359.51,-309.33 365.85,-309.72 361.14,-305.46 359.51,-309.33"/>
</g>
<!-- src/components/VideoCard.vue -->
<g id="node7" class="node">
<title>src/components/VideoCard.vue</title>
<g id="a_node7"><a xlink:href="src/components/VideoCard.vue" xlink:title="VideoCard.vue">
<path fill="#41f083" stroke="black" d="M286.83,-43.62C286.83,-43.62 223.67,-43.62 223.67,-43.62 220.46,-43.62 217.25,-40.42 217.25,-37.21 217.25,-37.21 217.25,-30.79 217.25,-30.79 217.25,-27.58 220.46,-24.38 223.67,-24.38 223.67,-24.38 286.83,-24.38 286.83,-24.38 290.04,-24.38 293.25,-27.58 293.25,-30.79 293.25,-30.79 293.25,-37.21 293.25,-37.21 293.25,-40.42 290.04,-43.62 286.83,-43.62"/>
<text text-anchor="start" x="225.25" y="-31.07" font-family="Helvetica,sans-Serif" font-size="9.00">VideoCard.vue</text>
</a>
</g>
</g>
<!-- src/views/VideoGallery.vue&#45;&gt;src/components/VideoCard.vue -->
<g id="edge13" class="edge">
<title>src/views/VideoGallery.vue&#45;&gt;src/components/VideoCard.vue</title>
<path fill="none" stroke="#000000" stroke-width="2" stroke-opacity="0.200000" d="M130.43,-169.04C134.18,-144.51 147.37,-80.89 186.25,-49 192.57,-43.82 200.28,-40.33 208.22,-38"/>
<polygon fill="#000000" fill-opacity="0.200000" stroke="#000000" stroke-width="2" stroke-opacity="0.200000" points="208.6,-40.07 213.93,-36.61 207.6,-35.99 208.6,-40.07"/>
</g>
<!-- src/views/VideoGallery.vue&#45;&gt;src/stores/videosStore.ts -->
<g id="edge14" class="edge">
<title>src/views/VideoGallery.vue&#45;&gt;src/stores/videosStore.ts</title>
<path fill="none" stroke="#000000" stroke-width="2" stroke-opacity="0.200000" d="M170.54,-185.01C214.67,-193.8 282.71,-214.75 316.25,-263 335.13,-290.16 302.16,-312.38 324.25,-337 330.28,-343.72 338.56,-347.8 347.28,-350.21"/>
<polygon fill="#000000" fill-opacity="0.200000" stroke="#000000" stroke-width="2" stroke-opacity="0.200000" points="346.82,-352.26 353.12,-351.46 347.7,-348.15 346.82,-352.26"/>
</g>
<!-- src/application/services/VideoMetadataService.ts -->
<g id="node5" class="node">
<title>src/application/services/VideoMetadataService.ts</title>
<g id="a_node5"><a xlink:href="src/application/services/VideoMetadataService.ts" xlink:title="VideoMetadataService.ts">
<path fill="#ddfeff" stroke="black" d="M570.08,-240.62C570.08,-240.62 466.42,-240.62 466.42,-240.62 463.21,-240.62 460,-237.42 460,-234.21 460,-234.21 460,-227.79 460,-227.79 460,-224.58 463.21,-221.38 466.42,-221.38 466.42,-221.38 570.08,-221.38 570.08,-221.38 573.29,-221.38 576.5,-224.58 576.5,-227.79 576.5,-227.79 576.5,-234.21 576.5,-234.21 576.5,-237.42 573.29,-240.62 570.08,-240.62"/>
<text text-anchor="start" x="468" y="-228.07" font-family="Helvetica,sans-Serif" font-size="9.00">VideoMetadataService.ts</text>
</a>
</g>
</g>
<!-- src/application/services/VideoParserService.ts -->
<g id="node6" class="node">
<title>src/application/services/VideoParserService.ts</title>
<g id="a_node6"><a xlink:href="src/application/services/VideoParserService.ts" xlink:title="VideoParserService.ts">
<path fill="#ddfeff" stroke="black" d="M440.58,-240.62C440.58,-240.62 346.67,-240.62 346.67,-240.62 343.46,-240.62 340.25,-237.42 340.25,-234.21 340.25,-234.21 340.25,-227.79 340.25,-227.79 340.25,-224.58 343.46,-221.38 346.67,-221.38 346.67,-221.38 440.58,-221.38 440.58,-221.38 443.79,-221.38 447,-224.58 447,-227.79 447,-227.79 447,-234.21 447,-234.21 447,-237.42 443.79,-240.62 440.58,-240.62"/>
<text text-anchor="start" x="348.25" y="-228.07" font-family="Helvetica,sans-Serif" font-size="9.00">VideoParserService.ts</text>
</a>
</g>
</g>
<!-- src/application/services/VideoParserService.ts&#45;&gt;src/application/services/VideoMetadataService.ts -->
<g id="edge4" class="edge">
<title>src/application/services/VideoParserService.ts&#45;&gt;src/application/services/VideoMetadataService.ts</title>
<path fill="none" stroke="#000000" stroke-width="2" stroke-opacity="0.200000" d="M447.34,-231C448.64,-231 449.94,-231 451.25,-231"/>
<polygon fill="#000000" fill-opacity="0.200000" stroke="#000000" stroke-width="2" stroke-opacity="0.200000" points="450.86,-233.1 456.86,-231 450.86,-228.9 450.86,-233.1"/>
</g>
<!-- src/components/VideoCard.vue&#45;&gt;src/application/services/VideoMetadataService.ts -->
<g id="edge6" class="edge">
<title>src/components/VideoCard.vue&#45;&gt;src/application/services/VideoMetadataService.ts</title>
<path fill="none" stroke="#000000" stroke-width="2" stroke-opacity="0.200000" d="M293.48,-40.29C301.27,-42.43 309.24,-45.26 316.25,-49 398.44,-92.88 473.69,-177.7 503.6,-213.92"/>
<polygon fill="#000000" fill-opacity="0.200000" stroke="#000000" stroke-width="2" stroke-opacity="0.200000" points="501.95,-215.22 507.37,-218.54 505.2,-212.56 501.95,-215.22"/>
</g>
<!-- src/components/VideoEmbed.vue -->
<g id="node8" class="node">
<title>src/components/VideoEmbed.vue</title>
<g id="a_node8"><a xlink:href="src/components/VideoEmbed.vue" xlink:title="VideoEmbed.vue">
<path fill="#41f083" stroke="black" d="M430.08,-43.62C430.08,-43.62 357.17,-43.62 357.17,-43.62 353.96,-43.62 350.75,-40.42 350.75,-37.21 350.75,-37.21 350.75,-30.79 350.75,-30.79 350.75,-27.58 353.96,-24.38 357.17,-24.38 357.17,-24.38 430.08,-24.38 430.08,-24.38 433.29,-24.38 436.5,-27.58 436.5,-30.79 436.5,-30.79 436.5,-37.21 436.5,-37.21 436.5,-40.42 433.29,-43.62 430.08,-43.62"/>
<text text-anchor="start" x="358.75" y="-31.07" font-family="Helvetica,sans-Serif" font-size="9.00">VideoEmbed.vue</text>
</a>
</g>
</g>
<!-- src/components/VideoCard.vue&#45;&gt;src/components/VideoEmbed.vue -->
<g id="edge5" class="edge">
<title>src/components/VideoCard.vue&#45;&gt;src/components/VideoEmbed.vue</title>
<path fill="none" stroke="#000000" stroke-width="2" stroke-opacity="0.200000" d="M293.52,-34C308.42,-34 325.83,-34 341.86,-34"/>
<polygon fill="#000000" fill-opacity="0.200000" stroke="#000000" stroke-width="2" stroke-opacity="0.200000" points="341.57,-36.1 347.57,-34 341.57,-31.9 341.57,-36.1"/>
</g>
<!-- src/components/inputs/FolderSelector.vue&#45;&gt;src/application/services/VideoParserService.ts -->
<g id="edge7" class="edge">
<title>src/components/inputs/FolderSelector.vue&#45;&gt;src/application/services/VideoParserService.ts</title>
<path fill="none" stroke="#000000" stroke-width="2" stroke-opacity="0.200000" d="M264.17,-142.74C276.03,-156.85 299.66,-183.11 324.25,-200 334.18,-206.82 345.86,-212.76 356.72,-217.56"/>
<polygon fill="#000000" fill-opacity="0.200000" stroke="#000000" stroke-width="2" stroke-opacity="0.200000" points="355.7,-219.41 362.04,-219.82 357.34,-215.54 355.7,-219.41"/>
</g>
<!-- src/components/inputs/FolderSelector.vue&#45;&gt;src/stores/videosStore.ts -->
<g id="edge8" class="edge">
<title>src/components/inputs/FolderSelector.vue&#45;&gt;src/stores/videosStore.ts</title>
<path fill="none" stroke="#000000" stroke-width="2" stroke-opacity="0.200000" d="M262.92,-142.97C275.78,-162.77 303.83,-208.87 316.25,-252 321.5,-270.23 311.68,-322.79 324.25,-337 330.23,-343.76 338.49,-347.86 347.21,-350.27"/>
<polygon fill="#000000" fill-opacity="0.200000" stroke="#000000" stroke-width="2" stroke-opacity="0.200000" points="346.75,-352.32 353.05,-351.53 347.63,-348.21 346.75,-352.32"/>
</g>
</g>
</svg>
