<?xml version="1.0" encoding="UTF-8" standalone="no"?>
<!DOCTYPE svg PUBLIC "-//W3C//DTD SVG 1.1//EN"
 "http://www.w3.org/Graphics/SVG/1.1/DTD/svg11.dtd">
<!-- Generated by graphviz version 9.0.0 (20230911.1827)
 -->
<!-- Title: dependency&#45;cruiser output Pages: 1 -->
<svg width="552pt" height="481pt"
 viewBox="0.00 0.00 552.12 481.00" xmlns="http://www.w3.org/2000/svg" xmlns:xlink="http://www.w3.org/1999/xlink">
<g id="graph0" class="graph" transform="scale(1 1) rotate(0) translate(4 477)">
<title>dependency&#45;cruiser output</title>
<polygon fill="white" stroke="none" points="-4,4 -4,-477 548.12,-477 548.12,4 -4,4"/>
<g id="clust1" class="cluster">
<title>cluster_src</title>
<path fill="#ffffff" stroke="black" stroke-width="2" d="M20,-8C20,-8 524.12,-8 524.12,-8 530.12,-8 536.12,-14 536.12,-20 536.12,-20 536.12,-453 536.12,-453 536.12,-459 530.12,-465 524.12,-465 524.12,-465 20,-465 20,-465 14,-465 8,-459 8,-453 8,-453 8,-20 8,-20 8,-14 14,-8 20,-8"/>
<text text-anchor="middle" x="272.06" y="-452.45" font-family="Helvetica,sans-Serif" font-weight="bold" font-size="9.00">src</text>
</g>
<g id="clust6" class="cluster">
<title>cluster_src/infrastructure</title>
<path fill="#ffffff" stroke="black" stroke-width="2" d="M344.25,-240C344.25,-240 406.25,-240 406.25,-240 412.25,-240 418.25,-246 418.25,-252 418.25,-252 418.25,-318 418.25,-318 418.25,-324 412.25,-330 406.25,-330 406.25,-330 344.25,-330 344.25,-330 338.25,-330 332.25,-324 332.25,-318 332.25,-318 332.25,-252 332.25,-252 332.25,-246 338.25,-240 344.25,-240"/>
<text text-anchor="middle" x="375.25" y="-317.45" font-family="Helvetica,sans-Serif" font-weight="bold" font-size="9.00">infrastructure</text>
</g>
<g id="clust7" class="cluster">
<title>cluster_src/infrastructure/services</title>
<path fill="#ffffff" stroke="black" stroke-width="2" d="M352.25,-248C352.25,-248 398.25,-248 398.25,-248 404.25,-248 410.25,-254 410.25,-260 410.25,-260 410.25,-291 410.25,-291 410.25,-297 404.25,-303 398.25,-303 398.25,-303 352.25,-303 352.25,-303 346.25,-303 340.25,-297 340.25,-291 340.25,-291 340.25,-260 340.25,-260 340.25,-254 346.25,-248 352.25,-248"/>
<text text-anchor="middle" x="375.25" y="-290.45" font-family="Helvetica,sans-Serif" font-weight="bold" font-size="9.00">services</text>
</g>
<g id="clust2" class="cluster">
<title>cluster_src/application</title>
<path fill="#ffffff" stroke="black" stroke-width="2" d="M344.25,-348C344.25,-348 406.25,-348 406.25,-348 412.25,-348 418.25,-354 418.25,-360 418.25,-360 418.25,-426 418.25,-426 418.25,-432 412.25,-438 406.25,-438 406.25,-438 344.25,-438 344.25,-438 338.25,-438 332.25,-432 332.25,-426 332.25,-426 332.25,-360 332.25,-360 332.25,-354 338.25,-348 344.25,-348"/>
<text text-anchor="middle" x="375.25" y="-425.45" font-family="Helvetica,sans-Serif" font-weight="bold" font-size="9.00">application</text>
</g>
<g id="clust3" class="cluster">
<title>cluster_src/application/stores</title>
<path fill="#ffffff" stroke="black" stroke-width="2" d="M352.25,-356C352.25,-356 398.25,-356 398.25,-356 404.25,-356 410.25,-362 410.25,-368 410.25,-368 410.25,-399 410.25,-399 410.25,-405 404.25,-411 398.25,-411 398.25,-411 352.25,-411 352.25,-411 346.25,-411 340.25,-405 340.25,-399 340.25,-399 340.25,-368 340.25,-368 340.25,-362 346.25,-356 352.25,-356"/>
<text text-anchor="middle" x="375.25" y="-398.45" font-family="Helvetica,sans-Serif" font-weight="bold" font-size="9.00">stores</text>
</g>
<g id="clust4" class="cluster">
<title>cluster_src/domain</title>
<path fill="#ffffff" stroke="black" stroke-width="2" d="M454.12,-227C454.12,-227 516.12,-227 516.12,-227 522.12,-227 528.12,-233 528.12,-239 528.12,-239 528.12,-305 528.12,-305 528.12,-311 522.12,-317 516.12,-317 516.12,-317 454.12,-317 454.12,-317 448.12,-317 442.12,-311 442.12,-305 442.12,-305 442.12,-239 442.12,-239 442.12,-233 448.12,-227 454.12,-227"/>
<text text-anchor="middle" x="485.12" y="-304.45" font-family="Helvetica,sans-Serif" font-weight="bold" font-size="9.00">domain</text>
</g>
<g id="clust5" class="cluster">
<title>cluster_src/domain/entities</title>
<path fill="#ffffff" stroke="black" stroke-width="2" d="M462.12,-235C462.12,-235 508.12,-235 508.12,-235 514.12,-235 520.12,-241 520.12,-247 520.12,-247 520.12,-278 520.12,-278 520.12,-284 514.12,-290 508.12,-290 508.12,-290 462.12,-290 462.12,-290 456.12,-290 450.12,-284 450.12,-278 450.12,-278 450.12,-247 450.12,-247 450.12,-241 456.12,-235 462.12,-235"/>
<text text-anchor="middle" x="485.12" y="-277.45" font-family="Helvetica,sans-Serif" font-weight="bold" font-size="9.00">entities</text>
</g>
<g id="clust8" class="cluster">
<title>cluster_src/presentation</title>
<path fill="#ffffff" stroke="black" stroke-width="2" d="M90,-16C90,-16 422.12,-16 422.12,-16 428.12,-16 434.12,-22 434.12,-28 434.12,-28 434.12,-220 434.12,-220 434.12,-226 428.12,-232 422.12,-232 422.12,-232 90,-232 90,-232 84,-232 78,-226 78,-220 78,-220 78,-28 78,-28 78,-22 84,-16 90,-16"/>
<text text-anchor="middle" x="256.06" y="-219.45" font-family="Helvetica,sans-Serif" font-weight="bold" font-size="9.00">presentation</text>
</g>
<g id="clust9" class="cluster">
<title>cluster_src/presentation/components</title>
<path fill="#ffffff" stroke="black" stroke-width="2" d="M206.25,-24C206.25,-24 414.12,-24 414.12,-24 420.12,-24 426.12,-30 426.12,-36 426.12,-36 426.12,-193 426.12,-193 426.12,-199 420.12,-205 414.12,-205 414.12,-205 206.25,-205 206.25,-205 200.25,-205 194.25,-199 194.25,-193 194.25,-193 194.25,-36 194.25,-36 194.25,-30 200.25,-24 206.25,-24"/>
<text text-anchor="middle" x="310.19" y="-192.45" font-family="Helvetica,sans-Serif" font-weight="bold" font-size="9.00">components</text>
</g>
<g id="clust11" class="cluster">
<title>cluster_src/presentation/components/utils</title>
<path fill="#ffffff" stroke="black" stroke-width="2" d="M214.25,-32C214.25,-32 312.25,-32 312.25,-32 318.25,-32 324.25,-38 324.25,-44 324.25,-44 324.25,-75 324.25,-75 324.25,-81 318.25,-87 312.25,-87 312.25,-87 214.25,-87 214.25,-87 208.25,-87 202.25,-81 202.25,-75 202.25,-75 202.25,-44 202.25,-44 202.25,-38 208.25,-32 214.25,-32"/>
<text text-anchor="middle" x="263.25" y="-74.45" font-family="Helvetica,sans-Serif" font-weight="bold" font-size="9.00">utils</text>
</g>
<g id="clust10" class="cluster">
<title>cluster_src/presentation/components/inputs</title>
<path fill="#ffffff" stroke="black" stroke-width="2" d="M233.38,-123C233.38,-123 293.12,-123 293.12,-123 299.12,-123 305.12,-129 305.12,-135 305.12,-135 305.12,-166 305.12,-166 305.12,-172 299.12,-178 293.12,-178 293.12,-178 233.38,-178 233.38,-178 227.38,-178 221.38,-172 221.38,-166 221.38,-166 221.38,-135 221.38,-135 221.38,-129 227.38,-123 233.38,-123"/>
<text text-anchor="middle" x="263.25" y="-165.45" font-family="Helvetica,sans-Serif" font-weight="bold" font-size="9.00">inputs</text>
</g>
<g id="clust12" class="cluster">
<title>cluster_src/presentation/views</title>
<path fill="#ffffff" stroke="black" stroke-width="2" d="M98,-92C98,-92 174.25,-92 174.25,-92 180.25,-92 186.25,-98 186.25,-104 186.25,-104 186.25,-166 186.25,-166 186.25,-172 180.25,-178 174.25,-178 174.25,-178 98,-178 98,-178 92,-178 86,-172 86,-166 86,-166 86,-104 86,-104 86,-98 92,-92 98,-92"/>
<text text-anchor="middle" x="136.12" y="-165.45" font-family="Helvetica,sans-Serif" font-weight="bold" font-size="9.00">views</text>
</g>
<!-- src/App.vue -->
<g id="node1" class="node">
<title>src/App.vue</title>
<g id="a_node1"><a xlink:href="src/App.vue" xlink:title="App.vue">
<path fill="#41f083" stroke="black" d="M63.58,-119.62C63.58,-119.62 22.42,-119.62 22.42,-119.62 19.21,-119.62 16,-116.42 16,-113.21 16,-113.21 16,-106.79 16,-106.79 16,-103.58 19.21,-100.38 22.42,-100.38 22.42,-100.38 63.58,-100.38 63.58,-100.38 66.79,-100.38 70,-103.58 70,-106.79 70,-106.79 70,-113.21 70,-113.21 70,-116.42 66.79,-119.62 63.58,-119.62"/>
<text text-anchor="start" x="26.88" y="-107.08" font-family="Helvetica,sans-Serif" font-size="9.00">App.vue</text>
</a>
</g>
</g>
<!-- src/presentation/components/utils/DiagnosticsPanel.vue -->
<g id="node2" class="node">
<title>src/presentation/components/utils/DiagnosticsPanel.vue</title>
<g id="a_node2"><a xlink:href="src/presentation/components/utils/DiagnosticsPanel.vue" xlink:title="DiagnosticsPanel.vue">
<path fill="#41f083" stroke="black" d="M309.83,-59.62C309.83,-59.62 216.67,-59.62 216.67,-59.62 213.46,-59.62 210.25,-56.42 210.25,-53.21 210.25,-53.21 210.25,-46.79 210.25,-46.79 210.25,-43.58 213.46,-40.38 216.67,-40.38 216.67,-40.38 309.83,-40.38 309.83,-40.38 313.04,-40.38 316.25,-43.58 316.25,-46.79 316.25,-46.79 316.25,-53.21 316.25,-53.21 316.25,-56.42 313.04,-59.62 309.83,-59.62"/>
<text text-anchor="start" x="218.25" y="-47.08" font-family="Helvetica,sans-Serif" font-size="9.00">DiagnosticsPanel.vue</text>
</a>
</g>
</g>
<!-- src/App.vue&#45;&gt;src/presentation/components/utils/DiagnosticsPanel.vue -->
<g id="edge1" class="edge">
<title>src/App.vue&#45;&gt;src/presentation/components/utils/DiagnosticsPanel.vue</title>
<path fill="none" stroke="#000000" stroke-width="2" stroke-opacity="0.200000" d="M57.65,-100.08C63.65,-96.13 70.92,-91.85 78,-89 117.6,-73.07 164.72,-63.24 201.39,-57.44"/>
<polygon fill="#000000" fill-opacity="0.200000" stroke="#000000" stroke-width="2" stroke-opacity="0.200000" points="201.4,-59.56 207.01,-56.58 200.76,-55.41 201.4,-59.56"/>
</g>
<!-- src/presentation/views/NavBar.vue -->
<g id="node3" class="node">
<title>src/presentation/views/NavBar.vue</title>
<g id="a_node3"><a xlink:href="src/presentation/views/NavBar.vue" xlink:title="NavBar.vue">
<path fill="#41f083" stroke="black" d="M160.96,-150.62C160.96,-150.62 111.29,-150.62 111.29,-150.62 108.08,-150.62 104.88,-147.42 104.88,-144.21 104.88,-144.21 104.88,-137.79 104.88,-137.79 104.88,-134.58 108.08,-131.38 111.29,-131.38 111.29,-131.38 160.96,-131.38 160.96,-131.38 164.17,-131.38 167.38,-134.58 167.38,-137.79 167.38,-137.79 167.38,-144.21 167.38,-144.21 167.38,-147.42 164.17,-150.62 160.96,-150.62"/>
<text text-anchor="start" x="112.88" y="-138.07" font-family="Helvetica,sans-Serif" font-size="9.00">NavBar.vue</text>
</a>
</g>
</g>
<!-- src/App.vue&#45;&gt;src/presentation/views/NavBar.vue -->
<g id="edge2" class="edge">
<title>src/App.vue&#45;&gt;src/presentation/views/NavBar.vue</title>
<path fill="none" stroke="#000000" stroke-width="2" stroke-opacity="0.200000" d="M63.88,-120.1C68.45,-122.21 73.34,-124.31 78,-126 83.83,-128.12 90.1,-130.07 96.27,-131.82"/>
<polygon fill="#000000" fill-opacity="0.200000" stroke="#000000" stroke-width="2" stroke-opacity="0.200000" points="95.31,-133.74 101.65,-133.28 96.41,-129.68 95.31,-133.74"/>
</g>
<!-- src/presentation/views/VideoGallery.vue -->
<g id="node4" class="node">
<title>src/presentation/views/VideoGallery.vue</title>
<g id="a_node4"><a xlink:href="src/presentation/views/VideoGallery.vue" xlink:title="VideoGallery.vue">
<path fill="#41f083" stroke="black" d="M171.83,-119.62C171.83,-119.62 100.42,-119.62 100.42,-119.62 97.21,-119.62 94,-116.42 94,-113.21 94,-113.21 94,-106.79 94,-106.79 94,-103.58 97.21,-100.38 100.42,-100.38 100.42,-100.38 171.83,-100.38 171.83,-100.38 175.04,-100.38 178.25,-103.58 178.25,-106.79 178.25,-106.79 178.25,-113.21 178.25,-113.21 178.25,-116.42 175.04,-119.62 171.83,-119.62"/>
<text text-anchor="start" x="102" y="-107.08" font-family="Helvetica,sans-Serif" font-size="9.00">VideoGallery.vue</text>
</a>
</g>
</g>
<!-- src/App.vue&#45;&gt;src/presentation/views/VideoGallery.vue -->
<g id="edge3" class="edge">
<title>src/App.vue&#45;&gt;src/presentation/views/VideoGallery.vue</title>
<path fill="none" stroke="#000000" stroke-width="2" stroke-opacity="0.200000" d="M70.36,-110C74.89,-110 79.73,-110 84.66,-110"/>
<polygon fill="#000000" fill-opacity="0.200000" stroke="#000000" stroke-width="2" stroke-opacity="0.200000" points="84.52,-112.1 90.52,-110 84.52,-107.9 84.52,-112.1"/>
</g>
<!-- src/application/stores/index.ts -->
<g id="node5" class="node">
<title>src/application/stores/index.ts</title>
<g id="a_node5"><a xlink:href="src/application/stores/index.ts" xlink:title="index.ts">
<path fill="#ddfeff" stroke="black" d="M395.83,-383.62C395.83,-383.62 354.67,-383.62 354.67,-383.62 351.46,-383.62 348.25,-380.42 348.25,-377.21 348.25,-377.21 348.25,-370.79 348.25,-370.79 348.25,-367.58 351.46,-364.38 354.67,-364.38 354.67,-364.38 395.83,-364.38 395.83,-364.38 399.04,-364.38 402.25,-367.58 402.25,-370.79 402.25,-370.79 402.25,-377.21 402.25,-377.21 402.25,-380.42 399.04,-383.62 395.83,-383.62"/>
<text text-anchor="start" x="359.5" y="-371.07" font-family="Helvetica,sans-Serif" font-size="9.00">index.ts</text>
</a>
</g>
</g>
<!-- src/presentation/components/utils/DiagnosticsPanel.vue&#45;&gt;src/application/stores/index.ts -->
<g id="edge9" class="edge">
<title>src/presentation/components/utils/DiagnosticsPanel.vue&#45;&gt;src/application/stores/index.ts</title>
<path fill="none" stroke="#000000" stroke-width="2" stroke-opacity="0.200000" d="M316.68,-57.32C319.51,-59.15 322.08,-61.35 324.25,-64 341.32,-84.8 324.48,-280.24 332.25,-306 338.02,-325.1 350.55,-344.2 360.44,-357.27"/>
<polygon fill="#000000" fill-opacity="0.200000" stroke="#000000" stroke-width="2" stroke-opacity="0.200000" points="358.66,-358.41 364.01,-361.84 361.97,-355.82 358.66,-358.41"/>
</g>
<!-- src/infrastructure/services/index.ts -->
<g id="node7" class="node">
<title>src/infrastructure/services/index.ts</title>
<g id="a_node7"><a xlink:href="src/infrastructure/services/index.ts" xlink:title="index.ts">
<path fill="#ddfeff" stroke="black" d="M395.83,-275.62C395.83,-275.62 354.67,-275.62 354.67,-275.62 351.46,-275.62 348.25,-272.42 348.25,-269.21 348.25,-269.21 348.25,-262.79 348.25,-262.79 348.25,-259.58 351.46,-256.38 354.67,-256.38 354.67,-256.38 395.83,-256.38 395.83,-256.38 399.04,-256.38 402.25,-259.58 402.25,-262.79 402.25,-262.79 402.25,-269.21 402.25,-269.21 402.25,-272.42 399.04,-275.62 395.83,-275.62"/>
<text text-anchor="start" x="359.5" y="-263.07" font-family="Helvetica,sans-Serif" font-size="9.00">index.ts</text>
</a>
</g>
</g>
<!-- src/presentation/components/utils/DiagnosticsPanel.vue&#45;&gt;src/infrastructure/services/index.ts -->
<g id="edge10" class="edge">
<title>src/presentation/components/utils/DiagnosticsPanel.vue&#45;&gt;src/infrastructure/services/index.ts</title>
<path fill="none" stroke="#000000" stroke-width="2" stroke-opacity="0.200000" d="M316.62,-57.38C319.46,-59.19 322.05,-61.38 324.25,-64 334.56,-76.27 326.89,-192.9 332.25,-208 337.78,-223.57 348.88,-238.6 358.29,-249.46"/>
<polygon fill="#000000" fill-opacity="0.200000" stroke="#000000" stroke-width="2" stroke-opacity="0.200000" points="356.54,-250.66 362.12,-253.71 359.66,-247.85 356.54,-250.66"/>
</g>
<!-- src/presentation/views/NavBar.vue&#45;&gt;src/application/stores/index.ts -->
<g id="edge11" class="edge">
<title>src/presentation/views/NavBar.vue&#45;&gt;src/application/stores/index.ts</title>
<path fill="none" stroke="#000000" stroke-width="2" stroke-opacity="0.200000" d="M138.27,-150.75C141.83,-176.79 154.88,-248.85 194.25,-291 233.78,-333.32 299.11,-355.86 339.25,-366.35"/>
<polygon fill="#000000" fill-opacity="0.200000" stroke="#000000" stroke-width="2" stroke-opacity="0.200000" points="338.63,-368.36 344.97,-367.79 339.66,-364.29 338.63,-368.36"/>
</g>
<!-- src/presentation/components/inputs/FileInput.vue -->
<g id="node10" class="node">
<title>src/presentation/components/inputs/FileInput.vue</title>
<g id="a_node10"><a xlink:href="src/presentation/components/inputs/FileInput.vue" xlink:title="FileInput.vue">
<path fill="#41f083" stroke="black" d="M290.71,-150.62C290.71,-150.62 235.79,-150.62 235.79,-150.62 232.58,-150.62 229.38,-147.42 229.38,-144.21 229.38,-144.21 229.38,-137.79 229.38,-137.79 229.38,-134.58 232.58,-131.38 235.79,-131.38 235.79,-131.38 290.71,-131.38 290.71,-131.38 293.92,-131.38 297.12,-134.58 297.12,-137.79 297.12,-137.79 297.12,-144.21 297.12,-144.21 297.12,-147.42 293.92,-150.62 290.71,-150.62"/>
<text text-anchor="start" x="237.38" y="-138.07" font-family="Helvetica,sans-Serif" font-size="9.00">FileInput.vue</text>
</a>
</g>
</g>
<!-- src/presentation/views/NavBar.vue&#45;&gt;src/presentation/components/inputs/FileInput.vue -->
<g id="edge12" class="edge">
<title>src/presentation/views/NavBar.vue&#45;&gt;src/presentation/components/inputs/FileInput.vue</title>
<path fill="none" stroke="#000000" stroke-width="2" stroke-opacity="0.200000" d="M167.73,-141C183.51,-141 202.98,-141 220.15,-141"/>
<polygon fill="#000000" fill-opacity="0.200000" stroke="#000000" stroke-width="2" stroke-opacity="0.200000" points="219.86,-143.1 225.86,-141 219.86,-138.9 219.86,-143.1"/>
</g>
<!-- src/presentation/views/VideoGallery.vue&#45;&gt;src/application/stores/index.ts -->
<g id="edge13" class="edge">
<title>src/presentation/views/VideoGallery.vue&#45;&gt;src/application/stores/index.ts</title>
<path fill="none" stroke="#000000" stroke-width="2" stroke-opacity="0.200000" d="M178.53,-118.51C181.41,-120.29 184.05,-122.43 186.25,-125 202.6,-144.1 182.13,-158.97 194.25,-181 230.87,-247.56 282.86,-228.29 324.25,-292 331.07,-302.5 326.58,-307.84 332.25,-319 339.41,-333.1 350.31,-347.24 359.21,-357.65"/>
<polygon fill="#000000" fill-opacity="0.200000" stroke="#000000" stroke-width="2" stroke-opacity="0.200000" points="357.45,-358.82 362.99,-361.94 360.6,-356.05 357.45,-358.82"/>
</g>
<!-- src/presentation/components/VideoCard.vue -->
<g id="node8" class="node">
<title>src/presentation/components/VideoCard.vue</title>
<g id="a_node8"><a xlink:href="src/presentation/components/VideoCard.vue" xlink:title="VideoCard.vue">
<path fill="#41f083" stroke="black" d="M294.83,-114.62C294.83,-114.62 231.67,-114.62 231.67,-114.62 228.46,-114.62 225.25,-111.42 225.25,-108.21 225.25,-108.21 225.25,-101.79 225.25,-101.79 225.25,-98.58 228.46,-95.38 231.67,-95.38 231.67,-95.38 294.83,-95.38 294.83,-95.38 298.04,-95.38 301.25,-98.58 301.25,-101.79 301.25,-101.79 301.25,-108.21 301.25,-108.21 301.25,-111.42 298.04,-114.62 294.83,-114.62"/>
<text text-anchor="start" x="233.25" y="-102.08" font-family="Helvetica,sans-Serif" font-size="9.00">VideoCard.vue</text>
</a>
</g>
</g>
<!-- src/presentation/views/VideoGallery.vue&#45;&gt;src/presentation/components/VideoCard.vue -->
<g id="edge14" class="edge">
<title>src/presentation/views/VideoGallery.vue&#45;&gt;src/presentation/components/VideoCard.vue</title>
<path fill="none" stroke="#000000" stroke-width="2" stroke-opacity="0.200000" d="M178.44,-108.35C190.47,-107.87 203.69,-107.34 216,-106.85"/>
<polygon fill="#000000" fill-opacity="0.200000" stroke="#000000" stroke-width="2" stroke-opacity="0.200000" points="215.84,-108.96 221.75,-106.62 215.67,-104.76 215.84,-108.96"/>
</g>
<!-- src/domain/entities/index.ts -->
<g id="node6" class="node">
<title>src/domain/entities/index.ts</title>
<g id="a_node6"><a xlink:href="src/domain/entities/index.ts" xlink:title="index.ts">
<path fill="#ddfeff" stroke="black" d="M505.71,-262.62C505.71,-262.62 464.54,-262.62 464.54,-262.62 461.33,-262.62 458.12,-259.42 458.12,-256.21 458.12,-256.21 458.12,-249.79 458.12,-249.79 458.12,-246.58 461.33,-243.38 464.54,-243.38 464.54,-243.38 505.71,-243.38 505.71,-243.38 508.92,-243.38 512.12,-246.58 512.12,-249.79 512.12,-249.79 512.12,-256.21 512.12,-256.21 512.12,-259.42 508.92,-262.62 505.71,-262.62"/>
<text text-anchor="start" x="469.38" y="-250.07" font-family="Helvetica,sans-Serif" font-size="9.00">index.ts</text>
</a>
</g>
</g>
<!-- src/presentation/components/VideoCard.vue&#45;&gt;src/application/stores/index.ts -->
<g id="edge5" class="edge">
<title>src/presentation/components/VideoCard.vue&#45;&gt;src/application/stores/index.ts</title>
<path fill="none" stroke="#000000" stroke-width="2" stroke-opacity="0.200000" d="M301.73,-106.8C310.36,-109.06 318.64,-113.08 324.25,-120 339.86,-139.27 320.68,-321.07 332.25,-343 335.58,-349.31 340.84,-354.67 346.52,-359.07"/>
<polygon fill="#000000" fill-opacity="0.200000" stroke="#000000" stroke-width="2" stroke-opacity="0.200000" points="345.21,-360.72 351.34,-362.41 347.6,-357.27 345.21,-360.72"/>
</g>
<!-- src/presentation/components/VideoCard.vue&#45;&gt;src/domain/entities/index.ts -->
<g id="edge6" class="edge">
<title>src/presentation/components/VideoCard.vue&#45;&gt;src/domain/entities/index.ts</title>
<path fill="none" stroke="#000000" stroke-opacity="0.200000" d="M301.7,-106.83C310.33,-109.09 318.62,-113.1 324.25,-120 337.33,-136.03 317.31,-291.69 332.25,-306 364.95,-337.32 392.55,-323.93 434.12,-306 451.53,-298.49 465.7,-281.61 474.45,-268.9"/>
<polygon fill="none" stroke="#000000" stroke-opacity="0.200000" points="476.14,-270.14 477.69,-263.97 472.64,-267.83 476.14,-270.14"/>
</g>
<!-- src/presentation/components/VideoEmbed.vue -->
<g id="node9" class="node">
<title>src/presentation/components/VideoEmbed.vue</title>
<g id="a_node9"><a xlink:href="src/presentation/components/VideoEmbed.vue" xlink:title="VideoEmbed.vue">
<path fill="#41f083" stroke="black" d="M411.71,-145.62C411.71,-145.62 338.79,-145.62 338.79,-145.62 335.58,-145.62 332.38,-142.42 332.38,-139.21 332.38,-139.21 332.38,-132.79 332.38,-132.79 332.38,-129.58 335.58,-126.38 338.79,-126.38 338.79,-126.38 411.71,-126.38 411.71,-126.38 414.92,-126.38 418.12,-129.58 418.12,-132.79 418.12,-132.79 418.12,-139.21 418.12,-139.21 418.12,-142.42 414.92,-145.62 411.71,-145.62"/>
<text text-anchor="start" x="340.38" y="-133.07" font-family="Helvetica,sans-Serif" font-size="9.00">VideoEmbed.vue</text>
</a>
</g>
</g>
<!-- src/presentation/components/VideoCard.vue&#45;&gt;src/presentation/components/VideoEmbed.vue -->
<g id="edge4" class="edge">
<title>src/presentation/components/VideoCard.vue&#45;&gt;src/presentation/components/VideoEmbed.vue</title>
<path fill="none" stroke="#000000" stroke-width="2" stroke-opacity="0.200000" d="M301.48,-113.91C309.04,-115.83 316.92,-117.91 324.25,-120 327.95,-121.05 331.79,-122.19 335.62,-123.36"/>
<polygon fill="#000000" fill-opacity="0.200000" stroke="#000000" stroke-width="2" stroke-opacity="0.200000" points="334.69,-125.28 341.05,-125.05 335.94,-121.27 334.69,-125.28"/>
</g>
<!-- src/presentation/components/VideoEmbed.vue&#45;&gt;src/domain/entities/index.ts -->
<g id="edge7" class="edge">
<title>src/presentation/components/VideoEmbed.vue&#45;&gt;src/domain/entities/index.ts</title>
<path fill="none" stroke="#000000" stroke-opacity="0.200000" d="M385.45,-145.98C404.32,-166.44 447.51,-213.29 469.97,-237.65"/>
<polygon fill="none" stroke="#000000" stroke-opacity="0.200000" points="468.31,-238.95 473.92,-241.94 471.4,-236.1 468.31,-238.95"/>
</g>
<!-- src/presentation/components/inputs/FileInput.vue&#45;&gt;src/application/stores/index.ts -->
<g id="edge8" class="edge">
<title>src/presentation/components/inputs/FileInput.vue&#45;&gt;src/application/stores/index.ts</title>
<path fill="none" stroke="#000000" stroke-width="2" stroke-opacity="0.200000" d="M269.59,-151C281.47,-173.74 310.17,-231.36 324.25,-283 331.33,-308.96 318.56,-319.84 332.25,-343 335.88,-349.14 341.25,-354.44 346.95,-358.83"/>
<polygon fill="#000000" fill-opacity="0.200000" stroke="#000000" stroke-width="2" stroke-opacity="0.200000" points="345.63,-360.47 351.75,-362.17 348.03,-357.02 345.63,-360.47"/>
</g>
</g>
</svg>
