<?xml version="1.0" encoding="UTF-8" standalone="no"?>
<!DOCTYPE svg PUBLIC "-//W3C//DTD SVG 1.1//EN"
 "http://www.w3.org/Graphics/SVG/1.1/DTD/svg11.dtd">
<!-- Generated by graphviz version 9.0.0 (20230911.1827)
 -->
<!-- Title: dependency&#45;cruiser output Pages: 1 -->
<svg width="552pt" height="481pt"
 viewBox="0.00 0.00 552.12 481.00" xmlns="http://www.w3.org/2000/svg" xmlns:xlink="http://www.w3.org/1999/xlink">
<g id="graph0" class="graph" transform="scale(1 1) rotate(0) translate(4 477)">
<title>dependency&#45;cruiser output</title>
<polygon fill="white" stroke="none" points="-4,4 -4,-477 548.12,-477 548.12,4 -4,4"/>
<g id="clust1" class="cluster">
<title>cluster_src</title>
<path fill="#ffffff" stroke="black" stroke-width="2" d="M20,-8C20,-8 524.12,-8 524.12,-8 530.12,-8 536.12,-14 536.12,-20 536.12,-20 536.12,-453 536.12,-453 536.12,-459 530.12,-465 524.12,-465 524.12,-465 20,-465 20,-465 14,-465 8,-459 8,-453 8,-453 8,-20 8,-20 8,-14 14,-8 20,-8"/>
<text text-anchor="middle" x="272.06" y="-452.45" font-family="Helvetica,sans-Serif" font-weight="bold" font-size="9.00">src</text>
</g>
<g id="clust2" class="cluster">
<title>cluster_src/application</title>
<path fill="#ffffff" stroke="black" stroke-width="2" d="M344.25,-348C344.25,-348 406.25,-348 406.25,-348 412.25,-348 418.25,-354 418.25,-360 418.25,-360 418.25,-426 418.25,-426 418.25,-432 412.25,-438 406.25,-438 406.25,-438 344.25,-438 344.25,-438 338.25,-438 332.25,-432 332.25,-426 332.25,-426 332.25,-360 332.25,-360 332.25,-354 338.25,-348 344.25,-348"/>
<text text-anchor="middle" x="375.25" y="-425.45" font-family="Helvetica,sans-Serif" font-weight="bold" font-size="9.00">application</text>
</g>
<g id="clust3" class="cluster">
<title>cluster_src/application/stores</title>
<path fill="#ffffff" stroke="black" stroke-width="2" d="M352.25,-356C352.25,-356 398.25,-356 398.25,-356 404.25,-356 410.25,-362 410.25,-368 410.25,-368 410.25,-399 410.25,-399 410.25,-405 404.25,-411 398.25,-411 398.25,-411 352.25,-411 352.25,-411 346.25,-411 340.25,-405 340.25,-399 340.25,-399 340.25,-368 340.25,-368 340.25,-362 346.25,-356 352.25,-356"/>
<text text-anchor="middle" x="375.25" y="-398.45" font-family="Helvetica,sans-Serif" font-weight="bold" font-size="9.00">stores</text>
</g>
<g id="clust6" class="cluster">
<title>cluster_src/infrastructure</title>
<path fill="#ffffff" stroke="black" stroke-width="2" d="M344.25,-240C344.25,-240 406.25,-240 406.25,-240 412.25,-240 418.25,-246 418.25,-252 418.25,-252 418.25,-318 418.25,-318 418.25,-324 412.25,-330 406.25,-330 406.25,-330 344.25,-330 344.25,-330 338.25,-330 332.25,-324 332.25,-318 332.25,-318 332.25,-252 332.25,-252 332.25,-246 338.25,-240 344.25,-240"/>
<text text-anchor="middle" x="375.25" y="-317.45" font-family="Helvetica,sans-Serif" font-weight="bold" font-size="9.00">infrastructure</text>
</g>
<g id="clust7" class="cluster">
<title>cluster_src/infrastructure/services</title>
<path fill="#ffffff" stroke="black" stroke-width="2" d="M352.25,-248C352.25,-248 398.25,-248 398.25,-248 404.25,-248 410.25,-254 410.25,-260 410.25,-260 410.25,-291 410.25,-291 410.25,-297 404.25,-303 398.25,-303 398.25,-303 352.25,-303 352.25,-303 346.25,-303 340.25,-297 340.25,-291 340.25,-291 340.25,-260 340.25,-260 340.25,-254 346.25,-248 352.25,-248"/>
<text text-anchor="middle" x="375.25" y="-290.45" font-family="Helvetica,sans-Serif" font-weight="bold" font-size="9.00">services</text>
</g>
<g id="clust4" class="cluster">
<title>cluster_src/domain</title>
<path fill="#ffffff" stroke="black" stroke-width="2" d="M454.12,-164C454.12,-164 516.12,-164 516.12,-164 522.12,-164 528.12,-170 528.12,-176 528.12,-176 528.12,-242 528.12,-242 528.12,-248 522.12,-254 516.12,-254 516.12,-254 454.12,-254 454.12,-254 448.12,-254 442.12,-248 442.12,-242 442.12,-242 442.12,-176 442.12,-176 442.12,-170 448.12,-164 454.12,-164"/>
<text text-anchor="middle" x="485.12" y="-241.45" font-family="Helvetica,sans-Serif" font-weight="bold" font-size="9.00">domain</text>
</g>
<g id="clust5" class="cluster">
<title>cluster_src/domain/entities</title>
<path fill="#ffffff" stroke="black" stroke-width="2" d="M462.12,-172C462.12,-172 508.12,-172 508.12,-172 514.12,-172 520.12,-178 520.12,-184 520.12,-184 520.12,-215 520.12,-215 520.12,-221 514.12,-227 508.12,-227 508.12,-227 462.12,-227 462.12,-227 456.12,-227 450.12,-221 450.12,-215 450.12,-215 450.12,-184 450.12,-184 450.12,-178 456.12,-172 462.12,-172"/>
<text text-anchor="middle" x="485.12" y="-214.45" font-family="Helvetica,sans-Serif" font-weight="bold" font-size="9.00">entities</text>
</g>
<g id="clust8" class="cluster">
<title>cluster_src/presentation</title>
<path fill="#ffffff" stroke="black" stroke-width="2" d="M90,-16C90,-16 422.12,-16 422.12,-16 428.12,-16 434.12,-22 434.12,-28 434.12,-28 434.12,-220 434.12,-220 434.12,-226 428.12,-232 422.12,-232 422.12,-232 90,-232 90,-232 84,-232 78,-226 78,-220 78,-220 78,-28 78,-28 78,-22 84,-16 90,-16"/>
<text text-anchor="middle" x="256.06" y="-219.45" font-family="Helvetica,sans-Serif" font-weight="bold" font-size="9.00">presentation</text>
</g>
<g id="clust9" class="cluster">
<title>cluster_src/presentation/components</title>
<path fill="#ffffff" stroke="black" stroke-width="2" d="M206.25,-24C206.25,-24 414.12,-24 414.12,-24 420.12,-24 426.12,-30 426.12,-36 426.12,-36 426.12,-193 426.12,-193 426.12,-199 420.12,-205 414.12,-205 414.12,-205 206.25,-205 206.25,-205 200.25,-205 194.25,-199 194.25,-193 194.25,-193 194.25,-36 194.25,-36 194.25,-30 200.25,-24 206.25,-24"/>
<text text-anchor="middle" x="310.19" y="-192.45" font-family="Helvetica,sans-Serif" font-weight="bold" font-size="9.00">components</text>
</g>
<g id="clust10" class="cluster">
<title>cluster_src/presentation/components/inputs</title>
<path fill="#ffffff" stroke="black" stroke-width="2" d="M233.38,-123C233.38,-123 293.12,-123 293.12,-123 299.12,-123 305.12,-129 305.12,-135 305.12,-135 305.12,-166 305.12,-166 305.12,-172 299.12,-178 293.12,-178 293.12,-178 233.38,-178 233.38,-178 227.38,-178 221.38,-172 221.38,-166 221.38,-166 221.38,-135 221.38,-135 221.38,-129 227.38,-123 233.38,-123"/>
<text text-anchor="middle" x="263.25" y="-165.45" font-family="Helvetica,sans-Serif" font-weight="bold" font-size="9.00">inputs</text>
</g>
<g id="clust11" class="cluster">
<title>cluster_src/presentation/components/utils</title>
<path fill="#ffffff" stroke="black" stroke-width="2" d="M214.25,-60C214.25,-60 312.25,-60 312.25,-60 318.25,-60 324.25,-66 324.25,-72 324.25,-72 324.25,-103 324.25,-103 324.25,-109 318.25,-115 312.25,-115 312.25,-115 214.25,-115 214.25,-115 208.25,-115 202.25,-109 202.25,-103 202.25,-103 202.25,-72 202.25,-72 202.25,-66 208.25,-60 214.25,-60"/>
<text text-anchor="middle" x="263.25" y="-102.45" font-family="Helvetica,sans-Serif" font-weight="bold" font-size="9.00">utils</text>
</g>
<g id="clust12" class="cluster">
<title>cluster_src/presentation/views</title>
<path fill="#ffffff" stroke="black" stroke-width="2" d="M98,-92C98,-92 174.25,-92 174.25,-92 180.25,-92 186.25,-98 186.25,-104 186.25,-104 186.25,-166 186.25,-166 186.25,-172 180.25,-178 174.25,-178 174.25,-178 98,-178 98,-178 92,-178 86,-172 86,-166 86,-166 86,-104 86,-104 86,-98 92,-92 98,-92"/>
<text text-anchor="middle" x="136.12" y="-165.45" font-family="Helvetica,sans-Serif" font-weight="bold" font-size="9.00">views</text>
</g>
<!-- src/App.vue -->
<g id="node1" class="node">
<title>src/App.vue</title>
<g id="a_node1"><a xlink:href="src/App.vue" xlink:title="App.vue">
<path fill="#41f083" stroke="black" d="M63.58,-119.62C63.58,-119.62 22.42,-119.62 22.42,-119.62 19.21,-119.62 16,-116.42 16,-113.21 16,-113.21 16,-106.79 16,-106.79 16,-103.58 19.21,-100.38 22.42,-100.38 22.42,-100.38 63.58,-100.38 63.58,-100.38 66.79,-100.38 70,-103.58 70,-106.79 70,-106.79 70,-113.21 70,-113.21 70,-116.42 66.79,-119.62 63.58,-119.62"/>
<text text-anchor="start" x="26.88" y="-107.08" font-family="Helvetica,sans-Serif" font-size="9.00">App.vue</text>
</a>
</g>
</g>
<!-- src/presentation/components/utils/DiagnosticsPanel.vue -->
<g id="node2" class="node">
<title>src/presentation/components/utils/DiagnosticsPanel.vue</title>
<g id="a_node2"><a xlink:href="src/presentation/components/utils/DiagnosticsPanel.vue" xlink:title="DiagnosticsPanel.vue">
<path fill="#41f083" stroke="black" d="M309.83,-87.62C309.83,-87.62 216.67,-87.62 216.67,-87.62 213.46,-87.62 210.25,-84.42 210.25,-81.21 210.25,-81.21 210.25,-74.79 210.25,-74.79 210.25,-71.58 213.46,-68.38 216.67,-68.38 216.67,-68.38 309.83,-68.38 309.83,-68.38 313.04,-68.38 316.25,-71.58 316.25,-74.79 316.25,-74.79 316.25,-81.21 316.25,-81.21 316.25,-84.42 313.04,-87.62 309.83,-87.62"/>
<text text-anchor="start" x="218.25" y="-75.08" font-family="Helvetica,sans-Serif" font-size="9.00">DiagnosticsPanel.vue</text>
</a>
</g>
</g>
<!-- src/App.vue&#45;&gt;src/presentation/components/utils/DiagnosticsPanel.vue -->
<g id="edge1" class="edge">
<title>src/App.vue&#45;&gt;src/presentation/components/utils/DiagnosticsPanel.vue</title>
<path fill="none" stroke="#000000" stroke-width="2" stroke-opacity="0.200000" d="M56.82,-99.99C62.89,-95.81 70.46,-91.39 78,-89 117.74,-76.43 164.66,-73.79 201.21,-74.24"/>
<polygon fill="#000000" fill-opacity="0.200000" stroke="#000000" stroke-width="2" stroke-opacity="0.200000" points="200.72,-76.33 206.76,-74.34 200.8,-72.13 200.72,-76.33"/>
</g>
<!-- src/presentation/views/NavBar.vue -->
<g id="node3" class="node">
<title>src/presentation/views/NavBar.vue</title>
<g id="a_node3"><a xlink:href="src/presentation/views/NavBar.vue" xlink:title="NavBar.vue">
<path fill="#41f083" stroke="black" d="M160.96,-150.62C160.96,-150.62 111.29,-150.62 111.29,-150.62 108.08,-150.62 104.88,-147.42 104.88,-144.21 104.88,-144.21 104.88,-137.79 104.88,-137.79 104.88,-134.58 108.08,-131.38 111.29,-131.38 111.29,-131.38 160.96,-131.38 160.96,-131.38 164.17,-131.38 167.38,-134.58 167.38,-137.79 167.38,-137.79 167.38,-144.21 167.38,-144.21 167.38,-147.42 164.17,-150.62 160.96,-150.62"/>
<text text-anchor="start" x="112.88" y="-138.07" font-family="Helvetica,sans-Serif" font-size="9.00">NavBar.vue</text>
</a>
</g>
</g>
<!-- src/App.vue&#45;&gt;src/presentation/views/NavBar.vue -->
<g id="edge2" class="edge">
<title>src/App.vue&#45;&gt;src/presentation/views/NavBar.vue</title>
<path fill="none" stroke="#000000" stroke-width="2" stroke-opacity="0.200000" d="M63.88,-120.1C68.45,-122.21 73.34,-124.31 78,-126 83.83,-128.12 90.1,-130.07 96.27,-131.82"/>
<polygon fill="#000000" fill-opacity="0.200000" stroke="#000000" stroke-width="2" stroke-opacity="0.200000" points="95.31,-133.74 101.65,-133.28 96.41,-129.68 95.31,-133.74"/>
</g>
<!-- src/presentation/views/VideoGallery.vue -->
<g id="node4" class="node">
<title>src/presentation/views/VideoGallery.vue</title>
<g id="a_node4"><a xlink:href="src/presentation/views/VideoGallery.vue" xlink:title="VideoGallery.vue">
<path fill="#41f083" stroke="black" d="M171.83,-119.62C171.83,-119.62 100.42,-119.62 100.42,-119.62 97.21,-119.62 94,-116.42 94,-113.21 94,-113.21 94,-106.79 94,-106.79 94,-103.58 97.21,-100.38 100.42,-100.38 100.42,-100.38 171.83,-100.38 171.83,-100.38 175.04,-100.38 178.25,-103.58 178.25,-106.79 178.25,-106.79 178.25,-113.21 178.25,-113.21 178.25,-116.42 175.04,-119.62 171.83,-119.62"/>
<text text-anchor="start" x="102" y="-107.08" font-family="Helvetica,sans-Serif" font-size="9.00">VideoGallery.vue</text>
</a>
</g>
</g>
<!-- src/App.vue&#45;&gt;src/presentation/views/VideoGallery.vue -->
<g id="edge3" class="edge">
<title>src/App.vue&#45;&gt;src/presentation/views/VideoGallery.vue</title>
<path fill="none" stroke="#000000" stroke-width="2" stroke-opacity="0.200000" d="M70.36,-110C74.89,-110 79.73,-110 84.66,-110"/>
<polygon fill="#000000" fill-opacity="0.200000" stroke="#000000" stroke-width="2" stroke-opacity="0.200000" points="84.52,-112.1 90.52,-110 84.52,-107.9 84.52,-112.1"/>
</g>
<!-- src/application/stores/index.ts -->
<g id="node5" class="node">
<title>src/application/stores/index.ts</title>
<g id="a_node5"><a xlink:href="src/application/stores/index.ts" xlink:title="index.ts">
<path fill="#ddfeff" stroke="black" d="M395.83,-383.62C395.83,-383.62 354.67,-383.62 354.67,-383.62 351.46,-383.62 348.25,-380.42 348.25,-377.21 348.25,-377.21 348.25,-370.79 348.25,-370.79 348.25,-367.58 351.46,-364.38 354.67,-364.38 354.67,-364.38 395.83,-364.38 395.83,-364.38 399.04,-364.38 402.25,-367.58 402.25,-370.79 402.25,-370.79 402.25,-377.21 402.25,-377.21 402.25,-380.42 399.04,-383.62 395.83,-383.62"/>
<text text-anchor="start" x="359.5" y="-371.07" font-family="Helvetica,sans-Serif" font-size="9.00">index.ts</text>
</a>
</g>
</g>
<!-- src/presentation/components/utils/DiagnosticsPanel.vue&#45;&gt;src/application/stores/index.ts -->
<g id="edge9" class="edge">
<title>src/presentation/components/utils/DiagnosticsPanel.vue&#45;&gt;src/application/stores/index.ts</title>
<path fill="none" stroke="#000000" stroke-width="2" stroke-opacity="0.200000" d="M288.11,-88.11C301.24,-95.04 316.42,-105.59 324.25,-120 347.93,-163.57 309.11,-299.14 332.25,-343 335.58,-349.31 340.84,-354.67 346.52,-359.07"/>
<polygon fill="#000000" fill-opacity="0.200000" stroke="#000000" stroke-width="2" stroke-opacity="0.200000" points="345.21,-360.72 351.34,-362.41 347.6,-357.27 345.21,-360.72"/>
</g>
<!-- src/infrastructure/services/index.ts -->
<g id="node7" class="node">
<title>src/infrastructure/services/index.ts</title>
<g id="a_node7"><a xlink:href="src/infrastructure/services/index.ts" xlink:title="index.ts">
<path fill="#ddfeff" stroke="black" d="M395.83,-275.62C395.83,-275.62 354.67,-275.62 354.67,-275.62 351.46,-275.62 348.25,-272.42 348.25,-269.21 348.25,-269.21 348.25,-262.79 348.25,-262.79 348.25,-259.58 351.46,-256.38 354.67,-256.38 354.67,-256.38 395.83,-256.38 395.83,-256.38 399.04,-256.38 402.25,-259.58 402.25,-262.79 402.25,-262.79 402.25,-269.21 402.25,-269.21 402.25,-272.42 399.04,-275.62 395.83,-275.62"/>
<text text-anchor="start" x="359.5" y="-263.07" font-family="Helvetica,sans-Serif" font-size="9.00">index.ts</text>
</a>
</g>
</g>
<!-- src/presentation/components/utils/DiagnosticsPanel.vue&#45;&gt;src/infrastructure/services/index.ts -->
<g id="edge10" class="edge">
<title>src/presentation/components/utils/DiagnosticsPanel.vue&#45;&gt;src/infrastructure/services/index.ts</title>
<path fill="none" stroke="#000000" stroke-width="2" stroke-opacity="0.200000" d="M287.52,-88.12C300.62,-95.09 315.96,-105.7 324.25,-120 343.95,-153.98 318.46,-171.23 332.25,-208 338.05,-223.47 349.15,-238.51 358.48,-249.39"/>
<polygon fill="#000000" fill-opacity="0.200000" stroke="#000000" stroke-width="2" stroke-opacity="0.200000" points="356.71,-250.57 362.27,-253.65 359.85,-247.77 356.71,-250.57"/>
</g>
<!-- src/presentation/views/NavBar.vue&#45;&gt;src/application/stores/index.ts -->
<g id="edge11" class="edge">
<title>src/presentation/views/NavBar.vue&#45;&gt;src/application/stores/index.ts</title>
<path fill="none" stroke="#000000" stroke-width="2" stroke-opacity="0.200000" d="M138.27,-150.75C141.83,-176.79 154.88,-248.85 194.25,-291 233.78,-333.32 299.11,-355.86 339.25,-366.35"/>
<polygon fill="#000000" fill-opacity="0.200000" stroke="#000000" stroke-width="2" stroke-opacity="0.200000" points="338.63,-368.36 344.97,-367.79 339.66,-364.29 338.63,-368.36"/>
</g>
<!-- src/presentation/components/inputs/FileInput.vue -->
<g id="node10" class="node">
<title>src/presentation/components/inputs/FileInput.vue</title>
<g id="a_node10"><a xlink:href="src/presentation/components/inputs/FileInput.vue" xlink:title="FileInput.vue">
<path fill="#41f083" stroke="black" d="M290.71,-150.62C290.71,-150.62 235.79,-150.62 235.79,-150.62 232.58,-150.62 229.38,-147.42 229.38,-144.21 229.38,-144.21 229.38,-137.79 229.38,-137.79 229.38,-134.58 232.58,-131.38 235.79,-131.38 235.79,-131.38 290.71,-131.38 290.71,-131.38 293.92,-131.38 297.12,-134.58 297.12,-137.79 297.12,-137.79 297.12,-144.21 297.12,-144.21 297.12,-147.42 293.92,-150.62 290.71,-150.62"/>
<text text-anchor="start" x="237.38" y="-138.07" font-family="Helvetica,sans-Serif" font-size="9.00">FileInput.vue</text>
</a>
</g>
</g>
<!-- src/presentation/views/NavBar.vue&#45;&gt;src/presentation/components/inputs/FileInput.vue -->
<g id="edge12" class="edge">
<title>src/presentation/views/NavBar.vue&#45;&gt;src/presentation/components/inputs/FileInput.vue</title>
<path fill="none" stroke="#000000" stroke-width="2" stroke-opacity="0.200000" d="M167.73,-141C183.51,-141 202.98,-141 220.15,-141"/>
<polygon fill="#000000" fill-opacity="0.200000" stroke="#000000" stroke-width="2" stroke-opacity="0.200000" points="219.86,-143.1 225.86,-141 219.86,-138.9 219.86,-143.1"/>
</g>
<!-- src/presentation/views/VideoGallery.vue&#45;&gt;src/application/stores/index.ts -->
<g id="edge13" class="edge">
<title>src/presentation/views/VideoGallery.vue&#45;&gt;src/application/stores/index.ts</title>
<path fill="none" stroke="#000000" stroke-width="2" stroke-opacity="0.200000" d="M178.53,-118.51C181.41,-120.29 184.05,-122.43 186.25,-125 202.6,-144.1 182.13,-158.97 194.25,-181 230.87,-247.56 283.18,-228.09 324.25,-292 331.25,-302.89 326.39,-308.46 332.25,-320 339.17,-333.64 349.75,-347.21 358.56,-357.34"/>
<polygon fill="#000000" fill-opacity="0.200000" stroke="#000000" stroke-width="2" stroke-opacity="0.200000" points="357,-358.74 362.57,-361.81 360.13,-355.94 357,-358.74"/>
</g>
<!-- src/presentation/components/VideoCard.vue -->
<g id="node8" class="node">
<title>src/presentation/components/VideoCard.vue</title>
<g id="a_node8"><a xlink:href="src/presentation/components/VideoCard.vue" xlink:title="VideoCard.vue">
<path fill="#41f083" stroke="black" d="M294.83,-51.62C294.83,-51.62 231.67,-51.62 231.67,-51.62 228.46,-51.62 225.25,-48.42 225.25,-45.21 225.25,-45.21 225.25,-38.79 225.25,-38.79 225.25,-35.58 228.46,-32.38 231.67,-32.38 231.67,-32.38 294.83,-32.38 294.83,-32.38 298.04,-32.38 301.25,-35.58 301.25,-38.79 301.25,-38.79 301.25,-45.21 301.25,-45.21 301.25,-48.42 298.04,-51.62 294.83,-51.62"/>
<text text-anchor="start" x="233.25" y="-39.08" font-family="Helvetica,sans-Serif" font-size="9.00">VideoCard.vue</text>
</a>
</g>
</g>
<!-- src/presentation/views/VideoGallery.vue&#45;&gt;src/presentation/components/VideoCard.vue -->
<g id="edge14" class="edge">
<title>src/presentation/views/VideoGallery.vue&#45;&gt;src/presentation/components/VideoCard.vue</title>
<path fill="none" stroke="#000000" stroke-width="2" stroke-opacity="0.200000" d="M144.88,-100.11C154.94,-88.01 173.64,-67.8 194.25,-57 201.17,-53.37 208.93,-50.62 216.67,-48.54"/>
<polygon fill="#000000" fill-opacity="0.200000" stroke="#000000" stroke-width="2" stroke-opacity="0.200000" points="216.72,-50.68 222.06,-47.23 215.74,-46.6 216.72,-50.68"/>
</g>
<!-- src/domain/entities/index.ts -->
<g id="node6" class="node">
<title>src/domain/entities/index.ts</title>
<g id="a_node6"><a xlink:href="src/domain/entities/index.ts" xlink:title="index.ts">
<path fill="#ddfeff" stroke="black" d="M505.71,-199.62C505.71,-199.62 464.54,-199.62 464.54,-199.62 461.33,-199.62 458.12,-196.42 458.12,-193.21 458.12,-193.21 458.12,-186.79 458.12,-186.79 458.12,-183.58 461.33,-180.38 464.54,-180.38 464.54,-180.38 505.71,-180.38 505.71,-180.38 508.92,-180.38 512.12,-183.58 512.12,-186.79 512.12,-186.79 512.12,-193.21 512.12,-193.21 512.12,-196.42 508.92,-199.62 505.71,-199.62"/>
<text text-anchor="start" x="469.38" y="-187.07" font-family="Helvetica,sans-Serif" font-size="9.00">index.ts</text>
</a>
</g>
</g>
<!-- src/presentation/components/VideoCard.vue&#45;&gt;src/application/stores/index.ts -->
<g id="edge5" class="edge">
<title>src/presentation/components/VideoCard.vue&#45;&gt;src/application/stores/index.ts</title>
<path fill="none" stroke="#000000" stroke-width="2" stroke-opacity="0.200000" d="M301.46,-43.69C310.2,-45.94 318.6,-49.97 324.25,-57 344.16,-81.78 317.53,-314.82 332.25,-343 335.55,-349.33 340.8,-354.69 346.48,-359.09"/>
<polygon fill="#000000" fill-opacity="0.200000" stroke="#000000" stroke-width="2" stroke-opacity="0.200000" points="345.17,-360.74 351.3,-362.43 347.56,-357.29 345.17,-360.74"/>
</g>
<!-- src/presentation/components/VideoCard.vue&#45;&gt;src/domain/entities/index.ts -->
<g id="edge6" class="edge">
<title>src/presentation/components/VideoCard.vue&#45;&gt;src/domain/entities/index.ts</title>
<path fill="none" stroke="#000000" stroke-opacity="0.200000" d="M301.44,-43.71C310.18,-45.95 318.59,-49.98 324.25,-57 341.63,-78.54 312.36,-286.74 332.25,-306 364.78,-337.5 396.3,-330.89 434.12,-306 467.66,-283.94 478.8,-234.11 482.43,-207.51"/>
<polygon fill="none" stroke="#000000" stroke-opacity="0.200000" points="484.51,-207.77 483.15,-201.56 480.34,-207.26 484.51,-207.77"/>
</g>
<!-- src/presentation/components/VideoEmbed.vue -->
<g id="node9" class="node">
<title>src/presentation/components/VideoEmbed.vue</title>
<g id="a_node9"><a xlink:href="src/presentation/components/VideoEmbed.vue" xlink:title="VideoEmbed.vue">
<path fill="#41f083" stroke="black" d="M411.71,-114.62C411.71,-114.62 338.79,-114.62 338.79,-114.62 335.58,-114.62 332.38,-111.42 332.38,-108.21 332.38,-108.21 332.38,-101.79 332.38,-101.79 332.38,-98.58 335.58,-95.38 338.79,-95.38 338.79,-95.38 411.71,-95.38 411.71,-95.38 414.92,-95.38 418.12,-98.58 418.12,-101.79 418.12,-101.79 418.12,-108.21 418.12,-108.21 418.12,-111.42 414.92,-114.62 411.71,-114.62"/>
<text text-anchor="start" x="340.38" y="-102.08" font-family="Helvetica,sans-Serif" font-size="9.00">VideoEmbed.vue</text>
</a>
</g>
</g>
<!-- src/presentation/components/VideoCard.vue&#45;&gt;src/presentation/components/VideoEmbed.vue -->
<g id="edge4" class="edge">
<title>src/presentation/components/VideoCard.vue&#45;&gt;src/presentation/components/VideoEmbed.vue</title>
<path fill="none" stroke="#000000" stroke-width="2" stroke-opacity="0.200000" d="M301.56,-48.14C309.35,-50.28 317.3,-53.16 324.25,-57 338.45,-64.85 351.57,-77.75 360.8,-88.21"/>
<polygon fill="#000000" fill-opacity="0.200000" stroke="#000000" stroke-width="2" stroke-opacity="0.200000" points="359.09,-89.44 364.58,-92.65 362.29,-86.72 359.09,-89.44"/>
</g>
<!-- src/presentation/components/VideoEmbed.vue&#45;&gt;src/domain/entities/index.ts -->
<g id="edge7" class="edge">
<title>src/presentation/components/VideoEmbed.vue&#45;&gt;src/domain/entities/index.ts</title>
<path fill="none" stroke="#000000" stroke-opacity="0.200000" d="M389.05,-115.08C408.03,-130.04 443.73,-158.17 465.58,-175.38"/>
<polygon fill="none" stroke="#000000" stroke-opacity="0.200000" points="464.14,-176.93 470.15,-178.99 466.74,-173.63 464.14,-176.93"/>
</g>
<!-- src/presentation/components/inputs/FileInput.vue&#45;&gt;src/application/stores/index.ts -->
<g id="edge8" class="edge">
<title>src/presentation/components/inputs/FileInput.vue&#45;&gt;src/application/stores/index.ts</title>
<path fill="none" stroke="#000000" stroke-width="2" stroke-opacity="0.200000" d="M269.59,-151C281.47,-173.74 310.17,-231.36 324.25,-283 331.33,-308.96 318.56,-319.84 332.25,-343 335.88,-349.14 341.25,-354.44 346.95,-358.83"/>
<polygon fill="#000000" fill-opacity="0.200000" stroke="#000000" stroke-width="2" stroke-opacity="0.200000" points="345.63,-360.47 351.75,-362.17 348.03,-357.02 345.63,-360.47"/>
</g>
</g>
</svg>
