<?xml version="1.0" encoding="UTF-8" standalone="no"?>
<!DOCTYPE svg PUBLIC "-//W3C//DTD SVG 1.1//EN"
 "http://www.w3.org/Graphics/SVG/1.1/DTD/svg11.dtd">
<!-- Generated by graphviz version 9.0.0 (20230911.1827)
 -->
<!-- Title: dependency&#45;cruiser output Pages: 1 -->
<svg width="449pt" height="334pt"
 viewBox="0.00 0.00 449.25 334.00" xmlns="http://www.w3.org/2000/svg" xmlns:xlink="http://www.w3.org/1999/xlink">
<g id="graph0" class="graph" transform="scale(1 1) rotate(0) translate(4 330)">
<title>dependency&#45;cruiser output</title>
<polygon fill="white" stroke="none" points="-4,4 -4,-330 445.25,-330 445.25,4 -4,4"/>
<g id="clust1" class="cluster">
<title>cluster_src</title>
<path fill="#ffffff" stroke="black" stroke-width="2" d="M20,-8C20,-8 421.25,-8 421.25,-8 427.25,-8 433.25,-14 433.25,-20 433.25,-20 433.25,-306 433.25,-306 433.25,-312 427.25,-318 421.25,-318 421.25,-318 20,-318 20,-318 14,-318 8,-312 8,-306 8,-306 8,-20 8,-20 8,-14 14,-8 20,-8"/>
<text text-anchor="middle" x="220.62" y="-305.45" font-family="Helvetica,sans-Serif" font-weight="bold" font-size="9.00">src</text>
</g>
<g id="clust2" class="cluster">
<title>cluster_src/components</title>
<path fill="#ffffff" stroke="black" stroke-width="2" d="M198.25,-16C198.25,-16 413.25,-16 413.25,-16 419.25,-16 425.25,-22 425.25,-28 425.25,-28 425.25,-185 425.25,-185 425.25,-191 419.25,-197 413.25,-197 413.25,-197 198.25,-197 198.25,-197 192.25,-197 186.25,-191 186.25,-185 186.25,-185 186.25,-28 186.25,-28 186.25,-22 192.25,-16 198.25,-16"/>
<text text-anchor="middle" x="305.75" y="-184.45" font-family="Helvetica,sans-Serif" font-weight="bold" font-size="9.00">components</text>
</g>
<g id="clust4" class="cluster">
<title>cluster_src/components/utils</title>
<path fill="#ffffff" stroke="black" stroke-width="2" d="M206.25,-24C206.25,-24 304.25,-24 304.25,-24 310.25,-24 316.25,-30 316.25,-36 316.25,-36 316.25,-67 316.25,-67 316.25,-73 310.25,-79 304.25,-79 304.25,-79 206.25,-79 206.25,-79 200.25,-79 194.25,-73 194.25,-67 194.25,-67 194.25,-36 194.25,-36 194.25,-30 200.25,-24 206.25,-24"/>
<text text-anchor="middle" x="255.25" y="-66.45" font-family="Helvetica,sans-Serif" font-weight="bold" font-size="9.00">utils</text>
</g>
<g id="clust3" class="cluster">
<title>cluster_src/components/inputs</title>
<path fill="#ffffff" stroke="black" stroke-width="2" d="M225.38,-115C225.38,-115 285.12,-115 285.12,-115 291.12,-115 297.12,-121 297.12,-127 297.12,-127 297.12,-158 297.12,-158 297.12,-164 291.12,-170 285.12,-170 285.12,-170 225.38,-170 225.38,-170 219.38,-170 213.38,-164 213.38,-158 213.38,-158 213.38,-127 213.38,-127 213.38,-121 219.38,-115 225.38,-115"/>
<text text-anchor="middle" x="255.25" y="-157.45" font-family="Helvetica,sans-Serif" font-weight="bold" font-size="9.00">inputs</text>
</g>
<g id="clust6" class="cluster">
<title>cluster_src/views</title>
<path fill="#ffffff" stroke="black" stroke-width="2" d="M90,-185C90,-185 166.25,-185 166.25,-185 172.25,-185 178.25,-191 178.25,-197 178.25,-197 178.25,-259 178.25,-259 178.25,-265 172.25,-271 166.25,-271 166.25,-271 90,-271 90,-271 84,-271 78,-265 78,-259 78,-259 78,-197 78,-197 78,-191 84,-185 90,-185"/>
<text text-anchor="middle" x="128.12" y="-258.45" font-family="Helvetica,sans-Serif" font-weight="bold" font-size="9.00">views</text>
</g>
<g id="clust5" class="cluster">
<title>cluster_src/stores</title>
<path fill="#ffffff" stroke="black" stroke-width="2" d="M336.25,-205C336.25,-205 412.5,-205 412.5,-205 418.5,-205 424.5,-211 424.5,-217 424.5,-217 424.5,-279 424.5,-279 424.5,-285 418.5,-291 412.5,-291 412.5,-291 336.25,-291 336.25,-291 330.25,-291 324.25,-285 324.25,-279 324.25,-279 324.25,-217 324.25,-217 324.25,-211 330.25,-205 336.25,-205"/>
<text text-anchor="middle" x="374.38" y="-278.45" font-family="Helvetica,sans-Serif" font-weight="bold" font-size="9.00">stores</text>
</g>
<!-- src/App.vue -->
<g id="node1" class="node">
<title>src/App.vue</title>
<g id="a_node1"><a xlink:href="src/App.vue" xlink:title="App.vue">
<path fill="#41f083" stroke="black" d="M63.58,-212.62C63.58,-212.62 22.42,-212.62 22.42,-212.62 19.21,-212.62 16,-209.42 16,-206.21 16,-206.21 16,-199.79 16,-199.79 16,-196.58 19.21,-193.38 22.42,-193.38 22.42,-193.38 63.58,-193.38 63.58,-193.38 66.79,-193.38 70,-196.58 70,-199.79 70,-199.79 70,-206.21 70,-206.21 70,-209.42 66.79,-212.62 63.58,-212.62"/>
<text text-anchor="start" x="26.88" y="-200.07" font-family="Helvetica,sans-Serif" font-size="9.00">App.vue</text>
</a>
</g>
</g>
<!-- src/components/utils/DiagnosticsPanel.vue -->
<g id="node2" class="node">
<title>src/components/utils/DiagnosticsPanel.vue</title>
<g id="a_node2"><a xlink:href="src/components/utils/DiagnosticsPanel.vue" xlink:title="DiagnosticsPanel.vue">
<path fill="#41f083" stroke="black" d="M301.83,-51.62C301.83,-51.62 208.67,-51.62 208.67,-51.62 205.46,-51.62 202.25,-48.42 202.25,-45.21 202.25,-45.21 202.25,-38.79 202.25,-38.79 202.25,-35.58 205.46,-32.38 208.67,-32.38 208.67,-32.38 301.83,-32.38 301.83,-32.38 305.04,-32.38 308.25,-35.58 308.25,-38.79 308.25,-38.79 308.25,-45.21 308.25,-45.21 308.25,-48.42 305.04,-51.62 301.83,-51.62"/>
<text text-anchor="start" x="210.25" y="-39.08" font-family="Helvetica,sans-Serif" font-size="9.00">DiagnosticsPanel.vue</text>
</a>
</g>
</g>
<!-- src/App.vue&#45;&gt;src/components/utils/DiagnosticsPanel.vue -->
<g id="edge1" class="edge">
<title>src/App.vue&#45;&gt;src/components/utils/DiagnosticsPanel.vue</title>
<path fill="none" stroke="#000000" stroke-width="2" stroke-opacity="0.200000" d="M50.3,-193.19C68.07,-166.38 121.51,-91.57 186.25,-56 188.68,-54.67 191.22,-53.46 193.84,-52.36"/>
<polygon fill="#000000" fill-opacity="0.200000" stroke="#000000" stroke-width="2" stroke-opacity="0.200000" points="194.11,-54.5 199.02,-50.46 192.66,-50.56 194.11,-54.5"/>
</g>
<!-- src/views/NavBar.vue -->
<g id="node3" class="node">
<title>src/views/NavBar.vue</title>
<g id="a_node3"><a xlink:href="src/views/NavBar.vue" xlink:title="NavBar.vue">
<path fill="#41f083" stroke="black" d="M152.96,-243.62C152.96,-243.62 103.29,-243.62 103.29,-243.62 100.08,-243.62 96.88,-240.42 96.88,-237.21 96.88,-237.21 96.88,-230.79 96.88,-230.79 96.88,-227.58 100.08,-224.38 103.29,-224.38 103.29,-224.38 152.96,-224.38 152.96,-224.38 156.17,-224.38 159.38,-227.58 159.38,-230.79 159.38,-230.79 159.38,-237.21 159.38,-237.21 159.38,-240.42 156.17,-243.62 152.96,-243.62"/>
<text text-anchor="start" x="104.88" y="-231.07" font-family="Helvetica,sans-Serif" font-size="9.00">NavBar.vue</text>
</a>
</g>
</g>
<!-- src/App.vue&#45;&gt;src/views/NavBar.vue -->
<g id="edge2" class="edge">
<title>src/App.vue&#45;&gt;src/views/NavBar.vue</title>
<path fill="none" stroke="#000000" stroke-width="2" stroke-opacity="0.200000" d="M63.93,-212.96C68.5,-215.08 73.37,-217.22 78,-219 81.23,-220.25 84.61,-221.46 88.02,-222.62"/>
<polygon fill="#000000" fill-opacity="0.200000" stroke="#000000" stroke-width="2" stroke-opacity="0.200000" points="87.26,-224.58 93.62,-224.45 88.57,-220.59 87.26,-224.58"/>
</g>
<!-- src/views/VideoGallery.vue -->
<g id="node4" class="node">
<title>src/views/VideoGallery.vue</title>
<g id="a_node4"><a xlink:href="src/views/VideoGallery.vue" xlink:title="VideoGallery.vue">
<path fill="#41f083" stroke="black" d="M163.83,-212.62C163.83,-212.62 92.42,-212.62 92.42,-212.62 89.21,-212.62 86,-209.42 86,-206.21 86,-206.21 86,-199.79 86,-199.79 86,-196.58 89.21,-193.38 92.42,-193.38 92.42,-193.38 163.83,-193.38 163.83,-193.38 167.04,-193.38 170.25,-196.58 170.25,-199.79 170.25,-199.79 170.25,-206.21 170.25,-206.21 170.25,-209.42 167.04,-212.62 163.83,-212.62"/>
<text text-anchor="start" x="94" y="-200.07" font-family="Helvetica,sans-Serif" font-size="9.00">VideoGallery.vue</text>
</a>
</g>
</g>
<!-- src/App.vue&#45;&gt;src/views/VideoGallery.vue -->
<g id="edge3" class="edge">
<title>src/App.vue&#45;&gt;src/views/VideoGallery.vue</title>
<path fill="none" stroke="#000000" stroke-width="2" stroke-opacity="0.200000" d="M70.3,-203C72.42,-203 74.61,-203 76.83,-203"/>
<polygon fill="#000000" fill-opacity="0.200000" stroke="#000000" stroke-width="2" stroke-opacity="0.200000" points="76.47,-205.1 82.47,-203 76.47,-200.9 76.47,-205.1"/>
</g>
<!-- src/stores/appStateStore.ts -->
<g id="node9" class="node">
<title>src/stores/appStateStore.ts</title>
<g id="a_node9"><a xlink:href="src/stores/appStateStore.ts" xlink:title="appStateStore.ts">
<path fill="#ddfeff" stroke="black" d="M410.08,-263.62C410.08,-263.62 338.67,-263.62 338.67,-263.62 335.46,-263.62 332.25,-260.42 332.25,-257.21 332.25,-257.21 332.25,-250.79 332.25,-250.79 332.25,-247.58 335.46,-244.38 338.67,-244.38 338.67,-244.38 410.08,-244.38 410.08,-244.38 413.29,-244.38 416.5,-247.58 416.5,-250.79 416.5,-250.79 416.5,-257.21 416.5,-257.21 416.5,-260.42 413.29,-263.62 410.08,-263.62"/>
<text text-anchor="start" x="340.25" y="-251.07" font-family="Helvetica,sans-Serif" font-size="9.00">appStateStore.ts</text>
</a>
</g>
</g>
<!-- src/components/utils/DiagnosticsPanel.vue&#45;&gt;src/stores/appStateStore.ts -->
<g id="edge7" class="edge">
<title>src/components/utils/DiagnosticsPanel.vue&#45;&gt;src/stores/appStateStore.ts</title>
<path fill="none" stroke="#000000" stroke-width="2" stroke-opacity="0.200000" d="M308.65,-49.35C311.49,-51.17 314.06,-53.37 316.25,-56 329.25,-71.66 311.79,-222.91 324.25,-239 324.66,-239.53 325.09,-240.04 325.53,-240.53"/>
<polygon fill="#000000" fill-opacity="0.200000" stroke="#000000" stroke-width="2" stroke-opacity="0.200000" points="323.85,-241.86 329.81,-244.08 326.53,-238.63 323.85,-241.86"/>
</g>
<!-- src/stores/videosStore.ts -->
<g id="node7" class="node">
<title>src/stores/videosStore.ts</title>
<g id="a_node7"><a xlink:href="src/stores/videosStore.ts" xlink:title="videosStore.ts">
<path fill="#ddfeff" stroke="black" d="M405.21,-232.62C405.21,-232.62 343.54,-232.62 343.54,-232.62 340.33,-232.62 337.12,-229.42 337.12,-226.21 337.12,-226.21 337.12,-219.79 337.12,-219.79 337.12,-216.58 340.33,-213.38 343.54,-213.38 343.54,-213.38 405.21,-213.38 405.21,-213.38 408.42,-213.38 411.62,-216.58 411.62,-219.79 411.62,-219.79 411.62,-226.21 411.62,-226.21 411.62,-229.42 408.42,-232.62 405.21,-232.62"/>
<text text-anchor="start" x="345.12" y="-220.07" font-family="Helvetica,sans-Serif" font-size="9.00">videosStore.ts</text>
</a>
</g>
</g>
<!-- src/views/NavBar.vue&#45;&gt;src/stores/videosStore.ts -->
<g id="edge10" class="edge">
<title>src/views/NavBar.vue&#45;&gt;src/stores/videosStore.ts</title>
<path fill="none" stroke="#000000" stroke-width="2" stroke-opacity="0.200000" d="M159.57,-232.63C201.94,-230.72 279.03,-227.25 328.14,-225.04"/>
<polygon fill="#000000" fill-opacity="0.200000" stroke="#000000" stroke-width="2" stroke-opacity="0.200000" points="328.05,-227.14 333.95,-224.78 327.86,-222.95 328.05,-227.14"/>
</g>
<!-- src/components/inputs/FileInput.vue -->
<g id="node8" class="node">
<title>src/components/inputs/FileInput.vue</title>
<g id="a_node8"><a xlink:href="src/components/inputs/FileInput.vue" xlink:title="FileInput.vue">
<path fill="#41f083" stroke="black" d="M282.71,-142.62C282.71,-142.62 227.79,-142.62 227.79,-142.62 224.58,-142.62 221.38,-139.42 221.38,-136.21 221.38,-136.21 221.38,-129.79 221.38,-129.79 221.38,-126.58 224.58,-123.38 227.79,-123.38 227.79,-123.38 282.71,-123.38 282.71,-123.38 285.92,-123.38 289.12,-126.58 289.12,-129.79 289.12,-129.79 289.12,-136.21 289.12,-136.21 289.12,-139.42 285.92,-142.62 282.71,-142.62"/>
<text text-anchor="start" x="229.38" y="-130.07" font-family="Helvetica,sans-Serif" font-size="9.00">FileInput.vue</text>
</a>
</g>
</g>
<!-- src/views/NavBar.vue&#45;&gt;src/components/inputs/FileInput.vue -->
<g id="edge8" class="edge">
<title>src/views/NavBar.vue&#45;&gt;src/components/inputs/FileInput.vue</title>
<path fill="none" stroke="#000000" stroke-width="2" stroke-opacity="0.200000" d="M159.64,-227.53C166.08,-225.4 172.63,-222.62 178.25,-219 206.23,-201 230.05,-169.89 243.22,-150.43"/>
<polygon fill="#000000" fill-opacity="0.200000" stroke="#000000" stroke-width="2" stroke-opacity="0.200000" points="244.83,-151.81 246.38,-145.64 241.33,-149.5 244.83,-151.81"/>
</g>
<!-- src/views/NavBar.vue&#45;&gt;src/stores/appStateStore.ts -->
<g id="edge9" class="edge">
<title>src/views/NavBar.vue&#45;&gt;src/stores/appStateStore.ts</title>
<path fill="none" stroke="#000000" stroke-width="2" stroke-opacity="0.200000" d="M159.57,-236.49C200.5,-239.84 273.81,-245.85 323.02,-249.88"/>
<polygon fill="#000000" fill-opacity="0.200000" stroke="#000000" stroke-width="2" stroke-opacity="0.200000" points="322.75,-251.96 328.9,-250.36 323.09,-247.78 322.75,-251.96"/>
</g>
<!-- src/components/VideoCard.vue -->
<g id="node5" class="node">
<title>src/components/VideoCard.vue</title>
<g id="a_node5"><a xlink:href="src/components/VideoCard.vue" xlink:title="VideoCard.vue">
<path fill="#41f083" stroke="black" d="M286.83,-106.62C286.83,-106.62 223.67,-106.62 223.67,-106.62 220.46,-106.62 217.25,-103.42 217.25,-100.21 217.25,-100.21 217.25,-93.79 217.25,-93.79 217.25,-90.58 220.46,-87.38 223.67,-87.38 223.67,-87.38 286.83,-87.38 286.83,-87.38 290.04,-87.38 293.25,-90.58 293.25,-93.79 293.25,-93.79 293.25,-100.21 293.25,-100.21 293.25,-103.42 290.04,-106.62 286.83,-106.62"/>
<text text-anchor="start" x="225.25" y="-94.08" font-family="Helvetica,sans-Serif" font-size="9.00">VideoCard.vue</text>
</a>
</g>
</g>
<!-- src/views/VideoGallery.vue&#45;&gt;src/components/VideoCard.vue -->
<g id="edge11" class="edge">
<title>src/views/VideoGallery.vue&#45;&gt;src/components/VideoCard.vue</title>
<path fill="none" stroke="#000000" stroke-width="2" stroke-opacity="0.200000" d="M170.61,-195.45C173.48,-193.7 176.08,-191.58 178.25,-189 200.37,-162.65 163.34,-137.67 186.25,-112 191.99,-105.57 199.8,-101.56 208.08,-99.12"/>
<polygon fill="#000000" fill-opacity="0.200000" stroke="#000000" stroke-width="2" stroke-opacity="0.200000" points="208.5,-101.18 213.87,-97.79 207.55,-97.09 208.5,-101.18"/>
</g>
<!-- src/views/VideoGallery.vue&#45;&gt;src/stores/videosStore.ts -->
<g id="edge13" class="edge">
<title>src/views/VideoGallery.vue&#45;&gt;src/stores/videosStore.ts</title>
<path fill="none" stroke="#000000" stroke-width="2" stroke-opacity="0.200000" d="M170.43,-205.24C208.38,-207.45 266.17,-211.2 316.25,-216 320.1,-216.37 324.1,-216.79 328.1,-217.23"/>
<polygon fill="#000000" fill-opacity="0.200000" stroke="#000000" stroke-width="2" stroke-opacity="0.200000" points="327.63,-219.29 333.83,-217.89 328.11,-215.12 327.63,-219.29"/>
</g>
<!-- src/views/VideoGallery.vue&#45;&gt;src/stores/appStateStore.ts -->
<g id="edge12" class="edge">
<title>src/views/VideoGallery.vue&#45;&gt;src/stores/appStateStore.ts</title>
<path fill="none" stroke="#000000" stroke-width="2" stroke-opacity="0.200000" d="M170.57,-211.98C175.84,-213.04 181.17,-214.08 186.25,-215 243.76,-225.46 260.55,-217.27 316.25,-235 320.04,-236.21 320.56,-237.53 324.25,-239 325.86,-239.64 327.52,-240.28 329.2,-240.9"/>
<polygon fill="#000000" fill-opacity="0.200000" stroke="#000000" stroke-width="2" stroke-opacity="0.200000" points="328.5,-242.88 334.85,-242.88 329.89,-238.92 328.5,-242.88"/>
</g>
<!-- src/components/VideoEmbed.vue -->
<g id="node6" class="node">
<title>src/components/VideoEmbed.vue</title>
<g id="a_node6"><a xlink:href="src/components/VideoEmbed.vue" xlink:title="VideoEmbed.vue">
<path fill="#41f083" stroke="black" d="M410.83,-106.62C410.83,-106.62 337.92,-106.62 337.92,-106.62 334.71,-106.62 331.5,-103.42 331.5,-100.21 331.5,-100.21 331.5,-93.79 331.5,-93.79 331.5,-90.58 334.71,-87.38 337.92,-87.38 337.92,-87.38 410.83,-87.38 410.83,-87.38 414.04,-87.38 417.25,-90.58 417.25,-93.79 417.25,-93.79 417.25,-100.21 417.25,-100.21 417.25,-103.42 414.04,-106.62 410.83,-106.62"/>
<text text-anchor="start" x="339.5" y="-94.08" font-family="Helvetica,sans-Serif" font-size="9.00">VideoEmbed.vue</text>
</a>
</g>
</g>
<!-- src/components/VideoCard.vue&#45;&gt;src/components/VideoEmbed.vue -->
<g id="edge4" class="edge">
<title>src/components/VideoCard.vue&#45;&gt;src/components/VideoEmbed.vue</title>
<path fill="none" stroke="#000000" stroke-width="2" stroke-opacity="0.200000" d="M293.63,-97C302.75,-97 312.67,-97 322.31,-97"/>
<polygon fill="#000000" fill-opacity="0.200000" stroke="#000000" stroke-width="2" stroke-opacity="0.200000" points="322.03,-99.1 328.03,-97 322.03,-94.9 322.03,-99.1"/>
</g>
<!-- src/components/VideoCard.vue&#45;&gt;src/stores/videosStore.ts -->
<g id="edge5" class="edge">
<title>src/components/VideoCard.vue&#45;&gt;src/stores/videosStore.ts</title>
<path fill="none" stroke="#000000" stroke-width="2" stroke-opacity="0.200000" d="M293.48,-99.02C302.11,-101.27 310.45,-105.23 316.25,-112 329.02,-126.91 312.97,-183.93 324.25,-200 326.44,-203.12 329.17,-205.83 332.21,-208.18"/>
<polygon fill="#000000" fill-opacity="0.200000" stroke="#000000" stroke-width="2" stroke-opacity="0.200000" points="331.03,-209.92 337.21,-211.4 333.3,-206.39 331.03,-209.92"/>
</g>
<!-- src/components/inputs/FileInput.vue&#45;&gt;src/stores/videosStore.ts -->
<g id="edge6" class="edge">
<title>src/components/inputs/FileInput.vue&#45;&gt;src/stores/videosStore.ts</title>
<path fill="none" stroke="#000000" stroke-width="2" stroke-opacity="0.200000" d="M264.2,-142.7C276.09,-156.76 299.76,-182.96 324.25,-200 329.08,-203.36 334.48,-206.45 339.88,-209.2"/>
<polygon fill="#000000" fill-opacity="0.200000" stroke="#000000" stroke-width="2" stroke-opacity="0.200000" points="338.69,-210.96 345.01,-211.67 340.51,-207.18 338.69,-210.96"/>
</g>
</g>
</svg>
