<?xml version="1.0" encoding="UTF-8" standalone="no"?>
<!DOCTYPE svg PUBLIC "-//W3C//DTD SVG 1.1//EN"
 "http://www.w3.org/Graphics/SVG/1.1/DTD/svg11.dtd">
<!-- Generated by graphviz version 9.0.0 (20230911.1827)
 -->
<!-- Title: dependency&#45;cruiser output Pages: 1 -->
<svg width="527pt" height="334pt"
 viewBox="0.00 0.00 527.25 334.00" xmlns="http://www.w3.org/2000/svg" xmlns:xlink="http://www.w3.org/1999/xlink">
<g id="graph0" class="graph" transform="scale(1 1) rotate(0) translate(4 330)">
<title>dependency&#45;cruiser output</title>
<polygon fill="white" stroke="none" points="-4,4 -4,-330 523.25,-330 523.25,4 -4,4"/>
<g id="clust1" class="cluster">
<title>cluster_src</title>
<path fill="#ffffff" stroke="black" stroke-width="2" d="M20,-8C20,-8 499.25,-8 499.25,-8 505.25,-8 511.25,-14 511.25,-20 511.25,-20 511.25,-306 511.25,-306 511.25,-312 505.25,-318 499.25,-318 499.25,-318 20,-318 20,-318 14,-318 8,-312 8,-306 8,-306 8,-20 8,-20 8,-14 14,-8 20,-8"/>
<text text-anchor="middle" x="259.62" y="-305.45" font-family="Helvetica,sans-Serif" font-weight="bold" font-size="9.00">src</text>
</g>
<g id="clust2" class="cluster">
<title>cluster_src/application</title>
<path fill="#ffffff" stroke="black" stroke-width="2" d="M445.25,-160C445.25,-160 491.25,-160 491.25,-160 497.25,-160 503.25,-166 503.25,-172 503.25,-172 503.25,-203 503.25,-203 503.25,-209 497.25,-215 491.25,-215 491.25,-215 445.25,-215 445.25,-215 439.25,-215 433.25,-209 433.25,-203 433.25,-203 433.25,-172 433.25,-172 433.25,-166 439.25,-160 445.25,-160"/>
<text text-anchor="middle" x="468.25" y="-202.45" font-family="Helvetica,sans-Serif" font-weight="bold" font-size="9.00">application</text>
</g>
<g id="clust3" class="cluster">
<title>cluster_src/components</title>
<path fill="#ffffff" stroke="black" stroke-width="2" d="M198.25,-16C198.25,-16 413.25,-16 413.25,-16 419.25,-16 425.25,-22 425.25,-28 425.25,-28 425.25,-185 425.25,-185 425.25,-191 419.25,-197 413.25,-197 413.25,-197 198.25,-197 198.25,-197 192.25,-197 186.25,-191 186.25,-185 186.25,-185 186.25,-28 186.25,-28 186.25,-22 192.25,-16 198.25,-16"/>
<text text-anchor="middle" x="305.75" y="-184.45" font-family="Helvetica,sans-Serif" font-weight="bold" font-size="9.00">components</text>
</g>
<g id="clust5" class="cluster">
<title>cluster_src/components/utils</title>
<path fill="#ffffff" stroke="black" stroke-width="2" d="M206.25,-115C206.25,-115 304.25,-115 304.25,-115 310.25,-115 316.25,-121 316.25,-127 316.25,-127 316.25,-158 316.25,-158 316.25,-164 310.25,-170 304.25,-170 304.25,-170 206.25,-170 206.25,-170 200.25,-170 194.25,-164 194.25,-158 194.25,-158 194.25,-127 194.25,-127 194.25,-121 200.25,-115 206.25,-115"/>
<text text-anchor="middle" x="255.25" y="-157.45" font-family="Helvetica,sans-Serif" font-weight="bold" font-size="9.00">utils</text>
</g>
<g id="clust4" class="cluster">
<title>cluster_src/components/inputs</title>
<path fill="#ffffff" stroke="black" stroke-width="2" d="M213,-52C213,-52 297.5,-52 297.5,-52 303.5,-52 309.5,-58 309.5,-64 309.5,-64 309.5,-95 309.5,-95 309.5,-101 303.5,-107 297.5,-107 297.5,-107 213,-107 213,-107 207,-107 201,-101 201,-95 201,-95 201,-64 201,-64 201,-58 207,-52 213,-52"/>
<text text-anchor="middle" x="255.25" y="-94.45" font-family="Helvetica,sans-Serif" font-weight="bold" font-size="9.00">inputs</text>
</g>
<g id="clust7" class="cluster">
<title>cluster_src/views</title>
<path fill="#ffffff" stroke="black" stroke-width="2" d="M90,-164C90,-164 166.25,-164 166.25,-164 172.25,-164 178.25,-170 178.25,-176 178.25,-176 178.25,-238 178.25,-238 178.25,-244 172.25,-250 166.25,-250 166.25,-250 90,-250 90,-250 84,-250 78,-244 78,-238 78,-238 78,-176 78,-176 78,-170 84,-164 90,-164"/>
<text text-anchor="middle" x="128.12" y="-237.45" font-family="Helvetica,sans-Serif" font-weight="bold" font-size="9.00">views</text>
</g>
<g id="clust6" class="cluster">
<title>cluster_src/stores</title>
<path fill="#ffffff" stroke="black" stroke-width="2" d="M336.25,-205C336.25,-205 412.5,-205 412.5,-205 418.5,-205 424.5,-211 424.5,-217 424.5,-217 424.5,-279 424.5,-279 424.5,-285 418.5,-291 412.5,-291 412.5,-291 336.25,-291 336.25,-291 330.25,-291 324.25,-285 324.25,-279 324.25,-279 324.25,-217 324.25,-217 324.25,-211 330.25,-205 336.25,-205"/>
<text text-anchor="middle" x="374.38" y="-278.45" font-family="Helvetica,sans-Serif" font-weight="bold" font-size="9.00">stores</text>
</g>
<!-- src/App.vue -->
<g id="node1" class="node">
<title>src/App.vue</title>
<g id="a_node1"><a xlink:href="src/App.vue" xlink:title="App.vue">
<path fill="#41f083" stroke="black" d="M63.58,-191.62C63.58,-191.62 22.42,-191.62 22.42,-191.62 19.21,-191.62 16,-188.42 16,-185.21 16,-185.21 16,-178.79 16,-178.79 16,-175.58 19.21,-172.38 22.42,-172.38 22.42,-172.38 63.58,-172.38 63.58,-172.38 66.79,-172.38 70,-175.58 70,-178.79 70,-178.79 70,-185.21 70,-185.21 70,-188.42 66.79,-191.62 63.58,-191.62"/>
<text text-anchor="start" x="26.88" y="-179.07" font-family="Helvetica,sans-Serif" font-size="9.00">App.vue</text>
</a>
</g>
</g>
<!-- src/components/utils/DiagnosticsPanel.vue -->
<g id="node2" class="node">
<title>src/components/utils/DiagnosticsPanel.vue</title>
<g id="a_node2"><a xlink:href="src/components/utils/DiagnosticsPanel.vue" xlink:title="DiagnosticsPanel.vue">
<path fill="#41f083" stroke="black" d="M301.83,-142.62C301.83,-142.62 208.67,-142.62 208.67,-142.62 205.46,-142.62 202.25,-139.42 202.25,-136.21 202.25,-136.21 202.25,-129.79 202.25,-129.79 202.25,-126.58 205.46,-123.38 208.67,-123.38 208.67,-123.38 301.83,-123.38 301.83,-123.38 305.04,-123.38 308.25,-126.58 308.25,-129.79 308.25,-129.79 308.25,-136.21 308.25,-136.21 308.25,-139.42 305.04,-142.62 301.83,-142.62"/>
<text text-anchor="start" x="210.25" y="-130.07" font-family="Helvetica,sans-Serif" font-size="9.00">DiagnosticsPanel.vue</text>
</a>
</g>
</g>
<!-- src/App.vue&#45;&gt;src/components/utils/DiagnosticsPanel.vue -->
<g id="edge1" class="edge">
<title>src/App.vue&#45;&gt;src/components/utils/DiagnosticsPanel.vue</title>
<path fill="none" stroke="#000000" stroke-width="2" stroke-opacity="0.200000" d="M57.58,-171.89C63.56,-167.91 70.85,-163.66 78,-161 114.95,-147.28 158.7,-140.29 193.37,-136.72"/>
<polygon fill="#000000" fill-opacity="0.200000" stroke="#000000" stroke-width="2" stroke-opacity="0.200000" points="193.2,-138.84 198.97,-136.17 192.79,-134.66 193.2,-138.84"/>
</g>
<!-- src/views/NavBar.vue -->
<g id="node3" class="node">
<title>src/views/NavBar.vue</title>
<g id="a_node3"><a xlink:href="src/views/NavBar.vue" xlink:title="NavBar.vue">
<path fill="#41f083" stroke="black" d="M152.96,-222.62C152.96,-222.62 103.29,-222.62 103.29,-222.62 100.08,-222.62 96.88,-219.42 96.88,-216.21 96.88,-216.21 96.88,-209.79 96.88,-209.79 96.88,-206.58 100.08,-203.38 103.29,-203.38 103.29,-203.38 152.96,-203.38 152.96,-203.38 156.17,-203.38 159.38,-206.58 159.38,-209.79 159.38,-209.79 159.38,-216.21 159.38,-216.21 159.38,-219.42 156.17,-222.62 152.96,-222.62"/>
<text text-anchor="start" x="104.88" y="-210.07" font-family="Helvetica,sans-Serif" font-size="9.00">NavBar.vue</text>
</a>
</g>
</g>
<!-- src/App.vue&#45;&gt;src/views/NavBar.vue -->
<g id="edge2" class="edge">
<title>src/App.vue&#45;&gt;src/views/NavBar.vue</title>
<path fill="none" stroke="#000000" stroke-width="2" stroke-opacity="0.200000" d="M63.93,-191.96C68.5,-194.08 73.37,-196.22 78,-198 81.23,-199.25 84.61,-200.46 88.02,-201.62"/>
<polygon fill="#000000" fill-opacity="0.200000" stroke="#000000" stroke-width="2" stroke-opacity="0.200000" points="87.26,-203.58 93.62,-203.45 88.57,-199.59 87.26,-203.58"/>
</g>
<!-- src/views/VideoGallery.vue -->
<g id="node4" class="node">
<title>src/views/VideoGallery.vue</title>
<g id="a_node4"><a xlink:href="src/views/VideoGallery.vue" xlink:title="VideoGallery.vue">
<path fill="#41f083" stroke="black" d="M163.83,-191.62C163.83,-191.62 92.42,-191.62 92.42,-191.62 89.21,-191.62 86,-188.42 86,-185.21 86,-185.21 86,-178.79 86,-178.79 86,-175.58 89.21,-172.38 92.42,-172.38 92.42,-172.38 163.83,-172.38 163.83,-172.38 167.04,-172.38 170.25,-175.58 170.25,-178.79 170.25,-178.79 170.25,-185.21 170.25,-185.21 170.25,-188.42 167.04,-191.62 163.83,-191.62"/>
<text text-anchor="start" x="94" y="-179.07" font-family="Helvetica,sans-Serif" font-size="9.00">VideoGallery.vue</text>
</a>
</g>
</g>
<!-- src/App.vue&#45;&gt;src/views/VideoGallery.vue -->
<g id="edge3" class="edge">
<title>src/App.vue&#45;&gt;src/views/VideoGallery.vue</title>
<path fill="none" stroke="#000000" stroke-width="2" stroke-opacity="0.200000" d="M70.3,-182C72.42,-182 74.61,-182 76.83,-182"/>
<polygon fill="#000000" fill-opacity="0.200000" stroke="#000000" stroke-width="2" stroke-opacity="0.200000" points="76.47,-184.1 82.47,-182 76.47,-179.9 76.47,-184.1"/>
</g>
<!-- src/stores/appStateStore.ts -->
<g id="node10" class="node">
<title>src/stores/appStateStore.ts</title>
<g id="a_node10"><a xlink:href="src/stores/appStateStore.ts" xlink:title="appStateStore.ts">
<path fill="#ddfeff" stroke="black" d="M410.08,-263.62C410.08,-263.62 338.67,-263.62 338.67,-263.62 335.46,-263.62 332.25,-260.42 332.25,-257.21 332.25,-257.21 332.25,-250.79 332.25,-250.79 332.25,-247.58 335.46,-244.38 338.67,-244.38 338.67,-244.38 410.08,-244.38 410.08,-244.38 413.29,-244.38 416.5,-247.58 416.5,-250.79 416.5,-250.79 416.5,-257.21 416.5,-257.21 416.5,-260.42 413.29,-263.62 410.08,-263.62"/>
<text text-anchor="start" x="340.25" y="-251.07" font-family="Helvetica,sans-Serif" font-size="9.00">appStateStore.ts</text>
</a>
</g>
</g>
<!-- src/components/utils/DiagnosticsPanel.vue&#45;&gt;src/stores/appStateStore.ts -->
<g id="edge8" class="edge">
<title>src/components/utils/DiagnosticsPanel.vue&#45;&gt;src/stores/appStateStore.ts</title>
<path fill="none" stroke="#000000" stroke-width="2" stroke-opacity="0.200000" d="M259.83,-142.83C267.94,-163.74 289.74,-212.86 324.25,-239 324.57,-239.24 324.89,-239.48 325.22,-239.72"/>
<polygon fill="#000000" fill-opacity="0.200000" stroke="#000000" stroke-width="2" stroke-opacity="0.200000" points="323.73,-241.27 329.96,-242.55 325.89,-237.67 323.73,-241.27"/>
</g>
<!-- src/stores/videosStore.ts -->
<g id="node8" class="node">
<title>src/stores/videosStore.ts</title>
<g id="a_node8"><a xlink:href="src/stores/videosStore.ts" xlink:title="videosStore.ts">
<path fill="#ddfeff" stroke="black" d="M405.21,-232.62C405.21,-232.62 343.54,-232.62 343.54,-232.62 340.33,-232.62 337.12,-229.42 337.12,-226.21 337.12,-226.21 337.12,-219.79 337.12,-219.79 337.12,-216.58 340.33,-213.38 343.54,-213.38 343.54,-213.38 405.21,-213.38 405.21,-213.38 408.42,-213.38 411.62,-216.58 411.62,-219.79 411.62,-219.79 411.62,-226.21 411.62,-226.21 411.62,-229.42 408.42,-232.62 405.21,-232.62"/>
<text text-anchor="start" x="345.12" y="-220.07" font-family="Helvetica,sans-Serif" font-size="9.00">videosStore.ts</text>
</a>
</g>
</g>
<!-- src/views/NavBar.vue&#45;&gt;src/stores/videosStore.ts -->
<g id="edge12" class="edge">
<title>src/views/NavBar.vue&#45;&gt;src/stores/videosStore.ts</title>
<path fill="none" stroke="#000000" stroke-width="2" stroke-opacity="0.200000" d="M159.57,-214.25C201.94,-215.98 279.03,-219.14 328.14,-221.15"/>
<polygon fill="#000000" fill-opacity="0.200000" stroke="#000000" stroke-width="2" stroke-opacity="0.200000" points="327.87,-223.24 333.95,-221.39 328.04,-219.04 327.87,-223.24"/>
</g>
<!-- src/components/inputs/FolderSelector.vue -->
<g id="node9" class="node">
<title>src/components/inputs/FolderSelector.vue</title>
<g id="a_node9"><a xlink:href="src/components/inputs/FolderSelector.vue" xlink:title="FolderSelector.vue">
<path fill="#41f083" stroke="black" d="M295.08,-79.62C295.08,-79.62 215.42,-79.62 215.42,-79.62 212.21,-79.62 209,-76.42 209,-73.21 209,-73.21 209,-66.79 209,-66.79 209,-63.58 212.21,-60.38 215.42,-60.38 215.42,-60.38 295.08,-60.38 295.08,-60.38 298.29,-60.38 301.5,-63.58 301.5,-66.79 301.5,-66.79 301.5,-73.21 301.5,-73.21 301.5,-76.42 298.29,-79.62 295.08,-79.62"/>
<text text-anchor="start" x="217" y="-67.08" font-family="Helvetica,sans-Serif" font-size="9.00">FolderSelector.vue</text>
</a>
</g>
</g>
<!-- src/views/NavBar.vue&#45;&gt;src/components/inputs/FolderSelector.vue -->
<g id="edge10" class="edge">
<title>src/views/NavBar.vue&#45;&gt;src/components/inputs/FolderSelector.vue</title>
<path fill="none" stroke="#000000" stroke-width="2" stroke-opacity="0.200000" d="M159.7,-209.57C166.77,-207.33 173.58,-203.74 178.25,-198 190.37,-183.12 176.13,-128.31 186.25,-112 193.81,-99.81 206.35,-90.62 218.62,-83.99"/>
<polygon fill="#000000" fill-opacity="0.200000" stroke="#000000" stroke-width="2" stroke-opacity="0.200000" points="219.45,-85.92 223.88,-81.35 217.57,-82.16 219.45,-85.92"/>
</g>
<!-- src/views/NavBar.vue&#45;&gt;src/stores/appStateStore.ts -->
<g id="edge11" class="edge">
<title>src/views/NavBar.vue&#45;&gt;src/stores/appStateStore.ts</title>
<path fill="none" stroke="#000000" stroke-width="2" stroke-opacity="0.200000" d="M159.57,-218.11C200.5,-224.98 273.81,-237.29 323.02,-245.55"/>
<polygon fill="#000000" fill-opacity="0.200000" stroke="#000000" stroke-width="2" stroke-opacity="0.200000" points="322.67,-247.62 328.93,-246.54 323.36,-243.48 322.67,-247.62"/>
</g>
<!-- src/components/VideoCard.vue -->
<g id="node6" class="node">
<title>src/components/VideoCard.vue</title>
<g id="a_node6"><a xlink:href="src/components/VideoCard.vue" xlink:title="VideoCard.vue">
<path fill="#41f083" stroke="black" d="M286.83,-43.62C286.83,-43.62 223.67,-43.62 223.67,-43.62 220.46,-43.62 217.25,-40.42 217.25,-37.21 217.25,-37.21 217.25,-30.79 217.25,-30.79 217.25,-27.58 220.46,-24.38 223.67,-24.38 223.67,-24.38 286.83,-24.38 286.83,-24.38 290.04,-24.38 293.25,-27.58 293.25,-30.79 293.25,-30.79 293.25,-37.21 293.25,-37.21 293.25,-40.42 290.04,-43.62 286.83,-43.62"/>
<text text-anchor="start" x="225.25" y="-31.07" font-family="Helvetica,sans-Serif" font-size="9.00">VideoCard.vue</text>
</a>
</g>
</g>
<!-- src/views/VideoGallery.vue&#45;&gt;src/components/VideoCard.vue -->
<g id="edge13" class="edge">
<title>src/views/VideoGallery.vue&#45;&gt;src/components/VideoCard.vue</title>
<path fill="none" stroke="#000000" stroke-width="2" stroke-opacity="0.200000" d="M130.3,-172.18C133.8,-147.37 146.55,-81.84 186.25,-49 192.54,-43.79 200.25,-40.29 208.19,-37.95"/>
<polygon fill="#000000" fill-opacity="0.200000" stroke="#000000" stroke-width="2" stroke-opacity="0.200000" points="208.56,-40.03 213.89,-36.57 207.57,-35.94 208.56,-40.03"/>
</g>
<!-- src/views/VideoGallery.vue&#45;&gt;src/stores/videosStore.ts -->
<g id="edge14" class="edge">
<title>src/views/VideoGallery.vue&#45;&gt;src/stores/videosStore.ts</title>
<path fill="none" stroke="#000000" stroke-width="2" stroke-opacity="0.200000" d="M170.44,-188.24C208.4,-194.07 266.19,-203.17 316.25,-212 320.1,-212.68 324.1,-213.41 328.1,-214.15"/>
<polygon fill="#000000" fill-opacity="0.200000" stroke="#000000" stroke-width="2" stroke-opacity="0.200000" points="327.58,-216.19 333.86,-215.23 328.35,-212.06 327.58,-216.19"/>
</g>
<!-- src/application/index.ts -->
<g id="node5" class="node">
<title>src/application/index.ts</title>
<g id="a_node5"><a xlink:href="src/application/index.ts" xlink:title="index.ts">
<path fill="#ddfeff" stroke="black" d="M488.83,-187.62C488.83,-187.62 447.67,-187.62 447.67,-187.62 444.46,-187.62 441.25,-184.42 441.25,-181.21 441.25,-181.21 441.25,-174.79 441.25,-174.79 441.25,-171.58 444.46,-168.38 447.67,-168.38 447.67,-168.38 488.83,-168.38 488.83,-168.38 492.04,-168.38 495.25,-171.58 495.25,-174.79 495.25,-174.79 495.25,-181.21 495.25,-181.21 495.25,-184.42 492.04,-187.62 488.83,-187.62"/>
<text text-anchor="start" x="452.5" y="-175.07" font-family="Helvetica,sans-Serif" font-size="9.00">index.ts</text>
</a>
</g>
</g>
<!-- src/components/VideoEmbed.vue -->
<g id="node7" class="node">
<title>src/components/VideoEmbed.vue</title>
<g id="a_node7"><a xlink:href="src/components/VideoEmbed.vue" xlink:title="VideoEmbed.vue">
<path fill="#41f083" stroke="black" d="M410.83,-43.62C410.83,-43.62 337.92,-43.62 337.92,-43.62 334.71,-43.62 331.5,-40.42 331.5,-37.21 331.5,-37.21 331.5,-30.79 331.5,-30.79 331.5,-27.58 334.71,-24.38 337.92,-24.38 337.92,-24.38 410.83,-24.38 410.83,-24.38 414.04,-24.38 417.25,-27.58 417.25,-30.79 417.25,-30.79 417.25,-37.21 417.25,-37.21 417.25,-40.42 414.04,-43.62 410.83,-43.62"/>
<text text-anchor="start" x="339.5" y="-31.07" font-family="Helvetica,sans-Serif" font-size="9.00">VideoEmbed.vue</text>
</a>
</g>
</g>
<!-- src/components/VideoCard.vue&#45;&gt;src/components/VideoEmbed.vue -->
<g id="edge4" class="edge">
<title>src/components/VideoCard.vue&#45;&gt;src/components/VideoEmbed.vue</title>
<path fill="none" stroke="#000000" stroke-width="2" stroke-opacity="0.200000" d="M293.63,-34C302.75,-34 312.67,-34 322.31,-34"/>
<polygon fill="#000000" fill-opacity="0.200000" stroke="#000000" stroke-width="2" stroke-opacity="0.200000" points="322.03,-36.1 328.03,-34 322.03,-31.9 322.03,-36.1"/>
</g>
<!-- src/components/VideoCard.vue&#45;&gt;src/stores/videosStore.ts -->
<g id="edge5" class="edge">
<title>src/components/VideoCard.vue&#45;&gt;src/stores/videosStore.ts</title>
<path fill="none" stroke="#000000" stroke-width="2" stroke-opacity="0.200000" d="M293.65,-35.87C302.28,-38.13 310.58,-42.12 316.25,-49 337.62,-74.93 305.47,-172.13 324.25,-200 326.32,-203.08 328.92,-205.75 331.83,-208.07"/>
<polygon fill="#000000" fill-opacity="0.200000" stroke="#000000" stroke-width="2" stroke-opacity="0.200000" points="330.41,-209.65 336.57,-211.21 332.72,-206.14 330.41,-209.65"/>
</g>
<!-- src/stores/videosStore.ts&#45;&gt;src/application/index.ts -->
<g id="edge9" class="edge">
<title>src/stores/videosStore.ts&#45;&gt;src/application/index.ts</title>
<path fill="none" stroke="#000000" stroke-width="2" stroke-opacity="0.200000" d="M395.77,-213.01C408.4,-206.82 424.83,-198.78 438.74,-191.96"/>
<polygon fill="#000000" fill-opacity="0.200000" stroke="#000000" stroke-width="2" stroke-opacity="0.200000" points="439.42,-193.97 443.88,-189.45 437.57,-190.2 439.42,-193.97"/>
</g>
<!-- src/components/inputs/FolderSelector.vue&#45;&gt;src/application/index.ts -->
<g id="edge6" class="edge">
<title>src/components/inputs/FolderSelector.vue&#45;&gt;src/application/index.ts</title>
<path fill="none" stroke="#000000" stroke-width="2" stroke-opacity="0.200000" d="M275.44,-80.08C288.25,-87.55 304.79,-98.71 316.25,-112 321.44,-118.02 318.28,-122.75 324.25,-128 354.71,-154.81 400.39,-167.46 431.88,-173.29"/>
<polygon fill="#000000" fill-opacity="0.200000" stroke="#000000" stroke-width="2" stroke-opacity="0.200000" points="431.51,-175.36 437.78,-174.31 432.23,-171.22 431.51,-175.36"/>
</g>
<!-- src/components/inputs/FolderSelector.vue&#45;&gt;src/stores/videosStore.ts -->
<g id="edge7" class="edge">
<title>src/components/inputs/FolderSelector.vue&#45;&gt;src/stores/videosStore.ts</title>
<path fill="none" stroke="#000000" stroke-width="2" stroke-opacity="0.200000" d="M276.97,-80.02C289.94,-87.26 306.07,-98.18 316.25,-112 323.17,-121.39 319.55,-126.32 324.25,-137 335.14,-161.75 351.19,-188.55 361.95,-205.54"/>
<polygon fill="#000000" fill-opacity="0.200000" stroke="#000000" stroke-width="2" stroke-opacity="0.200000" points="360.12,-206.57 365.12,-210.49 363.65,-204.3 360.12,-206.57"/>
</g>
</g>
</svg>
