<?xml version="1.0" encoding="UTF-8" standalone="no"?>
<!DOCTYPE svg PUBLIC "-//W3C//DTD SVG 1.1//EN"
 "http://www.w3.org/Graphics/SVG/1.1/DTD/svg11.dtd">
<!-- Generated by graphviz version 2.43.0 (0)
 -->
<!-- Title: dependency&#45;cruiser output Pages: 1 -->
<svg width="292pt" height="456pt"
 viewBox="0.00 0.00 292.00 456.00" xmlns="http://www.w3.org/2000/svg" xmlns:xlink="http://www.w3.org/1999/xlink">
<g id="graph0" class="graph" transform="scale(1 1) rotate(0) translate(4 452)">
<title>dependency&#45;cruiser output</title>
<polygon fill="white" stroke="transparent" points="-4,4 -4,-452 288,-452 288,4 -4,4"/>
<g id="clust1" class="cluster">
<title>cluster_src</title>
<path fill="#ffffff" stroke="black" stroke-width="2" d="M20,-8C20,-8 264,-8 264,-8 270,-8 276,-14 276,-20 276,-20 276,-428 276,-428 276,-434 270,-440 264,-440 264,-440 20,-440 20,-440 14,-440 8,-434 8,-428 8,-428 8,-20 8,-20 8,-14 14,-8 20,-8"/>
<text text-anchor="middle" x="142" y="-428.8" font-family="Helvetica,sans-Serif" font-weight="bold" font-size="9.00">src</text>
</g>
<g id="clust2" class="cluster">
<title>cluster_src/application</title>
<path fill="#ffffff" stroke="black" stroke-width="2" d="M30.5,-302C30.5,-302 80.5,-302 80.5,-302 86.5,-302 92.5,-308 92.5,-314 92.5,-314 92.5,-402 92.5,-402 92.5,-408 86.5,-414 80.5,-414 80.5,-414 30.5,-414 30.5,-414 24.5,-414 18.5,-408 18.5,-402 18.5,-402 18.5,-314 18.5,-314 18.5,-308 24.5,-302 30.5,-302"/>
<text text-anchor="middle" x="55.5" y="-402.8" font-family="Helvetica,sans-Serif" font-weight="bold" font-size="9.00">application</text>
</g>
<g id="clust3" class="cluster">
<title>cluster_src/domain</title>
<path fill="#ffffff" stroke="black" stroke-width="2" d="M120.5,-256C120.5,-256 256,-256 256,-256 262,-256 268,-262 268,-268 268,-268 268,-386 268,-386 268,-392 262,-398 256,-398 256,-398 120.5,-398 120.5,-398 114.5,-398 108.5,-392 108.5,-386 108.5,-386 108.5,-268 108.5,-268 108.5,-262 114.5,-256 120.5,-256"/>
<text text-anchor="middle" x="188.25" y="-386.8" font-family="Helvetica,sans-Serif" font-weight="bold" font-size="9.00">domain</text>
</g>
<g id="clust4" class="cluster">
<title>cluster_src/infrastructure</title>
<path fill="#ffffff" stroke="black" stroke-width="2" d="M28,-106C28,-106 176.5,-106 176.5,-106 182.5,-106 188.5,-112 188.5,-118 188.5,-118 188.5,-236 188.5,-236 188.5,-242 182.5,-248 176.5,-248 176.5,-248 28,-248 28,-248 22,-248 16,-242 16,-236 16,-236 16,-118 16,-118 16,-112 22,-106 28,-106"/>
<text text-anchor="middle" x="102.25" y="-236.8" font-family="Helvetica,sans-Serif" font-weight="bold" font-size="9.00">infrastructure</text>
</g>
<g id="clust5" class="cluster">
<title>cluster_src/presentation</title>
<path fill="#ffffff" stroke="black" stroke-width="2" d="M121,-16C121,-16 186,-16 186,-16 192,-16 198,-22 198,-28 198,-28 198,-86 198,-86 198,-92 192,-98 186,-98 186,-98 121,-98 121,-98 115,-98 109,-92 109,-86 109,-86 109,-28 109,-28 109,-22 115,-16 121,-16"/>
<text text-anchor="middle" x="153.5" y="-86.8" font-family="Helvetica,sans-Serif" font-weight="bold" font-size="9.00">presentation</text>
</g>
<!-- src/application/ports -->
<g id="node1" class="node">
<title>src/application/ports</title>
<g id="a_node1"><a xlink:href="src/application/ports" xlink:title="ports">
<polygon fill="#ffffcc" stroke="black" points="82,-388 30,-388 28,-386 28,-370 80,-370 82,-372 82,-388"/>
<polyline fill="none" stroke="black" points="80,-386 28,-386 "/>
<polyline fill="none" stroke="black" points="80,-386 80,-370 "/>
<polyline fill="none" stroke="black" points="80,-386 82,-388 "/>
<text text-anchor="start" x="43" y="-376.8" font-family="Helvetica,sans-Serif" font-size="9.00">ports</text>
</a>
</g>
</g>
<!-- src/domain/entities -->
<g id="node2" class="node">
<title>src/domain/entities</title>
<g id="a_node2"><a xlink:href="src/domain/entities" xlink:title="entities">
<polygon fill="#ffffcc" stroke="black" points="260,-282 208,-282 206,-280 206,-264 258,-264 260,-266 260,-282"/>
<polyline fill="none" stroke="black" points="258,-280 206,-280 "/>
<polyline fill="none" stroke="black" points="258,-280 258,-264 "/>
<polyline fill="none" stroke="black" points="258,-280 260,-282 "/>
<text text-anchor="start" x="216" y="-270.8" font-family="Helvetica,sans-Serif" font-size="9.00">entities</text>
</a>
</g>
</g>
<!-- src/application/ports&#45;&gt;src/domain/entities -->
<g id="edge1" class="edge">
<title>src/application/ports&#45;&gt;src/domain/entities</title>
<path fill="none" stroke="#000000" stroke-opacity="0.200000" d="M72.87,-388.13C101.68,-402.34 160.85,-425.33 198,-397 215.33,-383.79 226,-318.61 230.09,-288.41"/>
<polygon fill="none" stroke="#000000" stroke-opacity="0.200000" points="232.21,-288.42 230.91,-282.2 228.04,-287.87 232.21,-288.42"/>
</g>
<!-- src/application/services -->
<g id="node3" class="node">
<title>src/application/services</title>
<g id="a_node3"><a xlink:href="src/application/services" xlink:title="services">
<polygon fill="#ffffcc" stroke="black" points="82,-358 30,-358 28,-356 28,-340 80,-340 82,-342 82,-358"/>
<polyline fill="none" stroke="black" points="80,-356 28,-356 "/>
<polyline fill="none" stroke="black" points="80,-356 80,-340 "/>
<polyline fill="none" stroke="black" points="80,-356 82,-358 "/>
<text text-anchor="start" x="36.5" y="-346.8" font-family="Helvetica,sans-Serif" font-size="9.00">services</text>
</a>
</g>
</g>
<!-- src/application/services&#45;&gt;src/domain/entities -->
<g id="edge2" class="edge">
<title>src/application/services&#45;&gt;src/domain/entities</title>
<path fill="none" stroke="#000000" stroke-opacity="0.200000" d="M82.12,-357.63C85.79,-359.43 89.38,-361.55 92.5,-364 102.01,-371.47 97.73,-380.51 108.5,-386 143.95,-404.05 166.08,-409.73 198,-386 228.79,-363.11 232.73,-313.24 232.62,-288.11"/>
<polygon fill="none" stroke="#000000" stroke-opacity="0.200000" points="234.72,-287.97 232.51,-282.01 230.52,-288.04 234.72,-287.97"/>
</g>
<!-- src/application/usecases -->
<g id="node4" class="node">
<title>src/application/usecases</title>
<g id="a_node4"><a xlink:href="src/application/usecases" xlink:title="usecases">
<polygon fill="#ffffcc" stroke="black" points="83.5,-328 28.5,-328 26.5,-326 26.5,-310 81.5,-310 83.5,-312 83.5,-328"/>
<polyline fill="none" stroke="black" points="81.5,-326 26.5,-326 "/>
<polyline fill="none" stroke="black" points="81.5,-326 81.5,-310 "/>
<polyline fill="none" stroke="black" points="81.5,-326 83.5,-328 "/>
<text text-anchor="start" x="34.5" y="-316.8" font-family="Helvetica,sans-Serif" font-size="9.00">usecases</text>
</a>
</g>
</g>
<!-- src/application/usecases&#45;&gt;src/domain/entities -->
<g id="edge3" class="edge">
<title>src/application/usecases&#45;&gt;src/domain/entities</title>
<path fill="none" stroke="#000000" stroke-opacity="0.200000" d="M83.53,-327.29C86.83,-329.12 89.94,-331.33 92.5,-334 106.91,-349.01 91.46,-366.06 108.5,-378 124.79,-389.41 181.92,-389.7 198,-378 226.61,-357.19 231.64,-311.78 232.22,-288.08"/>
<polygon fill="none" stroke="#000000" stroke-opacity="0.200000" points="234.32,-288.03 232.28,-282.01 230.12,-287.98 234.32,-288.03"/>
</g>
<!-- src/domain/services -->
<g id="node5" class="node">
<title>src/domain/services</title>
<g id="a_node5"><a xlink:href="src/domain/services" xlink:title="services">
<polygon fill="#ffffcc" stroke="black" points="180.5,-372 128.5,-372 126.5,-370 126.5,-354 178.5,-354 180.5,-356 180.5,-372"/>
<polyline fill="none" stroke="black" points="178.5,-370 126.5,-370 "/>
<polyline fill="none" stroke="black" points="178.5,-370 178.5,-354 "/>
<polyline fill="none" stroke="black" points="178.5,-370 180.5,-372 "/>
<text text-anchor="start" x="135" y="-360.8" font-family="Helvetica,sans-Serif" font-size="9.00">services</text>
</a>
</g>
</g>
<!-- src/application/usecases&#45;&gt;src/domain/services -->
<g id="edge4" class="edge">
<title>src/application/usecases&#45;&gt;src/domain/services</title>
<path fill="none" stroke="#000000" stroke-width="2" stroke-opacity="0.200000" d="M81.28,-328.11C85.14,-329.86 89.01,-331.84 92.5,-334 100.53,-338.97 100.32,-343.27 108.5,-348 112.25,-350.16 116.36,-352.08 120.51,-353.76"/>
<polygon fill="#000000" fill-opacity="0.200000" stroke="#000000" stroke-width="2" stroke-opacity="0.200000" points="119.82,-355.74 126.17,-355.89 121.3,-351.81 119.82,-355.74"/>
</g>
<!-- src/domain/repositories -->
<g id="node6" class="node">
<title>src/domain/repositories</title>
<g id="a_node6"><a xlink:href="src/domain/repositories" xlink:title="repositories">
<polygon fill="#ffffcc" stroke="black" points="187.5,-312 121.5,-312 119.5,-310 119.5,-294 185.5,-294 187.5,-296 187.5,-312"/>
<polyline fill="none" stroke="black" points="185.5,-310 119.5,-310 "/>
<polyline fill="none" stroke="black" points="185.5,-310 185.5,-294 "/>
<polyline fill="none" stroke="black" points="185.5,-310 187.5,-312 "/>
<text text-anchor="start" x="127.5" y="-300.8" font-family="Helvetica,sans-Serif" font-size="9.00">repositories</text>
</a>
</g>
</g>
<!-- src/application/usecases&#45;&gt;src/domain/repositories -->
<g id="edge5" class="edge">
<title>src/application/usecases&#45;&gt;src/domain/repositories</title>
<path fill="none" stroke="#000000" stroke-opacity="0.200000" d="M83.65,-314.42C92.88,-312.89 103.34,-311.15 113.27,-309.5"/>
<polygon fill="none" stroke="#000000" stroke-opacity="0.200000" points="113.79,-311.55 119.37,-308.49 113.11,-307.4 113.79,-311.55"/>
</g>
<!-- src/domain/services&#45;&gt;src/domain/entities -->
<g id="edge7" class="edge">
<title>src/domain/services&#45;&gt;src/domain/entities</title>
<path fill="none" stroke="#000000" stroke-opacity="0.200000" d="M180.76,-357.74C186.95,-355.53 193.16,-352.41 198,-348 215.54,-332.03 224.63,-305.24 228.85,-288.38"/>
<polygon fill="none" stroke="#000000" stroke-opacity="0.200000" points="230.97,-288.55 230.28,-282.23 226.88,-287.6 230.97,-288.55"/>
</g>
<!-- src/domain/repositories&#45;&gt;src/domain/entities -->
<g id="edge6" class="edge">
<title>src/domain/repositories&#45;&gt;src/domain/entities</title>
<path fill="none" stroke="#000000" stroke-opacity="0.200000" d="M181.78,-293.98C187.18,-292.09 192.79,-290.04 198,-288 200.78,-286.91 203.67,-285.72 206.53,-284.51"/>
<polygon fill="none" stroke="#000000" stroke-opacity="0.200000" points="207.66,-286.31 212.34,-282.01 206,-282.45 207.66,-286.31"/>
</g>
<!-- src/domain/constants -->
<g id="node7" class="node">
<title>src/domain/constants</title>
<g id="a_node7"><a xlink:href="src/domain/constants" xlink:title="constants">
<polygon fill="#ffffcc" stroke="black" points="184,-342 125,-342 123,-340 123,-324 182,-324 184,-326 184,-342"/>
<polyline fill="none" stroke="black" points="182,-340 123,-340 "/>
<polyline fill="none" stroke="black" points="182,-340 182,-324 "/>
<polyline fill="none" stroke="black" points="182,-340 184,-342 "/>
<text text-anchor="start" x="131" y="-330.8" font-family="Helvetica,sans-Serif" font-size="9.00">constants</text>
</a>
</g>
</g>
<!-- src/domain/valueObjects -->
<g id="node8" class="node">
<title>src/domain/valueObjects</title>
<g id="a_node8"><a xlink:href="src/domain/valueObjects" xlink:title="valueObjects">
<polygon fill="#ffffcc" stroke="black" points="190.5,-282 118.5,-282 116.5,-280 116.5,-264 188.5,-264 190.5,-266 190.5,-282"/>
<polyline fill="none" stroke="black" points="188.5,-280 116.5,-280 "/>
<polyline fill="none" stroke="black" points="188.5,-280 188.5,-264 "/>
<polyline fill="none" stroke="black" points="188.5,-280 190.5,-282 "/>
<text text-anchor="start" x="124.5" y="-270.8" font-family="Helvetica,sans-Serif" font-size="9.00">valueObjects</text>
</a>
</g>
</g>
<!-- src/domain/valueObjects&#45;&gt;src/domain/entities -->
<g id="edge8" class="edge">
<title>src/domain/valueObjects&#45;&gt;src/domain/entities</title>
<path fill="none" stroke="#000000" stroke-opacity="0.200000" d="M190.53,-273C193.63,-273 196.75,-273 199.81,-273"/>
<polygon fill="none" stroke="#000000" stroke-opacity="0.200000" points="200,-275.1 206,-273 200,-270.9 200,-275.1"/>
</g>
<!-- src/infrastructure/adapters -->
<g id="node9" class="node">
<title>src/infrastructure/adapters</title>
<g id="a_node9"><a xlink:href="src/infrastructure/adapters" xlink:title="adapters">
<polygon fill="#ffffcc" stroke="black" points="83,-192 29,-192 27,-190 27,-174 81,-174 83,-176 83,-192"/>
<polyline fill="none" stroke="black" points="81,-190 27,-190 "/>
<polyline fill="none" stroke="black" points="81,-190 81,-174 "/>
<polyline fill="none" stroke="black" points="81,-190 83,-192 "/>
<text text-anchor="start" x="35" y="-180.8" font-family="Helvetica,sans-Serif" font-size="9.00">adapters</text>
</a>
</g>
</g>
<!-- src/infrastructure/adapters&#45;&gt;src/domain/entities -->
<g id="edge9" class="edge">
<title>src/infrastructure/adapters&#45;&gt;src/domain/entities</title>
<path fill="none" stroke="#000000" stroke-opacity="0.200000" d="M81.25,-192.05C89.86,-195.03 99.56,-198.27 108.5,-201 147.89,-213.02 164.2,-201.47 198,-225 210.02,-233.37 219.25,-247.43 225.03,-258.18"/>
<polygon fill="none" stroke="#000000" stroke-opacity="0.200000" points="223.28,-259.37 227.89,-263.75 227.02,-257.45 223.28,-259.37"/>
</g>
<!-- src/infrastructure/adapters&#45;&gt;src/domain/repositories -->
<g id="edge10" class="edge">
<title>src/infrastructure/adapters&#45;&gt;src/domain/repositories</title>
<path fill="none" stroke="#000000" stroke-opacity="0.200000" d="M83.25,-190.49C86.77,-192.44 90.01,-194.91 92.5,-198 118,-229.63 82.05,-257.17 108.5,-288 110.06,-289.82 111.86,-291.42 113.81,-292.83"/>
<polygon fill="none" stroke="#000000" stroke-opacity="0.200000" points="113.06,-294.83 119.28,-296.12 115.22,-291.23 113.06,-294.83"/>
</g>
<!-- src/infrastructure/dto -->
<g id="node10" class="node">
<title>src/infrastructure/dto</title>
<g id="a_node10"><a xlink:href="src/infrastructure/dto" xlink:title="dto">
<polygon fill="#ffffcc" stroke="black" points="180.5,-173 128.5,-173 126.5,-171 126.5,-155 178.5,-155 180.5,-157 180.5,-173"/>
<polyline fill="none" stroke="black" points="178.5,-171 126.5,-171 "/>
<polyline fill="none" stroke="black" points="178.5,-171 178.5,-155 "/>
<polyline fill="none" stroke="black" points="178.5,-171 180.5,-173 "/>
<text text-anchor="start" x="145.5" y="-161.8" font-family="Helvetica,sans-Serif" font-size="9.00">dto</text>
</a>
</g>
</g>
<!-- src/infrastructure/dto&#45;&gt;src/domain/entities -->
<g id="edge11" class="edge">
<title>src/infrastructure/dto&#45;&gt;src/domain/entities</title>
<path fill="none" stroke="#000000" stroke-opacity="0.200000" d="M172.83,-173.01C181.39,-177.95 191.16,-184.76 198,-193 214.07,-212.38 223.64,-240.48 228.35,-257.7"/>
<polygon fill="none" stroke="#000000" stroke-opacity="0.200000" points="226.43,-258.66 229.97,-263.94 230.49,-257.61 226.43,-258.66"/>
</g>
<!-- src/infrastructure/repository -->
<g id="node11" class="node">
<title>src/infrastructure/repository</title>
<g id="a_node11"><a xlink:href="src/infrastructure/repository" xlink:title="repository">
<polygon fill="#ffffcc" stroke="black" points="86,-222 26,-222 24,-220 24,-204 84,-204 86,-206 86,-222"/>
<polyline fill="none" stroke="black" points="84,-220 24,-220 "/>
<polyline fill="none" stroke="black" points="84,-220 84,-204 "/>
<polyline fill="none" stroke="black" points="84,-220 86,-222 "/>
<text text-anchor="start" x="32" y="-210.8" font-family="Helvetica,sans-Serif" font-size="9.00">repository</text>
</a>
</g>
</g>
<!-- src/infrastructure/repository&#45;&gt;src/domain/entities -->
<g id="edge13" class="edge">
<title>src/infrastructure/repository&#45;&gt;src/domain/entities</title>
<path fill="none" stroke="#000000" stroke-opacity="0.200000" d="M86.24,-221.55C115.22,-229.98 160.02,-243.65 198,-258 200.8,-259.06 203.69,-260.22 206.56,-261.42"/>
<polygon fill="none" stroke="#000000" stroke-opacity="0.200000" points="206.03,-263.48 212.37,-263.91 207.68,-259.62 206.03,-263.48"/>
</g>
<!-- src/infrastructure/repository&#45;&gt;src/domain/repositories -->
<g id="edge14" class="edge">
<title>src/infrastructure/repository&#45;&gt;src/domain/repositories</title>
<path fill="none" stroke="#000000" stroke-opacity="0.200000" d="M60.09,-222.27C67.49,-238.02 84.61,-270.05 108.5,-288 110.11,-289.21 111.83,-290.33 113.62,-291.36"/>
<polygon fill="none" stroke="#000000" stroke-opacity="0.200000" points="112.85,-293.33 119.15,-294.2 114.77,-289.59 112.85,-293.33"/>
</g>
<!-- src/infrastructure/repository&#45;&gt;src/domain/constants -->
<g id="edge12" class="edge">
<title>src/infrastructure/repository&#45;&gt;src/domain/constants</title>
<path fill="none" stroke="#000000" stroke-width="2" stroke-opacity="0.200000" d="M59.55,-222.21C68.56,-245.19 92.76,-304.26 108.5,-318 111.08,-320.26 114.02,-322.18 117.13,-323.81"/>
<polygon fill="#000000" fill-opacity="0.200000" stroke="#000000" stroke-width="2" stroke-opacity="0.200000" points="116.52,-325.85 122.85,-326.45 118.28,-322.03 116.52,-325.85"/>
</g>
<!-- src/infrastructure/services -->
<g id="node12" class="node">
<title>src/infrastructure/services</title>
<g id="a_node12"><a xlink:href="src/infrastructure/services" xlink:title="services">
<polygon fill="#ffffcc" stroke="black" points="82,-162 30,-162 28,-160 28,-144 80,-144 82,-146 82,-162"/>
<polyline fill="none" stroke="black" points="80,-160 28,-160 "/>
<polyline fill="none" stroke="black" points="80,-160 80,-144 "/>
<polyline fill="none" stroke="black" points="80,-160 82,-162 "/>
<text text-anchor="start" x="36.5" y="-150.8" font-family="Helvetica,sans-Serif" font-size="9.00">services</text>
</a>
</g>
</g>
<!-- src/infrastructure/services&#45;&gt;src/domain/entities -->
<g id="edge16" class="edge">
<title>src/infrastructure/services&#45;&gt;src/domain/entities</title>
<path fill="none" stroke="#000000" stroke-opacity="0.200000" d="M80.29,-162.13C84.43,-163.93 88.64,-165.91 92.5,-168 100.09,-172.11 100.64,-175.43 108.5,-179 145.88,-196.01 166.27,-175.92 198,-202 215.34,-216.25 224.42,-241.43 228.71,-257.66"/>
<polygon fill="none" stroke="#000000" stroke-opacity="0.200000" points="226.7,-258.27 230.17,-263.6 230.78,-257.27 226.7,-258.27"/>
</g>
<!-- src/infrastructure/services&#45;&gt;src/domain/repositories -->
<g id="edge17" class="edge">
<title>src/infrastructure/services&#45;&gt;src/domain/repositories</title>
<path fill="none" stroke="#000000" stroke-opacity="0.200000" d="M82.28,-159.8C86.2,-161.85 89.82,-164.53 92.5,-168 125.35,-210.61 74.36,-246.41 108.5,-288 110.02,-289.86 111.79,-291.48 113.71,-292.91"/>
<polygon fill="none" stroke="#000000" stroke-opacity="0.200000" points="112.93,-294.89 119.15,-296.24 115.13,-291.31 112.93,-294.89"/>
</g>
<!-- src/infrastructure/services&#45;&gt;src/infrastructure/dto -->
<g id="edge15" class="edge">
<title>src/infrastructure/services&#45;&gt;src/infrastructure/dto</title>
<path fill="none" stroke="#000000" stroke-width="2" stroke-opacity="0.200000" d="M82.11,-155.98C93.81,-157.31 107.71,-158.89 120.07,-160.3"/>
<polygon fill="#000000" fill-opacity="0.200000" stroke="#000000" stroke-width="2" stroke-opacity="0.200000" points="120.17,-162.43 126.36,-161.02 120.64,-158.25 120.17,-162.43"/>
</g>
<!-- src/infrastructure/video -->
<g id="node13" class="node">
<title>src/infrastructure/video</title>
<g id="a_node13"><a xlink:href="src/infrastructure/video" xlink:title="video">
<polygon fill="#ffffcc" stroke="black" points="82,-132 30,-132 28,-130 28,-114 80,-114 82,-116 82,-132"/>
<polyline fill="none" stroke="black" points="80,-130 28,-130 "/>
<polyline fill="none" stroke="black" points="80,-130 80,-114 "/>
<polyline fill="none" stroke="black" points="80,-130 82,-132 "/>
<text text-anchor="start" x="42.5" y="-120.8" font-family="Helvetica,sans-Serif" font-size="9.00">video</text>
</a>
</g>
</g>
<!-- src/infrastructure/video&#45;&gt;src/domain/entities -->
<g id="edge18" class="edge">
<title>src/infrastructure/video&#45;&gt;src/domain/entities</title>
<path fill="none" stroke="#000000" stroke-opacity="0.200000" d="M82.12,-120.12C113.67,-118.16 166.41,-120.03 198,-149 229.09,-177.51 232.81,-231.5 232.62,-257.82"/>
<polygon fill="none" stroke="#000000" stroke-opacity="0.200000" points="230.52,-257.84 232.51,-263.88 234.72,-257.92 230.52,-257.84"/>
</g>
<!-- src/infrastructure/video&#45;&gt;src/domain/valueObjects -->
<g id="edge19" class="edge">
<title>src/infrastructure/video&#45;&gt;src/domain/valueObjects</title>
<path fill="none" stroke="#000000" stroke-width="2" stroke-opacity="0.200000" d="M82.26,-129.81C86.18,-131.87 89.81,-134.54 92.5,-138 123.63,-178.05 78.87,-209.83 108.5,-251 111.31,-254.9 115,-258.15 119.07,-260.84"/>
<polygon fill="#000000" fill-opacity="0.200000" stroke="#000000" stroke-width="2" stroke-opacity="0.200000" points="118.13,-262.73 124.36,-263.97 120.26,-259.11 118.13,-262.73"/>
</g>
<!-- src/presentation/components -->
<g id="node14" class="node">
<title>src/presentation/components</title>
<g id="a_node14"><a xlink:href="src/presentation/components" xlink:title="components">
<polygon fill="#ffffcc" stroke="black" points="190,-72 119,-72 117,-70 117,-54 188,-54 190,-56 190,-72"/>
<polyline fill="none" stroke="black" points="188,-70 117,-70 "/>
<polyline fill="none" stroke="black" points="188,-70 188,-54 "/>
<polyline fill="none" stroke="black" points="188,-70 190,-72 "/>
<text text-anchor="start" x="125" y="-60.8" font-family="Helvetica,sans-Serif" font-size="9.00">components</text>
</a>
</g>
</g>
<!-- src/presentation/components&#45;&gt;src/domain/entities -->
<g id="edge20" class="edge">
<title>src/presentation/components&#45;&gt;src/domain/entities</title>
<path fill="none" stroke="#000000" stroke-opacity="0.200000" d="M168.45,-72.18C178.26,-79.38 190.86,-90.3 198,-103 226.81,-154.22 231.45,-226.19 232.03,-257.47"/>
<polygon fill="none" stroke="#000000" stroke-opacity="0.200000" points="229.94,-257.87 232.1,-263.84 234.14,-257.82 229.94,-257.87"/>
</g>
<!-- src/presentation/stores -->
<g id="node15" class="node">
<title>src/presentation/stores</title>
<g id="a_node15"><a xlink:href="src/presentation/stores" xlink:title="stores">
<polygon fill="#ffffcc" stroke="black" points="180.5,-42 128.5,-42 126.5,-40 126.5,-24 178.5,-24 180.5,-26 180.5,-42"/>
<polyline fill="none" stroke="black" points="178.5,-40 126.5,-40 "/>
<polyline fill="none" stroke="black" points="178.5,-40 178.5,-24 "/>
<polyline fill="none" stroke="black" points="178.5,-40 180.5,-42 "/>
<text text-anchor="start" x="139.5" y="-30.8" font-family="Helvetica,sans-Serif" font-size="9.00">stores</text>
</a>
</g>
</g>
<!-- src/presentation/stores&#45;&gt;src/domain/entities -->
<g id="edge21" class="edge">
<title>src/presentation/stores&#45;&gt;src/domain/entities</title>
<path fill="none" stroke="#000000" stroke-opacity="0.200000" d="M180.76,-37.07C187.25,-39.3 193.6,-42.72 198,-48 224.69,-80.05 230.48,-212.31 231.69,-257.66"/>
<polygon fill="none" stroke="#000000" stroke-opacity="0.200000" points="229.6,-257.98 231.84,-263.93 233.8,-257.88 229.6,-257.98"/>
</g>
</g>
</svg>
