<?xml version="1.0" encoding="UTF-8" standalone="no"?>
<!DOCTYPE svg PUBLIC "-//W3C//DTD SVG 1.1//EN"
 "http://www.w3.org/Graphics/SVG/1.1/DTD/svg11.dtd">
<!-- Generated by graphviz version 9.0.0 (20230911.1827)
 -->
<!-- Title: dependency&#45;cruiser output Pages: 1 -->
<svg width="284pt" height="416pt"
 viewBox="0.00 0.00 284.00 416.00" xmlns="http://www.w3.org/2000/svg" xmlns:xlink="http://www.w3.org/1999/xlink">
<g id="graph0" class="graph" transform="scale(1 1) rotate(0) translate(4 412)">
<title>dependency&#45;cruiser output</title>
<polygon fill="white" stroke="none" points="-4,4 -4,-412 280,-412 280,4 -4,4"/>
<g id="clust1" class="cluster">
<title>cluster_src</title>
<path fill="#ffffff" stroke="black" stroke-width="2" d="M19,-8C19,-8 256,-8 256,-8 262,-8 268,-14 268,-20 268,-20 268,-388 268,-388 268,-394 262,-400 256,-400 256,-400 19,-400 19,-400 13,-400 7,-394 7,-388 7,-388 7,-20 7,-20 7,-14 13,-8 19,-8"/>
<text text-anchor="middle" x="137.5" y="-387.45" font-family="Helvetica,sans-Serif" font-weight="bold" font-size="9.00">src</text>
</g>
<g id="clust2" class="cluster">
<title>cluster_src/application</title>
<path fill="#ffffff" stroke="black" stroke-width="2" d="M123.5,-256C123.5,-256 172.75,-256 172.75,-256 178.75,-256 184.75,-262 184.75,-268 184.75,-268 184.75,-361 184.75,-361 184.75,-367 178.75,-373 172.75,-373 172.75,-373 123.5,-373 123.5,-373 117.5,-373 111.5,-367 111.5,-361 111.5,-361 111.5,-268 111.5,-268 111.5,-262 117.5,-256 123.5,-256"/>
<text text-anchor="middle" x="148.12" y="-360.45" font-family="Helvetica,sans-Serif" font-weight="bold" font-size="9.00">application</text>
</g>
<g id="clust5" class="cluster">
<title>cluster_src/presentation</title>
<path fill="#ffffff" stroke="black" stroke-width="2" d="M118.25,-162C118.25,-162 178,-162 178,-162 184,-162 190,-168 190,-174 190,-174 190,-236 190,-236 190,-242 184,-248 178,-248 178,-248 118.25,-248 118.25,-248 112.25,-248 106.25,-242 106.25,-236 106.25,-236 106.25,-174 106.25,-174 106.25,-168 112.25,-162 118.25,-162"/>
<text text-anchor="middle" x="148.12" y="-235.45" font-family="Helvetica,sans-Serif" font-weight="bold" font-size="9.00">presentation</text>
</g>
<g id="clust3" class="cluster">
<title>cluster_src/domain</title>
<path fill="#ffffff" stroke="black" stroke-width="2" d="M117.5,-36C117.5,-36 248,-36 248,-36 254,-36 260,-42 260,-48 260,-48 260,-141 260,-141 260,-147 254,-153 248,-153 248,-153 117.5,-153 117.5,-153 111.5,-153 105.5,-147 105.5,-141 105.5,-141 105.5,-48 105.5,-48 105.5,-42 111.5,-36 117.5,-36"/>
<text text-anchor="middle" x="182.75" y="-140.45" font-family="Helvetica,sans-Serif" font-weight="bold" font-size="9.00">domain</text>
</g>
<g id="clust4" class="cluster">
<title>cluster_src/infrastructure</title>
<path fill="#ffffff" stroke="black" stroke-width="2" d="M27,-16C27,-16 77.5,-16 77.5,-16 83.5,-16 89.5,-22 89.5,-28 89.5,-28 89.5,-152 89.5,-152 89.5,-158 83.5,-164 77.5,-164 77.5,-164 27,-164 27,-164 21,-164 15,-158 15,-152 15,-152 15,-28 15,-28 15,-22 21,-16 27,-16"/>
<text text-anchor="middle" x="52.25" y="-151.45" font-family="Helvetica,sans-Serif" font-weight="bold" font-size="9.00">infrastructure</text>
</g>
<!-- src/application/ports -->
<g id="node1" class="node">
<title>src/application/ports</title>
<g id="a_node1"><a xlink:href="src/application/ports" xlink:title="ports">
<polygon fill="#ffffcc" stroke="black" points="175.12,-345.62 123.26,-345.62 121.12,-343.49 121.12,-326.38 172.99,-326.38 175.12,-328.51 175.12,-345.62"/>
<polyline fill="none" stroke="black" points="172.99,-343.49 121.12,-343.49"/>
<polyline fill="none" stroke="black" points="172.99,-343.49 172.99,-326.38"/>
<polyline fill="none" stroke="black" points="172.99,-343.49 175.12,-345.62"/>
<text text-anchor="start" x="137.62" y="-333.07" font-family="Helvetica,sans-Serif" font-size="9.00">ports</text>
</a>
</g>
</g>
<!-- src/domain/entities -->
<g id="node2" class="node">
<title>src/domain/entities</title>
<g id="a_node2"><a xlink:href="src/domain/entities" xlink:title="entities">
<polygon fill="#ffffcc" stroke="black" points="252,-125.62 200.14,-125.62 198,-123.49 198,-106.38 249.86,-106.38 252,-108.51 252,-125.62"/>
<polyline fill="none" stroke="black" points="249.86,-123.49 198,-123.49"/>
<polyline fill="none" stroke="black" points="249.86,-123.49 249.86,-106.38"/>
<polyline fill="none" stroke="black" points="249.86,-123.49 252,-125.62"/>
<text text-anchor="start" x="210" y="-113.08" font-family="Helvetica,sans-Serif" font-size="9.00">entities</text>
</a>
</g>
</g>
<!-- src/application/ports&#45;&gt;src/domain/entities -->
<g id="edge1" class="edge">
<title>src/application/ports&#45;&gt;src/domain/entities</title>
<path fill="none" stroke="#000000" stroke-opacity="0.200000" d="M175.47,-330.91C180.98,-328.71 186.24,-325.54 190,-321 213.67,-292.42 221.25,-177.42 223.32,-133.32"/>
<polygon fill="none" stroke="#000000" stroke-opacity="0.200000" points="225.41,-133.55 223.58,-127.47 221.22,-133.37 225.41,-133.55"/>
</g>
<!-- src/application/services -->
<g id="node3" class="node">
<title>src/application/services</title>
<g id="a_node3"><a xlink:href="src/application/services" xlink:title="services">
<polygon fill="#ffffcc" stroke="black" points="175.12,-314.62 123.26,-314.62 121.12,-312.49 121.12,-295.38 172.99,-295.38 175.12,-297.51 175.12,-314.62"/>
<polyline fill="none" stroke="black" points="172.99,-312.49 121.12,-312.49"/>
<polyline fill="none" stroke="black" points="172.99,-312.49 172.99,-295.38"/>
<polyline fill="none" stroke="black" points="172.99,-312.49 175.12,-314.62"/>
<text text-anchor="start" x="130.88" y="-302.07" font-family="Helvetica,sans-Serif" font-size="9.00">services</text>
</a>
</g>
</g>
<!-- src/application/services&#45;&gt;src/domain/entities -->
<g id="edge2" class="edge">
<title>src/application/services&#45;&gt;src/domain/entities</title>
<path fill="none" stroke="#000000" stroke-opacity="0.200000" d="M175.38,-299.84C180.89,-297.63 186.17,-294.49 190,-290 210.13,-266.4 219.64,-172.09 222.77,-133.06"/>
<polygon fill="none" stroke="#000000" stroke-opacity="0.200000" points="224.83,-133.68 223.2,-127.53 220.64,-133.35 224.83,-133.68"/>
</g>
<!-- src/application/usecases -->
<g id="node4" class="node">
<title>src/application/usecases</title>
<g id="a_node4"><a xlink:href="src/application/usecases" xlink:title="usecases">
<polygon fill="#ffffcc" stroke="black" points="176.75,-283.62 121.64,-283.62 119.5,-281.49 119.5,-264.38 174.61,-264.38 176.75,-266.51 176.75,-283.62"/>
<polyline fill="none" stroke="black" points="174.61,-281.49 119.5,-281.49"/>
<polyline fill="none" stroke="black" points="174.61,-281.49 174.61,-264.38"/>
<polyline fill="none" stroke="black" points="174.61,-281.49 176.75,-283.62"/>
<text text-anchor="start" x="127.5" y="-271.07" font-family="Helvetica,sans-Serif" font-size="9.00">usecases</text>
</a>
</g>
</g>
<!-- src/application/usecases&#45;&gt;src/domain/entities -->
<g id="edge3" class="edge">
<title>src/application/usecases&#45;&gt;src/domain/entities</title>
<path fill="none" stroke="#000000" stroke-opacity="0.200000" d="M174.49,-263.92C180.3,-260.57 185.95,-256.31 190,-251 217.11,-215.52 222.8,-160.93 223.87,-133.3"/>
<polygon fill="none" stroke="#000000" stroke-opacity="0.200000" points="225.96,-133.52 224.02,-127.46 221.76,-133.4 225.96,-133.52"/>
</g>
<!-- src/domain/constants -->
<g id="node5" class="node">
<title>src/domain/constants</title>
<g id="a_node5"><a xlink:href="src/domain/constants" xlink:title="constants">
<polygon fill="#ffffcc" stroke="black" points="176.38,-63.62 122.01,-63.62 119.88,-61.49 119.88,-44.38 174.24,-44.38 176.38,-46.51 176.38,-63.62"/>
<polyline fill="none" stroke="black" points="174.24,-61.49 119.88,-61.49"/>
<polyline fill="none" stroke="black" points="174.24,-61.49 174.24,-44.38"/>
<polyline fill="none" stroke="black" points="174.24,-61.49 176.38,-63.62"/>
<text text-anchor="start" x="127.88" y="-51.08" font-family="Helvetica,sans-Serif" font-size="9.00">constants</text>
</a>
</g>
</g>
<!-- src/domain/repositories -->
<g id="node6" class="node">
<title>src/domain/repositories</title>
<g id="a_node6"><a xlink:href="src/domain/repositories" xlink:title="repositories">
<polygon fill="#ffffcc" stroke="black" points="180.88,-94.62 117.51,-94.62 115.38,-92.49 115.38,-75.38 178.74,-75.38 180.88,-77.51 180.88,-94.62"/>
<polyline fill="none" stroke="black" points="178.74,-92.49 115.38,-92.49"/>
<polyline fill="none" stroke="black" points="178.74,-92.49 178.74,-75.38"/>
<polyline fill="none" stroke="black" points="178.74,-92.49 180.88,-94.62"/>
<text text-anchor="start" x="123.38" y="-82.08" font-family="Helvetica,sans-Serif" font-size="9.00">repositories</text>
</a>
</g>
</g>
<!-- src/domain/repositories&#45;&gt;src/domain/entities -->
<g id="edge4" class="edge">
<title>src/domain/repositories&#45;&gt;src/domain/entities</title>
<path fill="none" stroke="#000000" stroke-opacity="0.200000" d="M177.4,-95.01C181.64,-96.62 185.95,-98.31 190,-100 192.17,-100.91 194.4,-101.87 196.63,-102.87"/>
<polygon fill="none" stroke="#000000" stroke-opacity="0.200000" points="195.56,-104.69 201.89,-105.26 197.3,-100.87 195.56,-104.69"/>
</g>
<!-- src/domain/valueObjects -->
<g id="node7" class="node">
<title>src/domain/valueObjects</title>
<g id="a_node7"><a xlink:href="src/domain/valueObjects" xlink:title="valueObjects">
<polygon fill="#ffffcc" stroke="black" points="182.75,-125.62 115.64,-125.62 113.5,-123.49 113.5,-106.38 180.61,-106.38 182.75,-108.51 182.75,-125.62"/>
<polyline fill="none" stroke="black" points="180.61,-123.49 113.5,-123.49"/>
<polyline fill="none" stroke="black" points="180.61,-123.49 180.61,-106.38"/>
<polyline fill="none" stroke="black" points="180.61,-123.49 182.75,-125.62"/>
<text text-anchor="start" x="121.5" y="-113.08" font-family="Helvetica,sans-Serif" font-size="9.00">valueObjects</text>
</a>
</g>
</g>
<!-- src/domain/valueObjects&#45;&gt;src/domain/entities -->
<g id="edge5" class="edge">
<title>src/domain/valueObjects&#45;&gt;src/domain/entities</title>
<path fill="none" stroke="#000000" stroke-opacity="0.200000" d="M183.06,-116C185.53,-116 188.03,-116 190.5,-116"/>
<polygon fill="none" stroke="#000000" stroke-opacity="0.200000" points="190.3,-118.1 196.3,-116 190.3,-113.9 190.3,-118.1"/>
</g>
<!-- src/infrastructure/adapters -->
<g id="node8" class="node">
<title>src/infrastructure/adapters</title>
<g id="a_node8"><a xlink:href="src/infrastructure/adapters" xlink:title="adapters">
<polygon fill="#ffffcc" stroke="black" points="79.25,-43.62 27.39,-43.62 25.25,-41.49 25.25,-24.38 77.11,-24.38 79.25,-26.51 79.25,-43.62"/>
<polyline fill="none" stroke="black" points="77.11,-41.49 25.25,-41.49"/>
<polyline fill="none" stroke="black" points="77.11,-41.49 77.11,-24.38"/>
<polyline fill="none" stroke="black" points="77.11,-41.49 79.25,-43.62"/>
<text text-anchor="start" x="33.88" y="-31.07" font-family="Helvetica,sans-Serif" font-size="9.00">adapters</text>
</a>
</g>
</g>
<!-- src/infrastructure/adapters&#45;&gt;src/domain/entities -->
<g id="edge6" class="edge">
<title>src/infrastructure/adapters&#45;&gt;src/domain/entities</title>
<path fill="none" stroke="#000000" stroke-opacity="0.200000" d="M75.4,-23.96C104.49,-12.45 155.86,1.96 190,-22 214.8,-39.4 221.59,-76.78 223.4,-98.8"/>
<polygon fill="none" stroke="#000000" stroke-opacity="0.200000" points="221.29,-98.78 223.77,-104.64 225.48,-98.52 221.29,-98.78"/>
</g>
<!-- src/infrastructure/repository -->
<g id="node9" class="node">
<title>src/infrastructure/repository</title>
<g id="a_node9"><a xlink:href="src/infrastructure/repository" xlink:title="repository">
<polygon fill="#ffffcc" stroke="black" points="80.5,-74.62 26.14,-74.62 24,-72.49 24,-55.38 78.36,-55.38 80.5,-57.51 80.5,-74.62"/>
<polyline fill="none" stroke="black" points="78.36,-72.49 24,-72.49"/>
<polyline fill="none" stroke="black" points="78.36,-72.49 78.36,-55.38"/>
<polyline fill="none" stroke="black" points="78.36,-72.49 80.5,-74.62"/>
<text text-anchor="start" x="32" y="-62.08" font-family="Helvetica,sans-Serif" font-size="9.00">repository</text>
</a>
</g>
</g>
<!-- src/infrastructure/repository&#45;&gt;src/domain/entities -->
<g id="edge8" class="edge">
<title>src/infrastructure/repository&#45;&gt;src/domain/entities</title>
<path fill="none" stroke="#000000" stroke-opacity="0.200000" d="M79.76,-54.95C83.1,-53.41 86.42,-51.75 89.5,-50 97.22,-45.6 97.07,-40.81 105.5,-38 141.13,-26.12 158.58,-17.42 190,-38 210.44,-51.39 218.66,-80.03 221.92,-98.63"/>
<polygon fill="none" stroke="#000000" stroke-opacity="0.200000" points="219.82,-98.8 222.8,-104.42 223.97,-98.17 219.82,-98.8"/>
</g>
<!-- src/infrastructure/repository&#45;&gt;src/domain/constants -->
<g id="edge7" class="edge">
<title>src/infrastructure/repository&#45;&gt;src/domain/constants</title>
<path fill="none" stroke="#000000" stroke-width="2" stroke-opacity="0.200000" d="M80.91,-61.76C90.27,-60.66 100.86,-59.42 110.79,-58.26"/>
<polygon fill="#000000" fill-opacity="0.200000" stroke="#000000" stroke-width="2" stroke-opacity="0.200000" points="110.94,-60.35 116.66,-57.57 110.45,-56.18 110.94,-60.35"/>
</g>
<!-- src/infrastructure/repository&#45;&gt;src/domain/repositories -->
<g id="edge9" class="edge">
<title>src/infrastructure/repository&#45;&gt;src/domain/repositories</title>
<path fill="none" stroke="#000000" stroke-opacity="0.200000" d="M80.91,-70.89C89.36,-72.69 98.82,-74.71 107.88,-76.64"/>
<polygon fill="none" stroke="#000000" stroke-opacity="0.200000" points="107.25,-78.65 113.56,-77.85 108.13,-74.54 107.25,-78.65"/>
</g>
<!-- src/infrastructure/services -->
<g id="node10" class="node">
<title>src/infrastructure/services</title>
<g id="a_node10"><a xlink:href="src/infrastructure/services" xlink:title="services">
<polygon fill="#ffffcc" stroke="black" points="79.25,-105.62 27.39,-105.62 25.25,-103.49 25.25,-86.38 77.11,-86.38 79.25,-88.51 79.25,-105.62"/>
<polyline fill="none" stroke="black" points="77.11,-103.49 25.25,-103.49"/>
<polyline fill="none" stroke="black" points="77.11,-103.49 77.11,-86.38"/>
<polyline fill="none" stroke="black" points="77.11,-103.49 79.25,-105.62"/>
<text text-anchor="start" x="35" y="-93.08" font-family="Helvetica,sans-Serif" font-size="9.00">services</text>
</a>
</g>
</g>
<!-- src/infrastructure/services&#45;&gt;src/domain/entities -->
<g id="edge10" class="edge">
<title>src/infrastructure/services&#45;&gt;src/domain/entities</title>
<path fill="none" stroke="#000000" stroke-opacity="0.200000" d="M79.52,-104.9C83.04,-106.65 86.48,-108.67 89.5,-111 98.8,-118.16 94.99,-126.79 105.5,-132 139.15,-148.67 153.35,-140.19 190,-132 193.24,-131.28 196.53,-130.21 199.73,-128.96"/>
<polygon fill="none" stroke="#000000" stroke-opacity="0.200000" points="200.47,-130.93 205.14,-126.61 198.8,-127.08 200.47,-130.93"/>
</g>
<!-- src/infrastructure/services&#45;&gt;src/domain/repositories -->
<g id="edge11" class="edge">
<title>src/infrastructure/services&#45;&gt;src/domain/repositories</title>
<path fill="none" stroke="#000000" stroke-opacity="0.200000" d="M79.65,-92.91C88.29,-91.89 98.09,-90.75 107.49,-89.64"/>
<polygon fill="none" stroke="#000000" stroke-opacity="0.200000" points="107.7,-91.73 113.41,-88.95 107.21,-87.56 107.7,-91.73"/>
</g>
<!-- src/infrastructure/services&#45;&gt;src/domain/valueObjects -->
<g id="edge12" class="edge">
<title>src/infrastructure/services&#45;&gt;src/domain/valueObjects</title>
<path fill="none" stroke="#000000" stroke-width="2" stroke-opacity="0.200000" d="M79.65,-101.62C87.38,-103.27 96.03,-105.11 104.49,-106.92"/>
<polygon fill="#000000" fill-opacity="0.200000" stroke="#000000" stroke-width="2" stroke-opacity="0.200000" points="103.93,-108.95 110.24,-108.14 104.81,-104.84 103.93,-108.95"/>
</g>
<!-- src/infrastructure/video -->
<g id="node11" class="node">
<title>src/infrastructure/video</title>
<g id="a_node11"><a xlink:href="src/infrastructure/video" xlink:title="video">
<polygon fill="#ffffcc" stroke="black" points="79.25,-136.62 27.39,-136.62 25.25,-134.49 25.25,-117.38 77.11,-117.38 79.25,-119.51 79.25,-136.62"/>
<polyline fill="none" stroke="black" points="77.11,-134.49 25.25,-134.49"/>
<polyline fill="none" stroke="black" points="77.11,-134.49 77.11,-117.38"/>
<polyline fill="none" stroke="black" points="77.11,-134.49 79.25,-136.62"/>
<text text-anchor="start" x="41.38" y="-124.08" font-family="Helvetica,sans-Serif" font-size="9.00">video</text>
</a>
</g>
</g>
<!-- src/infrastructure/video&#45;&gt;src/domain/entities -->
<g id="edge13" class="edge">
<title>src/infrastructure/video&#45;&gt;src/domain/entities</title>
<path fill="none" stroke="#000000" stroke-opacity="0.200000" d="M79.71,-136.88C107.83,-145.84 153.21,-155.83 190,-143 197.26,-140.47 204.13,-135.67 209.77,-130.81"/>
<polygon fill="none" stroke="#000000" stroke-opacity="0.200000" points="210.87,-132.65 213.86,-127.04 208.03,-129.56 210.87,-132.65"/>
</g>
<!-- src/infrastructure/video&#45;&gt;src/domain/valueObjects -->
<g id="edge14" class="edge">
<title>src/infrastructure/video&#45;&gt;src/domain/valueObjects</title>
<path fill="none" stroke="#000000" stroke-width="2" stroke-opacity="0.200000" d="M79.65,-123.91C87.38,-123 96.03,-121.99 104.49,-121"/>
<polygon fill="#000000" fill-opacity="0.200000" stroke="#000000" stroke-width="2" stroke-opacity="0.200000" points="104.48,-123.11 110.19,-120.33 103.99,-118.94 104.48,-123.11"/>
</g>
<!-- src/presentation/components -->
<g id="node12" class="node">
<title>src/presentation/components</title>
<g id="a_node12"><a xlink:href="src/presentation/components" xlink:title="components">
<polygon fill="#ffffcc" stroke="black" points="182,-220.62 116.39,-220.62 114.25,-218.49 114.25,-201.38 179.86,-201.38 182,-203.51 182,-220.62"/>
<polyline fill="none" stroke="black" points="179.86,-218.49 114.25,-218.49"/>
<polyline fill="none" stroke="black" points="179.86,-218.49 179.86,-201.38"/>
<polyline fill="none" stroke="black" points="179.86,-218.49 182,-220.62"/>
<text text-anchor="start" x="122.25" y="-208.07" font-family="Helvetica,sans-Serif" font-size="9.00">components</text>
</a>
</g>
</g>
<!-- src/presentation/components&#45;&gt;src/domain/entities -->
<g id="edge15" class="edge">
<title>src/presentation/components&#45;&gt;src/domain/entities</title>
<path fill="none" stroke="#000000" stroke-opacity="0.200000" d="M182.24,-201.67C185.05,-200.06 187.7,-198.19 190,-196 207.89,-178.98 216.8,-151.04 220.9,-133.08"/>
<polygon fill="none" stroke="#000000" stroke-opacity="0.200000" points="222.89,-133.85 222.07,-127.55 218.78,-132.99 222.89,-133.85"/>
</g>
<!-- src/presentation/stores -->
<g id="node13" class="node">
<title>src/presentation/stores</title>
<g id="a_node13"><a xlink:href="src/presentation/stores" xlink:title="stores">
<polygon fill="#ffffcc" stroke="black" points="175.12,-189.62 123.26,-189.62 121.12,-187.49 121.12,-170.38 172.99,-170.38 175.12,-172.51 175.12,-189.62"/>
<polyline fill="none" stroke="black" points="172.99,-187.49 121.12,-187.49"/>
<polyline fill="none" stroke="black" points="172.99,-187.49 172.99,-170.38"/>
<polyline fill="none" stroke="black" points="172.99,-187.49 175.12,-189.62"/>
<text text-anchor="start" x="135" y="-177.07" font-family="Helvetica,sans-Serif" font-size="9.00">stores</text>
</a>
</g>
</g>
<!-- src/presentation/stores&#45;&gt;src/domain/entities -->
<g id="edge16" class="edge">
<title>src/presentation/stores&#45;&gt;src/domain/entities</title>
<path fill="none" stroke="#000000" stroke-opacity="0.200000" d="M169.14,-170.02C176.08,-166.11 183.7,-161.29 190,-156 198.45,-148.9 206.52,-139.56 212.67,-131.7"/>
<polygon fill="none" stroke="#000000" stroke-opacity="0.200000" points="214.1,-133.28 216.06,-127.23 210.76,-130.74 214.1,-133.28"/>
</g>
</g>
</svg>
