<?xml version="1.0" encoding="UTF-8" standalone="no"?>
<!DOCTYPE svg PUBLIC "-//W3C//DTD SVG 1.1//EN"
 "http://www.w3.org/Graphics/SVG/1.1/DTD/svg11.dtd">
<!-- Generated by graphviz version 9.0.0 (20230911.1827)
 -->
<!-- Title: dependency&#45;cruiser output Pages: 1 -->
<svg width="977pt" height="783pt"
 viewBox="0.00 0.00 977.25 783.00" xmlns="http://www.w3.org/2000/svg" xmlns:xlink="http://www.w3.org/1999/xlink">
<g id="graph0" class="graph" transform="scale(1 1) rotate(0) translate(4 779)">
<title>dependency&#45;cruiser output</title>
<polygon fill="white" stroke="none" points="-4,4 -4,-779 973.25,-779 973.25,4 -4,4"/>
<g id="clust1" class="cluster">
<title>cluster_src</title>
<path fill="#ffffff" stroke="black" stroke-width="2" d="M20,-8C20,-8 949.25,-8 949.25,-8 955.25,-8 961.25,-14 961.25,-20 961.25,-20 961.25,-755 961.25,-755 961.25,-761 955.25,-767 949.25,-767 949.25,-767 20,-767 20,-767 14,-767 8,-761 8,-755 8,-755 8,-20 8,-20 8,-14 14,-8 20,-8"/>
<text text-anchor="middle" x="484.62" y="-754.45" font-family="Helvetica,sans-Serif" font-weight="bold" font-size="9.00">src</text>
</g>
<g id="clust2" class="cluster">
<title>cluster_src/application</title>
<path fill="#ffffff" stroke="black" stroke-width="2" d="M28,-114C28,-114 414.5,-114 414.5,-114 420.5,-114 426.5,-120 426.5,-126 426.5,-126 426.5,-327 426.5,-327 426.5,-333 420.5,-339 414.5,-339 414.5,-339 28,-339 28,-339 22,-339 16,-333 16,-327 16,-327 16,-126 16,-126 16,-120 22,-114 28,-114"/>
<text text-anchor="middle" x="221.25" y="-326.45" font-family="Helvetica,sans-Serif" font-weight="bold" font-size="9.00">application</text>
</g>
<g id="clust3" class="cluster">
<title>cluster_src/application/ports</title>
<path fill="#ffffff" stroke="black" stroke-width="2" d="M331,-226C331,-226 406.5,-226 406.5,-226 412.5,-226 418.5,-232 418.5,-238 418.5,-238 418.5,-300 418.5,-300 418.5,-306 412.5,-312 406.5,-312 406.5,-312 331,-312 331,-312 325,-312 319,-306 319,-300 319,-300 319,-238 319,-238 319,-232 325,-226 331,-226"/>
<text text-anchor="middle" x="368.75" y="-299.45" font-family="Helvetica,sans-Serif" font-weight="bold" font-size="9.00">ports</text>
</g>
<g id="clust6" class="cluster">
<title>cluster_src/application/usecases</title>
<path fill="#ffffff" stroke="black" stroke-width="2" d="M134.5,-216C134.5,-216 294.75,-216 294.75,-216 300.75,-216 306.75,-222 306.75,-228 306.75,-228 306.75,-290 306.75,-290 306.75,-296 300.75,-302 294.75,-302 294.75,-302 134.5,-302 134.5,-302 128.5,-302 122.5,-296 122.5,-290 122.5,-290 122.5,-228 122.5,-228 122.5,-222 128.5,-216 134.5,-216"/>
<text text-anchor="middle" x="214.62" y="-289.45" font-family="Helvetica,sans-Serif" font-weight="bold" font-size="9.00">usecases</text>
</g>
<g id="clust4" class="cluster">
<title>cluster_src/application/services</title>
<path fill="#ffffff" stroke="black" stroke-width="2" d="M169.38,-122C169.38,-122 259.88,-122 259.88,-122 265.88,-122 271.88,-128 271.88,-134 271.88,-134 271.88,-196 271.88,-196 271.88,-202 265.88,-208 259.88,-208 259.88,-208 169.38,-208 169.38,-208 163.38,-208 157.38,-202 157.38,-196 157.38,-196 157.38,-134 157.38,-134 157.38,-128 163.38,-122 169.38,-122"/>
<text text-anchor="middle" x="214.62" y="-195.45" font-family="Helvetica,sans-Serif" font-weight="bold" font-size="9.00">services</text>
</g>
<g id="clust5" class="cluster">
<title>cluster_src/application/stores</title>
<path fill="#ffffff" stroke="black" stroke-width="2" d="M36,-252C36,-252 102.5,-252 102.5,-252 108.5,-252 114.5,-258 114.5,-264 114.5,-264 114.5,-295 114.5,-295 114.5,-301 108.5,-307 102.5,-307 102.5,-307 36,-307 36,-307 30,-307 24,-301 24,-295 24,-295 24,-264 24,-264 24,-258 30,-252 36,-252"/>
<text text-anchor="middle" x="69.25" y="-294.45" font-family="Helvetica,sans-Serif" font-weight="bold" font-size="9.00">stores</text>
</g>
<g id="clust7" class="cluster">
<title>cluster_src/domain</title>
<path fill="#ffffff" stroke="black" stroke-width="2" d="M337.75,-347C337.75,-347 941.25,-347 941.25,-347 947.25,-347 953.25,-353 953.25,-359 953.25,-359 953.25,-675 953.25,-675 953.25,-681 947.25,-687 941.25,-687 941.25,-687 337.75,-687 337.75,-687 331.75,-687 325.75,-681 325.75,-675 325.75,-675 325.75,-359 325.75,-359 325.75,-353 331.75,-347 337.75,-347"/>
<text text-anchor="middle" x="639.5" y="-674.45" font-family="Helvetica,sans-Serif" font-weight="bold" font-size="9.00">domain</text>
</g>
<g id="clust9" class="cluster">
<title>cluster_src/domain/entities</title>
<path fill="#ffffff" stroke="black" stroke-width="2" d="M588.75,-355C588.75,-355 933.25,-355 933.25,-355 939.25,-355 945.25,-361 945.25,-367 945.25,-367 945.25,-440 945.25,-440 945.25,-446 939.25,-452 933.25,-452 933.25,-452 588.75,-452 588.75,-452 582.75,-452 576.75,-446 576.75,-440 576.75,-440 576.75,-367 576.75,-367 576.75,-361 582.75,-355 588.75,-355"/>
<text text-anchor="middle" x="761" y="-439.45" font-family="Helvetica,sans-Serif" font-weight="bold" font-size="9.00">entities</text>
</g>
<g id="clust8" class="cluster">
<title>cluster_src/domain/constants</title>
<path fill="#ffffff" stroke="black" stroke-width="2" d="M345.75,-605C345.75,-605 391.75,-605 391.75,-605 397.75,-605 403.75,-611 403.75,-617 403.75,-617 403.75,-648 403.75,-648 403.75,-654 397.75,-660 391.75,-660 391.75,-660 345.75,-660 345.75,-660 339.75,-660 333.75,-654 333.75,-648 333.75,-648 333.75,-617 333.75,-617 333.75,-611 339.75,-605 345.75,-605"/>
<text text-anchor="middle" x="368.75" y="-647.45" font-family="Helvetica,sans-Serif" font-weight="bold" font-size="9.00">constants</text>
</g>
<g id="clust11" class="cluster">
<title>cluster_src/domain/valueObjects</title>
<path fill="#ffffff" stroke="black" stroke-width="2" d="M345.75,-480C345.75,-480 556.75,-480 556.75,-480 562.75,-480 568.75,-486 568.75,-492 568.75,-492 568.75,-585 568.75,-585 568.75,-591 562.75,-597 556.75,-597 556.75,-597 345.75,-597 345.75,-597 339.75,-597 333.75,-591 333.75,-585 333.75,-585 333.75,-492 333.75,-492 333.75,-486 339.75,-480 345.75,-480"/>
<text text-anchor="middle" x="451.25" y="-584.45" font-family="Helvetica,sans-Serif" font-weight="bold" font-size="9.00">valueObjects</text>
</g>
<g id="clust10" class="cluster">
<title>cluster_src/domain/repositories</title>
<path fill="#ffffff" stroke="black" stroke-width="2" d="M345.75,-355C345.75,-355 548.5,-355 548.5,-355 554.5,-355 560.5,-361 560.5,-367 560.5,-367 560.5,-460 560.5,-460 560.5,-466 554.5,-472 548.5,-472 548.5,-472 345.75,-472 345.75,-472 339.75,-472 333.75,-466 333.75,-460 333.75,-460 333.75,-367 333.75,-367 333.75,-361 339.75,-355 345.75,-355"/>
<text text-anchor="middle" x="447.12" y="-459.45" font-family="Helvetica,sans-Serif" font-weight="bold" font-size="9.00">repositories</text>
</g>
<g id="clust12" class="cluster">
<title>cluster_src/infrastructure</title>
<path fill="#ffffff" stroke="black" stroke-width="2" d="M152,-399C152,-399 277.25,-399 277.25,-399 283.25,-399 289.25,-405 289.25,-411 289.25,-411 289.25,-728 289.25,-728 289.25,-734 283.25,-740 277.25,-740 277.25,-740 152,-740 152,-740 146,-740 140,-734 140,-728 140,-728 140,-411 140,-411 140,-405 146,-399 152,-399"/>
<text text-anchor="middle" x="214.62" y="-727.45" font-family="Helvetica,sans-Serif" font-weight="bold" font-size="9.00">infrastructure</text>
</g>
<g id="clust13" class="cluster">
<title>cluster_src/infrastructure/adapters</title>
<path fill="#ffffff" stroke="black" stroke-width="2" d="M162.25,-470C162.25,-470 267,-470 267,-470 273,-470 279,-476 279,-482 279,-482 279,-544 279,-544 279,-550 273,-556 267,-556 267,-556 162.25,-556 162.25,-556 156.25,-556 150.25,-550 150.25,-544 150.25,-544 150.25,-482 150.25,-482 150.25,-476 156.25,-470 162.25,-470"/>
<text text-anchor="middle" x="214.62" y="-543.45" font-family="Helvetica,sans-Serif" font-weight="bold" font-size="9.00">adapters</text>
</g>
<g id="clust14" class="cluster">
<title>cluster_src/infrastructure/repository</title>
<path fill="#ffffff" stroke="black" stroke-width="2" d="M164.88,-564C164.88,-564 264.38,-564 264.38,-564 270.38,-564 276.38,-570 276.38,-576 276.38,-576 276.38,-638 276.38,-638 276.38,-644 270.38,-650 264.38,-650 264.38,-650 164.88,-650 164.88,-650 158.88,-650 152.88,-644 152.88,-638 152.88,-638 152.88,-576 152.88,-576 152.88,-570 158.88,-564 164.88,-564"/>
<text text-anchor="middle" x="214.62" y="-637.45" font-family="Helvetica,sans-Serif" font-weight="bold" font-size="9.00">repository</text>
</g>
<g id="clust15" class="cluster">
<title>cluster_src/infrastructure/services</title>
<path fill="#ffffff" stroke="black" stroke-width="2" d="M160,-407C160,-407 269.25,-407 269.25,-407 275.25,-407 281.25,-413 281.25,-419 281.25,-419 281.25,-450 281.25,-450 281.25,-456 275.25,-462 269.25,-462 269.25,-462 160,-462 160,-462 154,-462 148,-456 148,-450 148,-450 148,-419 148,-419 148,-413 154,-407 160,-407"/>
<text text-anchor="middle" x="214.62" y="-449.45" font-family="Helvetica,sans-Serif" font-weight="bold" font-size="9.00">services</text>
</g>
<g id="clust16" class="cluster">
<title>cluster_src/infrastructure/video</title>
<path fill="#ffffff" stroke="black" stroke-width="2" d="M172.75,-658C172.75,-658 256.5,-658 256.5,-658 262.5,-658 268.5,-664 268.5,-670 268.5,-670 268.5,-701 268.5,-701 268.5,-707 262.5,-713 256.5,-713 256.5,-713 172.75,-713 172.75,-713 166.75,-713 160.75,-707 160.75,-701 160.75,-701 160.75,-670 160.75,-670 160.75,-664 166.75,-658 172.75,-658"/>
<text text-anchor="middle" x="214.62" y="-700.45" font-family="Helvetica,sans-Serif" font-weight="bold" font-size="9.00">video</text>
</g>
<g id="clust17" class="cluster">
<title>cluster_src/presentation</title>
<path fill="#ffffff" stroke="black" stroke-width="2" d="M326.75,-16C326.75,-16 544.5,-16 544.5,-16 550.5,-16 556.5,-22 556.5,-28 556.5,-28 556.5,-94 556.5,-94 556.5,-100 550.5,-106 544.5,-106 544.5,-106 326.75,-106 326.75,-106 320.75,-106 314.75,-100 314.75,-94 314.75,-94 314.75,-28 314.75,-28 314.75,-22 320.75,-16 326.75,-16"/>
<text text-anchor="middle" x="435.62" y="-93.45" font-family="Helvetica,sans-Serif" font-weight="bold" font-size="9.00">presentation</text>
</g>
<g id="clust18" class="cluster">
<title>cluster_src/presentation/components</title>
<path fill="#ffffff" stroke="black" stroke-width="2" d="M334.75,-24C334.75,-24 536.5,-24 536.5,-24 542.5,-24 548.5,-30 548.5,-36 548.5,-36 548.5,-67 548.5,-67 548.5,-73 542.5,-79 536.5,-79 536.5,-79 334.75,-79 334.75,-79 328.75,-79 322.75,-73 322.75,-67 322.75,-67 322.75,-36 322.75,-36 322.75,-30 328.75,-24 334.75,-24"/>
<text text-anchor="middle" x="435.62" y="-66.45" font-family="Helvetica,sans-Serif" font-weight="bold" font-size="9.00">components</text>
</g>
<!-- src/application/ports/IVideoParser.ts -->
<g id="node1" class="node">
<title>src/application/ports/IVideoParser.ts</title>
<g id="a_node1"><a xlink:href="src/application/ports/IVideoParser.ts" xlink:title="IVideoParser.ts">
<path fill="#ddfeff" stroke="black" d="M401.83,-253.62C401.83,-253.62 335.67,-253.62 335.67,-253.62 332.46,-253.62 329.25,-250.42 329.25,-247.21 329.25,-247.21 329.25,-240.79 329.25,-240.79 329.25,-237.58 332.46,-234.38 335.67,-234.38 335.67,-234.38 401.83,-234.38 401.83,-234.38 405.04,-234.38 408.25,-237.58 408.25,-240.79 408.25,-240.79 408.25,-247.21 408.25,-247.21 408.25,-250.42 405.04,-253.62 401.83,-253.62"/>
<text text-anchor="start" x="337.25" y="-241.07" font-family="Helvetica,sans-Serif" font-size="9.00">IVideoParser.ts</text>
</a>
</g>
</g>
<!-- src/domain/entities/index.ts -->
<g id="node2" class="node">
<title>src/domain/entities/index.ts</title>
<g id="a_node2"><a xlink:href="src/domain/entities/index.ts" xlink:title="index.ts">
<path fill="#ddfeff" stroke="black" d="M632.33,-396.62C632.33,-396.62 591.17,-396.62 591.17,-396.62 587.96,-396.62 584.75,-393.42 584.75,-390.21 584.75,-390.21 584.75,-383.79 584.75,-383.79 584.75,-380.58 587.96,-377.38 591.17,-377.38 591.17,-377.38 632.33,-377.38 632.33,-377.38 635.54,-377.38 638.75,-380.58 638.75,-383.79 638.75,-383.79 638.75,-390.21 638.75,-390.21 638.75,-393.42 635.54,-396.62 632.33,-396.62"/>
<text text-anchor="start" x="596" y="-384.07" font-family="Helvetica,sans-Serif" font-size="9.00">index.ts</text>
</a>
</g>
</g>
<!-- src/application/ports/IVideoParser.ts&#45;&gt;src/domain/entities/index.ts -->
<g id="edge1" class="edge">
<title>src/application/ports/IVideoParser.ts&#45;&gt;src/domain/entities/index.ts</title>
<path fill="none" stroke="#000000" stroke-opacity="0.200000" d="M408.66,-243.58C452.39,-245.13 523.19,-253.96 568.75,-292 592.67,-311.97 603.43,-348.26 607.9,-369.74"/>
<polygon fill="none" stroke="#000000" stroke-opacity="0.200000" points="605.8,-369.94 608.99,-375.44 609.93,-369.15 605.8,-369.94"/>
</g>
<!-- src/domain/entities/MetadataEntity.ts -->
<g id="node12" class="node">
<title>src/domain/entities/MetadataEntity.ts</title>
<g id="a_node12"><a xlink:href="src/domain/entities/MetadataEntity.ts" xlink:title="MetadataEntity.ts">
<path fill="#ddfeff" stroke="black" d="M930.83,-387.62C930.83,-387.62 858.67,-387.62 858.67,-387.62 855.46,-387.62 852.25,-384.42 852.25,-381.21 852.25,-381.21 852.25,-374.79 852.25,-374.79 852.25,-371.58 855.46,-368.38 858.67,-368.38 858.67,-368.38 930.83,-368.38 930.83,-368.38 934.04,-368.38 937.25,-371.58 937.25,-374.79 937.25,-374.79 937.25,-381.21 937.25,-381.21 937.25,-384.42 934.04,-387.62 930.83,-387.62"/>
<text text-anchor="start" x="860.25" y="-375.07" font-family="Helvetica,sans-Serif" font-size="9.00">MetadataEntity.ts</text>
</a>
</g>
</g>
<!-- src/domain/entities/index.ts&#45;&gt;src/domain/entities/MetadataEntity.ts -->
<g id="edge19" class="edge">
<title>src/domain/entities/index.ts&#45;&gt;src/domain/entities/MetadataEntity.ts</title>
<path fill="none" stroke="#000000" stroke-opacity="0.200000" d="M632.93,-376.98C638.85,-374.53 645.43,-372.25 651.75,-371 717.65,-358.01 795.57,-363.96 844.83,-370.27"/>
<polygon fill="none" stroke="#000000" stroke-opacity="0.200000" points="844.46,-372.34 850.68,-371.05 845.01,-368.18 844.46,-372.34"/>
</g>
<!-- src/domain/entities/ParsedVideo.ts -->
<g id="node13" class="node">
<title>src/domain/entities/ParsedVideo.ts</title>
<g id="a_node13"><a xlink:href="src/domain/entities/ParsedVideo.ts" xlink:title="ParsedVideo.ts">
<path fill="#ddfeff" stroke="black" d="M724.33,-396.62C724.33,-396.62 658.17,-396.62 658.17,-396.62 654.96,-396.62 651.75,-393.42 651.75,-390.21 651.75,-390.21 651.75,-383.79 651.75,-383.79 651.75,-380.58 654.96,-377.38 658.17,-377.38 658.17,-377.38 724.33,-377.38 724.33,-377.38 727.54,-377.38 730.75,-380.58 730.75,-383.79 730.75,-383.79 730.75,-390.21 730.75,-390.21 730.75,-393.42 727.54,-396.62 724.33,-396.62"/>
<text text-anchor="start" x="659.75" y="-384.07" font-family="Helvetica,sans-Serif" font-size="9.00">ParsedVideo.ts</text>
</a>
</g>
</g>
<!-- src/domain/entities/index.ts&#45;&gt;src/domain/entities/ParsedVideo.ts -->
<g id="edge20" class="edge">
<title>src/domain/entities/index.ts&#45;&gt;src/domain/entities/ParsedVideo.ts</title>
<path fill="none" stroke="#000000" stroke-opacity="0.200000" d="M638.99,-387C640.76,-387 642.56,-387 644.39,-387"/>
<polygon fill="none" stroke="#000000" stroke-opacity="0.200000" points="644,-389.1 650,-387 644,-384.9 644,-389.1"/>
</g>
<!-- src/domain/entities/VideoStorageDto.ts -->
<g id="node14" class="node">
<title>src/domain/entities/VideoStorageDto.ts</title>
<g id="a_node14"><a xlink:href="src/domain/entities/VideoStorageDto.ts" xlink:title="VideoStorageDto.ts">
<path fill="#ddfeff" stroke="black" d="M832.83,-403.62C832.83,-403.62 750.17,-403.62 750.17,-403.62 746.96,-403.62 743.75,-400.42 743.75,-397.21 743.75,-397.21 743.75,-390.79 743.75,-390.79 743.75,-387.58 746.96,-384.38 750.17,-384.38 750.17,-384.38 832.83,-384.38 832.83,-384.38 836.04,-384.38 839.25,-387.58 839.25,-390.79 839.25,-390.79 839.25,-397.21 839.25,-397.21 839.25,-400.42 836.04,-403.62 832.83,-403.62"/>
<text text-anchor="start" x="751.75" y="-391.07" font-family="Helvetica,sans-Serif" font-size="9.00">VideoStorageDto.ts</text>
</a>
</g>
</g>
<!-- src/domain/entities/index.ts&#45;&gt;src/domain/entities/VideoStorageDto.ts -->
<g id="edge22" class="edge">
<title>src/domain/entities/index.ts&#45;&gt;src/domain/entities/VideoStorageDto.ts</title>
<path fill="none" stroke="#000000" stroke-opacity="0.200000" d="M632.93,-397.02C638.85,-399.47 645.43,-401.75 651.75,-403 679.35,-408.44 710.58,-407.06 736.41,-403.95"/>
<polygon fill="none" stroke="#000000" stroke-opacity="0.200000" points="736.36,-406.07 742.04,-403.22 735.82,-401.91 736.36,-406.07"/>
</g>
<!-- src/domain/entities/VideoEntity.ts -->
<g id="node15" class="node">
<title>src/domain/entities/VideoEntity.ts</title>
<g id="a_node15"><a xlink:href="src/domain/entities/VideoEntity.ts" xlink:title="VideoEntity.ts">
<path fill="#ddfeff" stroke="black" d="M923.71,-421.62C923.71,-421.62 865.79,-421.62 865.79,-421.62 862.58,-421.62 859.38,-418.42 859.38,-415.21 859.38,-415.21 859.38,-408.79 859.38,-408.79 859.38,-405.58 862.58,-402.38 865.79,-402.38 865.79,-402.38 923.71,-402.38 923.71,-402.38 926.92,-402.38 930.12,-405.58 930.12,-408.79 930.12,-408.79 930.12,-415.21 930.12,-415.21 930.12,-418.42 926.92,-421.62 923.71,-421.62"/>
<text text-anchor="start" x="867.38" y="-409.07" font-family="Helvetica,sans-Serif" font-size="9.00">VideoEntity.ts</text>
</a>
</g>
</g>
<!-- src/domain/entities/index.ts&#45;&gt;src/domain/entities/VideoEntity.ts -->
<g id="edge21" class="edge">
<title>src/domain/entities/index.ts&#45;&gt;src/domain/entities/VideoEntity.ts</title>
<path fill="none" stroke="#000000" stroke-opacity="0.200000" d="M627.25,-396.93C634.31,-401.2 643.12,-405.73 651.75,-408 719.96,-425.99 802.78,-422.1 851.72,-417.3"/>
<polygon fill="none" stroke="#000000" stroke-opacity="0.200000" points="851.72,-419.41 857.47,-416.71 851.29,-415.23 851.72,-419.41"/>
</g>
<!-- src/application/ports/IVideoStorage.ts -->
<g id="node3" class="node">
<title>src/application/ports/IVideoStorage.ts</title>
<g id="a_node3"><a xlink:href="src/application/ports/IVideoStorage.ts" xlink:title="IVideoStorage.ts">
<path fill="#ddfeff" stroke="black" d="M404.08,-284.62C404.08,-284.62 333.42,-284.62 333.42,-284.62 330.21,-284.62 327,-281.42 327,-278.21 327,-278.21 327,-271.79 327,-271.79 327,-268.58 330.21,-265.38 333.42,-265.38 333.42,-265.38 404.08,-265.38 404.08,-265.38 407.29,-265.38 410.5,-268.58 410.5,-271.79 410.5,-271.79 410.5,-278.21 410.5,-278.21 410.5,-281.42 407.29,-284.62 404.08,-284.62"/>
<text text-anchor="start" x="335" y="-272.07" font-family="Helvetica,sans-Serif" font-size="9.00">IVideoStorage.ts</text>
</a>
</g>
</g>
<!-- src/application/ports/IVideoStorage.ts&#45;&gt;src/domain/entities/index.ts -->
<g id="edge2" class="edge">
<title>src/application/ports/IVideoStorage.ts&#45;&gt;src/domain/entities/index.ts</title>
<path fill="none" stroke="#000000" stroke-opacity="0.200000" d="M405.85,-285.07C446.99,-297.41 515.43,-320.62 568.75,-352 578.27,-357.6 587.81,-365.34 595.39,-372.12"/>
<polygon fill="none" stroke="#000000" stroke-opacity="0.200000" points="593.81,-373.52 599.65,-376.04 596.65,-370.43 593.81,-373.52"/>
</g>
<!-- src/application/services/FileParserService.ts -->
<g id="node4" class="node">
<title>src/application/services/FileParserService.ts</title>
<g id="a_node4"><a xlink:href="src/application/services/FileParserService.ts" xlink:title="FileParserService.ts">
<path fill="#ddfeff" stroke="black" d="M257.46,-180.62C257.46,-180.62 171.79,-180.62 171.79,-180.62 168.58,-180.62 165.38,-177.42 165.38,-174.21 165.38,-174.21 165.38,-167.79 165.38,-167.79 165.38,-164.58 168.58,-161.38 171.79,-161.38 171.79,-161.38 257.46,-161.38 257.46,-161.38 260.67,-161.38 263.88,-164.58 263.88,-167.79 263.88,-167.79 263.88,-174.21 263.88,-174.21 263.88,-177.42 260.67,-180.62 257.46,-180.62"/>
<text text-anchor="start" x="173.38" y="-168.07" font-family="Helvetica,sans-Serif" font-size="9.00">FileParserService.ts</text>
</a>
</g>
</g>
<!-- src/application/services/FileParserService.ts&#45;&gt;src/application/ports/IVideoParser.ts -->
<g id="edge3" class="edge">
<title>src/application/services/FileParserService.ts&#45;&gt;src/application/ports/IVideoParser.ts</title>
<path fill="none" stroke="#000000" stroke-opacity="0.200000" d="M238.21,-181.12C256.72,-189.48 283.55,-201.76 306.75,-213 318.35,-218.62 331.07,-225.04 341.88,-230.58"/>
<polygon fill="none" stroke="#000000" stroke-opacity="0.200000" points="340.7,-232.33 346.99,-233.2 342.62,-228.59 340.7,-232.33"/>
</g>
<!-- src/application/services/FileParserService.ts&#45;&gt;src/domain/entities/index.ts -->
<g id="edge4" class="edge">
<title>src/application/services/FileParserService.ts&#45;&gt;src/domain/entities/index.ts</title>
<path fill="none" stroke="#000000" stroke-opacity="0.200000" d="M264.1,-167.27C350.06,-161.74 524.34,-155.77 568.75,-194 595.36,-216.91 606.27,-326.68 609.58,-369.68"/>
<polygon fill="none" stroke="#000000" stroke-opacity="0.200000" points="607.48,-369.78 610.01,-375.61 611.67,-369.47 607.48,-369.78"/>
</g>
<!-- src/application/services/FiltersService.ts -->
<g id="node5" class="node">
<title>src/application/services/FiltersService.ts</title>
<g id="a_node5"><a xlink:href="src/application/services/FiltersService.ts" xlink:title="FiltersService.ts">
<path fill="#ddfeff" stroke="black" d="M248.83,-149.62C248.83,-149.62 180.42,-149.62 180.42,-149.62 177.21,-149.62 174,-146.42 174,-143.21 174,-143.21 174,-136.79 174,-136.79 174,-133.58 177.21,-130.38 180.42,-130.38 180.42,-130.38 248.83,-130.38 248.83,-130.38 252.04,-130.38 255.25,-133.58 255.25,-136.79 255.25,-136.79 255.25,-143.21 255.25,-143.21 255.25,-146.42 252.04,-149.62 248.83,-149.62"/>
<text text-anchor="start" x="182" y="-137.07" font-family="Helvetica,sans-Serif" font-size="9.00">FiltersService.ts</text>
</a>
</g>
</g>
<!-- src/application/services/FiltersService.ts&#45;&gt;src/domain/entities/index.ts -->
<g id="edge5" class="edge">
<title>src/application/services/FiltersService.ts&#45;&gt;src/domain/entities/index.ts</title>
<path fill="none" stroke="#000000" stroke-opacity="0.200000" d="M255.71,-136.48C338.26,-130.13 523.34,-120.91 568.75,-161 600,-188.59 608.22,-321.66 610.18,-369.68"/>
<polygon fill="none" stroke="#000000" stroke-opacity="0.200000" points="608.08,-369.69 610.41,-375.61 612.28,-369.53 608.08,-369.69"/>
</g>
<!-- src/application/stores/videosStore.ts -->
<g id="node6" class="node">
<title>src/application/stores/videosStore.ts</title>
<g id="a_node6"><a xlink:href="src/application/stores/videosStore.ts" xlink:title="videosStore.ts">
<path fill="#ddfeff" stroke="black" d="M100.08,-279.62C100.08,-279.62 38.42,-279.62 38.42,-279.62 35.21,-279.62 32,-276.42 32,-273.21 32,-273.21 32,-266.79 32,-266.79 32,-263.58 35.21,-260.38 38.42,-260.38 38.42,-260.38 100.08,-260.38 100.08,-260.38 103.29,-260.38 106.5,-263.58 106.5,-266.79 106.5,-266.79 106.5,-273.21 106.5,-273.21 106.5,-276.42 103.29,-279.62 100.08,-279.62"/>
<text text-anchor="start" x="40" y="-267.07" font-family="Helvetica,sans-Serif" font-size="9.00">videosStore.ts</text>
</a>
</g>
</g>
<!-- src/application/stores/videosStore.ts&#45;&gt;src/domain/entities/index.ts -->
<g id="edge10" class="edge">
<title>src/application/stores/videosStore.ts&#45;&gt;src/domain/entities/index.ts</title>
<path fill="none" stroke="#000000" stroke-opacity="0.200000" d="M70.11,-260C70.33,-231.99 75.27,-152.63 122.5,-119 161.74,-91.06 540.43,-103.05 568.75,-128 605.08,-160.01 610.04,-317.46 610.67,-369.94"/>
<polygon fill="none" stroke="#000000" stroke-opacity="0.200000" points="608.57,-369.67 610.72,-375.65 612.77,-369.63 608.57,-369.67"/>
</g>
<!-- src/application/stores/videosStore.ts&#45;&gt;src/application/ports/IVideoStorage.ts -->
<g id="edge7" class="edge">
<title>src/application/stores/videosStore.ts&#45;&gt;src/application/ports/IVideoStorage.ts</title>
<path fill="none" stroke="#000000" stroke-opacity="0.200000" d="M80.86,-279.91C90.77,-288.44 106.41,-300.11 122.5,-305 200.85,-328.82 226.99,-323.55 306.75,-305 320.59,-301.78 334.9,-294.96 346.18,-288.63"/>
<polygon fill="none" stroke="#000000" stroke-opacity="0.200000" points="347,-290.58 351.13,-285.75 344.89,-286.95 347,-290.58"/>
</g>
<!-- src/infrastructure/adapters/VideoParserAdapter.ts -->
<g id="node7" class="node">
<title>src/infrastructure/adapters/VideoParserAdapter.ts</title>
<g id="a_node7"><a xlink:href="src/infrastructure/adapters/VideoParserAdapter.ts" xlink:title="VideoParserAdapter.ts">
<path fill="#ddfeff" stroke="black" d="M262.33,-497.62C262.33,-497.62 166.92,-497.62 166.92,-497.62 163.71,-497.62 160.5,-494.42 160.5,-491.21 160.5,-491.21 160.5,-484.79 160.5,-484.79 160.5,-481.58 163.71,-478.38 166.92,-478.38 166.92,-478.38 262.33,-478.38 262.33,-478.38 265.54,-478.38 268.75,-481.58 268.75,-484.79 268.75,-484.79 268.75,-491.21 268.75,-491.21 268.75,-494.42 265.54,-497.62 262.33,-497.62"/>
<text text-anchor="start" x="168.5" y="-485.07" font-family="Helvetica,sans-Serif" font-size="9.00">VideoParserAdapter.ts</text>
</a>
</g>
</g>
<!-- src/application/stores/videosStore.ts&#45;&gt;src/infrastructure/adapters/VideoParserAdapter.ts -->
<g id="edge6" class="edge">
<title>src/application/stores/videosStore.ts&#45;&gt;src/infrastructure/adapters/VideoParserAdapter.ts</title>
<path fill="none" stroke="#000000" stroke-width="2" stroke-opacity="0.200000" d="M69.69,-279.77C68.46,-311.46 69.08,-412.35 122.5,-465 130.48,-472.86 140.73,-478.16 151.46,-481.71"/>
<polygon fill="#000000" fill-opacity="0.200000" stroke="#000000" stroke-width="2" stroke-opacity="0.200000" points="150.88,-483.73 157.23,-483.36 152.04,-479.69 150.88,-483.73"/>
</g>
<!-- src/application/usecases/AddVideosFromFilesUseCase.ts -->
<g id="node8" class="node">
<title>src/application/usecases/AddVideosFromFilesUseCase.ts</title>
<g id="a_node8"><a xlink:href="src/application/usecases/AddVideosFromFilesUseCase.ts" xlink:title="AddVideosFromFilesUseCase.ts">
<path fill="#ddfeff" stroke="black" d="M284.08,-243.62C284.08,-243.62 145.17,-243.62 145.17,-243.62 141.96,-243.62 138.75,-240.42 138.75,-237.21 138.75,-237.21 138.75,-230.79 138.75,-230.79 138.75,-227.58 141.96,-224.38 145.17,-224.38 145.17,-224.38 284.08,-224.38 284.08,-224.38 287.29,-224.38 290.5,-227.58 290.5,-230.79 290.5,-230.79 290.5,-237.21 290.5,-237.21 290.5,-240.42 287.29,-243.62 284.08,-243.62"/>
<text text-anchor="start" x="146.75" y="-231.07" font-family="Helvetica,sans-Serif" font-size="9.00">AddVideosFromFilesUseCase.ts</text>
</a>
</g>
</g>
<!-- src/application/stores/videosStore.ts&#45;&gt;src/application/usecases/AddVideosFromFilesUseCase.ts -->
<g id="edge8" class="edge">
<title>src/application/stores/videosStore.ts&#45;&gt;src/application/usecases/AddVideosFromFilesUseCase.ts</title>
<path fill="none" stroke="#000000" stroke-width="2" stroke-opacity="0.200000" d="M92.25,-259.91C101.44,-256.03 112.33,-251.84 122.5,-249 126.25,-247.95 130.11,-246.97 134.02,-246.04"/>
<polygon fill="#000000" fill-opacity="0.200000" stroke="#000000" stroke-width="2" stroke-opacity="0.200000" points="134.3,-248.13 139.69,-244.78 133.38,-244.03 134.3,-248.13"/>
</g>
<!-- src/application/usecases/UpdateVideoThumbnailsUseCase.ts -->
<g id="node9" class="node">
<title>src/application/usecases/UpdateVideoThumbnailsUseCase.ts</title>
<g id="a_node9"><a xlink:href="src/application/usecases/UpdateVideoThumbnailsUseCase.ts" xlink:title="UpdateVideoThumbnailsUseCase.ts">
<path fill="#ddfeff" stroke="black" d="M292.33,-274.62C292.33,-274.62 136.92,-274.62 136.92,-274.62 133.71,-274.62 130.5,-271.42 130.5,-268.21 130.5,-268.21 130.5,-261.79 130.5,-261.79 130.5,-258.58 133.71,-255.38 136.92,-255.38 136.92,-255.38 292.33,-255.38 292.33,-255.38 295.54,-255.38 298.75,-258.58 298.75,-261.79 298.75,-261.79 298.75,-268.21 298.75,-268.21 298.75,-271.42 295.54,-274.62 292.33,-274.62"/>
<text text-anchor="start" x="138.5" y="-262.07" font-family="Helvetica,sans-Serif" font-size="9.00">UpdateVideoThumbnailsUseCase.ts</text>
</a>
</g>
</g>
<!-- src/application/stores/videosStore.ts&#45;&gt;src/application/usecases/UpdateVideoThumbnailsUseCase.ts -->
<g id="edge9" class="edge">
<title>src/application/stores/videosStore.ts&#45;&gt;src/application/usecases/UpdateVideoThumbnailsUseCase.ts</title>
<path fill="none" stroke="#000000" stroke-width="2" stroke-opacity="0.200000" d="M106.8,-268.73C111.48,-268.56 116.42,-268.39 121.51,-268.21"/>
<polygon fill="#000000" fill-opacity="0.200000" stroke="#000000" stroke-width="2" stroke-opacity="0.200000" points="121.26,-270.32 127.18,-268.01 121.11,-266.13 121.26,-270.32"/>
</g>
<!-- src/infrastructure/adapters/VideoStorageAdapter.ts -->
<g id="node10" class="node">
<title>src/infrastructure/adapters/VideoStorageAdapter.ts</title>
<g id="a_node10"><a xlink:href="src/infrastructure/adapters/VideoStorageAdapter.ts" xlink:title="VideoStorageAdapter.ts">
<path fill="#ddfeff" stroke="black" d="M264.58,-528.62C264.58,-528.62 164.67,-528.62 164.67,-528.62 161.46,-528.62 158.25,-525.42 158.25,-522.21 158.25,-522.21 158.25,-515.79 158.25,-515.79 158.25,-512.58 161.46,-509.38 164.67,-509.38 164.67,-509.38 264.58,-509.38 264.58,-509.38 267.79,-509.38 271,-512.58 271,-515.79 271,-515.79 271,-522.21 271,-522.21 271,-525.42 267.79,-528.62 264.58,-528.62"/>
<text text-anchor="start" x="166.25" y="-516.08" font-family="Helvetica,sans-Serif" font-size="9.00">VideoStorageAdapter.ts</text>
</a>
</g>
</g>
<!-- src/application/stores/videosStore.ts&#45;&gt;src/infrastructure/adapters/VideoStorageAdapter.ts -->
<g id="edge11" class="edge">
<title>src/application/stores/videosStore.ts&#45;&gt;src/infrastructure/adapters/VideoStorageAdapter.ts</title>
<path fill="none" stroke="#000000" stroke-width="2" stroke-opacity="0.200000" d="M71.02,-279.88C74.35,-320.29 88.99,-472.34 122.5,-504 129.89,-510.98 139.21,-515.43 149.05,-518.16"/>
<polygon fill="#000000" fill-opacity="0.200000" stroke="#000000" stroke-width="2" stroke-opacity="0.200000" points="148.53,-520.2 154.85,-519.48 149.46,-516.1 148.53,-520.2"/>
</g>
<!-- src/infrastructure/adapters/VideoParserAdapter.ts&#45;&gt;src/application/ports/IVideoParser.ts -->
<g id="edge33" class="edge">
<title>src/infrastructure/adapters/VideoParserAdapter.ts&#45;&gt;src/application/ports/IVideoParser.ts</title>
<path fill="none" stroke="#000000" stroke-opacity="0.200000" d="M269.22,-485.92C283.49,-482.64 297.5,-476.41 306.75,-465 321.17,-447.21 300.58,-277 314.75,-259 316.93,-256.23 319.57,-253.95 322.51,-252.08"/>
<polygon fill="none" stroke="#000000" stroke-opacity="0.200000" points="323.19,-254.09 327.55,-249.46 321.25,-250.36 323.19,-254.09"/>
</g>
<!-- src/infrastructure/adapters/VideoParserAdapter.ts&#45;&gt;src/domain/entities/index.ts -->
<g id="edge34" class="edge">
<title>src/infrastructure/adapters/VideoParserAdapter.ts&#45;&gt;src/domain/entities/index.ts</title>
<path fill="none" stroke="#000000" stroke-opacity="0.200000" d="M268.77,-485.15C283.04,-487.17 297.15,-492.22 306.75,-503 319.18,-516.96 301.23,-658.1 314.75,-671 350.7,-705.27 377.23,-677.3 426.5,-671 491.3,-662.71 524.59,-682.14 568.75,-634 599.73,-600.23 608.17,-454.69 610.18,-404.27"/>
<polygon fill="none" stroke="#000000" stroke-opacity="0.200000" points="612.27,-404.62 610.4,-398.54 608.07,-404.46 612.27,-404.62"/>
</g>
<!-- src/application/usecases/AddVideosFromFilesUseCase.ts&#45;&gt;src/application/ports/IVideoParser.ts -->
<g id="edge12" class="edge">
<title>src/application/usecases/AddVideosFromFilesUseCase.ts&#45;&gt;src/application/ports/IVideoParser.ts</title>
<path fill="none" stroke="#000000" stroke-opacity="0.200000" d="M290.8,-238.94C301.29,-239.63 311.82,-240.32 321.56,-240.96"/>
<polygon fill="none" stroke="#000000" stroke-opacity="0.200000" points="321.21,-243.05 327.34,-241.34 321.49,-238.85 321.21,-243.05"/>
</g>
<!-- src/application/usecases/AddVideosFromFilesUseCase.ts&#45;&gt;src/domain/entities/index.ts -->
<g id="edge13" class="edge">
<title>src/application/usecases/AddVideosFromFilesUseCase.ts&#45;&gt;src/domain/entities/index.ts</title>
<path fill="none" stroke="#000000" stroke-opacity="0.200000" d="M253.93,-223.94C272.2,-219.64 294.46,-215.13 314.75,-213 370.89,-207.12 524.6,-179.83 568.75,-215 593.04,-234.35 605.15,-330.33 609.18,-369.9"/>
<polygon fill="none" stroke="#000000" stroke-opacity="0.200000" points="607.07,-369.96 609.75,-375.72 611.25,-369.55 607.07,-369.96"/>
</g>
<!-- src/application/usecases/UpdateVideoThumbnailsUseCase.ts&#45;&gt;src/domain/entities/index.ts -->
<g id="edge15" class="edge">
<title>src/application/usecases/UpdateVideoThumbnailsUseCase.ts&#45;&gt;src/domain/entities/index.ts</title>
<path fill="none" stroke="#000000" stroke-opacity="0.200000" d="M299.04,-255.67C301.76,-254 304.35,-252.12 306.75,-250 316.14,-241.72 304.72,-230.49 314.75,-223 337.43,-206.07 547.3,-223.53 568.75,-242 606.49,-274.49 611.34,-338.64 611.34,-369.54"/>
<polygon fill="none" stroke="#000000" stroke-opacity="0.200000" points="609.24,-369.45 611.26,-375.47 613.44,-369.5 609.24,-369.45"/>
</g>
<!-- src/application/usecases/UpdateVideoThumbnailsUseCase.ts&#45;&gt;src/application/ports/IVideoStorage.ts -->
<g id="edge14" class="edge">
<title>src/application/usecases/UpdateVideoThumbnailsUseCase.ts&#45;&gt;src/application/ports/IVideoStorage.ts</title>
<path fill="none" stroke="#000000" stroke-opacity="0.200000" d="M298.81,-270.47C305.94,-270.94 312.99,-271.4 319.7,-271.84"/>
<polygon fill="none" stroke="#000000" stroke-opacity="0.200000" points="319.2,-273.91 325.32,-272.21 319.47,-269.72 319.2,-273.91"/>
</g>
<!-- src/infrastructure/adapters/VideoStorageAdapter.ts&#45;&gt;src/domain/entities/index.ts -->
<g id="edge36" class="edge">
<title>src/infrastructure/adapters/VideoStorageAdapter.ts&#45;&gt;src/domain/entities/index.ts</title>
<path fill="none" stroke="#000000" stroke-opacity="0.200000" d="M260.14,-528.99C277.54,-535.23 295.9,-545.21 306.75,-561 322.14,-583.39 294.92,-664.43 314.75,-683 356.18,-721.8 529.27,-696.79 568.75,-656 603.69,-619.9 609.56,-458.25 610.55,-404.47"/>
<polygon fill="none" stroke="#000000" stroke-opacity="0.200000" points="612.65,-404.62 610.64,-398.58 608.45,-404.55 612.65,-404.62"/>
</g>
<!-- src/infrastructure/adapters/VideoStorageAdapter.ts&#45;&gt;src/application/ports/IVideoStorage.ts -->
<g id="edge35" class="edge">
<title>src/infrastructure/adapters/VideoStorageAdapter.ts&#45;&gt;src/application/ports/IVideoStorage.ts</title>
<path fill="none" stroke="#000000" stroke-opacity="0.200000" d="M271.12,-521.45C284.56,-519.22 297.66,-514.15 306.75,-504 318.03,-491.4 309.31,-368.01 314.75,-352 322.87,-328.13 340.65,-304.87 353.38,-290.27"/>
<polygon fill="none" stroke="#000000" stroke-opacity="0.200000" points="354.71,-291.94 357.14,-286.06 351.58,-289.14 354.71,-291.94"/>
</g>
<!-- src/domain/constants/index.ts -->
<g id="node11" class="node">
<title>src/domain/constants/index.ts</title>
<g id="a_node11"><a xlink:href="src/domain/constants/index.ts" xlink:title="index.ts">
<path fill="#ddfeff" stroke="black" d="M389.33,-632.62C389.33,-632.62 348.17,-632.62 348.17,-632.62 344.96,-632.62 341.75,-629.42 341.75,-626.21 341.75,-626.21 341.75,-619.79 341.75,-619.79 341.75,-616.58 344.96,-613.38 348.17,-613.38 348.17,-613.38 389.33,-613.38 389.33,-613.38 392.54,-613.38 395.75,-616.58 395.75,-619.79 395.75,-619.79 395.75,-626.21 395.75,-626.21 395.75,-629.42 392.54,-632.62 389.33,-632.62"/>
<text text-anchor="start" x="353" y="-620.08" font-family="Helvetica,sans-Serif" font-size="9.00">index.ts</text>
</a>
</g>
</g>
<!-- src/domain/entities/ParsedVideo.ts&#45;&gt;src/domain/entities/VideoStorageDto.ts -->
<g id="edge16" class="edge">
<title>src/domain/entities/ParsedVideo.ts&#45;&gt;src/domain/entities/VideoStorageDto.ts</title>
<path fill="none" stroke="#000000" stroke-opacity="0.200000" d="M731.08,-389.77C732.74,-389.88 734.41,-390 736.09,-390.12"/>
<polygon fill="none" stroke="#000000" stroke-opacity="0.200000" points="735.84,-392.21 741.98,-390.54 736.14,-388.02 735.84,-392.21"/>
</g>
<!-- src/domain/entities/VideoStorageDto.ts&#45;&gt;src/domain/entities/MetadataEntity.ts -->
<g id="edge17" class="edge">
<title>src/domain/entities/VideoStorageDto.ts&#45;&gt;src/domain/entities/MetadataEntity.ts</title>
<path fill="none" stroke="#000000" stroke-opacity="0.200000" d="M839.57,-386.56C841.25,-386.3 842.93,-386.03 844.61,-385.77"/>
<polygon fill="none" stroke="#000000" stroke-opacity="0.200000" points="844.85,-387.85 850.45,-384.84 844.2,-383.7 844.85,-387.85"/>
</g>
<!-- src/domain/entities/VideoStorageDto.ts&#45;&gt;src/domain/entities/VideoEntity.ts -->
<g id="edge18" class="edge">
<title>src/domain/entities/VideoStorageDto.ts&#45;&gt;src/domain/entities/VideoEntity.ts</title>
<path fill="none" stroke="#000000" stroke-opacity="0.200000" d="M839.57,-402.37C843.63,-403.09 847.73,-403.82 851.76,-404.53"/>
<polygon fill="none" stroke="#000000" stroke-opacity="0.200000" points="851.13,-406.56 857.4,-405.54 851.86,-402.42 851.13,-406.56"/>
</g>
<!-- src/domain/repositories/IMetadataRepository.ts -->
<g id="node16" class="node">
<title>src/domain/repositories/IMetadataRepository.ts</title>
<g id="a_node16"><a xlink:href="src/domain/repositories/IMetadataRepository.ts" xlink:title="IMetadataRepository.ts">
<path fill="#ddfeff" stroke="black" d="M546.08,-382.62C546.08,-382.62 449.17,-382.62 449.17,-382.62 445.96,-382.62 442.75,-379.42 442.75,-376.21 442.75,-376.21 442.75,-369.79 442.75,-369.79 442.75,-366.58 445.96,-363.38 449.17,-363.38 449.17,-363.38 546.08,-363.38 546.08,-363.38 549.29,-363.38 552.5,-366.58 552.5,-369.79 552.5,-369.79 552.5,-376.21 552.5,-376.21 552.5,-379.42 549.29,-382.62 546.08,-382.62"/>
<text text-anchor="start" x="450.75" y="-370.07" font-family="Helvetica,sans-Serif" font-size="9.00">IMetadataRepository.ts</text>
</a>
</g>
</g>
<!-- src/domain/repositories/IMetadataRepository.ts&#45;&gt;src/domain/entities/index.ts -->
<g id="edge23" class="edge">
<title>src/domain/repositories/IMetadataRepository.ts&#45;&gt;src/domain/entities/index.ts</title>
<path fill="none" stroke="#000000" stroke-opacity="0.200000" d="M552.72,-379.75C560.95,-380.78 569.24,-381.82 576.87,-382.77"/>
<polygon fill="none" stroke="#000000" stroke-opacity="0.200000" points="576.55,-384.85 582.76,-383.51 577.07,-380.68 576.55,-384.85"/>
</g>
<!-- src/domain/repositories/IVideoFacade.ts -->
<g id="node17" class="node">
<title>src/domain/repositories/IVideoFacade.ts</title>
<g id="a_node17"><a xlink:href="src/domain/repositories/IVideoFacade.ts" xlink:title="IVideoFacade.ts">
<path fill="#ddfeff" stroke="black" d="M532.21,-413.62C532.21,-413.62 463.04,-413.62 463.04,-413.62 459.83,-413.62 456.62,-410.42 456.62,-407.21 456.62,-407.21 456.62,-400.79 456.62,-400.79 456.62,-397.58 459.83,-394.38 463.04,-394.38 463.04,-394.38 532.21,-394.38 532.21,-394.38 535.42,-394.38 538.62,-397.58 538.62,-400.79 538.62,-400.79 538.62,-407.21 538.62,-407.21 538.62,-410.42 535.42,-413.62 532.21,-413.62"/>
<text text-anchor="start" x="464.62" y="-401.07" font-family="Helvetica,sans-Serif" font-size="9.00">IVideoFacade.ts</text>
</a>
</g>
</g>
<!-- src/domain/repositories/IVideoFacade.ts&#45;&gt;src/domain/entities/index.ts -->
<g id="edge24" class="edge">
<title>src/domain/repositories/IVideoFacade.ts&#45;&gt;src/domain/entities/index.ts</title>
<path fill="none" stroke="#000000" stroke-opacity="0.200000" d="M539.1,-397.86C551.57,-395.97 565.16,-393.91 577.11,-392.1"/>
<polygon fill="none" stroke="#000000" stroke-opacity="0.200000" points="577.21,-394.21 582.82,-391.23 576.58,-390.06 577.21,-394.21"/>
</g>
<!-- src/domain/repositories/IVideoRepository.ts -->
<g id="node18" class="node">
<title>src/domain/repositories/IVideoRepository.ts</title>
<g id="a_node18"><a xlink:href="src/domain/repositories/IVideoRepository.ts" xlink:title="IVideoRepository.ts">
<path fill="#ddfeff" stroke="black" d="M538.96,-444.62C538.96,-444.62 456.29,-444.62 456.29,-444.62 453.08,-444.62 449.88,-441.42 449.88,-438.21 449.88,-438.21 449.88,-431.79 449.88,-431.79 449.88,-428.58 453.08,-425.38 456.29,-425.38 456.29,-425.38 538.96,-425.38 538.96,-425.38 542.17,-425.38 545.38,-428.58 545.38,-431.79 545.38,-431.79 545.38,-438.21 545.38,-438.21 545.38,-441.42 542.17,-444.62 538.96,-444.62"/>
<text text-anchor="start" x="457.88" y="-432.07" font-family="Helvetica,sans-Serif" font-size="9.00">IVideoRepository.ts</text>
</a>
</g>
</g>
<!-- src/domain/repositories/IVideoRepository.ts&#45;&gt;src/domain/entities/index.ts -->
<g id="edge25" class="edge">
<title>src/domain/repositories/IVideoRepository.ts&#45;&gt;src/domain/entities/index.ts</title>
<path fill="none" stroke="#000000" stroke-opacity="0.200000" d="M545.62,-428.05C553.55,-426.01 561.54,-423.38 568.75,-420 578.52,-415.42 588.08,-408.19 595.61,-401.66"/>
<polygon fill="none" stroke="#000000" stroke-opacity="0.200000" points="596.76,-403.45 599.82,-397.87 593.95,-400.33 596.76,-403.45"/>
</g>
<!-- src/domain/repositories/index.ts -->
<g id="node19" class="node">
<title>src/domain/repositories/index.ts</title>
<g id="a_node19"><a xlink:href="src/domain/repositories/index.ts" xlink:title="index.ts">
<path fill="#ddfeff" stroke="black" d="M389.33,-439.62C389.33,-439.62 348.17,-439.62 348.17,-439.62 344.96,-439.62 341.75,-436.42 341.75,-433.21 341.75,-433.21 341.75,-426.79 341.75,-426.79 341.75,-423.58 344.96,-420.38 348.17,-420.38 348.17,-420.38 389.33,-420.38 389.33,-420.38 392.54,-420.38 395.75,-423.58 395.75,-426.79 395.75,-426.79 395.75,-433.21 395.75,-433.21 395.75,-436.42 392.54,-439.62 389.33,-439.62"/>
<text text-anchor="start" x="353" y="-427.07" font-family="Helvetica,sans-Serif" font-size="9.00">index.ts</text>
</a>
</g>
</g>
<!-- src/domain/repositories/index.ts&#45;&gt;src/domain/repositories/IMetadataRepository.ts -->
<g id="edge26" class="edge">
<title>src/domain/repositories/index.ts&#45;&gt;src/domain/repositories/IMetadataRepository.ts</title>
<path fill="none" stroke="#000000" stroke-opacity="0.200000" d="M382.4,-419.92C394.95,-410.4 415.05,-396.36 434.5,-388 436.64,-387.08 438.85,-386.21 441.1,-385.39"/>
<polygon fill="none" stroke="#000000" stroke-opacity="0.200000" points="441.5,-387.47 446.51,-383.55 440.15,-383.49 441.5,-387.47"/>
</g>
<!-- src/domain/repositories/index.ts&#45;&gt;src/domain/repositories/IVideoFacade.ts -->
<g id="edge27" class="edge">
<title>src/domain/repositories/index.ts&#45;&gt;src/domain/repositories/IVideoFacade.ts</title>
<path fill="none" stroke="#000000" stroke-opacity="0.200000" d="M396.04,-424.61C411.42,-421.46 431.29,-417.39 449.31,-413.7"/>
<polygon fill="none" stroke="#000000" stroke-opacity="0.200000" points="449.43,-415.81 454.89,-412.55 448.59,-411.7 449.43,-415.81"/>
</g>
<!-- src/domain/repositories/index.ts&#45;&gt;src/domain/repositories/IVideoRepository.ts -->
<g id="edge28" class="edge">
<title>src/domain/repositories/index.ts&#45;&gt;src/domain/repositories/IVideoRepository.ts</title>
<path fill="none" stroke="#000000" stroke-opacity="0.200000" d="M396.04,-431.04C409.45,-431.56 426.27,-432.23 442.3,-432.86"/>
<polygon fill="none" stroke="#000000" stroke-opacity="0.200000" points="442.01,-434.95 448.08,-433.09 442.17,-430.75 442.01,-434.95"/>
</g>
<!-- src/domain/valueObjects/ParsedVideoData.ts -->
<g id="node20" class="node">
<title>src/domain/valueObjects/ParsedVideoData.ts</title>
<g id="a_node20"><a xlink:href="src/domain/valueObjects/ParsedVideoData.ts" xlink:title="ParsedVideoData.ts">
<path fill="#ddfeff" stroke="black" d="M540.46,-507.62C540.46,-507.62 454.79,-507.62 454.79,-507.62 451.58,-507.62 448.38,-504.42 448.38,-501.21 448.38,-501.21 448.38,-494.79 448.38,-494.79 448.38,-491.58 451.58,-488.38 454.79,-488.38 454.79,-488.38 540.46,-488.38 540.46,-488.38 543.67,-488.38 546.88,-491.58 546.88,-494.79 546.88,-494.79 546.88,-501.21 546.88,-501.21 546.88,-504.42 543.67,-507.62 540.46,-507.62"/>
<text text-anchor="start" x="456.38" y="-495.07" font-family="Helvetica,sans-Serif" font-size="9.00">ParsedVideoData.ts</text>
</a>
</g>
</g>
<!-- src/domain/valueObjects/Thumbs.ts -->
<g id="node21" class="node">
<title>src/domain/valueObjects/Thumbs.ts</title>
<g id="a_node21"><a xlink:href="src/domain/valueObjects/Thumbs.ts" xlink:title="Thumbs.ts">
<path fill="#ddfeff" stroke="black" d="M521.33,-538.62C521.33,-538.62 473.92,-538.62 473.92,-538.62 470.71,-538.62 467.5,-535.42 467.5,-532.21 467.5,-532.21 467.5,-525.79 467.5,-525.79 467.5,-522.58 470.71,-519.38 473.92,-519.38 473.92,-519.38 521.33,-519.38 521.33,-519.38 524.54,-519.38 527.75,-522.58 527.75,-525.79 527.75,-525.79 527.75,-532.21 527.75,-532.21 527.75,-535.42 524.54,-538.62 521.33,-538.62"/>
<text text-anchor="start" x="475.5" y="-526.08" font-family="Helvetica,sans-Serif" font-size="9.00">Thumbs.ts</text>
</a>
</g>
</g>
<!-- src/domain/valueObjects/VideoStorageDtoMapper.ts -->
<g id="node22" class="node">
<title>src/domain/valueObjects/VideoStorageDtoMapper.ts</title>
<g id="a_node22"><a xlink:href="src/domain/valueObjects/VideoStorageDtoMapper.ts" xlink:title="VideoStorageDtoMapper.ts">
<path fill="#ddfeff" stroke="black" d="M554.33,-569.62C554.33,-569.62 440.92,-569.62 440.92,-569.62 437.71,-569.62 434.5,-566.42 434.5,-563.21 434.5,-563.21 434.5,-556.79 434.5,-556.79 434.5,-553.58 437.71,-550.38 440.92,-550.38 440.92,-550.38 554.33,-550.38 554.33,-550.38 557.54,-550.38 560.75,-553.58 560.75,-556.79 560.75,-556.79 560.75,-563.21 560.75,-563.21 560.75,-566.42 557.54,-569.62 554.33,-569.62"/>
<text text-anchor="start" x="442.5" y="-557.08" font-family="Helvetica,sans-Serif" font-size="9.00">VideoStorageDtoMapper.ts</text>
</a>
</g>
</g>
<!-- src/domain/valueObjects/VideoStorageDtoMapper.ts&#45;&gt;src/domain/entities/index.ts -->
<g id="edge29" class="edge">
<title>src/domain/valueObjects/VideoStorageDtoMapper.ts&#45;&gt;src/domain/entities/index.ts</title>
<path fill="none" stroke="#000000" stroke-opacity="0.200000" d="M561.05,-550.84C563.81,-549.17 566.41,-547.23 568.75,-545 608.36,-507.29 612.14,-436.85 611.58,-404.3"/>
<polygon fill="none" stroke="#000000" stroke-opacity="0.200000" points="613.68,-404.33 611.41,-398.4 609.49,-404.46 613.68,-404.33"/>
</g>
<!-- src/domain/valueObjects/index.ts -->
<g id="node23" class="node">
<title>src/domain/valueObjects/index.ts</title>
<g id="a_node23"><a xlink:href="src/domain/valueObjects/index.ts" xlink:title="index.ts">
<path fill="#ddfeff" stroke="black" d="M389.33,-538.62C389.33,-538.62 348.17,-538.62 348.17,-538.62 344.96,-538.62 341.75,-535.42 341.75,-532.21 341.75,-532.21 341.75,-525.79 341.75,-525.79 341.75,-522.58 344.96,-519.38 348.17,-519.38 348.17,-519.38 389.33,-519.38 389.33,-519.38 392.54,-519.38 395.75,-522.58 395.75,-525.79 395.75,-525.79 395.75,-532.21 395.75,-532.21 395.75,-535.42 392.54,-538.62 389.33,-538.62"/>
<text text-anchor="start" x="353" y="-526.08" font-family="Helvetica,sans-Serif" font-size="9.00">index.ts</text>
</a>
</g>
</g>
<!-- src/domain/valueObjects/index.ts&#45;&gt;src/domain/valueObjects/ParsedVideoData.ts -->
<g id="edge30" class="edge">
<title>src/domain/valueObjects/index.ts&#45;&gt;src/domain/valueObjects/ParsedVideoData.ts</title>
<path fill="none" stroke="#000000" stroke-width="2" stroke-opacity="0.200000" d="M396.2,-522.43C407.93,-519.52 421.9,-516.08 454.85,-508.06"/>
<polygon fill="#000000" fill-opacity="0.200000" stroke="#000000" stroke-width="2" stroke-opacity="0.200000" points="457.65,-506.66 461.55,-514.76 453.45,-510.86 457.65,-506.66"/>
</g>
<!-- src/domain/valueObjects/index.ts&#45;&gt;src/domain/valueObjects/Thumbs.ts -->
<g id="edge31" class="edge">
<title>src/domain/valueObjects/index.ts&#45;&gt;src/domain/valueObjects/Thumbs.ts</title>
<path fill="none" stroke="#000000" stroke-opacity="0.200000" d="M396.04,-529C414.53,-529 439.51,-529 459.96,-529"/>
<polygon fill="none" stroke="#000000" stroke-opacity="0.200000" points="459.75,-531.1 465.75,-529 459.75,-526.9 459.75,-531.1"/>
</g>
<!-- src/domain/valueObjects/index.ts&#45;&gt;src/domain/valueObjects/VideoStorageDtoMapper.ts -->
<g id="edge32" class="edge">
<title>src/domain/valueObjects/index.ts&#45;&gt;src/domain/valueObjects/VideoStorageDtoMapper.ts</title>
<path fill="none" stroke="#000000" stroke-width="2" stroke-opacity="0.200000" d="M396.2,-535.57C407.93,-538.48 421.9,-541.92 454.85,-549.94"/>
<polygon fill="#000000" fill-opacity="0.200000" stroke="#000000" stroke-width="2" stroke-opacity="0.200000" points="457.65,-548.55 461.55,-556.65 453.45,-552.75 457.65,-548.55"/>
</g>
<!-- src/infrastructure/repository/MetadataRepository.ts -->
<g id="node24" class="node">
<title>src/infrastructure/repository/MetadataRepository.ts</title>
<g id="a_node24"><a xlink:href="src/infrastructure/repository/MetadataRepository.ts" xlink:title="MetadataRepository.ts">
<path fill="#ddfeff" stroke="black" d="M261.96,-622.62C261.96,-622.62 167.29,-622.62 167.29,-622.62 164.08,-622.62 160.88,-619.42 160.88,-616.21 160.88,-616.21 160.88,-609.79 160.88,-609.79 160.88,-606.58 164.08,-603.38 167.29,-603.38 167.29,-603.38 261.96,-603.38 261.96,-603.38 265.17,-603.38 268.38,-606.58 268.38,-609.79 268.38,-609.79 268.38,-616.21 268.38,-616.21 268.38,-619.42 265.17,-622.62 261.96,-622.62"/>
<text text-anchor="start" x="168.88" y="-610.08" font-family="Helvetica,sans-Serif" font-size="9.00">MetadataRepository.ts</text>
</a>
</g>
</g>
<!-- src/infrastructure/repository/MetadataRepository.ts&#45;&gt;src/domain/entities/index.ts -->
<g id="edge38" class="edge">
<title>src/infrastructure/repository/MetadataRepository.ts&#45;&gt;src/domain/entities/index.ts</title>
<path fill="none" stroke="#000000" stroke-opacity="0.200000" d="M257.98,-623.03C275.65,-629.34 294.81,-639.35 306.75,-655 319.87,-672.19 298.25,-689.02 314.75,-703 335.22,-720.34 563.07,-698.31 568.75,-693 611,-653.46 611.86,-463.06 611.09,-404.3"/>
<polygon fill="none" stroke="#000000" stroke-opacity="0.200000" points="613.19,-404.4 611,-398.43 609,-404.46 613.19,-404.4"/>
</g>
<!-- src/infrastructure/repository/MetadataRepository.ts&#45;&gt;src/domain/constants/index.ts -->
<g id="edge37" class="edge">
<title>src/infrastructure/repository/MetadataRepository.ts&#45;&gt;src/domain/constants/index.ts</title>
<path fill="none" stroke="#000000" stroke-width="2" stroke-opacity="0.200000" d="M268.83,-616.5C289.89,-617.88 313.53,-619.44 332.41,-620.68"/>
<polygon fill="#000000" fill-opacity="0.200000" stroke="#000000" stroke-width="2" stroke-opacity="0.200000" points="332.12,-622.76 338.25,-621.06 332.4,-618.57 332.12,-622.76"/>
</g>
<!-- src/infrastructure/repository/MetadataRepository.ts&#45;&gt;src/domain/repositories/index.ts -->
<g id="edge39" class="edge">
<title>src/infrastructure/repository/MetadataRepository.ts&#45;&gt;src/domain/repositories/index.ts</title>
<path fill="none" stroke="#000000" stroke-opacity="0.200000" d="M268.65,-615.74C282.91,-613.71 297.05,-608.69 306.75,-598 324.86,-578.04 302.89,-501.2 314.75,-477 321.33,-463.58 333.6,-452.31 344.68,-444.18"/>
<polygon fill="none" stroke="#000000" stroke-opacity="0.200000" points="345.72,-446.01 349.43,-440.85 343.31,-442.57 345.72,-446.01"/>
</g>
<!-- src/infrastructure/repository/VideoRepository.ts -->
<g id="node25" class="node">
<title>src/infrastructure/repository/VideoRepository.ts</title>
<g id="a_node25"><a xlink:href="src/infrastructure/repository/VideoRepository.ts" xlink:title="VideoRepository.ts">
<path fill="#ddfeff" stroke="black" d="M254.83,-591.62C254.83,-591.62 174.42,-591.62 174.42,-591.62 171.21,-591.62 168,-588.42 168,-585.21 168,-585.21 168,-578.79 168,-578.79 168,-575.58 171.21,-572.38 174.42,-572.38 174.42,-572.38 254.83,-572.38 254.83,-572.38 258.04,-572.38 261.25,-575.58 261.25,-578.79 261.25,-578.79 261.25,-585.21 261.25,-585.21 261.25,-588.42 258.04,-591.62 254.83,-591.62"/>
<text text-anchor="start" x="176" y="-579.08" font-family="Helvetica,sans-Serif" font-size="9.00">VideoRepository.ts</text>
</a>
</g>
</g>
<!-- src/infrastructure/repository/VideoRepository.ts&#45;&gt;src/domain/entities/index.ts -->
<g id="edge41" class="edge">
<title>src/infrastructure/repository/VideoRepository.ts&#45;&gt;src/domain/entities/index.ts</title>
<path fill="none" stroke="#000000" stroke-opacity="0.200000" d="M261.43,-578.57C277.97,-579.87 295.35,-584.62 306.75,-597 321.7,-613.24 298.53,-681.03 314.75,-696 338.38,-717.79 565.96,-683.69 568.75,-681 608.64,-642.55 611.15,-461.49 610.93,-404.33"/>
<polygon fill="none" stroke="#000000" stroke-opacity="0.200000" points="613.04,-404.62 610.9,-398.63 608.84,-404.65 613.04,-404.62"/>
</g>
<!-- src/infrastructure/repository/VideoRepository.ts&#45;&gt;src/domain/constants/index.ts -->
<g id="edge40" class="edge">
<title>src/infrastructure/repository/VideoRepository.ts&#45;&gt;src/domain/constants/index.ts</title>
<path fill="none" stroke="#000000" stroke-width="2" stroke-opacity="0.200000" d="M261.53,-587.36C276.15,-589.65 292.28,-592.79 306.75,-597 310.02,-597.95 323.32,-603.59 336.67,-609.37"/>
<polygon fill="#000000" fill-opacity="0.200000" stroke="#000000" stroke-width="2" stroke-opacity="0.200000" points="335.78,-611.27 342.12,-611.74 337.46,-607.42 335.78,-611.27"/>
</g>
<!-- src/infrastructure/repository/VideoRepository.ts&#45;&gt;src/domain/repositories/index.ts -->
<g id="edge42" class="edge">
<title>src/infrastructure/repository/VideoRepository.ts&#45;&gt;src/domain/repositories/index.ts</title>
<path fill="none" stroke="#000000" stroke-opacity="0.200000" d="M261.67,-580.99C278.24,-578.19 295.58,-571.99 306.75,-559 318.69,-545.12 306.44,-493.31 314.75,-477 321.53,-463.69 333.82,-452.42 344.85,-444.26"/>
<polygon fill="none" stroke="#000000" stroke-opacity="0.200000" points="345.88,-446.11 349.57,-440.93 343.46,-442.67 345.88,-446.11"/>
</g>
<!-- src/infrastructure/services/VideoMetadataFacade.ts -->
<g id="node26" class="node">
<title>src/infrastructure/services/VideoMetadataFacade.ts</title>
<g id="a_node26"><a xlink:href="src/infrastructure/services/VideoMetadataFacade.ts" xlink:title="VideoMetadataFacade.ts">
<path fill="#ddfeff" stroke="black" d="M266.83,-434.62C266.83,-434.62 162.42,-434.62 162.42,-434.62 159.21,-434.62 156,-431.42 156,-428.21 156,-428.21 156,-421.79 156,-421.79 156,-418.58 159.21,-415.38 162.42,-415.38 162.42,-415.38 266.83,-415.38 266.83,-415.38 270.04,-415.38 273.25,-418.58 273.25,-421.79 273.25,-421.79 273.25,-428.21 273.25,-428.21 273.25,-431.42 270.04,-434.62 266.83,-434.62"/>
<text text-anchor="start" x="164" y="-422.07" font-family="Helvetica,sans-Serif" font-size="9.00">VideoMetadataFacade.ts</text>
</a>
</g>
</g>
<!-- src/infrastructure/services/VideoMetadataFacade.ts&#45;&gt;src/domain/entities/index.ts -->
<g id="edge43" class="edge">
<title>src/infrastructure/services/VideoMetadataFacade.ts&#45;&gt;src/domain/entities/index.ts</title>
<path fill="none" stroke="#000000" stroke-opacity="0.200000" d="M260.81,-435.03C278.1,-441.26 296.19,-451.22 306.75,-467 318.87,-485.11 299.03,-647.91 314.75,-663 332.66,-680.2 402.2,-668.14 426.5,-663 494.15,-648.69 525.58,-654.01 568.75,-600 593.06,-569.59 605.49,-449.54 609.38,-404.34"/>
<polygon fill="none" stroke="#000000" stroke-opacity="0.200000" points="611.45,-404.7 609.86,-398.55 607.27,-404.35 611.45,-404.7"/>
</g>
<!-- src/infrastructure/services/VideoMetadataFacade.ts&#45;&gt;src/domain/repositories/index.ts -->
<g id="edge44" class="edge">
<title>src/infrastructure/services/VideoMetadataFacade.ts&#45;&gt;src/domain/repositories/index.ts</title>
<path fill="none" stroke="#000000" stroke-opacity="0.200000" d="M273.57,-426.9C294,-427.58 316.27,-428.31 334.03,-428.89"/>
<polygon fill="none" stroke="#000000" stroke-opacity="0.200000" points="333.76,-430.98 339.83,-429.08 333.9,-426.79 333.76,-430.98"/>
</g>
<!-- src/infrastructure/services/VideoMetadataFacade.ts&#45;&gt;src/domain/valueObjects/index.ts -->
<g id="edge45" class="edge">
<title>src/infrastructure/services/VideoMetadataFacade.ts&#45;&gt;src/domain/valueObjects/index.ts</title>
<path fill="none" stroke="#000000" stroke-width="2" stroke-opacity="0.200000" d="M244.15,-435.05C262.86,-442.37 287.37,-453.38 306.75,-467 307.41,-467.46 334.12,-494.69 351.98,-512.9"/>
<polygon fill="#000000" fill-opacity="0.200000" stroke="#000000" stroke-width="2" stroke-opacity="0.200000" points="350.27,-514.16 355.97,-516.98 353.27,-511.22 350.27,-514.16"/>
</g>
<!-- src/infrastructure/video/VideoFileParser.ts -->
<g id="node27" class="node">
<title>src/infrastructure/video/VideoFileParser.ts</title>
<g id="a_node27"><a xlink:href="src/infrastructure/video/VideoFileParser.ts" xlink:title="VideoFileParser.ts">
<path fill="#ddfeff" stroke="black" d="M254.08,-685.62C254.08,-685.62 175.17,-685.62 175.17,-685.62 171.96,-685.62 168.75,-682.42 168.75,-679.21 168.75,-679.21 168.75,-672.79 168.75,-672.79 168.75,-669.58 171.96,-666.38 175.17,-666.38 175.17,-666.38 254.08,-666.38 254.08,-666.38 257.29,-666.38 260.5,-669.58 260.5,-672.79 260.5,-672.79 260.5,-679.21 260.5,-679.21 260.5,-682.42 257.29,-685.62 254.08,-685.62"/>
<text text-anchor="start" x="176.75" y="-673.08" font-family="Helvetica,sans-Serif" font-size="9.00">VideoFileParser.ts</text>
</a>
</g>
</g>
<!-- src/infrastructure/video/VideoFileParser.ts&#45;&gt;src/domain/entities/index.ts -->
<g id="edge46" class="edge">
<title>src/infrastructure/video/VideoFileParser.ts&#45;&gt;src/domain/entities/index.ts</title>
<path fill="none" stroke="#000000" stroke-opacity="0.200000" d="M234.81,-685.99C293.5,-715.04 472.52,-791.97 568.75,-704 613.16,-663.4 612.47,-464.27 611.22,-404.19"/>
<polygon fill="none" stroke="#000000" stroke-opacity="0.200000" points="613.33,-404.43 611.09,-398.48 609.13,-404.53 613.33,-404.43"/>
</g>
<!-- src/infrastructure/video/VideoFileParser.ts&#45;&gt;src/domain/valueObjects/index.ts -->
<g id="edge47" class="edge">
<title>src/infrastructure/video/VideoFileParser.ts&#45;&gt;src/domain/valueObjects/index.ts</title>
<path fill="none" stroke="#000000" stroke-width="2" stroke-opacity="0.200000" d="M260.81,-674.72C277.47,-671.92 295.09,-665.78 306.75,-653 322.21,-636.05 305.99,-623.21 314.75,-602 323.61,-580.55 339.97,-559.48 352.18,-545.53"/>
<polygon fill="#000000" fill-opacity="0.200000" stroke="#000000" stroke-width="2" stroke-opacity="0.200000" points="353.65,-547.03 356.1,-541.17 350.52,-544.23 353.65,-547.03"/>
</g>
<!-- src/presentation/components/VideoCard.vue -->
<g id="node28" class="node">
<title>src/presentation/components/VideoCard.vue</title>
<g id="a_node28"><a xlink:href="src/presentation/components/VideoCard.vue" xlink:title="VideoCard.vue">
<path fill="#41f083" stroke="black" d="M400.33,-51.62C400.33,-51.62 337.17,-51.62 337.17,-51.62 333.96,-51.62 330.75,-48.42 330.75,-45.21 330.75,-45.21 330.75,-38.79 330.75,-38.79 330.75,-35.58 333.96,-32.38 337.17,-32.38 337.17,-32.38 400.33,-32.38 400.33,-32.38 403.54,-32.38 406.75,-35.58 406.75,-38.79 406.75,-38.79 406.75,-45.21 406.75,-45.21 406.75,-48.42 403.54,-51.62 400.33,-51.62"/>
<text text-anchor="start" x="338.75" y="-39.08" font-family="Helvetica,sans-Serif" font-size="9.00">VideoCard.vue</text>
</a>
</g>
</g>
<!-- src/presentation/components/VideoCard.vue&#45;&gt;src/domain/entities/index.ts -->
<g id="edge49" class="edge">
<title>src/presentation/components/VideoCard.vue&#45;&gt;src/domain/entities/index.ts</title>
<path fill="none" stroke="#000000" stroke-opacity="0.200000" d="M405.12,-52.11C459.36,-67.92 557.96,-98.04 568.75,-111 601.78,-150.69 608.92,-315.49 610.39,-369.66"/>
<polygon fill="none" stroke="#000000" stroke-opacity="0.200000" points="608.29,-369.64 610.54,-375.58 612.49,-369.53 608.29,-369.64"/>
</g>
<!-- src/presentation/components/VideoEmbed.vue -->
<g id="node29" class="node">
<title>src/presentation/components/VideoEmbed.vue</title>
<g id="a_node29"><a xlink:href="src/presentation/components/VideoEmbed.vue" xlink:title="VideoEmbed.vue">
<path fill="#41f083" stroke="black" d="M534.08,-51.62C534.08,-51.62 461.17,-51.62 461.17,-51.62 457.96,-51.62 454.75,-48.42 454.75,-45.21 454.75,-45.21 454.75,-38.79 454.75,-38.79 454.75,-35.58 457.96,-32.38 461.17,-32.38 461.17,-32.38 534.08,-32.38 534.08,-32.38 537.29,-32.38 540.5,-35.58 540.5,-38.79 540.5,-38.79 540.5,-45.21 540.5,-45.21 540.5,-48.42 537.29,-51.62 534.08,-51.62"/>
<text text-anchor="start" x="462.75" y="-39.08" font-family="Helvetica,sans-Serif" font-size="9.00">VideoEmbed.vue</text>
</a>
</g>
</g>
<!-- src/presentation/components/VideoCard.vue&#45;&gt;src/presentation/components/VideoEmbed.vue -->
<g id="edge48" class="edge">
<title>src/presentation/components/VideoCard.vue&#45;&gt;src/presentation/components/VideoEmbed.vue</title>
<path fill="none" stroke="#000000" stroke-width="2" stroke-opacity="0.200000" d="M407.13,-42C419.25,-42 432.9,-42 445.82,-42"/>
<polygon fill="#000000" fill-opacity="0.200000" stroke="#000000" stroke-width="2" stroke-opacity="0.200000" points="445.59,-44.1 451.59,-42 445.59,-39.9 445.59,-44.1"/>
</g>
<!-- src/presentation/components/VideoEmbed.vue&#45;&gt;src/domain/entities/index.ts -->
<g id="edge50" class="edge">
<title>src/presentation/components/VideoEmbed.vue&#45;&gt;src/domain/entities/index.ts</title>
<path fill="none" stroke="#000000" stroke-opacity="0.200000" d="M532.2,-52.11C545.64,-57.86 559.99,-66.48 568.75,-79 602.06,-126.62 609.05,-312.11 610.43,-369.79"/>
<polygon fill="none" stroke="#000000" stroke-opacity="0.200000" points="608.32,-369.58 610.56,-375.54 612.52,-369.49 608.32,-369.58"/>
</g>
</g>
</svg>
