<?xml version="1.0" encoding="UTF-8" standalone="no"?>
<!DOCTYPE svg PUBLIC "-//W3C//DTD SVG 1.1//EN"
 "http://www.w3.org/Graphics/SVG/1.1/DTD/svg11.dtd">
<!-- Generated by graphviz version 9.0.0 (20230911.1827)
 -->
<!-- Title: dependency&#45;cruiser output Pages: 1 -->
<svg width="821pt" height="689pt"
 viewBox="0.00 0.00 821.00 689.00" xmlns="http://www.w3.org/2000/svg" xmlns:xlink="http://www.w3.org/1999/xlink">
<g id="graph0" class="graph" transform="scale(1 1) rotate(0) translate(4 685)">
<title>dependency&#45;cruiser output</title>
<polygon fill="white" stroke="none" points="-4,4 -4,-685 817,-685 817,4 -4,4"/>
<g id="clust1" class="cluster">
<title>cluster_src</title>
<path fill="#ffffff" stroke="black" stroke-width="2" d="M20,-8C20,-8 793,-8 793,-8 799,-8 805,-14 805,-20 805,-20 805,-661 805,-661 805,-667 799,-673 793,-673 793,-673 20,-673 20,-673 14,-673 8,-667 8,-661 8,-661 8,-20 8,-20 8,-14 14,-8 20,-8"/>
<text text-anchor="middle" x="406.5" y="-660.45" font-family="Helvetica,sans-Serif" font-weight="bold" font-size="9.00">src</text>
</g>
<g id="clust2" class="cluster">
<title>cluster_src/application</title>
<path fill="#ffffff" stroke="black" stroke-width="2" d="M288.12,-462C288.12,-462 394.62,-462 394.62,-462 400.62,-462 406.62,-468 406.62,-474 406.62,-474 406.62,-634 406.62,-634 406.62,-640 400.62,-646 394.62,-646 394.62,-646 288.12,-646 288.12,-646 282.12,-646 276.12,-640 276.12,-634 276.12,-634 276.12,-474 276.12,-474 276.12,-468 282.12,-462 288.12,-462"/>
<text text-anchor="middle" x="341.38" y="-633.45" font-family="Helvetica,sans-Serif" font-weight="bold" font-size="9.00">application</text>
</g>
<g id="clust3" class="cluster">
<title>cluster_src/application/services</title>
<path fill="#ffffff" stroke="black" stroke-width="2" d="M296.12,-533C296.12,-533 386.62,-533 386.62,-533 392.62,-533 398.62,-539 398.62,-545 398.62,-545 398.62,-607 398.62,-607 398.62,-613 392.62,-619 386.62,-619 386.62,-619 296.12,-619 296.12,-619 290.12,-619 284.12,-613 284.12,-607 284.12,-607 284.12,-545 284.12,-545 284.12,-539 290.12,-533 296.12,-533"/>
<text text-anchor="middle" x="341.38" y="-606.45" font-family="Helvetica,sans-Serif" font-weight="bold" font-size="9.00">services</text>
</g>
<g id="clust4" class="cluster">
<title>cluster_src/application/stores</title>
<path fill="#ffffff" stroke="black" stroke-width="2" d="M308.12,-470C308.12,-470 374.62,-470 374.62,-470 380.62,-470 386.62,-476 386.62,-482 386.62,-482 386.62,-513 386.62,-513 386.62,-519 380.62,-525 374.62,-525 374.62,-525 308.12,-525 308.12,-525 302.12,-525 296.12,-519 296.12,-513 296.12,-513 296.12,-482 296.12,-482 296.12,-476 302.12,-470 308.12,-470"/>
<text text-anchor="middle" x="341.38" y="-512.45" font-family="Helvetica,sans-Serif" font-weight="bold" font-size="9.00">stores</text>
</g>
<g id="clust5" class="cluster">
<title>cluster_src/domain</title>
<path fill="#ffffff" stroke="black" stroke-width="2" d="M196.25,-114C196.25,-114 785,-114 785,-114 791,-114 797,-120 797,-126 797,-126 797,-442 797,-442 797,-448 791,-454 785,-454 785,-454 196.25,-454 196.25,-454 190.25,-454 184.25,-448 184.25,-442 184.25,-442 184.25,-126 184.25,-126 184.25,-120 190.25,-114 196.25,-114"/>
<text text-anchor="middle" x="490.62" y="-441.45" font-family="Helvetica,sans-Serif" font-weight="bold" font-size="9.00">domain</text>
</g>
<g id="clust6" class="cluster">
<title>cluster_src/domain/constants</title>
<path fill="#ffffff" stroke="black" stroke-width="2" d="M204.25,-372C204.25,-372 250.25,-372 250.25,-372 256.25,-372 262.25,-378 262.25,-384 262.25,-384 262.25,-415 262.25,-415 262.25,-421 256.25,-427 250.25,-427 250.25,-427 204.25,-427 204.25,-427 198.25,-427 192.25,-421 192.25,-415 192.25,-415 192.25,-384 192.25,-384 192.25,-378 198.25,-372 204.25,-372"/>
<text text-anchor="middle" x="227.25" y="-414.45" font-family="Helvetica,sans-Serif" font-weight="bold" font-size="9.00">constants</text>
</g>
<g id="clust8" class="cluster">
<title>cluster_src/domain/repositories</title>
<path fill="#ffffff" stroke="black" stroke-width="2" d="M204.25,-247C204.25,-247 392.25,-247 392.25,-247 398.25,-247 404.25,-253 404.25,-259 404.25,-259 404.25,-352 404.25,-352 404.25,-358 398.25,-364 392.25,-364 392.25,-364 204.25,-364 204.25,-364 198.25,-364 192.25,-358 192.25,-352 192.25,-352 192.25,-259 192.25,-259 192.25,-253 198.25,-247 204.25,-247"/>
<text text-anchor="middle" x="298.25" y="-351.45" font-family="Helvetica,sans-Serif" font-weight="bold" font-size="9.00">repositories</text>
</g>
<g id="clust7" class="cluster">
<title>cluster_src/domain/entities</title>
<path fill="#ffffff" stroke="black" stroke-width="2" d="M432.5,-330C432.5,-330 777,-330 777,-330 783,-330 789,-336 789,-342 789,-342 789,-415 789,-415 789,-421 783,-427 777,-427 777,-427 432.5,-427 432.5,-427 426.5,-427 420.5,-421 420.5,-415 420.5,-415 420.5,-342 420.5,-342 420.5,-336 426.5,-330 432.5,-330"/>
<text text-anchor="middle" x="604.75" y="-414.45" font-family="Helvetica,sans-Serif" font-weight="bold" font-size="9.00">entities</text>
</g>
<g id="clust9" class="cluster">
<title>cluster_src/domain/valueObjects</title>
<path fill="#ffffff" stroke="black" stroke-width="2" d="M204.25,-122C204.25,-122 400.5,-122 400.5,-122 406.5,-122 412.5,-128 412.5,-134 412.5,-134 412.5,-227 412.5,-227 412.5,-233 406.5,-239 400.5,-239 400.5,-239 204.25,-239 204.25,-239 198.25,-239 192.25,-233 192.25,-227 192.25,-227 192.25,-134 192.25,-134 192.25,-128 198.25,-122 204.25,-122"/>
<text text-anchor="middle" x="302.38" y="-226.45" font-family="Helvetica,sans-Serif" font-weight="bold" font-size="9.00">valueObjects</text>
</g>
<g id="clust10" class="cluster">
<title>cluster_src/infrastructure</title>
<path fill="#ffffff" stroke="black" stroke-width="2" d="M28,-295C28,-295 153.25,-295 153.25,-295 159.25,-295 165.25,-301 165.25,-307 165.25,-307 165.25,-530 165.25,-530 165.25,-536 159.25,-542 153.25,-542 153.25,-542 28,-542 28,-542 22,-542 16,-536 16,-530 16,-530 16,-307 16,-307 16,-301 22,-295 28,-295"/>
<text text-anchor="middle" x="90.62" y="-529.45" font-family="Helvetica,sans-Serif" font-weight="bold" font-size="9.00">infrastructure</text>
</g>
<g id="clust11" class="cluster">
<title>cluster_src/infrastructure/repository</title>
<path fill="#ffffff" stroke="black" stroke-width="2" d="M40.88,-366C40.88,-366 140.38,-366 140.38,-366 146.38,-366 152.38,-372 152.38,-378 152.38,-378 152.38,-440 152.38,-440 152.38,-446 146.38,-452 140.38,-452 140.38,-452 40.88,-452 40.88,-452 34.88,-452 28.88,-446 28.88,-440 28.88,-440 28.88,-378 28.88,-378 28.88,-372 34.88,-366 40.88,-366"/>
<text text-anchor="middle" x="90.62" y="-439.45" font-family="Helvetica,sans-Serif" font-weight="bold" font-size="9.00">repository</text>
</g>
<g id="clust12" class="cluster">
<title>cluster_src/infrastructure/services</title>
<path fill="#ffffff" stroke="black" stroke-width="2" d="M36,-303C36,-303 145.25,-303 145.25,-303 151.25,-303 157.25,-309 157.25,-315 157.25,-315 157.25,-346 157.25,-346 157.25,-352 151.25,-358 145.25,-358 145.25,-358 36,-358 36,-358 30,-358 24,-352 24,-346 24,-346 24,-315 24,-315 24,-309 30,-303 36,-303"/>
<text text-anchor="middle" x="90.62" y="-345.45" font-family="Helvetica,sans-Serif" font-weight="bold" font-size="9.00">services</text>
</g>
<g id="clust13" class="cluster">
<title>cluster_src/infrastructure/video</title>
<path fill="#ffffff" stroke="black" stroke-width="2" d="M48.75,-460C48.75,-460 132.5,-460 132.5,-460 138.5,-460 144.5,-466 144.5,-472 144.5,-472 144.5,-503 144.5,-503 144.5,-509 138.5,-515 132.5,-515 132.5,-515 48.75,-515 48.75,-515 42.75,-515 36.75,-509 36.75,-503 36.75,-503 36.75,-472 36.75,-472 36.75,-466 42.75,-460 48.75,-460"/>
<text text-anchor="middle" x="90.62" y="-502.45" font-family="Helvetica,sans-Serif" font-weight="bold" font-size="9.00">video</text>
</g>
<g id="clust14" class="cluster">
<title>cluster_src/presentation</title>
<path fill="#ffffff" stroke="black" stroke-width="2" d="M185.25,-16C185.25,-16 388.25,-16 388.25,-16 394.25,-16 400.25,-22 400.25,-28 400.25,-28 400.25,-94 400.25,-94 400.25,-100 394.25,-106 388.25,-106 388.25,-106 185.25,-106 185.25,-106 179.25,-106 173.25,-100 173.25,-94 173.25,-94 173.25,-28 173.25,-28 173.25,-22 179.25,-16 185.25,-16"/>
<text text-anchor="middle" x="286.75" y="-93.45" font-family="Helvetica,sans-Serif" font-weight="bold" font-size="9.00">presentation</text>
</g>
<g id="clust15" class="cluster">
<title>cluster_src/presentation/components</title>
<path fill="#ffffff" stroke="black" stroke-width="2" d="M193.25,-24C193.25,-24 380.25,-24 380.25,-24 386.25,-24 392.25,-30 392.25,-36 392.25,-36 392.25,-67 392.25,-67 392.25,-73 386.25,-79 380.25,-79 380.25,-79 193.25,-79 193.25,-79 187.25,-79 181.25,-73 181.25,-67 181.25,-67 181.25,-36 181.25,-36 181.25,-30 187.25,-24 193.25,-24"/>
<text text-anchor="middle" x="286.75" y="-66.45" font-family="Helvetica,sans-Serif" font-weight="bold" font-size="9.00">components</text>
</g>
<!-- src/application/services/FileParserService.ts -->
<g id="node1" class="node">
<title>src/application/services/FileParserService.ts</title>
<g id="a_node1"><a xlink:href="src/application/services/FileParserService.ts" xlink:title="FileParserService.ts">
<path fill="#ddfeff" stroke="black" d="M384.21,-591.62C384.21,-591.62 298.54,-591.62 298.54,-591.62 295.33,-591.62 292.12,-588.42 292.12,-585.21 292.12,-585.21 292.12,-578.79 292.12,-578.79 292.12,-575.58 295.33,-572.38 298.54,-572.38 298.54,-572.38 384.21,-572.38 384.21,-572.38 387.42,-572.38 390.62,-575.58 390.62,-578.79 390.62,-578.79 390.62,-585.21 390.62,-585.21 390.62,-588.42 387.42,-591.62 384.21,-591.62"/>
<text text-anchor="start" x="300.12" y="-579.08" font-family="Helvetica,sans-Serif" font-size="9.00">FileParserService.ts</text>
</a>
</g>
</g>
<!-- src/domain/entities/index.ts -->
<g id="node2" class="node">
<title>src/domain/entities/index.ts</title>
<g id="a_node2"><a xlink:href="src/domain/entities/index.ts" xlink:title="index.ts">
<path fill="#ddfeff" stroke="black" d="M476.08,-394.62C476.08,-394.62 434.92,-394.62 434.92,-394.62 431.71,-394.62 428.5,-391.42 428.5,-388.21 428.5,-388.21 428.5,-381.79 428.5,-381.79 428.5,-378.58 431.71,-375.38 434.92,-375.38 434.92,-375.38 476.08,-375.38 476.08,-375.38 479.29,-375.38 482.5,-378.58 482.5,-381.79 482.5,-381.79 482.5,-388.21 482.5,-388.21 482.5,-391.42 479.29,-394.62 476.08,-394.62"/>
<text text-anchor="start" x="439.75" y="-382.07" font-family="Helvetica,sans-Serif" font-size="9.00">index.ts</text>
</a>
</g>
</g>
<!-- src/application/services/FileParserService.ts&#45;&gt;src/domain/entities/index.ts -->
<g id="edge1" class="edge">
<title>src/application/services/FileParserService.ts&#45;&gt;src/domain/entities/index.ts</title>
<path fill="none" stroke="#000000" stroke-opacity="0.200000" d="M390.88,-579.11C398.92,-576.67 406.55,-572.85 412.5,-567 436.01,-543.86 448.68,-442.56 452.89,-401.94"/>
<polygon fill="none" stroke="#000000" stroke-opacity="0.200000" points="454.96,-402.35 453.47,-396.17 450.78,-401.93 454.96,-402.35"/>
</g>
<!-- src/domain/entities/MetadataEntity.ts -->
<g id="node6" class="node">
<title>src/domain/entities/MetadataEntity.ts</title>
<g id="a_node6"><a xlink:href="src/domain/entities/MetadataEntity.ts" xlink:title="MetadataEntity.ts">
<path fill="#ddfeff" stroke="black" d="M774.58,-362.62C774.58,-362.62 702.42,-362.62 702.42,-362.62 699.21,-362.62 696,-359.42 696,-356.21 696,-356.21 696,-349.79 696,-349.79 696,-346.58 699.21,-343.38 702.42,-343.38 702.42,-343.38 774.58,-343.38 774.58,-343.38 777.79,-343.38 781,-346.58 781,-349.79 781,-349.79 781,-356.21 781,-356.21 781,-359.42 777.79,-362.62 774.58,-362.62"/>
<text text-anchor="start" x="704" y="-350.07" font-family="Helvetica,sans-Serif" font-size="9.00">MetadataEntity.ts</text>
</a>
</g>
</g>
<!-- src/domain/entities/index.ts&#45;&gt;src/domain/entities/MetadataEntity.ts -->
<g id="edge7" class="edge">
<title>src/domain/entities/index.ts&#45;&gt;src/domain/entities/MetadataEntity.ts</title>
<path fill="none" stroke="#000000" stroke-opacity="0.200000" d="M462.87,-375.13C469.65,-365.63 481.35,-351.86 495.5,-346 560.27,-319.17 643.37,-330.27 693.42,-341.27"/>
<polygon fill="none" stroke="#000000" stroke-opacity="0.200000" points="692.77,-343.28 699.08,-342.55 693.7,-339.18 692.77,-343.28"/>
</g>
<!-- src/domain/entities/ParsedVideo.ts -->
<g id="node7" class="node">
<title>src/domain/entities/ParsedVideo.ts</title>
<g id="a_node7"><a xlink:href="src/domain/entities/ParsedVideo.ts" xlink:title="ParsedVideo.ts">
<path fill="#ddfeff" stroke="black" d="M568.08,-371.62C568.08,-371.62 501.92,-371.62 501.92,-371.62 498.71,-371.62 495.5,-368.42 495.5,-365.21 495.5,-365.21 495.5,-358.79 495.5,-358.79 495.5,-355.58 498.71,-352.38 501.92,-352.38 501.92,-352.38 568.08,-352.38 568.08,-352.38 571.29,-352.38 574.5,-355.58 574.5,-358.79 574.5,-358.79 574.5,-365.21 574.5,-365.21 574.5,-368.42 571.29,-371.62 568.08,-371.62"/>
<text text-anchor="start" x="503.5" y="-359.07" font-family="Helvetica,sans-Serif" font-size="9.00">ParsedVideo.ts</text>
</a>
</g>
</g>
<!-- src/domain/entities/index.ts&#45;&gt;src/domain/entities/ParsedVideo.ts -->
<g id="edge8" class="edge">
<title>src/domain/entities/index.ts&#45;&gt;src/domain/entities/ParsedVideo.ts</title>
<path fill="none" stroke="#000000" stroke-opacity="0.200000" d="M482.74,-377.21C486.02,-376.24 489.44,-375.22 492.89,-374.2"/>
<polygon fill="none" stroke="#000000" stroke-opacity="0.200000" points="493.35,-376.25 498.51,-372.53 492.16,-372.23 493.35,-376.25"/>
</g>
<!-- src/domain/entities/VideoStorageDto.ts -->
<g id="node8" class="node">
<title>src/domain/entities/VideoStorageDto.ts</title>
<g id="a_node8"><a xlink:href="src/domain/entities/VideoStorageDto.ts" xlink:title="VideoStorageDto.ts">
<path fill="#ddfeff" stroke="black" d="M676.58,-378.62C676.58,-378.62 593.92,-378.62 593.92,-378.62 590.71,-378.62 587.5,-375.42 587.5,-372.21 587.5,-372.21 587.5,-365.79 587.5,-365.79 587.5,-362.58 590.71,-359.38 593.92,-359.38 593.92,-359.38 676.58,-359.38 676.58,-359.38 679.79,-359.38 683,-362.58 683,-365.79 683,-365.79 683,-372.21 683,-372.21 683,-375.42 679.79,-378.62 676.58,-378.62"/>
<text text-anchor="start" x="595.5" y="-366.07" font-family="Helvetica,sans-Serif" font-size="9.00">VideoStorageDto.ts</text>
</a>
</g>
</g>
<!-- src/domain/entities/index.ts&#45;&gt;src/domain/entities/VideoStorageDto.ts -->
<g id="edge10" class="edge">
<title>src/domain/entities/index.ts&#45;&gt;src/domain/entities/VideoStorageDto.ts</title>
<path fill="none" stroke="#000000" stroke-opacity="0.200000" d="M482.8,-384.12C506.75,-383.16 543.07,-381.29 574.5,-378 576.28,-377.81 578.09,-377.61 579.91,-377.4"/>
<polygon fill="none" stroke="#000000" stroke-opacity="0.200000" points="579.81,-379.53 585.51,-376.7 579.29,-375.36 579.81,-379.53"/>
</g>
<!-- src/domain/entities/VideoEntity.ts -->
<g id="node9" class="node">
<title>src/domain/entities/VideoEntity.ts</title>
<g id="a_node9"><a xlink:href="src/domain/entities/VideoEntity.ts" xlink:title="VideoEntity.ts">
<path fill="#ddfeff" stroke="black" d="M767.46,-396.62C767.46,-396.62 709.54,-396.62 709.54,-396.62 706.33,-396.62 703.12,-393.42 703.12,-390.21 703.12,-390.21 703.12,-383.79 703.12,-383.79 703.12,-380.58 706.33,-377.38 709.54,-377.38 709.54,-377.38 767.46,-377.38 767.46,-377.38 770.67,-377.38 773.88,-380.58 773.88,-383.79 773.88,-383.79 773.88,-390.21 773.88,-390.21 773.88,-393.42 770.67,-396.62 767.46,-396.62"/>
<text text-anchor="start" x="711.12" y="-384.07" font-family="Helvetica,sans-Serif" font-size="9.00">VideoEntity.ts</text>
</a>
</g>
</g>
<!-- src/domain/entities/index.ts&#45;&gt;src/domain/entities/VideoEntity.ts -->
<g id="edge9" class="edge">
<title>src/domain/entities/index.ts&#45;&gt;src/domain/entities/VideoEntity.ts</title>
<path fill="none" stroke="#000000" stroke-opacity="0.200000" d="M482.94,-385.19C531.81,-385.54 636.64,-386.28 695.39,-386.7"/>
<polygon fill="none" stroke="#000000" stroke-opacity="0.200000" points="695.14,-388.8 701.15,-386.74 695.17,-384.6 695.14,-388.8"/>
</g>
<!-- src/application/services/FiltersService.ts -->
<g id="node3" class="node">
<title>src/application/services/FiltersService.ts</title>
<g id="a_node3"><a xlink:href="src/application/services/FiltersService.ts" xlink:title="FiltersService.ts">
<path fill="#ddfeff" stroke="black" d="M375.58,-560.62C375.58,-560.62 307.17,-560.62 307.17,-560.62 303.96,-560.62 300.75,-557.42 300.75,-554.21 300.75,-554.21 300.75,-547.79 300.75,-547.79 300.75,-544.58 303.96,-541.38 307.17,-541.38 307.17,-541.38 375.58,-541.38 375.58,-541.38 378.79,-541.38 382,-544.58 382,-547.79 382,-547.79 382,-554.21 382,-554.21 382,-557.42 378.79,-560.62 375.58,-560.62"/>
<text text-anchor="start" x="308.75" y="-548.08" font-family="Helvetica,sans-Serif" font-size="9.00">FiltersService.ts</text>
</a>
</g>
</g>
<!-- src/application/services/FiltersService.ts&#45;&gt;src/domain/entities/index.ts -->
<g id="edge2" class="edge">
<title>src/application/services/FiltersService.ts&#45;&gt;src/domain/entities/index.ts</title>
<path fill="none" stroke="#000000" stroke-opacity="0.200000" d="M382.47,-544.97C393.42,-541.58 404.47,-536.28 412.5,-528 446.55,-492.86 453.22,-431.61 454.37,-401.99"/>
<polygon fill="none" stroke="#000000" stroke-opacity="0.200000" points="456.46,-402.42 454.52,-396.37 452.26,-402.31 456.46,-402.42"/>
</g>
<!-- src/application/stores/videosStore.ts -->
<g id="node4" class="node">
<title>src/application/stores/videosStore.ts</title>
<g id="a_node4"><a xlink:href="src/application/stores/videosStore.ts" xlink:title="videosStore.ts">
<path fill="#ddfeff" stroke="black" d="M372.21,-497.62C372.21,-497.62 310.54,-497.62 310.54,-497.62 307.33,-497.62 304.12,-494.42 304.12,-491.21 304.12,-491.21 304.12,-484.79 304.12,-484.79 304.12,-481.58 307.33,-478.38 310.54,-478.38 310.54,-478.38 372.21,-478.38 372.21,-478.38 375.42,-478.38 378.62,-481.58 378.62,-484.79 378.62,-484.79 378.62,-491.21 378.62,-491.21 378.62,-494.42 375.42,-497.62 372.21,-497.62"/>
<text text-anchor="start" x="312.12" y="-485.07" font-family="Helvetica,sans-Serif" font-size="9.00">videosStore.ts</text>
</a>
</g>
</g>
<!-- src/application/stores/videosStore.ts&#45;&gt;src/domain/entities/index.ts -->
<g id="edge3" class="edge">
<title>src/application/stores/videosStore.ts&#45;&gt;src/domain/entities/index.ts</title>
<path fill="none" stroke="#000000" stroke-opacity="0.200000" d="M376.27,-477.95C388.67,-473.07 402.18,-466.23 412.5,-457 429.62,-441.69 441.66,-417.7 448.33,-401.66"/>
<polygon fill="none" stroke="#000000" stroke-opacity="0.200000" points="450.19,-402.68 450.46,-396.33 446.29,-401.12 450.19,-402.68"/>
</g>
<!-- src/domain/constants/index.ts -->
<g id="node5" class="node">
<title>src/domain/constants/index.ts</title>
<g id="a_node5"><a xlink:href="src/domain/constants/index.ts" xlink:title="index.ts">
<path fill="#ddfeff" stroke="black" d="M247.83,-399.62C247.83,-399.62 206.67,-399.62 206.67,-399.62 203.46,-399.62 200.25,-396.42 200.25,-393.21 200.25,-393.21 200.25,-386.79 200.25,-386.79 200.25,-383.58 203.46,-380.38 206.67,-380.38 206.67,-380.38 247.83,-380.38 247.83,-380.38 251.04,-380.38 254.25,-383.58 254.25,-386.79 254.25,-386.79 254.25,-393.21 254.25,-393.21 254.25,-396.42 251.04,-399.62 247.83,-399.62"/>
<text text-anchor="start" x="211.5" y="-387.07" font-family="Helvetica,sans-Serif" font-size="9.00">index.ts</text>
</a>
</g>
</g>
<!-- src/domain/entities/ParsedVideo.ts&#45;&gt;src/domain/entities/VideoStorageDto.ts -->
<g id="edge4" class="edge">
<title>src/domain/entities/ParsedVideo.ts&#45;&gt;src/domain/entities/VideoStorageDto.ts</title>
<path fill="none" stroke="#000000" stroke-opacity="0.200000" d="M574.83,-364.77C576.49,-364.88 578.16,-365 579.84,-365.12"/>
<polygon fill="none" stroke="#000000" stroke-opacity="0.200000" points="579.59,-367.21 585.73,-365.54 579.89,-363.02 579.59,-367.21"/>
</g>
<!-- src/domain/entities/VideoStorageDto.ts&#45;&gt;src/domain/entities/MetadataEntity.ts -->
<g id="edge5" class="edge">
<title>src/domain/entities/VideoStorageDto.ts&#45;&gt;src/domain/entities/MetadataEntity.ts</title>
<path fill="none" stroke="#000000" stroke-opacity="0.200000" d="M683.32,-361.56C685,-361.3 686.68,-361.03 688.36,-360.77"/>
<polygon fill="none" stroke="#000000" stroke-opacity="0.200000" points="688.6,-362.85 694.2,-359.84 687.95,-358.7 688.6,-362.85"/>
</g>
<!-- src/domain/entities/VideoStorageDto.ts&#45;&gt;src/domain/entities/VideoEntity.ts -->
<g id="edge6" class="edge">
<title>src/domain/entities/VideoStorageDto.ts&#45;&gt;src/domain/entities/VideoEntity.ts</title>
<path fill="none" stroke="#000000" stroke-opacity="0.200000" d="M683.32,-377.37C687.38,-378.09 691.48,-378.82 695.51,-379.53"/>
<polygon fill="none" stroke="#000000" stroke-opacity="0.200000" points="694.88,-381.56 701.15,-380.54 695.61,-377.42 694.88,-381.56"/>
</g>
<!-- src/domain/repositories/IMetadataRepository.ts -->
<g id="node10" class="node">
<title>src/domain/repositories/IMetadataRepository.ts</title>
<g id="a_node10"><a xlink:href="src/domain/repositories/IMetadataRepository.ts" xlink:title="IMetadataRepository.ts">
<path fill="#ddfeff" stroke="black" d="M389.83,-274.62C389.83,-274.62 292.92,-274.62 292.92,-274.62 289.71,-274.62 286.5,-271.42 286.5,-268.21 286.5,-268.21 286.5,-261.79 286.5,-261.79 286.5,-258.58 289.71,-255.38 292.92,-255.38 292.92,-255.38 389.83,-255.38 389.83,-255.38 393.04,-255.38 396.25,-258.58 396.25,-261.79 396.25,-261.79 396.25,-268.21 396.25,-268.21 396.25,-271.42 393.04,-274.62 389.83,-274.62"/>
<text text-anchor="start" x="294.5" y="-262.07" font-family="Helvetica,sans-Serif" font-size="9.00">IMetadataRepository.ts</text>
</a>
</g>
</g>
<!-- src/domain/repositories/IMetadataRepository.ts&#45;&gt;src/domain/entities/index.ts -->
<g id="edge11" class="edge">
<title>src/domain/repositories/IMetadataRepository.ts&#45;&gt;src/domain/entities/index.ts</title>
<path fill="none" stroke="#000000" stroke-opacity="0.200000" d="M396.63,-270.85C402.39,-273.09 407.84,-276.07 412.5,-280 439.2,-302.51 449.07,-344.44 452.61,-367.93"/>
<polygon fill="none" stroke="#000000" stroke-opacity="0.200000" points="450.5,-367.97 453.38,-373.63 454.66,-367.4 450.5,-367.97"/>
</g>
<!-- src/domain/repositories/IVideoFacade.ts -->
<g id="node11" class="node">
<title>src/domain/repositories/IVideoFacade.ts</title>
<g id="a_node11"><a xlink:href="src/domain/repositories/IVideoFacade.ts" xlink:title="IVideoFacade.ts">
<path fill="#ddfeff" stroke="black" d="M375.96,-305.62C375.96,-305.62 306.79,-305.62 306.79,-305.62 303.58,-305.62 300.38,-302.42 300.38,-299.21 300.38,-299.21 300.38,-292.79 300.38,-292.79 300.38,-289.58 303.58,-286.38 306.79,-286.38 306.79,-286.38 375.96,-286.38 375.96,-286.38 379.17,-286.38 382.38,-289.58 382.38,-292.79 382.38,-292.79 382.38,-299.21 382.38,-299.21 382.38,-302.42 379.17,-305.62 375.96,-305.62"/>
<text text-anchor="start" x="308.38" y="-293.07" font-family="Helvetica,sans-Serif" font-size="9.00">IVideoFacade.ts</text>
</a>
</g>
</g>
<!-- src/domain/repositories/IVideoFacade.ts&#45;&gt;src/domain/entities/index.ts -->
<g id="edge12" class="edge">
<title>src/domain/repositories/IVideoFacade.ts&#45;&gt;src/domain/entities/index.ts</title>
<path fill="none" stroke="#000000" stroke-opacity="0.200000" d="M382.65,-298.68C393.12,-300.9 403.87,-304.67 412.5,-311 431.89,-325.22 443.6,-351.26 449.56,-368.36"/>
<polygon fill="none" stroke="#000000" stroke-opacity="0.200000" points="447.43,-368.59 451.29,-373.63 451.42,-367.28 447.43,-368.59"/>
</g>
<!-- src/domain/repositories/IVideoRepository.ts -->
<g id="node12" class="node">
<title>src/domain/repositories/IVideoRepository.ts</title>
<g id="a_node12"><a xlink:href="src/domain/repositories/IVideoRepository.ts" xlink:title="IVideoRepository.ts">
<path fill="#ddfeff" stroke="black" d="M382.71,-336.62C382.71,-336.62 300.04,-336.62 300.04,-336.62 296.83,-336.62 293.62,-333.42 293.62,-330.21 293.62,-330.21 293.62,-323.79 293.62,-323.79 293.62,-320.58 296.83,-317.38 300.04,-317.38 300.04,-317.38 382.71,-317.38 382.71,-317.38 385.92,-317.38 389.12,-320.58 389.12,-323.79 389.12,-323.79 389.12,-330.21 389.12,-330.21 389.12,-333.42 385.92,-336.62 382.71,-336.62"/>
<text text-anchor="start" x="301.62" y="-324.07" font-family="Helvetica,sans-Serif" font-size="9.00">IVideoRepository.ts</text>
</a>
</g>
</g>
<!-- src/domain/repositories/IVideoRepository.ts&#45;&gt;src/domain/entities/index.ts -->
<g id="edge13" class="edge">
<title>src/domain/repositories/IVideoRepository.ts&#45;&gt;src/domain/entities/index.ts</title>
<path fill="none" stroke="#000000" stroke-opacity="0.200000" d="M361.91,-337.1C380.4,-346.67 408.27,-361.09 428.61,-371.61"/>
<polygon fill="none" stroke="#000000" stroke-opacity="0.200000" points="427.55,-373.43 433.85,-374.32 429.48,-369.7 427.55,-373.43"/>
</g>
<!-- src/domain/repositories/index.ts -->
<g id="node13" class="node">
<title>src/domain/repositories/index.ts</title>
<g id="a_node13"><a xlink:href="src/domain/repositories/index.ts" xlink:title="index.ts">
<path fill="#ddfeff" stroke="black" d="M247.83,-333.62C247.83,-333.62 206.67,-333.62 206.67,-333.62 203.46,-333.62 200.25,-330.42 200.25,-327.21 200.25,-327.21 200.25,-320.79 200.25,-320.79 200.25,-317.58 203.46,-314.38 206.67,-314.38 206.67,-314.38 247.83,-314.38 247.83,-314.38 251.04,-314.38 254.25,-317.58 254.25,-320.79 254.25,-320.79 254.25,-327.21 254.25,-327.21 254.25,-330.42 251.04,-333.62 247.83,-333.62"/>
<text text-anchor="start" x="211.5" y="-321.07" font-family="Helvetica,sans-Serif" font-size="9.00">index.ts</text>
</a>
</g>
</g>
<!-- src/domain/repositories/index.ts&#45;&gt;src/domain/repositories/IMetadataRepository.ts -->
<g id="edge14" class="edge">
<title>src/domain/repositories/index.ts&#45;&gt;src/domain/repositories/IMetadataRepository.ts</title>
<path fill="none" stroke="#000000" stroke-opacity="0.200000" d="M236.33,-314.02C245.08,-303.9 259.96,-288.55 276.12,-280 277.56,-279.24 279.04,-278.52 280.55,-277.83"/>
<polygon fill="none" stroke="#000000" stroke-opacity="0.200000" points="281.17,-279.84 285.92,-275.62 279.58,-275.96 281.17,-279.84"/>
</g>
<!-- src/domain/repositories/index.ts&#45;&gt;src/domain/repositories/IVideoFacade.ts -->
<g id="edge15" class="edge">
<title>src/domain/repositories/index.ts&#45;&gt;src/domain/repositories/IVideoFacade.ts</title>
<path fill="none" stroke="#000000" stroke-opacity="0.200000" d="M254.54,-316.68C261.54,-314.78 269.11,-312.77 276.12,-311 281.51,-309.64 287.17,-308.26 292.79,-306.91"/>
<polygon fill="none" stroke="#000000" stroke-opacity="0.200000" points="293.05,-309 298.41,-305.57 292.08,-304.92 293.05,-309"/>
</g>
<!-- src/domain/repositories/index.ts&#45;&gt;src/domain/repositories/IVideoRepository.ts -->
<g id="edge16" class="edge">
<title>src/domain/repositories/index.ts&#45;&gt;src/domain/repositories/IVideoRepository.ts</title>
<path fill="none" stroke="#000000" stroke-opacity="0.200000" d="M254.54,-324.7C263.9,-324.95 274.82,-325.25 285.67,-325.54"/>
<polygon fill="none" stroke="#000000" stroke-opacity="0.200000" points="285.59,-327.63 291.64,-325.7 285.7,-323.44 285.59,-327.63"/>
</g>
<!-- src/domain/valueObjects/ParsedVideoData.ts -->
<g id="node14" class="node">
<title>src/domain/valueObjects/ParsedVideoData.ts</title>
<g id="a_node14"><a xlink:href="src/domain/valueObjects/ParsedVideoData.ts" xlink:title="ParsedVideoData.ts">
<path fill="#ddfeff" stroke="black" d="M384.21,-149.62C384.21,-149.62 298.54,-149.62 298.54,-149.62 295.33,-149.62 292.12,-146.42 292.12,-143.21 292.12,-143.21 292.12,-136.79 292.12,-136.79 292.12,-133.58 295.33,-130.38 298.54,-130.38 298.54,-130.38 384.21,-130.38 384.21,-130.38 387.42,-130.38 390.62,-133.58 390.62,-136.79 390.62,-136.79 390.62,-143.21 390.62,-143.21 390.62,-146.42 387.42,-149.62 384.21,-149.62"/>
<text text-anchor="start" x="300.12" y="-137.07" font-family="Helvetica,sans-Serif" font-size="9.00">ParsedVideoData.ts</text>
</a>
</g>
</g>
<!-- src/domain/valueObjects/Thumbs.ts -->
<g id="node15" class="node">
<title>src/domain/valueObjects/Thumbs.ts</title>
<g id="a_node15"><a xlink:href="src/domain/valueObjects/Thumbs.ts" xlink:title="Thumbs.ts">
<path fill="#ddfeff" stroke="black" d="M365.08,-180.62C365.08,-180.62 317.67,-180.62 317.67,-180.62 314.46,-180.62 311.25,-177.42 311.25,-174.21 311.25,-174.21 311.25,-167.79 311.25,-167.79 311.25,-164.58 314.46,-161.38 317.67,-161.38 317.67,-161.38 365.08,-161.38 365.08,-161.38 368.29,-161.38 371.5,-164.58 371.5,-167.79 371.5,-167.79 371.5,-174.21 371.5,-174.21 371.5,-177.42 368.29,-180.62 365.08,-180.62"/>
<text text-anchor="start" x="319.25" y="-168.07" font-family="Helvetica,sans-Serif" font-size="9.00">Thumbs.ts</text>
</a>
</g>
</g>
<!-- src/domain/valueObjects/VideoStorageDtoMapper.ts -->
<g id="node16" class="node">
<title>src/domain/valueObjects/VideoStorageDtoMapper.ts</title>
<g id="a_node16"><a xlink:href="src/domain/valueObjects/VideoStorageDtoMapper.ts" xlink:title="VideoStorageDtoMapper.ts">
<path fill="#ddfeff" stroke="black" d="M398.08,-211.62C398.08,-211.62 284.67,-211.62 284.67,-211.62 281.46,-211.62 278.25,-208.42 278.25,-205.21 278.25,-205.21 278.25,-198.79 278.25,-198.79 278.25,-195.58 281.46,-192.38 284.67,-192.38 284.67,-192.38 398.08,-192.38 398.08,-192.38 401.29,-192.38 404.5,-195.58 404.5,-198.79 404.5,-198.79 404.5,-205.21 404.5,-205.21 404.5,-208.42 401.29,-211.62 398.08,-211.62"/>
<text text-anchor="start" x="286.25" y="-199.07" font-family="Helvetica,sans-Serif" font-size="9.00">VideoStorageDtoMapper.ts</text>
</a>
</g>
</g>
<!-- src/domain/valueObjects/VideoStorageDtoMapper.ts&#45;&gt;src/domain/entities/index.ts -->
<g id="edge17" class="edge">
<title>src/domain/valueObjects/VideoStorageDtoMapper.ts&#45;&gt;src/domain/entities/index.ts</title>
<path fill="none" stroke="#000000" stroke-opacity="0.200000" d="M368.74,-212.08C383.55,-218.99 401.27,-229.54 412.5,-244 441.71,-281.62 450.65,-339.24 453.35,-367.77"/>
<polygon fill="none" stroke="#000000" stroke-opacity="0.200000" points="451.24,-367.69 453.83,-373.5 455.42,-367.34 451.24,-367.69"/>
</g>
<!-- src/domain/valueObjects/index.ts -->
<g id="node17" class="node">
<title>src/domain/valueObjects/index.ts</title>
<g id="a_node17"><a xlink:href="src/domain/valueObjects/index.ts" xlink:title="index.ts">
<path fill="#ddfeff" stroke="black" d="M247.83,-211.62C247.83,-211.62 206.67,-211.62 206.67,-211.62 203.46,-211.62 200.25,-208.42 200.25,-205.21 200.25,-205.21 200.25,-198.79 200.25,-198.79 200.25,-195.58 203.46,-192.38 206.67,-192.38 206.67,-192.38 247.83,-192.38 247.83,-192.38 251.04,-192.38 254.25,-195.58 254.25,-198.79 254.25,-198.79 254.25,-205.21 254.25,-205.21 254.25,-208.42 251.04,-211.62 247.83,-211.62"/>
<text text-anchor="start" x="211.5" y="-199.07" font-family="Helvetica,sans-Serif" font-size="9.00">index.ts</text>
</a>
</g>
</g>
<!-- src/domain/valueObjects/index.ts&#45;&gt;src/domain/valueObjects/ParsedVideoData.ts -->
<g id="edge18" class="edge">
<title>src/domain/valueObjects/index.ts&#45;&gt;src/domain/valueObjects/ParsedVideoData.ts</title>
<path fill="none" stroke="#000000" stroke-width="2" stroke-opacity="0.200000" d="M235.56,-192.11C244.08,-181.31 259.18,-164.32 291.93,-148.26"/>
<polygon fill="#000000" fill-opacity="0.200000" stroke="#000000" stroke-width="2" stroke-opacity="0.200000" points="294.74,-146.86 298.64,-154.96 290.54,-151.06 294.74,-146.86"/>
</g>
<!-- src/domain/valueObjects/index.ts&#45;&gt;src/domain/valueObjects/Thumbs.ts -->
<g id="edge19" class="edge">
<title>src/domain/valueObjects/index.ts&#45;&gt;src/domain/valueObjects/Thumbs.ts</title>
<path fill="none" stroke="#000000" stroke-opacity="0.200000" d="M254.7,-192.67C261.63,-190.36 269.13,-187.98 276.12,-186 285,-183.49 294.64,-181.07 303.69,-178.94"/>
<polygon fill="none" stroke="#000000" stroke-opacity="0.200000" points="303.95,-181.04 309.33,-177.64 303.01,-176.95 303.95,-181.04"/>
</g>
<!-- src/domain/valueObjects/index.ts&#45;&gt;src/domain/valueObjects/VideoStorageDtoMapper.ts -->
<g id="edge20" class="edge">
<title>src/domain/valueObjects/index.ts&#45;&gt;src/domain/valueObjects/VideoStorageDtoMapper.ts</title>
<path fill="none" stroke="#000000" stroke-width="2" stroke-opacity="0.200000" d="M254.54,-202C261.66,-202 269.68,-202 277.89,-202"/>
<polygon fill="#000000" fill-opacity="0.200000" stroke="#000000" stroke-width="2" stroke-opacity="0.200000" points="280.7,-200.61 284.6,-208.71 276.5,-204.81 280.7,-200.61"/>
</g>
<!-- src/infrastructure/repository/MetadataRepository.ts -->
<g id="node18" class="node">
<title>src/infrastructure/repository/MetadataRepository.ts</title>
<g id="a_node18"><a xlink:href="src/infrastructure/repository/MetadataRepository.ts" xlink:title="MetadataRepository.ts">
<path fill="#ddfeff" stroke="black" d="M137.96,-424.62C137.96,-424.62 43.29,-424.62 43.29,-424.62 40.08,-424.62 36.88,-421.42 36.88,-418.21 36.88,-418.21 36.88,-411.79 36.88,-411.79 36.88,-408.58 40.08,-405.38 43.29,-405.38 43.29,-405.38 137.96,-405.38 137.96,-405.38 141.17,-405.38 144.38,-408.58 144.38,-411.79 144.38,-411.79 144.38,-418.21 144.38,-418.21 144.38,-421.42 141.17,-424.62 137.96,-424.62"/>
<text text-anchor="start" x="44.88" y="-412.07" font-family="Helvetica,sans-Serif" font-size="9.00">MetadataRepository.ts</text>
</a>
</g>
</g>
<!-- src/infrastructure/repository/MetadataRepository.ts&#45;&gt;src/domain/entities/index.ts -->
<g id="edge22" class="edge">
<title>src/infrastructure/repository/MetadataRepository.ts&#45;&gt;src/domain/entities/index.ts</title>
<path fill="none" stroke="#000000" stroke-opacity="0.200000" d="M109.1,-424.97C125.18,-433.53 149.99,-445.22 173.25,-450 213.3,-458.23 224.46,-452.89 265.25,-450 273.49,-449.42 405.15,-432.78 412.5,-429 425.13,-422.5 436.09,-410.68 443.64,-400.93"/>
<polygon fill="none" stroke="#000000" stroke-opacity="0.200000" points="445.32,-402.19 447.19,-396.11 441.94,-399.69 445.32,-402.19"/>
</g>
<!-- src/infrastructure/repository/MetadataRepository.ts&#45;&gt;src/domain/constants/index.ts -->
<g id="edge21" class="edge">
<title>src/infrastructure/repository/MetadataRepository.ts&#45;&gt;src/domain/constants/index.ts</title>
<path fill="none" stroke="#000000" stroke-width="2" stroke-opacity="0.200000" d="M144.83,-405.12C160.54,-402.2 177.31,-399.09 191.53,-396.45"/>
<polygon fill="#000000" fill-opacity="0.200000" stroke="#000000" stroke-width="2" stroke-opacity="0.200000" points="191.53,-398.58 197.04,-395.42 190.76,-394.45 191.53,-398.58"/>
</g>
<!-- src/infrastructure/repository/MetadataRepository.ts&#45;&gt;src/domain/repositories/index.ts -->
<g id="edge23" class="edge">
<title>src/infrastructure/repository/MetadataRepository.ts&#45;&gt;src/domain/repositories/index.ts</title>
<path fill="none" stroke="#000000" stroke-opacity="0.200000" d="M144.66,-411.69C152.28,-409.2 159.48,-405.48 165.25,-400 175.57,-390.2 165.7,-381.06 173.25,-369 180.91,-356.77 192.97,-346.15 203.66,-338.3"/>
<polygon fill="none" stroke="#000000" stroke-opacity="0.200000" points="204.81,-340.06 208.51,-334.89 202.39,-336.63 204.81,-340.06"/>
</g>
<!-- src/infrastructure/repository/VideoRepository.ts -->
<g id="node19" class="node">
<title>src/infrastructure/repository/VideoRepository.ts</title>
<g id="a_node19"><a xlink:href="src/infrastructure/repository/VideoRepository.ts" xlink:title="VideoRepository.ts">
<path fill="#ddfeff" stroke="black" d="M130.83,-393.62C130.83,-393.62 50.42,-393.62 50.42,-393.62 47.21,-393.62 44,-390.42 44,-387.21 44,-387.21 44,-380.79 44,-380.79 44,-377.58 47.21,-374.38 50.42,-374.38 50.42,-374.38 130.83,-374.38 130.83,-374.38 134.04,-374.38 137.25,-377.58 137.25,-380.79 137.25,-380.79 137.25,-387.21 137.25,-387.21 137.25,-390.42 134.04,-393.62 130.83,-393.62"/>
<text text-anchor="start" x="52" y="-381.07" font-family="Helvetica,sans-Serif" font-size="9.00">VideoRepository.ts</text>
</a>
</g>
</g>
<!-- src/infrastructure/repository/VideoRepository.ts&#45;&gt;src/domain/entities/index.ts -->
<g id="edge25" class="edge">
<title>src/infrastructure/repository/VideoRepository.ts&#45;&gt;src/domain/entities/index.ts</title>
<path fill="none" stroke="#000000" stroke-opacity="0.200000" d="M137.37,-384.93C147.71,-387.24 157.81,-391.5 165.25,-399 178.32,-412.18 158.92,-428.2 173.25,-440 204.81,-466 225.31,-448.74 265.25,-440 270.45,-438.86 271.02,-436.51 276.12,-435 334.86,-417.58 355.68,-437.89 412.5,-415 421.59,-411.34 430.58,-405.33 437.9,-399.65"/>
<polygon fill="none" stroke="#000000" stroke-opacity="0.200000" points="439.1,-401.37 442.44,-395.96 436.45,-398.11 439.1,-401.37"/>
</g>
<!-- src/infrastructure/repository/VideoRepository.ts&#45;&gt;src/domain/constants/index.ts -->
<g id="edge24" class="edge">
<title>src/infrastructure/repository/VideoRepository.ts&#45;&gt;src/domain/constants/index.ts</title>
<path fill="none" stroke="#000000" stroke-width="2" stroke-opacity="0.200000" d="M137.58,-386.05C155.19,-386.83 174.97,-387.71 191.38,-388.45"/>
<polygon fill="#000000" fill-opacity="0.200000" stroke="#000000" stroke-width="2" stroke-opacity="0.200000" points="191,-390.53 197.09,-388.7 191.19,-386.34 191,-390.53"/>
</g>
<!-- src/infrastructure/repository/VideoRepository.ts&#45;&gt;src/domain/repositories/index.ts -->
<g id="edge26" class="edge">
<title>src/infrastructure/repository/VideoRepository.ts&#45;&gt;src/domain/repositories/index.ts</title>
<path fill="none" stroke="#000000" stroke-opacity="0.200000" d="M130.11,-373.9C141.63,-370.37 154.14,-366.01 165.25,-361 179.54,-354.55 194.61,-345.43 206.19,-337.87"/>
<polygon fill="none" stroke="#000000" stroke-opacity="0.200000" points="207.15,-339.75 210.98,-334.68 204.83,-336.25 207.15,-339.75"/>
</g>
<!-- src/infrastructure/services/VideoMetadataFacade.ts -->
<g id="node20" class="node">
<title>src/infrastructure/services/VideoMetadataFacade.ts</title>
<g id="a_node20"><a xlink:href="src/infrastructure/services/VideoMetadataFacade.ts" xlink:title="VideoMetadataFacade.ts">
<path fill="#ddfeff" stroke="black" d="M142.83,-330.62C142.83,-330.62 38.42,-330.62 38.42,-330.62 35.21,-330.62 32,-327.42 32,-324.21 32,-324.21 32,-317.79 32,-317.79 32,-314.58 35.21,-311.38 38.42,-311.38 38.42,-311.38 142.83,-311.38 142.83,-311.38 146.04,-311.38 149.25,-314.58 149.25,-317.79 149.25,-317.79 149.25,-324.21 149.25,-324.21 149.25,-327.42 146.04,-330.62 142.83,-330.62"/>
<text text-anchor="start" x="40" y="-318.07" font-family="Helvetica,sans-Serif" font-size="9.00">VideoMetadataFacade.ts</text>
</a>
</g>
</g>
<!-- src/infrastructure/services/VideoMetadataFacade.ts&#45;&gt;src/domain/entities/index.ts -->
<g id="edge27" class="edge">
<title>src/infrastructure/services/VideoMetadataFacade.ts&#45;&gt;src/domain/entities/index.ts</title>
<path fill="none" stroke="#000000" stroke-opacity="0.200000" d="M122.49,-331.02C137.86,-337.63 155.25,-347.92 165.25,-363 173.54,-375.5 162.04,-420.05 173.25,-430 188.54,-443.57 246.89,-438.99 265.25,-430 272.33,-426.54 269.37,-420.06 276.12,-416 321.08,-388.98 383.22,-384.01 421.04,-383.83"/>
<polygon fill="none" stroke="#000000" stroke-opacity="0.200000" points="420.75,-385.93 426.75,-383.85 420.76,-381.73 420.75,-385.93"/>
</g>
<!-- src/infrastructure/services/VideoMetadataFacade.ts&#45;&gt;src/domain/repositories/index.ts -->
<g id="edge28" class="edge">
<title>src/infrastructure/services/VideoMetadataFacade.ts&#45;&gt;src/domain/repositories/index.ts</title>
<path fill="none" stroke="#000000" stroke-opacity="0.200000" d="M149.5,-322.29C164.15,-322.62 179.42,-322.96 192.44,-323.25"/>
<polygon fill="none" stroke="#000000" stroke-opacity="0.200000" points="192.26,-325.34 198.31,-323.38 192.36,-321.14 192.26,-325.34"/>
</g>
<!-- src/infrastructure/services/VideoMetadataFacade.ts&#45;&gt;src/domain/valueObjects/index.ts -->
<g id="edge29" class="edge">
<title>src/infrastructure/services/VideoMetadataFacade.ts&#45;&gt;src/domain/valueObjects/index.ts</title>
<path fill="none" stroke="#000000" stroke-width="2" stroke-opacity="0.200000" d="M101.67,-310.99C116.82,-296.01 146.58,-267.07 173.25,-244 183.82,-234.85 196.03,-225.13 206.06,-217.34"/>
<polygon fill="#000000" fill-opacity="0.200000" stroke="#000000" stroke-width="2" stroke-opacity="0.200000" points="207.06,-219.22 210.53,-213.9 204.49,-215.9 207.06,-219.22"/>
</g>
<!-- src/infrastructure/video/VideoFileParser.ts -->
<g id="node21" class="node">
<title>src/infrastructure/video/VideoFileParser.ts</title>
<g id="a_node21"><a xlink:href="src/infrastructure/video/VideoFileParser.ts" xlink:title="VideoFileParser.ts">
<path fill="#ddfeff" stroke="black" d="M130.08,-487.62C130.08,-487.62 51.17,-487.62 51.17,-487.62 47.96,-487.62 44.75,-484.42 44.75,-481.21 44.75,-481.21 44.75,-474.79 44.75,-474.79 44.75,-471.58 47.96,-468.38 51.17,-468.38 51.17,-468.38 130.08,-468.38 130.08,-468.38 133.29,-468.38 136.5,-471.58 136.5,-474.79 136.5,-474.79 136.5,-481.21 136.5,-481.21 136.5,-484.42 133.29,-487.62 130.08,-487.62"/>
<text text-anchor="start" x="52.75" y="-475.07" font-family="Helvetica,sans-Serif" font-size="9.00">VideoFileParser.ts</text>
</a>
</g>
</g>
<!-- src/infrastructure/video/VideoFileParser.ts&#45;&gt;src/domain/entities/index.ts -->
<g id="edge30" class="edge">
<title>src/infrastructure/video/VideoFileParser.ts&#45;&gt;src/domain/entities/index.ts</title>
<path fill="none" stroke="#000000" stroke-opacity="0.200000" d="M136.75,-474.94C219.48,-469.05 389.14,-455.49 412.5,-442 428.45,-432.79 440.12,-414.82 447.06,-401.51"/>
<polygon fill="none" stroke="#000000" stroke-opacity="0.200000" points="448.8,-402.72 449.58,-396.41 445.04,-400.86 448.8,-402.72"/>
</g>
<!-- src/infrastructure/video/VideoFileParser.ts&#45;&gt;src/domain/valueObjects/index.ts -->
<g id="edge31" class="edge">
<title>src/infrastructure/video/VideoFileParser.ts&#45;&gt;src/domain/valueObjects/index.ts</title>
<path fill="none" stroke="#000000" stroke-width="2" stroke-opacity="0.200000" d="M136.65,-473.14C147.65,-469.74 158.25,-464.15 165.25,-455 179.5,-436.36 162.64,-264.92 173.25,-244 178.92,-232.82 189.08,-223.66 199,-216.78"/>
<polygon fill="#000000" fill-opacity="0.200000" stroke="#000000" stroke-width="2" stroke-opacity="0.200000" points="200.01,-218.62 203.92,-213.61 197.74,-215.09 200.01,-218.62"/>
</g>
<!-- src/presentation/components/VideoCard.vue -->
<g id="node22" class="node">
<title>src/presentation/components/VideoCard.vue</title>
<g id="a_node22"><a xlink:href="src/presentation/components/VideoCard.vue" xlink:title="VideoCard.vue">
<path fill="#41f083" stroke="black" d="M258.83,-51.62C258.83,-51.62 195.67,-51.62 195.67,-51.62 192.46,-51.62 189.25,-48.42 189.25,-45.21 189.25,-45.21 189.25,-38.79 189.25,-38.79 189.25,-35.58 192.46,-32.38 195.67,-32.38 195.67,-32.38 258.83,-32.38 258.83,-32.38 262.04,-32.38 265.25,-35.58 265.25,-38.79 265.25,-38.79 265.25,-45.21 265.25,-45.21 265.25,-48.42 262.04,-51.62 258.83,-51.62"/>
<text text-anchor="start" x="197.25" y="-39.08" font-family="Helvetica,sans-Serif" font-size="9.00">VideoCard.vue</text>
</a>
</g>
</g>
<!-- src/presentation/components/VideoCard.vue&#45;&gt;src/domain/entities/index.ts -->
<g id="edge33" class="edge">
<title>src/presentation/components/VideoCard.vue&#45;&gt;src/domain/entities/index.ts</title>
<path fill="none" stroke="#000000" stroke-opacity="0.200000" d="M256.26,-51.99C305.25,-69.72 402.3,-106.02 412.5,-119 443.13,-157.99 451.83,-314.98 453.92,-367.66"/>
<polygon fill="none" stroke="#000000" stroke-opacity="0.200000" points="451.81,-367.49 454.13,-373.41 456.01,-367.34 451.81,-367.49"/>
</g>
<!-- src/presentation/components/VideoEmbed.vue -->
<g id="node23" class="node">
<title>src/presentation/components/VideoEmbed.vue</title>
<g id="a_node23"><a xlink:href="src/presentation/components/VideoEmbed.vue" xlink:title="VideoEmbed.vue">
<path fill="#41f083" stroke="black" d="M377.83,-51.62C377.83,-51.62 304.92,-51.62 304.92,-51.62 301.71,-51.62 298.5,-48.42 298.5,-45.21 298.5,-45.21 298.5,-38.79 298.5,-38.79 298.5,-35.58 301.71,-32.38 304.92,-32.38 304.92,-32.38 377.83,-32.38 377.83,-32.38 381.04,-32.38 384.25,-35.58 384.25,-38.79 384.25,-38.79 384.25,-45.21 384.25,-45.21 384.25,-48.42 381.04,-51.62 377.83,-51.62"/>
<text text-anchor="start" x="306.5" y="-39.08" font-family="Helvetica,sans-Serif" font-size="9.00">VideoEmbed.vue</text>
</a>
</g>
</g>
<!-- src/presentation/components/VideoCard.vue&#45;&gt;src/presentation/components/VideoEmbed.vue -->
<g id="edge32" class="edge">
<title>src/presentation/components/VideoCard.vue&#45;&gt;src/presentation/components/VideoEmbed.vue</title>
<path fill="none" stroke="#000000" stroke-width="2" stroke-opacity="0.200000" d="M265.59,-42C273.18,-42 281.29,-42 289.26,-42"/>
<polygon fill="#000000" fill-opacity="0.200000" stroke="#000000" stroke-width="2" stroke-opacity="0.200000" points="289.14,-44.1 295.14,-42 289.14,-39.9 289.14,-44.1"/>
</g>
<!-- src/presentation/components/VideoEmbed.vue&#45;&gt;src/domain/entities/index.ts -->
<g id="edge34" class="edge">
<title>src/presentation/components/VideoEmbed.vue&#45;&gt;src/domain/entities/index.ts</title>
<path fill="none" stroke="#000000" stroke-opacity="0.200000" d="M369.93,-52.03C384.95,-58.96 402.48,-69.71 412.5,-85 443.4,-132.17 452,-310.84 453.98,-367.59"/>
<polygon fill="none" stroke="#000000" stroke-opacity="0.200000" points="451.88,-367.61 454.18,-373.53 456.08,-367.47 451.88,-367.61"/>
</g>
</g>
</svg>
