<?xml version="1.0" encoding="UTF-8" standalone="no"?>
<!DOCTYPE svg PUBLIC "-//W3C//DTD SVG 1.1//EN"
 "http://www.w3.org/Graphics/SVG/1.1/DTD/svg11.dtd">
<!-- Generated by graphviz version 9.0.0 (20230911.1827)
 -->
<!-- Title: dependency&#45;cruiser output Pages: 1 -->
<svg width="882pt" height="877pt"
 viewBox="0.00 0.00 882.00 877.00" xmlns="http://www.w3.org/2000/svg" xmlns:xlink="http://www.w3.org/1999/xlink">
<g id="graph0" class="graph" transform="scale(1 1) rotate(0) translate(4 873)">
<title>dependency&#45;cruiser output</title>
<polygon fill="white" stroke="none" points="-4,4 -4,-873 878,-873 878,4 -4,4"/>
<g id="clust1" class="cluster">
<title>cluster_src</title>
<path fill="#ffffff" stroke="black" stroke-width="2" d="M20,-8C20,-8 854,-8 854,-8 860,-8 866,-14 866,-20 866,-20 866,-849 866,-849 866,-855 860,-861 854,-861 854,-861 20,-861 20,-861 14,-861 8,-855 8,-849 8,-849 8,-20 8,-20 8,-14 14,-8 20,-8"/>
<text text-anchor="middle" x="437" y="-848.45" font-family="Helvetica,sans-Serif" font-weight="bold" font-size="9.00">src</text>
</g>
<g id="clust2" class="cluster">
<title>cluster_src/application</title>
<path fill="#ffffff" stroke="black" stroke-width="2" d="M285.25,-462C285.25,-462 461.5,-462 461.5,-462 467.5,-462 473.5,-468 473.5,-474 473.5,-474 473.5,-822 473.5,-822 473.5,-828 467.5,-834 461.5,-834 461.5,-834 285.25,-834 285.25,-834 279.25,-834 273.25,-828 273.25,-822 273.25,-822 273.25,-474 273.25,-474 273.25,-468 279.25,-462 285.25,-462"/>
<text text-anchor="middle" x="373.38" y="-821.45" font-family="Helvetica,sans-Serif" font-weight="bold" font-size="9.00">application</text>
</g>
<g id="clust3" class="cluster">
<title>cluster_src/application/ports</title>
<path fill="#ffffff" stroke="black" stroke-width="2" d="M335.62,-721C335.62,-721 411.12,-721 411.12,-721 417.12,-721 423.12,-727 423.12,-733 423.12,-733 423.12,-795 423.12,-795 423.12,-801 417.12,-807 411.12,-807 411.12,-807 335.62,-807 335.62,-807 329.62,-807 323.62,-801 323.62,-795 323.62,-795 323.62,-733 323.62,-733 323.62,-727 329.62,-721 335.62,-721"/>
<text text-anchor="middle" x="373.38" y="-794.45" font-family="Helvetica,sans-Serif" font-weight="bold" font-size="9.00">ports</text>
</g>
<g id="clust5" class="cluster">
<title>cluster_src/application/stores</title>
<path fill="#ffffff" stroke="black" stroke-width="2" d="M340.12,-658C340.12,-658 406.62,-658 406.62,-658 412.62,-658 418.62,-664 418.62,-670 418.62,-670 418.62,-701 418.62,-701 418.62,-707 412.62,-713 406.62,-713 406.62,-713 340.12,-713 340.12,-713 334.12,-713 328.12,-707 328.12,-701 328.12,-701 328.12,-670 328.12,-670 328.12,-664 334.12,-658 340.12,-658"/>
<text text-anchor="middle" x="373.38" y="-700.45" font-family="Helvetica,sans-Serif" font-weight="bold" font-size="9.00">stores</text>
</g>
<g id="clust6" class="cluster">
<title>cluster_src/application/usecases</title>
<path fill="#ffffff" stroke="black" stroke-width="2" d="M293.25,-564C293.25,-564 453.5,-564 453.5,-564 459.5,-564 465.5,-570 465.5,-576 465.5,-576 465.5,-638 465.5,-638 465.5,-644 459.5,-650 453.5,-650 453.5,-650 293.25,-650 293.25,-650 287.25,-650 281.25,-644 281.25,-638 281.25,-638 281.25,-576 281.25,-576 281.25,-570 287.25,-564 293.25,-564"/>
<text text-anchor="middle" x="373.38" y="-637.45" font-family="Helvetica,sans-Serif" font-weight="bold" font-size="9.00">usecases</text>
</g>
<g id="clust4" class="cluster">
<title>cluster_src/application/services</title>
<path fill="#ffffff" stroke="black" stroke-width="2" d="M328.12,-470C328.12,-470 418.62,-470 418.62,-470 424.62,-470 430.62,-476 430.62,-482 430.62,-482 430.62,-544 430.62,-544 430.62,-550 424.62,-556 418.62,-556 418.62,-556 328.12,-556 328.12,-556 322.12,-556 316.12,-550 316.12,-544 316.12,-544 316.12,-482 316.12,-482 316.12,-476 322.12,-470 328.12,-470"/>
<text text-anchor="middle" x="373.38" y="-543.45" font-family="Helvetica,sans-Serif" font-weight="bold" font-size="9.00">services</text>
</g>
<g id="clust7" class="cluster">
<title>cluster_src/domain</title>
<path fill="#ffffff" stroke="black" stroke-width="2" d="M196.25,-114C196.25,-114 846,-114 846,-114 852,-114 858,-120 858,-126 858,-126 858,-442 858,-442 858,-448 852,-454 846,-454 846,-454 196.25,-454 196.25,-454 190.25,-454 184.25,-448 184.25,-442 184.25,-442 184.25,-126 184.25,-126 184.25,-120 190.25,-114 196.25,-114"/>
<text text-anchor="middle" x="521.12" y="-441.45" font-family="Helvetica,sans-Serif" font-weight="bold" font-size="9.00">domain</text>
</g>
<g id="clust8" class="cluster">
<title>cluster_src/domain/constants</title>
<path fill="#ffffff" stroke="black" stroke-width="2" d="M204.25,-372C204.25,-372 250.25,-372 250.25,-372 256.25,-372 262.25,-378 262.25,-384 262.25,-384 262.25,-415 262.25,-415 262.25,-421 256.25,-427 250.25,-427 250.25,-427 204.25,-427 204.25,-427 198.25,-427 192.25,-421 192.25,-415 192.25,-415 192.25,-384 192.25,-384 192.25,-378 198.25,-372 204.25,-372"/>
<text text-anchor="middle" x="227.25" y="-414.45" font-family="Helvetica,sans-Serif" font-weight="bold" font-size="9.00">constants</text>
</g>
<g id="clust9" class="cluster">
<title>cluster_src/domain/entities</title>
<path fill="#ffffff" stroke="black" stroke-width="2" d="M493.5,-330C493.5,-330 838,-330 838,-330 844,-330 850,-336 850,-342 850,-342 850,-415 850,-415 850,-421 844,-427 838,-427 838,-427 493.5,-427 493.5,-427 487.5,-427 481.5,-421 481.5,-415 481.5,-415 481.5,-342 481.5,-342 481.5,-336 487.5,-330 493.5,-330"/>
<text text-anchor="middle" x="665.75" y="-414.45" font-family="Helvetica,sans-Serif" font-weight="bold" font-size="9.00">entities</text>
</g>
<g id="clust10" class="cluster">
<title>cluster_src/domain/repositories</title>
<path fill="#ffffff" stroke="black" stroke-width="2" d="M204.25,-247C204.25,-247 424.25,-247 424.25,-247 430.25,-247 436.25,-253 436.25,-259 436.25,-259 436.25,-352 436.25,-352 436.25,-358 430.25,-364 424.25,-364 424.25,-364 204.25,-364 204.25,-364 198.25,-364 192.25,-358 192.25,-352 192.25,-352 192.25,-259 192.25,-259 192.25,-253 198.25,-247 204.25,-247"/>
<text text-anchor="middle" x="314.25" y="-351.45" font-family="Helvetica,sans-Serif" font-weight="bold" font-size="9.00">repositories</text>
</g>
<g id="clust11" class="cluster">
<title>cluster_src/domain/valueObjects</title>
<path fill="#ffffff" stroke="black" stroke-width="2" d="M204.25,-122C204.25,-122 432.5,-122 432.5,-122 438.5,-122 444.5,-128 444.5,-134 444.5,-134 444.5,-227 444.5,-227 444.5,-233 438.5,-239 432.5,-239 432.5,-239 204.25,-239 204.25,-239 198.25,-239 192.25,-233 192.25,-227 192.25,-227 192.25,-134 192.25,-134 192.25,-128 198.25,-122 204.25,-122"/>
<text text-anchor="middle" x="318.38" y="-226.45" font-family="Helvetica,sans-Serif" font-weight="bold" font-size="9.00">valueObjects</text>
</g>
<g id="clust12" class="cluster">
<title>cluster_src/infrastructure</title>
<path fill="#ffffff" stroke="black" stroke-width="2" d="M28,-278C28,-278 153.25,-278 153.25,-278 159.25,-278 165.25,-284 165.25,-290 165.25,-290 165.25,-607 165.25,-607 165.25,-613 159.25,-619 153.25,-619 153.25,-619 28,-619 28,-619 22,-619 16,-613 16,-607 16,-607 16,-290 16,-290 16,-284 22,-278 28,-278"/>
<text text-anchor="middle" x="90.62" y="-606.45" font-family="Helvetica,sans-Serif" font-weight="bold" font-size="9.00">infrastructure</text>
</g>
<g id="clust14" class="cluster">
<title>cluster_src/infrastructure/repository</title>
<path fill="#ffffff" stroke="black" stroke-width="2" d="M40.88,-349C40.88,-349 140.38,-349 140.38,-349 146.38,-349 152.38,-355 152.38,-361 152.38,-361 152.38,-423 152.38,-423 152.38,-429 146.38,-435 140.38,-435 140.38,-435 40.88,-435 40.88,-435 34.88,-435 28.88,-429 28.88,-423 28.88,-423 28.88,-361 28.88,-361 28.88,-355 34.88,-349 40.88,-349"/>
<text text-anchor="middle" x="90.62" y="-422.45" font-family="Helvetica,sans-Serif" font-weight="bold" font-size="9.00">repository</text>
</g>
<g id="clust13" class="cluster">
<title>cluster_src/infrastructure/adapters</title>
<path fill="#ffffff" stroke="black" stroke-width="2" d="M38.25,-443C38.25,-443 143,-443 143,-443 149,-443 155,-449 155,-455 155,-455 155,-517 155,-517 155,-523 149,-529 143,-529 143,-529 38.25,-529 38.25,-529 32.25,-529 26.25,-523 26.25,-517 26.25,-517 26.25,-455 26.25,-455 26.25,-449 32.25,-443 38.25,-443"/>
<text text-anchor="middle" x="90.62" y="-516.45" font-family="Helvetica,sans-Serif" font-weight="bold" font-size="9.00">adapters</text>
</g>
<g id="clust15" class="cluster">
<title>cluster_src/infrastructure/services</title>
<path fill="#ffffff" stroke="black" stroke-width="2" d="M36,-286C36,-286 145.25,-286 145.25,-286 151.25,-286 157.25,-292 157.25,-298 157.25,-298 157.25,-329 157.25,-329 157.25,-335 151.25,-341 145.25,-341 145.25,-341 36,-341 36,-341 30,-341 24,-335 24,-329 24,-329 24,-298 24,-298 24,-292 30,-286 36,-286"/>
<text text-anchor="middle" x="90.62" y="-328.45" font-family="Helvetica,sans-Serif" font-weight="bold" font-size="9.00">services</text>
</g>
<g id="clust16" class="cluster">
<title>cluster_src/infrastructure/video</title>
<path fill="#ffffff" stroke="black" stroke-width="2" d="M48.75,-537C48.75,-537 132.5,-537 132.5,-537 138.5,-537 144.5,-543 144.5,-549 144.5,-549 144.5,-580 144.5,-580 144.5,-586 138.5,-592 132.5,-592 132.5,-592 48.75,-592 48.75,-592 42.75,-592 36.75,-586 36.75,-580 36.75,-580 36.75,-549 36.75,-549 36.75,-543 42.75,-537 48.75,-537"/>
<text text-anchor="middle" x="90.62" y="-579.45" font-family="Helvetica,sans-Serif" font-weight="bold" font-size="9.00">video</text>
</g>
<g id="clust17" class="cluster">
<title>cluster_src/presentation</title>
<path fill="#ffffff" stroke="black" stroke-width="2" d="M185.25,-16C185.25,-16 420.25,-16 420.25,-16 426.25,-16 432.25,-22 432.25,-28 432.25,-28 432.25,-94 432.25,-94 432.25,-100 426.25,-106 420.25,-106 420.25,-106 185.25,-106 185.25,-106 179.25,-106 173.25,-100 173.25,-94 173.25,-94 173.25,-28 173.25,-28 173.25,-22 179.25,-16 185.25,-16"/>
<text text-anchor="middle" x="302.75" y="-93.45" font-family="Helvetica,sans-Serif" font-weight="bold" font-size="9.00">presentation</text>
</g>
<g id="clust18" class="cluster">
<title>cluster_src/presentation/components</title>
<path fill="#ffffff" stroke="black" stroke-width="2" d="M193.25,-24C193.25,-24 412.25,-24 412.25,-24 418.25,-24 424.25,-30 424.25,-36 424.25,-36 424.25,-67 424.25,-67 424.25,-73 418.25,-79 412.25,-79 412.25,-79 193.25,-79 193.25,-79 187.25,-79 181.25,-73 181.25,-67 181.25,-67 181.25,-36 181.25,-36 181.25,-30 187.25,-24 193.25,-24"/>
<text text-anchor="middle" x="302.75" y="-66.45" font-family="Helvetica,sans-Serif" font-weight="bold" font-size="9.00">components</text>
</g>
<!-- src/application/ports/IVideoParser.ts -->
<g id="node1" class="node">
<title>src/application/ports/IVideoParser.ts</title>
<g id="a_node1"><a xlink:href="src/application/ports/IVideoParser.ts" xlink:title="IVideoParser.ts">
<path fill="#ddfeff" stroke="black" d="M406.46,-779.62C406.46,-779.62 340.29,-779.62 340.29,-779.62 337.08,-779.62 333.88,-776.42 333.88,-773.21 333.88,-773.21 333.88,-766.79 333.88,-766.79 333.88,-763.58 337.08,-760.38 340.29,-760.38 340.29,-760.38 406.46,-760.38 406.46,-760.38 409.67,-760.38 412.88,-763.58 412.88,-766.79 412.88,-766.79 412.88,-773.21 412.88,-773.21 412.88,-776.42 409.67,-779.62 406.46,-779.62"/>
<text text-anchor="start" x="341.88" y="-767.08" font-family="Helvetica,sans-Serif" font-size="9.00">IVideoParser.ts</text>
</a>
</g>
</g>
<!-- src/domain/entities/index.ts -->
<g id="node2" class="node">
<title>src/domain/entities/index.ts</title>
<g id="a_node2"><a xlink:href="src/domain/entities/index.ts" xlink:title="index.ts">
<path fill="#ddfeff" stroke="black" d="M537.08,-399.62C537.08,-399.62 495.92,-399.62 495.92,-399.62 492.71,-399.62 489.5,-396.42 489.5,-393.21 489.5,-393.21 489.5,-386.79 489.5,-386.79 489.5,-383.58 492.71,-380.38 495.92,-380.38 495.92,-380.38 537.08,-380.38 537.08,-380.38 540.29,-380.38 543.5,-383.58 543.5,-386.79 543.5,-386.79 543.5,-393.21 543.5,-393.21 543.5,-396.42 540.29,-399.62 537.08,-399.62"/>
<text text-anchor="start" x="500.75" y="-387.07" font-family="Helvetica,sans-Serif" font-size="9.00">index.ts</text>
</a>
</g>
</g>
<!-- src/application/ports/IVideoParser.ts&#45;&gt;src/domain/entities/index.ts -->
<g id="edge1" class="edge">
<title>src/application/ports/IVideoParser.ts&#45;&gt;src/domain/entities/index.ts</title>
<path fill="none" stroke="#000000" stroke-opacity="0.200000" d="M413.32,-774.53C434.02,-774.66 458.27,-770.78 473.5,-755 497.97,-729.64 511.49,-476.09 514.73,-407.2"/>
<polygon fill="none" stroke="#000000" stroke-opacity="0.200000" points="516.81,-407.68 514.99,-401.59 512.62,-407.49 516.81,-407.68"/>
</g>
<!-- src/domain/entities/MetadataEntity.ts -->
<g id="node10" class="node">
<title>src/domain/entities/MetadataEntity.ts</title>
<g id="a_node10"><a xlink:href="src/domain/entities/MetadataEntity.ts" xlink:title="MetadataEntity.ts">
<path fill="#ddfeff" stroke="black" d="M835.58,-362.62C835.58,-362.62 763.42,-362.62 763.42,-362.62 760.21,-362.62 757,-359.42 757,-356.21 757,-356.21 757,-349.79 757,-349.79 757,-346.58 760.21,-343.38 763.42,-343.38 763.42,-343.38 835.58,-343.38 835.58,-343.38 838.79,-343.38 842,-346.58 842,-349.79 842,-349.79 842,-356.21 842,-356.21 842,-359.42 838.79,-362.62 835.58,-362.62"/>
<text text-anchor="start" x="765" y="-350.07" font-family="Helvetica,sans-Serif" font-size="9.00">MetadataEntity.ts</text>
</a>
</g>
</g>
<!-- src/domain/entities/index.ts&#45;&gt;src/domain/entities/MetadataEntity.ts -->
<g id="edge11" class="edge">
<title>src/domain/entities/index.ts&#45;&gt;src/domain/entities/MetadataEntity.ts</title>
<path fill="none" stroke="#000000" stroke-opacity="0.200000" d="M522.84,-380.09C529.24,-369.39 541.05,-352.95 556.5,-346 621.53,-316.74 706.65,-329.34 756.68,-341.16"/>
<polygon fill="none" stroke="#000000" stroke-opacity="0.200000" points="756,-343.16 762.32,-342.54 756.99,-339.08 756,-343.16"/>
</g>
<!-- src/domain/entities/ParsedVideo.ts -->
<g id="node11" class="node">
<title>src/domain/entities/ParsedVideo.ts</title>
<g id="a_node11"><a xlink:href="src/domain/entities/ParsedVideo.ts" xlink:title="ParsedVideo.ts">
<path fill="#ddfeff" stroke="black" d="M629.08,-371.62C629.08,-371.62 562.92,-371.62 562.92,-371.62 559.71,-371.62 556.5,-368.42 556.5,-365.21 556.5,-365.21 556.5,-358.79 556.5,-358.79 556.5,-355.58 559.71,-352.38 562.92,-352.38 562.92,-352.38 629.08,-352.38 629.08,-352.38 632.29,-352.38 635.5,-355.58 635.5,-358.79 635.5,-358.79 635.5,-365.21 635.5,-365.21 635.5,-368.42 632.29,-371.62 629.08,-371.62"/>
<text text-anchor="start" x="564.5" y="-359.07" font-family="Helvetica,sans-Serif" font-size="9.00">ParsedVideo.ts</text>
</a>
</g>
</g>
<!-- src/domain/entities/index.ts&#45;&gt;src/domain/entities/ParsedVideo.ts -->
<g id="edge12" class="edge">
<title>src/domain/entities/index.ts&#45;&gt;src/domain/entities/ParsedVideo.ts</title>
<path fill="none" stroke="#000000" stroke-opacity="0.200000" d="M543.74,-380.52C549.05,-378.6 554.71,-376.56 560.26,-374.55"/>
<polygon fill="none" stroke="#000000" stroke-opacity="0.200000" points="560.85,-376.57 565.78,-372.56 559.42,-372.62 560.85,-376.57"/>
</g>
<!-- src/domain/entities/VideoStorageDto.ts -->
<g id="node12" class="node">
<title>src/domain/entities/VideoStorageDto.ts</title>
<g id="a_node12"><a xlink:href="src/domain/entities/VideoStorageDto.ts" xlink:title="VideoStorageDto.ts">
<path fill="#ddfeff" stroke="black" d="M737.58,-378.62C737.58,-378.62 654.92,-378.62 654.92,-378.62 651.71,-378.62 648.5,-375.42 648.5,-372.21 648.5,-372.21 648.5,-365.79 648.5,-365.79 648.5,-362.58 651.71,-359.38 654.92,-359.38 654.92,-359.38 737.58,-359.38 737.58,-359.38 740.79,-359.38 744,-362.58 744,-365.79 744,-365.79 744,-372.21 744,-372.21 744,-375.42 740.79,-378.62 737.58,-378.62"/>
<text text-anchor="start" x="656.5" y="-366.07" font-family="Helvetica,sans-Serif" font-size="9.00">VideoStorageDto.ts</text>
</a>
</g>
</g>
<!-- src/domain/entities/index.ts&#45;&gt;src/domain/entities/VideoStorageDto.ts -->
<g id="edge14" class="edge">
<title>src/domain/entities/index.ts&#45;&gt;src/domain/entities/VideoStorageDto.ts</title>
<path fill="none" stroke="#000000" stroke-opacity="0.200000" d="M543.79,-387.69C567.73,-385.5 604.04,-381.97 635.5,-378 637.32,-377.77 639.17,-377.53 641.04,-377.28"/>
<polygon fill="none" stroke="#000000" stroke-opacity="0.200000" points="641.15,-379.39 646.81,-376.49 640.58,-375.22 641.15,-379.39"/>
</g>
<!-- src/domain/entities/VideoEntity.ts -->
<g id="node13" class="node">
<title>src/domain/entities/VideoEntity.ts</title>
<g id="a_node13"><a xlink:href="src/domain/entities/VideoEntity.ts" xlink:title="VideoEntity.ts">
<path fill="#ddfeff" stroke="black" d="M828.46,-396.62C828.46,-396.62 770.54,-396.62 770.54,-396.62 767.33,-396.62 764.12,-393.42 764.12,-390.21 764.12,-390.21 764.12,-383.79 764.12,-383.79 764.12,-380.58 767.33,-377.38 770.54,-377.38 770.54,-377.38 828.46,-377.38 828.46,-377.38 831.67,-377.38 834.88,-380.58 834.88,-383.79 834.88,-383.79 834.88,-390.21 834.88,-390.21 834.88,-393.42 831.67,-396.62 828.46,-396.62"/>
<text text-anchor="start" x="772.12" y="-384.07" font-family="Helvetica,sans-Serif" font-size="9.00">VideoEntity.ts</text>
</a>
</g>
</g>
<!-- src/domain/entities/index.ts&#45;&gt;src/domain/entities/VideoEntity.ts -->
<g id="edge13" class="edge">
<title>src/domain/entities/index.ts&#45;&gt;src/domain/entities/VideoEntity.ts</title>
<path fill="none" stroke="#000000" stroke-opacity="0.200000" d="M543.94,-389.72C592.81,-389.2 697.64,-388.08 756.39,-387.45"/>
<polygon fill="none" stroke="#000000" stroke-opacity="0.200000" points="756.18,-389.55 762.15,-387.39 756.13,-385.35 756.18,-389.55"/>
</g>
<!-- src/application/ports/IVideoStorage.ts -->
<g id="node3" class="node">
<title>src/application/ports/IVideoStorage.ts</title>
<g id="a_node3"><a xlink:href="src/application/ports/IVideoStorage.ts" xlink:title="IVideoStorage.ts">
<path fill="#ddfeff" stroke="black" d="M408.71,-748.62C408.71,-748.62 338.04,-748.62 338.04,-748.62 334.83,-748.62 331.62,-745.42 331.62,-742.21 331.62,-742.21 331.62,-735.79 331.62,-735.79 331.62,-732.58 334.83,-729.38 338.04,-729.38 338.04,-729.38 408.71,-729.38 408.71,-729.38 411.92,-729.38 415.12,-732.58 415.12,-735.79 415.12,-735.79 415.12,-742.21 415.12,-742.21 415.12,-745.42 411.92,-748.62 408.71,-748.62"/>
<text text-anchor="start" x="339.62" y="-736.08" font-family="Helvetica,sans-Serif" font-size="9.00">IVideoStorage.ts</text>
</a>
</g>
</g>
<!-- src/application/ports/IVideoStorage.ts&#45;&gt;src/domain/entities/index.ts -->
<g id="edge2" class="edge">
<title>src/application/ports/IVideoStorage.ts&#45;&gt;src/domain/entities/index.ts</title>
<path fill="none" stroke="#000000" stroke-opacity="0.200000" d="M415.53,-739.83C435.85,-737.95 459.04,-731.98 473.5,-716 515,-670.14 516.33,-468.21 515.77,-407.39"/>
<polygon fill="none" stroke="#000000" stroke-opacity="0.200000" points="517.87,-407.57 515.7,-401.59 513.67,-407.62 517.87,-407.57"/>
</g>
<!-- src/application/services/FileParserService.ts -->
<g id="node4" class="node">
<title>src/application/services/FileParserService.ts</title>
<g id="a_node4"><a xlink:href="src/application/services/FileParserService.ts" xlink:title="FileParserService.ts">
<path fill="#ddfeff" stroke="black" d="M416.21,-528.62C416.21,-528.62 330.54,-528.62 330.54,-528.62 327.33,-528.62 324.12,-525.42 324.12,-522.21 324.12,-522.21 324.12,-515.79 324.12,-515.79 324.12,-512.58 327.33,-509.38 330.54,-509.38 330.54,-509.38 416.21,-509.38 416.21,-509.38 419.42,-509.38 422.62,-512.58 422.62,-515.79 422.62,-515.79 422.62,-522.21 422.62,-522.21 422.62,-525.42 419.42,-528.62 416.21,-528.62"/>
<text text-anchor="start" x="332.12" y="-516.08" font-family="Helvetica,sans-Serif" font-size="9.00">FileParserService.ts</text>
</a>
</g>
</g>
<!-- src/application/services/FileParserService.ts&#45;&gt;src/domain/entities/index.ts -->
<g id="edge3" class="edge">
<title>src/application/services/FileParserService.ts&#45;&gt;src/domain/entities/index.ts</title>
<path fill="none" stroke="#000000" stroke-opacity="0.200000" d="M422.88,-521.51C440.48,-520.06 459.47,-515.44 473.5,-504 503.15,-479.83 511.87,-432.68 514.43,-407.25"/>
<polygon fill="none" stroke="#000000" stroke-opacity="0.200000" points="516.52,-407.48 514.94,-401.32 512.34,-407.12 516.52,-407.48"/>
</g>
<!-- src/application/services/FiltersService.ts -->
<g id="node5" class="node">
<title>src/application/services/FiltersService.ts</title>
<g id="a_node5"><a xlink:href="src/application/services/FiltersService.ts" xlink:title="FiltersService.ts">
<path fill="#ddfeff" stroke="black" d="M407.58,-497.62C407.58,-497.62 339.17,-497.62 339.17,-497.62 335.96,-497.62 332.75,-494.42 332.75,-491.21 332.75,-491.21 332.75,-484.79 332.75,-484.79 332.75,-481.58 335.96,-478.38 339.17,-478.38 339.17,-478.38 407.58,-478.38 407.58,-478.38 410.79,-478.38 414,-481.58 414,-484.79 414,-484.79 414,-491.21 414,-491.21 414,-494.42 410.79,-497.62 407.58,-497.62"/>
<text text-anchor="start" x="340.75" y="-485.07" font-family="Helvetica,sans-Serif" font-size="9.00">FiltersService.ts</text>
</a>
</g>
</g>
<!-- src/application/services/FiltersService.ts&#45;&gt;src/domain/entities/index.ts -->
<g id="edge4" class="edge">
<title>src/application/services/FiltersService.ts&#45;&gt;src/domain/entities/index.ts</title>
<path fill="none" stroke="#000000" stroke-opacity="0.200000" d="M414.07,-482.24C433.52,-477.85 456.37,-470.21 473.5,-457 490.5,-443.89 502.41,-421.79 509.1,-406.58"/>
<polygon fill="none" stroke="#000000" stroke-opacity="0.200000" points="511,-407.48 511.38,-401.13 507.12,-405.85 511,-407.48"/>
</g>
<!-- src/application/stores/videosStore.ts -->
<g id="node6" class="node">
<title>src/application/stores/videosStore.ts</title>
<g id="a_node6"><a xlink:href="src/application/stores/videosStore.ts" xlink:title="videosStore.ts">
<path fill="#ddfeff" stroke="black" d="M404.21,-685.62C404.21,-685.62 342.54,-685.62 342.54,-685.62 339.33,-685.62 336.12,-682.42 336.12,-679.21 336.12,-679.21 336.12,-672.79 336.12,-672.79 336.12,-669.58 339.33,-666.38 342.54,-666.38 342.54,-666.38 404.21,-666.38 404.21,-666.38 407.42,-666.38 410.62,-669.58 410.62,-672.79 410.62,-672.79 410.62,-679.21 410.62,-679.21 410.62,-682.42 407.42,-685.62 404.21,-685.62"/>
<text text-anchor="start" x="344.12" y="-673.08" font-family="Helvetica,sans-Serif" font-size="9.00">videosStore.ts</text>
</a>
</g>
</g>
<!-- src/application/stores/videosStore.ts&#45;&gt;src/domain/entities/index.ts -->
<g id="edge5" class="edge">
<title>src/application/stores/videosStore.ts&#45;&gt;src/domain/entities/index.ts</title>
<path fill="none" stroke="#000000" stroke-opacity="0.200000" d="M410.91,-677.01C432.13,-675.55 457.72,-669.92 473.5,-653 506.95,-617.14 513.8,-460.15 515.17,-407.38"/>
<polygon fill="none" stroke="#000000" stroke-opacity="0.200000" points="517.26,-407.67 515.3,-401.62 513.06,-407.57 517.26,-407.67"/>
</g>
<!-- src/application/usecases/AddVideosFromFilesUseCase.ts -->
<g id="node7" class="node">
<title>src/application/usecases/AddVideosFromFilesUseCase.ts</title>
<g id="a_node7"><a xlink:href="src/application/usecases/AddVideosFromFilesUseCase.ts" xlink:title="AddVideosFromFilesUseCase.ts">
<path fill="#ddfeff" stroke="black" d="M442.83,-622.62C442.83,-622.62 303.92,-622.62 303.92,-622.62 300.71,-622.62 297.5,-619.42 297.5,-616.21 297.5,-616.21 297.5,-609.79 297.5,-609.79 297.5,-606.58 300.71,-603.38 303.92,-603.38 303.92,-603.38 442.83,-603.38 442.83,-603.38 446.04,-603.38 449.25,-606.58 449.25,-609.79 449.25,-609.79 449.25,-616.21 449.25,-616.21 449.25,-619.42 446.04,-622.62 442.83,-622.62"/>
<text text-anchor="start" x="305.5" y="-610.08" font-family="Helvetica,sans-Serif" font-size="9.00">AddVideosFromFilesUseCase.ts</text>
</a>
</g>
</g>
<!-- src/application/usecases/AddVideosFromFilesUseCase.ts&#45;&gt;src/domain/entities/index.ts -->
<g id="edge6" class="edge">
<title>src/application/usecases/AddVideosFromFilesUseCase.ts&#45;&gt;src/domain/entities/index.ts</title>
<path fill="none" stroke="#000000" stroke-opacity="0.200000" d="M449.41,-611.83C458.35,-608.9 466.69,-604.48 473.5,-598 501.06,-571.76 511.49,-452.41 514.49,-407.32"/>
<polygon fill="none" stroke="#000000" stroke-opacity="0.200000" points="516.57,-407.67 514.86,-401.55 512.38,-407.4 516.57,-407.67"/>
</g>
<!-- src/application/usecases/UpdateVideoThumbnailsUseCase.ts -->
<g id="node8" class="node">
<title>src/application/usecases/UpdateVideoThumbnailsUseCase.ts</title>
<g id="a_node8"><a xlink:href="src/application/usecases/UpdateVideoThumbnailsUseCase.ts" xlink:title="UpdateVideoThumbnailsUseCase.ts">
<path fill="#ddfeff" stroke="black" d="M451.08,-591.62C451.08,-591.62 295.67,-591.62 295.67,-591.62 292.46,-591.62 289.25,-588.42 289.25,-585.21 289.25,-585.21 289.25,-578.79 289.25,-578.79 289.25,-575.58 292.46,-572.38 295.67,-572.38 295.67,-572.38 451.08,-572.38 451.08,-572.38 454.29,-572.38 457.5,-575.58 457.5,-578.79 457.5,-578.79 457.5,-585.21 457.5,-585.21 457.5,-588.42 454.29,-591.62 451.08,-591.62"/>
<text text-anchor="start" x="297.25" y="-579.08" font-family="Helvetica,sans-Serif" font-size="9.00">UpdateVideoThumbnailsUseCase.ts</text>
</a>
</g>
</g>
<!-- src/application/usecases/UpdateVideoThumbnailsUseCase.ts&#45;&gt;src/domain/entities/index.ts -->
<g id="edge7" class="edge">
<title>src/application/usecases/UpdateVideoThumbnailsUseCase.ts&#45;&gt;src/domain/entities/index.ts</title>
<path fill="none" stroke="#000000" stroke-opacity="0.200000" d="M454.33,-572.02C461.4,-568.71 467.96,-564.45 473.5,-559 495.12,-537.71 508.66,-445.91 513.5,-407.26"/>
<polygon fill="none" stroke="#000000" stroke-opacity="0.200000" points="515.57,-407.57 514.21,-401.36 511.4,-407.07 515.57,-407.57"/>
</g>
<!-- src/domain/constants/index.ts -->
<g id="node9" class="node">
<title>src/domain/constants/index.ts</title>
<g id="a_node9"><a xlink:href="src/domain/constants/index.ts" xlink:title="index.ts">
<path fill="#ddfeff" stroke="black" d="M247.83,-399.62C247.83,-399.62 206.67,-399.62 206.67,-399.62 203.46,-399.62 200.25,-396.42 200.25,-393.21 200.25,-393.21 200.25,-386.79 200.25,-386.79 200.25,-383.58 203.46,-380.38 206.67,-380.38 206.67,-380.38 247.83,-380.38 247.83,-380.38 251.04,-380.38 254.25,-383.58 254.25,-386.79 254.25,-386.79 254.25,-393.21 254.25,-393.21 254.25,-396.42 251.04,-399.62 247.83,-399.62"/>
<text text-anchor="start" x="211.5" y="-387.07" font-family="Helvetica,sans-Serif" font-size="9.00">index.ts</text>
</a>
</g>
</g>
<!-- src/domain/entities/ParsedVideo.ts&#45;&gt;src/domain/entities/VideoStorageDto.ts -->
<g id="edge8" class="edge">
<title>src/domain/entities/ParsedVideo.ts&#45;&gt;src/domain/entities/VideoStorageDto.ts</title>
<path fill="none" stroke="#000000" stroke-opacity="0.200000" d="M635.83,-364.77C637.49,-364.88 639.16,-365 640.84,-365.12"/>
<polygon fill="none" stroke="#000000" stroke-opacity="0.200000" points="640.59,-367.21 646.73,-365.54 640.89,-363.02 640.59,-367.21"/>
</g>
<!-- src/domain/entities/VideoStorageDto.ts&#45;&gt;src/domain/entities/MetadataEntity.ts -->
<g id="edge9" class="edge">
<title>src/domain/entities/VideoStorageDto.ts&#45;&gt;src/domain/entities/MetadataEntity.ts</title>
<path fill="none" stroke="#000000" stroke-opacity="0.200000" d="M744.32,-361.56C746,-361.3 747.68,-361.03 749.36,-360.77"/>
<polygon fill="none" stroke="#000000" stroke-opacity="0.200000" points="749.6,-362.85 755.2,-359.84 748.95,-358.7 749.6,-362.85"/>
</g>
<!-- src/domain/entities/VideoStorageDto.ts&#45;&gt;src/domain/entities/VideoEntity.ts -->
<g id="edge10" class="edge">
<title>src/domain/entities/VideoStorageDto.ts&#45;&gt;src/domain/entities/VideoEntity.ts</title>
<path fill="none" stroke="#000000" stroke-opacity="0.200000" d="M744.32,-377.37C748.38,-378.09 752.48,-378.82 756.51,-379.53"/>
<polygon fill="none" stroke="#000000" stroke-opacity="0.200000" points="755.88,-381.56 762.15,-380.54 756.61,-377.42 755.88,-381.56"/>
</g>
<!-- src/domain/repositories/IMetadataRepository.ts -->
<g id="node14" class="node">
<title>src/domain/repositories/IMetadataRepository.ts</title>
<g id="a_node14"><a xlink:href="src/domain/repositories/IMetadataRepository.ts" xlink:title="IMetadataRepository.ts">
<path fill="#ddfeff" stroke="black" d="M421.83,-274.62C421.83,-274.62 324.92,-274.62 324.92,-274.62 321.71,-274.62 318.5,-271.42 318.5,-268.21 318.5,-268.21 318.5,-261.79 318.5,-261.79 318.5,-258.58 321.71,-255.38 324.92,-255.38 324.92,-255.38 421.83,-255.38 421.83,-255.38 425.04,-255.38 428.25,-258.58 428.25,-261.79 428.25,-261.79 428.25,-268.21 428.25,-268.21 428.25,-271.42 425.04,-274.62 421.83,-274.62"/>
<text text-anchor="start" x="326.5" y="-262.07" font-family="Helvetica,sans-Serif" font-size="9.00">IMetadataRepository.ts</text>
</a>
</g>
</g>
<!-- src/domain/repositories/IMetadataRepository.ts&#45;&gt;src/domain/entities/index.ts -->
<g id="edge15" class="edge">
<title>src/domain/repositories/IMetadataRepository.ts&#45;&gt;src/domain/entities/index.ts</title>
<path fill="none" stroke="#000000" stroke-opacity="0.200000" d="M428.69,-263.18C444.54,-265.14 460.96,-269.9 473.5,-280 502.23,-303.14 511.33,-348.32 514.19,-372.97"/>
<polygon fill="none" stroke="#000000" stroke-opacity="0.200000" points="512.08,-372.93 514.77,-378.69 516.26,-372.51 512.08,-372.93"/>
</g>
<!-- src/domain/repositories/IVideoFacade.ts -->
<g id="node15" class="node">
<title>src/domain/repositories/IVideoFacade.ts</title>
<g id="a_node15"><a xlink:href="src/domain/repositories/IVideoFacade.ts" xlink:title="IVideoFacade.ts">
<path fill="#ddfeff" stroke="black" d="M407.96,-305.62C407.96,-305.62 338.79,-305.62 338.79,-305.62 335.58,-305.62 332.38,-302.42 332.38,-299.21 332.38,-299.21 332.38,-292.79 332.38,-292.79 332.38,-289.58 335.58,-286.38 338.79,-286.38 338.79,-286.38 407.96,-286.38 407.96,-286.38 411.17,-286.38 414.38,-289.58 414.38,-292.79 414.38,-292.79 414.38,-299.21 414.38,-299.21 414.38,-302.42 411.17,-305.62 407.96,-305.62"/>
<text text-anchor="start" x="340.38" y="-293.07" font-family="Helvetica,sans-Serif" font-size="9.00">IVideoFacade.ts</text>
</a>
</g>
</g>
<!-- src/domain/repositories/IVideoFacade.ts&#45;&gt;src/domain/entities/index.ts -->
<g id="edge16" class="edge">
<title>src/domain/repositories/IVideoFacade.ts&#45;&gt;src/domain/entities/index.ts</title>
<path fill="none" stroke="#000000" stroke-opacity="0.200000" d="M414.63,-294.01C433.99,-294.95 456.6,-299.03 473.5,-311 494.46,-325.85 505.87,-354.48 511.32,-372.89"/>
<polygon fill="none" stroke="#000000" stroke-opacity="0.200000" points="509.28,-373.4 512.9,-378.63 513.33,-372.28 509.28,-373.4"/>
</g>
<!-- src/domain/repositories/IVideoRepository.ts -->
<g id="node16" class="node">
<title>src/domain/repositories/IVideoRepository.ts</title>
<g id="a_node16"><a xlink:href="src/domain/repositories/IVideoRepository.ts" xlink:title="IVideoRepository.ts">
<path fill="#ddfeff" stroke="black" d="M414.71,-336.62C414.71,-336.62 332.04,-336.62 332.04,-336.62 328.83,-336.62 325.62,-333.42 325.62,-330.21 325.62,-330.21 325.62,-323.79 325.62,-323.79 325.62,-320.58 328.83,-317.38 332.04,-317.38 332.04,-317.38 414.71,-317.38 414.71,-317.38 417.92,-317.38 421.12,-320.58 421.12,-323.79 421.12,-323.79 421.12,-330.21 421.12,-330.21 421.12,-333.42 417.92,-336.62 414.71,-336.62"/>
<text text-anchor="start" x="333.62" y="-324.07" font-family="Helvetica,sans-Serif" font-size="9.00">IVideoRepository.ts</text>
</a>
</g>
</g>
<!-- src/domain/repositories/IVideoRepository.ts&#45;&gt;src/domain/entities/index.ts -->
<g id="edge17" class="edge">
<title>src/domain/repositories/IVideoRepository.ts&#45;&gt;src/domain/entities/index.ts</title>
<path fill="none" stroke="#000000" stroke-opacity="0.200000" d="M397.05,-337.12C421.22,-347.91 459.6,-365.05 486.08,-376.87"/>
<polygon fill="none" stroke="#000000" stroke-opacity="0.200000" points="485.17,-378.76 491.5,-379.29 486.88,-374.92 485.17,-378.76"/>
</g>
<!-- src/domain/repositories/index.ts -->
<g id="node17" class="node">
<title>src/domain/repositories/index.ts</title>
<g id="a_node17"><a xlink:href="src/domain/repositories/index.ts" xlink:title="index.ts">
<path fill="#ddfeff" stroke="black" d="M247.83,-324.62C247.83,-324.62 206.67,-324.62 206.67,-324.62 203.46,-324.62 200.25,-321.42 200.25,-318.21 200.25,-318.21 200.25,-311.79 200.25,-311.79 200.25,-308.58 203.46,-305.38 206.67,-305.38 206.67,-305.38 247.83,-305.38 247.83,-305.38 251.04,-305.38 254.25,-308.58 254.25,-311.79 254.25,-311.79 254.25,-318.21 254.25,-318.21 254.25,-321.42 251.04,-324.62 247.83,-324.62"/>
<text text-anchor="start" x="211.5" y="-312.07" font-family="Helvetica,sans-Serif" font-size="9.00">index.ts</text>
</a>
</g>
</g>
<!-- src/domain/repositories/index.ts&#45;&gt;src/domain/repositories/IMetadataRepository.ts -->
<g id="edge18" class="edge">
<title>src/domain/repositories/index.ts&#45;&gt;src/domain/repositories/IMetadataRepository.ts</title>
<path fill="none" stroke="#000000" stroke-opacity="0.200000" d="M237.99,-304.98C246.5,-296.87 259.61,-285.86 273.25,-280 284.99,-274.96 298.15,-271.58 310.94,-269.31"/>
<polygon fill="none" stroke="#000000" stroke-opacity="0.200000" points="310.92,-271.44 316.51,-268.41 310.25,-267.3 310.92,-271.44"/>
</g>
<!-- src/domain/repositories/index.ts&#45;&gt;src/domain/repositories/IVideoFacade.ts -->
<g id="edge19" class="edge">
<title>src/domain/repositories/index.ts&#45;&gt;src/domain/repositories/IVideoFacade.ts</title>
<path fill="none" stroke="#000000" stroke-opacity="0.200000" d="M254.68,-311.52C274.19,-308.94 301.27,-305.37 324.54,-302.31"/>
<polygon fill="none" stroke="#000000" stroke-opacity="0.200000" points="324.77,-304.39 330.45,-301.53 324.22,-300.23 324.77,-304.39"/>
</g>
<!-- src/domain/repositories/index.ts&#45;&gt;src/domain/repositories/IVideoRepository.ts -->
<g id="edge20" class="edge">
<title>src/domain/repositories/index.ts&#45;&gt;src/domain/repositories/IVideoRepository.ts</title>
<path fill="none" stroke="#000000" stroke-opacity="0.200000" d="M254.68,-317.2C272.43,-318.68 296.44,-320.68 318.14,-322.48"/>
<polygon fill="none" stroke="#000000" stroke-opacity="0.200000" points="317.74,-324.56 323.9,-322.96 318.09,-320.37 317.74,-324.56"/>
</g>
<!-- src/domain/valueObjects/ParsedVideoData.ts -->
<g id="node18" class="node">
<title>src/domain/valueObjects/ParsedVideoData.ts</title>
<g id="a_node18"><a xlink:href="src/domain/valueObjects/ParsedVideoData.ts" xlink:title="ParsedVideoData.ts">
<path fill="#ddfeff" stroke="black" d="M416.21,-149.62C416.21,-149.62 330.54,-149.62 330.54,-149.62 327.33,-149.62 324.12,-146.42 324.12,-143.21 324.12,-143.21 324.12,-136.79 324.12,-136.79 324.12,-133.58 327.33,-130.38 330.54,-130.38 330.54,-130.38 416.21,-130.38 416.21,-130.38 419.42,-130.38 422.62,-133.58 422.62,-136.79 422.62,-136.79 422.62,-143.21 422.62,-143.21 422.62,-146.42 419.42,-149.62 416.21,-149.62"/>
<text text-anchor="start" x="332.12" y="-137.07" font-family="Helvetica,sans-Serif" font-size="9.00">ParsedVideoData.ts</text>
</a>
</g>
</g>
<!-- src/domain/valueObjects/Thumbs.ts -->
<g id="node19" class="node">
<title>src/domain/valueObjects/Thumbs.ts</title>
<g id="a_node19"><a xlink:href="src/domain/valueObjects/Thumbs.ts" xlink:title="Thumbs.ts">
<path fill="#ddfeff" stroke="black" d="M397.08,-180.62C397.08,-180.62 349.67,-180.62 349.67,-180.62 346.46,-180.62 343.25,-177.42 343.25,-174.21 343.25,-174.21 343.25,-167.79 343.25,-167.79 343.25,-164.58 346.46,-161.38 349.67,-161.38 349.67,-161.38 397.08,-161.38 397.08,-161.38 400.29,-161.38 403.5,-164.58 403.5,-167.79 403.5,-167.79 403.5,-174.21 403.5,-174.21 403.5,-177.42 400.29,-180.62 397.08,-180.62"/>
<text text-anchor="start" x="351.25" y="-168.07" font-family="Helvetica,sans-Serif" font-size="9.00">Thumbs.ts</text>
</a>
</g>
</g>
<!-- src/domain/valueObjects/VideoStorageDtoMapper.ts -->
<g id="node20" class="node">
<title>src/domain/valueObjects/VideoStorageDtoMapper.ts</title>
<g id="a_node20"><a xlink:href="src/domain/valueObjects/VideoStorageDtoMapper.ts" xlink:title="VideoStorageDtoMapper.ts">
<path fill="#ddfeff" stroke="black" d="M430.08,-211.62C430.08,-211.62 316.67,-211.62 316.67,-211.62 313.46,-211.62 310.25,-208.42 310.25,-205.21 310.25,-205.21 310.25,-198.79 310.25,-198.79 310.25,-195.58 313.46,-192.38 316.67,-192.38 316.67,-192.38 430.08,-192.38 430.08,-192.38 433.29,-192.38 436.5,-195.58 436.5,-198.79 436.5,-198.79 436.5,-205.21 436.5,-205.21 436.5,-208.42 433.29,-211.62 430.08,-211.62"/>
<text text-anchor="start" x="318.25" y="-199.07" font-family="Helvetica,sans-Serif" font-size="9.00">VideoStorageDtoMapper.ts</text>
</a>
</g>
</g>
<!-- src/domain/valueObjects/VideoStorageDtoMapper.ts&#45;&gt;src/domain/entities/index.ts -->
<g id="edge21" class="edge">
<title>src/domain/valueObjects/VideoStorageDtoMapper.ts&#45;&gt;src/domain/entities/index.ts</title>
<path fill="none" stroke="#000000" stroke-opacity="0.200000" d="M420,-212.05C438.91,-218.34 459.62,-228.33 473.5,-244 506.58,-281.33 513.7,-343.17 515.17,-372.95"/>
<polygon fill="none" stroke="#000000" stroke-opacity="0.200000" points="513.06,-372.69 515.39,-378.61 517.26,-372.53 513.06,-372.69"/>
</g>
<!-- src/domain/valueObjects/index.ts -->
<g id="node21" class="node">
<title>src/domain/valueObjects/index.ts</title>
<g id="a_node21"><a xlink:href="src/domain/valueObjects/index.ts" xlink:title="index.ts">
<path fill="#ddfeff" stroke="black" d="M247.83,-211.62C247.83,-211.62 206.67,-211.62 206.67,-211.62 203.46,-211.62 200.25,-208.42 200.25,-205.21 200.25,-205.21 200.25,-198.79 200.25,-198.79 200.25,-195.58 203.46,-192.38 206.67,-192.38 206.67,-192.38 247.83,-192.38 247.83,-192.38 251.04,-192.38 254.25,-195.58 254.25,-198.79 254.25,-198.79 254.25,-205.21 254.25,-205.21 254.25,-208.42 251.04,-211.62 247.83,-211.62"/>
<text text-anchor="start" x="211.5" y="-199.07" font-family="Helvetica,sans-Serif" font-size="9.00">index.ts</text>
</a>
</g>
</g>
<!-- src/domain/valueObjects/index.ts&#45;&gt;src/domain/valueObjects/ParsedVideoData.ts -->
<g id="edge22" class="edge">
<title>src/domain/valueObjects/index.ts&#45;&gt;src/domain/valueObjects/ParsedVideoData.ts</title>
<path fill="none" stroke="#000000" stroke-width="2" stroke-opacity="0.200000" d="M234.57,-192.26C242.29,-181.25 256.4,-163.74 323.77,-141.02"/>
<polygon fill="#000000" fill-opacity="0.200000" stroke="#000000" stroke-width="2" stroke-opacity="0.200000" points="326.57,-139.63 330.47,-147.73 322.37,-143.83 326.57,-139.63"/>
</g>
<!-- src/domain/valueObjects/index.ts&#45;&gt;src/domain/valueObjects/Thumbs.ts -->
<g id="edge23" class="edge">
<title>src/domain/valueObjects/index.ts&#45;&gt;src/domain/valueObjects/Thumbs.ts</title>
<path fill="none" stroke="#000000" stroke-opacity="0.200000" d="M253.69,-192C260.01,-189.78 266.82,-187.61 273.25,-186 293.67,-180.88 316.92,-177.25 335.77,-174.84"/>
<polygon fill="none" stroke="#000000" stroke-opacity="0.200000" points="335.82,-176.95 341.52,-174.13 335.31,-172.78 335.82,-176.95"/>
</g>
<!-- src/domain/valueObjects/index.ts&#45;&gt;src/domain/valueObjects/VideoStorageDtoMapper.ts -->
<g id="edge24" class="edge">
<title>src/domain/valueObjects/index.ts&#45;&gt;src/domain/valueObjects/VideoStorageDtoMapper.ts</title>
<path fill="none" stroke="#000000" stroke-width="2" stroke-opacity="0.200000" d="M254.68,-202C270.21,-202 290.53,-202 309.9,-202"/>
<polygon fill="#000000" fill-opacity="0.200000" stroke="#000000" stroke-width="2" stroke-opacity="0.200000" points="312.71,-200.61 316.61,-208.71 308.51,-204.81 312.71,-200.61"/>
</g>
<!-- src/infrastructure/adapters/VideoParserAdapter.ts -->
<g id="node22" class="node">
<title>src/infrastructure/adapters/VideoParserAdapter.ts</title>
<g id="a_node22"><a xlink:href="src/infrastructure/adapters/VideoParserAdapter.ts" xlink:title="VideoParserAdapter.ts">
<path fill="#ddfeff" stroke="black" d="M138.33,-470.62C138.33,-470.62 42.92,-470.62 42.92,-470.62 39.71,-470.62 36.5,-467.42 36.5,-464.21 36.5,-464.21 36.5,-457.79 36.5,-457.79 36.5,-454.58 39.71,-451.38 42.92,-451.38 42.92,-451.38 138.33,-451.38 138.33,-451.38 141.54,-451.38 144.75,-454.58 144.75,-457.79 144.75,-457.79 144.75,-464.21 144.75,-464.21 144.75,-467.42 141.54,-470.62 138.33,-470.62"/>
<text text-anchor="start" x="44.5" y="-458.07" font-family="Helvetica,sans-Serif" font-size="9.00">VideoParserAdapter.ts</text>
</a>
</g>
</g>
<!-- src/infrastructure/adapters/VideoParserAdapter.ts&#45;&gt;src/domain/entities/index.ts -->
<g id="edge25" class="edge">
<title>src/infrastructure/adapters/VideoParserAdapter.ts&#45;&gt;src/domain/entities/index.ts</title>
<path fill="none" stroke="#000000" stroke-opacity="0.200000" d="M145.17,-464.75C154.53,-465.27 164.17,-465.72 173.25,-466 214.12,-467.25 232.93,-491.04 265.25,-466 276.5,-457.29 262.45,-444.26 273.25,-435 307.2,-405.89 431.02,-428.99 473.5,-415 481.4,-412.4 489.4,-408.12 496.28,-403.84"/>
<polygon fill="none" stroke="#000000" stroke-opacity="0.200000" points="497.09,-405.82 500.97,-400.78 494.8,-402.3 497.09,-405.82"/>
</g>
<!-- src/infrastructure/adapters/VideoStorageAdapter.ts -->
<g id="node23" class="node">
<title>src/infrastructure/adapters/VideoStorageAdapter.ts</title>
<g id="a_node23"><a xlink:href="src/infrastructure/adapters/VideoStorageAdapter.ts" xlink:title="VideoStorageAdapter.ts">
<path fill="#ddfeff" stroke="black" d="M140.58,-501.62C140.58,-501.62 40.67,-501.62 40.67,-501.62 37.46,-501.62 34.25,-498.42 34.25,-495.21 34.25,-495.21 34.25,-488.79 34.25,-488.79 34.25,-485.58 37.46,-482.38 40.67,-482.38 40.67,-482.38 140.58,-482.38 140.58,-482.38 143.79,-482.38 147,-485.58 147,-488.79 147,-488.79 147,-495.21 147,-495.21 147,-498.42 143.79,-501.62 140.58,-501.62"/>
<text text-anchor="start" x="42.25" y="-489.07" font-family="Helvetica,sans-Serif" font-size="9.00">VideoStorageAdapter.ts</text>
</a>
</g>
</g>
<!-- src/infrastructure/adapters/VideoStorageAdapter.ts&#45;&gt;src/domain/entities/index.ts -->
<g id="edge26" class="edge">
<title>src/infrastructure/adapters/VideoStorageAdapter.ts&#45;&gt;src/domain/entities/index.ts</title>
<path fill="none" stroke="#000000" stroke-opacity="0.200000" d="M147.23,-493.06C191.07,-492.74 247.66,-489.37 265.25,-475 274.61,-467.35 263.89,-456.66 273.25,-449 307.86,-420.67 432.74,-447.4 473.5,-429 485.14,-423.75 495.67,-413.95 503.27,-405.5"/>
<polygon fill="none" stroke="#000000" stroke-opacity="0.200000" points="504.75,-407 507.06,-401.08 501.56,-404.26 504.75,-407"/>
</g>
<!-- src/infrastructure/repository/MetadataRepository.ts -->
<g id="node24" class="node">
<title>src/infrastructure/repository/MetadataRepository.ts</title>
<g id="a_node24"><a xlink:href="src/infrastructure/repository/MetadataRepository.ts" xlink:title="MetadataRepository.ts">
<path fill="#ddfeff" stroke="black" d="M137.96,-407.62C137.96,-407.62 43.29,-407.62 43.29,-407.62 40.08,-407.62 36.88,-404.42 36.88,-401.21 36.88,-401.21 36.88,-394.79 36.88,-394.79 36.88,-391.58 40.08,-388.38 43.29,-388.38 43.29,-388.38 137.96,-388.38 137.96,-388.38 141.17,-388.38 144.38,-391.58 144.38,-394.79 144.38,-394.79 144.38,-401.21 144.38,-401.21 144.38,-404.42 141.17,-407.62 137.96,-407.62"/>
<text text-anchor="start" x="44.88" y="-395.07" font-family="Helvetica,sans-Serif" font-size="9.00">MetadataRepository.ts</text>
</a>
</g>
</g>
<!-- src/infrastructure/repository/MetadataRepository.ts&#45;&gt;src/domain/entities/index.ts -->
<g id="edge28" class="edge">
<title>src/infrastructure/repository/MetadataRepository.ts&#45;&gt;src/domain/entities/index.ts</title>
<path fill="none" stroke="#000000" stroke-opacity="0.200000" d="M116.35,-408.03C131.78,-415.21 151.3,-426.06 165.25,-440 170.32,-445.07 167.05,-450.4 173.25,-454 208.62,-474.52 233.11,-479.28 265.25,-454 277.11,-444.67 261.87,-430.91 273.25,-421 306.98,-391.64 429.48,-408.91 473.5,-401 476.34,-400.49 479.27,-399.89 482.2,-399.23"/>
<polygon fill="none" stroke="#000000" stroke-opacity="0.200000" points="482.61,-401.29 487.96,-397.86 481.63,-397.2 482.61,-401.29"/>
</g>
<!-- src/infrastructure/repository/MetadataRepository.ts&#45;&gt;src/domain/constants/index.ts -->
<g id="edge27" class="edge">
<title>src/infrastructure/repository/MetadataRepository.ts&#45;&gt;src/domain/constants/index.ts</title>
<path fill="none" stroke="#000000" stroke-width="2" stroke-opacity="0.200000" d="M144.83,-394.84C160.39,-393.91 176.99,-392.93 191.13,-392.09"/>
<polygon fill="#000000" fill-opacity="0.200000" stroke="#000000" stroke-width="2" stroke-opacity="0.200000" points="191.13,-394.19 197,-391.74 190.88,-390 191.13,-394.19"/>
</g>
<!-- src/infrastructure/repository/MetadataRepository.ts&#45;&gt;src/domain/repositories/index.ts -->
<g id="edge29" class="edge">
<title>src/infrastructure/repository/MetadataRepository.ts&#45;&gt;src/domain/repositories/index.ts</title>
<path fill="none" stroke="#000000" stroke-opacity="0.200000" d="M144.62,-392.92C151.99,-390.63 159.12,-387.43 165.25,-383 171.06,-378.8 168.93,-374.72 173.25,-369 184.05,-354.73 198.36,-340.35 209.4,-330.02"/>
<polygon fill="none" stroke="#000000" stroke-opacity="0.200000" points="210.73,-331.65 213.72,-326.04 207.88,-328.56 210.73,-331.65"/>
</g>
<!-- src/infrastructure/repository/VideoRepository.ts -->
<g id="node25" class="node">
<title>src/infrastructure/repository/VideoRepository.ts</title>
<g id="a_node25"><a xlink:href="src/infrastructure/repository/VideoRepository.ts" xlink:title="VideoRepository.ts">
<path fill="#ddfeff" stroke="black" d="M130.83,-376.62C130.83,-376.62 50.42,-376.62 50.42,-376.62 47.21,-376.62 44,-373.42 44,-370.21 44,-370.21 44,-363.79 44,-363.79 44,-360.58 47.21,-357.38 50.42,-357.38 50.42,-357.38 130.83,-357.38 130.83,-357.38 134.04,-357.38 137.25,-360.58 137.25,-363.79 137.25,-363.79 137.25,-370.21 137.25,-370.21 137.25,-373.42 134.04,-376.62 130.83,-376.62"/>
<text text-anchor="start" x="52" y="-364.07" font-family="Helvetica,sans-Serif" font-size="9.00">VideoRepository.ts</text>
</a>
</g>
</g>
<!-- src/infrastructure/repository/VideoRepository.ts&#45;&gt;src/domain/entities/index.ts -->
<g id="edge31" class="edge">
<title>src/infrastructure/repository/VideoRepository.ts&#45;&gt;src/domain/entities/index.ts</title>
<path fill="none" stroke="#000000" stroke-opacity="0.200000" d="M137.67,-367.64C148,-369.96 158.02,-374.29 165.25,-382 183.05,-400.98 153.63,-422.9 173.25,-440 188.66,-453.43 249.37,-452.88 265.25,-440 278.65,-429.13 260.12,-413.2 273.25,-402 288.76,-388.77 419.39,-388.69 482.13,-389.43"/>
<polygon fill="none" stroke="#000000" stroke-opacity="0.200000" points="481.89,-391.53 487.92,-389.51 481.94,-387.33 481.89,-391.53"/>
</g>
<!-- src/infrastructure/repository/VideoRepository.ts&#45;&gt;src/domain/constants/index.ts -->
<g id="edge30" class="edge">
<title>src/infrastructure/repository/VideoRepository.ts&#45;&gt;src/domain/constants/index.ts</title>
<path fill="none" stroke="#000000" stroke-width="2" stroke-opacity="0.200000" d="M137.58,-374.85C155.19,-377.86 174.97,-381.24 191.38,-384.04"/>
<polygon fill="#000000" fill-opacity="0.200000" stroke="#000000" stroke-width="2" stroke-opacity="0.200000" points="190.86,-386.08 197.13,-385.02 191.57,-381.94 190.86,-386.08"/>
</g>
<!-- src/infrastructure/repository/VideoRepository.ts&#45;&gt;src/domain/repositories/index.ts -->
<g id="edge32" class="edge">
<title>src/infrastructure/repository/VideoRepository.ts&#45;&gt;src/domain/repositories/index.ts</title>
<path fill="none" stroke="#000000" stroke-opacity="0.200000" d="M127.55,-356.89C139.66,-353.19 153.15,-348.74 165.25,-344 176.89,-339.44 189.42,-333.65 200.08,-328.44"/>
<polygon fill="none" stroke="#000000" stroke-opacity="0.200000" points="200.98,-330.34 205.42,-325.79 199.12,-326.57 200.98,-330.34"/>
</g>
<!-- src/infrastructure/services/VideoMetadataFacade.ts -->
<g id="node26" class="node">
<title>src/infrastructure/services/VideoMetadataFacade.ts</title>
<g id="a_node26"><a xlink:href="src/infrastructure/services/VideoMetadataFacade.ts" xlink:title="VideoMetadataFacade.ts">
<path fill="#ddfeff" stroke="black" d="M142.83,-313.62C142.83,-313.62 38.42,-313.62 38.42,-313.62 35.21,-313.62 32,-310.42 32,-307.21 32,-307.21 32,-300.79 32,-300.79 32,-297.58 35.21,-294.38 38.42,-294.38 38.42,-294.38 142.83,-294.38 142.83,-294.38 146.04,-294.38 149.25,-297.58 149.25,-300.79 149.25,-300.79 149.25,-307.21 149.25,-307.21 149.25,-310.42 146.04,-313.62 142.83,-313.62"/>
<text text-anchor="start" x="40" y="-301.07" font-family="Helvetica,sans-Serif" font-size="9.00">VideoMetadataFacade.ts</text>
</a>
</g>
</g>
<!-- src/infrastructure/services/VideoMetadataFacade.ts&#45;&gt;src/domain/entities/index.ts -->
<g id="edge33" class="edge">
<title>src/infrastructure/services/VideoMetadataFacade.ts&#45;&gt;src/domain/entities/index.ts</title>
<path fill="none" stroke="#000000" stroke-opacity="0.200000" d="M123.02,-314.08C138.33,-320.68 155.51,-330.92 165.25,-346 175.43,-361.75 159.38,-417.39 173.25,-430 188.38,-443.75 249.5,-443.03 265.25,-430 279.89,-417.89 258.61,-400.11 273.25,-388 304.09,-362.48 423.01,-376.02 481.97,-384.64"/>
<polygon fill="none" stroke="#000000" stroke-opacity="0.200000" points="481.45,-386.69 487.7,-385.49 482.07,-382.53 481.45,-386.69"/>
</g>
<!-- src/infrastructure/services/VideoMetadataFacade.ts&#45;&gt;src/domain/repositories/index.ts -->
<g id="edge34" class="edge">
<title>src/infrastructure/services/VideoMetadataFacade.ts&#45;&gt;src/domain/repositories/index.ts</title>
<path fill="none" stroke="#000000" stroke-opacity="0.200000" d="M149.5,-308.73C164.15,-309.93 179.42,-311.17 192.44,-312.24"/>
<polygon fill="none" stroke="#000000" stroke-opacity="0.200000" points="192.16,-314.32 198.31,-312.72 192.51,-310.14 192.16,-314.32"/>
</g>
<!-- src/infrastructure/services/VideoMetadataFacade.ts&#45;&gt;src/domain/valueObjects/index.ts -->
<g id="edge35" class="edge">
<title>src/infrastructure/services/VideoMetadataFacade.ts&#45;&gt;src/domain/valueObjects/index.ts</title>
<path fill="none" stroke="#000000" stroke-width="2" stroke-opacity="0.200000" d="M104.53,-294.22C128.09,-276.37 178.22,-238.39 206.24,-217.16"/>
<polygon fill="#000000" fill-opacity="0.200000" stroke="#000000" stroke-width="2" stroke-opacity="0.200000" points="207.26,-219.03 210.77,-213.73 204.72,-215.68 207.26,-219.03"/>
</g>
<!-- src/infrastructure/video/VideoFileParser.ts -->
<g id="node27" class="node">
<title>src/infrastructure/video/VideoFileParser.ts</title>
<g id="a_node27"><a xlink:href="src/infrastructure/video/VideoFileParser.ts" xlink:title="VideoFileParser.ts">
<path fill="#ddfeff" stroke="black" d="M130.08,-564.62C130.08,-564.62 51.17,-564.62 51.17,-564.62 47.96,-564.62 44.75,-561.42 44.75,-558.21 44.75,-558.21 44.75,-551.79 44.75,-551.79 44.75,-548.58 47.96,-545.38 51.17,-545.38 51.17,-545.38 130.08,-545.38 130.08,-545.38 133.29,-545.38 136.5,-548.58 136.5,-551.79 136.5,-551.79 136.5,-558.21 136.5,-558.21 136.5,-561.42 133.29,-564.62 130.08,-564.62"/>
<text text-anchor="start" x="52.75" y="-552.08" font-family="Helvetica,sans-Serif" font-size="9.00">VideoFileParser.ts</text>
</a>
</g>
</g>
<!-- src/infrastructure/video/VideoFileParser.ts&#45;&gt;src/domain/entities/index.ts -->
<g id="edge36" class="edge">
<title>src/infrastructure/video/VideoFileParser.ts&#45;&gt;src/domain/entities/index.ts</title>
<path fill="none" stroke="#000000" stroke-opacity="0.200000" d="M126.75,-544.97C139.04,-541.21 152.86,-536.71 165.25,-532 210.81,-514.7 231.53,-522.18 265.25,-487 271.87,-480.09 265.66,-472.83 273.25,-467 344.35,-412.41 395.27,-486.76 473.5,-443 488.54,-434.59 500.15,-418.39 507.31,-406.11"/>
<polygon fill="none" stroke="#000000" stroke-opacity="0.200000" points="509.02,-407.35 510.09,-401.08 505.34,-405.32 509.02,-407.35"/>
</g>
<!-- src/infrastructure/video/VideoFileParser.ts&#45;&gt;src/domain/valueObjects/index.ts -->
<g id="edge37" class="edge">
<title>src/infrastructure/video/VideoFileParser.ts&#45;&gt;src/domain/valueObjects/index.ts</title>
<path fill="none" stroke="#000000" stroke-width="2" stroke-opacity="0.200000" d="M136.71,-550.19C147.71,-546.79 158.3,-541.18 165.25,-532 184.57,-506.47 158.92,-272.62 173.25,-244 178.82,-232.87 188.86,-223.76 198.72,-216.9"/>
<polygon fill="#000000" fill-opacity="0.200000" stroke="#000000" stroke-width="2" stroke-opacity="0.200000" points="199.7,-218.77 203.6,-213.74 197.42,-215.24 199.7,-218.77"/>
</g>
<!-- src/presentation/components/VideoCard.vue -->
<g id="node28" class="node">
<title>src/presentation/components/VideoCard.vue</title>
<g id="a_node28"><a xlink:href="src/presentation/components/VideoCard.vue" xlink:title="VideoCard.vue">
<path fill="#41f083" stroke="black" d="M258.83,-51.62C258.83,-51.62 195.67,-51.62 195.67,-51.62 192.46,-51.62 189.25,-48.42 189.25,-45.21 189.25,-45.21 189.25,-38.79 189.25,-38.79 189.25,-35.58 192.46,-32.38 195.67,-32.38 195.67,-32.38 258.83,-32.38 258.83,-32.38 262.04,-32.38 265.25,-35.58 265.25,-38.79 265.25,-38.79 265.25,-45.21 265.25,-45.21 265.25,-48.42 262.04,-51.62 258.83,-51.62"/>
<text text-anchor="start" x="197.25" y="-39.08" font-family="Helvetica,sans-Serif" font-size="9.00">VideoCard.vue</text>
</a>
</g>
</g>
<!-- src/presentation/components/VideoCard.vue&#45;&gt;src/domain/entities/index.ts -->
<g id="edge39" class="edge">
<title>src/presentation/components/VideoCard.vue&#45;&gt;src/domain/entities/index.ts</title>
<path fill="none" stroke="#000000" stroke-opacity="0.200000" d="M255.79,-52.02C261.54,-54.05 267.58,-56.13 273.25,-58 361.6,-87.15 412.54,-48.71 473.5,-119 506.66,-157.23 513.71,-318.85 515.15,-372.56"/>
<polygon fill="none" stroke="#000000" stroke-opacity="0.200000" points="513.04,-372.49 515.29,-378.44 517.24,-372.39 513.04,-372.49"/>
</g>
<!-- src/presentation/components/VideoEmbed.vue -->
<g id="node29" class="node">
<title>src/presentation/components/VideoEmbed.vue</title>
<g id="a_node29"><a xlink:href="src/presentation/components/VideoEmbed.vue" xlink:title="VideoEmbed.vue">
<path fill="#41f083" stroke="black" d="M409.83,-51.62C409.83,-51.62 336.92,-51.62 336.92,-51.62 333.71,-51.62 330.5,-48.42 330.5,-45.21 330.5,-45.21 330.5,-38.79 330.5,-38.79 330.5,-35.58 333.71,-32.38 336.92,-32.38 336.92,-32.38 409.83,-32.38 409.83,-32.38 413.04,-32.38 416.25,-35.58 416.25,-38.79 416.25,-38.79 416.25,-45.21 416.25,-45.21 416.25,-48.42 413.04,-51.62 409.83,-51.62"/>
<text text-anchor="start" x="338.5" y="-39.08" font-family="Helvetica,sans-Serif" font-size="9.00">VideoEmbed.vue</text>
</a>
</g>
</g>
<!-- src/presentation/components/VideoCard.vue&#45;&gt;src/presentation/components/VideoEmbed.vue -->
<g id="edge38" class="edge">
<title>src/presentation/components/VideoCard.vue&#45;&gt;src/presentation/components/VideoEmbed.vue</title>
<path fill="none" stroke="#000000" stroke-width="2" stroke-opacity="0.200000" d="M265.74,-42C282.73,-42 303.07,-42 321.42,-42"/>
<polygon fill="#000000" fill-opacity="0.200000" stroke="#000000" stroke-width="2" stroke-opacity="0.200000" points="321.21,-44.1 327.21,-42 321.21,-39.9 321.21,-44.1"/>
</g>
<!-- src/presentation/components/VideoEmbed.vue&#45;&gt;src/domain/entities/index.ts -->
<g id="edge40" class="edge">
<title>src/presentation/components/VideoEmbed.vue&#45;&gt;src/domain/entities/index.ts</title>
<path fill="none" stroke="#000000" stroke-opacity="0.200000" d="M416.55,-50.18C436.88,-56.32 459.78,-66.92 473.5,-85 508.3,-130.85 514.27,-315.42 515.29,-372.86"/>
<polygon fill="none" stroke="#000000" stroke-opacity="0.200000" points="513.19,-372.61 515.38,-378.57 517.39,-372.54 513.19,-372.61"/>
</g>
</g>
</svg>
