<?xml version="1.0" encoding="UTF-8" standalone="no"?>
<!DOCTYPE svg PUBLIC "-//W3C//DTD SVG 1.1//EN"
 "http://www.w3.org/Graphics/SVG/1.1/DTD/svg11.dtd">
<!-- Generated by graphviz version 9.0.0 (20230911.1827)
 -->
<!-- Title: dependency&#45;cruiser output Pages: 1 -->
<svg width="889pt" height="930pt"
 viewBox="0.00 0.00 889.25 930.00" xmlns="http://www.w3.org/2000/svg" xmlns:xlink="http://www.w3.org/1999/xlink">
<g id="graph0" class="graph" transform="scale(1 1) rotate(0) translate(4 926)">
<title>dependency&#45;cruiser output</title>
<polygon fill="white" stroke="none" points="-4,4 -4,-926 885.25,-926 885.25,4 -4,4"/>
<g id="clust1" class="cluster">
<title>cluster_src</title>
<path fill="#ffffff" stroke="black" stroke-width="2" d="M20,-8C20,-8 861.25,-8 861.25,-8 867.25,-8 873.25,-14 873.25,-20 873.25,-20 873.25,-902 873.25,-902 873.25,-908 867.25,-914 861.25,-914 861.25,-914 20,-914 20,-914 14,-914 8,-908 8,-902 8,-902 8,-20 8,-20 8,-14 14,-8 20,-8"/>
<text text-anchor="middle" x="440.62" y="-901.45" font-family="Helvetica,sans-Serif" font-weight="bold" font-size="9.00">src</text>
</g>
<g id="clust2" class="cluster">
<title>cluster_src/application</title>
<path fill="#ffffff" stroke="black" stroke-width="2" d="M292.5,-578C292.5,-578 468.75,-578 468.75,-578 474.75,-578 480.75,-584 480.75,-590 480.75,-590 480.75,-875 480.75,-875 480.75,-881 474.75,-887 468.75,-887 468.75,-887 292.5,-887 292.5,-887 286.5,-887 280.5,-881 280.5,-875 280.5,-875 280.5,-590 280.5,-590 280.5,-584 286.5,-578 292.5,-578"/>
<text text-anchor="middle" x="380.62" y="-874.45" font-family="Helvetica,sans-Serif" font-weight="bold" font-size="9.00">application</text>
</g>
<g id="clust3" class="cluster">
<title>cluster_src/application/ports</title>
<path fill="#ffffff" stroke="black" stroke-width="2" d="M342.88,-774C342.88,-774 418.38,-774 418.38,-774 424.38,-774 430.38,-780 430.38,-786 430.38,-786 430.38,-848 430.38,-848 430.38,-854 424.38,-860 418.38,-860 418.38,-860 342.88,-860 342.88,-860 336.88,-860 330.88,-854 330.88,-848 330.88,-848 330.88,-786 330.88,-786 330.88,-780 336.88,-774 342.88,-774"/>
<text text-anchor="middle" x="380.62" y="-847.45" font-family="Helvetica,sans-Serif" font-weight="bold" font-size="9.00">ports</text>
</g>
<g id="clust4" class="cluster">
<title>cluster_src/application/services</title>
<path fill="#ffffff" stroke="black" stroke-width="2" d="M335.38,-680C335.38,-680 425.88,-680 425.88,-680 431.88,-680 437.88,-686 437.88,-692 437.88,-692 437.88,-754 437.88,-754 437.88,-760 431.88,-766 425.88,-766 425.88,-766 335.38,-766 335.38,-766 329.38,-766 323.38,-760 323.38,-754 323.38,-754 323.38,-692 323.38,-692 323.38,-686 329.38,-680 335.38,-680"/>
<text text-anchor="middle" x="380.62" y="-753.45" font-family="Helvetica,sans-Serif" font-weight="bold" font-size="9.00">services</text>
</g>
<g id="clust5" class="cluster">
<title>cluster_src/application/usecases</title>
<path fill="#ffffff" stroke="black" stroke-width="2" d="M300.5,-586C300.5,-586 460.75,-586 460.75,-586 466.75,-586 472.75,-592 472.75,-598 472.75,-598 472.75,-660 472.75,-660 472.75,-666 466.75,-672 460.75,-672 460.75,-672 300.5,-672 300.5,-672 294.5,-672 288.5,-666 288.5,-660 288.5,-660 288.5,-598 288.5,-598 288.5,-592 294.5,-586 300.5,-586"/>
<text text-anchor="middle" x="380.62" y="-659.45" font-family="Helvetica,sans-Serif" font-weight="bold" font-size="9.00">usecases</text>
</g>
<g id="clust6" class="cluster">
<title>cluster_src/domain</title>
<path fill="#ffffff" stroke="black" stroke-width="2" d="M196.25,-177C196.25,-177 853.25,-177 853.25,-177 859.25,-177 865.25,-183 865.25,-189 865.25,-189 865.25,-505 865.25,-505 865.25,-511 859.25,-517 853.25,-517 853.25,-517 196.25,-517 196.25,-517 190.25,-517 184.25,-511 184.25,-505 184.25,-505 184.25,-189 184.25,-189 184.25,-183 190.25,-177 196.25,-177"/>
<text text-anchor="middle" x="524.75" y="-504.45" font-family="Helvetica,sans-Serif" font-weight="bold" font-size="9.00">domain</text>
</g>
<g id="clust9" class="cluster">
<title>cluster_src/domain/repositories</title>
<path fill="#ffffff" stroke="black" stroke-width="2" d="M204.25,-373C204.25,-373 431.5,-373 431.5,-373 437.5,-373 443.5,-379 443.5,-385 443.5,-385 443.5,-478 443.5,-478 443.5,-484 437.5,-490 431.5,-490 431.5,-490 204.25,-490 204.25,-490 198.25,-490 192.25,-484 192.25,-478 192.25,-478 192.25,-385 192.25,-385 192.25,-379 198.25,-373 204.25,-373"/>
<text text-anchor="middle" x="317.88" y="-477.45" font-family="Helvetica,sans-Serif" font-weight="bold" font-size="9.00">repositories</text>
</g>
<g id="clust7" class="cluster">
<title>cluster_src/domain/constants</title>
<path fill="#ffffff" stroke="black" stroke-width="2" d="M204.25,-310C204.25,-310 250.25,-310 250.25,-310 256.25,-310 262.25,-316 262.25,-322 262.25,-322 262.25,-353 262.25,-353 262.25,-359 256.25,-365 250.25,-365 250.25,-365 204.25,-365 204.25,-365 198.25,-365 192.25,-359 192.25,-353 192.25,-353 192.25,-322 192.25,-322 192.25,-316 198.25,-310 204.25,-310"/>
<text text-anchor="middle" x="227.25" y="-352.45" font-family="Helvetica,sans-Serif" font-weight="bold" font-size="9.00">constants</text>
</g>
<g id="clust8" class="cluster">
<title>cluster_src/domain/entities</title>
<path fill="#ffffff" stroke="black" stroke-width="2" d="M500.75,-393C500.75,-393 845.25,-393 845.25,-393 851.25,-393 857.25,-399 857.25,-405 857.25,-405 857.25,-478 857.25,-478 857.25,-484 851.25,-490 845.25,-490 845.25,-490 500.75,-490 500.75,-490 494.75,-490 488.75,-484 488.75,-478 488.75,-478 488.75,-405 488.75,-405 488.75,-399 494.75,-393 500.75,-393"/>
<text text-anchor="middle" x="673" y="-477.45" font-family="Helvetica,sans-Serif" font-weight="bold" font-size="9.00">entities</text>
</g>
<g id="clust10" class="cluster">
<title>cluster_src/domain/valueObjects</title>
<path fill="#ffffff" stroke="black" stroke-width="2" d="M204.25,-185C204.25,-185 439.75,-185 439.75,-185 445.75,-185 451.75,-191 451.75,-197 451.75,-197 451.75,-290 451.75,-290 451.75,-296 445.75,-302 439.75,-302 439.75,-302 204.25,-302 204.25,-302 198.25,-302 192.25,-296 192.25,-290 192.25,-290 192.25,-197 192.25,-197 192.25,-191 198.25,-185 204.25,-185"/>
<text text-anchor="middle" x="322" y="-289.45" font-family="Helvetica,sans-Serif" font-weight="bold" font-size="9.00">valueObjects</text>
</g>
<g id="clust11" class="cluster">
<title>cluster_src/infrastructure</title>
<path fill="#ffffff" stroke="black" stroke-width="2" d="M28,-333C28,-333 153.25,-333 153.25,-333 159.25,-333 165.25,-339 165.25,-345 165.25,-345 165.25,-662 165.25,-662 165.25,-668 159.25,-674 153.25,-674 153.25,-674 28,-674 28,-674 22,-674 16,-668 16,-662 16,-662 16,-345 16,-345 16,-339 22,-333 28,-333"/>
<text text-anchor="middle" x="90.62" y="-661.45" font-family="Helvetica,sans-Serif" font-weight="bold" font-size="9.00">infrastructure</text>
</g>
<g id="clust14" class="cluster">
<title>cluster_src/infrastructure/services</title>
<path fill="#ffffff" stroke="black" stroke-width="2" d="M36,-341C36,-341 145.25,-341 145.25,-341 151.25,-341 157.25,-347 157.25,-353 157.25,-353 157.25,-384 157.25,-384 157.25,-390 151.25,-396 145.25,-396 145.25,-396 36,-396 36,-396 30,-396 24,-390 24,-384 24,-384 24,-353 24,-353 24,-347 30,-341 36,-341"/>
<text text-anchor="middle" x="90.62" y="-383.45" font-family="Helvetica,sans-Serif" font-weight="bold" font-size="9.00">services</text>
</g>
<g id="clust13" class="cluster">
<title>cluster_src/infrastructure/repository</title>
<path fill="#ffffff" stroke="black" stroke-width="2" d="M40.88,-404C40.88,-404 140.38,-404 140.38,-404 146.38,-404 152.38,-410 152.38,-416 152.38,-416 152.38,-478 152.38,-478 152.38,-484 146.38,-490 140.38,-490 140.38,-490 40.88,-490 40.88,-490 34.88,-490 28.88,-484 28.88,-478 28.88,-478 28.88,-416 28.88,-416 28.88,-410 34.88,-404 40.88,-404"/>
<text text-anchor="middle" x="90.62" y="-477.45" font-family="Helvetica,sans-Serif" font-weight="bold" font-size="9.00">repository</text>
</g>
<g id="clust12" class="cluster">
<title>cluster_src/infrastructure/adapters</title>
<path fill="#ffffff" stroke="black" stroke-width="2" d="M38.25,-498C38.25,-498 143,-498 143,-498 149,-498 155,-504 155,-510 155,-510 155,-572 155,-572 155,-578 149,-584 143,-584 143,-584 38.25,-584 38.25,-584 32.25,-584 26.25,-578 26.25,-572 26.25,-572 26.25,-510 26.25,-510 26.25,-504 32.25,-498 38.25,-498"/>
<text text-anchor="middle" x="90.62" y="-571.45" font-family="Helvetica,sans-Serif" font-weight="bold" font-size="9.00">adapters</text>
</g>
<g id="clust15" class="cluster">
<title>cluster_src/infrastructure/video</title>
<path fill="#ffffff" stroke="black" stroke-width="2" d="M48.75,-592C48.75,-592 132.5,-592 132.5,-592 138.5,-592 144.5,-598 144.5,-604 144.5,-604 144.5,-635 144.5,-635 144.5,-641 138.5,-647 132.5,-647 132.5,-647 48.75,-647 48.75,-647 42.75,-647 36.75,-641 36.75,-635 36.75,-635 36.75,-604 36.75,-604 36.75,-598 42.75,-592 48.75,-592"/>
<text text-anchor="middle" x="90.62" y="-634.45" font-family="Helvetica,sans-Serif" font-weight="bold" font-size="9.00">video</text>
</g>
<g id="clust16" class="cluster">
<title>cluster_src/presentation</title>
<path fill="#ffffff" stroke="black" stroke-width="2" d="M185.25,-16C185.25,-16 427.5,-16 427.5,-16 433.5,-16 439.5,-22 439.5,-28 439.5,-28 439.5,-157 439.5,-157 439.5,-163 433.5,-169 427.5,-169 427.5,-169 185.25,-169 185.25,-169 179.25,-169 173.25,-163 173.25,-157 173.25,-157 173.25,-28 173.25,-28 173.25,-22 179.25,-16 185.25,-16"/>
<text text-anchor="middle" x="306.38" y="-156.45" font-family="Helvetica,sans-Serif" font-weight="bold" font-size="9.00">presentation</text>
</g>
<g id="clust17" class="cluster">
<title>cluster_src/presentation/components</title>
<path fill="#ffffff" stroke="black" stroke-width="2" d="M193.25,-24C193.25,-24 419.5,-24 419.5,-24 425.5,-24 431.5,-30 431.5,-36 431.5,-36 431.5,-67 431.5,-67 431.5,-73 425.5,-79 419.5,-79 419.5,-79 193.25,-79 193.25,-79 187.25,-79 181.25,-73 181.25,-67 181.25,-67 181.25,-36 181.25,-36 181.25,-30 187.25,-24 193.25,-24"/>
<text text-anchor="middle" x="306.38" y="-66.45" font-family="Helvetica,sans-Serif" font-weight="bold" font-size="9.00">components</text>
</g>
<g id="clust18" class="cluster">
<title>cluster_src/presentation/stores</title>
<path fill="#ffffff" stroke="black" stroke-width="2" d="M194,-87C194,-87 260.5,-87 260.5,-87 266.5,-87 272.5,-93 272.5,-99 272.5,-99 272.5,-130 272.5,-130 272.5,-136 266.5,-142 260.5,-142 260.5,-142 194,-142 194,-142 188,-142 182,-136 182,-130 182,-130 182,-99 182,-99 182,-93 188,-87 194,-87"/>
<text text-anchor="middle" x="227.25" y="-129.45" font-family="Helvetica,sans-Serif" font-weight="bold" font-size="9.00">stores</text>
</g>
<!-- src/application/ports/IVideoParser.ts -->
<g id="node1" class="node">
<title>src/application/ports/IVideoParser.ts</title>
<g id="a_node1"><a xlink:href="src/application/ports/IVideoParser.ts" xlink:title="IVideoParser.ts">
<path fill="#ddfeff" stroke="black" d="M413.71,-832.62C413.71,-832.62 347.54,-832.62 347.54,-832.62 344.33,-832.62 341.12,-829.42 341.12,-826.21 341.12,-826.21 341.12,-819.79 341.12,-819.79 341.12,-816.58 344.33,-813.38 347.54,-813.38 347.54,-813.38 413.71,-813.38 413.71,-813.38 416.92,-813.38 420.12,-816.58 420.12,-819.79 420.12,-819.79 420.12,-826.21 420.12,-826.21 420.12,-829.42 416.92,-832.62 413.71,-832.62"/>
<text text-anchor="start" x="349.12" y="-820.08" font-family="Helvetica,sans-Serif" font-size="9.00">IVideoParser.ts</text>
</a>
</g>
</g>
<!-- src/domain/entities/index.ts -->
<g id="node2" class="node">
<title>src/domain/entities/index.ts</title>
<g id="a_node2"><a xlink:href="src/domain/entities/index.ts" xlink:title="index.ts">
<path fill="#ddfeff" stroke="black" d="M544.33,-462.62C544.33,-462.62 503.17,-462.62 503.17,-462.62 499.96,-462.62 496.75,-459.42 496.75,-456.21 496.75,-456.21 496.75,-449.79 496.75,-449.79 496.75,-446.58 499.96,-443.38 503.17,-443.38 503.17,-443.38 544.33,-443.38 544.33,-443.38 547.54,-443.38 550.75,-446.58 550.75,-449.79 550.75,-449.79 550.75,-456.21 550.75,-456.21 550.75,-459.42 547.54,-462.62 544.33,-462.62"/>
<text text-anchor="start" x="508" y="-450.07" font-family="Helvetica,sans-Serif" font-size="9.00">index.ts</text>
</a>
</g>
</g>
<!-- src/application/ports/IVideoParser.ts&#45;&gt;src/domain/entities/index.ts -->
<g id="edge1" class="edge">
<title>src/application/ports/IVideoParser.ts&#45;&gt;src/domain/entities/index.ts</title>
<path fill="none" stroke="#000000" stroke-opacity="0.200000" d="M420.55,-827.51C441.25,-827.64 465.5,-823.76 480.75,-808 504.55,-783.42 518.51,-537.73 521.93,-470.14"/>
<polygon fill="none" stroke="#000000" stroke-opacity="0.200000" points="524.01,-470.41 522.21,-464.31 519.82,-470.2 524.01,-470.41"/>
</g>
<!-- src/domain/entities/MetadataEntity.ts -->
<g id="node9" class="node">
<title>src/domain/entities/MetadataEntity.ts</title>
<g id="a_node9"><a xlink:href="src/domain/entities/MetadataEntity.ts" xlink:title="MetadataEntity.ts">
<path fill="#ddfeff" stroke="black" d="M842.83,-425.62C842.83,-425.62 770.67,-425.62 770.67,-425.62 767.46,-425.62 764.25,-422.42 764.25,-419.21 764.25,-419.21 764.25,-412.79 764.25,-412.79 764.25,-409.58 767.46,-406.38 770.67,-406.38 770.67,-406.38 842.83,-406.38 842.83,-406.38 846.04,-406.38 849.25,-409.58 849.25,-412.79 849.25,-412.79 849.25,-419.21 849.25,-419.21 849.25,-422.42 846.04,-425.62 842.83,-425.62"/>
<text text-anchor="start" x="772.25" y="-413.07" font-family="Helvetica,sans-Serif" font-size="9.00">MetadataEntity.ts</text>
</a>
</g>
</g>
<!-- src/domain/entities/index.ts&#45;&gt;src/domain/entities/MetadataEntity.ts -->
<g id="edge10" class="edge">
<title>src/domain/entities/index.ts&#45;&gt;src/domain/entities/MetadataEntity.ts</title>
<path fill="none" stroke="#000000" stroke-opacity="0.200000" d="M530.09,-443.09C536.49,-432.39 548.3,-415.95 563.75,-409 628.78,-379.74 713.9,-392.34 763.93,-404.16"/>
<polygon fill="none" stroke="#000000" stroke-opacity="0.200000" points="763.25,-406.16 769.57,-405.54 764.24,-402.08 763.25,-406.16"/>
</g>
<!-- src/domain/entities/ParsedVideo.ts -->
<g id="node10" class="node">
<title>src/domain/entities/ParsedVideo.ts</title>
<g id="a_node10"><a xlink:href="src/domain/entities/ParsedVideo.ts" xlink:title="ParsedVideo.ts">
<path fill="#ddfeff" stroke="black" d="M636.33,-434.62C636.33,-434.62 570.17,-434.62 570.17,-434.62 566.96,-434.62 563.75,-431.42 563.75,-428.21 563.75,-428.21 563.75,-421.79 563.75,-421.79 563.75,-418.58 566.96,-415.38 570.17,-415.38 570.17,-415.38 636.33,-415.38 636.33,-415.38 639.54,-415.38 642.75,-418.58 642.75,-421.79 642.75,-421.79 642.75,-428.21 642.75,-428.21 642.75,-431.42 639.54,-434.62 636.33,-434.62"/>
<text text-anchor="start" x="571.75" y="-422.07" font-family="Helvetica,sans-Serif" font-size="9.00">ParsedVideo.ts</text>
</a>
</g>
</g>
<!-- src/domain/entities/index.ts&#45;&gt;src/domain/entities/ParsedVideo.ts -->
<g id="edge11" class="edge">
<title>src/domain/entities/index.ts&#45;&gt;src/domain/entities/ParsedVideo.ts</title>
<path fill="none" stroke="#000000" stroke-opacity="0.200000" d="M550.99,-443.52C556.3,-441.6 561.96,-439.56 567.51,-437.55"/>
<polygon fill="none" stroke="#000000" stroke-opacity="0.200000" points="568.1,-439.57 573.03,-435.56 566.67,-435.62 568.1,-439.57"/>
</g>
<!-- src/domain/entities/VideoStorageDto.ts -->
<g id="node11" class="node">
<title>src/domain/entities/VideoStorageDto.ts</title>
<g id="a_node11"><a xlink:href="src/domain/entities/VideoStorageDto.ts" xlink:title="VideoStorageDto.ts">
<path fill="#ddfeff" stroke="black" d="M744.83,-441.62C744.83,-441.62 662.17,-441.62 662.17,-441.62 658.96,-441.62 655.75,-438.42 655.75,-435.21 655.75,-435.21 655.75,-428.79 655.75,-428.79 655.75,-425.58 658.96,-422.38 662.17,-422.38 662.17,-422.38 744.83,-422.38 744.83,-422.38 748.04,-422.38 751.25,-425.58 751.25,-428.79 751.25,-428.79 751.25,-435.21 751.25,-435.21 751.25,-438.42 748.04,-441.62 744.83,-441.62"/>
<text text-anchor="start" x="663.75" y="-429.07" font-family="Helvetica,sans-Serif" font-size="9.00">VideoStorageDto.ts</text>
</a>
</g>
</g>
<!-- src/domain/entities/index.ts&#45;&gt;src/domain/entities/VideoStorageDto.ts -->
<g id="edge13" class="edge">
<title>src/domain/entities/index.ts&#45;&gt;src/domain/entities/VideoStorageDto.ts</title>
<path fill="none" stroke="#000000" stroke-opacity="0.200000" d="M551.04,-450.69C574.98,-448.5 611.29,-444.97 642.75,-441 644.57,-440.77 646.42,-440.53 648.29,-440.28"/>
<polygon fill="none" stroke="#000000" stroke-opacity="0.200000" points="648.4,-442.39 654.06,-439.49 647.83,-438.22 648.4,-442.39"/>
</g>
<!-- src/domain/entities/VideoEntity.ts -->
<g id="node12" class="node">
<title>src/domain/entities/VideoEntity.ts</title>
<g id="a_node12"><a xlink:href="src/domain/entities/VideoEntity.ts" xlink:title="VideoEntity.ts">
<path fill="#ddfeff" stroke="black" d="M835.71,-459.62C835.71,-459.62 777.79,-459.62 777.79,-459.62 774.58,-459.62 771.38,-456.42 771.38,-453.21 771.38,-453.21 771.38,-446.79 771.38,-446.79 771.38,-443.58 774.58,-440.38 777.79,-440.38 777.79,-440.38 835.71,-440.38 835.71,-440.38 838.92,-440.38 842.12,-443.58 842.12,-446.79 842.12,-446.79 842.12,-453.21 842.12,-453.21 842.12,-456.42 838.92,-459.62 835.71,-459.62"/>
<text text-anchor="start" x="779.38" y="-447.07" font-family="Helvetica,sans-Serif" font-size="9.00">VideoEntity.ts</text>
</a>
</g>
</g>
<!-- src/domain/entities/index.ts&#45;&gt;src/domain/entities/VideoEntity.ts -->
<g id="edge12" class="edge">
<title>src/domain/entities/index.ts&#45;&gt;src/domain/entities/VideoEntity.ts</title>
<path fill="none" stroke="#000000" stroke-opacity="0.200000" d="M551.19,-452.72C600.06,-452.2 704.89,-451.08 763.64,-450.45"/>
<polygon fill="none" stroke="#000000" stroke-opacity="0.200000" points="763.43,-452.55 769.4,-450.39 763.38,-448.35 763.43,-452.55"/>
</g>
<!-- src/application/ports/IVideoStorage.ts -->
<g id="node3" class="node">
<title>src/application/ports/IVideoStorage.ts</title>
<g id="a_node3"><a xlink:href="src/application/ports/IVideoStorage.ts" xlink:title="IVideoStorage.ts">
<path fill="#ddfeff" stroke="black" d="M415.96,-801.62C415.96,-801.62 345.29,-801.62 345.29,-801.62 342.08,-801.62 338.88,-798.42 338.88,-795.21 338.88,-795.21 338.88,-788.79 338.88,-788.79 338.88,-785.58 342.08,-782.38 345.29,-782.38 345.29,-782.38 415.96,-782.38 415.96,-782.38 419.17,-782.38 422.38,-785.58 422.38,-788.79 422.38,-788.79 422.38,-795.21 422.38,-795.21 422.38,-798.42 419.17,-801.62 415.96,-801.62"/>
<text text-anchor="start" x="346.88" y="-789.08" font-family="Helvetica,sans-Serif" font-size="9.00">IVideoStorage.ts</text>
</a>
</g>
</g>
<!-- src/application/ports/IVideoStorage.ts&#45;&gt;src/domain/entities/index.ts -->
<g id="edge2" class="edge">
<title>src/application/ports/IVideoStorage.ts&#45;&gt;src/domain/entities/index.ts</title>
<path fill="none" stroke="#000000" stroke-opacity="0.200000" d="M422.76,-792.8C443.07,-790.92 466.26,-784.95 480.75,-769 520.99,-724.7 523.22,-529.69 522.94,-470.25"/>
<polygon fill="none" stroke="#000000" stroke-opacity="0.200000" points="525.04,-470.59 522.9,-464.61 520.84,-470.62 525.04,-470.59"/>
</g>
<!-- src/application/services/FileParserService.ts -->
<g id="node4" class="node">
<title>src/application/services/FileParserService.ts</title>
<g id="a_node4"><a xlink:href="src/application/services/FileParserService.ts" xlink:title="FileParserService.ts">
<path fill="#ddfeff" stroke="black" d="M423.46,-738.62C423.46,-738.62 337.79,-738.62 337.79,-738.62 334.58,-738.62 331.38,-735.42 331.38,-732.21 331.38,-732.21 331.38,-725.79 331.38,-725.79 331.38,-722.58 334.58,-719.38 337.79,-719.38 337.79,-719.38 423.46,-719.38 423.46,-719.38 426.67,-719.38 429.88,-722.58 429.88,-725.79 429.88,-725.79 429.88,-732.21 429.88,-732.21 429.88,-735.42 426.67,-738.62 423.46,-738.62"/>
<text text-anchor="start" x="339.38" y="-726.08" font-family="Helvetica,sans-Serif" font-size="9.00">FileParserService.ts</text>
</a>
</g>
</g>
<!-- src/application/services/FileParserService.ts&#45;&gt;src/domain/entities/index.ts -->
<g id="edge3" class="edge">
<title>src/application/services/FileParserService.ts&#45;&gt;src/domain/entities/index.ts</title>
<path fill="none" stroke="#000000" stroke-opacity="0.200000" d="M430.34,-732.96C448.4,-731.79 467.64,-726.98 480.75,-714 515.33,-679.74 521.44,-523.07 522.52,-470.36"/>
<polygon fill="none" stroke="#000000" stroke-opacity="0.200000" points="524.61,-470.65 522.62,-464.61 520.41,-470.57 524.61,-470.65"/>
</g>
<!-- src/application/services/FiltersService.ts -->
<g id="node5" class="node">
<title>src/application/services/FiltersService.ts</title>
<g id="a_node5"><a xlink:href="src/application/services/FiltersService.ts" xlink:title="FiltersService.ts">
<path fill="#ddfeff" stroke="black" d="M414.83,-707.62C414.83,-707.62 346.42,-707.62 346.42,-707.62 343.21,-707.62 340,-704.42 340,-701.21 340,-701.21 340,-694.79 340,-694.79 340,-691.58 343.21,-688.38 346.42,-688.38 346.42,-688.38 414.83,-688.38 414.83,-688.38 418.04,-688.38 421.25,-691.58 421.25,-694.79 421.25,-694.79 421.25,-701.21 421.25,-701.21 421.25,-704.42 418.04,-707.62 414.83,-707.62"/>
<text text-anchor="start" x="348" y="-695.08" font-family="Helvetica,sans-Serif" font-size="9.00">FiltersService.ts</text>
</a>
</g>
</g>
<!-- src/application/services/FiltersService.ts&#45;&gt;src/domain/entities/index.ts -->
<g id="edge4" class="edge">
<title>src/application/services/FiltersService.ts&#45;&gt;src/domain/entities/index.ts</title>
<path fill="none" stroke="#000000" stroke-opacity="0.200000" d="M421.41,-698.57C441.85,-696.69 465.58,-690.8 480.75,-675 508.99,-645.57 519.07,-517.45 521.85,-470.4"/>
<polygon fill="none" stroke="#000000" stroke-opacity="0.200000" points="523.94,-470.71 522.18,-464.6 519.74,-470.47 523.94,-470.71"/>
</g>
<!-- src/application/usecases/AddVideosFromFilesUseCase.ts -->
<g id="node6" class="node">
<title>src/application/usecases/AddVideosFromFilesUseCase.ts</title>
<g id="a_node6"><a xlink:href="src/application/usecases/AddVideosFromFilesUseCase.ts" xlink:title="AddVideosFromFilesUseCase.ts">
<path fill="#ddfeff" stroke="black" d="M450.08,-644.62C450.08,-644.62 311.17,-644.62 311.17,-644.62 307.96,-644.62 304.75,-641.42 304.75,-638.21 304.75,-638.21 304.75,-631.79 304.75,-631.79 304.75,-628.58 307.96,-625.38 311.17,-625.38 311.17,-625.38 450.08,-625.38 450.08,-625.38 453.29,-625.38 456.5,-628.58 456.5,-631.79 456.5,-631.79 456.5,-638.21 456.5,-638.21 456.5,-641.42 453.29,-644.62 450.08,-644.62"/>
<text text-anchor="start" x="312.75" y="-632.08" font-family="Helvetica,sans-Serif" font-size="9.00">AddVideosFromFilesUseCase.ts</text>
</a>
</g>
</g>
<!-- src/application/usecases/AddVideosFromFilesUseCase.ts&#45;&gt;src/domain/entities/index.ts -->
<g id="edge5" class="edge">
<title>src/application/usecases/AddVideosFromFilesUseCase.ts&#45;&gt;src/domain/entities/index.ts</title>
<path fill="none" stroke="#000000" stroke-opacity="0.200000" d="M456.88,-633.36C465.67,-630.48 473.92,-626.2 480.75,-620 502.96,-599.83 516.16,-508.62 520.83,-470.17"/>
<polygon fill="none" stroke="#000000" stroke-opacity="0.200000" points="522.9,-470.52 521.52,-464.32 518.73,-470.03 522.9,-470.52"/>
</g>
<!-- src/application/usecases/UpdateVideoThumbnailsUseCase.ts -->
<g id="node7" class="node">
<title>src/application/usecases/UpdateVideoThumbnailsUseCase.ts</title>
<g id="a_node7"><a xlink:href="src/application/usecases/UpdateVideoThumbnailsUseCase.ts" xlink:title="UpdateVideoThumbnailsUseCase.ts">
<path fill="#ddfeff" stroke="black" d="M458.33,-613.62C458.33,-613.62 302.92,-613.62 302.92,-613.62 299.71,-613.62 296.5,-610.42 296.5,-607.21 296.5,-607.21 296.5,-600.79 296.5,-600.79 296.5,-597.58 299.71,-594.38 302.92,-594.38 302.92,-594.38 458.33,-594.38 458.33,-594.38 461.54,-594.38 464.75,-597.58 464.75,-600.79 464.75,-600.79 464.75,-607.21 464.75,-607.21 464.75,-610.42 461.54,-613.62 458.33,-613.62"/>
<text text-anchor="start" x="304.5" y="-601.08" font-family="Helvetica,sans-Serif" font-size="9.00">UpdateVideoThumbnailsUseCase.ts</text>
</a>
</g>
</g>
<!-- src/application/usecases/UpdateVideoThumbnailsUseCase.ts&#45;&gt;src/domain/entities/index.ts -->
<g id="edge6" class="edge">
<title>src/application/usecases/UpdateVideoThumbnailsUseCase.ts&#45;&gt;src/domain/entities/index.ts</title>
<path fill="none" stroke="#000000" stroke-opacity="0.200000" d="M444.6,-593.88C457.82,-589.3 470.77,-582.65 480.75,-573 509.65,-545.05 518.69,-496.12 521.5,-470.22"/>
<polygon fill="none" stroke="#000000" stroke-opacity="0.200000" points="523.57,-470.64 522.04,-464.47 519.38,-470.25 523.57,-470.64"/>
</g>
<!-- src/domain/constants/index.ts -->
<g id="node8" class="node">
<title>src/domain/constants/index.ts</title>
<g id="a_node8"><a xlink:href="src/domain/constants/index.ts" xlink:title="index.ts">
<path fill="#ddfeff" stroke="black" d="M247.83,-337.62C247.83,-337.62 206.67,-337.62 206.67,-337.62 203.46,-337.62 200.25,-334.42 200.25,-331.21 200.25,-331.21 200.25,-324.79 200.25,-324.79 200.25,-321.58 203.46,-318.38 206.67,-318.38 206.67,-318.38 247.83,-318.38 247.83,-318.38 251.04,-318.38 254.25,-321.58 254.25,-324.79 254.25,-324.79 254.25,-331.21 254.25,-331.21 254.25,-334.42 251.04,-337.62 247.83,-337.62"/>
<text text-anchor="start" x="211.5" y="-325.07" font-family="Helvetica,sans-Serif" font-size="9.00">index.ts</text>
</a>
</g>
</g>
<!-- src/domain/entities/ParsedVideo.ts&#45;&gt;src/domain/entities/VideoStorageDto.ts -->
<g id="edge7" class="edge">
<title>src/domain/entities/ParsedVideo.ts&#45;&gt;src/domain/entities/VideoStorageDto.ts</title>
<path fill="none" stroke="#000000" stroke-opacity="0.200000" d="M643.08,-427.77C644.74,-427.88 646.41,-428 648.09,-428.12"/>
<polygon fill="none" stroke="#000000" stroke-opacity="0.200000" points="647.84,-430.21 653.98,-428.54 648.14,-426.02 647.84,-430.21"/>
</g>
<!-- src/domain/entities/VideoStorageDto.ts&#45;&gt;src/domain/entities/MetadataEntity.ts -->
<g id="edge8" class="edge">
<title>src/domain/entities/VideoStorageDto.ts&#45;&gt;src/domain/entities/MetadataEntity.ts</title>
<path fill="none" stroke="#000000" stroke-opacity="0.200000" d="M751.57,-424.56C753.25,-424.3 754.93,-424.03 756.61,-423.77"/>
<polygon fill="none" stroke="#000000" stroke-opacity="0.200000" points="756.85,-425.85 762.45,-422.84 756.2,-421.7 756.85,-425.85"/>
</g>
<!-- src/domain/entities/VideoStorageDto.ts&#45;&gt;src/domain/entities/VideoEntity.ts -->
<g id="edge9" class="edge">
<title>src/domain/entities/VideoStorageDto.ts&#45;&gt;src/domain/entities/VideoEntity.ts</title>
<path fill="none" stroke="#000000" stroke-opacity="0.200000" d="M751.57,-440.37C755.63,-441.09 759.73,-441.82 763.76,-442.53"/>
<polygon fill="none" stroke="#000000" stroke-opacity="0.200000" points="763.13,-444.56 769.4,-443.54 763.86,-440.42 763.13,-444.56"/>
</g>
<!-- src/domain/repositories/IMetadataRepository.ts -->
<g id="node13" class="node">
<title>src/domain/repositories/IMetadataRepository.ts</title>
<g id="a_node13"><a xlink:href="src/domain/repositories/IMetadataRepository.ts" xlink:title="IMetadataRepository.ts">
<path fill="#ddfeff" stroke="black" d="M429.08,-400.62C429.08,-400.62 332.17,-400.62 332.17,-400.62 328.96,-400.62 325.75,-397.42 325.75,-394.21 325.75,-394.21 325.75,-387.79 325.75,-387.79 325.75,-384.58 328.96,-381.38 332.17,-381.38 332.17,-381.38 429.08,-381.38 429.08,-381.38 432.29,-381.38 435.5,-384.58 435.5,-387.79 435.5,-387.79 435.5,-394.21 435.5,-394.21 435.5,-397.42 432.29,-400.62 429.08,-400.62"/>
<text text-anchor="start" x="333.75" y="-388.07" font-family="Helvetica,sans-Serif" font-size="9.00">IMetadataRepository.ts</text>
</a>
</g>
</g>
<!-- src/domain/repositories/IMetadataRepository.ts&#45;&gt;src/domain/entities/index.ts -->
<g id="edge14" class="edge">
<title>src/domain/repositories/IMetadataRepository.ts&#45;&gt;src/domain/entities/index.ts</title>
<path fill="none" stroke="#000000" stroke-opacity="0.200000" d="M435.74,-392.41C450.99,-394.57 467.13,-398.63 480.75,-406 494.14,-413.24 505.38,-426.5 512.85,-437.09"/>
<polygon fill="none" stroke="#000000" stroke-opacity="0.200000" points="511.07,-438.2 516.16,-442 514.55,-435.85 511.07,-438.2"/>
</g>
<!-- src/domain/repositories/IVideoFacade.ts -->
<g id="node14" class="node">
<title>src/domain/repositories/IVideoFacade.ts</title>
<g id="a_node14"><a xlink:href="src/domain/repositories/IVideoFacade.ts" xlink:title="IVideoFacade.ts">
<path fill="#ddfeff" stroke="black" d="M415.21,-431.62C415.21,-431.62 346.04,-431.62 346.04,-431.62 342.83,-431.62 339.62,-428.42 339.62,-425.21 339.62,-425.21 339.62,-418.79 339.62,-418.79 339.62,-415.58 342.83,-412.38 346.04,-412.38 346.04,-412.38 415.21,-412.38 415.21,-412.38 418.42,-412.38 421.62,-415.58 421.62,-418.79 421.62,-418.79 421.62,-425.21 421.62,-425.21 421.62,-428.42 418.42,-431.62 415.21,-431.62"/>
<text text-anchor="start" x="347.62" y="-419.07" font-family="Helvetica,sans-Serif" font-size="9.00">IVideoFacade.ts</text>
</a>
</g>
</g>
<!-- src/domain/repositories/IVideoFacade.ts&#45;&gt;src/domain/entities/index.ts -->
<g id="edge15" class="edge">
<title>src/domain/repositories/IVideoFacade.ts&#45;&gt;src/domain/entities/index.ts</title>
<path fill="none" stroke="#000000" stroke-opacity="0.200000" d="M422.05,-426.13C440.19,-428.49 461.73,-432 480.75,-437 484.52,-437.99 488.42,-439.21 492.26,-440.52"/>
<polygon fill="none" stroke="#000000" stroke-opacity="0.200000" points="491.27,-442.4 497.63,-442.45 492.69,-438.44 491.27,-442.4"/>
</g>
<!-- src/domain/repositories/IVideoRepository.ts -->
<g id="node15" class="node">
<title>src/domain/repositories/IVideoRepository.ts</title>
<g id="a_node15"><a xlink:href="src/domain/repositories/IVideoRepository.ts" xlink:title="IVideoRepository.ts">
<path fill="#ddfeff" stroke="black" d="M421.96,-462.62C421.96,-462.62 339.29,-462.62 339.29,-462.62 336.08,-462.62 332.88,-459.42 332.88,-456.21 332.88,-456.21 332.88,-449.79 332.88,-449.79 332.88,-446.58 336.08,-443.38 339.29,-443.38 339.29,-443.38 421.96,-443.38 421.96,-443.38 425.17,-443.38 428.38,-446.58 428.38,-449.79 428.38,-449.79 428.38,-456.21 428.38,-456.21 428.38,-459.42 425.17,-462.62 421.96,-462.62"/>
<text text-anchor="start" x="340.88" y="-450.07" font-family="Helvetica,sans-Serif" font-size="9.00">IVideoRepository.ts</text>
</a>
</g>
</g>
<!-- src/domain/repositories/IVideoRepository.ts&#45;&gt;src/domain/entities/index.ts -->
<g id="edge16" class="edge">
<title>src/domain/repositories/IVideoRepository.ts&#45;&gt;src/domain/entities/index.ts</title>
<path fill="none" stroke="#000000" stroke-opacity="0.200000" d="M428.62,-453C448.4,-453 470.98,-453 489.06,-453"/>
<polygon fill="none" stroke="#000000" stroke-opacity="0.200000" points="489,-455.1 495,-453 489,-450.9 489,-455.1"/>
</g>
<!-- src/domain/repositories/index.ts -->
<g id="node16" class="node">
<title>src/domain/repositories/index.ts</title>
<g id="a_node16"><a xlink:href="src/domain/repositories/index.ts" xlink:title="index.ts">
<path fill="#ddfeff" stroke="black" d="M247.83,-431.62C247.83,-431.62 206.67,-431.62 206.67,-431.62 203.46,-431.62 200.25,-428.42 200.25,-425.21 200.25,-425.21 200.25,-418.79 200.25,-418.79 200.25,-415.58 203.46,-412.38 206.67,-412.38 206.67,-412.38 247.83,-412.38 247.83,-412.38 251.04,-412.38 254.25,-415.58 254.25,-418.79 254.25,-418.79 254.25,-425.21 254.25,-425.21 254.25,-428.42 251.04,-431.62 247.83,-431.62"/>
<text text-anchor="start" x="211.5" y="-419.07" font-family="Helvetica,sans-Serif" font-size="9.00">index.ts</text>
</a>
</g>
</g>
<!-- src/domain/repositories/index.ts&#45;&gt;src/domain/repositories/IMetadataRepository.ts -->
<g id="edge17" class="edge">
<title>src/domain/repositories/index.ts&#45;&gt;src/domain/repositories/IMetadataRepository.ts</title>
<path fill="none" stroke="#000000" stroke-opacity="0.200000" d="M254.63,-413.1C262.85,-410.55 271.99,-407.94 280.5,-406 292.56,-403.26 305.56,-400.88 318.05,-398.88"/>
<polygon fill="none" stroke="#000000" stroke-opacity="0.200000" points="318.24,-400.98 323.84,-397.98 317.59,-396.83 318.24,-400.98"/>
</g>
<!-- src/domain/repositories/index.ts&#45;&gt;src/domain/repositories/IVideoFacade.ts -->
<g id="edge18" class="edge">
<title>src/domain/repositories/index.ts&#45;&gt;src/domain/repositories/IVideoFacade.ts</title>
<path fill="none" stroke="#000000" stroke-opacity="0.200000" d="M254.62,-422C275.9,-422 306.39,-422 331.93,-422"/>
<polygon fill="none" stroke="#000000" stroke-opacity="0.200000" points="331.82,-424.1 337.82,-422 331.82,-419.9 331.82,-424.1"/>
</g>
<!-- src/domain/repositories/index.ts&#45;&gt;src/domain/repositories/IVideoRepository.ts -->
<g id="edge19" class="edge">
<title>src/domain/repositories/index.ts&#45;&gt;src/domain/repositories/IVideoRepository.ts</title>
<path fill="none" stroke="#000000" stroke-opacity="0.200000" d="M254.63,-430.9C262.85,-433.45 271.99,-436.06 280.5,-438 294.94,-441.28 310.73,-444.04 325.38,-446.26"/>
<polygon fill="none" stroke="#000000" stroke-opacity="0.200000" points="324.73,-448.29 330.97,-447.09 325.34,-444.13 324.73,-448.29"/>
</g>
<!-- src/domain/valueObjects/ParsedVideoData.ts -->
<g id="node17" class="node">
<title>src/domain/valueObjects/ParsedVideoData.ts</title>
<g id="a_node17"><a xlink:href="src/domain/valueObjects/ParsedVideoData.ts" xlink:title="ParsedVideoData.ts">
<path fill="#ddfeff" stroke="black" d="M423.46,-212.62C423.46,-212.62 337.79,-212.62 337.79,-212.62 334.58,-212.62 331.38,-209.42 331.38,-206.21 331.38,-206.21 331.38,-199.79 331.38,-199.79 331.38,-196.58 334.58,-193.38 337.79,-193.38 337.79,-193.38 423.46,-193.38 423.46,-193.38 426.67,-193.38 429.88,-196.58 429.88,-199.79 429.88,-199.79 429.88,-206.21 429.88,-206.21 429.88,-209.42 426.67,-212.62 423.46,-212.62"/>
<text text-anchor="start" x="339.38" y="-200.07" font-family="Helvetica,sans-Serif" font-size="9.00">ParsedVideoData.ts</text>
</a>
</g>
</g>
<!-- src/domain/valueObjects/Thumbs.ts -->
<g id="node18" class="node">
<title>src/domain/valueObjects/Thumbs.ts</title>
<g id="a_node18"><a xlink:href="src/domain/valueObjects/Thumbs.ts" xlink:title="Thumbs.ts">
<path fill="#ddfeff" stroke="black" d="M404.33,-243.62C404.33,-243.62 356.92,-243.62 356.92,-243.62 353.71,-243.62 350.5,-240.42 350.5,-237.21 350.5,-237.21 350.5,-230.79 350.5,-230.79 350.5,-227.58 353.71,-224.38 356.92,-224.38 356.92,-224.38 404.33,-224.38 404.33,-224.38 407.54,-224.38 410.75,-227.58 410.75,-230.79 410.75,-230.79 410.75,-237.21 410.75,-237.21 410.75,-240.42 407.54,-243.62 404.33,-243.62"/>
<text text-anchor="start" x="358.5" y="-231.07" font-family="Helvetica,sans-Serif" font-size="9.00">Thumbs.ts</text>
</a>
</g>
</g>
<!-- src/domain/valueObjects/VideoStorageDtoMapper.ts -->
<g id="node19" class="node">
<title>src/domain/valueObjects/VideoStorageDtoMapper.ts</title>
<g id="a_node19"><a xlink:href="src/domain/valueObjects/VideoStorageDtoMapper.ts" xlink:title="VideoStorageDtoMapper.ts">
<path fill="#ddfeff" stroke="black" d="M437.33,-274.62C437.33,-274.62 323.92,-274.62 323.92,-274.62 320.71,-274.62 317.5,-271.42 317.5,-268.21 317.5,-268.21 317.5,-261.79 317.5,-261.79 317.5,-258.58 320.71,-255.38 323.92,-255.38 323.92,-255.38 437.33,-255.38 437.33,-255.38 440.54,-255.38 443.75,-258.58 443.75,-261.79 443.75,-261.79 443.75,-268.21 443.75,-268.21 443.75,-271.42 440.54,-274.62 437.33,-274.62"/>
<text text-anchor="start" x="325.5" y="-262.07" font-family="Helvetica,sans-Serif" font-size="9.00">VideoStorageDtoMapper.ts</text>
</a>
</g>
</g>
<!-- src/domain/valueObjects/VideoStorageDtoMapper.ts&#45;&gt;src/domain/entities/index.ts -->
<g id="edge20" class="edge">
<title>src/domain/valueObjects/VideoStorageDtoMapper.ts&#45;&gt;src/domain/entities/index.ts</title>
<path fill="none" stroke="#000000" stroke-opacity="0.200000" d="M392.84,-274.85C412.46,-292.48 453.51,-331.23 480.75,-370 495.78,-391.39 508.6,-418.91 515.99,-436.26"/>
<polygon fill="none" stroke="#000000" stroke-opacity="0.200000" points="513.98,-436.91 518.23,-441.63 517.85,-435.29 513.98,-436.91"/>
</g>
<!-- src/domain/valueObjects/index.ts -->
<g id="node20" class="node">
<title>src/domain/valueObjects/index.ts</title>
<g id="a_node20"><a xlink:href="src/domain/valueObjects/index.ts" xlink:title="index.ts">
<path fill="#ddfeff" stroke="black" d="M247.83,-274.62C247.83,-274.62 206.67,-274.62 206.67,-274.62 203.46,-274.62 200.25,-271.42 200.25,-268.21 200.25,-268.21 200.25,-261.79 200.25,-261.79 200.25,-258.58 203.46,-255.38 206.67,-255.38 206.67,-255.38 247.83,-255.38 247.83,-255.38 251.04,-255.38 254.25,-258.58 254.25,-261.79 254.25,-261.79 254.25,-268.21 254.25,-268.21 254.25,-271.42 251.04,-274.62 247.83,-274.62"/>
<text text-anchor="start" x="211.5" y="-262.07" font-family="Helvetica,sans-Serif" font-size="9.00">index.ts</text>
</a>
</g>
</g>
<!-- src/domain/valueObjects/index.ts&#45;&gt;src/domain/valueObjects/ParsedVideoData.ts -->
<g id="edge21" class="edge">
<title>src/domain/valueObjects/index.ts&#45;&gt;src/domain/valueObjects/ParsedVideoData.ts</title>
<path fill="none" stroke="#000000" stroke-width="2" stroke-opacity="0.200000" d="M235.96,-255.26C245.26,-244.26 261.97,-226.76 331.09,-204.7"/>
<polygon fill="#000000" fill-opacity="0.200000" stroke="#000000" stroke-width="2" stroke-opacity="0.200000" points="333.89,-203.31 337.79,-211.41 329.69,-207.51 333.89,-203.31"/>
</g>
<!-- src/domain/valueObjects/index.ts&#45;&gt;src/domain/valueObjects/Thumbs.ts -->
<g id="edge22" class="edge">
<title>src/domain/valueObjects/index.ts&#45;&gt;src/domain/valueObjects/Thumbs.ts</title>
<path fill="none" stroke="#000000" stroke-opacity="0.200000" d="M254.63,-256.1C262.85,-253.55 271.99,-250.94 280.5,-249 301.03,-244.33 324.28,-240.73 343.11,-238.22"/>
<polygon fill="none" stroke="#000000" stroke-opacity="0.200000" points="343.17,-240.33 348.85,-237.48 342.63,-236.16 343.17,-240.33"/>
</g>
<!-- src/domain/valueObjects/index.ts&#45;&gt;src/domain/valueObjects/VideoStorageDtoMapper.ts -->
<g id="edge23" class="edge">
<title>src/domain/valueObjects/index.ts&#45;&gt;src/domain/valueObjects/VideoStorageDtoMapper.ts</title>
<path fill="none" stroke="#000000" stroke-width="2" stroke-opacity="0.200000" d="M254.62,-265C271.9,-265 295.25,-265 317.1,-265"/>
<polygon fill="#000000" fill-opacity="0.200000" stroke="#000000" stroke-width="2" stroke-opacity="0.200000" points="319.91,-263.61 323.81,-271.71 315.71,-267.81 319.91,-263.61"/>
</g>
<!-- src/infrastructure/adapters/VideoParserAdapter.ts -->
<g id="node21" class="node">
<title>src/infrastructure/adapters/VideoParserAdapter.ts</title>
<g id="a_node21"><a xlink:href="src/infrastructure/adapters/VideoParserAdapter.ts" xlink:title="VideoParserAdapter.ts">
<path fill="#ddfeff" stroke="black" d="M138.33,-525.62C138.33,-525.62 42.92,-525.62 42.92,-525.62 39.71,-525.62 36.5,-522.42 36.5,-519.21 36.5,-519.21 36.5,-512.79 36.5,-512.79 36.5,-509.58 39.71,-506.38 42.92,-506.38 42.92,-506.38 138.33,-506.38 138.33,-506.38 141.54,-506.38 144.75,-509.58 144.75,-512.79 144.75,-512.79 144.75,-519.21 144.75,-519.21 144.75,-522.42 141.54,-525.62 138.33,-525.62"/>
<text text-anchor="start" x="44.5" y="-513.08" font-family="Helvetica,sans-Serif" font-size="9.00">VideoParserAdapter.ts</text>
</a>
</g>
</g>
<!-- src/infrastructure/adapters/VideoParserAdapter.ts&#45;&gt;src/domain/entities/index.ts -->
<g id="edge24" class="edge">
<title>src/infrastructure/adapters/VideoParserAdapter.ts&#45;&gt;src/domain/entities/index.ts</title>
<path fill="none" stroke="#000000" stroke-opacity="0.200000" d="M145.2,-524.51C238.33,-538.19 425.43,-560.43 480.75,-528 501.93,-515.59 513.23,-488.16 518.61,-470.14"/>
<polygon fill="none" stroke="#000000" stroke-opacity="0.200000" points="520.58,-470.86 520.16,-464.52 516.54,-469.75 520.58,-470.86"/>
</g>
<!-- src/infrastructure/adapters/VideoStorageAdapter.ts -->
<g id="node22" class="node">
<title>src/infrastructure/adapters/VideoStorageAdapter.ts</title>
<g id="a_node22"><a xlink:href="src/infrastructure/adapters/VideoStorageAdapter.ts" xlink:title="VideoStorageAdapter.ts">
<path fill="#ddfeff" stroke="black" d="M140.58,-556.62C140.58,-556.62 40.67,-556.62 40.67,-556.62 37.46,-556.62 34.25,-553.42 34.25,-550.21 34.25,-550.21 34.25,-543.79 34.25,-543.79 34.25,-540.58 37.46,-537.38 40.67,-537.38 40.67,-537.38 140.58,-537.38 140.58,-537.38 143.79,-537.38 147,-540.58 147,-543.79 147,-543.79 147,-550.21 147,-550.21 147,-553.42 143.79,-556.62 140.58,-556.62"/>
<text text-anchor="start" x="42.25" y="-544.08" font-family="Helvetica,sans-Serif" font-size="9.00">VideoStorageAdapter.ts</text>
</a>
</g>
</g>
<!-- src/infrastructure/adapters/VideoStorageAdapter.ts&#45;&gt;src/domain/entities/index.ts -->
<g id="edge25" class="edge">
<title>src/infrastructure/adapters/VideoStorageAdapter.ts&#45;&gt;src/domain/entities/index.ts</title>
<path fill="none" stroke="#000000" stroke-opacity="0.200000" d="M147.34,-553.14C241.51,-562.39 427.15,-575.39 480.75,-541 505.26,-525.27 515.79,-490.95 520.07,-470.12"/>
<polygon fill="none" stroke="#000000" stroke-opacity="0.200000" points="522.11,-470.63 521.14,-464.35 517.98,-469.87 522.11,-470.63"/>
</g>
<!-- src/infrastructure/repository/MetadataRepository.ts -->
<g id="node23" class="node">
<title>src/infrastructure/repository/MetadataRepository.ts</title>
<g id="a_node23"><a xlink:href="src/infrastructure/repository/MetadataRepository.ts" xlink:title="MetadataRepository.ts">
<path fill="#ddfeff" stroke="black" d="M137.96,-462.62C137.96,-462.62 43.29,-462.62 43.29,-462.62 40.08,-462.62 36.88,-459.42 36.88,-456.21 36.88,-456.21 36.88,-449.79 36.88,-449.79 36.88,-446.58 40.08,-443.38 43.29,-443.38 43.29,-443.38 137.96,-443.38 137.96,-443.38 141.17,-443.38 144.38,-446.58 144.38,-449.79 144.38,-449.79 144.38,-456.21 144.38,-456.21 144.38,-459.42 141.17,-462.62 137.96,-462.62"/>
<text text-anchor="start" x="44.88" y="-450.07" font-family="Helvetica,sans-Serif" font-size="9.00">MetadataRepository.ts</text>
</a>
</g>
</g>
<!-- src/infrastructure/repository/MetadataRepository.ts&#45;&gt;src/domain/entities/index.ts -->
<g id="edge27" class="edge">
<title>src/infrastructure/repository/MetadataRepository.ts&#45;&gt;src/domain/entities/index.ts</title>
<path fill="none" stroke="#000000" stroke-opacity="0.200000" d="M118.97,-463.04C134.41,-469.94 153.01,-480.49 165.25,-495 171.96,-502.95 164.73,-511.03 173.25,-517 201.23,-536.6 450.68,-533.23 480.75,-517 499.04,-507.13 510.66,-485.43 516.93,-470.04"/>
<polygon fill="none" stroke="#000000" stroke-opacity="0.200000" points="518.87,-470.84 519.05,-464.49 514.95,-469.34 518.87,-470.84"/>
</g>
<!-- src/infrastructure/repository/MetadataRepository.ts&#45;&gt;src/domain/constants/index.ts -->
<g id="edge26" class="edge">
<title>src/infrastructure/repository/MetadataRepository.ts&#45;&gt;src/domain/constants/index.ts</title>
<path fill="none" stroke="#000000" stroke-width="2" stroke-opacity="0.200000" d="M144.58,-450.59C152.4,-448.03 159.69,-444.05 165.25,-438 175.55,-426.8 165.84,-383.29 173.25,-370 179.4,-358.97 189.74,-349.79 199.67,-342.86"/>
<polygon fill="#000000" fill-opacity="0.200000" stroke="#000000" stroke-width="2" stroke-opacity="0.200000" points="200.69,-344.7 204.56,-339.66 198.39,-341.19 200.69,-344.7"/>
</g>
<!-- src/infrastructure/repository/MetadataRepository.ts&#45;&gt;src/domain/repositories/index.ts -->
<g id="edge28" class="edge">
<title>src/infrastructure/repository/MetadataRepository.ts&#45;&gt;src/domain/repositories/index.ts</title>
<path fill="none" stroke="#000000" stroke-opacity="0.200000" d="M142.8,-442.96C150.34,-441.36 158.01,-439.69 165.25,-438 174.16,-435.92 183.76,-433.5 192.64,-431.17"/>
<polygon fill="none" stroke="#000000" stroke-opacity="0.200000" points="193.18,-433.2 198.44,-429.64 192.11,-429.14 193.18,-433.2"/>
</g>
<!-- src/infrastructure/repository/VideoRepository.ts -->
<g id="node24" class="node">
<title>src/infrastructure/repository/VideoRepository.ts</title>
<g id="a_node24"><a xlink:href="src/infrastructure/repository/VideoRepository.ts" xlink:title="VideoRepository.ts">
<path fill="#ddfeff" stroke="black" d="M130.83,-431.62C130.83,-431.62 50.42,-431.62 50.42,-431.62 47.21,-431.62 44,-428.42 44,-425.21 44,-425.21 44,-418.79 44,-418.79 44,-415.58 47.21,-412.38 50.42,-412.38 50.42,-412.38 130.83,-412.38 130.83,-412.38 134.04,-412.38 137.25,-415.58 137.25,-418.79 137.25,-418.79 137.25,-425.21 137.25,-425.21 137.25,-428.42 134.04,-431.62 130.83,-431.62"/>
<text text-anchor="start" x="52" y="-419.07" font-family="Helvetica,sans-Serif" font-size="9.00">VideoRepository.ts</text>
</a>
</g>
</g>
<!-- src/infrastructure/repository/VideoRepository.ts&#45;&gt;src/domain/entities/index.ts -->
<g id="edge30" class="edge">
<title>src/infrastructure/repository/VideoRepository.ts&#45;&gt;src/domain/entities/index.ts</title>
<path fill="none" stroke="#000000" stroke-opacity="0.200000" d="M137.37,-422.47C147.84,-424.77 158,-429.14 165.25,-437 185.29,-458.72 151.14,-483.4 173.25,-503 198.82,-525.66 449.78,-517.43 480.75,-503 495.52,-496.12 506.95,-481.19 514.13,-469.43"/>
<polygon fill="none" stroke="#000000" stroke-opacity="0.200000" points="515.93,-470.52 517.1,-464.27 512.29,-468.42 515.93,-470.52"/>
</g>
<!-- src/infrastructure/repository/VideoRepository.ts&#45;&gt;src/domain/constants/index.ts -->
<g id="edge29" class="edge">
<title>src/infrastructure/repository/VideoRepository.ts&#45;&gt;src/domain/constants/index.ts</title>
<path fill="none" stroke="#000000" stroke-width="2" stroke-opacity="0.200000" d="M137.61,-415.26C147.82,-411.84 157.8,-406.7 165.25,-399 174.54,-389.39 165.87,-381.15 173.25,-370 180.33,-359.31 191.01,-350.1 200.93,-343.05"/>
<polygon fill="#000000" fill-opacity="0.200000" stroke="#000000" stroke-width="2" stroke-opacity="0.200000" points="201.98,-344.88 205.79,-339.79 199.64,-341.39 201.98,-344.88"/>
</g>
<!-- src/infrastructure/repository/VideoRepository.ts&#45;&gt;src/domain/repositories/index.ts -->
<g id="edge31" class="edge">
<title>src/infrastructure/repository/VideoRepository.ts&#45;&gt;src/domain/repositories/index.ts</title>
<path fill="none" stroke="#000000" stroke-opacity="0.200000" d="M137.58,-422C155.68,-422 176.08,-422 192.74,-422"/>
<polygon fill="none" stroke="#000000" stroke-opacity="0.200000" points="192.6,-424.1 198.6,-422 192.6,-419.9 192.6,-424.1"/>
</g>
<!-- src/infrastructure/services/VideoMetadataFacade.ts -->
<g id="node25" class="node">
<title>src/infrastructure/services/VideoMetadataFacade.ts</title>
<g id="a_node25"><a xlink:href="src/infrastructure/services/VideoMetadataFacade.ts" xlink:title="VideoMetadataFacade.ts">
<path fill="#ddfeff" stroke="black" d="M142.83,-368.62C142.83,-368.62 38.42,-368.62 38.42,-368.62 35.21,-368.62 32,-365.42 32,-362.21 32,-362.21 32,-355.79 32,-355.79 32,-352.58 35.21,-349.38 38.42,-349.38 38.42,-349.38 142.83,-349.38 142.83,-349.38 146.04,-349.38 149.25,-352.58 149.25,-355.79 149.25,-355.79 149.25,-362.21 149.25,-362.21 149.25,-365.42 146.04,-368.62 142.83,-368.62"/>
<text text-anchor="start" x="40" y="-356.07" font-family="Helvetica,sans-Serif" font-size="9.00">VideoMetadataFacade.ts</text>
</a>
</g>
</g>
<!-- src/infrastructure/services/VideoMetadataFacade.ts&#45;&gt;src/domain/entities/index.ts -->
<g id="edge32" class="edge">
<title>src/infrastructure/services/VideoMetadataFacade.ts&#45;&gt;src/domain/entities/index.ts</title>
<path fill="none" stroke="#000000" stroke-opacity="0.200000" d="M123.07,-369.05C138.39,-375.63 155.57,-385.88 165.25,-401 176.32,-418.28 158.12,-479.13 173.25,-493 185.84,-504.54 464.89,-499.34 480.75,-493 493.17,-488.03 504.02,-477.44 511.57,-468.41"/>
<polygon fill="none" stroke="#000000" stroke-opacity="0.200000" points="513.02,-469.96 515.11,-463.95 509.73,-467.35 513.02,-469.96"/>
</g>
<!-- src/infrastructure/services/VideoMetadataFacade.ts&#45;&gt;src/domain/repositories/index.ts -->
<g id="edge33" class="edge">
<title>src/infrastructure/services/VideoMetadataFacade.ts&#45;&gt;src/domain/repositories/index.ts</title>
<path fill="none" stroke="#000000" stroke-opacity="0.200000" d="M113.25,-369.12C136.32,-379.91 172.92,-397.05 198.19,-408.87"/>
<polygon fill="none" stroke="#000000" stroke-opacity="0.200000" points="196.98,-410.62 203.3,-411.26 198.76,-406.82 196.98,-410.62"/>
</g>
<!-- src/infrastructure/services/VideoMetadataFacade.ts&#45;&gt;src/domain/valueObjects/index.ts -->
<g id="edge34" class="edge">
<title>src/infrastructure/services/VideoMetadataFacade.ts&#45;&gt;src/domain/valueObjects/index.ts</title>
<path fill="none" stroke="#000000" stroke-width="2" stroke-opacity="0.200000" d="M106.03,-348.94C129.72,-332.4 177.01,-299.38 204.69,-280.05"/>
<polygon fill="#000000" fill-opacity="0.200000" stroke="#000000" stroke-width="2" stroke-opacity="0.200000" points="205.75,-281.88 209.46,-276.72 203.34,-278.43 205.75,-281.88"/>
</g>
<!-- src/infrastructure/video/VideoFileParser.ts -->
<g id="node26" class="node">
<title>src/infrastructure/video/VideoFileParser.ts</title>
<g id="a_node26"><a xlink:href="src/infrastructure/video/VideoFileParser.ts" xlink:title="VideoFileParser.ts">
<path fill="#ddfeff" stroke="black" d="M130.08,-619.62C130.08,-619.62 51.17,-619.62 51.17,-619.62 47.96,-619.62 44.75,-616.42 44.75,-613.21 44.75,-613.21 44.75,-606.79 44.75,-606.79 44.75,-603.58 47.96,-600.38 51.17,-600.38 51.17,-600.38 130.08,-600.38 130.08,-600.38 133.29,-600.38 136.5,-603.58 136.5,-606.79 136.5,-606.79 136.5,-613.21 136.5,-613.21 136.5,-616.42 133.29,-619.62 130.08,-619.62"/>
<text text-anchor="start" x="52.75" y="-607.08" font-family="Helvetica,sans-Serif" font-size="9.00">VideoFileParser.ts</text>
</a>
</g>
</g>
<!-- src/infrastructure/video/VideoFileParser.ts&#45;&gt;src/domain/entities/index.ts -->
<g id="edge35" class="edge">
<title>src/infrastructure/video/VideoFileParser.ts&#45;&gt;src/domain/entities/index.ts</title>
<path fill="none" stroke="#000000" stroke-opacity="0.200000" d="M136.64,-603.46C174.9,-597.93 231.29,-589.84 280.5,-583 324.98,-576.82 445.24,-583.49 480.75,-556 507.91,-534.97 517.61,-493.43 520.99,-470.04"/>
<polygon fill="none" stroke="#000000" stroke-opacity="0.200000" points="523.04,-470.58 521.72,-464.36 518.87,-470.05 523.04,-470.58"/>
</g>
<!-- src/infrastructure/video/VideoFileParser.ts&#45;&gt;src/domain/valueObjects/index.ts -->
<g id="edge36" class="edge">
<title>src/infrastructure/video/VideoFileParser.ts&#45;&gt;src/domain/valueObjects/index.ts</title>
<path fill="none" stroke="#000000" stroke-width="2" stroke-opacity="0.200000" d="M136.71,-605.19C147.71,-601.79 158.3,-596.18 165.25,-587 184.04,-562.19 159.3,-334.82 173.25,-307 178.83,-295.88 188.87,-286.76 198.72,-279.9"/>
<polygon fill="#000000" fill-opacity="0.200000" stroke="#000000" stroke-width="2" stroke-opacity="0.200000" points="199.71,-281.77 203.61,-276.75 197.43,-278.24 199.71,-281.77"/>
</g>
<!-- src/presentation/components/VideoCard.vue -->
<g id="node27" class="node">
<title>src/presentation/components/VideoCard.vue</title>
<g id="a_node27"><a xlink:href="src/presentation/components/VideoCard.vue" xlink:title="VideoCard.vue">
<path fill="#41f083" stroke="black" d="M258.83,-51.62C258.83,-51.62 195.67,-51.62 195.67,-51.62 192.46,-51.62 189.25,-48.42 189.25,-45.21 189.25,-45.21 189.25,-38.79 189.25,-38.79 189.25,-35.58 192.46,-32.38 195.67,-32.38 195.67,-32.38 258.83,-32.38 258.83,-32.38 262.04,-32.38 265.25,-35.58 265.25,-38.79 265.25,-38.79 265.25,-45.21 265.25,-45.21 265.25,-48.42 262.04,-51.62 258.83,-51.62"/>
<text text-anchor="start" x="197.25" y="-39.08" font-family="Helvetica,sans-Serif" font-size="9.00">VideoCard.vue</text>
</a>
</g>
</g>
<!-- src/presentation/components/VideoCard.vue&#45;&gt;src/domain/entities/index.ts -->
<g id="edge38" class="edge">
<title>src/presentation/components/VideoCard.vue&#45;&gt;src/domain/entities/index.ts</title>
<path fill="none" stroke="#000000" stroke-opacity="0.200000" d="M259.91,-52.12C266.68,-54.16 273.81,-56.23 280.5,-58 368.67,-81.37 419.61,-35.31 480.75,-103 525.6,-152.65 524.47,-372.81 523.19,-435.99"/>
<polygon fill="none" stroke="#000000" stroke-opacity="0.200000" points="521.1,-435.65 523.06,-441.7 525.3,-435.75 521.1,-435.65"/>
</g>
<!-- src/presentation/components/VideoEmbed.vue -->
<g id="node28" class="node">
<title>src/presentation/components/VideoEmbed.vue</title>
<g id="a_node28"><a xlink:href="src/presentation/components/VideoEmbed.vue" xlink:title="VideoEmbed.vue">
<path fill="#41f083" stroke="black" d="M417.08,-51.62C417.08,-51.62 344.17,-51.62 344.17,-51.62 340.96,-51.62 337.75,-48.42 337.75,-45.21 337.75,-45.21 337.75,-38.79 337.75,-38.79 337.75,-35.58 340.96,-32.38 344.17,-32.38 344.17,-32.38 417.08,-32.38 417.08,-32.38 420.29,-32.38 423.5,-35.58 423.5,-38.79 423.5,-38.79 423.5,-45.21 423.5,-45.21 423.5,-48.42 420.29,-51.62 417.08,-51.62"/>
<text text-anchor="start" x="345.75" y="-39.08" font-family="Helvetica,sans-Serif" font-size="9.00">VideoEmbed.vue</text>
</a>
</g>
</g>
<!-- src/presentation/components/VideoCard.vue&#45;&gt;src/presentation/components/VideoEmbed.vue -->
<g id="edge37" class="edge">
<title>src/presentation/components/VideoCard.vue&#45;&gt;src/presentation/components/VideoEmbed.vue</title>
<path fill="none" stroke="#000000" stroke-width="2" stroke-opacity="0.200000" d="M265.67,-42C284.58,-42 307.82,-42 328.37,-42"/>
<polygon fill="#000000" fill-opacity="0.200000" stroke="#000000" stroke-width="2" stroke-opacity="0.200000" points="328.27,-44.1 334.27,-42 328.27,-39.9 328.27,-44.1"/>
</g>
<!-- src/presentation/components/VideoEmbed.vue&#45;&gt;src/domain/entities/index.ts -->
<g id="edge39" class="edge">
<title>src/presentation/components/VideoEmbed.vue&#45;&gt;src/domain/entities/index.ts</title>
<path fill="none" stroke="#000000" stroke-opacity="0.200000" d="M423.96,-45.22C444.2,-49.04 466.97,-57.12 480.75,-74 503.92,-102.4 518.43,-365.3 521.93,-435.72"/>
<polygon fill="none" stroke="#000000" stroke-opacity="0.200000" points="519.82,-435.58 522.21,-441.47 524.01,-435.37 519.82,-435.58"/>
</g>
<!-- src/presentation/stores/videosStore.ts -->
<g id="node29" class="node">
<title>src/presentation/stores/videosStore.ts</title>
<g id="a_node29"><a xlink:href="src/presentation/stores/videosStore.ts" xlink:title="videosStore.ts">
<path fill="#ddfeff" stroke="black" d="M258.08,-114.62C258.08,-114.62 196.42,-114.62 196.42,-114.62 193.21,-114.62 190,-111.42 190,-108.21 190,-108.21 190,-101.79 190,-101.79 190,-98.58 193.21,-95.38 196.42,-95.38 196.42,-95.38 258.08,-95.38 258.08,-95.38 261.29,-95.38 264.5,-98.58 264.5,-101.79 264.5,-101.79 264.5,-108.21 264.5,-108.21 264.5,-111.42 261.29,-114.62 258.08,-114.62"/>
<text text-anchor="start" x="198" y="-102.08" font-family="Helvetica,sans-Serif" font-size="9.00">videosStore.ts</text>
</a>
</g>
</g>
<!-- src/presentation/stores/videosStore.ts&#45;&gt;src/domain/entities/index.ts -->
<g id="edge40" class="edge">
<title>src/presentation/stores/videosStore.ts&#45;&gt;src/domain/entities/index.ts</title>
<path fill="none" stroke="#000000" stroke-opacity="0.200000" d="M264.73,-104.75C320.39,-106.51 425.81,-118.63 480.75,-182 513.9,-220.24 520.96,-381.85 522.4,-435.56"/>
<polygon fill="none" stroke="#000000" stroke-opacity="0.200000" points="520.29,-435.49 522.54,-441.44 524.49,-435.39 520.29,-435.49"/>
</g>
</g>
</svg>
