<?xml version="1.0" encoding="UTF-8" standalone="no"?>
<!DOCTYPE svg PUBLIC "-//W3C//DTD SVG 1.1//EN"
 "http://www.w3.org/Graphics/SVG/1.1/DTD/svg11.dtd">
<!-- Generated by graphviz version 9.0.0 (20230911.1827)
 -->
<!-- Title: dependency&#45;cruiser output Pages: 1 -->
<svg width="284pt" height="486pt"
 viewBox="0.00 0.00 284.00 486.00" xmlns="http://www.w3.org/2000/svg" xmlns:xlink="http://www.w3.org/1999/xlink">
<g id="graph0" class="graph" transform="scale(1 1) rotate(0) translate(4 482)">
<title>dependency&#45;cruiser output</title>
<polygon fill="white" stroke="none" points="-4,4 -4,-482 280,-482 280,4 -4,4"/>
<g id="clust1" class="cluster">
<title>cluster_src</title>
<path fill="#ffffff" stroke="black" stroke-width="2" d="M20,-8C20,-8 256,-8 256,-8 262,-8 268,-14 268,-20 268,-20 268,-458 268,-458 268,-464 262,-470 256,-470 256,-470 20,-470 20,-470 14,-470 8,-464 8,-458 8,-458 8,-20 8,-20 8,-14 14,-8 20,-8"/>
<text text-anchor="middle" x="138" y="-457.45" font-family="Helvetica,sans-Serif" font-weight="bold" font-size="9.00">src</text>
</g>
<g id="clust2" class="cluster">
<title>cluster_src/application</title>
<path fill="#ffffff" stroke="black" stroke-width="2" d="M33.25,-326C33.25,-326 82.5,-326 82.5,-326 88.5,-326 94.5,-332 94.5,-338 94.5,-338 94.5,-431 94.5,-431 94.5,-437 88.5,-443 82.5,-443 82.5,-443 33.25,-443 33.25,-443 27.25,-443 21.25,-437 21.25,-431 21.25,-431 21.25,-338 21.25,-338 21.25,-332 27.25,-326 33.25,-326"/>
<text text-anchor="middle" x="57.88" y="-430.45" font-family="Helvetica,sans-Serif" font-weight="bold" font-size="9.00">application</text>
</g>
<g id="clust4" class="cluster">
<title>cluster_src/infrastructure</title>
<path fill="#ffffff" stroke="black" stroke-width="2" d="M33.62,-110C33.62,-110 173.38,-110 173.38,-110 179.38,-110 185.38,-116 185.38,-122 185.38,-122 185.38,-246 185.38,-246 185.38,-252 179.38,-258 173.38,-258 173.38,-258 33.62,-258 33.62,-258 27.62,-258 21.62,-252 21.62,-246 21.62,-246 21.62,-122 21.62,-122 21.62,-116 27.62,-110 33.62,-110"/>
<text text-anchor="middle" x="103.5" y="-245.45" font-family="Helvetica,sans-Serif" font-weight="bold" font-size="9.00">infrastructure</text>
</g>
<g id="clust3" class="cluster">
<title>cluster_src/domain</title>
<path fill="#ffffff" stroke="black" stroke-width="2" d="M119.75,-266C119.75,-266 248,-266 248,-266 254,-266 260,-272 260,-278 260,-278 260,-402 260,-402 260,-408 254,-414 248,-414 248,-414 119.75,-414 119.75,-414 113.75,-414 107.75,-408 107.75,-402 107.75,-402 107.75,-278 107.75,-278 107.75,-272 113.75,-266 119.75,-266"/>
<text text-anchor="middle" x="183.88" y="-401.45" font-family="Helvetica,sans-Serif" font-weight="bold" font-size="9.00">domain</text>
</g>
<g id="clust5" class="cluster">
<title>cluster_src/presentation</title>
<path fill="#ffffff" stroke="black" stroke-width="2" d="M28,-16C28,-16 87.75,-16 87.75,-16 93.75,-16 99.75,-22 99.75,-28 99.75,-28 99.75,-90 99.75,-90 99.75,-96 93.75,-102 87.75,-102 87.75,-102 28,-102 28,-102 22,-102 16,-96 16,-90 16,-90 16,-28 16,-28 16,-22 22,-16 28,-16"/>
<text text-anchor="middle" x="57.88" y="-89.45" font-family="Helvetica,sans-Serif" font-weight="bold" font-size="9.00">presentation</text>
</g>
<!-- src/application/ports -->
<g id="node1" class="node">
<title>src/application/ports</title>
<g id="a_node1"><a xlink:href="src/application/ports" xlink:title="ports">
<polygon fill="#ffffcc" stroke="black" points="84.88,-415.62 33.01,-415.62 30.88,-413.49 30.88,-396.38 82.74,-396.38 84.88,-398.51 84.88,-415.62"/>
<polyline fill="none" stroke="black" points="82.74,-413.49 30.88,-413.49"/>
<polyline fill="none" stroke="black" points="82.74,-413.49 82.74,-396.38"/>
<polyline fill="none" stroke="black" points="82.74,-413.49 84.88,-415.62"/>
<text text-anchor="start" x="47.38" y="-403.07" font-family="Helvetica,sans-Serif" font-size="9.00">ports</text>
</a>
</g>
</g>
<!-- src/domain/entities -->
<g id="node2" class="node">
<title>src/domain/entities</title>
<g id="a_node2"><a xlink:href="src/domain/entities" xlink:title="entities">
<polygon fill="#ffffcc" stroke="black" points="252,-293.62 200.14,-293.62 198,-291.49 198,-274.38 249.86,-274.38 252,-276.51 252,-293.62"/>
<polyline fill="none" stroke="black" points="249.86,-291.49 198,-291.49"/>
<polyline fill="none" stroke="black" points="249.86,-291.49 249.86,-274.38"/>
<polyline fill="none" stroke="black" points="249.86,-291.49 252,-293.62"/>
<text text-anchor="start" x="210" y="-281.07" font-family="Helvetica,sans-Serif" font-size="9.00">entities</text>
</a>
</g>
</g>
<!-- src/application/ports&#45;&gt;src/domain/entities -->
<g id="edge1" class="edge">
<title>src/application/ports&#45;&gt;src/domain/entities</title>
<path fill="none" stroke="#000000" stroke-opacity="0.200000" d="M75.98,-415.98C102.3,-429.87 153.05,-450.71 185.38,-426 205.28,-410.78 217.36,-335.51 221.92,-301.15"/>
<polygon fill="none" stroke="#000000" stroke-opacity="0.200000" points="223.95,-301.82 222.63,-295.6 219.78,-301.29 223.95,-301.82"/>
</g>
<!-- src/application/services -->
<g id="node3" class="node">
<title>src/application/services</title>
<g id="a_node3"><a xlink:href="src/application/services" xlink:title="services">
<polygon fill="#ffffcc" stroke="black" points="84.88,-384.62 33.01,-384.62 30.88,-382.49 30.88,-365.38 82.74,-365.38 84.88,-367.51 84.88,-384.62"/>
<polyline fill="none" stroke="black" points="82.74,-382.49 30.88,-382.49"/>
<polyline fill="none" stroke="black" points="82.74,-382.49 82.74,-365.38"/>
<polyline fill="none" stroke="black" points="82.74,-382.49 84.88,-384.62"/>
<text text-anchor="start" x="40.62" y="-372.07" font-family="Helvetica,sans-Serif" font-size="9.00">services</text>
</a>
</g>
</g>
<!-- src/application/services&#45;&gt;src/domain/entities -->
<g id="edge2" class="edge">
<title>src/application/services&#45;&gt;src/domain/entities</title>
<path fill="none" stroke="#000000" stroke-opacity="0.200000" d="M85.18,-380.67C90.56,-382.85 95.77,-385.85 99.75,-390 107.82,-398.42 98.33,-408.12 107.75,-415 135.62,-435.34 157.74,-435.66 185.38,-415 220.96,-388.39 225.14,-330.55 224.83,-301.45"/>
<polygon fill="none" stroke="#000000" stroke-opacity="0.200000" points="226.93,-301.52 224.68,-295.57 222.74,-301.62 226.93,-301.52"/>
</g>
<!-- src/application/usecases -->
<g id="node4" class="node">
<title>src/application/usecases</title>
<g id="a_node4"><a xlink:href="src/application/usecases" xlink:title="usecases">
<polygon fill="#ffffcc" stroke="black" points="86.5,-353.62 31.39,-353.62 29.25,-351.49 29.25,-334.38 84.36,-334.38 86.5,-336.51 86.5,-353.62"/>
<polyline fill="none" stroke="black" points="84.36,-351.49 29.25,-351.49"/>
<polyline fill="none" stroke="black" points="84.36,-351.49 84.36,-334.38"/>
<polyline fill="none" stroke="black" points="84.36,-351.49 86.5,-353.62"/>
<text text-anchor="start" x="37.25" y="-341.07" font-family="Helvetica,sans-Serif" font-size="9.00">usecases</text>
</a>
</g>
</g>
<!-- src/application/usecases&#45;&gt;src/domain/entities -->
<g id="edge3" class="edge">
<title>src/application/usecases&#45;&gt;src/domain/entities</title>
<path fill="none" stroke="#000000" stroke-opacity="0.200000" d="M86.87,-349.83C91.76,-351.99 96.35,-354.94 99.75,-359 112.8,-374.57 92.18,-390.95 107.75,-404 134.19,-426.16 157.49,-424.32 185.38,-404 218.06,-380.19 223.68,-328.24 224.28,-301.17"/>
<polygon fill="none" stroke="#000000" stroke-opacity="0.200000" points="226.38,-301.46 224.33,-295.45 222.18,-301.43 226.38,-301.46"/>
</g>
<!-- src/domain/repositories -->
<g id="node5" class="node">
<title>src/domain/repositories</title>
<g id="a_node5"><a xlink:href="src/domain/repositories" xlink:title="repositories">
<polygon fill="#ffffcc" stroke="black" points="183.12,-386.62 119.76,-386.62 117.62,-384.49 117.62,-367.38 180.99,-367.38 183.12,-369.51 183.12,-386.62"/>
<polyline fill="none" stroke="black" points="180.99,-384.49 117.62,-384.49"/>
<polyline fill="none" stroke="black" points="180.99,-384.49 180.99,-367.38"/>
<polyline fill="none" stroke="black" points="180.99,-384.49 183.12,-386.62"/>
<text text-anchor="start" x="125.62" y="-374.07" font-family="Helvetica,sans-Serif" font-size="9.00">repositories</text>
</a>
</g>
</g>
<!-- src/application/usecases&#45;&gt;src/domain/repositories -->
<g id="edge4" class="edge">
<title>src/application/usecases&#45;&gt;src/domain/repositories</title>
<path fill="none" stroke="#000000" stroke-opacity="0.200000" d="M86.15,-353.98C90.69,-355.65 95.36,-357.37 99.75,-359 103.31,-360.32 104.19,-360.69 107.75,-362 109.91,-362.8 112.14,-363.61 114.39,-364.43"/>
<polygon fill="none" stroke="#000000" stroke-opacity="0.200000" points="113.37,-366.29 119.72,-366.37 114.8,-362.34 113.37,-366.29"/>
</g>
<!-- src/domain/repositories&#45;&gt;src/domain/entities -->
<g id="edge5" class="edge">
<title>src/domain/repositories&#45;&gt;src/domain/entities</title>
<path fill="none" stroke="#000000" stroke-opacity="0.200000" d="M178.83,-367.01C181.19,-365.54 183.42,-363.87 185.38,-362 203.15,-345 213.93,-318.09 219.43,-300.74"/>
<polygon fill="none" stroke="#000000" stroke-opacity="0.200000" points="221.32,-301.75 221.04,-295.4 217.3,-300.54 221.32,-301.75"/>
</g>
<!-- src/domain/constants -->
<g id="node6" class="node">
<title>src/domain/constants</title>
<g id="a_node6"><a xlink:href="src/domain/constants" xlink:title="constants">
<polygon fill="#ffffcc" stroke="black" points="178.62,-355.62 124.26,-355.62 122.12,-353.49 122.12,-336.38 176.49,-336.38 178.62,-338.51 178.62,-355.62"/>
<polyline fill="none" stroke="black" points="176.49,-353.49 122.12,-353.49"/>
<polyline fill="none" stroke="black" points="176.49,-353.49 176.49,-336.38"/>
<polyline fill="none" stroke="black" points="176.49,-353.49 178.62,-355.62"/>
<text text-anchor="start" x="130.12" y="-343.07" font-family="Helvetica,sans-Serif" font-size="9.00">constants</text>
</a>
</g>
</g>
<!-- src/domain/services -->
<g id="node7" class="node">
<title>src/domain/services</title>
<g id="a_node7"><a xlink:href="src/domain/services" xlink:title="services">
<polygon fill="#ffffcc" stroke="black" points="177.38,-293.62 125.51,-293.62 123.38,-291.49 123.38,-274.38 175.24,-274.38 177.38,-276.51 177.38,-293.62"/>
<polyline fill="none" stroke="black" points="175.24,-291.49 123.38,-291.49"/>
<polyline fill="none" stroke="black" points="175.24,-291.49 175.24,-274.38"/>
<polyline fill="none" stroke="black" points="175.24,-291.49 177.38,-293.62"/>
<text text-anchor="start" x="133.12" y="-281.07" font-family="Helvetica,sans-Serif" font-size="9.00">services</text>
</a>
</g>
</g>
<!-- src/domain/services&#45;&gt;src/domain/entities -->
<g id="edge6" class="edge">
<title>src/domain/services&#45;&gt;src/domain/entities</title>
<path fill="none" stroke="#000000" stroke-opacity="0.200000" d="M177.59,-284C181.66,-284 185.9,-284 190.11,-284"/>
<polygon fill="none" stroke="#000000" stroke-opacity="0.200000" points="190.06,-286.1 196.06,-284 190.06,-281.9 190.06,-286.1"/>
</g>
<!-- src/domain/valueObjects -->
<g id="node8" class="node">
<title>src/domain/valueObjects</title>
<g id="a_node8"><a xlink:href="src/domain/valueObjects" xlink:title="valueObjects">
<polygon fill="#ffffcc" stroke="black" points="185,-324.62 117.89,-324.62 115.75,-322.49 115.75,-305.38 182.86,-305.38 185,-307.51 185,-324.62"/>
<polyline fill="none" stroke="black" points="182.86,-322.49 115.75,-322.49"/>
<polyline fill="none" stroke="black" points="182.86,-322.49 182.86,-305.38"/>
<polyline fill="none" stroke="black" points="182.86,-322.49 185,-324.62"/>
<text text-anchor="start" x="123.75" y="-312.07" font-family="Helvetica,sans-Serif" font-size="9.00">valueObjects</text>
</a>
</g>
</g>
<!-- src/domain/valueObjects&#45;&gt;src/domain/entities -->
<g id="edge7" class="edge">
<title>src/domain/valueObjects&#45;&gt;src/domain/entities</title>
<path fill="none" stroke="#000000" stroke-opacity="0.200000" d="M174.75,-305.02C180.84,-302.42 187.49,-299.58 193.88,-296.86"/>
<polygon fill="none" stroke="#000000" stroke-opacity="0.200000" points="194.58,-298.84 199.27,-294.55 192.93,-294.98 194.58,-298.84"/>
</g>
<!-- src/infrastructure/adapters -->
<g id="node9" class="node">
<title>src/infrastructure/adapters</title>
<g id="a_node9"><a xlink:href="src/infrastructure/adapters" xlink:title="adapters">
<polygon fill="#ffffcc" stroke="black" points="84.88,-168.62 33.01,-168.62 30.88,-166.49 30.88,-149.38 82.74,-149.38 84.88,-151.51 84.88,-168.62"/>
<polyline fill="none" stroke="black" points="82.74,-166.49 30.88,-166.49"/>
<polyline fill="none" stroke="black" points="82.74,-166.49 82.74,-149.38"/>
<polyline fill="none" stroke="black" points="82.74,-166.49 84.88,-168.62"/>
<text text-anchor="start" x="39.5" y="-156.07" font-family="Helvetica,sans-Serif" font-size="9.00">adapters</text>
</a>
</g>
</g>
<!-- src/infrastructure/adapters&#45;&gt;src/domain/entities -->
<g id="edge8" class="edge">
<title>src/infrastructure/adapters&#45;&gt;src/domain/entities</title>
<path fill="none" stroke="#000000" stroke-opacity="0.200000" d="M85.35,-163.98C90.85,-166.19 96.08,-169.39 99.75,-174 117.34,-196.08 88.19,-216.65 107.75,-237 131.99,-262.22 153.78,-234.98 185.38,-250 194.89,-254.52 203.84,-262.1 210.72,-268.95"/>
<polygon fill="none" stroke="#000000" stroke-opacity="0.200000" points="208.83,-270.02 214.5,-272.89 211.86,-267.11 208.83,-270.02"/>
</g>
<!-- src/infrastructure/adapters&#45;&gt;src/domain/repositories -->
<g id="edge9" class="edge">
<title>src/infrastructure/adapters&#45;&gt;src/domain/repositories</title>
<path fill="none" stroke="#000000" stroke-opacity="0.200000" d="M85.21,-163.6C90.85,-165.82 96.18,-169.12 99.75,-174 112.08,-190.88 95.37,-345.15 107.75,-362 108.86,-363.52 110.15,-364.88 111.55,-366.11"/>
<polygon fill="none" stroke="#000000" stroke-opacity="0.200000" points="110.13,-367.68 116.27,-369.33 112.5,-364.21 110.13,-367.68"/>
</g>
<!-- src/infrastructure/dto -->
<g id="node10" class="node">
<title>src/infrastructure/dto</title>
<g id="a_node10"><a xlink:href="src/infrastructure/dto" xlink:title="dto">
<polygon fill="#ffffcc" stroke="black" points="177.38,-230.62 125.51,-230.62 123.38,-228.49 123.38,-211.38 175.24,-211.38 177.38,-213.51 177.38,-230.62"/>
<polyline fill="none" stroke="black" points="175.24,-228.49 123.38,-228.49"/>
<polyline fill="none" stroke="black" points="175.24,-228.49 175.24,-211.38"/>
<polyline fill="none" stroke="black" points="175.24,-228.49 177.38,-230.62"/>
<text text-anchor="start" x="144" y="-218.07" font-family="Helvetica,sans-Serif" font-size="9.00">dto</text>
</a>
</g>
</g>
<!-- src/infrastructure/dto&#45;&gt;src/domain/entities -->
<g id="edge10" class="edge">
<title>src/infrastructure/dto&#45;&gt;src/domain/entities</title>
<path fill="none" stroke="#000000" stroke-opacity="0.200000" d="M170.76,-231.02C175.73,-233.95 180.92,-237.36 185.38,-241 195.22,-249.05 204.79,-259.67 211.93,-268.34"/>
<polygon fill="none" stroke="#000000" stroke-opacity="0.200000" points="210.12,-269.44 215.52,-272.8 213.4,-266.81 210.12,-269.44"/>
</g>
<!-- src/infrastructure/repository -->
<g id="node11" class="node">
<title>src/infrastructure/repository</title>
<g id="a_node11"><a xlink:href="src/infrastructure/repository" xlink:title="repository">
<polygon fill="#ffffcc" stroke="black" points="86.12,-199.62 31.76,-199.62 29.62,-197.49 29.62,-180.38 83.99,-180.38 86.12,-182.51 86.12,-199.62"/>
<polyline fill="none" stroke="black" points="83.99,-197.49 29.62,-197.49"/>
<polyline fill="none" stroke="black" points="83.99,-197.49 83.99,-180.38"/>
<polyline fill="none" stroke="black" points="83.99,-197.49 86.12,-199.62"/>
<text text-anchor="start" x="37.62" y="-187.07" font-family="Helvetica,sans-Serif" font-size="9.00">repository</text>
</a>
</g>
</g>
<!-- src/infrastructure/repository&#45;&gt;src/domain/entities -->
<g id="edge12" class="edge">
<title>src/infrastructure/repository&#45;&gt;src/domain/entities</title>
<path fill="none" stroke="#000000" stroke-opacity="0.200000" d="M86.44,-195.65C91.48,-197.83 96.25,-200.84 99.75,-205 112.55,-220.21 94.12,-234.53 107.75,-249 132.1,-274.86 151.62,-256.95 185.38,-268 188.32,-268.97 191.37,-270.05 194.39,-271.2"/>
<polygon fill="none" stroke="#000000" stroke-opacity="0.200000" points="193.58,-273.14 199.93,-273.38 195.12,-269.23 193.58,-273.14"/>
</g>
<!-- src/infrastructure/repository&#45;&gt;src/domain/repositories -->
<g id="edge13" class="edge">
<title>src/infrastructure/repository&#45;&gt;src/domain/repositories</title>
<path fill="none" stroke="#000000" stroke-opacity="0.200000" d="M86.45,-195.14C91.62,-197.34 96.43,-200.5 99.75,-205 120.47,-233.12 86.95,-333.94 107.75,-362 108.75,-363.35 109.89,-364.59 111.13,-365.71"/>
<polygon fill="none" stroke="#000000" stroke-opacity="0.200000" points="109.79,-367.33 115.9,-369.07 112.21,-363.9 109.79,-367.33"/>
</g>
<!-- src/infrastructure/repository&#45;&gt;src/domain/constants -->
<g id="edge11" class="edge">
<title>src/infrastructure/repository&#45;&gt;src/domain/constants</title>
<path fill="none" stroke="#000000" stroke-width="2" stroke-opacity="0.200000" d="M86.4,-195.17C91.58,-197.37 96.4,-200.52 99.75,-205 116.53,-227.48 90.9,-308.57 107.75,-331 109.5,-333.33 111.65,-335.31 114.04,-336.97"/>
<polygon fill="#000000" fill-opacity="0.200000" stroke="#000000" stroke-width="2" stroke-opacity="0.200000" points="112.83,-338.7 119.11,-339.68 114.81,-335 112.83,-338.7"/>
</g>
<!-- src/infrastructure/services -->
<g id="node12" class="node">
<title>src/infrastructure/services</title>
<g id="a_node12"><a xlink:href="src/infrastructure/services" xlink:title="services">
<polygon fill="#ffffcc" stroke="black" points="84.88,-230.62 33.01,-230.62 30.88,-228.49 30.88,-211.38 82.74,-211.38 84.88,-213.51 84.88,-230.62"/>
<polyline fill="none" stroke="black" points="82.74,-228.49 30.88,-228.49"/>
<polyline fill="none" stroke="black" points="82.74,-228.49 82.74,-211.38"/>
<polyline fill="none" stroke="black" points="82.74,-228.49 84.88,-230.62"/>
<text text-anchor="start" x="40.62" y="-218.07" font-family="Helvetica,sans-Serif" font-size="9.00">services</text>
</a>
</g>
</g>
<!-- src/infrastructure/services&#45;&gt;src/domain/entities -->
<g id="edge15" class="edge">
<title>src/infrastructure/services&#45;&gt;src/domain/entities</title>
<path fill="none" stroke="#000000" stroke-opacity="0.200000" d="M63.99,-231.12C72.85,-249.11 90.92,-288.04 99.75,-323 103.59,-338.18 96.07,-382.58 107.75,-393 120.62,-404.48 171.29,-402.95 185.38,-393 214.97,-372.09 222.03,-326.49 223.62,-301.41"/>
<polygon fill="none" stroke="#000000" stroke-opacity="0.200000" points="225.72,-301.64 223.9,-295.55 221.52,-301.45 225.72,-301.64"/>
</g>
<!-- src/infrastructure/services&#45;&gt;src/domain/repositories -->
<g id="edge16" class="edge">
<title>src/infrastructure/services&#45;&gt;src/domain/repositories</title>
<path fill="none" stroke="#000000" stroke-opacity="0.200000" d="M63.55,-230.92C71.86,-248.91 89.33,-288.28 99.75,-323 104.84,-339.95 96.17,-348.62 107.75,-362 108.81,-363.23 109.98,-364.35 111.24,-365.39"/>
<polygon fill="none" stroke="#000000" stroke-opacity="0.200000" points="109.77,-366.93 115.93,-368.52 112.1,-363.44 109.77,-366.93"/>
</g>
<!-- src/infrastructure/services&#45;&gt;src/infrastructure/dto -->
<g id="edge14" class="edge">
<title>src/infrastructure/services&#45;&gt;src/infrastructure/dto</title>
<path fill="none" stroke="#000000" stroke-width="2" stroke-opacity="0.200000" d="M85.05,-221C94.07,-221 104.33,-221 113.96,-221"/>
<polygon fill="#000000" fill-opacity="0.200000" stroke="#000000" stroke-width="2" stroke-opacity="0.200000" points="113.92,-223.1 119.92,-221 113.92,-218.9 113.92,-223.1"/>
</g>
<!-- src/infrastructure/video -->
<g id="node13" class="node">
<title>src/infrastructure/video</title>
<g id="a_node13"><a xlink:href="src/infrastructure/video" xlink:title="video">
<polygon fill="#ffffcc" stroke="black" points="84.88,-137.62 33.01,-137.62 30.88,-135.49 30.88,-118.38 82.74,-118.38 84.88,-120.51 84.88,-137.62"/>
<polyline fill="none" stroke="black" points="82.74,-135.49 30.88,-135.49"/>
<polyline fill="none" stroke="black" points="82.74,-135.49 82.74,-118.38"/>
<polyline fill="none" stroke="black" points="82.74,-135.49 84.88,-137.62"/>
<text text-anchor="start" x="47" y="-125.08" font-family="Helvetica,sans-Serif" font-size="9.00">video</text>
</a>
</g>
</g>
<!-- src/infrastructure/video&#45;&gt;src/domain/entities -->
<g id="edge17" class="edge">
<title>src/infrastructure/video&#45;&gt;src/domain/entities</title>
<path fill="none" stroke="#000000" stroke-opacity="0.200000" d="M85.29,-136.48C90.2,-138.39 95.21,-140.58 99.75,-143 141.22,-165.08 155.13,-169.05 185.38,-205 201.28,-223.91 212.52,-250.49 218.63,-267.48"/>
<polygon fill="none" stroke="#000000" stroke-opacity="0.200000" points="216.49,-267.72 220.43,-272.7 220.45,-266.34 216.49,-267.72"/>
</g>
<!-- src/infrastructure/video&#45;&gt;src/domain/valueObjects -->
<g id="edge18" class="edge">
<title>src/infrastructure/video&#45;&gt;src/domain/valueObjects</title>
<path fill="none" stroke="#000000" stroke-width="2" stroke-opacity="0.200000" d="M85.18,-132.62C90.83,-134.84 96.16,-138.13 99.75,-143 120.47,-171.12 86.95,-271.94 107.75,-300 108.08,-300.44 108.42,-300.87 108.78,-301.29"/>
<polygon fill="#000000" fill-opacity="0.200000" stroke="#000000" stroke-width="2" stroke-opacity="0.200000" points="107.3,-302.79 113.23,-305.06 110.01,-299.58 107.3,-302.79"/>
</g>
<!-- src/presentation/components -->
<g id="node14" class="node">
<title>src/presentation/components</title>
<g id="a_node14"><a xlink:href="src/presentation/components" xlink:title="components">
<polygon fill="#ffffcc" stroke="black" points="91.75,-43.62 26.14,-43.62 24,-41.49 24,-24.38 89.61,-24.38 91.75,-26.51 91.75,-43.62"/>
<polyline fill="none" stroke="black" points="89.61,-41.49 24,-41.49"/>
<polyline fill="none" stroke="black" points="89.61,-41.49 89.61,-24.38"/>
<polyline fill="none" stroke="black" points="89.61,-41.49 91.75,-43.62"/>
<text text-anchor="start" x="32" y="-31.07" font-family="Helvetica,sans-Serif" font-size="9.00">components</text>
</a>
</g>
</g>
<!-- src/presentation/components&#45;&gt;src/domain/entities -->
<g id="edge19" class="edge">
<title>src/presentation/components&#45;&gt;src/domain/entities</title>
<path fill="none" stroke="#000000" stroke-opacity="0.200000" d="M92.1,-33.33C120.96,-34.64 161.73,-41.41 185.38,-67 212.26,-96.1 220.92,-220.1 223.25,-266.44"/>
<polygon fill="none" stroke="#000000" stroke-opacity="0.200000" points="221.15,-266.5 223.53,-272.39 225.35,-266.3 221.15,-266.5"/>
</g>
<!-- src/presentation/stores -->
<g id="node15" class="node">
<title>src/presentation/stores</title>
<g id="a_node15"><a xlink:href="src/presentation/stores" xlink:title="stores">
<polygon fill="#ffffcc" stroke="black" points="84.88,-74.62 33.01,-74.62 30.88,-72.49 30.88,-55.38 82.74,-55.38 84.88,-57.51 84.88,-74.62"/>
<polyline fill="none" stroke="black" points="82.74,-72.49 30.88,-72.49"/>
<polyline fill="none" stroke="black" points="82.74,-72.49 82.74,-55.38"/>
<polyline fill="none" stroke="black" points="82.74,-72.49 84.88,-74.62"/>
<text text-anchor="start" x="44.75" y="-62.08" font-family="Helvetica,sans-Serif" font-size="9.00">stores</text>
</a>
</g>
</g>
<!-- src/presentation/stores&#45;&gt;src/domain/entities -->
<g id="edge20" class="edge">
<title>src/presentation/stores&#45;&gt;src/domain/entities</title>
<path fill="none" stroke="#000000" stroke-opacity="0.200000" d="M85.26,-66.33C114.12,-69.26 159.69,-78.44 185.38,-107 206.63,-130.63 218.4,-227.24 222.41,-266.89"/>
<polygon fill="none" stroke="#000000" stroke-opacity="0.200000" points="220.31,-266.96 222.98,-272.73 224.49,-266.55 220.31,-266.96"/>
</g>
<!-- src/presentation/stores&#45;&gt;src/domain/services -->
<g id="edge21" class="edge">
<title>src/presentation/stores&#45;&gt;src/domain/services</title>
<path fill="none" stroke="#000000" stroke-width="2" stroke-opacity="0.200000" d="M72.93,-75.01C82.36,-82.61 94.05,-93.95 99.75,-107 113.47,-138.4 89.58,-231.95 107.75,-261 109.88,-264.4 112.69,-267.34 115.86,-269.86"/>
<polygon fill="#000000" fill-opacity="0.200000" stroke="#000000" stroke-width="2" stroke-opacity="0.200000" points="114.55,-271.52 120.71,-273.09 116.88,-268.02 114.55,-271.52"/>
</g>
</g>
</svg>
