<?xml version="1.0" encoding="UTF-8" standalone="no"?>
<!DOCTYPE svg PUBLIC "-//W3C//DTD SVG 1.1//EN"
 "http://www.w3.org/Graphics/SVG/1.1/DTD/svg11.dtd">
<!-- Generated by graphviz version 9.0.0 (20230911.1827)
 -->
<!-- Title: dependency&#45;cruiser output Pages: 1 -->
<svg width="813pt" height="679pt"
 viewBox="0.00 0.00 813.00 679.00" xmlns="http://www.w3.org/2000/svg" xmlns:xlink="http://www.w3.org/1999/xlink">
<g id="graph0" class="graph" transform="scale(1 1) rotate(0) translate(4 675)">
<title>dependency&#45;cruiser output</title>
<polygon fill="white" stroke="none" points="-4,4 -4,-675 809,-675 809,4 -4,4"/>
<g id="clust1" class="cluster">
<title>cluster_src</title>
<path fill="#ffffff" stroke="black" stroke-width="2" d="M20,-8C20,-8 785,-8 785,-8 791,-8 797,-14 797,-20 797,-20 797,-651 797,-651 797,-657 791,-663 785,-663 785,-663 20,-663 20,-663 14,-663 8,-657 8,-651 8,-651 8,-20 8,-20 8,-14 14,-8 20,-8"/>
<text text-anchor="middle" x="402.5" y="-650.45" font-family="Helvetica,sans-Serif" font-weight="bold" font-size="9.00">src</text>
</g>
<g id="clust2" class="cluster">
<title>cluster_src/application</title>
<path fill="#ffffff" stroke="black" stroke-width="2" d="M280.12,-515C280.12,-515 386.62,-515 386.62,-515 392.62,-515 398.62,-521 398.62,-527 398.62,-527 398.62,-624 398.62,-624 398.62,-630 392.62,-636 386.62,-636 386.62,-636 280.12,-636 280.12,-636 274.12,-636 268.12,-630 268.12,-624 268.12,-624 268.12,-527 268.12,-527 268.12,-521 274.12,-515 280.12,-515"/>
<text text-anchor="middle" x="333.38" y="-623.45" font-family="Helvetica,sans-Serif" font-weight="bold" font-size="9.00">application</text>
</g>
<g id="clust3" class="cluster">
<title>cluster_src/application/services</title>
<path fill="#ffffff" stroke="black" stroke-width="2" d="M288.12,-523C288.12,-523 378.62,-523 378.62,-523 384.62,-523 390.62,-529 390.62,-535 390.62,-535 390.62,-597 390.62,-597 390.62,-603 384.62,-609 378.62,-609 378.62,-609 288.12,-609 288.12,-609 282.12,-609 276.12,-603 276.12,-597 276.12,-597 276.12,-535 276.12,-535 276.12,-529 282.12,-523 288.12,-523"/>
<text text-anchor="middle" x="333.38" y="-596.45" font-family="Helvetica,sans-Serif" font-weight="bold" font-size="9.00">services</text>
</g>
<g id="clust4" class="cluster">
<title>cluster_src/components</title>
<path fill="#ffffff" stroke="black" stroke-width="2" d="M185.25,-389C185.25,-389 372.25,-389 372.25,-389 378.25,-389 384.25,-395 384.25,-401 384.25,-401 384.25,-432 384.25,-432 384.25,-438 378.25,-444 372.25,-444 372.25,-444 185.25,-444 185.25,-444 179.25,-444 173.25,-438 173.25,-432 173.25,-432 173.25,-401 173.25,-401 173.25,-395 179.25,-389 185.25,-389"/>
<text text-anchor="middle" x="278.75" y="-431.45" font-family="Helvetica,sans-Serif" font-weight="bold" font-size="9.00">components</text>
</g>
<g id="clust5" class="cluster">
<title>cluster_src/domain</title>
<path fill="#ffffff" stroke="black" stroke-width="2" d="M188.25,-16C188.25,-16 777,-16 777,-16 783,-16 789,-22 789,-28 789,-28 789,-344 789,-344 789,-350 783,-356 777,-356 777,-356 188.25,-356 188.25,-356 182.25,-356 176.25,-350 176.25,-344 176.25,-344 176.25,-28 176.25,-28 176.25,-22 182.25,-16 188.25,-16"/>
<text text-anchor="middle" x="482.62" y="-343.45" font-family="Helvetica,sans-Serif" font-weight="bold" font-size="9.00">domain</text>
</g>
<g id="clust7" class="cluster">
<title>cluster_src/domain/entities</title>
<path fill="#ffffff" stroke="black" stroke-width="2" d="M424.5,-232C424.5,-232 769,-232 769,-232 775,-232 781,-238 781,-244 781,-244 781,-317 781,-317 781,-323 775,-329 769,-329 769,-329 424.5,-329 424.5,-329 418.5,-329 412.5,-323 412.5,-317 412.5,-317 412.5,-244 412.5,-244 412.5,-238 418.5,-232 424.5,-232"/>
<text text-anchor="middle" x="596.75" y="-316.45" font-family="Helvetica,sans-Serif" font-weight="bold" font-size="9.00">entities</text>
</g>
<g id="clust6" class="cluster">
<title>cluster_src/domain/constants</title>
<path fill="#ffffff" stroke="black" stroke-width="2" d="M196.25,-274C196.25,-274 242.25,-274 242.25,-274 248.25,-274 254.25,-280 254.25,-286 254.25,-286 254.25,-317 254.25,-317 254.25,-323 248.25,-329 242.25,-329 242.25,-329 196.25,-329 196.25,-329 190.25,-329 184.25,-323 184.25,-317 184.25,-317 184.25,-286 184.25,-286 184.25,-280 190.25,-274 196.25,-274"/>
<text text-anchor="middle" x="219.25" y="-316.45" font-family="Helvetica,sans-Serif" font-weight="bold" font-size="9.00">constants</text>
</g>
<g id="clust8" class="cluster">
<title>cluster_src/domain/repositories</title>
<path fill="#ffffff" stroke="black" stroke-width="2" d="M196.25,-149C196.25,-149 384.25,-149 384.25,-149 390.25,-149 396.25,-155 396.25,-161 396.25,-161 396.25,-254 396.25,-254 396.25,-260 390.25,-266 384.25,-266 384.25,-266 196.25,-266 196.25,-266 190.25,-266 184.25,-260 184.25,-254 184.25,-254 184.25,-161 184.25,-161 184.25,-155 190.25,-149 196.25,-149"/>
<text text-anchor="middle" x="290.25" y="-253.45" font-family="Helvetica,sans-Serif" font-weight="bold" font-size="9.00">repositories</text>
</g>
<g id="clust9" class="cluster">
<title>cluster_src/domain/valueObjects</title>
<path fill="#ffffff" stroke="black" stroke-width="2" d="M196.25,-24C196.25,-24 392.5,-24 392.5,-24 398.5,-24 404.5,-30 404.5,-36 404.5,-36 404.5,-129 404.5,-129 404.5,-135 398.5,-141 392.5,-141 392.5,-141 196.25,-141 196.25,-141 190.25,-141 184.25,-135 184.25,-129 184.25,-129 184.25,-36 184.25,-36 184.25,-30 190.25,-24 196.25,-24"/>
<text text-anchor="middle" x="294.38" y="-128.45" font-family="Helvetica,sans-Serif" font-weight="bold" font-size="9.00">valueObjects</text>
</g>
<g id="clust10" class="cluster">
<title>cluster_src/infrastructure</title>
<path fill="#ffffff" stroke="black" stroke-width="2" d="M28,-197C28,-197 153.25,-197 153.25,-197 159.25,-197 165.25,-203 165.25,-209 165.25,-209 165.25,-432 165.25,-432 165.25,-438 159.25,-444 153.25,-444 153.25,-444 28,-444 28,-444 22,-444 16,-438 16,-432 16,-432 16,-209 16,-209 16,-203 22,-197 28,-197"/>
<text text-anchor="middle" x="90.62" y="-431.45" font-family="Helvetica,sans-Serif" font-weight="bold" font-size="9.00">infrastructure</text>
</g>
<g id="clust12" class="cluster">
<title>cluster_src/infrastructure/services</title>
<path fill="#ffffff" stroke="black" stroke-width="2" d="M36,-205C36,-205 145.25,-205 145.25,-205 151.25,-205 157.25,-211 157.25,-217 157.25,-217 157.25,-248 157.25,-248 157.25,-254 151.25,-260 145.25,-260 145.25,-260 36,-260 36,-260 30,-260 24,-254 24,-248 24,-248 24,-217 24,-217 24,-211 30,-205 36,-205"/>
<text text-anchor="middle" x="90.62" y="-247.45" font-family="Helvetica,sans-Serif" font-weight="bold" font-size="9.00">services</text>
</g>
<g id="clust11" class="cluster">
<title>cluster_src/infrastructure/repository</title>
<path fill="#ffffff" stroke="black" stroke-width="2" d="M40.88,-268C40.88,-268 140.38,-268 140.38,-268 146.38,-268 152.38,-274 152.38,-280 152.38,-280 152.38,-342 152.38,-342 152.38,-348 146.38,-354 140.38,-354 140.38,-354 40.88,-354 40.88,-354 34.88,-354 28.88,-348 28.88,-342 28.88,-342 28.88,-280 28.88,-280 28.88,-274 34.88,-268 40.88,-268"/>
<text text-anchor="middle" x="90.62" y="-341.45" font-family="Helvetica,sans-Serif" font-weight="bold" font-size="9.00">repository</text>
</g>
<g id="clust13" class="cluster">
<title>cluster_src/infrastructure/video</title>
<path fill="#ffffff" stroke="black" stroke-width="2" d="M48.75,-362C48.75,-362 132.5,-362 132.5,-362 138.5,-362 144.5,-368 144.5,-374 144.5,-374 144.5,-405 144.5,-405 144.5,-411 138.5,-417 132.5,-417 132.5,-417 48.75,-417 48.75,-417 42.75,-417 36.75,-411 36.75,-405 36.75,-405 36.75,-374 36.75,-374 36.75,-368 42.75,-362 48.75,-362"/>
<text text-anchor="middle" x="90.62" y="-404.45" font-family="Helvetica,sans-Serif" font-weight="bold" font-size="9.00">video</text>
</g>
<g id="clust14" class="cluster">
<title>cluster_src/stores</title>
<path fill="#ffffff" stroke="black" stroke-width="2" d="M300.12,-452C300.12,-452 366.62,-452 366.62,-452 372.62,-452 378.62,-458 378.62,-464 378.62,-464 378.62,-495 378.62,-495 378.62,-501 372.62,-507 366.62,-507 366.62,-507 300.12,-507 300.12,-507 294.12,-507 288.12,-501 288.12,-495 288.12,-495 288.12,-464 288.12,-464 288.12,-458 294.12,-452 300.12,-452"/>
<text text-anchor="middle" x="333.38" y="-494.45" font-family="Helvetica,sans-Serif" font-weight="bold" font-size="9.00">stores</text>
</g>
<!-- src/application/services/FileParserService.ts -->
<g id="node1" class="node">
<title>src/application/services/FileParserService.ts</title>
<g id="a_node1"><a xlink:href="src/application/services/FileParserService.ts" xlink:title="FileParserService.ts">
<path fill="#ddfeff" stroke="black" d="M376.21,-581.62C376.21,-581.62 290.54,-581.62 290.54,-581.62 287.33,-581.62 284.12,-578.42 284.12,-575.21 284.12,-575.21 284.12,-568.79 284.12,-568.79 284.12,-565.58 287.33,-562.38 290.54,-562.38 290.54,-562.38 376.21,-562.38 376.21,-562.38 379.42,-562.38 382.62,-565.58 382.62,-568.79 382.62,-568.79 382.62,-575.21 382.62,-575.21 382.62,-578.42 379.42,-581.62 376.21,-581.62"/>
<text text-anchor="start" x="292.12" y="-569.08" font-family="Helvetica,sans-Serif" font-size="9.00">FileParserService.ts</text>
</a>
</g>
</g>
<!-- src/domain/entities/index.ts -->
<g id="node2" class="node">
<title>src/domain/entities/index.ts</title>
<g id="a_node2"><a xlink:href="src/domain/entities/index.ts" xlink:title="index.ts">
<path fill="#ddfeff" stroke="black" d="M468.08,-301.62C468.08,-301.62 426.92,-301.62 426.92,-301.62 423.71,-301.62 420.5,-298.42 420.5,-295.21 420.5,-295.21 420.5,-288.79 420.5,-288.79 420.5,-285.58 423.71,-282.38 426.92,-282.38 426.92,-282.38 468.08,-282.38 468.08,-282.38 471.29,-282.38 474.5,-285.58 474.5,-288.79 474.5,-288.79 474.5,-295.21 474.5,-295.21 474.5,-298.42 471.29,-301.62 468.08,-301.62"/>
<text text-anchor="start" x="431.75" y="-289.07" font-family="Helvetica,sans-Serif" font-size="9.00">index.ts</text>
</a>
</g>
</g>
<!-- src/application/services/FileParserService.ts&#45;&gt;src/domain/entities/index.ts -->
<g id="edge1" class="edge">
<title>src/application/services/FileParserService.ts&#45;&gt;src/domain/entities/index.ts</title>
<path fill="none" stroke="#000000" stroke-opacity="0.200000" d="M382.86,-569.55C391,-567.08 398.68,-563.14 404.5,-557 438.56,-521.06 445.02,-362.07 446.22,-309.18"/>
<polygon fill="none" stroke="#000000" stroke-opacity="0.200000" points="448.32,-309.46 446.34,-303.42 444.12,-309.37 448.32,-309.46"/>
</g>
<!-- src/domain/entities/MetadataEntity.ts -->
<g id="node8" class="node">
<title>src/domain/entities/MetadataEntity.ts</title>
<g id="a_node8"><a xlink:href="src/domain/entities/MetadataEntity.ts" xlink:title="MetadataEntity.ts">
<path fill="#ddfeff" stroke="black" d="M766.58,-264.62C766.58,-264.62 694.42,-264.62 694.42,-264.62 691.21,-264.62 688,-261.42 688,-258.21 688,-258.21 688,-251.79 688,-251.79 688,-248.58 691.21,-245.38 694.42,-245.38 694.42,-245.38 766.58,-245.38 766.58,-245.38 769.79,-245.38 773,-248.58 773,-251.79 773,-251.79 773,-258.21 773,-258.21 773,-261.42 769.79,-264.62 766.58,-264.62"/>
<text text-anchor="start" x="696" y="-252.07" font-family="Helvetica,sans-Serif" font-size="9.00">MetadataEntity.ts</text>
</a>
</g>
</g>
<!-- src/domain/entities/index.ts&#45;&gt;src/domain/entities/MetadataEntity.ts -->
<g id="edge10" class="edge">
<title>src/domain/entities/index.ts&#45;&gt;src/domain/entities/MetadataEntity.ts</title>
<path fill="none" stroke="#000000" stroke-opacity="0.200000" d="M453.84,-282.09C460.24,-271.39 472.05,-254.95 487.5,-248 552.53,-218.74 637.65,-231.34 687.68,-243.16"/>
<polygon fill="none" stroke="#000000" stroke-opacity="0.200000" points="687,-245.16 693.32,-244.54 687.99,-241.08 687,-245.16"/>
</g>
<!-- src/domain/entities/ParsedVideo.ts -->
<g id="node9" class="node">
<title>src/domain/entities/ParsedVideo.ts</title>
<g id="a_node9"><a xlink:href="src/domain/entities/ParsedVideo.ts" xlink:title="ParsedVideo.ts">
<path fill="#ddfeff" stroke="black" d="M560.08,-273.62C560.08,-273.62 493.92,-273.62 493.92,-273.62 490.71,-273.62 487.5,-270.42 487.5,-267.21 487.5,-267.21 487.5,-260.79 487.5,-260.79 487.5,-257.58 490.71,-254.38 493.92,-254.38 493.92,-254.38 560.08,-254.38 560.08,-254.38 563.29,-254.38 566.5,-257.58 566.5,-260.79 566.5,-260.79 566.5,-267.21 566.5,-267.21 566.5,-270.42 563.29,-273.62 560.08,-273.62"/>
<text text-anchor="start" x="495.5" y="-261.07" font-family="Helvetica,sans-Serif" font-size="9.00">ParsedVideo.ts</text>
</a>
</g>
</g>
<!-- src/domain/entities/index.ts&#45;&gt;src/domain/entities/ParsedVideo.ts -->
<g id="edge11" class="edge">
<title>src/domain/entities/index.ts&#45;&gt;src/domain/entities/ParsedVideo.ts</title>
<path fill="none" stroke="#000000" stroke-opacity="0.200000" d="M474.74,-282.52C480.05,-280.6 485.71,-278.56 491.26,-276.55"/>
<polygon fill="none" stroke="#000000" stroke-opacity="0.200000" points="491.85,-278.57 496.78,-274.56 490.42,-274.62 491.85,-278.57"/>
</g>
<!-- src/domain/entities/VideoStorageDto.ts -->
<g id="node10" class="node">
<title>src/domain/entities/VideoStorageDto.ts</title>
<g id="a_node10"><a xlink:href="src/domain/entities/VideoStorageDto.ts" xlink:title="VideoStorageDto.ts">
<path fill="#ddfeff" stroke="black" d="M668.58,-280.62C668.58,-280.62 585.92,-280.62 585.92,-280.62 582.71,-280.62 579.5,-277.42 579.5,-274.21 579.5,-274.21 579.5,-267.79 579.5,-267.79 579.5,-264.58 582.71,-261.38 585.92,-261.38 585.92,-261.38 668.58,-261.38 668.58,-261.38 671.79,-261.38 675,-264.58 675,-267.79 675,-267.79 675,-274.21 675,-274.21 675,-277.42 671.79,-280.62 668.58,-280.62"/>
<text text-anchor="start" x="587.5" y="-268.07" font-family="Helvetica,sans-Serif" font-size="9.00">VideoStorageDto.ts</text>
</a>
</g>
</g>
<!-- src/domain/entities/index.ts&#45;&gt;src/domain/entities/VideoStorageDto.ts -->
<g id="edge13" class="edge">
<title>src/domain/entities/index.ts&#45;&gt;src/domain/entities/VideoStorageDto.ts</title>
<path fill="none" stroke="#000000" stroke-opacity="0.200000" d="M474.79,-289.69C498.73,-287.5 535.04,-283.97 566.5,-280 568.32,-279.77 570.17,-279.53 572.04,-279.28"/>
<polygon fill="none" stroke="#000000" stroke-opacity="0.200000" points="572.15,-281.39 577.81,-278.49 571.58,-277.22 572.15,-281.39"/>
</g>
<!-- src/domain/entities/VideoEntity.ts -->
<g id="node11" class="node">
<title>src/domain/entities/VideoEntity.ts</title>
<g id="a_node11"><a xlink:href="src/domain/entities/VideoEntity.ts" xlink:title="VideoEntity.ts">
<path fill="#ddfeff" stroke="black" d="M759.46,-298.62C759.46,-298.62 701.54,-298.62 701.54,-298.62 698.33,-298.62 695.12,-295.42 695.12,-292.21 695.12,-292.21 695.12,-285.79 695.12,-285.79 695.12,-282.58 698.33,-279.38 701.54,-279.38 701.54,-279.38 759.46,-279.38 759.46,-279.38 762.67,-279.38 765.88,-282.58 765.88,-285.79 765.88,-285.79 765.88,-292.21 765.88,-292.21 765.88,-295.42 762.67,-298.62 759.46,-298.62"/>
<text text-anchor="start" x="703.12" y="-286.07" font-family="Helvetica,sans-Serif" font-size="9.00">VideoEntity.ts</text>
</a>
</g>
</g>
<!-- src/domain/entities/index.ts&#45;&gt;src/domain/entities/VideoEntity.ts -->
<g id="edge12" class="edge">
<title>src/domain/entities/index.ts&#45;&gt;src/domain/entities/VideoEntity.ts</title>
<path fill="none" stroke="#000000" stroke-opacity="0.200000" d="M474.94,-291.72C523.81,-291.2 628.64,-290.08 687.39,-289.45"/>
<polygon fill="none" stroke="#000000" stroke-opacity="0.200000" points="687.18,-291.55 693.15,-289.39 687.13,-287.35 687.18,-291.55"/>
</g>
<!-- src/application/services/FiltersService.ts -->
<g id="node3" class="node">
<title>src/application/services/FiltersService.ts</title>
<g id="a_node3"><a xlink:href="src/application/services/FiltersService.ts" xlink:title="FiltersService.ts">
<path fill="#ddfeff" stroke="black" d="M367.58,-550.62C367.58,-550.62 299.17,-550.62 299.17,-550.62 295.96,-550.62 292.75,-547.42 292.75,-544.21 292.75,-544.21 292.75,-537.79 292.75,-537.79 292.75,-534.58 295.96,-531.38 299.17,-531.38 299.17,-531.38 367.58,-531.38 367.58,-531.38 370.79,-531.38 374,-534.58 374,-537.79 374,-537.79 374,-544.21 374,-544.21 374,-547.42 370.79,-550.62 367.58,-550.62"/>
<text text-anchor="start" x="300.75" y="-538.08" font-family="Helvetica,sans-Serif" font-size="9.00">FiltersService.ts</text>
</a>
</g>
</g>
<!-- src/application/services/FiltersService.ts&#45;&gt;src/domain/entities/index.ts -->
<g id="edge2" class="edge">
<title>src/application/services/FiltersService.ts&#45;&gt;src/domain/entities/index.ts</title>
<path fill="none" stroke="#000000" stroke-opacity="0.200000" d="M374.45,-530.93C385.67,-526.28 396.87,-519.58 404.5,-510 429.36,-478.78 441.48,-355.44 445.21,-309.43"/>
<polygon fill="none" stroke="#000000" stroke-opacity="0.200000" points="447.3,-309.67 445.67,-303.52 443.11,-309.34 447.3,-309.67"/>
</g>
<!-- src/components/VideoCard.vue -->
<g id="node4" class="node">
<title>src/components/VideoCard.vue</title>
<g id="a_node4"><a xlink:href="src/components/VideoCard.vue" xlink:title="VideoCard.vue">
<path fill="#41f083" stroke="black" d="M250.83,-416.62C250.83,-416.62 187.67,-416.62 187.67,-416.62 184.46,-416.62 181.25,-413.42 181.25,-410.21 181.25,-410.21 181.25,-403.79 181.25,-403.79 181.25,-400.58 184.46,-397.38 187.67,-397.38 187.67,-397.38 250.83,-397.38 250.83,-397.38 254.04,-397.38 257.25,-400.58 257.25,-403.79 257.25,-403.79 257.25,-410.21 257.25,-410.21 257.25,-413.42 254.04,-416.62 250.83,-416.62"/>
<text text-anchor="start" x="189.25" y="-404.07" font-family="Helvetica,sans-Serif" font-size="9.00">VideoCard.vue</text>
</a>
</g>
</g>
<!-- src/components/VideoCard.vue&#45;&gt;src/domain/entities/index.ts -->
<g id="edge5" class="edge">
<title>src/components/VideoCard.vue&#45;&gt;src/domain/entities/index.ts</title>
<path fill="none" stroke="#000000" stroke-opacity="0.200000" d="M241.43,-417.06C278.41,-433 355.47,-458.77 404.5,-423 440.65,-396.62 446.38,-338.67 446.86,-309.5"/>
<polygon fill="none" stroke="#000000" stroke-opacity="0.200000" points="448.96,-309.61 446.87,-303.6 444.76,-309.6 448.96,-309.61"/>
</g>
<!-- src/components/VideoEmbed.vue -->
<g id="node5" class="node">
<title>src/components/VideoEmbed.vue</title>
<g id="a_node5"><a xlink:href="src/components/VideoEmbed.vue" xlink:title="VideoEmbed.vue">
<path fill="#41f083" stroke="black" d="M369.83,-416.62C369.83,-416.62 296.92,-416.62 296.92,-416.62 293.71,-416.62 290.5,-413.42 290.5,-410.21 290.5,-410.21 290.5,-403.79 290.5,-403.79 290.5,-400.58 293.71,-397.38 296.92,-397.38 296.92,-397.38 369.83,-397.38 369.83,-397.38 373.04,-397.38 376.25,-400.58 376.25,-403.79 376.25,-403.79 376.25,-410.21 376.25,-410.21 376.25,-413.42 373.04,-416.62 369.83,-416.62"/>
<text text-anchor="start" x="298.5" y="-404.07" font-family="Helvetica,sans-Serif" font-size="9.00">VideoEmbed.vue</text>
</a>
</g>
</g>
<!-- src/components/VideoCard.vue&#45;&gt;src/components/VideoEmbed.vue -->
<g id="edge3" class="edge">
<title>src/components/VideoCard.vue&#45;&gt;src/components/VideoEmbed.vue</title>
<path fill="none" stroke="#000000" stroke-width="2" stroke-opacity="0.200000" d="M257.59,-407C265.18,-407 273.29,-407 281.26,-407"/>
<polygon fill="#000000" fill-opacity="0.200000" stroke="#000000" stroke-width="2" stroke-opacity="0.200000" points="281.14,-409.1 287.14,-407 281.14,-404.9 281.14,-409.1"/>
</g>
<!-- src/stores/videosStore.ts -->
<g id="node6" class="node">
<title>src/stores/videosStore.ts</title>
<g id="a_node6"><a xlink:href="src/stores/videosStore.ts" xlink:title="videosStore.ts">
<path fill="#ddfeff" stroke="black" d="M364.21,-479.62C364.21,-479.62 302.54,-479.62 302.54,-479.62 299.33,-479.62 296.12,-476.42 296.12,-473.21 296.12,-473.21 296.12,-466.79 296.12,-466.79 296.12,-463.58 299.33,-460.38 302.54,-460.38 302.54,-460.38 364.21,-460.38 364.21,-460.38 367.42,-460.38 370.62,-463.58 370.62,-466.79 370.62,-466.79 370.62,-473.21 370.62,-473.21 370.62,-476.42 367.42,-479.62 364.21,-479.62"/>
<text text-anchor="start" x="304.12" y="-467.07" font-family="Helvetica,sans-Serif" font-size="9.00">videosStore.ts</text>
</a>
</g>
</g>
<!-- src/components/VideoCard.vue&#45;&gt;src/stores/videosStore.ts -->
<g id="edge4" class="edge">
<title>src/components/VideoCard.vue&#45;&gt;src/stores/videosStore.ts</title>
<path fill="none" stroke="#000000" stroke-width="2" stroke-opacity="0.200000" d="M230.1,-417.04C239.26,-425.92 253.65,-438.71 268.12,-447 274.63,-450.72 281.84,-454.01 289.01,-456.85"/>
<polygon fill="#000000" fill-opacity="0.200000" stroke="#000000" stroke-width="2" stroke-opacity="0.200000" points="288.18,-458.78 294.54,-458.92 289.65,-454.85 288.18,-458.78"/>
</g>
<!-- src/components/VideoEmbed.vue&#45;&gt;src/domain/entities/index.ts -->
<g id="edge6" class="edge">
<title>src/components/VideoEmbed.vue&#45;&gt;src/domain/entities/index.ts</title>
<path fill="none" stroke="#000000" stroke-opacity="0.200000" d="M376.67,-399.28C386.66,-395.88 396.67,-391 404.5,-384 426.9,-363.97 438.12,-329.6 443.1,-309.02"/>
<polygon fill="none" stroke="#000000" stroke-opacity="0.200000" points="445.11,-309.66 444.38,-303.34 441.01,-308.74 445.11,-309.66"/>
</g>
<!-- src/stores/videosStore.ts&#45;&gt;src/domain/entities/index.ts -->
<g id="edge35" class="edge">
<title>src/stores/videosStore.ts&#45;&gt;src/domain/entities/index.ts</title>
<path fill="none" stroke="#000000" stroke-opacity="0.200000" d="M370.93,-465.14C383.05,-461.84 395.68,-456.29 404.5,-447 441.3,-408.22 446.54,-340.57 446.85,-309.06"/>
<polygon fill="none" stroke="#000000" stroke-opacity="0.200000" points="448.95,-309.38 446.84,-303.38 444.75,-309.38 448.95,-309.38"/>
</g>
<!-- src/domain/constants/index.ts -->
<g id="node7" class="node">
<title>src/domain/constants/index.ts</title>
<g id="a_node7"><a xlink:href="src/domain/constants/index.ts" xlink:title="index.ts">
<path fill="#ddfeff" stroke="black" d="M239.83,-301.62C239.83,-301.62 198.67,-301.62 198.67,-301.62 195.46,-301.62 192.25,-298.42 192.25,-295.21 192.25,-295.21 192.25,-288.79 192.25,-288.79 192.25,-285.58 195.46,-282.38 198.67,-282.38 198.67,-282.38 239.83,-282.38 239.83,-282.38 243.04,-282.38 246.25,-285.58 246.25,-288.79 246.25,-288.79 246.25,-295.21 246.25,-295.21 246.25,-298.42 243.04,-301.62 239.83,-301.62"/>
<text text-anchor="start" x="203.5" y="-289.07" font-family="Helvetica,sans-Serif" font-size="9.00">index.ts</text>
</a>
</g>
</g>
<!-- src/domain/entities/ParsedVideo.ts&#45;&gt;src/domain/entities/VideoStorageDto.ts -->
<g id="edge7" class="edge">
<title>src/domain/entities/ParsedVideo.ts&#45;&gt;src/domain/entities/VideoStorageDto.ts</title>
<path fill="none" stroke="#000000" stroke-opacity="0.200000" d="M566.83,-266.77C568.49,-266.88 570.16,-267 571.84,-267.12"/>
<polygon fill="none" stroke="#000000" stroke-opacity="0.200000" points="571.59,-269.21 577.73,-267.54 571.89,-265.02 571.59,-269.21"/>
</g>
<!-- src/domain/entities/VideoStorageDto.ts&#45;&gt;src/domain/entities/MetadataEntity.ts -->
<g id="edge8" class="edge">
<title>src/domain/entities/VideoStorageDto.ts&#45;&gt;src/domain/entities/MetadataEntity.ts</title>
<path fill="none" stroke="#000000" stroke-opacity="0.200000" d="M675.32,-263.56C677,-263.3 678.68,-263.03 680.36,-262.77"/>
<polygon fill="none" stroke="#000000" stroke-opacity="0.200000" points="680.6,-264.85 686.2,-261.84 679.95,-260.7 680.6,-264.85"/>
</g>
<!-- src/domain/entities/VideoStorageDto.ts&#45;&gt;src/domain/entities/VideoEntity.ts -->
<g id="edge9" class="edge">
<title>src/domain/entities/VideoStorageDto.ts&#45;&gt;src/domain/entities/VideoEntity.ts</title>
<path fill="none" stroke="#000000" stroke-opacity="0.200000" d="M675.32,-279.37C679.38,-280.09 683.48,-280.82 687.51,-281.53"/>
<polygon fill="none" stroke="#000000" stroke-opacity="0.200000" points="686.88,-283.56 693.15,-282.54 687.61,-279.42 686.88,-283.56"/>
</g>
<!-- src/domain/repositories/IMetadataRepository.ts -->
<g id="node12" class="node">
<title>src/domain/repositories/IMetadataRepository.ts</title>
<g id="a_node12"><a xlink:href="src/domain/repositories/IMetadataRepository.ts" xlink:title="IMetadataRepository.ts">
<path fill="#ddfeff" stroke="black" d="M381.83,-176.62C381.83,-176.62 284.92,-176.62 284.92,-176.62 281.71,-176.62 278.5,-173.42 278.5,-170.21 278.5,-170.21 278.5,-163.79 278.5,-163.79 278.5,-160.58 281.71,-157.38 284.92,-157.38 284.92,-157.38 381.83,-157.38 381.83,-157.38 385.04,-157.38 388.25,-160.58 388.25,-163.79 388.25,-163.79 388.25,-170.21 388.25,-170.21 388.25,-173.42 385.04,-176.62 381.83,-176.62"/>
<text text-anchor="start" x="286.5" y="-164.07" font-family="Helvetica,sans-Serif" font-size="9.00">IMetadataRepository.ts</text>
</a>
</g>
</g>
<!-- src/domain/repositories/IMetadataRepository.ts&#45;&gt;src/domain/entities/index.ts -->
<g id="edge14" class="edge">
<title>src/domain/repositories/IMetadataRepository.ts&#45;&gt;src/domain/entities/index.ts</title>
<path fill="none" stroke="#000000" stroke-opacity="0.200000" d="M388.69,-172.78C394.44,-175.03 399.87,-178.03 404.5,-182 432.38,-205.88 441.81,-250.38 444.96,-274.82"/>
<polygon fill="none" stroke="#000000" stroke-opacity="0.200000" points="442.84,-274.78 445.6,-280.5 447.01,-274.3 442.84,-274.78"/>
</g>
<!-- src/domain/repositories/IVideoFacade.ts -->
<g id="node13" class="node">
<title>src/domain/repositories/IVideoFacade.ts</title>
<g id="a_node13"><a xlink:href="src/domain/repositories/IVideoFacade.ts" xlink:title="IVideoFacade.ts">
<path fill="#ddfeff" stroke="black" d="M367.96,-207.62C367.96,-207.62 298.79,-207.62 298.79,-207.62 295.58,-207.62 292.38,-204.42 292.38,-201.21 292.38,-201.21 292.38,-194.79 292.38,-194.79 292.38,-191.58 295.58,-188.38 298.79,-188.38 298.79,-188.38 367.96,-188.38 367.96,-188.38 371.17,-188.38 374.38,-191.58 374.38,-194.79 374.38,-194.79 374.38,-201.21 374.38,-201.21 374.38,-204.42 371.17,-207.62 367.96,-207.62"/>
<text text-anchor="start" x="300.38" y="-195.07" font-family="Helvetica,sans-Serif" font-size="9.00">IVideoFacade.ts</text>
</a>
</g>
</g>
<!-- src/domain/repositories/IVideoFacade.ts&#45;&gt;src/domain/entities/index.ts -->
<g id="edge15" class="edge">
<title>src/domain/repositories/IVideoFacade.ts&#45;&gt;src/domain/entities/index.ts</title>
<path fill="none" stroke="#000000" stroke-opacity="0.200000" d="M374.77,-200.53C385.24,-202.74 395.95,-206.55 404.5,-213 424.9,-228.39 436.42,-256.62 442.06,-274.84"/>
<polygon fill="none" stroke="#000000" stroke-opacity="0.200000" points="440.01,-275.33 443.7,-280.51 444.05,-274.16 440.01,-275.33"/>
</g>
<!-- src/domain/repositories/IVideoRepository.ts -->
<g id="node14" class="node">
<title>src/domain/repositories/IVideoRepository.ts</title>
<g id="a_node14"><a xlink:href="src/domain/repositories/IVideoRepository.ts" xlink:title="IVideoRepository.ts">
<path fill="#ddfeff" stroke="black" d="M374.71,-238.62C374.71,-238.62 292.04,-238.62 292.04,-238.62 288.83,-238.62 285.62,-235.42 285.62,-232.21 285.62,-232.21 285.62,-225.79 285.62,-225.79 285.62,-222.58 288.83,-219.38 292.04,-219.38 292.04,-219.38 374.71,-219.38 374.71,-219.38 377.92,-219.38 381.12,-222.58 381.12,-225.79 381.12,-225.79 381.12,-232.21 381.12,-232.21 381.12,-235.42 377.92,-238.62 374.71,-238.62"/>
<text text-anchor="start" x="293.62" y="-226.07" font-family="Helvetica,sans-Serif" font-size="9.00">IVideoRepository.ts</text>
</a>
</g>
</g>
<!-- src/domain/repositories/IVideoRepository.ts&#45;&gt;src/domain/entities/index.ts -->
<g id="edge16" class="edge">
<title>src/domain/repositories/IVideoRepository.ts&#45;&gt;src/domain/entities/index.ts</title>
<path fill="none" stroke="#000000" stroke-opacity="0.200000" d="M352.39,-239.12C371.27,-249.73 401.05,-266.46 422.05,-278.26"/>
<polygon fill="none" stroke="#000000" stroke-opacity="0.200000" points="420.95,-280.05 427.21,-281.16 423.01,-276.39 420.95,-280.05"/>
</g>
<!-- src/domain/repositories/index.ts -->
<g id="node15" class="node">
<title>src/domain/repositories/index.ts</title>
<g id="a_node15"><a xlink:href="src/domain/repositories/index.ts" xlink:title="index.ts">
<path fill="#ddfeff" stroke="black" d="M239.83,-235.62C239.83,-235.62 198.67,-235.62 198.67,-235.62 195.46,-235.62 192.25,-232.42 192.25,-229.21 192.25,-229.21 192.25,-222.79 192.25,-222.79 192.25,-219.58 195.46,-216.38 198.67,-216.38 198.67,-216.38 239.83,-216.38 239.83,-216.38 243.04,-216.38 246.25,-219.58 246.25,-222.79 246.25,-222.79 246.25,-229.21 246.25,-229.21 246.25,-232.42 243.04,-235.62 239.83,-235.62"/>
<text text-anchor="start" x="203.5" y="-223.07" font-family="Helvetica,sans-Serif" font-size="9.00">index.ts</text>
</a>
</g>
</g>
<!-- src/domain/repositories/index.ts&#45;&gt;src/domain/repositories/IMetadataRepository.ts -->
<g id="edge17" class="edge">
<title>src/domain/repositories/index.ts&#45;&gt;src/domain/repositories/IMetadataRepository.ts</title>
<path fill="none" stroke="#000000" stroke-opacity="0.200000" d="M228.33,-216.02C237.08,-205.9 251.96,-190.55 268.12,-182 269.56,-181.24 271.04,-180.52 272.55,-179.83"/>
<polygon fill="none" stroke="#000000" stroke-opacity="0.200000" points="273.17,-181.84 277.92,-177.62 271.58,-177.96 273.17,-181.84"/>
</g>
<!-- src/domain/repositories/index.ts&#45;&gt;src/domain/repositories/IVideoFacade.ts -->
<g id="edge18" class="edge">
<title>src/domain/repositories/index.ts&#45;&gt;src/domain/repositories/IVideoFacade.ts</title>
<path fill="none" stroke="#000000" stroke-opacity="0.200000" d="M246.54,-218.68C253.54,-216.78 261.11,-214.77 268.12,-213 273.51,-211.64 279.17,-210.26 284.79,-208.91"/>
<polygon fill="none" stroke="#000000" stroke-opacity="0.200000" points="285.05,-211 290.41,-207.57 284.08,-206.92 285.05,-211"/>
</g>
<!-- src/domain/repositories/index.ts&#45;&gt;src/domain/repositories/IVideoRepository.ts -->
<g id="edge19" class="edge">
<title>src/domain/repositories/index.ts&#45;&gt;src/domain/repositories/IVideoRepository.ts</title>
<path fill="none" stroke="#000000" stroke-opacity="0.200000" d="M246.54,-226.7C255.9,-226.95 266.82,-227.25 277.67,-227.54"/>
<polygon fill="none" stroke="#000000" stroke-opacity="0.200000" points="277.59,-229.63 283.64,-227.7 277.7,-225.44 277.59,-229.63"/>
</g>
<!-- src/domain/valueObjects/ParsedVideoData.ts -->
<g id="node16" class="node">
<title>src/domain/valueObjects/ParsedVideoData.ts</title>
<g id="a_node16"><a xlink:href="src/domain/valueObjects/ParsedVideoData.ts" xlink:title="ParsedVideoData.ts">
<path fill="#ddfeff" stroke="black" d="M376.21,-51.62C376.21,-51.62 290.54,-51.62 290.54,-51.62 287.33,-51.62 284.12,-48.42 284.12,-45.21 284.12,-45.21 284.12,-38.79 284.12,-38.79 284.12,-35.58 287.33,-32.38 290.54,-32.38 290.54,-32.38 376.21,-32.38 376.21,-32.38 379.42,-32.38 382.62,-35.58 382.62,-38.79 382.62,-38.79 382.62,-45.21 382.62,-45.21 382.62,-48.42 379.42,-51.62 376.21,-51.62"/>
<text text-anchor="start" x="292.12" y="-39.08" font-family="Helvetica,sans-Serif" font-size="9.00">ParsedVideoData.ts</text>
</a>
</g>
</g>
<!-- src/domain/valueObjects/Thumbs.ts -->
<g id="node17" class="node">
<title>src/domain/valueObjects/Thumbs.ts</title>
<g id="a_node17"><a xlink:href="src/domain/valueObjects/Thumbs.ts" xlink:title="Thumbs.ts">
<path fill="#ddfeff" stroke="black" d="M357.08,-82.62C357.08,-82.62 309.67,-82.62 309.67,-82.62 306.46,-82.62 303.25,-79.42 303.25,-76.21 303.25,-76.21 303.25,-69.79 303.25,-69.79 303.25,-66.58 306.46,-63.38 309.67,-63.38 309.67,-63.38 357.08,-63.38 357.08,-63.38 360.29,-63.38 363.5,-66.58 363.5,-69.79 363.5,-69.79 363.5,-76.21 363.5,-76.21 363.5,-79.42 360.29,-82.62 357.08,-82.62"/>
<text text-anchor="start" x="311.25" y="-70.08" font-family="Helvetica,sans-Serif" font-size="9.00">Thumbs.ts</text>
</a>
</g>
</g>
<!-- src/domain/valueObjects/VideoStorageDtoMapper.ts -->
<g id="node18" class="node">
<title>src/domain/valueObjects/VideoStorageDtoMapper.ts</title>
<g id="a_node18"><a xlink:href="src/domain/valueObjects/VideoStorageDtoMapper.ts" xlink:title="VideoStorageDtoMapper.ts">
<path fill="#ddfeff" stroke="black" d="M390.08,-113.62C390.08,-113.62 276.67,-113.62 276.67,-113.62 273.46,-113.62 270.25,-110.42 270.25,-107.21 270.25,-107.21 270.25,-100.79 270.25,-100.79 270.25,-97.58 273.46,-94.38 276.67,-94.38 276.67,-94.38 390.08,-94.38 390.08,-94.38 393.29,-94.38 396.5,-97.58 396.5,-100.79 396.5,-100.79 396.5,-107.21 396.5,-107.21 396.5,-110.42 393.29,-113.62 390.08,-113.62"/>
<text text-anchor="start" x="278.25" y="-101.08" font-family="Helvetica,sans-Serif" font-size="9.00">VideoStorageDtoMapper.ts</text>
</a>
</g>
</g>
<!-- src/domain/valueObjects/VideoStorageDtoMapper.ts&#45;&gt;src/domain/entities/index.ts -->
<g id="edge20" class="edge">
<title>src/domain/valueObjects/VideoStorageDtoMapper.ts&#45;&gt;src/domain/entities/index.ts</title>
<path fill="none" stroke="#000000" stroke-opacity="0.200000" d="M360.79,-114.04C375.62,-120.94 393.34,-131.49 404.5,-146 434.63,-185.18 443.15,-245.22 445.56,-274.6"/>
<polygon fill="none" stroke="#000000" stroke-opacity="0.200000" points="443.46,-274.68 445.98,-280.52 447.65,-274.38 443.46,-274.68"/>
</g>
<!-- src/domain/valueObjects/index.ts -->
<g id="node19" class="node">
<title>src/domain/valueObjects/index.ts</title>
<g id="a_node19"><a xlink:href="src/domain/valueObjects/index.ts" xlink:title="index.ts">
<path fill="#ddfeff" stroke="black" d="M239.83,-113.62C239.83,-113.62 198.67,-113.62 198.67,-113.62 195.46,-113.62 192.25,-110.42 192.25,-107.21 192.25,-107.21 192.25,-100.79 192.25,-100.79 192.25,-97.58 195.46,-94.38 198.67,-94.38 198.67,-94.38 239.83,-94.38 239.83,-94.38 243.04,-94.38 246.25,-97.58 246.25,-100.79 246.25,-100.79 246.25,-107.21 246.25,-107.21 246.25,-110.42 243.04,-113.62 239.83,-113.62"/>
<text text-anchor="start" x="203.5" y="-101.08" font-family="Helvetica,sans-Serif" font-size="9.00">index.ts</text>
</a>
</g>
</g>
<!-- src/domain/valueObjects/index.ts&#45;&gt;src/domain/valueObjects/ParsedVideoData.ts -->
<g id="edge21" class="edge">
<title>src/domain/valueObjects/index.ts&#45;&gt;src/domain/valueObjects/ParsedVideoData.ts</title>
<path fill="none" stroke="#000000" stroke-width="2" stroke-opacity="0.200000" d="M227.56,-94.11C236.08,-83.31 251.18,-66.32 283.93,-50.26"/>
<polygon fill="#000000" fill-opacity="0.200000" stroke="#000000" stroke-width="2" stroke-opacity="0.200000" points="286.74,-48.86 290.64,-56.96 282.54,-53.06 286.74,-48.86"/>
</g>
<!-- src/domain/valueObjects/index.ts&#45;&gt;src/domain/valueObjects/Thumbs.ts -->
<g id="edge22" class="edge">
<title>src/domain/valueObjects/index.ts&#45;&gt;src/domain/valueObjects/Thumbs.ts</title>
<path fill="none" stroke="#000000" stroke-opacity="0.200000" d="M246.7,-94.67C253.63,-92.36 261.13,-89.98 268.12,-88 277,-85.49 286.64,-83.07 295.69,-80.94"/>
<polygon fill="none" stroke="#000000" stroke-opacity="0.200000" points="295.95,-83.04 301.33,-79.64 295.01,-78.95 295.95,-83.04"/>
</g>
<!-- src/domain/valueObjects/index.ts&#45;&gt;src/domain/valueObjects/VideoStorageDtoMapper.ts -->
<g id="edge23" class="edge">
<title>src/domain/valueObjects/index.ts&#45;&gt;src/domain/valueObjects/VideoStorageDtoMapper.ts</title>
<path fill="none" stroke="#000000" stroke-width="2" stroke-opacity="0.200000" d="M246.54,-104C253.66,-104 261.68,-104 269.89,-104"/>
<polygon fill="#000000" fill-opacity="0.200000" stroke="#000000" stroke-width="2" stroke-opacity="0.200000" points="272.7,-102.61 276.6,-110.71 268.5,-106.81 272.7,-102.61"/>
</g>
<!-- src/infrastructure/repository/MetadataRepository.ts -->
<g id="node20" class="node">
<title>src/infrastructure/repository/MetadataRepository.ts</title>
<g id="a_node20"><a xlink:href="src/infrastructure/repository/MetadataRepository.ts" xlink:title="MetadataRepository.ts">
<path fill="#ddfeff" stroke="black" d="M137.96,-326.62C137.96,-326.62 43.29,-326.62 43.29,-326.62 40.08,-326.62 36.88,-323.42 36.88,-320.21 36.88,-320.21 36.88,-313.79 36.88,-313.79 36.88,-310.58 40.08,-307.38 43.29,-307.38 43.29,-307.38 137.96,-307.38 137.96,-307.38 141.17,-307.38 144.38,-310.58 144.38,-313.79 144.38,-313.79 144.38,-320.21 144.38,-320.21 144.38,-323.42 141.17,-326.62 137.96,-326.62"/>
<text text-anchor="start" x="44.88" y="-314.07" font-family="Helvetica,sans-Serif" font-size="9.00">MetadataRepository.ts</text>
</a>
</g>
</g>
<!-- src/infrastructure/repository/MetadataRepository.ts&#45;&gt;src/domain/entities/index.ts -->
<g id="edge26" class="edge">
<title>src/infrastructure/repository/MetadataRepository.ts&#45;&gt;src/domain/entities/index.ts</title>
<path fill="none" stroke="#000000" stroke-opacity="0.200000" d="M109.76,-327.01C125.88,-335.3 150.37,-346.43 173.25,-351 223.64,-361.08 358.83,-374.55 404.5,-351 421.63,-342.17 433.3,-322.76 439.91,-308.61"/>
<polygon fill="none" stroke="#000000" stroke-opacity="0.200000" points="441.82,-309.49 442.3,-303.16 437.97,-307.81 441.82,-309.49"/>
</g>
<!-- src/infrastructure/repository/MetadataRepository.ts&#45;&gt;src/domain/constants/index.ts -->
<g id="edge25" class="edge">
<title>src/infrastructure/repository/MetadataRepository.ts&#45;&gt;src/domain/constants/index.ts</title>
<path fill="none" stroke="#000000" stroke-width="2" stroke-opacity="0.200000" d="M142.76,-306.9C156.35,-304.22 170.72,-301.38 183.23,-298.92"/>
<polygon fill="#000000" fill-opacity="0.200000" stroke="#000000" stroke-width="2" stroke-opacity="0.200000" points="183.52,-301 189,-297.78 182.71,-296.88 183.52,-301"/>
</g>
<!-- src/infrastructure/repository/MetadataRepository.ts&#45;&gt;src/domain/repositories/index.ts -->
<g id="edge24" class="edge">
<title>src/infrastructure/repository/MetadataRepository.ts&#45;&gt;src/domain/repositories/index.ts</title>
<path fill="none" stroke="#000000" stroke-opacity="0.200000" d="M144.66,-313.69C152.28,-311.2 159.48,-307.48 165.25,-302 175.57,-292.2 166.19,-283.36 173.25,-271 179.88,-259.4 190.28,-248.72 199.42,-240.68"/>
<polygon fill="none" stroke="#000000" stroke-opacity="0.200000" points="200.53,-242.49 203.74,-237.01 197.81,-239.29 200.53,-242.49"/>
</g>
<!-- src/infrastructure/repository/VideoRepository.ts -->
<g id="node21" class="node">
<title>src/infrastructure/repository/VideoRepository.ts</title>
<g id="a_node21"><a xlink:href="src/infrastructure/repository/VideoRepository.ts" xlink:title="VideoRepository.ts">
<path fill="#ddfeff" stroke="black" d="M130.83,-295.62C130.83,-295.62 50.42,-295.62 50.42,-295.62 47.21,-295.62 44,-292.42 44,-289.21 44,-289.21 44,-282.79 44,-282.79 44,-279.58 47.21,-276.38 50.42,-276.38 50.42,-276.38 130.83,-276.38 130.83,-276.38 134.04,-276.38 137.25,-279.58 137.25,-282.79 137.25,-282.79 137.25,-289.21 137.25,-289.21 137.25,-292.42 134.04,-295.62 130.83,-295.62"/>
<text text-anchor="start" x="52" y="-283.07" font-family="Helvetica,sans-Serif" font-size="9.00">VideoRepository.ts</text>
</a>
</g>
</g>
<!-- src/infrastructure/repository/VideoRepository.ts&#45;&gt;src/domain/entities/index.ts -->
<g id="edge28" class="edge">
<title>src/infrastructure/repository/VideoRepository.ts&#45;&gt;src/domain/entities/index.ts</title>
<path fill="none" stroke="#000000" stroke-opacity="0.200000" d="M137.37,-286.93C147.71,-289.24 157.81,-293.5 165.25,-301 178.32,-314.18 158.92,-330.2 173.25,-342 193.08,-358.34 381.21,-352.85 404.5,-342 419.27,-335.12 430.7,-320.19 437.88,-308.43"/>
<polygon fill="none" stroke="#000000" stroke-opacity="0.200000" points="439.68,-309.52 440.85,-303.27 436.04,-307.42 439.68,-309.52"/>
</g>
<!-- src/infrastructure/repository/VideoRepository.ts&#45;&gt;src/domain/constants/index.ts -->
<g id="edge27" class="edge">
<title>src/infrastructure/repository/VideoRepository.ts&#45;&gt;src/domain/constants/index.ts</title>
<path fill="none" stroke="#000000" stroke-width="2" stroke-opacity="0.200000" d="M137.7,-288.18C152.66,-288.89 169.02,-289.67 183.06,-290.33"/>
<polygon fill="#000000" fill-opacity="0.200000" stroke="#000000" stroke-width="2" stroke-opacity="0.200000" points="182.8,-292.42 188.89,-290.61 183,-288.23 182.8,-292.42"/>
</g>
<!-- src/infrastructure/repository/VideoRepository.ts&#45;&gt;src/domain/repositories/index.ts -->
<g id="edge29" class="edge">
<title>src/infrastructure/repository/VideoRepository.ts&#45;&gt;src/domain/repositories/index.ts</title>
<path fill="none" stroke="#000000" stroke-opacity="0.200000" d="M131.46,-275.99C142.66,-272.53 154.67,-268.19 165.25,-263 177.76,-256.86 190.61,-247.97 200.52,-240.44"/>
<polygon fill="none" stroke="#000000" stroke-opacity="0.200000" points="201.64,-242.23 205.09,-236.89 199.06,-238.91 201.64,-242.23"/>
</g>
<!-- src/infrastructure/services/VideoMetadataFacade.ts -->
<g id="node22" class="node">
<title>src/infrastructure/services/VideoMetadataFacade.ts</title>
<g id="a_node22"><a xlink:href="src/infrastructure/services/VideoMetadataFacade.ts" xlink:title="VideoMetadataFacade.ts">
<path fill="#ddfeff" stroke="black" d="M142.83,-232.62C142.83,-232.62 38.42,-232.62 38.42,-232.62 35.21,-232.62 32,-229.42 32,-226.21 32,-226.21 32,-219.79 32,-219.79 32,-216.58 35.21,-213.38 38.42,-213.38 38.42,-213.38 142.83,-213.38 142.83,-213.38 146.04,-213.38 149.25,-216.58 149.25,-219.79 149.25,-219.79 149.25,-226.21 149.25,-226.21 149.25,-229.42 146.04,-232.62 142.83,-232.62"/>
<text text-anchor="start" x="40" y="-220.07" font-family="Helvetica,sans-Serif" font-size="9.00">VideoMetadataFacade.ts</text>
</a>
</g>
</g>
<!-- src/infrastructure/services/VideoMetadataFacade.ts&#45;&gt;src/domain/entities/index.ts -->
<g id="edge30" class="edge">
<title>src/infrastructure/services/VideoMetadataFacade.ts&#45;&gt;src/domain/entities/index.ts</title>
<path fill="none" stroke="#000000" stroke-opacity="0.200000" d="M122.49,-233.02C137.86,-239.63 155.25,-249.92 165.25,-265 173.54,-277.5 162.04,-322.05 173.25,-332 187.21,-344.39 238.68,-333.94 257.25,-332 312.52,-326.22 375.4,-311.2 412.97,-301.3"/>
<polygon fill="none" stroke="#000000" stroke-opacity="0.200000" points="413.42,-303.36 418.68,-299.78 412.34,-299.3 413.42,-303.36"/>
</g>
<!-- src/infrastructure/services/VideoMetadataFacade.ts&#45;&gt;src/domain/repositories/index.ts -->
<g id="edge31" class="edge">
<title>src/infrastructure/services/VideoMetadataFacade.ts&#45;&gt;src/domain/repositories/index.ts</title>
<path fill="none" stroke="#000000" stroke-opacity="0.200000" d="M149.75,-224.38C161.57,-224.66 173.64,-224.94 184.28,-225.2"/>
<polygon fill="none" stroke="#000000" stroke-opacity="0.200000" points="184.2,-227.29 190.25,-225.34 184.3,-223.09 184.2,-227.29"/>
</g>
<!-- src/infrastructure/services/VideoMetadataFacade.ts&#45;&gt;src/domain/valueObjects/index.ts -->
<g id="edge32" class="edge">
<title>src/infrastructure/services/VideoMetadataFacade.ts&#45;&gt;src/domain/valueObjects/index.ts</title>
<path fill="none" stroke="#000000" stroke-width="2" stroke-opacity="0.200000" d="M102.17,-213.01C117.71,-198.31 147.68,-169.99 173.25,-146 182.38,-137.43 192.58,-127.91 200.96,-120.1"/>
<polygon fill="#000000" fill-opacity="0.200000" stroke="#000000" stroke-width="2" stroke-opacity="0.200000" points="202.33,-121.69 205.29,-116.06 199.47,-118.62 202.33,-121.69"/>
</g>
<!-- src/infrastructure/video/VideoFileParser.ts -->
<g id="node23" class="node">
<title>src/infrastructure/video/VideoFileParser.ts</title>
<g id="a_node23"><a xlink:href="src/infrastructure/video/VideoFileParser.ts" xlink:title="VideoFileParser.ts">
<path fill="#ddfeff" stroke="black" d="M130.08,-389.62C130.08,-389.62 51.17,-389.62 51.17,-389.62 47.96,-389.62 44.75,-386.42 44.75,-383.21 44.75,-383.21 44.75,-376.79 44.75,-376.79 44.75,-373.58 47.96,-370.38 51.17,-370.38 51.17,-370.38 130.08,-370.38 130.08,-370.38 133.29,-370.38 136.5,-373.58 136.5,-376.79 136.5,-376.79 136.5,-383.21 136.5,-383.21 136.5,-386.42 133.29,-389.62 130.08,-389.62"/>
<text text-anchor="start" x="52.75" y="-377.07" font-family="Helvetica,sans-Serif" font-size="9.00">VideoFileParser.ts</text>
</a>
</g>
</g>
<!-- src/infrastructure/video/VideoFileParser.ts&#45;&gt;src/domain/entities/index.ts -->
<g id="edge33" class="edge">
<title>src/infrastructure/video/VideoFileParser.ts&#45;&gt;src/domain/entities/index.ts</title>
<path fill="none" stroke="#000000" stroke-opacity="0.200000" d="M136.85,-382.28C212.49,-385.27 360.69,-387.4 404.5,-361 423.87,-349.33 435.51,-324.97 441.46,-308.55"/>
<polygon fill="none" stroke="#000000" stroke-opacity="0.200000" points="443.38,-309.43 443.32,-303.07 439.41,-308.08 443.38,-309.43"/>
</g>
<!-- src/infrastructure/video/VideoFileParser.ts&#45;&gt;src/domain/valueObjects/index.ts -->
<g id="edge34" class="edge">
<title>src/infrastructure/video/VideoFileParser.ts&#45;&gt;src/domain/valueObjects/index.ts</title>
<path fill="none" stroke="#000000" stroke-width="2" stroke-opacity="0.200000" d="M136.65,-375.14C147.65,-371.74 158.25,-366.15 165.25,-357 179.5,-338.36 163.49,-167.34 173.25,-146 178.04,-135.52 186.78,-126.42 195.29,-119.39"/>
<polygon fill="#000000" fill-opacity="0.200000" stroke="#000000" stroke-width="2" stroke-opacity="0.200000" points="196.42,-121.17 199.89,-115.84 193.86,-117.84 196.42,-121.17"/>
</g>
</g>
</svg>
