<?xml version="1.0" encoding="UTF-8" standalone="no"?>
<!DOCTYPE svg PUBLIC "-//W3C//DTD SVG 1.1//EN"
 "http://www.w3.org/Graphics/SVG/1.1/DTD/svg11.dtd">
<!-- Generated by graphviz version 9.0.0 (20230911.1827)
 -->
<!-- Title: dependency&#45;cruiser output Pages: 1 -->
<svg width="889pt" height="877pt"
 viewBox="0.00 0.00 889.25 877.00" xmlns="http://www.w3.org/2000/svg" xmlns:xlink="http://www.w3.org/1999/xlink">
<g id="graph0" class="graph" transform="scale(1 1) rotate(0) translate(4 873)">
<title>dependency&#45;cruiser output</title>
<polygon fill="white" stroke="none" points="-4,4 -4,-873 885.25,-873 885.25,4 -4,4"/>
<g id="clust1" class="cluster">
<title>cluster_src</title>
<path fill="#ffffff" stroke="black" stroke-width="2" d="M20,-8C20,-8 861.25,-8 861.25,-8 867.25,-8 873.25,-14 873.25,-20 873.25,-20 873.25,-849 873.25,-849 873.25,-855 867.25,-861 861.25,-861 861.25,-861 20,-861 20,-861 14,-861 8,-855 8,-849 8,-849 8,-20 8,-20 8,-14 14,-8 20,-8"/>
<text text-anchor="middle" x="440.62" y="-848.45" font-family="Helvetica,sans-Serif" font-weight="bold" font-size="9.00">src</text>
</g>
<g id="clust2" class="cluster">
<title>cluster_src/application</title>
<path fill="#ffffff" stroke="black" stroke-width="2" d="M292.5,-525C292.5,-525 468.75,-525 468.75,-525 474.75,-525 480.75,-531 480.75,-537 480.75,-537 480.75,-822 480.75,-822 480.75,-828 474.75,-834 468.75,-834 468.75,-834 292.5,-834 292.5,-834 286.5,-834 280.5,-828 280.5,-822 280.5,-822 280.5,-537 280.5,-537 280.5,-531 286.5,-525 292.5,-525"/>
<text text-anchor="middle" x="380.62" y="-821.45" font-family="Helvetica,sans-Serif" font-weight="bold" font-size="9.00">application</text>
</g>
<g id="clust3" class="cluster">
<title>cluster_src/application/ports</title>
<path fill="#ffffff" stroke="black" stroke-width="2" d="M342.88,-721C342.88,-721 418.38,-721 418.38,-721 424.38,-721 430.38,-727 430.38,-733 430.38,-733 430.38,-795 430.38,-795 430.38,-801 424.38,-807 418.38,-807 418.38,-807 342.88,-807 342.88,-807 336.88,-807 330.88,-801 330.88,-795 330.88,-795 330.88,-733 330.88,-733 330.88,-727 336.88,-721 342.88,-721"/>
<text text-anchor="middle" x="380.62" y="-794.45" font-family="Helvetica,sans-Serif" font-weight="bold" font-size="9.00">ports</text>
</g>
<g id="clust4" class="cluster">
<title>cluster_src/application/services</title>
<path fill="#ffffff" stroke="black" stroke-width="2" d="M335.38,-627C335.38,-627 425.88,-627 425.88,-627 431.88,-627 437.88,-633 437.88,-639 437.88,-639 437.88,-701 437.88,-701 437.88,-707 431.88,-713 425.88,-713 425.88,-713 335.38,-713 335.38,-713 329.38,-713 323.38,-707 323.38,-701 323.38,-701 323.38,-639 323.38,-639 323.38,-633 329.38,-627 335.38,-627"/>
<text text-anchor="middle" x="380.62" y="-700.45" font-family="Helvetica,sans-Serif" font-weight="bold" font-size="9.00">services</text>
</g>
<g id="clust5" class="cluster">
<title>cluster_src/application/usecases</title>
<path fill="#ffffff" stroke="black" stroke-width="2" d="M300.5,-533C300.5,-533 460.75,-533 460.75,-533 466.75,-533 472.75,-539 472.75,-545 472.75,-545 472.75,-607 472.75,-607 472.75,-613 466.75,-619 460.75,-619 460.75,-619 300.5,-619 300.5,-619 294.5,-619 288.5,-613 288.5,-607 288.5,-607 288.5,-545 288.5,-545 288.5,-539 294.5,-533 300.5,-533"/>
<text text-anchor="middle" x="380.62" y="-606.45" font-family="Helvetica,sans-Serif" font-weight="bold" font-size="9.00">usecases</text>
</g>
<g id="clust6" class="cluster">
<title>cluster_src/domain</title>
<path fill="#ffffff" stroke="black" stroke-width="2" d="M196.25,-177C196.25,-177 853.25,-177 853.25,-177 859.25,-177 865.25,-183 865.25,-189 865.25,-189 865.25,-505 865.25,-505 865.25,-511 859.25,-517 853.25,-517 853.25,-517 196.25,-517 196.25,-517 190.25,-517 184.25,-511 184.25,-505 184.25,-505 184.25,-189 184.25,-189 184.25,-183 190.25,-177 196.25,-177"/>
<text text-anchor="middle" x="524.75" y="-504.45" font-family="Helvetica,sans-Serif" font-weight="bold" font-size="9.00">domain</text>
</g>
<g id="clust7" class="cluster">
<title>cluster_src/domain/constants</title>
<path fill="#ffffff" stroke="black" stroke-width="2" d="M204.25,-435C204.25,-435 250.25,-435 250.25,-435 256.25,-435 262.25,-441 262.25,-447 262.25,-447 262.25,-478 262.25,-478 262.25,-484 256.25,-490 250.25,-490 250.25,-490 204.25,-490 204.25,-490 198.25,-490 192.25,-484 192.25,-478 192.25,-478 192.25,-447 192.25,-447 192.25,-441 198.25,-435 204.25,-435"/>
<text text-anchor="middle" x="227.25" y="-477.45" font-family="Helvetica,sans-Serif" font-weight="bold" font-size="9.00">constants</text>
</g>
<g id="clust8" class="cluster">
<title>cluster_src/domain/entities</title>
<path fill="#ffffff" stroke="black" stroke-width="2" d="M500.75,-393C500.75,-393 845.25,-393 845.25,-393 851.25,-393 857.25,-399 857.25,-405 857.25,-405 857.25,-478 857.25,-478 857.25,-484 851.25,-490 845.25,-490 845.25,-490 500.75,-490 500.75,-490 494.75,-490 488.75,-484 488.75,-478 488.75,-478 488.75,-405 488.75,-405 488.75,-399 494.75,-393 500.75,-393"/>
<text text-anchor="middle" x="673" y="-477.45" font-family="Helvetica,sans-Serif" font-weight="bold" font-size="9.00">entities</text>
</g>
<g id="clust9" class="cluster">
<title>cluster_src/domain/repositories</title>
<path fill="#ffffff" stroke="black" stroke-width="2" d="M204.25,-310C204.25,-310 431.5,-310 431.5,-310 437.5,-310 443.5,-316 443.5,-322 443.5,-322 443.5,-415 443.5,-415 443.5,-421 437.5,-427 431.5,-427 431.5,-427 204.25,-427 204.25,-427 198.25,-427 192.25,-421 192.25,-415 192.25,-415 192.25,-322 192.25,-322 192.25,-316 198.25,-310 204.25,-310"/>
<text text-anchor="middle" x="317.88" y="-414.45" font-family="Helvetica,sans-Serif" font-weight="bold" font-size="9.00">repositories</text>
</g>
<g id="clust10" class="cluster">
<title>cluster_src/domain/valueObjects</title>
<path fill="#ffffff" stroke="black" stroke-width="2" d="M204.25,-185C204.25,-185 439.75,-185 439.75,-185 445.75,-185 451.75,-191 451.75,-197 451.75,-197 451.75,-290 451.75,-290 451.75,-296 445.75,-302 439.75,-302 439.75,-302 204.25,-302 204.25,-302 198.25,-302 192.25,-296 192.25,-290 192.25,-290 192.25,-197 192.25,-197 192.25,-191 198.25,-185 204.25,-185"/>
<text text-anchor="middle" x="322" y="-289.45" font-family="Helvetica,sans-Serif" font-weight="bold" font-size="9.00">valueObjects</text>
</g>
<g id="clust11" class="cluster">
<title>cluster_src/infrastructure</title>
<path fill="#ffffff" stroke="black" stroke-width="2" d="M28,-292C28,-292 153.25,-292 153.25,-292 159.25,-292 165.25,-298 165.25,-304 165.25,-304 165.25,-621 165.25,-621 165.25,-627 159.25,-633 153.25,-633 153.25,-633 28,-633 28,-633 22,-633 16,-627 16,-621 16,-621 16,-304 16,-304 16,-298 22,-292 28,-292"/>
<text text-anchor="middle" x="90.62" y="-620.45" font-family="Helvetica,sans-Serif" font-weight="bold" font-size="9.00">infrastructure</text>
</g>
<g id="clust14" class="cluster">
<title>cluster_src/infrastructure/services</title>
<path fill="#ffffff" stroke="black" stroke-width="2" d="M36,-300C36,-300 145.25,-300 145.25,-300 151.25,-300 157.25,-306 157.25,-312 157.25,-312 157.25,-343 157.25,-343 157.25,-349 151.25,-355 145.25,-355 145.25,-355 36,-355 36,-355 30,-355 24,-349 24,-343 24,-343 24,-312 24,-312 24,-306 30,-300 36,-300"/>
<text text-anchor="middle" x="90.62" y="-342.45" font-family="Helvetica,sans-Serif" font-weight="bold" font-size="9.00">services</text>
</g>
<g id="clust12" class="cluster">
<title>cluster_src/infrastructure/adapters</title>
<path fill="#ffffff" stroke="black" stroke-width="2" d="M38.25,-363C38.25,-363 143,-363 143,-363 149,-363 155,-369 155,-375 155,-375 155,-437 155,-437 155,-443 149,-449 143,-449 143,-449 38.25,-449 38.25,-449 32.25,-449 26.25,-443 26.25,-437 26.25,-437 26.25,-375 26.25,-375 26.25,-369 32.25,-363 38.25,-363"/>
<text text-anchor="middle" x="90.62" y="-436.45" font-family="Helvetica,sans-Serif" font-weight="bold" font-size="9.00">adapters</text>
</g>
<g id="clust13" class="cluster">
<title>cluster_src/infrastructure/repository</title>
<path fill="#ffffff" stroke="black" stroke-width="2" d="M40.88,-457C40.88,-457 140.38,-457 140.38,-457 146.38,-457 152.38,-463 152.38,-469 152.38,-469 152.38,-531 152.38,-531 152.38,-537 146.38,-543 140.38,-543 140.38,-543 40.88,-543 40.88,-543 34.88,-543 28.88,-537 28.88,-531 28.88,-531 28.88,-469 28.88,-469 28.88,-463 34.88,-457 40.88,-457"/>
<text text-anchor="middle" x="90.62" y="-530.45" font-family="Helvetica,sans-Serif" font-weight="bold" font-size="9.00">repository</text>
</g>
<g id="clust15" class="cluster">
<title>cluster_src/infrastructure/video</title>
<path fill="#ffffff" stroke="black" stroke-width="2" d="M48.75,-551C48.75,-551 132.5,-551 132.5,-551 138.5,-551 144.5,-557 144.5,-563 144.5,-563 144.5,-594 144.5,-594 144.5,-600 138.5,-606 132.5,-606 132.5,-606 48.75,-606 48.75,-606 42.75,-606 36.75,-600 36.75,-594 36.75,-594 36.75,-563 36.75,-563 36.75,-557 42.75,-551 48.75,-551"/>
<text text-anchor="middle" x="90.62" y="-593.45" font-family="Helvetica,sans-Serif" font-weight="bold" font-size="9.00">video</text>
</g>
<g id="clust16" class="cluster">
<title>cluster_src/presentation</title>
<path fill="#ffffff" stroke="black" stroke-width="2" d="M185.25,-16C185.25,-16 427.5,-16 427.5,-16 433.5,-16 439.5,-22 439.5,-28 439.5,-28 439.5,-157 439.5,-157 439.5,-163 433.5,-169 427.5,-169 427.5,-169 185.25,-169 185.25,-169 179.25,-169 173.25,-163 173.25,-157 173.25,-157 173.25,-28 173.25,-28 173.25,-22 179.25,-16 185.25,-16"/>
<text text-anchor="middle" x="306.38" y="-156.45" font-family="Helvetica,sans-Serif" font-weight="bold" font-size="9.00">presentation</text>
</g>
<g id="clust17" class="cluster">
<title>cluster_src/presentation/components</title>
<path fill="#ffffff" stroke="black" stroke-width="2" d="M193.25,-24C193.25,-24 419.5,-24 419.5,-24 425.5,-24 431.5,-30 431.5,-36 431.5,-36 431.5,-67 431.5,-67 431.5,-73 425.5,-79 419.5,-79 419.5,-79 193.25,-79 193.25,-79 187.25,-79 181.25,-73 181.25,-67 181.25,-67 181.25,-36 181.25,-36 181.25,-30 187.25,-24 193.25,-24"/>
<text text-anchor="middle" x="306.38" y="-66.45" font-family="Helvetica,sans-Serif" font-weight="bold" font-size="9.00">components</text>
</g>
<g id="clust18" class="cluster">
<title>cluster_src/presentation/stores</title>
<path fill="#ffffff" stroke="black" stroke-width="2" d="M194,-87C194,-87 260.5,-87 260.5,-87 266.5,-87 272.5,-93 272.5,-99 272.5,-99 272.5,-130 272.5,-130 272.5,-136 266.5,-142 260.5,-142 260.5,-142 194,-142 194,-142 188,-142 182,-136 182,-130 182,-130 182,-99 182,-99 182,-93 188,-87 194,-87"/>
<text text-anchor="middle" x="227.25" y="-129.45" font-family="Helvetica,sans-Serif" font-weight="bold" font-size="9.00">stores</text>
</g>
<!-- src/application/ports/IVideoParser.ts -->
<g id="node1" class="node">
<title>src/application/ports/IVideoParser.ts</title>
<g id="a_node1"><a xlink:href="src/application/ports/IVideoParser.ts" xlink:title="IVideoParser.ts">
<path fill="#ddfeff" stroke="black" d="M413.71,-779.62C413.71,-779.62 347.54,-779.62 347.54,-779.62 344.33,-779.62 341.12,-776.42 341.12,-773.21 341.12,-773.21 341.12,-766.79 341.12,-766.79 341.12,-763.58 344.33,-760.38 347.54,-760.38 347.54,-760.38 413.71,-760.38 413.71,-760.38 416.92,-760.38 420.12,-763.58 420.12,-766.79 420.12,-766.79 420.12,-773.21 420.12,-773.21 420.12,-776.42 416.92,-779.62 413.71,-779.62"/>
<text text-anchor="start" x="349.12" y="-767.08" font-family="Helvetica,sans-Serif" font-size="9.00">IVideoParser.ts</text>
</a>
</g>
</g>
<!-- src/domain/entities/index.ts -->
<g id="node2" class="node">
<title>src/domain/entities/index.ts</title>
<g id="a_node2"><a xlink:href="src/domain/entities/index.ts" xlink:title="index.ts">
<path fill="#ddfeff" stroke="black" d="M544.33,-462.62C544.33,-462.62 503.17,-462.62 503.17,-462.62 499.96,-462.62 496.75,-459.42 496.75,-456.21 496.75,-456.21 496.75,-449.79 496.75,-449.79 496.75,-446.58 499.96,-443.38 503.17,-443.38 503.17,-443.38 544.33,-443.38 544.33,-443.38 547.54,-443.38 550.75,-446.58 550.75,-449.79 550.75,-449.79 550.75,-456.21 550.75,-456.21 550.75,-459.42 547.54,-462.62 544.33,-462.62"/>
<text text-anchor="start" x="508" y="-450.07" font-family="Helvetica,sans-Serif" font-size="9.00">index.ts</text>
</a>
</g>
</g>
<!-- src/application/ports/IVideoParser.ts&#45;&gt;src/domain/entities/index.ts -->
<g id="edge1" class="edge">
<title>src/application/ports/IVideoParser.ts&#45;&gt;src/domain/entities/index.ts</title>
<path fill="none" stroke="#000000" stroke-opacity="0.200000" d="M420.42,-774.39C441.08,-774.48 465.34,-770.6 480.75,-755 520.81,-714.45 523.19,-528.38 522.94,-470.34"/>
<polygon fill="none" stroke="#000000" stroke-opacity="0.200000" points="525.04,-470.53 522.9,-464.54 520.84,-470.56 525.04,-470.53"/>
</g>
<!-- src/domain/entities/MetadataEntity.ts -->
<g id="node9" class="node">
<title>src/domain/entities/MetadataEntity.ts</title>
<g id="a_node9"><a xlink:href="src/domain/entities/MetadataEntity.ts" xlink:title="MetadataEntity.ts">
<path fill="#ddfeff" stroke="black" d="M842.83,-425.62C842.83,-425.62 770.67,-425.62 770.67,-425.62 767.46,-425.62 764.25,-422.42 764.25,-419.21 764.25,-419.21 764.25,-412.79 764.25,-412.79 764.25,-409.58 767.46,-406.38 770.67,-406.38 770.67,-406.38 842.83,-406.38 842.83,-406.38 846.04,-406.38 849.25,-409.58 849.25,-412.79 849.25,-412.79 849.25,-419.21 849.25,-419.21 849.25,-422.42 846.04,-425.62 842.83,-425.62"/>
<text text-anchor="start" x="772.25" y="-413.07" font-family="Helvetica,sans-Serif" font-size="9.00">MetadataEntity.ts</text>
</a>
</g>
</g>
<!-- src/domain/entities/index.ts&#45;&gt;src/domain/entities/MetadataEntity.ts -->
<g id="edge10" class="edge">
<title>src/domain/entities/index.ts&#45;&gt;src/domain/entities/MetadataEntity.ts</title>
<path fill="none" stroke="#000000" stroke-opacity="0.200000" d="M530.09,-443.09C536.49,-432.39 548.3,-415.95 563.75,-409 628.78,-379.74 713.9,-392.34 763.93,-404.16"/>
<polygon fill="none" stroke="#000000" stroke-opacity="0.200000" points="763.25,-406.16 769.57,-405.54 764.24,-402.08 763.25,-406.16"/>
</g>
<!-- src/domain/entities/ParsedVideo.ts -->
<g id="node10" class="node">
<title>src/domain/entities/ParsedVideo.ts</title>
<g id="a_node10"><a xlink:href="src/domain/entities/ParsedVideo.ts" xlink:title="ParsedVideo.ts">
<path fill="#ddfeff" stroke="black" d="M636.33,-434.62C636.33,-434.62 570.17,-434.62 570.17,-434.62 566.96,-434.62 563.75,-431.42 563.75,-428.21 563.75,-428.21 563.75,-421.79 563.75,-421.79 563.75,-418.58 566.96,-415.38 570.17,-415.38 570.17,-415.38 636.33,-415.38 636.33,-415.38 639.54,-415.38 642.75,-418.58 642.75,-421.79 642.75,-421.79 642.75,-428.21 642.75,-428.21 642.75,-431.42 639.54,-434.62 636.33,-434.62"/>
<text text-anchor="start" x="571.75" y="-422.07" font-family="Helvetica,sans-Serif" font-size="9.00">ParsedVideo.ts</text>
</a>
</g>
</g>
<!-- src/domain/entities/index.ts&#45;&gt;src/domain/entities/ParsedVideo.ts -->
<g id="edge11" class="edge">
<title>src/domain/entities/index.ts&#45;&gt;src/domain/entities/ParsedVideo.ts</title>
<path fill="none" stroke="#000000" stroke-opacity="0.200000" d="M550.99,-443.52C556.3,-441.6 561.96,-439.56 567.51,-437.55"/>
<polygon fill="none" stroke="#000000" stroke-opacity="0.200000" points="568.1,-439.57 573.03,-435.56 566.67,-435.62 568.1,-439.57"/>
</g>
<!-- src/domain/entities/VideoStorageDto.ts -->
<g id="node11" class="node">
<title>src/domain/entities/VideoStorageDto.ts</title>
<g id="a_node11"><a xlink:href="src/domain/entities/VideoStorageDto.ts" xlink:title="VideoStorageDto.ts">
<path fill="#ddfeff" stroke="black" d="M744.83,-441.62C744.83,-441.62 662.17,-441.62 662.17,-441.62 658.96,-441.62 655.75,-438.42 655.75,-435.21 655.75,-435.21 655.75,-428.79 655.75,-428.79 655.75,-425.58 658.96,-422.38 662.17,-422.38 662.17,-422.38 744.83,-422.38 744.83,-422.38 748.04,-422.38 751.25,-425.58 751.25,-428.79 751.25,-428.79 751.25,-435.21 751.25,-435.21 751.25,-438.42 748.04,-441.62 744.83,-441.62"/>
<text text-anchor="start" x="663.75" y="-429.07" font-family="Helvetica,sans-Serif" font-size="9.00">VideoStorageDto.ts</text>
</a>
</g>
</g>
<!-- src/domain/entities/index.ts&#45;&gt;src/domain/entities/VideoStorageDto.ts -->
<g id="edge13" class="edge">
<title>src/domain/entities/index.ts&#45;&gt;src/domain/entities/VideoStorageDto.ts</title>
<path fill="none" stroke="#000000" stroke-opacity="0.200000" d="M551.04,-450.69C574.98,-448.5 611.29,-444.97 642.75,-441 644.57,-440.77 646.42,-440.53 648.29,-440.28"/>
<polygon fill="none" stroke="#000000" stroke-opacity="0.200000" points="648.4,-442.39 654.06,-439.49 647.83,-438.22 648.4,-442.39"/>
</g>
<!-- src/domain/entities/VideoEntity.ts -->
<g id="node12" class="node">
<title>src/domain/entities/VideoEntity.ts</title>
<g id="a_node12"><a xlink:href="src/domain/entities/VideoEntity.ts" xlink:title="VideoEntity.ts">
<path fill="#ddfeff" stroke="black" d="M835.71,-459.62C835.71,-459.62 777.79,-459.62 777.79,-459.62 774.58,-459.62 771.38,-456.42 771.38,-453.21 771.38,-453.21 771.38,-446.79 771.38,-446.79 771.38,-443.58 774.58,-440.38 777.79,-440.38 777.79,-440.38 835.71,-440.38 835.71,-440.38 838.92,-440.38 842.12,-443.58 842.12,-446.79 842.12,-446.79 842.12,-453.21 842.12,-453.21 842.12,-456.42 838.92,-459.62 835.71,-459.62"/>
<text text-anchor="start" x="779.38" y="-447.07" font-family="Helvetica,sans-Serif" font-size="9.00">VideoEntity.ts</text>
</a>
</g>
</g>
<!-- src/domain/entities/index.ts&#45;&gt;src/domain/entities/VideoEntity.ts -->
<g id="edge12" class="edge">
<title>src/domain/entities/index.ts&#45;&gt;src/domain/entities/VideoEntity.ts</title>
<path fill="none" stroke="#000000" stroke-opacity="0.200000" d="M551.19,-452.72C600.06,-452.2 704.89,-451.08 763.64,-450.45"/>
<polygon fill="none" stroke="#000000" stroke-opacity="0.200000" points="763.43,-452.55 769.4,-450.39 763.38,-448.35 763.43,-452.55"/>
</g>
<!-- src/application/ports/IVideoStorage.ts -->
<g id="node3" class="node">
<title>src/application/ports/IVideoStorage.ts</title>
<g id="a_node3"><a xlink:href="src/application/ports/IVideoStorage.ts" xlink:title="IVideoStorage.ts">
<path fill="#ddfeff" stroke="black" d="M415.96,-748.62C415.96,-748.62 345.29,-748.62 345.29,-748.62 342.08,-748.62 338.88,-745.42 338.88,-742.21 338.88,-742.21 338.88,-735.79 338.88,-735.79 338.88,-732.58 342.08,-729.38 345.29,-729.38 345.29,-729.38 415.96,-729.38 415.96,-729.38 419.17,-729.38 422.38,-732.58 422.38,-735.79 422.38,-735.79 422.38,-742.21 422.38,-742.21 422.38,-745.42 419.17,-748.62 415.96,-748.62"/>
<text text-anchor="start" x="346.88" y="-736.08" font-family="Helvetica,sans-Serif" font-size="9.00">IVideoStorage.ts</text>
</a>
</g>
</g>
<!-- src/application/ports/IVideoStorage.ts&#45;&gt;src/domain/entities/index.ts -->
<g id="edge2" class="edge">
<title>src/application/ports/IVideoStorage.ts&#45;&gt;src/domain/entities/index.ts</title>
<path fill="none" stroke="#000000" stroke-opacity="0.200000" d="M422.59,-739.65C442.85,-737.72 466.05,-731.76 480.75,-716 514.2,-680.14 521.05,-523.15 522.42,-470.38"/>
<polygon fill="none" stroke="#000000" stroke-opacity="0.200000" points="524.51,-470.67 522.55,-464.62 520.31,-470.57 524.51,-470.67"/>
</g>
<!-- src/application/services/FileParserService.ts -->
<g id="node4" class="node">
<title>src/application/services/FileParserService.ts</title>
<g id="a_node4"><a xlink:href="src/application/services/FileParserService.ts" xlink:title="FileParserService.ts">
<path fill="#ddfeff" stroke="black" d="M423.46,-685.62C423.46,-685.62 337.79,-685.62 337.79,-685.62 334.58,-685.62 331.38,-682.42 331.38,-679.21 331.38,-679.21 331.38,-672.79 331.38,-672.79 331.38,-669.58 334.58,-666.38 337.79,-666.38 337.79,-666.38 423.46,-666.38 423.46,-666.38 426.67,-666.38 429.88,-669.58 429.88,-672.79 429.88,-672.79 429.88,-679.21 429.88,-679.21 429.88,-682.42 426.67,-685.62 423.46,-685.62"/>
<text text-anchor="start" x="339.38" y="-673.08" font-family="Helvetica,sans-Serif" font-size="9.00">FileParserService.ts</text>
</a>
</g>
</g>
<!-- src/application/services/FileParserService.ts&#45;&gt;src/domain/entities/index.ts -->
<g id="edge3" class="edge">
<title>src/application/services/FileParserService.ts&#45;&gt;src/domain/entities/index.ts</title>
<path fill="none" stroke="#000000" stroke-opacity="0.200000" d="M430.33,-679.67C448.28,-678.44 467.45,-673.66 480.75,-661 508.31,-634.76 518.74,-515.41 521.74,-470.32"/>
<polygon fill="none" stroke="#000000" stroke-opacity="0.200000" points="523.82,-470.67 522.11,-464.55 519.63,-470.4 523.82,-470.67"/>
</g>
<!-- src/application/services/FiltersService.ts -->
<g id="node5" class="node">
<title>src/application/services/FiltersService.ts</title>
<g id="a_node5"><a xlink:href="src/application/services/FiltersService.ts" xlink:title="FiltersService.ts">
<path fill="#ddfeff" stroke="black" d="M414.83,-654.62C414.83,-654.62 346.42,-654.62 346.42,-654.62 343.21,-654.62 340,-651.42 340,-648.21 340,-648.21 340,-641.79 340,-641.79 340,-638.58 343.21,-635.38 346.42,-635.38 346.42,-635.38 414.83,-635.38 414.83,-635.38 418.04,-635.38 421.25,-638.58 421.25,-641.79 421.25,-641.79 421.25,-648.21 421.25,-648.21 421.25,-651.42 418.04,-654.62 414.83,-654.62"/>
<text text-anchor="start" x="348" y="-642.08" font-family="Helvetica,sans-Serif" font-size="9.00">FiltersService.ts</text>
</a>
</g>
</g>
<!-- src/application/services/FiltersService.ts&#45;&gt;src/domain/entities/index.ts -->
<g id="edge4" class="edge">
<title>src/application/services/FiltersService.ts&#45;&gt;src/domain/entities/index.ts</title>
<path fill="none" stroke="#000000" stroke-opacity="0.200000" d="M421.55,-645.17C441.78,-643.15 465.27,-637.24 480.75,-622 502.37,-600.71 515.91,-508.91 520.75,-470.26"/>
<polygon fill="none" stroke="#000000" stroke-opacity="0.200000" points="522.82,-470.57 521.46,-464.36 518.65,-470.07 522.82,-470.57"/>
</g>
<!-- src/application/usecases/AddVideosFromFilesUseCase.ts -->
<g id="node6" class="node">
<title>src/application/usecases/AddVideosFromFilesUseCase.ts</title>
<g id="a_node6"><a xlink:href="src/application/usecases/AddVideosFromFilesUseCase.ts" xlink:title="AddVideosFromFilesUseCase.ts">
<path fill="#ddfeff" stroke="black" d="M450.08,-591.62C450.08,-591.62 311.17,-591.62 311.17,-591.62 307.96,-591.62 304.75,-588.42 304.75,-585.21 304.75,-585.21 304.75,-578.79 304.75,-578.79 304.75,-575.58 307.96,-572.38 311.17,-572.38 311.17,-572.38 450.08,-572.38 450.08,-572.38 453.29,-572.38 456.5,-575.58 456.5,-578.79 456.5,-578.79 456.5,-585.21 456.5,-585.21 456.5,-588.42 453.29,-591.62 450.08,-591.62"/>
<text text-anchor="start" x="312.75" y="-579.08" font-family="Helvetica,sans-Serif" font-size="9.00">AddVideosFromFilesUseCase.ts</text>
</a>
</g>
</g>
<!-- src/application/usecases/AddVideosFromFilesUseCase.ts&#45;&gt;src/domain/entities/index.ts -->
<g id="edge5" class="edge">
<title>src/application/usecases/AddVideosFromFilesUseCase.ts&#45;&gt;src/domain/entities/index.ts</title>
<path fill="none" stroke="#000000" stroke-opacity="0.200000" d="M456.78,-579.5C465.48,-576.73 473.74,-572.72 480.75,-567 510.4,-542.83 519.12,-495.68 521.68,-470.25"/>
<polygon fill="none" stroke="#000000" stroke-opacity="0.200000" points="523.77,-470.48 522.19,-464.32 519.59,-470.12 523.77,-470.48"/>
</g>
<!-- src/application/usecases/UpdateVideoThumbnailsUseCase.ts -->
<g id="node7" class="node">
<title>src/application/usecases/UpdateVideoThumbnailsUseCase.ts</title>
<g id="a_node7"><a xlink:href="src/application/usecases/UpdateVideoThumbnailsUseCase.ts" xlink:title="UpdateVideoThumbnailsUseCase.ts">
<path fill="#ddfeff" stroke="black" d="M458.33,-560.62C458.33,-560.62 302.92,-560.62 302.92,-560.62 299.71,-560.62 296.5,-557.42 296.5,-554.21 296.5,-554.21 296.5,-547.79 296.5,-547.79 296.5,-544.58 299.71,-541.38 302.92,-541.38 302.92,-541.38 458.33,-541.38 458.33,-541.38 461.54,-541.38 464.75,-544.58 464.75,-547.79 464.75,-547.79 464.75,-554.21 464.75,-554.21 464.75,-557.42 461.54,-560.62 458.33,-560.62"/>
<text text-anchor="start" x="304.5" y="-548.08" font-family="Helvetica,sans-Serif" font-size="9.00">UpdateVideoThumbnailsUseCase.ts</text>
</a>
</g>
</g>
<!-- src/application/usecases/UpdateVideoThumbnailsUseCase.ts&#45;&gt;src/domain/entities/index.ts -->
<g id="edge6" class="edge">
<title>src/application/usecases/UpdateVideoThumbnailsUseCase.ts&#45;&gt;src/domain/entities/index.ts</title>
<path fill="none" stroke="#000000" stroke-opacity="0.200000" d="M437.69,-540.91C452.72,-536.31 468.26,-529.64 480.75,-520 497.75,-506.89 509.66,-484.79 516.35,-469.58"/>
<polygon fill="none" stroke="#000000" stroke-opacity="0.200000" points="518.25,-470.48 518.63,-464.13 514.37,-468.85 518.25,-470.48"/>
</g>
<!-- src/domain/constants/index.ts -->
<g id="node8" class="node">
<title>src/domain/constants/index.ts</title>
<g id="a_node8"><a xlink:href="src/domain/constants/index.ts" xlink:title="index.ts">
<path fill="#ddfeff" stroke="black" d="M247.83,-462.62C247.83,-462.62 206.67,-462.62 206.67,-462.62 203.46,-462.62 200.25,-459.42 200.25,-456.21 200.25,-456.21 200.25,-449.79 200.25,-449.79 200.25,-446.58 203.46,-443.38 206.67,-443.38 206.67,-443.38 247.83,-443.38 247.83,-443.38 251.04,-443.38 254.25,-446.58 254.25,-449.79 254.25,-449.79 254.25,-456.21 254.25,-456.21 254.25,-459.42 251.04,-462.62 247.83,-462.62"/>
<text text-anchor="start" x="211.5" y="-450.07" font-family="Helvetica,sans-Serif" font-size="9.00">index.ts</text>
</a>
</g>
</g>
<!-- src/domain/entities/ParsedVideo.ts&#45;&gt;src/domain/entities/VideoStorageDto.ts -->
<g id="edge7" class="edge">
<title>src/domain/entities/ParsedVideo.ts&#45;&gt;src/domain/entities/VideoStorageDto.ts</title>
<path fill="none" stroke="#000000" stroke-opacity="0.200000" d="M643.08,-427.77C644.74,-427.88 646.41,-428 648.09,-428.12"/>
<polygon fill="none" stroke="#000000" stroke-opacity="0.200000" points="647.84,-430.21 653.98,-428.54 648.14,-426.02 647.84,-430.21"/>
</g>
<!-- src/domain/entities/VideoStorageDto.ts&#45;&gt;src/domain/entities/MetadataEntity.ts -->
<g id="edge8" class="edge">
<title>src/domain/entities/VideoStorageDto.ts&#45;&gt;src/domain/entities/MetadataEntity.ts</title>
<path fill="none" stroke="#000000" stroke-opacity="0.200000" d="M751.57,-424.56C753.25,-424.3 754.93,-424.03 756.61,-423.77"/>
<polygon fill="none" stroke="#000000" stroke-opacity="0.200000" points="756.85,-425.85 762.45,-422.84 756.2,-421.7 756.85,-425.85"/>
</g>
<!-- src/domain/entities/VideoStorageDto.ts&#45;&gt;src/domain/entities/VideoEntity.ts -->
<g id="edge9" class="edge">
<title>src/domain/entities/VideoStorageDto.ts&#45;&gt;src/domain/entities/VideoEntity.ts</title>
<path fill="none" stroke="#000000" stroke-opacity="0.200000" d="M751.57,-440.37C755.63,-441.09 759.73,-441.82 763.76,-442.53"/>
<polygon fill="none" stroke="#000000" stroke-opacity="0.200000" points="763.13,-444.56 769.4,-443.54 763.86,-440.42 763.13,-444.56"/>
</g>
<!-- src/domain/repositories/IMetadataRepository.ts -->
<g id="node13" class="node">
<title>src/domain/repositories/IMetadataRepository.ts</title>
<g id="a_node13"><a xlink:href="src/domain/repositories/IMetadataRepository.ts" xlink:title="IMetadataRepository.ts">
<path fill="#ddfeff" stroke="black" d="M429.08,-337.62C429.08,-337.62 332.17,-337.62 332.17,-337.62 328.96,-337.62 325.75,-334.42 325.75,-331.21 325.75,-331.21 325.75,-324.79 325.75,-324.79 325.75,-321.58 328.96,-318.38 332.17,-318.38 332.17,-318.38 429.08,-318.38 429.08,-318.38 432.29,-318.38 435.5,-321.58 435.5,-324.79 435.5,-324.79 435.5,-331.21 435.5,-331.21 435.5,-334.42 432.29,-337.62 429.08,-337.62"/>
<text text-anchor="start" x="333.75" y="-325.07" font-family="Helvetica,sans-Serif" font-size="9.00">IMetadataRepository.ts</text>
</a>
</g>
</g>
<!-- src/domain/repositories/IMetadataRepository.ts&#45;&gt;src/domain/entities/index.ts -->
<g id="edge14" class="edge">
<title>src/domain/repositories/IMetadataRepository.ts&#45;&gt;src/domain/entities/index.ts</title>
<path fill="none" stroke="#000000" stroke-opacity="0.200000" d="M435.94,-326.18C451.79,-328.14 468.21,-332.9 480.75,-343 509.48,-366.14 518.58,-411.32 521.44,-435.97"/>
<polygon fill="none" stroke="#000000" stroke-opacity="0.200000" points="519.33,-435.93 522.02,-441.69 523.51,-435.51 519.33,-435.93"/>
</g>
<!-- src/domain/repositories/IVideoFacade.ts -->
<g id="node14" class="node">
<title>src/domain/repositories/IVideoFacade.ts</title>
<g id="a_node14"><a xlink:href="src/domain/repositories/IVideoFacade.ts" xlink:title="IVideoFacade.ts">
<path fill="#ddfeff" stroke="black" d="M415.21,-368.62C415.21,-368.62 346.04,-368.62 346.04,-368.62 342.83,-368.62 339.62,-365.42 339.62,-362.21 339.62,-362.21 339.62,-355.79 339.62,-355.79 339.62,-352.58 342.83,-349.38 346.04,-349.38 346.04,-349.38 415.21,-349.38 415.21,-349.38 418.42,-349.38 421.62,-352.58 421.62,-355.79 421.62,-355.79 421.62,-362.21 421.62,-362.21 421.62,-365.42 418.42,-368.62 415.21,-368.62"/>
<text text-anchor="start" x="347.62" y="-356.07" font-family="Helvetica,sans-Serif" font-size="9.00">IVideoFacade.ts</text>
</a>
</g>
</g>
<!-- src/domain/repositories/IVideoFacade.ts&#45;&gt;src/domain/entities/index.ts -->
<g id="edge15" class="edge">
<title>src/domain/repositories/IVideoFacade.ts&#45;&gt;src/domain/entities/index.ts</title>
<path fill="none" stroke="#000000" stroke-opacity="0.200000" d="M421.88,-357.01C441.24,-357.95 463.85,-362.03 480.75,-374 501.71,-388.85 513.12,-417.48 518.57,-435.89"/>
<polygon fill="none" stroke="#000000" stroke-opacity="0.200000" points="516.53,-436.4 520.15,-441.63 520.58,-435.28 516.53,-436.4"/>
</g>
<!-- src/domain/repositories/IVideoRepository.ts -->
<g id="node15" class="node">
<title>src/domain/repositories/IVideoRepository.ts</title>
<g id="a_node15"><a xlink:href="src/domain/repositories/IVideoRepository.ts" xlink:title="IVideoRepository.ts">
<path fill="#ddfeff" stroke="black" d="M421.96,-399.62C421.96,-399.62 339.29,-399.62 339.29,-399.62 336.08,-399.62 332.88,-396.42 332.88,-393.21 332.88,-393.21 332.88,-386.79 332.88,-386.79 332.88,-383.58 336.08,-380.38 339.29,-380.38 339.29,-380.38 421.96,-380.38 421.96,-380.38 425.17,-380.38 428.38,-383.58 428.38,-386.79 428.38,-386.79 428.38,-393.21 428.38,-393.21 428.38,-396.42 425.17,-399.62 421.96,-399.62"/>
<text text-anchor="start" x="340.88" y="-387.07" font-family="Helvetica,sans-Serif" font-size="9.00">IVideoRepository.ts</text>
</a>
</g>
</g>
<!-- src/domain/repositories/IVideoRepository.ts&#45;&gt;src/domain/entities/index.ts -->
<g id="edge16" class="edge">
<title>src/domain/repositories/IVideoRepository.ts&#45;&gt;src/domain/entities/index.ts</title>
<path fill="none" stroke="#000000" stroke-opacity="0.200000" d="M404.3,-400.12C428.47,-410.91 466.85,-428.05 493.33,-439.87"/>
<polygon fill="none" stroke="#000000" stroke-opacity="0.200000" points="492.42,-441.76 498.75,-442.29 494.13,-437.92 492.42,-441.76"/>
</g>
<!-- src/domain/repositories/index.ts -->
<g id="node16" class="node">
<title>src/domain/repositories/index.ts</title>
<g id="a_node16"><a xlink:href="src/domain/repositories/index.ts" xlink:title="index.ts">
<path fill="#ddfeff" stroke="black" d="M247.83,-383.62C247.83,-383.62 206.67,-383.62 206.67,-383.62 203.46,-383.62 200.25,-380.42 200.25,-377.21 200.25,-377.21 200.25,-370.79 200.25,-370.79 200.25,-367.58 203.46,-364.38 206.67,-364.38 206.67,-364.38 247.83,-364.38 247.83,-364.38 251.04,-364.38 254.25,-367.58 254.25,-370.79 254.25,-370.79 254.25,-377.21 254.25,-377.21 254.25,-380.42 251.04,-383.62 247.83,-383.62"/>
<text text-anchor="start" x="211.5" y="-371.07" font-family="Helvetica,sans-Serif" font-size="9.00">index.ts</text>
</a>
</g>
</g>
<!-- src/domain/repositories/index.ts&#45;&gt;src/domain/repositories/IMetadataRepository.ts -->
<g id="edge17" class="edge">
<title>src/domain/repositories/index.ts&#45;&gt;src/domain/repositories/IMetadataRepository.ts</title>
<path fill="none" stroke="#000000" stroke-opacity="0.200000" d="M241.71,-364.03C251.86,-357.02 266.39,-348.03 280.5,-343 292.35,-338.77 305.42,-335.73 318.07,-333.55"/>
<polygon fill="none" stroke="#000000" stroke-opacity="0.200000" points="318.37,-335.63 323.96,-332.6 317.7,-331.48 318.37,-335.63"/>
</g>
<!-- src/domain/repositories/index.ts&#45;&gt;src/domain/repositories/IVideoFacade.ts -->
<g id="edge18" class="edge">
<title>src/domain/repositories/index.ts&#45;&gt;src/domain/repositories/IVideoFacade.ts</title>
<path fill="none" stroke="#000000" stroke-opacity="0.200000" d="M254.62,-371.39C275.9,-369.28 306.39,-366.26 331.93,-363.73"/>
<polygon fill="none" stroke="#000000" stroke-opacity="0.200000" points="332.06,-365.82 337.83,-363.14 331.65,-361.64 332.06,-365.82"/>
</g>
<!-- src/domain/repositories/index.ts&#45;&gt;src/domain/repositories/IVideoRepository.ts -->
<g id="edge19" class="edge">
<title>src/domain/repositories/index.ts&#45;&gt;src/domain/repositories/IVideoRepository.ts</title>
<path fill="none" stroke="#000000" stroke-opacity="0.200000" d="M254.62,-376.79C274.04,-378.84 301.14,-381.7 325.14,-384.24"/>
<polygon fill="none" stroke="#000000" stroke-opacity="0.200000" points="324.78,-386.31 330.97,-384.86 325.22,-382.14 324.78,-386.31"/>
</g>
<!-- src/domain/valueObjects/ParsedVideoData.ts -->
<g id="node17" class="node">
<title>src/domain/valueObjects/ParsedVideoData.ts</title>
<g id="a_node17"><a xlink:href="src/domain/valueObjects/ParsedVideoData.ts" xlink:title="ParsedVideoData.ts">
<path fill="#ddfeff" stroke="black" d="M423.46,-212.62C423.46,-212.62 337.79,-212.62 337.79,-212.62 334.58,-212.62 331.38,-209.42 331.38,-206.21 331.38,-206.21 331.38,-199.79 331.38,-199.79 331.38,-196.58 334.58,-193.38 337.79,-193.38 337.79,-193.38 423.46,-193.38 423.46,-193.38 426.67,-193.38 429.88,-196.58 429.88,-199.79 429.88,-199.79 429.88,-206.21 429.88,-206.21 429.88,-209.42 426.67,-212.62 423.46,-212.62"/>
<text text-anchor="start" x="339.38" y="-200.07" font-family="Helvetica,sans-Serif" font-size="9.00">ParsedVideoData.ts</text>
</a>
</g>
</g>
<!-- src/domain/valueObjects/Thumbs.ts -->
<g id="node18" class="node">
<title>src/domain/valueObjects/Thumbs.ts</title>
<g id="a_node18"><a xlink:href="src/domain/valueObjects/Thumbs.ts" xlink:title="Thumbs.ts">
<path fill="#ddfeff" stroke="black" d="M404.33,-243.62C404.33,-243.62 356.92,-243.62 356.92,-243.62 353.71,-243.62 350.5,-240.42 350.5,-237.21 350.5,-237.21 350.5,-230.79 350.5,-230.79 350.5,-227.58 353.71,-224.38 356.92,-224.38 356.92,-224.38 404.33,-224.38 404.33,-224.38 407.54,-224.38 410.75,-227.58 410.75,-230.79 410.75,-230.79 410.75,-237.21 410.75,-237.21 410.75,-240.42 407.54,-243.62 404.33,-243.62"/>
<text text-anchor="start" x="358.5" y="-231.07" font-family="Helvetica,sans-Serif" font-size="9.00">Thumbs.ts</text>
</a>
</g>
</g>
<!-- src/domain/valueObjects/VideoStorageDtoMapper.ts -->
<g id="node19" class="node">
<title>src/domain/valueObjects/VideoStorageDtoMapper.ts</title>
<g id="a_node19"><a xlink:href="src/domain/valueObjects/VideoStorageDtoMapper.ts" xlink:title="VideoStorageDtoMapper.ts">
<path fill="#ddfeff" stroke="black" d="M437.33,-274.62C437.33,-274.62 323.92,-274.62 323.92,-274.62 320.71,-274.62 317.5,-271.42 317.5,-268.21 317.5,-268.21 317.5,-261.79 317.5,-261.79 317.5,-258.58 320.71,-255.38 323.92,-255.38 323.92,-255.38 437.33,-255.38 437.33,-255.38 440.54,-255.38 443.75,-258.58 443.75,-261.79 443.75,-261.79 443.75,-268.21 443.75,-268.21 443.75,-271.42 440.54,-274.62 437.33,-274.62"/>
<text text-anchor="start" x="325.5" y="-262.07" font-family="Helvetica,sans-Serif" font-size="9.00">VideoStorageDtoMapper.ts</text>
</a>
</g>
</g>
<!-- src/domain/valueObjects/VideoStorageDtoMapper.ts&#45;&gt;src/domain/entities/index.ts -->
<g id="edge20" class="edge">
<title>src/domain/valueObjects/VideoStorageDtoMapper.ts&#45;&gt;src/domain/entities/index.ts</title>
<path fill="none" stroke="#000000" stroke-opacity="0.200000" d="M427.25,-275.05C446.16,-281.34 466.87,-291.33 480.75,-307 513.83,-344.33 520.95,-406.17 522.42,-435.95"/>
<polygon fill="none" stroke="#000000" stroke-opacity="0.200000" points="520.31,-435.69 522.64,-441.61 524.51,-435.53 520.31,-435.69"/>
</g>
<!-- src/domain/valueObjects/index.ts -->
<g id="node20" class="node">
<title>src/domain/valueObjects/index.ts</title>
<g id="a_node20"><a xlink:href="src/domain/valueObjects/index.ts" xlink:title="index.ts">
<path fill="#ddfeff" stroke="black" d="M247.83,-274.62C247.83,-274.62 206.67,-274.62 206.67,-274.62 203.46,-274.62 200.25,-271.42 200.25,-268.21 200.25,-268.21 200.25,-261.79 200.25,-261.79 200.25,-258.58 203.46,-255.38 206.67,-255.38 206.67,-255.38 247.83,-255.38 247.83,-255.38 251.04,-255.38 254.25,-258.58 254.25,-261.79 254.25,-261.79 254.25,-268.21 254.25,-268.21 254.25,-271.42 251.04,-274.62 247.83,-274.62"/>
<text text-anchor="start" x="211.5" y="-262.07" font-family="Helvetica,sans-Serif" font-size="9.00">index.ts</text>
</a>
</g>
</g>
<!-- src/domain/valueObjects/index.ts&#45;&gt;src/domain/valueObjects/ParsedVideoData.ts -->
<g id="edge21" class="edge">
<title>src/domain/valueObjects/index.ts&#45;&gt;src/domain/valueObjects/ParsedVideoData.ts</title>
<path fill="none" stroke="#000000" stroke-width="2" stroke-opacity="0.200000" d="M235.96,-255.26C245.26,-244.26 261.97,-226.76 331.09,-204.7"/>
<polygon fill="#000000" fill-opacity="0.200000" stroke="#000000" stroke-width="2" stroke-opacity="0.200000" points="333.89,-203.31 337.79,-211.41 329.69,-207.51 333.89,-203.31"/>
</g>
<!-- src/domain/valueObjects/index.ts&#45;&gt;src/domain/valueObjects/Thumbs.ts -->
<g id="edge22" class="edge">
<title>src/domain/valueObjects/index.ts&#45;&gt;src/domain/valueObjects/Thumbs.ts</title>
<path fill="none" stroke="#000000" stroke-opacity="0.200000" d="M254.63,-256.1C262.85,-253.55 271.99,-250.94 280.5,-249 301.03,-244.33 324.28,-240.73 343.11,-238.22"/>
<polygon fill="none" stroke="#000000" stroke-opacity="0.200000" points="343.17,-240.33 348.85,-237.48 342.63,-236.16 343.17,-240.33"/>
</g>
<!-- src/domain/valueObjects/index.ts&#45;&gt;src/domain/valueObjects/VideoStorageDtoMapper.ts -->
<g id="edge23" class="edge">
<title>src/domain/valueObjects/index.ts&#45;&gt;src/domain/valueObjects/VideoStorageDtoMapper.ts</title>
<path fill="none" stroke="#000000" stroke-width="2" stroke-opacity="0.200000" d="M254.62,-265C271.9,-265 295.25,-265 317.1,-265"/>
<polygon fill="#000000" fill-opacity="0.200000" stroke="#000000" stroke-width="2" stroke-opacity="0.200000" points="319.91,-263.61 323.81,-271.71 315.71,-267.81 319.91,-263.61"/>
</g>
<!-- src/infrastructure/adapters/VideoParserAdapter.ts -->
<g id="node21" class="node">
<title>src/infrastructure/adapters/VideoParserAdapter.ts</title>
<g id="a_node21"><a xlink:href="src/infrastructure/adapters/VideoParserAdapter.ts" xlink:title="VideoParserAdapter.ts">
<path fill="#ddfeff" stroke="black" d="M138.33,-390.62C138.33,-390.62 42.92,-390.62 42.92,-390.62 39.71,-390.62 36.5,-387.42 36.5,-384.21 36.5,-384.21 36.5,-377.79 36.5,-377.79 36.5,-374.58 39.71,-371.38 42.92,-371.38 42.92,-371.38 138.33,-371.38 138.33,-371.38 141.54,-371.38 144.75,-374.58 144.75,-377.79 144.75,-377.79 144.75,-384.21 144.75,-384.21 144.75,-387.42 141.54,-390.62 138.33,-390.62"/>
<text text-anchor="start" x="44.5" y="-378.07" font-family="Helvetica,sans-Serif" font-size="9.00">VideoParserAdapter.ts</text>
</a>
</g>
</g>
<!-- src/infrastructure/adapters/VideoParserAdapter.ts&#45;&gt;src/domain/entities/index.ts -->
<g id="edge24" class="edge">
<title>src/infrastructure/adapters/VideoParserAdapter.ts&#45;&gt;src/domain/entities/index.ts</title>
<path fill="none" stroke="#000000" stroke-opacity="0.200000" d="M145.18,-383.33C152.83,-385.92 159.9,-389.93 165.25,-396 181.01,-413.89 155.77,-486.78 173.25,-503 189.42,-518 255.37,-516.9 272.5,-503 285.9,-492.13 267.37,-476.2 280.5,-465 296.01,-451.77 426.64,-451.69 489.38,-452.43"/>
<polygon fill="none" stroke="#000000" stroke-opacity="0.200000" points="489.14,-454.53 495.17,-452.51 489.19,-450.33 489.14,-454.53"/>
</g>
<!-- src/infrastructure/adapters/VideoStorageAdapter.ts -->
<g id="node22" class="node">
<title>src/infrastructure/adapters/VideoStorageAdapter.ts</title>
<g id="a_node22"><a xlink:href="src/infrastructure/adapters/VideoStorageAdapter.ts" xlink:title="VideoStorageAdapter.ts">
<path fill="#ddfeff" stroke="black" d="M140.58,-421.62C140.58,-421.62 40.67,-421.62 40.67,-421.62 37.46,-421.62 34.25,-418.42 34.25,-415.21 34.25,-415.21 34.25,-408.79 34.25,-408.79 34.25,-405.58 37.46,-402.38 40.67,-402.38 40.67,-402.38 140.58,-402.38 140.58,-402.38 143.79,-402.38 147,-405.58 147,-408.79 147,-408.79 147,-415.21 147,-415.21 147,-418.42 143.79,-421.62 140.58,-421.62"/>
<text text-anchor="start" x="42.25" y="-409.07" font-family="Helvetica,sans-Serif" font-size="9.00">VideoStorageAdapter.ts</text>
</a>
</g>
</g>
<!-- src/infrastructure/adapters/VideoStorageAdapter.ts&#45;&gt;src/domain/entities/index.ts -->
<g id="edge25" class="edge">
<title>src/infrastructure/adapters/VideoStorageAdapter.ts&#45;&gt;src/domain/entities/index.ts</title>
<path fill="none" stroke="#000000" stroke-opacity="0.200000" d="M122.45,-422.05C137.8,-428.67 155.19,-438.95 165.25,-454 173.09,-465.73 162.66,-507.67 173.25,-517 189.8,-531.58 255.37,-530.9 272.5,-517 285.9,-506.13 267.51,-490.37 280.5,-479 297.29,-464.3 458.74,-467.67 480.75,-464 483.6,-463.52 486.53,-462.95 489.46,-462.3"/>
<polygon fill="none" stroke="#000000" stroke-opacity="0.200000" points="489.86,-464.37 495.22,-460.95 488.9,-460.28 489.86,-464.37"/>
</g>
<!-- src/infrastructure/repository/MetadataRepository.ts -->
<g id="node23" class="node">
<title>src/infrastructure/repository/MetadataRepository.ts</title>
<g id="a_node23"><a xlink:href="src/infrastructure/repository/MetadataRepository.ts" xlink:title="MetadataRepository.ts">
<path fill="#ddfeff" stroke="black" d="M137.96,-515.62C137.96,-515.62 43.29,-515.62 43.29,-515.62 40.08,-515.62 36.88,-512.42 36.88,-509.21 36.88,-509.21 36.88,-502.79 36.88,-502.79 36.88,-499.58 40.08,-496.38 43.29,-496.38 43.29,-496.38 137.96,-496.38 137.96,-496.38 141.17,-496.38 144.38,-499.58 144.38,-502.79 144.38,-502.79 144.38,-509.21 144.38,-509.21 144.38,-512.42 141.17,-515.62 137.96,-515.62"/>
<text text-anchor="start" x="44.88" y="-503.07" font-family="Helvetica,sans-Serif" font-size="9.00">MetadataRepository.ts</text>
</a>
</g>
</g>
<!-- src/infrastructure/repository/MetadataRepository.ts&#45;&gt;src/domain/entities/index.ts -->
<g id="edge27" class="edge">
<title>src/infrastructure/repository/MetadataRepository.ts&#45;&gt;src/domain/entities/index.ts</title>
<path fill="none" stroke="#000000" stroke-opacity="0.200000" d="M106.98,-516C140.6,-536.51 221.74,-578.29 272.5,-540 282.83,-532.21 270.57,-520.3 280.5,-512 314.82,-483.33 439.99,-510.4 480.75,-492 492.39,-486.75 502.92,-476.95 510.52,-468.5"/>
<polygon fill="none" stroke="#000000" stroke-opacity="0.200000" points="512,-470 514.31,-464.08 508.81,-467.26 512,-470"/>
</g>
<!-- src/infrastructure/repository/MetadataRepository.ts&#45;&gt;src/domain/constants/index.ts -->
<g id="edge26" class="edge">
<title>src/infrastructure/repository/MetadataRepository.ts&#45;&gt;src/domain/constants/index.ts</title>
<path fill="none" stroke="#000000" stroke-width="2" stroke-opacity="0.200000" d="M144.58,-497.59C151.65,-495.78 158.71,-493.61 165.25,-491 179.75,-485.22 194.65,-476.02 206.09,-468.11"/>
<polygon fill="#000000" fill-opacity="0.200000" stroke="#000000" stroke-width="2" stroke-opacity="0.200000" points="207.28,-469.85 210.95,-464.66 204.84,-466.42 207.28,-469.85"/>
</g>
<!-- src/infrastructure/repository/MetadataRepository.ts&#45;&gt;src/domain/repositories/index.ts -->
<g id="edge28" class="edge">
<title>src/infrastructure/repository/MetadataRepository.ts&#45;&gt;src/domain/repositories/index.ts</title>
<path fill="none" stroke="#000000" stroke-opacity="0.200000" d="M144.87,-503.39C152.56,-500.83 159.72,-496.91 165.25,-491 183.33,-471.68 162.04,-455.97 173.25,-432 181.2,-415.01 195.9,-399.54 207.8,-388.86"/>
<polygon fill="none" stroke="#000000" stroke-opacity="0.200000" points="209.09,-390.52 212.24,-385 206.33,-387.35 209.09,-390.52"/>
</g>
<!-- src/infrastructure/repository/VideoRepository.ts -->
<g id="node24" class="node">
<title>src/infrastructure/repository/VideoRepository.ts</title>
<g id="a_node24"><a xlink:href="src/infrastructure/repository/VideoRepository.ts" xlink:title="VideoRepository.ts">
<path fill="#ddfeff" stroke="black" d="M130.83,-484.62C130.83,-484.62 50.42,-484.62 50.42,-484.62 47.21,-484.62 44,-481.42 44,-478.21 44,-478.21 44,-471.79 44,-471.79 44,-468.58 47.21,-465.38 50.42,-465.38 50.42,-465.38 130.83,-465.38 130.83,-465.38 134.04,-465.38 137.25,-468.58 137.25,-471.79 137.25,-471.79 137.25,-478.21 137.25,-478.21 137.25,-481.42 134.04,-484.62 130.83,-484.62"/>
<text text-anchor="start" x="52" y="-472.07" font-family="Helvetica,sans-Serif" font-size="9.00">VideoRepository.ts</text>
</a>
</g>
</g>
<!-- src/infrastructure/repository/VideoRepository.ts&#45;&gt;src/domain/entities/index.ts -->
<g id="edge30" class="edge">
<title>src/infrastructure/repository/VideoRepository.ts&#45;&gt;src/domain/entities/index.ts</title>
<path fill="none" stroke="#000000" stroke-opacity="0.200000" d="M137.37,-475.93C147.71,-478.24 157.81,-482.5 165.25,-490 178.32,-503.18 158.92,-519.2 173.25,-531 190.27,-545.02 255.16,-544.64 272.5,-531 284.36,-521.67 269.12,-507.91 280.5,-498 314.23,-468.64 438.27,-491.99 480.75,-478 488.65,-475.4 496.65,-471.12 503.53,-466.84"/>
<polygon fill="none" stroke="#000000" stroke-opacity="0.200000" points="504.34,-468.82 508.22,-463.78 502.05,-465.3 504.34,-468.82"/>
</g>
<!-- src/infrastructure/repository/VideoRepository.ts&#45;&gt;src/domain/constants/index.ts -->
<g id="edge29" class="edge">
<title>src/infrastructure/repository/VideoRepository.ts&#45;&gt;src/domain/constants/index.ts</title>
<path fill="none" stroke="#000000" stroke-width="2" stroke-opacity="0.200000" d="M137.58,-467.49C155.19,-464.61 174.97,-461.38 191.38,-458.7"/>
<polygon fill="#000000" fill-opacity="0.200000" stroke="#000000" stroke-width="2" stroke-opacity="0.200000" points="191.54,-460.8 197.12,-457.76 190.86,-456.65 191.54,-460.8"/>
</g>
<!-- src/infrastructure/repository/VideoRepository.ts&#45;&gt;src/domain/repositories/index.ts -->
<g id="edge31" class="edge">
<title>src/infrastructure/repository/VideoRepository.ts&#45;&gt;src/domain/repositories/index.ts</title>
<path fill="none" stroke="#000000" stroke-opacity="0.200000" d="M137.41,-467.52C147.5,-464.12 157.48,-459.18 165.25,-452 172.28,-445.5 168.16,-440.11 173.25,-432 183.47,-415.72 198.5,-399.78 209.95,-388.75"/>
<polygon fill="none" stroke="#000000" stroke-opacity="0.200000" points="211.22,-390.43 214.14,-384.79 208.34,-387.38 211.22,-390.43"/>
</g>
<!-- src/infrastructure/services/VideoMetadataFacade.ts -->
<g id="node25" class="node">
<title>src/infrastructure/services/VideoMetadataFacade.ts</title>
<g id="a_node25"><a xlink:href="src/infrastructure/services/VideoMetadataFacade.ts" xlink:title="VideoMetadataFacade.ts">
<path fill="#ddfeff" stroke="black" d="M142.83,-327.62C142.83,-327.62 38.42,-327.62 38.42,-327.62 35.21,-327.62 32,-324.42 32,-321.21 32,-321.21 32,-314.79 32,-314.79 32,-311.58 35.21,-308.38 38.42,-308.38 38.42,-308.38 142.83,-308.38 142.83,-308.38 146.04,-308.38 149.25,-311.58 149.25,-314.79 149.25,-314.79 149.25,-321.21 149.25,-321.21 149.25,-324.42 146.04,-327.62 142.83,-327.62"/>
<text text-anchor="start" x="40" y="-315.07" font-family="Helvetica,sans-Serif" font-size="9.00">VideoMetadataFacade.ts</text>
</a>
</g>
</g>
<!-- src/infrastructure/services/VideoMetadataFacade.ts&#45;&gt;src/domain/entities/index.ts -->
<g id="edge32" class="edge">
<title>src/infrastructure/services/VideoMetadataFacade.ts&#45;&gt;src/domain/entities/index.ts</title>
<path fill="none" stroke="#000000" stroke-opacity="0.200000" d="M123.61,-328.11C138.89,-334.67 155.85,-344.88 165.25,-360 173.07,-372.57 162.47,-482.85 173.25,-493 189.31,-508.12 255.51,-507.06 272.5,-493 287.14,-480.89 265.86,-463.11 280.5,-451 311.34,-425.48 430.26,-439.02 489.22,-447.64"/>
<polygon fill="none" stroke="#000000" stroke-opacity="0.200000" points="488.7,-449.69 494.95,-448.49 489.32,-445.53 488.7,-449.69"/>
</g>
<!-- src/infrastructure/services/VideoMetadataFacade.ts&#45;&gt;src/domain/repositories/index.ts -->
<g id="edge33" class="edge">
<title>src/infrastructure/services/VideoMetadataFacade.ts&#45;&gt;src/domain/repositories/index.ts</title>
<path fill="none" stroke="#000000" stroke-opacity="0.200000" d="M115.69,-328.01C137.86,-337.23 170.87,-350.96 195.05,-361.02"/>
<polygon fill="none" stroke="#000000" stroke-opacity="0.200000" points="194.19,-362.94 200.54,-363.3 195.81,-359.06 194.19,-362.94"/>
</g>
<!-- src/infrastructure/services/VideoMetadataFacade.ts&#45;&gt;src/domain/valueObjects/index.ts -->
<g id="edge34" class="edge">
<title>src/infrastructure/services/VideoMetadataFacade.ts&#45;&gt;src/domain/valueObjects/index.ts</title>
<path fill="none" stroke="#000000" stroke-width="2" stroke-opacity="0.200000" d="M117.26,-307.91C138.6,-299.51 169.14,-287.48 192.47,-278.3"/>
<polygon fill="#000000" fill-opacity="0.200000" stroke="#000000" stroke-width="2" stroke-opacity="0.200000" points="193.08,-280.32 197.89,-276.16 191.54,-276.41 193.08,-280.32"/>
</g>
<!-- src/infrastructure/video/VideoFileParser.ts -->
<g id="node26" class="node">
<title>src/infrastructure/video/VideoFileParser.ts</title>
<g id="a_node26"><a xlink:href="src/infrastructure/video/VideoFileParser.ts" xlink:title="VideoFileParser.ts">
<path fill="#ddfeff" stroke="black" d="M130.08,-578.62C130.08,-578.62 51.17,-578.62 51.17,-578.62 47.96,-578.62 44.75,-575.42 44.75,-572.21 44.75,-572.21 44.75,-565.79 44.75,-565.79 44.75,-562.58 47.96,-559.38 51.17,-559.38 51.17,-559.38 130.08,-559.38 130.08,-559.38 133.29,-559.38 136.5,-562.58 136.5,-565.79 136.5,-565.79 136.5,-572.21 136.5,-572.21 136.5,-575.42 133.29,-578.62 130.08,-578.62"/>
<text text-anchor="start" x="52.75" y="-566.08" font-family="Helvetica,sans-Serif" font-size="9.00">VideoFileParser.ts</text>
</a>
</g>
</g>
<!-- src/infrastructure/video/VideoFileParser.ts&#45;&gt;src/domain/entities/index.ts -->
<g id="edge35" class="edge">
<title>src/infrastructure/video/VideoFileParser.ts&#45;&gt;src/domain/entities/index.ts</title>
<path fill="none" stroke="#000000" stroke-opacity="0.200000" d="M136.89,-576.81C176.66,-581.04 234.03,-580.43 272.5,-551 280.43,-544.93 272.63,-536.15 280.5,-530 351.14,-474.83 402.52,-549.76 480.75,-506 495.79,-497.59 507.4,-481.39 514.56,-469.11"/>
<polygon fill="none" stroke="#000000" stroke-opacity="0.200000" points="516.27,-470.35 517.34,-464.08 512.59,-468.32 516.27,-470.35"/>
</g>
<!-- src/infrastructure/video/VideoFileParser.ts&#45;&gt;src/domain/valueObjects/index.ts -->
<g id="edge36" class="edge">
<title>src/infrastructure/video/VideoFileParser.ts&#45;&gt;src/domain/valueObjects/index.ts</title>
<path fill="none" stroke="#000000" stroke-width="2" stroke-opacity="0.200000" d="M136.68,-564.17C147.68,-560.77 158.27,-555.16 165.25,-546 181.35,-524.86 161.29,-330.72 173.25,-307 178.85,-295.89 188.9,-286.78 198.75,-279.92"/>
<polygon fill="#000000" fill-opacity="0.200000" stroke="#000000" stroke-width="2" stroke-opacity="0.200000" points="199.74,-281.78 203.63,-276.76 197.45,-278.26 199.74,-281.78"/>
</g>
<!-- src/presentation/components/VideoCard.vue -->
<g id="node27" class="node">
<title>src/presentation/components/VideoCard.vue</title>
<g id="a_node27"><a xlink:href="src/presentation/components/VideoCard.vue" xlink:title="VideoCard.vue">
<path fill="#41f083" stroke="black" d="M258.83,-51.62C258.83,-51.62 195.67,-51.62 195.67,-51.62 192.46,-51.62 189.25,-48.42 189.25,-45.21 189.25,-45.21 189.25,-38.79 189.25,-38.79 189.25,-35.58 192.46,-32.38 195.67,-32.38 195.67,-32.38 258.83,-32.38 258.83,-32.38 262.04,-32.38 265.25,-35.58 265.25,-38.79 265.25,-38.79 265.25,-45.21 265.25,-45.21 265.25,-48.42 262.04,-51.62 258.83,-51.62"/>
<text text-anchor="start" x="197.25" y="-39.08" font-family="Helvetica,sans-Serif" font-size="9.00">VideoCard.vue</text>
</a>
</g>
</g>
<!-- src/presentation/components/VideoCard.vue&#45;&gt;src/domain/entities/index.ts -->
<g id="edge38" class="edge">
<title>src/presentation/components/VideoCard.vue&#45;&gt;src/domain/entities/index.ts</title>
<path fill="none" stroke="#000000" stroke-opacity="0.200000" d="M259.91,-52.12C266.68,-54.16 273.81,-56.23 280.5,-58 368.67,-81.37 419.61,-35.31 480.75,-103 525.6,-152.65 524.47,-372.81 523.19,-435.99"/>
<polygon fill="none" stroke="#000000" stroke-opacity="0.200000" points="521.1,-435.65 523.06,-441.7 525.3,-435.75 521.1,-435.65"/>
</g>
<!-- src/presentation/components/VideoEmbed.vue -->
<g id="node28" class="node">
<title>src/presentation/components/VideoEmbed.vue</title>
<g id="a_node28"><a xlink:href="src/presentation/components/VideoEmbed.vue" xlink:title="VideoEmbed.vue">
<path fill="#41f083" stroke="black" d="M417.08,-51.62C417.08,-51.62 344.17,-51.62 344.17,-51.62 340.96,-51.62 337.75,-48.42 337.75,-45.21 337.75,-45.21 337.75,-38.79 337.75,-38.79 337.75,-35.58 340.96,-32.38 344.17,-32.38 344.17,-32.38 417.08,-32.38 417.08,-32.38 420.29,-32.38 423.5,-35.58 423.5,-38.79 423.5,-38.79 423.5,-45.21 423.5,-45.21 423.5,-48.42 420.29,-51.62 417.08,-51.62"/>
<text text-anchor="start" x="345.75" y="-39.08" font-family="Helvetica,sans-Serif" font-size="9.00">VideoEmbed.vue</text>
</a>
</g>
</g>
<!-- src/presentation/components/VideoCard.vue&#45;&gt;src/presentation/components/VideoEmbed.vue -->
<g id="edge37" class="edge">
<title>src/presentation/components/VideoCard.vue&#45;&gt;src/presentation/components/VideoEmbed.vue</title>
<path fill="none" stroke="#000000" stroke-width="2" stroke-opacity="0.200000" d="M265.67,-42C284.58,-42 307.82,-42 328.37,-42"/>
<polygon fill="#000000" fill-opacity="0.200000" stroke="#000000" stroke-width="2" stroke-opacity="0.200000" points="328.27,-44.1 334.27,-42 328.27,-39.9 328.27,-44.1"/>
</g>
<!-- src/presentation/components/VideoEmbed.vue&#45;&gt;src/domain/entities/index.ts -->
<g id="edge39" class="edge">
<title>src/presentation/components/VideoEmbed.vue&#45;&gt;src/domain/entities/index.ts</title>
<path fill="none" stroke="#000000" stroke-opacity="0.200000" d="M423.96,-45.22C444.2,-49.04 466.97,-57.12 480.75,-74 503.92,-102.4 518.43,-365.3 521.93,-435.72"/>
<polygon fill="none" stroke="#000000" stroke-opacity="0.200000" points="519.82,-435.58 522.21,-441.47 524.01,-435.37 519.82,-435.58"/>
</g>
<!-- src/presentation/stores/videosStore.ts -->
<g id="node29" class="node">
<title>src/presentation/stores/videosStore.ts</title>
<g id="a_node29"><a xlink:href="src/presentation/stores/videosStore.ts" xlink:title="videosStore.ts">
<path fill="#ddfeff" stroke="black" d="M258.08,-114.62C258.08,-114.62 196.42,-114.62 196.42,-114.62 193.21,-114.62 190,-111.42 190,-108.21 190,-108.21 190,-101.79 190,-101.79 190,-98.58 193.21,-95.38 196.42,-95.38 196.42,-95.38 258.08,-95.38 258.08,-95.38 261.29,-95.38 264.5,-98.58 264.5,-101.79 264.5,-101.79 264.5,-108.21 264.5,-108.21 264.5,-111.42 261.29,-114.62 258.08,-114.62"/>
<text text-anchor="start" x="198" y="-102.08" font-family="Helvetica,sans-Serif" font-size="9.00">videosStore.ts</text>
</a>
</g>
</g>
<!-- src/presentation/stores/videosStore.ts&#45;&gt;src/domain/entities/index.ts -->
<g id="edge40" class="edge">
<title>src/presentation/stores/videosStore.ts&#45;&gt;src/domain/entities/index.ts</title>
<path fill="none" stroke="#000000" stroke-opacity="0.200000" d="M264.73,-104.75C320.39,-106.51 425.81,-118.63 480.75,-182 513.9,-220.24 520.96,-381.85 522.4,-435.56"/>
<polygon fill="none" stroke="#000000" stroke-opacity="0.200000" points="520.29,-435.49 522.54,-441.44 524.49,-435.39 520.29,-435.49"/>
</g>
</g>
</svg>
