<?xml version="1.0" encoding="UTF-8" standalone="no"?>
<!DOCTYPE svg PUBLIC "-//W3C//DTD SVG 1.1//EN"
 "http://www.w3.org/Graphics/SVG/1.1/DTD/svg11.dtd">
<!-- Generated by graphviz version 9.0.0 (20230911.1827)
 -->
<!-- Title: dependency&#45;cruiser output Pages: 1 -->
<svg width="284pt" height="424pt"
 viewBox="0.00 0.00 284.00 424.00" xmlns="http://www.w3.org/2000/svg" xmlns:xlink="http://www.w3.org/1999/xlink">
<g id="graph0" class="graph" transform="scale(1 1) rotate(0) translate(4 420)">
<title>dependency&#45;cruiser output</title>
<polygon fill="white" stroke="none" points="-4,4 -4,-420 280,-420 280,4 -4,4"/>
<g id="clust1" class="cluster">
<title>cluster_src</title>
<path fill="#ffffff" stroke="black" stroke-width="2" d="M19,-8C19,-8 256,-8 256,-8 262,-8 268,-14 268,-20 268,-20 268,-396 268,-396 268,-402 262,-408 256,-408 256,-408 19,-408 19,-408 13,-408 7,-402 7,-396 7,-396 7,-20 7,-20 7,-14 13,-8 19,-8"/>
<text text-anchor="middle" x="137.5" y="-395.45" font-family="Helvetica,sans-Serif" font-weight="bold" font-size="9.00">src</text>
</g>
<g id="clust3" class="cluster">
<title>cluster_src/domain</title>
<path fill="#ffffff" stroke="black" stroke-width="2" d="M117.5,-110C117.5,-110 248,-110 248,-110 254,-110 260,-116 260,-122 260,-122 260,-215 260,-215 260,-221 254,-227 248,-227 248,-227 117.5,-227 117.5,-227 111.5,-227 105.5,-221 105.5,-215 105.5,-215 105.5,-122 105.5,-122 105.5,-116 111.5,-110 117.5,-110"/>
<text text-anchor="middle" x="182.75" y="-214.45" font-family="Helvetica,sans-Serif" font-weight="bold" font-size="9.00">domain</text>
</g>
<g id="clust2" class="cluster">
<title>cluster_src/application</title>
<path fill="#ffffff" stroke="black" stroke-width="2" d="M123.5,-264C123.5,-264 172.75,-264 172.75,-264 178.75,-264 184.75,-270 184.75,-276 184.75,-276 184.75,-369 184.75,-369 184.75,-375 178.75,-381 172.75,-381 172.75,-381 123.5,-381 123.5,-381 117.5,-381 111.5,-375 111.5,-369 111.5,-369 111.5,-276 111.5,-276 111.5,-270 117.5,-264 123.5,-264"/>
<text text-anchor="middle" x="148.12" y="-368.45" font-family="Helvetica,sans-Serif" font-weight="bold" font-size="9.00">application</text>
</g>
<g id="clust4" class="cluster">
<title>cluster_src/infrastructure</title>
<path fill="#ffffff" stroke="black" stroke-width="2" d="M27,-141C27,-141 77.5,-141 77.5,-141 83.5,-141 89.5,-147 89.5,-153 89.5,-153 89.5,-277 89.5,-277 89.5,-283 83.5,-289 77.5,-289 77.5,-289 27,-289 27,-289 21,-289 15,-283 15,-277 15,-277 15,-153 15,-153 15,-147 21,-141 27,-141"/>
<text text-anchor="middle" x="52.25" y="-276.45" font-family="Helvetica,sans-Serif" font-weight="bold" font-size="9.00">infrastructure</text>
</g>
<g id="clust5" class="cluster">
<title>cluster_src/presentation</title>
<path fill="#ffffff" stroke="black" stroke-width="2" d="M118.25,-16C118.25,-16 178,-16 178,-16 184,-16 190,-22 190,-28 190,-28 190,-90 190,-90 190,-96 184,-102 178,-102 178,-102 118.25,-102 118.25,-102 112.25,-102 106.25,-96 106.25,-90 106.25,-90 106.25,-28 106.25,-28 106.25,-22 112.25,-16 118.25,-16"/>
<text text-anchor="middle" x="148.12" y="-89.45" font-family="Helvetica,sans-Serif" font-weight="bold" font-size="9.00">presentation</text>
</g>
<!-- src/application/ports -->
<g id="node1" class="node">
<title>src/application/ports</title>
<g id="a_node1"><a xlink:href="src/application/ports" xlink:title="ports">
<polygon fill="#ffffcc" stroke="black" points="175.12,-353.62 123.26,-353.62 121.12,-351.49 121.12,-334.38 172.99,-334.38 175.12,-336.51 175.12,-353.62"/>
<polyline fill="none" stroke="black" points="172.99,-351.49 121.12,-351.49"/>
<polyline fill="none" stroke="black" points="172.99,-351.49 172.99,-334.38"/>
<polyline fill="none" stroke="black" points="172.99,-351.49 175.12,-353.62"/>
<text text-anchor="start" x="137.62" y="-341.07" font-family="Helvetica,sans-Serif" font-size="9.00">ports</text>
</a>
</g>
</g>
<!-- src/domain/entities -->
<g id="node2" class="node">
<title>src/domain/entities</title>
<g id="a_node2"><a xlink:href="src/domain/entities" xlink:title="entities">
<polygon fill="#ffffcc" stroke="black" points="252,-199.62 200.14,-199.62 198,-197.49 198,-180.38 249.86,-180.38 252,-182.51 252,-199.62"/>
<polyline fill="none" stroke="black" points="249.86,-197.49 198,-197.49"/>
<polyline fill="none" stroke="black" points="249.86,-197.49 249.86,-180.38"/>
<polyline fill="none" stroke="black" points="249.86,-197.49 252,-199.62"/>
<text text-anchor="start" x="210" y="-187.07" font-family="Helvetica,sans-Serif" font-size="9.00">entities</text>
</a>
</g>
</g>
<!-- src/application/ports&#45;&gt;src/domain/entities -->
<g id="edge1" class="edge">
<title>src/application/ports&#45;&gt;src/domain/entities</title>
<path fill="none" stroke="#000000" stroke-opacity="0.200000" d="M175.23,-338.7C180.74,-336.51 186.07,-333.4 190,-329 221.03,-294.29 224.85,-235.92 224.67,-207.13"/>
<polygon fill="none" stroke="#000000" stroke-opacity="0.200000" points="226.77,-207.3 224.56,-201.34 222.57,-207.38 226.77,-207.3"/>
</g>
<!-- src/application/services -->
<g id="node3" class="node">
<title>src/application/services</title>
<g id="a_node3"><a xlink:href="src/application/services" xlink:title="services">
<polygon fill="#ffffcc" stroke="black" points="175.12,-322.62 123.26,-322.62 121.12,-320.49 121.12,-303.38 172.99,-303.38 175.12,-305.51 175.12,-322.62"/>
<polyline fill="none" stroke="black" points="172.99,-320.49 121.12,-320.49"/>
<polyline fill="none" stroke="black" points="172.99,-320.49 172.99,-303.38"/>
<polyline fill="none" stroke="black" points="172.99,-320.49 175.12,-322.62"/>
<text text-anchor="start" x="130.88" y="-310.07" font-family="Helvetica,sans-Serif" font-size="9.00">services</text>
</a>
</g>
</g>
<!-- src/application/services&#45;&gt;src/domain/entities -->
<g id="edge2" class="edge">
<title>src/application/services&#45;&gt;src/domain/entities</title>
<path fill="none" stroke="#000000" stroke-opacity="0.200000" d="M175.45,-307.35C180.82,-305.17 186.03,-302.16 190,-298 214.02,-272.83 221.08,-230.84 223.15,-207.32"/>
<polygon fill="none" stroke="#000000" stroke-opacity="0.200000" points="225.22,-207.75 223.56,-201.61 221.03,-207.44 225.22,-207.75"/>
</g>
<!-- src/application/usecases -->
<g id="node4" class="node">
<title>src/application/usecases</title>
<g id="a_node4"><a xlink:href="src/application/usecases" xlink:title="usecases">
<polygon fill="#ffffcc" stroke="black" points="176.75,-291.62 121.64,-291.62 119.5,-289.49 119.5,-272.38 174.61,-272.38 176.75,-274.51 176.75,-291.62"/>
<polyline fill="none" stroke="black" points="174.61,-289.49 119.5,-289.49"/>
<polyline fill="none" stroke="black" points="174.61,-289.49 174.61,-272.38"/>
<polyline fill="none" stroke="black" points="174.61,-289.49 176.75,-291.62"/>
<text text-anchor="start" x="127.5" y="-279.07" font-family="Helvetica,sans-Serif" font-size="9.00">usecases</text>
</a>
</g>
</g>
<!-- src/application/usecases&#45;&gt;src/domain/entities -->
<g id="edge3" class="edge">
<title>src/application/usecases&#45;&gt;src/domain/entities</title>
<path fill="none" stroke="#000000" stroke-opacity="0.200000" d="M172.47,-272.01C178.7,-268.55 185.07,-264.2 190,-259 204.2,-244 213.66,-221.93 218.91,-206.82"/>
<polygon fill="none" stroke="#000000" stroke-opacity="0.200000" points="220.8,-207.81 220.68,-201.45 216.81,-206.49 220.8,-207.81"/>
</g>
<!-- src/domain/constants -->
<g id="node5" class="node">
<title>src/domain/constants</title>
<g id="a_node5"><a xlink:href="src/domain/constants" xlink:title="constants">
<polygon fill="#ffffcc" stroke="black" points="176.38,-199.62 122.01,-199.62 119.88,-197.49 119.88,-180.38 174.24,-180.38 176.38,-182.51 176.38,-199.62"/>
<polyline fill="none" stroke="black" points="174.24,-197.49 119.88,-197.49"/>
<polyline fill="none" stroke="black" points="174.24,-197.49 174.24,-180.38"/>
<polyline fill="none" stroke="black" points="174.24,-197.49 176.38,-199.62"/>
<text text-anchor="start" x="127.88" y="-187.07" font-family="Helvetica,sans-Serif" font-size="9.00">constants</text>
</a>
</g>
</g>
<!-- src/domain/repositories -->
<g id="node6" class="node">
<title>src/domain/repositories</title>
<g id="a_node6"><a xlink:href="src/domain/repositories" xlink:title="repositories">
<polygon fill="#ffffcc" stroke="black" points="180.88,-137.62 117.51,-137.62 115.38,-135.49 115.38,-118.38 178.74,-118.38 180.88,-120.51 180.88,-137.62"/>
<polyline fill="none" stroke="black" points="178.74,-135.49 115.38,-135.49"/>
<polyline fill="none" stroke="black" points="178.74,-135.49 178.74,-118.38"/>
<polyline fill="none" stroke="black" points="178.74,-135.49 180.88,-137.62"/>
<text text-anchor="start" x="123.38" y="-125.08" font-family="Helvetica,sans-Serif" font-size="9.00">repositories</text>
</a>
</g>
</g>
<!-- src/domain/repositories&#45;&gt;src/domain/entities -->
<g id="edge4" class="edge">
<title>src/domain/repositories&#45;&gt;src/domain/entities</title>
<path fill="none" stroke="#000000" stroke-opacity="0.200000" d="M181.34,-137.69C184.4,-139.23 187.35,-140.99 190,-143 200.7,-151.1 209.47,-163.5 215.42,-173.53"/>
<polygon fill="none" stroke="#000000" stroke-opacity="0.200000" points="213.56,-174.51 218.34,-178.7 217.22,-172.44 213.56,-174.51"/>
</g>
<!-- src/domain/valueObjects -->
<g id="node7" class="node">
<title>src/domain/valueObjects</title>
<g id="a_node7"><a xlink:href="src/domain/valueObjects" xlink:title="valueObjects">
<polygon fill="#ffffcc" stroke="black" points="182.75,-168.62 115.64,-168.62 113.5,-166.49 113.5,-149.38 180.61,-149.38 182.75,-151.51 182.75,-168.62"/>
<polyline fill="none" stroke="black" points="180.61,-166.49 113.5,-166.49"/>
<polyline fill="none" stroke="black" points="180.61,-166.49 180.61,-149.38"/>
<polyline fill="none" stroke="black" points="180.61,-166.49 182.75,-168.62"/>
<text text-anchor="start" x="121.5" y="-156.07" font-family="Helvetica,sans-Serif" font-size="9.00">valueObjects</text>
</a>
</g>
</g>
<!-- src/domain/valueObjects&#45;&gt;src/domain/entities -->
<g id="edge5" class="edge">
<title>src/domain/valueObjects&#45;&gt;src/domain/entities</title>
<path fill="none" stroke="#000000" stroke-opacity="0.200000" d="M177.4,-169.01C181.64,-170.62 185.95,-172.31 190,-174 192.17,-174.91 194.4,-175.87 196.63,-176.87"/>
<polygon fill="none" stroke="#000000" stroke-opacity="0.200000" points="195.56,-178.69 201.89,-179.26 197.3,-174.87 195.56,-178.69"/>
</g>
<!-- src/infrastructure/adapters -->
<g id="node8" class="node">
<title>src/infrastructure/adapters</title>
<g id="a_node8"><a xlink:href="src/infrastructure/adapters" xlink:title="adapters">
<polygon fill="#ffffcc" stroke="black" points="79.25,-261.62 27.39,-261.62 25.25,-259.49 25.25,-242.38 77.11,-242.38 79.25,-244.51 79.25,-261.62"/>
<polyline fill="none" stroke="black" points="77.11,-259.49 25.25,-259.49"/>
<polyline fill="none" stroke="black" points="77.11,-259.49 77.11,-242.38"/>
<polyline fill="none" stroke="black" points="77.11,-259.49 79.25,-261.62"/>
<text text-anchor="start" x="33.88" y="-249.07" font-family="Helvetica,sans-Serif" font-size="9.00">adapters</text>
</a>
</g>
</g>
<!-- src/infrastructure/adapters&#45;&gt;src/domain/entities -->
<g id="edge6" class="edge">
<title>src/infrastructure/adapters&#45;&gt;src/domain/entities</title>
<path fill="none" stroke="#000000" stroke-opacity="0.200000" d="M79.53,-253.94C108.5,-254.87 155.57,-252.71 190,-233 200.77,-226.84 209.38,-215.8 215.25,-206.45"/>
<polygon fill="none" stroke="#000000" stroke-opacity="0.200000" points="217.02,-207.58 218.26,-201.34 213.41,-205.45 217.02,-207.58"/>
</g>
<!-- src/infrastructure/repository -->
<g id="node9" class="node">
<title>src/infrastructure/repository</title>
<g id="a_node9"><a xlink:href="src/infrastructure/repository" xlink:title="repository">
<polygon fill="#ffffcc" stroke="black" points="80.5,-199.62 26.14,-199.62 24,-197.49 24,-180.38 78.36,-180.38 80.5,-182.51 80.5,-199.62"/>
<polyline fill="none" stroke="black" points="78.36,-197.49 24,-197.49"/>
<polyline fill="none" stroke="black" points="78.36,-197.49 78.36,-180.38"/>
<polyline fill="none" stroke="black" points="78.36,-197.49 80.5,-199.62"/>
<text text-anchor="start" x="32" y="-187.07" font-family="Helvetica,sans-Serif" font-size="9.00">repository</text>
</a>
</g>
</g>
<!-- src/infrastructure/repository&#45;&gt;src/domain/entities -->
<g id="edge8" class="edge">
<title>src/infrastructure/repository&#45;&gt;src/domain/entities</title>
<path fill="none" stroke="#000000" stroke-opacity="0.200000" d="M79.76,-200.05C83.1,-201.59 86.42,-203.25 89.5,-205 97.22,-209.4 97.07,-214.19 105.5,-217 141.13,-228.88 154.54,-229.37 190,-217 197.26,-214.47 204.13,-209.67 209.77,-204.81"/>
<polygon fill="none" stroke="#000000" stroke-opacity="0.200000" points="210.87,-206.65 213.86,-201.04 208.03,-203.56 210.87,-206.65"/>
</g>
<!-- src/infrastructure/repository&#45;&gt;src/domain/constants -->
<g id="edge7" class="edge">
<title>src/infrastructure/repository&#45;&gt;src/domain/constants</title>
<path fill="none" stroke="#000000" stroke-width="2" stroke-opacity="0.200000" d="M80.91,-190C90.27,-190 100.86,-190 110.79,-190"/>
<polygon fill="#000000" fill-opacity="0.200000" stroke="#000000" stroke-width="2" stroke-opacity="0.200000" points="110.64,-192.1 116.64,-190 110.64,-187.9 110.64,-192.1"/>
</g>
<!-- src/infrastructure/repository&#45;&gt;src/domain/repositories -->
<g id="edge9" class="edge">
<title>src/infrastructure/repository&#45;&gt;src/domain/repositories</title>
<path fill="none" stroke="#000000" stroke-opacity="0.200000" d="M80.68,-181.2C83.87,-179.47 86.91,-177.41 89.5,-175 101.14,-164.16 93.61,-153.56 105.5,-143 106.58,-142.04 107.72,-141.15 108.91,-140.31"/>
<polygon fill="none" stroke="#000000" stroke-opacity="0.200000" points="109.84,-142.2 113.92,-137.32 107.69,-138.59 109.84,-142.2"/>
</g>
<!-- src/infrastructure/services -->
<g id="node10" class="node">
<title>src/infrastructure/services</title>
<g id="a_node10"><a xlink:href="src/infrastructure/services" xlink:title="services">
<polygon fill="#ffffcc" stroke="black" points="79.25,-168.62 27.39,-168.62 25.25,-166.49 25.25,-149.38 77.11,-149.38 79.25,-151.51 79.25,-168.62"/>
<polyline fill="none" stroke="black" points="77.11,-166.49 25.25,-166.49"/>
<polyline fill="none" stroke="black" points="77.11,-166.49 77.11,-149.38"/>
<polyline fill="none" stroke="black" points="77.11,-166.49 79.25,-168.62"/>
<text text-anchor="start" x="35" y="-156.07" font-family="Helvetica,sans-Serif" font-size="9.00">services</text>
</a>
</g>
</g>
<!-- src/infrastructure/services&#45;&gt;src/domain/entities -->
<g id="edge10" class="edge">
<title>src/infrastructure/services&#45;&gt;src/domain/entities</title>
<path fill="none" stroke="#000000" stroke-opacity="0.200000" d="M79.57,-167.21C83.17,-169.07 86.61,-171.31 89.5,-174 101.14,-184.84 91.97,-197.64 105.5,-206 137.45,-225.74 153.35,-214.19 190,-206 193.24,-205.28 196.53,-204.21 199.73,-202.96"/>
<polygon fill="none" stroke="#000000" stroke-opacity="0.200000" points="200.47,-204.93 205.14,-200.61 198.8,-201.08 200.47,-204.93"/>
</g>
<!-- src/infrastructure/services&#45;&gt;src/domain/repositories -->
<g id="edge11" class="edge">
<title>src/infrastructure/services&#45;&gt;src/domain/repositories</title>
<path fill="none" stroke="#000000" stroke-opacity="0.200000" d="M79.65,-150.28C88.99,-147.2 99.68,-143.67 109.76,-140.34"/>
<polygon fill="none" stroke="#000000" stroke-opacity="0.200000" points="110.14,-142.43 115.18,-138.55 108.82,-138.44 110.14,-142.43"/>
</g>
<!-- src/infrastructure/services&#45;&gt;src/domain/valueObjects -->
<g id="edge12" class="edge">
<title>src/infrastructure/services&#45;&gt;src/domain/valueObjects</title>
<path fill="none" stroke="#000000" stroke-width="2" stroke-opacity="0.200000" d="M79.65,-159C87.3,-159 95.85,-159 104.23,-159"/>
<polygon fill="#000000" fill-opacity="0.200000" stroke="#000000" stroke-width="2" stroke-opacity="0.200000" points="104.17,-161.1 110.17,-159 104.17,-156.9 104.17,-161.1"/>
</g>
<!-- src/infrastructure/video -->
<g id="node11" class="node">
<title>src/infrastructure/video</title>
<g id="a_node11"><a xlink:href="src/infrastructure/video" xlink:title="video">
<polygon fill="#ffffcc" stroke="black" points="79.25,-230.62 27.39,-230.62 25.25,-228.49 25.25,-211.38 77.11,-211.38 79.25,-213.51 79.25,-230.62"/>
<polyline fill="none" stroke="black" points="77.11,-228.49 25.25,-228.49"/>
<polyline fill="none" stroke="black" points="77.11,-228.49 77.11,-211.38"/>
<polyline fill="none" stroke="black" points="77.11,-228.49 79.25,-230.62"/>
<text text-anchor="start" x="41.38" y="-218.07" font-family="Helvetica,sans-Serif" font-size="9.00">video</text>
</a>
</g>
</g>
<!-- src/infrastructure/video&#45;&gt;src/domain/entities -->
<g id="edge13" class="edge">
<title>src/infrastructure/video&#45;&gt;src/domain/entities</title>
<path fill="none" stroke="#000000" stroke-opacity="0.200000" d="M79.64,-228.05C108.09,-234.26 154.12,-240.17 190,-225 199.39,-221.03 207.46,-213.06 213.38,-205.73"/>
<polygon fill="none" stroke="#000000" stroke-opacity="0.200000" points="214.99,-207.09 216.92,-201.03 211.63,-204.56 214.99,-207.09"/>
</g>
<!-- src/infrastructure/video&#45;&gt;src/domain/valueObjects -->
<g id="edge14" class="edge">
<title>src/infrastructure/video&#45;&gt;src/domain/valueObjects</title>
<path fill="none" stroke="#000000" stroke-width="2" stroke-opacity="0.200000" d="M79.57,-212.79C83.17,-210.93 86.61,-208.69 89.5,-206 101.14,-195.16 93.61,-184.56 105.5,-174 105.64,-173.87 105.79,-173.75 105.93,-173.62"/>
<polygon fill="#000000" fill-opacity="0.200000" stroke="#000000" stroke-width="2" stroke-opacity="0.200000" points="106.9,-175.51 110.64,-170.37 104.51,-172.05 106.9,-175.51"/>
</g>
<!-- src/presentation/components -->
<g id="node12" class="node">
<title>src/presentation/components</title>
<g id="a_node12"><a xlink:href="src/presentation/components" xlink:title="components">
<polygon fill="#ffffcc" stroke="black" points="182,-74.62 116.39,-74.62 114.25,-72.49 114.25,-55.38 179.86,-55.38 182,-57.51 182,-74.62"/>
<polyline fill="none" stroke="black" points="179.86,-72.49 114.25,-72.49"/>
<polyline fill="none" stroke="black" points="179.86,-72.49 179.86,-55.38"/>
<polyline fill="none" stroke="black" points="179.86,-72.49 182,-74.62"/>
<text text-anchor="start" x="122.25" y="-62.08" font-family="Helvetica,sans-Serif" font-size="9.00">components</text>
</a>
</g>
</g>
<!-- src/presentation/components&#45;&gt;src/domain/entities -->
<g id="edge15" class="edge">
<title>src/presentation/components&#45;&gt;src/domain/entities</title>
<path fill="none" stroke="#000000" stroke-opacity="0.200000" d="M161.14,-75.05C170.04,-82.99 181.97,-94.75 190,-107 203.82,-128.08 213.76,-155.69 219.2,-173.14"/>
<polygon fill="none" stroke="#000000" stroke-opacity="0.200000" points="217.07,-173.36 220.81,-178.5 221.09,-172.15 217.07,-173.36"/>
</g>
<!-- src/presentation/stores -->
<g id="node13" class="node">
<title>src/presentation/stores</title>
<g id="a_node13"><a xlink:href="src/presentation/stores" xlink:title="stores">
<polygon fill="#ffffcc" stroke="black" points="175.12,-43.62 123.26,-43.62 121.12,-41.49 121.12,-24.38 172.99,-24.38 175.12,-26.51 175.12,-43.62"/>
<polyline fill="none" stroke="black" points="172.99,-41.49 121.12,-41.49"/>
<polyline fill="none" stroke="black" points="172.99,-41.49 172.99,-24.38"/>
<polyline fill="none" stroke="black" points="172.99,-41.49 175.12,-43.62"/>
<text text-anchor="start" x="135" y="-31.07" font-family="Helvetica,sans-Serif" font-size="9.00">stores</text>
</a>
</g>
</g>
<!-- src/presentation/stores&#45;&gt;src/domain/entities -->
<g id="edge16" class="edge">
<title>src/presentation/stores&#45;&gt;src/domain/entities</title>
<path fill="none" stroke="#000000" stroke-opacity="0.200000" d="M175.24,-39.29C180.75,-41.49 186.08,-44.6 190,-49 221.39,-84.23 225.04,-143.43 224.75,-172.63"/>
<polygon fill="none" stroke="#000000" stroke-opacity="0.200000" points="222.65,-172.47 224.61,-178.52 226.85,-172.57 222.65,-172.47"/>
</g>
</g>
</svg>
