<?xml version="1.0" encoding="UTF-8" standalone="no"?>
<!DOCTYPE svg PUBLIC "-//W3C//DTD SVG 1.1//EN"
 "http://www.w3.org/Graphics/SVG/1.1/DTD/svg11.dtd">
<!-- Generated by graphviz version 9.0.0 (20230911.1827)
 -->
<!-- Title: dependency&#45;cruiser output Pages: 1 -->
<svg width="977pt" height="774pt"
 viewBox="0.00 0.00 977.25 774.00" xmlns="http://www.w3.org/2000/svg" xmlns:xlink="http://www.w3.org/1999/xlink">
<g id="graph0" class="graph" transform="scale(1 1) rotate(0) translate(4 770)">
<title>dependency&#45;cruiser output</title>
<polygon fill="white" stroke="none" points="-4,4 -4,-770 973.25,-770 973.25,4 -4,4"/>
<g id="clust1" class="cluster">
<title>cluster_src</title>
<path fill="#ffffff" stroke="black" stroke-width="2" d="M20,-8C20,-8 949.25,-8 949.25,-8 955.25,-8 961.25,-14 961.25,-20 961.25,-20 961.25,-746 961.25,-746 961.25,-752 955.25,-758 949.25,-758 949.25,-758 20,-758 20,-758 14,-758 8,-752 8,-746 8,-746 8,-20 8,-20 8,-14 14,-8 20,-8"/>
<text text-anchor="middle" x="484.62" y="-745.45" font-family="Helvetica,sans-Serif" font-weight="bold" font-size="9.00">src</text>
</g>
<g id="clust2" class="cluster">
<title>cluster_src/application</title>
<path fill="#ffffff" stroke="black" stroke-width="2" d="M28,-114C28,-114 414.5,-114 414.5,-114 420.5,-114 426.5,-120 426.5,-126 426.5,-126 426.5,-327 426.5,-327 426.5,-333 420.5,-339 414.5,-339 414.5,-339 28,-339 28,-339 22,-339 16,-333 16,-327 16,-327 16,-126 16,-126 16,-120 22,-114 28,-114"/>
<text text-anchor="middle" x="221.25" y="-326.45" font-family="Helvetica,sans-Serif" font-weight="bold" font-size="9.00">application</text>
</g>
<g id="clust3" class="cluster">
<title>cluster_src/application/ports</title>
<path fill="#ffffff" stroke="black" stroke-width="2" d="M331,-226C331,-226 406.5,-226 406.5,-226 412.5,-226 418.5,-232 418.5,-238 418.5,-238 418.5,-300 418.5,-300 418.5,-306 412.5,-312 406.5,-312 406.5,-312 331,-312 331,-312 325,-312 319,-306 319,-300 319,-300 319,-238 319,-238 319,-232 325,-226 331,-226"/>
<text text-anchor="middle" x="368.75" y="-299.45" font-family="Helvetica,sans-Serif" font-weight="bold" font-size="9.00">ports</text>
</g>
<g id="clust5" class="cluster">
<title>cluster_src/application/stores</title>
<path fill="#ffffff" stroke="black" stroke-width="2" d="M36,-247C36,-247 102.5,-247 102.5,-247 108.5,-247 114.5,-253 114.5,-259 114.5,-259 114.5,-290 114.5,-290 114.5,-296 108.5,-302 102.5,-302 102.5,-302 36,-302 36,-302 30,-302 24,-296 24,-290 24,-290 24,-259 24,-259 24,-253 30,-247 36,-247"/>
<text text-anchor="middle" x="69.25" y="-289.45" font-family="Helvetica,sans-Serif" font-weight="bold" font-size="9.00">stores</text>
</g>
<g id="clust4" class="cluster">
<title>cluster_src/application/services</title>
<path fill="#ffffff" stroke="black" stroke-width="2" d="M169.38,-122C169.38,-122 259.88,-122 259.88,-122 265.88,-122 271.88,-128 271.88,-134 271.88,-134 271.88,-196 271.88,-196 271.88,-202 265.88,-208 259.88,-208 259.88,-208 169.38,-208 169.38,-208 163.38,-208 157.38,-202 157.38,-196 157.38,-196 157.38,-134 157.38,-134 157.38,-128 163.38,-122 169.38,-122"/>
<text text-anchor="middle" x="214.62" y="-195.45" font-family="Helvetica,sans-Serif" font-weight="bold" font-size="9.00">services</text>
</g>
<g id="clust6" class="cluster">
<title>cluster_src/application/usecases</title>
<path fill="#ffffff" stroke="black" stroke-width="2" d="M134.5,-216C134.5,-216 294.75,-216 294.75,-216 300.75,-216 306.75,-222 306.75,-228 306.75,-228 306.75,-290 306.75,-290 306.75,-296 300.75,-302 294.75,-302 294.75,-302 134.5,-302 134.5,-302 128.5,-302 122.5,-296 122.5,-290 122.5,-290 122.5,-228 122.5,-228 122.5,-222 128.5,-216 134.5,-216"/>
<text text-anchor="middle" x="214.62" y="-289.45" font-family="Helvetica,sans-Serif" font-weight="bold" font-size="9.00">usecases</text>
</g>
<g id="clust7" class="cluster">
<title>cluster_src/domain</title>
<path fill="#ffffff" stroke="black" stroke-width="2" d="M337.75,-391C337.75,-391 941.25,-391 941.25,-391 947.25,-391 953.25,-397 953.25,-403 953.25,-403 953.25,-719 953.25,-719 953.25,-725 947.25,-731 941.25,-731 941.25,-731 337.75,-731 337.75,-731 331.75,-731 325.75,-725 325.75,-719 325.75,-719 325.75,-403 325.75,-403 325.75,-397 331.75,-391 337.75,-391"/>
<text text-anchor="middle" x="639.5" y="-718.45" font-family="Helvetica,sans-Serif" font-weight="bold" font-size="9.00">domain</text>
</g>
<g id="clust8" class="cluster">
<title>cluster_src/domain/constants</title>
<path fill="#ffffff" stroke="black" stroke-width="2" d="M345.75,-649C345.75,-649 391.75,-649 391.75,-649 397.75,-649 403.75,-655 403.75,-661 403.75,-661 403.75,-692 403.75,-692 403.75,-698 397.75,-704 391.75,-704 391.75,-704 345.75,-704 345.75,-704 339.75,-704 333.75,-698 333.75,-692 333.75,-692 333.75,-661 333.75,-661 333.75,-655 339.75,-649 345.75,-649"/>
<text text-anchor="middle" x="368.75" y="-691.45" font-family="Helvetica,sans-Serif" font-weight="bold" font-size="9.00">constants</text>
</g>
<g id="clust9" class="cluster">
<title>cluster_src/domain/entities</title>
<path fill="#ffffff" stroke="black" stroke-width="2" d="M588.75,-399C588.75,-399 933.25,-399 933.25,-399 939.25,-399 945.25,-405 945.25,-411 945.25,-411 945.25,-484 945.25,-484 945.25,-490 939.25,-496 933.25,-496 933.25,-496 588.75,-496 588.75,-496 582.75,-496 576.75,-490 576.75,-484 576.75,-484 576.75,-411 576.75,-411 576.75,-405 582.75,-399 588.75,-399"/>
<text text-anchor="middle" x="761" y="-483.45" font-family="Helvetica,sans-Serif" font-weight="bold" font-size="9.00">entities</text>
</g>
<g id="clust10" class="cluster">
<title>cluster_src/domain/repositories</title>
<path fill="#ffffff" stroke="black" stroke-width="2" d="M345.75,-524C345.75,-524 548.5,-524 548.5,-524 554.5,-524 560.5,-530 560.5,-536 560.5,-536 560.5,-629 560.5,-629 560.5,-635 554.5,-641 548.5,-641 548.5,-641 345.75,-641 345.75,-641 339.75,-641 333.75,-635 333.75,-629 333.75,-629 333.75,-536 333.75,-536 333.75,-530 339.75,-524 345.75,-524"/>
<text text-anchor="middle" x="447.12" y="-628.45" font-family="Helvetica,sans-Serif" font-weight="bold" font-size="9.00">repositories</text>
</g>
<g id="clust11" class="cluster">
<title>cluster_src/domain/valueObjects</title>
<path fill="#ffffff" stroke="black" stroke-width="2" d="M345.75,-399C345.75,-399 556.75,-399 556.75,-399 562.75,-399 568.75,-405 568.75,-411 568.75,-411 568.75,-504 568.75,-504 568.75,-510 562.75,-516 556.75,-516 556.75,-516 345.75,-516 345.75,-516 339.75,-516 333.75,-510 333.75,-504 333.75,-504 333.75,-411 333.75,-411 333.75,-405 339.75,-399 345.75,-399"/>
<text text-anchor="middle" x="451.25" y="-503.45" font-family="Helvetica,sans-Serif" font-weight="bold" font-size="9.00">valueObjects</text>
</g>
<g id="clust12" class="cluster">
<title>cluster_src/infrastructure</title>
<path fill="#ffffff" stroke="black" stroke-width="2" d="M152,-353C152,-353 277.25,-353 277.25,-353 283.25,-353 289.25,-359 289.25,-365 289.25,-365 289.25,-651 289.25,-651 289.25,-657 283.25,-663 277.25,-663 277.25,-663 152,-663 152,-663 146,-663 140,-657 140,-651 140,-651 140,-365 140,-365 140,-359 146,-353 152,-353"/>
<text text-anchor="middle" x="214.62" y="-650.45" font-family="Helvetica,sans-Serif" font-weight="bold" font-size="9.00">infrastructure</text>
</g>
<g id="clust13" class="cluster">
<title>cluster_src/infrastructure/adapters</title>
<path fill="#ffffff" stroke="black" stroke-width="2" d="M162.25,-581C162.25,-581 267,-581 267,-581 273,-581 279,-587 279,-593 279,-593 279,-624 279,-624 279,-630 273,-636 267,-636 267,-636 162.25,-636 162.25,-636 156.25,-636 150.25,-630 150.25,-624 150.25,-624 150.25,-593 150.25,-593 150.25,-587 156.25,-581 162.25,-581"/>
<text text-anchor="middle" x="214.62" y="-623.45" font-family="Helvetica,sans-Serif" font-weight="bold" font-size="9.00">adapters</text>
</g>
<g id="clust15" class="cluster">
<title>cluster_src/infrastructure/services</title>
<path fill="#ffffff" stroke="black" stroke-width="2" d="M160,-518C160,-518 269.25,-518 269.25,-518 275.25,-518 281.25,-524 281.25,-530 281.25,-530 281.25,-561 281.25,-561 281.25,-567 275.25,-573 269.25,-573 269.25,-573 160,-573 160,-573 154,-573 148,-567 148,-561 148,-561 148,-530 148,-530 148,-524 154,-518 160,-518"/>
<text text-anchor="middle" x="214.62" y="-560.45" font-family="Helvetica,sans-Serif" font-weight="bold" font-size="9.00">services</text>
</g>
<g id="clust14" class="cluster">
<title>cluster_src/infrastructure/repository</title>
<path fill="#ffffff" stroke="black" stroke-width="2" d="M164.88,-424C164.88,-424 264.38,-424 264.38,-424 270.38,-424 276.38,-430 276.38,-436 276.38,-436 276.38,-498 276.38,-498 276.38,-504 270.38,-510 264.38,-510 264.38,-510 164.88,-510 164.88,-510 158.88,-510 152.88,-504 152.88,-498 152.88,-498 152.88,-436 152.88,-436 152.88,-430 158.88,-424 164.88,-424"/>
<text text-anchor="middle" x="214.62" y="-497.45" font-family="Helvetica,sans-Serif" font-weight="bold" font-size="9.00">repository</text>
</g>
<g id="clust16" class="cluster">
<title>cluster_src/infrastructure/video</title>
<path fill="#ffffff" stroke="black" stroke-width="2" d="M172.75,-361C172.75,-361 256.5,-361 256.5,-361 262.5,-361 268.5,-367 268.5,-373 268.5,-373 268.5,-404 268.5,-404 268.5,-410 262.5,-416 256.5,-416 256.5,-416 172.75,-416 172.75,-416 166.75,-416 160.75,-410 160.75,-404 160.75,-404 160.75,-373 160.75,-373 160.75,-367 166.75,-361 172.75,-361"/>
<text text-anchor="middle" x="214.62" y="-403.45" font-family="Helvetica,sans-Serif" font-weight="bold" font-size="9.00">video</text>
</g>
<g id="clust17" class="cluster">
<title>cluster_src/presentation</title>
<path fill="#ffffff" stroke="black" stroke-width="2" d="M326.75,-16C326.75,-16 544.5,-16 544.5,-16 550.5,-16 556.5,-22 556.5,-28 556.5,-28 556.5,-94 556.5,-94 556.5,-100 550.5,-106 544.5,-106 544.5,-106 326.75,-106 326.75,-106 320.75,-106 314.75,-100 314.75,-94 314.75,-94 314.75,-28 314.75,-28 314.75,-22 320.75,-16 326.75,-16"/>
<text text-anchor="middle" x="435.62" y="-93.45" font-family="Helvetica,sans-Serif" font-weight="bold" font-size="9.00">presentation</text>
</g>
<g id="clust18" class="cluster">
<title>cluster_src/presentation/components</title>
<path fill="#ffffff" stroke="black" stroke-width="2" d="M334.75,-24C334.75,-24 536.5,-24 536.5,-24 542.5,-24 548.5,-30 548.5,-36 548.5,-36 548.5,-67 548.5,-67 548.5,-73 542.5,-79 536.5,-79 536.5,-79 334.75,-79 334.75,-79 328.75,-79 322.75,-73 322.75,-67 322.75,-67 322.75,-36 322.75,-36 322.75,-30 328.75,-24 334.75,-24"/>
<text text-anchor="middle" x="435.62" y="-66.45" font-family="Helvetica,sans-Serif" font-weight="bold" font-size="9.00">components</text>
</g>
<!-- src/application/ports/IVideoParser.ts -->
<g id="node1" class="node">
<title>src/application/ports/IVideoParser.ts</title>
<g id="a_node1"><a xlink:href="src/application/ports/IVideoParser.ts" xlink:title="IVideoParser.ts">
<path fill="#ddfeff" stroke="black" d="M401.83,-253.62C401.83,-253.62 335.67,-253.62 335.67,-253.62 332.46,-253.62 329.25,-250.42 329.25,-247.21 329.25,-247.21 329.25,-240.79 329.25,-240.79 329.25,-237.58 332.46,-234.38 335.67,-234.38 335.67,-234.38 401.83,-234.38 401.83,-234.38 405.04,-234.38 408.25,-237.58 408.25,-240.79 408.25,-240.79 408.25,-247.21 408.25,-247.21 408.25,-250.42 405.04,-253.62 401.83,-253.62"/>
<text text-anchor="start" x="337.25" y="-241.07" font-family="Helvetica,sans-Serif" font-size="9.00">IVideoParser.ts</text>
</a>
</g>
</g>
<!-- src/domain/entities/index.ts -->
<g id="node2" class="node">
<title>src/domain/entities/index.ts</title>
<g id="a_node2"><a xlink:href="src/domain/entities/index.ts" xlink:title="index.ts">
<path fill="#ddfeff" stroke="black" d="M632.33,-426.62C632.33,-426.62 591.17,-426.62 591.17,-426.62 587.96,-426.62 584.75,-423.42 584.75,-420.21 584.75,-420.21 584.75,-413.79 584.75,-413.79 584.75,-410.58 587.96,-407.38 591.17,-407.38 591.17,-407.38 632.33,-407.38 632.33,-407.38 635.54,-407.38 638.75,-410.58 638.75,-413.79 638.75,-413.79 638.75,-420.21 638.75,-420.21 638.75,-423.42 635.54,-426.62 632.33,-426.62"/>
<text text-anchor="start" x="596" y="-414.07" font-family="Helvetica,sans-Serif" font-size="9.00">index.ts</text>
</a>
</g>
</g>
<!-- src/application/ports/IVideoParser.ts&#45;&gt;src/domain/entities/index.ts -->
<g id="edge1" class="edge">
<title>src/application/ports/IVideoParser.ts&#45;&gt;src/domain/entities/index.ts</title>
<path fill="none" stroke="#000000" stroke-opacity="0.200000" d="M408.5,-240.43C452.75,-238.58 524.68,-242.64 568.75,-282 603.06,-312.64 609.64,-370.75 610.71,-399.71"/>
<polygon fill="none" stroke="#000000" stroke-opacity="0.200000" points="608.61,-399.59 610.85,-405.54 612.8,-399.49 608.61,-399.59"/>
</g>
<!-- src/domain/entities/MetadataEntity.ts -->
<g id="node11" class="node">
<title>src/domain/entities/MetadataEntity.ts</title>
<g id="a_node11"><a xlink:href="src/domain/entities/MetadataEntity.ts" xlink:title="MetadataEntity.ts">
<path fill="#ddfeff" stroke="black" d="M930.83,-431.62C930.83,-431.62 858.67,-431.62 858.67,-431.62 855.46,-431.62 852.25,-428.42 852.25,-425.21 852.25,-425.21 852.25,-418.79 852.25,-418.79 852.25,-415.58 855.46,-412.38 858.67,-412.38 858.67,-412.38 930.83,-412.38 930.83,-412.38 934.04,-412.38 937.25,-415.58 937.25,-418.79 937.25,-418.79 937.25,-425.21 937.25,-425.21 937.25,-428.42 934.04,-431.62 930.83,-431.62"/>
<text text-anchor="start" x="860.25" y="-419.07" font-family="Helvetica,sans-Serif" font-size="9.00">MetadataEntity.ts</text>
</a>
</g>
</g>
<!-- src/domain/entities/index.ts&#45;&gt;src/domain/entities/MetadataEntity.ts -->
<g id="edge18" class="edge">
<title>src/domain/entities/index.ts&#45;&gt;src/domain/entities/MetadataEntity.ts</title>
<path fill="none" stroke="#000000" stroke-opacity="0.200000" d="M639.18,-415.46C643.38,-415.27 647.68,-415.1 651.75,-415 718.49,-413.29 795.58,-416.4 844.48,-419"/>
<polygon fill="none" stroke="#000000" stroke-opacity="0.200000" points="844.17,-421.09 850.27,-419.32 844.39,-416.89 844.17,-421.09"/>
</g>
<!-- src/domain/entities/ParsedVideo.ts -->
<g id="node12" class="node">
<title>src/domain/entities/ParsedVideo.ts</title>
<g id="a_node12"><a xlink:href="src/domain/entities/ParsedVideo.ts" xlink:title="ParsedVideo.ts">
<path fill="#ddfeff" stroke="black" d="M724.33,-440.62C724.33,-440.62 658.17,-440.62 658.17,-440.62 654.96,-440.62 651.75,-437.42 651.75,-434.21 651.75,-434.21 651.75,-427.79 651.75,-427.79 651.75,-424.58 654.96,-421.38 658.17,-421.38 658.17,-421.38 724.33,-421.38 724.33,-421.38 727.54,-421.38 730.75,-424.58 730.75,-427.79 730.75,-427.79 730.75,-434.21 730.75,-434.21 730.75,-437.42 727.54,-440.62 724.33,-440.62"/>
<text text-anchor="start" x="659.75" y="-428.07" font-family="Helvetica,sans-Serif" font-size="9.00">ParsedVideo.ts</text>
</a>
</g>
</g>
<!-- src/domain/entities/index.ts&#45;&gt;src/domain/entities/ParsedVideo.ts -->
<g id="edge19" class="edge">
<title>src/domain/entities/index.ts&#45;&gt;src/domain/entities/ParsedVideo.ts</title>
<path fill="none" stroke="#000000" stroke-opacity="0.200000" d="M638.99,-421.74C640.76,-422.06 642.56,-422.39 644.39,-422.72"/>
<polygon fill="none" stroke="#000000" stroke-opacity="0.200000" points="643.75,-424.73 650.02,-423.73 644.49,-420.6 643.75,-424.73"/>
</g>
<!-- src/domain/entities/VideoStorageDto.ts -->
<g id="node13" class="node">
<title>src/domain/entities/VideoStorageDto.ts</title>
<g id="a_node13"><a xlink:href="src/domain/entities/VideoStorageDto.ts" xlink:title="VideoStorageDto.ts">
<path fill="#ddfeff" stroke="black" d="M832.83,-447.62C832.83,-447.62 750.17,-447.62 750.17,-447.62 746.96,-447.62 743.75,-444.42 743.75,-441.21 743.75,-441.21 743.75,-434.79 743.75,-434.79 743.75,-431.58 746.96,-428.38 750.17,-428.38 750.17,-428.38 832.83,-428.38 832.83,-428.38 836.04,-428.38 839.25,-431.58 839.25,-434.79 839.25,-434.79 839.25,-441.21 839.25,-441.21 839.25,-444.42 836.04,-447.62 832.83,-447.62"/>
<text text-anchor="start" x="751.75" y="-435.07" font-family="Helvetica,sans-Serif" font-size="9.00">VideoStorageDto.ts</text>
</a>
</g>
</g>
<!-- src/domain/entities/index.ts&#45;&gt;src/domain/entities/VideoStorageDto.ts -->
<g id="edge21" class="edge">
<title>src/domain/entities/index.ts&#45;&gt;src/domain/entities/VideoStorageDto.ts</title>
<path fill="none" stroke="#000000" stroke-opacity="0.200000" d="M621.93,-426.93C629.22,-434.04 640.1,-443.04 651.75,-447 681.96,-457.27 717.97,-454.54 745.73,-449.49"/>
<polygon fill="none" stroke="#000000" stroke-opacity="0.200000" points="745.99,-451.58 751.48,-448.38 745.19,-447.46 745.99,-451.58"/>
</g>
<!-- src/domain/entities/VideoEntity.ts -->
<g id="node14" class="node">
<title>src/domain/entities/VideoEntity.ts</title>
<g id="a_node14"><a xlink:href="src/domain/entities/VideoEntity.ts" xlink:title="VideoEntity.ts">
<path fill="#ddfeff" stroke="black" d="M923.71,-465.62C923.71,-465.62 865.79,-465.62 865.79,-465.62 862.58,-465.62 859.38,-462.42 859.38,-459.21 859.38,-459.21 859.38,-452.79 859.38,-452.79 859.38,-449.58 862.58,-446.38 865.79,-446.38 865.79,-446.38 923.71,-446.38 923.71,-446.38 926.92,-446.38 930.12,-449.58 930.12,-452.79 930.12,-452.79 930.12,-459.21 930.12,-459.21 930.12,-462.42 926.92,-465.62 923.71,-465.62"/>
<text text-anchor="start" x="867.38" y="-453.07" font-family="Helvetica,sans-Serif" font-size="9.00">VideoEntity.ts</text>
</a>
</g>
</g>
<!-- src/domain/entities/index.ts&#45;&gt;src/domain/entities/VideoEntity.ts -->
<g id="edge20" class="edge">
<title>src/domain/entities/index.ts&#45;&gt;src/domain/entities/VideoEntity.ts</title>
<path fill="none" stroke="#000000" stroke-opacity="0.200000" d="M619.77,-427.03C626.72,-436 638.25,-448.55 651.75,-454 717.53,-480.55 801.8,-472.95 851.56,-464.7"/>
<polygon fill="none" stroke="#000000" stroke-opacity="0.200000" points="851.9,-466.77 857.46,-463.68 851.19,-462.63 851.9,-466.77"/>
</g>
<!-- src/application/ports/IVideoStorage.ts -->
<g id="node3" class="node">
<title>src/application/ports/IVideoStorage.ts</title>
<g id="a_node3"><a xlink:href="src/application/ports/IVideoStorage.ts" xlink:title="IVideoStorage.ts">
<path fill="#ddfeff" stroke="black" d="M404.08,-284.62C404.08,-284.62 333.42,-284.62 333.42,-284.62 330.21,-284.62 327,-281.42 327,-278.21 327,-278.21 327,-271.79 327,-271.79 327,-268.58 330.21,-265.38 333.42,-265.38 333.42,-265.38 404.08,-265.38 404.08,-265.38 407.29,-265.38 410.5,-268.58 410.5,-271.79 410.5,-271.79 410.5,-278.21 410.5,-278.21 410.5,-281.42 407.29,-284.62 404.08,-284.62"/>
<text text-anchor="start" x="335" y="-272.07" font-family="Helvetica,sans-Serif" font-size="9.00">IVideoStorage.ts</text>
</a>
</g>
</g>
<!-- src/application/ports/IVideoStorage.ts&#45;&gt;src/domain/entities/index.ts -->
<g id="edge2" class="edge">
<title>src/application/ports/IVideoStorage.ts&#45;&gt;src/domain/entities/index.ts</title>
<path fill="none" stroke="#000000" stroke-opacity="0.200000" d="M410.88,-280.59C454.29,-288.31 522.69,-305.89 568.75,-344 586.73,-358.87 598.61,-383.57 605.01,-400.06"/>
<polygon fill="none" stroke="#000000" stroke-opacity="0.200000" points="603,-400.67 607.05,-405.57 606.94,-399.22 603,-400.67"/>
</g>
<!-- src/application/services/FileParserService.ts -->
<g id="node4" class="node">
<title>src/application/services/FileParserService.ts</title>
<g id="a_node4"><a xlink:href="src/application/services/FileParserService.ts" xlink:title="FileParserService.ts">
<path fill="#ddfeff" stroke="black" d="M257.46,-180.62C257.46,-180.62 171.79,-180.62 171.79,-180.62 168.58,-180.62 165.38,-177.42 165.38,-174.21 165.38,-174.21 165.38,-167.79 165.38,-167.79 165.38,-164.58 168.58,-161.38 171.79,-161.38 171.79,-161.38 257.46,-161.38 257.46,-161.38 260.67,-161.38 263.88,-164.58 263.88,-167.79 263.88,-167.79 263.88,-174.21 263.88,-174.21 263.88,-177.42 260.67,-180.62 257.46,-180.62"/>
<text text-anchor="start" x="173.38" y="-168.07" font-family="Helvetica,sans-Serif" font-size="9.00">FileParserService.ts</text>
</a>
</g>
</g>
<!-- src/application/services/FileParserService.ts&#45;&gt;src/application/ports/IVideoParser.ts -->
<g id="edge3" class="edge">
<title>src/application/services/FileParserService.ts&#45;&gt;src/application/ports/IVideoParser.ts</title>
<path fill="none" stroke="#000000" stroke-opacity="0.200000" d="M238.21,-181.12C256.72,-189.48 283.55,-201.76 306.75,-213 318.35,-218.62 331.07,-225.04 341.88,-230.58"/>
<polygon fill="none" stroke="#000000" stroke-opacity="0.200000" points="340.7,-232.33 346.99,-233.2 342.62,-228.59 340.7,-232.33"/>
</g>
<!-- src/application/services/FileParserService.ts&#45;&gt;src/domain/entities/index.ts -->
<g id="edge4" class="edge">
<title>src/application/services/FileParserService.ts&#45;&gt;src/domain/entities/index.ts</title>
<path fill="none" stroke="#000000" stroke-opacity="0.200000" d="M264.22,-167.45C350.37,-162.26 524.95,-157.05 568.75,-196 599.17,-223.05 607.9,-352.56 610.09,-399.75"/>
<polygon fill="none" stroke="#000000" stroke-opacity="0.200000" points="607.98,-399.66 610.34,-405.57 612.18,-399.48 607.98,-399.66"/>
</g>
<!-- src/application/services/FiltersService.ts -->
<g id="node5" class="node">
<title>src/application/services/FiltersService.ts</title>
<g id="a_node5"><a xlink:href="src/application/services/FiltersService.ts" xlink:title="FiltersService.ts">
<path fill="#ddfeff" stroke="black" d="M248.83,-149.62C248.83,-149.62 180.42,-149.62 180.42,-149.62 177.21,-149.62 174,-146.42 174,-143.21 174,-143.21 174,-136.79 174,-136.79 174,-133.58 177.21,-130.38 180.42,-130.38 180.42,-130.38 248.83,-130.38 248.83,-130.38 252.04,-130.38 255.25,-133.58 255.25,-136.79 255.25,-136.79 255.25,-143.21 255.25,-143.21 255.25,-146.42 252.04,-149.62 248.83,-149.62"/>
<text text-anchor="start" x="182" y="-137.07" font-family="Helvetica,sans-Serif" font-size="9.00">FiltersService.ts</text>
</a>
</g>
</g>
<!-- src/application/services/FiltersService.ts&#45;&gt;src/domain/entities/index.ts -->
<g id="edge5" class="edge">
<title>src/application/services/FiltersService.ts&#45;&gt;src/domain/entities/index.ts</title>
<path fill="none" stroke="#000000" stroke-opacity="0.200000" d="M255.47,-136.55C338.01,-130.32 523.75,-121.33 568.75,-162 603.98,-193.84 609.66,-347.37 610.58,-399.58"/>
<polygon fill="none" stroke="#000000" stroke-opacity="0.200000" points="608.48,-399.57 610.66,-405.54 612.68,-399.51 608.48,-399.57"/>
</g>
<!-- src/application/stores/videosStore.ts -->
<g id="node6" class="node">
<title>src/application/stores/videosStore.ts</title>
<g id="a_node6"><a xlink:href="src/application/stores/videosStore.ts" xlink:title="videosStore.ts">
<path fill="#ddfeff" stroke="black" d="M100.08,-274.62C100.08,-274.62 38.42,-274.62 38.42,-274.62 35.21,-274.62 32,-271.42 32,-268.21 32,-268.21 32,-261.79 32,-261.79 32,-258.58 35.21,-255.38 38.42,-255.38 38.42,-255.38 100.08,-255.38 100.08,-255.38 103.29,-255.38 106.5,-258.58 106.5,-261.79 106.5,-261.79 106.5,-268.21 106.5,-268.21 106.5,-271.42 103.29,-274.62 100.08,-274.62"/>
<text text-anchor="start" x="40" y="-262.07" font-family="Helvetica,sans-Serif" font-size="9.00">videosStore.ts</text>
</a>
</g>
</g>
<!-- src/application/stores/videosStore.ts&#45;&gt;src/domain/entities/index.ts -->
<g id="edge9" class="edge">
<title>src/application/stores/videosStore.ts&#45;&gt;src/domain/entities/index.ts</title>
<path fill="none" stroke="#000000" stroke-opacity="0.200000" d="M70.24,-254.93C70.84,-227.47 76.72,-151.24 122.5,-119 162.91,-90.54 542,-104.96 568.75,-129 609.05,-165.21 611.3,-342.86 610.97,-399.57"/>
<polygon fill="none" stroke="#000000" stroke-opacity="0.200000" points="608.88,-399.49 610.92,-405.51 613.08,-399.53 608.88,-399.49"/>
</g>
<!-- src/application/stores/videosStore.ts&#45;&gt;src/application/ports/IVideoStorage.ts -->
<g id="edge6" class="edge">
<title>src/application/stores/videosStore.ts&#45;&gt;src/application/ports/IVideoStorage.ts</title>
<path fill="none" stroke="#000000" stroke-opacity="0.200000" d="M79.12,-274.82C88.7,-284.62 104.97,-299.06 122.5,-305 200.06,-331.28 226.99,-323.55 306.75,-305 320.59,-301.78 334.9,-294.96 346.18,-288.63"/>
<polygon fill="none" stroke="#000000" stroke-opacity="0.200000" points="347,-290.58 351.13,-285.75 344.89,-286.95 347,-290.58"/>
</g>
<!-- src/application/usecases/AddVideosFromFilesUseCase.ts -->
<g id="node7" class="node">
<title>src/application/usecases/AddVideosFromFilesUseCase.ts</title>
<g id="a_node7"><a xlink:href="src/application/usecases/AddVideosFromFilesUseCase.ts" xlink:title="AddVideosFromFilesUseCase.ts">
<path fill="#ddfeff" stroke="black" d="M284.08,-243.62C284.08,-243.62 145.17,-243.62 145.17,-243.62 141.96,-243.62 138.75,-240.42 138.75,-237.21 138.75,-237.21 138.75,-230.79 138.75,-230.79 138.75,-227.58 141.96,-224.38 145.17,-224.38 145.17,-224.38 284.08,-224.38 284.08,-224.38 287.29,-224.38 290.5,-227.58 290.5,-230.79 290.5,-230.79 290.5,-237.21 290.5,-237.21 290.5,-240.42 287.29,-243.62 284.08,-243.62"/>
<text text-anchor="start" x="146.75" y="-231.07" font-family="Helvetica,sans-Serif" font-size="9.00">AddVideosFromFilesUseCase.ts</text>
</a>
</g>
</g>
<!-- src/application/stores/videosStore.ts&#45;&gt;src/application/usecases/AddVideosFromFilesUseCase.ts -->
<g id="edge7" class="edge">
<title>src/application/stores/videosStore.ts&#45;&gt;src/application/usecases/AddVideosFromFilesUseCase.ts</title>
<path fill="none" stroke="#000000" stroke-width="2" stroke-opacity="0.200000" d="M100.73,-254.92C107.83,-252.78 115.39,-250.67 122.5,-249 127.4,-247.85 132.47,-246.76 137.59,-245.73"/>
<polygon fill="#000000" fill-opacity="0.200000" stroke="#000000" stroke-width="2" stroke-opacity="0.200000" points="137.78,-247.83 143.27,-244.62 136.98,-243.71 137.78,-247.83"/>
</g>
<!-- src/application/usecases/UpdateVideoThumbnailsUseCase.ts -->
<g id="node8" class="node">
<title>src/application/usecases/UpdateVideoThumbnailsUseCase.ts</title>
<g id="a_node8"><a xlink:href="src/application/usecases/UpdateVideoThumbnailsUseCase.ts" xlink:title="UpdateVideoThumbnailsUseCase.ts">
<path fill="#ddfeff" stroke="black" d="M292.33,-274.62C292.33,-274.62 136.92,-274.62 136.92,-274.62 133.71,-274.62 130.5,-271.42 130.5,-268.21 130.5,-268.21 130.5,-261.79 130.5,-261.79 130.5,-258.58 133.71,-255.38 136.92,-255.38 136.92,-255.38 292.33,-255.38 292.33,-255.38 295.54,-255.38 298.75,-258.58 298.75,-261.79 298.75,-261.79 298.75,-268.21 298.75,-268.21 298.75,-271.42 295.54,-274.62 292.33,-274.62"/>
<text text-anchor="start" x="138.5" y="-262.07" font-family="Helvetica,sans-Serif" font-size="9.00">UpdateVideoThumbnailsUseCase.ts</text>
</a>
</g>
</g>
<!-- src/application/stores/videosStore.ts&#45;&gt;src/application/usecases/UpdateVideoThumbnailsUseCase.ts -->
<g id="edge8" class="edge">
<title>src/application/stores/videosStore.ts&#45;&gt;src/application/usecases/UpdateVideoThumbnailsUseCase.ts</title>
<path fill="none" stroke="#000000" stroke-width="2" stroke-opacity="0.200000" d="M106.8,-265C111.48,-265 116.42,-265 121.51,-265"/>
<polygon fill="#000000" fill-opacity="0.200000" stroke="#000000" stroke-width="2" stroke-opacity="0.200000" points="121.18,-267.1 127.18,-265 121.18,-262.9 121.18,-267.1"/>
</g>
<!-- src/infrastructure/adapters/VideoStorageAdapter.ts -->
<g id="node9" class="node">
<title>src/infrastructure/adapters/VideoStorageAdapter.ts</title>
<g id="a_node9"><a xlink:href="src/infrastructure/adapters/VideoStorageAdapter.ts" xlink:title="VideoStorageAdapter.ts">
<path fill="#ddfeff" stroke="black" d="M264.58,-608.62C264.58,-608.62 164.67,-608.62 164.67,-608.62 161.46,-608.62 158.25,-605.42 158.25,-602.21 158.25,-602.21 158.25,-595.79 158.25,-595.79 158.25,-592.58 161.46,-589.38 164.67,-589.38 164.67,-589.38 264.58,-589.38 264.58,-589.38 267.79,-589.38 271,-592.58 271,-595.79 271,-595.79 271,-602.21 271,-602.21 271,-605.42 267.79,-608.62 264.58,-608.62"/>
<text text-anchor="start" x="166.25" y="-596.08" font-family="Helvetica,sans-Serif" font-size="9.00">VideoStorageAdapter.ts</text>
</a>
</g>
</g>
<!-- src/application/stores/videosStore.ts&#45;&gt;src/infrastructure/adapters/VideoStorageAdapter.ts -->
<g id="edge10" class="edge">
<title>src/application/stores/videosStore.ts&#45;&gt;src/infrastructure/adapters/VideoStorageAdapter.ts</title>
<path fill="none" stroke="#000000" stroke-width="2" stroke-opacity="0.200000" d="M70.51,-274.94C71.95,-322.96 80.56,-530.52 122.5,-576 129.83,-583.95 139.48,-589.32 149.74,-592.93"/>
<polygon fill="#000000" fill-opacity="0.200000" stroke="#000000" stroke-width="2" stroke-opacity="0.200000" points="148.83,-594.84 155.18,-594.57 150.05,-590.82 148.83,-594.84"/>
</g>
<!-- src/application/usecases/AddVideosFromFilesUseCase.ts&#45;&gt;src/application/ports/IVideoParser.ts -->
<g id="edge11" class="edge">
<title>src/application/usecases/AddVideosFromFilesUseCase.ts&#45;&gt;src/application/ports/IVideoParser.ts</title>
<path fill="none" stroke="#000000" stroke-opacity="0.200000" d="M290.8,-238.94C301.29,-239.63 311.82,-240.32 321.56,-240.96"/>
<polygon fill="none" stroke="#000000" stroke-opacity="0.200000" points="321.21,-243.05 327.34,-241.34 321.49,-238.85 321.21,-243.05"/>
</g>
<!-- src/application/usecases/AddVideosFromFilesUseCase.ts&#45;&gt;src/domain/entities/index.ts -->
<g id="edge12" class="edge">
<title>src/application/usecases/AddVideosFromFilesUseCase.ts&#45;&gt;src/domain/entities/index.ts</title>
<path fill="none" stroke="#000000" stroke-opacity="0.200000" d="M256.34,-223.88C274.15,-219.95 295.36,-215.94 314.75,-214 370.92,-208.39 525.41,-181.83 568.75,-218 596.63,-241.27 606.82,-355.62 609.75,-399.66"/>
<polygon fill="none" stroke="#000000" stroke-opacity="0.200000" points="607.65,-399.67 610.12,-405.52 611.84,-399.4 607.65,-399.67"/>
</g>
<!-- src/application/usecases/UpdateVideoThumbnailsUseCase.ts&#45;&gt;src/domain/entities/index.ts -->
<g id="edge14" class="edge">
<title>src/application/usecases/UpdateVideoThumbnailsUseCase.ts&#45;&gt;src/domain/entities/index.ts</title>
<path fill="none" stroke="#000000" stroke-opacity="0.200000" d="M299.04,-255.67C301.76,-254 304.35,-252.12 306.75,-250 316.14,-241.72 304.72,-230.49 314.75,-223 339.91,-204.21 568.18,-236.5 568.75,-237 593.29,-258.52 605.35,-359.51 609.27,-400.07"/>
<polygon fill="none" stroke="#000000" stroke-opacity="0.200000" points="607.16,-400.05 609.81,-405.83 611.34,-399.66 607.16,-400.05"/>
</g>
<!-- src/application/usecases/UpdateVideoThumbnailsUseCase.ts&#45;&gt;src/application/ports/IVideoStorage.ts -->
<g id="edge13" class="edge">
<title>src/application/usecases/UpdateVideoThumbnailsUseCase.ts&#45;&gt;src/application/ports/IVideoStorage.ts</title>
<path fill="none" stroke="#000000" stroke-opacity="0.200000" d="M298.81,-270.47C305.94,-270.94 312.99,-271.4 319.7,-271.84"/>
<polygon fill="none" stroke="#000000" stroke-opacity="0.200000" points="319.2,-273.91 325.32,-272.21 319.47,-269.72 319.2,-273.91"/>
</g>
<!-- src/infrastructure/adapters/VideoStorageAdapter.ts&#45;&gt;src/domain/entities/index.ts -->
<g id="edge33" class="edge">
<title>src/infrastructure/adapters/VideoStorageAdapter.ts&#45;&gt;src/domain/entities/index.ts</title>
<path fill="none" stroke="#000000" stroke-opacity="0.200000" d="M220.9,-608.96C233.52,-631.58 267.92,-686.42 314.75,-707 421.23,-753.8 496.67,-735.28 568.75,-644 594.64,-611.22 606.21,-481.33 609.62,-434.2"/>
<polygon fill="none" stroke="#000000" stroke-opacity="0.200000" points="611.7,-434.53 610.03,-428.39 607.51,-434.23 611.7,-434.53"/>
</g>
<!-- src/infrastructure/adapters/VideoStorageAdapter.ts&#45;&gt;src/application/ports/IVideoStorage.ts -->
<g id="edge32" class="edge">
<title>src/infrastructure/adapters/VideoStorageAdapter.ts&#45;&gt;src/application/ports/IVideoStorage.ts</title>
<path fill="none" stroke="#000000" stroke-opacity="0.200000" d="M271.08,-596.43C284.69,-593.04 297.88,-586.88 306.75,-576 319.4,-560.48 310.21,-415.5 314.75,-396 323.94,-356.53 345.7,-313.89 358.29,-291.27"/>
<polygon fill="none" stroke="#000000" stroke-opacity="0.200000" points="360.01,-292.49 361.14,-286.23 356.36,-290.42 360.01,-292.49"/>
</g>
<!-- src/domain/constants/index.ts -->
<g id="node10" class="node">
<title>src/domain/constants/index.ts</title>
<g id="a_node10"><a xlink:href="src/domain/constants/index.ts" xlink:title="index.ts">
<path fill="#ddfeff" stroke="black" d="M389.33,-676.62C389.33,-676.62 348.17,-676.62 348.17,-676.62 344.96,-676.62 341.75,-673.42 341.75,-670.21 341.75,-670.21 341.75,-663.79 341.75,-663.79 341.75,-660.58 344.96,-657.38 348.17,-657.38 348.17,-657.38 389.33,-657.38 389.33,-657.38 392.54,-657.38 395.75,-660.58 395.75,-663.79 395.75,-663.79 395.75,-670.21 395.75,-670.21 395.75,-673.42 392.54,-676.62 389.33,-676.62"/>
<text text-anchor="start" x="353" y="-664.08" font-family="Helvetica,sans-Serif" font-size="9.00">index.ts</text>
</a>
</g>
</g>
<!-- src/domain/entities/ParsedVideo.ts&#45;&gt;src/domain/entities/VideoStorageDto.ts -->
<g id="edge15" class="edge">
<title>src/domain/entities/ParsedVideo.ts&#45;&gt;src/domain/entities/VideoStorageDto.ts</title>
<path fill="none" stroke="#000000" stroke-opacity="0.200000" d="M731.08,-433.77C732.74,-433.88 734.41,-434 736.09,-434.12"/>
<polygon fill="none" stroke="#000000" stroke-opacity="0.200000" points="735.84,-436.21 741.98,-434.54 736.14,-432.02 735.84,-436.21"/>
</g>
<!-- src/domain/entities/VideoStorageDto.ts&#45;&gt;src/domain/entities/MetadataEntity.ts -->
<g id="edge16" class="edge">
<title>src/domain/entities/VideoStorageDto.ts&#45;&gt;src/domain/entities/MetadataEntity.ts</title>
<path fill="none" stroke="#000000" stroke-opacity="0.200000" d="M839.57,-430.56C841.25,-430.3 842.93,-430.03 844.61,-429.77"/>
<polygon fill="none" stroke="#000000" stroke-opacity="0.200000" points="844.85,-431.85 850.45,-428.84 844.2,-427.7 844.85,-431.85"/>
</g>
<!-- src/domain/entities/VideoStorageDto.ts&#45;&gt;src/domain/entities/VideoEntity.ts -->
<g id="edge17" class="edge">
<title>src/domain/entities/VideoStorageDto.ts&#45;&gt;src/domain/entities/VideoEntity.ts</title>
<path fill="none" stroke="#000000" stroke-opacity="0.200000" d="M839.57,-446.37C843.63,-447.09 847.73,-447.82 851.76,-448.53"/>
<polygon fill="none" stroke="#000000" stroke-opacity="0.200000" points="851.13,-450.56 857.4,-449.54 851.86,-446.42 851.13,-450.56"/>
</g>
<!-- src/domain/repositories/IMetadataRepository.ts -->
<g id="node15" class="node">
<title>src/domain/repositories/IMetadataRepository.ts</title>
<g id="a_node15"><a xlink:href="src/domain/repositories/IMetadataRepository.ts" xlink:title="IMetadataRepository.ts">
<path fill="#ddfeff" stroke="black" d="M546.08,-582.62C546.08,-582.62 449.17,-582.62 449.17,-582.62 445.96,-582.62 442.75,-579.42 442.75,-576.21 442.75,-576.21 442.75,-569.79 442.75,-569.79 442.75,-566.58 445.96,-563.38 449.17,-563.38 449.17,-563.38 546.08,-563.38 546.08,-563.38 549.29,-563.38 552.5,-566.58 552.5,-569.79 552.5,-569.79 552.5,-576.21 552.5,-576.21 552.5,-579.42 549.29,-582.62 546.08,-582.62"/>
<text text-anchor="start" x="450.75" y="-570.08" font-family="Helvetica,sans-Serif" font-size="9.00">IMetadataRepository.ts</text>
</a>
</g>
</g>
<!-- src/domain/repositories/IMetadataRepository.ts&#45;&gt;src/domain/entities/index.ts -->
<g id="edge22" class="edge">
<title>src/domain/repositories/IMetadataRepository.ts&#45;&gt;src/domain/entities/index.ts</title>
<path fill="none" stroke="#000000" stroke-opacity="0.200000" d="M552.89,-567.7C558.72,-565.37 564.18,-562.22 568.75,-558 604.22,-525.22 610.21,-463.93 610.91,-434.14"/>
<polygon fill="none" stroke="#000000" stroke-opacity="0.200000" points="613.01,-434.48 610.97,-428.46 608.81,-434.44 613.01,-434.48"/>
</g>
<!-- src/domain/repositories/IVideoFacade.ts -->
<g id="node16" class="node">
<title>src/domain/repositories/IVideoFacade.ts</title>
<g id="a_node16"><a xlink:href="src/domain/repositories/IVideoFacade.ts" xlink:title="IVideoFacade.ts">
<path fill="#ddfeff" stroke="black" d="M532.21,-613.62C532.21,-613.62 463.04,-613.62 463.04,-613.62 459.83,-613.62 456.62,-610.42 456.62,-607.21 456.62,-607.21 456.62,-600.79 456.62,-600.79 456.62,-597.58 459.83,-594.38 463.04,-594.38 463.04,-594.38 532.21,-594.38 532.21,-594.38 535.42,-594.38 538.62,-597.58 538.62,-600.79 538.62,-600.79 538.62,-607.21 538.62,-607.21 538.62,-610.42 535.42,-613.62 532.21,-613.62"/>
<text text-anchor="start" x="464.62" y="-601.08" font-family="Helvetica,sans-Serif" font-size="9.00">IVideoFacade.ts</text>
</a>
</g>
</g>
<!-- src/domain/repositories/IVideoFacade.ts&#45;&gt;src/domain/entities/index.ts -->
<g id="edge23" class="edge">
<title>src/domain/repositories/IVideoFacade.ts&#45;&gt;src/domain/entities/index.ts</title>
<path fill="none" stroke="#000000" stroke-opacity="0.200000" d="M539.07,-603.04C549.91,-600.89 560.8,-596.72 568.75,-589 590.97,-567.41 604.24,-473.19 608.87,-434.1"/>
<polygon fill="none" stroke="#000000" stroke-opacity="0.200000" points="610.91,-434.76 609.51,-428.55 606.74,-434.27 610.91,-434.76"/>
</g>
<!-- src/domain/repositories/IVideoRepository.ts -->
<g id="node17" class="node">
<title>src/domain/repositories/IVideoRepository.ts</title>
<g id="a_node17"><a xlink:href="src/domain/repositories/IVideoRepository.ts" xlink:title="IVideoRepository.ts">
<path fill="#ddfeff" stroke="black" d="M538.96,-551.62C538.96,-551.62 456.29,-551.62 456.29,-551.62 453.08,-551.62 449.88,-548.42 449.88,-545.21 449.88,-545.21 449.88,-538.79 449.88,-538.79 449.88,-535.58 453.08,-532.38 456.29,-532.38 456.29,-532.38 538.96,-532.38 538.96,-532.38 542.17,-532.38 545.38,-535.58 545.38,-538.79 545.38,-538.79 545.38,-545.21 545.38,-545.21 545.38,-548.42 542.17,-551.62 538.96,-551.62"/>
<text text-anchor="start" x="457.88" y="-539.08" font-family="Helvetica,sans-Serif" font-size="9.00">IVideoRepository.ts</text>
</a>
</g>
</g>
<!-- src/domain/repositories/IVideoRepository.ts&#45;&gt;src/domain/entities/index.ts -->
<g id="edge24" class="edge">
<title>src/domain/repositories/IVideoRepository.ts&#45;&gt;src/domain/entities/index.ts</title>
<path fill="none" stroke="#000000" stroke-opacity="0.200000" d="M545.84,-532.74C554.19,-529.46 562.27,-525.02 568.75,-519 593.35,-496.15 603.95,-456.75 608.2,-434.2"/>
<polygon fill="none" stroke="#000000" stroke-opacity="0.200000" points="610.23,-434.73 609.18,-428.46 606.09,-434.02 610.23,-434.73"/>
</g>
<!-- src/domain/repositories/index.ts -->
<g id="node18" class="node">
<title>src/domain/repositories/index.ts</title>
<g id="a_node18"><a xlink:href="src/domain/repositories/index.ts" xlink:title="index.ts">
<path fill="#ddfeff" stroke="black" d="M389.33,-551.62C389.33,-551.62 348.17,-551.62 348.17,-551.62 344.96,-551.62 341.75,-548.42 341.75,-545.21 341.75,-545.21 341.75,-538.79 341.75,-538.79 341.75,-535.58 344.96,-532.38 348.17,-532.38 348.17,-532.38 389.33,-532.38 389.33,-532.38 392.54,-532.38 395.75,-535.58 395.75,-538.79 395.75,-538.79 395.75,-545.21 395.75,-545.21 395.75,-548.42 392.54,-551.62 389.33,-551.62"/>
<text text-anchor="start" x="353" y="-539.08" font-family="Helvetica,sans-Serif" font-size="9.00">index.ts</text>
</a>
</g>
</g>
<!-- src/domain/repositories/index.ts&#45;&gt;src/domain/repositories/IMetadataRepository.ts -->
<g id="edge25" class="edge">
<title>src/domain/repositories/index.ts&#45;&gt;src/domain/repositories/IMetadataRepository.ts</title>
<path fill="none" stroke="#000000" stroke-opacity="0.200000" d="M396.2,-548.57C407.93,-551.48 421.9,-554.92 434.5,-558 438.81,-559.05 443.3,-560.15 447.79,-561.24"/>
<polygon fill="none" stroke="#000000" stroke-opacity="0.200000" points="447.05,-563.22 453.37,-562.59 448.04,-559.13 447.05,-563.22"/>
</g>
<!-- src/domain/repositories/index.ts&#45;&gt;src/domain/repositories/IVideoFacade.ts -->
<g id="edge26" class="edge">
<title>src/domain/repositories/index.ts&#45;&gt;src/domain/repositories/IVideoFacade.ts</title>
<path fill="none" stroke="#000000" stroke-opacity="0.200000" d="M380.37,-551.76C392.55,-562.44 413.56,-579.34 434.5,-589 439.21,-591.17 444.27,-593.05 449.4,-594.67"/>
<polygon fill="none" stroke="#000000" stroke-opacity="0.200000" points="448.6,-596.63 454.95,-596.3 449.79,-592.6 448.6,-596.63"/>
</g>
<!-- src/domain/repositories/index.ts&#45;&gt;src/domain/repositories/IVideoRepository.ts -->
<g id="edge27" class="edge">
<title>src/domain/repositories/index.ts&#45;&gt;src/domain/repositories/IVideoRepository.ts</title>
<path fill="none" stroke="#000000" stroke-opacity="0.200000" d="M396.04,-542C409.45,-542 426.27,-542 442.3,-542"/>
<polygon fill="none" stroke="#000000" stroke-opacity="0.200000" points="442.08,-544.1 448.08,-542 442.08,-539.9 442.08,-544.1"/>
</g>
<!-- src/domain/valueObjects/ParsedVideoData.ts -->
<g id="node19" class="node">
<title>src/domain/valueObjects/ParsedVideoData.ts</title>
<g id="a_node19"><a xlink:href="src/domain/valueObjects/ParsedVideoData.ts" xlink:title="ParsedVideoData.ts">
<path fill="#ddfeff" stroke="black" d="M540.46,-426.62C540.46,-426.62 454.79,-426.62 454.79,-426.62 451.58,-426.62 448.38,-423.42 448.38,-420.21 448.38,-420.21 448.38,-413.79 448.38,-413.79 448.38,-410.58 451.58,-407.38 454.79,-407.38 454.79,-407.38 540.46,-407.38 540.46,-407.38 543.67,-407.38 546.88,-410.58 546.88,-413.79 546.88,-413.79 546.88,-420.21 546.88,-420.21 546.88,-423.42 543.67,-426.62 540.46,-426.62"/>
<text text-anchor="start" x="456.38" y="-414.07" font-family="Helvetica,sans-Serif" font-size="9.00">ParsedVideoData.ts</text>
</a>
</g>
</g>
<!-- src/domain/valueObjects/Thumbs.ts -->
<g id="node20" class="node">
<title>src/domain/valueObjects/Thumbs.ts</title>
<g id="a_node20"><a xlink:href="src/domain/valueObjects/Thumbs.ts" xlink:title="Thumbs.ts">
<path fill="#ddfeff" stroke="black" d="M521.33,-457.62C521.33,-457.62 473.92,-457.62 473.92,-457.62 470.71,-457.62 467.5,-454.42 467.5,-451.21 467.5,-451.21 467.5,-444.79 467.5,-444.79 467.5,-441.58 470.71,-438.38 473.92,-438.38 473.92,-438.38 521.33,-438.38 521.33,-438.38 524.54,-438.38 527.75,-441.58 527.75,-444.79 527.75,-444.79 527.75,-451.21 527.75,-451.21 527.75,-454.42 524.54,-457.62 521.33,-457.62"/>
<text text-anchor="start" x="475.5" y="-445.07" font-family="Helvetica,sans-Serif" font-size="9.00">Thumbs.ts</text>
</a>
</g>
</g>
<!-- src/domain/valueObjects/VideoStorageDtoMapper.ts -->
<g id="node21" class="node">
<title>src/domain/valueObjects/VideoStorageDtoMapper.ts</title>
<g id="a_node21"><a xlink:href="src/domain/valueObjects/VideoStorageDtoMapper.ts" xlink:title="VideoStorageDtoMapper.ts">
<path fill="#ddfeff" stroke="black" d="M554.33,-488.62C554.33,-488.62 440.92,-488.62 440.92,-488.62 437.71,-488.62 434.5,-485.42 434.5,-482.21 434.5,-482.21 434.5,-475.79 434.5,-475.79 434.5,-472.58 437.71,-469.38 440.92,-469.38 440.92,-469.38 554.33,-469.38 554.33,-469.38 557.54,-469.38 560.75,-472.58 560.75,-475.79 560.75,-475.79 560.75,-482.21 560.75,-482.21 560.75,-485.42 557.54,-488.62 554.33,-488.62"/>
<text text-anchor="start" x="442.5" y="-476.07" font-family="Helvetica,sans-Serif" font-size="9.00">VideoStorageDtoMapper.ts</text>
</a>
</g>
</g>
<!-- src/domain/valueObjects/VideoStorageDtoMapper.ts&#45;&gt;src/domain/entities/index.ts -->
<g id="edge28" class="edge">
<title>src/domain/valueObjects/VideoStorageDtoMapper.ts&#45;&gt;src/domain/entities/index.ts</title>
<path fill="none" stroke="#000000" stroke-opacity="0.200000" d="M558.54,-468.96C562.08,-467.52 565.52,-465.88 568.75,-464 581.76,-456.45 592.91,-443.45 600.44,-433.04"/>
<polygon fill="none" stroke="#000000" stroke-opacity="0.200000" points="602.1,-434.33 603.79,-428.2 598.65,-431.94 602.1,-434.33"/>
</g>
<!-- src/domain/valueObjects/index.ts -->
<g id="node22" class="node">
<title>src/domain/valueObjects/index.ts</title>
<g id="a_node22"><a xlink:href="src/domain/valueObjects/index.ts" xlink:title="index.ts">
<path fill="#ddfeff" stroke="black" d="M389.33,-457.62C389.33,-457.62 348.17,-457.62 348.17,-457.62 344.96,-457.62 341.75,-454.42 341.75,-451.21 341.75,-451.21 341.75,-444.79 341.75,-444.79 341.75,-441.58 344.96,-438.38 348.17,-438.38 348.17,-438.38 389.33,-438.38 389.33,-438.38 392.54,-438.38 395.75,-441.58 395.75,-444.79 395.75,-444.79 395.75,-451.21 395.75,-451.21 395.75,-454.42 392.54,-457.62 389.33,-457.62"/>
<text text-anchor="start" x="353" y="-445.07" font-family="Helvetica,sans-Serif" font-size="9.00">index.ts</text>
</a>
</g>
</g>
<!-- src/domain/valueObjects/index.ts&#45;&gt;src/domain/valueObjects/ParsedVideoData.ts -->
<g id="edge29" class="edge">
<title>src/domain/valueObjects/index.ts&#45;&gt;src/domain/valueObjects/ParsedVideoData.ts</title>
<path fill="none" stroke="#000000" stroke-width="2" stroke-opacity="0.200000" d="M396.2,-441.43C407.93,-438.52 421.9,-435.08 454.85,-427.06"/>
<polygon fill="#000000" fill-opacity="0.200000" stroke="#000000" stroke-width="2" stroke-opacity="0.200000" points="457.65,-425.66 461.55,-433.76 453.45,-429.86 457.65,-425.66"/>
</g>
<!-- src/domain/valueObjects/index.ts&#45;&gt;src/domain/valueObjects/Thumbs.ts -->
<g id="edge30" class="edge">
<title>src/domain/valueObjects/index.ts&#45;&gt;src/domain/valueObjects/Thumbs.ts</title>
<path fill="none" stroke="#000000" stroke-opacity="0.200000" d="M396.04,-448C414.53,-448 439.51,-448 459.96,-448"/>
<polygon fill="none" stroke="#000000" stroke-opacity="0.200000" points="459.75,-450.1 465.75,-448 459.75,-445.9 459.75,-450.1"/>
</g>
<!-- src/domain/valueObjects/index.ts&#45;&gt;src/domain/valueObjects/VideoStorageDtoMapper.ts -->
<g id="edge31" class="edge">
<title>src/domain/valueObjects/index.ts&#45;&gt;src/domain/valueObjects/VideoStorageDtoMapper.ts</title>
<path fill="none" stroke="#000000" stroke-width="2" stroke-opacity="0.200000" d="M396.2,-454.57C407.93,-457.48 421.9,-460.92 454.85,-468.94"/>
<polygon fill="#000000" fill-opacity="0.200000" stroke="#000000" stroke-width="2" stroke-opacity="0.200000" points="457.65,-467.55 461.55,-475.65 453.45,-471.75 457.65,-467.55"/>
</g>
<!-- src/infrastructure/repository/MetadataRepository.ts -->
<g id="node23" class="node">
<title>src/infrastructure/repository/MetadataRepository.ts</title>
<g id="a_node23"><a xlink:href="src/infrastructure/repository/MetadataRepository.ts" xlink:title="MetadataRepository.ts">
<path fill="#ddfeff" stroke="black" d="M261.96,-482.62C261.96,-482.62 167.29,-482.62 167.29,-482.62 164.08,-482.62 160.88,-479.42 160.88,-476.21 160.88,-476.21 160.88,-469.79 160.88,-469.79 160.88,-466.58 164.08,-463.38 167.29,-463.38 167.29,-463.38 261.96,-463.38 261.96,-463.38 265.17,-463.38 268.38,-466.58 268.38,-469.79 268.38,-469.79 268.38,-476.21 268.38,-476.21 268.38,-479.42 265.17,-482.62 261.96,-482.62"/>
<text text-anchor="start" x="168.88" y="-470.07" font-family="Helvetica,sans-Serif" font-size="9.00">MetadataRepository.ts</text>
</a>
</g>
</g>
<!-- src/infrastructure/repository/MetadataRepository.ts&#45;&gt;src/domain/entities/index.ts -->
<g id="edge35" class="edge">
<title>src/infrastructure/repository/MetadataRepository.ts&#45;&gt;src/domain/entities/index.ts</title>
<path fill="none" stroke="#000000" stroke-opacity="0.200000" d="M268.83,-475.39C282.92,-473.32 296.93,-468.35 306.75,-458 317.83,-446.32 302.75,-396.74 314.75,-386 335.78,-367.18 541.94,-377.18 568.75,-386 578.77,-389.3 588.35,-396 595.83,-402.33"/>
<polygon fill="none" stroke="#000000" stroke-opacity="0.200000" points="594.11,-403.61 599.98,-406.03 596.9,-400.47 594.11,-403.61"/>
</g>
<!-- src/infrastructure/repository/MetadataRepository.ts&#45;&gt;src/domain/constants/index.ts -->
<g id="edge34" class="edge">
<title>src/infrastructure/repository/MetadataRepository.ts&#45;&gt;src/domain/constants/index.ts</title>
<path fill="none" stroke="#000000" stroke-width="2" stroke-opacity="0.200000" d="M260.17,-482.97C277.58,-489.21 295.92,-499.19 306.75,-515 322.98,-538.7 298.26,-620.49 314.75,-644 319.32,-650.51 326.14,-655.2 333.39,-658.56"/>
<polygon fill="#000000" fill-opacity="0.200000" stroke="#000000" stroke-width="2" stroke-opacity="0.200000" points="332.16,-660.34 338.51,-660.6 333.71,-656.43 332.16,-660.34"/>
</g>
<!-- src/infrastructure/repository/MetadataRepository.ts&#45;&gt;src/domain/repositories/index.ts -->
<g id="edge36" class="edge">
<title>src/infrastructure/repository/MetadataRepository.ts&#45;&gt;src/domain/repositories/index.ts</title>
<path fill="none" stroke="#000000" stroke-opacity="0.200000" d="M237.81,-482.99C256.32,-491.38 283.35,-503.76 306.75,-515 310.33,-516.72 311.15,-517.32 314.75,-519 321.99,-522.38 329.85,-525.88 337.25,-529.1"/>
<polygon fill="none" stroke="#000000" stroke-opacity="0.200000" points="336.15,-530.91 342.49,-531.37 337.82,-527.06 336.15,-530.91"/>
</g>
<!-- src/infrastructure/repository/VideoRepository.ts -->
<g id="node24" class="node">
<title>src/infrastructure/repository/VideoRepository.ts</title>
<g id="a_node24"><a xlink:href="src/infrastructure/repository/VideoRepository.ts" xlink:title="VideoRepository.ts">
<path fill="#ddfeff" stroke="black" d="M254.83,-451.62C254.83,-451.62 174.42,-451.62 174.42,-451.62 171.21,-451.62 168,-448.42 168,-445.21 168,-445.21 168,-438.79 168,-438.79 168,-435.58 171.21,-432.38 174.42,-432.38 174.42,-432.38 254.83,-432.38 254.83,-432.38 258.04,-432.38 261.25,-435.58 261.25,-438.79 261.25,-438.79 261.25,-445.21 261.25,-445.21 261.25,-448.42 258.04,-451.62 254.83,-451.62"/>
<text text-anchor="start" x="176" y="-439.07" font-family="Helvetica,sans-Serif" font-size="9.00">VideoRepository.ts</text>
</a>
</g>
</g>
<!-- src/infrastructure/repository/VideoRepository.ts&#45;&gt;src/domain/entities/index.ts -->
<g id="edge38" class="edge">
<title>src/infrastructure/repository/VideoRepository.ts&#45;&gt;src/domain/entities/index.ts</title>
<path fill="none" stroke="#000000" stroke-opacity="0.200000" d="M261.67,-440.48C278.03,-437.59 295.23,-431.46 306.75,-419 321.13,-403.44 298.56,-385.67 314.75,-372 336.32,-353.8 542.87,-360.75 568.75,-372 582.39,-377.93 593.61,-390.7 601.01,-401.13"/>
<polygon fill="none" stroke="#000000" stroke-opacity="0.200000" points="599.18,-402.17 604.27,-405.98 602.66,-399.83 599.18,-402.17"/>
</g>
<!-- src/infrastructure/repository/VideoRepository.ts&#45;&gt;src/domain/constants/index.ts -->
<g id="edge37" class="edge">
<title>src/infrastructure/repository/VideoRepository.ts&#45;&gt;src/domain/constants/index.ts</title>
<path fill="none" stroke="#000000" stroke-width="2" stroke-opacity="0.200000" d="M261.68,-438.35C278.25,-439.61 295.58,-444.4 306.75,-457 320.54,-472.56 302.97,-626.86 314.75,-644 319.3,-650.62 326.18,-655.35 333.5,-658.72"/>
<polygon fill="#000000" fill-opacity="0.200000" stroke="#000000" stroke-width="2" stroke-opacity="0.200000" points="332.35,-660.52 338.7,-660.76 333.89,-656.61 332.35,-660.52"/>
</g>
<!-- src/infrastructure/repository/VideoRepository.ts&#45;&gt;src/domain/repositories/index.ts -->
<g id="edge39" class="edge">
<title>src/infrastructure/repository/VideoRepository.ts&#45;&gt;src/domain/repositories/index.ts</title>
<path fill="none" stroke="#000000" stroke-opacity="0.200000" d="M261.6,-438.9C277.96,-440.28 295.17,-445.01 306.75,-457 326.05,-476.99 298.05,-496.8 314.75,-519 319.69,-525.57 326.89,-530.29 334.41,-533.67"/>
<polygon fill="none" stroke="#000000" stroke-opacity="0.200000" points="333.58,-535.6 339.94,-535.86 335.13,-531.69 333.58,-535.6"/>
</g>
<!-- src/infrastructure/services/VideoMetadataFacade.ts -->
<g id="node25" class="node">
<title>src/infrastructure/services/VideoMetadataFacade.ts</title>
<g id="a_node25"><a xlink:href="src/infrastructure/services/VideoMetadataFacade.ts" xlink:title="VideoMetadataFacade.ts">
<path fill="#ddfeff" stroke="black" d="M266.83,-545.62C266.83,-545.62 162.42,-545.62 162.42,-545.62 159.21,-545.62 156,-542.42 156,-539.21 156,-539.21 156,-532.79 156,-532.79 156,-529.58 159.21,-526.38 162.42,-526.38 162.42,-526.38 266.83,-526.38 266.83,-526.38 270.04,-526.38 273.25,-529.58 273.25,-532.79 273.25,-532.79 273.25,-539.21 273.25,-539.21 273.25,-542.42 270.04,-545.62 266.83,-545.62"/>
<text text-anchor="start" x="164" y="-533.08" font-family="Helvetica,sans-Serif" font-size="9.00">VideoMetadataFacade.ts</text>
</a>
</g>
</g>
<!-- src/infrastructure/services/VideoMetadataFacade.ts&#45;&gt;src/domain/entities/index.ts -->
<g id="edge40" class="edge">
<title>src/infrastructure/services/VideoMetadataFacade.ts&#45;&gt;src/domain/entities/index.ts</title>
<path fill="none" stroke="#000000" stroke-opacity="0.200000" d="M273.75,-532.54C286.34,-529.02 298.38,-523.02 306.75,-513 323.46,-493 295.7,-413.79 314.75,-396 335.38,-376.74 541.28,-389.52 568.75,-396 575.51,-397.6 582.42,-400.45 588.63,-403.56"/>
<polygon fill="none" stroke="#000000" stroke-opacity="0.200000" points="587.44,-405.3 593.73,-406.27 589.41,-401.6 587.44,-405.3"/>
</g>
<!-- src/infrastructure/services/VideoMetadataFacade.ts&#45;&gt;src/domain/repositories/index.ts -->
<g id="edge41" class="edge">
<title>src/infrastructure/services/VideoMetadataFacade.ts&#45;&gt;src/domain/repositories/index.ts</title>
<path fill="none" stroke="#000000" stroke-opacity="0.200000" d="M273.57,-538.29C294,-539.09 316.27,-539.97 334.03,-540.67"/>
<polygon fill="none" stroke="#000000" stroke-opacity="0.200000" points="333.75,-542.76 339.83,-540.9 333.92,-538.56 333.75,-542.76"/>
</g>
<!-- src/infrastructure/services/VideoMetadataFacade.ts&#45;&gt;src/domain/valueObjects/index.ts -->
<g id="edge42" class="edge">
<title>src/infrastructure/services/VideoMetadataFacade.ts&#45;&gt;src/domain/valueObjects/index.ts</title>
<path fill="none" stroke="#000000" stroke-width="2" stroke-opacity="0.200000" d="M273.49,-526.67C284.99,-523.39 296.63,-518.96 306.75,-513 327.19,-500.96 345.02,-480.04 356.04,-465.18"/>
<polygon fill="#000000" fill-opacity="0.200000" stroke="#000000" stroke-width="2" stroke-opacity="0.200000" points="357.6,-466.61 359.4,-460.51 354.19,-464.16 357.6,-466.61"/>
</g>
<!-- src/infrastructure/video/VideoFileParser.ts -->
<g id="node26" class="node">
<title>src/infrastructure/video/VideoFileParser.ts</title>
<g id="a_node26"><a xlink:href="src/infrastructure/video/VideoFileParser.ts" xlink:title="VideoFileParser.ts">
<path fill="#ddfeff" stroke="black" d="M254.08,-388.62C254.08,-388.62 175.17,-388.62 175.17,-388.62 171.96,-388.62 168.75,-385.42 168.75,-382.21 168.75,-382.21 168.75,-375.79 168.75,-375.79 168.75,-372.58 171.96,-369.38 175.17,-369.38 175.17,-369.38 254.08,-369.38 254.08,-369.38 257.29,-369.38 260.5,-372.58 260.5,-375.79 260.5,-375.79 260.5,-382.21 260.5,-382.21 260.5,-385.42 257.29,-388.62 254.08,-388.62"/>
<text text-anchor="start" x="176.75" y="-376.07" font-family="Helvetica,sans-Serif" font-size="9.00">VideoFileParser.ts</text>
</a>
</g>
</g>
<!-- src/infrastructure/video/VideoFileParser.ts&#45;&gt;src/domain/entities/index.ts -->
<g id="edge43" class="edge">
<title>src/infrastructure/video/VideoFileParser.ts&#45;&gt;src/domain/entities/index.ts</title>
<path fill="none" stroke="#000000" stroke-opacity="0.200000" d="M240.99,-368.99C301.68,-346.76 458.42,-299.56 568.75,-357 586.2,-366.08 597.89,-386.1 604.42,-400.51"/>
<polygon fill="none" stroke="#000000" stroke-opacity="0.200000" points="602.34,-400.98 606.62,-405.68 606.2,-399.33 602.34,-400.98"/>
</g>
<!-- src/infrastructure/video/VideoFileParser.ts&#45;&gt;src/domain/valueObjects/index.ts -->
<g id="edge44" class="edge">
<title>src/infrastructure/video/VideoFileParser.ts&#45;&gt;src/domain/valueObjects/index.ts</title>
<path fill="none" stroke="#000000" stroke-width="2" stroke-opacity="0.200000" d="M237.75,-389.03C264.11,-400.99 308.28,-421.03 337.72,-434.38"/>
<polygon fill="#000000" fill-opacity="0.200000" stroke="#000000" stroke-width="2" stroke-opacity="0.200000" points="336.51,-436.14 342.85,-436.7 338.25,-432.31 336.51,-436.14"/>
</g>
<!-- src/presentation/components/VideoCard.vue -->
<g id="node27" class="node">
<title>src/presentation/components/VideoCard.vue</title>
<g id="a_node27"><a xlink:href="src/presentation/components/VideoCard.vue" xlink:title="VideoCard.vue">
<path fill="#41f083" stroke="black" d="M400.33,-51.62C400.33,-51.62 337.17,-51.62 337.17,-51.62 333.96,-51.62 330.75,-48.42 330.75,-45.21 330.75,-45.21 330.75,-38.79 330.75,-38.79 330.75,-35.58 333.96,-32.38 337.17,-32.38 337.17,-32.38 400.33,-32.38 400.33,-32.38 403.54,-32.38 406.75,-35.58 406.75,-38.79 406.75,-38.79 406.75,-45.21 406.75,-45.21 406.75,-48.42 403.54,-51.62 400.33,-51.62"/>
<text text-anchor="start" x="338.75" y="-39.08" font-family="Helvetica,sans-Serif" font-size="9.00">VideoCard.vue</text>
</a>
</g>
</g>
<!-- src/presentation/components/VideoCard.vue&#45;&gt;src/domain/entities/index.ts -->
<g id="edge46" class="edge">
<title>src/presentation/components/VideoCard.vue&#45;&gt;src/domain/entities/index.ts</title>
<path fill="none" stroke="#000000" stroke-opacity="0.200000" d="M405.15,-52.09C459.41,-67.87 558.06,-97.96 568.75,-111 605.36,-155.66 610.1,-341.75 610.68,-399.7"/>
<polygon fill="none" stroke="#000000" stroke-opacity="0.200000" points="608.58,-399.5 610.72,-405.48 612.78,-399.47 608.58,-399.5"/>
</g>
<!-- src/presentation/components/VideoEmbed.vue -->
<g id="node28" class="node">
<title>src/presentation/components/VideoEmbed.vue</title>
<g id="a_node28"><a xlink:href="src/presentation/components/VideoEmbed.vue" xlink:title="VideoEmbed.vue">
<path fill="#41f083" stroke="black" d="M534.08,-51.62C534.08,-51.62 461.17,-51.62 461.17,-51.62 457.96,-51.62 454.75,-48.42 454.75,-45.21 454.75,-45.21 454.75,-38.79 454.75,-38.79 454.75,-35.58 457.96,-32.38 461.17,-32.38 461.17,-32.38 534.08,-32.38 534.08,-32.38 537.29,-32.38 540.5,-35.58 540.5,-38.79 540.5,-38.79 540.5,-45.21 540.5,-45.21 540.5,-48.42 537.29,-51.62 534.08,-51.62"/>
<text text-anchor="start" x="462.75" y="-39.08" font-family="Helvetica,sans-Serif" font-size="9.00">VideoEmbed.vue</text>
</a>
</g>
</g>
<!-- src/presentation/components/VideoCard.vue&#45;&gt;src/presentation/components/VideoEmbed.vue -->
<g id="edge45" class="edge">
<title>src/presentation/components/VideoCard.vue&#45;&gt;src/presentation/components/VideoEmbed.vue</title>
<path fill="none" stroke="#000000" stroke-width="2" stroke-opacity="0.200000" d="M407.13,-42C419.25,-42 432.9,-42 445.82,-42"/>
<polygon fill="#000000" fill-opacity="0.200000" stroke="#000000" stroke-width="2" stroke-opacity="0.200000" points="445.59,-44.1 451.59,-42 445.59,-39.9 445.59,-44.1"/>
</g>
<!-- src/presentation/components/VideoEmbed.vue&#45;&gt;src/domain/entities/index.ts -->
<g id="edge47" class="edge">
<title>src/presentation/components/VideoEmbed.vue&#45;&gt;src/domain/entities/index.ts</title>
<path fill="none" stroke="#000000" stroke-opacity="0.200000" d="M532.27,-52.06C545.73,-57.8 560.07,-66.43 568.75,-79 605.25,-131.85 610.05,-338.41 610.66,-399.74"/>
<polygon fill="none" stroke="#000000" stroke-opacity="0.200000" points="608.56,-399.6 610.71,-405.58 612.76,-399.57 608.56,-399.6"/>
</g>
</g>
</svg>
