<?xml version="1.0" encoding="UTF-8" standalone="no"?>
<!DOCTYPE svg PUBLIC "-//W3C//DTD SVG 1.1//EN"
 "http://www.w3.org/Graphics/SVG/1.1/DTD/svg11.dtd">
<!-- Generated by graphviz version 9.0.0 (20230911.1827)
 -->
<!-- Title: dependency&#45;cruiser output Pages: 1 -->
<svg width="366pt" height="395pt"
 viewBox="0.00 0.00 365.75 395.00" xmlns="http://www.w3.org/2000/svg" xmlns:xlink="http://www.w3.org/1999/xlink">
<g id="graph0" class="graph" transform="scale(1 1) rotate(0) translate(4 391)">
<title>dependency&#45;cruiser output</title>
<polygon fill="white" stroke="none" points="-4,4 -4,-391 361.75,-391 361.75,4 -4,4"/>
<g id="clust1" class="cluster">
<title>cluster_src</title>
<path fill="#ffffff" stroke="black" stroke-width="2" d="M20,-8C20,-8 337.75,-8 337.75,-8 343.75,-8 349.75,-14 349.75,-20 349.75,-20 349.75,-367 349.75,-367 349.75,-373 343.75,-379 337.75,-379 337.75,-379 20,-379 20,-379 14,-379 8,-373 8,-367 8,-367 8,-20 8,-20 8,-14 14,-8 20,-8"/>
<text text-anchor="middle" x="178.88" y="-366.45" font-family="Helvetica,sans-Serif" font-weight="bold" font-size="9.00">src</text>
</g>
<g id="clust2" class="cluster">
<title>cluster_src/application</title>
<path fill="#ffffff" stroke="black" stroke-width="2" d="M28,-266C28,-266 172,-266 172,-266 178,-266 184,-272 184,-278 184,-278 184,-340 184,-340 184,-346 178,-352 172,-352 172,-352 28,-352 28,-352 22,-352 16,-346 16,-340 16,-340 16,-278 16,-278 16,-272 22,-266 28,-266"/>
<text text-anchor="middle" x="100" y="-339.45" font-family="Helvetica,sans-Serif" font-weight="bold" font-size="9.00">application</text>
</g>
<g id="clust3" class="cluster">
<title>cluster_src/domain</title>
<path fill="#ffffff" stroke="black" stroke-width="2" d="M268.5,-16C268.5,-16 329.75,-16 329.75,-16 335.75,-16 341.75,-22 341.75,-28 341.75,-28 341.75,-152 341.75,-152 341.75,-158 335.75,-164 329.75,-164 329.75,-164 268.5,-164 268.5,-164 262.5,-164 256.5,-158 256.5,-152 256.5,-152 256.5,-28 256.5,-28 256.5,-22 262.5,-16 268.5,-16"/>
<text text-anchor="middle" x="299.12" y="-151.45" font-family="Helvetica,sans-Serif" font-weight="bold" font-size="9.00">domain</text>
</g>
<g id="clust4" class="cluster">
<title>cluster_src/infrastructure</title>
<path fill="#ffffff" stroke="black" stroke-width="2" d="M43.5,-172C43.5,-172 322.62,-172 322.62,-172 328.62,-172 334.62,-178 334.62,-184 334.62,-184 334.62,-246 334.62,-246 334.62,-252 328.62,-258 322.62,-258 322.62,-258 43.5,-258 43.5,-258 37.5,-258 31.5,-252 31.5,-246 31.5,-246 31.5,-184 31.5,-184 31.5,-178 37.5,-172 43.5,-172"/>
<text text-anchor="middle" x="183.06" y="-245.45" font-family="Helvetica,sans-Serif" font-weight="bold" font-size="9.00">infrastructure</text>
</g>
<g id="clust5" class="cluster">
<title>cluster_src/presentation</title>
<path fill="#ffffff" stroke="black" stroke-width="2" d="M36.62,-109C36.62,-109 96.38,-109 96.38,-109 102.38,-109 108.38,-115 108.38,-121 108.38,-121 108.38,-152 108.38,-152 108.38,-158 102.38,-164 96.38,-164 96.38,-164 36.62,-164 36.62,-164 30.62,-164 24.62,-158 24.62,-152 24.62,-152 24.62,-121 24.62,-121 24.62,-115 30.62,-109 36.62,-109"/>
<text text-anchor="middle" x="66.5" y="-151.45" font-family="Helvetica,sans-Serif" font-weight="bold" font-size="9.00">presentation</text>
</g>
<!-- src/application/dependencies.ts -->
<g id="node1" class="node">
<title>src/application/dependencies.ts</title>
<g id="a_node1"><a xlink:href="src/application/dependencies.ts" xlink:title="dependencies.ts">
<path fill="#ddfeff" stroke="black" d="M102.58,-293.62C102.58,-293.62 30.42,-293.62 30.42,-293.62 27.21,-293.62 24,-290.42 24,-287.21 24,-287.21 24,-280.79 24,-280.79 24,-277.58 27.21,-274.38 30.42,-274.38 30.42,-274.38 102.58,-274.38 102.58,-274.38 105.79,-274.38 109,-277.58 109,-280.79 109,-280.79 109,-287.21 109,-287.21 109,-290.42 105.79,-293.62 102.58,-293.62"/>
<text text-anchor="start" x="32" y="-281.07" font-family="Helvetica,sans-Serif" font-size="9.00">dependencies.ts</text>
</a>
</g>
</g>
<!-- src/infrastructure/adapters -->
<g id="node2" class="node">
<title>src/infrastructure/adapters</title>
<g id="a_node2"><a xlink:href="src/infrastructure/adapters" xlink:title="adapters">
<polygon fill="#ffffcc" stroke="black" points="93.5,-230.62 41.64,-230.62 39.5,-228.49 39.5,-211.38 91.36,-211.38 93.5,-213.51 93.5,-230.62"/>
<polyline fill="none" stroke="black" points="91.36,-228.49 39.5,-228.49"/>
<polyline fill="none" stroke="black" points="91.36,-228.49 91.36,-211.38"/>
<polyline fill="none" stroke="black" points="91.36,-228.49 93.5,-230.62"/>
<text text-anchor="start" x="48.12" y="-218.07" font-family="Helvetica,sans-Serif" font-size="9.00">adapters</text>
</a>
</g>
</g>
<!-- src/application/dependencies.ts&#45;&gt;src/infrastructure/adapters -->
<g id="edge1" class="edge">
<title>src/application/dependencies.ts&#45;&gt;src/infrastructure/adapters</title>
<path fill="none" stroke="#000000" stroke-width="2" stroke-opacity="0.200000" d="M66.5,-274.03C66.5,-262.56 66.5,-251.09 66.5,-239.62"/>
<polygon fill="#000000" fill-opacity="0.200000" stroke="#000000" stroke-width="2" stroke-opacity="0.200000" points="68.6,-239.87 66.5,-233.87 64.4,-239.87 68.6,-239.87"/>
</g>
<!-- src/application/ports -->
<g id="node3" class="node">
<title>src/application/ports</title>
<g id="a_node3"><a xlink:href="src/application/ports" xlink:title="ports">
<polygon fill="#ffffcc" stroke="black" points="176,-297.62 124.14,-297.62 122,-295.49 122,-278.38 173.86,-278.38 176,-280.51 176,-297.62"/>
<polyline fill="none" stroke="black" points="173.86,-295.49 122,-295.49"/>
<polyline fill="none" stroke="black" points="173.86,-295.49 173.86,-278.38"/>
<polyline fill="none" stroke="black" points="173.86,-295.49 176,-297.62"/>
<text text-anchor="start" x="138.5" y="-285.07" font-family="Helvetica,sans-Serif" font-size="9.00">ports</text>
</a>
</g>
</g>
<!-- src/infrastructure/adapters&#45;&gt;src/application/ports -->
<g id="edge6" class="edge">
<title>src/infrastructure/adapters&#45;&gt;src/application/ports</title>
<path fill="none" stroke="#000000" stroke-opacity="0.200000" d="M79.38,-230.89C92.93,-242.17 115.22,-260.72 130.71,-273.61"/>
<polygon fill="none" stroke="#000000" stroke-opacity="0.200000" points="128.95,-274.88 134.91,-277.11 131.64,-271.65 128.95,-274.88"/>
</g>
<!-- src/domain/entities -->
<g id="node5" class="node">
<title>src/domain/entities</title>
<g id="a_node5"><a xlink:href="src/domain/entities" xlink:title="entities">
<polygon fill="#ffffcc" stroke="black" points="326.12,-74.62 274.26,-74.62 272.12,-72.49 272.12,-55.38 323.99,-55.38 326.12,-57.51 326.12,-74.62"/>
<polyline fill="none" stroke="black" points="323.99,-72.49 272.12,-72.49"/>
<polyline fill="none" stroke="black" points="323.99,-72.49 323.99,-55.38"/>
<polyline fill="none" stroke="black" points="323.99,-72.49 326.12,-74.62"/>
<text text-anchor="start" x="284.12" y="-62.08" font-family="Helvetica,sans-Serif" font-size="9.00">entities</text>
</a>
</g>
</g>
<!-- src/infrastructure/adapters&#45;&gt;src/domain/entities -->
<g id="edge7" class="edge">
<title>src/infrastructure/adapters&#45;&gt;src/domain/entities</title>
<path fill="none" stroke="#000000" stroke-opacity="0.200000" d="M74.92,-211.23C96.93,-182.51 162.16,-99.39 192,-83 214.12,-70.85 242.45,-66.51 264.27,-65.12"/>
<polygon fill="none" stroke="#000000" stroke-opacity="0.200000" points="264.29,-67.22 270.18,-64.82 264.08,-63.03 264.29,-67.22"/>
</g>
<!-- src/infrastructure/services -->
<g id="node6" class="node">
<title>src/infrastructure/services</title>
<g id="a_node6"><a xlink:href="src/infrastructure/services" xlink:title="services">
<polygon fill="#ffffcc" stroke="black" points="176,-230.62 124.14,-230.62 122,-228.49 122,-211.38 173.86,-211.38 176,-213.51 176,-230.62"/>
<polyline fill="none" stroke="black" points="173.86,-228.49 122,-228.49"/>
<polyline fill="none" stroke="black" points="173.86,-228.49 173.86,-211.38"/>
<polyline fill="none" stroke="black" points="173.86,-228.49 176,-230.62"/>
<text text-anchor="start" x="131.75" y="-218.07" font-family="Helvetica,sans-Serif" font-size="9.00">services</text>
</a>
</g>
</g>
<!-- src/infrastructure/adapters&#45;&gt;src/infrastructure/services -->
<g id="edge8" class="edge">
<title>src/infrastructure/adapters&#45;&gt;src/infrastructure/services</title>
<path fill="none" stroke="#000000" stroke-width="2" stroke-opacity="0.200000" d="M93.86,-221C99.84,-221 106.28,-221 112.56,-221"/>
<polygon fill="#000000" fill-opacity="0.200000" stroke="#000000" stroke-width="2" stroke-opacity="0.200000" points="112.56,-223.1 118.55,-221 112.55,-218.9 112.56,-223.1"/>
</g>
<!-- src/infrastructure/video -->
<g id="node7" class="node">
<title>src/infrastructure/video</title>
<g id="a_node7"><a xlink:href="src/infrastructure/video" xlink:title="video">
<polygon fill="#ffffcc" stroke="black" points="176,-199.62 124.14,-199.62 122,-197.49 122,-180.38 173.86,-180.38 176,-182.51 176,-199.62"/>
<polyline fill="none" stroke="black" points="173.86,-197.49 122,-197.49"/>
<polyline fill="none" stroke="black" points="173.86,-197.49 173.86,-180.38"/>
<polyline fill="none" stroke="black" points="173.86,-197.49 176,-199.62"/>
<text text-anchor="start" x="138.12" y="-187.07" font-family="Helvetica,sans-Serif" font-size="9.00">video</text>
</a>
</g>
</g>
<!-- src/infrastructure/adapters&#45;&gt;src/infrastructure/video -->
<g id="edge9" class="edge">
<title>src/infrastructure/adapters&#45;&gt;src/infrastructure/video</title>
<path fill="none" stroke="#000000" stroke-width="2" stroke-opacity="0.200000" d="M93.41,-211.02C99.81,-208.56 106.77,-205.88 113.5,-203.28"/>
<polygon fill="#000000" fill-opacity="0.200000" stroke="#000000" stroke-width="2" stroke-opacity="0.200000" points="114.19,-205.27 119.03,-201.15 112.68,-201.35 114.19,-205.27"/>
</g>
<!-- src/application/services -->
<g id="node4" class="node">
<title>src/application/services</title>
<g id="a_node4"><a xlink:href="src/application/services" xlink:title="services">
<polygon fill="#ffffcc" stroke="black" points="93.5,-324.62 41.64,-324.62 39.5,-322.49 39.5,-305.38 91.36,-305.38 93.5,-307.51 93.5,-324.62"/>
<polyline fill="none" stroke="black" points="91.36,-322.49 39.5,-322.49"/>
<polyline fill="none" stroke="black" points="91.36,-322.49 91.36,-305.38"/>
<polyline fill="none" stroke="black" points="91.36,-322.49 93.5,-324.62"/>
<text text-anchor="start" x="49.25" y="-312.07" font-family="Helvetica,sans-Serif" font-size="9.00">services</text>
</a>
</g>
</g>
<!-- src/application/services&#45;&gt;src/application/ports -->
<g id="edge2" class="edge">
<title>src/application/services&#45;&gt;src/application/ports</title>
<path fill="none" stroke="#000000" stroke-opacity="0.200000" d="M93.86,-306.16C100.53,-303.92 107.78,-301.49 114.75,-299.15"/>
<polygon fill="none" stroke="#000000" stroke-opacity="0.200000" points="115.13,-301.24 120.15,-297.34 113.79,-297.26 115.13,-301.24"/>
</g>
<!-- src/application/services&#45;&gt;src/domain/entities -->
<g id="edge3" class="edge">
<title>src/application/services&#45;&gt;src/domain/entities</title>
<path fill="none" stroke="#000000" stroke-opacity="0.200000" d="M93.98,-317.01C136.57,-318.56 218.54,-314.13 248.5,-261 258.39,-243.47 244.57,-96.21 256.5,-80 258.78,-76.91 261.75,-74.45 265.06,-72.5"/>
<polygon fill="none" stroke="#000000" stroke-opacity="0.200000" points="265.86,-74.45 270.38,-69.99 264.06,-70.65 265.86,-74.45"/>
</g>
<!-- src/application/services&#45;&gt;src/infrastructure/services -->
<g id="edge4" class="edge">
<title>src/application/services&#45;&gt;src/infrastructure/services</title>
<path fill="none" stroke="#000000" stroke-width="2" stroke-opacity="0.200000" d="M93.69,-309.48C99.3,-307.29 104.79,-304.24 109,-300 121.27,-287.62 114.48,-278.72 122,-263 126.02,-254.59 131.31,-245.75 136.08,-238.36"/>
<polygon fill="#000000" fill-opacity="0.200000" stroke="#000000" stroke-width="2" stroke-opacity="0.200000" points="137.71,-239.69 139.28,-233.53 134.21,-237.37 137.71,-239.69"/>
</g>
<!-- src/application/services&#45;&gt;src/infrastructure/video -->
<g id="edge5" class="edge">
<title>src/application/services&#45;&gt;src/infrastructure/video</title>
<path fill="none" stroke="#000000" stroke-width="2" stroke-opacity="0.200000" d="M93.91,-310.24C99.65,-308.02 105.15,-304.77 109,-300 134.12,-268.93 102.67,-243.71 122.08,-207.34"/>
<polygon fill="#000000" fill-opacity="0.200000" stroke="#000000" stroke-width="2" stroke-opacity="0.200000" points="123.71,-208.69 125.08,-202.48 120.14,-206.48 123.71,-208.69"/>
</g>
<!-- src/infrastructure/services&#45;&gt;src/domain/entities -->
<g id="edge14" class="edge">
<title>src/infrastructure/services&#45;&gt;src/domain/entities</title>
<path fill="none" stroke="#000000" stroke-opacity="0.200000" d="M176.19,-212.92C179.18,-211.06 181.91,-208.78 184,-206 199.91,-184.85 177.31,-169.01 192,-147 208.14,-122.81 231.21,-137.38 248.5,-114 257.73,-101.52 246.17,-91.59 256.5,-80 258.99,-77.2 262.04,-74.93 265.35,-73.08"/>
<polygon fill="none" stroke="#000000" stroke-opacity="0.200000" points="266.02,-75.08 270.58,-70.65 264.25,-71.27 266.02,-75.08"/>
</g>
<!-- src/domain/repositories -->
<g id="node9" class="node">
<title>src/domain/repositories</title>
<g id="a_node9"><a xlink:href="src/domain/repositories" xlink:title="repositories">
<polygon fill="#ffffcc" stroke="black" points="331.88,-105.62 268.51,-105.62 266.38,-103.49 266.38,-86.38 329.74,-86.38 331.88,-88.51 331.88,-105.62"/>
<polyline fill="none" stroke="black" points="329.74,-103.49 266.38,-103.49"/>
<polyline fill="none" stroke="black" points="329.74,-103.49 329.74,-86.38"/>
<polyline fill="none" stroke="black" points="329.74,-103.49 331.88,-105.62"/>
<text text-anchor="start" x="274.38" y="-93.08" font-family="Helvetica,sans-Serif" font-size="9.00">repositories</text>
</a>
</g>
</g>
<!-- src/infrastructure/services&#45;&gt;src/domain/repositories -->
<g id="edge15" class="edge">
<title>src/infrastructure/services&#45;&gt;src/domain/repositories</title>
<path fill="none" stroke="#000000" stroke-opacity="0.200000" d="M176.24,-212.49C179.15,-210.71 181.84,-208.57 184,-206 193.45,-194.79 182.81,-185.42 192,-174 209.58,-152.17 231.15,-168.01 248.5,-146 258.38,-133.47 245.92,-122.95 256.5,-111 257.58,-109.79 258.76,-108.67 260.02,-107.64"/>
<polygon fill="none" stroke="#000000" stroke-opacity="0.200000" points="260.88,-109.59 264.74,-104.53 258.57,-106.08 260.88,-109.59"/>
</g>
<!-- src/domain/valueObjects -->
<g id="node10" class="node">
<title>src/domain/valueObjects</title>
<g id="a_node10"><a xlink:href="src/domain/valueObjects" xlink:title="valueObjects">
<polygon fill="#ffffcc" stroke="black" points="333.75,-43.62 266.64,-43.62 264.5,-41.49 264.5,-24.38 331.61,-24.38 333.75,-26.51 333.75,-43.62"/>
<polyline fill="none" stroke="black" points="331.61,-41.49 264.5,-41.49"/>
<polyline fill="none" stroke="black" points="331.61,-41.49 331.61,-24.38"/>
<polyline fill="none" stroke="black" points="331.61,-41.49 333.75,-43.62"/>
<text text-anchor="start" x="272.5" y="-31.07" font-family="Helvetica,sans-Serif" font-size="9.00">valueObjects</text>
</a>
</g>
</g>
<!-- src/infrastructure/services&#45;&gt;src/domain/valueObjects -->
<g id="edge16" class="edge">
<title>src/infrastructure/services&#45;&gt;src/domain/valueObjects</title>
<path fill="none" stroke="#000000" stroke-width="2" stroke-opacity="0.200000" d="M176.32,-213.02C179.29,-211.14 181.98,-208.84 184,-206 196.3,-188.75 182.89,-130.13 192,-111 209.1,-75.1 222.72,-69.98 256.5,-49 257.06,-48.65 257.63,-48.31 258.22,-47.97"/>
<polygon fill="#000000" fill-opacity="0.200000" stroke="#000000" stroke-width="2" stroke-opacity="0.200000" points="259.01,-49.92 263.41,-45.33 257.11,-46.18 259.01,-49.92"/>
</g>
<!-- src/infrastructure/repository -->
<g id="node12" class="node">
<title>src/infrastructure/repository</title>
<g id="a_node12"><a xlink:href="src/infrastructure/repository" xlink:title="repository">
<polygon fill="#ffffcc" stroke="black" points="248.5,-199.62 194.14,-199.62 192,-197.49 192,-180.38 246.36,-180.38 248.5,-182.51 248.5,-199.62"/>
<polyline fill="none" stroke="black" points="246.36,-197.49 192,-197.49"/>
<polyline fill="none" stroke="black" points="246.36,-197.49 246.36,-180.38"/>
<polyline fill="none" stroke="black" points="246.36,-197.49 248.5,-199.62"/>
<text text-anchor="start" x="200" y="-187.07" font-family="Helvetica,sans-Serif" font-size="9.00">repository</text>
</a>
</g>
</g>
<!-- src/infrastructure/services&#45;&gt;src/infrastructure/repository -->
<g id="edge17" class="edge">
<title>src/infrastructure/services&#45;&gt;src/infrastructure/repository</title>
<path fill="none" stroke="#000000" stroke-width="2" stroke-opacity="0.200000" d="M172.69,-211.03C176.47,-209.36 180.35,-207.63 184,-206 185.74,-205.22 187.54,-204.41 189.34,-203.6"/>
<polygon fill="#000000" fill-opacity="0.200000" stroke="#000000" stroke-width="2" stroke-opacity="0.200000" points="189.9,-205.65 194.51,-201.27 188.17,-201.82 189.9,-205.65"/>
</g>
<!-- src/infrastructure/video&#45;&gt;src/domain/entities -->
<g id="edge18" class="edge">
<title>src/infrastructure/video&#45;&gt;src/domain/entities</title>
<path fill="none" stroke="#000000" stroke-opacity="0.200000" d="M156.74,-180.11C171.93,-158.56 211.11,-107.16 256.5,-80 259.17,-78.4 262.04,-76.94 264.97,-75.6"/>
<polygon fill="none" stroke="#000000" stroke-opacity="0.200000" points="265.76,-77.54 270.48,-73.29 264.14,-73.67 265.76,-77.54"/>
</g>
<!-- src/infrastructure/video&#45;&gt;src/domain/valueObjects -->
<g id="edge19" class="edge">
<title>src/infrastructure/video&#45;&gt;src/domain/valueObjects</title>
<path fill="none" stroke="#000000" stroke-width="2" stroke-opacity="0.200000" d="M149.66,-179.98C149.38,-154.03 152.51,-84.25 192,-50 209.12,-35.15 233.93,-30.8 255.25,-30.32"/>
<polygon fill="#000000" fill-opacity="0.200000" stroke="#000000" stroke-width="2" stroke-opacity="0.200000" points="255.12,-32.42 261.12,-30.33 255.12,-28.22 255.12,-32.42"/>
</g>
<!-- src/domain/constants -->
<g id="node8" class="node">
<title>src/domain/constants</title>
<g id="a_node8"><a xlink:href="src/domain/constants" xlink:title="constants">
<polygon fill="#ffffcc" stroke="black" points="327.38,-136.62 273.01,-136.62 270.88,-134.49 270.88,-117.38 325.24,-117.38 327.38,-119.51 327.38,-136.62"/>
<polyline fill="none" stroke="black" points="325.24,-134.49 270.88,-134.49"/>
<polyline fill="none" stroke="black" points="325.24,-134.49 325.24,-117.38"/>
<polyline fill="none" stroke="black" points="325.24,-134.49 327.38,-136.62"/>
<text text-anchor="start" x="278.88" y="-124.08" font-family="Helvetica,sans-Serif" font-size="9.00">constants</text>
</a>
</g>
</g>
<!-- src/infrastructure/database -->
<g id="node11" class="node">
<title>src/infrastructure/database</title>
<g id="a_node11"><a xlink:href="src/infrastructure/database" xlink:title="database">
<polygon fill="#ffffcc" stroke="black" points="326.62,-199.62 273.76,-199.62 271.62,-197.49 271.62,-180.38 324.49,-180.38 326.62,-182.51 326.62,-199.62"/>
<polyline fill="none" stroke="black" points="324.49,-197.49 271.62,-197.49"/>
<polyline fill="none" stroke="black" points="324.49,-197.49 324.49,-180.38"/>
<polyline fill="none" stroke="black" points="324.49,-197.49 326.62,-199.62"/>
<text text-anchor="start" x="279.62" y="-187.07" font-family="Helvetica,sans-Serif" font-size="9.00">database</text>
</a>
</g>
</g>
<!-- src/infrastructure/repository&#45;&gt;src/domain/entities -->
<g id="edge12" class="edge">
<title>src/infrastructure/repository&#45;&gt;src/domain/entities</title>
<path fill="none" stroke="#000000" stroke-opacity="0.200000" d="M229.1,-180.16C235.45,-171.64 244.04,-158.72 248.5,-146 253.39,-132.06 247.29,-91.55 256.5,-80 258.89,-77 261.94,-74.6 265.29,-72.68"/>
<polygon fill="none" stroke="#000000" stroke-opacity="0.200000" points="266.09,-74.62 270.64,-70.18 264.32,-70.81 266.09,-74.62"/>
</g>
<!-- src/infrastructure/repository&#45;&gt;src/domain/constants -->
<g id="edge11" class="edge">
<title>src/infrastructure/repository&#45;&gt;src/domain/constants</title>
<path fill="none" stroke="#000000" stroke-width="2" stroke-opacity="0.200000" d="M233.6,-179.88C245.82,-169.87 264.69,-154.4 278.87,-142.78"/>
<polygon fill="#000000" fill-opacity="0.200000" stroke="#000000" stroke-width="2" stroke-opacity="0.200000" points="280.15,-144.44 283.46,-139.02 277.49,-141.19 280.15,-144.44"/>
</g>
<!-- src/infrastructure/repository&#45;&gt;src/domain/repositories -->
<g id="edge13" class="edge">
<title>src/infrastructure/repository&#45;&gt;src/domain/repositories</title>
<path fill="none" stroke="#000000" stroke-opacity="0.200000" d="M237.07,-179.91C241.44,-176.35 245.74,-171.98 248.5,-167 260.68,-145.01 240.62,-130.5 256.5,-111 257.56,-109.69 258.75,-108.5 260.03,-107.41"/>
<polygon fill="none" stroke="#000000" stroke-opacity="0.200000" points="261.11,-109.22 264.91,-104.12 258.76,-105.73 261.11,-109.22"/>
</g>
<!-- src/infrastructure/repository&#45;&gt;src/infrastructure/database -->
<g id="edge10" class="edge">
<title>src/infrastructure/repository&#45;&gt;src/infrastructure/database</title>
<path fill="none" stroke="#000000" stroke-width="2" stroke-opacity="0.200000" d="M248.57,-190C253.04,-190 257.73,-190 262.37,-190"/>
<polygon fill="#000000" fill-opacity="0.200000" stroke="#000000" stroke-width="2" stroke-opacity="0.200000" points="262.12,-192.1 268.12,-190 262.12,-187.9 262.12,-192.1"/>
</g>
<!-- src/presentation/components -->
<g id="node13" class="node">
<title>src/presentation/components</title>
<g id="a_node13"><a xlink:href="src/presentation/components" xlink:title="components">
<polygon fill="#ffffcc" stroke="black" points="100.38,-136.62 34.76,-136.62 32.62,-134.49 32.62,-117.38 98.24,-117.38 100.38,-119.51 100.38,-136.62"/>
<polyline fill="none" stroke="black" points="98.24,-134.49 32.62,-134.49"/>
<polyline fill="none" stroke="black" points="98.24,-134.49 98.24,-117.38"/>
<polyline fill="none" stroke="black" points="98.24,-134.49 100.38,-136.62"/>
<text text-anchor="start" x="40.62" y="-124.08" font-family="Helvetica,sans-Serif" font-size="9.00">components</text>
</a>
</g>
</g>
<!-- src/presentation/components&#45;&gt;src/infrastructure/services -->
<g id="edge20" class="edge">
<title>src/presentation/components&#45;&gt;src/infrastructure/services</title>
<path fill="none" stroke="#000000" stroke-width="2" stroke-opacity="0.200000" d="M79.89,-136.9C89.02,-144.76 101.18,-156.48 109,-169 117.01,-181.82 112.53,-190.14 121.92,-204.14"/>
<polygon fill="#000000" fill-opacity="0.200000" stroke="#000000" stroke-width="2" stroke-opacity="0.200000" points="120.08,-205.2 125.44,-208.62 123.39,-202.6 120.08,-205.2"/>
</g>
</g>
</svg>
