<?xml version="1.0" encoding="UTF-8" standalone="no"?>
<!DOCTYPE svg PUBLIC "-//W3C//DTD SVG 1.1//EN"
 "http://www.w3.org/Graphics/SVG/1.1/DTD/svg11.dtd">
<!-- Generated by graphviz version 9.0.0 (20230911.1827)
 -->
<!-- Title: dependency&#45;cruiser output Pages: 1 -->
<svg width="795pt" height="544pt"
 viewBox="0.00 0.00 795.00 544.00" xmlns="http://www.w3.org/2000/svg" xmlns:xlink="http://www.w3.org/1999/xlink">
<g id="graph0" class="graph" transform="scale(1 1) rotate(0) translate(4 540)">
<title>dependency&#45;cruiser output</title>
<polygon fill="white" stroke="none" points="-4,4 -4,-540 791,-540 791,4 -4,4"/>
<g id="clust1" class="cluster">
<title>cluster_src</title>
<path fill="#ffffff" stroke="black" stroke-width="2" d="M20,-8C20,-8 767,-8 767,-8 773,-8 779,-14 779,-20 779,-20 779,-516 779,-516 779,-522 773,-528 767,-528 767,-528 20,-528 20,-528 14,-528 8,-522 8,-516 8,-516 8,-20 8,-20 8,-14 14,-8 20,-8"/>
<text text-anchor="middle" x="393.5" y="-515.45" font-family="Helvetica,sans-Serif" font-weight="bold" font-size="9.00">src</text>
</g>
<g id="clust2" class="cluster">
<title>cluster_src/application</title>
<path fill="#ffffff" stroke="black" stroke-width="2" d="M31.75,-195C31.75,-195 138.25,-195 138.25,-195 144.25,-195 150.25,-201 150.25,-207 150.25,-207 150.25,-273 150.25,-273 150.25,-279 144.25,-285 138.25,-285 138.25,-285 31.75,-285 31.75,-285 25.75,-285 19.75,-279 19.75,-273 19.75,-273 19.75,-207 19.75,-207 19.75,-201 25.75,-195 31.75,-195"/>
<text text-anchor="middle" x="85" y="-272.45" font-family="Helvetica,sans-Serif" font-weight="bold" font-size="9.00">application</text>
</g>
<g id="clust3" class="cluster">
<title>cluster_src/application/services</title>
<path fill="#ffffff" stroke="black" stroke-width="2" d="M39.75,-203C39.75,-203 130.25,-203 130.25,-203 136.25,-203 142.25,-209 142.25,-215 142.25,-215 142.25,-246 142.25,-246 142.25,-252 136.25,-258 130.25,-258 130.25,-258 39.75,-258 39.75,-258 33.75,-258 27.75,-252 27.75,-246 27.75,-246 27.75,-215 27.75,-215 27.75,-209 33.75,-203 39.75,-203"/>
<text text-anchor="middle" x="85" y="-245.45" font-family="Helvetica,sans-Serif" font-weight="bold" font-size="9.00">services</text>
</g>
<g id="clust4" class="cluster">
<title>cluster_src/components</title>
<path fill="#ffffff" stroke="black" stroke-width="2" d="M28,-34C28,-34 142,-34 142,-34 148,-34 154,-40 154,-46 154,-46 154,-112 154,-112 154,-118 148,-124 142,-124 142,-124 28,-124 28,-124 22,-124 16,-118 16,-112 16,-112 16,-46 16,-46 16,-40 22,-34 28,-34"/>
<text text-anchor="middle" x="85" y="-111.45" font-family="Helvetica,sans-Serif" font-weight="bold" font-size="9.00">components</text>
</g>
<g id="clust5" class="cluster">
<title>cluster_src/components/utils</title>
<path fill="#ffffff" stroke="black" stroke-width="2" d="M36,-42C36,-42 134,-42 134,-42 140,-42 146,-48 146,-54 146,-54 146,-85 146,-85 146,-91 140,-97 134,-97 134,-97 36,-97 36,-97 30,-97 24,-91 24,-85 24,-85 24,-54 24,-54 24,-48 30,-42 36,-42"/>
<text text-anchor="middle" x="85" y="-84.45" font-family="Helvetica,sans-Serif" font-weight="bold" font-size="9.00">utils</text>
</g>
<g id="clust6" class="cluster">
<title>cluster_src/domain</title>
<path fill="#ffffff" stroke="black" stroke-width="2" d="M667.25,-222C667.25,-222 730.25,-222 730.25,-222 736.25,-222 742.25,-228 742.25,-234 742.25,-234 742.25,-489 742.25,-489 742.25,-495 736.25,-501 730.25,-501 730.25,-501 667.25,-501 667.25,-501 661.25,-501 655.25,-495 655.25,-489 655.25,-489 655.25,-234 655.25,-234 655.25,-228 661.25,-222 667.25,-222"/>
<text text-anchor="middle" x="698.75" y="-488.45" font-family="Helvetica,sans-Serif" font-weight="bold" font-size="9.00">domain</text>
</g>
<g id="clust9" class="cluster">
<title>cluster_src/domain/repositories</title>
<path fill="#ffffff" stroke="black" stroke-width="2" d="M675.25,-293C675.25,-293 721.25,-293 721.25,-293 727.25,-293 733.25,-299 733.25,-305 733.25,-305 733.25,-336 733.25,-336 733.25,-342 727.25,-348 721.25,-348 721.25,-348 675.25,-348 675.25,-348 669.25,-348 663.25,-342 663.25,-336 663.25,-336 663.25,-305 663.25,-305 663.25,-299 669.25,-293 675.25,-293"/>
<text text-anchor="middle" x="698.25" y="-335.45" font-family="Helvetica,sans-Serif" font-weight="bold" font-size="9.00">repositories</text>
</g>
<g id="clust10" class="cluster">
<title>cluster_src/domain/valueObjects</title>
<path fill="#ffffff" stroke="black" stroke-width="2" d="M675.25,-419C675.25,-419 722.25,-419 722.25,-419 728.25,-419 734.25,-425 734.25,-431 734.25,-431 734.25,-462 734.25,-462 734.25,-468 728.25,-474 722.25,-474 722.25,-474 675.25,-474 675.25,-474 669.25,-474 663.25,-468 663.25,-462 663.25,-462 663.25,-431 663.25,-431 663.25,-425 669.25,-419 675.25,-419"/>
<text text-anchor="middle" x="698.75" y="-461.45" font-family="Helvetica,sans-Serif" font-weight="bold" font-size="9.00">valueObjects</text>
</g>
<g id="clust7" class="cluster">
<title>cluster_src/domain/constants</title>
<path fill="#ffffff" stroke="black" stroke-width="2" d="M675.25,-230C675.25,-230 721.25,-230 721.25,-230 727.25,-230 733.25,-236 733.25,-242 733.25,-242 733.25,-273 733.25,-273 733.25,-279 727.25,-285 721.25,-285 721.25,-285 675.25,-285 675.25,-285 669.25,-285 663.25,-279 663.25,-273 663.25,-273 663.25,-242 663.25,-242 663.25,-236 669.25,-230 675.25,-230"/>
<text text-anchor="middle" x="698.25" y="-272.45" font-family="Helvetica,sans-Serif" font-weight="bold" font-size="9.00">constants</text>
</g>
<g id="clust8" class="cluster">
<title>cluster_src/domain/entities</title>
<path fill="#ffffff" stroke="black" stroke-width="2" d="M675.25,-356C675.25,-356 721.25,-356 721.25,-356 727.25,-356 733.25,-362 733.25,-368 733.25,-368 733.25,-399 733.25,-399 733.25,-405 727.25,-411 721.25,-411 721.25,-411 675.25,-411 675.25,-411 669.25,-411 663.25,-405 663.25,-399 663.25,-399 663.25,-368 663.25,-368 663.25,-362 669.25,-356 675.25,-356"/>
<text text-anchor="middle" x="698.25" y="-398.45" font-family="Helvetica,sans-Serif" font-weight="bold" font-size="9.00">entities</text>
</g>
<g id="clust11" class="cluster">
<title>cluster_src/infrastructure</title>
<path fill="#ffffff" stroke="black" stroke-width="2" d="M174,-16C174,-16 759,-16 759,-16 765,-16 771,-22 771,-28 771,-28 771,-202 771,-202 771,-208 765,-214 759,-214 759,-214 174,-214 174,-214 168,-214 162,-208 162,-202 162,-202 162,-28 162,-28 162,-22 168,-16 174,-16"/>
<text text-anchor="middle" x="466.5" y="-201.45" font-family="Helvetica,sans-Serif" font-weight="bold" font-size="9.00">infrastructure</text>
</g>
<g id="clust14" class="cluster">
<title>cluster_src/infrastructure/services</title>
<path fill="#ffffff" stroke="black" stroke-width="2" d="M182,-132C182,-132 358.25,-132 358.25,-132 364.25,-132 370.25,-138 370.25,-144 370.25,-144 370.25,-175 370.25,-175 370.25,-181 364.25,-187 358.25,-187 358.25,-187 182,-187 182,-187 176,-187 170,-181 170,-175 170,-175 170,-144 170,-144 170,-138 176,-132 182,-132"/>
<text text-anchor="middle" x="270.12" y="-174.45" font-family="Helvetica,sans-Serif" font-weight="bold" font-size="9.00">services</text>
</g>
<g id="clust13" class="cluster">
<title>cluster_src/infrastructure/repository</title>
<path fill="#ffffff" stroke="black" stroke-width="2" d="M413.12,-101C413.12,-101 613.5,-101 613.5,-101 619.5,-101 625.5,-107 625.5,-113 625.5,-113 625.5,-175 625.5,-175 625.5,-181 619.5,-187 613.5,-187 613.5,-187 413.12,-187 413.12,-187 407.12,-187 401.12,-181 401.12,-175 401.12,-175 401.12,-113 401.12,-113 401.12,-107 407.12,-101 413.12,-101"/>
<text text-anchor="middle" x="513.31" y="-174.45" font-family="Helvetica,sans-Serif" font-weight="bold" font-size="9.00">repository</text>
</g>
<g id="clust12" class="cluster">
<title>cluster_src/infrastructure/database</title>
<path fill="#ffffff" stroke="black" stroke-width="2" d="M645.5,-116C645.5,-116 751,-116 751,-116 757,-116 763,-122 763,-128 763,-128 763,-159 763,-159 763,-165 757,-171 751,-171 751,-171 645.5,-171 645.5,-171 639.5,-171 633.5,-165 633.5,-159 633.5,-159 633.5,-128 633.5,-128 633.5,-122 639.5,-116 645.5,-116"/>
<text text-anchor="middle" x="698.25" y="-158.45" font-family="Helvetica,sans-Serif" font-weight="bold" font-size="9.00">database</text>
</g>
<g id="clust15" class="cluster">
<title>cluster_src/infrastructure/video</title>
<path fill="#ffffff" stroke="black" stroke-width="2" d="M182,-24C182,-24 490,-24 490,-24 496,-24 502,-30 502,-36 502,-36 502,-81 502,-81 502,-87 496,-93 490,-93 490,-93 182,-93 182,-93 176,-93 170,-87 170,-81 170,-81 170,-36 170,-36 170,-30 176,-24 182,-24"/>
<text text-anchor="middle" x="336" y="-80.45" font-family="Helvetica,sans-Serif" font-weight="bold" font-size="9.00">video</text>
</g>
<g id="clust16" class="cluster">
<title>cluster_src/stores</title>
<path fill="#ffffff" stroke="black" stroke-width="2" d="M51.75,-132C51.75,-132 118.25,-132 118.25,-132 124.25,-132 130.25,-138 130.25,-144 130.25,-144 130.25,-175 130.25,-175 130.25,-181 124.25,-187 118.25,-187 118.25,-187 51.75,-187 51.75,-187 45.75,-187 39.75,-181 39.75,-175 39.75,-175 39.75,-144 39.75,-144 39.75,-138 45.75,-132 51.75,-132"/>
<text text-anchor="middle" x="85" y="-174.45" font-family="Helvetica,sans-Serif" font-weight="bold" font-size="9.00">stores</text>
</g>
<!-- src/application/services/FileParserService.ts -->
<g id="node1" class="node">
<title>src/application/services/FileParserService.ts</title>
<g id="a_node1"><a xlink:href="src/application/services/FileParserService.ts" xlink:title="FileParserService.ts">
<path fill="#ddfeff" stroke="black" d="M127.83,-230.62C127.83,-230.62 42.17,-230.62 42.17,-230.62 38.96,-230.62 35.75,-227.42 35.75,-224.21 35.75,-224.21 35.75,-217.79 35.75,-217.79 35.75,-214.58 38.96,-211.38 42.17,-211.38 42.17,-211.38 127.83,-211.38 127.83,-211.38 131.04,-211.38 134.25,-214.58 134.25,-217.79 134.25,-217.79 134.25,-224.21 134.25,-224.21 134.25,-227.42 131.04,-230.62 127.83,-230.62"/>
<text text-anchor="start" x="43.75" y="-218.07" font-family="Helvetica,sans-Serif" font-size="9.00">FileParserService.ts</text>
</a>
</g>
</g>
<!-- src/domain/entities/index.ts -->
<g id="node2" class="node">
<title>src/domain/entities/index.ts</title>
<g id="a_node2"><a xlink:href="src/domain/entities/index.ts" xlink:title="index.ts">
<path fill="#ddfeff" stroke="black" d="M718.83,-383.62C718.83,-383.62 677.67,-383.62 677.67,-383.62 674.46,-383.62 671.25,-380.42 671.25,-377.21 671.25,-377.21 671.25,-370.79 671.25,-370.79 671.25,-367.58 674.46,-364.38 677.67,-364.38 677.67,-364.38 718.83,-364.38 718.83,-364.38 722.04,-364.38 725.25,-367.58 725.25,-370.79 725.25,-370.79 725.25,-377.21 725.25,-377.21 725.25,-380.42 722.04,-383.62 718.83,-383.62"/>
<text text-anchor="start" x="682.5" y="-371.07" font-family="Helvetica,sans-Serif" font-size="9.00">index.ts</text>
</a>
</g>
</g>
<!-- src/application/services/FileParserService.ts&#45;&gt;src/domain/entities/index.ts -->
<g id="edge1" class="edge">
<title>src/application/services/FileParserService.ts&#45;&gt;src/domain/entities/index.ts</title>
<path fill="none" stroke="#000000" stroke-opacity="0.200000" d="M88.43,-231.05C95.13,-256.36 116.49,-322.7 162,-351 215.21,-384.09 239.97,-361 302.62,-361 302.62,-361 302.62,-361 437.12,-361 518.63,-361 614.31,-367.44 663.81,-371.26"/>
<polygon fill="none" stroke="#000000" stroke-opacity="0.200000" points="663.4,-373.33 669.55,-371.71 663.73,-369.15 663.4,-373.33"/>
</g>
<!-- src/infrastructure/services/index.ts -->
<g id="node3" class="node">
<title>src/infrastructure/services/index.ts</title>
<g id="a_node3"><a xlink:href="src/infrastructure/services/index.ts" xlink:title="index.ts">
<path fill="#ddfeff" stroke="black" d="M225.58,-159.62C225.58,-159.62 184.42,-159.62 184.42,-159.62 181.21,-159.62 178,-156.42 178,-153.21 178,-153.21 178,-146.79 178,-146.79 178,-143.58 181.21,-140.38 184.42,-140.38 184.42,-140.38 225.58,-140.38 225.58,-140.38 228.79,-140.38 232,-143.58 232,-146.79 232,-146.79 232,-153.21 232,-153.21 232,-156.42 228.79,-159.62 225.58,-159.62"/>
<text text-anchor="start" x="189.25" y="-147.07" font-family="Helvetica,sans-Serif" font-size="9.00">index.ts</text>
</a>
</g>
</g>
<!-- src/application/services/FileParserService.ts&#45;&gt;src/infrastructure/services/index.ts -->
<g id="edge2" class="edge">
<title>src/application/services/FileParserService.ts&#45;&gt;src/infrastructure/services/index.ts</title>
<path fill="none" stroke="#000000" stroke-width="2" stroke-opacity="0.200000" d="M111.95,-210.95C124.97,-205.48 140.74,-198.15 154,-190 165.36,-183.02 177.05,-173.8 186.27,-165.97"/>
<polygon fill="#000000" fill-opacity="0.200000" stroke="#000000" stroke-width="2" stroke-opacity="0.200000" points="187.63,-167.56 190.79,-162.04 184.88,-164.39 187.63,-167.56"/>
</g>
<!-- src/infrastructure/video/index.ts -->
<g id="node4" class="node">
<title>src/infrastructure/video/index.ts</title>
<g id="a_node4"><a xlink:href="src/infrastructure/video/index.ts" xlink:title="index.ts">
<path fill="#ddfeff" stroke="black" d="M225.58,-65.62C225.58,-65.62 184.42,-65.62 184.42,-65.62 181.21,-65.62 178,-62.42 178,-59.21 178,-59.21 178,-52.79 178,-52.79 178,-49.58 181.21,-46.38 184.42,-46.38 184.42,-46.38 225.58,-46.38 225.58,-46.38 228.79,-46.38 232,-49.58 232,-52.79 232,-52.79 232,-59.21 232,-59.21 232,-62.42 228.79,-65.62 225.58,-65.62"/>
<text text-anchor="start" x="189.25" y="-53.08" font-family="Helvetica,sans-Serif" font-size="9.00">index.ts</text>
</a>
</g>
</g>
<!-- src/application/services/FileParserService.ts&#45;&gt;src/infrastructure/video/index.ts -->
<g id="edge3" class="edge">
<title>src/application/services/FileParserService.ts&#45;&gt;src/infrastructure/video/index.ts</title>
<path fill="none" stroke="#000000" stroke-width="2" stroke-opacity="0.200000" d="M125.23,-210.95C136.12,-206.3 146.9,-199.6 154,-190 170.26,-168.01 153.24,-154.9 162,-129 168.96,-108.43 181.98,-87.16 191.68,-72.93"/>
<polygon fill="#000000" fill-opacity="0.200000" stroke="#000000" stroke-width="2" stroke-opacity="0.200000" points="193.22,-74.39 194.94,-68.27 189.78,-71.98 193.22,-74.39"/>
</g>
<!-- src/infrastructure/services/VideoMetadataFacade.ts -->
<g id="node13" class="node">
<title>src/infrastructure/services/VideoMetadataFacade.ts</title>
<g id="a_node13"><a xlink:href="src/infrastructure/services/VideoMetadataFacade.ts" xlink:title="VideoMetadataFacade.ts">
<path fill="#ddfeff" stroke="black" d="M355.83,-159.62C355.83,-159.62 251.42,-159.62 251.42,-159.62 248.21,-159.62 245,-156.42 245,-153.21 245,-153.21 245,-146.79 245,-146.79 245,-143.58 248.21,-140.38 251.42,-140.38 251.42,-140.38 355.83,-140.38 355.83,-140.38 359.04,-140.38 362.25,-143.58 362.25,-146.79 362.25,-146.79 362.25,-153.21 362.25,-153.21 362.25,-156.42 359.04,-159.62 355.83,-159.62"/>
<text text-anchor="start" x="253" y="-147.07" font-family="Helvetica,sans-Serif" font-size="9.00">VideoMetadataFacade.ts</text>
</a>
</g>
</g>
<!-- src/infrastructure/services/index.ts&#45;&gt;src/infrastructure/services/VideoMetadataFacade.ts -->
<g id="edge19" class="edge">
<title>src/infrastructure/services/index.ts&#45;&gt;src/infrastructure/services/VideoMetadataFacade.ts</title>
<path fill="none" stroke="#000000" stroke-width="2" stroke-opacity="0.200000" d="M232.4,-150C236.31,-150 240.47,-150 244.73,-150"/>
<polygon fill="#000000" fill-opacity="0.200000" stroke="#000000" stroke-width="2" stroke-opacity="0.200000" points="247.53,-148.61 251.43,-156.71 243.33,-152.81 247.53,-148.61"/>
</g>
<!-- src/infrastructure/video/HTMLVideoProcessor.ts -->
<g id="node14" class="node">
<title>src/infrastructure/video/HTMLVideoProcessor.ts</title>
<g id="a_node14"><a xlink:href="src/infrastructure/video/HTMLVideoProcessor.ts" xlink:title="HTMLVideoProcessor.ts">
<path fill="#ddfeff" stroke="black" d="M487.58,-58.62C487.58,-58.62 384.67,-58.62 384.67,-58.62 381.46,-58.62 378.25,-55.42 378.25,-52.21 378.25,-52.21 378.25,-45.79 378.25,-45.79 378.25,-42.58 381.46,-39.38 384.67,-39.38 384.67,-39.38 487.58,-39.38 487.58,-39.38 490.79,-39.38 494,-42.58 494,-45.79 494,-45.79 494,-52.21 494,-52.21 494,-55.42 490.79,-58.62 487.58,-58.62"/>
<text text-anchor="start" x="386.25" y="-46.08" font-family="Helvetica,sans-Serif" font-size="9.00">HTMLVideoProcessor.ts</text>
</a>
</g>
</g>
<!-- src/infrastructure/video/index.ts&#45;&gt;src/infrastructure/video/HTMLVideoProcessor.ts -->
<g id="edge23" class="edge">
<title>src/infrastructure/video/index.ts&#45;&gt;src/infrastructure/video/HTMLVideoProcessor.ts</title>
<path fill="none" stroke="#000000" stroke-width="2" stroke-opacity="0.200000" d="M226.18,-45.98C232.1,-43.53 238.68,-41.25 378.03,-39.19"/>
<polygon fill="#000000" fill-opacity="0.200000" stroke="#000000" stroke-width="2" stroke-opacity="0.200000" points="380.83,-37.8 384.73,-45.9 376.63,-42 380.83,-37.8"/>
</g>
<!-- src/infrastructure/video/VideoFileParser.ts -->
<g id="node15" class="node">
<title>src/infrastructure/video/VideoFileParser.ts</title>
<g id="a_node15"><a xlink:href="src/infrastructure/video/VideoFileParser.ts" xlink:title="VideoFileParser.ts">
<path fill="#ddfeff" stroke="black" d="M343.08,-65.62C343.08,-65.62 264.17,-65.62 264.17,-65.62 260.96,-65.62 257.75,-62.42 257.75,-59.21 257.75,-59.21 257.75,-52.79 257.75,-52.79 257.75,-49.58 260.96,-46.38 264.17,-46.38 264.17,-46.38 343.08,-46.38 343.08,-46.38 346.29,-46.38 349.5,-49.58 349.5,-52.79 349.5,-52.79 349.5,-59.21 349.5,-59.21 349.5,-62.42 346.29,-65.62 343.08,-65.62"/>
<text text-anchor="start" x="265.75" y="-53.08" font-family="Helvetica,sans-Serif" font-size="9.00">VideoFileParser.ts</text>
</a>
</g>
</g>
<!-- src/infrastructure/video/index.ts&#45;&gt;src/infrastructure/video/VideoFileParser.ts -->
<g id="edge24" class="edge">
<title>src/infrastructure/video/index.ts&#45;&gt;src/infrastructure/video/VideoFileParser.ts</title>
<path fill="none" stroke="#000000" stroke-width="2" stroke-opacity="0.200000" d="M232.4,-56C240.11,-56 248.77,-56 257.3,-56"/>
<polygon fill="#000000" fill-opacity="0.200000" stroke="#000000" stroke-width="2" stroke-opacity="0.200000" points="260.11,-54.61 264.01,-62.71 255.91,-58.81 260.11,-54.61"/>
</g>
<!-- src/components/utils/DiagnosticsPanel.vue -->
<g id="node5" class="node">
<title>src/components/utils/DiagnosticsPanel.vue</title>
<g id="a_node5"><a xlink:href="src/components/utils/DiagnosticsPanel.vue" xlink:title="DiagnosticsPanel.vue">
<path fill="#41f083" stroke="black" d="M131.58,-69.62C131.58,-69.62 38.42,-69.62 38.42,-69.62 35.21,-69.62 32,-66.42 32,-63.21 32,-63.21 32,-56.79 32,-56.79 32,-53.58 35.21,-50.38 38.42,-50.38 38.42,-50.38 131.58,-50.38 131.58,-50.38 134.79,-50.38 138,-53.58 138,-56.79 138,-56.79 138,-63.21 138,-63.21 138,-66.42 134.79,-69.62 131.58,-69.62"/>
<text text-anchor="start" x="40" y="-57.08" font-family="Helvetica,sans-Serif" font-size="9.00">DiagnosticsPanel.vue</text>
</a>
</g>
</g>
<!-- src/components/utils/DiagnosticsPanel.vue&#45;&gt;src/infrastructure/services/index.ts -->
<g id="edge4" class="edge">
<title>src/components/utils/DiagnosticsPanel.vue&#45;&gt;src/infrastructure/services/index.ts</title>
<path fill="none" stroke="#000000" stroke-width="2" stroke-opacity="0.200000" d="M99.08,-69.98C119.63,-85.65 159.65,-116.18 183.89,-134.66"/>
<polygon fill="#000000" fill-opacity="0.200000" stroke="#000000" stroke-width="2" stroke-opacity="0.200000" points="182.41,-136.18 188.46,-138.14 184.96,-132.84 182.41,-136.18"/>
</g>
<!-- src/domain/constants/index.ts -->
<g id="node6" class="node">
<title>src/domain/constants/index.ts</title>
<g id="a_node6"><a xlink:href="src/domain/constants/index.ts" xlink:title="index.ts">
<path fill="#ddfeff" stroke="black" d="M718.83,-257.62C718.83,-257.62 677.67,-257.62 677.67,-257.62 674.46,-257.62 671.25,-254.42 671.25,-251.21 671.25,-251.21 671.25,-244.79 671.25,-244.79 671.25,-241.58 674.46,-238.38 677.67,-238.38 677.67,-238.38 718.83,-238.38 718.83,-238.38 722.04,-238.38 725.25,-241.58 725.25,-244.79 725.25,-244.79 725.25,-251.21 725.25,-251.21 725.25,-254.42 722.04,-257.62 718.83,-257.62"/>
<text text-anchor="start" x="682.5" y="-245.07" font-family="Helvetica,sans-Serif" font-size="9.00">index.ts</text>
</a>
</g>
</g>
<!-- src/domain/repositories/index.ts -->
<g id="node7" class="node">
<title>src/domain/repositories/index.ts</title>
<g id="a_node7"><a xlink:href="src/domain/repositories/index.ts" xlink:title="index.ts">
<path fill="#ddfeff" stroke="black" d="M718.83,-320.62C718.83,-320.62 677.67,-320.62 677.67,-320.62 674.46,-320.62 671.25,-317.42 671.25,-314.21 671.25,-314.21 671.25,-307.79 671.25,-307.79 671.25,-304.58 674.46,-301.38 677.67,-301.38 677.67,-301.38 718.83,-301.38 718.83,-301.38 722.04,-301.38 725.25,-304.58 725.25,-307.79 725.25,-307.79 725.25,-314.21 725.25,-314.21 725.25,-317.42 722.04,-320.62 718.83,-320.62"/>
<text text-anchor="start" x="682.5" y="-308.07" font-family="Helvetica,sans-Serif" font-size="9.00">index.ts</text>
</a>
</g>
</g>
<!-- src/domain/valueObjects/index.ts -->
<g id="node8" class="node">
<title>src/domain/valueObjects/index.ts</title>
<g id="a_node8"><a xlink:href="src/domain/valueObjects/index.ts" xlink:title="index.ts">
<path fill="#ddfeff" stroke="black" d="M718.83,-446.62C718.83,-446.62 677.67,-446.62 677.67,-446.62 674.46,-446.62 671.25,-443.42 671.25,-440.21 671.25,-440.21 671.25,-433.79 671.25,-433.79 671.25,-430.58 674.46,-427.38 677.67,-427.38 677.67,-427.38 718.83,-427.38 718.83,-427.38 722.04,-427.38 725.25,-430.58 725.25,-433.79 725.25,-433.79 725.25,-440.21 725.25,-440.21 725.25,-443.42 722.04,-446.62 718.83,-446.62"/>
<text text-anchor="start" x="682.5" y="-434.07" font-family="Helvetica,sans-Serif" font-size="9.00">index.ts</text>
</a>
</g>
</g>
<!-- src/infrastructure/database/DatabaseConnection.ts -->
<g id="node9" class="node">
<title>src/infrastructure/database/DatabaseConnection.ts</title>
<g id="a_node9"><a xlink:href="src/infrastructure/database/DatabaseConnection.ts" xlink:title="DatabaseConnection.ts">
<path fill="#ddfeff" stroke="black" d="M748.58,-143.62C748.58,-143.62 647.92,-143.62 647.92,-143.62 644.71,-143.62 641.5,-140.42 641.5,-137.21 641.5,-137.21 641.5,-130.79 641.5,-130.79 641.5,-127.58 644.71,-124.38 647.92,-124.38 647.92,-124.38 748.58,-124.38 748.58,-124.38 751.79,-124.38 755,-127.58 755,-130.79 755,-130.79 755,-137.21 755,-137.21 755,-140.42 751.79,-143.62 748.58,-143.62"/>
<text text-anchor="start" x="649.5" y="-131.07" font-family="Helvetica,sans-Serif" font-size="9.00">DatabaseConnection.ts</text>
</a>
</g>
</g>
<!-- src/infrastructure/repository/MetadataRepository.ts -->
<g id="node10" class="node">
<title>src/infrastructure/repository/MetadataRepository.ts</title>
<g id="a_node10"><a xlink:href="src/infrastructure/repository/MetadataRepository.ts" xlink:title="MetadataRepository.ts">
<path fill="#ddfeff" stroke="black" d="M611.08,-159.62C611.08,-159.62 516.42,-159.62 516.42,-159.62 513.21,-159.62 510,-156.42 510,-153.21 510,-153.21 510,-146.79 510,-146.79 510,-143.58 513.21,-140.38 516.42,-140.38 516.42,-140.38 611.08,-140.38 611.08,-140.38 614.29,-140.38 617.5,-143.58 617.5,-146.79 617.5,-146.79 617.5,-153.21 617.5,-153.21 617.5,-156.42 614.29,-159.62 611.08,-159.62"/>
<text text-anchor="start" x="518" y="-147.07" font-family="Helvetica,sans-Serif" font-size="9.00">MetadataRepository.ts</text>
</a>
</g>
</g>
<!-- src/infrastructure/repository/MetadataRepository.ts&#45;&gt;src/domain/entities/index.ts -->
<g id="edge8" class="edge">
<title>src/infrastructure/repository/MetadataRepository.ts&#45;&gt;src/domain/entities/index.ts</title>
<path fill="none" stroke="#000000" stroke-opacity="0.200000" d="M581.79,-160C596.26,-169.54 616.13,-185.35 625.5,-205 639.48,-234.33 614.1,-324.93 633.5,-351 640.71,-360.69 652.4,-366.31 663.8,-369.56"/>
<polygon fill="none" stroke="#000000" stroke-opacity="0.200000" points="663.03,-371.54 669.36,-370.93 664.04,-367.46 663.03,-371.54"/>
</g>
<!-- src/infrastructure/repository/MetadataRepository.ts&#45;&gt;src/domain/constants/index.ts -->
<g id="edge7" class="edge">
<title>src/infrastructure/repository/MetadataRepository.ts&#45;&gt;src/domain/constants/index.ts</title>
<path fill="none" stroke="#000000" stroke-width="2" stroke-opacity="0.200000" d="M578.43,-160.12C601.76,-177.37 649.36,-212.58 676.7,-232.8"/>
<polygon fill="#000000" fill-opacity="0.200000" stroke="#000000" stroke-width="2" stroke-opacity="0.200000" points="675.33,-234.4 681.41,-236.28 677.83,-231.03 675.33,-234.4"/>
</g>
<!-- src/infrastructure/repository/MetadataRepository.ts&#45;&gt;src/domain/repositories/index.ts -->
<g id="edge6" class="edge">
<title>src/infrastructure/repository/MetadataRepository.ts&#45;&gt;src/domain/repositories/index.ts</title>
<path fill="none" stroke="#000000" stroke-opacity="0.200000" d="M581.59,-160.1C595.94,-169.7 615.73,-185.55 625.5,-205 633.82,-221.56 622.13,-273.37 633.5,-288 640.91,-297.54 652.63,-303.13 664.02,-306.4"/>
<polygon fill="none" stroke="#000000" stroke-opacity="0.200000" points="663.22,-308.37 669.55,-307.78 664.24,-304.29 663.22,-308.37"/>
</g>
<!-- src/infrastructure/repository/MetadataRepository.ts&#45;&gt;src/infrastructure/database/DatabaseConnection.ts -->
<g id="edge5" class="edge">
<title>src/infrastructure/repository/MetadataRepository.ts&#45;&gt;src/infrastructure/database/DatabaseConnection.ts</title>
<path fill="none" stroke="#000000" stroke-width="2" stroke-opacity="0.200000" d="M617.88,-143.58C622.65,-143.01 627.51,-142.42 632.37,-141.83"/>
<polygon fill="#000000" fill-opacity="0.200000" stroke="#000000" stroke-width="2" stroke-opacity="0.200000" points="632.36,-143.95 638.07,-141.15 631.86,-139.78 632.36,-143.95"/>
</g>
<!-- src/infrastructure/repository/VideoRepository.ts -->
<g id="node11" class="node">
<title>src/infrastructure/repository/VideoRepository.ts</title>
<g id="a_node11"><a xlink:href="src/infrastructure/repository/VideoRepository.ts" xlink:title="VideoRepository.ts">
<path fill="#ddfeff" stroke="black" d="M603.96,-128.62C603.96,-128.62 523.54,-128.62 523.54,-128.62 520.33,-128.62 517.12,-125.42 517.12,-122.21 517.12,-122.21 517.12,-115.79 517.12,-115.79 517.12,-112.58 520.33,-109.38 523.54,-109.38 523.54,-109.38 603.96,-109.38 603.96,-109.38 607.17,-109.38 610.38,-112.58 610.38,-115.79 610.38,-115.79 610.38,-122.21 610.38,-122.21 610.38,-125.42 607.17,-128.62 603.96,-128.62"/>
<text text-anchor="start" x="525.12" y="-116.08" font-family="Helvetica,sans-Serif" font-size="9.00">VideoRepository.ts</text>
</a>
</g>
</g>
<!-- src/infrastructure/repository/VideoRepository.ts&#45;&gt;src/domain/entities/index.ts -->
<g id="edge11" class="edge">
<title>src/infrastructure/repository/VideoRepository.ts&#45;&gt;src/domain/entities/index.ts</title>
<path fill="none" stroke="#000000" stroke-opacity="0.200000" d="M610.72,-123.39C616.41,-125.79 621.59,-129.2 625.5,-134 640.72,-152.72 619.27,-331.51 633.5,-351 640.68,-360.84 652.48,-366.48 663.99,-369.71"/>
<polygon fill="none" stroke="#000000" stroke-opacity="0.200000" points="663.27,-371.7 669.6,-371.07 664.26,-367.62 663.27,-371.7"/>
</g>
<!-- src/infrastructure/repository/VideoRepository.ts&#45;&gt;src/domain/constants/index.ts -->
<g id="edge10" class="edge">
<title>src/infrastructure/repository/VideoRepository.ts&#45;&gt;src/domain/constants/index.ts</title>
<path fill="none" stroke="#000000" stroke-width="2" stroke-opacity="0.200000" d="M610.66,-124.23C616.21,-126.53 621.37,-129.68 625.5,-134 638.03,-147.1 625.54,-157.71 633.5,-174 644.66,-196.86 664.64,-218.34 679.26,-232.21"/>
<polygon fill="#000000" fill-opacity="0.200000" stroke="#000000" stroke-width="2" stroke-opacity="0.200000" points="677.5,-233.44 683.33,-235.97 680.35,-230.35 677.5,-233.44"/>
</g>
<!-- src/infrastructure/repository/VideoRepository.ts&#45;&gt;src/domain/repositories/index.ts -->
<g id="edge12" class="edge">
<title>src/infrastructure/repository/VideoRepository.ts&#45;&gt;src/domain/repositories/index.ts</title>
<path fill="none" stroke="#000000" stroke-opacity="0.200000" d="M610.66,-123.45C616.36,-125.83 621.56,-129.23 625.5,-134 647.32,-160.42 613.08,-260.48 633.5,-288 640.7,-297.7 652.38,-303.32 663.79,-306.57"/>
<polygon fill="none" stroke="#000000" stroke-opacity="0.200000" points="663.02,-308.55 669.34,-307.94 664.02,-304.47 663.02,-308.55"/>
</g>
<!-- src/infrastructure/repository/VideoRepository.ts&#45;&gt;src/infrastructure/database/DatabaseConnection.ts -->
<g id="edge9" class="edge">
<title>src/infrastructure/repository/VideoRepository.ts&#45;&gt;src/infrastructure/database/DatabaseConnection.ts</title>
<path fill="none" stroke="#000000" stroke-width="2" stroke-opacity="0.200000" d="M610.72,-124.2C617.81,-125.01 625.25,-125.85 632.65,-126.69"/>
<polygon fill="#000000" fill-opacity="0.200000" stroke="#000000" stroke-width="2" stroke-opacity="0.200000" points="632.11,-128.74 638.31,-127.33 632.58,-124.57 632.11,-128.74"/>
</g>
<!-- src/infrastructure/repository/index.ts -->
<g id="node12" class="node">
<title>src/infrastructure/repository/index.ts</title>
<g id="a_node12"><a xlink:href="src/infrastructure/repository/index.ts" xlink:title="index.ts">
<path fill="#ddfeff" stroke="black" d="M456.71,-159.62C456.71,-159.62 415.54,-159.62 415.54,-159.62 412.33,-159.62 409.12,-156.42 409.12,-153.21 409.12,-153.21 409.12,-146.79 409.12,-146.79 409.12,-143.58 412.33,-140.38 415.54,-140.38 415.54,-140.38 456.71,-140.38 456.71,-140.38 459.92,-140.38 463.12,-143.58 463.12,-146.79 463.12,-146.79 463.12,-153.21 463.12,-153.21 463.12,-156.42 459.92,-159.62 456.71,-159.62"/>
<text text-anchor="start" x="420.38" y="-147.07" font-family="Helvetica,sans-Serif" font-size="9.00">index.ts</text>
</a>
</g>
</g>
<!-- src/infrastructure/repository/index.ts&#45;&gt;src/infrastructure/repository/MetadataRepository.ts -->
<g id="edge13" class="edge">
<title>src/infrastructure/repository/index.ts&#45;&gt;src/infrastructure/repository/MetadataRepository.ts</title>
<path fill="none" stroke="#000000" stroke-width="2" stroke-opacity="0.200000" d="M463.46,-150C476.84,-150 493.61,-150 509.53,-150"/>
<polygon fill="#000000" fill-opacity="0.200000" stroke="#000000" stroke-width="2" stroke-opacity="0.200000" points="512.33,-148.61 516.23,-156.71 508.13,-152.81 512.33,-148.61"/>
</g>
<!-- src/infrastructure/repository/index.ts&#45;&gt;src/infrastructure/repository/VideoRepository.ts -->
<g id="edge14" class="edge">
<title>src/infrastructure/repository/index.ts&#45;&gt;src/infrastructure/repository/VideoRepository.ts</title>
<path fill="none" stroke="#000000" stroke-width="2" stroke-opacity="0.200000" d="M463.46,-143.5C480.44,-139.31 502.86,-133.78 522.1,-129.03"/>
<polygon fill="#000000" fill-opacity="0.200000" stroke="#000000" stroke-width="2" stroke-opacity="0.200000" points="524.91,-127.64 528.81,-135.74 520.71,-131.84 524.91,-127.64"/>
</g>
<!-- src/infrastructure/services/VideoMetadataFacade.ts&#45;&gt;src/domain/entities/index.ts -->
<g id="edge15" class="edge">
<title>src/infrastructure/services/VideoMetadataFacade.ts&#45;&gt;src/domain/entities/index.ts</title>
<path fill="none" stroke="#000000" stroke-opacity="0.200000" d="M313.36,-160.03C326.41,-174.58 352.24,-201.79 378.25,-220 478.79,-290.4 525.86,-271.34 625.5,-343 629.58,-345.94 629.26,-348.3 633.5,-351 642.78,-356.89 653.78,-361.55 664.01,-365.09"/>
<polygon fill="none" stroke="#000000" stroke-opacity="0.200000" points="663.14,-367.01 669.49,-366.88 664.45,-363.02 663.14,-367.01"/>
</g>
<!-- src/infrastructure/services/VideoMetadataFacade.ts&#45;&gt;src/domain/repositories/index.ts -->
<g id="edge16" class="edge">
<title>src/infrastructure/services/VideoMetadataFacade.ts&#45;&gt;src/domain/repositories/index.ts</title>
<path fill="none" stroke="#000000" stroke-opacity="0.200000" d="M321.56,-160.02C336.27,-168.54 358.3,-180.8 378.25,-190 480.07,-236.96 605.74,-280.63 664.31,-300.2"/>
<polygon fill="none" stroke="#000000" stroke-opacity="0.200000" points="663.32,-302.09 669.68,-301.99 664.65,-298.1 663.32,-302.09"/>
</g>
<!-- src/infrastructure/services/VideoMetadataFacade.ts&#45;&gt;src/domain/valueObjects/index.ts -->
<g id="edge17" class="edge">
<title>src/infrastructure/services/VideoMetadataFacade.ts&#45;&gt;src/domain/valueObjects/index.ts</title>
<path fill="none" stroke="#000000" stroke-width="2" stroke-opacity="0.200000" d="M310.03,-160.05C320.95,-179.67 347.24,-223.73 378.25,-253 475.8,-345.06 512.99,-355.12 633.5,-414 642.74,-418.51 653.1,-422.63 662.74,-426.09"/>
<polygon fill="#000000" fill-opacity="0.200000" stroke="#000000" stroke-width="2" stroke-opacity="0.200000" points="661.76,-427.97 668.12,-427.96 663.14,-424 661.76,-427.97"/>
</g>
<!-- src/infrastructure/services/VideoMetadataFacade.ts&#45;&gt;src/infrastructure/repository/index.ts -->
<g id="edge18" class="edge">
<title>src/infrastructure/services/VideoMetadataFacade.ts&#45;&gt;src/infrastructure/repository/index.ts</title>
<path fill="none" stroke="#000000" stroke-width="2" stroke-opacity="0.200000" d="M362.62,-150C375.3,-150 388.35,-150 399.82,-150"/>
<polygon fill="#000000" fill-opacity="0.200000" stroke="#000000" stroke-width="2" stroke-opacity="0.200000" points="399.61,-152.1 405.61,-150 399.61,-147.9 399.61,-152.1"/>
</g>
<!-- src/infrastructure/video/VideoFileParser.ts&#45;&gt;src/domain/entities/index.ts -->
<g id="edge21" class="edge">
<title>src/infrastructure/video/VideoFileParser.ts&#45;&gt;src/domain/entities/index.ts</title>
<path fill="none" stroke="#000000" stroke-opacity="0.200000" d="M317.5,-66.04C332.88,-78.85 358.07,-102.53 370.25,-129 381.68,-153.84 361.18,-168.64 378.25,-190 451.36,-281.47 553.16,-188.93 625.5,-281 644.85,-305.62 614.08,-326.44 633.5,-351 640.86,-360.31 652.33,-365.86 663.51,-369.16"/>
<polygon fill="none" stroke="#000000" stroke-opacity="0.200000" points="662.98,-371.19 669.31,-370.64 664.02,-367.12 662.98,-371.19"/>
</g>
<!-- src/infrastructure/video/VideoFileParser.ts&#45;&gt;src/domain/valueObjects/index.ts -->
<g id="edge22" class="edge">
<title>src/infrastructure/video/VideoFileParser.ts&#45;&gt;src/domain/valueObjects/index.ts</title>
<path fill="none" stroke="#000000" stroke-width="2" stroke-opacity="0.200000" d="M317.67,-65.97C333.23,-78.69 358.6,-102.29 370.25,-129 378.1,-147 366.76,-201.08 378.25,-217 413.36,-265.66 449.14,-242.59 502,-271 559.61,-301.96 590.7,-295.63 625.5,-351 640.52,-374.9 615.85,-391.97 633.5,-414 640.64,-422.91 651.53,-428.37 662.3,-431.72"/>
<polygon fill="#000000" fill-opacity="0.200000" stroke="#000000" stroke-width="2" stroke-opacity="0.200000" points="661.57,-433.7 667.91,-433.2 662.64,-429.64 661.57,-433.7"/>
</g>
<!-- src/infrastructure/video/VideoFileParser.ts&#45;&gt;src/infrastructure/video/HTMLVideoProcessor.ts -->
<g id="edge20" class="edge">
<title>src/infrastructure/video/VideoFileParser.ts&#45;&gt;src/infrastructure/video/HTMLVideoProcessor.ts</title>
<path fill="none" stroke="#000000" stroke-width="2" stroke-opacity="0.200000" d="M349.9,-53.57C356.18,-53.23 362.73,-52.88 369.28,-52.53"/>
<polygon fill="#000000" fill-opacity="0.200000" stroke="#000000" stroke-width="2" stroke-opacity="0.200000" points="369.3,-54.63 375.18,-52.22 369.08,-50.44 369.3,-54.63"/>
</g>
<!-- src/stores/videosStore.ts -->
<g id="node16" class="node">
<title>src/stores/videosStore.ts</title>
<g id="a_node16"><a xlink:href="src/stores/videosStore.ts" xlink:title="videosStore.ts">
<path fill="#ddfeff" stroke="black" d="M115.83,-159.62C115.83,-159.62 54.17,-159.62 54.17,-159.62 50.96,-159.62 47.75,-156.42 47.75,-153.21 47.75,-153.21 47.75,-146.79 47.75,-146.79 47.75,-143.58 50.96,-140.38 54.17,-140.38 54.17,-140.38 115.83,-140.38 115.83,-140.38 119.04,-140.38 122.25,-143.58 122.25,-146.79 122.25,-146.79 122.25,-153.21 122.25,-153.21 122.25,-156.42 119.04,-159.62 115.83,-159.62"/>
<text text-anchor="start" x="55.75" y="-147.07" font-family="Helvetica,sans-Serif" font-size="9.00">videosStore.ts</text>
</a>
</g>
</g>
<!-- src/stores/videosStore.ts&#45;&gt;src/domain/entities/index.ts -->
<g id="edge25" class="edge">
<title>src/stores/videosStore.ts&#45;&gt;src/domain/entities/index.ts</title>
<path fill="none" stroke="#000000" stroke-opacity="0.200000" d="M100.8,-159.95C114.9,-169.64 136.51,-185.06 154,-200 224.64,-260.35 209.72,-347 302.62,-347 302.62,-347 302.62,-347 437.12,-347 521.02,-347 542.37,-347.72 625.5,-359 638.03,-360.7 651.65,-363.34 663.61,-365.94"/>
<polygon fill="none" stroke="#000000" stroke-opacity="0.200000" points="663.04,-367.96 669.35,-367.21 663.95,-363.86 663.04,-367.96"/>
</g>
<!-- src/stores/videosStore.ts&#45;&gt;src/infrastructure/services/index.ts -->
<g id="edge26" class="edge">
<title>src/stores/videosStore.ts&#45;&gt;src/infrastructure/services/index.ts</title>
<path fill="none" stroke="#000000" stroke-width="2" stroke-opacity="0.200000" d="M122.69,-150C137.48,-150 154.46,-150 169.07,-150"/>
<polygon fill="#000000" fill-opacity="0.200000" stroke="#000000" stroke-width="2" stroke-opacity="0.200000" points="168.79,-152.1 174.79,-150 168.79,-147.9 168.79,-152.1"/>
</g>
<!-- src/stores/videosStore.ts&#45;&gt;src/infrastructure/video/index.ts -->
<g id="edge27" class="edge">
<title>src/stores/videosStore.ts&#45;&gt;src/infrastructure/video/index.ts</title>
<path fill="none" stroke="#000000" stroke-width="2" stroke-opacity="0.200000" d="M100.34,-140.01C114.29,-130.16 135.97,-114.52 154,-100 165.05,-91.1 177,-80.62 186.44,-72.12"/>
<polygon fill="#000000" fill-opacity="0.200000" stroke="#000000" stroke-width="2" stroke-opacity="0.200000" points="187.84,-73.69 190.88,-68.1 185.02,-70.58 187.84,-73.69"/>
</g>
</g>
</svg>
