<?xml version="1.0" encoding="UTF-8" standalone="no"?>
<!DOCTYPE svg PUBLIC "-//W3C//DTD SVG 1.1//EN"
 "http://www.w3.org/Graphics/SVG/1.1/DTD/svg11.dtd">
<!-- Generated by graphviz version 2.43.0 (0)
 -->
<!-- Title: dependency&#45;cruiser output Pages: 1 -->
<svg width="466pt" height="346pt"
 viewBox="0.00 0.00 465.50 346.00" xmlns="http://www.w3.org/2000/svg" xmlns:xlink="http://www.w3.org/1999/xlink">
<g id="graph0" class="graph" transform="scale(1 1) rotate(0) translate(4 342)">
<title>dependency&#45;cruiser output</title>
<polygon fill="white" stroke="transparent" points="-4,4 -4,-342 461.5,-342 461.5,4 -4,4"/>
<g id="clust1" class="cluster">
<title>cluster_src</title>
<path fill="#ffffff" stroke="black" stroke-width="2" d="M14,-8C14,-8 437.5,-8 437.5,-8 443.5,-8 449.5,-14 449.5,-20 449.5,-20 449.5,-318 449.5,-318 449.5,-324 443.5,-330 437.5,-330 437.5,-330 14,-330 14,-330 8,-330 2,-324 2,-318 2,-318 2,-20 2,-20 2,-14 8,-8 14,-8"/>
<text text-anchor="middle" x="225.75" y="-318.8" font-family="Helvetica,sans-Serif" font-weight="bold" font-size="9.00">src</text>
</g>
<g id="clust2" class="cluster">
<title>cluster_src/application</title>
<path fill="#ffffff" stroke="black" stroke-width="2" d="M274,-16C274,-16 324,-16 324,-16 330,-16 336,-22 336,-28 336,-28 336,-86 336,-86 336,-92 330,-98 324,-98 324,-98 274,-98 274,-98 268,-98 262,-92 262,-86 262,-86 262,-28 262,-28 262,-22 268,-16 274,-16"/>
<text text-anchor="middle" x="299" y="-86.8" font-family="Helvetica,sans-Serif" font-weight="bold" font-size="9.00">application</text>
</g>
<g id="clust3" class="cluster">
<title>cluster_src/domain</title>
<path fill="#ffffff" stroke="black" stroke-width="2" d="M363.5,-122C363.5,-122 429.5,-122 429.5,-122 435.5,-122 441.5,-128 441.5,-134 441.5,-134 441.5,-252 441.5,-252 441.5,-258 435.5,-264 429.5,-264 429.5,-264 363.5,-264 363.5,-264 357.5,-264 351.5,-258 351.5,-252 351.5,-252 351.5,-134 351.5,-134 351.5,-128 357.5,-122 363.5,-122"/>
<text text-anchor="middle" x="396.5" y="-252.8" font-family="Helvetica,sans-Serif" font-weight="bold" font-size="9.00">domain</text>
</g>
<g id="clust4" class="cluster">
<title>cluster_src/infrastructure</title>
<path fill="#ffffff" stroke="black" stroke-width="2" d="M121,-154C121,-154 323.5,-154 323.5,-154 329.5,-154 335.5,-160 335.5,-166 335.5,-166 335.5,-282 335.5,-282 335.5,-288 329.5,-294 323.5,-294 323.5,-294 121,-294 121,-294 115,-294 109,-288 109,-282 109,-282 109,-166 109,-166 109,-160 115,-154 121,-154"/>
<text text-anchor="middle" x="222.25" y="-282.8" font-family="Helvetica,sans-Serif" font-weight="bold" font-size="9.00">infrastructure</text>
</g>
<g id="clust5" class="cluster">
<title>cluster_src/presentation</title>
<path fill="#ffffff" stroke="black" stroke-width="2" d="M22,-250C22,-250 81,-250 81,-250 87,-250 93,-256 93,-262 93,-262 93,-290 93,-290 93,-296 87,-302 81,-302 81,-302 22,-302 22,-302 16,-302 10,-296 10,-290 10,-290 10,-262 10,-262 10,-256 16,-250 22,-250"/>
<text text-anchor="middle" x="51.5" y="-290.8" font-family="Helvetica,sans-Serif" font-weight="bold" font-size="9.00">presentation</text>
</g>
<!-- src/application/ports -->
<g id="node1" class="node">
<title>src/application/ports</title>
<g id="a_node1"><a xlink:href="src/application/ports" xlink:title="ports">
<polygon fill="#ffffcc" stroke="black" points="325.5,-72 273.5,-72 271.5,-70 271.5,-54 323.5,-54 325.5,-56 325.5,-72"/>
<polyline fill="none" stroke="black" points="323.5,-70 271.5,-70 "/>
<polyline fill="none" stroke="black" points="323.5,-70 323.5,-54 "/>
<polyline fill="none" stroke="black" points="323.5,-70 325.5,-72 "/>
<text text-anchor="start" x="286.5" y="-60.8" font-family="Helvetica,sans-Serif" font-size="9.00">ports</text>
</a>
</g>
</g>
<!-- src/application/usecases -->
<g id="node2" class="node">
<title>src/application/usecases</title>
<g id="a_node2"><a xlink:href="src/application/usecases" xlink:title="usecases">
<polygon fill="#ffffcc" stroke="black" points="327,-42 272,-42 270,-40 270,-24 325,-24 327,-26 327,-42"/>
<polyline fill="none" stroke="black" points="325,-40 270,-40 "/>
<polyline fill="none" stroke="black" points="325,-40 325,-24 "/>
<polyline fill="none" stroke="black" points="325,-40 327,-42 "/>
<text text-anchor="start" x="278" y="-30.8" font-family="Helvetica,sans-Serif" font-size="9.00">usecases</text>
</a>
</g>
</g>
<!-- src/domain/constants -->
<g id="node3" class="node">
<title>src/domain/constants</title>
<g id="a_node3"><a xlink:href="src/domain/constants" xlink:title="constants">
<polygon fill="#ffffcc" stroke="black" points="427,-178 368,-178 366,-176 366,-160 425,-160 427,-162 427,-178"/>
<polyline fill="none" stroke="black" points="425,-176 366,-176 "/>
<polyline fill="none" stroke="black" points="425,-176 425,-160 "/>
<polyline fill="none" stroke="black" points="425,-176 427,-178 "/>
<text text-anchor="start" x="374" y="-166.8" font-family="Helvetica,sans-Serif" font-size="9.00">constants</text>
</a>
</g>
</g>
<!-- src/domain/entities -->
<g id="node4" class="node">
<title>src/domain/entities</title>
<g id="a_node4"><a xlink:href="src/domain/entities" xlink:title="entities">
<polygon fill="#ffffcc" stroke="black" points="423.5,-208 371.5,-208 369.5,-206 369.5,-190 421.5,-190 423.5,-192 423.5,-208"/>
<polyline fill="none" stroke="black" points="421.5,-206 369.5,-206 "/>
<polyline fill="none" stroke="black" points="421.5,-206 421.5,-190 "/>
<polyline fill="none" stroke="black" points="421.5,-206 423.5,-208 "/>
<text text-anchor="start" x="379.5" y="-196.8" font-family="Helvetica,sans-Serif" font-size="9.00">entities</text>
</a>
</g>
</g>
<!-- src/domain/repositories -->
<g id="node5" class="node">
<title>src/domain/repositories</title>
<g id="a_node5"><a xlink:href="src/domain/repositories" xlink:title="repositories">
<polygon fill="#ffffcc" stroke="black" points="430.5,-148 364.5,-148 362.5,-146 362.5,-130 428.5,-130 430.5,-132 430.5,-148"/>
<polyline fill="none" stroke="black" points="428.5,-146 362.5,-146 "/>
<polyline fill="none" stroke="black" points="428.5,-146 428.5,-130 "/>
<polyline fill="none" stroke="black" points="428.5,-146 430.5,-148 "/>
<text text-anchor="start" x="370.5" y="-136.8" font-family="Helvetica,sans-Serif" font-size="9.00">repositories</text>
</a>
</g>
</g>
<!-- src/domain/valueObjects -->
<g id="node6" class="node">
<title>src/domain/valueObjects</title>
<g id="a_node6"><a xlink:href="src/domain/valueObjects" xlink:title="valueObjects">
<polygon fill="#ffffcc" stroke="black" points="433.5,-238 361.5,-238 359.5,-236 359.5,-220 431.5,-220 433.5,-222 433.5,-238"/>
<polyline fill="none" stroke="black" points="431.5,-236 359.5,-236 "/>
<polyline fill="none" stroke="black" points="431.5,-236 431.5,-220 "/>
<polyline fill="none" stroke="black" points="431.5,-236 433.5,-238 "/>
<text text-anchor="start" x="367.5" y="-226.8" font-family="Helvetica,sans-Serif" font-size="9.00">valueObjects</text>
</a>
</g>
</g>
<!-- src/infrastructure/adapters -->
<g id="node7" class="node">
<title>src/infrastructure/adapters</title>
<g id="a_node7"><a xlink:href="src/infrastructure/adapters" xlink:title="adapters">
<polygon fill="#ffffcc" stroke="black" points="243,-210 189,-210 187,-208 187,-192 241,-192 243,-194 243,-210"/>
<polyline fill="none" stroke="black" points="241,-208 187,-208 "/>
<polyline fill="none" stroke="black" points="241,-208 241,-192 "/>
<polyline fill="none" stroke="black" points="241,-208 243,-210 "/>
<text text-anchor="start" x="195" y="-198.8" font-family="Helvetica,sans-Serif" font-size="9.00">adapters</text>
</a>
</g>
</g>
<!-- src/infrastructure/adapters&#45;&gt;src/application/ports -->
<g id="edge1" class="edge">
<title>src/infrastructure/adapters&#45;&gt;src/application/ports</title>
<path fill="none" stroke="#000000" stroke-opacity="0.200000" d="M239.51,-191.94C241.95,-190.25 244.2,-188.29 246,-186 265.49,-161.28 249.6,-145.94 262,-117 268.17,-102.6 278.17,-87.84 285.99,-77.4"/>
<polygon fill="none" stroke="#000000" stroke-opacity="0.200000" points="287.87,-78.4 289.85,-72.36 284.53,-75.85 287.87,-78.4"/>
</g>
<!-- src/infrastructure/adapters&#45;&gt;src/domain/entities -->
<g id="edge2" class="edge">
<title>src/infrastructure/adapters&#45;&gt;src/domain/entities</title>
<path fill="none" stroke="#000000" stroke-opacity="0.200000" d="M239.42,-210.14C241.88,-211.81 244.15,-213.75 246,-216 262.98,-236.65 240.73,-257.8 262,-274 288.17,-293.93 310,-294.14 336,-274 357.78,-257.14 332.78,-234.2 351.5,-214 354.82,-210.42 359.02,-207.7 363.51,-205.62"/>
<polygon fill="none" stroke="#000000" stroke-opacity="0.200000" points="364.5,-207.49 369.3,-203.33 362.95,-203.58 364.5,-207.49"/>
</g>
<!-- src/infrastructure/adapters&#45;&gt;src/domain/repositories -->
<g id="edge3" class="edge">
<title>src/infrastructure/adapters&#45;&gt;src/domain/repositories</title>
<path fill="none" stroke="#000000" stroke-opacity="0.200000" d="M238.9,-191.87C241.51,-190.18 243.96,-188.24 246,-186 259.18,-171.55 246.1,-156.39 262,-145 289.02,-125.63 327.63,-126.07 356.38,-130.21"/>
<polygon fill="none" stroke="#000000" stroke-opacity="0.200000" points="356.1,-132.29 362.35,-131.14 356.75,-128.14 356.1,-132.29"/>
</g>
<!-- src/infrastructure/video -->
<g id="node8" class="node">
<title>src/infrastructure/video</title>
<g id="a_node8"><a xlink:href="src/infrastructure/video" xlink:title="video">
<polygon fill="#ffffcc" stroke="black" points="325.5,-238 273.5,-238 271.5,-236 271.5,-220 323.5,-220 325.5,-222 325.5,-238"/>
<polyline fill="none" stroke="black" points="323.5,-236 271.5,-236 "/>
<polyline fill="none" stroke="black" points="323.5,-236 323.5,-220 "/>
<polyline fill="none" stroke="black" points="323.5,-236 325.5,-238 "/>
<text text-anchor="start" x="286" y="-226.8" font-family="Helvetica,sans-Serif" font-size="9.00">video</text>
</a>
</g>
</g>
<!-- src/infrastructure/adapters&#45;&gt;src/infrastructure/video -->
<g id="edge4" class="edge">
<title>src/infrastructure/adapters&#45;&gt;src/infrastructure/video</title>
<path fill="none" stroke="#000000" stroke-width="2" stroke-opacity="0.200000" d="M242.24,-210.01C249.65,-212.56 257.81,-215.36 265.52,-218.01"/>
<polygon fill="#000000" fill-opacity="0.200000" stroke="#000000" stroke-width="2" stroke-opacity="0.200000" points="264.96,-220.04 271.31,-220 266.32,-216.07 264.96,-220.04"/>
</g>
<!-- src/infrastructure/video&#45;&gt;src/domain/entities -->
<g id="edge20" class="edge">
<title>src/infrastructure/video&#45;&gt;src/domain/entities</title>
<path fill="none" stroke="#000000" stroke-opacity="0.200000" d="M325.73,-220.8C337.37,-217.16 351.18,-212.85 363.43,-209.02"/>
<polygon fill="none" stroke="#000000" stroke-opacity="0.200000" points="364.2,-210.98 369.3,-207.19 362.95,-206.97 364.2,-210.98"/>
</g>
<!-- src/infrastructure/video&#45;&gt;src/domain/valueObjects -->
<g id="edge21" class="edge">
<title>src/infrastructure/video&#45;&gt;src/domain/valueObjects</title>
<path fill="none" stroke="#000000" stroke-width="2" stroke-opacity="0.200000" d="M325.73,-229C334.2,-229 343.82,-229 353.15,-229"/>
<polygon fill="#000000" fill-opacity="0.200000" stroke="#000000" stroke-width="2" stroke-opacity="0.200000" points="353.22,-231.1 359.22,-229 353.22,-226.9 353.22,-231.1"/>
</g>
<!-- src/infrastructure/database -->
<g id="node9" class="node">
<title>src/infrastructure/database</title>
<g id="a_node9"><a xlink:href="src/infrastructure/database" xlink:title="database">
<polygon fill="#ffffcc" stroke="black" points="327.5,-268 271.5,-268 269.5,-266 269.5,-250 325.5,-250 327.5,-252 327.5,-268"/>
<polyline fill="none" stroke="black" points="325.5,-266 269.5,-266 "/>
<polyline fill="none" stroke="black" points="325.5,-266 325.5,-250 "/>
<polyline fill="none" stroke="black" points="325.5,-266 327.5,-268 "/>
<text text-anchor="start" x="277.5" y="-256.8" font-family="Helvetica,sans-Serif" font-size="9.00">database</text>
</a>
</g>
</g>
<!-- src/infrastructure/di -->
<g id="node10" class="node">
<title>src/infrastructure/di</title>
<g id="a_node10"><a xlink:href="src/infrastructure/di" xlink:title="di">
<polygon fill="#ffffcc" stroke="black" points="171,-240 119,-240 117,-238 117,-222 169,-222 171,-224 171,-240"/>
<polyline fill="none" stroke="black" points="169,-238 117,-238 "/>
<polyline fill="none" stroke="black" points="169,-238 169,-222 "/>
<polyline fill="none" stroke="black" points="169,-238 171,-240 "/>
<text text-anchor="start" x="139.5" y="-228.8" font-family="Helvetica,sans-Serif" font-size="9.00">di</text>
</a>
</g>
</g>
<!-- src/infrastructure/di&#45;&gt;src/application/usecases -->
<g id="edge5" class="edge">
<title>src/infrastructure/di&#45;&gt;src/application/usecases</title>
<path fill="none" stroke="#000000" stroke-width="2" stroke-opacity="0.200000" d="M148.32,-221.9C159.53,-192.37 198.88,-98.27 262,-48 263.24,-47.02 264.55,-46.08 265.91,-45.21"/>
<polygon fill="#000000" fill-opacity="0.200000" stroke="#000000" stroke-width="2" stroke-opacity="0.200000" points="267.2,-46.89 271.35,-42.08 265.1,-43.25 267.2,-46.89"/>
</g>
<!-- src/infrastructure/di&#45;&gt;src/infrastructure/adapters -->
<g id="edge6" class="edge">
<title>src/infrastructure/di&#45;&gt;src/infrastructure/adapters</title>
<path fill="none" stroke="#000000" stroke-width="2" stroke-opacity="0.200000" d="M165.7,-222C172.4,-219.09 179.93,-215.81 187.02,-212.73"/>
<polygon fill="#000000" fill-opacity="0.200000" stroke="#000000" stroke-width="2" stroke-opacity="0.200000" points="188.17,-214.52 192.83,-210.2 186.49,-210.67 188.17,-214.52"/>
</g>
<!-- src/infrastructure/di&#45;&gt;src/infrastructure/video -->
<g id="edge10" class="edge">
<title>src/infrastructure/di&#45;&gt;src/infrastructure/video</title>
<path fill="none" stroke="#000000" stroke-width="2" stroke-opacity="0.200000" d="M164.43,-240.08C170.56,-242.5 177.44,-244.78 184,-246 211.09,-251.03 218.79,-250.37 246,-246 253.7,-244.76 261.81,-242.55 269.25,-240.11"/>
<polygon fill="#000000" fill-opacity="0.200000" stroke="#000000" stroke-width="2" stroke-opacity="0.200000" points="270.33,-241.97 275.33,-238.04 268.97,-237.99 270.33,-241.97"/>
</g>
<!-- src/infrastructure/di&#45;&gt;src/infrastructure/database -->
<g id="edge7" class="edge">
<title>src/infrastructure/di&#45;&gt;src/infrastructure/database</title>
<path fill="none" stroke="#000000" stroke-width="2" stroke-opacity="0.200000" d="M159.24,-240.07C166.39,-244.15 175.35,-248.59 184,-251 209.91,-258.23 240.38,-260.03 263.22,-260.13"/>
<polygon fill="#000000" fill-opacity="0.200000" stroke="#000000" stroke-width="2" stroke-opacity="0.200000" points="263.45,-262.23 269.45,-260.12 263.44,-258.03 263.45,-262.23"/>
</g>
<!-- src/infrastructure/repository -->
<g id="node11" class="node">
<title>src/infrastructure/repository</title>
<g id="a_node11"><a xlink:href="src/infrastructure/repository" xlink:title="repository">
<polygon fill="#ffffcc" stroke="black" points="246,-240 186,-240 184,-238 184,-222 244,-222 246,-224 246,-240"/>
<polyline fill="none" stroke="black" points="244,-238 184,-238 "/>
<polyline fill="none" stroke="black" points="244,-238 244,-222 "/>
<polyline fill="none" stroke="black" points="244,-238 246,-240 "/>
<text text-anchor="start" x="192" y="-228.8" font-family="Helvetica,sans-Serif" font-size="9.00">repository</text>
</a>
</g>
</g>
<!-- src/infrastructure/di&#45;&gt;src/infrastructure/repository -->
<g id="edge8" class="edge">
<title>src/infrastructure/di&#45;&gt;src/infrastructure/repository</title>
<path fill="none" stroke="#000000" stroke-width="2" stroke-opacity="0.200000" d="M171.09,-231C173.15,-231 175.25,-231 177.36,-231"/>
<polygon fill="#000000" fill-opacity="0.200000" stroke="#000000" stroke-width="2" stroke-opacity="0.200000" points="177.71,-233.1 183.71,-231 177.71,-228.9 177.71,-233.1"/>
</g>
<!-- src/infrastructure/services -->
<g id="node12" class="node">
<title>src/infrastructure/services</title>
<g id="a_node12"><a xlink:href="src/infrastructure/services" xlink:title="services">
<polygon fill="#ffffcc" stroke="black" points="242,-180 190,-180 188,-178 188,-162 240,-162 242,-164 242,-180"/>
<polyline fill="none" stroke="black" points="240,-178 188,-178 "/>
<polyline fill="none" stroke="black" points="240,-178 240,-162 "/>
<polyline fill="none" stroke="black" points="240,-178 242,-180 "/>
<text text-anchor="start" x="196.5" y="-168.8" font-family="Helvetica,sans-Serif" font-size="9.00">services</text>
</a>
</g>
</g>
<!-- src/infrastructure/di&#45;&gt;src/infrastructure/services -->
<g id="edge9" class="edge">
<title>src/infrastructure/di&#45;&gt;src/infrastructure/services</title>
<path fill="none" stroke="#000000" stroke-width="2" stroke-opacity="0.200000" d="M151.3,-221.77C158.37,-211.94 170.61,-196.4 184,-186 185.21,-185.06 186.48,-184.16 187.8,-183.29"/>
<polygon fill="#000000" fill-opacity="0.200000" stroke="#000000" stroke-width="2" stroke-opacity="0.200000" points="188.97,-185.04 193.02,-180.15 186.8,-181.44 188.97,-185.04"/>
</g>
<!-- src/infrastructure/repository&#45;&gt;src/domain/constants -->
<g id="edge13" class="edge">
<title>src/infrastructure/repository&#45;&gt;src/domain/constants</title>
<path fill="none" stroke="#000000" stroke-width="2" stroke-opacity="0.200000" d="M238.95,-221.91C241.55,-220.22 243.99,-218.26 246,-216 259.84,-200.47 245.09,-184.13 262,-172 290.14,-151.82 330.89,-154.16 359.96,-159.62"/>
<polygon fill="#000000" fill-opacity="0.200000" stroke="#000000" stroke-width="2" stroke-opacity="0.200000" points="359.68,-161.71 365.98,-160.83 360.5,-157.59 359.68,-161.71"/>
</g>
<!-- src/infrastructure/repository&#45;&gt;src/domain/entities -->
<g id="edge14" class="edge">
<title>src/infrastructure/repository&#45;&gt;src/domain/entities</title>
<path fill="none" stroke="#000000" stroke-opacity="0.200000" d="M238.41,-221.87C241.16,-220.18 243.78,-218.22 246,-216 257.24,-204.76 248.47,-192.36 262,-184 289.98,-166.71 303.36,-179.95 336,-184 345.02,-185.12 354.63,-187.16 363.45,-189.38"/>
<polygon fill="none" stroke="#000000" stroke-opacity="0.200000" points="363.07,-191.45 369.4,-190.94 364.13,-187.39 363.07,-191.45"/>
</g>
<!-- src/infrastructure/repository&#45;&gt;src/domain/repositories -->
<g id="edge15" class="edge">
<title>src/infrastructure/repository&#45;&gt;src/domain/repositories</title>
<path fill="none" stroke="#000000" stroke-opacity="0.200000" d="M239.46,-221.89C241.91,-220.22 244.17,-218.26 246,-216 263.89,-193.87 240.51,-172.66 262,-154 269.03,-147.89 319.28,-143.57 356.06,-141.18"/>
<polygon fill="none" stroke="#000000" stroke-opacity="0.200000" points="356.45,-143.26 362.3,-140.78 356.18,-139.06 356.45,-143.26"/>
</g>
<!-- src/infrastructure/repository&#45;&gt;src/infrastructure/database -->
<g id="edge12" class="edge">
<title>src/infrastructure/repository&#45;&gt;src/infrastructure/database</title>
<path fill="none" stroke="#000000" stroke-opacity="0.200000" d="M242.24,-240.01C249.58,-242.54 257.64,-245.31 265.29,-247.93"/>
<polygon fill="none" stroke="#000000" stroke-opacity="0.200000" points="264.68,-249.94 271.03,-249.91 266.04,-245.97 264.68,-249.94"/>
</g>
<!-- src/infrastructure/services&#45;&gt;src/application/ports -->
<g id="edge17" class="edge">
<title>src/infrastructure/services&#45;&gt;src/application/ports</title>
<path fill="none" stroke="#000000" stroke-opacity="0.200000" d="M221.59,-161.94C229.91,-148.65 246.26,-123.26 262,-103 269.07,-93.89 277.64,-84.2 284.59,-76.64"/>
<polygon fill="none" stroke="#000000" stroke-opacity="0.200000" points="286.13,-78.06 288.67,-72.24 283.06,-75.21 286.13,-78.06"/>
</g>
<!-- src/infrastructure/services&#45;&gt;src/domain/entities -->
<g id="edge18" class="edge">
<title>src/infrastructure/services&#45;&gt;src/domain/entities</title>
<path fill="none" stroke="#000000" stroke-opacity="0.200000" d="M242.01,-167.09C266.83,-164.36 304.92,-162.81 336,-173 344.03,-175.63 343.98,-180.15 351.5,-184 355.35,-185.97 359.52,-187.77 363.71,-189.39"/>
<polygon fill="none" stroke="#000000" stroke-opacity="0.200000" points="363.04,-191.39 369.39,-191.49 364.49,-187.44 363.04,-191.39"/>
</g>
<!-- src/infrastructure/services&#45;&gt;src/domain/repositories -->
<g id="edge19" class="edge">
<title>src/infrastructure/services&#45;&gt;src/domain/repositories</title>
<path fill="none" stroke="#000000" stroke-opacity="0.200000" d="M220.67,-161.58C227.63,-148.71 242.1,-126.19 262,-117 298.04,-100.36 344.67,-115.27 372.2,-127.33"/>
<polygon fill="none" stroke="#000000" stroke-opacity="0.200000" points="371.45,-129.3 377.78,-129.85 373.17,-125.47 371.45,-129.3"/>
</g>
<!-- src/infrastructure/dto -->
<g id="node13" class="node">
<title>src/infrastructure/dto</title>
<g id="a_node13"><a xlink:href="src/infrastructure/dto" xlink:title="dto">
<polygon fill="#ffffcc" stroke="black" points="325.5,-208 273.5,-208 271.5,-206 271.5,-190 323.5,-190 325.5,-192 325.5,-208"/>
<polyline fill="none" stroke="black" points="323.5,-206 271.5,-206 "/>
<polyline fill="none" stroke="black" points="323.5,-206 323.5,-190 "/>
<polyline fill="none" stroke="black" points="323.5,-206 325.5,-208 "/>
<text text-anchor="start" x="290.5" y="-196.8" font-family="Helvetica,sans-Serif" font-size="9.00">dto</text>
</a>
</g>
</g>
<!-- src/infrastructure/services&#45;&gt;src/infrastructure/dto -->
<g id="edge16" class="edge">
<title>src/infrastructure/services&#45;&gt;src/infrastructure/dto</title>
<path fill="none" stroke="#000000" stroke-width="2" stroke-opacity="0.200000" d="M242.24,-180.01C249.65,-182.56 257.81,-185.36 265.52,-188.01"/>
<polygon fill="#000000" fill-opacity="0.200000" stroke="#000000" stroke-width="2" stroke-opacity="0.200000" points="264.96,-190.04 271.31,-190 266.32,-186.07 264.96,-190.04"/>
</g>
<!-- src/infrastructure/dto&#45;&gt;src/domain/entities -->
<g id="edge11" class="edge">
<title>src/infrastructure/dto&#45;&gt;src/domain/entities</title>
<path fill="none" stroke="#000000" stroke-opacity="0.200000" d="M325.73,-199C337.27,-199 350.93,-199 363.09,-199"/>
<polygon fill="none" stroke="#000000" stroke-opacity="0.200000" points="363.3,-201.1 369.3,-199 363.3,-196.9 363.3,-201.1"/>
</g>
<!-- src/main.ts -->
<g id="node14" class="node">
<title>src/main.ts</title>
<g id="a_node14"><a xlink:href="src/main.ts" xlink:title="main.ts">
<path fill="#ddfeff" stroke="black" d="M72,-240C72,-240 30,-240 30,-240 27,-240 24,-237 24,-234 24,-234 24,-228 24,-228 24,-225 27,-222 30,-222 30,-222 72,-222 72,-222 75,-222 78,-225 78,-228 78,-228 78,-234 78,-234 78,-237 75,-240 72,-240"/>
<text text-anchor="start" x="34" y="-228.8" font-family="Helvetica,sans-Serif" font-size="9.00">main.ts</text>
</a>
</g>
</g>
<!-- src/main.ts&#45;&gt;src/infrastructure/di -->
<g id="edge22" class="edge">
<title>src/main.ts&#45;&gt;src/infrastructure/di</title>
<path fill="none" stroke="#000000" stroke-width="2" stroke-opacity="0.200000" d="M78.32,-231C88.41,-231 100.05,-231 110.64,-231"/>
<polygon fill="#000000" fill-opacity="0.200000" stroke="#000000" stroke-width="2" stroke-opacity="0.200000" points="110.74,-233.1 116.74,-231 110.74,-228.9 110.74,-233.1"/>
</g>
<!-- src/presentation/stores -->
<g id="node15" class="node">
<title>src/presentation/stores</title>
<g id="a_node15"><a xlink:href="src/presentation/stores" xlink:title="stores">
<polygon fill="#ffffcc" stroke="black" points="78,-276 26,-276 24,-274 24,-258 76,-258 78,-260 78,-276"/>
<polyline fill="none" stroke="black" points="76,-274 24,-274 "/>
<polyline fill="none" stroke="black" points="76,-274 76,-258 "/>
<polyline fill="none" stroke="black" points="76,-274 78,-276 "/>
<text text-anchor="start" x="37" y="-264.8" font-family="Helvetica,sans-Serif" font-size="9.00">stores</text>
</a>
</g>
</g>
<!-- src/presentation/stores&#45;&gt;src/domain/entities -->
<g id="edge23" class="edge">
<title>src/presentation/stores&#45;&gt;src/domain/entities</title>
<path fill="none" stroke="#000000" stroke-opacity="0.200000" d="M64.85,-276.1C75.95,-283.37 92.72,-292.98 109,-297 206.94,-321.2 258.39,-361.46 336,-297 364.87,-273.02 326.94,-242.37 351.5,-214 354.69,-210.31 358.83,-207.53 363.29,-205.43"/>
<polygon fill="none" stroke="#000000" stroke-opacity="0.200000" points="364.28,-207.29 369.07,-203.12 362.72,-203.4 364.28,-207.29"/>
</g>
<!-- src/presentation/stores&#45;&gt;src/infrastructure/di -->
<g id="edge24" class="edge">
<title>src/presentation/stores&#45;&gt;src/infrastructure/di</title>
<path fill="none" stroke="#000000" stroke-width="2" stroke-opacity="0.200000" d="M78.2,-259.23C83.15,-257.61 88.26,-255.83 93,-254 101.69,-250.64 111.01,-246.5 119.23,-242.67"/>
<polygon fill="#000000" fill-opacity="0.200000" stroke="#000000" stroke-width="2" stroke-opacity="0.200000" points="120.19,-244.54 124.71,-240.07 118.39,-240.74 120.19,-244.54"/>
</g>
</g>
</svg>
