<?xml version="1.0" encoding="UTF-8" standalone="no"?>
<!DOCTYPE svg PUBLIC "-//W3C//DTD SVG 1.1//EN"
 "http://www.w3.org/Graphics/SVG/1.1/DTD/svg11.dtd">
<!-- Generated by graphviz version 9.0.0 (20230911.1827)
 -->
<!-- Title: dependency&#45;cruiser output Pages: 1 -->
<svg width="458pt" height="364pt"
 viewBox="0.00 0.00 457.50 364.00" xmlns="http://www.w3.org/2000/svg" xmlns:xlink="http://www.w3.org/1999/xlink">
<g id="graph0" class="graph" transform="scale(1 1) rotate(0) translate(4 360)">
<title>dependency&#45;cruiser output</title>
<polygon fill="white" stroke="none" points="-4,4 -4,-360 453.5,-360 453.5,4 -4,4"/>
<g id="clust1" class="cluster">
<title>cluster_src</title>
<path fill="#ffffff" stroke="black" stroke-width="2" d="M20,-8C20,-8 429.5,-8 429.5,-8 435.5,-8 441.5,-14 441.5,-20 441.5,-20 441.5,-336 441.5,-336 441.5,-342 435.5,-348 429.5,-348 429.5,-348 20,-348 20,-348 14,-348 8,-342 8,-336 8,-336 8,-20 8,-20 8,-14 14,-8 20,-8"/>
<text text-anchor="middle" x="224.75" y="-335.45" font-family="Helvetica,sans-Serif" font-weight="bold" font-size="9.00">src</text>
</g>
<g id="clust2" class="cluster">
<title>cluster_src/application</title>
<path fill="#ffffff" stroke="black" stroke-width="2" d="M28,-94C28,-94 105,-94 105,-94 111,-94 117,-100 117,-106 117,-106 117,-168 117,-168 117,-174 111,-180 105,-180 105,-180 28,-180 28,-180 22,-180 16,-174 16,-168 16,-168 16,-106 16,-106 16,-100 22,-94 28,-94"/>
<text text-anchor="middle" x="66.5" y="-167.45" font-family="Helvetica,sans-Serif" font-weight="bold" font-size="9.00">application</text>
</g>
<g id="clust4" class="cluster">
<title>cluster_src/infrastructure</title>
<path fill="#ffffff" stroke="black" stroke-width="2" d="M143.88,-79C143.88,-79 414.38,-79 414.38,-79 420.38,-79 426.38,-85 426.38,-91 426.38,-91 426.38,-153 426.38,-153 426.38,-159 420.38,-165 414.38,-165 414.38,-165 143.88,-165 143.88,-165 137.88,-165 131.88,-159 131.88,-153 131.88,-153 131.88,-91 131.88,-91 131.88,-85 137.88,-79 143.88,-79"/>
<text text-anchor="middle" x="279.12" y="-152.45" font-family="Helvetica,sans-Serif" font-weight="bold" font-size="9.00">infrastructure</text>
</g>
<g id="clust5" class="cluster">
<title>cluster_src/presentation</title>
<path fill="#ffffff" stroke="black" stroke-width="2" d="M137,-16C137,-16 196.75,-16 196.75,-16 202.75,-16 208.75,-22 208.75,-28 208.75,-28 208.75,-59 208.75,-59 208.75,-65 202.75,-71 196.75,-71 196.75,-71 137,-71 137,-71 131,-71 125,-65 125,-59 125,-59 125,-28 125,-28 125,-22 131,-16 137,-16"/>
<text text-anchor="middle" x="166.88" y="-58.45" font-family="Helvetica,sans-Serif" font-weight="bold" font-size="9.00">presentation</text>
</g>
<g id="clust3" class="cluster">
<title>cluster_src/domain</title>
<path fill="#ffffff" stroke="black" stroke-width="2" d="M360.25,-173C360.25,-173 421.5,-173 421.5,-173 427.5,-173 433.5,-179 433.5,-185 433.5,-185 433.5,-309 433.5,-309 433.5,-315 427.5,-321 421.5,-321 421.5,-321 360.25,-321 360.25,-321 354.25,-321 348.25,-315 348.25,-309 348.25,-309 348.25,-185 348.25,-185 348.25,-179 354.25,-173 360.25,-173"/>
<text text-anchor="middle" x="390.88" y="-308.45" font-family="Helvetica,sans-Serif" font-weight="bold" font-size="9.00">domain</text>
</g>
<!-- src/application/dependencies.ts -->
<g id="node1" class="node">
<title>src/application/dependencies.ts</title>
<g id="a_node1"><a xlink:href="src/application/dependencies.ts" xlink:title="dependencies.ts">
<path fill="#ddfeff" stroke="black" d="M102.58,-152.62C102.58,-152.62 30.42,-152.62 30.42,-152.62 27.21,-152.62 24,-149.42 24,-146.21 24,-146.21 24,-139.79 24,-139.79 24,-136.58 27.21,-133.38 30.42,-133.38 30.42,-133.38 102.58,-133.38 102.58,-133.38 105.79,-133.38 109,-136.58 109,-139.79 109,-139.79 109,-146.21 109,-146.21 109,-149.42 105.79,-152.62 102.58,-152.62"/>
<text text-anchor="start" x="32" y="-140.07" font-family="Helvetica,sans-Serif" font-size="9.00">dependencies.ts</text>
</a>
</g>
</g>
<!-- src/infrastructure/adapters -->
<g id="node2" class="node">
<title>src/infrastructure/adapters</title>
<g id="a_node2"><a xlink:href="src/infrastructure/adapters" xlink:title="adapters">
<polygon fill="#ffffcc" stroke="black" points="193.88,-137.62 142.01,-137.62 139.88,-135.49 139.88,-118.38 191.74,-118.38 193.88,-120.51 193.88,-137.62"/>
<polyline fill="none" stroke="black" points="191.74,-135.49 139.88,-135.49"/>
<polyline fill="none" stroke="black" points="191.74,-135.49 191.74,-118.38"/>
<polyline fill="none" stroke="black" points="191.74,-135.49 193.88,-137.62"/>
<text text-anchor="start" x="148.5" y="-125.08" font-family="Helvetica,sans-Serif" font-size="9.00">adapters</text>
</a>
</g>
</g>
<!-- src/application/dependencies.ts&#45;&gt;src/infrastructure/adapters -->
<g id="edge1" class="edge">
<title>src/application/dependencies.ts&#45;&gt;src/infrastructure/adapters</title>
<path fill="none" stroke="#000000" stroke-width="2" stroke-opacity="0.200000" d="M109.22,-136.64C116.44,-135.54 123.87,-134.4 130.89,-133.33"/>
<polygon fill="#000000" fill-opacity="0.200000" stroke="#000000" stroke-width="2" stroke-opacity="0.200000" points="130.89,-135.46 136.51,-132.48 130.26,-131.31 130.89,-135.46"/>
</g>
<!-- src/application/ports -->
<g id="node3" class="node">
<title>src/application/ports</title>
<g id="a_node3"><a xlink:href="src/application/ports" xlink:title="ports">
<polygon fill="#ffffcc" stroke="black" points="93.5,-121.62 41.64,-121.62 39.5,-119.49 39.5,-102.38 91.36,-102.38 93.5,-104.51 93.5,-121.62"/>
<polyline fill="none" stroke="black" points="91.36,-119.49 39.5,-119.49"/>
<polyline fill="none" stroke="black" points="91.36,-119.49 91.36,-102.38"/>
<polyline fill="none" stroke="black" points="91.36,-119.49 93.5,-121.62"/>
<text text-anchor="start" x="56" y="-109.08" font-family="Helvetica,sans-Serif" font-size="9.00">ports</text>
</a>
</g>
</g>
<!-- src/infrastructure/adapters&#45;&gt;src/application/ports -->
<g id="edge2" class="edge">
<title>src/infrastructure/adapters&#45;&gt;src/application/ports</title>
<path fill="none" stroke="#000000" stroke-opacity="0.200000" d="M139.44,-123.7C127.63,-121.78 113.58,-119.49 101.04,-117.46"/>
<polygon fill="none" stroke="#000000" stroke-opacity="0.200000" points="101.62,-115.42 95.36,-116.53 100.94,-119.57 101.62,-115.42"/>
</g>
<!-- src/domain/entities -->
<g id="node5" class="node">
<title>src/domain/entities</title>
<g id="a_node5"><a xlink:href="src/domain/entities" xlink:title="entities">
<polygon fill="#ffffcc" stroke="black" points="417.88,-262.62 366.01,-262.62 363.88,-260.49 363.88,-243.38 415.74,-243.38 417.88,-245.51 417.88,-262.62"/>
<polyline fill="none" stroke="black" points="415.74,-260.49 363.88,-260.49"/>
<polyline fill="none" stroke="black" points="415.74,-260.49 415.74,-243.38"/>
<polyline fill="none" stroke="black" points="415.74,-260.49 417.88,-262.62"/>
<text text-anchor="start" x="375.88" y="-250.07" font-family="Helvetica,sans-Serif" font-size="9.00">entities</text>
</a>
</g>
</g>
<!-- src/infrastructure/adapters&#45;&gt;src/domain/entities -->
<g id="edge3" class="edge">
<title>src/infrastructure/adapters&#45;&gt;src/domain/entities</title>
<path fill="none" stroke="#000000" stroke-opacity="0.200000" d="M178.23,-137.88C197.55,-155.86 241.02,-194.16 283.75,-217 306.87,-229.36 335.06,-238.69 356.57,-244.74"/>
<polygon fill="none" stroke="#000000" stroke-opacity="0.200000" points="355.79,-246.71 362.14,-246.27 356.91,-242.66 355.79,-246.71"/>
</g>
<!-- src/infrastructure/services -->
<g id="node8" class="node">
<title>src/infrastructure/services</title>
<g id="a_node8"><a xlink:href="src/infrastructure/services" xlink:title="services">
<polygon fill="#ffffcc" stroke="black" points="270.75,-106.62 218.89,-106.62 216.75,-104.49 216.75,-87.38 268.61,-87.38 270.75,-89.51 270.75,-106.62"/>
<polyline fill="none" stroke="black" points="268.61,-104.49 216.75,-104.49"/>
<polyline fill="none" stroke="black" points="268.61,-104.49 268.61,-87.38"/>
<polyline fill="none" stroke="black" points="268.61,-104.49 270.75,-106.62"/>
<text text-anchor="start" x="226.5" y="-94.08" font-family="Helvetica,sans-Serif" font-size="9.00">services</text>
</a>
</g>
</g>
<!-- src/infrastructure/adapters&#45;&gt;src/infrastructure/services -->
<g id="edge4" class="edge">
<title>src/infrastructure/adapters&#45;&gt;src/infrastructure/services</title>
<path fill="none" stroke="#000000" stroke-width="2" stroke-opacity="0.200000" d="M191.98,-118.02C197.8,-115.61 204.11,-113 210.25,-110.46"/>
<polygon fill="#000000" fill-opacity="0.200000" stroke="#000000" stroke-width="2" stroke-opacity="0.200000" points="210.9,-112.46 215.64,-108.22 209.29,-108.58 210.9,-112.46"/>
</g>
<!-- src/infrastructure/video -->
<g id="node9" class="node">
<title>src/infrastructure/video</title>
<g id="a_node9"><a xlink:href="src/infrastructure/video" xlink:title="video">
<polygon fill="#ffffcc" stroke="black" points="270.75,-137.62 218.89,-137.62 216.75,-135.49 216.75,-118.38 268.61,-118.38 270.75,-120.51 270.75,-137.62"/>
<polyline fill="none" stroke="black" points="268.61,-135.49 216.75,-135.49"/>
<polyline fill="none" stroke="black" points="268.61,-135.49 268.61,-118.38"/>
<polyline fill="none" stroke="black" points="268.61,-135.49 270.75,-137.62"/>
<text text-anchor="start" x="232.88" y="-125.08" font-family="Helvetica,sans-Serif" font-size="9.00">video</text>
</a>
</g>
</g>
<!-- src/infrastructure/adapters&#45;&gt;src/infrastructure/video -->
<g id="edge5" class="edge">
<title>src/infrastructure/adapters&#45;&gt;src/infrastructure/video</title>
<path fill="none" stroke="#000000" stroke-width="2" stroke-opacity="0.200000" d="M194.06,-128C198.48,-128 203.13,-128 207.74,-128"/>
<polygon fill="#000000" fill-opacity="0.200000" stroke="#000000" stroke-width="2" stroke-opacity="0.200000" points="207.42,-130.1 213.42,-128 207.42,-125.9 207.42,-130.1"/>
</g>
<!-- src/domain/constants -->
<g id="node4" class="node">
<title>src/domain/constants</title>
<g id="a_node4"><a xlink:href="src/domain/constants" xlink:title="constants">
<polygon fill="#ffffcc" stroke="black" points="419.12,-200.62 364.76,-200.62 362.62,-198.49 362.62,-181.38 416.99,-181.38 419.12,-183.51 419.12,-200.62"/>
<polyline fill="none" stroke="black" points="416.99,-198.49 362.62,-198.49"/>
<polyline fill="none" stroke="black" points="416.99,-198.49 416.99,-181.38"/>
<polyline fill="none" stroke="black" points="416.99,-198.49 419.12,-200.62"/>
<text text-anchor="start" x="370.62" y="-188.07" font-family="Helvetica,sans-Serif" font-size="9.00">constants</text>
</a>
</g>
</g>
<!-- src/domain/repositories -->
<g id="node6" class="node">
<title>src/domain/repositories</title>
<g id="a_node6"><a xlink:href="src/domain/repositories" xlink:title="repositories">
<polygon fill="#ffffcc" stroke="black" points="423.62,-231.62 360.26,-231.62 358.12,-229.49 358.12,-212.38 421.49,-212.38 423.62,-214.51 423.62,-231.62"/>
<polyline fill="none" stroke="black" points="421.49,-229.49 358.12,-229.49"/>
<polyline fill="none" stroke="black" points="421.49,-229.49 421.49,-212.38"/>
<polyline fill="none" stroke="black" points="421.49,-229.49 423.62,-231.62"/>
<text text-anchor="start" x="366.12" y="-219.07" font-family="Helvetica,sans-Serif" font-size="9.00">repositories</text>
</a>
</g>
</g>
<!-- src/domain/valueObjects -->
<g id="node7" class="node">
<title>src/domain/valueObjects</title>
<g id="a_node7"><a xlink:href="src/domain/valueObjects" xlink:title="valueObjects">
<polygon fill="#ffffcc" stroke="black" points="425.5,-293.62 358.39,-293.62 356.25,-291.49 356.25,-274.38 423.36,-274.38 425.5,-276.51 425.5,-293.62"/>
<polyline fill="none" stroke="black" points="423.36,-291.49 356.25,-291.49"/>
<polyline fill="none" stroke="black" points="423.36,-291.49 423.36,-274.38"/>
<polyline fill="none" stroke="black" points="423.36,-291.49 425.5,-293.62"/>
<text text-anchor="start" x="364.25" y="-281.07" font-family="Helvetica,sans-Serif" font-size="9.00">valueObjects</text>
</a>
</g>
</g>
<!-- src/infrastructure/services&#45;&gt;src/domain/entities -->
<g id="edge10" class="edge">
<title>src/infrastructure/services&#45;&gt;src/domain/entities</title>
<path fill="none" stroke="#000000" stroke-opacity="0.200000" d="M265.9,-107.03C267.72,-108.51 269.38,-110.16 270.75,-112 285.96,-132.53 268.86,-147.24 283.75,-168 300.96,-192 323.08,-178.97 340.25,-203 349.53,-215.98 337.67,-226.05 348.25,-238 350.73,-240.8 353.78,-243.08 357.09,-244.94"/>
<polygon fill="none" stroke="#000000" stroke-opacity="0.200000" points="355.98,-246.74 362.31,-247.36 357.75,-242.93 355.98,-246.74"/>
</g>
<!-- src/infrastructure/services&#45;&gt;src/domain/repositories -->
<g id="edge11" class="edge">
<title>src/infrastructure/services&#45;&gt;src/domain/repositories</title>
<path fill="none" stroke="#000000" stroke-opacity="0.200000" d="M265.35,-107.07C267.33,-108.55 269.18,-110.19 270.75,-112 280.83,-123.57 274.28,-131.91 283.75,-144 302.88,-168.43 321.57,-160.22 340.25,-185 346.51,-193.31 340.88,-199.65 348.25,-207 349.27,-208.02 350.36,-208.97 351.52,-209.85"/>
<polygon fill="none" stroke="#000000" stroke-opacity="0.200000" points="350.21,-211.51 356.4,-212.95 352.46,-207.96 350.21,-211.51"/>
</g>
<!-- src/infrastructure/services&#45;&gt;src/domain/valueObjects -->
<g id="edge12" class="edge">
<title>src/infrastructure/services&#45;&gt;src/domain/valueObjects</title>
<path fill="none" stroke="#000000" stroke-width="2" stroke-opacity="0.200000" d="M266.02,-106.95C267.81,-108.44 269.44,-110.12 270.75,-112 290.56,-140.5 262.45,-161.6 283.75,-189 300.6,-210.68 323.65,-192.13 340.25,-214 355.19,-233.67 332.63,-249.87 348.25,-269 348.52,-269.33 348.79,-269.65 349.07,-269.96"/>
<polygon fill="#000000" fill-opacity="0.200000" stroke="#000000" stroke-width="2" stroke-opacity="0.200000" points="347.6,-271.47 353.57,-273.65 350.26,-268.22 347.6,-271.47"/>
</g>
<!-- src/infrastructure/repository -->
<g id="node11" class="node">
<title>src/infrastructure/repository</title>
<g id="a_node11"><a xlink:href="src/infrastructure/repository" xlink:title="repository">
<polygon fill="#ffffcc" stroke="black" points="340.25,-137.62 285.89,-137.62 283.75,-135.49 283.75,-118.38 338.11,-118.38 340.25,-120.51 340.25,-137.62"/>
<polyline fill="none" stroke="black" points="338.11,-135.49 283.75,-135.49"/>
<polyline fill="none" stroke="black" points="338.11,-135.49 338.11,-118.38"/>
<polyline fill="none" stroke="black" points="338.11,-135.49 340.25,-137.62"/>
<text text-anchor="start" x="291.75" y="-125.08" font-family="Helvetica,sans-Serif" font-size="9.00">repository</text>
</a>
</g>
</g>
<!-- src/infrastructure/services&#45;&gt;src/infrastructure/repository -->
<g id="edge13" class="edge">
<title>src/infrastructure/services&#45;&gt;src/infrastructure/repository</title>
<path fill="none" stroke="#000000" stroke-width="2" stroke-opacity="0.200000" d="M266.08,-106.98C271.04,-109.3 276.41,-111.82 281.66,-114.27"/>
<polygon fill="#000000" fill-opacity="0.200000" stroke="#000000" stroke-width="2" stroke-opacity="0.200000" points="280.65,-116.12 286.97,-116.76 282.43,-112.31 280.65,-116.12"/>
</g>
<!-- src/infrastructure/video&#45;&gt;src/domain/entities -->
<g id="edge14" class="edge">
<title>src/infrastructure/video&#45;&gt;src/domain/entities</title>
<path fill="none" stroke="#000000" stroke-opacity="0.200000" d="M249.16,-138.12C255.44,-151.7 267.94,-176.07 283.75,-193 307.6,-218.55 317.21,-221.94 348.25,-238 350.94,-239.39 353.78,-240.71 356.67,-241.94"/>
<polygon fill="none" stroke="#000000" stroke-opacity="0.200000" points="355.69,-243.81 362.04,-244.1 357.26,-239.91 355.69,-243.81"/>
</g>
<!-- src/infrastructure/video&#45;&gt;src/domain/valueObjects -->
<g id="edge15" class="edge">
<title>src/infrastructure/video&#45;&gt;src/domain/valueObjects</title>
<path fill="none" stroke="#000000" stroke-width="2" stroke-opacity="0.200000" d="M247.39,-137.89C252.36,-155.23 264.39,-191.67 283.75,-217 306.11,-246.25 316.15,-250.95 348.25,-269 348.95,-269.4 349.67,-269.78 350.39,-270.16"/>
<polygon fill="#000000" fill-opacity="0.200000" stroke="#000000" stroke-width="2" stroke-opacity="0.200000" points="349.4,-272.02 355.72,-272.67 351.19,-268.22 349.4,-272.02"/>
</g>
<!-- src/infrastructure/database -->
<g id="node10" class="node">
<title>src/infrastructure/database</title>
<g id="a_node10"><a xlink:href="src/infrastructure/database" xlink:title="database">
<polygon fill="#ffffcc" stroke="black" points="418.38,-137.62 365.51,-137.62 363.38,-135.49 363.38,-118.38 416.24,-118.38 418.38,-120.51 418.38,-137.62"/>
<polyline fill="none" stroke="black" points="416.24,-135.49 363.38,-135.49"/>
<polyline fill="none" stroke="black" points="416.24,-135.49 416.24,-118.38"/>
<polyline fill="none" stroke="black" points="416.24,-135.49 418.38,-137.62"/>
<text text-anchor="start" x="371.38" y="-125.08" font-family="Helvetica,sans-Serif" font-size="9.00">database</text>
</a>
</g>
</g>
<!-- src/infrastructure/repository&#45;&gt;src/domain/constants -->
<g id="edge7" class="edge">
<title>src/infrastructure/repository&#45;&gt;src/domain/constants</title>
<path fill="none" stroke="#000000" stroke-width="2" stroke-opacity="0.200000" d="M320.29,-138.08C326.91,-146.74 337.28,-159.19 348.25,-168 352.11,-171.1 356.45,-174.01 360.83,-176.65"/>
<polygon fill="#000000" fill-opacity="0.200000" stroke="#000000" stroke-width="2" stroke-opacity="0.200000" points="359.77,-178.47 366.03,-179.6 361.85,-174.81 359.77,-178.47"/>
</g>
<!-- src/infrastructure/repository&#45;&gt;src/domain/entities -->
<g id="edge8" class="edge">
<title>src/infrastructure/repository&#45;&gt;src/domain/entities</title>
<path fill="none" stroke="#000000" stroke-opacity="0.200000" d="M318.75,-137.73C325.03,-148.79 334.91,-167.59 340.25,-185 347.24,-207.77 333.13,-219.59 348.25,-238 350.69,-240.97 353.76,-243.35 357.13,-245.26"/>
<polygon fill="none" stroke="#000000" stroke-opacity="0.200000" points="355.74,-246.93 362.06,-247.57 357.52,-243.12 355.74,-246.93"/>
</g>
<!-- src/infrastructure/repository&#45;&gt;src/domain/repositories -->
<g id="edge9" class="edge">
<title>src/infrastructure/repository&#45;&gt;src/domain/repositories</title>
<path fill="none" stroke="#000000" stroke-opacity="0.200000" d="M322.8,-137.85C328.77,-144.43 336.04,-153.58 340.25,-163 348.37,-181.14 335.41,-191.83 348.25,-207 349.34,-208.29 350.55,-209.46 351.84,-210.54"/>
<polygon fill="none" stroke="#000000" stroke-opacity="0.200000" points="350.61,-212.24 356.77,-213.8 352.93,-208.73 350.61,-212.24"/>
</g>
<!-- src/infrastructure/repository&#45;&gt;src/infrastructure/database -->
<g id="edge6" class="edge">
<title>src/infrastructure/repository&#45;&gt;src/infrastructure/database</title>
<path fill="none" stroke="#000000" stroke-width="2" stroke-opacity="0.200000" d="M340.32,-128C344.79,-128 349.48,-128 354.12,-128"/>
<polygon fill="#000000" fill-opacity="0.200000" stroke="#000000" stroke-width="2" stroke-opacity="0.200000" points="353.87,-130.1 359.87,-128 353.87,-125.9 353.87,-130.1"/>
</g>
<!-- src/presentation/components -->
<g id="node12" class="node">
<title>src/presentation/components</title>
<g id="a_node12"><a xlink:href="src/presentation/components" xlink:title="components">
<polygon fill="#ffffcc" stroke="black" points="200.75,-43.62 135.14,-43.62 133,-41.49 133,-24.38 198.61,-24.38 200.75,-26.51 200.75,-43.62"/>
<polyline fill="none" stroke="black" points="198.61,-41.49 133,-41.49"/>
<polyline fill="none" stroke="black" points="198.61,-41.49 198.61,-24.38"/>
<polyline fill="none" stroke="black" points="198.61,-41.49 200.75,-43.62"/>
<text text-anchor="start" x="141" y="-31.07" font-family="Helvetica,sans-Serif" font-size="9.00">components</text>
</a>
</g>
</g>
<!-- src/presentation/components&#45;&gt;src/infrastructure/services -->
<g id="edge16" class="edge">
<title>src/presentation/components&#45;&gt;src/infrastructure/services</title>
<path fill="none" stroke="#000000" stroke-width="2" stroke-opacity="0.200000" d="M179.9,-44.12C191.87,-54.19 210.4,-69.78 224.24,-81.43"/>
<polygon fill="#000000" fill-opacity="0.200000" stroke="#000000" stroke-width="2" stroke-opacity="0.200000" points="222.74,-82.91 228.68,-85.16 225.44,-79.69 222.74,-82.91"/>
</g>
</g>
</svg>
