<?xml version="1.0" encoding="UTF-8" standalone="no"?>
<!DOCTYPE svg PUBLIC "-//W3C//DTD SVG 1.1//EN"
 "http://www.w3.org/Graphics/SVG/1.1/DTD/svg11.dtd">
<!-- Generated by graphviz version 9.0.0 (20230911.1827)
 -->
<!-- Title: dependency&#45;cruiser output Pages: 1 -->
<svg width="362pt" height="266pt"
 viewBox="0.00 0.00 361.75 266.00" xmlns="http://www.w3.org/2000/svg" xmlns:xlink="http://www.w3.org/1999/xlink">
<g id="graph0" class="graph" transform="scale(1 1) rotate(0) translate(4 262)">
<title>dependency&#45;cruiser output</title>
<polygon fill="white" stroke="none" points="-4,4 -4,-262 357.75,-262 357.75,4 -4,4"/>
<g id="clust1" class="cluster">
<title>cluster_src</title>
<path fill="#ffffff" stroke="black" stroke-width="2" d="M20,-8C20,-8 333.75,-8 333.75,-8 339.75,-8 345.75,-14 345.75,-20 345.75,-20 345.75,-238 345.75,-238 345.75,-244 339.75,-250 333.75,-250 333.75,-250 20,-250 20,-250 14,-250 8,-244 8,-238 8,-238 8,-20 8,-20 8,-14 14,-8 20,-8"/>
<text text-anchor="middle" x="176.88" y="-237.45" font-family="Helvetica,sans-Serif" font-weight="bold" font-size="9.00">src</text>
</g>
<g id="clust2" class="cluster">
<title>cluster_src/application</title>
<path fill="#ffffff" stroke="black" stroke-width="2" d="M28,-120C28,-120 84,-120 84,-120 90,-120 96,-126 96,-132 96,-132 96,-194 96,-194 96,-200 90,-206 84,-206 84,-206 28,-206 28,-206 22,-206 16,-200 16,-194 16,-194 16,-132 16,-132 16,-126 22,-120 28,-120"/>
<text text-anchor="middle" x="56" y="-193.45" font-family="Helvetica,sans-Serif" font-weight="bold" font-size="9.00">application</text>
</g>
<g id="clust4" class="cluster">
<title>cluster_src/infrastructure</title>
<path fill="#ffffff" stroke="black" stroke-width="2" d="M116,-105C116,-105 232.5,-105 232.5,-105 238.5,-105 244.5,-111 244.5,-117 244.5,-117 244.5,-211 244.5,-211 244.5,-217 238.5,-223 232.5,-223 232.5,-223 116,-223 116,-223 110,-223 104,-217 104,-211 104,-211 104,-117 104,-117 104,-111 110,-105 116,-105"/>
<text text-anchor="middle" x="174.25" y="-210.45" font-family="Helvetica,sans-Serif" font-weight="bold" font-size="9.00">infrastructure</text>
</g>
<g id="clust3" class="cluster">
<title>cluster_src/domain</title>
<path fill="#ffffff" stroke="black" stroke-width="2" d="M264.5,-32C264.5,-32 325.75,-32 325.75,-32 331.75,-32 337.75,-38 337.75,-44 337.75,-44 337.75,-168 337.75,-168 337.75,-174 331.75,-180 325.75,-180 325.75,-180 264.5,-180 264.5,-180 258.5,-180 252.5,-174 252.5,-168 252.5,-168 252.5,-44 252.5,-44 252.5,-38 258.5,-32 264.5,-32"/>
<text text-anchor="middle" x="295.12" y="-167.45" font-family="Helvetica,sans-Serif" font-weight="bold" font-size="9.00">domain</text>
</g>
<!-- src/application/container.ts -->
<g id="node1" class="node">
<title>src/application/container.ts</title>
<g id="a_node1"><a xlink:href="src/application/container.ts" xlink:title="container.ts">
<path fill="#ddfeff" stroke="black" d="M81.58,-178.62C81.58,-178.62 30.42,-178.62 30.42,-178.62 27.21,-178.62 24,-175.42 24,-172.21 24,-172.21 24,-165.79 24,-165.79 24,-162.58 27.21,-159.38 30.42,-159.38 30.42,-159.38 81.58,-159.38 81.58,-159.38 84.79,-159.38 88,-162.58 88,-165.79 88,-165.79 88,-172.21 88,-172.21 88,-175.42 84.79,-178.62 81.58,-178.62"/>
<text text-anchor="start" x="32" y="-166.07" font-family="Helvetica,sans-Serif" font-size="9.00">container.ts</text>
</a>
</g>
</g>
<!-- src/infrastructure/adapters -->
<g id="node2" class="node">
<title>src/infrastructure/adapters</title>
<g id="a_node2"><a xlink:href="src/infrastructure/adapters" xlink:title="adapters">
<polygon fill="#ffffcc" stroke="black" points="167.25,-132.62 115.39,-132.62 113.25,-130.49 113.25,-113.38 165.11,-113.38 167.25,-115.51 167.25,-132.62"/>
<polyline fill="none" stroke="black" points="165.11,-130.49 113.25,-130.49"/>
<polyline fill="none" stroke="black" points="165.11,-130.49 165.11,-113.38"/>
<polyline fill="none" stroke="black" points="165.11,-130.49 167.25,-132.62"/>
<text text-anchor="start" x="121.88" y="-120.08" font-family="Helvetica,sans-Serif" font-size="9.00">adapters</text>
</a>
</g>
</g>
<!-- src/application/container.ts&#45;&gt;src/infrastructure/adapters -->
<g id="edge1" class="edge">
<title>src/application/container.ts&#45;&gt;src/infrastructure/adapters</title>
<path fill="none" stroke="#000000" stroke-width="2" stroke-opacity="0.200000" d="M88.47,-159.37C91.18,-157.83 93.74,-156.05 96,-154 101.89,-148.66 98.21,-143.45 104,-138 104.49,-137.54 105,-137.09 105.52,-136.65"/>
<polygon fill="#000000" fill-opacity="0.200000" stroke="#000000" stroke-width="2" stroke-opacity="0.200000" points="106.6,-138.46 110.42,-133.37 104.26,-134.97 106.6,-138.46"/>
</g>
<!-- src/infrastructure/database -->
<g id="node3" class="node">
<title>src/infrastructure/database</title>
<g id="a_node3"><a xlink:href="src/infrastructure/database" xlink:title="database">
<polygon fill="#ffffcc" stroke="black" points="236.5,-195.62 183.64,-195.62 181.5,-193.49 181.5,-176.38 234.36,-176.38 236.5,-178.51 236.5,-195.62"/>
<polyline fill="none" stroke="black" points="234.36,-193.49 181.5,-193.49"/>
<polyline fill="none" stroke="black" points="234.36,-193.49 234.36,-176.38"/>
<polyline fill="none" stroke="black" points="234.36,-193.49 236.5,-195.62"/>
<text text-anchor="start" x="189.5" y="-183.07" font-family="Helvetica,sans-Serif" font-size="9.00">database</text>
</a>
</g>
</g>
<!-- src/application/container.ts&#45;&gt;src/infrastructure/database -->
<g id="edge2" class="edge">
<title>src/application/container.ts&#45;&gt;src/infrastructure/database</title>
<path fill="none" stroke="#000000" stroke-width="2" stroke-opacity="0.200000" d="M64.77,-178.79C73.22,-188.58 87.71,-203.01 104,-209 130.9,-218.9 140.82,-216.47 168.5,-209 175.03,-207.24 181.59,-204.1 187.44,-200.69"/>
<polygon fill="#000000" fill-opacity="0.200000" stroke="#000000" stroke-width="2" stroke-opacity="0.200000" points="188.38,-202.58 192.34,-197.61 186.14,-199.03 188.38,-202.58"/>
</g>
<!-- src/infrastructure/repository -->
<g id="node4" class="node">
<title>src/infrastructure/repository</title>
<g id="a_node4"><a xlink:href="src/infrastructure/repository" xlink:title="repository">
<polygon fill="#ffffcc" stroke="black" points="168.5,-194.62 114.14,-194.62 112,-192.49 112,-175.38 166.36,-175.38 168.5,-177.51 168.5,-194.62"/>
<polyline fill="none" stroke="black" points="166.36,-192.49 112,-192.49"/>
<polyline fill="none" stroke="black" points="166.36,-192.49 166.36,-175.38"/>
<polyline fill="none" stroke="black" points="166.36,-192.49 168.5,-194.62"/>
<text text-anchor="start" x="120" y="-182.07" font-family="Helvetica,sans-Serif" font-size="9.00">repository</text>
</a>
</g>
</g>
<!-- src/application/container.ts&#45;&gt;src/infrastructure/repository -->
<g id="edge3" class="edge">
<title>src/application/container.ts&#45;&gt;src/infrastructure/repository</title>
<path fill="none" stroke="#000000" stroke-width="2" stroke-opacity="0.200000" d="M88.1,-175.05C92.93,-175.99 97.96,-176.97 102.9,-177.93"/>
<polygon fill="#000000" fill-opacity="0.200000" stroke="#000000" stroke-width="2" stroke-opacity="0.200000" points="102.36,-179.96 108.65,-179.05 103.16,-175.84 102.36,-179.96"/>
</g>
<!-- src/infrastructure/services -->
<g id="node5" class="node">
<title>src/infrastructure/services</title>
<g id="a_node5"><a xlink:href="src/infrastructure/services" xlink:title="services">
<polygon fill="#ffffcc" stroke="black" points="167.25,-163.62 115.39,-163.62 113.25,-161.49 113.25,-144.38 165.11,-144.38 167.25,-146.51 167.25,-163.62"/>
<polyline fill="none" stroke="black" points="165.11,-161.49 113.25,-161.49"/>
<polyline fill="none" stroke="black" points="165.11,-161.49 165.11,-144.38"/>
<polyline fill="none" stroke="black" points="165.11,-161.49 167.25,-163.62"/>
<text text-anchor="start" x="123" y="-151.07" font-family="Helvetica,sans-Serif" font-size="9.00">services</text>
</a>
</g>
</g>
<!-- src/application/container.ts&#45;&gt;src/infrastructure/services -->
<g id="edge4" class="edge">
<title>src/application/container.ts&#45;&gt;src/infrastructure/services</title>
<path fill="none" stroke="#000000" stroke-width="2" stroke-opacity="0.200000" d="M88.1,-163.33C93.34,-162.37 98.82,-161.37 104.16,-160.4"/>
<polygon fill="#000000" fill-opacity="0.200000" stroke="#000000" stroke-width="2" stroke-opacity="0.200000" points="104.44,-162.48 109.97,-159.34 103.69,-158.35 104.44,-162.48"/>
</g>
<!-- src/infrastructure/video -->
<g id="node6" class="node">
<title>src/infrastructure/video</title>
<g id="a_node6"><a xlink:href="src/infrastructure/video" xlink:title="video">
<polygon fill="#ffffcc" stroke="black" points="236,-164.62 184.14,-164.62 182,-162.49 182,-145.38 233.86,-145.38 236,-147.51 236,-164.62"/>
<polyline fill="none" stroke="black" points="233.86,-162.49 182,-162.49"/>
<polyline fill="none" stroke="black" points="233.86,-162.49 233.86,-145.38"/>
<polyline fill="none" stroke="black" points="233.86,-162.49 236,-164.62"/>
<text text-anchor="start" x="198.12" y="-152.07" font-family="Helvetica,sans-Serif" font-size="9.00">video</text>
</a>
</g>
</g>
<!-- src/application/container.ts&#45;&gt;src/infrastructure/video -->
<g id="edge5" class="edge">
<title>src/application/container.ts&#45;&gt;src/infrastructure/video</title>
<path fill="none" stroke="#000000" stroke-width="2" stroke-opacity="0.200000" d="M67.58,-178.98C76.51,-186.68 90.04,-196.7 104,-201 131.4,-209.44 144.63,-216.87 168.5,-201 179.09,-193.95 173.88,-184.53 181.63,-171.93"/>
<polygon fill="#000000" fill-opacity="0.200000" stroke="#000000" stroke-width="2" stroke-opacity="0.200000" points="183.11,-173.45 185.15,-167.43 179.8,-170.86 183.11,-173.45"/>
</g>
<!-- src/infrastructure/adapters&#45;&gt;src/infrastructure/video -->
<g id="edge9" class="edge">
<title>src/infrastructure/adapters&#45;&gt;src/infrastructure/video</title>
<path fill="none" stroke="#000000" stroke-width="2" stroke-opacity="0.200000" d="M162.37,-133.12C167.71,-135.68 173.53,-138.48 179.18,-141.18"/>
<polygon fill="#000000" fill-opacity="0.200000" stroke="#000000" stroke-width="2" stroke-opacity="0.200000" points="178.2,-143.04 184.52,-143.74 180.01,-139.25 178.2,-143.04"/>
</g>
<!-- src/application/ports -->
<g id="node7" class="node">
<title>src/application/ports</title>
<g id="a_node7"><a xlink:href="src/application/ports" xlink:title="ports">
<polygon fill="#ffffcc" stroke="black" points="83,-147.62 31.14,-147.62 29,-145.49 29,-128.38 80.86,-128.38 83,-130.51 83,-147.62"/>
<polyline fill="none" stroke="black" points="80.86,-145.49 29,-145.49"/>
<polyline fill="none" stroke="black" points="80.86,-145.49 80.86,-128.38"/>
<polyline fill="none" stroke="black" points="80.86,-145.49 83,-147.62"/>
<text text-anchor="start" x="45.5" y="-135.07" font-family="Helvetica,sans-Serif" font-size="9.00">ports</text>
</a>
</g>
</g>
<!-- src/infrastructure/adapters&#45;&gt;src/application/ports -->
<g id="edge6" class="edge">
<title>src/infrastructure/adapters&#45;&gt;src/application/ports</title>
<path fill="none" stroke="#000000" stroke-opacity="0.200000" d="M112.82,-127.82C105.78,-129.1 98.08,-130.51 90.7,-131.85"/>
<polygon fill="none" stroke="#000000" stroke-opacity="0.200000" points="90.49,-129.76 84.97,-132.9 91.25,-133.89 90.49,-129.76"/>
</g>
<!-- src/domain/entities -->
<g id="node9" class="node">
<title>src/domain/entities</title>
<g id="a_node9"><a xlink:href="src/domain/entities" xlink:title="entities">
<polygon fill="#ffffcc" stroke="black" points="322.12,-90.62 270.26,-90.62 268.12,-88.49 268.12,-71.38 319.99,-71.38 322.12,-73.51 322.12,-90.62"/>
<polyline fill="none" stroke="black" points="319.99,-88.49 268.12,-88.49"/>
<polyline fill="none" stroke="black" points="319.99,-88.49 319.99,-71.38"/>
<polyline fill="none" stroke="black" points="319.99,-88.49 322.12,-90.62"/>
<text text-anchor="start" x="280.12" y="-78.08" font-family="Helvetica,sans-Serif" font-size="9.00">entities</text>
</a>
</g>
</g>
<!-- src/infrastructure/adapters&#45;&gt;src/domain/entities -->
<g id="edge7" class="edge">
<title>src/infrastructure/adapters&#45;&gt;src/domain/entities</title>
<path fill="none" stroke="#000000" stroke-opacity="0.200000" d="M143.66,-113.36C148.13,-97.81 159.33,-67.64 181.5,-55 205.82,-41.13 219.55,-42.29 244.5,-55 249.89,-57.74 247.67,-62.37 252.5,-66 255.2,-68.03 258.2,-69.8 261.31,-71.35"/>
<polygon fill="none" stroke="#000000" stroke-opacity="0.200000" points="260.09,-73.1 266.43,-73.6 261.79,-69.26 260.09,-73.1"/>
</g>
<!-- src/domain/repositories -->
<g id="node10" class="node">
<title>src/domain/repositories</title>
<g id="a_node10"><a xlink:href="src/domain/repositories" xlink:title="repositories">
<polygon fill="#ffffcc" stroke="black" points="327.88,-59.62 264.51,-59.62 262.38,-57.49 262.38,-40.38 325.74,-40.38 327.88,-42.51 327.88,-59.62"/>
<polyline fill="none" stroke="black" points="325.74,-57.49 262.38,-57.49"/>
<polyline fill="none" stroke="black" points="325.74,-57.49 325.74,-40.38"/>
<polyline fill="none" stroke="black" points="325.74,-57.49 327.88,-59.62"/>
<text text-anchor="start" x="270.38" y="-47.08" font-family="Helvetica,sans-Serif" font-size="9.00">repositories</text>
</a>
</g>
</g>
<!-- src/infrastructure/adapters&#45;&gt;src/domain/repositories -->
<g id="edge8" class="edge">
<title>src/infrastructure/adapters&#45;&gt;src/domain/repositories</title>
<path fill="none" stroke="#000000" stroke-opacity="0.200000" d="M142.88,-112.88C146.36,-95.06 156.35,-58.5 181.5,-43 204.62,-28.75 235.74,-31.99 259.4,-37.95"/>
<polygon fill="none" stroke="#000000" stroke-opacity="0.200000" points="258.69,-39.94 265.03,-39.48 259.79,-35.88 258.69,-39.94"/>
</g>
<!-- src/infrastructure/repository&#45;&gt;src/infrastructure/database -->
<g id="edge11" class="edge">
<title>src/infrastructure/repository&#45;&gt;src/infrastructure/database</title>
<path fill="none" stroke="#000000" stroke-opacity="0.200000" d="M168.79,-185.41C170.48,-185.44 172.19,-185.46 173.91,-185.49"/>
<polygon fill="none" stroke="#000000" stroke-opacity="0.200000" points="173.84,-187.59 179.87,-185.58 173.91,-183.39 173.84,-187.59"/>
</g>
<!-- src/domain/constants -->
<g id="node8" class="node">
<title>src/domain/constants</title>
<g id="a_node8"><a xlink:href="src/domain/constants" xlink:title="constants">
<polygon fill="#ffffcc" stroke="black" points="323.38,-121.62 269.01,-121.62 266.88,-119.49 266.88,-102.38 321.24,-102.38 323.38,-104.51 323.38,-121.62"/>
<polyline fill="none" stroke="black" points="321.24,-119.49 266.88,-119.49"/>
<polyline fill="none" stroke="black" points="321.24,-119.49 321.24,-102.38"/>
<polyline fill="none" stroke="black" points="321.24,-119.49 323.38,-121.62"/>
<text text-anchor="start" x="274.88" y="-109.08" font-family="Helvetica,sans-Serif" font-size="9.00">constants</text>
</a>
</g>
</g>
<!-- src/infrastructure/repository&#45;&gt;src/domain/constants -->
<g id="edge12" class="edge">
<title>src/infrastructure/repository&#45;&gt;src/domain/constants</title>
<path fill="none" stroke="#000000" stroke-width="2" stroke-opacity="0.200000" d="M163.71,-174.9C165.51,-173.45 167.15,-171.82 168.5,-170 185.25,-147.37 159.64,-125.75 181.5,-108 202.74,-90.75 234.38,-93.54 258.72,-99.62"/>
<polygon fill="#000000" fill-opacity="0.200000" stroke="#000000" stroke-width="2" stroke-opacity="0.200000" points="258.06,-101.62 264.4,-101.18 259.17,-97.57 258.06,-101.62"/>
</g>
<!-- src/infrastructure/repository&#45;&gt;src/domain/entities -->
<g id="edge13" class="edge">
<title>src/infrastructure/repository&#45;&gt;src/domain/entities</title>
<path fill="none" stroke="#000000" stroke-opacity="0.200000" d="M163.79,-174.96C165.57,-173.5 167.19,-171.85 168.5,-170 188.82,-141.32 155.82,-115.99 181.5,-92 192.6,-81.63 231.4,-79.77 260.38,-79.93"/>
<polygon fill="none" stroke="#000000" stroke-opacity="0.200000" points="260.35,-82.03 266.37,-80 260.4,-77.83 260.35,-82.03"/>
</g>
<!-- src/infrastructure/repository&#45;&gt;src/domain/repositories -->
<g id="edge14" class="edge">
<title>src/infrastructure/repository&#45;&gt;src/domain/repositories</title>
<path fill="none" stroke="#000000" stroke-opacity="0.200000" d="M163.84,-174.99C165.61,-173.52 167.21,-171.87 168.5,-170 191.95,-136.01 153.85,-108.67 181.5,-78 184.07,-75.15 223.53,-65.76 255.02,-58.64"/>
<polygon fill="none" stroke="#000000" stroke-opacity="0.200000" points="255.15,-60.76 260.54,-57.39 254.22,-56.66 255.15,-60.76"/>
</g>
<!-- src/infrastructure/services&#45;&gt;src/domain/entities -->
<g id="edge16" class="edge">
<title>src/infrastructure/services&#45;&gt;src/domain/entities</title>
<path fill="none" stroke="#000000" stroke-opacity="0.200000" d="M163.41,-144.08C165.32,-142.58 167.07,-140.89 168.5,-139 183.92,-118.63 161.64,-99.07 181.5,-83 203.27,-65.39 235.92,-66.85 260.47,-71.56"/>
<polygon fill="none" stroke="#000000" stroke-opacity="0.200000" points="260.02,-73.61 266.33,-72.8 260.89,-69.5 260.02,-73.61"/>
</g>
<!-- src/infrastructure/services&#45;&gt;src/domain/repositories -->
<g id="edge17" class="edge">
<title>src/infrastructure/services&#45;&gt;src/domain/repositories</title>
<path fill="none" stroke="#000000" stroke-opacity="0.200000" d="M163.77,-143.94C165.56,-142.49 167.18,-140.84 168.5,-139 187.7,-112.22 157.79,-88.89 181.5,-66 200.56,-47.6 230.56,-44.09 254.81,-44.92"/>
<polygon fill="none" stroke="#000000" stroke-opacity="0.200000" points="254.52,-47 260.62,-45.22 254.74,-42.81 254.52,-47"/>
</g>
<!-- src/infrastructure/dto -->
<g id="node12" class="node">
<title>src/infrastructure/dto</title>
<g id="a_node12"><a xlink:href="src/infrastructure/dto" xlink:title="dto">
<polygon fill="#ffffcc" stroke="black" points="236,-133.62 184.14,-133.62 182,-131.49 182,-114.38 233.86,-114.38 236,-116.51 236,-133.62"/>
<polyline fill="none" stroke="black" points="233.86,-131.49 182,-131.49"/>
<polyline fill="none" stroke="black" points="233.86,-131.49 233.86,-114.38"/>
<polyline fill="none" stroke="black" points="233.86,-131.49 236,-133.62"/>
<text text-anchor="start" x="202.62" y="-121.08" font-family="Helvetica,sans-Serif" font-size="9.00">dto</text>
</a>
</g>
</g>
<!-- src/infrastructure/services&#45;&gt;src/infrastructure/dto -->
<g id="edge15" class="edge">
<title>src/infrastructure/services&#45;&gt;src/infrastructure/dto</title>
<path fill="none" stroke="#000000" stroke-width="2" stroke-opacity="0.200000" d="M163.48,-144.01C168.04,-141.96 172.93,-139.76 177.72,-137.61"/>
<polygon fill="#000000" fill-opacity="0.200000" stroke="#000000" stroke-width="2" stroke-opacity="0.200000" points="178.27,-139.66 182.88,-135.29 176.55,-135.83 178.27,-139.66"/>
</g>
<!-- src/infrastructure/video&#45;&gt;src/domain/entities -->
<g id="edge18" class="edge">
<title>src/infrastructure/video&#45;&gt;src/domain/entities</title>
<path fill="none" stroke="#000000" stroke-opacity="0.200000" d="M236.45,-146.88C239.51,-145.03 242.31,-142.76 244.5,-140 256.85,-124.42 239.66,-111.17 252.5,-96 254.92,-93.14 257.93,-90.83 261.21,-88.96"/>
<polygon fill="none" stroke="#000000" stroke-opacity="0.200000" points="261.87,-90.96 266.41,-86.51 260.09,-87.16 261.87,-90.96"/>
</g>
<!-- src/domain/valueObjects -->
<g id="node11" class="node">
<title>src/domain/valueObjects</title>
<g id="a_node11"><a xlink:href="src/domain/valueObjects" xlink:title="valueObjects">
<polygon fill="#ffffcc" stroke="black" points="329.75,-152.62 262.64,-152.62 260.5,-150.49 260.5,-133.38 327.61,-133.38 329.75,-135.51 329.75,-152.62"/>
<polyline fill="none" stroke="black" points="327.61,-150.49 260.5,-150.49"/>
<polyline fill="none" stroke="black" points="327.61,-150.49 327.61,-133.38"/>
<polyline fill="none" stroke="black" points="327.61,-150.49 329.75,-152.62"/>
<text text-anchor="start" x="268.5" y="-140.07" font-family="Helvetica,sans-Serif" font-size="9.00">valueObjects</text>
</a>
</g>
</g>
<!-- src/infrastructure/video&#45;&gt;src/domain/valueObjects -->
<g id="edge19" class="edge">
<title>src/infrastructure/video&#45;&gt;src/domain/valueObjects</title>
<path fill="none" stroke="#000000" stroke-width="2" stroke-opacity="0.200000" d="M236.16,-151.27C241.04,-150.57 246.26,-149.83 251.49,-149.08"/>
<polygon fill="#000000" fill-opacity="0.200000" stroke="#000000" stroke-width="2" stroke-opacity="0.200000" points="251.6,-151.19 257.24,-148.26 251.01,-147.03 251.6,-151.19"/>
</g>
<!-- src/infrastructure/dto&#45;&gt;src/domain/entities -->
<g id="edge10" class="edge">
<title>src/infrastructure/dto&#45;&gt;src/domain/entities</title>
<path fill="none" stroke="#000000" stroke-opacity="0.200000" d="M223.29,-114.07C231.43,-108.28 242.23,-101.14 252.5,-96 255.2,-94.65 258.06,-93.35 260.96,-92.14"/>
<polygon fill="none" stroke="#000000" stroke-opacity="0.200000" points="261.54,-94.16 266.34,-90 259.99,-90.26 261.54,-94.16"/>
</g>
</g>
</svg>
