<?xml version="1.0" encoding="UTF-8" standalone="no"?>
<!DOCTYPE svg PUBLIC "-//W3C//DTD SVG 1.1//EN"
 "http://www.w3.org/Graphics/SVG/1.1/DTD/svg11.dtd">
<!-- Generated by graphviz version 9.0.0 (20230911.1827)
 -->
<!-- Title: dependency&#45;cruiser output Pages: 1 -->
<svg width="937pt" height="677pt"
 viewBox="0.00 0.00 937.13 677.00" xmlns="http://www.w3.org/2000/svg" xmlns:xlink="http://www.w3.org/1999/xlink">
<g id="graph0" class="graph" transform="scale(1 1) rotate(0) translate(4 673)">
<title>dependency&#45;cruiser output</title>
<polygon fill="white" stroke="none" points="-4,4 -4,-673 933.13,-673 933.13,4 -4,4"/>
<g id="clust1" class="cluster">
<title>cluster_src</title>
<path fill="#ffffff" stroke="black" stroke-width="2" d="M24.38,-8C24.38,-8 909.13,-8 909.13,-8 915.13,-8 921.13,-14 921.13,-20 921.13,-20 921.13,-649 921.13,-649 921.13,-655 915.13,-661 909.13,-661 909.13,-661 24.38,-661 24.38,-661 18.38,-661 12.38,-655 12.38,-649 12.38,-649 12.38,-20 12.38,-20 12.38,-14 18.38,-8 24.38,-8"/>
<text text-anchor="middle" x="466.76" y="-648.45" font-family="Helvetica,sans-Serif" font-weight="bold" font-size="9.00">src</text>
</g>
<g id="clust2" class="cluster">
<title>cluster_src/application</title>
<path fill="#ffffff" stroke="black" stroke-width="2" d="M66.13,-368C66.13,-368 367.13,-368 367.13,-368 373.13,-368 379.13,-374 379.13,-380 379.13,-380 379.13,-509 379.13,-509 379.13,-515 373.13,-521 367.13,-521 367.13,-521 66.13,-521 66.13,-521 60.13,-521 54.13,-515 54.13,-509 54.13,-509 54.13,-380 54.13,-380 54.13,-374 60.13,-368 66.13,-368"/>
<text text-anchor="middle" x="216.63" y="-508.45" font-family="Helvetica,sans-Serif" font-weight="bold" font-size="9.00">application</text>
</g>
<g id="clust3" class="cluster">
<title>cluster_src/application/ports</title>
<path fill="#ffffff" stroke="black" stroke-width="2" d="M230.38,-376C230.38,-376 359.13,-376 359.13,-376 365.13,-376 371.13,-382 371.13,-388 371.13,-388 371.13,-450 371.13,-450 371.13,-456 365.13,-462 359.13,-462 359.13,-462 230.38,-462 230.38,-462 224.38,-462 218.38,-456 218.38,-450 218.38,-450 218.38,-388 218.38,-388 218.38,-382 224.38,-376 230.38,-376"/>
<text text-anchor="middle" x="294.76" y="-449.45" font-family="Helvetica,sans-Serif" font-weight="bold" font-size="9.00">ports</text>
</g>
<g id="clust5" class="cluster">
<title>cluster_src/application/stores</title>
<path fill="#ffffff" stroke="black" stroke-width="2" d="M86.13,-376C86.13,-376 152.63,-376 152.63,-376 158.63,-376 164.63,-382 164.63,-388 164.63,-388 164.63,-419 164.63,-419 164.63,-425 158.63,-431 152.63,-431 152.63,-431 86.13,-431 86.13,-431 80.13,-431 74.13,-425 74.13,-419 74.13,-419 74.13,-388 74.13,-388 74.13,-382 80.13,-376 86.13,-376"/>
<text text-anchor="middle" x="119.38" y="-418.45" font-family="Helvetica,sans-Serif" font-weight="bold" font-size="9.00">stores</text>
</g>
<g id="clust4" class="cluster">
<title>cluster_src/application/services</title>
<path fill="#ffffff" stroke="black" stroke-width="2" d="M74.13,-439C74.13,-439 164.63,-439 164.63,-439 170.63,-439 176.63,-445 176.63,-451 176.63,-451 176.63,-482 176.63,-482 176.63,-488 170.63,-494 164.63,-494 164.63,-494 74.13,-494 74.13,-494 68.13,-494 62.13,-488 62.13,-482 62.13,-482 62.13,-451 62.13,-451 62.13,-445 68.13,-439 74.13,-439"/>
<text text-anchor="middle" x="119.38" y="-481.45" font-family="Helvetica,sans-Serif" font-weight="bold" font-size="9.00">services</text>
</g>
<g id="clust6" class="cluster">
<title>cluster_src/domain</title>
<path fill="#ffffff" stroke="black" stroke-width="2" d="M809.38,-355C809.38,-355 872.38,-355 872.38,-355 878.38,-355 884.38,-361 884.38,-367 884.38,-367 884.38,-622 884.38,-622 884.38,-628 878.38,-634 872.38,-634 872.38,-634 809.38,-634 809.38,-634 803.38,-634 797.38,-628 797.38,-622 797.38,-622 797.38,-367 797.38,-367 797.38,-361 803.38,-355 809.38,-355"/>
<text text-anchor="middle" x="840.88" y="-621.45" font-family="Helvetica,sans-Serif" font-weight="bold" font-size="9.00">domain</text>
</g>
<g id="clust7" class="cluster">
<title>cluster_src/domain/constants</title>
<path fill="#ffffff" stroke="black" stroke-width="2" d="M817.38,-363C817.38,-363 863.38,-363 863.38,-363 869.38,-363 875.38,-369 875.38,-375 875.38,-375 875.38,-406 875.38,-406 875.38,-412 869.38,-418 863.38,-418 863.38,-418 817.38,-418 817.38,-418 811.38,-418 805.38,-412 805.38,-406 805.38,-406 805.38,-375 805.38,-375 805.38,-369 811.38,-363 817.38,-363"/>
<text text-anchor="middle" x="840.38" y="-405.45" font-family="Helvetica,sans-Serif" font-weight="bold" font-size="9.00">constants</text>
</g>
<g id="clust8" class="cluster">
<title>cluster_src/domain/entities</title>
<path fill="#ffffff" stroke="black" stroke-width="2" d="M817.38,-552C817.38,-552 863.38,-552 863.38,-552 869.38,-552 875.38,-558 875.38,-564 875.38,-564 875.38,-595 875.38,-595 875.38,-601 869.38,-607 863.38,-607 863.38,-607 817.38,-607 817.38,-607 811.38,-607 805.38,-601 805.38,-595 805.38,-595 805.38,-564 805.38,-564 805.38,-558 811.38,-552 817.38,-552"/>
<text text-anchor="middle" x="840.38" y="-594.45" font-family="Helvetica,sans-Serif" font-weight="bold" font-size="9.00">entities</text>
</g>
<g id="clust9" class="cluster">
<title>cluster_src/domain/repositories</title>
<path fill="#ffffff" stroke="black" stroke-width="2" d="M817.38,-426C817.38,-426 863.38,-426 863.38,-426 869.38,-426 875.38,-432 875.38,-438 875.38,-438 875.38,-469 875.38,-469 875.38,-475 869.38,-481 863.38,-481 863.38,-481 817.38,-481 817.38,-481 811.38,-481 805.38,-475 805.38,-469 805.38,-469 805.38,-438 805.38,-438 805.38,-432 811.38,-426 817.38,-426"/>
<text text-anchor="middle" x="840.38" y="-468.45" font-family="Helvetica,sans-Serif" font-weight="bold" font-size="9.00">repositories</text>
</g>
<g id="clust10" class="cluster">
<title>cluster_src/domain/valueObjects</title>
<path fill="#ffffff" stroke="black" stroke-width="2" d="M817.38,-489C817.38,-489 864.38,-489 864.38,-489 870.38,-489 876.38,-495 876.38,-501 876.38,-501 876.38,-532 876.38,-532 876.38,-538 870.38,-544 864.38,-544 864.38,-544 817.38,-544 817.38,-544 811.38,-544 805.38,-538 805.38,-532 805.38,-532 805.38,-501 805.38,-501 805.38,-495 811.38,-489 817.38,-489"/>
<text text-anchor="middle" x="840.88" y="-531.45" font-family="Helvetica,sans-Serif" font-weight="bold" font-size="9.00">valueObjects</text>
</g>
<g id="clust11" class="cluster">
<title>cluster_src/infrastructure</title>
<path fill="#ffffff" stroke="black" stroke-width="2" d="M32.38,-149C32.38,-149 901.13,-149 901.13,-149 907.13,-149 913.13,-155 913.13,-161 913.13,-161 913.13,-335 913.13,-335 913.13,-341 907.13,-347 901.13,-347 901.13,-347 32.38,-347 32.38,-347 26.38,-347 20.38,-341 20.38,-335 20.38,-335 20.38,-161 20.38,-161 20.38,-155 26.38,-149 32.38,-149"/>
<text text-anchor="middle" x="466.76" y="-334.45" font-family="Helvetica,sans-Serif" font-weight="bold" font-size="9.00">infrastructure</text>
</g>
<g id="clust12" class="cluster">
<title>cluster_src/infrastructure/adapters</title>
<path fill="#ffffff" stroke="black" stroke-width="2" d="M40.38,-234C40.38,-234 198.38,-234 198.38,-234 204.38,-234 210.38,-240 210.38,-246 210.38,-246 210.38,-308 210.38,-308 210.38,-314 204.38,-320 198.38,-320 198.38,-320 40.38,-320 40.38,-320 34.38,-320 28.38,-314 28.38,-308 28.38,-308 28.38,-246 28.38,-246 28.38,-240 34.38,-234 40.38,-234"/>
<text text-anchor="middle" x="119.38" y="-307.45" font-family="Helvetica,sans-Serif" font-weight="bold" font-size="9.00">adapters</text>
</g>
<g id="clust13" class="cluster">
<title>cluster_src/infrastructure/database</title>
<path fill="#ffffff" stroke="black" stroke-width="2" d="M787.63,-172C787.63,-172 893.13,-172 893.13,-172 899.13,-172 905.13,-178 905.13,-184 905.13,-184 905.13,-215 905.13,-215 905.13,-221 899.13,-227 893.13,-227 893.13,-227 787.63,-227 787.63,-227 781.63,-227 775.63,-221 775.63,-215 775.63,-215 775.63,-184 775.63,-184 775.63,-178 781.63,-172 787.63,-172"/>
<text text-anchor="middle" x="840.38" y="-214.45" font-family="Helvetica,sans-Serif" font-weight="bold" font-size="9.00">database</text>
</g>
<g id="clust14" class="cluster">
<title>cluster_src/infrastructure/repository</title>
<path fill="#ffffff" stroke="black" stroke-width="2" d="M555.26,-157C555.26,-157 755.63,-157 755.63,-157 761.63,-157 767.63,-163 767.63,-169 767.63,-169 767.63,-231 767.63,-231 767.63,-237 761.63,-243 755.63,-243 755.63,-243 555.26,-243 555.26,-243 549.26,-243 543.26,-237 543.26,-231 543.26,-231 543.26,-169 543.26,-169 543.26,-163 549.26,-157 555.26,-157"/>
<text text-anchor="middle" x="655.44" y="-230.45" font-family="Helvetica,sans-Serif" font-weight="bold" font-size="9.00">repository</text>
</g>
<g id="clust15" class="cluster">
<title>cluster_src/infrastructure/services</title>
<path fill="#ffffff" stroke="black" stroke-width="2" d="M271.76,-188C271.76,-188 500.38,-188 500.38,-188 506.38,-188 512.38,-194 512.38,-200 512.38,-200 512.38,-231 512.38,-231 512.38,-237 506.38,-243 500.38,-243 500.38,-243 271.76,-243 271.76,-243 265.76,-243 259.76,-237 259.76,-231 259.76,-231 259.76,-200 259.76,-200 259.76,-194 265.76,-188 271.76,-188"/>
<text text-anchor="middle" x="386.07" y="-230.45" font-family="Helvetica,sans-Serif" font-weight="bold" font-size="9.00">services</text>
</g>
<g id="clust16" class="cluster">
<title>cluster_src/infrastructure/video</title>
<path fill="#ffffff" stroke="black" stroke-width="2" d="M271.76,-251C271.76,-251 632.13,-251 632.13,-251 638.13,-251 644.13,-257 644.13,-263 644.13,-263 644.13,-308 644.13,-308 644.13,-314 638.13,-320 632.13,-320 632.13,-320 271.76,-320 271.76,-320 265.76,-320 259.76,-314 259.76,-308 259.76,-308 259.76,-263 259.76,-263 259.76,-257 265.76,-251 271.76,-251"/>
<text text-anchor="middle" x="451.94" y="-307.45" font-family="Helvetica,sans-Serif" font-weight="bold" font-size="9.00">video</text>
</g>
<g id="clust17" class="cluster">
<title>cluster_src/presentation</title>
<path fill="#ffffff" stroke="black" stroke-width="2" d="M54.38,-16C54.38,-16 184.38,-16 184.38,-16 190.38,-16 196.38,-22 196.38,-28 196.38,-28 196.38,-129 196.38,-129 196.38,-135 190.38,-141 184.38,-141 184.38,-141 54.38,-141 54.38,-141 48.38,-141 42.38,-135 42.38,-129 42.38,-129 42.38,-28 42.38,-28 42.38,-22 48.38,-16 54.38,-16"/>
<text text-anchor="middle" x="119.38" y="-128.45" font-family="Helvetica,sans-Serif" font-weight="bold" font-size="9.00">presentation</text>
</g>
<g id="clust18" class="cluster">
<title>cluster_src/presentation/components</title>
<path fill="#ffffff" stroke="black" stroke-width="2" d="M62.38,-24C62.38,-24 176.38,-24 176.38,-24 182.38,-24 188.38,-30 188.38,-36 188.38,-36 188.38,-102 188.38,-102 188.38,-108 182.38,-114 176.38,-114 176.38,-114 62.38,-114 62.38,-114 56.38,-114 50.38,-108 50.38,-102 50.38,-102 50.38,-36 50.38,-36 50.38,-30 56.38,-24 62.38,-24"/>
<text text-anchor="middle" x="119.38" y="-101.45" font-family="Helvetica,sans-Serif" font-weight="bold" font-size="9.00">components</text>
</g>
<g id="clust19" class="cluster">
<title>cluster_src/presentation/components/utils</title>
<path fill="#ffffff" stroke="black" stroke-width="2" d="M70.38,-32C70.38,-32 168.38,-32 168.38,-32 174.38,-32 180.38,-38 180.38,-44 180.38,-44 180.38,-75 180.38,-75 180.38,-81 174.38,-87 168.38,-87 168.38,-87 70.38,-87 70.38,-87 64.38,-87 58.38,-81 58.38,-75 58.38,-75 58.38,-44 58.38,-44 58.38,-38 64.38,-32 70.38,-32"/>
<text text-anchor="middle" x="119.38" y="-74.45" font-family="Helvetica,sans-Serif" font-weight="bold" font-size="9.00">utils</text>
</g>
<!-- src/application/ports/IVideoStorage.ts -->
<g id="node1" class="node">
<title>src/application/ports/IVideoStorage.ts</title>
<g id="a_node1"><a xlink:href="src/application/ports/IVideoStorage.ts" xlink:title="IVideoStorage.ts">
<path fill="#ddfeff" stroke="black" d="M330.09,-434.62C330.09,-434.62 259.42,-434.62 259.42,-434.62 256.22,-434.62 253.01,-431.42 253.01,-428.21 253.01,-428.21 253.01,-421.79 253.01,-421.79 253.01,-418.58 256.22,-415.38 259.42,-415.38 259.42,-415.38 330.09,-415.38 330.09,-415.38 333.3,-415.38 336.51,-418.58 336.51,-421.79 336.51,-421.79 336.51,-428.21 336.51,-428.21 336.51,-431.42 333.3,-434.62 330.09,-434.62"/>
<text text-anchor="start" x="261.01" y="-422.07" font-family="Helvetica,sans-Serif" font-size="9.00">IVideoStorage.ts</text>
</a>
</g>
</g>
<!-- src/domain/entities/index.ts -->
<g id="node2" class="node">
<title>src/domain/entities/index.ts</title>
<g id="a_node2"><a xlink:href="src/domain/entities/index.ts" xlink:title="index.ts">
<path fill="#ddfeff" stroke="black" d="M860.97,-579.62C860.97,-579.62 819.8,-579.62 819.8,-579.62 816.59,-579.62 813.38,-576.42 813.38,-573.21 813.38,-573.21 813.38,-566.79 813.38,-566.79 813.38,-563.58 816.59,-560.38 819.8,-560.38 819.8,-560.38 860.97,-560.38 860.97,-560.38 864.17,-560.38 867.38,-563.58 867.38,-566.79 867.38,-566.79 867.38,-573.21 867.38,-573.21 867.38,-576.42 864.17,-579.62 860.97,-579.62"/>
<text text-anchor="start" x="824.63" y="-567.08" font-family="Helvetica,sans-Serif" font-size="9.00">index.ts</text>
</a>
</g>
</g>
<!-- src/application/ports/IVideoStorage.ts&#45;&gt;src/domain/entities/index.ts -->
<g id="edge1" class="edge">
<title>src/application/ports/IVideoStorage.ts&#45;&gt;src/domain/entities/index.ts</title>
<path fill="none" stroke="#000000" stroke-opacity="0.200000" d="M336.97,-424.08C440.52,-422.69 707.65,-425.13 767.63,-485 787.3,-504.63 758.24,-525.33 775.63,-547 783.06,-556.26 794.54,-561.79 805.72,-565.1"/>
<polygon fill="none" stroke="#000000" stroke-opacity="0.200000" points="805.18,-567.13 811.51,-566.59 806.22,-563.06 805.18,-567.13"/>
</g>
<!-- src/application/ports/IVideoThumbnailGenerator.ts -->
<g id="node3" class="node">
<title>src/application/ports/IVideoThumbnailGenerator.ts</title>
<g id="a_node3"><a xlink:href="src/application/ports/IVideoThumbnailGenerator.ts" xlink:title="IVideoThumbnailGenerator.ts">
<path fill="#ddfeff" stroke="black" d="M356.72,-403.62C356.72,-403.62 232.8,-403.62 232.8,-403.62 229.59,-403.62 226.38,-400.42 226.38,-397.21 226.38,-397.21 226.38,-390.79 226.38,-390.79 226.38,-387.58 229.59,-384.38 232.8,-384.38 232.8,-384.38 356.72,-384.38 356.72,-384.38 359.92,-384.38 363.13,-387.58 363.13,-390.79 363.13,-390.79 363.13,-397.21 363.13,-397.21 363.13,-400.42 359.92,-403.62 356.72,-403.62"/>
<text text-anchor="start" x="234.38" y="-391.07" font-family="Helvetica,sans-Serif" font-size="9.00">IVideoThumbnailGenerator.ts</text>
</a>
</g>
</g>
<!-- src/application/services/FileParserService.ts -->
<g id="node4" class="node">
<title>src/application/services/FileParserService.ts</title>
<g id="a_node4"><a xlink:href="src/application/services/FileParserService.ts" xlink:title="FileParserService.ts">
<path fill="#ddfeff" stroke="black" d="M162.22,-466.62C162.22,-466.62 76.55,-466.62 76.55,-466.62 73.34,-466.62 70.13,-463.42 70.13,-460.21 70.13,-460.21 70.13,-453.79 70.13,-453.79 70.13,-450.58 73.34,-447.38 76.55,-447.38 76.55,-447.38 162.22,-447.38 162.22,-447.38 165.42,-447.38 168.63,-450.58 168.63,-453.79 168.63,-453.79 168.63,-460.21 168.63,-460.21 168.63,-463.42 165.42,-466.62 162.22,-466.62"/>
<text text-anchor="start" x="78.13" y="-454.07" font-family="Helvetica,sans-Serif" font-size="9.00">FileParserService.ts</text>
</a>
</g>
</g>
<!-- src/application/services/FileParserService.ts&#45;&gt;src/domain/entities/index.ts -->
<g id="edge2" class="edge">
<title>src/application/services/FileParserService.ts&#45;&gt;src/domain/entities/index.ts</title>
<path fill="none" stroke="#000000" stroke-opacity="0.200000" d="M139.91,-466.99C189.48,-491.38 324.76,-552 444.76,-552 444.76,-552 444.76,-552 579.26,-552 660.85,-552 756.5,-560.92 805.96,-566.2"/>
<polygon fill="none" stroke="#000000" stroke-opacity="0.200000" points="805.51,-568.27 811.7,-566.82 805.96,-564.09 805.51,-568.27"/>
</g>
<!-- src/infrastructure/services/index.ts -->
<g id="node5" class="node">
<title>src/infrastructure/services/index.ts</title>
<g id="a_node5"><a xlink:href="src/infrastructure/services/index.ts" xlink:title="index.ts">
<path fill="#ddfeff" stroke="black" d="M315.34,-215.62C315.34,-215.62 274.17,-215.62 274.17,-215.62 270.97,-215.62 267.76,-212.42 267.76,-209.21 267.76,-209.21 267.76,-202.79 267.76,-202.79 267.76,-199.58 270.97,-196.38 274.17,-196.38 274.17,-196.38 315.34,-196.38 315.34,-196.38 318.55,-196.38 321.76,-199.58 321.76,-202.79 321.76,-202.79 321.76,-209.21 321.76,-209.21 321.76,-212.42 318.55,-215.62 315.34,-215.62"/>
<text text-anchor="start" x="279.01" y="-203.07" font-family="Helvetica,sans-Serif" font-size="9.00">index.ts</text>
</a>
</g>
</g>
<!-- src/application/services/FileParserService.ts&#45;&gt;src/infrastructure/services/index.ts -->
<g id="edge3" class="edge">
<title>src/application/services/FileParserService.ts&#45;&gt;src/infrastructure/services/index.ts</title>
<path fill="none" stroke="#000000" stroke-width="2" stroke-opacity="0.200000" d="M169.06,-455.65C184.58,-452.64 200.32,-446.4 210.38,-434 223.42,-417.94 207.52,-265.61 218.38,-248 227.54,-233.15 243.96,-223.12 259.14,-216.6"/>
<polygon fill="#000000" fill-opacity="0.200000" stroke="#000000" stroke-width="2" stroke-opacity="0.200000" points="259.78,-218.61 264.58,-214.44 258.23,-214.7 259.78,-218.61"/>
</g>
<!-- src/infrastructure/video/index.ts -->
<g id="node6" class="node">
<title>src/infrastructure/video/index.ts</title>
<g id="a_node6"><a xlink:href="src/infrastructure/video/index.ts" xlink:title="index.ts">
<path fill="#ddfeff" stroke="black" d="M315.34,-292.62C315.34,-292.62 274.17,-292.62 274.17,-292.62 270.97,-292.62 267.76,-289.42 267.76,-286.21 267.76,-286.21 267.76,-279.79 267.76,-279.79 267.76,-276.58 270.97,-273.38 274.17,-273.38 274.17,-273.38 315.34,-273.38 315.34,-273.38 318.55,-273.38 321.76,-276.58 321.76,-279.79 321.76,-279.79 321.76,-286.21 321.76,-286.21 321.76,-289.42 318.55,-292.62 315.34,-292.62"/>
<text text-anchor="start" x="279.01" y="-280.07" font-family="Helvetica,sans-Serif" font-size="9.00">index.ts</text>
</a>
</g>
</g>
<!-- src/application/services/FileParserService.ts&#45;&gt;src/infrastructure/video/index.ts -->
<g id="edge4" class="edge">
<title>src/application/services/FileParserService.ts&#45;&gt;src/infrastructure/video/index.ts</title>
<path fill="none" stroke="#000000" stroke-width="2" stroke-opacity="0.200000" d="M168.93,-455.04C184.25,-451.97 199.9,-445.82 210.38,-434 228.52,-413.54 207.39,-398.04 218.38,-373 231.48,-343.18 257.59,-315.52 275.37,-298.95"/>
<polygon fill="#000000" fill-opacity="0.200000" stroke="#000000" stroke-width="2" stroke-opacity="0.200000" points="276.7,-300.58 279.72,-294.99 273.87,-297.47 276.7,-300.58"/>
</g>
<!-- src/infrastructure/services/VideoMetadataFacade.ts -->
<g id="node17" class="node">
<title>src/infrastructure/services/VideoMetadataFacade.ts</title>
<g id="a_node17"><a xlink:href="src/infrastructure/services/VideoMetadataFacade.ts" xlink:title="VideoMetadataFacade.ts">
<path fill="#ddfeff" stroke="black" d="M497.97,-215.62C497.97,-215.62 393.55,-215.62 393.55,-215.62 390.34,-215.62 387.13,-212.42 387.13,-209.21 387.13,-209.21 387.13,-202.79 387.13,-202.79 387.13,-199.58 390.34,-196.38 393.55,-196.38 393.55,-196.38 497.97,-196.38 497.97,-196.38 501.17,-196.38 504.38,-199.58 504.38,-202.79 504.38,-202.79 504.38,-209.21 504.38,-209.21 504.38,-212.42 501.17,-215.62 497.97,-215.62"/>
<text text-anchor="start" x="395.13" y="-203.07" font-family="Helvetica,sans-Serif" font-size="9.00">VideoMetadataFacade.ts</text>
</a>
</g>
</g>
<!-- src/infrastructure/services/index.ts&#45;&gt;src/infrastructure/services/VideoMetadataFacade.ts -->
<g id="edge28" class="edge">
<title>src/infrastructure/services/index.ts&#45;&gt;src/infrastructure/services/VideoMetadataFacade.ts</title>
<path fill="none" stroke="#000000" stroke-width="2" stroke-opacity="0.200000" d="M322.05,-206C340.01,-206 364.53,-206 386.92,-206"/>
<polygon fill="#000000" fill-opacity="0.200000" stroke="#000000" stroke-width="2" stroke-opacity="0.200000" points="389.73,-204.61 393.63,-212.71 385.53,-208.81 389.73,-204.61"/>
</g>
<!-- src/infrastructure/video/HTMLVideoProcessor.ts -->
<g id="node18" class="node">
<title>src/infrastructure/video/HTMLVideoProcessor.ts</title>
<g id="a_node18"><a xlink:href="src/infrastructure/video/HTMLVideoProcessor.ts" xlink:title="HTMLVideoProcessor.ts">
<path fill="#ddfeff" stroke="black" d="M629.72,-285.62C629.72,-285.62 526.8,-285.62 526.8,-285.62 523.59,-285.62 520.38,-282.42 520.38,-279.21 520.38,-279.21 520.38,-272.79 520.38,-272.79 520.38,-269.58 523.59,-266.38 526.8,-266.38 526.8,-266.38 629.72,-266.38 629.72,-266.38 632.92,-266.38 636.13,-269.58 636.13,-272.79 636.13,-272.79 636.13,-279.21 636.13,-279.21 636.13,-282.42 632.92,-285.62 629.72,-285.62"/>
<text text-anchor="start" x="528.38" y="-273.07" font-family="Helvetica,sans-Serif" font-size="9.00">HTMLVideoProcessor.ts</text>
</a>
</g>
</g>
<!-- src/infrastructure/video/index.ts&#45;&gt;src/infrastructure/video/HTMLVideoProcessor.ts -->
<g id="edge32" class="edge">
<title>src/infrastructure/video/index.ts&#45;&gt;src/infrastructure/video/HTMLVideoProcessor.ts</title>
<path fill="none" stroke="#000000" stroke-width="2" stroke-opacity="0.200000" d="M321.99,-277.16C340.17,-273.42 364.99,-268.92 387.13,-267 442.59,-262.18 456.85,-263.17 519.99,-267.62"/>
<polygon fill="#000000" fill-opacity="0.200000" stroke="#000000" stroke-width="2" stroke-opacity="0.200000" points="522.8,-266.23 526.7,-274.33 518.6,-270.43 522.8,-266.23"/>
</g>
<!-- src/infrastructure/video/VideoFileParser.ts -->
<g id="node19" class="node">
<title>src/infrastructure/video/VideoFileParser.ts</title>
<g id="a_node19"><a xlink:href="src/infrastructure/video/VideoFileParser.ts" xlink:title="VideoFileParser.ts">
<path fill="#ddfeff" stroke="black" d="M485.22,-292.62C485.22,-292.62 406.3,-292.62 406.3,-292.62 403.09,-292.62 399.88,-289.42 399.88,-286.21 399.88,-286.21 399.88,-279.79 399.88,-279.79 399.88,-276.58 403.09,-273.38 406.3,-273.38 406.3,-273.38 485.22,-273.38 485.22,-273.38 488.42,-273.38 491.63,-276.58 491.63,-279.79 491.63,-279.79 491.63,-286.21 491.63,-286.21 491.63,-289.42 488.42,-292.62 485.22,-292.62"/>
<text text-anchor="start" x="407.88" y="-280.07" font-family="Helvetica,sans-Serif" font-size="9.00">VideoFileParser.ts</text>
</a>
</g>
</g>
<!-- src/infrastructure/video/index.ts&#45;&gt;src/infrastructure/video/VideoFileParser.ts -->
<g id="edge33" class="edge">
<title>src/infrastructure/video/index.ts&#45;&gt;src/infrastructure/video/VideoFileParser.ts</title>
<path fill="none" stroke="#000000" stroke-width="2" stroke-opacity="0.200000" d="M322.05,-283C343.44,-283 374.12,-283 399.45,-283"/>
<polygon fill="#000000" fill-opacity="0.200000" stroke="#000000" stroke-width="2" stroke-opacity="0.200000" points="402.25,-281.61 406.15,-289.71 398.05,-285.81 402.25,-281.61"/>
</g>
<!-- src/application/stores/videosStore.ts -->
<g id="node7" class="node">
<title>src/application/stores/videosStore.ts</title>
<g id="a_node7"><a xlink:href="src/application/stores/videosStore.ts" xlink:title="videosStore.ts">
<path fill="#ddfeff" stroke="black" d="M150.22,-403.62C150.22,-403.62 88.55,-403.62 88.55,-403.62 85.34,-403.62 82.13,-400.42 82.13,-397.21 82.13,-397.21 82.13,-390.79 82.13,-390.79 82.13,-387.58 85.34,-384.38 88.55,-384.38 88.55,-384.38 150.22,-384.38 150.22,-384.38 153.42,-384.38 156.63,-387.58 156.63,-390.79 156.63,-390.79 156.63,-397.21 156.63,-397.21 156.63,-400.42 153.42,-403.62 150.22,-403.62"/>
<text text-anchor="start" x="90.13" y="-391.07" font-family="Helvetica,sans-Serif" font-size="9.00">videosStore.ts</text>
</a>
</g>
</g>
<!-- src/application/stores/videosStore.ts&#45;&gt;src/application/ports/IVideoStorage.ts -->
<g id="edge5" class="edge">
<title>src/application/stores/videosStore.ts&#45;&gt;src/application/ports/IVideoStorage.ts</title>
<path fill="none" stroke="#000000" stroke-opacity="0.200000" d="M156.73,-400.5C182.43,-405.09 217.17,-411.31 245.24,-416.33"/>
<polygon fill="none" stroke="#000000" stroke-opacity="0.200000" points="244.83,-418.38 251.11,-417.37 245.57,-414.25 244.83,-418.38"/>
</g>
<!-- src/application/stores/videosStore.ts&#45;&gt;src/domain/entities/index.ts -->
<g id="edge6" class="edge">
<title>src/application/stores/videosStore.ts&#45;&gt;src/domain/entities/index.ts</title>
<path fill="none" stroke="#000000" stroke-opacity="0.200000" d="M156.93,-403.11C175.38,-409.47 196.69,-419.8 210.38,-436 219.01,-446.21 208.19,-456.35 218.38,-465 256.96,-497.73 394.17,-489 444.76,-489 444.76,-489 444.76,-489 579.26,-489 602.36,-489 741.72,-536.18 806.42,-558.53"/>
<polygon fill="none" stroke="#000000" stroke-opacity="0.200000" points="805.4,-560.39 811.76,-560.37 806.77,-556.43 805.4,-560.39"/>
</g>
<!-- src/infrastructure/adapters/VideoStorageAdapter.ts -->
<g id="node8" class="node">
<title>src/infrastructure/adapters/VideoStorageAdapter.ts</title>
<g id="a_node8"><a xlink:href="src/infrastructure/adapters/VideoStorageAdapter.ts" xlink:title="VideoStorageAdapter.ts">
<path fill="#ddfeff" stroke="black" d="M169.34,-261.62C169.34,-261.62 69.42,-261.62 69.42,-261.62 66.22,-261.62 63.01,-258.42 63.01,-255.21 63.01,-255.21 63.01,-248.79 63.01,-248.79 63.01,-245.58 66.22,-242.38 69.42,-242.38 69.42,-242.38 169.34,-242.38 169.34,-242.38 172.55,-242.38 175.76,-245.58 175.76,-248.79 175.76,-248.79 175.76,-255.21 175.76,-255.21 175.76,-258.42 172.55,-261.62 169.34,-261.62"/>
<text text-anchor="start" x="71.01" y="-249.07" font-family="Helvetica,sans-Serif" font-size="9.00">VideoStorageAdapter.ts</text>
</a>
</g>
</g>
<!-- src/application/stores/videosStore.ts&#45;&gt;src/infrastructure/adapters/VideoStorageAdapter.ts -->
<g id="edge7" class="edge">
<title>src/application/stores/videosStore.ts&#45;&gt;src/infrastructure/adapters/VideoStorageAdapter.ts</title>
<path fill="none" stroke="#000000" stroke-width="2" stroke-opacity="0.200000" d="M88.85,-383.94C60.67,-372.72 20.97,-351.46 5.88,-317 -1.96,-299.09 -1.96,-290.91 5.88,-273 14.01,-254.45 33.4,-247.27 53.91,-245.38"/>
<polygon fill="#000000" fill-opacity="0.200000" stroke="#000000" stroke-width="2" stroke-opacity="0.200000" points="53.84,-247.49 59.71,-245.05 53.6,-243.29 53.84,-247.49"/>
</g>
<!-- src/infrastructure/adapters/VideoThumbnailGeneratorAdapter.ts -->
<g id="node9" class="node">
<title>src/infrastructure/adapters/VideoThumbnailGeneratorAdapter.ts</title>
<g id="a_node9"><a xlink:href="src/infrastructure/adapters/VideoThumbnailGeneratorAdapter.ts" xlink:title="VideoThumbnailGeneratorAdapter.ts">
<path fill="#ddfeff" stroke="black" d="M195.97,-292.62C195.97,-292.62 42.8,-292.62 42.8,-292.62 39.59,-292.62 36.38,-289.42 36.38,-286.21 36.38,-286.21 36.38,-279.79 36.38,-279.79 36.38,-276.58 39.59,-273.38 42.8,-273.38 42.8,-273.38 195.97,-273.38 195.97,-273.38 199.17,-273.38 202.38,-276.58 202.38,-279.79 202.38,-279.79 202.38,-286.21 202.38,-286.21 202.38,-289.42 199.17,-292.62 195.97,-292.62"/>
<text text-anchor="start" x="44.38" y="-280.07" font-family="Helvetica,sans-Serif" font-size="9.00">VideoThumbnailGeneratorAdapter.ts</text>
</a>
</g>
</g>
<!-- src/application/stores/videosStore.ts&#45;&gt;src/infrastructure/adapters/VideoThumbnailGeneratorAdapter.ts -->
<g id="edge8" class="edge">
<title>src/application/stores/videosStore.ts&#45;&gt;src/infrastructure/adapters/VideoThumbnailGeneratorAdapter.ts</title>
<path fill="none" stroke="#000000" stroke-width="2" stroke-opacity="0.200000" d="M119.38,-384.13C119.38,-356.71 119.38,-329.29 119.38,-301.88"/>
<polygon fill="#000000" fill-opacity="0.200000" stroke="#000000" stroke-width="2" stroke-opacity="0.200000" points="121.48,-302 119.38,-296 117.28,-302 121.48,-302"/>
</g>
<!-- src/infrastructure/adapters/VideoStorageAdapter.ts&#45;&gt;src/application/ports/IVideoStorage.ts -->
<g id="edge9" class="edge">
<title>src/infrastructure/adapters/VideoStorageAdapter.ts&#45;&gt;src/application/ports/IVideoStorage.ts</title>
<path fill="none" stroke="#000000" stroke-opacity="0.200000" d="M176.11,-249.88C189.06,-252.19 201.61,-257.21 210.38,-267 231.63,-290.7 197.51,-385.97 218.38,-410 225.35,-418.02 235.27,-422.5 245.64,-424.87"/>
<polygon fill="none" stroke="#000000" stroke-opacity="0.200000" points="245.09,-426.91 251.37,-425.92 245.85,-422.78 245.09,-426.91"/>
</g>
<!-- src/infrastructure/adapters/VideoStorageAdapter.ts&#45;&gt;src/domain/entities/index.ts -->
<g id="edge10" class="edge">
<title>src/infrastructure/adapters/VideoStorageAdapter.ts&#45;&gt;src/domain/entities/index.ts</title>
<path fill="none" stroke="#000000" stroke-opacity="0.200000" d="M176.02,-250.49C188.81,-252.83 201.31,-257.71 210.38,-267 227.95,-284.98 201.2,-304.64 218.38,-323 303.62,-414.08 685.54,-345.07 767.63,-439 783.47,-457.12 761.08,-527.83 775.63,-547 782.94,-556.62 794.64,-562.23 806.04,-565.49"/>
<polygon fill="none" stroke="#000000" stroke-opacity="0.200000" points="805.25,-567.46 811.58,-566.87 806.26,-563.38 805.25,-567.46"/>
</g>
<!-- src/infrastructure/adapters/VideoStorageAdapter.ts&#45;&gt;src/infrastructure/services/index.ts -->
<g id="edge11" class="edge">
<title>src/infrastructure/adapters/VideoStorageAdapter.ts&#45;&gt;src/infrastructure/services/index.ts</title>
<path fill="none" stroke="#000000" stroke-width="2" stroke-opacity="0.200000" d="M158.43,-241.91C188.33,-233.97 229.65,-223.01 258.74,-215.29"/>
<polygon fill="#000000" fill-opacity="0.200000" stroke="#000000" stroke-width="2" stroke-opacity="0.200000" points="259.16,-217.35 264.42,-213.78 258.08,-213.29 259.16,-217.35"/>
</g>
<!-- src/infrastructure/adapters/VideoThumbnailGeneratorAdapter.ts&#45;&gt;src/application/ports/IVideoThumbnailGenerator.ts -->
<g id="edge12" class="edge">
<title>src/infrastructure/adapters/VideoThumbnailGeneratorAdapter.ts&#45;&gt;src/application/ports/IVideoThumbnailGenerator.ts</title>
<path fill="none" stroke="#000000" stroke-opacity="0.200000" d="M130.49,-292.98C147.46,-309.33 183.29,-342.09 218.38,-363 230.38,-370.15 244.34,-376.4 256.95,-381.37"/>
<polygon fill="none" stroke="#000000" stroke-opacity="0.200000" points="256.03,-383.27 262.39,-383.46 257.54,-379.35 256.03,-383.27"/>
</g>
<!-- src/infrastructure/adapters/VideoThumbnailGeneratorAdapter.ts&#45;&gt;src/infrastructure/video/index.ts -->
<g id="edge13" class="edge">
<title>src/infrastructure/adapters/VideoThumbnailGeneratorAdapter.ts&#45;&gt;src/infrastructure/video/index.ts</title>
<path fill="none" stroke="#000000" stroke-width="2" stroke-opacity="0.200000" d="M202.75,-283C222.51,-283 242.57,-283 258.8,-283"/>
<polygon fill="#000000" fill-opacity="0.200000" stroke="#000000" stroke-width="2" stroke-opacity="0.200000" points="258.38,-285.1 264.38,-283 258.38,-280.9 258.38,-285.1"/>
</g>
<!-- src/domain/constants/index.ts -->
<g id="node10" class="node">
<title>src/domain/constants/index.ts</title>
<g id="a_node10"><a xlink:href="src/domain/constants/index.ts" xlink:title="index.ts">
<path fill="#ddfeff" stroke="black" d="M860.97,-390.62C860.97,-390.62 819.8,-390.62 819.8,-390.62 816.59,-390.62 813.38,-387.42 813.38,-384.21 813.38,-384.21 813.38,-377.79 813.38,-377.79 813.38,-374.58 816.59,-371.38 819.8,-371.38 819.8,-371.38 860.97,-371.38 860.97,-371.38 864.17,-371.38 867.38,-374.58 867.38,-377.79 867.38,-377.79 867.38,-384.21 867.38,-384.21 867.38,-387.42 864.17,-390.62 860.97,-390.62"/>
<text text-anchor="start" x="824.63" y="-378.07" font-family="Helvetica,sans-Serif" font-size="9.00">index.ts</text>
</a>
</g>
</g>
<!-- src/domain/repositories/index.ts -->
<g id="node11" class="node">
<title>src/domain/repositories/index.ts</title>
<g id="a_node11"><a xlink:href="src/domain/repositories/index.ts" xlink:title="index.ts">
<path fill="#ddfeff" stroke="black" d="M860.97,-453.62C860.97,-453.62 819.8,-453.62 819.8,-453.62 816.59,-453.62 813.38,-450.42 813.38,-447.21 813.38,-447.21 813.38,-440.79 813.38,-440.79 813.38,-437.58 816.59,-434.38 819.8,-434.38 819.8,-434.38 860.97,-434.38 860.97,-434.38 864.17,-434.38 867.38,-437.58 867.38,-440.79 867.38,-440.79 867.38,-447.21 867.38,-447.21 867.38,-450.42 864.17,-453.62 860.97,-453.62"/>
<text text-anchor="start" x="824.63" y="-441.07" font-family="Helvetica,sans-Serif" font-size="9.00">index.ts</text>
</a>
</g>
</g>
<!-- src/domain/valueObjects/index.ts -->
<g id="node12" class="node">
<title>src/domain/valueObjects/index.ts</title>
<g id="a_node12"><a xlink:href="src/domain/valueObjects/index.ts" xlink:title="index.ts">
<path fill="#ddfeff" stroke="black" d="M860.97,-516.62C860.97,-516.62 819.8,-516.62 819.8,-516.62 816.59,-516.62 813.38,-513.42 813.38,-510.21 813.38,-510.21 813.38,-503.79 813.38,-503.79 813.38,-500.58 816.59,-497.38 819.8,-497.38 819.8,-497.38 860.97,-497.38 860.97,-497.38 864.17,-497.38 867.38,-500.58 867.38,-503.79 867.38,-503.79 867.38,-510.21 867.38,-510.21 867.38,-513.42 864.17,-516.62 860.97,-516.62"/>
<text text-anchor="start" x="824.63" y="-504.07" font-family="Helvetica,sans-Serif" font-size="9.00">index.ts</text>
</a>
</g>
</g>
<!-- src/infrastructure/database/DatabaseConnection.ts -->
<g id="node13" class="node">
<title>src/infrastructure/database/DatabaseConnection.ts</title>
<g id="a_node13"><a xlink:href="src/infrastructure/database/DatabaseConnection.ts" xlink:title="DatabaseConnection.ts">
<path fill="#ddfeff" stroke="black" d="M890.72,-199.62C890.72,-199.62 790.05,-199.62 790.05,-199.62 786.84,-199.62 783.63,-196.42 783.63,-193.21 783.63,-193.21 783.63,-186.79 783.63,-186.79 783.63,-183.58 786.84,-180.38 790.05,-180.38 790.05,-180.38 890.72,-180.38 890.72,-180.38 893.92,-180.38 897.13,-183.58 897.13,-186.79 897.13,-186.79 897.13,-193.21 897.13,-193.21 897.13,-196.42 893.92,-199.62 890.72,-199.62"/>
<text text-anchor="start" x="791.63" y="-187.07" font-family="Helvetica,sans-Serif" font-size="9.00">DatabaseConnection.ts</text>
</a>
</g>
</g>
<!-- src/infrastructure/repository/MetadataRepository.ts -->
<g id="node14" class="node">
<title>src/infrastructure/repository/MetadataRepository.ts</title>
<g id="a_node14"><a xlink:href="src/infrastructure/repository/MetadataRepository.ts" xlink:title="MetadataRepository.ts">
<path fill="#ddfeff" stroke="black" d="M753.22,-215.62C753.22,-215.62 658.55,-215.62 658.55,-215.62 655.34,-215.62 652.13,-212.42 652.13,-209.21 652.13,-209.21 652.13,-202.79 652.13,-202.79 652.13,-199.58 655.34,-196.38 658.55,-196.38 658.55,-196.38 753.22,-196.38 753.22,-196.38 756.42,-196.38 759.63,-199.58 759.63,-202.79 759.63,-202.79 759.63,-209.21 759.63,-209.21 759.63,-212.42 756.42,-215.62 753.22,-215.62"/>
<text text-anchor="start" x="660.13" y="-203.07" font-family="Helvetica,sans-Serif" font-size="9.00">MetadataRepository.ts</text>
</a>
</g>
</g>
<!-- src/infrastructure/repository/MetadataRepository.ts&#45;&gt;src/domain/entities/index.ts -->
<g id="edge16" class="edge">
<title>src/infrastructure/repository/MetadataRepository.ts&#45;&gt;src/domain/entities/index.ts</title>
<path fill="none" stroke="#000000" stroke-opacity="0.200000" d="M711.87,-215.84C724.07,-240.51 755.37,-307.3 767.63,-367 771.66,-386.61 763.77,-530.88 775.63,-547 782.79,-556.73 794.47,-562.36 805.88,-565.6"/>
<polygon fill="none" stroke="#000000" stroke-opacity="0.200000" points="805.11,-567.58 811.44,-566.97 806.12,-563.5 805.11,-567.58"/>
</g>
<!-- src/infrastructure/repository/MetadataRepository.ts&#45;&gt;src/domain/constants/index.ts -->
<g id="edge15" class="edge">
<title>src/infrastructure/repository/MetadataRepository.ts&#45;&gt;src/domain/constants/index.ts</title>
<path fill="none" stroke="#000000" stroke-width="2" stroke-opacity="0.200000" d="M714.39,-215.91C736.16,-244.67 799.53,-328.36 826.73,-364.29"/>
<polygon fill="#000000" fill-opacity="0.200000" stroke="#000000" stroke-width="2" stroke-opacity="0.200000" points="824.84,-365.27 830.13,-368.79 828.19,-362.73 824.84,-365.27"/>
</g>
<!-- src/infrastructure/repository/MetadataRepository.ts&#45;&gt;src/domain/repositories/index.ts -->
<g id="edge17" class="edge">
<title>src/infrastructure/repository/MetadataRepository.ts&#45;&gt;src/domain/repositories/index.ts</title>
<path fill="none" stroke="#000000" stroke-opacity="0.200000" d="M713.68,-215.94C726.77,-235.7 755.3,-281.72 767.63,-325 773.5,-345.59 762.61,-404.01 775.63,-421 782.98,-430.59 794.69,-436.19 806.08,-439.45"/>
<polygon fill="none" stroke="#000000" stroke-opacity="0.200000" points="805.29,-441.42 811.62,-440.83 806.31,-437.34 805.29,-441.42"/>
</g>
<!-- src/infrastructure/repository/MetadataRepository.ts&#45;&gt;src/infrastructure/database/DatabaseConnection.ts -->
<g id="edge14" class="edge">
<title>src/infrastructure/repository/MetadataRepository.ts&#45;&gt;src/infrastructure/database/DatabaseConnection.ts</title>
<path fill="none" stroke="#000000" stroke-width="2" stroke-opacity="0.200000" d="M760.01,-199.58C764.78,-199.01 769.65,-198.42 774.5,-197.83"/>
<polygon fill="#000000" fill-opacity="0.200000" stroke="#000000" stroke-width="2" stroke-opacity="0.200000" points="774.5,-199.95 780.2,-197.15 773.99,-195.78 774.5,-199.95"/>
</g>
<!-- src/infrastructure/repository/VideoRepository.ts -->
<g id="node15" class="node">
<title>src/infrastructure/repository/VideoRepository.ts</title>
<g id="a_node15"><a xlink:href="src/infrastructure/repository/VideoRepository.ts" xlink:title="VideoRepository.ts">
<path fill="#ddfeff" stroke="black" d="M746.09,-184.62C746.09,-184.62 665.67,-184.62 665.67,-184.62 662.47,-184.62 659.26,-181.42 659.26,-178.21 659.26,-178.21 659.26,-171.79 659.26,-171.79 659.26,-168.58 662.47,-165.38 665.67,-165.38 665.67,-165.38 746.09,-165.38 746.09,-165.38 749.3,-165.38 752.51,-168.58 752.51,-171.79 752.51,-171.79 752.51,-178.21 752.51,-178.21 752.51,-181.42 749.3,-184.62 746.09,-184.62"/>
<text text-anchor="start" x="667.26" y="-172.07" font-family="Helvetica,sans-Serif" font-size="9.00">VideoRepository.ts</text>
</a>
</g>
</g>
<!-- src/infrastructure/repository/VideoRepository.ts&#45;&gt;src/domain/entities/index.ts -->
<g id="edge20" class="edge">
<title>src/infrastructure/repository/VideoRepository.ts&#45;&gt;src/domain/entities/index.ts</title>
<path fill="none" stroke="#000000" stroke-opacity="0.200000" d="M752.92,-179.34C758.6,-181.74 763.76,-185.17 767.63,-190 780.04,-205.48 764.05,-530.89 775.63,-547 782.74,-556.89 794.53,-562.54 806.04,-565.77"/>
<polygon fill="none" stroke="#000000" stroke-opacity="0.200000" points="805.34,-567.76 811.66,-567.12 806.32,-563.67 805.34,-567.76"/>
</g>
<!-- src/infrastructure/repository/VideoRepository.ts&#45;&gt;src/domain/constants/index.ts -->
<g id="edge19" class="edge">
<title>src/infrastructure/repository/VideoRepository.ts&#45;&gt;src/domain/constants/index.ts</title>
<path fill="none" stroke="#000000" stroke-width="2" stroke-opacity="0.200000" d="M752.79,-180.23C758.34,-182.53 763.5,-185.68 767.63,-190 780.16,-203.1 770.3,-212.67 775.63,-230 790.88,-279.57 816.73,-335.1 830.36,-362.98"/>
<polygon fill="#000000" fill-opacity="0.200000" stroke="#000000" stroke-width="2" stroke-opacity="0.200000" points="828.45,-363.85 832.99,-368.3 832.21,-361.99 828.45,-363.85"/>
</g>
<!-- src/infrastructure/repository/VideoRepository.ts&#45;&gt;src/domain/repositories/index.ts -->
<g id="edge21" class="edge">
<title>src/infrastructure/repository/VideoRepository.ts&#45;&gt;src/domain/repositories/index.ts</title>
<path fill="none" stroke="#000000" stroke-opacity="0.200000" d="M752.87,-179.38C758.55,-181.78 763.73,-185.19 767.63,-190 783.81,-209.94 760.51,-400.24 775.63,-421 782.8,-430.84 794.6,-436.49 806.11,-439.72"/>
<polygon fill="none" stroke="#000000" stroke-opacity="0.200000" points="805.39,-441.71 811.72,-441.08 806.38,-437.62 805.39,-441.71"/>
</g>
<!-- src/infrastructure/repository/VideoRepository.ts&#45;&gt;src/infrastructure/database/DatabaseConnection.ts -->
<g id="edge18" class="edge">
<title>src/infrastructure/repository/VideoRepository.ts&#45;&gt;src/infrastructure/database/DatabaseConnection.ts</title>
<path fill="none" stroke="#000000" stroke-width="2" stroke-opacity="0.200000" d="M752.85,-180.2C759.94,-181.01 767.38,-181.85 774.79,-182.69"/>
<polygon fill="#000000" fill-opacity="0.200000" stroke="#000000" stroke-width="2" stroke-opacity="0.200000" points="774.24,-184.74 780.44,-183.33 774.71,-180.57 774.24,-184.74"/>
</g>
<!-- src/infrastructure/repository/index.ts -->
<g id="node16" class="node">
<title>src/infrastructure/repository/index.ts</title>
<g id="a_node16"><a xlink:href="src/infrastructure/repository/index.ts" xlink:title="index.ts">
<path fill="#ddfeff" stroke="black" d="M598.84,-215.62C598.84,-215.62 557.67,-215.62 557.67,-215.62 554.47,-215.62 551.26,-212.42 551.26,-209.21 551.26,-209.21 551.26,-202.79 551.26,-202.79 551.26,-199.58 554.47,-196.38 557.67,-196.38 557.67,-196.38 598.84,-196.38 598.84,-196.38 602.05,-196.38 605.26,-199.58 605.26,-202.79 605.26,-202.79 605.26,-209.21 605.26,-209.21 605.26,-212.42 602.05,-215.62 598.84,-215.62"/>
<text text-anchor="start" x="562.51" y="-203.07" font-family="Helvetica,sans-Serif" font-size="9.00">index.ts</text>
</a>
</g>
</g>
<!-- src/infrastructure/repository/index.ts&#45;&gt;src/infrastructure/repository/MetadataRepository.ts -->
<g id="edge22" class="edge">
<title>src/infrastructure/repository/index.ts&#45;&gt;src/infrastructure/repository/MetadataRepository.ts</title>
<path fill="none" stroke="#000000" stroke-width="2" stroke-opacity="0.200000" d="M605.59,-206C618.97,-206 635.74,-206 651.66,-206"/>
<polygon fill="#000000" fill-opacity="0.200000" stroke="#000000" stroke-width="2" stroke-opacity="0.200000" points="654.47,-204.61 658.37,-212.71 650.27,-208.81 654.47,-204.61"/>
</g>
<!-- src/infrastructure/repository/index.ts&#45;&gt;src/infrastructure/repository/VideoRepository.ts -->
<g id="edge23" class="edge">
<title>src/infrastructure/repository/index.ts&#45;&gt;src/infrastructure/repository/VideoRepository.ts</title>
<path fill="none" stroke="#000000" stroke-width="2" stroke-opacity="0.200000" d="M605.59,-199.5C622.57,-195.31 644.99,-189.78 664.23,-185.03"/>
<polygon fill="#000000" fill-opacity="0.200000" stroke="#000000" stroke-width="2" stroke-opacity="0.200000" points="667.04,-183.64 670.94,-191.74 662.84,-187.84 667.04,-183.64"/>
</g>
<!-- src/infrastructure/services/VideoMetadataFacade.ts&#45;&gt;src/domain/entities/index.ts -->
<g id="edge24" class="edge">
<title>src/infrastructure/services/VideoMetadataFacade.ts&#45;&gt;src/domain/entities/index.ts</title>
<path fill="none" stroke="#000000" stroke-opacity="0.200000" d="M473.2,-216.04C487.3,-222.83 503.52,-233.29 512.38,-248 523.43,-266.34 505.59,-328.52 520.38,-344 558.66,-384.06 730.09,-335.25 767.63,-376 780.52,-389.99 764.34,-531.69 775.63,-547 782.81,-556.72 794.48,-562.35 805.89,-565.59"/>
<polygon fill="none" stroke="#000000" stroke-opacity="0.200000" points="805.12,-567.57 811.45,-566.96 806.13,-563.49 805.12,-567.57"/>
</g>
<!-- src/infrastructure/services/VideoMetadataFacade.ts&#45;&gt;src/domain/repositories/index.ts -->
<g id="edge25" class="edge">
<title>src/infrastructure/services/VideoMetadataFacade.ts&#45;&gt;src/domain/repositories/index.ts</title>
<path fill="none" stroke="#000000" stroke-opacity="0.200000" d="M473.07,-216.12C487.12,-222.94 503.35,-233.39 512.38,-248 521.2,-262.26 508.29,-311.4 520.38,-323 560.12,-361.11 728.07,-300.71 767.63,-339 780.79,-351.73 764.39,-406.55 775.63,-421 783.05,-430.54 794.77,-436.13 806.16,-439.4"/>
<polygon fill="none" stroke="#000000" stroke-opacity="0.200000" points="805.36,-441.36 811.69,-440.78 806.38,-437.29 805.36,-441.36"/>
</g>
<!-- src/infrastructure/services/VideoMetadataFacade.ts&#45;&gt;src/domain/valueObjects/index.ts -->
<g id="edge26" class="edge">
<title>src/infrastructure/services/VideoMetadataFacade.ts&#45;&gt;src/domain/valueObjects/index.ts</title>
<path fill="none" stroke="#000000" stroke-width="2" stroke-opacity="0.200000" d="M473.14,-216.07C487.22,-222.88 503.44,-233.33 512.38,-248 522.26,-264.2 506.91,-319.65 520.38,-333 559.55,-371.81 729.1,-314.56 767.63,-354 787.86,-374.7 758.28,-460.84 775.63,-484 782.54,-493.21 793.47,-498.74 804.36,-502.06"/>
<polygon fill="#000000" fill-opacity="0.200000" stroke="#000000" stroke-width="2" stroke-opacity="0.200000" points="803.73,-504.07 810.06,-503.52 804.77,-500 803.73,-504.07"/>
</g>
<!-- src/infrastructure/services/VideoMetadataFacade.ts&#45;&gt;src/infrastructure/repository/index.ts -->
<g id="edge27" class="edge">
<title>src/infrastructure/services/VideoMetadataFacade.ts&#45;&gt;src/infrastructure/repository/index.ts</title>
<path fill="none" stroke="#000000" stroke-width="2" stroke-opacity="0.200000" d="M504.76,-206C517.43,-206 530.48,-206 541.95,-206"/>
<polygon fill="#000000" fill-opacity="0.200000" stroke="#000000" stroke-width="2" stroke-opacity="0.200000" points="541.75,-208.1 547.75,-206 541.75,-203.9 541.75,-208.1"/>
</g>
<!-- src/infrastructure/video/VideoFileParser.ts&#45;&gt;src/domain/entities/index.ts -->
<g id="edge30" class="edge">
<title>src/infrastructure/video/VideoFileParser.ts&#45;&gt;src/domain/entities/index.ts</title>
<path fill="none" stroke="#000000" stroke-opacity="0.200000" d="M453.56,-293C465.18,-309.19 490.51,-340.87 520.38,-356 526.59,-359.14 762.98,-389.83 767.63,-395 790.28,-420.13 755.47,-519.84 775.63,-547 782.83,-556.7 794.52,-562.32 805.92,-565.57"/>
<polygon fill="none" stroke="#000000" stroke-opacity="0.200000" points="805.15,-567.54 811.48,-566.94 806.16,-563.47 805.15,-567.54"/>
</g>
<!-- src/infrastructure/video/VideoFileParser.ts&#45;&gt;src/domain/valueObjects/index.ts -->
<g id="edge31" class="edge">
<title>src/infrastructure/video/VideoFileParser.ts&#45;&gt;src/domain/valueObjects/index.ts</title>
<path fill="none" stroke="#000000" stroke-width="2" stroke-opacity="0.200000" d="M454.62,-292.76C466.94,-307.29 492.31,-334.26 520.38,-347 570.88,-369.92 729.59,-340.64 767.63,-381 783.38,-397.71 761.72,-465.74 775.63,-484 782.61,-493.16 793.57,-498.67 804.44,-502"/>
<polygon fill="#000000" fill-opacity="0.200000" stroke="#000000" stroke-width="2" stroke-opacity="0.200000" points="803.8,-504 810.13,-503.46 804.85,-499.93 803.8,-504"/>
</g>
<!-- src/infrastructure/video/VideoFileParser.ts&#45;&gt;src/infrastructure/video/HTMLVideoProcessor.ts -->
<g id="edge29" class="edge">
<title>src/infrastructure/video/VideoFileParser.ts&#45;&gt;src/infrastructure/video/HTMLVideoProcessor.ts</title>
<path fill="none" stroke="#000000" stroke-width="2" stroke-opacity="0.200000" d="M492.03,-280.57C498.31,-280.23 504.86,-279.88 511.41,-279.53"/>
<polygon fill="#000000" fill-opacity="0.200000" stroke="#000000" stroke-width="2" stroke-opacity="0.200000" points="511.43,-281.63 517.31,-279.22 511.21,-277.44 511.43,-281.63"/>
</g>
<!-- src/presentation/components/utils/DiagnosticsPanel.vue -->
<g id="node20" class="node">
<title>src/presentation/components/utils/DiagnosticsPanel.vue</title>
<g id="a_node20"><a xlink:href="src/presentation/components/utils/DiagnosticsPanel.vue" xlink:title="DiagnosticsPanel.vue">
<path fill="#41f083" stroke="black" d="M165.97,-59.62C165.97,-59.62 72.8,-59.62 72.8,-59.62 69.59,-59.62 66.38,-56.42 66.38,-53.21 66.38,-53.21 66.38,-46.79 66.38,-46.79 66.38,-43.58 69.59,-40.38 72.8,-40.38 72.8,-40.38 165.97,-40.38 165.97,-40.38 169.17,-40.38 172.38,-43.58 172.38,-46.79 172.38,-46.79 172.38,-53.21 172.38,-53.21 172.38,-56.42 169.17,-59.62 165.97,-59.62"/>
<text text-anchor="start" x="74.38" y="-47.08" font-family="Helvetica,sans-Serif" font-size="9.00">DiagnosticsPanel.vue</text>
</a>
</g>
</g>
<!-- src/presentation/components/utils/DiagnosticsPanel.vue&#45;&gt;src/infrastructure/services/index.ts -->
<g id="edge34" class="edge">
<title>src/presentation/components/utils/DiagnosticsPanel.vue&#45;&gt;src/infrastructure/services/index.ts</title>
<path fill="none" stroke="#000000" stroke-width="2" stroke-opacity="0.200000" d="M131.49,-60C160.78,-86.35 240.29,-157.89 275.99,-190.01"/>
<polygon fill="#000000" fill-opacity="0.200000" stroke="#000000" stroke-width="2" stroke-opacity="0.200000" points="274.4,-191.41 280.27,-193.86 277.21,-188.29 274.4,-191.41"/>
</g>
</g>
</svg>
