<?xml version="1.0" encoding="UTF-8" standalone="no"?>
<!DOCTYPE svg PUBLIC "-//W3C//DTD SVG 1.1//EN"
 "http://www.w3.org/Graphics/SVG/1.1/DTD/svg11.dtd">
<!-- Generated by graphviz version 9.0.0 (20230911.1827)
 -->
<!-- Title: dependency&#45;cruiser output Pages: 1 -->
<svg width="937pt" height="677pt"
 viewBox="0.00 0.00 937.33 677.00" xmlns="http://www.w3.org/2000/svg" xmlns:xlink="http://www.w3.org/1999/xlink">
<g id="graph0" class="graph" transform="scale(1 1) rotate(0) translate(4 673)">
<title>dependency&#45;cruiser output</title>
<polygon fill="white" stroke="none" points="-4,4 -4,-673 933.33,-673 933.33,4 -4,4"/>
<g id="clust1" class="cluster">
<title>cluster_src</title>
<path fill="#ffffff" stroke="black" stroke-width="2" d="M24.58,-8C24.58,-8 909.33,-8 909.33,-8 915.33,-8 921.33,-14 921.33,-20 921.33,-20 921.33,-649 921.33,-649 921.33,-655 915.33,-661 909.33,-661 909.33,-661 24.58,-661 24.58,-661 18.58,-661 12.58,-655 12.58,-649 12.58,-649 12.58,-20 12.58,-20 12.58,-14 18.58,-8 24.58,-8"/>
<text text-anchor="middle" x="466.95" y="-648.45" font-family="Helvetica,sans-Serif" font-weight="bold" font-size="9.00">src</text>
</g>
<g id="clust2" class="cluster">
<title>cluster_src/application</title>
<path fill="#ffffff" stroke="black" stroke-width="2" d="M66.33,-425C66.33,-425 367.33,-425 367.33,-425 373.33,-425 379.33,-431 379.33,-437 379.33,-437 379.33,-566 379.33,-566 379.33,-572 373.33,-578 367.33,-578 367.33,-578 66.33,-578 66.33,-578 60.33,-578 54.33,-572 54.33,-566 54.33,-566 54.33,-437 54.33,-437 54.33,-431 60.33,-425 66.33,-425"/>
<text text-anchor="middle" x="216.83" y="-565.45" font-family="Helvetica,sans-Serif" font-weight="bold" font-size="9.00">application</text>
</g>
<g id="clust3" class="cluster">
<title>cluster_src/application/ports</title>
<path fill="#ffffff" stroke="black" stroke-width="2" d="M230.58,-433C230.58,-433 359.33,-433 359.33,-433 365.33,-433 371.33,-439 371.33,-445 371.33,-445 371.33,-538 371.33,-538 371.33,-544 365.33,-550 359.33,-550 359.33,-550 230.58,-550 230.58,-550 224.58,-550 218.58,-544 218.58,-538 218.58,-538 218.58,-445 218.58,-445 218.58,-439 224.58,-433 230.58,-433"/>
<text text-anchor="middle" x="294.95" y="-537.45" font-family="Helvetica,sans-Serif" font-weight="bold" font-size="9.00">ports</text>
</g>
<g id="clust4" class="cluster">
<title>cluster_src/application/services</title>
<path fill="#ffffff" stroke="black" stroke-width="2" d="M74.33,-433C74.33,-433 164.83,-433 164.83,-433 170.83,-433 176.83,-439 176.83,-445 176.83,-445 176.83,-476 176.83,-476 176.83,-482 170.83,-488 164.83,-488 164.83,-488 74.33,-488 74.33,-488 68.33,-488 62.33,-482 62.33,-476 62.33,-476 62.33,-445 62.33,-445 62.33,-439 68.33,-433 74.33,-433"/>
<text text-anchor="middle" x="119.58" y="-475.45" font-family="Helvetica,sans-Serif" font-weight="bold" font-size="9.00">services</text>
</g>
<g id="clust5" class="cluster">
<title>cluster_src/application/stores</title>
<path fill="#ffffff" stroke="black" stroke-width="2" d="M86.33,-496C86.33,-496 152.83,-496 152.83,-496 158.83,-496 164.83,-502 164.83,-508 164.83,-508 164.83,-539 164.83,-539 164.83,-545 158.83,-551 152.83,-551 152.83,-551 86.33,-551 86.33,-551 80.33,-551 74.33,-545 74.33,-539 74.33,-539 74.33,-508 74.33,-508 74.33,-502 80.33,-496 86.33,-496"/>
<text text-anchor="middle" x="119.58" y="-538.45" font-family="Helvetica,sans-Serif" font-weight="bold" font-size="9.00">stores</text>
</g>
<g id="clust6" class="cluster">
<title>cluster_src/domain</title>
<path fill="#ffffff" stroke="black" stroke-width="2" d="M809.58,-355C809.58,-355 872.58,-355 872.58,-355 878.58,-355 884.58,-361 884.58,-367 884.58,-367 884.58,-622 884.58,-622 884.58,-628 878.58,-634 872.58,-634 872.58,-634 809.58,-634 809.58,-634 803.58,-634 797.58,-628 797.58,-622 797.58,-622 797.58,-367 797.58,-367 797.58,-361 803.58,-355 809.58,-355"/>
<text text-anchor="middle" x="841.08" y="-621.45" font-family="Helvetica,sans-Serif" font-weight="bold" font-size="9.00">domain</text>
</g>
<g id="clust7" class="cluster">
<title>cluster_src/domain/constants</title>
<path fill="#ffffff" stroke="black" stroke-width="2" d="M817.58,-363C817.58,-363 863.58,-363 863.58,-363 869.58,-363 875.58,-369 875.58,-375 875.58,-375 875.58,-406 875.58,-406 875.58,-412 869.58,-418 863.58,-418 863.58,-418 817.58,-418 817.58,-418 811.58,-418 805.58,-412 805.58,-406 805.58,-406 805.58,-375 805.58,-375 805.58,-369 811.58,-363 817.58,-363"/>
<text text-anchor="middle" x="840.58" y="-405.45" font-family="Helvetica,sans-Serif" font-weight="bold" font-size="9.00">constants</text>
</g>
<g id="clust9" class="cluster">
<title>cluster_src/domain/repositories</title>
<path fill="#ffffff" stroke="black" stroke-width="2" d="M817.58,-426C817.58,-426 863.58,-426 863.58,-426 869.58,-426 875.58,-432 875.58,-438 875.58,-438 875.58,-469 875.58,-469 875.58,-475 869.58,-481 863.58,-481 863.58,-481 817.58,-481 817.58,-481 811.58,-481 805.58,-475 805.58,-469 805.58,-469 805.58,-438 805.58,-438 805.58,-432 811.58,-426 817.58,-426"/>
<text text-anchor="middle" x="840.58" y="-468.45" font-family="Helvetica,sans-Serif" font-weight="bold" font-size="9.00">repositories</text>
</g>
<g id="clust10" class="cluster">
<title>cluster_src/domain/valueObjects</title>
<path fill="#ffffff" stroke="black" stroke-width="2" d="M817.58,-489C817.58,-489 864.58,-489 864.58,-489 870.58,-489 876.58,-495 876.58,-501 876.58,-501 876.58,-532 876.58,-532 876.58,-538 870.58,-544 864.58,-544 864.58,-544 817.58,-544 817.58,-544 811.58,-544 805.58,-538 805.58,-532 805.58,-532 805.58,-501 805.58,-501 805.58,-495 811.58,-489 817.58,-489"/>
<text text-anchor="middle" x="841.08" y="-531.45" font-family="Helvetica,sans-Serif" font-weight="bold" font-size="9.00">valueObjects</text>
</g>
<g id="clust8" class="cluster">
<title>cluster_src/domain/entities</title>
<path fill="#ffffff" stroke="black" stroke-width="2" d="M817.58,-552C817.58,-552 863.58,-552 863.58,-552 869.58,-552 875.58,-558 875.58,-564 875.58,-564 875.58,-595 875.58,-595 875.58,-601 869.58,-607 863.58,-607 863.58,-607 817.58,-607 817.58,-607 811.58,-607 805.58,-601 805.58,-595 805.58,-595 805.58,-564 805.58,-564 805.58,-558 811.58,-552 817.58,-552"/>
<text text-anchor="middle" x="840.58" y="-594.45" font-family="Helvetica,sans-Serif" font-weight="bold" font-size="9.00">entities</text>
</g>
<g id="clust11" class="cluster">
<title>cluster_src/infrastructure</title>
<path fill="#ffffff" stroke="black" stroke-width="2" d="M32.58,-149C32.58,-149 901.33,-149 901.33,-149 907.33,-149 913.33,-155 913.33,-161 913.33,-161 913.33,-335 913.33,-335 913.33,-341 907.33,-347 901.33,-347 901.33,-347 32.58,-347 32.58,-347 26.58,-347 20.58,-341 20.58,-335 20.58,-335 20.58,-161 20.58,-161 20.58,-155 26.58,-149 32.58,-149"/>
<text text-anchor="middle" x="466.95" y="-334.45" font-family="Helvetica,sans-Serif" font-weight="bold" font-size="9.00">infrastructure</text>
</g>
<g id="clust12" class="cluster">
<title>cluster_src/infrastructure/adapters</title>
<path fill="#ffffff" stroke="black" stroke-width="2" d="M40.58,-203C40.58,-203 198.58,-203 198.58,-203 204.58,-203 210.58,-209 210.58,-215 210.58,-215 210.58,-308 210.58,-308 210.58,-314 204.58,-320 198.58,-320 198.58,-320 40.58,-320 40.58,-320 34.58,-320 28.58,-314 28.58,-308 28.58,-308 28.58,-215 28.58,-215 28.58,-209 34.58,-203 40.58,-203"/>
<text text-anchor="middle" x="119.58" y="-307.45" font-family="Helvetica,sans-Serif" font-weight="bold" font-size="9.00">adapters</text>
</g>
<g id="clust14" class="cluster">
<title>cluster_src/infrastructure/repository</title>
<path fill="#ffffff" stroke="black" stroke-width="2" d="M555.45,-234C555.45,-234 755.83,-234 755.83,-234 761.83,-234 767.83,-240 767.83,-246 767.83,-246 767.83,-308 767.83,-308 767.83,-314 761.83,-320 755.83,-320 755.83,-320 555.45,-320 555.45,-320 549.45,-320 543.45,-314 543.45,-308 543.45,-308 543.45,-246 543.45,-246 543.45,-240 549.45,-234 555.45,-234"/>
<text text-anchor="middle" x="655.64" y="-307.45" font-family="Helvetica,sans-Serif" font-weight="bold" font-size="9.00">repository</text>
</g>
<g id="clust13" class="cluster">
<title>cluster_src/infrastructure/database</title>
<path fill="#ffffff" stroke="black" stroke-width="2" d="M787.83,-249C787.83,-249 893.33,-249 893.33,-249 899.33,-249 905.33,-255 905.33,-261 905.33,-261 905.33,-292 905.33,-292 905.33,-298 899.33,-304 893.33,-304 893.33,-304 787.83,-304 787.83,-304 781.83,-304 775.83,-298 775.83,-292 775.83,-292 775.83,-261 775.83,-261 775.83,-255 781.83,-249 787.83,-249"/>
<text text-anchor="middle" x="840.58" y="-291.45" font-family="Helvetica,sans-Serif" font-weight="bold" font-size="9.00">database</text>
</g>
<g id="clust16" class="cluster">
<title>cluster_src/infrastructure/video</title>
<path fill="#ffffff" stroke="black" stroke-width="2" d="M271.95,-157C271.95,-157 632.33,-157 632.33,-157 638.33,-157 644.33,-163 644.33,-169 644.33,-169 644.33,-214 644.33,-214 644.33,-220 638.33,-226 632.33,-226 632.33,-226 271.95,-226 271.95,-226 265.95,-226 259.95,-220 259.95,-214 259.95,-214 259.95,-169 259.95,-169 259.95,-163 265.95,-157 271.95,-157"/>
<text text-anchor="middle" x="452.14" y="-213.45" font-family="Helvetica,sans-Serif" font-weight="bold" font-size="9.00">video</text>
</g>
<g id="clust15" class="cluster">
<title>cluster_src/infrastructure/services</title>
<path fill="#ffffff" stroke="black" stroke-width="2" d="M271.95,-265C271.95,-265 500.58,-265 500.58,-265 506.58,-265 512.58,-271 512.58,-277 512.58,-277 512.58,-308 512.58,-308 512.58,-314 506.58,-320 500.58,-320 500.58,-320 271.95,-320 271.95,-320 265.95,-320 259.95,-314 259.95,-308 259.95,-308 259.95,-277 259.95,-277 259.95,-271 265.95,-265 271.95,-265"/>
<text text-anchor="middle" x="386.26" y="-307.45" font-family="Helvetica,sans-Serif" font-weight="bold" font-size="9.00">services</text>
</g>
<g id="clust17" class="cluster">
<title>cluster_src/presentation</title>
<path fill="#ffffff" stroke="black" stroke-width="2" d="M54.58,-16C54.58,-16 184.58,-16 184.58,-16 190.58,-16 196.58,-22 196.58,-28 196.58,-28 196.58,-129 196.58,-129 196.58,-135 190.58,-141 184.58,-141 184.58,-141 54.58,-141 54.58,-141 48.58,-141 42.58,-135 42.58,-129 42.58,-129 42.58,-28 42.58,-28 42.58,-22 48.58,-16 54.58,-16"/>
<text text-anchor="middle" x="119.58" y="-128.45" font-family="Helvetica,sans-Serif" font-weight="bold" font-size="9.00">presentation</text>
</g>
<g id="clust18" class="cluster">
<title>cluster_src/presentation/components</title>
<path fill="#ffffff" stroke="black" stroke-width="2" d="M62.58,-24C62.58,-24 176.58,-24 176.58,-24 182.58,-24 188.58,-30 188.58,-36 188.58,-36 188.58,-102 188.58,-102 188.58,-108 182.58,-114 176.58,-114 176.58,-114 62.58,-114 62.58,-114 56.58,-114 50.58,-108 50.58,-102 50.58,-102 50.58,-36 50.58,-36 50.58,-30 56.58,-24 62.58,-24"/>
<text text-anchor="middle" x="119.58" y="-101.45" font-family="Helvetica,sans-Serif" font-weight="bold" font-size="9.00">components</text>
</g>
<g id="clust19" class="cluster">
<title>cluster_src/presentation/components/utils</title>
<path fill="#ffffff" stroke="black" stroke-width="2" d="M70.58,-32C70.58,-32 168.58,-32 168.58,-32 174.58,-32 180.58,-38 180.58,-44 180.58,-44 180.58,-75 180.58,-75 180.58,-81 174.58,-87 168.58,-87 168.58,-87 70.58,-87 70.58,-87 64.58,-87 58.58,-81 58.58,-75 58.58,-75 58.58,-44 58.58,-44 58.58,-38 64.58,-32 70.58,-32"/>
<text text-anchor="middle" x="119.58" y="-74.45" font-family="Helvetica,sans-Serif" font-weight="bold" font-size="9.00">utils</text>
</g>
<!-- src/application/ports/IVideoParser.ts -->
<g id="node1" class="node">
<title>src/application/ports/IVideoParser.ts</title>
<g id="a_node1"><a xlink:href="src/application/ports/IVideoParser.ts" xlink:title="IVideoParser.ts">
<path fill="#ddfeff" stroke="black" d="M328.03,-491.62C328.03,-491.62 261.87,-491.62 261.87,-491.62 258.66,-491.62 255.45,-488.42 255.45,-485.21 255.45,-485.21 255.45,-478.79 255.45,-478.79 255.45,-475.58 258.66,-472.38 261.87,-472.38 261.87,-472.38 328.03,-472.38 328.03,-472.38 331.24,-472.38 334.45,-475.58 334.45,-478.79 334.45,-478.79 334.45,-485.21 334.45,-485.21 334.45,-488.42 331.24,-491.62 328.03,-491.62"/>
<text text-anchor="start" x="263.45" y="-479.07" font-family="Helvetica,sans-Serif" font-size="9.00">IVideoParser.ts</text>
</a>
</g>
</g>
<!-- src/domain/entities/index.ts -->
<g id="node2" class="node">
<title>src/domain/entities/index.ts</title>
<g id="a_node2"><a xlink:href="src/domain/entities/index.ts" xlink:title="index.ts">
<path fill="#ddfeff" stroke="black" d="M861.16,-579.62C861.16,-579.62 819.99,-579.62 819.99,-579.62 816.78,-579.62 813.58,-576.42 813.58,-573.21 813.58,-573.21 813.58,-566.79 813.58,-566.79 813.58,-563.58 816.78,-560.38 819.99,-560.38 819.99,-560.38 861.16,-560.38 861.16,-560.38 864.37,-560.38 867.58,-563.58 867.58,-566.79 867.58,-566.79 867.58,-573.21 867.58,-573.21 867.58,-576.42 864.37,-579.62 861.16,-579.62"/>
<text text-anchor="start" x="824.83" y="-567.08" font-family="Helvetica,sans-Serif" font-size="9.00">index.ts</text>
</a>
</g>
</g>
<!-- src/application/ports/IVideoParser.ts&#45;&gt;src/domain/entities/index.ts -->
<g id="edge1" class="edge">
<title>src/application/ports/IVideoParser.ts&#45;&gt;src/domain/entities/index.ts</title>
<path fill="none" stroke="#000000" stroke-opacity="0.200000" d="M334.68,-477.1C419.28,-468.31 624.45,-457.54 767.83,-537 772.8,-539.76 771.2,-543.69 775.83,-547 784.84,-553.45 795.86,-558.27 806.19,-561.79"/>
<polygon fill="none" stroke="#000000" stroke-opacity="0.200000" points="805.39,-563.74 811.75,-563.56 806.67,-559.74 805.39,-563.74"/>
</g>
<!-- src/application/ports/IVideoStorage.ts -->
<g id="node3" class="node">
<title>src/application/ports/IVideoStorage.ts</title>
<g id="a_node3"><a xlink:href="src/application/ports/IVideoStorage.ts" xlink:title="IVideoStorage.ts">
<path fill="#ddfeff" stroke="black" d="M330.28,-522.62C330.28,-522.62 259.62,-522.62 259.62,-522.62 256.41,-522.62 253.2,-519.42 253.2,-516.21 253.2,-516.21 253.2,-509.79 253.2,-509.79 253.2,-506.58 256.41,-503.38 259.62,-503.38 259.62,-503.38 330.28,-503.38 330.28,-503.38 333.49,-503.38 336.7,-506.58 336.7,-509.79 336.7,-509.79 336.7,-516.21 336.7,-516.21 336.7,-519.42 333.49,-522.62 330.28,-522.62"/>
<text text-anchor="start" x="261.2" y="-510.07" font-family="Helvetica,sans-Serif" font-size="9.00">IVideoStorage.ts</text>
</a>
</g>
</g>
<!-- src/application/ports/IVideoStorage.ts&#45;&gt;src/domain/entities/index.ts -->
<g id="edge2" class="edge">
<title>src/application/ports/IVideoStorage.ts&#45;&gt;src/domain/entities/index.ts</title>
<path fill="none" stroke="#000000" stroke-opacity="0.200000" d="M337.17,-515.04C419.41,-519.47 609.59,-531.5 767.83,-555 780.33,-556.86 793.94,-559.53 805.91,-562.11"/>
<polygon fill="none" stroke="#000000" stroke-opacity="0.200000" points="805.34,-564.14 811.65,-563.37 806.24,-560.03 805.34,-564.14"/>
</g>
<!-- src/application/ports/IVideoThumbnailGenerator.ts -->
<g id="node4" class="node">
<title>src/application/ports/IVideoThumbnailGenerator.ts</title>
<g id="a_node4"><a xlink:href="src/application/ports/IVideoThumbnailGenerator.ts" xlink:title="IVideoThumbnailGenerator.ts">
<path fill="#ddfeff" stroke="black" d="M356.91,-460.62C356.91,-460.62 232.99,-460.62 232.99,-460.62 229.78,-460.62 226.58,-457.42 226.58,-454.21 226.58,-454.21 226.58,-447.79 226.58,-447.79 226.58,-444.58 229.78,-441.38 232.99,-441.38 232.99,-441.38 356.91,-441.38 356.91,-441.38 360.12,-441.38 363.33,-444.58 363.33,-447.79 363.33,-447.79 363.33,-454.21 363.33,-454.21 363.33,-457.42 360.12,-460.62 356.91,-460.62"/>
<text text-anchor="start" x="234.58" y="-448.07" font-family="Helvetica,sans-Serif" font-size="9.00">IVideoThumbnailGenerator.ts</text>
</a>
</g>
</g>
<!-- src/application/services/FileParserService.ts -->
<g id="node5" class="node">
<title>src/application/services/FileParserService.ts</title>
<g id="a_node5"><a xlink:href="src/application/services/FileParserService.ts" xlink:title="FileParserService.ts">
<path fill="#ddfeff" stroke="black" d="M162.41,-460.62C162.41,-460.62 76.74,-460.62 76.74,-460.62 73.53,-460.62 70.33,-457.42 70.33,-454.21 70.33,-454.21 70.33,-447.79 70.33,-447.79 70.33,-444.58 73.53,-441.38 76.74,-441.38 76.74,-441.38 162.41,-441.38 162.41,-441.38 165.62,-441.38 168.83,-444.58 168.83,-447.79 168.83,-447.79 168.83,-454.21 168.83,-454.21 168.83,-457.42 165.62,-460.62 162.41,-460.62"/>
<text text-anchor="start" x="78.33" y="-448.07" font-family="Helvetica,sans-Serif" font-size="9.00">FileParserService.ts</text>
</a>
</g>
</g>
<!-- src/application/services/FileParserService.ts&#45;&gt;src/application/ports/IVideoParser.ts -->
<g id="edge3" class="edge">
<title>src/application/services/FileParserService.ts&#45;&gt;src/application/ports/IVideoParser.ts</title>
<path fill="none" stroke="#000000" stroke-opacity="0.200000" d="M168.87,-459.64C193.57,-464.05 223.48,-469.4 247.85,-473.76"/>
<polygon fill="none" stroke="#000000" stroke-opacity="0.200000" points="247.46,-475.82 253.74,-474.81 248.2,-471.69 247.46,-475.82"/>
</g>
<!-- src/application/services/FileParserService.ts&#45;&gt;src/domain/entities/index.ts -->
<g id="edge4" class="edge">
<title>src/application/services/FileParserService.ts&#45;&gt;src/domain/entities/index.ts</title>
<path fill="none" stroke="#000000" stroke-opacity="0.200000" d="M162.65,-460.97C180.16,-467.27 199.04,-477.29 210.58,-493 226.5,-514.68 198.57,-535.01 218.58,-553 237.29,-569.82 419.79,-559 444.95,-559 444.95,-559 444.95,-559 579.45,-559 660.92,-559 756.62,-564.45 806.13,-567.68"/>
<polygon fill="none" stroke="#000000" stroke-opacity="0.200000" points="805.74,-569.76 811.87,-568.06 806.02,-565.57 805.74,-569.76"/>
</g>
<!-- src/infrastructure/services/index.ts -->
<g id="node6" class="node">
<title>src/infrastructure/services/index.ts</title>
<g id="a_node6"><a xlink:href="src/infrastructure/services/index.ts" xlink:title="index.ts">
<path fill="#ddfeff" stroke="black" d="M315.53,-292.62C315.53,-292.62 274.37,-292.62 274.37,-292.62 271.16,-292.62 267.95,-289.42 267.95,-286.21 267.95,-286.21 267.95,-279.79 267.95,-279.79 267.95,-276.58 271.16,-273.38 274.37,-273.38 274.37,-273.38 315.53,-273.38 315.53,-273.38 318.74,-273.38 321.95,-276.58 321.95,-279.79 321.95,-279.79 321.95,-286.21 321.95,-286.21 321.95,-289.42 318.74,-292.62 315.53,-292.62"/>
<text text-anchor="start" x="279.2" y="-280.07" font-family="Helvetica,sans-Serif" font-size="9.00">index.ts</text>
</a>
</g>
</g>
<!-- src/application/services/FileParserService.ts&#45;&gt;src/infrastructure/services/index.ts -->
<g id="edge5" class="edge">
<title>src/application/services/FileParserService.ts&#45;&gt;src/infrastructure/services/index.ts</title>
<path fill="none" stroke="#000000" stroke-width="2" stroke-opacity="0.200000" d="M130.9,-440.99C159.88,-412.91 242.14,-333.2 277.48,-298.96"/>
<polygon fill="#000000" fill-opacity="0.200000" stroke="#000000" stroke-width="2" stroke-opacity="0.200000" points="278.87,-300.53 281.72,-294.85 275.95,-297.52 278.87,-300.53"/>
</g>
<!-- src/infrastructure/video/index.ts -->
<g id="node7" class="node">
<title>src/infrastructure/video/index.ts</title>
<g id="a_node7"><a xlink:href="src/infrastructure/video/index.ts" xlink:title="index.ts">
<path fill="#ddfeff" stroke="black" d="M315.53,-198.62C315.53,-198.62 274.37,-198.62 274.37,-198.62 271.16,-198.62 267.95,-195.42 267.95,-192.21 267.95,-192.21 267.95,-185.79 267.95,-185.79 267.95,-182.58 271.16,-179.38 274.37,-179.38 274.37,-179.38 315.53,-179.38 315.53,-179.38 318.74,-179.38 321.95,-182.58 321.95,-185.79 321.95,-185.79 321.95,-192.21 321.95,-192.21 321.95,-195.42 318.74,-198.62 315.53,-198.62"/>
<text text-anchor="start" x="279.2" y="-186.07" font-family="Helvetica,sans-Serif" font-size="9.00">index.ts</text>
</a>
</g>
</g>
<!-- src/application/services/FileParserService.ts&#45;&gt;src/infrastructure/video/index.ts -->
<g id="edge6" class="edge">
<title>src/application/services/FileParserService.ts&#45;&gt;src/infrastructure/video/index.ts</title>
<path fill="none" stroke="#000000" stroke-width="2" stroke-opacity="0.200000" d="M130.19,-441.07C149.19,-420.79 191.34,-372.36 210.58,-323 220.5,-297.52 206.29,-286.43 218.58,-262 230.68,-237.93 253.95,-217.31 271.45,-204.19"/>
<polygon fill="#000000" fill-opacity="0.200000" stroke="#000000" stroke-width="2" stroke-opacity="0.200000" points="272.47,-206.04 276.09,-200.81 270.01,-202.64 272.47,-206.04"/>
</g>
<!-- src/infrastructure/services/VideoMetadataFacade.ts -->
<g id="node19" class="node">
<title>src/infrastructure/services/VideoMetadataFacade.ts</title>
<g id="a_node19"><a xlink:href="src/infrastructure/services/VideoMetadataFacade.ts" xlink:title="VideoMetadataFacade.ts">
<path fill="#ddfeff" stroke="black" d="M498.16,-292.62C498.16,-292.62 393.74,-292.62 393.74,-292.62 390.53,-292.62 387.33,-289.42 387.33,-286.21 387.33,-286.21 387.33,-279.79 387.33,-279.79 387.33,-276.58 390.53,-273.38 393.74,-273.38 393.74,-273.38 498.16,-273.38 498.16,-273.38 501.37,-273.38 504.58,-276.58 504.58,-279.79 504.58,-279.79 504.58,-286.21 504.58,-286.21 504.58,-289.42 501.37,-292.62 498.16,-292.62"/>
<text text-anchor="start" x="395.33" y="-280.07" font-family="Helvetica,sans-Serif" font-size="9.00">VideoMetadataFacade.ts</text>
</a>
</g>
</g>
<!-- src/infrastructure/services/index.ts&#45;&gt;src/infrastructure/services/VideoMetadataFacade.ts -->
<g id="edge35" class="edge">
<title>src/infrastructure/services/index.ts&#45;&gt;src/infrastructure/services/VideoMetadataFacade.ts</title>
<path fill="none" stroke="#000000" stroke-width="2" stroke-opacity="0.200000" d="M322.25,-283C340.21,-283 364.72,-283 387.12,-283"/>
<polygon fill="#000000" fill-opacity="0.200000" stroke="#000000" stroke-width="2" stroke-opacity="0.200000" points="389.92,-281.61 393.82,-289.71 385.72,-285.81 389.92,-281.61"/>
</g>
<!-- src/infrastructure/video/HTMLVideoProcessor.ts -->
<g id="node20" class="node">
<title>src/infrastructure/video/HTMLVideoProcessor.ts</title>
<g id="a_node20"><a xlink:href="src/infrastructure/video/HTMLVideoProcessor.ts" xlink:title="HTMLVideoProcessor.ts">
<path fill="#ddfeff" stroke="black" d="M629.91,-191.62C629.91,-191.62 526.99,-191.62 526.99,-191.62 523.78,-191.62 520.58,-188.42 520.58,-185.21 520.58,-185.21 520.58,-178.79 520.58,-178.79 520.58,-175.58 523.78,-172.38 526.99,-172.38 526.99,-172.38 629.91,-172.38 629.91,-172.38 633.12,-172.38 636.33,-175.58 636.33,-178.79 636.33,-178.79 636.33,-185.21 636.33,-185.21 636.33,-188.42 633.12,-191.62 629.91,-191.62"/>
<text text-anchor="start" x="528.58" y="-179.07" font-family="Helvetica,sans-Serif" font-size="9.00">HTMLVideoProcessor.ts</text>
</a>
</g>
</g>
<!-- src/infrastructure/video/index.ts&#45;&gt;src/infrastructure/video/HTMLVideoProcessor.ts -->
<g id="edge39" class="edge">
<title>src/infrastructure/video/index.ts&#45;&gt;src/infrastructure/video/HTMLVideoProcessor.ts</title>
<path fill="none" stroke="#000000" stroke-width="2" stroke-opacity="0.200000" d="M322.18,-183.16C340.36,-179.42 365.18,-174.92 387.33,-173 442.78,-168.18 457.04,-169.17 520.19,-173.62"/>
<polygon fill="#000000" fill-opacity="0.200000" stroke="#000000" stroke-width="2" stroke-opacity="0.200000" points="522.99,-172.23 526.89,-180.33 518.79,-176.43 522.99,-172.23"/>
</g>
<!-- src/infrastructure/video/VideoFileParser.ts -->
<g id="node21" class="node">
<title>src/infrastructure/video/VideoFileParser.ts</title>
<g id="a_node21"><a xlink:href="src/infrastructure/video/VideoFileParser.ts" xlink:title="VideoFileParser.ts">
<path fill="#ddfeff" stroke="black" d="M485.41,-198.62C485.41,-198.62 406.49,-198.62 406.49,-198.62 403.28,-198.62 400.08,-195.42 400.08,-192.21 400.08,-192.21 400.08,-185.79 400.08,-185.79 400.08,-182.58 403.28,-179.38 406.49,-179.38 406.49,-179.38 485.41,-179.38 485.41,-179.38 488.62,-179.38 491.83,-182.58 491.83,-185.79 491.83,-185.79 491.83,-192.21 491.83,-192.21 491.83,-195.42 488.62,-198.62 485.41,-198.62"/>
<text text-anchor="start" x="408.08" y="-186.07" font-family="Helvetica,sans-Serif" font-size="9.00">VideoFileParser.ts</text>
</a>
</g>
</g>
<!-- src/infrastructure/video/index.ts&#45;&gt;src/infrastructure/video/VideoFileParser.ts -->
<g id="edge40" class="edge">
<title>src/infrastructure/video/index.ts&#45;&gt;src/infrastructure/video/VideoFileParser.ts</title>
<path fill="none" stroke="#000000" stroke-width="2" stroke-opacity="0.200000" d="M322.25,-189C343.63,-189 374.31,-189 399.64,-189"/>
<polygon fill="#000000" fill-opacity="0.200000" stroke="#000000" stroke-width="2" stroke-opacity="0.200000" points="402.45,-187.61 406.35,-195.71 398.25,-191.81 402.45,-187.61"/>
</g>
<!-- src/application/stores/videosStore.ts -->
<g id="node8" class="node">
<title>src/application/stores/videosStore.ts</title>
<g id="a_node8"><a xlink:href="src/application/stores/videosStore.ts" xlink:title="videosStore.ts">
<path fill="#ddfeff" stroke="black" d="M150.41,-523.62C150.41,-523.62 88.74,-523.62 88.74,-523.62 85.53,-523.62 82.33,-520.42 82.33,-517.21 82.33,-517.21 82.33,-510.79 82.33,-510.79 82.33,-507.58 85.53,-504.38 88.74,-504.38 88.74,-504.38 150.41,-504.38 150.41,-504.38 153.62,-504.38 156.83,-507.58 156.83,-510.79 156.83,-510.79 156.83,-517.21 156.83,-517.21 156.83,-520.42 153.62,-523.62 150.41,-523.62"/>
<text text-anchor="start" x="90.33" y="-511.07" font-family="Helvetica,sans-Serif" font-size="9.00">videosStore.ts</text>
</a>
</g>
</g>
<!-- src/application/stores/videosStore.ts&#45;&gt;src/domain/entities/index.ts -->
<g id="edge9" class="edge">
<title>src/application/stores/videosStore.ts&#45;&gt;src/domain/entities/index.ts</title>
<path fill="none" stroke="#000000" stroke-opacity="0.200000" d="M135.73,-524.12C154.33,-535.93 187.27,-554.88 218.58,-563 316.06,-588.3 344.24,-573 444.95,-573 444.95,-573 444.95,-573 579.45,-573 660.86,-573 756.58,-571.51 806.11,-570.63"/>
<polygon fill="none" stroke="#000000" stroke-opacity="0.200000" points="805.89,-572.74 811.85,-570.53 805.81,-568.54 805.89,-572.74"/>
</g>
<!-- src/application/stores/videosStore.ts&#45;&gt;src/application/ports/IVideoStorage.ts -->
<g id="edge8" class="edge">
<title>src/application/stores/videosStore.ts&#45;&gt;src/application/ports/IVideoStorage.ts</title>
<path fill="none" stroke="#000000" stroke-opacity="0.200000" d="M156.92,-513.79C182.62,-513.64 217.37,-513.44 245.44,-513.28"/>
<polygon fill="none" stroke="#000000" stroke-opacity="0.200000" points="245.29,-515.38 251.28,-513.25 245.26,-511.18 245.29,-515.38"/>
</g>
<!-- src/infrastructure/adapters/VideoParserAdapter.ts -->
<g id="node9" class="node">
<title>src/infrastructure/adapters/VideoParserAdapter.ts</title>
<g id="a_node9"><a xlink:href="src/infrastructure/adapters/VideoParserAdapter.ts" xlink:title="VideoParserAdapter.ts">
<path fill="#ddfeff" stroke="black" d="M167.28,-261.62C167.28,-261.62 71.87,-261.62 71.87,-261.62 68.66,-261.62 65.45,-258.42 65.45,-255.21 65.45,-255.21 65.45,-248.79 65.45,-248.79 65.45,-245.58 68.66,-242.38 71.87,-242.38 71.87,-242.38 167.28,-242.38 167.28,-242.38 170.49,-242.38 173.7,-245.58 173.7,-248.79 173.7,-248.79 173.7,-255.21 173.7,-255.21 173.7,-258.42 170.49,-261.62 167.28,-261.62"/>
<text text-anchor="start" x="73.45" y="-249.07" font-family="Helvetica,sans-Serif" font-size="9.00">VideoParserAdapter.ts</text>
</a>
</g>
</g>
<!-- src/application/stores/videosStore.ts&#45;&gt;src/infrastructure/adapters/VideoParserAdapter.ts -->
<g id="edge7" class="edge">
<title>src/application/stores/videosStore.ts&#45;&gt;src/infrastructure/adapters/VideoParserAdapter.ts</title>
<path fill="none" stroke="#000000" stroke-width="2" stroke-opacity="0.200000" d="M81.89,-517.6C53.71,-517.88 18.07,-512.39 6.08,-485 1.35,-474.21 1.35,-283.79 6.08,-273 14.48,-253.8 34.96,-246.78 56.25,-245.2"/>
<polygon fill="#000000" fill-opacity="0.200000" stroke="#000000" stroke-width="2" stroke-opacity="0.200000" points="56.13,-247.31 62.04,-244.96 55.96,-243.11 56.13,-247.31"/>
</g>
<!-- src/infrastructure/adapters/VideoStorageAdapter.ts -->
<g id="node10" class="node">
<title>src/infrastructure/adapters/VideoStorageAdapter.ts</title>
<g id="a_node10"><a xlink:href="src/infrastructure/adapters/VideoStorageAdapter.ts" xlink:title="VideoStorageAdapter.ts">
<path fill="#ddfeff" stroke="black" d="M169.53,-292.62C169.53,-292.62 69.62,-292.62 69.62,-292.62 66.41,-292.62 63.2,-289.42 63.2,-286.21 63.2,-286.21 63.2,-279.79 63.2,-279.79 63.2,-276.58 66.41,-273.38 69.62,-273.38 69.62,-273.38 169.53,-273.38 169.53,-273.38 172.74,-273.38 175.95,-276.58 175.95,-279.79 175.95,-279.79 175.95,-286.21 175.95,-286.21 175.95,-289.42 172.74,-292.62 169.53,-292.62"/>
<text text-anchor="start" x="71.2" y="-280.07" font-family="Helvetica,sans-Serif" font-size="9.00">VideoStorageAdapter.ts</text>
</a>
</g>
</g>
<!-- src/application/stores/videosStore.ts&#45;&gt;src/infrastructure/adapters/VideoStorageAdapter.ts -->
<g id="edge10" class="edge">
<title>src/application/stores/videosStore.ts&#45;&gt;src/infrastructure/adapters/VideoStorageAdapter.ts</title>
<path fill="none" stroke="#000000" stroke-width="2" stroke-opacity="0.200000" d="M81.89,-517.6C53.71,-517.88 18.07,-512.39 6.08,-485 -2.66,-465.05 -0.76,-456.68 6.08,-436 25.11,-378.39 75.15,-324.78 101.98,-299.02"/>
<polygon fill="#000000" fill-opacity="0.200000" stroke="#000000" stroke-width="2" stroke-opacity="0.200000" points="103.15,-300.81 106.07,-295.16 100.26,-297.75 103.15,-300.81"/>
</g>
<!-- src/infrastructure/adapters/VideoThumbnailGeneratorAdapter.ts -->
<g id="node11" class="node">
<title>src/infrastructure/adapters/VideoThumbnailGeneratorAdapter.ts</title>
<g id="a_node11"><a xlink:href="src/infrastructure/adapters/VideoThumbnailGeneratorAdapter.ts" xlink:title="VideoThumbnailGeneratorAdapter.ts">
<path fill="#ddfeff" stroke="black" d="M196.16,-230.62C196.16,-230.62 42.99,-230.62 42.99,-230.62 39.78,-230.62 36.58,-227.42 36.58,-224.21 36.58,-224.21 36.58,-217.79 36.58,-217.79 36.58,-214.58 39.78,-211.38 42.99,-211.38 42.99,-211.38 196.16,-211.38 196.16,-211.38 199.37,-211.38 202.58,-214.58 202.58,-217.79 202.58,-217.79 202.58,-224.21 202.58,-224.21 202.58,-227.42 199.37,-230.62 196.16,-230.62"/>
<text text-anchor="start" x="44.58" y="-218.07" font-family="Helvetica,sans-Serif" font-size="9.00">VideoThumbnailGeneratorAdapter.ts</text>
</a>
</g>
</g>
<!-- src/application/stores/videosStore.ts&#45;&gt;src/infrastructure/adapters/VideoThumbnailGeneratorAdapter.ts -->
<g id="edge11" class="edge">
<title>src/application/stores/videosStore.ts&#45;&gt;src/infrastructure/adapters/VideoThumbnailGeneratorAdapter.ts</title>
<path fill="none" stroke="#000000" stroke-width="2" stroke-opacity="0.200000" d="M81.89,-517.6C53.71,-517.88 18.07,-512.39 6.08,-485 0.66,-472.63 0.66,-254.37 6.08,-242 10.5,-231.89 18.28,-225.16 27.76,-220.82"/>
<polygon fill="#000000" fill-opacity="0.200000" stroke="#000000" stroke-width="2" stroke-opacity="0.200000" points="28.36,-222.83 33.25,-218.77 26.89,-218.9 28.36,-222.83"/>
</g>
<!-- src/infrastructure/adapters/VideoParserAdapter.ts&#45;&gt;src/application/ports/IVideoParser.ts -->
<g id="edge12" class="edge">
<title>src/infrastructure/adapters/VideoParserAdapter.ts&#45;&gt;src/application/ports/IVideoParser.ts</title>
<path fill="none" stroke="#000000" stroke-opacity="0.200000" d="M174.07,-249.39C187.84,-251.51 201.35,-256.55 210.58,-267 225.29,-283.68 204.13,-450.09 218.58,-467 225.97,-475.65 236.81,-480.2 247.97,-482.43"/>
<polygon fill="none" stroke="#000000" stroke-opacity="0.200000" points="247.57,-484.49 253.83,-483.34 248.22,-480.34 247.57,-484.49"/>
</g>
<!-- src/infrastructure/adapters/VideoParserAdapter.ts&#45;&gt;src/domain/entities/index.ts -->
<g id="edge13" class="edge">
<title>src/infrastructure/adapters/VideoParserAdapter.ts&#45;&gt;src/domain/entities/index.ts</title>
<path fill="none" stroke="#000000" stroke-opacity="0.200000" d="M173.87,-250.09C187.47,-252.25 200.94,-257.14 210.58,-267 228.15,-284.98 201.81,-304.26 218.58,-323 302.63,-416.96 685.89,-369.19 767.83,-465 779.73,-478.91 764.59,-532.55 775.83,-547 783.24,-556.54 794.97,-562.13 806.35,-565.4"/>
<polygon fill="none" stroke="#000000" stroke-opacity="0.200000" points="805.55,-567.36 811.88,-566.78 806.57,-563.29 805.55,-567.36"/>
</g>
<!-- src/infrastructure/adapters/VideoParserAdapter.ts&#45;&gt;src/infrastructure/services/index.ts -->
<g id="edge14" class="edge">
<title>src/infrastructure/adapters/VideoParserAdapter.ts&#45;&gt;src/infrastructure/services/index.ts</title>
<path fill="none" stroke="#000000" stroke-width="2" stroke-opacity="0.200000" d="M173.91,-260.67C185.98,-262.69 198.73,-264.88 210.58,-267 226.58,-269.87 244.28,-273.24 259.24,-276.14"/>
<polygon fill="#000000" fill-opacity="0.200000" stroke="#000000" stroke-width="2" stroke-opacity="0.200000" points="258.43,-278.12 264.72,-277.21 259.24,-274 258.43,-278.12"/>
</g>
<!-- src/infrastructure/adapters/VideoParserAdapter.ts&#45;&gt;src/infrastructure/video/index.ts -->
<g id="edge15" class="edge">
<title>src/infrastructure/adapters/VideoParserAdapter.ts&#45;&gt;src/infrastructure/video/index.ts</title>
<path fill="none" stroke="#000000" stroke-width="2" stroke-opacity="0.200000" d="M173.73,-246.37C186.04,-244.18 198.94,-241.16 210.58,-237 233.14,-228.92 256.61,-214.82 272.88,-203.98"/>
<polygon fill="#000000" fill-opacity="0.200000" stroke="#000000" stroke-width="2" stroke-opacity="0.200000" points="273.97,-205.78 277.75,-200.67 271.6,-202.3 273.97,-205.78"/>
</g>
<!-- src/infrastructure/adapters/VideoStorageAdapter.ts&#45;&gt;src/domain/entities/index.ts -->
<g id="edge17" class="edge">
<title>src/infrastructure/adapters/VideoStorageAdapter.ts&#45;&gt;src/domain/entities/index.ts</title>
<path fill="none" stroke="#000000" stroke-opacity="0.200000" d="M125.26,-293.07C137.07,-317.19 170.56,-378.31 218.58,-406 281.15,-442.09 307.89,-419.28 379.33,-430 497.12,-447.68 526.64,-451.59 644.33,-470 699.26,-478.59 728.92,-450.27 767.83,-490 785.72,-508.28 759.7,-527.14 775.83,-547 783.31,-556.22 794.8,-561.74 805.97,-565.05"/>
<polygon fill="none" stroke="#000000" stroke-opacity="0.200000" points="805.42,-567.08 811.75,-566.55 806.47,-563.01 805.42,-567.08"/>
</g>
<!-- src/infrastructure/adapters/VideoStorageAdapter.ts&#45;&gt;src/application/ports/IVideoStorage.ts -->
<g id="edge16" class="edge">
<title>src/infrastructure/adapters/VideoStorageAdapter.ts&#45;&gt;src/application/ports/IVideoStorage.ts</title>
<path fill="none" stroke="#000000" stroke-opacity="0.200000" d="M128.8,-292.91C147.08,-315.54 191,-373.44 210.58,-430 215.55,-444.38 208.25,-486.82 218.58,-498 225.71,-505.72 235.6,-510.11 245.86,-512.49"/>
<polygon fill="none" stroke="#000000" stroke-opacity="0.200000" points="245.23,-514.51 251.51,-513.55 246,-510.38 245.23,-514.51"/>
</g>
<!-- src/infrastructure/adapters/VideoStorageAdapter.ts&#45;&gt;src/infrastructure/services/index.ts -->
<g id="edge18" class="edge">
<title>src/infrastructure/adapters/VideoStorageAdapter.ts&#45;&gt;src/infrastructure/services/index.ts</title>
<path fill="none" stroke="#000000" stroke-width="2" stroke-opacity="0.200000" d="M176.39,-283C203.48,-283 235.2,-283 258.86,-283"/>
<polygon fill="#000000" fill-opacity="0.200000" stroke="#000000" stroke-width="2" stroke-opacity="0.200000" points="258.79,-285.1 264.79,-283 258.79,-280.9 258.79,-285.1"/>
</g>
<!-- src/infrastructure/adapters/VideoThumbnailGeneratorAdapter.ts&#45;&gt;src/application/ports/IVideoThumbnailGenerator.ts -->
<g id="edge19" class="edge">
<title>src/infrastructure/adapters/VideoThumbnailGeneratorAdapter.ts&#45;&gt;src/application/ports/IVideoThumbnailGenerator.ts</title>
<path fill="none" stroke="#000000" stroke-opacity="0.200000" d="M202.75,-229.29C205.57,-231.22 208.2,-233.45 210.58,-236 223.79,-250.22 212.62,-304.52 218.58,-323 232.76,-366.97 264,-412.09 281.49,-435.21"/>
<polygon fill="none" stroke="#000000" stroke-opacity="0.200000" points="279.79,-436.45 285.11,-439.93 283.12,-433.89 279.79,-436.45"/>
</g>
<!-- src/infrastructure/adapters/VideoThumbnailGeneratorAdapter.ts&#45;&gt;src/infrastructure/video/index.ts -->
<g id="edge20" class="edge">
<title>src/infrastructure/adapters/VideoThumbnailGeneratorAdapter.ts&#45;&gt;src/infrastructure/video/index.ts</title>
<path fill="none" stroke="#000000" stroke-width="2" stroke-opacity="0.200000" d="M175.43,-210.88C202.7,-205.84 234.85,-199.91 258.78,-195.49"/>
<polygon fill="#000000" fill-opacity="0.200000" stroke="#000000" stroke-width="2" stroke-opacity="0.200000" points="259.03,-197.58 264.55,-194.43 258.27,-193.45 259.03,-197.58"/>
</g>
<!-- src/domain/constants/index.ts -->
<g id="node12" class="node">
<title>src/domain/constants/index.ts</title>
<g id="a_node12"><a xlink:href="src/domain/constants/index.ts" xlink:title="index.ts">
<path fill="#ddfeff" stroke="black" d="M861.16,-390.62C861.16,-390.62 819.99,-390.62 819.99,-390.62 816.78,-390.62 813.58,-387.42 813.58,-384.21 813.58,-384.21 813.58,-377.79 813.58,-377.79 813.58,-374.58 816.78,-371.38 819.99,-371.38 819.99,-371.38 861.16,-371.38 861.16,-371.38 864.37,-371.38 867.58,-374.58 867.58,-377.79 867.58,-377.79 867.58,-384.21 867.58,-384.21 867.58,-387.42 864.37,-390.62 861.16,-390.62"/>
<text text-anchor="start" x="824.83" y="-378.07" font-family="Helvetica,sans-Serif" font-size="9.00">index.ts</text>
</a>
</g>
</g>
<!-- src/domain/repositories/index.ts -->
<g id="node13" class="node">
<title>src/domain/repositories/index.ts</title>
<g id="a_node13"><a xlink:href="src/domain/repositories/index.ts" xlink:title="index.ts">
<path fill="#ddfeff" stroke="black" d="M861.16,-453.62C861.16,-453.62 819.99,-453.62 819.99,-453.62 816.78,-453.62 813.58,-450.42 813.58,-447.21 813.58,-447.21 813.58,-440.79 813.58,-440.79 813.58,-437.58 816.78,-434.38 819.99,-434.38 819.99,-434.38 861.16,-434.38 861.16,-434.38 864.37,-434.38 867.58,-437.58 867.58,-440.79 867.58,-440.79 867.58,-447.21 867.58,-447.21 867.58,-450.42 864.37,-453.62 861.16,-453.62"/>
<text text-anchor="start" x="824.83" y="-441.07" font-family="Helvetica,sans-Serif" font-size="9.00">index.ts</text>
</a>
</g>
</g>
<!-- src/domain/valueObjects/index.ts -->
<g id="node14" class="node">
<title>src/domain/valueObjects/index.ts</title>
<g id="a_node14"><a xlink:href="src/domain/valueObjects/index.ts" xlink:title="index.ts">
<path fill="#ddfeff" stroke="black" d="M861.16,-516.62C861.16,-516.62 819.99,-516.62 819.99,-516.62 816.78,-516.62 813.58,-513.42 813.58,-510.21 813.58,-510.21 813.58,-503.79 813.58,-503.79 813.58,-500.58 816.78,-497.38 819.99,-497.38 819.99,-497.38 861.16,-497.38 861.16,-497.38 864.37,-497.38 867.58,-500.58 867.58,-503.79 867.58,-503.79 867.58,-510.21 867.58,-510.21 867.58,-513.42 864.37,-516.62 861.16,-516.62"/>
<text text-anchor="start" x="824.83" y="-504.07" font-family="Helvetica,sans-Serif" font-size="9.00">index.ts</text>
</a>
</g>
</g>
<!-- src/infrastructure/database/DatabaseConnection.ts -->
<g id="node15" class="node">
<title>src/infrastructure/database/DatabaseConnection.ts</title>
<g id="a_node15"><a xlink:href="src/infrastructure/database/DatabaseConnection.ts" xlink:title="DatabaseConnection.ts">
<path fill="#ddfeff" stroke="black" d="M890.91,-276.62C890.91,-276.62 790.24,-276.62 790.24,-276.62 787.03,-276.62 783.83,-273.42 783.83,-270.21 783.83,-270.21 783.83,-263.79 783.83,-263.79 783.83,-260.58 787.03,-257.38 790.24,-257.38 790.24,-257.38 890.91,-257.38 890.91,-257.38 894.12,-257.38 897.33,-260.58 897.33,-263.79 897.33,-263.79 897.33,-270.21 897.33,-270.21 897.33,-273.42 894.12,-276.62 890.91,-276.62"/>
<text text-anchor="start" x="791.83" y="-264.07" font-family="Helvetica,sans-Serif" font-size="9.00">DatabaseConnection.ts</text>
</a>
</g>
</g>
<!-- src/infrastructure/repository/MetadataRepository.ts -->
<g id="node16" class="node">
<title>src/infrastructure/repository/MetadataRepository.ts</title>
<g id="a_node16"><a xlink:href="src/infrastructure/repository/MetadataRepository.ts" xlink:title="MetadataRepository.ts">
<path fill="#ddfeff" stroke="black" d="M753.41,-292.62C753.41,-292.62 658.74,-292.62 658.74,-292.62 655.53,-292.62 652.33,-289.42 652.33,-286.21 652.33,-286.21 652.33,-279.79 652.33,-279.79 652.33,-276.58 655.53,-273.38 658.74,-273.38 658.74,-273.38 753.41,-273.38 753.41,-273.38 756.62,-273.38 759.83,-276.58 759.83,-279.79 759.83,-279.79 759.83,-286.21 759.83,-286.21 759.83,-289.42 756.62,-292.62 753.41,-292.62"/>
<text text-anchor="start" x="660.33" y="-280.07" font-family="Helvetica,sans-Serif" font-size="9.00">MetadataRepository.ts</text>
</a>
</g>
</g>
<!-- src/infrastructure/repository/MetadataRepository.ts&#45;&gt;src/domain/entities/index.ts -->
<g id="edge23" class="edge">
<title>src/infrastructure/repository/MetadataRepository.ts&#45;&gt;src/domain/entities/index.ts</title>
<path fill="none" stroke="#000000" stroke-opacity="0.200000" d="M715.74,-293C729.71,-309.82 756.77,-345.45 767.83,-381 773.31,-398.63 764.85,-532.15 775.83,-547 783.01,-556.72 794.68,-562.34 806.09,-565.59"/>
<polygon fill="none" stroke="#000000" stroke-opacity="0.200000" points="805.32,-567.56 811.65,-566.96 806.33,-563.48 805.32,-567.56"/>
</g>
<!-- src/infrastructure/repository/MetadataRepository.ts&#45;&gt;src/domain/constants/index.ts -->
<g id="edge22" class="edge">
<title>src/infrastructure/repository/MetadataRepository.ts&#45;&gt;src/domain/constants/index.ts</title>
<path fill="none" stroke="#000000" stroke-width="2" stroke-opacity="0.200000" d="M722.22,-293.12C734.62,-301.48 752.53,-313.76 767.83,-325 785.93,-338.31 806.06,-354.11 820.38,-365.53"/>
<polygon fill="#000000" fill-opacity="0.200000" stroke="#000000" stroke-width="2" stroke-opacity="0.200000" points="818.94,-367.07 824.94,-369.18 821.56,-363.79 818.94,-367.07"/>
</g>
<!-- src/infrastructure/repository/MetadataRepository.ts&#45;&gt;src/domain/repositories/index.ts -->
<g id="edge24" class="edge">
<title>src/infrastructure/repository/MetadataRepository.ts&#45;&gt;src/domain/repositories/index.ts</title>
<path fill="none" stroke="#000000" stroke-opacity="0.200000" d="M730.67,-293.02C743.94,-299.97 759.48,-310.57 767.83,-325 778.55,-343.53 762.8,-404.01 775.83,-421 783.17,-430.59 794.88,-436.19 806.28,-439.45"/>
<polygon fill="none" stroke="#000000" stroke-opacity="0.200000" points="805.49,-441.42 811.82,-440.83 806.5,-437.34 805.49,-441.42"/>
</g>
<!-- src/infrastructure/repository/MetadataRepository.ts&#45;&gt;src/infrastructure/database/DatabaseConnection.ts -->
<g id="edge21" class="edge">
<title>src/infrastructure/repository/MetadataRepository.ts&#45;&gt;src/infrastructure/database/DatabaseConnection.ts</title>
<path fill="none" stroke="#000000" stroke-width="2" stroke-opacity="0.200000" d="M760.2,-276.58C764.97,-276.01 769.84,-275.42 774.69,-274.83"/>
<polygon fill="#000000" fill-opacity="0.200000" stroke="#000000" stroke-width="2" stroke-opacity="0.200000" points="774.69,-276.95 780.39,-274.15 774.18,-272.78 774.69,-276.95"/>
</g>
<!-- src/infrastructure/repository/VideoRepository.ts -->
<g id="node17" class="node">
<title>src/infrastructure/repository/VideoRepository.ts</title>
<g id="a_node17"><a xlink:href="src/infrastructure/repository/VideoRepository.ts" xlink:title="VideoRepository.ts">
<path fill="#ddfeff" stroke="black" d="M746.28,-261.62C746.28,-261.62 665.87,-261.62 665.87,-261.62 662.66,-261.62 659.45,-258.42 659.45,-255.21 659.45,-255.21 659.45,-248.79 659.45,-248.79 659.45,-245.58 662.66,-242.38 665.87,-242.38 665.87,-242.38 746.28,-242.38 746.28,-242.38 749.49,-242.38 752.7,-245.58 752.7,-248.79 752.7,-248.79 752.7,-255.21 752.7,-255.21 752.7,-258.42 749.49,-261.62 746.28,-261.62"/>
<text text-anchor="start" x="667.45" y="-249.07" font-family="Helvetica,sans-Serif" font-size="9.00">VideoRepository.ts</text>
</a>
</g>
</g>
<!-- src/infrastructure/repository/VideoRepository.ts&#45;&gt;src/domain/entities/index.ts -->
<g id="edge27" class="edge">
<title>src/infrastructure/repository/VideoRepository.ts&#45;&gt;src/domain/entities/index.ts</title>
<path fill="none" stroke="#000000" stroke-opacity="0.200000" d="M753.08,-256.36C758.77,-258.76 763.94,-262.18 767.83,-267 787.36,-291.23 757.58,-521.79 775.83,-547 782.97,-556.87 794.76,-562.51 806.27,-565.74"/>
<polygon fill="none" stroke="#000000" stroke-opacity="0.200000" points="805.56,-567.73 811.88,-567.1 806.54,-563.65 805.56,-567.73"/>
</g>
<!-- src/infrastructure/repository/VideoRepository.ts&#45;&gt;src/domain/constants/index.ts -->
<g id="edge26" class="edge">
<title>src/infrastructure/repository/VideoRepository.ts&#45;&gt;src/domain/constants/index.ts</title>
<path fill="none" stroke="#000000" stroke-width="2" stroke-opacity="0.200000" d="M752.98,-257.23C758.54,-259.53 763.7,-262.68 767.83,-267 780.36,-280.1 767.87,-290.71 775.83,-307 786.99,-329.86 806.96,-351.34 821.58,-365.21"/>
<polygon fill="#000000" fill-opacity="0.200000" stroke="#000000" stroke-width="2" stroke-opacity="0.200000" points="819.82,-366.44 825.65,-368.97 822.67,-363.35 819.82,-366.44"/>
</g>
<!-- src/infrastructure/repository/VideoRepository.ts&#45;&gt;src/domain/repositories/index.ts -->
<g id="edge28" class="edge">
<title>src/infrastructure/repository/VideoRepository.ts&#45;&gt;src/domain/repositories/index.ts</title>
<path fill="none" stroke="#000000" stroke-opacity="0.200000" d="M752.98,-256.45C758.68,-258.83 763.88,-262.23 767.83,-267 789.65,-293.42 755.41,-393.48 775.83,-421 783.02,-430.7 794.7,-436.32 806.11,-439.57"/>
<polygon fill="none" stroke="#000000" stroke-opacity="0.200000" points="805.34,-441.55 811.67,-440.94 806.35,-437.47 805.34,-441.55"/>
</g>
<!-- src/infrastructure/repository/VideoRepository.ts&#45;&gt;src/infrastructure/database/DatabaseConnection.ts -->
<g id="edge25" class="edge">
<title>src/infrastructure/repository/VideoRepository.ts&#45;&gt;src/infrastructure/database/DatabaseConnection.ts</title>
<path fill="none" stroke="#000000" stroke-width="2" stroke-opacity="0.200000" d="M753.05,-257.2C760.14,-258.01 767.57,-258.85 774.98,-259.69"/>
<polygon fill="#000000" fill-opacity="0.200000" stroke="#000000" stroke-width="2" stroke-opacity="0.200000" points="774.43,-261.74 780.63,-260.33 774.9,-257.57 774.43,-261.74"/>
</g>
<!-- src/infrastructure/repository/index.ts -->
<g id="node18" class="node">
<title>src/infrastructure/repository/index.ts</title>
<g id="a_node18"><a xlink:href="src/infrastructure/repository/index.ts" xlink:title="index.ts">
<path fill="#ddfeff" stroke="black" d="M599.03,-292.62C599.03,-292.62 557.87,-292.62 557.87,-292.62 554.66,-292.62 551.45,-289.42 551.45,-286.21 551.45,-286.21 551.45,-279.79 551.45,-279.79 551.45,-276.58 554.66,-273.38 557.87,-273.38 557.87,-273.38 599.03,-273.38 599.03,-273.38 602.24,-273.38 605.45,-276.58 605.45,-279.79 605.45,-279.79 605.45,-286.21 605.45,-286.21 605.45,-289.42 602.24,-292.62 599.03,-292.62"/>
<text text-anchor="start" x="562.7" y="-280.07" font-family="Helvetica,sans-Serif" font-size="9.00">index.ts</text>
</a>
</g>
</g>
<!-- src/infrastructure/repository/index.ts&#45;&gt;src/infrastructure/repository/MetadataRepository.ts -->
<g id="edge29" class="edge">
<title>src/infrastructure/repository/index.ts&#45;&gt;src/infrastructure/repository/MetadataRepository.ts</title>
<path fill="none" stroke="#000000" stroke-width="2" stroke-opacity="0.200000" d="M605.79,-283C619.17,-283 635.93,-283 651.85,-283"/>
<polygon fill="#000000" fill-opacity="0.200000" stroke="#000000" stroke-width="2" stroke-opacity="0.200000" points="654.66,-281.61 658.56,-289.71 650.46,-285.81 654.66,-281.61"/>
</g>
<!-- src/infrastructure/repository/index.ts&#45;&gt;src/infrastructure/repository/VideoRepository.ts -->
<g id="edge30" class="edge">
<title>src/infrastructure/repository/index.ts&#45;&gt;src/infrastructure/repository/VideoRepository.ts</title>
<path fill="none" stroke="#000000" stroke-width="2" stroke-opacity="0.200000" d="M605.79,-276.5C622.77,-272.31 645.19,-266.78 664.43,-262.03"/>
<polygon fill="#000000" fill-opacity="0.200000" stroke="#000000" stroke-width="2" stroke-opacity="0.200000" points="667.23,-260.64 671.13,-268.74 663.03,-264.84 667.23,-260.64"/>
</g>
<!-- src/infrastructure/services/VideoMetadataFacade.ts&#45;&gt;src/domain/entities/index.ts -->
<g id="edge31" class="edge">
<title>src/infrastructure/services/VideoMetadataFacade.ts&#45;&gt;src/domain/entities/index.ts</title>
<path fill="none" stroke="#000000" stroke-opacity="0.200000" d="M455.97,-293.09C468.97,-307.06 494.3,-332.23 520.58,-347 574.15,-377.11 592.63,-374.39 652.33,-389 677.63,-395.19 750.48,-389.57 767.83,-409 788.28,-431.92 757.45,-522.38 775.83,-547 783.05,-556.68 794.74,-562.3 806.14,-565.55"/>
<polygon fill="none" stroke="#000000" stroke-opacity="0.200000" points="805.37,-567.52 811.7,-566.92 806.38,-563.45 805.37,-567.52"/>
</g>
<!-- src/infrastructure/services/VideoMetadataFacade.ts&#45;&gt;src/domain/repositories/index.ts -->
<g id="edge32" class="edge">
<title>src/infrastructure/services/VideoMetadataFacade.ts&#45;&gt;src/domain/repositories/index.ts</title>
<path fill="none" stroke="#000000" stroke-opacity="0.200000" d="M462.07,-293.11C476.5,-302.29 499.16,-315.5 520.58,-323 625.92,-359.9 690.06,-286.94 767.83,-367 784.73,-384.4 760.46,-402.22 775.83,-421 783.34,-430.19 794.84,-435.71 806.01,-439.02"/>
<polygon fill="none" stroke="#000000" stroke-opacity="0.200000" points="805.46,-441.05 811.79,-440.52 806.51,-436.98 805.46,-441.05"/>
</g>
<!-- src/infrastructure/services/VideoMetadataFacade.ts&#45;&gt;src/domain/valueObjects/index.ts -->
<g id="edge33" class="edge">
<title>src/infrastructure/services/VideoMetadataFacade.ts&#45;&gt;src/domain/valueObjects/index.ts</title>
<path fill="none" stroke="#000000" stroke-width="2" stroke-opacity="0.200000" d="M459.22,-293.07C473.24,-304.12 497.29,-321.65 520.58,-332 572.39,-355.03 731.06,-351.83 767.83,-395 780.7,-410.12 763.7,-468.28 775.83,-484 782.86,-493.12 793.83,-498.62 804.7,-501.95"/>
<polygon fill="#000000" fill-opacity="0.200000" stroke="#000000" stroke-width="2" stroke-opacity="0.200000" points="804.05,-503.95 810.38,-503.42 805.1,-499.88 804.05,-503.95"/>
</g>
<!-- src/infrastructure/services/VideoMetadataFacade.ts&#45;&gt;src/infrastructure/repository/index.ts -->
<g id="edge34" class="edge">
<title>src/infrastructure/services/VideoMetadataFacade.ts&#45;&gt;src/infrastructure/repository/index.ts</title>
<path fill="none" stroke="#000000" stroke-width="2" stroke-opacity="0.200000" d="M504.95,-283C517.63,-283 530.67,-283 542.14,-283"/>
<polygon fill="#000000" fill-opacity="0.200000" stroke="#000000" stroke-width="2" stroke-opacity="0.200000" points="541.94,-285.1 547.94,-283 541.94,-280.9 541.94,-285.1"/>
</g>
<!-- src/infrastructure/video/VideoFileParser.ts&#45;&gt;src/domain/entities/index.ts -->
<g id="edge37" class="edge">
<title>src/infrastructure/video/VideoFileParser.ts&#45;&gt;src/domain/entities/index.ts</title>
<path fill="none" stroke="#000000" stroke-opacity="0.200000" d="M459.91,-199C475.38,-211.77 500.65,-235.41 512.58,-262 519.16,-276.69 509.2,-322.61 520.58,-334 540.13,-353.59 617.32,-341.95 644.33,-348 700.9,-360.67 732.88,-343.74 767.83,-390 788.88,-417.87 755.03,-518.93 775.83,-547 783.02,-556.71 794.7,-562.33 806.11,-565.58"/>
<polygon fill="none" stroke="#000000" stroke-opacity="0.200000" points="805.34,-567.55 811.67,-566.95 806.34,-563.47 805.34,-567.55"/>
</g>
<!-- src/infrastructure/video/VideoFileParser.ts&#45;&gt;src/domain/valueObjects/index.ts -->
<g id="edge38" class="edge">
<title>src/infrastructure/video/VideoFileParser.ts&#45;&gt;src/domain/valueObjects/index.ts</title>
<path fill="none" stroke="#000000" stroke-width="2" stroke-opacity="0.200000" d="M459.82,-199.04C475.2,-211.85 500.39,-235.53 512.58,-262 518.29,-274.42 510.86,-313.38 520.58,-323 540.24,-342.47 748.85,-332.86 767.83,-353 787.82,-374.23 758.34,-460.65 775.83,-484 782.73,-493.21 793.66,-498.75 804.55,-502.06"/>
<polygon fill="#000000" fill-opacity="0.200000" stroke="#000000" stroke-width="2" stroke-opacity="0.200000" points="803.92,-504.07 810.25,-503.52 804.96,-500 803.92,-504.07"/>
</g>
<!-- src/infrastructure/video/VideoFileParser.ts&#45;&gt;src/infrastructure/video/HTMLVideoProcessor.ts -->
<g id="edge36" class="edge">
<title>src/infrastructure/video/VideoFileParser.ts&#45;&gt;src/infrastructure/video/HTMLVideoProcessor.ts</title>
<path fill="none" stroke="#000000" stroke-width="2" stroke-opacity="0.200000" d="M492.23,-186.57C498.5,-186.23 505.05,-185.88 511.61,-185.53"/>
<polygon fill="#000000" fill-opacity="0.200000" stroke="#000000" stroke-width="2" stroke-opacity="0.200000" points="511.63,-187.63 517.51,-185.22 511.4,-183.44 511.63,-187.63"/>
</g>
<!-- src/presentation/components/utils/DiagnosticsPanel.vue -->
<g id="node22" class="node">
<title>src/presentation/components/utils/DiagnosticsPanel.vue</title>
<g id="a_node22"><a xlink:href="src/presentation/components/utils/DiagnosticsPanel.vue" xlink:title="DiagnosticsPanel.vue">
<path fill="#41f083" stroke="black" d="M166.16,-59.62C166.16,-59.62 72.99,-59.62 72.99,-59.62 69.78,-59.62 66.58,-56.42 66.58,-53.21 66.58,-53.21 66.58,-46.79 66.58,-46.79 66.58,-43.58 69.78,-40.38 72.99,-40.38 72.99,-40.38 166.16,-40.38 166.16,-40.38 169.37,-40.38 172.58,-43.58 172.58,-46.79 172.58,-46.79 172.58,-53.21 172.58,-53.21 172.58,-56.42 169.37,-59.62 166.16,-59.62"/>
<text text-anchor="start" x="74.58" y="-47.08" font-family="Helvetica,sans-Serif" font-size="9.00">DiagnosticsPanel.vue</text>
</a>
</g>
</g>
<!-- src/presentation/components/utils/DiagnosticsPanel.vue&#45;&gt;src/infrastructure/services/index.ts -->
<g id="edge41" class="edge">
<title>src/presentation/components/utils/DiagnosticsPanel.vue&#45;&gt;src/infrastructure/services/index.ts</title>
<path fill="none" stroke="#000000" stroke-width="2" stroke-opacity="0.200000" d="M127.92,-60.03C144.76,-83.42 186.53,-143.89 210.58,-200 215.84,-212.29 210.93,-218.03 218.58,-229 230.37,-245.9 249.22,-259.41 265.12,-268.68"/>
<polygon fill="#000000" fill-opacity="0.200000" stroke="#000000" stroke-width="2" stroke-opacity="0.200000" points="263.74,-270.32 270.01,-271.42 265.79,-266.65 263.74,-270.32"/>
</g>
</g>
</svg>
