<?xml version="1.0" encoding="UTF-8" standalone="no"?>
<!DOCTYPE svg PUBLIC "-//W3C//DTD SVG 1.1//EN"
 "http://www.w3.org/Graphics/SVG/1.1/DTD/svg11.dtd">
<!-- Generated by graphviz version 9.0.0 (20230911.1827)
 -->
<!-- Title: dependency&#45;cruiser output Pages: 1 -->
<svg width="352pt" height="266pt"
 viewBox="0.00 0.00 351.75 266.00" xmlns="http://www.w3.org/2000/svg" xmlns:xlink="http://www.w3.org/1999/xlink">
<g id="graph0" class="graph" transform="scale(1 1) rotate(0) translate(4 262)">
<title>dependency&#45;cruiser output</title>
<polygon fill="white" stroke="none" points="-4,4 -4,-262 347.75,-262 347.75,4 -4,4"/>
<g id="clust1" class="cluster">
<title>cluster_src</title>
<path fill="#ffffff" stroke="black" stroke-width="2" d="M20,-8C20,-8 323.75,-8 323.75,-8 329.75,-8 335.75,-14 335.75,-20 335.75,-20 335.75,-238 335.75,-238 335.75,-244 329.75,-250 323.75,-250 323.75,-250 20,-250 20,-250 14,-250 8,-244 8,-238 8,-238 8,-20 8,-20 8,-14 14,-8 20,-8"/>
<text text-anchor="middle" x="171.88" y="-237.45" font-family="Helvetica,sans-Serif" font-weight="bold" font-size="9.00">src</text>
</g>
<g id="clust2" class="cluster">
<title>cluster_src/application</title>
<path fill="#ffffff" stroke="black" stroke-width="2" d="M28,-120C28,-120 74,-120 74,-120 80,-120 86,-126 86,-132 86,-132 86,-194 86,-194 86,-200 80,-206 74,-206 74,-206 28,-206 28,-206 22,-206 16,-200 16,-194 16,-194 16,-132 16,-132 16,-126 22,-120 28,-120"/>
<text text-anchor="middle" x="51" y="-193.45" font-family="Helvetica,sans-Serif" font-weight="bold" font-size="9.00">application</text>
</g>
<g id="clust4" class="cluster">
<title>cluster_src/infrastructure</title>
<path fill="#ffffff" stroke="black" stroke-width="2" d="M106,-105C106,-105 222.5,-105 222.5,-105 228.5,-105 234.5,-111 234.5,-117 234.5,-117 234.5,-211 234.5,-211 234.5,-217 228.5,-223 222.5,-223 222.5,-223 106,-223 106,-223 100,-223 94,-217 94,-211 94,-211 94,-117 94,-117 94,-111 100,-105 106,-105"/>
<text text-anchor="middle" x="164.25" y="-210.45" font-family="Helvetica,sans-Serif" font-weight="bold" font-size="9.00">infrastructure</text>
</g>
<g id="clust3" class="cluster">
<title>cluster_src/domain</title>
<path fill="#ffffff" stroke="black" stroke-width="2" d="M254.5,-32C254.5,-32 315.75,-32 315.75,-32 321.75,-32 327.75,-38 327.75,-44 327.75,-44 327.75,-168 327.75,-168 327.75,-174 321.75,-180 315.75,-180 315.75,-180 254.5,-180 254.5,-180 248.5,-180 242.5,-174 242.5,-168 242.5,-168 242.5,-44 242.5,-44 242.5,-38 248.5,-32 254.5,-32"/>
<text text-anchor="middle" x="285.12" y="-167.45" font-family="Helvetica,sans-Serif" font-weight="bold" font-size="9.00">domain</text>
</g>
<!-- src/application/di -->
<g id="node1" class="node">
<title>src/application/di</title>
<g id="a_node1"><a xlink:href="src/application/di" xlink:title="di">
<polygon fill="#ffffcc" stroke="black" points="78,-178.62 26.14,-178.62 24,-176.49 24,-159.38 75.86,-159.38 78,-161.51 78,-178.62"/>
<polyline fill="none" stroke="black" points="75.86,-176.49 24,-176.49"/>
<polyline fill="none" stroke="black" points="75.86,-176.49 75.86,-159.38"/>
<polyline fill="none" stroke="black" points="75.86,-176.49 78,-178.62"/>
<text text-anchor="start" x="47.25" y="-166.07" font-family="Helvetica,sans-Serif" font-size="9.00">di</text>
</a>
</g>
</g>
<!-- src/infrastructure/adapters -->
<g id="node2" class="node">
<title>src/infrastructure/adapters</title>
<g id="a_node2"><a xlink:href="src/infrastructure/adapters" xlink:title="adapters">
<polygon fill="#ffffcc" stroke="black" points="157.25,-132.62 105.39,-132.62 103.25,-130.49 103.25,-113.38 155.11,-113.38 157.25,-115.51 157.25,-132.62"/>
<polyline fill="none" stroke="black" points="155.11,-130.49 103.25,-130.49"/>
<polyline fill="none" stroke="black" points="155.11,-130.49 155.11,-113.38"/>
<polyline fill="none" stroke="black" points="155.11,-130.49 157.25,-132.62"/>
<text text-anchor="start" x="111.88" y="-120.08" font-family="Helvetica,sans-Serif" font-size="9.00">adapters</text>
</a>
</g>
</g>
<!-- src/application/di&#45;&gt;src/infrastructure/adapters -->
<g id="edge1" class="edge">
<title>src/application/di&#45;&gt;src/infrastructure/adapters</title>
<path fill="none" stroke="#000000" stroke-width="2" stroke-opacity="0.200000" d="M78.42,-159.62C81.16,-158 83.76,-156.14 86,-154 91.76,-148.52 88.21,-143.45 94,-138 94.49,-137.54 95,-137.09 95.52,-136.65"/>
<polygon fill="#000000" fill-opacity="0.200000" stroke="#000000" stroke-width="2" stroke-opacity="0.200000" points="96.6,-138.46 100.42,-133.37 94.26,-134.97 96.6,-138.46"/>
</g>
<!-- src/infrastructure/database -->
<g id="node3" class="node">
<title>src/infrastructure/database</title>
<g id="a_node3"><a xlink:href="src/infrastructure/database" xlink:title="database">
<polygon fill="#ffffcc" stroke="black" points="226.5,-195.62 173.64,-195.62 171.5,-193.49 171.5,-176.38 224.36,-176.38 226.5,-178.51 226.5,-195.62"/>
<polyline fill="none" stroke="black" points="224.36,-193.49 171.5,-193.49"/>
<polyline fill="none" stroke="black" points="224.36,-193.49 224.36,-176.38"/>
<polyline fill="none" stroke="black" points="224.36,-193.49 226.5,-195.62"/>
<text text-anchor="start" x="179.5" y="-183.07" font-family="Helvetica,sans-Serif" font-size="9.00">database</text>
</a>
</g>
</g>
<!-- src/application/di&#45;&gt;src/infrastructure/database -->
<g id="edge2" class="edge">
<title>src/application/di&#45;&gt;src/infrastructure/database</title>
<path fill="none" stroke="#000000" stroke-width="2" stroke-opacity="0.200000" d="M58.7,-178.77C66.06,-188.53 78.85,-202.94 94,-209 120.62,-219.65 130.82,-216.47 158.5,-209 165.03,-207.24 171.59,-204.1 177.44,-200.69"/>
<polygon fill="#000000" fill-opacity="0.200000" stroke="#000000" stroke-width="2" stroke-opacity="0.200000" points="178.38,-202.58 182.34,-197.61 176.14,-199.03 178.38,-202.58"/>
</g>
<!-- src/infrastructure/repository -->
<g id="node4" class="node">
<title>src/infrastructure/repository</title>
<g id="a_node4"><a xlink:href="src/infrastructure/repository" xlink:title="repository">
<polygon fill="#ffffcc" stroke="black" points="158.5,-194.62 104.14,-194.62 102,-192.49 102,-175.38 156.36,-175.38 158.5,-177.51 158.5,-194.62"/>
<polyline fill="none" stroke="black" points="156.36,-192.49 102,-192.49"/>
<polyline fill="none" stroke="black" points="156.36,-192.49 156.36,-175.38"/>
<polyline fill="none" stroke="black" points="156.36,-192.49 158.5,-194.62"/>
<text text-anchor="start" x="110" y="-182.07" font-family="Helvetica,sans-Serif" font-size="9.00">repository</text>
</a>
</g>
</g>
<!-- src/application/di&#45;&gt;src/infrastructure/repository -->
<g id="edge3" class="edge">
<title>src/application/di&#45;&gt;src/infrastructure/repository</title>
<path fill="none" stroke="#000000" stroke-width="2" stroke-opacity="0.200000" d="M78.15,-174.42C82.86,-175.39 87.84,-176.42 92.78,-177.45"/>
<polygon fill="#000000" fill-opacity="0.200000" stroke="#000000" stroke-width="2" stroke-opacity="0.200000" points="92.27,-179.49 98.57,-178.65 93.12,-175.37 92.27,-179.49"/>
</g>
<!-- src/infrastructure/services -->
<g id="node5" class="node">
<title>src/infrastructure/services</title>
<g id="a_node5"><a xlink:href="src/infrastructure/services" xlink:title="services">
<polygon fill="#ffffcc" stroke="black" points="157.25,-163.62 105.39,-163.62 103.25,-161.49 103.25,-144.38 155.11,-144.38 157.25,-146.51 157.25,-163.62"/>
<polyline fill="none" stroke="black" points="155.11,-161.49 103.25,-161.49"/>
<polyline fill="none" stroke="black" points="155.11,-161.49 155.11,-144.38"/>
<polyline fill="none" stroke="black" points="155.11,-161.49 157.25,-163.62"/>
<text text-anchor="start" x="113" y="-151.07" font-family="Helvetica,sans-Serif" font-size="9.00">services</text>
</a>
</g>
</g>
<!-- src/application/di&#45;&gt;src/infrastructure/services -->
<g id="edge4" class="edge">
<title>src/application/di&#45;&gt;src/infrastructure/services</title>
<path fill="none" stroke="#000000" stroke-width="2" stroke-opacity="0.200000" d="M78.15,-163.92C83.26,-162.93 88.69,-161.88 94.03,-160.84"/>
<polygon fill="#000000" fill-opacity="0.200000" stroke="#000000" stroke-width="2" stroke-opacity="0.200000" points="94.4,-162.91 99.89,-159.7 93.6,-158.78 94.4,-162.91"/>
</g>
<!-- src/infrastructure/video -->
<g id="node6" class="node">
<title>src/infrastructure/video</title>
<g id="a_node6"><a xlink:href="src/infrastructure/video" xlink:title="video">
<polygon fill="#ffffcc" stroke="black" points="226,-164.62 174.14,-164.62 172,-162.49 172,-145.38 223.86,-145.38 226,-147.51 226,-164.62"/>
<polyline fill="none" stroke="black" points="223.86,-162.49 172,-162.49"/>
<polyline fill="none" stroke="black" points="223.86,-162.49 223.86,-145.38"/>
<polyline fill="none" stroke="black" points="223.86,-162.49 226,-164.62"/>
<text text-anchor="start" x="188.12" y="-152.07" font-family="Helvetica,sans-Serif" font-size="9.00">video</text>
</a>
</g>
</g>
<!-- src/application/di&#45;&gt;src/infrastructure/video -->
<g id="edge5" class="edge">
<title>src/application/di&#45;&gt;src/infrastructure/video</title>
<path fill="none" stroke="#000000" stroke-width="2" stroke-opacity="0.200000" d="M61.25,-178.96C69.12,-186.64 81.15,-196.66 94,-201 121.16,-210.17 134.63,-216.87 158.5,-201 169.09,-193.95 163.88,-184.53 171.63,-171.93"/>
<polygon fill="#000000" fill-opacity="0.200000" stroke="#000000" stroke-width="2" stroke-opacity="0.200000" points="173.11,-173.45 175.15,-167.43 169.8,-170.86 173.11,-173.45"/>
</g>
<!-- src/infrastructure/adapters&#45;&gt;src/infrastructure/video -->
<g id="edge9" class="edge">
<title>src/infrastructure/adapters&#45;&gt;src/infrastructure/video</title>
<path fill="none" stroke="#000000" stroke-width="2" stroke-opacity="0.200000" d="M152.37,-133.12C157.71,-135.68 163.53,-138.48 169.18,-141.18"/>
<polygon fill="#000000" fill-opacity="0.200000" stroke="#000000" stroke-width="2" stroke-opacity="0.200000" points="168.2,-143.04 174.52,-143.74 170.01,-139.25 168.2,-143.04"/>
</g>
<!-- src/application/ports -->
<g id="node7" class="node">
<title>src/application/ports</title>
<g id="a_node7"><a xlink:href="src/application/ports" xlink:title="ports">
<polygon fill="#ffffcc" stroke="black" points="78,-147.62 26.14,-147.62 24,-145.49 24,-128.38 75.86,-128.38 78,-130.51 78,-147.62"/>
<polyline fill="none" stroke="black" points="75.86,-145.49 24,-145.49"/>
<polyline fill="none" stroke="black" points="75.86,-145.49 75.86,-128.38"/>
<polyline fill="none" stroke="black" points="75.86,-145.49 78,-147.62"/>
<text text-anchor="start" x="40.5" y="-135.07" font-family="Helvetica,sans-Serif" font-size="9.00">ports</text>
</a>
</g>
</g>
<!-- src/infrastructure/adapters&#45;&gt;src/application/ports -->
<g id="edge6" class="edge">
<title>src/infrastructure/adapters&#45;&gt;src/application/ports</title>
<path fill="none" stroke="#000000" stroke-opacity="0.200000" d="M102.86,-128.12C97.25,-129.21 91.25,-130.38 85.42,-131.51"/>
<polygon fill="none" stroke="#000000" stroke-opacity="0.200000" points="85.13,-129.43 79.64,-132.63 85.93,-133.55 85.13,-129.43"/>
</g>
<!-- src/domain/entities -->
<g id="node9" class="node">
<title>src/domain/entities</title>
<g id="a_node9"><a xlink:href="src/domain/entities" xlink:title="entities">
<polygon fill="#ffffcc" stroke="black" points="312.12,-90.62 260.26,-90.62 258.12,-88.49 258.12,-71.38 309.99,-71.38 312.12,-73.51 312.12,-90.62"/>
<polyline fill="none" stroke="black" points="309.99,-88.49 258.12,-88.49"/>
<polyline fill="none" stroke="black" points="309.99,-88.49 309.99,-71.38"/>
<polyline fill="none" stroke="black" points="309.99,-88.49 312.12,-90.62"/>
<text text-anchor="start" x="270.12" y="-78.08" font-family="Helvetica,sans-Serif" font-size="9.00">entities</text>
</a>
</g>
</g>
<!-- src/infrastructure/adapters&#45;&gt;src/domain/entities -->
<g id="edge7" class="edge">
<title>src/infrastructure/adapters&#45;&gt;src/domain/entities</title>
<path fill="none" stroke="#000000" stroke-opacity="0.200000" d="M133.66,-113.36C138.13,-97.81 149.33,-67.64 171.5,-55 195.82,-41.13 209.55,-42.29 234.5,-55 239.89,-57.74 237.67,-62.37 242.5,-66 245.2,-68.03 248.2,-69.8 251.31,-71.35"/>
<polygon fill="none" stroke="#000000" stroke-opacity="0.200000" points="250.09,-73.1 256.43,-73.6 251.79,-69.26 250.09,-73.1"/>
</g>
<!-- src/domain/repositories -->
<g id="node10" class="node">
<title>src/domain/repositories</title>
<g id="a_node10"><a xlink:href="src/domain/repositories" xlink:title="repositories">
<polygon fill="#ffffcc" stroke="black" points="317.88,-59.62 254.51,-59.62 252.38,-57.49 252.38,-40.38 315.74,-40.38 317.88,-42.51 317.88,-59.62"/>
<polyline fill="none" stroke="black" points="315.74,-57.49 252.38,-57.49"/>
<polyline fill="none" stroke="black" points="315.74,-57.49 315.74,-40.38"/>
<polyline fill="none" stroke="black" points="315.74,-57.49 317.88,-59.62"/>
<text text-anchor="start" x="260.38" y="-47.08" font-family="Helvetica,sans-Serif" font-size="9.00">repositories</text>
</a>
</g>
</g>
<!-- src/infrastructure/adapters&#45;&gt;src/domain/repositories -->
<g id="edge8" class="edge">
<title>src/infrastructure/adapters&#45;&gt;src/domain/repositories</title>
<path fill="none" stroke="#000000" stroke-opacity="0.200000" d="M132.88,-112.88C136.36,-95.06 146.35,-58.5 171.5,-43 194.62,-28.75 225.74,-31.99 249.4,-37.95"/>
<polygon fill="none" stroke="#000000" stroke-opacity="0.200000" points="248.69,-39.94 255.03,-39.48 249.79,-35.88 248.69,-39.94"/>
</g>
<!-- src/infrastructure/repository&#45;&gt;src/infrastructure/database -->
<g id="edge11" class="edge">
<title>src/infrastructure/repository&#45;&gt;src/infrastructure/database</title>
<path fill="none" stroke="#000000" stroke-opacity="0.200000" d="M158.79,-185.41C160.48,-185.44 162.19,-185.46 163.91,-185.49"/>
<polygon fill="none" stroke="#000000" stroke-opacity="0.200000" points="163.84,-187.59 169.87,-185.58 163.91,-183.39 163.84,-187.59"/>
</g>
<!-- src/domain/constants -->
<g id="node8" class="node">
<title>src/domain/constants</title>
<g id="a_node8"><a xlink:href="src/domain/constants" xlink:title="constants">
<polygon fill="#ffffcc" stroke="black" points="313.38,-121.62 259.01,-121.62 256.88,-119.49 256.88,-102.38 311.24,-102.38 313.38,-104.51 313.38,-121.62"/>
<polyline fill="none" stroke="black" points="311.24,-119.49 256.88,-119.49"/>
<polyline fill="none" stroke="black" points="311.24,-119.49 311.24,-102.38"/>
<polyline fill="none" stroke="black" points="311.24,-119.49 313.38,-121.62"/>
<text text-anchor="start" x="264.88" y="-109.08" font-family="Helvetica,sans-Serif" font-size="9.00">constants</text>
</a>
</g>
</g>
<!-- src/infrastructure/repository&#45;&gt;src/domain/constants -->
<g id="edge12" class="edge">
<title>src/infrastructure/repository&#45;&gt;src/domain/constants</title>
<path fill="none" stroke="#000000" stroke-width="2" stroke-opacity="0.200000" d="M153.71,-174.9C155.51,-173.45 157.15,-171.82 158.5,-170 175.25,-147.37 149.64,-125.75 171.5,-108 192.74,-90.75 224.38,-93.54 248.72,-99.62"/>
<polygon fill="#000000" fill-opacity="0.200000" stroke="#000000" stroke-width="2" stroke-opacity="0.200000" points="248.06,-101.62 254.4,-101.18 249.17,-97.57 248.06,-101.62"/>
</g>
<!-- src/infrastructure/repository&#45;&gt;src/domain/entities -->
<g id="edge13" class="edge">
<title>src/infrastructure/repository&#45;&gt;src/domain/entities</title>
<path fill="none" stroke="#000000" stroke-opacity="0.200000" d="M153.79,-174.96C155.57,-173.5 157.19,-171.85 158.5,-170 178.82,-141.32 145.82,-115.99 171.5,-92 182.6,-81.63 221.4,-79.77 250.38,-79.93"/>
<polygon fill="none" stroke="#000000" stroke-opacity="0.200000" points="250.35,-82.03 256.37,-80 250.4,-77.83 250.35,-82.03"/>
</g>
<!-- src/infrastructure/repository&#45;&gt;src/domain/repositories -->
<g id="edge14" class="edge">
<title>src/infrastructure/repository&#45;&gt;src/domain/repositories</title>
<path fill="none" stroke="#000000" stroke-opacity="0.200000" d="M153.84,-174.99C155.61,-173.52 157.21,-171.87 158.5,-170 181.95,-136.01 143.85,-108.67 171.5,-78 174.07,-75.15 213.53,-65.76 245.02,-58.64"/>
<polygon fill="none" stroke="#000000" stroke-opacity="0.200000" points="245.15,-60.76 250.54,-57.39 244.22,-56.66 245.15,-60.76"/>
</g>
<!-- src/infrastructure/services&#45;&gt;src/domain/entities -->
<g id="edge16" class="edge">
<title>src/infrastructure/services&#45;&gt;src/domain/entities</title>
<path fill="none" stroke="#000000" stroke-opacity="0.200000" d="M153.41,-144.08C155.32,-142.58 157.07,-140.89 158.5,-139 173.92,-118.63 151.64,-99.07 171.5,-83 193.27,-65.39 225.92,-66.85 250.47,-71.56"/>
<polygon fill="none" stroke="#000000" stroke-opacity="0.200000" points="250.02,-73.61 256.33,-72.8 250.89,-69.5 250.02,-73.61"/>
</g>
<!-- src/infrastructure/services&#45;&gt;src/domain/repositories -->
<g id="edge17" class="edge">
<title>src/infrastructure/services&#45;&gt;src/domain/repositories</title>
<path fill="none" stroke="#000000" stroke-opacity="0.200000" d="M153.77,-143.94C155.56,-142.49 157.18,-140.84 158.5,-139 177.7,-112.22 147.79,-88.89 171.5,-66 190.56,-47.6 220.56,-44.09 244.81,-44.92"/>
<polygon fill="none" stroke="#000000" stroke-opacity="0.200000" points="244.52,-47 250.62,-45.22 244.74,-42.81 244.52,-47"/>
</g>
<!-- src/infrastructure/dto -->
<g id="node12" class="node">
<title>src/infrastructure/dto</title>
<g id="a_node12"><a xlink:href="src/infrastructure/dto" xlink:title="dto">
<polygon fill="#ffffcc" stroke="black" points="226,-133.62 174.14,-133.62 172,-131.49 172,-114.38 223.86,-114.38 226,-116.51 226,-133.62"/>
<polyline fill="none" stroke="black" points="223.86,-131.49 172,-131.49"/>
<polyline fill="none" stroke="black" points="223.86,-131.49 223.86,-114.38"/>
<polyline fill="none" stroke="black" points="223.86,-131.49 226,-133.62"/>
<text text-anchor="start" x="192.62" y="-121.08" font-family="Helvetica,sans-Serif" font-size="9.00">dto</text>
</a>
</g>
</g>
<!-- src/infrastructure/services&#45;&gt;src/infrastructure/dto -->
<g id="edge15" class="edge">
<title>src/infrastructure/services&#45;&gt;src/infrastructure/dto</title>
<path fill="none" stroke="#000000" stroke-width="2" stroke-opacity="0.200000" d="M153.48,-144.01C158.04,-141.96 162.93,-139.76 167.72,-137.61"/>
<polygon fill="#000000" fill-opacity="0.200000" stroke="#000000" stroke-width="2" stroke-opacity="0.200000" points="168.27,-139.66 172.88,-135.29 166.55,-135.83 168.27,-139.66"/>
</g>
<!-- src/infrastructure/video&#45;&gt;src/domain/entities -->
<g id="edge18" class="edge">
<title>src/infrastructure/video&#45;&gt;src/domain/entities</title>
<path fill="none" stroke="#000000" stroke-opacity="0.200000" d="M226.45,-146.88C229.51,-145.03 232.31,-142.76 234.5,-140 246.85,-124.42 229.66,-111.17 242.5,-96 244.92,-93.14 247.93,-90.83 251.21,-88.96"/>
<polygon fill="none" stroke="#000000" stroke-opacity="0.200000" points="251.87,-90.96 256.41,-86.51 250.09,-87.16 251.87,-90.96"/>
</g>
<!-- src/domain/valueObjects -->
<g id="node11" class="node">
<title>src/domain/valueObjects</title>
<g id="a_node11"><a xlink:href="src/domain/valueObjects" xlink:title="valueObjects">
<polygon fill="#ffffcc" stroke="black" points="319.75,-152.62 252.64,-152.62 250.5,-150.49 250.5,-133.38 317.61,-133.38 319.75,-135.51 319.75,-152.62"/>
<polyline fill="none" stroke="black" points="317.61,-150.49 250.5,-150.49"/>
<polyline fill="none" stroke="black" points="317.61,-150.49 317.61,-133.38"/>
<polyline fill="none" stroke="black" points="317.61,-150.49 319.75,-152.62"/>
<text text-anchor="start" x="258.5" y="-140.07" font-family="Helvetica,sans-Serif" font-size="9.00">valueObjects</text>
</a>
</g>
</g>
<!-- src/infrastructure/video&#45;&gt;src/domain/valueObjects -->
<g id="edge19" class="edge">
<title>src/infrastructure/video&#45;&gt;src/domain/valueObjects</title>
<path fill="none" stroke="#000000" stroke-width="2" stroke-opacity="0.200000" d="M226.16,-151.27C231.04,-150.57 236.26,-149.83 241.49,-149.08"/>
<polygon fill="#000000" fill-opacity="0.200000" stroke="#000000" stroke-width="2" stroke-opacity="0.200000" points="241.6,-151.19 247.24,-148.26 241.01,-147.03 241.6,-151.19"/>
</g>
<!-- src/infrastructure/dto&#45;&gt;src/domain/entities -->
<g id="edge10" class="edge">
<title>src/infrastructure/dto&#45;&gt;src/domain/entities</title>
<path fill="none" stroke="#000000" stroke-opacity="0.200000" d="M213.29,-114.07C221.43,-108.28 232.23,-101.14 242.5,-96 245.2,-94.65 248.06,-93.35 250.96,-92.14"/>
<polygon fill="none" stroke="#000000" stroke-opacity="0.200000" points="251.54,-94.16 256.34,-90 249.99,-90.26 251.54,-94.16"/>
</g>
</g>
</svg>
