<?xml version="1.0" encoding="UTF-8" standalone="no"?>
<!DOCTYPE svg PUBLIC "-//W3C//DTD SVG 1.1//EN"
 "http://www.w3.org/Graphics/SVG/1.1/DTD/svg11.dtd">
<!-- Generated by graphviz version 9.0.0 (20230911.1827)
 -->
<!-- Title: dependency&#45;cruiser output Pages: 1 -->
<svg width="811pt" height="544pt"
 viewBox="0.00 0.00 811.00 544.00" xmlns="http://www.w3.org/2000/svg" xmlns:xlink="http://www.w3.org/1999/xlink">
<g id="graph0" class="graph" transform="scale(1 1) rotate(0) translate(4 540)">
<title>dependency&#45;cruiser output</title>
<polygon fill="white" stroke="none" points="-4,4 -4,-540 807,-540 807,4 -4,4"/>
<g id="clust1" class="cluster">
<title>cluster_src</title>
<path fill="#ffffff" stroke="black" stroke-width="2" d="M20,-8C20,-8 783,-8 783,-8 789,-8 795,-14 795,-20 795,-20 795,-516 795,-516 795,-522 789,-528 783,-528 783,-528 20,-528 20,-528 14,-528 8,-522 8,-516 8,-516 8,-20 8,-20 8,-14 14,-8 20,-8"/>
<text text-anchor="middle" x="401.5" y="-515.45" font-family="Helvetica,sans-Serif" font-weight="bold" font-size="9.00">src</text>
</g>
<g id="clust2" class="cluster">
<title>cluster_src/application</title>
<path fill="#ffffff" stroke="black" stroke-width="2" d="M39.75,-149C39.75,-149 146.25,-149 146.25,-149 152.25,-149 158.25,-155 158.25,-161 158.25,-161 158.25,-290 158.25,-290 158.25,-296 152.25,-302 146.25,-302 146.25,-302 39.75,-302 39.75,-302 33.75,-302 27.75,-296 27.75,-290 27.75,-290 27.75,-161 27.75,-161 27.75,-155 33.75,-149 39.75,-149"/>
<text text-anchor="middle" x="93" y="-289.45" font-family="Helvetica,sans-Serif" font-weight="bold" font-size="9.00">application</text>
</g>
<g id="clust4" class="cluster">
<title>cluster_src/application/stores</title>
<path fill="#ffffff" stroke="black" stroke-width="2" d="M59.75,-220C59.75,-220 126.25,-220 126.25,-220 132.25,-220 138.25,-226 138.25,-232 138.25,-232 138.25,-263 138.25,-263 138.25,-269 132.25,-275 126.25,-275 126.25,-275 59.75,-275 59.75,-275 53.75,-275 47.75,-269 47.75,-263 47.75,-263 47.75,-232 47.75,-232 47.75,-226 53.75,-220 59.75,-220"/>
<text text-anchor="middle" x="93" y="-262.45" font-family="Helvetica,sans-Serif" font-weight="bold" font-size="9.00">stores</text>
</g>
<g id="clust3" class="cluster">
<title>cluster_src/application/services</title>
<path fill="#ffffff" stroke="black" stroke-width="2" d="M47.75,-157C47.75,-157 138.25,-157 138.25,-157 144.25,-157 150.25,-163 150.25,-169 150.25,-169 150.25,-200 150.25,-200 150.25,-206 144.25,-212 138.25,-212 138.25,-212 47.75,-212 47.75,-212 41.75,-212 35.75,-206 35.75,-200 35.75,-200 35.75,-169 35.75,-169 35.75,-163 41.75,-157 47.75,-157"/>
<text text-anchor="middle" x="93" y="-199.45" font-family="Helvetica,sans-Serif" font-weight="bold" font-size="9.00">services</text>
</g>
<g id="clust5" class="cluster">
<title>cluster_src/domain</title>
<path fill="#ffffff" stroke="black" stroke-width="2" d="M683.25,-222C683.25,-222 746.25,-222 746.25,-222 752.25,-222 758.25,-228 758.25,-234 758.25,-234 758.25,-489 758.25,-489 758.25,-495 752.25,-501 746.25,-501 746.25,-501 683.25,-501 683.25,-501 677.25,-501 671.25,-495 671.25,-489 671.25,-489 671.25,-234 671.25,-234 671.25,-228 677.25,-222 683.25,-222"/>
<text text-anchor="middle" x="714.75" y="-488.45" font-family="Helvetica,sans-Serif" font-weight="bold" font-size="9.00">domain</text>
</g>
<g id="clust6" class="cluster">
<title>cluster_src/domain/constants</title>
<path fill="#ffffff" stroke="black" stroke-width="2" d="M691.25,-230C691.25,-230 737.25,-230 737.25,-230 743.25,-230 749.25,-236 749.25,-242 749.25,-242 749.25,-273 749.25,-273 749.25,-279 743.25,-285 737.25,-285 737.25,-285 691.25,-285 691.25,-285 685.25,-285 679.25,-279 679.25,-273 679.25,-273 679.25,-242 679.25,-242 679.25,-236 685.25,-230 691.25,-230"/>
<text text-anchor="middle" x="714.25" y="-272.45" font-family="Helvetica,sans-Serif" font-weight="bold" font-size="9.00">constants</text>
</g>
<g id="clust8" class="cluster">
<title>cluster_src/domain/repositories</title>
<path fill="#ffffff" stroke="black" stroke-width="2" d="M691.25,-293C691.25,-293 737.25,-293 737.25,-293 743.25,-293 749.25,-299 749.25,-305 749.25,-305 749.25,-336 749.25,-336 749.25,-342 743.25,-348 737.25,-348 737.25,-348 691.25,-348 691.25,-348 685.25,-348 679.25,-342 679.25,-336 679.25,-336 679.25,-305 679.25,-305 679.25,-299 685.25,-293 691.25,-293"/>
<text text-anchor="middle" x="714.25" y="-335.45" font-family="Helvetica,sans-Serif" font-weight="bold" font-size="9.00">repositories</text>
</g>
<g id="clust7" class="cluster">
<title>cluster_src/domain/entities</title>
<path fill="#ffffff" stroke="black" stroke-width="2" d="M691.25,-356C691.25,-356 737.25,-356 737.25,-356 743.25,-356 749.25,-362 749.25,-368 749.25,-368 749.25,-399 749.25,-399 749.25,-405 743.25,-411 737.25,-411 737.25,-411 691.25,-411 691.25,-411 685.25,-411 679.25,-405 679.25,-399 679.25,-399 679.25,-368 679.25,-368 679.25,-362 685.25,-356 691.25,-356"/>
<text text-anchor="middle" x="714.25" y="-398.45" font-family="Helvetica,sans-Serif" font-weight="bold" font-size="9.00">entities</text>
</g>
<g id="clust9" class="cluster">
<title>cluster_src/domain/valueObjects</title>
<path fill="#ffffff" stroke="black" stroke-width="2" d="M691.25,-419C691.25,-419 738.25,-419 738.25,-419 744.25,-419 750.25,-425 750.25,-431 750.25,-431 750.25,-462 750.25,-462 750.25,-468 744.25,-474 738.25,-474 738.25,-474 691.25,-474 691.25,-474 685.25,-474 679.25,-468 679.25,-462 679.25,-462 679.25,-431 679.25,-431 679.25,-425 685.25,-419 691.25,-419"/>
<text text-anchor="middle" x="714.75" y="-461.45" font-family="Helvetica,sans-Serif" font-weight="bold" font-size="9.00">valueObjects</text>
</g>
<g id="clust10" class="cluster">
<title>cluster_src/infrastructure</title>
<path fill="#ffffff" stroke="black" stroke-width="2" d="M190,-16C190,-16 775,-16 775,-16 781,-16 787,-22 787,-28 787,-28 787,-202 787,-202 787,-208 781,-214 775,-214 775,-214 190,-214 190,-214 184,-214 178,-208 178,-202 178,-202 178,-28 178,-28 178,-22 184,-16 190,-16"/>
<text text-anchor="middle" x="482.5" y="-201.45" font-family="Helvetica,sans-Serif" font-weight="bold" font-size="9.00">infrastructure</text>
</g>
<g id="clust12" class="cluster">
<title>cluster_src/infrastructure/repository</title>
<path fill="#ffffff" stroke="black" stroke-width="2" d="M429.12,-101C429.12,-101 629.5,-101 629.5,-101 635.5,-101 641.5,-107 641.5,-113 641.5,-113 641.5,-175 641.5,-175 641.5,-181 635.5,-187 629.5,-187 629.5,-187 429.12,-187 429.12,-187 423.12,-187 417.12,-181 417.12,-175 417.12,-175 417.12,-113 417.12,-113 417.12,-107 423.12,-101 429.12,-101"/>
<text text-anchor="middle" x="529.31" y="-174.45" font-family="Helvetica,sans-Serif" font-weight="bold" font-size="9.00">repository</text>
</g>
<g id="clust13" class="cluster">
<title>cluster_src/infrastructure/services</title>
<path fill="#ffffff" stroke="black" stroke-width="2" d="M198,-132C198,-132 374.25,-132 374.25,-132 380.25,-132 386.25,-138 386.25,-144 386.25,-144 386.25,-175 386.25,-175 386.25,-181 380.25,-187 374.25,-187 374.25,-187 198,-187 198,-187 192,-187 186,-181 186,-175 186,-175 186,-144 186,-144 186,-138 192,-132 198,-132"/>
<text text-anchor="middle" x="286.12" y="-174.45" font-family="Helvetica,sans-Serif" font-weight="bold" font-size="9.00">services</text>
</g>
<g id="clust11" class="cluster">
<title>cluster_src/infrastructure/database</title>
<path fill="#ffffff" stroke="black" stroke-width="2" d="M661.5,-116C661.5,-116 767,-116 767,-116 773,-116 779,-122 779,-128 779,-128 779,-159 779,-159 779,-165 773,-171 767,-171 767,-171 661.5,-171 661.5,-171 655.5,-171 649.5,-165 649.5,-159 649.5,-159 649.5,-128 649.5,-128 649.5,-122 655.5,-116 661.5,-116"/>
<text text-anchor="middle" x="714.25" y="-158.45" font-family="Helvetica,sans-Serif" font-weight="bold" font-size="9.00">database</text>
</g>
<g id="clust14" class="cluster">
<title>cluster_src/infrastructure/video</title>
<path fill="#ffffff" stroke="black" stroke-width="2" d="M198,-24C198,-24 506,-24 506,-24 512,-24 518,-30 518,-36 518,-36 518,-81 518,-81 518,-87 512,-93 506,-93 506,-93 198,-93 198,-93 192,-93 186,-87 186,-81 186,-81 186,-36 186,-36 186,-30 192,-24 198,-24"/>
<text text-anchor="middle" x="352" y="-80.45" font-family="Helvetica,sans-Serif" font-weight="bold" font-size="9.00">video</text>
</g>
<g id="clust15" class="cluster">
<title>cluster_src/presentation</title>
<path fill="#ffffff" stroke="black" stroke-width="2" d="M28,-16C28,-16 158,-16 158,-16 164,-16 170,-22 170,-28 170,-28 170,-129 170,-129 170,-135 164,-141 158,-141 158,-141 28,-141 28,-141 22,-141 16,-135 16,-129 16,-129 16,-28 16,-28 16,-22 22,-16 28,-16"/>
<text text-anchor="middle" x="93" y="-128.45" font-family="Helvetica,sans-Serif" font-weight="bold" font-size="9.00">presentation</text>
</g>
<g id="clust16" class="cluster">
<title>cluster_src/presentation/components</title>
<path fill="#ffffff" stroke="black" stroke-width="2" d="M36,-24C36,-24 150,-24 150,-24 156,-24 162,-30 162,-36 162,-36 162,-102 162,-102 162,-108 156,-114 150,-114 150,-114 36,-114 36,-114 30,-114 24,-108 24,-102 24,-102 24,-36 24,-36 24,-30 30,-24 36,-24"/>
<text text-anchor="middle" x="93" y="-101.45" font-family="Helvetica,sans-Serif" font-weight="bold" font-size="9.00">components</text>
</g>
<g id="clust17" class="cluster">
<title>cluster_src/presentation/components/utils</title>
<path fill="#ffffff" stroke="black" stroke-width="2" d="M44,-32C44,-32 142,-32 142,-32 148,-32 154,-38 154,-44 154,-44 154,-75 154,-75 154,-81 148,-87 142,-87 142,-87 44,-87 44,-87 38,-87 32,-81 32,-75 32,-75 32,-44 32,-44 32,-38 38,-32 44,-32"/>
<text text-anchor="middle" x="93" y="-74.45" font-family="Helvetica,sans-Serif" font-weight="bold" font-size="9.00">utils</text>
</g>
<!-- src/application/services/FileParserService.ts -->
<g id="node1" class="node">
<title>src/application/services/FileParserService.ts</title>
<g id="a_node1"><a xlink:href="src/application/services/FileParserService.ts" xlink:title="FileParserService.ts">
<path fill="#ddfeff" stroke="black" d="M135.83,-184.62C135.83,-184.62 50.17,-184.62 50.17,-184.62 46.96,-184.62 43.75,-181.42 43.75,-178.21 43.75,-178.21 43.75,-171.79 43.75,-171.79 43.75,-168.58 46.96,-165.38 50.17,-165.38 50.17,-165.38 135.83,-165.38 135.83,-165.38 139.04,-165.38 142.25,-168.58 142.25,-171.79 142.25,-171.79 142.25,-178.21 142.25,-178.21 142.25,-181.42 139.04,-184.62 135.83,-184.62"/>
<text text-anchor="start" x="51.75" y="-172.07" font-family="Helvetica,sans-Serif" font-size="9.00">FileParserService.ts</text>
</a>
</g>
</g>
<!-- src/domain/entities/index.ts -->
<g id="node2" class="node">
<title>src/domain/entities/index.ts</title>
<g id="a_node2"><a xlink:href="src/domain/entities/index.ts" xlink:title="index.ts">
<path fill="#ddfeff" stroke="black" d="M734.83,-383.62C734.83,-383.62 693.67,-383.62 693.67,-383.62 690.46,-383.62 687.25,-380.42 687.25,-377.21 687.25,-377.21 687.25,-370.79 687.25,-370.79 687.25,-367.58 690.46,-364.38 693.67,-364.38 693.67,-364.38 734.83,-364.38 734.83,-364.38 738.04,-364.38 741.25,-367.58 741.25,-370.79 741.25,-370.79 741.25,-377.21 741.25,-377.21 741.25,-380.42 738.04,-383.62 734.83,-383.62"/>
<text text-anchor="start" x="698.5" y="-371.07" font-family="Helvetica,sans-Serif" font-size="9.00">index.ts</text>
</a>
</g>
</g>
<!-- src/application/services/FileParserService.ts&#45;&gt;src/domain/entities/index.ts -->
<g id="edge1" class="edge">
<title>src/application/services/FileParserService.ts&#45;&gt;src/domain/entities/index.ts</title>
<path fill="none" stroke="#000000" stroke-opacity="0.200000" d="M115.04,-185.09C130.71,-192.97 152.35,-204.62 170,-217 241.84,-267.4 230.87,-347 318.62,-347 318.62,-347 318.62,-347 453.12,-347 537.02,-347 558.37,-347.72 641.5,-359 654.03,-360.7 667.65,-363.34 679.61,-365.94"/>
<polygon fill="none" stroke="#000000" stroke-opacity="0.200000" points="679.04,-367.96 685.35,-367.21 679.95,-363.86 679.04,-367.96"/>
</g>
<!-- src/infrastructure/services/index.ts -->
<g id="node3" class="node">
<title>src/infrastructure/services/index.ts</title>
<g id="a_node3"><a xlink:href="src/infrastructure/services/index.ts" xlink:title="index.ts">
<path fill="#ddfeff" stroke="black" d="M241.58,-159.62C241.58,-159.62 200.42,-159.62 200.42,-159.62 197.21,-159.62 194,-156.42 194,-153.21 194,-153.21 194,-146.79 194,-146.79 194,-143.58 197.21,-140.38 200.42,-140.38 200.42,-140.38 241.58,-140.38 241.58,-140.38 244.79,-140.38 248,-143.58 248,-146.79 248,-146.79 248,-153.21 248,-153.21 248,-156.42 244.79,-159.62 241.58,-159.62"/>
<text text-anchor="start" x="205.25" y="-147.07" font-family="Helvetica,sans-Serif" font-size="9.00">index.ts</text>
</a>
</g>
</g>
<!-- src/application/services/FileParserService.ts&#45;&gt;src/infrastructure/services/index.ts -->
<g id="edge2" class="edge">
<title>src/application/services/FileParserService.ts&#45;&gt;src/infrastructure/services/index.ts</title>
<path fill="none" stroke="#000000" stroke-width="2" stroke-opacity="0.200000" d="M142.71,-165.33C156.78,-162.54 171.85,-159.55 184.91,-156.96"/>
<polygon fill="#000000" fill-opacity="0.200000" stroke="#000000" stroke-width="2" stroke-opacity="0.200000" points="185.15,-159.05 190.63,-155.83 184.34,-154.94 185.15,-159.05"/>
</g>
<!-- src/infrastructure/video/index.ts -->
<g id="node4" class="node">
<title>src/infrastructure/video/index.ts</title>
<g id="a_node4"><a xlink:href="src/infrastructure/video/index.ts" xlink:title="index.ts">
<path fill="#ddfeff" stroke="black" d="M241.58,-65.62C241.58,-65.62 200.42,-65.62 200.42,-65.62 197.21,-65.62 194,-62.42 194,-59.21 194,-59.21 194,-52.79 194,-52.79 194,-49.58 197.21,-46.38 200.42,-46.38 200.42,-46.38 241.58,-46.38 241.58,-46.38 244.79,-46.38 248,-49.58 248,-52.79 248,-52.79 248,-59.21 248,-59.21 248,-62.42 244.79,-65.62 241.58,-65.62"/>
<text text-anchor="start" x="205.25" y="-53.08" font-family="Helvetica,sans-Serif" font-size="9.00">index.ts</text>
</a>
</g>
</g>
<!-- src/application/services/FileParserService.ts&#45;&gt;src/infrastructure/video/index.ts -->
<g id="edge3" class="edge">
<title>src/application/services/FileParserService.ts&#45;&gt;src/infrastructure/video/index.ts</title>
<path fill="none" stroke="#000000" stroke-width="2" stroke-opacity="0.200000" d="M104.31,-165.26C126,-144.78 176.52,-97.06 203.05,-72.01"/>
<polygon fill="#000000" fill-opacity="0.200000" stroke="#000000" stroke-width="2" stroke-opacity="0.200000" points="204.43,-73.6 207.35,-67.95 201.54,-70.54 204.43,-73.6"/>
</g>
<!-- src/infrastructure/services/VideoMetadataFacade.ts -->
<g id="node13" class="node">
<title>src/infrastructure/services/VideoMetadataFacade.ts</title>
<g id="a_node13"><a xlink:href="src/infrastructure/services/VideoMetadataFacade.ts" xlink:title="VideoMetadataFacade.ts">
<path fill="#ddfeff" stroke="black" d="M371.83,-159.62C371.83,-159.62 267.42,-159.62 267.42,-159.62 264.21,-159.62 261,-156.42 261,-153.21 261,-153.21 261,-146.79 261,-146.79 261,-143.58 264.21,-140.38 267.42,-140.38 267.42,-140.38 371.83,-140.38 371.83,-140.38 375.04,-140.38 378.25,-143.58 378.25,-146.79 378.25,-146.79 378.25,-153.21 378.25,-153.21 378.25,-156.42 375.04,-159.62 371.83,-159.62"/>
<text text-anchor="start" x="269" y="-147.07" font-family="Helvetica,sans-Serif" font-size="9.00">VideoMetadataFacade.ts</text>
</a>
</g>
</g>
<!-- src/infrastructure/services/index.ts&#45;&gt;src/infrastructure/services/VideoMetadataFacade.ts -->
<g id="edge21" class="edge">
<title>src/infrastructure/services/index.ts&#45;&gt;src/infrastructure/services/VideoMetadataFacade.ts</title>
<path fill="none" stroke="#000000" stroke-width="2" stroke-opacity="0.200000" d="M248.4,-150C252.31,-150 256.47,-150 260.73,-150"/>
<polygon fill="#000000" fill-opacity="0.200000" stroke="#000000" stroke-width="2" stroke-opacity="0.200000" points="263.53,-148.61 267.43,-156.71 259.33,-152.81 263.53,-148.61"/>
</g>
<!-- src/infrastructure/video/HTMLVideoProcessor.ts -->
<g id="node14" class="node">
<title>src/infrastructure/video/HTMLVideoProcessor.ts</title>
<g id="a_node14"><a xlink:href="src/infrastructure/video/HTMLVideoProcessor.ts" xlink:title="HTMLVideoProcessor.ts">
<path fill="#ddfeff" stroke="black" d="M503.58,-58.62C503.58,-58.62 400.67,-58.62 400.67,-58.62 397.46,-58.62 394.25,-55.42 394.25,-52.21 394.25,-52.21 394.25,-45.79 394.25,-45.79 394.25,-42.58 397.46,-39.38 400.67,-39.38 400.67,-39.38 503.58,-39.38 503.58,-39.38 506.79,-39.38 510,-42.58 510,-45.79 510,-45.79 510,-52.21 510,-52.21 510,-55.42 506.79,-58.62 503.58,-58.62"/>
<text text-anchor="start" x="402.25" y="-46.08" font-family="Helvetica,sans-Serif" font-size="9.00">HTMLVideoProcessor.ts</text>
</a>
</g>
</g>
<!-- src/infrastructure/video/index.ts&#45;&gt;src/infrastructure/video/HTMLVideoProcessor.ts -->
<g id="edge25" class="edge">
<title>src/infrastructure/video/index.ts&#45;&gt;src/infrastructure/video/HTMLVideoProcessor.ts</title>
<path fill="none" stroke="#000000" stroke-width="2" stroke-opacity="0.200000" d="M242.18,-45.98C248.1,-43.53 254.68,-41.25 394.03,-39.19"/>
<polygon fill="#000000" fill-opacity="0.200000" stroke="#000000" stroke-width="2" stroke-opacity="0.200000" points="396.83,-37.8 400.73,-45.9 392.63,-42 396.83,-37.8"/>
</g>
<!-- src/infrastructure/video/VideoFileParser.ts -->
<g id="node15" class="node">
<title>src/infrastructure/video/VideoFileParser.ts</title>
<g id="a_node15"><a xlink:href="src/infrastructure/video/VideoFileParser.ts" xlink:title="VideoFileParser.ts">
<path fill="#ddfeff" stroke="black" d="M359.08,-65.62C359.08,-65.62 280.17,-65.62 280.17,-65.62 276.96,-65.62 273.75,-62.42 273.75,-59.21 273.75,-59.21 273.75,-52.79 273.75,-52.79 273.75,-49.58 276.96,-46.38 280.17,-46.38 280.17,-46.38 359.08,-46.38 359.08,-46.38 362.29,-46.38 365.5,-49.58 365.5,-52.79 365.5,-52.79 365.5,-59.21 365.5,-59.21 365.5,-62.42 362.29,-65.62 359.08,-65.62"/>
<text text-anchor="start" x="281.75" y="-53.08" font-family="Helvetica,sans-Serif" font-size="9.00">VideoFileParser.ts</text>
</a>
</g>
</g>
<!-- src/infrastructure/video/index.ts&#45;&gt;src/infrastructure/video/VideoFileParser.ts -->
<g id="edge26" class="edge">
<title>src/infrastructure/video/index.ts&#45;&gt;src/infrastructure/video/VideoFileParser.ts</title>
<path fill="none" stroke="#000000" stroke-width="2" stroke-opacity="0.200000" d="M248.4,-56C256.11,-56 264.77,-56 273.3,-56"/>
<polygon fill="#000000" fill-opacity="0.200000" stroke="#000000" stroke-width="2" stroke-opacity="0.200000" points="276.11,-54.61 280.01,-62.71 271.91,-58.81 276.11,-54.61"/>
</g>
<!-- src/application/stores/videosStore.ts -->
<g id="node5" class="node">
<title>src/application/stores/videosStore.ts</title>
<g id="a_node5"><a xlink:href="src/application/stores/videosStore.ts" xlink:title="videosStore.ts">
<path fill="#ddfeff" stroke="black" d="M123.83,-247.62C123.83,-247.62 62.17,-247.62 62.17,-247.62 58.96,-247.62 55.75,-244.42 55.75,-241.21 55.75,-241.21 55.75,-234.79 55.75,-234.79 55.75,-231.58 58.96,-228.38 62.17,-228.38 62.17,-228.38 123.83,-228.38 123.83,-228.38 127.04,-228.38 130.25,-231.58 130.25,-234.79 130.25,-234.79 130.25,-241.21 130.25,-241.21 130.25,-244.42 127.04,-247.62 123.83,-247.62"/>
<text text-anchor="start" x="63.75" y="-235.07" font-family="Helvetica,sans-Serif" font-size="9.00">videosStore.ts</text>
</a>
</g>
</g>
<!-- src/application/stores/videosStore.ts&#45;&gt;src/domain/entities/index.ts -->
<g id="edge4" class="edge">
<title>src/application/stores/videosStore.ts&#45;&gt;src/domain/entities/index.ts</title>
<path fill="none" stroke="#000000" stroke-opacity="0.200000" d="M97.86,-247.8C107.43,-270.63 134.7,-327.27 178,-351 232.95,-381.11 255.97,-361 318.62,-361 318.62,-361 318.62,-361 453.12,-361 534.63,-361 630.31,-367.44 679.81,-371.26"/>
<polygon fill="none" stroke="#000000" stroke-opacity="0.200000" points="679.4,-373.33 685.55,-371.71 679.73,-369.15 679.4,-373.33"/>
</g>
<!-- src/application/stores/videosStore.ts&#45;&gt;src/infrastructure/services/index.ts -->
<g id="edge5" class="edge">
<title>src/application/stores/videosStore.ts&#45;&gt;src/infrastructure/services/index.ts</title>
<path fill="none" stroke="#000000" stroke-width="2" stroke-opacity="0.200000" d="M130.47,-231.82C143.73,-228.37 158.32,-223.07 170,-215 187.79,-202.71 202.07,-182.13 210.74,-167.41"/>
<polygon fill="#000000" fill-opacity="0.200000" stroke="#000000" stroke-width="2" stroke-opacity="0.200000" points="212.36,-168.83 213.48,-162.57 208.7,-166.76 212.36,-168.83"/>
</g>
<!-- src/application/stores/videosStore.ts&#45;&gt;src/infrastructure/video/index.ts -->
<g id="edge6" class="edge">
<title>src/application/stores/videosStore.ts&#45;&gt;src/infrastructure/video/index.ts</title>
<path fill="none" stroke="#000000" stroke-width="2" stroke-opacity="0.200000" d="M130.6,-235.55C145.03,-232.64 160.41,-226.74 170,-215 182.14,-200.13 172.19,-147.29 178,-129 184.57,-108.31 197.65,-87.06 207.48,-72.86"/>
<polygon fill="#000000" fill-opacity="0.200000" stroke="#000000" stroke-width="2" stroke-opacity="0.200000" points="209.02,-74.32 210.78,-68.21 205.59,-71.88 209.02,-74.32"/>
</g>
<!-- src/domain/constants/index.ts -->
<g id="node6" class="node">
<title>src/domain/constants/index.ts</title>
<g id="a_node6"><a xlink:href="src/domain/constants/index.ts" xlink:title="index.ts">
<path fill="#ddfeff" stroke="black" d="M734.83,-257.62C734.83,-257.62 693.67,-257.62 693.67,-257.62 690.46,-257.62 687.25,-254.42 687.25,-251.21 687.25,-251.21 687.25,-244.79 687.25,-244.79 687.25,-241.58 690.46,-238.38 693.67,-238.38 693.67,-238.38 734.83,-238.38 734.83,-238.38 738.04,-238.38 741.25,-241.58 741.25,-244.79 741.25,-244.79 741.25,-251.21 741.25,-251.21 741.25,-254.42 738.04,-257.62 734.83,-257.62"/>
<text text-anchor="start" x="698.5" y="-245.07" font-family="Helvetica,sans-Serif" font-size="9.00">index.ts</text>
</a>
</g>
</g>
<!-- src/domain/repositories/index.ts -->
<g id="node7" class="node">
<title>src/domain/repositories/index.ts</title>
<g id="a_node7"><a xlink:href="src/domain/repositories/index.ts" xlink:title="index.ts">
<path fill="#ddfeff" stroke="black" d="M734.83,-320.62C734.83,-320.62 693.67,-320.62 693.67,-320.62 690.46,-320.62 687.25,-317.42 687.25,-314.21 687.25,-314.21 687.25,-307.79 687.25,-307.79 687.25,-304.58 690.46,-301.38 693.67,-301.38 693.67,-301.38 734.83,-301.38 734.83,-301.38 738.04,-301.38 741.25,-304.58 741.25,-307.79 741.25,-307.79 741.25,-314.21 741.25,-314.21 741.25,-317.42 738.04,-320.62 734.83,-320.62"/>
<text text-anchor="start" x="698.5" y="-308.07" font-family="Helvetica,sans-Serif" font-size="9.00">index.ts</text>
</a>
</g>
</g>
<!-- src/domain/valueObjects/index.ts -->
<g id="node8" class="node">
<title>src/domain/valueObjects/index.ts</title>
<g id="a_node8"><a xlink:href="src/domain/valueObjects/index.ts" xlink:title="index.ts">
<path fill="#ddfeff" stroke="black" d="M734.83,-446.62C734.83,-446.62 693.67,-446.62 693.67,-446.62 690.46,-446.62 687.25,-443.42 687.25,-440.21 687.25,-440.21 687.25,-433.79 687.25,-433.79 687.25,-430.58 690.46,-427.38 693.67,-427.38 693.67,-427.38 734.83,-427.38 734.83,-427.38 738.04,-427.38 741.25,-430.58 741.25,-433.79 741.25,-433.79 741.25,-440.21 741.25,-440.21 741.25,-443.42 738.04,-446.62 734.83,-446.62"/>
<text text-anchor="start" x="698.5" y="-434.07" font-family="Helvetica,sans-Serif" font-size="9.00">index.ts</text>
</a>
</g>
</g>
<!-- src/infrastructure/database/DatabaseConnection.ts -->
<g id="node9" class="node">
<title>src/infrastructure/database/DatabaseConnection.ts</title>
<g id="a_node9"><a xlink:href="src/infrastructure/database/DatabaseConnection.ts" xlink:title="DatabaseConnection.ts">
<path fill="#ddfeff" stroke="black" d="M764.58,-143.62C764.58,-143.62 663.92,-143.62 663.92,-143.62 660.71,-143.62 657.5,-140.42 657.5,-137.21 657.5,-137.21 657.5,-130.79 657.5,-130.79 657.5,-127.58 660.71,-124.38 663.92,-124.38 663.92,-124.38 764.58,-124.38 764.58,-124.38 767.79,-124.38 771,-127.58 771,-130.79 771,-130.79 771,-137.21 771,-137.21 771,-140.42 767.79,-143.62 764.58,-143.62"/>
<text text-anchor="start" x="665.5" y="-131.07" font-family="Helvetica,sans-Serif" font-size="9.00">DatabaseConnection.ts</text>
</a>
</g>
</g>
<!-- src/infrastructure/repository/MetadataRepository.ts -->
<g id="node10" class="node">
<title>src/infrastructure/repository/MetadataRepository.ts</title>
<g id="a_node10"><a xlink:href="src/infrastructure/repository/MetadataRepository.ts" xlink:title="MetadataRepository.ts">
<path fill="#ddfeff" stroke="black" d="M627.08,-159.62C627.08,-159.62 532.42,-159.62 532.42,-159.62 529.21,-159.62 526,-156.42 526,-153.21 526,-153.21 526,-146.79 526,-146.79 526,-143.58 529.21,-140.38 532.42,-140.38 532.42,-140.38 627.08,-140.38 627.08,-140.38 630.29,-140.38 633.5,-143.58 633.5,-146.79 633.5,-146.79 633.5,-153.21 633.5,-153.21 633.5,-156.42 630.29,-159.62 627.08,-159.62"/>
<text text-anchor="start" x="534" y="-147.07" font-family="Helvetica,sans-Serif" font-size="9.00">MetadataRepository.ts</text>
</a>
</g>
</g>
<!-- src/infrastructure/repository/MetadataRepository.ts&#45;&gt;src/domain/entities/index.ts -->
<g id="edge10" class="edge">
<title>src/infrastructure/repository/MetadataRepository.ts&#45;&gt;src/domain/entities/index.ts</title>
<path fill="none" stroke="#000000" stroke-opacity="0.200000" d="M597.79,-160C612.26,-169.54 632.13,-185.35 641.5,-205 655.48,-234.33 630.1,-324.93 649.5,-351 656.71,-360.69 668.4,-366.31 679.8,-369.56"/>
<polygon fill="none" stroke="#000000" stroke-opacity="0.200000" points="679.03,-371.54 685.36,-370.93 680.04,-367.46 679.03,-371.54"/>
</g>
<!-- src/infrastructure/repository/MetadataRepository.ts&#45;&gt;src/domain/constants/index.ts -->
<g id="edge9" class="edge">
<title>src/infrastructure/repository/MetadataRepository.ts&#45;&gt;src/domain/constants/index.ts</title>
<path fill="none" stroke="#000000" stroke-width="2" stroke-opacity="0.200000" d="M594.43,-160.12C617.76,-177.37 665.36,-212.58 692.7,-232.8"/>
<polygon fill="#000000" fill-opacity="0.200000" stroke="#000000" stroke-width="2" stroke-opacity="0.200000" points="691.33,-234.4 697.41,-236.28 693.83,-231.03 691.33,-234.4"/>
</g>
<!-- src/infrastructure/repository/MetadataRepository.ts&#45;&gt;src/domain/repositories/index.ts -->
<g id="edge8" class="edge">
<title>src/infrastructure/repository/MetadataRepository.ts&#45;&gt;src/domain/repositories/index.ts</title>
<path fill="none" stroke="#000000" stroke-opacity="0.200000" d="M597.59,-160.1C611.94,-169.7 631.73,-185.55 641.5,-205 649.82,-221.56 638.13,-273.37 649.5,-288 656.91,-297.54 668.63,-303.13 680.02,-306.4"/>
<polygon fill="none" stroke="#000000" stroke-opacity="0.200000" points="679.22,-308.37 685.55,-307.78 680.24,-304.29 679.22,-308.37"/>
</g>
<!-- src/infrastructure/repository/MetadataRepository.ts&#45;&gt;src/infrastructure/database/DatabaseConnection.ts -->
<g id="edge7" class="edge">
<title>src/infrastructure/repository/MetadataRepository.ts&#45;&gt;src/infrastructure/database/DatabaseConnection.ts</title>
<path fill="none" stroke="#000000" stroke-width="2" stroke-opacity="0.200000" d="M633.88,-143.58C638.65,-143.01 643.51,-142.42 648.37,-141.83"/>
<polygon fill="#000000" fill-opacity="0.200000" stroke="#000000" stroke-width="2" stroke-opacity="0.200000" points="648.36,-143.95 654.07,-141.15 647.86,-139.78 648.36,-143.95"/>
</g>
<!-- src/infrastructure/repository/VideoRepository.ts -->
<g id="node11" class="node">
<title>src/infrastructure/repository/VideoRepository.ts</title>
<g id="a_node11"><a xlink:href="src/infrastructure/repository/VideoRepository.ts" xlink:title="VideoRepository.ts">
<path fill="#ddfeff" stroke="black" d="M619.96,-128.62C619.96,-128.62 539.54,-128.62 539.54,-128.62 536.33,-128.62 533.12,-125.42 533.12,-122.21 533.12,-122.21 533.12,-115.79 533.12,-115.79 533.12,-112.58 536.33,-109.38 539.54,-109.38 539.54,-109.38 619.96,-109.38 619.96,-109.38 623.17,-109.38 626.38,-112.58 626.38,-115.79 626.38,-115.79 626.38,-122.21 626.38,-122.21 626.38,-125.42 623.17,-128.62 619.96,-128.62"/>
<text text-anchor="start" x="541.12" y="-116.08" font-family="Helvetica,sans-Serif" font-size="9.00">VideoRepository.ts</text>
</a>
</g>
</g>
<!-- src/infrastructure/repository/VideoRepository.ts&#45;&gt;src/domain/entities/index.ts -->
<g id="edge13" class="edge">
<title>src/infrastructure/repository/VideoRepository.ts&#45;&gt;src/domain/entities/index.ts</title>
<path fill="none" stroke="#000000" stroke-opacity="0.200000" d="M626.72,-123.39C632.41,-125.79 637.59,-129.2 641.5,-134 656.72,-152.72 635.27,-331.51 649.5,-351 656.68,-360.84 668.48,-366.48 679.99,-369.71"/>
<polygon fill="none" stroke="#000000" stroke-opacity="0.200000" points="679.27,-371.7 685.6,-371.07 680.26,-367.62 679.27,-371.7"/>
</g>
<!-- src/infrastructure/repository/VideoRepository.ts&#45;&gt;src/domain/constants/index.ts -->
<g id="edge12" class="edge">
<title>src/infrastructure/repository/VideoRepository.ts&#45;&gt;src/domain/constants/index.ts</title>
<path fill="none" stroke="#000000" stroke-width="2" stroke-opacity="0.200000" d="M626.66,-124.23C632.21,-126.53 637.37,-129.68 641.5,-134 654.03,-147.1 641.54,-157.71 649.5,-174 660.66,-196.86 680.64,-218.34 695.26,-232.21"/>
<polygon fill="#000000" fill-opacity="0.200000" stroke="#000000" stroke-width="2" stroke-opacity="0.200000" points="693.5,-233.44 699.33,-235.97 696.35,-230.35 693.5,-233.44"/>
</g>
<!-- src/infrastructure/repository/VideoRepository.ts&#45;&gt;src/domain/repositories/index.ts -->
<g id="edge14" class="edge">
<title>src/infrastructure/repository/VideoRepository.ts&#45;&gt;src/domain/repositories/index.ts</title>
<path fill="none" stroke="#000000" stroke-opacity="0.200000" d="M626.66,-123.45C632.36,-125.83 637.56,-129.23 641.5,-134 663.32,-160.42 629.08,-260.48 649.5,-288 656.7,-297.7 668.38,-303.32 679.79,-306.57"/>
<polygon fill="none" stroke="#000000" stroke-opacity="0.200000" points="679.02,-308.55 685.34,-307.94 680.02,-304.47 679.02,-308.55"/>
</g>
<!-- src/infrastructure/repository/VideoRepository.ts&#45;&gt;src/infrastructure/database/DatabaseConnection.ts -->
<g id="edge11" class="edge">
<title>src/infrastructure/repository/VideoRepository.ts&#45;&gt;src/infrastructure/database/DatabaseConnection.ts</title>
<path fill="none" stroke="#000000" stroke-width="2" stroke-opacity="0.200000" d="M626.72,-124.2C633.81,-125.01 641.25,-125.85 648.65,-126.69"/>
<polygon fill="#000000" fill-opacity="0.200000" stroke="#000000" stroke-width="2" stroke-opacity="0.200000" points="648.11,-128.74 654.31,-127.33 648.58,-124.57 648.11,-128.74"/>
</g>
<!-- src/infrastructure/repository/index.ts -->
<g id="node12" class="node">
<title>src/infrastructure/repository/index.ts</title>
<g id="a_node12"><a xlink:href="src/infrastructure/repository/index.ts" xlink:title="index.ts">
<path fill="#ddfeff" stroke="black" d="M472.71,-159.62C472.71,-159.62 431.54,-159.62 431.54,-159.62 428.33,-159.62 425.12,-156.42 425.12,-153.21 425.12,-153.21 425.12,-146.79 425.12,-146.79 425.12,-143.58 428.33,-140.38 431.54,-140.38 431.54,-140.38 472.71,-140.38 472.71,-140.38 475.92,-140.38 479.12,-143.58 479.12,-146.79 479.12,-146.79 479.12,-153.21 479.12,-153.21 479.12,-156.42 475.92,-159.62 472.71,-159.62"/>
<text text-anchor="start" x="436.38" y="-147.07" font-family="Helvetica,sans-Serif" font-size="9.00">index.ts</text>
</a>
</g>
</g>
<!-- src/infrastructure/repository/index.ts&#45;&gt;src/infrastructure/repository/MetadataRepository.ts -->
<g id="edge15" class="edge">
<title>src/infrastructure/repository/index.ts&#45;&gt;src/infrastructure/repository/MetadataRepository.ts</title>
<path fill="none" stroke="#000000" stroke-width="2" stroke-opacity="0.200000" d="M479.46,-150C492.84,-150 509.61,-150 525.53,-150"/>
<polygon fill="#000000" fill-opacity="0.200000" stroke="#000000" stroke-width="2" stroke-opacity="0.200000" points="528.33,-148.61 532.23,-156.71 524.13,-152.81 528.33,-148.61"/>
</g>
<!-- src/infrastructure/repository/index.ts&#45;&gt;src/infrastructure/repository/VideoRepository.ts -->
<g id="edge16" class="edge">
<title>src/infrastructure/repository/index.ts&#45;&gt;src/infrastructure/repository/VideoRepository.ts</title>
<path fill="none" stroke="#000000" stroke-width="2" stroke-opacity="0.200000" d="M479.46,-143.5C496.44,-139.31 518.86,-133.78 538.1,-129.03"/>
<polygon fill="#000000" fill-opacity="0.200000" stroke="#000000" stroke-width="2" stroke-opacity="0.200000" points="540.91,-127.64 544.81,-135.74 536.71,-131.84 540.91,-127.64"/>
</g>
<!-- src/infrastructure/services/VideoMetadataFacade.ts&#45;&gt;src/domain/entities/index.ts -->
<g id="edge17" class="edge">
<title>src/infrastructure/services/VideoMetadataFacade.ts&#45;&gt;src/domain/entities/index.ts</title>
<path fill="none" stroke="#000000" stroke-opacity="0.200000" d="M329.36,-160.03C342.41,-174.58 368.24,-201.79 394.25,-220 494.79,-290.4 541.86,-271.34 641.5,-343 645.58,-345.94 645.26,-348.3 649.5,-351 658.78,-356.89 669.78,-361.55 680.01,-365.09"/>
<polygon fill="none" stroke="#000000" stroke-opacity="0.200000" points="679.14,-367.01 685.49,-366.88 680.45,-363.02 679.14,-367.01"/>
</g>
<!-- src/infrastructure/services/VideoMetadataFacade.ts&#45;&gt;src/domain/repositories/index.ts -->
<g id="edge18" class="edge">
<title>src/infrastructure/services/VideoMetadataFacade.ts&#45;&gt;src/domain/repositories/index.ts</title>
<path fill="none" stroke="#000000" stroke-opacity="0.200000" d="M337.56,-160.02C352.27,-168.54 374.3,-180.8 394.25,-190 496.07,-236.96 621.74,-280.63 680.31,-300.2"/>
<polygon fill="none" stroke="#000000" stroke-opacity="0.200000" points="679.32,-302.09 685.68,-301.99 680.65,-298.1 679.32,-302.09"/>
</g>
<!-- src/infrastructure/services/VideoMetadataFacade.ts&#45;&gt;src/domain/valueObjects/index.ts -->
<g id="edge19" class="edge">
<title>src/infrastructure/services/VideoMetadataFacade.ts&#45;&gt;src/domain/valueObjects/index.ts</title>
<path fill="none" stroke="#000000" stroke-width="2" stroke-opacity="0.200000" d="M326.03,-160.05C336.95,-179.67 363.24,-223.73 394.25,-253 491.8,-345.06 528.99,-355.12 649.5,-414 658.74,-418.51 669.1,-422.63 678.74,-426.09"/>
<polygon fill="#000000" fill-opacity="0.200000" stroke="#000000" stroke-width="2" stroke-opacity="0.200000" points="677.76,-427.97 684.12,-427.96 679.14,-424 677.76,-427.97"/>
</g>
<!-- src/infrastructure/services/VideoMetadataFacade.ts&#45;&gt;src/infrastructure/repository/index.ts -->
<g id="edge20" class="edge">
<title>src/infrastructure/services/VideoMetadataFacade.ts&#45;&gt;src/infrastructure/repository/index.ts</title>
<path fill="none" stroke="#000000" stroke-width="2" stroke-opacity="0.200000" d="M378.62,-150C391.3,-150 404.35,-150 415.82,-150"/>
<polygon fill="#000000" fill-opacity="0.200000" stroke="#000000" stroke-width="2" stroke-opacity="0.200000" points="415.61,-152.1 421.61,-150 415.61,-147.9 415.61,-152.1"/>
</g>
<!-- src/infrastructure/video/VideoFileParser.ts&#45;&gt;src/domain/entities/index.ts -->
<g id="edge23" class="edge">
<title>src/infrastructure/video/VideoFileParser.ts&#45;&gt;src/domain/entities/index.ts</title>
<path fill="none" stroke="#000000" stroke-opacity="0.200000" d="M333.5,-66.04C348.88,-78.85 374.07,-102.53 386.25,-129 397.68,-153.84 377.18,-168.64 394.25,-190 467.36,-281.47 569.16,-188.93 641.5,-281 660.85,-305.62 630.08,-326.44 649.5,-351 656.86,-360.31 668.33,-365.86 679.51,-369.16"/>
<polygon fill="none" stroke="#000000" stroke-opacity="0.200000" points="678.98,-371.19 685.31,-370.64 680.02,-367.12 678.98,-371.19"/>
</g>
<!-- src/infrastructure/video/VideoFileParser.ts&#45;&gt;src/domain/valueObjects/index.ts -->
<g id="edge24" class="edge">
<title>src/infrastructure/video/VideoFileParser.ts&#45;&gt;src/domain/valueObjects/index.ts</title>
<path fill="none" stroke="#000000" stroke-width="2" stroke-opacity="0.200000" d="M333.67,-65.97C349.23,-78.69 374.6,-102.29 386.25,-129 394.1,-147 382.76,-201.08 394.25,-217 429.36,-265.66 465.14,-242.59 518,-271 575.61,-301.96 606.7,-295.63 641.5,-351 656.52,-374.9 631.85,-391.97 649.5,-414 656.64,-422.91 667.53,-428.37 678.3,-431.72"/>
<polygon fill="#000000" fill-opacity="0.200000" stroke="#000000" stroke-width="2" stroke-opacity="0.200000" points="677.57,-433.7 683.91,-433.2 678.64,-429.64 677.57,-433.7"/>
</g>
<!-- src/infrastructure/video/VideoFileParser.ts&#45;&gt;src/infrastructure/video/HTMLVideoProcessor.ts -->
<g id="edge22" class="edge">
<title>src/infrastructure/video/VideoFileParser.ts&#45;&gt;src/infrastructure/video/HTMLVideoProcessor.ts</title>
<path fill="none" stroke="#000000" stroke-width="2" stroke-opacity="0.200000" d="M365.9,-53.57C372.18,-53.23 378.73,-52.88 385.28,-52.53"/>
<polygon fill="#000000" fill-opacity="0.200000" stroke="#000000" stroke-width="2" stroke-opacity="0.200000" points="385.3,-54.63 391.18,-52.22 385.08,-50.44 385.3,-54.63"/>
</g>
<!-- src/presentation/components/utils/DiagnosticsPanel.vue -->
<g id="node16" class="node">
<title>src/presentation/components/utils/DiagnosticsPanel.vue</title>
<g id="a_node16"><a xlink:href="src/presentation/components/utils/DiagnosticsPanel.vue" xlink:title="DiagnosticsPanel.vue">
<path fill="#41f083" stroke="black" d="M139.58,-59.62C139.58,-59.62 46.42,-59.62 46.42,-59.62 43.21,-59.62 40,-56.42 40,-53.21 40,-53.21 40,-46.79 40,-46.79 40,-43.58 43.21,-40.38 46.42,-40.38 46.42,-40.38 139.58,-40.38 139.58,-40.38 142.79,-40.38 146,-43.58 146,-46.79 146,-46.79 146,-53.21 146,-53.21 146,-56.42 142.79,-59.62 139.58,-59.62"/>
<text text-anchor="start" x="48" y="-47.08" font-family="Helvetica,sans-Serif" font-size="9.00">DiagnosticsPanel.vue</text>
</a>
</g>
</g>
<!-- src/presentation/components/utils/DiagnosticsPanel.vue&#45;&gt;src/infrastructure/services/index.ts -->
<g id="edge27" class="edge">
<title>src/presentation/components/utils/DiagnosticsPanel.vue&#45;&gt;src/infrastructure/services/index.ts</title>
<path fill="none" stroke="#000000" stroke-width="2" stroke-opacity="0.200000" d="M106.54,-59.95C128.62,-77.47 174.55,-113.93 200.7,-134.68"/>
<polygon fill="#000000" fill-opacity="0.200000" stroke="#000000" stroke-width="2" stroke-opacity="0.200000" points="199.13,-136.12 205.14,-138.2 201.74,-132.83 199.13,-136.12"/>
</g>
</g>
</svg>
