<?xml version="1.0" encoding="UTF-8" standalone="no"?>
<!DOCTYPE svg PUBLIC "-//W3C//DTD SVG 1.1//EN"
 "http://www.w3.org/Graphics/SVG/1.1/DTD/svg11.dtd">
<!-- Generated by graphviz version 9.0.0 (20230911.1827)
 -->
<!-- Title: dependency&#45;cruiser output Pages: 1 -->
<svg width="1198pt" height="506pt"
 viewBox="0.00 0.00 1198.00 506.00" xmlns="http://www.w3.org/2000/svg" xmlns:xlink="http://www.w3.org/1999/xlink">
<g id="graph0" class="graph" transform="scale(1 1) rotate(0) translate(4 502)">
<title>dependency&#45;cruiser output</title>
<polygon fill="white" stroke="none" points="-4,4 -4,-502 1194,-502 1194,4 -4,4"/>
<g id="clust1" class="cluster">
<title>cluster_src</title>
<path fill="#ffffff" stroke="black" stroke-width="2" d="M20,-8C20,-8 1170,-8 1170,-8 1176,-8 1182,-14 1182,-20 1182,-20 1182,-478 1182,-478 1182,-484 1176,-490 1170,-490 1170,-490 20,-490 20,-490 14,-490 8,-484 8,-478 8,-478 8,-20 8,-20 8,-14 14,-8 20,-8"/>
<text text-anchor="middle" x="595" y="-477.45" font-family="Helvetica,sans-Serif" font-weight="bold" font-size="9.00">src</text>
</g>
<g id="clust2" class="cluster">
<title>cluster_src/components</title>
<path fill="#ffffff" stroke="black" stroke-width="2" d="M28,-47C28,-47 128.5,-47 128.5,-47 134.5,-47 140.5,-53 140.5,-59 140.5,-59 140.5,-153 140.5,-153 140.5,-159 134.5,-165 128.5,-165 128.5,-165 28,-165 28,-165 22,-165 16,-159 16,-153 16,-153 16,-59 16,-59 16,-53 22,-47 28,-47"/>
<text text-anchor="middle" x="78.25" y="-152.45" font-family="Helvetica,sans-Serif" font-weight="bold" font-size="9.00">components</text>
</g>
<g id="clust3" class="cluster">
<title>cluster_src/components/inputs</title>
<path fill="#ffffff" stroke="black" stroke-width="2" d="M36,-83C36,-83 120.5,-83 120.5,-83 126.5,-83 132.5,-89 132.5,-95 132.5,-95 132.5,-126 132.5,-126 132.5,-132 126.5,-138 120.5,-138 120.5,-138 36,-138 36,-138 30,-138 24,-132 24,-126 24,-126 24,-95 24,-95 24,-89 30,-83 36,-83"/>
<text text-anchor="middle" x="78.25" y="-125.45" font-family="Helvetica,sans-Serif" font-weight="bold" font-size="9.00">inputs</text>
</g>
<g id="clust4" class="cluster">
<title>cluster_src/services</title>
<path fill="#ffffff" stroke="black" stroke-width="2" d="M259,-16C259,-16 1162,-16 1162,-16 1168,-16 1174,-22 1174,-28 1174,-28 1174,-451 1174,-451 1174,-457 1168,-463 1162,-463 1162,-463 259,-463 259,-463 253,-463 247,-457 247,-451 247,-451 247,-28 247,-28 247,-22 253,-16 259,-16"/>
<text text-anchor="middle" x="710.5" y="-450.45" font-family="Helvetica,sans-Serif" font-weight="bold" font-size="9.00">services</text>
</g>
<g id="clust18" class="cluster">
<title>cluster_src/services/VideoParsers</title>
<path fill="#ffffff" stroke="black" stroke-width="2" d="M345,-100C345,-100 395,-100 395,-100 401,-100 407,-106 407,-112 407,-112 407,-143 407,-143 407,-149 401,-155 395,-155 395,-155 345,-155 345,-155 339,-155 333,-149 333,-143 333,-143 333,-112 333,-112 333,-106 339,-100 345,-100"/>
<text text-anchor="middle" x="370" y="-142.45" font-family="Helvetica,sans-Serif" font-weight="bold" font-size="9.00">VideoParsers</text>
</g>
<g id="clust6" class="cluster">
<title>cluster_src/services/StorageController</title>
<path fill="#ffffff" stroke="black" stroke-width="2" d="M443,-87C443,-87 1154,-87 1154,-87 1160,-87 1166,-93 1166,-99 1166,-99 1166,-424 1166,-424 1166,-430 1160,-436 1154,-436 1154,-436 443,-436 443,-436 437,-436 431,-430 431,-424 431,-424 431,-99 431,-99 431,-93 437,-87 443,-87"/>
<text text-anchor="middle" x="798.5" y="-423.45" font-family="Helvetica,sans-Serif" font-weight="bold" font-size="9.00">StorageController</text>
</g>
<g id="clust11" class="cluster">
<title>cluster_src/services/StorageController/infrastructure</title>
<path fill="#ffffff" stroke="black" stroke-width="2" d="M656,-150C656,-150 909,-150 909,-150 915,-150 921,-156 921,-162 921,-162 921,-228 921,-228 921,-234 915,-240 909,-240 909,-240 656,-240 656,-240 650,-240 644,-234 644,-228 644,-228 644,-162 644,-162 644,-156 650,-150 656,-150"/>
<text text-anchor="middle" x="782.5" y="-227.45" font-family="Helvetica,sans-Serif" font-weight="bold" font-size="9.00">infrastructure</text>
</g>
<g id="clust12" class="cluster">
<title>cluster_src/services/StorageController/infrastructure/database</title>
<path fill="#ffffff" stroke="black" stroke-width="2" d="M795.5,-158C795.5,-158 901,-158 901,-158 907,-158 913,-164 913,-170 913,-170 913,-201 913,-201 913,-207 907,-213 901,-213 901,-213 795.5,-213 795.5,-213 789.5,-213 783.5,-207 783.5,-201 783.5,-201 783.5,-170 783.5,-170 783.5,-164 789.5,-158 795.5,-158"/>
<text text-anchor="middle" x="848.25" y="-200.45" font-family="Helvetica,sans-Serif" font-weight="bold" font-size="9.00">database</text>
</g>
<g id="clust13" class="cluster">
<title>cluster_src/services/StorageController/infrastructure/repository</title>
<path fill="#ffffff" stroke="black" stroke-width="2" d="M664,-158C664,-158 763.5,-158 763.5,-158 769.5,-158 775.5,-164 775.5,-170 775.5,-170 775.5,-201 775.5,-201 775.5,-207 769.5,-213 763.5,-213 763.5,-213 664,-213 664,-213 658,-213 652,-207 652,-201 652,-201 652,-170 652,-170 652,-164 658,-158 664,-158"/>
<text text-anchor="middle" x="713.75" y="-200.45" font-family="Helvetica,sans-Serif" font-weight="bold" font-size="9.00">repository</text>
</g>
<g id="clust14" class="cluster">
<title>cluster_src/services/StorageController/migrations</title>
<path fill="#ffffff" stroke="black" stroke-width="2" d="M690.75,-256C690.75,-256 1141.38,-256 1141.38,-256 1147.38,-256 1153.38,-262 1153.38,-268 1153.38,-268 1153.38,-397 1153.38,-397 1153.38,-403 1147.38,-409 1141.38,-409 1141.38,-409 690.75,-409 690.75,-409 684.75,-409 678.75,-403 678.75,-397 678.75,-397 678.75,-268 678.75,-268 678.75,-262 684.75,-256 690.75,-256"/>
<text text-anchor="middle" x="916.06" y="-396.45" font-family="Helvetica,sans-Serif" font-weight="bold" font-size="9.00">migrations</text>
</g>
<g id="clust17" class="cluster">
<title>cluster_src/services/StorageController/migrations/v2</title>
<path fill="#ffffff" stroke="black" stroke-width="2" d="M976.88,-327C976.88,-327 1022.88,-327 1022.88,-327 1028.88,-327 1034.88,-333 1034.88,-339 1034.88,-339 1034.88,-370 1034.88,-370 1034.88,-376 1028.88,-382 1022.88,-382 1022.88,-382 976.88,-382 976.88,-382 970.88,-382 964.88,-376 964.88,-370 964.88,-370 964.88,-339 964.88,-339 964.88,-333 970.88,-327 976.88,-327"/>
<text text-anchor="middle" x="999.88" y="-369.45" font-family="Helvetica,sans-Serif" font-weight="bold" font-size="9.00">v2</text>
</g>
<g id="clust16" class="cluster">
<title>cluster_src/services/StorageController/migrations/v1</title>
<path fill="#ffffff" stroke="black" stroke-width="2" d="M976.88,-264C976.88,-264 1022.88,-264 1022.88,-264 1028.88,-264 1034.88,-270 1034.88,-276 1034.88,-276 1034.88,-307 1034.88,-307 1034.88,-313 1028.88,-319 1022.88,-319 1022.88,-319 976.88,-319 976.88,-319 970.88,-319 964.88,-313 964.88,-307 964.88,-307 964.88,-276 964.88,-276 964.88,-270 970.88,-264 976.88,-264"/>
<text text-anchor="middle" x="999.88" y="-306.45" font-family="Helvetica,sans-Serif" font-weight="bold" font-size="9.00">v1</text>
</g>
<g id="clust15" class="cluster">
<title>cluster_src/services/StorageController/migrations/utils</title>
<path fill="#ffffff" stroke="black" stroke-width="2" d="M1087.38,-295C1087.38,-295 1133.38,-295 1133.38,-295 1139.38,-295 1145.38,-301 1145.38,-307 1145.38,-307 1145.38,-338 1145.38,-338 1145.38,-344 1139.38,-350 1133.38,-350 1133.38,-350 1087.38,-350 1087.38,-350 1081.38,-350 1075.38,-344 1075.38,-338 1075.38,-338 1075.38,-307 1075.38,-307 1075.38,-301 1081.38,-295 1087.38,-295"/>
<text text-anchor="middle" x="1110.38" y="-337.45" font-family="Helvetica,sans-Serif" font-weight="bold" font-size="9.00">utils</text>
</g>
<g id="clust7" class="cluster">
<title>cluster_src/services/StorageController/domain</title>
<path fill="#ffffff" stroke="black" stroke-width="2" d="M941,-95C941,-95 1146,-95 1146,-95 1152,-95 1158,-101 1158,-107 1158,-107 1158,-236 1158,-236 1158,-242 1152,-248 1146,-248 1146,-248 941,-248 941,-248 935,-248 929,-242 929,-236 929,-236 929,-107 929,-107 929,-101 935,-95 941,-95"/>
<text text-anchor="middle" x="1043.5" y="-235.45" font-family="Helvetica,sans-Serif" font-weight="bold" font-size="9.00">domain</text>
</g>
<g id="clust10" class="cluster">
<title>cluster_src/services/StorageController/domain/repositories</title>
<path fill="#ffffff" stroke="black" stroke-width="2" d="M949,-166C949,-166 1050.75,-166 1050.75,-166 1056.75,-166 1062.75,-172 1062.75,-178 1062.75,-178 1062.75,-209 1062.75,-209 1062.75,-215 1056.75,-221 1050.75,-221 1050.75,-221 949,-221 949,-221 943,-221 937,-215 937,-209 937,-209 937,-178 937,-178 937,-172 943,-166 949,-166"/>
<text text-anchor="middle" x="999.88" y="-208.45" font-family="Helvetica,sans-Serif" font-weight="bold" font-size="9.00">repositories</text>
</g>
<g id="clust8" class="cluster">
<title>cluster_src/services/StorageController/domain/constants</title>
<path fill="#ffffff" stroke="black" stroke-width="2" d="M976.88,-103C976.88,-103 1022.88,-103 1022.88,-103 1028.88,-103 1034.88,-109 1034.88,-115 1034.88,-115 1034.88,-146 1034.88,-146 1034.88,-152 1028.88,-158 1022.88,-158 1022.88,-158 976.88,-158 976.88,-158 970.88,-158 964.88,-152 964.88,-146 964.88,-146 964.88,-115 964.88,-115 964.88,-109 970.88,-103 976.88,-103"/>
<text text-anchor="middle" x="999.88" y="-145.45" font-family="Helvetica,sans-Serif" font-weight="bold" font-size="9.00">constants</text>
</g>
<g id="clust9" class="cluster">
<title>cluster_src/services/StorageController/domain/entities</title>
<path fill="#ffffff" stroke="black" stroke-width="2" d="M1082.75,-166C1082.75,-166 1138,-166 1138,-166 1144,-166 1150,-172 1150,-178 1150,-178 1150,-209 1150,-209 1150,-215 1144,-221 1138,-221 1138,-221 1082.75,-221 1082.75,-221 1076.75,-221 1070.75,-215 1070.75,-209 1070.75,-209 1070.75,-178 1070.75,-178 1070.75,-172 1076.75,-166 1082.75,-166"/>
<text text-anchor="middle" x="1110.38" y="-208.45" font-family="Helvetica,sans-Serif" font-weight="bold" font-size="9.00">entities</text>
</g>
<g id="clust5" class="cluster">
<title>cluster_src/services/Filters</title>
<path fill="#ffffff" stroke="black" stroke-width="2" d="M347,-24C347,-24 489,-24 489,-24 495,-24 501,-30 501,-36 501,-36 501,-67 501,-67 501,-73 495,-79 489,-79 489,-79 347,-79 347,-79 341,-79 335,-73 335,-67 335,-67 335,-36 335,-36 335,-30 341,-24 347,-24"/>
<text text-anchor="middle" x="418" y="-66.45" font-family="Helvetica,sans-Serif" font-weight="bold" font-size="9.00">Filters</text>
</g>
<g id="clust19" class="cluster">
<title>cluster_src/stores</title>
<path fill="#ffffff" stroke="black" stroke-width="2" d="M160.5,-120C160.5,-120 227,-120 227,-120 233,-120 239,-126 239,-132 239,-132 239,-163 239,-163 239,-169 233,-175 227,-175 227,-175 160.5,-175 160.5,-175 154.5,-175 148.5,-169 148.5,-163 148.5,-163 148.5,-132 148.5,-132 148.5,-126 154.5,-120 160.5,-120"/>
<text text-anchor="middle" x="193.75" y="-162.45" font-family="Helvetica,sans-Serif" font-weight="bold" font-size="9.00">stores</text>
</g>
<!-- src/components/VideoCard.vue -->
<g id="node1" class="node">
<title>src/components/VideoCard.vue</title>
<g id="a_node1"><a xlink:href="src/components/VideoCard.vue" xlink:title="VideoCard.vue">
<path fill="#41f083" stroke="black" d="M109.83,-74.62C109.83,-74.62 46.67,-74.62 46.67,-74.62 43.46,-74.62 40.25,-71.42 40.25,-68.21 40.25,-68.21 40.25,-61.79 40.25,-61.79 40.25,-58.58 43.46,-55.38 46.67,-55.38 46.67,-55.38 109.83,-55.38 109.83,-55.38 113.04,-55.38 116.25,-58.58 116.25,-61.79 116.25,-61.79 116.25,-68.21 116.25,-68.21 116.25,-71.42 113.04,-74.62 109.83,-74.62"/>
<text text-anchor="start" x="48.25" y="-62.08" font-family="Helvetica,sans-Serif" font-size="9.00">VideoCard.vue</text>
</a>
</g>
</g>
<!-- src/services/index.ts -->
<g id="node2" class="node">
<title>src/services/index.ts</title>
<g id="a_node2"><a xlink:href="src/services/index.ts" xlink:title="index.ts">
<path fill="#ddfeff" stroke="black" d="M302.58,-100.62C302.58,-100.62 261.42,-100.62 261.42,-100.62 258.21,-100.62 255,-97.42 255,-94.21 255,-94.21 255,-87.79 255,-87.79 255,-84.58 258.21,-81.38 261.42,-81.38 261.42,-81.38 302.58,-81.38 302.58,-81.38 305.79,-81.38 309,-84.58 309,-87.79 309,-87.79 309,-94.21 309,-94.21 309,-97.42 305.79,-100.62 302.58,-100.62"/>
<text text-anchor="start" x="266.25" y="-88.08" font-family="Helvetica,sans-Serif" font-size="9.00">index.ts</text>
</a>
</g>
</g>
<!-- src/components/VideoCard.vue&#45;&gt;src/services/index.ts -->
<g id="edge1" class="edge">
<title>src/components/VideoCard.vue&#45;&gt;src/services/index.ts</title>
<path fill="none" stroke="#000000" stroke-width="2" stroke-opacity="0.200000" d="M116.44,-64.69C149.07,-65.1 197.64,-67.36 239,-76 241.97,-76.62 245.02,-77.4 248.04,-78.28"/>
<polygon fill="#000000" fill-opacity="0.200000" stroke="#000000" stroke-width="2" stroke-opacity="0.200000" points="247.21,-80.22 253.57,-80.04 248.49,-76.22 247.21,-80.22"/>
</g>
<!-- src/services/Filters/index.ts -->
<g id="node7" class="node">
<title>src/services/Filters/index.ts</title>
<g id="a_node7"><a xlink:href="src/services/Filters/index.ts" xlink:title="index.ts">
<path fill="#ddfeff" stroke="black" d="M390.58,-51.62C390.58,-51.62 349.42,-51.62 349.42,-51.62 346.21,-51.62 343,-48.42 343,-45.21 343,-45.21 343,-38.79 343,-38.79 343,-35.58 346.21,-32.38 349.42,-32.38 349.42,-32.38 390.58,-32.38 390.58,-32.38 393.79,-32.38 397,-35.58 397,-38.79 397,-38.79 397,-45.21 397,-45.21 397,-48.42 393.79,-51.62 390.58,-51.62"/>
<text text-anchor="start" x="354.25" y="-39.08" font-family="Helvetica,sans-Serif" font-size="9.00">index.ts</text>
</a>
</g>
</g>
<!-- src/services/index.ts&#45;&gt;src/services/Filters/index.ts -->
<g id="edge22" class="edge">
<title>src/services/index.ts&#45;&gt;src/services/Filters/index.ts</title>
<path fill="none" stroke="#000000" stroke-width="2" stroke-opacity="0.200000" d="M295.61,-80.89C305.4,-73.37 319.54,-63.19 342.71,-51.37"/>
<polygon fill="#000000" fill-opacity="0.200000" stroke="#000000" stroke-width="2" stroke-opacity="0.200000" points="345.52,-49.98 349.42,-58.08 341.32,-54.18 345.52,-49.98"/>
</g>
<!-- src/services/StorageController/index.ts -->
<g id="node14" class="node">
<title>src/services/StorageController/index.ts</title>
<g id="a_node14"><a xlink:href="src/services/StorageController/index.ts" xlink:title="index.ts">
<path fill="#ddfeff" stroke="black" d="M486.58,-127.62C486.58,-127.62 445.42,-127.62 445.42,-127.62 442.21,-127.62 439,-124.42 439,-121.21 439,-121.21 439,-114.79 439,-114.79 439,-111.58 442.21,-108.38 445.42,-108.38 445.42,-108.38 486.58,-108.38 486.58,-108.38 489.79,-108.38 493,-111.58 493,-114.79 493,-114.79 493,-121.21 493,-121.21 493,-124.42 489.79,-127.62 486.58,-127.62"/>
<text text-anchor="start" x="450.25" y="-115.08" font-family="Helvetica,sans-Serif" font-size="9.00">index.ts</text>
</a>
</g>
</g>
<!-- src/services/index.ts&#45;&gt;src/services/StorageController/index.ts -->
<g id="edge23" class="edge">
<title>src/services/index.ts&#45;&gt;src/services/StorageController/index.ts</title>
<path fill="none" stroke="#000000" stroke-width="2" stroke-opacity="0.200000" d="M309.4,-90.01C334.7,-89.6 373.82,-90.35 442.03,-107.89"/>
<polygon fill="#000000" fill-opacity="0.200000" stroke="#000000" stroke-width="2" stroke-opacity="0.200000" points="444.84,-106.5 448.74,-114.6 440.64,-110.7 444.84,-106.5"/>
</g>
<!-- src/services/VideoParsers/index.ts -->
<g id="node20" class="node">
<title>src/services/VideoParsers/index.ts</title>
<g id="a_node20"><a xlink:href="src/services/VideoParsers/index.ts" xlink:title="index.ts">
<path fill="#ddfeff" stroke="black" d="M390.58,-127.62C390.58,-127.62 349.42,-127.62 349.42,-127.62 346.21,-127.62 343,-124.42 343,-121.21 343,-121.21 343,-114.79 343,-114.79 343,-111.58 346.21,-108.38 349.42,-108.38 349.42,-108.38 390.58,-108.38 390.58,-108.38 393.79,-108.38 397,-111.58 397,-114.79 397,-114.79 397,-121.21 397,-121.21 397,-124.42 393.79,-127.62 390.58,-127.62"/>
<text text-anchor="start" x="354.25" y="-115.08" font-family="Helvetica,sans-Serif" font-size="9.00">index.ts</text>
</a>
</g>
</g>
<!-- src/services/index.ts&#45;&gt;src/services/VideoParsers/index.ts -->
<g id="edge24" class="edge">
<title>src/services/index.ts&#45;&gt;src/services/VideoParsers/index.ts</title>
<path fill="none" stroke="#000000" stroke-width="2" stroke-opacity="0.200000" d="M309.27,-99.25C319.84,-102.57 332.01,-106.39 342.59,-109.71"/>
<polygon fill="#000000" fill-opacity="0.200000" stroke="#000000" stroke-width="2" stroke-opacity="0.200000" points="345.4,-108.32 349.3,-116.42 341.2,-112.52 345.4,-108.32"/>
</g>
<!-- src/components/inputs/FolderSelector.vue -->
<g id="node3" class="node">
<title>src/components/inputs/FolderSelector.vue</title>
<g id="a_node3"><a xlink:href="src/components/inputs/FolderSelector.vue" xlink:title="FolderSelector.vue">
<path fill="#41f083" stroke="black" d="M118.08,-110.62C118.08,-110.62 38.42,-110.62 38.42,-110.62 35.21,-110.62 32,-107.42 32,-104.21 32,-104.21 32,-97.79 32,-97.79 32,-94.58 35.21,-91.38 38.42,-91.38 38.42,-91.38 118.08,-91.38 118.08,-91.38 121.29,-91.38 124.5,-94.58 124.5,-97.79 124.5,-97.79 124.5,-104.21 124.5,-104.21 124.5,-107.42 121.29,-110.62 118.08,-110.62"/>
<text text-anchor="start" x="40" y="-98.08" font-family="Helvetica,sans-Serif" font-size="9.00">FolderSelector.vue</text>
</a>
</g>
</g>
<!-- src/components/inputs/FolderSelector.vue&#45;&gt;src/services/index.ts -->
<g id="edge2" class="edge">
<title>src/components/inputs/FolderSelector.vue&#45;&gt;src/services/index.ts</title>
<path fill="none" stroke="#000000" stroke-width="2" stroke-opacity="0.200000" d="M124.92,-91.27C130.2,-89.94 135.49,-88.51 140.5,-87 144.14,-85.91 144.76,-84.68 148.5,-84 188.08,-76.82 198.91,-80.68 239,-84 241.42,-84.2 243.9,-84.46 246.41,-84.77"/>
<polygon fill="#000000" fill-opacity="0.200000" stroke="#000000" stroke-width="2" stroke-opacity="0.200000" points="245.64,-86.78 251.87,-85.54 246.22,-82.63 245.64,-86.78"/>
</g>
<!-- src/stores/videosStore.ts -->
<g id="node4" class="node">
<title>src/stores/videosStore.ts</title>
<g id="a_node4"><a xlink:href="src/stores/videosStore.ts" xlink:title="videosStore.ts">
<path fill="#ddfeff" stroke="black" d="M224.58,-147.62C224.58,-147.62 162.92,-147.62 162.92,-147.62 159.71,-147.62 156.5,-144.42 156.5,-141.21 156.5,-141.21 156.5,-134.79 156.5,-134.79 156.5,-131.58 159.71,-128.38 162.92,-128.38 162.92,-128.38 224.58,-128.38 224.58,-128.38 227.79,-128.38 231,-131.58 231,-134.79 231,-134.79 231,-141.21 231,-141.21 231,-144.42 227.79,-147.62 224.58,-147.62"/>
<text text-anchor="start" x="164.5" y="-135.07" font-family="Helvetica,sans-Serif" font-size="9.00">videosStore.ts</text>
</a>
</g>
</g>
<!-- src/components/inputs/FolderSelector.vue&#45;&gt;src/stores/videosStore.ts -->
<g id="edge3" class="edge">
<title>src/components/inputs/FolderSelector.vue&#45;&gt;src/stores/videosStore.ts</title>
<path fill="none" stroke="#000000" stroke-width="2" stroke-opacity="0.200000" d="M109.22,-111.06C121.39,-115.12 135.61,-119.82 148.5,-124 149.75,-124.4 151.01,-124.81 152.29,-125.22"/>
<polygon fill="#000000" fill-opacity="0.200000" stroke="#000000" stroke-width="2" stroke-opacity="0.200000" points="151.59,-127.21 157.95,-127.04 152.87,-123.21 151.59,-127.21"/>
</g>
<!-- src/stores/videosStore.ts&#45;&gt;src/services/index.ts -->
<g id="edge25" class="edge">
<title>src/stores/videosStore.ts&#45;&gt;src/services/index.ts</title>
<path fill="none" stroke="#000000" stroke-width="2" stroke-opacity="0.200000" d="M230.48,-127.95C233.41,-126.75 236.29,-125.43 239,-124 247.85,-119.32 256.71,-112.72 264,-106.64"/>
<polygon fill="#000000" fill-opacity="0.200000" stroke="#000000" stroke-width="2" stroke-opacity="0.200000" points="265.25,-108.34 268.41,-102.82 262.5,-105.16 265.25,-108.34"/>
</g>
<!-- src/main.ts -->
<g id="node5" class="node">
<title>src/main.ts</title>
<g id="a_node5"><a xlink:href="src/main.ts" xlink:title="main.ts">
<path fill="#ddfeff" stroke="black" d="M214.33,-111.62C214.33,-111.62 173.17,-111.62 173.17,-111.62 169.96,-111.62 166.75,-108.42 166.75,-105.21 166.75,-105.21 166.75,-98.79 166.75,-98.79 166.75,-95.58 169.96,-92.38 173.17,-92.38 173.17,-92.38 214.33,-92.38 214.33,-92.38 217.54,-92.38 220.75,-95.58 220.75,-98.79 220.75,-98.79 220.75,-105.21 220.75,-105.21 220.75,-108.42 217.54,-111.62 214.33,-111.62"/>
<text text-anchor="start" x="178.38" y="-99.08" font-family="Helvetica,sans-Serif" font-size="9.00">main.ts</text>
</a>
</g>
</g>
<!-- src/main.ts&#45;&gt;src/services/index.ts -->
<g id="edge4" class="edge">
<title>src/main.ts&#45;&gt;src/services/index.ts</title>
<path fill="none" stroke="#000000" stroke-width="2" stroke-opacity="0.200000" d="M221.1,-98.64C228.88,-97.65 237.53,-96.54 245.78,-95.49"/>
<polygon fill="#000000" fill-opacity="0.200000" stroke="#000000" stroke-width="2" stroke-opacity="0.200000" points="245.83,-97.6 251.51,-94.76 245.3,-93.44 245.83,-97.6"/>
</g>
<!-- src/services/Filters/Filters.ts -->
<g id="node6" class="node">
<title>src/services/Filters/Filters.ts</title>
<g id="a_node6"><a xlink:href="src/services/Filters/Filters.ts" xlink:title="Filters.ts">
<path fill="#ddfeff" stroke="black" d="M486.58,-51.62C486.58,-51.62 445.42,-51.62 445.42,-51.62 442.21,-51.62 439,-48.42 439,-45.21 439,-45.21 439,-38.79 439,-38.79 439,-35.58 442.21,-32.38 445.42,-32.38 445.42,-32.38 486.58,-32.38 486.58,-32.38 489.79,-32.38 493,-35.58 493,-38.79 493,-38.79 493,-45.21 493,-45.21 493,-48.42 489.79,-51.62 486.58,-51.62"/>
<text text-anchor="start" x="448.38" y="-39.08" font-family="Helvetica,sans-Serif" font-size="9.00">Filters.ts</text>
</a>
</g>
</g>
<!-- src/services/Filters/index.ts&#45;&gt;src/services/Filters/Filters.ts -->
<g id="edge5" class="edge">
<title>src/services/Filters/index.ts&#45;&gt;src/services/Filters/Filters.ts</title>
<path fill="none" stroke="#000000" stroke-width="2" stroke-opacity="0.200000" d="M397.43,-42C410.36,-42 425.87,-42 438.76,-42"/>
<polygon fill="#000000" fill-opacity="0.200000" stroke="#000000" stroke-width="2" stroke-opacity="0.200000" points="441.57,-40.61 445.47,-48.71 437.37,-44.81 441.57,-40.61"/>
</g>
<!-- src/services/StorageController/VideoMetadataController.ts -->
<g id="node8" class="node">
<title>src/services/StorageController/VideoMetadataController.ts</title>
<g id="a_node8"><a xlink:href="src/services/StorageController/VideoMetadataController.ts" xlink:title="VideoMetadataController.ts">
<path fill="#ddfeff" stroke="black" d="M629.58,-157.62C629.58,-157.62 515.42,-157.62 515.42,-157.62 512.21,-157.62 509,-154.42 509,-151.21 509,-151.21 509,-144.79 509,-144.79 509,-141.58 512.21,-138.38 515.42,-138.38 515.42,-138.38 629.58,-138.38 629.58,-138.38 632.79,-138.38 636,-141.58 636,-144.79 636,-144.79 636,-151.21 636,-151.21 636,-154.42 632.79,-157.62 629.58,-157.62"/>
<text text-anchor="start" x="517" y="-145.07" font-family="Helvetica,sans-Serif" font-size="9.00">VideoMetadataController.ts</text>
</a>
</g>
</g>
<!-- src/services/StorageController/domain/constants/index.ts -->
<g id="node9" class="node">
<title>src/services/StorageController/domain/constants/index.ts</title>
<g id="a_node9"><a xlink:href="src/services/StorageController/domain/constants/index.ts" xlink:title="index.ts">
<path fill="#ddfeff" stroke="black" d="M1020.46,-130.62C1020.46,-130.62 979.29,-130.62 979.29,-130.62 976.08,-130.62 972.88,-127.42 972.88,-124.21 972.88,-124.21 972.88,-117.79 972.88,-117.79 972.88,-114.58 976.08,-111.38 979.29,-111.38 979.29,-111.38 1020.46,-111.38 1020.46,-111.38 1023.67,-111.38 1026.88,-114.58 1026.88,-117.79 1026.88,-117.79 1026.88,-124.21 1026.88,-124.21 1026.88,-127.42 1023.67,-130.62 1020.46,-130.62"/>
<text text-anchor="start" x="984.12" y="-118.08" font-family="Helvetica,sans-Serif" font-size="9.00">index.ts</text>
</a>
</g>
</g>
<!-- src/services/StorageController/VideoMetadataController.ts&#45;&gt;src/services/StorageController/domain/constants/index.ts -->
<g id="edge6" class="edge">
<title>src/services/StorageController/VideoMetadataController.ts&#45;&gt;src/services/StorageController/domain/constants/index.ts</title>
<path fill="none" stroke="#000000" stroke-width="2" stroke-opacity="0.200000" d="M636.35,-140.52C678.02,-135.86 733.95,-130.16 783.5,-127 846.97,-122.95 921.14,-121.63 963.79,-121.2"/>
<polygon fill="#000000" fill-opacity="0.200000" stroke="#000000" stroke-width="2" stroke-opacity="0.200000" points="963.65,-123.31 969.63,-121.15 963.61,-119.11 963.65,-123.31"/>
</g>
<!-- src/services/StorageController/infrastructure/repository/MetadataRepository.ts -->
<g id="node10" class="node">
<title>src/services/StorageController/infrastructure/repository/MetadataRepository.ts</title>
<g id="a_node10"><a xlink:href="src/services/StorageController/infrastructure/repository/MetadataRepository.ts" xlink:title="MetadataRepository.ts">
<path fill="#ddfeff" stroke="black" d="M761.08,-185.62C761.08,-185.62 666.42,-185.62 666.42,-185.62 663.21,-185.62 660,-182.42 660,-179.21 660,-179.21 660,-172.79 660,-172.79 660,-169.58 663.21,-166.38 666.42,-166.38 666.42,-166.38 761.08,-166.38 761.08,-166.38 764.29,-166.38 767.5,-169.58 767.5,-172.79 767.5,-172.79 767.5,-179.21 767.5,-179.21 767.5,-182.42 764.29,-185.62 761.08,-185.62"/>
<text text-anchor="start" x="668" y="-173.07" font-family="Helvetica,sans-Serif" font-size="9.00">MetadataRepository.ts</text>
</a>
</g>
</g>
<!-- src/services/StorageController/VideoMetadataController.ts&#45;&gt;src/services/StorageController/infrastructure/repository/MetadataRepository.ts -->
<g id="edge7" class="edge">
<title>src/services/StorageController/VideoMetadataController.ts&#45;&gt;src/services/StorageController/infrastructure/repository/MetadataRepository.ts</title>
<path fill="none" stroke="#000000" stroke-width="2" stroke-opacity="0.200000" d="M623.77,-158.11C633.53,-160.07 643.85,-162.14 653.85,-164.16"/>
<polygon fill="#000000" fill-opacity="0.200000" stroke="#000000" stroke-width="2" stroke-opacity="0.200000" points="653.29,-166.19 659.58,-165.31 654.12,-162.07 653.29,-166.19"/>
</g>
<!-- src/services/StorageController/migrations/index.ts -->
<g id="node11" class="node">
<title>src/services/StorageController/migrations/index.ts</title>
<g id="a_node11"><a xlink:href="src/services/StorageController/migrations/index.ts" xlink:title="index.ts">
<path fill="#ddfeff" stroke="black" d="M734.33,-287.62C734.33,-287.62 693.17,-287.62 693.17,-287.62 689.96,-287.62 686.75,-284.42 686.75,-281.21 686.75,-281.21 686.75,-274.79 686.75,-274.79 686.75,-271.58 689.96,-268.38 693.17,-268.38 693.17,-268.38 734.33,-268.38 734.33,-268.38 737.54,-268.38 740.75,-271.58 740.75,-274.79 740.75,-274.79 740.75,-281.21 740.75,-281.21 740.75,-284.42 737.54,-287.62 734.33,-287.62"/>
<text text-anchor="start" x="698" y="-275.07" font-family="Helvetica,sans-Serif" font-size="9.00">index.ts</text>
</a>
</g>
</g>
<!-- src/services/StorageController/VideoMetadataController.ts&#45;&gt;src/services/StorageController/migrations/index.ts -->
<g id="edge8" class="edge">
<title>src/services/StorageController/VideoMetadataController.ts&#45;&gt;src/services/StorageController/migrations/index.ts</title>
<path fill="none" stroke="#000000" stroke-width="2" stroke-opacity="0.200000" d="M583.44,-157.79C597,-171.1 622.11,-195.59 644,-216 661.02,-231.87 680.77,-249.62 694.73,-262.04"/>
<polygon fill="#000000" fill-opacity="0.200000" stroke="#000000" stroke-width="2" stroke-opacity="0.200000" points="693.31,-263.59 699.19,-266.01 696.1,-260.45 693.31,-263.59"/>
</g>
<!-- src/services/StorageController/infrastructure/repository/MetadataRepository.ts&#45;&gt;src/services/StorageController/domain/constants/index.ts -->
<g id="edge12" class="edge">
<title>src/services/StorageController/infrastructure/repository/MetadataRepository.ts&#45;&gt;src/services/StorageController/domain/constants/index.ts</title>
<path fill="none" stroke="#000000" stroke-width="2" stroke-opacity="0.200000" d="M767.79,-167.4C770.55,-165.87 773.15,-164.08 775.5,-162 783.29,-155.11 775.2,-146.27 783.5,-140 795.72,-130.76 905.75,-131.44 921,-130 934.98,-128.68 950.34,-126.97 963.7,-125.39"/>
<polygon fill="#000000" fill-opacity="0.200000" stroke="#000000" stroke-width="2" stroke-opacity="0.200000" points="963.88,-127.48 969.58,-124.68 963.38,-123.31 963.88,-127.48"/>
</g>
<!-- src/services/StorageController/domain/entities/Metadata.ts -->
<g id="node12" class="node">
<title>src/services/StorageController/domain/entities/Metadata.ts</title>
<g id="a_node12"><a xlink:href="src/services/StorageController/domain/entities/Metadata.ts" xlink:title="Metadata.ts">
<path fill="#ddfeff" stroke="black" d="M1135.58,-193.62C1135.58,-193.62 1085.17,-193.62 1085.17,-193.62 1081.96,-193.62 1078.75,-190.42 1078.75,-187.21 1078.75,-187.21 1078.75,-180.79 1078.75,-180.79 1078.75,-177.58 1081.96,-174.38 1085.17,-174.38 1085.17,-174.38 1135.58,-174.38 1135.58,-174.38 1138.79,-174.38 1142,-177.58 1142,-180.79 1142,-180.79 1142,-187.21 1142,-187.21 1142,-190.42 1138.79,-193.62 1135.58,-193.62"/>
<text text-anchor="start" x="1086.75" y="-181.07" font-family="Helvetica,sans-Serif" font-size="9.00">Metadata.ts</text>
</a>
</g>
</g>
<!-- src/services/StorageController/infrastructure/repository/MetadataRepository.ts&#45;&gt;src/services/StorageController/domain/entities/Metadata.ts -->
<g id="edge13" class="edge">
<title>src/services/StorageController/infrastructure/repository/MetadataRepository.ts&#45;&gt;src/services/StorageController/domain/entities/Metadata.ts</title>
<path fill="none" stroke="#000000" stroke-opacity="0.200000" d="M727.57,-185.98C740.77,-195.62 762.33,-209.66 783.5,-216 902.44,-251.62 946.31,-267.1 1062.75,-224 1076.17,-219.03 1088.33,-208.29 1096.86,-199.18"/>
<polygon fill="none" stroke="#000000" stroke-opacity="0.200000" points="1098.24,-200.79 1100.68,-194.92 1095.11,-197.99 1098.24,-200.79"/>
</g>
<!-- src/services/StorageController/domain/repositories/IMetadataRepository.ts -->
<g id="node13" class="node">
<title>src/services/StorageController/domain/repositories/IMetadataRepository.ts</title>
<g id="a_node13"><a xlink:href="src/services/StorageController/domain/repositories/IMetadataRepository.ts" xlink:title="IMetadataRepository.ts">
<path fill="#ddfeff" stroke="black" d="M1048.33,-193.62C1048.33,-193.62 951.42,-193.62 951.42,-193.62 948.21,-193.62 945,-190.42 945,-187.21 945,-187.21 945,-180.79 945,-180.79 945,-177.58 948.21,-174.38 951.42,-174.38 951.42,-174.38 1048.33,-174.38 1048.33,-174.38 1051.54,-174.38 1054.75,-177.58 1054.75,-180.79 1054.75,-180.79 1054.75,-187.21 1054.75,-187.21 1054.75,-190.42 1051.54,-193.62 1048.33,-193.62"/>
<text text-anchor="start" x="953" y="-181.07" font-family="Helvetica,sans-Serif" font-size="9.00">IMetadataRepository.ts</text>
</a>
</g>
</g>
<!-- src/services/StorageController/infrastructure/repository/MetadataRepository.ts&#45;&gt;src/services/StorageController/domain/repositories/IMetadataRepository.ts -->
<g id="edge14" class="edge">
<title>src/services/StorageController/infrastructure/repository/MetadataRepository.ts&#45;&gt;src/services/StorageController/domain/repositories/IMetadataRepository.ts</title>
<path fill="none" stroke="#000000" stroke-opacity="0.200000" d="M766.43,-165.99C769.56,-164.8 772.61,-163.48 775.5,-162 779.71,-159.85 779.08,-156.66 783.5,-155 840.71,-133.51 863.02,-135.67 921,-155 925.22,-156.41 925.06,-158.94 929,-161 936.7,-165.01 945.23,-168.52 953.62,-171.5"/>
<polygon fill="none" stroke="#000000" stroke-opacity="0.200000" points="952.82,-173.45 959.17,-173.39 954.17,-169.47 952.82,-173.45"/>
</g>
<!-- src/services/StorageController/infrastructure/database/DatabaseConnection.ts -->
<g id="node15" class="node">
<title>src/services/StorageController/infrastructure/database/DatabaseConnection.ts</title>
<g id="a_node15"><a xlink:href="src/services/StorageController/infrastructure/database/DatabaseConnection.ts" xlink:title="DatabaseConnection.ts">
<path fill="#ddfeff" stroke="black" d="M898.58,-185.62C898.58,-185.62 797.92,-185.62 797.92,-185.62 794.71,-185.62 791.5,-182.42 791.5,-179.21 791.5,-179.21 791.5,-172.79 791.5,-172.79 791.5,-169.58 794.71,-166.38 797.92,-166.38 797.92,-166.38 898.58,-166.38 898.58,-166.38 901.79,-166.38 905,-169.58 905,-172.79 905,-172.79 905,-179.21 905,-179.21 905,-182.42 901.79,-185.62 898.58,-185.62"/>
<text text-anchor="start" x="799.5" y="-173.07" font-family="Helvetica,sans-Serif" font-size="9.00">DatabaseConnection.ts</text>
</a>
</g>
</g>
<!-- src/services/StorageController/infrastructure/repository/MetadataRepository.ts&#45;&gt;src/services/StorageController/infrastructure/database/DatabaseConnection.ts -->
<g id="edge15" class="edge">
<title>src/services/StorageController/infrastructure/repository/MetadataRepository.ts&#45;&gt;src/services/StorageController/infrastructure/database/DatabaseConnection.ts</title>
<path fill="none" stroke="#000000" stroke-width="2" stroke-opacity="0.200000" d="M767.88,-176C772.65,-176 777.51,-176 782.37,-176"/>
<polygon fill="#000000" fill-opacity="0.200000" stroke="#000000" stroke-width="2" stroke-opacity="0.200000" points="782.05,-178.1 788.05,-176 782.05,-173.9 782.05,-178.1"/>
</g>
<!-- src/services/StorageController/migrations/migrations.ts -->
<g id="node16" class="node">
<title>src/services/StorageController/migrations/migrations.ts</title>
<g id="a_node16"><a xlink:href="src/services/StorageController/migrations/migrations.ts" xlink:title="migrations.ts">
<path fill="#ddfeff" stroke="black" d="M876.83,-291.62C876.83,-291.62 819.67,-291.62 819.67,-291.62 816.46,-291.62 813.25,-288.42 813.25,-285.21 813.25,-285.21 813.25,-278.79 813.25,-278.79 813.25,-275.58 816.46,-272.38 819.67,-272.38 819.67,-272.38 876.83,-272.38 876.83,-272.38 880.04,-272.38 883.25,-275.58 883.25,-278.79 883.25,-278.79 883.25,-285.21 883.25,-285.21 883.25,-288.42 880.04,-291.62 876.83,-291.62"/>
<text text-anchor="start" x="821.25" y="-279.07" font-family="Helvetica,sans-Serif" font-size="9.00">migrations.ts</text>
</a>
</g>
</g>
<!-- src/services/StorageController/migrations/index.ts&#45;&gt;src/services/StorageController/migrations/migrations.ts -->
<g id="edge16" class="edge">
<title>src/services/StorageController/migrations/index.ts&#45;&gt;src/services/StorageController/migrations/migrations.ts</title>
<path fill="none" stroke="#000000" stroke-width="2" stroke-opacity="0.200000" d="M741.24,-278.8C761.79,-279.42 790.42,-280.28 812.75,-280.96"/>
<polygon fill="#000000" fill-opacity="0.200000" stroke="#000000" stroke-width="2" stroke-opacity="0.200000" points="815.56,-279.57 819.46,-287.67 811.36,-283.77 815.56,-279.57"/>
</g>
<!-- src/services/StorageController/domain/repositories/IMetadataRepository.ts&#45;&gt;src/services/StorageController/domain/entities/Metadata.ts -->
<g id="edge9" class="edge">
<title>src/services/StorageController/domain/repositories/IMetadataRepository.ts&#45;&gt;src/services/StorageController/domain/entities/Metadata.ts</title>
<path fill="none" stroke="#000000" stroke-opacity="0.200000" d="M1055.12,-184C1060.46,-184 1065.8,-184 1070.94,-184"/>
<polygon fill="none" stroke="#000000" stroke-opacity="0.200000" points="1070.77,-186.1 1076.77,-184 1070.77,-181.9 1070.77,-186.1"/>
</g>
<!-- src/services/StorageController/index.ts&#45;&gt;src/services/StorageController/VideoMetadataController.ts -->
<g id="edge10" class="edge">
<title>src/services/StorageController/index.ts&#45;&gt;src/services/StorageController/VideoMetadataController.ts</title>
<path fill="none" stroke="#000000" stroke-width="2" stroke-opacity="0.200000" d="M493.37,-125.57C503.88,-128.59 516.26,-132.14 528.02,-135.52"/>
<polygon fill="#000000" fill-opacity="0.200000" stroke="#000000" stroke-width="2" stroke-opacity="0.200000" points="527.19,-137.46 533.54,-137.1 528.35,-133.43 527.19,-137.46"/>
</g>
<!-- src/services/StorageController/infrastructure/database/DatabaseConnection.ts&#45;&gt;src/services/StorageController/domain/constants/index.ts -->
<g id="edge11" class="edge">
<title>src/services/StorageController/infrastructure/database/DatabaseConnection.ts&#45;&gt;src/services/StorageController/domain/constants/index.ts</title>
<path fill="none" stroke="#000000" stroke-width="2" stroke-opacity="0.200000" d="M876.69,-165.91C901.36,-156.85 937.69,-143.49 964.33,-133.7"/>
<polygon fill="#000000" fill-opacity="0.200000" stroke="#000000" stroke-width="2" stroke-opacity="0.200000" points="964.86,-135.74 969.77,-131.7 963.41,-131.8 964.86,-135.74"/>
</g>
<!-- src/services/StorageController/migrations/v1/index.ts -->
<g id="node17" class="node">
<title>src/services/StorageController/migrations/v1/index.ts</title>
<g id="a_node17"><a xlink:href="src/services/StorageController/migrations/v1/index.ts" xlink:title="index.ts">
<path fill="#ddfeff" stroke="black" d="M1020.46,-291.62C1020.46,-291.62 979.29,-291.62 979.29,-291.62 976.08,-291.62 972.88,-288.42 972.88,-285.21 972.88,-285.21 972.88,-278.79 972.88,-278.79 972.88,-275.58 976.08,-272.38 979.29,-272.38 979.29,-272.38 1020.46,-272.38 1020.46,-272.38 1023.67,-272.38 1026.88,-275.58 1026.88,-278.79 1026.88,-278.79 1026.88,-285.21 1026.88,-285.21 1026.88,-288.42 1023.67,-291.62 1020.46,-291.62"/>
<text text-anchor="start" x="984.12" y="-279.07" font-family="Helvetica,sans-Serif" font-size="9.00">index.ts</text>
</a>
</g>
</g>
<!-- src/services/StorageController/migrations/migrations.ts&#45;&gt;src/services/StorageController/migrations/v1/index.ts -->
<g id="edge17" class="edge">
<title>src/services/StorageController/migrations/migrations.ts&#45;&gt;src/services/StorageController/migrations/v1/index.ts</title>
<path fill="none" stroke="#000000" stroke-width="2" stroke-opacity="0.200000" d="M883.58,-282C907.6,-282 939.59,-282 963.78,-282"/>
<polygon fill="#000000" fill-opacity="0.200000" stroke="#000000" stroke-width="2" stroke-opacity="0.200000" points="963.61,-284.1 969.61,-282 963.61,-279.9 963.61,-284.1"/>
</g>
<!-- src/services/StorageController/migrations/v2/index.ts -->
<g id="node18" class="node">
<title>src/services/StorageController/migrations/v2/index.ts</title>
<g id="a_node18"><a xlink:href="src/services/StorageController/migrations/v2/index.ts" xlink:title="index.ts">
<path fill="#ddfeff" stroke="black" d="M1020.46,-354.62C1020.46,-354.62 979.29,-354.62 979.29,-354.62 976.08,-354.62 972.88,-351.42 972.88,-348.21 972.88,-348.21 972.88,-341.79 972.88,-341.79 972.88,-338.58 976.08,-335.38 979.29,-335.38 979.29,-335.38 1020.46,-335.38 1020.46,-335.38 1023.67,-335.38 1026.88,-338.58 1026.88,-341.79 1026.88,-341.79 1026.88,-348.21 1026.88,-348.21 1026.88,-351.42 1023.67,-354.62 1020.46,-354.62"/>
<text text-anchor="start" x="984.12" y="-342.07" font-family="Helvetica,sans-Serif" font-size="9.00">index.ts</text>
</a>
</g>
</g>
<!-- src/services/StorageController/migrations/migrations.ts&#45;&gt;src/services/StorageController/migrations/v2/index.ts -->
<g id="edge18" class="edge">
<title>src/services/StorageController/migrations/migrations.ts&#45;&gt;src/services/StorageController/migrations/v2/index.ts</title>
<path fill="none" stroke="#000000" stroke-width="2" stroke-opacity="0.200000" d="M867.27,-291.99C883.2,-300.6 907.24,-313.02 929,-322 940.29,-326.66 952.89,-331.05 964.26,-334.72"/>
<polygon fill="#000000" fill-opacity="0.200000" stroke="#000000" stroke-width="2" stroke-opacity="0.200000" points="963.42,-336.65 969.77,-336.46 964.69,-332.65 963.42,-336.65"/>
</g>
<!-- src/services/StorageController/migrations/utils/index.ts -->
<g id="node19" class="node">
<title>src/services/StorageController/migrations/utils/index.ts</title>
<g id="a_node19"><a xlink:href="src/services/StorageController/migrations/utils/index.ts" xlink:title="index.ts">
<path fill="#ddfeff" stroke="black" d="M1130.96,-322.62C1130.96,-322.62 1089.79,-322.62 1089.79,-322.62 1086.58,-322.62 1083.38,-319.42 1083.38,-316.21 1083.38,-316.21 1083.38,-309.79 1083.38,-309.79 1083.38,-306.58 1086.58,-303.38 1089.79,-303.38 1089.79,-303.38 1130.96,-303.38 1130.96,-303.38 1134.17,-303.38 1137.38,-306.58 1137.38,-309.79 1137.38,-309.79 1137.38,-316.21 1137.38,-316.21 1137.38,-319.42 1134.17,-322.62 1130.96,-322.62"/>
<text text-anchor="start" x="1094.62" y="-310.07" font-family="Helvetica,sans-Serif" font-size="9.00">index.ts</text>
</a>
</g>
</g>
<!-- src/services/StorageController/migrations/v1/index.ts&#45;&gt;src/services/StorageController/migrations/utils/index.ts -->
<g id="edge19" class="edge">
<title>src/services/StorageController/migrations/v1/index.ts&#45;&gt;src/services/StorageController/migrations/utils/index.ts</title>
<path fill="none" stroke="#000000" stroke-width="2" stroke-opacity="0.200000" d="M1027.14,-289.5C1041.43,-293.59 1059.28,-298.69 1074.7,-303.09"/>
<polygon fill="#000000" fill-opacity="0.200000" stroke="#000000" stroke-width="2" stroke-opacity="0.200000" points="1073.72,-305 1080.07,-304.63 1074.87,-300.96 1073.72,-305"/>
</g>
<!-- src/services/StorageController/migrations/v2/index.ts&#45;&gt;src/services/StorageController/migrations/utils/index.ts -->
<g id="edge20" class="edge">
<title>src/services/StorageController/migrations/v2/index.ts&#45;&gt;src/services/StorageController/migrations/utils/index.ts</title>
<path fill="none" stroke="#000000" stroke-width="2" stroke-opacity="0.200000" d="M1027.14,-337.25C1041.43,-333.04 1059.28,-327.77 1074.7,-323.23"/>
<polygon fill="#000000" fill-opacity="0.200000" stroke="#000000" stroke-width="2" stroke-opacity="0.200000" points="1074.91,-325.35 1080.07,-321.64 1073.72,-321.33 1074.91,-325.35"/>
</g>
<!-- src/services/VideoParsers/index.ts&#45;&gt;src/services/StorageController/index.ts -->
<g id="edge21" class="edge">
<title>src/services/VideoParsers/index.ts&#45;&gt;src/services/StorageController/index.ts</title>
<path fill="none" stroke="#000000" stroke-width="2" stroke-opacity="0.200000" d="M397.43,-118C407.53,-118 419.21,-118 429.98,-118"/>
<polygon fill="#000000" fill-opacity="0.200000" stroke="#000000" stroke-width="2" stroke-opacity="0.200000" points="429.74,-120.1 435.74,-118 429.74,-115.9 429.74,-120.1"/>
</g>
</g>
</svg>
