<?xml version="1.0" encoding="UTF-8" standalone="no"?>
<!DOCTYPE svg PUBLIC "-//W3C//DTD SVG 1.1//EN"
 "http://www.w3.org/Graphics/SVG/1.1/DTD/svg11.dtd">
<!-- Generated by graphviz version 9.0.0 (20230911.1827)
 -->
<!-- Title: dependency&#45;cruiser output Pages: 1 -->
<svg width="668pt" height="436pt"
 viewBox="0.00 0.00 667.75 436.00" xmlns="http://www.w3.org/2000/svg" xmlns:xlink="http://www.w3.org/1999/xlink">
<g id="graph0" class="graph" transform="scale(1 1) rotate(0) translate(4 432)">
<title>dependency&#45;cruiser output</title>
<polygon fill="white" stroke="none" points="-4,4 -4,-432 663.75,-432 663.75,4 -4,4"/>
<g id="clust1" class="cluster">
<title>cluster_src</title>
<path fill="#ffffff" stroke="black" stroke-width="2" d="M20,-8C20,-8 640.75,-8 640.75,-8 646.75,-8 652.75,-14 652.75,-20 652.75,-20 652.75,-408 652.75,-408 652.75,-414 646.75,-420 640.75,-420 640.75,-420 20,-420 20,-420 14,-420 8,-414 8,-408 8,-408 8,-20 8,-20 8,-14 14,-8 20,-8"/>
<text text-anchor="middle" x="330.38" y="-407.45" font-family="Helvetica,sans-Serif" font-weight="bold" font-size="9.00">src</text>
</g>
<g id="clust2" class="cluster">
<title>cluster_src/application</title>
<path fill="#ffffff" stroke="black" stroke-width="2" d="M126.5,-54C126.5,-54 306.75,-54 306.75,-54 312.75,-54 318.75,-60 318.75,-66 318.75,-66 318.75,-194 318.75,-194 318.75,-200 312.75,-206 306.75,-206 306.75,-206 126.5,-206 126.5,-206 120.5,-206 114.5,-200 114.5,-194 114.5,-194 114.5,-66 114.5,-66 114.5,-60 120.5,-54 126.5,-54"/>
<text text-anchor="middle" x="216.62" y="-193.45" font-family="Helvetica,sans-Serif" font-weight="bold" font-size="9.00">application</text>
</g>
<g id="clust3" class="cluster">
<title>cluster_src/application/services</title>
<path fill="#ffffff" stroke="black" stroke-width="2" d="M208.25,-62C208.25,-62 298.75,-62 298.75,-62 304.75,-62 310.75,-68 310.75,-74 310.75,-74 310.75,-167 310.75,-167 310.75,-173 304.75,-179 298.75,-179 298.75,-179 208.25,-179 208.25,-179 202.25,-179 196.25,-173 196.25,-167 196.25,-167 196.25,-74 196.25,-74 196.25,-68 202.25,-62 208.25,-62"/>
<text text-anchor="middle" x="253.5" y="-166.45" font-family="Helvetica,sans-Serif" font-weight="bold" font-size="9.00">services</text>
</g>
<g id="clust4" class="cluster">
<title>cluster_src/components</title>
<path fill="#ffffff" stroke="black" stroke-width="2" d="M196.5,-214C196.5,-214 310.5,-214 310.5,-214 316.5,-214 322.5,-220 322.5,-226 322.5,-226 322.5,-292 322.5,-292 322.5,-298 316.5,-304 310.5,-304 310.5,-304 196.5,-304 196.5,-304 190.5,-304 184.5,-298 184.5,-292 184.5,-292 184.5,-226 184.5,-226 184.5,-220 190.5,-214 196.5,-214"/>
<text text-anchor="middle" x="253.5" y="-291.45" font-family="Helvetica,sans-Serif" font-weight="bold" font-size="9.00">components</text>
</g>
<g id="clust5" class="cluster">
<title>cluster_src/components/utils</title>
<path fill="#ffffff" stroke="black" stroke-width="2" d="M204.5,-222C204.5,-222 302.5,-222 302.5,-222 308.5,-222 314.5,-228 314.5,-234 314.5,-234 314.5,-265 314.5,-265 314.5,-271 308.5,-277 302.5,-277 302.5,-277 204.5,-277 204.5,-277 198.5,-277 192.5,-271 192.5,-265 192.5,-265 192.5,-234 192.5,-234 192.5,-228 198.5,-222 204.5,-222"/>
<text text-anchor="middle" x="253.5" y="-264.45" font-family="Helvetica,sans-Serif" font-weight="bold" font-size="9.00">utils</text>
</g>
<g id="clust6" class="cluster">
<title>cluster_src/domain</title>
<path fill="#ffffff" stroke="black" stroke-width="2" d="M569.75,-16C569.75,-16 632.75,-16 632.75,-16 638.75,-16 644.75,-22 644.75,-28 644.75,-28 644.75,-220 644.75,-220 644.75,-226 638.75,-232 632.75,-232 632.75,-232 569.75,-232 569.75,-232 563.75,-232 557.75,-226 557.75,-220 557.75,-220 557.75,-28 557.75,-28 557.75,-22 563.75,-16 569.75,-16"/>
<text text-anchor="middle" x="601.25" y="-219.45" font-family="Helvetica,sans-Serif" font-weight="bold" font-size="9.00">domain</text>
</g>
<g id="clust8" class="cluster">
<title>cluster_src/domain/repositories</title>
<path fill="#ffffff" stroke="black" stroke-width="2" d="M577.75,-150C577.75,-150 623.75,-150 623.75,-150 629.75,-150 635.75,-156 635.75,-162 635.75,-162 635.75,-193 635.75,-193 635.75,-199 629.75,-205 623.75,-205 623.75,-205 577.75,-205 577.75,-205 571.75,-205 565.75,-199 565.75,-193 565.75,-193 565.75,-162 565.75,-162 565.75,-156 571.75,-150 577.75,-150"/>
<text text-anchor="middle" x="600.75" y="-192.45" font-family="Helvetica,sans-Serif" font-weight="bold" font-size="9.00">repositories</text>
</g>
<g id="clust9" class="cluster">
<title>cluster_src/domain/valueObjects</title>
<path fill="#ffffff" stroke="black" stroke-width="2" d="M577.75,-87C577.75,-87 624.75,-87 624.75,-87 630.75,-87 636.75,-93 636.75,-99 636.75,-99 636.75,-130 636.75,-130 636.75,-136 630.75,-142 624.75,-142 624.75,-142 577.75,-142 577.75,-142 571.75,-142 565.75,-136 565.75,-130 565.75,-130 565.75,-99 565.75,-99 565.75,-93 571.75,-87 577.75,-87"/>
<text text-anchor="middle" x="601.25" y="-129.45" font-family="Helvetica,sans-Serif" font-weight="bold" font-size="9.00">valueObjects</text>
</g>
<g id="clust7" class="cluster">
<title>cluster_src/domain/entities</title>
<path fill="#ffffff" stroke="black" stroke-width="2" d="M577.75,-24C577.75,-24 623.75,-24 623.75,-24 629.75,-24 635.75,-30 635.75,-36 635.75,-36 635.75,-67 635.75,-67 635.75,-73 629.75,-79 623.75,-79 623.75,-79 577.75,-79 577.75,-79 571.75,-79 565.75,-73 565.75,-67 565.75,-67 565.75,-36 565.75,-36 565.75,-30 571.75,-24 577.75,-24"/>
<text text-anchor="middle" x="600.75" y="-66.45" font-family="Helvetica,sans-Serif" font-weight="bold" font-size="9.00">entities</text>
</g>
<g id="clust10" class="cluster">
<title>cluster_src/infrastructure</title>
<path fill="#ffffff" stroke="black" stroke-width="2" d="M342.5,-240C342.5,-240 631.75,-240 631.75,-240 637.75,-240 643.75,-246 643.75,-252 643.75,-252 643.75,-381 643.75,-381 643.75,-387 637.75,-393 631.75,-393 631.75,-393 342.5,-393 342.5,-393 336.5,-393 330.5,-387 330.5,-381 330.5,-381 330.5,-252 330.5,-252 330.5,-246 336.5,-240 342.5,-240"/>
<text text-anchor="middle" x="487.12" y="-380.45" font-family="Helvetica,sans-Serif" font-weight="bold" font-size="9.00">infrastructure</text>
</g>
<g id="clust11" class="cluster">
<title>cluster_src/infrastructure/repository</title>
<path fill="#ffffff" stroke="black" stroke-width="2" d="M577.75,-248C577.75,-248 623.75,-248 623.75,-248 629.75,-248 635.75,-254 635.75,-260 635.75,-260 635.75,-291 635.75,-291 635.75,-297 629.75,-303 623.75,-303 623.75,-303 577.75,-303 577.75,-303 571.75,-303 565.75,-297 565.75,-291 565.75,-291 565.75,-260 565.75,-260 565.75,-254 571.75,-248 577.75,-248"/>
<text text-anchor="middle" x="600.75" y="-290.45" font-family="Helvetica,sans-Serif" font-weight="bold" font-size="9.00">repository</text>
</g>
<g id="clust12" class="cluster">
<title>cluster_src/infrastructure/services</title>
<path fill="#ffffff" stroke="black" stroke-width="2" d="M350.5,-248C350.5,-248 529.75,-248 529.75,-248 535.75,-248 541.75,-254 541.75,-260 541.75,-260 541.75,-291 541.75,-291 541.75,-297 535.75,-303 529.75,-303 529.75,-303 350.5,-303 350.5,-303 344.5,-303 338.5,-297 338.5,-291 338.5,-291 338.5,-260 338.5,-260 338.5,-254 344.5,-248 350.5,-248"/>
<text text-anchor="middle" x="440.12" y="-290.45" font-family="Helvetica,sans-Serif" font-weight="bold" font-size="9.00">services</text>
</g>
<g id="clust13" class="cluster">
<title>cluster_src/infrastructure/video</title>
<path fill="#ffffff" stroke="black" stroke-width="2" d="M350.5,-311C350.5,-311 396.5,-311 396.5,-311 402.5,-311 408.5,-317 408.5,-323 408.5,-323 408.5,-354 408.5,-354 408.5,-360 402.5,-366 396.5,-366 396.5,-366 350.5,-366 350.5,-366 344.5,-366 338.5,-360 338.5,-354 338.5,-354 338.5,-323 338.5,-323 338.5,-317 344.5,-311 350.5,-311"/>
<text text-anchor="middle" x="373.5" y="-353.45" font-family="Helvetica,sans-Serif" font-weight="bold" font-size="9.00">video</text>
</g>
<g id="clust14" class="cluster">
<title>cluster_src/stores</title>
<path fill="#ffffff" stroke="black" stroke-width="2" d="M28,-209C28,-209 94.5,-209 94.5,-209 100.5,-209 106.5,-215 106.5,-221 106.5,-221 106.5,-252 106.5,-252 106.5,-258 100.5,-264 94.5,-264 94.5,-264 28,-264 28,-264 22,-264 16,-258 16,-252 16,-252 16,-221 16,-221 16,-215 22,-209 28,-209"/>
<text text-anchor="middle" x="61.25" y="-251.45" font-family="Helvetica,sans-Serif" font-weight="bold" font-size="9.00">stores</text>
</g>
<!-- src/application/index.ts -->
<g id="node1" class="node">
<title>src/application/index.ts</title>
<g id="a_node1"><a xlink:href="src/application/index.ts" xlink:title="index.ts">
<path fill="#ddfeff" stroke="black" d="M170.08,-135.62C170.08,-135.62 128.92,-135.62 128.92,-135.62 125.71,-135.62 122.5,-132.42 122.5,-129.21 122.5,-129.21 122.5,-122.79 122.5,-122.79 122.5,-119.58 125.71,-116.38 128.92,-116.38 128.92,-116.38 170.08,-116.38 170.08,-116.38 173.29,-116.38 176.5,-119.58 176.5,-122.79 176.5,-122.79 176.5,-129.21 176.5,-129.21 176.5,-132.42 173.29,-135.62 170.08,-135.62"/>
<text text-anchor="start" x="133.75" y="-123.08" font-family="Helvetica,sans-Serif" font-size="9.00">index.ts</text>
</a>
</g>
</g>
<!-- src/application/services/FileParserService.ts -->
<g id="node2" class="node">
<title>src/application/services/FileParserService.ts</title>
<g id="a_node2"><a xlink:href="src/application/services/FileParserService.ts" xlink:title="FileParserService.ts">
<path fill="#ddfeff" stroke="black" d="M296.33,-151.62C296.33,-151.62 210.67,-151.62 210.67,-151.62 207.46,-151.62 204.25,-148.42 204.25,-145.21 204.25,-145.21 204.25,-138.79 204.25,-138.79 204.25,-135.58 207.46,-132.38 210.67,-132.38 210.67,-132.38 296.33,-132.38 296.33,-132.38 299.54,-132.38 302.75,-135.58 302.75,-138.79 302.75,-138.79 302.75,-145.21 302.75,-145.21 302.75,-148.42 299.54,-151.62 296.33,-151.62"/>
<text text-anchor="start" x="212.25" y="-139.07" font-family="Helvetica,sans-Serif" font-size="9.00">FileParserService.ts</text>
</a>
</g>
</g>
<!-- src/application/index.ts&#45;&gt;src/application/services/FileParserService.ts -->
<g id="edge1" class="edge">
<title>src/application/index.ts&#45;&gt;src/application/services/FileParserService.ts</title>
<path fill="none" stroke="#000000" stroke-width="2" stroke-opacity="0.200000" d="M176.77,-130.12C185.15,-131.44 194.71,-132.93 204.14,-134.41"/>
<polygon fill="#000000" fill-opacity="0.200000" stroke="#000000" stroke-width="2" stroke-opacity="0.200000" points="206.95,-133.02 210.85,-141.12 202.75,-137.22 206.95,-133.02"/>
</g>
<!-- src/application/services/FiltersService.ts -->
<g id="node3" class="node">
<title>src/application/services/FiltersService.ts</title>
<g id="a_node3"><a xlink:href="src/application/services/FiltersService.ts" xlink:title="FiltersService.ts">
<path fill="#ddfeff" stroke="black" d="M287.71,-120.62C287.71,-120.62 219.29,-120.62 219.29,-120.62 216.08,-120.62 212.88,-117.42 212.88,-114.21 212.88,-114.21 212.88,-107.79 212.88,-107.79 212.88,-104.58 216.08,-101.38 219.29,-101.38 219.29,-101.38 287.71,-101.38 287.71,-101.38 290.92,-101.38 294.12,-104.58 294.12,-107.79 294.12,-107.79 294.12,-114.21 294.12,-114.21 294.12,-117.42 290.92,-120.62 287.71,-120.62"/>
<text text-anchor="start" x="220.88" y="-108.08" font-family="Helvetica,sans-Serif" font-size="9.00">FiltersService.ts</text>
</a>
</g>
</g>
<!-- src/application/index.ts&#45;&gt;src/application/services/FiltersService.ts -->
<g id="edge2" class="edge">
<title>src/application/index.ts&#45;&gt;src/application/services/FiltersService.ts</title>
<path fill="none" stroke="#000000" stroke-width="2" stroke-opacity="0.200000" d="M176.77,-122.14C185,-120.93 194.36,-119.55 203.63,-118.19"/>
<polygon fill="#000000" fill-opacity="0.200000" stroke="#000000" stroke-width="2" stroke-opacity="0.200000" points="203.83,-120.28 209.46,-117.33 203.22,-116.13 203.83,-120.28"/>
</g>
<!-- src/application/services/Hotkeys.ts -->
<g id="node4" class="node">
<title>src/application/services/Hotkeys.ts</title>
<g id="a_node4"><a xlink:href="src/application/services/Hotkeys.ts" xlink:title="Hotkeys.ts">
<path fill="#ddfeff" stroke="black" d="M276.46,-89.62C276.46,-89.62 230.54,-89.62 230.54,-89.62 227.33,-89.62 224.12,-86.42 224.12,-83.21 224.12,-83.21 224.12,-76.79 224.12,-76.79 224.12,-73.58 227.33,-70.38 230.54,-70.38 230.54,-70.38 276.46,-70.38 276.46,-70.38 279.67,-70.38 282.88,-73.58 282.88,-76.79 282.88,-76.79 282.88,-83.21 282.88,-83.21 282.88,-86.42 279.67,-89.62 276.46,-89.62"/>
<text text-anchor="start" x="232.12" y="-77.08" font-family="Helvetica,sans-Serif" font-size="9.00">Hotkeys.ts</text>
</a>
</g>
</g>
<!-- src/application/index.ts&#45;&gt;src/application/services/Hotkeys.ts -->
<g id="edge3" class="edge">
<title>src/application/index.ts&#45;&gt;src/application/services/Hotkeys.ts</title>
<path fill="none" stroke="#000000" stroke-width="2" stroke-opacity="0.200000" d="M158.73,-116.14C165.07,-109.19 174.43,-100.22 223.9,-82.93"/>
<polygon fill="#000000" fill-opacity="0.200000" stroke="#000000" stroke-width="2" stroke-opacity="0.200000" points="226.71,-81.53 230.61,-89.63 222.51,-85.73 226.71,-81.53"/>
</g>
<!-- src/domain/entities/index.ts -->
<g id="node5" class="node">
<title>src/domain/entities/index.ts</title>
<g id="a_node5"><a xlink:href="src/domain/entities/index.ts" xlink:title="index.ts">
<path fill="#ddfeff" stroke="black" d="M621.33,-51.62C621.33,-51.62 580.17,-51.62 580.17,-51.62 576.96,-51.62 573.75,-48.42 573.75,-45.21 573.75,-45.21 573.75,-38.79 573.75,-38.79 573.75,-35.58 576.96,-32.38 580.17,-32.38 580.17,-32.38 621.33,-32.38 621.33,-32.38 624.54,-32.38 627.75,-35.58 627.75,-38.79 627.75,-38.79 627.75,-45.21 627.75,-45.21 627.75,-48.42 624.54,-51.62 621.33,-51.62"/>
<text text-anchor="start" x="585" y="-39.08" font-family="Helvetica,sans-Serif" font-size="9.00">index.ts</text>
</a>
</g>
</g>
<!-- src/application/services/FileParserService.ts&#45;&gt;src/domain/entities/index.ts -->
<g id="edge4" class="edge">
<title>src/application/services/FileParserService.ts&#45;&gt;src/domain/entities/index.ts</title>
<path fill="none" stroke="#000000" stroke-opacity="0.200000" d="M303.22,-133.09C361.13,-121.74 460.19,-99.96 541.75,-70 552.84,-65.93 564.65,-60.45 574.7,-55.42"/>
<polygon fill="none" stroke="#000000" stroke-opacity="0.200000" points="575.61,-57.31 580,-52.72 573.7,-53.57 575.61,-57.31"/>
</g>
<!-- src/infrastructure/services/index.ts -->
<g id="node6" class="node">
<title>src/infrastructure/services/index.ts</title>
<g id="a_node6"><a xlink:href="src/infrastructure/services/index.ts" xlink:title="index.ts">
<path fill="#ddfeff" stroke="black" d="M394.08,-275.62C394.08,-275.62 352.92,-275.62 352.92,-275.62 349.71,-275.62 346.5,-272.42 346.5,-269.21 346.5,-269.21 346.5,-262.79 346.5,-262.79 346.5,-259.58 349.71,-256.38 352.92,-256.38 352.92,-256.38 394.08,-256.38 394.08,-256.38 397.29,-256.38 400.5,-259.58 400.5,-262.79 400.5,-262.79 400.5,-269.21 400.5,-269.21 400.5,-272.42 397.29,-275.62 394.08,-275.62"/>
<text text-anchor="start" x="357.75" y="-263.07" font-family="Helvetica,sans-Serif" font-size="9.00">index.ts</text>
</a>
</g>
</g>
<!-- src/application/services/FileParserService.ts&#45;&gt;src/infrastructure/services/index.ts -->
<g id="edge5" class="edge">
<title>src/application/services/FileParserService.ts&#45;&gt;src/infrastructure/services/index.ts</title>
<path fill="none" stroke="#000000" stroke-width="2" stroke-opacity="0.200000" d="M263.76,-151.73C283.91,-172.9 331.92,-223.36 356.86,-249.56"/>
<polygon fill="#000000" fill-opacity="0.200000" stroke="#000000" stroke-width="2" stroke-opacity="0.200000" points="355.21,-250.88 360.87,-253.78 358.25,-247.98 355.21,-250.88"/>
</g>
<!-- src/infrastructure/video/index.ts -->
<g id="node7" class="node">
<title>src/infrastructure/video/index.ts</title>
<g id="a_node7"><a xlink:href="src/infrastructure/video/index.ts" xlink:title="index.ts">
<path fill="#ddfeff" stroke="black" d="M394.08,-338.62C394.08,-338.62 352.92,-338.62 352.92,-338.62 349.71,-338.62 346.5,-335.42 346.5,-332.21 346.5,-332.21 346.5,-325.79 346.5,-325.79 346.5,-322.58 349.71,-319.38 352.92,-319.38 352.92,-319.38 394.08,-319.38 394.08,-319.38 397.29,-319.38 400.5,-322.58 400.5,-325.79 400.5,-325.79 400.5,-332.21 400.5,-332.21 400.5,-335.42 397.29,-338.62 394.08,-338.62"/>
<text text-anchor="start" x="357.75" y="-326.07" font-family="Helvetica,sans-Serif" font-size="9.00">index.ts</text>
</a>
</g>
</g>
<!-- src/application/services/FileParserService.ts&#45;&gt;src/infrastructure/video/index.ts -->
<g id="edge6" class="edge">
<title>src/application/services/FileParserService.ts&#45;&gt;src/infrastructure/video/index.ts</title>
<path fill="none" stroke="#000000" stroke-width="2" stroke-opacity="0.200000" d="M267.45,-152.1C283.52,-165.47 310.27,-190.67 322.5,-219 330.2,-236.82 319.85,-289.77 330.5,-306 332.71,-309.38 335.6,-312.3 338.82,-314.82"/>
<polygon fill="#000000" fill-opacity="0.200000" stroke="#000000" stroke-width="2" stroke-opacity="0.200000" points="337.59,-316.52 343.76,-318.05 339.89,-313 337.59,-316.52"/>
</g>
<!-- src/application/services/FiltersService.ts&#45;&gt;src/domain/entities/index.ts -->
<g id="edge7" class="edge">
<title>src/application/services/FiltersService.ts&#45;&gt;src/domain/entities/index.ts</title>
<path fill="none" stroke="#000000" stroke-opacity="0.200000" d="M294.44,-103.02C363.15,-89.29 502.47,-61.44 566.37,-48.67"/>
<polygon fill="none" stroke="#000000" stroke-opacity="0.200000" points="566.45,-50.8 571.92,-47.56 565.63,-46.68 566.45,-50.8"/>
</g>
<!-- src/infrastructure/services/VideoMetadataFacade.ts -->
<g id="node12" class="node">
<title>src/infrastructure/services/VideoMetadataFacade.ts</title>
<g id="a_node12"><a xlink:href="src/infrastructure/services/VideoMetadataFacade.ts" xlink:title="VideoMetadataFacade.ts">
<path fill="#ddfeff" stroke="black" d="M527.33,-275.62C527.33,-275.62 422.92,-275.62 422.92,-275.62 419.71,-275.62 416.5,-272.42 416.5,-269.21 416.5,-269.21 416.5,-262.79 416.5,-262.79 416.5,-259.58 419.71,-256.38 422.92,-256.38 422.92,-256.38 527.33,-256.38 527.33,-256.38 530.54,-256.38 533.75,-259.58 533.75,-262.79 533.75,-262.79 533.75,-269.21 533.75,-269.21 533.75,-272.42 530.54,-275.62 527.33,-275.62"/>
<text text-anchor="start" x="424.5" y="-263.07" font-family="Helvetica,sans-Serif" font-size="9.00">VideoMetadataFacade.ts</text>
</a>
</g>
</g>
<!-- src/infrastructure/services/index.ts&#45;&gt;src/infrastructure/services/VideoMetadataFacade.ts -->
<g id="edge13" class="edge">
<title>src/infrastructure/services/index.ts&#45;&gt;src/infrastructure/services/VideoMetadataFacade.ts</title>
<path fill="none" stroke="#000000" stroke-width="2" stroke-opacity="0.200000" d="M400.94,-266C405.78,-266 411,-266 416.35,-266"/>
<polygon fill="#000000" fill-opacity="0.200000" stroke="#000000" stroke-width="2" stroke-opacity="0.200000" points="419.16,-264.61 423.06,-272.71 414.96,-268.81 419.16,-264.61"/>
</g>
<!-- src/components/utils/DiagnosticsPanel.vue -->
<g id="node8" class="node">
<title>src/components/utils/DiagnosticsPanel.vue</title>
<g id="a_node8"><a xlink:href="src/components/utils/DiagnosticsPanel.vue" xlink:title="DiagnosticsPanel.vue">
<path fill="#41f083" stroke="black" d="M300.08,-249.62C300.08,-249.62 206.92,-249.62 206.92,-249.62 203.71,-249.62 200.5,-246.42 200.5,-243.21 200.5,-243.21 200.5,-236.79 200.5,-236.79 200.5,-233.58 203.71,-230.38 206.92,-230.38 206.92,-230.38 300.08,-230.38 300.08,-230.38 303.29,-230.38 306.5,-233.58 306.5,-236.79 306.5,-236.79 306.5,-243.21 306.5,-243.21 306.5,-246.42 303.29,-249.62 300.08,-249.62"/>
<text text-anchor="start" x="208.5" y="-237.07" font-family="Helvetica,sans-Serif" font-size="9.00">DiagnosticsPanel.vue</text>
</a>
</g>
</g>
<!-- src/components/utils/DiagnosticsPanel.vue&#45;&gt;src/infrastructure/services/index.ts -->
<g id="edge8" class="edge">
<title>src/components/utils/DiagnosticsPanel.vue&#45;&gt;src/infrastructure/services/index.ts</title>
<path fill="none" stroke="#000000" stroke-width="2" stroke-opacity="0.200000" d="M300.12,-250.05C312.53,-252.79 325.76,-255.7 337.48,-258.28"/>
<polygon fill="#000000" fill-opacity="0.200000" stroke="#000000" stroke-width="2" stroke-opacity="0.200000" points="336.83,-260.29 343.14,-259.53 337.74,-256.19 336.83,-260.29"/>
</g>
<!-- src/domain/repositories/index.ts -->
<g id="node9" class="node">
<title>src/domain/repositories/index.ts</title>
<g id="a_node9"><a xlink:href="src/domain/repositories/index.ts" xlink:title="index.ts">
<path fill="#ddfeff" stroke="black" d="M621.33,-177.62C621.33,-177.62 580.17,-177.62 580.17,-177.62 576.96,-177.62 573.75,-174.42 573.75,-171.21 573.75,-171.21 573.75,-164.79 573.75,-164.79 573.75,-161.58 576.96,-158.38 580.17,-158.38 580.17,-158.38 621.33,-158.38 621.33,-158.38 624.54,-158.38 627.75,-161.58 627.75,-164.79 627.75,-164.79 627.75,-171.21 627.75,-171.21 627.75,-174.42 624.54,-177.62 621.33,-177.62"/>
<text text-anchor="start" x="585" y="-165.07" font-family="Helvetica,sans-Serif" font-size="9.00">index.ts</text>
</a>
</g>
</g>
<!-- src/domain/valueObjects/index.ts -->
<g id="node10" class="node">
<title>src/domain/valueObjects/index.ts</title>
<g id="a_node10"><a xlink:href="src/domain/valueObjects/index.ts" xlink:title="index.ts">
<path fill="#ddfeff" stroke="black" d="M621.33,-114.62C621.33,-114.62 580.17,-114.62 580.17,-114.62 576.96,-114.62 573.75,-111.42 573.75,-108.21 573.75,-108.21 573.75,-101.79 573.75,-101.79 573.75,-98.58 576.96,-95.38 580.17,-95.38 580.17,-95.38 621.33,-95.38 621.33,-95.38 624.54,-95.38 627.75,-98.58 627.75,-101.79 627.75,-101.79 627.75,-108.21 627.75,-108.21 627.75,-111.42 624.54,-114.62 621.33,-114.62"/>
<text text-anchor="start" x="585" y="-102.08" font-family="Helvetica,sans-Serif" font-size="9.00">index.ts</text>
</a>
</g>
</g>
<!-- src/infrastructure/repository/index.ts -->
<g id="node11" class="node">
<title>src/infrastructure/repository/index.ts</title>
<g id="a_node11"><a xlink:href="src/infrastructure/repository/index.ts" xlink:title="index.ts">
<path fill="#ddfeff" stroke="black" d="M621.33,-275.62C621.33,-275.62 580.17,-275.62 580.17,-275.62 576.96,-275.62 573.75,-272.42 573.75,-269.21 573.75,-269.21 573.75,-262.79 573.75,-262.79 573.75,-259.58 576.96,-256.38 580.17,-256.38 580.17,-256.38 621.33,-256.38 621.33,-256.38 624.54,-256.38 627.75,-259.58 627.75,-262.79 627.75,-262.79 627.75,-269.21 627.75,-269.21 627.75,-272.42 624.54,-275.62 621.33,-275.62"/>
<text text-anchor="start" x="585" y="-263.07" font-family="Helvetica,sans-Serif" font-size="9.00">index.ts</text>
</a>
</g>
</g>
<!-- src/infrastructure/services/VideoMetadataFacade.ts&#45;&gt;src/domain/entities/index.ts -->
<g id="edge9" class="edge">
<title>src/infrastructure/services/VideoMetadataFacade.ts&#45;&gt;src/domain/entities/index.ts</title>
<path fill="none" stroke="#000000" stroke-opacity="0.200000" d="M481.23,-256.1C492.73,-233.64 521.27,-176.95 541.75,-128 549.78,-108.8 546.57,-101.55 557.75,-84 564.23,-73.82 573.56,-64.18 581.78,-56.7"/>
<polygon fill="none" stroke="#000000" stroke-opacity="0.200000" points="582.99,-58.43 586.11,-52.89 580.22,-55.28 582.99,-58.43"/>
</g>
<!-- src/infrastructure/services/VideoMetadataFacade.ts&#45;&gt;src/domain/repositories/index.ts -->
<g id="edge10" class="edge">
<title>src/infrastructure/services/VideoMetadataFacade.ts&#45;&gt;src/domain/repositories/index.ts</title>
<path fill="none" stroke="#000000" stroke-opacity="0.200000" d="M488.89,-255.88C510.93,-238.41 556.21,-202.51 581.55,-182.43"/>
<polygon fill="none" stroke="#000000" stroke-opacity="0.200000" points="582.66,-184.23 586.05,-178.86 580.05,-180.94 582.66,-184.23"/>
</g>
<!-- src/infrastructure/services/VideoMetadataFacade.ts&#45;&gt;src/domain/valueObjects/index.ts -->
<g id="edge11" class="edge">
<title>src/infrastructure/services/VideoMetadataFacade.ts&#45;&gt;src/domain/valueObjects/index.ts</title>
<path fill="none" stroke="#000000" stroke-width="2" stroke-opacity="0.200000" d="M482.11,-256C494.87,-234.97 526.21,-184.96 557.75,-147 565.37,-137.83 574.67,-128.37 582.59,-120.76"/>
<polygon fill="#000000" fill-opacity="0.200000" stroke="#000000" stroke-width="2" stroke-opacity="0.200000" points="583.72,-122.58 586.64,-116.93 580.84,-119.53 583.72,-122.58"/>
</g>
<!-- src/infrastructure/services/VideoMetadataFacade.ts&#45;&gt;src/infrastructure/repository/index.ts -->
<g id="edge12" class="edge">
<title>src/infrastructure/services/VideoMetadataFacade.ts&#45;&gt;src/infrastructure/repository/index.ts</title>
<path fill="none" stroke="#000000" stroke-width="2" stroke-opacity="0.200000" d="M533.96,-266C544.43,-266 555.06,-266 564.64,-266"/>
<polygon fill="#000000" fill-opacity="0.200000" stroke="#000000" stroke-width="2" stroke-opacity="0.200000" points="564.42,-268.1 570.42,-266 564.42,-263.9 564.42,-268.1"/>
</g>
<!-- src/stores/videosStore.ts -->
<g id="node13" class="node">
<title>src/stores/videosStore.ts</title>
<g id="a_node13"><a xlink:href="src/stores/videosStore.ts" xlink:title="videosStore.ts">
<path fill="#ddfeff" stroke="black" d="M92.08,-236.62C92.08,-236.62 30.42,-236.62 30.42,-236.62 27.21,-236.62 24,-233.42 24,-230.21 24,-230.21 24,-223.79 24,-223.79 24,-220.58 27.21,-217.38 30.42,-217.38 30.42,-217.38 92.08,-217.38 92.08,-217.38 95.29,-217.38 98.5,-220.58 98.5,-223.79 98.5,-223.79 98.5,-230.21 98.5,-230.21 98.5,-233.42 95.29,-236.62 92.08,-236.62"/>
<text text-anchor="start" x="32" y="-224.07" font-family="Helvetica,sans-Serif" font-size="9.00">videosStore.ts</text>
</a>
</g>
</g>
<!-- src/stores/videosStore.ts&#45;&gt;src/application/index.ts -->
<g id="edge14" class="edge">
<title>src/stores/videosStore.ts&#45;&gt;src/application/index.ts</title>
<path fill="none" stroke="#000000" stroke-width="2" stroke-opacity="0.200000" d="M70.84,-216.95C85.62,-199.63 116.05,-164 134.12,-142.84"/>
<polygon fill="#000000" fill-opacity="0.200000" stroke="#000000" stroke-width="2" stroke-opacity="0.200000" points="135.68,-144.24 137.98,-138.31 132.49,-141.51 135.68,-144.24"/>
</g>
<!-- src/stores/videosStore.ts&#45;&gt;src/domain/entities/index.ts -->
<g id="edge15" class="edge">
<title>src/stores/videosStore.ts&#45;&gt;src/domain/entities/index.ts</title>
<path fill="none" stroke="#000000" stroke-opacity="0.200000" d="M61.66,-216.91C60.46,-186.12 61.54,-92.96 114.5,-51 162.65,-12.85 191.06,-43 252.5,-43 252.5,-43 252.5,-43 374.5,-43 442.52,-43 522.09,-42.54 566.12,-42.24"/>
<polygon fill="none" stroke="#000000" stroke-opacity="0.200000" points="565.9,-44.34 571.88,-42.2 565.87,-40.14 565.9,-44.34"/>
</g>
<!-- src/stores/videosStore.ts&#45;&gt;src/infrastructure/services/index.ts -->
<g id="edge16" class="edge">
<title>src/stores/videosStore.ts&#45;&gt;src/infrastructure/services/index.ts</title>
<path fill="none" stroke="#000000" stroke-width="2" stroke-opacity="0.200000" d="M79.32,-237.09C102.29,-250.03 144.86,-271.78 184.5,-280 244.55,-292.46 261.74,-288.35 322.5,-280 327.36,-279.33 332.4,-278.32 337.35,-277.13"/>
<polygon fill="#000000" fill-opacity="0.200000" stroke="#000000" stroke-width="2" stroke-opacity="0.200000" points="337.86,-279.17 343.13,-275.62 336.79,-275.11 337.86,-279.17"/>
</g>
<!-- src/stores/videosStore.ts&#45;&gt;src/infrastructure/video/index.ts -->
<g id="edge17" class="edge">
<title>src/stores/videosStore.ts&#45;&gt;src/infrastructure/video/index.ts</title>
<path fill="none" stroke="#000000" stroke-width="2" stroke-opacity="0.200000" d="M71.69,-237.06C81.48,-246.9 97.69,-261.6 114.5,-270 188.56,-307.01 286.18,-321.15 337.5,-326.28"/>
<polygon fill="#000000" fill-opacity="0.200000" stroke="#000000" stroke-width="2" stroke-opacity="0.200000" points="337.05,-328.34 343.22,-326.82 337.44,-324.16 337.05,-328.34"/>
</g>
</g>
</svg>
