<?xml version="1.0" encoding="UTF-8" standalone="no"?>
<!DOCTYPE svg PUBLIC "-//W3C//DTD SVG 1.1//EN"
 "http://www.w3.org/Graphics/SVG/1.1/DTD/svg11.dtd">
<!-- Generated by graphviz version 9.0.0 (20230911.1827)
 -->
<!-- Title: dependency&#45;cruiser output Pages: 1 -->
<svg width="1220pt" height="539pt"
 viewBox="0.00 0.00 1219.50 539.00" xmlns="http://www.w3.org/2000/svg" xmlns:xlink="http://www.w3.org/1999/xlink">
<g id="graph0" class="graph" transform="scale(1 1) rotate(0) translate(4 535)">
<title>dependency&#45;cruiser output</title>
<polygon fill="white" stroke="none" points="-4,4 -4,-535 1215.5,-535 1215.5,4 -4,4"/>
<g id="clust1" class="cluster">
<title>cluster_src</title>
<path fill="#ffffff" stroke="black" stroke-width="2" d="M20,-8C20,-8 1191.5,-8 1191.5,-8 1197.5,-8 1203.5,-14 1203.5,-20 1203.5,-20 1203.5,-511 1203.5,-511 1203.5,-517 1197.5,-523 1191.5,-523 1191.5,-523 20,-523 20,-523 14,-523 8,-517 8,-511 8,-511 8,-20 8,-20 8,-14 14,-8 20,-8"/>
<text text-anchor="middle" x="605.75" y="-510.45" font-family="Helvetica,sans-Serif" font-weight="bold" font-size="9.00">src</text>
</g>
<g id="clust2" class="cluster">
<title>cluster_src/components</title>
<path fill="#ffffff" stroke="black" stroke-width="2" d="M28,-48C28,-48 128.5,-48 128.5,-48 134.5,-48 140.5,-54 140.5,-60 140.5,-60 140.5,-154 140.5,-154 140.5,-160 134.5,-166 128.5,-166 128.5,-166 28,-166 28,-166 22,-166 16,-160 16,-154 16,-154 16,-60 16,-60 16,-54 22,-48 28,-48"/>
<text text-anchor="middle" x="78.25" y="-153.45" font-family="Helvetica,sans-Serif" font-weight="bold" font-size="9.00">components</text>
</g>
<g id="clust3" class="cluster">
<title>cluster_src/components/inputs</title>
<path fill="#ffffff" stroke="black" stroke-width="2" d="M36,-84C36,-84 120.5,-84 120.5,-84 126.5,-84 132.5,-90 132.5,-96 132.5,-96 132.5,-127 132.5,-127 132.5,-133 126.5,-139 120.5,-139 120.5,-139 36,-139 36,-139 30,-139 24,-133 24,-127 24,-127 24,-96 24,-96 24,-90 30,-84 36,-84"/>
<text text-anchor="middle" x="78.25" y="-126.45" font-family="Helvetica,sans-Serif" font-weight="bold" font-size="9.00">inputs</text>
</g>
<g id="clust4" class="cluster">
<title>cluster_src/services</title>
<path fill="#ffffff" stroke="black" stroke-width="2" d="M259,-16C259,-16 1183.5,-16 1183.5,-16 1189.5,-16 1195.5,-22 1195.5,-28 1195.5,-28 1195.5,-484 1195.5,-484 1195.5,-490 1189.5,-496 1183.5,-496 1183.5,-496 259,-496 259,-496 253,-496 247,-490 247,-484 247,-484 247,-28 247,-28 247,-22 253,-16 259,-16"/>
<text text-anchor="middle" x="721.25" y="-483.45" font-family="Helvetica,sans-Serif" font-weight="bold" font-size="9.00">services</text>
</g>
<g id="clust5" class="cluster">
<title>cluster_src/services/Filters</title>
<path fill="#ffffff" stroke="black" stroke-width="2" d="M347,-24C347,-24 489,-24 489,-24 495,-24 501,-30 501,-36 501,-36 501,-67 501,-67 501,-73 495,-79 489,-79 489,-79 347,-79 347,-79 341,-79 335,-73 335,-67 335,-67 335,-36 335,-36 335,-30 341,-24 347,-24"/>
<text text-anchor="middle" x="418" y="-66.45" font-family="Helvetica,sans-Serif" font-weight="bold" font-size="9.00">Filters</text>
</g>
<g id="clust6" class="cluster">
<title>cluster_src/services/Storage</title>
<path fill="#ffffff" stroke="black" stroke-width="2" d="M443,-87C443,-87 1175.5,-87 1175.5,-87 1181.5,-87 1187.5,-93 1187.5,-99 1187.5,-99 1187.5,-457 1187.5,-457 1187.5,-463 1181.5,-469 1175.5,-469 1175.5,-469 443,-469 443,-469 437,-469 431,-463 431,-457 431,-457 431,-99 431,-99 431,-93 437,-87 443,-87"/>
<text text-anchor="middle" x="809.25" y="-456.45" font-family="Helvetica,sans-Serif" font-weight="bold" font-size="9.00">Storage</text>
</g>
<g id="clust7" class="cluster">
<title>cluster_src/services/Storage/application</title>
<path fill="#ffffff" stroke="black" stroke-width="2" d="M521,-112C521,-112 645.5,-112 645.5,-112 651.5,-112 657.5,-118 657.5,-124 657.5,-124 657.5,-190 657.5,-190 657.5,-196 651.5,-202 645.5,-202 645.5,-202 521,-202 521,-202 515,-202 509,-196 509,-190 509,-190 509,-124 509,-124 509,-118 515,-112 521,-112"/>
<text text-anchor="middle" x="583.25" y="-189.45" font-family="Helvetica,sans-Serif" font-weight="bold" font-size="9.00">application</text>
</g>
<g id="clust8" class="cluster">
<title>cluster_src/services/Storage/application/services</title>
<path fill="#ffffff" stroke="black" stroke-width="2" d="M529,-120C529,-120 637.5,-120 637.5,-120 643.5,-120 649.5,-126 649.5,-132 649.5,-132 649.5,-163 649.5,-163 649.5,-169 643.5,-175 637.5,-175 637.5,-175 529,-175 529,-175 523,-175 517,-169 517,-163 517,-163 517,-132 517,-132 517,-126 523,-120 529,-120"/>
<text text-anchor="middle" x="583.25" y="-162.45" font-family="Helvetica,sans-Serif" font-weight="bold" font-size="9.00">services</text>
</g>
<g id="clust9" class="cluster">
<title>cluster_src/services/Storage/domain</title>
<path fill="#ffffff" stroke="black" stroke-width="2" d="M962.5,-97C962.5,-97 1167.5,-97 1167.5,-97 1173.5,-97 1179.5,-103 1179.5,-109 1179.5,-109 1179.5,-269 1179.5,-269 1179.5,-275 1173.5,-281 1167.5,-281 1167.5,-281 962.5,-281 962.5,-281 956.5,-281 950.5,-275 950.5,-269 950.5,-269 950.5,-109 950.5,-109 950.5,-103 956.5,-97 962.5,-97"/>
<text text-anchor="middle" x="1065" y="-268.45" font-family="Helvetica,sans-Serif" font-weight="bold" font-size="9.00">domain</text>
</g>
<g id="clust10" class="cluster">
<title>cluster_src/services/Storage/domain/constants</title>
<path fill="#ffffff" stroke="black" stroke-width="2" d="M998.38,-105C998.38,-105 1044.38,-105 1044.38,-105 1050.38,-105 1056.38,-111 1056.38,-117 1056.38,-117 1056.38,-148 1056.38,-148 1056.38,-154 1050.38,-160 1044.38,-160 1044.38,-160 998.38,-160 998.38,-160 992.38,-160 986.38,-154 986.38,-148 986.38,-148 986.38,-117 986.38,-117 986.38,-111 992.38,-105 998.38,-105"/>
<text text-anchor="middle" x="1021.38" y="-147.45" font-family="Helvetica,sans-Serif" font-weight="bold" font-size="9.00">constants</text>
</g>
<g id="clust12" class="cluster">
<title>cluster_src/services/Storage/domain/repositories</title>
<path fill="#ffffff" stroke="black" stroke-width="2" d="M970.5,-168C970.5,-168 1072.25,-168 1072.25,-168 1078.25,-168 1084.25,-174 1084.25,-180 1084.25,-180 1084.25,-242 1084.25,-242 1084.25,-248 1078.25,-254 1072.25,-254 1072.25,-254 970.5,-254 970.5,-254 964.5,-254 958.5,-248 958.5,-242 958.5,-242 958.5,-180 958.5,-180 958.5,-174 964.5,-168 970.5,-168"/>
<text text-anchor="middle" x="1021.38" y="-241.45" font-family="Helvetica,sans-Serif" font-weight="bold" font-size="9.00">repositories</text>
</g>
<g id="clust11" class="cluster">
<title>cluster_src/services/Storage/domain/entities</title>
<path fill="#ffffff" stroke="black" stroke-width="2" d="M1104.25,-168C1104.25,-168 1159.5,-168 1159.5,-168 1165.5,-168 1171.5,-174 1171.5,-180 1171.5,-180 1171.5,-242 1171.5,-242 1171.5,-248 1165.5,-254 1159.5,-254 1159.5,-254 1104.25,-254 1104.25,-254 1098.25,-254 1092.25,-248 1092.25,-242 1092.25,-242 1092.25,-180 1092.25,-180 1092.25,-174 1098.25,-168 1104.25,-168"/>
<text text-anchor="middle" x="1131.88" y="-241.45" font-family="Helvetica,sans-Serif" font-weight="bold" font-size="9.00">entities</text>
</g>
<g id="clust13" class="cluster">
<title>cluster_src/services/Storage/infrastructure</title>
<path fill="#ffffff" stroke="black" stroke-width="2" d="M677.5,-97C677.5,-97 930.5,-97 930.5,-97 936.5,-97 942.5,-103 942.5,-109 942.5,-109 942.5,-206 942.5,-206 942.5,-212 936.5,-218 930.5,-218 930.5,-218 677.5,-218 677.5,-218 671.5,-218 665.5,-212 665.5,-206 665.5,-206 665.5,-109 665.5,-109 665.5,-103 671.5,-97 677.5,-97"/>
<text text-anchor="middle" x="804" y="-205.45" font-family="Helvetica,sans-Serif" font-weight="bold" font-size="9.00">infrastructure</text>
</g>
<g id="clust14" class="cluster">
<title>cluster_src/services/Storage/infrastructure/database</title>
<path fill="#ffffff" stroke="black" stroke-width="2" d="M817,-105C817,-105 922.5,-105 922.5,-105 928.5,-105 934.5,-111 934.5,-117 934.5,-117 934.5,-148 934.5,-148 934.5,-154 928.5,-160 922.5,-160 922.5,-160 817,-160 817,-160 811,-160 805,-154 805,-148 805,-148 805,-117 805,-117 805,-111 811,-105 817,-105"/>
<text text-anchor="middle" x="869.75" y="-147.45" font-family="Helvetica,sans-Serif" font-weight="bold" font-size="9.00">database</text>
</g>
<g id="clust15" class="cluster">
<title>cluster_src/services/Storage/infrastructure/repository</title>
<path fill="#ffffff" stroke="black" stroke-width="2" d="M685.5,-105C685.5,-105 785,-105 785,-105 791,-105 797,-111 797,-117 797,-117 797,-179 797,-179 797,-185 791,-191 785,-191 785,-191 685.5,-191 685.5,-191 679.5,-191 673.5,-185 673.5,-179 673.5,-179 673.5,-117 673.5,-117 673.5,-111 679.5,-105 685.5,-105"/>
<text text-anchor="middle" x="735.25" y="-178.45" font-family="Helvetica,sans-Serif" font-weight="bold" font-size="9.00">repository</text>
</g>
<g id="clust16" class="cluster">
<title>cluster_src/services/Storage/migrations</title>
<path fill="#ffffff" stroke="black" stroke-width="2" d="M712.25,-289C712.25,-289 1162.88,-289 1162.88,-289 1168.88,-289 1174.88,-295 1174.88,-301 1174.88,-301 1174.88,-430 1174.88,-430 1174.88,-436 1168.88,-442 1162.88,-442 1162.88,-442 712.25,-442 712.25,-442 706.25,-442 700.25,-436 700.25,-430 700.25,-430 700.25,-301 700.25,-301 700.25,-295 706.25,-289 712.25,-289"/>
<text text-anchor="middle" x="937.56" y="-429.45" font-family="Helvetica,sans-Serif" font-weight="bold" font-size="9.00">migrations</text>
</g>
<g id="clust19" class="cluster">
<title>cluster_src/services/Storage/migrations/v2</title>
<path fill="#ffffff" stroke="black" stroke-width="2" d="M998.38,-360C998.38,-360 1044.38,-360 1044.38,-360 1050.38,-360 1056.38,-366 1056.38,-372 1056.38,-372 1056.38,-403 1056.38,-403 1056.38,-409 1050.38,-415 1044.38,-415 1044.38,-415 998.38,-415 998.38,-415 992.38,-415 986.38,-409 986.38,-403 986.38,-403 986.38,-372 986.38,-372 986.38,-366 992.38,-360 998.38,-360"/>
<text text-anchor="middle" x="1021.38" y="-402.45" font-family="Helvetica,sans-Serif" font-weight="bold" font-size="9.00">v2</text>
</g>
<g id="clust17" class="cluster">
<title>cluster_src/services/Storage/migrations/utils</title>
<path fill="#ffffff" stroke="black" stroke-width="2" d="M1108.88,-328C1108.88,-328 1154.88,-328 1154.88,-328 1160.88,-328 1166.88,-334 1166.88,-340 1166.88,-340 1166.88,-371 1166.88,-371 1166.88,-377 1160.88,-383 1154.88,-383 1154.88,-383 1108.88,-383 1108.88,-383 1102.88,-383 1096.88,-377 1096.88,-371 1096.88,-371 1096.88,-340 1096.88,-340 1096.88,-334 1102.88,-328 1108.88,-328"/>
<text text-anchor="middle" x="1131.88" y="-370.45" font-family="Helvetica,sans-Serif" font-weight="bold" font-size="9.00">utils</text>
</g>
<g id="clust18" class="cluster">
<title>cluster_src/services/Storage/migrations/v1</title>
<path fill="#ffffff" stroke="black" stroke-width="2" d="M998.38,-297C998.38,-297 1044.38,-297 1044.38,-297 1050.38,-297 1056.38,-303 1056.38,-309 1056.38,-309 1056.38,-340 1056.38,-340 1056.38,-346 1050.38,-352 1044.38,-352 1044.38,-352 998.38,-352 998.38,-352 992.38,-352 986.38,-346 986.38,-340 986.38,-340 986.38,-309 986.38,-309 986.38,-303 992.38,-297 998.38,-297"/>
<text text-anchor="middle" x="1021.38" y="-339.45" font-family="Helvetica,sans-Serif" font-weight="bold" font-size="9.00">v1</text>
</g>
<g id="clust20" class="cluster">
<title>cluster_src/services/VideoParsers</title>
<path fill="#ffffff" stroke="black" stroke-width="2" d="M345,-101C345,-101 395,-101 395,-101 401,-101 407,-107 407,-113 407,-113 407,-144 407,-144 407,-150 401,-156 395,-156 395,-156 345,-156 345,-156 339,-156 333,-150 333,-144 333,-144 333,-113 333,-113 333,-107 339,-101 345,-101"/>
<text text-anchor="middle" x="370" y="-143.45" font-family="Helvetica,sans-Serif" font-weight="bold" font-size="9.00">VideoParsers</text>
</g>
<g id="clust21" class="cluster">
<title>cluster_src/stores</title>
<path fill="#ffffff" stroke="black" stroke-width="2" d="M160.5,-121C160.5,-121 227,-121 227,-121 233,-121 239,-127 239,-133 239,-133 239,-164 239,-164 239,-170 233,-176 227,-176 227,-176 160.5,-176 160.5,-176 154.5,-176 148.5,-170 148.5,-164 148.5,-164 148.5,-133 148.5,-133 148.5,-127 154.5,-121 160.5,-121"/>
<text text-anchor="middle" x="193.75" y="-163.45" font-family="Helvetica,sans-Serif" font-weight="bold" font-size="9.00">stores</text>
</g>
<!-- src/components/VideoCard.vue -->
<g id="node1" class="node">
<title>src/components/VideoCard.vue</title>
<g id="a_node1"><a xlink:href="src/components/VideoCard.vue" xlink:title="VideoCard.vue">
<path fill="#41f083" stroke="black" d="M109.83,-75.62C109.83,-75.62 46.67,-75.62 46.67,-75.62 43.46,-75.62 40.25,-72.42 40.25,-69.21 40.25,-69.21 40.25,-62.79 40.25,-62.79 40.25,-59.58 43.46,-56.38 46.67,-56.38 46.67,-56.38 109.83,-56.38 109.83,-56.38 113.04,-56.38 116.25,-59.58 116.25,-62.79 116.25,-62.79 116.25,-69.21 116.25,-69.21 116.25,-72.42 113.04,-75.62 109.83,-75.62"/>
<text text-anchor="start" x="48.25" y="-63.08" font-family="Helvetica,sans-Serif" font-size="9.00">VideoCard.vue</text>
</a>
</g>
</g>
<!-- src/services/index.ts -->
<g id="node2" class="node">
<title>src/services/index.ts</title>
<g id="a_node2"><a xlink:href="src/services/index.ts" xlink:title="index.ts">
<path fill="#ddfeff" stroke="black" d="M302.58,-101.62C302.58,-101.62 261.42,-101.62 261.42,-101.62 258.21,-101.62 255,-98.42 255,-95.21 255,-95.21 255,-88.79 255,-88.79 255,-85.58 258.21,-82.38 261.42,-82.38 261.42,-82.38 302.58,-82.38 302.58,-82.38 305.79,-82.38 309,-85.58 309,-88.79 309,-88.79 309,-95.21 309,-95.21 309,-98.42 305.79,-101.62 302.58,-101.62"/>
<text text-anchor="start" x="266.25" y="-89.08" font-family="Helvetica,sans-Serif" font-size="9.00">index.ts</text>
</a>
</g>
</g>
<!-- src/components/VideoCard.vue&#45;&gt;src/services/index.ts -->
<g id="edge1" class="edge">
<title>src/components/VideoCard.vue&#45;&gt;src/services/index.ts</title>
<path fill="none" stroke="#000000" stroke-width="2" stroke-opacity="0.200000" d="M116.44,-65.69C149.07,-66.1 197.64,-68.36 239,-77 241.97,-77.62 245.02,-78.4 248.04,-79.28"/>
<polygon fill="#000000" fill-opacity="0.200000" stroke="#000000" stroke-width="2" stroke-opacity="0.200000" points="247.21,-81.22 253.57,-81.04 248.49,-77.22 247.21,-81.22"/>
</g>
<!-- src/services/Filters/index.ts -->
<g id="node7" class="node">
<title>src/services/Filters/index.ts</title>
<g id="a_node7"><a xlink:href="src/services/Filters/index.ts" xlink:title="index.ts">
<path fill="#ddfeff" stroke="black" d="M390.58,-51.62C390.58,-51.62 349.42,-51.62 349.42,-51.62 346.21,-51.62 343,-48.42 343,-45.21 343,-45.21 343,-38.79 343,-38.79 343,-35.58 346.21,-32.38 349.42,-32.38 349.42,-32.38 390.58,-32.38 390.58,-32.38 393.79,-32.38 397,-35.58 397,-38.79 397,-38.79 397,-45.21 397,-45.21 397,-48.42 393.79,-51.62 390.58,-51.62"/>
<text text-anchor="start" x="354.25" y="-39.08" font-family="Helvetica,sans-Serif" font-size="9.00">index.ts</text>
</a>
</g>
</g>
<!-- src/services/index.ts&#45;&gt;src/services/Filters/index.ts -->
<g id="edge27" class="edge">
<title>src/services/index.ts&#45;&gt;src/services/Filters/index.ts</title>
<path fill="none" stroke="#000000" stroke-width="2" stroke-opacity="0.200000" d="M295.16,-81.9C304.94,-74.11 319.28,-63.45 342.69,-51.33"/>
<polygon fill="#000000" fill-opacity="0.200000" stroke="#000000" stroke-width="2" stroke-opacity="0.200000" points="345.5,-49.94 349.4,-58.04 341.3,-54.14 345.5,-49.94"/>
</g>
<!-- src/services/Storage/index.ts -->
<g id="node17" class="node">
<title>src/services/Storage/index.ts</title>
<g id="a_node17"><a xlink:href="src/services/Storage/index.ts" xlink:title="index.ts">
<path fill="#ddfeff" stroke="black" d="M486.58,-128.62C486.58,-128.62 445.42,-128.62 445.42,-128.62 442.21,-128.62 439,-125.42 439,-122.21 439,-122.21 439,-115.79 439,-115.79 439,-112.58 442.21,-109.38 445.42,-109.38 445.42,-109.38 486.58,-109.38 486.58,-109.38 489.79,-109.38 493,-112.58 493,-115.79 493,-115.79 493,-122.21 493,-122.21 493,-125.42 489.79,-128.62 486.58,-128.62"/>
<text text-anchor="start" x="450.25" y="-116.08" font-family="Helvetica,sans-Serif" font-size="9.00">index.ts</text>
</a>
</g>
</g>
<!-- src/services/index.ts&#45;&gt;src/services/Storage/index.ts -->
<g id="edge28" class="edge">
<title>src/services/index.ts&#45;&gt;src/services/Storage/index.ts</title>
<path fill="none" stroke="#000000" stroke-width="2" stroke-opacity="0.200000" d="M309.4,-91.01C334.7,-90.6 373.82,-91.35 442.03,-108.89"/>
<polygon fill="#000000" fill-opacity="0.200000" stroke="#000000" stroke-width="2" stroke-opacity="0.200000" points="444.84,-107.5 448.74,-115.6 440.64,-111.7 444.84,-107.5"/>
</g>
<!-- src/services/VideoParsers/index.ts -->
<g id="node23" class="node">
<title>src/services/VideoParsers/index.ts</title>
<g id="a_node23"><a xlink:href="src/services/VideoParsers/index.ts" xlink:title="index.ts">
<path fill="#ddfeff" stroke="black" d="M390.58,-128.62C390.58,-128.62 349.42,-128.62 349.42,-128.62 346.21,-128.62 343,-125.42 343,-122.21 343,-122.21 343,-115.79 343,-115.79 343,-112.58 346.21,-109.38 349.42,-109.38 349.42,-109.38 390.58,-109.38 390.58,-109.38 393.79,-109.38 397,-112.58 397,-115.79 397,-115.79 397,-122.21 397,-122.21 397,-125.42 393.79,-128.62 390.58,-128.62"/>
<text text-anchor="start" x="354.25" y="-116.08" font-family="Helvetica,sans-Serif" font-size="9.00">index.ts</text>
</a>
</g>
</g>
<!-- src/services/index.ts&#45;&gt;src/services/VideoParsers/index.ts -->
<g id="edge29" class="edge">
<title>src/services/index.ts&#45;&gt;src/services/VideoParsers/index.ts</title>
<path fill="none" stroke="#000000" stroke-width="2" stroke-opacity="0.200000" d="M309.27,-100.25C319.84,-103.57 332.01,-107.39 342.59,-110.71"/>
<polygon fill="#000000" fill-opacity="0.200000" stroke="#000000" stroke-width="2" stroke-opacity="0.200000" points="345.4,-109.32 349.3,-117.42 341.2,-113.52 345.4,-109.32"/>
</g>
<!-- src/components/inputs/FolderSelector.vue -->
<g id="node3" class="node">
<title>src/components/inputs/FolderSelector.vue</title>
<g id="a_node3"><a xlink:href="src/components/inputs/FolderSelector.vue" xlink:title="FolderSelector.vue">
<path fill="#41f083" stroke="black" d="M118.08,-111.62C118.08,-111.62 38.42,-111.62 38.42,-111.62 35.21,-111.62 32,-108.42 32,-105.21 32,-105.21 32,-98.79 32,-98.79 32,-95.58 35.21,-92.38 38.42,-92.38 38.42,-92.38 118.08,-92.38 118.08,-92.38 121.29,-92.38 124.5,-95.58 124.5,-98.79 124.5,-98.79 124.5,-105.21 124.5,-105.21 124.5,-108.42 121.29,-111.62 118.08,-111.62"/>
<text text-anchor="start" x="40" y="-99.08" font-family="Helvetica,sans-Serif" font-size="9.00">FolderSelector.vue</text>
</a>
</g>
</g>
<!-- src/components/inputs/FolderSelector.vue&#45;&gt;src/services/index.ts -->
<g id="edge2" class="edge">
<title>src/components/inputs/FolderSelector.vue&#45;&gt;src/services/index.ts</title>
<path fill="none" stroke="#000000" stroke-width="2" stroke-opacity="0.200000" d="M124.92,-92.27C130.2,-90.94 135.49,-89.51 140.5,-88 144.14,-86.91 144.76,-85.68 148.5,-85 188.08,-77.82 198.91,-81.68 239,-85 241.42,-85.2 243.9,-85.46 246.41,-85.77"/>
<polygon fill="#000000" fill-opacity="0.200000" stroke="#000000" stroke-width="2" stroke-opacity="0.200000" points="245.64,-87.78 251.87,-86.54 246.22,-83.63 245.64,-87.78"/>
</g>
<!-- src/stores/videosStore.ts -->
<g id="node4" class="node">
<title>src/stores/videosStore.ts</title>
<g id="a_node4"><a xlink:href="src/stores/videosStore.ts" xlink:title="videosStore.ts">
<path fill="#ddfeff" stroke="black" d="M224.58,-148.62C224.58,-148.62 162.92,-148.62 162.92,-148.62 159.71,-148.62 156.5,-145.42 156.5,-142.21 156.5,-142.21 156.5,-135.79 156.5,-135.79 156.5,-132.58 159.71,-129.38 162.92,-129.38 162.92,-129.38 224.58,-129.38 224.58,-129.38 227.79,-129.38 231,-132.58 231,-135.79 231,-135.79 231,-142.21 231,-142.21 231,-145.42 227.79,-148.62 224.58,-148.62"/>
<text text-anchor="start" x="164.5" y="-136.07" font-family="Helvetica,sans-Serif" font-size="9.00">videosStore.ts</text>
</a>
</g>
</g>
<!-- src/components/inputs/FolderSelector.vue&#45;&gt;src/stores/videosStore.ts -->
<g id="edge3" class="edge">
<title>src/components/inputs/FolderSelector.vue&#45;&gt;src/stores/videosStore.ts</title>
<path fill="none" stroke="#000000" stroke-width="2" stroke-opacity="0.200000" d="M109.22,-112.06C121.39,-116.12 135.61,-120.82 148.5,-125 149.75,-125.4 151.01,-125.81 152.29,-126.22"/>
<polygon fill="#000000" fill-opacity="0.200000" stroke="#000000" stroke-width="2" stroke-opacity="0.200000" points="151.59,-128.21 157.95,-128.04 152.87,-124.21 151.59,-128.21"/>
</g>
<!-- src/stores/videosStore.ts&#45;&gt;src/services/index.ts -->
<g id="edge30" class="edge">
<title>src/stores/videosStore.ts&#45;&gt;src/services/index.ts</title>
<path fill="none" stroke="#000000" stroke-width="2" stroke-opacity="0.200000" d="M230.48,-128.95C233.41,-127.75 236.29,-126.43 239,-125 247.85,-120.32 256.71,-113.72 264,-107.64"/>
<polygon fill="#000000" fill-opacity="0.200000" stroke="#000000" stroke-width="2" stroke-opacity="0.200000" points="265.25,-109.34 268.41,-103.82 262.5,-106.16 265.25,-109.34"/>
</g>
<!-- src/main.ts -->
<g id="node5" class="node">
<title>src/main.ts</title>
<g id="a_node5"><a xlink:href="src/main.ts" xlink:title="main.ts">
<path fill="#ddfeff" stroke="black" d="M214.33,-112.62C214.33,-112.62 173.17,-112.62 173.17,-112.62 169.96,-112.62 166.75,-109.42 166.75,-106.21 166.75,-106.21 166.75,-99.79 166.75,-99.79 166.75,-96.58 169.96,-93.38 173.17,-93.38 173.17,-93.38 214.33,-93.38 214.33,-93.38 217.54,-93.38 220.75,-96.58 220.75,-99.79 220.75,-99.79 220.75,-106.21 220.75,-106.21 220.75,-109.42 217.54,-112.62 214.33,-112.62"/>
<text text-anchor="start" x="178.38" y="-100.08" font-family="Helvetica,sans-Serif" font-size="9.00">main.ts</text>
</a>
</g>
</g>
<!-- src/main.ts&#45;&gt;src/services/index.ts -->
<g id="edge4" class="edge">
<title>src/main.ts&#45;&gt;src/services/index.ts</title>
<path fill="none" stroke="#000000" stroke-width="2" stroke-opacity="0.200000" d="M221.1,-99.64C228.88,-98.65 237.53,-97.54 245.78,-96.49"/>
<polygon fill="#000000" fill-opacity="0.200000" stroke="#000000" stroke-width="2" stroke-opacity="0.200000" points="245.83,-98.6 251.51,-95.76 245.3,-94.44 245.83,-98.6"/>
</g>
<!-- src/services/Filters/Filters.ts -->
<g id="node6" class="node">
<title>src/services/Filters/Filters.ts</title>
<g id="a_node6"><a xlink:href="src/services/Filters/Filters.ts" xlink:title="Filters.ts">
<path fill="#ddfeff" stroke="black" d="M486.58,-51.62C486.58,-51.62 445.42,-51.62 445.42,-51.62 442.21,-51.62 439,-48.42 439,-45.21 439,-45.21 439,-38.79 439,-38.79 439,-35.58 442.21,-32.38 445.42,-32.38 445.42,-32.38 486.58,-32.38 486.58,-32.38 489.79,-32.38 493,-35.58 493,-38.79 493,-38.79 493,-45.21 493,-45.21 493,-48.42 489.79,-51.62 486.58,-51.62"/>
<text text-anchor="start" x="448.38" y="-39.08" font-family="Helvetica,sans-Serif" font-size="9.00">Filters.ts</text>
</a>
</g>
</g>
<!-- src/services/Filters/index.ts&#45;&gt;src/services/Filters/Filters.ts -->
<g id="edge5" class="edge">
<title>src/services/Filters/index.ts&#45;&gt;src/services/Filters/Filters.ts</title>
<path fill="none" stroke="#000000" stroke-width="2" stroke-opacity="0.200000" d="M397.43,-42C410.36,-42 425.87,-42 438.76,-42"/>
<polygon fill="#000000" fill-opacity="0.200000" stroke="#000000" stroke-width="2" stroke-opacity="0.200000" points="441.57,-40.61 445.47,-48.71 437.37,-44.81 441.57,-40.61"/>
</g>
<!-- src/services/Storage/application/services/VideoMetadataService.ts -->
<g id="node8" class="node">
<title>src/services/Storage/application/services/VideoMetadataService.ts</title>
<g id="a_node8"><a xlink:href="src/services/Storage/application/services/VideoMetadataService.ts" xlink:title="VideoMetadataService.ts">
<path fill="#ddfeff" stroke="black" d="M635.08,-147.62C635.08,-147.62 531.42,-147.62 531.42,-147.62 528.21,-147.62 525,-144.42 525,-141.21 525,-141.21 525,-134.79 525,-134.79 525,-131.58 528.21,-128.38 531.42,-128.38 531.42,-128.38 635.08,-128.38 635.08,-128.38 638.29,-128.38 641.5,-131.58 641.5,-134.79 641.5,-134.79 641.5,-141.21 641.5,-141.21 641.5,-144.42 638.29,-147.62 635.08,-147.62"/>
<text text-anchor="start" x="533" y="-135.07" font-family="Helvetica,sans-Serif" font-size="9.00">VideoMetadataService.ts</text>
</a>
</g>
</g>
<!-- src/services/Storage/infrastructure/repository/MetadataRepository.ts -->
<g id="node9" class="node">
<title>src/services/Storage/infrastructure/repository/MetadataRepository.ts</title>
<g id="a_node9"><a xlink:href="src/services/Storage/infrastructure/repository/MetadataRepository.ts" xlink:title="MetadataRepository.ts">
<path fill="#ddfeff" stroke="black" d="M782.58,-132.62C782.58,-132.62 687.92,-132.62 687.92,-132.62 684.71,-132.62 681.5,-129.42 681.5,-126.21 681.5,-126.21 681.5,-119.79 681.5,-119.79 681.5,-116.58 684.71,-113.38 687.92,-113.38 687.92,-113.38 782.58,-113.38 782.58,-113.38 785.79,-113.38 789,-116.58 789,-119.79 789,-119.79 789,-126.21 789,-126.21 789,-129.42 785.79,-132.62 782.58,-132.62"/>
<text text-anchor="start" x="689.5" y="-120.08" font-family="Helvetica,sans-Serif" font-size="9.00">MetadataRepository.ts</text>
</a>
</g>
</g>
<!-- src/services/Storage/application/services/VideoMetadataService.ts&#45;&gt;src/services/Storage/infrastructure/repository/MetadataRepository.ts -->
<g id="edge6" class="edge">
<title>src/services/Storage/application/services/VideoMetadataService.ts&#45;&gt;src/services/Storage/infrastructure/repository/MetadataRepository.ts</title>
<path fill="none" stroke="#000000" stroke-width="2" stroke-opacity="0.200000" d="M641.81,-132.24C651.78,-131.25 662.19,-130.21 672.27,-129.2"/>
<polygon fill="#000000" fill-opacity="0.200000" stroke="#000000" stroke-width="2" stroke-opacity="0.200000" points="672.25,-131.31 678.01,-128.62 671.83,-127.13 672.25,-131.31"/>
</g>
<!-- src/services/Storage/infrastructure/repository/VideoRepository.ts -->
<g id="node10" class="node">
<title>src/services/Storage/infrastructure/repository/VideoRepository.ts</title>
<g id="a_node10"><a xlink:href="src/services/Storage/infrastructure/repository/VideoRepository.ts" xlink:title="VideoRepository.ts">
<path fill="#ddfeff" stroke="black" d="M775.46,-163.62C775.46,-163.62 695.04,-163.62 695.04,-163.62 691.83,-163.62 688.62,-160.42 688.62,-157.21 688.62,-157.21 688.62,-150.79 688.62,-150.79 688.62,-147.58 691.83,-144.38 695.04,-144.38 695.04,-144.38 775.46,-144.38 775.46,-144.38 778.67,-144.38 781.88,-147.58 781.88,-150.79 781.88,-150.79 781.88,-157.21 781.88,-157.21 781.88,-160.42 778.67,-163.62 775.46,-163.62"/>
<text text-anchor="start" x="696.62" y="-151.07" font-family="Helvetica,sans-Serif" font-size="9.00">VideoRepository.ts</text>
</a>
</g>
</g>
<!-- src/services/Storage/application/services/VideoMetadataService.ts&#45;&gt;src/services/Storage/infrastructure/repository/VideoRepository.ts -->
<g id="edge7" class="edge">
<title>src/services/Storage/application/services/VideoMetadataService.ts&#45;&gt;src/services/Storage/infrastructure/repository/VideoRepository.ts</title>
<path fill="none" stroke="#000000" stroke-width="2" stroke-opacity="0.200000" d="M641.81,-144.14C654.18,-145.46 667.22,-146.85 679.47,-148.16"/>
<polygon fill="#000000" fill-opacity="0.200000" stroke="#000000" stroke-width="2" stroke-opacity="0.200000" points="679.04,-150.22 685.23,-148.77 679.49,-146.05 679.04,-150.22"/>
</g>
<!-- src/services/Storage/migrations/index.ts -->
<g id="node11" class="node">
<title>src/services/Storage/migrations/index.ts</title>
<g id="a_node11"><a xlink:href="src/services/Storage/migrations/index.ts" xlink:title="index.ts">
<path fill="#ddfeff" stroke="black" d="M755.83,-320.62C755.83,-320.62 714.67,-320.62 714.67,-320.62 711.46,-320.62 708.25,-317.42 708.25,-314.21 708.25,-314.21 708.25,-307.79 708.25,-307.79 708.25,-304.58 711.46,-301.38 714.67,-301.38 714.67,-301.38 755.83,-301.38 755.83,-301.38 759.04,-301.38 762.25,-304.58 762.25,-307.79 762.25,-307.79 762.25,-314.21 762.25,-314.21 762.25,-317.42 759.04,-320.62 755.83,-320.62"/>
<text text-anchor="start" x="719.5" y="-308.07" font-family="Helvetica,sans-Serif" font-size="9.00">index.ts</text>
</a>
</g>
</g>
<!-- src/services/Storage/application/services/VideoMetadataService.ts&#45;&gt;src/services/Storage/migrations/index.ts -->
<g id="edge8" class="edge">
<title>src/services/Storage/application/services/VideoMetadataService.ts&#45;&gt;src/services/Storage/migrations/index.ts</title>
<path fill="none" stroke="#000000" stroke-width="2" stroke-opacity="0.200000" d="M592.96,-148.05C617.82,-176.71 689.24,-259.09 719.94,-294.5"/>
<polygon fill="#000000" fill-opacity="0.200000" stroke="#000000" stroke-width="2" stroke-opacity="0.200000" points="718.01,-295.48 723.53,-298.64 721.19,-292.73 718.01,-295.48"/>
</g>
<!-- src/services/Storage/domain/constants/index.ts -->
<g id="node12" class="node">
<title>src/services/Storage/domain/constants/index.ts</title>
<g id="a_node12"><a xlink:href="src/services/Storage/domain/constants/index.ts" xlink:title="index.ts">
<path fill="#ddfeff" stroke="black" d="M1041.96,-132.62C1041.96,-132.62 1000.79,-132.62 1000.79,-132.62 997.58,-132.62 994.38,-129.42 994.38,-126.21 994.38,-126.21 994.38,-119.79 994.38,-119.79 994.38,-116.58 997.58,-113.38 1000.79,-113.38 1000.79,-113.38 1041.96,-113.38 1041.96,-113.38 1045.17,-113.38 1048.38,-116.58 1048.38,-119.79 1048.38,-119.79 1048.38,-126.21 1048.38,-126.21 1048.38,-129.42 1045.17,-132.62 1041.96,-132.62"/>
<text text-anchor="start" x="1005.62" y="-120.08" font-family="Helvetica,sans-Serif" font-size="9.00">index.ts</text>
</a>
</g>
</g>
<!-- src/services/Storage/infrastructure/repository/MetadataRepository.ts&#45;&gt;src/services/Storage/domain/constants/index.ts -->
<g id="edge13" class="edge">
<title>src/services/Storage/infrastructure/repository/MetadataRepository.ts&#45;&gt;src/services/Storage/domain/constants/index.ts</title>
<path fill="none" stroke="#000000" stroke-width="2" stroke-opacity="0.200000" d="M789.41,-132.39C792.14,-133.99 794.7,-135.85 797,-138 805.52,-145.97 795.58,-156.12 805,-163 829.68,-181.02 912.8,-170.18 942.5,-163 962.75,-158.1 983.65,-146.98 998.69,-137.7"/>
<polygon fill="#000000" fill-opacity="0.200000" stroke="#000000" stroke-width="2" stroke-opacity="0.200000" points="999.5,-139.68 1003.43,-134.69 997.24,-136.13 999.5,-139.68"/>
</g>
<!-- src/services/Storage/domain/entities/Metadata.ts -->
<g id="node13" class="node">
<title>src/services/Storage/domain/entities/Metadata.ts</title>
<g id="a_node13"><a xlink:href="src/services/Storage/domain/entities/Metadata.ts" xlink:title="Metadata.ts">
<path fill="#ddfeff" stroke="black" d="M1157.08,-195.62C1157.08,-195.62 1106.67,-195.62 1106.67,-195.62 1103.46,-195.62 1100.25,-192.42 1100.25,-189.21 1100.25,-189.21 1100.25,-182.79 1100.25,-182.79 1100.25,-179.58 1103.46,-176.38 1106.67,-176.38 1106.67,-176.38 1157.08,-176.38 1157.08,-176.38 1160.29,-176.38 1163.5,-179.58 1163.5,-182.79 1163.5,-182.79 1163.5,-189.21 1163.5,-189.21 1163.5,-192.42 1160.29,-195.62 1157.08,-195.62"/>
<text text-anchor="start" x="1108.25" y="-183.07" font-family="Helvetica,sans-Serif" font-size="9.00">Metadata.ts</text>
</a>
</g>
</g>
<!-- src/services/Storage/infrastructure/repository/MetadataRepository.ts&#45;&gt;src/services/Storage/domain/entities/Metadata.ts -->
<g id="edge14" class="edge">
<title>src/services/Storage/infrastructure/repository/MetadataRepository.ts&#45;&gt;src/services/Storage/domain/entities/Metadata.ts</title>
<path fill="none" stroke="#000000" stroke-opacity="0.200000" d="M760.32,-113C820.04,-89.89 977.84,-39.36 1084.25,-102 1108.72,-116.41 1121.27,-148.8 1126.92,-168.89"/>
<polygon fill="none" stroke="#000000" stroke-opacity="0.200000" points="1124.83,-169.18 1128.38,-174.46 1128.89,-168.12 1124.83,-169.18"/>
</g>
<!-- src/services/Storage/domain/repositories/IMetadataRepository.ts -->
<g id="node15" class="node">
<title>src/services/Storage/domain/repositories/IMetadataRepository.ts</title>
<g id="a_node15"><a xlink:href="src/services/Storage/domain/repositories/IMetadataRepository.ts" xlink:title="IMetadataRepository.ts">
<path fill="#ddfeff" stroke="black" d="M1069.83,-195.62C1069.83,-195.62 972.92,-195.62 972.92,-195.62 969.71,-195.62 966.5,-192.42 966.5,-189.21 966.5,-189.21 966.5,-182.79 966.5,-182.79 966.5,-179.58 969.71,-176.38 972.92,-176.38 972.92,-176.38 1069.83,-176.38 1069.83,-176.38 1073.04,-176.38 1076.25,-179.58 1076.25,-182.79 1076.25,-182.79 1076.25,-189.21 1076.25,-189.21 1076.25,-192.42 1073.04,-195.62 1069.83,-195.62"/>
<text text-anchor="start" x="974.5" y="-183.07" font-family="Helvetica,sans-Serif" font-size="9.00">IMetadataRepository.ts</text>
</a>
</g>
</g>
<!-- src/services/Storage/infrastructure/repository/MetadataRepository.ts&#45;&gt;src/services/Storage/domain/repositories/IMetadataRepository.ts -->
<g id="edge15" class="edge">
<title>src/services/Storage/infrastructure/repository/MetadataRepository.ts&#45;&gt;src/services/Storage/domain/repositories/IMetadataRepository.ts</title>
<path fill="none" stroke="#000000" stroke-opacity="0.200000" d="M789.32,-132.03C792.11,-133.72 794.7,-135.69 797,-138 807.65,-148.69 793.47,-161.26 805,-171 851.17,-209.99 924.61,-205.82 972.66,-197.39"/>
<polygon fill="none" stroke="#000000" stroke-opacity="0.200000" points="972.84,-199.49 978.36,-196.33 972.08,-195.36 972.84,-199.49"/>
</g>
<!-- src/services/Storage/infrastructure/database/DatabaseConnection.ts -->
<g id="node18" class="node">
<title>src/services/Storage/infrastructure/database/DatabaseConnection.ts</title>
<g id="a_node18"><a xlink:href="src/services/Storage/infrastructure/database/DatabaseConnection.ts" xlink:title="DatabaseConnection.ts">
<path fill="#ddfeff" stroke="black" d="M920.08,-132.62C920.08,-132.62 819.42,-132.62 819.42,-132.62 816.21,-132.62 813,-129.42 813,-126.21 813,-126.21 813,-119.79 813,-119.79 813,-116.58 816.21,-113.38 819.42,-113.38 819.42,-113.38 920.08,-113.38 920.08,-113.38 923.29,-113.38 926.5,-116.58 926.5,-119.79 926.5,-119.79 926.5,-126.21 926.5,-126.21 926.5,-129.42 923.29,-132.62 920.08,-132.62"/>
<text text-anchor="start" x="821" y="-120.08" font-family="Helvetica,sans-Serif" font-size="9.00">DatabaseConnection.ts</text>
</a>
</g>
</g>
<!-- src/services/Storage/infrastructure/repository/MetadataRepository.ts&#45;&gt;src/services/Storage/infrastructure/database/DatabaseConnection.ts -->
<g id="edge16" class="edge">
<title>src/services/Storage/infrastructure/repository/MetadataRepository.ts&#45;&gt;src/services/Storage/infrastructure/database/DatabaseConnection.ts</title>
<path fill="none" stroke="#000000" stroke-width="2" stroke-opacity="0.200000" d="M789.38,-123C794.15,-123 799.01,-123 803.87,-123"/>
<polygon fill="#000000" fill-opacity="0.200000" stroke="#000000" stroke-width="2" stroke-opacity="0.200000" points="803.55,-125.1 809.55,-123 803.55,-120.9 803.55,-125.1"/>
</g>
<!-- src/services/Storage/infrastructure/repository/VideoRepository.ts&#45;&gt;src/services/Storage/domain/constants/index.ts -->
<g id="edge17" class="edge">
<title>src/services/Storage/infrastructure/repository/VideoRepository.ts&#45;&gt;src/services/Storage/domain/constants/index.ts</title>
<path fill="none" stroke="#000000" stroke-width="2" stroke-opacity="0.200000" d="M767.57,-164.1C808.8,-175.72 883.02,-190.83 942.5,-171 946.72,-169.59 946.81,-167.48 950.5,-165 964.93,-155.29 981.61,-145.22 995.05,-137.38"/>
<polygon fill="#000000" fill-opacity="0.200000" stroke="#000000" stroke-width="2" stroke-opacity="0.200000" points="995.79,-139.38 999.93,-134.56 993.68,-135.75 995.79,-139.38"/>
</g>
<!-- src/services/Storage/domain/entities/Video.ts -->
<g id="node14" class="node">
<title>src/services/Storage/domain/entities/Video.ts</title>
<g id="a_node14"><a xlink:href="src/services/Storage/domain/entities/Video.ts" xlink:title="Video.ts">
<path fill="#ddfeff" stroke="black" d="M1152.46,-226.62C1152.46,-226.62 1111.29,-226.62 1111.29,-226.62 1108.08,-226.62 1104.88,-223.42 1104.88,-220.21 1104.88,-220.21 1104.88,-213.79 1104.88,-213.79 1104.88,-210.58 1108.08,-207.38 1111.29,-207.38 1111.29,-207.38 1152.46,-207.38 1152.46,-207.38 1155.67,-207.38 1158.88,-210.58 1158.88,-213.79 1158.88,-213.79 1158.88,-220.21 1158.88,-220.21 1158.88,-223.42 1155.67,-226.62 1152.46,-226.62"/>
<text text-anchor="start" x="1115.38" y="-214.07" font-family="Helvetica,sans-Serif" font-size="9.00">Video.ts</text>
</a>
</g>
</g>
<!-- src/services/Storage/infrastructure/repository/VideoRepository.ts&#45;&gt;src/services/Storage/domain/entities/Video.ts -->
<g id="edge18" class="edge">
<title>src/services/Storage/infrastructure/repository/VideoRepository.ts&#45;&gt;src/services/Storage/domain/entities/Video.ts</title>
<path fill="none" stroke="#000000" stroke-opacity="0.200000" d="M750.41,-163.95C783.48,-186.47 869.17,-240.64 950.5,-257 1008.78,-268.72 1028.5,-277.64 1084.25,-257 1097.67,-252.03 1109.83,-241.29 1118.36,-232.18"/>
<polygon fill="none" stroke="#000000" stroke-opacity="0.200000" points="1119.74,-233.79 1122.18,-227.92 1116.61,-230.99 1119.74,-233.79"/>
</g>
<!-- src/services/Storage/domain/repositories/IVideoRepository.ts -->
<g id="node16" class="node">
<title>src/services/Storage/domain/repositories/IVideoRepository.ts</title>
<g id="a_node16"><a xlink:href="src/services/Storage/domain/repositories/IVideoRepository.ts" xlink:title="IVideoRepository.ts">
<path fill="#ddfeff" stroke="black" d="M1062.71,-226.62C1062.71,-226.62 980.04,-226.62 980.04,-226.62 976.83,-226.62 973.62,-223.42 973.62,-220.21 973.62,-220.21 973.62,-213.79 973.62,-213.79 973.62,-210.58 976.83,-207.38 980.04,-207.38 980.04,-207.38 1062.71,-207.38 1062.71,-207.38 1065.92,-207.38 1069.12,-210.58 1069.12,-213.79 1069.12,-213.79 1069.12,-220.21 1069.12,-220.21 1069.12,-223.42 1065.92,-226.62 1062.71,-226.62"/>
<text text-anchor="start" x="981.62" y="-214.07" font-family="Helvetica,sans-Serif" font-size="9.00">IVideoRepository.ts</text>
</a>
</g>
</g>
<!-- src/services/Storage/infrastructure/repository/VideoRepository.ts&#45;&gt;src/services/Storage/domain/repositories/IVideoRepository.ts -->
<g id="edge19" class="edge">
<title>src/services/Storage/infrastructure/repository/VideoRepository.ts&#45;&gt;src/services/Storage/domain/repositories/IVideoRepository.ts</title>
<path fill="none" stroke="#000000" stroke-opacity="0.200000" d="M760.74,-164.08C773.72,-169.13 790.03,-174.99 805,-179 858.91,-193.44 921.92,-203.83 965.81,-210.05"/>
<polygon fill="none" stroke="#000000" stroke-opacity="0.200000" points="965.49,-212.13 971.73,-210.88 966.08,-207.97 965.49,-212.13"/>
</g>
<!-- src/services/Storage/infrastructure/repository/VideoRepository.ts&#45;&gt;src/services/Storage/infrastructure/database/DatabaseConnection.ts -->
<g id="edge20" class="edge">
<title>src/services/Storage/infrastructure/repository/VideoRepository.ts&#45;&gt;src/services/Storage/infrastructure/database/DatabaseConnection.ts</title>
<path fill="none" stroke="#000000" stroke-width="2" stroke-opacity="0.200000" d="M779.27,-143.94C791.3,-141.12 804.51,-138.03 816.99,-135.11"/>
<polygon fill="#000000" fill-opacity="0.200000" stroke="#000000" stroke-width="2" stroke-opacity="0.200000" points="817.18,-137.22 822.55,-133.81 816.23,-133.13 817.18,-137.22"/>
</g>
<!-- src/services/Storage/migrations/migrations.ts -->
<g id="node19" class="node">
<title>src/services/Storage/migrations/migrations.ts</title>
<g id="a_node19"><a xlink:href="src/services/Storage/migrations/migrations.ts" xlink:title="migrations.ts">
<path fill="#ddfeff" stroke="black" d="M898.33,-324.62C898.33,-324.62 841.17,-324.62 841.17,-324.62 837.96,-324.62 834.75,-321.42 834.75,-318.21 834.75,-318.21 834.75,-311.79 834.75,-311.79 834.75,-308.58 837.96,-305.38 841.17,-305.38 841.17,-305.38 898.33,-305.38 898.33,-305.38 901.54,-305.38 904.75,-308.58 904.75,-311.79 904.75,-311.79 904.75,-318.21 904.75,-318.21 904.75,-321.42 901.54,-324.62 898.33,-324.62"/>
<text text-anchor="start" x="842.75" y="-312.07" font-family="Helvetica,sans-Serif" font-size="9.00">migrations.ts</text>
</a>
</g>
</g>
<!-- src/services/Storage/migrations/index.ts&#45;&gt;src/services/Storage/migrations/migrations.ts -->
<g id="edge21" class="edge">
<title>src/services/Storage/migrations/index.ts&#45;&gt;src/services/Storage/migrations/migrations.ts</title>
<path fill="none" stroke="#000000" stroke-width="2" stroke-opacity="0.200000" d="M762.74,-311.8C783.29,-312.42 811.92,-313.28 834.25,-313.96"/>
<polygon fill="#000000" fill-opacity="0.200000" stroke="#000000" stroke-width="2" stroke-opacity="0.200000" points="837.06,-312.57 840.96,-320.67 832.86,-316.77 837.06,-312.57"/>
</g>
<!-- src/services/Storage/domain/repositories/IMetadataRepository.ts&#45;&gt;src/services/Storage/domain/entities/Metadata.ts -->
<g id="edge9" class="edge">
<title>src/services/Storage/domain/repositories/IMetadataRepository.ts&#45;&gt;src/services/Storage/domain/entities/Metadata.ts</title>
<path fill="none" stroke="#000000" stroke-opacity="0.200000" d="M1076.62,-186C1081.96,-186 1087.3,-186 1092.44,-186"/>
<polygon fill="none" stroke="#000000" stroke-opacity="0.200000" points="1092.27,-188.1 1098.27,-186 1092.27,-183.9 1092.27,-188.1"/>
</g>
<!-- src/services/Storage/domain/repositories/IVideoRepository.ts&#45;&gt;src/services/Storage/domain/entities/Video.ts -->
<g id="edge10" class="edge">
<title>src/services/Storage/domain/repositories/IVideoRepository.ts&#45;&gt;src/services/Storage/domain/entities/Video.ts</title>
<path fill="none" stroke="#000000" stroke-opacity="0.200000" d="M1069.33,-217C1078.64,-217 1088.23,-217 1096.99,-217"/>
<polygon fill="none" stroke="#000000" stroke-opacity="0.200000" points="1096.94,-219.1 1102.94,-217 1096.94,-214.9 1096.94,-219.1"/>
</g>
<!-- src/services/Storage/index.ts&#45;&gt;src/services/Storage/application/services/VideoMetadataService.ts -->
<g id="edge11" class="edge">
<title>src/services/Storage/index.ts&#45;&gt;src/services/Storage/application/services/VideoMetadataService.ts</title>
<path fill="none" stroke="#000000" stroke-width="2" stroke-opacity="0.200000" d="M493.44,-123.36C500.37,-124.5 508.16,-125.79 516.18,-127.11"/>
<polygon fill="#000000" fill-opacity="0.200000" stroke="#000000" stroke-width="2" stroke-opacity="0.200000" points="515.68,-129.15 521.94,-128.06 516.36,-125.01 515.68,-129.15"/>
</g>
<!-- src/services/Storage/infrastructure/database/DatabaseConnection.ts&#45;&gt;src/services/Storage/domain/constants/index.ts -->
<g id="edge12" class="edge">
<title>src/services/Storage/infrastructure/database/DatabaseConnection.ts&#45;&gt;src/services/Storage/domain/constants/index.ts</title>
<path fill="none" stroke="#000000" stroke-width="2" stroke-opacity="0.200000" d="M926.89,-123C946.52,-123 967.98,-123 985.39,-123"/>
<polygon fill="#000000" fill-opacity="0.200000" stroke="#000000" stroke-width="2" stroke-opacity="0.200000" points="985.06,-125.1 991.06,-123 985.06,-120.9 985.06,-125.1"/>
</g>
<!-- src/services/Storage/migrations/v1/index.ts -->
<g id="node20" class="node">
<title>src/services/Storage/migrations/v1/index.ts</title>
<g id="a_node20"><a xlink:href="src/services/Storage/migrations/v1/index.ts" xlink:title="index.ts">
<path fill="#ddfeff" stroke="black" d="M1041.96,-324.62C1041.96,-324.62 1000.79,-324.62 1000.79,-324.62 997.58,-324.62 994.38,-321.42 994.38,-318.21 994.38,-318.21 994.38,-311.79 994.38,-311.79 994.38,-308.58 997.58,-305.38 1000.79,-305.38 1000.79,-305.38 1041.96,-305.38 1041.96,-305.38 1045.17,-305.38 1048.38,-308.58 1048.38,-311.79 1048.38,-311.79 1048.38,-318.21 1048.38,-318.21 1048.38,-321.42 1045.17,-324.62 1041.96,-324.62"/>
<text text-anchor="start" x="1005.62" y="-312.07" font-family="Helvetica,sans-Serif" font-size="9.00">index.ts</text>
</a>
</g>
</g>
<!-- src/services/Storage/migrations/migrations.ts&#45;&gt;src/services/Storage/migrations/v1/index.ts -->
<g id="edge22" class="edge">
<title>src/services/Storage/migrations/migrations.ts&#45;&gt;src/services/Storage/migrations/v1/index.ts</title>
<path fill="none" stroke="#000000" stroke-width="2" stroke-opacity="0.200000" d="M905.08,-315C929.1,-315 961.09,-315 985.28,-315"/>
<polygon fill="#000000" fill-opacity="0.200000" stroke="#000000" stroke-width="2" stroke-opacity="0.200000" points="985.11,-317.1 991.11,-315 985.11,-312.9 985.11,-317.1"/>
</g>
<!-- src/services/Storage/migrations/v2/index.ts -->
<g id="node21" class="node">
<title>src/services/Storage/migrations/v2/index.ts</title>
<g id="a_node21"><a xlink:href="src/services/Storage/migrations/v2/index.ts" xlink:title="index.ts">
<path fill="#ddfeff" stroke="black" d="M1041.96,-387.62C1041.96,-387.62 1000.79,-387.62 1000.79,-387.62 997.58,-387.62 994.38,-384.42 994.38,-381.21 994.38,-381.21 994.38,-374.79 994.38,-374.79 994.38,-371.58 997.58,-368.38 1000.79,-368.38 1000.79,-368.38 1041.96,-368.38 1041.96,-368.38 1045.17,-368.38 1048.38,-371.58 1048.38,-374.79 1048.38,-374.79 1048.38,-381.21 1048.38,-381.21 1048.38,-384.42 1045.17,-387.62 1041.96,-387.62"/>
<text text-anchor="start" x="1005.62" y="-375.07" font-family="Helvetica,sans-Serif" font-size="9.00">index.ts</text>
</a>
</g>
</g>
<!-- src/services/Storage/migrations/migrations.ts&#45;&gt;src/services/Storage/migrations/v2/index.ts -->
<g id="edge23" class="edge">
<title>src/services/Storage/migrations/migrations.ts&#45;&gt;src/services/Storage/migrations/v2/index.ts</title>
<path fill="none" stroke="#000000" stroke-width="2" stroke-opacity="0.200000" d="M888.77,-324.99C904.7,-333.6 928.74,-346.02 950.5,-355 961.79,-359.66 974.39,-364.05 985.76,-367.72"/>
<polygon fill="#000000" fill-opacity="0.200000" stroke="#000000" stroke-width="2" stroke-opacity="0.200000" points="984.92,-369.65 991.27,-369.46 986.19,-365.65 984.92,-369.65"/>
</g>
<!-- src/services/Storage/migrations/utils/index.ts -->
<g id="node22" class="node">
<title>src/services/Storage/migrations/utils/index.ts</title>
<g id="a_node22"><a xlink:href="src/services/Storage/migrations/utils/index.ts" xlink:title="index.ts">
<path fill="#ddfeff" stroke="black" d="M1152.46,-355.62C1152.46,-355.62 1111.29,-355.62 1111.29,-355.62 1108.08,-355.62 1104.88,-352.42 1104.88,-349.21 1104.88,-349.21 1104.88,-342.79 1104.88,-342.79 1104.88,-339.58 1108.08,-336.38 1111.29,-336.38 1111.29,-336.38 1152.46,-336.38 1152.46,-336.38 1155.67,-336.38 1158.88,-339.58 1158.88,-342.79 1158.88,-342.79 1158.88,-349.21 1158.88,-349.21 1158.88,-352.42 1155.67,-355.62 1152.46,-355.62"/>
<text text-anchor="start" x="1116.12" y="-343.07" font-family="Helvetica,sans-Serif" font-size="9.00">index.ts</text>
</a>
</g>
</g>
<!-- src/services/Storage/migrations/v1/index.ts&#45;&gt;src/services/Storage/migrations/utils/index.ts -->
<g id="edge24" class="edge">
<title>src/services/Storage/migrations/v1/index.ts&#45;&gt;src/services/Storage/migrations/utils/index.ts</title>
<path fill="none" stroke="#000000" stroke-width="2" stroke-opacity="0.200000" d="M1048.64,-322.5C1062.93,-326.59 1080.78,-331.69 1096.2,-336.09"/>
<polygon fill="#000000" fill-opacity="0.200000" stroke="#000000" stroke-width="2" stroke-opacity="0.200000" points="1095.22,-338 1101.57,-337.63 1096.37,-333.96 1095.22,-338"/>
</g>
<!-- src/services/Storage/migrations/v2/index.ts&#45;&gt;src/services/Storage/migrations/utils/index.ts -->
<g id="edge25" class="edge">
<title>src/services/Storage/migrations/v2/index.ts&#45;&gt;src/services/Storage/migrations/utils/index.ts</title>
<path fill="none" stroke="#000000" stroke-width="2" stroke-opacity="0.200000" d="M1048.64,-370.25C1062.93,-366.04 1080.78,-360.77 1096.2,-356.23"/>
<polygon fill="#000000" fill-opacity="0.200000" stroke="#000000" stroke-width="2" stroke-opacity="0.200000" points="1096.41,-358.35 1101.57,-354.64 1095.22,-354.33 1096.41,-358.35"/>
</g>
<!-- src/services/VideoParsers/index.ts&#45;&gt;src/services/Storage/index.ts -->
<g id="edge26" class="edge">
<title>src/services/VideoParsers/index.ts&#45;&gt;src/services/Storage/index.ts</title>
<path fill="none" stroke="#000000" stroke-width="2" stroke-opacity="0.200000" d="M397.43,-119C407.53,-119 419.21,-119 429.98,-119"/>
<polygon fill="#000000" fill-opacity="0.200000" stroke="#000000" stroke-width="2" stroke-opacity="0.200000" points="429.74,-121.1 435.74,-119 429.74,-116.9 429.74,-121.1"/>
</g>
</g>
</svg>
