<?xml version="1.0" encoding="UTF-8" standalone="no"?>
<!DOCTYPE svg PUBLIC "-//W3C//DTD SVG 1.1//EN"
 "http://www.w3.org/Graphics/SVG/1.1/DTD/svg11.dtd">
<!-- Generated by graphviz version 9.0.0 (20230911.1827)
 -->
<!-- Title: dependency&#45;cruiser output Pages: 1 -->
<svg width="518pt" height="278pt"
 viewBox="0.00 0.00 517.75 278.00" xmlns="http://www.w3.org/2000/svg" xmlns:xlink="http://www.w3.org/1999/xlink">
<g id="graph0" class="graph" transform="scale(1 1) rotate(0) translate(4 274)">
<title>dependency&#45;cruiser output</title>
<polygon fill="white" stroke="none" points="-4,4 -4,-274 513.75,-274 513.75,4 -4,4"/>
<g id="clust1" class="cluster">
<title>cluster_src</title>
<path fill="#ffffff" stroke="black" stroke-width="2" d="M20,-8C20,-8 489.75,-8 489.75,-8 495.75,-8 501.75,-14 501.75,-20 501.75,-20 501.75,-250 501.75,-250 501.75,-256 495.75,-262 489.75,-262 489.75,-262 20,-262 20,-262 14,-262 8,-256 8,-250 8,-250 8,-20 8,-20 8,-14 14,-8 20,-8"/>
<text text-anchor="middle" x="254.88" y="-249.45" font-family="Helvetica,sans-Serif" font-weight="bold" font-size="9.00">src</text>
</g>
<g id="clust2" class="cluster">
<title>cluster_src/application</title>
<path fill="#ffffff" stroke="black" stroke-width="2" d="M28,-32C28,-32 334.25,-32 334.25,-32 340.25,-32 346.25,-38 346.25,-44 346.25,-44 346.25,-141 346.25,-141 346.25,-147 340.25,-153 334.25,-153 334.25,-153 28,-153 28,-153 22,-153 16,-147 16,-141 16,-141 16,-44 16,-44 16,-38 22,-32 28,-32"/>
<text text-anchor="middle" x="181.12" y="-140.45" font-family="Helvetica,sans-Serif" font-weight="bold" font-size="9.00">application</text>
</g>
<g id="clust3" class="cluster">
<title>cluster_src/application/services</title>
<path fill="#ffffff" stroke="black" stroke-width="2" d="M98,-40C98,-40 326.25,-40 326.25,-40 332.25,-40 338.25,-46 338.25,-52 338.25,-52 338.25,-114 338.25,-114 338.25,-120 332.25,-126 326.25,-126 326.25,-126 98,-126 98,-126 92,-126 86,-120 86,-114 86,-114 86,-52 86,-52 86,-46 92,-40 98,-40"/>
<text text-anchor="middle" x="212.12" y="-113.45" font-family="Helvetica,sans-Serif" font-weight="bold" font-size="9.00">services</text>
</g>
<g id="clust4" class="cluster">
<title>cluster_src/infrastructure</title>
<path fill="#ffffff" stroke="black" stroke-width="2" d="M366.25,-16C366.25,-16 481.75,-16 481.75,-16 487.75,-16 493.75,-22 493.75,-28 493.75,-28 493.75,-223 493.75,-223 493.75,-229 487.75,-235 481.75,-235 481.75,-235 366.25,-235 366.25,-235 360.25,-235 354.25,-229 354.25,-223 354.25,-223 354.25,-28 354.25,-28 354.25,-22 360.25,-16 366.25,-16"/>
<text text-anchor="middle" x="424" y="-222.45" font-family="Helvetica,sans-Serif" font-weight="bold" font-size="9.00">infrastructure</text>
</g>
<g id="clust5" class="cluster">
<title>cluster_src/infrastructure/database</title>
<path fill="#ffffff" stroke="black" stroke-width="2" d="M393,-118C393,-118 455,-118 455,-118 461,-118 467,-124 467,-130 467,-130 467,-196 467,-196 467,-202 461,-208 455,-208 455,-208 393,-208 393,-208 387,-208 381,-202 381,-196 381,-196 381,-130 381,-130 381,-124 387,-118 393,-118"/>
<text text-anchor="middle" x="424" y="-195.45" font-family="Helvetica,sans-Serif" font-weight="bold" font-size="9.00">database</text>
</g>
<g id="clust6" class="cluster">
<title>cluster_src/infrastructure/database/migrations</title>
<path fill="#ffffff" stroke="black" stroke-width="2" d="M401,-126C401,-126 447,-126 447,-126 453,-126 459,-132 459,-138 459,-138 459,-169 459,-169 459,-175 453,-181 447,-181 447,-181 401,-181 401,-181 395,-181 389,-175 389,-169 389,-169 389,-138 389,-138 389,-132 395,-126 401,-126"/>
<text text-anchor="middle" x="424" y="-168.45" font-family="Helvetica,sans-Serif" font-weight="bold" font-size="9.00">migrations</text>
</g>
<g id="clust7" class="cluster">
<title>cluster_src/infrastructure/repository</title>
<path fill="#ffffff" stroke="black" stroke-width="2" d="M374.25,-24C374.25,-24 473.75,-24 473.75,-24 479.75,-24 485.75,-30 485.75,-36 485.75,-36 485.75,-98 485.75,-98 485.75,-104 479.75,-110 473.75,-110 473.75,-110 374.25,-110 374.25,-110 368.25,-110 362.25,-104 362.25,-98 362.25,-98 362.25,-36 362.25,-36 362.25,-30 368.25,-24 374.25,-24"/>
<text text-anchor="middle" x="424" y="-97.45" font-family="Helvetica,sans-Serif" font-weight="bold" font-size="9.00">repository</text>
</g>
<!-- src/application/index.ts -->
<g id="node1" class="node">
<title>src/application/index.ts</title>
<g id="a_node1"><a xlink:href="src/application/index.ts" xlink:title="index.ts">
<path fill="#ddfeff" stroke="black" d="M71.58,-98.62C71.58,-98.62 30.42,-98.62 30.42,-98.62 27.21,-98.62 24,-95.42 24,-92.21 24,-92.21 24,-85.79 24,-85.79 24,-82.58 27.21,-79.38 30.42,-79.38 30.42,-79.38 71.58,-79.38 71.58,-79.38 74.79,-79.38 78,-82.58 78,-85.79 78,-85.79 78,-92.21 78,-92.21 78,-95.42 74.79,-98.62 71.58,-98.62"/>
<text text-anchor="start" x="35.25" y="-86.08" font-family="Helvetica,sans-Serif" font-size="9.00">index.ts</text>
</a>
</g>
</g>
<!-- src/application/services/FiltersService.ts -->
<g id="node2" class="node">
<title>src/application/services/FiltersService.ts</title>
<g id="a_node2"><a xlink:href="src/application/services/FiltersService.ts" xlink:title="FiltersService.ts">
<path fill="#ddfeff" stroke="black" d="M181.58,-98.62C181.58,-98.62 113.17,-98.62 113.17,-98.62 109.96,-98.62 106.75,-95.42 106.75,-92.21 106.75,-92.21 106.75,-85.79 106.75,-85.79 106.75,-82.58 109.96,-79.38 113.17,-79.38 113.17,-79.38 181.58,-79.38 181.58,-79.38 184.79,-79.38 188,-82.58 188,-85.79 188,-85.79 188,-92.21 188,-92.21 188,-95.42 184.79,-98.62 181.58,-98.62"/>
<text text-anchor="start" x="114.75" y="-86.08" font-family="Helvetica,sans-Serif" font-size="9.00">FiltersService.ts</text>
</a>
</g>
</g>
<!-- src/application/index.ts&#45;&gt;src/application/services/FiltersService.ts -->
<g id="edge1" class="edge">
<title>src/application/index.ts&#45;&gt;src/application/services/FiltersService.ts</title>
<path fill="none" stroke="#000000" stroke-width="2" stroke-opacity="0.200000" d="M78.29,-89C84.29,-89 90.85,-89 97.46,-89"/>
<polygon fill="#000000" fill-opacity="0.200000" stroke="#000000" stroke-width="2" stroke-opacity="0.200000" points="97.43,-91.1 103.43,-89 97.43,-86.9 97.43,-91.1"/>
</g>
<!-- src/application/services/VideoMetadataService.ts -->
<g id="node3" class="node">
<title>src/application/services/VideoMetadataService.ts</title>
<g id="a_node3"><a xlink:href="src/application/services/VideoMetadataService.ts" xlink:title="VideoMetadataService.ts">
<path fill="#ddfeff" stroke="black" d="M323.83,-82.62C323.83,-82.62 220.17,-82.62 220.17,-82.62 216.96,-82.62 213.75,-79.42 213.75,-76.21 213.75,-76.21 213.75,-69.79 213.75,-69.79 213.75,-66.58 216.96,-63.38 220.17,-63.38 220.17,-63.38 323.83,-63.38 323.83,-63.38 327.04,-63.38 330.25,-66.58 330.25,-69.79 330.25,-69.79 330.25,-76.21 330.25,-76.21 330.25,-79.42 327.04,-82.62 323.83,-82.62"/>
<text text-anchor="start" x="221.75" y="-70.08" font-family="Helvetica,sans-Serif" font-size="9.00">VideoMetadataService.ts</text>
</a>
</g>
</g>
<!-- src/application/index.ts&#45;&gt;src/application/services/VideoMetadataService.ts -->
<g id="edge2" class="edge">
<title>src/application/index.ts&#45;&gt;src/application/services/VideoMetadataService.ts</title>
<path fill="none" stroke="#000000" stroke-width="2" stroke-opacity="0.200000" d="M69.47,-99.01C74.63,-101.47 80.4,-103.75 86,-105 135.77,-116.13 150.91,-115.82 200.75,-105 216.8,-101.52 233.59,-94.03 246.72,-87.18"/>
<polygon fill="#000000" fill-opacity="0.200000" stroke="#000000" stroke-width="2" stroke-opacity="0.200000" points="247.45,-89.17 251.73,-84.47 245.45,-85.48 247.45,-89.17"/>
</g>
<!-- src/application/services/VideoParserService.ts -->
<g id="node4" class="node">
<title>src/application/services/VideoParserService.ts</title>
<g id="a_node4"><a xlink:href="src/application/services/VideoParserService.ts" xlink:title="VideoParserService.ts">
<path fill="#ddfeff" stroke="black" d="M194.33,-67.62C194.33,-67.62 100.42,-67.62 100.42,-67.62 97.21,-67.62 94,-64.42 94,-61.21 94,-61.21 94,-54.79 94,-54.79 94,-51.58 97.21,-48.38 100.42,-48.38 100.42,-48.38 194.33,-48.38 194.33,-48.38 197.54,-48.38 200.75,-51.58 200.75,-54.79 200.75,-54.79 200.75,-61.21 200.75,-61.21 200.75,-64.42 197.54,-67.62 194.33,-67.62"/>
<text text-anchor="start" x="102" y="-55.08" font-family="Helvetica,sans-Serif" font-size="9.00">VideoParserService.ts</text>
</a>
</g>
</g>
<!-- src/application/index.ts&#45;&gt;src/application/services/VideoParserService.ts -->
<g id="edge3" class="edge">
<title>src/application/index.ts&#45;&gt;src/application/services/VideoParserService.ts</title>
<path fill="none" stroke="#000000" stroke-width="2" stroke-opacity="0.200000" d="M71.5,-79.02C76.18,-76.86 81.21,-74.71 86,-73 88.34,-72.17 90.74,-71.37 93.18,-70.59"/>
<polygon fill="#000000" fill-opacity="0.200000" stroke="#000000" stroke-width="2" stroke-opacity="0.200000" points="93.52,-72.68 98.67,-68.95 92.32,-68.66 93.52,-72.68"/>
</g>
<!-- src/infrastructure/database/migrations/index.ts -->
<g id="node5" class="node">
<title>src/infrastructure/database/migrations/index.ts</title>
<g id="a_node5"><a xlink:href="src/infrastructure/database/migrations/index.ts" xlink:title="index.ts">
<path fill="#ddfeff" stroke="black" d="M444.58,-153.62C444.58,-153.62 403.42,-153.62 403.42,-153.62 400.21,-153.62 397,-150.42 397,-147.21 397,-147.21 397,-140.79 397,-140.79 397,-137.58 400.21,-134.38 403.42,-134.38 403.42,-134.38 444.58,-134.38 444.58,-134.38 447.79,-134.38 451,-137.58 451,-140.79 451,-140.79 451,-147.21 451,-147.21 451,-150.42 447.79,-153.62 444.58,-153.62"/>
<text text-anchor="start" x="408.25" y="-141.07" font-family="Helvetica,sans-Serif" font-size="9.00">index.ts</text>
</a>
</g>
</g>
<!-- src/application/services/VideoMetadataService.ts&#45;&gt;src/infrastructure/database/migrations/index.ts -->
<g id="edge4" class="edge">
<title>src/application/services/VideoMetadataService.ts&#45;&gt;src/infrastructure/database/migrations/index.ts</title>
<path fill="none" stroke="#000000" stroke-width="2" stroke-opacity="0.200000" d="M292.94,-83.05C309.33,-91.26 333.2,-103.08 354.25,-113 366.66,-118.85 380.44,-125.11 392.37,-130.46"/>
<polygon fill="#000000" fill-opacity="0.200000" stroke="#000000" stroke-width="2" stroke-opacity="0.200000" points="391.21,-132.24 397.54,-132.77 392.92,-128.4 391.21,-132.24"/>
</g>
<!-- src/infrastructure/repository/MetadataRepository.ts -->
<g id="node6" class="node">
<title>src/infrastructure/repository/MetadataRepository.ts</title>
<g id="a_node6"><a xlink:href="src/infrastructure/repository/MetadataRepository.ts" xlink:title="MetadataRepository.ts">
<path fill="#ddfeff" stroke="black" d="M471.33,-82.62C471.33,-82.62 376.67,-82.62 376.67,-82.62 373.46,-82.62 370.25,-79.42 370.25,-76.21 370.25,-76.21 370.25,-69.79 370.25,-69.79 370.25,-66.58 373.46,-63.38 376.67,-63.38 376.67,-63.38 471.33,-63.38 471.33,-63.38 474.54,-63.38 477.75,-66.58 477.75,-69.79 477.75,-69.79 477.75,-76.21 477.75,-76.21 477.75,-79.42 474.54,-82.62 471.33,-82.62"/>
<text text-anchor="start" x="378.25" y="-70.08" font-family="Helvetica,sans-Serif" font-size="9.00">MetadataRepository.ts</text>
</a>
</g>
</g>
<!-- src/application/services/VideoMetadataService.ts&#45;&gt;src/infrastructure/repository/MetadataRepository.ts -->
<g id="edge5" class="edge">
<title>src/application/services/VideoMetadataService.ts&#45;&gt;src/infrastructure/repository/MetadataRepository.ts</title>
<path fill="none" stroke="#000000" stroke-width="2" stroke-opacity="0.200000" d="M330.56,-73C340.53,-73 350.94,-73 361.02,-73"/>
<polygon fill="#000000" fill-opacity="0.200000" stroke="#000000" stroke-width="2" stroke-opacity="0.200000" points="360.75,-75.1 366.75,-73 360.75,-70.9 360.75,-75.1"/>
</g>
<!-- src/infrastructure/repository/VideoRepository.ts -->
<g id="node7" class="node">
<title>src/infrastructure/repository/VideoRepository.ts</title>
<g id="a_node7"><a xlink:href="src/infrastructure/repository/VideoRepository.ts" xlink:title="VideoRepository.ts">
<path fill="#ddfeff" stroke="black" d="M464.21,-51.62C464.21,-51.62 383.79,-51.62 383.79,-51.62 380.58,-51.62 377.38,-48.42 377.38,-45.21 377.38,-45.21 377.38,-38.79 377.38,-38.79 377.38,-35.58 380.58,-32.38 383.79,-32.38 383.79,-32.38 464.21,-32.38 464.21,-32.38 467.42,-32.38 470.62,-35.58 470.62,-38.79 470.62,-38.79 470.62,-45.21 470.62,-45.21 470.62,-48.42 467.42,-51.62 464.21,-51.62"/>
<text text-anchor="start" x="385.38" y="-39.08" font-family="Helvetica,sans-Serif" font-size="9.00">VideoRepository.ts</text>
</a>
</g>
</g>
<!-- src/application/services/VideoMetadataService.ts&#45;&gt;src/infrastructure/repository/VideoRepository.ts -->
<g id="edge6" class="edge">
<title>src/application/services/VideoMetadataService.ts&#45;&gt;src/infrastructure/repository/VideoRepository.ts</title>
<path fill="none" stroke="#000000" stroke-width="2" stroke-opacity="0.200000" d="M321.7,-62.94C336.57,-59.86 353.03,-56.46 368.27,-53.31"/>
<polygon fill="#000000" fill-opacity="0.200000" stroke="#000000" stroke-width="2" stroke-opacity="0.200000" points="368.68,-55.37 374.13,-52.1 367.83,-51.26 368.68,-55.37"/>
</g>
<!-- src/application/services/VideoParserService.ts&#45;&gt;src/application/services/VideoMetadataService.ts -->
<g id="edge7" class="edge">
<title>src/application/services/VideoParserService.ts&#45;&gt;src/application/services/VideoMetadataService.ts</title>
<path fill="none" stroke="#000000" stroke-width="2" stroke-opacity="0.200000" d="M201.09,-64.45C202.39,-64.61 203.69,-64.77 205,-64.93"/>
<polygon fill="#000000" fill-opacity="0.200000" stroke="#000000" stroke-width="2" stroke-opacity="0.200000" points="204.42,-66.97 210.63,-65.62 204.93,-62.8 204.42,-66.97"/>
</g>
</g>
</svg>
