<?xml version="1.0" encoding="UTF-8" standalone="no"?>
<!DOCTYPE svg PUBLIC "-//W3C//DTD SVG 1.1//EN"
 "http://www.w3.org/Graphics/SVG/1.1/DTD/svg11.dtd">
<!-- Generated by graphviz version 9.0.0 (20230911.1827)
 -->
<!-- Title: dependency&#45;cruiser output Pages: 1 -->
<svg width="826pt" height="308pt"
 viewBox="0.00 0.00 825.75 307.94" xmlns="http://www.w3.org/2000/svg" xmlns:xlink="http://www.w3.org/1999/xlink">
<g id="graph0" class="graph" transform="scale(1 1) rotate(0) translate(4 303.94)">
<title>dependency&#45;cruiser output</title>
<polygon fill="white" stroke="none" points="-4,4 -4,-303.94 821.75,-303.94 821.75,4 -4,4"/>
<g id="clust1" class="cluster">
<title>cluster_src</title>
<path fill="#ffffff" stroke="black" stroke-width="2" d="M20,-8C20,-8 797.75,-8 797.75,-8 803.75,-8 809.75,-14 809.75,-20 809.75,-20 809.75,-276 809.75,-276 809.75,-282 803.75,-288 797.75,-288 797.75,-288 20,-288 20,-288 14,-288 8,-282 8,-276 8,-276 8,-20 8,-20 8,-14 14,-8 20,-8"/>
<text text-anchor="middle" x="408.88" y="-275.45" font-family="Helvetica,sans-Serif" font-weight="bold" font-size="9.00">src</text>
</g>
<g id="clust2" class="cluster">
<title>cluster_src/application</title>
<path fill="#ffffff" stroke="black" stroke-width="2" d="M28,-16C28,-16 473.5,-16 473.5,-16 479.5,-16 485.5,-22 485.5,-28 485.5,-28 485.5,-162 485.5,-162 485.5,-168 479.5,-174 473.5,-174 473.5,-174 28,-174 28,-174 22,-174 16,-168 16,-162 16,-162 16,-28 16,-28 16,-22 22,-16 28,-16"/>
<text text-anchor="middle" x="250.75" y="-161.45" font-family="Helvetica,sans-Serif" font-weight="bold" font-size="9.00">application</text>
</g>
<g id="clust3" class="cluster">
<title>cluster_src/application/services</title>
<path fill="#ffffff" stroke="black" stroke-width="2" d="M98,-30C98,-30 465.5,-30 465.5,-30 471.5,-30 477.5,-36 477.5,-42 477.5,-42 477.5,-135 477.5,-135 477.5,-141 471.5,-147 465.5,-147 465.5,-147 98,-147 98,-147 92,-147 86,-141 86,-135 86,-135 86,-42 86,-42 86,-36 92,-30 98,-30"/>
<text text-anchor="middle" x="281.75" y="-134.45" font-family="Helvetica,sans-Serif" font-weight="bold" font-size="9.00">services</text>
</g>
<g id="clust4" class="cluster">
<title>cluster_src/domain</title>
<path fill="#ffffff" stroke="black" stroke-width="2" d="M505.5,-104C505.5,-104 789.75,-104 789.75,-104 795.75,-104 801.75,-110 801.75,-116 801.75,-116 801.75,-245 801.75,-245 801.75,-251 795.75,-257 789.75,-257 789.75,-257 505.5,-257 505.5,-257 499.5,-257 493.5,-251 493.5,-245 493.5,-245 493.5,-116 493.5,-116 493.5,-110 499.5,-104 505.5,-104"/>
<text text-anchor="middle" x="647.62" y="-244.45" font-family="Helvetica,sans-Serif" font-weight="bold" font-size="9.00">domain</text>
</g>
<g id="clust5" class="cluster">
<title>cluster_src/domain/entities</title>
<path fill="#ffffff" stroke="black" stroke-width="2" d="M713.5,-112C713.5,-112 759.5,-112 759.5,-112 765.5,-112 771.5,-118 771.5,-124 771.5,-124 771.5,-155 771.5,-155 771.5,-161 765.5,-167 759.5,-167 759.5,-167 713.5,-167 713.5,-167 707.5,-167 701.5,-161 701.5,-155 701.5,-155 701.5,-124 701.5,-124 701.5,-118 707.5,-112 713.5,-112"/>
<text text-anchor="middle" x="736.5" y="-154.45" font-family="Helvetica,sans-Serif" font-weight="bold" font-size="9.00">entities</text>
</g>
<g id="clust6" class="cluster">
<title>cluster_src/domain/services</title>
<path fill="#ffffff" stroke="black" stroke-width="2" d="M575.5,-139C575.5,-139 659.25,-139 659.25,-139 665.25,-139 671.25,-145 671.25,-151 671.25,-151 671.25,-182 671.25,-182 671.25,-188 665.25,-194 659.25,-194 659.25,-194 575.5,-194 575.5,-194 569.5,-194 563.5,-188 563.5,-182 563.5,-182 563.5,-151 563.5,-151 563.5,-145 569.5,-139 575.5,-139"/>
<text text-anchor="middle" x="617.38" y="-181.45" font-family="Helvetica,sans-Serif" font-weight="bold" font-size="9.00">services</text>
</g>
<g id="clust7" class="cluster">
<title>cluster_src/domain/valueObjects</title>
<path fill="#ffffff" stroke="black" stroke-width="2" d="M691.25,-175C691.25,-175 781.75,-175 781.75,-175 787.75,-175 793.75,-181 793.75,-187 793.75,-187 793.75,-218 793.75,-218 793.75,-224 787.75,-230 781.75,-230 781.75,-230 691.25,-230 691.25,-230 685.25,-230 679.25,-224 679.25,-218 679.25,-218 679.25,-187 679.25,-187 679.25,-181 685.25,-175 691.25,-175"/>
<text text-anchor="middle" x="736.5" y="-217.45" font-family="Helvetica,sans-Serif" font-weight="bold" font-size="9.00">valueObjects</text>
</g>
<g id="clust8" class="cluster">
<title>cluster_src/infrastructure</title>
<path fill="#ffffff" stroke="black" stroke-width="2" d="M381.38,-182C381.38,-182 432.38,-182 432.38,-182 438.38,-182 444.38,-188 444.38,-194 444.38,-194 444.38,-225 444.38,-225 444.38,-231 438.38,-237 432.38,-237 432.38,-237 381.38,-237 381.38,-237 375.38,-237 369.38,-231 369.38,-225 369.38,-225 369.38,-194 369.38,-194 369.38,-188 375.38,-182 381.38,-182"/>
<text text-anchor="middle" x="406.88" y="-224.45" font-family="Helvetica,sans-Serif" font-weight="bold" font-size="9.00">infrastructure</text>
</g>
<!-- src/application/index.ts -->
<g id="node1" class="node">
<title>src/application/index.ts</title>
<g id="a_node1"><a xlink:href="src/application/index.ts" xlink:title="index.ts">
<path fill="#ddfeff" stroke="black" d="M71.58,-72.62C71.58,-72.62 30.42,-72.62 30.42,-72.62 27.21,-72.62 24,-69.42 24,-66.21 24,-66.21 24,-59.79 24,-59.79 24,-56.58 27.21,-53.38 30.42,-53.38 30.42,-53.38 71.58,-53.38 71.58,-53.38 74.79,-53.38 78,-56.58 78,-59.79 78,-59.79 78,-66.21 78,-66.21 78,-69.42 74.79,-72.62 71.58,-72.62"/>
<text text-anchor="start" x="35.25" y="-60.08" font-family="Helvetica,sans-Serif" font-size="9.00">index.ts</text>
</a>
</g>
</g>
<!-- src/application/services/FiltersService.ts -->
<g id="node2" class="node">
<title>src/application/services/FiltersService.ts</title>
<g id="a_node2"><a xlink:href="src/application/services/FiltersService.ts" xlink:title="FiltersService.ts">
<path fill="#ddfeff" stroke="black" d="M181.58,-119.62C181.58,-119.62 113.17,-119.62 113.17,-119.62 109.96,-119.62 106.75,-116.42 106.75,-113.21 106.75,-113.21 106.75,-106.79 106.75,-106.79 106.75,-103.58 109.96,-100.38 113.17,-100.38 113.17,-100.38 181.58,-100.38 181.58,-100.38 184.79,-100.38 188,-103.58 188,-106.79 188,-106.79 188,-113.21 188,-113.21 188,-116.42 184.79,-119.62 181.58,-119.62"/>
<text text-anchor="start" x="114.75" y="-107.08" font-family="Helvetica,sans-Serif" font-size="9.00">FiltersService.ts</text>
</a>
</g>
</g>
<!-- src/application/index.ts&#45;&gt;src/application/services/FiltersService.ts -->
<g id="edge1" class="edge">
<title>src/application/index.ts&#45;&gt;src/application/services/FiltersService.ts</title>
<path fill="none" stroke="#000000" stroke-width="2" stroke-opacity="0.200000" d="M60.21,-73.11C66.54,-80.25 75.89,-89.49 86,-95 89.72,-97.03 93.71,-98.78 97.81,-100.31"/>
<polygon fill="#000000" fill-opacity="0.200000" stroke="#000000" stroke-width="2" stroke-opacity="0.200000" points="97.08,-102.28 103.44,-102.17 98.4,-98.29 97.08,-102.28"/>
</g>
<!-- src/application/services/Hotkeys.ts -->
<g id="node3" class="node">
<title>src/application/services/Hotkeys.ts</title>
<g id="a_node3"><a xlink:href="src/application/services/Hotkeys.ts" xlink:title="Hotkeys.ts">
<path fill="#ddfeff" stroke="black" d="M170.33,-57.62C170.33,-57.62 124.42,-57.62 124.42,-57.62 121.21,-57.62 118,-54.42 118,-51.21 118,-51.21 118,-44.79 118,-44.79 118,-41.58 121.21,-38.38 124.42,-38.38 124.42,-38.38 170.33,-38.38 170.33,-38.38 173.54,-38.38 176.75,-41.58 176.75,-44.79 176.75,-44.79 176.75,-51.21 176.75,-51.21 176.75,-54.42 173.54,-57.62 170.33,-57.62"/>
<text text-anchor="start" x="126" y="-45.08" font-family="Helvetica,sans-Serif" font-size="9.00">Hotkeys.ts</text>
</a>
</g>
</g>
<!-- src/application/index.ts&#45;&gt;src/application/services/Hotkeys.ts -->
<g id="edge2" class="edge">
<title>src/application/index.ts&#45;&gt;src/application/services/Hotkeys.ts</title>
<path fill="none" stroke="#000000" stroke-width="2" stroke-opacity="0.200000" d="M78.29,-58.82C90.51,-56.88 105.07,-54.57 117.58,-52.58"/>
<polygon fill="#000000" fill-opacity="0.200000" stroke="#000000" stroke-width="2" stroke-opacity="0.200000" points="120.39,-51.18 124.29,-59.28 116.19,-55.38 120.39,-51.18"/>
</g>
<!-- src/application/services/VideoMetadataService.ts -->
<g id="node4" class="node">
<title>src/application/services/VideoMetadataService.ts</title>
<g id="a_node4"><a xlink:href="src/application/services/VideoMetadataService.ts" xlink:title="VideoMetadataService.ts">
<path fill="#ddfeff" stroke="black" d="M323.83,-119.62C323.83,-119.62 220.17,-119.62 220.17,-119.62 216.96,-119.62 213.75,-116.42 213.75,-113.21 213.75,-113.21 213.75,-106.79 213.75,-106.79 213.75,-103.58 216.96,-100.38 220.17,-100.38 220.17,-100.38 323.83,-100.38 323.83,-100.38 327.04,-100.38 330.25,-103.58 330.25,-106.79 330.25,-106.79 330.25,-113.21 330.25,-113.21 330.25,-116.42 327.04,-119.62 323.83,-119.62"/>
<text text-anchor="start" x="221.75" y="-107.08" font-family="Helvetica,sans-Serif" font-size="9.00">VideoMetadataService.ts</text>
</a>
</g>
</g>
<!-- src/application/index.ts&#45;&gt;src/application/services/VideoMetadataService.ts -->
<g id="edge3" class="edge">
<title>src/application/index.ts&#45;&gt;src/application/services/VideoMetadataService.ts</title>
<path fill="none" stroke="#000000" stroke-width="2" stroke-opacity="0.200000" d="M59.41,-53.08C65.6,-45.7 75.13,-36.21 86,-32 133.56,-13.57 154.16,-11.26 200.75,-32 228.31,-44.27 249.59,-73.27 261.2,-92.25"/>
<polygon fill="#000000" fill-opacity="0.200000" stroke="#000000" stroke-width="2" stroke-opacity="0.200000" points="259.33,-93.21 264.18,-97.32 262.95,-91.08 259.33,-93.21"/>
</g>
<!-- src/application/services/VideoParserService.ts -->
<g id="node5" class="node">
<title>src/application/services/VideoParserService.ts</title>
<g id="a_node5"><a xlink:href="src/application/services/VideoParserService.ts" xlink:title="VideoParserService.ts">
<path fill="#ddfeff" stroke="black" d="M194.33,-88.62C194.33,-88.62 100.42,-88.62 100.42,-88.62 97.21,-88.62 94,-85.42 94,-82.21 94,-82.21 94,-75.79 94,-75.79 94,-72.58 97.21,-69.38 100.42,-69.38 100.42,-69.38 194.33,-69.38 194.33,-69.38 197.54,-69.38 200.75,-72.58 200.75,-75.79 200.75,-75.79 200.75,-82.21 200.75,-82.21 200.75,-85.42 197.54,-88.62 194.33,-88.62"/>
<text text-anchor="start" x="102" y="-76.08" font-family="Helvetica,sans-Serif" font-size="9.00">VideoParserService.ts</text>
</a>
</g>
</g>
<!-- src/application/index.ts&#45;&gt;src/application/services/VideoParserService.ts -->
<g id="edge4" class="edge">
<title>src/application/index.ts&#45;&gt;src/application/services/VideoParserService.ts</title>
<path fill="none" stroke="#000000" stroke-width="2" stroke-opacity="0.200000" d="M78.29,-67.46C83.09,-68.27 88.25,-69.15 93.51,-70.04"/>
<polygon fill="#000000" fill-opacity="0.200000" stroke="#000000" stroke-width="2" stroke-opacity="0.200000" points="96.31,-68.64 100.21,-76.74 92.11,-72.84 96.31,-68.64"/>
</g>
<!-- src/domain/index.ts -->
<g id="node6" class="node">
<title>src/domain/index.ts</title>
<g id="a_node6"><a xlink:href="src/domain/index.ts" xlink:title="index.ts">
<path fill="#ddfeff" stroke="black" d="M549.08,-152.62C549.08,-152.62 507.92,-152.62 507.92,-152.62 504.71,-152.62 501.5,-149.42 501.5,-146.21 501.5,-146.21 501.5,-139.79 501.5,-139.79 501.5,-136.58 504.71,-133.38 507.92,-133.38 507.92,-133.38 549.08,-133.38 549.08,-133.38 552.29,-133.38 555.5,-136.58 555.5,-139.79 555.5,-139.79 555.5,-146.21 555.5,-146.21 555.5,-149.42 552.29,-152.62 549.08,-152.62"/>
<text text-anchor="start" x="512.75" y="-140.07" font-family="Helvetica,sans-Serif" font-size="9.00">index.ts</text>
</a>
</g>
</g>
<!-- src/application/services/FiltersService.ts&#45;&gt;src/domain/index.ts -->
<g id="edge5" class="edge">
<title>src/application/services/FiltersService.ts&#45;&gt;src/domain/index.ts</title>
<path fill="none" stroke="#000000" stroke-opacity="0.200000" d="M149.44,-119.76C152.94,-146.34 166.68,-220.03 213.75,-250 315.63,-314.87 385.71,-318.03 485.5,-250 515.26,-229.71 523.93,-184.85 526.46,-160.15"/>
<polygon fill="none" stroke="#000000" stroke-opacity="0.200000" points="528.53,-160.56 526.95,-154.4 524.35,-160.2 528.53,-160.56"/>
</g>
<!-- src/application/services/VideoMetadataService.ts&#45;&gt;src/domain/index.ts -->
<g id="edge7" class="edge">
<title>src/application/services/VideoMetadataService.ts&#45;&gt;src/domain/index.ts</title>
<path fill="none" stroke="#000000" stroke-opacity="0.200000" d="M312.94,-120.06C322.8,-122.27 333.37,-124.43 343.25,-126 395.59,-134.34 457,-138.99 494.05,-141.24"/>
<polygon fill="none" stroke="#000000" stroke-opacity="0.200000" points="493.5,-143.31 499.61,-141.57 493.75,-139.12 493.5,-143.31"/>
</g>
<!-- src/application/services/VideoStorageDtoMapper.ts -->
<g id="node7" class="node">
<title>src/application/services/VideoStorageDtoMapper.ts</title>
<g id="a_node7"><a xlink:href="src/application/services/VideoStorageDtoMapper.ts" xlink:title="VideoStorageDtoMapper.ts">
<path fill="#ddfeff" stroke="black" d="M463.08,-119.62C463.08,-119.62 349.67,-119.62 349.67,-119.62 346.46,-119.62 343.25,-116.42 343.25,-113.21 343.25,-113.21 343.25,-106.79 343.25,-106.79 343.25,-103.58 346.46,-100.38 349.67,-100.38 349.67,-100.38 463.08,-100.38 463.08,-100.38 466.29,-100.38 469.5,-103.58 469.5,-106.79 469.5,-106.79 469.5,-113.21 469.5,-113.21 469.5,-116.42 466.29,-119.62 463.08,-119.62"/>
<text text-anchor="start" x="351.25" y="-107.08" font-family="Helvetica,sans-Serif" font-size="9.00">VideoStorageDtoMapper.ts</text>
</a>
</g>
</g>
<!-- src/application/services/VideoMetadataService.ts&#45;&gt;src/application/services/VideoStorageDtoMapper.ts -->
<g id="edge6" class="edge">
<title>src/application/services/VideoMetadataService.ts&#45;&gt;src/application/services/VideoStorageDtoMapper.ts</title>
<path fill="none" stroke="#000000" stroke-width="2" stroke-opacity="0.200000" d="M330.68,-110C331.81,-110 332.95,-110 334.09,-110"/>
<polygon fill="#000000" fill-opacity="0.200000" stroke="#000000" stroke-width="2" stroke-opacity="0.200000" points="333.84,-112.1 339.84,-110 333.84,-107.9 333.84,-112.1"/>
</g>
<!-- src/infrastructure/index.ts -->
<g id="node8" class="node">
<title>src/infrastructure/index.ts</title>
<g id="a_node8"><a xlink:href="src/infrastructure/index.ts" xlink:title="index.ts">
<path fill="#ddfeff" stroke="black" d="M426.96,-209.62C426.96,-209.62 385.79,-209.62 385.79,-209.62 382.58,-209.62 379.38,-206.42 379.38,-203.21 379.38,-203.21 379.38,-196.79 379.38,-196.79 379.38,-193.58 382.58,-190.38 385.79,-190.38 385.79,-190.38 426.96,-190.38 426.96,-190.38 430.17,-190.38 433.38,-193.58 433.38,-196.79 433.38,-196.79 433.38,-203.21 433.38,-203.21 433.38,-206.42 430.17,-209.62 426.96,-209.62"/>
<text text-anchor="start" x="390.62" y="-197.07" font-family="Helvetica,sans-Serif" font-size="9.00">index.ts</text>
</a>
</g>
</g>
<!-- src/application/services/VideoMetadataService.ts&#45;&gt;src/infrastructure/index.ts -->
<g id="edge8" class="edge">
<title>src/application/services/VideoMetadataService.ts&#45;&gt;src/infrastructure/index.ts</title>
<path fill="none" stroke="#000000" stroke-width="2" stroke-opacity="0.200000" d="M287.67,-119.98C310.93,-135.79 356.4,-166.7 383.51,-185.13"/>
<polygon fill="#000000" fill-opacity="0.200000" stroke="#000000" stroke-width="2" stroke-opacity="0.200000" points="381.99,-186.64 388.13,-188.28 384.35,-183.17 381.99,-186.64"/>
</g>
<!-- src/application/services/VideoParserService.ts&#45;&gt;src/application/services/VideoMetadataService.ts -->
<g id="edge9" class="edge">
<title>src/application/services/VideoParserService.ts&#45;&gt;src/application/services/VideoMetadataService.ts</title>
<path fill="none" stroke="#000000" stroke-width="2" stroke-opacity="0.200000" d="M188.19,-89.06C199.11,-91.83 211.08,-94.85 222.43,-97.72"/>
<polygon fill="#000000" fill-opacity="0.200000" stroke="#000000" stroke-width="2" stroke-opacity="0.200000" points="221.7,-99.7 228.03,-99.14 222.73,-95.63 221.7,-99.7"/>
</g>
<!-- src/application/services/VideoParserService.ts&#45;&gt;src/domain/index.ts -->
<g id="edge10" class="edge">
<title>src/application/services/VideoParserService.ts&#45;&gt;src/domain/index.ts</title>
<path fill="none" stroke="#000000" stroke-width="2" stroke-opacity="0.200000" d="M193.83,-89C196.3,-90.45 198.64,-92.1 200.75,-94 212.17,-104.26 204.86,-113.48 213.75,-126 258.14,-188.52 271.51,-212.92 343.25,-240 372.82,-251.16 459.08,-257.35 485.5,-240 511.94,-222.64 521.82,-184.68 525.45,-161.73"/>
<polygon fill="#000000" fill-opacity="0.200000" stroke="#000000" stroke-width="2" stroke-opacity="0.200000" points="527.51,-162.15 526.24,-155.92 523.35,-161.58 527.51,-162.15"/>
</g>
<!-- src/domain/entities/Video.ts -->
<g id="node9" class="node">
<title>src/domain/entities/Video.ts</title>
<g id="a_node9"><a xlink:href="src/domain/entities/Video.ts" xlink:title="Video.ts">
<path fill="#ddfeff" stroke="black" d="M757.08,-139.62C757.08,-139.62 715.92,-139.62 715.92,-139.62 712.71,-139.62 709.5,-136.42 709.5,-133.21 709.5,-133.21 709.5,-126.79 709.5,-126.79 709.5,-123.58 712.71,-120.38 715.92,-120.38 715.92,-120.38 757.08,-120.38 757.08,-120.38 760.29,-120.38 763.5,-123.58 763.5,-126.79 763.5,-126.79 763.5,-133.21 763.5,-133.21 763.5,-136.42 760.29,-139.62 757.08,-139.62"/>
<text text-anchor="start" x="720" y="-127.08" font-family="Helvetica,sans-Serif" font-size="9.00">Video.ts</text>
</a>
</g>
</g>
<!-- src/domain/index.ts&#45;&gt;src/domain/entities/Video.ts -->
<g id="edge12" class="edge">
<title>src/domain/index.ts&#45;&gt;src/domain/entities/Video.ts</title>
<path fill="none" stroke="#000000" stroke-opacity="0.200000" d="M555.79,-137.13C558.38,-136.69 560.99,-136.3 563.5,-136 611.42,-130.27 667.34,-129.38 702.09,-129.51"/>
<polygon fill="none" stroke="#000000" stroke-opacity="0.200000" points="701.64,-131.61 707.66,-129.54 701.67,-127.41 701.64,-131.61"/>
</g>
<!-- src/domain/services/FileVideoParser.ts -->
<g id="node10" class="node">
<title>src/domain/services/FileVideoParser.ts</title>
<g id="a_node10"><a xlink:href="src/domain/services/FileVideoParser.ts" xlink:title="FileVideoParser.ts">
<path fill="#ddfeff" stroke="black" d="M656.83,-166.62C656.83,-166.62 577.92,-166.62 577.92,-166.62 574.71,-166.62 571.5,-163.42 571.5,-160.21 571.5,-160.21 571.5,-153.79 571.5,-153.79 571.5,-150.58 574.71,-147.38 577.92,-147.38 577.92,-147.38 656.83,-147.38 656.83,-147.38 660.04,-147.38 663.25,-150.58 663.25,-153.79 663.25,-153.79 663.25,-160.21 663.25,-160.21 663.25,-163.42 660.04,-166.62 656.83,-166.62"/>
<text text-anchor="start" x="579.5" y="-154.07" font-family="Helvetica,sans-Serif" font-size="9.00">FileVideoParser.ts</text>
</a>
</g>
</g>
<!-- src/domain/index.ts&#45;&gt;src/domain/services/FileVideoParser.ts -->
<g id="edge13" class="edge">
<title>src/domain/index.ts&#45;&gt;src/domain/services/FileVideoParser.ts</title>
<path fill="none" stroke="#000000" stroke-width="2" stroke-opacity="0.200000" d="M555.57,-147.2C557.71,-147.55 559.92,-147.9 562.17,-148.26"/>
<polygon fill="#000000" fill-opacity="0.200000" stroke="#000000" stroke-width="2" stroke-opacity="0.200000" points="561.76,-150.33 568.01,-149.21 562.43,-146.18 561.76,-150.33"/>
</g>
<!-- src/application/services/VideoStorageDtoMapper.ts&#45;&gt;src/domain/index.ts -->
<g id="edge11" class="edge">
<title>src/application/services/VideoStorageDtoMapper.ts&#45;&gt;src/domain/index.ts</title>
<path fill="none" stroke="#000000" stroke-opacity="0.200000" d="M444.07,-120.08C460.1,-124.49 478.77,-129.61 494.38,-133.9"/>
<polygon fill="none" stroke="#000000" stroke-opacity="0.200000" points="493.51,-135.84 499.85,-135.41 494.63,-131.79 493.51,-135.84"/>
</g>
<!-- src/domain/services/FileVideoParser.ts&#45;&gt;src/domain/entities/Video.ts -->
<g id="edge14" class="edge">
<title>src/domain/services/FileVideoParser.ts&#45;&gt;src/domain/entities/Video.ts</title>
<path fill="none" stroke="#000000" stroke-opacity="0.200000" d="M661.99,-146.95C675.25,-143.89 689.62,-140.58 702.1,-137.7"/>
<polygon fill="none" stroke="#000000" stroke-opacity="0.200000" points="702.36,-139.8 707.73,-136.4 701.41,-135.7 702.36,-139.8"/>
</g>
<!-- src/domain/valueObjects/ParsedVideoData.ts -->
<g id="node11" class="node">
<title>src/domain/valueObjects/ParsedVideoData.ts</title>
<g id="a_node11"><a xlink:href="src/domain/valueObjects/ParsedVideoData.ts" xlink:title="ParsedVideoData.ts">
<path fill="#ddfeff" stroke="black" d="M779.33,-202.62C779.33,-202.62 693.67,-202.62 693.67,-202.62 690.46,-202.62 687.25,-199.42 687.25,-196.21 687.25,-196.21 687.25,-189.79 687.25,-189.79 687.25,-186.58 690.46,-183.38 693.67,-183.38 693.67,-183.38 779.33,-183.38 779.33,-183.38 782.54,-183.38 785.75,-186.58 785.75,-189.79 785.75,-189.79 785.75,-196.21 785.75,-196.21 785.75,-199.42 782.54,-202.62 779.33,-202.62"/>
<text text-anchor="start" x="695.25" y="-190.07" font-family="Helvetica,sans-Serif" font-size="9.00">ParsedVideoData.ts</text>
</a>
</g>
</g>
<!-- src/domain/services/FileVideoParser.ts&#45;&gt;src/domain/valueObjects/ParsedVideoData.ts -->
<g id="edge15" class="edge">
<title>src/domain/services/FileVideoParser.ts&#45;&gt;src/domain/valueObjects/ParsedVideoData.ts</title>
<path fill="none" stroke="#000000" stroke-width="2" stroke-opacity="0.200000" d="M651.31,-167.12C664.65,-171.22 680.19,-176 694.27,-180.33"/>
<polygon fill="#000000" fill-opacity="0.200000" stroke="#000000" stroke-width="2" stroke-opacity="0.200000" points="693.56,-182.31 699.92,-182.06 694.8,-178.29 693.56,-182.31"/>
</g>
</g>
</svg>
