<?xml version="1.0" encoding="UTF-8" standalone="no"?>
<!DOCTYPE svg PUBLIC "-//W3C//DTD SVG 1.1//EN"
 "http://www.w3.org/Graphics/SVG/1.1/DTD/svg11.dtd">
<!-- Generated by graphviz version 9.0.0 (20230911.1827)
 -->
<!-- Title: dependency&#45;cruiser output Pages: 1 -->
<svg width="820pt" height="436pt"
 viewBox="0.00 0.00 820.00 436.00" xmlns="http://www.w3.org/2000/svg" xmlns:xlink="http://www.w3.org/1999/xlink">
<g id="graph0" class="graph" transform="scale(1 1) rotate(0) translate(4 432)">
<title>dependency&#45;cruiser output</title>
<polygon fill="white" stroke="none" points="-4,4 -4,-432 816,-432 816,4 -4,4"/>
<g id="clust1" class="cluster">
<title>cluster_src</title>
<path fill="#ffffff" stroke="black" stroke-width="2" d="M20,-8C20,-8 792,-8 792,-8 798,-8 804,-14 804,-20 804,-20 804,-408 804,-408 804,-414 798,-420 792,-420 792,-420 20,-420 20,-420 14,-420 8,-414 8,-408 8,-408 8,-20 8,-20 8,-14 14,-8 20,-8"/>
<text text-anchor="middle" x="406" y="-407.45" font-family="Helvetica,sans-Serif" font-weight="bold" font-size="9.00">src</text>
</g>
<g id="clust2" class="cluster">
<title>cluster_src/components</title>
<path fill="#ffffff" stroke="black" stroke-width="2" d="M28,-212C28,-212 128.5,-212 128.5,-212 134.5,-212 140.5,-218 140.5,-224 140.5,-224 140.5,-349 140.5,-349 140.5,-355 134.5,-361 128.5,-361 128.5,-361 28,-361 28,-361 22,-361 16,-355 16,-349 16,-349 16,-224 16,-224 16,-218 22,-212 28,-212"/>
<text text-anchor="middle" x="78.25" y="-348.45" font-family="Helvetica,sans-Serif" font-weight="bold" font-size="9.00">components</text>
</g>
<g id="clust3" class="cluster">
<title>cluster_src/components/FolderSelector</title>
<path fill="#ffffff" stroke="black" stroke-width="2" d="M36,-248C36,-248 120.5,-248 120.5,-248 126.5,-248 132.5,-254 132.5,-260 132.5,-260 132.5,-322 132.5,-322 132.5,-328 126.5,-334 120.5,-334 120.5,-334 36,-334 36,-334 30,-334 24,-328 24,-322 24,-322 24,-260 24,-260 24,-254 30,-248 36,-248"/>
<text text-anchor="middle" x="78.25" y="-321.45" font-family="Helvetica,sans-Serif" font-weight="bold" font-size="9.00">FolderSelector</text>
</g>
<g id="clust4" class="cluster">
<title>cluster_src/services</title>
<path fill="#ffffff" stroke="black" stroke-width="2" d="M167.75,-44C167.75,-44 784,-44 784,-44 790,-44 796,-50 796,-56 796,-56 796,-318 796,-318 796,-324 790,-330 784,-330 784,-330 167.75,-330 167.75,-330 161.75,-330 155.75,-324 155.75,-318 155.75,-318 155.75,-56 155.75,-56 155.75,-50 161.75,-44 167.75,-44"/>
<text text-anchor="middle" x="475.88" y="-317.45" font-family="Helvetica,sans-Serif" font-weight="bold" font-size="9.00">services</text>
</g>
<g id="clust6" class="cluster">
<title>cluster_src/services/StorageController</title>
<path fill="#ffffff" stroke="black" stroke-width="2" d="M273,-52C273,-52 776,-52 776,-52 782,-52 788,-58 788,-64 788,-64 788,-228 788,-228 788,-234 782,-240 776,-240 776,-240 273,-240 273,-240 267,-240 261,-234 261,-228 261,-228 261,-64 261,-64 261,-58 267,-52 273,-52"/>
<text text-anchor="middle" x="524.5" y="-227.45" font-family="Helvetica,sans-Serif" font-weight="bold" font-size="9.00">StorageController</text>
</g>
<g id="clust7" class="cluster">
<title>cluster_src/services/StorageController/migrations</title>
<path fill="#ffffff" stroke="black" stroke-width="2" d="M483,-60C483,-60 768,-60 768,-60 774,-60 780,-66 780,-72 780,-72 780,-201 780,-201 780,-207 774,-213 768,-213 768,-213 483,-213 483,-213 477,-213 471,-207 471,-201 471,-201 471,-72 471,-72 471,-66 477,-60 483,-60"/>
<text text-anchor="middle" x="625.5" y="-200.45" font-family="Helvetica,sans-Serif" font-weight="bold" font-size="9.00">migrations</text>
</g>
<g id="clust8" class="cluster">
<title>cluster_src/services/StorageController/migrations/utils</title>
<path fill="#ffffff" stroke="black" stroke-width="2" d="M714,-99C714,-99 760,-99 760,-99 766,-99 772,-105 772,-111 772,-111 772,-142 772,-142 772,-148 766,-154 760,-154 760,-154 714,-154 714,-154 708,-154 702,-148 702,-142 702,-142 702,-111 702,-111 702,-105 708,-99 714,-99"/>
<text text-anchor="middle" x="737" y="-141.45" font-family="Helvetica,sans-Serif" font-weight="bold" font-size="9.00">utils</text>
</g>
<g id="clust9" class="cluster">
<title>cluster_src/services/StorageController/migrations/v1</title>
<path fill="#ffffff" stroke="black" stroke-width="2" d="M636,-68C636,-68 682,-68 682,-68 688,-68 694,-74 694,-80 694,-80 694,-111 694,-111 694,-117 688,-123 682,-123 682,-123 636,-123 636,-123 630,-123 624,-117 624,-111 624,-111 624,-80 624,-80 624,-74 630,-68 636,-68"/>
<text text-anchor="middle" x="659" y="-110.45" font-family="Helvetica,sans-Serif" font-weight="bold" font-size="9.00">v1</text>
</g>
<g id="clust10" class="cluster">
<title>cluster_src/services/StorageController/migrations/v2</title>
<path fill="#ffffff" stroke="black" stroke-width="2" d="M636,-131C636,-131 682,-131 682,-131 688,-131 694,-137 694,-143 694,-143 694,-174 694,-174 694,-180 688,-186 682,-186 682,-186 636,-186 636,-186 630,-186 624,-180 624,-174 624,-174 624,-143 624,-143 624,-137 630,-131 636,-131"/>
<text text-anchor="middle" x="659" y="-173.45" font-family="Helvetica,sans-Serif" font-weight="bold" font-size="9.00">v2</text>
</g>
<g id="clust11" class="cluster">
<title>cluster_src/services/VideoParsers</title>
<path fill="#ffffff" stroke="black" stroke-width="2" d="M175.75,-248C175.75,-248 225.75,-248 225.75,-248 231.75,-248 237.75,-254 237.75,-260 237.75,-260 237.75,-291 237.75,-291 237.75,-297 231.75,-303 225.75,-303 225.75,-303 175.75,-303 175.75,-303 169.75,-303 163.75,-297 163.75,-291 163.75,-291 163.75,-260 163.75,-260 163.75,-254 169.75,-248 175.75,-248"/>
<text text-anchor="middle" x="200.75" y="-290.45" font-family="Helvetica,sans-Serif" font-weight="bold" font-size="9.00">VideoParsers</text>
</g>
<g id="clust5" class="cluster">
<title>cluster_src/services/Filters</title>
<path fill="#ffffff" stroke="black" stroke-width="2" d="M273,-248C273,-248 422.5,-248 422.5,-248 428.5,-248 434.5,-254 434.5,-260 434.5,-260 434.5,-291 434.5,-291 434.5,-297 428.5,-303 422.5,-303 422.5,-303 273,-303 273,-303 267,-303 261,-297 261,-291 261,-291 261,-260 261,-260 261,-254 267,-248 273,-248"/>
<text text-anchor="middle" x="347.75" y="-290.45" font-family="Helvetica,sans-Serif" font-weight="bold" font-size="9.00">Filters</text>
</g>
<g id="clust12" class="cluster">
<title>cluster_src/stores</title>
<path fill="#ffffff" stroke="black" stroke-width="2" d="M167.5,-338C167.5,-338 234,-338 234,-338 240,-338 246,-344 246,-350 246,-350 246,-381 246,-381 246,-387 240,-393 234,-393 234,-393 167.5,-393 167.5,-393 161.5,-393 155.5,-387 155.5,-381 155.5,-381 155.5,-350 155.5,-350 155.5,-344 161.5,-338 167.5,-338"/>
<text text-anchor="middle" x="200.75" y="-380.45" font-family="Helvetica,sans-Serif" font-weight="bold" font-size="9.00">stores</text>
</g>
<!-- src/App.vue -->
<g id="node1" class="node">
<title>src/App.vue</title>
<g id="a_node1"><a xlink:href="src/App.vue" xlink:title="App.vue">
<path fill="#41f083" stroke="black" d="M221.33,-35.62C221.33,-35.62 180.17,-35.62 180.17,-35.62 176.96,-35.62 173.75,-32.42 173.75,-29.21 173.75,-29.21 173.75,-22.79 173.75,-22.79 173.75,-19.58 176.96,-16.38 180.17,-16.38 180.17,-16.38 221.33,-16.38 221.33,-16.38 224.54,-16.38 227.75,-19.58 227.75,-22.79 227.75,-22.79 227.75,-29.21 227.75,-29.21 227.75,-32.42 224.54,-35.62 221.33,-35.62"/>
<text text-anchor="start" x="184.62" y="-23.07" font-family="Helvetica,sans-Serif" font-size="9.00">App.vue</text>
</a>
</g>
</g>
<!-- src/services/StorageController/index.ts -->
<g id="node2" class="node">
<title>src/services/StorageController/index.ts</title>
<g id="a_node2"><a xlink:href="src/services/StorageController/index.ts" xlink:title="index.ts">
<path fill="#ddfeff" stroke="black" d="M316.58,-202.62C316.58,-202.62 275.42,-202.62 275.42,-202.62 272.21,-202.62 269,-199.42 269,-196.21 269,-196.21 269,-189.79 269,-189.79 269,-186.58 272.21,-183.38 275.42,-183.38 275.42,-183.38 316.58,-183.38 316.58,-183.38 319.79,-183.38 323,-186.58 323,-189.79 323,-189.79 323,-196.21 323,-196.21 323,-199.42 319.79,-202.62 316.58,-202.62"/>
<text text-anchor="start" x="280.25" y="-190.07" font-family="Helvetica,sans-Serif" font-size="9.00">index.ts</text>
</a>
</g>
</g>
<!-- src/App.vue&#45;&gt;src/services/StorageController/index.ts -->
<g id="edge1" class="edge">
<title>src/App.vue&#45;&gt;src/services/StorageController/index.ts</title>
<path fill="none" stroke="#000000" stroke-width="2" stroke-opacity="0.200000" d="M227.9,-30.48C234.5,-32.71 241.1,-36.03 246,-41 282.5,-78.05 291.82,-142.42 294.19,-174.18"/>
<polygon fill="#000000" fill-opacity="0.200000" stroke="#000000" stroke-width="2" stroke-opacity="0.200000" points="292.08,-174.04 294.54,-179.9 296.27,-173.78 292.08,-174.04"/>
</g>
<!-- src/services/StorageController/VideoMetadataController.ts -->
<g id="node11" class="node">
<title>src/services/StorageController/VideoMetadataController.ts</title>
<g id="a_node11"><a xlink:href="src/services/StorageController/VideoMetadataController.ts" xlink:title="VideoMetadataController.ts">
<path fill="#ddfeff" stroke="black" d="M456.58,-192.62C456.58,-192.62 342.42,-192.62 342.42,-192.62 339.21,-192.62 336,-189.42 336,-186.21 336,-186.21 336,-179.79 336,-179.79 336,-176.58 339.21,-173.38 342.42,-173.38 342.42,-173.38 456.58,-173.38 456.58,-173.38 459.79,-173.38 463,-176.58 463,-179.79 463,-179.79 463,-186.21 463,-186.21 463,-189.42 459.79,-192.62 456.58,-192.62"/>
<text text-anchor="start" x="344" y="-180.07" font-family="Helvetica,sans-Serif" font-size="9.00">VideoMetadataController.ts</text>
</a>
</g>
</g>
<!-- src/services/StorageController/index.ts&#45;&gt;src/services/StorageController/VideoMetadataController.ts -->
<g id="edge7" class="edge">
<title>src/services/StorageController/index.ts&#45;&gt;src/services/StorageController/VideoMetadataController.ts</title>
<path fill="none" stroke="#000000" stroke-width="2" stroke-opacity="0.200000" d="M323.4,-190.4C324.49,-190.29 325.6,-190.18 326.73,-190.07"/>
<polygon fill="#000000" fill-opacity="0.200000" stroke="#000000" stroke-width="2" stroke-opacity="0.200000" points="326.87,-192.17 332.64,-189.49 326.46,-187.99 326.87,-192.17"/>
</g>
<!-- src/components/FolderSelector/FileVideoParser.ts -->
<g id="node3" class="node">
<title>src/components/FolderSelector/FileVideoParser.ts</title>
<g id="a_node3"><a xlink:href="src/components/FolderSelector/FileVideoParser.ts" xlink:title="FileVideoParser.ts">
<path fill="#ddfeff" stroke="black" d="M117.71,-275.62C117.71,-275.62 38.79,-275.62 38.79,-275.62 35.58,-275.62 32.38,-272.42 32.38,-269.21 32.38,-269.21 32.38,-262.79 32.38,-262.79 32.38,-259.58 35.58,-256.38 38.79,-256.38 38.79,-256.38 117.71,-256.38 117.71,-256.38 120.92,-256.38 124.12,-259.58 124.12,-262.79 124.12,-262.79 124.12,-269.21 124.12,-269.21 124.12,-272.42 120.92,-275.62 117.71,-275.62"/>
<text text-anchor="start" x="40.38" y="-263.07" font-family="Helvetica,sans-Serif" font-size="9.00">FileVideoParser.ts</text>
</a>
</g>
</g>
<!-- src/components/FolderSelector/FolderSelector.vue -->
<g id="node4" class="node">
<title>src/components/FolderSelector/FolderSelector.vue</title>
<g id="a_node4"><a xlink:href="src/components/FolderSelector/FolderSelector.vue" xlink:title="FolderSelector.vue">
<path fill="#41f083" stroke="black" d="M118.08,-306.62C118.08,-306.62 38.42,-306.62 38.42,-306.62 35.21,-306.62 32,-303.42 32,-300.21 32,-300.21 32,-293.79 32,-293.79 32,-290.58 35.21,-287.38 38.42,-287.38 38.42,-287.38 118.08,-287.38 118.08,-287.38 121.29,-287.38 124.5,-290.58 124.5,-293.79 124.5,-293.79 124.5,-300.21 124.5,-300.21 124.5,-303.42 121.29,-306.62 118.08,-306.62"/>
<text text-anchor="start" x="40" y="-294.07" font-family="Helvetica,sans-Serif" font-size="9.00">FolderSelector.vue</text>
</a>
</g>
</g>
<!-- src/services/VideoParsers/index.ts -->
<g id="node5" class="node">
<title>src/services/VideoParsers/index.ts</title>
<g id="a_node5"><a xlink:href="src/services/VideoParsers/index.ts" xlink:title="index.ts">
<path fill="#ddfeff" stroke="black" d="M221.33,-275.62C221.33,-275.62 180.17,-275.62 180.17,-275.62 176.96,-275.62 173.75,-272.42 173.75,-269.21 173.75,-269.21 173.75,-262.79 173.75,-262.79 173.75,-259.58 176.96,-256.38 180.17,-256.38 180.17,-256.38 221.33,-256.38 221.33,-256.38 224.54,-256.38 227.75,-259.58 227.75,-262.79 227.75,-262.79 227.75,-269.21 227.75,-269.21 227.75,-272.42 224.54,-275.62 221.33,-275.62"/>
<text text-anchor="start" x="185" y="-263.07" font-family="Helvetica,sans-Serif" font-size="9.00">index.ts</text>
</a>
</g>
</g>
<!-- src/components/FolderSelector/FolderSelector.vue&#45;&gt;src/services/VideoParsers/index.ts -->
<g id="edge2" class="edge">
<title>src/components/FolderSelector/FolderSelector.vue&#45;&gt;src/services/VideoParsers/index.ts</title>
<path fill="none" stroke="#000000" stroke-width="2" stroke-opacity="0.200000" d="M121.13,-286.88C127.62,-285.28 134.24,-283.61 140.5,-282 148.46,-279.95 157,-277.69 165.04,-275.52"/>
<polygon fill="#000000" fill-opacity="0.200000" stroke="#000000" stroke-width="2" stroke-opacity="0.200000" points="165.37,-277.61 170.61,-274.01 164.27,-273.55 165.37,-277.61"/>
</g>
<!-- src/stores/videosStore.ts -->
<g id="node6" class="node">
<title>src/stores/videosStore.ts</title>
<g id="a_node6"><a xlink:href="src/stores/videosStore.ts" xlink:title="videosStore.ts">
<path fill="#ddfeff" stroke="black" d="M231.58,-365.62C231.58,-365.62 169.92,-365.62 169.92,-365.62 166.71,-365.62 163.5,-362.42 163.5,-359.21 163.5,-359.21 163.5,-352.79 163.5,-352.79 163.5,-349.58 166.71,-346.38 169.92,-346.38 169.92,-346.38 231.58,-346.38 231.58,-346.38 234.79,-346.38 238,-349.58 238,-352.79 238,-352.79 238,-359.21 238,-359.21 238,-362.42 234.79,-365.62 231.58,-365.62"/>
<text text-anchor="start" x="171.5" y="-353.07" font-family="Helvetica,sans-Serif" font-size="9.00">videosStore.ts</text>
</a>
</g>
</g>
<!-- src/components/FolderSelector/FolderSelector.vue&#45;&gt;src/stores/videosStore.ts -->
<g id="edge3" class="edge">
<title>src/components/FolderSelector/FolderSelector.vue&#45;&gt;src/stores/videosStore.ts</title>
<path fill="none" stroke="#000000" stroke-width="2" stroke-opacity="0.200000" d="M99.69,-307.01C119.34,-316.63 149.21,-331.26 171.2,-342.02"/>
<polygon fill="#000000" fill-opacity="0.200000" stroke="#000000" stroke-width="2" stroke-opacity="0.200000" points="170.18,-343.86 176.49,-344.61 172.02,-340.09 170.18,-343.86"/>
</g>
<!-- src/services/VideoParsers/index.ts&#45;&gt;src/services/StorageController/index.ts -->
<g id="edge13" class="edge">
<title>src/services/VideoParsers/index.ts&#45;&gt;src/services/StorageController/index.ts</title>
<path fill="none" stroke="#000000" stroke-width="2" stroke-opacity="0.200000" d="M228.15,-260.35C234.32,-258.31 240.65,-255.6 246,-252 262.1,-241.17 275.75,-223.55 284.52,-210.38"/>
<polygon fill="#000000" fill-opacity="0.200000" stroke="#000000" stroke-width="2" stroke-opacity="0.200000" points="286.24,-211.59 287.7,-205.4 282.7,-209.33 286.24,-211.59"/>
</g>
<!-- src/services/VideoParsers/index.ts&#45;&gt;src/components/FolderSelector/FileVideoParser.ts -->
<g id="edge14" class="edge">
<title>src/services/VideoParsers/index.ts&#45;&gt;src/components/FolderSelector/FileVideoParser.ts</title>
<path fill="none" stroke="#000000" stroke-width="2" stroke-opacity="0.200000" d="M173.55,-266C161.67,-266 147.16,-266 133.12,-266"/>
<polygon fill="#000000" fill-opacity="0.200000" stroke="#000000" stroke-width="2" stroke-opacity="0.200000" points="133.49,-263.9 127.49,-266 133.49,-268.1 133.49,-263.9"/>
</g>
<!-- src/services/index.ts -->
<g id="node8" class="node">
<title>src/services/index.ts</title>
<g id="a_node8"><a xlink:href="src/services/index.ts" xlink:title="index.ts">
<path fill="#ddfeff" stroke="black" d="M221.33,-239.62C221.33,-239.62 180.17,-239.62 180.17,-239.62 176.96,-239.62 173.75,-236.42 173.75,-233.21 173.75,-233.21 173.75,-226.79 173.75,-226.79 173.75,-223.58 176.96,-220.38 180.17,-220.38 180.17,-220.38 221.33,-220.38 221.33,-220.38 224.54,-220.38 227.75,-223.58 227.75,-226.79 227.75,-226.79 227.75,-233.21 227.75,-233.21 227.75,-236.42 224.54,-239.62 221.33,-239.62"/>
<text text-anchor="start" x="185" y="-227.07" font-family="Helvetica,sans-Serif" font-size="9.00">index.ts</text>
</a>
</g>
</g>
<!-- src/stores/videosStore.ts&#45;&gt;src/services/index.ts -->
<g id="edge17" class="edge">
<title>src/stores/videosStore.ts&#45;&gt;src/services/index.ts</title>
<path fill="none" stroke="#000000" stroke-width="2" stroke-opacity="0.200000" d="M186.41,-345.91C173.59,-335.93 155.69,-319.37 148,-300 139.97,-279.76 138.57,-270.63 148,-251 151.45,-243.82 157.97,-239.08 165.29,-235.96"/>
<polygon fill="#000000" fill-opacity="0.200000" stroke="#000000" stroke-width="2" stroke-opacity="0.200000" points="165.58,-238.08 170.57,-234.15 164.21,-234.11 165.58,-238.08"/>
</g>
<!-- src/components/VideoCard.vue -->
<g id="node7" class="node">
<title>src/components/VideoCard.vue</title>
<g id="a_node7"><a xlink:href="src/components/VideoCard.vue" xlink:title="VideoCard.vue">
<path fill="#41f083" stroke="black" d="M109.83,-239.62C109.83,-239.62 46.67,-239.62 46.67,-239.62 43.46,-239.62 40.25,-236.42 40.25,-233.21 40.25,-233.21 40.25,-226.79 40.25,-226.79 40.25,-223.58 43.46,-220.38 46.67,-220.38 46.67,-220.38 109.83,-220.38 109.83,-220.38 113.04,-220.38 116.25,-223.58 116.25,-226.79 116.25,-226.79 116.25,-233.21 116.25,-233.21 116.25,-236.42 113.04,-239.62 109.83,-239.62"/>
<text text-anchor="start" x="48.25" y="-227.07" font-family="Helvetica,sans-Serif" font-size="9.00">VideoCard.vue</text>
</a>
</g>
</g>
<!-- src/components/VideoCard.vue&#45;&gt;src/services/index.ts -->
<g id="edge4" class="edge">
<title>src/components/VideoCard.vue&#45;&gt;src/services/index.ts</title>
<path fill="none" stroke="#000000" stroke-width="2" stroke-opacity="0.200000" d="M116.72,-230C131.94,-230 149.43,-230 164.42,-230"/>
<polygon fill="#000000" fill-opacity="0.200000" stroke="#000000" stroke-width="2" stroke-opacity="0.200000" points="164.36,-232.1 170.36,-230 164.36,-227.9 164.36,-232.1"/>
</g>
<!-- src/services/index.ts&#45;&gt;src/services/StorageController/index.ts -->
<g id="edge16" class="edge">
<title>src/services/index.ts&#45;&gt;src/services/StorageController/index.ts</title>
<path fill="none" stroke="#000000" stroke-width="2" stroke-opacity="0.200000" d="M228.16,-222.28C234.08,-220.37 240.3,-218.23 275.24,-203.01"/>
<polygon fill="#000000" fill-opacity="0.200000" stroke="#000000" stroke-width="2" stroke-opacity="0.200000" points="278.04,-201.61 281.94,-209.71 273.84,-205.81 278.04,-201.61"/>
</g>
<!-- src/services/Filters/index.ts -->
<g id="node10" class="node">
<title>src/services/Filters/index.ts</title>
<g id="a_node10"><a xlink:href="src/services/Filters/index.ts" xlink:title="index.ts">
<path fill="#ddfeff" stroke="black" d="M316.58,-275.62C316.58,-275.62 275.42,-275.62 275.42,-275.62 272.21,-275.62 269,-272.42 269,-269.21 269,-269.21 269,-262.79 269,-262.79 269,-259.58 272.21,-256.38 275.42,-256.38 275.42,-256.38 316.58,-256.38 316.58,-256.38 319.79,-256.38 323,-259.58 323,-262.79 323,-262.79 323,-269.21 323,-269.21 323,-272.42 319.79,-275.62 316.58,-275.62"/>
<text text-anchor="start" x="280.25" y="-263.07" font-family="Helvetica,sans-Serif" font-size="9.00">index.ts</text>
</a>
</g>
</g>
<!-- src/services/index.ts&#45;&gt;src/services/Filters/index.ts -->
<g id="edge15" class="edge">
<title>src/services/index.ts&#45;&gt;src/services/Filters/index.ts</title>
<path fill="none" stroke="#000000" stroke-width="2" stroke-opacity="0.200000" d="M228.08,-238.55C234,-240.58 240.24,-242.79 272.71,-256.01"/>
<polygon fill="#000000" fill-opacity="0.200000" stroke="#000000" stroke-width="2" stroke-opacity="0.200000" points="275.52,-254.62 279.42,-262.72 271.32,-258.82 275.52,-254.62"/>
</g>
<!-- src/services/Filters/Filters.ts -->
<g id="node9" class="node">
<title>src/services/Filters/Filters.ts</title>
<g id="a_node9"><a xlink:href="src/services/Filters/Filters.ts" xlink:title="Filters.ts">
<path fill="#ddfeff" stroke="black" d="M420.08,-275.62C420.08,-275.62 378.92,-275.62 378.92,-275.62 375.71,-275.62 372.5,-272.42 372.5,-269.21 372.5,-269.21 372.5,-262.79 372.5,-262.79 372.5,-259.58 375.71,-256.38 378.92,-256.38 378.92,-256.38 420.08,-256.38 420.08,-256.38 423.29,-256.38 426.5,-259.58 426.5,-262.79 426.5,-262.79 426.5,-269.21 426.5,-269.21 426.5,-272.42 423.29,-275.62 420.08,-275.62"/>
<text text-anchor="start" x="381.88" y="-263.07" font-family="Helvetica,sans-Serif" font-size="9.00">Filters.ts</text>
</a>
</g>
</g>
<!-- src/services/Filters/index.ts&#45;&gt;src/services/Filters/Filters.ts -->
<g id="edge5" class="edge">
<title>src/services/Filters/index.ts&#45;&gt;src/services/Filters/Filters.ts</title>
<path fill="none" stroke="#000000" stroke-width="2" stroke-opacity="0.200000" d="M323.4,-266C338.44,-266 357.21,-266 372.23,-266"/>
<polygon fill="#000000" fill-opacity="0.200000" stroke="#000000" stroke-width="2" stroke-opacity="0.200000" points="375.04,-264.61 378.94,-272.71 370.84,-268.81 375.04,-264.61"/>
</g>
<!-- src/services/StorageController/migrations/index.ts -->
<g id="node12" class="node">
<title>src/services/StorageController/migrations/index.ts</title>
<g id="a_node12"><a xlink:href="src/services/StorageController/migrations/index.ts" xlink:title="index.ts">
<path fill="#ddfeff" stroke="black" d="M526.58,-172.62C526.58,-172.62 485.42,-172.62 485.42,-172.62 482.21,-172.62 479,-169.42 479,-166.21 479,-166.21 479,-159.79 479,-159.79 479,-156.58 482.21,-153.38 485.42,-153.38 485.42,-153.38 526.58,-153.38 526.58,-153.38 529.79,-153.38 533,-156.58 533,-159.79 533,-159.79 533,-166.21 533,-166.21 533,-169.42 529.79,-172.62 526.58,-172.62"/>
<text text-anchor="start" x="490.25" y="-160.07" font-family="Helvetica,sans-Serif" font-size="9.00">index.ts</text>
</a>
</g>
</g>
<!-- src/services/StorageController/VideoMetadataController.ts&#45;&gt;src/services/StorageController/migrations/index.ts -->
<g id="edge6" class="edge">
<title>src/services/StorageController/VideoMetadataController.ts&#45;&gt;src/services/StorageController/migrations/index.ts</title>
<path fill="none" stroke="#000000" stroke-width="2" stroke-opacity="0.200000" d="M453.36,-172.88C459.01,-171.8 464.64,-170.72 470,-169.7"/>
<polygon fill="#000000" fill-opacity="0.200000" stroke="#000000" stroke-width="2" stroke-opacity="0.200000" points="470.25,-171.79 475.74,-168.6 469.46,-167.66 470.25,-171.79"/>
</g>
<!-- src/services/StorageController/migrations/migrations.ts -->
<g id="node13" class="node">
<title>src/services/StorageController/migrations/migrations.ts</title>
<g id="a_node13"><a xlink:href="src/services/StorageController/migrations/migrations.ts" xlink:title="migrations.ts">
<path fill="#ddfeff" stroke="black" d="M609.58,-158.62C609.58,-158.62 552.42,-158.62 552.42,-158.62 549.21,-158.62 546,-155.42 546,-152.21 546,-152.21 546,-145.79 546,-145.79 546,-142.58 549.21,-139.38 552.42,-139.38 552.42,-139.38 609.58,-139.38 609.58,-139.38 612.79,-139.38 616,-142.58 616,-145.79 616,-145.79 616,-152.21 616,-152.21 616,-155.42 612.79,-158.62 609.58,-158.62"/>
<text text-anchor="start" x="554" y="-146.07" font-family="Helvetica,sans-Serif" font-size="9.00">migrations.ts</text>
</a>
</g>
</g>
<!-- src/services/StorageController/migrations/index.ts&#45;&gt;src/services/StorageController/migrations/migrations.ts -->
<g id="edge8" class="edge">
<title>src/services/StorageController/migrations/index.ts&#45;&gt;src/services/StorageController/migrations/migrations.ts</title>
<path fill="none" stroke="#000000" stroke-width="2" stroke-opacity="0.200000" d="M533.35,-157.95C537.36,-157.18 541.54,-156.38 545.68,-155.58"/>
<polygon fill="#000000" fill-opacity="0.200000" stroke="#000000" stroke-width="2" stroke-opacity="0.200000" points="548.48,-154.19 552.38,-162.29 544.28,-158.39 548.48,-154.19"/>
</g>
<!-- src/services/StorageController/migrations/v1/index.ts -->
<g id="node14" class="node">
<title>src/services/StorageController/migrations/v1/index.ts</title>
<g id="a_node14"><a xlink:href="src/services/StorageController/migrations/v1/index.ts" xlink:title="index.ts">
<path fill="#ddfeff" stroke="black" d="M679.58,-95.62C679.58,-95.62 638.42,-95.62 638.42,-95.62 635.21,-95.62 632,-92.42 632,-89.21 632,-89.21 632,-82.79 632,-82.79 632,-79.58 635.21,-76.38 638.42,-76.38 638.42,-76.38 679.58,-76.38 679.58,-76.38 682.79,-76.38 686,-79.58 686,-82.79 686,-82.79 686,-89.21 686,-89.21 686,-92.42 682.79,-95.62 679.58,-95.62"/>
<text text-anchor="start" x="643.25" y="-83.08" font-family="Helvetica,sans-Serif" font-size="9.00">index.ts</text>
</a>
</g>
</g>
<!-- src/services/StorageController/migrations/migrations.ts&#45;&gt;src/services/StorageController/migrations/v1/index.ts -->
<g id="edge9" class="edge">
<title>src/services/StorageController/migrations/migrations.ts&#45;&gt;src/services/StorageController/migrations/v1/index.ts</title>
<path fill="none" stroke="#000000" stroke-width="2" stroke-opacity="0.200000" d="M594.21,-138.88C606.36,-128.81 625.17,-113.22 639.22,-101.57"/>
<polygon fill="#000000" fill-opacity="0.200000" stroke="#000000" stroke-width="2" stroke-opacity="0.200000" points="640.46,-103.27 643.74,-97.82 637.78,-100.03 640.46,-103.27"/>
</g>
<!-- src/services/StorageController/migrations/v2/index.ts -->
<g id="node15" class="node">
<title>src/services/StorageController/migrations/v2/index.ts</title>
<g id="a_node15"><a xlink:href="src/services/StorageController/migrations/v2/index.ts" xlink:title="index.ts">
<path fill="#ddfeff" stroke="black" d="M679.58,-158.62C679.58,-158.62 638.42,-158.62 638.42,-158.62 635.21,-158.62 632,-155.42 632,-152.21 632,-152.21 632,-145.79 632,-145.79 632,-142.58 635.21,-139.38 638.42,-139.38 638.42,-139.38 679.58,-139.38 679.58,-139.38 682.79,-139.38 686,-142.58 686,-145.79 686,-145.79 686,-152.21 686,-152.21 686,-155.42 682.79,-158.62 679.58,-158.62"/>
<text text-anchor="start" x="643.25" y="-146.07" font-family="Helvetica,sans-Serif" font-size="9.00">index.ts</text>
</a>
</g>
</g>
<!-- src/services/StorageController/migrations/migrations.ts&#45;&gt;src/services/StorageController/migrations/v2/index.ts -->
<g id="edge10" class="edge">
<title>src/services/StorageController/migrations/migrations.ts&#45;&gt;src/services/StorageController/migrations/v2/index.ts</title>
<path fill="none" stroke="#000000" stroke-width="2" stroke-opacity="0.200000" d="M616.44,-149C618.71,-149 621,-149 623.26,-149"/>
<polygon fill="#000000" fill-opacity="0.200000" stroke="#000000" stroke-width="2" stroke-opacity="0.200000" points="622.84,-151.1 628.84,-149 622.84,-146.9 622.84,-151.1"/>
</g>
<!-- src/services/StorageController/migrations/utils/index.ts -->
<g id="node16" class="node">
<title>src/services/StorageController/migrations/utils/index.ts</title>
<g id="a_node16"><a xlink:href="src/services/StorageController/migrations/utils/index.ts" xlink:title="index.ts">
<path fill="#ddfeff" stroke="black" d="M757.58,-126.62C757.58,-126.62 716.42,-126.62 716.42,-126.62 713.21,-126.62 710,-123.42 710,-120.21 710,-120.21 710,-113.79 710,-113.79 710,-110.58 713.21,-107.38 716.42,-107.38 716.42,-107.38 757.58,-107.38 757.58,-107.38 760.79,-107.38 764,-110.58 764,-113.79 764,-113.79 764,-120.21 764,-120.21 764,-123.42 760.79,-126.62 757.58,-126.62"/>
<text text-anchor="start" x="721.25" y="-114.08" font-family="Helvetica,sans-Serif" font-size="9.00">index.ts</text>
</a>
</g>
</g>
<!-- src/services/StorageController/migrations/v1/index.ts&#45;&gt;src/services/StorageController/migrations/utils/index.ts -->
<g id="edge11" class="edge">
<title>src/services/StorageController/migrations/v1/index.ts&#45;&gt;src/services/StorageController/migrations/utils/index.ts</title>
<path fill="none" stroke="#000000" stroke-width="2" stroke-opacity="0.200000" d="M684.47,-95.98C690.37,-98.39 696.78,-101 703.01,-103.54"/>
<polygon fill="#000000" fill-opacity="0.200000" stroke="#000000" stroke-width="2" stroke-opacity="0.200000" points="702.17,-105.47 708.52,-105.79 703.75,-101.58 702.17,-105.47"/>
</g>
<!-- src/services/StorageController/migrations/v2/index.ts&#45;&gt;src/services/StorageController/migrations/utils/index.ts -->
<g id="edge12" class="edge">
<title>src/services/StorageController/migrations/v2/index.ts&#45;&gt;src/services/StorageController/migrations/utils/index.ts</title>
<path fill="none" stroke="#000000" stroke-width="2" stroke-opacity="0.200000" d="M684.05,-138.88C690.35,-136.22 697.24,-133.32 703.89,-130.52"/>
<polygon fill="#000000" fill-opacity="0.200000" stroke="#000000" stroke-width="2" stroke-opacity="0.200000" points="704.6,-132.5 709.32,-128.23 702.97,-128.63 704.6,-132.5"/>
</g>
</g>
</svg>
