<?xml version="1.0" encoding="UTF-8" standalone="no"?>
<!DOCTYPE svg PUBLIC "-//W3C//DTD SVG 1.1//EN"
 "http://www.w3.org/Graphics/SVG/1.1/DTD/svg11.dtd">
<!-- Generated by graphviz version 9.0.0 (20230911.1827)
 -->
<!-- Title: dependency&#45;cruiser output Pages: 1 -->
<svg width="826pt" height="277pt"
 viewBox="0.00 0.00 825.75 276.94" xmlns="http://www.w3.org/2000/svg" xmlns:xlink="http://www.w3.org/1999/xlink">
<g id="graph0" class="graph" transform="scale(1 1) rotate(0) translate(4 272.94)">
<title>dependency&#45;cruiser output</title>
<polygon fill="white" stroke="none" points="-4,4 -4,-272.94 821.75,-272.94 821.75,4 -4,4"/>
<g id="clust1" class="cluster">
<title>cluster_src</title>
<path fill="#ffffff" stroke="black" stroke-width="2" d="M20,-8C20,-8 797.75,-8 797.75,-8 803.75,-8 809.75,-14 809.75,-20 809.75,-20 809.75,-245 809.75,-245 809.75,-251 803.75,-257 797.75,-257 797.75,-257 20,-257 20,-257 14,-257 8,-251 8,-245 8,-245 8,-20 8,-20 8,-14 14,-8 20,-8"/>
<text text-anchor="middle" x="408.88" y="-244.45" font-family="Helvetica,sans-Serif" font-weight="bold" font-size="9.00">src</text>
</g>
<g id="clust2" class="cluster">
<title>cluster_src/application</title>
<path fill="#ffffff" stroke="black" stroke-width="2" d="M28,-16C28,-16 473.5,-16 473.5,-16 479.5,-16 485.5,-22 485.5,-28 485.5,-28 485.5,-131 485.5,-131 485.5,-137 479.5,-143 473.5,-143 473.5,-143 28,-143 28,-143 22,-143 16,-137 16,-131 16,-131 16,-28 16,-28 16,-22 22,-16 28,-16"/>
<text text-anchor="middle" x="250.75" y="-130.45" font-family="Helvetica,sans-Serif" font-weight="bold" font-size="9.00">application</text>
</g>
<g id="clust3" class="cluster">
<title>cluster_src/application/services</title>
<path fill="#ffffff" stroke="black" stroke-width="2" d="M98,-30C98,-30 465.5,-30 465.5,-30 471.5,-30 477.5,-36 477.5,-42 477.5,-42 477.5,-104 477.5,-104 477.5,-110 471.5,-116 465.5,-116 465.5,-116 98,-116 98,-116 92,-116 86,-110 86,-104 86,-104 86,-42 86,-42 86,-36 92,-30 98,-30"/>
<text text-anchor="middle" x="281.75" y="-103.45" font-family="Helvetica,sans-Serif" font-weight="bold" font-size="9.00">services</text>
</g>
<g id="clust4" class="cluster">
<title>cluster_src/domain</title>
<path fill="#ffffff" stroke="black" stroke-width="2" d="M505.5,-73C505.5,-73 789.75,-73 789.75,-73 795.75,-73 801.75,-79 801.75,-85 801.75,-85 801.75,-214 801.75,-214 801.75,-220 795.75,-226 789.75,-226 789.75,-226 505.5,-226 505.5,-226 499.5,-226 493.5,-220 493.5,-214 493.5,-214 493.5,-85 493.5,-85 493.5,-79 499.5,-73 505.5,-73"/>
<text text-anchor="middle" x="647.62" y="-213.45" font-family="Helvetica,sans-Serif" font-weight="bold" font-size="9.00">domain</text>
</g>
<g id="clust5" class="cluster">
<title>cluster_src/domain/entities</title>
<path fill="#ffffff" stroke="black" stroke-width="2" d="M713.5,-81C713.5,-81 759.5,-81 759.5,-81 765.5,-81 771.5,-87 771.5,-93 771.5,-93 771.5,-124 771.5,-124 771.5,-130 765.5,-136 759.5,-136 759.5,-136 713.5,-136 713.5,-136 707.5,-136 701.5,-130 701.5,-124 701.5,-124 701.5,-93 701.5,-93 701.5,-87 707.5,-81 713.5,-81"/>
<text text-anchor="middle" x="736.5" y="-123.45" font-family="Helvetica,sans-Serif" font-weight="bold" font-size="9.00">entities</text>
</g>
<g id="clust6" class="cluster">
<title>cluster_src/domain/services</title>
<path fill="#ffffff" stroke="black" stroke-width="2" d="M575.5,-108C575.5,-108 659.25,-108 659.25,-108 665.25,-108 671.25,-114 671.25,-120 671.25,-120 671.25,-151 671.25,-151 671.25,-157 665.25,-163 659.25,-163 659.25,-163 575.5,-163 575.5,-163 569.5,-163 563.5,-157 563.5,-151 563.5,-151 563.5,-120 563.5,-120 563.5,-114 569.5,-108 575.5,-108"/>
<text text-anchor="middle" x="617.38" y="-150.45" font-family="Helvetica,sans-Serif" font-weight="bold" font-size="9.00">services</text>
</g>
<g id="clust7" class="cluster">
<title>cluster_src/domain/valueObjects</title>
<path fill="#ffffff" stroke="black" stroke-width="2" d="M691.25,-144C691.25,-144 781.75,-144 781.75,-144 787.75,-144 793.75,-150 793.75,-156 793.75,-156 793.75,-187 793.75,-187 793.75,-193 787.75,-199 781.75,-199 781.75,-199 691.25,-199 691.25,-199 685.25,-199 679.25,-193 679.25,-187 679.25,-187 679.25,-156 679.25,-156 679.25,-150 685.25,-144 691.25,-144"/>
<text text-anchor="middle" x="736.5" y="-186.45" font-family="Helvetica,sans-Serif" font-weight="bold" font-size="9.00">valueObjects</text>
</g>
<g id="clust8" class="cluster">
<title>cluster_src/infrastructure</title>
<path fill="#ffffff" stroke="black" stroke-width="2" d="M381.38,-151C381.38,-151 432.38,-151 432.38,-151 438.38,-151 444.38,-157 444.38,-163 444.38,-163 444.38,-194 444.38,-194 444.38,-200 438.38,-206 432.38,-206 432.38,-206 381.38,-206 381.38,-206 375.38,-206 369.38,-200 369.38,-194 369.38,-194 369.38,-163 369.38,-163 369.38,-157 375.38,-151 381.38,-151"/>
<text text-anchor="middle" x="406.88" y="-193.45" font-family="Helvetica,sans-Serif" font-weight="bold" font-size="9.00">infrastructure</text>
</g>
<!-- src/application/index.ts -->
<g id="node1" class="node">
<title>src/application/index.ts</title>
<g id="a_node1"><a xlink:href="src/application/index.ts" xlink:title="index.ts">
<path fill="#ddfeff" stroke="black" d="M71.58,-57.62C71.58,-57.62 30.42,-57.62 30.42,-57.62 27.21,-57.62 24,-54.42 24,-51.21 24,-51.21 24,-44.79 24,-44.79 24,-41.58 27.21,-38.38 30.42,-38.38 30.42,-38.38 71.58,-38.38 71.58,-38.38 74.79,-38.38 78,-41.58 78,-44.79 78,-44.79 78,-51.21 78,-51.21 78,-54.42 74.79,-57.62 71.58,-57.62"/>
<text text-anchor="start" x="35.25" y="-45.08" font-family="Helvetica,sans-Serif" font-size="9.00">index.ts</text>
</a>
</g>
</g>
<!-- src/application/services/FiltersService.ts -->
<g id="node2" class="node">
<title>src/application/services/FiltersService.ts</title>
<g id="a_node2"><a xlink:href="src/application/services/FiltersService.ts" xlink:title="FiltersService.ts">
<path fill="#ddfeff" stroke="black" d="M181.58,-88.62C181.58,-88.62 113.17,-88.62 113.17,-88.62 109.96,-88.62 106.75,-85.42 106.75,-82.21 106.75,-82.21 106.75,-75.79 106.75,-75.79 106.75,-72.58 109.96,-69.38 113.17,-69.38 113.17,-69.38 181.58,-69.38 181.58,-69.38 184.79,-69.38 188,-72.58 188,-75.79 188,-75.79 188,-82.21 188,-82.21 188,-85.42 184.79,-88.62 181.58,-88.62"/>
<text text-anchor="start" x="114.75" y="-76.08" font-family="Helvetica,sans-Serif" font-size="9.00">FiltersService.ts</text>
</a>
</g>
</g>
<!-- src/application/index.ts&#45;&gt;src/application/services/FiltersService.ts -->
<g id="edge1" class="edge">
<title>src/application/index.ts&#45;&gt;src/application/services/FiltersService.ts</title>
<path fill="none" stroke="#000000" stroke-width="2" stroke-opacity="0.200000" d="M71.5,-57.98C76.18,-60.14 81.21,-62.29 86,-64 89.87,-65.38 93.92,-66.67 98.01,-67.89"/>
<polygon fill="#000000" fill-opacity="0.200000" stroke="#000000" stroke-width="2" stroke-opacity="0.200000" points="97.17,-69.83 103.51,-69.43 98.3,-65.79 97.17,-69.83"/>
</g>
<!-- src/application/services/VideoMetadataService.ts -->
<g id="node3" class="node">
<title>src/application/services/VideoMetadataService.ts</title>
<g id="a_node3"><a xlink:href="src/application/services/VideoMetadataService.ts" xlink:title="VideoMetadataService.ts">
<path fill="#ddfeff" stroke="black" d="M323.83,-88.62C323.83,-88.62 220.17,-88.62 220.17,-88.62 216.96,-88.62 213.75,-85.42 213.75,-82.21 213.75,-82.21 213.75,-75.79 213.75,-75.79 213.75,-72.58 216.96,-69.38 220.17,-69.38 220.17,-69.38 323.83,-69.38 323.83,-69.38 327.04,-69.38 330.25,-72.58 330.25,-75.79 330.25,-75.79 330.25,-82.21 330.25,-82.21 330.25,-85.42 327.04,-88.62 323.83,-88.62"/>
<text text-anchor="start" x="221.75" y="-76.08" font-family="Helvetica,sans-Serif" font-size="9.00">VideoMetadataService.ts</text>
</a>
</g>
</g>
<!-- src/application/index.ts&#45;&gt;src/application/services/VideoMetadataService.ts -->
<g id="edge2" class="edge">
<title>src/application/index.ts&#45;&gt;src/application/services/VideoMetadataService.ts</title>
<path fill="none" stroke="#000000" stroke-width="2" stroke-opacity="0.200000" d="M69.47,-37.99C74.63,-35.53 80.4,-33.25 86,-32 135.77,-20.87 151.95,-17.18 200.75,-32 220.89,-38.12 240.52,-52.13 253.88,-63.28"/>
<polygon fill="#000000" fill-opacity="0.200000" stroke="#000000" stroke-width="2" stroke-opacity="0.200000" points="252.42,-64.79 258.33,-67.13 255.17,-61.61 252.42,-64.79"/>
</g>
<!-- src/application/services/VideoParserService.ts -->
<g id="node4" class="node">
<title>src/application/services/VideoParserService.ts</title>
<g id="a_node4"><a xlink:href="src/application/services/VideoParserService.ts" xlink:title="VideoParserService.ts">
<path fill="#ddfeff" stroke="black" d="M194.33,-57.62C194.33,-57.62 100.42,-57.62 100.42,-57.62 97.21,-57.62 94,-54.42 94,-51.21 94,-51.21 94,-44.79 94,-44.79 94,-41.58 97.21,-38.38 100.42,-38.38 100.42,-38.38 194.33,-38.38 194.33,-38.38 197.54,-38.38 200.75,-41.58 200.75,-44.79 200.75,-44.79 200.75,-51.21 200.75,-51.21 200.75,-54.42 197.54,-57.62 194.33,-57.62"/>
<text text-anchor="start" x="102" y="-45.08" font-family="Helvetica,sans-Serif" font-size="9.00">VideoParserService.ts</text>
</a>
</g>
</g>
<!-- src/application/index.ts&#45;&gt;src/application/services/VideoParserService.ts -->
<g id="edge3" class="edge">
<title>src/application/index.ts&#45;&gt;src/application/services/VideoParserService.ts</title>
<path fill="none" stroke="#000000" stroke-width="2" stroke-opacity="0.200000" d="M78.29,-48C80.39,-48 82.56,-48 84.77,-48"/>
<polygon fill="#000000" fill-opacity="0.200000" stroke="#000000" stroke-width="2" stroke-opacity="0.200000" points="84.48,-50.1 90.48,-48 84.48,-45.9 84.48,-50.1"/>
</g>
<!-- src/domain/index.ts -->
<g id="node5" class="node">
<title>src/domain/index.ts</title>
<g id="a_node5"><a xlink:href="src/domain/index.ts" xlink:title="index.ts">
<path fill="#ddfeff" stroke="black" d="M549.08,-121.62C549.08,-121.62 507.92,-121.62 507.92,-121.62 504.71,-121.62 501.5,-118.42 501.5,-115.21 501.5,-115.21 501.5,-108.79 501.5,-108.79 501.5,-105.58 504.71,-102.38 507.92,-102.38 507.92,-102.38 549.08,-102.38 549.08,-102.38 552.29,-102.38 555.5,-105.58 555.5,-108.79 555.5,-108.79 555.5,-115.21 555.5,-115.21 555.5,-118.42 552.29,-121.62 549.08,-121.62"/>
<text text-anchor="start" x="512.75" y="-109.08" font-family="Helvetica,sans-Serif" font-size="9.00">index.ts</text>
</a>
</g>
</g>
<!-- src/application/services/FiltersService.ts&#45;&gt;src/domain/index.ts -->
<g id="edge4" class="edge">
<title>src/application/services/FiltersService.ts&#45;&gt;src/domain/index.ts</title>
<path fill="none" stroke="#000000" stroke-opacity="0.200000" d="M149.44,-88.76C152.94,-115.34 166.68,-189.03 213.75,-219 315.63,-283.87 385.71,-287.03 485.5,-219 515.26,-198.71 523.93,-153.85 526.46,-129.15"/>
<polygon fill="none" stroke="#000000" stroke-opacity="0.200000" points="528.53,-129.56 526.95,-123.4 524.35,-129.2 528.53,-129.56"/>
</g>
<!-- src/application/services/VideoMetadataService.ts&#45;&gt;src/domain/index.ts -->
<g id="edge6" class="edge">
<title>src/application/services/VideoMetadataService.ts&#45;&gt;src/domain/index.ts</title>
<path fill="none" stroke="#000000" stroke-opacity="0.200000" d="M312.94,-89.06C322.8,-91.27 333.37,-93.43 343.25,-95 395.59,-103.34 457,-107.99 494.05,-110.24"/>
<polygon fill="none" stroke="#000000" stroke-opacity="0.200000" points="493.5,-112.31 499.61,-110.57 493.75,-108.12 493.5,-112.31"/>
</g>
<!-- src/application/services/VideoStorageDtoMapper.ts -->
<g id="node6" class="node">
<title>src/application/services/VideoStorageDtoMapper.ts</title>
<g id="a_node6"><a xlink:href="src/application/services/VideoStorageDtoMapper.ts" xlink:title="VideoStorageDtoMapper.ts">
<path fill="#ddfeff" stroke="black" d="M463.08,-88.62C463.08,-88.62 349.67,-88.62 349.67,-88.62 346.46,-88.62 343.25,-85.42 343.25,-82.21 343.25,-82.21 343.25,-75.79 343.25,-75.79 343.25,-72.58 346.46,-69.38 349.67,-69.38 349.67,-69.38 463.08,-69.38 463.08,-69.38 466.29,-69.38 469.5,-72.58 469.5,-75.79 469.5,-75.79 469.5,-82.21 469.5,-82.21 469.5,-85.42 466.29,-88.62 463.08,-88.62"/>
<text text-anchor="start" x="351.25" y="-76.08" font-family="Helvetica,sans-Serif" font-size="9.00">VideoStorageDtoMapper.ts</text>
</a>
</g>
</g>
<!-- src/application/services/VideoMetadataService.ts&#45;&gt;src/application/services/VideoStorageDtoMapper.ts -->
<g id="edge5" class="edge">
<title>src/application/services/VideoMetadataService.ts&#45;&gt;src/application/services/VideoStorageDtoMapper.ts</title>
<path fill="none" stroke="#000000" stroke-width="2" stroke-opacity="0.200000" d="M330.68,-79C331.81,-79 332.95,-79 334.09,-79"/>
<polygon fill="#000000" fill-opacity="0.200000" stroke="#000000" stroke-width="2" stroke-opacity="0.200000" points="333.84,-81.1 339.84,-79 333.84,-76.9 333.84,-81.1"/>
</g>
<!-- src/infrastructure/index.ts -->
<g id="node7" class="node">
<title>src/infrastructure/index.ts</title>
<g id="a_node7"><a xlink:href="src/infrastructure/index.ts" xlink:title="index.ts">
<path fill="#ddfeff" stroke="black" d="M426.96,-178.62C426.96,-178.62 385.79,-178.62 385.79,-178.62 382.58,-178.62 379.38,-175.42 379.38,-172.21 379.38,-172.21 379.38,-165.79 379.38,-165.79 379.38,-162.58 382.58,-159.38 385.79,-159.38 385.79,-159.38 426.96,-159.38 426.96,-159.38 430.17,-159.38 433.38,-162.58 433.38,-165.79 433.38,-165.79 433.38,-172.21 433.38,-172.21 433.38,-175.42 430.17,-178.62 426.96,-178.62"/>
<text text-anchor="start" x="390.62" y="-166.07" font-family="Helvetica,sans-Serif" font-size="9.00">index.ts</text>
</a>
</g>
</g>
<!-- src/application/services/VideoMetadataService.ts&#45;&gt;src/infrastructure/index.ts -->
<g id="edge7" class="edge">
<title>src/application/services/VideoMetadataService.ts&#45;&gt;src/infrastructure/index.ts</title>
<path fill="none" stroke="#000000" stroke-width="2" stroke-opacity="0.200000" d="M287.67,-88.98C310.93,-104.79 356.4,-135.7 383.51,-154.13"/>
<polygon fill="#000000" fill-opacity="0.200000" stroke="#000000" stroke-width="2" stroke-opacity="0.200000" points="381.99,-155.64 388.13,-157.28 384.35,-152.17 381.99,-155.64"/>
</g>
<!-- src/application/services/VideoParserService.ts&#45;&gt;src/application/services/VideoMetadataService.ts -->
<g id="edge8" class="edge">
<title>src/application/services/VideoParserService.ts&#45;&gt;src/application/services/VideoMetadataService.ts</title>
<path fill="none" stroke="#000000" stroke-width="2" stroke-opacity="0.200000" d="M188.19,-58.06C199.11,-60.83 211.08,-63.85 222.43,-66.72"/>
<polygon fill="#000000" fill-opacity="0.200000" stroke="#000000" stroke-width="2" stroke-opacity="0.200000" points="221.7,-68.7 228.03,-68.14 222.73,-64.63 221.7,-68.7"/>
</g>
<!-- src/application/services/VideoParserService.ts&#45;&gt;src/domain/index.ts -->
<g id="edge9" class="edge">
<title>src/application/services/VideoParserService.ts&#45;&gt;src/domain/index.ts</title>
<path fill="none" stroke="#000000" stroke-width="2" stroke-opacity="0.200000" d="M193.83,-58C196.3,-59.45 198.64,-61.1 200.75,-63 212.17,-73.26 204.86,-82.48 213.75,-95 258.14,-157.52 271.51,-181.92 343.25,-209 372.82,-220.16 459.08,-226.35 485.5,-209 511.94,-191.64 521.82,-153.68 525.45,-130.73"/>
<polygon fill="#000000" fill-opacity="0.200000" stroke="#000000" stroke-width="2" stroke-opacity="0.200000" points="527.51,-131.15 526.24,-124.92 523.35,-130.58 527.51,-131.15"/>
</g>
<!-- src/domain/entities/Video.ts -->
<g id="node8" class="node">
<title>src/domain/entities/Video.ts</title>
<g id="a_node8"><a xlink:href="src/domain/entities/Video.ts" xlink:title="Video.ts">
<path fill="#ddfeff" stroke="black" d="M757.08,-108.62C757.08,-108.62 715.92,-108.62 715.92,-108.62 712.71,-108.62 709.5,-105.42 709.5,-102.21 709.5,-102.21 709.5,-95.79 709.5,-95.79 709.5,-92.58 712.71,-89.38 715.92,-89.38 715.92,-89.38 757.08,-89.38 757.08,-89.38 760.29,-89.38 763.5,-92.58 763.5,-95.79 763.5,-95.79 763.5,-102.21 763.5,-102.21 763.5,-105.42 760.29,-108.62 757.08,-108.62"/>
<text text-anchor="start" x="720" y="-96.08" font-family="Helvetica,sans-Serif" font-size="9.00">Video.ts</text>
</a>
</g>
</g>
<!-- src/domain/index.ts&#45;&gt;src/domain/entities/Video.ts -->
<g id="edge11" class="edge">
<title>src/domain/index.ts&#45;&gt;src/domain/entities/Video.ts</title>
<path fill="none" stroke="#000000" stroke-opacity="0.200000" d="M555.79,-106.13C558.38,-105.69 560.99,-105.3 563.5,-105 611.42,-99.27 667.34,-98.38 702.09,-98.51"/>
<polygon fill="none" stroke="#000000" stroke-opacity="0.200000" points="701.64,-100.61 707.66,-98.54 701.67,-96.41 701.64,-100.61"/>
</g>
<!-- src/domain/services/FileVideoParser.ts -->
<g id="node9" class="node">
<title>src/domain/services/FileVideoParser.ts</title>
<g id="a_node9"><a xlink:href="src/domain/services/FileVideoParser.ts" xlink:title="FileVideoParser.ts">
<path fill="#ddfeff" stroke="black" d="M656.83,-135.62C656.83,-135.62 577.92,-135.62 577.92,-135.62 574.71,-135.62 571.5,-132.42 571.5,-129.21 571.5,-129.21 571.5,-122.79 571.5,-122.79 571.5,-119.58 574.71,-116.38 577.92,-116.38 577.92,-116.38 656.83,-116.38 656.83,-116.38 660.04,-116.38 663.25,-119.58 663.25,-122.79 663.25,-122.79 663.25,-129.21 663.25,-129.21 663.25,-132.42 660.04,-135.62 656.83,-135.62"/>
<text text-anchor="start" x="579.5" y="-123.08" font-family="Helvetica,sans-Serif" font-size="9.00">FileVideoParser.ts</text>
</a>
</g>
</g>
<!-- src/domain/index.ts&#45;&gt;src/domain/services/FileVideoParser.ts -->
<g id="edge12" class="edge">
<title>src/domain/index.ts&#45;&gt;src/domain/services/FileVideoParser.ts</title>
<path fill="none" stroke="#000000" stroke-width="2" stroke-opacity="0.200000" d="M555.57,-116.2C557.71,-116.55 559.92,-116.9 562.17,-117.26"/>
<polygon fill="#000000" fill-opacity="0.200000" stroke="#000000" stroke-width="2" stroke-opacity="0.200000" points="561.76,-119.33 568.01,-118.21 562.43,-115.18 561.76,-119.33"/>
</g>
<!-- src/application/services/VideoStorageDtoMapper.ts&#45;&gt;src/domain/index.ts -->
<g id="edge10" class="edge">
<title>src/application/services/VideoStorageDtoMapper.ts&#45;&gt;src/domain/index.ts</title>
<path fill="none" stroke="#000000" stroke-opacity="0.200000" d="M444.07,-89.08C460.1,-93.49 478.77,-98.61 494.38,-102.9"/>
<polygon fill="none" stroke="#000000" stroke-opacity="0.200000" points="493.51,-104.84 499.85,-104.41 494.63,-100.79 493.51,-104.84"/>
</g>
<!-- src/domain/services/FileVideoParser.ts&#45;&gt;src/domain/entities/Video.ts -->
<g id="edge13" class="edge">
<title>src/domain/services/FileVideoParser.ts&#45;&gt;src/domain/entities/Video.ts</title>
<path fill="none" stroke="#000000" stroke-opacity="0.200000" d="M661.99,-115.95C675.25,-112.89 689.62,-109.58 702.1,-106.7"/>
<polygon fill="none" stroke="#000000" stroke-opacity="0.200000" points="702.36,-108.8 707.73,-105.4 701.41,-104.7 702.36,-108.8"/>
</g>
<!-- src/domain/valueObjects/ParsedVideoData.ts -->
<g id="node10" class="node">
<title>src/domain/valueObjects/ParsedVideoData.ts</title>
<g id="a_node10"><a xlink:href="src/domain/valueObjects/ParsedVideoData.ts" xlink:title="ParsedVideoData.ts">
<path fill="#ddfeff" stroke="black" d="M779.33,-171.62C779.33,-171.62 693.67,-171.62 693.67,-171.62 690.46,-171.62 687.25,-168.42 687.25,-165.21 687.25,-165.21 687.25,-158.79 687.25,-158.79 687.25,-155.58 690.46,-152.38 693.67,-152.38 693.67,-152.38 779.33,-152.38 779.33,-152.38 782.54,-152.38 785.75,-155.58 785.75,-158.79 785.75,-158.79 785.75,-165.21 785.75,-165.21 785.75,-168.42 782.54,-171.62 779.33,-171.62"/>
<text text-anchor="start" x="695.25" y="-159.07" font-family="Helvetica,sans-Serif" font-size="9.00">ParsedVideoData.ts</text>
</a>
</g>
</g>
<!-- src/domain/services/FileVideoParser.ts&#45;&gt;src/domain/valueObjects/ParsedVideoData.ts -->
<g id="edge14" class="edge">
<title>src/domain/services/FileVideoParser.ts&#45;&gt;src/domain/valueObjects/ParsedVideoData.ts</title>
<path fill="none" stroke="#000000" stroke-width="2" stroke-opacity="0.200000" d="M651.31,-136.12C664.65,-140.22 680.19,-145 694.27,-149.33"/>
<polygon fill="#000000" fill-opacity="0.200000" stroke="#000000" stroke-width="2" stroke-opacity="0.200000" points="693.56,-151.31 699.92,-151.06 694.8,-147.29 693.56,-151.31"/>
</g>
</g>
</svg>
