<?xml version="1.0" encoding="UTF-8" standalone="no"?>
<!DOCTYPE svg PUBLIC "-//W3C//DTD SVG 1.1//EN"
 "http://www.w3.org/Graphics/SVG/1.1/DTD/svg11.dtd">
<!-- Generated by graphviz version 9.0.0 (20230911.1827)
 -->
<!-- Title: dependency&#45;cruiser output Pages: 1 -->
<svg width="649pt" height="339pt"
 viewBox="0.00 0.00 648.75 339.00" xmlns="http://www.w3.org/2000/svg" xmlns:xlink="http://www.w3.org/1999/xlink">
<g id="graph0" class="graph" transform="scale(1 1) rotate(0) translate(4 335)">
<title>dependency&#45;cruiser output</title>
<polygon fill="white" stroke="none" points="-4,4 -4,-335 644.75,-335 644.75,4 -4,4"/>
<g id="clust1" class="cluster">
<title>cluster_src</title>
<path fill="#ffffff" stroke="black" stroke-width="2" d="M20,-8C20,-8 620.75,-8 620.75,-8 626.75,-8 632.75,-14 632.75,-20 632.75,-20 632.75,-311 632.75,-311 632.75,-317 626.75,-323 620.75,-323 620.75,-323 20,-323 20,-323 14,-323 8,-317 8,-311 8,-311 8,-20 8,-20 8,-14 14,-8 20,-8"/>
<text text-anchor="middle" x="320.38" y="-310.45" font-family="Helvetica,sans-Serif" font-weight="bold" font-size="9.00">src</text>
</g>
<g id="clust2" class="cluster">
<title>cluster_src/application</title>
<path fill="#ffffff" stroke="black" stroke-width="2" d="M126.5,-26C126.5,-26 306.75,-26 306.75,-26 312.75,-26 318.75,-32 318.75,-38 318.75,-38 318.75,-166 318.75,-166 318.75,-172 312.75,-178 306.75,-178 306.75,-178 126.5,-178 126.5,-178 120.5,-178 114.5,-172 114.5,-166 114.5,-166 114.5,-38 114.5,-38 114.5,-32 120.5,-26 126.5,-26"/>
<text text-anchor="middle" x="216.62" y="-165.45" font-family="Helvetica,sans-Serif" font-weight="bold" font-size="9.00">application</text>
</g>
<g id="clust3" class="cluster">
<title>cluster_src/application/services</title>
<path fill="#ffffff" stroke="black" stroke-width="2" d="M208.25,-34C208.25,-34 298.75,-34 298.75,-34 304.75,-34 310.75,-40 310.75,-46 310.75,-46 310.75,-139 310.75,-139 310.75,-145 304.75,-151 298.75,-151 298.75,-151 208.25,-151 208.25,-151 202.25,-151 196.25,-145 196.25,-139 196.25,-139 196.25,-46 196.25,-46 196.25,-40 202.25,-34 208.25,-34"/>
<text text-anchor="middle" x="253.5" y="-138.45" font-family="Helvetica,sans-Serif" font-weight="bold" font-size="9.00">services</text>
</g>
<g id="clust4" class="cluster">
<title>cluster_src/components</title>
<path fill="#ffffff" stroke="black" stroke-width="2" d="M196.5,-196C196.5,-196 310.5,-196 310.5,-196 316.5,-196 322.5,-202 322.5,-208 322.5,-208 322.5,-274 322.5,-274 322.5,-280 316.5,-286 310.5,-286 310.5,-286 196.5,-286 196.5,-286 190.5,-286 184.5,-280 184.5,-274 184.5,-274 184.5,-208 184.5,-208 184.5,-202 190.5,-196 196.5,-196"/>
<text text-anchor="middle" x="253.5" y="-273.45" font-family="Helvetica,sans-Serif" font-weight="bold" font-size="9.00">components</text>
</g>
<g id="clust5" class="cluster">
<title>cluster_src/components/utils</title>
<path fill="#ffffff" stroke="black" stroke-width="2" d="M204.5,-204C204.5,-204 302.5,-204 302.5,-204 308.5,-204 314.5,-210 314.5,-216 314.5,-216 314.5,-247 314.5,-247 314.5,-253 308.5,-259 302.5,-259 302.5,-259 204.5,-259 204.5,-259 198.5,-259 192.5,-253 192.5,-247 192.5,-247 192.5,-216 192.5,-216 192.5,-210 198.5,-204 204.5,-204"/>
<text text-anchor="middle" x="253.5" y="-246.45" font-family="Helvetica,sans-Serif" font-weight="bold" font-size="9.00">utils</text>
</g>
<g id="clust6" class="cluster">
<title>cluster_src/domain</title>
<path fill="#ffffff" stroke="black" stroke-width="2" d="M558.75,-49C558.75,-49 604.75,-49 604.75,-49 610.75,-49 616.75,-55 616.75,-61 616.75,-61 616.75,-92 616.75,-92 616.75,-98 610.75,-104 604.75,-104 604.75,-104 558.75,-104 558.75,-104 552.75,-104 546.75,-98 546.75,-92 546.75,-92 546.75,-61 546.75,-61 546.75,-55 552.75,-49 558.75,-49"/>
<text text-anchor="middle" x="581.75" y="-91.45" font-family="Helvetica,sans-Serif" font-weight="bold" font-size="9.00">domain</text>
</g>
<g id="clust7" class="cluster">
<title>cluster_src/infrastructure</title>
<path fill="#ffffff" stroke="black" stroke-width="2" d="M342.5,-164C342.5,-164 612.75,-164 612.75,-164 618.75,-164 624.75,-170 624.75,-176 624.75,-176 624.75,-270 624.75,-270 624.75,-276 618.75,-282 612.75,-282 612.75,-282 342.5,-282 342.5,-282 336.5,-282 330.5,-276 330.5,-270 330.5,-270 330.5,-176 330.5,-176 330.5,-170 336.5,-164 342.5,-164"/>
<text text-anchor="middle" x="477.62" y="-269.45" font-family="Helvetica,sans-Serif" font-weight="bold" font-size="9.00">infrastructure</text>
</g>
<g id="clust8" class="cluster">
<title>cluster_src/infrastructure/repository</title>
<path fill="#ffffff" stroke="black" stroke-width="2" d="M558.75,-186C558.75,-186 604.75,-186 604.75,-186 610.75,-186 616.75,-192 616.75,-198 616.75,-198 616.75,-229 616.75,-229 616.75,-235 610.75,-241 604.75,-241 604.75,-241 558.75,-241 558.75,-241 552.75,-241 546.75,-235 546.75,-229 546.75,-229 546.75,-198 546.75,-198 546.75,-192 552.75,-186 558.75,-186"/>
<text text-anchor="middle" x="581.75" y="-228.45" font-family="Helvetica,sans-Serif" font-weight="bold" font-size="9.00">repository</text>
</g>
<g id="clust9" class="cluster">
<title>cluster_src/infrastructure/services</title>
<path fill="#ffffff" stroke="black" stroke-width="2" d="M350.5,-200C350.5,-200 526.75,-200 526.75,-200 532.75,-200 538.75,-206 538.75,-212 538.75,-212 538.75,-243 538.75,-243 538.75,-249 532.75,-255 526.75,-255 526.75,-255 350.5,-255 350.5,-255 344.5,-255 338.5,-249 338.5,-243 338.5,-243 338.5,-212 338.5,-212 338.5,-206 344.5,-200 350.5,-200"/>
<text text-anchor="middle" x="438.62" y="-242.45" font-family="Helvetica,sans-Serif" font-weight="bold" font-size="9.00">services</text>
</g>
<g id="clust10" class="cluster">
<title>cluster_src/stores</title>
<path fill="#ffffff" stroke="black" stroke-width="2" d="M28,-132C28,-132 94.5,-132 94.5,-132 100.5,-132 106.5,-138 106.5,-144 106.5,-144 106.5,-175 106.5,-175 106.5,-181 100.5,-187 94.5,-187 94.5,-187 28,-187 28,-187 22,-187 16,-181 16,-175 16,-175 16,-144 16,-144 16,-138 22,-132 28,-132"/>
<text text-anchor="middle" x="61.25" y="-174.45" font-family="Helvetica,sans-Serif" font-weight="bold" font-size="9.00">stores</text>
</g>
<!-- src/application/index.ts -->
<g id="node1" class="node">
<title>src/application/index.ts</title>
<g id="a_node1"><a xlink:href="src/application/index.ts" xlink:title="index.ts">
<path fill="#ddfeff" stroke="black" d="M170.08,-107.62C170.08,-107.62 128.92,-107.62 128.92,-107.62 125.71,-107.62 122.5,-104.42 122.5,-101.21 122.5,-101.21 122.5,-94.79 122.5,-94.79 122.5,-91.58 125.71,-88.38 128.92,-88.38 128.92,-88.38 170.08,-88.38 170.08,-88.38 173.29,-88.38 176.5,-91.58 176.5,-94.79 176.5,-94.79 176.5,-101.21 176.5,-101.21 176.5,-104.42 173.29,-107.62 170.08,-107.62"/>
<text text-anchor="start" x="133.75" y="-95.08" font-family="Helvetica,sans-Serif" font-size="9.00">index.ts</text>
</a>
</g>
</g>
<!-- src/application/services/FileParserService.ts -->
<g id="node2" class="node">
<title>src/application/services/FileParserService.ts</title>
<g id="a_node2"><a xlink:href="src/application/services/FileParserService.ts" xlink:title="FileParserService.ts">
<path fill="#ddfeff" stroke="black" d="M296.33,-92.62C296.33,-92.62 210.67,-92.62 210.67,-92.62 207.46,-92.62 204.25,-89.42 204.25,-86.21 204.25,-86.21 204.25,-79.79 204.25,-79.79 204.25,-76.58 207.46,-73.38 210.67,-73.38 210.67,-73.38 296.33,-73.38 296.33,-73.38 299.54,-73.38 302.75,-76.58 302.75,-79.79 302.75,-79.79 302.75,-86.21 302.75,-86.21 302.75,-89.42 299.54,-92.62 296.33,-92.62"/>
<text text-anchor="start" x="212.25" y="-80.08" font-family="Helvetica,sans-Serif" font-size="9.00">FileParserService.ts</text>
</a>
</g>
</g>
<!-- src/application/index.ts&#45;&gt;src/application/services/FileParserService.ts -->
<g id="edge1" class="edge">
<title>src/application/index.ts&#45;&gt;src/application/services/FileParserService.ts</title>
<path fill="none" stroke="#000000" stroke-width="2" stroke-opacity="0.200000" d="M176.77,-94.14C185.15,-92.9 194.71,-91.5 204.14,-90.11"/>
<polygon fill="#000000" fill-opacity="0.200000" stroke="#000000" stroke-width="2" stroke-opacity="0.200000" points="206.95,-88.72 210.85,-96.82 202.75,-92.92 206.95,-88.72"/>
</g>
<!-- src/application/services/FiltersService.ts -->
<g id="node3" class="node">
<title>src/application/services/FiltersService.ts</title>
<g id="a_node3"><a xlink:href="src/application/services/FiltersService.ts" xlink:title="FiltersService.ts">
<path fill="#ddfeff" stroke="black" d="M287.71,-61.62C287.71,-61.62 219.29,-61.62 219.29,-61.62 216.08,-61.62 212.88,-58.42 212.88,-55.21 212.88,-55.21 212.88,-48.79 212.88,-48.79 212.88,-45.58 216.08,-42.38 219.29,-42.38 219.29,-42.38 287.71,-42.38 287.71,-42.38 290.92,-42.38 294.12,-45.58 294.12,-48.79 294.12,-48.79 294.12,-55.21 294.12,-55.21 294.12,-58.42 290.92,-61.62 287.71,-61.62"/>
<text text-anchor="start" x="220.88" y="-49.08" font-family="Helvetica,sans-Serif" font-size="9.00">FiltersService.ts</text>
</a>
</g>
</g>
<!-- src/application/index.ts&#45;&gt;src/application/services/FiltersService.ts -->
<g id="edge2" class="edge">
<title>src/application/index.ts&#45;&gt;src/application/services/FiltersService.ts</title>
<path fill="none" stroke="#000000" stroke-width="2" stroke-opacity="0.200000" d="M158.73,-88.14C165.07,-81.19 174.43,-72.22 184.5,-67 190.54,-63.87 197.2,-61.39 203.93,-59.43"/>
<polygon fill="#000000" fill-opacity="0.200000" stroke="#000000" stroke-width="2" stroke-opacity="0.200000" points="204.24,-61.52 209.52,-57.97 203.18,-57.46 204.24,-61.52"/>
</g>
<!-- src/application/services/Hotkeys.ts -->
<g id="node4" class="node">
<title>src/application/services/Hotkeys.ts</title>
<g id="a_node4"><a xlink:href="src/application/services/Hotkeys.ts" xlink:title="Hotkeys.ts">
<path fill="#ddfeff" stroke="black" d="M276.46,-123.62C276.46,-123.62 230.54,-123.62 230.54,-123.62 227.33,-123.62 224.12,-120.42 224.12,-117.21 224.12,-117.21 224.12,-110.79 224.12,-110.79 224.12,-107.58 227.33,-104.38 230.54,-104.38 230.54,-104.38 276.46,-104.38 276.46,-104.38 279.67,-104.38 282.88,-107.58 282.88,-110.79 282.88,-110.79 282.88,-117.21 282.88,-117.21 282.88,-120.42 279.67,-123.62 276.46,-123.62"/>
<text text-anchor="start" x="232.12" y="-111.08" font-family="Helvetica,sans-Serif" font-size="9.00">Hotkeys.ts</text>
</a>
</g>
</g>
<!-- src/application/index.ts&#45;&gt;src/application/services/Hotkeys.ts -->
<g id="edge3" class="edge">
<title>src/application/index.ts&#45;&gt;src/application/services/Hotkeys.ts</title>
<path fill="none" stroke="#000000" stroke-width="2" stroke-opacity="0.200000" d="M176.77,-102.12C191.17,-104.38 209.05,-107.18 223.81,-109.5"/>
<polygon fill="#000000" fill-opacity="0.200000" stroke="#000000" stroke-width="2" stroke-opacity="0.200000" points="226.62,-108.11 230.52,-116.21 222.42,-112.31 226.62,-108.11"/>
</g>
<!-- src/domain/index.ts -->
<g id="node5" class="node">
<title>src/domain/index.ts</title>
<g id="a_node5"><a xlink:href="src/domain/index.ts" xlink:title="index.ts">
<path fill="#ddfeff" stroke="black" d="M602.33,-76.62C602.33,-76.62 561.17,-76.62 561.17,-76.62 557.96,-76.62 554.75,-73.42 554.75,-70.21 554.75,-70.21 554.75,-63.79 554.75,-63.79 554.75,-60.58 557.96,-57.38 561.17,-57.38 561.17,-57.38 602.33,-57.38 602.33,-57.38 605.54,-57.38 608.75,-60.58 608.75,-63.79 608.75,-63.79 608.75,-70.21 608.75,-70.21 608.75,-73.42 605.54,-76.62 602.33,-76.62"/>
<text text-anchor="start" x="566" y="-64.08" font-family="Helvetica,sans-Serif" font-size="9.00">index.ts</text>
</a>
</g>
</g>
<!-- src/application/services/FileParserService.ts&#45;&gt;src/domain/index.ts -->
<g id="edge4" class="edge">
<title>src/application/services/FileParserService.ts&#45;&gt;src/domain/index.ts</title>
<path fill="none" stroke="#000000" stroke-opacity="0.200000" d="M302.99,-80.62C369.92,-77.34 488.92,-71.5 546.99,-68.66"/>
<polygon fill="none" stroke="#000000" stroke-opacity="0.200000" points="547.03,-70.76 552.92,-68.36 546.83,-66.56 547.03,-70.76"/>
</g>
<!-- src/infrastructure/index.ts -->
<g id="node6" class="node">
<title>src/infrastructure/index.ts</title>
<g id="a_node6"><a xlink:href="src/infrastructure/index.ts" xlink:title="index.ts">
<path fill="#ddfeff" stroke="black" d="M492.71,-191.62C492.71,-191.62 451.54,-191.62 451.54,-191.62 448.33,-191.62 445.12,-188.42 445.12,-185.21 445.12,-185.21 445.12,-178.79 445.12,-178.79 445.12,-175.58 448.33,-172.38 451.54,-172.38 451.54,-172.38 492.71,-172.38 492.71,-172.38 495.92,-172.38 499.12,-175.58 499.12,-178.79 499.12,-178.79 499.12,-185.21 499.12,-185.21 499.12,-188.42 495.92,-191.62 492.71,-191.62"/>
<text text-anchor="start" x="456.38" y="-179.07" font-family="Helvetica,sans-Serif" font-size="9.00">index.ts</text>
</a>
</g>
</g>
<!-- src/application/services/FileParserService.ts&#45;&gt;src/infrastructure/index.ts -->
<g id="edge5" class="edge">
<title>src/application/services/FileParserService.ts&#45;&gt;src/infrastructure/index.ts</title>
<path fill="none" stroke="#000000" stroke-width="2" stroke-opacity="0.200000" d="M302.95,-91.82C309.61,-93.57 316.29,-95.62 322.5,-98 370.57,-116.41 421.82,-148.5 449.81,-167.24"/>
<polygon fill="#000000" fill-opacity="0.200000" stroke="#000000" stroke-width="2" stroke-opacity="0.200000" points="448.41,-168.83 454.56,-170.45 450.77,-165.35 448.41,-168.83"/>
</g>
<!-- src/infrastructure/services/index.ts -->
<g id="node7" class="node">
<title>src/infrastructure/services/index.ts</title>
<g id="a_node7"><a xlink:href="src/infrastructure/services/index.ts" xlink:title="index.ts">
<path fill="#ddfeff" stroke="black" d="M394.08,-227.62C394.08,-227.62 352.92,-227.62 352.92,-227.62 349.71,-227.62 346.5,-224.42 346.5,-221.21 346.5,-221.21 346.5,-214.79 346.5,-214.79 346.5,-211.58 349.71,-208.38 352.92,-208.38 352.92,-208.38 394.08,-208.38 394.08,-208.38 397.29,-208.38 400.5,-211.58 400.5,-214.79 400.5,-214.79 400.5,-221.21 400.5,-221.21 400.5,-224.42 397.29,-227.62 394.08,-227.62"/>
<text text-anchor="start" x="357.75" y="-215.07" font-family="Helvetica,sans-Serif" font-size="9.00">index.ts</text>
</a>
</g>
</g>
<!-- src/application/services/FileParserService.ts&#45;&gt;src/infrastructure/services/index.ts -->
<g id="edge6" class="edge">
<title>src/application/services/FileParserService.ts&#45;&gt;src/infrastructure/services/index.ts</title>
<path fill="none" stroke="#000000" stroke-width="2" stroke-opacity="0.200000" d="M302.91,-87.62C310.02,-89.94 316.84,-93.27 322.5,-98 353.65,-124.05 365.71,-172.75 370.13,-199.4"/>
<polygon fill="#000000" fill-opacity="0.200000" stroke="#000000" stroke-width="2" stroke-opacity="0.200000" points="368.02,-199.52 370.99,-205.14 372.18,-198.9 368.02,-199.52"/>
</g>
<!-- src/application/services/FiltersService.ts&#45;&gt;src/domain/index.ts -->
<g id="edge7" class="edge">
<title>src/application/services/FiltersService.ts&#45;&gt;src/domain/index.ts</title>
<path fill="none" stroke="#000000" stroke-opacity="0.200000" d="M294.5,-53.84C359.45,-56.83 486.64,-62.67 547.18,-65.46"/>
<polygon fill="none" stroke="#000000" stroke-opacity="0.200000" points="546.97,-67.55 553.06,-65.73 547.16,-63.35 546.97,-67.55"/>
</g>
<!-- src/infrastructure/repository/index.ts -->
<g id="node9" class="node">
<title>src/infrastructure/repository/index.ts</title>
<g id="a_node9"><a xlink:href="src/infrastructure/repository/index.ts" xlink:title="index.ts">
<path fill="#ddfeff" stroke="black" d="M602.33,-213.62C602.33,-213.62 561.17,-213.62 561.17,-213.62 557.96,-213.62 554.75,-210.42 554.75,-207.21 554.75,-207.21 554.75,-200.79 554.75,-200.79 554.75,-197.58 557.96,-194.38 561.17,-194.38 561.17,-194.38 602.33,-194.38 602.33,-194.38 605.54,-194.38 608.75,-197.58 608.75,-200.79 608.75,-200.79 608.75,-207.21 608.75,-207.21 608.75,-210.42 605.54,-213.62 602.33,-213.62"/>
<text text-anchor="start" x="566" y="-201.07" font-family="Helvetica,sans-Serif" font-size="9.00">index.ts</text>
</a>
</g>
</g>
<!-- src/infrastructure/index.ts&#45;&gt;src/infrastructure/repository/index.ts -->
<g id="edge9" class="edge">
<title>src/infrastructure/index.ts&#45;&gt;src/infrastructure/repository/index.ts</title>
<path fill="none" stroke="#000000" stroke-width="2" stroke-opacity="0.200000" d="M499.45,-187.38C516.13,-190.79 537.62,-195.18 554.32,-198.6"/>
<polygon fill="#000000" fill-opacity="0.200000" stroke="#000000" stroke-width="2" stroke-opacity="0.200000" points="557.13,-197.2 561.03,-205.3 552.93,-201.4 557.13,-197.2"/>
</g>
<!-- src/infrastructure/services/VideoMetadataFacade.ts -->
<g id="node10" class="node">
<title>src/infrastructure/services/VideoMetadataFacade.ts</title>
<g id="a_node10"><a xlink:href="src/infrastructure/services/VideoMetadataFacade.ts" xlink:title="VideoMetadataFacade.ts">
<path fill="#ddfeff" stroke="black" d="M524.33,-227.62C524.33,-227.62 419.92,-227.62 419.92,-227.62 416.71,-227.62 413.5,-224.42 413.5,-221.21 413.5,-221.21 413.5,-214.79 413.5,-214.79 413.5,-211.58 416.71,-208.38 419.92,-208.38 419.92,-208.38 524.33,-208.38 524.33,-208.38 527.54,-208.38 530.75,-211.58 530.75,-214.79 530.75,-214.79 530.75,-221.21 530.75,-221.21 530.75,-224.42 527.54,-227.62 524.33,-227.62"/>
<text text-anchor="start" x="421.5" y="-215.07" font-family="Helvetica,sans-Serif" font-size="9.00">VideoMetadataFacade.ts</text>
</a>
</g>
</g>
<!-- src/infrastructure/services/index.ts&#45;&gt;src/infrastructure/services/VideoMetadataFacade.ts -->
<g id="edge12" class="edge">
<title>src/infrastructure/services/index.ts&#45;&gt;src/infrastructure/services/VideoMetadataFacade.ts</title>
<path fill="none" stroke="#000000" stroke-width="2" stroke-opacity="0.200000" d="M400.9,-218C404.81,-218 408.97,-218 413.23,-218"/>
<polygon fill="#000000" fill-opacity="0.200000" stroke="#000000" stroke-width="2" stroke-opacity="0.200000" points="416.03,-216.61 419.93,-224.71 411.83,-220.81 416.03,-216.61"/>
</g>
<!-- src/components/utils/DiagnosticsPanel.vue -->
<g id="node8" class="node">
<title>src/components/utils/DiagnosticsPanel.vue</title>
<g id="a_node8"><a xlink:href="src/components/utils/DiagnosticsPanel.vue" xlink:title="DiagnosticsPanel.vue">
<path fill="#41f083" stroke="black" d="M300.08,-231.62C300.08,-231.62 206.92,-231.62 206.92,-231.62 203.71,-231.62 200.5,-228.42 200.5,-225.21 200.5,-225.21 200.5,-218.79 200.5,-218.79 200.5,-215.58 203.71,-212.38 206.92,-212.38 206.92,-212.38 300.08,-212.38 300.08,-212.38 303.29,-212.38 306.5,-215.58 306.5,-218.79 306.5,-218.79 306.5,-225.21 306.5,-225.21 306.5,-228.42 303.29,-231.62 300.08,-231.62"/>
<text text-anchor="start" x="208.5" y="-219.07" font-family="Helvetica,sans-Serif" font-size="9.00">DiagnosticsPanel.vue</text>
</a>
</g>
</g>
<!-- src/components/utils/DiagnosticsPanel.vue&#45;&gt;src/infrastructure/services/index.ts -->
<g id="edge8" class="edge">
<title>src/components/utils/DiagnosticsPanel.vue&#45;&gt;src/infrastructure/services/index.ts</title>
<path fill="none" stroke="#000000" stroke-width="2" stroke-opacity="0.200000" d="M306.94,-220.22C317.21,-219.87 327.74,-219.52 337.27,-219.19"/>
<polygon fill="#000000" fill-opacity="0.200000" stroke="#000000" stroke-width="2" stroke-opacity="0.200000" points="337.12,-221.3 343.04,-219 336.97,-217.1 337.12,-221.3"/>
</g>
<!-- src/infrastructure/services/VideoMetadataFacade.ts&#45;&gt;src/domain/index.ts -->
<g id="edge10" class="edge">
<title>src/infrastructure/services/VideoMetadataFacade.ts&#45;&gt;src/domain/index.ts</title>
<path fill="none" stroke="#000000" stroke-width="2" stroke-opacity="0.200000" d="M531.15,-209.54C533.87,-207.96 536.43,-206.12 538.75,-204 541,-201.94 564.51,-122.44 575.34,-85.51"/>
<polygon fill="#000000" fill-opacity="0.200000" stroke="#000000" stroke-width="2" stroke-opacity="0.200000" points="577.28,-86.36 576.95,-80.01 573.25,-85.18 577.28,-86.36"/>
</g>
<!-- src/infrastructure/services/VideoMetadataFacade.ts&#45;&gt;src/infrastructure/repository/index.ts -->
<g id="edge11" class="edge">
<title>src/infrastructure/services/VideoMetadataFacade.ts&#45;&gt;src/infrastructure/repository/index.ts</title>
<path fill="none" stroke="#000000" stroke-width="2" stroke-opacity="0.200000" d="M531.03,-210.47C536.01,-209.82 540.93,-209.18 545.64,-208.57"/>
<polygon fill="#000000" fill-opacity="0.200000" stroke="#000000" stroke-width="2" stroke-opacity="0.200000" points="545.7,-210.68 551.37,-207.82 545.15,-206.51 545.7,-210.68"/>
</g>
<!-- src/stores/videosStore.ts -->
<g id="node11" class="node">
<title>src/stores/videosStore.ts</title>
<g id="a_node11"><a xlink:href="src/stores/videosStore.ts" xlink:title="videosStore.ts">
<path fill="#ddfeff" stroke="black" d="M92.08,-159.62C92.08,-159.62 30.42,-159.62 30.42,-159.62 27.21,-159.62 24,-156.42 24,-153.21 24,-153.21 24,-146.79 24,-146.79 24,-143.58 27.21,-140.38 30.42,-140.38 30.42,-140.38 92.08,-140.38 92.08,-140.38 95.29,-140.38 98.5,-143.58 98.5,-146.79 98.5,-146.79 98.5,-153.21 98.5,-153.21 98.5,-156.42 95.29,-159.62 92.08,-159.62"/>
<text text-anchor="start" x="32" y="-147.07" font-family="Helvetica,sans-Serif" font-size="9.00">videosStore.ts</text>
</a>
</g>
</g>
<!-- src/stores/videosStore.ts&#45;&gt;src/application/index.ts -->
<g id="edge13" class="edge">
<title>src/stores/videosStore.ts&#45;&gt;src/application/index.ts</title>
<path fill="none" stroke="#000000" stroke-width="2" stroke-opacity="0.200000" d="M78.88,-139.97C91.77,-132.2 109.81,-121.33 124.29,-112.59"/>
<polygon fill="#000000" fill-opacity="0.200000" stroke="#000000" stroke-width="2" stroke-opacity="0.200000" points="125.27,-114.45 129.33,-109.56 123.11,-110.86 125.27,-114.45"/>
</g>
<!-- src/stores/videosStore.ts&#45;&gt;src/domain/index.ts -->
<g id="edge14" class="edge">
<title>src/stores/videosStore.ts&#45;&gt;src/domain/index.ts</title>
<path fill="none" stroke="#000000" stroke-opacity="0.200000" d="M62.88,-140.23C65.05,-115.63 74.49,-51.08 114.5,-23 164.75,12.27 191.11,-17 252.5,-17 252.5,-17 252.5,-17 374.5,-17 437.89,-17 509.23,-39.58 549.21,-54.39"/>
<polygon fill="none" stroke="#000000" stroke-opacity="0.200000" points="548.05,-56.2 554.4,-56.35 549.53,-52.27 548.05,-56.2"/>
</g>
<!-- src/stores/videosStore.ts&#45;&gt;src/infrastructure/index.ts -->
<g id="edge15" class="edge">
<title>src/stores/videosStore.ts&#45;&gt;src/infrastructure/index.ts</title>
<path fill="none" stroke="#000000" stroke-width="2" stroke-opacity="0.200000" d="M74.68,-159.98C84.75,-167.4 99.65,-176.91 114.5,-181 174.15,-197.45 358.05,-188.82 435.82,-184.25"/>
<polygon fill="#000000" fill-opacity="0.200000" stroke="#000000" stroke-width="2" stroke-opacity="0.200000" points="435.88,-186.35 441.74,-183.89 435.62,-182.16 435.88,-186.35"/>
</g>
<!-- src/stores/videosStore.ts&#45;&gt;src/infrastructure/services/index.ts -->
<g id="edge16" class="edge">
<title>src/stores/videosStore.ts&#45;&gt;src/infrastructure/services/index.ts</title>
<path fill="none" stroke="#000000" stroke-width="2" stroke-opacity="0.200000" d="M69.04,-160.04C85.52,-183.38 130.31,-240.93 184.5,-262 241.66,-284.23 265.12,-283.65 322.5,-262 337.09,-256.49 350.19,-244.58 359.31,-234.53"/>
<polygon fill="#000000" fill-opacity="0.200000" stroke="#000000" stroke-width="2" stroke-opacity="0.200000" points="360.66,-236.19 362.99,-230.27 357.48,-233.44 360.66,-236.19"/>
</g>
</g>
</svg>
