<?xml version="1.0" encoding="UTF-8" standalone="no"?>
<!DOCTYPE svg PUBLIC "-//W3C//DTD SVG 1.1//EN"
 "http://www.w3.org/Graphics/SVG/1.1/DTD/svg11.dtd">
<!-- Generated by graphviz version 9.0.0 (20230911.1827)
 -->
<!-- Title: dependency&#45;cruiser output Pages: 1 -->
<svg width="703pt" height="274pt"
 viewBox="0.00 0.00 703.25 274.35" xmlns="http://www.w3.org/2000/svg" xmlns:xlink="http://www.w3.org/1999/xlink">
<g id="graph0" class="graph" transform="scale(1 1) rotate(0) translate(4 270.35)">
<title>dependency&#45;cruiser output</title>
<polygon fill="white" stroke="none" points="-4,4 -4,-270.35 699.25,-270.35 699.25,4 -4,4"/>
<g id="clust1" class="cluster">
<title>cluster_src</title>
<path fill="#ffffff" stroke="black" stroke-width="2" d="M20,-8C20,-8 675.25,-8 675.25,-8 681.25,-8 687.25,-14 687.25,-20 687.25,-20 687.25,-245 687.25,-245 687.25,-251 681.25,-257 675.25,-257 675.25,-257 20,-257 20,-257 14,-257 8,-251 8,-245 8,-245 8,-20 8,-20 8,-14 14,-8 20,-8"/>
<text text-anchor="middle" x="347.62" y="-244.45" font-family="Helvetica,sans-Serif" font-weight="bold" font-size="9.00">src</text>
</g>
<g id="clust2" class="cluster">
<title>cluster_src/application</title>
<path fill="#ffffff" stroke="black" stroke-width="2" d="M28,-16C28,-16 473.5,-16 473.5,-16 479.5,-16 485.5,-22 485.5,-28 485.5,-28 485.5,-131 485.5,-131 485.5,-137 479.5,-143 473.5,-143 473.5,-143 28,-143 28,-143 22,-143 16,-137 16,-131 16,-131 16,-28 16,-28 16,-22 22,-16 28,-16"/>
<text text-anchor="middle" x="250.75" y="-130.45" font-family="Helvetica,sans-Serif" font-weight="bold" font-size="9.00">application</text>
</g>
<g id="clust3" class="cluster">
<title>cluster_src/application/services</title>
<path fill="#ffffff" stroke="black" stroke-width="2" d="M98,-30C98,-30 465.5,-30 465.5,-30 471.5,-30 477.5,-36 477.5,-42 477.5,-42 477.5,-104 477.5,-104 477.5,-110 471.5,-116 465.5,-116 465.5,-116 98,-116 98,-116 92,-116 86,-110 86,-104 86,-104 86,-42 86,-42 86,-36 92,-30 98,-30"/>
<text text-anchor="middle" x="281.75" y="-103.45" font-family="Helvetica,sans-Serif" font-weight="bold" font-size="9.00">services</text>
</g>
<g id="clust4" class="cluster">
<title>cluster_src/domain</title>
<path fill="#ffffff" stroke="black" stroke-width="2" d="M505.5,-118C505.5,-118 667.25,-118 667.25,-118 673.25,-118 679.25,-124 679.25,-130 679.25,-130 679.25,-196 679.25,-196 679.25,-202 673.25,-208 667.25,-208 667.25,-208 505.5,-208 505.5,-208 499.5,-208 493.5,-202 493.5,-196 493.5,-196 493.5,-130 493.5,-130 493.5,-124 499.5,-118 505.5,-118"/>
<text text-anchor="middle" x="586.38" y="-195.45" font-family="Helvetica,sans-Serif" font-weight="bold" font-size="9.00">domain</text>
</g>
<g id="clust5" class="cluster">
<title>cluster_src/domain/services</title>
<path fill="#ffffff" stroke="black" stroke-width="2" d="M575.5,-126C575.5,-126 659.25,-126 659.25,-126 665.25,-126 671.25,-132 671.25,-138 671.25,-138 671.25,-169 671.25,-169 671.25,-175 665.25,-181 659.25,-181 659.25,-181 575.5,-181 575.5,-181 569.5,-181 563.5,-175 563.5,-169 563.5,-169 563.5,-138 563.5,-138 563.5,-132 569.5,-126 575.5,-126"/>
<text text-anchor="middle" x="617.38" y="-168.45" font-family="Helvetica,sans-Serif" font-weight="bold" font-size="9.00">services</text>
</g>
<g id="clust6" class="cluster">
<title>cluster_src/infrastructure</title>
<path fill="#ffffff" stroke="black" stroke-width="2" d="M381.38,-151C381.38,-151 432.38,-151 432.38,-151 438.38,-151 444.38,-157 444.38,-163 444.38,-163 444.38,-194 444.38,-194 444.38,-200 438.38,-206 432.38,-206 432.38,-206 381.38,-206 381.38,-206 375.38,-206 369.38,-200 369.38,-194 369.38,-194 369.38,-163 369.38,-163 369.38,-157 375.38,-151 381.38,-151"/>
<text text-anchor="middle" x="406.88" y="-193.45" font-family="Helvetica,sans-Serif" font-weight="bold" font-size="9.00">infrastructure</text>
</g>
<!-- src/application/index.ts -->
<g id="node1" class="node">
<title>src/application/index.ts</title>
<g id="a_node1"><a xlink:href="src/application/index.ts" xlink:title="index.ts">
<path fill="#ddfeff" stroke="black" d="M71.58,-57.62C71.58,-57.62 30.42,-57.62 30.42,-57.62 27.21,-57.62 24,-54.42 24,-51.21 24,-51.21 24,-44.79 24,-44.79 24,-41.58 27.21,-38.38 30.42,-38.38 30.42,-38.38 71.58,-38.38 71.58,-38.38 74.79,-38.38 78,-41.58 78,-44.79 78,-44.79 78,-51.21 78,-51.21 78,-54.42 74.79,-57.62 71.58,-57.62"/>
<text text-anchor="start" x="35.25" y="-45.08" font-family="Helvetica,sans-Serif" font-size="9.00">index.ts</text>
</a>
</g>
</g>
<!-- src/application/services/FiltersService.ts -->
<g id="node2" class="node">
<title>src/application/services/FiltersService.ts</title>
<g id="a_node2"><a xlink:href="src/application/services/FiltersService.ts" xlink:title="FiltersService.ts">
<path fill="#ddfeff" stroke="black" d="M181.58,-88.62C181.58,-88.62 113.17,-88.62 113.17,-88.62 109.96,-88.62 106.75,-85.42 106.75,-82.21 106.75,-82.21 106.75,-75.79 106.75,-75.79 106.75,-72.58 109.96,-69.38 113.17,-69.38 113.17,-69.38 181.58,-69.38 181.58,-69.38 184.79,-69.38 188,-72.58 188,-75.79 188,-75.79 188,-82.21 188,-82.21 188,-85.42 184.79,-88.62 181.58,-88.62"/>
<text text-anchor="start" x="114.75" y="-76.08" font-family="Helvetica,sans-Serif" font-size="9.00">FiltersService.ts</text>
</a>
</g>
</g>
<!-- src/application/index.ts&#45;&gt;src/application/services/FiltersService.ts -->
<g id="edge1" class="edge">
<title>src/application/index.ts&#45;&gt;src/application/services/FiltersService.ts</title>
<path fill="none" stroke="#000000" stroke-width="2" stroke-opacity="0.200000" d="M71.5,-57.98C76.18,-60.14 81.21,-62.29 86,-64 89.87,-65.38 93.92,-66.67 98.01,-67.89"/>
<polygon fill="#000000" fill-opacity="0.200000" stroke="#000000" stroke-width="2" stroke-opacity="0.200000" points="97.17,-69.83 103.51,-69.43 98.3,-65.79 97.17,-69.83"/>
</g>
<!-- src/application/services/VideoMetadataService.ts -->
<g id="node3" class="node">
<title>src/application/services/VideoMetadataService.ts</title>
<g id="a_node3"><a xlink:href="src/application/services/VideoMetadataService.ts" xlink:title="VideoMetadataService.ts">
<path fill="#ddfeff" stroke="black" d="M323.83,-88.62C323.83,-88.62 220.17,-88.62 220.17,-88.62 216.96,-88.62 213.75,-85.42 213.75,-82.21 213.75,-82.21 213.75,-75.79 213.75,-75.79 213.75,-72.58 216.96,-69.38 220.17,-69.38 220.17,-69.38 323.83,-69.38 323.83,-69.38 327.04,-69.38 330.25,-72.58 330.25,-75.79 330.25,-75.79 330.25,-82.21 330.25,-82.21 330.25,-85.42 327.04,-88.62 323.83,-88.62"/>
<text text-anchor="start" x="221.75" y="-76.08" font-family="Helvetica,sans-Serif" font-size="9.00">VideoMetadataService.ts</text>
</a>
</g>
</g>
<!-- src/application/index.ts&#45;&gt;src/application/services/VideoMetadataService.ts -->
<g id="edge2" class="edge">
<title>src/application/index.ts&#45;&gt;src/application/services/VideoMetadataService.ts</title>
<path fill="none" stroke="#000000" stroke-width="2" stroke-opacity="0.200000" d="M69.47,-37.99C74.63,-35.53 80.4,-33.25 86,-32 135.77,-20.87 151.95,-17.18 200.75,-32 220.89,-38.12 240.52,-52.13 253.88,-63.28"/>
<polygon fill="#000000" fill-opacity="0.200000" stroke="#000000" stroke-width="2" stroke-opacity="0.200000" points="252.42,-64.79 258.33,-67.13 255.17,-61.61 252.42,-64.79"/>
</g>
<!-- src/application/services/VideoParserService.ts -->
<g id="node4" class="node">
<title>src/application/services/VideoParserService.ts</title>
<g id="a_node4"><a xlink:href="src/application/services/VideoParserService.ts" xlink:title="VideoParserService.ts">
<path fill="#ddfeff" stroke="black" d="M194.33,-57.62C194.33,-57.62 100.42,-57.62 100.42,-57.62 97.21,-57.62 94,-54.42 94,-51.21 94,-51.21 94,-44.79 94,-44.79 94,-41.58 97.21,-38.38 100.42,-38.38 100.42,-38.38 194.33,-38.38 194.33,-38.38 197.54,-38.38 200.75,-41.58 200.75,-44.79 200.75,-44.79 200.75,-51.21 200.75,-51.21 200.75,-54.42 197.54,-57.62 194.33,-57.62"/>
<text text-anchor="start" x="102" y="-45.08" font-family="Helvetica,sans-Serif" font-size="9.00">VideoParserService.ts</text>
</a>
</g>
</g>
<!-- src/application/index.ts&#45;&gt;src/application/services/VideoParserService.ts -->
<g id="edge3" class="edge">
<title>src/application/index.ts&#45;&gt;src/application/services/VideoParserService.ts</title>
<path fill="none" stroke="#000000" stroke-width="2" stroke-opacity="0.200000" d="M78.29,-48C80.39,-48 82.56,-48 84.77,-48"/>
<polygon fill="#000000" fill-opacity="0.200000" stroke="#000000" stroke-width="2" stroke-opacity="0.200000" points="84.48,-50.1 90.48,-48 84.48,-45.9 84.48,-50.1"/>
</g>
<!-- src/domain/index.ts -->
<g id="node5" class="node">
<title>src/domain/index.ts</title>
<g id="a_node5"><a xlink:href="src/domain/index.ts" xlink:title="index.ts">
<path fill="#ddfeff" stroke="black" d="M549.08,-153.62C549.08,-153.62 507.92,-153.62 507.92,-153.62 504.71,-153.62 501.5,-150.42 501.5,-147.21 501.5,-147.21 501.5,-140.79 501.5,-140.79 501.5,-137.58 504.71,-134.38 507.92,-134.38 507.92,-134.38 549.08,-134.38 549.08,-134.38 552.29,-134.38 555.5,-137.58 555.5,-140.79 555.5,-140.79 555.5,-147.21 555.5,-147.21 555.5,-150.42 552.29,-153.62 549.08,-153.62"/>
<text text-anchor="start" x="512.75" y="-141.07" font-family="Helvetica,sans-Serif" font-size="9.00">index.ts</text>
</a>
</g>
</g>
<!-- src/application/services/FiltersService.ts&#45;&gt;src/domain/index.ts -->
<g id="edge4" class="edge">
<title>src/application/services/FiltersService.ts&#45;&gt;src/domain/index.ts</title>
<path fill="none" stroke="#000000" stroke-opacity="0.200000" d="M149.44,-88.76C152.94,-115.34 166.68,-189.03 213.75,-219 315.63,-283.87 381.3,-280.07 485.5,-219 506.68,-206.59 517.98,-179.16 523.36,-161.14"/>
<polygon fill="none" stroke="#000000" stroke-opacity="0.200000" points="525.33,-161.86 524.91,-155.52 521.29,-160.75 525.33,-161.86"/>
</g>
<!-- src/application/services/VideoMetadataService.ts&#45;&gt;src/domain/index.ts -->
<g id="edge6" class="edge">
<title>src/application/services/VideoMetadataService.ts&#45;&gt;src/domain/index.ts</title>
<path fill="none" stroke="#000000" stroke-opacity="0.200000" d="M312.49,-89.08C362.32,-101.81 447.16,-123.48 493.98,-135.44"/>
<polygon fill="none" stroke="#000000" stroke-opacity="0.200000" points="493.36,-137.45 499.69,-136.9 494.4,-133.38 493.36,-137.45"/>
</g>
<!-- src/application/services/VideoStorageDtoMapper.ts -->
<g id="node6" class="node">
<title>src/application/services/VideoStorageDtoMapper.ts</title>
<g id="a_node6"><a xlink:href="src/application/services/VideoStorageDtoMapper.ts" xlink:title="VideoStorageDtoMapper.ts">
<path fill="#ddfeff" stroke="black" d="M463.08,-88.62C463.08,-88.62 349.67,-88.62 349.67,-88.62 346.46,-88.62 343.25,-85.42 343.25,-82.21 343.25,-82.21 343.25,-75.79 343.25,-75.79 343.25,-72.58 346.46,-69.38 349.67,-69.38 349.67,-69.38 463.08,-69.38 463.08,-69.38 466.29,-69.38 469.5,-72.58 469.5,-75.79 469.5,-75.79 469.5,-82.21 469.5,-82.21 469.5,-85.42 466.29,-88.62 463.08,-88.62"/>
<text text-anchor="start" x="351.25" y="-76.08" font-family="Helvetica,sans-Serif" font-size="9.00">VideoStorageDtoMapper.ts</text>
</a>
</g>
</g>
<!-- src/application/services/VideoMetadataService.ts&#45;&gt;src/application/services/VideoStorageDtoMapper.ts -->
<g id="edge5" class="edge">
<title>src/application/services/VideoMetadataService.ts&#45;&gt;src/application/services/VideoStorageDtoMapper.ts</title>
<path fill="none" stroke="#000000" stroke-width="2" stroke-opacity="0.200000" d="M330.68,-79C331.81,-79 332.95,-79 334.09,-79"/>
<polygon fill="#000000" fill-opacity="0.200000" stroke="#000000" stroke-width="2" stroke-opacity="0.200000" points="333.84,-81.1 339.84,-79 333.84,-76.9 333.84,-81.1"/>
</g>
<!-- src/infrastructure/index.ts -->
<g id="node7" class="node">
<title>src/infrastructure/index.ts</title>
<g id="a_node7"><a xlink:href="src/infrastructure/index.ts" xlink:title="index.ts">
<path fill="#ddfeff" stroke="black" d="M426.96,-178.62C426.96,-178.62 385.79,-178.62 385.79,-178.62 382.58,-178.62 379.38,-175.42 379.38,-172.21 379.38,-172.21 379.38,-165.79 379.38,-165.79 379.38,-162.58 382.58,-159.38 385.79,-159.38 385.79,-159.38 426.96,-159.38 426.96,-159.38 430.17,-159.38 433.38,-162.58 433.38,-165.79 433.38,-165.79 433.38,-172.21 433.38,-172.21 433.38,-175.42 430.17,-178.62 426.96,-178.62"/>
<text text-anchor="start" x="390.62" y="-166.07" font-family="Helvetica,sans-Serif" font-size="9.00">index.ts</text>
</a>
</g>
</g>
<!-- src/application/services/VideoMetadataService.ts&#45;&gt;src/infrastructure/index.ts -->
<g id="edge7" class="edge">
<title>src/application/services/VideoMetadataService.ts&#45;&gt;src/infrastructure/index.ts</title>
<path fill="none" stroke="#000000" stroke-width="2" stroke-opacity="0.200000" d="M287.67,-88.98C310.93,-104.79 356.4,-135.7 383.51,-154.13"/>
<polygon fill="#000000" fill-opacity="0.200000" stroke="#000000" stroke-width="2" stroke-opacity="0.200000" points="381.99,-155.64 388.13,-157.28 384.35,-152.17 381.99,-155.64"/>
</g>
<!-- src/application/services/VideoParserService.ts&#45;&gt;src/application/services/VideoMetadataService.ts -->
<g id="edge8" class="edge">
<title>src/application/services/VideoParserService.ts&#45;&gt;src/application/services/VideoMetadataService.ts</title>
<path fill="none" stroke="#000000" stroke-width="2" stroke-opacity="0.200000" d="M188.19,-58.06C199.11,-60.83 211.08,-63.85 222.43,-66.72"/>
<polygon fill="#000000" fill-opacity="0.200000" stroke="#000000" stroke-width="2" stroke-opacity="0.200000" points="221.7,-68.7 228.03,-68.14 222.73,-64.63 221.7,-68.7"/>
</g>
<!-- src/application/services/VideoParserService.ts&#45;&gt;src/domain/index.ts -->
<g id="edge9" class="edge">
<title>src/application/services/VideoParserService.ts&#45;&gt;src/domain/index.ts</title>
<path fill="none" stroke="#000000" stroke-width="2" stroke-opacity="0.200000" d="M193.83,-58C196.3,-59.45 198.64,-61.1 200.75,-63 212.17,-73.26 204.86,-82.48 213.75,-95 258.14,-157.52 271.51,-181.92 343.25,-209 372.82,-220.16 457.74,-224.12 485.5,-209 503.55,-199.17 515.03,-177.88 521.34,-162.33"/>
<polygon fill="#000000" fill-opacity="0.200000" stroke="#000000" stroke-width="2" stroke-opacity="0.200000" points="523.27,-163.16 523.41,-156.81 519.34,-161.69 523.27,-163.16"/>
</g>
<!-- src/domain/services/FileVideoParser.ts -->
<g id="node8" class="node">
<title>src/domain/services/FileVideoParser.ts</title>
<g id="a_node8"><a xlink:href="src/domain/services/FileVideoParser.ts" xlink:title="FileVideoParser.ts">
<path fill="#ddfeff" stroke="black" d="M656.83,-153.62C656.83,-153.62 577.92,-153.62 577.92,-153.62 574.71,-153.62 571.5,-150.42 571.5,-147.21 571.5,-147.21 571.5,-140.79 571.5,-140.79 571.5,-137.58 574.71,-134.38 577.92,-134.38 577.92,-134.38 656.83,-134.38 656.83,-134.38 660.04,-134.38 663.25,-137.58 663.25,-140.79 663.25,-140.79 663.25,-147.21 663.25,-147.21 663.25,-150.42 660.04,-153.62 656.83,-153.62"/>
<text text-anchor="start" x="579.5" y="-141.07" font-family="Helvetica,sans-Serif" font-size="9.00">FileVideoParser.ts</text>
</a>
</g>
</g>
<!-- src/domain/index.ts&#45;&gt;src/domain/services/FileVideoParser.ts -->
<g id="edge11" class="edge">
<title>src/domain/index.ts&#45;&gt;src/domain/services/FileVideoParser.ts</title>
<g id="a_edge11"><a xlink:title="no&#45;circular">
<path fill="none" stroke="orange" stroke-width="2" d="M555.57,-148.16C555.72,-148.17 555.87,-148.18 556.03,-148.18"/>
<polygon fill="orange" stroke="orange" stroke-width="2" points="561.93,-150.41 567.98,-148.43 562.02,-146.21 561.93,-150.41"/>
<polyline fill="none" stroke="orange" stroke-width="2" points="560.98,-148.29 557.98,-148.22"/>
<ellipse fill="none" stroke="orange" stroke-width="2" cx="554.58" cy="-148.15" rx="2.4" ry="2.4"/>
</a>
</g>
<text text-anchor="middle" x="577.75" y="-150.88" font-family="Helvetica,sans-Serif" font-size="9.00" fill="orange">no&#45;circular</text>
</g>
<!-- src/application/services/VideoStorageDtoMapper.ts&#45;&gt;src/domain/index.ts -->
<g id="edge10" class="edge">
<title>src/application/services/VideoStorageDtoMapper.ts&#45;&gt;src/domain/index.ts</title>
<path fill="none" stroke="#000000" stroke-opacity="0.200000" d="M428.87,-89.08C444.72,-96.66 466.7,-107.52 485.5,-118 492.24,-121.76 499.43,-126.09 505.93,-130.12"/>
<polygon fill="none" stroke="#000000" stroke-opacity="0.200000" points="504.66,-131.81 510.86,-133.22 506.9,-128.25 504.66,-131.81"/>
</g>
<!-- src/domain/services/FileVideoParser.ts&#45;&gt;src/domain/index.ts -->
<g id="edge12" class="edge">
<title>src/domain/services/FileVideoParser.ts&#45;&gt;src/domain/index.ts</title>
<g id="a_edge12"><a xlink:title="no&#45;circular">
<path fill="none" stroke="orange" stroke-width="2" d="M571,-139.5C570.84,-139.5 570.67,-139.51 570.51,-139.51"/>
<polygon fill="orange" stroke="orange" stroke-width="2" points="564.54,-137.54 558.59,-139.77 564.64,-141.74 564.54,-137.54"/>
<polyline fill="none" stroke="orange" stroke-width="2" points="565.59,-139.61 568.59,-139.55"/>
<ellipse fill="none" stroke="orange" stroke-width="2" cx="571.99" cy="-139.47" rx="2.4" ry="2.4"/>
</a>
</g>
<text text-anchor="middle" x="548.79" y="-130.96" font-family="Helvetica,sans-Serif" font-size="9.00" fill="orange">no&#45;circular</text>
</g>
</g>
</svg>
