<?xml version="1.0" encoding="UTF-8" standalone="no"?>
<!DOCTYPE svg PUBLIC "-//W3C//DTD SVG 1.1//EN"
 "http://www.w3.org/Graphics/SVG/1.1/DTD/svg11.dtd">
<!-- Generated by graphviz version 9.0.0 (20230911.1827)
 -->
<!-- Title: dependency&#45;cruiser output Pages: 1 -->
<svg width="993pt" height="345pt"
 viewBox="0.00 0.00 993.00 345.00" xmlns="http://www.w3.org/2000/svg" xmlns:xlink="http://www.w3.org/1999/xlink">
<g id="graph0" class="graph" transform="scale(1 1) rotate(0) translate(4 341)">
<title>dependency&#45;cruiser output</title>
<polygon fill="white" stroke="none" points="-4,4 -4,-341 989,-341 989,4 -4,4"/>
<g id="clust1" class="cluster">
<title>cluster_src</title>
<path fill="#ffffff" stroke="black" stroke-width="2" d="M20,-8C20,-8 965,-8 965,-8 971,-8 977,-14 977,-20 977,-20 977,-317 977,-317 977,-323 971,-329 965,-329 965,-329 20,-329 20,-329 14,-329 8,-323 8,-317 8,-317 8,-20 8,-20 8,-14 14,-8 20,-8"/>
<text text-anchor="middle" x="492.5" y="-316.45" font-family="Helvetica,sans-Serif" font-weight="bold" font-size="9.00">src</text>
</g>
<g id="clust2" class="cluster">
<title>cluster_src/components</title>
<path fill="#ffffff" stroke="black" stroke-width="2" d="M28,-64C28,-64 128.5,-64 128.5,-64 134.5,-64 140.5,-70 140.5,-76 140.5,-76 140.5,-170 140.5,-170 140.5,-176 134.5,-182 128.5,-182 128.5,-182 28,-182 28,-182 22,-182 16,-176 16,-170 16,-170 16,-76 16,-76 16,-70 22,-64 28,-64"/>
<text text-anchor="middle" x="78.25" y="-169.45" font-family="Helvetica,sans-Serif" font-weight="bold" font-size="9.00">components</text>
</g>
<g id="clust3" class="cluster">
<title>cluster_src/components/inputs</title>
<path fill="#ffffff" stroke="black" stroke-width="2" d="M36,-100C36,-100 120.5,-100 120.5,-100 126.5,-100 132.5,-106 132.5,-112 132.5,-112 132.5,-143 132.5,-143 132.5,-149 126.5,-155 120.5,-155 120.5,-155 36,-155 36,-155 30,-155 24,-149 24,-143 24,-143 24,-112 24,-112 24,-106 30,-100 36,-100"/>
<text text-anchor="middle" x="78.25" y="-142.45" font-family="Helvetica,sans-Serif" font-weight="bold" font-size="9.00">inputs</text>
</g>
<g id="clust4" class="cluster">
<title>cluster_src/services</title>
<path fill="#ffffff" stroke="black" stroke-width="2" d="M259,-16C259,-16 957,-16 957,-16 963,-16 969,-22 969,-28 969,-28 969,-290 969,-290 969,-296 963,-302 957,-302 957,-302 259,-302 259,-302 253,-302 247,-296 247,-290 247,-290 247,-28 247,-28 247,-22 253,-16 259,-16"/>
<text text-anchor="middle" x="608" y="-289.45" font-family="Helvetica,sans-Serif" font-weight="bold" font-size="9.00">services</text>
</g>
<g id="clust5" class="cluster">
<title>cluster_src/services/Filters</title>
<path fill="#ffffff" stroke="black" stroke-width="2" d="M347,-24C347,-24 489,-24 489,-24 495,-24 501,-30 501,-36 501,-36 501,-67 501,-67 501,-73 495,-79 489,-79 489,-79 347,-79 347,-79 341,-79 335,-73 335,-67 335,-67 335,-36 335,-36 335,-30 341,-24 347,-24"/>
<text text-anchor="middle" x="418" y="-66.45" font-family="Helvetica,sans-Serif" font-weight="bold" font-size="9.00">Filters</text>
</g>
<g id="clust11" class="cluster">
<title>cluster_src/services/VideoParsers</title>
<path fill="#ffffff" stroke="black" stroke-width="2" d="M345,-98C345,-98 395,-98 395,-98 401,-98 407,-104 407,-110 407,-110 407,-141 407,-141 407,-147 401,-153 395,-153 395,-153 345,-153 345,-153 339,-153 333,-147 333,-141 333,-141 333,-110 333,-110 333,-104 339,-98 345,-98"/>
<text text-anchor="middle" x="370" y="-140.45" font-family="Helvetica,sans-Serif" font-weight="bold" font-size="9.00">VideoParsers</text>
</g>
<g id="clust6" class="cluster">
<title>cluster_src/services/StorageController</title>
<path fill="#ffffff" stroke="black" stroke-width="2" d="M443,-87C443,-87 949,-87 949,-87 955,-87 961,-93 961,-99 961,-99 961,-263 961,-263 961,-269 955,-275 949,-275 949,-275 443,-275 443,-275 437,-275 431,-269 431,-263 431,-263 431,-99 431,-99 431,-93 437,-87 443,-87"/>
<text text-anchor="middle" x="696" y="-262.45" font-family="Helvetica,sans-Serif" font-weight="bold" font-size="9.00">StorageController</text>
</g>
<g id="clust7" class="cluster">
<title>cluster_src/services/StorageController/migrations</title>
<path fill="#ffffff" stroke="black" stroke-width="2" d="M656,-95C656,-95 941,-95 941,-95 947,-95 953,-101 953,-107 953,-107 953,-236 953,-236 953,-242 947,-248 941,-248 941,-248 656,-248 656,-248 650,-248 644,-242 644,-236 644,-236 644,-107 644,-107 644,-101 650,-95 656,-95"/>
<text text-anchor="middle" x="798.5" y="-235.45" font-family="Helvetica,sans-Serif" font-weight="bold" font-size="9.00">migrations</text>
</g>
<g id="clust8" class="cluster">
<title>cluster_src/services/StorageController/migrations/utils</title>
<path fill="#ffffff" stroke="black" stroke-width="2" d="M887,-134C887,-134 933,-134 933,-134 939,-134 945,-140 945,-146 945,-146 945,-177 945,-177 945,-183 939,-189 933,-189 933,-189 887,-189 887,-189 881,-189 875,-183 875,-177 875,-177 875,-146 875,-146 875,-140 881,-134 887,-134"/>
<text text-anchor="middle" x="910" y="-176.45" font-family="Helvetica,sans-Serif" font-weight="bold" font-size="9.00">utils</text>
</g>
<g id="clust9" class="cluster">
<title>cluster_src/services/StorageController/migrations/v1</title>
<path fill="#ffffff" stroke="black" stroke-width="2" d="M809,-103C809,-103 855,-103 855,-103 861,-103 867,-109 867,-115 867,-115 867,-146 867,-146 867,-152 861,-158 855,-158 855,-158 809,-158 809,-158 803,-158 797,-152 797,-146 797,-146 797,-115 797,-115 797,-109 803,-103 809,-103"/>
<text text-anchor="middle" x="832" y="-145.45" font-family="Helvetica,sans-Serif" font-weight="bold" font-size="9.00">v1</text>
</g>
<g id="clust10" class="cluster">
<title>cluster_src/services/StorageController/migrations/v2</title>
<path fill="#ffffff" stroke="black" stroke-width="2" d="M809,-166C809,-166 855,-166 855,-166 861,-166 867,-172 867,-178 867,-178 867,-209 867,-209 867,-215 861,-221 855,-221 855,-221 809,-221 809,-221 803,-221 797,-215 797,-209 797,-209 797,-178 797,-178 797,-172 803,-166 809,-166"/>
<text text-anchor="middle" x="832" y="-208.45" font-family="Helvetica,sans-Serif" font-weight="bold" font-size="9.00">v2</text>
</g>
<g id="clust12" class="cluster">
<title>cluster_src/stores</title>
<path fill="#ffffff" stroke="black" stroke-width="2" d="M160.5,-105C160.5,-105 227,-105 227,-105 233,-105 239,-111 239,-117 239,-117 239,-148 239,-148 239,-154 233,-160 227,-160 227,-160 160.5,-160 160.5,-160 154.5,-160 148.5,-154 148.5,-148 148.5,-148 148.5,-117 148.5,-117 148.5,-111 154.5,-105 160.5,-105"/>
<text text-anchor="middle" x="193.75" y="-147.45" font-family="Helvetica,sans-Serif" font-weight="bold" font-size="9.00">stores</text>
</g>
<!-- src/components/VideoCard.vue -->
<g id="node1" class="node">
<title>src/components/VideoCard.vue</title>
<g id="a_node1"><a xlink:href="src/components/VideoCard.vue" xlink:title="VideoCard.vue">
<path fill="#41f083" stroke="black" d="M109.83,-91.62C109.83,-91.62 46.67,-91.62 46.67,-91.62 43.46,-91.62 40.25,-88.42 40.25,-85.21 40.25,-85.21 40.25,-78.79 40.25,-78.79 40.25,-75.58 43.46,-72.38 46.67,-72.38 46.67,-72.38 109.83,-72.38 109.83,-72.38 113.04,-72.38 116.25,-75.58 116.25,-78.79 116.25,-78.79 116.25,-85.21 116.25,-85.21 116.25,-88.42 113.04,-91.62 109.83,-91.62"/>
<text text-anchor="start" x="48.25" y="-79.08" font-family="Helvetica,sans-Serif" font-size="9.00">VideoCard.vue</text>
</a>
</g>
</g>
<!-- src/services/index.ts -->
<g id="node2" class="node">
<title>src/services/index.ts</title>
<g id="a_node2"><a xlink:href="src/services/index.ts" xlink:title="index.ts">
<path fill="#ddfeff" stroke="black" d="M302.58,-98.62C302.58,-98.62 261.42,-98.62 261.42,-98.62 258.21,-98.62 255,-95.42 255,-92.21 255,-92.21 255,-85.79 255,-85.79 255,-82.58 258.21,-79.38 261.42,-79.38 261.42,-79.38 302.58,-79.38 302.58,-79.38 305.79,-79.38 309,-82.58 309,-85.79 309,-85.79 309,-92.21 309,-92.21 309,-95.42 305.79,-98.62 302.58,-98.62"/>
<text text-anchor="start" x="266.25" y="-86.08" font-family="Helvetica,sans-Serif" font-size="9.00">index.ts</text>
</a>
</g>
</g>
<!-- src/components/VideoCard.vue&#45;&gt;src/services/index.ts -->
<g id="edge1" class="edge">
<title>src/components/VideoCard.vue&#45;&gt;src/services/index.ts</title>
<path fill="none" stroke="#000000" stroke-width="2" stroke-opacity="0.200000" d="M116.72,-83.3C153.7,-84.58 209.8,-86.53 245.92,-87.78"/>
<polygon fill="#000000" fill-opacity="0.200000" stroke="#000000" stroke-width="2" stroke-opacity="0.200000" points="245.56,-89.87 251.63,-87.98 245.7,-85.67 245.56,-89.87"/>
</g>
<!-- src/services/Filters/index.ts -->
<g id="node7" class="node">
<title>src/services/Filters/index.ts</title>
<g id="a_node7"><a xlink:href="src/services/Filters/index.ts" xlink:title="index.ts">
<path fill="#ddfeff" stroke="black" d="M390.58,-51.62C390.58,-51.62 349.42,-51.62 349.42,-51.62 346.21,-51.62 343,-48.42 343,-45.21 343,-45.21 343,-38.79 343,-38.79 343,-35.58 346.21,-32.38 349.42,-32.38 349.42,-32.38 390.58,-32.38 390.58,-32.38 393.79,-32.38 397,-35.58 397,-38.79 397,-38.79 397,-45.21 397,-45.21 397,-48.42 393.79,-51.62 390.58,-51.62"/>
<text text-anchor="start" x="354.25" y="-39.08" font-family="Helvetica,sans-Serif" font-size="9.00">index.ts</text>
</a>
</g>
</g>
<!-- src/services/index.ts&#45;&gt;src/services/Filters/index.ts -->
<g id="edge14" class="edge">
<title>src/services/index.ts&#45;&gt;src/services/Filters/index.ts</title>
<path fill="none" stroke="#000000" stroke-width="2" stroke-opacity="0.200000" d="M296.53,-78.93C306.32,-71.93 320.07,-62.69 342.75,-51.45"/>
<polygon fill="#000000" fill-opacity="0.200000" stroke="#000000" stroke-width="2" stroke-opacity="0.200000" points="345.56,-50.06 349.46,-58.16 341.36,-54.26 345.56,-50.06"/>
</g>
<!-- src/services/StorageController/index.ts -->
<g id="node10" class="node">
<title>src/services/StorageController/index.ts</title>
<g id="a_node10"><a xlink:href="src/services/StorageController/index.ts" xlink:title="index.ts">
<path fill="#ddfeff" stroke="black" d="M486.58,-125.62C486.58,-125.62 445.42,-125.62 445.42,-125.62 442.21,-125.62 439,-122.42 439,-119.21 439,-119.21 439,-112.79 439,-112.79 439,-109.58 442.21,-106.38 445.42,-106.38 445.42,-106.38 486.58,-106.38 486.58,-106.38 489.79,-106.38 493,-109.58 493,-112.79 493,-112.79 493,-119.21 493,-119.21 493,-122.42 489.79,-125.62 486.58,-125.62"/>
<text text-anchor="start" x="450.25" y="-113.08" font-family="Helvetica,sans-Serif" font-size="9.00">index.ts</text>
</a>
</g>
</g>
<!-- src/services/index.ts&#45;&gt;src/services/StorageController/index.ts -->
<g id="edge15" class="edge">
<title>src/services/index.ts&#45;&gt;src/services/StorageController/index.ts</title>
<path fill="none" stroke="#000000" stroke-width="2" stroke-opacity="0.200000" d="M309.4,-88.01C334.7,-87.6 373.82,-88.35 442.03,-105.89"/>
<polygon fill="#000000" fill-opacity="0.200000" stroke="#000000" stroke-width="2" stroke-opacity="0.200000" points="444.84,-104.5 448.74,-112.6 440.64,-108.7 444.84,-104.5"/>
</g>
<!-- src/services/VideoParsers/index.ts -->
<g id="node15" class="node">
<title>src/services/VideoParsers/index.ts</title>
<g id="a_node15"><a xlink:href="src/services/VideoParsers/index.ts" xlink:title="index.ts">
<path fill="#ddfeff" stroke="black" d="M390.58,-125.62C390.58,-125.62 349.42,-125.62 349.42,-125.62 346.21,-125.62 343,-122.42 343,-119.21 343,-119.21 343,-112.79 343,-112.79 343,-109.58 346.21,-106.38 349.42,-106.38 349.42,-106.38 390.58,-106.38 390.58,-106.38 393.79,-106.38 397,-109.58 397,-112.79 397,-112.79 397,-119.21 397,-119.21 397,-122.42 393.79,-125.62 390.58,-125.62"/>
<text text-anchor="start" x="354.25" y="-113.08" font-family="Helvetica,sans-Serif" font-size="9.00">index.ts</text>
</a>
</g>
</g>
<!-- src/services/index.ts&#45;&gt;src/services/VideoParsers/index.ts -->
<g id="edge16" class="edge">
<title>src/services/index.ts&#45;&gt;src/services/VideoParsers/index.ts</title>
<path fill="none" stroke="#000000" stroke-width="2" stroke-opacity="0.200000" d="M309.27,-97.25C319.84,-100.57 332.01,-104.39 342.59,-107.71"/>
<polygon fill="#000000" fill-opacity="0.200000" stroke="#000000" stroke-width="2" stroke-opacity="0.200000" points="345.4,-106.32 349.3,-114.42 341.2,-110.52 345.4,-106.32"/>
</g>
<!-- src/components/inputs/FolderSelector.vue -->
<g id="node3" class="node">
<title>src/components/inputs/FolderSelector.vue</title>
<g id="a_node3"><a xlink:href="src/components/inputs/FolderSelector.vue" xlink:title="FolderSelector.vue">
<path fill="#41f083" stroke="black" d="M118.08,-127.62C118.08,-127.62 38.42,-127.62 38.42,-127.62 35.21,-127.62 32,-124.42 32,-121.21 32,-121.21 32,-114.79 32,-114.79 32,-111.58 35.21,-108.38 38.42,-108.38 38.42,-108.38 118.08,-108.38 118.08,-108.38 121.29,-108.38 124.5,-111.58 124.5,-114.79 124.5,-114.79 124.5,-121.21 124.5,-121.21 124.5,-124.42 121.29,-127.62 118.08,-127.62"/>
<text text-anchor="start" x="40" y="-115.08" font-family="Helvetica,sans-Serif" font-size="9.00">FolderSelector.vue</text>
</a>
</g>
</g>
<!-- src/components/inputs/FolderSelector.vue&#45;&gt;src/services/index.ts -->
<g id="edge2" class="edge">
<title>src/components/inputs/FolderSelector.vue&#45;&gt;src/services/index.ts</title>
<path fill="none" stroke="#000000" stroke-width="2" stroke-opacity="0.200000" d="M123.77,-107.94C129.4,-106.63 135.09,-105.29 140.5,-104 144.06,-103.15 144.89,-102.63 148.5,-102 181.3,-96.32 219.13,-92.92 245.95,-91.03"/>
<polygon fill="#000000" fill-opacity="0.200000" stroke="#000000" stroke-width="2" stroke-opacity="0.200000" points="246.09,-93.12 251.93,-90.62 245.8,-88.93 246.09,-93.12"/>
</g>
<!-- src/stores/videosStore.ts -->
<g id="node4" class="node">
<title>src/stores/videosStore.ts</title>
<g id="a_node4"><a xlink:href="src/stores/videosStore.ts" xlink:title="videosStore.ts">
<path fill="#ddfeff" stroke="black" d="M224.58,-132.62C224.58,-132.62 162.92,-132.62 162.92,-132.62 159.71,-132.62 156.5,-129.42 156.5,-126.21 156.5,-126.21 156.5,-119.79 156.5,-119.79 156.5,-116.58 159.71,-113.38 162.92,-113.38 162.92,-113.38 224.58,-113.38 224.58,-113.38 227.79,-113.38 231,-116.58 231,-119.79 231,-119.79 231,-126.21 231,-126.21 231,-129.42 227.79,-132.62 224.58,-132.62"/>
<text text-anchor="start" x="164.5" y="-120.08" font-family="Helvetica,sans-Serif" font-size="9.00">videosStore.ts</text>
</a>
</g>
</g>
<!-- src/components/inputs/FolderSelector.vue&#45;&gt;src/stores/videosStore.ts -->
<g id="edge3" class="edge">
<title>src/components/inputs/FolderSelector.vue&#45;&gt;src/stores/videosStore.ts</title>
<path fill="none" stroke="#000000" stroke-width="2" stroke-opacity="0.200000" d="M124.76,-120C132.3,-120.34 140.11,-120.68 147.63,-121.01"/>
<polygon fill="#000000" fill-opacity="0.200000" stroke="#000000" stroke-width="2" stroke-opacity="0.200000" points="147.19,-123.1 153.28,-121.26 147.38,-118.9 147.19,-123.1"/>
</g>
<!-- src/stores/videosStore.ts&#45;&gt;src/services/index.ts -->
<g id="edge17" class="edge">
<title>src/stores/videosStore.ts&#45;&gt;src/services/index.ts</title>
<path fill="none" stroke="#000000" stroke-width="2" stroke-opacity="0.200000" d="M220.16,-112.98C228.6,-109.66 238.13,-105.9 247.1,-102.36"/>
<polygon fill="#000000" fill-opacity="0.200000" stroke="#000000" stroke-width="2" stroke-opacity="0.200000" points="247.84,-104.33 252.66,-100.17 246.3,-100.42 247.84,-104.33"/>
</g>
<!-- src/main.ts -->
<g id="node5" class="node">
<title>src/main.ts</title>
<g id="a_node5"><a xlink:href="src/main.ts" xlink:title="main.ts">
<path fill="#ddfeff" stroke="black" d="M214.33,-68.62C214.33,-68.62 173.17,-68.62 173.17,-68.62 169.96,-68.62 166.75,-65.42 166.75,-62.21 166.75,-62.21 166.75,-55.79 166.75,-55.79 166.75,-52.58 169.96,-49.38 173.17,-49.38 173.17,-49.38 214.33,-49.38 214.33,-49.38 217.54,-49.38 220.75,-52.58 220.75,-55.79 220.75,-55.79 220.75,-62.21 220.75,-62.21 220.75,-65.42 217.54,-68.62 214.33,-68.62"/>
<text text-anchor="start" x="178.38" y="-56.08" font-family="Helvetica,sans-Serif" font-size="9.00">main.ts</text>
</a>
</g>
</g>
<!-- src/main.ts&#45;&gt;src/services/index.ts -->
<g id="edge4" class="edge">
<title>src/main.ts&#45;&gt;src/services/index.ts</title>
<path fill="none" stroke="#000000" stroke-width="2" stroke-opacity="0.200000" d="M221.1,-68.16C228.96,-70.9 237.72,-73.94 246.05,-76.84"/>
<polygon fill="#000000" fill-opacity="0.200000" stroke="#000000" stroke-width="2" stroke-opacity="0.200000" points="245.3,-78.81 251.66,-78.79 246.68,-74.84 245.3,-78.81"/>
</g>
<!-- src/services/Filters/Filters.ts -->
<g id="node6" class="node">
<title>src/services/Filters/Filters.ts</title>
<g id="a_node6"><a xlink:href="src/services/Filters/Filters.ts" xlink:title="Filters.ts">
<path fill="#ddfeff" stroke="black" d="M486.58,-51.62C486.58,-51.62 445.42,-51.62 445.42,-51.62 442.21,-51.62 439,-48.42 439,-45.21 439,-45.21 439,-38.79 439,-38.79 439,-35.58 442.21,-32.38 445.42,-32.38 445.42,-32.38 486.58,-32.38 486.58,-32.38 489.79,-32.38 493,-35.58 493,-38.79 493,-38.79 493,-45.21 493,-45.21 493,-48.42 489.79,-51.62 486.58,-51.62"/>
<text text-anchor="start" x="448.38" y="-39.08" font-family="Helvetica,sans-Serif" font-size="9.00">Filters.ts</text>
</a>
</g>
</g>
<!-- src/services/Filters/index.ts&#45;&gt;src/services/Filters/Filters.ts -->
<g id="edge5" class="edge">
<title>src/services/Filters/index.ts&#45;&gt;src/services/Filters/Filters.ts</title>
<path fill="none" stroke="#000000" stroke-width="2" stroke-opacity="0.200000" d="M397.43,-42C410.36,-42 425.87,-42 438.76,-42"/>
<polygon fill="#000000" fill-opacity="0.200000" stroke="#000000" stroke-width="2" stroke-opacity="0.200000" points="441.57,-40.61 445.47,-48.71 437.37,-44.81 441.57,-40.61"/>
</g>
<!-- src/services/StorageController/VideoMetadataController.ts -->
<g id="node8" class="node">
<title>src/services/StorageController/VideoMetadataController.ts</title>
<g id="a_node8"><a xlink:href="src/services/StorageController/VideoMetadataController.ts" xlink:title="VideoMetadataController.ts">
<path fill="#ddfeff" stroke="black" d="M629.58,-128.62C629.58,-128.62 515.42,-128.62 515.42,-128.62 512.21,-128.62 509,-125.42 509,-122.21 509,-122.21 509,-115.79 509,-115.79 509,-112.58 512.21,-109.38 515.42,-109.38 515.42,-109.38 629.58,-109.38 629.58,-109.38 632.79,-109.38 636,-112.58 636,-115.79 636,-115.79 636,-122.21 636,-122.21 636,-125.42 632.79,-128.62 629.58,-128.62"/>
<text text-anchor="start" x="517" y="-116.08" font-family="Helvetica,sans-Serif" font-size="9.00">VideoMetadataController.ts</text>
</a>
</g>
</g>
<!-- src/services/StorageController/migrations/index.ts -->
<g id="node9" class="node">
<title>src/services/StorageController/migrations/index.ts</title>
<g id="a_node9"><a xlink:href="src/services/StorageController/migrations/index.ts" xlink:title="index.ts">
<path fill="#ddfeff" stroke="black" d="M699.58,-129.62C699.58,-129.62 658.42,-129.62 658.42,-129.62 655.21,-129.62 652,-126.42 652,-123.21 652,-123.21 652,-116.79 652,-116.79 652,-113.58 655.21,-110.38 658.42,-110.38 658.42,-110.38 699.58,-110.38 699.58,-110.38 702.79,-110.38 706,-113.58 706,-116.79 706,-116.79 706,-123.21 706,-123.21 706,-126.42 702.79,-129.62 699.58,-129.62"/>
<text text-anchor="start" x="663.25" y="-117.08" font-family="Helvetica,sans-Serif" font-size="9.00">index.ts</text>
</a>
</g>
</g>
<!-- src/services/StorageController/VideoMetadataController.ts&#45;&gt;src/services/StorageController/migrations/index.ts -->
<g id="edge6" class="edge">
<title>src/services/StorageController/VideoMetadataController.ts&#45;&gt;src/services/StorageController/migrations/index.ts</title>
<path fill="none" stroke="#000000" stroke-width="2" stroke-opacity="0.200000" d="M636.4,-119.6C638.58,-119.62 640.73,-119.64 642.84,-119.66"/>
<polygon fill="#000000" fill-opacity="0.200000" stroke="#000000" stroke-width="2" stroke-opacity="0.200000" points="642.72,-121.76 648.74,-119.72 642.76,-117.56 642.72,-121.76"/>
</g>
<!-- src/services/StorageController/migrations/migrations.ts -->
<g id="node11" class="node">
<title>src/services/StorageController/migrations/migrations.ts</title>
<g id="a_node11"><a xlink:href="src/services/StorageController/migrations/migrations.ts" xlink:title="migrations.ts">
<path fill="#ddfeff" stroke="black" d="M782.58,-130.62C782.58,-130.62 725.42,-130.62 725.42,-130.62 722.21,-130.62 719,-127.42 719,-124.21 719,-124.21 719,-117.79 719,-117.79 719,-114.58 722.21,-111.38 725.42,-111.38 725.42,-111.38 782.58,-111.38 782.58,-111.38 785.79,-111.38 789,-114.58 789,-117.79 789,-117.79 789,-124.21 789,-124.21 789,-127.42 785.79,-130.62 782.58,-130.62"/>
<text text-anchor="start" x="727" y="-118.08" font-family="Helvetica,sans-Serif" font-size="9.00">migrations.ts</text>
</a>
</g>
</g>
<!-- src/services/StorageController/migrations/index.ts&#45;&gt;src/services/StorageController/migrations/migrations.ts -->
<g id="edge8" class="edge">
<title>src/services/StorageController/migrations/index.ts&#45;&gt;src/services/StorageController/migrations/migrations.ts</title>
<path fill="none" stroke="#000000" stroke-width="2" stroke-opacity="0.200000" d="M706.35,-120.36C710.36,-120.42 714.54,-120.47 718.68,-120.53"/>
<polygon fill="#000000" fill-opacity="0.200000" stroke="#000000" stroke-width="2" stroke-opacity="0.200000" points="721.48,-119.14 725.38,-127.24 717.28,-123.34 721.48,-119.14"/>
</g>
<!-- src/services/StorageController/index.ts&#45;&gt;src/services/StorageController/VideoMetadataController.ts -->
<g id="edge7" class="edge">
<title>src/services/StorageController/index.ts&#45;&gt;src/services/StorageController/VideoMetadataController.ts</title>
<path fill="none" stroke="#000000" stroke-width="2" stroke-opacity="0.200000" d="M493.37,-116.76C495.49,-116.82 497.68,-116.88 499.93,-116.95"/>
<polygon fill="#000000" fill-opacity="0.200000" stroke="#000000" stroke-width="2" stroke-opacity="0.200000" points="499.74,-119.04 505.8,-117.11 499.86,-114.84 499.74,-119.04"/>
</g>
<!-- src/services/StorageController/migrations/v1/index.ts -->
<g id="node12" class="node">
<title>src/services/StorageController/migrations/v1/index.ts</title>
<g id="a_node12"><a xlink:href="src/services/StorageController/migrations/v1/index.ts" xlink:title="index.ts">
<path fill="#ddfeff" stroke="black" d="M852.58,-130.62C852.58,-130.62 811.42,-130.62 811.42,-130.62 808.21,-130.62 805,-127.42 805,-124.21 805,-124.21 805,-117.79 805,-117.79 805,-114.58 808.21,-111.38 811.42,-111.38 811.42,-111.38 852.58,-111.38 852.58,-111.38 855.79,-111.38 859,-114.58 859,-117.79 859,-117.79 859,-124.21 859,-124.21 859,-127.42 855.79,-130.62 852.58,-130.62"/>
<text text-anchor="start" x="816.25" y="-118.08" font-family="Helvetica,sans-Serif" font-size="9.00">index.ts</text>
</a>
</g>
</g>
<!-- src/services/StorageController/migrations/migrations.ts&#45;&gt;src/services/StorageController/migrations/v1/index.ts -->
<g id="edge9" class="edge">
<title>src/services/StorageController/migrations/migrations.ts&#45;&gt;src/services/StorageController/migrations/v1/index.ts</title>
<path fill="none" stroke="#000000" stroke-width="2" stroke-opacity="0.200000" d="M789.44,-121C791.71,-121 794,-121 796.26,-121"/>
<polygon fill="#000000" fill-opacity="0.200000" stroke="#000000" stroke-width="2" stroke-opacity="0.200000" points="795.84,-123.1 801.84,-121 795.84,-118.9 795.84,-123.1"/>
</g>
<!-- src/services/StorageController/migrations/v2/index.ts -->
<g id="node13" class="node">
<title>src/services/StorageController/migrations/v2/index.ts</title>
<g id="a_node13"><a xlink:href="src/services/StorageController/migrations/v2/index.ts" xlink:title="index.ts">
<path fill="#ddfeff" stroke="black" d="M852.58,-193.62C852.58,-193.62 811.42,-193.62 811.42,-193.62 808.21,-193.62 805,-190.42 805,-187.21 805,-187.21 805,-180.79 805,-180.79 805,-177.58 808.21,-174.38 811.42,-174.38 811.42,-174.38 852.58,-174.38 852.58,-174.38 855.79,-174.38 859,-177.58 859,-180.79 859,-180.79 859,-187.21 859,-187.21 859,-190.42 855.79,-193.62 852.58,-193.62"/>
<text text-anchor="start" x="816.25" y="-181.07" font-family="Helvetica,sans-Serif" font-size="9.00">index.ts</text>
</a>
</g>
</g>
<!-- src/services/StorageController/migrations/migrations.ts&#45;&gt;src/services/StorageController/migrations/v2/index.ts -->
<g id="edge10" class="edge">
<title>src/services/StorageController/migrations/migrations.ts&#45;&gt;src/services/StorageController/migrations/v2/index.ts</title>
<path fill="none" stroke="#000000" stroke-width="2" stroke-opacity="0.200000" d="M764.59,-131.02C772.84,-139.42 785.24,-151.53 797,-161 800.36,-163.71 804.04,-166.42 807.69,-168.99"/>
<polygon fill="#000000" fill-opacity="0.200000" stroke="#000000" stroke-width="2" stroke-opacity="0.200000" points="806.4,-170.65 812.54,-172.29 808.76,-167.18 806.4,-170.65"/>
</g>
<!-- src/services/StorageController/migrations/utils/index.ts -->
<g id="node14" class="node">
<title>src/services/StorageController/migrations/utils/index.ts</title>
<g id="a_node14"><a xlink:href="src/services/StorageController/migrations/utils/index.ts" xlink:title="index.ts">
<path fill="#ddfeff" stroke="black" d="M930.58,-161.62C930.58,-161.62 889.42,-161.62 889.42,-161.62 886.21,-161.62 883,-158.42 883,-155.21 883,-155.21 883,-148.79 883,-148.79 883,-145.58 886.21,-142.38 889.42,-142.38 889.42,-142.38 930.58,-142.38 930.58,-142.38 933.79,-142.38 937,-145.58 937,-148.79 937,-148.79 937,-155.21 937,-155.21 937,-158.42 933.79,-161.62 930.58,-161.62"/>
<text text-anchor="start" x="894.25" y="-149.07" font-family="Helvetica,sans-Serif" font-size="9.00">index.ts</text>
</a>
</g>
</g>
<!-- src/services/StorageController/migrations/v1/index.ts&#45;&gt;src/services/StorageController/migrations/utils/index.ts -->
<g id="edge11" class="edge">
<title>src/services/StorageController/migrations/v1/index.ts&#45;&gt;src/services/StorageController/migrations/utils/index.ts</title>
<path fill="none" stroke="#000000" stroke-width="2" stroke-opacity="0.200000" d="M857.47,-130.98C863.37,-133.39 869.78,-136 876.01,-138.54"/>
<polygon fill="#000000" fill-opacity="0.200000" stroke="#000000" stroke-width="2" stroke-opacity="0.200000" points="875.17,-140.47 881.52,-140.79 876.75,-136.58 875.17,-140.47"/>
</g>
<!-- src/services/StorageController/migrations/v2/index.ts&#45;&gt;src/services/StorageController/migrations/utils/index.ts -->
<g id="edge12" class="edge">
<title>src/services/StorageController/migrations/v2/index.ts&#45;&gt;src/services/StorageController/migrations/utils/index.ts</title>
<path fill="none" stroke="#000000" stroke-width="2" stroke-opacity="0.200000" d="M857.05,-173.88C863.35,-171.22 870.24,-168.32 876.89,-165.52"/>
<polygon fill="#000000" fill-opacity="0.200000" stroke="#000000" stroke-width="2" stroke-opacity="0.200000" points="877.6,-167.5 882.32,-163.23 875.97,-163.63 877.6,-167.5"/>
</g>
<!-- src/services/VideoParsers/index.ts&#45;&gt;src/services/StorageController/index.ts -->
<g id="edge13" class="edge">
<title>src/services/VideoParsers/index.ts&#45;&gt;src/services/StorageController/index.ts</title>
<path fill="none" stroke="#000000" stroke-width="2" stroke-opacity="0.200000" d="M397.43,-116C407.53,-116 419.21,-116 429.98,-116"/>
<polygon fill="#000000" fill-opacity="0.200000" stroke="#000000" stroke-width="2" stroke-opacity="0.200000" points="429.74,-118.1 435.74,-116 429.74,-113.9 429.74,-118.1"/>
</g>
</g>
</svg>
