<?xml version="1.0" encoding="UTF-8" standalone="no"?>
<!DOCTYPE svg PUBLIC "-//W3C//DTD SVG 1.1//EN"
 "http://www.w3.org/Graphics/SVG/1.1/DTD/svg11.dtd">
<!-- Generated by graphviz version 9.0.0 (20230911.1827)
 -->
<!-- Title: dependency&#45;cruiser output Pages: 1 -->
<svg width="1198pt" height="539pt"
 viewBox="0.00 0.00 1198.00 539.00" xmlns="http://www.w3.org/2000/svg" xmlns:xlink="http://www.w3.org/1999/xlink">
<g id="graph0" class="graph" transform="scale(1 1) rotate(0) translate(4 535)">
<title>dependency&#45;cruiser output</title>
<polygon fill="white" stroke="none" points="-4,4 -4,-535 1194,-535 1194,4 -4,4"/>
<g id="clust1" class="cluster">
<title>cluster_src</title>
<path fill="#ffffff" stroke="black" stroke-width="2" d="M20,-8C20,-8 1170,-8 1170,-8 1176,-8 1182,-14 1182,-20 1182,-20 1182,-511 1182,-511 1182,-517 1176,-523 1170,-523 1170,-523 20,-523 20,-523 14,-523 8,-517 8,-511 8,-511 8,-20 8,-20 8,-14 14,-8 20,-8"/>
<text text-anchor="middle" x="595" y="-510.45" font-family="Helvetica,sans-Serif" font-weight="bold" font-size="9.00">src</text>
</g>
<g id="clust2" class="cluster">
<title>cluster_src/components</title>
<path fill="#ffffff" stroke="black" stroke-width="2" d="M28,-48C28,-48 128.5,-48 128.5,-48 134.5,-48 140.5,-54 140.5,-60 140.5,-60 140.5,-154 140.5,-154 140.5,-160 134.5,-166 128.5,-166 128.5,-166 28,-166 28,-166 22,-166 16,-160 16,-154 16,-154 16,-60 16,-60 16,-54 22,-48 28,-48"/>
<text text-anchor="middle" x="78.25" y="-153.45" font-family="Helvetica,sans-Serif" font-weight="bold" font-size="9.00">components</text>
</g>
<g id="clust3" class="cluster">
<title>cluster_src/components/inputs</title>
<path fill="#ffffff" stroke="black" stroke-width="2" d="M36,-84C36,-84 120.5,-84 120.5,-84 126.5,-84 132.5,-90 132.5,-96 132.5,-96 132.5,-127 132.5,-127 132.5,-133 126.5,-139 120.5,-139 120.5,-139 36,-139 36,-139 30,-139 24,-133 24,-127 24,-127 24,-96 24,-96 24,-90 30,-84 36,-84"/>
<text text-anchor="middle" x="78.25" y="-126.45" font-family="Helvetica,sans-Serif" font-weight="bold" font-size="9.00">inputs</text>
</g>
<g id="clust4" class="cluster">
<title>cluster_src/services</title>
<path fill="#ffffff" stroke="black" stroke-width="2" d="M259,-16C259,-16 1162,-16 1162,-16 1168,-16 1174,-22 1174,-28 1174,-28 1174,-484 1174,-484 1174,-490 1168,-496 1162,-496 1162,-496 259,-496 259,-496 253,-496 247,-490 247,-484 247,-484 247,-28 247,-28 247,-22 253,-16 259,-16"/>
<text text-anchor="middle" x="710.5" y="-483.45" font-family="Helvetica,sans-Serif" font-weight="bold" font-size="9.00">services</text>
</g>
<g id="clust6" class="cluster">
<title>cluster_src/services/StorageController</title>
<path fill="#ffffff" stroke="black" stroke-width="2" d="M443,-87C443,-87 1154,-87 1154,-87 1160,-87 1166,-93 1166,-99 1166,-99 1166,-457 1166,-457 1166,-463 1160,-469 1154,-469 1154,-469 443,-469 443,-469 437,-469 431,-463 431,-457 431,-457 431,-99 431,-99 431,-93 437,-87 443,-87"/>
<text text-anchor="middle" x="798.5" y="-456.45" font-family="Helvetica,sans-Serif" font-weight="bold" font-size="9.00">StorageController</text>
</g>
<g id="clust7" class="cluster">
<title>cluster_src/services/StorageController/domain</title>
<path fill="#ffffff" stroke="black" stroke-width="2" d="M941,-97C941,-97 1146,-97 1146,-97 1152,-97 1158,-103 1158,-109 1158,-109 1158,-269 1158,-269 1158,-275 1152,-281 1146,-281 1146,-281 941,-281 941,-281 935,-281 929,-275 929,-269 929,-269 929,-109 929,-109 929,-103 935,-97 941,-97"/>
<text text-anchor="middle" x="1043.5" y="-268.45" font-family="Helvetica,sans-Serif" font-weight="bold" font-size="9.00">domain</text>
</g>
<g id="clust9" class="cluster">
<title>cluster_src/services/StorageController/domain/entities</title>
<path fill="#ffffff" stroke="black" stroke-width="2" d="M1082.75,-168C1082.75,-168 1138,-168 1138,-168 1144,-168 1150,-174 1150,-180 1150,-180 1150,-242 1150,-242 1150,-248 1144,-254 1138,-254 1138,-254 1082.75,-254 1082.75,-254 1076.75,-254 1070.75,-248 1070.75,-242 1070.75,-242 1070.75,-180 1070.75,-180 1070.75,-174 1076.75,-168 1082.75,-168"/>
<text text-anchor="middle" x="1110.38" y="-241.45" font-family="Helvetica,sans-Serif" font-weight="bold" font-size="9.00">entities</text>
</g>
<g id="clust8" class="cluster">
<title>cluster_src/services/StorageController/domain/constants</title>
<path fill="#ffffff" stroke="black" stroke-width="2" d="M976.88,-105C976.88,-105 1022.88,-105 1022.88,-105 1028.88,-105 1034.88,-111 1034.88,-117 1034.88,-117 1034.88,-148 1034.88,-148 1034.88,-154 1028.88,-160 1022.88,-160 1022.88,-160 976.88,-160 976.88,-160 970.88,-160 964.88,-154 964.88,-148 964.88,-148 964.88,-117 964.88,-117 964.88,-111 970.88,-105 976.88,-105"/>
<text text-anchor="middle" x="999.88" y="-147.45" font-family="Helvetica,sans-Serif" font-weight="bold" font-size="9.00">constants</text>
</g>
<g id="clust10" class="cluster">
<title>cluster_src/services/StorageController/domain/repositories</title>
<path fill="#ffffff" stroke="black" stroke-width="2" d="M949,-168C949,-168 1050.75,-168 1050.75,-168 1056.75,-168 1062.75,-174 1062.75,-180 1062.75,-180 1062.75,-242 1062.75,-242 1062.75,-248 1056.75,-254 1050.75,-254 1050.75,-254 949,-254 949,-254 943,-254 937,-248 937,-242 937,-242 937,-180 937,-180 937,-174 943,-168 949,-168"/>
<text text-anchor="middle" x="999.88" y="-241.45" font-family="Helvetica,sans-Serif" font-weight="bold" font-size="9.00">repositories</text>
</g>
<g id="clust14" class="cluster">
<title>cluster_src/services/StorageController/migrations</title>
<path fill="#ffffff" stroke="black" stroke-width="2" d="M690.75,-289C690.75,-289 1141.38,-289 1141.38,-289 1147.38,-289 1153.38,-295 1153.38,-301 1153.38,-301 1153.38,-430 1153.38,-430 1153.38,-436 1147.38,-442 1141.38,-442 1141.38,-442 690.75,-442 690.75,-442 684.75,-442 678.75,-436 678.75,-430 678.75,-430 678.75,-301 678.75,-301 678.75,-295 684.75,-289 690.75,-289"/>
<text text-anchor="middle" x="916.06" y="-429.45" font-family="Helvetica,sans-Serif" font-weight="bold" font-size="9.00">migrations</text>
</g>
<g id="clust17" class="cluster">
<title>cluster_src/services/StorageController/migrations/v2</title>
<path fill="#ffffff" stroke="black" stroke-width="2" d="M976.88,-360C976.88,-360 1022.88,-360 1022.88,-360 1028.88,-360 1034.88,-366 1034.88,-372 1034.88,-372 1034.88,-403 1034.88,-403 1034.88,-409 1028.88,-415 1022.88,-415 1022.88,-415 976.88,-415 976.88,-415 970.88,-415 964.88,-409 964.88,-403 964.88,-403 964.88,-372 964.88,-372 964.88,-366 970.88,-360 976.88,-360"/>
<text text-anchor="middle" x="999.88" y="-402.45" font-family="Helvetica,sans-Serif" font-weight="bold" font-size="9.00">v2</text>
</g>
<g id="clust16" class="cluster">
<title>cluster_src/services/StorageController/migrations/v1</title>
<path fill="#ffffff" stroke="black" stroke-width="2" d="M976.88,-297C976.88,-297 1022.88,-297 1022.88,-297 1028.88,-297 1034.88,-303 1034.88,-309 1034.88,-309 1034.88,-340 1034.88,-340 1034.88,-346 1028.88,-352 1022.88,-352 1022.88,-352 976.88,-352 976.88,-352 970.88,-352 964.88,-346 964.88,-340 964.88,-340 964.88,-309 964.88,-309 964.88,-303 970.88,-297 976.88,-297"/>
<text text-anchor="middle" x="999.88" y="-339.45" font-family="Helvetica,sans-Serif" font-weight="bold" font-size="9.00">v1</text>
</g>
<g id="clust15" class="cluster">
<title>cluster_src/services/StorageController/migrations/utils</title>
<path fill="#ffffff" stroke="black" stroke-width="2" d="M1087.38,-328C1087.38,-328 1133.38,-328 1133.38,-328 1139.38,-328 1145.38,-334 1145.38,-340 1145.38,-340 1145.38,-371 1145.38,-371 1145.38,-377 1139.38,-383 1133.38,-383 1133.38,-383 1087.38,-383 1087.38,-383 1081.38,-383 1075.38,-377 1075.38,-371 1075.38,-371 1075.38,-340 1075.38,-340 1075.38,-334 1081.38,-328 1087.38,-328"/>
<text text-anchor="middle" x="1110.38" y="-370.45" font-family="Helvetica,sans-Serif" font-weight="bold" font-size="9.00">utils</text>
</g>
<g id="clust11" class="cluster">
<title>cluster_src/services/StorageController/infrastructure</title>
<path fill="#ffffff" stroke="black" stroke-width="2" d="M656,-97C656,-97 909,-97 909,-97 915,-97 921,-103 921,-109 921,-109 921,-206 921,-206 921,-212 915,-218 909,-218 909,-218 656,-218 656,-218 650,-218 644,-212 644,-206 644,-206 644,-109 644,-109 644,-103 650,-97 656,-97"/>
<text text-anchor="middle" x="782.5" y="-205.45" font-family="Helvetica,sans-Serif" font-weight="bold" font-size="9.00">infrastructure</text>
</g>
<g id="clust13" class="cluster">
<title>cluster_src/services/StorageController/infrastructure/repository</title>
<path fill="#ffffff" stroke="black" stroke-width="2" d="M664,-105C664,-105 763.5,-105 763.5,-105 769.5,-105 775.5,-111 775.5,-117 775.5,-117 775.5,-179 775.5,-179 775.5,-185 769.5,-191 763.5,-191 763.5,-191 664,-191 664,-191 658,-191 652,-185 652,-179 652,-179 652,-117 652,-117 652,-111 658,-105 664,-105"/>
<text text-anchor="middle" x="713.75" y="-178.45" font-family="Helvetica,sans-Serif" font-weight="bold" font-size="9.00">repository</text>
</g>
<g id="clust12" class="cluster">
<title>cluster_src/services/StorageController/infrastructure/database</title>
<path fill="#ffffff" stroke="black" stroke-width="2" d="M795.5,-105C795.5,-105 901,-105 901,-105 907,-105 913,-111 913,-117 913,-117 913,-148 913,-148 913,-154 907,-160 901,-160 901,-160 795.5,-160 795.5,-160 789.5,-160 783.5,-154 783.5,-148 783.5,-148 783.5,-117 783.5,-117 783.5,-111 789.5,-105 795.5,-105"/>
<text text-anchor="middle" x="848.25" y="-147.45" font-family="Helvetica,sans-Serif" font-weight="bold" font-size="9.00">database</text>
</g>
<g id="clust5" class="cluster">
<title>cluster_src/services/Filters</title>
<path fill="#ffffff" stroke="black" stroke-width="2" d="M347,-24C347,-24 489,-24 489,-24 495,-24 501,-30 501,-36 501,-36 501,-67 501,-67 501,-73 495,-79 489,-79 489,-79 347,-79 347,-79 341,-79 335,-73 335,-67 335,-67 335,-36 335,-36 335,-30 341,-24 347,-24"/>
<text text-anchor="middle" x="418" y="-66.45" font-family="Helvetica,sans-Serif" font-weight="bold" font-size="9.00">Filters</text>
</g>
<g id="clust18" class="cluster">
<title>cluster_src/services/VideoParsers</title>
<path fill="#ffffff" stroke="black" stroke-width="2" d="M345,-101C345,-101 395,-101 395,-101 401,-101 407,-107 407,-113 407,-113 407,-144 407,-144 407,-150 401,-156 395,-156 395,-156 345,-156 345,-156 339,-156 333,-150 333,-144 333,-144 333,-113 333,-113 333,-107 339,-101 345,-101"/>
<text text-anchor="middle" x="370" y="-143.45" font-family="Helvetica,sans-Serif" font-weight="bold" font-size="9.00">VideoParsers</text>
</g>
<g id="clust19" class="cluster">
<title>cluster_src/stores</title>
<path fill="#ffffff" stroke="black" stroke-width="2" d="M160.5,-121C160.5,-121 227,-121 227,-121 233,-121 239,-127 239,-133 239,-133 239,-164 239,-164 239,-170 233,-176 227,-176 227,-176 160.5,-176 160.5,-176 154.5,-176 148.5,-170 148.5,-164 148.5,-164 148.5,-133 148.5,-133 148.5,-127 154.5,-121 160.5,-121"/>
<text text-anchor="middle" x="193.75" y="-163.45" font-family="Helvetica,sans-Serif" font-weight="bold" font-size="9.00">stores</text>
</g>
<!-- src/components/VideoCard.vue -->
<g id="node1" class="node">
<title>src/components/VideoCard.vue</title>
<g id="a_node1"><a xlink:href="src/components/VideoCard.vue" xlink:title="VideoCard.vue">
<path fill="#41f083" stroke="black" d="M109.83,-75.62C109.83,-75.62 46.67,-75.62 46.67,-75.62 43.46,-75.62 40.25,-72.42 40.25,-69.21 40.25,-69.21 40.25,-62.79 40.25,-62.79 40.25,-59.58 43.46,-56.38 46.67,-56.38 46.67,-56.38 109.83,-56.38 109.83,-56.38 113.04,-56.38 116.25,-59.58 116.25,-62.79 116.25,-62.79 116.25,-69.21 116.25,-69.21 116.25,-72.42 113.04,-75.62 109.83,-75.62"/>
<text text-anchor="start" x="48.25" y="-63.08" font-family="Helvetica,sans-Serif" font-size="9.00">VideoCard.vue</text>
</a>
</g>
</g>
<!-- src/services/index.ts -->
<g id="node2" class="node">
<title>src/services/index.ts</title>
<g id="a_node2"><a xlink:href="src/services/index.ts" xlink:title="index.ts">
<path fill="#ddfeff" stroke="black" d="M302.58,-101.62C302.58,-101.62 261.42,-101.62 261.42,-101.62 258.21,-101.62 255,-98.42 255,-95.21 255,-95.21 255,-88.79 255,-88.79 255,-85.58 258.21,-82.38 261.42,-82.38 261.42,-82.38 302.58,-82.38 302.58,-82.38 305.79,-82.38 309,-85.58 309,-88.79 309,-88.79 309,-95.21 309,-95.21 309,-98.42 305.79,-101.62 302.58,-101.62"/>
<text text-anchor="start" x="266.25" y="-89.08" font-family="Helvetica,sans-Serif" font-size="9.00">index.ts</text>
</a>
</g>
</g>
<!-- src/components/VideoCard.vue&#45;&gt;src/services/index.ts -->
<g id="edge1" class="edge">
<title>src/components/VideoCard.vue&#45;&gt;src/services/index.ts</title>
<path fill="none" stroke="#000000" stroke-width="2" stroke-opacity="0.200000" d="M116.44,-65.69C149.07,-66.1 197.64,-68.36 239,-77 241.97,-77.62 245.02,-78.4 248.04,-79.28"/>
<polygon fill="#000000" fill-opacity="0.200000" stroke="#000000" stroke-width="2" stroke-opacity="0.200000" points="247.21,-81.22 253.57,-81.04 248.49,-77.22 247.21,-81.22"/>
</g>
<!-- src/services/Filters/index.ts -->
<g id="node7" class="node">
<title>src/services/Filters/index.ts</title>
<g id="a_node7"><a xlink:href="src/services/Filters/index.ts" xlink:title="index.ts">
<path fill="#ddfeff" stroke="black" d="M390.58,-51.62C390.58,-51.62 349.42,-51.62 349.42,-51.62 346.21,-51.62 343,-48.42 343,-45.21 343,-45.21 343,-38.79 343,-38.79 343,-35.58 346.21,-32.38 349.42,-32.38 349.42,-32.38 390.58,-32.38 390.58,-32.38 393.79,-32.38 397,-35.58 397,-38.79 397,-38.79 397,-45.21 397,-45.21 397,-48.42 393.79,-51.62 390.58,-51.62"/>
<text text-anchor="start" x="354.25" y="-39.08" font-family="Helvetica,sans-Serif" font-size="9.00">index.ts</text>
</a>
</g>
</g>
<!-- src/services/index.ts&#45;&gt;src/services/Filters/index.ts -->
<g id="edge27" class="edge">
<title>src/services/index.ts&#45;&gt;src/services/Filters/index.ts</title>
<path fill="none" stroke="#000000" stroke-width="2" stroke-opacity="0.200000" d="M295.16,-81.9C304.94,-74.11 319.28,-63.45 342.69,-51.33"/>
<polygon fill="#000000" fill-opacity="0.200000" stroke="#000000" stroke-width="2" stroke-opacity="0.200000" points="345.5,-49.94 349.4,-58.04 341.3,-54.14 345.5,-49.94"/>
</g>
<!-- src/services/StorageController/index.ts -->
<g id="node17" class="node">
<title>src/services/StorageController/index.ts</title>
<g id="a_node17"><a xlink:href="src/services/StorageController/index.ts" xlink:title="index.ts">
<path fill="#ddfeff" stroke="black" d="M486.58,-128.62C486.58,-128.62 445.42,-128.62 445.42,-128.62 442.21,-128.62 439,-125.42 439,-122.21 439,-122.21 439,-115.79 439,-115.79 439,-112.58 442.21,-109.38 445.42,-109.38 445.42,-109.38 486.58,-109.38 486.58,-109.38 489.79,-109.38 493,-112.58 493,-115.79 493,-115.79 493,-122.21 493,-122.21 493,-125.42 489.79,-128.62 486.58,-128.62"/>
<text text-anchor="start" x="450.25" y="-116.08" font-family="Helvetica,sans-Serif" font-size="9.00">index.ts</text>
</a>
</g>
</g>
<!-- src/services/index.ts&#45;&gt;src/services/StorageController/index.ts -->
<g id="edge28" class="edge">
<title>src/services/index.ts&#45;&gt;src/services/StorageController/index.ts</title>
<path fill="none" stroke="#000000" stroke-width="2" stroke-opacity="0.200000" d="M309.4,-91.01C334.7,-90.6 373.82,-91.35 442.03,-108.89"/>
<polygon fill="#000000" fill-opacity="0.200000" stroke="#000000" stroke-width="2" stroke-opacity="0.200000" points="444.84,-107.5 448.74,-115.6 440.64,-111.7 444.84,-107.5"/>
</g>
<!-- src/services/VideoParsers/index.ts -->
<g id="node23" class="node">
<title>src/services/VideoParsers/index.ts</title>
<g id="a_node23"><a xlink:href="src/services/VideoParsers/index.ts" xlink:title="index.ts">
<path fill="#ddfeff" stroke="black" d="M390.58,-128.62C390.58,-128.62 349.42,-128.62 349.42,-128.62 346.21,-128.62 343,-125.42 343,-122.21 343,-122.21 343,-115.79 343,-115.79 343,-112.58 346.21,-109.38 349.42,-109.38 349.42,-109.38 390.58,-109.38 390.58,-109.38 393.79,-109.38 397,-112.58 397,-115.79 397,-115.79 397,-122.21 397,-122.21 397,-125.42 393.79,-128.62 390.58,-128.62"/>
<text text-anchor="start" x="354.25" y="-116.08" font-family="Helvetica,sans-Serif" font-size="9.00">index.ts</text>
</a>
</g>
</g>
<!-- src/services/index.ts&#45;&gt;src/services/VideoParsers/index.ts -->
<g id="edge29" class="edge">
<title>src/services/index.ts&#45;&gt;src/services/VideoParsers/index.ts</title>
<path fill="none" stroke="#000000" stroke-width="2" stroke-opacity="0.200000" d="M309.27,-100.25C319.84,-103.57 332.01,-107.39 342.59,-110.71"/>
<polygon fill="#000000" fill-opacity="0.200000" stroke="#000000" stroke-width="2" stroke-opacity="0.200000" points="345.4,-109.32 349.3,-117.42 341.2,-113.52 345.4,-109.32"/>
</g>
<!-- src/components/inputs/FolderSelector.vue -->
<g id="node3" class="node">
<title>src/components/inputs/FolderSelector.vue</title>
<g id="a_node3"><a xlink:href="src/components/inputs/FolderSelector.vue" xlink:title="FolderSelector.vue">
<path fill="#41f083" stroke="black" d="M118.08,-111.62C118.08,-111.62 38.42,-111.62 38.42,-111.62 35.21,-111.62 32,-108.42 32,-105.21 32,-105.21 32,-98.79 32,-98.79 32,-95.58 35.21,-92.38 38.42,-92.38 38.42,-92.38 118.08,-92.38 118.08,-92.38 121.29,-92.38 124.5,-95.58 124.5,-98.79 124.5,-98.79 124.5,-105.21 124.5,-105.21 124.5,-108.42 121.29,-111.62 118.08,-111.62"/>
<text text-anchor="start" x="40" y="-99.08" font-family="Helvetica,sans-Serif" font-size="9.00">FolderSelector.vue</text>
</a>
</g>
</g>
<!-- src/components/inputs/FolderSelector.vue&#45;&gt;src/services/index.ts -->
<g id="edge2" class="edge">
<title>src/components/inputs/FolderSelector.vue&#45;&gt;src/services/index.ts</title>
<path fill="none" stroke="#000000" stroke-width="2" stroke-opacity="0.200000" d="M124.92,-92.27C130.2,-90.94 135.49,-89.51 140.5,-88 144.14,-86.91 144.76,-85.68 148.5,-85 188.08,-77.82 198.91,-81.68 239,-85 241.42,-85.2 243.9,-85.46 246.41,-85.77"/>
<polygon fill="#000000" fill-opacity="0.200000" stroke="#000000" stroke-width="2" stroke-opacity="0.200000" points="245.64,-87.78 251.87,-86.54 246.22,-83.63 245.64,-87.78"/>
</g>
<!-- src/stores/videosStore.ts -->
<g id="node4" class="node">
<title>src/stores/videosStore.ts</title>
<g id="a_node4"><a xlink:href="src/stores/videosStore.ts" xlink:title="videosStore.ts">
<path fill="#ddfeff" stroke="black" d="M224.58,-148.62C224.58,-148.62 162.92,-148.62 162.92,-148.62 159.71,-148.62 156.5,-145.42 156.5,-142.21 156.5,-142.21 156.5,-135.79 156.5,-135.79 156.5,-132.58 159.71,-129.38 162.92,-129.38 162.92,-129.38 224.58,-129.38 224.58,-129.38 227.79,-129.38 231,-132.58 231,-135.79 231,-135.79 231,-142.21 231,-142.21 231,-145.42 227.79,-148.62 224.58,-148.62"/>
<text text-anchor="start" x="164.5" y="-136.07" font-family="Helvetica,sans-Serif" font-size="9.00">videosStore.ts</text>
</a>
</g>
</g>
<!-- src/components/inputs/FolderSelector.vue&#45;&gt;src/stores/videosStore.ts -->
<g id="edge3" class="edge">
<title>src/components/inputs/FolderSelector.vue&#45;&gt;src/stores/videosStore.ts</title>
<path fill="none" stroke="#000000" stroke-width="2" stroke-opacity="0.200000" d="M109.22,-112.06C121.39,-116.12 135.61,-120.82 148.5,-125 149.75,-125.4 151.01,-125.81 152.29,-126.22"/>
<polygon fill="#000000" fill-opacity="0.200000" stroke="#000000" stroke-width="2" stroke-opacity="0.200000" points="151.59,-128.21 157.95,-128.04 152.87,-124.21 151.59,-128.21"/>
</g>
<!-- src/stores/videosStore.ts&#45;&gt;src/services/index.ts -->
<g id="edge30" class="edge">
<title>src/stores/videosStore.ts&#45;&gt;src/services/index.ts</title>
<path fill="none" stroke="#000000" stroke-width="2" stroke-opacity="0.200000" d="M230.48,-128.95C233.41,-127.75 236.29,-126.43 239,-125 247.85,-120.32 256.71,-113.72 264,-107.64"/>
<polygon fill="#000000" fill-opacity="0.200000" stroke="#000000" stroke-width="2" stroke-opacity="0.200000" points="265.25,-109.34 268.41,-103.82 262.5,-106.16 265.25,-109.34"/>
</g>
<!-- src/main.ts -->
<g id="node5" class="node">
<title>src/main.ts</title>
<g id="a_node5"><a xlink:href="src/main.ts" xlink:title="main.ts">
<path fill="#ddfeff" stroke="black" d="M214.33,-112.62C214.33,-112.62 173.17,-112.62 173.17,-112.62 169.96,-112.62 166.75,-109.42 166.75,-106.21 166.75,-106.21 166.75,-99.79 166.75,-99.79 166.75,-96.58 169.96,-93.38 173.17,-93.38 173.17,-93.38 214.33,-93.38 214.33,-93.38 217.54,-93.38 220.75,-96.58 220.75,-99.79 220.75,-99.79 220.75,-106.21 220.75,-106.21 220.75,-109.42 217.54,-112.62 214.33,-112.62"/>
<text text-anchor="start" x="178.38" y="-100.08" font-family="Helvetica,sans-Serif" font-size="9.00">main.ts</text>
</a>
</g>
</g>
<!-- src/main.ts&#45;&gt;src/services/index.ts -->
<g id="edge4" class="edge">
<title>src/main.ts&#45;&gt;src/services/index.ts</title>
<path fill="none" stroke="#000000" stroke-width="2" stroke-opacity="0.200000" d="M221.1,-99.64C228.88,-98.65 237.53,-97.54 245.78,-96.49"/>
<polygon fill="#000000" fill-opacity="0.200000" stroke="#000000" stroke-width="2" stroke-opacity="0.200000" points="245.83,-98.6 251.51,-95.76 245.3,-94.44 245.83,-98.6"/>
</g>
<!-- src/services/Filters/Filters.ts -->
<g id="node6" class="node">
<title>src/services/Filters/Filters.ts</title>
<g id="a_node6"><a xlink:href="src/services/Filters/Filters.ts" xlink:title="Filters.ts">
<path fill="#ddfeff" stroke="black" d="M486.58,-51.62C486.58,-51.62 445.42,-51.62 445.42,-51.62 442.21,-51.62 439,-48.42 439,-45.21 439,-45.21 439,-38.79 439,-38.79 439,-35.58 442.21,-32.38 445.42,-32.38 445.42,-32.38 486.58,-32.38 486.58,-32.38 489.79,-32.38 493,-35.58 493,-38.79 493,-38.79 493,-45.21 493,-45.21 493,-48.42 489.79,-51.62 486.58,-51.62"/>
<text text-anchor="start" x="448.38" y="-39.08" font-family="Helvetica,sans-Serif" font-size="9.00">Filters.ts</text>
</a>
</g>
</g>
<!-- src/services/Filters/index.ts&#45;&gt;src/services/Filters/Filters.ts -->
<g id="edge5" class="edge">
<title>src/services/Filters/index.ts&#45;&gt;src/services/Filters/Filters.ts</title>
<path fill="none" stroke="#000000" stroke-width="2" stroke-opacity="0.200000" d="M397.43,-42C410.36,-42 425.87,-42 438.76,-42"/>
<polygon fill="#000000" fill-opacity="0.200000" stroke="#000000" stroke-width="2" stroke-opacity="0.200000" points="441.57,-40.61 445.47,-48.71 437.37,-44.81 441.57,-40.61"/>
</g>
<!-- src/services/StorageController/VideoMetadataController.ts -->
<g id="node8" class="node">
<title>src/services/StorageController/VideoMetadataController.ts</title>
<g id="a_node8"><a xlink:href="src/services/StorageController/VideoMetadataController.ts" xlink:title="VideoMetadataController.ts">
<path fill="#ddfeff" stroke="black" d="M629.58,-147.62C629.58,-147.62 515.42,-147.62 515.42,-147.62 512.21,-147.62 509,-144.42 509,-141.21 509,-141.21 509,-134.79 509,-134.79 509,-131.58 512.21,-128.38 515.42,-128.38 515.42,-128.38 629.58,-128.38 629.58,-128.38 632.79,-128.38 636,-131.58 636,-134.79 636,-134.79 636,-141.21 636,-141.21 636,-144.42 632.79,-147.62 629.58,-147.62"/>
<text text-anchor="start" x="517" y="-135.07" font-family="Helvetica,sans-Serif" font-size="9.00">VideoMetadataController.ts</text>
</a>
</g>
</g>
<!-- src/services/StorageController/infrastructure/repository/MetadataRepository.ts -->
<g id="node9" class="node">
<title>src/services/StorageController/infrastructure/repository/MetadataRepository.ts</title>
<g id="a_node9"><a xlink:href="src/services/StorageController/infrastructure/repository/MetadataRepository.ts" xlink:title="MetadataRepository.ts">
<path fill="#ddfeff" stroke="black" d="M761.08,-132.62C761.08,-132.62 666.42,-132.62 666.42,-132.62 663.21,-132.62 660,-129.42 660,-126.21 660,-126.21 660,-119.79 660,-119.79 660,-116.58 663.21,-113.38 666.42,-113.38 666.42,-113.38 761.08,-113.38 761.08,-113.38 764.29,-113.38 767.5,-116.58 767.5,-119.79 767.5,-119.79 767.5,-126.21 767.5,-126.21 767.5,-129.42 764.29,-132.62 761.08,-132.62"/>
<text text-anchor="start" x="668" y="-120.08" font-family="Helvetica,sans-Serif" font-size="9.00">MetadataRepository.ts</text>
</a>
</g>
</g>
<!-- src/services/StorageController/VideoMetadataController.ts&#45;&gt;src/services/StorageController/infrastructure/repository/MetadataRepository.ts -->
<g id="edge6" class="edge">
<title>src/services/StorageController/VideoMetadataController.ts&#45;&gt;src/services/StorageController/infrastructure/repository/MetadataRepository.ts</title>
<path fill="none" stroke="#000000" stroke-width="2" stroke-opacity="0.200000" d="M636.2,-131.25C641.07,-130.72 645.99,-130.19 650.86,-129.67"/>
<polygon fill="#000000" fill-opacity="0.200000" stroke="#000000" stroke-width="2" stroke-opacity="0.200000" points="650.79,-131.79 656.53,-129.06 650.34,-127.61 650.79,-131.79"/>
</g>
<!-- src/services/StorageController/infrastructure/repository/VideoRepository.ts -->
<g id="node10" class="node">
<title>src/services/StorageController/infrastructure/repository/VideoRepository.ts</title>
<g id="a_node10"><a xlink:href="src/services/StorageController/infrastructure/repository/VideoRepository.ts" xlink:title="VideoRepository.ts">
<path fill="#ddfeff" stroke="black" d="M753.96,-163.62C753.96,-163.62 673.54,-163.62 673.54,-163.62 670.33,-163.62 667.12,-160.42 667.12,-157.21 667.12,-157.21 667.12,-150.79 667.12,-150.79 667.12,-147.58 670.33,-144.38 673.54,-144.38 673.54,-144.38 753.96,-144.38 753.96,-144.38 757.17,-144.38 760.38,-147.58 760.38,-150.79 760.38,-150.79 760.38,-157.21 760.38,-157.21 760.38,-160.42 757.17,-163.62 753.96,-163.62"/>
<text text-anchor="start" x="675.12" y="-151.07" font-family="Helvetica,sans-Serif" font-size="9.00">VideoRepository.ts</text>
</a>
</g>
</g>
<!-- src/services/StorageController/VideoMetadataController.ts&#45;&gt;src/services/StorageController/infrastructure/repository/VideoRepository.ts -->
<g id="edge7" class="edge">
<title>src/services/StorageController/VideoMetadataController.ts&#45;&gt;src/services/StorageController/infrastructure/repository/VideoRepository.ts</title>
<path fill="none" stroke="#000000" stroke-width="2" stroke-opacity="0.200000" d="M636.2,-145.2C643.41,-146.03 650.72,-146.87 657.81,-147.69"/>
<polygon fill="#000000" fill-opacity="0.200000" stroke="#000000" stroke-width="2" stroke-opacity="0.200000" points="657.45,-149.76 663.65,-148.36 657.93,-145.59 657.45,-149.76"/>
</g>
<!-- src/services/StorageController/migrations/index.ts -->
<g id="node11" class="node">
<title>src/services/StorageController/migrations/index.ts</title>
<g id="a_node11"><a xlink:href="src/services/StorageController/migrations/index.ts" xlink:title="index.ts">
<path fill="#ddfeff" stroke="black" d="M734.33,-320.62C734.33,-320.62 693.17,-320.62 693.17,-320.62 689.96,-320.62 686.75,-317.42 686.75,-314.21 686.75,-314.21 686.75,-307.79 686.75,-307.79 686.75,-304.58 689.96,-301.38 693.17,-301.38 693.17,-301.38 734.33,-301.38 734.33,-301.38 737.54,-301.38 740.75,-304.58 740.75,-307.79 740.75,-307.79 740.75,-314.21 740.75,-314.21 740.75,-317.42 737.54,-320.62 734.33,-320.62"/>
<text text-anchor="start" x="698" y="-308.07" font-family="Helvetica,sans-Serif" font-size="9.00">index.ts</text>
</a>
</g>
</g>
<!-- src/services/StorageController/VideoMetadataController.ts&#45;&gt;src/services/StorageController/migrations/index.ts -->
<g id="edge8" class="edge">
<title>src/services/StorageController/VideoMetadataController.ts&#45;&gt;src/services/StorageController/migrations/index.ts</title>
<path fill="none" stroke="#000000" stroke-width="2" stroke-opacity="0.200000" d="M581.59,-148.05C604.57,-176.59 670.41,-258.4 699.11,-294.05"/>
<polygon fill="#000000" fill-opacity="0.200000" stroke="#000000" stroke-width="2" stroke-opacity="0.200000" points="697.34,-295.21 702.74,-298.57 700.61,-292.57 697.34,-295.21"/>
</g>
<!-- src/services/StorageController/domain/constants/index.ts -->
<g id="node12" class="node">
<title>src/services/StorageController/domain/constants/index.ts</title>
<g id="a_node12"><a xlink:href="src/services/StorageController/domain/constants/index.ts" xlink:title="index.ts">
<path fill="#ddfeff" stroke="black" d="M1020.46,-132.62C1020.46,-132.62 979.29,-132.62 979.29,-132.62 976.08,-132.62 972.88,-129.42 972.88,-126.21 972.88,-126.21 972.88,-119.79 972.88,-119.79 972.88,-116.58 976.08,-113.38 979.29,-113.38 979.29,-113.38 1020.46,-113.38 1020.46,-113.38 1023.67,-113.38 1026.88,-116.58 1026.88,-119.79 1026.88,-119.79 1026.88,-126.21 1026.88,-126.21 1026.88,-129.42 1023.67,-132.62 1020.46,-132.62"/>
<text text-anchor="start" x="984.12" y="-120.08" font-family="Helvetica,sans-Serif" font-size="9.00">index.ts</text>
</a>
</g>
</g>
<!-- src/services/StorageController/infrastructure/repository/MetadataRepository.ts&#45;&gt;src/services/StorageController/domain/constants/index.ts -->
<g id="edge13" class="edge">
<title>src/services/StorageController/infrastructure/repository/MetadataRepository.ts&#45;&gt;src/services/StorageController/domain/constants/index.ts</title>
<path fill="none" stroke="#000000" stroke-width="2" stroke-opacity="0.200000" d="M767.91,-132.39C770.64,-133.99 773.2,-135.85 775.5,-138 784.02,-145.97 774.08,-156.12 783.5,-163 808.18,-181.02 891.3,-170.18 921,-163 941.25,-158.1 962.15,-146.98 977.19,-137.7"/>
<polygon fill="#000000" fill-opacity="0.200000" stroke="#000000" stroke-width="2" stroke-opacity="0.200000" points="978,-139.68 981.93,-134.69 975.74,-136.13 978,-139.68"/>
</g>
<!-- src/services/StorageController/domain/entities/Metadata.ts -->
<g id="node13" class="node">
<title>src/services/StorageController/domain/entities/Metadata.ts</title>
<g id="a_node13"><a xlink:href="src/services/StorageController/domain/entities/Metadata.ts" xlink:title="Metadata.ts">
<path fill="#ddfeff" stroke="black" d="M1135.58,-195.62C1135.58,-195.62 1085.17,-195.62 1085.17,-195.62 1081.96,-195.62 1078.75,-192.42 1078.75,-189.21 1078.75,-189.21 1078.75,-182.79 1078.75,-182.79 1078.75,-179.58 1081.96,-176.38 1085.17,-176.38 1085.17,-176.38 1135.58,-176.38 1135.58,-176.38 1138.79,-176.38 1142,-179.58 1142,-182.79 1142,-182.79 1142,-189.21 1142,-189.21 1142,-192.42 1138.79,-195.62 1135.58,-195.62"/>
<text text-anchor="start" x="1086.75" y="-183.07" font-family="Helvetica,sans-Serif" font-size="9.00">Metadata.ts</text>
</a>
</g>
</g>
<!-- src/services/StorageController/infrastructure/repository/MetadataRepository.ts&#45;&gt;src/services/StorageController/domain/entities/Metadata.ts -->
<g id="edge14" class="edge">
<title>src/services/StorageController/infrastructure/repository/MetadataRepository.ts&#45;&gt;src/services/StorageController/domain/entities/Metadata.ts</title>
<path fill="none" stroke="#000000" stroke-opacity="0.200000" d="M738.82,-113C798.54,-89.89 956.34,-39.36 1062.75,-102 1087.22,-116.41 1099.77,-148.8 1105.42,-168.89"/>
<polygon fill="none" stroke="#000000" stroke-opacity="0.200000" points="1103.33,-169.18 1106.88,-174.46 1107.39,-168.12 1103.33,-169.18"/>
</g>
<!-- src/services/StorageController/domain/repositories/IMetadataRepository.ts -->
<g id="node15" class="node">
<title>src/services/StorageController/domain/repositories/IMetadataRepository.ts</title>
<g id="a_node15"><a xlink:href="src/services/StorageController/domain/repositories/IMetadataRepository.ts" xlink:title="IMetadataRepository.ts">
<path fill="#ddfeff" stroke="black" d="M1048.33,-195.62C1048.33,-195.62 951.42,-195.62 951.42,-195.62 948.21,-195.62 945,-192.42 945,-189.21 945,-189.21 945,-182.79 945,-182.79 945,-179.58 948.21,-176.38 951.42,-176.38 951.42,-176.38 1048.33,-176.38 1048.33,-176.38 1051.54,-176.38 1054.75,-179.58 1054.75,-182.79 1054.75,-182.79 1054.75,-189.21 1054.75,-189.21 1054.75,-192.42 1051.54,-195.62 1048.33,-195.62"/>
<text text-anchor="start" x="953" y="-183.07" font-family="Helvetica,sans-Serif" font-size="9.00">IMetadataRepository.ts</text>
</a>
</g>
</g>
<!-- src/services/StorageController/infrastructure/repository/MetadataRepository.ts&#45;&gt;src/services/StorageController/domain/repositories/IMetadataRepository.ts -->
<g id="edge15" class="edge">
<title>src/services/StorageController/infrastructure/repository/MetadataRepository.ts&#45;&gt;src/services/StorageController/domain/repositories/IMetadataRepository.ts</title>
<path fill="none" stroke="#000000" stroke-opacity="0.200000" d="M767.82,-132.03C770.61,-133.72 773.2,-135.69 775.5,-138 786.15,-148.69 771.97,-161.26 783.5,-171 829.67,-209.99 903.11,-205.82 951.16,-197.39"/>
<polygon fill="none" stroke="#000000" stroke-opacity="0.200000" points="951.34,-199.49 956.86,-196.33 950.58,-195.36 951.34,-199.49"/>
</g>
<!-- src/services/StorageController/infrastructure/database/DatabaseConnection.ts -->
<g id="node18" class="node">
<title>src/services/StorageController/infrastructure/database/DatabaseConnection.ts</title>
<g id="a_node18"><a xlink:href="src/services/StorageController/infrastructure/database/DatabaseConnection.ts" xlink:title="DatabaseConnection.ts">
<path fill="#ddfeff" stroke="black" d="M898.58,-132.62C898.58,-132.62 797.92,-132.62 797.92,-132.62 794.71,-132.62 791.5,-129.42 791.5,-126.21 791.5,-126.21 791.5,-119.79 791.5,-119.79 791.5,-116.58 794.71,-113.38 797.92,-113.38 797.92,-113.38 898.58,-113.38 898.58,-113.38 901.79,-113.38 905,-116.58 905,-119.79 905,-119.79 905,-126.21 905,-126.21 905,-129.42 901.79,-132.62 898.58,-132.62"/>
<text text-anchor="start" x="799.5" y="-120.08" font-family="Helvetica,sans-Serif" font-size="9.00">DatabaseConnection.ts</text>
</a>
</g>
</g>
<!-- src/services/StorageController/infrastructure/repository/MetadataRepository.ts&#45;&gt;src/services/StorageController/infrastructure/database/DatabaseConnection.ts -->
<g id="edge16" class="edge">
<title>src/services/StorageController/infrastructure/repository/MetadataRepository.ts&#45;&gt;src/services/StorageController/infrastructure/database/DatabaseConnection.ts</title>
<path fill="none" stroke="#000000" stroke-width="2" stroke-opacity="0.200000" d="M767.88,-123C772.65,-123 777.51,-123 782.37,-123"/>
<polygon fill="#000000" fill-opacity="0.200000" stroke="#000000" stroke-width="2" stroke-opacity="0.200000" points="782.05,-125.1 788.05,-123 782.05,-120.9 782.05,-125.1"/>
</g>
<!-- src/services/StorageController/infrastructure/repository/VideoRepository.ts&#45;&gt;src/services/StorageController/domain/constants/index.ts -->
<g id="edge17" class="edge">
<title>src/services/StorageController/infrastructure/repository/VideoRepository.ts&#45;&gt;src/services/StorageController/domain/constants/index.ts</title>
<path fill="none" stroke="#000000" stroke-width="2" stroke-opacity="0.200000" d="M746.07,-164.1C787.3,-175.72 861.52,-190.83 921,-171 925.22,-169.59 925.31,-167.48 929,-165 943.43,-155.29 960.11,-145.22 973.55,-137.38"/>
<polygon fill="#000000" fill-opacity="0.200000" stroke="#000000" stroke-width="2" stroke-opacity="0.200000" points="974.29,-139.38 978.43,-134.56 972.18,-135.75 974.29,-139.38"/>
</g>
<!-- src/services/StorageController/domain/entities/Video.ts -->
<g id="node14" class="node">
<title>src/services/StorageController/domain/entities/Video.ts</title>
<g id="a_node14"><a xlink:href="src/services/StorageController/domain/entities/Video.ts" xlink:title="Video.ts">
<path fill="#ddfeff" stroke="black" d="M1130.96,-226.62C1130.96,-226.62 1089.79,-226.62 1089.79,-226.62 1086.58,-226.62 1083.38,-223.42 1083.38,-220.21 1083.38,-220.21 1083.38,-213.79 1083.38,-213.79 1083.38,-210.58 1086.58,-207.38 1089.79,-207.38 1089.79,-207.38 1130.96,-207.38 1130.96,-207.38 1134.17,-207.38 1137.38,-210.58 1137.38,-213.79 1137.38,-213.79 1137.38,-220.21 1137.38,-220.21 1137.38,-223.42 1134.17,-226.62 1130.96,-226.62"/>
<text text-anchor="start" x="1093.88" y="-214.07" font-family="Helvetica,sans-Serif" font-size="9.00">Video.ts</text>
</a>
</g>
</g>
<!-- src/services/StorageController/infrastructure/repository/VideoRepository.ts&#45;&gt;src/services/StorageController/domain/entities/Video.ts -->
<g id="edge18" class="edge">
<title>src/services/StorageController/infrastructure/repository/VideoRepository.ts&#45;&gt;src/services/StorageController/domain/entities/Video.ts</title>
<path fill="none" stroke="#000000" stroke-opacity="0.200000" d="M728.91,-163.95C761.98,-186.47 847.67,-240.64 929,-257 987.28,-268.72 1007,-277.64 1062.75,-257 1076.17,-252.03 1088.33,-241.29 1096.86,-232.18"/>
<polygon fill="none" stroke="#000000" stroke-opacity="0.200000" points="1098.24,-233.79 1100.68,-227.92 1095.11,-230.99 1098.24,-233.79"/>
</g>
<!-- src/services/StorageController/domain/repositories/IVideoRepository.ts -->
<g id="node16" class="node">
<title>src/services/StorageController/domain/repositories/IVideoRepository.ts</title>
<g id="a_node16"><a xlink:href="src/services/StorageController/domain/repositories/IVideoRepository.ts" xlink:title="IVideoRepository.ts">
<path fill="#ddfeff" stroke="black" d="M1041.21,-226.62C1041.21,-226.62 958.54,-226.62 958.54,-226.62 955.33,-226.62 952.12,-223.42 952.12,-220.21 952.12,-220.21 952.12,-213.79 952.12,-213.79 952.12,-210.58 955.33,-207.38 958.54,-207.38 958.54,-207.38 1041.21,-207.38 1041.21,-207.38 1044.42,-207.38 1047.62,-210.58 1047.62,-213.79 1047.62,-213.79 1047.62,-220.21 1047.62,-220.21 1047.62,-223.42 1044.42,-226.62 1041.21,-226.62"/>
<text text-anchor="start" x="960.12" y="-214.07" font-family="Helvetica,sans-Serif" font-size="9.00">IVideoRepository.ts</text>
</a>
</g>
</g>
<!-- src/services/StorageController/infrastructure/repository/VideoRepository.ts&#45;&gt;src/services/StorageController/domain/repositories/IVideoRepository.ts -->
<g id="edge19" class="edge">
<title>src/services/StorageController/infrastructure/repository/VideoRepository.ts&#45;&gt;src/services/StorageController/domain/repositories/IVideoRepository.ts</title>
<path fill="none" stroke="#000000" stroke-opacity="0.200000" d="M739.24,-164.08C752.22,-169.13 768.53,-174.99 783.5,-179 837.41,-193.44 900.42,-203.83 944.31,-210.05"/>
<polygon fill="none" stroke="#000000" stroke-opacity="0.200000" points="943.99,-212.13 950.23,-210.88 944.58,-207.97 943.99,-212.13"/>
</g>
<!-- src/services/StorageController/infrastructure/repository/VideoRepository.ts&#45;&gt;src/services/StorageController/infrastructure/database/DatabaseConnection.ts -->
<g id="edge20" class="edge">
<title>src/services/StorageController/infrastructure/repository/VideoRepository.ts&#45;&gt;src/services/StorageController/infrastructure/database/DatabaseConnection.ts</title>
<path fill="none" stroke="#000000" stroke-width="2" stroke-opacity="0.200000" d="M757.77,-143.94C769.8,-141.12 783.01,-138.03 795.49,-135.11"/>
<polygon fill="#000000" fill-opacity="0.200000" stroke="#000000" stroke-width="2" stroke-opacity="0.200000" points="795.68,-137.22 801.05,-133.81 794.73,-133.13 795.68,-137.22"/>
</g>
<!-- src/services/StorageController/migrations/migrations.ts -->
<g id="node19" class="node">
<title>src/services/StorageController/migrations/migrations.ts</title>
<g id="a_node19"><a xlink:href="src/services/StorageController/migrations/migrations.ts" xlink:title="migrations.ts">
<path fill="#ddfeff" stroke="black" d="M876.83,-324.62C876.83,-324.62 819.67,-324.62 819.67,-324.62 816.46,-324.62 813.25,-321.42 813.25,-318.21 813.25,-318.21 813.25,-311.79 813.25,-311.79 813.25,-308.58 816.46,-305.38 819.67,-305.38 819.67,-305.38 876.83,-305.38 876.83,-305.38 880.04,-305.38 883.25,-308.58 883.25,-311.79 883.25,-311.79 883.25,-318.21 883.25,-318.21 883.25,-321.42 880.04,-324.62 876.83,-324.62"/>
<text text-anchor="start" x="821.25" y="-312.07" font-family="Helvetica,sans-Serif" font-size="9.00">migrations.ts</text>
</a>
</g>
</g>
<!-- src/services/StorageController/migrations/index.ts&#45;&gt;src/services/StorageController/migrations/migrations.ts -->
<g id="edge21" class="edge">
<title>src/services/StorageController/migrations/index.ts&#45;&gt;src/services/StorageController/migrations/migrations.ts</title>
<path fill="none" stroke="#000000" stroke-width="2" stroke-opacity="0.200000" d="M741.24,-311.8C761.79,-312.42 790.42,-313.28 812.75,-313.96"/>
<polygon fill="#000000" fill-opacity="0.200000" stroke="#000000" stroke-width="2" stroke-opacity="0.200000" points="815.56,-312.57 819.46,-320.67 811.36,-316.77 815.56,-312.57"/>
</g>
<!-- src/services/StorageController/domain/repositories/IMetadataRepository.ts&#45;&gt;src/services/StorageController/domain/entities/Metadata.ts -->
<g id="edge9" class="edge">
<title>src/services/StorageController/domain/repositories/IMetadataRepository.ts&#45;&gt;src/services/StorageController/domain/entities/Metadata.ts</title>
<path fill="none" stroke="#000000" stroke-opacity="0.200000" d="M1055.12,-186C1060.46,-186 1065.8,-186 1070.94,-186"/>
<polygon fill="none" stroke="#000000" stroke-opacity="0.200000" points="1070.77,-188.1 1076.77,-186 1070.77,-183.9 1070.77,-188.1"/>
</g>
<!-- src/services/StorageController/domain/repositories/IVideoRepository.ts&#45;&gt;src/services/StorageController/domain/entities/Video.ts -->
<g id="edge10" class="edge">
<title>src/services/StorageController/domain/repositories/IVideoRepository.ts&#45;&gt;src/services/StorageController/domain/entities/Video.ts</title>
<path fill="none" stroke="#000000" stroke-opacity="0.200000" d="M1047.83,-217C1057.14,-217 1066.73,-217 1075.49,-217"/>
<polygon fill="none" stroke="#000000" stroke-opacity="0.200000" points="1075.44,-219.1 1081.44,-217 1075.44,-214.9 1075.44,-219.1"/>
</g>
<!-- src/services/StorageController/index.ts&#45;&gt;src/services/StorageController/VideoMetadataController.ts -->
<g id="edge11" class="edge">
<title>src/services/StorageController/index.ts&#45;&gt;src/services/StorageController/VideoMetadataController.ts</title>
<path fill="none" stroke="#000000" stroke-width="2" stroke-opacity="0.200000" d="M493.37,-123.79C497.75,-124.59 502.46,-125.45 507.32,-126.33"/>
<polygon fill="#000000" fill-opacity="0.200000" stroke="#000000" stroke-width="2" stroke-opacity="0.200000" points="506.91,-128.39 513.19,-127.4 507.67,-124.26 506.91,-128.39"/>
</g>
<!-- src/services/StorageController/infrastructure/database/DatabaseConnection.ts&#45;&gt;src/services/StorageController/domain/constants/index.ts -->
<g id="edge12" class="edge">
<title>src/services/StorageController/infrastructure/database/DatabaseConnection.ts&#45;&gt;src/services/StorageController/domain/constants/index.ts</title>
<path fill="none" stroke="#000000" stroke-width="2" stroke-opacity="0.200000" d="M905.39,-123C925.02,-123 946.48,-123 963.89,-123"/>
<polygon fill="#000000" fill-opacity="0.200000" stroke="#000000" stroke-width="2" stroke-opacity="0.200000" points="963.56,-125.1 969.56,-123 963.56,-120.9 963.56,-125.1"/>
</g>
<!-- src/services/StorageController/migrations/v1/index.ts -->
<g id="node20" class="node">
<title>src/services/StorageController/migrations/v1/index.ts</title>
<g id="a_node20"><a xlink:href="src/services/StorageController/migrations/v1/index.ts" xlink:title="index.ts">
<path fill="#ddfeff" stroke="black" d="M1020.46,-324.62C1020.46,-324.62 979.29,-324.62 979.29,-324.62 976.08,-324.62 972.88,-321.42 972.88,-318.21 972.88,-318.21 972.88,-311.79 972.88,-311.79 972.88,-308.58 976.08,-305.38 979.29,-305.38 979.29,-305.38 1020.46,-305.38 1020.46,-305.38 1023.67,-305.38 1026.88,-308.58 1026.88,-311.79 1026.88,-311.79 1026.88,-318.21 1026.88,-318.21 1026.88,-321.42 1023.67,-324.62 1020.46,-324.62"/>
<text text-anchor="start" x="984.12" y="-312.07" font-family="Helvetica,sans-Serif" font-size="9.00">index.ts</text>
</a>
</g>
</g>
<!-- src/services/StorageController/migrations/migrations.ts&#45;&gt;src/services/StorageController/migrations/v1/index.ts -->
<g id="edge22" class="edge">
<title>src/services/StorageController/migrations/migrations.ts&#45;&gt;src/services/StorageController/migrations/v1/index.ts</title>
<path fill="none" stroke="#000000" stroke-width="2" stroke-opacity="0.200000" d="M883.58,-315C907.6,-315 939.59,-315 963.78,-315"/>
<polygon fill="#000000" fill-opacity="0.200000" stroke="#000000" stroke-width="2" stroke-opacity="0.200000" points="963.61,-317.1 969.61,-315 963.61,-312.9 963.61,-317.1"/>
</g>
<!-- src/services/StorageController/migrations/v2/index.ts -->
<g id="node21" class="node">
<title>src/services/StorageController/migrations/v2/index.ts</title>
<g id="a_node21"><a xlink:href="src/services/StorageController/migrations/v2/index.ts" xlink:title="index.ts">
<path fill="#ddfeff" stroke="black" d="M1020.46,-387.62C1020.46,-387.62 979.29,-387.62 979.29,-387.62 976.08,-387.62 972.88,-384.42 972.88,-381.21 972.88,-381.21 972.88,-374.79 972.88,-374.79 972.88,-371.58 976.08,-368.38 979.29,-368.38 979.29,-368.38 1020.46,-368.38 1020.46,-368.38 1023.67,-368.38 1026.88,-371.58 1026.88,-374.79 1026.88,-374.79 1026.88,-381.21 1026.88,-381.21 1026.88,-384.42 1023.67,-387.62 1020.46,-387.62"/>
<text text-anchor="start" x="984.12" y="-375.07" font-family="Helvetica,sans-Serif" font-size="9.00">index.ts</text>
</a>
</g>
</g>
<!-- src/services/StorageController/migrations/migrations.ts&#45;&gt;src/services/StorageController/migrations/v2/index.ts -->
<g id="edge23" class="edge">
<title>src/services/StorageController/migrations/migrations.ts&#45;&gt;src/services/StorageController/migrations/v2/index.ts</title>
<path fill="none" stroke="#000000" stroke-width="2" stroke-opacity="0.200000" d="M867.27,-324.99C883.2,-333.6 907.24,-346.02 929,-355 940.29,-359.66 952.89,-364.05 964.26,-367.72"/>
<polygon fill="#000000" fill-opacity="0.200000" stroke="#000000" stroke-width="2" stroke-opacity="0.200000" points="963.42,-369.65 969.77,-369.46 964.69,-365.65 963.42,-369.65"/>
</g>
<!-- src/services/StorageController/migrations/utils/index.ts -->
<g id="node22" class="node">
<title>src/services/StorageController/migrations/utils/index.ts</title>
<g id="a_node22"><a xlink:href="src/services/StorageController/migrations/utils/index.ts" xlink:title="index.ts">
<path fill="#ddfeff" stroke="black" d="M1130.96,-355.62C1130.96,-355.62 1089.79,-355.62 1089.79,-355.62 1086.58,-355.62 1083.38,-352.42 1083.38,-349.21 1083.38,-349.21 1083.38,-342.79 1083.38,-342.79 1083.38,-339.58 1086.58,-336.38 1089.79,-336.38 1089.79,-336.38 1130.96,-336.38 1130.96,-336.38 1134.17,-336.38 1137.38,-339.58 1137.38,-342.79 1137.38,-342.79 1137.38,-349.21 1137.38,-349.21 1137.38,-352.42 1134.17,-355.62 1130.96,-355.62"/>
<text text-anchor="start" x="1094.62" y="-343.07" font-family="Helvetica,sans-Serif" font-size="9.00">index.ts</text>
</a>
</g>
</g>
<!-- src/services/StorageController/migrations/v1/index.ts&#45;&gt;src/services/StorageController/migrations/utils/index.ts -->
<g id="edge24" class="edge">
<title>src/services/StorageController/migrations/v1/index.ts&#45;&gt;src/services/StorageController/migrations/utils/index.ts</title>
<path fill="none" stroke="#000000" stroke-width="2" stroke-opacity="0.200000" d="M1027.14,-322.5C1041.43,-326.59 1059.28,-331.69 1074.7,-336.09"/>
<polygon fill="#000000" fill-opacity="0.200000" stroke="#000000" stroke-width="2" stroke-opacity="0.200000" points="1073.72,-338 1080.07,-337.63 1074.87,-333.96 1073.72,-338"/>
</g>
<!-- src/services/StorageController/migrations/v2/index.ts&#45;&gt;src/services/StorageController/migrations/utils/index.ts -->
<g id="edge25" class="edge">
<title>src/services/StorageController/migrations/v2/index.ts&#45;&gt;src/services/StorageController/migrations/utils/index.ts</title>
<path fill="none" stroke="#000000" stroke-width="2" stroke-opacity="0.200000" d="M1027.14,-370.25C1041.43,-366.04 1059.28,-360.77 1074.7,-356.23"/>
<polygon fill="#000000" fill-opacity="0.200000" stroke="#000000" stroke-width="2" stroke-opacity="0.200000" points="1074.91,-358.35 1080.07,-354.64 1073.72,-354.33 1074.91,-358.35"/>
</g>
<!-- src/services/VideoParsers/index.ts&#45;&gt;src/services/StorageController/index.ts -->
<g id="edge26" class="edge">
<title>src/services/VideoParsers/index.ts&#45;&gt;src/services/StorageController/index.ts</title>
<path fill="none" stroke="#000000" stroke-width="2" stroke-opacity="0.200000" d="M397.43,-119C407.53,-119 419.21,-119 429.98,-119"/>
<polygon fill="#000000" fill-opacity="0.200000" stroke="#000000" stroke-width="2" stroke-opacity="0.200000" points="429.74,-121.1 435.74,-119 429.74,-116.9 429.74,-121.1"/>
</g>
</g>
</svg>
