<?xml version="1.0" encoding="UTF-8" standalone="no"?>
<!DOCTYPE svg PUBLIC "-//W3C//DTD SVG 1.1//EN"
 "http://www.w3.org/Graphics/SVG/1.1/DTD/svg11.dtd">
<!-- Generated by graphviz version 9.0.0 (20230911.1827)
 -->
<!-- Title: dependency&#45;cruiser output Pages: 1 -->
<svg width="652pt" height="343pt"
 viewBox="0.00 0.00 651.75 343.00" xmlns="http://www.w3.org/2000/svg" xmlns:xlink="http://www.w3.org/1999/xlink">
<g id="graph0" class="graph" transform="scale(1 1) rotate(0) translate(4 339)">
<title>dependency&#45;cruiser output</title>
<polygon fill="white" stroke="none" points="-4,4 -4,-339 647.75,-339 647.75,4 -4,4"/>
<g id="clust1" class="cluster">
<title>cluster_src</title>
<path fill="#ffffff" stroke="black" stroke-width="2" d="M20,-8C20,-8 623.75,-8 623.75,-8 629.75,-8 635.75,-14 635.75,-20 635.75,-20 635.75,-315 635.75,-315 635.75,-321 629.75,-327 623.75,-327 623.75,-327 20,-327 20,-327 14,-327 8,-321 8,-315 8,-315 8,-20 8,-20 8,-14 14,-8 20,-8"/>
<text text-anchor="middle" x="321.88" y="-314.45" font-family="Helvetica,sans-Serif" font-weight="bold" font-size="9.00">src</text>
</g>
<g id="clust2" class="cluster">
<title>cluster_src/application</title>
<path fill="#ffffff" stroke="black" stroke-width="2" d="M126.5,-26C126.5,-26 306.75,-26 306.75,-26 312.75,-26 318.75,-32 318.75,-38 318.75,-38 318.75,-166 318.75,-166 318.75,-172 312.75,-178 306.75,-178 306.75,-178 126.5,-178 126.5,-178 120.5,-178 114.5,-172 114.5,-166 114.5,-166 114.5,-38 114.5,-38 114.5,-32 120.5,-26 126.5,-26"/>
<text text-anchor="middle" x="216.62" y="-165.45" font-family="Helvetica,sans-Serif" font-weight="bold" font-size="9.00">application</text>
</g>
<g id="clust3" class="cluster">
<title>cluster_src/application/services</title>
<path fill="#ffffff" stroke="black" stroke-width="2" d="M208.25,-34C208.25,-34 298.75,-34 298.75,-34 304.75,-34 310.75,-40 310.75,-46 310.75,-46 310.75,-139 310.75,-139 310.75,-145 304.75,-151 298.75,-151 298.75,-151 208.25,-151 208.25,-151 202.25,-151 196.25,-145 196.25,-139 196.25,-139 196.25,-46 196.25,-46 196.25,-40 202.25,-34 208.25,-34"/>
<text text-anchor="middle" x="253.5" y="-138.45" font-family="Helvetica,sans-Serif" font-weight="bold" font-size="9.00">services</text>
</g>
<g id="clust4" class="cluster">
<title>cluster_src/components</title>
<path fill="#ffffff" stroke="black" stroke-width="2" d="M196.5,-186C196.5,-186 310.5,-186 310.5,-186 316.5,-186 322.5,-192 322.5,-198 322.5,-198 322.5,-264 322.5,-264 322.5,-270 316.5,-276 310.5,-276 310.5,-276 196.5,-276 196.5,-276 190.5,-276 184.5,-270 184.5,-264 184.5,-264 184.5,-198 184.5,-198 184.5,-192 190.5,-186 196.5,-186"/>
<text text-anchor="middle" x="253.5" y="-263.45" font-family="Helvetica,sans-Serif" font-weight="bold" font-size="9.00">components</text>
</g>
<g id="clust5" class="cluster">
<title>cluster_src/components/utils</title>
<path fill="#ffffff" stroke="black" stroke-width="2" d="M204.5,-194C204.5,-194 302.5,-194 302.5,-194 308.5,-194 314.5,-200 314.5,-206 314.5,-206 314.5,-237 314.5,-237 314.5,-243 308.5,-249 302.5,-249 302.5,-249 204.5,-249 204.5,-249 198.5,-249 192.5,-243 192.5,-237 192.5,-237 192.5,-206 192.5,-206 192.5,-200 198.5,-194 204.5,-194"/>
<text text-anchor="middle" x="253.5" y="-236.45" font-family="Helvetica,sans-Serif" font-weight="bold" font-size="9.00">utils</text>
</g>
<g id="clust7" class="cluster">
<title>cluster_src/infrastructure</title>
<path fill="#ffffff" stroke="black" stroke-width="2" d="M342.5,-144C342.5,-144 615.75,-144 615.75,-144 621.75,-144 627.75,-150 627.75,-156 627.75,-156 627.75,-285 627.75,-285 627.75,-291 621.75,-297 615.75,-297 615.75,-297 342.5,-297 342.5,-297 336.5,-297 330.5,-291 330.5,-285 330.5,-285 330.5,-156 330.5,-156 330.5,-150 336.5,-144 342.5,-144"/>
<text text-anchor="middle" x="479.12" y="-284.45" font-family="Helvetica,sans-Serif" font-weight="bold" font-size="9.00">infrastructure</text>
</g>
<g id="clust8" class="cluster">
<title>cluster_src/infrastructure/repository</title>
<path fill="#ffffff" stroke="black" stroke-width="2" d="M561.75,-152C561.75,-152 607.75,-152 607.75,-152 613.75,-152 619.75,-158 619.75,-164 619.75,-164 619.75,-195 619.75,-195 619.75,-201 613.75,-207 607.75,-207 607.75,-207 561.75,-207 561.75,-207 555.75,-207 549.75,-201 549.75,-195 549.75,-195 549.75,-164 549.75,-164 549.75,-158 555.75,-152 561.75,-152"/>
<text text-anchor="middle" x="584.75" y="-194.45" font-family="Helvetica,sans-Serif" font-weight="bold" font-size="9.00">repository</text>
</g>
<g id="clust9" class="cluster">
<title>cluster_src/infrastructure/services</title>
<path fill="#ffffff" stroke="black" stroke-width="2" d="M350.5,-152C350.5,-152 529.75,-152 529.75,-152 535.75,-152 541.75,-158 541.75,-164 541.75,-164 541.75,-195 541.75,-195 541.75,-201 535.75,-207 529.75,-207 529.75,-207 350.5,-207 350.5,-207 344.5,-207 338.5,-201 338.5,-195 338.5,-195 338.5,-164 338.5,-164 338.5,-158 344.5,-152 350.5,-152"/>
<text text-anchor="middle" x="440.12" y="-194.45" font-family="Helvetica,sans-Serif" font-weight="bold" font-size="9.00">services</text>
</g>
<g id="clust10" class="cluster">
<title>cluster_src/infrastructure/video</title>
<path fill="#ffffff" stroke="black" stroke-width="2" d="M350.5,-215C350.5,-215 396.5,-215 396.5,-215 402.5,-215 408.5,-221 408.5,-227 408.5,-227 408.5,-258 408.5,-258 408.5,-264 402.5,-270 396.5,-270 396.5,-270 350.5,-270 350.5,-270 344.5,-270 338.5,-264 338.5,-258 338.5,-258 338.5,-227 338.5,-227 338.5,-221 344.5,-215 350.5,-215"/>
<text text-anchor="middle" x="373.5" y="-257.45" font-family="Helvetica,sans-Serif" font-weight="bold" font-size="9.00">video</text>
</g>
<g id="clust6" class="cluster">
<title>cluster_src/domain</title>
<path fill="#ffffff" stroke="black" stroke-width="2" d="M561.75,-76C561.75,-76 607.75,-76 607.75,-76 613.75,-76 619.75,-82 619.75,-88 619.75,-88 619.75,-119 619.75,-119 619.75,-125 613.75,-131 607.75,-131 607.75,-131 561.75,-131 561.75,-131 555.75,-131 549.75,-125 549.75,-119 549.75,-119 549.75,-88 549.75,-88 549.75,-82 555.75,-76 561.75,-76"/>
<text text-anchor="middle" x="584.75" y="-118.45" font-family="Helvetica,sans-Serif" font-weight="bold" font-size="9.00">domain</text>
</g>
<g id="clust11" class="cluster">
<title>cluster_src/stores</title>
<path fill="#ffffff" stroke="black" stroke-width="2" d="M28,-170C28,-170 94.5,-170 94.5,-170 100.5,-170 106.5,-176 106.5,-182 106.5,-182 106.5,-213 106.5,-213 106.5,-219 100.5,-225 94.5,-225 94.5,-225 28,-225 28,-225 22,-225 16,-219 16,-213 16,-213 16,-182 16,-182 16,-176 22,-170 28,-170"/>
<text text-anchor="middle" x="61.25" y="-212.45" font-family="Helvetica,sans-Serif" font-weight="bold" font-size="9.00">stores</text>
</g>
<!-- src/application/index.ts -->
<g id="node1" class="node">
<title>src/application/index.ts</title>
<g id="a_node1"><a xlink:href="src/application/index.ts" xlink:title="index.ts">
<path fill="#ddfeff" stroke="black" d="M170.08,-107.62C170.08,-107.62 128.92,-107.62 128.92,-107.62 125.71,-107.62 122.5,-104.42 122.5,-101.21 122.5,-101.21 122.5,-94.79 122.5,-94.79 122.5,-91.58 125.71,-88.38 128.92,-88.38 128.92,-88.38 170.08,-88.38 170.08,-88.38 173.29,-88.38 176.5,-91.58 176.5,-94.79 176.5,-94.79 176.5,-101.21 176.5,-101.21 176.5,-104.42 173.29,-107.62 170.08,-107.62"/>
<text text-anchor="start" x="133.75" y="-95.08" font-family="Helvetica,sans-Serif" font-size="9.00">index.ts</text>
</a>
</g>
</g>
<!-- src/application/services/FileParserService.ts -->
<g id="node2" class="node">
<title>src/application/services/FileParserService.ts</title>
<g id="a_node2"><a xlink:href="src/application/services/FileParserService.ts" xlink:title="FileParserService.ts">
<path fill="#ddfeff" stroke="black" d="M296.33,-123.62C296.33,-123.62 210.67,-123.62 210.67,-123.62 207.46,-123.62 204.25,-120.42 204.25,-117.21 204.25,-117.21 204.25,-110.79 204.25,-110.79 204.25,-107.58 207.46,-104.38 210.67,-104.38 210.67,-104.38 296.33,-104.38 296.33,-104.38 299.54,-104.38 302.75,-107.58 302.75,-110.79 302.75,-110.79 302.75,-117.21 302.75,-117.21 302.75,-120.42 299.54,-123.62 296.33,-123.62"/>
<text text-anchor="start" x="212.25" y="-111.08" font-family="Helvetica,sans-Serif" font-size="9.00">FileParserService.ts</text>
</a>
</g>
</g>
<!-- src/application/index.ts&#45;&gt;src/application/services/FileParserService.ts -->
<g id="edge1" class="edge">
<title>src/application/index.ts&#45;&gt;src/application/services/FileParserService.ts</title>
<path fill="none" stroke="#000000" stroke-width="2" stroke-opacity="0.200000" d="M176.77,-102.12C185.15,-103.44 194.71,-104.93 204.14,-106.41"/>
<polygon fill="#000000" fill-opacity="0.200000" stroke="#000000" stroke-width="2" stroke-opacity="0.200000" points="206.95,-105.02 210.85,-113.12 202.75,-109.22 206.95,-105.02"/>
</g>
<!-- src/application/services/FiltersService.ts -->
<g id="node3" class="node">
<title>src/application/services/FiltersService.ts</title>
<g id="a_node3"><a xlink:href="src/application/services/FiltersService.ts" xlink:title="FiltersService.ts">
<path fill="#ddfeff" stroke="black" d="M287.71,-92.62C287.71,-92.62 219.29,-92.62 219.29,-92.62 216.08,-92.62 212.88,-89.42 212.88,-86.21 212.88,-86.21 212.88,-79.79 212.88,-79.79 212.88,-76.58 216.08,-73.38 219.29,-73.38 219.29,-73.38 287.71,-73.38 287.71,-73.38 290.92,-73.38 294.12,-76.58 294.12,-79.79 294.12,-79.79 294.12,-86.21 294.12,-86.21 294.12,-89.42 290.92,-92.62 287.71,-92.62"/>
<text text-anchor="start" x="220.88" y="-80.08" font-family="Helvetica,sans-Serif" font-size="9.00">FiltersService.ts</text>
</a>
</g>
</g>
<!-- src/application/index.ts&#45;&gt;src/application/services/FiltersService.ts -->
<g id="edge2" class="edge">
<title>src/application/index.ts&#45;&gt;src/application/services/FiltersService.ts</title>
<path fill="none" stroke="#000000" stroke-width="2" stroke-opacity="0.200000" d="M176.77,-94.14C185,-92.93 194.36,-91.55 203.63,-90.19"/>
<polygon fill="#000000" fill-opacity="0.200000" stroke="#000000" stroke-width="2" stroke-opacity="0.200000" points="203.83,-92.28 209.46,-89.33 203.22,-88.13 203.83,-92.28"/>
</g>
<!-- src/application/services/Hotkeys.ts -->
<g id="node4" class="node">
<title>src/application/services/Hotkeys.ts</title>
<g id="a_node4"><a xlink:href="src/application/services/Hotkeys.ts" xlink:title="Hotkeys.ts">
<path fill="#ddfeff" stroke="black" d="M276.46,-61.62C276.46,-61.62 230.54,-61.62 230.54,-61.62 227.33,-61.62 224.12,-58.42 224.12,-55.21 224.12,-55.21 224.12,-48.79 224.12,-48.79 224.12,-45.58 227.33,-42.38 230.54,-42.38 230.54,-42.38 276.46,-42.38 276.46,-42.38 279.67,-42.38 282.88,-45.58 282.88,-48.79 282.88,-48.79 282.88,-55.21 282.88,-55.21 282.88,-58.42 279.67,-61.62 276.46,-61.62"/>
<text text-anchor="start" x="232.12" y="-49.08" font-family="Helvetica,sans-Serif" font-size="9.00">Hotkeys.ts</text>
</a>
</g>
</g>
<!-- src/application/index.ts&#45;&gt;src/application/services/Hotkeys.ts -->
<g id="edge3" class="edge">
<title>src/application/index.ts&#45;&gt;src/application/services/Hotkeys.ts</title>
<path fill="none" stroke="#000000" stroke-width="2" stroke-opacity="0.200000" d="M158.73,-88.14C165.07,-81.19 174.43,-72.22 223.9,-54.93"/>
<polygon fill="#000000" fill-opacity="0.200000" stroke="#000000" stroke-width="2" stroke-opacity="0.200000" points="226.71,-53.53 230.61,-61.63 222.51,-57.73 226.71,-53.53"/>
</g>
<!-- src/domain/index.ts -->
<g id="node5" class="node">
<title>src/domain/index.ts</title>
<g id="a_node5"><a xlink:href="src/domain/index.ts" xlink:title="index.ts">
<path fill="#ddfeff" stroke="black" d="M605.33,-103.62C605.33,-103.62 564.17,-103.62 564.17,-103.62 560.96,-103.62 557.75,-100.42 557.75,-97.21 557.75,-97.21 557.75,-90.79 557.75,-90.79 557.75,-87.58 560.96,-84.38 564.17,-84.38 564.17,-84.38 605.33,-84.38 605.33,-84.38 608.54,-84.38 611.75,-87.58 611.75,-90.79 611.75,-90.79 611.75,-97.21 611.75,-97.21 611.75,-100.42 608.54,-103.62 605.33,-103.62"/>
<text text-anchor="start" x="569" y="-91.08" font-family="Helvetica,sans-Serif" font-size="9.00">index.ts</text>
</a>
</g>
</g>
<!-- src/application/services/FileParserService.ts&#45;&gt;src/domain/index.ts -->
<g id="edge4" class="edge">
<title>src/application/services/FileParserService.ts&#45;&gt;src/domain/index.ts</title>
<path fill="none" stroke="#000000" stroke-opacity="0.200000" d="M303.08,-111.05C370.84,-106.93 491.97,-99.58 550.4,-96.03"/>
<polygon fill="none" stroke="#000000" stroke-opacity="0.200000" points="550.18,-98.14 556.04,-95.68 549.92,-93.95 550.18,-98.14"/>
</g>
<!-- src/infrastructure/services/index.ts -->
<g id="node6" class="node">
<title>src/infrastructure/services/index.ts</title>
<g id="a_node6"><a xlink:href="src/infrastructure/services/index.ts" xlink:title="index.ts">
<path fill="#ddfeff" stroke="black" d="M394.08,-179.62C394.08,-179.62 352.92,-179.62 352.92,-179.62 349.71,-179.62 346.5,-176.42 346.5,-173.21 346.5,-173.21 346.5,-166.79 346.5,-166.79 346.5,-163.58 349.71,-160.38 352.92,-160.38 352.92,-160.38 394.08,-160.38 394.08,-160.38 397.29,-160.38 400.5,-163.58 400.5,-166.79 400.5,-166.79 400.5,-173.21 400.5,-173.21 400.5,-176.42 397.29,-179.62 394.08,-179.62"/>
<text text-anchor="start" x="357.75" y="-167.07" font-family="Helvetica,sans-Serif" font-size="9.00">index.ts</text>
</a>
</g>
</g>
<!-- src/application/services/FileParserService.ts&#45;&gt;src/infrastructure/services/index.ts -->
<g id="edge5" class="edge">
<title>src/application/services/FileParserService.ts&#45;&gt;src/infrastructure/services/index.ts</title>
<path fill="none" stroke="#000000" stroke-width="2" stroke-opacity="0.200000" d="M275.6,-124.01C294.44,-132.95 322.23,-146.14 343.22,-156.11"/>
<polygon fill="#000000" fill-opacity="0.200000" stroke="#000000" stroke-width="2" stroke-opacity="0.200000" points="342.13,-157.91 348.45,-158.59 343.93,-154.12 342.13,-157.91"/>
</g>
<!-- src/infrastructure/video/index.ts -->
<g id="node7" class="node">
<title>src/infrastructure/video/index.ts</title>
<g id="a_node7"><a xlink:href="src/infrastructure/video/index.ts" xlink:title="index.ts">
<path fill="#ddfeff" stroke="black" d="M394.08,-242.62C394.08,-242.62 352.92,-242.62 352.92,-242.62 349.71,-242.62 346.5,-239.42 346.5,-236.21 346.5,-236.21 346.5,-229.79 346.5,-229.79 346.5,-226.58 349.71,-223.38 352.92,-223.38 352.92,-223.38 394.08,-223.38 394.08,-223.38 397.29,-223.38 400.5,-226.58 400.5,-229.79 400.5,-229.79 400.5,-236.21 400.5,-236.21 400.5,-239.42 397.29,-242.62 394.08,-242.62"/>
<text text-anchor="start" x="357.75" y="-230.07" font-family="Helvetica,sans-Serif" font-size="9.00">index.ts</text>
</a>
</g>
</g>
<!-- src/application/services/FileParserService.ts&#45;&gt;src/infrastructure/video/index.ts -->
<g id="edge6" class="edge">
<title>src/application/services/FileParserService.ts&#45;&gt;src/infrastructure/video/index.ts</title>
<path fill="none" stroke="#000000" stroke-width="2" stroke-opacity="0.200000" d="M265.38,-124.07C279.92,-137.99 305.8,-164.42 322.5,-191 327.37,-198.76 324.36,-203.2 330.5,-210 333.34,-213.15 336.72,-215.96 340.31,-218.44"/>
<polygon fill="#000000" fill-opacity="0.200000" stroke="#000000" stroke-width="2" stroke-opacity="0.200000" points="339.08,-220.14 345.29,-221.48 341.27,-216.56 339.08,-220.14"/>
</g>
<!-- src/application/services/FiltersService.ts&#45;&gt;src/domain/index.ts -->
<g id="edge7" class="edge">
<title>src/application/services/FiltersService.ts&#45;&gt;src/domain/index.ts</title>
<path fill="none" stroke="#000000" stroke-opacity="0.200000" d="M294.54,-84.34C359.95,-86.52 488.56,-90.82 549.79,-92.87"/>
<polygon fill="none" stroke="#000000" stroke-opacity="0.200000" points="549.69,-94.96 555.75,-93.06 549.83,-90.77 549.69,-94.96"/>
</g>
<!-- src/infrastructure/services/VideoMetadataFacade.ts -->
<g id="node10" class="node">
<title>src/infrastructure/services/VideoMetadataFacade.ts</title>
<g id="a_node10"><a xlink:href="src/infrastructure/services/VideoMetadataFacade.ts" xlink:title="VideoMetadataFacade.ts">
<path fill="#ddfeff" stroke="black" d="M527.33,-179.62C527.33,-179.62 422.92,-179.62 422.92,-179.62 419.71,-179.62 416.5,-176.42 416.5,-173.21 416.5,-173.21 416.5,-166.79 416.5,-166.79 416.5,-163.58 419.71,-160.38 422.92,-160.38 422.92,-160.38 527.33,-160.38 527.33,-160.38 530.54,-160.38 533.75,-163.58 533.75,-166.79 533.75,-166.79 533.75,-173.21 533.75,-173.21 533.75,-176.42 530.54,-179.62 527.33,-179.62"/>
<text text-anchor="start" x="424.5" y="-167.07" font-family="Helvetica,sans-Serif" font-size="9.00">VideoMetadataFacade.ts</text>
</a>
</g>
</g>
<!-- src/infrastructure/services/index.ts&#45;&gt;src/infrastructure/services/VideoMetadataFacade.ts -->
<g id="edge11" class="edge">
<title>src/infrastructure/services/index.ts&#45;&gt;src/infrastructure/services/VideoMetadataFacade.ts</title>
<path fill="none" stroke="#000000" stroke-width="2" stroke-opacity="0.200000" d="M400.94,-170C405.78,-170 411,-170 416.35,-170"/>
<polygon fill="#000000" fill-opacity="0.200000" stroke="#000000" stroke-width="2" stroke-opacity="0.200000" points="419.16,-168.61 423.06,-176.71 414.96,-172.81 419.16,-168.61"/>
</g>
<!-- src/components/utils/DiagnosticsPanel.vue -->
<g id="node8" class="node">
<title>src/components/utils/DiagnosticsPanel.vue</title>
<g id="a_node8"><a xlink:href="src/components/utils/DiagnosticsPanel.vue" xlink:title="DiagnosticsPanel.vue">
<path fill="#41f083" stroke="black" d="M300.08,-221.62C300.08,-221.62 206.92,-221.62 206.92,-221.62 203.71,-221.62 200.5,-218.42 200.5,-215.21 200.5,-215.21 200.5,-208.79 200.5,-208.79 200.5,-205.58 203.71,-202.38 206.92,-202.38 206.92,-202.38 300.08,-202.38 300.08,-202.38 303.29,-202.38 306.5,-205.58 306.5,-208.79 306.5,-208.79 306.5,-215.21 306.5,-215.21 306.5,-218.42 303.29,-221.62 300.08,-221.62"/>
<text text-anchor="start" x="208.5" y="-209.07" font-family="Helvetica,sans-Serif" font-size="9.00">DiagnosticsPanel.vue</text>
</a>
</g>
</g>
<!-- src/components/utils/DiagnosticsPanel.vue&#45;&gt;src/infrastructure/services/index.ts -->
<g id="edge8" class="edge">
<title>src/components/utils/DiagnosticsPanel.vue&#45;&gt;src/infrastructure/services/index.ts</title>
<path fill="none" stroke="#000000" stroke-width="2" stroke-opacity="0.200000" d="M282.76,-201.94C299.29,-196.06 320.27,-188.59 337.8,-182.35"/>
<polygon fill="#000000" fill-opacity="0.200000" stroke="#000000" stroke-width="2" stroke-opacity="0.200000" points="338.28,-184.41 343.23,-180.42 336.88,-180.45 338.28,-184.41"/>
</g>
<!-- src/infrastructure/repository/index.ts -->
<g id="node9" class="node">
<title>src/infrastructure/repository/index.ts</title>
<g id="a_node9"><a xlink:href="src/infrastructure/repository/index.ts" xlink:title="index.ts">
<path fill="#ddfeff" stroke="black" d="M605.33,-179.62C605.33,-179.62 564.17,-179.62 564.17,-179.62 560.96,-179.62 557.75,-176.42 557.75,-173.21 557.75,-173.21 557.75,-166.79 557.75,-166.79 557.75,-163.58 560.96,-160.38 564.17,-160.38 564.17,-160.38 605.33,-160.38 605.33,-160.38 608.54,-160.38 611.75,-163.58 611.75,-166.79 611.75,-166.79 611.75,-173.21 611.75,-173.21 611.75,-176.42 608.54,-179.62 605.33,-179.62"/>
<text text-anchor="start" x="569" y="-167.07" font-family="Helvetica,sans-Serif" font-size="9.00">index.ts</text>
</a>
</g>
</g>
<!-- src/infrastructure/services/VideoMetadataFacade.ts&#45;&gt;src/domain/index.ts -->
<g id="edge9" class="edge">
<title>src/infrastructure/services/VideoMetadataFacade.ts&#45;&gt;src/domain/index.ts</title>
<path fill="none" stroke="#000000" stroke-width="2" stroke-opacity="0.200000" d="M490.2,-160.06C508.57,-147.09 540.9,-124.26 562.32,-109.13"/>
<polygon fill="#000000" fill-opacity="0.200000" stroke="#000000" stroke-width="2" stroke-opacity="0.200000" points="563.51,-110.86 567.2,-105.68 561.09,-107.43 563.51,-110.86"/>
</g>
<!-- src/infrastructure/services/VideoMetadataFacade.ts&#45;&gt;src/infrastructure/repository/index.ts -->
<g id="edge10" class="edge">
<title>src/infrastructure/services/VideoMetadataFacade.ts&#45;&gt;src/infrastructure/repository/index.ts</title>
<path fill="none" stroke="#000000" stroke-width="2" stroke-opacity="0.200000" d="M534.03,-170C539.01,-170 543.93,-170 548.64,-170"/>
<polygon fill="#000000" fill-opacity="0.200000" stroke="#000000" stroke-width="2" stroke-opacity="0.200000" points="548.35,-172.1 554.35,-170 548.35,-167.9 548.35,-172.1"/>
</g>
<!-- src/stores/videosStore.ts -->
<g id="node11" class="node">
<title>src/stores/videosStore.ts</title>
<g id="a_node11"><a xlink:href="src/stores/videosStore.ts" xlink:title="videosStore.ts">
<path fill="#ddfeff" stroke="black" d="M92.08,-197.62C92.08,-197.62 30.42,-197.62 30.42,-197.62 27.21,-197.62 24,-194.42 24,-191.21 24,-191.21 24,-184.79 24,-184.79 24,-181.58 27.21,-178.38 30.42,-178.38 30.42,-178.38 92.08,-178.38 92.08,-178.38 95.29,-178.38 98.5,-181.58 98.5,-184.79 98.5,-184.79 98.5,-191.21 98.5,-191.21 98.5,-194.42 95.29,-197.62 92.08,-197.62"/>
<text text-anchor="start" x="32" y="-185.07" font-family="Helvetica,sans-Serif" font-size="9.00">videosStore.ts</text>
</a>
</g>
</g>
<!-- src/stores/videosStore.ts&#45;&gt;src/application/index.ts -->
<g id="edge12" class="edge">
<title>src/stores/videosStore.ts&#45;&gt;src/application/index.ts</title>
<path fill="none" stroke="#000000" stroke-width="2" stroke-opacity="0.200000" d="M71.81,-178.02C86.58,-162.62 115.08,-132.87 132.87,-114.31"/>
<polygon fill="#000000" fill-opacity="0.200000" stroke="#000000" stroke-width="2" stroke-opacity="0.200000" points="134.17,-115.99 136.8,-110.21 131.14,-113.08 134.17,-115.99"/>
</g>
<!-- src/stores/videosStore.ts&#45;&gt;src/domain/index.ts -->
<g id="edge13" class="edge">
<title>src/stores/videosStore.ts&#45;&gt;src/domain/index.ts</title>
<path fill="none" stroke="#000000" stroke-opacity="0.200000" d="M61.86,-178.07C61.31,-148.65 64.17,-61.56 114.5,-23 163.23,14.34 191.11,-17 252.5,-17 252.5,-17 252.5,-17 374.5,-17 446.95,-17 525.32,-58.16 562.22,-80.29"/>
<polygon fill="none" stroke="#000000" stroke-opacity="0.200000" points="560.69,-81.82 566.9,-83.15 562.87,-78.23 560.69,-81.82"/>
</g>
<!-- src/stores/videosStore.ts&#45;&gt;src/infrastructure/services/index.ts -->
<g id="edge14" class="edge">
<title>src/stores/videosStore.ts&#45;&gt;src/infrastructure/services/index.ts</title>
<path fill="none" stroke="#000000" stroke-width="2" stroke-opacity="0.200000" d="M75.03,-197.91C115.98,-228.4 245.68,-314.98 322.5,-252 336.52,-240.51 321.95,-227.98 330.5,-212 335.9,-201.91 344.5,-192.68 352.53,-185.46"/>
<polygon fill="#000000" fill-opacity="0.200000" stroke="#000000" stroke-width="2" stroke-opacity="0.200000" points="353.54,-187.35 356.74,-181.85 350.82,-184.16 353.54,-187.35"/>
</g>
<!-- src/stores/videosStore.ts&#45;&gt;src/infrastructure/video/index.ts -->
<g id="edge15" class="edge">
<title>src/stores/videosStore.ts&#45;&gt;src/infrastructure/video/index.ts</title>
<path fill="none" stroke="#000000" stroke-width="2" stroke-opacity="0.200000" d="M69.28,-197.93C78.4,-210.14 95.44,-230.76 114.5,-243 142.18,-260.77 152.06,-261.59 184.5,-267 245,-277.08 263.88,-285.04 322.5,-267 334.41,-263.33 346.03,-255.75 355.07,-248.68"/>
<polygon fill="#000000" fill-opacity="0.200000" stroke="#000000" stroke-width="2" stroke-opacity="0.200000" points="356.38,-250.32 359.67,-244.88 353.7,-247.08 356.38,-250.32"/>
</g>
</g>
</svg>
