<?xml version="1.0" encoding="UTF-8" standalone="no"?>
<!DOCTYPE svg PUBLIC "-//W3C//DTD SVG 1.1//EN"
 "http://www.w3.org/Graphics/SVG/1.1/DTD/svg11.dtd">
<!-- Generated by graphviz version 9.0.0 (20230911.1827)
 -->
<!-- Title: dependency&#45;cruiser output Pages: 1 -->
<svg width="818pt" height="308pt"
 viewBox="0.00 0.00 817.50 308.36" xmlns="http://www.w3.org/2000/svg" xmlns:xlink="http://www.w3.org/1999/xlink">
<g id="graph0" class="graph" transform="scale(1 1) rotate(0) translate(4 304.36)">
<title>dependency&#45;cruiser output</title>
<polygon fill="white" stroke="none" points="-4,4 -4,-304.36 813.5,-304.36 813.5,4 -4,4"/>
<g id="clust1" class="cluster">
<title>cluster_src</title>
<path fill="#ffffff" stroke="black" stroke-width="2" d="M20,-8C20,-8 789.5,-8 789.5,-8 795.5,-8 801.5,-14 801.5,-20 801.5,-20 801.5,-276 801.5,-276 801.5,-282 795.5,-288 789.5,-288 789.5,-288 20,-288 20,-288 14,-288 8,-282 8,-276 8,-276 8,-20 8,-20 8,-14 14,-8 20,-8"/>
<text text-anchor="middle" x="404.75" y="-275.45" font-family="Helvetica,sans-Serif" font-weight="bold" font-size="9.00">src</text>
</g>
<g id="clust2" class="cluster">
<title>cluster_src/application</title>
<path fill="#ffffff" stroke="black" stroke-width="2" d="M28,-16C28,-16 465.25,-16 465.25,-16 471.25,-16 477.25,-22 477.25,-28 477.25,-28 477.25,-162 477.25,-162 477.25,-168 471.25,-174 465.25,-174 465.25,-174 28,-174 28,-174 22,-174 16,-168 16,-162 16,-162 16,-28 16,-28 16,-22 22,-16 28,-16"/>
<text text-anchor="middle" x="246.62" y="-161.45" font-family="Helvetica,sans-Serif" font-weight="bold" font-size="9.00">application</text>
</g>
<g id="clust3" class="cluster">
<title>cluster_src/application/services</title>
<path fill="#ffffff" stroke="black" stroke-width="2" d="M98,-30C98,-30 457.25,-30 457.25,-30 463.25,-30 469.25,-36 469.25,-42 469.25,-42 469.25,-135 469.25,-135 469.25,-141 463.25,-147 457.25,-147 457.25,-147 98,-147 98,-147 92,-147 86,-141 86,-135 86,-135 86,-42 86,-42 86,-36 92,-30 98,-30"/>
<text text-anchor="middle" x="277.62" y="-134.45" font-family="Helvetica,sans-Serif" font-weight="bold" font-size="9.00">services</text>
</g>
<g id="clust4" class="cluster">
<title>cluster_src/domain</title>
<path fill="#ffffff" stroke="black" stroke-width="2" d="M497.25,-104C497.25,-104 781.5,-104 781.5,-104 787.5,-104 793.5,-110 793.5,-116 793.5,-116 793.5,-245 793.5,-245 793.5,-251 787.5,-257 781.5,-257 781.5,-257 497.25,-257 497.25,-257 491.25,-257 485.25,-251 485.25,-245 485.25,-245 485.25,-116 485.25,-116 485.25,-110 491.25,-104 497.25,-104"/>
<text text-anchor="middle" x="639.38" y="-244.45" font-family="Helvetica,sans-Serif" font-weight="bold" font-size="9.00">domain</text>
</g>
<g id="clust5" class="cluster">
<title>cluster_src/domain/entities</title>
<path fill="#ffffff" stroke="black" stroke-width="2" d="M705.25,-112C705.25,-112 751.25,-112 751.25,-112 757.25,-112 763.25,-118 763.25,-124 763.25,-124 763.25,-155 763.25,-155 763.25,-161 757.25,-167 751.25,-167 751.25,-167 705.25,-167 705.25,-167 699.25,-167 693.25,-161 693.25,-155 693.25,-155 693.25,-124 693.25,-124 693.25,-118 699.25,-112 705.25,-112"/>
<text text-anchor="middle" x="728.25" y="-154.45" font-family="Helvetica,sans-Serif" font-weight="bold" font-size="9.00">entities</text>
</g>
<g id="clust6" class="cluster">
<title>cluster_src/domain/services</title>
<path fill="#ffffff" stroke="black" stroke-width="2" d="M567.25,-139C567.25,-139 651,-139 651,-139 657,-139 663,-145 663,-151 663,-151 663,-182 663,-182 663,-188 657,-194 651,-194 651,-194 567.25,-194 567.25,-194 561.25,-194 555.25,-188 555.25,-182 555.25,-182 555.25,-151 555.25,-151 555.25,-145 561.25,-139 567.25,-139"/>
<text text-anchor="middle" x="609.12" y="-181.45" font-family="Helvetica,sans-Serif" font-weight="bold" font-size="9.00">services</text>
</g>
<g id="clust7" class="cluster">
<title>cluster_src/domain/valueObjects</title>
<path fill="#ffffff" stroke="black" stroke-width="2" d="M683,-175C683,-175 773.5,-175 773.5,-175 779.5,-175 785.5,-181 785.5,-187 785.5,-187 785.5,-218 785.5,-218 785.5,-224 779.5,-230 773.5,-230 773.5,-230 683,-230 683,-230 677,-230 671,-224 671,-218 671,-218 671,-187 671,-187 671,-181 677,-175 683,-175"/>
<text text-anchor="middle" x="728.25" y="-217.45" font-family="Helvetica,sans-Serif" font-weight="bold" font-size="9.00">valueObjects</text>
</g>
<g id="clust8" class="cluster">
<title>cluster_src/infrastructure</title>
<path fill="#ffffff" stroke="black" stroke-width="2" d="M373.12,-182C373.12,-182 424.12,-182 424.12,-182 430.12,-182 436.12,-188 436.12,-194 436.12,-194 436.12,-225 436.12,-225 436.12,-231 430.12,-237 424.12,-237 424.12,-237 373.12,-237 373.12,-237 367.12,-237 361.12,-231 361.12,-225 361.12,-225 361.12,-194 361.12,-194 361.12,-188 367.12,-182 373.12,-182"/>
<text text-anchor="middle" x="398.62" y="-224.45" font-family="Helvetica,sans-Serif" font-weight="bold" font-size="9.00">infrastructure</text>
</g>
<!-- src/application/index.ts -->
<g id="node1" class="node">
<title>src/application/index.ts</title>
<g id="a_node1"><a xlink:href="src/application/index.ts" xlink:title="index.ts">
<path fill="#ddfeff" stroke="black" d="M71.58,-72.62C71.58,-72.62 30.42,-72.62 30.42,-72.62 27.21,-72.62 24,-69.42 24,-66.21 24,-66.21 24,-59.79 24,-59.79 24,-56.58 27.21,-53.38 30.42,-53.38 30.42,-53.38 71.58,-53.38 71.58,-53.38 74.79,-53.38 78,-56.58 78,-59.79 78,-59.79 78,-66.21 78,-66.21 78,-69.42 74.79,-72.62 71.58,-72.62"/>
<text text-anchor="start" x="35.25" y="-60.08" font-family="Helvetica,sans-Serif" font-size="9.00">index.ts</text>
</a>
</g>
</g>
<!-- src/application/services/FileParserService.ts -->
<g id="node2" class="node">
<title>src/application/services/FileParserService.ts</title>
<g id="a_node2"><a xlink:href="src/application/services/FileParserService.ts" xlink:title="FileParserService.ts">
<path fill="#ddfeff" stroke="black" d="M186.08,-88.62C186.08,-88.62 100.42,-88.62 100.42,-88.62 97.21,-88.62 94,-85.42 94,-82.21 94,-82.21 94,-75.79 94,-75.79 94,-72.58 97.21,-69.38 100.42,-69.38 100.42,-69.38 186.08,-69.38 186.08,-69.38 189.29,-69.38 192.5,-72.58 192.5,-75.79 192.5,-75.79 192.5,-82.21 192.5,-82.21 192.5,-85.42 189.29,-88.62 186.08,-88.62"/>
<text text-anchor="start" x="102" y="-76.08" font-family="Helvetica,sans-Serif" font-size="9.00">FileParserService.ts</text>
</a>
</g>
</g>
<!-- src/application/index.ts&#45;&gt;src/application/services/FileParserService.ts -->
<g id="edge1" class="edge">
<title>src/application/index.ts&#45;&gt;src/application/services/FileParserService.ts</title>
<path fill="none" stroke="#000000" stroke-width="2" stroke-opacity="0.200000" d="M78.1,-67.63C83,-68.5 88.26,-69.43 93.58,-70.37"/>
<polygon fill="#000000" fill-opacity="0.200000" stroke="#000000" stroke-width="2" stroke-opacity="0.200000" points="96.39,-68.98 100.29,-77.08 92.19,-73.18 96.39,-68.98"/>
</g>
<!-- src/application/services/FiltersService.ts -->
<g id="node3" class="node">
<title>src/application/services/FiltersService.ts</title>
<g id="a_node3"><a xlink:href="src/application/services/FiltersService.ts" xlink:title="FiltersService.ts">
<path fill="#ddfeff" stroke="black" d="M177.46,-119.62C177.46,-119.62 109.04,-119.62 109.04,-119.62 105.83,-119.62 102.62,-116.42 102.62,-113.21 102.62,-113.21 102.62,-106.79 102.62,-106.79 102.62,-103.58 105.83,-100.38 109.04,-100.38 109.04,-100.38 177.46,-100.38 177.46,-100.38 180.67,-100.38 183.88,-103.58 183.88,-106.79 183.88,-106.79 183.88,-113.21 183.88,-113.21 183.88,-116.42 180.67,-119.62 177.46,-119.62"/>
<text text-anchor="start" x="110.62" y="-107.08" font-family="Helvetica,sans-Serif" font-size="9.00">FiltersService.ts</text>
</a>
</g>
</g>
<!-- src/application/index.ts&#45;&gt;src/application/services/FiltersService.ts -->
<g id="edge2" class="edge">
<title>src/application/index.ts&#45;&gt;src/application/services/FiltersService.ts</title>
<path fill="none" stroke="#000000" stroke-width="2" stroke-opacity="0.200000" d="M60.24,-73.06C66.58,-80.17 75.94,-89.4 86,-95 88.52,-96.4 91.17,-97.68 93.9,-98.84"/>
<polygon fill="#000000" fill-opacity="0.200000" stroke="#000000" stroke-width="2" stroke-opacity="0.200000" points="93.06,-100.76 99.42,-100.91 94.54,-96.83 93.06,-100.76"/>
</g>
<!-- src/application/services/Hotkeys.ts -->
<g id="node4" class="node">
<title>src/application/services/Hotkeys.ts</title>
<g id="a_node4"><a xlink:href="src/application/services/Hotkeys.ts" xlink:title="Hotkeys.ts">
<path fill="#ddfeff" stroke="black" d="M166.21,-57.62C166.21,-57.62 120.29,-57.62 120.29,-57.62 117.08,-57.62 113.88,-54.42 113.88,-51.21 113.88,-51.21 113.88,-44.79 113.88,-44.79 113.88,-41.58 117.08,-38.38 120.29,-38.38 120.29,-38.38 166.21,-38.38 166.21,-38.38 169.42,-38.38 172.62,-41.58 172.62,-44.79 172.62,-44.79 172.62,-51.21 172.62,-51.21 172.62,-54.42 169.42,-57.62 166.21,-57.62"/>
<text text-anchor="start" x="121.88" y="-45.08" font-family="Helvetica,sans-Serif" font-size="9.00">Hotkeys.ts</text>
</a>
</g>
</g>
<!-- src/application/index.ts&#45;&gt;src/application/services/Hotkeys.ts -->
<g id="edge3" class="edge">
<title>src/application/index.ts&#45;&gt;src/application/services/Hotkeys.ts</title>
<path fill="none" stroke="#000000" stroke-width="2" stroke-opacity="0.200000" d="M78.1,-58.66C89.24,-56.81 102.28,-54.64 113.68,-52.75"/>
<polygon fill="#000000" fill-opacity="0.200000" stroke="#000000" stroke-width="2" stroke-opacity="0.200000" points="116.48,-51.36 120.38,-59.46 112.28,-55.56 116.48,-51.36"/>
</g>
<!-- src/application/services/VideoMetadataService.ts -->
<g id="node5" class="node">
<title>src/application/services/VideoMetadataService.ts</title>
<g id="a_node5"><a xlink:href="src/application/services/VideoMetadataService.ts" xlink:title="VideoMetadataService.ts">
<path fill="#ddfeff" stroke="black" d="M315.58,-119.62C315.58,-119.62 211.92,-119.62 211.92,-119.62 208.71,-119.62 205.5,-116.42 205.5,-113.21 205.5,-113.21 205.5,-106.79 205.5,-106.79 205.5,-103.58 208.71,-100.38 211.92,-100.38 211.92,-100.38 315.58,-100.38 315.58,-100.38 318.79,-100.38 322,-103.58 322,-106.79 322,-106.79 322,-113.21 322,-113.21 322,-116.42 318.79,-119.62 315.58,-119.62"/>
<text text-anchor="start" x="213.5" y="-107.08" font-family="Helvetica,sans-Serif" font-size="9.00">VideoMetadataService.ts</text>
</a>
</g>
</g>
<!-- src/application/index.ts&#45;&gt;src/application/services/VideoMetadataService.ts -->
<g id="edge4" class="edge">
<title>src/application/index.ts&#45;&gt;src/application/services/VideoMetadataService.ts</title>
<path fill="none" stroke="#000000" stroke-width="2" stroke-opacity="0.200000" d="M59.41,-53.08C65.6,-45.7 75.13,-36.21 86,-32 130.14,-14.9 149.26,-12.75 192.5,-32 220.06,-44.27 241.34,-73.27 252.95,-92.25"/>
<polygon fill="#000000" fill-opacity="0.200000" stroke="#000000" stroke-width="2" stroke-opacity="0.200000" points="251.08,-93.21 255.93,-97.32 254.7,-91.08 251.08,-93.21"/>
</g>
<!-- src/application/services/FileParserService.ts&#45;&gt;src/application/services/VideoMetadataService.ts -->
<g id="edge5" class="edge">
<title>src/application/services/FileParserService.ts&#45;&gt;src/application/services/VideoMetadataService.ts</title>
<path fill="none" stroke="#000000" stroke-width="2" stroke-opacity="0.200000" d="M182.72,-89.06C193.18,-91.8 204.61,-94.79 215.49,-97.64"/>
<polygon fill="#000000" fill-opacity="0.200000" stroke="#000000" stroke-width="2" stroke-opacity="0.200000" points="214.8,-99.63 221.14,-99.11 215.86,-95.56 214.8,-99.63"/>
</g>
<!-- src/domain/index.ts -->
<g id="node6" class="node">
<title>src/domain/index.ts</title>
<g id="a_node6"><a xlink:href="src/domain/index.ts" xlink:title="index.ts">
<path fill="#ddfeff" stroke="black" d="M540.83,-152.62C540.83,-152.62 499.67,-152.62 499.67,-152.62 496.46,-152.62 493.25,-149.42 493.25,-146.21 493.25,-146.21 493.25,-139.79 493.25,-139.79 493.25,-136.58 496.46,-133.38 499.67,-133.38 499.67,-133.38 540.83,-133.38 540.83,-133.38 544.04,-133.38 547.25,-136.58 547.25,-139.79 547.25,-139.79 547.25,-146.21 547.25,-146.21 547.25,-149.42 544.04,-152.62 540.83,-152.62"/>
<text text-anchor="start" x="504.5" y="-140.07" font-family="Helvetica,sans-Serif" font-size="9.00">index.ts</text>
</a>
</g>
</g>
<!-- src/application/services/FileParserService.ts&#45;&gt;src/domain/index.ts -->
<g id="edge6" class="edge">
<title>src/application/services/FileParserService.ts&#45;&gt;src/domain/index.ts</title>
<path fill="none" stroke="#000000" stroke-width="2" stroke-opacity="0.200000" d="M185.68,-88.99C188.13,-90.44 190.43,-92.1 192.5,-94 203.8,-104.39 196.61,-113.48 205.5,-126 249.89,-188.52 263.26,-212.92 335,-240 364.57,-251.16 450.83,-257.35 477.25,-240 503.69,-222.64 513.57,-184.68 517.2,-161.73"/>
<polygon fill="#000000" fill-opacity="0.200000" stroke="#000000" stroke-width="2" stroke-opacity="0.200000" points="519.26,-162.15 517.99,-155.92 515.1,-161.58 519.26,-162.15"/>
</g>
<!-- src/application/services/FiltersService.ts&#45;&gt;src/domain/index.ts -->
<g id="edge7" class="edge">
<title>src/application/services/FiltersService.ts&#45;&gt;src/domain/index.ts</title>
<path fill="none" stroke="#000000" stroke-opacity="0.200000" d="M145.07,-120.12C147.86,-146.96 159.54,-219.94 205.5,-250 306.58,-316.11 377.46,-318.03 477.25,-250 507.01,-229.71 515.68,-184.85 518.21,-160.15"/>
<polygon fill="none" stroke="#000000" stroke-opacity="0.200000" points="520.28,-160.56 518.7,-154.4 516.1,-160.2 520.28,-160.56"/>
</g>
<!-- src/application/services/VideoMetadataService.ts&#45;&gt;src/domain/index.ts -->
<g id="edge9" class="edge">
<title>src/application/services/VideoMetadataService.ts&#45;&gt;src/domain/index.ts</title>
<path fill="none" stroke="#000000" stroke-opacity="0.200000" d="M304.69,-120.06C314.55,-122.27 325.12,-124.43 335,-126 387.34,-134.34 448.75,-138.99 485.8,-141.24"/>
<polygon fill="none" stroke="#000000" stroke-opacity="0.200000" points="485.25,-143.31 491.36,-141.57 485.5,-139.12 485.25,-143.31"/>
</g>
<!-- src/application/services/VideoStorageDtoMapper.ts -->
<g id="node7" class="node">
<title>src/application/services/VideoStorageDtoMapper.ts</title>
<g id="a_node7"><a xlink:href="src/application/services/VideoStorageDtoMapper.ts" xlink:title="VideoStorageDtoMapper.ts">
<path fill="#ddfeff" stroke="black" d="M454.83,-119.62C454.83,-119.62 341.42,-119.62 341.42,-119.62 338.21,-119.62 335,-116.42 335,-113.21 335,-113.21 335,-106.79 335,-106.79 335,-103.58 338.21,-100.38 341.42,-100.38 341.42,-100.38 454.83,-100.38 454.83,-100.38 458.04,-100.38 461.25,-103.58 461.25,-106.79 461.25,-106.79 461.25,-113.21 461.25,-113.21 461.25,-116.42 458.04,-119.62 454.83,-119.62"/>
<text text-anchor="start" x="343" y="-107.08" font-family="Helvetica,sans-Serif" font-size="9.00">VideoStorageDtoMapper.ts</text>
</a>
</g>
</g>
<!-- src/application/services/VideoMetadataService.ts&#45;&gt;src/application/services/VideoStorageDtoMapper.ts -->
<g id="edge8" class="edge">
<title>src/application/services/VideoMetadataService.ts&#45;&gt;src/application/services/VideoStorageDtoMapper.ts</title>
<path fill="none" stroke="#000000" stroke-width="2" stroke-opacity="0.200000" d="M322.43,-110C323.56,-110 324.7,-110 325.84,-110"/>
<polygon fill="#000000" fill-opacity="0.200000" stroke="#000000" stroke-width="2" stroke-opacity="0.200000" points="325.59,-112.1 331.59,-110 325.59,-107.9 325.59,-112.1"/>
</g>
<!-- src/infrastructure/index.ts -->
<g id="node8" class="node">
<title>src/infrastructure/index.ts</title>
<g id="a_node8"><a xlink:href="src/infrastructure/index.ts" xlink:title="index.ts">
<path fill="#ddfeff" stroke="black" d="M418.71,-209.62C418.71,-209.62 377.54,-209.62 377.54,-209.62 374.33,-209.62 371.12,-206.42 371.12,-203.21 371.12,-203.21 371.12,-196.79 371.12,-196.79 371.12,-193.58 374.33,-190.38 377.54,-190.38 377.54,-190.38 418.71,-190.38 418.71,-190.38 421.92,-190.38 425.12,-193.58 425.12,-196.79 425.12,-196.79 425.12,-203.21 425.12,-203.21 425.12,-206.42 421.92,-209.62 418.71,-209.62"/>
<text text-anchor="start" x="382.38" y="-197.07" font-family="Helvetica,sans-Serif" font-size="9.00">index.ts</text>
</a>
</g>
</g>
<!-- src/application/services/VideoMetadataService.ts&#45;&gt;src/infrastructure/index.ts -->
<g id="edge10" class="edge">
<title>src/application/services/VideoMetadataService.ts&#45;&gt;src/infrastructure/index.ts</title>
<path fill="none" stroke="#000000" stroke-width="2" stroke-opacity="0.200000" d="M279.42,-119.98C302.68,-135.79 348.15,-166.7 375.26,-185.13"/>
<polygon fill="#000000" fill-opacity="0.200000" stroke="#000000" stroke-width="2" stroke-opacity="0.200000" points="373.74,-186.64 379.88,-188.28 376.1,-183.17 373.74,-186.64"/>
</g>
<!-- src/domain/entities/Video.ts -->
<g id="node9" class="node">
<title>src/domain/entities/Video.ts</title>
<g id="a_node9"><a xlink:href="src/domain/entities/Video.ts" xlink:title="Video.ts">
<path fill="#ddfeff" stroke="black" d="M748.83,-139.62C748.83,-139.62 707.67,-139.62 707.67,-139.62 704.46,-139.62 701.25,-136.42 701.25,-133.21 701.25,-133.21 701.25,-126.79 701.25,-126.79 701.25,-123.58 704.46,-120.38 707.67,-120.38 707.67,-120.38 748.83,-120.38 748.83,-120.38 752.04,-120.38 755.25,-123.58 755.25,-126.79 755.25,-126.79 755.25,-133.21 755.25,-133.21 755.25,-136.42 752.04,-139.62 748.83,-139.62"/>
<text text-anchor="start" x="711.75" y="-127.08" font-family="Helvetica,sans-Serif" font-size="9.00">Video.ts</text>
</a>
</g>
</g>
<!-- src/domain/index.ts&#45;&gt;src/domain/entities/Video.ts -->
<g id="edge12" class="edge">
<title>src/domain/index.ts&#45;&gt;src/domain/entities/Video.ts</title>
<path fill="none" stroke="#000000" stroke-opacity="0.200000" d="M547.54,-137.13C550.13,-136.69 552.74,-136.3 555.25,-136 603.17,-130.27 659.09,-129.38 693.84,-129.51"/>
<polygon fill="none" stroke="#000000" stroke-opacity="0.200000" points="693.39,-131.61 699.41,-129.54 693.42,-127.41 693.39,-131.61"/>
</g>
<!-- src/domain/services/FileVideoParser.ts -->
<g id="node10" class="node">
<title>src/domain/services/FileVideoParser.ts</title>
<g id="a_node10"><a xlink:href="src/domain/services/FileVideoParser.ts" xlink:title="FileVideoParser.ts">
<path fill="#ddfeff" stroke="black" d="M648.58,-166.62C648.58,-166.62 569.67,-166.62 569.67,-166.62 566.46,-166.62 563.25,-163.42 563.25,-160.21 563.25,-160.21 563.25,-153.79 563.25,-153.79 563.25,-150.58 566.46,-147.38 569.67,-147.38 569.67,-147.38 648.58,-147.38 648.58,-147.38 651.79,-147.38 655,-150.58 655,-153.79 655,-153.79 655,-160.21 655,-160.21 655,-163.42 651.79,-166.62 648.58,-166.62"/>
<text text-anchor="start" x="571.25" y="-154.07" font-family="Helvetica,sans-Serif" font-size="9.00">FileVideoParser.ts</text>
</a>
</g>
</g>
<!-- src/domain/index.ts&#45;&gt;src/domain/services/FileVideoParser.ts -->
<g id="edge13" class="edge">
<title>src/domain/index.ts&#45;&gt;src/domain/services/FileVideoParser.ts</title>
<path fill="none" stroke="#000000" stroke-width="2" stroke-opacity="0.200000" d="M547.32,-147.2C549.46,-147.55 551.67,-147.9 553.92,-148.26"/>
<polygon fill="#000000" fill-opacity="0.200000" stroke="#000000" stroke-width="2" stroke-opacity="0.200000" points="553.51,-150.33 559.76,-149.21 554.18,-146.18 553.51,-150.33"/>
</g>
<!-- src/application/services/VideoStorageDtoMapper.ts&#45;&gt;src/domain/index.ts -->
<g id="edge11" class="edge">
<title>src/application/services/VideoStorageDtoMapper.ts&#45;&gt;src/domain/index.ts</title>
<path fill="none" stroke="#000000" stroke-opacity="0.200000" d="M435.82,-120.08C451.85,-124.49 470.52,-129.61 486.13,-133.9"/>
<polygon fill="none" stroke="#000000" stroke-opacity="0.200000" points="485.26,-135.84 491.6,-135.41 486.38,-131.79 485.26,-135.84"/>
</g>
<!-- src/domain/services/FileVideoParser.ts&#45;&gt;src/domain/entities/Video.ts -->
<g id="edge14" class="edge">
<title>src/domain/services/FileVideoParser.ts&#45;&gt;src/domain/entities/Video.ts</title>
<path fill="none" stroke="#000000" stroke-opacity="0.200000" d="M653.74,-146.95C667,-143.89 681.37,-140.58 693.85,-137.7"/>
<polygon fill="none" stroke="#000000" stroke-opacity="0.200000" points="694.11,-139.8 699.48,-136.4 693.16,-135.7 694.11,-139.8"/>
</g>
<!-- src/domain/valueObjects/ParsedVideoData.ts -->
<g id="node11" class="node">
<title>src/domain/valueObjects/ParsedVideoData.ts</title>
<g id="a_node11"><a xlink:href="src/domain/valueObjects/ParsedVideoData.ts" xlink:title="ParsedVideoData.ts">
<path fill="#ddfeff" stroke="black" d="M771.08,-202.62C771.08,-202.62 685.42,-202.62 685.42,-202.62 682.21,-202.62 679,-199.42 679,-196.21 679,-196.21 679,-189.79 679,-189.79 679,-186.58 682.21,-183.38 685.42,-183.38 685.42,-183.38 771.08,-183.38 771.08,-183.38 774.29,-183.38 777.5,-186.58 777.5,-189.79 777.5,-189.79 777.5,-196.21 777.5,-196.21 777.5,-199.42 774.29,-202.62 771.08,-202.62"/>
<text text-anchor="start" x="687" y="-190.07" font-family="Helvetica,sans-Serif" font-size="9.00">ParsedVideoData.ts</text>
</a>
</g>
</g>
<!-- src/domain/services/FileVideoParser.ts&#45;&gt;src/domain/valueObjects/ParsedVideoData.ts -->
<g id="edge15" class="edge">
<title>src/domain/services/FileVideoParser.ts&#45;&gt;src/domain/valueObjects/ParsedVideoData.ts</title>
<path fill="none" stroke="#000000" stroke-width="2" stroke-opacity="0.200000" d="M643.06,-167.12C656.4,-171.22 671.94,-176 686.02,-180.33"/>
<polygon fill="#000000" fill-opacity="0.200000" stroke="#000000" stroke-width="2" stroke-opacity="0.200000" points="685.31,-182.31 691.67,-182.06 686.55,-178.29 685.31,-182.31"/>
</g>
</g>
</svg>
