<?xml version="1.0" encoding="UTF-8" standalone="no"?>
<!DOCTYPE svg PUBLIC "-//W3C//DTD SVG 1.1//EN"
 "http://www.w3.org/Graphics/SVG/1.1/DTD/svg11.dtd">
<!-- Generated by graphviz version 9.0.0 (20230911.1827)
 -->
<!-- Title: dependency&#45;cruiser output Pages: 1 -->
<svg width="494pt" height="284pt"
 viewBox="0.00 0.00 494.00 284.00" xmlns="http://www.w3.org/2000/svg" xmlns:xlink="http://www.w3.org/1999/xlink">
<g id="graph0" class="graph" transform="scale(1 1) rotate(0) translate(4 280)">
<title>dependency&#45;cruiser output</title>
<polygon fill="white" stroke="none" points="-4,4 -4,-280 490,-280 490,4 -4,4"/>
<g id="clust1" class="cluster">
<title>cluster_src</title>
<path fill="#ffffff" stroke="black" stroke-width="2" d="M20,-8C20,-8 466,-8 466,-8 472,-8 478,-14 478,-20 478,-20 478,-256 478,-256 478,-262 472,-268 466,-268 466,-268 20,-268 20,-268 14,-268 8,-262 8,-256 8,-256 8,-20 8,-20 8,-14 14,-8 20,-8"/>
<text text-anchor="middle" x="243" y="-255.45" font-family="Helvetica,sans-Serif" font-weight="bold" font-size="9.00">src</text>
</g>
<g id="clust2" class="cluster">
<title>cluster_src/application</title>
<path fill="#ffffff" stroke="black" stroke-width="2" d="M28,-16C28,-16 334.25,-16 334.25,-16 340.25,-16 346.25,-22 346.25,-28 346.25,-28 346.25,-131 346.25,-131 346.25,-137 340.25,-143 334.25,-143 334.25,-143 28,-143 28,-143 22,-143 16,-137 16,-131 16,-131 16,-28 16,-28 16,-22 22,-16 28,-16"/>
<text text-anchor="middle" x="181.12" y="-130.45" font-family="Helvetica,sans-Serif" font-weight="bold" font-size="9.00">application</text>
</g>
<g id="clust3" class="cluster">
<title>cluster_src/application/services</title>
<path fill="#ffffff" stroke="black" stroke-width="2" d="M98,-30C98,-30 326.25,-30 326.25,-30 332.25,-30 338.25,-36 338.25,-42 338.25,-42 338.25,-104 338.25,-104 338.25,-110 332.25,-116 326.25,-116 326.25,-116 98,-116 98,-116 92,-116 86,-110 86,-104 86,-104 86,-42 86,-42 86,-36 92,-30 98,-30"/>
<text text-anchor="middle" x="212.12" y="-103.45" font-family="Helvetica,sans-Serif" font-weight="bold" font-size="9.00">services</text>
</g>
<g id="clust4" class="cluster">
<title>cluster_src/domain</title>
<path fill="#ffffff" stroke="black" stroke-width="2" d="M249,-151C249,-151 458,-151 458,-151 464,-151 470,-157 470,-163 470,-163 470,-229 470,-229 470,-235 464,-241 458,-241 458,-241 249,-241 249,-241 243,-241 237,-235 237,-229 237,-229 237,-163 237,-163 237,-157 243,-151 249,-151"/>
<text text-anchor="middle" x="353.5" y="-228.45" font-family="Helvetica,sans-Serif" font-weight="bold" font-size="9.00">domain</text>
</g>
<g id="clust5" class="cluster">
<title>cluster_src/domain/services</title>
<path fill="#ffffff" stroke="black" stroke-width="2" d="M366.25,-159C366.25,-159 450,-159 450,-159 456,-159 462,-165 462,-171 462,-171 462,-202 462,-202 462,-208 456,-214 450,-214 450,-214 366.25,-214 366.25,-214 360.25,-214 354.25,-208 354.25,-202 354.25,-202 354.25,-171 354.25,-171 354.25,-165 360.25,-159 366.25,-159"/>
<text text-anchor="middle" x="408.12" y="-201.45" font-family="Helvetica,sans-Serif" font-weight="bold" font-size="9.00">services</text>
</g>
<g id="clust6" class="cluster">
<title>cluster_src/infrastructure</title>
<path fill="#ffffff" stroke="black" stroke-width="2" d="M383.12,-30C383.12,-30 434.12,-30 434.12,-30 440.12,-30 446.12,-36 446.12,-42 446.12,-42 446.12,-73 446.12,-73 446.12,-79 440.12,-85 434.12,-85 434.12,-85 383.12,-85 383.12,-85 377.12,-85 371.12,-79 371.12,-73 371.12,-73 371.12,-42 371.12,-42 371.12,-36 377.12,-30 383.12,-30"/>
<text text-anchor="middle" x="408.62" y="-72.45" font-family="Helvetica,sans-Serif" font-weight="bold" font-size="9.00">infrastructure</text>
</g>
<!-- src/application/index.ts -->
<g id="node1" class="node">
<title>src/application/index.ts</title>
<g id="a_node1"><a xlink:href="src/application/index.ts" xlink:title="index.ts">
<path fill="#ddfeff" stroke="black" d="M71.58,-57.62C71.58,-57.62 30.42,-57.62 30.42,-57.62 27.21,-57.62 24,-54.42 24,-51.21 24,-51.21 24,-44.79 24,-44.79 24,-41.58 27.21,-38.38 30.42,-38.38 30.42,-38.38 71.58,-38.38 71.58,-38.38 74.79,-38.38 78,-41.58 78,-44.79 78,-44.79 78,-51.21 78,-51.21 78,-54.42 74.79,-57.62 71.58,-57.62"/>
<text text-anchor="start" x="35.25" y="-45.08" font-family="Helvetica,sans-Serif" font-size="9.00">index.ts</text>
</a>
</g>
</g>
<!-- src/application/services/FiltersService.ts -->
<g id="node2" class="node">
<title>src/application/services/FiltersService.ts</title>
<g id="a_node2"><a xlink:href="src/application/services/FiltersService.ts" xlink:title="FiltersService.ts">
<path fill="#ddfeff" stroke="black" d="M181.58,-88.62C181.58,-88.62 113.17,-88.62 113.17,-88.62 109.96,-88.62 106.75,-85.42 106.75,-82.21 106.75,-82.21 106.75,-75.79 106.75,-75.79 106.75,-72.58 109.96,-69.38 113.17,-69.38 113.17,-69.38 181.58,-69.38 181.58,-69.38 184.79,-69.38 188,-72.58 188,-75.79 188,-75.79 188,-82.21 188,-82.21 188,-85.42 184.79,-88.62 181.58,-88.62"/>
<text text-anchor="start" x="114.75" y="-76.08" font-family="Helvetica,sans-Serif" font-size="9.00">FiltersService.ts</text>
</a>
</g>
</g>
<!-- src/application/index.ts&#45;&gt;src/application/services/FiltersService.ts -->
<g id="edge1" class="edge">
<title>src/application/index.ts&#45;&gt;src/application/services/FiltersService.ts</title>
<path fill="none" stroke="#000000" stroke-width="2" stroke-opacity="0.200000" d="M71.5,-57.98C76.18,-60.14 81.21,-62.29 86,-64 89.87,-65.38 93.92,-66.67 98.01,-67.89"/>
<polygon fill="#000000" fill-opacity="0.200000" stroke="#000000" stroke-width="2" stroke-opacity="0.200000" points="97.17,-69.83 103.51,-69.43 98.3,-65.79 97.17,-69.83"/>
</g>
<!-- src/application/services/VideoMetadataService.ts -->
<g id="node3" class="node">
<title>src/application/services/VideoMetadataService.ts</title>
<g id="a_node3"><a xlink:href="src/application/services/VideoMetadataService.ts" xlink:title="VideoMetadataService.ts">
<path fill="#ddfeff" stroke="black" d="M323.83,-57.62C323.83,-57.62 220.17,-57.62 220.17,-57.62 216.96,-57.62 213.75,-54.42 213.75,-51.21 213.75,-51.21 213.75,-44.79 213.75,-44.79 213.75,-41.58 216.96,-38.38 220.17,-38.38 220.17,-38.38 323.83,-38.38 323.83,-38.38 327.04,-38.38 330.25,-41.58 330.25,-44.79 330.25,-44.79 330.25,-51.21 330.25,-51.21 330.25,-54.42 327.04,-57.62 323.83,-57.62"/>
<text text-anchor="start" x="221.75" y="-45.08" font-family="Helvetica,sans-Serif" font-size="9.00">VideoMetadataService.ts</text>
</a>
</g>
</g>
<!-- src/application/index.ts&#45;&gt;src/application/services/VideoMetadataService.ts -->
<g id="edge2" class="edge">
<title>src/application/index.ts&#45;&gt;src/application/services/VideoMetadataService.ts</title>
<path fill="none" stroke="#000000" stroke-width="2" stroke-opacity="0.200000" d="M69.47,-37.99C74.63,-35.53 80.4,-33.25 86,-32 132.02,-21.71 185.85,-28.41 223.54,-36.03"/>
<polygon fill="#000000" fill-opacity="0.200000" stroke="#000000" stroke-width="2" stroke-opacity="0.200000" points="223.01,-38.07 229.32,-37.25 223.88,-33.96 223.01,-38.07"/>
</g>
<!-- src/application/services/VideoParserService.ts -->
<g id="node4" class="node">
<title>src/application/services/VideoParserService.ts</title>
<g id="a_node4"><a xlink:href="src/application/services/VideoParserService.ts" xlink:title="VideoParserService.ts">
<path fill="#ddfeff" stroke="black" d="M194.33,-57.62C194.33,-57.62 100.42,-57.62 100.42,-57.62 97.21,-57.62 94,-54.42 94,-51.21 94,-51.21 94,-44.79 94,-44.79 94,-41.58 97.21,-38.38 100.42,-38.38 100.42,-38.38 194.33,-38.38 194.33,-38.38 197.54,-38.38 200.75,-41.58 200.75,-44.79 200.75,-44.79 200.75,-51.21 200.75,-51.21 200.75,-54.42 197.54,-57.62 194.33,-57.62"/>
<text text-anchor="start" x="102" y="-45.08" font-family="Helvetica,sans-Serif" font-size="9.00">VideoParserService.ts</text>
</a>
</g>
</g>
<!-- src/application/index.ts&#45;&gt;src/application/services/VideoParserService.ts -->
<g id="edge3" class="edge">
<title>src/application/index.ts&#45;&gt;src/application/services/VideoParserService.ts</title>
<path fill="none" stroke="#000000" stroke-width="2" stroke-opacity="0.200000" d="M78.29,-48C80.39,-48 82.56,-48 84.77,-48"/>
<polygon fill="#000000" fill-opacity="0.200000" stroke="#000000" stroke-width="2" stroke-opacity="0.200000" points="84.48,-50.1 90.48,-48 84.48,-45.9 84.48,-50.1"/>
</g>
<!-- src/infrastructure/index.ts -->
<g id="node5" class="node">
<title>src/infrastructure/index.ts</title>
<g id="a_node5"><a xlink:href="src/infrastructure/index.ts" xlink:title="index.ts">
<path fill="#ddfeff" stroke="black" d="M428.71,-57.62C428.71,-57.62 387.54,-57.62 387.54,-57.62 384.33,-57.62 381.12,-54.42 381.12,-51.21 381.12,-51.21 381.12,-44.79 381.12,-44.79 381.12,-41.58 384.33,-38.38 387.54,-38.38 387.54,-38.38 428.71,-38.38 428.71,-38.38 431.92,-38.38 435.12,-41.58 435.12,-44.79 435.12,-44.79 435.12,-51.21 435.12,-51.21 435.12,-54.42 431.92,-57.62 428.71,-57.62"/>
<text text-anchor="start" x="392.38" y="-45.08" font-family="Helvetica,sans-Serif" font-size="9.00">index.ts</text>
</a>
</g>
</g>
<!-- src/application/services/VideoMetadataService.ts&#45;&gt;src/infrastructure/index.ts -->
<g id="edge4" class="edge">
<title>src/application/services/VideoMetadataService.ts&#45;&gt;src/infrastructure/index.ts</title>
<path fill="none" stroke="#000000" stroke-width="2" stroke-opacity="0.200000" d="M330.66,-48C344.71,-48 359.33,-48 371.97,-48"/>
<polygon fill="#000000" fill-opacity="0.200000" stroke="#000000" stroke-width="2" stroke-opacity="0.200000" points="371.77,-50.1 377.77,-48 371.77,-45.9 371.77,-50.1"/>
</g>
<!-- src/application/services/VideoParserService.ts&#45;&gt;src/application/services/VideoMetadataService.ts -->
<g id="edge5" class="edge">
<title>src/application/services/VideoParserService.ts&#45;&gt;src/application/services/VideoMetadataService.ts</title>
<path fill="none" stroke="#000000" stroke-width="2" stroke-opacity="0.200000" d="M201.09,-48C202.39,-48 203.69,-48 205,-48"/>
<polygon fill="#000000" fill-opacity="0.200000" stroke="#000000" stroke-width="2" stroke-opacity="0.200000" points="204.61,-50.1 210.61,-48 204.61,-45.9 204.61,-50.1"/>
</g>
<!-- src/domain/index.ts -->
<g id="node6" class="node">
<title>src/domain/index.ts</title>
<g id="a_node6"><a xlink:href="src/domain/index.ts" xlink:title="index.ts">
<path fill="#ddfeff" stroke="black" d="M292.58,-182.62C292.58,-182.62 251.42,-182.62 251.42,-182.62 248.21,-182.62 245,-179.42 245,-176.21 245,-176.21 245,-169.79 245,-169.79 245,-166.58 248.21,-163.38 251.42,-163.38 251.42,-163.38 292.58,-163.38 292.58,-163.38 295.79,-163.38 299,-166.58 299,-169.79 299,-169.79 299,-176.21 299,-176.21 299,-179.42 295.79,-182.62 292.58,-182.62"/>
<text text-anchor="start" x="256.25" y="-170.07" font-family="Helvetica,sans-Serif" font-size="9.00">index.ts</text>
</a>
</g>
</g>
<!-- src/application/services/VideoParserService.ts&#45;&gt;src/domain/index.ts -->
<g id="edge6" class="edge">
<title>src/application/services/VideoParserService.ts&#45;&gt;src/domain/index.ts</title>
<path fill="none" stroke="#000000" stroke-width="2" stroke-opacity="0.200000" d="M194.67,-57.93C196.87,-59.4 198.93,-61.08 200.75,-63 218.35,-81.52 201.02,-96.84 213.75,-119 222.57,-134.35 237.12,-148 249.35,-157.73"/>
<polygon fill="#000000" fill-opacity="0.200000" stroke="#000000" stroke-width="2" stroke-opacity="0.200000" points="247.78,-159.17 253.82,-161.15 250.33,-155.84 247.78,-159.17"/>
</g>
<!-- src/domain/services/FileVideoParser.ts -->
<g id="node7" class="node">
<title>src/domain/services/FileVideoParser.ts</title>
<g id="a_node7"><a xlink:href="src/domain/services/FileVideoParser.ts" xlink:title="FileVideoParser.ts">
<path fill="#ddfeff" stroke="black" d="M447.58,-186.62C447.58,-186.62 368.67,-186.62 368.67,-186.62 365.46,-186.62 362.25,-183.42 362.25,-180.21 362.25,-180.21 362.25,-173.79 362.25,-173.79 362.25,-170.58 365.46,-167.38 368.67,-167.38 368.67,-167.38 447.58,-167.38 447.58,-167.38 450.79,-167.38 454,-170.58 454,-173.79 454,-173.79 454,-180.21 454,-180.21 454,-183.42 450.79,-186.62 447.58,-186.62"/>
<text text-anchor="start" x="370.25" y="-174.07" font-family="Helvetica,sans-Serif" font-size="9.00">FileVideoParser.ts</text>
</a>
</g>
</g>
<!-- src/domain/index.ts&#45;&gt;src/domain/services/FileVideoParser.ts -->
<g id="edge7" class="edge">
<title>src/domain/index.ts&#45;&gt;src/domain/services/FileVideoParser.ts</title>
<path fill="none" stroke="#000000" stroke-width="2" stroke-opacity="0.200000" d="M299.5,-173.79C314.79,-174.25 334.58,-174.84 353.01,-175.39"/>
<polygon fill="#000000" fill-opacity="0.200000" stroke="#000000" stroke-width="2" stroke-opacity="0.200000" points="352.84,-177.48 358.9,-175.56 352.96,-173.28 352.84,-177.48"/>
</g>
</g>
</svg>
