<?xml version="1.0" encoding="UTF-8" standalone="no"?>
<!DOCTYPE svg PUBLIC "-//W3C//DTD SVG 1.1//EN"
 "http://www.w3.org/Graphics/SVG/1.1/DTD/svg11.dtd">
<!-- Generated by graphviz version 9.0.0 (20230911.1827)
 -->
<!-- Title: dependency&#45;cruiser output Pages: 1 -->
<svg width="876pt" height="373pt"
 viewBox="0.00 0.00 876.00 373.00" xmlns="http://www.w3.org/2000/svg" xmlns:xlink="http://www.w3.org/1999/xlink">
<g id="graph0" class="graph" transform="scale(1 1) rotate(0) translate(4 369)">
<title>dependency&#45;cruiser output</title>
<polygon fill="white" stroke="none" points="-4,4 -4,-369 872,-369 872,4 -4,4"/>
<g id="clust1" class="cluster">
<title>cluster_src</title>
<path fill="#ffffff" stroke="black" stroke-width="2" d="M20,-8C20,-8 848,-8 848,-8 854,-8 860,-14 860,-20 860,-20 860,-345 860,-345 860,-351 854,-357 848,-357 848,-357 20,-357 20,-357 14,-357 8,-351 8,-345 8,-345 8,-20 8,-20 8,-14 14,-8 20,-8"/>
<text text-anchor="middle" x="434" y="-344.45" font-family="Helvetica,sans-Serif" font-weight="bold" font-size="9.00">src</text>
</g>
<g id="clust2" class="cluster">
<title>cluster_src/components</title>
<path fill="#ffffff" stroke="black" stroke-width="2" d="M28,-147C28,-147 128.5,-147 128.5,-147 134.5,-147 140.5,-153 140.5,-159 140.5,-159 140.5,-253 140.5,-253 140.5,-259 134.5,-265 128.5,-265 128.5,-265 28,-265 28,-265 22,-265 16,-259 16,-253 16,-253 16,-159 16,-159 16,-153 22,-147 28,-147"/>
<text text-anchor="middle" x="78.25" y="-252.45" font-family="Helvetica,sans-Serif" font-weight="bold" font-size="9.00">components</text>
</g>
<g id="clust3" class="cluster">
<title>cluster_src/components/FolderSelector</title>
<path fill="#ffffff" stroke="black" stroke-width="2" d="M36,-155C36,-155 120.5,-155 120.5,-155 126.5,-155 132.5,-161 132.5,-167 132.5,-167 132.5,-198 132.5,-198 132.5,-204 126.5,-210 120.5,-210 120.5,-210 36,-210 36,-210 30,-210 24,-204 24,-198 24,-198 24,-167 24,-167 24,-161 30,-155 36,-155"/>
<text text-anchor="middle" x="78.25" y="-197.45" font-family="Helvetica,sans-Serif" font-weight="bold" font-size="9.00">FolderSelector</text>
</g>
<g id="clust4" class="cluster">
<title>cluster_src/services</title>
<path fill="#ffffff" stroke="black" stroke-width="2" d="M259,-44C259,-44 840,-44 840,-44 846,-44 852,-50 852,-56 852,-56 852,-318 852,-318 852,-324 846,-330 840,-330 840,-330 259,-330 259,-330 253,-330 247,-324 247,-318 247,-318 247,-56 247,-56 247,-50 253,-44 259,-44"/>
<text text-anchor="middle" x="549.5" y="-317.45" font-family="Helvetica,sans-Serif" font-weight="bold" font-size="9.00">services</text>
</g>
<g id="clust6" class="cluster">
<title>cluster_src/services/StorageController</title>
<path fill="#ffffff" stroke="black" stroke-width="2" d="M329,-52C329,-52 832,-52 832,-52 838,-52 844,-58 844,-64 844,-64 844,-228 844,-228 844,-234 838,-240 832,-240 832,-240 329,-240 329,-240 323,-240 317,-234 317,-228 317,-228 317,-64 317,-64 317,-58 323,-52 329,-52"/>
<text text-anchor="middle" x="580.5" y="-227.45" font-family="Helvetica,sans-Serif" font-weight="bold" font-size="9.00">StorageController</text>
</g>
<g id="clust7" class="cluster">
<title>cluster_src/services/StorageController/migrations</title>
<path fill="#ffffff" stroke="black" stroke-width="2" d="M539,-60C539,-60 824,-60 824,-60 830,-60 836,-66 836,-72 836,-72 836,-201 836,-201 836,-207 830,-213 824,-213 824,-213 539,-213 539,-213 533,-213 527,-207 527,-201 527,-201 527,-72 527,-72 527,-66 533,-60 539,-60"/>
<text text-anchor="middle" x="681.5" y="-200.45" font-family="Helvetica,sans-Serif" font-weight="bold" font-size="9.00">migrations</text>
</g>
<g id="clust10" class="cluster">
<title>cluster_src/services/StorageController/migrations/v2</title>
<path fill="#ffffff" stroke="black" stroke-width="2" d="M692,-131C692,-131 738,-131 738,-131 744,-131 750,-137 750,-143 750,-143 750,-174 750,-174 750,-180 744,-186 738,-186 738,-186 692,-186 692,-186 686,-186 680,-180 680,-174 680,-174 680,-143 680,-143 680,-137 686,-131 692,-131"/>
<text text-anchor="middle" x="715" y="-173.45" font-family="Helvetica,sans-Serif" font-weight="bold" font-size="9.00">v2</text>
</g>
<g id="clust8" class="cluster">
<title>cluster_src/services/StorageController/migrations/utils</title>
<path fill="#ffffff" stroke="black" stroke-width="2" d="M770,-99C770,-99 816,-99 816,-99 822,-99 828,-105 828,-111 828,-111 828,-142 828,-142 828,-148 822,-154 816,-154 816,-154 770,-154 770,-154 764,-154 758,-148 758,-142 758,-142 758,-111 758,-111 758,-105 764,-99 770,-99"/>
<text text-anchor="middle" x="793" y="-141.45" font-family="Helvetica,sans-Serif" font-weight="bold" font-size="9.00">utils</text>
</g>
<g id="clust9" class="cluster">
<title>cluster_src/services/StorageController/migrations/v1</title>
<path fill="#ffffff" stroke="black" stroke-width="2" d="M692,-68C692,-68 738,-68 738,-68 744,-68 750,-74 750,-80 750,-80 750,-111 750,-111 750,-117 744,-123 738,-123 738,-123 692,-123 692,-123 686,-123 680,-117 680,-111 680,-111 680,-80 680,-80 680,-74 686,-68 692,-68"/>
<text text-anchor="middle" x="715" y="-110.45" font-family="Helvetica,sans-Serif" font-weight="bold" font-size="9.00">v1</text>
</g>
<g id="clust5" class="cluster">
<title>cluster_src/services/Filters</title>
<path fill="#ffffff" stroke="black" stroke-width="2" d="M329,-248C329,-248 478.5,-248 478.5,-248 484.5,-248 490.5,-254 490.5,-260 490.5,-260 490.5,-291 490.5,-291 490.5,-297 484.5,-303 478.5,-303 478.5,-303 329,-303 329,-303 323,-303 317,-297 317,-291 317,-291 317,-260 317,-260 317,-254 323,-248 329,-248"/>
<text text-anchor="middle" x="403.75" y="-290.45" font-family="Helvetica,sans-Serif" font-weight="bold" font-size="9.00">Filters</text>
</g>
<g id="clust11" class="cluster">
<title>cluster_src/stores</title>
<path fill="#ffffff" stroke="black" stroke-width="2" d="M160.5,-164C160.5,-164 227,-164 227,-164 233,-164 239,-170 239,-176 239,-176 239,-207 239,-207 239,-213 233,-219 227,-219 227,-219 160.5,-219 160.5,-219 154.5,-219 148.5,-213 148.5,-207 148.5,-207 148.5,-176 148.5,-176 148.5,-170 154.5,-164 160.5,-164"/>
<text text-anchor="middle" x="193.75" y="-206.45" font-family="Helvetica,sans-Serif" font-weight="bold" font-size="9.00">stores</text>
</g>
<!-- src/App.vue -->
<g id="node1" class="node">
<title>src/App.vue</title>
<g id="a_node1"><a xlink:href="vscode://file/E:\Coding\Projects\bulk-video-review/src/App.vue" xlink:title="App.vue">
<path fill="#41f083" stroke="black" d="M302.58,-35.62C302.58,-35.62 261.42,-35.62 261.42,-35.62 258.21,-35.62 255,-32.42 255,-29.21 255,-29.21 255,-22.79 255,-22.79 255,-19.58 258.21,-16.38 261.42,-16.38 261.42,-16.38 302.58,-16.38 302.58,-16.38 305.79,-16.38 309,-19.58 309,-22.79 309,-22.79 309,-29.21 309,-29.21 309,-32.42 305.79,-35.62 302.58,-35.62"/>
<text text-anchor="start" x="265.88" y="-23.07" font-family="Helvetica,sans-Serif" font-size="9.00">App.vue</text>
</a>
</g>
</g>
<!-- src/services/StorageController/index.ts -->
<g id="node2" class="node">
<title>src/services/StorageController/index.ts</title>
<g id="a_node2"><a xlink:href="vscode://file/E:\Coding\Projects\bulk-video-review/src/services/StorageController/index.ts" xlink:title="index.ts">
<path fill="#ddfeff" stroke="black" d="M372.58,-126.62C372.58,-126.62 331.42,-126.62 331.42,-126.62 328.21,-126.62 325,-123.42 325,-120.21 325,-120.21 325,-113.79 325,-113.79 325,-110.58 328.21,-107.38 331.42,-107.38 331.42,-107.38 372.58,-107.38 372.58,-107.38 375.79,-107.38 379,-110.58 379,-113.79 379,-113.79 379,-120.21 379,-120.21 379,-123.42 375.79,-126.62 372.58,-126.62"/>
<text text-anchor="start" x="336.25" y="-114.08" font-family="Helvetica,sans-Serif" font-size="9.00">index.ts</text>
</a>
</g>
</g>
<!-- src/App.vue&#45;&gt;src/services/StorageController/index.ts -->
<g id="edge1" class="edge">
<title>src/App.vue&#45;&gt;src/services/StorageController/index.ts</title>
<path fill="none" stroke="#000000" stroke-width="2" stroke-opacity="0.200000" d="M303.13,-36.08C305.24,-37.57 307.25,-39.22 309,-41 325.4,-57.7 337.35,-82.1 344.22,-98.71"/>
<polygon fill="#000000" fill-opacity="0.200000" stroke="#000000" stroke-width="2" stroke-opacity="0.200000" points="342.24,-99.42 346.4,-104.23 346.15,-97.88 342.24,-99.42"/>
</g>
<!-- src/services/StorageController/VideoMetadataController.ts -->
<g id="node9" class="node">
<title>src/services/StorageController/VideoMetadataController.ts</title>
<g id="a_node9"><a xlink:href="vscode://file/E:\Coding\Projects\bulk-video-review/src/services/StorageController/VideoMetadataController.ts" xlink:title="VideoMetadataController.ts">
<path fill="#ddfeff" stroke="black" d="M512.58,-126.62C512.58,-126.62 398.42,-126.62 398.42,-126.62 395.21,-126.62 392,-123.42 392,-120.21 392,-120.21 392,-113.79 392,-113.79 392,-110.58 395.21,-107.38 398.42,-107.38 398.42,-107.38 512.58,-107.38 512.58,-107.38 515.79,-107.38 519,-110.58 519,-113.79 519,-113.79 519,-120.21 519,-120.21 519,-123.42 515.79,-126.62 512.58,-126.62"/>
<text text-anchor="start" x="400" y="-114.08" font-family="Helvetica,sans-Serif" font-size="9.00">VideoMetadataController.ts</text>
</a>
</g>
</g>
<!-- src/services/StorageController/index.ts&#45;&gt;src/services/StorageController/VideoMetadataController.ts -->
<g id="edge7" class="edge">
<title>src/services/StorageController/index.ts&#45;&gt;src/services/StorageController/VideoMetadataController.ts</title>
<path fill="none" stroke="#000000" stroke-width="2" stroke-opacity="0.200000" d="M379.4,-117C380.49,-117 381.6,-117 382.73,-117"/>
<polygon fill="#000000" fill-opacity="0.200000" stroke="#000000" stroke-width="2" stroke-opacity="0.200000" points="382.62,-119.1 388.62,-117 382.62,-114.9 382.62,-119.1"/>
</g>
<!-- src/components/FolderSelector/FolderSelector.vue -->
<g id="node3" class="node">
<title>src/components/FolderSelector/FolderSelector.vue</title>
<g id="a_node3"><a xlink:href="vscode://file/E:\Coding\Projects\bulk-video-review/src/components/FolderSelector/FolderSelector.vue" xlink:title="FolderSelector.vue">
<path fill="#41f083" stroke="black" d="M118.08,-182.62C118.08,-182.62 38.42,-182.62 38.42,-182.62 35.21,-182.62 32,-179.42 32,-176.21 32,-176.21 32,-169.79 32,-169.79 32,-166.58 35.21,-163.38 38.42,-163.38 38.42,-163.38 118.08,-163.38 118.08,-163.38 121.29,-163.38 124.5,-166.58 124.5,-169.79 124.5,-169.79 124.5,-176.21 124.5,-176.21 124.5,-179.42 121.29,-182.62 118.08,-182.62"/>
<text text-anchor="start" x="40" y="-170.07" font-family="Helvetica,sans-Serif" font-size="9.00">FolderSelector.vue</text>
</a>
</g>
</g>
<!-- src/services/index.ts -->
<g id="node4" class="node">
<title>src/services/index.ts</title>
<g id="a_node4"><a xlink:href="vscode://file/E:\Coding\Projects\bulk-video-review/src/services/index.ts" xlink:title="index.ts">
<path fill="#ddfeff" stroke="black" d="M302.58,-191.62C302.58,-191.62 261.42,-191.62 261.42,-191.62 258.21,-191.62 255,-188.42 255,-185.21 255,-185.21 255,-178.79 255,-178.79 255,-175.58 258.21,-172.38 261.42,-172.38 261.42,-172.38 302.58,-172.38 302.58,-172.38 305.79,-172.38 309,-175.58 309,-178.79 309,-178.79 309,-185.21 309,-185.21 309,-188.42 305.79,-191.62 302.58,-191.62"/>
<text text-anchor="start" x="266.25" y="-179.07" font-family="Helvetica,sans-Serif" font-size="9.00">index.ts</text>
</a>
</g>
</g>
<!-- src/components/FolderSelector/FolderSelector.vue&#45;&gt;src/services/index.ts -->
<g id="edge2" class="edge">
<title>src/components/FolderSelector/FolderSelector.vue&#45;&gt;src/services/index.ts</title>
<path fill="none" stroke="#000000" stroke-width="2" stroke-opacity="0.200000" d="M110.99,-162.92C144.05,-154.17 196.82,-145.15 239,-161 242.18,-162.19 242.85,-164 247.28,-167.39"/>
<polygon fill="#000000" fill-opacity="0.200000" stroke="#000000" stroke-width="2" stroke-opacity="0.200000" points="245.87,-168.98 252.04,-170.49 248.16,-165.46 245.87,-168.98"/>
</g>
<!-- src/stores/videosStore.ts -->
<g id="node5" class="node">
<title>src/stores/videosStore.ts</title>
<g id="a_node5"><a xlink:href="vscode://file/E:\Coding\Projects\bulk-video-review/src/stores/videosStore.ts" xlink:title="videosStore.ts">
<path fill="#ddfeff" stroke="black" d="M224.58,-191.62C224.58,-191.62 162.92,-191.62 162.92,-191.62 159.71,-191.62 156.5,-188.42 156.5,-185.21 156.5,-185.21 156.5,-178.79 156.5,-178.79 156.5,-175.58 159.71,-172.38 162.92,-172.38 162.92,-172.38 224.58,-172.38 224.58,-172.38 227.79,-172.38 231,-175.58 231,-178.79 231,-178.79 231,-185.21 231,-185.21 231,-188.42 227.79,-191.62 224.58,-191.62"/>
<text text-anchor="start" x="164.5" y="-179.07" font-family="Helvetica,sans-Serif" font-size="9.00">videosStore.ts</text>
</a>
</g>
</g>
<!-- src/components/FolderSelector/FolderSelector.vue&#45;&gt;src/stores/videosStore.ts -->
<g id="edge3" class="edge">
<title>src/components/FolderSelector/FolderSelector.vue&#45;&gt;src/stores/videosStore.ts</title>
<path fill="none" stroke="#000000" stroke-width="2" stroke-opacity="0.200000" d="M124.76,-176.61C132.3,-177.21 140.11,-177.83 147.63,-178.42"/>
<polygon fill="#000000" fill-opacity="0.200000" stroke="#000000" stroke-width="2" stroke-opacity="0.200000" points="147.14,-180.49 153.29,-178.87 147.47,-176.3 147.14,-180.49"/>
</g>
<!-- src/services/index.ts&#45;&gt;src/services/StorageController/index.ts -->
<g id="edge14" class="edge">
<title>src/services/index.ts&#45;&gt;src/services/StorageController/index.ts</title>
<path fill="none" stroke="#000000" stroke-width="2" stroke-opacity="0.200000" d="M303.37,-172.05C305.35,-170.79 307.26,-169.43 344.53,-127"/>
<polygon fill="#000000" fill-opacity="0.200000" stroke="#000000" stroke-width="2" stroke-opacity="0.200000" points="347.34,-125.6 351.24,-133.7 343.14,-129.8 347.34,-125.6"/>
</g>
<!-- src/services/Filters/index.ts -->
<g id="node8" class="node">
<title>src/services/Filters/index.ts</title>
<g id="a_node8"><a xlink:href="vscode://file/E:\Coding\Projects\bulk-video-review/src/services/Filters/index.ts" xlink:title="index.ts">
<path fill="#ddfeff" stroke="black" d="M372.58,-275.62C372.58,-275.62 331.42,-275.62 331.42,-275.62 328.21,-275.62 325,-272.42 325,-269.21 325,-269.21 325,-262.79 325,-262.79 325,-259.58 328.21,-256.38 331.42,-256.38 331.42,-256.38 372.58,-256.38 372.58,-256.38 375.79,-256.38 379,-259.58 379,-262.79 379,-262.79 379,-269.21 379,-269.21 379,-272.42 375.79,-275.62 372.58,-275.62"/>
<text text-anchor="start" x="336.25" y="-263.07" font-family="Helvetica,sans-Serif" font-size="9.00">index.ts</text>
</a>
</g>
</g>
<!-- src/services/index.ts&#45;&gt;src/services/Filters/index.ts -->
<g id="edge13" class="edge">
<title>src/services/index.ts&#45;&gt;src/services/Filters/index.ts</title>
<path fill="none" stroke="#000000" stroke-width="2" stroke-opacity="0.200000" d="M286.84,-191.98C292.16,-204.86 302.74,-227.45 332.83,-255.96"/>
<polygon fill="#000000" fill-opacity="0.200000" stroke="#000000" stroke-width="2" stroke-opacity="0.200000" points="335.63,-254.56 339.53,-262.66 331.43,-258.76 335.63,-254.56"/>
</g>
<!-- src/stores/videosStore.ts&#45;&gt;src/services/index.ts -->
<g id="edge15" class="edge">
<title>src/stores/videosStore.ts&#45;&gt;src/services/index.ts</title>
<path fill="none" stroke="#000000" stroke-width="2" stroke-opacity="0.200000" d="M231.33,-182C236.08,-182 240.95,-182 245.68,-182"/>
<polygon fill="#000000" fill-opacity="0.200000" stroke="#000000" stroke-width="2" stroke-opacity="0.200000" points="245.54,-184.1 251.54,-182 245.54,-179.9 245.54,-184.1"/>
</g>
<!-- src/components/VideoCard.vue -->
<g id="node6" class="node">
<title>src/components/VideoCard.vue</title>
<g id="a_node6"><a xlink:href="vscode://file/E:\Coding\Projects\bulk-video-review/src/components/VideoCard.vue" xlink:title="VideoCard.vue">
<path fill="#41f083" stroke="black" d="M109.83,-237.62C109.83,-237.62 46.67,-237.62 46.67,-237.62 43.46,-237.62 40.25,-234.42 40.25,-231.21 40.25,-231.21 40.25,-224.79 40.25,-224.79 40.25,-221.58 43.46,-218.38 46.67,-218.38 46.67,-218.38 109.83,-218.38 109.83,-218.38 113.04,-218.38 116.25,-221.58 116.25,-224.79 116.25,-224.79 116.25,-231.21 116.25,-231.21 116.25,-234.42 113.04,-237.62 109.83,-237.62"/>
<text text-anchor="start" x="48.25" y="-225.07" font-family="Helvetica,sans-Serif" font-size="9.00">VideoCard.vue</text>
</a>
</g>
</g>
<!-- src/components/VideoCard.vue&#45;&gt;src/services/index.ts -->
<g id="edge4" class="edge">
<title>src/components/VideoCard.vue&#45;&gt;src/services/index.ts</title>
<path fill="none" stroke="#000000" stroke-width="2" stroke-opacity="0.200000" d="M116.69,-233.85C150.13,-237.42 199.75,-238.56 239,-222 250.6,-217.11 260.88,-207.46 268.37,-198.86"/>
<polygon fill="#000000" fill-opacity="0.200000" stroke="#000000" stroke-width="2" stroke-opacity="0.200000" points="269.88,-200.33 272.06,-194.36 266.63,-197.67 269.88,-200.33"/>
</g>
<!-- src/services/Filters/Filters.ts -->
<g id="node7" class="node">
<title>src/services/Filters/Filters.ts</title>
<g id="a_node7"><a xlink:href="vscode://file/E:\Coding\Projects\bulk-video-review/src/services/Filters/Filters.ts" xlink:title="Filters.ts">
<path fill="#ddfeff" stroke="black" d="M476.08,-275.62C476.08,-275.62 434.92,-275.62 434.92,-275.62 431.71,-275.62 428.5,-272.42 428.5,-269.21 428.5,-269.21 428.5,-262.79 428.5,-262.79 428.5,-259.58 431.71,-256.38 434.92,-256.38 434.92,-256.38 476.08,-256.38 476.08,-256.38 479.29,-256.38 482.5,-259.58 482.5,-262.79 482.5,-262.79 482.5,-269.21 482.5,-269.21 482.5,-272.42 479.29,-275.62 476.08,-275.62"/>
<text text-anchor="start" x="437.88" y="-263.07" font-family="Helvetica,sans-Serif" font-size="9.00">Filters.ts</text>
</a>
</g>
</g>
<!-- src/services/Filters/index.ts&#45;&gt;src/services/Filters/Filters.ts -->
<g id="edge5" class="edge">
<title>src/services/Filters/index.ts&#45;&gt;src/services/Filters/Filters.ts</title>
<path fill="none" stroke="#000000" stroke-width="2" stroke-opacity="0.200000" d="M379.4,-266C394.44,-266 413.21,-266 428.23,-266"/>
<polygon fill="#000000" fill-opacity="0.200000" stroke="#000000" stroke-width="2" stroke-opacity="0.200000" points="431.04,-264.61 434.94,-272.71 426.84,-268.81 431.04,-264.61"/>
</g>
<!-- src/services/StorageController/migrations/index.ts -->
<g id="node10" class="node">
<title>src/services/StorageController/migrations/index.ts</title>
<g id="a_node10"><a xlink:href="vscode://file/E:\Coding\Projects\bulk-video-review/src/services/StorageController/migrations/index.ts" xlink:title="index.ts">
<path fill="#ddfeff" stroke="black" d="M582.58,-126.62C582.58,-126.62 541.42,-126.62 541.42,-126.62 538.21,-126.62 535,-123.42 535,-120.21 535,-120.21 535,-113.79 535,-113.79 535,-110.58 538.21,-107.38 541.42,-107.38 541.42,-107.38 582.58,-107.38 582.58,-107.38 585.79,-107.38 589,-110.58 589,-113.79 589,-113.79 589,-120.21 589,-120.21 589,-123.42 585.79,-126.62 582.58,-126.62"/>
<text text-anchor="start" x="546.25" y="-114.08" font-family="Helvetica,sans-Serif" font-size="9.00">index.ts</text>
</a>
</g>
</g>
<!-- src/services/StorageController/VideoMetadataController.ts&#45;&gt;src/services/StorageController/migrations/index.ts -->
<g id="edge6" class="edge">
<title>src/services/StorageController/VideoMetadataController.ts&#45;&gt;src/services/StorageController/migrations/index.ts</title>
<path fill="none" stroke="#000000" stroke-width="2" stroke-opacity="0.200000" d="M519.4,-117C521.58,-117 523.73,-117 525.84,-117"/>
<polygon fill="#000000" fill-opacity="0.200000" stroke="#000000" stroke-width="2" stroke-opacity="0.200000" points="525.74,-119.1 531.74,-117 525.74,-114.9 525.74,-119.1"/>
</g>
<!-- src/services/StorageController/migrations/migrations.ts -->
<g id="node11" class="node">
<title>src/services/StorageController/migrations/migrations.ts</title>
<g id="a_node11"><a xlink:href="vscode://file/E:\Coding\Projects\bulk-video-review/src/services/StorageController/migrations/migrations.ts" xlink:title="migrations.ts">
<path fill="#ddfeff" stroke="black" d="M665.58,-126.62C665.58,-126.62 608.42,-126.62 608.42,-126.62 605.21,-126.62 602,-123.42 602,-120.21 602,-120.21 602,-113.79 602,-113.79 602,-110.58 605.21,-107.38 608.42,-107.38 608.42,-107.38 665.58,-107.38 665.58,-107.38 668.79,-107.38 672,-110.58 672,-113.79 672,-113.79 672,-120.21 672,-120.21 672,-123.42 668.79,-126.62 665.58,-126.62"/>
<text text-anchor="start" x="610" y="-114.08" font-family="Helvetica,sans-Serif" font-size="9.00">migrations.ts</text>
</a>
</g>
</g>
<!-- src/services/StorageController/migrations/index.ts&#45;&gt;src/services/StorageController/migrations/migrations.ts -->
<g id="edge8" class="edge">
<title>src/services/StorageController/migrations/index.ts&#45;&gt;src/services/StorageController/migrations/migrations.ts</title>
<path fill="none" stroke="#000000" stroke-width="2" stroke-opacity="0.200000" d="M589.35,-117C593.36,-117 597.54,-117 601.68,-117"/>
<polygon fill="#000000" fill-opacity="0.200000" stroke="#000000" stroke-width="2" stroke-opacity="0.200000" points="604.48,-115.61 608.38,-123.71 600.28,-119.81 604.48,-115.61"/>
</g>
<!-- src/services/StorageController/migrations/v1/index.ts -->
<g id="node12" class="node">
<title>src/services/StorageController/migrations/v1/index.ts</title>
<g id="a_node12"><a xlink:href="vscode://file/E:\Coding\Projects\bulk-video-review/src/services/StorageController/migrations/v1/index.ts" xlink:title="index.ts">
<path fill="#ddfeff" stroke="black" d="M735.58,-95.62C735.58,-95.62 694.42,-95.62 694.42,-95.62 691.21,-95.62 688,-92.42 688,-89.21 688,-89.21 688,-82.79 688,-82.79 688,-79.58 691.21,-76.38 694.42,-76.38 694.42,-76.38 735.58,-76.38 735.58,-76.38 738.79,-76.38 742,-79.58 742,-82.79 742,-82.79 742,-89.21 742,-89.21 742,-92.42 738.79,-95.62 735.58,-95.62"/>
<text text-anchor="start" x="699.25" y="-83.08" font-family="Helvetica,sans-Serif" font-size="9.00">index.ts</text>
</a>
</g>
</g>
<!-- src/services/StorageController/migrations/migrations.ts&#45;&gt;src/services/StorageController/migrations/v1/index.ts -->
<g id="edge9" class="edge">
<title>src/services/StorageController/migrations/migrations.ts&#45;&gt;src/services/StorageController/migrations/v1/index.ts</title>
<path fill="none" stroke="#000000" stroke-width="2" stroke-opacity="0.200000" d="M662.47,-107.02C668.37,-104.61 674.78,-102 681.01,-99.46"/>
<polygon fill="#000000" fill-opacity="0.200000" stroke="#000000" stroke-width="2" stroke-opacity="0.200000" points="681.75,-101.42 686.52,-97.21 680.17,-97.53 681.75,-101.42"/>
</g>
<!-- src/services/StorageController/migrations/v2/index.ts -->
<g id="node13" class="node">
<title>src/services/StorageController/migrations/v2/index.ts</title>
<g id="a_node13"><a xlink:href="vscode://file/E:\Coding\Projects\bulk-video-review/src/services/StorageController/migrations/v2/index.ts" xlink:title="index.ts">
<path fill="#ddfeff" stroke="black" d="M735.58,-158.62C735.58,-158.62 694.42,-158.62 694.42,-158.62 691.21,-158.62 688,-155.42 688,-152.21 688,-152.21 688,-145.79 688,-145.79 688,-142.58 691.21,-139.38 694.42,-139.38 694.42,-139.38 735.58,-139.38 735.58,-139.38 738.79,-139.38 742,-142.58 742,-145.79 742,-145.79 742,-152.21 742,-152.21 742,-155.42 738.79,-158.62 735.58,-158.62"/>
<text text-anchor="start" x="699.25" y="-146.07" font-family="Helvetica,sans-Serif" font-size="9.00">index.ts</text>
</a>
</g>
</g>
<!-- src/services/StorageController/migrations/migrations.ts&#45;&gt;src/services/StorageController/migrations/v2/index.ts -->
<g id="edge10" class="edge">
<title>src/services/StorageController/migrations/migrations.ts&#45;&gt;src/services/StorageController/migrations/v2/index.ts</title>
<path fill="none" stroke="#000000" stroke-width="2" stroke-opacity="0.200000" d="M662.05,-127.12C668.35,-129.78 675.24,-132.68 681.89,-135.48"/>
<polygon fill="#000000" fill-opacity="0.200000" stroke="#000000" stroke-width="2" stroke-opacity="0.200000" points="680.97,-137.37 687.32,-137.77 682.6,-133.5 680.97,-137.37"/>
</g>
<!-- src/services/StorageController/migrations/utils/index.ts -->
<g id="node14" class="node">
<title>src/services/StorageController/migrations/utils/index.ts</title>
<g id="a_node14"><a xlink:href="vscode://file/E:\Coding\Projects\bulk-video-review/src/services/StorageController/migrations/utils/index.ts" xlink:title="index.ts">
<path fill="#ddfeff" stroke="black" d="M813.58,-126.62C813.58,-126.62 772.42,-126.62 772.42,-126.62 769.21,-126.62 766,-123.42 766,-120.21 766,-120.21 766,-113.79 766,-113.79 766,-110.58 769.21,-107.38 772.42,-107.38 772.42,-107.38 813.58,-107.38 813.58,-107.38 816.79,-107.38 820,-110.58 820,-113.79 820,-113.79 820,-120.21 820,-120.21 820,-123.42 816.79,-126.62 813.58,-126.62"/>
<text text-anchor="start" x="777.25" y="-114.08" font-family="Helvetica,sans-Serif" font-size="9.00">index.ts</text>
</a>
</g>
</g>
<!-- src/services/StorageController/migrations/v1/index.ts&#45;&gt;src/services/StorageController/migrations/utils/index.ts -->
<g id="edge11" class="edge">
<title>src/services/StorageController/migrations/v1/index.ts&#45;&gt;src/services/StorageController/migrations/utils/index.ts</title>
<path fill="none" stroke="#000000" stroke-width="2" stroke-opacity="0.200000" d="M740.47,-95.98C746.37,-98.39 752.78,-101 759.01,-103.54"/>
<polygon fill="#000000" fill-opacity="0.200000" stroke="#000000" stroke-width="2" stroke-opacity="0.200000" points="758.17,-105.47 764.52,-105.79 759.75,-101.58 758.17,-105.47"/>
</g>
<!-- src/services/StorageController/migrations/v2/index.ts&#45;&gt;src/services/StorageController/migrations/utils/index.ts -->
<g id="edge12" class="edge">
<title>src/services/StorageController/migrations/v2/index.ts&#45;&gt;src/services/StorageController/migrations/utils/index.ts</title>
<path fill="none" stroke="#000000" stroke-width="2" stroke-opacity="0.200000" d="M740.05,-138.88C746.35,-136.22 753.24,-133.32 759.89,-130.52"/>
<polygon fill="#000000" fill-opacity="0.200000" stroke="#000000" stroke-width="2" stroke-opacity="0.200000" points="760.6,-132.5 765.32,-128.23 758.97,-128.63 760.6,-132.5"/>
</g>
</g>
</svg>
