<?xml version="1.0" encoding="UTF-8" standalone="no"?>
<!DOCTYPE svg PUBLIC "-//W3C//DTD SVG 1.1//EN"
 "http://www.w3.org/Graphics/SVG/1.1/DTD/svg11.dtd">
<!-- Generated by graphviz version 2.43.0 (0)
 -->
<!-- Title: dependency&#45;cruiser output Pages: 1 -->
<svg width="734pt" height="269pt"
 viewBox="0.00 0.00 734.00 269.08" xmlns="http://www.w3.org/2000/svg" xmlns:xlink="http://www.w3.org/1999/xlink">
<g id="graph0" class="graph" transform="scale(1 1) rotate(0) translate(4 265.08)">
<title>dependency&#45;cruiser output</title>
<polygon fill="white" stroke="transparent" points="-4,4 -4,-265.08 730,-265.08 730,4 -4,4"/>
<g id="clust1" class="cluster">
<title>cluster_src</title>
<path fill="#ffffff" stroke="black" stroke-width="2" d="M20,-8C20,-8 706,-8 706,-8 712,-8 718,-14 718,-20 718,-20 718,-236 718,-236 718,-242 712,-248 706,-248 706,-248 20,-248 20,-248 14,-248 8,-242 8,-236 8,-236 8,-20 8,-20 8,-14 14,-8 20,-8"/>
<text text-anchor="middle" x="363" y="-236.8" font-family="Helvetica,sans-Serif" font-weight="bold" font-size="9.00">src</text>
</g>
<g id="clust2" class="cluster">
<title>cluster_src/application</title>
<path fill="#ffffff" stroke="black" stroke-width="2" d="M28,-16C28,-16 502,-16 502,-16 508,-16 514,-22 514,-28 514,-28 514,-126 514,-126 514,-132 508,-138 502,-138 502,-138 28,-138 28,-138 22,-138 16,-132 16,-126 16,-126 16,-28 16,-28 16,-22 22,-16 28,-16"/>
<text text-anchor="middle" x="265" y="-126.8" font-family="Helvetica,sans-Serif" font-weight="bold" font-size="9.00">application</text>
</g>
<g id="clust3" class="cluster">
<title>cluster_src/application/services</title>
<path fill="#ffffff" stroke="black" stroke-width="2" d="M98,-30C98,-30 494,-30 494,-30 500,-30 506,-36 506,-42 506,-42 506,-100 506,-100 506,-106 500,-112 494,-112 494,-112 98,-112 98,-112 92,-112 86,-106 86,-100 86,-100 86,-42 86,-42 86,-36 92,-30 98,-30"/>
<text text-anchor="middle" x="296" y="-100.8" font-family="Helvetica,sans-Serif" font-weight="bold" font-size="9.00">services</text>
</g>
<g id="clust4" class="cluster">
<title>cluster_src/domain</title>
<path fill="#ffffff" stroke="black" stroke-width="2" d="M534,-114C534,-114 698,-114 698,-114 704,-114 710,-120 710,-126 710,-126 710,-188 710,-188 710,-194 704,-200 698,-200 698,-200 534,-200 534,-200 528,-200 522,-194 522,-188 522,-188 522,-126 522,-126 522,-120 528,-114 534,-114"/>
<text text-anchor="middle" x="616" y="-188.8" font-family="Helvetica,sans-Serif" font-weight="bold" font-size="9.00">domain</text>
</g>
<g id="clust5" class="cluster">
<title>cluster_src/domain/services</title>
<path fill="#ffffff" stroke="black" stroke-width="2" d="M604,-122C604,-122 690,-122 690,-122 696,-122 702,-128 702,-134 702,-134 702,-162 702,-162 702,-168 696,-174 690,-174 690,-174 604,-174 604,-174 598,-174 592,-168 592,-162 592,-162 592,-134 592,-134 592,-128 598,-122 604,-122"/>
<text text-anchor="middle" x="647" y="-162.8" font-family="Helvetica,sans-Serif" font-weight="bold" font-size="9.00">services</text>
</g>
<g id="clust6" class="cluster">
<title>cluster_src/infrastructure</title>
<path fill="#ffffff" stroke="black" stroke-width="2" d="M397.5,-146C397.5,-146 462.5,-146 462.5,-146 468.5,-146 474.5,-152 474.5,-158 474.5,-158 474.5,-186 474.5,-186 474.5,-192 468.5,-198 462.5,-198 462.5,-198 397.5,-198 397.5,-198 391.5,-198 385.5,-192 385.5,-186 385.5,-186 385.5,-158 385.5,-158 385.5,-152 391.5,-146 397.5,-146"/>
<text text-anchor="middle" x="430" y="-186.8" font-family="Helvetica,sans-Serif" font-weight="bold" font-size="9.00">infrastructure</text>
</g>
<!-- src/application/index.ts -->
<g id="node1" class="node">
<title>src/application/index.ts</title>
<g id="a_node1"><a xlink:href="src/application/index.ts" xlink:title="index.ts">
<path fill="#ddfeff" stroke="black" d="M72,-56C72,-56 30,-56 30,-56 27,-56 24,-53 24,-50 24,-50 24,-44 24,-44 24,-41 27,-38 30,-38 30,-38 72,-38 72,-38 75,-38 78,-41 78,-44 78,-44 78,-50 78,-50 78,-53 75,-56 72,-56"/>
<text text-anchor="start" x="32.5" y="-44.8" font-family="Helvetica,sans-Serif" font-size="9.00">index.ts</text>
</a>
</g>
</g>
<!-- src/application/services/FiltersService.ts -->
<g id="node2" class="node">
<title>src/application/services/FiltersService.ts</title>
<g id="a_node2"><a xlink:href="src/application/services/FiltersService.ts" xlink:title="FiltersService.ts">
<path fill="#ddfeff" stroke="black" d="M188,-86C188,-86 113,-86 113,-86 110,-86 107,-83 107,-80 107,-80 107,-74 107,-74 107,-71 110,-68 113,-68 113,-68 188,-68 188,-68 191,-68 194,-71 194,-74 194,-74 194,-80 194,-80 194,-83 191,-86 188,-86"/>
<text text-anchor="start" x="115" y="-74.8" font-family="Helvetica,sans-Serif" font-size="9.00">FiltersService.ts</text>
</a>
</g>
</g>
<!-- src/application/index.ts&#45;&gt;src/application/services/FiltersService.ts -->
<g id="edge1" class="edge">
<title>src/application/index.ts&#45;&gt;src/application/services/FiltersService.ts</title>
<path fill="none" stroke="#000000" stroke-width="2" stroke-opacity="0.200000" d="M70.82,-56.04C75.69,-58.17 80.98,-60.32 86,-62 90.79,-63.61 95.83,-65.11 100.9,-66.49"/>
<polygon fill="#000000" fill-opacity="0.200000" stroke="#000000" stroke-width="2" stroke-opacity="0.200000" points="100.5,-68.56 106.84,-68.06 101.58,-64.5 100.5,-68.56"/>
</g>
<!-- src/application/services/VideoMetadataService.ts -->
<g id="node3" class="node">
<title>src/application/services/VideoMetadataService.ts</title>
<g id="a_node3"><a xlink:href="src/application/services/VideoMetadataService.ts" xlink:title="VideoMetadataService.ts">
<path fill="#ddfeff" stroke="black" d="M342,-86C342,-86 226,-86 226,-86 223,-86 220,-83 220,-80 220,-80 220,-74 220,-74 220,-71 223,-68 226,-68 226,-68 342,-68 342,-68 345,-68 348,-71 348,-74 348,-74 348,-80 348,-80 348,-83 345,-86 342,-86"/>
<text text-anchor="start" x="228" y="-74.8" font-family="Helvetica,sans-Serif" font-size="9.00">VideoMetadataService.ts</text>
</a>
</g>
</g>
<!-- src/application/index.ts&#45;&gt;src/application/services/VideoMetadataService.ts -->
<g id="edge2" class="edge">
<title>src/application/index.ts&#45;&gt;src/application/services/VideoMetadataService.ts</title>
<path fill="none" stroke="#000000" stroke-width="2" stroke-opacity="0.200000" d="M68.83,-37.93C74.17,-35.51 80.19,-33.22 86,-32 138.62,-20.91 155.13,-17.8 207,-32 229.66,-38.2 252.41,-53.1 267.03,-64.06"/>
<polygon fill="#000000" fill-opacity="0.200000" stroke="#000000" stroke-width="2" stroke-opacity="0.200000" points="266,-65.91 272.04,-67.89 268.55,-62.58 266,-65.91"/>
</g>
<!-- src/application/services/VideoParserService.ts -->
<g id="node4" class="node">
<title>src/application/services/VideoParserService.ts</title>
<g id="a_node4"><a xlink:href="src/application/services/VideoParserService.ts" xlink:title="VideoParserService.ts">
<path fill="#ddfeff" stroke="black" d="M201,-56C201,-56 100,-56 100,-56 97,-56 94,-53 94,-50 94,-50 94,-44 94,-44 94,-41 97,-38 100,-38 100,-38 201,-38 201,-38 204,-38 207,-41 207,-44 207,-44 207,-50 207,-50 207,-53 204,-56 201,-56"/>
<text text-anchor="start" x="102" y="-44.8" font-family="Helvetica,sans-Serif" font-size="9.00">VideoParserService.ts</text>
</a>
</g>
</g>
<!-- src/application/index.ts&#45;&gt;src/application/services/VideoParserService.ts -->
<g id="edge3" class="edge">
<title>src/application/index.ts&#45;&gt;src/application/services/VideoParserService.ts</title>
<path fill="none" stroke="#000000" stroke-width="2" stroke-opacity="0.200000" d="M78.13,-47C81.23,-47 84.49,-47 87.84,-47"/>
<polygon fill="#000000" fill-opacity="0.200000" stroke="#000000" stroke-width="2" stroke-opacity="0.200000" points="87.94,-49.1 93.94,-47 87.94,-44.9 87.94,-49.1"/>
</g>
<!-- src/domain/index.ts -->
<g id="node5" class="node">
<title>src/domain/index.ts</title>
<g id="a_node5"><a xlink:href="src/domain/index.ts" xlink:title="index.ts">
<path fill="#ddfeff" stroke="black" d="M578,-148C578,-148 536,-148 536,-148 533,-148 530,-145 530,-142 530,-142 530,-136 530,-136 530,-133 533,-130 536,-130 536,-130 578,-130 578,-130 581,-130 584,-133 584,-136 584,-136 584,-142 584,-142 584,-145 581,-148 578,-148"/>
<text text-anchor="start" x="538.5" y="-136.8" font-family="Helvetica,sans-Serif" font-size="9.00">index.ts</text>
</a>
</g>
</g>
<!-- src/application/services/FiltersService.ts&#45;&gt;src/domain/index.ts -->
<g id="edge4" class="edge">
<title>src/application/services/FiltersService.ts&#45;&gt;src/domain/index.ts</title>
<path fill="none" stroke="#000000" stroke-opacity="0.200000" d="M152.87,-86.01C157.24,-111.22 173.42,-182.5 220,-211 331.46,-279.2 400.69,-276.08 514,-211 535.23,-198.8 546.75,-171.27 552.11,-154.01"/>
<polygon fill="none" stroke="#000000" stroke-opacity="0.200000" points="554.16,-154.51 553.82,-148.16 550.12,-153.33 554.16,-154.51"/>
</g>
<!-- src/application/services/VideoMetadataService.ts&#45;&gt;src/domain/index.ts -->
<g id="edge6" class="edge">
<title>src/application/services/VideoMetadataService.ts&#45;&gt;src/domain/index.ts</title>
<path fill="none" stroke="#000000" stroke-opacity="0.200000" d="M324.41,-86.02C378.18,-98.32 473.57,-120.14 523.49,-131.56"/>
<polygon fill="none" stroke="#000000" stroke-opacity="0.200000" points="523.32,-133.68 529.64,-132.97 524.26,-129.58 523.32,-133.68"/>
</g>
<!-- src/application/services/VideoStorageDtoMapper.ts -->
<g id="node6" class="node">
<title>src/application/services/VideoStorageDtoMapper.ts</title>
<g id="a_node6"><a xlink:href="src/application/services/VideoStorageDtoMapper.ts" xlink:title="VideoStorageDtoMapper.ts">
<path fill="#ddfeff" stroke="black" d="M492,-86C492,-86 367,-86 367,-86 364,-86 361,-83 361,-80 361,-80 361,-74 361,-74 361,-71 364,-68 367,-68 367,-68 492,-68 492,-68 495,-68 498,-71 498,-74 498,-74 498,-80 498,-80 498,-83 495,-86 492,-86"/>
<text text-anchor="start" x="369" y="-74.8" font-family="Helvetica,sans-Serif" font-size="9.00">VideoStorageDtoMapper.ts</text>
</a>
</g>
</g>
<!-- src/application/services/VideoMetadataService.ts&#45;&gt;src/application/services/VideoStorageDtoMapper.ts -->
<g id="edge5" class="edge">
<title>src/application/services/VideoMetadataService.ts&#45;&gt;src/application/services/VideoStorageDtoMapper.ts</title>
<path fill="none" stroke="#000000" stroke-width="2" stroke-opacity="0.200000" d="M348.36,-77C350.39,-77 352.42,-77 354.46,-77"/>
<polygon fill="#000000" fill-opacity="0.200000" stroke="#000000" stroke-width="2" stroke-opacity="0.200000" points="354.58,-79.1 360.58,-77 354.58,-74.9 354.58,-79.1"/>
</g>
<!-- src/infrastructure/index.ts -->
<g id="node7" class="node">
<title>src/infrastructure/index.ts</title>
<g id="a_node7"><a xlink:href="src/infrastructure/index.ts" xlink:title="index.ts">
<path fill="#ddfeff" stroke="black" d="M450.5,-172C450.5,-172 408.5,-172 408.5,-172 405.5,-172 402.5,-169 402.5,-166 402.5,-166 402.5,-160 402.5,-160 402.5,-157 405.5,-154 408.5,-154 408.5,-154 450.5,-154 450.5,-154 453.5,-154 456.5,-157 456.5,-160 456.5,-160 456.5,-166 456.5,-166 456.5,-169 453.5,-172 450.5,-172"/>
<text text-anchor="start" x="411" y="-160.8" font-family="Helvetica,sans-Serif" font-size="9.00">index.ts</text>
</a>
</g>
</g>
<!-- src/application/services/VideoMetadataService.ts&#45;&gt;src/infrastructure/index.ts -->
<g id="edge7" class="edge">
<title>src/application/services/VideoMetadataService.ts&#45;&gt;src/infrastructure/index.ts</title>
<path fill="none" stroke="#000000" stroke-width="2" stroke-opacity="0.200000" d="M300.09,-86.04C325.96,-101.55 378.84,-133.24 408.02,-150.73"/>
<polygon fill="#000000" fill-opacity="0.200000" stroke="#000000" stroke-width="2" stroke-opacity="0.200000" points="406.96,-152.54 413.18,-153.82 409.12,-148.94 406.96,-152.54"/>
</g>
<!-- src/application/services/VideoParserService.ts&#45;&gt;src/application/services/VideoMetadataService.ts -->
<g id="edge8" class="edge">
<title>src/application/services/VideoParserService.ts&#45;&gt;src/application/services/VideoMetadataService.ts</title>
<path fill="none" stroke="#000000" stroke-width="2" stroke-opacity="0.200000" d="M190.95,-56C205.51,-59.32 222.13,-63.11 237.21,-66.55"/>
<polygon fill="#000000" fill-opacity="0.200000" stroke="#000000" stroke-width="2" stroke-opacity="0.200000" points="236.8,-68.61 243.12,-67.9 237.74,-64.52 236.8,-68.61"/>
</g>
<!-- src/application/services/VideoParserService.ts&#45;&gt;src/domain/index.ts -->
<g id="edge9" class="edge">
<title>src/application/services/VideoParserService.ts&#45;&gt;src/domain/index.ts</title>
<path fill="none" stroke="#000000" stroke-width="2" stroke-opacity="0.200000" d="M198.26,-56.13C201.4,-57.77 204.36,-59.72 207,-62 217.99,-71.5 211.08,-80.53 220,-92 268.61,-154.53 286.04,-175.4 361,-201 393.18,-211.99 483.96,-216.93 514,-201 532.49,-191.19 544.34,-169.2 550.58,-154.23"/>
<polygon fill="#000000" fill-opacity="0.200000" stroke="#000000" stroke-width="2" stroke-opacity="0.200000" points="552.67,-154.65 552.92,-148.29 548.76,-153.11 552.67,-154.65"/>
</g>
<!-- src/domain/services/FileVideoParser.ts -->
<g id="node8" class="node">
<title>src/domain/services/FileVideoParser.ts</title>
<g id="a_node8"><a xlink:href="src/domain/services/FileVideoParser.ts" xlink:title="FileVideoParser.ts">
<path fill="#ddfeff" stroke="black" d="M688,-148C688,-148 606,-148 606,-148 603,-148 600,-145 600,-142 600,-142 600,-136 600,-136 600,-133 603,-130 606,-130 606,-130 688,-130 688,-130 691,-130 694,-133 694,-136 694,-136 694,-142 694,-142 694,-145 691,-148 688,-148"/>
<text text-anchor="start" x="608" y="-136.8" font-family="Helvetica,sans-Serif" font-size="9.00">FileVideoParser.ts</text>
</a>
</g>
</g>
<!-- src/domain/index.ts&#45;&gt;src/domain/services/FileVideoParser.ts -->
<g id="edge11" class="edge">
<title>src/domain/index.ts&#45;&gt;src/domain/services/FileVideoParser.ts</title>
<g id="a_edge11"><a xlink:title="no&#45;circular">
<path fill="none" stroke="orange" stroke-width="2" d="M584.4,-143.16C584.86,-143.18 585.32,-143.2 585.78,-143.22"/>
<polygon fill="orange" stroke="orange" stroke-width="2" points="593.67,-145.47 599.71,-143.49 593.76,-141.28 593.67,-145.47"/>
<polyline fill="none" stroke="orange" stroke-width="2" points="593.71,-143.37 590.71,-143.31 "/>
<ellipse fill="none" stroke="orange" stroke-width="2" cx="588.32" cy="-143.27" rx="2.4" ry="2.4"/>
</a>
</g>
<text text-anchor="middle" x="610.26" y="-146.02" font-family="Helvetica,sans-Serif" font-size="9.00" fill="orange">no&#45;circular</text>
</g>
<!-- src/application/services/VideoStorageDtoMapper.ts&#45;&gt;src/domain/index.ts -->
<g id="edge10" class="edge">
<title>src/application/services/VideoStorageDtoMapper.ts&#45;&gt;src/domain/index.ts</title>
<path fill="none" stroke="#000000" stroke-opacity="0.200000" d="M452.82,-86.03C469.83,-93.12 493.72,-103.52 514,-114 521.3,-117.77 529.09,-122.27 535.96,-126.41"/>
<polygon fill="none" stroke="#000000" stroke-opacity="0.200000" points="535.26,-128.44 541.47,-129.77 537.44,-124.85 535.26,-128.44"/>
</g>
<!-- src/domain/services/FileVideoParser.ts&#45;&gt;src/domain/index.ts -->
<g id="edge12" class="edge">
<title>src/domain/services/FileVideoParser.ts&#45;&gt;src/domain/index.ts</title>
<g id="a_edge12"><a xlink:title="no&#45;circular">
<path fill="none" stroke="orange" stroke-width="2" d="M599.71,-134.51C599.22,-134.51 598.73,-134.51 598.24,-134.51"/>
<polygon fill="orange" stroke="orange" stroke-width="2" points="590.35,-132.6 584.4,-134.84 590.45,-136.8 590.35,-132.6"/>
<polyline fill="none" stroke="orange" stroke-width="2" points="590.4,-134.7 593.4,-134.63 "/>
<ellipse fill="none" stroke="orange" stroke-width="2" cx="595.8" cy="-134.57" rx="2.4" ry="2.4"/>
</a>
</g>
<text text-anchor="middle" x="573.76" y="-127.31" font-family="Helvetica,sans-Serif" font-size="9.00" fill="orange">no&#45;circular</text>
</g>
</g>
</svg>
