<?xml version="1.0" encoding="UTF-8" standalone="no"?>
<!DOCTYPE svg PUBLIC "-//W3C//DTD SVG 1.1//EN"
 "http://www.w3.org/Graphics/SVG/1.1/DTD/svg11.dtd">
<!-- Generated by graphviz version 2.43.0 (0)
 -->
<!-- Title: dependency&#45;cruiser output Pages: 1 -->
<svg width="514pt" height="274pt"
 viewBox="0.00 0.00 514.00 274.00" xmlns="http://www.w3.org/2000/svg" xmlns:xlink="http://www.w3.org/1999/xlink">
<g id="graph0" class="graph" transform="scale(1 1) rotate(0) translate(4 270)">
<title>dependency&#45;cruiser output</title>
<polygon fill="white" stroke="transparent" points="-4,4 -4,-270 510,-270 510,4 -4,4"/>
<g id="clust1" class="cluster">
<title>cluster_src</title>
<path fill="#ffffff" stroke="black" stroke-width="2" d="M20,-8C20,-8 486,-8 486,-8 492,-8 498,-14 498,-20 498,-20 498,-246 498,-246 498,-252 492,-258 486,-258 486,-258 20,-258 20,-258 14,-258 8,-252 8,-246 8,-246 8,-20 8,-20 8,-14 14,-8 20,-8"/>
<text text-anchor="middle" x="253" y="-246.8" font-family="Helvetica,sans-Serif" font-weight="bold" font-size="9.00">src</text>
</g>
<g id="clust2" class="cluster">
<title>cluster_src/application</title>
<path fill="#ffffff" stroke="black" stroke-width="2" d="M28,-16C28,-16 352,-16 352,-16 358,-16 364,-22 364,-28 364,-28 364,-126 364,-126 364,-132 358,-138 352,-138 352,-138 28,-138 28,-138 22,-138 16,-132 16,-126 16,-126 16,-28 16,-28 16,-22 22,-16 28,-16"/>
<text text-anchor="middle" x="190" y="-126.8" font-family="Helvetica,sans-Serif" font-weight="bold" font-size="9.00">application</text>
</g>
<g id="clust3" class="cluster">
<title>cluster_src/application/services</title>
<path fill="#ffffff" stroke="black" stroke-width="2" d="M98,-30C98,-30 344,-30 344,-30 350,-30 356,-36 356,-42 356,-42 356,-100 356,-100 356,-106 350,-112 344,-112 344,-112 98,-112 98,-112 92,-112 86,-106 86,-100 86,-100 86,-42 86,-42 86,-36 92,-30 98,-30"/>
<text text-anchor="middle" x="221" y="-100.8" font-family="Helvetica,sans-Serif" font-weight="bold" font-size="9.00">services</text>
</g>
<g id="clust4" class="cluster">
<title>cluster_src/domain</title>
<path fill="#ffffff" stroke="black" stroke-width="2" d="M261,-146C261,-146 478,-146 478,-146 484,-146 490,-152 490,-158 490,-158 490,-220 490,-220 490,-226 484,-232 478,-232 478,-232 261,-232 261,-232 255,-232 249,-226 249,-220 249,-220 249,-158 249,-158 249,-152 255,-146 261,-146"/>
<text text-anchor="middle" x="369.5" y="-220.8" font-family="Helvetica,sans-Serif" font-weight="bold" font-size="9.00">domain</text>
</g>
<g id="clust5" class="cluster">
<title>cluster_src/domain/services</title>
<path fill="#ffffff" stroke="black" stroke-width="2" d="M384,-154C384,-154 470,-154 470,-154 476,-154 482,-160 482,-166 482,-166 482,-194 482,-194 482,-200 476,-206 470,-206 470,-206 384,-206 384,-206 378,-206 372,-200 372,-194 372,-194 372,-166 372,-166 372,-160 378,-154 384,-154"/>
<text text-anchor="middle" x="427" y="-194.8" font-family="Helvetica,sans-Serif" font-weight="bold" font-size="9.00">services</text>
</g>
<g id="clust6" class="cluster">
<title>cluster_src/infrastructure</title>
<path fill="#ffffff" stroke="black" stroke-width="2" d="M395,-30C395,-30 460,-30 460,-30 466,-30 472,-36 472,-42 472,-42 472,-70 472,-70 472,-76 466,-82 460,-82 460,-82 395,-82 395,-82 389,-82 383,-76 383,-70 383,-70 383,-42 383,-42 383,-36 389,-30 395,-30"/>
<text text-anchor="middle" x="427.5" y="-70.8" font-family="Helvetica,sans-Serif" font-weight="bold" font-size="9.00">infrastructure</text>
</g>
<!-- src/application/index.ts -->
<g id="node1" class="node">
<title>src/application/index.ts</title>
<g id="a_node1"><a xlink:href="src/application/index.ts" xlink:title="index.ts">
<path fill="#ddfeff" stroke="black" d="M72,-56C72,-56 30,-56 30,-56 27,-56 24,-53 24,-50 24,-50 24,-44 24,-44 24,-41 27,-38 30,-38 30,-38 72,-38 72,-38 75,-38 78,-41 78,-44 78,-44 78,-50 78,-50 78,-53 75,-56 72,-56"/>
<text text-anchor="start" x="32.5" y="-44.8" font-family="Helvetica,sans-Serif" font-size="9.00">index.ts</text>
</a>
</g>
</g>
<!-- src/application/services/FiltersService.ts -->
<g id="node2" class="node">
<title>src/application/services/FiltersService.ts</title>
<g id="a_node2"><a xlink:href="src/application/services/FiltersService.ts" xlink:title="FiltersService.ts">
<path fill="#ddfeff" stroke="black" d="M188,-86C188,-86 113,-86 113,-86 110,-86 107,-83 107,-80 107,-80 107,-74 107,-74 107,-71 110,-68 113,-68 113,-68 188,-68 188,-68 191,-68 194,-71 194,-74 194,-74 194,-80 194,-80 194,-83 191,-86 188,-86"/>
<text text-anchor="start" x="115" y="-74.8" font-family="Helvetica,sans-Serif" font-size="9.00">FiltersService.ts</text>
</a>
</g>
</g>
<!-- src/application/index.ts&#45;&gt;src/application/services/FiltersService.ts -->
<g id="edge1" class="edge">
<title>src/application/index.ts&#45;&gt;src/application/services/FiltersService.ts</title>
<path fill="none" stroke="#000000" stroke-width="2" stroke-opacity="0.200000" d="M70.82,-56.04C75.69,-58.17 80.98,-60.32 86,-62 90.79,-63.61 95.83,-65.11 100.9,-66.49"/>
<polygon fill="#000000" fill-opacity="0.200000" stroke="#000000" stroke-width="2" stroke-opacity="0.200000" points="100.5,-68.56 106.84,-68.06 101.58,-64.5 100.5,-68.56"/>
</g>
<!-- src/application/services/VideoMetadataService.ts -->
<g id="node3" class="node">
<title>src/application/services/VideoMetadataService.ts</title>
<g id="a_node3"><a xlink:href="src/application/services/VideoMetadataService.ts" xlink:title="VideoMetadataService.ts">
<path fill="#ddfeff" stroke="black" d="M342,-56C342,-56 226,-56 226,-56 223,-56 220,-53 220,-50 220,-50 220,-44 220,-44 220,-41 223,-38 226,-38 226,-38 342,-38 342,-38 345,-38 348,-41 348,-44 348,-44 348,-50 348,-50 348,-53 345,-56 342,-56"/>
<text text-anchor="start" x="228" y="-44.8" font-family="Helvetica,sans-Serif" font-size="9.00">VideoMetadataService.ts</text>
</a>
</g>
</g>
<!-- src/application/index.ts&#45;&gt;src/application/services/VideoMetadataService.ts -->
<g id="edge2" class="edge">
<title>src/application/index.ts&#45;&gt;src/application/services/VideoMetadataService.ts</title>
<path fill="none" stroke="#000000" stroke-width="2" stroke-opacity="0.200000" d="M68.83,-37.93C74.17,-35.51 80.19,-33.22 86,-32 137.93,-21.05 199.05,-28.82 239.28,-36.68"/>
<polygon fill="#000000" fill-opacity="0.200000" stroke="#000000" stroke-width="2" stroke-opacity="0.200000" points="239.26,-38.81 245.55,-37.93 240.08,-34.69 239.26,-38.81"/>
</g>
<!-- src/application/services/VideoParserService.ts -->
<g id="node4" class="node">
<title>src/application/services/VideoParserService.ts</title>
<g id="a_node4"><a xlink:href="src/application/services/VideoParserService.ts" xlink:title="VideoParserService.ts">
<path fill="#ddfeff" stroke="black" d="M201,-56C201,-56 100,-56 100,-56 97,-56 94,-53 94,-50 94,-50 94,-44 94,-44 94,-41 97,-38 100,-38 100,-38 201,-38 201,-38 204,-38 207,-41 207,-44 207,-44 207,-50 207,-50 207,-53 204,-56 201,-56"/>
<text text-anchor="start" x="102" y="-44.8" font-family="Helvetica,sans-Serif" font-size="9.00">VideoParserService.ts</text>
</a>
</g>
</g>
<!-- src/application/index.ts&#45;&gt;src/application/services/VideoParserService.ts -->
<g id="edge3" class="edge">
<title>src/application/index.ts&#45;&gt;src/application/services/VideoParserService.ts</title>
<path fill="none" stroke="#000000" stroke-width="2" stroke-opacity="0.200000" d="M78.13,-47C81.23,-47 84.49,-47 87.84,-47"/>
<polygon fill="#000000" fill-opacity="0.200000" stroke="#000000" stroke-width="2" stroke-opacity="0.200000" points="87.94,-49.1 93.94,-47 87.94,-44.9 87.94,-49.1"/>
</g>
<!-- src/infrastructure/index.ts -->
<g id="node5" class="node">
<title>src/infrastructure/index.ts</title>
<g id="a_node5"><a xlink:href="src/infrastructure/index.ts" xlink:title="index.ts">
<path fill="#ddfeff" stroke="black" d="M448,-56C448,-56 406,-56 406,-56 403,-56 400,-53 400,-50 400,-50 400,-44 400,-44 400,-41 403,-38 406,-38 406,-38 448,-38 448,-38 451,-38 454,-41 454,-44 454,-44 454,-50 454,-50 454,-53 451,-56 448,-56"/>
<text text-anchor="start" x="408.5" y="-44.8" font-family="Helvetica,sans-Serif" font-size="9.00">index.ts</text>
</a>
</g>
</g>
<!-- src/application/services/VideoMetadataService.ts&#45;&gt;src/infrastructure/index.ts -->
<g id="edge4" class="edge">
<title>src/application/services/VideoMetadataService.ts&#45;&gt;src/infrastructure/index.ts</title>
<path fill="none" stroke="#000000" stroke-width="2" stroke-opacity="0.200000" d="M348.08,-47C363.85,-47 380.12,-47 393.68,-47"/>
<polygon fill="#000000" fill-opacity="0.200000" stroke="#000000" stroke-width="2" stroke-opacity="0.200000" points="393.72,-49.1 399.72,-47 393.72,-44.9 393.72,-49.1"/>
</g>
<!-- src/application/services/VideoParserService.ts&#45;&gt;src/application/services/VideoMetadataService.ts -->
<g id="edge5" class="edge">
<title>src/application/services/VideoParserService.ts&#45;&gt;src/application/services/VideoMetadataService.ts</title>
<path fill="none" stroke="#000000" stroke-width="2" stroke-opacity="0.200000" d="M207.27,-47C209.37,-47 211.48,-47 213.6,-47"/>
<polygon fill="#000000" fill-opacity="0.200000" stroke="#000000" stroke-width="2" stroke-opacity="0.200000" points="213.96,-49.1 219.96,-47 213.96,-44.9 213.96,-49.1"/>
</g>
<!-- src/domain/index.ts -->
<g id="node6" class="node">
<title>src/domain/index.ts</title>
<g id="a_node6"><a xlink:href="src/domain/index.ts" xlink:title="index.ts">
<path fill="#ddfeff" stroke="black" d="M305,-176C305,-176 263,-176 263,-176 260,-176 257,-173 257,-170 257,-170 257,-164 257,-164 257,-161 260,-158 263,-158 263,-158 305,-158 305,-158 308,-158 311,-161 311,-164 311,-164 311,-170 311,-170 311,-173 308,-176 305,-176"/>
<text text-anchor="start" x="265.5" y="-164.8" font-family="Helvetica,sans-Serif" font-size="9.00">index.ts</text>
</a>
</g>
</g>
<!-- src/application/services/VideoParserService.ts&#45;&gt;src/domain/index.ts -->
<g id="edge6" class="edge">
<title>src/application/services/VideoParserService.ts&#45;&gt;src/domain/index.ts</title>
<path fill="none" stroke="#000000" stroke-width="2" stroke-opacity="0.200000" d="M199.49,-56.11C202.23,-57.77 204.77,-59.72 207,-62 223.95,-79.35 207.1,-94.46 220,-115 230.39,-131.54 247.83,-145.33 261.73,-154.55"/>
<polygon fill="#000000" fill-opacity="0.200000" stroke="#000000" stroke-width="2" stroke-opacity="0.200000" points="260.87,-156.49 267.06,-157.97 263.15,-152.96 260.87,-156.49"/>
</g>
<!-- src/domain/services/FileVideoParser.ts -->
<g id="node7" class="node">
<title>src/domain/services/FileVideoParser.ts</title>
<g id="a_node7"><a xlink:href="src/domain/services/FileVideoParser.ts" xlink:title="FileVideoParser.ts">
<path fill="#ddfeff" stroke="black" d="M468,-180C468,-180 386,-180 386,-180 383,-180 380,-177 380,-174 380,-174 380,-168 380,-168 380,-165 383,-162 386,-162 386,-162 468,-162 468,-162 471,-162 474,-165 474,-168 474,-168 474,-174 474,-174 474,-177 471,-180 468,-180"/>
<text text-anchor="start" x="388" y="-168.8" font-family="Helvetica,sans-Serif" font-size="9.00">FileVideoParser.ts</text>
</a>
</g>
</g>
<!-- src/domain/index.ts&#45;&gt;src/domain/services/FileVideoParser.ts -->
<g id="edge7" class="edge">
<title>src/domain/index.ts&#45;&gt;src/domain/services/FileVideoParser.ts</title>
<path fill="none" stroke="#000000" stroke-width="2" stroke-opacity="0.200000" d="M311.19,-167.74C328.73,-168.24 352.43,-168.91 373.74,-169.52"/>
<polygon fill="#000000" fill-opacity="0.200000" stroke="#000000" stroke-width="2" stroke-opacity="0.200000" points="373.91,-171.62 379.97,-169.69 374.03,-167.42 373.91,-171.62"/>
</g>
</g>
</svg>
