<?xml version="1.0" encoding="UTF-8" standalone="no"?>
<!DOCTYPE svg PUBLIC "-//W3C//DTD SVG 1.1//EN"
 "http://www.w3.org/Graphics/SVG/1.1/DTD/svg11.dtd">
<!-- Generated by graphviz version 9.0.0 (20230911.1827)
 -->
<!-- Title: dependency&#45;cruiser output Pages: 1 -->
<svg width="920pt" height="373pt"
 viewBox="0.00 0.00 920.00 373.00" xmlns="http://www.w3.org/2000/svg" xmlns:xlink="http://www.w3.org/1999/xlink">
<g id="graph0" class="graph" transform="scale(1 1) rotate(0) translate(4 369)">
<title>dependency&#45;cruiser output</title>
<polygon fill="white" stroke="none" points="-4,4 -4,-369 916,-369 916,4 -4,4"/>
<g id="clust1" class="cluster">
<title>cluster_src</title>
<path fill="#ffffff" stroke="black" stroke-width="2" d="M20,-8C20,-8 892,-8 892,-8 898,-8 904,-14 904,-20 904,-20 904,-345 904,-345 904,-351 898,-357 892,-357 892,-357 20,-357 20,-357 14,-357 8,-351 8,-345 8,-345 8,-20 8,-20 8,-14 14,-8 20,-8"/>
<text text-anchor="middle" x="456" y="-344.45" font-family="Helvetica,sans-Serif" font-weight="bold" font-size="9.00">src</text>
</g>
<g id="clust2" class="cluster">
<title>cluster_src/components</title>
<path fill="#ffffff" stroke="black" stroke-width="2" d="M28,-113C28,-113 128.5,-113 128.5,-113 134.5,-113 140.5,-119 140.5,-125 140.5,-125 140.5,-219 140.5,-219 140.5,-225 134.5,-231 128.5,-231 128.5,-231 28,-231 28,-231 22,-231 16,-225 16,-219 16,-219 16,-125 16,-125 16,-119 22,-113 28,-113"/>
<text text-anchor="middle" x="78.25" y="-218.45" font-family="Helvetica,sans-Serif" font-weight="bold" font-size="9.00">components</text>
</g>
<g id="clust3" class="cluster">
<title>cluster_src/components/inputs</title>
<path fill="#ffffff" stroke="black" stroke-width="2" d="M36,-149C36,-149 120.5,-149 120.5,-149 126.5,-149 132.5,-155 132.5,-161 132.5,-161 132.5,-192 132.5,-192 132.5,-198 126.5,-204 120.5,-204 120.5,-204 36,-204 36,-204 30,-204 24,-198 24,-192 24,-192 24,-161 24,-161 24,-155 30,-149 36,-149"/>
<text text-anchor="middle" x="78.25" y="-191.45" font-family="Helvetica,sans-Serif" font-weight="bold" font-size="9.00">inputs</text>
</g>
<g id="clust4" class="cluster">
<title>cluster_src/services</title>
<path fill="#ffffff" stroke="black" stroke-width="2" d="M267,-44C267,-44 884,-44 884,-44 890,-44 896,-50 896,-56 896,-56 896,-318 896,-318 896,-324 890,-330 884,-330 884,-330 267,-330 267,-330 261,-330 255,-324 255,-318 255,-318 255,-56 255,-56 255,-50 261,-44 267,-44"/>
<text text-anchor="middle" x="575.5" y="-317.45" font-family="Helvetica,sans-Serif" font-weight="bold" font-size="9.00">services</text>
</g>
<g id="clust11" class="cluster">
<title>cluster_src/services/VideoParsers</title>
<path fill="#ffffff" stroke="black" stroke-width="2" d="M275,-99C275,-99 325,-99 325,-99 331,-99 337,-105 337,-111 337,-111 337,-142 337,-142 337,-148 331,-154 325,-154 325,-154 275,-154 275,-154 269,-154 263,-148 263,-142 263,-142 263,-111 263,-111 263,-105 269,-99 275,-99"/>
<text text-anchor="middle" x="300" y="-141.45" font-family="Helvetica,sans-Serif" font-weight="bold" font-size="9.00">VideoParsers</text>
</g>
<g id="clust6" class="cluster">
<title>cluster_src/services/StorageController</title>
<path fill="#ffffff" stroke="black" stroke-width="2" d="M373,-52C373,-52 876,-52 876,-52 882,-52 888,-58 888,-64 888,-64 888,-228 888,-228 888,-234 882,-240 876,-240 876,-240 373,-240 373,-240 367,-240 361,-234 361,-228 361,-228 361,-64 361,-64 361,-58 367,-52 373,-52"/>
<text text-anchor="middle" x="624.5" y="-227.45" font-family="Helvetica,sans-Serif" font-weight="bold" font-size="9.00">StorageController</text>
</g>
<g id="clust7" class="cluster">
<title>cluster_src/services/StorageController/migrations</title>
<path fill="#ffffff" stroke="black" stroke-width="2" d="M583,-60C583,-60 868,-60 868,-60 874,-60 880,-66 880,-72 880,-72 880,-201 880,-201 880,-207 874,-213 868,-213 868,-213 583,-213 583,-213 577,-213 571,-207 571,-201 571,-201 571,-72 571,-72 571,-66 577,-60 583,-60"/>
<text text-anchor="middle" x="725.5" y="-200.45" font-family="Helvetica,sans-Serif" font-weight="bold" font-size="9.00">migrations</text>
</g>
<g id="clust9" class="cluster">
<title>cluster_src/services/StorageController/migrations/v1</title>
<path fill="#ffffff" stroke="black" stroke-width="2" d="M736,-68C736,-68 782,-68 782,-68 788,-68 794,-74 794,-80 794,-80 794,-111 794,-111 794,-117 788,-123 782,-123 782,-123 736,-123 736,-123 730,-123 724,-117 724,-111 724,-111 724,-80 724,-80 724,-74 730,-68 736,-68"/>
<text text-anchor="middle" x="759" y="-110.45" font-family="Helvetica,sans-Serif" font-weight="bold" font-size="9.00">v1</text>
</g>
<g id="clust10" class="cluster">
<title>cluster_src/services/StorageController/migrations/v2</title>
<path fill="#ffffff" stroke="black" stroke-width="2" d="M736,-131C736,-131 782,-131 782,-131 788,-131 794,-137 794,-143 794,-143 794,-174 794,-174 794,-180 788,-186 782,-186 782,-186 736,-186 736,-186 730,-186 724,-180 724,-174 724,-174 724,-143 724,-143 724,-137 730,-131 736,-131"/>
<text text-anchor="middle" x="759" y="-173.45" font-family="Helvetica,sans-Serif" font-weight="bold" font-size="9.00">v2</text>
</g>
<g id="clust8" class="cluster">
<title>cluster_src/services/StorageController/migrations/utils</title>
<path fill="#ffffff" stroke="black" stroke-width="2" d="M814,-99C814,-99 860,-99 860,-99 866,-99 872,-105 872,-111 872,-111 872,-142 872,-142 872,-148 866,-154 860,-154 860,-154 814,-154 814,-154 808,-154 802,-148 802,-142 802,-142 802,-111 802,-111 802,-105 808,-99 814,-99"/>
<text text-anchor="middle" x="837" y="-141.45" font-family="Helvetica,sans-Serif" font-weight="bold" font-size="9.00">utils</text>
</g>
<g id="clust5" class="cluster">
<title>cluster_src/services/Filters</title>
<path fill="#ffffff" stroke="black" stroke-width="2" d="M373,-248C373,-248 522.5,-248 522.5,-248 528.5,-248 534.5,-254 534.5,-260 534.5,-260 534.5,-291 534.5,-291 534.5,-297 528.5,-303 522.5,-303 522.5,-303 373,-303 373,-303 367,-303 361,-297 361,-291 361,-291 361,-260 361,-260 361,-254 367,-248 373,-248"/>
<text text-anchor="middle" x="447.75" y="-290.45" font-family="Helvetica,sans-Serif" font-weight="bold" font-size="9.00">Filters</text>
</g>
<g id="clust12" class="cluster">
<title>cluster_src/stores</title>
<path fill="#ffffff" stroke="black" stroke-width="2" d="M160.5,-154C160.5,-154 227,-154 227,-154 233,-154 239,-160 239,-166 239,-166 239,-197 239,-197 239,-203 233,-209 227,-209 227,-209 160.5,-209 160.5,-209 154.5,-209 148.5,-203 148.5,-197 148.5,-197 148.5,-166 148.5,-166 148.5,-160 154.5,-154 160.5,-154"/>
<text text-anchor="middle" x="193.75" y="-196.45" font-family="Helvetica,sans-Serif" font-weight="bold" font-size="9.00">stores</text>
</g>
<!-- src/App.vue -->
<g id="node1" class="node">
<title>src/App.vue</title>
<g id="a_node1"><a xlink:href="src/App.vue" xlink:title="App.vue">
<path fill="#41f083" stroke="black" d="M320.58,-35.62C320.58,-35.62 279.42,-35.62 279.42,-35.62 276.21,-35.62 273,-32.42 273,-29.21 273,-29.21 273,-22.79 273,-22.79 273,-19.58 276.21,-16.38 279.42,-16.38 279.42,-16.38 320.58,-16.38 320.58,-16.38 323.79,-16.38 327,-19.58 327,-22.79 327,-22.79 327,-29.21 327,-29.21 327,-32.42 323.79,-35.62 320.58,-35.62"/>
<text text-anchor="start" x="283.88" y="-23.07" font-family="Helvetica,sans-Serif" font-size="9.00">App.vue</text>
</a>
</g>
</g>
<!-- src/services/StorageController/index.ts -->
<g id="node2" class="node">
<title>src/services/StorageController/index.ts</title>
<g id="a_node2"><a xlink:href="src/services/StorageController/index.ts" xlink:title="index.ts">
<path fill="#ddfeff" stroke="black" d="M416.58,-126.62C416.58,-126.62 375.42,-126.62 375.42,-126.62 372.21,-126.62 369,-123.42 369,-120.21 369,-120.21 369,-113.79 369,-113.79 369,-110.58 372.21,-107.38 375.42,-107.38 375.42,-107.38 416.58,-107.38 416.58,-107.38 419.79,-107.38 423,-110.58 423,-113.79 423,-113.79 423,-120.21 423,-120.21 423,-123.42 419.79,-126.62 416.58,-126.62"/>
<text text-anchor="start" x="380.25" y="-114.08" font-family="Helvetica,sans-Serif" font-size="9.00">index.ts</text>
</a>
</g>
</g>
<!-- src/App.vue&#45;&gt;src/services/StorageController/index.ts -->
<g id="edge1" class="edge">
<title>src/App.vue&#45;&gt;src/services/StorageController/index.ts</title>
<path fill="none" stroke="#000000" stroke-width="2" stroke-opacity="0.200000" d="M311.42,-36.09C327.67,-51.82 359.18,-82.32 378.53,-101.05"/>
<polygon fill="#000000" fill-opacity="0.200000" stroke="#000000" stroke-width="2" stroke-opacity="0.200000" points="376.87,-102.38 382.65,-105.04 379.8,-99.36 376.87,-102.38"/>
</g>
<!-- src/services/StorageController/VideoMetadataController.ts -->
<g id="node10" class="node">
<title>src/services/StorageController/VideoMetadataController.ts</title>
<g id="a_node10"><a xlink:href="src/services/StorageController/VideoMetadataController.ts" xlink:title="VideoMetadataController.ts">
<path fill="#ddfeff" stroke="black" d="M556.58,-126.62C556.58,-126.62 442.42,-126.62 442.42,-126.62 439.21,-126.62 436,-123.42 436,-120.21 436,-120.21 436,-113.79 436,-113.79 436,-110.58 439.21,-107.38 442.42,-107.38 442.42,-107.38 556.58,-107.38 556.58,-107.38 559.79,-107.38 563,-110.58 563,-113.79 563,-113.79 563,-120.21 563,-120.21 563,-123.42 559.79,-126.62 556.58,-126.62"/>
<text text-anchor="start" x="444" y="-114.08" font-family="Helvetica,sans-Serif" font-size="9.00">VideoMetadataController.ts</text>
</a>
</g>
</g>
<!-- src/services/StorageController/index.ts&#45;&gt;src/services/StorageController/VideoMetadataController.ts -->
<g id="edge7" class="edge">
<title>src/services/StorageController/index.ts&#45;&gt;src/services/StorageController/VideoMetadataController.ts</title>
<path fill="none" stroke="#000000" stroke-width="2" stroke-opacity="0.200000" d="M423.4,-117C424.49,-117 425.6,-117 426.73,-117"/>
<polygon fill="#000000" fill-opacity="0.200000" stroke="#000000" stroke-width="2" stroke-opacity="0.200000" points="426.62,-119.1 432.62,-117 426.62,-114.9 426.62,-119.1"/>
</g>
<!-- src/components/VideoCard.vue -->
<g id="node3" class="node">
<title>src/components/VideoCard.vue</title>
<g id="a_node3"><a xlink:href="src/components/VideoCard.vue" xlink:title="VideoCard.vue">
<path fill="#41f083" stroke="black" d="M109.83,-140.62C109.83,-140.62 46.67,-140.62 46.67,-140.62 43.46,-140.62 40.25,-137.42 40.25,-134.21 40.25,-134.21 40.25,-127.79 40.25,-127.79 40.25,-124.58 43.46,-121.38 46.67,-121.38 46.67,-121.38 109.83,-121.38 109.83,-121.38 113.04,-121.38 116.25,-124.58 116.25,-127.79 116.25,-127.79 116.25,-134.21 116.25,-134.21 116.25,-137.42 113.04,-140.62 109.83,-140.62"/>
<text text-anchor="start" x="48.25" y="-128.07" font-family="Helvetica,sans-Serif" font-size="9.00">VideoCard.vue</text>
</a>
</g>
</g>
<!-- src/services/index.ts -->
<g id="node4" class="node">
<title>src/services/index.ts</title>
<g id="a_node4"><a xlink:href="src/services/index.ts" xlink:title="index.ts">
<path fill="#ddfeff" stroke="black" d="M320.58,-181.62C320.58,-181.62 279.42,-181.62 279.42,-181.62 276.21,-181.62 273,-178.42 273,-175.21 273,-175.21 273,-168.79 273,-168.79 273,-165.58 276.21,-162.38 279.42,-162.38 279.42,-162.38 320.58,-162.38 320.58,-162.38 323.79,-162.38 327,-165.58 327,-168.79 327,-168.79 327,-175.21 327,-175.21 327,-178.42 323.79,-181.62 320.58,-181.62"/>
<text text-anchor="start" x="284.25" y="-169.07" font-family="Helvetica,sans-Serif" font-size="9.00">index.ts</text>
</a>
</g>
</g>
<!-- src/components/VideoCard.vue&#45;&gt;src/services/index.ts -->
<g id="edge2" class="edge">
<title>src/components/VideoCard.vue&#45;&gt;src/services/index.ts</title>
<path fill="none" stroke="#000000" stroke-width="2" stroke-opacity="0.200000" d="M116.5,-133.19C149.17,-135.69 197.75,-140.83 239,-151 246.37,-152.82 247.85,-154.44 255,-157 258.07,-158.1 261.26,-159.22 264.47,-160.34"/>
<polygon fill="#000000" fill-opacity="0.200000" stroke="#000000" stroke-width="2" stroke-opacity="0.200000" points="263.68,-162.29 270.03,-162.26 265.05,-158.32 263.68,-162.29"/>
</g>
<!-- src/services/index.ts&#45;&gt;src/services/StorageController/index.ts -->
<g id="edge15" class="edge">
<title>src/services/index.ts&#45;&gt;src/services/StorageController/index.ts</title>
<path fill="none" stroke="#000000" stroke-width="2" stroke-opacity="0.200000" d="M326.87,-161.99C330.33,-160.43 333.79,-158.75 382.14,-127.03"/>
<polygon fill="#000000" fill-opacity="0.200000" stroke="#000000" stroke-width="2" stroke-opacity="0.200000" points="384.95,-125.64 388.85,-133.74 380.75,-129.84 384.95,-125.64"/>
</g>
<!-- src/services/Filters/index.ts -->
<g id="node9" class="node">
<title>src/services/Filters/index.ts</title>
<g id="a_node9"><a xlink:href="src/services/Filters/index.ts" xlink:title="index.ts">
<path fill="#ddfeff" stroke="black" d="M416.58,-275.62C416.58,-275.62 375.42,-275.62 375.42,-275.62 372.21,-275.62 369,-272.42 369,-269.21 369,-269.21 369,-262.79 369,-262.79 369,-259.58 372.21,-256.38 375.42,-256.38 375.42,-256.38 416.58,-256.38 416.58,-256.38 419.79,-256.38 423,-259.58 423,-262.79 423,-262.79 423,-269.21 423,-269.21 423,-272.42 419.79,-275.62 416.58,-275.62"/>
<text text-anchor="start" x="380.25" y="-263.07" font-family="Helvetica,sans-Serif" font-size="9.00">index.ts</text>
</a>
</g>
</g>
<!-- src/services/index.ts&#45;&gt;src/services/Filters/index.ts -->
<g id="edge14" class="edge">
<title>src/services/index.ts&#45;&gt;src/services/Filters/index.ts</title>
<path fill="none" stroke="#000000" stroke-width="2" stroke-opacity="0.200000" d="M308.01,-181.92C318.51,-196.37 339.39,-223.59 378.42,-256.09"/>
<polygon fill="#000000" fill-opacity="0.200000" stroke="#000000" stroke-width="2" stroke-opacity="0.200000" points="381.22,-254.7 385.12,-262.8 377.02,-258.9 381.22,-254.7"/>
</g>
<!-- src/components/inputs/FolderSelector.vue -->
<g id="node5" class="node">
<title>src/components/inputs/FolderSelector.vue</title>
<g id="a_node5"><a xlink:href="src/components/inputs/FolderSelector.vue" xlink:title="FolderSelector.vue">
<path fill="#41f083" stroke="black" d="M118.08,-176.62C118.08,-176.62 38.42,-176.62 38.42,-176.62 35.21,-176.62 32,-173.42 32,-170.21 32,-170.21 32,-163.79 32,-163.79 32,-160.58 35.21,-157.38 38.42,-157.38 38.42,-157.38 118.08,-157.38 118.08,-157.38 121.29,-157.38 124.5,-160.58 124.5,-163.79 124.5,-163.79 124.5,-170.21 124.5,-170.21 124.5,-173.42 121.29,-176.62 118.08,-176.62"/>
<text text-anchor="start" x="40" y="-164.07" font-family="Helvetica,sans-Serif" font-size="9.00">FolderSelector.vue</text>
</a>
</g>
</g>
<!-- src/services/VideoParsers/index.ts -->
<g id="node6" class="node">
<title>src/services/VideoParsers/index.ts</title>
<g id="a_node6"><a xlink:href="src/services/VideoParsers/index.ts" xlink:title="index.ts">
<path fill="#ddfeff" stroke="black" d="M320.58,-126.62C320.58,-126.62 279.42,-126.62 279.42,-126.62 276.21,-126.62 273,-123.42 273,-120.21 273,-120.21 273,-113.79 273,-113.79 273,-110.58 276.21,-107.38 279.42,-107.38 279.42,-107.38 320.58,-107.38 320.58,-107.38 323.79,-107.38 327,-110.58 327,-113.79 327,-113.79 327,-120.21 327,-120.21 327,-123.42 323.79,-126.62 320.58,-126.62"/>
<text text-anchor="start" x="284.25" y="-114.08" font-family="Helvetica,sans-Serif" font-size="9.00">index.ts</text>
</a>
</g>
</g>
<!-- src/components/inputs/FolderSelector.vue&#45;&gt;src/services/VideoParsers/index.ts -->
<g id="edge3" class="edge">
<title>src/components/inputs/FolderSelector.vue&#45;&gt;src/services/VideoParsers/index.ts</title>
<path fill="none" stroke="#000000" stroke-width="2" stroke-opacity="0.200000" d="M123.77,-156.94C129.4,-155.63 135.09,-154.29 140.5,-153 144.06,-152.15 144.93,-151.85 148.5,-151 187.99,-141.6 233.47,-131.42 264,-124.67"/>
<polygon fill="#000000" fill-opacity="0.200000" stroke="#000000" stroke-width="2" stroke-opacity="0.200000" points="264.22,-126.77 269.63,-123.43 263.32,-122.67 264.22,-126.77"/>
</g>
<!-- src/stores/videosStore.ts -->
<g id="node7" class="node">
<title>src/stores/videosStore.ts</title>
<g id="a_node7"><a xlink:href="src/stores/videosStore.ts" xlink:title="videosStore.ts">
<path fill="#ddfeff" stroke="black" d="M224.58,-181.62C224.58,-181.62 162.92,-181.62 162.92,-181.62 159.71,-181.62 156.5,-178.42 156.5,-175.21 156.5,-175.21 156.5,-168.79 156.5,-168.79 156.5,-165.58 159.71,-162.38 162.92,-162.38 162.92,-162.38 224.58,-162.38 224.58,-162.38 227.79,-162.38 231,-165.58 231,-168.79 231,-168.79 231,-175.21 231,-175.21 231,-178.42 227.79,-181.62 224.58,-181.62"/>
<text text-anchor="start" x="164.5" y="-169.07" font-family="Helvetica,sans-Serif" font-size="9.00">videosStore.ts</text>
</a>
</g>
</g>
<!-- src/components/inputs/FolderSelector.vue&#45;&gt;src/stores/videosStore.ts -->
<g id="edge4" class="edge">
<title>src/components/inputs/FolderSelector.vue&#45;&gt;src/stores/videosStore.ts</title>
<path fill="none" stroke="#000000" stroke-width="2" stroke-opacity="0.200000" d="M124.76,-169C132.3,-169.34 140.11,-169.68 147.63,-170.01"/>
<polygon fill="#000000" fill-opacity="0.200000" stroke="#000000" stroke-width="2" stroke-opacity="0.200000" points="147.19,-172.1 153.28,-170.26 147.38,-167.9 147.19,-172.1"/>
</g>
<!-- src/services/VideoParsers/index.ts&#45;&gt;src/services/StorageController/index.ts -->
<g id="edge13" class="edge">
<title>src/services/VideoParsers/index.ts&#45;&gt;src/services/StorageController/index.ts</title>
<path fill="none" stroke="#000000" stroke-width="2" stroke-opacity="0.200000" d="M327.43,-117C337.53,-117 349.21,-117 359.98,-117"/>
<polygon fill="#000000" fill-opacity="0.200000" stroke="#000000" stroke-width="2" stroke-opacity="0.200000" points="359.74,-119.1 365.74,-117 359.74,-114.9 359.74,-119.1"/>
</g>
<!-- src/stores/videosStore.ts&#45;&gt;src/services/index.ts -->
<g id="edge16" class="edge">
<title>src/stores/videosStore.ts&#45;&gt;src/services/index.ts</title>
<path fill="none" stroke="#000000" stroke-width="2" stroke-opacity="0.200000" d="M231.21,-172C241.75,-172 253.22,-172 263.69,-172"/>
<polygon fill="#000000" fill-opacity="0.200000" stroke="#000000" stroke-width="2" stroke-opacity="0.200000" points="263.55,-174.1 269.55,-172 263.55,-169.9 263.55,-174.1"/>
</g>
<!-- src/services/Filters/Filters.ts -->
<g id="node8" class="node">
<title>src/services/Filters/Filters.ts</title>
<g id="a_node8"><a xlink:href="src/services/Filters/Filters.ts" xlink:title="Filters.ts">
<path fill="#ddfeff" stroke="black" d="M520.08,-275.62C520.08,-275.62 478.92,-275.62 478.92,-275.62 475.71,-275.62 472.5,-272.42 472.5,-269.21 472.5,-269.21 472.5,-262.79 472.5,-262.79 472.5,-259.58 475.71,-256.38 478.92,-256.38 478.92,-256.38 520.08,-256.38 520.08,-256.38 523.29,-256.38 526.5,-259.58 526.5,-262.79 526.5,-262.79 526.5,-269.21 526.5,-269.21 526.5,-272.42 523.29,-275.62 520.08,-275.62"/>
<text text-anchor="start" x="481.88" y="-263.07" font-family="Helvetica,sans-Serif" font-size="9.00">Filters.ts</text>
</a>
</g>
</g>
<!-- src/services/Filters/index.ts&#45;&gt;src/services/Filters/Filters.ts -->
<g id="edge5" class="edge">
<title>src/services/Filters/index.ts&#45;&gt;src/services/Filters/Filters.ts</title>
<path fill="none" stroke="#000000" stroke-width="2" stroke-opacity="0.200000" d="M423.4,-266C438.44,-266 457.21,-266 472.23,-266"/>
<polygon fill="#000000" fill-opacity="0.200000" stroke="#000000" stroke-width="2" stroke-opacity="0.200000" points="475.04,-264.61 478.94,-272.71 470.84,-268.81 475.04,-264.61"/>
</g>
<!-- src/services/StorageController/migrations/index.ts -->
<g id="node11" class="node">
<title>src/services/StorageController/migrations/index.ts</title>
<g id="a_node11"><a xlink:href="src/services/StorageController/migrations/index.ts" xlink:title="index.ts">
<path fill="#ddfeff" stroke="black" d="M626.58,-126.62C626.58,-126.62 585.42,-126.62 585.42,-126.62 582.21,-126.62 579,-123.42 579,-120.21 579,-120.21 579,-113.79 579,-113.79 579,-110.58 582.21,-107.38 585.42,-107.38 585.42,-107.38 626.58,-107.38 626.58,-107.38 629.79,-107.38 633,-110.58 633,-113.79 633,-113.79 633,-120.21 633,-120.21 633,-123.42 629.79,-126.62 626.58,-126.62"/>
<text text-anchor="start" x="590.25" y="-114.08" font-family="Helvetica,sans-Serif" font-size="9.00">index.ts</text>
</a>
</g>
</g>
<!-- src/services/StorageController/VideoMetadataController.ts&#45;&gt;src/services/StorageController/migrations/index.ts -->
<g id="edge6" class="edge">
<title>src/services/StorageController/VideoMetadataController.ts&#45;&gt;src/services/StorageController/migrations/index.ts</title>
<path fill="none" stroke="#000000" stroke-width="2" stroke-opacity="0.200000" d="M563.4,-117C565.58,-117 567.73,-117 569.84,-117"/>
<polygon fill="#000000" fill-opacity="0.200000" stroke="#000000" stroke-width="2" stroke-opacity="0.200000" points="569.74,-119.1 575.74,-117 569.74,-114.9 569.74,-119.1"/>
</g>
<!-- src/services/StorageController/migrations/migrations.ts -->
<g id="node12" class="node">
<title>src/services/StorageController/migrations/migrations.ts</title>
<g id="a_node12"><a xlink:href="src/services/StorageController/migrations/migrations.ts" xlink:title="migrations.ts">
<path fill="#ddfeff" stroke="black" d="M709.58,-126.62C709.58,-126.62 652.42,-126.62 652.42,-126.62 649.21,-126.62 646,-123.42 646,-120.21 646,-120.21 646,-113.79 646,-113.79 646,-110.58 649.21,-107.38 652.42,-107.38 652.42,-107.38 709.58,-107.38 709.58,-107.38 712.79,-107.38 716,-110.58 716,-113.79 716,-113.79 716,-120.21 716,-120.21 716,-123.42 712.79,-126.62 709.58,-126.62"/>
<text text-anchor="start" x="654" y="-114.08" font-family="Helvetica,sans-Serif" font-size="9.00">migrations.ts</text>
</a>
</g>
</g>
<!-- src/services/StorageController/migrations/index.ts&#45;&gt;src/services/StorageController/migrations/migrations.ts -->
<g id="edge8" class="edge">
<title>src/services/StorageController/migrations/index.ts&#45;&gt;src/services/StorageController/migrations/migrations.ts</title>
<path fill="none" stroke="#000000" stroke-width="2" stroke-opacity="0.200000" d="M633.35,-117C637.36,-117 641.54,-117 645.68,-117"/>
<polygon fill="#000000" fill-opacity="0.200000" stroke="#000000" stroke-width="2" stroke-opacity="0.200000" points="648.48,-115.61 652.38,-123.71 644.28,-119.81 648.48,-115.61"/>
</g>
<!-- src/services/StorageController/migrations/v1/index.ts -->
<g id="node13" class="node">
<title>src/services/StorageController/migrations/v1/index.ts</title>
<g id="a_node13"><a xlink:href="src/services/StorageController/migrations/v1/index.ts" xlink:title="index.ts">
<path fill="#ddfeff" stroke="black" d="M779.58,-95.62C779.58,-95.62 738.42,-95.62 738.42,-95.62 735.21,-95.62 732,-92.42 732,-89.21 732,-89.21 732,-82.79 732,-82.79 732,-79.58 735.21,-76.38 738.42,-76.38 738.42,-76.38 779.58,-76.38 779.58,-76.38 782.79,-76.38 786,-79.58 786,-82.79 786,-82.79 786,-89.21 786,-89.21 786,-92.42 782.79,-95.62 779.58,-95.62"/>
<text text-anchor="start" x="743.25" y="-83.08" font-family="Helvetica,sans-Serif" font-size="9.00">index.ts</text>
</a>
</g>
</g>
<!-- src/services/StorageController/migrations/migrations.ts&#45;&gt;src/services/StorageController/migrations/v1/index.ts -->
<g id="edge9" class="edge">
<title>src/services/StorageController/migrations/migrations.ts&#45;&gt;src/services/StorageController/migrations/v1/index.ts</title>
<path fill="none" stroke="#000000" stroke-width="2" stroke-opacity="0.200000" d="M706.47,-107.02C712.37,-104.61 718.78,-102 725.01,-99.46"/>
<polygon fill="#000000" fill-opacity="0.200000" stroke="#000000" stroke-width="2" stroke-opacity="0.200000" points="725.75,-101.42 730.52,-97.21 724.17,-97.53 725.75,-101.42"/>
</g>
<!-- src/services/StorageController/migrations/v2/index.ts -->
<g id="node14" class="node">
<title>src/services/StorageController/migrations/v2/index.ts</title>
<g id="a_node14"><a xlink:href="src/services/StorageController/migrations/v2/index.ts" xlink:title="index.ts">
<path fill="#ddfeff" stroke="black" d="M779.58,-158.62C779.58,-158.62 738.42,-158.62 738.42,-158.62 735.21,-158.62 732,-155.42 732,-152.21 732,-152.21 732,-145.79 732,-145.79 732,-142.58 735.21,-139.38 738.42,-139.38 738.42,-139.38 779.58,-139.38 779.58,-139.38 782.79,-139.38 786,-142.58 786,-145.79 786,-145.79 786,-152.21 786,-152.21 786,-155.42 782.79,-158.62 779.58,-158.62"/>
<text text-anchor="start" x="743.25" y="-146.07" font-family="Helvetica,sans-Serif" font-size="9.00">index.ts</text>
</a>
</g>
</g>
<!-- src/services/StorageController/migrations/migrations.ts&#45;&gt;src/services/StorageController/migrations/v2/index.ts -->
<g id="edge10" class="edge">
<title>src/services/StorageController/migrations/migrations.ts&#45;&gt;src/services/StorageController/migrations/v2/index.ts</title>
<path fill="none" stroke="#000000" stroke-width="2" stroke-opacity="0.200000" d="M706.05,-127.12C712.35,-129.78 719.24,-132.68 725.89,-135.48"/>
<polygon fill="#000000" fill-opacity="0.200000" stroke="#000000" stroke-width="2" stroke-opacity="0.200000" points="724.97,-137.37 731.32,-137.77 726.6,-133.5 724.97,-137.37"/>
</g>
<!-- src/services/StorageController/migrations/utils/index.ts -->
<g id="node15" class="node">
<title>src/services/StorageController/migrations/utils/index.ts</title>
<g id="a_node15"><a xlink:href="src/services/StorageController/migrations/utils/index.ts" xlink:title="index.ts">
<path fill="#ddfeff" stroke="black" d="M857.58,-126.62C857.58,-126.62 816.42,-126.62 816.42,-126.62 813.21,-126.62 810,-123.42 810,-120.21 810,-120.21 810,-113.79 810,-113.79 810,-110.58 813.21,-107.38 816.42,-107.38 816.42,-107.38 857.58,-107.38 857.58,-107.38 860.79,-107.38 864,-110.58 864,-113.79 864,-113.79 864,-120.21 864,-120.21 864,-123.42 860.79,-126.62 857.58,-126.62"/>
<text text-anchor="start" x="821.25" y="-114.08" font-family="Helvetica,sans-Serif" font-size="9.00">index.ts</text>
</a>
</g>
</g>
<!-- src/services/StorageController/migrations/v1/index.ts&#45;&gt;src/services/StorageController/migrations/utils/index.ts -->
<g id="edge11" class="edge">
<title>src/services/StorageController/migrations/v1/index.ts&#45;&gt;src/services/StorageController/migrations/utils/index.ts</title>
<path fill="none" stroke="#000000" stroke-width="2" stroke-opacity="0.200000" d="M784.47,-95.98C790.37,-98.39 796.78,-101 803.01,-103.54"/>
<polygon fill="#000000" fill-opacity="0.200000" stroke="#000000" stroke-width="2" stroke-opacity="0.200000" points="802.17,-105.47 808.52,-105.79 803.75,-101.58 802.17,-105.47"/>
</g>
<!-- src/services/StorageController/migrations/v2/index.ts&#45;&gt;src/services/StorageController/migrations/utils/index.ts -->
<g id="edge12" class="edge">
<title>src/services/StorageController/migrations/v2/index.ts&#45;&gt;src/services/StorageController/migrations/utils/index.ts</title>
<path fill="none" stroke="#000000" stroke-width="2" stroke-opacity="0.200000" d="M784.05,-138.88C790.35,-136.22 797.24,-133.32 803.89,-130.52"/>
<polygon fill="#000000" fill-opacity="0.200000" stroke="#000000" stroke-width="2" stroke-opacity="0.200000" points="804.6,-132.5 809.32,-128.23 802.97,-128.63 804.6,-132.5"/>
</g>
</g>
</svg>
