<?xml version="1.0" encoding="UTF-8" standalone="no"?>
<!DOCTYPE svg PUBLIC "-//W3C//DTD SVG 1.1//EN"
 "http://www.w3.org/Graphics/SVG/1.1/DTD/svg11.dtd">
<!-- Generated by graphviz version 9.0.0 (20230911.1827)
 -->
<!-- Title: dependency&#45;cruiser output Pages: 1 -->
<svg width="579pt" height="311pt"
 viewBox="0.00 0.00 579.25 311.06" xmlns="http://www.w3.org/2000/svg" xmlns:xlink="http://www.w3.org/1999/xlink">
<g id="graph0" class="graph" transform="scale(1 1) rotate(0) translate(4 307.06)">
<title>dependency&#45;cruiser output</title>
<polygon fill="white" stroke="none" points="-4,4 -4,-307.06 575.25,-307.06 575.25,4 -4,4"/>
<g id="clust1" class="cluster">
<title>cluster_src</title>
<path fill="#ffffff" stroke="black" stroke-width="2" d="M20,-21.06C20,-21.06 551.25,-21.06 551.25,-21.06 557.25,-21.06 563.25,-27.06 563.25,-33.06 563.25,-33.06 563.25,-283.06 563.25,-283.06 563.25,-289.06 557.25,-295.06 551.25,-295.06 551.25,-295.06 20,-295.06 20,-295.06 14,-295.06 8,-289.06 8,-283.06 8,-283.06 8,-33.06 8,-33.06 8,-27.06 14,-21.06 20,-21.06"/>
<text text-anchor="middle" x="285.62" y="-282.51" font-family="Helvetica,sans-Serif" font-weight="bold" font-size="9.00">src</text>
</g>
<g id="clust2" class="cluster">
<title>cluster_src/application</title>
<path fill="#ffffff" stroke="black" stroke-width="2" d="M28,-116.06C28,-116.06 465.25,-116.06 465.25,-116.06 471.25,-116.06 477.25,-122.06 477.25,-128.06 477.25,-128.06 477.25,-256.06 477.25,-256.06 477.25,-262.06 471.25,-268.06 465.25,-268.06 465.25,-268.06 28,-268.06 28,-268.06 22,-268.06 16,-262.06 16,-256.06 16,-256.06 16,-128.06 16,-128.06 16,-122.06 22,-116.06 28,-116.06"/>
<text text-anchor="middle" x="246.62" y="-255.51" font-family="Helvetica,sans-Serif" font-weight="bold" font-size="9.00">application</text>
</g>
<g id="clust3" class="cluster">
<title>cluster_src/application/services</title>
<path fill="#ffffff" stroke="black" stroke-width="2" d="M98,-124.06C98,-124.06 457.25,-124.06 457.25,-124.06 463.25,-124.06 469.25,-130.06 469.25,-136.06 469.25,-136.06 469.25,-229.06 469.25,-229.06 469.25,-235.06 463.25,-241.06 457.25,-241.06 457.25,-241.06 98,-241.06 98,-241.06 92,-241.06 86,-235.06 86,-229.06 86,-229.06 86,-136.06 86,-136.06 86,-130.06 92,-124.06 98,-124.06"/>
<text text-anchor="middle" x="277.62" y="-228.51" font-family="Helvetica,sans-Serif" font-weight="bold" font-size="9.00">services</text>
</g>
<g id="clust5" class="cluster">
<title>cluster_src/infrastructure</title>
<path fill="#ffffff" stroke="black" stroke-width="2" d="M373.12,-53.06C373.12,-53.06 424.12,-53.06 424.12,-53.06 430.12,-53.06 436.12,-59.06 436.12,-65.06 436.12,-65.06 436.12,-96.06 436.12,-96.06 436.12,-102.06 430.12,-108.06 424.12,-108.06 424.12,-108.06 373.12,-108.06 373.12,-108.06 367.12,-108.06 361.12,-102.06 361.12,-96.06 361.12,-96.06 361.12,-65.06 361.12,-65.06 361.12,-59.06 367.12,-53.06 373.12,-53.06"/>
<text text-anchor="middle" x="398.62" y="-95.51" font-family="Helvetica,sans-Serif" font-weight="bold" font-size="9.00">infrastructure</text>
</g>
<g id="clust4" class="cluster">
<title>cluster_src/domain</title>
<path fill="#ffffff" stroke="black" stroke-width="2" d="M497.25,-64.06C497.25,-64.06 543.25,-64.06 543.25,-64.06 549.25,-64.06 555.25,-70.06 555.25,-76.06 555.25,-76.06 555.25,-107.06 555.25,-107.06 555.25,-113.06 549.25,-119.06 543.25,-119.06 543.25,-119.06 497.25,-119.06 497.25,-119.06 491.25,-119.06 485.25,-113.06 485.25,-107.06 485.25,-107.06 485.25,-76.06 485.25,-76.06 485.25,-70.06 491.25,-64.06 497.25,-64.06"/>
<text text-anchor="middle" x="520.25" y="-106.51" font-family="Helvetica,sans-Serif" font-weight="bold" font-size="9.00">domain</text>
</g>
<!-- src/application/index.ts -->
<g id="node1" class="node">
<title>src/application/index.ts</title>
<g id="a_node1"><a xlink:href="src/application/index.ts" xlink:title="index.ts">
<path fill="#ddfeff" stroke="black" d="M71.58,-197.68C71.58,-197.68 30.42,-197.68 30.42,-197.68 27.21,-197.68 24,-194.47 24,-191.26 24,-191.26 24,-184.85 24,-184.85 24,-181.64 27.21,-178.43 30.42,-178.43 30.42,-178.43 71.58,-178.43 71.58,-178.43 74.79,-178.43 78,-181.64 78,-184.85 78,-184.85 78,-191.26 78,-191.26 78,-194.47 74.79,-197.68 71.58,-197.68"/>
<text text-anchor="start" x="35.25" y="-185.13" font-family="Helvetica,sans-Serif" font-size="9.00">index.ts</text>
</a>
</g>
</g>
<!-- src/application/services/FileParserService.ts -->
<g id="node2" class="node">
<title>src/application/services/FileParserService.ts</title>
<g id="a_node2"><a xlink:href="src/application/services/FileParserService.ts" xlink:title="FileParserService.ts">
<path fill="#ddfeff" stroke="black" d="M186.08,-182.68C186.08,-182.68 100.42,-182.68 100.42,-182.68 97.21,-182.68 94,-179.47 94,-176.26 94,-176.26 94,-169.85 94,-169.85 94,-166.64 97.21,-163.43 100.42,-163.43 100.42,-163.43 186.08,-163.43 186.08,-163.43 189.29,-163.43 192.5,-166.64 192.5,-169.85 192.5,-169.85 192.5,-176.26 192.5,-176.26 192.5,-179.47 189.29,-182.68 186.08,-182.68"/>
<text text-anchor="start" x="102" y="-170.13" font-family="Helvetica,sans-Serif" font-size="9.00">FileParserService.ts</text>
</a>
</g>
</g>
<!-- src/application/index.ts&#45;&gt;src/application/services/FileParserService.ts -->
<g id="edge1" class="edge">
<title>src/application/index.ts&#45;&gt;src/application/services/FileParserService.ts</title>
<path fill="none" stroke="#000000" stroke-width="2" stroke-opacity="0.200000" d="M78.1,-183.72C83,-182.9 88.26,-182.03 93.58,-181.14"/>
<polygon fill="#000000" fill-opacity="0.200000" stroke="#000000" stroke-width="2" stroke-opacity="0.200000" points="96.39,-179.75 100.29,-187.85 92.19,-183.95 96.39,-179.75"/>
</g>
<!-- src/application/services/FiltersService.ts -->
<g id="node3" class="node">
<title>src/application/services/FiltersService.ts</title>
<g id="a_node3"><a xlink:href="src/application/services/FiltersService.ts" xlink:title="FiltersService.ts">
<path fill="#ddfeff" stroke="black" d="M177.46,-151.68C177.46,-151.68 109.04,-151.68 109.04,-151.68 105.83,-151.68 102.62,-148.47 102.62,-145.26 102.62,-145.26 102.62,-138.85 102.62,-138.85 102.62,-135.64 105.83,-132.43 109.04,-132.43 109.04,-132.43 177.46,-132.43 177.46,-132.43 180.67,-132.43 183.88,-135.64 183.88,-138.85 183.88,-138.85 183.88,-145.26 183.88,-145.26 183.88,-148.47 180.67,-151.68 177.46,-151.68"/>
<text text-anchor="start" x="110.62" y="-139.13" font-family="Helvetica,sans-Serif" font-size="9.00">FiltersService.ts</text>
</a>
</g>
</g>
<!-- src/application/index.ts&#45;&gt;src/application/services/FiltersService.ts -->
<g id="edge2" class="edge">
<title>src/application/index.ts&#45;&gt;src/application/services/FiltersService.ts</title>
<path fill="none" stroke="#000000" stroke-width="2" stroke-opacity="0.200000" d="M60.57,-178.03C66.94,-171.18 76.19,-162.42 86,-157.06 88.53,-155.67 91.19,-154.41 93.93,-153.27"/>
<polygon fill="#000000" fill-opacity="0.200000" stroke="#000000" stroke-width="2" stroke-opacity="0.200000" points="94.56,-155.27 99.45,-151.21 93.1,-151.33 94.56,-155.27"/>
</g>
<!-- src/application/services/Hotkeys.ts -->
<g id="node4" class="node">
<title>src/application/services/Hotkeys.ts</title>
<g id="a_node4"><a xlink:href="src/application/services/Hotkeys.ts" xlink:title="Hotkeys.ts">
<path fill="#ddfeff" stroke="black" d="M166.21,-213.68C166.21,-213.68 120.29,-213.68 120.29,-213.68 117.08,-213.68 113.88,-210.47 113.88,-207.26 113.88,-207.26 113.88,-200.85 113.88,-200.85 113.88,-197.64 117.08,-194.43 120.29,-194.43 120.29,-194.43 166.21,-194.43 166.21,-194.43 169.42,-194.43 172.62,-197.64 172.62,-200.85 172.62,-200.85 172.62,-207.26 172.62,-207.26 172.62,-210.47 169.42,-213.68 166.21,-213.68"/>
<text text-anchor="start" x="121.88" y="-201.13" font-family="Helvetica,sans-Serif" font-size="9.00">Hotkeys.ts</text>
</a>
</g>
</g>
<!-- src/application/index.ts&#45;&gt;src/application/services/Hotkeys.ts -->
<g id="edge3" class="edge">
<title>src/application/index.ts&#45;&gt;src/application/services/Hotkeys.ts</title>
<path fill="none" stroke="#000000" stroke-width="2" stroke-opacity="0.200000" d="M78.1,-192.68C89.24,-194.66 102.28,-196.97 113.68,-198.99"/>
<polygon fill="#000000" fill-opacity="0.200000" stroke="#000000" stroke-width="2" stroke-opacity="0.200000" points="116.48,-197.6 120.38,-205.7 112.28,-201.8 116.48,-197.6"/>
</g>
<!-- src/application/services/VideoMetadataService.ts -->
<g id="node5" class="node">
<title>src/application/services/VideoMetadataService.ts</title>
<g id="a_node5"><a xlink:href="src/application/services/VideoMetadataService.ts" xlink:title="VideoMetadataService.ts">
<path fill="#ddfeff" stroke="black" d="M315.58,-151.68C315.58,-151.68 211.92,-151.68 211.92,-151.68 208.71,-151.68 205.5,-148.47 205.5,-145.26 205.5,-145.26 205.5,-138.85 205.5,-138.85 205.5,-135.64 208.71,-132.43 211.92,-132.43 211.92,-132.43 315.58,-132.43 315.58,-132.43 318.79,-132.43 322,-135.64 322,-138.85 322,-138.85 322,-145.26 322,-145.26 322,-148.47 318.79,-151.68 315.58,-151.68"/>
<text text-anchor="start" x="213.5" y="-139.13" font-family="Helvetica,sans-Serif" font-size="9.00">VideoMetadataService.ts</text>
</a>
</g>
</g>
<!-- src/application/index.ts&#45;&gt;src/application/services/VideoMetadataService.ts -->
<g id="edge4" class="edge">
<title>src/application/index.ts&#45;&gt;src/application/services/VideoMetadataService.ts</title>
<path fill="none" stroke="#000000" stroke-width="2" stroke-opacity="0.200000" d="M59.09,-197.97C65.23,-205.63 74.85,-215.63 86,-220.06 130,-237.5 149.26,-239.3 192.5,-220.06 220.06,-207.79 241.34,-178.78 252.95,-159.81"/>
<polygon fill="#000000" fill-opacity="0.200000" stroke="#000000" stroke-width="2" stroke-opacity="0.200000" points="254.7,-160.98 255.93,-154.74 251.08,-158.85 254.7,-160.98"/>
</g>
<!-- src/application/services/FileParserService.ts&#45;&gt;src/application/services/VideoMetadataService.ts -->
<g id="edge5" class="edge">
<title>src/application/services/FileParserService.ts&#45;&gt;src/application/services/VideoMetadataService.ts</title>
<path fill="none" stroke="#000000" stroke-width="2" stroke-opacity="0.200000" d="M182.72,-162.99C193.18,-160.26 204.61,-157.26 215.49,-154.42"/>
<polygon fill="#000000" fill-opacity="0.200000" stroke="#000000" stroke-width="2" stroke-opacity="0.200000" points="215.86,-156.49 221.14,-152.94 214.8,-152.43 215.86,-156.49"/>
</g>
<!-- src/domain/index.ts -->
<g id="node6" class="node">
<title>src/domain/index.ts</title>
<g id="a_node6"><a xlink:href="src/domain/index.ts" xlink:title="index.ts">
<path fill="#ddfeff" stroke="black" d="M540.83,-91.68C540.83,-91.68 499.67,-91.68 499.67,-91.68 496.46,-91.68 493.25,-88.47 493.25,-85.26 493.25,-85.26 493.25,-78.85 493.25,-78.85 493.25,-75.64 496.46,-72.43 499.67,-72.43 499.67,-72.43 540.83,-72.43 540.83,-72.43 544.04,-72.43 547.25,-75.64 547.25,-78.85 547.25,-78.85 547.25,-85.26 547.25,-85.26 547.25,-88.47 544.04,-91.68 540.83,-91.68"/>
<text text-anchor="start" x="504.5" y="-79.13" font-family="Helvetica,sans-Serif" font-size="9.00">index.ts</text>
</a>
</g>
</g>
<!-- src/application/services/FileParserService.ts&#45;&gt;src/domain/index.ts -->
<g id="edge6" class="edge">
<title>src/application/services/FileParserService.ts&#45;&gt;src/domain/index.ts</title>
<path fill="none" stroke="#000000" stroke-opacity="0.200000" d="M187.08,-162.98C189.07,-161.55 190.9,-159.92 192.5,-158.06 217.17,-129.44 179.19,-101.16 205.5,-74.06 247.73,-30.56 419.81,-30.67 477.25,-50.06 487.49,-53.51 497.21,-60.58 504.72,-67.19"/>
<polygon fill="none" stroke="#000000" stroke-opacity="0.200000" points="503.06,-68.52 508.89,-71.06 505.92,-65.44 503.06,-68.52"/>
</g>
<!-- src/infrastructure/index.ts -->
<g id="node7" class="node">
<title>src/infrastructure/index.ts</title>
<g id="a_node7"><a xlink:href="src/infrastructure/index.ts" xlink:title="index.ts">
<path fill="#ddfeff" stroke="black" d="M418.71,-80.68C418.71,-80.68 377.54,-80.68 377.54,-80.68 374.33,-80.68 371.12,-77.47 371.12,-74.26 371.12,-74.26 371.12,-67.85 371.12,-67.85 371.12,-64.64 374.33,-61.43 377.54,-61.43 377.54,-61.43 418.71,-61.43 418.71,-61.43 421.92,-61.43 425.12,-64.64 425.12,-67.85 425.12,-67.85 425.12,-74.26 425.12,-74.26 425.12,-77.47 421.92,-80.68 418.71,-80.68"/>
<text text-anchor="start" x="382.38" y="-68.13" font-family="Helvetica,sans-Serif" font-size="9.00">index.ts</text>
</a>
</g>
</g>
<!-- src/application/services/FileParserService.ts&#45;&gt;src/infrastructure/index.ts -->
<g id="edge7" class="edge">
<title>src/application/services/FileParserService.ts&#45;&gt;src/infrastructure/index.ts</title>
<path fill="none" stroke="#000000" stroke-width="2" stroke-opacity="0.200000" d="M185.68,-163.06C188.13,-161.61 190.43,-159.95 192.5,-158.06 203.8,-147.67 194.08,-136.32 205.5,-126.06 249.39,-86.61 319.81,-75.31 361.96,-72.16"/>
<polygon fill="#000000" fill-opacity="0.200000" stroke="#000000" stroke-width="2" stroke-opacity="0.200000" points="361.88,-74.27 367.74,-71.79 361.61,-70.08 361.88,-74.27"/>
</g>
<!-- src/application/services/FiltersService.ts&#45;&gt;src/domain/index.ts -->
<g id="edge8" class="edge">
<title>src/application/services/FiltersService.ts&#45;&gt;src/domain/index.ts</title>
<path fill="none" stroke="#000000" stroke-opacity="0.200000" d="M146.69,-132.15C152.56,-110.71 169.73,-60.3 205.5,-40.06 310.61,19.43 365.67,6.16 477.25,-40.06 490.07,-45.36 501.01,-56.69 508.51,-66.25"/>
<polygon fill="none" stroke="#000000" stroke-opacity="0.200000" points="506.76,-67.41 512.03,-70.97 510.13,-64.91 506.76,-67.41"/>
</g>
<!-- src/application/services/VideoMetadataService.ts&#45;&gt;src/domain/index.ts -->
<g id="edge10" class="edge">
<title>src/application/services/VideoMetadataService.ts&#45;&gt;src/domain/index.ts</title>
<path fill="none" stroke="#000000" stroke-opacity="0.200000" d="M305.08,-132.01C314.83,-129.82 325.25,-127.67 335,-126.06 397.71,-115.64 417.63,-133.13 477.25,-111.06 486.21,-107.74 495.07,-102.07 502.33,-96.62"/>
<polygon fill="none" stroke="#000000" stroke-opacity="0.200000" points="503.41,-98.45 506.82,-93.09 500.81,-95.14 503.41,-98.45"/>
</g>
<!-- src/application/services/VideoMetadataService.ts&#45;&gt;src/infrastructure/index.ts -->
<g id="edge11" class="edge">
<title>src/application/services/VideoMetadataService.ts&#45;&gt;src/infrastructure/index.ts</title>
<path fill="none" stroke="#000000" stroke-width="2" stroke-opacity="0.200000" d="M283.44,-132.03C306.2,-119.82 344.81,-99.11 370.64,-85.26"/>
<polygon fill="#000000" fill-opacity="0.200000" stroke="#000000" stroke-width="2" stroke-opacity="0.200000" points="371.57,-87.14 375.87,-82.46 369.59,-83.44 371.57,-87.14"/>
</g>
<!-- src/application/services/VideoStorageDtoMapper.ts -->
<g id="node8" class="node">
<title>src/application/services/VideoStorageDtoMapper.ts</title>
<g id="a_node8"><a xlink:href="src/application/services/VideoStorageDtoMapper.ts" xlink:title="VideoStorageDtoMapper.ts">
<path fill="#ddfeff" stroke="black" d="M454.83,-151.68C454.83,-151.68 341.42,-151.68 341.42,-151.68 338.21,-151.68 335,-148.47 335,-145.26 335,-145.26 335,-138.85 335,-138.85 335,-135.64 338.21,-132.43 341.42,-132.43 341.42,-132.43 454.83,-132.43 454.83,-132.43 458.04,-132.43 461.25,-135.64 461.25,-138.85 461.25,-138.85 461.25,-145.26 461.25,-145.26 461.25,-148.47 458.04,-151.68 454.83,-151.68"/>
<text text-anchor="start" x="343" y="-139.13" font-family="Helvetica,sans-Serif" font-size="9.00">VideoStorageDtoMapper.ts</text>
</a>
</g>
</g>
<!-- src/application/services/VideoMetadataService.ts&#45;&gt;src/application/services/VideoStorageDtoMapper.ts -->
<g id="edge9" class="edge">
<title>src/application/services/VideoMetadataService.ts&#45;&gt;src/application/services/VideoStorageDtoMapper.ts</title>
<path fill="none" stroke="#000000" stroke-width="2" stroke-opacity="0.200000" d="M322.43,-142.06C323.56,-142.06 324.7,-142.06 325.84,-142.06"/>
<polygon fill="#000000" fill-opacity="0.200000" stroke="#000000" stroke-width="2" stroke-opacity="0.200000" points="325.59,-144.16 331.59,-142.06 325.59,-139.96 325.59,-144.16"/>
</g>
<!-- src/application/services/VideoStorageDtoMapper.ts&#45;&gt;src/domain/index.ts -->
<g id="edge12" class="edge">
<title>src/application/services/VideoStorageDtoMapper.ts&#45;&gt;src/domain/index.ts</title>
<path fill="none" stroke="#000000" stroke-opacity="0.200000" d="M453.46,-131.99C461.71,-129.39 469.9,-126.13 477.25,-122.06 488.41,-115.87 498.82,-106.01 506.48,-97.62"/>
<polygon fill="none" stroke="#000000" stroke-opacity="0.200000" points="507.94,-99.14 510.32,-93.25 504.78,-96.37 507.94,-99.14"/>
</g>
</g>
</svg>
