<?xml version="1.0" encoding="UTF-8" standalone="no"?>
<!DOCTYPE svg PUBLIC "-//W3C//DTD SVG 1.1//EN"
 "http://www.w3.org/Graphics/SVG/1.1/DTD/svg11.dtd">
<!-- Generated by graphviz version 9.0.0 (20230911.1827)
 -->
<!-- Title: dependency&#45;cruiser output Pages: 1 -->
<svg width="458pt" height="180pt"
 viewBox="0.00 0.00 458.25 180.00" xmlns="http://www.w3.org/2000/svg" xmlns:xlink="http://www.w3.org/1999/xlink">
<g id="graph0" class="graph" transform="scale(1 1) rotate(0) translate(4 176)">
<title>dependency&#45;cruiser output</title>
<polygon fill="white" stroke="none" points="-4,4 -4,-176 454.25,-176 454.25,4 -4,4"/>
<g id="clust1" class="cluster">
<title>cluster_src</title>
<path fill="#ffffff" stroke="black" stroke-width="2" d="M20,-8C20,-8 433.25,-8 433.25,-8 439.25,-8 445.25,-14 445.25,-20 445.25,-20 445.25,-152 445.25,-152 445.25,-158 439.25,-164 433.25,-164 433.25,-164 20,-164 20,-164 14,-164 8,-158 8,-152 8,-152 8,-20 8,-20 8,-14 14,-8 20,-8"/>
<text text-anchor="middle" x="226.62" y="-151.45" font-family="Helvetica,sans-Serif" font-weight="bold" font-size="9.00">src</text>
</g>
<g id="clust2" class="cluster">
<title>cluster_src/application</title>
<path fill="#ffffff" stroke="black" stroke-width="2" d="M28,-16C28,-16 334.25,-16 334.25,-16 340.25,-16 346.25,-22 346.25,-28 346.25,-28 346.25,-125 346.25,-125 346.25,-131 340.25,-137 334.25,-137 334.25,-137 28,-137 28,-137 22,-137 16,-131 16,-125 16,-125 16,-28 16,-28 16,-22 22,-16 28,-16"/>
<text text-anchor="middle" x="181.12" y="-124.45" font-family="Helvetica,sans-Serif" font-weight="bold" font-size="9.00">application</text>
</g>
<g id="clust3" class="cluster">
<title>cluster_src/application/services</title>
<path fill="#ffffff" stroke="black" stroke-width="2" d="M98,-24C98,-24 326.25,-24 326.25,-24 332.25,-24 338.25,-30 338.25,-36 338.25,-36 338.25,-98 338.25,-98 338.25,-104 332.25,-110 326.25,-110 326.25,-110 98,-110 98,-110 92,-110 86,-104 86,-98 86,-98 86,-36 86,-36 86,-30 92,-24 98,-24"/>
<text text-anchor="middle" x="212.12" y="-97.45" font-family="Helvetica,sans-Serif" font-weight="bold" font-size="9.00">services</text>
</g>
<g id="clust4" class="cluster">
<title>cluster_src/infrastructure</title>
<path fill="#ffffff" stroke="black" stroke-width="2" d="M374.25,-39C374.25,-39 425.25,-39 425.25,-39 431.25,-39 437.25,-45 437.25,-51 437.25,-51 437.25,-82 437.25,-82 437.25,-88 431.25,-94 425.25,-94 425.25,-94 374.25,-94 374.25,-94 368.25,-94 362.25,-88 362.25,-82 362.25,-82 362.25,-51 362.25,-51 362.25,-45 368.25,-39 374.25,-39"/>
<text text-anchor="middle" x="399.75" y="-81.45" font-family="Helvetica,sans-Serif" font-weight="bold" font-size="9.00">infrastructure</text>
</g>
<!-- src/application/index.ts -->
<g id="node1" class="node">
<title>src/application/index.ts</title>
<g id="a_node1"><a xlink:href="src/application/index.ts" xlink:title="index.ts">
<path fill="#ddfeff" stroke="black" d="M71.58,-82.62C71.58,-82.62 30.42,-82.62 30.42,-82.62 27.21,-82.62 24,-79.42 24,-76.21 24,-76.21 24,-69.79 24,-69.79 24,-66.58 27.21,-63.38 30.42,-63.38 30.42,-63.38 71.58,-63.38 71.58,-63.38 74.79,-63.38 78,-66.58 78,-69.79 78,-69.79 78,-76.21 78,-76.21 78,-79.42 74.79,-82.62 71.58,-82.62"/>
<text text-anchor="start" x="35.25" y="-70.08" font-family="Helvetica,sans-Serif" font-size="9.00">index.ts</text>
</a>
</g>
</g>
<!-- src/application/services/FiltersService.ts -->
<g id="node2" class="node">
<title>src/application/services/FiltersService.ts</title>
<g id="a_node2"><a xlink:href="src/application/services/FiltersService.ts" xlink:title="FiltersService.ts">
<path fill="#ddfeff" stroke="black" d="M181.58,-82.62C181.58,-82.62 113.17,-82.62 113.17,-82.62 109.96,-82.62 106.75,-79.42 106.75,-76.21 106.75,-76.21 106.75,-69.79 106.75,-69.79 106.75,-66.58 109.96,-63.38 113.17,-63.38 113.17,-63.38 181.58,-63.38 181.58,-63.38 184.79,-63.38 188,-66.58 188,-69.79 188,-69.79 188,-76.21 188,-76.21 188,-79.42 184.79,-82.62 181.58,-82.62"/>
<text text-anchor="start" x="114.75" y="-70.08" font-family="Helvetica,sans-Serif" font-size="9.00">FiltersService.ts</text>
</a>
</g>
</g>
<!-- src/application/index.ts&#45;&gt;src/application/services/FiltersService.ts -->
<g id="edge1" class="edge">
<title>src/application/index.ts&#45;&gt;src/application/services/FiltersService.ts</title>
<path fill="none" stroke="#000000" stroke-width="2" stroke-opacity="0.200000" d="M78.29,-73C84.29,-73 90.85,-73 97.46,-73"/>
<polygon fill="#000000" fill-opacity="0.200000" stroke="#000000" stroke-width="2" stroke-opacity="0.200000" points="97.43,-75.1 103.43,-73 97.43,-70.9 97.43,-75.1"/>
</g>
<!-- src/application/services/VideoMetadataService.ts -->
<g id="node3" class="node">
<title>src/application/services/VideoMetadataService.ts</title>
<g id="a_node3"><a xlink:href="src/application/services/VideoMetadataService.ts" xlink:title="VideoMetadataService.ts">
<path fill="#ddfeff" stroke="black" d="M323.83,-66.62C323.83,-66.62 220.17,-66.62 220.17,-66.62 216.96,-66.62 213.75,-63.42 213.75,-60.21 213.75,-60.21 213.75,-53.79 213.75,-53.79 213.75,-50.58 216.96,-47.38 220.17,-47.38 220.17,-47.38 323.83,-47.38 323.83,-47.38 327.04,-47.38 330.25,-50.58 330.25,-53.79 330.25,-53.79 330.25,-60.21 330.25,-60.21 330.25,-63.42 327.04,-66.62 323.83,-66.62"/>
<text text-anchor="start" x="221.75" y="-54.08" font-family="Helvetica,sans-Serif" font-size="9.00">VideoMetadataService.ts</text>
</a>
</g>
</g>
<!-- src/application/index.ts&#45;&gt;src/application/services/VideoMetadataService.ts -->
<g id="edge2" class="edge">
<title>src/application/index.ts&#45;&gt;src/application/services/VideoMetadataService.ts</title>
<path fill="none" stroke="#000000" stroke-width="2" stroke-opacity="0.200000" d="M69.47,-83.01C74.63,-85.47 80.4,-87.75 86,-89 135.77,-100.13 150.91,-99.82 200.75,-89 216.8,-85.52 233.59,-78.03 246.72,-71.18"/>
<polygon fill="#000000" fill-opacity="0.200000" stroke="#000000" stroke-width="2" stroke-opacity="0.200000" points="247.45,-73.17 251.73,-68.47 245.45,-69.48 247.45,-73.17"/>
</g>
<!-- src/application/services/VideoParserService.ts -->
<g id="node4" class="node">
<title>src/application/services/VideoParserService.ts</title>
<g id="a_node4"><a xlink:href="src/application/services/VideoParserService.ts" xlink:title="VideoParserService.ts">
<path fill="#ddfeff" stroke="black" d="M194.33,-51.62C194.33,-51.62 100.42,-51.62 100.42,-51.62 97.21,-51.62 94,-48.42 94,-45.21 94,-45.21 94,-38.79 94,-38.79 94,-35.58 97.21,-32.38 100.42,-32.38 100.42,-32.38 194.33,-32.38 194.33,-32.38 197.54,-32.38 200.75,-35.58 200.75,-38.79 200.75,-38.79 200.75,-45.21 200.75,-45.21 200.75,-48.42 197.54,-51.62 194.33,-51.62"/>
<text text-anchor="start" x="102" y="-39.08" font-family="Helvetica,sans-Serif" font-size="9.00">VideoParserService.ts</text>
</a>
</g>
</g>
<!-- src/application/index.ts&#45;&gt;src/application/services/VideoParserService.ts -->
<g id="edge3" class="edge">
<title>src/application/index.ts&#45;&gt;src/application/services/VideoParserService.ts</title>
<path fill="none" stroke="#000000" stroke-width="2" stroke-opacity="0.200000" d="M71.5,-63.02C76.18,-60.86 81.21,-58.71 86,-57 88.34,-56.17 90.74,-55.37 93.18,-54.59"/>
<polygon fill="#000000" fill-opacity="0.200000" stroke="#000000" stroke-width="2" stroke-opacity="0.200000" points="93.52,-56.68 98.67,-52.95 92.32,-52.66 93.52,-56.68"/>
</g>
<!-- src/infrastructure/index.ts -->
<g id="node5" class="node">
<title>src/infrastructure/index.ts</title>
<g id="a_node5"><a xlink:href="src/infrastructure/index.ts" xlink:title="index.ts">
<path fill="#ddfeff" stroke="black" d="M419.83,-66.62C419.83,-66.62 378.67,-66.62 378.67,-66.62 375.46,-66.62 372.25,-63.42 372.25,-60.21 372.25,-60.21 372.25,-53.79 372.25,-53.79 372.25,-50.58 375.46,-47.38 378.67,-47.38 378.67,-47.38 419.83,-47.38 419.83,-47.38 423.04,-47.38 426.25,-50.58 426.25,-53.79 426.25,-53.79 426.25,-60.21 426.25,-60.21 426.25,-63.42 423.04,-66.62 419.83,-66.62"/>
<text text-anchor="start" x="383.5" y="-54.08" font-family="Helvetica,sans-Serif" font-size="9.00">index.ts</text>
</a>
</g>
</g>
<!-- src/application/services/VideoMetadataService.ts&#45;&gt;src/infrastructure/index.ts -->
<g id="edge4" class="edge">
<title>src/application/services/VideoMetadataService.ts&#45;&gt;src/infrastructure/index.ts</title>
<path fill="none" stroke="#000000" stroke-width="2" stroke-opacity="0.200000" d="M330.49,-57C341.62,-57 352.97,-57 363.11,-57"/>
<polygon fill="#000000" fill-opacity="0.200000" stroke="#000000" stroke-width="2" stroke-opacity="0.200000" points="363.02,-59.1 369.02,-57 363.02,-54.9 363.02,-59.1"/>
</g>
<!-- src/application/services/VideoParserService.ts&#45;&gt;src/application/services/VideoMetadataService.ts -->
<g id="edge5" class="edge">
<title>src/application/services/VideoParserService.ts&#45;&gt;src/application/services/VideoMetadataService.ts</title>
<path fill="none" stroke="#000000" stroke-width="2" stroke-opacity="0.200000" d="M201.09,-48.45C202.39,-48.61 203.69,-48.77 205,-48.93"/>
<polygon fill="#000000" fill-opacity="0.200000" stroke="#000000" stroke-width="2" stroke-opacity="0.200000" points="204.42,-50.97 210.63,-49.62 204.93,-46.8 204.42,-50.97"/>
</g>
</g>
</svg>
