<?xml version="1.0" encoding="UTF-8" standalone="no"?>
<!DOCTYPE svg PUBLIC "-//W3C//DTD SVG 1.1//EN"
 "http://www.w3.org/Graphics/SVG/1.1/DTD/svg11.dtd">
<!-- Generated by graphviz version 9.0.0 (20230911.1827)
 -->
<!-- Title: dependency&#45;cruiser output Pages: 1 -->
<svg width="687pt" height="278pt"
 viewBox="0.00 0.00 686.75 278.00" xmlns="http://www.w3.org/2000/svg" xmlns:xlink="http://www.w3.org/1999/xlink">
<g id="graph0" class="graph" transform="scale(1 1) rotate(0) translate(4 274)">
<title>dependency&#45;cruiser output</title>
<polygon fill="white" stroke="none" points="-4,4 -4,-274 682.75,-274 682.75,4 -4,4"/>
<g id="clust1" class="cluster">
<title>cluster_src</title>
<path fill="#ffffff" stroke="black" stroke-width="2" d="M20,-8C20,-8 658.75,-8 658.75,-8 664.75,-8 670.75,-14 670.75,-20 670.75,-20 670.75,-250 670.75,-250 670.75,-256 664.75,-262 658.75,-262 658.75,-262 20,-262 20,-262 14,-262 8,-256 8,-250 8,-250 8,-20 8,-20 8,-14 14,-8 20,-8"/>
<text text-anchor="middle" x="339.38" y="-249.45" font-family="Helvetica,sans-Serif" font-weight="bold" font-size="9.00">src</text>
</g>
<g id="clust2" class="cluster">
<title>cluster_src/application</title>
<path fill="#ffffff" stroke="black" stroke-width="2" d="M259,-47C259,-47 503.25,-47 503.25,-47 509.25,-47 515.25,-53 515.25,-59 515.25,-59 515.25,-188 515.25,-188 515.25,-194 509.25,-200 503.25,-200 503.25,-200 259,-200 259,-200 253,-200 247,-194 247,-188 247,-188 247,-59 247,-59 247,-53 253,-47 259,-47"/>
<text text-anchor="middle" x="381.12" y="-187.45" font-family="Helvetica,sans-Serif" font-weight="bold" font-size="9.00">application</text>
</g>
<g id="clust3" class="cluster">
<title>cluster_src/application/services</title>
<path fill="#ffffff" stroke="black" stroke-width="2" d="M267,-55C267,-55 495.25,-55 495.25,-55 501.25,-55 507.25,-61 507.25,-67 507.25,-67 507.25,-161 507.25,-161 507.25,-167 501.25,-173 495.25,-173 495.25,-173 267,-173 267,-173 261,-173 255,-167 255,-161 255,-161 255,-67 255,-67 255,-61 261,-55 267,-55"/>
<text text-anchor="middle" x="381.12" y="-160.45" font-family="Helvetica,sans-Serif" font-weight="bold" font-size="9.00">services</text>
</g>
<g id="clust4" class="cluster">
<title>cluster_src/application/services/filters</title>
<path fill="#ffffff" stroke="black" stroke-width="2" d="M293.38,-91C293.38,-91 464,-91 464,-91 470,-91 476,-97 476,-103 476,-103 476,-134 476,-134 476,-140 470,-146 464,-146 464,-146 293.38,-146 293.38,-146 287.38,-146 281.38,-140 281.38,-134 281.38,-134 281.38,-103 281.38,-103 281.38,-97 287.38,-91 293.38,-91"/>
<text text-anchor="middle" x="378.69" y="-133.45" font-family="Helvetica,sans-Serif" font-weight="bold" font-size="9.00">filters</text>
</g>
<g id="clust5" class="cluster">
<title>cluster_src/components</title>
<path fill="#ffffff" stroke="black" stroke-width="2" d="M28,-32C28,-32 128.5,-32 128.5,-32 134.5,-32 140.5,-38 140.5,-44 140.5,-44 140.5,-138 140.5,-138 140.5,-144 134.5,-150 128.5,-150 128.5,-150 28,-150 28,-150 22,-150 16,-144 16,-138 16,-138 16,-44 16,-44 16,-38 22,-32 28,-32"/>
<text text-anchor="middle" x="78.25" y="-137.45" font-family="Helvetica,sans-Serif" font-weight="bold" font-size="9.00">components</text>
</g>
<g id="clust6" class="cluster">
<title>cluster_src/components/inputs</title>
<path fill="#ffffff" stroke="black" stroke-width="2" d="M36,-68C36,-68 120.5,-68 120.5,-68 126.5,-68 132.5,-74 132.5,-80 132.5,-80 132.5,-111 132.5,-111 132.5,-117 126.5,-123 120.5,-123 120.5,-123 36,-123 36,-123 30,-123 24,-117 24,-111 24,-111 24,-80 24,-80 24,-74 30,-68 36,-68"/>
<text text-anchor="middle" x="78.25" y="-110.45" font-family="Helvetica,sans-Serif" font-weight="bold" font-size="9.00">inputs</text>
</g>
<g id="clust11" class="cluster">
<title>cluster_src/stores</title>
<path fill="#ffffff" stroke="black" stroke-width="2" d="M160.5,-88C160.5,-88 227,-88 227,-88 233,-88 239,-94 239,-100 239,-100 239,-131 239,-131 239,-137 233,-143 227,-143 227,-143 160.5,-143 160.5,-143 154.5,-143 148.5,-137 148.5,-131 148.5,-131 148.5,-100 148.5,-100 148.5,-94 154.5,-88 160.5,-88"/>
<text text-anchor="middle" x="193.75" y="-130.45" font-family="Helvetica,sans-Serif" font-weight="bold" font-size="9.00">stores</text>
</g>
<g id="clust7" class="cluster">
<title>cluster_src/infrastructure</title>
<path fill="#ffffff" stroke="black" stroke-width="2" d="M535.25,-16C535.25,-16 650.75,-16 650.75,-16 656.75,-16 662.75,-22 662.75,-28 662.75,-28 662.75,-223 662.75,-223 662.75,-229 656.75,-235 650.75,-235 650.75,-235 535.25,-235 535.25,-235 529.25,-235 523.25,-229 523.25,-223 523.25,-223 523.25,-28 523.25,-28 523.25,-22 529.25,-16 535.25,-16"/>
<text text-anchor="middle" x="593" y="-222.45" font-family="Helvetica,sans-Serif" font-weight="bold" font-size="9.00">infrastructure</text>
</g>
<g id="clust8" class="cluster">
<title>cluster_src/infrastructure/database</title>
<path fill="#ffffff" stroke="black" stroke-width="2" d="M562,-118C562,-118 624,-118 624,-118 630,-118 636,-124 636,-130 636,-130 636,-196 636,-196 636,-202 630,-208 624,-208 624,-208 562,-208 562,-208 556,-208 550,-202 550,-196 550,-196 550,-130 550,-130 550,-124 556,-118 562,-118"/>
<text text-anchor="middle" x="593" y="-195.45" font-family="Helvetica,sans-Serif" font-weight="bold" font-size="9.00">database</text>
</g>
<g id="clust9" class="cluster">
<title>cluster_src/infrastructure/database/migrations</title>
<path fill="#ffffff" stroke="black" stroke-width="2" d="M570,-126C570,-126 616,-126 616,-126 622,-126 628,-132 628,-138 628,-138 628,-169 628,-169 628,-175 622,-181 616,-181 616,-181 570,-181 570,-181 564,-181 558,-175 558,-169 558,-169 558,-138 558,-138 558,-132 564,-126 570,-126"/>
<text text-anchor="middle" x="593" y="-168.45" font-family="Helvetica,sans-Serif" font-weight="bold" font-size="9.00">migrations</text>
</g>
<g id="clust10" class="cluster">
<title>cluster_src/infrastructure/repository</title>
<path fill="#ffffff" stroke="black" stroke-width="2" d="M543.25,-24C543.25,-24 642.75,-24 642.75,-24 648.75,-24 654.75,-30 654.75,-36 654.75,-36 654.75,-98 654.75,-98 654.75,-104 648.75,-110 642.75,-110 642.75,-110 543.25,-110 543.25,-110 537.25,-110 531.25,-104 531.25,-98 531.25,-98 531.25,-36 531.25,-36 531.25,-30 537.25,-24 543.25,-24"/>
<text text-anchor="middle" x="593" y="-97.45" font-family="Helvetica,sans-Serif" font-weight="bold" font-size="9.00">repository</text>
</g>
<!-- src/application/services/VideoMetadataService.ts -->
<g id="node1" class="node">
<title>src/application/services/VideoMetadataService.ts</title>
<g id="a_node1"><a xlink:href="src/application/services/VideoMetadataService.ts" xlink:title="VideoMetadataService.ts">
<path fill="#ddfeff" stroke="black" d="M492.83,-82.62C492.83,-82.62 389.17,-82.62 389.17,-82.62 385.96,-82.62 382.75,-79.42 382.75,-76.21 382.75,-76.21 382.75,-69.79 382.75,-69.79 382.75,-66.58 385.96,-63.38 389.17,-63.38 389.17,-63.38 492.83,-63.38 492.83,-63.38 496.04,-63.38 499.25,-66.58 499.25,-69.79 499.25,-69.79 499.25,-76.21 499.25,-76.21 499.25,-79.42 496.04,-82.62 492.83,-82.62"/>
<text text-anchor="start" x="390.75" y="-70.08" font-family="Helvetica,sans-Serif" font-size="9.00">VideoMetadataService.ts</text>
</a>
</g>
</g>
<!-- src/infrastructure/database/migrations/index.ts -->
<g id="node2" class="node">
<title>src/infrastructure/database/migrations/index.ts</title>
<g id="a_node2"><a xlink:href="src/infrastructure/database/migrations/index.ts" xlink:title="index.ts">
<path fill="#ddfeff" stroke="black" d="M613.58,-153.62C613.58,-153.62 572.42,-153.62 572.42,-153.62 569.21,-153.62 566,-150.42 566,-147.21 566,-147.21 566,-140.79 566,-140.79 566,-137.58 569.21,-134.38 572.42,-134.38 572.42,-134.38 613.58,-134.38 613.58,-134.38 616.79,-134.38 620,-137.58 620,-140.79 620,-140.79 620,-147.21 620,-147.21 620,-150.42 616.79,-153.62 613.58,-153.62"/>
<text text-anchor="start" x="577.25" y="-141.07" font-family="Helvetica,sans-Serif" font-size="9.00">index.ts</text>
</a>
</g>
</g>
<!-- src/application/services/VideoMetadataService.ts&#45;&gt;src/infrastructure/database/migrations/index.ts -->
<g id="edge1" class="edge">
<title>src/application/services/VideoMetadataService.ts&#45;&gt;src/infrastructure/database/migrations/index.ts</title>
<path fill="none" stroke="#000000" stroke-width="2" stroke-opacity="0.200000" d="M499.67,-78.52C505.37,-80.84 510.71,-83.92 515.25,-88 523.93,-95.79 515.48,-104.29 523.25,-113 532.24,-123.08 545.16,-130.07 557.37,-134.83"/>
<polygon fill="#000000" fill-opacity="0.200000" stroke="#000000" stroke-width="2" stroke-opacity="0.200000" points="556.45,-136.73 562.8,-136.76 557.85,-132.77 556.45,-136.73"/>
</g>
<!-- src/infrastructure/repository/MetadataRepository.ts -->
<g id="node3" class="node">
<title>src/infrastructure/repository/MetadataRepository.ts</title>
<g id="a_node3"><a xlink:href="src/infrastructure/repository/MetadataRepository.ts" xlink:title="MetadataRepository.ts">
<path fill="#ddfeff" stroke="black" d="M640.33,-82.62C640.33,-82.62 545.67,-82.62 545.67,-82.62 542.46,-82.62 539.25,-79.42 539.25,-76.21 539.25,-76.21 539.25,-69.79 539.25,-69.79 539.25,-66.58 542.46,-63.38 545.67,-63.38 545.67,-63.38 640.33,-63.38 640.33,-63.38 643.54,-63.38 646.75,-66.58 646.75,-69.79 646.75,-69.79 646.75,-76.21 646.75,-76.21 646.75,-79.42 643.54,-82.62 640.33,-82.62"/>
<text text-anchor="start" x="547.25" y="-70.08" font-family="Helvetica,sans-Serif" font-size="9.00">MetadataRepository.ts</text>
</a>
</g>
</g>
<!-- src/application/services/VideoMetadataService.ts&#45;&gt;src/infrastructure/repository/MetadataRepository.ts -->
<g id="edge2" class="edge">
<title>src/application/services/VideoMetadataService.ts&#45;&gt;src/infrastructure/repository/MetadataRepository.ts</title>
<path fill="none" stroke="#000000" stroke-width="2" stroke-opacity="0.200000" d="M499.56,-73C509.53,-73 519.94,-73 530.02,-73"/>
<polygon fill="#000000" fill-opacity="0.200000" stroke="#000000" stroke-width="2" stroke-opacity="0.200000" points="529.75,-75.1 535.75,-73 529.75,-70.9 529.75,-75.1"/>
</g>
<!-- src/infrastructure/repository/VideoRepository.ts -->
<g id="node4" class="node">
<title>src/infrastructure/repository/VideoRepository.ts</title>
<g id="a_node4"><a xlink:href="src/infrastructure/repository/VideoRepository.ts" xlink:title="VideoRepository.ts">
<path fill="#ddfeff" stroke="black" d="M633.21,-51.62C633.21,-51.62 552.79,-51.62 552.79,-51.62 549.58,-51.62 546.38,-48.42 546.38,-45.21 546.38,-45.21 546.38,-38.79 546.38,-38.79 546.38,-35.58 549.58,-32.38 552.79,-32.38 552.79,-32.38 633.21,-32.38 633.21,-32.38 636.42,-32.38 639.62,-35.58 639.62,-38.79 639.62,-38.79 639.62,-45.21 639.62,-45.21 639.62,-48.42 636.42,-51.62 633.21,-51.62"/>
<text text-anchor="start" x="554.38" y="-39.08" font-family="Helvetica,sans-Serif" font-size="9.00">VideoRepository.ts</text>
</a>
</g>
</g>
<!-- src/application/services/VideoMetadataService.ts&#45;&gt;src/infrastructure/repository/VideoRepository.ts -->
<g id="edge3" class="edge">
<title>src/application/services/VideoMetadataService.ts&#45;&gt;src/infrastructure/repository/VideoRepository.ts</title>
<path fill="none" stroke="#000000" stroke-width="2" stroke-opacity="0.200000" d="M490.7,-62.94C505.57,-59.86 522.03,-56.46 537.27,-53.31"/>
<polygon fill="#000000" fill-opacity="0.200000" stroke="#000000" stroke-width="2" stroke-opacity="0.200000" points="537.68,-55.37 543.13,-52.1 536.83,-51.26 537.68,-55.37"/>
</g>
<!-- src/application/services/VideoParserService.ts -->
<g id="node5" class="node">
<title>src/application/services/VideoParserService.ts</title>
<g id="a_node5"><a xlink:href="src/application/services/VideoParserService.ts" xlink:title="VideoParserService.ts">
<path fill="#ddfeff" stroke="black" d="M363.33,-82.62C363.33,-82.62 269.42,-82.62 269.42,-82.62 266.21,-82.62 263,-79.42 263,-76.21 263,-76.21 263,-69.79 263,-69.79 263,-66.58 266.21,-63.38 269.42,-63.38 269.42,-63.38 363.33,-63.38 363.33,-63.38 366.54,-63.38 369.75,-66.58 369.75,-69.79 369.75,-69.79 369.75,-76.21 369.75,-76.21 369.75,-79.42 366.54,-82.62 363.33,-82.62"/>
<text text-anchor="start" x="271" y="-70.08" font-family="Helvetica,sans-Serif" font-size="9.00">VideoParserService.ts</text>
</a>
</g>
</g>
<!-- src/application/services/VideoParserService.ts&#45;&gt;src/application/services/VideoMetadataService.ts -->
<g id="edge4" class="edge">
<title>src/application/services/VideoParserService.ts&#45;&gt;src/application/services/VideoMetadataService.ts</title>
<path fill="none" stroke="#000000" stroke-width="2" stroke-opacity="0.200000" d="M370.09,-73C371.39,-73 372.69,-73 374,-73"/>
<polygon fill="#000000" fill-opacity="0.200000" stroke="#000000" stroke-width="2" stroke-opacity="0.200000" points="373.61,-75.1 379.61,-73 373.61,-70.9 373.61,-75.1"/>
</g>
<!-- src/application/services/filters/Filters.ts -->
<g id="node6" class="node">
<title>src/application/services/filters/Filters.ts</title>
<g id="a_node6"><a xlink:href="src/application/services/filters/Filters.ts" xlink:title="Filters.ts">
<path fill="#ddfeff" stroke="black" d="M461.58,-118.62C461.58,-118.62 420.42,-118.62 420.42,-118.62 417.21,-118.62 414,-115.42 414,-112.21 414,-112.21 414,-105.79 414,-105.79 414,-102.58 417.21,-99.38 420.42,-99.38 420.42,-99.38 461.58,-99.38 461.58,-99.38 464.79,-99.38 468,-102.58 468,-105.79 468,-105.79 468,-112.21 468,-112.21 468,-115.42 464.79,-118.62 461.58,-118.62"/>
<text text-anchor="start" x="423.38" y="-106.08" font-family="Helvetica,sans-Serif" font-size="9.00">Filters.ts</text>
</a>
</g>
</g>
<!-- src/application/services/filters/index.ts -->
<g id="node7" class="node">
<title>src/application/services/filters/index.ts</title>
<g id="a_node7"><a xlink:href="src/application/services/filters/index.ts" xlink:title="index.ts">
<path fill="#ddfeff" stroke="black" d="M336.96,-118.62C336.96,-118.62 295.79,-118.62 295.79,-118.62 292.58,-118.62 289.38,-115.42 289.38,-112.21 289.38,-112.21 289.38,-105.79 289.38,-105.79 289.38,-102.58 292.58,-99.38 295.79,-99.38 295.79,-99.38 336.96,-99.38 336.96,-99.38 340.17,-99.38 343.38,-102.58 343.38,-105.79 343.38,-105.79 343.38,-112.21 343.38,-112.21 343.38,-115.42 340.17,-118.62 336.96,-118.62"/>
<text text-anchor="start" x="300.62" y="-106.08" font-family="Helvetica,sans-Serif" font-size="9.00">index.ts</text>
</a>
</g>
</g>
<!-- src/application/services/filters/index.ts&#45;&gt;src/application/services/filters/Filters.ts -->
<g id="edge5" class="edge">
<title>src/application/services/filters/index.ts&#45;&gt;src/application/services/filters/Filters.ts</title>
<path fill="none" stroke="#000000" stroke-width="2" stroke-opacity="0.200000" d="M343.68,-109C364.37,-109 393.06,-109 413.74,-109"/>
<polygon fill="#000000" fill-opacity="0.200000" stroke="#000000" stroke-width="2" stroke-opacity="0.200000" points="416.54,-107.61 420.44,-115.71 412.34,-111.81 416.54,-107.61"/>
</g>
<!-- src/components/VideoCard.vue -->
<g id="node8" class="node">
<title>src/components/VideoCard.vue</title>
<g id="a_node8"><a xlink:href="src/components/VideoCard.vue" xlink:title="VideoCard.vue">
<path fill="#41f083" stroke="black" d="M109.83,-59.62C109.83,-59.62 46.67,-59.62 46.67,-59.62 43.46,-59.62 40.25,-56.42 40.25,-53.21 40.25,-53.21 40.25,-46.79 40.25,-46.79 40.25,-43.58 43.46,-40.38 46.67,-40.38 46.67,-40.38 109.83,-40.38 109.83,-40.38 113.04,-40.38 116.25,-43.58 116.25,-46.79 116.25,-46.79 116.25,-53.21 116.25,-53.21 116.25,-56.42 113.04,-59.62 109.83,-59.62"/>
<text text-anchor="start" x="48.25" y="-47.08" font-family="Helvetica,sans-Serif" font-size="9.00">VideoCard.vue</text>
</a>
</g>
</g>
<!-- src/components/VideoCard.vue&#45;&gt;src/application/services/VideoMetadataService.ts -->
<g id="edge6" class="edge">
<title>src/components/VideoCard.vue&#45;&gt;src/application/services/VideoMetadataService.ts</title>
<path fill="none" stroke="#000000" stroke-width="2" stroke-opacity="0.200000" d="M116.57,-48.53C172.03,-46.88 279.39,-45.74 369.75,-57 377.42,-57.96 385.47,-59.38 393.28,-60.99"/>
<polygon fill="#000000" fill-opacity="0.200000" stroke="#000000" stroke-width="2" stroke-opacity="0.200000" points="392.7,-63.02 399.01,-62.24 393.59,-58.91 392.7,-63.02"/>
</g>
<!-- src/components/inputs/FolderSelector.vue -->
<g id="node9" class="node">
<title>src/components/inputs/FolderSelector.vue</title>
<g id="a_node9"><a xlink:href="src/components/inputs/FolderSelector.vue" xlink:title="FolderSelector.vue">
<path fill="#41f083" stroke="black" d="M118.08,-95.62C118.08,-95.62 38.42,-95.62 38.42,-95.62 35.21,-95.62 32,-92.42 32,-89.21 32,-89.21 32,-82.79 32,-82.79 32,-79.58 35.21,-76.38 38.42,-76.38 38.42,-76.38 118.08,-76.38 118.08,-76.38 121.29,-76.38 124.5,-79.58 124.5,-82.79 124.5,-82.79 124.5,-89.21 124.5,-89.21 124.5,-92.42 121.29,-95.62 118.08,-95.62"/>
<text text-anchor="start" x="40" y="-83.08" font-family="Helvetica,sans-Serif" font-size="9.00">FolderSelector.vue</text>
</a>
</g>
</g>
<!-- src/components/inputs/FolderSelector.vue&#45;&gt;src/application/services/VideoParserService.ts -->
<g id="edge7" class="edge">
<title>src/components/inputs/FolderSelector.vue&#45;&gt;src/application/services/VideoParserService.ts</title>
<path fill="none" stroke="#000000" stroke-width="2" stroke-opacity="0.200000" d="M124.78,-83.49C161.41,-81.48 213.25,-78.62 253.62,-76.4"/>
<polygon fill="#000000" fill-opacity="0.200000" stroke="#000000" stroke-width="2" stroke-opacity="0.200000" points="253.67,-78.5 259.55,-76.07 253.44,-74.31 253.67,-78.5"/>
</g>
<!-- src/stores/videosStore.ts -->
<g id="node10" class="node">
<title>src/stores/videosStore.ts</title>
<g id="a_node10"><a xlink:href="src/stores/videosStore.ts" xlink:title="videosStore.ts">
<path fill="#ddfeff" stroke="black" d="M224.58,-115.62C224.58,-115.62 162.92,-115.62 162.92,-115.62 159.71,-115.62 156.5,-112.42 156.5,-109.21 156.5,-109.21 156.5,-102.79 156.5,-102.79 156.5,-99.58 159.71,-96.38 162.92,-96.38 162.92,-96.38 224.58,-96.38 224.58,-96.38 227.79,-96.38 231,-99.58 231,-102.79 231,-102.79 231,-109.21 231,-109.21 231,-112.42 227.79,-115.62 224.58,-115.62"/>
<text text-anchor="start" x="164.5" y="-103.08" font-family="Helvetica,sans-Serif" font-size="9.00">videosStore.ts</text>
</a>
</g>
</g>
<!-- src/components/inputs/FolderSelector.vue&#45;&gt;src/stores/videosStore.ts -->
<g id="edge8" class="edge">
<title>src/components/inputs/FolderSelector.vue&#45;&gt;src/stores/videosStore.ts</title>
<path fill="none" stroke="#000000" stroke-width="2" stroke-opacity="0.200000" d="M124.76,-94.02C132.3,-95.35 140.11,-96.72 147.63,-98.05"/>
<polygon fill="#000000" fill-opacity="0.200000" stroke="#000000" stroke-width="2" stroke-opacity="0.200000" points="147.05,-100.08 153.32,-99.05 147.78,-95.94 147.05,-100.08"/>
</g>
<!-- src/stores/videosStore.ts&#45;&gt;src/application/services/filters/index.ts -->
<g id="edge10" class="edge">
<title>src/stores/videosStore.ts&#45;&gt;src/application/services/filters/index.ts</title>
<path fill="none" stroke="#000000" stroke-width="2" stroke-opacity="0.200000" d="M231.27,-106.91C246.8,-107.29 264.85,-107.74 280.23,-108.13"/>
<polygon fill="#000000" fill-opacity="0.200000" stroke="#000000" stroke-width="2" stroke-opacity="0.200000" points="279.86,-110.22 285.91,-108.27 279.97,-106.02 279.86,-110.22"/>
</g>
<!-- src/main.ts -->
<g id="node11" class="node">
<title>src/main.ts</title>
<g id="a_node11"><a xlink:href="src/main.ts" xlink:title="main.ts">
<path fill="#ddfeff" stroke="black" d="M336.96,-36.62C336.96,-36.62 295.79,-36.62 295.79,-36.62 292.58,-36.62 289.38,-33.42 289.38,-30.21 289.38,-30.21 289.38,-23.79 289.38,-23.79 289.38,-20.58 292.58,-17.38 295.79,-17.38 295.79,-17.38 336.96,-17.38 336.96,-17.38 340.17,-17.38 343.38,-20.58 343.38,-23.79 343.38,-23.79 343.38,-30.21 343.38,-30.21 343.38,-33.42 340.17,-36.62 336.96,-36.62"/>
<text text-anchor="start" x="301" y="-24.07" font-family="Helvetica,sans-Serif" font-size="9.00">main.ts</text>
</a>
</g>
</g>
<!-- src/main.ts&#45;&gt;src/application/services/VideoMetadataService.ts -->
<g id="edge9" class="edge">
<title>src/main.ts&#45;&gt;src/application/services/VideoMetadataService.ts</title>
<path fill="none" stroke="#000000" stroke-width="2" stroke-opacity="0.200000" d="M343.79,-36.47C352.11,-39.48 361.32,-42.85 369.75,-46 381.45,-50.37 394.22,-55.24 405.61,-59.63"/>
<polygon fill="#000000" fill-opacity="0.200000" stroke="#000000" stroke-width="2" stroke-opacity="0.200000" points="404.84,-61.59 411.2,-61.79 406.36,-57.67 404.84,-61.59"/>
</g>
</g>
</svg>
