<?xml version="1.0" encoding="UTF-8" standalone="no"?>
<!DOCTYPE svg PUBLIC "-//W3C//DTD SVG 1.1//EN"
 "http://www.w3.org/Graphics/SVG/1.1/DTD/svg11.dtd">
<!-- Generated by graphviz version 2.43.0 (0)
 -->
<!-- Title: dependency&#45;cruiser output Pages: 1 -->
<svg width="538pt" height="334pt"
 viewBox="0.00 0.00 538.00 334.00" xmlns="http://www.w3.org/2000/svg" xmlns:xlink="http://www.w3.org/1999/xlink">
<g id="graph0" class="graph" transform="scale(1 1) rotate(0) translate(4 330)">
<title>dependency&#45;cruiser output</title>
<polygon fill="white" stroke="transparent" points="-4,4 -4,-330 534,-330 534,4 -4,4"/>
<g id="clust1" class="cluster">
<title>cluster_src</title>
<path fill="#ffffff" stroke="black" stroke-width="2" d="M20,-8C20,-8 510,-8 510,-8 516,-8 522,-14 522,-20 522,-20 522,-306 522,-306 522,-312 516,-318 510,-318 510,-318 20,-318 20,-318 14,-318 8,-312 8,-306 8,-306 8,-20 8,-20 8,-14 14,-8 20,-8"/>
<text text-anchor="middle" x="265" y="-306.8" font-family="Helvetica,sans-Serif" font-weight="bold" font-size="9.00">src</text>
</g>
<g id="clust2" class="cluster">
<title>cluster_src/application</title>
<path fill="#ffffff" stroke="black" stroke-width="2" d="M28,-16C28,-16 502,-16 502,-16 508,-16 514,-22 514,-28 514,-28 514,-126 514,-126 514,-132 508,-138 502,-138 502,-138 28,-138 28,-138 22,-138 16,-132 16,-126 16,-126 16,-28 16,-28 16,-22 22,-16 28,-16"/>
<text text-anchor="middle" x="265" y="-126.8" font-family="Helvetica,sans-Serif" font-weight="bold" font-size="9.00">application</text>
</g>
<g id="clust3" class="cluster">
<title>cluster_src/application/services</title>
<path fill="#ffffff" stroke="black" stroke-width="2" d="M98,-30C98,-30 494,-30 494,-30 500,-30 506,-36 506,-42 506,-42 506,-100 506,-100 506,-106 500,-112 494,-112 494,-112 98,-112 98,-112 92,-112 86,-106 86,-100 86,-100 86,-42 86,-42 86,-36 92,-30 98,-30"/>
<text text-anchor="middle" x="296" y="-100.8" font-family="Helvetica,sans-Serif" font-weight="bold" font-size="9.00">services</text>
</g>
<g id="clust4" class="cluster">
<title>cluster_src/domain</title>
<path fill="#ffffff" stroke="black" stroke-width="2" d="M261,-206C261,-206 480.5,-206 480.5,-206 486.5,-206 492.5,-212 492.5,-218 492.5,-218 492.5,-280 492.5,-280 492.5,-286 486.5,-292 480.5,-292 480.5,-292 261,-292 261,-292 255,-292 249,-286 249,-280 249,-280 249,-218 249,-218 249,-212 255,-206 261,-206"/>
<text text-anchor="middle" x="370.75" y="-280.8" font-family="Helvetica,sans-Serif" font-weight="bold" font-size="9.00">domain</text>
</g>
<g id="clust5" class="cluster">
<title>cluster_src/domain/services</title>
<path fill="#ffffff" stroke="black" stroke-width="2" d="M386.5,-214C386.5,-214 472.5,-214 472.5,-214 478.5,-214 484.5,-220 484.5,-226 484.5,-226 484.5,-254 484.5,-254 484.5,-260 478.5,-266 472.5,-266 472.5,-266 386.5,-266 386.5,-266 380.5,-266 374.5,-260 374.5,-254 374.5,-254 374.5,-226 374.5,-226 374.5,-220 380.5,-214 386.5,-214"/>
<text text-anchor="middle" x="429.5" y="-254.8" font-family="Helvetica,sans-Serif" font-weight="bold" font-size="9.00">services</text>
</g>
<g id="clust6" class="cluster">
<title>cluster_src/infrastructure</title>
<path fill="#ffffff" stroke="black" stroke-width="2" d="M397.5,-146C397.5,-146 462.5,-146 462.5,-146 468.5,-146 474.5,-152 474.5,-158 474.5,-158 474.5,-186 474.5,-186 474.5,-192 468.5,-198 462.5,-198 462.5,-198 397.5,-198 397.5,-198 391.5,-198 385.5,-192 385.5,-186 385.5,-186 385.5,-158 385.5,-158 385.5,-152 391.5,-146 397.5,-146"/>
<text text-anchor="middle" x="430" y="-186.8" font-family="Helvetica,sans-Serif" font-weight="bold" font-size="9.00">infrastructure</text>
</g>
<!-- src/application/index.ts -->
<g id="node1" class="node">
<title>src/application/index.ts</title>
<g id="a_node1"><a xlink:href="src/application/index.ts" xlink:title="index.ts">
<path fill="#ddfeff" stroke="black" d="M72,-56C72,-56 30,-56 30,-56 27,-56 24,-53 24,-50 24,-50 24,-44 24,-44 24,-41 27,-38 30,-38 30,-38 72,-38 72,-38 75,-38 78,-41 78,-44 78,-44 78,-50 78,-50 78,-53 75,-56 72,-56"/>
<text text-anchor="start" x="32.5" y="-44.8" font-family="Helvetica,sans-Serif" font-size="9.00">index.ts</text>
</a>
</g>
</g>
<!-- src/application/services/FiltersService.ts -->
<g id="node2" class="node">
<title>src/application/services/FiltersService.ts</title>
<g id="a_node2"><a xlink:href="src/application/services/FiltersService.ts" xlink:title="FiltersService.ts">
<path fill="#ddfeff" stroke="black" d="M188,-86C188,-86 113,-86 113,-86 110,-86 107,-83 107,-80 107,-80 107,-74 107,-74 107,-71 110,-68 113,-68 113,-68 188,-68 188,-68 191,-68 194,-71 194,-74 194,-74 194,-80 194,-80 194,-83 191,-86 188,-86"/>
<text text-anchor="start" x="115" y="-74.8" font-family="Helvetica,sans-Serif" font-size="9.00">FiltersService.ts</text>
</a>
</g>
</g>
<!-- src/application/index.ts&#45;&gt;src/application/services/FiltersService.ts -->
<g id="edge1" class="edge">
<title>src/application/index.ts&#45;&gt;src/application/services/FiltersService.ts</title>
<path fill="none" stroke="#000000" stroke-width="2" stroke-opacity="0.200000" d="M70.82,-56.04C75.69,-58.17 80.98,-60.32 86,-62 90.79,-63.61 95.83,-65.11 100.9,-66.49"/>
<polygon fill="#000000" fill-opacity="0.200000" stroke="#000000" stroke-width="2" stroke-opacity="0.200000" points="100.5,-68.56 106.84,-68.06 101.58,-64.5 100.5,-68.56"/>
</g>
<!-- src/application/services/VideoMetadataService.ts -->
<g id="node3" class="node">
<title>src/application/services/VideoMetadataService.ts</title>
<g id="a_node3"><a xlink:href="src/application/services/VideoMetadataService.ts" xlink:title="VideoMetadataService.ts">
<path fill="#ddfeff" stroke="black" d="M342,-56C342,-56 226,-56 226,-56 223,-56 220,-53 220,-50 220,-50 220,-44 220,-44 220,-41 223,-38 226,-38 226,-38 342,-38 342,-38 345,-38 348,-41 348,-44 348,-44 348,-50 348,-50 348,-53 345,-56 342,-56"/>
<text text-anchor="start" x="228" y="-44.8" font-family="Helvetica,sans-Serif" font-size="9.00">VideoMetadataService.ts</text>
</a>
</g>
</g>
<!-- src/application/index.ts&#45;&gt;src/application/services/VideoMetadataService.ts -->
<g id="edge2" class="edge">
<title>src/application/index.ts&#45;&gt;src/application/services/VideoMetadataService.ts</title>
<path fill="none" stroke="#000000" stroke-width="2" stroke-opacity="0.200000" d="M68.83,-37.93C74.17,-35.51 80.19,-33.22 86,-32 137.93,-21.05 199.05,-28.82 239.28,-36.68"/>
<polygon fill="#000000" fill-opacity="0.200000" stroke="#000000" stroke-width="2" stroke-opacity="0.200000" points="239.26,-38.81 245.55,-37.93 240.08,-34.69 239.26,-38.81"/>
</g>
<!-- src/application/services/VideoParserService.ts -->
<g id="node4" class="node">
<title>src/application/services/VideoParserService.ts</title>
<g id="a_node4"><a xlink:href="src/application/services/VideoParserService.ts" xlink:title="VideoParserService.ts">
<path fill="#ddfeff" stroke="black" d="M201,-56C201,-56 100,-56 100,-56 97,-56 94,-53 94,-50 94,-50 94,-44 94,-44 94,-41 97,-38 100,-38 100,-38 201,-38 201,-38 204,-38 207,-41 207,-44 207,-44 207,-50 207,-50 207,-53 204,-56 201,-56"/>
<text text-anchor="start" x="102" y="-44.8" font-family="Helvetica,sans-Serif" font-size="9.00">VideoParserService.ts</text>
</a>
</g>
</g>
<!-- src/application/index.ts&#45;&gt;src/application/services/VideoParserService.ts -->
<g id="edge3" class="edge">
<title>src/application/index.ts&#45;&gt;src/application/services/VideoParserService.ts</title>
<path fill="none" stroke="#000000" stroke-width="2" stroke-opacity="0.200000" d="M78.13,-47C81.23,-47 84.49,-47 87.84,-47"/>
<polygon fill="#000000" fill-opacity="0.200000" stroke="#000000" stroke-width="2" stroke-opacity="0.200000" points="87.94,-49.1 93.94,-47 87.94,-44.9 87.94,-49.1"/>
</g>
<!-- src/application/services/VideoStorageDtoMapper.ts -->
<g id="node5" class="node">
<title>src/application/services/VideoStorageDtoMapper.ts</title>
<g id="a_node5"><a xlink:href="src/application/services/VideoStorageDtoMapper.ts" xlink:title="VideoStorageDtoMapper.ts">
<path fill="#ddfeff" stroke="black" d="M492,-56C492,-56 367,-56 367,-56 364,-56 361,-53 361,-50 361,-50 361,-44 361,-44 361,-41 364,-38 367,-38 367,-38 492,-38 492,-38 495,-38 498,-41 498,-44 498,-44 498,-50 498,-50 498,-53 495,-56 492,-56"/>
<text text-anchor="start" x="369" y="-44.8" font-family="Helvetica,sans-Serif" font-size="9.00">VideoStorageDtoMapper.ts</text>
</a>
</g>
</g>
<!-- src/application/services/VideoMetadataService.ts&#45;&gt;src/application/services/VideoStorageDtoMapper.ts -->
<g id="edge4" class="edge">
<title>src/application/services/VideoMetadataService.ts&#45;&gt;src/application/services/VideoStorageDtoMapper.ts</title>
<path fill="none" stroke="#000000" stroke-width="2" stroke-opacity="0.200000" d="M348.36,-47C350.39,-47 352.42,-47 354.46,-47"/>
<polygon fill="#000000" fill-opacity="0.200000" stroke="#000000" stroke-width="2" stroke-opacity="0.200000" points="354.58,-49.1 360.58,-47 354.58,-44.9 354.58,-49.1"/>
</g>
<!-- src/infrastructure/index.ts -->
<g id="node6" class="node">
<title>src/infrastructure/index.ts</title>
<g id="a_node6"><a xlink:href="src/infrastructure/index.ts" xlink:title="index.ts">
<path fill="#ddfeff" stroke="black" d="M450.5,-172C450.5,-172 408.5,-172 408.5,-172 405.5,-172 402.5,-169 402.5,-166 402.5,-166 402.5,-160 402.5,-160 402.5,-157 405.5,-154 408.5,-154 408.5,-154 450.5,-154 450.5,-154 453.5,-154 456.5,-157 456.5,-160 456.5,-160 456.5,-166 456.5,-166 456.5,-169 453.5,-172 450.5,-172"/>
<text text-anchor="start" x="411" y="-160.8" font-family="Helvetica,sans-Serif" font-size="9.00">index.ts</text>
</a>
</g>
</g>
<!-- src/application/services/VideoMetadataService.ts&#45;&gt;src/infrastructure/index.ts -->
<g id="edge5" class="edge">
<title>src/application/services/VideoMetadataService.ts&#45;&gt;src/infrastructure/index.ts</title>
<path fill="none" stroke="#000000" stroke-width="2" stroke-opacity="0.200000" d="M294.53,-56.16C308.64,-69.57 336.1,-95.11 361,-115 376.87,-127.68 395.78,-140.98 409.54,-150.35"/>
<polygon fill="#000000" fill-opacity="0.200000" stroke="#000000" stroke-width="2" stroke-opacity="0.200000" points="408.58,-152.24 414.73,-153.87 410.94,-148.77 408.58,-152.24"/>
</g>
<!-- src/application/services/VideoParserService.ts&#45;&gt;src/application/services/VideoMetadataService.ts -->
<g id="edge6" class="edge">
<title>src/application/services/VideoParserService.ts&#45;&gt;src/application/services/VideoMetadataService.ts</title>
<path fill="none" stroke="#000000" stroke-width="2" stroke-opacity="0.200000" d="M207.27,-47C209.37,-47 211.48,-47 213.6,-47"/>
<polygon fill="#000000" fill-opacity="0.200000" stroke="#000000" stroke-width="2" stroke-opacity="0.200000" points="213.96,-49.1 219.96,-47 213.96,-44.9 213.96,-49.1"/>
</g>
<!-- src/domain/index.ts -->
<g id="node7" class="node">
<title>src/domain/index.ts</title>
<g id="a_node7"><a xlink:href="src/domain/index.ts" xlink:title="index.ts">
<path fill="#ddfeff" stroke="black" d="M305,-236C305,-236 263,-236 263,-236 260,-236 257,-233 257,-230 257,-230 257,-224 257,-224 257,-221 260,-218 263,-218 263,-218 305,-218 305,-218 308,-218 311,-221 311,-224 311,-224 311,-230 311,-230 311,-233 308,-236 305,-236"/>
<text text-anchor="start" x="265.5" y="-224.8" font-family="Helvetica,sans-Serif" font-size="9.00">index.ts</text>
</a>
</g>
</g>
<!-- src/application/services/VideoParserService.ts&#45;&gt;src/domain/index.ts -->
<g id="edge7" class="edge">
<title>src/application/services/VideoParserService.ts&#45;&gt;src/domain/index.ts</title>
<path fill="none" stroke="#000000" stroke-width="2" stroke-opacity="0.200000" d="M199.49,-56.11C202.23,-57.77 204.77,-59.72 207,-62 223.95,-79.35 211.08,-92.44 220,-115 234.68,-152.14 259.63,-192.1 273.32,-212.78"/>
<polygon fill="#000000" fill-opacity="0.200000" stroke="#000000" stroke-width="2" stroke-opacity="0.200000" points="271.62,-214.02 276.7,-217.84 275.11,-211.69 271.62,-214.02"/>
</g>
<!-- src/domain/services/FileVideoParser.ts -->
<g id="node8" class="node">
<title>src/domain/services/FileVideoParser.ts</title>
<g id="a_node8"><a xlink:href="src/domain/services/FileVideoParser.ts" xlink:title="FileVideoParser.ts">
<path fill="#ddfeff" stroke="black" d="M470.5,-240C470.5,-240 388.5,-240 388.5,-240 385.5,-240 382.5,-237 382.5,-234 382.5,-234 382.5,-228 382.5,-228 382.5,-225 385.5,-222 388.5,-222 388.5,-222 470.5,-222 470.5,-222 473.5,-222 476.5,-225 476.5,-228 476.5,-228 476.5,-234 476.5,-234 476.5,-237 473.5,-240 470.5,-240"/>
<text text-anchor="start" x="390.5" y="-228.8" font-family="Helvetica,sans-Serif" font-size="9.00">FileVideoParser.ts</text>
</a>
</g>
</g>
<!-- src/domain/index.ts&#45;&gt;src/domain/services/FileVideoParser.ts -->
<g id="edge8" class="edge">
<title>src/domain/index.ts&#45;&gt;src/domain/services/FileVideoParser.ts</title>
<path fill="none" stroke="#000000" stroke-width="2" stroke-opacity="0.200000" d="M311.32,-227.73C329.44,-228.24 354.13,-228.93 376.17,-229.54"/>
<polygon fill="#000000" fill-opacity="0.200000" stroke="#000000" stroke-width="2" stroke-opacity="0.200000" points="376.25,-231.64 382.31,-229.71 376.37,-227.45 376.25,-231.64"/>
</g>
</g>
</svg>
