<?xml version="1.0" encoding="UTF-8" standalone="no"?>
<!DOCTYPE svg PUBLIC "-//W3C//DTD SVG 1.1//EN"
 "http://www.w3.org/Graphics/SVG/1.1/DTD/svg11.dtd">
<!-- Generated by graphviz version 9.0.0 (20230911.1827)
 -->
<!-- Title: dependency&#45;cruiser output Pages: 1 -->
<svg width="1967pt" height="659pt"
 viewBox="0.00 0.00 1966.62 658.64" xmlns="http://www.w3.org/2000/svg" xmlns:xlink="http://www.w3.org/1999/xlink">
<g id="graph0" class="graph" transform="scale(1 1) rotate(0) translate(4 654.64)">
<title>dependency&#45;cruiser output</title>
<polygon fill="white" stroke="none" points="-4,4 -4,-654.64 1962.62,-654.64 1962.62,4 -4,4"/>
<g id="clust1" class="cluster">
<title>cluster_src</title>
<path fill="#ffffff" stroke="black" stroke-width="2" d="M20,-12.64C20,-12.64 1938.62,-12.64 1938.62,-12.64 1944.62,-12.64 1950.62,-18.64 1950.62,-24.64 1950.62,-24.64 1950.62,-630.64 1950.62,-630.64 1950.62,-636.64 1944.62,-642.64 1938.62,-642.64 1938.62,-642.64 20,-642.64 20,-642.64 14,-642.64 8,-636.64 8,-630.64 8,-630.64 8,-24.64 8,-24.64 8,-18.64 14,-12.64 20,-12.64"/>
<text text-anchor="middle" x="979.31" y="-630.09" font-family="Helvetica,sans-Serif" font-weight="bold" font-size="9.00">src</text>
</g>
<g id="clust2" class="cluster">
<title>cluster_src/application</title>
<path fill="#ffffff" stroke="black" stroke-width="2" d="M411.25,-244.64C411.25,-244.64 786.88,-244.64 786.88,-244.64 792.88,-244.64 798.88,-250.64 798.88,-256.64 798.88,-256.64 798.88,-384.64 798.88,-384.64 798.88,-390.64 792.88,-396.64 786.88,-396.64 786.88,-396.64 411.25,-396.64 411.25,-396.64 405.25,-396.64 399.25,-390.64 399.25,-384.64 399.25,-384.64 399.25,-256.64 399.25,-256.64 399.25,-250.64 405.25,-244.64 411.25,-244.64"/>
<text text-anchor="middle" x="599.06" y="-384.09" font-family="Helvetica,sans-Serif" font-weight="bold" font-size="9.00">application</text>
</g>
<g id="clust4" class="cluster">
<title>cluster_src/application/stores</title>
<path fill="#ffffff" stroke="black" stroke-width="2" d="M419.25,-252.64C419.25,-252.64 589.38,-252.64 589.38,-252.64 595.38,-252.64 601.38,-258.64 601.38,-264.64 601.38,-264.64 601.38,-326.64 601.38,-326.64 601.38,-332.64 595.38,-338.64 589.38,-338.64 589.38,-338.64 419.25,-338.64 419.25,-338.64 413.25,-338.64 407.25,-332.64 407.25,-326.64 407.25,-326.64 407.25,-264.64 407.25,-264.64 407.25,-258.64 413.25,-252.64 419.25,-252.64"/>
<text text-anchor="middle" x="504.31" y="-326.09" font-family="Helvetica,sans-Serif" font-weight="bold" font-size="9.00">stores</text>
</g>
<g id="clust3" class="cluster">
<title>cluster_src/application/services</title>
<path fill="#ffffff" stroke="black" stroke-width="2" d="M621.38,-252.64C621.38,-252.64 778.88,-252.64 778.88,-252.64 784.88,-252.64 790.88,-258.64 790.88,-264.64 790.88,-264.64 790.88,-357.64 790.88,-357.64 790.88,-363.64 784.88,-369.64 778.88,-369.64 778.88,-369.64 621.38,-369.64 621.38,-369.64 615.38,-369.64 609.38,-363.64 609.38,-357.64 609.38,-357.64 609.38,-264.64 609.38,-264.64 609.38,-258.64 615.38,-252.64 621.38,-252.64"/>
<text text-anchor="middle" x="700.12" y="-357.09" font-family="Helvetica,sans-Serif" font-weight="bold" font-size="9.00">services</text>
</g>
<g id="clust5" class="cluster">
<title>cluster_src/domain</title>
<path fill="#ffffff" stroke="black" stroke-width="2" d="M1312.12,-250.64C1312.12,-250.64 1930.62,-250.64 1930.62,-250.64 1936.62,-250.64 1942.62,-256.64 1942.62,-262.64 1942.62,-262.64 1942.62,-578.64 1942.62,-578.64 1942.62,-584.64 1936.62,-590.64 1930.62,-590.64 1930.62,-590.64 1312.12,-590.64 1312.12,-590.64 1306.12,-590.64 1300.12,-584.64 1300.12,-578.64 1300.12,-578.64 1300.12,-262.64 1300.12,-262.64 1300.12,-256.64 1306.12,-250.64 1312.12,-250.64"/>
<text text-anchor="middle" x="1621.38" y="-578.09" font-family="Helvetica,sans-Serif" font-weight="bold" font-size="9.00">domain</text>
</g>
<g id="clust7" class="cluster">
<title>cluster_src/domain/entities</title>
<path fill="#ffffff" stroke="black" stroke-width="2" d="M1578.12,-326.64C1578.12,-326.64 1922.62,-326.64 1922.62,-326.64 1928.62,-326.64 1934.62,-332.64 1934.62,-338.64 1934.62,-338.64 1934.62,-411.64 1934.62,-411.64 1934.62,-417.64 1928.62,-423.64 1922.62,-423.64 1922.62,-423.64 1578.12,-423.64 1578.12,-423.64 1572.12,-423.64 1566.12,-417.64 1566.12,-411.64 1566.12,-411.64 1566.12,-338.64 1566.12,-338.64 1566.12,-332.64 1572.12,-326.64 1578.12,-326.64"/>
<text text-anchor="middle" x="1750.38" y="-411.09" font-family="Helvetica,sans-Serif" font-weight="bold" font-size="9.00">entities</text>
</g>
<g id="clust8" class="cluster">
<title>cluster_src/domain/repositories</title>
<path fill="#ffffff" stroke="black" stroke-width="2" d="M1320.12,-321.64C1320.12,-321.64 1537.88,-321.64 1537.88,-321.64 1543.88,-321.64 1549.88,-327.64 1549.88,-333.64 1549.88,-333.64 1549.88,-426.64 1549.88,-426.64 1549.88,-432.64 1543.88,-438.64 1537.88,-438.64 1537.88,-438.64 1320.12,-438.64 1320.12,-438.64 1314.12,-438.64 1308.12,-432.64 1308.12,-426.64 1308.12,-426.64 1308.12,-333.64 1308.12,-333.64 1308.12,-327.64 1314.12,-321.64 1320.12,-321.64"/>
<text text-anchor="middle" x="1429" y="-426.09" font-family="Helvetica,sans-Serif" font-weight="bold" font-size="9.00">repositories</text>
</g>
<g id="clust6" class="cluster">
<title>cluster_src/domain/constants</title>
<path fill="#ffffff" stroke="black" stroke-width="2" d="M1320.12,-258.64C1320.12,-258.64 1366.12,-258.64 1366.12,-258.64 1372.12,-258.64 1378.12,-264.64 1378.12,-270.64 1378.12,-270.64 1378.12,-301.64 1378.12,-301.64 1378.12,-307.64 1372.12,-313.64 1366.12,-313.64 1366.12,-313.64 1320.12,-313.64 1320.12,-313.64 1314.12,-313.64 1308.12,-307.64 1308.12,-301.64 1308.12,-301.64 1308.12,-270.64 1308.12,-270.64 1308.12,-264.64 1314.12,-258.64 1320.12,-258.64"/>
<text text-anchor="middle" x="1343.12" y="-301.09" font-family="Helvetica,sans-Serif" font-weight="bold" font-size="9.00">constants</text>
</g>
<g id="clust9" class="cluster">
<title>cluster_src/domain/valueObjects</title>
<path fill="#ffffff" stroke="black" stroke-width="2" d="M1320.12,-446.64C1320.12,-446.64 1546.12,-446.64 1546.12,-446.64 1552.12,-446.64 1558.12,-452.64 1558.12,-458.64 1558.12,-458.64 1558.12,-551.64 1558.12,-551.64 1558.12,-557.64 1552.12,-563.64 1546.12,-563.64 1546.12,-563.64 1320.12,-563.64 1320.12,-563.64 1314.12,-563.64 1308.12,-557.64 1308.12,-551.64 1308.12,-551.64 1308.12,-458.64 1308.12,-458.64 1308.12,-452.64 1314.12,-446.64 1320.12,-446.64"/>
<text text-anchor="middle" x="1433.12" y="-551.09" font-family="Helvetica,sans-Serif" font-weight="bold" font-size="9.00">valueObjects</text>
</g>
<g id="clust10" class="cluster">
<title>cluster_src/infrastructure</title>
<path fill="#ffffff" stroke="black" stroke-width="2" d="M818.88,-44.64C818.88,-44.64 1403.88,-44.64 1403.88,-44.64 1409.88,-44.64 1415.88,-50.64 1415.88,-56.64 1415.88,-56.64 1415.88,-230.64 1415.88,-230.64 1415.88,-236.64 1409.88,-242.64 1403.88,-242.64 1403.88,-242.64 818.88,-242.64 818.88,-242.64 812.88,-242.64 806.88,-236.64 806.88,-230.64 806.88,-230.64 806.88,-56.64 806.88,-56.64 806.88,-50.64 812.88,-44.64 818.88,-44.64"/>
<text text-anchor="middle" x="1111.38" y="-230.09" font-family="Helvetica,sans-Serif" font-weight="bold" font-size="9.00">infrastructure</text>
</g>
<g id="clust12" class="cluster">
<title>cluster_src/infrastructure/repository</title>
<path fill="#ffffff" stroke="black" stroke-width="2" d="M1058,-129.64C1058,-129.64 1258.38,-129.64 1258.38,-129.64 1264.38,-129.64 1270.38,-135.64 1270.38,-141.64 1270.38,-141.64 1270.38,-203.64 1270.38,-203.64 1270.38,-209.64 1264.38,-215.64 1258.38,-215.64 1258.38,-215.64 1058,-215.64 1058,-215.64 1052,-215.64 1046,-209.64 1046,-203.64 1046,-203.64 1046,-141.64 1046,-141.64 1046,-135.64 1052,-129.64 1058,-129.64"/>
<text text-anchor="middle" x="1158.19" y="-203.09" font-family="Helvetica,sans-Serif" font-weight="bold" font-size="9.00">repository</text>
</g>
<g id="clust11" class="cluster">
<title>cluster_src/infrastructure/database</title>
<path fill="#ffffff" stroke="black" stroke-width="2" d="M1290.38,-133.64C1290.38,-133.64 1395.88,-133.64 1395.88,-133.64 1401.88,-133.64 1407.88,-139.64 1407.88,-145.64 1407.88,-145.64 1407.88,-176.64 1407.88,-176.64 1407.88,-182.64 1401.88,-188.64 1395.88,-188.64 1395.88,-188.64 1290.38,-188.64 1290.38,-188.64 1284.38,-188.64 1278.38,-182.64 1278.38,-176.64 1278.38,-176.64 1278.38,-145.64 1278.38,-145.64 1278.38,-139.64 1284.38,-133.64 1290.38,-133.64"/>
<text text-anchor="middle" x="1343.12" y="-176.09" font-family="Helvetica,sans-Serif" font-weight="bold" font-size="9.00">database</text>
</g>
<g id="clust13" class="cluster">
<title>cluster_src/infrastructure/services</title>
<path fill="#ffffff" stroke="black" stroke-width="2" d="M826.88,-160.64C826.88,-160.64 1003.12,-160.64 1003.12,-160.64 1009.12,-160.64 1015.12,-166.64 1015.12,-172.64 1015.12,-172.64 1015.12,-203.64 1015.12,-203.64 1015.12,-209.64 1009.12,-215.64 1003.12,-215.64 1003.12,-215.64 826.88,-215.64 826.88,-215.64 820.88,-215.64 814.88,-209.64 814.88,-203.64 814.88,-203.64 814.88,-172.64 814.88,-172.64 814.88,-166.64 820.88,-160.64 826.88,-160.64"/>
<text text-anchor="middle" x="915" y="-203.09" font-family="Helvetica,sans-Serif" font-weight="bold" font-size="9.00">services</text>
</g>
<g id="clust14" class="cluster">
<title>cluster_src/infrastructure/video</title>
<path fill="#ffffff" stroke="black" stroke-width="2" d="M826.88,-52.64C826.88,-52.64 1134.88,-52.64 1134.88,-52.64 1140.88,-52.64 1146.88,-58.64 1146.88,-64.64 1146.88,-64.64 1146.88,-109.64 1146.88,-109.64 1146.88,-115.64 1140.88,-121.64 1134.88,-121.64 1134.88,-121.64 826.88,-121.64 826.88,-121.64 820.88,-121.64 814.88,-115.64 814.88,-109.64 814.88,-109.64 814.88,-64.64 814.88,-64.64 814.88,-58.64 820.88,-52.64 826.88,-52.64"/>
<text text-anchor="middle" x="980.88" y="-109.09" font-family="Helvetica,sans-Serif" font-weight="bold" font-size="9.00">video</text>
</g>
<g id="clust15" class="cluster">
<title>cluster_src/presentation</title>
<path fill="#ffffff" stroke="black" stroke-width="2" d="M157,-20.64C157,-20.64 489.12,-20.64 489.12,-20.64 495.12,-20.64 501.12,-26.64 501.12,-32.64 501.12,-32.64 501.12,-224.64 501.12,-224.64 501.12,-230.64 495.12,-236.64 489.12,-236.64 489.12,-236.64 157,-236.64 157,-236.64 151,-236.64 145,-230.64 145,-224.64 145,-224.64 145,-32.64 145,-32.64 145,-26.64 151,-20.64 157,-20.64"/>
<text text-anchor="middle" x="323.06" y="-224.09" font-family="Helvetica,sans-Serif" font-weight="bold" font-size="9.00">presentation</text>
</g>
<g id="clust16" class="cluster">
<title>cluster_src/presentation/components</title>
<path fill="#ffffff" stroke="black" stroke-width="2" d="M273.25,-28.64C273.25,-28.64 481.12,-28.64 481.12,-28.64 487.12,-28.64 493.12,-34.64 493.12,-40.64 493.12,-40.64 493.12,-197.64 493.12,-197.64 493.12,-203.64 487.12,-209.64 481.12,-209.64 481.12,-209.64 273.25,-209.64 273.25,-209.64 267.25,-209.64 261.25,-203.64 261.25,-197.64 261.25,-197.64 261.25,-40.64 261.25,-40.64 261.25,-34.64 267.25,-28.64 273.25,-28.64"/>
<text text-anchor="middle" x="377.19" y="-197.09" font-family="Helvetica,sans-Serif" font-weight="bold" font-size="9.00">components</text>
</g>
<g id="clust18" class="cluster">
<title>cluster_src/presentation/components/utils</title>
<path fill="#ffffff" stroke="black" stroke-width="2" d="M281.25,-64.64C281.25,-64.64 379.25,-64.64 379.25,-64.64 385.25,-64.64 391.25,-70.64 391.25,-76.64 391.25,-76.64 391.25,-107.64 391.25,-107.64 391.25,-113.64 385.25,-119.64 379.25,-119.64 379.25,-119.64 281.25,-119.64 281.25,-119.64 275.25,-119.64 269.25,-113.64 269.25,-107.64 269.25,-107.64 269.25,-76.64 269.25,-76.64 269.25,-70.64 275.25,-64.64 281.25,-64.64"/>
<text text-anchor="middle" x="330.25" y="-107.09" font-family="Helvetica,sans-Serif" font-weight="bold" font-size="9.00">utils</text>
</g>
<g id="clust17" class="cluster">
<title>cluster_src/presentation/components/inputs</title>
<path fill="#ffffff" stroke="black" stroke-width="2" d="M300.38,-127.64C300.38,-127.64 360.12,-127.64 360.12,-127.64 366.12,-127.64 372.12,-133.64 372.12,-139.64 372.12,-139.64 372.12,-170.64 372.12,-170.64 372.12,-176.64 366.12,-182.64 360.12,-182.64 360.12,-182.64 300.38,-182.64 300.38,-182.64 294.38,-182.64 288.38,-176.64 288.38,-170.64 288.38,-170.64 288.38,-139.64 288.38,-139.64 288.38,-133.64 294.38,-127.64 300.38,-127.64"/>
<text text-anchor="middle" x="330.25" y="-170.09" font-family="Helvetica,sans-Serif" font-weight="bold" font-size="9.00">inputs</text>
</g>
<g id="clust19" class="cluster">
<title>cluster_src/presentation/views</title>
<path fill="#ffffff" stroke="black" stroke-width="2" d="M165,-96.64C165,-96.64 241.25,-96.64 241.25,-96.64 247.25,-96.64 253.25,-102.64 253.25,-108.64 253.25,-108.64 253.25,-170.64 253.25,-170.64 253.25,-176.64 247.25,-182.64 241.25,-182.64 241.25,-182.64 165,-182.64 165,-182.64 159,-182.64 153,-176.64 153,-170.64 153,-170.64 153,-108.64 153,-108.64 153,-102.64 159,-96.64 165,-96.64"/>
<text text-anchor="middle" x="203.12" y="-170.09" font-family="Helvetica,sans-Serif" font-weight="bold" font-size="9.00">views</text>
</g>
<!-- src/App.vue -->
<g id="node1" class="node">
<title>src/App.vue</title>
<g id="a_node1"><a xlink:href="src/App.vue" xlink:title="App.vue">
<path fill="#41f083" stroke="black" d="M130.58,-124.27C130.58,-124.27 89.42,-124.27 89.42,-124.27 86.21,-124.27 83,-121.06 83,-117.85 83,-117.85 83,-111.43 83,-111.43 83,-108.23 86.21,-105.02 89.42,-105.02 89.42,-105.02 130.58,-105.02 130.58,-105.02 133.79,-105.02 137,-108.23 137,-111.43 137,-111.43 137,-117.85 137,-117.85 137,-121.06 133.79,-124.27 130.58,-124.27"/>
<text text-anchor="start" x="93.88" y="-111.72" font-family="Helvetica,sans-Serif" font-size="9.00">App.vue</text>
</a>
</g>
</g>
<!-- src/presentation/components/utils/DiagnosticsPanel.vue -->
<g id="node2" class="node">
<title>src/presentation/components/utils/DiagnosticsPanel.vue</title>
<g id="a_node2"><a xlink:href="src/presentation/components/utils/DiagnosticsPanel.vue" xlink:title="DiagnosticsPanel.vue">
<path fill="#41f083" stroke="black" d="M376.83,-92.27C376.83,-92.27 283.67,-92.27 283.67,-92.27 280.46,-92.27 277.25,-89.06 277.25,-85.85 277.25,-85.85 277.25,-79.43 277.25,-79.43 277.25,-76.23 280.46,-73.02 283.67,-73.02 283.67,-73.02 376.83,-73.02 376.83,-73.02 380.04,-73.02 383.25,-76.23 383.25,-79.43 383.25,-79.43 383.25,-85.85 383.25,-85.85 383.25,-89.06 380.04,-92.27 376.83,-92.27"/>
<text text-anchor="start" x="285.25" y="-79.72" font-family="Helvetica,sans-Serif" font-size="9.00">DiagnosticsPanel.vue</text>
</a>
</g>
</g>
<!-- src/App.vue&#45;&gt;src/presentation/components/utils/DiagnosticsPanel.vue -->
<g id="edge1" class="edge">
<title>src/App.vue&#45;&gt;src/presentation/components/utils/DiagnosticsPanel.vue</title>
<path fill="none" stroke="#000000" stroke-width="2" stroke-opacity="0.200000" d="M123.82,-104.63C129.89,-100.45 137.46,-96.03 145,-93.64 184.74,-81.07 231.66,-78.43 268.21,-78.88"/>
<polygon fill="#000000" fill-opacity="0.200000" stroke="#000000" stroke-width="2" stroke-opacity="0.200000" points="267.72,-80.97 273.76,-78.99 267.8,-76.77 267.72,-80.97"/>
</g>
<!-- src/presentation/views/NavBar.vue -->
<g id="node3" class="node">
<title>src/presentation/views/NavBar.vue</title>
<g id="a_node3"><a xlink:href="src/presentation/views/NavBar.vue" xlink:title="NavBar.vue">
<path fill="#41f083" stroke="black" d="M227.96,-155.27C227.96,-155.27 178.29,-155.27 178.29,-155.27 175.08,-155.27 171.88,-152.06 171.88,-148.85 171.88,-148.85 171.88,-142.43 171.88,-142.43 171.88,-139.23 175.08,-136.02 178.29,-136.02 178.29,-136.02 227.96,-136.02 227.96,-136.02 231.17,-136.02 234.38,-139.23 234.38,-142.43 234.38,-142.43 234.38,-148.85 234.38,-148.85 234.38,-152.06 231.17,-155.27 227.96,-155.27"/>
<text text-anchor="start" x="179.88" y="-142.72" font-family="Helvetica,sans-Serif" font-size="9.00">NavBar.vue</text>
</a>
</g>
</g>
<!-- src/App.vue&#45;&gt;src/presentation/views/NavBar.vue -->
<g id="edge2" class="edge">
<title>src/App.vue&#45;&gt;src/presentation/views/NavBar.vue</title>
<path fill="none" stroke="#000000" stroke-width="2" stroke-opacity="0.200000" d="M130.88,-124.74C135.45,-126.85 140.34,-128.95 145,-130.64 150.83,-132.76 157.1,-134.71 163.27,-136.46"/>
<polygon fill="#000000" fill-opacity="0.200000" stroke="#000000" stroke-width="2" stroke-opacity="0.200000" points="162.31,-138.38 168.65,-137.93 163.41,-134.33 162.31,-138.38"/>
</g>
<!-- src/presentation/views/VideoGallery.vue -->
<g id="node4" class="node">
<title>src/presentation/views/VideoGallery.vue</title>
<g id="a_node4"><a xlink:href="src/presentation/views/VideoGallery.vue" xlink:title="VideoGallery.vue">
<path fill="#41f083" stroke="black" d="M238.83,-124.27C238.83,-124.27 167.42,-124.27 167.42,-124.27 164.21,-124.27 161,-121.06 161,-117.85 161,-117.85 161,-111.43 161,-111.43 161,-108.23 164.21,-105.02 167.42,-105.02 167.42,-105.02 238.83,-105.02 238.83,-105.02 242.04,-105.02 245.25,-108.23 245.25,-111.43 245.25,-111.43 245.25,-117.85 245.25,-117.85 245.25,-121.06 242.04,-124.27 238.83,-124.27"/>
<text text-anchor="start" x="169" y="-111.72" font-family="Helvetica,sans-Serif" font-size="9.00">VideoGallery.vue</text>
</a>
</g>
</g>
<!-- src/App.vue&#45;&gt;src/presentation/views/VideoGallery.vue -->
<g id="edge3" class="edge">
<title>src/App.vue&#45;&gt;src/presentation/views/VideoGallery.vue</title>
<path fill="none" stroke="#000000" stroke-width="2" stroke-opacity="0.200000" d="M137.36,-114.64C141.89,-114.64 146.73,-114.64 151.66,-114.64"/>
<polygon fill="#000000" fill-opacity="0.200000" stroke="#000000" stroke-width="2" stroke-opacity="0.200000" points="151.52,-116.74 157.52,-114.64 151.52,-112.54 151.52,-116.74"/>
</g>
<!-- src/infrastructure/services/index.ts -->
<g id="node7" class="node">
<title>src/infrastructure/services/index.ts</title>
<g id="a_node7"><a xlink:href="src/infrastructure/services/index.ts" xlink:title="index.ts">
<path fill="#ddfeff" stroke="black" d="M870.46,-188.27C870.46,-188.27 829.29,-188.27 829.29,-188.27 826.08,-188.27 822.88,-185.06 822.88,-181.85 822.88,-181.85 822.88,-175.43 822.88,-175.43 822.88,-172.23 826.08,-169.02 829.29,-169.02 829.29,-169.02 870.46,-169.02 870.46,-169.02 873.67,-169.02 876.88,-172.23 876.88,-175.43 876.88,-175.43 876.88,-181.85 876.88,-181.85 876.88,-185.06 873.67,-188.27 870.46,-188.27"/>
<text text-anchor="start" x="834.12" y="-175.72" font-family="Helvetica,sans-Serif" font-size="9.00">index.ts</text>
</a>
</g>
</g>
<!-- src/presentation/components/utils/DiagnosticsPanel.vue&#45;&gt;src/infrastructure/services/index.ts -->
<g id="edge62" class="edge">
<title>src/presentation/components/utils/DiagnosticsPanel.vue&#45;&gt;src/infrastructure/services/index.ts</title>
<path fill="none" stroke="#000000" stroke-width="2" stroke-opacity="0.200000" d="M359.1,-92.7C371.3,-96.83 385.87,-101.4 399.25,-104.64 551.62,-141.61 737.56,-165.69 813.76,-174.68"/>
<polygon fill="#000000" fill-opacity="0.200000" stroke="#000000" stroke-width="2" stroke-opacity="0.200000" points="813.29,-176.74 819.49,-175.35 813.78,-172.57 813.29,-176.74"/>
</g>
<!-- src/application/stores/index.ts -->
<g id="node13" class="node">
<title>src/application/stores/index.ts</title>
<g id="a_node13"><a xlink:href="src/application/stores/index.ts" xlink:title="index.ts">
<path fill="#ddfeff" stroke="black" d="M462.83,-280.27C462.83,-280.27 421.67,-280.27 421.67,-280.27 418.46,-280.27 415.25,-277.06 415.25,-273.85 415.25,-273.85 415.25,-267.43 415.25,-267.43 415.25,-264.23 418.46,-261.02 421.67,-261.02 421.67,-261.02 462.83,-261.02 462.83,-261.02 466.04,-261.02 469.25,-264.23 469.25,-267.43 469.25,-267.43 469.25,-273.85 469.25,-273.85 469.25,-277.06 466.04,-280.27 462.83,-280.27"/>
<text text-anchor="start" x="426.5" y="-267.72" font-family="Helvetica,sans-Serif" font-size="9.00">index.ts</text>
</a>
</g>
</g>
<!-- src/presentation/components/utils/DiagnosticsPanel.vue&#45;&gt;src/application/stores/index.ts -->
<g id="edge61" class="edge">
<title>src/presentation/components/utils/DiagnosticsPanel.vue&#45;&gt;src/application/stores/index.ts</title>
<path fill="none" stroke="#000000" stroke-width="2" stroke-opacity="0.200000" d="M351.87,-92.73C364.81,-100 380.93,-110.93 391.25,-124.64 420.92,-164.08 433.78,-222.34 438.66,-251.93"/>
<polygon fill="#000000" fill-opacity="0.200000" stroke="#000000" stroke-width="2" stroke-opacity="0.200000" points="436.57,-252.19 439.56,-257.8 440.72,-251.55 436.57,-252.19"/>
</g>
<!-- src/presentation/views/NavBar.vue&#45;&gt;src/application/stores/index.ts -->
<g id="edge63" class="edge">
<title>src/presentation/views/NavBar.vue&#45;&gt;src/application/stores/index.ts</title>
<path fill="none" stroke="#000000" stroke-width="2" stroke-opacity="0.200000" d="M206.89,-155.47C213.03,-175.35 229.81,-220.28 261.25,-241.64 304.63,-271.13 367.28,-274.59 406.06,-273.37"/>
<polygon fill="#000000" fill-opacity="0.200000" stroke="#000000" stroke-width="2" stroke-opacity="0.200000" points="405.98,-275.47 411.89,-273.12 405.8,-271.28 405.98,-275.47"/>
</g>
<!-- src/presentation/components/inputs/FileInput.vue -->
<g id="node38" class="node">
<title>src/presentation/components/inputs/FileInput.vue</title>
<g id="a_node38"><a xlink:href="src/presentation/components/inputs/FileInput.vue" xlink:title="FileInput.vue">
<path fill="#41f083" stroke="black" d="M357.71,-155.27C357.71,-155.27 302.79,-155.27 302.79,-155.27 299.58,-155.27 296.38,-152.06 296.38,-148.85 296.38,-148.85 296.38,-142.43 296.38,-142.43 296.38,-139.23 299.58,-136.02 302.79,-136.02 302.79,-136.02 357.71,-136.02 357.71,-136.02 360.92,-136.02 364.12,-139.23 364.12,-142.43 364.12,-142.43 364.12,-148.85 364.12,-148.85 364.12,-152.06 360.92,-155.27 357.71,-155.27"/>
<text text-anchor="start" x="304.38" y="-142.72" font-family="Helvetica,sans-Serif" font-size="9.00">FileInput.vue</text>
</a>
</g>
</g>
<!-- src/presentation/views/NavBar.vue&#45;&gt;src/presentation/components/inputs/FileInput.vue -->
<g id="edge64" class="edge">
<title>src/presentation/views/NavBar.vue&#45;&gt;src/presentation/components/inputs/FileInput.vue</title>
<path fill="none" stroke="#000000" stroke-width="2" stroke-opacity="0.200000" d="M234.73,-145.64C250.51,-145.64 269.98,-145.64 287.15,-145.64"/>
<polygon fill="#000000" fill-opacity="0.200000" stroke="#000000" stroke-width="2" stroke-opacity="0.200000" points="286.86,-147.74 292.86,-145.64 286.86,-143.54 286.86,-147.74"/>
</g>
<!-- src/presentation/views/VideoGallery.vue&#45;&gt;src/application/stores/index.ts -->
<g id="edge65" class="edge">
<title>src/presentation/views/VideoGallery.vue&#45;&gt;src/application/stores/index.ts</title>
<path fill="none" stroke="#000000" stroke-width="2" stroke-opacity="0.200000" d="M245.53,-123.15C248.41,-124.93 251.05,-127.07 253.25,-129.64 269.6,-148.74 246.04,-165.62 261.25,-185.64 299.42,-235.88 334.77,-214.53 391.25,-242.64 399.67,-246.83 408.68,-251.74 416.71,-256.27"/>
<polygon fill="#000000" fill-opacity="0.200000" stroke="#000000" stroke-width="2" stroke-opacity="0.200000" points="415.47,-257.98 421.72,-259.13 417.55,-254.34 415.47,-257.98"/>
</g>
<!-- src/presentation/components/VideoCard.vue -->
<g id="node36" class="node">
<title>src/presentation/components/VideoCard.vue</title>
<g id="a_node36"><a xlink:href="src/presentation/components/VideoCard.vue" xlink:title="VideoCard.vue">
<path fill="#41f083" stroke="black" d="M361.83,-56.27C361.83,-56.27 298.67,-56.27 298.67,-56.27 295.46,-56.27 292.25,-53.06 292.25,-49.85 292.25,-49.85 292.25,-43.43 292.25,-43.43 292.25,-40.23 295.46,-37.02 298.67,-37.02 298.67,-37.02 361.83,-37.02 361.83,-37.02 365.04,-37.02 368.25,-40.23 368.25,-43.43 368.25,-43.43 368.25,-49.85 368.25,-49.85 368.25,-53.06 365.04,-56.27 361.83,-56.27"/>
<text text-anchor="start" x="300.25" y="-43.72" font-family="Helvetica,sans-Serif" font-size="9.00">VideoCard.vue</text>
</a>
</g>
</g>
<!-- src/presentation/views/VideoGallery.vue&#45;&gt;src/presentation/components/VideoCard.vue -->
<g id="edge66" class="edge">
<title>src/presentation/views/VideoGallery.vue&#45;&gt;src/presentation/components/VideoCard.vue</title>
<path fill="none" stroke="#000000" stroke-width="2" stroke-opacity="0.200000" d="M211.88,-104.76C221.94,-92.65 240.64,-72.44 261.25,-61.64 268.17,-58.02 275.93,-55.27 283.67,-53.18"/>
<polygon fill="#000000" fill-opacity="0.200000" stroke="#000000" stroke-width="2" stroke-opacity="0.200000" points="283.72,-55.33 289.06,-51.88 282.74,-51.24 283.72,-55.33"/>
</g>
<!-- src/application/services/FileParserService.ts -->
<g id="node5" class="node">
<title>src/application/services/FileParserService.ts</title>
<g id="a_node5"><a xlink:href="src/application/services/FileParserService.ts" xlink:title="FileParserService.ts">
<path fill="#ddfeff" stroke="black" d="M776.46,-280.27C776.46,-280.27 690.79,-280.27 690.79,-280.27 687.58,-280.27 684.38,-277.06 684.38,-273.85 684.38,-273.85 684.38,-267.43 684.38,-267.43 684.38,-264.23 687.58,-261.02 690.79,-261.02 690.79,-261.02 776.46,-261.02 776.46,-261.02 779.67,-261.02 782.88,-264.23 782.88,-267.43 782.88,-267.43 782.88,-273.85 782.88,-273.85 782.88,-277.06 779.67,-280.27 776.46,-280.27"/>
<text text-anchor="start" x="692.38" y="-267.72" font-family="Helvetica,sans-Serif" font-size="9.00">FileParserService.ts</text>
</a>
</g>
</g>
<!-- src/domain/entities/index.ts -->
<g id="node6" class="node">
<title>src/domain/entities/index.ts</title>
<g id="a_node6"><a xlink:href="src/domain/entities/index.ts" xlink:title="index.ts">
<path fill="#ddfeff" stroke="black" d="M1621.71,-380.27C1621.71,-380.27 1580.54,-380.27 1580.54,-380.27 1577.33,-380.27 1574.12,-377.06 1574.12,-373.85 1574.12,-373.85 1574.12,-367.43 1574.12,-367.43 1574.12,-364.23 1577.33,-361.02 1580.54,-361.02 1580.54,-361.02 1621.71,-361.02 1621.71,-361.02 1624.92,-361.02 1628.12,-364.23 1628.12,-367.43 1628.12,-367.43 1628.12,-373.85 1628.12,-373.85 1628.12,-377.06 1624.92,-380.27 1621.71,-380.27"/>
<text text-anchor="start" x="1585.38" y="-367.72" font-family="Helvetica,sans-Serif" font-size="9.00">index.ts</text>
</a>
</g>
</g>
<!-- src/application/services/FileParserService.ts&#45;&gt;src/domain/entities/index.ts -->
<g id="edge4" class="edge">
<title>src/application/services/FileParserService.ts&#45;&gt;src/domain/entities/index.ts</title>
<path fill="none" stroke="#000000" stroke-opacity="0.200000" d="M783.11,-276.98C788.79,-279.12 794.21,-281.94 798.88,-285.64 915.75,-378.38 798.3,-586.64 947.5,-586.64 947.5,-586.64 947.5,-586.64 1344.12,-586.64 1367.93,-586.64 1540.04,-592.13 1558.12,-576.64 1586.76,-552.12 1596.53,-433.02 1599.24,-387.96"/>
<polygon fill="none" stroke="#000000" stroke-opacity="0.200000" points="1601.32,-388.3 1599.56,-382.19 1597.13,-388.06 1601.32,-388.3"/>
</g>
<!-- src/application/services/FileParserService.ts&#45;&gt;src/infrastructure/services/index.ts -->
<g id="edge5" class="edge">
<title>src/application/services/FileParserService.ts&#45;&gt;src/infrastructure/services/index.ts</title>
<path fill="none" stroke="#000000" stroke-width="2" stroke-opacity="0.200000" d="M746.85,-260.8C766.68,-244.83 805.99,-213.18 829.6,-194.16"/>
<polygon fill="#000000" fill-opacity="0.200000" stroke="#000000" stroke-width="2" stroke-opacity="0.200000" points="830.68,-195.99 834.03,-190.6 828.04,-192.72 830.68,-195.99"/>
</g>
<!-- src/infrastructure/video/index.ts -->
<g id="node8" class="node">
<title>src/infrastructure/video/index.ts</title>
<g id="a_node8"><a xlink:href="src/infrastructure/video/index.ts" xlink:title="index.ts">
<path fill="#ddfeff" stroke="black" d="M870.46,-94.27C870.46,-94.27 829.29,-94.27 829.29,-94.27 826.08,-94.27 822.88,-91.06 822.88,-87.85 822.88,-87.85 822.88,-81.43 822.88,-81.43 822.88,-78.23 826.08,-75.02 829.29,-75.02 829.29,-75.02 870.46,-75.02 870.46,-75.02 873.67,-75.02 876.88,-78.23 876.88,-81.43 876.88,-81.43 876.88,-87.85 876.88,-87.85 876.88,-91.06 873.67,-94.27 870.46,-94.27"/>
<text text-anchor="start" x="834.12" y="-81.72" font-family="Helvetica,sans-Serif" font-size="9.00">index.ts</text>
</a>
</g>
</g>
<!-- src/application/services/FileParserService.ts&#45;&gt;src/infrastructure/video/index.ts -->
<g id="edge6" class="edge">
<title>src/application/services/FileParserService.ts&#45;&gt;src/infrastructure/video/index.ts</title>
<path fill="none" stroke="#000000" stroke-width="2" stroke-opacity="0.200000" d="M740.77,-260.64C759.29,-230.49 814.75,-140.21 838.21,-102.01"/>
<polygon fill="#000000" fill-opacity="0.200000" stroke="#000000" stroke-width="2" stroke-opacity="0.200000" points="839.77,-103.48 841.12,-97.27 836.19,-101.29 839.77,-103.48"/>
</g>
<!-- src/domain/entities/MetadataEntity.ts -->
<g id="node16" class="node">
<title>src/domain/entities/MetadataEntity.ts</title>
<g id="a_node16"><a xlink:href="src/domain/entities/MetadataEntity.ts" xlink:title="MetadataEntity.ts">
<path fill="#ddfeff" stroke="black" d="M1920.21,-359.27C1920.21,-359.27 1848.04,-359.27 1848.04,-359.27 1844.83,-359.27 1841.62,-356.06 1841.62,-352.85 1841.62,-352.85 1841.62,-346.43 1841.62,-346.43 1841.62,-343.23 1844.83,-340.02 1848.04,-340.02 1848.04,-340.02 1920.21,-340.02 1920.21,-340.02 1923.42,-340.02 1926.62,-343.23 1926.62,-346.43 1926.62,-346.43 1926.62,-352.85 1926.62,-352.85 1926.62,-356.06 1923.42,-359.27 1920.21,-359.27"/>
<text text-anchor="start" x="1849.62" y="-346.72" font-family="Helvetica,sans-Serif" font-size="9.00">MetadataEntity.ts</text>
</a>
</g>
</g>
<!-- src/domain/entities/index.ts&#45;&gt;src/domain/entities/MetadataEntity.ts -->
<g id="edge21" class="edge">
<title>src/domain/entities/index.ts&#45;&gt;src/domain/entities/MetadataEntity.ts</title>
<path fill="none" stroke="#000000" stroke-opacity="0.200000" d="M1612.37,-360.53C1619.7,-354.03 1630.18,-346.17 1641.12,-342.64 1705.38,-321.96 1784.26,-329.99 1834.12,-338.84"/>
<polygon fill="none" stroke="#000000" stroke-opacity="0.200000" points="1833.5,-340.86 1839.78,-339.87 1834.25,-336.73 1833.5,-340.86"/>
</g>
<!-- src/domain/entities/ParsedVideo.ts -->
<g id="node17" class="node">
<title>src/domain/entities/ParsedVideo.ts</title>
<g id="a_node17"><a xlink:href="src/domain/entities/ParsedVideo.ts" xlink:title="ParsedVideo.ts">
<path fill="#ddfeff" stroke="black" d="M1713.71,-368.27C1713.71,-368.27 1647.54,-368.27 1647.54,-368.27 1644.33,-368.27 1641.12,-365.06 1641.12,-361.85 1641.12,-361.85 1641.12,-355.43 1641.12,-355.43 1641.12,-352.23 1644.33,-349.02 1647.54,-349.02 1647.54,-349.02 1713.71,-349.02 1713.71,-349.02 1716.92,-349.02 1720.12,-352.23 1720.12,-355.43 1720.12,-355.43 1720.12,-361.85 1720.12,-361.85 1720.12,-365.06 1716.92,-368.27 1713.71,-368.27"/>
<text text-anchor="start" x="1649.12" y="-355.72" font-family="Helvetica,sans-Serif" font-size="9.00">ParsedVideo.ts</text>
</a>
</g>
</g>
<!-- src/domain/entities/index.ts&#45;&gt;src/domain/entities/ParsedVideo.ts -->
<g id="edge22" class="edge">
<title>src/domain/entities/index.ts&#45;&gt;src/domain/entities/ParsedVideo.ts</title>
<path fill="none" stroke="#000000" stroke-opacity="0.200000" d="M1628.36,-366.58C1630.13,-366.31 1631.94,-366.03 1633.77,-365.74"/>
<polygon fill="none" stroke="#000000" stroke-opacity="0.200000" points="1633.79,-367.87 1639.39,-364.87 1633.14,-363.72 1633.79,-367.87"/>
</g>
<!-- src/domain/entities/VideoStorageDto.ts -->
<g id="node18" class="node">
<title>src/domain/entities/VideoStorageDto.ts</title>
<g id="a_node18"><a xlink:href="src/domain/entities/VideoStorageDto.ts" xlink:title="VideoStorageDto.ts">
<path fill="#ddfeff" stroke="black" d="M1822.21,-375.27C1822.21,-375.27 1739.54,-375.27 1739.54,-375.27 1736.33,-375.27 1733.12,-372.06 1733.12,-368.85 1733.12,-368.85 1733.12,-362.43 1733.12,-362.43 1733.12,-359.23 1736.33,-356.02 1739.54,-356.02 1739.54,-356.02 1822.21,-356.02 1822.21,-356.02 1825.42,-356.02 1828.62,-359.23 1828.62,-362.43 1828.62,-362.43 1828.62,-368.85 1828.62,-368.85 1828.62,-372.06 1825.42,-375.27 1822.21,-375.27"/>
<text text-anchor="start" x="1741.12" y="-362.72" font-family="Helvetica,sans-Serif" font-size="9.00">VideoStorageDto.ts</text>
</a>
</g>
</g>
<!-- src/domain/entities/index.ts&#45;&gt;src/domain/entities/VideoStorageDto.ts -->
<g id="edge24" class="edge">
<title>src/domain/entities/index.ts&#45;&gt;src/domain/entities/VideoStorageDto.ts</title>
<path fill="none" stroke="#000000" stroke-opacity="0.200000" d="M1628.53,-373.72C1632.74,-374.1 1637.05,-374.43 1641.12,-374.64 1676.19,-376.44 1685.11,-377.27 1720.12,-374.64 1721.91,-374.51 1723.72,-374.35 1725.55,-374.18"/>
<polygon fill="none" stroke="#000000" stroke-opacity="0.200000" points="1725.41,-376.31 1731.15,-373.58 1724.96,-372.13 1725.41,-376.31"/>
</g>
<!-- src/domain/entities/VideoEntity.ts -->
<g id="node19" class="node">
<title>src/domain/entities/VideoEntity.ts</title>
<g id="a_node19"><a xlink:href="src/domain/entities/VideoEntity.ts" xlink:title="VideoEntity.ts">
<path fill="#ddfeff" stroke="black" d="M1913.08,-393.27C1913.08,-393.27 1855.17,-393.27 1855.17,-393.27 1851.96,-393.27 1848.75,-390.06 1848.75,-386.85 1848.75,-386.85 1848.75,-380.43 1848.75,-380.43 1848.75,-377.23 1851.96,-374.02 1855.17,-374.02 1855.17,-374.02 1913.08,-374.02 1913.08,-374.02 1916.29,-374.02 1919.5,-377.23 1919.5,-380.43 1919.5,-380.43 1919.5,-386.85 1919.5,-386.85 1919.5,-390.06 1916.29,-393.27 1913.08,-393.27"/>
<text text-anchor="start" x="1856.75" y="-380.72" font-family="Helvetica,sans-Serif" font-size="9.00">VideoEntity.ts</text>
</a>
</g>
</g>
<!-- src/domain/entities/index.ts&#45;&gt;src/domain/entities/VideoEntity.ts -->
<g id="edge23" class="edge">
<title>src/domain/entities/index.ts&#45;&gt;src/domain/entities/VideoEntity.ts</title>
<path fill="none" stroke="#000000" stroke-opacity="0.200000" d="M1628.46,-376.68C1632.68,-377.46 1637.01,-378.16 1641.12,-378.64 1710.85,-386.87 1792.63,-386.49 1841.04,-385.23"/>
<polygon fill="none" stroke="#000000" stroke-opacity="0.200000" points="1841.06,-387.33 1847,-385.06 1840.95,-383.13 1841.06,-387.33"/>
</g>
<!-- src/infrastructure/services/VideoMetadataFacade.ts -->
<g id="node32" class="node">
<title>src/infrastructure/services/VideoMetadataFacade.ts</title>
<g id="a_node32"><a xlink:href="src/infrastructure/services/VideoMetadataFacade.ts" xlink:title="VideoMetadataFacade.ts">
<path fill="#ddfeff" stroke="black" d="M1000.71,-188.27C1000.71,-188.27 896.29,-188.27 896.29,-188.27 893.08,-188.27 889.88,-185.06 889.88,-181.85 889.88,-181.85 889.88,-175.43 889.88,-175.43 889.88,-172.23 893.08,-169.02 896.29,-169.02 896.29,-169.02 1000.71,-169.02 1000.71,-169.02 1003.92,-169.02 1007.12,-172.23 1007.12,-175.43 1007.12,-175.43 1007.12,-181.85 1007.12,-181.85 1007.12,-185.06 1003.92,-188.27 1000.71,-188.27"/>
<text text-anchor="start" x="897.88" y="-175.72" font-family="Helvetica,sans-Serif" font-size="9.00">VideoMetadataFacade.ts</text>
</a>
</g>
</g>
<!-- src/infrastructure/services/index.ts&#45;&gt;src/infrastructure/services/VideoMetadataFacade.ts -->
<g id="edge49" class="edge">
<title>src/infrastructure/services/index.ts&#45;&gt;src/infrastructure/services/VideoMetadataFacade.ts</title>
<path fill="none" stroke="#000000" stroke-width="2" stroke-opacity="0.200000" d="M877.28,-178.64C881.19,-178.64 885.34,-178.64 889.6,-178.64"/>
<polygon fill="#000000" fill-opacity="0.200000" stroke="#000000" stroke-width="2" stroke-opacity="0.200000" points="892.41,-177.25 896.31,-185.35 888.21,-181.45 892.41,-177.25"/>
</g>
<!-- src/infrastructure/video/HTMLVideoProcessor.ts -->
<g id="node33" class="node">
<title>src/infrastructure/video/HTMLVideoProcessor.ts</title>
<g id="a_node33"><a xlink:href="src/infrastructure/video/HTMLVideoProcessor.ts" xlink:title="HTMLVideoProcessor.ts">
<path fill="#ddfeff" stroke="black" d="M1132.46,-87.27C1132.46,-87.27 1029.54,-87.27 1029.54,-87.27 1026.33,-87.27 1023.12,-84.06 1023.12,-80.85 1023.12,-80.85 1023.12,-74.43 1023.12,-74.43 1023.12,-71.23 1026.33,-68.02 1029.54,-68.02 1029.54,-68.02 1132.46,-68.02 1132.46,-68.02 1135.67,-68.02 1138.88,-71.23 1138.88,-74.43 1138.88,-74.43 1138.88,-80.85 1138.88,-80.85 1138.88,-84.06 1135.67,-87.27 1132.46,-87.27"/>
<text text-anchor="start" x="1031.12" y="-74.72" font-family="Helvetica,sans-Serif" font-size="9.00">HTMLVideoProcessor.ts</text>
</a>
</g>
</g>
<!-- src/infrastructure/video/index.ts&#45;&gt;src/infrastructure/video/HTMLVideoProcessor.ts -->
<g id="edge53" class="edge">
<title>src/infrastructure/video/index.ts&#45;&gt;src/infrastructure/video/HTMLVideoProcessor.ts</title>
<path fill="none" stroke="#000000" stroke-width="2" stroke-opacity="0.200000" d="M871.05,-74.62C876.97,-72.17 883.56,-69.89 1022.9,-67.83"/>
<polygon fill="#000000" fill-opacity="0.200000" stroke="#000000" stroke-width="2" stroke-opacity="0.200000" points="1025.71,-66.44 1029.61,-74.54 1021.51,-70.64 1025.71,-66.44"/>
</g>
<!-- src/infrastructure/video/VideoFileParser.ts -->
<g id="node34" class="node">
<title>src/infrastructure/video/VideoFileParser.ts</title>
<g id="a_node34"><a xlink:href="src/infrastructure/video/VideoFileParser.ts" xlink:title="VideoFileParser.ts">
<path fill="#ddfeff" stroke="black" d="M987.96,-94.27C987.96,-94.27 909.04,-94.27 909.04,-94.27 905.83,-94.27 902.62,-91.06 902.62,-87.85 902.62,-87.85 902.62,-81.43 902.62,-81.43 902.62,-78.23 905.83,-75.02 909.04,-75.02 909.04,-75.02 987.96,-75.02 987.96,-75.02 991.17,-75.02 994.38,-78.23 994.38,-81.43 994.38,-81.43 994.38,-87.85 994.38,-87.85 994.38,-91.06 991.17,-94.27 987.96,-94.27"/>
<text text-anchor="start" x="910.62" y="-81.72" font-family="Helvetica,sans-Serif" font-size="9.00">VideoFileParser.ts</text>
</a>
</g>
</g>
<!-- src/infrastructure/video/index.ts&#45;&gt;src/infrastructure/video/VideoFileParser.ts -->
<g id="edge54" class="edge">
<title>src/infrastructure/video/index.ts&#45;&gt;src/infrastructure/video/VideoFileParser.ts</title>
<path fill="none" stroke="#000000" stroke-width="2" stroke-opacity="0.200000" d="M877.28,-84.64C884.99,-84.64 893.64,-84.64 902.18,-84.64"/>
<polygon fill="#000000" fill-opacity="0.200000" stroke="#000000" stroke-width="2" stroke-opacity="0.200000" points="904.98,-83.25 908.88,-91.35 900.78,-87.45 904.98,-83.25"/>
</g>
<!-- src/application/services/FiltersService.ts -->
<g id="node9" class="node">
<title>src/application/services/FiltersService.ts</title>
<g id="a_node9"><a xlink:href="src/application/services/FiltersService.ts" xlink:title="FiltersService.ts">
<path fill="#ddfeff" stroke="black" d="M767.83,-311.27C767.83,-311.27 699.42,-311.27 699.42,-311.27 696.21,-311.27 693,-308.06 693,-304.85 693,-304.85 693,-298.43 693,-298.43 693,-295.23 696.21,-292.02 699.42,-292.02 699.42,-292.02 767.83,-292.02 767.83,-292.02 771.04,-292.02 774.25,-295.23 774.25,-298.43 774.25,-298.43 774.25,-304.85 774.25,-304.85 774.25,-308.06 771.04,-311.27 767.83,-311.27"/>
<text text-anchor="start" x="701" y="-298.72" font-family="Helvetica,sans-Serif" font-size="9.00">FiltersService.ts</text>
</a>
</g>
</g>
<!-- src/application/services/FiltersService.ts&#45;&gt;src/domain/entities/index.ts -->
<g id="edge7" class="edge">
<title>src/application/services/FiltersService.ts&#45;&gt;src/domain/entities/index.ts</title>
<path fill="none" stroke="#000000" stroke-opacity="0.200000" d="M774.75,-302.85C783.99,-305.12 792.86,-309.28 798.88,-316.64 818.15,-340.22 785.79,-568.66 806.88,-590.64 828.56,-613.25 916.17,-600.64 947.5,-600.64 947.5,-600.64 947.5,-600.64 1344.12,-600.64 1391.73,-600.64 1522.16,-621.83 1558.12,-590.64 1588.74,-564.09 1597.34,-434.93 1599.48,-387.85"/>
<polygon fill="none" stroke="#000000" stroke-opacity="0.200000" points="1601.57,-388.14 1599.73,-382.05 1597.38,-387.96 1601.57,-388.14"/>
</g>
<!-- src/application/services/Hotkeys.ts -->
<g id="node10" class="node">
<title>src/application/services/Hotkeys.ts</title>
<g id="a_node10"><a xlink:href="src/application/services/Hotkeys.ts" xlink:title="Hotkeys.ts">
<path fill="#ddfeff" stroke="black" d="M756.58,-342.27C756.58,-342.27 710.67,-342.27 710.67,-342.27 707.46,-342.27 704.25,-339.06 704.25,-335.85 704.25,-335.85 704.25,-329.43 704.25,-329.43 704.25,-326.23 707.46,-323.02 710.67,-323.02 710.67,-323.02 756.58,-323.02 756.58,-323.02 759.79,-323.02 763,-326.23 763,-329.43 763,-329.43 763,-335.85 763,-335.85 763,-339.06 759.79,-342.27 756.58,-342.27"/>
<text text-anchor="start" x="712.25" y="-329.72" font-family="Helvetica,sans-Serif" font-size="9.00">Hotkeys.ts</text>
</a>
</g>
</g>
<!-- src/application/services/index.ts -->
<g id="node11" class="node">
<title>src/application/services/index.ts</title>
<g id="a_node11"><a xlink:href="src/application/services/index.ts" xlink:title="index.ts">
<path fill="#ddfeff" stroke="black" d="M664.96,-311.27C664.96,-311.27 623.79,-311.27 623.79,-311.27 620.58,-311.27 617.38,-308.06 617.38,-304.85 617.38,-304.85 617.38,-298.43 617.38,-298.43 617.38,-295.23 620.58,-292.02 623.79,-292.02 623.79,-292.02 664.96,-292.02 664.96,-292.02 668.17,-292.02 671.38,-295.23 671.38,-298.43 671.38,-298.43 671.38,-304.85 671.38,-304.85 671.38,-308.06 668.17,-311.27 664.96,-311.27"/>
<text text-anchor="start" x="628.62" y="-298.72" font-family="Helvetica,sans-Serif" font-size="9.00">index.ts</text>
</a>
</g>
</g>
<!-- src/application/services/index.ts&#45;&gt;src/application/services/FileParserService.ts -->
<g id="edge8" class="edge">
<title>src/application/services/index.ts&#45;&gt;src/application/services/FileParserService.ts</title>
<path fill="none" stroke="#000000" stroke-width="2" stroke-opacity="0.200000" d="M668.76,-291.66C673.87,-289.59 679.28,-287.48 698.76,-280.76"/>
<polygon fill="#000000" fill-opacity="0.200000" stroke="#000000" stroke-width="2" stroke-opacity="0.200000" points="701.56,-279.37 705.46,-287.47 697.36,-283.57 701.56,-279.37"/>
</g>
<!-- src/application/services/index.ts&#45;&gt;src/application/services/FiltersService.ts -->
<g id="edge9" class="edge">
<title>src/application/services/index.ts&#45;&gt;src/application/services/FiltersService.ts</title>
<path fill="none" stroke="#000000" stroke-width="2" stroke-opacity="0.200000" d="M671.55,-301.64C678.18,-301.64 685.45,-301.64 692.59,-301.64"/>
<polygon fill="#000000" fill-opacity="0.200000" stroke="#000000" stroke-width="2" stroke-opacity="0.200000" points="695.39,-300.25 699.29,-308.35 691.19,-304.45 695.39,-300.25"/>
</g>
<!-- src/application/services/index.ts&#45;&gt;src/application/services/Hotkeys.ts -->
<g id="edge10" class="edge">
<title>src/application/services/index.ts&#45;&gt;src/application/services/Hotkeys.ts</title>
<path fill="none" stroke="#000000" stroke-width="2" stroke-opacity="0.200000" d="M668.76,-311.63C673.87,-313.7 679.28,-315.81 703.91,-324.17"/>
<polygon fill="#000000" fill-opacity="0.200000" stroke="#000000" stroke-width="2" stroke-opacity="0.200000" points="706.72,-322.78 710.62,-330.88 702.52,-326.98 706.72,-322.78"/>
</g>
<!-- src/application/stores/appStateStore.ts -->
<g id="node12" class="node">
<title>src/application/stores/appStateStore.ts</title>
<g id="a_node12"><a xlink:href="src/application/stores/appStateStore.ts" xlink:title="appStateStore.ts">
<path fill="#ddfeff" stroke="black" d="M586.96,-311.27C586.96,-311.27 515.54,-311.27 515.54,-311.27 512.33,-311.27 509.12,-308.06 509.12,-304.85 509.12,-304.85 509.12,-298.43 509.12,-298.43 509.12,-295.23 512.33,-292.02 515.54,-292.02 515.54,-292.02 586.96,-292.02 586.96,-292.02 590.17,-292.02 593.38,-295.23 593.38,-298.43 593.38,-298.43 593.38,-304.85 593.38,-304.85 593.38,-308.06 590.17,-311.27 586.96,-311.27"/>
<text text-anchor="start" x="517.12" y="-298.72" font-family="Helvetica,sans-Serif" font-size="9.00">appStateStore.ts</text>
</a>
</g>
</g>
<!-- src/application/stores/appStateStore.ts&#45;&gt;src/application/services/index.ts -->
<g id="edge11" class="edge">
<title>src/application/stores/appStateStore.ts&#45;&gt;src/application/services/index.ts</title>
<path fill="none" stroke="#000000" stroke-width="2" stroke-opacity="0.200000" d="M593.81,-301.64C598.62,-301.64 603.48,-301.64 608.19,-301.64"/>
<polygon fill="#000000" fill-opacity="0.200000" stroke="#000000" stroke-width="2" stroke-opacity="0.200000" points="607.97,-303.74 613.97,-301.64 607.97,-299.54 607.97,-303.74"/>
</g>
<!-- src/application/stores/index.ts&#45;&gt;src/application/stores/appStateStore.ts -->
<g id="edge12" class="edge">
<title>src/application/stores/index.ts&#45;&gt;src/application/stores/appStateStore.ts</title>
<path fill="none" stroke="#000000" stroke-width="2" stroke-opacity="0.200000" d="M469.7,-278.31C483.56,-282.32 500.71,-287.29 515.62,-291.61"/>
<polygon fill="#000000" fill-opacity="0.200000" stroke="#000000" stroke-width="2" stroke-opacity="0.200000" points="518.43,-290.22 522.33,-298.32 514.23,-294.42 518.43,-290.22"/>
</g>
<!-- src/application/stores/videosStore.ts -->
<g id="node14" class="node">
<title>src/application/stores/videosStore.ts</title>
<g id="a_node14"><a xlink:href="src/application/stores/videosStore.ts" xlink:title="videosStore.ts">
<path fill="#ddfeff" stroke="black" d="M582.08,-280.27C582.08,-280.27 520.42,-280.27 520.42,-280.27 517.21,-280.27 514,-277.06 514,-273.85 514,-273.85 514,-267.43 514,-267.43 514,-264.23 517.21,-261.02 520.42,-261.02 520.42,-261.02 582.08,-261.02 582.08,-261.02 585.29,-261.02 588.5,-264.23 588.5,-267.43 588.5,-267.43 588.5,-273.85 588.5,-273.85 588.5,-277.06 585.29,-280.27 582.08,-280.27"/>
<text text-anchor="start" x="522" y="-267.72" font-family="Helvetica,sans-Serif" font-size="9.00">videosStore.ts</text>
</a>
</g>
</g>
<!-- src/application/stores/index.ts&#45;&gt;src/application/stores/videosStore.ts -->
<g id="edge13" class="edge">
<title>src/application/stores/index.ts&#45;&gt;src/application/stores/videosStore.ts</title>
<path fill="none" stroke="#000000" stroke-width="2" stroke-opacity="0.200000" d="M469.7,-270.64C482.94,-270.64 499.19,-270.64 513.61,-270.64"/>
<polygon fill="#000000" fill-opacity="0.200000" stroke="#000000" stroke-width="2" stroke-opacity="0.200000" points="516.42,-269.25 520.32,-277.35 512.22,-273.45 516.42,-269.25"/>
</g>
<!-- src/application/stores/videosStore.ts&#45;&gt;src/domain/entities/index.ts -->
<g id="edge15" class="edge">
<title>src/application/stores/videosStore.ts&#45;&gt;src/domain/entities/index.ts</title>
<path fill="none" stroke="#000000" stroke-opacity="0.200000" d="M588.61,-276.26C593.51,-278.46 598,-281.49 601.38,-285.64 613.63,-300.7 603.98,-353.99 609.38,-372.64 642.89,-488.6 611.92,-614.64 732.62,-614.64 732.62,-614.64 732.62,-614.64 1344.12,-614.64 1439.39,-614.64 1486.75,-665.73 1558.12,-602.64 1590.3,-574.2 1597.95,-436.54 1599.66,-387.79"/>
<polygon fill="none" stroke="#000000" stroke-opacity="0.200000" points="1601.75,-388.09 1599.84,-382.02 1597.55,-387.95 1601.75,-388.09"/>
</g>
<!-- src/application/stores/videosStore.ts&#45;&gt;src/infrastructure/services/index.ts -->
<g id="edge16" class="edge">
<title>src/application/stores/videosStore.ts&#45;&gt;src/infrastructure/services/index.ts</title>
<path fill="none" stroke="#000000" stroke-width="2" stroke-opacity="0.200000" d="M578.58,-260.56C588.22,-256.98 599.25,-253 609.38,-249.64 681.5,-225.72 767.08,-201.29 813.92,-188.25"/>
<polygon fill="#000000" fill-opacity="0.200000" stroke="#000000" stroke-width="2" stroke-opacity="0.200000" points="814.34,-190.31 819.56,-186.68 813.22,-186.26 814.34,-190.31"/>
</g>
<!-- src/application/stores/videosStore.ts&#45;&gt;src/infrastructure/video/index.ts -->
<g id="edge17" class="edge">
<title>src/application/stores/videosStore.ts&#45;&gt;src/infrastructure/video/index.ts</title>
<path fill="none" stroke="#000000" stroke-width="2" stroke-opacity="0.200000" d="M564.19,-260.76C575.53,-251.54 593.21,-237.6 609.38,-226.64 684.14,-175.96 777.37,-123.6 822.27,-99.03"/>
<polygon fill="#000000" fill-opacity="0.200000" stroke="#000000" stroke-width="2" stroke-opacity="0.200000" points="823.16,-100.93 827.42,-96.22 821.15,-97.25 823.16,-100.93"/>
</g>
<!-- src/application/stores/videosStore.ts&#45;&gt;src/application/services/index.ts -->
<g id="edge14" class="edge">
<title>src/application/stores/videosStore.ts&#45;&gt;src/application/services/index.ts</title>
<path fill="none" stroke="#000000" stroke-width="2" stroke-opacity="0.200000" d="M586.44,-280.76C591.46,-282.34 596.57,-284 601.38,-285.64 603.95,-286.53 606.6,-287.46 609.26,-288.43"/>
<polygon fill="#000000" fill-opacity="0.200000" stroke="#000000" stroke-width="2" stroke-opacity="0.200000" points="608.51,-290.39 614.87,-290.5 609.97,-286.45 608.51,-290.39"/>
</g>
<!-- src/domain/constants/index.ts -->
<g id="node15" class="node">
<title>src/domain/constants/index.ts</title>
<g id="a_node15"><a xlink:href="src/domain/constants/index.ts" xlink:title="index.ts">
<path fill="#ddfeff" stroke="black" d="M1363.71,-286.27C1363.71,-286.27 1322.54,-286.27 1322.54,-286.27 1319.33,-286.27 1316.12,-283.06 1316.12,-279.85 1316.12,-279.85 1316.12,-273.43 1316.12,-273.43 1316.12,-270.23 1319.33,-267.02 1322.54,-267.02 1322.54,-267.02 1363.71,-267.02 1363.71,-267.02 1366.92,-267.02 1370.12,-270.23 1370.12,-273.43 1370.12,-273.43 1370.12,-279.85 1370.12,-279.85 1370.12,-283.06 1366.92,-286.27 1363.71,-286.27"/>
<text text-anchor="start" x="1327.38" y="-273.72" font-family="Helvetica,sans-Serif" font-size="9.00">index.ts</text>
</a>
</g>
</g>
<!-- src/domain/entities/ParsedVideo.ts&#45;&gt;src/domain/entities/VideoStorageDto.ts -->
<g id="edge18" class="edge">
<title>src/domain/entities/ParsedVideo.ts&#45;&gt;src/domain/entities/VideoStorageDto.ts</title>
<path fill="none" stroke="#000000" stroke-opacity="0.200000" d="M1720.46,-361.41C1722.11,-361.53 1723.78,-361.65 1725.47,-361.77"/>
<polygon fill="none" stroke="#000000" stroke-opacity="0.200000" points="1725.22,-363.85 1731.35,-362.19 1725.52,-359.66 1725.22,-363.85"/>
</g>
<!-- src/domain/entities/VideoStorageDto.ts&#45;&gt;src/domain/entities/MetadataEntity.ts -->
<g id="edge19" class="edge">
<title>src/domain/entities/VideoStorageDto.ts&#45;&gt;src/domain/entities/MetadataEntity.ts</title>
<path fill="none" stroke="#000000" stroke-opacity="0.200000" d="M1828.94,-358.21C1830.62,-357.94 1832.31,-357.67 1833.99,-357.41"/>
<polygon fill="none" stroke="#000000" stroke-opacity="0.200000" points="1834.23,-359.5 1839.83,-356.49 1833.57,-355.35 1834.23,-359.5"/>
</g>
<!-- src/domain/entities/VideoStorageDto.ts&#45;&gt;src/domain/entities/VideoEntity.ts -->
<g id="edge20" class="edge">
<title>src/domain/entities/VideoStorageDto.ts&#45;&gt;src/domain/entities/VideoEntity.ts</title>
<path fill="none" stroke="#000000" stroke-opacity="0.200000" d="M1828.94,-374.01C1833.01,-374.73 1837.11,-375.46 1841.13,-376.18"/>
<polygon fill="none" stroke="#000000" stroke-opacity="0.200000" points="1840.5,-378.2 1846.78,-377.18 1841.24,-374.06 1840.5,-378.2"/>
</g>
<!-- src/domain/repositories/IMetadataRepository.ts -->
<g id="node20" class="node">
<title>src/domain/repositories/IMetadataRepository.ts</title>
<g id="a_node20"><a xlink:href="src/domain/repositories/IMetadataRepository.ts" xlink:title="IMetadataRepository.ts">
<path fill="#ddfeff" stroke="black" d="M1535.46,-349.27C1535.46,-349.27 1438.54,-349.27 1438.54,-349.27 1435.33,-349.27 1432.12,-346.06 1432.12,-342.85 1432.12,-342.85 1432.12,-336.43 1432.12,-336.43 1432.12,-333.23 1435.33,-330.02 1438.54,-330.02 1438.54,-330.02 1535.46,-330.02 1535.46,-330.02 1538.67,-330.02 1541.88,-333.23 1541.88,-336.43 1541.88,-336.43 1541.88,-342.85 1541.88,-342.85 1541.88,-346.06 1538.67,-349.27 1535.46,-349.27"/>
<text text-anchor="start" x="1440.12" y="-336.72" font-family="Helvetica,sans-Serif" font-size="9.00">IMetadataRepository.ts</text>
</a>
</g>
</g>
<!-- src/domain/repositories/IMetadataRepository.ts&#45;&gt;src/domain/entities/index.ts -->
<g id="edge25" class="edge">
<title>src/domain/repositories/IMetadataRepository.ts&#45;&gt;src/domain/entities/index.ts</title>
<path fill="none" stroke="#000000" stroke-opacity="0.200000" d="M1539.55,-349.72C1545.84,-351.23 1552.16,-352.88 1558.12,-354.64 1561.5,-355.64 1564.99,-356.78 1568.45,-357.99"/>
<polygon fill="none" stroke="#000000" stroke-opacity="0.200000" points="1567.69,-359.95 1574.04,-360.01 1569.12,-356 1567.69,-359.95"/>
</g>
<!-- src/domain/repositories/IVideoFacade.ts -->
<g id="node21" class="node">
<title>src/domain/repositories/IVideoFacade.ts</title>
<g id="a_node21"><a xlink:href="src/domain/repositories/IVideoFacade.ts" xlink:title="IVideoFacade.ts">
<path fill="#ddfeff" stroke="black" d="M1521.58,-380.27C1521.58,-380.27 1452.42,-380.27 1452.42,-380.27 1449.21,-380.27 1446,-377.06 1446,-373.85 1446,-373.85 1446,-367.43 1446,-367.43 1446,-364.23 1449.21,-361.02 1452.42,-361.02 1452.42,-361.02 1521.58,-361.02 1521.58,-361.02 1524.79,-361.02 1528,-364.23 1528,-367.43 1528,-367.43 1528,-373.85 1528,-373.85 1528,-377.06 1524.79,-380.27 1521.58,-380.27"/>
<text text-anchor="start" x="1454" y="-367.72" font-family="Helvetica,sans-Serif" font-size="9.00">IVideoFacade.ts</text>
</a>
</g>
</g>
<!-- src/domain/repositories/IVideoFacade.ts&#45;&gt;src/domain/entities/index.ts -->
<g id="edge26" class="edge">
<title>src/domain/repositories/IVideoFacade.ts&#45;&gt;src/domain/entities/index.ts</title>
<path fill="none" stroke="#000000" stroke-opacity="0.200000" d="M1528.48,-370.64C1540.95,-370.64 1554.53,-370.64 1566.49,-370.64"/>
<polygon fill="none" stroke="#000000" stroke-opacity="0.200000" points="1566.18,-372.74 1572.18,-370.64 1566.18,-368.54 1566.18,-372.74"/>
</g>
<!-- src/domain/repositories/IVideoRepository.ts -->
<g id="node22" class="node">
<title>src/domain/repositories/IVideoRepository.ts</title>
<g id="a_node22"><a xlink:href="src/domain/repositories/IVideoRepository.ts" xlink:title="IVideoRepository.ts">
<path fill="#ddfeff" stroke="black" d="M1528.33,-411.27C1528.33,-411.27 1445.67,-411.27 1445.67,-411.27 1442.46,-411.27 1439.25,-408.06 1439.25,-404.85 1439.25,-404.85 1439.25,-398.43 1439.25,-398.43 1439.25,-395.23 1442.46,-392.02 1445.67,-392.02 1445.67,-392.02 1528.33,-392.02 1528.33,-392.02 1531.54,-392.02 1534.75,-395.23 1534.75,-398.43 1534.75,-398.43 1534.75,-404.85 1534.75,-404.85 1534.75,-408.06 1531.54,-411.27 1528.33,-411.27"/>
<text text-anchor="start" x="1447.25" y="-398.72" font-family="Helvetica,sans-Serif" font-size="9.00">IVideoRepository.ts</text>
</a>
</g>
</g>
<!-- src/domain/repositories/IVideoRepository.ts&#45;&gt;src/domain/entities/index.ts -->
<g id="edge27" class="edge">
<title>src/domain/repositories/IVideoRepository.ts&#45;&gt;src/domain/entities/index.ts</title>
<path fill="none" stroke="#000000" stroke-opacity="0.200000" d="M1535.02,-392.63C1542.79,-390.84 1550.72,-388.83 1558.12,-386.64 1561.5,-385.65 1564.99,-384.5 1568.45,-383.3"/>
<polygon fill="none" stroke="#000000" stroke-opacity="0.200000" points="1569.12,-385.29 1574.04,-381.27 1567.69,-381.34 1569.12,-385.29"/>
</g>
<!-- src/domain/repositories/index.ts -->
<g id="node23" class="node">
<title>src/domain/repositories/index.ts</title>
<g id="a_node23"><a xlink:href="src/domain/repositories/index.ts" xlink:title="index.ts">
<path fill="#ddfeff" stroke="black" d="M1363.71,-349.27C1363.71,-349.27 1322.54,-349.27 1322.54,-349.27 1319.33,-349.27 1316.12,-346.06 1316.12,-342.85 1316.12,-342.85 1316.12,-336.43 1316.12,-336.43 1316.12,-333.23 1319.33,-330.02 1322.54,-330.02 1322.54,-330.02 1363.71,-330.02 1363.71,-330.02 1366.92,-330.02 1370.12,-333.23 1370.12,-336.43 1370.12,-336.43 1370.12,-342.85 1370.12,-342.85 1370.12,-346.06 1366.92,-349.27 1363.71,-349.27"/>
<text text-anchor="start" x="1327.38" y="-336.72" font-family="Helvetica,sans-Serif" font-size="9.00">index.ts</text>
</a>
</g>
</g>
<!-- src/domain/repositories/index.ts&#45;&gt;src/domain/repositories/IMetadataRepository.ts -->
<g id="edge28" class="edge">
<title>src/domain/repositories/index.ts&#45;&gt;src/domain/repositories/IMetadataRepository.ts</title>
<path fill="none" stroke="#000000" stroke-opacity="0.200000" d="M1370.48,-339.64C1385.69,-339.64 1405.5,-339.64 1424.4,-339.64"/>
<polygon fill="none" stroke="#000000" stroke-opacity="0.200000" points="1424.36,-341.74 1430.36,-339.64 1424.36,-337.54 1424.36,-341.74"/>
</g>
<!-- src/domain/repositories/index.ts&#45;&gt;src/domain/repositories/IVideoFacade.ts -->
<g id="edge29" class="edge">
<title>src/domain/repositories/index.ts&#45;&gt;src/domain/repositories/IVideoFacade.ts</title>
<path fill="none" stroke="#000000" stroke-opacity="0.200000" d="M1370.48,-345.4C1389.5,-349.56 1415.7,-355.28 1438.35,-360.23"/>
<polygon fill="none" stroke="#000000" stroke-opacity="0.200000" points="1437.77,-362.25 1444.08,-361.48 1438.67,-358.15 1437.77,-362.25"/>
</g>
<!-- src/domain/repositories/index.ts&#45;&gt;src/domain/repositories/IVideoRepository.ts -->
<g id="edge30" class="edge">
<title>src/domain/repositories/index.ts&#45;&gt;src/domain/repositories/IVideoRepository.ts</title>
<path fill="none" stroke="#000000" stroke-opacity="0.200000" d="M1358.16,-349.66C1373.59,-360.24 1399.45,-376.75 1423.88,-386.64 1426.59,-387.74 1429.41,-388.78 1432.28,-389.75"/>
<polygon fill="none" stroke="#000000" stroke-opacity="0.200000" points="1431.26,-391.62 1437.61,-391.43 1432.52,-387.62 1431.26,-391.62"/>
</g>
<!-- src/domain/valueObjects/ParsedVideoData.ts -->
<g id="node24" class="node">
<title>src/domain/valueObjects/ParsedVideoData.ts</title>
<g id="a_node24"><a xlink:href="src/domain/valueObjects/ParsedVideoData.ts" xlink:title="ParsedVideoData.ts">
<path fill="#ddfeff" stroke="black" d="M1529.83,-474.27C1529.83,-474.27 1444.17,-474.27 1444.17,-474.27 1440.96,-474.27 1437.75,-471.06 1437.75,-467.85 1437.75,-467.85 1437.75,-461.43 1437.75,-461.43 1437.75,-458.23 1440.96,-455.02 1444.17,-455.02 1444.17,-455.02 1529.83,-455.02 1529.83,-455.02 1533.04,-455.02 1536.25,-458.23 1536.25,-461.43 1536.25,-461.43 1536.25,-467.85 1536.25,-467.85 1536.25,-471.06 1533.04,-474.27 1529.83,-474.27"/>
<text text-anchor="start" x="1445.75" y="-461.72" font-family="Helvetica,sans-Serif" font-size="9.00">ParsedVideoData.ts</text>
</a>
</g>
</g>
<!-- src/domain/valueObjects/Thumbs.ts -->
<g id="node25" class="node">
<title>src/domain/valueObjects/Thumbs.ts</title>
<g id="a_node25"><a xlink:href="src/domain/valueObjects/Thumbs.ts" xlink:title="Thumbs.ts">
<path fill="#ddfeff" stroke="black" d="M1510.71,-505.27C1510.71,-505.27 1463.29,-505.27 1463.29,-505.27 1460.08,-505.27 1456.88,-502.06 1456.88,-498.85 1456.88,-498.85 1456.88,-492.43 1456.88,-492.43 1456.88,-489.23 1460.08,-486.02 1463.29,-486.02 1463.29,-486.02 1510.71,-486.02 1510.71,-486.02 1513.92,-486.02 1517.12,-489.23 1517.12,-492.43 1517.12,-492.43 1517.12,-498.85 1517.12,-498.85 1517.12,-502.06 1513.92,-505.27 1510.71,-505.27"/>
<text text-anchor="start" x="1464.88" y="-492.72" font-family="Helvetica,sans-Serif" font-size="9.00">Thumbs.ts</text>
</a>
</g>
</g>
<!-- src/domain/valueObjects/VideoStorageDtoMapper.ts -->
<g id="node26" class="node">
<title>src/domain/valueObjects/VideoStorageDtoMapper.ts</title>
<g id="a_node26"><a xlink:href="src/domain/valueObjects/VideoStorageDtoMapper.ts" xlink:title="VideoStorageDtoMapper.ts">
<path fill="#ddfeff" stroke="black" d="M1543.71,-536.27C1543.71,-536.27 1430.29,-536.27 1430.29,-536.27 1427.08,-536.27 1423.88,-533.06 1423.88,-529.85 1423.88,-529.85 1423.88,-523.43 1423.88,-523.43 1423.88,-520.23 1427.08,-517.02 1430.29,-517.02 1430.29,-517.02 1543.71,-517.02 1543.71,-517.02 1546.92,-517.02 1550.12,-520.23 1550.12,-523.43 1550.12,-523.43 1550.12,-529.85 1550.12,-529.85 1550.12,-533.06 1546.92,-536.27 1543.71,-536.27"/>
<text text-anchor="start" x="1431.88" y="-523.72" font-family="Helvetica,sans-Serif" font-size="9.00">VideoStorageDtoMapper.ts</text>
</a>
</g>
</g>
<!-- src/domain/valueObjects/VideoStorageDtoMapper.ts&#45;&gt;src/domain/entities/index.ts -->
<g id="edge31" class="edge">
<title>src/domain/valueObjects/VideoStorageDtoMapper.ts&#45;&gt;src/domain/entities/index.ts</title>
<path fill="none" stroke="#000000" stroke-opacity="0.200000" d="M1550.35,-517.4C1553.13,-515.75 1555.75,-513.84 1558.12,-511.64 1593.6,-478.86 1599.58,-417.57 1600.29,-387.78"/>
<polygon fill="none" stroke="#000000" stroke-opacity="0.200000" points="1602.38,-388.13 1600.35,-382.1 1598.18,-388.08 1602.38,-388.13"/>
</g>
<!-- src/domain/valueObjects/index.ts -->
<g id="node27" class="node">
<title>src/domain/valueObjects/index.ts</title>
<g id="a_node27"><a xlink:href="src/domain/valueObjects/index.ts" xlink:title="index.ts">
<path fill="#ddfeff" stroke="black" d="M1363.71,-474.27C1363.71,-474.27 1322.54,-474.27 1322.54,-474.27 1319.33,-474.27 1316.12,-471.06 1316.12,-467.85 1316.12,-467.85 1316.12,-461.43 1316.12,-461.43 1316.12,-458.23 1319.33,-455.02 1322.54,-455.02 1322.54,-455.02 1363.71,-455.02 1363.71,-455.02 1366.92,-455.02 1370.12,-458.23 1370.12,-461.43 1370.12,-461.43 1370.12,-467.85 1370.12,-467.85 1370.12,-471.06 1366.92,-474.27 1363.71,-474.27"/>
<text text-anchor="start" x="1327.38" y="-461.72" font-family="Helvetica,sans-Serif" font-size="9.00">index.ts</text>
</a>
</g>
</g>
<!-- src/domain/valueObjects/index.ts&#45;&gt;src/domain/valueObjects/ParsedVideoData.ts -->
<g id="edge32" class="edge">
<title>src/domain/valueObjects/index.ts&#45;&gt;src/domain/valueObjects/ParsedVideoData.ts</title>
<path fill="none" stroke="#000000" stroke-width="2" stroke-opacity="0.200000" d="M1370.48,-464.64C1389.23,-464.64 1414.97,-464.64 1437.4,-464.64"/>
<polygon fill="#000000" fill-opacity="0.200000" stroke="#000000" stroke-width="2" stroke-opacity="0.200000" points="1440.2,-463.25 1444.1,-471.35 1436,-467.45 1440.2,-463.25"/>
</g>
<!-- src/domain/valueObjects/index.ts&#45;&gt;src/domain/valueObjects/Thumbs.ts -->
<g id="edge33" class="edge">
<title>src/domain/valueObjects/index.ts&#45;&gt;src/domain/valueObjects/Thumbs.ts</title>
<path fill="none" stroke="#000000" stroke-opacity="0.200000" d="M1370.48,-470.4C1392.8,-475.28 1425.02,-482.32 1449.76,-487.72"/>
<polygon fill="none" stroke="#000000" stroke-opacity="0.200000" points="1449.07,-489.72 1455.38,-488.95 1449.96,-485.62 1449.07,-489.72"/>
</g>
<!-- src/domain/valueObjects/index.ts&#45;&gt;src/domain/valueObjects/VideoStorageDtoMapper.ts -->
<g id="edge34" class="edge">
<title>src/domain/valueObjects/index.ts&#45;&gt;src/domain/valueObjects/VideoStorageDtoMapper.ts</title>
<path fill="none" stroke="#000000" stroke-width="2" stroke-opacity="0.200000" d="M1358.16,-474.66C1373.59,-485.24 1399.45,-501.75 1438.06,-516.59"/>
<polygon fill="#000000" fill-opacity="0.200000" stroke="#000000" stroke-width="2" stroke-opacity="0.200000" points="1440.87,-515.2 1444.77,-523.3 1436.67,-519.4 1440.87,-515.2"/>
</g>
<!-- src/infrastructure/database/DatabaseConnection.ts -->
<g id="node28" class="node">
<title>src/infrastructure/database/DatabaseConnection.ts</title>
<g id="a_node28"><a xlink:href="src/infrastructure/database/DatabaseConnection.ts" xlink:title="DatabaseConnection.ts">
<path fill="#ddfeff" stroke="black" d="M1393.46,-161.27C1393.46,-161.27 1292.79,-161.27 1292.79,-161.27 1289.58,-161.27 1286.38,-158.06 1286.38,-154.85 1286.38,-154.85 1286.38,-148.43 1286.38,-148.43 1286.38,-145.23 1289.58,-142.02 1292.79,-142.02 1292.79,-142.02 1393.46,-142.02 1393.46,-142.02 1396.67,-142.02 1399.88,-145.23 1399.88,-148.43 1399.88,-148.43 1399.88,-154.85 1399.88,-154.85 1399.88,-158.06 1396.67,-161.27 1393.46,-161.27"/>
<text text-anchor="start" x="1294.38" y="-148.72" font-family="Helvetica,sans-Serif" font-size="9.00">DatabaseConnection.ts</text>
</a>
</g>
</g>
<!-- src/infrastructure/repository/MetadataRepository.ts -->
<g id="node29" class="node">
<title>src/infrastructure/repository/MetadataRepository.ts</title>
<g id="a_node29"><a xlink:href="src/infrastructure/repository/MetadataRepository.ts" xlink:title="MetadataRepository.ts">
<path fill="#ddfeff" stroke="black" d="M1255.96,-188.27C1255.96,-188.27 1161.29,-188.27 1161.29,-188.27 1158.08,-188.27 1154.88,-185.06 1154.88,-181.85 1154.88,-181.85 1154.88,-175.43 1154.88,-175.43 1154.88,-172.23 1158.08,-169.02 1161.29,-169.02 1161.29,-169.02 1255.96,-169.02 1255.96,-169.02 1259.17,-169.02 1262.38,-172.23 1262.38,-175.43 1262.38,-175.43 1262.38,-181.85 1262.38,-181.85 1262.38,-185.06 1259.17,-188.27 1255.96,-188.27"/>
<text text-anchor="start" x="1162.88" y="-175.72" font-family="Helvetica,sans-Serif" font-size="9.00">MetadataRepository.ts</text>
</a>
</g>
</g>
<!-- src/infrastructure/repository/MetadataRepository.ts&#45;&gt;src/domain/entities/index.ts -->
<g id="edge38" class="edge">
<title>src/infrastructure/repository/MetadataRepository.ts&#45;&gt;src/domain/entities/index.ts</title>
<path fill="none" stroke="#000000" stroke-opacity="0.200000" d="M1228.65,-188.67C1242.17,-195.36 1260.94,-203.79 1278.38,-208.64 1338.79,-225.46 1509.72,-205.77 1558.12,-245.64 1590.77,-272.54 1598.17,-325.72 1599.76,-353.24"/>
<polygon fill="none" stroke="#000000" stroke-opacity="0.200000" points="1597.66,-353.17 1600.02,-359.08 1601.85,-352.99 1597.66,-353.17"/>
</g>
<!-- src/infrastructure/repository/MetadataRepository.ts&#45;&gt;src/domain/constants/index.ts -->
<g id="edge37" class="edge">
<title>src/infrastructure/repository/MetadataRepository.ts&#45;&gt;src/domain/constants/index.ts</title>
<path fill="none" stroke="#000000" stroke-width="2" stroke-opacity="0.200000" d="M1224.77,-188.76C1237.17,-197.12 1255.08,-209.4 1270.38,-220.64 1288.48,-233.95 1308.61,-249.75 1322.93,-261.17"/>
<polygon fill="#000000" fill-opacity="0.200000" stroke="#000000" stroke-width="2" stroke-opacity="0.200000" points="1321.49,-262.71 1327.49,-264.82 1324.11,-259.43 1321.49,-262.71"/>
</g>
<!-- src/infrastructure/repository/MetadataRepository.ts&#45;&gt;src/domain/repositories/index.ts -->
<g id="edge36" class="edge">
<title>src/infrastructure/repository/MetadataRepository.ts&#45;&gt;src/domain/repositories/index.ts</title>
<path fill="none" stroke="#000000" stroke-opacity="0.200000" d="M1233.22,-188.67C1246.49,-195.61 1262.03,-206.22 1270.38,-220.64 1281.1,-239.17 1265.35,-299.65 1278.38,-316.64 1285.72,-326.23 1297.43,-331.83 1308.83,-335.09"/>
<polygon fill="none" stroke="#000000" stroke-opacity="0.200000" points="1308.04,-337.06 1314.37,-336.48 1309.05,-332.99 1308.04,-337.06"/>
</g>
<!-- src/infrastructure/repository/MetadataRepository.ts&#45;&gt;src/infrastructure/database/DatabaseConnection.ts -->
<g id="edge35" class="edge">
<title>src/infrastructure/repository/MetadataRepository.ts&#45;&gt;src/infrastructure/database/DatabaseConnection.ts</title>
<path fill="none" stroke="#000000" stroke-width="2" stroke-opacity="0.200000" d="M1258.96,-168.59C1267.15,-166.92 1275.72,-165.18 1284.1,-163.47"/>
<polygon fill="#000000" fill-opacity="0.200000" stroke="#000000" stroke-width="2" stroke-opacity="0.200000" points="1284.32,-165.57 1289.78,-162.31 1283.48,-161.45 1284.32,-165.57"/>
</g>
<!-- src/infrastructure/repository/VideoRepository.ts -->
<g id="node30" class="node">
<title>src/infrastructure/repository/VideoRepository.ts</title>
<g id="a_node30"><a xlink:href="src/infrastructure/repository/VideoRepository.ts" xlink:title="VideoRepository.ts">
<path fill="#ddfeff" stroke="black" d="M1248.83,-157.27C1248.83,-157.27 1168.42,-157.27 1168.42,-157.27 1165.21,-157.27 1162,-154.06 1162,-150.85 1162,-150.85 1162,-144.43 1162,-144.43 1162,-141.23 1165.21,-138.02 1168.42,-138.02 1168.42,-138.02 1248.83,-138.02 1248.83,-138.02 1252.04,-138.02 1255.25,-141.23 1255.25,-144.43 1255.25,-144.43 1255.25,-150.85 1255.25,-150.85 1255.25,-154.06 1252.04,-157.27 1248.83,-157.27"/>
<text text-anchor="start" x="1170" y="-144.72" font-family="Helvetica,sans-Serif" font-size="9.00">VideoRepository.ts</text>
</a>
</g>
</g>
<!-- src/infrastructure/repository/VideoRepository.ts&#45;&gt;src/domain/entities/index.ts -->
<g id="edge41" class="edge">
<title>src/infrastructure/repository/VideoRepository.ts&#45;&gt;src/domain/entities/index.ts</title>
<path fill="none" stroke="#000000" stroke-opacity="0.200000" d="M1255.55,-153.28C1261.04,-155.52 1266.17,-158.55 1270.38,-162.64 1279.96,-171.97 1268.09,-183.1 1278.38,-191.64 1326.35,-231.53 1510.24,-175.64 1558.12,-215.64 1579.4,-233.41 1592.97,-317.1 1597.96,-353.58"/>
<polygon fill="none" stroke="#000000" stroke-opacity="0.200000" points="1595.82,-353.43 1598.7,-359.1 1599.99,-352.88 1595.82,-353.43"/>
</g>
<!-- src/infrastructure/repository/VideoRepository.ts&#45;&gt;src/domain/constants/index.ts -->
<g id="edge40" class="edge">
<title>src/infrastructure/repository/VideoRepository.ts&#45;&gt;src/domain/constants/index.ts</title>
<path fill="none" stroke="#000000" stroke-width="2" stroke-opacity="0.200000" d="M1255.63,-152.78C1261.17,-155.09 1266.3,-158.27 1270.38,-162.64 1284.53,-177.82 1269.11,-190.07 1278.38,-208.64 1288.8,-229.55 1307.74,-248.5 1322.28,-261.06"/>
<polygon fill="#000000" fill-opacity="0.200000" stroke="#000000" stroke-width="2" stroke-opacity="0.200000" points="1320.74,-262.5 1326.69,-264.74 1323.43,-259.28 1320.74,-262.5"/>
</g>
<!-- src/infrastructure/repository/VideoRepository.ts&#45;&gt;src/domain/repositories/index.ts -->
<g id="edge42" class="edge">
<title>src/infrastructure/repository/VideoRepository.ts&#45;&gt;src/domain/repositories/index.ts</title>
<path fill="none" stroke="#000000" stroke-opacity="0.200000" d="M1255.53,-152.09C1261.23,-154.48 1266.43,-157.87 1270.38,-162.64 1292.2,-189.07 1257.96,-289.12 1278.38,-316.64 1285.57,-326.35 1297.25,-331.97 1308.66,-335.22"/>
<polygon fill="none" stroke="#000000" stroke-opacity="0.200000" points="1307.89,-337.19 1314.22,-336.59 1308.9,-333.11 1307.89,-337.19"/>
</g>
<!-- src/infrastructure/repository/VideoRepository.ts&#45;&gt;src/infrastructure/database/DatabaseConnection.ts -->
<g id="edge39" class="edge">
<title>src/infrastructure/repository/VideoRepository.ts&#45;&gt;src/infrastructure/database/DatabaseConnection.ts</title>
<path fill="none" stroke="#000000" stroke-width="2" stroke-opacity="0.200000" d="M1255.6,-149.03C1262.69,-149.24 1270.12,-149.47 1277.53,-149.69"/>
<polygon fill="#000000" fill-opacity="0.200000" stroke="#000000" stroke-width="2" stroke-opacity="0.200000" points="1277.1,-151.78 1283.16,-149.86 1277.23,-147.58 1277.1,-151.78"/>
</g>
<!-- src/infrastructure/repository/index.ts -->
<g id="node31" class="node">
<title>src/infrastructure/repository/index.ts</title>
<g id="a_node31"><a xlink:href="src/infrastructure/repository/index.ts" xlink:title="index.ts">
<path fill="#ddfeff" stroke="black" d="M1101.58,-188.27C1101.58,-188.27 1060.42,-188.27 1060.42,-188.27 1057.21,-188.27 1054,-185.06 1054,-181.85 1054,-181.85 1054,-175.43 1054,-175.43 1054,-172.23 1057.21,-169.02 1060.42,-169.02 1060.42,-169.02 1101.58,-169.02 1101.58,-169.02 1104.79,-169.02 1108,-172.23 1108,-175.43 1108,-175.43 1108,-181.85 1108,-181.85 1108,-185.06 1104.79,-188.27 1101.58,-188.27"/>
<text text-anchor="start" x="1065.25" y="-175.72" font-family="Helvetica,sans-Serif" font-size="9.00">index.ts</text>
</a>
</g>
</g>
<!-- src/infrastructure/repository/index.ts&#45;&gt;src/infrastructure/repository/MetadataRepository.ts -->
<g id="edge43" class="edge">
<title>src/infrastructure/repository/index.ts&#45;&gt;src/infrastructure/repository/MetadataRepository.ts</title>
<path fill="none" stroke="#000000" stroke-width="2" stroke-opacity="0.200000" d="M1108.34,-178.64C1121.72,-178.64 1138.48,-178.64 1154.4,-178.64"/>
<polygon fill="#000000" fill-opacity="0.200000" stroke="#000000" stroke-width="2" stroke-opacity="0.200000" points="1157.21,-177.25 1161.11,-185.35 1153.01,-181.45 1157.21,-177.25"/>
</g>
<!-- src/infrastructure/repository/index.ts&#45;&gt;src/infrastructure/repository/VideoRepository.ts -->
<g id="edge44" class="edge">
<title>src/infrastructure/repository/index.ts&#45;&gt;src/infrastructure/repository/VideoRepository.ts</title>
<path fill="none" stroke="#000000" stroke-width="2" stroke-opacity="0.200000" d="M1108.34,-172.14C1125.31,-167.95 1147.74,-162.42 1166.98,-157.67"/>
<polygon fill="#000000" fill-opacity="0.200000" stroke="#000000" stroke-width="2" stroke-opacity="0.200000" points="1169.78,-156.28 1173.68,-164.38 1165.58,-160.48 1169.78,-156.28"/>
</g>
<!-- src/infrastructure/services/VideoMetadataFacade.ts&#45;&gt;src/domain/entities/index.ts -->
<g id="edge45" class="edge">
<title>src/infrastructure/services/VideoMetadataFacade.ts&#45;&gt;src/domain/entities/index.ts</title>
<path fill="none" stroke="#000000" stroke-opacity="0.200000" d="M963.67,-188.62C977.96,-198.1 1001,-211.9 1023.12,-218.64 1190.84,-269.75 1246.23,-211.35 1415.88,-255.64 1482.78,-273.11 1503.25,-276.57 1558.12,-318.64 1571.06,-328.56 1582.44,-343.25 1590.08,-354.48"/>
<polygon fill="none" stroke="#000000" stroke-opacity="0.200000" points="1588.25,-355.52 1593.3,-359.37 1591.76,-353.21 1588.25,-355.52"/>
</g>
<!-- src/infrastructure/services/VideoMetadataFacade.ts&#45;&gt;src/domain/repositories/index.ts -->
<g id="edge46" class="edge">
<title>src/infrastructure/services/VideoMetadataFacade.ts&#45;&gt;src/domain/repositories/index.ts</title>
<path fill="none" stroke="#000000" stroke-opacity="0.200000" d="M956.13,-188.72C967.69,-205.46 993.16,-238.91 1023.12,-256.64 1116.87,-312.13 1247.58,-330.99 1308.45,-337.01"/>
<polygon fill="none" stroke="#000000" stroke-opacity="0.200000" points="1308.19,-339.1 1314.36,-337.58 1308.59,-334.92 1308.19,-339.1"/>
</g>
<!-- src/infrastructure/services/VideoMetadataFacade.ts&#45;&gt;src/domain/valueObjects/index.ts -->
<g id="edge47" class="edge">
<title>src/infrastructure/services/VideoMetadataFacade.ts&#45;&gt;src/domain/valueObjects/index.ts</title>
<path fill="none" stroke="#000000" stroke-width="2" stroke-opacity="0.200000" d="M954.64,-188.72C965.28,-208.83 991.38,-254.62 1023.12,-284.64 1119.89,-376.16 1158.38,-383.85 1278.38,-441.64 1287.64,-446.11 1298.01,-450.2 1307.65,-453.66"/>
<polygon fill="#000000" fill-opacity="0.200000" stroke="#000000" stroke-width="2" stroke-opacity="0.200000" points="1306.67,-455.54 1313.03,-455.54 1308.05,-451.58 1306.67,-455.54"/>
</g>
<!-- src/infrastructure/services/VideoMetadataFacade.ts&#45;&gt;src/infrastructure/repository/index.ts -->
<g id="edge48" class="edge">
<title>src/infrastructure/services/VideoMetadataFacade.ts&#45;&gt;src/infrastructure/repository/index.ts</title>
<path fill="none" stroke="#000000" stroke-width="2" stroke-opacity="0.200000" d="M1007.5,-178.64C1020.18,-178.64 1033.22,-178.64 1044.69,-178.64"/>
<polygon fill="#000000" fill-opacity="0.200000" stroke="#000000" stroke-width="2" stroke-opacity="0.200000" points="1044.49,-180.74 1050.49,-178.64 1044.49,-176.54 1044.49,-180.74"/>
</g>
<!-- src/infrastructure/video/VideoFileParser.ts&#45;&gt;src/domain/entities/index.ts -->
<g id="edge51" class="edge">
<title>src/infrastructure/video/VideoFileParser.ts&#45;&gt;src/domain/entities/index.ts</title>
<path fill="none" stroke="#000000" stroke-opacity="0.200000" d="M962.46,-94.64C977.94,-107.41 1003.22,-131.04 1015.12,-157.64 1028.45,-187.44 1011.04,-200.33 1023.12,-230.64 1092.58,-404.84 1110.38,-483.29 1278.38,-566.64 1306.22,-580.46 1533.95,-586.18 1558.12,-566.64 1585.9,-544.19 1596.13,-431.77 1599.1,-388.07"/>
<polygon fill="none" stroke="#000000" stroke-opacity="0.200000" points="1601.19,-388.37 1599.48,-382.25 1596.99,-388.1 1601.19,-388.37"/>
</g>
<!-- src/infrastructure/video/VideoFileParser.ts&#45;&gt;src/domain/valueObjects/index.ts -->
<g id="edge52" class="edge">
<title>src/infrastructure/video/VideoFileParser.ts&#45;&gt;src/domain/valueObjects/index.ts</title>
<path fill="none" stroke="#000000" stroke-width="2" stroke-opacity="0.200000" d="M962.37,-94.69C977.75,-107.49 1002.94,-131.17 1015.12,-157.64 1020.84,-170.06 1013.45,-208.98 1023.12,-218.64 1062.38,-257.82 1098.17,-208.12 1146.88,-234.64 1221.52,-275.29 1236.01,-302.91 1270.38,-380.64 1281.43,-405.65 1261.24,-420.34 1278.38,-441.64 1285.53,-450.54 1296.43,-456 1307.19,-459.34"/>
<polygon fill="#000000" fill-opacity="0.200000" stroke="#000000" stroke-width="2" stroke-opacity="0.200000" points="1306.46,-461.32 1312.8,-460.83 1307.54,-457.26 1306.46,-461.32"/>
</g>
<!-- src/infrastructure/video/VideoFileParser.ts&#45;&gt;src/infrastructure/video/HTMLVideoProcessor.ts -->
<g id="edge50" class="edge">
<title>src/infrastructure/video/VideoFileParser.ts&#45;&gt;src/infrastructure/video/HTMLVideoProcessor.ts</title>
<path fill="none" stroke="#000000" stroke-width="2" stroke-opacity="0.200000" d="M994.78,-82.21C1001.05,-81.88 1007.6,-81.53 1014.16,-81.17"/>
<polygon fill="#000000" fill-opacity="0.200000" stroke="#000000" stroke-width="2" stroke-opacity="0.200000" points="1014.18,-83.28 1020.06,-80.86 1013.95,-79.08 1014.18,-83.28"/>
</g>
<!-- src/main.ts -->
<g id="node35" class="node">
<title>src/main.ts</title>
<g id="a_node35"><a xlink:href="src/main.ts" xlink:title="main.ts">
<path fill="#ddfeff" stroke="black" d="M63.58,-124.27C63.58,-124.27 22.42,-124.27 22.42,-124.27 19.21,-124.27 16,-121.06 16,-117.85 16,-117.85 16,-111.43 16,-111.43 16,-108.23 19.21,-105.02 22.42,-105.02 22.42,-105.02 63.58,-105.02 63.58,-105.02 66.79,-105.02 70,-108.23 70,-111.43 70,-111.43 70,-117.85 70,-117.85 70,-121.06 66.79,-124.27 63.58,-124.27"/>
<text text-anchor="start" x="27.62" y="-111.72" font-family="Helvetica,sans-Serif" font-size="9.00">main.ts</text>
</a>
</g>
</g>
<!-- src/main.ts&#45;&gt;src/App.vue -->
<g id="edge55" class="edge">
<title>src/main.ts&#45;&gt;src/App.vue</title>
<path fill="none" stroke="#000000" stroke-width="2" stroke-opacity="0.200000" d="M70.44,-114.64C71.58,-114.64 72.74,-114.64 73.9,-114.64"/>
<polygon fill="#000000" fill-opacity="0.200000" stroke="#000000" stroke-width="2" stroke-opacity="0.200000" points="73.77,-116.74 79.77,-114.64 73.77,-112.54 73.77,-116.74"/>
</g>
<!-- src/presentation/components/VideoCard.vue&#45;&gt;src/domain/entities/index.ts -->
<g id="edge58" class="edge">
<title>src/presentation/components/VideoCard.vue&#45;&gt;src/domain/entities/index.ts</title>
<path fill="none" stroke="#000000" stroke-opacity="0.200000" d="M367.32,-56.76C377.56,-59.19 388.77,-61.43 399.25,-62.64 444.23,-67.86 455.87,-64.01 501.12,-62.64 699.79,-56.64 748.75,-35.64 947.5,-35.64 947.5,-35.64 947.5,-35.64 1344.12,-35.64 1463.15,-35.64 1492.77,-97.17 1558.12,-196.64 1591.14,-246.89 1598.24,-320.58 1599.74,-353.57"/>
<polygon fill="none" stroke="#000000" stroke-opacity="0.200000" points="1597.63,-353.26 1599.95,-359.18 1601.83,-353.1 1597.63,-353.26"/>
</g>
<!-- src/presentation/components/VideoCard.vue&#45;&gt;src/application/stores/index.ts -->
<g id="edge57" class="edge">
<title>src/presentation/components/VideoCard.vue&#45;&gt;src/application/stores/index.ts</title>
<path fill="none" stroke="#000000" stroke-width="2" stroke-opacity="0.200000" d="M368.65,-48.51C377.28,-50.77 385.58,-54.77 391.25,-61.64 401.94,-74.61 393.65,-196.8 399.25,-212.64 404.76,-228.22 415.86,-243.25 425.27,-254.11"/>
<polygon fill="#000000" fill-opacity="0.200000" stroke="#000000" stroke-width="2" stroke-opacity="0.200000" points="423.53,-255.31 429.11,-258.36 426.65,-252.5 423.53,-255.31"/>
</g>
<!-- src/presentation/components/VideoEmbed.vue -->
<g id="node37" class="node">
<title>src/presentation/components/VideoEmbed.vue</title>
<g id="a_node37"><a xlink:href="src/presentation/components/VideoEmbed.vue" xlink:title="VideoEmbed.vue">
<path fill="#41f083" stroke="black" d="M478.71,-56.27C478.71,-56.27 405.79,-56.27 405.79,-56.27 402.58,-56.27 399.38,-53.06 399.38,-49.85 399.38,-49.85 399.38,-43.43 399.38,-43.43 399.38,-40.23 402.58,-37.02 405.79,-37.02 405.79,-37.02 478.71,-37.02 478.71,-37.02 481.92,-37.02 485.12,-40.23 485.12,-43.43 485.12,-43.43 485.12,-49.85 485.12,-49.85 485.12,-53.06 481.92,-56.27 478.71,-56.27"/>
<text text-anchor="start" x="407.38" y="-43.72" font-family="Helvetica,sans-Serif" font-size="9.00">VideoEmbed.vue</text>
</a>
</g>
</g>
<!-- src/presentation/components/VideoCard.vue&#45;&gt;src/presentation/components/VideoEmbed.vue -->
<g id="edge56" class="edge">
<title>src/presentation/components/VideoCard.vue&#45;&gt;src/presentation/components/VideoEmbed.vue</title>
<path fill="none" stroke="#000000" stroke-width="2" stroke-opacity="0.200000" d="M368.49,-46.64C375.57,-46.64 383.09,-46.64 390.5,-46.64"/>
<polygon fill="#000000" fill-opacity="0.200000" stroke="#000000" stroke-width="2" stroke-opacity="0.200000" points="390.1,-48.74 396.1,-46.64 390.1,-44.54 390.1,-48.74"/>
</g>
<!-- src/presentation/components/VideoEmbed.vue&#45;&gt;src/domain/entities/index.ts -->
<g id="edge59" class="edge">
<title>src/presentation/components/VideoEmbed.vue&#45;&gt;src/domain/entities/index.ts</title>
<path fill="none" stroke="#000000" stroke-opacity="0.200000" d="M485.61,-38.25C525.99,-30.99 588.58,-21.64 643.38,-21.64 643.38,-21.64 643.38,-21.64 1344.12,-21.64 1439.34,-21.64 1488.27,33.06 1558.12,-31.64 1582.01,-53.76 1595.82,-287.33 1599.27,-353.35"/>
<polygon fill="none" stroke="#000000" stroke-opacity="0.200000" points="1597.15,-353.15 1599.56,-359.03 1601.35,-352.93 1597.15,-353.15"/>
</g>
<!-- src/presentation/components/inputs/FileInput.vue&#45;&gt;src/application/stores/index.ts -->
<g id="edge60" class="edge">
<title>src/presentation/components/inputs/FileInput.vue&#45;&gt;src/application/stores/index.ts</title>
<path fill="none" stroke="#000000" stroke-width="2" stroke-opacity="0.200000" d="M339.88,-155.45C358.66,-176.8 403.42,-227.66 426.67,-254.07"/>
<polygon fill="#000000" fill-opacity="0.200000" stroke="#000000" stroke-width="2" stroke-opacity="0.200000" points="424.81,-255.14 430.35,-258.26 427.97,-252.37 424.81,-255.14"/>
</g>
</g>
</svg>
