<?xml version="1.0" encoding="UTF-8" standalone="no"?>
<!DOCTYPE svg PUBLIC "-//W3C//DTD SVG 1.1//EN"
 "http://www.w3.org/Graphics/SVG/1.1/DTD/svg11.dtd">
<!-- Generated by graphviz version 9.0.0 (20230911.1827)
 -->
<!-- Title: dependency&#45;cruiser output Pages: 1 -->
<svg width="859pt" height="380pt"
 viewBox="0.00 0.00 859.12 380.00" xmlns="http://www.w3.org/2000/svg" xmlns:xlink="http://www.w3.org/1999/xlink">
<g id="graph0" class="graph" transform="scale(1 1) rotate(0) translate(4 376)">
<title>dependency&#45;cruiser output</title>
<polygon fill="white" stroke="none" points="-4,4 -4,-376 855.12,-376 855.12,4 -4,4"/>
<g id="clust1" class="cluster">
<title>cluster_src</title>
<path fill="#ffffff" stroke="black" stroke-width="2" d="M20,-8C20,-8 831.12,-8 831.12,-8 837.12,-8 843.12,-14 843.12,-20 843.12,-20 843.12,-352 843.12,-352 843.12,-358 837.12,-364 831.12,-364 831.12,-364 20,-364 20,-364 14,-364 8,-358 8,-352 8,-352 8,-20 8,-20 8,-14 14,-8 20,-8"/>
<text text-anchor="middle" x="425.56" y="-351.45" font-family="Helvetica,sans-Serif" font-weight="bold" font-size="9.00">src</text>
</g>
<g id="clust2" class="cluster">
<title>cluster_src/application</title>
<path fill="#ffffff" stroke="black" stroke-width="2" d="M382.75,-26C382.75,-26 598.38,-26 598.38,-26 604.38,-26 610.38,-32 610.38,-38 610.38,-38 610.38,-100 610.38,-100 610.38,-106 604.38,-112 598.38,-112 598.38,-112 382.75,-112 382.75,-112 376.75,-112 370.75,-106 370.75,-100 370.75,-100 370.75,-38 370.75,-38 370.75,-32 376.75,-26 382.75,-26"/>
<text text-anchor="middle" x="490.56" y="-99.45" font-family="Helvetica,sans-Serif" font-weight="bold" font-size="9.00">application</text>
</g>
<g id="clust3" class="cluster">
<title>cluster_src/domain</title>
<path fill="#ffffff" stroke="black" stroke-width="2" d="M694.88,-220C694.88,-220 823.12,-220 823.12,-220 829.12,-220 835.12,-226 835.12,-232 835.12,-232 835.12,-325 835.12,-325 835.12,-331 829.12,-337 823.12,-337 823.12,-337 694.88,-337 694.88,-337 688.88,-337 682.88,-331 682.88,-325 682.88,-325 682.88,-232 682.88,-232 682.88,-226 688.88,-220 694.88,-220"/>
<text text-anchor="middle" x="759" y="-324.45" font-family="Helvetica,sans-Serif" font-weight="bold" font-size="9.00">domain</text>
</g>
<g id="clust4" class="cluster">
<title>cluster_src/infrastructure</title>
<path fill="#ffffff" stroke="black" stroke-width="2" d="M483.75,-126C483.75,-126 749,-126 749,-126 755,-126 761,-132 761,-138 761,-138 761,-200 761,-200 761,-206 755,-212 749,-212 749,-212 483.75,-212 483.75,-212 477.75,-212 471.75,-206 471.75,-200 471.75,-200 471.75,-138 471.75,-138 471.75,-132 477.75,-126 483.75,-126"/>
<text text-anchor="middle" x="616.38" y="-199.45" font-family="Helvetica,sans-Serif" font-weight="bold" font-size="9.00">infrastructure</text>
</g>
<g id="clust5" class="cluster">
<title>cluster_src/presentation</title>
<path fill="#ffffff" stroke="black" stroke-width="2" d="M157,-57C157,-57 350.75,-57 350.75,-57 356.75,-57 362.75,-63 362.75,-69 362.75,-69 362.75,-114 362.75,-114 362.75,-120 356.75,-126 350.75,-126 350.75,-126 157,-126 157,-126 151,-126 145,-120 145,-114 145,-114 145,-69 145,-69 145,-63 151,-57 157,-57"/>
<text text-anchor="middle" x="253.88" y="-113.45" font-family="Helvetica,sans-Serif" font-weight="bold" font-size="9.00">presentation</text>
</g>
<!-- src/App.vue -->
<g id="node1" class="node">
<title>src/App.vue</title>
<g id="a_node1"><a xlink:href="src/App.vue" xlink:title="App.vue">
<path fill="#41f083" stroke="black" d="M130.58,-86.62C130.58,-86.62 89.42,-86.62 89.42,-86.62 86.21,-86.62 83,-83.42 83,-80.21 83,-80.21 83,-73.79 83,-73.79 83,-70.58 86.21,-67.38 89.42,-67.38 89.42,-67.38 130.58,-67.38 130.58,-67.38 133.79,-67.38 137,-70.58 137,-73.79 137,-73.79 137,-80.21 137,-80.21 137,-83.42 133.79,-86.62 130.58,-86.62"/>
<text text-anchor="start" x="93.88" y="-74.08" font-family="Helvetica,sans-Serif" font-size="9.00">App.vue</text>
</a>
</g>
</g>
<!-- src/presentation/components -->
<g id="node2" class="node">
<title>src/presentation/components</title>
<g id="a_node2"><a xlink:href="src/presentation/components" xlink:title="components">
<polygon fill="#ffffcc" stroke="black" points="287.75,-98.62 222.14,-98.62 220,-96.49 220,-79.38 285.61,-79.38 287.75,-81.51 287.75,-98.62"/>
<polyline fill="none" stroke="black" points="285.61,-96.49 220,-96.49"/>
<polyline fill="none" stroke="black" points="285.61,-96.49 285.61,-79.38"/>
<polyline fill="none" stroke="black" points="285.61,-96.49 287.75,-98.62"/>
<text text-anchor="start" x="228" y="-86.08" font-family="Helvetica,sans-Serif" font-size="9.00">components</text>
</a>
</g>
</g>
<!-- src/App.vue&#45;&gt;src/presentation/components -->
<g id="edge1" class="edge">
<title>src/App.vue&#45;&gt;src/presentation/components</title>
<path fill="none" stroke="#000000" stroke-width="2" stroke-opacity="0.200000" d="M137.26,-72.97C156.66,-70.71 183.65,-69.04 207,-73 211.46,-73.76 216.06,-74.9 220.56,-76.23"/>
<polygon fill="#000000" fill-opacity="0.200000" stroke="#000000" stroke-width="2" stroke-opacity="0.200000" points="219.76,-78.18 226.11,-78.04 221.06,-74.18 219.76,-78.18"/>
</g>
<!-- src/presentation/views -->
<g id="node3" class="node">
<title>src/presentation/views</title>
<g id="a_node3"><a xlink:href="src/presentation/views" xlink:title="views">
<polygon fill="#ffffcc" stroke="black" points="207,-98.62 155.14,-98.62 153,-96.49 153,-79.38 204.86,-79.38 207,-81.51 207,-98.62"/>
<polyline fill="none" stroke="black" points="204.86,-96.49 153,-96.49"/>
<polyline fill="none" stroke="black" points="204.86,-96.49 204.86,-79.38"/>
<polyline fill="none" stroke="black" points="204.86,-96.49 207,-98.62"/>
<text text-anchor="start" x="168.38" y="-86.08" font-family="Helvetica,sans-Serif" font-size="9.00">views</text>
</a>
</g>
</g>
<!-- src/App.vue&#45;&gt;src/presentation/views -->
<g id="edge2" class="edge">
<title>src/App.vue&#45;&gt;src/presentation/views</title>
<path fill="none" stroke="#000000" stroke-width="2" stroke-opacity="0.200000" d="M137.49,-81.67C139.7,-82.07 141.97,-82.46 144.24,-82.87"/>
<polygon fill="#000000" fill-opacity="0.200000" stroke="#000000" stroke-width="2" stroke-opacity="0.200000" points="143.67,-84.9 149.94,-83.87 144.4,-80.76 143.67,-84.9"/>
</g>
<!-- src/domain/entities -->
<g id="node8" class="node">
<title>src/domain/entities</title>
<g id="a_node8"><a xlink:href="src/domain/entities" xlink:title="entities">
<polygon fill="#ffffcc" stroke="black" points="827.12,-247.62 775.26,-247.62 773.12,-245.49 773.12,-228.38 824.99,-228.38 827.12,-230.51 827.12,-247.62"/>
<polyline fill="none" stroke="black" points="824.99,-245.49 773.12,-245.49"/>
<polyline fill="none" stroke="black" points="824.99,-245.49 824.99,-228.38"/>
<polyline fill="none" stroke="black" points="824.99,-245.49 827.12,-247.62"/>
<text text-anchor="start" x="785.12" y="-235.07" font-family="Helvetica,sans-Serif" font-size="9.00">entities</text>
</a>
</g>
</g>
<!-- src/presentation/components&#45;&gt;src/domain/entities -->
<g id="edge31" class="edge">
<title>src/presentation/components&#45;&gt;src/domain/entities</title>
<path fill="none" stroke="#000000" stroke-opacity="0.200000" d="M256.76,-99.05C265.78,-143.84 308.82,-323 420.25,-323 420.25,-323 420.25,-323 647.62,-323 698.11,-323 719.02,-344.04 761,-316 781.73,-302.15 791.59,-273.65 795.97,-255.2"/>
<polygon fill="none" stroke="#000000" stroke-opacity="0.200000" points="797.99,-255.77 797.21,-249.46 793.89,-254.88 797.99,-255.77"/>
</g>
<!-- src/infrastructure/services -->
<g id="node10" class="node">
<title>src/infrastructure/services</title>
<g id="a_node10"><a xlink:href="src/infrastructure/services" xlink:title="services">
<polygon fill="#ffffcc" stroke="black" points="602.38,-184.62 550.51,-184.62 548.38,-182.49 548.38,-165.38 600.24,-165.38 602.38,-167.51 602.38,-184.62"/>
<polyline fill="none" stroke="black" points="600.24,-182.49 548.38,-182.49"/>
<polyline fill="none" stroke="black" points="600.24,-182.49 600.24,-165.38"/>
<polyline fill="none" stroke="black" points="600.24,-182.49 602.38,-184.62"/>
<text text-anchor="start" x="558.12" y="-172.07" font-family="Helvetica,sans-Serif" font-size="9.00">services</text>
</a>
</g>
</g>
<!-- src/presentation/components&#45;&gt;src/infrastructure/services -->
<g id="edge29" class="edge">
<title>src/presentation/components&#45;&gt;src/infrastructure/services</title>
<path fill="none" stroke="#000000" stroke-width="2" stroke-opacity="0.200000" d="M280.84,-99.11C321.11,-114.42 401.36,-143.46 471.75,-160 493.94,-165.21 519.29,-168.94 539.23,-171.37"/>
<polygon fill="#000000" fill-opacity="0.200000" stroke="#000000" stroke-width="2" stroke-opacity="0.200000" points="538.78,-173.43 544.98,-172.05 539.27,-169.26 538.78,-173.43"/>
</g>
<!-- src/presentation/stores -->
<g id="node18" class="node">
<title>src/presentation/stores</title>
<g id="a_node18"><a xlink:href="src/presentation/stores" xlink:title="stores">
<polygon fill="#ffffcc" stroke="black" points="354.75,-84.62 302.89,-84.62 300.75,-82.49 300.75,-65.38 352.61,-65.38 354.75,-67.51 354.75,-84.62"/>
<polyline fill="none" stroke="black" points="352.61,-82.49 300.75,-82.49"/>
<polyline fill="none" stroke="black" points="352.61,-82.49 352.61,-65.38"/>
<polyline fill="none" stroke="black" points="352.61,-82.49 354.75,-84.62"/>
<text text-anchor="start" x="314.62" y="-72.08" font-family="Helvetica,sans-Serif" font-size="9.00">stores</text>
</a>
</g>
</g>
<!-- src/presentation/components&#45;&gt;src/presentation/stores -->
<g id="edge30" class="edge">
<title>src/presentation/components&#45;&gt;src/presentation/stores</title>
<path fill="none" stroke="#000000" stroke-width="2" stroke-opacity="0.200000" d="M287.87,-82.57C289.21,-82.31 290.55,-82.05 291.89,-81.79"/>
<polygon fill="#000000" fill-opacity="0.200000" stroke="#000000" stroke-width="2" stroke-opacity="0.200000" points="292.17,-83.87 297.66,-80.67 291.37,-79.75 292.17,-83.87"/>
</g>
<!-- src/presentation/views&#45;&gt;src/presentation/components -->
<g id="edge35" class="edge">
<title>src/presentation/views&#45;&gt;src/presentation/components</title>
<path fill="none" stroke="#000000" stroke-width="2" stroke-opacity="0.200000" d="M207.36,-89C208.48,-89 209.62,-89 210.77,-89"/>
<polygon fill="#000000" fill-opacity="0.200000" stroke="#000000" stroke-width="2" stroke-opacity="0.200000" points="210.64,-91.1 216.64,-89 210.64,-86.9 210.64,-91.1"/>
</g>
<!-- src/presentation/views&#45;&gt;src/presentation/stores -->
<g id="edge36" class="edge">
<title>src/presentation/views&#45;&gt;src/presentation/stores</title>
<path fill="none" stroke="#000000" stroke-width="2" stroke-opacity="0.200000" d="M201.18,-78.98C207.1,-76.53 213.68,-74.25 220,-73 243.6,-68.35 270.71,-68.93 291.71,-70.63"/>
<polygon fill="#000000" fill-opacity="0.200000" stroke="#000000" stroke-width="2" stroke-opacity="0.200000" points="291.41,-72.71 297.58,-71.17 291.8,-68.53 291.41,-72.71"/>
</g>
<!-- src/application/dependencies.ts -->
<g id="node4" class="node">
<title>src/application/dependencies.ts</title>
<g id="a_node4"><a xlink:href="src/application/dependencies.ts" xlink:title="dependencies.ts">
<path fill="#ddfeff" stroke="black" d="M457.33,-84.62C457.33,-84.62 385.17,-84.62 385.17,-84.62 381.96,-84.62 378.75,-81.42 378.75,-78.21 378.75,-78.21 378.75,-71.79 378.75,-71.79 378.75,-68.58 381.96,-65.38 385.17,-65.38 385.17,-65.38 457.33,-65.38 457.33,-65.38 460.54,-65.38 463.75,-68.58 463.75,-71.79 463.75,-71.79 463.75,-78.21 463.75,-78.21 463.75,-81.42 460.54,-84.62 457.33,-84.62"/>
<text text-anchor="start" x="386.75" y="-72.08" font-family="Helvetica,sans-Serif" font-size="9.00">dependencies.ts</text>
</a>
</g>
</g>
<!-- src/application/usecases -->
<g id="node5" class="node">
<title>src/application/usecases</title>
<g id="a_node5"><a xlink:href="src/application/usecases" xlink:title="usecases">
<polygon fill="#ffffcc" stroke="black" points="535.38,-53.62 480.26,-53.62 478.12,-51.49 478.12,-34.38 533.24,-34.38 535.38,-36.51 535.38,-53.62"/>
<polyline fill="none" stroke="black" points="533.24,-51.49 478.12,-51.49"/>
<polyline fill="none" stroke="black" points="533.24,-51.49 533.24,-34.38"/>
<polyline fill="none" stroke="black" points="533.24,-51.49 535.38,-53.62"/>
<text text-anchor="start" x="486.12" y="-41.08" font-family="Helvetica,sans-Serif" font-size="9.00">usecases</text>
</a>
</g>
</g>
<!-- src/application/dependencies.ts&#45;&gt;src/application/usecases -->
<g id="edge3" class="edge">
<title>src/application/dependencies.ts&#45;&gt;src/application/usecases</title>
<path fill="none" stroke="#000000" stroke-width="2" stroke-opacity="0.200000" d="M449.13,-65.02C455.91,-62.5 463.3,-59.76 470.43,-57.11"/>
<polygon fill="#000000" fill-opacity="0.200000" stroke="#000000" stroke-width="2" stroke-opacity="0.200000" points="470.9,-59.18 475.8,-55.12 469.44,-55.24 470.9,-59.18"/>
</g>
<!-- src/infrastructure/adapters -->
<g id="node6" class="node">
<title>src/infrastructure/adapters</title>
<g id="a_node6"><a xlink:href="src/infrastructure/adapters" xlink:title="adapters">
<polygon fill="#ffffcc" stroke="black" points="533.75,-153.62 481.89,-153.62 479.75,-151.49 479.75,-134.38 531.61,-134.38 533.75,-136.51 533.75,-153.62"/>
<polyline fill="none" stroke="black" points="531.61,-151.49 479.75,-151.49"/>
<polyline fill="none" stroke="black" points="531.61,-151.49 531.61,-134.38"/>
<polyline fill="none" stroke="black" points="531.61,-151.49 533.75,-153.62"/>
<text text-anchor="start" x="488.38" y="-141.07" font-family="Helvetica,sans-Serif" font-size="9.00">adapters</text>
</a>
</g>
</g>
<!-- src/application/dependencies.ts&#45;&gt;src/infrastructure/adapters -->
<g id="edge4" class="edge">
<title>src/application/dependencies.ts&#45;&gt;src/infrastructure/adapters</title>
<path fill="none" stroke="#000000" stroke-width="2" stroke-opacity="0.200000" d="M434.21,-84.89C447.9,-96.2 470.5,-114.87 486.63,-128.2"/>
<polygon fill="#000000" fill-opacity="0.200000" stroke="#000000" stroke-width="2" stroke-opacity="0.200000" points="485.24,-129.78 491.2,-131.98 487.92,-126.54 485.24,-129.78"/>
</g>
<!-- src/application/ports -->
<g id="node7" class="node">
<title>src/application/ports</title>
<g id="a_node7"><a xlink:href="src/application/ports" xlink:title="ports">
<polygon fill="#ffffcc" stroke="black" points="602.38,-84.62 550.51,-84.62 548.38,-82.49 548.38,-65.38 600.24,-65.38 602.38,-67.51 602.38,-84.62"/>
<polyline fill="none" stroke="black" points="600.24,-82.49 548.38,-82.49"/>
<polyline fill="none" stroke="black" points="600.24,-82.49 600.24,-65.38"/>
<polyline fill="none" stroke="black" points="600.24,-82.49 602.38,-84.62"/>
<text text-anchor="start" x="564.88" y="-72.08" font-family="Helvetica,sans-Serif" font-size="9.00">ports</text>
</a>
</g>
</g>
<!-- src/application/usecases&#45;&gt;src/application/ports -->
<g id="edge10" class="edge">
<title>src/application/usecases&#45;&gt;src/application/ports</title>
<path fill="none" stroke="#000000" stroke-opacity="0.200000" d="M529.2,-53.98C534.67,-56.52 540.62,-59.3 546.37,-61.97"/>
<polygon fill="none" stroke="#000000" stroke-opacity="0.200000" points="545.27,-63.77 551.6,-64.4 547.04,-59.97 545.27,-63.77"/>
</g>
<!-- src/application/usecases&#45;&gt;src/domain/entities -->
<g id="edge11" class="edge">
<title>src/application/usecases&#45;&gt;src/domain/entities</title>
<path fill="none" stroke="#000000" stroke-opacity="0.200000" d="M535.72,-40.6C594.4,-34.12 727.66,-22.99 761,-51 786.86,-72.72 795.71,-178.43 798.24,-220.59"/>
<polygon fill="none" stroke="#000000" stroke-opacity="0.200000" points="796.14,-220.53 798.57,-226.4 800.33,-220.29 796.14,-220.53"/>
</g>
<!-- src/infrastructure/adapters&#45;&gt;src/application/ports -->
<g id="edge14" class="edge">
<title>src/infrastructure/adapters&#45;&gt;src/application/ports</title>
<path fill="none" stroke="#000000" stroke-opacity="0.200000" d="M517.3,-134.11C528.38,-122.64 546.78,-103.58 559.69,-90.21"/>
<polygon fill="none" stroke="#000000" stroke-opacity="0.200000" points="561.14,-91.73 563.8,-85.96 558.12,-88.81 561.14,-91.73"/>
</g>
<!-- src/infrastructure/adapters&#45;&gt;src/domain/entities -->
<g id="edge15" class="edge">
<title>src/infrastructure/adapters&#45;&gt;src/domain/entities</title>
<path fill="none" stroke="#000000" stroke-opacity="0.200000" d="M528.81,-133.98C534.97,-131.52 541.82,-129.24 548.38,-128 593.73,-119.39 736.07,-112.11 761,-130 790.16,-150.92 797.15,-196.02 798.74,-220.81"/>
<polygon fill="none" stroke="#000000" stroke-opacity="0.200000" points="796.63,-220.68 799.02,-226.57 800.83,-220.48 796.63,-220.68"/>
</g>
<!-- src/infrastructure/adapters&#45;&gt;src/infrastructure/services -->
<g id="edge16" class="edge">
<title>src/infrastructure/adapters&#45;&gt;src/infrastructure/services</title>
<path fill="none" stroke="#000000" stroke-width="2" stroke-opacity="0.200000" d="M529.2,-153.98C534.19,-156.3 539.59,-158.82 544.86,-161.27"/>
<polygon fill="#000000" fill-opacity="0.200000" stroke="#000000" stroke-width="2" stroke-opacity="0.200000" points="543.9,-163.14 550.22,-163.76 545.67,-159.33 543.9,-163.14"/>
</g>
<!-- src/infrastructure/video -->
<g id="node11" class="node">
<title>src/infrastructure/video</title>
<g id="a_node11"><a xlink:href="src/infrastructure/video" xlink:title="video">
<polygon fill="#ffffcc" stroke="black" points="602.38,-153.62 550.51,-153.62 548.38,-151.49 548.38,-134.38 600.24,-134.38 602.38,-136.51 602.38,-153.62"/>
<polyline fill="none" stroke="black" points="600.24,-151.49 548.38,-151.49"/>
<polyline fill="none" stroke="black" points="600.24,-151.49 600.24,-134.38"/>
<polyline fill="none" stroke="black" points="600.24,-151.49 602.38,-153.62"/>
<text text-anchor="start" x="564.5" y="-141.07" font-family="Helvetica,sans-Serif" font-size="9.00">video</text>
</a>
</g>
</g>
<!-- src/infrastructure/adapters&#45;&gt;src/infrastructure/video -->
<g id="edge17" class="edge">
<title>src/infrastructure/adapters&#45;&gt;src/infrastructure/video</title>
<path fill="none" stroke="#000000" stroke-width="2" stroke-opacity="0.200000" d="M534.08,-144C535.83,-144 537.6,-144 539.38,-144"/>
<polygon fill="#000000" fill-opacity="0.200000" stroke="#000000" stroke-width="2" stroke-opacity="0.200000" points="539.21,-146.1 545.21,-144 539.21,-141.9 539.21,-146.1"/>
</g>
<!-- src/application/ports&#45;&gt;src/domain/entities -->
<g id="edge5" class="edge">
<title>src/application/ports&#45;&gt;src/domain/entities</title>
<path fill="none" stroke="#000000" stroke-opacity="0.200000" d="M602.71,-73.34C642.25,-72.33 717.01,-76.46 761,-117 790.65,-144.32 797.39,-194.44 798.82,-220.78"/>
<polygon fill="none" stroke="#000000" stroke-opacity="0.200000" points="796.72,-220.72 799.06,-226.63 800.92,-220.55 796.72,-220.72"/>
</g>
<!-- src/application/services -->
<g id="node9" class="node">
<title>src/application/services</title>
<g id="a_node9"><a xlink:href="src/application/services" xlink:title="services">
<polygon fill="#ffffcc" stroke="black" points="533.75,-84.62 481.89,-84.62 479.75,-82.49 479.75,-65.38 531.61,-65.38 533.75,-67.51 533.75,-84.62"/>
<polyline fill="none" stroke="black" points="531.61,-82.49 479.75,-82.49"/>
<polyline fill="none" stroke="black" points="531.61,-82.49 531.61,-65.38"/>
<polyline fill="none" stroke="black" points="531.61,-82.49 533.75,-84.62"/>
<text text-anchor="start" x="489.5" y="-72.08" font-family="Helvetica,sans-Serif" font-size="9.00">services</text>
</a>
</g>
</g>
<!-- src/application/services&#45;&gt;src/application/ports -->
<g id="edge6" class="edge">
<title>src/application/services&#45;&gt;src/application/ports</title>
<path fill="none" stroke="#000000" stroke-opacity="0.200000" d="M534.08,-75C536.41,-75 538.79,-75 541.16,-75"/>
<polygon fill="none" stroke="#000000" stroke-opacity="0.200000" points="540.72,-77.1 546.72,-75 540.72,-72.9 540.72,-77.1"/>
</g>
<!-- src/application/services&#45;&gt;src/domain/entities -->
<g id="edge7" class="edge">
<title>src/application/services&#45;&gt;src/domain/entities</title>
<path fill="none" stroke="#000000" stroke-opacity="0.200000" d="M528.81,-64.98C534.97,-62.52 541.82,-60.24 548.38,-59 594.96,-50.16 725.62,-45.43 761,-77 782.41,-96.11 793.62,-183.45 797.51,-220.89"/>
<polygon fill="none" stroke="#000000" stroke-opacity="0.200000" points="795.4,-220.81 798.08,-226.57 799.57,-220.39 795.4,-220.81"/>
</g>
<!-- src/application/services&#45;&gt;src/infrastructure/services -->
<g id="edge8" class="edge">
<title>src/application/services&#45;&gt;src/infrastructure/services</title>
<path fill="none" stroke="#000000" stroke-width="2" stroke-opacity="0.200000" d="M514.24,-85.01C520.23,-94.52 529.12,-109.37 535.38,-123 541.68,-136.74 538.45,-144.39 548.21,-158.19"/>
<polygon fill="#000000" fill-opacity="0.200000" stroke="#000000" stroke-width="2" stroke-opacity="0.200000" points="546.39,-159.28 551.79,-162.64 549.67,-156.65 546.39,-159.28"/>
</g>
<!-- src/application/services&#45;&gt;src/infrastructure/video -->
<g id="edge9" class="edge">
<title>src/application/services&#45;&gt;src/infrastructure/video</title>
<path fill="none" stroke="#000000" stroke-width="2" stroke-opacity="0.200000" d="M517.3,-84.89C528.08,-96.06 545.8,-114.41 558.64,-127.7"/>
<polygon fill="#000000" fill-opacity="0.200000" stroke="#000000" stroke-width="2" stroke-opacity="0.200000" points="557.07,-129.1 562.74,-131.95 560.09,-126.18 557.07,-129.1"/>
</g>
<!-- src/infrastructure/services&#45;&gt;src/domain/entities -->
<g id="edge22" class="edge">
<title>src/infrastructure/services&#45;&gt;src/domain/entities</title>
<path fill="none" stroke="#000000" stroke-opacity="0.200000" d="M598.87,-164.93C635.82,-150.05 710.32,-127.18 761,-159 782.63,-172.58 792.29,-202.28 796.37,-221.15"/>
<polygon fill="none" stroke="#000000" stroke-opacity="0.200000" points="794.21,-221.05 797.43,-226.54 798.33,-220.25 794.21,-221.05"/>
</g>
<!-- src/domain/repositories -->
<g id="node13" class="node">
<title>src/domain/repositories</title>
<g id="a_node13"><a xlink:href="src/domain/repositories" xlink:title="repositories">
<polygon fill="#ffffcc" stroke="black" points="758.25,-278.62 694.89,-278.62 692.75,-276.49 692.75,-259.38 756.11,-259.38 758.25,-261.51 758.25,-278.62"/>
<polyline fill="none" stroke="black" points="756.11,-276.49 692.75,-276.49"/>
<polyline fill="none" stroke="black" points="756.11,-276.49 756.11,-259.38"/>
<polyline fill="none" stroke="black" points="756.11,-276.49 758.25,-278.62"/>
<text text-anchor="start" x="700.75" y="-266.07" font-family="Helvetica,sans-Serif" font-size="9.00">repositories</text>
</a>
</g>
</g>
<!-- src/infrastructure/services&#45;&gt;src/domain/repositories -->
<g id="edge23" class="edge">
<title>src/infrastructure/services&#45;&gt;src/domain/repositories</title>
<path fill="none" stroke="#000000" stroke-opacity="0.200000" d="M587.44,-184.95C606.02,-201.23 645.14,-233.77 682.88,-254 684.14,-254.68 685.45,-255.34 686.78,-255.98"/>
<polygon fill="none" stroke="#000000" stroke-opacity="0.200000" points="685.88,-257.88 692.21,-258.4 687.59,-254.04 685.88,-257.88"/>
</g>
<!-- src/domain/valueObjects -->
<g id="node14" class="node">
<title>src/domain/valueObjects</title>
<g id="a_node14"><a xlink:href="src/domain/valueObjects" xlink:title="valueObjects">
<polygon fill="#ffffcc" stroke="black" points="760.12,-309.62 693.01,-309.62 690.88,-307.49 690.88,-290.38 757.99,-290.38 760.12,-292.51 760.12,-309.62"/>
<polyline fill="none" stroke="black" points="757.99,-307.49 690.88,-307.49"/>
<polyline fill="none" stroke="black" points="757.99,-307.49 757.99,-290.38"/>
<polyline fill="none" stroke="black" points="757.99,-307.49 760.12,-309.62"/>
<text text-anchor="start" x="698.88" y="-297.07" font-family="Helvetica,sans-Serif" font-size="9.00">valueObjects</text>
</a>
</g>
</g>
<!-- src/infrastructure/services&#45;&gt;src/domain/valueObjects -->
<g id="edge24" class="edge">
<title>src/infrastructure/services&#45;&gt;src/domain/valueObjects</title>
<path fill="none" stroke="#000000" stroke-width="2" stroke-opacity="0.200000" d="M578.59,-185.12C583.02,-203.09 594.68,-240.69 618.38,-262 636.02,-277.87 660.77,-287.23 681.93,-292.69"/>
<polygon fill="#000000" fill-opacity="0.200000" stroke="#000000" stroke-width="2" stroke-opacity="0.200000" points="681.17,-294.67 687.5,-294.03 682.15,-290.59 681.17,-294.67"/>
</g>
<!-- src/infrastructure/repository -->
<g id="node16" class="node">
<title>src/infrastructure/repository</title>
<g id="a_node16"><a xlink:href="src/infrastructure/repository" xlink:title="repository">
<polygon fill="#ffffcc" stroke="black" points="674.88,-184.62 620.51,-184.62 618.38,-182.49 618.38,-165.38 672.74,-165.38 674.88,-167.51 674.88,-184.62"/>
<polyline fill="none" stroke="black" points="672.74,-182.49 618.38,-182.49"/>
<polyline fill="none" stroke="black" points="672.74,-182.49 672.74,-165.38"/>
<polyline fill="none" stroke="black" points="672.74,-182.49 674.88,-184.62"/>
<text text-anchor="start" x="626.38" y="-172.07" font-family="Helvetica,sans-Serif" font-size="9.00">repository</text>
</a>
</g>
</g>
<!-- src/infrastructure/services&#45;&gt;src/infrastructure/repository -->
<g id="edge25" class="edge">
<title>src/infrastructure/services&#45;&gt;src/infrastructure/repository</title>
<path fill="none" stroke="#000000" stroke-width="2" stroke-opacity="0.200000" d="M602.56,-175C604.77,-175 607.03,-175 609.3,-175"/>
<polygon fill="#000000" fill-opacity="0.200000" stroke="#000000" stroke-width="2" stroke-opacity="0.200000" points="609,-177.1 615,-175 609,-172.9 609,-177.1"/>
</g>
<!-- src/infrastructure/video&#45;&gt;src/domain/entities -->
<g id="edge26" class="edge">
<title>src/infrastructure/video&#45;&gt;src/domain/entities</title>
<path fill="none" stroke="#000000" stroke-opacity="0.200000" d="M602.54,-140.34C647.23,-134.66 735.91,-126.03 761,-143 786.7,-160.38 795.08,-198.23 797.81,-220.55"/>
<polygon fill="none" stroke="#000000" stroke-opacity="0.200000" points="795.72,-220.75 798.42,-226.5 799.89,-220.32 795.72,-220.75"/>
</g>
<!-- src/infrastructure/video&#45;&gt;src/domain/valueObjects -->
<g id="edge27" class="edge">
<title>src/infrastructure/video&#45;&gt;src/domain/valueObjects</title>
<path fill="none" stroke="#000000" stroke-width="2" stroke-opacity="0.200000" d="M602.62,-152.51C605.53,-154.29 608.21,-156.43 610.38,-159 619.82,-170.21 611.93,-177.83 618.38,-191 636.26,-227.54 655.12,-227.44 674.88,-263 679.93,-272.1 675.51,-277.65 682.88,-285 683.16,-285.28 683.45,-285.56 683.75,-285.84"/>
<polygon fill="#000000" fill-opacity="0.200000" stroke="#000000" stroke-width="2" stroke-opacity="0.200000" points="682.12,-287.25 688.21,-289.08 684.59,-283.85 682.12,-287.25"/>
</g>
<!-- src/domain/constants -->
<g id="node12" class="node">
<title>src/domain/constants</title>
<g id="a_node12"><a xlink:href="src/domain/constants" xlink:title="constants">
<polygon fill="#ffffcc" stroke="black" points="753.75,-247.62 699.39,-247.62 697.25,-245.49 697.25,-228.38 751.61,-228.38 753.75,-230.51 753.75,-247.62"/>
<polyline fill="none" stroke="black" points="751.61,-245.49 697.25,-245.49"/>
<polyline fill="none" stroke="black" points="751.61,-245.49 751.61,-228.38"/>
<polyline fill="none" stroke="black" points="751.61,-245.49 753.75,-247.62"/>
<text text-anchor="start" x="705.25" y="-235.07" font-family="Helvetica,sans-Serif" font-size="9.00">constants</text>
</a>
</g>
</g>
<!-- src/domain/repositories&#45;&gt;src/domain/entities -->
<g id="edge12" class="edge">
<title>src/domain/repositories&#45;&gt;src/domain/entities</title>
<path fill="none" stroke="#000000" stroke-opacity="0.200000" d="M749.88,-259.02C755.97,-256.42 762.62,-253.58 769,-250.86"/>
<polygon fill="none" stroke="#000000" stroke-opacity="0.200000" points="769.7,-252.84 774.4,-248.55 768.06,-248.98 769.7,-252.84"/>
</g>
<!-- src/domain/valueObjects&#45;&gt;src/domain/entities -->
<g id="edge13" class="edge">
<title>src/domain/valueObjects&#45;&gt;src/domain/entities</title>
<path fill="none" stroke="#000000" stroke-opacity="0.200000" d="M753.23,-289.95C755.96,-288.47 758.61,-286.82 761,-285 772.26,-276.45 782.21,-263.91 789.12,-253.93"/>
<polygon fill="none" stroke="#000000" stroke-opacity="0.200000" points="790.78,-255.22 792.37,-249.07 787.29,-252.89 790.78,-255.22"/>
</g>
<!-- src/infrastructure/database -->
<g id="node15" class="node">
<title>src/infrastructure/database</title>
<g id="a_node15"><a xlink:href="src/infrastructure/database" xlink:title="database">
<polygon fill="#ffffcc" stroke="black" points="753,-184.62 700.14,-184.62 698,-182.49 698,-165.38 750.86,-165.38 753,-167.51 753,-184.62"/>
<polyline fill="none" stroke="black" points="750.86,-182.49 698,-182.49"/>
<polyline fill="none" stroke="black" points="750.86,-182.49 750.86,-165.38"/>
<polyline fill="none" stroke="black" points="750.86,-182.49 753,-184.62"/>
<text text-anchor="start" x="706" y="-172.07" font-family="Helvetica,sans-Serif" font-size="9.00">database</text>
</a>
</g>
</g>
<!-- src/infrastructure/repository&#45;&gt;src/domain/entities -->
<g id="edge20" class="edge">
<title>src/infrastructure/repository&#45;&gt;src/domain/entities</title>
<path fill="none" stroke="#000000" stroke-opacity="0.200000" d="M669.18,-184.98C673.69,-187.01 678.42,-189.11 682.88,-191 717.25,-205.61 726.41,-207.88 761,-222 763.47,-223.01 766.03,-224.06 768.6,-225.13"/>
<polygon fill="none" stroke="#000000" stroke-opacity="0.200000" points="767.62,-226.99 773.96,-227.36 769.23,-223.12 767.62,-226.99"/>
</g>
<!-- src/infrastructure/repository&#45;&gt;src/domain/constants -->
<g id="edge19" class="edge">
<title>src/infrastructure/repository&#45;&gt;src/domain/constants</title>
<path fill="none" stroke="#000000" stroke-width="2" stroke-opacity="0.200000" d="M654.92,-185.08C661.54,-193.74 671.91,-206.19 682.88,-215 686.74,-218.1 691.08,-221.01 695.46,-223.65"/>
<polygon fill="#000000" fill-opacity="0.200000" stroke="#000000" stroke-width="2" stroke-opacity="0.200000" points="694.4,-225.47 700.65,-226.6 696.47,-221.81 694.4,-225.47"/>
</g>
<!-- src/infrastructure/repository&#45;&gt;src/domain/repositories -->
<g id="edge21" class="edge">
<title>src/infrastructure/repository&#45;&gt;src/domain/repositories</title>
<path fill="none" stroke="#000000" stroke-opacity="0.200000" d="M653.07,-184.94C658.91,-195.81 668.22,-213.84 674.88,-230 679.16,-240.4 675.02,-245.95 682.88,-254 684.01,-255.16 685.24,-256.23 686.54,-257.22"/>
<polygon fill="none" stroke="#000000" stroke-opacity="0.200000" points="685.16,-258.84 691.36,-260.25 687.4,-255.28 685.16,-258.84"/>
</g>
<!-- src/infrastructure/repository&#45;&gt;src/infrastructure/database -->
<g id="edge18" class="edge">
<title>src/infrastructure/repository&#45;&gt;src/infrastructure/database</title>
<path fill="none" stroke="#000000" stroke-width="2" stroke-opacity="0.200000" d="M674.94,-175C679.42,-175 684.11,-175 688.74,-175"/>
<polygon fill="#000000" fill-opacity="0.200000" stroke="#000000" stroke-width="2" stroke-opacity="0.200000" points="688.5,-177.1 694.5,-175 688.5,-172.9 688.5,-177.1"/>
</g>
<!-- src/main.ts -->
<g id="node17" class="node">
<title>src/main.ts</title>
<g id="a_node17"><a xlink:href="src/main.ts" xlink:title="main.ts">
<path fill="#ddfeff" stroke="black" d="M63.58,-86.62C63.58,-86.62 22.42,-86.62 22.42,-86.62 19.21,-86.62 16,-83.42 16,-80.21 16,-80.21 16,-73.79 16,-73.79 16,-70.58 19.21,-67.38 22.42,-67.38 22.42,-67.38 63.58,-67.38 63.58,-67.38 66.79,-67.38 70,-70.58 70,-73.79 70,-73.79 70,-80.21 70,-80.21 70,-83.42 66.79,-86.62 63.58,-86.62"/>
<text text-anchor="start" x="27.62" y="-74.08" font-family="Helvetica,sans-Serif" font-size="9.00">main.ts</text>
</a>
</g>
</g>
<!-- src/main.ts&#45;&gt;src/App.vue -->
<g id="edge28" class="edge">
<title>src/main.ts&#45;&gt;src/App.vue</title>
<path fill="none" stroke="#000000" stroke-width="2" stroke-opacity="0.200000" d="M70.44,-77C71.58,-77 72.74,-77 73.9,-77"/>
<polygon fill="#000000" fill-opacity="0.200000" stroke="#000000" stroke-width="2" stroke-opacity="0.200000" points="73.77,-79.1 79.77,-77 73.77,-74.9 73.77,-79.1"/>
</g>
<!-- src/presentation/stores&#45;&gt;src/application/dependencies.ts -->
<g id="edge33" class="edge">
<title>src/presentation/stores&#45;&gt;src/application/dependencies.ts</title>
<path fill="none" stroke="#000000" stroke-width="2" stroke-opacity="0.200000" d="M355.22,-75C359.77,-75 364.63,-75 369.57,-75"/>
<polygon fill="#000000" fill-opacity="0.200000" stroke="#000000" stroke-width="2" stroke-opacity="0.200000" points="369.47,-77.1 375.47,-75 369.47,-72.9 369.47,-77.1"/>
</g>
<!-- src/presentation/stores&#45;&gt;src/domain/entities -->
<g id="edge34" class="edge">
<title>src/presentation/stores&#45;&gt;src/domain/entities</title>
<path fill="none" stroke="#000000" stroke-opacity="0.200000" d="M333.37,-65.22C339.8,-52.86 352.73,-32.11 370.75,-23 424.35,4.09 445.69,-17 505.75,-17 505.75,-17 505.75,-17 647.62,-17 698.34,-17 723.95,4.64 761,-30 788.7,-55.9 796.52,-175.46 798.51,-220.64"/>
<polygon fill="none" stroke="#000000" stroke-opacity="0.200000" points="796.4,-220.52 798.74,-226.43 800.6,-220.35 796.4,-220.52"/>
</g>
<!-- src/presentation/stores&#45;&gt;src/application/services -->
<g id="edge32" class="edge">
<title>src/presentation/stores&#45;&gt;src/application/services</title>
<path fill="none" stroke="#000000" stroke-width="2" stroke-opacity="0.200000" d="M350.55,-64.98C356.92,-62.52 364,-60.24 370.75,-59 411.4,-51.52 423.1,-51.52 463.75,-59 467.65,-59.72 471.67,-60.78 475.59,-62.03"/>
<polygon fill="#000000" fill-opacity="0.200000" stroke="#000000" stroke-width="2" stroke-opacity="0.200000" points="474.74,-63.96 481.1,-63.97 476.14,-60 474.74,-63.96"/>
</g>
</g>
</svg>
