<?xml version="1.0" encoding="UTF-8" standalone="no"?>
<!DOCTYPE svg PUBLIC "-//W3C//DTD SVG 1.1//EN"
 "http://www.w3.org/Graphics/SVG/1.1/DTD/svg11.dtd">
<!-- Generated by graphviz version 9.0.0 (20230911.1827)
 -->
<!-- Title: dependency&#45;cruiser output Pages: 1 -->
<svg width="1314pt" height="345pt"
 viewBox="0.00 0.00 1314.00 345.00" xmlns="http://www.w3.org/2000/svg" xmlns:xlink="http://www.w3.org/1999/xlink">
<g id="graph0" class="graph" transform="scale(1 1) rotate(0) translate(4 341)">
<title>dependency&#45;cruiser output</title>
<polygon fill="white" stroke="none" points="-4,4 -4,-341 1310,-341 1310,4 -4,4"/>
<g id="clust1" class="cluster">
<title>cluster_src</title>
<path fill="#ffffff" stroke="black" stroke-width="2" d="M20,-8C20,-8 1286,-8 1286,-8 1292,-8 1298,-14 1298,-20 1298,-20 1298,-317 1298,-317 1298,-323 1292,-329 1286,-329 1286,-329 20,-329 20,-329 14,-329 8,-323 8,-317 8,-317 8,-20 8,-20 8,-14 14,-8 20,-8"/>
<text text-anchor="middle" x="653" y="-316.45" font-family="Helvetica,sans-Serif" font-weight="bold" font-size="9.00">src</text>
</g>
<g id="clust2" class="cluster">
<title>cluster_src/assets</title>
<path fill="#ffffff" stroke="black" stroke-width="2" d="M90,-172C90,-172 192.75,-172 192.75,-172 198.75,-172 204.75,-178 204.75,-184 204.75,-184 204.75,-278 204.75,-278 204.75,-284 198.75,-290 192.75,-290 192.75,-290 90,-290 90,-290 84,-290 78,-284 78,-278 78,-278 78,-184 78,-184 78,-178 84,-172 90,-172"/>
<text text-anchor="middle" x="141.38" y="-277.45" font-family="Helvetica,sans-Serif" font-weight="bold" font-size="9.00">assets</text>
</g>
<g id="clust3" class="cluster">
<title>cluster_src/assets/effects</title>
<path fill="#ffffff" stroke="black" stroke-width="2" d="M98,-208C98,-208 184.75,-208 184.75,-208 190.75,-208 196.75,-214 196.75,-220 196.75,-220 196.75,-251 196.75,-251 196.75,-257 190.75,-263 184.75,-263 184.75,-263 98,-263 98,-263 92,-263 86,-257 86,-251 86,-251 86,-220 86,-220 86,-214 92,-208 98,-208"/>
<text text-anchor="middle" x="141.38" y="-250.45" font-family="Helvetica,sans-Serif" font-weight="bold" font-size="9.00">effects</text>
</g>
<g id="clust4" class="cluster">
<title>cluster_src/components</title>
<path fill="#ffffff" stroke="black" stroke-width="2" d="M333,-110C333,-110 548,-110 548,-110 554,-110 560,-116 560,-122 560,-122 560,-279 560,-279 560,-285 554,-291 548,-291 548,-291 333,-291 333,-291 327,-291 321,-285 321,-279 321,-279 321,-122 321,-122 321,-116 327,-110 333,-110"/>
<text text-anchor="middle" x="440.5" y="-278.45" font-family="Helvetica,sans-Serif" font-weight="bold" font-size="9.00">components</text>
</g>
<g id="clust6" class="cluster">
<title>cluster_src/components/utils</title>
<path fill="#ffffff" stroke="black" stroke-width="2" d="M341,-181C341,-181 439,-181 439,-181 445,-181 451,-187 451,-193 451,-193 451,-224 451,-224 451,-230 445,-236 439,-236 439,-236 341,-236 341,-236 335,-236 329,-230 329,-224 329,-224 329,-193 329,-193 329,-187 335,-181 341,-181"/>
<text text-anchor="middle" x="390" y="-223.45" font-family="Helvetica,sans-Serif" font-weight="bold" font-size="9.00">utils</text>
</g>
<g id="clust5" class="cluster">
<title>cluster_src/components/inputs</title>
<path fill="#ffffff" stroke="black" stroke-width="2" d="M347.75,-118C347.75,-118 432.25,-118 432.25,-118 438.25,-118 444.25,-124 444.25,-130 444.25,-130 444.25,-161 444.25,-161 444.25,-167 438.25,-173 432.25,-173 432.25,-173 347.75,-173 347.75,-173 341.75,-173 335.75,-167 335.75,-161 335.75,-161 335.75,-130 335.75,-130 335.75,-124 341.75,-118 347.75,-118"/>
<text text-anchor="middle" x="390" y="-160.45" font-family="Helvetica,sans-Serif" font-weight="bold" font-size="9.00">inputs</text>
</g>
<g id="clust7" class="cluster">
<title>cluster_src/services</title>
<path fill="#ffffff" stroke="black" stroke-width="2" d="M580,-16C580,-16 1278,-16 1278,-16 1284,-16 1290,-22 1290,-28 1290,-28 1290,-290 1290,-290 1290,-296 1284,-302 1278,-302 1278,-302 580,-302 580,-302 574,-302 568,-296 568,-290 568,-290 568,-28 568,-28 568,-22 574,-16 580,-16"/>
<text text-anchor="middle" x="929" y="-289.45" font-family="Helvetica,sans-Serif" font-weight="bold" font-size="9.00">services</text>
</g>
<g id="clust9" class="cluster">
<title>cluster_src/services/StorageController</title>
<path fill="#ffffff" stroke="black" stroke-width="2" d="M764,-87C764,-87 1270,-87 1270,-87 1276,-87 1282,-93 1282,-99 1282,-99 1282,-263 1282,-263 1282,-269 1276,-275 1270,-275 1270,-275 764,-275 764,-275 758,-275 752,-269 752,-263 752,-263 752,-99 752,-99 752,-93 758,-87 764,-87"/>
<text text-anchor="middle" x="1017" y="-262.45" font-family="Helvetica,sans-Serif" font-weight="bold" font-size="9.00">StorageController</text>
</g>
<g id="clust10" class="cluster">
<title>cluster_src/services/StorageController/migrations</title>
<path fill="#ffffff" stroke="black" stroke-width="2" d="M977,-95C977,-95 1262,-95 1262,-95 1268,-95 1274,-101 1274,-107 1274,-107 1274,-236 1274,-236 1274,-242 1268,-248 1262,-248 1262,-248 977,-248 977,-248 971,-248 965,-242 965,-236 965,-236 965,-107 965,-107 965,-101 971,-95 977,-95"/>
<text text-anchor="middle" x="1119.5" y="-235.45" font-family="Helvetica,sans-Serif" font-weight="bold" font-size="9.00">migrations</text>
</g>
<g id="clust11" class="cluster">
<title>cluster_src/services/StorageController/migrations/utils</title>
<path fill="#ffffff" stroke="black" stroke-width="2" d="M1208,-134C1208,-134 1254,-134 1254,-134 1260,-134 1266,-140 1266,-146 1266,-146 1266,-177 1266,-177 1266,-183 1260,-189 1254,-189 1254,-189 1208,-189 1208,-189 1202,-189 1196,-183 1196,-177 1196,-177 1196,-146 1196,-146 1196,-140 1202,-134 1208,-134"/>
<text text-anchor="middle" x="1231" y="-176.45" font-family="Helvetica,sans-Serif" font-weight="bold" font-size="9.00">utils</text>
</g>
<g id="clust13" class="cluster">
<title>cluster_src/services/StorageController/migrations/v2</title>
<path fill="#ffffff" stroke="black" stroke-width="2" d="M1130,-166C1130,-166 1176,-166 1176,-166 1182,-166 1188,-172 1188,-178 1188,-178 1188,-209 1188,-209 1188,-215 1182,-221 1176,-221 1176,-221 1130,-221 1130,-221 1124,-221 1118,-215 1118,-209 1118,-209 1118,-178 1118,-178 1118,-172 1124,-166 1130,-166"/>
<text text-anchor="middle" x="1153" y="-208.45" font-family="Helvetica,sans-Serif" font-weight="bold" font-size="9.00">v2</text>
</g>
<g id="clust12" class="cluster">
<title>cluster_src/services/StorageController/migrations/v1</title>
<path fill="#ffffff" stroke="black" stroke-width="2" d="M1130,-103C1130,-103 1176,-103 1176,-103 1182,-103 1188,-109 1188,-115 1188,-115 1188,-146 1188,-146 1188,-152 1182,-158 1176,-158 1176,-158 1130,-158 1130,-158 1124,-158 1118,-152 1118,-146 1118,-146 1118,-115 1118,-115 1118,-109 1124,-103 1130,-103"/>
<text text-anchor="middle" x="1153" y="-145.45" font-family="Helvetica,sans-Serif" font-weight="bold" font-size="9.00">v1</text>
</g>
<g id="clust14" class="cluster">
<title>cluster_src/services/VideoParsers</title>
<path fill="#ffffff" stroke="black" stroke-width="2" d="M666,-132C666,-132 716,-132 716,-132 722,-132 728,-138 728,-144 728,-144 728,-175 728,-175 728,-181 722,-187 716,-187 716,-187 666,-187 666,-187 660,-187 654,-181 654,-175 654,-175 654,-144 654,-144 654,-138 660,-132 666,-132"/>
<text text-anchor="middle" x="691" y="-174.45" font-family="Helvetica,sans-Serif" font-weight="bold" font-size="9.00">VideoParsers</text>
</g>
<g id="clust8" class="cluster">
<title>cluster_src/services/Filters</title>
<path fill="#ffffff" stroke="black" stroke-width="2" d="M668,-24C668,-24 810,-24 810,-24 816,-24 822,-30 822,-36 822,-36 822,-67 822,-67 822,-73 816,-79 810,-79 810,-79 668,-79 668,-79 662,-79 656,-73 656,-67 656,-67 656,-36 656,-36 656,-30 662,-24 668,-24"/>
<text text-anchor="middle" x="739" y="-66.45" font-family="Helvetica,sans-Serif" font-weight="bold" font-size="9.00">Filters</text>
</g>
<g id="clust16" class="cluster">
<title>cluster_src/views</title>
<path fill="#ffffff" stroke="black" stroke-width="2" d="M224.75,-104C224.75,-104 301,-104 301,-104 307,-104 313,-110 313,-116 313,-116 313,-178 313,-178 313,-184 307,-190 301,-190 301,-190 224.75,-190 224.75,-190 218.75,-190 212.75,-184 212.75,-178 212.75,-178 212.75,-116 212.75,-116 212.75,-110 218.75,-104 224.75,-104"/>
<text text-anchor="middle" x="262.88" y="-177.45" font-family="Helvetica,sans-Serif" font-weight="bold" font-size="9.00">views</text>
</g>
<g id="clust15" class="cluster">
<title>cluster_src/stores</title>
<path fill="#ffffff" stroke="black" stroke-width="2" d="M471,-16C471,-16 547.25,-16 547.25,-16 553.25,-16 559.25,-22 559.25,-28 559.25,-28 559.25,-90 559.25,-90 559.25,-96 553.25,-102 547.25,-102 547.25,-102 471,-102 471,-102 465,-102 459,-96 459,-90 459,-90 459,-28 459,-28 459,-22 465,-16 471,-16"/>
<text text-anchor="middle" x="509.12" y="-89.45" font-family="Helvetica,sans-Serif" font-weight="bold" font-size="9.00">stores</text>
</g>
<!-- src/App.vue -->
<g id="node1" class="node">
<title>src/App.vue</title>
<g id="a_node1"><a xlink:href="src/App.vue" xlink:title="App.vue">
<path fill="#41f083" stroke="black" d="M161.96,-162.62C161.96,-162.62 120.79,-162.62 120.79,-162.62 117.58,-162.62 114.38,-159.42 114.38,-156.21 114.38,-156.21 114.38,-149.79 114.38,-149.79 114.38,-146.58 117.58,-143.38 120.79,-143.38 120.79,-143.38 161.96,-143.38 161.96,-143.38 165.17,-143.38 168.38,-146.58 168.38,-149.79 168.38,-149.79 168.38,-156.21 168.38,-156.21 168.38,-159.42 165.17,-162.62 161.96,-162.62"/>
<text text-anchor="start" x="125.25" y="-150.07" font-family="Helvetica,sans-Serif" font-size="9.00">App.vue</text>
</a>
</g>
</g>
<!-- src/components/utils/DiagnosticsPanel.vue -->
<g id="node2" class="node">
<title>src/components/utils/DiagnosticsPanel.vue</title>
<g id="a_node2"><a xlink:href="src/components/utils/DiagnosticsPanel.vue" xlink:title="DiagnosticsPanel.vue">
<path fill="#41f083" stroke="black" d="M436.58,-208.62C436.58,-208.62 343.42,-208.62 343.42,-208.62 340.21,-208.62 337,-205.42 337,-202.21 337,-202.21 337,-195.79 337,-195.79 337,-192.58 340.21,-189.38 343.42,-189.38 343.42,-189.38 436.58,-189.38 436.58,-189.38 439.79,-189.38 443,-192.58 443,-195.79 443,-195.79 443,-202.21 443,-202.21 443,-205.42 439.79,-208.62 436.58,-208.62"/>
<text text-anchor="start" x="345" y="-196.07" font-family="Helvetica,sans-Serif" font-size="9.00">DiagnosticsPanel.vue</text>
</a>
</g>
</g>
<!-- src/App.vue&#45;&gt;src/components/utils/DiagnosticsPanel.vue -->
<g id="edge1" class="edge">
<title>src/App.vue&#45;&gt;src/components/utils/DiagnosticsPanel.vue</title>
<path fill="none" stroke="#000000" stroke-width="2" stroke-opacity="0.200000" d="M168.8,-154.1C181.09,-155.91 195.1,-160.01 204.75,-169 212.98,-176.66 203.74,-186.27 212.75,-193 230.48,-206.24 284.37,-206.44 327.94,-204.11"/>
<polygon fill="#000000" fill-opacity="0.200000" stroke="#000000" stroke-width="2" stroke-opacity="0.200000" points="327.9,-206.21 333.77,-203.77 327.65,-202.02 327.9,-206.21"/>
</g>
<!-- src/views/NavBar.vue -->
<g id="node3" class="node">
<title>src/views/NavBar.vue</title>
<g id="a_node3"><a xlink:href="src/views/NavBar.vue" xlink:title="NavBar.vue">
<path fill="#41f083" stroke="black" d="M287.71,-131.62C287.71,-131.62 238.04,-131.62 238.04,-131.62 234.83,-131.62 231.62,-128.42 231.62,-125.21 231.62,-125.21 231.62,-118.79 231.62,-118.79 231.62,-115.58 234.83,-112.38 238.04,-112.38 238.04,-112.38 287.71,-112.38 287.71,-112.38 290.92,-112.38 294.12,-115.58 294.12,-118.79 294.12,-118.79 294.12,-125.21 294.12,-125.21 294.12,-128.42 290.92,-131.62 287.71,-131.62"/>
<text text-anchor="start" x="239.62" y="-119.08" font-family="Helvetica,sans-Serif" font-size="9.00">NavBar.vue</text>
</a>
</g>
</g>
<!-- src/App.vue&#45;&gt;src/views/NavBar.vue -->
<g id="edge2" class="edge">
<title>src/App.vue&#45;&gt;src/views/NavBar.vue</title>
<path fill="none" stroke="#000000" stroke-width="2" stroke-opacity="0.200000" d="M168.6,-146.2C184.54,-142.06 205.19,-136.7 223.01,-132.08"/>
<polygon fill="#000000" fill-opacity="0.200000" stroke="#000000" stroke-width="2" stroke-opacity="0.200000" points="223.28,-134.18 228.56,-130.64 222.23,-130.12 223.28,-134.18"/>
</g>
<!-- src/views/VideoGallery.vue -->
<g id="node4" class="node">
<title>src/views/VideoGallery.vue</title>
<g id="a_node4"><a xlink:href="src/views/VideoGallery.vue" xlink:title="VideoGallery.vue">
<path fill="#41f083" stroke="black" d="M298.58,-162.62C298.58,-162.62 227.17,-162.62 227.17,-162.62 223.96,-162.62 220.75,-159.42 220.75,-156.21 220.75,-156.21 220.75,-149.79 220.75,-149.79 220.75,-146.58 223.96,-143.38 227.17,-143.38 227.17,-143.38 298.58,-143.38 298.58,-143.38 301.79,-143.38 305,-146.58 305,-149.79 305,-149.79 305,-156.21 305,-156.21 305,-159.42 301.79,-162.62 298.58,-162.62"/>
<text text-anchor="start" x="228.75" y="-150.07" font-family="Helvetica,sans-Serif" font-size="9.00">VideoGallery.vue</text>
</a>
</g>
</g>
<!-- src/App.vue&#45;&gt;src/views/VideoGallery.vue -->
<g id="edge3" class="edge">
<title>src/App.vue&#45;&gt;src/views/VideoGallery.vue</title>
<path fill="none" stroke="#000000" stroke-width="2" stroke-opacity="0.200000" d="M168.6,-153C181.35,-153 197.11,-153 212.03,-153"/>
<polygon fill="#000000" fill-opacity="0.200000" stroke="#000000" stroke-width="2" stroke-opacity="0.200000" points="211.65,-155.1 217.65,-153 211.65,-150.9 211.65,-155.1"/>
</g>
<!-- src/stores/appStateStore.ts -->
<g id="node12" class="node">
<title>src/stores/appStateStore.ts</title>
<g id="a_node12"><a xlink:href="src/stores/appStateStore.ts" xlink:title="appStateStore.ts">
<path fill="#ddfeff" stroke="black" d="M544.83,-74.62C544.83,-74.62 473.42,-74.62 473.42,-74.62 470.21,-74.62 467,-71.42 467,-68.21 467,-68.21 467,-61.79 467,-61.79 467,-58.58 470.21,-55.38 473.42,-55.38 473.42,-55.38 544.83,-55.38 544.83,-55.38 548.04,-55.38 551.25,-58.58 551.25,-61.79 551.25,-61.79 551.25,-68.21 551.25,-68.21 551.25,-71.42 548.04,-74.62 544.83,-74.62"/>
<text text-anchor="start" x="475" y="-62.08" font-family="Helvetica,sans-Serif" font-size="9.00">appStateStore.ts</text>
</a>
</g>
</g>
<!-- src/components/utils/DiagnosticsPanel.vue&#45;&gt;src/stores/appStateStore.ts -->
<g id="edge8" class="edge">
<title>src/components/utils/DiagnosticsPanel.vue&#45;&gt;src/stores/appStateStore.ts</title>
<path fill="none" stroke="#000000" stroke-width="2" stroke-opacity="0.200000" d="M434.54,-188.96C440.87,-185.76 446.69,-181.55 451,-176 469.93,-151.61 444.49,-134.25 459,-107 464.74,-96.22 474.49,-87.01 483.79,-79.98"/>
<polygon fill="#000000" fill-opacity="0.200000" stroke="#000000" stroke-width="2" stroke-opacity="0.200000" points="484.92,-81.76 488.6,-76.58 482.49,-78.33 484.92,-81.76"/>
</g>
<!-- src/components/inputs/FolderSelector.vue -->
<g id="node10" class="node">
<title>src/components/inputs/FolderSelector.vue</title>
<g id="a_node10"><a xlink:href="src/components/inputs/FolderSelector.vue" xlink:title="FolderSelector.vue">
<path fill="#41f083" stroke="black" d="M429.83,-145.62C429.83,-145.62 350.17,-145.62 350.17,-145.62 346.96,-145.62 343.75,-142.42 343.75,-139.21 343.75,-139.21 343.75,-132.79 343.75,-132.79 343.75,-129.58 346.96,-126.38 350.17,-126.38 350.17,-126.38 429.83,-126.38 429.83,-126.38 433.04,-126.38 436.25,-129.58 436.25,-132.79 436.25,-132.79 436.25,-139.21 436.25,-139.21 436.25,-142.42 433.04,-145.62 429.83,-145.62"/>
<text text-anchor="start" x="351.75" y="-133.07" font-family="Helvetica,sans-Serif" font-size="9.00">FolderSelector.vue</text>
</a>
</g>
</g>
<!-- src/views/NavBar.vue&#45;&gt;src/components/inputs/FolderSelector.vue -->
<g id="edge25" class="edge">
<title>src/views/NavBar.vue&#45;&gt;src/components/inputs/FolderSelector.vue</title>
<path fill="none" stroke="#000000" stroke-width="2" stroke-opacity="0.200000" d="M294.48,-125.42C306.59,-126.78 320.88,-128.38 334.63,-129.92"/>
<polygon fill="#000000" fill-opacity="0.200000" stroke="#000000" stroke-width="2" stroke-opacity="0.200000" points="334.36,-132 340.56,-130.58 334.83,-127.83 334.36,-132"/>
</g>
<!-- src/stores/videosStore.ts -->
<g id="node11" class="node">
<title>src/stores/videosStore.ts</title>
<g id="a_node11"><a xlink:href="src/stores/videosStore.ts" xlink:title="videosStore.ts">
<path fill="#ddfeff" stroke="black" d="M539.96,-43.62C539.96,-43.62 478.29,-43.62 478.29,-43.62 475.08,-43.62 471.88,-40.42 471.88,-37.21 471.88,-37.21 471.88,-30.79 471.88,-30.79 471.88,-27.58 475.08,-24.38 478.29,-24.38 478.29,-24.38 539.96,-24.38 539.96,-24.38 543.17,-24.38 546.38,-27.58 546.38,-30.79 546.38,-30.79 546.38,-37.21 546.38,-37.21 546.38,-40.42 543.17,-43.62 539.96,-43.62"/>
<text text-anchor="start" x="479.88" y="-31.07" font-family="Helvetica,sans-Serif" font-size="9.00">videosStore.ts</text>
</a>
</g>
</g>
<!-- src/views/NavBar.vue&#45;&gt;src/stores/videosStore.ts -->
<g id="edge27" class="edge">
<title>src/views/NavBar.vue&#45;&gt;src/stores/videosStore.ts</title>
<path fill="none" stroke="#000000" stroke-width="2" stroke-opacity="0.200000" d="M272.98,-112.11C283.5,-101.31 301.82,-84.31 321,-75 366.47,-52.92 423.92,-42.6 463.09,-37.87"/>
<polygon fill="#000000" fill-opacity="0.200000" stroke="#000000" stroke-width="2" stroke-opacity="0.200000" points="462.92,-40 468.64,-37.23 462.44,-35.83 462.92,-40"/>
</g>
<!-- src/views/NavBar.vue&#45;&gt;src/stores/appStateStore.ts -->
<g id="edge26" class="edge">
<title>src/views/NavBar.vue&#45;&gt;src/stores/appStateStore.ts</title>
<path fill="none" stroke="#000000" stroke-width="2" stroke-opacity="0.200000" d="M294.32,-114.9C335.33,-105.32 408.87,-88.16 458.08,-76.68"/>
<polygon fill="#000000" fill-opacity="0.200000" stroke="#000000" stroke-width="2" stroke-opacity="0.200000" points="458.36,-78.77 463.72,-75.36 457.4,-74.68 458.36,-78.77"/>
</g>
<!-- src/components/VideoCard.vue -->
<g id="node7" class="node">
<title>src/components/VideoCard.vue</title>
<g id="a_node7"><a xlink:href="src/components/VideoCard.vue" xlink:title="VideoCard.vue">
<path fill="#41f083" stroke="black" d="M421.58,-263.62C421.58,-263.62 358.42,-263.62 358.42,-263.62 355.21,-263.62 352,-260.42 352,-257.21 352,-257.21 352,-250.79 352,-250.79 352,-247.58 355.21,-244.38 358.42,-244.38 358.42,-244.38 421.58,-244.38 421.58,-244.38 424.79,-244.38 428,-247.58 428,-250.79 428,-250.79 428,-257.21 428,-257.21 428,-260.42 424.79,-263.62 421.58,-263.62"/>
<text text-anchor="start" x="360" y="-251.07" font-family="Helvetica,sans-Serif" font-size="9.00">VideoCard.vue</text>
</a>
</g>
</g>
<!-- src/views/VideoGallery.vue&#45;&gt;src/components/VideoCard.vue -->
<g id="edge28" class="edge">
<title>src/views/VideoGallery.vue&#45;&gt;src/components/VideoCard.vue</title>
<path fill="none" stroke="#000000" stroke-width="2" stroke-opacity="0.200000" d="M305.34,-160.57C308.21,-162.31 310.82,-164.43 313,-167 333.79,-191.59 299.48,-215.05 321,-239 326.76,-245.41 334.58,-249.41 342.87,-251.85"/>
<polygon fill="#000000" fill-opacity="0.200000" stroke="#000000" stroke-width="2" stroke-opacity="0.200000" points="342.34,-253.88 348.66,-253.18 343.28,-249.79 342.34,-253.88"/>
</g>
<!-- src/views/VideoGallery.vue&#45;&gt;src/stores/videosStore.ts -->
<g id="edge29" class="edge">
<title>src/views/VideoGallery.vue&#45;&gt;src/stores/videosStore.ts</title>
<path fill="none" stroke="#000000" stroke-width="2" stroke-opacity="0.200000" d="M305.23,-143.74C308.05,-142.12 310.69,-140.23 313,-138 320.8,-130.5 313.58,-122.88 321,-115 363.92,-69.48 402.68,-100.74 451,-61 455.95,-56.93 453.86,-52.83 459,-49 460.54,-47.85 462.17,-46.79 463.86,-45.82"/>
<polygon fill="#000000" fill-opacity="0.200000" stroke="#000000" stroke-width="2" stroke-opacity="0.200000" points="464.42,-47.88 468.88,-43.35 462.57,-44.11 464.42,-47.88"/>
</g>
<!-- src/assets/effects/FadeTransition.vue -->
<g id="node5" class="node">
<title>src/assets/effects/FadeTransition.vue</title>
<g id="a_node5"><a xlink:href="src/assets/effects/FadeTransition.vue" xlink:title="no&#45;orphans">
<path fill="#ccffcc" stroke="orange" d="M182.33,-235.62C182.33,-235.62 100.42,-235.62 100.42,-235.62 97.21,-235.62 94,-232.42 94,-229.21 94,-229.21 94,-222.79 94,-222.79 94,-219.58 97.21,-216.38 100.42,-216.38 100.42,-216.38 182.33,-216.38 182.33,-216.38 185.54,-216.38 188.75,-219.58 188.75,-222.79 188.75,-222.79 188.75,-229.21 188.75,-229.21 188.75,-232.42 185.54,-235.62 182.33,-235.62"/>
<text text-anchor="start" x="102" y="-223.07" font-family="Helvetica,sans-Serif" font-size="9.00" fill="orange">FadeTransition.vue</text>
</a>
</g>
</g>
<!-- src/assets/main.css -->
<g id="node6" class="node">
<title>src/assets/main.css</title>
<g id="a_node6"><a xlink:href="src/assets/main.css" xlink:title="main.css">
<path fill="#ffffcc" stroke="black" d="M162.08,-199.62C162.08,-199.62 120.67,-199.62 120.67,-199.62 117.46,-199.62 114.25,-196.42 114.25,-193.21 114.25,-193.21 114.25,-186.79 114.25,-186.79 114.25,-183.58 117.46,-180.38 120.67,-180.38 120.67,-180.38 162.08,-180.38 162.08,-180.38 165.29,-180.38 168.5,-183.58 168.5,-186.79 168.5,-186.79 168.5,-193.21 168.5,-193.21 168.5,-196.42 165.29,-199.62 162.08,-199.62"/>
<text text-anchor="start" x="122.25" y="-187.07" font-family="Helvetica,sans-Serif" font-size="9.00">main.css</text>
</a>
</g>
</g>
<!-- src/components/VideoEmbed.vue -->
<g id="node8" class="node">
<title>src/components/VideoEmbed.vue</title>
<g id="a_node8"><a xlink:href="src/components/VideoEmbed.vue" xlink:title="VideoEmbed.vue">
<path fill="#41f083" stroke="black" d="M545.58,-240.62C545.58,-240.62 472.67,-240.62 472.67,-240.62 469.46,-240.62 466.25,-237.42 466.25,-234.21 466.25,-234.21 466.25,-227.79 466.25,-227.79 466.25,-224.58 469.46,-221.38 472.67,-221.38 472.67,-221.38 545.58,-221.38 545.58,-221.38 548.79,-221.38 552,-224.58 552,-227.79 552,-227.79 552,-234.21 552,-234.21 552,-237.42 548.79,-240.62 545.58,-240.62"/>
<text text-anchor="start" x="474.25" y="-228.07" font-family="Helvetica,sans-Serif" font-size="9.00">VideoEmbed.vue</text>
</a>
</g>
</g>
<!-- src/components/VideoCard.vue&#45;&gt;src/components/VideoEmbed.vue -->
<g id="edge4" class="edge">
<title>src/components/VideoCard.vue&#45;&gt;src/components/VideoEmbed.vue</title>
<path fill="none" stroke="#000000" stroke-width="2" stroke-opacity="0.200000" d="M428.38,-246.66C437.5,-244.87 447.42,-242.92 457.06,-241.03"/>
<polygon fill="#000000" fill-opacity="0.200000" stroke="#000000" stroke-width="2" stroke-opacity="0.200000" points="457.35,-243.11 462.84,-239.89 456.55,-238.99 457.35,-243.11"/>
</g>
<!-- src/services/index.ts -->
<g id="node9" class="node">
<title>src/services/index.ts</title>
<g id="a_node9"><a xlink:href="src/services/index.ts" xlink:title="index.ts">
<path fill="#ddfeff" stroke="black" d="M623.58,-145.62C623.58,-145.62 582.42,-145.62 582.42,-145.62 579.21,-145.62 576,-142.42 576,-139.21 576,-139.21 576,-132.79 576,-132.79 576,-129.58 579.21,-126.38 582.42,-126.38 582.42,-126.38 623.58,-126.38 623.58,-126.38 626.79,-126.38 630,-129.58 630,-132.79 630,-132.79 630,-139.21 630,-139.21 630,-142.42 626.79,-145.62 623.58,-145.62"/>
<text text-anchor="start" x="587.25" y="-133.07" font-family="Helvetica,sans-Serif" font-size="9.00">index.ts</text>
</a>
</g>
</g>
<!-- src/components/VideoCard.vue&#45;&gt;src/services/index.ts -->
<g id="edge5" class="edge">
<title>src/components/VideoCard.vue&#45;&gt;src/services/index.ts</title>
<path fill="none" stroke="#000000" stroke-width="2" stroke-opacity="0.200000" d="M428.17,-257.08C471.48,-259.89 539.7,-261.65 560,-247 589.78,-225.51 598.45,-180.14 600.97,-154.56"/>
<polygon fill="#000000" fill-opacity="0.200000" stroke="#000000" stroke-width="2" stroke-opacity="0.200000" points="603.04,-154.98 601.43,-148.83 598.86,-154.64 603.04,-154.98"/>
</g>
<!-- src/services/Filters/index.ts -->
<g id="node15" class="node">
<title>src/services/Filters/index.ts</title>
<g id="a_node15"><a xlink:href="src/services/Filters/index.ts" xlink:title="index.ts">
<path fill="#ddfeff" stroke="black" d="M711.58,-51.62C711.58,-51.62 670.42,-51.62 670.42,-51.62 667.21,-51.62 664,-48.42 664,-45.21 664,-45.21 664,-38.79 664,-38.79 664,-35.58 667.21,-32.38 670.42,-32.38 670.42,-32.38 711.58,-32.38 711.58,-32.38 714.79,-32.38 718,-35.58 718,-38.79 718,-38.79 718,-45.21 718,-45.21 718,-48.42 714.79,-51.62 711.58,-51.62"/>
<text text-anchor="start" x="675.25" y="-39.08" font-family="Helvetica,sans-Serif" font-size="9.00">index.ts</text>
</a>
</g>
</g>
<!-- src/services/index.ts&#45;&gt;src/services/Filters/index.ts -->
<g id="edge21" class="edge">
<title>src/services/index.ts&#45;&gt;src/services/Filters/index.ts</title>
<path fill="none" stroke="#000000" stroke-width="2" stroke-opacity="0.200000" d="M607.8,-125.95C614.6,-109.22 630.41,-75.53 663.71,-49.9"/>
<polygon fill="#000000" fill-opacity="0.200000" stroke="#000000" stroke-width="2" stroke-opacity="0.200000" points="666.52,-48.51 670.42,-56.61 662.32,-52.71 666.52,-48.51"/>
</g>
<!-- src/services/StorageController/index.ts -->
<g id="node18" class="node">
<title>src/services/StorageController/index.ts</title>
<g id="a_node18"><a xlink:href="src/services/StorageController/index.ts" xlink:title="index.ts">
<path fill="#ddfeff" stroke="black" d="M807.58,-145.62C807.58,-145.62 766.42,-145.62 766.42,-145.62 763.21,-145.62 760,-142.42 760,-139.21 760,-139.21 760,-132.79 760,-132.79 760,-129.58 763.21,-126.38 766.42,-126.38 766.42,-126.38 807.58,-126.38 807.58,-126.38 810.79,-126.38 814,-129.58 814,-132.79 814,-132.79 814,-139.21 814,-139.21 814,-142.42 810.79,-145.62 807.58,-145.62"/>
<text text-anchor="start" x="771.25" y="-133.07" font-family="Helvetica,sans-Serif" font-size="9.00">index.ts</text>
</a>
</g>
</g>
<!-- src/services/index.ts&#45;&gt;src/services/StorageController/index.ts -->
<g id="edge22" class="edge">
<title>src/services/index.ts&#45;&gt;src/services/StorageController/index.ts</title>
<path fill="none" stroke="#000000" stroke-width="2" stroke-opacity="0.200000" d="M630.4,-131.61C637.99,-130.53 646.31,-129.54 654,-129 686.81,-126.71 695.17,-127.03 759.79,-132.16"/>
<polygon fill="#000000" fill-opacity="0.200000" stroke="#000000" stroke-width="2" stroke-opacity="0.200000" points="762.59,-130.77 766.49,-138.87 758.39,-134.97 762.59,-130.77"/>
</g>
<!-- src/services/VideoParsers/index.ts -->
<g id="node23" class="node">
<title>src/services/VideoParsers/index.ts</title>
<g id="a_node23"><a xlink:href="src/services/VideoParsers/index.ts" xlink:title="index.ts">
<path fill="#ddfeff" stroke="black" d="M711.58,-159.62C711.58,-159.62 670.42,-159.62 670.42,-159.62 667.21,-159.62 664,-156.42 664,-153.21 664,-153.21 664,-146.79 664,-146.79 664,-143.58 667.21,-140.38 670.42,-140.38 670.42,-140.38 711.58,-140.38 711.58,-140.38 714.79,-140.38 718,-143.58 718,-146.79 718,-146.79 718,-153.21 718,-153.21 718,-156.42 714.79,-159.62 711.58,-159.62"/>
<text text-anchor="start" x="675.25" y="-147.07" font-family="Helvetica,sans-Serif" font-size="9.00">index.ts</text>
</a>
</g>
</g>
<!-- src/services/index.ts&#45;&gt;src/services/VideoParsers/index.ts -->
<g id="edge23" class="edge">
<title>src/services/index.ts&#45;&gt;src/services/VideoParsers/index.ts</title>
<path fill="none" stroke="#000000" stroke-width="2" stroke-opacity="0.200000" d="M630.27,-140.28C640.84,-142 653.01,-143.98 663.59,-145.7"/>
<polygon fill="#000000" fill-opacity="0.200000" stroke="#000000" stroke-width="2" stroke-opacity="0.200000" points="666.4,-144.31 670.3,-152.41 662.2,-148.51 666.4,-144.31"/>
</g>
<!-- src/components/inputs/FolderSelector.vue&#45;&gt;src/services/index.ts -->
<g id="edge6" class="edge">
<title>src/components/inputs/FolderSelector.vue&#45;&gt;src/services/index.ts</title>
<path fill="none" stroke="#000000" stroke-width="2" stroke-opacity="0.200000" d="M436.52,-136C475.61,-136 531.15,-136 566.88,-136"/>
<polygon fill="#000000" fill-opacity="0.200000" stroke="#000000" stroke-width="2" stroke-opacity="0.200000" points="566.49,-138.1 572.49,-136 566.49,-133.9 566.49,-138.1"/>
</g>
<!-- src/components/inputs/FolderSelector.vue&#45;&gt;src/stores/videosStore.ts -->
<g id="edge7" class="edge">
<title>src/components/inputs/FolderSelector.vue&#45;&gt;src/stores/videosStore.ts</title>
<path fill="none" stroke="#000000" stroke-width="2" stroke-opacity="0.200000" d="M417.21,-125.96C429.38,-119.96 442.92,-111.11 451,-99 463.49,-80.28 444.22,-65.97 459,-49 460.49,-47.29 462.16,-45.78 463.97,-44.43"/>
<polygon fill="#000000" fill-opacity="0.200000" stroke="#000000" stroke-width="2" stroke-opacity="0.200000" points="464.77,-46.4 468.9,-41.56 462.66,-42.77 464.77,-46.4"/>
</g>
<!-- src/stores/videosStore.ts&#45;&gt;src/services/index.ts -->
<g id="edge24" class="edge">
<title>src/stores/videosStore.ts&#45;&gt;src/services/index.ts</title>
<path fill="none" stroke="#000000" stroke-width="2" stroke-opacity="0.200000" d="M546.83,-41.14C551.6,-43.15 556.15,-45.71 560,-49 580.94,-66.87 592.29,-97.59 597.75,-117.34"/>
<polygon fill="#000000" fill-opacity="0.200000" stroke="#000000" stroke-width="2" stroke-opacity="0.200000" points="595.7,-117.82 599.22,-123.11 599.77,-116.78 595.7,-117.82"/>
</g>
<!-- src/main.ts -->
<g id="node13" class="node">
<title>src/main.ts</title>
<g id="a_node13"><a xlink:href="src/main.ts" xlink:title="main.ts">
<path fill="#ddfeff" stroke="black" d="M63.58,-199.62C63.58,-199.62 22.42,-199.62 22.42,-199.62 19.21,-199.62 16,-196.42 16,-193.21 16,-193.21 16,-186.79 16,-186.79 16,-183.58 19.21,-180.38 22.42,-180.38 22.42,-180.38 63.58,-180.38 63.58,-180.38 66.79,-180.38 70,-183.58 70,-186.79 70,-186.79 70,-193.21 70,-193.21 70,-196.42 66.79,-199.62 63.58,-199.62"/>
<text text-anchor="start" x="27.62" y="-187.07" font-family="Helvetica,sans-Serif" font-size="9.00">main.ts</text>
</a>
</g>
</g>
<!-- src/main.ts&#45;&gt;src/App.vue -->
<g id="edge9" class="edge">
<title>src/main.ts&#45;&gt;src/App.vue</title>
<path fill="none" stroke="#000000" stroke-width="2" stroke-opacity="0.200000" d="M58.04,-180C63.98,-176.13 71.1,-171.93 78,-169 86.65,-165.32 96.35,-162.33 105.48,-159.97"/>
<polygon fill="#000000" fill-opacity="0.200000" stroke="#000000" stroke-width="2" stroke-opacity="0.200000" points="105.72,-162.08 111.06,-158.62 104.73,-157.99 105.72,-162.08"/>
</g>
<!-- src/main.ts&#45;&gt;src/assets/main.css -->
<g id="edge10" class="edge">
<title>src/main.ts&#45;&gt;src/assets/main.css</title>
<path fill="none" stroke="#000000" stroke-width="2" stroke-opacity="0.200000" d="M70.33,-190C81.07,-190 93.63,-190 105.13,-190"/>
<polygon fill="#000000" fill-opacity="0.200000" stroke="#000000" stroke-width="2" stroke-opacity="0.200000" points="105.04,-192.1 111.04,-190 105.04,-187.9 105.04,-192.1"/>
</g>
<!-- src/main.ts&#45;&gt;src/services/index.ts -->
<g id="edge11" class="edge">
<title>src/main.ts&#45;&gt;src/services/index.ts</title>
<path fill="none" stroke="#000000" stroke-width="2" stroke-opacity="0.200000" d="M45.45,-199.95C48.41,-216.44 56.75,-249.29 78,-266 143.32,-317.38 178.77,-300 261.88,-300 261.88,-300 261.88,-300 391,-300 466.16,-300 501.24,-340.86 560,-294 581.89,-276.54 594.98,-192.16 599.84,-154.37"/>
<polygon fill="#000000" fill-opacity="0.200000" stroke="#000000" stroke-width="2" stroke-opacity="0.200000" points="601.87,-155.05 600.52,-148.84 597.7,-154.53 601.87,-155.05"/>
</g>
<!-- src/services/Filters/Filters.ts -->
<g id="node14" class="node">
<title>src/services/Filters/Filters.ts</title>
<g id="a_node14"><a xlink:href="src/services/Filters/Filters.ts" xlink:title="Filters.ts">
<path fill="#ddfeff" stroke="black" d="M807.58,-51.62C807.58,-51.62 766.42,-51.62 766.42,-51.62 763.21,-51.62 760,-48.42 760,-45.21 760,-45.21 760,-38.79 760,-38.79 760,-35.58 763.21,-32.38 766.42,-32.38 766.42,-32.38 807.58,-32.38 807.58,-32.38 810.79,-32.38 814,-35.58 814,-38.79 814,-38.79 814,-45.21 814,-45.21 814,-48.42 810.79,-51.62 807.58,-51.62"/>
<text text-anchor="start" x="769.38" y="-39.08" font-family="Helvetica,sans-Serif" font-size="9.00">Filters.ts</text>
</a>
</g>
</g>
<!-- src/services/Filters/index.ts&#45;&gt;src/services/Filters/Filters.ts -->
<g id="edge12" class="edge">
<title>src/services/Filters/index.ts&#45;&gt;src/services/Filters/Filters.ts</title>
<path fill="none" stroke="#000000" stroke-width="2" stroke-opacity="0.200000" d="M718.43,-42C731.36,-42 746.87,-42 759.76,-42"/>
<polygon fill="#000000" fill-opacity="0.200000" stroke="#000000" stroke-width="2" stroke-opacity="0.200000" points="762.57,-40.61 766.47,-48.71 758.37,-44.81 762.57,-40.61"/>
</g>
<!-- src/services/StorageController/VideoMetadataController.ts -->
<g id="node16" class="node">
<title>src/services/StorageController/VideoMetadataController.ts</title>
<g id="a_node16"><a xlink:href="src/services/StorageController/VideoMetadataController.ts" xlink:title="VideoMetadataController.ts">
<path fill="#ddfeff" stroke="black" d="M950.58,-145.62C950.58,-145.62 836.42,-145.62 836.42,-145.62 833.21,-145.62 830,-142.42 830,-139.21 830,-139.21 830,-132.79 830,-132.79 830,-129.58 833.21,-126.38 836.42,-126.38 836.42,-126.38 950.58,-126.38 950.58,-126.38 953.79,-126.38 957,-129.58 957,-132.79 957,-132.79 957,-139.21 957,-139.21 957,-142.42 953.79,-145.62 950.58,-145.62"/>
<text text-anchor="start" x="838" y="-133.07" font-family="Helvetica,sans-Serif" font-size="9.00">VideoMetadataController.ts</text>
</a>
</g>
</g>
<!-- src/services/StorageController/migrations/index.ts -->
<g id="node17" class="node">
<title>src/services/StorageController/migrations/index.ts</title>
<g id="a_node17"><a xlink:href="src/services/StorageController/migrations/index.ts" xlink:title="index.ts">
<path fill="#ddfeff" stroke="black" d="M1020.58,-145.62C1020.58,-145.62 979.42,-145.62 979.42,-145.62 976.21,-145.62 973,-142.42 973,-139.21 973,-139.21 973,-132.79 973,-132.79 973,-129.58 976.21,-126.38 979.42,-126.38 979.42,-126.38 1020.58,-126.38 1020.58,-126.38 1023.79,-126.38 1027,-129.58 1027,-132.79 1027,-132.79 1027,-139.21 1027,-139.21 1027,-142.42 1023.79,-145.62 1020.58,-145.62"/>
<text text-anchor="start" x="984.25" y="-133.07" font-family="Helvetica,sans-Serif" font-size="9.00">index.ts</text>
</a>
</g>
</g>
<!-- src/services/StorageController/VideoMetadataController.ts&#45;&gt;src/services/StorageController/migrations/index.ts -->
<g id="edge13" class="edge">
<title>src/services/StorageController/VideoMetadataController.ts&#45;&gt;src/services/StorageController/migrations/index.ts</title>
<path fill="none" stroke="#000000" stroke-width="2" stroke-opacity="0.200000" d="M957.4,-136C959.58,-136 961.73,-136 963.84,-136"/>
<polygon fill="#000000" fill-opacity="0.200000" stroke="#000000" stroke-width="2" stroke-opacity="0.200000" points="963.74,-138.1 969.74,-136 963.74,-133.9 963.74,-138.1"/>
</g>
<!-- src/services/StorageController/migrations/migrations.ts -->
<g id="node19" class="node">
<title>src/services/StorageController/migrations/migrations.ts</title>
<g id="a_node19"><a xlink:href="src/services/StorageController/migrations/migrations.ts" xlink:title="migrations.ts">
<path fill="#ddfeff" stroke="black" d="M1103.58,-145.62C1103.58,-145.62 1046.42,-145.62 1046.42,-145.62 1043.21,-145.62 1040,-142.42 1040,-139.21 1040,-139.21 1040,-132.79 1040,-132.79 1040,-129.58 1043.21,-126.38 1046.42,-126.38 1046.42,-126.38 1103.58,-126.38 1103.58,-126.38 1106.79,-126.38 1110,-129.58 1110,-132.79 1110,-132.79 1110,-139.21 1110,-139.21 1110,-142.42 1106.79,-145.62 1103.58,-145.62"/>
<text text-anchor="start" x="1048" y="-133.07" font-family="Helvetica,sans-Serif" font-size="9.00">migrations.ts</text>
</a>
</g>
</g>
<!-- src/services/StorageController/migrations/index.ts&#45;&gt;src/services/StorageController/migrations/migrations.ts -->
<g id="edge15" class="edge">
<title>src/services/StorageController/migrations/index.ts&#45;&gt;src/services/StorageController/migrations/migrations.ts</title>
<path fill="none" stroke="#000000" stroke-width="2" stroke-opacity="0.200000" d="M1027.35,-136C1031.36,-136 1035.54,-136 1039.68,-136"/>
<polygon fill="#000000" fill-opacity="0.200000" stroke="#000000" stroke-width="2" stroke-opacity="0.200000" points="1042.48,-134.61 1046.38,-142.71 1038.28,-138.81 1042.48,-134.61"/>
</g>
<!-- src/services/StorageController/index.ts&#45;&gt;src/services/StorageController/VideoMetadataController.ts -->
<g id="edge14" class="edge">
<title>src/services/StorageController/index.ts&#45;&gt;src/services/StorageController/VideoMetadataController.ts</title>
<path fill="none" stroke="#000000" stroke-width="2" stroke-opacity="0.200000" d="M814.37,-136C816.49,-136 818.68,-136 820.93,-136"/>
<polygon fill="#000000" fill-opacity="0.200000" stroke="#000000" stroke-width="2" stroke-opacity="0.200000" points="820.8,-138.1 826.8,-136 820.8,-133.9 820.8,-138.1"/>
</g>
<!-- src/services/StorageController/migrations/v1/index.ts -->
<g id="node20" class="node">
<title>src/services/StorageController/migrations/v1/index.ts</title>
<g id="a_node20"><a xlink:href="src/services/StorageController/migrations/v1/index.ts" xlink:title="index.ts">
<path fill="#ddfeff" stroke="black" d="M1173.58,-130.62C1173.58,-130.62 1132.42,-130.62 1132.42,-130.62 1129.21,-130.62 1126,-127.42 1126,-124.21 1126,-124.21 1126,-117.79 1126,-117.79 1126,-114.58 1129.21,-111.38 1132.42,-111.38 1132.42,-111.38 1173.58,-111.38 1173.58,-111.38 1176.79,-111.38 1180,-114.58 1180,-117.79 1180,-117.79 1180,-124.21 1180,-124.21 1180,-127.42 1176.79,-130.62 1173.58,-130.62"/>
<text text-anchor="start" x="1137.25" y="-118.08" font-family="Helvetica,sans-Serif" font-size="9.00">index.ts</text>
</a>
</g>
</g>
<!-- src/services/StorageController/migrations/migrations.ts&#45;&gt;src/services/StorageController/migrations/v1/index.ts -->
<g id="edge16" class="edge">
<title>src/services/StorageController/migrations/migrations.ts&#45;&gt;src/services/StorageController/migrations/v1/index.ts</title>
<path fill="none" stroke="#000000" stroke-width="2" stroke-opacity="0.200000" d="M1110.44,-129.2C1112.71,-128.75 1115,-128.3 1117.26,-127.86"/>
<polygon fill="#000000" fill-opacity="0.200000" stroke="#000000" stroke-width="2" stroke-opacity="0.200000" points="1117.42,-129.97 1122.9,-126.74 1116.61,-125.84 1117.42,-129.97"/>
</g>
<!-- src/services/StorageController/migrations/v2/index.ts -->
<g id="node21" class="node">
<title>src/services/StorageController/migrations/v2/index.ts</title>
<g id="a_node21"><a xlink:href="src/services/StorageController/migrations/v2/index.ts" xlink:title="index.ts">
<path fill="#ddfeff" stroke="black" d="M1173.58,-193.62C1173.58,-193.62 1132.42,-193.62 1132.42,-193.62 1129.21,-193.62 1126,-190.42 1126,-187.21 1126,-187.21 1126,-180.79 1126,-180.79 1126,-177.58 1129.21,-174.38 1132.42,-174.38 1132.42,-174.38 1173.58,-174.38 1173.58,-174.38 1176.79,-174.38 1180,-177.58 1180,-180.79 1180,-180.79 1180,-187.21 1180,-187.21 1180,-190.42 1176.79,-193.62 1173.58,-193.62"/>
<text text-anchor="start" x="1137.25" y="-181.07" font-family="Helvetica,sans-Serif" font-size="9.00">index.ts</text>
</a>
</g>
</g>
<!-- src/services/StorageController/migrations/migrations.ts&#45;&gt;src/services/StorageController/migrations/v2/index.ts -->
<g id="edge17" class="edge">
<title>src/services/StorageController/migrations/migrations.ts&#45;&gt;src/services/StorageController/migrations/v2/index.ts</title>
<path fill="none" stroke="#000000" stroke-width="2" stroke-opacity="0.200000" d="M1091.75,-145.95C1102.38,-152.66 1116.59,-161.64 1128.54,-169.19"/>
<polygon fill="#000000" fill-opacity="0.200000" stroke="#000000" stroke-width="2" stroke-opacity="0.200000" points="1127.26,-170.86 1133.45,-172.29 1129.5,-167.31 1127.26,-170.86"/>
</g>
<!-- src/services/StorageController/migrations/utils/index.ts -->
<g id="node22" class="node">
<title>src/services/StorageController/migrations/utils/index.ts</title>
<g id="a_node22"><a xlink:href="src/services/StorageController/migrations/utils/index.ts" xlink:title="index.ts">
<path fill="#ddfeff" stroke="black" d="M1251.58,-161.62C1251.58,-161.62 1210.42,-161.62 1210.42,-161.62 1207.21,-161.62 1204,-158.42 1204,-155.21 1204,-155.21 1204,-148.79 1204,-148.79 1204,-145.58 1207.21,-142.38 1210.42,-142.38 1210.42,-142.38 1251.58,-142.38 1251.58,-142.38 1254.79,-142.38 1258,-145.58 1258,-148.79 1258,-148.79 1258,-155.21 1258,-155.21 1258,-158.42 1254.79,-161.62 1251.58,-161.62"/>
<text text-anchor="start" x="1215.25" y="-149.07" font-family="Helvetica,sans-Serif" font-size="9.00">index.ts</text>
</a>
</g>
</g>
<!-- src/services/StorageController/migrations/v1/index.ts&#45;&gt;src/services/StorageController/migrations/utils/index.ts -->
<g id="edge18" class="edge">
<title>src/services/StorageController/migrations/v1/index.ts&#45;&gt;src/services/StorageController/migrations/utils/index.ts</title>
<path fill="none" stroke="#000000" stroke-width="2" stroke-opacity="0.200000" d="M1178.47,-130.98C1184.37,-133.39 1190.78,-136 1197.01,-138.54"/>
<polygon fill="#000000" fill-opacity="0.200000" stroke="#000000" stroke-width="2" stroke-opacity="0.200000" points="1196.17,-140.47 1202.52,-140.79 1197.75,-136.58 1196.17,-140.47"/>
</g>
<!-- src/services/StorageController/migrations/v2/index.ts&#45;&gt;src/services/StorageController/migrations/utils/index.ts -->
<g id="edge19" class="edge">
<title>src/services/StorageController/migrations/v2/index.ts&#45;&gt;src/services/StorageController/migrations/utils/index.ts</title>
<path fill="none" stroke="#000000" stroke-width="2" stroke-opacity="0.200000" d="M1178.05,-173.88C1184.35,-171.22 1191.24,-168.32 1197.89,-165.52"/>
<polygon fill="#000000" fill-opacity="0.200000" stroke="#000000" stroke-width="2" stroke-opacity="0.200000" points="1198.6,-167.5 1203.32,-163.23 1196.97,-163.63 1198.6,-167.5"/>
</g>
<!-- src/services/VideoParsers/index.ts&#45;&gt;src/services/StorageController/index.ts -->
<g id="edge20" class="edge">
<title>src/services/VideoParsers/index.ts&#45;&gt;src/services/StorageController/index.ts</title>
<path fill="none" stroke="#000000" stroke-width="2" stroke-opacity="0.200000" d="M718.43,-146.06C728.53,-144.56 740.21,-142.82 750.98,-141.22"/>
<polygon fill="#000000" fill-opacity="0.200000" stroke="#000000" stroke-width="2" stroke-opacity="0.200000" points="751.14,-143.31 756.77,-140.35 750.53,-139.16 751.14,-143.31"/>
</g>
</g>
</svg>
