<?xml version="1.0" encoding="UTF-8" standalone="no"?>
<!DOCTYPE svg PUBLIC "-//W3C//DTD SVG 1.1//EN"
 "http://www.w3.org/Graphics/SVG/1.1/DTD/svg11.dtd">
<!-- Generated by graphviz version 9.0.0 (20230911.1827)
 -->
<!-- Title: dependency&#45;cruiser output Pages: 1 -->
<svg width="1209pt" height="345pt"
 viewBox="0.00 0.00 1209.00 345.00" xmlns="http://www.w3.org/2000/svg" xmlns:xlink="http://www.w3.org/1999/xlink">
<g id="graph0" class="graph" transform="scale(1 1) rotate(0) translate(4 341)">
<title>dependency&#45;cruiser output</title>
<polygon fill="white" stroke="none" points="-4,4 -4,-341 1205,-341 1205,4 -4,4"/>
<g id="clust1" class="cluster">
<title>cluster_src</title>
<path fill="#ffffff" stroke="black" stroke-width="2" d="M20,-8C20,-8 1181,-8 1181,-8 1187,-8 1193,-14 1193,-20 1193,-20 1193,-317 1193,-317 1193,-323 1187,-329 1181,-329 1181,-329 20,-329 20,-329 14,-329 8,-323 8,-317 8,-317 8,-20 8,-20 8,-14 14,-8 20,-8"/>
<text text-anchor="middle" x="600.5" y="-316.45" font-family="Helvetica,sans-Serif" font-weight="bold" font-size="9.00">src</text>
</g>
<g id="clust2" class="cluster">
<title>cluster_src/assets</title>
<path fill="#ffffff" stroke="black" stroke-width="2" d="M90,-183C90,-183 192.75,-183 192.75,-183 198.75,-183 204.75,-189 204.75,-195 204.75,-195 204.75,-289 204.75,-289 204.75,-295 198.75,-301 192.75,-301 192.75,-301 90,-301 90,-301 84,-301 78,-295 78,-289 78,-289 78,-195 78,-195 78,-189 84,-183 90,-183"/>
<text text-anchor="middle" x="141.38" y="-288.45" font-family="Helvetica,sans-Serif" font-weight="bold" font-size="9.00">assets</text>
</g>
<g id="clust3" class="cluster">
<title>cluster_src/assets/effects</title>
<path fill="#ffffff" stroke="black" stroke-width="2" d="M98,-219C98,-219 184.75,-219 184.75,-219 190.75,-219 196.75,-225 196.75,-231 196.75,-231 196.75,-262 196.75,-262 196.75,-268 190.75,-274 184.75,-274 184.75,-274 98,-274 98,-274 92,-274 86,-268 86,-262 86,-262 86,-231 86,-231 86,-225 92,-219 98,-219"/>
<text text-anchor="middle" x="141.38" y="-261.45" font-family="Helvetica,sans-Serif" font-weight="bold" font-size="9.00">effects</text>
</g>
<g id="clust4" class="cluster">
<title>cluster_src/components</title>
<path fill="#ffffff" stroke="black" stroke-width="2" d="M224.75,-110C224.75,-110 560,-110 560,-110 566,-110 572,-116 572,-122 572,-122 572,-244 572,-244 572,-250 566,-256 560,-256 560,-256 224.75,-256 224.75,-256 218.75,-256 212.75,-250 212.75,-244 212.75,-244 212.75,-122 212.75,-122 212.75,-116 218.75,-110 224.75,-110"/>
<text text-anchor="middle" x="392.38" y="-243.45" font-family="Helvetica,sans-Serif" font-weight="bold" font-size="9.00">components</text>
</g>
<g id="clust5" class="cluster">
<title>cluster_src/components/FolderSelector</title>
<path fill="#ffffff" stroke="black" stroke-width="2" d="M362.75,-152C362.75,-152 552,-152 552,-152 558,-152 564,-158 564,-164 564,-164 564,-195 564,-195 564,-201 558,-207 552,-207 552,-207 362.75,-207 362.75,-207 356.75,-207 350.75,-201 350.75,-195 350.75,-195 350.75,-164 350.75,-164 350.75,-158 356.75,-152 362.75,-152"/>
<text text-anchor="middle" x="457.38" y="-194.45" font-family="Helvetica,sans-Serif" font-weight="bold" font-size="9.00">FolderSelector</text>
</g>
<g id="clust6" class="cluster">
<title>cluster_src/components/utils</title>
<path fill="#ffffff" stroke="black" stroke-width="2" d="M232.75,-146C232.75,-146 330.75,-146 330.75,-146 336.75,-146 342.75,-152 342.75,-158 342.75,-158 342.75,-189 342.75,-189 342.75,-195 336.75,-201 330.75,-201 330.75,-201 232.75,-201 232.75,-201 226.75,-201 220.75,-195 220.75,-189 220.75,-189 220.75,-158 220.75,-158 220.75,-152 226.75,-146 232.75,-146"/>
<text text-anchor="middle" x="281.75" y="-188.45" font-family="Helvetica,sans-Serif" font-weight="bold" font-size="9.00">utils</text>
</g>
<g id="clust7" class="cluster">
<title>cluster_src/services</title>
<path fill="#ffffff" stroke="black" stroke-width="2" d="M592,-16C592,-16 1173,-16 1173,-16 1179,-16 1185,-22 1185,-28 1185,-28 1185,-290 1185,-290 1185,-296 1179,-302 1173,-302 1173,-302 592,-302 592,-302 586,-302 580,-296 580,-290 580,-290 580,-28 580,-28 580,-22 586,-16 592,-16"/>
<text text-anchor="middle" x="882.5" y="-289.45" font-family="Helvetica,sans-Serif" font-weight="bold" font-size="9.00">services</text>
</g>
<g id="clust9" class="cluster">
<title>cluster_src/services/StorageController</title>
<path fill="#ffffff" stroke="black" stroke-width="2" d="M662,-87C662,-87 1165,-87 1165,-87 1171,-87 1177,-93 1177,-99 1177,-99 1177,-263 1177,-263 1177,-269 1171,-275 1165,-275 1165,-275 662,-275 662,-275 656,-275 650,-269 650,-263 650,-263 650,-99 650,-99 650,-93 656,-87 662,-87"/>
<text text-anchor="middle" x="913.5" y="-262.45" font-family="Helvetica,sans-Serif" font-weight="bold" font-size="9.00">StorageController</text>
</g>
<g id="clust10" class="cluster">
<title>cluster_src/services/StorageController/migrations</title>
<path fill="#ffffff" stroke="black" stroke-width="2" d="M872,-95C872,-95 1157,-95 1157,-95 1163,-95 1169,-101 1169,-107 1169,-107 1169,-236 1169,-236 1169,-242 1163,-248 1157,-248 1157,-248 872,-248 872,-248 866,-248 860,-242 860,-236 860,-236 860,-107 860,-107 860,-101 866,-95 872,-95"/>
<text text-anchor="middle" x="1014.5" y="-235.45" font-family="Helvetica,sans-Serif" font-weight="bold" font-size="9.00">migrations</text>
</g>
<g id="clust13" class="cluster">
<title>cluster_src/services/StorageController/migrations/v2</title>
<path fill="#ffffff" stroke="black" stroke-width="2" d="M1025,-166C1025,-166 1071,-166 1071,-166 1077,-166 1083,-172 1083,-178 1083,-178 1083,-209 1083,-209 1083,-215 1077,-221 1071,-221 1071,-221 1025,-221 1025,-221 1019,-221 1013,-215 1013,-209 1013,-209 1013,-178 1013,-178 1013,-172 1019,-166 1025,-166"/>
<text text-anchor="middle" x="1048" y="-208.45" font-family="Helvetica,sans-Serif" font-weight="bold" font-size="9.00">v2</text>
</g>
<g id="clust12" class="cluster">
<title>cluster_src/services/StorageController/migrations/v1</title>
<path fill="#ffffff" stroke="black" stroke-width="2" d="M1025,-103C1025,-103 1071,-103 1071,-103 1077,-103 1083,-109 1083,-115 1083,-115 1083,-146 1083,-146 1083,-152 1077,-158 1071,-158 1071,-158 1025,-158 1025,-158 1019,-158 1013,-152 1013,-146 1013,-146 1013,-115 1013,-115 1013,-109 1019,-103 1025,-103"/>
<text text-anchor="middle" x="1048" y="-145.45" font-family="Helvetica,sans-Serif" font-weight="bold" font-size="9.00">v1</text>
</g>
<g id="clust11" class="cluster">
<title>cluster_src/services/StorageController/migrations/utils</title>
<path fill="#ffffff" stroke="black" stroke-width="2" d="M1103,-134C1103,-134 1149,-134 1149,-134 1155,-134 1161,-140 1161,-146 1161,-146 1161,-177 1161,-177 1161,-183 1155,-189 1149,-189 1149,-189 1103,-189 1103,-189 1097,-189 1091,-183 1091,-177 1091,-177 1091,-146 1091,-146 1091,-140 1097,-134 1103,-134"/>
<text text-anchor="middle" x="1126" y="-176.45" font-family="Helvetica,sans-Serif" font-weight="bold" font-size="9.00">utils</text>
</g>
<g id="clust8" class="cluster">
<title>cluster_src/services/Filters</title>
<path fill="#ffffff" stroke="black" stroke-width="2" d="M662,-24C662,-24 811.5,-24 811.5,-24 817.5,-24 823.5,-30 823.5,-36 823.5,-36 823.5,-67 823.5,-67 823.5,-73 817.5,-79 811.5,-79 811.5,-79 662,-79 662,-79 656,-79 650,-73 650,-67 650,-67 650,-36 650,-36 650,-30 656,-24 662,-24"/>
<text text-anchor="middle" x="736.75" y="-66.45" font-family="Helvetica,sans-Serif" font-weight="bold" font-size="9.00">Filters</text>
</g>
<g id="clust14" class="cluster">
<title>cluster_src/stores</title>
<path fill="#ffffff" stroke="black" stroke-width="2" d="M472,-16C472,-16 548.25,-16 548.25,-16 554.25,-16 560.25,-22 560.25,-28 560.25,-28 560.25,-90 560.25,-90 560.25,-96 554.25,-102 548.25,-102 548.25,-102 472,-102 472,-102 466,-102 460,-96 460,-90 460,-90 460,-28 460,-28 460,-22 466,-16 472,-16"/>
<text text-anchor="middle" x="510.12" y="-89.45" font-family="Helvetica,sans-Serif" font-weight="bold" font-size="9.00">stores</text>
</g>
<!-- src/App.vue -->
<g id="node1" class="node">
<title>src/App.vue</title>
<g id="a_node1"><a xlink:href="src/App.vue" xlink:title="App.vue">
<path fill="#41f083" stroke="black" d="M161.96,-174.62C161.96,-174.62 120.79,-174.62 120.79,-174.62 117.58,-174.62 114.38,-171.42 114.38,-168.21 114.38,-168.21 114.38,-161.79 114.38,-161.79 114.38,-158.58 117.58,-155.38 120.79,-155.38 120.79,-155.38 161.96,-155.38 161.96,-155.38 165.17,-155.38 168.38,-158.58 168.38,-161.79 168.38,-161.79 168.38,-168.21 168.38,-168.21 168.38,-171.42 165.17,-174.62 161.96,-174.62"/>
<text text-anchor="start" x="125.25" y="-162.07" font-family="Helvetica,sans-Serif" font-size="9.00">App.vue</text>
</a>
</g>
</g>
<!-- src/components/NavBar.vue -->
<g id="node2" class="node">
<title>src/components/NavBar.vue</title>
<g id="a_node2"><a xlink:href="src/components/NavBar.vue" xlink:title="NavBar.vue">
<path fill="#41f083" stroke="black" d="M306.58,-137.62C306.58,-137.62 256.92,-137.62 256.92,-137.62 253.71,-137.62 250.5,-134.42 250.5,-131.21 250.5,-131.21 250.5,-124.79 250.5,-124.79 250.5,-121.58 253.71,-118.38 256.92,-118.38 256.92,-118.38 306.58,-118.38 306.58,-118.38 309.79,-118.38 313,-121.58 313,-124.79 313,-124.79 313,-131.21 313,-131.21 313,-134.42 309.79,-137.62 306.58,-137.62"/>
<text text-anchor="start" x="258.5" y="-125.08" font-family="Helvetica,sans-Serif" font-size="9.00">NavBar.vue</text>
</a>
</g>
</g>
<!-- src/App.vue&#45;&gt;src/components/NavBar.vue -->
<g id="edge1" class="edge">
<title>src/App.vue&#45;&gt;src/components/NavBar.vue</title>
<path fill="none" stroke="#000000" stroke-width="2" stroke-opacity="0.200000" d="M168.62,-156.21C181.79,-151.95 198.03,-146.92 212.75,-143 221.96,-140.55 231.94,-138.19 241.35,-136.09"/>
<polygon fill="#000000" fill-opacity="0.200000" stroke="#000000" stroke-width="2" stroke-opacity="0.200000" points="241.78,-138.15 247.19,-134.81 240.88,-134.04 241.78,-138.15"/>
</g>
<!-- src/components/utils/DiagnosticsPanel.vue -->
<g id="node3" class="node">
<title>src/components/utils/DiagnosticsPanel.vue</title>
<g id="a_node3"><a xlink:href="src/components/utils/DiagnosticsPanel.vue" xlink:title="DiagnosticsPanel.vue">
<path fill="#41f083" stroke="black" d="M328.33,-173.62C328.33,-173.62 235.17,-173.62 235.17,-173.62 231.96,-173.62 228.75,-170.42 228.75,-167.21 228.75,-167.21 228.75,-160.79 228.75,-160.79 228.75,-157.58 231.96,-154.38 235.17,-154.38 235.17,-154.38 328.33,-154.38 328.33,-154.38 331.54,-154.38 334.75,-157.58 334.75,-160.79 334.75,-160.79 334.75,-167.21 334.75,-167.21 334.75,-170.42 331.54,-173.62 328.33,-173.62"/>
<text text-anchor="start" x="236.75" y="-161.07" font-family="Helvetica,sans-Serif" font-size="9.00">DiagnosticsPanel.vue</text>
</a>
</g>
</g>
<!-- src/App.vue&#45;&gt;src/components/utils/DiagnosticsPanel.vue -->
<g id="edge2" class="edge">
<title>src/App.vue&#45;&gt;src/components/utils/DiagnosticsPanel.vue</title>
<path fill="none" stroke="#000000" stroke-width="2" stroke-opacity="0.200000" d="M168.73,-164.81C183.22,-164.7 201.84,-164.57 219.72,-164.44"/>
<polygon fill="#000000" fill-opacity="0.200000" stroke="#000000" stroke-width="2" stroke-opacity="0.200000" points="219.41,-166.54 225.39,-164.4 219.38,-162.34 219.41,-166.54"/>
</g>
<!-- src/components/VideoGallery.vue -->
<g id="node4" class="node">
<title>src/components/VideoGallery.vue</title>
<g id="a_node4"><a xlink:href="src/components/VideoGallery.vue" xlink:title="VideoGallery.vue">
<path fill="#41f083" stroke="black" d="M317.46,-228.62C317.46,-228.62 246.04,-228.62 246.04,-228.62 242.83,-228.62 239.62,-225.42 239.62,-222.21 239.62,-222.21 239.62,-215.79 239.62,-215.79 239.62,-212.58 242.83,-209.38 246.04,-209.38 246.04,-209.38 317.46,-209.38 317.46,-209.38 320.67,-209.38 323.88,-212.58 323.88,-215.79 323.88,-215.79 323.88,-222.21 323.88,-222.21 323.88,-225.42 320.67,-228.62 317.46,-228.62"/>
<text text-anchor="start" x="247.62" y="-216.07" font-family="Helvetica,sans-Serif" font-size="9.00">VideoGallery.vue</text>
</a>
</g>
</g>
<!-- src/App.vue&#45;&gt;src/components/VideoGallery.vue -->
<g id="edge3" class="edge">
<title>src/App.vue&#45;&gt;src/components/VideoGallery.vue</title>
<path fill="none" stroke="#000000" stroke-width="2" stroke-opacity="0.200000" d="M168.77,-165.63C181.06,-167.23 195.07,-171.11 204.75,-180 213.03,-187.6 204.39,-196.48 212.75,-204 217.93,-208.66 224.23,-211.99 230.87,-214.34"/>
<polygon fill="#000000" fill-opacity="0.200000" stroke="#000000" stroke-width="2" stroke-opacity="0.200000" points="230.17,-216.32 236.51,-215.98 231.34,-212.29 230.17,-216.32"/>
</g>
<!-- src/services/StorageController/index.ts -->
<g id="node5" class="node">
<title>src/services/StorageController/index.ts</title>
<g id="a_node5"><a xlink:href="src/services/StorageController/index.ts" xlink:title="index.ts">
<path fill="#ddfeff" stroke="black" d="M705.58,-162.62C705.58,-162.62 664.42,-162.62 664.42,-162.62 661.21,-162.62 658,-159.42 658,-156.21 658,-156.21 658,-149.79 658,-149.79 658,-146.58 661.21,-143.38 664.42,-143.38 664.42,-143.38 705.58,-143.38 705.58,-143.38 708.79,-143.38 712,-146.58 712,-149.79 712,-149.79 712,-156.21 712,-156.21 712,-159.42 708.79,-162.62 705.58,-162.62"/>
<text text-anchor="start" x="669.25" y="-150.07" font-family="Helvetica,sans-Serif" font-size="9.00">index.ts</text>
</a>
</g>
</g>
<!-- src/App.vue&#45;&gt;src/services/StorageController/index.ts -->
<g id="edge4" class="edge">
<title>src/App.vue&#45;&gt;src/services/StorageController/index.ts</title>
<path fill="none" stroke="#000000" stroke-width="2" stroke-opacity="0.200000" d="M168.72,-164.65C181.47,-165.94 195.89,-169.85 204.75,-180 216.36,-193.29 199.85,-246.96 212.75,-259 274.94,-317.01 318.96,-265 404,-265 404,-265 404,-265 511.12,-265 569.33,-265 594.54,-293.7 642,-260 670.73,-239.6 679.81,-196.44 682.68,-171.62"/>
<polygon fill="#000000" fill-opacity="0.200000" stroke="#000000" stroke-width="2" stroke-opacity="0.200000" points="684.75,-171.99 683.23,-165.82 680.57,-171.59 684.75,-171.99"/>
</g>
<!-- src/components/FolderSelector/FolderSelector.vue -->
<g id="node9" class="node">
<title>src/components/FolderSelector/FolderSelector.vue</title>
<g id="a_node9"><a xlink:href="src/components/FolderSelector/FolderSelector.vue" xlink:title="FolderSelector.vue">
<path fill="#41f083" stroke="black" d="M444.83,-179.62C444.83,-179.62 365.17,-179.62 365.17,-179.62 361.96,-179.62 358.75,-176.42 358.75,-173.21 358.75,-173.21 358.75,-166.79 358.75,-166.79 358.75,-163.58 361.96,-160.38 365.17,-160.38 365.17,-160.38 444.83,-160.38 444.83,-160.38 448.04,-160.38 451.25,-163.58 451.25,-166.79 451.25,-166.79 451.25,-173.21 451.25,-173.21 451.25,-176.42 448.04,-179.62 444.83,-179.62"/>
<text text-anchor="start" x="366.75" y="-167.07" font-family="Helvetica,sans-Serif" font-size="9.00">FolderSelector.vue</text>
</a>
</g>
</g>
<!-- src/components/NavBar.vue&#45;&gt;src/components/FolderSelector/FolderSelector.vue -->
<g id="edge8" class="edge">
<title>src/components/NavBar.vue&#45;&gt;src/components/FolderSelector/FolderSelector.vue</title>
<path fill="none" stroke="#000000" stroke-width="2" stroke-opacity="0.200000" d="M313.4,-130.98C323.48,-133.13 334.26,-136.78 342.75,-143 346.94,-146.07 346.21,-149.69 351.52,-155.12"/>
<polygon fill="#000000" fill-opacity="0.200000" stroke="#000000" stroke-width="2" stroke-opacity="0.200000" points="350.06,-156.64 356.06,-158.76 352.69,-153.37 350.06,-156.64"/>
</g>
<!-- src/stores/videosStore.ts -->
<g id="node11" class="node">
<title>src/stores/videosStore.ts</title>
<g id="a_node11"><a xlink:href="src/stores/videosStore.ts" xlink:title="videosStore.ts">
<path fill="#ddfeff" stroke="black" d="M540.96,-74.62C540.96,-74.62 479.29,-74.62 479.29,-74.62 476.08,-74.62 472.88,-71.42 472.88,-68.21 472.88,-68.21 472.88,-61.79 472.88,-61.79 472.88,-58.58 476.08,-55.38 479.29,-55.38 479.29,-55.38 540.96,-55.38 540.96,-55.38 544.17,-55.38 547.38,-58.58 547.38,-61.79 547.38,-61.79 547.38,-68.21 547.38,-68.21 547.38,-71.42 544.17,-74.62 540.96,-74.62"/>
<text text-anchor="start" x="480.88" y="-62.08" font-family="Helvetica,sans-Serif" font-size="9.00">videosStore.ts</text>
</a>
</g>
</g>
<!-- src/components/NavBar.vue&#45;&gt;src/stores/videosStore.ts -->
<g id="edge10" class="edge">
<title>src/components/NavBar.vue&#45;&gt;src/stores/videosStore.ts</title>
<path fill="none" stroke="#000000" stroke-width="2" stroke-opacity="0.200000" d="M309.36,-117.93C321.83,-113.38 336.96,-108.12 350.75,-104 388.57,-92.7 432.16,-82.14 464.02,-74.87"/>
<polygon fill="#000000" fill-opacity="0.200000" stroke="#000000" stroke-width="2" stroke-opacity="0.200000" points="464.34,-76.95 469.73,-73.58 463.42,-72.85 464.34,-76.95"/>
</g>
<!-- src/stores/appStateStore.ts -->
<g id="node12" class="node">
<title>src/stores/appStateStore.ts</title>
<g id="a_node12"><a xlink:href="src/stores/appStateStore.ts" xlink:title="appStateStore.ts">
<path fill="#ddfeff" stroke="black" d="M545.83,-43.62C545.83,-43.62 474.42,-43.62 474.42,-43.62 471.21,-43.62 468,-40.42 468,-37.21 468,-37.21 468,-30.79 468,-30.79 468,-27.58 471.21,-24.38 474.42,-24.38 474.42,-24.38 545.83,-24.38 545.83,-24.38 549.04,-24.38 552.25,-27.58 552.25,-30.79 552.25,-30.79 552.25,-37.21 552.25,-37.21 552.25,-40.42 549.04,-43.62 545.83,-43.62"/>
<text text-anchor="start" x="476" y="-31.07" font-family="Helvetica,sans-Serif" font-size="9.00">appStateStore.ts</text>
</a>
</g>
</g>
<!-- src/components/NavBar.vue&#45;&gt;src/stores/appStateStore.ts -->
<g id="edge9" class="edge">
<title>src/components/NavBar.vue&#45;&gt;src/stores/appStateStore.ts</title>
<path fill="none" stroke="#000000" stroke-width="2" stroke-opacity="0.200000" d="M292.89,-117.88C305.43,-105.93 327.92,-86.24 350.75,-75 384.99,-58.14 426.91,-47.68 459.03,-41.55"/>
<polygon fill="#000000" fill-opacity="0.200000" stroke="#000000" stroke-width="2" stroke-opacity="0.200000" points="459.31,-43.63 464.83,-40.48 458.55,-39.5 459.31,-43.63"/>
</g>
<!-- src/components/utils/DiagnosticsPanel.vue&#45;&gt;src/stores/appStateStore.ts -->
<g id="edge15" class="edge">
<title>src/components/utils/DiagnosticsPanel.vue&#45;&gt;src/stores/appStateStore.ts</title>
<path fill="none" stroke="#000000" stroke-width="2" stroke-opacity="0.200000" d="M335.05,-156.15C337.87,-154.44 340.47,-152.41 342.75,-150 357,-134.91 337.74,-120.16 350.75,-104 381,-66.42 414.35,-94.07 451.25,-63 456.86,-58.27 454.18,-53.47 460,-49 460.15,-48.88 460.3,-48.77 460.45,-48.66"/>
<polygon fill="#000000" fill-opacity="0.200000" stroke="#000000" stroke-width="2" stroke-opacity="0.200000" points="461.23,-50.65 465.22,-45.71 459.02,-47.08 461.23,-50.65"/>
</g>
<!-- src/components/VideoGallery.vue&#45;&gt;src/stores/videosStore.ts -->
<g id="edge14" class="edge">
<title>src/components/VideoGallery.vue&#45;&gt;src/stores/videosStore.ts</title>
<path fill="none" stroke="#000000" stroke-width="2" stroke-opacity="0.200000" d="M324.3,-215.68C331.34,-213.3 337.92,-209.62 342.75,-204 355.25,-189.44 338.65,-132.9 350.75,-118 380.22,-81.72 407.05,-102.2 451.25,-87 459.09,-84.3 467.46,-81.24 475.32,-78.27"/>
<polygon fill="#000000" fill-opacity="0.200000" stroke="#000000" stroke-width="2" stroke-opacity="0.200000" points="475.93,-80.28 480.78,-76.18 474.43,-76.36 475.93,-80.28"/>
</g>
<!-- src/components/VideoCard.vue -->
<g id="node13" class="node">
<title>src/components/VideoCard.vue</title>
<g id="a_node13"><a xlink:href="src/components/VideoCard.vue" xlink:title="VideoCard.vue">
<path fill="#41f083" stroke="black" d="M436.58,-143.62C436.58,-143.62 373.42,-143.62 373.42,-143.62 370.21,-143.62 367,-140.42 367,-137.21 367,-137.21 367,-130.79 367,-130.79 367,-127.58 370.21,-124.38 373.42,-124.38 373.42,-124.38 436.58,-124.38 436.58,-124.38 439.79,-124.38 443,-127.58 443,-130.79 443,-130.79 443,-137.21 443,-137.21 443,-140.42 439.79,-143.62 436.58,-143.62"/>
<text text-anchor="start" x="375" y="-131.07" font-family="Helvetica,sans-Serif" font-size="9.00">VideoCard.vue</text>
</a>
</g>
</g>
<!-- src/components/VideoGallery.vue&#45;&gt;src/components/VideoCard.vue -->
<g id="edge13" class="edge">
<title>src/components/VideoGallery.vue&#45;&gt;src/components/VideoCard.vue</title>
<path fill="none" stroke="#000000" stroke-width="2" stroke-opacity="0.200000" d="M324.07,-215.48C331.13,-213.12 337.78,-209.5 342.75,-204 359.32,-185.68 334.46,-167.57 350.75,-149 353.07,-146.36 355.82,-144.16 358.82,-142.34"/>
<polygon fill="#000000" fill-opacity="0.200000" stroke="#000000" stroke-width="2" stroke-opacity="0.200000" points="359.5,-144.35 364,-139.86 357.68,-140.56 359.5,-144.35"/>
</g>
<!-- src/services/StorageController/VideoMetadataController.ts -->
<g id="node18" class="node">
<title>src/services/StorageController/VideoMetadataController.ts</title>
<g id="a_node18"><a xlink:href="src/services/StorageController/VideoMetadataController.ts" xlink:title="VideoMetadataController.ts">
<path fill="#ddfeff" stroke="black" d="M845.58,-162.62C845.58,-162.62 731.42,-162.62 731.42,-162.62 728.21,-162.62 725,-159.42 725,-156.21 725,-156.21 725,-149.79 725,-149.79 725,-146.58 728.21,-143.38 731.42,-143.38 731.42,-143.38 845.58,-143.38 845.58,-143.38 848.79,-143.38 852,-146.58 852,-149.79 852,-149.79 852,-156.21 852,-156.21 852,-159.42 848.79,-162.62 845.58,-162.62"/>
<text text-anchor="start" x="733" y="-150.07" font-family="Helvetica,sans-Serif" font-size="9.00">VideoMetadataController.ts</text>
</a>
</g>
</g>
<!-- src/services/StorageController/index.ts&#45;&gt;src/services/StorageController/VideoMetadataController.ts -->
<g id="edge20" class="edge">
<title>src/services/StorageController/index.ts&#45;&gt;src/services/StorageController/VideoMetadataController.ts</title>
<path fill="none" stroke="#000000" stroke-width="2" stroke-opacity="0.200000" d="M712.4,-153C713.49,-153 714.6,-153 715.73,-153"/>
<polygon fill="#000000" fill-opacity="0.200000" stroke="#000000" stroke-width="2" stroke-opacity="0.200000" points="715.62,-155.1 721.62,-153 715.62,-150.9 715.62,-155.1"/>
</g>
<!-- src/assets/effects/FadeTransition.vue -->
<g id="node6" class="node">
<title>src/assets/effects/FadeTransition.vue</title>
<g id="a_node6"><a xlink:href="src/assets/effects/FadeTransition.vue" xlink:title="no&#45;orphans">
<path fill="#ccffcc" stroke="orange" d="M182.33,-246.62C182.33,-246.62 100.42,-246.62 100.42,-246.62 97.21,-246.62 94,-243.42 94,-240.21 94,-240.21 94,-233.79 94,-233.79 94,-230.58 97.21,-227.38 100.42,-227.38 100.42,-227.38 182.33,-227.38 182.33,-227.38 185.54,-227.38 188.75,-230.58 188.75,-233.79 188.75,-233.79 188.75,-240.21 188.75,-240.21 188.75,-243.42 185.54,-246.62 182.33,-246.62"/>
<text text-anchor="start" x="102" y="-234.07" font-family="Helvetica,sans-Serif" font-size="9.00" fill="orange">FadeTransition.vue</text>
</a>
</g>
</g>
<!-- src/assets/main.css -->
<g id="node7" class="node">
<title>src/assets/main.css</title>
<g id="a_node7"><a xlink:href="src/assets/main.css" xlink:title="main.css">
<path fill="#ffffcc" stroke="black" d="M162.08,-210.62C162.08,-210.62 120.67,-210.62 120.67,-210.62 117.46,-210.62 114.25,-207.42 114.25,-204.21 114.25,-204.21 114.25,-197.79 114.25,-197.79 114.25,-194.58 117.46,-191.38 120.67,-191.38 120.67,-191.38 162.08,-191.38 162.08,-191.38 165.29,-191.38 168.5,-194.58 168.5,-197.79 168.5,-197.79 168.5,-204.21 168.5,-204.21 168.5,-207.42 165.29,-210.62 162.08,-210.62"/>
<text text-anchor="start" x="122.25" y="-198.07" font-family="Helvetica,sans-Serif" font-size="9.00">main.css</text>
</a>
</g>
</g>
<!-- src/components/FolderSelector/FileVideoParser.ts -->
<g id="node8" class="node">
<title>src/components/FolderSelector/FileVideoParser.ts</title>
<g id="a_node8"><a xlink:href="src/components/FolderSelector/FileVideoParser.ts" xlink:title="FileVideoParser.ts">
<path fill="#ddfeff" stroke="black" d="M549.58,-179.62C549.58,-179.62 470.67,-179.62 470.67,-179.62 467.46,-179.62 464.25,-176.42 464.25,-173.21 464.25,-173.21 464.25,-166.79 464.25,-166.79 464.25,-163.58 467.46,-160.38 470.67,-160.38 470.67,-160.38 549.58,-160.38 549.58,-160.38 552.79,-160.38 556,-163.58 556,-166.79 556,-166.79 556,-173.21 556,-173.21 556,-176.42 552.79,-179.62 549.58,-179.62"/>
<text text-anchor="start" x="472.25" y="-167.07" font-family="Helvetica,sans-Serif" font-size="9.00">FileVideoParser.ts</text>
</a>
</g>
</g>
<!-- src/components/FolderSelector/FolderSelector.vue&#45;&gt;src/components/FolderSelector/FileVideoParser.ts -->
<g id="edge5" class="edge">
<title>src/components/FolderSelector/FolderSelector.vue&#45;&gt;src/components/FolderSelector/FileVideoParser.ts</title>
<path fill="none" stroke="#000000" stroke-width="2" stroke-opacity="0.200000" d="M451.53,-170C452.69,-170 453.84,-170 455,-170"/>
<polygon fill="#000000" fill-opacity="0.200000" stroke="#000000" stroke-width="2" stroke-opacity="0.200000" points="454.86,-172.1 460.86,-170 454.86,-167.9 454.86,-172.1"/>
</g>
<!-- src/services/index.ts -->
<g id="node10" class="node">
<title>src/services/index.ts</title>
<g id="a_node10"><a xlink:href="src/services/index.ts" xlink:title="index.ts">
<path fill="#ddfeff" stroke="black" d="M635.58,-120.62C635.58,-120.62 594.42,-120.62 594.42,-120.62 591.21,-120.62 588,-117.42 588,-114.21 588,-114.21 588,-107.79 588,-107.79 588,-104.58 591.21,-101.38 594.42,-101.38 594.42,-101.38 635.58,-101.38 635.58,-101.38 638.79,-101.38 642,-104.58 642,-107.79 642,-107.79 642,-114.21 642,-114.21 642,-117.42 638.79,-120.62 635.58,-120.62"/>
<text text-anchor="start" x="599.25" y="-108.08" font-family="Helvetica,sans-Serif" font-size="9.00">index.ts</text>
</a>
</g>
</g>
<!-- src/components/FolderSelector/FolderSelector.vue&#45;&gt;src/services/index.ts -->
<g id="edge6" class="edge">
<title>src/components/FolderSelector/FolderSelector.vue&#45;&gt;src/services/index.ts</title>
<path fill="none" stroke="#000000" stroke-width="2" stroke-opacity="0.200000" d="M438.73,-180.1C448.64,-183.08 457.56,-185.65 460,-186 484.63,-189.57 553.29,-202.42 572,-186 592.55,-167.97 563.34,-146.68 580,-125 580.39,-124.49 580.81,-123.99 581.25,-123.52"/>
<polygon fill="#000000" fill-opacity="0.200000" stroke="#000000" stroke-width="2" stroke-opacity="0.200000" points="582.06,-125.55 585.45,-120.17 579.45,-122.26 582.06,-125.55"/>
</g>
<!-- src/components/FolderSelector/FolderSelector.vue&#45;&gt;src/stores/videosStore.ts -->
<g id="edge7" class="edge">
<title>src/components/FolderSelector/FolderSelector.vue&#45;&gt;src/stores/videosStore.ts</title>
<path fill="none" stroke="#000000" stroke-width="2" stroke-opacity="0.200000" d="M446.91,-159.99C448.48,-158.8 449.94,-157.48 451.25,-156 465.9,-139.42 449.01,-126.2 460,-107 466.07,-96.4 475.87,-87.22 485.12,-80.16"/>
<polygon fill="#000000" fill-opacity="0.200000" stroke="#000000" stroke-width="2" stroke-opacity="0.200000" points="486.23,-81.95 489.88,-76.74 483.78,-78.54 486.23,-81.95"/>
</g>
<!-- src/services/index.ts&#45;&gt;src/services/StorageController/index.ts -->
<g id="edge27" class="edge">
<title>src/services/index.ts&#45;&gt;src/services/StorageController/index.ts</title>
<path fill="none" stroke="#000000" stroke-width="2" stroke-opacity="0.200000" d="M635.14,-121.04C637.47,-122.34 639.8,-123.68 669.83,-143.07"/>
<polygon fill="#000000" fill-opacity="0.200000" stroke="#000000" stroke-width="2" stroke-opacity="0.200000" points="672.64,-141.68 676.54,-149.78 668.44,-145.88 672.64,-141.68"/>
</g>
<!-- src/services/Filters/index.ts -->
<g id="node17" class="node">
<title>src/services/Filters/index.ts</title>
<g id="a_node17"><a xlink:href="src/services/Filters/index.ts" xlink:title="index.ts">
<path fill="#ddfeff" stroke="black" d="M705.58,-51.62C705.58,-51.62 664.42,-51.62 664.42,-51.62 661.21,-51.62 658,-48.42 658,-45.21 658,-45.21 658,-38.79 658,-38.79 658,-35.58 661.21,-32.38 664.42,-32.38 664.42,-32.38 705.58,-32.38 705.58,-32.38 708.79,-32.38 712,-35.58 712,-38.79 712,-38.79 712,-45.21 712,-45.21 712,-48.42 708.79,-51.62 705.58,-51.62"/>
<text text-anchor="start" x="669.25" y="-39.08" font-family="Helvetica,sans-Serif" font-size="9.00">index.ts</text>
</a>
</g>
</g>
<!-- src/services/index.ts&#45;&gt;src/services/Filters/index.ts -->
<g id="edge26" class="edge">
<title>src/services/index.ts&#45;&gt;src/services/Filters/index.ts</title>
<path fill="none" stroke="#000000" stroke-width="2" stroke-opacity="0.200000" d="M625.74,-101.11C638.67,-88 661.36,-64.98 674.28,-51.87"/>
<polygon fill="#000000" fill-opacity="0.200000" stroke="#000000" stroke-width="2" stroke-opacity="0.200000" points="677.08,-50.47 680.98,-58.57 672.88,-54.67 677.08,-50.47"/>
</g>
<!-- src/stores/videosStore.ts&#45;&gt;src/services/index.ts -->
<g id="edge28" class="edge">
<title>src/stores/videosStore.ts&#45;&gt;src/services/index.ts</title>
<path fill="none" stroke="#000000" stroke-width="2" stroke-opacity="0.200000" d="M533.7,-75.09C548.31,-81.63 567.5,-90.21 583.47,-97.35"/>
<polygon fill="#000000" fill-opacity="0.200000" stroke="#000000" stroke-width="2" stroke-opacity="0.200000" points="582.38,-99.16 588.71,-99.69 584.09,-95.33 582.38,-99.16"/>
</g>
<!-- src/components/VideoCard.vue&#45;&gt;src/services/index.ts -->
<g id="edge12" class="edge">
<title>src/components/VideoCard.vue&#45;&gt;src/services/index.ts</title>
<path fill="none" stroke="#000000" stroke-width="2" stroke-opacity="0.200000" d="M435.4,-123.88C443.3,-121.55 451.9,-119.36 460,-118 500.36,-111.21 547.44,-110.03 578.82,-110.19"/>
<polygon fill="#000000" fill-opacity="0.200000" stroke="#000000" stroke-width="2" stroke-opacity="0.200000" points="578.59,-112.28 584.61,-110.24 578.63,-108.08 578.59,-112.28"/>
</g>
<!-- src/components/VideoEmbed.vue -->
<g id="node14" class="node">
<title>src/components/VideoEmbed.vue</title>
<g id="a_node14"><a xlink:href="src/components/VideoEmbed.vue" xlink:title="VideoEmbed.vue">
<path fill="#41f083" stroke="black" d="M546.58,-143.62C546.58,-143.62 473.67,-143.62 473.67,-143.62 470.46,-143.62 467.25,-140.42 467.25,-137.21 467.25,-137.21 467.25,-130.79 467.25,-130.79 467.25,-127.58 470.46,-124.38 473.67,-124.38 473.67,-124.38 546.58,-124.38 546.58,-124.38 549.79,-124.38 553,-127.58 553,-130.79 553,-130.79 553,-137.21 553,-137.21 553,-140.42 549.79,-143.62 546.58,-143.62"/>
<text text-anchor="start" x="475.25" y="-131.07" font-family="Helvetica,sans-Serif" font-size="9.00">VideoEmbed.vue</text>
</a>
</g>
</g>
<!-- src/components/VideoCard.vue&#45;&gt;src/components/VideoEmbed.vue -->
<g id="edge11" class="edge">
<title>src/components/VideoCard.vue&#45;&gt;src/components/VideoEmbed.vue</title>
<path fill="none" stroke="#000000" stroke-width="2" stroke-opacity="0.200000" d="M443.23,-134C448.06,-134 453.08,-134 458.08,-134"/>
<polygon fill="#000000" fill-opacity="0.200000" stroke="#000000" stroke-width="2" stroke-opacity="0.200000" points="458.02,-136.1 464.02,-134 458.02,-131.9 458.02,-136.1"/>
</g>
<!-- src/main.ts -->
<g id="node15" class="node">
<title>src/main.ts</title>
<g id="a_node15"><a xlink:href="src/main.ts" xlink:title="main.ts">
<path fill="#ddfeff" stroke="black" d="M63.58,-192.62C63.58,-192.62 22.42,-192.62 22.42,-192.62 19.21,-192.62 16,-189.42 16,-186.21 16,-186.21 16,-179.79 16,-179.79 16,-176.58 19.21,-173.38 22.42,-173.38 22.42,-173.38 63.58,-173.38 63.58,-173.38 66.79,-173.38 70,-176.58 70,-179.79 70,-179.79 70,-186.21 70,-186.21 70,-189.42 66.79,-192.62 63.58,-192.62"/>
<text text-anchor="start" x="27.62" y="-180.07" font-family="Helvetica,sans-Serif" font-size="9.00">main.ts</text>
</a>
</g>
</g>
<!-- src/main.ts&#45;&gt;src/App.vue -->
<g id="edge16" class="edge">
<title>src/main.ts&#45;&gt;src/App.vue</title>
<path fill="none" stroke="#000000" stroke-width="2" stroke-opacity="0.200000" d="M70.33,-178.08C81.17,-176.06 93.88,-173.68 105.47,-171.52"/>
<polygon fill="#000000" fill-opacity="0.200000" stroke="#000000" stroke-width="2" stroke-opacity="0.200000" points="105.58,-173.63 111.1,-170.47 104.81,-169.51 105.58,-173.63"/>
</g>
<!-- src/main.ts&#45;&gt;src/assets/main.css -->
<g id="edge17" class="edge">
<title>src/main.ts&#45;&gt;src/assets/main.css</title>
<path fill="none" stroke="#000000" stroke-width="2" stroke-opacity="0.200000" d="M70.33,-187.92C81.17,-189.94 93.88,-192.32 105.47,-194.48"/>
<polygon fill="#000000" fill-opacity="0.200000" stroke="#000000" stroke-width="2" stroke-opacity="0.200000" points="104.81,-196.49 111.1,-195.53 105.58,-192.37 104.81,-196.49"/>
</g>
<!-- src/services/Filters/Filters.ts -->
<g id="node16" class="node">
<title>src/services/Filters/Filters.ts</title>
<g id="a_node16"><a xlink:href="src/services/Filters/Filters.ts" xlink:title="Filters.ts">
<path fill="#ddfeff" stroke="black" d="M809.08,-51.62C809.08,-51.62 767.92,-51.62 767.92,-51.62 764.71,-51.62 761.5,-48.42 761.5,-45.21 761.5,-45.21 761.5,-38.79 761.5,-38.79 761.5,-35.58 764.71,-32.38 767.92,-32.38 767.92,-32.38 809.08,-32.38 809.08,-32.38 812.29,-32.38 815.5,-35.58 815.5,-38.79 815.5,-38.79 815.5,-45.21 815.5,-45.21 815.5,-48.42 812.29,-51.62 809.08,-51.62"/>
<text text-anchor="start" x="770.88" y="-39.08" font-family="Helvetica,sans-Serif" font-size="9.00">Filters.ts</text>
</a>
</g>
</g>
<!-- src/services/Filters/index.ts&#45;&gt;src/services/Filters/Filters.ts -->
<g id="edge18" class="edge">
<title>src/services/Filters/index.ts&#45;&gt;src/services/Filters/Filters.ts</title>
<path fill="none" stroke="#000000" stroke-width="2" stroke-opacity="0.200000" d="M712.4,-42C727.44,-42 746.21,-42 761.23,-42"/>
<polygon fill="#000000" fill-opacity="0.200000" stroke="#000000" stroke-width="2" stroke-opacity="0.200000" points="764.04,-40.61 767.94,-48.71 759.84,-44.81 764.04,-40.61"/>
</g>
<!-- src/services/StorageController/migrations/index.ts -->
<g id="node19" class="node">
<title>src/services/StorageController/migrations/index.ts</title>
<g id="a_node19"><a xlink:href="src/services/StorageController/migrations/index.ts" xlink:title="index.ts">
<path fill="#ddfeff" stroke="black" d="M915.58,-162.62C915.58,-162.62 874.42,-162.62 874.42,-162.62 871.21,-162.62 868,-159.42 868,-156.21 868,-156.21 868,-149.79 868,-149.79 868,-146.58 871.21,-143.38 874.42,-143.38 874.42,-143.38 915.58,-143.38 915.58,-143.38 918.79,-143.38 922,-146.58 922,-149.79 922,-149.79 922,-156.21 922,-156.21 922,-159.42 918.79,-162.62 915.58,-162.62"/>
<text text-anchor="start" x="879.25" y="-150.07" font-family="Helvetica,sans-Serif" font-size="9.00">index.ts</text>
</a>
</g>
</g>
<!-- src/services/StorageController/VideoMetadataController.ts&#45;&gt;src/services/StorageController/migrations/index.ts -->
<g id="edge19" class="edge">
<title>src/services/StorageController/VideoMetadataController.ts&#45;&gt;src/services/StorageController/migrations/index.ts</title>
<path fill="none" stroke="#000000" stroke-width="2" stroke-opacity="0.200000" d="M852.4,-153C854.58,-153 856.73,-153 858.84,-153"/>
<polygon fill="#000000" fill-opacity="0.200000" stroke="#000000" stroke-width="2" stroke-opacity="0.200000" points="858.74,-155.1 864.74,-153 858.74,-150.9 858.74,-155.1"/>
</g>
<!-- src/services/StorageController/migrations/migrations.ts -->
<g id="node20" class="node">
<title>src/services/StorageController/migrations/migrations.ts</title>
<g id="a_node20"><a xlink:href="src/services/StorageController/migrations/migrations.ts" xlink:title="migrations.ts">
<path fill="#ddfeff" stroke="black" d="M998.58,-162.62C998.58,-162.62 941.42,-162.62 941.42,-162.62 938.21,-162.62 935,-159.42 935,-156.21 935,-156.21 935,-149.79 935,-149.79 935,-146.58 938.21,-143.38 941.42,-143.38 941.42,-143.38 998.58,-143.38 998.58,-143.38 1001.79,-143.38 1005,-146.58 1005,-149.79 1005,-149.79 1005,-156.21 1005,-156.21 1005,-159.42 1001.79,-162.62 998.58,-162.62"/>
<text text-anchor="start" x="943" y="-150.07" font-family="Helvetica,sans-Serif" font-size="9.00">migrations.ts</text>
</a>
</g>
</g>
<!-- src/services/StorageController/migrations/index.ts&#45;&gt;src/services/StorageController/migrations/migrations.ts -->
<g id="edge21" class="edge">
<title>src/services/StorageController/migrations/index.ts&#45;&gt;src/services/StorageController/migrations/migrations.ts</title>
<path fill="none" stroke="#000000" stroke-width="2" stroke-opacity="0.200000" d="M922.35,-153C926.36,-153 930.54,-153 934.68,-153"/>
<polygon fill="#000000" fill-opacity="0.200000" stroke="#000000" stroke-width="2" stroke-opacity="0.200000" points="937.48,-151.61 941.38,-159.71 933.28,-155.81 937.48,-151.61"/>
</g>
<!-- src/services/StorageController/migrations/v1/index.ts -->
<g id="node21" class="node">
<title>src/services/StorageController/migrations/v1/index.ts</title>
<g id="a_node21"><a xlink:href="src/services/StorageController/migrations/v1/index.ts" xlink:title="index.ts">
<path fill="#ddfeff" stroke="black" d="M1068.58,-130.62C1068.58,-130.62 1027.42,-130.62 1027.42,-130.62 1024.21,-130.62 1021,-127.42 1021,-124.21 1021,-124.21 1021,-117.79 1021,-117.79 1021,-114.58 1024.21,-111.38 1027.42,-111.38 1027.42,-111.38 1068.58,-111.38 1068.58,-111.38 1071.79,-111.38 1075,-114.58 1075,-117.79 1075,-117.79 1075,-124.21 1075,-124.21 1075,-127.42 1071.79,-130.62 1068.58,-130.62"/>
<text text-anchor="start" x="1032.25" y="-118.08" font-family="Helvetica,sans-Serif" font-size="9.00">index.ts</text>
</a>
</g>
</g>
<!-- src/services/StorageController/migrations/migrations.ts&#45;&gt;src/services/StorageController/migrations/v1/index.ts -->
<g id="edge22" class="edge">
<title>src/services/StorageController/migrations/migrations.ts&#45;&gt;src/services/StorageController/migrations/v1/index.ts</title>
<path fill="none" stroke="#000000" stroke-width="2" stroke-opacity="0.200000" d="M995.05,-142.88C1001.35,-140.22 1008.24,-137.32 1014.89,-134.52"/>
<polygon fill="#000000" fill-opacity="0.200000" stroke="#000000" stroke-width="2" stroke-opacity="0.200000" points="1015.6,-136.5 1020.32,-132.23 1013.97,-132.63 1015.6,-136.5"/>
</g>
<!-- src/services/StorageController/migrations/v2/index.ts -->
<g id="node22" class="node">
<title>src/services/StorageController/migrations/v2/index.ts</title>
<g id="a_node22"><a xlink:href="src/services/StorageController/migrations/v2/index.ts" xlink:title="index.ts">
<path fill="#ddfeff" stroke="black" d="M1068.58,-193.62C1068.58,-193.62 1027.42,-193.62 1027.42,-193.62 1024.21,-193.62 1021,-190.42 1021,-187.21 1021,-187.21 1021,-180.79 1021,-180.79 1021,-177.58 1024.21,-174.38 1027.42,-174.38 1027.42,-174.38 1068.58,-174.38 1068.58,-174.38 1071.79,-174.38 1075,-177.58 1075,-180.79 1075,-180.79 1075,-187.21 1075,-187.21 1075,-190.42 1071.79,-193.62 1068.58,-193.62"/>
<text text-anchor="start" x="1032.25" y="-181.07" font-family="Helvetica,sans-Serif" font-size="9.00">index.ts</text>
</a>
</g>
</g>
<!-- src/services/StorageController/migrations/migrations.ts&#45;&gt;src/services/StorageController/migrations/v2/index.ts -->
<g id="edge23" class="edge">
<title>src/services/StorageController/migrations/migrations.ts&#45;&gt;src/services/StorageController/migrations/v2/index.ts</title>
<path fill="none" stroke="#000000" stroke-width="2" stroke-opacity="0.200000" d="M995.47,-162.98C1001.37,-165.39 1007.78,-168 1014.01,-170.54"/>
<polygon fill="#000000" fill-opacity="0.200000" stroke="#000000" stroke-width="2" stroke-opacity="0.200000" points="1013.17,-172.47 1019.52,-172.79 1014.75,-168.58 1013.17,-172.47"/>
</g>
<!-- src/services/StorageController/migrations/utils/index.ts -->
<g id="node23" class="node">
<title>src/services/StorageController/migrations/utils/index.ts</title>
<g id="a_node23"><a xlink:href="src/services/StorageController/migrations/utils/index.ts" xlink:title="index.ts">
<path fill="#ddfeff" stroke="black" d="M1146.58,-161.62C1146.58,-161.62 1105.42,-161.62 1105.42,-161.62 1102.21,-161.62 1099,-158.42 1099,-155.21 1099,-155.21 1099,-148.79 1099,-148.79 1099,-145.58 1102.21,-142.38 1105.42,-142.38 1105.42,-142.38 1146.58,-142.38 1146.58,-142.38 1149.79,-142.38 1153,-145.58 1153,-148.79 1153,-148.79 1153,-155.21 1153,-155.21 1153,-158.42 1149.79,-161.62 1146.58,-161.62"/>
<text text-anchor="start" x="1110.25" y="-149.07" font-family="Helvetica,sans-Serif" font-size="9.00">index.ts</text>
</a>
</g>
</g>
<!-- src/services/StorageController/migrations/v1/index.ts&#45;&gt;src/services/StorageController/migrations/utils/index.ts -->
<g id="edge24" class="edge">
<title>src/services/StorageController/migrations/v1/index.ts&#45;&gt;src/services/StorageController/migrations/utils/index.ts</title>
<path fill="none" stroke="#000000" stroke-width="2" stroke-opacity="0.200000" d="M1073.47,-130.98C1079.37,-133.39 1085.78,-136 1092.01,-138.54"/>
<polygon fill="#000000" fill-opacity="0.200000" stroke="#000000" stroke-width="2" stroke-opacity="0.200000" points="1091.17,-140.47 1097.52,-140.79 1092.75,-136.58 1091.17,-140.47"/>
</g>
<!-- src/services/StorageController/migrations/v2/index.ts&#45;&gt;src/services/StorageController/migrations/utils/index.ts -->
<g id="edge25" class="edge">
<title>src/services/StorageController/migrations/v2/index.ts&#45;&gt;src/services/StorageController/migrations/utils/index.ts</title>
<path fill="none" stroke="#000000" stroke-width="2" stroke-opacity="0.200000" d="M1073.05,-173.88C1079.35,-171.22 1086.24,-168.32 1092.89,-165.52"/>
<polygon fill="#000000" fill-opacity="0.200000" stroke="#000000" stroke-width="2" stroke-opacity="0.200000" points="1093.6,-167.5 1098.32,-163.23 1091.97,-163.63 1093.6,-167.5"/>
</g>
</g>
</svg>
