<?xml version="1.0" encoding="UTF-8" standalone="no"?>
<!DOCTYPE svg PUBLIC "-//W3C//DTD SVG 1.1//EN"
 "http://www.w3.org/Graphics/SVG/1.1/DTD/svg11.dtd">
<!-- Generated by graphviz version 9.0.0 (20230911.1827)
 -->
<!-- Title: dependency&#45;cruiser output Pages: 1 -->
<svg width="1584pt" height="435pt"
 viewBox="0.00 0.00 1584.25 435.00" xmlns="http://www.w3.org/2000/svg" xmlns:xlink="http://www.w3.org/1999/xlink">
<g id="graph0" class="graph" transform="scale(1 1) rotate(0) translate(4 431)">
<title>dependency&#45;cruiser output</title>
<polygon fill="white" stroke="none" points="-4,4 -4,-431 1580.25,-431 1580.25,4 -4,4"/>
<g id="clust1" class="cluster">
<title>cluster_src</title>
<path fill="#ffffff" stroke="black" stroke-width="2" d="M20,-8C20,-8 1556.25,-8 1556.25,-8 1562.25,-8 1568.25,-14 1568.25,-20 1568.25,-20 1568.25,-407 1568.25,-407 1568.25,-413 1562.25,-419 1556.25,-419 1556.25,-419 20,-419 20,-419 14,-419 8,-413 8,-407 8,-407 8,-20 8,-20 8,-14 14,-8 20,-8"/>
<text text-anchor="middle" x="788.12" y="-406.45" font-family="Helvetica,sans-Serif" font-weight="bold" font-size="9.00">src</text>
</g>
<g id="clust2" class="cluster">
<title>cluster_src/application</title>
<path fill="#ffffff" stroke="black" stroke-width="2" d="M580,-39C580,-39 886.25,-39 886.25,-39 892.25,-39 898.25,-45 898.25,-51 898.25,-51 898.25,-148 898.25,-148 898.25,-154 892.25,-160 886.25,-160 886.25,-160 580,-160 580,-160 574,-160 568,-154 568,-148 568,-148 568,-51 568,-51 568,-45 574,-39 580,-39"/>
<text text-anchor="middle" x="733.12" y="-147.45" font-family="Helvetica,sans-Serif" font-weight="bold" font-size="9.00">application</text>
</g>
<g id="clust3" class="cluster">
<title>cluster_src/application/services</title>
<path fill="#ffffff" stroke="black" stroke-width="2" d="M650,-47C650,-47 878.25,-47 878.25,-47 884.25,-47 890.25,-53 890.25,-59 890.25,-59 890.25,-121 890.25,-121 890.25,-127 884.25,-133 878.25,-133 878.25,-133 650,-133 650,-133 644,-133 638,-127 638,-121 638,-121 638,-59 638,-59 638,-53 644,-47 650,-47"/>
<text text-anchor="middle" x="764.12" y="-120.45" font-family="Helvetica,sans-Serif" font-weight="bold" font-size="9.00">services</text>
</g>
<g id="clust4" class="cluster">
<title>cluster_src/assets</title>
<path fill="#ffffff" stroke="black" stroke-width="2" d="M90,-207C90,-207 192.75,-207 192.75,-207 198.75,-207 204.75,-213 204.75,-219 204.75,-219 204.75,-313 204.75,-313 204.75,-319 198.75,-325 192.75,-325 192.75,-325 90,-325 90,-325 84,-325 78,-319 78,-313 78,-313 78,-219 78,-219 78,-213 84,-207 90,-207"/>
<text text-anchor="middle" x="141.38" y="-312.45" font-family="Helvetica,sans-Serif" font-weight="bold" font-size="9.00">assets</text>
</g>
<g id="clust5" class="cluster">
<title>cluster_src/assets/effects</title>
<path fill="#ffffff" stroke="black" stroke-width="2" d="M98,-243C98,-243 184.75,-243 184.75,-243 190.75,-243 196.75,-249 196.75,-255 196.75,-255 196.75,-286 196.75,-286 196.75,-292 190.75,-298 184.75,-298 184.75,-298 98,-298 98,-298 92,-298 86,-292 86,-286 86,-286 86,-255 86,-255 86,-249 92,-243 98,-243"/>
<text text-anchor="middle" x="141.38" y="-285.45" font-family="Helvetica,sans-Serif" font-weight="bold" font-size="9.00">effects</text>
</g>
<g id="clust6" class="cluster">
<title>cluster_src/components</title>
<path fill="#ffffff" stroke="black" stroke-width="2" d="M333,-23C333,-23 548,-23 548,-23 554,-23 560,-29 560,-35 560,-35 560,-192 560,-192 560,-198 554,-204 548,-204 548,-204 333,-204 333,-204 327,-204 321,-198 321,-192 321,-192 321,-35 321,-35 321,-29 327,-23 333,-23"/>
<text text-anchor="middle" x="440.5" y="-191.45" font-family="Helvetica,sans-Serif" font-weight="bold" font-size="9.00">components</text>
</g>
<g id="clust8" class="cluster">
<title>cluster_src/components/utils</title>
<path fill="#ffffff" stroke="black" stroke-width="2" d="M341,-122C341,-122 439,-122 439,-122 445,-122 451,-128 451,-134 451,-134 451,-165 451,-165 451,-171 445,-177 439,-177 439,-177 341,-177 341,-177 335,-177 329,-171 329,-165 329,-165 329,-134 329,-134 329,-128 335,-122 341,-122"/>
<text text-anchor="middle" x="390" y="-164.45" font-family="Helvetica,sans-Serif" font-weight="bold" font-size="9.00">utils</text>
</g>
<g id="clust7" class="cluster">
<title>cluster_src/components/inputs</title>
<path fill="#ffffff" stroke="black" stroke-width="2" d="M347.75,-59C347.75,-59 432.25,-59 432.25,-59 438.25,-59 444.25,-65 444.25,-71 444.25,-71 444.25,-102 444.25,-102 444.25,-108 438.25,-114 432.25,-114 432.25,-114 347.75,-114 347.75,-114 341.75,-114 335.75,-108 335.75,-102 335.75,-102 335.75,-71 335.75,-71 335.75,-65 341.75,-59 347.75,-59"/>
<text text-anchor="middle" x="390" y="-101.45" font-family="Helvetica,sans-Serif" font-weight="bold" font-size="9.00">inputs</text>
</g>
<g id="clust9" class="cluster">
<title>cluster_src/domain</title>
<path fill="#ffffff" stroke="black" stroke-width="2" d="M1149.5,-184C1149.5,-184 1446.25,-184 1446.25,-184 1452.25,-184 1458.25,-190 1458.25,-196 1458.25,-196 1458.25,-380 1458.25,-380 1458.25,-386 1452.25,-392 1446.25,-392 1446.25,-392 1149.5,-392 1149.5,-392 1143.5,-392 1137.5,-386 1137.5,-380 1137.5,-380 1137.5,-196 1137.5,-196 1137.5,-190 1143.5,-184 1149.5,-184"/>
<text text-anchor="middle" x="1297.88" y="-379.45" font-family="Helvetica,sans-Serif" font-weight="bold" font-size="9.00">domain</text>
</g>
<g id="clust12" class="cluster">
<title>cluster_src/domain/repositories</title>
<path fill="#ffffff" stroke="black" stroke-width="2" d="M1249.25,-255C1249.25,-255 1351,-255 1351,-255 1357,-255 1363,-261 1363,-267 1363,-267 1363,-329 1363,-329 1363,-335 1357,-341 1351,-341 1351,-341 1249.25,-341 1249.25,-341 1243.25,-341 1237.25,-335 1237.25,-329 1237.25,-329 1237.25,-267 1237.25,-267 1237.25,-261 1243.25,-255 1249.25,-255"/>
<text text-anchor="middle" x="1300.12" y="-328.45" font-family="Helvetica,sans-Serif" font-weight="bold" font-size="9.00">repositories</text>
</g>
<g id="clust10" class="cluster">
<title>cluster_src/domain/constants</title>
<path fill="#ffffff" stroke="black" stroke-width="2" d="M1277.12,-192C1277.12,-192 1323.12,-192 1323.12,-192 1329.12,-192 1335.12,-198 1335.12,-204 1335.12,-204 1335.12,-235 1335.12,-235 1335.12,-241 1329.12,-247 1323.12,-247 1323.12,-247 1277.12,-247 1277.12,-247 1271.12,-247 1265.12,-241 1265.12,-235 1265.12,-235 1265.12,-204 1265.12,-204 1265.12,-198 1271.12,-192 1277.12,-192"/>
<text text-anchor="middle" x="1300.12" y="-234.45" font-family="Helvetica,sans-Serif" font-weight="bold" font-size="9.00">constants</text>
</g>
<g id="clust11" class="cluster">
<title>cluster_src/domain/entities</title>
<path fill="#ffffff" stroke="black" stroke-width="2" d="M1383,-267C1383,-267 1438.25,-267 1438.25,-267 1444.25,-267 1450.25,-273 1450.25,-279 1450.25,-279 1450.25,-341 1450.25,-341 1450.25,-347 1444.25,-353 1438.25,-353 1438.25,-353 1383,-353 1383,-353 1377,-353 1371,-347 1371,-341 1371,-341 1371,-279 1371,-279 1371,-273 1377,-267 1383,-267"/>
<text text-anchor="middle" x="1410.62" y="-340.45" font-family="Helvetica,sans-Serif" font-weight="bold" font-size="9.00">entities</text>
</g>
<g id="clust13" class="cluster">
<title>cluster_src/infrastructure</title>
<path fill="#ffffff" stroke="black" stroke-width="2" d="M918.25,-16C918.25,-16 1548.25,-16 1548.25,-16 1554.25,-16 1560.25,-22 1560.25,-28 1560.25,-28 1560.25,-164 1560.25,-164 1560.25,-170 1554.25,-176 1548.25,-176 1548.25,-176 918.25,-176 918.25,-176 912.25,-176 906.25,-170 906.25,-164 906.25,-164 906.25,-28 906.25,-28 906.25,-22 912.25,-16 918.25,-16"/>
<text text-anchor="middle" x="1233.25" y="-163.45" font-family="Helvetica,sans-Serif" font-weight="bold" font-size="9.00">infrastructure</text>
</g>
<g id="clust14" class="cluster">
<title>cluster_src/infrastructure/database</title>
<path fill="#ffffff" stroke="black" stroke-width="2" d="M1119.75,-24C1119.75,-24 1540.25,-24 1540.25,-24 1546.25,-24 1552.25,-30 1552.25,-36 1552.25,-36 1552.25,-137 1552.25,-137 1552.25,-143 1546.25,-149 1540.25,-149 1540.25,-149 1119.75,-149 1119.75,-149 1113.75,-149 1107.75,-143 1107.75,-137 1107.75,-137 1107.75,-36 1107.75,-36 1107.75,-30 1113.75,-24 1119.75,-24"/>
<text text-anchor="middle" x="1330" y="-136.45" font-family="Helvetica,sans-Serif" font-weight="bold" font-size="9.00">database</text>
</g>
<g id="clust15" class="cluster">
<title>cluster_src/infrastructure/database/migrations</title>
<path fill="#ffffff" stroke="black" stroke-width="2" d="M1277.12,-32C1277.12,-32 1532.25,-32 1532.25,-32 1538.25,-32 1544.25,-38 1544.25,-44 1544.25,-44 1544.25,-110 1544.25,-110 1544.25,-116 1538.25,-122 1532.25,-122 1532.25,-122 1277.12,-122 1277.12,-122 1271.12,-122 1265.12,-116 1265.12,-110 1265.12,-110 1265.12,-44 1265.12,-44 1265.12,-38 1271.12,-32 1277.12,-32"/>
<text text-anchor="middle" x="1404.69" y="-109.45" font-family="Helvetica,sans-Serif" font-weight="bold" font-size="9.00">migrations</text>
</g>
<g id="clust16" class="cluster">
<title>cluster_src/infrastructure/database/migrations/utils</title>
<path fill="#ffffff" stroke="black" stroke-width="2" d="M1478.25,-40C1478.25,-40 1524.25,-40 1524.25,-40 1530.25,-40 1536.25,-46 1536.25,-52 1536.25,-52 1536.25,-83 1536.25,-83 1536.25,-89 1530.25,-95 1524.25,-95 1524.25,-95 1478.25,-95 1478.25,-95 1472.25,-95 1466.25,-89 1466.25,-83 1466.25,-83 1466.25,-52 1466.25,-52 1466.25,-46 1472.25,-40 1478.25,-40"/>
<text text-anchor="middle" x="1501.25" y="-82.45" font-family="Helvetica,sans-Serif" font-weight="bold" font-size="9.00">utils</text>
</g>
<g id="clust17" class="cluster">
<title>cluster_src/infrastructure/repository</title>
<path fill="#ffffff" stroke="black" stroke-width="2" d="M988.25,-63C988.25,-63 1087.75,-63 1087.75,-63 1093.75,-63 1099.75,-69 1099.75,-75 1099.75,-75 1099.75,-137 1099.75,-137 1099.75,-143 1093.75,-149 1087.75,-149 1087.75,-149 988.25,-149 988.25,-149 982.25,-149 976.25,-143 976.25,-137 976.25,-137 976.25,-75 976.25,-75 976.25,-69 982.25,-63 988.25,-63"/>
<text text-anchor="middle" x="1038" y="-136.45" font-family="Helvetica,sans-Serif" font-weight="bold" font-size="9.00">repository</text>
</g>
<g id="clust18" class="cluster">
<title>cluster_src/stores</title>
<path fill="#ffffff" stroke="black" stroke-width="2" d="M471,-212C471,-212 547.25,-212 547.25,-212 553.25,-212 559.25,-218 559.25,-224 559.25,-224 559.25,-286 559.25,-286 559.25,-292 553.25,-298 547.25,-298 547.25,-298 471,-298 471,-298 465,-298 459,-292 459,-286 459,-286 459,-224 459,-224 459,-218 465,-212 471,-212"/>
<text text-anchor="middle" x="509.12" y="-285.45" font-family="Helvetica,sans-Serif" font-weight="bold" font-size="9.00">stores</text>
</g>
<g id="clust19" class="cluster">
<title>cluster_src/views</title>
<path fill="#ffffff" stroke="black" stroke-width="2" d="M224.75,-171C224.75,-171 301,-171 301,-171 307,-171 313,-177 313,-183 313,-183 313,-245 313,-245 313,-251 307,-257 301,-257 301,-257 224.75,-257 224.75,-257 218.75,-257 212.75,-251 212.75,-245 212.75,-245 212.75,-183 212.75,-183 212.75,-177 218.75,-171 224.75,-171"/>
<text text-anchor="middle" x="262.88" y="-244.45" font-family="Helvetica,sans-Serif" font-weight="bold" font-size="9.00">views</text>
</g>
<!-- src/App.vue -->
<g id="node1" class="node">
<title>src/App.vue</title>
<g id="a_node1"><a xlink:href="src/App.vue" xlink:title="App.vue">
<path fill="#41f083" stroke="black" d="M161.96,-198.62C161.96,-198.62 120.79,-198.62 120.79,-198.62 117.58,-198.62 114.38,-195.42 114.38,-192.21 114.38,-192.21 114.38,-185.79 114.38,-185.79 114.38,-182.58 117.58,-179.38 120.79,-179.38 120.79,-179.38 161.96,-179.38 161.96,-179.38 165.17,-179.38 168.38,-182.58 168.38,-185.79 168.38,-185.79 168.38,-192.21 168.38,-192.21 168.38,-195.42 165.17,-198.62 161.96,-198.62"/>
<text text-anchor="start" x="125.25" y="-186.07" font-family="Helvetica,sans-Serif" font-size="9.00">App.vue</text>
</a>
</g>
</g>
<!-- src/components/utils/DiagnosticsPanel.vue -->
<g id="node2" class="node">
<title>src/components/utils/DiagnosticsPanel.vue</title>
<g id="a_node2"><a xlink:href="src/components/utils/DiagnosticsPanel.vue" xlink:title="DiagnosticsPanel.vue">
<path fill="#41f083" stroke="black" d="M436.58,-149.62C436.58,-149.62 343.42,-149.62 343.42,-149.62 340.21,-149.62 337,-146.42 337,-143.21 337,-143.21 337,-136.79 337,-136.79 337,-133.58 340.21,-130.38 343.42,-130.38 343.42,-130.38 436.58,-130.38 436.58,-130.38 439.79,-130.38 443,-133.58 443,-136.79 443,-136.79 443,-143.21 443,-143.21 443,-146.42 439.79,-149.62 436.58,-149.62"/>
<text text-anchor="start" x="345" y="-137.07" font-family="Helvetica,sans-Serif" font-size="9.00">DiagnosticsPanel.vue</text>
</a>
</g>
</g>
<!-- src/App.vue&#45;&gt;src/components/utils/DiagnosticsPanel.vue -->
<g id="edge1" class="edge">
<title>src/App.vue&#45;&gt;src/components/utils/DiagnosticsPanel.vue</title>
<path fill="none" stroke="#000000" stroke-width="2" stroke-opacity="0.200000" d="M168.56,-180.29C181.71,-176.14 197.96,-171.37 212.75,-168 250.6,-159.39 293.63,-152.5 327.69,-147.71"/>
<polygon fill="#000000" fill-opacity="0.200000" stroke="#000000" stroke-width="2" stroke-opacity="0.200000" points="327.94,-149.79 333.6,-146.89 327.37,-145.63 327.94,-149.79"/>
</g>
<!-- src/views/NavBar.vue -->
<g id="node3" class="node">
<title>src/views/NavBar.vue</title>
<g id="a_node3"><a xlink:href="src/views/NavBar.vue" xlink:title="NavBar.vue">
<path fill="#41f083" stroke="black" d="M287.71,-229.62C287.71,-229.62 238.04,-229.62 238.04,-229.62 234.83,-229.62 231.62,-226.42 231.62,-223.21 231.62,-223.21 231.62,-216.79 231.62,-216.79 231.62,-213.58 234.83,-210.38 238.04,-210.38 238.04,-210.38 287.71,-210.38 287.71,-210.38 290.92,-210.38 294.12,-213.58 294.12,-216.79 294.12,-216.79 294.12,-223.21 294.12,-223.21 294.12,-226.42 290.92,-229.62 287.71,-229.62"/>
<text text-anchor="start" x="239.62" y="-217.07" font-family="Helvetica,sans-Serif" font-size="9.00">NavBar.vue</text>
</a>
</g>
</g>
<!-- src/App.vue&#45;&gt;src/views/NavBar.vue -->
<g id="edge2" class="edge">
<title>src/App.vue&#45;&gt;src/views/NavBar.vue</title>
<path fill="none" stroke="#000000" stroke-width="2" stroke-opacity="0.200000" d="M168.83,-195.13C179.95,-197.77 193,-200.94 204.75,-204 210.58,-205.52 216.72,-207.17 222.73,-208.83"/>
<polygon fill="#000000" fill-opacity="0.200000" stroke="#000000" stroke-width="2" stroke-opacity="0.200000" points="222.14,-210.84 228.48,-210.43 223.26,-206.8 222.14,-210.84"/>
</g>
<!-- src/views/VideoGallery.vue -->
<g id="node4" class="node">
<title>src/views/VideoGallery.vue</title>
<g id="a_node4"><a xlink:href="src/views/VideoGallery.vue" xlink:title="VideoGallery.vue">
<path fill="#41f083" stroke="black" d="M298.58,-198.62C298.58,-198.62 227.17,-198.62 227.17,-198.62 223.96,-198.62 220.75,-195.42 220.75,-192.21 220.75,-192.21 220.75,-185.79 220.75,-185.79 220.75,-182.58 223.96,-179.38 227.17,-179.38 227.17,-179.38 298.58,-179.38 298.58,-179.38 301.79,-179.38 305,-182.58 305,-185.79 305,-185.79 305,-192.21 305,-192.21 305,-195.42 301.79,-198.62 298.58,-198.62"/>
<text text-anchor="start" x="228.75" y="-186.07" font-family="Helvetica,sans-Serif" font-size="9.00">VideoGallery.vue</text>
</a>
</g>
</g>
<!-- src/App.vue&#45;&gt;src/views/VideoGallery.vue -->
<g id="edge3" class="edge">
<title>src/App.vue&#45;&gt;src/views/VideoGallery.vue</title>
<path fill="none" stroke="#000000" stroke-width="2" stroke-opacity="0.200000" d="M168.6,-189C181.35,-189 197.11,-189 212.03,-189"/>
<polygon fill="#000000" fill-opacity="0.200000" stroke="#000000" stroke-width="2" stroke-opacity="0.200000" points="211.65,-191.1 217.65,-189 211.65,-186.9 211.65,-191.1"/>
</g>
<!-- src/stores/appStateStore.ts -->
<g id="node16" class="node">
<title>src/stores/appStateStore.ts</title>
<g id="a_node16"><a xlink:href="src/stores/appStateStore.ts" xlink:title="appStateStore.ts">
<path fill="#ddfeff" stroke="black" d="M544.83,-270.62C544.83,-270.62 473.42,-270.62 473.42,-270.62 470.21,-270.62 467,-267.42 467,-264.21 467,-264.21 467,-257.79 467,-257.79 467,-254.58 470.21,-251.38 473.42,-251.38 473.42,-251.38 544.83,-251.38 544.83,-251.38 548.04,-251.38 551.25,-254.58 551.25,-257.79 551.25,-257.79 551.25,-264.21 551.25,-264.21 551.25,-267.42 548.04,-270.62 544.83,-270.62"/>
<text text-anchor="start" x="475" y="-258.07" font-family="Helvetica,sans-Serif" font-size="9.00">appStateStore.ts</text>
</a>
</g>
</g>
<!-- src/components/utils/DiagnosticsPanel.vue&#45;&gt;src/stores/appStateStore.ts -->
<g id="edge13" class="edge">
<title>src/components/utils/DiagnosticsPanel.vue&#45;&gt;src/stores/appStateStore.ts</title>
<path fill="none" stroke="#000000" stroke-width="2" stroke-opacity="0.200000" d="M394.58,-149.83C402.69,-170.74 424.49,-219.86 459,-246 459.32,-246.24 459.64,-246.48 459.97,-246.72"/>
<polygon fill="#000000" fill-opacity="0.200000" stroke="#000000" stroke-width="2" stroke-opacity="0.200000" points="458.48,-248.27 464.71,-249.55 460.64,-244.67 458.48,-248.27"/>
</g>
<!-- src/stores/videosStore.ts -->
<g id="node14" class="node">
<title>src/stores/videosStore.ts</title>
<g id="a_node14"><a xlink:href="src/stores/videosStore.ts" xlink:title="videosStore.ts">
<path fill="#ddfeff" stroke="black" d="M539.96,-239.62C539.96,-239.62 478.29,-239.62 478.29,-239.62 475.08,-239.62 471.88,-236.42 471.88,-233.21 471.88,-233.21 471.88,-226.79 471.88,-226.79 471.88,-223.58 475.08,-220.38 478.29,-220.38 478.29,-220.38 539.96,-220.38 539.96,-220.38 543.17,-220.38 546.38,-223.58 546.38,-226.79 546.38,-226.79 546.38,-233.21 546.38,-233.21 546.38,-236.42 543.17,-239.62 539.96,-239.62"/>
<text text-anchor="start" x="479.88" y="-227.07" font-family="Helvetica,sans-Serif" font-size="9.00">videosStore.ts</text>
</a>
</g>
</g>
<!-- src/views/NavBar.vue&#45;&gt;src/stores/videosStore.ts -->
<g id="edge37" class="edge">
<title>src/views/NavBar.vue&#45;&gt;src/stores/videosStore.ts</title>
<path fill="none" stroke="#000000" stroke-width="2" stroke-opacity="0.200000" d="M294.32,-221.25C336.69,-222.98 413.78,-226.14 462.89,-228.15"/>
<polygon fill="#000000" fill-opacity="0.200000" stroke="#000000" stroke-width="2" stroke-opacity="0.200000" points="462.62,-230.24 468.7,-228.39 462.79,-226.04 462.62,-230.24"/>
</g>
<!-- src/components/inputs/FolderSelector.vue -->
<g id="node15" class="node">
<title>src/components/inputs/FolderSelector.vue</title>
<g id="a_node15"><a xlink:href="src/components/inputs/FolderSelector.vue" xlink:title="FolderSelector.vue">
<path fill="#41f083" stroke="black" d="M429.83,-86.62C429.83,-86.62 350.17,-86.62 350.17,-86.62 346.96,-86.62 343.75,-83.42 343.75,-80.21 343.75,-80.21 343.75,-73.79 343.75,-73.79 343.75,-70.58 346.96,-67.38 350.17,-67.38 350.17,-67.38 429.83,-67.38 429.83,-67.38 433.04,-67.38 436.25,-70.58 436.25,-73.79 436.25,-73.79 436.25,-80.21 436.25,-80.21 436.25,-83.42 433.04,-86.62 429.83,-86.62"/>
<text text-anchor="start" x="351.75" y="-74.08" font-family="Helvetica,sans-Serif" font-size="9.00">FolderSelector.vue</text>
</a>
</g>
</g>
<!-- src/views/NavBar.vue&#45;&gt;src/components/inputs/FolderSelector.vue -->
<g id="edge35" class="edge">
<title>src/views/NavBar.vue&#45;&gt;src/components/inputs/FolderSelector.vue</title>
<path fill="none" stroke="#000000" stroke-width="2" stroke-opacity="0.200000" d="M294.45,-216.57C301.52,-214.33 308.33,-210.74 313,-205 325.12,-190.12 310.88,-135.31 321,-119 328.56,-106.81 341.1,-97.62 353.37,-90.99"/>
<polygon fill="#000000" fill-opacity="0.200000" stroke="#000000" stroke-width="2" stroke-opacity="0.200000" points="354.2,-92.92 358.63,-88.35 352.32,-89.16 354.2,-92.92"/>
</g>
<!-- src/views/NavBar.vue&#45;&gt;src/stores/appStateStore.ts -->
<g id="edge36" class="edge">
<title>src/views/NavBar.vue&#45;&gt;src/stores/appStateStore.ts</title>
<path fill="none" stroke="#000000" stroke-width="2" stroke-opacity="0.200000" d="M294.32,-225.11C335.25,-231.98 408.56,-244.29 457.77,-252.55"/>
<polygon fill="#000000" fill-opacity="0.200000" stroke="#000000" stroke-width="2" stroke-opacity="0.200000" points="457.42,-254.62 463.68,-253.54 458.11,-250.48 457.42,-254.62"/>
</g>
<!-- src/components/VideoCard.vue -->
<g id="node12" class="node">
<title>src/components/VideoCard.vue</title>
<g id="a_node12"><a xlink:href="src/components/VideoCard.vue" xlink:title="VideoCard.vue">
<path fill="#41f083" stroke="black" d="M421.58,-50.62C421.58,-50.62 358.42,-50.62 358.42,-50.62 355.21,-50.62 352,-47.42 352,-44.21 352,-44.21 352,-37.79 352,-37.79 352,-34.58 355.21,-31.38 358.42,-31.38 358.42,-31.38 421.58,-31.38 421.58,-31.38 424.79,-31.38 428,-34.58 428,-37.79 428,-37.79 428,-44.21 428,-44.21 428,-47.42 424.79,-50.62 421.58,-50.62"/>
<text text-anchor="start" x="360" y="-38.08" font-family="Helvetica,sans-Serif" font-size="9.00">VideoCard.vue</text>
</a>
</g>
</g>
<!-- src/views/VideoGallery.vue&#45;&gt;src/components/VideoCard.vue -->
<g id="edge38" class="edge">
<title>src/views/VideoGallery.vue&#45;&gt;src/components/VideoCard.vue</title>
<path fill="none" stroke="#000000" stroke-width="2" stroke-opacity="0.200000" d="M265.05,-179.18C268.55,-154.37 281.3,-88.84 321,-56 327.29,-50.79 335,-47.29 342.94,-44.95"/>
<polygon fill="#000000" fill-opacity="0.200000" stroke="#000000" stroke-width="2" stroke-opacity="0.200000" points="343.31,-47.03 348.64,-43.57 342.32,-42.94 343.31,-47.03"/>
</g>
<!-- src/views/VideoGallery.vue&#45;&gt;src/stores/videosStore.ts -->
<g id="edge39" class="edge">
<title>src/views/VideoGallery.vue&#45;&gt;src/stores/videosStore.ts</title>
<path fill="none" stroke="#000000" stroke-width="2" stroke-opacity="0.200000" d="M305.19,-195.24C343.15,-201.07 400.94,-210.17 451,-219 454.85,-219.68 458.85,-220.41 462.85,-221.15"/>
<polygon fill="#000000" fill-opacity="0.200000" stroke="#000000" stroke-width="2" stroke-opacity="0.200000" points="462.33,-223.19 468.61,-222.23 463.1,-219.06 462.33,-223.19"/>
</g>
<!-- src/application/index.ts -->
<g id="node5" class="node">
<title>src/application/index.ts</title>
<g id="a_node5"><a xlink:href="src/application/index.ts" xlink:title="index.ts">
<path fill="#ddfeff" stroke="black" d="M623.58,-105.62C623.58,-105.62 582.42,-105.62 582.42,-105.62 579.21,-105.62 576,-102.42 576,-99.21 576,-99.21 576,-92.79 576,-92.79 576,-89.58 579.21,-86.38 582.42,-86.38 582.42,-86.38 623.58,-86.38 623.58,-86.38 626.79,-86.38 630,-89.58 630,-92.79 630,-92.79 630,-99.21 630,-99.21 630,-102.42 626.79,-105.62 623.58,-105.62"/>
<text text-anchor="start" x="587.25" y="-93.08" font-family="Helvetica,sans-Serif" font-size="9.00">index.ts</text>
</a>
</g>
</g>
<!-- src/application/services/FiltersService.ts -->
<g id="node6" class="node">
<title>src/application/services/FiltersService.ts</title>
<g id="a_node6"><a xlink:href="src/application/services/FiltersService.ts" xlink:title="FiltersService.ts">
<path fill="#ddfeff" stroke="black" d="M733.58,-74.62C733.58,-74.62 665.17,-74.62 665.17,-74.62 661.96,-74.62 658.75,-71.42 658.75,-68.21 658.75,-68.21 658.75,-61.79 658.75,-61.79 658.75,-58.58 661.96,-55.38 665.17,-55.38 665.17,-55.38 733.58,-55.38 733.58,-55.38 736.79,-55.38 740,-58.58 740,-61.79 740,-61.79 740,-68.21 740,-68.21 740,-71.42 736.79,-74.62 733.58,-74.62"/>
<text text-anchor="start" x="666.75" y="-62.08" font-family="Helvetica,sans-Serif" font-size="9.00">FiltersService.ts</text>
</a>
</g>
</g>
<!-- src/application/index.ts&#45;&gt;src/application/services/FiltersService.ts -->
<g id="edge4" class="edge">
<title>src/application/index.ts&#45;&gt;src/application/services/FiltersService.ts</title>
<path fill="none" stroke="#000000" stroke-width="2" stroke-opacity="0.200000" d="M623.5,-86.02C628.18,-83.86 633.21,-81.71 638,-80 641.87,-78.62 645.92,-77.33 650.01,-76.11"/>
<polygon fill="#000000" fill-opacity="0.200000" stroke="#000000" stroke-width="2" stroke-opacity="0.200000" points="650.3,-78.21 655.51,-74.57 649.17,-74.17 650.3,-78.21"/>
</g>
<!-- src/application/services/VideoMetadataService.ts -->
<g id="node7" class="node">
<title>src/application/services/VideoMetadataService.ts</title>
<g id="a_node7"><a xlink:href="src/application/services/VideoMetadataService.ts" xlink:title="VideoMetadataService.ts">
<path fill="#ddfeff" stroke="black" d="M875.83,-105.62C875.83,-105.62 772.17,-105.62 772.17,-105.62 768.96,-105.62 765.75,-102.42 765.75,-99.21 765.75,-99.21 765.75,-92.79 765.75,-92.79 765.75,-89.58 768.96,-86.38 772.17,-86.38 772.17,-86.38 875.83,-86.38 875.83,-86.38 879.04,-86.38 882.25,-89.58 882.25,-92.79 882.25,-92.79 882.25,-99.21 882.25,-99.21 882.25,-102.42 879.04,-105.62 875.83,-105.62"/>
<text text-anchor="start" x="773.75" y="-93.08" font-family="Helvetica,sans-Serif" font-size="9.00">VideoMetadataService.ts</text>
</a>
</g>
</g>
<!-- src/application/index.ts&#45;&gt;src/application/services/VideoMetadataService.ts -->
<g id="edge5" class="edge">
<title>src/application/index.ts&#45;&gt;src/application/services/VideoMetadataService.ts</title>
<path fill="none" stroke="#000000" stroke-width="2" stroke-opacity="0.200000" d="M621.47,-106.01C626.63,-108.47 632.4,-110.75 638,-112 684.02,-122.29 737.85,-115.59 775.54,-107.97"/>
<polygon fill="#000000" fill-opacity="0.200000" stroke="#000000" stroke-width="2" stroke-opacity="0.200000" points="775.88,-110.04 781.32,-106.75 775.01,-105.93 775.88,-110.04"/>
</g>
<!-- src/application/services/VideoParserService.ts -->
<g id="node8" class="node">
<title>src/application/services/VideoParserService.ts</title>
<g id="a_node8"><a xlink:href="src/application/services/VideoParserService.ts" xlink:title="VideoParserService.ts">
<path fill="#ddfeff" stroke="black" d="M746.33,-105.62C746.33,-105.62 652.42,-105.62 652.42,-105.62 649.21,-105.62 646,-102.42 646,-99.21 646,-99.21 646,-92.79 646,-92.79 646,-89.58 649.21,-86.38 652.42,-86.38 652.42,-86.38 746.33,-86.38 746.33,-86.38 749.54,-86.38 752.75,-89.58 752.75,-92.79 752.75,-92.79 752.75,-99.21 752.75,-99.21 752.75,-102.42 749.54,-105.62 746.33,-105.62"/>
<text text-anchor="start" x="654" y="-93.08" font-family="Helvetica,sans-Serif" font-size="9.00">VideoParserService.ts</text>
</a>
</g>
</g>
<!-- src/application/index.ts&#45;&gt;src/application/services/VideoParserService.ts -->
<g id="edge6" class="edge">
<title>src/application/index.ts&#45;&gt;src/application/services/VideoParserService.ts</title>
<path fill="none" stroke="#000000" stroke-width="2" stroke-opacity="0.200000" d="M630.29,-96C632.39,-96 634.56,-96 636.77,-96"/>
<polygon fill="#000000" fill-opacity="0.200000" stroke="#000000" stroke-width="2" stroke-opacity="0.200000" points="636.48,-98.1 642.48,-96 636.48,-93.9 636.48,-98.1"/>
</g>
<!-- src/infrastructure/index.ts -->
<g id="node9" class="node">
<title>src/infrastructure/index.ts</title>
<g id="a_node9"><a xlink:href="src/infrastructure/index.ts" xlink:title="index.ts">
<path fill="#ddfeff" stroke="black" d="M961.83,-105.62C961.83,-105.62 920.67,-105.62 920.67,-105.62 917.46,-105.62 914.25,-102.42 914.25,-99.21 914.25,-99.21 914.25,-92.79 914.25,-92.79 914.25,-89.58 917.46,-86.38 920.67,-86.38 920.67,-86.38 961.83,-86.38 961.83,-86.38 965.04,-86.38 968.25,-89.58 968.25,-92.79 968.25,-92.79 968.25,-99.21 968.25,-99.21 968.25,-102.42 965.04,-105.62 961.83,-105.62"/>
<text text-anchor="start" x="925.5" y="-93.08" font-family="Helvetica,sans-Serif" font-size="9.00">index.ts</text>
</a>
</g>
</g>
<!-- src/application/services/VideoMetadataService.ts&#45;&gt;src/infrastructure/index.ts -->
<g id="edge7" class="edge">
<title>src/application/services/VideoMetadataService.ts&#45;&gt;src/infrastructure/index.ts</title>
<path fill="none" stroke="#000000" stroke-width="2" stroke-opacity="0.200000" d="M882.62,-96C890.3,-96 897.98,-96 905.11,-96"/>
<polygon fill="#000000" fill-opacity="0.200000" stroke="#000000" stroke-width="2" stroke-opacity="0.200000" points="904.78,-98.1 910.78,-96 904.78,-93.9 904.78,-98.1"/>
</g>
<!-- src/application/services/VideoParserService.ts&#45;&gt;src/application/services/VideoMetadataService.ts -->
<g id="edge8" class="edge">
<title>src/application/services/VideoParserService.ts&#45;&gt;src/application/services/VideoMetadataService.ts</title>
<path fill="none" stroke="#000000" stroke-width="2" stroke-opacity="0.200000" d="M753.09,-96C754.39,-96 755.69,-96 757,-96"/>
<polygon fill="#000000" fill-opacity="0.200000" stroke="#000000" stroke-width="2" stroke-opacity="0.200000" points="756.61,-98.1 762.61,-96 756.61,-93.9 756.61,-98.1"/>
</g>
<!-- src/infrastructure/repository/MetadataRepository.ts -->
<g id="node28" class="node">
<title>src/infrastructure/repository/MetadataRepository.ts</title>
<g id="a_node28"><a xlink:href="src/infrastructure/repository/MetadataRepository.ts" xlink:title="MetadataRepository.ts">
<path fill="#ddfeff" stroke="black" d="M1085.33,-121.62C1085.33,-121.62 990.67,-121.62 990.67,-121.62 987.46,-121.62 984.25,-118.42 984.25,-115.21 984.25,-115.21 984.25,-108.79 984.25,-108.79 984.25,-105.58 987.46,-102.38 990.67,-102.38 990.67,-102.38 1085.33,-102.38 1085.33,-102.38 1088.54,-102.38 1091.75,-105.58 1091.75,-108.79 1091.75,-108.79 1091.75,-115.21 1091.75,-115.21 1091.75,-118.42 1088.54,-121.62 1085.33,-121.62"/>
<text text-anchor="start" x="992.25" y="-109.08" font-family="Helvetica,sans-Serif" font-size="9.00">MetadataRepository.ts</text>
</a>
</g>
</g>
<!-- src/infrastructure/index.ts&#45;&gt;src/infrastructure/repository/MetadataRepository.ts -->
<g id="edge26" class="edge">
<title>src/infrastructure/index.ts&#45;&gt;src/infrastructure/repository/MetadataRepository.ts</title>
<path fill="none" stroke="#000000" stroke-width="2" stroke-opacity="0.200000" d="M968.64,-100.46C970.75,-100.81 972.93,-101.18 975.15,-101.56"/>
<polygon fill="#000000" fill-opacity="0.200000" stroke="#000000" stroke-width="2" stroke-opacity="0.200000" points="974.67,-103.6 980.94,-102.53 975.37,-99.46 974.67,-103.6"/>
</g>
<!-- src/infrastructure/repository/VideoRepository.ts -->
<g id="node29" class="node">
<title>src/infrastructure/repository/VideoRepository.ts</title>
<g id="a_node29"><a xlink:href="src/infrastructure/repository/VideoRepository.ts" xlink:title="VideoRepository.ts">
<path fill="#ddfeff" stroke="black" d="M1078.21,-90.62C1078.21,-90.62 997.79,-90.62 997.79,-90.62 994.58,-90.62 991.38,-87.42 991.38,-84.21 991.38,-84.21 991.38,-77.79 991.38,-77.79 991.38,-74.58 994.58,-71.38 997.79,-71.38 997.79,-71.38 1078.21,-71.38 1078.21,-71.38 1081.42,-71.38 1084.62,-74.58 1084.62,-77.79 1084.62,-77.79 1084.62,-84.21 1084.62,-84.21 1084.62,-87.42 1081.42,-90.62 1078.21,-90.62"/>
<text text-anchor="start" x="999.38" y="-78.08" font-family="Helvetica,sans-Serif" font-size="9.00">VideoRepository.ts</text>
</a>
</g>
</g>
<!-- src/infrastructure/index.ts&#45;&gt;src/infrastructure/repository/VideoRepository.ts -->
<g id="edge27" class="edge">
<title>src/infrastructure/index.ts&#45;&gt;src/infrastructure/repository/VideoRepository.ts</title>
<path fill="none" stroke="#000000" stroke-width="2" stroke-opacity="0.200000" d="M968.64,-91.82C973.02,-91.13 977.7,-90.39 982.48,-89.63"/>
<polygon fill="#000000" fill-opacity="0.200000" stroke="#000000" stroke-width="2" stroke-opacity="0.200000" points="982.56,-91.74 988.16,-88.73 981.91,-87.6 982.56,-91.74"/>
</g>
<!-- src/assets/effects/FadeTransition.vue -->
<g id="node10" class="node">
<title>src/assets/effects/FadeTransition.vue</title>
<g id="a_node10"><a xlink:href="src/assets/effects/FadeTransition.vue" xlink:title="no&#45;orphans">
<path fill="#ccffcc" stroke="orange" d="M182.33,-270.62C182.33,-270.62 100.42,-270.62 100.42,-270.62 97.21,-270.62 94,-267.42 94,-264.21 94,-264.21 94,-257.79 94,-257.79 94,-254.58 97.21,-251.38 100.42,-251.38 100.42,-251.38 182.33,-251.38 182.33,-251.38 185.54,-251.38 188.75,-254.58 188.75,-257.79 188.75,-257.79 188.75,-264.21 188.75,-264.21 188.75,-267.42 185.54,-270.62 182.33,-270.62"/>
<text text-anchor="start" x="102" y="-258.07" font-family="Helvetica,sans-Serif" font-size="9.00" fill="orange">FadeTransition.vue</text>
</a>
</g>
</g>
<!-- src/assets/main.css -->
<g id="node11" class="node">
<title>src/assets/main.css</title>
<g id="a_node11"><a xlink:href="src/assets/main.css" xlink:title="main.css">
<path fill="#ffffcc" stroke="black" d="M162.08,-234.62C162.08,-234.62 120.67,-234.62 120.67,-234.62 117.46,-234.62 114.25,-231.42 114.25,-228.21 114.25,-228.21 114.25,-221.79 114.25,-221.79 114.25,-218.58 117.46,-215.38 120.67,-215.38 120.67,-215.38 162.08,-215.38 162.08,-215.38 165.29,-215.38 168.5,-218.58 168.5,-221.79 168.5,-221.79 168.5,-228.21 168.5,-228.21 168.5,-231.42 165.29,-234.62 162.08,-234.62"/>
<text text-anchor="start" x="122.25" y="-222.07" font-family="Helvetica,sans-Serif" font-size="9.00">main.css</text>
</a>
</g>
</g>
<!-- src/components/VideoEmbed.vue -->
<g id="node13" class="node">
<title>src/components/VideoEmbed.vue</title>
<g id="a_node13"><a xlink:href="src/components/VideoEmbed.vue" xlink:title="VideoEmbed.vue">
<path fill="#41f083" stroke="black" d="M545.58,-50.62C545.58,-50.62 472.67,-50.62 472.67,-50.62 469.46,-50.62 466.25,-47.42 466.25,-44.21 466.25,-44.21 466.25,-37.79 466.25,-37.79 466.25,-34.58 469.46,-31.38 472.67,-31.38 472.67,-31.38 545.58,-31.38 545.58,-31.38 548.79,-31.38 552,-34.58 552,-37.79 552,-37.79 552,-44.21 552,-44.21 552,-47.42 548.79,-50.62 545.58,-50.62"/>
<text text-anchor="start" x="474.25" y="-38.08" font-family="Helvetica,sans-Serif" font-size="9.00">VideoEmbed.vue</text>
</a>
</g>
</g>
<!-- src/components/VideoCard.vue&#45;&gt;src/components/VideoEmbed.vue -->
<g id="edge9" class="edge">
<title>src/components/VideoCard.vue&#45;&gt;src/components/VideoEmbed.vue</title>
<path fill="none" stroke="#000000" stroke-width="2" stroke-opacity="0.200000" d="M428.38,-41C437.5,-41 447.42,-41 457.06,-41"/>
<polygon fill="#000000" fill-opacity="0.200000" stroke="#000000" stroke-width="2" stroke-opacity="0.200000" points="456.78,-43.1 462.78,-41 456.78,-38.9 456.78,-43.1"/>
</g>
<!-- src/components/VideoCard.vue&#45;&gt;src/stores/videosStore.ts -->
<g id="edge10" class="edge">
<title>src/components/VideoCard.vue&#45;&gt;src/stores/videosStore.ts</title>
<path fill="none" stroke="#000000" stroke-width="2" stroke-opacity="0.200000" d="M428.4,-42.87C437.03,-45.13 445.33,-49.12 451,-56 472.37,-81.93 440.22,-179.13 459,-207 461.07,-210.08 463.67,-212.75 466.58,-215.07"/>
<polygon fill="#000000" fill-opacity="0.200000" stroke="#000000" stroke-width="2" stroke-opacity="0.200000" points="465.16,-216.65 471.32,-218.21 467.47,-213.14 465.16,-216.65"/>
</g>
<!-- src/stores/videosStore.ts&#45;&gt;src/application/index.ts -->
<g id="edge34" class="edge">
<title>src/stores/videosStore.ts&#45;&gt;src/application/index.ts</title>
<path fill="none" stroke="#000000" stroke-width="2" stroke-opacity="0.200000" d="M517.03,-219.93C532.67,-197.12 570.94,-141.3 590.33,-113.02"/>
<polygon fill="#000000" fill-opacity="0.200000" stroke="#000000" stroke-width="2" stroke-opacity="0.200000" points="591.89,-114.46 593.55,-108.32 588.43,-112.08 591.89,-114.46"/>
</g>
<!-- src/components/inputs/FolderSelector.vue&#45;&gt;src/application/index.ts -->
<g id="edge11" class="edge">
<title>src/components/inputs/FolderSelector.vue&#45;&gt;src/application/index.ts</title>
<path fill="none" stroke="#000000" stroke-width="2" stroke-opacity="0.200000" d="M436.69,-82.63C444.14,-83.48 451.78,-84.3 459,-85 495.67,-88.57 537.73,-91.69 566.7,-93.68"/>
<polygon fill="#000000" fill-opacity="0.200000" stroke="#000000" stroke-width="2" stroke-opacity="0.200000" points="566.47,-95.77 572.6,-94.08 566.75,-91.58 566.47,-95.77"/>
</g>
<!-- src/components/inputs/FolderSelector.vue&#45;&gt;src/stores/videosStore.ts -->
<g id="edge12" class="edge">
<title>src/components/inputs/FolderSelector.vue&#45;&gt;src/stores/videosStore.ts</title>
<path fill="none" stroke="#000000" stroke-width="2" stroke-opacity="0.200000" d="M410.14,-87.12C422.93,-94.61 439.46,-105.78 451,-119 475.79,-147.4 493.26,-188.44 501.92,-211.84"/>
<polygon fill="#000000" fill-opacity="0.200000" stroke="#000000" stroke-width="2" stroke-opacity="0.200000" points="499.87,-212.36 503.87,-217.31 503.83,-210.95 499.87,-212.36"/>
</g>
<!-- src/domain/constants/index.ts -->
<g id="node17" class="node">
<title>src/domain/constants/index.ts</title>
<g id="a_node17"><a xlink:href="src/domain/constants/index.ts" xlink:title="index.ts">
<path fill="#ddfeff" stroke="black" d="M1320.71,-219.62C1320.71,-219.62 1279.54,-219.62 1279.54,-219.62 1276.33,-219.62 1273.12,-216.42 1273.12,-213.21 1273.12,-213.21 1273.12,-206.79 1273.12,-206.79 1273.12,-203.58 1276.33,-200.38 1279.54,-200.38 1279.54,-200.38 1320.71,-200.38 1320.71,-200.38 1323.92,-200.38 1327.12,-203.58 1327.12,-206.79 1327.12,-206.79 1327.12,-213.21 1327.12,-213.21 1327.12,-216.42 1323.92,-219.62 1320.71,-219.62"/>
<text text-anchor="start" x="1284.38" y="-207.07" font-family="Helvetica,sans-Serif" font-size="9.00">index.ts</text>
</a>
</g>
</g>
<!-- src/domain/entities/Metadata.ts -->
<g id="node18" class="node">
<title>src/domain/entities/Metadata.ts</title>
<g id="a_node18"><a xlink:href="src/domain/entities/Metadata.ts" xlink:title="Metadata.ts">
<path fill="#ddfeff" stroke="black" d="M1435.83,-325.62C1435.83,-325.62 1385.42,-325.62 1385.42,-325.62 1382.21,-325.62 1379,-322.42 1379,-319.21 1379,-319.21 1379,-312.79 1379,-312.79 1379,-309.58 1382.21,-306.38 1385.42,-306.38 1385.42,-306.38 1435.83,-306.38 1435.83,-306.38 1439.04,-306.38 1442.25,-309.58 1442.25,-312.79 1442.25,-312.79 1442.25,-319.21 1442.25,-319.21 1442.25,-322.42 1439.04,-325.62 1435.83,-325.62"/>
<text text-anchor="start" x="1387" y="-313.07" font-family="Helvetica,sans-Serif" font-size="9.00">Metadata.ts</text>
</a>
</g>
</g>
<!-- src/domain/entities/Video.ts -->
<g id="node19" class="node">
<title>src/domain/entities/Video.ts</title>
<g id="a_node19"><a xlink:href="src/domain/entities/Video.ts" xlink:title="Video.ts">
<path fill="#ddfeff" stroke="black" d="M1431.21,-294.62C1431.21,-294.62 1390.04,-294.62 1390.04,-294.62 1386.83,-294.62 1383.62,-291.42 1383.62,-288.21 1383.62,-288.21 1383.62,-281.79 1383.62,-281.79 1383.62,-278.58 1386.83,-275.38 1390.04,-275.38 1390.04,-275.38 1431.21,-275.38 1431.21,-275.38 1434.42,-275.38 1437.62,-278.58 1437.62,-281.79 1437.62,-281.79 1437.62,-288.21 1437.62,-288.21 1437.62,-291.42 1434.42,-294.62 1431.21,-294.62"/>
<text text-anchor="start" x="1394.12" y="-282.07" font-family="Helvetica,sans-Serif" font-size="9.00">Video.ts</text>
</a>
</g>
</g>
<!-- src/domain/index.ts -->
<g id="node20" class="node">
<title>src/domain/index.ts</title>
<g id="a_node20"><a xlink:href="src/domain/index.ts" xlink:title="index.ts">
<path fill="#ddfeff" stroke="black" d="M1193.08,-282.62C1193.08,-282.62 1151.92,-282.62 1151.92,-282.62 1148.71,-282.62 1145.5,-279.42 1145.5,-276.21 1145.5,-276.21 1145.5,-269.79 1145.5,-269.79 1145.5,-266.58 1148.71,-263.38 1151.92,-263.38 1151.92,-263.38 1193.08,-263.38 1193.08,-263.38 1196.29,-263.38 1199.5,-266.58 1199.5,-269.79 1199.5,-269.79 1199.5,-276.21 1199.5,-276.21 1199.5,-279.42 1196.29,-282.62 1193.08,-282.62"/>
<text text-anchor="start" x="1156.75" y="-270.07" font-family="Helvetica,sans-Serif" font-size="9.00">index.ts</text>
</a>
</g>
</g>
<!-- src/domain/index.ts&#45;&gt;src/domain/constants/index.ts -->
<g id="edge14" class="edge">
<title>src/domain/index.ts&#45;&gt;src/domain/constants/index.ts</title>
<path fill="none" stroke="#000000" stroke-width="2" stroke-opacity="0.200000" d="M1193.68,-262.88C1214.65,-252.36 1247.63,-235.83 1271.11,-224.05"/>
<polygon fill="#000000" fill-opacity="0.200000" stroke="#000000" stroke-width="2" stroke-opacity="0.200000" points="1271.86,-226.02 1276.29,-221.45 1269.98,-222.27 1271.86,-226.02"/>
</g>
<!-- src/domain/index.ts&#45;&gt;src/domain/entities/Metadata.ts -->
<g id="edge15" class="edge">
<title>src/domain/index.ts&#45;&gt;src/domain/entities/Metadata.ts</title>
<path fill="none" stroke="#000000" stroke-opacity="0.200000" d="M1177.83,-283.01C1186.25,-300.99 1206.69,-338.28 1237.25,-353 1287.6,-377.26 1310.23,-371.4 1363,-353 1375.61,-348.61 1387.36,-339.22 1395.92,-331.01"/>
<polygon fill="none" stroke="#000000" stroke-opacity="0.200000" points="1396.99,-332.9 1399.74,-327.17 1394.02,-329.94 1396.99,-332.9"/>
</g>
<!-- src/domain/index.ts&#45;&gt;src/domain/entities/Video.ts -->
<g id="edge16" class="edge">
<title>src/domain/index.ts&#45;&gt;src/domain/entities/Video.ts</title>
<path fill="none" stroke="#000000" stroke-opacity="0.200000" d="M1178.73,-282.94C1187.98,-299.31 1208.96,-331.38 1237.25,-344 1262.77,-355.38 1341.55,-361.91 1363,-344 1378.26,-331.26 1358.35,-315.33 1371,-300 1372.7,-297.94 1374.73,-296.16 1376.94,-294.62"/>
<polygon fill="none" stroke="#000000" stroke-opacity="0.200000" points="1377.66,-296.63 1381.84,-291.84 1375.59,-292.97 1377.66,-296.63"/>
</g>
<!-- src/domain/repositories/IMetadataRepository.ts -->
<g id="node21" class="node">
<title>src/domain/repositories/IMetadataRepository.ts</title>
<g id="a_node21"><a xlink:href="src/domain/repositories/IMetadataRepository.ts" xlink:title="IMetadataRepository.ts">
<path fill="#ddfeff" stroke="black" d="M1348.58,-313.62C1348.58,-313.62 1251.67,-313.62 1251.67,-313.62 1248.46,-313.62 1245.25,-310.42 1245.25,-307.21 1245.25,-307.21 1245.25,-300.79 1245.25,-300.79 1245.25,-297.58 1248.46,-294.38 1251.67,-294.38 1251.67,-294.38 1348.58,-294.38 1348.58,-294.38 1351.79,-294.38 1355,-297.58 1355,-300.79 1355,-300.79 1355,-307.21 1355,-307.21 1355,-310.42 1351.79,-313.62 1348.58,-313.62"/>
<text text-anchor="start" x="1253.25" y="-301.07" font-family="Helvetica,sans-Serif" font-size="9.00">IMetadataRepository.ts</text>
</a>
</g>
</g>
<!-- src/domain/index.ts&#45;&gt;src/domain/repositories/IMetadataRepository.ts -->
<g id="edge17" class="edge">
<title>src/domain/index.ts&#45;&gt;src/domain/repositories/IMetadataRepository.ts</title>
<path fill="none" stroke="#000000" stroke-opacity="0.200000" d="M1199.85,-279.66C1211.33,-282.56 1224.95,-285.97 1237.25,-289 1241.37,-290.02 1245.66,-291.07 1249.95,-292.12"/>
<polygon fill="none" stroke="#000000" stroke-opacity="0.200000" points="1249.38,-294.14 1255.71,-293.52 1250.37,-290.06 1249.38,-294.14"/>
</g>
<!-- src/domain/repositories/IVideoRepository.ts -->
<g id="node22" class="node">
<title>src/domain/repositories/IVideoRepository.ts</title>
<g id="a_node22"><a xlink:href="src/domain/repositories/IVideoRepository.ts" xlink:title="IVideoRepository.ts">
<path fill="#ddfeff" stroke="black" d="M1341.46,-282.62C1341.46,-282.62 1258.79,-282.62 1258.79,-282.62 1255.58,-282.62 1252.38,-279.42 1252.38,-276.21 1252.38,-276.21 1252.38,-269.79 1252.38,-269.79 1252.38,-266.58 1255.58,-263.38 1258.79,-263.38 1258.79,-263.38 1341.46,-263.38 1341.46,-263.38 1344.67,-263.38 1347.88,-266.58 1347.88,-269.79 1347.88,-269.79 1347.88,-276.21 1347.88,-276.21 1347.88,-279.42 1344.67,-282.62 1341.46,-282.62"/>
<text text-anchor="start" x="1260.38" y="-270.07" font-family="Helvetica,sans-Serif" font-size="9.00">IVideoRepository.ts</text>
</a>
</g>
</g>
<!-- src/domain/index.ts&#45;&gt;src/domain/repositories/IVideoRepository.ts -->
<g id="edge18" class="edge">
<title>src/domain/index.ts&#45;&gt;src/domain/repositories/IVideoRepository.ts</title>
<path fill="none" stroke="#000000" stroke-opacity="0.200000" d="M1199.84,-273C1212.94,-273 1229.28,-273 1244.9,-273"/>
<polygon fill="none" stroke="#000000" stroke-opacity="0.200000" points="1244.5,-275.1 1250.5,-273 1244.5,-270.9 1244.5,-275.1"/>
</g>
<!-- src/domain/repositories/IMetadataRepository.ts&#45;&gt;src/domain/entities/Metadata.ts -->
<g id="edge19" class="edge">
<title>src/domain/repositories/IMetadataRepository.ts&#45;&gt;src/domain/entities/Metadata.ts</title>
<path fill="none" stroke="#000000" stroke-opacity="0.200000" d="M1355.38,-310C1360.71,-310.59 1366.05,-311.18 1371.19,-311.75"/>
<polygon fill="none" stroke="#000000" stroke-opacity="0.200000" points="1370.83,-313.82 1377.03,-312.39 1371.3,-309.65 1370.83,-313.82"/>
</g>
<!-- src/domain/repositories/IVideoRepository.ts&#45;&gt;src/domain/entities/Video.ts -->
<g id="edge20" class="edge">
<title>src/domain/repositories/IVideoRepository.ts&#45;&gt;src/domain/entities/Video.ts</title>
<path fill="none" stroke="#000000" stroke-opacity="0.200000" d="M1348.08,-278.19C1357.39,-279.22 1366.98,-280.28 1375.74,-281.25"/>
<polygon fill="none" stroke="#000000" stroke-opacity="0.200000" points="1375.5,-283.34 1381.7,-281.91 1375.97,-279.16 1375.5,-283.34"/>
</g>
<!-- src/infrastructure/database/DatabaseConnection.ts -->
<g id="node23" class="node">
<title>src/infrastructure/database/DatabaseConnection.ts</title>
<g id="a_node23"><a xlink:href="src/infrastructure/database/DatabaseConnection.ts" xlink:title="DatabaseConnection.ts">
<path fill="#ddfeff" stroke="black" d="M1222.83,-92.62C1222.83,-92.62 1122.17,-92.62 1122.17,-92.62 1118.96,-92.62 1115.75,-89.42 1115.75,-86.21 1115.75,-86.21 1115.75,-79.79 1115.75,-79.79 1115.75,-76.58 1118.96,-73.38 1122.17,-73.38 1122.17,-73.38 1222.83,-73.38 1222.83,-73.38 1226.04,-73.38 1229.25,-76.58 1229.25,-79.79 1229.25,-79.79 1229.25,-86.21 1229.25,-86.21 1229.25,-89.42 1226.04,-92.62 1222.83,-92.62"/>
<text text-anchor="start" x="1123.75" y="-80.08" font-family="Helvetica,sans-Serif" font-size="9.00">DatabaseConnection.ts</text>
</a>
</g>
</g>
<!-- src/infrastructure/database/migrations/index.ts -->
<g id="node24" class="node">
<title>src/infrastructure/database/migrations/index.ts</title>
<g id="a_node24"><a xlink:href="src/infrastructure/database/migrations/index.ts" xlink:title="index.ts">
<path fill="#ddfeff" stroke="black" d="M1320.71,-92.62C1320.71,-92.62 1279.54,-92.62 1279.54,-92.62 1276.33,-92.62 1273.12,-89.42 1273.12,-86.21 1273.12,-86.21 1273.12,-79.79 1273.12,-79.79 1273.12,-76.58 1276.33,-73.38 1279.54,-73.38 1279.54,-73.38 1320.71,-73.38 1320.71,-73.38 1323.92,-73.38 1327.12,-76.58 1327.12,-79.79 1327.12,-79.79 1327.12,-86.21 1327.12,-86.21 1327.12,-89.42 1323.92,-92.62 1320.71,-92.62"/>
<text text-anchor="start" x="1284.38" y="-80.08" font-family="Helvetica,sans-Serif" font-size="9.00">index.ts</text>
</a>
</g>
</g>
<!-- src/infrastructure/database/DatabaseConnection.ts&#45;&gt;src/infrastructure/database/migrations/index.ts -->
<g id="edge21" class="edge">
<title>src/infrastructure/database/DatabaseConnection.ts&#45;&gt;src/infrastructure/database/migrations/index.ts</title>
<path fill="none" stroke="#000000" stroke-width="2" stroke-opacity="0.200000" d="M1229.7,-83C1241.32,-83 1253.25,-83 1263.86,-83"/>
<polygon fill="#000000" fill-opacity="0.200000" stroke="#000000" stroke-width="2" stroke-opacity="0.200000" points="1263.79,-85.1 1269.79,-83 1263.79,-80.9 1263.79,-85.1"/>
</g>
<!-- src/infrastructure/database/migrations/v1.ts -->
<g id="node25" class="node">
<title>src/infrastructure/database/migrations/v1.ts</title>
<g id="a_node25"><a xlink:href="src/infrastructure/database/migrations/v1.ts" xlink:title="v1.ts">
<path fill="#ddfeff" stroke="black" d="M1431.21,-62.62C1431.21,-62.62 1390.04,-62.62 1390.04,-62.62 1386.83,-62.62 1383.62,-59.42 1383.62,-56.21 1383.62,-56.21 1383.62,-49.79 1383.62,-49.79 1383.62,-46.58 1386.83,-43.38 1390.04,-43.38 1390.04,-43.38 1431.21,-43.38 1431.21,-43.38 1434.42,-43.38 1437.62,-46.58 1437.62,-49.79 1437.62,-49.79 1437.62,-56.21 1437.62,-56.21 1437.62,-59.42 1434.42,-62.62 1431.21,-62.62"/>
<text text-anchor="start" x="1401.25" y="-50.08" font-family="Helvetica,sans-Serif" font-size="9.00">v1.ts</text>
</a>
</g>
</g>
<!-- src/infrastructure/database/migrations/index.ts&#45;&gt;src/infrastructure/database/migrations/v1.ts -->
<g id="edge22" class="edge">
<title>src/infrastructure/database/migrations/index.ts&#45;&gt;src/infrastructure/database/migrations/v1.ts</title>
<path fill="none" stroke="#000000" stroke-width="2" stroke-opacity="0.200000" d="M1327.39,-75.74C1341.68,-71.79 1359.53,-66.85 1374.95,-62.59"/>
<polygon fill="#000000" fill-opacity="0.200000" stroke="#000000" stroke-width="2" stroke-opacity="0.200000" points="1375.09,-64.73 1380.31,-61.11 1373.97,-60.68 1375.09,-64.73"/>
</g>
<!-- src/infrastructure/database/migrations/v2.ts -->
<g id="node26" class="node">
<title>src/infrastructure/database/migrations/v2.ts</title>
<g id="a_node26"><a xlink:href="src/infrastructure/database/migrations/v2.ts" xlink:title="v2.ts">
<path fill="#ddfeff" stroke="black" d="M1431.21,-93.62C1431.21,-93.62 1390.04,-93.62 1390.04,-93.62 1386.83,-93.62 1383.62,-90.42 1383.62,-87.21 1383.62,-87.21 1383.62,-80.79 1383.62,-80.79 1383.62,-77.58 1386.83,-74.38 1390.04,-74.38 1390.04,-74.38 1431.21,-74.38 1431.21,-74.38 1434.42,-74.38 1437.62,-77.58 1437.62,-80.79 1437.62,-80.79 1437.62,-87.21 1437.62,-87.21 1437.62,-90.42 1434.42,-93.62 1431.21,-93.62"/>
<text text-anchor="start" x="1401.25" y="-81.08" font-family="Helvetica,sans-Serif" font-size="9.00">v2.ts</text>
</a>
</g>
</g>
<!-- src/infrastructure/database/migrations/index.ts&#45;&gt;src/infrastructure/database/migrations/v2.ts -->
<g id="edge23" class="edge">
<title>src/infrastructure/database/migrations/index.ts&#45;&gt;src/infrastructure/database/migrations/v2.ts</title>
<path fill="none" stroke="#000000" stroke-width="2" stroke-opacity="0.200000" d="M1327.39,-83.24C1341.55,-83.37 1359.2,-83.54 1374.52,-83.68"/>
<polygon fill="#000000" fill-opacity="0.200000" stroke="#000000" stroke-width="2" stroke-opacity="0.200000" points="1374.18,-85.77 1380.2,-83.73 1374.22,-81.57 1374.18,-85.77"/>
</g>
<!-- src/infrastructure/database/migrations/utils/index.ts -->
<g id="node27" class="node">
<title>src/infrastructure/database/migrations/utils/index.ts</title>
<g id="a_node27"><a xlink:href="src/infrastructure/database/migrations/utils/index.ts" xlink:title="index.ts">
<path fill="#ddfeff" stroke="black" d="M1521.83,-67.62C1521.83,-67.62 1480.67,-67.62 1480.67,-67.62 1477.46,-67.62 1474.25,-64.42 1474.25,-61.21 1474.25,-61.21 1474.25,-54.79 1474.25,-54.79 1474.25,-51.58 1477.46,-48.38 1480.67,-48.38 1480.67,-48.38 1521.83,-48.38 1521.83,-48.38 1525.04,-48.38 1528.25,-51.58 1528.25,-54.79 1528.25,-54.79 1528.25,-61.21 1528.25,-61.21 1528.25,-64.42 1525.04,-67.62 1521.83,-67.62"/>
<text text-anchor="start" x="1485.5" y="-55.08" font-family="Helvetica,sans-Serif" font-size="9.00">index.ts</text>
</a>
</g>
</g>
<!-- src/infrastructure/database/migrations/v1.ts&#45;&gt;src/infrastructure/database/migrations/utils/index.ts -->
<g id="edge24" class="edge">
<title>src/infrastructure/database/migrations/v1.ts&#45;&gt;src/infrastructure/database/migrations/utils/index.ts</title>
<path fill="none" stroke="#000000" stroke-width="2" stroke-opacity="0.200000" d="M1437.74,-54.47C1446.31,-54.96 1455.99,-55.5 1465.13,-56.02"/>
<polygon fill="#000000" fill-opacity="0.200000" stroke="#000000" stroke-width="2" stroke-opacity="0.200000" points="1464.89,-58.11 1471,-56.35 1465.12,-53.91 1464.89,-58.11"/>
</g>
<!-- src/infrastructure/database/migrations/v2.ts&#45;&gt;src/infrastructure/database/migrations/utils/index.ts -->
<g id="edge25" class="edge">
<title>src/infrastructure/database/migrations/v2.ts&#45;&gt;src/infrastructure/database/migrations/utils/index.ts</title>
<path fill="none" stroke="#000000" stroke-width="2" stroke-opacity="0.200000" d="M1437.74,-76.34C1446.4,-73.8 1456.2,-70.92 1465.41,-68.22"/>
<polygon fill="#000000" fill-opacity="0.200000" stroke="#000000" stroke-width="2" stroke-opacity="0.200000" points="1465.95,-70.25 1471.11,-66.55 1464.77,-66.22 1465.95,-70.25"/>
</g>
<!-- src/infrastructure/repository/MetadataRepository.ts&#45;&gt;src/domain/index.ts -->
<g id="edge29" class="edge">
<title>src/infrastructure/repository/MetadataRepository.ts&#45;&gt;src/domain/index.ts</title>
<path fill="none" stroke="#000000" stroke-width="2" stroke-opacity="0.200000" d="M1047.29,-122.07C1069.41,-148.95 1130.03,-222.61 1157.57,-256.07"/>
<polygon fill="#000000" fill-opacity="0.200000" stroke="#000000" stroke-width="2" stroke-opacity="0.200000" points="1155.86,-257.3 1161.29,-260.6 1159.1,-254.63 1155.86,-257.3"/>
</g>
<!-- src/infrastructure/repository/MetadataRepository.ts&#45;&gt;src/infrastructure/database/DatabaseConnection.ts -->
<g id="edge28" class="edge">
<title>src/infrastructure/repository/MetadataRepository.ts&#45;&gt;src/infrastructure/database/DatabaseConnection.ts</title>
<path fill="none" stroke="#000000" stroke-width="2" stroke-opacity="0.200000" d="M1084.97,-101.94C1095.25,-99.69 1106.25,-97.28 1116.84,-94.96"/>
<polygon fill="#000000" fill-opacity="0.200000" stroke="#000000" stroke-width="2" stroke-opacity="0.200000" points="1117.24,-97.03 1122.65,-93.69 1116.34,-92.92 1117.24,-97.03"/>
</g>
<!-- src/infrastructure/repository/VideoRepository.ts&#45;&gt;src/domain/index.ts -->
<g id="edge31" class="edge">
<title>src/infrastructure/repository/VideoRepository.ts&#45;&gt;src/domain/index.ts</title>
<path fill="none" stroke="#000000" stroke-width="2" stroke-opacity="0.200000" d="M1084.83,-85.9C1090.47,-88.23 1095.67,-91.49 1099.75,-96 1116.62,-114.65 1100,-128.08 1107.75,-152 1120.46,-191.23 1145.27,-232.92 1159.91,-255.68"/>
<polygon fill="#000000" fill-opacity="0.200000" stroke="#000000" stroke-width="2" stroke-opacity="0.200000" points="1158.1,-256.76 1163.14,-260.63 1161.62,-254.46 1158.1,-256.76"/>
</g>
<!-- src/infrastructure/repository/VideoRepository.ts&#45;&gt;src/infrastructure/database/DatabaseConnection.ts -->
<g id="edge30" class="edge">
<title>src/infrastructure/repository/VideoRepository.ts&#45;&gt;src/infrastructure/database/DatabaseConnection.ts</title>
<path fill="none" stroke="#000000" stroke-width="2" stroke-opacity="0.200000" d="M1084.97,-81.69C1092.06,-81.8 1099.5,-81.91 1106.9,-82.02"/>
<polygon fill="#000000" fill-opacity="0.200000" stroke="#000000" stroke-width="2" stroke-opacity="0.200000" points="1106.51,-84.12 1112.54,-82.11 1106.57,-79.92 1106.51,-84.12"/>
</g>
<!-- src/main.ts -->
<g id="node30" class="node">
<title>src/main.ts</title>
<g id="a_node30"><a xlink:href="src/main.ts" xlink:title="main.ts">
<path fill="#ddfeff" stroke="black" d="M63.58,-216.62C63.58,-216.62 22.42,-216.62 22.42,-216.62 19.21,-216.62 16,-213.42 16,-210.21 16,-210.21 16,-203.79 16,-203.79 16,-200.58 19.21,-197.38 22.42,-197.38 22.42,-197.38 63.58,-197.38 63.58,-197.38 66.79,-197.38 70,-200.58 70,-203.79 70,-203.79 70,-210.21 70,-210.21 70,-213.42 66.79,-216.62 63.58,-216.62"/>
<text text-anchor="start" x="27.62" y="-204.07" font-family="Helvetica,sans-Serif" font-size="9.00">main.ts</text>
</a>
</g>
</g>
<!-- src/main.ts&#45;&gt;src/App.vue -->
<g id="edge32" class="edge">
<title>src/main.ts&#45;&gt;src/App.vue</title>
<path fill="none" stroke="#000000" stroke-width="2" stroke-opacity="0.200000" d="M70.33,-202.08C81.17,-200.06 93.88,-197.68 105.47,-195.52"/>
<polygon fill="#000000" fill-opacity="0.200000" stroke="#000000" stroke-width="2" stroke-opacity="0.200000" points="105.58,-197.63 111.1,-194.47 104.81,-193.51 105.58,-197.63"/>
</g>
<!-- src/main.ts&#45;&gt;src/assets/main.css -->
<g id="edge33" class="edge">
<title>src/main.ts&#45;&gt;src/assets/main.css</title>
<path fill="none" stroke="#000000" stroke-width="2" stroke-opacity="0.200000" d="M70.33,-211.92C81.17,-213.94 93.88,-216.32 105.47,-218.48"/>
<polygon fill="#000000" fill-opacity="0.200000" stroke="#000000" stroke-width="2" stroke-opacity="0.200000" points="104.81,-220.49 111.1,-219.53 105.58,-216.37 104.81,-220.49"/>
</g>
</g>
</svg>
