<?xml version="1.0" encoding="UTF-8" standalone="no"?>
<!DOCTYPE svg PUBLIC "-//W3C//DTD SVG 1.1//EN"
 "http://www.w3.org/Graphics/SVG/1.1/DTD/svg11.dtd">
<!-- Generated by graphviz version 9.0.0 (20230911.1827)
 -->
<!-- Title: dependency&#45;cruiser output Pages: 1 -->
<svg width="1939pt" height="615pt"
 viewBox="0.00 0.00 1938.50 615.00" xmlns="http://www.w3.org/2000/svg" xmlns:xlink="http://www.w3.org/1999/xlink">
<g id="graph0" class="graph" transform="scale(1 1) rotate(0) translate(4 611)">
<title>dependency&#45;cruiser output</title>
<polygon fill="white" stroke="none" points="-4,4 -4,-611 1934.5,-611 1934.5,4 -4,4"/>
<g id="clust1" class="cluster">
<title>cluster_src</title>
<path fill="#ffffff" stroke="black" stroke-width="2" d="M20,-8C20,-8 1910.5,-8 1910.5,-8 1916.5,-8 1922.5,-14 1922.5,-20 1922.5,-20 1922.5,-587 1922.5,-587 1922.5,-593 1916.5,-599 1910.5,-599 1910.5,-599 20,-599 20,-599 14,-599 8,-593 8,-587 8,-587 8,-20 8,-20 8,-14 14,-8 20,-8"/>
<text text-anchor="middle" x="965.25" y="-586.45" font-family="Helvetica,sans-Serif" font-weight="bold" font-size="9.00">src</text>
</g>
<g id="clust2" class="cluster">
<title>cluster_src/application</title>
<path fill="#ffffff" stroke="black" stroke-width="2" d="M512.25,-91C512.25,-91 680.75,-91 680.75,-91 686.75,-91 692.75,-97 692.75,-103 692.75,-103 692.75,-231 692.75,-231 692.75,-237 686.75,-243 680.75,-243 680.75,-243 512.25,-243 512.25,-243 506.25,-243 500.25,-237 500.25,-231 500.25,-231 500.25,-103 500.25,-103 500.25,-97 506.25,-91 512.25,-91"/>
<text text-anchor="middle" x="596.5" y="-230.45" font-family="Helvetica,sans-Serif" font-weight="bold" font-size="9.00">application</text>
</g>
<g id="clust3" class="cluster">
<title>cluster_src/application/services</title>
<path fill="#ffffff" stroke="black" stroke-width="2" d="M582.25,-99C582.25,-99 672.75,-99 672.75,-99 678.75,-99 684.75,-105 684.75,-111 684.75,-111 684.75,-204 684.75,-204 684.75,-210 678.75,-216 672.75,-216 672.75,-216 582.25,-216 582.25,-216 576.25,-216 570.25,-210 570.25,-204 570.25,-204 570.25,-111 570.25,-111 570.25,-105 576.25,-99 582.25,-99"/>
<text text-anchor="middle" x="627.5" y="-203.45" font-family="Helvetica,sans-Serif" font-weight="bold" font-size="9.00">services</text>
</g>
<g id="clust4" class="cluster">
<title>cluster_src/components</title>
<path fill="#ffffff" stroke="black" stroke-width="2" d="M265.25,-142C265.25,-142 480.25,-142 480.25,-142 486.25,-142 492.25,-148 492.25,-154 492.25,-154 492.25,-311 492.25,-311 492.25,-317 486.25,-323 480.25,-323 480.25,-323 265.25,-323 265.25,-323 259.25,-323 253.25,-317 253.25,-311 253.25,-311 253.25,-154 253.25,-154 253.25,-148 259.25,-142 265.25,-142"/>
<text text-anchor="middle" x="372.75" y="-310.45" font-family="Helvetica,sans-Serif" font-weight="bold" font-size="9.00">components</text>
</g>
<g id="clust5" class="cluster">
<title>cluster_src/components/inputs</title>
<path fill="#ffffff" stroke="black" stroke-width="2" d="M292.38,-150C292.38,-150 352.12,-150 352.12,-150 358.12,-150 364.12,-156 364.12,-162 364.12,-162 364.12,-193 364.12,-193 364.12,-199 358.12,-205 352.12,-205 352.12,-205 292.38,-205 292.38,-205 286.38,-205 280.38,-199 280.38,-193 280.38,-193 280.38,-162 280.38,-162 280.38,-156 286.38,-150 292.38,-150"/>
<text text-anchor="middle" x="322.25" y="-192.45" font-family="Helvetica,sans-Serif" font-weight="bold" font-size="9.00">inputs</text>
</g>
<g id="clust6" class="cluster">
<title>cluster_src/components/utils</title>
<path fill="#ffffff" stroke="black" stroke-width="2" d="M273.25,-213C273.25,-213 371.25,-213 371.25,-213 377.25,-213 383.25,-219 383.25,-225 383.25,-225 383.25,-256 383.25,-256 383.25,-262 377.25,-268 371.25,-268 371.25,-268 273.25,-268 273.25,-268 267.25,-268 261.25,-262 261.25,-256 261.25,-256 261.25,-225 261.25,-225 261.25,-219 267.25,-213 273.25,-213"/>
<text text-anchor="middle" x="322.25" y="-255.45" font-family="Helvetica,sans-Serif" font-weight="bold" font-size="9.00">utils</text>
</g>
<g id="clust7" class="cluster">
<title>cluster_src/domain</title>
<path fill="#ffffff" stroke="black" stroke-width="2" d="M1214,-222C1214,-222 1902.5,-222 1902.5,-222 1908.5,-222 1914.5,-228 1914.5,-234 1914.5,-234 1914.5,-560 1914.5,-560 1914.5,-566 1908.5,-572 1902.5,-572 1902.5,-572 1214,-572 1214,-572 1208,-572 1202,-566 1202,-560 1202,-560 1202,-234 1202,-234 1202,-228 1208,-222 1214,-222"/>
<text text-anchor="middle" x="1558.25" y="-559.45" font-family="Helvetica,sans-Serif" font-weight="bold" font-size="9.00">domain</text>
</g>
<g id="clust9" class="cluster">
<title>cluster_src/domain/entities</title>
<path fill="#ffffff" stroke="black" stroke-width="2" d="M1550,-309C1550,-309 1894.5,-309 1894.5,-309 1900.5,-309 1906.5,-315 1906.5,-321 1906.5,-321 1906.5,-394 1906.5,-394 1906.5,-400 1900.5,-406 1894.5,-406 1894.5,-406 1550,-406 1550,-406 1544,-406 1538,-400 1538,-394 1538,-394 1538,-321 1538,-321 1538,-315 1544,-309 1550,-309"/>
<text text-anchor="middle" x="1722.25" y="-393.45" font-family="Helvetica,sans-Serif" font-weight="bold" font-size="9.00">entities</text>
</g>
<g id="clust8" class="cluster">
<title>cluster_src/domain/constants</title>
<path fill="#ffffff" stroke="black" stroke-width="2" d="M1329.75,-230C1329.75,-230 1375.75,-230 1375.75,-230 1381.75,-230 1387.75,-236 1387.75,-242 1387.75,-242 1387.75,-273 1387.75,-273 1387.75,-279 1381.75,-285 1375.75,-285 1375.75,-285 1329.75,-285 1329.75,-285 1323.75,-285 1317.75,-279 1317.75,-273 1317.75,-273 1317.75,-242 1317.75,-242 1317.75,-236 1323.75,-230 1329.75,-230"/>
<text text-anchor="middle" x="1352.75" y="-272.45" font-family="Helvetica,sans-Serif" font-weight="bold" font-size="9.00">constants</text>
</g>
<g id="clust11" class="cluster">
<title>cluster_src/domain/valueObjects</title>
<path fill="#ffffff" stroke="black" stroke-width="2" d="M1329.75,-428C1329.75,-428 1518,-428 1518,-428 1524,-428 1530,-434 1530,-440 1530,-440 1530,-533 1530,-533 1530,-539 1524,-545 1518,-545 1518,-545 1329.75,-545 1329.75,-545 1323.75,-545 1317.75,-539 1317.75,-533 1317.75,-533 1317.75,-440 1317.75,-440 1317.75,-434 1323.75,-428 1329.75,-428"/>
<text text-anchor="middle" x="1423.88" y="-532.45" font-family="Helvetica,sans-Serif" font-weight="bold" font-size="9.00">valueObjects</text>
</g>
<g id="clust10" class="cluster">
<title>cluster_src/domain/repositories</title>
<path fill="#ffffff" stroke="black" stroke-width="2" d="M1329.75,-303C1329.75,-303 1509.75,-303 1509.75,-303 1515.75,-303 1521.75,-309 1521.75,-315 1521.75,-315 1521.75,-408 1521.75,-408 1521.75,-414 1515.75,-420 1509.75,-420 1509.75,-420 1329.75,-420 1329.75,-420 1323.75,-420 1317.75,-414 1317.75,-408 1317.75,-408 1317.75,-315 1317.75,-315 1317.75,-309 1323.75,-303 1329.75,-303"/>
<text text-anchor="middle" x="1419.75" y="-407.45" font-family="Helvetica,sans-Serif" font-weight="bold" font-size="9.00">repositories</text>
</g>
<g id="clust12" class="cluster">
<title>cluster_src/infrastructure</title>
<path fill="#ffffff" stroke="black" stroke-width="2" d="M712.75,-16C712.75,-16 1297.75,-16 1297.75,-16 1303.75,-16 1309.75,-22 1309.75,-28 1309.75,-28 1309.75,-202 1309.75,-202 1309.75,-208 1303.75,-214 1297.75,-214 1297.75,-214 712.75,-214 712.75,-214 706.75,-214 700.75,-208 700.75,-202 700.75,-202 700.75,-28 700.75,-28 700.75,-22 706.75,-16 712.75,-16"/>
<text text-anchor="middle" x="1005.25" y="-201.45" font-family="Helvetica,sans-Serif" font-weight="bold" font-size="9.00">infrastructure</text>
</g>
<g id="clust13" class="cluster">
<title>cluster_src/infrastructure/database</title>
<path fill="#ffffff" stroke="black" stroke-width="2" d="M1184.25,-116C1184.25,-116 1289.75,-116 1289.75,-116 1295.75,-116 1301.75,-122 1301.75,-128 1301.75,-128 1301.75,-159 1301.75,-159 1301.75,-165 1295.75,-171 1289.75,-171 1289.75,-171 1184.25,-171 1184.25,-171 1178.25,-171 1172.25,-165 1172.25,-159 1172.25,-159 1172.25,-128 1172.25,-128 1172.25,-122 1178.25,-116 1184.25,-116"/>
<text text-anchor="middle" x="1237" y="-158.45" font-family="Helvetica,sans-Serif" font-weight="bold" font-size="9.00">database</text>
</g>
<g id="clust15" class="cluster">
<title>cluster_src/infrastructure/services</title>
<path fill="#ffffff" stroke="black" stroke-width="2" d="M720.75,-116C720.75,-116 897,-116 897,-116 903,-116 909,-122 909,-128 909,-128 909,-159 909,-159 909,-165 903,-171 897,-171 897,-171 720.75,-171 720.75,-171 714.75,-171 708.75,-165 708.75,-159 708.75,-159 708.75,-128 708.75,-128 708.75,-122 714.75,-116 720.75,-116"/>
<text text-anchor="middle" x="808.88" y="-158.45" font-family="Helvetica,sans-Serif" font-weight="bold" font-size="9.00">services</text>
</g>
<g id="clust14" class="cluster">
<title>cluster_src/infrastructure/repository</title>
<path fill="#ffffff" stroke="black" stroke-width="2" d="M951.88,-101C951.88,-101 1152.25,-101 1152.25,-101 1158.25,-101 1164.25,-107 1164.25,-113 1164.25,-113 1164.25,-175 1164.25,-175 1164.25,-181 1158.25,-187 1152.25,-187 1152.25,-187 951.88,-187 951.88,-187 945.88,-187 939.88,-181 939.88,-175 939.88,-175 939.88,-113 939.88,-113 939.88,-107 945.88,-101 951.88,-101"/>
<text text-anchor="middle" x="1052.06" y="-174.45" font-family="Helvetica,sans-Serif" font-weight="bold" font-size="9.00">repository</text>
</g>
<g id="clust16" class="cluster">
<title>cluster_src/infrastructure/video</title>
<path fill="#ffffff" stroke="black" stroke-width="2" d="M720.75,-24C720.75,-24 1028.75,-24 1028.75,-24 1034.75,-24 1040.75,-30 1040.75,-36 1040.75,-36 1040.75,-81 1040.75,-81 1040.75,-87 1034.75,-93 1028.75,-93 1028.75,-93 720.75,-93 720.75,-93 714.75,-93 708.75,-87 708.75,-81 708.75,-81 708.75,-36 708.75,-36 708.75,-30 714.75,-24 720.75,-24"/>
<text text-anchor="middle" x="874.75" y="-80.45" font-family="Helvetica,sans-Serif" font-weight="bold" font-size="9.00">video</text>
</g>
<g id="clust18" class="cluster">
<title>cluster_src/views</title>
<path fill="#ffffff" stroke="black" stroke-width="2" d="M157,-79C157,-79 233.25,-79 233.25,-79 239.25,-79 245.25,-85 245.25,-91 245.25,-91 245.25,-153 245.25,-153 245.25,-159 239.25,-165 233.25,-165 233.25,-165 157,-165 157,-165 151,-165 145,-159 145,-153 145,-153 145,-91 145,-91 145,-85 151,-79 157,-79"/>
<text text-anchor="middle" x="195.12" y="-152.45" font-family="Helvetica,sans-Serif" font-weight="bold" font-size="9.00">views</text>
</g>
<g id="clust17" class="cluster">
<title>cluster_src/stores</title>
<path fill="#ffffff" stroke="black" stroke-width="2" d="M403.25,-48C403.25,-48 479.5,-48 479.5,-48 485.5,-48 491.5,-54 491.5,-60 491.5,-60 491.5,-122 491.5,-122 491.5,-128 485.5,-134 479.5,-134 479.5,-134 403.25,-134 403.25,-134 397.25,-134 391.25,-128 391.25,-122 391.25,-122 391.25,-60 391.25,-60 391.25,-54 397.25,-48 403.25,-48"/>
<text text-anchor="middle" x="441.38" y="-121.45" font-family="Helvetica,sans-Serif" font-weight="bold" font-size="9.00">stores</text>
</g>
<!-- src/App.vue -->
<g id="node1" class="node">
<title>src/App.vue</title>
<g id="a_node1"><a xlink:href="src/App.vue" xlink:title="App.vue">
<path fill="#41f083" stroke="black" d="M130.58,-137.62C130.58,-137.62 89.42,-137.62 89.42,-137.62 86.21,-137.62 83,-134.42 83,-131.21 83,-131.21 83,-124.79 83,-124.79 83,-121.58 86.21,-118.38 89.42,-118.38 89.42,-118.38 130.58,-118.38 130.58,-118.38 133.79,-118.38 137,-121.58 137,-124.79 137,-124.79 137,-131.21 137,-131.21 137,-134.42 133.79,-137.62 130.58,-137.62"/>
<text text-anchor="start" x="93.88" y="-125.08" font-family="Helvetica,sans-Serif" font-size="9.00">App.vue</text>
</a>
</g>
</g>
<!-- src/components/utils/DiagnosticsPanel.vue -->
<g id="node2" class="node">
<title>src/components/utils/DiagnosticsPanel.vue</title>
<g id="a_node2"><a xlink:href="src/components/utils/DiagnosticsPanel.vue" xlink:title="DiagnosticsPanel.vue">
<path fill="#41f083" stroke="black" d="M368.83,-240.62C368.83,-240.62 275.67,-240.62 275.67,-240.62 272.46,-240.62 269.25,-237.42 269.25,-234.21 269.25,-234.21 269.25,-227.79 269.25,-227.79 269.25,-224.58 272.46,-221.38 275.67,-221.38 275.67,-221.38 368.83,-221.38 368.83,-221.38 372.04,-221.38 375.25,-224.58 375.25,-227.79 375.25,-227.79 375.25,-234.21 375.25,-234.21 375.25,-237.42 372.04,-240.62 368.83,-240.62"/>
<text text-anchor="start" x="277.25" y="-228.07" font-family="Helvetica,sans-Serif" font-size="9.00">DiagnosticsPanel.vue</text>
</a>
</g>
</g>
<!-- src/App.vue&#45;&gt;src/components/utils/DiagnosticsPanel.vue -->
<g id="edge1" class="edge">
<title>src/App.vue&#45;&gt;src/components/utils/DiagnosticsPanel.vue</title>
<path fill="none" stroke="#000000" stroke-width="2" stroke-opacity="0.200000" d="M117.18,-137.81C123.27,-146.78 133.35,-159.85 145,-168 180.75,-192.99 227.47,-209.1 263.83,-218.76"/>
<polygon fill="#000000" fill-opacity="0.200000" stroke="#000000" stroke-width="2" stroke-opacity="0.200000" points="263.09,-220.74 269.43,-220.21 264.14,-216.68 263.09,-220.74"/>
</g>
<!-- src/views/NavBar.vue -->
<g id="node3" class="node">
<title>src/views/NavBar.vue</title>
<g id="a_node3"><a xlink:href="src/views/NavBar.vue" xlink:title="NavBar.vue">
<path fill="#41f083" stroke="black" d="M219.96,-106.62C219.96,-106.62 170.29,-106.62 170.29,-106.62 167.08,-106.62 163.88,-103.42 163.88,-100.21 163.88,-100.21 163.88,-93.79 163.88,-93.79 163.88,-90.58 167.08,-87.38 170.29,-87.38 170.29,-87.38 219.96,-87.38 219.96,-87.38 223.17,-87.38 226.38,-90.58 226.38,-93.79 226.38,-93.79 226.38,-100.21 226.38,-100.21 226.38,-103.42 223.17,-106.62 219.96,-106.62"/>
<text text-anchor="start" x="171.88" y="-94.08" font-family="Helvetica,sans-Serif" font-size="9.00">NavBar.vue</text>
</a>
</g>
</g>
<!-- src/App.vue&#45;&gt;src/views/NavBar.vue -->
<g id="edge2" class="edge">
<title>src/App.vue&#45;&gt;src/views/NavBar.vue</title>
<path fill="none" stroke="#000000" stroke-width="2" stroke-opacity="0.200000" d="M130.93,-118.04C135.5,-115.92 140.37,-113.78 145,-112 148.23,-110.75 151.61,-109.54 155.02,-108.38"/>
<polygon fill="#000000" fill-opacity="0.200000" stroke="#000000" stroke-width="2" stroke-opacity="0.200000" points="155.57,-110.41 160.62,-106.55 154.26,-106.42 155.57,-110.41"/>
</g>
<!-- src/views/VideoGallery.vue -->
<g id="node4" class="node">
<title>src/views/VideoGallery.vue</title>
<g id="a_node4"><a xlink:href="src/views/VideoGallery.vue" xlink:title="VideoGallery.vue">
<path fill="#41f083" stroke="black" d="M230.83,-137.62C230.83,-137.62 159.42,-137.62 159.42,-137.62 156.21,-137.62 153,-134.42 153,-131.21 153,-131.21 153,-124.79 153,-124.79 153,-121.58 156.21,-118.38 159.42,-118.38 159.42,-118.38 230.83,-118.38 230.83,-118.38 234.04,-118.38 237.25,-121.58 237.25,-124.79 237.25,-124.79 237.25,-131.21 237.25,-131.21 237.25,-134.42 234.04,-137.62 230.83,-137.62"/>
<text text-anchor="start" x="161" y="-125.08" font-family="Helvetica,sans-Serif" font-size="9.00">VideoGallery.vue</text>
</a>
</g>
</g>
<!-- src/App.vue&#45;&gt;src/views/VideoGallery.vue -->
<g id="edge3" class="edge">
<title>src/App.vue&#45;&gt;src/views/VideoGallery.vue</title>
<path fill="none" stroke="#000000" stroke-width="2" stroke-opacity="0.200000" d="M137.3,-128C139.42,-128 141.61,-128 143.83,-128"/>
<polygon fill="#000000" fill-opacity="0.200000" stroke="#000000" stroke-width="2" stroke-opacity="0.200000" points="143.47,-130.1 149.47,-128 143.47,-125.9 143.47,-130.1"/>
</g>
<!-- src/infrastructure/services/index.ts -->
<g id="node10" class="node">
<title>src/infrastructure/services/index.ts</title>
<g id="a_node10"><a xlink:href="src/infrastructure/services/index.ts" xlink:title="index.ts">
<path fill="#ddfeff" stroke="black" d="M764.33,-143.62C764.33,-143.62 723.17,-143.62 723.17,-143.62 719.96,-143.62 716.75,-140.42 716.75,-137.21 716.75,-137.21 716.75,-130.79 716.75,-130.79 716.75,-127.58 719.96,-124.38 723.17,-124.38 723.17,-124.38 764.33,-124.38 764.33,-124.38 767.54,-124.38 770.75,-127.58 770.75,-130.79 770.75,-130.79 770.75,-137.21 770.75,-137.21 770.75,-140.42 767.54,-143.62 764.33,-143.62"/>
<text text-anchor="start" x="728" y="-131.07" font-family="Helvetica,sans-Serif" font-size="9.00">index.ts</text>
</a>
</g>
</g>
<!-- src/components/utils/DiagnosticsPanel.vue&#45;&gt;src/infrastructure/services/index.ts -->
<g id="edge17" class="edge">
<title>src/components/utils/DiagnosticsPanel.vue&#45;&gt;src/infrastructure/services/index.ts</title>
<path fill="none" stroke="#000000" stroke-width="2" stroke-opacity="0.200000" d="M366.71,-220.9C373.05,-217.71 378.89,-213.51 383.25,-208 399.93,-186.89 372,-166.79 391.25,-148 423.56,-116.46 459.48,-168.07 492.25,-137 508.26,-121.82 483.44,-102.29 500.25,-88 518.8,-72.24 636.5,-75.11 692.75,-96 705.62,-100.78 717.92,-110.05 727.11,-118.24"/>
<polygon fill="#000000" fill-opacity="0.200000" stroke="#000000" stroke-width="2" stroke-opacity="0.200000" points="725.45,-119.56 731.27,-122.13 728.32,-116.49 725.45,-119.56"/>
</g>
<!-- src/stores/appStateStore.ts -->
<g id="node16" class="node">
<title>src/stores/appStateStore.ts</title>
<g id="a_node16"><a xlink:href="src/stores/appStateStore.ts" xlink:title="appStateStore.ts">
<path fill="#ddfeff" stroke="black" d="M477.08,-75.62C477.08,-75.62 405.67,-75.62 405.67,-75.62 402.46,-75.62 399.25,-72.42 399.25,-69.21 399.25,-69.21 399.25,-62.79 399.25,-62.79 399.25,-59.58 402.46,-56.38 405.67,-56.38 405.67,-56.38 477.08,-56.38 477.08,-56.38 480.29,-56.38 483.5,-59.58 483.5,-62.79 483.5,-62.79 483.5,-69.21 483.5,-69.21 483.5,-72.42 480.29,-75.62 477.08,-75.62"/>
<text text-anchor="start" x="407.25" y="-63.08" font-family="Helvetica,sans-Serif" font-size="9.00">appStateStore.ts</text>
</a>
</g>
</g>
<!-- src/components/utils/DiagnosticsPanel.vue&#45;&gt;src/stores/appStateStore.ts -->
<g id="edge16" class="edge">
<title>src/components/utils/DiagnosticsPanel.vue&#45;&gt;src/stores/appStateStore.ts</title>
<path fill="none" stroke="#000000" stroke-width="2" stroke-opacity="0.200000" d="M367.34,-221C373.52,-217.8 379.15,-213.57 383.25,-208 400,-185.21 373.72,-103.19 391.25,-81 391.66,-80.48 392.1,-79.97 392.55,-79.48"/>
<polygon fill="#000000" fill-opacity="0.200000" stroke="#000000" stroke-width="2" stroke-opacity="0.200000" points="393.54,-81.38 396.85,-75.96 390.88,-78.13 393.54,-81.38"/>
</g>
<!-- src/stores/videosStore.ts -->
<g id="node14" class="node">
<title>src/stores/videosStore.ts</title>
<g id="a_node14"><a xlink:href="src/stores/videosStore.ts" xlink:title="videosStore.ts">
<path fill="#ddfeff" stroke="black" d="M472.21,-106.62C472.21,-106.62 410.54,-106.62 410.54,-106.62 407.33,-106.62 404.12,-103.42 404.12,-100.21 404.12,-100.21 404.12,-93.79 404.12,-93.79 404.12,-90.58 407.33,-87.38 410.54,-87.38 410.54,-87.38 472.21,-87.38 472.21,-87.38 475.42,-87.38 478.62,-90.58 478.62,-93.79 478.62,-93.79 478.62,-100.21 478.62,-100.21 478.62,-103.42 475.42,-106.62 472.21,-106.62"/>
<text text-anchor="start" x="412.12" y="-94.08" font-family="Helvetica,sans-Serif" font-size="9.00">videosStore.ts</text>
</a>
</g>
</g>
<!-- src/views/NavBar.vue&#45;&gt;src/stores/videosStore.ts -->
<g id="edge60" class="edge">
<title>src/views/NavBar.vue&#45;&gt;src/stores/videosStore.ts</title>
<path fill="none" stroke="#000000" stroke-width="2" stroke-opacity="0.200000" d="M226.57,-97C268.94,-97 346.03,-97 395.14,-97"/>
<polygon fill="#000000" fill-opacity="0.200000" stroke="#000000" stroke-width="2" stroke-opacity="0.200000" points="394.95,-99.1 400.95,-97 394.95,-94.9 394.95,-99.1"/>
</g>
<!-- src/components/inputs/FileInput.vue -->
<g id="node15" class="node">
<title>src/components/inputs/FileInput.vue</title>
<g id="a_node15"><a xlink:href="src/components/inputs/FileInput.vue" xlink:title="FileInput.vue">
<path fill="#41f083" stroke="black" d="M349.71,-177.62C349.71,-177.62 294.79,-177.62 294.79,-177.62 291.58,-177.62 288.38,-174.42 288.38,-171.21 288.38,-171.21 288.38,-164.79 288.38,-164.79 288.38,-161.58 291.58,-158.38 294.79,-158.38 294.79,-158.38 349.71,-158.38 349.71,-158.38 352.92,-158.38 356.12,-161.58 356.12,-164.79 356.12,-164.79 356.12,-171.21 356.12,-171.21 356.12,-174.42 352.92,-177.62 349.71,-177.62"/>
<text text-anchor="start" x="296.38" y="-165.07" font-family="Helvetica,sans-Serif" font-size="9.00">FileInput.vue</text>
</a>
</g>
</g>
<!-- src/views/NavBar.vue&#45;&gt;src/components/inputs/FileInput.vue -->
<g id="edge58" class="edge">
<title>src/views/NavBar.vue&#45;&gt;src/components/inputs/FileInput.vue</title>
<path fill="none" stroke="#000000" stroke-width="2" stroke-opacity="0.200000" d="M226.63,-104.56C232.94,-106.6 239.43,-109.08 245.25,-112 266.9,-122.88 288.88,-139.86 303.6,-152.28"/>
<polygon fill="#000000" fill-opacity="0.200000" stroke="#000000" stroke-width="2" stroke-opacity="0.200000" points="301.99,-153.67 307.91,-155.98 304.73,-150.48 301.99,-153.67"/>
</g>
<!-- src/views/NavBar.vue&#45;&gt;src/stores/appStateStore.ts -->
<g id="edge59" class="edge">
<title>src/views/NavBar.vue&#45;&gt;src/stores/appStateStore.ts</title>
<path fill="none" stroke="#000000" stroke-width="2" stroke-opacity="0.200000" d="M226.57,-93.14C267.5,-87.94 340.81,-78.64 390.02,-72.39"/>
<polygon fill="#000000" fill-opacity="0.200000" stroke="#000000" stroke-width="2" stroke-opacity="0.200000" points="390.23,-74.48 395.92,-71.64 389.7,-70.31 390.23,-74.48"/>
</g>
<!-- src/components/VideoCard.vue -->
<g id="node12" class="node">
<title>src/components/VideoCard.vue</title>
<g id="a_node12"><a xlink:href="src/components/VideoCard.vue" xlink:title="VideoCard.vue">
<path fill="#41f083" stroke="black" d="M353.83,-295.62C353.83,-295.62 290.67,-295.62 290.67,-295.62 287.46,-295.62 284.25,-292.42 284.25,-289.21 284.25,-289.21 284.25,-282.79 284.25,-282.79 284.25,-279.58 287.46,-276.38 290.67,-276.38 290.67,-276.38 353.83,-276.38 353.83,-276.38 357.04,-276.38 360.25,-279.58 360.25,-282.79 360.25,-282.79 360.25,-289.21 360.25,-289.21 360.25,-292.42 357.04,-295.62 353.83,-295.62"/>
<text text-anchor="start" x="292.25" y="-283.07" font-family="Helvetica,sans-Serif" font-size="9.00">VideoCard.vue</text>
</a>
</g>
</g>
<!-- src/views/VideoGallery.vue&#45;&gt;src/components/VideoCard.vue -->
<g id="edge61" class="edge">
<title>src/views/VideoGallery.vue&#45;&gt;src/components/VideoCard.vue</title>
<path fill="none" stroke="#000000" stroke-width="2" stroke-opacity="0.200000" d="M196.97,-137.77C199.75,-163.79 211.06,-235.18 253.25,-271 259.54,-276.34 267.32,-279.9 275.34,-282.25"/>
<polygon fill="#000000" fill-opacity="0.200000" stroke="#000000" stroke-width="2" stroke-opacity="0.200000" points="274.81,-284.28 281.13,-283.64 275.79,-280.2 274.81,-284.28"/>
</g>
<!-- src/views/VideoGallery.vue&#45;&gt;src/stores/videosStore.ts -->
<g id="edge63" class="edge">
<title>src/views/VideoGallery.vue&#45;&gt;src/stores/videosStore.ts</title>
<path fill="none" stroke="#000000" stroke-width="2" stroke-opacity="0.200000" d="M237.4,-128.38C275.57,-128.02 333.72,-125.66 383.25,-116 390.84,-114.52 398.82,-112.31 406.33,-109.91"/>
<polygon fill="#000000" fill-opacity="0.200000" stroke="#000000" stroke-width="2" stroke-opacity="0.200000" points="406.98,-111.9 412,-108 405.65,-107.92 406.98,-111.9"/>
</g>
<!-- src/views/VideoGallery.vue&#45;&gt;src/stores/appStateStore.ts -->
<g id="edge62" class="edge">
<title>src/views/VideoGallery.vue&#45;&gt;src/stores/appStateStore.ts</title>
<path fill="none" stroke="#000000" stroke-width="2" stroke-opacity="0.200000" d="M237.5,-119.69C284.11,-110.12 356.82,-94.49 383.25,-85 386.99,-83.66 387.56,-82.47 391.25,-81 392.86,-80.36 394.52,-79.72 396.2,-79.1"/>
<polygon fill="#000000" fill-opacity="0.200000" stroke="#000000" stroke-width="2" stroke-opacity="0.200000" points="396.89,-81.08 401.85,-77.12 395.5,-77.12 396.89,-81.08"/>
</g>
<!-- src/application/index.ts -->
<g id="node5" class="node">
<title>src/application/index.ts</title>
<g id="a_node5"><a xlink:href="src/application/index.ts" xlink:title="index.ts">
<path fill="#ddfeff" stroke="black" d="M555.83,-126.62C555.83,-126.62 514.67,-126.62 514.67,-126.62 511.46,-126.62 508.25,-123.42 508.25,-120.21 508.25,-120.21 508.25,-113.79 508.25,-113.79 508.25,-110.58 511.46,-107.38 514.67,-107.38 514.67,-107.38 555.83,-107.38 555.83,-107.38 559.04,-107.38 562.25,-110.58 562.25,-113.79 562.25,-113.79 562.25,-120.21 562.25,-120.21 562.25,-123.42 559.04,-126.62 555.83,-126.62"/>
<text text-anchor="start" x="519.5" y="-114.08" font-family="Helvetica,sans-Serif" font-size="9.00">index.ts</text>
</a>
</g>
</g>
<!-- src/application/services/FileParserService.ts -->
<g id="node6" class="node">
<title>src/application/services/FileParserService.ts</title>
<g id="a_node6"><a xlink:href="src/application/services/FileParserService.ts" xlink:title="FileParserService.ts">
<path fill="#ddfeff" stroke="black" d="M670.33,-157.62C670.33,-157.62 584.67,-157.62 584.67,-157.62 581.46,-157.62 578.25,-154.42 578.25,-151.21 578.25,-151.21 578.25,-144.79 578.25,-144.79 578.25,-141.58 581.46,-138.38 584.67,-138.38 584.67,-138.38 670.33,-138.38 670.33,-138.38 673.54,-138.38 676.75,-141.58 676.75,-144.79 676.75,-144.79 676.75,-151.21 676.75,-151.21 676.75,-154.42 673.54,-157.62 670.33,-157.62"/>
<text text-anchor="start" x="586.25" y="-145.07" font-family="Helvetica,sans-Serif" font-size="9.00">FileParserService.ts</text>
</a>
</g>
</g>
<!-- src/application/index.ts&#45;&gt;src/application/services/FileParserService.ts -->
<g id="edge4" class="edge">
<title>src/application/index.ts&#45;&gt;src/application/services/FileParserService.ts</title>
<path fill="none" stroke="#000000" stroke-width="2" stroke-opacity="0.200000" d="M556.13,-127.08C560.7,-129.2 565.59,-131.3 585.37,-137.95"/>
<polygon fill="#000000" fill-opacity="0.200000" stroke="#000000" stroke-width="2" stroke-opacity="0.200000" points="588.18,-136.56 592.08,-144.66 583.98,-140.76 588.18,-136.56"/>
</g>
<!-- src/application/services/FiltersService.ts -->
<g id="node7" class="node">
<title>src/application/services/FiltersService.ts</title>
<g id="a_node7"><a xlink:href="src/application/services/FiltersService.ts" xlink:title="FiltersService.ts">
<path fill="#ddfeff" stroke="black" d="M661.71,-188.62C661.71,-188.62 593.29,-188.62 593.29,-188.62 590.08,-188.62 586.88,-185.42 586.88,-182.21 586.88,-182.21 586.88,-175.79 586.88,-175.79 586.88,-172.58 590.08,-169.38 593.29,-169.38 593.29,-169.38 661.71,-169.38 661.71,-169.38 664.92,-169.38 668.12,-172.58 668.12,-175.79 668.12,-175.79 668.12,-182.21 668.12,-182.21 668.12,-185.42 664.92,-188.62 661.71,-188.62"/>
<text text-anchor="start" x="594.88" y="-176.07" font-family="Helvetica,sans-Serif" font-size="9.00">FiltersService.ts</text>
</a>
</g>
</g>
<!-- src/application/index.ts&#45;&gt;src/application/services/FiltersService.ts -->
<g id="edge5" class="edge">
<title>src/application/index.ts&#45;&gt;src/application/services/FiltersService.ts</title>
<path fill="none" stroke="#000000" stroke-width="2" stroke-opacity="0.200000" d="M540.8,-126.83C546.27,-137.58 556.48,-154.53 570.25,-164 572.78,-165.74 575.51,-167.28 578.34,-168.64"/>
<polygon fill="#000000" fill-opacity="0.200000" stroke="#000000" stroke-width="2" stroke-opacity="0.200000" points="577.42,-170.53 583.76,-170.87 579.02,-166.65 577.42,-170.53"/>
</g>
<!-- src/application/services/Hotkeys.ts -->
<g id="node8" class="node">
<title>src/application/services/Hotkeys.ts</title>
<g id="a_node8"><a xlink:href="src/application/services/Hotkeys.ts" xlink:title="Hotkeys.ts">
<path fill="#ddfeff" stroke="black" d="M650.46,-126.62C650.46,-126.62 604.54,-126.62 604.54,-126.62 601.33,-126.62 598.12,-123.42 598.12,-120.21 598.12,-120.21 598.12,-113.79 598.12,-113.79 598.12,-110.58 601.33,-107.38 604.54,-107.38 604.54,-107.38 650.46,-107.38 650.46,-107.38 653.67,-107.38 656.88,-110.58 656.88,-113.79 656.88,-113.79 656.88,-120.21 656.88,-120.21 656.88,-123.42 653.67,-126.62 650.46,-126.62"/>
<text text-anchor="start" x="606.12" y="-114.08" font-family="Helvetica,sans-Serif" font-size="9.00">Hotkeys.ts</text>
</a>
</g>
</g>
<!-- src/application/index.ts&#45;&gt;src/application/services/Hotkeys.ts -->
<g id="edge6" class="edge">
<title>src/application/index.ts&#45;&gt;src/application/services/Hotkeys.ts</title>
<path fill="none" stroke="#000000" stroke-width="2" stroke-opacity="0.200000" d="M562.35,-117C573.49,-117 586.53,-117 597.93,-117"/>
<polygon fill="#000000" fill-opacity="0.200000" stroke="#000000" stroke-width="2" stroke-opacity="0.200000" points="600.73,-115.61 604.63,-123.71 596.53,-119.81 600.73,-115.61"/>
</g>
<!-- src/domain/index.ts -->
<g id="node9" class="node">
<title>src/domain/index.ts</title>
<g id="a_node9"><a xlink:href="src/domain/index.ts" xlink:title="index.ts">
<path fill="#ddfeff" stroke="black" d="M1257.58,-257.62C1257.58,-257.62 1216.42,-257.62 1216.42,-257.62 1213.21,-257.62 1210,-254.42 1210,-251.21 1210,-251.21 1210,-244.79 1210,-244.79 1210,-241.58 1213.21,-238.38 1216.42,-238.38 1216.42,-238.38 1257.58,-238.38 1257.58,-238.38 1260.79,-238.38 1264,-241.58 1264,-244.79 1264,-244.79 1264,-251.21 1264,-251.21 1264,-254.42 1260.79,-257.62 1257.58,-257.62"/>
<text text-anchor="start" x="1221.25" y="-245.07" font-family="Helvetica,sans-Serif" font-size="9.00">index.ts</text>
</a>
</g>
</g>
<!-- src/application/services/FileParserService.ts&#45;&gt;src/domain/index.ts -->
<g id="edge7" class="edge">
<title>src/application/services/FileParserService.ts&#45;&gt;src/domain/index.ts</title>
<path fill="none" stroke="#000000" stroke-opacity="0.200000" d="M677.08,-155.36C682.62,-157.33 687.98,-159.83 692.75,-163 697.79,-166.34 695.91,-170.38 700.75,-174 753.88,-213.71 775.04,-224 841.38,-224 841.38,-224 841.38,-224 975.88,-224 1059.77,-224 1080.91,-226.4 1164.25,-236 1176.72,-237.44 1190.32,-239.57 1202.29,-241.63"/>
<polygon fill="none" stroke="#000000" stroke-opacity="0.200000" points="1201.75,-243.67 1208.02,-242.64 1202.48,-239.53 1201.75,-243.67"/>
</g>
<!-- src/application/services/FileParserService.ts&#45;&gt;src/infrastructure/services/index.ts -->
<g id="edge8" class="edge">
<title>src/application/services/FileParserService.ts&#45;&gt;src/infrastructure/services/index.ts</title>
<path fill="none" stroke="#000000" stroke-width="2" stroke-opacity="0.200000" d="M676.95,-142.06C687.18,-140.81 697.8,-139.51 707.43,-138.33"/>
<polygon fill="#000000" fill-opacity="0.200000" stroke="#000000" stroke-width="2" stroke-opacity="0.200000" points="707.63,-140.42 713.33,-137.61 707.11,-136.25 707.63,-140.42"/>
</g>
<!-- src/infrastructure/video/index.ts -->
<g id="node11" class="node">
<title>src/infrastructure/video/index.ts</title>
<g id="a_node11"><a xlink:href="src/infrastructure/video/index.ts" xlink:title="index.ts">
<path fill="#ddfeff" stroke="black" d="M764.33,-65.62C764.33,-65.62 723.17,-65.62 723.17,-65.62 719.96,-65.62 716.75,-62.42 716.75,-59.21 716.75,-59.21 716.75,-52.79 716.75,-52.79 716.75,-49.58 719.96,-46.38 723.17,-46.38 723.17,-46.38 764.33,-46.38 764.33,-46.38 767.54,-46.38 770.75,-49.58 770.75,-52.79 770.75,-52.79 770.75,-59.21 770.75,-59.21 770.75,-62.42 767.54,-65.62 764.33,-65.62"/>
<text text-anchor="start" x="728" y="-53.08" font-family="Helvetica,sans-Serif" font-size="9.00">index.ts</text>
</a>
</g>
</g>
<!-- src/application/services/FileParserService.ts&#45;&gt;src/infrastructure/video/index.ts -->
<g id="edge9" class="edge">
<title>src/application/services/FileParserService.ts&#45;&gt;src/infrastructure/video/index.ts</title>
<path fill="none" stroke="#000000" stroke-width="2" stroke-opacity="0.200000" d="M676.94,-142.13C682.69,-139.92 688.15,-136.96 692.75,-133 700.01,-126.76 696.1,-121.37 700.75,-113 708.71,-98.69 719.77,-83.83 728.53,-72.88"/>
<polygon fill="#000000" fill-opacity="0.200000" stroke="#000000" stroke-width="2" stroke-opacity="0.200000" points="730.09,-74.29 732.26,-68.31 726.84,-71.63 730.09,-74.29"/>
</g>
<!-- src/application/services/FiltersService.ts&#45;&gt;src/domain/index.ts -->
<g id="edge10" class="edge">
<title>src/application/services/FiltersService.ts&#45;&gt;src/domain/index.ts</title>
<path fill="none" stroke="#000000" stroke-opacity="0.200000" d="M639.24,-189.02C652.53,-200.73 676.4,-219.57 700.75,-228 759.96,-248.51 778.72,-238 841.38,-238 841.38,-238 841.38,-238 975.88,-238 1057.34,-238 1153.04,-242.96 1202.55,-245.89"/>
<polygon fill="none" stroke="#000000" stroke-opacity="0.200000" points="1202.17,-247.97 1208.29,-246.24 1202.42,-243.78 1202.17,-247.97"/>
</g>
<!-- src/domain/constants/index.ts -->
<g id="node17" class="node">
<title>src/domain/constants/index.ts</title>
<g id="a_node17"><a xlink:href="src/domain/constants/index.ts" xlink:title="index.ts">
<path fill="#ddfeff" stroke="black" d="M1373.33,-257.62C1373.33,-257.62 1332.17,-257.62 1332.17,-257.62 1328.96,-257.62 1325.75,-254.42 1325.75,-251.21 1325.75,-251.21 1325.75,-244.79 1325.75,-244.79 1325.75,-241.58 1328.96,-238.38 1332.17,-238.38 1332.17,-238.38 1373.33,-238.38 1373.33,-238.38 1376.54,-238.38 1379.75,-241.58 1379.75,-244.79 1379.75,-244.79 1379.75,-251.21 1379.75,-251.21 1379.75,-254.42 1376.54,-257.62 1373.33,-257.62"/>
<text text-anchor="start" x="1337" y="-245.07" font-family="Helvetica,sans-Serif" font-size="9.00">index.ts</text>
</a>
</g>
</g>
<!-- src/domain/index.ts&#45;&gt;src/domain/constants/index.ts -->
<g id="edge25" class="edge">
<title>src/domain/index.ts&#45;&gt;src/domain/constants/index.ts</title>
<path fill="none" stroke="#000000" stroke-width="2" stroke-opacity="0.200000" d="M1264.38,-248C1282.76,-248 1307.17,-248 1325.51,-248"/>
<polygon fill="#000000" fill-opacity="0.200000" stroke="#000000" stroke-width="2" stroke-opacity="0.200000" points="1328.32,-246.61 1332.22,-254.71 1324.12,-250.81 1328.32,-246.61"/>
</g>
<!-- src/domain/entities/index.ts -->
<g id="node22" class="node">
<title>src/domain/entities/index.ts</title>
<g id="a_node22"><a xlink:href="src/domain/entities/index.ts" xlink:title="index.ts">
<path fill="#ddfeff" stroke="black" d="M1593.58,-361.62C1593.58,-361.62 1552.42,-361.62 1552.42,-361.62 1549.21,-361.62 1546,-358.42 1546,-355.21 1546,-355.21 1546,-348.79 1546,-348.79 1546,-345.58 1549.21,-342.38 1552.42,-342.38 1552.42,-342.38 1593.58,-342.38 1593.58,-342.38 1596.79,-342.38 1600,-345.58 1600,-348.79 1600,-348.79 1600,-355.21 1600,-355.21 1600,-358.42 1596.79,-361.62 1593.58,-361.62"/>
<text text-anchor="start" x="1557.25" y="-349.07" font-family="Helvetica,sans-Serif" font-size="9.00">index.ts</text>
</a>
</g>
</g>
<!-- src/domain/index.ts&#45;&gt;src/domain/entities/index.ts -->
<g id="edge26" class="edge">
<title>src/domain/index.ts&#45;&gt;src/domain/entities/index.ts</title>
<path fill="none" stroke="#000000" stroke-opacity="0.200000" d="M1253.13,-257.96C1268.64,-267.58 1293.8,-281.61 1317.75,-288 1409.04,-312.35 1445.93,-256.88 1530,-300 1545.16,-307.78 1556.74,-323.73 1563.87,-335.93"/>
<polygon fill="none" stroke="#000000" stroke-opacity="0.200000" points="1561.89,-336.69 1566.63,-340.92 1565.56,-334.66 1561.89,-336.69"/>
</g>
<!-- src/domain/repositories/index.ts -->
<g id="node23" class="node">
<title>src/domain/repositories/index.ts</title>
<g id="a_node23"><a xlink:href="src/domain/repositories/index.ts" xlink:title="index.ts">
<path fill="#ddfeff" stroke="black" d="M1373.33,-345.62C1373.33,-345.62 1332.17,-345.62 1332.17,-345.62 1328.96,-345.62 1325.75,-342.42 1325.75,-339.21 1325.75,-339.21 1325.75,-332.79 1325.75,-332.79 1325.75,-329.58 1328.96,-326.38 1332.17,-326.38 1332.17,-326.38 1373.33,-326.38 1373.33,-326.38 1376.54,-326.38 1379.75,-329.58 1379.75,-332.79 1379.75,-332.79 1379.75,-339.21 1379.75,-339.21 1379.75,-342.42 1376.54,-345.62 1373.33,-345.62"/>
<text text-anchor="start" x="1337" y="-333.07" font-family="Helvetica,sans-Serif" font-size="9.00">index.ts</text>
</a>
</g>
</g>
<!-- src/domain/index.ts&#45;&gt;src/domain/repositories/index.ts -->
<g id="edge27" class="edge">
<title>src/domain/index.ts&#45;&gt;src/domain/repositories/index.ts</title>
<path fill="none" stroke="#000000" stroke-opacity="0.200000" d="M1246.65,-258.07C1260.39,-273.56 1288.64,-303.37 1317.75,-322 1318.19,-322.28 1318.64,-322.56 1319.1,-322.84"/>
<polygon fill="none" stroke="#000000" stroke-opacity="0.200000" points="1317.68,-324.46 1323.96,-325.49 1319.69,-320.77 1317.68,-324.46"/>
</g>
<!-- src/domain/valueObjects/index.ts -->
<g id="node24" class="node">
<title>src/domain/valueObjects/index.ts</title>
<g id="a_node24"><a xlink:href="src/domain/valueObjects/index.ts" xlink:title="index.ts">
<path fill="#ddfeff" stroke="black" d="M1373.33,-470.62C1373.33,-470.62 1332.17,-470.62 1332.17,-470.62 1328.96,-470.62 1325.75,-467.42 1325.75,-464.21 1325.75,-464.21 1325.75,-457.79 1325.75,-457.79 1325.75,-454.58 1328.96,-451.38 1332.17,-451.38 1332.17,-451.38 1373.33,-451.38 1373.33,-451.38 1376.54,-451.38 1379.75,-454.58 1379.75,-457.79 1379.75,-457.79 1379.75,-464.21 1379.75,-464.21 1379.75,-467.42 1376.54,-470.62 1373.33,-470.62"/>
<text text-anchor="start" x="1337" y="-458.07" font-family="Helvetica,sans-Serif" font-size="9.00">index.ts</text>
</a>
</g>
</g>
<!-- src/domain/index.ts&#45;&gt;src/domain/valueObjects/index.ts -->
<g id="edge28" class="edge">
<title>src/domain/index.ts&#45;&gt;src/domain/valueObjects/index.ts</title>
<path fill="none" stroke="#000000" stroke-width="2" stroke-opacity="0.200000" d="M1241.35,-258.02C1250.86,-285.67 1279.76,-364.86 1341.31,-451.05"/>
<polygon fill="#000000" fill-opacity="0.200000" stroke="#000000" stroke-width="2" stroke-opacity="0.200000" points="1344.12,-449.66 1348.02,-457.76 1339.92,-453.86 1344.12,-449.66"/>
</g>
<!-- src/infrastructure/services/VideoMetadataFacade.ts -->
<g id="node35" class="node">
<title>src/infrastructure/services/VideoMetadataFacade.ts</title>
<g id="a_node35"><a xlink:href="src/infrastructure/services/VideoMetadataFacade.ts" xlink:title="VideoMetadataFacade.ts">
<path fill="#ddfeff" stroke="black" d="M894.58,-143.62C894.58,-143.62 790.17,-143.62 790.17,-143.62 786.96,-143.62 783.75,-140.42 783.75,-137.21 783.75,-137.21 783.75,-130.79 783.75,-130.79 783.75,-127.58 786.96,-124.38 790.17,-124.38 790.17,-124.38 894.58,-124.38 894.58,-124.38 897.79,-124.38 901,-127.58 901,-130.79 901,-130.79 901,-137.21 901,-137.21 901,-140.42 897.79,-143.62 894.58,-143.62"/>
<text text-anchor="start" x="791.75" y="-131.07" font-family="Helvetica,sans-Serif" font-size="9.00">VideoMetadataFacade.ts</text>
</a>
</g>
</g>
<!-- src/infrastructure/services/index.ts&#45;&gt;src/infrastructure/services/VideoMetadataFacade.ts -->
<g id="edge47" class="edge">
<title>src/infrastructure/services/index.ts&#45;&gt;src/infrastructure/services/VideoMetadataFacade.ts</title>
<path fill="none" stroke="#000000" stroke-width="2" stroke-opacity="0.200000" d="M771.15,-134C775.06,-134 779.22,-134 783.48,-134"/>
<polygon fill="#000000" fill-opacity="0.200000" stroke="#000000" stroke-width="2" stroke-opacity="0.200000" points="786.28,-132.61 790.18,-140.71 782.08,-136.81 786.28,-132.61"/>
</g>
<!-- src/infrastructure/video/HTMLVideoProcessor.ts -->
<g id="node36" class="node">
<title>src/infrastructure/video/HTMLVideoProcessor.ts</title>
<g id="a_node36"><a xlink:href="src/infrastructure/video/HTMLVideoProcessor.ts" xlink:title="HTMLVideoProcessor.ts">
<path fill="#ddfeff" stroke="black" d="M1026.33,-58.62C1026.33,-58.62 923.42,-58.62 923.42,-58.62 920.21,-58.62 917,-55.42 917,-52.21 917,-52.21 917,-45.79 917,-45.79 917,-42.58 920.21,-39.38 923.42,-39.38 923.42,-39.38 1026.33,-39.38 1026.33,-39.38 1029.54,-39.38 1032.75,-42.58 1032.75,-45.79 1032.75,-45.79 1032.75,-52.21 1032.75,-52.21 1032.75,-55.42 1029.54,-58.62 1026.33,-58.62"/>
<text text-anchor="start" x="925" y="-46.08" font-family="Helvetica,sans-Serif" font-size="9.00">HTMLVideoProcessor.ts</text>
</a>
</g>
</g>
<!-- src/infrastructure/video/index.ts&#45;&gt;src/infrastructure/video/HTMLVideoProcessor.ts -->
<g id="edge50" class="edge">
<title>src/infrastructure/video/index.ts&#45;&gt;src/infrastructure/video/HTMLVideoProcessor.ts</title>
<path fill="none" stroke="#000000" stroke-width="2" stroke-opacity="0.200000" d="M764.93,-45.98C770.85,-43.53 777.43,-41.25 916.78,-39.19"/>
<polygon fill="#000000" fill-opacity="0.200000" stroke="#000000" stroke-width="2" stroke-opacity="0.200000" points="919.58,-37.8 923.48,-45.9 915.38,-42 919.58,-37.8"/>
</g>
<!-- src/infrastructure/video/VideoFileParser.ts -->
<g id="node37" class="node">
<title>src/infrastructure/video/VideoFileParser.ts</title>
<g id="a_node37"><a xlink:href="src/infrastructure/video/VideoFileParser.ts" xlink:title="VideoFileParser.ts">
<path fill="#ddfeff" stroke="black" d="M881.83,-65.62C881.83,-65.62 802.92,-65.62 802.92,-65.62 799.71,-65.62 796.5,-62.42 796.5,-59.21 796.5,-59.21 796.5,-52.79 796.5,-52.79 796.5,-49.58 799.71,-46.38 802.92,-46.38 802.92,-46.38 881.83,-46.38 881.83,-46.38 885.04,-46.38 888.25,-49.58 888.25,-52.79 888.25,-52.79 888.25,-59.21 888.25,-59.21 888.25,-62.42 885.04,-65.62 881.83,-65.62"/>
<text text-anchor="start" x="804.5" y="-53.08" font-family="Helvetica,sans-Serif" font-size="9.00">VideoFileParser.ts</text>
</a>
</g>
</g>
<!-- src/infrastructure/video/index.ts&#45;&gt;src/infrastructure/video/VideoFileParser.ts -->
<g id="edge51" class="edge">
<title>src/infrastructure/video/index.ts&#45;&gt;src/infrastructure/video/VideoFileParser.ts</title>
<path fill="none" stroke="#000000" stroke-width="2" stroke-opacity="0.200000" d="M771.15,-56C778.86,-56 787.52,-56 796.05,-56"/>
<polygon fill="#000000" fill-opacity="0.200000" stroke="#000000" stroke-width="2" stroke-opacity="0.200000" points="798.86,-54.61 802.76,-62.71 794.66,-58.81 798.86,-54.61"/>
</g>
<!-- src/components/VideoCard.vue&#45;&gt;src/domain/index.ts -->
<g id="edge12" class="edge">
<title>src/components/VideoCard.vue&#45;&gt;src/domain/index.ts</title>
<path fill="none" stroke="#000000" stroke-opacity="0.200000" d="M359.69,-275.91C369.83,-273.52 380.9,-271.29 391.25,-270 495.02,-257.06 521.93,-266 626.5,-266 626.5,-266 626.5,-266 975.88,-266 1057.47,-266 1153.12,-257.08 1202.58,-251.8"/>
<polygon fill="none" stroke="#000000" stroke-opacity="0.200000" points="1202.58,-253.91 1208.32,-251.18 1202.13,-249.73 1202.58,-253.91"/>
</g>
<!-- src/components/VideoEmbed.vue -->
<g id="node13" class="node">
<title>src/components/VideoEmbed.vue</title>
<g id="a_node13"><a xlink:href="src/components/VideoEmbed.vue" xlink:title="VideoEmbed.vue">
<path fill="#41f083" stroke="black" d="M477.83,-295.62C477.83,-295.62 404.92,-295.62 404.92,-295.62 401.71,-295.62 398.5,-292.42 398.5,-289.21 398.5,-289.21 398.5,-282.79 398.5,-282.79 398.5,-279.58 401.71,-276.38 404.92,-276.38 404.92,-276.38 477.83,-276.38 477.83,-276.38 481.04,-276.38 484.25,-279.58 484.25,-282.79 484.25,-282.79 484.25,-289.21 484.25,-289.21 484.25,-292.42 481.04,-295.62 477.83,-295.62"/>
<text text-anchor="start" x="406.5" y="-283.07" font-family="Helvetica,sans-Serif" font-size="9.00">VideoEmbed.vue</text>
</a>
</g>
</g>
<!-- src/components/VideoCard.vue&#45;&gt;src/components/VideoEmbed.vue -->
<g id="edge11" class="edge">
<title>src/components/VideoCard.vue&#45;&gt;src/components/VideoEmbed.vue</title>
<path fill="none" stroke="#000000" stroke-width="2" stroke-opacity="0.200000" d="M360.63,-286C369.75,-286 379.67,-286 389.31,-286"/>
<polygon fill="#000000" fill-opacity="0.200000" stroke="#000000" stroke-width="2" stroke-opacity="0.200000" points="389.03,-288.1 395.03,-286 389.03,-283.9 389.03,-288.1"/>
</g>
<!-- src/components/VideoCard.vue&#45;&gt;src/stores/videosStore.ts -->
<g id="edge13" class="edge">
<title>src/components/VideoCard.vue&#45;&gt;src/stores/videosStore.ts</title>
<path fill="none" stroke="#000000" stroke-width="2" stroke-opacity="0.200000" d="M360.62,-284.1C369.25,-281.84 377.56,-277.86 383.25,-271 402.03,-248.39 378.15,-165.31 391.25,-139 396.62,-128.22 406.12,-119.1 415.34,-112.14"/>
<polygon fill="#000000" fill-opacity="0.200000" stroke="#000000" stroke-width="2" stroke-opacity="0.200000" points="416.42,-113.94 420.12,-108.77 414.01,-110.51 416.42,-113.94"/>
</g>
<!-- src/components/VideoEmbed.vue&#45;&gt;src/domain/index.ts -->
<g id="edge14" class="edge">
<title>src/components/VideoEmbed.vue&#45;&gt;src/domain/index.ts</title>
<path fill="none" stroke="#000000" stroke-opacity="0.200000" d="M484.42,-285.28C521.74,-284.71 577.75,-284 626.5,-284 626.5,-284 626.5,-284 975.88,-284 1059.83,-284 1081.74,-285.51 1164.25,-270 1177.09,-267.58 1190.89,-263.68 1202.92,-259.83"/>
<polygon fill="none" stroke="#000000" stroke-opacity="0.200000" points="1203.29,-261.92 1208.34,-258.06 1201.98,-257.93 1203.29,-261.92"/>
</g>
<!-- src/stores/videosStore.ts&#45;&gt;src/application/index.ts -->
<g id="edge54" class="edge">
<title>src/stores/videosStore.ts&#45;&gt;src/application/index.ts</title>
<path fill="none" stroke="#000000" stroke-width="2" stroke-opacity="0.200000" d="M478.95,-104.96C485.62,-106.41 492.57,-107.93 499.2,-109.37"/>
<polygon fill="#000000" fill-opacity="0.200000" stroke="#000000" stroke-width="2" stroke-opacity="0.200000" points="498.72,-111.41 505.03,-110.64 499.61,-107.31 498.72,-111.41"/>
</g>
<!-- src/stores/videosStore.ts&#45;&gt;src/domain/index.ts -->
<g id="edge55" class="edge">
<title>src/stores/videosStore.ts&#45;&gt;src/domain/index.ts</title>
<path fill="none" stroke="#000000" stroke-opacity="0.200000" d="M460.36,-107C471.6,-114.3 485.24,-125.29 492.25,-139 503.11,-160.23 483.16,-229.37 500.25,-246 520.38,-265.59 598.41,-252 626.5,-252 626.5,-252 626.5,-252 975.88,-252 1057.29,-252 1153.01,-250.02 1202.53,-248.84"/>
<polygon fill="none" stroke="#000000" stroke-opacity="0.200000" points="1202.33,-250.95 1208.27,-248.71 1202.23,-246.75 1202.33,-250.95"/>
</g>
<!-- src/stores/videosStore.ts&#45;&gt;src/infrastructure/services/index.ts -->
<g id="edge56" class="edge">
<title>src/stores/videosStore.ts&#45;&gt;src/infrastructure/services/index.ts</title>
<path fill="none" stroke="#000000" stroke-width="2" stroke-opacity="0.200000" d="M478.59,-86.91C483.23,-85.38 487.88,-83.73 492.25,-82 495.94,-80.53 496.38,-78.91 500.25,-78 583.52,-58.34 621.01,-31.38 692.75,-78 700.09,-82.77 695.62,-88.91 700.75,-96 706.76,-104.29 714.82,-112.13 722.28,-118.5"/>
<polygon fill="#000000" fill-opacity="0.200000" stroke="#000000" stroke-width="2" stroke-opacity="0.200000" points="720.58,-119.82 726.55,-122 723.24,-116.57 720.58,-119.82"/>
</g>
<!-- src/stores/videosStore.ts&#45;&gt;src/infrastructure/video/index.ts -->
<g id="edge57" class="edge">
<title>src/stores/videosStore.ts&#45;&gt;src/infrastructure/video/index.ts</title>
<path fill="none" stroke="#000000" stroke-width="2" stroke-opacity="0.200000" d="M478.59,-86.91C483.23,-85.38 487.88,-83.73 492.25,-82 495.94,-80.53 496.43,-79.09 500.25,-78 571.87,-57.63 659.74,-54.88 707.59,-55.14"/>
<polygon fill="#000000" fill-opacity="0.200000" stroke="#000000" stroke-width="2" stroke-opacity="0.200000" points="707.28,-57.24 713.3,-55.2 707.32,-53.04 707.28,-57.24"/>
</g>
<!-- src/components/inputs/FileInput.vue&#45;&gt;src/stores/videosStore.ts -->
<g id="edge15" class="edge">
<title>src/components/inputs/FileInput.vue&#45;&gt;src/stores/videosStore.ts</title>
<path fill="none" stroke="#000000" stroke-width="2" stroke-opacity="0.200000" d="M339.78,-157.98C359.75,-145.87 393.5,-125.42 416.34,-111.57"/>
<polygon fill="#000000" fill-opacity="0.200000" stroke="#000000" stroke-width="2" stroke-opacity="0.200000" points="417.3,-113.45 421.34,-108.54 415.12,-109.85 417.3,-113.45"/>
</g>
<!-- src/stores/appStateStore.ts&#45;&gt;src/application/index.ts -->
<g id="edge53" class="edge">
<title>src/stores/appStateStore.ts&#45;&gt;src/application/index.ts</title>
<path fill="none" stroke="#000000" stroke-width="2" stroke-opacity="0.200000" d="M481.68,-76.1C485.34,-77.55 488.92,-79.18 492.25,-81 501.93,-86.29 511.37,-94.08 518.85,-101.06"/>
<polygon fill="#000000" fill-opacity="0.200000" stroke="#000000" stroke-width="2" stroke-opacity="0.200000" points="517.18,-102.36 522.94,-105.04 520.1,-99.35 517.18,-102.36"/>
</g>
<!-- src/domain/entities/MetadataEntity.ts -->
<g id="node18" class="node">
<title>src/domain/entities/MetadataEntity.ts</title>
<g id="a_node18"><a xlink:href="src/domain/entities/MetadataEntity.ts" xlink:title="MetadataEntity.ts">
<path fill="#ddfeff" stroke="black" d="M1892.08,-341.62C1892.08,-341.62 1819.92,-341.62 1819.92,-341.62 1816.71,-341.62 1813.5,-338.42 1813.5,-335.21 1813.5,-335.21 1813.5,-328.79 1813.5,-328.79 1813.5,-325.58 1816.71,-322.38 1819.92,-322.38 1819.92,-322.38 1892.08,-322.38 1892.08,-322.38 1895.29,-322.38 1898.5,-325.58 1898.5,-328.79 1898.5,-328.79 1898.5,-335.21 1898.5,-335.21 1898.5,-338.42 1895.29,-341.62 1892.08,-341.62"/>
<text text-anchor="start" x="1821.5" y="-329.07" font-family="Helvetica,sans-Serif" font-size="9.00">MetadataEntity.ts</text>
</a>
</g>
</g>
<!-- src/domain/entities/ParsedVideo.ts -->
<g id="node19" class="node">
<title>src/domain/entities/ParsedVideo.ts</title>
<g id="a_node19"><a xlink:href="src/domain/entities/ParsedVideo.ts" xlink:title="ParsedVideo.ts">
<path fill="#ddfeff" stroke="black" d="M1685.58,-350.62C1685.58,-350.62 1619.42,-350.62 1619.42,-350.62 1616.21,-350.62 1613,-347.42 1613,-344.21 1613,-344.21 1613,-337.79 1613,-337.79 1613,-334.58 1616.21,-331.38 1619.42,-331.38 1619.42,-331.38 1685.58,-331.38 1685.58,-331.38 1688.79,-331.38 1692,-334.58 1692,-337.79 1692,-337.79 1692,-344.21 1692,-344.21 1692,-347.42 1688.79,-350.62 1685.58,-350.62"/>
<text text-anchor="start" x="1621" y="-338.07" font-family="Helvetica,sans-Serif" font-size="9.00">ParsedVideo.ts</text>
</a>
</g>
</g>
<!-- src/domain/entities/VideoStorageDto.ts -->
<g id="node20" class="node">
<title>src/domain/entities/VideoStorageDto.ts</title>
<g id="a_node20"><a xlink:href="src/domain/entities/VideoStorageDto.ts" xlink:title="VideoStorageDto.ts">
<path fill="#ddfeff" stroke="black" d="M1794.08,-357.62C1794.08,-357.62 1711.42,-357.62 1711.42,-357.62 1708.21,-357.62 1705,-354.42 1705,-351.21 1705,-351.21 1705,-344.79 1705,-344.79 1705,-341.58 1708.21,-338.38 1711.42,-338.38 1711.42,-338.38 1794.08,-338.38 1794.08,-338.38 1797.29,-338.38 1800.5,-341.58 1800.5,-344.79 1800.5,-344.79 1800.5,-351.21 1800.5,-351.21 1800.5,-354.42 1797.29,-357.62 1794.08,-357.62"/>
<text text-anchor="start" x="1713" y="-345.07" font-family="Helvetica,sans-Serif" font-size="9.00">VideoStorageDto.ts</text>
</a>
</g>
</g>
<!-- src/domain/entities/ParsedVideo.ts&#45;&gt;src/domain/entities/VideoStorageDto.ts -->
<g id="edge18" class="edge">
<title>src/domain/entities/ParsedVideo.ts&#45;&gt;src/domain/entities/VideoStorageDto.ts</title>
<path fill="none" stroke="#000000" stroke-opacity="0.200000" d="M1692.33,-343.77C1693.99,-343.88 1695.66,-344 1697.34,-344.12"/>
<polygon fill="none" stroke="#000000" stroke-opacity="0.200000" points="1697.09,-346.21 1703.23,-344.54 1697.39,-342.02 1697.09,-346.21"/>
</g>
<!-- src/domain/entities/VideoStorageDto.ts&#45;&gt;src/domain/entities/MetadataEntity.ts -->
<g id="edge19" class="edge">
<title>src/domain/entities/VideoStorageDto.ts&#45;&gt;src/domain/entities/MetadataEntity.ts</title>
<path fill="none" stroke="#000000" stroke-opacity="0.200000" d="M1800.82,-340.56C1802.5,-340.3 1804.18,-340.03 1805.86,-339.77"/>
<polygon fill="none" stroke="#000000" stroke-opacity="0.200000" points="1806.1,-341.85 1811.7,-338.84 1805.45,-337.7 1806.1,-341.85"/>
</g>
<!-- src/domain/entities/VideoEntity.ts -->
<g id="node21" class="node">
<title>src/domain/entities/VideoEntity.ts</title>
<g id="a_node21"><a xlink:href="src/domain/entities/VideoEntity.ts" xlink:title="VideoEntity.ts">
<path fill="#ddfeff" stroke="black" d="M1884.96,-375.62C1884.96,-375.62 1827.04,-375.62 1827.04,-375.62 1823.83,-375.62 1820.62,-372.42 1820.62,-369.21 1820.62,-369.21 1820.62,-362.79 1820.62,-362.79 1820.62,-359.58 1823.83,-356.38 1827.04,-356.38 1827.04,-356.38 1884.96,-356.38 1884.96,-356.38 1888.17,-356.38 1891.38,-359.58 1891.38,-362.79 1891.38,-362.79 1891.38,-369.21 1891.38,-369.21 1891.38,-372.42 1888.17,-375.62 1884.96,-375.62"/>
<text text-anchor="start" x="1828.62" y="-363.07" font-family="Helvetica,sans-Serif" font-size="9.00">VideoEntity.ts</text>
</a>
</g>
</g>
<!-- src/domain/entities/VideoStorageDto.ts&#45;&gt;src/domain/entities/VideoEntity.ts -->
<g id="edge20" class="edge">
<title>src/domain/entities/VideoStorageDto.ts&#45;&gt;src/domain/entities/VideoEntity.ts</title>
<path fill="none" stroke="#000000" stroke-opacity="0.200000" d="M1800.82,-356.37C1804.88,-357.09 1808.98,-357.82 1813.01,-358.53"/>
<polygon fill="none" stroke="#000000" stroke-opacity="0.200000" points="1812.38,-360.56 1818.65,-359.54 1813.11,-356.42 1812.38,-360.56"/>
</g>
<!-- src/domain/entities/index.ts&#45;&gt;src/domain/entities/MetadataEntity.ts -->
<g id="edge21" class="edge">
<title>src/domain/entities/index.ts&#45;&gt;src/domain/entities/MetadataEntity.ts</title>
<path fill="none" stroke="#000000" stroke-opacity="0.200000" d="M1584.63,-341.97C1591.97,-335.75 1602.31,-328.34 1613,-325 1677.43,-304.87 1756.27,-312.75 1806.07,-321.42"/>
<polygon fill="none" stroke="#000000" stroke-opacity="0.200000" points="1805.44,-323.44 1811.71,-322.44 1806.18,-319.31 1805.44,-323.44"/>
</g>
<!-- src/domain/entities/index.ts&#45;&gt;src/domain/entities/ParsedVideo.ts -->
<g id="edge22" class="edge">
<title>src/domain/entities/index.ts&#45;&gt;src/domain/entities/ParsedVideo.ts</title>
<path fill="none" stroke="#000000" stroke-opacity="0.200000" d="M1600.24,-348.28C1602.01,-348.03 1603.81,-347.77 1605.64,-347.51"/>
<polygon fill="none" stroke="#000000" stroke-opacity="0.200000" points="1605.62,-349.63 1611.27,-346.71 1605.03,-345.47 1605.62,-349.63"/>
</g>
<!-- src/domain/entities/index.ts&#45;&gt;src/domain/entities/VideoStorageDto.ts -->
<g id="edge24" class="edge">
<title>src/domain/entities/index.ts&#45;&gt;src/domain/entities/VideoStorageDto.ts</title>
<path fill="none" stroke="#000000" stroke-opacity="0.200000" d="M1600.39,-355.85C1604.6,-356.33 1608.91,-356.74 1613,-357 1648.04,-359.24 1656.99,-359.62 1692,-357 1693.78,-356.87 1695.6,-356.71 1697.43,-356.54"/>
<polygon fill="none" stroke="#000000" stroke-opacity="0.200000" points="1697.28,-358.66 1703.03,-355.94 1696.84,-354.49 1697.28,-358.66"/>
</g>
<!-- src/domain/entities/index.ts&#45;&gt;src/domain/entities/VideoEntity.ts -->
<g id="edge23" class="edge">
<title>src/domain/entities/index.ts&#45;&gt;src/domain/entities/VideoEntity.ts</title>
<path fill="none" stroke="#000000" stroke-opacity="0.200000" d="M1600.31,-358.8C1604.53,-359.68 1608.87,-360.46 1613,-361 1682.61,-370.08 1764.43,-369.44 1812.88,-367.9"/>
<polygon fill="none" stroke="#000000" stroke-opacity="0.200000" points="1812.92,-370 1818.85,-367.69 1812.78,-365.8 1812.92,-370"/>
</g>
<!-- src/domain/repositories/IMetadataRepository.ts -->
<g id="node25" class="node">
<title>src/domain/repositories/IMetadataRepository.ts</title>
<g id="a_node25"><a xlink:href="src/domain/repositories/IMetadataRepository.ts" xlink:title="IMetadataRepository.ts">
<path fill="#ddfeff" stroke="black" d="M1507.33,-361.62C1507.33,-361.62 1410.42,-361.62 1410.42,-361.62 1407.21,-361.62 1404,-358.42 1404,-355.21 1404,-355.21 1404,-348.79 1404,-348.79 1404,-345.58 1407.21,-342.38 1410.42,-342.38 1410.42,-342.38 1507.33,-342.38 1507.33,-342.38 1510.54,-342.38 1513.75,-345.58 1513.75,-348.79 1513.75,-348.79 1513.75,-355.21 1513.75,-355.21 1513.75,-358.42 1510.54,-361.62 1507.33,-361.62"/>
<text text-anchor="start" x="1412" y="-349.07" font-family="Helvetica,sans-Serif" font-size="9.00">IMetadataRepository.ts</text>
</a>
</g>
</g>
<!-- src/domain/repositories/index.ts&#45;&gt;src/domain/repositories/IMetadataRepository.ts -->
<g id="edge32" class="edge">
<title>src/domain/repositories/index.ts&#45;&gt;src/domain/repositories/IMetadataRepository.ts</title>
<path fill="none" stroke="#000000" stroke-opacity="0.200000" d="M1380.03,-340.04C1385.11,-340.82 1390.63,-341.67 1396.31,-342.54"/>
<polygon fill="none" stroke="#000000" stroke-opacity="0.200000" points="1395.82,-344.59 1402.07,-343.42 1396.46,-340.44 1395.82,-344.59"/>
</g>
<!-- src/domain/repositories/IVideoFacade.ts -->
<g id="node26" class="node">
<title>src/domain/repositories/IVideoFacade.ts</title>
<g id="a_node26"><a xlink:href="src/domain/repositories/IVideoFacade.ts" xlink:title="IVideoFacade.ts">
<path fill="#ddfeff" stroke="black" d="M1493.46,-392.62C1493.46,-392.62 1424.29,-392.62 1424.29,-392.62 1421.08,-392.62 1417.88,-389.42 1417.88,-386.21 1417.88,-386.21 1417.88,-379.79 1417.88,-379.79 1417.88,-376.58 1421.08,-373.38 1424.29,-373.38 1424.29,-373.38 1493.46,-373.38 1493.46,-373.38 1496.67,-373.38 1499.88,-376.58 1499.88,-379.79 1499.88,-379.79 1499.88,-386.21 1499.88,-386.21 1499.88,-389.42 1496.67,-392.62 1493.46,-392.62"/>
<text text-anchor="start" x="1425.88" y="-380.07" font-family="Helvetica,sans-Serif" font-size="9.00">IVideoFacade.ts</text>
</a>
</g>
</g>
<!-- src/domain/repositories/index.ts&#45;&gt;src/domain/repositories/IVideoFacade.ts -->
<g id="edge33" class="edge">
<title>src/domain/repositories/index.ts&#45;&gt;src/domain/repositories/IVideoFacade.ts</title>
<path fill="none" stroke="#000000" stroke-opacity="0.200000" d="M1364.33,-346.06C1372.36,-353.17 1384,-362.41 1395.75,-368 1400.43,-370.23 1405.48,-372.14 1410.6,-373.78"/>
<polygon fill="none" stroke="#000000" stroke-opacity="0.200000" points="1409.79,-375.74 1416.14,-375.43 1410.99,-371.71 1409.79,-375.74"/>
</g>
<!-- src/domain/repositories/IVideoRepository.ts -->
<g id="node27" class="node">
<title>src/domain/repositories/IVideoRepository.ts</title>
<g id="a_node27"><a xlink:href="src/domain/repositories/IVideoRepository.ts" xlink:title="IVideoRepository.ts">
<path fill="#ddfeff" stroke="black" d="M1500.21,-330.62C1500.21,-330.62 1417.54,-330.62 1417.54,-330.62 1414.33,-330.62 1411.12,-327.42 1411.12,-324.21 1411.12,-324.21 1411.12,-317.79 1411.12,-317.79 1411.12,-314.58 1414.33,-311.38 1417.54,-311.38 1417.54,-311.38 1500.21,-311.38 1500.21,-311.38 1503.42,-311.38 1506.62,-314.58 1506.62,-317.79 1506.62,-317.79 1506.62,-324.21 1506.62,-324.21 1506.62,-327.42 1503.42,-330.62 1500.21,-330.62"/>
<text text-anchor="start" x="1419.12" y="-318.07" font-family="Helvetica,sans-Serif" font-size="9.00">IVideoRepository.ts</text>
</a>
</g>
</g>
<!-- src/domain/repositories/index.ts&#45;&gt;src/domain/repositories/IVideoRepository.ts -->
<g id="edge34" class="edge">
<title>src/domain/repositories/index.ts&#45;&gt;src/domain/repositories/IVideoRepository.ts</title>
<path fill="none" stroke="#000000" stroke-opacity="0.200000" d="M1380.03,-332.21C1387.37,-331.16 1395.63,-329.97 1403.95,-328.77"/>
<polygon fill="none" stroke="#000000" stroke-opacity="0.200000" points="1403.8,-330.91 1409.44,-327.98 1403.2,-326.76 1403.8,-330.91"/>
</g>
<!-- src/domain/valueObjects/ParsedVideoData.ts -->
<g id="node28" class="node">
<title>src/domain/valueObjects/ParsedVideoData.ts</title>
<g id="a_node28"><a xlink:href="src/domain/valueObjects/ParsedVideoData.ts" xlink:title="ParsedVideoData.ts">
<path fill="#ddfeff" stroke="black" d="M1501.71,-455.62C1501.71,-455.62 1416.04,-455.62 1416.04,-455.62 1412.83,-455.62 1409.62,-452.42 1409.62,-449.21 1409.62,-449.21 1409.62,-442.79 1409.62,-442.79 1409.62,-439.58 1412.83,-436.38 1416.04,-436.38 1416.04,-436.38 1501.71,-436.38 1501.71,-436.38 1504.92,-436.38 1508.12,-439.58 1508.12,-442.79 1508.12,-442.79 1508.12,-449.21 1508.12,-449.21 1508.12,-452.42 1504.92,-455.62 1501.71,-455.62"/>
<text text-anchor="start" x="1417.62" y="-443.07" font-family="Helvetica,sans-Serif" font-size="9.00">ParsedVideoData.ts</text>
</a>
</g>
</g>
<!-- src/domain/valueObjects/index.ts&#45;&gt;src/domain/valueObjects/ParsedVideoData.ts -->
<g id="edge36" class="edge">
<title>src/domain/valueObjects/index.ts&#45;&gt;src/domain/valueObjects/ParsedVideoData.ts</title>
<path fill="none" stroke="#000000" stroke-width="2" stroke-opacity="0.200000" d="M1380.03,-457.21C1388.94,-455.93 1399.21,-454.45 1409.3,-453"/>
<polygon fill="#000000" fill-opacity="0.200000" stroke="#000000" stroke-width="2" stroke-opacity="0.200000" points="1412.11,-451.6 1416.01,-459.7 1407.91,-455.8 1412.11,-451.6"/>
</g>
<!-- src/domain/valueObjects/Thumbs.ts -->
<g id="node29" class="node">
<title>src/domain/valueObjects/Thumbs.ts</title>
<g id="a_node29"><a xlink:href="src/domain/valueObjects/Thumbs.ts" xlink:title="Thumbs.ts">
<path fill="#ddfeff" stroke="black" d="M1482.58,-486.62C1482.58,-486.62 1435.17,-486.62 1435.17,-486.62 1431.96,-486.62 1428.75,-483.42 1428.75,-480.21 1428.75,-480.21 1428.75,-473.79 1428.75,-473.79 1428.75,-470.58 1431.96,-467.38 1435.17,-467.38 1435.17,-467.38 1482.58,-467.38 1482.58,-467.38 1485.79,-467.38 1489,-470.58 1489,-473.79 1489,-473.79 1489,-480.21 1489,-480.21 1489,-483.42 1485.79,-486.62 1482.58,-486.62"/>
<text text-anchor="start" x="1436.75" y="-474.07" font-family="Helvetica,sans-Serif" font-size="9.00">Thumbs.ts</text>
</a>
</g>
</g>
<!-- src/domain/valueObjects/index.ts&#45;&gt;src/domain/valueObjects/Thumbs.ts -->
<g id="edge37" class="edge">
<title>src/domain/valueObjects/index.ts&#45;&gt;src/domain/valueObjects/Thumbs.ts</title>
<path fill="none" stroke="#000000" stroke-opacity="0.200000" d="M1380.03,-465.04C1392.43,-466.94 1407.44,-469.25 1420.97,-471.33"/>
<polygon fill="none" stroke="#000000" stroke-opacity="0.200000" points="1420.55,-473.39 1426.8,-472.23 1421.19,-469.24 1420.55,-473.39"/>
</g>
<!-- src/domain/valueObjects/VideoStorageDtoMapper.ts -->
<g id="node30" class="node">
<title>src/domain/valueObjects/VideoStorageDtoMapper.ts</title>
<g id="a_node30"><a xlink:href="src/domain/valueObjects/VideoStorageDtoMapper.ts" xlink:title="VideoStorageDtoMapper.ts">
<path fill="#ddfeff" stroke="black" d="M1515.58,-517.62C1515.58,-517.62 1402.17,-517.62 1402.17,-517.62 1398.96,-517.62 1395.75,-514.42 1395.75,-511.21 1395.75,-511.21 1395.75,-504.79 1395.75,-504.79 1395.75,-501.58 1398.96,-498.38 1402.17,-498.38 1402.17,-498.38 1515.58,-498.38 1515.58,-498.38 1518.79,-498.38 1522,-501.58 1522,-504.79 1522,-504.79 1522,-511.21 1522,-511.21 1522,-514.42 1518.79,-517.62 1515.58,-517.62"/>
<text text-anchor="start" x="1403.75" y="-505.07" font-family="Helvetica,sans-Serif" font-size="9.00">VideoStorageDtoMapper.ts</text>
</a>
</g>
</g>
<!-- src/domain/valueObjects/index.ts&#45;&gt;src/domain/valueObjects/VideoStorageDtoMapper.ts -->
<g id="edge38" class="edge">
<title>src/domain/valueObjects/index.ts&#45;&gt;src/domain/valueObjects/VideoStorageDtoMapper.ts</title>
<path fill="none" stroke="#000000" stroke-width="2" stroke-opacity="0.200000" d="M1364.33,-471.06C1372.36,-478.17 1384,-487.41 1408.06,-497.95"/>
<polygon fill="#000000" fill-opacity="0.200000" stroke="#000000" stroke-width="2" stroke-opacity="0.200000" points="1410.87,-496.55 1414.77,-504.65 1406.67,-500.75 1410.87,-496.55"/>
</g>
<!-- src/domain/repositories/IMetadataRepository.ts&#45;&gt;src/domain/entities/index.ts -->
<g id="edge29" class="edge">
<title>src/domain/repositories/IMetadataRepository.ts&#45;&gt;src/domain/entities/index.ts</title>
<path fill="none" stroke="#000000" stroke-opacity="0.200000" d="M1513.97,-352C1522.2,-352 1530.49,-352 1538.12,-352"/>
<polygon fill="none" stroke="#000000" stroke-opacity="0.200000" points="1538,-354.1 1544,-352 1538,-349.9 1538,-354.1"/>
</g>
<!-- src/domain/repositories/IVideoFacade.ts&#45;&gt;src/domain/entities/index.ts -->
<g id="edge30" class="edge">
<title>src/domain/repositories/IVideoFacade.ts&#45;&gt;src/domain/entities/index.ts</title>
<path fill="none" stroke="#000000" stroke-opacity="0.200000" d="M1500.19,-375.48C1510.02,-373.35 1520.45,-370.82 1530,-368 1533.38,-367 1536.87,-365.86 1540.33,-364.65"/>
<polygon fill="none" stroke="#000000" stroke-opacity="0.200000" points="1540.99,-366.65 1545.92,-362.63 1539.56,-362.7 1540.99,-366.65"/>
</g>
<!-- src/domain/repositories/IVideoRepository.ts&#45;&gt;src/domain/entities/index.ts -->
<g id="edge31" class="edge">
<title>src/domain/repositories/IVideoRepository.ts&#45;&gt;src/domain/entities/index.ts</title>
<path fill="none" stroke="#000000" stroke-opacity="0.200000" d="M1506.9,-330.02C1514.67,-331.8 1522.6,-333.81 1530,-336 1533.38,-337 1536.87,-338.14 1540.33,-339.35"/>
<polygon fill="none" stroke="#000000" stroke-opacity="0.200000" points="1539.56,-341.3 1545.92,-341.37 1540.99,-337.35 1539.56,-341.3"/>
</g>
<!-- src/domain/valueObjects/VideoStorageDtoMapper.ts&#45;&gt;src/domain/entities/index.ts -->
<g id="edge35" class="edge">
<title>src/domain/valueObjects/VideoStorageDtoMapper.ts&#45;&gt;src/domain/entities/index.ts</title>
<path fill="none" stroke="#000000" stroke-opacity="0.200000" d="M1522.22,-498.75C1525.01,-497.1 1527.62,-495.2 1530,-493 1565.47,-460.22 1571.46,-398.93 1572.16,-369.14"/>
<polygon fill="none" stroke="#000000" stroke-opacity="0.200000" points="1574.26,-369.48 1572.22,-363.46 1570.06,-369.44 1574.26,-369.48"/>
</g>
<!-- src/infrastructure/database/DatabaseConnection.ts -->
<g id="node31" class="node">
<title>src/infrastructure/database/DatabaseConnection.ts</title>
<g id="a_node31"><a xlink:href="src/infrastructure/database/DatabaseConnection.ts" xlink:title="DatabaseConnection.ts">
<path fill="#ddfeff" stroke="black" d="M1287.33,-143.62C1287.33,-143.62 1186.67,-143.62 1186.67,-143.62 1183.46,-143.62 1180.25,-140.42 1180.25,-137.21 1180.25,-137.21 1180.25,-130.79 1180.25,-130.79 1180.25,-127.58 1183.46,-124.38 1186.67,-124.38 1186.67,-124.38 1287.33,-124.38 1287.33,-124.38 1290.54,-124.38 1293.75,-127.58 1293.75,-130.79 1293.75,-130.79 1293.75,-137.21 1293.75,-137.21 1293.75,-140.42 1290.54,-143.62 1287.33,-143.62"/>
<text text-anchor="start" x="1188.25" y="-131.07" font-family="Helvetica,sans-Serif" font-size="9.00">DatabaseConnection.ts</text>
</a>
</g>
</g>
<!-- src/infrastructure/repository/MetadataRepository.ts -->
<g id="node32" class="node">
<title>src/infrastructure/repository/MetadataRepository.ts</title>
<g id="a_node32"><a xlink:href="src/infrastructure/repository/MetadataRepository.ts" xlink:title="MetadataRepository.ts">
<path fill="#ddfeff" stroke="black" d="M1149.83,-159.62C1149.83,-159.62 1055.17,-159.62 1055.17,-159.62 1051.96,-159.62 1048.75,-156.42 1048.75,-153.21 1048.75,-153.21 1048.75,-146.79 1048.75,-146.79 1048.75,-143.58 1051.96,-140.38 1055.17,-140.38 1055.17,-140.38 1149.83,-140.38 1149.83,-140.38 1153.04,-140.38 1156.25,-143.58 1156.25,-146.79 1156.25,-146.79 1156.25,-153.21 1156.25,-153.21 1156.25,-156.42 1153.04,-159.62 1149.83,-159.62"/>
<text text-anchor="start" x="1056.75" y="-147.07" font-family="Helvetica,sans-Serif" font-size="9.00">MetadataRepository.ts</text>
</a>
</g>
</g>
<!-- src/infrastructure/repository/MetadataRepository.ts&#45;&gt;src/domain/index.ts -->
<g id="edge40" class="edge">
<title>src/infrastructure/repository/MetadataRepository.ts&#45;&gt;src/domain/index.ts</title>
<path fill="none" stroke="#000000" stroke-width="2" stroke-opacity="0.200000" d="M1118.65,-160.12C1131.04,-168.48 1148.96,-180.76 1164.25,-192 1182.36,-205.31 1202.49,-221.11 1216.81,-232.53"/>
<polygon fill="#000000" fill-opacity="0.200000" stroke="#000000" stroke-width="2" stroke-opacity="0.200000" points="1215.36,-234.07 1221.36,-236.18 1217.99,-230.79 1215.36,-234.07"/>
</g>
<!-- src/infrastructure/repository/MetadataRepository.ts&#45;&gt;src/infrastructure/database/DatabaseConnection.ts -->
<g id="edge39" class="edge">
<title>src/infrastructure/repository/MetadataRepository.ts&#45;&gt;src/infrastructure/database/DatabaseConnection.ts</title>
<path fill="none" stroke="#000000" stroke-width="2" stroke-opacity="0.200000" d="M1156.63,-143.58C1161.4,-143.01 1166.26,-142.42 1171.12,-141.83"/>
<polygon fill="#000000" fill-opacity="0.200000" stroke="#000000" stroke-width="2" stroke-opacity="0.200000" points="1171.11,-143.95 1176.82,-141.15 1170.61,-139.78 1171.11,-143.95"/>
</g>
<!-- src/infrastructure/repository/VideoRepository.ts -->
<g id="node33" class="node">
<title>src/infrastructure/repository/VideoRepository.ts</title>
<g id="a_node33"><a xlink:href="src/infrastructure/repository/VideoRepository.ts" xlink:title="VideoRepository.ts">
<path fill="#ddfeff" stroke="black" d="M1142.71,-128.62C1142.71,-128.62 1062.29,-128.62 1062.29,-128.62 1059.08,-128.62 1055.88,-125.42 1055.88,-122.21 1055.88,-122.21 1055.88,-115.79 1055.88,-115.79 1055.88,-112.58 1059.08,-109.38 1062.29,-109.38 1062.29,-109.38 1142.71,-109.38 1142.71,-109.38 1145.92,-109.38 1149.12,-112.58 1149.12,-115.79 1149.12,-115.79 1149.12,-122.21 1149.12,-122.21 1149.12,-125.42 1145.92,-128.62 1142.71,-128.62"/>
<text text-anchor="start" x="1063.88" y="-116.08" font-family="Helvetica,sans-Serif" font-size="9.00">VideoRepository.ts</text>
</a>
</g>
</g>
<!-- src/infrastructure/repository/VideoRepository.ts&#45;&gt;src/domain/index.ts -->
<g id="edge42" class="edge">
<title>src/infrastructure/repository/VideoRepository.ts&#45;&gt;src/domain/index.ts</title>
<path fill="none" stroke="#000000" stroke-width="2" stroke-opacity="0.200000" d="M1149.41,-124.23C1154.96,-126.53 1160.12,-129.68 1164.25,-134 1176.78,-147.1 1164.29,-157.71 1172.25,-174 1183.41,-196.86 1203.39,-218.34 1218.01,-232.21"/>
<polygon fill="#000000" fill-opacity="0.200000" stroke="#000000" stroke-width="2" stroke-opacity="0.200000" points="1216.25,-233.44 1222.08,-235.97 1219.1,-230.35 1216.25,-233.44"/>
</g>
<!-- src/infrastructure/repository/VideoRepository.ts&#45;&gt;src/infrastructure/database/DatabaseConnection.ts -->
<g id="edge41" class="edge">
<title>src/infrastructure/repository/VideoRepository.ts&#45;&gt;src/infrastructure/database/DatabaseConnection.ts</title>
<path fill="none" stroke="#000000" stroke-width="2" stroke-opacity="0.200000" d="M1149.47,-124.2C1156.56,-125.01 1164,-125.85 1171.4,-126.69"/>
<polygon fill="#000000" fill-opacity="0.200000" stroke="#000000" stroke-width="2" stroke-opacity="0.200000" points="1170.86,-128.74 1177.06,-127.33 1171.33,-124.57 1170.86,-128.74"/>
</g>
<!-- src/infrastructure/repository/index.ts -->
<g id="node34" class="node">
<title>src/infrastructure/repository/index.ts</title>
<g id="a_node34"><a xlink:href="src/infrastructure/repository/index.ts" xlink:title="index.ts">
<path fill="#ddfeff" stroke="black" d="M995.46,-143.62C995.46,-143.62 954.29,-143.62 954.29,-143.62 951.08,-143.62 947.88,-140.42 947.88,-137.21 947.88,-137.21 947.88,-130.79 947.88,-130.79 947.88,-127.58 951.08,-124.38 954.29,-124.38 954.29,-124.38 995.46,-124.38 995.46,-124.38 998.67,-124.38 1001.88,-127.58 1001.88,-130.79 1001.88,-130.79 1001.88,-137.21 1001.88,-137.21 1001.88,-140.42 998.67,-143.62 995.46,-143.62"/>
<text text-anchor="start" x="959.12" y="-131.07" font-family="Helvetica,sans-Serif" font-size="9.00">index.ts</text>
</a>
</g>
</g>
<!-- src/infrastructure/repository/index.ts&#45;&gt;src/infrastructure/repository/MetadataRepository.ts -->
<g id="edge43" class="edge">
<title>src/infrastructure/repository/index.ts&#45;&gt;src/infrastructure/repository/MetadataRepository.ts</title>
<path fill="none" stroke="#000000" stroke-width="2" stroke-opacity="0.200000" d="M1002.21,-137.35C1015.59,-139.06 1032.36,-141.19 1048.28,-143.22"/>
<polygon fill="#000000" fill-opacity="0.200000" stroke="#000000" stroke-width="2" stroke-opacity="0.200000" points="1051.08,-141.83 1054.98,-149.93 1046.88,-146.03 1051.08,-141.83"/>
</g>
<!-- src/infrastructure/repository/index.ts&#45;&gt;src/infrastructure/repository/VideoRepository.ts -->
<g id="edge44" class="edge">
<title>src/infrastructure/repository/index.ts&#45;&gt;src/infrastructure/repository/VideoRepository.ts</title>
<path fill="none" stroke="#000000" stroke-width="2" stroke-opacity="0.200000" d="M1002.21,-130.86C1017.61,-129.02 1037.48,-126.64 1055.39,-124.51"/>
<polygon fill="#000000" fill-opacity="0.200000" stroke="#000000" stroke-width="2" stroke-opacity="0.200000" points="1058.2,-123.11 1062.1,-131.21 1054,-127.31 1058.2,-123.11"/>
</g>
<!-- src/infrastructure/services/VideoMetadataFacade.ts&#45;&gt;src/domain/index.ts -->
<g id="edge45" class="edge">
<title>src/infrastructure/services/VideoMetadataFacade.ts&#45;&gt;src/domain/index.ts</title>
<path fill="none" stroke="#000000" stroke-width="2" stroke-opacity="0.200000" d="M850.88,-144.01C862.92,-159.2 888.14,-187.6 917,-200 1018.3,-243.52 1056.82,-195.25 1164.25,-220 1178.79,-223.35 1194.28,-229.1 1207.14,-234.52"/>
<polygon fill="#000000" fill-opacity="0.200000" stroke="#000000" stroke-width="2" stroke-opacity="0.200000" points="1206.05,-236.33 1212.39,-236.8 1207.72,-232.48 1206.05,-236.33"/>
</g>
<!-- src/infrastructure/services/VideoMetadataFacade.ts&#45;&gt;src/infrastructure/repository/index.ts -->
<g id="edge46" class="edge">
<title>src/infrastructure/services/VideoMetadataFacade.ts&#45;&gt;src/infrastructure/repository/index.ts</title>
<path fill="none" stroke="#000000" stroke-width="2" stroke-opacity="0.200000" d="M901.37,-134C914.05,-134 927.1,-134 938.57,-134"/>
<polygon fill="#000000" fill-opacity="0.200000" stroke="#000000" stroke-width="2" stroke-opacity="0.200000" points="938.36,-136.1 944.36,-134 938.36,-131.9 938.36,-136.1"/>
</g>
<!-- src/infrastructure/video/VideoFileParser.ts&#45;&gt;src/domain/index.ts -->
<g id="edge49" class="edge">
<title>src/infrastructure/video/VideoFileParser.ts&#45;&gt;src/domain/index.ts</title>
<path fill="none" stroke="#000000" stroke-width="2" stroke-opacity="0.200000" d="M861.22,-66.12C876.71,-75.94 898.28,-92.38 909,-113 916.94,-128.26 904.67,-178 917,-190 921.94,-194.8 1157.64,-207.05 1164.25,-209 1182.21,-214.31 1200.73,-224.52 1214.46,-233.16"/>
<polygon fill="#000000" fill-opacity="0.200000" stroke="#000000" stroke-width="2" stroke-opacity="0.200000" points="1213.24,-234.87 1219.41,-236.37 1215.52,-231.35 1213.24,-234.87"/>
</g>
<!-- src/infrastructure/video/VideoFileParser.ts&#45;&gt;src/infrastructure/video/HTMLVideoProcessor.ts -->
<g id="edge48" class="edge">
<title>src/infrastructure/video/VideoFileParser.ts&#45;&gt;src/infrastructure/video/HTMLVideoProcessor.ts</title>
<path fill="none" stroke="#000000" stroke-width="2" stroke-opacity="0.200000" d="M888.65,-53.57C894.93,-53.23 901.48,-52.88 908.03,-52.53"/>
<polygon fill="#000000" fill-opacity="0.200000" stroke="#000000" stroke-width="2" stroke-opacity="0.200000" points="908.05,-54.63 913.93,-52.22 907.83,-50.44 908.05,-54.63"/>
</g>
<!-- src/main.ts -->
<g id="node38" class="node">
<title>src/main.ts</title>
<g id="a_node38"><a xlink:href="src/main.ts" xlink:title="main.ts">
<path fill="#ddfeff" stroke="black" d="M63.58,-137.62C63.58,-137.62 22.42,-137.62 22.42,-137.62 19.21,-137.62 16,-134.42 16,-131.21 16,-131.21 16,-124.79 16,-124.79 16,-121.58 19.21,-118.38 22.42,-118.38 22.42,-118.38 63.58,-118.38 63.58,-118.38 66.79,-118.38 70,-121.58 70,-124.79 70,-124.79 70,-131.21 70,-131.21 70,-134.42 66.79,-137.62 63.58,-137.62"/>
<text text-anchor="start" x="27.62" y="-125.08" font-family="Helvetica,sans-Serif" font-size="9.00">main.ts</text>
</a>
</g>
</g>
<!-- src/main.ts&#45;&gt;src/App.vue -->
<g id="edge52" class="edge">
<title>src/main.ts&#45;&gt;src/App.vue</title>
<path fill="none" stroke="#000000" stroke-width="2" stroke-opacity="0.200000" d="M70.44,-128C71.58,-128 72.74,-128 73.9,-128"/>
<polygon fill="#000000" fill-opacity="0.200000" stroke="#000000" stroke-width="2" stroke-opacity="0.200000" points="73.77,-130.1 79.77,-128 73.77,-125.9 73.77,-130.1"/>
</g>
</g>
</svg>
