<?xml version="1.0" encoding="UTF-8" standalone="no"?>
<!DOCTYPE svg PUBLIC "-//W3C//DTD SVG 1.1//EN"
 "http://www.w3.org/Graphics/SVG/1.1/DTD/svg11.dtd">
<!-- Generated by graphviz version 9.0.0 (20230911.1827)
 -->
<!-- Title: dependency&#45;cruiser output Pages: 1 -->
<svg width="1249pt" height="345pt"
 viewBox="0.00 0.00 1249.25 345.00" xmlns="http://www.w3.org/2000/svg" xmlns:xlink="http://www.w3.org/1999/xlink">
<g id="graph0" class="graph" transform="scale(1 1) rotate(0) translate(4 341)">
<title>dependency&#45;cruiser output</title>
<polygon fill="white" stroke="none" points="-4,4 -4,-341 1245.25,-341 1245.25,4 -4,4"/>
<g id="clust1" class="cluster">
<title>cluster_src</title>
<path fill="#ffffff" stroke="black" stroke-width="2" d="M20,-8C20,-8 1221.25,-8 1221.25,-8 1227.25,-8 1233.25,-14 1233.25,-20 1233.25,-20 1233.25,-317 1233.25,-317 1233.25,-323 1227.25,-329 1221.25,-329 1221.25,-329 20,-329 20,-329 14,-329 8,-323 8,-317 8,-317 8,-20 8,-20 8,-14 14,-8 20,-8"/>
<text text-anchor="middle" x="620.62" y="-316.45" font-family="Helvetica,sans-Serif" font-weight="bold" font-size="9.00">src</text>
</g>
<g id="clust2" class="cluster">
<title>cluster_src/assets</title>
<path fill="#ffffff" stroke="black" stroke-width="2" d="M90,-183C90,-183 192.75,-183 192.75,-183 198.75,-183 204.75,-189 204.75,-195 204.75,-195 204.75,-289 204.75,-289 204.75,-295 198.75,-301 192.75,-301 192.75,-301 90,-301 90,-301 84,-301 78,-295 78,-289 78,-289 78,-195 78,-195 78,-189 84,-183 90,-183"/>
<text text-anchor="middle" x="141.38" y="-288.45" font-family="Helvetica,sans-Serif" font-weight="bold" font-size="9.00">assets</text>
</g>
<g id="clust3" class="cluster">
<title>cluster_src/assets/effects</title>
<path fill="#ffffff" stroke="black" stroke-width="2" d="M98,-219C98,-219 184.75,-219 184.75,-219 190.75,-219 196.75,-225 196.75,-231 196.75,-231 196.75,-262 196.75,-262 196.75,-268 190.75,-274 184.75,-274 184.75,-274 98,-274 98,-274 92,-274 86,-268 86,-262 86,-262 86,-231 86,-231 86,-225 92,-219 98,-219"/>
<text text-anchor="middle" x="141.38" y="-261.45" font-family="Helvetica,sans-Serif" font-weight="bold" font-size="9.00">effects</text>
</g>
<g id="clust4" class="cluster">
<title>cluster_src/components</title>
<path fill="#ffffff" stroke="black" stroke-width="2" d="M224.75,-110C224.75,-110 556.25,-110 556.25,-110 562.25,-110 568.25,-116 568.25,-122 568.25,-122 568.25,-244 568.25,-244 568.25,-250 562.25,-256 556.25,-256 556.25,-256 224.75,-256 224.75,-256 218.75,-256 212.75,-250 212.75,-244 212.75,-244 212.75,-122 212.75,-122 212.75,-116 218.75,-110 224.75,-110"/>
<text text-anchor="middle" x="390.5" y="-243.45" font-family="Helvetica,sans-Serif" font-weight="bold" font-size="9.00">components</text>
</g>
<g id="clust6" class="cluster">
<title>cluster_src/components/utils</title>
<path fill="#ffffff" stroke="black" stroke-width="2" d="M232.75,-146C232.75,-146 330.75,-146 330.75,-146 336.75,-146 342.75,-152 342.75,-158 342.75,-158 342.75,-189 342.75,-189 342.75,-195 336.75,-201 330.75,-201 330.75,-201 232.75,-201 232.75,-201 226.75,-201 220.75,-195 220.75,-189 220.75,-189 220.75,-158 220.75,-158 220.75,-152 226.75,-146 232.75,-146"/>
<text text-anchor="middle" x="281.75" y="-188.45" font-family="Helvetica,sans-Serif" font-weight="bold" font-size="9.00">utils</text>
</g>
<g id="clust5" class="cluster">
<title>cluster_src/components/inputs</title>
<path fill="#ffffff" stroke="black" stroke-width="2" d="M362.75,-118C362.75,-118 447.25,-118 447.25,-118 453.25,-118 459.25,-124 459.25,-130 459.25,-130 459.25,-161 459.25,-161 459.25,-167 453.25,-173 447.25,-173 447.25,-173 362.75,-173 362.75,-173 356.75,-173 350.75,-167 350.75,-161 350.75,-161 350.75,-130 350.75,-130 350.75,-124 356.75,-118 362.75,-118"/>
<text text-anchor="middle" x="405" y="-160.45" font-family="Helvetica,sans-Serif" font-weight="bold" font-size="9.00">inputs</text>
</g>
<g id="clust7" class="cluster">
<title>cluster_src/services</title>
<path fill="#ffffff" stroke="black" stroke-width="2" d="M596.25,-16C596.25,-16 1213.25,-16 1213.25,-16 1219.25,-16 1225.25,-22 1225.25,-28 1225.25,-28 1225.25,-290 1225.25,-290 1225.25,-296 1219.25,-302 1213.25,-302 1213.25,-302 596.25,-302 596.25,-302 590.25,-302 584.25,-296 584.25,-290 584.25,-290 584.25,-28 584.25,-28 584.25,-22 590.25,-16 596.25,-16"/>
<text text-anchor="middle" x="904.75" y="-289.45" font-family="Helvetica,sans-Serif" font-weight="bold" font-size="9.00">services</text>
</g>
<g id="clust8" class="cluster">
<title>cluster_src/services/Filters</title>
<path fill="#ffffff" stroke="black" stroke-width="2" d="M702.25,-24C702.25,-24 851.75,-24 851.75,-24 857.75,-24 863.75,-30 863.75,-36 863.75,-36 863.75,-67 863.75,-67 863.75,-73 857.75,-79 851.75,-79 851.75,-79 702.25,-79 702.25,-79 696.25,-79 690.25,-73 690.25,-67 690.25,-67 690.25,-36 690.25,-36 690.25,-30 696.25,-24 702.25,-24"/>
<text text-anchor="middle" x="777" y="-66.45" font-family="Helvetica,sans-Serif" font-weight="bold" font-size="9.00">Filters</text>
</g>
<g id="clust14" class="cluster">
<title>cluster_src/services/VideoParsers</title>
<path fill="#ffffff" stroke="black" stroke-width="2" d="M604.25,-153C604.25,-153 654.25,-153 654.25,-153 660.25,-153 666.25,-159 666.25,-165 666.25,-165 666.25,-196 666.25,-196 666.25,-202 660.25,-208 654.25,-208 654.25,-208 604.25,-208 604.25,-208 598.25,-208 592.25,-202 592.25,-196 592.25,-196 592.25,-165 592.25,-165 592.25,-159 598.25,-153 604.25,-153"/>
<text text-anchor="middle" x="629.25" y="-195.45" font-family="Helvetica,sans-Serif" font-weight="bold" font-size="9.00">VideoParsers</text>
</g>
<g id="clust9" class="cluster">
<title>cluster_src/services/StorageController</title>
<path fill="#ffffff" stroke="black" stroke-width="2" d="M702.25,-87C702.25,-87 1205.25,-87 1205.25,-87 1211.25,-87 1217.25,-93 1217.25,-99 1217.25,-99 1217.25,-263 1217.25,-263 1217.25,-269 1211.25,-275 1205.25,-275 1205.25,-275 702.25,-275 702.25,-275 696.25,-275 690.25,-269 690.25,-263 690.25,-263 690.25,-99 690.25,-99 690.25,-93 696.25,-87 702.25,-87"/>
<text text-anchor="middle" x="953.75" y="-262.45" font-family="Helvetica,sans-Serif" font-weight="bold" font-size="9.00">StorageController</text>
</g>
<g id="clust10" class="cluster">
<title>cluster_src/services/StorageController/migrations</title>
<path fill="#ffffff" stroke="black" stroke-width="2" d="M912.25,-95C912.25,-95 1197.25,-95 1197.25,-95 1203.25,-95 1209.25,-101 1209.25,-107 1209.25,-107 1209.25,-236 1209.25,-236 1209.25,-242 1203.25,-248 1197.25,-248 1197.25,-248 912.25,-248 912.25,-248 906.25,-248 900.25,-242 900.25,-236 900.25,-236 900.25,-107 900.25,-107 900.25,-101 906.25,-95 912.25,-95"/>
<text text-anchor="middle" x="1054.75" y="-235.45" font-family="Helvetica,sans-Serif" font-weight="bold" font-size="9.00">migrations</text>
</g>
<g id="clust12" class="cluster">
<title>cluster_src/services/StorageController/migrations/v1</title>
<path fill="#ffffff" stroke="black" stroke-width="2" d="M1065.25,-103C1065.25,-103 1111.25,-103 1111.25,-103 1117.25,-103 1123.25,-109 1123.25,-115 1123.25,-115 1123.25,-146 1123.25,-146 1123.25,-152 1117.25,-158 1111.25,-158 1111.25,-158 1065.25,-158 1065.25,-158 1059.25,-158 1053.25,-152 1053.25,-146 1053.25,-146 1053.25,-115 1053.25,-115 1053.25,-109 1059.25,-103 1065.25,-103"/>
<text text-anchor="middle" x="1088.25" y="-145.45" font-family="Helvetica,sans-Serif" font-weight="bold" font-size="9.00">v1</text>
</g>
<g id="clust11" class="cluster">
<title>cluster_src/services/StorageController/migrations/utils</title>
<path fill="#ffffff" stroke="black" stroke-width="2" d="M1143.25,-134C1143.25,-134 1189.25,-134 1189.25,-134 1195.25,-134 1201.25,-140 1201.25,-146 1201.25,-146 1201.25,-177 1201.25,-177 1201.25,-183 1195.25,-189 1189.25,-189 1189.25,-189 1143.25,-189 1143.25,-189 1137.25,-189 1131.25,-183 1131.25,-177 1131.25,-177 1131.25,-146 1131.25,-146 1131.25,-140 1137.25,-134 1143.25,-134"/>
<text text-anchor="middle" x="1166.25" y="-176.45" font-family="Helvetica,sans-Serif" font-weight="bold" font-size="9.00">utils</text>
</g>
<g id="clust13" class="cluster">
<title>cluster_src/services/StorageController/migrations/v2</title>
<path fill="#ffffff" stroke="black" stroke-width="2" d="M1065.25,-166C1065.25,-166 1111.25,-166 1111.25,-166 1117.25,-166 1123.25,-172 1123.25,-178 1123.25,-178 1123.25,-209 1123.25,-209 1123.25,-215 1117.25,-221 1111.25,-221 1111.25,-221 1065.25,-221 1065.25,-221 1059.25,-221 1053.25,-215 1053.25,-209 1053.25,-209 1053.25,-178 1053.25,-178 1053.25,-172 1059.25,-166 1065.25,-166"/>
<text text-anchor="middle" x="1088.25" y="-208.45" font-family="Helvetica,sans-Serif" font-weight="bold" font-size="9.00">v2</text>
</g>
<g id="clust15" class="cluster">
<title>cluster_src/stores</title>
<path fill="#ffffff" stroke="black" stroke-width="2" d="M479.25,-16C479.25,-16 555.5,-16 555.5,-16 561.5,-16 567.5,-22 567.5,-28 567.5,-28 567.5,-90 567.5,-90 567.5,-96 561.5,-102 555.5,-102 555.5,-102 479.25,-102 479.25,-102 473.25,-102 467.25,-96 467.25,-90 467.25,-90 467.25,-28 467.25,-28 467.25,-22 473.25,-16 479.25,-16"/>
<text text-anchor="middle" x="517.38" y="-89.45" font-family="Helvetica,sans-Serif" font-weight="bold" font-size="9.00">stores</text>
</g>
<!-- src/App.vue -->
<g id="node1" class="node">
<title>src/App.vue</title>
<g id="a_node1"><a xlink:href="src/App.vue" xlink:title="App.vue">
<path fill="#41f083" stroke="black" d="M161.96,-174.62C161.96,-174.62 120.79,-174.62 120.79,-174.62 117.58,-174.62 114.38,-171.42 114.38,-168.21 114.38,-168.21 114.38,-161.79 114.38,-161.79 114.38,-158.58 117.58,-155.38 120.79,-155.38 120.79,-155.38 161.96,-155.38 161.96,-155.38 165.17,-155.38 168.38,-158.58 168.38,-161.79 168.38,-161.79 168.38,-168.21 168.38,-168.21 168.38,-171.42 165.17,-174.62 161.96,-174.62"/>
<text text-anchor="start" x="125.25" y="-162.07" font-family="Helvetica,sans-Serif" font-size="9.00">App.vue</text>
</a>
</g>
</g>
<!-- src/components/NavBar.vue -->
<g id="node2" class="node">
<title>src/components/NavBar.vue</title>
<g id="a_node2"><a xlink:href="src/components/NavBar.vue" xlink:title="NavBar.vue">
<path fill="#41f083" stroke="black" d="M306.58,-137.62C306.58,-137.62 256.92,-137.62 256.92,-137.62 253.71,-137.62 250.5,-134.42 250.5,-131.21 250.5,-131.21 250.5,-124.79 250.5,-124.79 250.5,-121.58 253.71,-118.38 256.92,-118.38 256.92,-118.38 306.58,-118.38 306.58,-118.38 309.79,-118.38 313,-121.58 313,-124.79 313,-124.79 313,-131.21 313,-131.21 313,-134.42 309.79,-137.62 306.58,-137.62"/>
<text text-anchor="start" x="258.5" y="-125.08" font-family="Helvetica,sans-Serif" font-size="9.00">NavBar.vue</text>
</a>
</g>
</g>
<!-- src/App.vue&#45;&gt;src/components/NavBar.vue -->
<g id="edge1" class="edge">
<title>src/App.vue&#45;&gt;src/components/NavBar.vue</title>
<path fill="none" stroke="#000000" stroke-width="2" stroke-opacity="0.200000" d="M168.62,-156.21C181.79,-151.95 198.03,-146.92 212.75,-143 221.96,-140.55 231.94,-138.19 241.35,-136.09"/>
<polygon fill="#000000" fill-opacity="0.200000" stroke="#000000" stroke-width="2" stroke-opacity="0.200000" points="241.78,-138.15 247.19,-134.81 240.88,-134.04 241.78,-138.15"/>
</g>
<!-- src/components/utils/DiagnosticsPanel.vue -->
<g id="node3" class="node">
<title>src/components/utils/DiagnosticsPanel.vue</title>
<g id="a_node3"><a xlink:href="src/components/utils/DiagnosticsPanel.vue" xlink:title="DiagnosticsPanel.vue">
<path fill="#41f083" stroke="black" d="M328.33,-173.62C328.33,-173.62 235.17,-173.62 235.17,-173.62 231.96,-173.62 228.75,-170.42 228.75,-167.21 228.75,-167.21 228.75,-160.79 228.75,-160.79 228.75,-157.58 231.96,-154.38 235.17,-154.38 235.17,-154.38 328.33,-154.38 328.33,-154.38 331.54,-154.38 334.75,-157.58 334.75,-160.79 334.75,-160.79 334.75,-167.21 334.75,-167.21 334.75,-170.42 331.54,-173.62 328.33,-173.62"/>
<text text-anchor="start" x="236.75" y="-161.07" font-family="Helvetica,sans-Serif" font-size="9.00">DiagnosticsPanel.vue</text>
</a>
</g>
</g>
<!-- src/App.vue&#45;&gt;src/components/utils/DiagnosticsPanel.vue -->
<g id="edge2" class="edge">
<title>src/App.vue&#45;&gt;src/components/utils/DiagnosticsPanel.vue</title>
<path fill="none" stroke="#000000" stroke-width="2" stroke-opacity="0.200000" d="M168.73,-164.81C183.22,-164.7 201.84,-164.57 219.72,-164.44"/>
<polygon fill="#000000" fill-opacity="0.200000" stroke="#000000" stroke-width="2" stroke-opacity="0.200000" points="219.41,-166.54 225.39,-164.4 219.38,-162.34 219.41,-166.54"/>
</g>
<!-- src/components/VideoGallery.vue -->
<g id="node4" class="node">
<title>src/components/VideoGallery.vue</title>
<g id="a_node4"><a xlink:href="src/components/VideoGallery.vue" xlink:title="VideoGallery.vue">
<path fill="#41f083" stroke="black" d="M317.46,-228.62C317.46,-228.62 246.04,-228.62 246.04,-228.62 242.83,-228.62 239.62,-225.42 239.62,-222.21 239.62,-222.21 239.62,-215.79 239.62,-215.79 239.62,-212.58 242.83,-209.38 246.04,-209.38 246.04,-209.38 317.46,-209.38 317.46,-209.38 320.67,-209.38 323.88,-212.58 323.88,-215.79 323.88,-215.79 323.88,-222.21 323.88,-222.21 323.88,-225.42 320.67,-228.62 317.46,-228.62"/>
<text text-anchor="start" x="247.62" y="-216.07" font-family="Helvetica,sans-Serif" font-size="9.00">VideoGallery.vue</text>
</a>
</g>
</g>
<!-- src/App.vue&#45;&gt;src/components/VideoGallery.vue -->
<g id="edge3" class="edge">
<title>src/App.vue&#45;&gt;src/components/VideoGallery.vue</title>
<path fill="none" stroke="#000000" stroke-width="2" stroke-opacity="0.200000" d="M168.77,-165.63C181.06,-167.23 195.07,-171.11 204.75,-180 213.03,-187.6 204.39,-196.48 212.75,-204 217.93,-208.66 224.23,-211.99 230.87,-214.34"/>
<polygon fill="#000000" fill-opacity="0.200000" stroke="#000000" stroke-width="2" stroke-opacity="0.200000" points="230.17,-216.32 236.51,-215.98 231.34,-212.29 230.17,-216.32"/>
</g>
<!-- src/services/StorageController/index.ts -->
<g id="node5" class="node">
<title>src/services/StorageController/index.ts</title>
<g id="a_node5"><a xlink:href="src/services/StorageController/index.ts" xlink:title="index.ts">
<path fill="#ddfeff" stroke="black" d="M745.83,-180.62C745.83,-180.62 704.67,-180.62 704.67,-180.62 701.46,-180.62 698.25,-177.42 698.25,-174.21 698.25,-174.21 698.25,-167.79 698.25,-167.79 698.25,-164.58 701.46,-161.38 704.67,-161.38 704.67,-161.38 745.83,-161.38 745.83,-161.38 749.04,-161.38 752.25,-164.58 752.25,-167.79 752.25,-167.79 752.25,-174.21 752.25,-174.21 752.25,-177.42 749.04,-180.62 745.83,-180.62"/>
<text text-anchor="start" x="709.5" y="-168.07" font-family="Helvetica,sans-Serif" font-size="9.00">index.ts</text>
</a>
</g>
</g>
<!-- src/App.vue&#45;&gt;src/services/StorageController/index.ts -->
<g id="edge4" class="edge">
<title>src/App.vue&#45;&gt;src/services/StorageController/index.ts</title>
<path fill="none" stroke="#000000" stroke-width="2" stroke-opacity="0.200000" d="M168.72,-164.65C181.47,-165.94 195.89,-169.85 204.75,-180 216.36,-193.29 199.85,-246.96 212.75,-259 274.94,-317.01 318.96,-265 404,-265 404,-265 404,-265 518.38,-265 593.21,-265 670.64,-212.97 705.39,-186.33"/>
<polygon fill="#000000" fill-opacity="0.200000" stroke="#000000" stroke-width="2" stroke-opacity="0.200000" points="706.32,-188.27 709.75,-182.92 703.73,-184.96 706.32,-188.27"/>
</g>
<!-- src/components/inputs/FolderSelector.vue -->
<g id="node8" class="node">
<title>src/components/inputs/FolderSelector.vue</title>
<g id="a_node8"><a xlink:href="src/components/inputs/FolderSelector.vue" xlink:title="FolderSelector.vue">
<path fill="#41f083" stroke="black" d="M444.83,-145.62C444.83,-145.62 365.17,-145.62 365.17,-145.62 361.96,-145.62 358.75,-142.42 358.75,-139.21 358.75,-139.21 358.75,-132.79 358.75,-132.79 358.75,-129.58 361.96,-126.38 365.17,-126.38 365.17,-126.38 444.83,-126.38 444.83,-126.38 448.04,-126.38 451.25,-129.58 451.25,-132.79 451.25,-132.79 451.25,-139.21 451.25,-139.21 451.25,-142.42 448.04,-145.62 444.83,-145.62"/>
<text text-anchor="start" x="366.75" y="-133.07" font-family="Helvetica,sans-Serif" font-size="9.00">FolderSelector.vue</text>
</a>
</g>
</g>
<!-- src/components/NavBar.vue&#45;&gt;src/components/inputs/FolderSelector.vue -->
<g id="edge5" class="edge">
<title>src/components/NavBar.vue&#45;&gt;src/components/inputs/FolderSelector.vue</title>
<path fill="none" stroke="#000000" stroke-width="2" stroke-opacity="0.200000" d="M313.35,-130.02C324.3,-130.74 337,-131.58 349.36,-132.4"/>
<polygon fill="#000000" fill-opacity="0.200000" stroke="#000000" stroke-width="2" stroke-opacity="0.200000" points="349.13,-134.48 355.26,-132.78 349.41,-130.29 349.13,-134.48"/>
</g>
<!-- src/stores/appStateStore.ts -->
<g id="node9" class="node">
<title>src/stores/appStateStore.ts</title>
<g id="a_node9"><a xlink:href="src/stores/appStateStore.ts" xlink:title="appStateStore.ts">
<path fill="#ddfeff" stroke="black" d="M553.08,-43.62C553.08,-43.62 481.67,-43.62 481.67,-43.62 478.46,-43.62 475.25,-40.42 475.25,-37.21 475.25,-37.21 475.25,-30.79 475.25,-30.79 475.25,-27.58 478.46,-24.38 481.67,-24.38 481.67,-24.38 553.08,-24.38 553.08,-24.38 556.29,-24.38 559.5,-27.58 559.5,-30.79 559.5,-30.79 559.5,-37.21 559.5,-37.21 559.5,-40.42 556.29,-43.62 553.08,-43.62"/>
<text text-anchor="start" x="483.25" y="-31.07" font-family="Helvetica,sans-Serif" font-size="9.00">appStateStore.ts</text>
</a>
</g>
</g>
<!-- src/components/NavBar.vue&#45;&gt;src/stores/appStateStore.ts -->
<g id="edge6" class="edge">
<title>src/components/NavBar.vue&#45;&gt;src/stores/appStateStore.ts</title>
<path fill="none" stroke="#000000" stroke-width="2" stroke-opacity="0.200000" d="M291.91,-118.26C304.14,-105.86 327.03,-84.63 350.75,-73 387.15,-55.16 432.12,-45.24 466.02,-39.87"/>
<polygon fill="#000000" fill-opacity="0.200000" stroke="#000000" stroke-width="2" stroke-opacity="0.200000" points="466.21,-41.97 471.83,-38.99 465.58,-37.82 466.21,-41.97"/>
</g>
<!-- src/stores/videosStore.ts -->
<g id="node10" class="node">
<title>src/stores/videosStore.ts</title>
<g id="a_node10"><a xlink:href="src/stores/videosStore.ts" xlink:title="videosStore.ts">
<path fill="#ddfeff" stroke="black" d="M548.21,-74.62C548.21,-74.62 486.54,-74.62 486.54,-74.62 483.33,-74.62 480.12,-71.42 480.12,-68.21 480.12,-68.21 480.12,-61.79 480.12,-61.79 480.12,-58.58 483.33,-55.38 486.54,-55.38 486.54,-55.38 548.21,-55.38 548.21,-55.38 551.42,-55.38 554.62,-58.58 554.62,-61.79 554.62,-61.79 554.62,-68.21 554.62,-68.21 554.62,-71.42 551.42,-74.62 548.21,-74.62"/>
<text text-anchor="start" x="488.12" y="-62.08" font-family="Helvetica,sans-Serif" font-size="9.00">videosStore.ts</text>
</a>
</g>
</g>
<!-- src/components/NavBar.vue&#45;&gt;src/stores/videosStore.ts -->
<g id="edge7" class="edge">
<title>src/components/NavBar.vue&#45;&gt;src/stores/videosStore.ts</title>
<path fill="none" stroke="#000000" stroke-width="2" stroke-opacity="0.200000" d="M307.68,-117.97C320.44,-113.06 336.28,-107.3 350.75,-103 390.99,-91.04 437.66,-80.64 471.19,-73.75"/>
<polygon fill="#000000" fill-opacity="0.200000" stroke="#000000" stroke-width="2" stroke-opacity="0.200000" points="471.42,-75.85 476.88,-72.6 470.58,-71.73 471.42,-75.85"/>
</g>
<!-- src/components/utils/DiagnosticsPanel.vue&#45;&gt;src/stores/appStateStore.ts -->
<g id="edge14" class="edge">
<title>src/components/utils/DiagnosticsPanel.vue&#45;&gt;src/stores/appStateStore.ts</title>
<path fill="none" stroke="#000000" stroke-width="2" stroke-opacity="0.200000" d="M335.06,-156.16C337.88,-154.45 340.48,-152.41 342.75,-150 357.27,-134.57 337.34,-119.41 350.75,-103 383.47,-62.96 418.91,-93.36 459.25,-61 464.25,-56.99 462.11,-52.83 467.25,-49 467.57,-48.76 467.9,-48.52 468.23,-48.29"/>
<polygon fill="#000000" fill-opacity="0.200000" stroke="#000000" stroke-width="2" stroke-opacity="0.200000" points="468.89,-50.34 472.99,-45.49 466.75,-46.72 468.89,-50.34"/>
</g>
<!-- src/components/VideoGallery.vue&#45;&gt;src/stores/videosStore.ts -->
<g id="edge11" class="edge">
<title>src/components/VideoGallery.vue&#45;&gt;src/stores/videosStore.ts</title>
<path fill="none" stroke="#000000" stroke-width="2" stroke-opacity="0.200000" d="M324.31,-215.69C331.35,-213.31 337.93,-209.63 342.75,-204 355.66,-188.91 337.96,-130.19 350.75,-115 382.89,-76.81 411.66,-101.07 459.25,-86 466.8,-83.61 474.82,-80.82 482.39,-78.07"/>
<polygon fill="#000000" fill-opacity="0.200000" stroke="#000000" stroke-width="2" stroke-opacity="0.200000" points="482.64,-80.22 487.54,-76.17 481.19,-76.27 482.64,-80.22"/>
</g>
<!-- src/components/VideoCard.vue -->
<g id="node11" class="node">
<title>src/components/VideoCard.vue</title>
<g id="a_node11"><a xlink:href="src/components/VideoCard.vue" xlink:title="VideoCard.vue">
<path fill="#41f083" stroke="black" d="M436.58,-200.62C436.58,-200.62 373.42,-200.62 373.42,-200.62 370.21,-200.62 367,-197.42 367,-194.21 367,-194.21 367,-187.79 367,-187.79 367,-184.58 370.21,-181.38 373.42,-181.38 373.42,-181.38 436.58,-181.38 436.58,-181.38 439.79,-181.38 443,-184.58 443,-187.79 443,-187.79 443,-194.21 443,-194.21 443,-197.42 439.79,-200.62 436.58,-200.62"/>
<text text-anchor="start" x="375" y="-188.07" font-family="Helvetica,sans-Serif" font-size="9.00">VideoCard.vue</text>
</a>
</g>
</g>
<!-- src/components/VideoGallery.vue&#45;&gt;src/components/VideoCard.vue -->
<g id="edge10" class="edge">
<title>src/components/VideoGallery.vue&#45;&gt;src/components/VideoCard.vue</title>
<path fill="none" stroke="#000000" stroke-width="2" stroke-opacity="0.200000" d="M324.14,-209.44C335.07,-206.92 346.94,-204.18 358.1,-201.6"/>
<polygon fill="#000000" fill-opacity="0.200000" stroke="#000000" stroke-width="2" stroke-opacity="0.200000" points="358.54,-203.65 363.91,-200.26 357.59,-199.56 358.54,-203.65"/>
</g>
<!-- src/services/StorageController/VideoMetadataController.ts -->
<g id="node18" class="node">
<title>src/services/StorageController/VideoMetadataController.ts</title>
<g id="a_node18"><a xlink:href="src/services/StorageController/VideoMetadataController.ts" xlink:title="VideoMetadataController.ts">
<path fill="#ddfeff" stroke="black" d="M885.83,-180.62C885.83,-180.62 771.67,-180.62 771.67,-180.62 768.46,-180.62 765.25,-177.42 765.25,-174.21 765.25,-174.21 765.25,-167.79 765.25,-167.79 765.25,-164.58 768.46,-161.38 771.67,-161.38 771.67,-161.38 885.83,-161.38 885.83,-161.38 889.04,-161.38 892.25,-164.58 892.25,-167.79 892.25,-167.79 892.25,-174.21 892.25,-174.21 892.25,-177.42 889.04,-180.62 885.83,-180.62"/>
<text text-anchor="start" x="773.25" y="-168.07" font-family="Helvetica,sans-Serif" font-size="9.00">VideoMetadataController.ts</text>
</a>
</g>
</g>
<!-- src/services/StorageController/index.ts&#45;&gt;src/services/StorageController/VideoMetadataController.ts -->
<g id="edge19" class="edge">
<title>src/services/StorageController/index.ts&#45;&gt;src/services/StorageController/VideoMetadataController.ts</title>
<path fill="none" stroke="#000000" stroke-width="2" stroke-opacity="0.200000" d="M752.65,-171C753.74,-171 754.85,-171 755.98,-171"/>
<polygon fill="#000000" fill-opacity="0.200000" stroke="#000000" stroke-width="2" stroke-opacity="0.200000" points="755.87,-173.1 761.87,-171 755.87,-168.9 755.87,-173.1"/>
</g>
<!-- src/assets/effects/FadeTransition.vue -->
<g id="node6" class="node">
<title>src/assets/effects/FadeTransition.vue</title>
<g id="a_node6"><a xlink:href="src/assets/effects/FadeTransition.vue" xlink:title="no&#45;orphans">
<path fill="#ccffcc" stroke="orange" d="M182.33,-246.62C182.33,-246.62 100.42,-246.62 100.42,-246.62 97.21,-246.62 94,-243.42 94,-240.21 94,-240.21 94,-233.79 94,-233.79 94,-230.58 97.21,-227.38 100.42,-227.38 100.42,-227.38 182.33,-227.38 182.33,-227.38 185.54,-227.38 188.75,-230.58 188.75,-233.79 188.75,-233.79 188.75,-240.21 188.75,-240.21 188.75,-243.42 185.54,-246.62 182.33,-246.62"/>
<text text-anchor="start" x="102" y="-234.07" font-family="Helvetica,sans-Serif" font-size="9.00" fill="orange">FadeTransition.vue</text>
</a>
</g>
</g>
<!-- src/assets/main.css -->
<g id="node7" class="node">
<title>src/assets/main.css</title>
<g id="a_node7"><a xlink:href="src/assets/main.css" xlink:title="main.css">
<path fill="#ffffcc" stroke="black" d="M162.08,-210.62C162.08,-210.62 120.67,-210.62 120.67,-210.62 117.46,-210.62 114.25,-207.42 114.25,-204.21 114.25,-204.21 114.25,-197.79 114.25,-197.79 114.25,-194.58 117.46,-191.38 120.67,-191.38 120.67,-191.38 162.08,-191.38 162.08,-191.38 165.29,-191.38 168.5,-194.58 168.5,-197.79 168.5,-197.79 168.5,-204.21 168.5,-204.21 168.5,-207.42 165.29,-210.62 162.08,-210.62"/>
<text text-anchor="start" x="122.25" y="-198.07" font-family="Helvetica,sans-Serif" font-size="9.00">main.css</text>
</a>
</g>
</g>
<!-- src/components/inputs/FolderSelector.vue&#45;&gt;src/stores/videosStore.ts -->
<g id="edge13" class="edge">
<title>src/components/inputs/FolderSelector.vue&#45;&gt;src/stores/videosStore.ts</title>
<path fill="none" stroke="#000000" stroke-width="2" stroke-opacity="0.200000" d="M430.5,-125.98C439.76,-121.81 450.24,-116.63 459.25,-111 473.42,-102.14 488.08,-90.28 499,-80.82"/>
<polygon fill="#000000" fill-opacity="0.200000" stroke="#000000" stroke-width="2" stroke-opacity="0.200000" points="500.21,-82.55 503.32,-77 497.43,-79.4 500.21,-82.55"/>
</g>
<!-- src/services/VideoParsers/index.ts -->
<g id="node14" class="node">
<title>src/services/VideoParsers/index.ts</title>
<g id="a_node14"><a xlink:href="src/services/VideoParsers/index.ts" xlink:title="index.ts">
<path fill="#ddfeff" stroke="black" d="M649.83,-180.62C649.83,-180.62 608.67,-180.62 608.67,-180.62 605.46,-180.62 602.25,-177.42 602.25,-174.21 602.25,-174.21 602.25,-167.79 602.25,-167.79 602.25,-164.58 605.46,-161.38 608.67,-161.38 608.67,-161.38 649.83,-161.38 649.83,-161.38 653.04,-161.38 656.25,-164.58 656.25,-167.79 656.25,-167.79 656.25,-174.21 656.25,-174.21 656.25,-177.42 653.04,-180.62 649.83,-180.62"/>
<text text-anchor="start" x="613.5" y="-168.07" font-family="Helvetica,sans-Serif" font-size="9.00">index.ts</text>
</a>
</g>
</g>
<!-- src/components/inputs/FolderSelector.vue&#45;&gt;src/services/VideoParsers/index.ts -->
<g id="edge12" class="edge">
<title>src/components/inputs/FolderSelector.vue&#45;&gt;src/services/VideoParsers/index.ts</title>
<path fill="none" stroke="#000000" stroke-width="2" stroke-opacity="0.200000" d="M451.51,-144.97C454.26,-146.41 456.88,-148.07 459.25,-150 465.42,-155.01 460.55,-161.72 467.25,-166 477.53,-172.58 548.67,-172.51 592.87,-171.8"/>
<polygon fill="#000000" fill-opacity="0.200000" stroke="#000000" stroke-width="2" stroke-opacity="0.200000" points="592.88,-173.9 598.84,-171.69 592.8,-169.7 592.88,-173.9"/>
</g>
<!-- src/services/index.ts -->
<g id="node13" class="node">
<title>src/services/index.ts</title>
<g id="a_node13"><a xlink:href="src/services/index.ts" xlink:title="index.ts">
<path fill="#ddfeff" stroke="black" d="M649.83,-100.62C649.83,-100.62 608.67,-100.62 608.67,-100.62 605.46,-100.62 602.25,-97.42 602.25,-94.21 602.25,-94.21 602.25,-87.79 602.25,-87.79 602.25,-84.58 605.46,-81.38 608.67,-81.38 608.67,-81.38 649.83,-81.38 649.83,-81.38 653.04,-81.38 656.25,-84.58 656.25,-87.79 656.25,-87.79 656.25,-94.21 656.25,-94.21 656.25,-97.42 653.04,-100.62 649.83,-100.62"/>
<text text-anchor="start" x="613.5" y="-88.08" font-family="Helvetica,sans-Serif" font-size="9.00">index.ts</text>
</a>
</g>
</g>
<!-- src/stores/videosStore.ts&#45;&gt;src/services/index.ts -->
<g id="edge28" class="edge">
<title>src/stores/videosStore.ts&#45;&gt;src/services/index.ts</title>
<path fill="none" stroke="#000000" stroke-width="2" stroke-opacity="0.200000" d="M554.96,-73.66C567.32,-76.58 581.08,-79.84 593.3,-82.73"/>
<polygon fill="#000000" fill-opacity="0.200000" stroke="#000000" stroke-width="2" stroke-opacity="0.200000" points="592.63,-84.73 598.95,-84.07 593.59,-80.64 592.63,-84.73"/>
</g>
<!-- src/components/VideoEmbed.vue -->
<g id="node12" class="node">
<title>src/components/VideoEmbed.vue</title>
<g id="a_node12"><a xlink:href="src/components/VideoEmbed.vue" xlink:title="VideoEmbed.vue">
<path fill="#41f083" stroke="black" d="M553.83,-157.62C553.83,-157.62 480.92,-157.62 480.92,-157.62 477.71,-157.62 474.5,-154.42 474.5,-151.21 474.5,-151.21 474.5,-144.79 474.5,-144.79 474.5,-141.58 477.71,-138.38 480.92,-138.38 480.92,-138.38 553.83,-138.38 553.83,-138.38 557.04,-138.38 560.25,-141.58 560.25,-144.79 560.25,-144.79 560.25,-151.21 560.25,-151.21 560.25,-154.42 557.04,-157.62 553.83,-157.62"/>
<text text-anchor="start" x="482.5" y="-145.07" font-family="Helvetica,sans-Serif" font-size="9.00">VideoEmbed.vue</text>
</a>
</g>
</g>
<!-- src/components/VideoCard.vue&#45;&gt;src/components/VideoEmbed.vue -->
<g id="edge8" class="edge">
<title>src/components/VideoCard.vue&#45;&gt;src/components/VideoEmbed.vue</title>
<path fill="none" stroke="#000000" stroke-width="2" stroke-opacity="0.200000" d="M443.31,-184.53C449.01,-182.44 454.56,-179.67 459.25,-176 463.49,-172.69 462.69,-168.96 467.27,-163.59"/>
<polygon fill="#000000" fill-opacity="0.200000" stroke="#000000" stroke-width="2" stroke-opacity="0.200000" points="468.64,-165.18 471.74,-159.64 465.86,-162.03 468.64,-165.18"/>
</g>
<!-- src/components/VideoCard.vue&#45;&gt;src/services/index.ts -->
<g id="edge9" class="edge">
<title>src/components/VideoCard.vue&#45;&gt;src/services/index.ts</title>
<path fill="none" stroke="#000000" stroke-width="2" stroke-opacity="0.200000" d="M443.41,-186.23C449.38,-183.96 454.98,-180.69 459.25,-176 472.62,-161.3 453.69,-146.53 467.25,-132 469.44,-129.65 546.44,-110.74 593.15,-99.44"/>
<polygon fill="#000000" fill-opacity="0.200000" stroke="#000000" stroke-width="2" stroke-opacity="0.200000" points="593.49,-101.52 598.83,-98.07 592.51,-97.44 593.49,-101.52"/>
</g>
<!-- src/services/index.ts&#45;&gt;src/services/StorageController/index.ts -->
<g id="edge27" class="edge">
<title>src/services/index.ts&#45;&gt;src/services/StorageController/index.ts</title>
<path fill="none" stroke="#000000" stroke-width="2" stroke-opacity="0.200000" d="M641.78,-100.81C659.82,-116.16 694.53,-145.71 712.63,-161.11"/>
<polygon fill="#000000" fill-opacity="0.200000" stroke="#000000" stroke-width="2" stroke-opacity="0.200000" points="715.44,-159.72 719.34,-167.82 711.24,-163.92 715.44,-159.72"/>
</g>
<!-- src/services/Filters/index.ts -->
<g id="node17" class="node">
<title>src/services/Filters/index.ts</title>
<g id="a_node17"><a xlink:href="src/services/Filters/index.ts" xlink:title="index.ts">
<path fill="#ddfeff" stroke="black" d="M745.83,-51.62C745.83,-51.62 704.67,-51.62 704.67,-51.62 701.46,-51.62 698.25,-48.42 698.25,-45.21 698.25,-45.21 698.25,-38.79 698.25,-38.79 698.25,-35.58 701.46,-32.38 704.67,-32.38 704.67,-32.38 745.83,-32.38 745.83,-32.38 749.04,-32.38 752.25,-35.58 752.25,-38.79 752.25,-38.79 752.25,-45.21 752.25,-45.21 752.25,-48.42 749.04,-51.62 745.83,-51.62"/>
<text text-anchor="start" x="709.5" y="-39.08" font-family="Helvetica,sans-Serif" font-size="9.00">index.ts</text>
</a>
</g>
</g>
<!-- src/services/index.ts&#45;&gt;src/services/Filters/index.ts -->
<g id="edge26" class="edge">
<title>src/services/index.ts&#45;&gt;src/services/Filters/index.ts</title>
<path fill="none" stroke="#000000" stroke-width="2" stroke-opacity="0.200000" d="M649.27,-81.08C665.47,-72.64 688.65,-60.56 704.93,-52.07"/>
<polygon fill="#000000" fill-opacity="0.200000" stroke="#000000" stroke-width="2" stroke-opacity="0.200000" points="707.74,-50.68 711.64,-58.78 703.54,-54.88 707.74,-50.68"/>
</g>
<!-- src/services/VideoParsers/index.ts&#45;&gt;src/services/StorageController/index.ts -->
<g id="edge25" class="edge">
<title>src/services/VideoParsers/index.ts&#45;&gt;src/services/StorageController/index.ts</title>
<path fill="none" stroke="#000000" stroke-width="2" stroke-opacity="0.200000" d="M656.68,-171C666.78,-171 678.46,-171 689.23,-171"/>
<polygon fill="#000000" fill-opacity="0.200000" stroke="#000000" stroke-width="2" stroke-opacity="0.200000" points="688.99,-173.1 694.99,-171 688.99,-168.9 688.99,-173.1"/>
</g>
<!-- src/main.ts -->
<g id="node15" class="node">
<title>src/main.ts</title>
<g id="a_node15"><a xlink:href="src/main.ts" xlink:title="main.ts">
<path fill="#ddfeff" stroke="black" d="M63.58,-192.62C63.58,-192.62 22.42,-192.62 22.42,-192.62 19.21,-192.62 16,-189.42 16,-186.21 16,-186.21 16,-179.79 16,-179.79 16,-176.58 19.21,-173.38 22.42,-173.38 22.42,-173.38 63.58,-173.38 63.58,-173.38 66.79,-173.38 70,-176.58 70,-179.79 70,-179.79 70,-186.21 70,-186.21 70,-189.42 66.79,-192.62 63.58,-192.62"/>
<text text-anchor="start" x="27.62" y="-180.07" font-family="Helvetica,sans-Serif" font-size="9.00">main.ts</text>
</a>
</g>
</g>
<!-- src/main.ts&#45;&gt;src/App.vue -->
<g id="edge15" class="edge">
<title>src/main.ts&#45;&gt;src/App.vue</title>
<path fill="none" stroke="#000000" stroke-width="2" stroke-opacity="0.200000" d="M70.33,-178.08C81.17,-176.06 93.88,-173.68 105.47,-171.52"/>
<polygon fill="#000000" fill-opacity="0.200000" stroke="#000000" stroke-width="2" stroke-opacity="0.200000" points="105.58,-173.63 111.1,-170.47 104.81,-169.51 105.58,-173.63"/>
</g>
<!-- src/main.ts&#45;&gt;src/assets/main.css -->
<g id="edge16" class="edge">
<title>src/main.ts&#45;&gt;src/assets/main.css</title>
<path fill="none" stroke="#000000" stroke-width="2" stroke-opacity="0.200000" d="M70.33,-187.92C81.17,-189.94 93.88,-192.32 105.47,-194.48"/>
<polygon fill="#000000" fill-opacity="0.200000" stroke="#000000" stroke-width="2" stroke-opacity="0.200000" points="104.81,-196.49 111.1,-195.53 105.58,-192.37 104.81,-196.49"/>
</g>
<!-- src/services/Filters/Filters.ts -->
<g id="node16" class="node">
<title>src/services/Filters/Filters.ts</title>
<g id="a_node16"><a xlink:href="src/services/Filters/Filters.ts" xlink:title="Filters.ts">
<path fill="#ddfeff" stroke="black" d="M849.33,-51.62C849.33,-51.62 808.17,-51.62 808.17,-51.62 804.96,-51.62 801.75,-48.42 801.75,-45.21 801.75,-45.21 801.75,-38.79 801.75,-38.79 801.75,-35.58 804.96,-32.38 808.17,-32.38 808.17,-32.38 849.33,-32.38 849.33,-32.38 852.54,-32.38 855.75,-35.58 855.75,-38.79 855.75,-38.79 855.75,-45.21 855.75,-45.21 855.75,-48.42 852.54,-51.62 849.33,-51.62"/>
<text text-anchor="start" x="811.12" y="-39.08" font-family="Helvetica,sans-Serif" font-size="9.00">Filters.ts</text>
</a>
</g>
</g>
<!-- src/services/Filters/index.ts&#45;&gt;src/services/Filters/Filters.ts -->
<g id="edge17" class="edge">
<title>src/services/Filters/index.ts&#45;&gt;src/services/Filters/Filters.ts</title>
<path fill="none" stroke="#000000" stroke-width="2" stroke-opacity="0.200000" d="M752.65,-42C767.69,-42 786.46,-42 801.48,-42"/>
<polygon fill="#000000" fill-opacity="0.200000" stroke="#000000" stroke-width="2" stroke-opacity="0.200000" points="804.29,-40.61 808.19,-48.71 800.09,-44.81 804.29,-40.61"/>
</g>
<!-- src/services/StorageController/migrations/index.ts -->
<g id="node19" class="node">
<title>src/services/StorageController/migrations/index.ts</title>
<g id="a_node19"><a xlink:href="src/services/StorageController/migrations/index.ts" xlink:title="index.ts">
<path fill="#ddfeff" stroke="black" d="M955.83,-180.62C955.83,-180.62 914.67,-180.62 914.67,-180.62 911.46,-180.62 908.25,-177.42 908.25,-174.21 908.25,-174.21 908.25,-167.79 908.25,-167.79 908.25,-164.58 911.46,-161.38 914.67,-161.38 914.67,-161.38 955.83,-161.38 955.83,-161.38 959.04,-161.38 962.25,-164.58 962.25,-167.79 962.25,-167.79 962.25,-174.21 962.25,-174.21 962.25,-177.42 959.04,-180.62 955.83,-180.62"/>
<text text-anchor="start" x="919.5" y="-168.07" font-family="Helvetica,sans-Serif" font-size="9.00">index.ts</text>
</a>
</g>
</g>
<!-- src/services/StorageController/VideoMetadataController.ts&#45;&gt;src/services/StorageController/migrations/index.ts -->
<g id="edge18" class="edge">
<title>src/services/StorageController/VideoMetadataController.ts&#45;&gt;src/services/StorageController/migrations/index.ts</title>
<path fill="none" stroke="#000000" stroke-width="2" stroke-opacity="0.200000" d="M892.65,-171C894.83,-171 896.98,-171 899.09,-171"/>
<polygon fill="#000000" fill-opacity="0.200000" stroke="#000000" stroke-width="2" stroke-opacity="0.200000" points="898.99,-173.1 904.99,-171 898.99,-168.9 898.99,-173.1"/>
</g>
<!-- src/services/StorageController/migrations/migrations.ts -->
<g id="node20" class="node">
<title>src/services/StorageController/migrations/migrations.ts</title>
<g id="a_node20"><a xlink:href="src/services/StorageController/migrations/migrations.ts" xlink:title="migrations.ts">
<path fill="#ddfeff" stroke="black" d="M1038.83,-180.62C1038.83,-180.62 981.67,-180.62 981.67,-180.62 978.46,-180.62 975.25,-177.42 975.25,-174.21 975.25,-174.21 975.25,-167.79 975.25,-167.79 975.25,-164.58 978.46,-161.38 981.67,-161.38 981.67,-161.38 1038.83,-161.38 1038.83,-161.38 1042.04,-161.38 1045.25,-164.58 1045.25,-167.79 1045.25,-167.79 1045.25,-174.21 1045.25,-174.21 1045.25,-177.42 1042.04,-180.62 1038.83,-180.62"/>
<text text-anchor="start" x="983.25" y="-168.07" font-family="Helvetica,sans-Serif" font-size="9.00">migrations.ts</text>
</a>
</g>
</g>
<!-- src/services/StorageController/migrations/index.ts&#45;&gt;src/services/StorageController/migrations/migrations.ts -->
<g id="edge20" class="edge">
<title>src/services/StorageController/migrations/index.ts&#45;&gt;src/services/StorageController/migrations/migrations.ts</title>
<path fill="none" stroke="#000000" stroke-width="2" stroke-opacity="0.200000" d="M962.6,-171C966.61,-171 970.79,-171 974.93,-171"/>
<polygon fill="#000000" fill-opacity="0.200000" stroke="#000000" stroke-width="2" stroke-opacity="0.200000" points="977.73,-169.61 981.63,-177.71 973.53,-173.81 977.73,-169.61"/>
</g>
<!-- src/services/StorageController/migrations/v1/index.ts -->
<g id="node21" class="node">
<title>src/services/StorageController/migrations/v1/index.ts</title>
<g id="a_node21"><a xlink:href="src/services/StorageController/migrations/v1/index.ts" xlink:title="index.ts">
<path fill="#ddfeff" stroke="black" d="M1108.83,-130.62C1108.83,-130.62 1067.67,-130.62 1067.67,-130.62 1064.46,-130.62 1061.25,-127.42 1061.25,-124.21 1061.25,-124.21 1061.25,-117.79 1061.25,-117.79 1061.25,-114.58 1064.46,-111.38 1067.67,-111.38 1067.67,-111.38 1108.83,-111.38 1108.83,-111.38 1112.04,-111.38 1115.25,-114.58 1115.25,-117.79 1115.25,-117.79 1115.25,-124.21 1115.25,-124.21 1115.25,-127.42 1112.04,-130.62 1108.83,-130.62"/>
<text text-anchor="start" x="1072.5" y="-118.08" font-family="Helvetica,sans-Serif" font-size="9.00">index.ts</text>
</a>
</g>
</g>
<!-- src/services/StorageController/migrations/migrations.ts&#45;&gt;src/services/StorageController/migrations/v1/index.ts -->
<g id="edge21" class="edge">
<title>src/services/StorageController/migrations/migrations.ts&#45;&gt;src/services/StorageController/migrations/v1/index.ts</title>
<path fill="none" stroke="#000000" stroke-width="2" stroke-opacity="0.200000" d="M1026.63,-160.88C1037.55,-153.7 1052.39,-143.94 1064.65,-135.87"/>
<polygon fill="#000000" fill-opacity="0.200000" stroke="#000000" stroke-width="2" stroke-opacity="0.200000" points="1065.51,-137.82 1069.36,-132.77 1063.2,-134.31 1065.51,-137.82"/>
</g>
<!-- src/services/StorageController/migrations/v2/index.ts -->
<g id="node22" class="node">
<title>src/services/StorageController/migrations/v2/index.ts</title>
<g id="a_node22"><a xlink:href="src/services/StorageController/migrations/v2/index.ts" xlink:title="index.ts">
<path fill="#ddfeff" stroke="black" d="M1108.83,-193.62C1108.83,-193.62 1067.67,-193.62 1067.67,-193.62 1064.46,-193.62 1061.25,-190.42 1061.25,-187.21 1061.25,-187.21 1061.25,-180.79 1061.25,-180.79 1061.25,-177.58 1064.46,-174.38 1067.67,-174.38 1067.67,-174.38 1108.83,-174.38 1108.83,-174.38 1112.04,-174.38 1115.25,-177.58 1115.25,-180.79 1115.25,-180.79 1115.25,-187.21 1115.25,-187.21 1115.25,-190.42 1112.04,-193.62 1108.83,-193.62"/>
<text text-anchor="start" x="1072.5" y="-181.07" font-family="Helvetica,sans-Serif" font-size="9.00">index.ts</text>
</a>
</g>
</g>
<!-- src/services/StorageController/migrations/migrations.ts&#45;&gt;src/services/StorageController/migrations/v2/index.ts -->
<g id="edge22" class="edge">
<title>src/services/StorageController/migrations/migrations.ts&#45;&gt;src/services/StorageController/migrations/v2/index.ts</title>
<path fill="none" stroke="#000000" stroke-width="2" stroke-opacity="0.200000" d="M1045.69,-176.89C1047.96,-177.28 1050.25,-177.67 1052.51,-178.06"/>
<polygon fill="#000000" fill-opacity="0.200000" stroke="#000000" stroke-width="2" stroke-opacity="0.200000" points="1051.87,-180.08 1058.14,-179.02 1052.58,-175.94 1051.87,-180.08"/>
</g>
<!-- src/services/StorageController/migrations/utils/index.ts -->
<g id="node23" class="node">
<title>src/services/StorageController/migrations/utils/index.ts</title>
<g id="a_node23"><a xlink:href="src/services/StorageController/migrations/utils/index.ts" xlink:title="index.ts">
<path fill="#ddfeff" stroke="black" d="M1186.83,-161.62C1186.83,-161.62 1145.67,-161.62 1145.67,-161.62 1142.46,-161.62 1139.25,-158.42 1139.25,-155.21 1139.25,-155.21 1139.25,-148.79 1139.25,-148.79 1139.25,-145.58 1142.46,-142.38 1145.67,-142.38 1145.67,-142.38 1186.83,-142.38 1186.83,-142.38 1190.04,-142.38 1193.25,-145.58 1193.25,-148.79 1193.25,-148.79 1193.25,-155.21 1193.25,-155.21 1193.25,-158.42 1190.04,-161.62 1186.83,-161.62"/>
<text text-anchor="start" x="1150.5" y="-149.07" font-family="Helvetica,sans-Serif" font-size="9.00">index.ts</text>
</a>
</g>
</g>
<!-- src/services/StorageController/migrations/v1/index.ts&#45;&gt;src/services/StorageController/migrations/utils/index.ts -->
<g id="edge23" class="edge">
<title>src/services/StorageController/migrations/v1/index.ts&#45;&gt;src/services/StorageController/migrations/utils/index.ts</title>
<path fill="none" stroke="#000000" stroke-width="2" stroke-opacity="0.200000" d="M1113.72,-130.98C1119.62,-133.39 1126.03,-136 1132.26,-138.54"/>
<polygon fill="#000000" fill-opacity="0.200000" stroke="#000000" stroke-width="2" stroke-opacity="0.200000" points="1131.42,-140.47 1137.77,-140.79 1133,-136.58 1131.42,-140.47"/>
</g>
<!-- src/services/StorageController/migrations/v2/index.ts&#45;&gt;src/services/StorageController/migrations/utils/index.ts -->
<g id="edge24" class="edge">
<title>src/services/StorageController/migrations/v2/index.ts&#45;&gt;src/services/StorageController/migrations/utils/index.ts</title>
<path fill="none" stroke="#000000" stroke-width="2" stroke-opacity="0.200000" d="M1113.3,-173.88C1119.6,-171.22 1126.49,-168.32 1133.14,-165.52"/>
<polygon fill="#000000" fill-opacity="0.200000" stroke="#000000" stroke-width="2" stroke-opacity="0.200000" points="1133.85,-167.5 1138.57,-163.23 1132.22,-163.63 1133.85,-167.5"/>
</g>
</g>
</svg>
