<?xml version="1.0" encoding="UTF-8" standalone="no"?>
<!DOCTYPE svg PUBLIC "-//W3C//DTD SVG 1.1//EN"
 "http://www.w3.org/Graphics/SVG/1.1/DTD/svg11.dtd">
<!-- Generated by graphviz version 9.0.0 (20230911.1827)
 -->
<!-- Title: dependency&#45;cruiser output Pages: 1 -->
<svg width="1530pt" height="502pt"
 viewBox="0.00 0.00 1530.25 502.00" xmlns="http://www.w3.org/2000/svg" xmlns:xlink="http://www.w3.org/1999/xlink">
<g id="graph0" class="graph" transform="scale(1 1) rotate(0) translate(4 498)">
<title>dependency&#45;cruiser output</title>
<polygon fill="white" stroke="none" points="-4,4 -4,-498 1526.25,-498 1526.25,4 -4,4"/>
<g id="clust1" class="cluster">
<title>cluster_src</title>
<path fill="#ffffff" stroke="black" stroke-width="2" d="M20,-8C20,-8 1502.25,-8 1502.25,-8 1508.25,-8 1514.25,-14 1514.25,-20 1514.25,-20 1514.25,-474 1514.25,-474 1514.25,-480 1508.25,-486 1502.25,-486 1502.25,-486 20,-486 20,-486 14,-486 8,-480 8,-474 8,-474 8,-20 8,-20 8,-14 14,-8 20,-8"/>
<text text-anchor="middle" x="761.12" y="-473.45" font-family="Helvetica,sans-Serif" font-weight="bold" font-size="9.00">src</text>
</g>
<g id="clust2" class="cluster">
<title>cluster_src/application</title>
<path fill="#ffffff" stroke="black" stroke-width="2" d="M580,-115C580,-115 886.25,-115 886.25,-115 892.25,-115 898.25,-121 898.25,-127 898.25,-127 898.25,-224 898.25,-224 898.25,-230 892.25,-236 886.25,-236 886.25,-236 580,-236 580,-236 574,-236 568,-230 568,-224 568,-224 568,-127 568,-127 568,-121 574,-115 580,-115"/>
<text text-anchor="middle" x="733.12" y="-223.45" font-family="Helvetica,sans-Serif" font-weight="bold" font-size="9.00">application</text>
</g>
<g id="clust3" class="cluster">
<title>cluster_src/application/services</title>
<path fill="#ffffff" stroke="black" stroke-width="2" d="M650,-123C650,-123 878.25,-123 878.25,-123 884.25,-123 890.25,-129 890.25,-135 890.25,-135 890.25,-197 890.25,-197 890.25,-203 884.25,-209 878.25,-209 878.25,-209 650,-209 650,-209 644,-209 638,-203 638,-197 638,-197 638,-135 638,-135 638,-129 644,-123 650,-123"/>
<text text-anchor="middle" x="764.12" y="-196.45" font-family="Helvetica,sans-Serif" font-weight="bold" font-size="9.00">services</text>
</g>
<g id="clust4" class="cluster">
<title>cluster_src/assets</title>
<path fill="#ffffff" stroke="black" stroke-width="2" d="M90,-219C90,-219 192.75,-219 192.75,-219 198.75,-219 204.75,-225 204.75,-231 204.75,-231 204.75,-325 204.75,-325 204.75,-331 198.75,-337 192.75,-337 192.75,-337 90,-337 90,-337 84,-337 78,-331 78,-325 78,-325 78,-231 78,-231 78,-225 84,-219 90,-219"/>
<text text-anchor="middle" x="141.38" y="-324.45" font-family="Helvetica,sans-Serif" font-weight="bold" font-size="9.00">assets</text>
</g>
<g id="clust5" class="cluster">
<title>cluster_src/assets/effects</title>
<path fill="#ffffff" stroke="black" stroke-width="2" d="M98,-255C98,-255 184.75,-255 184.75,-255 190.75,-255 196.75,-261 196.75,-267 196.75,-267 196.75,-298 196.75,-298 196.75,-304 190.75,-310 184.75,-310 184.75,-310 98,-310 98,-310 92,-310 86,-304 86,-298 86,-298 86,-267 86,-267 86,-261 92,-255 98,-255"/>
<text text-anchor="middle" x="141.38" y="-297.45" font-family="Helvetica,sans-Serif" font-weight="bold" font-size="9.00">effects</text>
</g>
<g id="clust6" class="cluster">
<title>cluster_src/components</title>
<path fill="#ffffff" stroke="black" stroke-width="2" d="M333,-129C333,-129 548,-129 548,-129 554,-129 560,-135 560,-141 560,-141 560,-298 560,-298 560,-304 554,-310 548,-310 548,-310 333,-310 333,-310 327,-310 321,-304 321,-298 321,-298 321,-141 321,-141 321,-135 327,-129 333,-129"/>
<text text-anchor="middle" x="440.5" y="-297.45" font-family="Helvetica,sans-Serif" font-weight="bold" font-size="9.00">components</text>
</g>
<g id="clust8" class="cluster">
<title>cluster_src/components/utils</title>
<path fill="#ffffff" stroke="black" stroke-width="2" d="M341,-165C341,-165 439,-165 439,-165 445,-165 451,-171 451,-177 451,-177 451,-208 451,-208 451,-214 445,-220 439,-220 439,-220 341,-220 341,-220 335,-220 329,-214 329,-208 329,-208 329,-177 329,-177 329,-171 335,-165 341,-165"/>
<text text-anchor="middle" x="390" y="-207.45" font-family="Helvetica,sans-Serif" font-weight="bold" font-size="9.00">utils</text>
</g>
<g id="clust7" class="cluster">
<title>cluster_src/components/inputs</title>
<path fill="#ffffff" stroke="black" stroke-width="2" d="M347.75,-228C347.75,-228 432.25,-228 432.25,-228 438.25,-228 444.25,-234 444.25,-240 444.25,-240 444.25,-271 444.25,-271 444.25,-277 438.25,-283 432.25,-283 432.25,-283 347.75,-283 347.75,-283 341.75,-283 335.75,-277 335.75,-271 335.75,-271 335.75,-240 335.75,-240 335.75,-234 341.75,-228 347.75,-228"/>
<text text-anchor="middle" x="390" y="-270.45" font-family="Helvetica,sans-Serif" font-weight="bold" font-size="9.00">inputs</text>
</g>
<g id="clust9" class="cluster">
<title>cluster_src/domain</title>
<path fill="#ffffff" stroke="black" stroke-width="2" d="M1187.25,-275C1187.25,-275 1392.25,-275 1392.25,-275 1398.25,-275 1404.25,-281 1404.25,-287 1404.25,-287 1404.25,-447 1404.25,-447 1404.25,-453 1398.25,-459 1392.25,-459 1392.25,-459 1187.25,-459 1187.25,-459 1181.25,-459 1175.25,-453 1175.25,-447 1175.25,-447 1175.25,-287 1175.25,-287 1175.25,-281 1181.25,-275 1187.25,-275"/>
<text text-anchor="middle" x="1289.75" y="-446.45" font-family="Helvetica,sans-Serif" font-weight="bold" font-size="9.00">domain</text>
</g>
<g id="clust10" class="cluster">
<title>cluster_src/domain/constants</title>
<path fill="#ffffff" stroke="black" stroke-width="2" d="M1223.12,-377C1223.12,-377 1269.12,-377 1269.12,-377 1275.12,-377 1281.12,-383 1281.12,-389 1281.12,-389 1281.12,-420 1281.12,-420 1281.12,-426 1275.12,-432 1269.12,-432 1269.12,-432 1223.12,-432 1223.12,-432 1217.12,-432 1211.12,-426 1211.12,-420 1211.12,-420 1211.12,-389 1211.12,-389 1211.12,-383 1217.12,-377 1223.12,-377"/>
<text text-anchor="middle" x="1246.12" y="-419.45" font-family="Helvetica,sans-Serif" font-weight="bold" font-size="9.00">constants</text>
</g>
<g id="clust12" class="cluster">
<title>cluster_src/domain/repositories</title>
<path fill="#ffffff" stroke="black" stroke-width="2" d="M1195.25,-283C1195.25,-283 1297,-283 1297,-283 1303,-283 1309,-289 1309,-295 1309,-295 1309,-357 1309,-357 1309,-363 1303,-369 1297,-369 1297,-369 1195.25,-369 1195.25,-369 1189.25,-369 1183.25,-363 1183.25,-357 1183.25,-357 1183.25,-295 1183.25,-295 1183.25,-289 1189.25,-283 1195.25,-283"/>
<text text-anchor="middle" x="1246.12" y="-356.45" font-family="Helvetica,sans-Serif" font-weight="bold" font-size="9.00">repositories</text>
</g>
<g id="clust11" class="cluster">
<title>cluster_src/domain/entities</title>
<path fill="#ffffff" stroke="black" stroke-width="2" d="M1329,-314C1329,-314 1384.25,-314 1384.25,-314 1390.25,-314 1396.25,-320 1396.25,-326 1396.25,-326 1396.25,-388 1396.25,-388 1396.25,-394 1390.25,-400 1384.25,-400 1384.25,-400 1329,-400 1329,-400 1323,-400 1317,-394 1317,-388 1317,-388 1317,-326 1317,-326 1317,-320 1323,-314 1329,-314"/>
<text text-anchor="middle" x="1356.62" y="-387.45" font-family="Helvetica,sans-Serif" font-weight="bold" font-size="9.00">entities</text>
</g>
<g id="clust13" class="cluster">
<title>cluster_src/infrastructure</title>
<path fill="#ffffff" stroke="black" stroke-width="2" d="M918.25,-16C918.25,-16 1494.25,-16 1494.25,-16 1500.25,-16 1506.25,-22 1506.25,-28 1506.25,-28 1506.25,-255 1506.25,-255 1506.25,-261 1500.25,-267 1494.25,-267 1494.25,-267 918.25,-267 918.25,-267 912.25,-267 906.25,-261 906.25,-255 906.25,-255 906.25,-28 906.25,-28 906.25,-22 912.25,-16 918.25,-16"/>
<text text-anchor="middle" x="1206.25" y="-254.45" font-family="Helvetica,sans-Serif" font-weight="bold" font-size="9.00">infrastructure</text>
</g>
<g id="clust14" class="cluster">
<title>cluster_src/infrastructure/database</title>
<path fill="#ffffff" stroke="black" stroke-width="2" d="M1057.75,-24C1057.75,-24 1486.25,-24 1486.25,-24 1492.25,-24 1498.25,-30 1498.25,-36 1498.25,-36 1498.25,-228 1498.25,-228 1498.25,-234 1492.25,-240 1486.25,-240 1486.25,-240 1057.75,-240 1057.75,-240 1051.75,-240 1045.75,-234 1045.75,-228 1045.75,-228 1045.75,-36 1045.75,-36 1045.75,-30 1051.75,-24 1057.75,-24"/>
<text text-anchor="middle" x="1272" y="-227.45" font-family="Helvetica,sans-Serif" font-weight="bold" font-size="9.00">database</text>
</g>
<g id="clust15" class="cluster">
<title>cluster_src/infrastructure/database/migrations</title>
<path fill="#ffffff" stroke="black" stroke-width="2" d="M1087.5,-32C1087.5,-32 1478.25,-32 1478.25,-32 1484.25,-32 1490.25,-38 1490.25,-44 1490.25,-44 1490.25,-173 1490.25,-173 1490.25,-179 1484.25,-185 1478.25,-185 1478.25,-185 1087.5,-185 1087.5,-185 1081.5,-185 1075.5,-179 1075.5,-173 1075.5,-173 1075.5,-44 1075.5,-44 1075.5,-38 1081.5,-32 1087.5,-32"/>
<text text-anchor="middle" x="1282.88" y="-172.45" font-family="Helvetica,sans-Serif" font-weight="bold" font-size="9.00">migrations</text>
</g>
<g id="clust17" class="cluster">
<title>cluster_src/infrastructure/database/migrations/v1</title>
<path fill="#ffffff" stroke="black" stroke-width="2" d="M1333.62,-40C1333.62,-40 1379.62,-40 1379.62,-40 1385.62,-40 1391.62,-46 1391.62,-52 1391.62,-52 1391.62,-83 1391.62,-83 1391.62,-89 1385.62,-95 1379.62,-95 1379.62,-95 1333.62,-95 1333.62,-95 1327.62,-95 1321.62,-89 1321.62,-83 1321.62,-83 1321.62,-52 1321.62,-52 1321.62,-46 1327.62,-40 1333.62,-40"/>
<text text-anchor="middle" x="1356.62" y="-82.45" font-family="Helvetica,sans-Serif" font-weight="bold" font-size="9.00">v1</text>
</g>
<g id="clust18" class="cluster">
<title>cluster_src/infrastructure/database/migrations/v2</title>
<path fill="#ffffff" stroke="black" stroke-width="2" d="M1333.62,-103C1333.62,-103 1379.62,-103 1379.62,-103 1385.62,-103 1391.62,-109 1391.62,-115 1391.62,-115 1391.62,-146 1391.62,-146 1391.62,-152 1385.62,-158 1379.62,-158 1379.62,-158 1333.62,-158 1333.62,-158 1327.62,-158 1321.62,-152 1321.62,-146 1321.62,-146 1321.62,-115 1321.62,-115 1321.62,-109 1327.62,-103 1333.62,-103"/>
<text text-anchor="middle" x="1356.62" y="-145.45" font-family="Helvetica,sans-Serif" font-weight="bold" font-size="9.00">v2</text>
</g>
<g id="clust16" class="cluster">
<title>cluster_src/infrastructure/database/migrations/utils</title>
<path fill="#ffffff" stroke="black" stroke-width="2" d="M1424.25,-71C1424.25,-71 1470.25,-71 1470.25,-71 1476.25,-71 1482.25,-77 1482.25,-83 1482.25,-83 1482.25,-114 1482.25,-114 1482.25,-120 1476.25,-126 1470.25,-126 1470.25,-126 1424.25,-126 1424.25,-126 1418.25,-126 1412.25,-120 1412.25,-114 1412.25,-114 1412.25,-83 1412.25,-83 1412.25,-77 1418.25,-71 1424.25,-71"/>
<text text-anchor="middle" x="1447.25" y="-113.45" font-family="Helvetica,sans-Serif" font-weight="bold" font-size="9.00">utils</text>
</g>
<g id="clust19" class="cluster">
<title>cluster_src/infrastructure/repository</title>
<path fill="#ffffff" stroke="black" stroke-width="2" d="M926.25,-154C926.25,-154 1025.75,-154 1025.75,-154 1031.75,-154 1037.75,-160 1037.75,-166 1037.75,-166 1037.75,-228 1037.75,-228 1037.75,-234 1031.75,-240 1025.75,-240 1025.75,-240 926.25,-240 926.25,-240 920.25,-240 914.25,-234 914.25,-228 914.25,-228 914.25,-166 914.25,-166 914.25,-160 920.25,-154 926.25,-154"/>
<text text-anchor="middle" x="976" y="-227.45" font-family="Helvetica,sans-Serif" font-weight="bold" font-size="9.00">repository</text>
</g>
<g id="clust21" class="cluster">
<title>cluster_src/views</title>
<path fill="#ffffff" stroke="black" stroke-width="2" d="M224.75,-197C224.75,-197 301,-197 301,-197 307,-197 313,-203 313,-209 313,-209 313,-271 313,-271 313,-277 307,-283 301,-283 301,-283 224.75,-283 224.75,-283 218.75,-283 212.75,-277 212.75,-271 212.75,-271 212.75,-209 212.75,-209 212.75,-203 218.75,-197 224.75,-197"/>
<text text-anchor="middle" x="262.88" y="-270.45" font-family="Helvetica,sans-Serif" font-weight="bold" font-size="9.00">views</text>
</g>
<g id="clust20" class="cluster">
<title>cluster_src/stores</title>
<path fill="#ffffff" stroke="black" stroke-width="2" d="M471,-318C471,-318 547.25,-318 547.25,-318 553.25,-318 559.25,-324 559.25,-330 559.25,-330 559.25,-392 559.25,-392 559.25,-398 553.25,-404 547.25,-404 547.25,-404 471,-404 471,-404 465,-404 459,-398 459,-392 459,-392 459,-330 459,-330 459,-324 465,-318 471,-318"/>
<text text-anchor="middle" x="509.12" y="-391.45" font-family="Helvetica,sans-Serif" font-weight="bold" font-size="9.00">stores</text>
</g>
<!-- src/App.vue -->
<g id="node1" class="node">
<title>src/App.vue</title>
<g id="a_node1"><a xlink:href="src/App.vue" xlink:title="App.vue">
<path fill="#41f083" stroke="black" d="M161.96,-210.62C161.96,-210.62 120.79,-210.62 120.79,-210.62 117.58,-210.62 114.38,-207.42 114.38,-204.21 114.38,-204.21 114.38,-197.79 114.38,-197.79 114.38,-194.58 117.58,-191.38 120.79,-191.38 120.79,-191.38 161.96,-191.38 161.96,-191.38 165.17,-191.38 168.38,-194.58 168.38,-197.79 168.38,-197.79 168.38,-204.21 168.38,-204.21 168.38,-207.42 165.17,-210.62 161.96,-210.62"/>
<text text-anchor="start" x="125.25" y="-198.07" font-family="Helvetica,sans-Serif" font-size="9.00">App.vue</text>
</a>
</g>
</g>
<!-- src/components/utils/DiagnosticsPanel.vue -->
<g id="node2" class="node">
<title>src/components/utils/DiagnosticsPanel.vue</title>
<g id="a_node2"><a xlink:href="src/components/utils/DiagnosticsPanel.vue" xlink:title="DiagnosticsPanel.vue">
<path fill="#41f083" stroke="black" d="M436.58,-192.62C436.58,-192.62 343.42,-192.62 343.42,-192.62 340.21,-192.62 337,-189.42 337,-186.21 337,-186.21 337,-179.79 337,-179.79 337,-176.58 340.21,-173.38 343.42,-173.38 343.42,-173.38 436.58,-173.38 436.58,-173.38 439.79,-173.38 443,-176.58 443,-179.79 443,-179.79 443,-186.21 443,-186.21 443,-189.42 439.79,-192.62 436.58,-192.62"/>
<text text-anchor="start" x="345" y="-180.07" font-family="Helvetica,sans-Serif" font-size="9.00">DiagnosticsPanel.vue</text>
</a>
</g>
</g>
<!-- src/App.vue&#45;&gt;src/components/utils/DiagnosticsPanel.vue -->
<g id="edge1" class="edge">
<title>src/App.vue&#45;&gt;src/components/utils/DiagnosticsPanel.vue</title>
<path fill="none" stroke="#000000" stroke-width="2" stroke-opacity="0.200000" d="M168.76,-198.14C181.96,-196.77 198.19,-195.18 212.75,-194 250.9,-190.91 293.76,-188.22 327.66,-186.27"/>
<polygon fill="#000000" fill-opacity="0.200000" stroke="#000000" stroke-width="2" stroke-opacity="0.200000" points="327.63,-188.38 333.5,-185.94 327.39,-184.18 327.63,-188.38"/>
</g>
<!-- src/views/NavBar.vue -->
<g id="node3" class="node">
<title>src/views/NavBar.vue</title>
<g id="a_node3"><a xlink:href="src/views/NavBar.vue" xlink:title="NavBar.vue">
<path fill="#41f083" stroke="black" d="M287.71,-255.62C287.71,-255.62 238.04,-255.62 238.04,-255.62 234.83,-255.62 231.62,-252.42 231.62,-249.21 231.62,-249.21 231.62,-242.79 231.62,-242.79 231.62,-239.58 234.83,-236.38 238.04,-236.38 238.04,-236.38 287.71,-236.38 287.71,-236.38 290.92,-236.38 294.12,-239.58 294.12,-242.79 294.12,-242.79 294.12,-249.21 294.12,-249.21 294.12,-252.42 290.92,-255.62 287.71,-255.62"/>
<text text-anchor="start" x="239.62" y="-243.07" font-family="Helvetica,sans-Serif" font-size="9.00">NavBar.vue</text>
</a>
</g>
</g>
<!-- src/App.vue&#45;&gt;src/views/NavBar.vue -->
<g id="edge2" class="edge">
<title>src/App.vue&#45;&gt;src/views/NavBar.vue</title>
<path fill="none" stroke="#000000" stroke-width="2" stroke-opacity="0.200000" d="M168.77,-202.46C180.77,-204.27 194.53,-208.09 204.75,-216 210.73,-220.62 206.92,-226.2 212.75,-231 215.82,-233.52 219.3,-235.62 222.97,-237.37"/>
<polygon fill="#000000" fill-opacity="0.200000" stroke="#000000" stroke-width="2" stroke-opacity="0.200000" points="222.02,-239.25 228.37,-239.53 223.58,-235.35 222.02,-239.25"/>
</g>
<!-- src/views/VideoGallery.vue -->
<g id="node4" class="node">
<title>src/views/VideoGallery.vue</title>
<g id="a_node4"><a xlink:href="src/views/VideoGallery.vue" xlink:title="VideoGallery.vue">
<path fill="#41f083" stroke="black" d="M298.58,-224.62C298.58,-224.62 227.17,-224.62 227.17,-224.62 223.96,-224.62 220.75,-221.42 220.75,-218.21 220.75,-218.21 220.75,-211.79 220.75,-211.79 220.75,-208.58 223.96,-205.38 227.17,-205.38 227.17,-205.38 298.58,-205.38 298.58,-205.38 301.79,-205.38 305,-208.58 305,-211.79 305,-211.79 305,-218.21 305,-218.21 305,-221.42 301.79,-224.62 298.58,-224.62"/>
<text text-anchor="start" x="228.75" y="-212.07" font-family="Helvetica,sans-Serif" font-size="9.00">VideoGallery.vue</text>
</a>
</g>
</g>
<!-- src/App.vue&#45;&gt;src/views/VideoGallery.vue -->
<g id="edge3" class="edge">
<title>src/App.vue&#45;&gt;src/views/VideoGallery.vue</title>
<path fill="none" stroke="#000000" stroke-width="2" stroke-opacity="0.200000" d="M168.6,-204.07C181.35,-205.57 197.11,-207.41 212.03,-209.16"/>
<polygon fill="#000000" fill-opacity="0.200000" stroke="#000000" stroke-width="2" stroke-opacity="0.200000" points="211.47,-211.21 217.67,-209.82 211.96,-207.04 211.47,-211.21"/>
</g>
<!-- src/stores/appStateStore.ts -->
<g id="node18" class="node">
<title>src/stores/appStateStore.ts</title>
<g id="a_node18"><a xlink:href="src/stores/appStateStore.ts" xlink:title="appStateStore.ts">
<path fill="#ddfeff" stroke="black" d="M544.83,-345.62C544.83,-345.62 473.42,-345.62 473.42,-345.62 470.21,-345.62 467,-342.42 467,-339.21 467,-339.21 467,-332.79 467,-332.79 467,-329.58 470.21,-326.38 473.42,-326.38 473.42,-326.38 544.83,-326.38 544.83,-326.38 548.04,-326.38 551.25,-329.58 551.25,-332.79 551.25,-332.79 551.25,-339.21 551.25,-339.21 551.25,-342.42 548.04,-345.62 544.83,-345.62"/>
<text text-anchor="start" x="475" y="-333.07" font-family="Helvetica,sans-Serif" font-size="9.00">appStateStore.ts</text>
</a>
</g>
</g>
<!-- src/components/utils/DiagnosticsPanel.vue&#45;&gt;src/stores/appStateStore.ts -->
<g id="edge15" class="edge">
<title>src/components/utils/DiagnosticsPanel.vue&#45;&gt;src/stores/appStateStore.ts</title>
<path fill="none" stroke="#000000" stroke-width="2" stroke-opacity="0.200000" d="M414.27,-193.12C427.37,-200.09 442.71,-210.7 451,-225 460.85,-241.99 447.72,-296.93 459,-313 461.19,-316.12 463.92,-318.83 466.96,-321.18"/>
<polygon fill="#000000" fill-opacity="0.200000" stroke="#000000" stroke-width="2" stroke-opacity="0.200000" points="465.78,-322.92 471.96,-324.4 468.05,-319.39 465.78,-322.92"/>
</g>
<!-- src/components/inputs/FolderSelector.vue -->
<g id="node16" class="node">
<title>src/components/inputs/FolderSelector.vue</title>
<g id="a_node16"><a xlink:href="src/components/inputs/FolderSelector.vue" xlink:title="FolderSelector.vue">
<path fill="#41f083" stroke="black" d="M429.83,-255.62C429.83,-255.62 350.17,-255.62 350.17,-255.62 346.96,-255.62 343.75,-252.42 343.75,-249.21 343.75,-249.21 343.75,-242.79 343.75,-242.79 343.75,-239.58 346.96,-236.38 350.17,-236.38 350.17,-236.38 429.83,-236.38 429.83,-236.38 433.04,-236.38 436.25,-239.58 436.25,-242.79 436.25,-242.79 436.25,-249.21 436.25,-249.21 436.25,-252.42 433.04,-255.62 429.83,-255.62"/>
<text text-anchor="start" x="351.75" y="-243.07" font-family="Helvetica,sans-Serif" font-size="9.00">FolderSelector.vue</text>
</a>
</g>
</g>
<!-- src/views/NavBar.vue&#45;&gt;src/components/inputs/FolderSelector.vue -->
<g id="edge36" class="edge">
<title>src/views/NavBar.vue&#45;&gt;src/components/inputs/FolderSelector.vue</title>
<path fill="none" stroke="#000000" stroke-width="2" stroke-opacity="0.200000" d="M294.48,-246C306.59,-246 320.88,-246 334.63,-246"/>
<polygon fill="#000000" fill-opacity="0.200000" stroke="#000000" stroke-width="2" stroke-opacity="0.200000" points="334.54,-248.1 340.54,-246 334.54,-243.9 334.54,-248.1"/>
</g>
<!-- src/stores/videosStore.ts -->
<g id="node17" class="node">
<title>src/stores/videosStore.ts</title>
<g id="a_node17"><a xlink:href="src/stores/videosStore.ts" xlink:title="videosStore.ts">
<path fill="#ddfeff" stroke="black" d="M539.96,-376.62C539.96,-376.62 478.29,-376.62 478.29,-376.62 475.08,-376.62 471.88,-373.42 471.88,-370.21 471.88,-370.21 471.88,-363.79 471.88,-363.79 471.88,-360.58 475.08,-357.38 478.29,-357.38 478.29,-357.38 539.96,-357.38 539.96,-357.38 543.17,-357.38 546.38,-360.58 546.38,-363.79 546.38,-363.79 546.38,-370.21 546.38,-370.21 546.38,-373.42 543.17,-376.62 539.96,-376.62"/>
<text text-anchor="start" x="479.88" y="-364.07" font-family="Helvetica,sans-Serif" font-size="9.00">videosStore.ts</text>
</a>
</g>
</g>
<!-- src/views/NavBar.vue&#45;&gt;src/stores/videosStore.ts -->
<g id="edge38" class="edge">
<title>src/views/NavBar.vue&#45;&gt;src/stores/videosStore.ts</title>
<path fill="none" stroke="#000000" stroke-width="2" stroke-opacity="0.200000" d="M270.38,-256.04C279.88,-269.92 298.85,-294.86 321,-309 364.84,-336.99 423.08,-352.24 462.87,-359.98"/>
<polygon fill="#000000" fill-opacity="0.200000" stroke="#000000" stroke-width="2" stroke-opacity="0.200000" points="462.31,-362.01 468.6,-361.05 463.09,-357.88 462.31,-362.01"/>
</g>
<!-- src/views/NavBar.vue&#45;&gt;src/stores/appStateStore.ts -->
<g id="edge37" class="edge">
<title>src/views/NavBar.vue&#45;&gt;src/stores/appStateStore.ts</title>
<path fill="none" stroke="#000000" stroke-width="2" stroke-opacity="0.200000" d="M275.38,-255.89C286.41,-264.92 303.88,-278.02 321,-286 365.21,-306.6 419.38,-319.9 458.05,-327.57"/>
<polygon fill="#000000" fill-opacity="0.200000" stroke="#000000" stroke-width="2" stroke-opacity="0.200000" points="457.28,-329.56 463.57,-328.64 458.08,-325.44 457.28,-329.56"/>
</g>
<!-- src/components/VideoCard.vue -->
<g id="node14" class="node">
<title>src/components/VideoCard.vue</title>
<g id="a_node14"><a xlink:href="src/components/VideoCard.vue" xlink:title="VideoCard.vue">
<path fill="#41f083" stroke="black" d="M421.58,-156.62C421.58,-156.62 358.42,-156.62 358.42,-156.62 355.21,-156.62 352,-153.42 352,-150.21 352,-150.21 352,-143.79 352,-143.79 352,-140.58 355.21,-137.38 358.42,-137.38 358.42,-137.38 421.58,-137.38 421.58,-137.38 424.79,-137.38 428,-140.58 428,-143.79 428,-143.79 428,-150.21 428,-150.21 428,-153.42 424.79,-156.62 421.58,-156.62"/>
<text text-anchor="start" x="360" y="-144.07" font-family="Helvetica,sans-Serif" font-size="9.00">VideoCard.vue</text>
</a>
</g>
</g>
<!-- src/views/VideoGallery.vue&#45;&gt;src/components/VideoCard.vue -->
<g id="edge39" class="edge">
<title>src/views/VideoGallery.vue&#45;&gt;src/components/VideoCard.vue</title>
<path fill="none" stroke="#000000" stroke-width="2" stroke-opacity="0.200000" d="M305.09,-207.21C308.01,-205.52 310.71,-203.47 313,-201 325.03,-188.03 308.58,-174.6 321,-162 326.98,-155.93 334.83,-152.06 343.06,-149.65"/>
<polygon fill="#000000" fill-opacity="0.200000" stroke="#000000" stroke-width="2" stroke-opacity="0.200000" points="343.39,-151.73 348.76,-148.32 342.44,-147.64 343.39,-151.73"/>
</g>
<!-- src/views/VideoGallery.vue&#45;&gt;src/stores/videosStore.ts -->
<g id="edge40" class="edge">
<title>src/views/VideoGallery.vue&#45;&gt;src/stores/videosStore.ts</title>
<path fill="none" stroke="#000000" stroke-width="2" stroke-opacity="0.200000" d="M305.28,-223.51C308.16,-225.29 310.8,-227.43 313,-230 329.35,-249.1 304.6,-266.94 321,-286 360.35,-331.72 408.42,-282.27 451,-325 459.83,-333.86 450.19,-343.11 459,-352 460.43,-353.44 461.99,-354.74 463.65,-355.92"/>
<polygon fill="#000000" fill-opacity="0.200000" stroke="#000000" stroke-width="2" stroke-opacity="0.200000" points="462.57,-357.72 468.83,-358.84 464.63,-354.06 462.57,-357.72"/>
</g>
<!-- src/application/index.ts -->
<g id="node5" class="node">
<title>src/application/index.ts</title>
<g id="a_node5"><a xlink:href="src/application/index.ts" xlink:title="index.ts">
<path fill="#ddfeff" stroke="black" d="M623.58,-181.62C623.58,-181.62 582.42,-181.62 582.42,-181.62 579.21,-181.62 576,-178.42 576,-175.21 576,-175.21 576,-168.79 576,-168.79 576,-165.58 579.21,-162.38 582.42,-162.38 582.42,-162.38 623.58,-162.38 623.58,-162.38 626.79,-162.38 630,-165.58 630,-168.79 630,-168.79 630,-175.21 630,-175.21 630,-178.42 626.79,-181.62 623.58,-181.62"/>
<text text-anchor="start" x="587.25" y="-169.07" font-family="Helvetica,sans-Serif" font-size="9.00">index.ts</text>
</a>
</g>
</g>
<!-- src/application/services/FiltersService.ts -->
<g id="node6" class="node">
<title>src/application/services/FiltersService.ts</title>
<g id="a_node6"><a xlink:href="src/application/services/FiltersService.ts" xlink:title="FiltersService.ts">
<path fill="#ddfeff" stroke="black" d="M733.58,-150.62C733.58,-150.62 665.17,-150.62 665.17,-150.62 661.96,-150.62 658.75,-147.42 658.75,-144.21 658.75,-144.21 658.75,-137.79 658.75,-137.79 658.75,-134.58 661.96,-131.38 665.17,-131.38 665.17,-131.38 733.58,-131.38 733.58,-131.38 736.79,-131.38 740,-134.58 740,-137.79 740,-137.79 740,-144.21 740,-144.21 740,-147.42 736.79,-150.62 733.58,-150.62"/>
<text text-anchor="start" x="666.75" y="-138.07" font-family="Helvetica,sans-Serif" font-size="9.00">FiltersService.ts</text>
</a>
</g>
</g>
<!-- src/application/index.ts&#45;&gt;src/application/services/FiltersService.ts -->
<g id="edge4" class="edge">
<title>src/application/index.ts&#45;&gt;src/application/services/FiltersService.ts</title>
<path fill="none" stroke="#000000" stroke-width="2" stroke-opacity="0.200000" d="M623.5,-162.02C628.18,-159.86 633.21,-157.71 638,-156 641.87,-154.62 645.92,-153.33 650.01,-152.11"/>
<polygon fill="#000000" fill-opacity="0.200000" stroke="#000000" stroke-width="2" stroke-opacity="0.200000" points="650.3,-154.21 655.51,-150.57 649.17,-150.17 650.3,-154.21"/>
</g>
<!-- src/application/services/VideoMetadataService.ts -->
<g id="node7" class="node">
<title>src/application/services/VideoMetadataService.ts</title>
<g id="a_node7"><a xlink:href="src/application/services/VideoMetadataService.ts" xlink:title="VideoMetadataService.ts">
<path fill="#ddfeff" stroke="black" d="M875.83,-181.62C875.83,-181.62 772.17,-181.62 772.17,-181.62 768.96,-181.62 765.75,-178.42 765.75,-175.21 765.75,-175.21 765.75,-168.79 765.75,-168.79 765.75,-165.58 768.96,-162.38 772.17,-162.38 772.17,-162.38 875.83,-162.38 875.83,-162.38 879.04,-162.38 882.25,-165.58 882.25,-168.79 882.25,-168.79 882.25,-175.21 882.25,-175.21 882.25,-178.42 879.04,-181.62 875.83,-181.62"/>
<text text-anchor="start" x="773.75" y="-169.07" font-family="Helvetica,sans-Serif" font-size="9.00">VideoMetadataService.ts</text>
</a>
</g>
</g>
<!-- src/application/index.ts&#45;&gt;src/application/services/VideoMetadataService.ts -->
<g id="edge5" class="edge">
<title>src/application/index.ts&#45;&gt;src/application/services/VideoMetadataService.ts</title>
<path fill="none" stroke="#000000" stroke-width="2" stroke-opacity="0.200000" d="M621.47,-182.01C626.63,-184.47 632.4,-186.75 638,-188 684.02,-198.29 737.85,-191.59 775.54,-183.97"/>
<polygon fill="#000000" fill-opacity="0.200000" stroke="#000000" stroke-width="2" stroke-opacity="0.200000" points="775.88,-186.04 781.32,-182.75 775.01,-181.93 775.88,-186.04"/>
</g>
<!-- src/application/services/VideoParserService.ts -->
<g id="node8" class="node">
<title>src/application/services/VideoParserService.ts</title>
<g id="a_node8"><a xlink:href="src/application/services/VideoParserService.ts" xlink:title="VideoParserService.ts">
<path fill="#ddfeff" stroke="black" d="M746.33,-181.62C746.33,-181.62 652.42,-181.62 652.42,-181.62 649.21,-181.62 646,-178.42 646,-175.21 646,-175.21 646,-168.79 646,-168.79 646,-165.58 649.21,-162.38 652.42,-162.38 652.42,-162.38 746.33,-162.38 746.33,-162.38 749.54,-162.38 752.75,-165.58 752.75,-168.79 752.75,-168.79 752.75,-175.21 752.75,-175.21 752.75,-178.42 749.54,-181.62 746.33,-181.62"/>
<text text-anchor="start" x="654" y="-169.07" font-family="Helvetica,sans-Serif" font-size="9.00">VideoParserService.ts</text>
</a>
</g>
</g>
<!-- src/application/index.ts&#45;&gt;src/application/services/VideoParserService.ts -->
<g id="edge6" class="edge">
<title>src/application/index.ts&#45;&gt;src/application/services/VideoParserService.ts</title>
<path fill="none" stroke="#000000" stroke-width="2" stroke-opacity="0.200000" d="M630.29,-172C632.39,-172 634.56,-172 636.77,-172"/>
<polygon fill="#000000" fill-opacity="0.200000" stroke="#000000" stroke-width="2" stroke-opacity="0.200000" points="636.48,-174.1 642.48,-172 636.48,-169.9 636.48,-174.1"/>
</g>
<!-- src/infrastructure/database/migrations/index.ts -->
<g id="node9" class="node">
<title>src/infrastructure/database/migrations/index.ts</title>
<g id="a_node9"><a xlink:href="src/infrastructure/database/migrations/index.ts" xlink:title="index.ts">
<path fill="#ddfeff" stroke="black" d="M1131.08,-136.62C1131.08,-136.62 1089.92,-136.62 1089.92,-136.62 1086.71,-136.62 1083.5,-133.42 1083.5,-130.21 1083.5,-130.21 1083.5,-123.79 1083.5,-123.79 1083.5,-120.58 1086.71,-117.38 1089.92,-117.38 1089.92,-117.38 1131.08,-117.38 1131.08,-117.38 1134.29,-117.38 1137.5,-120.58 1137.5,-123.79 1137.5,-123.79 1137.5,-130.21 1137.5,-130.21 1137.5,-133.42 1134.29,-136.62 1131.08,-136.62"/>
<text text-anchor="start" x="1094.75" y="-124.08" font-family="Helvetica,sans-Serif" font-size="9.00">index.ts</text>
</a>
</g>
</g>
<!-- src/application/services/VideoMetadataService.ts&#45;&gt;src/infrastructure/database/migrations/index.ts -->
<g id="edge7" class="edge">
<title>src/application/services/VideoMetadataService.ts&#45;&gt;src/infrastructure/database/migrations/index.ts</title>
<path fill="none" stroke="#000000" stroke-width="2" stroke-opacity="0.200000" d="M859.56,-161.96C873.91,-158.09 890.78,-153.9 906.25,-151 964.57,-140.07 1033.29,-133.19 1074.03,-129.72"/>
<polygon fill="#000000" fill-opacity="0.200000" stroke="#000000" stroke-width="2" stroke-opacity="0.200000" points="1074.2,-131.82 1080,-129.23 1073.85,-127.63 1074.2,-131.82"/>
</g>
<!-- src/infrastructure/repository/MetadataRepository.ts -->
<g id="node10" class="node">
<title>src/infrastructure/repository/MetadataRepository.ts</title>
<g id="a_node10"><a xlink:href="src/infrastructure/repository/MetadataRepository.ts" xlink:title="MetadataRepository.ts">
<path fill="#ddfeff" stroke="black" d="M1023.33,-181.62C1023.33,-181.62 928.67,-181.62 928.67,-181.62 925.46,-181.62 922.25,-178.42 922.25,-175.21 922.25,-175.21 922.25,-168.79 922.25,-168.79 922.25,-165.58 925.46,-162.38 928.67,-162.38 928.67,-162.38 1023.33,-162.38 1023.33,-162.38 1026.54,-162.38 1029.75,-165.58 1029.75,-168.79 1029.75,-168.79 1029.75,-175.21 1029.75,-175.21 1029.75,-178.42 1026.54,-181.62 1023.33,-181.62"/>
<text text-anchor="start" x="930.25" y="-169.07" font-family="Helvetica,sans-Serif" font-size="9.00">MetadataRepository.ts</text>
</a>
</g>
</g>
<!-- src/application/services/VideoMetadataService.ts&#45;&gt;src/infrastructure/repository/MetadataRepository.ts -->
<g id="edge8" class="edge">
<title>src/application/services/VideoMetadataService.ts&#45;&gt;src/infrastructure/repository/MetadataRepository.ts</title>
<path fill="none" stroke="#000000" stroke-width="2" stroke-opacity="0.200000" d="M882.56,-172C892.53,-172 902.94,-172 913.02,-172"/>
<polygon fill="#000000" fill-opacity="0.200000" stroke="#000000" stroke-width="2" stroke-opacity="0.200000" points="912.75,-174.1 918.75,-172 912.75,-169.9 912.75,-174.1"/>
</g>
<!-- src/infrastructure/repository/VideoRepository.ts -->
<g id="node11" class="node">
<title>src/infrastructure/repository/VideoRepository.ts</title>
<g id="a_node11"><a xlink:href="src/infrastructure/repository/VideoRepository.ts" xlink:title="VideoRepository.ts">
<path fill="#ddfeff" stroke="black" d="M1016.21,-212.62C1016.21,-212.62 935.79,-212.62 935.79,-212.62 932.58,-212.62 929.38,-209.42 929.38,-206.21 929.38,-206.21 929.38,-199.79 929.38,-199.79 929.38,-196.58 932.58,-193.38 935.79,-193.38 935.79,-193.38 1016.21,-193.38 1016.21,-193.38 1019.42,-193.38 1022.62,-196.58 1022.62,-199.79 1022.62,-199.79 1022.62,-206.21 1022.62,-206.21 1022.62,-209.42 1019.42,-212.62 1016.21,-212.62"/>
<text text-anchor="start" x="937.38" y="-200.07" font-family="Helvetica,sans-Serif" font-size="9.00">VideoRepository.ts</text>
</a>
</g>
</g>
<!-- src/application/services/VideoMetadataService.ts&#45;&gt;src/infrastructure/repository/VideoRepository.ts -->
<g id="edge9" class="edge">
<title>src/application/services/VideoMetadataService.ts&#45;&gt;src/infrastructure/repository/VideoRepository.ts</title>
<path fill="none" stroke="#000000" stroke-width="2" stroke-opacity="0.200000" d="M873.7,-182.06C888.57,-185.14 905.03,-188.54 920.27,-191.69"/>
<polygon fill="#000000" fill-opacity="0.200000" stroke="#000000" stroke-width="2" stroke-opacity="0.200000" points="919.83,-193.74 926.13,-192.9 920.68,-189.63 919.83,-193.74"/>
</g>
<!-- src/application/services/VideoParserService.ts&#45;&gt;src/application/services/VideoMetadataService.ts -->
<g id="edge10" class="edge">
<title>src/application/services/VideoParserService.ts&#45;&gt;src/application/services/VideoMetadataService.ts</title>
<path fill="none" stroke="#000000" stroke-width="2" stroke-opacity="0.200000" d="M753.09,-172C754.39,-172 755.69,-172 757,-172"/>
<polygon fill="#000000" fill-opacity="0.200000" stroke="#000000" stroke-width="2" stroke-opacity="0.200000" points="756.61,-174.1 762.61,-172 756.61,-169.9 756.61,-174.1"/>
</g>
<!-- src/infrastructure/database/migrations/migrations.ts -->
<g id="node25" class="node">
<title>src/infrastructure/database/migrations/migrations.ts</title>
<g id="a_node25"><a xlink:href="src/infrastructure/database/migrations/migrations.ts" xlink:title="migrations.ts">
<path fill="#ddfeff" stroke="black" d="M1274.71,-130.62C1274.71,-130.62 1217.54,-130.62 1217.54,-130.62 1214.33,-130.62 1211.12,-127.42 1211.12,-124.21 1211.12,-124.21 1211.12,-117.79 1211.12,-117.79 1211.12,-114.58 1214.33,-111.38 1217.54,-111.38 1217.54,-111.38 1274.71,-111.38 1274.71,-111.38 1277.92,-111.38 1281.12,-114.58 1281.12,-117.79 1281.12,-117.79 1281.12,-124.21 1281.12,-124.21 1281.12,-127.42 1277.92,-130.62 1274.71,-130.62"/>
<text text-anchor="start" x="1219.12" y="-118.08" font-family="Helvetica,sans-Serif" font-size="9.00">migrations.ts</text>
</a>
</g>
</g>
<!-- src/infrastructure/database/migrations/index.ts&#45;&gt;src/infrastructure/database/migrations/migrations.ts -->
<g id="edge19" class="edge">
<title>src/infrastructure/database/migrations/index.ts&#45;&gt;src/infrastructure/database/migrations/migrations.ts</title>
<path fill="none" stroke="#000000" stroke-width="2" stroke-opacity="0.200000" d="M1137.9,-125.81C1158.74,-124.88 1187.98,-123.57 1210.67,-122.55"/>
<polygon fill="#000000" fill-opacity="0.200000" stroke="#000000" stroke-width="2" stroke-opacity="0.200000" points="1213.47,-121.15 1217.37,-129.25 1209.27,-125.35 1213.47,-121.15"/>
</g>
<!-- src/domain/constants/index.ts -->
<g id="node19" class="node">
<title>src/domain/constants/index.ts</title>
<g id="a_node19"><a xlink:href="src/domain/constants/index.ts" xlink:title="index.ts">
<path fill="#ddfeff" stroke="black" d="M1266.71,-404.62C1266.71,-404.62 1225.54,-404.62 1225.54,-404.62 1222.33,-404.62 1219.12,-401.42 1219.12,-398.21 1219.12,-398.21 1219.12,-391.79 1219.12,-391.79 1219.12,-388.58 1222.33,-385.38 1225.54,-385.38 1225.54,-385.38 1266.71,-385.38 1266.71,-385.38 1269.92,-385.38 1273.12,-388.58 1273.12,-391.79 1273.12,-391.79 1273.12,-398.21 1273.12,-398.21 1273.12,-401.42 1269.92,-404.62 1266.71,-404.62"/>
<text text-anchor="start" x="1230.38" y="-392.07" font-family="Helvetica,sans-Serif" font-size="9.00">index.ts</text>
</a>
</g>
</g>
<!-- src/infrastructure/repository/MetadataRepository.ts&#45;&gt;src/domain/constants/index.ts -->
<g id="edge24" class="edge">
<title>src/infrastructure/repository/MetadataRepository.ts&#45;&gt;src/domain/constants/index.ts</title>
<path fill="none" stroke="#000000" stroke-width="2" stroke-opacity="0.200000" d="M1030.2,-180.48C1033,-182.29 1035.55,-184.45 1037.75,-187 1050.41,-201.72 1036.19,-257.1 1045.75,-274 1078.73,-332.25 1117.74,-317.95 1167.25,-363 1171.21,-366.6 1170.78,-369.06 1175.25,-372 1185.71,-378.87 1198.41,-383.85 1210.09,-387.38"/>
<polygon fill="#000000" fill-opacity="0.200000" stroke="#000000" stroke-width="2" stroke-opacity="0.200000" points="1209.51,-389.4 1215.86,-388.99 1210.64,-385.36 1209.51,-389.4"/>
</g>
<!-- src/domain/entities/Metadata.ts -->
<g id="node20" class="node">
<title>src/domain/entities/Metadata.ts</title>
<g id="a_node20"><a xlink:href="src/domain/entities/Metadata.ts" xlink:title="Metadata.ts">
<path fill="#ddfeff" stroke="black" d="M1381.83,-341.62C1381.83,-341.62 1331.42,-341.62 1331.42,-341.62 1328.21,-341.62 1325,-338.42 1325,-335.21 1325,-335.21 1325,-328.79 1325,-328.79 1325,-325.58 1328.21,-322.38 1331.42,-322.38 1331.42,-322.38 1381.83,-322.38 1381.83,-322.38 1385.04,-322.38 1388.25,-325.58 1388.25,-328.79 1388.25,-328.79 1388.25,-335.21 1388.25,-335.21 1388.25,-338.42 1385.04,-341.62 1381.83,-341.62"/>
<text text-anchor="start" x="1333" y="-329.07" font-family="Helvetica,sans-Serif" font-size="9.00">Metadata.ts</text>
</a>
</g>
</g>
<!-- src/infrastructure/repository/MetadataRepository.ts&#45;&gt;src/domain/entities/Metadata.ts -->
<g id="edge25" class="edge">
<title>src/infrastructure/repository/MetadataRepository.ts&#45;&gt;src/domain/entities/Metadata.ts</title>
<path fill="none" stroke="#000000" stroke-opacity="0.200000" d="M1030.03,-180.22C1032.91,-182.09 1035.53,-184.33 1037.75,-187 1056.97,-210.1 1032.51,-295.02 1045.75,-322 1079.41,-390.57 1103.73,-408.18 1175.25,-435 1203.08,-445.44 1287.05,-455.04 1309,-435 1323.5,-421.76 1305.19,-362.69 1317,-347 1317.65,-346.14 1318.35,-345.33 1319.11,-344.56"/>
<polygon fill="none" stroke="#000000" stroke-opacity="0.200000" points="1320.09,-346.46 1323.49,-341.09 1317.48,-343.17 1320.09,-346.46"/>
</g>
<!-- src/domain/repositories/IMetadataRepository.ts -->
<g id="node22" class="node">
<title>src/domain/repositories/IMetadataRepository.ts</title>
<g id="a_node22"><a xlink:href="src/domain/repositories/IMetadataRepository.ts" xlink:title="IMetadataRepository.ts">
<path fill="#ddfeff" stroke="black" d="M1294.58,-310.62C1294.58,-310.62 1197.67,-310.62 1197.67,-310.62 1194.46,-310.62 1191.25,-307.42 1191.25,-304.21 1191.25,-304.21 1191.25,-297.79 1191.25,-297.79 1191.25,-294.58 1194.46,-291.38 1197.67,-291.38 1197.67,-291.38 1294.58,-291.38 1294.58,-291.38 1297.79,-291.38 1301,-294.58 1301,-297.79 1301,-297.79 1301,-304.21 1301,-304.21 1301,-307.42 1297.79,-310.62 1294.58,-310.62"/>
<text text-anchor="start" x="1199.25" y="-298.07" font-family="Helvetica,sans-Serif" font-size="9.00">IMetadataRepository.ts</text>
</a>
</g>
</g>
<!-- src/infrastructure/repository/MetadataRepository.ts&#45;&gt;src/domain/repositories/IMetadataRepository.ts -->
<g id="edge26" class="edge">
<title>src/infrastructure/repository/MetadataRepository.ts&#45;&gt;src/domain/repositories/IMetadataRepository.ts</title>
<path fill="none" stroke="#000000" stroke-opacity="0.200000" d="M1030.06,-180.61C1032.89,-182.39 1035.49,-184.5 1037.75,-187 1054.62,-205.65 1029.27,-224.01 1045.75,-243 1079.77,-282.2 1138.59,-295.65 1183.55,-299.92"/>
<polygon fill="none" stroke="#000000" stroke-opacity="0.200000" points="1183.26,-302 1189.42,-300.42 1183.62,-297.82 1183.26,-302"/>
</g>
<!-- src/infrastructure/database/DatabaseConnection.ts -->
<g id="node24" class="node">
<title>src/infrastructure/database/DatabaseConnection.ts</title>
<g id="a_node24"><a xlink:href="src/infrastructure/database/DatabaseConnection.ts" xlink:title="DatabaseConnection.ts">
<path fill="#ddfeff" stroke="black" d="M1160.83,-212.62C1160.83,-212.62 1060.17,-212.62 1060.17,-212.62 1056.96,-212.62 1053.75,-209.42 1053.75,-206.21 1053.75,-206.21 1053.75,-199.79 1053.75,-199.79 1053.75,-196.58 1056.96,-193.38 1060.17,-193.38 1060.17,-193.38 1160.83,-193.38 1160.83,-193.38 1164.04,-193.38 1167.25,-196.58 1167.25,-199.79 1167.25,-199.79 1167.25,-206.21 1167.25,-206.21 1167.25,-209.42 1164.04,-212.62 1160.83,-212.62"/>
<text text-anchor="start" x="1061.75" y="-200.07" font-family="Helvetica,sans-Serif" font-size="9.00">DatabaseConnection.ts</text>
</a>
</g>
</g>
<!-- src/infrastructure/repository/MetadataRepository.ts&#45;&gt;src/infrastructure/database/DatabaseConnection.ts -->
<g id="edge27" class="edge">
<title>src/infrastructure/repository/MetadataRepository.ts&#45;&gt;src/infrastructure/database/DatabaseConnection.ts</title>
<path fill="none" stroke="#000000" stroke-width="2" stroke-opacity="0.200000" d="M1020.02,-182.06C1032.05,-184.88 1045.26,-187.97 1057.74,-190.89"/>
<polygon fill="#000000" fill-opacity="0.200000" stroke="#000000" stroke-width="2" stroke-opacity="0.200000" points="1056.98,-192.87 1063.3,-192.19 1057.93,-188.78 1056.98,-192.87"/>
</g>
<!-- src/infrastructure/repository/VideoRepository.ts&#45;&gt;src/domain/constants/index.ts -->
<g id="edge28" class="edge">
<title>src/infrastructure/repository/VideoRepository.ts&#45;&gt;src/domain/constants/index.ts</title>
<path fill="none" stroke="#000000" stroke-width="2" stroke-opacity="0.200000" d="M982.05,-212.9C992.07,-231.78 1016.09,-273.41 1045.75,-300 1094.76,-343.94 1167.7,-371.67 1210.43,-385.17"/>
<polygon fill="#000000" fill-opacity="0.200000" stroke="#000000" stroke-width="2" stroke-opacity="0.200000" points="1209.57,-387.1 1215.92,-386.86 1210.81,-383.09 1209.57,-387.1"/>
</g>
<!-- src/domain/entities/Video.ts -->
<g id="node21" class="node">
<title>src/domain/entities/Video.ts</title>
<g id="a_node21"><a xlink:href="src/domain/entities/Video.ts" xlink:title="Video.ts">
<path fill="#ddfeff" stroke="black" d="M1377.21,-372.62C1377.21,-372.62 1336.04,-372.62 1336.04,-372.62 1332.83,-372.62 1329.62,-369.42 1329.62,-366.21 1329.62,-366.21 1329.62,-359.79 1329.62,-359.79 1329.62,-356.58 1332.83,-353.38 1336.04,-353.38 1336.04,-353.38 1377.21,-353.38 1377.21,-353.38 1380.42,-353.38 1383.62,-356.58 1383.62,-359.79 1383.62,-359.79 1383.62,-366.21 1383.62,-366.21 1383.62,-369.42 1380.42,-372.62 1377.21,-372.62"/>
<text text-anchor="start" x="1340.12" y="-360.07" font-family="Helvetica,sans-Serif" font-size="9.00">Video.ts</text>
</a>
</g>
</g>
<!-- src/infrastructure/repository/VideoRepository.ts&#45;&gt;src/domain/entities/Video.ts -->
<g id="edge29" class="edge">
<title>src/infrastructure/repository/VideoRepository.ts&#45;&gt;src/domain/entities/Video.ts</title>
<path fill="none" stroke="#000000" stroke-opacity="0.200000" d="M980.44,-212.96C988.89,-236.49 1012.43,-296.62 1045.75,-338 1092.4,-395.93 1105.2,-418.99 1175.25,-444 1231.23,-463.99 1257.54,-473.76 1309,-444 1332.69,-430.3 1345.4,-399.51 1351.32,-380.08"/>
<polygon fill="none" stroke="#000000" stroke-opacity="0.200000" points="1353.29,-380.82 1352.91,-374.47 1349.25,-379.67 1353.29,-380.82"/>
</g>
<!-- src/domain/repositories/IVideoRepository.ts -->
<g id="node23" class="node">
<title>src/domain/repositories/IVideoRepository.ts</title>
<g id="a_node23"><a xlink:href="src/domain/repositories/IVideoRepository.ts" xlink:title="IVideoRepository.ts">
<path fill="#ddfeff" stroke="black" d="M1287.46,-341.62C1287.46,-341.62 1204.79,-341.62 1204.79,-341.62 1201.58,-341.62 1198.38,-338.42 1198.38,-335.21 1198.38,-335.21 1198.38,-328.79 1198.38,-328.79 1198.38,-325.58 1201.58,-322.38 1204.79,-322.38 1204.79,-322.38 1287.46,-322.38 1287.46,-322.38 1290.67,-322.38 1293.88,-325.58 1293.88,-328.79 1293.88,-328.79 1293.88,-335.21 1293.88,-335.21 1293.88,-338.42 1290.67,-341.62 1287.46,-341.62"/>
<text text-anchor="start" x="1206.38" y="-329.07" font-family="Helvetica,sans-Serif" font-size="9.00">IVideoRepository.ts</text>
</a>
</g>
</g>
<!-- src/infrastructure/repository/VideoRepository.ts&#45;&gt;src/domain/repositories/IVideoRepository.ts -->
<g id="edge30" class="edge">
<title>src/infrastructure/repository/VideoRepository.ts&#45;&gt;src/domain/repositories/IVideoRepository.ts</title>
<path fill="none" stroke="#000000" stroke-opacity="0.200000" d="M984.1,-212.95C995.46,-228.19 1019.16,-257.29 1045.75,-274 1090.33,-302.01 1148.93,-316.94 1191.05,-324.6"/>
<polygon fill="none" stroke="#000000" stroke-opacity="0.200000" points="1190.43,-326.62 1196.7,-325.59 1191.16,-322.48 1190.43,-326.62"/>
</g>
<!-- src/infrastructure/repository/VideoRepository.ts&#45;&gt;src/infrastructure/database/DatabaseConnection.ts -->
<g id="edge31" class="edge">
<title>src/infrastructure/repository/VideoRepository.ts&#45;&gt;src/infrastructure/database/DatabaseConnection.ts</title>
<path fill="none" stroke="#000000" stroke-width="2" stroke-opacity="0.200000" d="M1022.97,-203C1030.06,-203 1037.5,-203 1044.9,-203"/>
<polygon fill="#000000" fill-opacity="0.200000" stroke="#000000" stroke-width="2" stroke-opacity="0.200000" points="1044.54,-205.1 1050.54,-203 1044.54,-200.9 1044.54,-205.1"/>
</g>
<!-- src/assets/effects/FadeTransition.vue -->
<g id="node12" class="node">
<title>src/assets/effects/FadeTransition.vue</title>
<g id="a_node12"><a xlink:href="src/assets/effects/FadeTransition.vue" xlink:title="no&#45;orphans">
<path fill="#ccffcc" stroke="orange" d="M182.33,-282.62C182.33,-282.62 100.42,-282.62 100.42,-282.62 97.21,-282.62 94,-279.42 94,-276.21 94,-276.21 94,-269.79 94,-269.79 94,-266.58 97.21,-263.38 100.42,-263.38 100.42,-263.38 182.33,-263.38 182.33,-263.38 185.54,-263.38 188.75,-266.58 188.75,-269.79 188.75,-269.79 188.75,-276.21 188.75,-276.21 188.75,-279.42 185.54,-282.62 182.33,-282.62"/>
<text text-anchor="start" x="102" y="-270.07" font-family="Helvetica,sans-Serif" font-size="9.00" fill="orange">FadeTransition.vue</text>
</a>
</g>
</g>
<!-- src/assets/main.css -->
<g id="node13" class="node">
<title>src/assets/main.css</title>
<g id="a_node13"><a xlink:href="src/assets/main.css" xlink:title="main.css">
<path fill="#ffffcc" stroke="black" d="M162.08,-246.62C162.08,-246.62 120.67,-246.62 120.67,-246.62 117.46,-246.62 114.25,-243.42 114.25,-240.21 114.25,-240.21 114.25,-233.79 114.25,-233.79 114.25,-230.58 117.46,-227.38 120.67,-227.38 120.67,-227.38 162.08,-227.38 162.08,-227.38 165.29,-227.38 168.5,-230.58 168.5,-233.79 168.5,-233.79 168.5,-240.21 168.5,-240.21 168.5,-243.42 165.29,-246.62 162.08,-246.62"/>
<text text-anchor="start" x="122.25" y="-234.07" font-family="Helvetica,sans-Serif" font-size="9.00">main.css</text>
</a>
</g>
</g>
<!-- src/components/VideoCard.vue&#45;&gt;src/application/index.ts -->
<g id="edge12" class="edge">
<title>src/components/VideoCard.vue&#45;&gt;src/application/index.ts</title>
<path fill="none" stroke="#000000" stroke-width="2" stroke-opacity="0.200000" d="M428.43,-144.71C463.02,-143.49 515.61,-143.93 560,-154 564.84,-155.1 569.81,-156.73 574.58,-158.58"/>
<polygon fill="#000000" fill-opacity="0.200000" stroke="#000000" stroke-width="2" stroke-opacity="0.200000" points="573.7,-160.49 580.05,-160.88 575.33,-156.61 573.7,-160.49"/>
</g>
<!-- src/components/VideoEmbed.vue -->
<g id="node15" class="node">
<title>src/components/VideoEmbed.vue</title>
<g id="a_node15"><a xlink:href="src/components/VideoEmbed.vue" xlink:title="VideoEmbed.vue">
<path fill="#41f083" stroke="black" d="M545.58,-179.62C545.58,-179.62 472.67,-179.62 472.67,-179.62 469.46,-179.62 466.25,-176.42 466.25,-173.21 466.25,-173.21 466.25,-166.79 466.25,-166.79 466.25,-163.58 469.46,-160.38 472.67,-160.38 472.67,-160.38 545.58,-160.38 545.58,-160.38 548.79,-160.38 552,-163.58 552,-166.79 552,-166.79 552,-173.21 552,-173.21 552,-176.42 548.79,-179.62 545.58,-179.62"/>
<text text-anchor="start" x="474.25" y="-167.07" font-family="Helvetica,sans-Serif" font-size="9.00">VideoEmbed.vue</text>
</a>
</g>
</g>
<!-- src/components/VideoCard.vue&#45;&gt;src/components/VideoEmbed.vue -->
<g id="edge11" class="edge">
<title>src/components/VideoCard.vue&#45;&gt;src/components/VideoEmbed.vue</title>
<path fill="none" stroke="#000000" stroke-width="2" stroke-opacity="0.200000" d="M428.38,-154.34C437.5,-156.13 447.42,-158.08 457.06,-159.97"/>
<polygon fill="#000000" fill-opacity="0.200000" stroke="#000000" stroke-width="2" stroke-opacity="0.200000" points="456.55,-162.01 462.84,-161.11 457.35,-157.89 456.55,-162.01"/>
</g>
<!-- src/components/inputs/FolderSelector.vue&#45;&gt;src/application/index.ts -->
<g id="edge13" class="edge">
<title>src/components/inputs/FolderSelector.vue&#45;&gt;src/application/index.ts</title>
<path fill="none" stroke="#000000" stroke-width="2" stroke-opacity="0.200000" d="M436.56,-245.53C472.08,-243.43 521.66,-236.56 560,-216 572.04,-209.54 582.64,-198.37 590.18,-188.9"/>
<polygon fill="#000000" fill-opacity="0.200000" stroke="#000000" stroke-width="2" stroke-opacity="0.200000" points="591.78,-190.27 593.72,-184.21 588.43,-187.74 591.78,-190.27"/>
</g>
<!-- src/components/inputs/FolderSelector.vue&#45;&gt;src/stores/videosStore.ts -->
<g id="edge14" class="edge">
<title>src/components/inputs/FolderSelector.vue&#45;&gt;src/stores/videosStore.ts</title>
<path fill="none" stroke="#000000" stroke-width="2" stroke-opacity="0.200000" d="M402.16,-255.71C415.84,-268.24 438.69,-291.38 451,-316 458.33,-330.66 447.87,-339.97 459,-352 460.54,-353.66 462.25,-355.14 464.09,-356.46"/>
<polygon fill="#000000" fill-opacity="0.200000" stroke="#000000" stroke-width="2" stroke-opacity="0.200000" points="462.83,-358.16 469.09,-359.28 464.9,-354.5 462.83,-358.16"/>
</g>
<!-- src/stores/videosStore.ts&#45;&gt;src/application/index.ts -->
<g id="edge35" class="edge">
<title>src/stores/videosStore.ts&#45;&gt;src/application/index.ts</title>
<path fill="none" stroke="#000000" stroke-width="2" stroke-opacity="0.200000" d="M546.79,-360.93C551.73,-358.78 556.35,-355.89 560,-352 581.96,-328.61 595.24,-231.93 600,-190.73"/>
<polygon fill="#000000" fill-opacity="0.200000" stroke="#000000" stroke-width="2" stroke-opacity="0.200000" points="602.07,-191.16 600.65,-184.97 597.89,-190.7 602.07,-191.16"/>
</g>
<!-- src/domain/repositories/IMetadataRepository.ts&#45;&gt;src/domain/entities/Metadata.ts -->
<g id="edge16" class="edge">
<title>src/domain/repositories/IMetadataRepository.ts&#45;&gt;src/domain/entities/Metadata.ts</title>
<path fill="none" stroke="#000000" stroke-opacity="0.200000" d="M1290.87,-311.07C1296.98,-312.63 1303.16,-314.3 1309,-316 1312.8,-317.11 1316.75,-318.34 1320.67,-319.61"/>
<polygon fill="none" stroke="#000000" stroke-opacity="0.200000" points="1319.86,-321.56 1326.22,-321.45 1321.18,-317.57 1319.86,-321.56"/>
</g>
<!-- src/domain/repositories/IVideoRepository.ts&#45;&gt;src/domain/entities/Video.ts -->
<g id="edge17" class="edge">
<title>src/domain/repositories/IVideoRepository.ts&#45;&gt;src/domain/entities/Video.ts</title>
<path fill="none" stroke="#000000" stroke-opacity="0.200000" d="M1282.35,-342.06C1295.08,-345.7 1309.4,-349.79 1321.98,-353.39"/>
<polygon fill="none" stroke="#000000" stroke-opacity="0.200000" points="1321.37,-355.4 1327.71,-355.03 1322.52,-351.36 1321.37,-355.4"/>
</g>
<!-- src/infrastructure/database/DatabaseConnection.ts&#45;&gt;src/domain/constants/index.ts -->
<g id="edge18" class="edge">
<title>src/infrastructure/database/DatabaseConnection.ts&#45;&gt;src/domain/constants/index.ts</title>
<path fill="none" stroke="#000000" stroke-width="2" stroke-opacity="0.200000" d="M1116.78,-212.91C1127.75,-233.91 1153.19,-284.7 1167.25,-330 1172.88,-348.15 1162.71,-357.72 1175.25,-372 1184.15,-382.14 1197.6,-387.82 1210.33,-391.01"/>
<polygon fill="#000000" fill-opacity="0.200000" stroke="#000000" stroke-width="2" stroke-opacity="0.200000" points="1209.7,-393.02 1216.01,-392.21 1210.57,-388.91 1209.7,-393.02"/>
</g>
<!-- src/infrastructure/database/migrations/v1/index.ts -->
<g id="node26" class="node">
<title>src/infrastructure/database/migrations/v1/index.ts</title>
<g id="a_node26"><a xlink:href="src/infrastructure/database/migrations/v1/index.ts" xlink:title="index.ts">
<path fill="#ddfeff" stroke="black" d="M1377.21,-67.62C1377.21,-67.62 1336.04,-67.62 1336.04,-67.62 1332.83,-67.62 1329.62,-64.42 1329.62,-61.21 1329.62,-61.21 1329.62,-54.79 1329.62,-54.79 1329.62,-51.58 1332.83,-48.38 1336.04,-48.38 1336.04,-48.38 1377.21,-48.38 1377.21,-48.38 1380.42,-48.38 1383.62,-51.58 1383.62,-54.79 1383.62,-54.79 1383.62,-61.21 1383.62,-61.21 1383.62,-64.42 1380.42,-67.62 1377.21,-67.62"/>
<text text-anchor="start" x="1340.88" y="-55.08" font-family="Helvetica,sans-Serif" font-size="9.00">index.ts</text>
</a>
</g>
</g>
<!-- src/infrastructure/database/migrations/migrations.ts&#45;&gt;src/infrastructure/database/migrations/v1/index.ts -->
<g id="edge20" class="edge">
<title>src/infrastructure/database/migrations/migrations.ts&#45;&gt;src/infrastructure/database/migrations/v1/index.ts</title>
<path fill="none" stroke="#000000" stroke-width="2" stroke-opacity="0.200000" d="M1264.56,-110.88C1282.43,-100.5 1310.4,-84.26 1330.63,-72.51"/>
<polygon fill="#000000" fill-opacity="0.200000" stroke="#000000" stroke-width="2" stroke-opacity="0.200000" points="1331.48,-74.45 1335.62,-69.62 1329.37,-70.81 1331.48,-74.45"/>
</g>
<!-- src/infrastructure/database/migrations/v2/index.ts -->
<g id="node27" class="node">
<title>src/infrastructure/database/migrations/v2/index.ts</title>
<g id="a_node27"><a xlink:href="src/infrastructure/database/migrations/v2/index.ts" xlink:title="index.ts">
<path fill="#ddfeff" stroke="black" d="M1377.21,-130.62C1377.21,-130.62 1336.04,-130.62 1336.04,-130.62 1332.83,-130.62 1329.62,-127.42 1329.62,-124.21 1329.62,-124.21 1329.62,-117.79 1329.62,-117.79 1329.62,-114.58 1332.83,-111.38 1336.04,-111.38 1336.04,-111.38 1377.21,-111.38 1377.21,-111.38 1380.42,-111.38 1383.62,-114.58 1383.62,-117.79 1383.62,-117.79 1383.62,-124.21 1383.62,-124.21 1383.62,-127.42 1380.42,-130.62 1377.21,-130.62"/>
<text text-anchor="start" x="1340.88" y="-118.08" font-family="Helvetica,sans-Serif" font-size="9.00">index.ts</text>
</a>
</g>
</g>
<!-- src/infrastructure/database/migrations/migrations.ts&#45;&gt;src/infrastructure/database/migrations/v2/index.ts -->
<g id="edge21" class="edge">
<title>src/infrastructure/database/migrations/migrations.ts&#45;&gt;src/infrastructure/database/migrations/v2/index.ts</title>
<path fill="none" stroke="#000000" stroke-width="2" stroke-opacity="0.200000" d="M1281.46,-121C1293.94,-121 1308.07,-121 1320.62,-121"/>
<polygon fill="#000000" fill-opacity="0.200000" stroke="#000000" stroke-width="2" stroke-opacity="0.200000" points="1320.4,-123.1 1326.4,-121 1320.4,-118.9 1320.4,-123.1"/>
</g>
<!-- src/infrastructure/database/migrations/utils/index.ts -->
<g id="node28" class="node">
<title>src/infrastructure/database/migrations/utils/index.ts</title>
<g id="a_node28"><a xlink:href="src/infrastructure/database/migrations/utils/index.ts" xlink:title="index.ts">
<path fill="#ddfeff" stroke="black" d="M1467.83,-98.62C1467.83,-98.62 1426.67,-98.62 1426.67,-98.62 1423.46,-98.62 1420.25,-95.42 1420.25,-92.21 1420.25,-92.21 1420.25,-85.79 1420.25,-85.79 1420.25,-82.58 1423.46,-79.38 1426.67,-79.38 1426.67,-79.38 1467.83,-79.38 1467.83,-79.38 1471.04,-79.38 1474.25,-82.58 1474.25,-85.79 1474.25,-85.79 1474.25,-92.21 1474.25,-92.21 1474.25,-95.42 1471.04,-98.62 1467.83,-98.62"/>
<text text-anchor="start" x="1431.5" y="-86.08" font-family="Helvetica,sans-Serif" font-size="9.00">index.ts</text>
</a>
</g>
</g>
<!-- src/infrastructure/database/migrations/v1/index.ts&#45;&gt;src/infrastructure/database/migrations/utils/index.ts -->
<g id="edge22" class="edge">
<title>src/infrastructure/database/migrations/v1/index.ts&#45;&gt;src/infrastructure/database/migrations/utils/index.ts</title>
<path fill="none" stroke="#000000" stroke-width="2" stroke-opacity="0.200000" d="M1383.74,-67.13C1392.49,-70.2 1402.4,-73.66 1411.7,-76.91"/>
<polygon fill="#000000" fill-opacity="0.200000" stroke="#000000" stroke-width="2" stroke-opacity="0.200000" points="1410.81,-78.83 1417.16,-78.83 1412.19,-74.86 1410.81,-78.83"/>
</g>
<!-- src/infrastructure/database/migrations/v2/index.ts&#45;&gt;src/infrastructure/database/migrations/utils/index.ts -->
<g id="edge23" class="edge">
<title>src/infrastructure/database/migrations/v2/index.ts&#45;&gt;src/infrastructure/database/migrations/utils/index.ts</title>
<path fill="none" stroke="#000000" stroke-width="2" stroke-opacity="0.200000" d="M1383.74,-111.57C1392.49,-108.41 1402.4,-104.83 1411.7,-101.48"/>
<polygon fill="#000000" fill-opacity="0.200000" stroke="#000000" stroke-width="2" stroke-opacity="0.200000" points="1412.24,-103.51 1417.17,-99.5 1410.82,-99.56 1412.24,-103.51"/>
</g>
<!-- src/main.ts -->
<g id="node29" class="node">
<title>src/main.ts</title>
<g id="a_node29"><a xlink:href="src/main.ts" xlink:title="main.ts">
<path fill="#ddfeff" stroke="black" d="M63.58,-210.62C63.58,-210.62 22.42,-210.62 22.42,-210.62 19.21,-210.62 16,-207.42 16,-204.21 16,-204.21 16,-197.79 16,-197.79 16,-194.58 19.21,-191.38 22.42,-191.38 22.42,-191.38 63.58,-191.38 63.58,-191.38 66.79,-191.38 70,-194.58 70,-197.79 70,-197.79 70,-204.21 70,-204.21 70,-207.42 66.79,-210.62 63.58,-210.62"/>
<text text-anchor="start" x="27.62" y="-198.07" font-family="Helvetica,sans-Serif" font-size="9.00">main.ts</text>
</a>
</g>
</g>
<!-- src/main.ts&#45;&gt;src/App.vue -->
<g id="edge32" class="edge">
<title>src/main.ts&#45;&gt;src/App.vue</title>
<path fill="none" stroke="#000000" stroke-width="2" stroke-opacity="0.200000" d="M70.33,-201C81.07,-201 93.63,-201 105.13,-201"/>
<polygon fill="#000000" fill-opacity="0.200000" stroke="#000000" stroke-width="2" stroke-opacity="0.200000" points="105.04,-203.1 111.04,-201 105.04,-198.9 105.04,-203.1"/>
</g>
<!-- src/main.ts&#45;&gt;src/application/index.ts -->
<g id="edge34" class="edge">
<title>src/main.ts&#45;&gt;src/application/index.ts</title>
<path fill="none" stroke="#000000" stroke-width="2" stroke-opacity="0.200000" d="M59.39,-190.91C94.02,-169.19 181.37,-120 261.88,-120 261.88,-120 261.88,-120 391,-120 466.16,-120 491.78,-94.45 560,-126 573.14,-132.08 584.02,-144.38 591.42,-154.73"/>
<polygon fill="#000000" fill-opacity="0.200000" stroke="#000000" stroke-width="2" stroke-opacity="0.200000" points="589.6,-155.8 594.69,-159.62 593.09,-153.46 589.6,-155.8"/>
</g>
<!-- src/main.ts&#45;&gt;src/assets/main.css -->
<g id="edge33" class="edge">
<title>src/main.ts&#45;&gt;src/assets/main.css</title>
<path fill="none" stroke="#000000" stroke-width="2" stroke-opacity="0.200000" d="M56.96,-210.93C63.06,-215.19 70.61,-219.9 78,-223 86.52,-226.58 96.09,-229.31 105.14,-231.37"/>
<polygon fill="#000000" fill-opacity="0.200000" stroke="#000000" stroke-width="2" stroke-opacity="0.200000" points="104.68,-233.41 110.98,-232.59 105.54,-229.3 104.68,-233.41"/>
</g>
</g>
</svg>
