<?xml version="1.0" encoding="UTF-8" standalone="no"?>
<!DOCTYPE svg PUBLIC "-//W3C//DTD SVG 1.1//EN"
 "http://www.w3.org/Graphics/SVG/1.1/DTD/svg11.dtd">
<!-- Generated by graphviz version 9.0.0 (20230911.1827)
 -->
<!-- Title: dependency&#45;cruiser output Pages: 1 -->
<svg width="1883pt" height="615pt"
 viewBox="0.00 0.00 1882.88 615.00" xmlns="http://www.w3.org/2000/svg" xmlns:xlink="http://www.w3.org/1999/xlink">
<g id="graph0" class="graph" transform="scale(1 1) rotate(0) translate(4 611)">
<title>dependency&#45;cruiser output</title>
<polygon fill="white" stroke="none" points="-4,4 -4,-611 1878.88,-611 1878.88,4 -4,4"/>
<g id="clust1" class="cluster">
<title>cluster_src</title>
<path fill="#ffffff" stroke="black" stroke-width="2" d="M20,-8C20,-8 1854.88,-8 1854.88,-8 1860.88,-8 1866.88,-14 1866.88,-20 1866.88,-20 1866.88,-587 1866.88,-587 1866.88,-593 1860.88,-599 1854.88,-599 1854.88,-599 20,-599 20,-599 14,-599 8,-593 8,-587 8,-587 8,-20 8,-20 8,-14 14,-8 20,-8"/>
<text text-anchor="middle" x="937.44" y="-586.45" font-family="Helvetica,sans-Serif" font-weight="bold" font-size="9.00">src</text>
</g>
<g id="clust2" class="cluster">
<title>cluster_src/application</title>
<path fill="#ffffff" stroke="black" stroke-width="2" d="M512.25,-282C512.25,-282 680.75,-282 680.75,-282 686.75,-282 692.75,-288 692.75,-294 692.75,-294 692.75,-422 692.75,-422 692.75,-428 686.75,-434 680.75,-434 680.75,-434 512.25,-434 512.25,-434 506.25,-434 500.25,-428 500.25,-422 500.25,-422 500.25,-294 500.25,-294 500.25,-288 506.25,-282 512.25,-282"/>
<text text-anchor="middle" x="596.5" y="-421.45" font-family="Helvetica,sans-Serif" font-weight="bold" font-size="9.00">application</text>
</g>
<g id="clust3" class="cluster">
<title>cluster_src/application/services</title>
<path fill="#ffffff" stroke="black" stroke-width="2" d="M582.25,-290C582.25,-290 672.75,-290 672.75,-290 678.75,-290 684.75,-296 684.75,-302 684.75,-302 684.75,-395 684.75,-395 684.75,-401 678.75,-407 672.75,-407 672.75,-407 582.25,-407 582.25,-407 576.25,-407 570.25,-401 570.25,-395 570.25,-395 570.25,-302 570.25,-302 570.25,-296 576.25,-290 582.25,-290"/>
<text text-anchor="middle" x="627.5" y="-394.45" font-family="Helvetica,sans-Serif" font-weight="bold" font-size="9.00">services</text>
</g>
<g id="clust4" class="cluster">
<title>cluster_src/components</title>
<path fill="#ffffff" stroke="black" stroke-width="2" d="M265.25,-245C265.25,-245 480.25,-245 480.25,-245 486.25,-245 492.25,-251 492.25,-257 492.25,-257 492.25,-414 492.25,-414 492.25,-420 486.25,-426 480.25,-426 480.25,-426 265.25,-426 265.25,-426 259.25,-426 253.25,-420 253.25,-414 253.25,-414 253.25,-257 253.25,-257 253.25,-251 259.25,-245 265.25,-245"/>
<text text-anchor="middle" x="372.75" y="-413.45" font-family="Helvetica,sans-Serif" font-weight="bold" font-size="9.00">components</text>
</g>
<g id="clust5" class="cluster">
<title>cluster_src/components/inputs</title>
<path fill="#ffffff" stroke="black" stroke-width="2" d="M292.38,-344C292.38,-344 352.12,-344 352.12,-344 358.12,-344 364.12,-350 364.12,-356 364.12,-356 364.12,-387 364.12,-387 364.12,-393 358.12,-399 352.12,-399 352.12,-399 292.38,-399 292.38,-399 286.38,-399 280.38,-393 280.38,-387 280.38,-387 280.38,-356 280.38,-356 280.38,-350 286.38,-344 292.38,-344"/>
<text text-anchor="middle" x="322.25" y="-386.45" font-family="Helvetica,sans-Serif" font-weight="bold" font-size="9.00">inputs</text>
</g>
<g id="clust6" class="cluster">
<title>cluster_src/components/utils</title>
<path fill="#ffffff" stroke="black" stroke-width="2" d="M273.25,-281C273.25,-281 371.25,-281 371.25,-281 377.25,-281 383.25,-287 383.25,-293 383.25,-293 383.25,-324 383.25,-324 383.25,-330 377.25,-336 371.25,-336 371.25,-336 273.25,-336 273.25,-336 267.25,-336 261.25,-330 261.25,-324 261.25,-324 261.25,-293 261.25,-293 261.25,-287 267.25,-281 273.25,-281"/>
<text text-anchor="middle" x="322.25" y="-323.45" font-family="Helvetica,sans-Serif" font-weight="bold" font-size="9.00">utils</text>
</g>
<g id="clust7" class="cluster">
<title>cluster_src/domain</title>
<path fill="#ffffff" stroke="black" stroke-width="2" d="M1157.25,-16C1157.25,-16 1846.88,-16 1846.88,-16 1852.88,-16 1858.88,-22 1858.88,-28 1858.88,-28 1858.88,-354 1858.88,-354 1858.88,-360 1852.88,-366 1846.88,-366 1846.88,-366 1157.25,-366 1157.25,-366 1151.25,-366 1145.25,-360 1145.25,-354 1145.25,-354 1145.25,-28 1145.25,-28 1145.25,-22 1151.25,-16 1157.25,-16"/>
<text text-anchor="middle" x="1502.06" y="-353.45" font-family="Helvetica,sans-Serif" font-weight="bold" font-size="9.00">domain</text>
</g>
<g id="clust8" class="cluster">
<title>cluster_src/domain/constants</title>
<path fill="#ffffff" stroke="black" stroke-width="2" d="M1274.12,-24C1274.12,-24 1320.12,-24 1320.12,-24 1326.12,-24 1332.12,-30 1332.12,-36 1332.12,-36 1332.12,-67 1332.12,-67 1332.12,-73 1326.12,-79 1320.12,-79 1320.12,-79 1274.12,-79 1274.12,-79 1268.12,-79 1262.12,-73 1262.12,-67 1262.12,-67 1262.12,-36 1262.12,-36 1262.12,-30 1268.12,-24 1274.12,-24"/>
<text text-anchor="middle" x="1297.12" y="-66.45" font-family="Helvetica,sans-Serif" font-weight="bold" font-size="9.00">constants</text>
</g>
<g id="clust9" class="cluster">
<title>cluster_src/domain/entities</title>
<path fill="#ffffff" stroke="black" stroke-width="2" d="M1494.38,-103C1494.38,-103 1838.88,-103 1838.88,-103 1844.88,-103 1850.88,-109 1850.88,-115 1850.88,-115 1850.88,-188 1850.88,-188 1850.88,-194 1844.88,-200 1838.88,-200 1838.88,-200 1494.38,-200 1494.38,-200 1488.38,-200 1482.38,-194 1482.38,-188 1482.38,-188 1482.38,-115 1482.38,-115 1482.38,-109 1488.38,-103 1494.38,-103"/>
<text text-anchor="middle" x="1666.62" y="-187.45" font-family="Helvetica,sans-Serif" font-weight="bold" font-size="9.00">entities</text>
</g>
<g id="clust10" class="cluster">
<title>cluster_src/domain/repositories</title>
<path fill="#ffffff" stroke="black" stroke-width="2" d="M1274.12,-97C1274.12,-97 1454.12,-97 1454.12,-97 1460.12,-97 1466.12,-103 1466.12,-109 1466.12,-109 1466.12,-202 1466.12,-202 1466.12,-208 1460.12,-214 1454.12,-214 1454.12,-214 1274.12,-214 1274.12,-214 1268.12,-214 1262.12,-208 1262.12,-202 1262.12,-202 1262.12,-109 1262.12,-109 1262.12,-103 1268.12,-97 1274.12,-97"/>
<text text-anchor="middle" x="1364.12" y="-201.45" font-family="Helvetica,sans-Serif" font-weight="bold" font-size="9.00">repositories</text>
</g>
<g id="clust11" class="cluster">
<title>cluster_src/domain/valueObjects</title>
<path fill="#ffffff" stroke="black" stroke-width="2" d="M1274.12,-222C1274.12,-222 1462.38,-222 1462.38,-222 1468.38,-222 1474.38,-228 1474.38,-234 1474.38,-234 1474.38,-327 1474.38,-327 1474.38,-333 1468.38,-339 1462.38,-339 1462.38,-339 1274.12,-339 1274.12,-339 1268.12,-339 1262.12,-333 1262.12,-327 1262.12,-327 1262.12,-234 1262.12,-234 1262.12,-228 1268.12,-222 1274.12,-222"/>
<text text-anchor="middle" x="1368.25" y="-326.45" font-family="Helvetica,sans-Serif" font-weight="bold" font-size="9.00">valueObjects</text>
</g>
<g id="clust12" class="cluster">
<title>cluster_src/infrastructure</title>
<path fill="#ffffff" stroke="black" stroke-width="2" d="M712.75,-374C712.75,-374 1242.12,-374 1242.12,-374 1248.12,-374 1254.12,-380 1254.12,-386 1254.12,-386 1254.12,-560 1254.12,-560 1254.12,-566 1248.12,-572 1242.12,-572 1242.12,-572 712.75,-572 712.75,-572 706.75,-572 700.75,-566 700.75,-560 700.75,-560 700.75,-386 700.75,-386 700.75,-380 706.75,-374 712.75,-374"/>
<text text-anchor="middle" x="977.44" y="-559.45" font-family="Helvetica,sans-Serif" font-weight="bold" font-size="9.00">infrastructure</text>
</g>
<g id="clust13" class="cluster">
<title>cluster_src/infrastructure/database</title>
<path fill="#ffffff" stroke="black" stroke-width="2" d="M1127.5,-397C1127.5,-397 1233,-397 1233,-397 1239,-397 1245,-403 1245,-409 1245,-409 1245,-440 1245,-440 1245,-446 1239,-452 1233,-452 1233,-452 1127.5,-452 1127.5,-452 1121.5,-452 1115.5,-446 1115.5,-440 1115.5,-440 1115.5,-409 1115.5,-409 1115.5,-403 1121.5,-397 1127.5,-397"/>
<text text-anchor="middle" x="1180.25" y="-439.45" font-family="Helvetica,sans-Serif" font-weight="bold" font-size="9.00">database</text>
</g>
<g id="clust14" class="cluster">
<title>cluster_src/infrastructure/repository</title>
<path fill="#ffffff" stroke="black" stroke-width="2" d="M929,-382C929,-382 1095.5,-382 1095.5,-382 1101.5,-382 1107.5,-388 1107.5,-394 1107.5,-394 1107.5,-456 1107.5,-456 1107.5,-462 1101.5,-468 1095.5,-468 1095.5,-468 929,-468 929,-468 923,-468 917,-462 917,-456 917,-456 917,-394 917,-394 917,-388 923,-382 929,-382"/>
<text text-anchor="middle" x="1012.25" y="-455.45" font-family="Helvetica,sans-Serif" font-weight="bold" font-size="9.00">repository</text>
</g>
<g id="clust15" class="cluster">
<title>cluster_src/infrastructure/services</title>
<path fill="#ffffff" stroke="black" stroke-width="2" d="M720.75,-410C720.75,-410 897,-410 897,-410 903,-410 909,-416 909,-422 909,-422 909,-453 909,-453 909,-459 903,-465 897,-465 897,-465 720.75,-465 720.75,-465 714.75,-465 708.75,-459 708.75,-453 708.75,-453 708.75,-422 708.75,-422 708.75,-416 714.75,-410 720.75,-410"/>
<text text-anchor="middle" x="808.88" y="-452.45" font-family="Helvetica,sans-Serif" font-weight="bold" font-size="9.00">services</text>
</g>
<g id="clust16" class="cluster">
<title>cluster_src/infrastructure/video</title>
<path fill="#ffffff" stroke="black" stroke-width="2" d="M929,-476C929,-476 1234.12,-476 1234.12,-476 1240.12,-476 1246.12,-482 1246.12,-488 1246.12,-488 1246.12,-533 1246.12,-533 1246.12,-539 1240.12,-545 1234.12,-545 1234.12,-545 929,-545 929,-545 923,-545 917,-539 917,-533 917,-533 917,-488 917,-488 917,-482 923,-476 929,-476"/>
<text text-anchor="middle" x="1081.56" y="-532.45" font-family="Helvetica,sans-Serif" font-weight="bold" font-size="9.00">video</text>
</g>
<g id="clust17" class="cluster">
<title>cluster_src/stores</title>
<path fill="#ffffff" stroke="black" stroke-width="2" d="M403.25,-434C403.25,-434 479.5,-434 479.5,-434 485.5,-434 491.5,-440 491.5,-446 491.5,-446 491.5,-508 491.5,-508 491.5,-514 485.5,-520 479.5,-520 479.5,-520 403.25,-520 403.25,-520 397.25,-520 391.25,-514 391.25,-508 391.25,-508 391.25,-446 391.25,-446 391.25,-440 397.25,-434 403.25,-434"/>
<text text-anchor="middle" x="441.38" y="-507.45" font-family="Helvetica,sans-Serif" font-weight="bold" font-size="9.00">stores</text>
</g>
<g id="clust18" class="cluster">
<title>cluster_src/views</title>
<path fill="#ffffff" stroke="black" stroke-width="2" d="M157,-414C157,-414 233.25,-414 233.25,-414 239.25,-414 245.25,-420 245.25,-426 245.25,-426 245.25,-488 245.25,-488 245.25,-494 239.25,-500 233.25,-500 233.25,-500 157,-500 157,-500 151,-500 145,-494 145,-488 145,-488 145,-426 145,-426 145,-420 151,-414 157,-414"/>
<text text-anchor="middle" x="195.12" y="-487.45" font-family="Helvetica,sans-Serif" font-weight="bold" font-size="9.00">views</text>
</g>
<!-- src/App.vue -->
<g id="node1" class="node">
<title>src/App.vue</title>
<g id="a_node1"><a xlink:href="src/App.vue" xlink:title="App.vue">
<path fill="#41f083" stroke="black" d="M130.58,-441.62C130.58,-441.62 89.42,-441.62 89.42,-441.62 86.21,-441.62 83,-438.42 83,-435.21 83,-435.21 83,-428.79 83,-428.79 83,-425.58 86.21,-422.38 89.42,-422.38 89.42,-422.38 130.58,-422.38 130.58,-422.38 133.79,-422.38 137,-425.58 137,-428.79 137,-428.79 137,-435.21 137,-435.21 137,-438.42 133.79,-441.62 130.58,-441.62"/>
<text text-anchor="start" x="93.88" y="-429.07" font-family="Helvetica,sans-Serif" font-size="9.00">App.vue</text>
</a>
</g>
</g>
<!-- src/components/utils/DiagnosticsPanel.vue -->
<g id="node2" class="node">
<title>src/components/utils/DiagnosticsPanel.vue</title>
<g id="a_node2"><a xlink:href="src/components/utils/DiagnosticsPanel.vue" xlink:title="DiagnosticsPanel.vue">
<path fill="#41f083" stroke="black" d="M368.83,-308.62C368.83,-308.62 275.67,-308.62 275.67,-308.62 272.46,-308.62 269.25,-305.42 269.25,-302.21 269.25,-302.21 269.25,-295.79 269.25,-295.79 269.25,-292.58 272.46,-289.38 275.67,-289.38 275.67,-289.38 368.83,-289.38 368.83,-289.38 372.04,-289.38 375.25,-292.58 375.25,-295.79 375.25,-295.79 375.25,-302.21 375.25,-302.21 375.25,-305.42 372.04,-308.62 368.83,-308.62"/>
<text text-anchor="start" x="277.25" y="-296.07" font-family="Helvetica,sans-Serif" font-size="9.00">DiagnosticsPanel.vue</text>
</a>
</g>
</g>
<!-- src/App.vue&#45;&gt;src/components/utils/DiagnosticsPanel.vue -->
<g id="edge1" class="edge">
<title>src/App.vue&#45;&gt;src/components/utils/DiagnosticsPanel.vue</title>
<path fill="none" stroke="#000000" stroke-width="2" stroke-opacity="0.200000" d="M126.32,-422.09C152.33,-405.28 206.84,-370.18 253.25,-341 267.75,-331.89 284.06,-321.8 297.08,-313.8"/>
<polygon fill="#000000" fill-opacity="0.200000" stroke="#000000" stroke-width="2" stroke-opacity="0.200000" points="298.12,-315.62 302.14,-310.7 295.92,-312.05 298.12,-315.62"/>
</g>
<!-- src/views/NavBar.vue -->
<g id="node3" class="node">
<title>src/views/NavBar.vue</title>
<g id="a_node3"><a xlink:href="src/views/NavBar.vue" xlink:title="NavBar.vue">
<path fill="#41f083" stroke="black" d="M219.96,-472.62C219.96,-472.62 170.29,-472.62 170.29,-472.62 167.08,-472.62 163.88,-469.42 163.88,-466.21 163.88,-466.21 163.88,-459.79 163.88,-459.79 163.88,-456.58 167.08,-453.38 170.29,-453.38 170.29,-453.38 219.96,-453.38 219.96,-453.38 223.17,-453.38 226.38,-456.58 226.38,-459.79 226.38,-459.79 226.38,-466.21 226.38,-466.21 226.38,-469.42 223.17,-472.62 219.96,-472.62"/>
<text text-anchor="start" x="171.88" y="-460.07" font-family="Helvetica,sans-Serif" font-size="9.00">NavBar.vue</text>
</a>
</g>
</g>
<!-- src/App.vue&#45;&gt;src/views/NavBar.vue -->
<g id="edge2" class="edge">
<title>src/App.vue&#45;&gt;src/views/NavBar.vue</title>
<path fill="none" stroke="#000000" stroke-width="2" stroke-opacity="0.200000" d="M130.93,-441.96C135.5,-444.08 140.37,-446.22 145,-448 148.23,-449.25 151.61,-450.46 155.02,-451.62"/>
<polygon fill="#000000" fill-opacity="0.200000" stroke="#000000" stroke-width="2" stroke-opacity="0.200000" points="154.26,-453.58 160.62,-453.45 155.57,-449.59 154.26,-453.58"/>
</g>
<!-- src/views/VideoGallery.vue -->
<g id="node4" class="node">
<title>src/views/VideoGallery.vue</title>
<g id="a_node4"><a xlink:href="src/views/VideoGallery.vue" xlink:title="VideoGallery.vue">
<path fill="#41f083" stroke="black" d="M230.83,-441.62C230.83,-441.62 159.42,-441.62 159.42,-441.62 156.21,-441.62 153,-438.42 153,-435.21 153,-435.21 153,-428.79 153,-428.79 153,-425.58 156.21,-422.38 159.42,-422.38 159.42,-422.38 230.83,-422.38 230.83,-422.38 234.04,-422.38 237.25,-425.58 237.25,-428.79 237.25,-428.79 237.25,-435.21 237.25,-435.21 237.25,-438.42 234.04,-441.62 230.83,-441.62"/>
<text text-anchor="start" x="161" y="-429.07" font-family="Helvetica,sans-Serif" font-size="9.00">VideoGallery.vue</text>
</a>
</g>
</g>
<!-- src/App.vue&#45;&gt;src/views/VideoGallery.vue -->
<g id="edge3" class="edge">
<title>src/App.vue&#45;&gt;src/views/VideoGallery.vue</title>
<path fill="none" stroke="#000000" stroke-width="2" stroke-opacity="0.200000" d="M137.3,-432C139.42,-432 141.61,-432 143.83,-432"/>
<polygon fill="#000000" fill-opacity="0.200000" stroke="#000000" stroke-width="2" stroke-opacity="0.200000" points="143.47,-434.1 149.47,-432 143.47,-429.9 143.47,-434.1"/>
</g>
<!-- src/infrastructure/services/index.ts -->
<g id="node11" class="node">
<title>src/infrastructure/services/index.ts</title>
<g id="a_node11"><a xlink:href="src/infrastructure/services/index.ts" xlink:title="index.ts">
<path fill="#ddfeff" stroke="black" d="M764.33,-437.62C764.33,-437.62 723.17,-437.62 723.17,-437.62 719.96,-437.62 716.75,-434.42 716.75,-431.21 716.75,-431.21 716.75,-424.79 716.75,-424.79 716.75,-421.58 719.96,-418.38 723.17,-418.38 723.17,-418.38 764.33,-418.38 764.33,-418.38 767.54,-418.38 770.75,-421.58 770.75,-424.79 770.75,-424.79 770.75,-431.21 770.75,-431.21 770.75,-434.42 767.54,-437.62 764.33,-437.62"/>
<text text-anchor="start" x="728" y="-425.07" font-family="Helvetica,sans-Serif" font-size="9.00">index.ts</text>
</a>
</g>
</g>
<!-- src/components/utils/DiagnosticsPanel.vue&#45;&gt;src/infrastructure/services/index.ts -->
<g id="edge17" class="edge">
<title>src/components/utils/DiagnosticsPanel.vue&#45;&gt;src/infrastructure/services/index.ts</title>
<path fill="none" stroke="#000000" stroke-width="2" stroke-opacity="0.200000" d="M346.17,-308.99C359.31,-315.97 374.82,-326.63 383.25,-341 392.18,-356.22 378.82,-407.48 391.25,-420 407.15,-436.02 471.25,-422.71 492.25,-431 496.38,-432.63 496.03,-435.59 500.25,-437 526.39,-445.71 534.7,-437.69 562.25,-437 612.85,-435.74 671.36,-432.49 707.71,-430.26"/>
<polygon fill="#000000" fill-opacity="0.200000" stroke="#000000" stroke-width="2" stroke-opacity="0.200000" points="707.58,-432.38 713.44,-429.91 707.32,-428.19 707.58,-432.38"/>
</g>
<!-- src/stores/appStateStore.ts -->
<g id="node16" class="node">
<title>src/stores/appStateStore.ts</title>
<g id="a_node16"><a xlink:href="src/stores/appStateStore.ts" xlink:title="appStateStore.ts">
<path fill="#ddfeff" stroke="black" d="M477.08,-461.62C477.08,-461.62 405.67,-461.62 405.67,-461.62 402.46,-461.62 399.25,-458.42 399.25,-455.21 399.25,-455.21 399.25,-448.79 399.25,-448.79 399.25,-445.58 402.46,-442.38 405.67,-442.38 405.67,-442.38 477.08,-442.38 477.08,-442.38 480.29,-442.38 483.5,-445.58 483.5,-448.79 483.5,-448.79 483.5,-455.21 483.5,-455.21 483.5,-458.42 480.29,-461.62 477.08,-461.62"/>
<text text-anchor="start" x="407.25" y="-449.07" font-family="Helvetica,sans-Serif" font-size="9.00">appStateStore.ts</text>
</a>
</g>
</g>
<!-- src/components/utils/DiagnosticsPanel.vue&#45;&gt;src/stores/appStateStore.ts -->
<g id="edge16" class="edge">
<title>src/components/utils/DiagnosticsPanel.vue&#45;&gt;src/stores/appStateStore.ts</title>
<path fill="none" stroke="#000000" stroke-width="2" stroke-opacity="0.200000" d="M346.52,-309.12C359.62,-316.09 374.96,-326.7 383.25,-341 393.1,-357.99 379.97,-412.93 391.25,-429 393.44,-432.12 396.17,-434.83 399.21,-437.18"/>
<polygon fill="#000000" fill-opacity="0.200000" stroke="#000000" stroke-width="2" stroke-opacity="0.200000" points="398.03,-438.92 404.21,-440.4 400.3,-435.39 398.03,-438.92"/>
</g>
<!-- src/stores/videosStore.ts -->
<g id="node14" class="node">
<title>src/stores/videosStore.ts</title>
<g id="a_node14"><a xlink:href="src/stores/videosStore.ts" xlink:title="videosStore.ts">
<path fill="#ddfeff" stroke="black" d="M472.21,-492.62C472.21,-492.62 410.54,-492.62 410.54,-492.62 407.33,-492.62 404.12,-489.42 404.12,-486.21 404.12,-486.21 404.12,-479.79 404.12,-479.79 404.12,-476.58 407.33,-473.38 410.54,-473.38 410.54,-473.38 472.21,-473.38 472.21,-473.38 475.42,-473.38 478.62,-476.58 478.62,-479.79 478.62,-479.79 478.62,-486.21 478.62,-486.21 478.62,-489.42 475.42,-492.62 472.21,-492.62"/>
<text text-anchor="start" x="412.12" y="-480.07" font-family="Helvetica,sans-Serif" font-size="9.00">videosStore.ts</text>
</a>
</g>
</g>
<!-- src/views/NavBar.vue&#45;&gt;src/stores/videosStore.ts -->
<g id="edge62" class="edge">
<title>src/views/NavBar.vue&#45;&gt;src/stores/videosStore.ts</title>
<path fill="none" stroke="#000000" stroke-width="2" stroke-opacity="0.200000" d="M226.57,-465.49C268.94,-468.96 346.03,-475.27 395.14,-479.3"/>
<polygon fill="#000000" fill-opacity="0.200000" stroke="#000000" stroke-width="2" stroke-opacity="0.200000" points="394.8,-481.38 400.96,-479.77 395.15,-477.19 394.8,-481.38"/>
</g>
<!-- src/components/inputs/FileInput.vue -->
<g id="node15" class="node">
<title>src/components/inputs/FileInput.vue</title>
<g id="a_node15"><a xlink:href="src/components/inputs/FileInput.vue" xlink:title="FileInput.vue">
<path fill="#41f083" stroke="black" d="M349.71,-371.62C349.71,-371.62 294.79,-371.62 294.79,-371.62 291.58,-371.62 288.38,-368.42 288.38,-365.21 288.38,-365.21 288.38,-358.79 288.38,-358.79 288.38,-355.58 291.58,-352.38 294.79,-352.38 294.79,-352.38 349.71,-352.38 349.71,-352.38 352.92,-352.38 356.12,-355.58 356.12,-358.79 356.12,-358.79 356.12,-365.21 356.12,-365.21 356.12,-368.42 352.92,-371.62 349.71,-371.62"/>
<text text-anchor="start" x="296.38" y="-359.07" font-family="Helvetica,sans-Serif" font-size="9.00">FileInput.vue</text>
</a>
</g>
</g>
<!-- src/views/NavBar.vue&#45;&gt;src/components/inputs/FileInput.vue -->
<g id="edge60" class="edge">
<title>src/views/NavBar.vue&#45;&gt;src/components/inputs/FileInput.vue</title>
<path fill="none" stroke="#000000" stroke-width="2" stroke-opacity="0.200000" d="M226.64,-456.53C233.08,-454.4 239.63,-451.62 245.25,-448 273.23,-430 297.05,-398.89 310.22,-379.43"/>
<polygon fill="#000000" fill-opacity="0.200000" stroke="#000000" stroke-width="2" stroke-opacity="0.200000" points="311.83,-380.81 313.38,-374.64 308.33,-378.5 311.83,-380.81"/>
</g>
<!-- src/views/NavBar.vue&#45;&gt;src/stores/appStateStore.ts -->
<g id="edge61" class="edge">
<title>src/views/NavBar.vue&#45;&gt;src/stores/appStateStore.ts</title>
<path fill="none" stroke="#000000" stroke-width="2" stroke-opacity="0.200000" d="M226.57,-461.63C267.5,-459.79 340.81,-456.48 390.02,-454.27"/>
<polygon fill="#000000" fill-opacity="0.200000" stroke="#000000" stroke-width="2" stroke-opacity="0.200000" points="390,-456.37 395.9,-454 389.81,-452.18 390,-456.37"/>
</g>
<!-- src/components/VideoCard.vue -->
<g id="node12" class="node">
<title>src/components/VideoCard.vue</title>
<g id="a_node12"><a xlink:href="src/components/VideoCard.vue" xlink:title="VideoCard.vue">
<path fill="#41f083" stroke="black" d="M353.83,-272.62C353.83,-272.62 290.67,-272.62 290.67,-272.62 287.46,-272.62 284.25,-269.42 284.25,-266.21 284.25,-266.21 284.25,-259.79 284.25,-259.79 284.25,-256.58 287.46,-253.38 290.67,-253.38 290.67,-253.38 353.83,-253.38 353.83,-253.38 357.04,-253.38 360.25,-256.58 360.25,-259.79 360.25,-259.79 360.25,-266.21 360.25,-266.21 360.25,-269.42 357.04,-272.62 353.83,-272.62"/>
<text text-anchor="start" x="292.25" y="-260.07" font-family="Helvetica,sans-Serif" font-size="9.00">VideoCard.vue</text>
</a>
</g>
</g>
<!-- src/views/VideoGallery.vue&#45;&gt;src/components/VideoCard.vue -->
<g id="edge63" class="edge">
<title>src/views/VideoGallery.vue&#45;&gt;src/components/VideoCard.vue</title>
<path fill="none" stroke="#000000" stroke-width="2" stroke-opacity="0.200000" d="M196.68,-421.9C198.76,-394.27 208.52,-316.95 253.25,-278 259.48,-272.58 267.22,-268.98 275.23,-266.62"/>
<polygon fill="#000000" fill-opacity="0.200000" stroke="#000000" stroke-width="2" stroke-opacity="0.200000" points="275.68,-268.67 281.02,-265.23 274.7,-264.59 275.68,-268.67"/>
</g>
<!-- src/views/VideoGallery.vue&#45;&gt;src/stores/videosStore.ts -->
<g id="edge65" class="edge">
<title>src/views/VideoGallery.vue&#45;&gt;src/stores/videosStore.ts</title>
<path fill="none" stroke="#000000" stroke-width="2" stroke-opacity="0.200000" d="M237.57,-440.98C242.84,-442.04 248.17,-443.08 253.25,-444 310.76,-454.46 327.55,-446.27 383.25,-464 387.04,-465.21 387.56,-466.53 391.25,-468 392.86,-468.64 394.52,-469.28 396.2,-469.9"/>
<polygon fill="#000000" fill-opacity="0.200000" stroke="#000000" stroke-width="2" stroke-opacity="0.200000" points="395.5,-471.88 401.85,-471.88 396.89,-467.92 395.5,-471.88"/>
</g>
<!-- src/views/VideoGallery.vue&#45;&gt;src/stores/appStateStore.ts -->
<g id="edge64" class="edge">
<title>src/views/VideoGallery.vue&#45;&gt;src/stores/appStateStore.ts</title>
<path fill="none" stroke="#000000" stroke-width="2" stroke-opacity="0.200000" d="M237.43,-434.24C275.38,-436.45 333.17,-440.2 383.25,-445 385.47,-445.21 387.74,-445.44 390.02,-445.68"/>
<polygon fill="#000000" fill-opacity="0.200000" stroke="#000000" stroke-width="2" stroke-opacity="0.200000" points="389.7,-447.76 395.9,-446.33 390.16,-443.59 389.7,-447.76"/>
</g>
<!-- src/application/index.ts -->
<g id="node5" class="node">
<title>src/application/index.ts</title>
<g id="a_node5"><a xlink:href="src/application/index.ts" xlink:title="index.ts">
<path fill="#ddfeff" stroke="black" d="M555.83,-379.62C555.83,-379.62 514.67,-379.62 514.67,-379.62 511.46,-379.62 508.25,-376.42 508.25,-373.21 508.25,-373.21 508.25,-366.79 508.25,-366.79 508.25,-363.58 511.46,-360.38 514.67,-360.38 514.67,-360.38 555.83,-360.38 555.83,-360.38 559.04,-360.38 562.25,-363.58 562.25,-366.79 562.25,-366.79 562.25,-373.21 562.25,-373.21 562.25,-376.42 559.04,-379.62 555.83,-379.62"/>
<text text-anchor="start" x="519.5" y="-367.07" font-family="Helvetica,sans-Serif" font-size="9.00">index.ts</text>
</a>
</g>
</g>
<!-- src/application/services/FileParserService.ts -->
<g id="node6" class="node">
<title>src/application/services/FileParserService.ts</title>
<g id="a_node6"><a xlink:href="src/application/services/FileParserService.ts" xlink:title="FileParserService.ts">
<path fill="#ddfeff" stroke="black" d="M670.33,-379.62C670.33,-379.62 584.67,-379.62 584.67,-379.62 581.46,-379.62 578.25,-376.42 578.25,-373.21 578.25,-373.21 578.25,-366.79 578.25,-366.79 578.25,-363.58 581.46,-360.38 584.67,-360.38 584.67,-360.38 670.33,-360.38 670.33,-360.38 673.54,-360.38 676.75,-363.58 676.75,-366.79 676.75,-366.79 676.75,-373.21 676.75,-373.21 676.75,-376.42 673.54,-379.62 670.33,-379.62"/>
<text text-anchor="start" x="586.25" y="-367.07" font-family="Helvetica,sans-Serif" font-size="9.00">FileParserService.ts</text>
</a>
</g>
</g>
<!-- src/application/index.ts&#45;&gt;src/application/services/FileParserService.ts -->
<g id="edge4" class="edge">
<title>src/application/index.ts&#45;&gt;src/application/services/FileParserService.ts</title>
<path fill="none" stroke="#000000" stroke-width="2" stroke-opacity="0.200000" d="M562.35,-370C567.25,-370 572.51,-370 577.83,-370"/>
<polygon fill="#000000" fill-opacity="0.200000" stroke="#000000" stroke-width="2" stroke-opacity="0.200000" points="580.64,-368.61 584.54,-376.71 576.44,-372.81 580.64,-368.61"/>
</g>
<!-- src/application/services/FiltersService.ts -->
<g id="node7" class="node">
<title>src/application/services/FiltersService.ts</title>
<g id="a_node7"><a xlink:href="src/application/services/FiltersService.ts" xlink:title="FiltersService.ts">
<path fill="#ddfeff" stroke="black" d="M661.71,-348.62C661.71,-348.62 593.29,-348.62 593.29,-348.62 590.08,-348.62 586.88,-345.42 586.88,-342.21 586.88,-342.21 586.88,-335.79 586.88,-335.79 586.88,-332.58 590.08,-329.38 593.29,-329.38 593.29,-329.38 661.71,-329.38 661.71,-329.38 664.92,-329.38 668.12,-332.58 668.12,-335.79 668.12,-335.79 668.12,-342.21 668.12,-342.21 668.12,-345.42 664.92,-348.62 661.71,-348.62"/>
<text text-anchor="start" x="594.88" y="-336.07" font-family="Helvetica,sans-Serif" font-size="9.00">FiltersService.ts</text>
</a>
</g>
</g>
<!-- src/application/index.ts&#45;&gt;src/application/services/FiltersService.ts -->
<g id="edge5" class="edge">
<title>src/application/index.ts&#45;&gt;src/application/services/FiltersService.ts</title>
<path fill="none" stroke="#000000" stroke-width="2" stroke-opacity="0.200000" d="M556.13,-359.92C560.7,-357.8 565.59,-355.7 570.25,-354 572.78,-353.08 575.39,-352.18 578.04,-351.32"/>
<polygon fill="#000000" fill-opacity="0.200000" stroke="#000000" stroke-width="2" stroke-opacity="0.200000" points="578.57,-353.36 583.69,-349.58 577.33,-349.34 578.57,-353.36"/>
</g>
<!-- src/application/services/Hotkeys.ts -->
<g id="node8" class="node">
<title>src/application/services/Hotkeys.ts</title>
<g id="a_node8"><a xlink:href="src/application/services/Hotkeys.ts" xlink:title="Hotkeys.ts">
<path fill="#ddfeff" stroke="black" d="M650.46,-317.62C650.46,-317.62 604.54,-317.62 604.54,-317.62 601.33,-317.62 598.12,-314.42 598.12,-311.21 598.12,-311.21 598.12,-304.79 598.12,-304.79 598.12,-301.58 601.33,-298.38 604.54,-298.38 604.54,-298.38 650.46,-298.38 650.46,-298.38 653.67,-298.38 656.88,-301.58 656.88,-304.79 656.88,-304.79 656.88,-311.21 656.88,-311.21 656.88,-314.42 653.67,-317.62 650.46,-317.62"/>
<text text-anchor="start" x="606.12" y="-305.07" font-family="Helvetica,sans-Serif" font-size="9.00">Hotkeys.ts</text>
</a>
</g>
</g>
<!-- src/application/index.ts&#45;&gt;src/application/services/Hotkeys.ts -->
<g id="edge6" class="edge">
<title>src/application/index.ts&#45;&gt;src/application/services/Hotkeys.ts</title>
<path fill="none" stroke="#000000" stroke-width="2" stroke-opacity="0.200000" d="M540.8,-360.17C546.27,-349.42 556.48,-332.47 597.7,-311.74"/>
<polygon fill="#000000" fill-opacity="0.200000" stroke="#000000" stroke-width="2" stroke-opacity="0.200000" points="600.51,-310.35 604.41,-318.45 596.31,-314.55 600.51,-310.35"/>
</g>
<!-- src/domain/index.ts -->
<g id="node9" class="node">
<title>src/domain/index.ts</title>
<g id="a_node9"><a xlink:href="src/domain/index.ts" xlink:title="index.ts">
<path fill="#ddfeff" stroke="black" d="M1200.83,-282.62C1200.83,-282.62 1159.67,-282.62 1159.67,-282.62 1156.46,-282.62 1153.25,-279.42 1153.25,-276.21 1153.25,-276.21 1153.25,-269.79 1153.25,-269.79 1153.25,-266.58 1156.46,-263.38 1159.67,-263.38 1159.67,-263.38 1200.83,-263.38 1200.83,-263.38 1204.04,-263.38 1207.25,-266.58 1207.25,-269.79 1207.25,-269.79 1207.25,-276.21 1207.25,-276.21 1207.25,-279.42 1204.04,-282.62 1200.83,-282.62"/>
<text text-anchor="start" x="1164.5" y="-270.07" font-family="Helvetica,sans-Serif" font-size="9.00">index.ts</text>
</a>
</g>
</g>
<!-- src/application/services/FileParserService.ts&#45;&gt;src/domain/index.ts -->
<g id="edge7" class="edge">
<title>src/application/services/FileParserService.ts&#45;&gt;src/domain/index.ts</title>
<path fill="none" stroke="#000000" stroke-opacity="0.200000" d="M675.18,-359.94C718.14,-351.56 783.75,-341 841.38,-341 841.38,-341 841.38,-341 953,-341 1028.22,-341 1111.78,-306.1 1153.12,-286.31"/>
<polygon fill="none" stroke="#000000" stroke-opacity="0.200000" points="1154.03,-288.2 1158.51,-283.69 1152.19,-284.43 1154.03,-288.2"/>
</g>
<!-- src/infrastructure/index.ts -->
<g id="node10" class="node">
<title>src/infrastructure/index.ts</title>
<g id="a_node10"><a xlink:href="src/infrastructure/index.ts" xlink:title="index.ts">
<path fill="#ddfeff" stroke="black" d="M862.96,-492.62C862.96,-492.62 821.79,-492.62 821.79,-492.62 818.58,-492.62 815.38,-489.42 815.38,-486.21 815.38,-486.21 815.38,-479.79 815.38,-479.79 815.38,-476.58 818.58,-473.38 821.79,-473.38 821.79,-473.38 862.96,-473.38 862.96,-473.38 866.17,-473.38 869.38,-476.58 869.38,-479.79 869.38,-479.79 869.38,-486.21 869.38,-486.21 869.38,-489.42 866.17,-492.62 862.96,-492.62"/>
<text text-anchor="start" x="826.62" y="-480.07" font-family="Helvetica,sans-Serif" font-size="9.00">index.ts</text>
</a>
</g>
</g>
<!-- src/application/services/FileParserService.ts&#45;&gt;src/infrastructure/index.ts -->
<g id="edge8" class="edge">
<title>src/application/services/FileParserService.ts&#45;&gt;src/infrastructure/index.ts</title>
<path fill="none" stroke="#000000" stroke-width="2" stroke-opacity="0.200000" d="M677.15,-370.24C708.11,-373.05 746.76,-381.92 770.75,-407 789.91,-427.03 764.59,-447.97 783.75,-468 789.74,-474.27 797.99,-478.04 806.38,-480.27"/>
<polygon fill="#000000" fill-opacity="0.200000" stroke="#000000" stroke-width="2" stroke-opacity="0.200000" points="805.81,-482.3 812.12,-481.47 806.67,-478.19 805.81,-482.3"/>
</g>
<!-- src/application/services/FileParserService.ts&#45;&gt;src/infrastructure/services/index.ts -->
<g id="edge9" class="edge">
<title>src/application/services/FileParserService.ts&#45;&gt;src/infrastructure/services/index.ts</title>
<path fill="none" stroke="#000000" stroke-width="2" stroke-opacity="0.200000" d="M642.9,-380.11C657.11,-389.76 679.7,-404.23 700.75,-414 703.26,-415.16 705.89,-416.28 708.57,-417.33"/>
<polygon fill="#000000" fill-opacity="0.200000" stroke="#000000" stroke-width="2" stroke-opacity="0.200000" points="707.43,-419.15 713.79,-419.26 708.89,-415.21 707.43,-419.15"/>
</g>
<!-- src/application/services/FiltersService.ts&#45;&gt;src/domain/index.ts -->
<g id="edge10" class="edge">
<title>src/application/services/FiltersService.ts&#45;&gt;src/domain/index.ts</title>
<path fill="none" stroke="#000000" stroke-opacity="0.200000" d="M668.34,-331.2C710.98,-323.54 780.69,-313 841.38,-313 841.38,-313 841.38,-313 953,-313 1022.38,-313 1101.93,-294.53 1145.8,-282.7"/>
<polygon fill="none" stroke="#000000" stroke-opacity="0.200000" points="1146.35,-284.72 1151.58,-281.11 1145.24,-280.67 1146.35,-284.72"/>
</g>
<!-- src/domain/constants/index.ts -->
<g id="node17" class="node">
<title>src/domain/constants/index.ts</title>
<g id="a_node17"><a xlink:href="src/domain/constants/index.ts" xlink:title="index.ts">
<path fill="#ddfeff" stroke="black" d="M1317.71,-51.62C1317.71,-51.62 1276.54,-51.62 1276.54,-51.62 1273.33,-51.62 1270.12,-48.42 1270.12,-45.21 1270.12,-45.21 1270.12,-38.79 1270.12,-38.79 1270.12,-35.58 1273.33,-32.38 1276.54,-32.38 1276.54,-32.38 1317.71,-32.38 1317.71,-32.38 1320.92,-32.38 1324.12,-35.58 1324.12,-38.79 1324.12,-38.79 1324.12,-45.21 1324.12,-45.21 1324.12,-48.42 1320.92,-51.62 1317.71,-51.62"/>
<text text-anchor="start" x="1281.38" y="-39.08" font-family="Helvetica,sans-Serif" font-size="9.00">index.ts</text>
</a>
</g>
</g>
<!-- src/domain/index.ts&#45;&gt;src/domain/constants/index.ts -->
<g id="edge25" class="edge">
<title>src/domain/index.ts&#45;&gt;src/domain/constants/index.ts</title>
<path fill="none" stroke="#000000" stroke-width="2" stroke-opacity="0.200000" d="M1182.14,-263.34C1185.69,-230 1201.77,-118.44 1269.82,-50.15"/>
<polygon fill="#000000" fill-opacity="0.200000" stroke="#000000" stroke-width="2" stroke-opacity="0.200000" points="1272.63,-48.76 1276.53,-56.86 1268.43,-52.96 1272.63,-48.76"/>
</g>
<!-- src/domain/entities/index.ts -->
<g id="node22" class="node">
<title>src/domain/entities/index.ts</title>
<g id="a_node22"><a xlink:href="src/domain/entities/index.ts" xlink:title="index.ts">
<path fill="#ddfeff" stroke="black" d="M1537.96,-155.62C1537.96,-155.62 1496.79,-155.62 1496.79,-155.62 1493.58,-155.62 1490.38,-152.42 1490.38,-149.21 1490.38,-149.21 1490.38,-142.79 1490.38,-142.79 1490.38,-139.58 1493.58,-136.38 1496.79,-136.38 1496.79,-136.38 1537.96,-136.38 1537.96,-136.38 1541.17,-136.38 1544.38,-139.58 1544.38,-142.79 1544.38,-142.79 1544.38,-149.21 1544.38,-149.21 1544.38,-152.42 1541.17,-155.62 1537.96,-155.62"/>
<text text-anchor="start" x="1501.62" y="-143.07" font-family="Helvetica,sans-Serif" font-size="9.00">index.ts</text>
</a>
</g>
</g>
<!-- src/domain/index.ts&#45;&gt;src/domain/entities/index.ts -->
<g id="edge26" class="edge">
<title>src/domain/index.ts&#45;&gt;src/domain/entities/index.ts</title>
<path fill="none" stroke="#000000" stroke-opacity="0.200000" d="M1182.16,-262.88C1185.64,-231.15 1201.1,-133.39 1262.12,-94 1281.94,-81.21 1453.1,-83.83 1474.38,-94 1489.75,-101.34 1501.3,-117.37 1508.36,-129.7"/>
<polygon fill="none" stroke="#000000" stroke-opacity="0.200000" points="1506.4,-130.48 1511.1,-134.76 1510.09,-128.48 1506.4,-130.48"/>
</g>
<!-- src/domain/repositories/index.ts -->
<g id="node23" class="node">
<title>src/domain/repositories/index.ts</title>
<g id="a_node23"><a xlink:href="src/domain/repositories/index.ts" xlink:title="index.ts">
<path fill="#ddfeff" stroke="black" d="M1317.71,-171.62C1317.71,-171.62 1276.54,-171.62 1276.54,-171.62 1273.33,-171.62 1270.12,-168.42 1270.12,-165.21 1270.12,-165.21 1270.12,-158.79 1270.12,-158.79 1270.12,-155.58 1273.33,-152.38 1276.54,-152.38 1276.54,-152.38 1317.71,-152.38 1317.71,-152.38 1320.92,-152.38 1324.12,-155.58 1324.12,-158.79 1324.12,-158.79 1324.12,-165.21 1324.12,-165.21 1324.12,-168.42 1320.92,-171.62 1317.71,-171.62"/>
<text text-anchor="start" x="1281.38" y="-159.07" font-family="Helvetica,sans-Serif" font-size="9.00">index.ts</text>
</a>
</g>
</g>
<!-- src/domain/index.ts&#45;&gt;src/domain/repositories/index.ts -->
<g id="edge27" class="edge">
<title>src/domain/index.ts&#45;&gt;src/domain/repositories/index.ts</title>
<path fill="none" stroke="#000000" stroke-opacity="0.200000" d="M1191.44,-263.15C1211.58,-243.7 1256.55,-200.24 1280.47,-177.13"/>
<polygon fill="none" stroke="#000000" stroke-opacity="0.200000" points="1281.84,-178.72 1284.7,-173.04 1278.93,-175.7 1281.84,-178.72"/>
</g>
<!-- src/domain/valueObjects/index.ts -->
<g id="node24" class="node">
<title>src/domain/valueObjects/index.ts</title>
<g id="a_node24"><a xlink:href="src/domain/valueObjects/index.ts" xlink:title="index.ts">
<path fill="#ddfeff" stroke="black" d="M1317.71,-281.62C1317.71,-281.62 1276.54,-281.62 1276.54,-281.62 1273.33,-281.62 1270.12,-278.42 1270.12,-275.21 1270.12,-275.21 1270.12,-268.79 1270.12,-268.79 1270.12,-265.58 1273.33,-262.38 1276.54,-262.38 1276.54,-262.38 1317.71,-262.38 1317.71,-262.38 1320.92,-262.38 1324.12,-265.58 1324.12,-268.79 1324.12,-268.79 1324.12,-275.21 1324.12,-275.21 1324.12,-278.42 1320.92,-281.62 1317.71,-281.62"/>
<text text-anchor="start" x="1281.38" y="-269.07" font-family="Helvetica,sans-Serif" font-size="9.00">index.ts</text>
</a>
</g>
</g>
<!-- src/domain/index.ts&#45;&gt;src/domain/valueObjects/index.ts -->
<g id="edge28" class="edge">
<title>src/domain/index.ts&#45;&gt;src/domain/valueObjects/index.ts</title>
<path fill="none" stroke="#000000" stroke-width="2" stroke-opacity="0.200000" d="M1207.6,-272.77C1226.28,-272.61 1251.24,-272.39 1269.89,-272.23"/>
<polygon fill="#000000" fill-opacity="0.200000" stroke="#000000" stroke-width="2" stroke-opacity="0.200000" points="1272.7,-270.84 1276.6,-278.94 1268.5,-275.04 1272.7,-270.84"/>
</g>
<!-- src/infrastructure/repository/index.ts -->
<g id="node32" class="node">
<title>src/infrastructure/repository/index.ts</title>
<g id="a_node32"><a xlink:href="src/infrastructure/repository/index.ts" xlink:title="index.ts">
<path fill="#ddfeff" stroke="black" d="M972.58,-439.62C972.58,-439.62 931.42,-439.62 931.42,-439.62 928.21,-439.62 925,-436.42 925,-433.21 925,-433.21 925,-426.79 925,-426.79 925,-423.58 928.21,-420.38 931.42,-420.38 931.42,-420.38 972.58,-420.38 972.58,-420.38 975.79,-420.38 979,-423.58 979,-426.79 979,-426.79 979,-433.21 979,-433.21 979,-436.42 975.79,-439.62 972.58,-439.62"/>
<text text-anchor="start" x="936.25" y="-427.07" font-family="Helvetica,sans-Serif" font-size="9.00">index.ts</text>
</a>
</g>
</g>
<!-- src/infrastructure/index.ts&#45;&gt;src/infrastructure/repository/index.ts -->
<g id="edge39" class="edge">
<title>src/infrastructure/index.ts&#45;&gt;src/infrastructure/repository/index.ts</title>
<path fill="none" stroke="#000000" stroke-width="2" stroke-opacity="0.200000" d="M869.68,-480.12C882.12,-477.99 896.87,-474.32 942.71,-439.96"/>
<polygon fill="#000000" fill-opacity="0.200000" stroke="#000000" stroke-width="2" stroke-opacity="0.200000" points="945.51,-438.57 949.41,-446.67 941.31,-442.77 945.51,-438.57"/>
</g>
<!-- src/infrastructure/video/index.ts -->
<g id="node33" class="node">
<title>src/infrastructure/video/index.ts</title>
<g id="a_node33"><a xlink:href="src/infrastructure/video/index.ts" xlink:title="index.ts">
<path fill="#ddfeff" stroke="black" d="M972.58,-503.62C972.58,-503.62 931.42,-503.62 931.42,-503.62 928.21,-503.62 925,-500.42 925,-497.21 925,-497.21 925,-490.79 925,-490.79 925,-487.58 928.21,-484.38 931.42,-484.38 931.42,-484.38 972.58,-484.38 972.58,-484.38 975.79,-484.38 979,-487.58 979,-490.79 979,-490.79 979,-497.21 979,-497.21 979,-500.42 975.79,-503.62 972.58,-503.62"/>
<text text-anchor="start" x="936.25" y="-491.07" font-family="Helvetica,sans-Serif" font-size="9.00">index.ts</text>
</a>
</g>
</g>
<!-- src/infrastructure/index.ts&#45;&gt;src/infrastructure/video/index.ts -->
<g id="edge40" class="edge">
<title>src/infrastructure/index.ts&#45;&gt;src/infrastructure/video/index.ts</title>
<path fill="none" stroke="#000000" stroke-width="2" stroke-opacity="0.200000" d="M869.7,-485.69C886.38,-487.4 907.87,-489.59 924.57,-491.3"/>
<polygon fill="#000000" fill-opacity="0.200000" stroke="#000000" stroke-width="2" stroke-opacity="0.200000" points="927.38,-489.91 931.28,-498.01 923.18,-494.11 927.38,-489.91"/>
</g>
<!-- src/infrastructure/services/VideoMetadataFacade.ts -->
<g id="node36" class="node">
<title>src/infrastructure/services/VideoMetadataFacade.ts</title>
<g id="a_node36"><a xlink:href="src/infrastructure/services/VideoMetadataFacade.ts" xlink:title="VideoMetadataFacade.ts">
<path fill="#ddfeff" stroke="black" d="M894.58,-437.62C894.58,-437.62 790.17,-437.62 790.17,-437.62 786.96,-437.62 783.75,-434.42 783.75,-431.21 783.75,-431.21 783.75,-424.79 783.75,-424.79 783.75,-421.58 786.96,-418.38 790.17,-418.38 790.17,-418.38 894.58,-418.38 894.58,-418.38 897.79,-418.38 901,-421.58 901,-424.79 901,-424.79 901,-431.21 901,-431.21 901,-434.42 897.79,-437.62 894.58,-437.62"/>
<text text-anchor="start" x="791.75" y="-425.07" font-family="Helvetica,sans-Serif" font-size="9.00">VideoMetadataFacade.ts</text>
</a>
</g>
</g>
<!-- src/infrastructure/services/index.ts&#45;&gt;src/infrastructure/services/VideoMetadataFacade.ts -->
<g id="edge49" class="edge">
<title>src/infrastructure/services/index.ts&#45;&gt;src/infrastructure/services/VideoMetadataFacade.ts</title>
<path fill="none" stroke="#000000" stroke-width="2" stroke-opacity="0.200000" d="M771.15,-428C775.06,-428 779.22,-428 783.48,-428"/>
<polygon fill="#000000" fill-opacity="0.200000" stroke="#000000" stroke-width="2" stroke-opacity="0.200000" points="786.28,-426.61 790.18,-434.71 782.08,-430.81 786.28,-426.61"/>
</g>
<!-- src/components/VideoCard.vue&#45;&gt;src/domain/index.ts -->
<g id="edge12" class="edge">
<title>src/components/VideoCard.vue&#45;&gt;src/domain/index.ts</title>
<path fill="none" stroke="#000000" stroke-opacity="0.200000" d="M360.51,-254.9C370.46,-253.01 381.23,-251.2 391.25,-250 454.43,-242.45 470.62,-243 534.25,-243 534.25,-243 534.25,-243 953,-243 1021.91,-243 1039.45,-245.14 1107.5,-256 1120.06,-258.01 1133.68,-261.02 1145.65,-263.95"/>
<polygon fill="none" stroke="#000000" stroke-opacity="0.200000" points="1145.06,-265.97 1151.39,-265.39 1146.08,-261.89 1145.06,-265.97"/>
</g>
<!-- src/components/VideoEmbed.vue -->
<g id="node13" class="node">
<title>src/components/VideoEmbed.vue</title>
<g id="a_node13"><a xlink:href="src/components/VideoEmbed.vue" xlink:title="VideoEmbed.vue">
<path fill="#41f083" stroke="black" d="M477.83,-275.62C477.83,-275.62 404.92,-275.62 404.92,-275.62 401.71,-275.62 398.5,-272.42 398.5,-269.21 398.5,-269.21 398.5,-262.79 398.5,-262.79 398.5,-259.58 401.71,-256.38 404.92,-256.38 404.92,-256.38 477.83,-256.38 477.83,-256.38 481.04,-256.38 484.25,-259.58 484.25,-262.79 484.25,-262.79 484.25,-269.21 484.25,-269.21 484.25,-272.42 481.04,-275.62 477.83,-275.62"/>
<text text-anchor="start" x="406.5" y="-263.07" font-family="Helvetica,sans-Serif" font-size="9.00">VideoEmbed.vue</text>
</a>
</g>
</g>
<!-- src/components/VideoCard.vue&#45;&gt;src/components/VideoEmbed.vue -->
<g id="edge11" class="edge">
<title>src/components/VideoCard.vue&#45;&gt;src/components/VideoEmbed.vue</title>
<path fill="none" stroke="#000000" stroke-width="2" stroke-opacity="0.200000" d="M360.63,-263.96C369.75,-264.19 379.67,-264.45 389.31,-264.69"/>
<polygon fill="#000000" fill-opacity="0.200000" stroke="#000000" stroke-width="2" stroke-opacity="0.200000" points="388.98,-266.78 395.03,-264.84 389.09,-262.59 388.98,-266.78"/>
</g>
<!-- src/components/VideoCard.vue&#45;&gt;src/stores/videosStore.ts -->
<g id="edge13" class="edge">
<title>src/components/VideoCard.vue&#45;&gt;src/stores/videosStore.ts</title>
<path fill="none" stroke="#000000" stroke-width="2" stroke-opacity="0.200000" d="M360.7,-264.83C369.33,-267.09 377.62,-271.09 383.25,-278 396.6,-294.38 378.32,-451.29 391.25,-468 392.68,-469.85 394.34,-471.48 396.15,-472.92"/>
<polygon fill="#000000" fill-opacity="0.200000" stroke="#000000" stroke-width="2" stroke-opacity="0.200000" points="395.02,-474.68 401.24,-475.97 397.18,-471.08 395.02,-474.68"/>
</g>
<!-- src/components/VideoEmbed.vue&#45;&gt;src/domain/index.ts -->
<g id="edge14" class="edge">
<title>src/components/VideoEmbed.vue&#45;&gt;src/domain/index.ts</title>
<path fill="none" stroke="#000000" stroke-opacity="0.200000" d="M484.41,-263.49C521.71,-261.48 577.72,-259 626.5,-259 626.5,-259 626.5,-259 953,-259 1021.45,-259 1101.33,-265.46 1145.51,-269.61"/>
<polygon fill="none" stroke="#000000" stroke-opacity="0.200000" points="1145.13,-271.68 1151.3,-270.16 1145.53,-267.5 1145.13,-271.68"/>
</g>
<!-- src/stores/videosStore.ts&#45;&gt;src/application/index.ts -->
<g id="edge56" class="edge">
<title>src/stores/videosStore.ts&#45;&gt;src/application/index.ts</title>
<path fill="none" stroke="#000000" stroke-width="2" stroke-opacity="0.200000" d="M478.97,-476.12C483.8,-474.08 488.41,-471.43 492.25,-468 498.54,-462.38 517.19,-415.03 527.39,-388.26"/>
<polygon fill="#000000" fill-opacity="0.200000" stroke="#000000" stroke-width="2" stroke-opacity="0.200000" points="529.26,-389.24 529.42,-382.89 525.33,-387.76 529.26,-389.24"/>
</g>
<!-- src/stores/videosStore.ts&#45;&gt;src/domain/index.ts -->
<g id="edge57" class="edge">
<title>src/stores/videosStore.ts&#45;&gt;src/domain/index.ts</title>
<path fill="none" stroke="#000000" stroke-opacity="0.200000" d="M478.97,-477.84C484.11,-475.59 488.81,-472.43 492.25,-468 505.14,-451.4 485.43,-293.9 500.25,-279 520.06,-259.09 598.41,-273 626.5,-273 626.5,-273 626.5,-273 953,-273 1021.32,-273 1101.25,-273 1145.47,-273"/>
<polygon fill="none" stroke="#000000" stroke-opacity="0.200000" points="1145.26,-275.1 1151.26,-273 1145.26,-270.9 1145.26,-275.1"/>
</g>
<!-- src/stores/videosStore.ts&#45;&gt;src/infrastructure/index.ts -->
<g id="edge58" class="edge">
<title>src/stores/videosStore.ts&#45;&gt;src/infrastructure/index.ts</title>
<path fill="none" stroke="#000000" stroke-width="2" stroke-opacity="0.200000" d="M478.84,-483C555.28,-483 731.42,-483 806.48,-483"/>
<polygon fill="#000000" fill-opacity="0.200000" stroke="#000000" stroke-width="2" stroke-opacity="0.200000" points="806.09,-485.1 812.09,-483 806.09,-480.9 806.09,-485.1"/>
</g>
<!-- src/stores/videosStore.ts&#45;&gt;src/infrastructure/services/index.ts -->
<g id="edge59" class="edge">
<title>src/stores/videosStore.ts&#45;&gt;src/infrastructure/services/index.ts</title>
<path fill="none" stroke="#000000" stroke-width="2" stroke-opacity="0.200000" d="M478.73,-479.64C538.37,-473.81 654.19,-461.11 692.75,-447 696.69,-445.56 696.96,-443.79 700.75,-442 703.25,-440.82 705.88,-439.7 708.55,-438.64"/>
<polygon fill="#000000" fill-opacity="0.200000" stroke="#000000" stroke-width="2" stroke-opacity="0.200000" points="708.87,-440.76 713.77,-436.7 707.41,-436.82 708.87,-440.76"/>
</g>
<!-- src/components/inputs/FileInput.vue&#45;&gt;src/stores/videosStore.ts -->
<g id="edge15" class="edge">
<title>src/components/inputs/FileInput.vue&#45;&gt;src/stores/videosStore.ts</title>
<path fill="none" stroke="#000000" stroke-width="2" stroke-opacity="0.200000" d="M332.06,-372.1C344.81,-387.11 368.46,-416.62 383.25,-445 388.25,-454.6 383.45,-460.5 391.25,-468 392.71,-469.41 394.3,-470.68 395.99,-471.84"/>
<polygon fill="#000000" fill-opacity="0.200000" stroke="#000000" stroke-width="2" stroke-opacity="0.200000" points="394.94,-473.66 401.21,-474.72 396.97,-469.98 394.94,-473.66"/>
</g>
<!-- src/stores/appStateStore.ts&#45;&gt;src/application/index.ts -->
<g id="edge55" class="edge">
<title>src/stores/appStateStore.ts&#45;&gt;src/application/index.ts</title>
<path fill="none" stroke="#000000" stroke-width="2" stroke-opacity="0.200000" d="M470.79,-441.97C478.24,-438.55 485.94,-434.23 492.25,-429 506.07,-417.55 517.53,-400.52 524.97,-387.7"/>
<polygon fill="#000000" fill-opacity="0.200000" stroke="#000000" stroke-width="2" stroke-opacity="0.200000" points="526.71,-388.89 527.8,-382.63 523.04,-386.85 526.71,-388.89"/>
</g>
<!-- src/domain/entities/MetadataEntity.ts -->
<g id="node18" class="node">
<title>src/domain/entities/MetadataEntity.ts</title>
<g id="a_node18"><a xlink:href="src/domain/entities/MetadataEntity.ts" xlink:title="MetadataEntity.ts">
<path fill="#ddfeff" stroke="black" d="M1836.46,-135.62C1836.46,-135.62 1764.29,-135.62 1764.29,-135.62 1761.08,-135.62 1757.88,-132.42 1757.88,-129.21 1757.88,-129.21 1757.88,-122.79 1757.88,-122.79 1757.88,-119.58 1761.08,-116.38 1764.29,-116.38 1764.29,-116.38 1836.46,-116.38 1836.46,-116.38 1839.67,-116.38 1842.88,-119.58 1842.88,-122.79 1842.88,-122.79 1842.88,-129.21 1842.88,-129.21 1842.88,-132.42 1839.67,-135.62 1836.46,-135.62"/>
<text text-anchor="start" x="1765.88" y="-123.08" font-family="Helvetica,sans-Serif" font-size="9.00">MetadataEntity.ts</text>
</a>
</g>
</g>
<!-- src/domain/entities/ParsedVideo.ts -->
<g id="node19" class="node">
<title>src/domain/entities/ParsedVideo.ts</title>
<g id="a_node19"><a xlink:href="src/domain/entities/ParsedVideo.ts" xlink:title="ParsedVideo.ts">
<path fill="#ddfeff" stroke="black" d="M1629.96,-144.62C1629.96,-144.62 1563.79,-144.62 1563.79,-144.62 1560.58,-144.62 1557.38,-141.42 1557.38,-138.21 1557.38,-138.21 1557.38,-131.79 1557.38,-131.79 1557.38,-128.58 1560.58,-125.38 1563.79,-125.38 1563.79,-125.38 1629.96,-125.38 1629.96,-125.38 1633.17,-125.38 1636.38,-128.58 1636.38,-131.79 1636.38,-131.79 1636.38,-138.21 1636.38,-138.21 1636.38,-141.42 1633.17,-144.62 1629.96,-144.62"/>
<text text-anchor="start" x="1565.38" y="-132.07" font-family="Helvetica,sans-Serif" font-size="9.00">ParsedVideo.ts</text>
</a>
</g>
</g>
<!-- src/domain/entities/VideoStorageDto.ts -->
<g id="node20" class="node">
<title>src/domain/entities/VideoStorageDto.ts</title>
<g id="a_node20"><a xlink:href="src/domain/entities/VideoStorageDto.ts" xlink:title="VideoStorageDto.ts">
<path fill="#ddfeff" stroke="black" d="M1738.46,-151.62C1738.46,-151.62 1655.79,-151.62 1655.79,-151.62 1652.58,-151.62 1649.38,-148.42 1649.38,-145.21 1649.38,-145.21 1649.38,-138.79 1649.38,-138.79 1649.38,-135.58 1652.58,-132.38 1655.79,-132.38 1655.79,-132.38 1738.46,-132.38 1738.46,-132.38 1741.67,-132.38 1744.88,-135.58 1744.88,-138.79 1744.88,-138.79 1744.88,-145.21 1744.88,-145.21 1744.88,-148.42 1741.67,-151.62 1738.46,-151.62"/>
<text text-anchor="start" x="1657.38" y="-139.07" font-family="Helvetica,sans-Serif" font-size="9.00">VideoStorageDto.ts</text>
</a>
</g>
</g>
<!-- src/domain/entities/ParsedVideo.ts&#45;&gt;src/domain/entities/VideoStorageDto.ts -->
<g id="edge18" class="edge">
<title>src/domain/entities/ParsedVideo.ts&#45;&gt;src/domain/entities/VideoStorageDto.ts</title>
<path fill="none" stroke="#000000" stroke-opacity="0.200000" d="M1636.71,-137.77C1638.36,-137.88 1640.03,-138 1641.72,-138.12"/>
<polygon fill="none" stroke="#000000" stroke-opacity="0.200000" points="1641.47,-140.21 1647.6,-138.54 1641.77,-136.02 1641.47,-140.21"/>
</g>
<!-- src/domain/entities/VideoStorageDto.ts&#45;&gt;src/domain/entities/MetadataEntity.ts -->
<g id="edge19" class="edge">
<title>src/domain/entities/VideoStorageDto.ts&#45;&gt;src/domain/entities/MetadataEntity.ts</title>
<path fill="none" stroke="#000000" stroke-opacity="0.200000" d="M1745.19,-134.56C1746.87,-134.3 1748.56,-134.03 1750.24,-133.77"/>
<polygon fill="none" stroke="#000000" stroke-opacity="0.200000" points="1750.48,-135.85 1756.08,-132.84 1749.82,-131.7 1750.48,-135.85"/>
</g>
<!-- src/domain/entities/VideoEntity.ts -->
<g id="node21" class="node">
<title>src/domain/entities/VideoEntity.ts</title>
<g id="a_node21"><a xlink:href="src/domain/entities/VideoEntity.ts" xlink:title="VideoEntity.ts">
<path fill="#ddfeff" stroke="black" d="M1829.33,-169.62C1829.33,-169.62 1771.42,-169.62 1771.42,-169.62 1768.21,-169.62 1765,-166.42 1765,-163.21 1765,-163.21 1765,-156.79 1765,-156.79 1765,-153.58 1768.21,-150.38 1771.42,-150.38 1771.42,-150.38 1829.33,-150.38 1829.33,-150.38 1832.54,-150.38 1835.75,-153.58 1835.75,-156.79 1835.75,-156.79 1835.75,-163.21 1835.75,-163.21 1835.75,-166.42 1832.54,-169.62 1829.33,-169.62"/>
<text text-anchor="start" x="1773" y="-157.07" font-family="Helvetica,sans-Serif" font-size="9.00">VideoEntity.ts</text>
</a>
</g>
</g>
<!-- src/domain/entities/VideoStorageDto.ts&#45;&gt;src/domain/entities/VideoEntity.ts -->
<g id="edge20" class="edge">
<title>src/domain/entities/VideoStorageDto.ts&#45;&gt;src/domain/entities/VideoEntity.ts</title>
<path fill="none" stroke="#000000" stroke-opacity="0.200000" d="M1745.19,-150.37C1749.26,-151.09 1753.36,-151.82 1757.38,-152.53"/>
<polygon fill="none" stroke="#000000" stroke-opacity="0.200000" points="1756.75,-154.56 1763.03,-153.54 1757.49,-150.42 1756.75,-154.56"/>
</g>
<!-- src/domain/entities/index.ts&#45;&gt;src/domain/entities/MetadataEntity.ts -->
<g id="edge21" class="edge">
<title>src/domain/entities/index.ts&#45;&gt;src/domain/entities/MetadataEntity.ts</title>
<path fill="none" stroke="#000000" stroke-opacity="0.200000" d="M1529,-135.97C1536.35,-129.75 1546.68,-122.34 1557.38,-119 1621.81,-98.87 1700.64,-106.75 1750.45,-115.42"/>
<polygon fill="none" stroke="#000000" stroke-opacity="0.200000" points="1749.81,-117.44 1756.09,-116.44 1750.56,-113.31 1749.81,-117.44"/>
</g>
<!-- src/domain/entities/index.ts&#45;&gt;src/domain/entities/ParsedVideo.ts -->
<g id="edge22" class="edge">
<title>src/domain/entities/index.ts&#45;&gt;src/domain/entities/ParsedVideo.ts</title>
<path fill="none" stroke="#000000" stroke-opacity="0.200000" d="M1544.61,-142.28C1546.38,-142.03 1548.19,-141.77 1550.02,-141.51"/>
<polygon fill="none" stroke="#000000" stroke-opacity="0.200000" points="1550,-143.63 1555.64,-140.71 1549.41,-139.47 1550,-143.63"/>
</g>
<!-- src/domain/entities/index.ts&#45;&gt;src/domain/entities/VideoStorageDto.ts -->
<g id="edge24" class="edge">
<title>src/domain/entities/index.ts&#45;&gt;src/domain/entities/VideoStorageDto.ts</title>
<path fill="none" stroke="#000000" stroke-opacity="0.200000" d="M1544.76,-149.85C1548.97,-150.33 1553.29,-150.74 1557.38,-151 1592.41,-153.24 1601.36,-153.62 1636.38,-151 1638.16,-150.87 1639.97,-150.71 1641.8,-150.54"/>
<polygon fill="none" stroke="#000000" stroke-opacity="0.200000" points="1641.66,-152.66 1647.4,-149.94 1641.21,-148.49 1641.66,-152.66"/>
</g>
<!-- src/domain/entities/index.ts&#45;&gt;src/domain/entities/VideoEntity.ts -->
<g id="edge23" class="edge">
<title>src/domain/entities/index.ts&#45;&gt;src/domain/entities/VideoEntity.ts</title>
<path fill="none" stroke="#000000" stroke-opacity="0.200000" d="M1544.68,-152.8C1548.9,-153.68 1553.24,-154.46 1557.38,-155 1626.99,-164.08 1708.81,-163.44 1757.25,-161.9"/>
<polygon fill="none" stroke="#000000" stroke-opacity="0.200000" points="1757.3,-164 1763.22,-161.69 1757.15,-159.8 1757.3,-164"/>
</g>
<!-- src/domain/repositories/IMetadataRepository.ts -->
<g id="node25" class="node">
<title>src/domain/repositories/IMetadataRepository.ts</title>
<g id="a_node25"><a xlink:href="src/domain/repositories/IMetadataRepository.ts" xlink:title="IMetadataRepository.ts">
<path fill="#ddfeff" stroke="black" d="M1451.71,-186.62C1451.71,-186.62 1354.79,-186.62 1354.79,-186.62 1351.58,-186.62 1348.38,-183.42 1348.38,-180.21 1348.38,-180.21 1348.38,-173.79 1348.38,-173.79 1348.38,-170.58 1351.58,-167.38 1354.79,-167.38 1354.79,-167.38 1451.71,-167.38 1451.71,-167.38 1454.92,-167.38 1458.12,-170.58 1458.12,-173.79 1458.12,-173.79 1458.12,-180.21 1458.12,-180.21 1458.12,-183.42 1454.92,-186.62 1451.71,-186.62"/>
<text text-anchor="start" x="1356.38" y="-174.07" font-family="Helvetica,sans-Serif" font-size="9.00">IMetadataRepository.ts</text>
</a>
</g>
</g>
<!-- src/domain/repositories/index.ts&#45;&gt;src/domain/repositories/IMetadataRepository.ts -->
<g id="edge32" class="edge">
<title>src/domain/repositories/index.ts&#45;&gt;src/domain/repositories/IMetadataRepository.ts</title>
<path fill="none" stroke="#000000" stroke-opacity="0.200000" d="M1324.4,-165.79C1329.48,-166.52 1335.01,-167.31 1340.68,-168.13"/>
<polygon fill="none" stroke="#000000" stroke-opacity="0.200000" points="1340.2,-170.18 1346.44,-168.96 1340.8,-166.03 1340.2,-170.18"/>
</g>
<!-- src/domain/repositories/IVideoFacade.ts -->
<g id="node26" class="node">
<title>src/domain/repositories/IVideoFacade.ts</title>
<g id="a_node26"><a xlink:href="src/domain/repositories/IVideoFacade.ts" xlink:title="IVideoFacade.ts">
<path fill="#ddfeff" stroke="black" d="M1437.83,-124.62C1437.83,-124.62 1368.67,-124.62 1368.67,-124.62 1365.46,-124.62 1362.25,-121.42 1362.25,-118.21 1362.25,-118.21 1362.25,-111.79 1362.25,-111.79 1362.25,-108.58 1365.46,-105.38 1368.67,-105.38 1368.67,-105.38 1437.83,-105.38 1437.83,-105.38 1441.04,-105.38 1444.25,-108.58 1444.25,-111.79 1444.25,-111.79 1444.25,-118.21 1444.25,-118.21 1444.25,-121.42 1441.04,-124.62 1437.83,-124.62"/>
<text text-anchor="start" x="1370.25" y="-112.08" font-family="Helvetica,sans-Serif" font-size="9.00">IVideoFacade.ts</text>
</a>
</g>
</g>
<!-- src/domain/repositories/index.ts&#45;&gt;src/domain/repositories/IVideoFacade.ts -->
<g id="edge33" class="edge">
<title>src/domain/repositories/index.ts&#45;&gt;src/domain/repositories/IVideoFacade.ts</title>
<path fill="none" stroke="#000000" stroke-opacity="0.200000" d="M1324.3,-153.72C1327.15,-152.12 1329.84,-150.23 1332.12,-148 1338.4,-141.9 1333.4,-135.6 1340.12,-130 1344.5,-126.35 1349.62,-123.57 1355.01,-121.44"/>
<polygon fill="none" stroke="#000000" stroke-opacity="0.200000" points="1355.5,-123.49 1360.5,-119.57 1354.15,-119.51 1355.5,-123.49"/>
</g>
<!-- src/domain/repositories/IVideoRepository.ts -->
<g id="node27" class="node">
<title>src/domain/repositories/IVideoRepository.ts</title>
<g id="a_node27"><a xlink:href="src/domain/repositories/IVideoRepository.ts" xlink:title="IVideoRepository.ts">
<path fill="#ddfeff" stroke="black" d="M1444.58,-155.62C1444.58,-155.62 1361.92,-155.62 1361.92,-155.62 1358.71,-155.62 1355.5,-152.42 1355.5,-149.21 1355.5,-149.21 1355.5,-142.79 1355.5,-142.79 1355.5,-139.58 1358.71,-136.38 1361.92,-136.38 1361.92,-136.38 1444.58,-136.38 1444.58,-136.38 1447.79,-136.38 1451,-139.58 1451,-142.79 1451,-142.79 1451,-149.21 1451,-149.21 1451,-152.42 1447.79,-155.62 1444.58,-155.62"/>
<text text-anchor="start" x="1363.5" y="-143.07" font-family="Helvetica,sans-Serif" font-size="9.00">IVideoRepository.ts</text>
</a>
</g>
</g>
<!-- src/domain/repositories/index.ts&#45;&gt;src/domain/repositories/IVideoRepository.ts -->
<g id="edge34" class="edge">
<title>src/domain/repositories/index.ts&#45;&gt;src/domain/repositories/IVideoRepository.ts</title>
<path fill="none" stroke="#000000" stroke-opacity="0.200000" d="M1324.4,-157.96C1331.74,-156.83 1340,-155.57 1348.32,-154.29"/>
<polygon fill="none" stroke="#000000" stroke-opacity="0.200000" points="1348.2,-156.43 1353.81,-153.44 1347.56,-152.28 1348.2,-156.43"/>
</g>
<!-- src/domain/valueObjects/ParsedVideoData.ts -->
<g id="node28" class="node">
<title>src/domain/valueObjects/ParsedVideoData.ts</title>
<g id="a_node28"><a xlink:href="src/domain/valueObjects/ParsedVideoData.ts" xlink:title="ParsedVideoData.ts">
<path fill="#ddfeff" stroke="black" d="M1446.08,-280.62C1446.08,-280.62 1360.42,-280.62 1360.42,-280.62 1357.21,-280.62 1354,-277.42 1354,-274.21 1354,-274.21 1354,-267.79 1354,-267.79 1354,-264.58 1357.21,-261.38 1360.42,-261.38 1360.42,-261.38 1446.08,-261.38 1446.08,-261.38 1449.29,-261.38 1452.5,-264.58 1452.5,-267.79 1452.5,-267.79 1452.5,-274.21 1452.5,-274.21 1452.5,-277.42 1449.29,-280.62 1446.08,-280.62"/>
<text text-anchor="start" x="1362" y="-268.07" font-family="Helvetica,sans-Serif" font-size="9.00">ParsedVideoData.ts</text>
</a>
</g>
</g>
<!-- src/domain/valueObjects/index.ts&#45;&gt;src/domain/valueObjects/ParsedVideoData.ts -->
<g id="edge36" class="edge">
<title>src/domain/valueObjects/index.ts&#45;&gt;src/domain/valueObjects/ParsedVideoData.ts</title>
<path fill="none" stroke="#000000" stroke-width="2" stroke-opacity="0.200000" d="M1324.4,-271.75C1333.32,-271.66 1343.58,-271.56 1353.67,-271.47"/>
<polygon fill="#000000" fill-opacity="0.200000" stroke="#000000" stroke-width="2" stroke-opacity="0.200000" points="1356.48,-270.07 1360.38,-278.17 1352.28,-274.27 1356.48,-270.07"/>
</g>
<!-- src/domain/valueObjects/Thumbs.ts -->
<g id="node29" class="node">
<title>src/domain/valueObjects/Thumbs.ts</title>
<g id="a_node29"><a xlink:href="src/domain/valueObjects/Thumbs.ts" xlink:title="Thumbs.ts">
<path fill="#ddfeff" stroke="black" d="M1426.96,-311.62C1426.96,-311.62 1379.54,-311.62 1379.54,-311.62 1376.33,-311.62 1373.12,-308.42 1373.12,-305.21 1373.12,-305.21 1373.12,-298.79 1373.12,-298.79 1373.12,-295.58 1376.33,-292.38 1379.54,-292.38 1379.54,-292.38 1426.96,-292.38 1426.96,-292.38 1430.17,-292.38 1433.38,-295.58 1433.38,-298.79 1433.38,-298.79 1433.38,-305.21 1433.38,-305.21 1433.38,-308.42 1430.17,-311.62 1426.96,-311.62"/>
<text text-anchor="start" x="1381.12" y="-299.07" font-family="Helvetica,sans-Serif" font-size="9.00">Thumbs.ts</text>
</a>
</g>
</g>
<!-- src/domain/valueObjects/index.ts&#45;&gt;src/domain/valueObjects/Thumbs.ts -->
<g id="edge37" class="edge">
<title>src/domain/valueObjects/index.ts&#45;&gt;src/domain/valueObjects/Thumbs.ts</title>
<path fill="none" stroke="#000000" stroke-opacity="0.200000" d="M1324.2,-281.79C1329.44,-283.63 1334.93,-285.45 1340.12,-287 1348.27,-289.43 1357.1,-291.75 1365.47,-293.8"/>
<polygon fill="none" stroke="#000000" stroke-opacity="0.200000" points="1364.89,-295.82 1371.22,-295.18 1365.87,-291.74 1364.89,-295.82"/>
</g>
<!-- src/domain/valueObjects/VideoStorageDtoMapper.ts -->
<g id="node30" class="node">
<title>src/domain/valueObjects/VideoStorageDtoMapper.ts</title>
<g id="a_node30"><a xlink:href="src/domain/valueObjects/VideoStorageDtoMapper.ts" xlink:title="VideoStorageDtoMapper.ts">
<path fill="#ddfeff" stroke="black" d="M1459.96,-249.62C1459.96,-249.62 1346.54,-249.62 1346.54,-249.62 1343.33,-249.62 1340.12,-246.42 1340.12,-243.21 1340.12,-243.21 1340.12,-236.79 1340.12,-236.79 1340.12,-233.58 1343.33,-230.38 1346.54,-230.38 1346.54,-230.38 1459.96,-230.38 1459.96,-230.38 1463.17,-230.38 1466.38,-233.58 1466.38,-236.79 1466.38,-236.79 1466.38,-243.21 1466.38,-243.21 1466.38,-246.42 1463.17,-249.62 1459.96,-249.62"/>
<text text-anchor="start" x="1348.12" y="-237.07" font-family="Helvetica,sans-Serif" font-size="9.00">VideoStorageDtoMapper.ts</text>
</a>
</g>
</g>
<!-- src/domain/valueObjects/index.ts&#45;&gt;src/domain/valueObjects/VideoStorageDtoMapper.ts -->
<g id="edge38" class="edge">
<title>src/domain/valueObjects/index.ts&#45;&gt;src/domain/valueObjects/VideoStorageDtoMapper.ts</title>
<path fill="none" stroke="#000000" stroke-width="2" stroke-opacity="0.200000" d="M1321.01,-262.03C1327.15,-259.55 1333.83,-257.02 1356.9,-250.12"/>
<polygon fill="#000000" fill-opacity="0.200000" stroke="#000000" stroke-width="2" stroke-opacity="0.200000" points="1359.71,-248.73 1363.61,-256.83 1355.51,-252.93 1359.71,-248.73"/>
</g>
<!-- src/domain/repositories/IMetadataRepository.ts&#45;&gt;src/domain/entities/index.ts -->
<g id="edge29" class="edge">
<title>src/domain/repositories/IMetadataRepository.ts&#45;&gt;src/domain/entities/index.ts</title>
<path fill="none" stroke="#000000" stroke-opacity="0.200000" d="M1455.8,-166.92C1462.09,-165.41 1468.41,-163.76 1474.38,-162 1477.75,-161 1481.24,-159.86 1484.7,-158.65"/>
<polygon fill="none" stroke="#000000" stroke-opacity="0.200000" points="1485.37,-160.65 1490.29,-156.63 1483.94,-156.7 1485.37,-160.65"/>
</g>
<!-- src/domain/repositories/IVideoFacade.ts&#45;&gt;src/domain/entities/index.ts -->
<g id="edge30" class="edge">
<title>src/domain/repositories/IVideoFacade.ts&#45;&gt;src/domain/entities/index.ts</title>
<path fill="none" stroke="#000000" stroke-opacity="0.200000" d="M1444.57,-122.52C1454.39,-124.65 1464.82,-127.18 1474.38,-130 1477.75,-131 1481.24,-132.14 1484.7,-133.35"/>
<polygon fill="none" stroke="#000000" stroke-opacity="0.200000" points="1483.94,-135.3 1490.29,-135.37 1485.37,-131.35 1483.94,-135.3"/>
</g>
<!-- src/domain/repositories/IVideoRepository.ts&#45;&gt;src/domain/entities/index.ts -->
<g id="edge31" class="edge">
<title>src/domain/repositories/IVideoRepository.ts&#45;&gt;src/domain/entities/index.ts</title>
<path fill="none" stroke="#000000" stroke-opacity="0.200000" d="M1451.48,-146C1461.97,-146 1472.88,-146 1482.7,-146"/>
<polygon fill="none" stroke="#000000" stroke-opacity="0.200000" points="1482.46,-148.1 1488.46,-146 1482.46,-143.9 1482.46,-148.1"/>
</g>
<!-- src/domain/valueObjects/VideoStorageDtoMapper.ts&#45;&gt;src/domain/entities/index.ts -->
<g id="edge35" class="edge">
<title>src/domain/valueObjects/VideoStorageDtoMapper.ts&#45;&gt;src/domain/entities/index.ts</title>
<path fill="none" stroke="#000000" stroke-opacity="0.200000" d="M1450.81,-229.97C1459.21,-226.76 1467.48,-222.54 1474.38,-217 1492.09,-202.77 1503.98,-178.9 1510.46,-162.81"/>
<polygon fill="none" stroke="#000000" stroke-opacity="0.200000" points="1512.34,-163.79 1512.52,-157.44 1508.41,-162.29 1512.34,-163.79"/>
</g>
<!-- src/infrastructure/database/DatabaseConnection.ts -->
<g id="node31" class="node">
<title>src/infrastructure/database/DatabaseConnection.ts</title>
<g id="a_node31"><a xlink:href="src/infrastructure/database/DatabaseConnection.ts" xlink:title="DatabaseConnection.ts">
<path fill="#ddfeff" stroke="black" d="M1230.58,-424.62C1230.58,-424.62 1129.92,-424.62 1129.92,-424.62 1126.71,-424.62 1123.5,-421.42 1123.5,-418.21 1123.5,-418.21 1123.5,-411.79 1123.5,-411.79 1123.5,-408.58 1126.71,-405.38 1129.92,-405.38 1129.92,-405.38 1230.58,-405.38 1230.58,-405.38 1233.79,-405.38 1237,-408.58 1237,-411.79 1237,-411.79 1237,-418.21 1237,-418.21 1237,-421.42 1233.79,-424.62 1230.58,-424.62"/>
<text text-anchor="start" x="1131.5" y="-412.07" font-family="Helvetica,sans-Serif" font-size="9.00">DatabaseConnection.ts</text>
</a>
</g>
</g>
<!-- src/infrastructure/repository/MetadataRepository.ts -->
<g id="node34" class="node">
<title>src/infrastructure/repository/MetadataRepository.ts</title>
<g id="a_node34"><a xlink:href="src/infrastructure/repository/MetadataRepository.ts" xlink:title="MetadataRepository.ts">
<path fill="#ddfeff" stroke="black" d="M1093.08,-409.62C1093.08,-409.62 998.42,-409.62 998.42,-409.62 995.21,-409.62 992,-406.42 992,-403.21 992,-403.21 992,-396.79 992,-396.79 992,-393.58 995.21,-390.38 998.42,-390.38 998.42,-390.38 1093.08,-390.38 1093.08,-390.38 1096.29,-390.38 1099.5,-393.58 1099.5,-396.79 1099.5,-396.79 1099.5,-403.21 1099.5,-403.21 1099.5,-406.42 1096.29,-409.62 1093.08,-409.62"/>
<text text-anchor="start" x="1000" y="-397.07" font-family="Helvetica,sans-Serif" font-size="9.00">MetadataRepository.ts</text>
</a>
</g>
</g>
<!-- src/infrastructure/repository/index.ts&#45;&gt;src/infrastructure/repository/MetadataRepository.ts -->
<g id="edge45" class="edge">
<title>src/infrastructure/repository/index.ts&#45;&gt;src/infrastructure/repository/MetadataRepository.ts</title>
<path fill="none" stroke="#000000" stroke-width="2" stroke-opacity="0.200000" d="M978.05,-419.98C982.67,-418.25 987.46,-416.52 1007.73,-410.07"/>
<polygon fill="#000000" fill-opacity="0.200000" stroke="#000000" stroke-width="2" stroke-opacity="0.200000" points="1010.54,-408.68 1014.44,-416.78 1006.34,-412.88 1010.54,-408.68"/>
</g>
<!-- src/infrastructure/repository/VideoRepository.ts -->
<g id="node35" class="node">
<title>src/infrastructure/repository/VideoRepository.ts</title>
<g id="a_node35"><a xlink:href="src/infrastructure/repository/VideoRepository.ts" xlink:title="VideoRepository.ts">
<path fill="#ddfeff" stroke="black" d="M1085.96,-440.62C1085.96,-440.62 1005.54,-440.62 1005.54,-440.62 1002.33,-440.62 999.12,-437.42 999.12,-434.21 999.12,-434.21 999.12,-427.79 999.12,-427.79 999.12,-424.58 1002.33,-421.38 1005.54,-421.38 1005.54,-421.38 1085.96,-421.38 1085.96,-421.38 1089.17,-421.38 1092.38,-424.58 1092.38,-427.79 1092.38,-427.79 1092.38,-434.21 1092.38,-434.21 1092.38,-437.42 1089.17,-440.62 1085.96,-440.62"/>
<text text-anchor="start" x="1007.12" y="-428.07" font-family="Helvetica,sans-Serif" font-size="9.00">VideoRepository.ts</text>
</a>
</g>
</g>
<!-- src/infrastructure/repository/index.ts&#45;&gt;src/infrastructure/repository/VideoRepository.ts -->
<g id="edge46" class="edge">
<title>src/infrastructure/repository/index.ts&#45;&gt;src/infrastructure/repository/VideoRepository.ts</title>
<path fill="none" stroke="#000000" stroke-width="2" stroke-opacity="0.200000" d="M979.05,-430.28C985.19,-430.35 991.93,-430.42 998.67,-430.5"/>
<polygon fill="#000000" fill-opacity="0.200000" stroke="#000000" stroke-width="2" stroke-opacity="0.200000" points="1001.47,-429.1 1005.37,-437.2 997.27,-433.3 1001.47,-429.1"/>
</g>
<!-- src/infrastructure/video/HTMLVideoProcessor.ts -->
<g id="node37" class="node">
<title>src/infrastructure/video/HTMLVideoProcessor.ts</title>
<g id="a_node37"><a xlink:href="src/infrastructure/video/HTMLVideoProcessor.ts" xlink:title="HTMLVideoProcessor.ts">
<path fill="#ddfeff" stroke="black" d="M1231.71,-510.62C1231.71,-510.62 1128.79,-510.62 1128.79,-510.62 1125.58,-510.62 1122.38,-507.42 1122.38,-504.21 1122.38,-504.21 1122.38,-497.79 1122.38,-497.79 1122.38,-494.58 1125.58,-491.38 1128.79,-491.38 1128.79,-491.38 1231.71,-491.38 1231.71,-491.38 1234.92,-491.38 1238.12,-494.58 1238.12,-497.79 1238.12,-497.79 1238.12,-504.21 1238.12,-504.21 1238.12,-507.42 1234.92,-510.62 1231.71,-510.62"/>
<text text-anchor="start" x="1130.38" y="-498.07" font-family="Helvetica,sans-Serif" font-size="9.00">HTMLVideoProcessor.ts</text>
</a>
</g>
</g>
<!-- src/infrastructure/video/index.ts&#45;&gt;src/infrastructure/video/HTMLVideoProcessor.ts -->
<g id="edge52" class="edge">
<title>src/infrastructure/video/index.ts&#45;&gt;src/infrastructure/video/HTMLVideoProcessor.ts</title>
<path fill="none" stroke="#000000" stroke-width="2" stroke-opacity="0.200000" d="M973.18,-504.02C979.1,-506.47 985.68,-508.75 1122.19,-510.83"/>
<polygon fill="#000000" fill-opacity="0.200000" stroke="#000000" stroke-width="2" stroke-opacity="0.200000" points="1125,-509.43 1128.9,-517.53 1120.8,-513.63 1125,-509.43"/>
</g>
<!-- src/infrastructure/video/VideoFileParser.ts -->
<g id="node38" class="node">
<title>src/infrastructure/video/VideoFileParser.ts</title>
<g id="a_node38"><a xlink:href="src/infrastructure/video/VideoFileParser.ts" xlink:title="VideoFileParser.ts">
<path fill="#ddfeff" stroke="black" d="M1085.21,-503.62C1085.21,-503.62 1006.29,-503.62 1006.29,-503.62 1003.08,-503.62 999.88,-500.42 999.88,-497.21 999.88,-497.21 999.88,-490.79 999.88,-490.79 999.88,-487.58 1003.08,-484.38 1006.29,-484.38 1006.29,-484.38 1085.21,-484.38 1085.21,-484.38 1088.42,-484.38 1091.62,-487.58 1091.62,-490.79 1091.62,-490.79 1091.62,-497.21 1091.62,-497.21 1091.62,-500.42 1088.42,-503.62 1085.21,-503.62"/>
<text text-anchor="start" x="1007.88" y="-491.07" font-family="Helvetica,sans-Serif" font-size="9.00">VideoFileParser.ts</text>
</a>
</g>
</g>
<!-- src/infrastructure/video/index.ts&#45;&gt;src/infrastructure/video/VideoFileParser.ts -->
<g id="edge53" class="edge">
<title>src/infrastructure/video/index.ts&#45;&gt;src/infrastructure/video/VideoFileParser.ts</title>
<path fill="none" stroke="#000000" stroke-width="2" stroke-opacity="0.200000" d="M979.05,-494C985.51,-494 992.62,-494 999.71,-494"/>
<polygon fill="#000000" fill-opacity="0.200000" stroke="#000000" stroke-width="2" stroke-opacity="0.200000" points="1002.52,-492.61 1006.42,-500.71 998.32,-496.81 1002.52,-492.61"/>
</g>
<!-- src/infrastructure/repository/MetadataRepository.ts&#45;&gt;src/domain/index.ts -->
<g id="edge42" class="edge">
<title>src/infrastructure/repository/MetadataRepository.ts&#45;&gt;src/domain/index.ts</title>
<path fill="none" stroke="#000000" stroke-width="2" stroke-opacity="0.200000" d="M1072.56,-390C1084,-384.8 1097.18,-377.7 1107.5,-369 1134.49,-346.25 1157.21,-311.5 1169.47,-290.64"/>
<polygon fill="#000000" fill-opacity="0.200000" stroke="#000000" stroke-width="2" stroke-opacity="0.200000" points="1171.26,-291.75 1172.42,-285.5 1167.62,-289.66 1171.26,-291.75"/>
</g>
<!-- src/infrastructure/repository/MetadataRepository.ts&#45;&gt;src/infrastructure/database/DatabaseConnection.ts -->
<g id="edge41" class="edge">
<title>src/infrastructure/repository/MetadataRepository.ts&#45;&gt;src/infrastructure/database/DatabaseConnection.ts</title>
<path fill="none" stroke="#000000" stroke-width="2" stroke-opacity="0.200000" d="M1099.88,-406.01C1104.65,-406.55 1109.51,-407.11 1114.37,-407.65"/>
<polygon fill="#000000" fill-opacity="0.200000" stroke="#000000" stroke-width="2" stroke-opacity="0.200000" points="1113.87,-409.71 1120.07,-408.3 1114.34,-405.54 1113.87,-409.71"/>
</g>
<!-- src/infrastructure/repository/VideoRepository.ts&#45;&gt;src/domain/index.ts -->
<g id="edge44" class="edge">
<title>src/infrastructure/repository/VideoRepository.ts&#45;&gt;src/domain/index.ts</title>
<path fill="none" stroke="#000000" stroke-width="2" stroke-opacity="0.200000" d="M1092.69,-424.92C1098.1,-422.75 1103.22,-419.85 1107.5,-416 1115.24,-409.05 1111.29,-403.51 1115.5,-394 1132.2,-356.29 1155.58,-314.06 1168.89,-290.79"/>
<polygon fill="#000000" fill-opacity="0.200000" stroke="#000000" stroke-width="2" stroke-opacity="0.200000" points="1170.62,-292 1171.8,-285.75 1166.98,-289.9 1170.62,-292"/>
</g>
<!-- src/infrastructure/repository/VideoRepository.ts&#45;&gt;src/infrastructure/database/DatabaseConnection.ts -->
<g id="edge43" class="edge">
<title>src/infrastructure/repository/VideoRepository.ts&#45;&gt;src/infrastructure/database/DatabaseConnection.ts</title>
<path fill="none" stroke="#000000" stroke-width="2" stroke-opacity="0.200000" d="M1092.72,-425.45C1099.81,-424.59 1107.25,-423.69 1114.65,-422.8"/>
<polygon fill="#000000" fill-opacity="0.200000" stroke="#000000" stroke-width="2" stroke-opacity="0.200000" points="1114.6,-424.92 1120.31,-422.12 1114.1,-420.75 1114.6,-424.92"/>
</g>
<!-- src/infrastructure/services/VideoMetadataFacade.ts&#45;&gt;src/domain/index.ts -->
<g id="edge47" class="edge">
<title>src/infrastructure/services/VideoMetadataFacade.ts&#45;&gt;src/domain/index.ts</title>
<path fill="none" stroke="#000000" stroke-width="2" stroke-opacity="0.200000" d="M855.01,-418.02C868.84,-406.71 893.06,-388.61 917,-379 996.81,-346.95 1031.29,-384.86 1107.5,-345 1132.59,-331.88 1154.41,-306.93 1167.21,-290.13"/>
<polygon fill="#000000" fill-opacity="0.200000" stroke="#000000" stroke-width="2" stroke-opacity="0.200000" points="1168.76,-291.56 1170.63,-285.49 1165.38,-289.07 1168.76,-291.56"/>
</g>
<!-- src/infrastructure/services/VideoMetadataFacade.ts&#45;&gt;src/infrastructure/repository/index.ts -->
<g id="edge48" class="edge">
<title>src/infrastructure/services/VideoMetadataFacade.ts&#45;&gt;src/infrastructure/repository/index.ts</title>
<path fill="none" stroke="#000000" stroke-width="2" stroke-opacity="0.200000" d="M901.28,-429.08C906.26,-429.17 911.18,-429.26 915.89,-429.35"/>
<polygon fill="#000000" fill-opacity="0.200000" stroke="#000000" stroke-width="2" stroke-opacity="0.200000" points="915.56,-431.44 921.6,-429.45 915.64,-427.24 915.56,-431.44"/>
</g>
<!-- src/infrastructure/video/VideoFileParser.ts&#45;&gt;src/domain/index.ts -->
<g id="edge51" class="edge">
<title>src/infrastructure/video/VideoFileParser.ts&#45;&gt;src/domain/index.ts</title>
<path fill="none" stroke="#000000" stroke-width="2" stroke-opacity="0.200000" d="M1091.19,-483.94C1097.47,-480.75 1103.23,-476.54 1107.5,-471 1118,-457.37 1110.51,-410.46 1115.5,-394 1127.4,-354.74 1152.27,-313.35 1167.19,-290.6"/>
<polygon fill="#000000" fill-opacity="0.200000" stroke="#000000" stroke-width="2" stroke-opacity="0.200000" points="1168.93,-291.77 1170.51,-285.62 1165.44,-289.44 1168.93,-291.77"/>
</g>
<!-- src/infrastructure/video/VideoFileParser.ts&#45;&gt;src/infrastructure/video/HTMLVideoProcessor.ts -->
<g id="edge50" class="edge">
<title>src/infrastructure/video/VideoFileParser.ts&#45;&gt;src/infrastructure/video/HTMLVideoProcessor.ts</title>
<path fill="none" stroke="#000000" stroke-width="2" stroke-opacity="0.200000" d="M1091.98,-496.39C1098.98,-496.76 1106.34,-497.15 1113.68,-497.54"/>
<polygon fill="#000000" fill-opacity="0.200000" stroke="#000000" stroke-width="2" stroke-opacity="0.200000" points="1113.15,-499.61 1119.25,-497.83 1113.37,-495.42 1113.15,-499.61"/>
</g>
<!-- src/main.ts -->
<g id="node39" class="node">
<title>src/main.ts</title>
<g id="a_node39"><a xlink:href="src/main.ts" xlink:title="main.ts">
<path fill="#ddfeff" stroke="black" d="M63.58,-441.62C63.58,-441.62 22.42,-441.62 22.42,-441.62 19.21,-441.62 16,-438.42 16,-435.21 16,-435.21 16,-428.79 16,-428.79 16,-425.58 19.21,-422.38 22.42,-422.38 22.42,-422.38 63.58,-422.38 63.58,-422.38 66.79,-422.38 70,-425.58 70,-428.79 70,-428.79 70,-435.21 70,-435.21 70,-438.42 66.79,-441.62 63.58,-441.62"/>
<text text-anchor="start" x="27.62" y="-429.07" font-family="Helvetica,sans-Serif" font-size="9.00">main.ts</text>
</a>
</g>
</g>
<!-- src/main.ts&#45;&gt;src/App.vue -->
<g id="edge54" class="edge">
<title>src/main.ts&#45;&gt;src/App.vue</title>
<path fill="none" stroke="#000000" stroke-width="2" stroke-opacity="0.200000" d="M70.44,-432C71.58,-432 72.74,-432 73.9,-432"/>
<polygon fill="#000000" fill-opacity="0.200000" stroke="#000000" stroke-width="2" stroke-opacity="0.200000" points="73.77,-434.1 79.77,-432 73.77,-429.9 73.77,-434.1"/>
</g>
</g>
</svg>
