<?xml version="1.0" encoding="UTF-8" standalone="no"?>
<!DOCTYPE svg PUBLIC "-//W3C//DTD SVG 1.1//EN"
 "http://www.w3.org/Graphics/SVG/1.1/DTD/svg11.dtd">
<!-- Generated by graphviz version 2.43.0 (0)
 -->
<!-- Title: dependency&#45;cruiser output Pages: 1 -->
<svg width="1580pt" height="568pt"
 viewBox="0.00 0.00 1580.00 568.00" xmlns="http://www.w3.org/2000/svg" xmlns:xlink="http://www.w3.org/1999/xlink">
<g id="graph0" class="graph" transform="scale(1 1) rotate(0) translate(4 564)">
<title>dependency&#45;cruiser output</title>
<polygon fill="white" stroke="transparent" points="-4,4 -4,-564 1576,-564 1576,4 -4,4"/>
<g id="clust1" class="cluster">
<title>cluster_src</title>
<path fill="#ffffff" stroke="black" stroke-width="2" d="M20,-8C20,-8 1552,-8 1552,-8 1558,-8 1564,-14 1564,-20 1564,-20 1564,-540 1564,-540 1564,-546 1558,-552 1552,-552 1552,-552 20,-552 20,-552 14,-552 8,-546 8,-540 8,-540 8,-20 8,-20 8,-14 14,-8 20,-8"/>
<text text-anchor="middle" x="786" y="-540.8" font-family="Helvetica,sans-Serif" font-weight="bold" font-size="9.00">src</text>
</g>
<g id="clust2" class="cluster">
<title>cluster_src/application</title>
<path fill="#ffffff" stroke="black" stroke-width="2" d="M532,-16C532,-16 1006,-16 1006,-16 1012,-16 1018,-22 1018,-28 1018,-28 1018,-126 1018,-126 1018,-132 1012,-138 1006,-138 1006,-138 532,-138 532,-138 526,-138 520,-132 520,-126 520,-126 520,-28 520,-28 520,-22 526,-16 532,-16"/>
<text text-anchor="middle" x="769" y="-126.8" font-family="Helvetica,sans-Serif" font-weight="bold" font-size="9.00">application</text>
</g>
<g id="clust3" class="cluster">
<title>cluster_src/application/services</title>
<path fill="#ffffff" stroke="black" stroke-width="2" d="M602,-30C602,-30 998,-30 998,-30 1004,-30 1010,-36 1010,-42 1010,-42 1010,-100 1010,-100 1010,-106 1004,-112 998,-112 998,-112 602,-112 602,-112 596,-112 590,-106 590,-100 590,-100 590,-42 590,-42 590,-36 596,-30 602,-30"/>
<text text-anchor="middle" x="800" y="-100.8" font-family="Helvetica,sans-Serif" font-weight="bold" font-size="9.00">services</text>
</g>
<g id="clust4" class="cluster">
<title>cluster_src/components</title>
<path fill="#ffffff" stroke="black" stroke-width="2" d="M271,-16C271,-16 500,-16 500,-16 506,-16 512,-22 512,-28 512,-28 512,-176 512,-176 512,-182 506,-188 500,-188 500,-188 271,-188 271,-188 265,-188 259,-182 259,-176 259,-176 259,-28 259,-28 259,-22 265,-16 271,-16"/>
<text text-anchor="middle" x="385.5" y="-176.8" font-family="Helvetica,sans-Serif" font-weight="bold" font-size="9.00">components</text>
</g>
<g id="clust5" class="cluster">
<title>cluster_src/components/inputs</title>
<path fill="#ffffff" stroke="black" stroke-width="2" d="M297.5,-110C297.5,-110 364.5,-110 364.5,-110 370.5,-110 376.5,-116 376.5,-122 376.5,-122 376.5,-150 376.5,-150 376.5,-156 370.5,-162 364.5,-162 364.5,-162 297.5,-162 297.5,-162 291.5,-162 285.5,-156 285.5,-150 285.5,-150 285.5,-122 285.5,-122 285.5,-116 291.5,-110 297.5,-110"/>
<text text-anchor="middle" x="331" y="-150.8" font-family="Helvetica,sans-Serif" font-weight="bold" font-size="9.00">inputs</text>
</g>
<g id="clust6" class="cluster">
<title>cluster_src/components/utils</title>
<path fill="#ffffff" stroke="black" stroke-width="2" d="M279,-50C279,-50 383,-50 383,-50 389,-50 395,-56 395,-62 395,-62 395,-90 395,-90 395,-96 389,-102 383,-102 383,-102 279,-102 279,-102 273,-102 267,-96 267,-90 267,-90 267,-62 267,-62 267,-56 273,-50 279,-50"/>
<text text-anchor="middle" x="331" y="-90.8" font-family="Helvetica,sans-Serif" font-weight="bold" font-size="9.00">utils</text>
</g>
<g id="clust7" class="cluster">
<title>cluster_src/domain</title>
<path fill="#ffffff" stroke="black" stroke-width="2" d="M1211.5,-270C1211.5,-270 1544,-270 1544,-270 1550,-270 1556,-276 1556,-282 1556,-282 1556,-514 1556,-514 1556,-520 1550,-526 1544,-526 1544,-526 1211.5,-526 1211.5,-526 1205.5,-526 1199.5,-520 1199.5,-514 1199.5,-514 1199.5,-282 1199.5,-282 1199.5,-276 1205.5,-270 1211.5,-270"/>
<text text-anchor="middle" x="1377.75" y="-514.8" font-family="Helvetica,sans-Serif" font-weight="bold" font-size="9.00">domain</text>
</g>
<g id="clust8" class="cluster">
<title>cluster_src/domain/constants</title>
<path fill="#ffffff" stroke="black" stroke-width="2" d="M1363.5,-278C1363.5,-278 1409.5,-278 1409.5,-278 1415.5,-278 1421.5,-284 1421.5,-290 1421.5,-290 1421.5,-318 1421.5,-318 1421.5,-324 1415.5,-330 1409.5,-330 1409.5,-330 1363.5,-330 1363.5,-330 1357.5,-330 1351.5,-324 1351.5,-318 1351.5,-318 1351.5,-290 1351.5,-290 1351.5,-284 1357.5,-278 1363.5,-278"/>
<text text-anchor="middle" x="1386.5" y="-318.8" font-family="Helvetica,sans-Serif" font-weight="bold" font-size="9.00">constants</text>
</g>
<g id="clust9" class="cluster">
<title>cluster_src/domain/entities</title>
<path fill="#ffffff" stroke="black" stroke-width="2" d="M1474,-348C1474,-348 1536,-348 1536,-348 1542,-348 1548,-354 1548,-360 1548,-360 1548,-418 1548,-418 1548,-424 1542,-430 1536,-430 1536,-430 1474,-430 1474,-430 1468,-430 1462,-424 1462,-418 1462,-418 1462,-360 1462,-360 1462,-354 1468,-348 1474,-348"/>
<text text-anchor="middle" x="1505" y="-418.8" font-family="Helvetica,sans-Serif" font-weight="bold" font-size="9.00">entities</text>
</g>
<g id="clust10" class="cluster">
<title>cluster_src/domain/repositories</title>
<path fill="#ffffff" stroke="black" stroke-width="2" d="M1331,-348C1331,-348 1442,-348 1442,-348 1448,-348 1454,-354 1454,-360 1454,-360 1454,-418 1454,-418 1454,-424 1448,-430 1442,-430 1442,-430 1331,-430 1331,-430 1325,-430 1319,-424 1319,-418 1319,-418 1319,-360 1319,-360 1319,-354 1325,-348 1331,-348"/>
<text text-anchor="middle" x="1386.5" y="-418.8" font-family="Helvetica,sans-Serif" font-weight="bold" font-size="9.00">repositories</text>
</g>
<g id="clust11" class="cluster">
<title>cluster_src/domain/services</title>
<path fill="#ffffff" stroke="black" stroke-width="2" d="M1343.5,-448C1343.5,-448 1429.5,-448 1429.5,-448 1435.5,-448 1441.5,-454 1441.5,-460 1441.5,-460 1441.5,-488 1441.5,-488 1441.5,-494 1435.5,-500 1429.5,-500 1429.5,-500 1343.5,-500 1343.5,-500 1337.5,-500 1331.5,-494 1331.5,-488 1331.5,-488 1331.5,-460 1331.5,-460 1331.5,-454 1337.5,-448 1343.5,-448"/>
<text text-anchor="middle" x="1386.5" y="-488.8" font-family="Helvetica,sans-Serif" font-weight="bold" font-size="9.00">services</text>
</g>
<g id="clust12" class="cluster">
<title>cluster_src/infrastructure</title>
<path fill="#ffffff" stroke="black" stroke-width="2" d="M910.5,-146C910.5,-146 1299,-146 1299,-146 1305,-146 1311,-152 1311,-158 1311,-158 1311,-250 1311,-250 1311,-256 1305,-262 1299,-262 1299,-262 910.5,-262 910.5,-262 904.5,-262 898.5,-256 898.5,-250 898.5,-250 898.5,-158 898.5,-158 898.5,-152 904.5,-146 910.5,-146"/>
<text text-anchor="middle" x="1104.75" y="-250.8" font-family="Helvetica,sans-Serif" font-weight="bold" font-size="9.00">infrastructure</text>
</g>
<g id="clust13" class="cluster">
<title>cluster_src/infrastructure/database</title>
<path fill="#ffffff" stroke="black" stroke-width="2" d="M1178,-169C1178,-169 1291,-169 1291,-169 1297,-169 1303,-175 1303,-181 1303,-181 1303,-209 1303,-209 1303,-215 1297,-221 1291,-221 1291,-221 1178,-221 1178,-221 1172,-221 1166,-215 1166,-209 1166,-209 1166,-181 1166,-181 1166,-175 1172,-169 1178,-169"/>
<text text-anchor="middle" x="1234.5" y="-209.8" font-family="Helvetica,sans-Serif" font-weight="bold" font-size="9.00">database</text>
</g>
<g id="clust14" class="cluster">
<title>cluster_src/infrastructure/repository</title>
<path fill="#ffffff" stroke="black" stroke-width="2" d="M1038,-154C1038,-154 1146,-154 1146,-154 1152,-154 1158,-160 1158,-166 1158,-166 1158,-224 1158,-224 1158,-230 1152,-236 1146,-236 1146,-236 1038,-236 1038,-236 1032,-236 1026,-230 1026,-224 1026,-224 1026,-166 1026,-166 1026,-160 1032,-154 1038,-154"/>
<text text-anchor="middle" x="1092" y="-224.8" font-family="Helvetica,sans-Serif" font-weight="bold" font-size="9.00">repository</text>
</g>
<g id="clust15" class="cluster">
<title>cluster_src/stores</title>
<path fill="#ffffff" stroke="black" stroke-width="2" d="M415,-196C415,-196 500,-196 500,-196 506,-196 512,-202 512,-208 512,-208 512,-266 512,-266 512,-272 506,-278 500,-278 500,-278 415,-278 415,-278 409,-278 403,-272 403,-266 403,-266 403,-208 403,-208 403,-202 409,-196 415,-196"/>
<text text-anchor="middle" x="457.5" y="-266.8" font-family="Helvetica,sans-Serif" font-weight="bold" font-size="9.00">stores</text>
</g>
<g id="clust16" class="cluster">
<title>cluster_src/views</title>
<path fill="#ffffff" stroke="black" stroke-width="2" d="M157,-166C157,-166 239,-166 239,-166 245,-166 251,-172 251,-178 251,-178 251,-236 251,-236 251,-242 245,-248 239,-248 239,-248 157,-248 157,-248 151,-248 145,-242 145,-236 145,-236 145,-178 145,-178 145,-172 151,-166 157,-166"/>
<text text-anchor="middle" x="198" y="-236.8" font-family="Helvetica,sans-Serif" font-weight="bold" font-size="9.00">views</text>
</g>
<!-- src/App.vue -->
<g id="node1" class="node">
<title>src/App.vue</title>
<g id="a_node1"><a xlink:href="src/App.vue" xlink:title="App.vue">
<path fill="#41f083" stroke="black" d="M131,-192C131,-192 89,-192 89,-192 86,-192 83,-189 83,-186 83,-186 83,-180 83,-180 83,-177 86,-174 89,-174 89,-174 131,-174 131,-174 134,-174 137,-177 137,-180 137,-180 137,-186 137,-186 137,-189 134,-192 131,-192"/>
<text text-anchor="start" x="91" y="-180.8" font-family="Helvetica,sans-Serif" font-size="9.00">App.vue</text>
</a>
</g>
</g>
<!-- src/components/utils/DiagnosticsPanel.vue -->
<g id="node2" class="node">
<title>src/components/utils/DiagnosticsPanel.vue</title>
<g id="a_node2"><a xlink:href="src/components/utils/DiagnosticsPanel.vue" xlink:title="DiagnosticsPanel.vue">
<path fill="#41f083" stroke="black" d="M381,-76C381,-76 281,-76 281,-76 278,-76 275,-73 275,-70 275,-70 275,-64 275,-64 275,-61 278,-58 281,-58 281,-58 381,-58 381,-58 384,-58 387,-61 387,-64 387,-64 387,-70 387,-70 387,-73 384,-76 381,-76"/>
<text text-anchor="start" x="283" y="-64.8" font-family="Helvetica,sans-Serif" font-size="9.00">DiagnosticsPanel.vue</text>
</a>
</g>
</g>
<!-- src/App.vue&#45;&gt;src/components/utils/DiagnosticsPanel.vue -->
<g id="edge1" class="edge">
<title>src/App.vue&#45;&gt;src/components/utils/DiagnosticsPanel.vue</title>
<path fill="none" stroke="#000000" stroke-width="2" stroke-opacity="0.200000" d="M126.13,-173.87C131.99,-170.39 138.77,-166.45 145,-163 202.26,-131.33 270.93,-96.5 306.32,-78.78"/>
<polygon fill="#000000" fill-opacity="0.200000" stroke="#000000" stroke-width="2" stroke-opacity="0.200000" points="307.28,-80.65 311.71,-76.09 305.41,-76.89 307.28,-80.65"/>
</g>
<!-- src/views/NavBar.vue -->
<g id="node3" class="node">
<title>src/views/NavBar.vue</title>
<g id="a_node3"><a xlink:href="src/views/NavBar.vue" xlink:title="NavBar.vue">
<path fill="#41f083" stroke="black" d="M226,-222C226,-222 170,-222 170,-222 167,-222 164,-219 164,-216 164,-216 164,-210 164,-210 164,-207 167,-204 170,-204 170,-204 226,-204 226,-204 229,-204 232,-207 232,-210 232,-210 232,-216 232,-216 232,-219 229,-222 226,-222"/>
<text text-anchor="start" x="172" y="-210.8" font-family="Helvetica,sans-Serif" font-size="9.00">NavBar.vue</text>
</a>
</g>
</g>
<!-- src/App.vue&#45;&gt;src/views/NavBar.vue -->
<g id="edge2" class="edge">
<title>src/App.vue&#45;&gt;src/views/NavBar.vue</title>
<path fill="none" stroke="#000000" stroke-width="2" stroke-opacity="0.200000" d="M130.23,-192.02C135.01,-194.11 140.15,-196.24 145,-198 149.13,-199.5 153.48,-200.95 157.85,-202.32"/>
<polygon fill="#000000" fill-opacity="0.200000" stroke="#000000" stroke-width="2" stroke-opacity="0.200000" points="157.42,-204.39 163.77,-204.14 158.65,-200.37 157.42,-204.39"/>
</g>
<!-- src/views/VideoGallery.vue -->
<g id="node4" class="node">
<title>src/views/VideoGallery.vue</title>
<g id="a_node4"><a xlink:href="src/views/VideoGallery.vue" xlink:title="VideoGallery.vue">
<path fill="#41f083" stroke="black" d="M237,-192C237,-192 159,-192 159,-192 156,-192 153,-189 153,-186 153,-186 153,-180 153,-180 153,-177 156,-174 159,-174 159,-174 237,-174 237,-174 240,-174 243,-177 243,-180 243,-180 243,-186 243,-186 243,-189 240,-192 237,-192"/>
<text text-anchor="start" x="161" y="-180.8" font-family="Helvetica,sans-Serif" font-size="9.00">VideoGallery.vue</text>
</a>
</g>
</g>
<!-- src/App.vue&#45;&gt;src/views/VideoGallery.vue -->
<g id="edge3" class="edge">
<title>src/App.vue&#45;&gt;src/views/VideoGallery.vue</title>
<path fill="none" stroke="#000000" stroke-width="2" stroke-opacity="0.200000" d="M137.27,-183C140.2,-183 143.26,-183 146.37,-183"/>
<polygon fill="#000000" fill-opacity="0.200000" stroke="#000000" stroke-width="2" stroke-opacity="0.200000" points="146.81,-185.1 152.81,-183 146.81,-180.9 146.81,-185.1"/>
</g>
<!-- src/stores/appStateStore.ts -->
<g id="node16" class="node">
<title>src/stores/appStateStore.ts</title>
<g id="a_node16"><a xlink:href="src/stores/appStateStore.ts" xlink:title="appStateStore.ts">
<path fill="#ddfeff" stroke="black" d="M498,-252C498,-252 417,-252 417,-252 414,-252 411,-249 411,-246 411,-246 411,-240 411,-240 411,-237 414,-234 417,-234 417,-234 498,-234 498,-234 501,-234 504,-237 504,-240 504,-240 504,-246 504,-246 504,-249 501,-252 498,-252"/>
<text text-anchor="start" x="419" y="-240.8" font-family="Helvetica,sans-Serif" font-size="9.00">appStateStore.ts</text>
</a>
</g>
</g>
<!-- src/components/utils/DiagnosticsPanel.vue&#45;&gt;src/stores/appStateStore.ts -->
<g id="edge14" class="edge">
<title>src/components/utils/DiagnosticsPanel.vue&#45;&gt;src/stores/appStateStore.ts</title>
<path fill="none" stroke="#000000" stroke-width="2" stroke-opacity="0.200000" d="M356.52,-76C370.29,-82.43 386.4,-92.52 395,-107 408.75,-130.17 386.02,-207.08 403,-228 403.82,-229.01 404.7,-229.96 405.64,-230.84"/>
<polygon fill="#000000" fill-opacity="0.200000" stroke="#000000" stroke-width="2" stroke-opacity="0.200000" points="404.7,-232.77 410.72,-234.78 407.27,-229.45 404.7,-232.77"/>
</g>
<!-- src/stores/videosStore.ts -->
<g id="node14" class="node">
<title>src/stores/videosStore.ts</title>
<g id="a_node14"><a xlink:href="src/stores/videosStore.ts" xlink:title="videosStore.ts">
<path fill="#ddfeff" stroke="black" d="M491.5,-222C491.5,-222 423.5,-222 423.5,-222 420.5,-222 417.5,-219 417.5,-216 417.5,-216 417.5,-210 417.5,-210 417.5,-207 420.5,-204 423.5,-204 423.5,-204 491.5,-204 491.5,-204 494.5,-204 497.5,-207 497.5,-210 497.5,-210 497.5,-216 497.5,-216 497.5,-219 494.5,-222 491.5,-222"/>
<text text-anchor="start" x="425.5" y="-210.8" font-family="Helvetica,sans-Serif" font-size="9.00">videosStore.ts</text>
</a>
</g>
</g>
<!-- src/views/NavBar.vue&#45;&gt;src/stores/videosStore.ts -->
<g id="edge33" class="edge">
<title>src/views/NavBar.vue&#45;&gt;src/stores/videosStore.ts</title>
<path fill="none" stroke="#000000" stroke-width="2" stroke-opacity="0.200000" d="M232.14,-213C277.69,-213 359.83,-213 411.08,-213"/>
<polygon fill="#000000" fill-opacity="0.200000" stroke="#000000" stroke-width="2" stroke-opacity="0.200000" points="411.17,-215.1 417.17,-213 411.17,-210.9 411.17,-215.1"/>
</g>
<!-- src/components/inputs/FileInput.vue -->
<g id="node15" class="node">
<title>src/components/inputs/FileInput.vue</title>
<g id="a_node15"><a xlink:href="src/components/inputs/FileInput.vue" xlink:title="FileInput.vue">
<path fill="#41f083" stroke="black" d="M362.5,-136C362.5,-136 299.5,-136 299.5,-136 296.5,-136 293.5,-133 293.5,-130 293.5,-130 293.5,-124 293.5,-124 293.5,-121 296.5,-118 299.5,-118 299.5,-118 362.5,-118 362.5,-118 365.5,-118 368.5,-121 368.5,-124 368.5,-124 368.5,-130 368.5,-130 368.5,-133 365.5,-136 362.5,-136"/>
<text text-anchor="start" x="301.5" y="-124.8" font-family="Helvetica,sans-Serif" font-size="9.00">FileInput.vue</text>
</a>
</g>
</g>
<!-- src/views/NavBar.vue&#45;&gt;src/components/inputs/FileInput.vue -->
<g id="edge31" class="edge">
<title>src/views/NavBar.vue&#45;&gt;src/components/inputs/FileInput.vue</title>
<path fill="none" stroke="#000000" stroke-width="2" stroke-opacity="0.200000" d="M232.08,-205.89C238.57,-203.83 245.17,-201.24 251,-198 278.18,-182.92 303.82,-156.92 318.16,-140.91"/>
<polygon fill="#000000" fill-opacity="0.200000" stroke="#000000" stroke-width="2" stroke-opacity="0.200000" points="319.84,-142.18 322.24,-136.29 316.69,-139.4 319.84,-142.18"/>
</g>
<!-- src/views/NavBar.vue&#45;&gt;src/stores/appStateStore.ts -->
<g id="edge32" class="edge">
<title>src/views/NavBar.vue&#45;&gt;src/stores/appStateStore.ts</title>
<path fill="none" stroke="#000000" stroke-width="2" stroke-opacity="0.200000" d="M222.88,-222.08C233.74,-225.81 246.86,-229.78 259,-232 307.74,-240.93 364.27,-243.29 404.33,-243.64"/>
<polygon fill="#000000" fill-opacity="0.200000" stroke="#000000" stroke-width="2" stroke-opacity="0.200000" points="404.61,-245.75 410.62,-243.69 404.63,-241.55 404.61,-245.75"/>
</g>
<!-- src/components/VideoCard.vue -->
<g id="node12" class="node">
<title>src/components/VideoCard.vue</title>
<g id="a_node12"><a xlink:href="src/components/VideoCard.vue" xlink:title="VideoCard.vue">
<path fill="#41f083" stroke="black" d="M366,-42C366,-42 296,-42 296,-42 293,-42 290,-39 290,-36 290,-36 290,-30 290,-30 290,-27 293,-24 296,-24 296,-24 366,-24 366,-24 369,-24 372,-27 372,-30 372,-30 372,-36 372,-36 372,-39 369,-42 366,-42"/>
<text text-anchor="start" x="298" y="-30.8" font-family="Helvetica,sans-Serif" font-size="9.00">VideoCard.vue</text>
</a>
</g>
</g>
<!-- src/views/VideoGallery.vue&#45;&gt;src/components/VideoCard.vue -->
<g id="edge34" class="edge">
<title>src/views/VideoGallery.vue&#45;&gt;src/components/VideoCard.vue</title>
<path fill="none" stroke="#000000" stroke-width="2" stroke-opacity="0.200000" d="M200.12,-173.99C203.68,-149.36 217.09,-80.54 259,-47 266.16,-41.27 275.01,-37.67 284.01,-35.45"/>
<polygon fill="#000000" fill-opacity="0.200000" stroke="#000000" stroke-width="2" stroke-opacity="0.200000" points="284.5,-37.49 289.92,-34.18 283.62,-33.38 284.5,-37.49"/>
</g>
<!-- src/views/VideoGallery.vue&#45;&gt;src/stores/videosStore.ts -->
<g id="edge36" class="edge">
<title>src/views/VideoGallery.vue&#45;&gt;src/stores/videosStore.ts</title>
<path fill="none" stroke="#000000" stroke-width="2" stroke-opacity="0.200000" d="M243.27,-188.16C290.19,-193.62 363.93,-202.22 411.23,-207.73"/>
<polygon fill="#000000" fill-opacity="0.200000" stroke="#000000" stroke-width="2" stroke-opacity="0.200000" points="411.24,-209.84 417.44,-208.45 411.72,-205.67 411.24,-209.84"/>
</g>
<!-- src/views/VideoGallery.vue&#45;&gt;src/stores/appStateStore.ts -->
<g id="edge35" class="edge">
<title>src/views/VideoGallery.vue&#45;&gt;src/stores/appStateStore.ts</title>
<path fill="none" stroke="#000000" stroke-width="2" stroke-opacity="0.200000" d="M233.7,-192.05C239.54,-193.85 245.49,-195.85 251,-198 254.7,-199.45 255.24,-200.7 259,-202 285.33,-211.14 355.29,-224.77 404.43,-233.77"/>
<polygon fill="#000000" fill-opacity="0.200000" stroke="#000000" stroke-width="2" stroke-opacity="0.200000" points="404.33,-235.88 410.61,-234.9 405.09,-231.75 404.33,-235.88"/>
</g>
<!-- src/application/index.ts -->
<g id="node5" class="node">
<title>src/application/index.ts</title>
<g id="a_node5"><a xlink:href="src/application/index.ts" xlink:title="index.ts">
<path fill="#ddfeff" stroke="black" d="M576,-71C576,-71 534,-71 534,-71 531,-71 528,-68 528,-65 528,-65 528,-59 528,-59 528,-56 531,-53 534,-53 534,-53 576,-53 576,-53 579,-53 582,-56 582,-59 582,-59 582,-65 582,-65 582,-68 579,-71 576,-71"/>
<text text-anchor="start" x="536.5" y="-59.8" font-family="Helvetica,sans-Serif" font-size="9.00">index.ts</text>
</a>
</g>
</g>
<!-- src/application/services/FiltersService.ts -->
<g id="node6" class="node">
<title>src/application/services/FiltersService.ts</title>
<g id="a_node6"><a xlink:href="src/application/services/FiltersService.ts" xlink:title="FiltersService.ts">
<path fill="#ddfeff" stroke="black" d="M692,-86C692,-86 617,-86 617,-86 614,-86 611,-83 611,-80 611,-80 611,-74 611,-74 611,-71 614,-68 617,-68 617,-68 692,-68 692,-68 695,-68 698,-71 698,-74 698,-74 698,-80 698,-80 698,-83 695,-86 692,-86"/>
<text text-anchor="start" x="619" y="-74.8" font-family="Helvetica,sans-Serif" font-size="9.00">FiltersService.ts</text>
</a>
</g>
</g>
<!-- src/application/index.ts&#45;&gt;src/application/services/FiltersService.ts -->
<g id="edge4" class="edge">
<title>src/application/index.ts&#45;&gt;src/application/services/FiltersService.ts</title>
<path fill="none" stroke="#000000" stroke-width="2" stroke-opacity="0.200000" d="M582.13,-66.02C589.14,-67.1 596.95,-68.3 604.77,-69.5"/>
<polygon fill="#000000" fill-opacity="0.200000" stroke="#000000" stroke-width="2" stroke-opacity="0.200000" points="604.48,-71.58 610.73,-70.42 605.12,-67.43 604.48,-71.58"/>
</g>
<!-- src/application/services/VideoMetadataService.ts -->
<g id="node7" class="node">
<title>src/application/services/VideoMetadataService.ts</title>
<g id="a_node7"><a xlink:href="src/application/services/VideoMetadataService.ts" xlink:title="VideoMetadataService.ts">
<path fill="#ddfeff" stroke="black" d="M846,-56C846,-56 730,-56 730,-56 727,-56 724,-53 724,-50 724,-50 724,-44 724,-44 724,-41 727,-38 730,-38 730,-38 846,-38 846,-38 849,-38 852,-41 852,-44 852,-44 852,-50 852,-50 852,-53 849,-56 846,-56"/>
<text text-anchor="start" x="732" y="-44.8" font-family="Helvetica,sans-Serif" font-size="9.00">VideoMetadataService.ts</text>
</a>
</g>
</g>
<!-- src/application/index.ts&#45;&gt;src/application/services/VideoMetadataService.ts -->
<g id="edge5" class="edge">
<title>src/application/index.ts&#45;&gt;src/application/services/VideoMetadataService.ts</title>
<path fill="none" stroke="#000000" stroke-width="2" stroke-opacity="0.200000" d="M562.98,-52.98C569.18,-45.76 578.96,-36.18 590,-32 644.67,-11.33 713.83,-24.82 753.98,-36.15"/>
<polygon fill="#000000" fill-opacity="0.200000" stroke="#000000" stroke-width="2" stroke-opacity="0.200000" points="753.82,-38.29 760.17,-37.95 754.99,-34.26 753.82,-38.29"/>
</g>
<!-- src/application/services/VideoParserService.ts -->
<g id="node8" class="node">
<title>src/application/services/VideoParserService.ts</title>
<g id="a_node8"><a xlink:href="src/application/services/VideoParserService.ts" xlink:title="VideoParserService.ts">
<path fill="#ddfeff" stroke="black" d="M705,-56C705,-56 604,-56 604,-56 601,-56 598,-53 598,-50 598,-50 598,-44 598,-44 598,-41 601,-38 604,-38 604,-38 705,-38 705,-38 708,-38 711,-41 711,-44 711,-44 711,-50 711,-50 711,-53 708,-56 705,-56"/>
<text text-anchor="start" x="606" y="-44.8" font-family="Helvetica,sans-Serif" font-size="9.00">VideoParserService.ts</text>
</a>
</g>
</g>
<!-- src/application/index.ts&#45;&gt;src/application/services/VideoParserService.ts -->
<g id="edge6" class="edge">
<title>src/application/index.ts&#45;&gt;src/application/services/VideoParserService.ts</title>
<path fill="none" stroke="#000000" stroke-width="2" stroke-opacity="0.200000" d="M582.13,-57.98C585.23,-57.5 588.49,-57 591.84,-56.49"/>
<polygon fill="#000000" fill-opacity="0.200000" stroke="#000000" stroke-width="2" stroke-opacity="0.200000" points="592.33,-58.54 597.94,-55.55 591.69,-54.38 592.33,-58.54"/>
</g>
<!-- src/application/services/VideoStorageDtoMapper.ts -->
<g id="node9" class="node">
<title>src/application/services/VideoStorageDtoMapper.ts</title>
<g id="a_node9"><a xlink:href="src/application/services/VideoStorageDtoMapper.ts" xlink:title="VideoStorageDtoMapper.ts">
<path fill="#ddfeff" stroke="black" d="M996,-56C996,-56 871,-56 871,-56 868,-56 865,-53 865,-50 865,-50 865,-44 865,-44 865,-41 868,-38 871,-38 871,-38 996,-38 996,-38 999,-38 1002,-41 1002,-44 1002,-44 1002,-50 1002,-50 1002,-53 999,-56 996,-56"/>
<text text-anchor="start" x="873" y="-44.8" font-family="Helvetica,sans-Serif" font-size="9.00">VideoStorageDtoMapper.ts</text>
</a>
</g>
</g>
<!-- src/application/services/VideoMetadataService.ts&#45;&gt;src/application/services/VideoStorageDtoMapper.ts -->
<g id="edge7" class="edge">
<title>src/application/services/VideoMetadataService.ts&#45;&gt;src/application/services/VideoStorageDtoMapper.ts</title>
<path fill="none" stroke="#000000" stroke-width="2" stroke-opacity="0.200000" d="M852.36,-47C854.39,-47 856.42,-47 858.46,-47"/>
<polygon fill="#000000" fill-opacity="0.200000" stroke="#000000" stroke-width="2" stroke-opacity="0.200000" points="858.58,-49.1 864.58,-47 858.58,-44.9 858.58,-49.1"/>
</g>
<!-- src/infrastructure/index.ts -->
<g id="node10" class="node">
<title>src/infrastructure/index.ts</title>
<g id="a_node10"><a xlink:href="src/infrastructure/index.ts" xlink:title="index.ts">
<path fill="#ddfeff" stroke="black" d="M954.5,-180C954.5,-180 912.5,-180 912.5,-180 909.5,-180 906.5,-177 906.5,-174 906.5,-174 906.5,-168 906.5,-168 906.5,-165 909.5,-162 912.5,-162 912.5,-162 954.5,-162 954.5,-162 957.5,-162 960.5,-165 960.5,-168 960.5,-168 960.5,-174 960.5,-174 960.5,-177 957.5,-180 954.5,-180"/>
<text text-anchor="start" x="915" y="-168.8" font-family="Helvetica,sans-Serif" font-size="9.00">index.ts</text>
</a>
</g>
</g>
<!-- src/application/services/VideoMetadataService.ts&#45;&gt;src/infrastructure/index.ts -->
<g id="edge8" class="edge">
<title>src/application/services/VideoMetadataService.ts&#45;&gt;src/infrastructure/index.ts</title>
<path fill="none" stroke="#000000" stroke-width="2" stroke-opacity="0.200000" d="M799.22,-56.36C813.71,-69.59 841.13,-94.43 865,-115 882.26,-129.87 902.4,-146.49 916.16,-157.73"/>
<polygon fill="#000000" fill-opacity="0.200000" stroke="#000000" stroke-width="2" stroke-opacity="0.200000" points="914.95,-159.45 920.93,-161.62 917.6,-156.2 914.95,-159.45"/>
</g>
<!-- src/application/services/VideoParserService.ts&#45;&gt;src/application/services/VideoMetadataService.ts -->
<g id="edge9" class="edge">
<title>src/application/services/VideoParserService.ts&#45;&gt;src/application/services/VideoMetadataService.ts</title>
<path fill="none" stroke="#000000" stroke-width="2" stroke-opacity="0.200000" d="M711.27,-47C713.37,-47 715.48,-47 717.6,-47"/>
<polygon fill="#000000" fill-opacity="0.200000" stroke="#000000" stroke-width="2" stroke-opacity="0.200000" points="717.96,-49.1 723.96,-47 717.96,-44.9 717.96,-49.1"/>
</g>
<!-- src/domain/index.ts -->
<g id="node11" class="node">
<title>src/domain/index.ts</title>
<g id="a_node11"><a xlink:href="src/domain/index.ts" xlink:title="index.ts">
<path fill="#ddfeff" stroke="black" d="M1255.5,-348C1255.5,-348 1213.5,-348 1213.5,-348 1210.5,-348 1207.5,-345 1207.5,-342 1207.5,-342 1207.5,-336 1207.5,-336 1207.5,-333 1210.5,-330 1213.5,-330 1213.5,-330 1255.5,-330 1255.5,-330 1258.5,-330 1261.5,-333 1261.5,-336 1261.5,-336 1261.5,-342 1261.5,-342 1261.5,-345 1258.5,-348 1255.5,-348"/>
<text text-anchor="start" x="1216" y="-336.8" font-family="Helvetica,sans-Serif" font-size="9.00">index.ts</text>
</a>
</g>
</g>
<!-- src/application/services/VideoParserService.ts&#45;&gt;src/domain/index.ts -->
<g id="edge10" class="edge">
<title>src/application/services/VideoParserService.ts&#45;&gt;src/domain/index.ts</title>
<path fill="none" stroke="#000000" stroke-width="2" stroke-opacity="0.200000" d="M699.72,-56.01C703.69,-57.68 707.52,-59.66 711,-62 804.92,-125.28 769.05,-204.85 865,-265 973.72,-333.16 1132.86,-340.27 1200.8,-339.9"/>
<polygon fill="#000000" fill-opacity="0.200000" stroke="#000000" stroke-width="2" stroke-opacity="0.200000" points="1201.11,-342 1207.09,-339.85 1201.07,-337.8 1201.11,-342"/>
</g>
<!-- src/infrastructure/repository/MetadataRepository.ts -->
<g id="node24" class="node">
<title>src/infrastructure/repository/MetadataRepository.ts</title>
<g id="a_node24"><a xlink:href="src/infrastructure/repository/MetadataRepository.ts" xlink:title="MetadataRepository.ts">
<path fill="#ddfeff" stroke="black" d="M1144,-210C1144,-210 1040,-210 1040,-210 1037,-210 1034,-207 1034,-204 1034,-204 1034,-198 1034,-198 1034,-195 1037,-192 1040,-192 1040,-192 1144,-192 1144,-192 1147,-192 1150,-195 1150,-198 1150,-198 1150,-204 1150,-204 1150,-207 1147,-210 1144,-210"/>
<text text-anchor="start" x="1042" y="-198.8" font-family="Helvetica,sans-Serif" font-size="9.00">MetadataRepository.ts</text>
</a>
</g>
</g>
<!-- src/infrastructure/index.ts&#45;&gt;src/infrastructure/repository/MetadataRepository.ts -->
<g id="edge23" class="edge">
<title>src/infrastructure/index.ts&#45;&gt;src/infrastructure/repository/MetadataRepository.ts</title>
<path fill="none" stroke="#000000" stroke-width="2" stroke-opacity="0.200000" d="M960.69,-176.02C981.64,-180.04 1011.69,-185.8 1037.66,-190.77"/>
<polygon fill="#000000" fill-opacity="0.200000" stroke="#000000" stroke-width="2" stroke-opacity="0.200000" points="1037.53,-192.89 1043.82,-191.96 1038.32,-188.76 1037.53,-192.89"/>
</g>
<!-- src/infrastructure/repository/VideoRepository.ts -->
<g id="node25" class="node">
<title>src/infrastructure/repository/VideoRepository.ts</title>
<g id="a_node25"><a xlink:href="src/infrastructure/repository/VideoRepository.ts" xlink:title="VideoRepository.ts">
<path fill="#ddfeff" stroke="black" d="M1135,-180C1135,-180 1049,-180 1049,-180 1046,-180 1043,-177 1043,-174 1043,-174 1043,-168 1043,-168 1043,-165 1046,-162 1049,-162 1049,-162 1135,-162 1135,-162 1138,-162 1141,-165 1141,-168 1141,-168 1141,-174 1141,-174 1141,-177 1138,-180 1135,-180"/>
<text text-anchor="start" x="1051" y="-168.8" font-family="Helvetica,sans-Serif" font-size="9.00">VideoRepository.ts</text>
</a>
</g>
</g>
<!-- src/infrastructure/index.ts&#45;&gt;src/infrastructure/repository/VideoRepository.ts -->
<g id="edge24" class="edge">
<title>src/infrastructure/index.ts&#45;&gt;src/infrastructure/repository/VideoRepository.ts</title>
<path fill="none" stroke="#000000" stroke-width="2" stroke-opacity="0.200000" d="M960.69,-171C981.4,-171 1011,-171 1036.76,-171"/>
<polygon fill="#000000" fill-opacity="0.200000" stroke="#000000" stroke-width="2" stroke-opacity="0.200000" points="1036.87,-173.1 1042.87,-171 1036.87,-168.9 1036.87,-173.1"/>
</g>
<!-- src/domain/constants/index.ts -->
<g id="node17" class="node">
<title>src/domain/constants/index.ts</title>
<g id="a_node17"><a xlink:href="src/domain/constants/index.ts" xlink:title="index.ts">
<path fill="#ddfeff" stroke="black" d="M1407.5,-304C1407.5,-304 1365.5,-304 1365.5,-304 1362.5,-304 1359.5,-301 1359.5,-298 1359.5,-298 1359.5,-292 1359.5,-292 1359.5,-289 1362.5,-286 1365.5,-286 1365.5,-286 1407.5,-286 1407.5,-286 1410.5,-286 1413.5,-289 1413.5,-292 1413.5,-292 1413.5,-298 1413.5,-298 1413.5,-301 1410.5,-304 1407.5,-304"/>
<text text-anchor="start" x="1368" y="-292.8" font-family="Helvetica,sans-Serif" font-size="9.00">index.ts</text>
</a>
</g>
</g>
<!-- src/domain/index.ts&#45;&gt;src/domain/constants/index.ts -->
<g id="edge15" class="edge">
<title>src/domain/index.ts&#45;&gt;src/domain/constants/index.ts</title>
<path fill="none" stroke="#000000" stroke-width="2" stroke-opacity="0.200000" d="M1256.81,-329.99C1273.49,-323.21 1297.42,-314.07 1319,-308 1330.08,-304.88 1342.41,-302.25 1353.41,-300.18"/>
<polygon fill="#000000" fill-opacity="0.200000" stroke="#000000" stroke-width="2" stroke-opacity="0.200000" points="1353.85,-302.24 1359.37,-299.1 1353.09,-298.11 1353.85,-302.24"/>
</g>
<!-- src/domain/entities/Metadata.ts -->
<g id="node18" class="node">
<title>src/domain/entities/Metadata.ts</title>
<g id="a_node18"><a xlink:href="src/domain/entities/Metadata.ts" xlink:title="Metadata.ts">
<path fill="#ddfeff" stroke="black" d="M1534,-404C1534,-404 1476,-404 1476,-404 1473,-404 1470,-401 1470,-398 1470,-398 1470,-392 1470,-392 1470,-389 1473,-386 1476,-386 1476,-386 1534,-386 1534,-386 1537,-386 1540,-389 1540,-392 1540,-392 1540,-398 1540,-398 1540,-401 1537,-404 1534,-404"/>
<text text-anchor="start" x="1478" y="-392.8" font-family="Helvetica,sans-Serif" font-size="9.00">Metadata.ts</text>
</a>
</g>
</g>
<!-- src/domain/index.ts&#45;&gt;src/domain/entities/Metadata.ts -->
<g id="edge16" class="edge">
<title>src/domain/index.ts&#45;&gt;src/domain/entities/Metadata.ts</title>
<path fill="none" stroke="#000000" stroke-opacity="0.200000" d="M1240.18,-348.26C1250.9,-368.27 1279.38,-415.2 1319,-433 1346.37,-445.29 1425.57,-442.58 1454,-433 1468.25,-428.2 1481.67,-417.54 1491,-408.73"/>
<polygon fill="none" stroke="#000000" stroke-opacity="0.200000" points="1492.68,-410.02 1495.5,-404.33 1489.74,-407.02 1492.68,-410.02"/>
</g>
<!-- src/domain/entities/Video.ts -->
<g id="node19" class="node">
<title>src/domain/entities/Video.ts</title>
<g id="a_node19"><a xlink:href="src/domain/entities/Video.ts" xlink:title="Video.ts">
<path fill="#ddfeff" stroke="black" d="M1526,-374C1526,-374 1484,-374 1484,-374 1481,-374 1478,-371 1478,-368 1478,-368 1478,-362 1478,-362 1478,-359 1481,-356 1484,-356 1484,-356 1526,-356 1526,-356 1529,-356 1532,-359 1532,-362 1532,-362 1532,-368 1532,-368 1532,-371 1529,-374 1526,-374"/>
<text text-anchor="start" x="1486.5" y="-362.8" font-family="Helvetica,sans-Serif" font-size="9.00">Video.ts</text>
</a>
</g>
</g>
<!-- src/domain/index.ts&#45;&gt;src/domain/entities/Video.ts -->
<g id="edge17" class="edge">
<title>src/domain/index.ts&#45;&gt;src/domain/entities/Video.ts</title>
<path fill="none" stroke="#000000" stroke-opacity="0.200000" d="M1261.74,-336.78C1303.11,-333.93 1385.81,-330.89 1454,-345 1462.75,-346.81 1471.95,-350.06 1480.03,-353.42"/>
<polygon fill="none" stroke="#000000" stroke-opacity="0.200000" points="1479.62,-355.53 1485.96,-355.99 1481.29,-351.68 1479.62,-355.53"/>
</g>
<!-- src/domain/repositories/IMetadataRepository.ts -->
<g id="node20" class="node">
<title>src/domain/repositories/IMetadataRepository.ts</title>
<g id="a_node20"><a xlink:href="src/domain/repositories/IMetadataRepository.ts" xlink:title="IMetadataRepository.ts">
<path fill="#ddfeff" stroke="black" d="M1440,-404C1440,-404 1333,-404 1333,-404 1330,-404 1327,-401 1327,-398 1327,-398 1327,-392 1327,-392 1327,-389 1330,-386 1333,-386 1333,-386 1440,-386 1440,-386 1443,-386 1446,-389 1446,-392 1446,-392 1446,-398 1446,-398 1446,-401 1443,-404 1440,-404"/>
<text text-anchor="start" x="1335" y="-392.8" font-family="Helvetica,sans-Serif" font-size="9.00">IMetadataRepository.ts</text>
</a>
</g>
</g>
<!-- src/domain/index.ts&#45;&gt;src/domain/repositories/IMetadataRepository.ts -->
<g id="edge18" class="edge">
<title>src/domain/index.ts&#45;&gt;src/domain/repositories/IMetadataRepository.ts</title>
<path fill="none" stroke="#000000" stroke-opacity="0.200000" d="M1251.03,-348C1267.44,-357.19 1294.33,-371.3 1319,-380 1323.47,-381.58 1328.18,-383.03 1332.93,-384.36"/>
<polygon fill="none" stroke="#000000" stroke-opacity="0.200000" points="1332.62,-386.45 1338.95,-385.97 1333.7,-382.39 1332.62,-386.45"/>
</g>
<!-- src/domain/repositories/IVideoRepository.ts -->
<g id="node21" class="node">
<title>src/domain/repositories/IVideoRepository.ts</title>
<g id="a_node21"><a xlink:href="src/domain/repositories/IVideoRepository.ts" xlink:title="IVideoRepository.ts">
<path fill="#ddfeff" stroke="black" d="M1431,-374C1431,-374 1342,-374 1342,-374 1339,-374 1336,-371 1336,-368 1336,-368 1336,-362 1336,-362 1336,-359 1339,-356 1342,-356 1342,-356 1431,-356 1431,-356 1434,-356 1437,-359 1437,-362 1437,-362 1437,-368 1437,-368 1437,-371 1434,-374 1431,-374"/>
<text text-anchor="start" x="1344" y="-362.8" font-family="Helvetica,sans-Serif" font-size="9.00">IVideoRepository.ts</text>
</a>
</g>
</g>
<!-- src/domain/index.ts&#45;&gt;src/domain/repositories/IVideoRepository.ts -->
<g id="edge19" class="edge">
<title>src/domain/index.ts&#45;&gt;src/domain/repositories/IVideoRepository.ts</title>
<path fill="none" stroke="#000000" stroke-opacity="0.200000" d="M1261.63,-343.53C1280.35,-346.77 1306.27,-351.27 1329.57,-355.3"/>
<polygon fill="none" stroke="#000000" stroke-opacity="0.200000" points="1329.47,-357.42 1335.74,-356.38 1330.19,-353.28 1329.47,-357.42"/>
</g>
<!-- src/domain/services/FileVideoParser.ts -->
<g id="node22" class="node">
<title>src/domain/services/FileVideoParser.ts</title>
<g id="a_node22"><a xlink:href="src/domain/services/FileVideoParser.ts" xlink:title="FileVideoParser.ts">
<path fill="#ddfeff" stroke="black" d="M1427.5,-474C1427.5,-474 1345.5,-474 1345.5,-474 1342.5,-474 1339.5,-471 1339.5,-468 1339.5,-468 1339.5,-462 1339.5,-462 1339.5,-459 1342.5,-456 1345.5,-456 1345.5,-456 1427.5,-456 1427.5,-456 1430.5,-456 1433.5,-459 1433.5,-462 1433.5,-462 1433.5,-468 1433.5,-468 1433.5,-471 1430.5,-474 1427.5,-474"/>
<text text-anchor="start" x="1347.5" y="-462.8" font-family="Helvetica,sans-Serif" font-size="9.00">FileVideoParser.ts</text>
</a>
</g>
</g>
<!-- src/domain/index.ts&#45;&gt;src/domain/services/FileVideoParser.ts -->
<g id="edge20" class="edge">
<title>src/domain/index.ts&#45;&gt;src/domain/services/FileVideoParser.ts</title>
<path fill="none" stroke="#000000" stroke-width="2" stroke-opacity="0.200000" d="M1239.37,-348.12C1249.16,-369.99 1277.14,-425.54 1319,-452 1323.43,-454.8 1328.33,-457.02 1333.41,-458.78"/>
<polygon fill="#000000" fill-opacity="0.200000" stroke="#000000" stroke-width="2" stroke-opacity="0.200000" points="1333.08,-460.87 1339.43,-460.63 1334.32,-456.86 1333.08,-460.87"/>
</g>
<!-- src/components/VideoEmbed.vue -->
<g id="node13" class="node">
<title>src/components/VideoEmbed.vue</title>
<g id="a_node13"><a xlink:href="src/components/VideoEmbed.vue" xlink:title="VideoEmbed.vue">
<path fill="#41f083" stroke="black" d="M498,-42C498,-42 417,-42 417,-42 414,-42 411,-39 411,-36 411,-36 411,-30 411,-30 411,-27 414,-24 417,-24 417,-24 498,-24 498,-24 501,-24 504,-27 504,-30 504,-30 504,-36 504,-36 504,-39 501,-42 498,-42"/>
<text text-anchor="start" x="419" y="-30.8" font-family="Helvetica,sans-Serif" font-size="9.00">VideoEmbed.vue</text>
</a>
</g>
</g>
<!-- src/components/VideoCard.vue&#45;&gt;src/components/VideoEmbed.vue -->
<g id="edge11" class="edge">
<title>src/components/VideoCard.vue&#45;&gt;src/components/VideoEmbed.vue</title>
<path fill="none" stroke="#000000" stroke-width="2" stroke-opacity="0.200000" d="M372.08,-33C382.51,-33 393.91,-33 404.85,-33"/>
<polygon fill="#000000" fill-opacity="0.200000" stroke="#000000" stroke-width="2" stroke-opacity="0.200000" points="404.87,-35.1 410.87,-33 404.87,-30.9 404.87,-35.1"/>
</g>
<!-- src/components/VideoCard.vue&#45;&gt;src/stores/videosStore.ts -->
<g id="edge12" class="edge">
<title>src/components/VideoCard.vue&#45;&gt;src/stores/videosStore.ts</title>
<path fill="none" stroke="#000000" stroke-width="2" stroke-opacity="0.200000" d="M372.16,-34.06C380.87,-36.24 389.2,-40.17 395,-47 415.74,-71.43 384.43,-164.88 403,-191 405.82,-194.97 409.5,-198.23 413.6,-200.9"/>
<polygon fill="#000000" fill-opacity="0.200000" stroke="#000000" stroke-width="2" stroke-opacity="0.200000" points="412.74,-202.82 418.99,-203.97 414.82,-199.18 412.74,-202.82"/>
</g>
<!-- src/stores/videosStore.ts&#45;&gt;src/application/index.ts -->
<g id="edge30" class="edge">
<title>src/stores/videosStore.ts&#45;&gt;src/application/index.ts</title>
<path fill="none" stroke="#000000" stroke-width="2" stroke-opacity="0.200000" d="M492.96,-203.97C499.99,-200.81 506.81,-196.6 512,-191 542.27,-158.36 550.73,-103.61 553.09,-77.18"/>
<polygon fill="#000000" fill-opacity="0.200000" stroke="#000000" stroke-width="2" stroke-opacity="0.200000" points="555.2,-77.25 553.57,-71.1 551.01,-76.92 555.2,-77.25"/>
</g>
<!-- src/components/inputs/FileInput.vue&#45;&gt;src/stores/videosStore.ts -->
<g id="edge13" class="edge">
<title>src/components/inputs/FileInput.vue&#45;&gt;src/stores/videosStore.ts</title>
<path fill="none" stroke="#000000" stroke-width="2" stroke-opacity="0.200000" d="M340.37,-136.36C352.89,-149.91 377.72,-175.09 403,-191 409.37,-195.01 416.61,-198.56 423.64,-201.58"/>
<polygon fill="#000000" fill-opacity="0.200000" stroke="#000000" stroke-width="2" stroke-opacity="0.200000" points="423.14,-203.64 429.49,-203.98 424.74,-199.76 423.14,-203.64"/>
</g>
<!-- src/domain/repositories/IMetadataRepository.ts&#45;&gt;src/domain/entities/Metadata.ts -->
<g id="edge21" class="edge">
<title>src/domain/repositories/IMetadataRepository.ts&#45;&gt;src/domain/entities/Metadata.ts</title>
<path fill="none" stroke="#000000" stroke-opacity="0.200000" d="M1446.09,-395C1452.08,-395 1458.07,-395 1463.8,-395"/>
<polygon fill="none" stroke="#000000" stroke-opacity="0.200000" points="1463.9,-397.1 1469.9,-395 1463.9,-392.9 1463.9,-397.1"/>
</g>
<!-- src/domain/repositories/IVideoRepository.ts&#45;&gt;src/domain/entities/Video.ts -->
<g id="edge22" class="edge">
<title>src/domain/repositories/IVideoRepository.ts&#45;&gt;src/domain/entities/Video.ts</title>
<path fill="none" stroke="#000000" stroke-opacity="0.200000" d="M1437.24,-365C1448.93,-365 1461.08,-365 1471.76,-365"/>
<polygon fill="none" stroke="#000000" stroke-opacity="0.200000" points="1471.87,-367.1 1477.87,-365 1471.87,-362.9 1471.87,-367.1"/>
</g>
<!-- src/infrastructure/database/DatabaseConnection.ts -->
<g id="node23" class="node">
<title>src/infrastructure/database/DatabaseConnection.ts</title>
<g id="a_node23"><a xlink:href="src/infrastructure/database/DatabaseConnection.ts" xlink:title="DatabaseConnection.ts">
<path fill="#ddfeff" stroke="black" d="M1289,-195C1289,-195 1180,-195 1180,-195 1177,-195 1174,-192 1174,-189 1174,-189 1174,-183 1174,-183 1174,-180 1177,-177 1180,-177 1180,-177 1289,-177 1289,-177 1292,-177 1295,-180 1295,-183 1295,-183 1295,-189 1295,-189 1295,-192 1292,-195 1289,-195"/>
<text text-anchor="start" x="1182" y="-183.8" font-family="Helvetica,sans-Serif" font-size="9.00">DatabaseConnection.ts</text>
</a>
</g>
</g>
<!-- src/infrastructure/repository/MetadataRepository.ts&#45;&gt;src/domain/index.ts -->
<g id="edge26" class="edge">
<title>src/infrastructure/repository/MetadataRepository.ts&#45;&gt;src/domain/index.ts</title>
<path fill="none" stroke="#000000" stroke-width="2" stroke-opacity="0.200000" d="M1102.22,-210.05C1126.23,-233.64 1190.8,-297.06 1219.46,-325.21"/>
<polygon fill="#000000" fill-opacity="0.200000" stroke="#000000" stroke-width="2" stroke-opacity="0.200000" points="1218.31,-327.02 1224.06,-329.73 1221.25,-324.03 1218.31,-327.02"/>
</g>
<!-- src/infrastructure/repository/MetadataRepository.ts&#45;&gt;src/infrastructure/database/DatabaseConnection.ts -->
<g id="edge25" class="edge">
<title>src/infrastructure/repository/MetadataRepository.ts&#45;&gt;src/infrastructure/database/DatabaseConnection.ts</title>
<path fill="none" stroke="#000000" stroke-width="2" stroke-opacity="0.200000" d="M1150.15,-194.9C1155.84,-194.29 1161.65,-193.67 1167.42,-193.05"/>
<polygon fill="#000000" fill-opacity="0.200000" stroke="#000000" stroke-width="2" stroke-opacity="0.200000" points="1167.92,-195.11 1173.66,-192.39 1167.47,-190.94 1167.92,-195.11"/>
</g>
<!-- src/infrastructure/repository/VideoRepository.ts&#45;&gt;src/domain/index.ts -->
<g id="edge28" class="edge">
<title>src/infrastructure/repository/VideoRepository.ts&#45;&gt;src/domain/index.ts</title>
<path fill="none" stroke="#000000" stroke-width="2" stroke-opacity="0.200000" d="M1141.06,-175.43C1147.39,-177.81 1153.3,-181.2 1158,-186 1170.09,-198.32 1159.77,-207.9 1166,-224 1181.03,-262.85 1208.27,-303.89 1223.14,-324.86"/>
<polygon fill="#000000" fill-opacity="0.200000" stroke="#000000" stroke-width="2" stroke-opacity="0.200000" points="1221.61,-326.33 1226.81,-329.98 1225.02,-323.88 1221.61,-326.33"/>
</g>
<!-- src/infrastructure/repository/VideoRepository.ts&#45;&gt;src/infrastructure/database/DatabaseConnection.ts -->
<g id="edge27" class="edge">
<title>src/infrastructure/repository/VideoRepository.ts&#45;&gt;src/infrastructure/database/DatabaseConnection.ts</title>
<path fill="none" stroke="#000000" stroke-width="2" stroke-opacity="0.200000" d="M1141.35,-176.16C1149.87,-177.07 1158.86,-178.03 1167.75,-178.98"/>
<polygon fill="#000000" fill-opacity="0.200000" stroke="#000000" stroke-width="2" stroke-opacity="0.200000" points="1167.69,-181.09 1173.88,-179.64 1168.14,-176.91 1167.69,-181.09"/>
</g>
<!-- src/main.ts -->
<g id="node26" class="node">
<title>src/main.ts</title>
<g id="a_node26"><a xlink:href="src/main.ts" xlink:title="main.ts">
<path fill="#ddfeff" stroke="black" d="M64,-192C64,-192 22,-192 22,-192 19,-192 16,-189 16,-186 16,-186 16,-180 16,-180 16,-177 19,-174 22,-174 22,-174 64,-174 64,-174 67,-174 70,-177 70,-180 70,-180 70,-186 70,-186 70,-189 67,-192 64,-192"/>
<text text-anchor="start" x="26" y="-180.8" font-family="Helvetica,sans-Serif" font-size="9.00">main.ts</text>
</a>
</g>
</g>
<!-- src/main.ts&#45;&gt;src/App.vue -->
<g id="edge29" class="edge">
<title>src/main.ts&#45;&gt;src/App.vue</title>
<path fill="none" stroke="#000000" stroke-width="2" stroke-opacity="0.200000" d="M70.06,-183C72.32,-183 74.61,-183 76.9,-183"/>
<polygon fill="#000000" fill-opacity="0.200000" stroke="#000000" stroke-width="2" stroke-opacity="0.200000" points="76.93,-185.1 82.93,-183 76.93,-180.9 76.93,-185.1"/>
</g>
</g>
</svg>
