<?xml version="1.0" encoding="UTF-8" standalone="no"?>
<!DOCTYPE svg PUBLIC "-//W3C//DTD SVG 1.1//EN"
 "http://www.w3.org/Graphics/SVG/1.1/DTD/svg11.dtd">
<!-- Generated by graphviz version 9.0.0 (20230911.1827)
 -->
<!-- Title: dependency&#45;cruiser output Pages: 1 -->
<svg width="1861pt" height="659pt"
 viewBox="0.00 0.00 1860.50 658.64" xmlns="http://www.w3.org/2000/svg" xmlns:xlink="http://www.w3.org/1999/xlink">
<g id="graph0" class="graph" transform="scale(1 1) rotate(0) translate(4 654.64)">
<title>dependency&#45;cruiser output</title>
<polygon fill="white" stroke="none" points="-4,4 -4,-654.64 1856.5,-654.64 1856.5,4 -4,4"/>
<g id="clust1" class="cluster">
<title>cluster_src</title>
<path fill="#ffffff" stroke="black" stroke-width="2" d="M20,-12.64C20,-12.64 1832.5,-12.64 1832.5,-12.64 1838.5,-12.64 1844.5,-18.64 1844.5,-24.64 1844.5,-24.64 1844.5,-630.64 1844.5,-630.64 1844.5,-636.64 1838.5,-642.64 1832.5,-642.64 1832.5,-642.64 20,-642.64 20,-642.64 14,-642.64 8,-636.64 8,-630.64 8,-630.64 8,-24.64 8,-24.64 8,-18.64 14,-12.64 20,-12.64"/>
<text text-anchor="middle" x="926.25" y="-630.09" font-family="Helvetica,sans-Serif" font-weight="bold" font-size="9.00">src</text>
</g>
<g id="clust2" class="cluster">
<title>cluster_src/application</title>
<path fill="#ffffff" stroke="black" stroke-width="2" d="M512.25,-194.64C512.25,-194.64 680.75,-194.64 680.75,-194.64 686.75,-194.64 692.75,-200.64 692.75,-206.64 692.75,-206.64 692.75,-334.64 692.75,-334.64 692.75,-340.64 686.75,-346.64 680.75,-346.64 680.75,-346.64 512.25,-346.64 512.25,-346.64 506.25,-346.64 500.25,-340.64 500.25,-334.64 500.25,-334.64 500.25,-206.64 500.25,-206.64 500.25,-200.64 506.25,-194.64 512.25,-194.64"/>
<text text-anchor="middle" x="596.5" y="-334.09" font-family="Helvetica,sans-Serif" font-weight="bold" font-size="9.00">application</text>
</g>
<g id="clust3" class="cluster">
<title>cluster_src/application/services</title>
<path fill="#ffffff" stroke="black" stroke-width="2" d="M582.25,-202.64C582.25,-202.64 672.75,-202.64 672.75,-202.64 678.75,-202.64 684.75,-208.64 684.75,-214.64 684.75,-214.64 684.75,-307.64 684.75,-307.64 684.75,-313.64 678.75,-319.64 672.75,-319.64 672.75,-319.64 582.25,-319.64 582.25,-319.64 576.25,-319.64 570.25,-313.64 570.25,-307.64 570.25,-307.64 570.25,-214.64 570.25,-214.64 570.25,-208.64 576.25,-202.64 582.25,-202.64"/>
<text text-anchor="middle" x="627.5" y="-307.09" font-family="Helvetica,sans-Serif" font-weight="bold" font-size="9.00">services</text>
</g>
<g id="clust4" class="cluster">
<title>cluster_src/components</title>
<path fill="#ffffff" stroke="black" stroke-width="2" d="M265.25,-20.64C265.25,-20.64 480.25,-20.64 480.25,-20.64 486.25,-20.64 492.25,-26.64 492.25,-32.64 492.25,-32.64 492.25,-189.64 492.25,-189.64 492.25,-195.64 486.25,-201.64 480.25,-201.64 480.25,-201.64 265.25,-201.64 265.25,-201.64 259.25,-201.64 253.25,-195.64 253.25,-189.64 253.25,-189.64 253.25,-32.64 253.25,-32.64 253.25,-26.64 259.25,-20.64 265.25,-20.64"/>
<text text-anchor="middle" x="372.75" y="-189.09" font-family="Helvetica,sans-Serif" font-weight="bold" font-size="9.00">components</text>
</g>
<g id="clust5" class="cluster">
<title>cluster_src/components/inputs</title>
<path fill="#ffffff" stroke="black" stroke-width="2" d="M292.38,-119.64C292.38,-119.64 352.12,-119.64 352.12,-119.64 358.12,-119.64 364.12,-125.64 364.12,-131.64 364.12,-131.64 364.12,-162.64 364.12,-162.64 364.12,-168.64 358.12,-174.64 352.12,-174.64 352.12,-174.64 292.38,-174.64 292.38,-174.64 286.38,-174.64 280.38,-168.64 280.38,-162.64 280.38,-162.64 280.38,-131.64 280.38,-131.64 280.38,-125.64 286.38,-119.64 292.38,-119.64"/>
<text text-anchor="middle" x="322.25" y="-162.09" font-family="Helvetica,sans-Serif" font-weight="bold" font-size="9.00">inputs</text>
</g>
<g id="clust6" class="cluster">
<title>cluster_src/components/utils</title>
<path fill="#ffffff" stroke="black" stroke-width="2" d="M273.25,-56.64C273.25,-56.64 371.25,-56.64 371.25,-56.64 377.25,-56.64 383.25,-62.64 383.25,-68.64 383.25,-68.64 383.25,-99.64 383.25,-99.64 383.25,-105.64 377.25,-111.64 371.25,-111.64 371.25,-111.64 273.25,-111.64 273.25,-111.64 267.25,-111.64 261.25,-105.64 261.25,-99.64 261.25,-99.64 261.25,-68.64 261.25,-68.64 261.25,-62.64 267.25,-56.64 273.25,-56.64"/>
<text text-anchor="middle" x="322.25" y="-99.09" font-family="Helvetica,sans-Serif" font-weight="bold" font-size="9.00">utils</text>
</g>
<g id="clust7" class="cluster">
<title>cluster_src/domain</title>
<path fill="#ffffff" stroke="black" stroke-width="2" d="M1206,-250.64C1206,-250.64 1824.5,-250.64 1824.5,-250.64 1830.5,-250.64 1836.5,-256.64 1836.5,-262.64 1836.5,-262.64 1836.5,-578.64 1836.5,-578.64 1836.5,-584.64 1830.5,-590.64 1824.5,-590.64 1824.5,-590.64 1206,-590.64 1206,-590.64 1200,-590.64 1194,-584.64 1194,-578.64 1194,-578.64 1194,-262.64 1194,-262.64 1194,-256.64 1200,-250.64 1206,-250.64"/>
<text text-anchor="middle" x="1515.25" y="-578.09" font-family="Helvetica,sans-Serif" font-weight="bold" font-size="9.00">domain</text>
</g>
<g id="clust8" class="cluster">
<title>cluster_src/domain/constants</title>
<path fill="#ffffff" stroke="black" stroke-width="2" d="M1214,-258.64C1214,-258.64 1260,-258.64 1260,-258.64 1266,-258.64 1272,-264.64 1272,-270.64 1272,-270.64 1272,-301.64 1272,-301.64 1272,-307.64 1266,-313.64 1260,-313.64 1260,-313.64 1214,-313.64 1214,-313.64 1208,-313.64 1202,-307.64 1202,-301.64 1202,-301.64 1202,-270.64 1202,-270.64 1202,-264.64 1208,-258.64 1214,-258.64"/>
<text text-anchor="middle" x="1237" y="-301.09" font-family="Helvetica,sans-Serif" font-weight="bold" font-size="9.00">constants</text>
</g>
<g id="clust9" class="cluster">
<title>cluster_src/domain/entities</title>
<path fill="#ffffff" stroke="black" stroke-width="2" d="M1472,-327.64C1472,-327.64 1816.5,-327.64 1816.5,-327.64 1822.5,-327.64 1828.5,-333.64 1828.5,-339.64 1828.5,-339.64 1828.5,-412.64 1828.5,-412.64 1828.5,-418.64 1822.5,-424.64 1816.5,-424.64 1816.5,-424.64 1472,-424.64 1472,-424.64 1466,-424.64 1460,-418.64 1460,-412.64 1460,-412.64 1460,-339.64 1460,-339.64 1460,-333.64 1466,-327.64 1472,-327.64"/>
<text text-anchor="middle" x="1644.25" y="-412.09" font-family="Helvetica,sans-Serif" font-weight="bold" font-size="9.00">entities</text>
</g>
<g id="clust10" class="cluster">
<title>cluster_src/domain/repositories</title>
<path fill="#ffffff" stroke="black" stroke-width="2" d="M1214,-321.64C1214,-321.64 1431.75,-321.64 1431.75,-321.64 1437.75,-321.64 1443.75,-327.64 1443.75,-333.64 1443.75,-333.64 1443.75,-426.64 1443.75,-426.64 1443.75,-432.64 1437.75,-438.64 1431.75,-438.64 1431.75,-438.64 1214,-438.64 1214,-438.64 1208,-438.64 1202,-432.64 1202,-426.64 1202,-426.64 1202,-333.64 1202,-333.64 1202,-327.64 1208,-321.64 1214,-321.64"/>
<text text-anchor="middle" x="1322.88" y="-426.09" font-family="Helvetica,sans-Serif" font-weight="bold" font-size="9.00">repositories</text>
</g>
<g id="clust11" class="cluster">
<title>cluster_src/domain/valueObjects</title>
<path fill="#ffffff" stroke="black" stroke-width="2" d="M1214,-446.64C1214,-446.64 1440,-446.64 1440,-446.64 1446,-446.64 1452,-452.64 1452,-458.64 1452,-458.64 1452,-551.64 1452,-551.64 1452,-557.64 1446,-563.64 1440,-563.64 1440,-563.64 1214,-563.64 1214,-563.64 1208,-563.64 1202,-557.64 1202,-551.64 1202,-551.64 1202,-458.64 1202,-458.64 1202,-452.64 1208,-446.64 1214,-446.64"/>
<text text-anchor="middle" x="1327" y="-551.09" font-family="Helvetica,sans-Serif" font-weight="bold" font-size="9.00">valueObjects</text>
</g>
<g id="clust12" class="cluster">
<title>cluster_src/infrastructure</title>
<path fill="#ffffff" stroke="black" stroke-width="2" d="M712.75,-44.64C712.75,-44.64 1297.75,-44.64 1297.75,-44.64 1303.75,-44.64 1309.75,-50.64 1309.75,-56.64 1309.75,-56.64 1309.75,-230.64 1309.75,-230.64 1309.75,-236.64 1303.75,-242.64 1297.75,-242.64 1297.75,-242.64 712.75,-242.64 712.75,-242.64 706.75,-242.64 700.75,-236.64 700.75,-230.64 700.75,-230.64 700.75,-56.64 700.75,-56.64 700.75,-50.64 706.75,-44.64 712.75,-44.64"/>
<text text-anchor="middle" x="1005.25" y="-230.09" font-family="Helvetica,sans-Serif" font-weight="bold" font-size="9.00">infrastructure</text>
</g>
<g id="clust13" class="cluster">
<title>cluster_src/infrastructure/database</title>
<path fill="#ffffff" stroke="black" stroke-width="2" d="M1184.25,-133.64C1184.25,-133.64 1289.75,-133.64 1289.75,-133.64 1295.75,-133.64 1301.75,-139.64 1301.75,-145.64 1301.75,-145.64 1301.75,-176.64 1301.75,-176.64 1301.75,-182.64 1295.75,-188.64 1289.75,-188.64 1289.75,-188.64 1184.25,-188.64 1184.25,-188.64 1178.25,-188.64 1172.25,-182.64 1172.25,-176.64 1172.25,-176.64 1172.25,-145.64 1172.25,-145.64 1172.25,-139.64 1178.25,-133.64 1184.25,-133.64"/>
<text text-anchor="middle" x="1237" y="-176.09" font-family="Helvetica,sans-Serif" font-weight="bold" font-size="9.00">database</text>
</g>
<g id="clust14" class="cluster">
<title>cluster_src/infrastructure/repository</title>
<path fill="#ffffff" stroke="black" stroke-width="2" d="M951.88,-129.64C951.88,-129.64 1152.25,-129.64 1152.25,-129.64 1158.25,-129.64 1164.25,-135.64 1164.25,-141.64 1164.25,-141.64 1164.25,-203.64 1164.25,-203.64 1164.25,-209.64 1158.25,-215.64 1152.25,-215.64 1152.25,-215.64 951.88,-215.64 951.88,-215.64 945.88,-215.64 939.88,-209.64 939.88,-203.64 939.88,-203.64 939.88,-141.64 939.88,-141.64 939.88,-135.64 945.88,-129.64 951.88,-129.64"/>
<text text-anchor="middle" x="1052.06" y="-203.09" font-family="Helvetica,sans-Serif" font-weight="bold" font-size="9.00">repository</text>
</g>
<g id="clust15" class="cluster">
<title>cluster_src/infrastructure/services</title>
<path fill="#ffffff" stroke="black" stroke-width="2" d="M720.75,-160.64C720.75,-160.64 897,-160.64 897,-160.64 903,-160.64 909,-166.64 909,-172.64 909,-172.64 909,-203.64 909,-203.64 909,-209.64 903,-215.64 897,-215.64 897,-215.64 720.75,-215.64 720.75,-215.64 714.75,-215.64 708.75,-209.64 708.75,-203.64 708.75,-203.64 708.75,-172.64 708.75,-172.64 708.75,-166.64 714.75,-160.64 720.75,-160.64"/>
<text text-anchor="middle" x="808.88" y="-203.09" font-family="Helvetica,sans-Serif" font-weight="bold" font-size="9.00">services</text>
</g>
<g id="clust16" class="cluster">
<title>cluster_src/infrastructure/video</title>
<path fill="#ffffff" stroke="black" stroke-width="2" d="M720.75,-52.64C720.75,-52.64 1028.75,-52.64 1028.75,-52.64 1034.75,-52.64 1040.75,-58.64 1040.75,-64.64 1040.75,-64.64 1040.75,-109.64 1040.75,-109.64 1040.75,-115.64 1034.75,-121.64 1028.75,-121.64 1028.75,-121.64 720.75,-121.64 720.75,-121.64 714.75,-121.64 708.75,-115.64 708.75,-109.64 708.75,-109.64 708.75,-64.64 708.75,-64.64 708.75,-58.64 714.75,-52.64 720.75,-52.64"/>
<text text-anchor="middle" x="874.75" y="-109.09" font-family="Helvetica,sans-Serif" font-weight="bold" font-size="9.00">video</text>
</g>
<g id="clust17" class="cluster">
<title>cluster_src/stores</title>
<path fill="#ffffff" stroke="black" stroke-width="2" d="M403.25,-209.64C403.25,-209.64 479.5,-209.64 479.5,-209.64 485.5,-209.64 491.5,-215.64 491.5,-221.64 491.5,-221.64 491.5,-283.64 491.5,-283.64 491.5,-289.64 485.5,-295.64 479.5,-295.64 479.5,-295.64 403.25,-295.64 403.25,-295.64 397.25,-295.64 391.25,-289.64 391.25,-283.64 391.25,-283.64 391.25,-221.64 391.25,-221.64 391.25,-215.64 397.25,-209.64 403.25,-209.64"/>
<text text-anchor="middle" x="441.38" y="-283.09" font-family="Helvetica,sans-Serif" font-weight="bold" font-size="9.00">stores</text>
</g>
<g id="clust18" class="cluster">
<title>cluster_src/views</title>
<path fill="#ffffff" stroke="black" stroke-width="2" d="M157,-178.64C157,-178.64 233.25,-178.64 233.25,-178.64 239.25,-178.64 245.25,-184.64 245.25,-190.64 245.25,-190.64 245.25,-252.64 245.25,-252.64 245.25,-258.64 239.25,-264.64 233.25,-264.64 233.25,-264.64 157,-264.64 157,-264.64 151,-264.64 145,-258.64 145,-252.64 145,-252.64 145,-190.64 145,-190.64 145,-184.64 151,-178.64 157,-178.64"/>
<text text-anchor="middle" x="195.12" y="-252.09" font-family="Helvetica,sans-Serif" font-weight="bold" font-size="9.00">views</text>
</g>
<!-- src/App.vue -->
<g id="node1" class="node">
<title>src/App.vue</title>
<g id="a_node1"><a xlink:href="src/App.vue" xlink:title="App.vue">
<path fill="#41f083" stroke="black" d="M130.58,-206.27C130.58,-206.27 89.42,-206.27 89.42,-206.27 86.21,-206.27 83,-203.06 83,-199.85 83,-199.85 83,-193.43 83,-193.43 83,-190.23 86.21,-187.02 89.42,-187.02 89.42,-187.02 130.58,-187.02 130.58,-187.02 133.79,-187.02 137,-190.23 137,-193.43 137,-193.43 137,-199.85 137,-199.85 137,-203.06 133.79,-206.27 130.58,-206.27"/>
<text text-anchor="start" x="93.88" y="-193.72" font-family="Helvetica,sans-Serif" font-size="9.00">App.vue</text>
</a>
</g>
</g>
<!-- src/components/utils/DiagnosticsPanel.vue -->
<g id="node2" class="node">
<title>src/components/utils/DiagnosticsPanel.vue</title>
<g id="a_node2"><a xlink:href="src/components/utils/DiagnosticsPanel.vue" xlink:title="DiagnosticsPanel.vue">
<path fill="#41f083" stroke="black" d="M368.83,-84.27C368.83,-84.27 275.67,-84.27 275.67,-84.27 272.46,-84.27 269.25,-81.06 269.25,-77.85 269.25,-77.85 269.25,-71.43 269.25,-71.43 269.25,-68.23 272.46,-65.02 275.67,-65.02 275.67,-65.02 368.83,-65.02 368.83,-65.02 372.04,-65.02 375.25,-68.23 375.25,-71.43 375.25,-71.43 375.25,-77.85 375.25,-77.85 375.25,-81.06 372.04,-84.27 368.83,-84.27"/>
<text text-anchor="start" x="277.25" y="-71.72" font-family="Helvetica,sans-Serif" font-size="9.00">DiagnosticsPanel.vue</text>
</a>
</g>
</g>
<!-- src/App.vue&#45;&gt;src/components/utils/DiagnosticsPanel.vue -->
<g id="edge1" class="edge">
<title>src/App.vue&#45;&gt;src/components/utils/DiagnosticsPanel.vue</title>
<path fill="none" stroke="#000000" stroke-width="2" stroke-opacity="0.200000" d="M126.85,-186.71C132.55,-183.17 139.04,-179.19 145,-175.64 198.17,-144 261.24,-108.29 295.67,-88.95"/>
<polygon fill="#000000" fill-opacity="0.200000" stroke="#000000" stroke-width="2" stroke-opacity="0.200000" points="296.53,-90.88 300.74,-86.11 294.48,-87.22 296.53,-90.88"/>
</g>
<!-- src/views/NavBar.vue -->
<g id="node3" class="node">
<title>src/views/NavBar.vue</title>
<g id="a_node3"><a xlink:href="src/views/NavBar.vue" xlink:title="NavBar.vue">
<path fill="#41f083" stroke="black" d="M219.96,-237.27C219.96,-237.27 170.29,-237.27 170.29,-237.27 167.08,-237.27 163.88,-234.06 163.88,-230.85 163.88,-230.85 163.88,-224.43 163.88,-224.43 163.88,-221.23 167.08,-218.02 170.29,-218.02 170.29,-218.02 219.96,-218.02 219.96,-218.02 223.17,-218.02 226.38,-221.23 226.38,-224.43 226.38,-224.43 226.38,-230.85 226.38,-230.85 226.38,-234.06 223.17,-237.27 219.96,-237.27"/>
<text text-anchor="start" x="171.88" y="-224.72" font-family="Helvetica,sans-Serif" font-size="9.00">NavBar.vue</text>
</a>
</g>
</g>
<!-- src/App.vue&#45;&gt;src/views/NavBar.vue -->
<g id="edge2" class="edge">
<title>src/App.vue&#45;&gt;src/views/NavBar.vue</title>
<path fill="none" stroke="#000000" stroke-width="2" stroke-opacity="0.200000" d="M130.93,-206.6C135.5,-208.72 140.37,-210.86 145,-212.64 148.23,-213.89 151.61,-215.1 155.02,-216.26"/>
<polygon fill="#000000" fill-opacity="0.200000" stroke="#000000" stroke-width="2" stroke-opacity="0.200000" points="154.26,-218.22 160.62,-218.09 155.57,-214.23 154.26,-218.22"/>
</g>
<!-- src/views/VideoGallery.vue -->
<g id="node4" class="node">
<title>src/views/VideoGallery.vue</title>
<g id="a_node4"><a xlink:href="src/views/VideoGallery.vue" xlink:title="VideoGallery.vue">
<path fill="#41f083" stroke="black" d="M230.83,-206.27C230.83,-206.27 159.42,-206.27 159.42,-206.27 156.21,-206.27 153,-203.06 153,-199.85 153,-199.85 153,-193.43 153,-193.43 153,-190.23 156.21,-187.02 159.42,-187.02 159.42,-187.02 230.83,-187.02 230.83,-187.02 234.04,-187.02 237.25,-190.23 237.25,-193.43 237.25,-193.43 237.25,-199.85 237.25,-199.85 237.25,-203.06 234.04,-206.27 230.83,-206.27"/>
<text text-anchor="start" x="161" y="-193.72" font-family="Helvetica,sans-Serif" font-size="9.00">VideoGallery.vue</text>
</a>
</g>
</g>
<!-- src/App.vue&#45;&gt;src/views/VideoGallery.vue -->
<g id="edge3" class="edge">
<title>src/App.vue&#45;&gt;src/views/VideoGallery.vue</title>
<path fill="none" stroke="#000000" stroke-width="2" stroke-opacity="0.200000" d="M137.3,-196.64C139.42,-196.64 141.61,-196.64 143.83,-196.64"/>
<polygon fill="#000000" fill-opacity="0.200000" stroke="#000000" stroke-width="2" stroke-opacity="0.200000" points="143.47,-198.74 149.47,-196.64 143.47,-194.54 143.47,-198.74"/>
</g>
<!-- src/infrastructure/services/index.ts -->
<g id="node10" class="node">
<title>src/infrastructure/services/index.ts</title>
<g id="a_node10"><a xlink:href="src/infrastructure/services/index.ts" xlink:title="index.ts">
<path fill="#ddfeff" stroke="black" d="M764.33,-188.27C764.33,-188.27 723.17,-188.27 723.17,-188.27 719.96,-188.27 716.75,-185.06 716.75,-181.85 716.75,-181.85 716.75,-175.43 716.75,-175.43 716.75,-172.23 719.96,-169.02 723.17,-169.02 723.17,-169.02 764.33,-169.02 764.33,-169.02 767.54,-169.02 770.75,-172.23 770.75,-175.43 770.75,-175.43 770.75,-181.85 770.75,-181.85 770.75,-185.06 767.54,-188.27 764.33,-188.27"/>
<text text-anchor="start" x="728" y="-175.72" font-family="Helvetica,sans-Serif" font-size="9.00">index.ts</text>
</a>
</g>
</g>
<!-- src/components/utils/DiagnosticsPanel.vue&#45;&gt;src/infrastructure/services/index.ts -->
<g id="edge17" class="edge">
<title>src/components/utils/DiagnosticsPanel.vue&#45;&gt;src/infrastructure/services/index.ts</title>
<path fill="none" stroke="#000000" stroke-width="2" stroke-opacity="0.200000" d="M344.94,-84.73C358.11,-90.57 375.4,-97.71 391.25,-102.64 450.68,-121.14 630.77,-156.93 707.51,-171.85"/>
<polygon fill="#000000" fill-opacity="0.200000" stroke="#000000" stroke-width="2" stroke-opacity="0.200000" points="707.08,-173.91 713.37,-172.99 707.88,-169.78 707.08,-173.91"/>
</g>
<!-- src/stores/appStateStore.ts -->
<g id="node16" class="node">
<title>src/stores/appStateStore.ts</title>
<g id="a_node16"><a xlink:href="src/stores/appStateStore.ts" xlink:title="appStateStore.ts">
<path fill="#ddfeff" stroke="black" d="M477.08,-268.27C477.08,-268.27 405.67,-268.27 405.67,-268.27 402.46,-268.27 399.25,-265.06 399.25,-261.85 399.25,-261.85 399.25,-255.43 399.25,-255.43 399.25,-252.23 402.46,-249.02 405.67,-249.02 405.67,-249.02 477.08,-249.02 477.08,-249.02 480.29,-249.02 483.5,-252.23 483.5,-255.43 483.5,-255.43 483.5,-261.85 483.5,-261.85 483.5,-265.06 480.29,-268.27 477.08,-268.27"/>
<text text-anchor="start" x="407.25" y="-255.72" font-family="Helvetica,sans-Serif" font-size="9.00">appStateStore.ts</text>
</a>
</g>
</g>
<!-- src/components/utils/DiagnosticsPanel.vue&#45;&gt;src/stores/appStateStore.ts -->
<g id="edge16" class="edge">
<title>src/components/utils/DiagnosticsPanel.vue&#45;&gt;src/stores/appStateStore.ts</title>
<path fill="none" stroke="#000000" stroke-width="2" stroke-opacity="0.200000" d="M346.67,-84.68C359.81,-91.62 375.16,-102.23 383.25,-116.64 397.09,-141.3 373.72,-221.45 391.25,-243.64 391.66,-244.17 392.1,-244.67 392.55,-245.16"/>
<polygon fill="#000000" fill-opacity="0.200000" stroke="#000000" stroke-width="2" stroke-opacity="0.200000" points="390.88,-246.51 396.85,-248.69 393.54,-243.26 390.88,-246.51"/>
</g>
<!-- src/stores/videosStore.ts -->
<g id="node14" class="node">
<title>src/stores/videosStore.ts</title>
<g id="a_node14"><a xlink:href="src/stores/videosStore.ts" xlink:title="videosStore.ts">
<path fill="#ddfeff" stroke="black" d="M472.21,-237.27C472.21,-237.27 410.54,-237.27 410.54,-237.27 407.33,-237.27 404.12,-234.06 404.12,-230.85 404.12,-230.85 404.12,-224.43 404.12,-224.43 404.12,-221.23 407.33,-218.02 410.54,-218.02 410.54,-218.02 472.21,-218.02 472.21,-218.02 475.42,-218.02 478.62,-221.23 478.62,-224.43 478.62,-224.43 478.62,-230.85 478.62,-230.85 478.62,-234.06 475.42,-237.27 472.21,-237.27"/>
<text text-anchor="start" x="412.12" y="-224.72" font-family="Helvetica,sans-Serif" font-size="9.00">videosStore.ts</text>
</a>
</g>
</g>
<!-- src/views/NavBar.vue&#45;&gt;src/stores/videosStore.ts -->
<g id="edge63" class="edge">
<title>src/views/NavBar.vue&#45;&gt;src/stores/videosStore.ts</title>
<path fill="none" stroke="#000000" stroke-width="2" stroke-opacity="0.200000" d="M226.57,-227.64C268.94,-227.64 346.03,-227.64 395.14,-227.64"/>
<polygon fill="#000000" fill-opacity="0.200000" stroke="#000000" stroke-width="2" stroke-opacity="0.200000" points="394.95,-229.74 400.95,-227.64 394.95,-225.54 394.95,-229.74"/>
</g>
<!-- src/components/inputs/FileInput.vue -->
<g id="node15" class="node">
<title>src/components/inputs/FileInput.vue</title>
<g id="a_node15"><a xlink:href="src/components/inputs/FileInput.vue" xlink:title="FileInput.vue">
<path fill="#41f083" stroke="black" d="M349.71,-147.27C349.71,-147.27 294.79,-147.27 294.79,-147.27 291.58,-147.27 288.38,-144.06 288.38,-140.85 288.38,-140.85 288.38,-134.43 288.38,-134.43 288.38,-131.23 291.58,-128.02 294.79,-128.02 294.79,-128.02 349.71,-128.02 349.71,-128.02 352.92,-128.02 356.12,-131.23 356.12,-134.43 356.12,-134.43 356.12,-140.85 356.12,-140.85 356.12,-144.06 352.92,-147.27 349.71,-147.27"/>
<text text-anchor="start" x="296.38" y="-134.72" font-family="Helvetica,sans-Serif" font-size="9.00">FileInput.vue</text>
</a>
</g>
</g>
<!-- src/views/NavBar.vue&#45;&gt;src/components/inputs/FileInput.vue -->
<g id="edge61" class="edge">
<title>src/views/NavBar.vue&#45;&gt;src/components/inputs/FileInput.vue</title>
<path fill="none" stroke="#000000" stroke-width="2" stroke-opacity="0.200000" d="M226.71,-220.8C233.09,-218.7 239.58,-216.02 245.25,-212.64 271.03,-197.28 294.59,-171.36 308.44,-154.37"/>
<polygon fill="#000000" fill-opacity="0.200000" stroke="#000000" stroke-width="2" stroke-opacity="0.200000" points="309.77,-156.07 311.87,-150.07 306.49,-153.45 309.77,-156.07"/>
</g>
<!-- src/views/NavBar.vue&#45;&gt;src/stores/appStateStore.ts -->
<g id="edge62" class="edge">
<title>src/views/NavBar.vue&#45;&gt;src/stores/appStateStore.ts</title>
<path fill="none" stroke="#000000" stroke-width="2" stroke-opacity="0.200000" d="M221.63,-237.68C231.37,-241.1 242.68,-244.58 253.25,-246.64 299.1,-255.58 352.34,-258.27 390.29,-258.91"/>
<polygon fill="#000000" fill-opacity="0.200000" stroke="#000000" stroke-width="2" stroke-opacity="0.200000" points="390.05,-261 396.08,-258.98 390.11,-256.8 390.05,-261"/>
</g>
<!-- src/components/VideoCard.vue -->
<g id="node12" class="node">
<title>src/components/VideoCard.vue</title>
<g id="a_node12"><a xlink:href="src/components/VideoCard.vue" xlink:title="VideoCard.vue">
<path fill="#41f083" stroke="black" d="M353.83,-48.27C353.83,-48.27 290.67,-48.27 290.67,-48.27 287.46,-48.27 284.25,-45.06 284.25,-41.85 284.25,-41.85 284.25,-35.43 284.25,-35.43 284.25,-32.23 287.46,-29.02 290.67,-29.02 290.67,-29.02 353.83,-29.02 353.83,-29.02 357.04,-29.02 360.25,-32.23 360.25,-35.43 360.25,-35.43 360.25,-41.85 360.25,-41.85 360.25,-45.06 357.04,-48.27 353.83,-48.27"/>
<text text-anchor="start" x="292.25" y="-35.72" font-family="Helvetica,sans-Serif" font-size="9.00">VideoCard.vue</text>
</a>
</g>
</g>
<!-- src/views/VideoGallery.vue&#45;&gt;src/components/VideoCard.vue -->
<g id="edge64" class="edge">
<title>src/views/VideoGallery.vue&#45;&gt;src/components/VideoCard.vue</title>
<path fill="none" stroke="#000000" stroke-width="2" stroke-opacity="0.200000" d="M196.97,-186.87C199.75,-160.85 211.06,-89.46 253.25,-53.64 259.54,-48.3 267.32,-44.74 275.34,-42.39"/>
<polygon fill="#000000" fill-opacity="0.200000" stroke="#000000" stroke-width="2" stroke-opacity="0.200000" points="275.79,-44.44 281.13,-41 274.81,-40.36 275.79,-44.44"/>
</g>
<!-- src/views/VideoGallery.vue&#45;&gt;src/stores/videosStore.ts -->
<g id="edge66" class="edge">
<title>src/views/VideoGallery.vue&#45;&gt;src/stores/videosStore.ts</title>
<path fill="none" stroke="#000000" stroke-width="2" stroke-opacity="0.200000" d="M237.56,-201.9C281.32,-207.46 350.12,-216.19 395.24,-221.91"/>
<polygon fill="#000000" fill-opacity="0.200000" stroke="#000000" stroke-width="2" stroke-opacity="0.200000" points="394.71,-223.96 400.93,-222.64 395.24,-219.8 394.71,-223.96"/>
</g>
<!-- src/views/VideoGallery.vue&#45;&gt;src/stores/appStateStore.ts -->
<g id="edge65" class="edge">
<title>src/views/VideoGallery.vue&#45;&gt;src/stores/appStateStore.ts</title>
<path fill="none" stroke="#000000" stroke-width="2" stroke-opacity="0.200000" d="M231.79,-206.76C236.36,-208.28 240.94,-209.92 245.25,-211.64 248.94,-213.12 249.51,-214.3 253.25,-215.64 278.08,-224.56 343.75,-238.89 390.26,-248.53"/>
<polygon fill="#000000" fill-opacity="0.200000" stroke="#000000" stroke-width="2" stroke-opacity="0.200000" points="389.73,-250.57 396.04,-249.72 390.58,-246.45 389.73,-250.57"/>
</g>
<!-- src/application/index.ts -->
<g id="node5" class="node">
<title>src/application/index.ts</title>
<g id="a_node5"><a xlink:href="src/application/index.ts" xlink:title="index.ts">
<path fill="#ddfeff" stroke="black" d="M555.83,-261.27C555.83,-261.27 514.67,-261.27 514.67,-261.27 511.46,-261.27 508.25,-258.06 508.25,-254.85 508.25,-254.85 508.25,-248.43 508.25,-248.43 508.25,-245.23 511.46,-242.02 514.67,-242.02 514.67,-242.02 555.83,-242.02 555.83,-242.02 559.04,-242.02 562.25,-245.23 562.25,-248.43 562.25,-248.43 562.25,-254.85 562.25,-254.85 562.25,-258.06 559.04,-261.27 555.83,-261.27"/>
<text text-anchor="start" x="519.5" y="-248.72" font-family="Helvetica,sans-Serif" font-size="9.00">index.ts</text>
</a>
</g>
</g>
<!-- src/application/services/FileParserService.ts -->
<g id="node6" class="node">
<title>src/application/services/FileParserService.ts</title>
<g id="a_node6"><a xlink:href="src/application/services/FileParserService.ts" xlink:title="FileParserService.ts">
<path fill="#ddfeff" stroke="black" d="M670.33,-261.27C670.33,-261.27 584.67,-261.27 584.67,-261.27 581.46,-261.27 578.25,-258.06 578.25,-254.85 578.25,-254.85 578.25,-248.43 578.25,-248.43 578.25,-245.23 581.46,-242.02 584.67,-242.02 584.67,-242.02 670.33,-242.02 670.33,-242.02 673.54,-242.02 676.75,-245.23 676.75,-248.43 676.75,-248.43 676.75,-254.85 676.75,-254.85 676.75,-258.06 673.54,-261.27 670.33,-261.27"/>
<text text-anchor="start" x="586.25" y="-248.72" font-family="Helvetica,sans-Serif" font-size="9.00">FileParserService.ts</text>
</a>
</g>
</g>
<!-- src/application/index.ts&#45;&gt;src/application/services/FileParserService.ts -->
<g id="edge4" class="edge">
<title>src/application/index.ts&#45;&gt;src/application/services/FileParserService.ts</title>
<path fill="none" stroke="#000000" stroke-width="2" stroke-opacity="0.200000" d="M562.35,-251.64C567.25,-251.64 572.51,-251.64 577.83,-251.64"/>
<polygon fill="#000000" fill-opacity="0.200000" stroke="#000000" stroke-width="2" stroke-opacity="0.200000" points="580.64,-250.25 584.54,-258.35 576.44,-254.45 580.64,-250.25"/>
</g>
<!-- src/application/services/FiltersService.ts -->
<g id="node7" class="node">
<title>src/application/services/FiltersService.ts</title>
<g id="a_node7"><a xlink:href="src/application/services/FiltersService.ts" xlink:title="FiltersService.ts">
<path fill="#ddfeff" stroke="black" d="M661.71,-292.27C661.71,-292.27 593.29,-292.27 593.29,-292.27 590.08,-292.27 586.88,-289.06 586.88,-285.85 586.88,-285.85 586.88,-279.43 586.88,-279.43 586.88,-276.23 590.08,-273.02 593.29,-273.02 593.29,-273.02 661.71,-273.02 661.71,-273.02 664.92,-273.02 668.12,-276.23 668.12,-279.43 668.12,-279.43 668.12,-285.85 668.12,-285.85 668.12,-289.06 664.92,-292.27 661.71,-292.27"/>
<text text-anchor="start" x="594.88" y="-279.72" font-family="Helvetica,sans-Serif" font-size="9.00">FiltersService.ts</text>
</a>
</g>
</g>
<!-- src/application/index.ts&#45;&gt;src/application/services/FiltersService.ts -->
<g id="edge5" class="edge">
<title>src/application/index.ts&#45;&gt;src/application/services/FiltersService.ts</title>
<path fill="none" stroke="#000000" stroke-width="2" stroke-opacity="0.200000" d="M556.13,-261.73C560.7,-263.84 565.59,-265.94 570.25,-267.64 572.78,-268.57 575.39,-269.46 578.04,-270.32"/>
<polygon fill="#000000" fill-opacity="0.200000" stroke="#000000" stroke-width="2" stroke-opacity="0.200000" points="577.33,-272.3 583.69,-272.06 578.57,-268.29 577.33,-272.3"/>
</g>
<!-- src/application/services/Hotkeys.ts -->
<g id="node8" class="node">
<title>src/application/services/Hotkeys.ts</title>
<g id="a_node8"><a xlink:href="src/application/services/Hotkeys.ts" xlink:title="Hotkeys.ts">
<path fill="#ddfeff" stroke="black" d="M650.46,-230.27C650.46,-230.27 604.54,-230.27 604.54,-230.27 601.33,-230.27 598.12,-227.06 598.12,-223.85 598.12,-223.85 598.12,-217.43 598.12,-217.43 598.12,-214.23 601.33,-211.02 604.54,-211.02 604.54,-211.02 650.46,-211.02 650.46,-211.02 653.67,-211.02 656.88,-214.23 656.88,-217.43 656.88,-217.43 656.88,-223.85 656.88,-223.85 656.88,-227.06 653.67,-230.27 650.46,-230.27"/>
<text text-anchor="start" x="606.12" y="-217.72" font-family="Helvetica,sans-Serif" font-size="9.00">Hotkeys.ts</text>
</a>
</g>
</g>
<!-- src/application/index.ts&#45;&gt;src/application/services/Hotkeys.ts -->
<g id="edge6" class="edge">
<title>src/application/index.ts&#45;&gt;src/application/services/Hotkeys.ts</title>
<path fill="none" stroke="#000000" stroke-width="2" stroke-opacity="0.200000" d="M556.13,-241.56C560.7,-239.45 565.59,-237.34 597.86,-227.22"/>
<polygon fill="#000000" fill-opacity="0.200000" stroke="#000000" stroke-width="2" stroke-opacity="0.200000" points="600.67,-225.83 604.57,-233.93 596.47,-230.03 600.67,-225.83"/>
</g>
<!-- src/domain/entities/index.ts -->
<g id="node9" class="node">
<title>src/domain/entities/index.ts</title>
<g id="a_node9"><a xlink:href="src/domain/entities/index.ts" xlink:title="index.ts">
<path fill="#ddfeff" stroke="black" d="M1515.58,-380.27C1515.58,-380.27 1474.42,-380.27 1474.42,-380.27 1471.21,-380.27 1468,-377.06 1468,-373.85 1468,-373.85 1468,-367.43 1468,-367.43 1468,-364.23 1471.21,-361.02 1474.42,-361.02 1474.42,-361.02 1515.58,-361.02 1515.58,-361.02 1518.79,-361.02 1522,-364.23 1522,-367.43 1522,-367.43 1522,-373.85 1522,-373.85 1522,-377.06 1518.79,-380.27 1515.58,-380.27"/>
<text text-anchor="start" x="1479.25" y="-367.72" font-family="Helvetica,sans-Serif" font-size="9.00">index.ts</text>
</a>
</g>
</g>
<!-- src/application/services/FileParserService.ts&#45;&gt;src/domain/entities/index.ts -->
<g id="edge7" class="edge">
<title>src/application/services/FileParserService.ts&#45;&gt;src/domain/entities/index.ts</title>
<path fill="none" stroke="#000000" stroke-opacity="0.200000" d="M677.07,-257.88C682.73,-260.04 688.13,-262.89 692.75,-266.64 814.42,-365.57 684.56,-586.64 841.38,-586.64 841.38,-586.64 841.38,-586.64 1238,-586.64 1261.8,-586.64 1433.92,-592.13 1452,-576.64 1480.64,-552.12 1490.41,-433.02 1493.11,-387.96"/>
<polygon fill="none" stroke="#000000" stroke-opacity="0.200000" points="1495.19,-388.3 1493.44,-382.19 1491,-388.06 1495.19,-388.3"/>
</g>
<!-- src/application/services/FileParserService.ts&#45;&gt;src/infrastructure/services/index.ts -->
<g id="edge8" class="edge">
<title>src/application/services/FileParserService.ts&#45;&gt;src/infrastructure/services/index.ts</title>
<path fill="none" stroke="#000000" stroke-width="2" stroke-opacity="0.200000" d="M677.17,-243.78C682.63,-241.89 687.95,-239.55 692.75,-236.64 709.33,-226.61 723.23,-209.2 732.14,-196.07"/>
<polygon fill="#000000" fill-opacity="0.200000" stroke="#000000" stroke-width="2" stroke-opacity="0.200000" points="733.87,-197.26 735.37,-191.08 730.34,-194.98 733.87,-197.26"/>
</g>
<!-- src/infrastructure/video/index.ts -->
<g id="node11" class="node">
<title>src/infrastructure/video/index.ts</title>
<g id="a_node11"><a xlink:href="src/infrastructure/video/index.ts" xlink:title="index.ts">
<path fill="#ddfeff" stroke="black" d="M764.33,-94.27C764.33,-94.27 723.17,-94.27 723.17,-94.27 719.96,-94.27 716.75,-91.06 716.75,-87.85 716.75,-87.85 716.75,-81.43 716.75,-81.43 716.75,-78.23 719.96,-75.02 723.17,-75.02 723.17,-75.02 764.33,-75.02 764.33,-75.02 767.54,-75.02 770.75,-78.23 770.75,-81.43 770.75,-81.43 770.75,-87.85 770.75,-87.85 770.75,-91.06 767.54,-94.27 764.33,-94.27"/>
<text text-anchor="start" x="728" y="-81.72" font-family="Helvetica,sans-Serif" font-size="9.00">index.ts</text>
</a>
</g>
</g>
<!-- src/application/services/FileParserService.ts&#45;&gt;src/infrastructure/video/index.ts -->
<g id="edge9" class="edge">
<title>src/application/services/FileParserService.ts&#45;&gt;src/infrastructure/video/index.ts</title>
<path fill="none" stroke="#000000" stroke-width="2" stroke-opacity="0.200000" d="M677.12,-247.3C683.06,-244.89 688.51,-241.46 692.75,-236.64 704.4,-223.39 695.34,-174.44 700.75,-157.64 707.4,-136.97 720.47,-115.72 730.27,-101.52"/>
<polygon fill="#000000" fill-opacity="0.200000" stroke="#000000" stroke-width="2" stroke-opacity="0.200000" points="731.81,-102.98 733.57,-96.87 728.39,-100.55 731.81,-102.98"/>
</g>
<!-- src/application/services/FiltersService.ts&#45;&gt;src/domain/entities/index.ts -->
<g id="edge10" class="edge">
<title>src/application/services/FiltersService.ts&#45;&gt;src/domain/entities/index.ts</title>
<path fill="none" stroke="#000000" stroke-opacity="0.200000" d="M629.3,-292.68C633.37,-341.17 653.51,-550.39 700.75,-590.64 724.6,-610.96 810.05,-600.64 841.38,-600.64 841.38,-600.64 841.38,-600.64 1238,-600.64 1285.61,-600.64 1416.03,-621.83 1452,-590.64 1482.62,-564.09 1491.22,-434.93 1493.36,-387.85"/>
<polygon fill="none" stroke="#000000" stroke-opacity="0.200000" points="1495.45,-388.14 1493.61,-382.05 1491.25,-387.96 1495.45,-388.14"/>
</g>
<!-- src/domain/entities/MetadataEntity.ts -->
<g id="node18" class="node">
<title>src/domain/entities/MetadataEntity.ts</title>
<g id="a_node18"><a xlink:href="src/domain/entities/MetadataEntity.ts" xlink:title="MetadataEntity.ts">
<path fill="#ddfeff" stroke="black" d="M1814.08,-360.27C1814.08,-360.27 1741.92,-360.27 1741.92,-360.27 1738.71,-360.27 1735.5,-357.06 1735.5,-353.85 1735.5,-353.85 1735.5,-347.43 1735.5,-347.43 1735.5,-344.23 1738.71,-341.02 1741.92,-341.02 1741.92,-341.02 1814.08,-341.02 1814.08,-341.02 1817.29,-341.02 1820.5,-344.23 1820.5,-347.43 1820.5,-347.43 1820.5,-353.85 1820.5,-353.85 1820.5,-357.06 1817.29,-360.27 1814.08,-360.27"/>
<text text-anchor="start" x="1743.5" y="-347.72" font-family="Helvetica,sans-Serif" font-size="9.00">MetadataEntity.ts</text>
</a>
</g>
</g>
<!-- src/domain/entities/index.ts&#45;&gt;src/domain/entities/MetadataEntity.ts -->
<g id="edge21" class="edge">
<title>src/domain/entities/index.ts&#45;&gt;src/domain/entities/MetadataEntity.ts</title>
<path fill="none" stroke="#000000" stroke-opacity="0.200000" d="M1506.63,-360.61C1513.97,-354.39 1524.31,-346.98 1535,-343.64 1599.43,-323.52 1678.27,-331.4 1728.07,-340.07"/>
<polygon fill="none" stroke="#000000" stroke-opacity="0.200000" points="1727.44,-342.09 1733.71,-341.08 1728.18,-337.95 1727.44,-342.09"/>
</g>
<!-- src/domain/entities/ParsedVideo.ts -->
<g id="node19" class="node">
<title>src/domain/entities/ParsedVideo.ts</title>
<g id="a_node19"><a xlink:href="src/domain/entities/ParsedVideo.ts" xlink:title="ParsedVideo.ts">
<path fill="#ddfeff" stroke="black" d="M1607.58,-369.27C1607.58,-369.27 1541.42,-369.27 1541.42,-369.27 1538.21,-369.27 1535,-366.06 1535,-362.85 1535,-362.85 1535,-356.43 1535,-356.43 1535,-353.23 1538.21,-350.02 1541.42,-350.02 1541.42,-350.02 1607.58,-350.02 1607.58,-350.02 1610.79,-350.02 1614,-353.23 1614,-356.43 1614,-356.43 1614,-362.85 1614,-362.85 1614,-366.06 1610.79,-369.27 1607.58,-369.27"/>
<text text-anchor="start" x="1543" y="-356.72" font-family="Helvetica,sans-Serif" font-size="9.00">ParsedVideo.ts</text>
</a>
</g>
</g>
<!-- src/domain/entities/index.ts&#45;&gt;src/domain/entities/ParsedVideo.ts -->
<g id="edge22" class="edge">
<title>src/domain/entities/index.ts&#45;&gt;src/domain/entities/ParsedVideo.ts</title>
<path fill="none" stroke="#000000" stroke-opacity="0.200000" d="M1522.24,-366.92C1524.01,-366.67 1525.81,-366.41 1527.64,-366.15"/>
<polygon fill="none" stroke="#000000" stroke-opacity="0.200000" points="1527.62,-368.28 1533.27,-365.35 1527.03,-364.12 1527.62,-368.28"/>
</g>
<!-- src/domain/entities/VideoStorageDto.ts -->
<g id="node20" class="node">
<title>src/domain/entities/VideoStorageDto.ts</title>
<g id="a_node20"><a xlink:href="src/domain/entities/VideoStorageDto.ts" xlink:title="VideoStorageDto.ts">
<path fill="#ddfeff" stroke="black" d="M1716.08,-376.27C1716.08,-376.27 1633.42,-376.27 1633.42,-376.27 1630.21,-376.27 1627,-373.06 1627,-369.85 1627,-369.85 1627,-363.43 1627,-363.43 1627,-360.23 1630.21,-357.02 1633.42,-357.02 1633.42,-357.02 1716.08,-357.02 1716.08,-357.02 1719.29,-357.02 1722.5,-360.23 1722.5,-363.43 1722.5,-363.43 1722.5,-369.85 1722.5,-369.85 1722.5,-373.06 1719.29,-376.27 1716.08,-376.27"/>
<text text-anchor="start" x="1635" y="-363.72" font-family="Helvetica,sans-Serif" font-size="9.00">VideoStorageDto.ts</text>
</a>
</g>
</g>
<!-- src/domain/entities/index.ts&#45;&gt;src/domain/entities/VideoStorageDto.ts -->
<g id="edge24" class="edge">
<title>src/domain/entities/index.ts&#45;&gt;src/domain/entities/VideoStorageDto.ts</title>
<path fill="none" stroke="#000000" stroke-opacity="0.200000" d="M1522.39,-374.49C1526.6,-374.97 1530.91,-375.38 1535,-375.64 1570.04,-377.88 1578.99,-378.27 1614,-375.64 1615.78,-375.51 1617.6,-375.35 1619.43,-375.18"/>
<polygon fill="none" stroke="#000000" stroke-opacity="0.200000" points="1619.28,-377.31 1625.03,-374.58 1618.84,-373.13 1619.28,-377.31"/>
</g>
<!-- src/domain/entities/VideoEntity.ts -->
<g id="node21" class="node">
<title>src/domain/entities/VideoEntity.ts</title>
<g id="a_node21"><a xlink:href="src/domain/entities/VideoEntity.ts" xlink:title="VideoEntity.ts">
<path fill="#ddfeff" stroke="black" d="M1806.96,-394.27C1806.96,-394.27 1749.04,-394.27 1749.04,-394.27 1745.83,-394.27 1742.62,-391.06 1742.62,-387.85 1742.62,-387.85 1742.62,-381.43 1742.62,-381.43 1742.62,-378.23 1745.83,-375.02 1749.04,-375.02 1749.04,-375.02 1806.96,-375.02 1806.96,-375.02 1810.17,-375.02 1813.38,-378.23 1813.38,-381.43 1813.38,-381.43 1813.38,-387.85 1813.38,-387.85 1813.38,-391.06 1810.17,-394.27 1806.96,-394.27"/>
<text text-anchor="start" x="1750.62" y="-381.72" font-family="Helvetica,sans-Serif" font-size="9.00">VideoEntity.ts</text>
</a>
</g>
</g>
<!-- src/domain/entities/index.ts&#45;&gt;src/domain/entities/VideoEntity.ts -->
<g id="edge23" class="edge">
<title>src/domain/entities/index.ts&#45;&gt;src/domain/entities/VideoEntity.ts</title>
<path fill="none" stroke="#000000" stroke-opacity="0.200000" d="M1522.31,-377.44C1526.53,-378.32 1530.87,-379.1 1535,-379.64 1604.61,-388.72 1686.43,-388.08 1734.88,-386.54"/>
<polygon fill="none" stroke="#000000" stroke-opacity="0.200000" points="1734.92,-388.64 1740.85,-386.34 1734.78,-384.44 1734.92,-388.64"/>
</g>
<!-- src/infrastructure/services/VideoMetadataFacade.ts -->
<g id="node34" class="node">
<title>src/infrastructure/services/VideoMetadataFacade.ts</title>
<g id="a_node34"><a xlink:href="src/infrastructure/services/VideoMetadataFacade.ts" xlink:title="VideoMetadataFacade.ts">
<path fill="#ddfeff" stroke="black" d="M894.58,-188.27C894.58,-188.27 790.17,-188.27 790.17,-188.27 786.96,-188.27 783.75,-185.06 783.75,-181.85 783.75,-181.85 783.75,-175.43 783.75,-175.43 783.75,-172.23 786.96,-169.02 790.17,-169.02 790.17,-169.02 894.58,-169.02 894.58,-169.02 897.79,-169.02 901,-172.23 901,-175.43 901,-175.43 901,-181.85 901,-181.85 901,-185.06 897.79,-188.27 894.58,-188.27"/>
<text text-anchor="start" x="791.75" y="-175.72" font-family="Helvetica,sans-Serif" font-size="9.00">VideoMetadataFacade.ts</text>
</a>
</g>
</g>
<!-- src/infrastructure/services/index.ts&#45;&gt;src/infrastructure/services/VideoMetadataFacade.ts -->
<g id="edge49" class="edge">
<title>src/infrastructure/services/index.ts&#45;&gt;src/infrastructure/services/VideoMetadataFacade.ts</title>
<path fill="none" stroke="#000000" stroke-width="2" stroke-opacity="0.200000" d="M771.15,-178.64C775.06,-178.64 779.22,-178.64 783.48,-178.64"/>
<polygon fill="#000000" fill-opacity="0.200000" stroke="#000000" stroke-width="2" stroke-opacity="0.200000" points="786.28,-177.25 790.18,-185.35 782.08,-181.45 786.28,-177.25"/>
</g>
<!-- src/infrastructure/video/HTMLVideoProcessor.ts -->
<g id="node35" class="node">
<title>src/infrastructure/video/HTMLVideoProcessor.ts</title>
<g id="a_node35"><a xlink:href="src/infrastructure/video/HTMLVideoProcessor.ts" xlink:title="HTMLVideoProcessor.ts">
<path fill="#ddfeff" stroke="black" d="M1026.33,-87.27C1026.33,-87.27 923.42,-87.27 923.42,-87.27 920.21,-87.27 917,-84.06 917,-80.85 917,-80.85 917,-74.43 917,-74.43 917,-71.23 920.21,-68.02 923.42,-68.02 923.42,-68.02 1026.33,-68.02 1026.33,-68.02 1029.54,-68.02 1032.75,-71.23 1032.75,-74.43 1032.75,-74.43 1032.75,-80.85 1032.75,-80.85 1032.75,-84.06 1029.54,-87.27 1026.33,-87.27"/>
<text text-anchor="start" x="925" y="-74.72" font-family="Helvetica,sans-Serif" font-size="9.00">HTMLVideoProcessor.ts</text>
</a>
</g>
</g>
<!-- src/infrastructure/video/index.ts&#45;&gt;src/infrastructure/video/HTMLVideoProcessor.ts -->
<g id="edge53" class="edge">
<title>src/infrastructure/video/index.ts&#45;&gt;src/infrastructure/video/HTMLVideoProcessor.ts</title>
<path fill="none" stroke="#000000" stroke-width="2" stroke-opacity="0.200000" d="M764.93,-74.62C770.85,-72.17 777.43,-69.89 916.78,-67.83"/>
<polygon fill="#000000" fill-opacity="0.200000" stroke="#000000" stroke-width="2" stroke-opacity="0.200000" points="919.58,-66.44 923.48,-74.54 915.38,-70.64 919.58,-66.44"/>
</g>
<!-- src/infrastructure/video/VideoFileParser.ts -->
<g id="node36" class="node">
<title>src/infrastructure/video/VideoFileParser.ts</title>
<g id="a_node36"><a xlink:href="src/infrastructure/video/VideoFileParser.ts" xlink:title="VideoFileParser.ts">
<path fill="#ddfeff" stroke="black" d="M881.83,-94.27C881.83,-94.27 802.92,-94.27 802.92,-94.27 799.71,-94.27 796.5,-91.06 796.5,-87.85 796.5,-87.85 796.5,-81.43 796.5,-81.43 796.5,-78.23 799.71,-75.02 802.92,-75.02 802.92,-75.02 881.83,-75.02 881.83,-75.02 885.04,-75.02 888.25,-78.23 888.25,-81.43 888.25,-81.43 888.25,-87.85 888.25,-87.85 888.25,-91.06 885.04,-94.27 881.83,-94.27"/>
<text text-anchor="start" x="804.5" y="-81.72" font-family="Helvetica,sans-Serif" font-size="9.00">VideoFileParser.ts</text>
</a>
</g>
</g>
<!-- src/infrastructure/video/index.ts&#45;&gt;src/infrastructure/video/VideoFileParser.ts -->
<g id="edge54" class="edge">
<title>src/infrastructure/video/index.ts&#45;&gt;src/infrastructure/video/VideoFileParser.ts</title>
<path fill="none" stroke="#000000" stroke-width="2" stroke-opacity="0.200000" d="M771.15,-84.64C778.86,-84.64 787.52,-84.64 796.05,-84.64"/>
<polygon fill="#000000" fill-opacity="0.200000" stroke="#000000" stroke-width="2" stroke-opacity="0.200000" points="798.86,-83.25 802.76,-91.35 794.66,-87.45 798.86,-83.25"/>
</g>
<!-- src/components/VideoCard.vue&#45;&gt;src/domain/entities/index.ts -->
<g id="edge13" class="edge">
<title>src/components/VideoCard.vue&#45;&gt;src/domain/entities/index.ts</title>
<path fill="none" stroke="#000000" stroke-opacity="0.200000" d="M359.32,-48.76C369.56,-51.19 380.77,-53.43 391.25,-54.64 435.84,-59.82 447.38,-55.86 492.25,-54.64 647.59,-50.42 685.98,-35.64 841.38,-35.64 841.38,-35.64 841.38,-35.64 1238,-35.64 1357.02,-35.64 1386.64,-97.17 1452,-196.64 1485.02,-246.89 1492.12,-320.58 1493.62,-353.57"/>
<polygon fill="none" stroke="#000000" stroke-opacity="0.200000" points="1491.5,-353.26 1493.82,-359.18 1495.7,-353.1 1491.5,-353.26"/>
</g>
<!-- src/components/VideoEmbed.vue -->
<g id="node13" class="node">
<title>src/components/VideoEmbed.vue</title>
<g id="a_node13"><a xlink:href="src/components/VideoEmbed.vue" xlink:title="VideoEmbed.vue">
<path fill="#41f083" stroke="black" d="M477.83,-48.27C477.83,-48.27 404.92,-48.27 404.92,-48.27 401.71,-48.27 398.5,-45.06 398.5,-41.85 398.5,-41.85 398.5,-35.43 398.5,-35.43 398.5,-32.23 401.71,-29.02 404.92,-29.02 404.92,-29.02 477.83,-29.02 477.83,-29.02 481.04,-29.02 484.25,-32.23 484.25,-35.43 484.25,-35.43 484.25,-41.85 484.25,-41.85 484.25,-45.06 481.04,-48.27 477.83,-48.27"/>
<text text-anchor="start" x="406.5" y="-35.72" font-family="Helvetica,sans-Serif" font-size="9.00">VideoEmbed.vue</text>
</a>
</g>
</g>
<!-- src/components/VideoCard.vue&#45;&gt;src/components/VideoEmbed.vue -->
<g id="edge11" class="edge">
<title>src/components/VideoCard.vue&#45;&gt;src/components/VideoEmbed.vue</title>
<path fill="none" stroke="#000000" stroke-width="2" stroke-opacity="0.200000" d="M360.63,-38.64C369.75,-38.64 379.67,-38.64 389.31,-38.64"/>
<polygon fill="#000000" fill-opacity="0.200000" stroke="#000000" stroke-width="2" stroke-opacity="0.200000" points="389.03,-40.74 395.03,-38.64 389.03,-36.54 389.03,-40.74"/>
</g>
<!-- src/components/VideoCard.vue&#45;&gt;src/stores/videosStore.ts -->
<g id="edge12" class="edge">
<title>src/components/VideoCard.vue&#45;&gt;src/stores/videosStore.ts</title>
<path fill="none" stroke="#000000" stroke-width="2" stroke-opacity="0.200000" d="M360.65,-40.51C369.28,-42.77 377.58,-46.77 383.25,-53.64 404.62,-79.57 372.47,-176.78 391.25,-204.64 393.32,-207.72 395.92,-210.39 398.83,-212.71"/>
<polygon fill="#000000" fill-opacity="0.200000" stroke="#000000" stroke-width="2" stroke-opacity="0.200000" points="397.41,-214.29 403.57,-215.85 399.72,-210.79 397.41,-214.29"/>
</g>
<!-- src/components/VideoEmbed.vue&#45;&gt;src/domain/entities/index.ts -->
<g id="edge14" class="edge">
<title>src/components/VideoEmbed.vue&#45;&gt;src/domain/entities/index.ts</title>
<path fill="none" stroke="#000000" stroke-opacity="0.200000" d="M484.69,-32.51C521.94,-27.64 577.7,-21.64 626.5,-21.64 626.5,-21.64 626.5,-21.64 1238,-21.64 1333.21,-21.64 1382.15,33.06 1452,-31.64 1475.88,-53.76 1489.69,-287.33 1493.14,-353.35"/>
<polygon fill="none" stroke="#000000" stroke-opacity="0.200000" points="1491.03,-353.15 1493.43,-359.03 1495.22,-352.93 1491.03,-353.15"/>
</g>
<!-- src/stores/videosStore.ts&#45;&gt;src/application/index.ts -->
<g id="edge57" class="edge">
<title>src/stores/videosStore.ts&#45;&gt;src/application/index.ts</title>
<path fill="none" stroke="#000000" stroke-width="2" stroke-opacity="0.200000" d="M478.95,-237.2C485.78,-238.98 492.89,-240.84 499.65,-242.61"/>
<polygon fill="#000000" fill-opacity="0.200000" stroke="#000000" stroke-width="2" stroke-opacity="0.200000" points="498.72,-244.53 505.06,-244.02 499.78,-240.47 498.72,-244.53"/>
</g>
<!-- src/stores/videosStore.ts&#45;&gt;src/domain/entities/index.ts -->
<g id="edge58" class="edge">
<title>src/stores/videosStore.ts&#45;&gt;src/domain/entities/index.ts</title>
<path fill="none" stroke="#000000" stroke-opacity="0.200000" d="M478.84,-232.9C484,-235.14 488.74,-238.27 492.25,-242.64 507.18,-261.23 494.13,-326.6 500.25,-349.64 533.74,-475.73 496.04,-614.64 626.5,-614.64 626.5,-614.64 626.5,-614.64 1238,-614.64 1333.26,-614.64 1380.63,-665.73 1452,-602.64 1484.17,-574.2 1491.82,-436.54 1493.53,-387.79"/>
<polygon fill="none" stroke="#000000" stroke-opacity="0.200000" points="1495.63,-388.09 1493.72,-382.02 1491.43,-387.95 1495.63,-388.09"/>
</g>
<!-- src/stores/videosStore.ts&#45;&gt;src/infrastructure/services/index.ts -->
<g id="edge59" class="edge">
<title>src/stores/videosStore.ts&#45;&gt;src/infrastructure/services/index.ts</title>
<path fill="none" stroke="#000000" stroke-width="2" stroke-opacity="0.200000" d="M454.34,-217.66C465.46,-209.03 482.87,-197.12 500.25,-191.64 571.28,-169.28 659.72,-171.59 707.75,-175.17"/>
<polygon fill="#000000" fill-opacity="0.200000" stroke="#000000" stroke-width="2" stroke-opacity="0.200000" points="707.35,-177.24 713.5,-175.63 707.68,-173.06 707.35,-177.24"/>
</g>
<!-- src/stores/videosStore.ts&#45;&gt;src/infrastructure/video/index.ts -->
<g id="edge60" class="edge">
<title>src/stores/videosStore.ts&#45;&gt;src/infrastructure/video/index.ts</title>
<path fill="none" stroke="#000000" stroke-width="2" stroke-opacity="0.200000" d="M475.01,-217.61C481.46,-214.35 487.64,-210.11 492.25,-204.64 501.14,-194.09 490.97,-184.85 500.25,-174.64 555.37,-114.03 655.09,-94.1 707.85,-87.65"/>
<polygon fill="#000000" fill-opacity="0.200000" stroke="#000000" stroke-width="2" stroke-opacity="0.200000" points="707.78,-89.77 713.51,-87.01 707.31,-85.6 707.78,-89.77"/>
</g>
<!-- src/components/inputs/FileInput.vue&#45;&gt;src/stores/videosStore.ts -->
<g id="edge15" class="edge">
<title>src/components/inputs/FileInput.vue&#45;&gt;src/stores/videosStore.ts</title>
<path fill="none" stroke="#000000" stroke-width="2" stroke-opacity="0.200000" d="M336.23,-147.62C356.64,-163.3 396.36,-193.82 420.41,-212.3"/>
<polygon fill="#000000" fill-opacity="0.200000" stroke="#000000" stroke-width="2" stroke-opacity="0.200000" points="418.9,-213.79 424.93,-215.78 421.46,-210.46 418.9,-213.79"/>
</g>
<!-- src/stores/appStateStore.ts&#45;&gt;src/application/index.ts -->
<g id="edge56" class="edge">
<title>src/stores/appStateStore.ts&#45;&gt;src/application/index.ts</title>
<path fill="none" stroke="#000000" stroke-width="2" stroke-opacity="0.200000" d="M483.74,-255.49C488.86,-255.1 494.06,-254.71 499.08,-254.32"/>
<polygon fill="#000000" fill-opacity="0.200000" stroke="#000000" stroke-width="2" stroke-opacity="0.200000" points="499.01,-256.43 504.83,-253.88 498.69,-252.25 499.01,-256.43"/>
</g>
<!-- src/domain/constants/index.ts -->
<g id="node17" class="node">
<title>src/domain/constants/index.ts</title>
<g id="a_node17"><a xlink:href="src/domain/constants/index.ts" xlink:title="index.ts">
<path fill="#ddfeff" stroke="black" d="M1257.58,-286.27C1257.58,-286.27 1216.42,-286.27 1216.42,-286.27 1213.21,-286.27 1210,-283.06 1210,-279.85 1210,-279.85 1210,-273.43 1210,-273.43 1210,-270.23 1213.21,-267.02 1216.42,-267.02 1216.42,-267.02 1257.58,-267.02 1257.58,-267.02 1260.79,-267.02 1264,-270.23 1264,-273.43 1264,-273.43 1264,-279.85 1264,-279.85 1264,-283.06 1260.79,-286.27 1257.58,-286.27"/>
<text text-anchor="start" x="1221.25" y="-273.72" font-family="Helvetica,sans-Serif" font-size="9.00">index.ts</text>
</a>
</g>
</g>
<!-- src/domain/entities/ParsedVideo.ts&#45;&gt;src/domain/entities/VideoStorageDto.ts -->
<g id="edge18" class="edge">
<title>src/domain/entities/ParsedVideo.ts&#45;&gt;src/domain/entities/VideoStorageDto.ts</title>
<path fill="none" stroke="#000000" stroke-opacity="0.200000" d="M1614.33,-362.41C1615.99,-362.53 1617.66,-362.65 1619.34,-362.77"/>
<polygon fill="none" stroke="#000000" stroke-opacity="0.200000" points="1619.09,-364.85 1625.23,-363.19 1619.39,-360.66 1619.09,-364.85"/>
</g>
<!-- src/domain/entities/VideoStorageDto.ts&#45;&gt;src/domain/entities/MetadataEntity.ts -->
<g id="edge19" class="edge">
<title>src/domain/entities/VideoStorageDto.ts&#45;&gt;src/domain/entities/MetadataEntity.ts</title>
<path fill="none" stroke="#000000" stroke-opacity="0.200000" d="M1722.82,-359.21C1724.5,-358.94 1726.18,-358.67 1727.86,-358.41"/>
<polygon fill="none" stroke="#000000" stroke-opacity="0.200000" points="1728.1,-360.5 1733.7,-357.49 1727.45,-356.35 1728.1,-360.5"/>
</g>
<!-- src/domain/entities/VideoStorageDto.ts&#45;&gt;src/domain/entities/VideoEntity.ts -->
<g id="edge20" class="edge">
<title>src/domain/entities/VideoStorageDto.ts&#45;&gt;src/domain/entities/VideoEntity.ts</title>
<path fill="none" stroke="#000000" stroke-opacity="0.200000" d="M1722.82,-375.01C1726.88,-375.73 1730.98,-376.46 1735.01,-377.18"/>
<polygon fill="none" stroke="#000000" stroke-opacity="0.200000" points="1734.38,-379.2 1740.65,-378.18 1735.11,-375.06 1734.38,-379.2"/>
</g>
<!-- src/domain/repositories/IMetadataRepository.ts -->
<g id="node22" class="node">
<title>src/domain/repositories/IMetadataRepository.ts</title>
<g id="a_node22"><a xlink:href="src/domain/repositories/IMetadataRepository.ts" xlink:title="IMetadataRepository.ts">
<path fill="#ddfeff" stroke="black" d="M1429.33,-349.27C1429.33,-349.27 1332.42,-349.27 1332.42,-349.27 1329.21,-349.27 1326,-346.06 1326,-342.85 1326,-342.85 1326,-336.43 1326,-336.43 1326,-333.23 1329.21,-330.02 1332.42,-330.02 1332.42,-330.02 1429.33,-330.02 1429.33,-330.02 1432.54,-330.02 1435.75,-333.23 1435.75,-336.43 1435.75,-336.43 1435.75,-342.85 1435.75,-342.85 1435.75,-346.06 1432.54,-349.27 1429.33,-349.27"/>
<text text-anchor="start" x="1334" y="-336.72" font-family="Helvetica,sans-Serif" font-size="9.00">IMetadataRepository.ts</text>
</a>
</g>
</g>
<!-- src/domain/repositories/IMetadataRepository.ts&#45;&gt;src/domain/entities/index.ts -->
<g id="edge25" class="edge">
<title>src/domain/repositories/IMetadataRepository.ts&#45;&gt;src/domain/entities/index.ts</title>
<path fill="none" stroke="#000000" stroke-opacity="0.200000" d="M1433.42,-349.72C1439.72,-351.23 1446.03,-352.88 1452,-354.64 1455.38,-355.64 1458.87,-356.78 1462.33,-357.99"/>
<polygon fill="none" stroke="#000000" stroke-opacity="0.200000" points="1461.56,-359.95 1467.92,-360.01 1462.99,-356 1461.56,-359.95"/>
</g>
<!-- src/domain/repositories/IVideoFacade.ts -->
<g id="node23" class="node">
<title>src/domain/repositories/IVideoFacade.ts</title>
<g id="a_node23"><a xlink:href="src/domain/repositories/IVideoFacade.ts" xlink:title="IVideoFacade.ts">
<path fill="#ddfeff" stroke="black" d="M1415.46,-380.27C1415.46,-380.27 1346.29,-380.27 1346.29,-380.27 1343.08,-380.27 1339.88,-377.06 1339.88,-373.85 1339.88,-373.85 1339.88,-367.43 1339.88,-367.43 1339.88,-364.23 1343.08,-361.02 1346.29,-361.02 1346.29,-361.02 1415.46,-361.02 1415.46,-361.02 1418.67,-361.02 1421.88,-364.23 1421.88,-367.43 1421.88,-367.43 1421.88,-373.85 1421.88,-373.85 1421.88,-377.06 1418.67,-380.27 1415.46,-380.27"/>
<text text-anchor="start" x="1347.88" y="-367.72" font-family="Helvetica,sans-Serif" font-size="9.00">IVideoFacade.ts</text>
</a>
</g>
</g>
<!-- src/domain/repositories/IVideoFacade.ts&#45;&gt;src/domain/entities/index.ts -->
<g id="edge26" class="edge">
<title>src/domain/repositories/IVideoFacade.ts&#45;&gt;src/domain/entities/index.ts</title>
<path fill="none" stroke="#000000" stroke-opacity="0.200000" d="M1422.35,-370.64C1434.82,-370.64 1448.41,-370.64 1460.36,-370.64"/>
<polygon fill="none" stroke="#000000" stroke-opacity="0.200000" points="1460.06,-372.74 1466.06,-370.64 1460.06,-368.54 1460.06,-372.74"/>
</g>
<!-- src/domain/repositories/IVideoRepository.ts -->
<g id="node24" class="node">
<title>src/domain/repositories/IVideoRepository.ts</title>
<g id="a_node24"><a xlink:href="src/domain/repositories/IVideoRepository.ts" xlink:title="IVideoRepository.ts">
<path fill="#ddfeff" stroke="black" d="M1422.21,-411.27C1422.21,-411.27 1339.54,-411.27 1339.54,-411.27 1336.33,-411.27 1333.12,-408.06 1333.12,-404.85 1333.12,-404.85 1333.12,-398.43 1333.12,-398.43 1333.12,-395.23 1336.33,-392.02 1339.54,-392.02 1339.54,-392.02 1422.21,-392.02 1422.21,-392.02 1425.42,-392.02 1428.62,-395.23 1428.62,-398.43 1428.62,-398.43 1428.62,-404.85 1428.62,-404.85 1428.62,-408.06 1425.42,-411.27 1422.21,-411.27"/>
<text text-anchor="start" x="1341.12" y="-398.72" font-family="Helvetica,sans-Serif" font-size="9.00">IVideoRepository.ts</text>
</a>
</g>
</g>
<!-- src/domain/repositories/IVideoRepository.ts&#45;&gt;src/domain/entities/index.ts -->
<g id="edge27" class="edge">
<title>src/domain/repositories/IVideoRepository.ts&#45;&gt;src/domain/entities/index.ts</title>
<path fill="none" stroke="#000000" stroke-opacity="0.200000" d="M1428.9,-392.63C1436.67,-390.84 1444.6,-388.83 1452,-386.64 1455.38,-385.65 1458.87,-384.5 1462.33,-383.3"/>
<polygon fill="none" stroke="#000000" stroke-opacity="0.200000" points="1462.99,-385.29 1467.92,-381.27 1461.56,-381.34 1462.99,-385.29"/>
</g>
<!-- src/domain/repositories/index.ts -->
<g id="node25" class="node">
<title>src/domain/repositories/index.ts</title>
<g id="a_node25"><a xlink:href="src/domain/repositories/index.ts" xlink:title="index.ts">
<path fill="#ddfeff" stroke="black" d="M1257.58,-349.27C1257.58,-349.27 1216.42,-349.27 1216.42,-349.27 1213.21,-349.27 1210,-346.06 1210,-342.85 1210,-342.85 1210,-336.43 1210,-336.43 1210,-333.23 1213.21,-330.02 1216.42,-330.02 1216.42,-330.02 1257.58,-330.02 1257.58,-330.02 1260.79,-330.02 1264,-333.23 1264,-336.43 1264,-336.43 1264,-342.85 1264,-342.85 1264,-346.06 1260.79,-349.27 1257.58,-349.27"/>
<text text-anchor="start" x="1221.25" y="-336.72" font-family="Helvetica,sans-Serif" font-size="9.00">index.ts</text>
</a>
</g>
</g>
<!-- src/domain/repositories/index.ts&#45;&gt;src/domain/repositories/IMetadataRepository.ts -->
<g id="edge28" class="edge">
<title>src/domain/repositories/index.ts&#45;&gt;src/domain/repositories/IMetadataRepository.ts</title>
<path fill="none" stroke="#000000" stroke-opacity="0.200000" d="M1264.35,-339.64C1279.56,-339.64 1299.37,-339.64 1318.28,-339.64"/>
<polygon fill="none" stroke="#000000" stroke-opacity="0.200000" points="1318.24,-341.74 1324.24,-339.64 1318.24,-337.54 1318.24,-341.74"/>
</g>
<!-- src/domain/repositories/index.ts&#45;&gt;src/domain/repositories/IVideoFacade.ts -->
<g id="edge29" class="edge">
<title>src/domain/repositories/index.ts&#45;&gt;src/domain/repositories/IVideoFacade.ts</title>
<path fill="none" stroke="#000000" stroke-opacity="0.200000" d="M1264.35,-345.4C1283.37,-349.56 1309.58,-355.28 1332.22,-360.23"/>
<polygon fill="none" stroke="#000000" stroke-opacity="0.200000" points="1331.65,-362.25 1337.96,-361.48 1332.54,-358.15 1331.65,-362.25"/>
</g>
<!-- src/domain/repositories/index.ts&#45;&gt;src/domain/repositories/IVideoRepository.ts -->
<g id="edge30" class="edge">
<title>src/domain/repositories/index.ts&#45;&gt;src/domain/repositories/IVideoRepository.ts</title>
<path fill="none" stroke="#000000" stroke-opacity="0.200000" d="M1252.03,-349.66C1267.46,-360.24 1293.32,-376.75 1317.75,-386.64 1320.47,-387.74 1323.29,-388.78 1326.16,-389.75"/>
<polygon fill="none" stroke="#000000" stroke-opacity="0.200000" points="1325.13,-391.62 1331.49,-391.43 1326.4,-387.62 1325.13,-391.62"/>
</g>
<!-- src/domain/valueObjects/ParsedVideoData.ts -->
<g id="node26" class="node">
<title>src/domain/valueObjects/ParsedVideoData.ts</title>
<g id="a_node26"><a xlink:href="src/domain/valueObjects/ParsedVideoData.ts" xlink:title="ParsedVideoData.ts">
<path fill="#ddfeff" stroke="black" d="M1423.71,-474.27C1423.71,-474.27 1338.04,-474.27 1338.04,-474.27 1334.83,-474.27 1331.62,-471.06 1331.62,-467.85 1331.62,-467.85 1331.62,-461.43 1331.62,-461.43 1331.62,-458.23 1334.83,-455.02 1338.04,-455.02 1338.04,-455.02 1423.71,-455.02 1423.71,-455.02 1426.92,-455.02 1430.12,-458.23 1430.12,-461.43 1430.12,-461.43 1430.12,-467.85 1430.12,-467.85 1430.12,-471.06 1426.92,-474.27 1423.71,-474.27"/>
<text text-anchor="start" x="1339.62" y="-461.72" font-family="Helvetica,sans-Serif" font-size="9.00">ParsedVideoData.ts</text>
</a>
</g>
</g>
<!-- src/domain/valueObjects/Thumbs.ts -->
<g id="node27" class="node">
<title>src/domain/valueObjects/Thumbs.ts</title>
<g id="a_node27"><a xlink:href="src/domain/valueObjects/Thumbs.ts" xlink:title="Thumbs.ts">
<path fill="#ddfeff" stroke="black" d="M1404.58,-505.27C1404.58,-505.27 1357.17,-505.27 1357.17,-505.27 1353.96,-505.27 1350.75,-502.06 1350.75,-498.85 1350.75,-498.85 1350.75,-492.43 1350.75,-492.43 1350.75,-489.23 1353.96,-486.02 1357.17,-486.02 1357.17,-486.02 1404.58,-486.02 1404.58,-486.02 1407.79,-486.02 1411,-489.23 1411,-492.43 1411,-492.43 1411,-498.85 1411,-498.85 1411,-502.06 1407.79,-505.27 1404.58,-505.27"/>
<text text-anchor="start" x="1358.75" y="-492.72" font-family="Helvetica,sans-Serif" font-size="9.00">Thumbs.ts</text>
</a>
</g>
</g>
<!-- src/domain/valueObjects/VideoStorageDtoMapper.ts -->
<g id="node28" class="node">
<title>src/domain/valueObjects/VideoStorageDtoMapper.ts</title>
<g id="a_node28"><a xlink:href="src/domain/valueObjects/VideoStorageDtoMapper.ts" xlink:title="VideoStorageDtoMapper.ts">
<path fill="#ddfeff" stroke="black" d="M1437.58,-536.27C1437.58,-536.27 1324.17,-536.27 1324.17,-536.27 1320.96,-536.27 1317.75,-533.06 1317.75,-529.85 1317.75,-529.85 1317.75,-523.43 1317.75,-523.43 1317.75,-520.23 1320.96,-517.02 1324.17,-517.02 1324.17,-517.02 1437.58,-517.02 1437.58,-517.02 1440.79,-517.02 1444,-520.23 1444,-523.43 1444,-523.43 1444,-529.85 1444,-529.85 1444,-533.06 1440.79,-536.27 1437.58,-536.27"/>
<text text-anchor="start" x="1325.75" y="-523.72" font-family="Helvetica,sans-Serif" font-size="9.00">VideoStorageDtoMapper.ts</text>
</a>
</g>
</g>
<!-- src/domain/valueObjects/VideoStorageDtoMapper.ts&#45;&gt;src/domain/entities/index.ts -->
<g id="edge31" class="edge">
<title>src/domain/valueObjects/VideoStorageDtoMapper.ts&#45;&gt;src/domain/entities/index.ts</title>
<path fill="none" stroke="#000000" stroke-opacity="0.200000" d="M1444.22,-517.4C1447.01,-515.75 1449.62,-513.84 1452,-511.64 1487.47,-478.86 1493.46,-417.57 1494.16,-387.78"/>
<polygon fill="none" stroke="#000000" stroke-opacity="0.200000" points="1496.26,-388.13 1494.22,-382.1 1492.06,-388.08 1496.26,-388.13"/>
</g>
<!-- src/domain/valueObjects/index.ts -->
<g id="node29" class="node">
<title>src/domain/valueObjects/index.ts</title>
<g id="a_node29"><a xlink:href="src/domain/valueObjects/index.ts" xlink:title="index.ts">
<path fill="#ddfeff" stroke="black" d="M1257.58,-474.27C1257.58,-474.27 1216.42,-474.27 1216.42,-474.27 1213.21,-474.27 1210,-471.06 1210,-467.85 1210,-467.85 1210,-461.43 1210,-461.43 1210,-458.23 1213.21,-455.02 1216.42,-455.02 1216.42,-455.02 1257.58,-455.02 1257.58,-455.02 1260.79,-455.02 1264,-458.23 1264,-461.43 1264,-461.43 1264,-467.85 1264,-467.85 1264,-471.06 1260.79,-474.27 1257.58,-474.27"/>
<text text-anchor="start" x="1221.25" y="-461.72" font-family="Helvetica,sans-Serif" font-size="9.00">index.ts</text>
</a>
</g>
</g>
<!-- src/domain/valueObjects/index.ts&#45;&gt;src/domain/valueObjects/ParsedVideoData.ts -->
<g id="edge32" class="edge">
<title>src/domain/valueObjects/index.ts&#45;&gt;src/domain/valueObjects/ParsedVideoData.ts</title>
<path fill="none" stroke="#000000" stroke-width="2" stroke-opacity="0.200000" d="M1264.35,-464.64C1283.1,-464.64 1308.85,-464.64 1331.27,-464.64"/>
<polygon fill="#000000" fill-opacity="0.200000" stroke="#000000" stroke-width="2" stroke-opacity="0.200000" points="1334.08,-463.25 1337.98,-471.35 1329.88,-467.45 1334.08,-463.25"/>
</g>
<!-- src/domain/valueObjects/index.ts&#45;&gt;src/domain/valueObjects/Thumbs.ts -->
<g id="edge33" class="edge">
<title>src/domain/valueObjects/index.ts&#45;&gt;src/domain/valueObjects/Thumbs.ts</title>
<path fill="none" stroke="#000000" stroke-opacity="0.200000" d="M1264.35,-470.4C1286.67,-475.28 1318.89,-482.32 1343.64,-487.72"/>
<polygon fill="none" stroke="#000000" stroke-opacity="0.200000" points="1342.94,-489.72 1349.25,-488.95 1343.84,-485.62 1342.94,-489.72"/>
</g>
<!-- src/domain/valueObjects/index.ts&#45;&gt;src/domain/valueObjects/VideoStorageDtoMapper.ts -->
<g id="edge34" class="edge">
<title>src/domain/valueObjects/index.ts&#45;&gt;src/domain/valueObjects/VideoStorageDtoMapper.ts</title>
<path fill="none" stroke="#000000" stroke-width="2" stroke-opacity="0.200000" d="M1252.03,-474.66C1267.46,-485.24 1293.32,-501.75 1331.93,-516.59"/>
<polygon fill="#000000" fill-opacity="0.200000" stroke="#000000" stroke-width="2" stroke-opacity="0.200000" points="1334.74,-515.2 1338.64,-523.3 1330.54,-519.4 1334.74,-515.2"/>
</g>
<!-- src/infrastructure/database/DatabaseConnection.ts -->
<g id="node30" class="node">
<title>src/infrastructure/database/DatabaseConnection.ts</title>
<g id="a_node30"><a xlink:href="src/infrastructure/database/DatabaseConnection.ts" xlink:title="DatabaseConnection.ts">
<path fill="#ddfeff" stroke="black" d="M1287.33,-161.27C1287.33,-161.27 1186.67,-161.27 1186.67,-161.27 1183.46,-161.27 1180.25,-158.06 1180.25,-154.85 1180.25,-154.85 1180.25,-148.43 1180.25,-148.43 1180.25,-145.23 1183.46,-142.02 1186.67,-142.02 1186.67,-142.02 1287.33,-142.02 1287.33,-142.02 1290.54,-142.02 1293.75,-145.23 1293.75,-148.43 1293.75,-148.43 1293.75,-154.85 1293.75,-154.85 1293.75,-158.06 1290.54,-161.27 1287.33,-161.27"/>
<text text-anchor="start" x="1188.25" y="-148.72" font-family="Helvetica,sans-Serif" font-size="9.00">DatabaseConnection.ts</text>
</a>
</g>
</g>
<!-- src/infrastructure/repository/MetadataRepository.ts -->
<g id="node31" class="node">
<title>src/infrastructure/repository/MetadataRepository.ts</title>
<g id="a_node31"><a xlink:href="src/infrastructure/repository/MetadataRepository.ts" xlink:title="MetadataRepository.ts">
<path fill="#ddfeff" stroke="black" d="M1149.83,-188.27C1149.83,-188.27 1055.17,-188.27 1055.17,-188.27 1051.96,-188.27 1048.75,-185.06 1048.75,-181.85 1048.75,-181.85 1048.75,-175.43 1048.75,-175.43 1048.75,-172.23 1051.96,-169.02 1055.17,-169.02 1055.17,-169.02 1149.83,-169.02 1149.83,-169.02 1153.04,-169.02 1156.25,-172.23 1156.25,-175.43 1156.25,-175.43 1156.25,-181.85 1156.25,-181.85 1156.25,-185.06 1153.04,-188.27 1149.83,-188.27"/>
<text text-anchor="start" x="1056.75" y="-175.72" font-family="Helvetica,sans-Serif" font-size="9.00">MetadataRepository.ts</text>
</a>
</g>
</g>
<!-- src/infrastructure/repository/MetadataRepository.ts&#45;&gt;src/domain/entities/index.ts -->
<g id="edge38" class="edge">
<title>src/infrastructure/repository/MetadataRepository.ts&#45;&gt;src/domain/entities/index.ts</title>
<path fill="none" stroke="#000000" stroke-opacity="0.200000" d="M1122.53,-188.67C1136.04,-195.36 1154.81,-203.79 1172.25,-208.64 1232.66,-225.46 1403.6,-205.77 1452,-245.64 1484.65,-272.54 1492.05,-325.72 1493.64,-353.24"/>
<polygon fill="none" stroke="#000000" stroke-opacity="0.200000" points="1491.53,-353.17 1493.89,-359.08 1495.73,-352.99 1491.53,-353.17"/>
</g>
<!-- src/infrastructure/repository/MetadataRepository.ts&#45;&gt;src/domain/constants/index.ts -->
<g id="edge37" class="edge">
<title>src/infrastructure/repository/MetadataRepository.ts&#45;&gt;src/domain/constants/index.ts</title>
<path fill="none" stroke="#000000" stroke-width="2" stroke-opacity="0.200000" d="M1118.65,-188.76C1131.04,-197.12 1148.96,-209.4 1164.25,-220.64 1182.36,-233.95 1202.49,-249.75 1216.81,-261.17"/>
<polygon fill="#000000" fill-opacity="0.200000" stroke="#000000" stroke-width="2" stroke-opacity="0.200000" points="1215.36,-262.71 1221.36,-264.82 1217.99,-259.43 1215.36,-262.71"/>
</g>
<!-- src/infrastructure/repository/MetadataRepository.ts&#45;&gt;src/domain/repositories/index.ts -->
<g id="edge36" class="edge">
<title>src/infrastructure/repository/MetadataRepository.ts&#45;&gt;src/domain/repositories/index.ts</title>
<path fill="none" stroke="#000000" stroke-opacity="0.200000" d="M1127.1,-188.67C1140.37,-195.61 1155.9,-206.22 1164.25,-220.64 1174.97,-239.17 1159.23,-299.65 1172.25,-316.64 1179.6,-326.23 1191.31,-331.83 1202.7,-335.09"/>
<polygon fill="none" stroke="#000000" stroke-opacity="0.200000" points="1201.91,-337.06 1208.24,-336.48 1202.93,-332.99 1201.91,-337.06"/>
</g>
<!-- src/infrastructure/repository/MetadataRepository.ts&#45;&gt;src/infrastructure/database/DatabaseConnection.ts -->
<g id="edge35" class="edge">
<title>src/infrastructure/repository/MetadataRepository.ts&#45;&gt;src/infrastructure/database/DatabaseConnection.ts</title>
<path fill="none" stroke="#000000" stroke-width="2" stroke-opacity="0.200000" d="M1152.84,-168.59C1161.03,-166.92 1169.59,-165.18 1177.97,-163.47"/>
<polygon fill="#000000" fill-opacity="0.200000" stroke="#000000" stroke-width="2" stroke-opacity="0.200000" points="1178.19,-165.57 1183.65,-162.31 1177.36,-161.45 1178.19,-165.57"/>
</g>
<!-- src/infrastructure/repository/VideoRepository.ts -->
<g id="node32" class="node">
<title>src/infrastructure/repository/VideoRepository.ts</title>
<g id="a_node32"><a xlink:href="src/infrastructure/repository/VideoRepository.ts" xlink:title="VideoRepository.ts">
<path fill="#ddfeff" stroke="black" d="M1142.71,-157.27C1142.71,-157.27 1062.29,-157.27 1062.29,-157.27 1059.08,-157.27 1055.88,-154.06 1055.88,-150.85 1055.88,-150.85 1055.88,-144.43 1055.88,-144.43 1055.88,-141.23 1059.08,-138.02 1062.29,-138.02 1062.29,-138.02 1142.71,-138.02 1142.71,-138.02 1145.92,-138.02 1149.12,-141.23 1149.12,-144.43 1149.12,-144.43 1149.12,-150.85 1149.12,-150.85 1149.12,-154.06 1145.92,-157.27 1142.71,-157.27"/>
<text text-anchor="start" x="1063.88" y="-144.72" font-family="Helvetica,sans-Serif" font-size="9.00">VideoRepository.ts</text>
</a>
</g>
</g>
<!-- src/infrastructure/repository/VideoRepository.ts&#45;&gt;src/domain/entities/index.ts -->
<g id="edge41" class="edge">
<title>src/infrastructure/repository/VideoRepository.ts&#45;&gt;src/domain/entities/index.ts</title>
<path fill="none" stroke="#000000" stroke-opacity="0.200000" d="M1149.43,-153.28C1154.91,-155.52 1160.05,-158.55 1164.25,-162.64 1173.83,-171.97 1161.97,-183.1 1172.25,-191.64 1220.23,-231.53 1404.11,-175.64 1452,-215.64 1473.28,-233.41 1486.84,-317.1 1491.84,-353.58"/>
<polygon fill="none" stroke="#000000" stroke-opacity="0.200000" points="1489.7,-353.43 1492.57,-359.1 1493.86,-352.88 1489.7,-353.43"/>
</g>
<!-- src/infrastructure/repository/VideoRepository.ts&#45;&gt;src/domain/constants/index.ts -->
<g id="edge40" class="edge">
<title>src/infrastructure/repository/VideoRepository.ts&#45;&gt;src/domain/constants/index.ts</title>
<path fill="none" stroke="#000000" stroke-width="2" stroke-opacity="0.200000" d="M1149.51,-152.78C1155.05,-155.09 1160.18,-158.27 1164.25,-162.64 1178.4,-177.82 1162.99,-190.07 1172.25,-208.64 1182.68,-229.55 1201.62,-248.5 1216.16,-261.06"/>
<polygon fill="#000000" fill-opacity="0.200000" stroke="#000000" stroke-width="2" stroke-opacity="0.200000" points="1214.61,-262.5 1220.56,-264.74 1217.31,-259.28 1214.61,-262.5"/>
</g>
<!-- src/infrastructure/repository/VideoRepository.ts&#45;&gt;src/domain/repositories/index.ts -->
<g id="edge42" class="edge">
<title>src/infrastructure/repository/VideoRepository.ts&#45;&gt;src/domain/repositories/index.ts</title>
<path fill="none" stroke="#000000" stroke-opacity="0.200000" d="M1149.41,-152.09C1155.11,-154.48 1160.31,-157.87 1164.25,-162.64 1186.07,-189.07 1151.83,-289.12 1172.25,-316.64 1179.45,-326.35 1191.13,-331.97 1202.54,-335.22"/>
<polygon fill="none" stroke="#000000" stroke-opacity="0.200000" points="1201.77,-337.19 1208.09,-336.59 1202.77,-333.11 1201.77,-337.19"/>
</g>
<!-- src/infrastructure/repository/VideoRepository.ts&#45;&gt;src/infrastructure/database/DatabaseConnection.ts -->
<g id="edge39" class="edge">
<title>src/infrastructure/repository/VideoRepository.ts&#45;&gt;src/infrastructure/database/DatabaseConnection.ts</title>
<path fill="none" stroke="#000000" stroke-width="2" stroke-opacity="0.200000" d="M1149.47,-149.03C1156.56,-149.24 1164,-149.47 1171.4,-149.69"/>
<polygon fill="#000000" fill-opacity="0.200000" stroke="#000000" stroke-width="2" stroke-opacity="0.200000" points="1170.98,-151.78 1177.04,-149.86 1171.1,-147.58 1170.98,-151.78"/>
</g>
<!-- src/infrastructure/repository/index.ts -->
<g id="node33" class="node">
<title>src/infrastructure/repository/index.ts</title>
<g id="a_node33"><a xlink:href="src/infrastructure/repository/index.ts" xlink:title="index.ts">
<path fill="#ddfeff" stroke="black" d="M995.46,-188.27C995.46,-188.27 954.29,-188.27 954.29,-188.27 951.08,-188.27 947.88,-185.06 947.88,-181.85 947.88,-181.85 947.88,-175.43 947.88,-175.43 947.88,-172.23 951.08,-169.02 954.29,-169.02 954.29,-169.02 995.46,-169.02 995.46,-169.02 998.67,-169.02 1001.88,-172.23 1001.88,-175.43 1001.88,-175.43 1001.88,-181.85 1001.88,-181.85 1001.88,-185.06 998.67,-188.27 995.46,-188.27"/>
<text text-anchor="start" x="959.12" y="-175.72" font-family="Helvetica,sans-Serif" font-size="9.00">index.ts</text>
</a>
</g>
</g>
<!-- src/infrastructure/repository/index.ts&#45;&gt;src/infrastructure/repository/MetadataRepository.ts -->
<g id="edge43" class="edge">
<title>src/infrastructure/repository/index.ts&#45;&gt;src/infrastructure/repository/MetadataRepository.ts</title>
<path fill="none" stroke="#000000" stroke-width="2" stroke-opacity="0.200000" d="M1002.21,-178.64C1015.59,-178.64 1032.36,-178.64 1048.28,-178.64"/>
<polygon fill="#000000" fill-opacity="0.200000" stroke="#000000" stroke-width="2" stroke-opacity="0.200000" points="1051.08,-177.25 1054.98,-185.35 1046.88,-181.45 1051.08,-177.25"/>
</g>
<!-- src/infrastructure/repository/index.ts&#45;&gt;src/infrastructure/repository/VideoRepository.ts -->
<g id="edge44" class="edge">
<title>src/infrastructure/repository/index.ts&#45;&gt;src/infrastructure/repository/VideoRepository.ts</title>
<path fill="none" stroke="#000000" stroke-width="2" stroke-opacity="0.200000" d="M1002.21,-172.14C1019.19,-167.95 1041.61,-162.42 1060.85,-157.67"/>
<polygon fill="#000000" fill-opacity="0.200000" stroke="#000000" stroke-width="2" stroke-opacity="0.200000" points="1063.66,-156.28 1067.56,-164.38 1059.46,-160.48 1063.66,-156.28"/>
</g>
<!-- src/infrastructure/services/VideoMetadataFacade.ts&#45;&gt;src/domain/entities/index.ts -->
<g id="edge45" class="edge">
<title>src/infrastructure/services/VideoMetadataFacade.ts&#45;&gt;src/domain/entities/index.ts</title>
<path fill="none" stroke="#000000" stroke-opacity="0.200000" d="M857.55,-188.62C871.83,-198.1 894.88,-211.9 917,-218.64 1084.71,-269.75 1140.11,-211.35 1309.75,-255.64 1376.65,-273.11 1397.13,-276.57 1452,-318.64 1464.93,-328.56 1476.32,-343.25 1483.96,-354.48"/>
<polygon fill="none" stroke="#000000" stroke-opacity="0.200000" points="1482.12,-355.52 1487.18,-359.37 1485.63,-353.21 1482.12,-355.52"/>
</g>
<!-- src/infrastructure/services/VideoMetadataFacade.ts&#45;&gt;src/domain/repositories/index.ts -->
<g id="edge46" class="edge">
<title>src/infrastructure/services/VideoMetadataFacade.ts&#45;&gt;src/domain/repositories/index.ts</title>
<path fill="none" stroke="#000000" stroke-opacity="0.200000" d="M850.01,-188.72C861.56,-205.46 887.03,-238.91 917,-256.64 1010.75,-312.13 1141.46,-330.99 1202.33,-337.01"/>
<polygon fill="none" stroke="#000000" stroke-opacity="0.200000" points="1202.07,-339.1 1208.24,-337.58 1202.46,-334.92 1202.07,-339.1"/>
</g>
<!-- src/infrastructure/services/VideoMetadataFacade.ts&#45;&gt;src/domain/valueObjects/index.ts -->
<g id="edge47" class="edge">
<title>src/infrastructure/services/VideoMetadataFacade.ts&#45;&gt;src/domain/valueObjects/index.ts</title>
<path fill="none" stroke="#000000" stroke-width="2" stroke-opacity="0.200000" d="M848.52,-188.72C859.15,-208.83 885.26,-254.62 917,-284.64 1013.76,-376.16 1052.26,-383.85 1172.25,-441.64 1181.51,-446.11 1191.88,-450.2 1201.52,-453.66"/>
<polygon fill="#000000" fill-opacity="0.200000" stroke="#000000" stroke-width="2" stroke-opacity="0.200000" points="1200.55,-455.54 1206.9,-455.54 1201.93,-451.58 1200.55,-455.54"/>
</g>
<!-- src/infrastructure/services/VideoMetadataFacade.ts&#45;&gt;src/infrastructure/repository/index.ts -->
<g id="edge48" class="edge">
<title>src/infrastructure/services/VideoMetadataFacade.ts&#45;&gt;src/infrastructure/repository/index.ts</title>
<path fill="none" stroke="#000000" stroke-width="2" stroke-opacity="0.200000" d="M901.37,-178.64C914.05,-178.64 927.1,-178.64 938.57,-178.64"/>
<polygon fill="#000000" fill-opacity="0.200000" stroke="#000000" stroke-width="2" stroke-opacity="0.200000" points="938.36,-180.74 944.36,-178.64 938.36,-176.54 938.36,-180.74"/>
</g>
<!-- src/infrastructure/video/VideoFileParser.ts&#45;&gt;src/domain/entities/index.ts -->
<g id="edge51" class="edge">
<title>src/infrastructure/video/VideoFileParser.ts&#45;&gt;src/domain/entities/index.ts</title>
<path fill="none" stroke="#000000" stroke-opacity="0.200000" d="M856.34,-94.64C871.82,-107.41 897.1,-131.04 909,-157.64 922.33,-187.44 904.91,-200.33 917,-230.64 986.46,-404.84 1004.25,-483.29 1172.25,-566.64 1200.09,-580.46 1427.83,-586.18 1452,-566.64 1479.77,-544.19 1490.01,-431.77 1492.98,-388.07"/>
<polygon fill="none" stroke="#000000" stroke-opacity="0.200000" points="1495.06,-388.37 1493.35,-382.25 1490.87,-388.1 1495.06,-388.37"/>
</g>
<!-- src/infrastructure/video/VideoFileParser.ts&#45;&gt;src/domain/valueObjects/index.ts -->
<g id="edge52" class="edge">
<title>src/infrastructure/video/VideoFileParser.ts&#45;&gt;src/domain/valueObjects/index.ts</title>
<path fill="none" stroke="#000000" stroke-width="2" stroke-opacity="0.200000" d="M856.25,-94.69C871.63,-107.49 896.82,-131.17 909,-157.64 914.72,-170.06 907.32,-208.98 917,-218.64 956.25,-257.82 992.04,-208.12 1040.75,-234.64 1115.39,-275.29 1129.89,-302.91 1164.25,-380.64 1175.31,-405.65 1155.11,-420.34 1172.25,-441.64 1179.41,-450.54 1190.3,-456 1201.07,-459.34"/>
<polygon fill="#000000" fill-opacity="0.200000" stroke="#000000" stroke-width="2" stroke-opacity="0.200000" points="1200.34,-461.32 1206.68,-460.83 1201.41,-457.26 1200.34,-461.32"/>
</g>
<!-- src/infrastructure/video/VideoFileParser.ts&#45;&gt;src/infrastructure/video/HTMLVideoProcessor.ts -->
<g id="edge50" class="edge">
<title>src/infrastructure/video/VideoFileParser.ts&#45;&gt;src/infrastructure/video/HTMLVideoProcessor.ts</title>
<path fill="none" stroke="#000000" stroke-width="2" stroke-opacity="0.200000" d="M888.65,-82.21C894.93,-81.88 901.48,-81.53 908.03,-81.17"/>
<polygon fill="#000000" fill-opacity="0.200000" stroke="#000000" stroke-width="2" stroke-opacity="0.200000" points="908.05,-83.28 913.93,-80.86 907.83,-79.08 908.05,-83.28"/>
</g>
<!-- src/main.ts -->
<g id="node37" class="node">
<title>src/main.ts</title>
<g id="a_node37"><a xlink:href="src/main.ts" xlink:title="main.ts">
<path fill="#ddfeff" stroke="black" d="M63.58,-206.27C63.58,-206.27 22.42,-206.27 22.42,-206.27 19.21,-206.27 16,-203.06 16,-199.85 16,-199.85 16,-193.43 16,-193.43 16,-190.23 19.21,-187.02 22.42,-187.02 22.42,-187.02 63.58,-187.02 63.58,-187.02 66.79,-187.02 70,-190.23 70,-193.43 70,-193.43 70,-199.85 70,-199.85 70,-203.06 66.79,-206.27 63.58,-206.27"/>
<text text-anchor="start" x="27.62" y="-193.72" font-family="Helvetica,sans-Serif" font-size="9.00">main.ts</text>
</a>
</g>
</g>
<!-- src/main.ts&#45;&gt;src/App.vue -->
<g id="edge55" class="edge">
<title>src/main.ts&#45;&gt;src/App.vue</title>
<path fill="none" stroke="#000000" stroke-width="2" stroke-opacity="0.200000" d="M70.44,-196.64C71.58,-196.64 72.74,-196.64 73.9,-196.64"/>
<polygon fill="#000000" fill-opacity="0.200000" stroke="#000000" stroke-width="2" stroke-opacity="0.200000" points="73.77,-198.74 79.77,-196.64 73.77,-194.54 73.77,-198.74"/>
</g>
</g>
</svg>
