<?xml version="1.0" encoding="UTF-8" standalone="no"?>
<!DOCTYPE svg PUBLIC "-//W3C//DTD SVG 1.1//EN"
 "http://www.w3.org/Graphics/SVG/1.1/DTD/svg11.dtd">
<!-- Generated by graphviz version 2.43.0 (0)
 -->
<!-- Title: dependency&#45;cruiser output Pages: 1 -->
<svg width="1500pt" height="438pt"
 viewBox="0.00 0.00 1500.00 438.00" xmlns="http://www.w3.org/2000/svg" xmlns:xlink="http://www.w3.org/1999/xlink">
<g id="graph0" class="graph" transform="scale(1 1) rotate(0) translate(4 434)">
<title>dependency&#45;cruiser output</title>
<polygon fill="white" stroke="transparent" points="-4,4 -4,-434 1496,-434 1496,4 -4,4"/>
<g id="clust1" class="cluster">
<title>cluster_src</title>
<path fill="#ffffff" stroke="black" stroke-width="2" d="M20,-8C20,-8 1472,-8 1472,-8 1478,-8 1484,-14 1484,-20 1484,-20 1484,-410 1484,-410 1484,-416 1478,-422 1472,-422 1472,-422 20,-422 20,-422 14,-422 8,-416 8,-410 8,-410 8,-20 8,-20 8,-14 14,-8 20,-8"/>
<text text-anchor="middle" x="746" y="-410.8" font-family="Helvetica,sans-Serif" font-weight="bold" font-size="9.00">src</text>
</g>
<g id="clust2" class="cluster">
<title>cluster_src/application</title>
<path fill="#ffffff" stroke="black" stroke-width="2" d="M532,-169C532,-169 856,-169 856,-169 862,-169 868,-175 868,-181 868,-181 868,-279 868,-279 868,-285 862,-291 856,-291 856,-291 532,-291 532,-291 526,-291 520,-285 520,-279 520,-279 520,-181 520,-181 520,-175 526,-169 532,-169"/>
<text text-anchor="middle" x="694" y="-279.8" font-family="Helvetica,sans-Serif" font-weight="bold" font-size="9.00">application</text>
</g>
<g id="clust3" class="cluster">
<title>cluster_src/application/services</title>
<path fill="#ffffff" stroke="black" stroke-width="2" d="M602,-183C602,-183 848,-183 848,-183 854,-183 860,-189 860,-195 860,-195 860,-253 860,-253 860,-259 854,-265 848,-265 848,-265 602,-265 602,-265 596,-265 590,-259 590,-253 590,-253 590,-195 590,-195 590,-189 596,-183 602,-183"/>
<text text-anchor="middle" x="725" y="-253.8" font-family="Helvetica,sans-Serif" font-weight="bold" font-size="9.00">services</text>
</g>
<g id="clust4" class="cluster">
<title>cluster_src/components</title>
<path fill="#ffffff" stroke="black" stroke-width="2" d="M271,-16C271,-16 500,-16 500,-16 506,-16 512,-22 512,-28 512,-28 512,-176 512,-176 512,-182 506,-188 500,-188 500,-188 271,-188 271,-188 265,-188 259,-182 259,-176 259,-176 259,-28 259,-28 259,-22 265,-16 271,-16"/>
<text text-anchor="middle" x="385.5" y="-176.8" font-family="Helvetica,sans-Serif" font-weight="bold" font-size="9.00">components</text>
</g>
<g id="clust5" class="cluster">
<title>cluster_src/components/inputs</title>
<path fill="#ffffff" stroke="black" stroke-width="2" d="M297.5,-110C297.5,-110 364.5,-110 364.5,-110 370.5,-110 376.5,-116 376.5,-122 376.5,-122 376.5,-150 376.5,-150 376.5,-156 370.5,-162 364.5,-162 364.5,-162 297.5,-162 297.5,-162 291.5,-162 285.5,-156 285.5,-150 285.5,-150 285.5,-122 285.5,-122 285.5,-116 291.5,-110 297.5,-110"/>
<text text-anchor="middle" x="331" y="-150.8" font-family="Helvetica,sans-Serif" font-weight="bold" font-size="9.00">inputs</text>
</g>
<g id="clust6" class="cluster">
<title>cluster_src/components/utils</title>
<path fill="#ffffff" stroke="black" stroke-width="2" d="M279,-50C279,-50 383,-50 383,-50 389,-50 395,-56 395,-62 395,-62 395,-90 395,-90 395,-96 389,-102 383,-102 383,-102 279,-102 279,-102 273,-102 267,-96 267,-90 267,-90 267,-62 267,-62 267,-56 273,-50 279,-50"/>
<text text-anchor="middle" x="331" y="-90.8" font-family="Helvetica,sans-Serif" font-weight="bold" font-size="9.00">utils</text>
</g>
<g id="clust7" class="cluster">
<title>cluster_src/domain</title>
<path fill="#ffffff" stroke="black" stroke-width="2" d="M1131.5,-140C1131.5,-140 1464,-140 1464,-140 1470,-140 1476,-146 1476,-152 1476,-152 1476,-384 1476,-384 1476,-390 1470,-396 1464,-396 1464,-396 1131.5,-396 1131.5,-396 1125.5,-396 1119.5,-390 1119.5,-384 1119.5,-384 1119.5,-152 1119.5,-152 1119.5,-146 1125.5,-140 1131.5,-140"/>
<text text-anchor="middle" x="1297.75" y="-384.8" font-family="Helvetica,sans-Serif" font-weight="bold" font-size="9.00">domain</text>
</g>
<g id="clust8" class="cluster">
<title>cluster_src/domain/constants</title>
<path fill="#ffffff" stroke="black" stroke-width="2" d="M1283.5,-148C1283.5,-148 1329.5,-148 1329.5,-148 1335.5,-148 1341.5,-154 1341.5,-160 1341.5,-160 1341.5,-188 1341.5,-188 1341.5,-194 1335.5,-200 1329.5,-200 1329.5,-200 1283.5,-200 1283.5,-200 1277.5,-200 1271.5,-194 1271.5,-188 1271.5,-188 1271.5,-160 1271.5,-160 1271.5,-154 1277.5,-148 1283.5,-148"/>
<text text-anchor="middle" x="1306.5" y="-188.8" font-family="Helvetica,sans-Serif" font-weight="bold" font-size="9.00">constants</text>
</g>
<g id="clust9" class="cluster">
<title>cluster_src/domain/entities</title>
<path fill="#ffffff" stroke="black" stroke-width="2" d="M1394,-218C1394,-218 1456,-218 1456,-218 1462,-218 1468,-224 1468,-230 1468,-230 1468,-288 1468,-288 1468,-294 1462,-300 1456,-300 1456,-300 1394,-300 1394,-300 1388,-300 1382,-294 1382,-288 1382,-288 1382,-230 1382,-230 1382,-224 1388,-218 1394,-218"/>
<text text-anchor="middle" x="1425" y="-288.8" font-family="Helvetica,sans-Serif" font-weight="bold" font-size="9.00">entities</text>
</g>
<g id="clust10" class="cluster">
<title>cluster_src/domain/repositories</title>
<path fill="#ffffff" stroke="black" stroke-width="2" d="M1251,-218C1251,-218 1362,-218 1362,-218 1368,-218 1374,-224 1374,-230 1374,-230 1374,-288 1374,-288 1374,-294 1368,-300 1362,-300 1362,-300 1251,-300 1251,-300 1245,-300 1239,-294 1239,-288 1239,-288 1239,-230 1239,-230 1239,-224 1245,-218 1251,-218"/>
<text text-anchor="middle" x="1306.5" y="-288.8" font-family="Helvetica,sans-Serif" font-weight="bold" font-size="9.00">repositories</text>
</g>
<g id="clust11" class="cluster">
<title>cluster_src/domain/services</title>
<path fill="#ffffff" stroke="black" stroke-width="2" d="M1263.5,-318C1263.5,-318 1349.5,-318 1349.5,-318 1355.5,-318 1361.5,-324 1361.5,-330 1361.5,-330 1361.5,-358 1361.5,-358 1361.5,-364 1355.5,-370 1349.5,-370 1349.5,-370 1263.5,-370 1263.5,-370 1257.5,-370 1251.5,-364 1251.5,-358 1251.5,-358 1251.5,-330 1251.5,-330 1251.5,-324 1257.5,-318 1263.5,-318"/>
<text text-anchor="middle" x="1306.5" y="-358.8" font-family="Helvetica,sans-Serif" font-weight="bold" font-size="9.00">services</text>
</g>
<g id="clust12" class="cluster">
<title>cluster_src/infrastructure</title>
<path fill="#ffffff" stroke="black" stroke-width="2" d="M888,-16C888,-16 1219,-16 1219,-16 1225,-16 1231,-22 1231,-28 1231,-28 1231,-120 1231,-120 1231,-126 1225,-132 1219,-132 1219,-132 888,-132 888,-132 882,-132 876,-126 876,-120 876,-120 876,-28 876,-28 876,-22 882,-16 888,-16"/>
<text text-anchor="middle" x="1053.5" y="-120.8" font-family="Helvetica,sans-Serif" font-weight="bold" font-size="9.00">infrastructure</text>
</g>
<g id="clust13" class="cluster">
<title>cluster_src/infrastructure/database</title>
<path fill="#ffffff" stroke="black" stroke-width="2" d="M1098,-39C1098,-39 1211,-39 1211,-39 1217,-39 1223,-45 1223,-51 1223,-51 1223,-79 1223,-79 1223,-85 1217,-91 1211,-91 1211,-91 1098,-91 1098,-91 1092,-91 1086,-85 1086,-79 1086,-79 1086,-51 1086,-51 1086,-45 1092,-39 1098,-39"/>
<text text-anchor="middle" x="1154.5" y="-79.8" font-family="Helvetica,sans-Serif" font-weight="bold" font-size="9.00">database</text>
</g>
<g id="clust14" class="cluster">
<title>cluster_src/infrastructure/repository</title>
<path fill="#ffffff" stroke="black" stroke-width="2" d="M958,-24C958,-24 1066,-24 1066,-24 1072,-24 1078,-30 1078,-36 1078,-36 1078,-94 1078,-94 1078,-100 1072,-106 1066,-106 1066,-106 958,-106 958,-106 952,-106 946,-100 946,-94 946,-94 946,-36 946,-36 946,-30 952,-24 958,-24"/>
<text text-anchor="middle" x="1012" y="-94.8" font-family="Helvetica,sans-Serif" font-weight="bold" font-size="9.00">repository</text>
</g>
<g id="clust15" class="cluster">
<title>cluster_src/stores</title>
<path fill="#ffffff" stroke="black" stroke-width="2" d="M415,-196C415,-196 500,-196 500,-196 506,-196 512,-202 512,-208 512,-208 512,-266 512,-266 512,-272 506,-278 500,-278 500,-278 415,-278 415,-278 409,-278 403,-272 403,-266 403,-266 403,-208 403,-208 403,-202 409,-196 415,-196"/>
<text text-anchor="middle" x="457.5" y="-266.8" font-family="Helvetica,sans-Serif" font-weight="bold" font-size="9.00">stores</text>
</g>
<g id="clust16" class="cluster">
<title>cluster_src/views</title>
<path fill="#ffffff" stroke="black" stroke-width="2" d="M157,-166C157,-166 239,-166 239,-166 245,-166 251,-172 251,-178 251,-178 251,-236 251,-236 251,-242 245,-248 239,-248 239,-248 157,-248 157,-248 151,-248 145,-242 145,-236 145,-236 145,-178 145,-178 145,-172 151,-166 157,-166"/>
<text text-anchor="middle" x="198" y="-236.8" font-family="Helvetica,sans-Serif" font-weight="bold" font-size="9.00">views</text>
</g>
<!-- src/App.vue -->
<g id="node1" class="node">
<title>src/App.vue</title>
<g id="a_node1"><a xlink:href="src/App.vue" xlink:title="App.vue">
<path fill="#41f083" stroke="black" d="M131,-192C131,-192 89,-192 89,-192 86,-192 83,-189 83,-186 83,-186 83,-180 83,-180 83,-177 86,-174 89,-174 89,-174 131,-174 131,-174 134,-174 137,-177 137,-180 137,-180 137,-186 137,-186 137,-189 134,-192 131,-192"/>
<text text-anchor="start" x="91" y="-180.8" font-family="Helvetica,sans-Serif" font-size="9.00">App.vue</text>
</a>
</g>
</g>
<!-- src/components/utils/DiagnosticsPanel.vue -->
<g id="node2" class="node">
<title>src/components/utils/DiagnosticsPanel.vue</title>
<g id="a_node2"><a xlink:href="src/components/utils/DiagnosticsPanel.vue" xlink:title="DiagnosticsPanel.vue">
<path fill="#41f083" stroke="black" d="M381,-76C381,-76 281,-76 281,-76 278,-76 275,-73 275,-70 275,-70 275,-64 275,-64 275,-61 278,-58 281,-58 281,-58 381,-58 381,-58 384,-58 387,-61 387,-64 387,-64 387,-70 387,-70 387,-73 384,-76 381,-76"/>
<text text-anchor="start" x="283" y="-64.8" font-family="Helvetica,sans-Serif" font-size="9.00">DiagnosticsPanel.vue</text>
</a>
</g>
</g>
<!-- src/App.vue&#45;&gt;src/components/utils/DiagnosticsPanel.vue -->
<g id="edge1" class="edge">
<title>src/App.vue&#45;&gt;src/components/utils/DiagnosticsPanel.vue</title>
<path fill="none" stroke="#000000" stroke-width="2" stroke-opacity="0.200000" d="M126.13,-173.87C131.99,-170.39 138.77,-166.45 145,-163 202.26,-131.33 270.93,-96.5 306.32,-78.78"/>
<polygon fill="#000000" fill-opacity="0.200000" stroke="#000000" stroke-width="2" stroke-opacity="0.200000" points="307.28,-80.65 311.71,-76.09 305.41,-76.89 307.28,-80.65"/>
</g>
<!-- src/views/NavBar.vue -->
<g id="node3" class="node">
<title>src/views/NavBar.vue</title>
<g id="a_node3"><a xlink:href="src/views/NavBar.vue" xlink:title="NavBar.vue">
<path fill="#41f083" stroke="black" d="M226,-222C226,-222 170,-222 170,-222 167,-222 164,-219 164,-216 164,-216 164,-210 164,-210 164,-207 167,-204 170,-204 170,-204 226,-204 226,-204 229,-204 232,-207 232,-210 232,-210 232,-216 232,-216 232,-219 229,-222 226,-222"/>
<text text-anchor="start" x="172" y="-210.8" font-family="Helvetica,sans-Serif" font-size="9.00">NavBar.vue</text>
</a>
</g>
</g>
<!-- src/App.vue&#45;&gt;src/views/NavBar.vue -->
<g id="edge2" class="edge">
<title>src/App.vue&#45;&gt;src/views/NavBar.vue</title>
<path fill="none" stroke="#000000" stroke-width="2" stroke-opacity="0.200000" d="M130.23,-192.02C135.01,-194.11 140.15,-196.24 145,-198 149.13,-199.5 153.48,-200.95 157.85,-202.32"/>
<polygon fill="#000000" fill-opacity="0.200000" stroke="#000000" stroke-width="2" stroke-opacity="0.200000" points="157.42,-204.39 163.77,-204.14 158.65,-200.37 157.42,-204.39"/>
</g>
<!-- src/views/VideoGallery.vue -->
<g id="node4" class="node">
<title>src/views/VideoGallery.vue</title>
<g id="a_node4"><a xlink:href="src/views/VideoGallery.vue" xlink:title="VideoGallery.vue">
<path fill="#41f083" stroke="black" d="M237,-192C237,-192 159,-192 159,-192 156,-192 153,-189 153,-186 153,-186 153,-180 153,-180 153,-177 156,-174 159,-174 159,-174 237,-174 237,-174 240,-174 243,-177 243,-180 243,-180 243,-186 243,-186 243,-189 240,-192 237,-192"/>
<text text-anchor="start" x="161" y="-180.8" font-family="Helvetica,sans-Serif" font-size="9.00">VideoGallery.vue</text>
</a>
</g>
</g>
<!-- src/App.vue&#45;&gt;src/views/VideoGallery.vue -->
<g id="edge3" class="edge">
<title>src/App.vue&#45;&gt;src/views/VideoGallery.vue</title>
<path fill="none" stroke="#000000" stroke-width="2" stroke-opacity="0.200000" d="M137.27,-183C140.2,-183 143.26,-183 146.37,-183"/>
<polygon fill="#000000" fill-opacity="0.200000" stroke="#000000" stroke-width="2" stroke-opacity="0.200000" points="146.81,-185.1 152.81,-183 146.81,-180.9 146.81,-185.1"/>
</g>
<!-- src/stores/appStateStore.ts -->
<g id="node15" class="node">
<title>src/stores/appStateStore.ts</title>
<g id="a_node15"><a xlink:href="src/stores/appStateStore.ts" xlink:title="appStateStore.ts">
<path fill="#ddfeff" stroke="black" d="M498,-252C498,-252 417,-252 417,-252 414,-252 411,-249 411,-246 411,-246 411,-240 411,-240 411,-237 414,-234 417,-234 417,-234 498,-234 498,-234 501,-234 504,-237 504,-240 504,-240 504,-246 504,-246 504,-249 501,-252 498,-252"/>
<text text-anchor="start" x="419" y="-240.8" font-family="Helvetica,sans-Serif" font-size="9.00">appStateStore.ts</text>
</a>
</g>
</g>
<!-- src/components/utils/DiagnosticsPanel.vue&#45;&gt;src/stores/appStateStore.ts -->
<g id="edge13" class="edge">
<title>src/components/utils/DiagnosticsPanel.vue&#45;&gt;src/stores/appStateStore.ts</title>
<path fill="none" stroke="#000000" stroke-width="2" stroke-opacity="0.200000" d="M356.52,-76C370.29,-82.43 386.4,-92.52 395,-107 408.75,-130.17 386.02,-207.08 403,-228 403.82,-229.01 404.7,-229.96 405.64,-230.84"/>
<polygon fill="#000000" fill-opacity="0.200000" stroke="#000000" stroke-width="2" stroke-opacity="0.200000" points="404.7,-232.77 410.72,-234.78 407.27,-229.45 404.7,-232.77"/>
</g>
<!-- src/stores/videosStore.ts -->
<g id="node13" class="node">
<title>src/stores/videosStore.ts</title>
<g id="a_node13"><a xlink:href="src/stores/videosStore.ts" xlink:title="videosStore.ts">
<path fill="#ddfeff" stroke="black" d="M491.5,-222C491.5,-222 423.5,-222 423.5,-222 420.5,-222 417.5,-219 417.5,-216 417.5,-216 417.5,-210 417.5,-210 417.5,-207 420.5,-204 423.5,-204 423.5,-204 491.5,-204 491.5,-204 494.5,-204 497.5,-207 497.5,-210 497.5,-210 497.5,-216 497.5,-216 497.5,-219 494.5,-222 491.5,-222"/>
<text text-anchor="start" x="425.5" y="-210.8" font-family="Helvetica,sans-Serif" font-size="9.00">videosStore.ts</text>
</a>
</g>
</g>
<!-- src/views/NavBar.vue&#45;&gt;src/stores/videosStore.ts -->
<g id="edge32" class="edge">
<title>src/views/NavBar.vue&#45;&gt;src/stores/videosStore.ts</title>
<path fill="none" stroke="#000000" stroke-width="2" stroke-opacity="0.200000" d="M232.14,-213C277.69,-213 359.83,-213 411.08,-213"/>
<polygon fill="#000000" fill-opacity="0.200000" stroke="#000000" stroke-width="2" stroke-opacity="0.200000" points="411.17,-215.1 417.17,-213 411.17,-210.9 411.17,-215.1"/>
</g>
<!-- src/components/inputs/FileInput.vue -->
<g id="node14" class="node">
<title>src/components/inputs/FileInput.vue</title>
<g id="a_node14"><a xlink:href="src/components/inputs/FileInput.vue" xlink:title="FileInput.vue">
<path fill="#41f083" stroke="black" d="M362.5,-136C362.5,-136 299.5,-136 299.5,-136 296.5,-136 293.5,-133 293.5,-130 293.5,-130 293.5,-124 293.5,-124 293.5,-121 296.5,-118 299.5,-118 299.5,-118 362.5,-118 362.5,-118 365.5,-118 368.5,-121 368.5,-124 368.5,-124 368.5,-130 368.5,-130 368.5,-133 365.5,-136 362.5,-136"/>
<text text-anchor="start" x="301.5" y="-124.8" font-family="Helvetica,sans-Serif" font-size="9.00">FileInput.vue</text>
</a>
</g>
</g>
<!-- src/views/NavBar.vue&#45;&gt;src/components/inputs/FileInput.vue -->
<g id="edge30" class="edge">
<title>src/views/NavBar.vue&#45;&gt;src/components/inputs/FileInput.vue</title>
<path fill="none" stroke="#000000" stroke-width="2" stroke-opacity="0.200000" d="M232.08,-205.89C238.57,-203.83 245.17,-201.24 251,-198 278.18,-182.92 303.82,-156.92 318.16,-140.91"/>
<polygon fill="#000000" fill-opacity="0.200000" stroke="#000000" stroke-width="2" stroke-opacity="0.200000" points="319.84,-142.18 322.24,-136.29 316.69,-139.4 319.84,-142.18"/>
</g>
<!-- src/views/NavBar.vue&#45;&gt;src/stores/appStateStore.ts -->
<g id="edge31" class="edge">
<title>src/views/NavBar.vue&#45;&gt;src/stores/appStateStore.ts</title>
<path fill="none" stroke="#000000" stroke-width="2" stroke-opacity="0.200000" d="M222.88,-222.08C233.74,-225.81 246.86,-229.78 259,-232 307.74,-240.93 364.27,-243.29 404.33,-243.64"/>
<polygon fill="#000000" fill-opacity="0.200000" stroke="#000000" stroke-width="2" stroke-opacity="0.200000" points="404.61,-245.75 410.62,-243.69 404.63,-241.55 404.61,-245.75"/>
</g>
<!-- src/components/VideoCard.vue -->
<g id="node11" class="node">
<title>src/components/VideoCard.vue</title>
<g id="a_node11"><a xlink:href="src/components/VideoCard.vue" xlink:title="VideoCard.vue">
<path fill="#41f083" stroke="black" d="M366,-42C366,-42 296,-42 296,-42 293,-42 290,-39 290,-36 290,-36 290,-30 290,-30 290,-27 293,-24 296,-24 296,-24 366,-24 366,-24 369,-24 372,-27 372,-30 372,-30 372,-36 372,-36 372,-39 369,-42 366,-42"/>
<text text-anchor="start" x="298" y="-30.8" font-family="Helvetica,sans-Serif" font-size="9.00">VideoCard.vue</text>
</a>
</g>
</g>
<!-- src/views/VideoGallery.vue&#45;&gt;src/components/VideoCard.vue -->
<g id="edge33" class="edge">
<title>src/views/VideoGallery.vue&#45;&gt;src/components/VideoCard.vue</title>
<path fill="none" stroke="#000000" stroke-width="2" stroke-opacity="0.200000" d="M200.12,-173.99C203.68,-149.36 217.09,-80.54 259,-47 266.16,-41.27 275.01,-37.67 284.01,-35.45"/>
<polygon fill="#000000" fill-opacity="0.200000" stroke="#000000" stroke-width="2" stroke-opacity="0.200000" points="284.5,-37.49 289.92,-34.18 283.62,-33.38 284.5,-37.49"/>
</g>
<!-- src/views/VideoGallery.vue&#45;&gt;src/stores/videosStore.ts -->
<g id="edge35" class="edge">
<title>src/views/VideoGallery.vue&#45;&gt;src/stores/videosStore.ts</title>
<path fill="none" stroke="#000000" stroke-width="2" stroke-opacity="0.200000" d="M243.27,-188.16C290.19,-193.62 363.93,-202.22 411.23,-207.73"/>
<polygon fill="#000000" fill-opacity="0.200000" stroke="#000000" stroke-width="2" stroke-opacity="0.200000" points="411.24,-209.84 417.44,-208.45 411.72,-205.67 411.24,-209.84"/>
</g>
<!-- src/views/VideoGallery.vue&#45;&gt;src/stores/appStateStore.ts -->
<g id="edge34" class="edge">
<title>src/views/VideoGallery.vue&#45;&gt;src/stores/appStateStore.ts</title>
<path fill="none" stroke="#000000" stroke-width="2" stroke-opacity="0.200000" d="M233.7,-192.05C239.54,-193.85 245.49,-195.85 251,-198 254.7,-199.45 255.24,-200.7 259,-202 285.33,-211.14 355.29,-224.77 404.43,-233.77"/>
<polygon fill="#000000" fill-opacity="0.200000" stroke="#000000" stroke-width="2" stroke-opacity="0.200000" points="404.33,-235.88 410.61,-234.9 405.09,-231.75 404.33,-235.88"/>
</g>
<!-- src/application/index.ts -->
<g id="node5" class="node">
<title>src/application/index.ts</title>
<g id="a_node5"><a xlink:href="src/application/index.ts" xlink:title="index.ts">
<path fill="#ddfeff" stroke="black" d="M576,-215C576,-215 534,-215 534,-215 531,-215 528,-212 528,-209 528,-209 528,-203 528,-203 528,-200 531,-197 534,-197 534,-197 576,-197 576,-197 579,-197 582,-200 582,-203 582,-203 582,-209 582,-209 582,-212 579,-215 576,-215"/>
<text text-anchor="start" x="536.5" y="-203.8" font-family="Helvetica,sans-Serif" font-size="9.00">index.ts</text>
</a>
</g>
</g>
<!-- src/application/services/FiltersService.ts -->
<g id="node6" class="node">
<title>src/application/services/FiltersService.ts</title>
<g id="a_node6"><a xlink:href="src/application/services/FiltersService.ts" xlink:title="FiltersService.ts">
<path fill="#ddfeff" stroke="black" d="M692,-239C692,-239 617,-239 617,-239 614,-239 611,-236 611,-233 611,-233 611,-227 611,-227 611,-224 614,-221 617,-221 617,-221 692,-221 692,-221 695,-221 698,-224 698,-227 698,-227 698,-233 698,-233 698,-236 695,-239 692,-239"/>
<text text-anchor="start" x="619" y="-227.8" font-family="Helvetica,sans-Serif" font-size="9.00">FiltersService.ts</text>
</a>
</g>
</g>
<!-- src/application/index.ts&#45;&gt;src/application/services/FiltersService.ts -->
<g id="edge4" class="edge">
<title>src/application/index.ts&#45;&gt;src/application/services/FiltersService.ts</title>
<path fill="none" stroke="#000000" stroke-width="2" stroke-opacity="0.200000" d="M582.34,-213.05C584.93,-213.72 587.51,-214.38 590,-215 595.93,-216.49 602.19,-218.01 608.37,-219.5"/>
<polygon fill="#000000" fill-opacity="0.200000" stroke="#000000" stroke-width="2" stroke-opacity="0.200000" points="608.18,-221.61 614.5,-220.96 609.16,-217.53 608.18,-221.61"/>
</g>
<!-- src/application/services/VideoMetadataService.ts -->
<g id="node7" class="node">
<title>src/application/services/VideoMetadataService.ts</title>
<g id="a_node7"><a xlink:href="src/application/services/VideoMetadataService.ts" xlink:title="VideoMetadataService.ts">
<path fill="#ddfeff" stroke="black" d="M846,-209C846,-209 730,-209 730,-209 727,-209 724,-206 724,-203 724,-203 724,-197 724,-197 724,-194 727,-191 730,-191 730,-191 846,-191 846,-191 849,-191 852,-194 852,-197 852,-197 852,-203 852,-203 852,-206 849,-209 846,-209"/>
<text text-anchor="start" x="732" y="-197.8" font-family="Helvetica,sans-Serif" font-size="9.00">VideoMetadataService.ts</text>
</a>
</g>
</g>
<!-- src/application/index.ts&#45;&gt;src/application/services/VideoMetadataService.ts -->
<g id="edge5" class="edge">
<title>src/application/index.ts&#45;&gt;src/application/services/VideoMetadataService.ts</title>
<path fill="none" stroke="#000000" stroke-width="2" stroke-opacity="0.200000" d="M567.2,-196.88C573.49,-192.35 581.72,-187.35 590,-185 643.71,-169.75 708.78,-179.96 749.03,-189.42"/>
<polygon fill="#000000" fill-opacity="0.200000" stroke="#000000" stroke-width="2" stroke-opacity="0.200000" points="748.95,-191.56 755.28,-190.92 749.94,-187.47 748.95,-191.56"/>
</g>
<!-- src/application/services/VideoParserService.ts -->
<g id="node8" class="node">
<title>src/application/services/VideoParserService.ts</title>
<g id="a_node8"><a xlink:href="src/application/services/VideoParserService.ts" xlink:title="VideoParserService.ts">
<path fill="#ddfeff" stroke="black" d="M705,-209C705,-209 604,-209 604,-209 601,-209 598,-206 598,-203 598,-203 598,-197 598,-197 598,-194 601,-191 604,-191 604,-191 705,-191 705,-191 708,-191 711,-194 711,-197 711,-197 711,-203 711,-203 711,-206 708,-209 705,-209"/>
<text text-anchor="start" x="606" y="-197.8" font-family="Helvetica,sans-Serif" font-size="9.00">VideoParserService.ts</text>
</a>
</g>
</g>
<!-- src/application/index.ts&#45;&gt;src/application/services/VideoParserService.ts -->
<g id="edge6" class="edge">
<title>src/application/index.ts&#45;&gt;src/application/services/VideoParserService.ts</title>
<path fill="none" stroke="#000000" stroke-width="2" stroke-opacity="0.200000" d="M582.13,-204.39C585.23,-204.2 588.49,-204 591.84,-203.79"/>
<polygon fill="#000000" fill-opacity="0.200000" stroke="#000000" stroke-width="2" stroke-opacity="0.200000" points="592.08,-205.88 597.94,-203.42 591.82,-201.69 592.08,-205.88"/>
</g>
<!-- src/infrastructure/index.ts -->
<g id="node9" class="node">
<title>src/infrastructure/index.ts</title>
<g id="a_node9"><a xlink:href="src/infrastructure/index.ts" xlink:title="index.ts">
<path fill="#ddfeff" stroke="black" d="M932,-80C932,-80 890,-80 890,-80 887,-80 884,-77 884,-74 884,-74 884,-68 884,-68 884,-65 887,-62 890,-62 890,-62 932,-62 932,-62 935,-62 938,-65 938,-68 938,-68 938,-74 938,-74 938,-77 935,-80 932,-80"/>
<text text-anchor="start" x="892.5" y="-68.8" font-family="Helvetica,sans-Serif" font-size="9.00">index.ts</text>
</a>
</g>
</g>
<!-- src/application/services/VideoMetadataService.ts&#45;&gt;src/infrastructure/index.ts -->
<g id="edge7" class="edge">
<title>src/application/services/VideoMetadataService.ts&#45;&gt;src/infrastructure/index.ts</title>
<path fill="none" stroke="#000000" stroke-width="2" stroke-opacity="0.200000" d="M797.7,-190.72C818.72,-168.32 872.34,-111.15 897.1,-84.75"/>
<polygon fill="#000000" fill-opacity="0.200000" stroke="#000000" stroke-width="2" stroke-opacity="0.200000" points="898.8,-86.01 901.38,-80.19 895.74,-83.13 898.8,-86.01"/>
</g>
<!-- src/application/services/VideoParserService.ts&#45;&gt;src/application/services/VideoMetadataService.ts -->
<g id="edge8" class="edge">
<title>src/application/services/VideoParserService.ts&#45;&gt;src/application/services/VideoMetadataService.ts</title>
<path fill="none" stroke="#000000" stroke-width="2" stroke-opacity="0.200000" d="M711.27,-200C713.37,-200 715.48,-200 717.6,-200"/>
<polygon fill="#000000" fill-opacity="0.200000" stroke="#000000" stroke-width="2" stroke-opacity="0.200000" points="717.96,-202.1 723.96,-200 717.96,-197.9 717.96,-202.1"/>
</g>
<!-- src/domain/index.ts -->
<g id="node10" class="node">
<title>src/domain/index.ts</title>
<g id="a_node10"><a xlink:href="src/domain/index.ts" xlink:title="index.ts">
<path fill="#ddfeff" stroke="black" d="M1175.5,-231C1175.5,-231 1133.5,-231 1133.5,-231 1130.5,-231 1127.5,-228 1127.5,-225 1127.5,-225 1127.5,-219 1127.5,-219 1127.5,-216 1130.5,-213 1133.5,-213 1133.5,-213 1175.5,-213 1175.5,-213 1178.5,-213 1181.5,-216 1181.5,-219 1181.5,-219 1181.5,-225 1181.5,-225 1181.5,-228 1178.5,-231 1175.5,-231"/>
<text text-anchor="start" x="1136" y="-219.8" font-family="Helvetica,sans-Serif" font-size="9.00">index.ts</text>
</a>
</g>
</g>
<!-- src/application/services/VideoParserService.ts&#45;&gt;src/domain/index.ts -->
<g id="edge9" class="edge">
<title>src/application/services/VideoParserService.ts&#45;&gt;src/domain/index.ts</title>
<path fill="none" stroke="#000000" stroke-width="2" stroke-opacity="0.200000" d="M690.47,-209.06C701.16,-211.45 713,-213.72 724,-215 871.41,-232.17 1049.16,-226.87 1121.02,-223.67"/>
<polygon fill="#000000" fill-opacity="0.200000" stroke="#000000" stroke-width="2" stroke-opacity="0.200000" points="1121.34,-225.75 1127.23,-223.38 1121.14,-221.56 1121.34,-225.75"/>
</g>
<!-- src/infrastructure/repository/MetadataRepository.ts -->
<g id="node23" class="node">
<title>src/infrastructure/repository/MetadataRepository.ts</title>
<g id="a_node23"><a xlink:href="src/infrastructure/repository/MetadataRepository.ts" xlink:title="MetadataRepository.ts">
<path fill="#ddfeff" stroke="black" d="M1064,-80C1064,-80 960,-80 960,-80 957,-80 954,-77 954,-74 954,-74 954,-68 954,-68 954,-65 957,-62 960,-62 960,-62 1064,-62 1064,-62 1067,-62 1070,-65 1070,-68 1070,-68 1070,-74 1070,-74 1070,-77 1067,-80 1064,-80"/>
<text text-anchor="start" x="962" y="-68.8" font-family="Helvetica,sans-Serif" font-size="9.00">MetadataRepository.ts</text>
</a>
</g>
</g>
<!-- src/infrastructure/index.ts&#45;&gt;src/infrastructure/repository/MetadataRepository.ts -->
<g id="edge22" class="edge">
<title>src/infrastructure/index.ts&#45;&gt;src/infrastructure/repository/MetadataRepository.ts</title>
<path fill="none" stroke="#000000" stroke-width="2" stroke-opacity="0.200000" d="M938.01,-71C941.09,-71 944.33,-71 947.66,-71"/>
<polygon fill="#000000" fill-opacity="0.200000" stroke="#000000" stroke-width="2" stroke-opacity="0.200000" points="947.73,-73.1 953.73,-71 947.73,-68.9 947.73,-73.1"/>
</g>
<!-- src/infrastructure/repository/VideoRepository.ts -->
<g id="node24" class="node">
<title>src/infrastructure/repository/VideoRepository.ts</title>
<g id="a_node24"><a xlink:href="src/infrastructure/repository/VideoRepository.ts" xlink:title="VideoRepository.ts">
<path fill="#ddfeff" stroke="black" d="M1055,-50C1055,-50 969,-50 969,-50 966,-50 963,-47 963,-44 963,-44 963,-38 963,-38 963,-35 966,-32 969,-32 969,-32 1055,-32 1055,-32 1058,-32 1061,-35 1061,-38 1061,-38 1061,-44 1061,-44 1061,-47 1058,-50 1055,-50"/>
<text text-anchor="start" x="971" y="-38.8" font-family="Helvetica,sans-Serif" font-size="9.00">VideoRepository.ts</text>
</a>
</g>
</g>
<!-- src/infrastructure/index.ts&#45;&gt;src/infrastructure/repository/VideoRepository.ts -->
<g id="edge23" class="edge">
<title>src/infrastructure/index.ts&#45;&gt;src/infrastructure/repository/VideoRepository.ts</title>
<path fill="none" stroke="#000000" stroke-width="2" stroke-opacity="0.200000" d="M930.81,-61.95C935.69,-59.81 940.98,-57.67 946,-56 950.74,-54.42 955.73,-52.95 960.74,-51.6"/>
<polygon fill="#000000" fill-opacity="0.200000" stroke="#000000" stroke-width="2" stroke-opacity="0.200000" points="961.36,-53.61 966.63,-50.06 960.3,-49.54 961.36,-53.61"/>
</g>
<!-- src/domain/constants/index.ts -->
<g id="node16" class="node">
<title>src/domain/constants/index.ts</title>
<g id="a_node16"><a xlink:href="src/domain/constants/index.ts" xlink:title="index.ts">
<path fill="#ddfeff" stroke="black" d="M1327.5,-174C1327.5,-174 1285.5,-174 1285.5,-174 1282.5,-174 1279.5,-171 1279.5,-168 1279.5,-168 1279.5,-162 1279.5,-162 1279.5,-159 1282.5,-156 1285.5,-156 1285.5,-156 1327.5,-156 1327.5,-156 1330.5,-156 1333.5,-159 1333.5,-162 1333.5,-162 1333.5,-168 1333.5,-168 1333.5,-171 1330.5,-174 1327.5,-174"/>
<text text-anchor="start" x="1288" y="-162.8" font-family="Helvetica,sans-Serif" font-size="9.00">index.ts</text>
</a>
</g>
</g>
<!-- src/domain/index.ts&#45;&gt;src/domain/constants/index.ts -->
<g id="edge14" class="edge">
<title>src/domain/index.ts&#45;&gt;src/domain/constants/index.ts</title>
<path fill="none" stroke="#000000" stroke-width="2" stroke-opacity="0.200000" d="M1169.69,-212.86C1185.85,-202.86 1213.35,-187.05 1239,-178 1249.95,-174.14 1262.35,-171.32 1273.44,-169.32"/>
<polygon fill="#000000" fill-opacity="0.200000" stroke="#000000" stroke-width="2" stroke-opacity="0.200000" points="1273.9,-171.37 1279.45,-168.29 1273.19,-167.23 1273.9,-171.37"/>
</g>
<!-- src/domain/entities/Metadata.ts -->
<g id="node17" class="node">
<title>src/domain/entities/Metadata.ts</title>
<g id="a_node17"><a xlink:href="src/domain/entities/Metadata.ts" xlink:title="Metadata.ts">
<path fill="#ddfeff" stroke="black" d="M1454,-274C1454,-274 1396,-274 1396,-274 1393,-274 1390,-271 1390,-268 1390,-268 1390,-262 1390,-262 1390,-259 1393,-256 1396,-256 1396,-256 1454,-256 1454,-256 1457,-256 1460,-259 1460,-262 1460,-262 1460,-268 1460,-268 1460,-271 1457,-274 1454,-274"/>
<text text-anchor="start" x="1398" y="-262.8" font-family="Helvetica,sans-Serif" font-size="9.00">Metadata.ts</text>
</a>
</g>
</g>
<!-- src/domain/index.ts&#45;&gt;src/domain/entities/Metadata.ts -->
<g id="edge15" class="edge">
<title>src/domain/index.ts&#45;&gt;src/domain/entities/Metadata.ts</title>
<path fill="none" stroke="#000000" stroke-opacity="0.200000" d="M1161.25,-231.09C1173.16,-248.95 1202.5,-288.21 1239,-303 1266.8,-314.27 1345.57,-312.58 1374,-303 1388.25,-298.2 1401.67,-287.54 1411,-278.73"/>
<polygon fill="none" stroke="#000000" stroke-opacity="0.200000" points="1412.68,-280.02 1415.5,-274.33 1409.74,-277.02 1412.68,-280.02"/>
</g>
<!-- src/domain/entities/Video.ts -->
<g id="node18" class="node">
<title>src/domain/entities/Video.ts</title>
<g id="a_node18"><a xlink:href="src/domain/entities/Video.ts" xlink:title="Video.ts">
<path fill="#ddfeff" stroke="black" d="M1446,-244C1446,-244 1404,-244 1404,-244 1401,-244 1398,-241 1398,-238 1398,-238 1398,-232 1398,-232 1398,-229 1401,-226 1404,-226 1404,-226 1446,-226 1446,-226 1449,-226 1452,-229 1452,-232 1452,-232 1452,-238 1452,-238 1452,-241 1449,-244 1446,-244"/>
<text text-anchor="start" x="1406.5" y="-232.8" font-family="Helvetica,sans-Serif" font-size="9.00">Video.ts</text>
</a>
</g>
</g>
<!-- src/domain/index.ts&#45;&gt;src/domain/entities/Video.ts -->
<g id="edge16" class="edge">
<title>src/domain/index.ts&#45;&gt;src/domain/entities/Video.ts</title>
<path fill="none" stroke="#000000" stroke-opacity="0.200000" d="M1181.69,-217.46C1223,-211.14 1305.61,-201.83 1374,-215 1382.78,-216.69 1391.98,-219.91 1400.05,-223.28"/>
<polygon fill="none" stroke="#000000" stroke-opacity="0.200000" points="1399.65,-225.39 1405.99,-225.86 1401.32,-221.54 1399.65,-225.39"/>
</g>
<!-- src/domain/repositories/IMetadataRepository.ts -->
<g id="node19" class="node">
<title>src/domain/repositories/IMetadataRepository.ts</title>
<g id="a_node19"><a xlink:href="src/domain/repositories/IMetadataRepository.ts" xlink:title="IMetadataRepository.ts">
<path fill="#ddfeff" stroke="black" d="M1360,-274C1360,-274 1253,-274 1253,-274 1250,-274 1247,-271 1247,-268 1247,-268 1247,-262 1247,-262 1247,-259 1250,-256 1253,-256 1253,-256 1360,-256 1360,-256 1363,-256 1366,-259 1366,-262 1366,-262 1366,-268 1366,-268 1366,-271 1363,-274 1360,-274"/>
<text text-anchor="start" x="1255" y="-262.8" font-family="Helvetica,sans-Serif" font-size="9.00">IMetadataRepository.ts</text>
</a>
</g>
</g>
<!-- src/domain/index.ts&#45;&gt;src/domain/repositories/IMetadataRepository.ts -->
<g id="edge17" class="edge">
<title>src/domain/index.ts&#45;&gt;src/domain/repositories/IMetadataRepository.ts</title>
<path fill="none" stroke="#000000" stroke-opacity="0.200000" d="M1180.51,-231.13C1196.99,-236.96 1219.12,-244.44 1239,-250 1244.64,-251.58 1250.59,-253.11 1256.51,-254.55"/>
<polygon fill="none" stroke="#000000" stroke-opacity="0.200000" points="1256.09,-256.6 1262.41,-255.95 1257.06,-252.52 1256.09,-256.6"/>
</g>
<!-- src/domain/repositories/IVideoRepository.ts -->
<g id="node20" class="node">
<title>src/domain/repositories/IVideoRepository.ts</title>
<g id="a_node20"><a xlink:href="src/domain/repositories/IVideoRepository.ts" xlink:title="IVideoRepository.ts">
<path fill="#ddfeff" stroke="black" d="M1351,-244C1351,-244 1262,-244 1262,-244 1259,-244 1256,-241 1256,-238 1256,-238 1256,-232 1256,-232 1256,-229 1259,-226 1262,-226 1262,-226 1351,-226 1351,-226 1354,-226 1357,-229 1357,-232 1357,-232 1357,-238 1357,-238 1357,-241 1354,-244 1351,-244"/>
<text text-anchor="start" x="1264" y="-232.8" font-family="Helvetica,sans-Serif" font-size="9.00">IVideoRepository.ts</text>
</a>
</g>
</g>
<!-- src/domain/index.ts&#45;&gt;src/domain/repositories/IVideoRepository.ts -->
<g id="edge18" class="edge">
<title>src/domain/index.ts&#45;&gt;src/domain/repositories/IVideoRepository.ts</title>
<path fill="none" stroke="#000000" stroke-opacity="0.200000" d="M1181.63,-224.26C1200.35,-225.89 1226.27,-228.13 1249.57,-230.15"/>
<polygon fill="none" stroke="#000000" stroke-opacity="0.200000" points="1249.58,-232.26 1255.74,-230.69 1249.94,-228.08 1249.58,-232.26"/>
</g>
<!-- src/domain/services/FileVideoParser.ts -->
<g id="node21" class="node">
<title>src/domain/services/FileVideoParser.ts</title>
<g id="a_node21"><a xlink:href="src/domain/services/FileVideoParser.ts" xlink:title="FileVideoParser.ts">
<path fill="#ddfeff" stroke="black" d="M1347.5,-344C1347.5,-344 1265.5,-344 1265.5,-344 1262.5,-344 1259.5,-341 1259.5,-338 1259.5,-338 1259.5,-332 1259.5,-332 1259.5,-329 1262.5,-326 1265.5,-326 1265.5,-326 1347.5,-326 1347.5,-326 1350.5,-326 1353.5,-329 1353.5,-332 1353.5,-332 1353.5,-338 1353.5,-338 1353.5,-341 1350.5,-344 1347.5,-344"/>
<text text-anchor="start" x="1267.5" y="-332.8" font-family="Helvetica,sans-Serif" font-size="9.00">FileVideoParser.ts</text>
</a>
</g>
</g>
<!-- src/domain/index.ts&#45;&gt;src/domain/services/FileVideoParser.ts -->
<g id="edge19" class="edge">
<title>src/domain/index.ts&#45;&gt;src/domain/services/FileVideoParser.ts</title>
<path fill="none" stroke="#000000" stroke-width="2" stroke-opacity="0.200000" d="M1160.31,-231.26C1171.29,-251.37 1200.26,-299.09 1239,-322 1243.44,-324.63 1248.31,-326.73 1253.33,-328.42"/>
<polygon fill="#000000" fill-opacity="0.200000" stroke="#000000" stroke-width="2" stroke-opacity="0.200000" points="1252.93,-330.49 1259.28,-330.22 1254.14,-326.47 1252.93,-330.49"/>
</g>
<!-- src/components/VideoEmbed.vue -->
<g id="node12" class="node">
<title>src/components/VideoEmbed.vue</title>
<g id="a_node12"><a xlink:href="src/components/VideoEmbed.vue" xlink:title="VideoEmbed.vue">
<path fill="#41f083" stroke="black" d="M498,-42C498,-42 417,-42 417,-42 414,-42 411,-39 411,-36 411,-36 411,-30 411,-30 411,-27 414,-24 417,-24 417,-24 498,-24 498,-24 501,-24 504,-27 504,-30 504,-30 504,-36 504,-36 504,-39 501,-42 498,-42"/>
<text text-anchor="start" x="419" y="-30.8" font-family="Helvetica,sans-Serif" font-size="9.00">VideoEmbed.vue</text>
</a>
</g>
</g>
<!-- src/components/VideoCard.vue&#45;&gt;src/components/VideoEmbed.vue -->
<g id="edge10" class="edge">
<title>src/components/VideoCard.vue&#45;&gt;src/components/VideoEmbed.vue</title>
<path fill="none" stroke="#000000" stroke-width="2" stroke-opacity="0.200000" d="M372.08,-33C382.51,-33 393.91,-33 404.85,-33"/>
<polygon fill="#000000" fill-opacity="0.200000" stroke="#000000" stroke-width="2" stroke-opacity="0.200000" points="404.87,-35.1 410.87,-33 404.87,-30.9 404.87,-35.1"/>
</g>
<!-- src/components/VideoCard.vue&#45;&gt;src/stores/videosStore.ts -->
<g id="edge11" class="edge">
<title>src/components/VideoCard.vue&#45;&gt;src/stores/videosStore.ts</title>
<path fill="none" stroke="#000000" stroke-width="2" stroke-opacity="0.200000" d="M372.16,-34.06C380.87,-36.24 389.2,-40.17 395,-47 415.74,-71.43 384.43,-164.88 403,-191 405.82,-194.97 409.5,-198.23 413.6,-200.9"/>
<polygon fill="#000000" fill-opacity="0.200000" stroke="#000000" stroke-width="2" stroke-opacity="0.200000" points="412.74,-202.82 418.99,-203.97 414.82,-199.18 412.74,-202.82"/>
</g>
<!-- src/stores/videosStore.ts&#45;&gt;src/application/index.ts -->
<g id="edge29" class="edge">
<title>src/stores/videosStore.ts&#45;&gt;src/application/index.ts</title>
<path fill="none" stroke="#000000" stroke-width="2" stroke-opacity="0.200000" d="M497.62,-210.13C505.59,-209.55 513.89,-208.94 521.59,-208.38"/>
<polygon fill="#000000" fill-opacity="0.200000" stroke="#000000" stroke-width="2" stroke-opacity="0.200000" points="522.07,-210.45 527.9,-207.91 521.76,-206.26 522.07,-210.45"/>
</g>
<!-- src/components/inputs/FileInput.vue&#45;&gt;src/stores/videosStore.ts -->
<g id="edge12" class="edge">
<title>src/components/inputs/FileInput.vue&#45;&gt;src/stores/videosStore.ts</title>
<path fill="none" stroke="#000000" stroke-width="2" stroke-opacity="0.200000" d="M340.37,-136.36C352.89,-149.91 377.72,-175.09 403,-191 409.37,-195.01 416.61,-198.56 423.64,-201.58"/>
<polygon fill="#000000" fill-opacity="0.200000" stroke="#000000" stroke-width="2" stroke-opacity="0.200000" points="423.14,-203.64 429.49,-203.98 424.74,-199.76 423.14,-203.64"/>
</g>
<!-- src/domain/repositories/IMetadataRepository.ts&#45;&gt;src/domain/entities/Metadata.ts -->
<g id="edge20" class="edge">
<title>src/domain/repositories/IMetadataRepository.ts&#45;&gt;src/domain/entities/Metadata.ts</title>
<path fill="none" stroke="#000000" stroke-opacity="0.200000" d="M1366.09,-265C1372.08,-265 1378.07,-265 1383.8,-265"/>
<polygon fill="none" stroke="#000000" stroke-opacity="0.200000" points="1383.9,-267.1 1389.9,-265 1383.9,-262.9 1383.9,-267.1"/>
</g>
<!-- src/domain/repositories/IVideoRepository.ts&#45;&gt;src/domain/entities/Video.ts -->
<g id="edge21" class="edge">
<title>src/domain/repositories/IVideoRepository.ts&#45;&gt;src/domain/entities/Video.ts</title>
<path fill="none" stroke="#000000" stroke-opacity="0.200000" d="M1357.24,-235C1368.93,-235 1381.08,-235 1391.76,-235"/>
<polygon fill="none" stroke="#000000" stroke-opacity="0.200000" points="1391.87,-237.1 1397.87,-235 1391.87,-232.9 1391.87,-237.1"/>
</g>
<!-- src/infrastructure/database/DatabaseConnection.ts -->
<g id="node22" class="node">
<title>src/infrastructure/database/DatabaseConnection.ts</title>
<g id="a_node22"><a xlink:href="src/infrastructure/database/DatabaseConnection.ts" xlink:title="DatabaseConnection.ts">
<path fill="#ddfeff" stroke="black" d="M1209,-65C1209,-65 1100,-65 1100,-65 1097,-65 1094,-62 1094,-59 1094,-59 1094,-53 1094,-53 1094,-50 1097,-47 1100,-47 1100,-47 1209,-47 1209,-47 1212,-47 1215,-50 1215,-53 1215,-53 1215,-59 1215,-59 1215,-62 1212,-65 1209,-65"/>
<text text-anchor="start" x="1102" y="-53.8" font-family="Helvetica,sans-Serif" font-size="9.00">DatabaseConnection.ts</text>
</a>
</g>
</g>
<!-- src/infrastructure/repository/MetadataRepository.ts&#45;&gt;src/domain/index.ts -->
<g id="edge25" class="edge">
<title>src/infrastructure/repository/MetadataRepository.ts&#45;&gt;src/domain/index.ts</title>
<path fill="none" stroke="#000000" stroke-width="2" stroke-opacity="0.200000" d="M1021.79,-80.45C1045.85,-106.31 1112.88,-178.35 1140.92,-208.48"/>
<polygon fill="#000000" fill-opacity="0.200000" stroke="#000000" stroke-width="2" stroke-opacity="0.200000" points="1139.45,-209.98 1145.07,-212.94 1142.52,-207.12 1139.45,-209.98"/>
</g>
<!-- src/infrastructure/repository/MetadataRepository.ts&#45;&gt;src/infrastructure/database/DatabaseConnection.ts -->
<g id="edge24" class="edge">
<title>src/infrastructure/repository/MetadataRepository.ts&#45;&gt;src/infrastructure/database/DatabaseConnection.ts</title>
<path fill="none" stroke="#000000" stroke-width="2" stroke-opacity="0.200000" d="M1070.15,-64.9C1075.84,-64.29 1081.65,-63.67 1087.42,-63.05"/>
<polygon fill="#000000" fill-opacity="0.200000" stroke="#000000" stroke-width="2" stroke-opacity="0.200000" points="1087.92,-65.11 1093.66,-62.39 1087.47,-60.94 1087.92,-65.11"/>
</g>
<!-- src/infrastructure/repository/VideoRepository.ts&#45;&gt;src/domain/index.ts -->
<g id="edge27" class="edge">
<title>src/infrastructure/repository/VideoRepository.ts&#45;&gt;src/domain/index.ts</title>
<path fill="none" stroke="#000000" stroke-width="2" stroke-opacity="0.200000" d="M1061.06,-45.43C1067.39,-47.81 1073.3,-51.2 1078,-56 1090.09,-68.32 1080.14,-77.77 1086,-94 1101.65,-137.35 1129.53,-184.3 1144.08,-207.43"/>
<polygon fill="#000000" fill-opacity="0.200000" stroke="#000000" stroke-width="2" stroke-opacity="0.200000" points="1142.49,-208.84 1147.48,-212.78 1146.03,-206.59 1142.49,-208.84"/>
</g>
<!-- src/infrastructure/repository/VideoRepository.ts&#45;&gt;src/infrastructure/database/DatabaseConnection.ts -->
<g id="edge26" class="edge">
<title>src/infrastructure/repository/VideoRepository.ts&#45;&gt;src/infrastructure/database/DatabaseConnection.ts</title>
<path fill="none" stroke="#000000" stroke-width="2" stroke-opacity="0.200000" d="M1061.35,-46.16C1069.87,-47.07 1078.86,-48.03 1087.75,-48.98"/>
<polygon fill="#000000" fill-opacity="0.200000" stroke="#000000" stroke-width="2" stroke-opacity="0.200000" points="1087.69,-51.09 1093.88,-49.64 1088.14,-46.91 1087.69,-51.09"/>
</g>
<!-- src/main.ts -->
<g id="node25" class="node">
<title>src/main.ts</title>
<g id="a_node25"><a xlink:href="src/main.ts" xlink:title="main.ts">
<path fill="#ddfeff" stroke="black" d="M64,-192C64,-192 22,-192 22,-192 19,-192 16,-189 16,-186 16,-186 16,-180 16,-180 16,-177 19,-174 22,-174 22,-174 64,-174 64,-174 67,-174 70,-177 70,-180 70,-180 70,-186 70,-186 70,-189 67,-192 64,-192"/>
<text text-anchor="start" x="26" y="-180.8" font-family="Helvetica,sans-Serif" font-size="9.00">main.ts</text>
</a>
</g>
</g>
<!-- src/main.ts&#45;&gt;src/App.vue -->
<g id="edge28" class="edge">
<title>src/main.ts&#45;&gt;src/App.vue</title>
<path fill="none" stroke="#000000" stroke-width="2" stroke-opacity="0.200000" d="M70.06,-183C72.32,-183 74.61,-183 76.9,-183"/>
<polygon fill="#000000" fill-opacity="0.200000" stroke="#000000" stroke-width="2" stroke-opacity="0.200000" points="76.93,-185.1 82.93,-183 76.93,-180.9 76.93,-185.1"/>
</g>
</g>
</svg>
