<?xml version="1.0" encoding="UTF-8" standalone="no"?>
<!DOCTYPE svg PUBLIC "-//W3C//DTD SVG 1.1//EN"
 "http://www.w3.org/Graphics/SVG/1.1/DTD/svg11.dtd">
<!-- Generated by graphviz version 9.0.0 (20230911.1827)
 -->
<!-- Title: dependency&#45;cruiser output Pages: 1 -->
<svg width="1758pt" height="648pt"
 viewBox="0.00 0.00 1757.88 648.00" xmlns="http://www.w3.org/2000/svg" xmlns:xlink="http://www.w3.org/1999/xlink">
<g id="graph0" class="graph" transform="scale(1 1) rotate(0) translate(4 644)">
<title>dependency&#45;cruiser output</title>
<polygon fill="white" stroke="none" points="-4,4 -4,-644 1753.88,-644 1753.88,4 -4,4"/>
<g id="clust1" class="cluster">
<title>cluster_src</title>
<path fill="#ffffff" stroke="black" stroke-width="2" d="M20,-8C20,-8 1729.88,-8 1729.88,-8 1735.88,-8 1741.88,-14 1741.88,-20 1741.88,-20 1741.88,-620 1741.88,-620 1741.88,-626 1735.88,-632 1729.88,-632 1729.88,-632 20,-632 20,-632 14,-632 8,-626 8,-620 8,-620 8,-20 8,-20 8,-14 14,-8 20,-8"/>
<text text-anchor="middle" x="874.94" y="-619.45" font-family="Helvetica,sans-Serif" font-weight="bold" font-size="9.00">src</text>
</g>
<g id="clust2" class="cluster">
<title>cluster_src/application</title>
<path fill="#ffffff" stroke="black" stroke-width="2" d="M512.25,-232C512.25,-232 949.5,-232 949.5,-232 955.5,-232 961.5,-238 961.5,-244 961.5,-244 961.5,-378 961.5,-378 961.5,-384 955.5,-390 949.5,-390 949.5,-390 512.25,-390 512.25,-390 506.25,-390 500.25,-384 500.25,-378 500.25,-378 500.25,-244 500.25,-244 500.25,-238 506.25,-232 512.25,-232"/>
<text text-anchor="middle" x="730.88" y="-377.45" font-family="Helvetica,sans-Serif" font-weight="bold" font-size="9.00">application</text>
</g>
<g id="clust3" class="cluster">
<title>cluster_src/application/services</title>
<path fill="#ffffff" stroke="black" stroke-width="2" d="M582.25,-246C582.25,-246 941.5,-246 941.5,-246 947.5,-246 953.5,-252 953.5,-258 953.5,-258 953.5,-351 953.5,-351 953.5,-357 947.5,-363 941.5,-363 941.5,-363 582.25,-363 582.25,-363 576.25,-363 570.25,-357 570.25,-351 570.25,-351 570.25,-258 570.25,-258 570.25,-252 576.25,-246 582.25,-246"/>
<text text-anchor="middle" x="761.88" y="-350.45" font-family="Helvetica,sans-Serif" font-weight="bold" font-size="9.00">services</text>
</g>
<g id="clust4" class="cluster">
<title>cluster_src/components</title>
<path fill="#ffffff" stroke="black" stroke-width="2" d="M265.25,-278C265.25,-278 480.25,-278 480.25,-278 486.25,-278 492.25,-284 492.25,-290 492.25,-290 492.25,-447 492.25,-447 492.25,-453 486.25,-459 480.25,-459 480.25,-459 265.25,-459 265.25,-459 259.25,-459 253.25,-453 253.25,-447 253.25,-447 253.25,-290 253.25,-290 253.25,-284 259.25,-278 265.25,-278"/>
<text text-anchor="middle" x="372.75" y="-446.45" font-family="Helvetica,sans-Serif" font-weight="bold" font-size="9.00">components</text>
</g>
<g id="clust6" class="cluster">
<title>cluster_src/components/utils</title>
<path fill="#ffffff" stroke="black" stroke-width="2" d="M273.25,-349C273.25,-349 371.25,-349 371.25,-349 377.25,-349 383.25,-355 383.25,-361 383.25,-361 383.25,-392 383.25,-392 383.25,-398 377.25,-404 371.25,-404 371.25,-404 273.25,-404 273.25,-404 267.25,-404 261.25,-398 261.25,-392 261.25,-392 261.25,-361 261.25,-361 261.25,-355 267.25,-349 273.25,-349"/>
<text text-anchor="middle" x="322.25" y="-391.45" font-family="Helvetica,sans-Serif" font-weight="bold" font-size="9.00">utils</text>
</g>
<g id="clust5" class="cluster">
<title>cluster_src/components/inputs</title>
<path fill="#ffffff" stroke="black" stroke-width="2" d="M292.38,-286C292.38,-286 352.12,-286 352.12,-286 358.12,-286 364.12,-292 364.12,-298 364.12,-298 364.12,-329 364.12,-329 364.12,-335 358.12,-341 352.12,-341 352.12,-341 292.38,-341 292.38,-341 286.38,-341 280.38,-335 280.38,-329 280.38,-329 280.38,-298 280.38,-298 280.38,-292 286.38,-286 292.38,-286"/>
<text text-anchor="middle" x="322.25" y="-328.45" font-family="Helvetica,sans-Serif" font-weight="bold" font-size="9.00">inputs</text>
</g>
<g id="clust7" class="cluster">
<title>cluster_src/domain</title>
<path fill="#ffffff" stroke="black" stroke-width="2" d="M1209.75,-222C1209.75,-222 1721.88,-222 1721.88,-222 1727.88,-222 1733.88,-228 1733.88,-234 1733.88,-234 1733.88,-593 1733.88,-593 1733.88,-599 1727.88,-605 1721.88,-605 1721.88,-605 1209.75,-605 1209.75,-605 1203.75,-605 1197.75,-599 1197.75,-593 1197.75,-593 1197.75,-234 1197.75,-234 1197.75,-228 1203.75,-222 1209.75,-222"/>
<text text-anchor="middle" x="1465.81" y="-592.45" font-family="Helvetica,sans-Serif" font-weight="bold" font-size="9.00">domain</text>
</g>
<g id="clust8" class="cluster">
<title>cluster_src/domain/constants</title>
<path fill="#ffffff" stroke="black" stroke-width="2" d="M1326.62,-230C1326.62,-230 1372.62,-230 1372.62,-230 1378.62,-230 1384.62,-236 1384.62,-242 1384.62,-242 1384.62,-273 1384.62,-273 1384.62,-279 1378.62,-285 1372.62,-285 1372.62,-285 1326.62,-285 1326.62,-285 1320.62,-285 1314.62,-279 1314.62,-273 1314.62,-273 1314.62,-242 1314.62,-242 1314.62,-236 1320.62,-230 1326.62,-230"/>
<text text-anchor="middle" x="1349.62" y="-272.45" font-family="Helvetica,sans-Serif" font-weight="bold" font-size="9.00">constants</text>
</g>
<g id="clust10" class="cluster">
<title>cluster_src/domain/repositories</title>
<path fill="#ffffff" stroke="black" stroke-width="2" d="M1418.88,-398C1418.88,-398 1612.88,-398 1612.88,-398 1618.88,-398 1624.88,-404 1624.88,-410 1624.88,-410 1624.88,-472 1624.88,-472 1624.88,-478 1618.88,-484 1612.88,-484 1612.88,-484 1418.88,-484 1418.88,-484 1412.88,-484 1406.88,-478 1406.88,-472 1406.88,-472 1406.88,-410 1406.88,-410 1406.88,-404 1412.88,-398 1418.88,-398"/>
<text text-anchor="middle" x="1515.88" y="-471.45" font-family="Helvetica,sans-Serif" font-weight="bold" font-size="9.00">repositories</text>
</g>
<g id="clust9" class="cluster">
<title>cluster_src/domain/entities</title>
<path fill="#ffffff" stroke="black" stroke-width="2" d="M1326.62,-293C1326.62,-293 1713.88,-293 1713.88,-293 1719.88,-293 1725.88,-299 1725.88,-305 1725.88,-305 1725.88,-378 1725.88,-378 1725.88,-384 1719.88,-390 1713.88,-390 1713.88,-390 1326.62,-390 1326.62,-390 1320.62,-390 1314.62,-384 1314.62,-378 1314.62,-378 1314.62,-305 1314.62,-305 1314.62,-299 1320.62,-293 1326.62,-293"/>
<text text-anchor="middle" x="1520.25" y="-377.45" font-family="Helvetica,sans-Serif" font-weight="bold" font-size="9.00">entities</text>
</g>
<g id="clust11" class="cluster">
<title>cluster_src/domain/valueObjects</title>
<path fill="#ffffff" stroke="black" stroke-width="2" d="M1326.62,-492C1326.62,-492 1487.12,-492 1487.12,-492 1493.12,-492 1499.12,-498 1499.12,-504 1499.12,-504 1499.12,-566 1499.12,-566 1499.12,-572 1493.12,-578 1487.12,-578 1487.12,-578 1326.62,-578 1326.62,-578 1320.62,-578 1314.62,-572 1314.62,-566 1314.62,-566 1314.62,-504 1314.62,-504 1314.62,-498 1320.62,-492 1326.62,-492"/>
<text text-anchor="middle" x="1406.88" y="-565.45" font-family="Helvetica,sans-Serif" font-weight="bold" font-size="9.00">valueObjects</text>
</g>
<g id="clust12" class="cluster">
<title>cluster_src/infrastructure</title>
<path fill="#ffffff" stroke="black" stroke-width="2" d="M859.38,-16C859.38,-16 1294.62,-16 1294.62,-16 1300.62,-16 1306.62,-22 1306.62,-28 1306.62,-28 1306.62,-202 1306.62,-202 1306.62,-208 1300.62,-214 1294.62,-214 1294.62,-214 859.38,-214 859.38,-214 853.38,-214 847.38,-208 847.38,-202 847.38,-202 847.38,-28 847.38,-28 847.38,-22 853.38,-16 859.38,-16"/>
<text text-anchor="middle" x="1077" y="-201.45" font-family="Helvetica,sans-Serif" font-weight="bold" font-size="9.00">infrastructure</text>
</g>
<g id="clust14" class="cluster">
<title>cluster_src/infrastructure/repository</title>
<path fill="#ffffff" stroke="black" stroke-width="2" d="M981.5,-24C981.5,-24 1148,-24 1148,-24 1154,-24 1160,-30 1160,-36 1160,-36 1160,-98 1160,-98 1160,-104 1154,-110 1148,-110 1148,-110 981.5,-110 981.5,-110 975.5,-110 969.5,-104 969.5,-98 969.5,-98 969.5,-36 969.5,-36 969.5,-30 975.5,-24 981.5,-24"/>
<text text-anchor="middle" x="1064.75" y="-97.45" font-family="Helvetica,sans-Serif" font-weight="bold" font-size="9.00">repository</text>
</g>
<g id="clust13" class="cluster">
<title>cluster_src/infrastructure/database</title>
<path fill="#ffffff" stroke="black" stroke-width="2" d="M1180,-39C1180,-39 1285.5,-39 1285.5,-39 1291.5,-39 1297.5,-45 1297.5,-51 1297.5,-51 1297.5,-82 1297.5,-82 1297.5,-88 1291.5,-94 1285.5,-94 1285.5,-94 1180,-94 1180,-94 1174,-94 1168,-88 1168,-82 1168,-82 1168,-51 1168,-51 1168,-45 1174,-39 1180,-39"/>
<text text-anchor="middle" x="1232.75" y="-81.45" font-family="Helvetica,sans-Serif" font-weight="bold" font-size="9.00">database</text>
</g>
<g id="clust15" class="cluster">
<title>cluster_src/infrastructure/video</title>
<path fill="#ffffff" stroke="black" stroke-width="2" d="M981.5,-118C981.5,-118 1286.62,-118 1286.62,-118 1292.62,-118 1298.62,-124 1298.62,-130 1298.62,-130 1298.62,-175 1298.62,-175 1298.62,-181 1292.62,-187 1286.62,-187 1286.62,-187 981.5,-187 981.5,-187 975.5,-187 969.5,-181 969.5,-175 969.5,-175 969.5,-130 969.5,-130 969.5,-124 975.5,-118 981.5,-118"/>
<text text-anchor="middle" x="1134.06" y="-174.45" font-family="Helvetica,sans-Serif" font-weight="bold" font-size="9.00">video</text>
</g>
<g id="clust16" class="cluster">
<title>cluster_src/stores</title>
<path fill="#ffffff" stroke="black" stroke-width="2" d="M403.25,-184C403.25,-184 479.5,-184 479.5,-184 485.5,-184 491.5,-190 491.5,-196 491.5,-196 491.5,-258 491.5,-258 491.5,-264 485.5,-270 479.5,-270 479.5,-270 403.25,-270 403.25,-270 397.25,-270 391.25,-264 391.25,-258 391.25,-258 391.25,-196 391.25,-196 391.25,-190 397.25,-184 403.25,-184"/>
<text text-anchor="middle" x="441.38" y="-257.45" font-family="Helvetica,sans-Serif" font-weight="bold" font-size="9.00">stores</text>
</g>
<g id="clust17" class="cluster">
<title>cluster_src/views</title>
<path fill="#ffffff" stroke="black" stroke-width="2" d="M157,-215C157,-215 233.25,-215 233.25,-215 239.25,-215 245.25,-221 245.25,-227 245.25,-227 245.25,-289 245.25,-289 245.25,-295 239.25,-301 233.25,-301 233.25,-301 157,-301 157,-301 151,-301 145,-295 145,-289 145,-289 145,-227 145,-227 145,-221 151,-215 157,-215"/>
<text text-anchor="middle" x="195.12" y="-288.45" font-family="Helvetica,sans-Serif" font-weight="bold" font-size="9.00">views</text>
</g>
<!-- src/App.vue -->
<g id="node1" class="node">
<title>src/App.vue</title>
<g id="a_node1"><a xlink:href="src/App.vue" xlink:title="App.vue">
<path fill="#41f083" stroke="black" d="M130.58,-273.62C130.58,-273.62 89.42,-273.62 89.42,-273.62 86.21,-273.62 83,-270.42 83,-267.21 83,-267.21 83,-260.79 83,-260.79 83,-257.58 86.21,-254.38 89.42,-254.38 89.42,-254.38 130.58,-254.38 130.58,-254.38 133.79,-254.38 137,-257.58 137,-260.79 137,-260.79 137,-267.21 137,-267.21 137,-270.42 133.79,-273.62 130.58,-273.62"/>
<text text-anchor="start" x="93.88" y="-261.07" font-family="Helvetica,sans-Serif" font-size="9.00">App.vue</text>
</a>
</g>
</g>
<!-- src/components/utils/DiagnosticsPanel.vue -->
<g id="node2" class="node">
<title>src/components/utils/DiagnosticsPanel.vue</title>
<g id="a_node2"><a xlink:href="src/components/utils/DiagnosticsPanel.vue" xlink:title="DiagnosticsPanel.vue">
<path fill="#41f083" stroke="black" d="M368.83,-376.62C368.83,-376.62 275.67,-376.62 275.67,-376.62 272.46,-376.62 269.25,-373.42 269.25,-370.21 269.25,-370.21 269.25,-363.79 269.25,-363.79 269.25,-360.58 272.46,-357.38 275.67,-357.38 275.67,-357.38 368.83,-357.38 368.83,-357.38 372.04,-357.38 375.25,-360.58 375.25,-363.79 375.25,-363.79 375.25,-370.21 375.25,-370.21 375.25,-373.42 372.04,-376.62 368.83,-376.62"/>
<text text-anchor="start" x="277.25" y="-364.07" font-family="Helvetica,sans-Serif" font-size="9.00">DiagnosticsPanel.vue</text>
</a>
</g>
</g>
<!-- src/App.vue&#45;&gt;src/components/utils/DiagnosticsPanel.vue -->
<g id="edge1" class="edge">
<title>src/App.vue&#45;&gt;src/components/utils/DiagnosticsPanel.vue</title>
<path fill="none" stroke="#000000" stroke-width="2" stroke-opacity="0.200000" d="M117.18,-273.81C123.27,-282.78 133.35,-295.85 145,-304 180.75,-328.99 227.47,-345.1 263.83,-354.76"/>
<polygon fill="#000000" fill-opacity="0.200000" stroke="#000000" stroke-width="2" stroke-opacity="0.200000" points="263.09,-356.74 269.43,-356.21 264.14,-352.68 263.09,-356.74"/>
</g>
<!-- src/views/NavBar.vue -->
<g id="node3" class="node">
<title>src/views/NavBar.vue</title>
<g id="a_node3"><a xlink:href="src/views/NavBar.vue" xlink:title="NavBar.vue">
<path fill="#41f083" stroke="black" d="M219.96,-242.62C219.96,-242.62 170.29,-242.62 170.29,-242.62 167.08,-242.62 163.88,-239.42 163.88,-236.21 163.88,-236.21 163.88,-229.79 163.88,-229.79 163.88,-226.58 167.08,-223.38 170.29,-223.38 170.29,-223.38 219.96,-223.38 219.96,-223.38 223.17,-223.38 226.38,-226.58 226.38,-229.79 226.38,-229.79 226.38,-236.21 226.38,-236.21 226.38,-239.42 223.17,-242.62 219.96,-242.62"/>
<text text-anchor="start" x="171.88" y="-230.07" font-family="Helvetica,sans-Serif" font-size="9.00">NavBar.vue</text>
</a>
</g>
</g>
<!-- src/App.vue&#45;&gt;src/views/NavBar.vue -->
<g id="edge2" class="edge">
<title>src/App.vue&#45;&gt;src/views/NavBar.vue</title>
<path fill="none" stroke="#000000" stroke-width="2" stroke-opacity="0.200000" d="M130.93,-254.04C135.5,-251.92 140.37,-249.78 145,-248 148.23,-246.75 151.61,-245.54 155.02,-244.38"/>
<polygon fill="#000000" fill-opacity="0.200000" stroke="#000000" stroke-width="2" stroke-opacity="0.200000" points="155.57,-246.41 160.62,-242.55 154.26,-242.42 155.57,-246.41"/>
</g>
<!-- src/views/VideoGallery.vue -->
<g id="node4" class="node">
<title>src/views/VideoGallery.vue</title>
<g id="a_node4"><a xlink:href="src/views/VideoGallery.vue" xlink:title="VideoGallery.vue">
<path fill="#41f083" stroke="black" d="M230.83,-273.62C230.83,-273.62 159.42,-273.62 159.42,-273.62 156.21,-273.62 153,-270.42 153,-267.21 153,-267.21 153,-260.79 153,-260.79 153,-257.58 156.21,-254.38 159.42,-254.38 159.42,-254.38 230.83,-254.38 230.83,-254.38 234.04,-254.38 237.25,-257.58 237.25,-260.79 237.25,-260.79 237.25,-267.21 237.25,-267.21 237.25,-270.42 234.04,-273.62 230.83,-273.62"/>
<text text-anchor="start" x="161" y="-261.07" font-family="Helvetica,sans-Serif" font-size="9.00">VideoGallery.vue</text>
</a>
</g>
</g>
<!-- src/App.vue&#45;&gt;src/views/VideoGallery.vue -->
<g id="edge3" class="edge">
<title>src/App.vue&#45;&gt;src/views/VideoGallery.vue</title>
<path fill="none" stroke="#000000" stroke-width="2" stroke-opacity="0.200000" d="M137.3,-264C139.42,-264 141.61,-264 143.83,-264"/>
<polygon fill="#000000" fill-opacity="0.200000" stroke="#000000" stroke-width="2" stroke-opacity="0.200000" points="143.47,-266.1 149.47,-264 143.47,-261.9 143.47,-266.1"/>
</g>
<!-- src/application/index.ts -->
<g id="node5" class="node">
<title>src/application/index.ts</title>
<g id="a_node5"><a xlink:href="src/application/index.ts" xlink:title="index.ts">
<path fill="#ddfeff" stroke="black" d="M555.83,-273.62C555.83,-273.62 514.67,-273.62 514.67,-273.62 511.46,-273.62 508.25,-270.42 508.25,-267.21 508.25,-267.21 508.25,-260.79 508.25,-260.79 508.25,-257.58 511.46,-254.38 514.67,-254.38 514.67,-254.38 555.83,-254.38 555.83,-254.38 559.04,-254.38 562.25,-257.58 562.25,-260.79 562.25,-260.79 562.25,-267.21 562.25,-267.21 562.25,-270.42 559.04,-273.62 555.83,-273.62"/>
<text text-anchor="start" x="519.5" y="-261.07" font-family="Helvetica,sans-Serif" font-size="9.00">index.ts</text>
</a>
</g>
</g>
<!-- src/components/utils/DiagnosticsPanel.vue&#45;&gt;src/application/index.ts -->
<g id="edge21" class="edge">
<title>src/components/utils/DiagnosticsPanel.vue&#45;&gt;src/application/index.ts</title>
<path fill="none" stroke="#000000" stroke-width="2" stroke-opacity="0.200000" d="M362.15,-356.93C369.75,-353.69 377.22,-349.47 383.25,-344 389.14,-338.66 385.51,-333.5 391.25,-328 421.77,-298.76 467.93,-281.44 499.49,-272.34"/>
<polygon fill="#000000" fill-opacity="0.200000" stroke="#000000" stroke-width="2" stroke-opacity="0.200000" points="499.84,-274.42 505.07,-270.79 498.72,-270.37 499.84,-274.42"/>
</g>
<!-- src/stores/appStateStore.ts -->
<g id="node17" class="node">
<title>src/stores/appStateStore.ts</title>
<g id="a_node17"><a xlink:href="src/stores/appStateStore.ts" xlink:title="appStateStore.ts">
<path fill="#ddfeff" stroke="black" d="M477.08,-242.62C477.08,-242.62 405.67,-242.62 405.67,-242.62 402.46,-242.62 399.25,-239.42 399.25,-236.21 399.25,-236.21 399.25,-229.79 399.25,-229.79 399.25,-226.58 402.46,-223.38 405.67,-223.38 405.67,-223.38 477.08,-223.38 477.08,-223.38 480.29,-223.38 483.5,-226.58 483.5,-229.79 483.5,-229.79 483.5,-236.21 483.5,-236.21 483.5,-239.42 480.29,-242.62 477.08,-242.62"/>
<text text-anchor="start" x="407.25" y="-230.07" font-family="Helvetica,sans-Serif" font-size="9.00">appStateStore.ts</text>
</a>
</g>
</g>
<!-- src/components/utils/DiagnosticsPanel.vue&#45;&gt;src/stores/appStateStore.ts -->
<g id="edge22" class="edge">
<title>src/components/utils/DiagnosticsPanel.vue&#45;&gt;src/stores/appStateStore.ts</title>
<path fill="none" stroke="#000000" stroke-width="2" stroke-opacity="0.200000" d="M364.37,-356.93C371.36,-353.72 378.04,-349.51 383.25,-344 391.26,-335.52 386.55,-329.68 391.25,-319 402.14,-294.25 418.19,-267.45 428.95,-250.46"/>
<polygon fill="#000000" fill-opacity="0.200000" stroke="#000000" stroke-width="2" stroke-opacity="0.200000" points="430.65,-251.7 432.12,-245.51 427.12,-249.43 430.65,-251.7"/>
</g>
<!-- src/stores/videosStore.ts -->
<g id="node15" class="node">
<title>src/stores/videosStore.ts</title>
<g id="a_node15"><a xlink:href="src/stores/videosStore.ts" xlink:title="videosStore.ts">
<path fill="#ddfeff" stroke="black" d="M472.21,-211.62C472.21,-211.62 410.54,-211.62 410.54,-211.62 407.33,-211.62 404.12,-208.42 404.12,-205.21 404.12,-205.21 404.12,-198.79 404.12,-198.79 404.12,-195.58 407.33,-192.38 410.54,-192.38 410.54,-192.38 472.21,-192.38 472.21,-192.38 475.42,-192.38 478.62,-195.58 478.62,-198.79 478.62,-198.79 478.62,-205.21 478.62,-205.21 478.62,-208.42 475.42,-211.62 472.21,-211.62"/>
<text text-anchor="start" x="412.12" y="-199.07" font-family="Helvetica,sans-Serif" font-size="9.00">videosStore.ts</text>
</a>
</g>
</g>
<!-- src/views/NavBar.vue&#45;&gt;src/stores/videosStore.ts -->
<g id="edge59" class="edge">
<title>src/views/NavBar.vue&#45;&gt;src/stores/videosStore.ts</title>
<path fill="none" stroke="#000000" stroke-width="2" stroke-opacity="0.200000" d="M226.57,-229.14C268.94,-223.76 346.03,-213.97 395.14,-207.74"/>
<polygon fill="#000000" fill-opacity="0.200000" stroke="#000000" stroke-width="2" stroke-opacity="0.200000" points="395.28,-209.84 400.97,-207 394.75,-205.67 395.28,-209.84"/>
</g>
<!-- src/components/inputs/FileInput.vue -->
<g id="node16" class="node">
<title>src/components/inputs/FileInput.vue</title>
<g id="a_node16"><a xlink:href="src/components/inputs/FileInput.vue" xlink:title="FileInput.vue">
<path fill="#41f083" stroke="black" d="M349.71,-313.62C349.71,-313.62 294.79,-313.62 294.79,-313.62 291.58,-313.62 288.38,-310.42 288.38,-307.21 288.38,-307.21 288.38,-300.79 288.38,-300.79 288.38,-297.58 291.58,-294.38 294.79,-294.38 294.79,-294.38 349.71,-294.38 349.71,-294.38 352.92,-294.38 356.12,-297.58 356.12,-300.79 356.12,-300.79 356.12,-307.21 356.12,-307.21 356.12,-310.42 352.92,-313.62 349.71,-313.62"/>
<text text-anchor="start" x="296.38" y="-301.07" font-family="Helvetica,sans-Serif" font-size="9.00">FileInput.vue</text>
</a>
</g>
</g>
<!-- src/views/NavBar.vue&#45;&gt;src/components/inputs/FileInput.vue -->
<g id="edge57" class="edge">
<title>src/views/NavBar.vue&#45;&gt;src/components/inputs/FileInput.vue</title>
<path fill="none" stroke="#000000" stroke-width="2" stroke-opacity="0.200000" d="M226.63,-240.56C232.94,-242.6 239.43,-245.08 245.25,-248 266.9,-258.88 288.88,-275.86 303.6,-288.28"/>
<polygon fill="#000000" fill-opacity="0.200000" stroke="#000000" stroke-width="2" stroke-opacity="0.200000" points="301.99,-289.67 307.91,-291.98 304.73,-286.48 301.99,-289.67"/>
</g>
<!-- src/views/NavBar.vue&#45;&gt;src/stores/appStateStore.ts -->
<g id="edge58" class="edge">
<title>src/views/NavBar.vue&#45;&gt;src/stores/appStateStore.ts</title>
<path fill="none" stroke="#000000" stroke-width="2" stroke-opacity="0.200000" d="M226.57,-233C267.5,-233 340.81,-233 390.02,-233"/>
<polygon fill="#000000" fill-opacity="0.200000" stroke="#000000" stroke-width="2" stroke-opacity="0.200000" points="389.89,-235.1 395.89,-233 389.89,-230.9 389.89,-235.1"/>
</g>
<!-- src/components/VideoCard.vue -->
<g id="node13" class="node">
<title>src/components/VideoCard.vue</title>
<g id="a_node13"><a xlink:href="src/components/VideoCard.vue" xlink:title="VideoCard.vue">
<path fill="#41f083" stroke="black" d="M353.83,-431.62C353.83,-431.62 290.67,-431.62 290.67,-431.62 287.46,-431.62 284.25,-428.42 284.25,-425.21 284.25,-425.21 284.25,-418.79 284.25,-418.79 284.25,-415.58 287.46,-412.38 290.67,-412.38 290.67,-412.38 353.83,-412.38 353.83,-412.38 357.04,-412.38 360.25,-415.58 360.25,-418.79 360.25,-418.79 360.25,-425.21 360.25,-425.21 360.25,-428.42 357.04,-431.62 353.83,-431.62"/>
<text text-anchor="start" x="292.25" y="-419.07" font-family="Helvetica,sans-Serif" font-size="9.00">VideoCard.vue</text>
</a>
</g>
</g>
<!-- src/views/VideoGallery.vue&#45;&gt;src/components/VideoCard.vue -->
<g id="edge60" class="edge">
<title>src/views/VideoGallery.vue&#45;&gt;src/components/VideoCard.vue</title>
<path fill="none" stroke="#000000" stroke-width="2" stroke-opacity="0.200000" d="M196.97,-273.77C199.75,-299.79 211.06,-371.18 253.25,-407 259.54,-412.34 267.32,-415.9 275.34,-418.25"/>
<polygon fill="#000000" fill-opacity="0.200000" stroke="#000000" stroke-width="2" stroke-opacity="0.200000" points="274.81,-420.28 281.13,-419.64 275.79,-416.2 274.81,-420.28"/>
</g>
<!-- src/views/VideoGallery.vue&#45;&gt;src/stores/videosStore.ts -->
<g id="edge62" class="edge">
<title>src/views/VideoGallery.vue&#45;&gt;src/stores/videosStore.ts</title>
<path fill="none" stroke="#000000" stroke-width="2" stroke-opacity="0.200000" d="M237.5,-255.69C284.11,-246.12 356.82,-230.49 383.25,-221 386.99,-219.66 387.56,-218.47 391.25,-217 392.86,-216.36 394.52,-215.72 396.2,-215.1"/>
<polygon fill="#000000" fill-opacity="0.200000" stroke="#000000" stroke-width="2" stroke-opacity="0.200000" points="396.89,-217.08 401.85,-213.12 395.5,-213.12 396.89,-217.08"/>
</g>
<!-- src/views/VideoGallery.vue&#45;&gt;src/stores/appStateStore.ts -->
<g id="edge61" class="edge">
<title>src/views/VideoGallery.vue&#45;&gt;src/stores/appStateStore.ts</title>
<path fill="none" stroke="#000000" stroke-width="2" stroke-opacity="0.200000" d="M237.4,-264.38C275.57,-264.02 333.72,-261.66 383.25,-252 390.84,-250.52 398.82,-248.31 406.33,-245.91"/>
<polygon fill="#000000" fill-opacity="0.200000" stroke="#000000" stroke-width="2" stroke-opacity="0.200000" points="406.98,-247.9 412,-244 405.65,-243.92 406.98,-247.9"/>
</g>
<!-- src/application/services/FileParserService.ts -->
<g id="node6" class="node">
<title>src/application/services/FileParserService.ts</title>
<g id="a_node6"><a xlink:href="src/application/services/FileParserService.ts" xlink:title="FileParserService.ts">
<path fill="#ddfeff" stroke="black" d="M670.33,-304.62C670.33,-304.62 584.67,-304.62 584.67,-304.62 581.46,-304.62 578.25,-301.42 578.25,-298.21 578.25,-298.21 578.25,-291.79 578.25,-291.79 578.25,-288.58 581.46,-285.38 584.67,-285.38 584.67,-285.38 670.33,-285.38 670.33,-285.38 673.54,-285.38 676.75,-288.58 676.75,-291.79 676.75,-291.79 676.75,-298.21 676.75,-298.21 676.75,-301.42 673.54,-304.62 670.33,-304.62"/>
<text text-anchor="start" x="586.25" y="-292.07" font-family="Helvetica,sans-Serif" font-size="9.00">FileParserService.ts</text>
</a>
</g>
</g>
<!-- src/application/index.ts&#45;&gt;src/application/services/FileParserService.ts -->
<g id="edge4" class="edge">
<title>src/application/index.ts&#45;&gt;src/application/services/FileParserService.ts</title>
<path fill="none" stroke="#000000" stroke-width="2" stroke-opacity="0.200000" d="M556.13,-274.08C560.7,-276.2 565.59,-278.3 585.37,-284.95"/>
<polygon fill="#000000" fill-opacity="0.200000" stroke="#000000" stroke-width="2" stroke-opacity="0.200000" points="588.18,-283.56 592.08,-291.66 583.98,-287.76 588.18,-283.56"/>
</g>
<!-- src/application/services/FiltersService.ts -->
<g id="node7" class="node">
<title>src/application/services/FiltersService.ts</title>
<g id="a_node7"><a xlink:href="src/application/services/FiltersService.ts" xlink:title="FiltersService.ts">
<path fill="#ddfeff" stroke="black" d="M661.71,-335.62C661.71,-335.62 593.29,-335.62 593.29,-335.62 590.08,-335.62 586.88,-332.42 586.88,-329.21 586.88,-329.21 586.88,-322.79 586.88,-322.79 586.88,-319.58 590.08,-316.38 593.29,-316.38 593.29,-316.38 661.71,-316.38 661.71,-316.38 664.92,-316.38 668.12,-319.58 668.12,-322.79 668.12,-322.79 668.12,-329.21 668.12,-329.21 668.12,-332.42 664.92,-335.62 661.71,-335.62"/>
<text text-anchor="start" x="594.88" y="-323.07" font-family="Helvetica,sans-Serif" font-size="9.00">FiltersService.ts</text>
</a>
</g>
</g>
<!-- src/application/index.ts&#45;&gt;src/application/services/FiltersService.ts -->
<g id="edge5" class="edge">
<title>src/application/index.ts&#45;&gt;src/application/services/FiltersService.ts</title>
<path fill="none" stroke="#000000" stroke-width="2" stroke-opacity="0.200000" d="M540.8,-273.83C546.27,-284.58 556.48,-301.53 570.25,-311 572.78,-312.74 575.51,-314.28 578.34,-315.64"/>
<polygon fill="#000000" fill-opacity="0.200000" stroke="#000000" stroke-width="2" stroke-opacity="0.200000" points="577.42,-317.53 583.76,-317.87 579.02,-313.65 577.42,-317.53"/>
</g>
<!-- src/application/services/Hotkeys.ts -->
<g id="node8" class="node">
<title>src/application/services/Hotkeys.ts</title>
<g id="a_node8"><a xlink:href="src/application/services/Hotkeys.ts" xlink:title="Hotkeys.ts">
<path fill="#ddfeff" stroke="black" d="M650.46,-273.62C650.46,-273.62 604.54,-273.62 604.54,-273.62 601.33,-273.62 598.12,-270.42 598.12,-267.21 598.12,-267.21 598.12,-260.79 598.12,-260.79 598.12,-257.58 601.33,-254.38 604.54,-254.38 604.54,-254.38 650.46,-254.38 650.46,-254.38 653.67,-254.38 656.88,-257.58 656.88,-260.79 656.88,-260.79 656.88,-267.21 656.88,-267.21 656.88,-270.42 653.67,-273.62 650.46,-273.62"/>
<text text-anchor="start" x="606.12" y="-261.07" font-family="Helvetica,sans-Serif" font-size="9.00">Hotkeys.ts</text>
</a>
</g>
</g>
<!-- src/application/index.ts&#45;&gt;src/application/services/Hotkeys.ts -->
<g id="edge6" class="edge">
<title>src/application/index.ts&#45;&gt;src/application/services/Hotkeys.ts</title>
<path fill="none" stroke="#000000" stroke-width="2" stroke-opacity="0.200000" d="M562.35,-264C573.49,-264 586.53,-264 597.93,-264"/>
<polygon fill="#000000" fill-opacity="0.200000" stroke="#000000" stroke-width="2" stroke-opacity="0.200000" points="600.73,-262.61 604.63,-270.71 596.53,-266.81 600.73,-262.61"/>
</g>
<!-- src/application/services/VideoMetadataService.ts -->
<g id="node9" class="node">
<title>src/application/services/VideoMetadataService.ts</title>
<g id="a_node9"><a xlink:href="src/application/services/VideoMetadataService.ts" xlink:title="VideoMetadataService.ts">
<path fill="#ddfeff" stroke="black" d="M799.83,-273.62C799.83,-273.62 696.17,-273.62 696.17,-273.62 692.96,-273.62 689.75,-270.42 689.75,-267.21 689.75,-267.21 689.75,-260.79 689.75,-260.79 689.75,-257.58 692.96,-254.38 696.17,-254.38 696.17,-254.38 799.83,-254.38 799.83,-254.38 803.04,-254.38 806.25,-257.58 806.25,-260.79 806.25,-260.79 806.25,-267.21 806.25,-267.21 806.25,-270.42 803.04,-273.62 799.83,-273.62"/>
<text text-anchor="start" x="697.75" y="-261.07" font-family="Helvetica,sans-Serif" font-size="9.00">VideoMetadataService.ts</text>
</a>
</g>
</g>
<!-- src/application/index.ts&#45;&gt;src/application/services/VideoMetadataService.ts -->
<g id="edge7" class="edge">
<title>src/application/index.ts&#45;&gt;src/application/services/VideoMetadataService.ts</title>
<path fill="none" stroke="#000000" stroke-width="2" stroke-opacity="0.200000" d="M553.72,-253.99C558.88,-251.53 564.65,-249.25 570.25,-248 613.77,-238.27 664.58,-244.66 700.52,-252.05"/>
<polygon fill="#000000" fill-opacity="0.200000" stroke="#000000" stroke-width="2" stroke-opacity="0.200000" points="700.06,-254.1 706.37,-253.3 700.94,-249.99 700.06,-254.1"/>
</g>
<!-- src/application/services/FileParserService.ts&#45;&gt;src/application/services/VideoMetadataService.ts -->
<g id="edge8" class="edge">
<title>src/application/services/FileParserService.ts&#45;&gt;src/application/services/VideoMetadataService.ts</title>
<path fill="none" stroke="#000000" stroke-width="2" stroke-opacity="0.200000" d="M666.97,-284.94C677.43,-282.2 688.86,-279.21 699.74,-276.36"/>
<polygon fill="#000000" fill-opacity="0.200000" stroke="#000000" stroke-width="2" stroke-opacity="0.200000" points="700.11,-278.44 705.39,-274.89 699.05,-274.37 700.11,-278.44"/>
</g>
<!-- src/domain/index.ts -->
<g id="node10" class="node">
<title>src/domain/index.ts</title>
<g id="a_node10"><a xlink:href="src/domain/index.ts" xlink:title="index.ts">
<path fill="#ddfeff" stroke="black" d="M1253.33,-303.62C1253.33,-303.62 1212.17,-303.62 1212.17,-303.62 1208.96,-303.62 1205.75,-300.42 1205.75,-297.21 1205.75,-297.21 1205.75,-290.79 1205.75,-290.79 1205.75,-287.58 1208.96,-284.38 1212.17,-284.38 1212.17,-284.38 1253.33,-284.38 1253.33,-284.38 1256.54,-284.38 1259.75,-287.58 1259.75,-290.79 1259.75,-290.79 1259.75,-297.21 1259.75,-297.21 1259.75,-300.42 1256.54,-303.62 1253.33,-303.62"/>
<text text-anchor="start" x="1217" y="-291.07" font-family="Helvetica,sans-Serif" font-size="9.00">index.ts</text>
</a>
</g>
</g>
<!-- src/application/services/FileParserService.ts&#45;&gt;src/domain/index.ts -->
<g id="edge9" class="edge">
<title>src/application/services/FileParserService.ts&#45;&gt;src/domain/index.ts</title>
<path fill="none" stroke="#000000" stroke-opacity="0.200000" d="M676.97,-296.83C727.87,-298.6 810.23,-301 881.38,-301 881.38,-301 881.38,-301 1005.5,-301 1073.85,-301 1153.77,-297.77 1197.98,-295.7"/>
<polygon fill="none" stroke="#000000" stroke-opacity="0.200000" points="1197.88,-297.8 1203.77,-295.42 1197.68,-293.61 1197.88,-297.8"/>
</g>
<!-- src/infrastructure/index.ts -->
<g id="node11" class="node">
<title>src/infrastructure/index.ts</title>
<g id="a_node11"><a xlink:href="src/infrastructure/index.ts" xlink:title="index.ts">
<path fill="#ddfeff" stroke="black" d="M902.96,-186.62C902.96,-186.62 861.79,-186.62 861.79,-186.62 858.58,-186.62 855.38,-183.42 855.38,-180.21 855.38,-180.21 855.38,-173.79 855.38,-173.79 855.38,-170.58 858.58,-167.38 861.79,-167.38 861.79,-167.38 902.96,-167.38 902.96,-167.38 906.17,-167.38 909.38,-170.58 909.38,-173.79 909.38,-173.79 909.38,-180.21 909.38,-180.21 909.38,-183.42 906.17,-186.62 902.96,-186.62"/>
<text text-anchor="start" x="866.62" y="-174.07" font-family="Helvetica,sans-Serif" font-size="9.00">index.ts</text>
</a>
</g>
</g>
<!-- src/application/services/FileParserService.ts&#45;&gt;src/infrastructure/index.ts -->
<g id="edge10" class="edge">
<title>src/application/services/FileParserService.ts&#45;&gt;src/infrastructure/index.ts</title>
<path fill="none" stroke="#000000" stroke-width="2" stroke-opacity="0.200000" d="M669.93,-285.01C672.38,-283.56 674.68,-281.9 676.75,-280 688.05,-269.61 678.73,-258.69 689.75,-248 712.59,-225.86 797.47,-199.89 846.26,-186.33"/>
<polygon fill="#000000" fill-opacity="0.200000" stroke="#000000" stroke-width="2" stroke-opacity="0.200000" points="846.78,-188.37 852.01,-184.75 845.67,-184.32 846.78,-188.37"/>
</g>
<!-- src/application/services/FiltersService.ts&#45;&gt;src/domain/index.ts -->
<g id="edge11" class="edge">
<title>src/application/services/FiltersService.ts&#45;&gt;src/domain/index.ts</title>
<path fill="none" stroke="#000000" stroke-opacity="0.200000" d="M668.35,-324.73C718.17,-323.24 806.07,-321 881.38,-321 881.38,-321 881.38,-321 1005.5,-321 1074.31,-321 1154.06,-308.54 1198.12,-300.54"/>
<polygon fill="none" stroke="#000000" stroke-opacity="0.200000" points="1198.39,-302.63 1203.91,-299.48 1197.63,-298.5 1198.39,-302.63"/>
</g>
<!-- src/application/services/VideoMetadataService.ts&#45;&gt;src/domain/index.ts -->
<g id="edge13" class="edge">
<title>src/application/services/VideoMetadataService.ts&#45;&gt;src/domain/index.ts</title>
<path fill="none" stroke="#000000" stroke-opacity="0.200000" d="M787.05,-274.05C797.42,-276.41 808.71,-278.63 819.25,-280 959.12,-298.13 1127.76,-296.66 1198.24,-295.01"/>
<polygon fill="none" stroke="#000000" stroke-opacity="0.200000" points="1198.09,-297.11 1204.04,-294.87 1197.99,-292.91 1198.09,-297.11"/>
</g>
<!-- src/application/services/VideoMetadataService.ts&#45;&gt;src/infrastructure/index.ts -->
<g id="edge14" class="edge">
<title>src/application/services/VideoMetadataService.ts&#45;&gt;src/infrastructure/index.ts</title>
<path fill="none" stroke="#000000" stroke-width="2" stroke-opacity="0.200000" d="M782.95,-253.89C790.86,-250.91 799.06,-247.27 806.25,-243 829.55,-229.16 852.36,-207.66 866.62,-192.98"/>
<polygon fill="#000000" fill-opacity="0.200000" stroke="#000000" stroke-width="2" stroke-opacity="0.200000" points="867.84,-194.76 870.46,-188.97 864.8,-191.86 867.84,-194.76"/>
</g>
<!-- src/application/services/VideoStorageDtoMapper.ts -->
<g id="node12" class="node">
<title>src/application/services/VideoStorageDtoMapper.ts</title>
<g id="a_node12"><a xlink:href="src/application/services/VideoStorageDtoMapper.ts" xlink:title="VideoStorageDtoMapper.ts">
<path fill="#ddfeff" stroke="black" d="M939.08,-273.62C939.08,-273.62 825.67,-273.62 825.67,-273.62 822.46,-273.62 819.25,-270.42 819.25,-267.21 819.25,-267.21 819.25,-260.79 819.25,-260.79 819.25,-257.58 822.46,-254.38 825.67,-254.38 825.67,-254.38 939.08,-254.38 939.08,-254.38 942.29,-254.38 945.5,-257.58 945.5,-260.79 945.5,-260.79 945.5,-267.21 945.5,-267.21 945.5,-270.42 942.29,-273.62 939.08,-273.62"/>
<text text-anchor="start" x="827.25" y="-261.07" font-family="Helvetica,sans-Serif" font-size="9.00">VideoStorageDtoMapper.ts</text>
</a>
</g>
</g>
<!-- src/application/services/VideoMetadataService.ts&#45;&gt;src/application/services/VideoStorageDtoMapper.ts -->
<g id="edge12" class="edge">
<title>src/application/services/VideoMetadataService.ts&#45;&gt;src/application/services/VideoStorageDtoMapper.ts</title>
<path fill="none" stroke="#000000" stroke-width="2" stroke-opacity="0.200000" d="M806.68,-264C807.81,-264 808.95,-264 810.09,-264"/>
<polygon fill="#000000" fill-opacity="0.200000" stroke="#000000" stroke-width="2" stroke-opacity="0.200000" points="809.84,-266.1 815.84,-264 809.84,-261.9 809.84,-266.1"/>
</g>
<!-- src/domain/constants/index.ts -->
<g id="node18" class="node">
<title>src/domain/constants/index.ts</title>
<g id="a_node18"><a xlink:href="src/domain/constants/index.ts" xlink:title="index.ts">
<path fill="#ddfeff" stroke="black" d="M1370.21,-257.62C1370.21,-257.62 1329.04,-257.62 1329.04,-257.62 1325.83,-257.62 1322.62,-254.42 1322.62,-251.21 1322.62,-251.21 1322.62,-244.79 1322.62,-244.79 1322.62,-241.58 1325.83,-238.38 1329.04,-238.38 1329.04,-238.38 1370.21,-238.38 1370.21,-238.38 1373.42,-238.38 1376.62,-241.58 1376.62,-244.79 1376.62,-244.79 1376.62,-251.21 1376.62,-251.21 1376.62,-254.42 1373.42,-257.62 1370.21,-257.62"/>
<text text-anchor="start" x="1333.88" y="-245.07" font-family="Helvetica,sans-Serif" font-size="9.00">index.ts</text>
</a>
</g>
</g>
<!-- src/domain/index.ts&#45;&gt;src/domain/constants/index.ts -->
<g id="edge30" class="edge">
<title>src/domain/index.ts&#45;&gt;src/domain/constants/index.ts</title>
<path fill="none" stroke="#000000" stroke-width="2" stroke-opacity="0.200000" d="M1258.96,-283.91C1278.11,-276.24 1304.34,-265.74 1323.47,-258.07"/>
<polygon fill="#000000" fill-opacity="0.200000" stroke="#000000" stroke-width="2" stroke-opacity="0.200000" points="1326.28,-256.68 1330.18,-264.78 1322.08,-260.88 1326.28,-256.68"/>
</g>
<!-- src/domain/entities/index.ts -->
<g id="node23" class="node">
<title>src/domain/entities/index.ts</title>
<g id="a_node23"><a xlink:href="src/domain/entities/index.ts" xlink:title="index.ts">
<path fill="#ddfeff" stroke="black" d="M1370.21,-334.62C1370.21,-334.62 1329.04,-334.62 1329.04,-334.62 1325.83,-334.62 1322.62,-331.42 1322.62,-328.21 1322.62,-328.21 1322.62,-321.79 1322.62,-321.79 1322.62,-318.58 1325.83,-315.38 1329.04,-315.38 1329.04,-315.38 1370.21,-315.38 1370.21,-315.38 1373.42,-315.38 1376.62,-318.58 1376.62,-321.79 1376.62,-321.79 1376.62,-328.21 1376.62,-328.21 1376.62,-331.42 1373.42,-334.62 1370.21,-334.62"/>
<text text-anchor="start" x="1333.88" y="-322.07" font-family="Helvetica,sans-Serif" font-size="9.00">index.ts</text>
</a>
</g>
</g>
<!-- src/domain/index.ts&#45;&gt;src/domain/entities/index.ts -->
<g id="edge31" class="edge">
<title>src/domain/index.ts&#45;&gt;src/domain/entities/index.ts</title>
<path fill="none" stroke="#000000" stroke-opacity="0.200000" d="M1260.1,-301.11C1276.6,-305.56 1297.98,-311.33 1315.6,-316.09"/>
<polygon fill="none" stroke="#000000" stroke-opacity="0.200000" points="1314.59,-317.99 1320.93,-317.53 1315.69,-313.94 1314.59,-317.99"/>
</g>
<!-- src/domain/repositories/index.ts -->
<g id="node24" class="node">
<title>src/domain/repositories/index.ts</title>
<g id="a_node24"><a xlink:href="src/domain/repositories/index.ts" xlink:title="index.ts">
<path fill="#ddfeff" stroke="black" d="M1462.46,-425.62C1462.46,-425.62 1421.29,-425.62 1421.29,-425.62 1418.08,-425.62 1414.88,-422.42 1414.88,-419.21 1414.88,-419.21 1414.88,-412.79 1414.88,-412.79 1414.88,-409.58 1418.08,-406.38 1421.29,-406.38 1421.29,-406.38 1462.46,-406.38 1462.46,-406.38 1465.67,-406.38 1468.88,-409.58 1468.88,-412.79 1468.88,-412.79 1468.88,-419.21 1468.88,-419.21 1468.88,-422.42 1465.67,-425.62 1462.46,-425.62"/>
<text text-anchor="start" x="1426.12" y="-413.07" font-family="Helvetica,sans-Serif" font-size="9.00">index.ts</text>
</a>
</g>
</g>
<!-- src/domain/index.ts&#45;&gt;src/domain/repositories/index.ts -->
<g id="edge32" class="edge">
<title>src/domain/index.ts&#45;&gt;src/domain/repositories/index.ts</title>
<path fill="none" stroke="#000000" stroke-opacity="0.200000" d="M1238.82,-304.12C1249.66,-324.61 1277.16,-370.9 1314.62,-393 1342.86,-409.66 1380.36,-414.77 1407.13,-416.1"/>
<polygon fill="none" stroke="#000000" stroke-opacity="0.200000" points="1406.79,-418.19 1412.87,-416.32 1406.96,-413.99 1406.79,-418.19"/>
</g>
<!-- src/domain/valueObjects/index.ts -->
<g id="node25" class="node">
<title>src/domain/valueObjects/index.ts</title>
<g id="a_node25"><a xlink:href="src/domain/valueObjects/index.ts" xlink:title="index.ts">
<path fill="#ddfeff" stroke="black" d="M1370.21,-519.62C1370.21,-519.62 1329.04,-519.62 1329.04,-519.62 1325.83,-519.62 1322.62,-516.42 1322.62,-513.21 1322.62,-513.21 1322.62,-506.79 1322.62,-506.79 1322.62,-503.58 1325.83,-500.38 1329.04,-500.38 1329.04,-500.38 1370.21,-500.38 1370.21,-500.38 1373.42,-500.38 1376.62,-503.58 1376.62,-506.79 1376.62,-506.79 1376.62,-513.21 1376.62,-513.21 1376.62,-516.42 1373.42,-519.62 1370.21,-519.62"/>
<text text-anchor="start" x="1333.88" y="-507.07" font-family="Helvetica,sans-Serif" font-size="9.00">index.ts</text>
</a>
</g>
</g>
<!-- src/domain/index.ts&#45;&gt;src/domain/valueObjects/index.ts -->
<g id="edge33" class="edge">
<title>src/domain/index.ts&#45;&gt;src/domain/valueObjects/index.ts</title>
<path fill="none" stroke="#000000" stroke-width="2" stroke-opacity="0.200000" d="M1234.97,-303.89C1239.45,-336 1257.74,-438.56 1322.37,-501.8"/>
<polygon fill="#000000" fill-opacity="0.200000" stroke="#000000" stroke-width="2" stroke-opacity="0.200000" points="1325.18,-500.41 1329.08,-508.51 1320.98,-504.61 1325.18,-500.41"/>
</g>
<!-- src/infrastructure/repository/index.ts -->
<g id="node31" class="node">
<title>src/infrastructure/repository/index.ts</title>
<g id="a_node31"><a xlink:href="src/infrastructure/repository/index.ts" xlink:title="index.ts">
<path fill="#ddfeff" stroke="black" d="M1025.08,-82.62C1025.08,-82.62 983.92,-82.62 983.92,-82.62 980.71,-82.62 977.5,-79.42 977.5,-76.21 977.5,-76.21 977.5,-69.79 977.5,-69.79 977.5,-66.58 980.71,-63.38 983.92,-63.38 983.92,-63.38 1025.08,-63.38 1025.08,-63.38 1028.29,-63.38 1031.5,-66.58 1031.5,-69.79 1031.5,-69.79 1031.5,-76.21 1031.5,-76.21 1031.5,-79.42 1028.29,-82.62 1025.08,-82.62"/>
<text text-anchor="start" x="988.75" y="-70.08" font-family="Helvetica,sans-Serif" font-size="9.00">index.ts</text>
</a>
</g>
</g>
<!-- src/infrastructure/index.ts&#45;&gt;src/infrastructure/repository/index.ts -->
<g id="edge40" class="edge">
<title>src/infrastructure/index.ts&#45;&gt;src/infrastructure/repository/index.ts</title>
<path fill="none" stroke="#000000" stroke-width="2" stroke-opacity="0.200000" d="M894.89,-167.03C917.8,-147.2 968.82,-103.02 991.84,-83.09"/>
<polygon fill="#000000" fill-opacity="0.200000" stroke="#000000" stroke-width="2" stroke-opacity="0.200000" points="994.65,-81.7 998.55,-89.8 990.45,-85.9 994.65,-81.7"/>
</g>
<!-- src/infrastructure/video/index.ts -->
<g id="node32" class="node">
<title>src/infrastructure/video/index.ts</title>
<g id="a_node32"><a xlink:href="src/infrastructure/video/index.ts" xlink:title="index.ts">
<path fill="#ddfeff" stroke="black" d="M1025.08,-159.62C1025.08,-159.62 983.92,-159.62 983.92,-159.62 980.71,-159.62 977.5,-156.42 977.5,-153.21 977.5,-153.21 977.5,-146.79 977.5,-146.79 977.5,-143.58 980.71,-140.38 983.92,-140.38 983.92,-140.38 1025.08,-140.38 1025.08,-140.38 1028.29,-140.38 1031.5,-143.58 1031.5,-146.79 1031.5,-146.79 1031.5,-153.21 1031.5,-153.21 1031.5,-156.42 1028.29,-159.62 1025.08,-159.62"/>
<text text-anchor="start" x="988.75" y="-147.07" font-family="Helvetica,sans-Serif" font-size="9.00">index.ts</text>
</a>
</g>
</g>
<!-- src/infrastructure/index.ts&#45;&gt;src/infrastructure/video/index.ts -->
<g id="edge41" class="edge">
<title>src/infrastructure/index.ts&#45;&gt;src/infrastructure/video/index.ts</title>
<path fill="none" stroke="#000000" stroke-width="2" stroke-opacity="0.200000" d="M909.74,-171.07C929.77,-166.57 957.19,-160.41 977.2,-155.91"/>
<polygon fill="#000000" fill-opacity="0.200000" stroke="#000000" stroke-width="2" stroke-opacity="0.200000" points="980.01,-154.52 983.91,-162.62 975.81,-158.72 980.01,-154.52"/>
</g>
<!-- src/application/services/VideoStorageDtoMapper.ts&#45;&gt;src/domain/index.ts -->
<g id="edge15" class="edge">
<title>src/application/services/VideoStorageDtoMapper.ts&#45;&gt;src/domain/index.ts</title>
<path fill="none" stroke="#000000" stroke-opacity="0.200000" d="M945.86,-266.8C1002.01,-269.67 1086.68,-274.88 1160,-283 1172.55,-284.39 1186.27,-286.38 1198.32,-288.28"/>
<polygon fill="none" stroke="#000000" stroke-opacity="0.200000" points="1197.83,-290.33 1204.08,-289.21 1198.49,-286.18 1197.83,-290.33"/>
</g>
<!-- src/components/VideoCard.vue&#45;&gt;src/domain/index.ts -->
<g id="edge17" class="edge">
<title>src/components/VideoCard.vue&#45;&gt;src/domain/index.ts</title>
<path fill="none" stroke="#000000" stroke-opacity="0.200000" d="M360.6,-422C402.77,-422 473.44,-422 534.25,-422 534.25,-422 534.25,-422 1005.5,-422 1077.15,-422 1099.71,-414.7 1160,-376 1186.8,-358.8 1209.37,-328.77 1221.7,-310.21"/>
<polygon fill="none" stroke="#000000" stroke-opacity="0.200000" points="1223.44,-311.39 1224.94,-305.21 1219.91,-309.1 1223.44,-311.39"/>
</g>
<!-- src/components/VideoEmbed.vue -->
<g id="node14" class="node">
<title>src/components/VideoEmbed.vue</title>
<g id="a_node14"><a xlink:href="src/components/VideoEmbed.vue" xlink:title="VideoEmbed.vue">
<path fill="#41f083" stroke="black" d="M477.83,-408.62C477.83,-408.62 404.92,-408.62 404.92,-408.62 401.71,-408.62 398.5,-405.42 398.5,-402.21 398.5,-402.21 398.5,-395.79 398.5,-395.79 398.5,-392.58 401.71,-389.38 404.92,-389.38 404.92,-389.38 477.83,-389.38 477.83,-389.38 481.04,-389.38 484.25,-392.58 484.25,-395.79 484.25,-395.79 484.25,-402.21 484.25,-402.21 484.25,-405.42 481.04,-408.62 477.83,-408.62"/>
<text text-anchor="start" x="406.5" y="-396.07" font-family="Helvetica,sans-Serif" font-size="9.00">VideoEmbed.vue</text>
</a>
</g>
</g>
<!-- src/components/VideoCard.vue&#45;&gt;src/components/VideoEmbed.vue -->
<g id="edge16" class="edge">
<title>src/components/VideoCard.vue&#45;&gt;src/components/VideoEmbed.vue</title>
<path fill="none" stroke="#000000" stroke-width="2" stroke-opacity="0.200000" d="M360.63,-414.66C369.75,-412.87 379.67,-410.92 389.31,-409.03"/>
<polygon fill="#000000" fill-opacity="0.200000" stroke="#000000" stroke-width="2" stroke-opacity="0.200000" points="389.6,-411.11 395.09,-407.89 388.8,-406.99 389.6,-411.11"/>
</g>
<!-- src/components/VideoCard.vue&#45;&gt;src/stores/videosStore.ts -->
<g id="edge18" class="edge">
<title>src/components/VideoCard.vue&#45;&gt;src/stores/videosStore.ts</title>
<path fill="none" stroke="#000000" stroke-width="2" stroke-opacity="0.200000" d="M360.7,-420.17C369.33,-417.91 377.62,-413.91 383.25,-407 396.6,-390.62 378.32,-233.71 391.25,-217 392.68,-215.15 394.34,-213.52 396.15,-212.08"/>
<polygon fill="#000000" fill-opacity="0.200000" stroke="#000000" stroke-width="2" stroke-opacity="0.200000" points="397.18,-213.92 401.24,-209.03 395.02,-210.32 397.18,-213.92"/>
</g>
<!-- src/components/VideoEmbed.vue&#45;&gt;src/domain/index.ts -->
<g id="edge19" class="edge">
<title>src/components/VideoEmbed.vue&#45;&gt;src/domain/index.ts</title>
<path fill="none" stroke="#000000" stroke-opacity="0.200000" d="M484.42,-399C521.74,-399 577.75,-399 626.5,-399 626.5,-399 626.5,-399 1005.5,-399 1090.24,-399 1177.62,-337.65 1214.1,-308.74"/>
<polygon fill="none" stroke="#000000" stroke-opacity="0.200000" points="1215.37,-310.41 1218.73,-305.02 1212.74,-307.14 1215.37,-310.41"/>
</g>
<!-- src/stores/videosStore.ts&#45;&gt;src/application/index.ts -->
<g id="edge54" class="edge">
<title>src/stores/videosStore.ts&#45;&gt;src/application/index.ts</title>
<path fill="none" stroke="#000000" stroke-width="2" stroke-opacity="0.200000" d="M478.97,-210.17C483.65,-212.02 488.2,-214.27 492.25,-217 496.97,-220.19 496.54,-222.68 500.25,-227 506.17,-233.91 512.91,-241.32 518.82,-247.69"/>
<polygon fill="#000000" fill-opacity="0.200000" stroke="#000000" stroke-width="2" stroke-opacity="0.200000" points="517.13,-248.96 522.76,-251.91 520.19,-246.09 517.13,-248.96"/>
</g>
<!-- src/stores/videosStore.ts&#45;&gt;src/domain/index.ts -->
<g id="edge55" class="edge">
<title>src/stores/videosStore.ts&#45;&gt;src/domain/index.ts</title>
<path fill="none" stroke="#000000" stroke-opacity="0.200000" d="M478.92,-208.64C515.97,-214.8 575.02,-223 626.5,-223 626.5,-223 626.5,-223 1005.5,-223 1081.58,-223 1165.73,-260 1206.64,-280.58"/>
<polygon fill="none" stroke="#000000" stroke-opacity="0.200000" points="1205.65,-282.43 1211.95,-283.29 1207.56,-278.69 1205.65,-282.43"/>
</g>
<!-- src/stores/videosStore.ts&#45;&gt;src/infrastructure/index.ts -->
<g id="edge56" class="edge">
<title>src/stores/videosStore.ts&#45;&gt;src/infrastructure/index.ts</title>
<path fill="none" stroke="#000000" stroke-width="2" stroke-opacity="0.200000" d="M479.05,-199.91C562.19,-195.18 764.12,-183.68 846,-179.01"/>
<polygon fill="#000000" fill-opacity="0.200000" stroke="#000000" stroke-width="2" stroke-opacity="0.200000" points="846.03,-181.12 851.9,-178.68 845.79,-176.92 846.03,-181.12"/>
</g>
<!-- src/components/inputs/FileInput.vue&#45;&gt;src/stores/videosStore.ts -->
<g id="edge20" class="edge">
<title>src/components/inputs/FileInput.vue&#45;&gt;src/stores/videosStore.ts</title>
<path fill="none" stroke="#000000" stroke-width="2" stroke-opacity="0.200000" d="M339.84,-293.94C353.59,-284.73 372.54,-269.85 383.25,-252 391.46,-238.32 380.38,-228.68 391.25,-217 392.79,-215.34 394.51,-213.87 396.36,-212.55"/>
<polygon fill="#000000" fill-opacity="0.200000" stroke="#000000" stroke-width="2" stroke-opacity="0.200000" points="397.17,-214.51 401.36,-209.73 395.1,-210.85 397.17,-214.51"/>
</g>
<!-- src/stores/appStateStore.ts&#45;&gt;src/application/index.ts -->
<g id="edge53" class="edge">
<title>src/stores/appStateStore.ts&#45;&gt;src/application/index.ts</title>
<path fill="none" stroke="#000000" stroke-width="2" stroke-opacity="0.200000" d="M472.2,-243.06C480.94,-246.01 490.56,-249.26 499.57,-252.3"/>
<polygon fill="#000000" fill-opacity="0.200000" stroke="#000000" stroke-width="2" stroke-opacity="0.200000" points="498.75,-254.24 505.11,-254.17 500.09,-250.26 498.75,-254.24"/>
</g>
<!-- src/domain/entities/MetadataEntity.ts -->
<g id="node19" class="node">
<title>src/domain/entities/MetadataEntity.ts</title>
<g id="a_node19"><a xlink:href="src/domain/entities/MetadataEntity.ts" xlink:title="MetadataEntity.ts">
<path fill="#ddfeff" stroke="black" d="M1711.46,-331.62C1711.46,-331.62 1639.29,-331.62 1639.29,-331.62 1636.08,-331.62 1632.88,-328.42 1632.88,-325.21 1632.88,-325.21 1632.88,-318.79 1632.88,-318.79 1632.88,-315.58 1636.08,-312.38 1639.29,-312.38 1639.29,-312.38 1711.46,-312.38 1711.46,-312.38 1714.67,-312.38 1717.88,-315.58 1717.88,-318.79 1717.88,-318.79 1717.88,-325.21 1717.88,-325.21 1717.88,-328.42 1714.67,-331.62 1711.46,-331.62"/>
<text text-anchor="start" x="1640.88" y="-319.07" font-family="Helvetica,sans-Serif" font-size="9.00">MetadataEntity.ts</text>
</a>
</g>
</g>
<!-- src/domain/entities/ParsedVideo.ts -->
<g id="node20" class="node">
<title>src/domain/entities/ParsedVideo.ts</title>
<g id="a_node20"><a xlink:href="src/domain/entities/ParsedVideo.ts" xlink:title="ParsedVideo.ts">
<path fill="#ddfeff" stroke="black" d="M1474.96,-334.62C1474.96,-334.62 1408.79,-334.62 1408.79,-334.62 1405.58,-334.62 1402.38,-331.42 1402.38,-328.21 1402.38,-328.21 1402.38,-321.79 1402.38,-321.79 1402.38,-318.58 1405.58,-315.38 1408.79,-315.38 1408.79,-315.38 1474.96,-315.38 1474.96,-315.38 1478.17,-315.38 1481.38,-318.58 1481.38,-321.79 1481.38,-321.79 1481.38,-328.21 1481.38,-328.21 1481.38,-331.42 1478.17,-334.62 1474.96,-334.62"/>
<text text-anchor="start" x="1410.38" y="-322.07" font-family="Helvetica,sans-Serif" font-size="9.00">ParsedVideo.ts</text>
</a>
</g>
</g>
<!-- src/domain/entities/VideoStorageDto.ts -->
<g id="node21" class="node">
<title>src/domain/entities/VideoStorageDto.ts</title>
<g id="a_node21"><a xlink:href="src/domain/entities/VideoStorageDto.ts" xlink:title="VideoStorageDto.ts">
<path fill="#ddfeff" stroke="black" d="M1603.33,-341.62C1603.33,-341.62 1520.67,-341.62 1520.67,-341.62 1517.46,-341.62 1514.25,-338.42 1514.25,-335.21 1514.25,-335.21 1514.25,-328.79 1514.25,-328.79 1514.25,-325.58 1517.46,-322.38 1520.67,-322.38 1520.67,-322.38 1603.33,-322.38 1603.33,-322.38 1606.54,-322.38 1609.75,-325.58 1609.75,-328.79 1609.75,-328.79 1609.75,-335.21 1609.75,-335.21 1609.75,-338.42 1606.54,-341.62 1603.33,-341.62"/>
<text text-anchor="start" x="1522.25" y="-329.07" font-family="Helvetica,sans-Serif" font-size="9.00">VideoStorageDto.ts</text>
</a>
</g>
</g>
<!-- src/domain/entities/ParsedVideo.ts&#45;&gt;src/domain/entities/VideoStorageDto.ts -->
<g id="edge23" class="edge">
<title>src/domain/entities/ParsedVideo.ts&#45;&gt;src/domain/entities/VideoStorageDto.ts</title>
<path fill="none" stroke="#000000" stroke-opacity="0.200000" d="M1481.55,-327.29C1489.57,-327.77 1498.15,-328.28 1506.61,-328.78"/>
<polygon fill="none" stroke="#000000" stroke-opacity="0.200000" points="1506.37,-330.87 1512.48,-329.12 1506.61,-326.67 1506.37,-330.87"/>
</g>
<!-- src/domain/entities/VideoStorageDto.ts&#45;&gt;src/domain/entities/MetadataEntity.ts -->
<g id="edge24" class="edge">
<title>src/domain/entities/VideoStorageDto.ts&#45;&gt;src/domain/entities/MetadataEntity.ts</title>
<path fill="none" stroke="#000000" stroke-opacity="0.200000" d="M1610.23,-327.76C1615.25,-327.31 1620.36,-326.85 1625.4,-326.4"/>
<polygon fill="none" stroke="#000000" stroke-opacity="0.200000" points="1625.42,-328.5 1631.21,-325.88 1625.04,-324.32 1625.42,-328.5"/>
</g>
<!-- src/domain/entities/VideoEntity.ts -->
<g id="node22" class="node">
<title>src/domain/entities/VideoEntity.ts</title>
<g id="a_node22"><a xlink:href="src/domain/entities/VideoEntity.ts" xlink:title="VideoEntity.ts">
<path fill="#ddfeff" stroke="black" d="M1704.33,-362.62C1704.33,-362.62 1646.42,-362.62 1646.42,-362.62 1643.21,-362.62 1640,-359.42 1640,-356.21 1640,-356.21 1640,-349.79 1640,-349.79 1640,-346.58 1643.21,-343.38 1646.42,-343.38 1646.42,-343.38 1704.33,-343.38 1704.33,-343.38 1707.54,-343.38 1710.75,-346.58 1710.75,-349.79 1710.75,-349.79 1710.75,-356.21 1710.75,-356.21 1710.75,-359.42 1707.54,-362.62 1704.33,-362.62"/>
<text text-anchor="start" x="1648" y="-350.07" font-family="Helvetica,sans-Serif" font-size="9.00">VideoEntity.ts</text>
</a>
</g>
</g>
<!-- src/domain/entities/VideoStorageDto.ts&#45;&gt;src/domain/entities/VideoEntity.ts -->
<g id="edge25" class="edge">
<title>src/domain/entities/VideoStorageDto.ts&#45;&gt;src/domain/entities/VideoEntity.ts</title>
<path fill="none" stroke="#000000" stroke-opacity="0.200000" d="M1610.23,-340.91C1617.61,-342.3 1625.2,-343.73 1632.45,-345.1"/>
<polygon fill="none" stroke="#000000" stroke-opacity="0.200000" points="1631.8,-347.11 1638.08,-346.16 1632.58,-342.98 1631.8,-347.11"/>
</g>
<!-- src/domain/entities/index.ts&#45;&gt;src/domain/entities/MetadataEntity.ts -->
<g id="edge26" class="edge">
<title>src/domain/entities/index.ts&#45;&gt;src/domain/entities/MetadataEntity.ts</title>
<path fill="none" stroke="#000000" stroke-opacity="0.200000" d="M1372.42,-314.98C1378.8,-312.52 1385.87,-310.24 1392.62,-309 1473.05,-294.2 1568.45,-304.24 1625.06,-313.01"/>
<polygon fill="none" stroke="#000000" stroke-opacity="0.200000" points="1624.69,-315.08 1630.95,-313.95 1625.35,-310.93 1624.69,-315.08"/>
</g>
<!-- src/domain/entities/index.ts&#45;&gt;src/domain/entities/ParsedVideo.ts -->
<g id="edge27" class="edge">
<title>src/domain/entities/index.ts&#45;&gt;src/domain/entities/ParsedVideo.ts</title>
<path fill="none" stroke="#000000" stroke-opacity="0.200000" d="M1376.73,-325C1382.42,-325 1388.6,-325 1394.8,-325"/>
<polygon fill="none" stroke="#000000" stroke-opacity="0.200000" points="1394.56,-327.1 1400.56,-325 1394.56,-322.9 1394.56,-327.1"/>
</g>
<!-- src/domain/entities/index.ts&#45;&gt;src/domain/entities/VideoStorageDto.ts -->
<g id="edge29" class="edge">
<title>src/domain/entities/index.ts&#45;&gt;src/domain/entities/VideoStorageDto.ts</title>
<path fill="none" stroke="#000000" stroke-opacity="0.200000" d="M1374.58,-334.97C1381.83,-337.8 1388.86,-340.31 1392.62,-341 1430.23,-347.92 1473.3,-345.44 1506.46,-341.34"/>
<polygon fill="none" stroke="#000000" stroke-opacity="0.200000" points="1506.63,-343.44 1512.31,-340.58 1506.09,-339.27 1506.63,-343.44"/>
</g>
<!-- src/domain/entities/index.ts&#45;&gt;src/domain/entities/VideoEntity.ts -->
<g id="edge28" class="edge">
<title>src/domain/entities/index.ts&#45;&gt;src/domain/entities/VideoEntity.ts</title>
<path fill="none" stroke="#000000" stroke-opacity="0.200000" d="M1376.79,-334.52C1379.52,-335.88 1382.18,-337.37 1384.62,-339 1388.81,-341.79 1388,-345.03 1392.62,-347 1471.87,-380.82 1575.41,-370.95 1632.32,-361.5"/>
<polygon fill="none" stroke="#000000" stroke-opacity="0.200000" points="1632.65,-363.57 1638.21,-360.48 1631.94,-359.43 1632.65,-363.57"/>
</g>
<!-- src/domain/repositories/IMetadataRepository.ts -->
<g id="node26" class="node">
<title>src/domain/repositories/IMetadataRepository.ts</title>
<g id="a_node26"><a xlink:href="src/domain/repositories/IMetadataRepository.ts" xlink:title="IMetadataRepository.ts">
<path fill="#ddfeff" stroke="black" d="M1610.46,-425.62C1610.46,-425.62 1513.54,-425.62 1513.54,-425.62 1510.33,-425.62 1507.12,-422.42 1507.12,-419.21 1507.12,-419.21 1507.12,-412.79 1507.12,-412.79 1507.12,-409.58 1510.33,-406.38 1513.54,-406.38 1513.54,-406.38 1610.46,-406.38 1610.46,-406.38 1613.67,-406.38 1616.88,-409.58 1616.88,-412.79 1616.88,-412.79 1616.88,-419.21 1616.88,-419.21 1616.88,-422.42 1613.67,-425.62 1610.46,-425.62"/>
<text text-anchor="start" x="1515.12" y="-413.07" font-family="Helvetica,sans-Serif" font-size="9.00">IMetadataRepository.ts</text>
</a>
</g>
</g>
<!-- src/domain/repositories/index.ts&#45;&gt;src/domain/repositories/IMetadataRepository.ts -->
<g id="edge36" class="edge">
<title>src/domain/repositories/index.ts&#45;&gt;src/domain/repositories/IMetadataRepository.ts</title>
<path fill="none" stroke="#000000" stroke-opacity="0.200000" d="M1469.09,-416C1478.15,-416 1488.72,-416 1499.39,-416"/>
<polygon fill="none" stroke="#000000" stroke-opacity="0.200000" points="1499.27,-418.1 1505.27,-416 1499.27,-413.9 1499.27,-418.1"/>
</g>
<!-- src/domain/repositories/IVideoRepository.ts -->
<g id="node27" class="node">
<title>src/domain/repositories/IVideoRepository.ts</title>
<g id="a_node27"><a xlink:href="src/domain/repositories/IVideoRepository.ts" xlink:title="IVideoRepository.ts">
<path fill="#ddfeff" stroke="black" d="M1603.33,-456.62C1603.33,-456.62 1520.67,-456.62 1520.67,-456.62 1517.46,-456.62 1514.25,-453.42 1514.25,-450.21 1514.25,-450.21 1514.25,-443.79 1514.25,-443.79 1514.25,-440.58 1517.46,-437.38 1520.67,-437.38 1520.67,-437.38 1603.33,-437.38 1603.33,-437.38 1606.54,-437.38 1609.75,-440.58 1609.75,-443.79 1609.75,-443.79 1609.75,-450.21 1609.75,-450.21 1609.75,-453.42 1606.54,-456.62 1603.33,-456.62"/>
<text text-anchor="start" x="1522.25" y="-444.07" font-family="Helvetica,sans-Serif" font-size="9.00">IVideoRepository.ts</text>
</a>
</g>
</g>
<!-- src/domain/repositories/index.ts&#45;&gt;src/domain/repositories/IVideoRepository.ts -->
<g id="edge37" class="edge">
<title>src/domain/repositories/index.ts&#45;&gt;src/domain/repositories/IVideoRepository.ts</title>
<path fill="none" stroke="#000000" stroke-opacity="0.200000" d="M1469.09,-422.88C1482.77,-426.47 1499.88,-430.96 1515.63,-435.09"/>
<polygon fill="none" stroke="#000000" stroke-opacity="0.200000" points="1514.95,-437.09 1521.29,-436.58 1516.02,-433.02 1514.95,-437.09"/>
</g>
<!-- src/domain/valueObjects/ParsedVideoData.ts -->
<g id="node28" class="node">
<title>src/domain/valueObjects/ParsedVideoData.ts</title>
<g id="a_node28"><a xlink:href="src/domain/valueObjects/ParsedVideoData.ts" xlink:title="ParsedVideoData.ts">
<path fill="#ddfeff" stroke="black" d="M1484.71,-550.62C1484.71,-550.62 1399.04,-550.62 1399.04,-550.62 1395.83,-550.62 1392.62,-547.42 1392.62,-544.21 1392.62,-544.21 1392.62,-537.79 1392.62,-537.79 1392.62,-534.58 1395.83,-531.38 1399.04,-531.38 1399.04,-531.38 1484.71,-531.38 1484.71,-531.38 1487.92,-531.38 1491.12,-534.58 1491.12,-537.79 1491.12,-537.79 1491.12,-544.21 1491.12,-544.21 1491.12,-547.42 1487.92,-550.62 1484.71,-550.62"/>
<text text-anchor="start" x="1400.62" y="-538.08" font-family="Helvetica,sans-Serif" font-size="9.00">ParsedVideoData.ts</text>
</a>
</g>
</g>
<!-- src/domain/valueObjects/index.ts&#45;&gt;src/domain/valueObjects/ParsedVideoData.ts -->
<g id="edge38" class="edge">
<title>src/domain/valueObjects/index.ts&#45;&gt;src/domain/valueObjects/ParsedVideoData.ts</title>
<path fill="none" stroke="#000000" stroke-width="2" stroke-opacity="0.200000" d="M1376.3,-520.07C1381.67,-522.1 1387.32,-524.17 1407.56,-530.94"/>
<polygon fill="#000000" fill-opacity="0.200000" stroke="#000000" stroke-width="2" stroke-opacity="0.200000" points="1410.37,-529.55 1414.27,-537.65 1406.17,-533.75 1410.37,-529.55"/>
</g>
<!-- src/domain/valueObjects/Thumbs.ts -->
<g id="node29" class="node">
<title>src/domain/valueObjects/Thumbs.ts</title>
<g id="a_node29"><a xlink:href="src/domain/valueObjects/Thumbs.ts" xlink:title="Thumbs.ts">
<path fill="#ddfeff" stroke="black" d="M1465.58,-519.62C1465.58,-519.62 1418.17,-519.62 1418.17,-519.62 1414.96,-519.62 1411.75,-516.42 1411.75,-513.21 1411.75,-513.21 1411.75,-506.79 1411.75,-506.79 1411.75,-503.58 1414.96,-500.38 1418.17,-500.38 1418.17,-500.38 1465.58,-500.38 1465.58,-500.38 1468.79,-500.38 1472,-503.58 1472,-506.79 1472,-506.79 1472,-513.21 1472,-513.21 1472,-516.42 1468.79,-519.62 1465.58,-519.62"/>
<text text-anchor="start" x="1419.75" y="-507.07" font-family="Helvetica,sans-Serif" font-size="9.00">Thumbs.ts</text>
</a>
</g>
</g>
<!-- src/domain/valueObjects/index.ts&#45;&gt;src/domain/valueObjects/Thumbs.ts -->
<g id="edge39" class="edge">
<title>src/domain/valueObjects/index.ts&#45;&gt;src/domain/valueObjects/Thumbs.ts</title>
<path fill="none" stroke="#000000" stroke-opacity="0.200000" d="M1376.73,-510C1385.19,-510 1394.74,-510 1403.84,-510"/>
<polygon fill="none" stroke="#000000" stroke-opacity="0.200000" points="1403.83,-512.1 1409.83,-510 1403.83,-507.9 1403.83,-512.1"/>
</g>
<!-- src/domain/repositories/IMetadataRepository.ts&#45;&gt;src/domain/entities/MetadataEntity.ts -->
<g id="edge34" class="edge">
<title>src/domain/repositories/IMetadataRepository.ts&#45;&gt;src/domain/entities/MetadataEntity.ts</title>
<path fill="none" stroke="#000000" stroke-opacity="0.200000" d="M1608.06,-405.92C1614.49,-402.73 1620.42,-398.53 1624.88,-393 1639.36,-375.03 1620.62,-359.3 1633.85,-337.87"/>
<polygon fill="none" stroke="#000000" stroke-opacity="0.200000" points="1635.43,-339.28 1637.31,-333.2 1632.05,-336.78 1635.43,-339.28"/>
</g>
<!-- src/domain/repositories/IVideoRepository.ts&#45;&gt;src/domain/entities/VideoEntity.ts -->
<g id="edge35" class="edge">
<title>src/domain/repositories/IVideoRepository.ts&#45;&gt;src/domain/entities/VideoEntity.ts</title>
<path fill="none" stroke="#000000" stroke-opacity="0.200000" d="M1610.01,-439.77C1615.3,-437.77 1620.39,-435.23 1624.88,-432 1646.67,-416.29 1661.01,-387.75 1668.4,-369.61"/>
<polygon fill="none" stroke="#000000" stroke-opacity="0.200000" points="1670.21,-370.76 1670.43,-364.41 1666.29,-369.23 1670.21,-370.76"/>
</g>
<!-- src/infrastructure/database/DatabaseConnection.ts -->
<g id="node30" class="node">
<title>src/infrastructure/database/DatabaseConnection.ts</title>
<g id="a_node30"><a xlink:href="src/infrastructure/database/DatabaseConnection.ts" xlink:title="DatabaseConnection.ts">
<path fill="#ddfeff" stroke="black" d="M1283.08,-66.62C1283.08,-66.62 1182.42,-66.62 1182.42,-66.62 1179.21,-66.62 1176,-63.42 1176,-60.21 1176,-60.21 1176,-53.79 1176,-53.79 1176,-50.58 1179.21,-47.38 1182.42,-47.38 1182.42,-47.38 1283.08,-47.38 1283.08,-47.38 1286.29,-47.38 1289.5,-50.58 1289.5,-53.79 1289.5,-53.79 1289.5,-60.21 1289.5,-60.21 1289.5,-63.42 1286.29,-66.62 1283.08,-66.62"/>
<text text-anchor="start" x="1184" y="-54.08" font-family="Helvetica,sans-Serif" font-size="9.00">DatabaseConnection.ts</text>
</a>
</g>
</g>
<!-- src/infrastructure/repository/MetadataRepository.ts -->
<g id="node33" class="node">
<title>src/infrastructure/repository/MetadataRepository.ts</title>
<g id="a_node33"><a xlink:href="src/infrastructure/repository/MetadataRepository.ts" xlink:title="MetadataRepository.ts">
<path fill="#ddfeff" stroke="black" d="M1145.58,-51.62C1145.58,-51.62 1050.92,-51.62 1050.92,-51.62 1047.71,-51.62 1044.5,-48.42 1044.5,-45.21 1044.5,-45.21 1044.5,-38.79 1044.5,-38.79 1044.5,-35.58 1047.71,-32.38 1050.92,-32.38 1050.92,-32.38 1145.58,-32.38 1145.58,-32.38 1148.79,-32.38 1152,-35.58 1152,-38.79 1152,-38.79 1152,-45.21 1152,-45.21 1152,-48.42 1148.79,-51.62 1145.58,-51.62"/>
<text text-anchor="start" x="1052.5" y="-39.08" font-family="Helvetica,sans-Serif" font-size="9.00">MetadataRepository.ts</text>
</a>
</g>
</g>
<!-- src/infrastructure/repository/index.ts&#45;&gt;src/infrastructure/repository/MetadataRepository.ts -->
<g id="edge46" class="edge">
<title>src/infrastructure/repository/index.ts&#45;&gt;src/infrastructure/repository/MetadataRepository.ts</title>
<path fill="none" stroke="#000000" stroke-width="2" stroke-opacity="0.200000" d="M1028.85,-62.92C1033.96,-60.86 1039.38,-58.77 1059.91,-52.05"/>
<polygon fill="#000000" fill-opacity="0.200000" stroke="#000000" stroke-width="2" stroke-opacity="0.200000" points="1062.72,-50.66 1066.62,-58.76 1058.52,-54.86 1062.72,-50.66"/>
</g>
<!-- src/infrastructure/repository/VideoRepository.ts -->
<g id="node34" class="node">
<title>src/infrastructure/repository/VideoRepository.ts</title>
<g id="a_node34"><a xlink:href="src/infrastructure/repository/VideoRepository.ts" xlink:title="VideoRepository.ts">
<path fill="#ddfeff" stroke="black" d="M1138.46,-82.62C1138.46,-82.62 1058.04,-82.62 1058.04,-82.62 1054.83,-82.62 1051.62,-79.42 1051.62,-76.21 1051.62,-76.21 1051.62,-69.79 1051.62,-69.79 1051.62,-66.58 1054.83,-63.38 1058.04,-63.38 1058.04,-63.38 1138.46,-63.38 1138.46,-63.38 1141.67,-63.38 1144.88,-66.58 1144.88,-69.79 1144.88,-69.79 1144.88,-76.21 1144.88,-76.21 1144.88,-79.42 1141.67,-82.62 1138.46,-82.62"/>
<text text-anchor="start" x="1059.62" y="-70.08" font-family="Helvetica,sans-Serif" font-size="9.00">VideoRepository.ts</text>
</a>
</g>
</g>
<!-- src/infrastructure/repository/index.ts&#45;&gt;src/infrastructure/repository/VideoRepository.ts -->
<g id="edge47" class="edge">
<title>src/infrastructure/repository/index.ts&#45;&gt;src/infrastructure/repository/VideoRepository.ts</title>
<path fill="none" stroke="#000000" stroke-width="2" stroke-opacity="0.200000" d="M1031.55,-73C1037.69,-73 1044.43,-73 1051.17,-73"/>
<polygon fill="#000000" fill-opacity="0.200000" stroke="#000000" stroke-width="2" stroke-opacity="0.200000" points="1053.97,-71.61 1057.87,-79.71 1049.77,-75.81 1053.97,-71.61"/>
</g>
<!-- src/infrastructure/video/HTMLVideoProcessor.ts -->
<g id="node35" class="node">
<title>src/infrastructure/video/HTMLVideoProcessor.ts</title>
<g id="a_node35"><a xlink:href="src/infrastructure/video/HTMLVideoProcessor.ts" xlink:title="HTMLVideoProcessor.ts">
<path fill="#ddfeff" stroke="black" d="M1284.21,-152.62C1284.21,-152.62 1181.29,-152.62 1181.29,-152.62 1178.08,-152.62 1174.88,-149.42 1174.88,-146.21 1174.88,-146.21 1174.88,-139.79 1174.88,-139.79 1174.88,-136.58 1178.08,-133.38 1181.29,-133.38 1181.29,-133.38 1284.21,-133.38 1284.21,-133.38 1287.42,-133.38 1290.62,-136.58 1290.62,-139.79 1290.62,-139.79 1290.62,-146.21 1290.62,-146.21 1290.62,-149.42 1287.42,-152.62 1284.21,-152.62"/>
<text text-anchor="start" x="1182.88" y="-140.07" font-family="Helvetica,sans-Serif" font-size="9.00">HTMLVideoProcessor.ts</text>
</a>
</g>
</g>
<!-- src/infrastructure/video/index.ts&#45;&gt;src/infrastructure/video/HTMLVideoProcessor.ts -->
<g id="edge50" class="edge">
<title>src/infrastructure/video/index.ts&#45;&gt;src/infrastructure/video/HTMLVideoProcessor.ts</title>
<path fill="none" stroke="#000000" stroke-width="2" stroke-opacity="0.200000" d="M1025.68,-139.98C1031.6,-137.53 1038.18,-135.25 1174.69,-133.17"/>
<polygon fill="#000000" fill-opacity="0.200000" stroke="#000000" stroke-width="2" stroke-opacity="0.200000" points="1177.5,-131.78 1181.4,-139.88 1173.3,-135.98 1177.5,-131.78"/>
</g>
<!-- src/infrastructure/video/VideoFileParser.ts -->
<g id="node36" class="node">
<title>src/infrastructure/video/VideoFileParser.ts</title>
<g id="a_node36"><a xlink:href="src/infrastructure/video/VideoFileParser.ts" xlink:title="VideoFileParser.ts">
<path fill="#ddfeff" stroke="black" d="M1137.71,-159.62C1137.71,-159.62 1058.79,-159.62 1058.79,-159.62 1055.58,-159.62 1052.38,-156.42 1052.38,-153.21 1052.38,-153.21 1052.38,-146.79 1052.38,-146.79 1052.38,-143.58 1055.58,-140.38 1058.79,-140.38 1058.79,-140.38 1137.71,-140.38 1137.71,-140.38 1140.92,-140.38 1144.12,-143.58 1144.12,-146.79 1144.12,-146.79 1144.12,-153.21 1144.12,-153.21 1144.12,-156.42 1140.92,-159.62 1137.71,-159.62"/>
<text text-anchor="start" x="1060.38" y="-147.07" font-family="Helvetica,sans-Serif" font-size="9.00">VideoFileParser.ts</text>
</a>
</g>
</g>
<!-- src/infrastructure/video/index.ts&#45;&gt;src/infrastructure/video/VideoFileParser.ts -->
<g id="edge51" class="edge">
<title>src/infrastructure/video/index.ts&#45;&gt;src/infrastructure/video/VideoFileParser.ts</title>
<path fill="none" stroke="#000000" stroke-width="2" stroke-opacity="0.200000" d="M1031.55,-150C1038.01,-150 1045.12,-150 1052.21,-150"/>
<polygon fill="#000000" fill-opacity="0.200000" stroke="#000000" stroke-width="2" stroke-opacity="0.200000" points="1055.02,-148.61 1058.92,-156.71 1050.82,-152.81 1055.02,-148.61"/>
</g>
<!-- src/infrastructure/repository/MetadataRepository.ts&#45;&gt;src/domain/index.ts -->
<g id="edge43" class="edge">
<title>src/infrastructure/repository/MetadataRepository.ts&#45;&gt;src/domain/index.ts</title>
<path fill="none" stroke="#000000" stroke-width="2" stroke-opacity="0.200000" d="M1152.28,-50.22C1155.16,-52.09 1157.78,-54.33 1160,-57 1169.47,-68.38 1163.55,-175.88 1168,-190 1178.55,-223.53 1202.22,-257.29 1217.56,-276.9"/>
<polygon fill="#000000" fill-opacity="0.200000" stroke="#000000" stroke-width="2" stroke-opacity="0.200000" points="1215.9,-278.19 1221.29,-281.56 1219.18,-275.56 1215.9,-278.19"/>
</g>
<!-- src/infrastructure/repository/MetadataRepository.ts&#45;&gt;src/infrastructure/database/DatabaseConnection.ts -->
<g id="edge42" class="edge">
<title>src/infrastructure/repository/MetadataRepository.ts&#45;&gt;src/infrastructure/database/DatabaseConnection.ts</title>
<path fill="none" stroke="#000000" stroke-width="2" stroke-opacity="0.200000" d="M1152.38,-48.01C1157.15,-48.55 1162.01,-49.11 1166.87,-49.65"/>
<polygon fill="#000000" fill-opacity="0.200000" stroke="#000000" stroke-width="2" stroke-opacity="0.200000" points="1166.37,-51.71 1172.57,-50.3 1166.84,-47.54 1166.37,-51.71"/>
</g>
<!-- src/infrastructure/repository/VideoRepository.ts&#45;&gt;src/domain/index.ts -->
<g id="edge45" class="edge">
<title>src/infrastructure/repository/VideoRepository.ts&#45;&gt;src/domain/index.ts</title>
<path fill="none" stroke="#000000" stroke-width="2" stroke-opacity="0.200000" d="M1122.73,-83.09C1135.95,-90.06 1151.49,-100.67 1160,-115 1177.12,-143.82 1157.2,-158.27 1168,-190 1179.39,-223.45 1203.01,-257.48 1218.08,-277.12"/>
<polygon fill="#000000" fill-opacity="0.200000" stroke="#000000" stroke-width="2" stroke-opacity="0.200000" points="1216.37,-278.33 1221.72,-281.76 1219.67,-275.74 1216.37,-278.33"/>
</g>
<!-- src/infrastructure/repository/VideoRepository.ts&#45;&gt;src/infrastructure/database/DatabaseConnection.ts -->
<g id="edge44" class="edge">
<title>src/infrastructure/repository/VideoRepository.ts&#45;&gt;src/infrastructure/database/DatabaseConnection.ts</title>
<path fill="none" stroke="#000000" stroke-width="2" stroke-opacity="0.200000" d="M1145.22,-67.45C1152.31,-66.59 1159.75,-65.69 1167.15,-64.8"/>
<polygon fill="#000000" fill-opacity="0.200000" stroke="#000000" stroke-width="2" stroke-opacity="0.200000" points="1167.1,-66.92 1172.81,-64.12 1166.6,-62.75 1167.1,-66.92"/>
</g>
<!-- src/infrastructure/video/VideoFileParser.ts&#45;&gt;src/domain/index.ts -->
<g id="edge49" class="edge">
<title>src/infrastructure/video/VideoFileParser.ts&#45;&gt;src/domain/index.ts</title>
<path fill="none" stroke="#000000" stroke-width="2" stroke-opacity="0.200000" d="M1108.36,-159.9C1130.77,-184.25 1188.77,-247.29 1216.52,-277.45"/>
<polygon fill="#000000" fill-opacity="0.200000" stroke="#000000" stroke-width="2" stroke-opacity="0.200000" points="1214.92,-278.81 1220.53,-281.81 1218.01,-275.97 1214.92,-278.81"/>
</g>
<!-- src/infrastructure/video/VideoFileParser.ts&#45;&gt;src/infrastructure/video/HTMLVideoProcessor.ts -->
<g id="edge48" class="edge">
<title>src/infrastructure/video/VideoFileParser.ts&#45;&gt;src/infrastructure/video/HTMLVideoProcessor.ts</title>
<path fill="none" stroke="#000000" stroke-width="2" stroke-opacity="0.200000" d="M1144.48,-147.61C1151.48,-147.24 1158.84,-146.85 1166.18,-146.46"/>
<polygon fill="#000000" fill-opacity="0.200000" stroke="#000000" stroke-width="2" stroke-opacity="0.200000" points="1165.87,-148.58 1171.75,-146.17 1165.65,-144.39 1165.87,-148.58"/>
</g>
<!-- src/main.ts -->
<g id="node37" class="node">
<title>src/main.ts</title>
<g id="a_node37"><a xlink:href="src/main.ts" xlink:title="main.ts">
<path fill="#ddfeff" stroke="black" d="M63.58,-273.62C63.58,-273.62 22.42,-273.62 22.42,-273.62 19.21,-273.62 16,-270.42 16,-267.21 16,-267.21 16,-260.79 16,-260.79 16,-257.58 19.21,-254.38 22.42,-254.38 22.42,-254.38 63.58,-254.38 63.58,-254.38 66.79,-254.38 70,-257.58 70,-260.79 70,-260.79 70,-267.21 70,-267.21 70,-270.42 66.79,-273.62 63.58,-273.62"/>
<text text-anchor="start" x="27.62" y="-261.07" font-family="Helvetica,sans-Serif" font-size="9.00">main.ts</text>
</a>
</g>
</g>
<!-- src/main.ts&#45;&gt;src/App.vue -->
<g id="edge52" class="edge">
<title>src/main.ts&#45;&gt;src/App.vue</title>
<path fill="none" stroke="#000000" stroke-width="2" stroke-opacity="0.200000" d="M70.44,-264C71.58,-264 72.74,-264 73.9,-264"/>
<polygon fill="#000000" fill-opacity="0.200000" stroke="#000000" stroke-width="2" stroke-opacity="0.200000" points="73.77,-266.1 79.77,-264 73.77,-261.9 73.77,-266.1"/>
</g>
</g>
</svg>
