<?xml version="1.0" encoding="UTF-8" standalone="no"?>
<!DOCTYPE svg PUBLIC "-//W3C//DTD SVG 1.1//EN"
 "http://www.w3.org/Graphics/SVG/1.1/DTD/svg11.dtd">
<!-- Generated by graphviz version 9.0.0 (20230911.1827)
 -->
<!-- Title: dependency&#45;cruiser output Pages: 1 -->
<svg width="1592pt" height="502pt"
 viewBox="0.00 0.00 1592.25 502.00" xmlns="http://www.w3.org/2000/svg" xmlns:xlink="http://www.w3.org/1999/xlink">
<g id="graph0" class="graph" transform="scale(1 1) rotate(0) translate(4 498)">
<title>dependency&#45;cruiser output</title>
<polygon fill="white" stroke="none" points="-4,4 -4,-498 1588.25,-498 1588.25,4 -4,4"/>
<g id="clust1" class="cluster">
<title>cluster_src</title>
<path fill="#ffffff" stroke="black" stroke-width="2" d="M20,-8C20,-8 1564.25,-8 1564.25,-8 1570.25,-8 1576.25,-14 1576.25,-20 1576.25,-20 1576.25,-474 1576.25,-474 1576.25,-480 1570.25,-486 1564.25,-486 1564.25,-486 20,-486 20,-486 14,-486 8,-480 8,-474 8,-474 8,-20 8,-20 8,-14 14,-8 20,-8"/>
<text text-anchor="middle" x="792.12" y="-473.45" font-family="Helvetica,sans-Serif" font-weight="bold" font-size="9.00">src</text>
</g>
<g id="clust2" class="cluster">
<title>cluster_src/application</title>
<path fill="#ffffff" stroke="black" stroke-width="2" d="M580,-115C580,-115 886.25,-115 886.25,-115 892.25,-115 898.25,-121 898.25,-127 898.25,-127 898.25,-224 898.25,-224 898.25,-230 892.25,-236 886.25,-236 886.25,-236 580,-236 580,-236 574,-236 568,-230 568,-224 568,-224 568,-127 568,-127 568,-121 574,-115 580,-115"/>
<text text-anchor="middle" x="733.12" y="-223.45" font-family="Helvetica,sans-Serif" font-weight="bold" font-size="9.00">application</text>
</g>
<g id="clust3" class="cluster">
<title>cluster_src/application/services</title>
<path fill="#ffffff" stroke="black" stroke-width="2" d="M650,-123C650,-123 878.25,-123 878.25,-123 884.25,-123 890.25,-129 890.25,-135 890.25,-135 890.25,-197 890.25,-197 890.25,-203 884.25,-209 878.25,-209 878.25,-209 650,-209 650,-209 644,-209 638,-203 638,-197 638,-197 638,-135 638,-135 638,-129 644,-123 650,-123"/>
<text text-anchor="middle" x="764.12" y="-196.45" font-family="Helvetica,sans-Serif" font-weight="bold" font-size="9.00">services</text>
</g>
<g id="clust4" class="cluster">
<title>cluster_src/assets</title>
<path fill="#ffffff" stroke="black" stroke-width="2" d="M90,-219C90,-219 192.75,-219 192.75,-219 198.75,-219 204.75,-225 204.75,-231 204.75,-231 204.75,-325 204.75,-325 204.75,-331 198.75,-337 192.75,-337 192.75,-337 90,-337 90,-337 84,-337 78,-331 78,-325 78,-325 78,-231 78,-231 78,-225 84,-219 90,-219"/>
<text text-anchor="middle" x="141.38" y="-324.45" font-family="Helvetica,sans-Serif" font-weight="bold" font-size="9.00">assets</text>
</g>
<g id="clust5" class="cluster">
<title>cluster_src/assets/effects</title>
<path fill="#ffffff" stroke="black" stroke-width="2" d="M98,-255C98,-255 184.75,-255 184.75,-255 190.75,-255 196.75,-261 196.75,-267 196.75,-267 196.75,-298 196.75,-298 196.75,-304 190.75,-310 184.75,-310 184.75,-310 98,-310 98,-310 92,-310 86,-304 86,-298 86,-298 86,-267 86,-267 86,-261 92,-255 98,-255"/>
<text text-anchor="middle" x="141.38" y="-297.45" font-family="Helvetica,sans-Serif" font-weight="bold" font-size="9.00">effects</text>
</g>
<g id="clust6" class="cluster">
<title>cluster_src/components</title>
<path fill="#ffffff" stroke="black" stroke-width="2" d="M333,-129C333,-129 548,-129 548,-129 554,-129 560,-135 560,-141 560,-141 560,-298 560,-298 560,-304 554,-310 548,-310 548,-310 333,-310 333,-310 327,-310 321,-304 321,-298 321,-298 321,-141 321,-141 321,-135 327,-129 333,-129"/>
<text text-anchor="middle" x="440.5" y="-297.45" font-family="Helvetica,sans-Serif" font-weight="bold" font-size="9.00">components</text>
</g>
<g id="clust8" class="cluster">
<title>cluster_src/components/utils</title>
<path fill="#ffffff" stroke="black" stroke-width="2" d="M341,-165C341,-165 439,-165 439,-165 445,-165 451,-171 451,-177 451,-177 451,-208 451,-208 451,-214 445,-220 439,-220 439,-220 341,-220 341,-220 335,-220 329,-214 329,-208 329,-208 329,-177 329,-177 329,-171 335,-165 341,-165"/>
<text text-anchor="middle" x="390" y="-207.45" font-family="Helvetica,sans-Serif" font-weight="bold" font-size="9.00">utils</text>
</g>
<g id="clust7" class="cluster">
<title>cluster_src/components/inputs</title>
<path fill="#ffffff" stroke="black" stroke-width="2" d="M347.75,-228C347.75,-228 432.25,-228 432.25,-228 438.25,-228 444.25,-234 444.25,-240 444.25,-240 444.25,-271 444.25,-271 444.25,-277 438.25,-283 432.25,-283 432.25,-283 347.75,-283 347.75,-283 341.75,-283 335.75,-277 335.75,-271 335.75,-271 335.75,-240 335.75,-240 335.75,-234 341.75,-228 347.75,-228"/>
<text text-anchor="middle" x="390" y="-270.45" font-family="Helvetica,sans-Serif" font-weight="bold" font-size="9.00">inputs</text>
</g>
<g id="clust9" class="cluster">
<title>cluster_src/domain</title>
<path fill="#ffffff" stroke="black" stroke-width="2" d="M1249.25,-275C1249.25,-275 1454.25,-275 1454.25,-275 1460.25,-275 1466.25,-281 1466.25,-287 1466.25,-287 1466.25,-447 1466.25,-447 1466.25,-453 1460.25,-459 1454.25,-459 1454.25,-459 1249.25,-459 1249.25,-459 1243.25,-459 1237.25,-453 1237.25,-447 1237.25,-447 1237.25,-287 1237.25,-287 1237.25,-281 1243.25,-275 1249.25,-275"/>
<text text-anchor="middle" x="1351.75" y="-446.45" font-family="Helvetica,sans-Serif" font-weight="bold" font-size="9.00">domain</text>
</g>
<g id="clust10" class="cluster">
<title>cluster_src/domain/constants</title>
<path fill="#ffffff" stroke="black" stroke-width="2" d="M1285.12,-283C1285.12,-283 1331.12,-283 1331.12,-283 1337.12,-283 1343.12,-289 1343.12,-295 1343.12,-295 1343.12,-326 1343.12,-326 1343.12,-332 1337.12,-338 1331.12,-338 1331.12,-338 1285.12,-338 1285.12,-338 1279.12,-338 1273.12,-332 1273.12,-326 1273.12,-326 1273.12,-295 1273.12,-295 1273.12,-289 1279.12,-283 1285.12,-283"/>
<text text-anchor="middle" x="1308.12" y="-325.45" font-family="Helvetica,sans-Serif" font-weight="bold" font-size="9.00">constants</text>
</g>
<g id="clust11" class="cluster">
<title>cluster_src/domain/entities</title>
<path fill="#ffffff" stroke="black" stroke-width="2" d="M1391,-346C1391,-346 1446.25,-346 1446.25,-346 1452.25,-346 1458.25,-352 1458.25,-358 1458.25,-358 1458.25,-420 1458.25,-420 1458.25,-426 1452.25,-432 1446.25,-432 1446.25,-432 1391,-432 1391,-432 1385,-432 1379,-426 1379,-420 1379,-420 1379,-358 1379,-358 1379,-352 1385,-346 1391,-346"/>
<text text-anchor="middle" x="1418.62" y="-419.45" font-family="Helvetica,sans-Serif" font-weight="bold" font-size="9.00">entities</text>
</g>
<g id="clust12" class="cluster">
<title>cluster_src/domain/repositories</title>
<path fill="#ffffff" stroke="black" stroke-width="2" d="M1257.25,-346C1257.25,-346 1359,-346 1359,-346 1365,-346 1371,-352 1371,-358 1371,-358 1371,-420 1371,-420 1371,-426 1365,-432 1359,-432 1359,-432 1257.25,-432 1257.25,-432 1251.25,-432 1245.25,-426 1245.25,-420 1245.25,-420 1245.25,-358 1245.25,-358 1245.25,-352 1251.25,-346 1257.25,-346"/>
<text text-anchor="middle" x="1308.12" y="-419.45" font-family="Helvetica,sans-Serif" font-weight="bold" font-size="9.00">repositories</text>
</g>
<g id="clust13" class="cluster">
<title>cluster_src/infrastructure</title>
<path fill="#ffffff" stroke="black" stroke-width="2" d="M918.25,-16C918.25,-16 1556.25,-16 1556.25,-16 1562.25,-16 1568.25,-22 1568.25,-28 1568.25,-28 1568.25,-255 1568.25,-255 1568.25,-261 1562.25,-267 1556.25,-267 1556.25,-267 918.25,-267 918.25,-267 912.25,-267 906.25,-261 906.25,-255 906.25,-255 906.25,-28 906.25,-28 906.25,-22 912.25,-16 918.25,-16"/>
<text text-anchor="middle" x="1237.25" y="-254.45" font-family="Helvetica,sans-Serif" font-weight="bold" font-size="9.00">infrastructure</text>
</g>
<g id="clust14" class="cluster">
<title>cluster_src/infrastructure/database</title>
<path fill="#ffffff" stroke="black" stroke-width="2" d="M1119.75,-24C1119.75,-24 1548.25,-24 1548.25,-24 1554.25,-24 1560.25,-30 1560.25,-36 1560.25,-36 1560.25,-228 1560.25,-228 1560.25,-234 1554.25,-240 1548.25,-240 1548.25,-240 1119.75,-240 1119.75,-240 1113.75,-240 1107.75,-234 1107.75,-228 1107.75,-228 1107.75,-36 1107.75,-36 1107.75,-30 1113.75,-24 1119.75,-24"/>
<text text-anchor="middle" x="1334" y="-227.45" font-family="Helvetica,sans-Serif" font-weight="bold" font-size="9.00">database</text>
</g>
<g id="clust15" class="cluster">
<title>cluster_src/infrastructure/database/migrations</title>
<path fill="#ffffff" stroke="black" stroke-width="2" d="M1149.5,-32C1149.5,-32 1540.25,-32 1540.25,-32 1546.25,-32 1552.25,-38 1552.25,-44 1552.25,-44 1552.25,-173 1552.25,-173 1552.25,-179 1546.25,-185 1540.25,-185 1540.25,-185 1149.5,-185 1149.5,-185 1143.5,-185 1137.5,-179 1137.5,-173 1137.5,-173 1137.5,-44 1137.5,-44 1137.5,-38 1143.5,-32 1149.5,-32"/>
<text text-anchor="middle" x="1344.88" y="-172.45" font-family="Helvetica,sans-Serif" font-weight="bold" font-size="9.00">migrations</text>
</g>
<g id="clust17" class="cluster">
<title>cluster_src/infrastructure/database/migrations/v1</title>
<path fill="#ffffff" stroke="black" stroke-width="2" d="M1395.62,-40C1395.62,-40 1441.62,-40 1441.62,-40 1447.62,-40 1453.62,-46 1453.62,-52 1453.62,-52 1453.62,-83 1453.62,-83 1453.62,-89 1447.62,-95 1441.62,-95 1441.62,-95 1395.62,-95 1395.62,-95 1389.62,-95 1383.62,-89 1383.62,-83 1383.62,-83 1383.62,-52 1383.62,-52 1383.62,-46 1389.62,-40 1395.62,-40"/>
<text text-anchor="middle" x="1418.62" y="-82.45" font-family="Helvetica,sans-Serif" font-weight="bold" font-size="9.00">v1</text>
</g>
<g id="clust16" class="cluster">
<title>cluster_src/infrastructure/database/migrations/utils</title>
<path fill="#ffffff" stroke="black" stroke-width="2" d="M1486.25,-71C1486.25,-71 1532.25,-71 1532.25,-71 1538.25,-71 1544.25,-77 1544.25,-83 1544.25,-83 1544.25,-114 1544.25,-114 1544.25,-120 1538.25,-126 1532.25,-126 1532.25,-126 1486.25,-126 1486.25,-126 1480.25,-126 1474.25,-120 1474.25,-114 1474.25,-114 1474.25,-83 1474.25,-83 1474.25,-77 1480.25,-71 1486.25,-71"/>
<text text-anchor="middle" x="1509.25" y="-113.45" font-family="Helvetica,sans-Serif" font-weight="bold" font-size="9.00">utils</text>
</g>
<g id="clust18" class="cluster">
<title>cluster_src/infrastructure/database/migrations/v2</title>
<path fill="#ffffff" stroke="black" stroke-width="2" d="M1395.62,-103C1395.62,-103 1441.62,-103 1441.62,-103 1447.62,-103 1453.62,-109 1453.62,-115 1453.62,-115 1453.62,-146 1453.62,-146 1453.62,-152 1447.62,-158 1441.62,-158 1441.62,-158 1395.62,-158 1395.62,-158 1389.62,-158 1383.62,-152 1383.62,-146 1383.62,-146 1383.62,-115 1383.62,-115 1383.62,-109 1389.62,-103 1395.62,-103"/>
<text text-anchor="middle" x="1418.62" y="-145.45" font-family="Helvetica,sans-Serif" font-weight="bold" font-size="9.00">v2</text>
</g>
<g id="clust19" class="cluster">
<title>cluster_src/infrastructure/repository</title>
<path fill="#ffffff" stroke="black" stroke-width="2" d="M988.25,-154C988.25,-154 1087.75,-154 1087.75,-154 1093.75,-154 1099.75,-160 1099.75,-166 1099.75,-166 1099.75,-228 1099.75,-228 1099.75,-234 1093.75,-240 1087.75,-240 1087.75,-240 988.25,-240 988.25,-240 982.25,-240 976.25,-234 976.25,-228 976.25,-228 976.25,-166 976.25,-166 976.25,-160 982.25,-154 988.25,-154"/>
<text text-anchor="middle" x="1038" y="-227.45" font-family="Helvetica,sans-Serif" font-weight="bold" font-size="9.00">repository</text>
</g>
<g id="clust20" class="cluster">
<title>cluster_src/stores</title>
<path fill="#ffffff" stroke="black" stroke-width="2" d="M471,-318C471,-318 547.25,-318 547.25,-318 553.25,-318 559.25,-324 559.25,-330 559.25,-330 559.25,-392 559.25,-392 559.25,-398 553.25,-404 547.25,-404 547.25,-404 471,-404 471,-404 465,-404 459,-398 459,-392 459,-392 459,-330 459,-330 459,-324 465,-318 471,-318"/>
<text text-anchor="middle" x="509.12" y="-391.45" font-family="Helvetica,sans-Serif" font-weight="bold" font-size="9.00">stores</text>
</g>
<g id="clust21" class="cluster">
<title>cluster_src/views</title>
<path fill="#ffffff" stroke="black" stroke-width="2" d="M224.75,-197C224.75,-197 301,-197 301,-197 307,-197 313,-203 313,-209 313,-209 313,-271 313,-271 313,-277 307,-283 301,-283 301,-283 224.75,-283 224.75,-283 218.75,-283 212.75,-277 212.75,-271 212.75,-271 212.75,-209 212.75,-209 212.75,-203 218.75,-197 224.75,-197"/>
<text text-anchor="middle" x="262.88" y="-270.45" font-family="Helvetica,sans-Serif" font-weight="bold" font-size="9.00">views</text>
</g>
<!-- src/App.vue -->
<g id="node1" class="node">
<title>src/App.vue</title>
<g id="a_node1"><a xlink:href="src/App.vue" xlink:title="App.vue">
<path fill="#41f083" stroke="black" d="M161.96,-210.62C161.96,-210.62 120.79,-210.62 120.79,-210.62 117.58,-210.62 114.38,-207.42 114.38,-204.21 114.38,-204.21 114.38,-197.79 114.38,-197.79 114.38,-194.58 117.58,-191.38 120.79,-191.38 120.79,-191.38 161.96,-191.38 161.96,-191.38 165.17,-191.38 168.38,-194.58 168.38,-197.79 168.38,-197.79 168.38,-204.21 168.38,-204.21 168.38,-207.42 165.17,-210.62 161.96,-210.62"/>
<text text-anchor="start" x="125.25" y="-198.07" font-family="Helvetica,sans-Serif" font-size="9.00">App.vue</text>
</a>
</g>
</g>
<!-- src/components/utils/DiagnosticsPanel.vue -->
<g id="node2" class="node">
<title>src/components/utils/DiagnosticsPanel.vue</title>
<g id="a_node2"><a xlink:href="src/components/utils/DiagnosticsPanel.vue" xlink:title="DiagnosticsPanel.vue">
<path fill="#41f083" stroke="black" d="M436.58,-192.62C436.58,-192.62 343.42,-192.62 343.42,-192.62 340.21,-192.62 337,-189.42 337,-186.21 337,-186.21 337,-179.79 337,-179.79 337,-176.58 340.21,-173.38 343.42,-173.38 343.42,-173.38 436.58,-173.38 436.58,-173.38 439.79,-173.38 443,-176.58 443,-179.79 443,-179.79 443,-186.21 443,-186.21 443,-189.42 439.79,-192.62 436.58,-192.62"/>
<text text-anchor="start" x="345" y="-180.07" font-family="Helvetica,sans-Serif" font-size="9.00">DiagnosticsPanel.vue</text>
</a>
</g>
</g>
<!-- src/App.vue&#45;&gt;src/components/utils/DiagnosticsPanel.vue -->
<g id="edge1" class="edge">
<title>src/App.vue&#45;&gt;src/components/utils/DiagnosticsPanel.vue</title>
<path fill="none" stroke="#000000" stroke-width="2" stroke-opacity="0.200000" d="M168.76,-198.14C181.96,-196.77 198.19,-195.18 212.75,-194 250.9,-190.91 293.76,-188.22 327.66,-186.27"/>
<polygon fill="#000000" fill-opacity="0.200000" stroke="#000000" stroke-width="2" stroke-opacity="0.200000" points="327.63,-188.38 333.5,-185.94 327.39,-184.18 327.63,-188.38"/>
</g>
<!-- src/views/NavBar.vue -->
<g id="node3" class="node">
<title>src/views/NavBar.vue</title>
<g id="a_node3"><a xlink:href="src/views/NavBar.vue" xlink:title="NavBar.vue">
<path fill="#41f083" stroke="black" d="M287.71,-255.62C287.71,-255.62 238.04,-255.62 238.04,-255.62 234.83,-255.62 231.62,-252.42 231.62,-249.21 231.62,-249.21 231.62,-242.79 231.62,-242.79 231.62,-239.58 234.83,-236.38 238.04,-236.38 238.04,-236.38 287.71,-236.38 287.71,-236.38 290.92,-236.38 294.12,-239.58 294.12,-242.79 294.12,-242.79 294.12,-249.21 294.12,-249.21 294.12,-252.42 290.92,-255.62 287.71,-255.62"/>
<text text-anchor="start" x="239.62" y="-243.07" font-family="Helvetica,sans-Serif" font-size="9.00">NavBar.vue</text>
</a>
</g>
</g>
<!-- src/App.vue&#45;&gt;src/views/NavBar.vue -->
<g id="edge2" class="edge">
<title>src/App.vue&#45;&gt;src/views/NavBar.vue</title>
<path fill="none" stroke="#000000" stroke-width="2" stroke-opacity="0.200000" d="M168.77,-202.46C180.77,-204.27 194.53,-208.09 204.75,-216 210.73,-220.62 206.92,-226.2 212.75,-231 215.82,-233.52 219.3,-235.62 222.97,-237.37"/>
<polygon fill="#000000" fill-opacity="0.200000" stroke="#000000" stroke-width="2" stroke-opacity="0.200000" points="222.02,-239.25 228.37,-239.53 223.58,-235.35 222.02,-239.25"/>
</g>
<!-- src/views/VideoGallery.vue -->
<g id="node4" class="node">
<title>src/views/VideoGallery.vue</title>
<g id="a_node4"><a xlink:href="src/views/VideoGallery.vue" xlink:title="VideoGallery.vue">
<path fill="#41f083" stroke="black" d="M298.58,-224.62C298.58,-224.62 227.17,-224.62 227.17,-224.62 223.96,-224.62 220.75,-221.42 220.75,-218.21 220.75,-218.21 220.75,-211.79 220.75,-211.79 220.75,-208.58 223.96,-205.38 227.17,-205.38 227.17,-205.38 298.58,-205.38 298.58,-205.38 301.79,-205.38 305,-208.58 305,-211.79 305,-211.79 305,-218.21 305,-218.21 305,-221.42 301.79,-224.62 298.58,-224.62"/>
<text text-anchor="start" x="228.75" y="-212.07" font-family="Helvetica,sans-Serif" font-size="9.00">VideoGallery.vue</text>
</a>
</g>
</g>
<!-- src/App.vue&#45;&gt;src/views/VideoGallery.vue -->
<g id="edge3" class="edge">
<title>src/App.vue&#45;&gt;src/views/VideoGallery.vue</title>
<path fill="none" stroke="#000000" stroke-width="2" stroke-opacity="0.200000" d="M168.6,-204.07C181.35,-205.57 197.11,-207.41 212.03,-209.16"/>
<polygon fill="#000000" fill-opacity="0.200000" stroke="#000000" stroke-width="2" stroke-opacity="0.200000" points="211.47,-211.21 217.67,-209.82 211.96,-207.04 211.47,-211.21"/>
</g>
<!-- src/stores/appStateStore.ts -->
<g id="node16" class="node">
<title>src/stores/appStateStore.ts</title>
<g id="a_node16"><a xlink:href="src/stores/appStateStore.ts" xlink:title="appStateStore.ts">
<path fill="#ddfeff" stroke="black" d="M544.83,-345.62C544.83,-345.62 473.42,-345.62 473.42,-345.62 470.21,-345.62 467,-342.42 467,-339.21 467,-339.21 467,-332.79 467,-332.79 467,-329.58 470.21,-326.38 473.42,-326.38 473.42,-326.38 544.83,-326.38 544.83,-326.38 548.04,-326.38 551.25,-329.58 551.25,-332.79 551.25,-332.79 551.25,-339.21 551.25,-339.21 551.25,-342.42 548.04,-345.62 544.83,-345.62"/>
<text text-anchor="start" x="475" y="-333.07" font-family="Helvetica,sans-Serif" font-size="9.00">appStateStore.ts</text>
</a>
</g>
</g>
<!-- src/components/utils/DiagnosticsPanel.vue&#45;&gt;src/stores/appStateStore.ts -->
<g id="edge13" class="edge">
<title>src/components/utils/DiagnosticsPanel.vue&#45;&gt;src/stores/appStateStore.ts</title>
<path fill="none" stroke="#000000" stroke-width="2" stroke-opacity="0.200000" d="M414.27,-193.12C427.37,-200.09 442.71,-210.7 451,-225 460.85,-241.99 447.72,-296.93 459,-313 461.19,-316.12 463.92,-318.83 466.96,-321.18"/>
<polygon fill="#000000" fill-opacity="0.200000" stroke="#000000" stroke-width="2" stroke-opacity="0.200000" points="465.78,-322.92 471.96,-324.4 468.05,-319.39 465.78,-322.92"/>
</g>
<!-- src/components/inputs/FolderSelector.vue -->
<g id="node14" class="node">
<title>src/components/inputs/FolderSelector.vue</title>
<g id="a_node14"><a xlink:href="src/components/inputs/FolderSelector.vue" xlink:title="FolderSelector.vue">
<path fill="#41f083" stroke="black" d="M429.83,-255.62C429.83,-255.62 350.17,-255.62 350.17,-255.62 346.96,-255.62 343.75,-252.42 343.75,-249.21 343.75,-249.21 343.75,-242.79 343.75,-242.79 343.75,-239.58 346.96,-236.38 350.17,-236.38 350.17,-236.38 429.83,-236.38 429.83,-236.38 433.04,-236.38 436.25,-239.58 436.25,-242.79 436.25,-242.79 436.25,-249.21 436.25,-249.21 436.25,-252.42 433.04,-255.62 429.83,-255.62"/>
<text text-anchor="start" x="351.75" y="-243.07" font-family="Helvetica,sans-Serif" font-size="9.00">FolderSelector.vue</text>
</a>
</g>
</g>
<!-- src/views/NavBar.vue&#45;&gt;src/components/inputs/FolderSelector.vue -->
<g id="edge37" class="edge">
<title>src/views/NavBar.vue&#45;&gt;src/components/inputs/FolderSelector.vue</title>
<path fill="none" stroke="#000000" stroke-width="2" stroke-opacity="0.200000" d="M294.48,-246C306.59,-246 320.88,-246 334.63,-246"/>
<polygon fill="#000000" fill-opacity="0.200000" stroke="#000000" stroke-width="2" stroke-opacity="0.200000" points="334.54,-248.1 340.54,-246 334.54,-243.9 334.54,-248.1"/>
</g>
<!-- src/stores/videosStore.ts -->
<g id="node15" class="node">
<title>src/stores/videosStore.ts</title>
<g id="a_node15"><a xlink:href="src/stores/videosStore.ts" xlink:title="videosStore.ts">
<path fill="#ddfeff" stroke="black" d="M539.96,-376.62C539.96,-376.62 478.29,-376.62 478.29,-376.62 475.08,-376.62 471.88,-373.42 471.88,-370.21 471.88,-370.21 471.88,-363.79 471.88,-363.79 471.88,-360.58 475.08,-357.38 478.29,-357.38 478.29,-357.38 539.96,-357.38 539.96,-357.38 543.17,-357.38 546.38,-360.58 546.38,-363.79 546.38,-363.79 546.38,-370.21 546.38,-370.21 546.38,-373.42 543.17,-376.62 539.96,-376.62"/>
<text text-anchor="start" x="479.88" y="-364.07" font-family="Helvetica,sans-Serif" font-size="9.00">videosStore.ts</text>
</a>
</g>
</g>
<!-- src/views/NavBar.vue&#45;&gt;src/stores/videosStore.ts -->
<g id="edge39" class="edge">
<title>src/views/NavBar.vue&#45;&gt;src/stores/videosStore.ts</title>
<path fill="none" stroke="#000000" stroke-width="2" stroke-opacity="0.200000" d="M270.38,-256.04C279.88,-269.92 298.85,-294.86 321,-309 364.84,-336.99 423.08,-352.24 462.87,-359.98"/>
<polygon fill="#000000" fill-opacity="0.200000" stroke="#000000" stroke-width="2" stroke-opacity="0.200000" points="462.31,-362.01 468.6,-361.05 463.09,-357.88 462.31,-362.01"/>
</g>
<!-- src/views/NavBar.vue&#45;&gt;src/stores/appStateStore.ts -->
<g id="edge38" class="edge">
<title>src/views/NavBar.vue&#45;&gt;src/stores/appStateStore.ts</title>
<path fill="none" stroke="#000000" stroke-width="2" stroke-opacity="0.200000" d="M275.38,-255.89C286.41,-264.92 303.88,-278.02 321,-286 365.21,-306.6 419.38,-319.9 458.05,-327.57"/>
<polygon fill="#000000" fill-opacity="0.200000" stroke="#000000" stroke-width="2" stroke-opacity="0.200000" points="457.28,-329.56 463.57,-328.64 458.08,-325.44 457.28,-329.56"/>
</g>
<!-- src/components/VideoCard.vue -->
<g id="node12" class="node">
<title>src/components/VideoCard.vue</title>
<g id="a_node12"><a xlink:href="src/components/VideoCard.vue" xlink:title="VideoCard.vue">
<path fill="#41f083" stroke="black" d="M421.58,-156.62C421.58,-156.62 358.42,-156.62 358.42,-156.62 355.21,-156.62 352,-153.42 352,-150.21 352,-150.21 352,-143.79 352,-143.79 352,-140.58 355.21,-137.38 358.42,-137.38 358.42,-137.38 421.58,-137.38 421.58,-137.38 424.79,-137.38 428,-140.58 428,-143.79 428,-143.79 428,-150.21 428,-150.21 428,-153.42 424.79,-156.62 421.58,-156.62"/>
<text text-anchor="start" x="360" y="-144.07" font-family="Helvetica,sans-Serif" font-size="9.00">VideoCard.vue</text>
</a>
</g>
</g>
<!-- src/views/VideoGallery.vue&#45;&gt;src/components/VideoCard.vue -->
<g id="edge40" class="edge">
<title>src/views/VideoGallery.vue&#45;&gt;src/components/VideoCard.vue</title>
<path fill="none" stroke="#000000" stroke-width="2" stroke-opacity="0.200000" d="M305.09,-207.21C308.01,-205.52 310.71,-203.47 313,-201 325.03,-188.03 308.58,-174.6 321,-162 326.98,-155.93 334.83,-152.06 343.06,-149.65"/>
<polygon fill="#000000" fill-opacity="0.200000" stroke="#000000" stroke-width="2" stroke-opacity="0.200000" points="343.39,-151.73 348.76,-148.32 342.44,-147.64 343.39,-151.73"/>
</g>
<!-- src/views/VideoGallery.vue&#45;&gt;src/stores/videosStore.ts -->
<g id="edge41" class="edge">
<title>src/views/VideoGallery.vue&#45;&gt;src/stores/videosStore.ts</title>
<path fill="none" stroke="#000000" stroke-width="2" stroke-opacity="0.200000" d="M305.28,-223.51C308.16,-225.29 310.8,-227.43 313,-230 329.35,-249.1 304.6,-266.94 321,-286 360.35,-331.72 408.42,-282.27 451,-325 459.83,-333.86 450.19,-343.11 459,-352 460.43,-353.44 461.99,-354.74 463.65,-355.92"/>
<polygon fill="#000000" fill-opacity="0.200000" stroke="#000000" stroke-width="2" stroke-opacity="0.200000" points="462.57,-357.72 468.83,-358.84 464.63,-354.06 462.57,-357.72"/>
</g>
<!-- src/application/index.ts -->
<g id="node5" class="node">
<title>src/application/index.ts</title>
<g id="a_node5"><a xlink:href="src/application/index.ts" xlink:title="index.ts">
<path fill="#ddfeff" stroke="black" d="M623.58,-181.62C623.58,-181.62 582.42,-181.62 582.42,-181.62 579.21,-181.62 576,-178.42 576,-175.21 576,-175.21 576,-168.79 576,-168.79 576,-165.58 579.21,-162.38 582.42,-162.38 582.42,-162.38 623.58,-162.38 623.58,-162.38 626.79,-162.38 630,-165.58 630,-168.79 630,-168.79 630,-175.21 630,-175.21 630,-178.42 626.79,-181.62 623.58,-181.62"/>
<text text-anchor="start" x="587.25" y="-169.07" font-family="Helvetica,sans-Serif" font-size="9.00">index.ts</text>
</a>
</g>
</g>
<!-- src/application/services/FiltersService.ts -->
<g id="node6" class="node">
<title>src/application/services/FiltersService.ts</title>
<g id="a_node6"><a xlink:href="src/application/services/FiltersService.ts" xlink:title="FiltersService.ts">
<path fill="#ddfeff" stroke="black" d="M733.58,-150.62C733.58,-150.62 665.17,-150.62 665.17,-150.62 661.96,-150.62 658.75,-147.42 658.75,-144.21 658.75,-144.21 658.75,-137.79 658.75,-137.79 658.75,-134.58 661.96,-131.38 665.17,-131.38 665.17,-131.38 733.58,-131.38 733.58,-131.38 736.79,-131.38 740,-134.58 740,-137.79 740,-137.79 740,-144.21 740,-144.21 740,-147.42 736.79,-150.62 733.58,-150.62"/>
<text text-anchor="start" x="666.75" y="-138.07" font-family="Helvetica,sans-Serif" font-size="9.00">FiltersService.ts</text>
</a>
</g>
</g>
<!-- src/application/index.ts&#45;&gt;src/application/services/FiltersService.ts -->
<g id="edge4" class="edge">
<title>src/application/index.ts&#45;&gt;src/application/services/FiltersService.ts</title>
<path fill="none" stroke="#000000" stroke-width="2" stroke-opacity="0.200000" d="M623.5,-162.02C628.18,-159.86 633.21,-157.71 638,-156 641.87,-154.62 645.92,-153.33 650.01,-152.11"/>
<polygon fill="#000000" fill-opacity="0.200000" stroke="#000000" stroke-width="2" stroke-opacity="0.200000" points="650.3,-154.21 655.51,-150.57 649.17,-150.17 650.3,-154.21"/>
</g>
<!-- src/application/services/VideoMetadataService.ts -->
<g id="node7" class="node">
<title>src/application/services/VideoMetadataService.ts</title>
<g id="a_node7"><a xlink:href="src/application/services/VideoMetadataService.ts" xlink:title="VideoMetadataService.ts">
<path fill="#ddfeff" stroke="black" d="M875.83,-181.62C875.83,-181.62 772.17,-181.62 772.17,-181.62 768.96,-181.62 765.75,-178.42 765.75,-175.21 765.75,-175.21 765.75,-168.79 765.75,-168.79 765.75,-165.58 768.96,-162.38 772.17,-162.38 772.17,-162.38 875.83,-162.38 875.83,-162.38 879.04,-162.38 882.25,-165.58 882.25,-168.79 882.25,-168.79 882.25,-175.21 882.25,-175.21 882.25,-178.42 879.04,-181.62 875.83,-181.62"/>
<text text-anchor="start" x="773.75" y="-169.07" font-family="Helvetica,sans-Serif" font-size="9.00">VideoMetadataService.ts</text>
</a>
</g>
</g>
<!-- src/application/index.ts&#45;&gt;src/application/services/VideoMetadataService.ts -->
<g id="edge5" class="edge">
<title>src/application/index.ts&#45;&gt;src/application/services/VideoMetadataService.ts</title>
<path fill="none" stroke="#000000" stroke-width="2" stroke-opacity="0.200000" d="M621.47,-182.01C626.63,-184.47 632.4,-186.75 638,-188 684.02,-198.29 737.85,-191.59 775.54,-183.97"/>
<polygon fill="#000000" fill-opacity="0.200000" stroke="#000000" stroke-width="2" stroke-opacity="0.200000" points="775.88,-186.04 781.32,-182.75 775.01,-181.93 775.88,-186.04"/>
</g>
<!-- src/application/services/VideoParserService.ts -->
<g id="node8" class="node">
<title>src/application/services/VideoParserService.ts</title>
<g id="a_node8"><a xlink:href="src/application/services/VideoParserService.ts" xlink:title="VideoParserService.ts">
<path fill="#ddfeff" stroke="black" d="M746.33,-181.62C746.33,-181.62 652.42,-181.62 652.42,-181.62 649.21,-181.62 646,-178.42 646,-175.21 646,-175.21 646,-168.79 646,-168.79 646,-165.58 649.21,-162.38 652.42,-162.38 652.42,-162.38 746.33,-162.38 746.33,-162.38 749.54,-162.38 752.75,-165.58 752.75,-168.79 752.75,-168.79 752.75,-175.21 752.75,-175.21 752.75,-178.42 749.54,-181.62 746.33,-181.62"/>
<text text-anchor="start" x="654" y="-169.07" font-family="Helvetica,sans-Serif" font-size="9.00">VideoParserService.ts</text>
</a>
</g>
</g>
<!-- src/application/index.ts&#45;&gt;src/application/services/VideoParserService.ts -->
<g id="edge6" class="edge">
<title>src/application/index.ts&#45;&gt;src/application/services/VideoParserService.ts</title>
<path fill="none" stroke="#000000" stroke-width="2" stroke-opacity="0.200000" d="M630.29,-172C632.39,-172 634.56,-172 636.77,-172"/>
<polygon fill="#000000" fill-opacity="0.200000" stroke="#000000" stroke-width="2" stroke-opacity="0.200000" points="636.48,-174.1 642.48,-172 636.48,-169.9 636.48,-174.1"/>
</g>
<!-- src/infrastructure/index.ts -->
<g id="node9" class="node">
<title>src/infrastructure/index.ts</title>
<g id="a_node9"><a xlink:href="src/infrastructure/index.ts" xlink:title="index.ts">
<path fill="#ddfeff" stroke="black" d="M961.83,-181.62C961.83,-181.62 920.67,-181.62 920.67,-181.62 917.46,-181.62 914.25,-178.42 914.25,-175.21 914.25,-175.21 914.25,-168.79 914.25,-168.79 914.25,-165.58 917.46,-162.38 920.67,-162.38 920.67,-162.38 961.83,-162.38 961.83,-162.38 965.04,-162.38 968.25,-165.58 968.25,-168.79 968.25,-168.79 968.25,-175.21 968.25,-175.21 968.25,-178.42 965.04,-181.62 961.83,-181.62"/>
<text text-anchor="start" x="925.5" y="-169.07" font-family="Helvetica,sans-Serif" font-size="9.00">index.ts</text>
</a>
</g>
</g>
<!-- src/application/services/VideoMetadataService.ts&#45;&gt;src/infrastructure/index.ts -->
<g id="edge7" class="edge">
<title>src/application/services/VideoMetadataService.ts&#45;&gt;src/infrastructure/index.ts</title>
<path fill="none" stroke="#000000" stroke-width="2" stroke-opacity="0.200000" d="M882.62,-172C890.3,-172 897.98,-172 905.11,-172"/>
<polygon fill="#000000" fill-opacity="0.200000" stroke="#000000" stroke-width="2" stroke-opacity="0.200000" points="904.78,-174.1 910.78,-172 904.78,-169.9 904.78,-174.1"/>
</g>
<!-- src/application/services/VideoParserService.ts&#45;&gt;src/application/services/VideoMetadataService.ts -->
<g id="edge8" class="edge">
<title>src/application/services/VideoParserService.ts&#45;&gt;src/application/services/VideoMetadataService.ts</title>
<path fill="none" stroke="#000000" stroke-width="2" stroke-opacity="0.200000" d="M753.09,-172C754.39,-172 755.69,-172 757,-172"/>
<polygon fill="#000000" fill-opacity="0.200000" stroke="#000000" stroke-width="2" stroke-opacity="0.200000" points="756.61,-174.1 762.61,-172 756.61,-169.9 756.61,-174.1"/>
</g>
<!-- src/infrastructure/database/migrations/index.ts -->
<g id="node23" class="node">
<title>src/infrastructure/database/migrations/index.ts</title>
<g id="a_node23"><a xlink:href="src/infrastructure/database/migrations/index.ts" xlink:title="index.ts">
<path fill="#ddfeff" stroke="black" d="M1193.08,-136.62C1193.08,-136.62 1151.92,-136.62 1151.92,-136.62 1148.71,-136.62 1145.5,-133.42 1145.5,-130.21 1145.5,-130.21 1145.5,-123.79 1145.5,-123.79 1145.5,-120.58 1148.71,-117.38 1151.92,-117.38 1151.92,-117.38 1193.08,-117.38 1193.08,-117.38 1196.29,-117.38 1199.5,-120.58 1199.5,-123.79 1199.5,-123.79 1199.5,-130.21 1199.5,-130.21 1199.5,-133.42 1196.29,-136.62 1193.08,-136.62"/>
<text text-anchor="start" x="1156.75" y="-124.08" font-family="Helvetica,sans-Serif" font-size="9.00">index.ts</text>
</a>
</g>
</g>
<!-- src/infrastructure/index.ts&#45;&gt;src/infrastructure/database/migrations/index.ts -->
<g id="edge22" class="edge">
<title>src/infrastructure/index.ts&#45;&gt;src/infrastructure/database/migrations/index.ts</title>
<path fill="none" stroke="#000000" stroke-width="2" stroke-opacity="0.200000" d="M955.46,-161.99C961.49,-157.92 968.92,-153.58 976.25,-151 1029.91,-132.15 1096.38,-127.67 1136.29,-126.84"/>
<polygon fill="#000000" fill-opacity="0.200000" stroke="#000000" stroke-width="2" stroke-opacity="0.200000" points="1136.11,-128.94 1142.08,-126.75 1136.05,-124.74 1136.11,-128.94"/>
</g>
<!-- src/infrastructure/repository/MetadataRepository.ts -->
<g id="node28" class="node">
<title>src/infrastructure/repository/MetadataRepository.ts</title>
<g id="a_node28"><a xlink:href="src/infrastructure/repository/MetadataRepository.ts" xlink:title="MetadataRepository.ts">
<path fill="#ddfeff" stroke="black" d="M1085.33,-181.62C1085.33,-181.62 990.67,-181.62 990.67,-181.62 987.46,-181.62 984.25,-178.42 984.25,-175.21 984.25,-175.21 984.25,-168.79 984.25,-168.79 984.25,-165.58 987.46,-162.38 990.67,-162.38 990.67,-162.38 1085.33,-162.38 1085.33,-162.38 1088.54,-162.38 1091.75,-165.58 1091.75,-168.79 1091.75,-168.79 1091.75,-175.21 1091.75,-175.21 1091.75,-178.42 1088.54,-181.62 1085.33,-181.62"/>
<text text-anchor="start" x="992.25" y="-169.07" font-family="Helvetica,sans-Serif" font-size="9.00">MetadataRepository.ts</text>
</a>
</g>
</g>
<!-- src/infrastructure/index.ts&#45;&gt;src/infrastructure/repository/MetadataRepository.ts -->
<g id="edge23" class="edge">
<title>src/infrastructure/index.ts&#45;&gt;src/infrastructure/repository/MetadataRepository.ts</title>
<path fill="none" stroke="#000000" stroke-width="2" stroke-opacity="0.200000" d="M968.64,-172C970.75,-172 972.93,-172 975.15,-172"/>
<polygon fill="#000000" fill-opacity="0.200000" stroke="#000000" stroke-width="2" stroke-opacity="0.200000" points="974.89,-174.1 980.89,-172 974.89,-169.9 974.89,-174.1"/>
</g>
<!-- src/infrastructure/repository/VideoRepository.ts -->
<g id="node29" class="node">
<title>src/infrastructure/repository/VideoRepository.ts</title>
<g id="a_node29"><a xlink:href="src/infrastructure/repository/VideoRepository.ts" xlink:title="VideoRepository.ts">
<path fill="#ddfeff" stroke="black" d="M1078.21,-212.62C1078.21,-212.62 997.79,-212.62 997.79,-212.62 994.58,-212.62 991.38,-209.42 991.38,-206.21 991.38,-206.21 991.38,-199.79 991.38,-199.79 991.38,-196.58 994.58,-193.38 997.79,-193.38 997.79,-193.38 1078.21,-193.38 1078.21,-193.38 1081.42,-193.38 1084.62,-196.58 1084.62,-199.79 1084.62,-199.79 1084.62,-206.21 1084.62,-206.21 1084.62,-209.42 1081.42,-212.62 1078.21,-212.62"/>
<text text-anchor="start" x="999.38" y="-200.07" font-family="Helvetica,sans-Serif" font-size="9.00">VideoRepository.ts</text>
</a>
</g>
</g>
<!-- src/infrastructure/index.ts&#45;&gt;src/infrastructure/repository/VideoRepository.ts -->
<g id="edge24" class="edge">
<title>src/infrastructure/index.ts&#45;&gt;src/infrastructure/repository/VideoRepository.ts</title>
<path fill="none" stroke="#000000" stroke-width="2" stroke-opacity="0.200000" d="M961.75,-181.98C966.42,-184.15 971.45,-186.3 976.25,-188 978.6,-188.83 981.02,-189.64 983.48,-190.41"/>
<polygon fill="#000000" fill-opacity="0.200000" stroke="#000000" stroke-width="2" stroke-opacity="0.200000" points="982.66,-192.36 989.01,-192.07 983.86,-188.34 982.66,-192.36"/>
</g>
<!-- src/assets/effects/FadeTransition.vue -->
<g id="node10" class="node">
<title>src/assets/effects/FadeTransition.vue</title>
<g id="a_node10"><a xlink:href="src/assets/effects/FadeTransition.vue" xlink:title="no&#45;orphans">
<path fill="#ccffcc" stroke="orange" d="M182.33,-282.62C182.33,-282.62 100.42,-282.62 100.42,-282.62 97.21,-282.62 94,-279.42 94,-276.21 94,-276.21 94,-269.79 94,-269.79 94,-266.58 97.21,-263.38 100.42,-263.38 100.42,-263.38 182.33,-263.38 182.33,-263.38 185.54,-263.38 188.75,-266.58 188.75,-269.79 188.75,-269.79 188.75,-276.21 188.75,-276.21 188.75,-279.42 185.54,-282.62 182.33,-282.62"/>
<text text-anchor="start" x="102" y="-270.07" font-family="Helvetica,sans-Serif" font-size="9.00" fill="orange">FadeTransition.vue</text>
</a>
</g>
</g>
<!-- src/assets/main.css -->
<g id="node11" class="node">
<title>src/assets/main.css</title>
<g id="a_node11"><a xlink:href="src/assets/main.css" xlink:title="main.css">
<path fill="#ffffcc" stroke="black" d="M162.08,-246.62C162.08,-246.62 120.67,-246.62 120.67,-246.62 117.46,-246.62 114.25,-243.42 114.25,-240.21 114.25,-240.21 114.25,-233.79 114.25,-233.79 114.25,-230.58 117.46,-227.38 120.67,-227.38 120.67,-227.38 162.08,-227.38 162.08,-227.38 165.29,-227.38 168.5,-230.58 168.5,-233.79 168.5,-233.79 168.5,-240.21 168.5,-240.21 168.5,-243.42 165.29,-246.62 162.08,-246.62"/>
<text text-anchor="start" x="122.25" y="-234.07" font-family="Helvetica,sans-Serif" font-size="9.00">main.css</text>
</a>
</g>
</g>
<!-- src/components/VideoCard.vue&#45;&gt;src/application/index.ts -->
<g id="edge10" class="edge">
<title>src/components/VideoCard.vue&#45;&gt;src/application/index.ts</title>
<path fill="none" stroke="#000000" stroke-width="2" stroke-opacity="0.200000" d="M428.43,-144.71C463.02,-143.49 515.61,-143.93 560,-154 564.84,-155.1 569.81,-156.73 574.58,-158.58"/>
<polygon fill="#000000" fill-opacity="0.200000" stroke="#000000" stroke-width="2" stroke-opacity="0.200000" points="573.7,-160.49 580.05,-160.88 575.33,-156.61 573.7,-160.49"/>
</g>
<!-- src/components/VideoEmbed.vue -->
<g id="node13" class="node">
<title>src/components/VideoEmbed.vue</title>
<g id="a_node13"><a xlink:href="src/components/VideoEmbed.vue" xlink:title="VideoEmbed.vue">
<path fill="#41f083" stroke="black" d="M545.58,-179.62C545.58,-179.62 472.67,-179.62 472.67,-179.62 469.46,-179.62 466.25,-176.42 466.25,-173.21 466.25,-173.21 466.25,-166.79 466.25,-166.79 466.25,-163.58 469.46,-160.38 472.67,-160.38 472.67,-160.38 545.58,-160.38 545.58,-160.38 548.79,-160.38 552,-163.58 552,-166.79 552,-166.79 552,-173.21 552,-173.21 552,-176.42 548.79,-179.62 545.58,-179.62"/>
<text text-anchor="start" x="474.25" y="-167.07" font-family="Helvetica,sans-Serif" font-size="9.00">VideoEmbed.vue</text>
</a>
</g>
</g>
<!-- src/components/VideoCard.vue&#45;&gt;src/components/VideoEmbed.vue -->
<g id="edge9" class="edge">
<title>src/components/VideoCard.vue&#45;&gt;src/components/VideoEmbed.vue</title>
<path fill="none" stroke="#000000" stroke-width="2" stroke-opacity="0.200000" d="M428.38,-154.34C437.5,-156.13 447.42,-158.08 457.06,-159.97"/>
<polygon fill="#000000" fill-opacity="0.200000" stroke="#000000" stroke-width="2" stroke-opacity="0.200000" points="456.55,-162.01 462.84,-161.11 457.35,-157.89 456.55,-162.01"/>
</g>
<!-- src/components/inputs/FolderSelector.vue&#45;&gt;src/application/index.ts -->
<g id="edge11" class="edge">
<title>src/components/inputs/FolderSelector.vue&#45;&gt;src/application/index.ts</title>
<path fill="none" stroke="#000000" stroke-width="2" stroke-opacity="0.200000" d="M436.56,-245.53C472.08,-243.43 521.66,-236.56 560,-216 572.04,-209.54 582.64,-198.37 590.18,-188.9"/>
<polygon fill="#000000" fill-opacity="0.200000" stroke="#000000" stroke-width="2" stroke-opacity="0.200000" points="591.78,-190.27 593.72,-184.21 588.43,-187.74 591.78,-190.27"/>
</g>
<!-- src/components/inputs/FolderSelector.vue&#45;&gt;src/stores/videosStore.ts -->
<g id="edge12" class="edge">
<title>src/components/inputs/FolderSelector.vue&#45;&gt;src/stores/videosStore.ts</title>
<path fill="none" stroke="#000000" stroke-width="2" stroke-opacity="0.200000" d="M402.16,-255.71C415.84,-268.24 438.69,-291.38 451,-316 458.33,-330.66 447.87,-339.97 459,-352 460.54,-353.66 462.25,-355.14 464.09,-356.46"/>
<polygon fill="#000000" fill-opacity="0.200000" stroke="#000000" stroke-width="2" stroke-opacity="0.200000" points="462.83,-358.16 469.09,-359.28 464.9,-354.5 462.83,-358.16"/>
</g>
<!-- src/stores/videosStore.ts&#45;&gt;src/application/index.ts -->
<g id="edge36" class="edge">
<title>src/stores/videosStore.ts&#45;&gt;src/application/index.ts</title>
<path fill="none" stroke="#000000" stroke-width="2" stroke-opacity="0.200000" d="M546.79,-360.93C551.73,-358.78 556.35,-355.89 560,-352 581.96,-328.61 595.24,-231.93 600,-190.73"/>
<polygon fill="#000000" fill-opacity="0.200000" stroke="#000000" stroke-width="2" stroke-opacity="0.200000" points="602.07,-191.16 600.65,-184.97 597.89,-190.7 602.07,-191.16"/>
</g>
<!-- src/domain/constants/index.ts -->
<g id="node17" class="node">
<title>src/domain/constants/index.ts</title>
<g id="a_node17"><a xlink:href="src/domain/constants/index.ts" xlink:title="index.ts">
<path fill="#ddfeff" stroke="black" d="M1328.71,-310.62C1328.71,-310.62 1287.54,-310.62 1287.54,-310.62 1284.33,-310.62 1281.12,-307.42 1281.12,-304.21 1281.12,-304.21 1281.12,-297.79 1281.12,-297.79 1281.12,-294.58 1284.33,-291.38 1287.54,-291.38 1287.54,-291.38 1328.71,-291.38 1328.71,-291.38 1331.92,-291.38 1335.12,-294.58 1335.12,-297.79 1335.12,-297.79 1335.12,-304.21 1335.12,-304.21 1335.12,-307.42 1331.92,-310.62 1328.71,-310.62"/>
<text text-anchor="start" x="1292.38" y="-298.07" font-family="Helvetica,sans-Serif" font-size="9.00">index.ts</text>
</a>
</g>
</g>
<!-- src/domain/entities/Metadata.ts -->
<g id="node18" class="node">
<title>src/domain/entities/Metadata.ts</title>
<g id="a_node18"><a xlink:href="src/domain/entities/Metadata.ts" xlink:title="Metadata.ts">
<path fill="#ddfeff" stroke="black" d="M1443.83,-373.62C1443.83,-373.62 1393.42,-373.62 1393.42,-373.62 1390.21,-373.62 1387,-370.42 1387,-367.21 1387,-367.21 1387,-360.79 1387,-360.79 1387,-357.58 1390.21,-354.38 1393.42,-354.38 1393.42,-354.38 1443.83,-354.38 1443.83,-354.38 1447.04,-354.38 1450.25,-357.58 1450.25,-360.79 1450.25,-360.79 1450.25,-367.21 1450.25,-367.21 1450.25,-370.42 1447.04,-373.62 1443.83,-373.62"/>
<text text-anchor="start" x="1395" y="-361.07" font-family="Helvetica,sans-Serif" font-size="9.00">Metadata.ts</text>
</a>
</g>
</g>
<!-- src/domain/entities/Video.ts -->
<g id="node19" class="node">
<title>src/domain/entities/Video.ts</title>
<g id="a_node19"><a xlink:href="src/domain/entities/Video.ts" xlink:title="Video.ts">
<path fill="#ddfeff" stroke="black" d="M1439.21,-404.62C1439.21,-404.62 1398.04,-404.62 1398.04,-404.62 1394.83,-404.62 1391.62,-401.42 1391.62,-398.21 1391.62,-398.21 1391.62,-391.79 1391.62,-391.79 1391.62,-388.58 1394.83,-385.38 1398.04,-385.38 1398.04,-385.38 1439.21,-385.38 1439.21,-385.38 1442.42,-385.38 1445.62,-388.58 1445.62,-391.79 1445.62,-391.79 1445.62,-398.21 1445.62,-398.21 1445.62,-401.42 1442.42,-404.62 1439.21,-404.62"/>
<text text-anchor="start" x="1402.12" y="-392.07" font-family="Helvetica,sans-Serif" font-size="9.00">Video.ts</text>
</a>
</g>
</g>
<!-- src/domain/repositories/IMetadataRepository.ts -->
<g id="node20" class="node">
<title>src/domain/repositories/IMetadataRepository.ts</title>
<g id="a_node20"><a xlink:href="src/domain/repositories/IMetadataRepository.ts" xlink:title="IMetadataRepository.ts">
<path fill="#ddfeff" stroke="black" d="M1356.58,-373.62C1356.58,-373.62 1259.67,-373.62 1259.67,-373.62 1256.46,-373.62 1253.25,-370.42 1253.25,-367.21 1253.25,-367.21 1253.25,-360.79 1253.25,-360.79 1253.25,-357.58 1256.46,-354.38 1259.67,-354.38 1259.67,-354.38 1356.58,-354.38 1356.58,-354.38 1359.79,-354.38 1363,-357.58 1363,-360.79 1363,-360.79 1363,-367.21 1363,-367.21 1363,-370.42 1359.79,-373.62 1356.58,-373.62"/>
<text text-anchor="start" x="1261.25" y="-361.07" font-family="Helvetica,sans-Serif" font-size="9.00">IMetadataRepository.ts</text>
</a>
</g>
</g>
<!-- src/domain/repositories/IMetadataRepository.ts&#45;&gt;src/domain/entities/Metadata.ts -->
<g id="edge14" class="edge">
<title>src/domain/repositories/IMetadataRepository.ts&#45;&gt;src/domain/entities/Metadata.ts</title>
<path fill="none" stroke="#000000" stroke-opacity="0.200000" d="M1363.38,-364C1368.71,-364 1374.05,-364 1379.19,-364"/>
<polygon fill="none" stroke="#000000" stroke-opacity="0.200000" points="1379.02,-366.1 1385.02,-364 1379.02,-361.9 1379.02,-366.1"/>
</g>
<!-- src/domain/repositories/IVideoRepository.ts -->
<g id="node21" class="node">
<title>src/domain/repositories/IVideoRepository.ts</title>
<g id="a_node21"><a xlink:href="src/domain/repositories/IVideoRepository.ts" xlink:title="IVideoRepository.ts">
<path fill="#ddfeff" stroke="black" d="M1349.46,-404.62C1349.46,-404.62 1266.79,-404.62 1266.79,-404.62 1263.58,-404.62 1260.38,-401.42 1260.38,-398.21 1260.38,-398.21 1260.38,-391.79 1260.38,-391.79 1260.38,-388.58 1263.58,-385.38 1266.79,-385.38 1266.79,-385.38 1349.46,-385.38 1349.46,-385.38 1352.67,-385.38 1355.88,-388.58 1355.88,-391.79 1355.88,-391.79 1355.88,-398.21 1355.88,-398.21 1355.88,-401.42 1352.67,-404.62 1349.46,-404.62"/>
<text text-anchor="start" x="1268.38" y="-392.07" font-family="Helvetica,sans-Serif" font-size="9.00">IVideoRepository.ts</text>
</a>
</g>
</g>
<!-- src/domain/repositories/IVideoRepository.ts&#45;&gt;src/domain/entities/Video.ts -->
<g id="edge15" class="edge">
<title>src/domain/repositories/IVideoRepository.ts&#45;&gt;src/domain/entities/Video.ts</title>
<path fill="none" stroke="#000000" stroke-opacity="0.200000" d="M1356.08,-395C1365.39,-395 1374.98,-395 1383.74,-395"/>
<polygon fill="none" stroke="#000000" stroke-opacity="0.200000" points="1383.69,-397.1 1389.69,-395 1383.69,-392.9 1383.69,-397.1"/>
</g>
<!-- src/infrastructure/database/DatabaseConnection.ts -->
<g id="node22" class="node">
<title>src/infrastructure/database/DatabaseConnection.ts</title>
<g id="a_node22"><a xlink:href="src/infrastructure/database/DatabaseConnection.ts" xlink:title="DatabaseConnection.ts">
<path fill="#ddfeff" stroke="black" d="M1222.83,-212.62C1222.83,-212.62 1122.17,-212.62 1122.17,-212.62 1118.96,-212.62 1115.75,-209.42 1115.75,-206.21 1115.75,-206.21 1115.75,-199.79 1115.75,-199.79 1115.75,-196.58 1118.96,-193.38 1122.17,-193.38 1122.17,-193.38 1222.83,-193.38 1222.83,-193.38 1226.04,-193.38 1229.25,-196.58 1229.25,-199.79 1229.25,-199.79 1229.25,-206.21 1229.25,-206.21 1229.25,-209.42 1226.04,-212.62 1222.83,-212.62"/>
<text text-anchor="start" x="1123.75" y="-200.07" font-family="Helvetica,sans-Serif" font-size="9.00">DatabaseConnection.ts</text>
</a>
</g>
</g>
<!-- src/infrastructure/database/DatabaseConnection.ts&#45;&gt;src/domain/constants/index.ts -->
<g id="edge16" class="edge">
<title>src/infrastructure/database/DatabaseConnection.ts&#45;&gt;src/domain/constants/index.ts</title>
<path fill="none" stroke="#000000" stroke-width="2" stroke-opacity="0.200000" d="M1187.3,-213.12C1210.82,-230.37 1258.83,-265.58 1286.4,-285.8"/>
<polygon fill="#000000" fill-opacity="0.200000" stroke="#000000" stroke-width="2" stroke-opacity="0.200000" points="1285.08,-287.44 1291.16,-289.29 1287.56,-284.05 1285.08,-287.44"/>
</g>
<!-- src/infrastructure/database/migrations/migrations.ts -->
<g id="node24" class="node">
<title>src/infrastructure/database/migrations/migrations.ts</title>
<g id="a_node24"><a xlink:href="src/infrastructure/database/migrations/migrations.ts" xlink:title="migrations.ts">
<path fill="#ddfeff" stroke="black" d="M1336.71,-130.62C1336.71,-130.62 1279.54,-130.62 1279.54,-130.62 1276.33,-130.62 1273.12,-127.42 1273.12,-124.21 1273.12,-124.21 1273.12,-117.79 1273.12,-117.79 1273.12,-114.58 1276.33,-111.38 1279.54,-111.38 1279.54,-111.38 1336.71,-111.38 1336.71,-111.38 1339.92,-111.38 1343.12,-114.58 1343.12,-117.79 1343.12,-117.79 1343.12,-124.21 1343.12,-124.21 1343.12,-127.42 1339.92,-130.62 1336.71,-130.62"/>
<text text-anchor="start" x="1281.12" y="-118.08" font-family="Helvetica,sans-Serif" font-size="9.00">migrations.ts</text>
</a>
</g>
</g>
<!-- src/infrastructure/database/migrations/index.ts&#45;&gt;src/infrastructure/database/migrations/migrations.ts -->
<g id="edge17" class="edge">
<title>src/infrastructure/database/migrations/index.ts&#45;&gt;src/infrastructure/database/migrations/migrations.ts</title>
<path fill="none" stroke="#000000" stroke-width="2" stroke-opacity="0.200000" d="M1199.9,-125.81C1220.74,-124.88 1249.98,-123.57 1272.67,-122.55"/>
<polygon fill="#000000" fill-opacity="0.200000" stroke="#000000" stroke-width="2" stroke-opacity="0.200000" points="1275.47,-121.15 1279.37,-129.25 1271.27,-125.35 1275.47,-121.15"/>
</g>
<!-- src/infrastructure/database/migrations/v1/index.ts -->
<g id="node25" class="node">
<title>src/infrastructure/database/migrations/v1/index.ts</title>
<g id="a_node25"><a xlink:href="src/infrastructure/database/migrations/v1/index.ts" xlink:title="index.ts">
<path fill="#ddfeff" stroke="black" d="M1439.21,-67.62C1439.21,-67.62 1398.04,-67.62 1398.04,-67.62 1394.83,-67.62 1391.62,-64.42 1391.62,-61.21 1391.62,-61.21 1391.62,-54.79 1391.62,-54.79 1391.62,-51.58 1394.83,-48.38 1398.04,-48.38 1398.04,-48.38 1439.21,-48.38 1439.21,-48.38 1442.42,-48.38 1445.62,-51.58 1445.62,-54.79 1445.62,-54.79 1445.62,-61.21 1445.62,-61.21 1445.62,-64.42 1442.42,-67.62 1439.21,-67.62"/>
<text text-anchor="start" x="1402.88" y="-55.08" font-family="Helvetica,sans-Serif" font-size="9.00">index.ts</text>
</a>
</g>
</g>
<!-- src/infrastructure/database/migrations/migrations.ts&#45;&gt;src/infrastructure/database/migrations/v1/index.ts -->
<g id="edge18" class="edge">
<title>src/infrastructure/database/migrations/migrations.ts&#45;&gt;src/infrastructure/database/migrations/v1/index.ts</title>
<path fill="none" stroke="#000000" stroke-width="2" stroke-opacity="0.200000" d="M1326.56,-110.88C1344.43,-100.5 1372.4,-84.26 1392.63,-72.51"/>
<polygon fill="#000000" fill-opacity="0.200000" stroke="#000000" stroke-width="2" stroke-opacity="0.200000" points="1393.48,-74.45 1397.62,-69.62 1391.37,-70.81 1393.48,-74.45"/>
</g>
<!-- src/infrastructure/database/migrations/v2/index.ts -->
<g id="node26" class="node">
<title>src/infrastructure/database/migrations/v2/index.ts</title>
<g id="a_node26"><a xlink:href="src/infrastructure/database/migrations/v2/index.ts" xlink:title="index.ts">
<path fill="#ddfeff" stroke="black" d="M1439.21,-130.62C1439.21,-130.62 1398.04,-130.62 1398.04,-130.62 1394.83,-130.62 1391.62,-127.42 1391.62,-124.21 1391.62,-124.21 1391.62,-117.79 1391.62,-117.79 1391.62,-114.58 1394.83,-111.38 1398.04,-111.38 1398.04,-111.38 1439.21,-111.38 1439.21,-111.38 1442.42,-111.38 1445.62,-114.58 1445.62,-117.79 1445.62,-117.79 1445.62,-124.21 1445.62,-124.21 1445.62,-127.42 1442.42,-130.62 1439.21,-130.62"/>
<text text-anchor="start" x="1402.88" y="-118.08" font-family="Helvetica,sans-Serif" font-size="9.00">index.ts</text>
</a>
</g>
</g>
<!-- src/infrastructure/database/migrations/migrations.ts&#45;&gt;src/infrastructure/database/migrations/v2/index.ts -->
<g id="edge19" class="edge">
<title>src/infrastructure/database/migrations/migrations.ts&#45;&gt;src/infrastructure/database/migrations/v2/index.ts</title>
<path fill="none" stroke="#000000" stroke-width="2" stroke-opacity="0.200000" d="M1343.46,-121C1355.94,-121 1370.07,-121 1382.62,-121"/>
<polygon fill="#000000" fill-opacity="0.200000" stroke="#000000" stroke-width="2" stroke-opacity="0.200000" points="1382.4,-123.1 1388.4,-121 1382.4,-118.9 1382.4,-123.1"/>
</g>
<!-- src/infrastructure/database/migrations/utils/index.ts -->
<g id="node27" class="node">
<title>src/infrastructure/database/migrations/utils/index.ts</title>
<g id="a_node27"><a xlink:href="src/infrastructure/database/migrations/utils/index.ts" xlink:title="index.ts">
<path fill="#ddfeff" stroke="black" d="M1529.83,-98.62C1529.83,-98.62 1488.67,-98.62 1488.67,-98.62 1485.46,-98.62 1482.25,-95.42 1482.25,-92.21 1482.25,-92.21 1482.25,-85.79 1482.25,-85.79 1482.25,-82.58 1485.46,-79.38 1488.67,-79.38 1488.67,-79.38 1529.83,-79.38 1529.83,-79.38 1533.04,-79.38 1536.25,-82.58 1536.25,-85.79 1536.25,-85.79 1536.25,-92.21 1536.25,-92.21 1536.25,-95.42 1533.04,-98.62 1529.83,-98.62"/>
<text text-anchor="start" x="1493.5" y="-86.08" font-family="Helvetica,sans-Serif" font-size="9.00">index.ts</text>
</a>
</g>
</g>
<!-- src/infrastructure/database/migrations/v1/index.ts&#45;&gt;src/infrastructure/database/migrations/utils/index.ts -->
<g id="edge20" class="edge">
<title>src/infrastructure/database/migrations/v1/index.ts&#45;&gt;src/infrastructure/database/migrations/utils/index.ts</title>
<path fill="none" stroke="#000000" stroke-width="2" stroke-opacity="0.200000" d="M1445.74,-67.13C1454.49,-70.2 1464.4,-73.66 1473.7,-76.91"/>
<polygon fill="#000000" fill-opacity="0.200000" stroke="#000000" stroke-width="2" stroke-opacity="0.200000" points="1472.81,-78.83 1479.16,-78.83 1474.19,-74.86 1472.81,-78.83"/>
</g>
<!-- src/infrastructure/database/migrations/v2/index.ts&#45;&gt;src/infrastructure/database/migrations/utils/index.ts -->
<g id="edge21" class="edge">
<title>src/infrastructure/database/migrations/v2/index.ts&#45;&gt;src/infrastructure/database/migrations/utils/index.ts</title>
<path fill="none" stroke="#000000" stroke-width="2" stroke-opacity="0.200000" d="M1445.74,-111.57C1454.49,-108.41 1464.4,-104.83 1473.7,-101.48"/>
<polygon fill="#000000" fill-opacity="0.200000" stroke="#000000" stroke-width="2" stroke-opacity="0.200000" points="1474.24,-103.51 1479.17,-99.5 1472.82,-99.56 1474.24,-103.51"/>
</g>
<!-- src/infrastructure/repository/MetadataRepository.ts&#45;&gt;src/domain/constants/index.ts -->
<g id="edge25" class="edge">
<title>src/infrastructure/repository/MetadataRepository.ts&#45;&gt;src/domain/constants/index.ts</title>
<path fill="none" stroke="#000000" stroke-width="2" stroke-opacity="0.200000" d="M1092.06,-180.61C1094.89,-182.39 1097.49,-184.5 1099.75,-187 1116.62,-205.65 1091.27,-224.01 1107.75,-243 1148.98,-290.5 1226.62,-300.2 1271.89,-301.55"/>
<polygon fill="#000000" fill-opacity="0.200000" stroke="#000000" stroke-width="2" stroke-opacity="0.200000" points="1271.7,-303.65 1277.74,-301.66 1271.78,-299.45 1271.7,-303.65"/>
</g>
<!-- src/infrastructure/repository/MetadataRepository.ts&#45;&gt;src/domain/entities/Metadata.ts -->
<g id="edge26" class="edge">
<title>src/infrastructure/repository/MetadataRepository.ts&#45;&gt;src/domain/entities/Metadata.ts</title>
<path fill="none" stroke="#000000" stroke-opacity="0.200000" d="M1092.02,-180.23C1094.9,-182.1 1097.52,-184.33 1099.75,-187 1118.01,-208.88 1095.54,-289.25 1107.75,-315 1141.38,-385.89 1164.2,-406.36 1237.25,-435 1264.92,-445.85 1348.55,-454.47 1371,-435 1389.99,-418.53 1363.37,-398.69 1379,-379 1379.67,-378.15 1380.4,-377.36 1381.17,-376.6"/>
<polygon fill="none" stroke="#000000" stroke-opacity="0.200000" points="1382.14,-378.5 1385.62,-373.18 1379.58,-375.18 1382.14,-378.5"/>
</g>
<!-- src/infrastructure/repository/MetadataRepository.ts&#45;&gt;src/domain/repositories/IMetadataRepository.ts -->
<g id="edge27" class="edge">
<title>src/infrastructure/repository/MetadataRepository.ts&#45;&gt;src/domain/repositories/IMetadataRepository.ts</title>
<path fill="none" stroke="#000000" stroke-opacity="0.200000" d="M1092.2,-180.48C1095,-182.29 1097.55,-184.45 1099.75,-187 1112.41,-201.72 1096.91,-257.89 1107.75,-274 1138.75,-320.05 1199.36,-342.86 1245.65,-353.95"/>
<polygon fill="none" stroke="#000000" stroke-opacity="0.200000" points="1245.16,-355.99 1251.47,-355.29 1246.1,-351.9 1245.16,-355.99"/>
</g>
<!-- src/infrastructure/repository/MetadataRepository.ts&#45;&gt;src/infrastructure/database/DatabaseConnection.ts -->
<g id="edge28" class="edge">
<title>src/infrastructure/repository/MetadataRepository.ts&#45;&gt;src/infrastructure/database/DatabaseConnection.ts</title>
<path fill="none" stroke="#000000" stroke-width="2" stroke-opacity="0.200000" d="M1082.02,-182.06C1094.05,-184.88 1107.26,-187.97 1119.74,-190.89"/>
<polygon fill="#000000" fill-opacity="0.200000" stroke="#000000" stroke-width="2" stroke-opacity="0.200000" points="1118.98,-192.87 1125.3,-192.19 1119.93,-188.78 1118.98,-192.87"/>
</g>
<!-- src/infrastructure/repository/VideoRepository.ts&#45;&gt;src/domain/constants/index.ts -->
<g id="edge29" class="edge">
<title>src/infrastructure/repository/VideoRepository.ts&#45;&gt;src/domain/constants/index.ts</title>
<path fill="none" stroke="#000000" stroke-width="2" stroke-opacity="0.200000" d="M1044.67,-213.01C1054.85,-229.92 1077.97,-263.77 1107.75,-279 1160.21,-305.83 1230.42,-306.8 1272,-304.38"/>
<polygon fill="#000000" fill-opacity="0.200000" stroke="#000000" stroke-width="2" stroke-opacity="0.200000" points="1272.06,-306.48 1277.9,-303.98 1271.78,-302.29 1272.06,-306.48"/>
</g>
<!-- src/infrastructure/repository/VideoRepository.ts&#45;&gt;src/domain/entities/Video.ts -->
<g id="edge30" class="edge">
<title>src/infrastructure/repository/VideoRepository.ts&#45;&gt;src/domain/entities/Video.ts</title>
<path fill="none" stroke="#000000" stroke-opacity="0.200000" d="M1042.41,-213.05C1050.79,-236.78 1074.2,-297.4 1107.75,-339 1154.27,-396.67 1167.41,-419.24 1237.25,-444 1293.28,-463.86 1316.37,-467.43 1371,-444 1386.66,-437.28 1399.55,-422.43 1407.78,-410.83"/>
<polygon fill="none" stroke="#000000" stroke-opacity="0.200000" points="1409.39,-412.2 1411.01,-406.05 1405.91,-409.85 1409.39,-412.2"/>
</g>
<!-- src/infrastructure/repository/VideoRepository.ts&#45;&gt;src/domain/repositories/IVideoRepository.ts -->
<g id="edge31" class="edge">
<title>src/infrastructure/repository/VideoRepository.ts&#45;&gt;src/domain/repositories/IVideoRepository.ts</title>
<path fill="none" stroke="#000000" stroke-opacity="0.200000" d="M1044.64,-212.86C1055.29,-230.89 1079.82,-269.72 1107.75,-296 1157.72,-343 1173.89,-353.7 1237.25,-380 1242.33,-382.11 1247.74,-383.93 1253.22,-385.51"/>
<polygon fill="none" stroke="#000000" stroke-opacity="0.200000" points="1252.37,-387.46 1258.71,-386.99 1253.46,-383.41 1252.37,-387.46"/>
</g>
<!-- src/infrastructure/repository/VideoRepository.ts&#45;&gt;src/infrastructure/database/DatabaseConnection.ts -->
<g id="edge32" class="edge">
<title>src/infrastructure/repository/VideoRepository.ts&#45;&gt;src/infrastructure/database/DatabaseConnection.ts</title>
<path fill="none" stroke="#000000" stroke-width="2" stroke-opacity="0.200000" d="M1084.97,-203C1092.06,-203 1099.5,-203 1106.9,-203"/>
<polygon fill="#000000" fill-opacity="0.200000" stroke="#000000" stroke-width="2" stroke-opacity="0.200000" points="1106.54,-205.1 1112.54,-203 1106.54,-200.9 1106.54,-205.1"/>
</g>
<!-- src/main.ts -->
<g id="node30" class="node">
<title>src/main.ts</title>
<g id="a_node30"><a xlink:href="src/main.ts" xlink:title="main.ts">
<path fill="#ddfeff" stroke="black" d="M63.58,-210.62C63.58,-210.62 22.42,-210.62 22.42,-210.62 19.21,-210.62 16,-207.42 16,-204.21 16,-204.21 16,-197.79 16,-197.79 16,-194.58 19.21,-191.38 22.42,-191.38 22.42,-191.38 63.58,-191.38 63.58,-191.38 66.79,-191.38 70,-194.58 70,-197.79 70,-197.79 70,-204.21 70,-204.21 70,-207.42 66.79,-210.62 63.58,-210.62"/>
<text text-anchor="start" x="27.62" y="-198.07" font-family="Helvetica,sans-Serif" font-size="9.00">main.ts</text>
</a>
</g>
</g>
<!-- src/main.ts&#45;&gt;src/App.vue -->
<g id="edge33" class="edge">
<title>src/main.ts&#45;&gt;src/App.vue</title>
<path fill="none" stroke="#000000" stroke-width="2" stroke-opacity="0.200000" d="M70.33,-201C81.07,-201 93.63,-201 105.13,-201"/>
<polygon fill="#000000" fill-opacity="0.200000" stroke="#000000" stroke-width="2" stroke-opacity="0.200000" points="105.04,-203.1 111.04,-201 105.04,-198.9 105.04,-203.1"/>
</g>
<!-- src/main.ts&#45;&gt;src/application/index.ts -->
<g id="edge35" class="edge">
<title>src/main.ts&#45;&gt;src/application/index.ts</title>
<path fill="none" stroke="#000000" stroke-width="2" stroke-opacity="0.200000" d="M59.39,-190.91C94.02,-169.19 181.37,-120 261.88,-120 261.88,-120 261.88,-120 391,-120 466.16,-120 491.78,-94.45 560,-126 573.14,-132.08 584.02,-144.38 591.42,-154.73"/>
<polygon fill="#000000" fill-opacity="0.200000" stroke="#000000" stroke-width="2" stroke-opacity="0.200000" points="589.6,-155.8 594.69,-159.62 593.09,-153.46 589.6,-155.8"/>
</g>
<!-- src/main.ts&#45;&gt;src/assets/main.css -->
<g id="edge34" class="edge">
<title>src/main.ts&#45;&gt;src/assets/main.css</title>
<path fill="none" stroke="#000000" stroke-width="2" stroke-opacity="0.200000" d="M56.96,-210.93C63.06,-215.19 70.61,-219.9 78,-223 86.52,-226.58 96.09,-229.31 105.14,-231.37"/>
<polygon fill="#000000" fill-opacity="0.200000" stroke="#000000" stroke-width="2" stroke-opacity="0.200000" points="104.68,-233.41 110.98,-232.59 105.54,-229.3 104.68,-233.41"/>
</g>
</g>
</svg>
