<?xml version="1.0" encoding="UTF-8" standalone="no"?>
<!DOCTYPE svg PUBLIC "-//W3C//DTD SVG 1.1//EN"
 "http://www.w3.org/Graphics/SVG/1.1/DTD/svg11.dtd">
<!-- Generated by graphviz version 9.0.0 (20230911.1827)
 -->
<!-- Title: dependency&#45;cruiser output Pages: 1 -->
<svg width="1595pt" height="657pt"
 viewBox="0.00 0.00 1595.00 657.00" xmlns="http://www.w3.org/2000/svg" xmlns:xlink="http://www.w3.org/1999/xlink">
<g id="graph0" class="graph" transform="scale(1 1) rotate(0) translate(4 653)">
<title>dependency&#45;cruiser output</title>
<polygon fill="white" stroke="none" points="-4,4 -4,-653 1591,-653 1591,4 -4,4"/>
<g id="clust1" class="cluster">
<title>cluster_src</title>
<path fill="#ffffff" stroke="black" stroke-width="2" d="M20,-8C20,-8 1567,-8 1567,-8 1573,-8 1579,-14 1579,-20 1579,-20 1579,-629 1579,-629 1579,-635 1573,-641 1567,-641 1567,-641 20,-641 20,-641 14,-641 8,-635 8,-629 8,-629 8,-20 8,-20 8,-14 14,-8 20,-8"/>
<text text-anchor="middle" x="793.5" y="-628.45" font-family="Helvetica,sans-Serif" font-weight="bold" font-size="9.00">src</text>
</g>
<g id="clust2" class="cluster">
<title>cluster_src/application</title>
<path fill="#ffffff" stroke="black" stroke-width="2" d="M512.25,-232C512.25,-232 949.5,-232 949.5,-232 955.5,-232 961.5,-238 961.5,-244 961.5,-244 961.5,-378 961.5,-378 961.5,-384 955.5,-390 949.5,-390 949.5,-390 512.25,-390 512.25,-390 506.25,-390 500.25,-384 500.25,-378 500.25,-378 500.25,-244 500.25,-244 500.25,-238 506.25,-232 512.25,-232"/>
<text text-anchor="middle" x="730.88" y="-377.45" font-family="Helvetica,sans-Serif" font-weight="bold" font-size="9.00">application</text>
</g>
<g id="clust3" class="cluster">
<title>cluster_src/application/services</title>
<path fill="#ffffff" stroke="black" stroke-width="2" d="M582.25,-246C582.25,-246 941.5,-246 941.5,-246 947.5,-246 953.5,-252 953.5,-258 953.5,-258 953.5,-351 953.5,-351 953.5,-357 947.5,-363 941.5,-363 941.5,-363 582.25,-363 582.25,-363 576.25,-363 570.25,-357 570.25,-351 570.25,-351 570.25,-258 570.25,-258 570.25,-252 576.25,-246 582.25,-246"/>
<text text-anchor="middle" x="761.88" y="-350.45" font-family="Helvetica,sans-Serif" font-weight="bold" font-size="9.00">services</text>
</g>
<g id="clust4" class="cluster">
<title>cluster_src/components</title>
<path fill="#ffffff" stroke="black" stroke-width="2" d="M265.25,-278C265.25,-278 480.25,-278 480.25,-278 486.25,-278 492.25,-284 492.25,-290 492.25,-290 492.25,-447 492.25,-447 492.25,-453 486.25,-459 480.25,-459 480.25,-459 265.25,-459 265.25,-459 259.25,-459 253.25,-453 253.25,-447 253.25,-447 253.25,-290 253.25,-290 253.25,-284 259.25,-278 265.25,-278"/>
<text text-anchor="middle" x="372.75" y="-446.45" font-family="Helvetica,sans-Serif" font-weight="bold" font-size="9.00">components</text>
</g>
<g id="clust5" class="cluster">
<title>cluster_src/components/inputs</title>
<path fill="#ffffff" stroke="black" stroke-width="2" d="M292.38,-286C292.38,-286 352.12,-286 352.12,-286 358.12,-286 364.12,-292 364.12,-298 364.12,-298 364.12,-329 364.12,-329 364.12,-335 358.12,-341 352.12,-341 352.12,-341 292.38,-341 292.38,-341 286.38,-341 280.38,-335 280.38,-329 280.38,-329 280.38,-298 280.38,-298 280.38,-292 286.38,-286 292.38,-286"/>
<text text-anchor="middle" x="322.25" y="-328.45" font-family="Helvetica,sans-Serif" font-weight="bold" font-size="9.00">inputs</text>
</g>
<g id="clust6" class="cluster">
<title>cluster_src/components/utils</title>
<path fill="#ffffff" stroke="black" stroke-width="2" d="M273.25,-349C273.25,-349 371.25,-349 371.25,-349 377.25,-349 383.25,-355 383.25,-361 383.25,-361 383.25,-392 383.25,-392 383.25,-398 377.25,-404 371.25,-404 371.25,-404 273.25,-404 273.25,-404 267.25,-404 261.25,-398 261.25,-392 261.25,-392 261.25,-361 261.25,-361 261.25,-355 267.25,-349 273.25,-349"/>
<text text-anchor="middle" x="322.25" y="-391.45" font-family="Helvetica,sans-Serif" font-weight="bold" font-size="9.00">utils</text>
</g>
<g id="clust7" class="cluster">
<title>cluster_src/domain</title>
<path fill="#ffffff" stroke="black" stroke-width="2" d="M1142.75,-222C1142.75,-222 1559,-222 1559,-222 1565,-222 1571,-228 1571,-234 1571,-234 1571,-602 1571,-602 1571,-608 1565,-614 1559,-614 1559,-614 1142.75,-614 1142.75,-614 1136.75,-614 1130.75,-608 1130.75,-602 1130.75,-602 1130.75,-234 1130.75,-234 1130.75,-228 1136.75,-222 1142.75,-222"/>
<text text-anchor="middle" x="1350.88" y="-601.45" font-family="Helvetica,sans-Serif" font-weight="bold" font-size="9.00">domain</text>
</g>
<g id="clust8" class="cluster">
<title>cluster_src/domain/constants</title>
<path fill="#ffffff" stroke="black" stroke-width="2" d="M1278.38,-438C1278.38,-438 1324.38,-438 1324.38,-438 1330.38,-438 1336.38,-444 1336.38,-450 1336.38,-450 1336.38,-481 1336.38,-481 1336.38,-487 1330.38,-493 1324.38,-493 1324.38,-493 1278.38,-493 1278.38,-493 1272.38,-493 1266.38,-487 1266.38,-481 1266.38,-481 1266.38,-450 1266.38,-450 1266.38,-444 1272.38,-438 1278.38,-438"/>
<text text-anchor="middle" x="1301.38" y="-480.45" font-family="Helvetica,sans-Serif" font-weight="bold" font-size="9.00">constants</text>
</g>
<g id="clust9" class="cluster">
<title>cluster_src/domain/entities</title>
<path fill="#ffffff" stroke="black" stroke-width="2" d="M1262.12,-501C1262.12,-501 1551,-501 1551,-501 1557,-501 1563,-507 1563,-513 1563,-513 1563,-575 1563,-575 1563,-581 1557,-587 1551,-587 1551,-587 1262.12,-587 1262.12,-587 1256.12,-587 1250.12,-581 1250.12,-575 1250.12,-575 1250.12,-513 1250.12,-513 1250.12,-507 1256.12,-501 1262.12,-501"/>
<text text-anchor="middle" x="1406.56" y="-574.45" font-family="Helvetica,sans-Serif" font-weight="bold" font-size="9.00">entities</text>
</g>
<g id="clust10" class="cluster">
<title>cluster_src/domain/repositories</title>
<path fill="#ffffff" stroke="black" stroke-width="2" d="M1250.5,-334C1250.5,-334 1352.25,-334 1352.25,-334 1358.25,-334 1364.25,-340 1364.25,-346 1364.25,-346 1364.25,-408 1364.25,-408 1364.25,-414 1358.25,-420 1352.25,-420 1352.25,-420 1250.5,-420 1250.5,-420 1244.5,-420 1238.5,-414 1238.5,-408 1238.5,-408 1238.5,-346 1238.5,-346 1238.5,-340 1244.5,-334 1250.5,-334"/>
<text text-anchor="middle" x="1301.38" y="-407.45" font-family="Helvetica,sans-Serif" font-weight="bold" font-size="9.00">repositories</text>
</g>
<g id="clust11" class="cluster">
<title>cluster_src/domain/valueObjects</title>
<path fill="#ffffff" stroke="black" stroke-width="2" d="M1256.12,-230C1256.12,-230 1346.62,-230 1346.62,-230 1352.62,-230 1358.62,-236 1358.62,-242 1358.62,-242 1358.62,-304 1358.62,-304 1358.62,-310 1352.62,-316 1346.62,-316 1346.62,-316 1256.12,-316 1256.12,-316 1250.12,-316 1244.12,-310 1244.12,-304 1244.12,-304 1244.12,-242 1244.12,-242 1244.12,-236 1250.12,-230 1256.12,-230"/>
<text text-anchor="middle" x="1301.38" y="-303.45" font-family="Helvetica,sans-Serif" font-weight="bold" font-size="9.00">valueObjects</text>
</g>
<g id="clust12" class="cluster">
<title>cluster_src/infrastructure</title>
<path fill="#ffffff" stroke="black" stroke-width="2" d="M859.38,-16C859.38,-16 1363.25,-16 1363.25,-16 1369.25,-16 1375.25,-22 1375.25,-28 1375.25,-28 1375.25,-202 1375.25,-202 1375.25,-208 1369.25,-214 1363.25,-214 1363.25,-214 859.38,-214 859.38,-214 853.38,-214 847.38,-208 847.38,-202 847.38,-202 847.38,-28 847.38,-28 847.38,-22 853.38,-16 859.38,-16"/>
<text text-anchor="middle" x="1111.31" y="-201.45" font-family="Helvetica,sans-Serif" font-weight="bold" font-size="9.00">infrastructure</text>
</g>
<g id="clust14" class="cluster">
<title>cluster_src/infrastructure/repository</title>
<path fill="#ffffff" stroke="black" stroke-width="2" d="M981.5,-24C981.5,-24 1081,-24 1081,-24 1087,-24 1093,-30 1093,-36 1093,-36 1093,-98 1093,-98 1093,-104 1087,-110 1081,-110 1081,-110 981.5,-110 981.5,-110 975.5,-110 969.5,-104 969.5,-98 969.5,-98 969.5,-36 969.5,-36 969.5,-30 975.5,-24 981.5,-24"/>
<text text-anchor="middle" x="1031.25" y="-97.45" font-family="Helvetica,sans-Serif" font-weight="bold" font-size="9.00">repository</text>
</g>
<g id="clust13" class="cluster">
<title>cluster_src/infrastructure/database</title>
<path fill="#ffffff" stroke="black" stroke-width="2" d="M1113,-39C1113,-39 1218.5,-39 1218.5,-39 1224.5,-39 1230.5,-45 1230.5,-51 1230.5,-51 1230.5,-82 1230.5,-82 1230.5,-88 1224.5,-94 1218.5,-94 1218.5,-94 1113,-94 1113,-94 1107,-94 1101,-88 1101,-82 1101,-82 1101,-51 1101,-51 1101,-45 1107,-39 1113,-39"/>
<text text-anchor="middle" x="1165.75" y="-81.45" font-family="Helvetica,sans-Serif" font-weight="bold" font-size="9.00">database</text>
</g>
<g id="clust15" class="cluster">
<title>cluster_src/infrastructure/video</title>
<path fill="#ffffff" stroke="black" stroke-width="2" d="M1008.25,-118C1008.25,-118 1355.25,-118 1355.25,-118 1361.25,-118 1367.25,-124 1367.25,-130 1367.25,-130 1367.25,-175 1367.25,-175 1367.25,-181 1361.25,-187 1355.25,-187 1355.25,-187 1008.25,-187 1008.25,-187 1002.25,-187 996.25,-181 996.25,-175 996.25,-175 996.25,-130 996.25,-130 996.25,-124 1002.25,-118 1008.25,-118"/>
<text text-anchor="middle" x="1181.75" y="-174.45" font-family="Helvetica,sans-Serif" font-weight="bold" font-size="9.00">video</text>
</g>
<g id="clust17" class="cluster">
<title>cluster_src/views</title>
<path fill="#ffffff" stroke="black" stroke-width="2" d="M157,-215C157,-215 233.25,-215 233.25,-215 239.25,-215 245.25,-221 245.25,-227 245.25,-227 245.25,-289 245.25,-289 245.25,-295 239.25,-301 233.25,-301 233.25,-301 157,-301 157,-301 151,-301 145,-295 145,-289 145,-289 145,-227 145,-227 145,-221 151,-215 157,-215"/>
<text text-anchor="middle" x="195.12" y="-288.45" font-family="Helvetica,sans-Serif" font-weight="bold" font-size="9.00">views</text>
</g>
<g id="clust16" class="cluster">
<title>cluster_src/stores</title>
<path fill="#ffffff" stroke="black" stroke-width="2" d="M403.25,-184C403.25,-184 479.5,-184 479.5,-184 485.5,-184 491.5,-190 491.5,-196 491.5,-196 491.5,-258 491.5,-258 491.5,-264 485.5,-270 479.5,-270 479.5,-270 403.25,-270 403.25,-270 397.25,-270 391.25,-264 391.25,-258 391.25,-258 391.25,-196 391.25,-196 391.25,-190 397.25,-184 403.25,-184"/>
<text text-anchor="middle" x="441.38" y="-257.45" font-family="Helvetica,sans-Serif" font-weight="bold" font-size="9.00">stores</text>
</g>
<!-- src/App.vue -->
<g id="node1" class="node">
<title>src/App.vue</title>
<g id="a_node1"><a xlink:href="src/App.vue" xlink:title="App.vue">
<path fill="#41f083" stroke="black" d="M130.58,-273.62C130.58,-273.62 89.42,-273.62 89.42,-273.62 86.21,-273.62 83,-270.42 83,-267.21 83,-267.21 83,-260.79 83,-260.79 83,-257.58 86.21,-254.38 89.42,-254.38 89.42,-254.38 130.58,-254.38 130.58,-254.38 133.79,-254.38 137,-257.58 137,-260.79 137,-260.79 137,-267.21 137,-267.21 137,-270.42 133.79,-273.62 130.58,-273.62"/>
<text text-anchor="start" x="93.88" y="-261.07" font-family="Helvetica,sans-Serif" font-size="9.00">App.vue</text>
</a>
</g>
</g>
<!-- src/components/utils/DiagnosticsPanel.vue -->
<g id="node2" class="node">
<title>src/components/utils/DiagnosticsPanel.vue</title>
<g id="a_node2"><a xlink:href="src/components/utils/DiagnosticsPanel.vue" xlink:title="DiagnosticsPanel.vue">
<path fill="#41f083" stroke="black" d="M368.83,-376.62C368.83,-376.62 275.67,-376.62 275.67,-376.62 272.46,-376.62 269.25,-373.42 269.25,-370.21 269.25,-370.21 269.25,-363.79 269.25,-363.79 269.25,-360.58 272.46,-357.38 275.67,-357.38 275.67,-357.38 368.83,-357.38 368.83,-357.38 372.04,-357.38 375.25,-360.58 375.25,-363.79 375.25,-363.79 375.25,-370.21 375.25,-370.21 375.25,-373.42 372.04,-376.62 368.83,-376.62"/>
<text text-anchor="start" x="277.25" y="-364.07" font-family="Helvetica,sans-Serif" font-size="9.00">DiagnosticsPanel.vue</text>
</a>
</g>
</g>
<!-- src/App.vue&#45;&gt;src/components/utils/DiagnosticsPanel.vue -->
<g id="edge1" class="edge">
<title>src/App.vue&#45;&gt;src/components/utils/DiagnosticsPanel.vue</title>
<path fill="none" stroke="#000000" stroke-width="2" stroke-opacity="0.200000" d="M117.18,-273.81C123.27,-282.78 133.35,-295.85 145,-304 180.75,-328.99 227.47,-345.1 263.83,-354.76"/>
<polygon fill="#000000" fill-opacity="0.200000" stroke="#000000" stroke-width="2" stroke-opacity="0.200000" points="263.09,-356.74 269.43,-356.21 264.14,-352.68 263.09,-356.74"/>
</g>
<!-- src/views/NavBar.vue -->
<g id="node3" class="node">
<title>src/views/NavBar.vue</title>
<g id="a_node3"><a xlink:href="src/views/NavBar.vue" xlink:title="NavBar.vue">
<path fill="#41f083" stroke="black" d="M219.96,-242.62C219.96,-242.62 170.29,-242.62 170.29,-242.62 167.08,-242.62 163.88,-239.42 163.88,-236.21 163.88,-236.21 163.88,-229.79 163.88,-229.79 163.88,-226.58 167.08,-223.38 170.29,-223.38 170.29,-223.38 219.96,-223.38 219.96,-223.38 223.17,-223.38 226.38,-226.58 226.38,-229.79 226.38,-229.79 226.38,-236.21 226.38,-236.21 226.38,-239.42 223.17,-242.62 219.96,-242.62"/>
<text text-anchor="start" x="171.88" y="-230.07" font-family="Helvetica,sans-Serif" font-size="9.00">NavBar.vue</text>
</a>
</g>
</g>
<!-- src/App.vue&#45;&gt;src/views/NavBar.vue -->
<g id="edge2" class="edge">
<title>src/App.vue&#45;&gt;src/views/NavBar.vue</title>
<path fill="none" stroke="#000000" stroke-width="2" stroke-opacity="0.200000" d="M130.93,-254.04C135.5,-251.92 140.37,-249.78 145,-248 148.23,-246.75 151.61,-245.54 155.02,-244.38"/>
<polygon fill="#000000" fill-opacity="0.200000" stroke="#000000" stroke-width="2" stroke-opacity="0.200000" points="155.57,-246.41 160.62,-242.55 154.26,-242.42 155.57,-246.41"/>
</g>
<!-- src/views/VideoGallery.vue -->
<g id="node4" class="node">
<title>src/views/VideoGallery.vue</title>
<g id="a_node4"><a xlink:href="src/views/VideoGallery.vue" xlink:title="VideoGallery.vue">
<path fill="#41f083" stroke="black" d="M230.83,-273.62C230.83,-273.62 159.42,-273.62 159.42,-273.62 156.21,-273.62 153,-270.42 153,-267.21 153,-267.21 153,-260.79 153,-260.79 153,-257.58 156.21,-254.38 159.42,-254.38 159.42,-254.38 230.83,-254.38 230.83,-254.38 234.04,-254.38 237.25,-257.58 237.25,-260.79 237.25,-260.79 237.25,-267.21 237.25,-267.21 237.25,-270.42 234.04,-273.62 230.83,-273.62"/>
<text text-anchor="start" x="161" y="-261.07" font-family="Helvetica,sans-Serif" font-size="9.00">VideoGallery.vue</text>
</a>
</g>
</g>
<!-- src/App.vue&#45;&gt;src/views/VideoGallery.vue -->
<g id="edge3" class="edge">
<title>src/App.vue&#45;&gt;src/views/VideoGallery.vue</title>
<path fill="none" stroke="#000000" stroke-width="2" stroke-opacity="0.200000" d="M137.3,-264C139.42,-264 141.61,-264 143.83,-264"/>
<polygon fill="#000000" fill-opacity="0.200000" stroke="#000000" stroke-width="2" stroke-opacity="0.200000" points="143.47,-266.1 149.47,-264 143.47,-261.9 143.47,-266.1"/>
</g>
<!-- src/application/index.ts -->
<g id="node5" class="node">
<title>src/application/index.ts</title>
<g id="a_node5"><a xlink:href="src/application/index.ts" xlink:title="index.ts">
<path fill="#ddfeff" stroke="black" d="M555.83,-273.62C555.83,-273.62 514.67,-273.62 514.67,-273.62 511.46,-273.62 508.25,-270.42 508.25,-267.21 508.25,-267.21 508.25,-260.79 508.25,-260.79 508.25,-257.58 511.46,-254.38 514.67,-254.38 514.67,-254.38 555.83,-254.38 555.83,-254.38 559.04,-254.38 562.25,-257.58 562.25,-260.79 562.25,-260.79 562.25,-267.21 562.25,-267.21 562.25,-270.42 559.04,-273.62 555.83,-273.62"/>
<text text-anchor="start" x="519.5" y="-261.07" font-family="Helvetica,sans-Serif" font-size="9.00">index.ts</text>
</a>
</g>
</g>
<!-- src/components/utils/DiagnosticsPanel.vue&#45;&gt;src/application/index.ts -->
<g id="edge21" class="edge">
<title>src/components/utils/DiagnosticsPanel.vue&#45;&gt;src/application/index.ts</title>
<path fill="none" stroke="#000000" stroke-width="2" stroke-opacity="0.200000" d="M362.15,-356.93C369.75,-353.69 377.22,-349.47 383.25,-344 389.14,-338.66 385.51,-333.5 391.25,-328 421.77,-298.76 467.93,-281.44 499.49,-272.34"/>
<polygon fill="#000000" fill-opacity="0.200000" stroke="#000000" stroke-width="2" stroke-opacity="0.200000" points="499.84,-274.42 505.07,-270.79 498.72,-270.37 499.84,-274.42"/>
</g>
<!-- src/stores/appStateStore.ts -->
<g id="node17" class="node">
<title>src/stores/appStateStore.ts</title>
<g id="a_node17"><a xlink:href="src/stores/appStateStore.ts" xlink:title="appStateStore.ts">
<path fill="#ddfeff" stroke="black" d="M477.08,-242.62C477.08,-242.62 405.67,-242.62 405.67,-242.62 402.46,-242.62 399.25,-239.42 399.25,-236.21 399.25,-236.21 399.25,-229.79 399.25,-229.79 399.25,-226.58 402.46,-223.38 405.67,-223.38 405.67,-223.38 477.08,-223.38 477.08,-223.38 480.29,-223.38 483.5,-226.58 483.5,-229.79 483.5,-229.79 483.5,-236.21 483.5,-236.21 483.5,-239.42 480.29,-242.62 477.08,-242.62"/>
<text text-anchor="start" x="407.25" y="-230.07" font-family="Helvetica,sans-Serif" font-size="9.00">appStateStore.ts</text>
</a>
</g>
</g>
<!-- src/components/utils/DiagnosticsPanel.vue&#45;&gt;src/stores/appStateStore.ts -->
<g id="edge22" class="edge">
<title>src/components/utils/DiagnosticsPanel.vue&#45;&gt;src/stores/appStateStore.ts</title>
<path fill="none" stroke="#000000" stroke-width="2" stroke-opacity="0.200000" d="M364.37,-356.93C371.36,-353.72 378.04,-349.51 383.25,-344 391.26,-335.52 386.55,-329.68 391.25,-319 402.14,-294.25 418.19,-267.45 428.95,-250.46"/>
<polygon fill="#000000" fill-opacity="0.200000" stroke="#000000" stroke-width="2" stroke-opacity="0.200000" points="430.65,-251.7 432.12,-245.51 427.12,-249.43 430.65,-251.7"/>
</g>
<!-- src/stores/videosStore.ts -->
<g id="node15" class="node">
<title>src/stores/videosStore.ts</title>
<g id="a_node15"><a xlink:href="src/stores/videosStore.ts" xlink:title="videosStore.ts">
<path fill="#ddfeff" stroke="black" d="M472.21,-211.62C472.21,-211.62 410.54,-211.62 410.54,-211.62 407.33,-211.62 404.12,-208.42 404.12,-205.21 404.12,-205.21 404.12,-198.79 404.12,-198.79 404.12,-195.58 407.33,-192.38 410.54,-192.38 410.54,-192.38 472.21,-192.38 472.21,-192.38 475.42,-192.38 478.62,-195.58 478.62,-198.79 478.62,-198.79 478.62,-205.21 478.62,-205.21 478.62,-208.42 475.42,-211.62 472.21,-211.62"/>
<text text-anchor="start" x="412.12" y="-199.07" font-family="Helvetica,sans-Serif" font-size="9.00">videosStore.ts</text>
</a>
</g>
</g>
<!-- src/views/NavBar.vue&#45;&gt;src/stores/videosStore.ts -->
<g id="edge55" class="edge">
<title>src/views/NavBar.vue&#45;&gt;src/stores/videosStore.ts</title>
<path fill="none" stroke="#000000" stroke-width="2" stroke-opacity="0.200000" d="M226.57,-229.14C268.94,-223.76 346.03,-213.97 395.14,-207.74"/>
<polygon fill="#000000" fill-opacity="0.200000" stroke="#000000" stroke-width="2" stroke-opacity="0.200000" points="395.28,-209.84 400.97,-207 394.75,-205.67 395.28,-209.84"/>
</g>
<!-- src/components/inputs/FileInput.vue -->
<g id="node16" class="node">
<title>src/components/inputs/FileInput.vue</title>
<g id="a_node16"><a xlink:href="src/components/inputs/FileInput.vue" xlink:title="FileInput.vue">
<path fill="#41f083" stroke="black" d="M349.71,-313.62C349.71,-313.62 294.79,-313.62 294.79,-313.62 291.58,-313.62 288.38,-310.42 288.38,-307.21 288.38,-307.21 288.38,-300.79 288.38,-300.79 288.38,-297.58 291.58,-294.38 294.79,-294.38 294.79,-294.38 349.71,-294.38 349.71,-294.38 352.92,-294.38 356.12,-297.58 356.12,-300.79 356.12,-300.79 356.12,-307.21 356.12,-307.21 356.12,-310.42 352.92,-313.62 349.71,-313.62"/>
<text text-anchor="start" x="296.38" y="-301.07" font-family="Helvetica,sans-Serif" font-size="9.00">FileInput.vue</text>
</a>
</g>
</g>
<!-- src/views/NavBar.vue&#45;&gt;src/components/inputs/FileInput.vue -->
<g id="edge53" class="edge">
<title>src/views/NavBar.vue&#45;&gt;src/components/inputs/FileInput.vue</title>
<path fill="none" stroke="#000000" stroke-width="2" stroke-opacity="0.200000" d="M226.63,-240.56C232.94,-242.6 239.43,-245.08 245.25,-248 266.9,-258.88 288.88,-275.86 303.6,-288.28"/>
<polygon fill="#000000" fill-opacity="0.200000" stroke="#000000" stroke-width="2" stroke-opacity="0.200000" points="301.99,-289.67 307.91,-291.98 304.73,-286.48 301.99,-289.67"/>
</g>
<!-- src/views/NavBar.vue&#45;&gt;src/stores/appStateStore.ts -->
<g id="edge54" class="edge">
<title>src/views/NavBar.vue&#45;&gt;src/stores/appStateStore.ts</title>
<path fill="none" stroke="#000000" stroke-width="2" stroke-opacity="0.200000" d="M226.57,-233C267.5,-233 340.81,-233 390.02,-233"/>
<polygon fill="#000000" fill-opacity="0.200000" stroke="#000000" stroke-width="2" stroke-opacity="0.200000" points="389.89,-235.1 395.89,-233 389.89,-230.9 389.89,-235.1"/>
</g>
<!-- src/components/VideoCard.vue -->
<g id="node13" class="node">
<title>src/components/VideoCard.vue</title>
<g id="a_node13"><a xlink:href="src/components/VideoCard.vue" xlink:title="VideoCard.vue">
<path fill="#41f083" stroke="black" d="M353.83,-431.62C353.83,-431.62 290.67,-431.62 290.67,-431.62 287.46,-431.62 284.25,-428.42 284.25,-425.21 284.25,-425.21 284.25,-418.79 284.25,-418.79 284.25,-415.58 287.46,-412.38 290.67,-412.38 290.67,-412.38 353.83,-412.38 353.83,-412.38 357.04,-412.38 360.25,-415.58 360.25,-418.79 360.25,-418.79 360.25,-425.21 360.25,-425.21 360.25,-428.42 357.04,-431.62 353.83,-431.62"/>
<text text-anchor="start" x="292.25" y="-419.07" font-family="Helvetica,sans-Serif" font-size="9.00">VideoCard.vue</text>
</a>
</g>
</g>
<!-- src/views/VideoGallery.vue&#45;&gt;src/components/VideoCard.vue -->
<g id="edge56" class="edge">
<title>src/views/VideoGallery.vue&#45;&gt;src/components/VideoCard.vue</title>
<path fill="none" stroke="#000000" stroke-width="2" stroke-opacity="0.200000" d="M196.97,-273.77C199.75,-299.79 211.06,-371.18 253.25,-407 259.54,-412.34 267.32,-415.9 275.34,-418.25"/>
<polygon fill="#000000" fill-opacity="0.200000" stroke="#000000" stroke-width="2" stroke-opacity="0.200000" points="274.81,-420.28 281.13,-419.64 275.79,-416.2 274.81,-420.28"/>
</g>
<!-- src/views/VideoGallery.vue&#45;&gt;src/stores/videosStore.ts -->
<g id="edge58" class="edge">
<title>src/views/VideoGallery.vue&#45;&gt;src/stores/videosStore.ts</title>
<path fill="none" stroke="#000000" stroke-width="2" stroke-opacity="0.200000" d="M237.5,-255.69C284.11,-246.12 356.82,-230.49 383.25,-221 386.99,-219.66 387.56,-218.47 391.25,-217 392.86,-216.36 394.52,-215.72 396.2,-215.1"/>
<polygon fill="#000000" fill-opacity="0.200000" stroke="#000000" stroke-width="2" stroke-opacity="0.200000" points="396.89,-217.08 401.85,-213.12 395.5,-213.12 396.89,-217.08"/>
</g>
<!-- src/views/VideoGallery.vue&#45;&gt;src/stores/appStateStore.ts -->
<g id="edge57" class="edge">
<title>src/views/VideoGallery.vue&#45;&gt;src/stores/appStateStore.ts</title>
<path fill="none" stroke="#000000" stroke-width="2" stroke-opacity="0.200000" d="M237.4,-264.38C275.57,-264.02 333.72,-261.66 383.25,-252 390.84,-250.52 398.82,-248.31 406.33,-245.91"/>
<polygon fill="#000000" fill-opacity="0.200000" stroke="#000000" stroke-width="2" stroke-opacity="0.200000" points="406.98,-247.9 412,-244 405.65,-243.92 406.98,-247.9"/>
</g>
<!-- src/application/services/FileParserService.ts -->
<g id="node6" class="node">
<title>src/application/services/FileParserService.ts</title>
<g id="a_node6"><a xlink:href="src/application/services/FileParserService.ts" xlink:title="FileParserService.ts">
<path fill="#ddfeff" stroke="black" d="M670.33,-304.62C670.33,-304.62 584.67,-304.62 584.67,-304.62 581.46,-304.62 578.25,-301.42 578.25,-298.21 578.25,-298.21 578.25,-291.79 578.25,-291.79 578.25,-288.58 581.46,-285.38 584.67,-285.38 584.67,-285.38 670.33,-285.38 670.33,-285.38 673.54,-285.38 676.75,-288.58 676.75,-291.79 676.75,-291.79 676.75,-298.21 676.75,-298.21 676.75,-301.42 673.54,-304.62 670.33,-304.62"/>
<text text-anchor="start" x="586.25" y="-292.07" font-family="Helvetica,sans-Serif" font-size="9.00">FileParserService.ts</text>
</a>
</g>
</g>
<!-- src/application/index.ts&#45;&gt;src/application/services/FileParserService.ts -->
<g id="edge4" class="edge">
<title>src/application/index.ts&#45;&gt;src/application/services/FileParserService.ts</title>
<path fill="none" stroke="#000000" stroke-width="2" stroke-opacity="0.200000" d="M556.13,-274.08C560.7,-276.2 565.59,-278.3 585.37,-284.95"/>
<polygon fill="#000000" fill-opacity="0.200000" stroke="#000000" stroke-width="2" stroke-opacity="0.200000" points="588.18,-283.56 592.08,-291.66 583.98,-287.76 588.18,-283.56"/>
</g>
<!-- src/application/services/FiltersService.ts -->
<g id="node7" class="node">
<title>src/application/services/FiltersService.ts</title>
<g id="a_node7"><a xlink:href="src/application/services/FiltersService.ts" xlink:title="FiltersService.ts">
<path fill="#ddfeff" stroke="black" d="M661.71,-335.62C661.71,-335.62 593.29,-335.62 593.29,-335.62 590.08,-335.62 586.88,-332.42 586.88,-329.21 586.88,-329.21 586.88,-322.79 586.88,-322.79 586.88,-319.58 590.08,-316.38 593.29,-316.38 593.29,-316.38 661.71,-316.38 661.71,-316.38 664.92,-316.38 668.12,-319.58 668.12,-322.79 668.12,-322.79 668.12,-329.21 668.12,-329.21 668.12,-332.42 664.92,-335.62 661.71,-335.62"/>
<text text-anchor="start" x="594.88" y="-323.07" font-family="Helvetica,sans-Serif" font-size="9.00">FiltersService.ts</text>
</a>
</g>
</g>
<!-- src/application/index.ts&#45;&gt;src/application/services/FiltersService.ts -->
<g id="edge5" class="edge">
<title>src/application/index.ts&#45;&gt;src/application/services/FiltersService.ts</title>
<path fill="none" stroke="#000000" stroke-width="2" stroke-opacity="0.200000" d="M540.8,-273.83C546.27,-284.58 556.48,-301.53 570.25,-311 572.78,-312.74 575.51,-314.28 578.34,-315.64"/>
<polygon fill="#000000" fill-opacity="0.200000" stroke="#000000" stroke-width="2" stroke-opacity="0.200000" points="577.42,-317.53 583.76,-317.87 579.02,-313.65 577.42,-317.53"/>
</g>
<!-- src/application/services/Hotkeys.ts -->
<g id="node8" class="node">
<title>src/application/services/Hotkeys.ts</title>
<g id="a_node8"><a xlink:href="src/application/services/Hotkeys.ts" xlink:title="Hotkeys.ts">
<path fill="#ddfeff" stroke="black" d="M650.46,-273.62C650.46,-273.62 604.54,-273.62 604.54,-273.62 601.33,-273.62 598.12,-270.42 598.12,-267.21 598.12,-267.21 598.12,-260.79 598.12,-260.79 598.12,-257.58 601.33,-254.38 604.54,-254.38 604.54,-254.38 650.46,-254.38 650.46,-254.38 653.67,-254.38 656.88,-257.58 656.88,-260.79 656.88,-260.79 656.88,-267.21 656.88,-267.21 656.88,-270.42 653.67,-273.62 650.46,-273.62"/>
<text text-anchor="start" x="606.12" y="-261.07" font-family="Helvetica,sans-Serif" font-size="9.00">Hotkeys.ts</text>
</a>
</g>
</g>
<!-- src/application/index.ts&#45;&gt;src/application/services/Hotkeys.ts -->
<g id="edge6" class="edge">
<title>src/application/index.ts&#45;&gt;src/application/services/Hotkeys.ts</title>
<path fill="none" stroke="#000000" stroke-width="2" stroke-opacity="0.200000" d="M562.35,-264C573.49,-264 586.53,-264 597.93,-264"/>
<polygon fill="#000000" fill-opacity="0.200000" stroke="#000000" stroke-width="2" stroke-opacity="0.200000" points="600.73,-262.61 604.63,-270.71 596.53,-266.81 600.73,-262.61"/>
</g>
<!-- src/application/services/VideoMetadataService.ts -->
<g id="node9" class="node">
<title>src/application/services/VideoMetadataService.ts</title>
<g id="a_node9"><a xlink:href="src/application/services/VideoMetadataService.ts" xlink:title="VideoMetadataService.ts">
<path fill="#ddfeff" stroke="black" d="M799.83,-295.62C799.83,-295.62 696.17,-295.62 696.17,-295.62 692.96,-295.62 689.75,-292.42 689.75,-289.21 689.75,-289.21 689.75,-282.79 689.75,-282.79 689.75,-279.58 692.96,-276.38 696.17,-276.38 696.17,-276.38 799.83,-276.38 799.83,-276.38 803.04,-276.38 806.25,-279.58 806.25,-282.79 806.25,-282.79 806.25,-289.21 806.25,-289.21 806.25,-292.42 803.04,-295.62 799.83,-295.62"/>
<text text-anchor="start" x="697.75" y="-283.07" font-family="Helvetica,sans-Serif" font-size="9.00">VideoMetadataService.ts</text>
</a>
</g>
</g>
<!-- src/application/index.ts&#45;&gt;src/application/services/VideoMetadataService.ts -->
<g id="edge7" class="edge">
<title>src/application/index.ts&#45;&gt;src/application/services/VideoMetadataService.ts</title>
<path fill="none" stroke="#000000" stroke-width="2" stroke-opacity="0.200000" d="M553.72,-253.99C558.88,-251.53 564.65,-249.25 570.25,-248 616.44,-237.67 630.86,-236.38 676.75,-248 694.5,-252.49 712.64,-262.47 726.03,-271.07"/>
<polygon fill="#000000" fill-opacity="0.200000" stroke="#000000" stroke-width="2" stroke-opacity="0.200000" points="724.65,-272.67 730.81,-274.25 726.98,-269.17 724.65,-272.67"/>
</g>
<!-- src/application/services/FileParserService.ts&#45;&gt;src/application/services/VideoMetadataService.ts -->
<g id="edge8" class="edge">
<title>src/application/services/FileParserService.ts&#45;&gt;src/application/services/VideoMetadataService.ts</title>
<path fill="none" stroke="#000000" stroke-width="2" stroke-opacity="0.200000" d="M677.04,-291.31C678.19,-291.23 679.35,-291.14 680.51,-291.05"/>
<polygon fill="#000000" fill-opacity="0.200000" stroke="#000000" stroke-width="2" stroke-opacity="0.200000" points="680.6,-293.15 686.42,-290.6 680.28,-288.96 680.6,-293.15"/>
</g>
<!-- src/domain/index.ts -->
<g id="node10" class="node">
<title>src/domain/index.ts</title>
<g id="a_node10"><a xlink:href="src/domain/index.ts" xlink:title="index.ts">
<path fill="#ddfeff" stroke="black" d="M1186.33,-346.62C1186.33,-346.62 1145.17,-346.62 1145.17,-346.62 1141.96,-346.62 1138.75,-343.42 1138.75,-340.21 1138.75,-340.21 1138.75,-333.79 1138.75,-333.79 1138.75,-330.58 1141.96,-327.38 1145.17,-327.38 1145.17,-327.38 1186.33,-327.38 1186.33,-327.38 1189.54,-327.38 1192.75,-330.58 1192.75,-333.79 1192.75,-333.79 1192.75,-340.21 1192.75,-340.21 1192.75,-343.42 1189.54,-346.62 1186.33,-346.62"/>
<text text-anchor="start" x="1150" y="-334.07" font-family="Helvetica,sans-Serif" font-size="9.00">index.ts</text>
</a>
</g>
</g>
<!-- src/application/services/FileParserService.ts&#45;&gt;src/domain/index.ts -->
<g id="edge9" class="edge">
<title>src/application/services/FileParserService.ts&#45;&gt;src/domain/index.ts</title>
<path fill="none" stroke="#000000" stroke-opacity="0.200000" d="M676.96,-300.74C681.28,-301.19 685.59,-301.62 689.75,-302 868.65,-318.43 913.97,-315.05 1093,-330 1105.5,-331.04 1119.2,-332.34 1131.26,-333.54"/>
<polygon fill="none" stroke="#000000" stroke-opacity="0.200000" points="1130.84,-335.61 1137.02,-334.11 1131.26,-331.43 1130.84,-335.61"/>
</g>
<!-- src/infrastructure/index.ts -->
<g id="node11" class="node">
<title>src/infrastructure/index.ts</title>
<g id="a_node11"><a xlink:href="src/infrastructure/index.ts" xlink:title="index.ts">
<path fill="#ddfeff" stroke="black" d="M902.96,-172.62C902.96,-172.62 861.79,-172.62 861.79,-172.62 858.58,-172.62 855.38,-169.42 855.38,-166.21 855.38,-166.21 855.38,-159.79 855.38,-159.79 855.38,-156.58 858.58,-153.38 861.79,-153.38 861.79,-153.38 902.96,-153.38 902.96,-153.38 906.17,-153.38 909.38,-156.58 909.38,-159.79 909.38,-159.79 909.38,-166.21 909.38,-166.21 909.38,-169.42 906.17,-172.62 902.96,-172.62"/>
<text text-anchor="start" x="866.62" y="-160.07" font-family="Helvetica,sans-Serif" font-size="9.00">index.ts</text>
</a>
</g>
</g>
<!-- src/application/services/FileParserService.ts&#45;&gt;src/infrastructure/index.ts -->
<g id="edge10" class="edge">
<title>src/application/services/FileParserService.ts&#45;&gt;src/infrastructure/index.ts</title>
<path fill="none" stroke="#000000" stroke-width="2" stroke-opacity="0.200000" d="M665.66,-284.93C669.48,-283.46 673.25,-281.82 676.75,-280 683.22,-276.64 683.66,-274.01 689.75,-270 745.9,-233.02 815.68,-196.18 853.63,-176.86"/>
<polygon fill="#000000" fill-opacity="0.200000" stroke="#000000" stroke-width="2" stroke-opacity="0.200000" points="854.12,-178.96 858.53,-174.38 852.23,-175.22 854.12,-178.96"/>
</g>
<!-- src/application/services/FiltersService.ts&#45;&gt;src/domain/index.ts -->
<g id="edge11" class="edge">
<title>src/application/services/FiltersService.ts&#45;&gt;src/domain/index.ts</title>
<path fill="none" stroke="#000000" stroke-opacity="0.200000" d="M668.37,-326.82C769.87,-328.9 1036.69,-334.37 1131.08,-336.31"/>
<polygon fill="none" stroke="#000000" stroke-opacity="0.200000" points="1130.8,-338.4 1136.85,-336.43 1130.89,-334.2 1130.8,-338.4"/>
</g>
<!-- src/application/services/VideoMetadataService.ts&#45;&gt;src/domain/index.ts -->
<g id="edge13" class="edge">
<title>src/application/services/VideoMetadataService.ts&#45;&gt;src/domain/index.ts</title>
<path fill="none" stroke="#000000" stroke-opacity="0.200000" d="M788.17,-296.1C798.24,-298.37 809.1,-300.54 819.25,-302 939.91,-319.37 972.54,-300.31 1093,-319 1105.61,-320.96 1119.24,-324.11 1131.2,-327.23"/>
<polygon fill="none" stroke="#000000" stroke-opacity="0.200000" points="1130.61,-329.24 1136.95,-328.77 1131.7,-325.19 1130.61,-329.24"/>
</g>
<!-- src/application/services/VideoMetadataService.ts&#45;&gt;src/infrastructure/index.ts -->
<g id="edge14" class="edge">
<title>src/application/services/VideoMetadataService.ts&#45;&gt;src/infrastructure/index.ts</title>
<path fill="none" stroke="#000000" stroke-width="2" stroke-opacity="0.200000" d="M775.82,-275.88C785.95,-271.31 797.2,-265.29 806.25,-258 810.05,-254.94 847.81,-206.41 868.3,-179.93"/>
<polygon fill="#000000" fill-opacity="0.200000" stroke="#000000" stroke-width="2" stroke-opacity="0.200000" points="869.72,-181.52 871.73,-175.49 866.4,-178.96 869.72,-181.52"/>
</g>
<!-- src/application/services/VideoStorageDtoMapper.ts -->
<g id="node12" class="node">
<title>src/application/services/VideoStorageDtoMapper.ts</title>
<g id="a_node12"><a xlink:href="src/application/services/VideoStorageDtoMapper.ts" xlink:title="VideoStorageDtoMapper.ts">
<path fill="#ddfeff" stroke="black" d="M939.08,-295.62C939.08,-295.62 825.67,-295.62 825.67,-295.62 822.46,-295.62 819.25,-292.42 819.25,-289.21 819.25,-289.21 819.25,-282.79 819.25,-282.79 819.25,-279.58 822.46,-276.38 825.67,-276.38 825.67,-276.38 939.08,-276.38 939.08,-276.38 942.29,-276.38 945.5,-279.58 945.5,-282.79 945.5,-282.79 945.5,-289.21 945.5,-289.21 945.5,-292.42 942.29,-295.62 939.08,-295.62"/>
<text text-anchor="start" x="827.25" y="-283.07" font-family="Helvetica,sans-Serif" font-size="9.00">VideoStorageDtoMapper.ts</text>
</a>
</g>
</g>
<!-- src/application/services/VideoMetadataService.ts&#45;&gt;src/application/services/VideoStorageDtoMapper.ts -->
<g id="edge12" class="edge">
<title>src/application/services/VideoMetadataService.ts&#45;&gt;src/application/services/VideoStorageDtoMapper.ts</title>
<path fill="none" stroke="#000000" stroke-width="2" stroke-opacity="0.200000" d="M806.68,-286C807.81,-286 808.95,-286 810.09,-286"/>
<polygon fill="#000000" fill-opacity="0.200000" stroke="#000000" stroke-width="2" stroke-opacity="0.200000" points="809.84,-288.1 815.84,-286 809.84,-283.9 809.84,-288.1"/>
</g>
<!-- src/domain/constants/index.ts -->
<g id="node18" class="node">
<title>src/domain/constants/index.ts</title>
<g id="a_node18"><a xlink:href="src/domain/constants/index.ts" xlink:title="index.ts">
<path fill="#ddfeff" stroke="black" d="M1321.96,-465.62C1321.96,-465.62 1280.79,-465.62 1280.79,-465.62 1277.58,-465.62 1274.38,-462.42 1274.38,-459.21 1274.38,-459.21 1274.38,-452.79 1274.38,-452.79 1274.38,-449.58 1277.58,-446.38 1280.79,-446.38 1280.79,-446.38 1321.96,-446.38 1321.96,-446.38 1325.17,-446.38 1328.38,-449.58 1328.38,-452.79 1328.38,-452.79 1328.38,-459.21 1328.38,-459.21 1328.38,-462.42 1325.17,-465.62 1321.96,-465.62"/>
<text text-anchor="start" x="1285.62" y="-453.07" font-family="Helvetica,sans-Serif" font-size="9.00">index.ts</text>
</a>
</g>
</g>
<!-- src/domain/index.ts&#45;&gt;src/domain/constants/index.ts -->
<g id="edge26" class="edge">
<title>src/domain/index.ts&#45;&gt;src/domain/constants/index.ts</title>
<path fill="none" stroke="#000000" stroke-width="2" stroke-opacity="0.200000" d="M1170.56,-346.94C1179.2,-368.05 1202.34,-417.43 1238.5,-442 1246.37,-447.35 1255.97,-450.68 1265.25,-452.75"/>
<polygon fill="#000000" fill-opacity="0.200000" stroke="#000000" stroke-width="2" stroke-opacity="0.200000" points="1264.71,-454.79 1270.99,-453.82 1265.48,-450.66 1264.71,-454.79"/>
</g>
<!-- src/domain/entities/Metadata.ts -->
<g id="node19" class="node">
<title>src/domain/entities/Metadata.ts</title>
<g id="a_node19"><a xlink:href="src/domain/entities/Metadata.ts" xlink:title="Metadata.ts">
<path fill="#ddfeff" stroke="black" d="M1548.58,-559.62C1548.58,-559.62 1498.17,-559.62 1498.17,-559.62 1494.96,-559.62 1491.75,-556.42 1491.75,-553.21 1491.75,-553.21 1491.75,-546.79 1491.75,-546.79 1491.75,-543.58 1494.96,-540.38 1498.17,-540.38 1498.17,-540.38 1548.58,-540.38 1548.58,-540.38 1551.79,-540.38 1555,-543.58 1555,-546.79 1555,-546.79 1555,-553.21 1555,-553.21 1555,-556.42 1551.79,-559.62 1548.58,-559.62"/>
<text text-anchor="start" x="1499.75" y="-547.08" font-family="Helvetica,sans-Serif" font-size="9.00">Metadata.ts</text>
</a>
</g>
</g>
<!-- src/domain/index.ts&#45;&gt;src/domain/entities/Metadata.ts -->
<g id="edge27" class="edge">
<title>src/domain/index.ts&#45;&gt;src/domain/entities/Metadata.ts</title>
<path fill="none" stroke="#000000" stroke-opacity="0.200000" d="M1166.19,-347.08C1164.74,-383.98 1165.3,-512.23 1238.5,-566 1315.18,-622.33 1437.33,-584.76 1493,-562.76"/>
<polygon fill="none" stroke="#000000" stroke-opacity="0.200000" points="1493.58,-564.79 1498.36,-560.6 1492.01,-560.89 1493.58,-564.79"/>
</g>
<!-- src/domain/entities/ParsedVideo.ts -->
<g id="node20" class="node">
<title>src/domain/entities/ParsedVideo.ts</title>
<g id="a_node20"><a xlink:href="src/domain/entities/ParsedVideo.ts" xlink:title="ParsedVideo.ts">
<path fill="#ddfeff" stroke="black" d="M1334.46,-559.62C1334.46,-559.62 1268.29,-559.62 1268.29,-559.62 1265.08,-559.62 1261.88,-556.42 1261.88,-553.21 1261.88,-553.21 1261.88,-546.79 1261.88,-546.79 1261.88,-543.58 1265.08,-540.38 1268.29,-540.38 1268.29,-540.38 1334.46,-540.38 1334.46,-540.38 1337.67,-540.38 1340.88,-543.58 1340.88,-546.79 1340.88,-546.79 1340.88,-553.21 1340.88,-553.21 1340.88,-556.42 1337.67,-559.62 1334.46,-559.62"/>
<text text-anchor="start" x="1269.88" y="-547.08" font-family="Helvetica,sans-Serif" font-size="9.00">ParsedVideo.ts</text>
</a>
</g>
</g>
<!-- src/domain/index.ts&#45;&gt;src/domain/entities/ParsedVideo.ts -->
<g id="edge28" class="edge">
<title>src/domain/index.ts&#45;&gt;src/domain/entities/ParsedVideo.ts</title>
<path fill="none" stroke="#000000" stroke-opacity="0.200000" d="M1167.2,-347.02C1169.24,-379.51 1180.22,-482.79 1238.5,-535 1243.12,-539.13 1248.68,-542.18 1254.55,-544.41"/>
<polygon fill="none" stroke="#000000" stroke-opacity="0.200000" points="1253.75,-546.36 1260.11,-546.21 1255.04,-542.36 1253.75,-546.36"/>
</g>
<!-- src/domain/entities/VideoStorageDto.ts -->
<g id="node21" class="node">
<title>src/domain/entities/VideoStorageDto.ts</title>
<g id="a_node21"><a xlink:href="src/domain/entities/VideoStorageDto.ts" xlink:title="VideoStorageDto.ts">
<path fill="#ddfeff" stroke="black" d="M1472.33,-543.62C1472.33,-543.62 1389.67,-543.62 1389.67,-543.62 1386.46,-543.62 1383.25,-540.42 1383.25,-537.21 1383.25,-537.21 1383.25,-530.79 1383.25,-530.79 1383.25,-527.58 1386.46,-524.38 1389.67,-524.38 1389.67,-524.38 1472.33,-524.38 1472.33,-524.38 1475.54,-524.38 1478.75,-527.58 1478.75,-530.79 1478.75,-530.79 1478.75,-537.21 1478.75,-537.21 1478.75,-540.42 1475.54,-543.62 1472.33,-543.62"/>
<text text-anchor="start" x="1391.25" y="-531.08" font-family="Helvetica,sans-Serif" font-size="9.00">VideoStorageDto.ts</text>
</a>
</g>
</g>
<!-- src/domain/index.ts&#45;&gt;src/domain/entities/VideoStorageDto.ts -->
<g id="edge30" class="edge">
<title>src/domain/index.ts&#45;&gt;src/domain/entities/VideoStorageDto.ts</title>
<path fill="none" stroke="#000000" stroke-opacity="0.200000" d="M1171.6,-346.9C1181.35,-365.57 1205.24,-405.62 1238.5,-423 1265.54,-437.13 1351.81,-415.47 1375.25,-435 1385.52,-443.56 1377.69,-451.84 1383.25,-464 1392.42,-484.05 1407.02,-504.79 1417.47,-518.43"/>
<polygon fill="none" stroke="#000000" stroke-opacity="0.200000" points="1415.67,-519.53 1421.01,-522.98 1418.98,-516.95 1415.67,-519.53"/>
</g>
<!-- src/domain/entities/Video.ts -->
<g id="node22" class="node">
<title>src/domain/entities/Video.ts</title>
<g id="a_node22"><a xlink:href="src/domain/entities/Video.ts" xlink:title="Video.ts">
<path fill="#ddfeff" stroke="black" d="M1543.96,-528.62C1543.96,-528.62 1502.79,-528.62 1502.79,-528.62 1499.58,-528.62 1496.38,-525.42 1496.38,-522.21 1496.38,-522.21 1496.38,-515.79 1496.38,-515.79 1496.38,-512.58 1499.58,-509.38 1502.79,-509.38 1502.79,-509.38 1543.96,-509.38 1543.96,-509.38 1547.17,-509.38 1550.38,-512.58 1550.38,-515.79 1550.38,-515.79 1550.38,-522.21 1550.38,-522.21 1550.38,-525.42 1547.17,-528.62 1543.96,-528.62"/>
<text text-anchor="start" x="1506.88" y="-516.08" font-family="Helvetica,sans-Serif" font-size="9.00">Video.ts</text>
</a>
</g>
</g>
<!-- src/domain/index.ts&#45;&gt;src/domain/entities/Video.ts -->
<g id="edge29" class="edge">
<title>src/domain/index.ts&#45;&gt;src/domain/entities/Video.ts</title>
<path fill="none" stroke="#000000" stroke-opacity="0.200000" d="M1192.96,-334.28C1206.53,-333.01 1223.39,-331.63 1238.5,-331 1347.38,-326.46 1407.19,-297.81 1478.75,-380 1509.72,-415.57 1518.72,-473.07 1521.32,-501.68"/>
<polygon fill="none" stroke="#000000" stroke-opacity="0.200000" points="1519.21,-501.62 1521.78,-507.43 1523.4,-501.28 1519.21,-501.62"/>
</g>
<!-- src/domain/repositories/IMetadataRepository.ts -->
<g id="node24" class="node">
<title>src/domain/repositories/IMetadataRepository.ts</title>
<g id="a_node24"><a xlink:href="src/domain/repositories/IMetadataRepository.ts" xlink:title="IMetadataRepository.ts">
<path fill="#ddfeff" stroke="black" d="M1349.83,-392.62C1349.83,-392.62 1252.92,-392.62 1252.92,-392.62 1249.71,-392.62 1246.5,-389.42 1246.5,-386.21 1246.5,-386.21 1246.5,-379.79 1246.5,-379.79 1246.5,-376.58 1249.71,-373.38 1252.92,-373.38 1252.92,-373.38 1349.83,-373.38 1349.83,-373.38 1353.04,-373.38 1356.25,-376.58 1356.25,-379.79 1356.25,-379.79 1356.25,-386.21 1356.25,-386.21 1356.25,-389.42 1353.04,-392.62 1349.83,-392.62"/>
<text text-anchor="start" x="1254.5" y="-380.07" font-family="Helvetica,sans-Serif" font-size="9.00">IMetadataRepository.ts</text>
</a>
</g>
</g>
<!-- src/domain/index.ts&#45;&gt;src/domain/repositories/IMetadataRepository.ts -->
<g id="edge31" class="edge">
<title>src/domain/index.ts&#45;&gt;src/domain/repositories/IMetadataRepository.ts</title>
<path fill="none" stroke="#000000" stroke-opacity="0.200000" d="M1187.42,-347.04C1201.56,-353.64 1220.87,-362.1 1238.5,-368 1241.53,-369.01 1244.66,-369.99 1247.84,-370.92"/>
<polygon fill="none" stroke="#000000" stroke-opacity="0.200000" points="1247.04,-372.88 1253.38,-372.49 1248.18,-368.84 1247.04,-372.88"/>
</g>
<!-- src/domain/repositories/IVideoRepository.ts -->
<g id="node25" class="node">
<title>src/domain/repositories/IVideoRepository.ts</title>
<g id="a_node25"><a xlink:href="src/domain/repositories/IVideoRepository.ts" xlink:title="IVideoRepository.ts">
<path fill="#ddfeff" stroke="black" d="M1342.71,-361.62C1342.71,-361.62 1260.04,-361.62 1260.04,-361.62 1256.83,-361.62 1253.62,-358.42 1253.62,-355.21 1253.62,-355.21 1253.62,-348.79 1253.62,-348.79 1253.62,-345.58 1256.83,-342.38 1260.04,-342.38 1260.04,-342.38 1342.71,-342.38 1342.71,-342.38 1345.92,-342.38 1349.12,-345.58 1349.12,-348.79 1349.12,-348.79 1349.12,-355.21 1349.12,-355.21 1349.12,-358.42 1345.92,-361.62 1342.71,-361.62"/>
<text text-anchor="start" x="1261.62" y="-349.07" font-family="Helvetica,sans-Serif" font-size="9.00">IVideoRepository.ts</text>
</a>
</g>
</g>
<!-- src/domain/index.ts&#45;&gt;src/domain/repositories/IVideoRepository.ts -->
<g id="edge32" class="edge">
<title>src/domain/index.ts&#45;&gt;src/domain/repositories/IVideoRepository.ts</title>
<path fill="none" stroke="#000000" stroke-opacity="0.200000" d="M1193.15,-339.96C1208.26,-341.66 1227.78,-343.85 1246.02,-345.9"/>
<polygon fill="none" stroke="#000000" stroke-opacity="0.200000" points="1245.5,-347.95 1251.7,-346.54 1245.97,-343.78 1245.5,-347.95"/>
</g>
<!-- src/domain/valueObjects/Thumbs.ts -->
<g id="node26" class="node">
<title>src/domain/valueObjects/Thumbs.ts</title>
<g id="a_node26"><a xlink:href="src/domain/valueObjects/Thumbs.ts" xlink:title="Thumbs.ts">
<path fill="#ddfeff" stroke="black" d="M1325.08,-288.62C1325.08,-288.62 1277.67,-288.62 1277.67,-288.62 1274.46,-288.62 1271.25,-285.42 1271.25,-282.21 1271.25,-282.21 1271.25,-275.79 1271.25,-275.79 1271.25,-272.58 1274.46,-269.38 1277.67,-269.38 1277.67,-269.38 1325.08,-269.38 1325.08,-269.38 1328.29,-269.38 1331.5,-272.58 1331.5,-275.79 1331.5,-275.79 1331.5,-282.21 1331.5,-282.21 1331.5,-285.42 1328.29,-288.62 1325.08,-288.62"/>
<text text-anchor="start" x="1279.25" y="-276.07" font-family="Helvetica,sans-Serif" font-size="9.00">Thumbs.ts</text>
</a>
</g>
</g>
<!-- src/domain/index.ts&#45;&gt;src/domain/valueObjects/Thumbs.ts -->
<g id="edge33" class="edge">
<title>src/domain/index.ts&#45;&gt;src/domain/valueObjects/Thumbs.ts</title>
<path fill="none" stroke="#000000" stroke-opacity="0.200000" d="M1180.06,-326.98C1193.95,-316.98 1216.71,-301.86 1238.5,-293 1246.39,-289.79 1255.16,-287.24 1263.56,-285.25"/>
<polygon fill="none" stroke="#000000" stroke-opacity="0.200000" points="1263.93,-287.32 1269.34,-283.97 1263.02,-283.22 1263.93,-287.32"/>
</g>
<!-- src/infrastructure/repository/MetadataRepository.ts -->
<g id="node29" class="node">
<title>src/infrastructure/repository/MetadataRepository.ts</title>
<g id="a_node29"><a xlink:href="src/infrastructure/repository/MetadataRepository.ts" xlink:title="MetadataRepository.ts">
<path fill="#ddfeff" stroke="black" d="M1078.58,-82.62C1078.58,-82.62 983.92,-82.62 983.92,-82.62 980.71,-82.62 977.5,-79.42 977.5,-76.21 977.5,-76.21 977.5,-69.79 977.5,-69.79 977.5,-66.58 980.71,-63.38 983.92,-63.38 983.92,-63.38 1078.58,-63.38 1078.58,-63.38 1081.79,-63.38 1085,-66.58 1085,-69.79 1085,-69.79 1085,-76.21 1085,-76.21 1085,-79.42 1081.79,-82.62 1078.58,-82.62"/>
<text text-anchor="start" x="985.5" y="-70.08" font-family="Helvetica,sans-Serif" font-size="9.00">MetadataRepository.ts</text>
</a>
</g>
</g>
<!-- src/infrastructure/index.ts&#45;&gt;src/infrastructure/repository/MetadataRepository.ts -->
<g id="edge36" class="edge">
<title>src/infrastructure/index.ts&#45;&gt;src/infrastructure/repository/MetadataRepository.ts</title>
<path fill="none" stroke="#000000" stroke-width="2" stroke-opacity="0.200000" d="M899.65,-153.02C925.57,-137.14 976.34,-106.03 1006.38,-87.63"/>
<polygon fill="#000000" fill-opacity="0.200000" stroke="#000000" stroke-width="2" stroke-opacity="0.200000" points="1007.3,-89.53 1011.32,-84.6 1005.1,-85.95 1007.3,-89.53"/>
</g>
<!-- src/infrastructure/repository/VideoRepository.ts -->
<g id="node30" class="node">
<title>src/infrastructure/repository/VideoRepository.ts</title>
<g id="a_node30"><a xlink:href="src/infrastructure/repository/VideoRepository.ts" xlink:title="VideoRepository.ts">
<path fill="#ddfeff" stroke="black" d="M1071.46,-51.62C1071.46,-51.62 991.04,-51.62 991.04,-51.62 987.83,-51.62 984.62,-48.42 984.62,-45.21 984.62,-45.21 984.62,-38.79 984.62,-38.79 984.62,-35.58 987.83,-32.38 991.04,-32.38 991.04,-32.38 1071.46,-32.38 1071.46,-32.38 1074.67,-32.38 1077.88,-35.58 1077.88,-38.79 1077.88,-38.79 1077.88,-45.21 1077.88,-45.21 1077.88,-48.42 1074.67,-51.62 1071.46,-51.62"/>
<text text-anchor="start" x="992.62" y="-39.08" font-family="Helvetica,sans-Serif" font-size="9.00">VideoRepository.ts</text>
</a>
</g>
</g>
<!-- src/infrastructure/index.ts&#45;&gt;src/infrastructure/repository/VideoRepository.ts -->
<g id="edge37" class="edge">
<title>src/infrastructure/index.ts&#45;&gt;src/infrastructure/repository/VideoRepository.ts</title>
<path fill="none" stroke="#000000" stroke-width="2" stroke-opacity="0.200000" d="M888.53,-153.01C900.02,-131.8 929.85,-82.15 969.5,-57 971.61,-55.66 973.83,-54.45 976.12,-53.34"/>
<polygon fill="#000000" fill-opacity="0.200000" stroke="#000000" stroke-width="2" stroke-opacity="0.200000" points="976.63,-55.4 981.35,-51.14 975.01,-51.53 976.63,-55.4"/>
</g>
<!-- src/infrastructure/video/index.ts -->
<g id="node31" class="node">
<title>src/infrastructure/video/index.ts</title>
<g id="a_node31"><a xlink:href="src/infrastructure/video/index.ts" xlink:title="index.ts">
<path fill="#ddfeff" stroke="black" d="M1051.83,-159.62C1051.83,-159.62 1010.67,-159.62 1010.67,-159.62 1007.46,-159.62 1004.25,-156.42 1004.25,-153.21 1004.25,-153.21 1004.25,-146.79 1004.25,-146.79 1004.25,-143.58 1007.46,-140.38 1010.67,-140.38 1010.67,-140.38 1051.83,-140.38 1051.83,-140.38 1055.04,-140.38 1058.25,-143.58 1058.25,-146.79 1058.25,-146.79 1058.25,-153.21 1058.25,-153.21 1058.25,-156.42 1055.04,-159.62 1051.83,-159.62"/>
<text text-anchor="start" x="1015.5" y="-147.07" font-family="Helvetica,sans-Serif" font-size="9.00">index.ts</text>
</a>
</g>
</g>
<!-- src/infrastructure/index.ts&#45;&gt;src/infrastructure/video/index.ts -->
<g id="edge38" class="edge">
<title>src/infrastructure/index.ts&#45;&gt;src/infrastructure/video/index.ts</title>
<path fill="none" stroke="#000000" stroke-width="2" stroke-opacity="0.200000" d="M909.63,-160.68C936.37,-158.31 977.57,-154.66 1004.22,-152.3"/>
<polygon fill="#000000" fill-opacity="0.200000" stroke="#000000" stroke-width="2" stroke-opacity="0.200000" points="1007.03,-150.91 1010.93,-159.01 1002.83,-155.11 1007.03,-150.91"/>
</g>
<!-- src/application/services/VideoStorageDtoMapper.ts&#45;&gt;src/domain/index.ts -->
<g id="edge15" class="edge">
<title>src/application/services/VideoStorageDtoMapper.ts&#45;&gt;src/domain/index.ts</title>
<path fill="none" stroke="#000000" stroke-opacity="0.200000" d="M945.75,-286.32C987.93,-287.82 1044.56,-292.37 1093,-305 1109.45,-309.29 1126.88,-316.98 1140.45,-323.75"/>
<polygon fill="none" stroke="#000000" stroke-opacity="0.200000" points="1139.13,-325.44 1145.43,-326.29 1141.04,-321.7 1139.13,-325.44"/>
</g>
<!-- src/components/VideoCard.vue&#45;&gt;src/domain/index.ts -->
<g id="edge17" class="edge">
<title>src/components/VideoCard.vue&#45;&gt;src/domain/index.ts</title>
<path fill="none" stroke="#000000" stroke-opacity="0.200000" d="M360.6,-422C402.77,-422 473.44,-422 534.25,-422 534.25,-422 534.25,-422 883.38,-422 978.39,-422 1004.37,-414.26 1093,-380 1111.79,-372.74 1131.29,-360.71 1145.21,-351.23"/>
<polygon fill="none" stroke="#000000" stroke-opacity="0.200000" points="1146.22,-353.08 1149.95,-347.94 1143.82,-349.63 1146.22,-353.08"/>
</g>
<!-- src/components/VideoEmbed.vue -->
<g id="node14" class="node">
<title>src/components/VideoEmbed.vue</title>
<g id="a_node14"><a xlink:href="src/components/VideoEmbed.vue" xlink:title="VideoEmbed.vue">
<path fill="#41f083" stroke="black" d="M477.83,-408.62C477.83,-408.62 404.92,-408.62 404.92,-408.62 401.71,-408.62 398.5,-405.42 398.5,-402.21 398.5,-402.21 398.5,-395.79 398.5,-395.79 398.5,-392.58 401.71,-389.38 404.92,-389.38 404.92,-389.38 477.83,-389.38 477.83,-389.38 481.04,-389.38 484.25,-392.58 484.25,-395.79 484.25,-395.79 484.25,-402.21 484.25,-402.21 484.25,-405.42 481.04,-408.62 477.83,-408.62"/>
<text text-anchor="start" x="406.5" y="-396.07" font-family="Helvetica,sans-Serif" font-size="9.00">VideoEmbed.vue</text>
</a>
</g>
</g>
<!-- src/components/VideoCard.vue&#45;&gt;src/components/VideoEmbed.vue -->
<g id="edge16" class="edge">
<title>src/components/VideoCard.vue&#45;&gt;src/components/VideoEmbed.vue</title>
<path fill="none" stroke="#000000" stroke-width="2" stroke-opacity="0.200000" d="M360.63,-414.66C369.75,-412.87 379.67,-410.92 389.31,-409.03"/>
<polygon fill="#000000" fill-opacity="0.200000" stroke="#000000" stroke-width="2" stroke-opacity="0.200000" points="389.6,-411.11 395.09,-407.89 388.8,-406.99 389.6,-411.11"/>
</g>
<!-- src/components/VideoCard.vue&#45;&gt;src/stores/videosStore.ts -->
<g id="edge18" class="edge">
<title>src/components/VideoCard.vue&#45;&gt;src/stores/videosStore.ts</title>
<path fill="none" stroke="#000000" stroke-width="2" stroke-opacity="0.200000" d="M360.7,-420.17C369.33,-417.91 377.62,-413.91 383.25,-407 396.6,-390.62 378.32,-233.71 391.25,-217 392.68,-215.15 394.34,-213.52 396.15,-212.08"/>
<polygon fill="#000000" fill-opacity="0.200000" stroke="#000000" stroke-width="2" stroke-opacity="0.200000" points="397.18,-213.92 401.24,-209.03 395.02,-210.32 397.18,-213.92"/>
</g>
<!-- src/components/VideoEmbed.vue&#45;&gt;src/domain/index.ts -->
<g id="edge19" class="edge">
<title>src/components/VideoEmbed.vue&#45;&gt;src/domain/index.ts</title>
<path fill="none" stroke="#000000" stroke-opacity="0.200000" d="M484.42,-399C521.74,-399 577.75,-399 626.5,-399 626.5,-399 626.5,-399 883.38,-399 974.86,-399 1079.25,-367.35 1131.4,-349.28"/>
<polygon fill="none" stroke="#000000" stroke-opacity="0.200000" points="1132.01,-351.29 1136.98,-347.32 1130.62,-347.33 1132.01,-351.29"/>
</g>
<!-- src/stores/videosStore.ts&#45;&gt;src/application/index.ts -->
<g id="edge50" class="edge">
<title>src/stores/videosStore.ts&#45;&gt;src/application/index.ts</title>
<path fill="none" stroke="#000000" stroke-width="2" stroke-opacity="0.200000" d="M478.97,-210.17C483.65,-212.02 488.2,-214.27 492.25,-217 496.97,-220.19 496.54,-222.68 500.25,-227 506.17,-233.91 512.91,-241.32 518.82,-247.69"/>
<polygon fill="#000000" fill-opacity="0.200000" stroke="#000000" stroke-width="2" stroke-opacity="0.200000" points="517.13,-248.96 522.76,-251.91 520.19,-246.09 517.13,-248.96"/>
</g>
<!-- src/stores/videosStore.ts&#45;&gt;src/domain/index.ts -->
<g id="edge51" class="edge">
<title>src/stores/videosStore.ts&#45;&gt;src/domain/index.ts</title>
<path fill="none" stroke="#000000" stroke-opacity="0.200000" d="M478.92,-208.64C515.97,-214.8 575.02,-223 626.5,-223 626.5,-223 626.5,-223 883.38,-223 917.07,-223 1080.88,-277.86 1093,-284 1113.55,-294.42 1134.44,-310.62 1148.34,-322.37"/>
<polygon fill="none" stroke="#000000" stroke-opacity="0.200000" points="1146.78,-323.8 1152.7,-326.12 1149.52,-320.62 1146.78,-323.8"/>
</g>
<!-- src/stores/videosStore.ts&#45;&gt;src/infrastructure/index.ts -->
<g id="edge52" class="edge">
<title>src/stores/videosStore.ts&#45;&gt;src/infrastructure/index.ts</title>
<path fill="none" stroke="#000000" stroke-width="2" stroke-opacity="0.200000" d="M479.05,-198.74C562.19,-191.36 764.12,-173.42 846,-166.14"/>
<polygon fill="#000000" fill-opacity="0.200000" stroke="#000000" stroke-width="2" stroke-opacity="0.200000" points="846.12,-168.24 851.91,-165.62 845.74,-164.06 846.12,-168.24"/>
</g>
<!-- src/components/inputs/FileInput.vue&#45;&gt;src/stores/videosStore.ts -->
<g id="edge20" class="edge">
<title>src/components/inputs/FileInput.vue&#45;&gt;src/stores/videosStore.ts</title>
<path fill="none" stroke="#000000" stroke-width="2" stroke-opacity="0.200000" d="M339.84,-293.94C353.59,-284.73 372.54,-269.85 383.25,-252 391.46,-238.32 380.38,-228.68 391.25,-217 392.79,-215.34 394.51,-213.87 396.36,-212.55"/>
<polygon fill="#000000" fill-opacity="0.200000" stroke="#000000" stroke-width="2" stroke-opacity="0.200000" points="397.17,-214.51 401.36,-209.73 395.1,-210.85 397.17,-214.51"/>
</g>
<!-- src/stores/appStateStore.ts&#45;&gt;src/application/index.ts -->
<g id="edge49" class="edge">
<title>src/stores/appStateStore.ts&#45;&gt;src/application/index.ts</title>
<path fill="none" stroke="#000000" stroke-width="2" stroke-opacity="0.200000" d="M472.2,-243.06C480.94,-246.01 490.56,-249.26 499.57,-252.3"/>
<polygon fill="#000000" fill-opacity="0.200000" stroke="#000000" stroke-width="2" stroke-opacity="0.200000" points="498.75,-254.24 505.11,-254.17 500.09,-250.26 498.75,-254.24"/>
</g>
<!-- src/domain/entities/ParsedVideo.ts&#45;&gt;src/domain/entities/VideoStorageDto.ts -->
<g id="edge23" class="edge">
<title>src/domain/entities/ParsedVideo.ts&#45;&gt;src/domain/entities/VideoStorageDto.ts</title>
<path fill="none" stroke="#000000" stroke-opacity="0.200000" d="M1341.36,-545.11C1352.29,-543.74 1364.36,-542.23 1376,-540.77"/>
<polygon fill="none" stroke="#000000" stroke-opacity="0.200000" points="1375.97,-542.89 1381.67,-540.06 1375.45,-538.72 1375.97,-542.89"/>
</g>
<!-- src/domain/entities/VideoStorageDto.ts&#45;&gt;src/domain/entities/Metadata.ts -->
<g id="edge24" class="edge">
<title>src/domain/entities/VideoStorageDto.ts&#45;&gt;src/domain/entities/Metadata.ts</title>
<path fill="none" stroke="#000000" stroke-opacity="0.200000" d="M1479.04,-542.33C1480.92,-542.66 1482.79,-542.99 1484.64,-543.32"/>
<polygon fill="none" stroke="#000000" stroke-opacity="0.200000" points="1483.92,-545.32 1490.2,-544.3 1484.65,-541.19 1483.92,-545.32"/>
</g>
<!-- src/domain/entities/VideoStorageDto.ts&#45;&gt;src/domain/entities/Video.ts -->
<g id="edge25" class="edge">
<title>src/domain/entities/VideoStorageDto.ts&#45;&gt;src/domain/entities/Video.ts</title>
<path fill="none" stroke="#000000" stroke-opacity="0.200000" d="M1479.04,-526.19C1482.32,-525.65 1485.59,-525.11 1488.78,-524.58"/>
<polygon fill="none" stroke="#000000" stroke-opacity="0.200000" points="1488.96,-526.68 1494.53,-523.62 1488.27,-522.53 1488.96,-526.68"/>
</g>
<!-- src/domain/entities/VideoMetadata.ts -->
<g id="node23" class="node">
<title>src/domain/entities/VideoMetadata.ts</title>
<g id="a_node23"><a xlink:href="src/domain/entities/VideoMetadata.ts" xlink:title="no&#45;orphans">
<path fill="#ccffcc" stroke="orange" d="M1338.21,-528.62C1338.21,-528.62 1264.54,-528.62 1264.54,-528.62 1261.33,-528.62 1258.12,-525.42 1258.12,-522.21 1258.12,-522.21 1258.12,-515.79 1258.12,-515.79 1258.12,-512.58 1261.33,-509.38 1264.54,-509.38 1264.54,-509.38 1338.21,-509.38 1338.21,-509.38 1341.42,-509.38 1344.62,-512.58 1344.62,-515.79 1344.62,-515.79 1344.62,-522.21 1344.62,-522.21 1344.62,-525.42 1341.42,-528.62 1338.21,-528.62"/>
<text text-anchor="start" x="1266.12" y="-516.08" font-family="Helvetica,sans-Serif" font-size="9.00" fill="orange">VideoMetadata.ts</text>
</a>
</g>
</g>
<!-- src/domain/repositories/IMetadataRepository.ts&#45;&gt;src/domain/entities/Metadata.ts -->
<g id="edge34" class="edge">
<title>src/domain/repositories/IMetadataRepository.ts&#45;&gt;src/domain/entities/Metadata.ts</title>
<path fill="none" stroke="#000000" stroke-opacity="0.200000" d="M1356.42,-389.09C1363.01,-391.06 1369.46,-393.63 1375.25,-397 1436.43,-432.56 1434.24,-462.98 1478.75,-518 1484.73,-525.39 1484.39,-528.97 1491.75,-535 1492.16,-535.34 1492.58,-535.67 1493.01,-536"/>
<polygon fill="none" stroke="#000000" stroke-opacity="0.200000" points="1491.51,-537.52 1497.67,-539.11 1493.85,-534.03 1491.51,-537.52"/>
</g>
<!-- src/domain/repositories/IVideoRepository.ts&#45;&gt;src/domain/entities/Video.ts -->
<g id="edge35" class="edge">
<title>src/domain/repositories/IVideoRepository.ts&#45;&gt;src/domain/entities/Video.ts</title>
<path fill="none" stroke="#000000" stroke-opacity="0.200000" d="M1349.39,-355.23C1358.63,-357.57 1367.77,-361.26 1375.25,-367 1381.55,-371.84 1376.88,-378.24 1383.25,-383 1417.79,-408.8 1445.72,-372.3 1478.75,-400 1509.62,-425.88 1518.65,-475.6 1521.29,-501.83"/>
<polygon fill="none" stroke="#000000" stroke-opacity="0.200000" points="1519.18,-501.86 1521.79,-507.65 1523.36,-501.5 1519.18,-501.86"/>
</g>
<!-- src/domain/valueObjects/ParsedVideoData.ts -->
<g id="node27" class="node">
<title>src/domain/valueObjects/ParsedVideoData.ts</title>
<g id="a_node27"><a xlink:href="src/domain/valueObjects/ParsedVideoData.ts" xlink:title="ParsedVideoData.ts">
<path fill="#ddfeff" stroke="black" d="M1344.21,-257.62C1344.21,-257.62 1258.54,-257.62 1258.54,-257.62 1255.33,-257.62 1252.12,-254.42 1252.12,-251.21 1252.12,-251.21 1252.12,-244.79 1252.12,-244.79 1252.12,-241.58 1255.33,-238.38 1258.54,-238.38 1258.54,-238.38 1344.21,-238.38 1344.21,-238.38 1347.42,-238.38 1350.62,-241.58 1350.62,-244.79 1350.62,-244.79 1350.62,-251.21 1350.62,-251.21 1350.62,-254.42 1347.42,-257.62 1344.21,-257.62"/>
<text text-anchor="start" x="1260.12" y="-245.07" font-family="Helvetica,sans-Serif" font-size="9.00">ParsedVideoData.ts</text>
</a>
</g>
</g>
<!-- src/infrastructure/database/DatabaseConnection.ts -->
<g id="node28" class="node">
<title>src/infrastructure/database/DatabaseConnection.ts</title>
<g id="a_node28"><a xlink:href="src/infrastructure/database/DatabaseConnection.ts" xlink:title="DatabaseConnection.ts">
<path fill="#ddfeff" stroke="black" d="M1216.08,-66.62C1216.08,-66.62 1115.42,-66.62 1115.42,-66.62 1112.21,-66.62 1109,-63.42 1109,-60.21 1109,-60.21 1109,-53.79 1109,-53.79 1109,-50.58 1112.21,-47.38 1115.42,-47.38 1115.42,-47.38 1216.08,-47.38 1216.08,-47.38 1219.29,-47.38 1222.5,-50.58 1222.5,-53.79 1222.5,-53.79 1222.5,-60.21 1222.5,-60.21 1222.5,-63.42 1219.29,-66.62 1216.08,-66.62"/>
<text text-anchor="start" x="1117" y="-54.08" font-family="Helvetica,sans-Serif" font-size="9.00">DatabaseConnection.ts</text>
</a>
</g>
</g>
<!-- src/infrastructure/repository/MetadataRepository.ts&#45;&gt;src/domain/index.ts -->
<g id="edge40" class="edge">
<title>src/infrastructure/repository/MetadataRepository.ts&#45;&gt;src/domain/index.ts</title>
<path fill="none" stroke="#000000" stroke-width="2" stroke-opacity="0.200000" d="M1055.73,-83.09C1068.95,-90.06 1084.49,-100.67 1093,-115 1110.12,-143.82 1092.46,-157.58 1101,-190 1113.86,-238.79 1140.5,-292.23 1154.93,-319.24"/>
<polygon fill="#000000" fill-opacity="0.200000" stroke="#000000" stroke-width="2" stroke-opacity="0.200000" points="1153.01,-320.11 1157.72,-324.38 1156.71,-318.11 1153.01,-320.11"/>
</g>
<!-- src/infrastructure/repository/MetadataRepository.ts&#45;&gt;src/infrastructure/database/DatabaseConnection.ts -->
<g id="edge39" class="edge">
<title>src/infrastructure/repository/MetadataRepository.ts&#45;&gt;src/infrastructure/database/DatabaseConnection.ts</title>
<path fill="none" stroke="#000000" stroke-width="2" stroke-opacity="0.200000" d="M1085.38,-66.58C1090.15,-66.01 1095.01,-65.42 1099.87,-64.83"/>
<polygon fill="#000000" fill-opacity="0.200000" stroke="#000000" stroke-width="2" stroke-opacity="0.200000" points="1099.86,-66.95 1105.57,-64.15 1099.36,-62.78 1099.86,-66.95"/>
</g>
<!-- src/infrastructure/repository/VideoRepository.ts&#45;&gt;src/domain/index.ts -->
<g id="edge42" class="edge">
<title>src/infrastructure/repository/VideoRepository.ts&#45;&gt;src/domain/index.ts</title>
<path fill="none" stroke="#000000" stroke-width="2" stroke-opacity="0.200000" d="M1078.12,-46.47C1083.83,-48.86 1089.04,-52.24 1093,-57 1102.47,-68.38 1097.56,-175.6 1101,-190 1112.73,-239.07 1139.84,-292.4 1154.65,-319.32"/>
<polygon fill="#000000" fill-opacity="0.200000" stroke="#000000" stroke-width="2" stroke-opacity="0.200000" points="1152.75,-320.23 1157.51,-324.45 1156.42,-318.18 1152.75,-320.23"/>
</g>
<!-- src/infrastructure/repository/VideoRepository.ts&#45;&gt;src/infrastructure/database/DatabaseConnection.ts -->
<g id="edge41" class="edge">
<title>src/infrastructure/repository/VideoRepository.ts&#45;&gt;src/infrastructure/database/DatabaseConnection.ts</title>
<path fill="none" stroke="#000000" stroke-width="2" stroke-opacity="0.200000" d="M1078.22,-47.2C1085.31,-48.01 1092.75,-48.85 1100.15,-49.69"/>
<polygon fill="#000000" fill-opacity="0.200000" stroke="#000000" stroke-width="2" stroke-opacity="0.200000" points="1099.61,-51.74 1105.81,-50.33 1100.08,-47.57 1099.61,-51.74"/>
</g>
<!-- src/infrastructure/video/HTMLVideoProcessor.ts -->
<g id="node32" class="node">
<title>src/infrastructure/video/HTMLVideoProcessor.ts</title>
<g id="a_node32"><a xlink:href="src/infrastructure/video/HTMLVideoProcessor.ts" xlink:title="HTMLVideoProcessor.ts">
<path fill="#ddfeff" stroke="black" d="M1352.83,-159.62C1352.83,-159.62 1249.92,-159.62 1249.92,-159.62 1246.71,-159.62 1243.5,-156.42 1243.5,-153.21 1243.5,-153.21 1243.5,-146.79 1243.5,-146.79 1243.5,-143.58 1246.71,-140.38 1249.92,-140.38 1249.92,-140.38 1352.83,-140.38 1352.83,-140.38 1356.04,-140.38 1359.25,-143.58 1359.25,-146.79 1359.25,-146.79 1359.25,-153.21 1359.25,-153.21 1359.25,-156.42 1356.04,-159.62 1352.83,-159.62"/>
<text text-anchor="start" x="1251.5" y="-147.07" font-family="Helvetica,sans-Serif" font-size="9.00">HTMLVideoProcessor.ts</text>
</a>
</g>
</g>
<!-- src/infrastructure/video/index.ts&#45;&gt;src/infrastructure/video/HTMLVideoProcessor.ts -->
<g id="edge46" class="edge">
<title>src/infrastructure/video/index.ts&#45;&gt;src/infrastructure/video/HTMLVideoProcessor.ts</title>
<path fill="none" stroke="#000000" stroke-width="2" stroke-opacity="0.200000" d="M1058.45,-142.42C1071.17,-139.12 1086.76,-135.64 1101,-134 1158.18,-127.43 1173.31,-127.54 1263.29,-139.88"/>
<polygon fill="#000000" fill-opacity="0.200000" stroke="#000000" stroke-width="2" stroke-opacity="0.200000" points="1266.1,-138.48 1270,-146.58 1261.9,-142.68 1266.1,-138.48"/>
</g>
<!-- src/infrastructure/video/VideoFileParser.ts -->
<g id="node33" class="node">
<title>src/infrastructure/video/VideoFileParser.ts</title>
<g id="a_node33"><a xlink:href="src/infrastructure/video/VideoFileParser.ts" xlink:title="VideoFileParser.ts">
<path fill="#ddfeff" stroke="black" d="M1205.21,-159.62C1205.21,-159.62 1126.29,-159.62 1126.29,-159.62 1123.08,-159.62 1119.88,-156.42 1119.88,-153.21 1119.88,-153.21 1119.88,-146.79 1119.88,-146.79 1119.88,-143.58 1123.08,-140.38 1126.29,-140.38 1126.29,-140.38 1205.21,-140.38 1205.21,-140.38 1208.42,-140.38 1211.62,-143.58 1211.62,-146.79 1211.62,-146.79 1211.62,-153.21 1211.62,-153.21 1211.62,-156.42 1208.42,-159.62 1205.21,-159.62"/>
<text text-anchor="start" x="1127.88" y="-147.07" font-family="Helvetica,sans-Serif" font-size="9.00">VideoFileParser.ts</text>
</a>
</g>
</g>
<!-- src/infrastructure/video/index.ts&#45;&gt;src/infrastructure/video/VideoFileParser.ts -->
<g id="edge47" class="edge">
<title>src/infrastructure/video/index.ts&#45;&gt;src/infrastructure/video/VideoFileParser.ts</title>
<path fill="none" stroke="#000000" stroke-width="2" stroke-opacity="0.200000" d="M1058.74,-150C1076.11,-150 1099.27,-150 1119.51,-150"/>
<polygon fill="#000000" fill-opacity="0.200000" stroke="#000000" stroke-width="2" stroke-opacity="0.200000" points="1122.32,-148.61 1126.22,-156.71 1118.12,-152.81 1122.32,-148.61"/>
</g>
<!-- src/infrastructure/video/VideoFileParser.ts&#45;&gt;src/domain/entities/Video.ts -->
<g id="edge44" class="edge">
<title>src/infrastructure/video/VideoFileParser.ts&#45;&gt;src/domain/entities/Video.ts</title>
<path fill="none" stroke="#000000" stroke-opacity="0.200000" d="M1197.84,-139.88C1239.53,-128.01 1315.26,-112.53 1375.25,-134 1431.29,-154.06 1449.49,-167.16 1478.75,-219 1506.49,-268.15 1518.37,-445.48 1521.49,-501.74"/>
<polygon fill="none" stroke="#000000" stroke-opacity="0.200000" points="1519.39,-501.75 1521.81,-507.63 1523.58,-501.52 1519.39,-501.75"/>
</g>
<!-- src/infrastructure/video/VideoFileParser.ts&#45;&gt;src/domain/valueObjects/ParsedVideoData.ts -->
<g id="edge45" class="edge">
<title>src/infrastructure/video/VideoFileParser.ts&#45;&gt;src/domain/valueObjects/ParsedVideoData.ts</title>
<path fill="none" stroke="#000000" stroke-width="2" stroke-opacity="0.200000" d="M1180.55,-160.12C1204.07,-177.37 1252.08,-212.58 1279.65,-232.8"/>
<polygon fill="#000000" fill-opacity="0.200000" stroke="#000000" stroke-width="2" stroke-opacity="0.200000" points="1278.33,-234.44 1284.41,-236.29 1280.81,-231.05 1278.33,-234.44"/>
</g>
<!-- src/infrastructure/video/VideoFileParser.ts&#45;&gt;src/infrastructure/video/HTMLVideoProcessor.ts -->
<g id="edge43" class="edge">
<title>src/infrastructure/video/VideoFileParser.ts&#45;&gt;src/infrastructure/video/HTMLVideoProcessor.ts</title>
<path fill="none" stroke="#000000" stroke-width="2" stroke-opacity="0.200000" d="M1211.99,-150C1219.17,-150 1226.73,-150 1234.27,-150"/>
<polygon fill="#000000" fill-opacity="0.200000" stroke="#000000" stroke-width="2" stroke-opacity="0.200000" points="1234.07,-152.1 1240.07,-150 1234.07,-147.9 1234.07,-152.1"/>
</g>
<!-- src/main.ts -->
<g id="node34" class="node">
<title>src/main.ts</title>
<g id="a_node34"><a xlink:href="src/main.ts" xlink:title="main.ts">
<path fill="#ddfeff" stroke="black" d="M63.58,-273.62C63.58,-273.62 22.42,-273.62 22.42,-273.62 19.21,-273.62 16,-270.42 16,-267.21 16,-267.21 16,-260.79 16,-260.79 16,-257.58 19.21,-254.38 22.42,-254.38 22.42,-254.38 63.58,-254.38 63.58,-254.38 66.79,-254.38 70,-257.58 70,-260.79 70,-260.79 70,-267.21 70,-267.21 70,-270.42 66.79,-273.62 63.58,-273.62"/>
<text text-anchor="start" x="27.62" y="-261.07" font-family="Helvetica,sans-Serif" font-size="9.00">main.ts</text>
</a>
</g>
</g>
<!-- src/main.ts&#45;&gt;src/App.vue -->
<g id="edge48" class="edge">
<title>src/main.ts&#45;&gt;src/App.vue</title>
<path fill="none" stroke="#000000" stroke-width="2" stroke-opacity="0.200000" d="M70.44,-264C71.58,-264 72.74,-264 73.9,-264"/>
<polygon fill="#000000" fill-opacity="0.200000" stroke="#000000" stroke-width="2" stroke-opacity="0.200000" points="73.77,-266.1 79.77,-264 73.77,-261.9 73.77,-266.1"/>
</g>
</g>
</svg>
