<?xml version="1.0" encoding="UTF-8" standalone="no"?>
<!DOCTYPE svg PUBLIC "-//W3C//DTD SVG 1.1//EN"
 "http://www.w3.org/Graphics/SVG/1.1/DTD/svg11.dtd">
<!-- Generated by graphviz version 9.0.0 (20230911.1827)
 -->
<!-- Title: dependency&#45;cruiser output Pages: 1 -->
<svg width="1140pt" height="502pt"
 viewBox="0.00 0.00 1140.12 502.00" xmlns="http://www.w3.org/2000/svg" xmlns:xlink="http://www.w3.org/1999/xlink">
<g id="graph0" class="graph" transform="scale(1 1) rotate(0) translate(4 498)">
<title>dependency&#45;cruiser output</title>
<polygon fill="white" stroke="none" points="-4,4 -4,-498 1136.12,-498 1136.12,4 -4,4"/>
<g id="clust1" class="cluster">
<title>cluster_src</title>
<path fill="#ffffff" stroke="black" stroke-width="2" d="M20,-8C20,-8 1112.12,-8 1112.12,-8 1118.12,-8 1124.12,-14 1124.12,-20 1124.12,-20 1124.12,-474 1124.12,-474 1124.12,-480 1118.12,-486 1112.12,-486 1112.12,-486 20,-486 20,-486 14,-486 8,-480 8,-474 8,-474 8,-20 8,-20 8,-14 14,-8 20,-8"/>
<text text-anchor="middle" x="566.06" y="-473.45" font-family="Helvetica,sans-Serif" font-weight="bold" font-size="9.00">src</text>
</g>
<g id="clust2" class="cluster">
<title>cluster_src/assets</title>
<path fill="#ffffff" stroke="black" stroke-width="2" d="M90,-101C90,-101 192.75,-101 192.75,-101 198.75,-101 204.75,-107 204.75,-113 204.75,-113 204.75,-207 204.75,-207 204.75,-213 198.75,-219 192.75,-219 192.75,-219 90,-219 90,-219 84,-219 78,-213 78,-207 78,-207 78,-113 78,-113 78,-107 84,-101 90,-101"/>
<text text-anchor="middle" x="141.38" y="-206.45" font-family="Helvetica,sans-Serif" font-weight="bold" font-size="9.00">assets</text>
</g>
<g id="clust3" class="cluster">
<title>cluster_src/assets/effects</title>
<path fill="#ffffff" stroke="black" stroke-width="2" d="M98,-137C98,-137 184.75,-137 184.75,-137 190.75,-137 196.75,-143 196.75,-149 196.75,-149 196.75,-180 196.75,-180 196.75,-186 190.75,-192 184.75,-192 184.75,-192 98,-192 98,-192 92,-192 86,-186 86,-180 86,-180 86,-149 86,-149 86,-143 92,-137 98,-137"/>
<text text-anchor="middle" x="141.38" y="-179.45" font-family="Helvetica,sans-Serif" font-weight="bold" font-size="9.00">effects</text>
</g>
<g id="clust4" class="cluster">
<title>cluster_src/components</title>
<path fill="#ffffff" stroke="black" stroke-width="2" d="M224.75,-16C224.75,-16 559.12,-16 559.12,-16 565.12,-16 571.12,-22 571.12,-28 571.12,-28 571.12,-153 571.12,-153 571.12,-159 565.12,-165 559.12,-165 559.12,-165 224.75,-165 224.75,-165 218.75,-165 212.75,-159 212.75,-153 212.75,-153 212.75,-28 212.75,-28 212.75,-22 218.75,-16 224.75,-16"/>
<text text-anchor="middle" x="391.94" y="-152.45" font-family="Helvetica,sans-Serif" font-weight="bold" font-size="9.00">components</text>
</g>
<g id="clust5" class="cluster">
<title>cluster_src/components/FolderSelector</title>
<path fill="#ffffff" stroke="black" stroke-width="2" d="M362.75,-52C362.75,-52 447.25,-52 447.25,-52 453.25,-52 459.25,-58 459.25,-64 459.25,-64 459.25,-126 459.25,-126 459.25,-132 453.25,-138 447.25,-138 447.25,-138 362.75,-138 362.75,-138 356.75,-138 350.75,-132 350.75,-126 350.75,-126 350.75,-64 350.75,-64 350.75,-58 356.75,-52 362.75,-52"/>
<text text-anchor="middle" x="405" y="-125.45" font-family="Helvetica,sans-Serif" font-weight="bold" font-size="9.00">FolderSelector</text>
</g>
<g id="clust6" class="cluster">
<title>cluster_src/components/utils</title>
<path fill="#ffffff" stroke="black" stroke-width="2" d="M232.75,-83C232.75,-83 330.75,-83 330.75,-83 336.75,-83 342.75,-89 342.75,-95 342.75,-95 342.75,-126 342.75,-126 342.75,-132 336.75,-138 330.75,-138 330.75,-138 232.75,-138 232.75,-138 226.75,-138 220.75,-132 220.75,-126 220.75,-126 220.75,-95 220.75,-95 220.75,-89 226.75,-83 232.75,-83"/>
<text text-anchor="middle" x="281.75" y="-125.45" font-family="Helvetica,sans-Serif" font-weight="bold" font-size="9.00">utils</text>
</g>
<g id="clust7" class="cluster">
<title>cluster_src/services</title>
<path fill="#ffffff" stroke="black" stroke-width="2" d="M487.25,-173C487.25,-173 1104.12,-173 1104.12,-173 1110.12,-173 1116.12,-179 1116.12,-185 1116.12,-185 1116.12,-447 1116.12,-447 1116.12,-453 1110.12,-459 1104.12,-459 1104.12,-459 487.25,-459 487.25,-459 481.25,-459 475.25,-453 475.25,-447 475.25,-447 475.25,-185 475.25,-185 475.25,-179 481.25,-173 487.25,-173"/>
<text text-anchor="middle" x="795.69" y="-446.45" font-family="Helvetica,sans-Serif" font-weight="bold" font-size="9.00">services</text>
</g>
<g id="clust9" class="cluster">
<title>cluster_src/services/StorageController</title>
<path fill="#ffffff" stroke="black" stroke-width="2" d="M593.12,-244C593.12,-244 1096.12,-244 1096.12,-244 1102.12,-244 1108.12,-250 1108.12,-256 1108.12,-256 1108.12,-420 1108.12,-420 1108.12,-426 1102.12,-432 1096.12,-432 1096.12,-432 593.12,-432 593.12,-432 587.12,-432 581.12,-426 581.12,-420 581.12,-420 581.12,-256 581.12,-256 581.12,-250 587.12,-244 593.12,-244"/>
<text text-anchor="middle" x="844.62" y="-419.45" font-family="Helvetica,sans-Serif" font-weight="bold" font-size="9.00">StorageController</text>
</g>
<g id="clust10" class="cluster">
<title>cluster_src/services/StorageController/migrations</title>
<path fill="#ffffff" stroke="black" stroke-width="2" d="M803.12,-252C803.12,-252 1088.12,-252 1088.12,-252 1094.12,-252 1100.12,-258 1100.12,-264 1100.12,-264 1100.12,-393 1100.12,-393 1100.12,-399 1094.12,-405 1088.12,-405 1088.12,-405 803.12,-405 803.12,-405 797.12,-405 791.12,-399 791.12,-393 791.12,-393 791.12,-264 791.12,-264 791.12,-258 797.12,-252 803.12,-252"/>
<text text-anchor="middle" x="945.62" y="-392.45" font-family="Helvetica,sans-Serif" font-weight="bold" font-size="9.00">migrations</text>
</g>
<g id="clust12" class="cluster">
<title>cluster_src/services/StorageController/migrations/v1</title>
<path fill="#ffffff" stroke="black" stroke-width="2" d="M956.12,-260C956.12,-260 1002.12,-260 1002.12,-260 1008.12,-260 1014.12,-266 1014.12,-272 1014.12,-272 1014.12,-303 1014.12,-303 1014.12,-309 1008.12,-315 1002.12,-315 1002.12,-315 956.12,-315 956.12,-315 950.12,-315 944.12,-309 944.12,-303 944.12,-303 944.12,-272 944.12,-272 944.12,-266 950.12,-260 956.12,-260"/>
<text text-anchor="middle" x="979.12" y="-302.45" font-family="Helvetica,sans-Serif" font-weight="bold" font-size="9.00">v1</text>
</g>
<g id="clust13" class="cluster">
<title>cluster_src/services/StorageController/migrations/v2</title>
<path fill="#ffffff" stroke="black" stroke-width="2" d="M956.12,-323C956.12,-323 1002.12,-323 1002.12,-323 1008.12,-323 1014.12,-329 1014.12,-335 1014.12,-335 1014.12,-366 1014.12,-366 1014.12,-372 1008.12,-378 1002.12,-378 1002.12,-378 956.12,-378 956.12,-378 950.12,-378 944.12,-372 944.12,-366 944.12,-366 944.12,-335 944.12,-335 944.12,-329 950.12,-323 956.12,-323"/>
<text text-anchor="middle" x="979.12" y="-365.45" font-family="Helvetica,sans-Serif" font-weight="bold" font-size="9.00">v2</text>
</g>
<g id="clust11" class="cluster">
<title>cluster_src/services/StorageController/migrations/utils</title>
<path fill="#ffffff" stroke="black" stroke-width="2" d="M1034.12,-291C1034.12,-291 1080.12,-291 1080.12,-291 1086.12,-291 1092.12,-297 1092.12,-303 1092.12,-303 1092.12,-334 1092.12,-334 1092.12,-340 1086.12,-346 1080.12,-346 1080.12,-346 1034.12,-346 1034.12,-346 1028.12,-346 1022.12,-340 1022.12,-334 1022.12,-334 1022.12,-303 1022.12,-303 1022.12,-297 1028.12,-291 1034.12,-291"/>
<text text-anchor="middle" x="1057.12" y="-333.45" font-family="Helvetica,sans-Serif" font-weight="bold" font-size="9.00">utils</text>
</g>
<g id="clust8" class="cluster">
<title>cluster_src/services/Filters</title>
<path fill="#ffffff" stroke="black" stroke-width="2" d="M593.12,-181C593.12,-181 742.62,-181 742.62,-181 748.62,-181 754.62,-187 754.62,-193 754.62,-193 754.62,-224 754.62,-224 754.62,-230 748.62,-236 742.62,-236 742.62,-236 593.12,-236 593.12,-236 587.12,-236 581.12,-230 581.12,-224 581.12,-224 581.12,-193 581.12,-193 581.12,-187 587.12,-181 593.12,-181"/>
<text text-anchor="middle" x="667.88" y="-223.45" font-family="Helvetica,sans-Serif" font-weight="bold" font-size="9.00">Filters</text>
</g>
<g id="clust14" class="cluster">
<title>cluster_src/services/VideoParsers</title>
<path fill="#ffffff" stroke="black" stroke-width="2" d="M495.25,-209C495.25,-209 545.25,-209 545.25,-209 551.25,-209 557.25,-215 557.25,-221 557.25,-221 557.25,-252 557.25,-252 557.25,-258 551.25,-264 545.25,-264 545.25,-264 495.25,-264 495.25,-264 489.25,-264 483.25,-258 483.25,-252 483.25,-252 483.25,-221 483.25,-221 483.25,-215 489.25,-209 495.25,-209"/>
<text text-anchor="middle" x="520.25" y="-251.45" font-family="Helvetica,sans-Serif" font-weight="bold" font-size="9.00">VideoParsers</text>
</g>
<g id="clust15" class="cluster">
<title>cluster_src/stores</title>
<path fill="#ffffff" stroke="black" stroke-width="2" d="M366.88,-173C366.88,-173 443.12,-173 443.12,-173 449.12,-173 455.12,-179 455.12,-185 455.12,-185 455.12,-247 455.12,-247 455.12,-253 449.12,-259 443.12,-259 443.12,-259 366.88,-259 366.88,-259 360.88,-259 354.88,-253 354.88,-247 354.88,-247 354.88,-185 354.88,-185 354.88,-179 360.88,-173 366.88,-173"/>
<text text-anchor="middle" x="405" y="-246.45" font-family="Helvetica,sans-Serif" font-weight="bold" font-size="9.00">stores</text>
</g>
<!-- src/App.vue -->
<g id="node1" class="node">
<title>src/App.vue</title>
<g id="a_node1"><a xlink:href="src/App.vue" xlink:title="App.vue">
<path fill="#41f083" stroke="black" d="M161.96,-92.62C161.96,-92.62 120.79,-92.62 120.79,-92.62 117.58,-92.62 114.38,-89.42 114.38,-86.21 114.38,-86.21 114.38,-79.79 114.38,-79.79 114.38,-76.58 117.58,-73.38 120.79,-73.38 120.79,-73.38 161.96,-73.38 161.96,-73.38 165.17,-73.38 168.38,-76.58 168.38,-79.79 168.38,-79.79 168.38,-86.21 168.38,-86.21 168.38,-89.42 165.17,-92.62 161.96,-92.62"/>
<text text-anchor="start" x="125.25" y="-80.08" font-family="Helvetica,sans-Serif" font-size="9.00">App.vue</text>
</a>
</g>
</g>
<!-- src/components/NavBar.vue -->
<g id="node2" class="node">
<title>src/components/NavBar.vue</title>
<g id="a_node2"><a xlink:href="src/components/NavBar.vue" xlink:title="NavBar.vue">
<path fill="#41f083" stroke="black" d="M306.58,-74.62C306.58,-74.62 256.92,-74.62 256.92,-74.62 253.71,-74.62 250.5,-71.42 250.5,-68.21 250.5,-68.21 250.5,-61.79 250.5,-61.79 250.5,-58.58 253.71,-55.38 256.92,-55.38 256.92,-55.38 306.58,-55.38 306.58,-55.38 309.79,-55.38 313,-58.58 313,-61.79 313,-61.79 313,-68.21 313,-68.21 313,-71.42 309.79,-74.62 306.58,-74.62"/>
<text text-anchor="start" x="258.5" y="-62.08" font-family="Helvetica,sans-Serif" font-size="9.00">NavBar.vue</text>
</a>
</g>
</g>
<!-- src/App.vue&#45;&gt;src/components/NavBar.vue -->
<g id="edge1" class="edge">
<title>src/App.vue&#45;&gt;src/components/NavBar.vue</title>
<path fill="none" stroke="#000000" stroke-width="2" stroke-opacity="0.200000" d="M168.73,-79.57C189.22,-76.91 217.97,-73.17 241.22,-70.14"/>
<polygon fill="#000000" fill-opacity="0.200000" stroke="#000000" stroke-width="2" stroke-opacity="0.200000" points="241.47,-72.23 247.15,-69.37 240.93,-68.06 241.47,-72.23"/>
</g>
<!-- src/components/utils/DiagnosticsPanel.vue -->
<g id="node3" class="node">
<title>src/components/utils/DiagnosticsPanel.vue</title>
<g id="a_node3"><a xlink:href="src/components/utils/DiagnosticsPanel.vue" xlink:title="DiagnosticsPanel.vue">
<path fill="#41f083" stroke="black" d="M328.33,-110.62C328.33,-110.62 235.17,-110.62 235.17,-110.62 231.96,-110.62 228.75,-107.42 228.75,-104.21 228.75,-104.21 228.75,-97.79 228.75,-97.79 228.75,-94.58 231.96,-91.38 235.17,-91.38 235.17,-91.38 328.33,-91.38 328.33,-91.38 331.54,-91.38 334.75,-94.58 334.75,-97.79 334.75,-97.79 334.75,-104.21 334.75,-104.21 334.75,-107.42 331.54,-110.62 328.33,-110.62"/>
<text text-anchor="start" x="236.75" y="-98.08" font-family="Helvetica,sans-Serif" font-size="9.00">DiagnosticsPanel.vue</text>
</a>
</g>
</g>
<!-- src/App.vue&#45;&gt;src/components/utils/DiagnosticsPanel.vue -->
<g id="edge2" class="edge">
<title>src/App.vue&#45;&gt;src/components/utils/DiagnosticsPanel.vue</title>
<path fill="none" stroke="#000000" stroke-width="2" stroke-opacity="0.200000" d="M168.73,-86.43C183.22,-88.31 201.84,-90.73 219.72,-93.06"/>
<polygon fill="#000000" fill-opacity="0.200000" stroke="#000000" stroke-width="2" stroke-opacity="0.200000" points="219.19,-95.11 225.42,-93.8 219.74,-90.95 219.19,-95.11"/>
</g>
<!-- src/components/VideoGallery.vue -->
<g id="node4" class="node">
<title>src/components/VideoGallery.vue</title>
<g id="a_node4"><a xlink:href="src/components/VideoGallery.vue" xlink:title="VideoGallery.vue">
<path fill="#41f083" stroke="black" d="M317.46,-43.62C317.46,-43.62 246.04,-43.62 246.04,-43.62 242.83,-43.62 239.62,-40.42 239.62,-37.21 239.62,-37.21 239.62,-30.79 239.62,-30.79 239.62,-27.58 242.83,-24.38 246.04,-24.38 246.04,-24.38 317.46,-24.38 317.46,-24.38 320.67,-24.38 323.88,-27.58 323.88,-30.79 323.88,-30.79 323.88,-37.21 323.88,-37.21 323.88,-40.42 320.67,-43.62 317.46,-43.62"/>
<text text-anchor="start" x="247.62" y="-31.07" font-family="Helvetica,sans-Serif" font-size="9.00">VideoGallery.vue</text>
</a>
</g>
</g>
<!-- src/App.vue&#45;&gt;src/components/VideoGallery.vue -->
<g id="edge3" class="edge">
<title>src/App.vue&#45;&gt;src/components/VideoGallery.vue</title>
<path fill="none" stroke="#000000" stroke-width="2" stroke-opacity="0.200000" d="M160.11,-73C174.05,-65.49 194.16,-55.44 212.75,-49 218.56,-46.99 224.75,-45.18 230.93,-43.58"/>
<polygon fill="#000000" fill-opacity="0.200000" stroke="#000000" stroke-width="2" stroke-opacity="0.200000" points="231.06,-45.71 236.39,-42.24 230.06,-41.63 231.06,-45.71"/>
</g>
<!-- src/services/StorageController/index.ts -->
<g id="node5" class="node">
<title>src/services/StorageController/index.ts</title>
<g id="a_node5"><a xlink:href="src/services/StorageController/index.ts" xlink:title="index.ts">
<path fill="#ddfeff" stroke="black" d="M636.71,-271.62C636.71,-271.62 595.54,-271.62 595.54,-271.62 592.33,-271.62 589.12,-268.42 589.12,-265.21 589.12,-265.21 589.12,-258.79 589.12,-258.79 589.12,-255.58 592.33,-252.38 595.54,-252.38 595.54,-252.38 636.71,-252.38 636.71,-252.38 639.92,-252.38 643.12,-255.58 643.12,-258.79 643.12,-258.79 643.12,-265.21 643.12,-265.21 643.12,-268.42 639.92,-271.62 636.71,-271.62"/>
<text text-anchor="start" x="600.38" y="-259.07" font-family="Helvetica,sans-Serif" font-size="9.00">index.ts</text>
</a>
</g>
</g>
<!-- src/App.vue&#45;&gt;src/services/StorageController/index.ts -->
<g id="edge4" class="edge">
<title>src/App.vue&#45;&gt;src/services/StorageController/index.ts</title>
<path fill="none" stroke="#000000" stroke-width="2" stroke-opacity="0.200000" d="M168.69,-82.99C181.27,-84.4 195.55,-88.31 204.75,-98 218.13,-112.1 203.13,-124.11 212.75,-141 253.1,-211.89 275,-231.74 350.75,-262 427.91,-292.82 528.14,-280.05 580.24,-269.93"/>
<polygon fill="#000000" fill-opacity="0.200000" stroke="#000000" stroke-width="2" stroke-opacity="0.200000" points="580.34,-272.05 585.81,-268.81 579.51,-267.93 580.34,-272.05"/>
</g>
<!-- src/components/FolderSelector/FolderSelector.vue -->
<g id="node9" class="node">
<title>src/components/FolderSelector/FolderSelector.vue</title>
<g id="a_node9"><a xlink:href="src/components/FolderSelector/FolderSelector.vue" xlink:title="FolderSelector.vue">
<path fill="#41f083" stroke="black" d="M444.83,-79.62C444.83,-79.62 365.17,-79.62 365.17,-79.62 361.96,-79.62 358.75,-76.42 358.75,-73.21 358.75,-73.21 358.75,-66.79 358.75,-66.79 358.75,-63.58 361.96,-60.38 365.17,-60.38 365.17,-60.38 444.83,-60.38 444.83,-60.38 448.04,-60.38 451.25,-63.58 451.25,-66.79 451.25,-66.79 451.25,-73.21 451.25,-73.21 451.25,-76.42 448.04,-79.62 444.83,-79.62"/>
<text text-anchor="start" x="366.75" y="-67.08" font-family="Helvetica,sans-Serif" font-size="9.00">FolderSelector.vue</text>
</a>
</g>
</g>
<!-- src/components/NavBar.vue&#45;&gt;src/components/FolderSelector/FolderSelector.vue -->
<g id="edge7" class="edge">
<title>src/components/NavBar.vue&#45;&gt;src/components/FolderSelector/FolderSelector.vue</title>
<path fill="none" stroke="#000000" stroke-width="2" stroke-opacity="0.200000" d="M313.35,-66.26C324.3,-66.71 337,-67.24 349.36,-67.75"/>
<polygon fill="#000000" fill-opacity="0.200000" stroke="#000000" stroke-width="2" stroke-opacity="0.200000" points="349.17,-69.84 355.25,-67.99 349.35,-65.64 349.17,-69.84"/>
</g>
<!-- src/stores/videosStore.ts -->
<g id="node11" class="node">
<title>src/stores/videosStore.ts</title>
<g id="a_node11"><a xlink:href="src/stores/videosStore.ts" xlink:title="videosStore.ts">
<path fill="#ddfeff" stroke="black" d="M435.83,-200.62C435.83,-200.62 374.17,-200.62 374.17,-200.62 370.96,-200.62 367.75,-197.42 367.75,-194.21 367.75,-194.21 367.75,-187.79 367.75,-187.79 367.75,-184.58 370.96,-181.38 374.17,-181.38 374.17,-181.38 435.83,-181.38 435.83,-181.38 439.04,-181.38 442.25,-184.58 442.25,-187.79 442.25,-187.79 442.25,-194.21 442.25,-194.21 442.25,-197.42 439.04,-200.62 435.83,-200.62"/>
<text text-anchor="start" x="375.75" y="-188.07" font-family="Helvetica,sans-Serif" font-size="9.00">videosStore.ts</text>
</a>
</g>
</g>
<!-- src/components/NavBar.vue&#45;&gt;src/stores/videosStore.ts -->
<g id="edge9" class="edge">
<title>src/components/NavBar.vue&#45;&gt;src/stores/videosStore.ts</title>
<path fill="none" stroke="#000000" stroke-width="2" stroke-opacity="0.200000" d="M313.23,-65.77C324.02,-67.63 335.32,-71.66 342.75,-80 360.95,-100.41 338.28,-116.67 350.75,-141 357.87,-154.89 370.44,-166.97 381.59,-175.79"/>
<polygon fill="#000000" fill-opacity="0.200000" stroke="#000000" stroke-width="2" stroke-opacity="0.200000" points="380.16,-177.34 386.22,-179.27 382.68,-173.98 380.16,-177.34"/>
</g>
<!-- src/stores/appStateStore.ts -->
<g id="node12" class="node">
<title>src/stores/appStateStore.ts</title>
<g id="a_node12"><a xlink:href="src/stores/appStateStore.ts" xlink:title="appStateStore.ts">
<path fill="#ddfeff" stroke="black" d="M440.71,-231.62C440.71,-231.62 369.29,-231.62 369.29,-231.62 366.08,-231.62 362.88,-228.42 362.88,-225.21 362.88,-225.21 362.88,-218.79 362.88,-218.79 362.88,-215.58 366.08,-212.38 369.29,-212.38 369.29,-212.38 440.71,-212.38 440.71,-212.38 443.92,-212.38 447.12,-215.58 447.12,-218.79 447.12,-218.79 447.12,-225.21 447.12,-225.21 447.12,-228.42 443.92,-231.62 440.71,-231.62"/>
<text text-anchor="start" x="370.88" y="-219.07" font-family="Helvetica,sans-Serif" font-size="9.00">appStateStore.ts</text>
</a>
</g>
</g>
<!-- src/components/NavBar.vue&#45;&gt;src/stores/appStateStore.ts -->
<g id="edge8" class="edge">
<title>src/components/NavBar.vue&#45;&gt;src/stores/appStateStore.ts</title>
<path fill="none" stroke="#000000" stroke-width="2" stroke-opacity="0.200000" d="M313.22,-65.46C324.15,-67.26 335.54,-71.34 342.75,-80 360.85,-101.73 332.98,-185 350.75,-207 352.03,-208.58 353.45,-210 355,-211.28"/>
<polygon fill="#000000" fill-opacity="0.200000" stroke="#000000" stroke-width="2" stroke-opacity="0.200000" points="353.69,-212.93 359.87,-214.38 355.94,-209.39 353.69,-212.93"/>
</g>
<!-- src/components/utils/DiagnosticsPanel.vue&#45;&gt;src/stores/appStateStore.ts -->
<g id="edge14" class="edge">
<title>src/components/utils/DiagnosticsPanel.vue&#45;&gt;src/stores/appStateStore.ts</title>
<path fill="none" stroke="#000000" stroke-width="2" stroke-opacity="0.200000" d="M335.02,-108.46C337.89,-110.25 340.51,-112.41 342.75,-115 356.19,-130.51 337.66,-191.19 350.75,-207 352.04,-208.56 353.49,-209.97 355.05,-211.24"/>
<polygon fill="#000000" fill-opacity="0.200000" stroke="#000000" stroke-width="2" stroke-opacity="0.200000" points="353.76,-212.91 359.95,-214.32 355.99,-209.35 353.76,-212.91"/>
</g>
<!-- src/components/VideoGallery.vue&#45;&gt;src/stores/videosStore.ts -->
<g id="edge13" class="edge">
<title>src/components/VideoGallery.vue&#45;&gt;src/stores/videosStore.ts</title>
<path fill="none" stroke="#000000" stroke-width="2" stroke-opacity="0.200000" d="M324.33,-37.3C331.37,-39.68 337.94,-43.36 342.75,-49 356.07,-64.61 341.79,-122.54 350.75,-141 357.52,-154.94 369.96,-166.97 381.12,-175.73"/>
<polygon fill="#000000" fill-opacity="0.200000" stroke="#000000" stroke-width="2" stroke-opacity="0.200000" points="379.7,-177.29 385.77,-179.2 382.21,-173.93 379.7,-177.29"/>
</g>
<!-- src/components/VideoCard.vue -->
<g id="node13" class="node">
<title>src/components/VideoCard.vue</title>
<g id="a_node13"><a xlink:href="src/components/VideoCard.vue" xlink:title="VideoCard.vue">
<path fill="#41f083" stroke="black" d="M436.58,-43.62C436.58,-43.62 373.42,-43.62 373.42,-43.62 370.21,-43.62 367,-40.42 367,-37.21 367,-37.21 367,-30.79 367,-30.79 367,-27.58 370.21,-24.38 373.42,-24.38 373.42,-24.38 436.58,-24.38 436.58,-24.38 439.79,-24.38 443,-27.58 443,-30.79 443,-30.79 443,-37.21 443,-37.21 443,-40.42 439.79,-43.62 436.58,-43.62"/>
<text text-anchor="start" x="375" y="-31.07" font-family="Helvetica,sans-Serif" font-size="9.00">VideoCard.vue</text>
</a>
</g>
</g>
<!-- src/components/VideoGallery.vue&#45;&gt;src/components/VideoCard.vue -->
<g id="edge12" class="edge">
<title>src/components/VideoGallery.vue&#45;&gt;src/components/VideoCard.vue</title>
<path fill="none" stroke="#000000" stroke-width="2" stroke-opacity="0.200000" d="M324.14,-34C335.07,-34 346.94,-34 358.1,-34"/>
<polygon fill="#000000" fill-opacity="0.200000" stroke="#000000" stroke-width="2" stroke-opacity="0.200000" points="357.84,-36.1 363.84,-34 357.84,-31.9 357.84,-36.1"/>
</g>
<!-- src/services/StorageController/VideoMetadataController.ts -->
<g id="node19" class="node">
<title>src/services/StorageController/VideoMetadataController.ts</title>
<g id="a_node19"><a xlink:href="src/services/StorageController/VideoMetadataController.ts" xlink:title="VideoMetadataController.ts">
<path fill="#ddfeff" stroke="black" d="M776.71,-275.62C776.71,-275.62 662.54,-275.62 662.54,-275.62 659.33,-275.62 656.12,-272.42 656.12,-269.21 656.12,-269.21 656.12,-262.79 656.12,-262.79 656.12,-259.58 659.33,-256.38 662.54,-256.38 662.54,-256.38 776.71,-256.38 776.71,-256.38 779.92,-256.38 783.12,-259.58 783.12,-262.79 783.12,-262.79 783.12,-269.21 783.12,-269.21 783.12,-272.42 779.92,-275.62 776.71,-275.62"/>
<text text-anchor="start" x="664.12" y="-263.07" font-family="Helvetica,sans-Serif" font-size="9.00">VideoMetadataController.ts</text>
</a>
</g>
</g>
<!-- src/services/StorageController/index.ts&#45;&gt;src/services/StorageController/VideoMetadataController.ts -->
<g id="edge19" class="edge">
<title>src/services/StorageController/index.ts&#45;&gt;src/services/StorageController/VideoMetadataController.ts</title>
<path fill="none" stroke="#000000" stroke-width="2" stroke-opacity="0.200000" d="M643.53,-263.04C644.62,-263.08 645.73,-263.13 646.86,-263.17"/>
<polygon fill="#000000" fill-opacity="0.200000" stroke="#000000" stroke-width="2" stroke-opacity="0.200000" points="646.67,-265.27 652.75,-263.4 646.84,-261.07 646.67,-265.27"/>
</g>
<!-- src/assets/effects/FadeTransition.vue -->
<g id="node6" class="node">
<title>src/assets/effects/FadeTransition.vue</title>
<g id="a_node6"><a xlink:href="src/assets/effects/FadeTransition.vue" xlink:title="no&#45;orphans">
<path fill="#ccffcc" stroke="orange" d="M182.33,-164.62C182.33,-164.62 100.42,-164.62 100.42,-164.62 97.21,-164.62 94,-161.42 94,-158.21 94,-158.21 94,-151.79 94,-151.79 94,-148.58 97.21,-145.38 100.42,-145.38 100.42,-145.38 182.33,-145.38 182.33,-145.38 185.54,-145.38 188.75,-148.58 188.75,-151.79 188.75,-151.79 188.75,-158.21 188.75,-158.21 188.75,-161.42 185.54,-164.62 182.33,-164.62"/>
<text text-anchor="start" x="102" y="-152.07" font-family="Helvetica,sans-Serif" font-size="9.00" fill="orange">FadeTransition.vue</text>
</a>
</g>
</g>
<!-- src/assets/main.css -->
<g id="node7" class="node">
<title>src/assets/main.css</title>
<g id="a_node7"><a xlink:href="src/assets/main.css" xlink:title="main.css">
<path fill="#ffffcc" stroke="black" d="M162.08,-128.62C162.08,-128.62 120.67,-128.62 120.67,-128.62 117.46,-128.62 114.25,-125.42 114.25,-122.21 114.25,-122.21 114.25,-115.79 114.25,-115.79 114.25,-112.58 117.46,-109.38 120.67,-109.38 120.67,-109.38 162.08,-109.38 162.08,-109.38 165.29,-109.38 168.5,-112.58 168.5,-115.79 168.5,-115.79 168.5,-122.21 168.5,-122.21 168.5,-125.42 165.29,-128.62 162.08,-128.62"/>
<text text-anchor="start" x="122.25" y="-116.08" font-family="Helvetica,sans-Serif" font-size="9.00">main.css</text>
</a>
</g>
</g>
<!-- src/components/FolderSelector/FileVideoParser.ts -->
<g id="node8" class="node">
<title>src/components/FolderSelector/FileVideoParser.ts</title>
<g id="a_node8"><a xlink:href="src/components/FolderSelector/FileVideoParser.ts" xlink:title="FileVideoParser.ts">
<path fill="#ddfeff" stroke="black" d="M444.46,-110.62C444.46,-110.62 365.54,-110.62 365.54,-110.62 362.33,-110.62 359.12,-107.42 359.12,-104.21 359.12,-104.21 359.12,-97.79 359.12,-97.79 359.12,-94.58 362.33,-91.38 365.54,-91.38 365.54,-91.38 444.46,-91.38 444.46,-91.38 447.67,-91.38 450.88,-94.58 450.88,-97.79 450.88,-97.79 450.88,-104.21 450.88,-104.21 450.88,-107.42 447.67,-110.62 444.46,-110.62"/>
<text text-anchor="start" x="367.12" y="-98.08" font-family="Helvetica,sans-Serif" font-size="9.00">FileVideoParser.ts</text>
</a>
</g>
</g>
<!-- src/services/VideoParsers/index.ts -->
<g id="node10" class="node">
<title>src/services/VideoParsers/index.ts</title>
<g id="a_node10"><a xlink:href="src/services/VideoParsers/index.ts" xlink:title="index.ts">
<path fill="#ddfeff" stroke="black" d="M540.83,-236.62C540.83,-236.62 499.67,-236.62 499.67,-236.62 496.46,-236.62 493.25,-233.42 493.25,-230.21 493.25,-230.21 493.25,-223.79 493.25,-223.79 493.25,-220.58 496.46,-217.38 499.67,-217.38 499.67,-217.38 540.83,-217.38 540.83,-217.38 544.04,-217.38 547.25,-220.58 547.25,-223.79 547.25,-223.79 547.25,-230.21 547.25,-230.21 547.25,-233.42 544.04,-236.62 540.83,-236.62"/>
<text text-anchor="start" x="504.5" y="-224.07" font-family="Helvetica,sans-Serif" font-size="9.00">index.ts</text>
</a>
</g>
</g>
<!-- src/components/FolderSelector/FolderSelector.vue&#45;&gt;src/services/VideoParsers/index.ts -->
<g id="edge5" class="edge">
<title>src/components/FolderSelector/FolderSelector.vue&#45;&gt;src/services/VideoParsers/index.ts</title>
<path fill="none" stroke="#000000" stroke-width="2" stroke-opacity="0.200000" d="M451.39,-78.39C454.32,-80.2 457,-82.38 459.25,-85 496.63,-128.47 438.6,-168.91 475.25,-213 477.86,-216.14 481.17,-218.58 484.79,-220.48"/>
<polygon fill="#000000" fill-opacity="0.200000" stroke="#000000" stroke-width="2" stroke-opacity="0.200000" points="483.94,-222.4 490.29,-222.7 485.52,-218.51 483.94,-222.4"/>
</g>
<!-- src/components/FolderSelector/FolderSelector.vue&#45;&gt;src/stores/videosStore.ts -->
<g id="edge6" class="edge">
<title>src/components/FolderSelector/FolderSelector.vue&#45;&gt;src/stores/videosStore.ts</title>
<path fill="none" stroke="#000000" stroke-width="2" stroke-opacity="0.200000" d="M358.4,-77.07C352.95,-80.25 348.65,-84.72 346.75,-91 343.92,-100.36 343.92,-125.64 346.75,-135 351.96,-152.22 366.57,-166.24 379.86,-175.95"/>
<polygon fill="#000000" fill-opacity="0.200000" stroke="#000000" stroke-width="2" stroke-opacity="0.200000" points="378.4,-177.5 384.54,-179.17 380.79,-174.04 378.4,-177.5"/>
</g>
<!-- src/services/VideoParsers/index.ts&#45;&gt;src/services/StorageController/index.ts -->
<g id="edge25" class="edge">
<title>src/services/VideoParsers/index.ts&#45;&gt;src/services/StorageController/index.ts</title>
<path fill="none" stroke="#000000" stroke-width="2" stroke-opacity="0.200000" d="M547.67,-233.51C555.32,-235.63 563.63,-238.18 571.12,-241 576.77,-243.12 582.68,-245.69 588.27,-248.29"/>
<polygon fill="#000000" fill-opacity="0.200000" stroke="#000000" stroke-width="2" stroke-opacity="0.200000" points="587.11,-250.06 593.43,-250.76 588.93,-246.27 587.11,-250.06"/>
</g>
<!-- src/services/VideoParsers/index.ts&#45;&gt;src/components/FolderSelector/FileVideoParser.ts -->
<g id="edge26" class="edge">
<title>src/services/VideoParsers/index.ts&#45;&gt;src/components/FolderSelector/FileVideoParser.ts</title>
<path fill="none" stroke="#000000" stroke-width="2" stroke-opacity="0.200000" d="M492.95,-222.82C486.54,-220.75 480.12,-217.65 475.25,-213 460.49,-198.93 469.15,-187.83 459.25,-170 448.59,-150.8 432.91,-131.19 421.32,-117.81"/>
<polygon fill="#000000" fill-opacity="0.200000" stroke="#000000" stroke-width="2" stroke-opacity="0.200000" points="422.91,-116.44 417.36,-113.33 419.76,-119.22 422.91,-116.44"/>
</g>
<!-- src/services/index.ts -->
<g id="node15" class="node">
<title>src/services/index.ts</title>
<g id="a_node15"><a xlink:href="src/services/index.ts" xlink:title="index.ts">
<path fill="#ddfeff" stroke="black" d="M540.83,-200.62C540.83,-200.62 499.67,-200.62 499.67,-200.62 496.46,-200.62 493.25,-197.42 493.25,-194.21 493.25,-194.21 493.25,-187.79 493.25,-187.79 493.25,-184.58 496.46,-181.38 499.67,-181.38 499.67,-181.38 540.83,-181.38 540.83,-181.38 544.04,-181.38 547.25,-184.58 547.25,-187.79 547.25,-187.79 547.25,-194.21 547.25,-194.21 547.25,-197.42 544.04,-200.62 540.83,-200.62"/>
<text text-anchor="start" x="504.5" y="-188.07" font-family="Helvetica,sans-Serif" font-size="9.00">index.ts</text>
</a>
</g>
</g>
<!-- src/stores/videosStore.ts&#45;&gt;src/services/index.ts -->
<g id="edge29" class="edge">
<title>src/stores/videosStore.ts&#45;&gt;src/services/index.ts</title>
<path fill="none" stroke="#000000" stroke-width="2" stroke-opacity="0.200000" d="M442.46,-191C455.8,-191 470.86,-191 484.09,-191"/>
<polygon fill="#000000" fill-opacity="0.200000" stroke="#000000" stroke-width="2" stroke-opacity="0.200000" points="483.89,-193.1 489.89,-191 483.89,-188.9 483.89,-193.1"/>
</g>
<!-- src/components/VideoEmbed.vue -->
<g id="node14" class="node">
<title>src/components/VideoEmbed.vue</title>
<g id="a_node14"><a xlink:href="src/components/VideoEmbed.vue" xlink:title="VideoEmbed.vue">
<path fill="#41f083" stroke="black" d="M556.71,-43.62C556.71,-43.62 483.79,-43.62 483.79,-43.62 480.58,-43.62 477.38,-40.42 477.38,-37.21 477.38,-37.21 477.38,-30.79 477.38,-30.79 477.38,-27.58 480.58,-24.38 483.79,-24.38 483.79,-24.38 556.71,-24.38 556.71,-24.38 559.92,-24.38 563.12,-27.58 563.12,-30.79 563.12,-30.79 563.12,-37.21 563.12,-37.21 563.12,-40.42 559.92,-43.62 556.71,-43.62"/>
<text text-anchor="start" x="485.38" y="-31.07" font-family="Helvetica,sans-Serif" font-size="9.00">VideoEmbed.vue</text>
</a>
</g>
</g>
<!-- src/components/VideoCard.vue&#45;&gt;src/components/VideoEmbed.vue -->
<g id="edge10" class="edge">
<title>src/components/VideoCard.vue&#45;&gt;src/components/VideoEmbed.vue</title>
<path fill="none" stroke="#000000" stroke-width="2" stroke-opacity="0.200000" d="M443.4,-34C451.34,-34 459.87,-34 468.23,-34"/>
<polygon fill="#000000" fill-opacity="0.200000" stroke="#000000" stroke-width="2" stroke-opacity="0.200000" points="468.17,-36.1 474.17,-34 468.17,-31.9 468.17,-36.1"/>
</g>
<!-- src/components/VideoCard.vue&#45;&gt;src/services/index.ts -->
<g id="edge11" class="edge">
<title>src/components/VideoCard.vue&#45;&gt;src/services/index.ts</title>
<path fill="none" stroke="#000000" stroke-width="2" stroke-opacity="0.200000" d="M443.32,-38.51C449.37,-40.8 455.03,-44.14 459.25,-49 494.23,-89.3 444.62,-124.3 475.25,-168 477.9,-171.78 481.38,-174.99 485.21,-177.7"/>
<polygon fill="#000000" fill-opacity="0.200000" stroke="#000000" stroke-width="2" stroke-opacity="0.200000" points="484.08,-179.47 490.3,-180.75 486.23,-175.87 484.08,-179.47"/>
</g>
<!-- src/services/index.ts&#45;&gt;src/services/StorageController/index.ts -->
<g id="edge28" class="edge">
<title>src/services/index.ts&#45;&gt;src/services/StorageController/index.ts</title>
<path fill="none" stroke="#000000" stroke-width="2" stroke-opacity="0.200000" d="M547.63,-193.94C556.07,-196.08 564.85,-199.74 571.12,-206 581.97,-216.83 572.03,-226.66 595.58,-252.04"/>
<polygon fill="#000000" fill-opacity="0.200000" stroke="#000000" stroke-width="2" stroke-opacity="0.200000" points="598.38,-250.65 602.28,-258.75 594.18,-254.85 598.38,-250.65"/>
</g>
<!-- src/services/Filters/index.ts -->
<g id="node18" class="node">
<title>src/services/Filters/index.ts</title>
<g id="a_node18"><a xlink:href="src/services/Filters/index.ts" xlink:title="index.ts">
<path fill="#ddfeff" stroke="black" d="M636.71,-208.62C636.71,-208.62 595.54,-208.62 595.54,-208.62 592.33,-208.62 589.12,-205.42 589.12,-202.21 589.12,-202.21 589.12,-195.79 589.12,-195.79 589.12,-192.58 592.33,-189.38 595.54,-189.38 595.54,-189.38 636.71,-189.38 636.71,-189.38 639.92,-189.38 643.12,-192.58 643.12,-195.79 643.12,-195.79 643.12,-202.21 643.12,-202.21 643.12,-205.42 639.92,-208.62 636.71,-208.62"/>
<text text-anchor="start" x="600.38" y="-196.07" font-family="Helvetica,sans-Serif" font-size="9.00">index.ts</text>
</a>
</g>
</g>
<!-- src/services/index.ts&#45;&gt;src/services/Filters/index.ts -->
<g id="edge27" class="edge">
<title>src/services/index.ts&#45;&gt;src/services/Filters/index.ts</title>
<path fill="none" stroke="#000000" stroke-width="2" stroke-opacity="0.200000" d="M547.65,-193.25C560.56,-194.35 576.04,-195.67 588.92,-196.77"/>
<polygon fill="#000000" fill-opacity="0.200000" stroke="#000000" stroke-width="2" stroke-opacity="0.200000" points="591.73,-195.37 595.63,-203.47 587.53,-199.57 591.73,-195.37"/>
</g>
<!-- src/main.ts -->
<g id="node16" class="node">
<title>src/main.ts</title>
<g id="a_node16"><a xlink:href="src/main.ts" xlink:title="main.ts">
<path fill="#ddfeff" stroke="black" d="M63.58,-110.62C63.58,-110.62 22.42,-110.62 22.42,-110.62 19.21,-110.62 16,-107.42 16,-104.21 16,-104.21 16,-97.79 16,-97.79 16,-94.58 19.21,-91.38 22.42,-91.38 22.42,-91.38 63.58,-91.38 63.58,-91.38 66.79,-91.38 70,-94.58 70,-97.79 70,-97.79 70,-104.21 70,-104.21 70,-107.42 66.79,-110.62 63.58,-110.62"/>
<text text-anchor="start" x="27.62" y="-98.08" font-family="Helvetica,sans-Serif" font-size="9.00">main.ts</text>
</a>
</g>
</g>
<!-- src/main.ts&#45;&gt;src/App.vue -->
<g id="edge15" class="edge">
<title>src/main.ts&#45;&gt;src/App.vue</title>
<path fill="none" stroke="#000000" stroke-width="2" stroke-opacity="0.200000" d="M70.33,-96.08C81.17,-94.06 93.88,-91.68 105.47,-89.52"/>
<polygon fill="#000000" fill-opacity="0.200000" stroke="#000000" stroke-width="2" stroke-opacity="0.200000" points="105.58,-91.63 111.1,-88.47 104.81,-87.51 105.58,-91.63"/>
</g>
<!-- src/main.ts&#45;&gt;src/assets/main.css -->
<g id="edge16" class="edge">
<title>src/main.ts&#45;&gt;src/assets/main.css</title>
<path fill="none" stroke="#000000" stroke-width="2" stroke-opacity="0.200000" d="M70.33,-105.92C81.17,-107.94 93.88,-110.32 105.47,-112.48"/>
<polygon fill="#000000" fill-opacity="0.200000" stroke="#000000" stroke-width="2" stroke-opacity="0.200000" points="104.81,-114.49 111.1,-113.53 105.58,-110.37 104.81,-114.49"/>
</g>
<!-- src/services/Filters/Filters.ts -->
<g id="node17" class="node">
<title>src/services/Filters/Filters.ts</title>
<g id="a_node17"><a xlink:href="src/services/Filters/Filters.ts" xlink:title="Filters.ts">
<path fill="#ddfeff" stroke="black" d="M740.21,-208.62C740.21,-208.62 699.04,-208.62 699.04,-208.62 695.83,-208.62 692.62,-205.42 692.62,-202.21 692.62,-202.21 692.62,-195.79 692.62,-195.79 692.62,-192.58 695.83,-189.38 699.04,-189.38 699.04,-189.38 740.21,-189.38 740.21,-189.38 743.42,-189.38 746.62,-192.58 746.62,-195.79 746.62,-195.79 746.62,-202.21 746.62,-202.21 746.62,-205.42 743.42,-208.62 740.21,-208.62"/>
<text text-anchor="start" x="702" y="-196.07" font-family="Helvetica,sans-Serif" font-size="9.00">Filters.ts</text>
</a>
</g>
</g>
<!-- src/services/Filters/index.ts&#45;&gt;src/services/Filters/Filters.ts -->
<g id="edge17" class="edge">
<title>src/services/Filters/index.ts&#45;&gt;src/services/Filters/Filters.ts</title>
<path fill="none" stroke="#000000" stroke-width="2" stroke-opacity="0.200000" d="M643.53,-199C658.56,-199 677.34,-199 692.35,-199"/>
<polygon fill="#000000" fill-opacity="0.200000" stroke="#000000" stroke-width="2" stroke-opacity="0.200000" points="695.16,-197.61 699.06,-205.71 690.96,-201.81 695.16,-197.61"/>
</g>
<!-- src/services/StorageController/migrations/index.ts -->
<g id="node20" class="node">
<title>src/services/StorageController/migrations/index.ts</title>
<g id="a_node20"><a xlink:href="src/services/StorageController/migrations/index.ts" xlink:title="index.ts">
<path fill="#ddfeff" stroke="black" d="M846.71,-283.62C846.71,-283.62 805.54,-283.62 805.54,-283.62 802.33,-283.62 799.12,-280.42 799.12,-277.21 799.12,-277.21 799.12,-270.79 799.12,-270.79 799.12,-267.58 802.33,-264.38 805.54,-264.38 805.54,-264.38 846.71,-264.38 846.71,-264.38 849.92,-264.38 853.12,-267.58 853.12,-270.79 853.12,-270.79 853.12,-277.21 853.12,-277.21 853.12,-280.42 849.92,-283.62 846.71,-283.62"/>
<text text-anchor="start" x="810.38" y="-271.07" font-family="Helvetica,sans-Serif" font-size="9.00">index.ts</text>
</a>
</g>
</g>
<!-- src/services/StorageController/VideoMetadataController.ts&#45;&gt;src/services/StorageController/migrations/index.ts -->
<g id="edge18" class="edge">
<title>src/services/StorageController/VideoMetadataController.ts&#45;&gt;src/services/StorageController/migrations/index.ts</title>
<path fill="none" stroke="#000000" stroke-width="2" stroke-opacity="0.200000" d="M783.52,-270.82C785.7,-270.98 787.85,-271.15 789.96,-271.31"/>
<polygon fill="#000000" fill-opacity="0.200000" stroke="#000000" stroke-width="2" stroke-opacity="0.200000" points="789.74,-273.4 795.88,-271.76 790.06,-269.21 789.74,-273.4"/>
</g>
<!-- src/services/StorageController/migrations/migrations.ts -->
<g id="node21" class="node">
<title>src/services/StorageController/migrations/migrations.ts</title>
<g id="a_node21"><a xlink:href="src/services/StorageController/migrations/migrations.ts" xlink:title="migrations.ts">
<path fill="#ddfeff" stroke="black" d="M929.71,-287.62C929.71,-287.62 872.54,-287.62 872.54,-287.62 869.33,-287.62 866.12,-284.42 866.12,-281.21 866.12,-281.21 866.12,-274.79 866.12,-274.79 866.12,-271.58 869.33,-268.38 872.54,-268.38 872.54,-268.38 929.71,-268.38 929.71,-268.38 932.92,-268.38 936.12,-271.58 936.12,-274.79 936.12,-274.79 936.12,-281.21 936.12,-281.21 936.12,-284.42 932.92,-287.62 929.71,-287.62"/>
<text text-anchor="start" x="874.12" y="-275.07" font-family="Helvetica,sans-Serif" font-size="9.00">migrations.ts</text>
</a>
</g>
</g>
<!-- src/services/StorageController/migrations/index.ts&#45;&gt;src/services/StorageController/migrations/migrations.ts -->
<g id="edge20" class="edge">
<title>src/services/StorageController/migrations/index.ts&#45;&gt;src/services/StorageController/migrations/migrations.ts</title>
<path fill="none" stroke="#000000" stroke-width="2" stroke-opacity="0.200000" d="M853.48,-275.44C857.48,-275.66 861.66,-275.89 865.8,-276.12"/>
<polygon fill="#000000" fill-opacity="0.200000" stroke="#000000" stroke-width="2" stroke-opacity="0.200000" points="868.61,-274.73 872.51,-282.83 864.41,-278.93 868.61,-274.73"/>
</g>
<!-- src/services/StorageController/migrations/v1/index.ts -->
<g id="node22" class="node">
<title>src/services/StorageController/migrations/v1/index.ts</title>
<g id="a_node22"><a xlink:href="src/services/StorageController/migrations/v1/index.ts" xlink:title="index.ts">
<path fill="#ddfeff" stroke="black" d="M999.71,-287.62C999.71,-287.62 958.54,-287.62 958.54,-287.62 955.33,-287.62 952.12,-284.42 952.12,-281.21 952.12,-281.21 952.12,-274.79 952.12,-274.79 952.12,-271.58 955.33,-268.38 958.54,-268.38 958.54,-268.38 999.71,-268.38 999.71,-268.38 1002.92,-268.38 1006.12,-271.58 1006.12,-274.79 1006.12,-274.79 1006.12,-281.21 1006.12,-281.21 1006.12,-284.42 1002.92,-287.62 999.71,-287.62"/>
<text text-anchor="start" x="963.38" y="-275.07" font-family="Helvetica,sans-Serif" font-size="9.00">index.ts</text>
</a>
</g>
</g>
<!-- src/services/StorageController/migrations/migrations.ts&#45;&gt;src/services/StorageController/migrations/v1/index.ts -->
<g id="edge21" class="edge">
<title>src/services/StorageController/migrations/migrations.ts&#45;&gt;src/services/StorageController/migrations/v1/index.ts</title>
<path fill="none" stroke="#000000" stroke-width="2" stroke-opacity="0.200000" d="M936.57,-278C938.84,-278 941.12,-278 943.39,-278"/>
<polygon fill="#000000" fill-opacity="0.200000" stroke="#000000" stroke-width="2" stroke-opacity="0.200000" points="942.97,-280.1 948.97,-278 942.97,-275.9 942.97,-280.1"/>
</g>
<!-- src/services/StorageController/migrations/v2/index.ts -->
<g id="node23" class="node">
<title>src/services/StorageController/migrations/v2/index.ts</title>
<g id="a_node23"><a xlink:href="src/services/StorageController/migrations/v2/index.ts" xlink:title="index.ts">
<path fill="#ddfeff" stroke="black" d="M999.71,-350.62C999.71,-350.62 958.54,-350.62 958.54,-350.62 955.33,-350.62 952.12,-347.42 952.12,-344.21 952.12,-344.21 952.12,-337.79 952.12,-337.79 952.12,-334.58 955.33,-331.38 958.54,-331.38 958.54,-331.38 999.71,-331.38 999.71,-331.38 1002.92,-331.38 1006.12,-334.58 1006.12,-337.79 1006.12,-337.79 1006.12,-344.21 1006.12,-344.21 1006.12,-347.42 1002.92,-350.62 999.71,-350.62"/>
<text text-anchor="start" x="963.38" y="-338.07" font-family="Helvetica,sans-Serif" font-size="9.00">index.ts</text>
</a>
</g>
</g>
<!-- src/services/StorageController/migrations/migrations.ts&#45;&gt;src/services/StorageController/migrations/v2/index.ts -->
<g id="edge22" class="edge">
<title>src/services/StorageController/migrations/migrations.ts&#45;&gt;src/services/StorageController/migrations/v2/index.ts</title>
<path fill="none" stroke="#000000" stroke-width="2" stroke-opacity="0.200000" d="M911.71,-288.02C919.96,-296.42 932.36,-308.53 944.12,-318 947.49,-320.71 951.16,-323.42 954.81,-325.99"/>
<polygon fill="#000000" fill-opacity="0.200000" stroke="#000000" stroke-width="2" stroke-opacity="0.200000" points="953.52,-327.65 959.66,-329.29 955.88,-324.18 953.52,-327.65"/>
</g>
<!-- src/services/StorageController/migrations/utils/index.ts -->
<g id="node24" class="node">
<title>src/services/StorageController/migrations/utils/index.ts</title>
<g id="a_node24"><a xlink:href="src/services/StorageController/migrations/utils/index.ts" xlink:title="index.ts">
<path fill="#ddfeff" stroke="black" d="M1077.71,-318.62C1077.71,-318.62 1036.54,-318.62 1036.54,-318.62 1033.33,-318.62 1030.12,-315.42 1030.12,-312.21 1030.12,-312.21 1030.12,-305.79 1030.12,-305.79 1030.12,-302.58 1033.33,-299.38 1036.54,-299.38 1036.54,-299.38 1077.71,-299.38 1077.71,-299.38 1080.92,-299.38 1084.12,-302.58 1084.12,-305.79 1084.12,-305.79 1084.12,-312.21 1084.12,-312.21 1084.12,-315.42 1080.92,-318.62 1077.71,-318.62"/>
<text text-anchor="start" x="1041.38" y="-306.07" font-family="Helvetica,sans-Serif" font-size="9.00">index.ts</text>
</a>
</g>
</g>
<!-- src/services/StorageController/migrations/v1/index.ts&#45;&gt;src/services/StorageController/migrations/utils/index.ts -->
<g id="edge23" class="edge">
<title>src/services/StorageController/migrations/v1/index.ts&#45;&gt;src/services/StorageController/migrations/utils/index.ts</title>
<path fill="none" stroke="#000000" stroke-width="2" stroke-opacity="0.200000" d="M1004.59,-287.98C1010.5,-290.39 1016.91,-293 1023.13,-295.54"/>
<polygon fill="#000000" fill-opacity="0.200000" stroke="#000000" stroke-width="2" stroke-opacity="0.200000" points="1022.29,-297.47 1028.64,-297.79 1023.88,-293.58 1022.29,-297.47"/>
</g>
<!-- src/services/StorageController/migrations/v2/index.ts&#45;&gt;src/services/StorageController/migrations/utils/index.ts -->
<g id="edge24" class="edge">
<title>src/services/StorageController/migrations/v2/index.ts&#45;&gt;src/services/StorageController/migrations/utils/index.ts</title>
<path fill="none" stroke="#000000" stroke-width="2" stroke-opacity="0.200000" d="M1004.17,-330.88C1010.47,-328.22 1017.36,-325.32 1024.01,-322.52"/>
<polygon fill="#000000" fill-opacity="0.200000" stroke="#000000" stroke-width="2" stroke-opacity="0.200000" points="1024.73,-324.5 1029.44,-320.23 1023.1,-320.63 1024.73,-324.5"/>
</g>
</g>
</svg>
