<?xml version="1.0" encoding="UTF-8" standalone="no"?>
<!DOCTYPE svg PUBLIC "-//W3C//DTD SVG 1.1//EN"
 "http://www.w3.org/Graphics/SVG/1.1/DTD/svg11.dtd">
<!-- Generated by graphviz version 9.0.0 (20230911.1827)
 -->
<!-- Title: dependency&#45;cruiser output Pages: 1 -->
<svg width="1431pt" height="455pt"
 viewBox="0.00 0.00 1430.50 455.00" xmlns="http://www.w3.org/2000/svg" xmlns:xlink="http://www.w3.org/1999/xlink">
<g id="graph0" class="graph" transform="scale(1 1) rotate(0) translate(4 451)">
<title>dependency&#45;cruiser output</title>
<polygon fill="white" stroke="none" points="-4,4 -4,-451 1426.5,-451 1426.5,4 -4,4"/>
<g id="clust1" class="cluster">
<title>cluster_src</title>
<path fill="#ffffff" stroke="black" stroke-width="2" d="M20,-8C20,-8 1402.5,-8 1402.5,-8 1408.5,-8 1414.5,-14 1414.5,-20 1414.5,-20 1414.5,-427 1414.5,-427 1414.5,-433 1408.5,-439 1402.5,-439 1402.5,-439 20,-439 20,-439 14,-439 8,-433 8,-427 8,-427 8,-20 8,-20 8,-14 14,-8 20,-8"/>
<text text-anchor="middle" x="711.25" y="-426.45" font-family="Helvetica,sans-Serif" font-weight="bold" font-size="9.00">src</text>
</g>
<g id="clust2" class="cluster">
<title>cluster_src/application</title>
<path fill="#ffffff" stroke="black" stroke-width="2" d="M512.25,-175C512.25,-175 818.5,-175 818.5,-175 824.5,-175 830.5,-181 830.5,-187 830.5,-187 830.5,-290 830.5,-290 830.5,-296 824.5,-302 818.5,-302 818.5,-302 512.25,-302 512.25,-302 506.25,-302 500.25,-296 500.25,-290 500.25,-290 500.25,-187 500.25,-187 500.25,-181 506.25,-175 512.25,-175"/>
<text text-anchor="middle" x="665.38" y="-289.45" font-family="Helvetica,sans-Serif" font-weight="bold" font-size="9.00">application</text>
</g>
<g id="clust3" class="cluster">
<title>cluster_src/application/services</title>
<path fill="#ffffff" stroke="black" stroke-width="2" d="M582.25,-189C582.25,-189 810.5,-189 810.5,-189 816.5,-189 822.5,-195 822.5,-201 822.5,-201 822.5,-263 822.5,-263 822.5,-269 816.5,-275 810.5,-275 810.5,-275 582.25,-275 582.25,-275 576.25,-275 570.25,-269 570.25,-263 570.25,-263 570.25,-201 570.25,-201 570.25,-195 576.25,-189 582.25,-189"/>
<text text-anchor="middle" x="696.38" y="-262.45" font-family="Helvetica,sans-Serif" font-weight="bold" font-size="9.00">services</text>
</g>
<g id="clust4" class="cluster">
<title>cluster_src/components</title>
<path fill="#ffffff" stroke="black" stroke-width="2" d="M265.25,-16C265.25,-16 480.25,-16 480.25,-16 486.25,-16 492.25,-22 492.25,-28 492.25,-28 492.25,-185 492.25,-185 492.25,-191 486.25,-197 480.25,-197 480.25,-197 265.25,-197 265.25,-197 259.25,-197 253.25,-191 253.25,-185 253.25,-185 253.25,-28 253.25,-28 253.25,-22 259.25,-16 265.25,-16"/>
<text text-anchor="middle" x="372.75" y="-184.45" font-family="Helvetica,sans-Serif" font-weight="bold" font-size="9.00">components</text>
</g>
<g id="clust5" class="cluster">
<title>cluster_src/components/inputs</title>
<path fill="#ffffff" stroke="black" stroke-width="2" d="M292.38,-115C292.38,-115 352.12,-115 352.12,-115 358.12,-115 364.12,-121 364.12,-127 364.12,-127 364.12,-158 364.12,-158 364.12,-164 358.12,-170 352.12,-170 352.12,-170 292.38,-170 292.38,-170 286.38,-170 280.38,-164 280.38,-158 280.38,-158 280.38,-127 280.38,-127 280.38,-121 286.38,-115 292.38,-115"/>
<text text-anchor="middle" x="322.25" y="-157.45" font-family="Helvetica,sans-Serif" font-weight="bold" font-size="9.00">inputs</text>
</g>
<g id="clust6" class="cluster">
<title>cluster_src/components/utils</title>
<path fill="#ffffff" stroke="black" stroke-width="2" d="M273.25,-52C273.25,-52 371.25,-52 371.25,-52 377.25,-52 383.25,-58 383.25,-64 383.25,-64 383.25,-95 383.25,-95 383.25,-101 377.25,-107 371.25,-107 371.25,-107 273.25,-107 273.25,-107 267.25,-107 261.25,-101 261.25,-95 261.25,-95 261.25,-64 261.25,-64 261.25,-58 267.25,-52 273.25,-52"/>
<text text-anchor="middle" x="322.25" y="-94.45" font-family="Helvetica,sans-Serif" font-weight="bold" font-size="9.00">utils</text>
</g>
<g id="clust7" class="cluster">
<title>cluster_src/domain</title>
<path fill="#ffffff" stroke="black" stroke-width="2" d="M1081.75,-145C1081.75,-145 1394.5,-145 1394.5,-145 1400.5,-145 1406.5,-151 1406.5,-157 1406.5,-157 1406.5,-400 1406.5,-400 1406.5,-406 1400.5,-412 1394.5,-412 1394.5,-412 1081.75,-412 1081.75,-412 1075.75,-412 1069.75,-406 1069.75,-400 1069.75,-400 1069.75,-157 1069.75,-157 1069.75,-151 1075.75,-145 1081.75,-145"/>
<text text-anchor="middle" x="1238.12" y="-399.45" font-family="Helvetica,sans-Serif" font-weight="bold" font-size="9.00">domain</text>
</g>
<g id="clust8" class="cluster">
<title>cluster_src/domain/constants</title>
<path fill="#ffffff" stroke="black" stroke-width="2" d="M1225.38,-153C1225.38,-153 1271.38,-153 1271.38,-153 1277.38,-153 1283.38,-159 1283.38,-165 1283.38,-165 1283.38,-196 1283.38,-196 1283.38,-202 1277.38,-208 1271.38,-208 1271.38,-208 1225.38,-208 1225.38,-208 1219.38,-208 1213.38,-202 1213.38,-196 1213.38,-196 1213.38,-165 1213.38,-165 1213.38,-159 1219.38,-153 1225.38,-153"/>
<text text-anchor="middle" x="1248.38" y="-195.45" font-family="Helvetica,sans-Serif" font-weight="bold" font-size="9.00">constants</text>
</g>
<g id="clust9" class="cluster">
<title>cluster_src/domain/entities</title>
<path fill="#ffffff" stroke="black" stroke-width="2" d="M1331.25,-226C1331.25,-226 1386.5,-226 1386.5,-226 1392.5,-226 1398.5,-232 1398.5,-238 1398.5,-238 1398.5,-300 1398.5,-300 1398.5,-306 1392.5,-312 1386.5,-312 1386.5,-312 1331.25,-312 1331.25,-312 1325.25,-312 1319.25,-306 1319.25,-300 1319.25,-300 1319.25,-238 1319.25,-238 1319.25,-232 1325.25,-226 1331.25,-226"/>
<text text-anchor="middle" x="1358.88" y="-299.45" font-family="Helvetica,sans-Serif" font-weight="bold" font-size="9.00">entities</text>
</g>
<g id="clust11" class="cluster">
<title>cluster_src/domain/services</title>
<path fill="#ffffff" stroke="black" stroke-width="2" d="M1206.5,-330C1206.5,-330 1290.25,-330 1290.25,-330 1296.25,-330 1302.25,-336 1302.25,-342 1302.25,-342 1302.25,-373 1302.25,-373 1302.25,-379 1296.25,-385 1290.25,-385 1290.25,-385 1206.5,-385 1206.5,-385 1200.5,-385 1194.5,-379 1194.5,-373 1194.5,-373 1194.5,-342 1194.5,-342 1194.5,-336 1200.5,-330 1206.5,-330"/>
<text text-anchor="middle" x="1248.38" y="-372.45" font-family="Helvetica,sans-Serif" font-weight="bold" font-size="9.00">services</text>
</g>
<g id="clust10" class="cluster">
<title>cluster_src/domain/repositories</title>
<path fill="#ffffff" stroke="black" stroke-width="2" d="M1197.5,-226C1197.5,-226 1299.25,-226 1299.25,-226 1305.25,-226 1311.25,-232 1311.25,-238 1311.25,-238 1311.25,-300 1311.25,-300 1311.25,-306 1305.25,-312 1299.25,-312 1299.25,-312 1197.5,-312 1197.5,-312 1191.5,-312 1185.5,-306 1185.5,-300 1185.5,-300 1185.5,-238 1185.5,-238 1185.5,-232 1191.5,-226 1197.5,-226"/>
<text text-anchor="middle" x="1248.38" y="-299.45" font-family="Helvetica,sans-Serif" font-weight="bold" font-size="9.00">repositories</text>
</g>
<g id="clust12" class="cluster">
<title>cluster_src/infrastructure</title>
<path fill="#ffffff" stroke="black" stroke-width="2" d="M850.5,-16C850.5,-16 1165.5,-16 1165.5,-16 1171.5,-16 1177.5,-22 1177.5,-28 1177.5,-28 1177.5,-125 1177.5,-125 1177.5,-131 1171.5,-137 1165.5,-137 1165.5,-137 850.5,-137 850.5,-137 844.5,-137 838.5,-131 838.5,-125 838.5,-125 838.5,-28 838.5,-28 838.5,-22 844.5,-16 850.5,-16"/>
<text text-anchor="middle" x="1008" y="-124.45" font-family="Helvetica,sans-Serif" font-weight="bold" font-size="9.00">infrastructure</text>
</g>
<g id="clust13" class="cluster">
<title>cluster_src/infrastructure/database</title>
<path fill="#ffffff" stroke="black" stroke-width="2" d="M1052,-39C1052,-39 1157.5,-39 1157.5,-39 1163.5,-39 1169.5,-45 1169.5,-51 1169.5,-51 1169.5,-82 1169.5,-82 1169.5,-88 1163.5,-94 1157.5,-94 1157.5,-94 1052,-94 1052,-94 1046,-94 1040,-88 1040,-82 1040,-82 1040,-51 1040,-51 1040,-45 1046,-39 1052,-39"/>
<text text-anchor="middle" x="1104.75" y="-81.45" font-family="Helvetica,sans-Serif" font-weight="bold" font-size="9.00">database</text>
</g>
<g id="clust14" class="cluster">
<title>cluster_src/infrastructure/repository</title>
<path fill="#ffffff" stroke="black" stroke-width="2" d="M920.5,-24C920.5,-24 1020,-24 1020,-24 1026,-24 1032,-30 1032,-36 1032,-36 1032,-98 1032,-98 1032,-104 1026,-110 1020,-110 1020,-110 920.5,-110 920.5,-110 914.5,-110 908.5,-104 908.5,-98 908.5,-98 908.5,-36 908.5,-36 908.5,-30 914.5,-24 920.5,-24"/>
<text text-anchor="middle" x="970.25" y="-97.45" font-family="Helvetica,sans-Serif" font-weight="bold" font-size="9.00">repository</text>
</g>
<g id="clust15" class="cluster">
<title>cluster_src/stores</title>
<path fill="#ffffff" stroke="black" stroke-width="2" d="M403.25,-205C403.25,-205 479.5,-205 479.5,-205 485.5,-205 491.5,-211 491.5,-217 491.5,-217 491.5,-279 491.5,-279 491.5,-285 485.5,-291 479.5,-291 479.5,-291 403.25,-291 403.25,-291 397.25,-291 391.25,-285 391.25,-279 391.25,-279 391.25,-217 391.25,-217 391.25,-211 397.25,-205 403.25,-205"/>
<text text-anchor="middle" x="441.38" y="-278.45" font-family="Helvetica,sans-Serif" font-weight="bold" font-size="9.00">stores</text>
</g>
<g id="clust16" class="cluster">
<title>cluster_src/views</title>
<path fill="#ffffff" stroke="black" stroke-width="2" d="M157,-174C157,-174 233.25,-174 233.25,-174 239.25,-174 245.25,-180 245.25,-186 245.25,-186 245.25,-248 245.25,-248 245.25,-254 239.25,-260 233.25,-260 233.25,-260 157,-260 157,-260 151,-260 145,-254 145,-248 145,-248 145,-186 145,-186 145,-180 151,-174 157,-174"/>
<text text-anchor="middle" x="195.12" y="-247.45" font-family="Helvetica,sans-Serif" font-weight="bold" font-size="9.00">views</text>
</g>
<!-- src/App.vue -->
<g id="node1" class="node">
<title>src/App.vue</title>
<g id="a_node1"><a xlink:href="src/App.vue" xlink:title="App.vue">
<path fill="#41f083" stroke="black" d="M130.58,-201.62C130.58,-201.62 89.42,-201.62 89.42,-201.62 86.21,-201.62 83,-198.42 83,-195.21 83,-195.21 83,-188.79 83,-188.79 83,-185.58 86.21,-182.38 89.42,-182.38 89.42,-182.38 130.58,-182.38 130.58,-182.38 133.79,-182.38 137,-185.58 137,-188.79 137,-188.79 137,-195.21 137,-195.21 137,-198.42 133.79,-201.62 130.58,-201.62"/>
<text text-anchor="start" x="93.88" y="-189.07" font-family="Helvetica,sans-Serif" font-size="9.00">App.vue</text>
</a>
</g>
</g>
<!-- src/components/utils/DiagnosticsPanel.vue -->
<g id="node2" class="node">
<title>src/components/utils/DiagnosticsPanel.vue</title>
<g id="a_node2"><a xlink:href="src/components/utils/DiagnosticsPanel.vue" xlink:title="DiagnosticsPanel.vue">
<path fill="#41f083" stroke="black" d="M368.83,-79.62C368.83,-79.62 275.67,-79.62 275.67,-79.62 272.46,-79.62 269.25,-76.42 269.25,-73.21 269.25,-73.21 269.25,-66.79 269.25,-66.79 269.25,-63.58 272.46,-60.38 275.67,-60.38 275.67,-60.38 368.83,-60.38 368.83,-60.38 372.04,-60.38 375.25,-63.58 375.25,-66.79 375.25,-66.79 375.25,-73.21 375.25,-73.21 375.25,-76.42 372.04,-79.62 368.83,-79.62"/>
<text text-anchor="start" x="277.25" y="-67.08" font-family="Helvetica,sans-Serif" font-size="9.00">DiagnosticsPanel.vue</text>
</a>
</g>
</g>
<!-- src/App.vue&#45;&gt;src/components/utils/DiagnosticsPanel.vue -->
<g id="edge1" class="edge">
<title>src/App.vue&#45;&gt;src/components/utils/DiagnosticsPanel.vue</title>
<path fill="none" stroke="#000000" stroke-width="2" stroke-opacity="0.200000" d="M126.85,-182.06C132.55,-178.53 139.04,-174.55 145,-171 198.17,-139.36 261.24,-103.65 295.67,-84.31"/>
<polygon fill="#000000" fill-opacity="0.200000" stroke="#000000" stroke-width="2" stroke-opacity="0.200000" points="296.53,-86.23 300.74,-81.47 294.48,-82.57 296.53,-86.23"/>
</g>
<!-- src/views/NavBar.vue -->
<g id="node3" class="node">
<title>src/views/NavBar.vue</title>
<g id="a_node3"><a xlink:href="src/views/NavBar.vue" xlink:title="NavBar.vue">
<path fill="#41f083" stroke="black" d="M219.96,-232.62C219.96,-232.62 170.29,-232.62 170.29,-232.62 167.08,-232.62 163.88,-229.42 163.88,-226.21 163.88,-226.21 163.88,-219.79 163.88,-219.79 163.88,-216.58 167.08,-213.38 170.29,-213.38 170.29,-213.38 219.96,-213.38 219.96,-213.38 223.17,-213.38 226.38,-216.58 226.38,-219.79 226.38,-219.79 226.38,-226.21 226.38,-226.21 226.38,-229.42 223.17,-232.62 219.96,-232.62"/>
<text text-anchor="start" x="171.88" y="-220.07" font-family="Helvetica,sans-Serif" font-size="9.00">NavBar.vue</text>
</a>
</g>
</g>
<!-- src/App.vue&#45;&gt;src/views/NavBar.vue -->
<g id="edge2" class="edge">
<title>src/App.vue&#45;&gt;src/views/NavBar.vue</title>
<path fill="none" stroke="#000000" stroke-width="2" stroke-opacity="0.200000" d="M130.93,-201.96C135.5,-204.08 140.37,-206.22 145,-208 148.23,-209.25 151.61,-210.46 155.02,-211.62"/>
<polygon fill="#000000" fill-opacity="0.200000" stroke="#000000" stroke-width="2" stroke-opacity="0.200000" points="154.26,-213.58 160.62,-213.45 155.57,-209.59 154.26,-213.58"/>
</g>
<!-- src/views/VideoGallery.vue -->
<g id="node4" class="node">
<title>src/views/VideoGallery.vue</title>
<g id="a_node4"><a xlink:href="src/views/VideoGallery.vue" xlink:title="VideoGallery.vue">
<path fill="#41f083" stroke="black" d="M230.83,-201.62C230.83,-201.62 159.42,-201.62 159.42,-201.62 156.21,-201.62 153,-198.42 153,-195.21 153,-195.21 153,-188.79 153,-188.79 153,-185.58 156.21,-182.38 159.42,-182.38 159.42,-182.38 230.83,-182.38 230.83,-182.38 234.04,-182.38 237.25,-185.58 237.25,-188.79 237.25,-188.79 237.25,-195.21 237.25,-195.21 237.25,-198.42 234.04,-201.62 230.83,-201.62"/>
<text text-anchor="start" x="161" y="-189.07" font-family="Helvetica,sans-Serif" font-size="9.00">VideoGallery.vue</text>
</a>
</g>
</g>
<!-- src/App.vue&#45;&gt;src/views/VideoGallery.vue -->
<g id="edge3" class="edge">
<title>src/App.vue&#45;&gt;src/views/VideoGallery.vue</title>
<path fill="none" stroke="#000000" stroke-width="2" stroke-opacity="0.200000" d="M137.3,-192C139.42,-192 141.61,-192 143.83,-192"/>
<polygon fill="#000000" fill-opacity="0.200000" stroke="#000000" stroke-width="2" stroke-opacity="0.200000" points="143.47,-194.1 149.47,-192 143.47,-189.9 143.47,-194.1"/>
</g>
<!-- src/stores/appStateStore.ts -->
<g id="node15" class="node">
<title>src/stores/appStateStore.ts</title>
<g id="a_node15"><a xlink:href="src/stores/appStateStore.ts" xlink:title="appStateStore.ts">
<path fill="#ddfeff" stroke="black" d="M477.08,-263.62C477.08,-263.62 405.67,-263.62 405.67,-263.62 402.46,-263.62 399.25,-260.42 399.25,-257.21 399.25,-257.21 399.25,-250.79 399.25,-250.79 399.25,-247.58 402.46,-244.38 405.67,-244.38 405.67,-244.38 477.08,-244.38 477.08,-244.38 480.29,-244.38 483.5,-247.58 483.5,-250.79 483.5,-250.79 483.5,-257.21 483.5,-257.21 483.5,-260.42 480.29,-263.62 477.08,-263.62"/>
<text text-anchor="start" x="407.25" y="-251.07" font-family="Helvetica,sans-Serif" font-size="9.00">appStateStore.ts</text>
</a>
</g>
</g>
<!-- src/components/utils/DiagnosticsPanel.vue&#45;&gt;src/stores/appStateStore.ts -->
<g id="edge13" class="edge">
<title>src/components/utils/DiagnosticsPanel.vue&#45;&gt;src/stores/appStateStore.ts</title>
<path fill="none" stroke="#000000" stroke-width="2" stroke-opacity="0.200000" d="M346.67,-80.03C359.81,-86.98 375.16,-97.59 383.25,-112 397.09,-136.66 373.72,-216.81 391.25,-239 391.66,-239.52 392.1,-240.03 392.55,-240.52"/>
<polygon fill="#000000" fill-opacity="0.200000" stroke="#000000" stroke-width="2" stroke-opacity="0.200000" points="390.88,-241.87 396.85,-244.04 393.54,-238.62 390.88,-241.87"/>
</g>
<!-- src/stores/videosStore.ts -->
<g id="node13" class="node">
<title>src/stores/videosStore.ts</title>
<g id="a_node13"><a xlink:href="src/stores/videosStore.ts" xlink:title="videosStore.ts">
<path fill="#ddfeff" stroke="black" d="M472.21,-232.62C472.21,-232.62 410.54,-232.62 410.54,-232.62 407.33,-232.62 404.12,-229.42 404.12,-226.21 404.12,-226.21 404.12,-219.79 404.12,-219.79 404.12,-216.58 407.33,-213.38 410.54,-213.38 410.54,-213.38 472.21,-213.38 472.21,-213.38 475.42,-213.38 478.62,-216.58 478.62,-219.79 478.62,-219.79 478.62,-226.21 478.62,-226.21 478.62,-229.42 475.42,-232.62 472.21,-232.62"/>
<text text-anchor="start" x="412.12" y="-220.07" font-family="Helvetica,sans-Serif" font-size="9.00">videosStore.ts</text>
</a>
</g>
</g>
<!-- src/views/NavBar.vue&#45;&gt;src/stores/videosStore.ts -->
<g id="edge32" class="edge">
<title>src/views/NavBar.vue&#45;&gt;src/stores/videosStore.ts</title>
<path fill="none" stroke="#000000" stroke-width="2" stroke-opacity="0.200000" d="M226.57,-223C268.94,-223 346.03,-223 395.14,-223"/>
<polygon fill="#000000" fill-opacity="0.200000" stroke="#000000" stroke-width="2" stroke-opacity="0.200000" points="394.95,-225.1 400.95,-223 394.95,-220.9 394.95,-225.1"/>
</g>
<!-- src/components/inputs/FileInput.vue -->
<g id="node14" class="node">
<title>src/components/inputs/FileInput.vue</title>
<g id="a_node14"><a xlink:href="src/components/inputs/FileInput.vue" xlink:title="FileInput.vue">
<path fill="#41f083" stroke="black" d="M349.71,-142.62C349.71,-142.62 294.79,-142.62 294.79,-142.62 291.58,-142.62 288.38,-139.42 288.38,-136.21 288.38,-136.21 288.38,-129.79 288.38,-129.79 288.38,-126.58 291.58,-123.38 294.79,-123.38 294.79,-123.38 349.71,-123.38 349.71,-123.38 352.92,-123.38 356.12,-126.58 356.12,-129.79 356.12,-129.79 356.12,-136.21 356.12,-136.21 356.12,-139.42 352.92,-142.62 349.71,-142.62"/>
<text text-anchor="start" x="296.38" y="-130.07" font-family="Helvetica,sans-Serif" font-size="9.00">FileInput.vue</text>
</a>
</g>
</g>
<!-- src/views/NavBar.vue&#45;&gt;src/components/inputs/FileInput.vue -->
<g id="edge30" class="edge">
<title>src/views/NavBar.vue&#45;&gt;src/components/inputs/FileInput.vue</title>
<path fill="none" stroke="#000000" stroke-width="2" stroke-opacity="0.200000" d="M226.71,-216.16C233.09,-214.06 239.58,-211.38 245.25,-208 271.03,-192.63 294.59,-166.71 308.44,-149.73"/>
<polygon fill="#000000" fill-opacity="0.200000" stroke="#000000" stroke-width="2" stroke-opacity="0.200000" points="309.77,-151.42 311.87,-145.42 306.49,-148.81 309.77,-151.42"/>
</g>
<!-- src/views/NavBar.vue&#45;&gt;src/stores/appStateStore.ts -->
<g id="edge31" class="edge">
<title>src/views/NavBar.vue&#45;&gt;src/stores/appStateStore.ts</title>
<path fill="none" stroke="#000000" stroke-width="2" stroke-opacity="0.200000" d="M221.63,-233.04C231.37,-236.46 242.68,-239.94 253.25,-242 299.1,-250.94 352.34,-253.63 390.29,-254.26"/>
<polygon fill="#000000" fill-opacity="0.200000" stroke="#000000" stroke-width="2" stroke-opacity="0.200000" points="390.05,-256.36 396.08,-254.34 390.11,-252.16 390.05,-256.36"/>
</g>
<!-- src/components/VideoCard.vue -->
<g id="node11" class="node">
<title>src/components/VideoCard.vue</title>
<g id="a_node11"><a xlink:href="src/components/VideoCard.vue" xlink:title="VideoCard.vue">
<path fill="#41f083" stroke="black" d="M353.83,-43.62C353.83,-43.62 290.67,-43.62 290.67,-43.62 287.46,-43.62 284.25,-40.42 284.25,-37.21 284.25,-37.21 284.25,-30.79 284.25,-30.79 284.25,-27.58 287.46,-24.38 290.67,-24.38 290.67,-24.38 353.83,-24.38 353.83,-24.38 357.04,-24.38 360.25,-27.58 360.25,-30.79 360.25,-30.79 360.25,-37.21 360.25,-37.21 360.25,-40.42 357.04,-43.62 353.83,-43.62"/>
<text text-anchor="start" x="292.25" y="-31.07" font-family="Helvetica,sans-Serif" font-size="9.00">VideoCard.vue</text>
</a>
</g>
</g>
<!-- src/views/VideoGallery.vue&#45;&gt;src/components/VideoCard.vue -->
<g id="edge33" class="edge">
<title>src/views/VideoGallery.vue&#45;&gt;src/components/VideoCard.vue</title>
<path fill="none" stroke="#000000" stroke-width="2" stroke-opacity="0.200000" d="M196.97,-182.23C199.75,-156.21 211.06,-84.82 253.25,-49 259.54,-43.66 267.32,-40.1 275.34,-37.75"/>
<polygon fill="#000000" fill-opacity="0.200000" stroke="#000000" stroke-width="2" stroke-opacity="0.200000" points="275.79,-39.8 281.13,-36.36 274.81,-35.72 275.79,-39.8"/>
</g>
<!-- src/views/VideoGallery.vue&#45;&gt;src/stores/videosStore.ts -->
<g id="edge35" class="edge">
<title>src/views/VideoGallery.vue&#45;&gt;src/stores/videosStore.ts</title>
<path fill="none" stroke="#000000" stroke-width="2" stroke-opacity="0.200000" d="M237.56,-197.26C281.32,-202.81 350.12,-211.54 395.24,-217.27"/>
<polygon fill="#000000" fill-opacity="0.200000" stroke="#000000" stroke-width="2" stroke-opacity="0.200000" points="394.71,-219.32 400.93,-217.99 395.24,-215.15 394.71,-219.32"/>
</g>
<!-- src/views/VideoGallery.vue&#45;&gt;src/stores/appStateStore.ts -->
<g id="edge34" class="edge">
<title>src/views/VideoGallery.vue&#45;&gt;src/stores/appStateStore.ts</title>
<path fill="none" stroke="#000000" stroke-width="2" stroke-opacity="0.200000" d="M231.79,-202.12C236.36,-203.64 240.94,-205.28 245.25,-207 248.94,-208.47 249.51,-209.66 253.25,-211 278.08,-219.92 343.75,-234.25 390.26,-243.89"/>
<polygon fill="#000000" fill-opacity="0.200000" stroke="#000000" stroke-width="2" stroke-opacity="0.200000" points="389.73,-245.92 396.04,-245.08 390.58,-241.81 389.73,-245.92"/>
</g>
<!-- src/application/index.ts -->
<g id="node5" class="node">
<title>src/application/index.ts</title>
<g id="a_node5"><a xlink:href="src/application/index.ts" xlink:title="index.ts">
<path fill="#ddfeff" stroke="black" d="M555.83,-224.62C555.83,-224.62 514.67,-224.62 514.67,-224.62 511.46,-224.62 508.25,-221.42 508.25,-218.21 508.25,-218.21 508.25,-211.79 508.25,-211.79 508.25,-208.58 511.46,-205.38 514.67,-205.38 514.67,-205.38 555.83,-205.38 555.83,-205.38 559.04,-205.38 562.25,-208.58 562.25,-211.79 562.25,-211.79 562.25,-218.21 562.25,-218.21 562.25,-221.42 559.04,-224.62 555.83,-224.62"/>
<text text-anchor="start" x="519.5" y="-212.07" font-family="Helvetica,sans-Serif" font-size="9.00">index.ts</text>
</a>
</g>
</g>
<!-- src/application/services/FiltersService.ts -->
<g id="node6" class="node">
<title>src/application/services/FiltersService.ts</title>
<g id="a_node6"><a xlink:href="src/application/services/FiltersService.ts" xlink:title="FiltersService.ts">
<path fill="#ddfeff" stroke="black" d="M665.83,-247.62C665.83,-247.62 597.42,-247.62 597.42,-247.62 594.21,-247.62 591,-244.42 591,-241.21 591,-241.21 591,-234.79 591,-234.79 591,-231.58 594.21,-228.38 597.42,-228.38 597.42,-228.38 665.83,-228.38 665.83,-228.38 669.04,-228.38 672.25,-231.58 672.25,-234.79 672.25,-234.79 672.25,-241.21 672.25,-241.21 672.25,-244.42 669.04,-247.62 665.83,-247.62"/>
<text text-anchor="start" x="599" y="-235.07" font-family="Helvetica,sans-Serif" font-size="9.00">FiltersService.ts</text>
</a>
</g>
</g>
<!-- src/application/index.ts&#45;&gt;src/application/services/FiltersService.ts -->
<g id="edge4" class="edge">
<title>src/application/index.ts&#45;&gt;src/application/services/FiltersService.ts</title>
<path fill="none" stroke="#000000" stroke-width="2" stroke-opacity="0.200000" d="M562.54,-221.41C568.67,-222.9 575.4,-224.54 582.16,-226.19"/>
<polygon fill="#000000" fill-opacity="0.200000" stroke="#000000" stroke-width="2" stroke-opacity="0.200000" points="581.44,-228.17 587.76,-227.55 582.43,-224.09 581.44,-228.17"/>
</g>
<!-- src/application/services/VideoMetadataService.ts -->
<g id="node7" class="node">
<title>src/application/services/VideoMetadataService.ts</title>
<g id="a_node7"><a xlink:href="src/application/services/VideoMetadataService.ts" xlink:title="VideoMetadataService.ts">
<path fill="#ddfeff" stroke="black" d="M808.08,-216.62C808.08,-216.62 704.42,-216.62 704.42,-216.62 701.21,-216.62 698,-213.42 698,-210.21 698,-210.21 698,-203.79 698,-203.79 698,-200.58 701.21,-197.38 704.42,-197.38 704.42,-197.38 808.08,-197.38 808.08,-197.38 811.29,-197.38 814.5,-200.58 814.5,-203.79 814.5,-203.79 814.5,-210.21 814.5,-210.21 814.5,-213.42 811.29,-216.62 808.08,-216.62"/>
<text text-anchor="start" x="706" y="-204.07" font-family="Helvetica,sans-Serif" font-size="9.00">VideoMetadataService.ts</text>
</a>
</g>
</g>
<!-- src/application/index.ts&#45;&gt;src/application/services/VideoMetadataService.ts -->
<g id="edge5" class="edge">
<title>src/application/index.ts&#45;&gt;src/application/services/VideoMetadataService.ts</title>
<path fill="none" stroke="#000000" stroke-width="2" stroke-opacity="0.200000" d="M546.64,-205.1C552.94,-199.8 561.44,-193.8 570.25,-191 618.39,-175.72 676.88,-185.13 715.04,-194.74"/>
<polygon fill="#000000" fill-opacity="0.200000" stroke="#000000" stroke-width="2" stroke-opacity="0.200000" points="714.07,-196.66 720.4,-196.14 715.13,-192.59 714.07,-196.66"/>
</g>
<!-- src/application/services/VideoParserService.ts -->
<g id="node8" class="node">
<title>src/application/services/VideoParserService.ts</title>
<g id="a_node8"><a xlink:href="src/application/services/VideoParserService.ts" xlink:title="VideoParserService.ts">
<path fill="#ddfeff" stroke="black" d="M678.58,-216.62C678.58,-216.62 584.67,-216.62 584.67,-216.62 581.46,-216.62 578.25,-213.42 578.25,-210.21 578.25,-210.21 578.25,-203.79 578.25,-203.79 578.25,-200.58 581.46,-197.38 584.67,-197.38 584.67,-197.38 678.58,-197.38 678.58,-197.38 681.79,-197.38 685,-200.58 685,-203.79 685,-203.79 685,-210.21 685,-210.21 685,-213.42 681.79,-216.62 678.58,-216.62"/>
<text text-anchor="start" x="586.25" y="-204.07" font-family="Helvetica,sans-Serif" font-size="9.00">VideoParserService.ts</text>
</a>
</g>
</g>
<!-- src/application/index.ts&#45;&gt;src/application/services/VideoParserService.ts -->
<g id="edge6" class="edge">
<title>src/application/index.ts&#45;&gt;src/application/services/VideoParserService.ts</title>
<path fill="none" stroke="#000000" stroke-width="2" stroke-opacity="0.200000" d="M562.54,-212.77C564.64,-212.59 566.81,-212.41 569.02,-212.22"/>
<polygon fill="#000000" fill-opacity="0.200000" stroke="#000000" stroke-width="2" stroke-opacity="0.200000" points="568.94,-214.34 574.74,-211.74 568.58,-210.15 568.94,-214.34"/>
</g>
<!-- src/infrastructure/index.ts -->
<g id="node9" class="node">
<title>src/infrastructure/index.ts</title>
<g id="a_node9"><a xlink:href="src/infrastructure/index.ts" xlink:title="index.ts">
<path fill="#ddfeff" stroke="black" d="M894.08,-82.62C894.08,-82.62 852.92,-82.62 852.92,-82.62 849.71,-82.62 846.5,-79.42 846.5,-76.21 846.5,-76.21 846.5,-69.79 846.5,-69.79 846.5,-66.58 849.71,-63.38 852.92,-63.38 852.92,-63.38 894.08,-63.38 894.08,-63.38 897.29,-63.38 900.5,-66.58 900.5,-69.79 900.5,-69.79 900.5,-76.21 900.5,-76.21 900.5,-79.42 897.29,-82.62 894.08,-82.62"/>
<text text-anchor="start" x="857.75" y="-70.08" font-family="Helvetica,sans-Serif" font-size="9.00">index.ts</text>
</a>
</g>
</g>
<!-- src/application/services/VideoMetadataService.ts&#45;&gt;src/infrastructure/index.ts -->
<g id="edge7" class="edge">
<title>src/application/services/VideoMetadataService.ts&#45;&gt;src/infrastructure/index.ts</title>
<path fill="none" stroke="#000000" stroke-width="2" stroke-opacity="0.200000" d="M765.91,-196.93C785.61,-174.02 833.95,-117.83 858.17,-89.66"/>
<polygon fill="#000000" fill-opacity="0.200000" stroke="#000000" stroke-width="2" stroke-opacity="0.200000" points="859.76,-91.04 862.08,-85.12 856.57,-88.3 859.76,-91.04"/>
</g>
<!-- src/application/services/VideoParserService.ts&#45;&gt;src/application/services/VideoMetadataService.ts -->
<g id="edge8" class="edge">
<title>src/application/services/VideoParserService.ts&#45;&gt;src/application/services/VideoMetadataService.ts</title>
<path fill="none" stroke="#000000" stroke-width="2" stroke-opacity="0.200000" d="M685.34,-207C686.64,-207 687.94,-207 689.25,-207"/>
<polygon fill="#000000" fill-opacity="0.200000" stroke="#000000" stroke-width="2" stroke-opacity="0.200000" points="688.86,-209.1 694.86,-207 688.86,-204.9 688.86,-209.1"/>
</g>
<!-- src/domain/index.ts -->
<g id="node10" class="node">
<title>src/domain/index.ts</title>
<g id="a_node10"><a xlink:href="src/domain/index.ts" xlink:title="index.ts">
<path fill="#ddfeff" stroke="black" d="M1125.33,-239.62C1125.33,-239.62 1084.17,-239.62 1084.17,-239.62 1080.96,-239.62 1077.75,-236.42 1077.75,-233.21 1077.75,-233.21 1077.75,-226.79 1077.75,-226.79 1077.75,-223.58 1080.96,-220.38 1084.17,-220.38 1084.17,-220.38 1125.33,-220.38 1125.33,-220.38 1128.54,-220.38 1131.75,-223.58 1131.75,-226.79 1131.75,-226.79 1131.75,-233.21 1131.75,-233.21 1131.75,-236.42 1128.54,-239.62 1125.33,-239.62"/>
<text text-anchor="start" x="1089" y="-227.07" font-family="Helvetica,sans-Serif" font-size="9.00">index.ts</text>
</a>
</g>
</g>
<!-- src/application/services/VideoParserService.ts&#45;&gt;src/domain/index.ts -->
<g id="edge9" class="edge">
<title>src/application/services/VideoParserService.ts&#45;&gt;src/domain/index.ts</title>
<path fill="none" stroke="#000000" stroke-width="2" stroke-opacity="0.200000" d="M667.64,-217.09C677.39,-219.48 688.03,-221.71 698,-223 834.08,-240.6 997.94,-235.47 1068.56,-232.01"/>
<polygon fill="#000000" fill-opacity="0.200000" stroke="#000000" stroke-width="2" stroke-opacity="0.200000" points="1068.59,-234.11 1074.47,-231.71 1068.37,-229.92 1068.59,-234.11"/>
</g>
<!-- src/infrastructure/repository/MetadataRepository.ts -->
<g id="node23" class="node">
<title>src/infrastructure/repository/MetadataRepository.ts</title>
<g id="a_node23"><a xlink:href="src/infrastructure/repository/MetadataRepository.ts" xlink:title="MetadataRepository.ts">
<path fill="#ddfeff" stroke="black" d="M1017.58,-82.62C1017.58,-82.62 922.92,-82.62 922.92,-82.62 919.71,-82.62 916.5,-79.42 916.5,-76.21 916.5,-76.21 916.5,-69.79 916.5,-69.79 916.5,-66.58 919.71,-63.38 922.92,-63.38 922.92,-63.38 1017.58,-63.38 1017.58,-63.38 1020.79,-63.38 1024,-66.58 1024,-69.79 1024,-69.79 1024,-76.21 1024,-76.21 1024,-79.42 1020.79,-82.62 1017.58,-82.62"/>
<text text-anchor="start" x="924.5" y="-70.08" font-family="Helvetica,sans-Serif" font-size="9.00">MetadataRepository.ts</text>
</a>
</g>
</g>
<!-- src/infrastructure/index.ts&#45;&gt;src/infrastructure/repository/MetadataRepository.ts -->
<g id="edge22" class="edge">
<title>src/infrastructure/index.ts&#45;&gt;src/infrastructure/repository/MetadataRepository.ts</title>
<path fill="none" stroke="#000000" stroke-width="2" stroke-opacity="0.200000" d="M900.89,-73C903,-73 905.18,-73 907.4,-73"/>
<polygon fill="#000000" fill-opacity="0.200000" stroke="#000000" stroke-width="2" stroke-opacity="0.200000" points="907.14,-75.1 913.14,-73 907.14,-70.9 907.14,-75.1"/>
</g>
<!-- src/infrastructure/repository/VideoRepository.ts -->
<g id="node24" class="node">
<title>src/infrastructure/repository/VideoRepository.ts</title>
<g id="a_node24"><a xlink:href="src/infrastructure/repository/VideoRepository.ts" xlink:title="VideoRepository.ts">
<path fill="#ddfeff" stroke="black" d="M1010.46,-51.62C1010.46,-51.62 930.04,-51.62 930.04,-51.62 926.83,-51.62 923.62,-48.42 923.62,-45.21 923.62,-45.21 923.62,-38.79 923.62,-38.79 923.62,-35.58 926.83,-32.38 930.04,-32.38 930.04,-32.38 1010.46,-32.38 1010.46,-32.38 1013.67,-32.38 1016.88,-35.58 1016.88,-38.79 1016.88,-38.79 1016.88,-45.21 1016.88,-45.21 1016.88,-48.42 1013.67,-51.62 1010.46,-51.62"/>
<text text-anchor="start" x="931.62" y="-39.08" font-family="Helvetica,sans-Serif" font-size="9.00">VideoRepository.ts</text>
</a>
</g>
</g>
<!-- src/infrastructure/index.ts&#45;&gt;src/infrastructure/repository/VideoRepository.ts -->
<g id="edge23" class="edge">
<title>src/infrastructure/index.ts&#45;&gt;src/infrastructure/repository/VideoRepository.ts</title>
<path fill="none" stroke="#000000" stroke-width="2" stroke-opacity="0.200000" d="M894,-63.02C898.67,-60.85 903.7,-58.7 908.5,-57 910.85,-56.17 913.27,-55.36 915.73,-54.59"/>
<polygon fill="#000000" fill-opacity="0.200000" stroke="#000000" stroke-width="2" stroke-opacity="0.200000" points="916.11,-56.66 921.26,-52.93 914.91,-52.64 916.11,-56.66"/>
</g>
<!-- src/domain/constants/index.ts -->
<g id="node16" class="node">
<title>src/domain/constants/index.ts</title>
<g id="a_node16"><a xlink:href="src/domain/constants/index.ts" xlink:title="index.ts">
<path fill="#ddfeff" stroke="black" d="M1268.96,-180.62C1268.96,-180.62 1227.79,-180.62 1227.79,-180.62 1224.58,-180.62 1221.38,-177.42 1221.38,-174.21 1221.38,-174.21 1221.38,-167.79 1221.38,-167.79 1221.38,-164.58 1224.58,-161.38 1227.79,-161.38 1227.79,-161.38 1268.96,-161.38 1268.96,-161.38 1272.17,-161.38 1275.38,-164.58 1275.38,-167.79 1275.38,-167.79 1275.38,-174.21 1275.38,-174.21 1275.38,-177.42 1272.17,-180.62 1268.96,-180.62"/>
<text text-anchor="start" x="1232.62" y="-168.07" font-family="Helvetica,sans-Serif" font-size="9.00">index.ts</text>
</a>
</g>
</g>
<!-- src/domain/index.ts&#45;&gt;src/domain/constants/index.ts -->
<g id="edge14" class="edge">
<title>src/domain/index.ts&#45;&gt;src/domain/constants/index.ts</title>
<path fill="none" stroke="#000000" stroke-width="2" stroke-opacity="0.200000" d="M1120.39,-220C1135.92,-209.83 1161.47,-194.27 1185.5,-185 1193.98,-181.73 1203.42,-179.11 1212.32,-177.07"/>
<polygon fill="#000000" fill-opacity="0.200000" stroke="#000000" stroke-width="2" stroke-opacity="0.200000" points="1212.6,-179.16 1218.02,-175.85 1211.72,-175.05 1212.6,-179.16"/>
</g>
<!-- src/domain/entities/Metadata.ts -->
<g id="node17" class="node">
<title>src/domain/entities/Metadata.ts</title>
<g id="a_node17"><a xlink:href="src/domain/entities/Metadata.ts" xlink:title="Metadata.ts">
<path fill="#ddfeff" stroke="black" d="M1384.08,-284.62C1384.08,-284.62 1333.67,-284.62 1333.67,-284.62 1330.46,-284.62 1327.25,-281.42 1327.25,-278.21 1327.25,-278.21 1327.25,-271.79 1327.25,-271.79 1327.25,-268.58 1330.46,-265.38 1333.67,-265.38 1333.67,-265.38 1384.08,-265.38 1384.08,-265.38 1387.29,-265.38 1390.5,-268.58 1390.5,-271.79 1390.5,-271.79 1390.5,-278.21 1390.5,-278.21 1390.5,-281.42 1387.29,-284.62 1384.08,-284.62"/>
<text text-anchor="start" x="1335.25" y="-272.07" font-family="Helvetica,sans-Serif" font-size="9.00">Metadata.ts</text>
</a>
</g>
</g>
<!-- src/domain/index.ts&#45;&gt;src/domain/entities/Metadata.ts -->
<g id="edge15" class="edge">
<title>src/domain/index.ts&#45;&gt;src/domain/entities/Metadata.ts</title>
<path fill="none" stroke="#000000" stroke-opacity="0.200000" d="M1111.35,-240.09C1122.53,-259.05 1149.66,-299.48 1185.5,-315 1211.14,-326.1 1285.04,-324.7 1311.25,-315 1324.67,-310.03 1336.83,-299.29 1345.36,-290.18"/>
<polygon fill="none" stroke="#000000" stroke-opacity="0.200000" points="1346.74,-291.79 1349.18,-285.92 1343.61,-288.99 1346.74,-291.79"/>
</g>
<!-- src/domain/entities/Video.ts -->
<g id="node18" class="node">
<title>src/domain/entities/Video.ts</title>
<g id="a_node18"><a xlink:href="src/domain/entities/Video.ts" xlink:title="Video.ts">
<path fill="#ddfeff" stroke="black" d="M1379.46,-253.62C1379.46,-253.62 1338.29,-253.62 1338.29,-253.62 1335.08,-253.62 1331.88,-250.42 1331.88,-247.21 1331.88,-247.21 1331.88,-240.79 1331.88,-240.79 1331.88,-237.58 1335.08,-234.38 1338.29,-234.38 1338.29,-234.38 1379.46,-234.38 1379.46,-234.38 1382.67,-234.38 1385.88,-237.58 1385.88,-240.79 1385.88,-240.79 1385.88,-247.21 1385.88,-247.21 1385.88,-250.42 1382.67,-253.62 1379.46,-253.62"/>
<text text-anchor="start" x="1342.38" y="-241.07" font-family="Helvetica,sans-Serif" font-size="9.00">Video.ts</text>
</a>
</g>
</g>
<!-- src/domain/index.ts&#45;&gt;src/domain/entities/Video.ts -->
<g id="edge16" class="edge">
<title>src/domain/index.ts&#45;&gt;src/domain/entities/Video.ts</title>
<path fill="none" stroke="#000000" stroke-opacity="0.200000" d="M1132.06,-225.06C1171.51,-218.55 1248.08,-209.43 1311.25,-223 1318.8,-224.62 1326.61,-227.57 1333.62,-230.75"/>
<polygon fill="none" stroke="#000000" stroke-opacity="0.200000" points="1332.64,-232.61 1338.96,-233.31 1334.46,-228.82 1332.64,-232.61"/>
</g>
<!-- src/domain/repositories/IMetadataRepository.ts -->
<g id="node19" class="node">
<title>src/domain/repositories/IMetadataRepository.ts</title>
<g id="a_node19"><a xlink:href="src/domain/repositories/IMetadataRepository.ts" xlink:title="IMetadataRepository.ts">
<path fill="#ddfeff" stroke="black" d="M1296.83,-284.62C1296.83,-284.62 1199.92,-284.62 1199.92,-284.62 1196.71,-284.62 1193.5,-281.42 1193.5,-278.21 1193.5,-278.21 1193.5,-271.79 1193.5,-271.79 1193.5,-268.58 1196.71,-265.38 1199.92,-265.38 1199.92,-265.38 1296.83,-265.38 1296.83,-265.38 1300.04,-265.38 1303.25,-268.58 1303.25,-271.79 1303.25,-271.79 1303.25,-278.21 1303.25,-278.21 1303.25,-281.42 1300.04,-284.62 1296.83,-284.62"/>
<text text-anchor="start" x="1201.5" y="-272.07" font-family="Helvetica,sans-Serif" font-size="9.00">IMetadataRepository.ts</text>
</a>
</g>
</g>
<!-- src/domain/index.ts&#45;&gt;src/domain/repositories/IMetadataRepository.ts -->
<g id="edge17" class="edge">
<title>src/domain/index.ts&#45;&gt;src/domain/repositories/IMetadataRepository.ts</title>
<path fill="none" stroke="#000000" stroke-opacity="0.200000" d="M1130.27,-240.11C1145.91,-246.34 1166.7,-254.21 1185.5,-260 1188.82,-261.02 1192.27,-262.02 1195.75,-262.99"/>
<polygon fill="none" stroke="#000000" stroke-opacity="0.200000" points="1195.12,-264.99 1201.46,-264.52 1196.21,-260.94 1195.12,-264.99"/>
</g>
<!-- src/domain/repositories/IVideoRepository.ts -->
<g id="node20" class="node">
<title>src/domain/repositories/IVideoRepository.ts</title>
<g id="a_node20"><a xlink:href="src/domain/repositories/IVideoRepository.ts" xlink:title="IVideoRepository.ts">
<path fill="#ddfeff" stroke="black" d="M1289.71,-253.62C1289.71,-253.62 1207.04,-253.62 1207.04,-253.62 1203.83,-253.62 1200.62,-250.42 1200.62,-247.21 1200.62,-247.21 1200.62,-240.79 1200.62,-240.79 1200.62,-237.58 1203.83,-234.38 1207.04,-234.38 1207.04,-234.38 1289.71,-234.38 1289.71,-234.38 1292.92,-234.38 1296.12,-237.58 1296.12,-240.79 1296.12,-240.79 1296.12,-247.21 1296.12,-247.21 1296.12,-250.42 1292.92,-253.62 1289.71,-253.62"/>
<text text-anchor="start" x="1208.62" y="-241.07" font-family="Helvetica,sans-Serif" font-size="9.00">IVideoRepository.ts</text>
</a>
</g>
</g>
<!-- src/domain/index.ts&#45;&gt;src/domain/repositories/IVideoRepository.ts -->
<g id="edge18" class="edge">
<title>src/domain/index.ts&#45;&gt;src/domain/repositories/IVideoRepository.ts</title>
<path fill="none" stroke="#000000" stroke-opacity="0.200000" d="M1132.06,-232.6C1149.16,-234.29 1172.09,-236.56 1192.99,-238.62"/>
<polygon fill="none" stroke="#000000" stroke-opacity="0.200000" points="1192.6,-240.7 1198.78,-239.2 1193.02,-236.52 1192.6,-240.7"/>
</g>
<!-- src/domain/services/FileVideoParser.ts -->
<g id="node21" class="node">
<title>src/domain/services/FileVideoParser.ts</title>
<g id="a_node21"><a xlink:href="src/domain/services/FileVideoParser.ts" xlink:title="FileVideoParser.ts">
<path fill="#ddfeff" stroke="black" d="M1287.83,-357.62C1287.83,-357.62 1208.92,-357.62 1208.92,-357.62 1205.71,-357.62 1202.5,-354.42 1202.5,-351.21 1202.5,-351.21 1202.5,-344.79 1202.5,-344.79 1202.5,-341.58 1205.71,-338.38 1208.92,-338.38 1208.92,-338.38 1287.83,-338.38 1287.83,-338.38 1291.04,-338.38 1294.25,-341.58 1294.25,-344.79 1294.25,-344.79 1294.25,-351.21 1294.25,-351.21 1294.25,-354.42 1291.04,-357.62 1287.83,-357.62"/>
<text text-anchor="start" x="1210.5" y="-345.07" font-family="Helvetica,sans-Serif" font-size="9.00">FileVideoParser.ts</text>
</a>
</g>
</g>
<!-- src/domain/index.ts&#45;&gt;src/domain/services/FileVideoParser.ts -->
<g id="edge19" class="edge">
<title>src/domain/index.ts&#45;&gt;src/domain/services/FileVideoParser.ts</title>
<path fill="none" stroke="#000000" stroke-width="2" stroke-opacity="0.200000" d="M1110.33,-239.86C1120.6,-260.78 1147.56,-309.71 1185.5,-334 1188.13,-335.68 1190.94,-337.17 1193.85,-338.47"/>
<polygon fill="#000000" fill-opacity="0.200000" stroke="#000000" stroke-width="2" stroke-opacity="0.200000" points="1193.09,-340.43 1199.45,-340.62 1194.6,-336.51 1193.09,-340.43"/>
</g>
<!-- src/components/VideoEmbed.vue -->
<g id="node12" class="node">
<title>src/components/VideoEmbed.vue</title>
<g id="a_node12"><a xlink:href="src/components/VideoEmbed.vue" xlink:title="VideoEmbed.vue">
<path fill="#41f083" stroke="black" d="M477.83,-43.62C477.83,-43.62 404.92,-43.62 404.92,-43.62 401.71,-43.62 398.5,-40.42 398.5,-37.21 398.5,-37.21 398.5,-30.79 398.5,-30.79 398.5,-27.58 401.71,-24.38 404.92,-24.38 404.92,-24.38 477.83,-24.38 477.83,-24.38 481.04,-24.38 484.25,-27.58 484.25,-30.79 484.25,-30.79 484.25,-37.21 484.25,-37.21 484.25,-40.42 481.04,-43.62 477.83,-43.62"/>
<text text-anchor="start" x="406.5" y="-31.07" font-family="Helvetica,sans-Serif" font-size="9.00">VideoEmbed.vue</text>
</a>
</g>
</g>
<!-- src/components/VideoCard.vue&#45;&gt;src/components/VideoEmbed.vue -->
<g id="edge10" class="edge">
<title>src/components/VideoCard.vue&#45;&gt;src/components/VideoEmbed.vue</title>
<path fill="none" stroke="#000000" stroke-width="2" stroke-opacity="0.200000" d="M360.63,-34C369.75,-34 379.67,-34 389.31,-34"/>
<polygon fill="#000000" fill-opacity="0.200000" stroke="#000000" stroke-width="2" stroke-opacity="0.200000" points="389.03,-36.1 395.03,-34 389.03,-31.9 389.03,-36.1"/>
</g>
<!-- src/components/VideoCard.vue&#45;&gt;src/stores/videosStore.ts -->
<g id="edge11" class="edge">
<title>src/components/VideoCard.vue&#45;&gt;src/stores/videosStore.ts</title>
<path fill="none" stroke="#000000" stroke-width="2" stroke-opacity="0.200000" d="M360.65,-35.87C369.28,-38.13 377.58,-42.12 383.25,-49 404.62,-74.93 372.47,-172.13 391.25,-200 393.32,-203.08 395.92,-205.75 398.83,-208.07"/>
<polygon fill="#000000" fill-opacity="0.200000" stroke="#000000" stroke-width="2" stroke-opacity="0.200000" points="397.41,-209.65 403.57,-211.21 399.72,-206.14 397.41,-209.65"/>
</g>
<!-- src/stores/videosStore.ts&#45;&gt;src/application/index.ts -->
<g id="edge29" class="edge">
<title>src/stores/videosStore.ts&#45;&gt;src/application/index.ts</title>
<path fill="none" stroke="#000000" stroke-width="2" stroke-opacity="0.200000" d="M478.95,-219.82C485.62,-219.23 492.57,-218.63 499.2,-218.05"/>
<polygon fill="#000000" fill-opacity="0.200000" stroke="#000000" stroke-width="2" stroke-opacity="0.200000" points="499.18,-220.16 504.97,-217.55 498.81,-215.98 499.18,-220.16"/>
</g>
<!-- src/components/inputs/FileInput.vue&#45;&gt;src/stores/videosStore.ts -->
<g id="edge12" class="edge">
<title>src/components/inputs/FileInput.vue&#45;&gt;src/stores/videosStore.ts</title>
<path fill="none" stroke="#000000" stroke-width="2" stroke-opacity="0.200000" d="M331.2,-142.7C343.09,-156.76 366.76,-182.96 391.25,-200 396.08,-203.36 401.48,-206.45 406.88,-209.2"/>
<polygon fill="#000000" fill-opacity="0.200000" stroke="#000000" stroke-width="2" stroke-opacity="0.200000" points="405.69,-210.96 412.01,-211.67 407.51,-207.18 405.69,-210.96"/>
</g>
<!-- src/domain/repositories/IMetadataRepository.ts&#45;&gt;src/domain/entities/Metadata.ts -->
<g id="edge20" class="edge">
<title>src/domain/repositories/IMetadataRepository.ts&#45;&gt;src/domain/entities/Metadata.ts</title>
<path fill="none" stroke="#000000" stroke-opacity="0.200000" d="M1303.62,-275C1308.96,-275 1314.3,-275 1319.44,-275"/>
<polygon fill="none" stroke="#000000" stroke-opacity="0.200000" points="1319.27,-277.1 1325.27,-275 1319.27,-272.9 1319.27,-277.1"/>
</g>
<!-- src/domain/repositories/IVideoRepository.ts&#45;&gt;src/domain/entities/Video.ts -->
<g id="edge21" class="edge">
<title>src/domain/repositories/IVideoRepository.ts&#45;&gt;src/domain/entities/Video.ts</title>
<path fill="none" stroke="#000000" stroke-opacity="0.200000" d="M1296.33,-244C1305.64,-244 1315.23,-244 1323.99,-244"/>
<polygon fill="none" stroke="#000000" stroke-opacity="0.200000" points="1323.94,-246.1 1329.94,-244 1323.94,-241.9 1323.94,-246.1"/>
</g>
<!-- src/infrastructure/database/DatabaseConnection.ts -->
<g id="node22" class="node">
<title>src/infrastructure/database/DatabaseConnection.ts</title>
<g id="a_node22"><a xlink:href="src/infrastructure/database/DatabaseConnection.ts" xlink:title="DatabaseConnection.ts">
<path fill="#ddfeff" stroke="black" d="M1155.08,-66.62C1155.08,-66.62 1054.42,-66.62 1054.42,-66.62 1051.21,-66.62 1048,-63.42 1048,-60.21 1048,-60.21 1048,-53.79 1048,-53.79 1048,-50.58 1051.21,-47.38 1054.42,-47.38 1054.42,-47.38 1155.08,-47.38 1155.08,-47.38 1158.29,-47.38 1161.5,-50.58 1161.5,-53.79 1161.5,-53.79 1161.5,-60.21 1161.5,-60.21 1161.5,-63.42 1158.29,-66.62 1155.08,-66.62"/>
<text text-anchor="start" x="1056" y="-54.08" font-family="Helvetica,sans-Serif" font-size="9.00">DatabaseConnection.ts</text>
</a>
</g>
</g>
<!-- src/infrastructure/repository/MetadataRepository.ts&#45;&gt;src/domain/index.ts -->
<g id="edge25" class="edge">
<title>src/infrastructure/repository/MetadataRepository.ts&#45;&gt;src/domain/index.ts</title>
<path fill="none" stroke="#000000" stroke-width="2" stroke-opacity="0.200000" d="M979.54,-82.82C1001.66,-109.03 1062.28,-180.87 1089.82,-213.49"/>
<polygon fill="#000000" fill-opacity="0.200000" stroke="#000000" stroke-width="2" stroke-opacity="0.200000" points="1088.04,-214.64 1093.51,-217.87 1091.25,-211.93 1088.04,-214.64"/>
</g>
<!-- src/infrastructure/repository/MetadataRepository.ts&#45;&gt;src/infrastructure/database/DatabaseConnection.ts -->
<g id="edge24" class="edge">
<title>src/infrastructure/repository/MetadataRepository.ts&#45;&gt;src/infrastructure/database/DatabaseConnection.ts</title>
<path fill="none" stroke="#000000" stroke-width="2" stroke-opacity="0.200000" d="M1024.38,-66.58C1029.15,-66.01 1034.01,-65.42 1038.87,-64.83"/>
<polygon fill="#000000" fill-opacity="0.200000" stroke="#000000" stroke-width="2" stroke-opacity="0.200000" points="1038.86,-66.95 1044.57,-64.15 1038.36,-62.78 1038.86,-66.95"/>
</g>
<!-- src/infrastructure/repository/VideoRepository.ts&#45;&gt;src/domain/index.ts -->
<g id="edge27" class="edge">
<title>src/infrastructure/repository/VideoRepository.ts&#45;&gt;src/domain/index.ts</title>
<path fill="none" stroke="#000000" stroke-width="2" stroke-opacity="0.200000" d="M1017.16,-47.23C1022.71,-49.53 1027.87,-52.68 1032,-57 1044.53,-70.1 1034.26,-79.8 1040,-97 1054.42,-140.21 1079.58,-187.59 1093.6,-212.48"/>
<polygon fill="#000000" fill-opacity="0.200000" stroke="#000000" stroke-width="2" stroke-opacity="0.200000" points="1091.6,-213.21 1096.39,-217.39 1095.25,-211.13 1091.6,-213.21"/>
</g>
<!-- src/infrastructure/repository/VideoRepository.ts&#45;&gt;src/infrastructure/database/DatabaseConnection.ts -->
<g id="edge26" class="edge">
<title>src/infrastructure/repository/VideoRepository.ts&#45;&gt;src/infrastructure/database/DatabaseConnection.ts</title>
<path fill="none" stroke="#000000" stroke-width="2" stroke-opacity="0.200000" d="M1017.22,-47.2C1024.31,-48.01 1031.75,-48.85 1039.15,-49.69"/>
<polygon fill="#000000" fill-opacity="0.200000" stroke="#000000" stroke-width="2" stroke-opacity="0.200000" points="1038.61,-51.74 1044.81,-50.33 1039.08,-47.57 1038.61,-51.74"/>
</g>
<!-- src/main.ts -->
<g id="node25" class="node">
<title>src/main.ts</title>
<g id="a_node25"><a xlink:href="src/main.ts" xlink:title="main.ts">
<path fill="#ddfeff" stroke="black" d="M63.58,-201.62C63.58,-201.62 22.42,-201.62 22.42,-201.62 19.21,-201.62 16,-198.42 16,-195.21 16,-195.21 16,-188.79 16,-188.79 16,-185.58 19.21,-182.38 22.42,-182.38 22.42,-182.38 63.58,-182.38 63.58,-182.38 66.79,-182.38 70,-185.58 70,-188.79 70,-188.79 70,-195.21 70,-195.21 70,-198.42 66.79,-201.62 63.58,-201.62"/>
<text text-anchor="start" x="27.62" y="-189.07" font-family="Helvetica,sans-Serif" font-size="9.00">main.ts</text>
</a>
</g>
</g>
<!-- src/main.ts&#45;&gt;src/App.vue -->
<g id="edge28" class="edge">
<title>src/main.ts&#45;&gt;src/App.vue</title>
<path fill="none" stroke="#000000" stroke-width="2" stroke-opacity="0.200000" d="M70.44,-192C71.58,-192 72.74,-192 73.9,-192"/>
<polygon fill="#000000" fill-opacity="0.200000" stroke="#000000" stroke-width="2" stroke-opacity="0.200000" points="73.77,-194.1 79.77,-192 73.77,-189.9 73.77,-194.1"/>
</g>
</g>
</svg>
