<?xml version="1.0" encoding="UTF-8" standalone="no"?>
<!DOCTYPE svg PUBLIC "-//W3C//DTD SVG 1.1//EN"
 "http://www.w3.org/Graphics/SVG/1.1/DTD/svg11.dtd">
<!-- Generated by graphviz version 9.0.0 (20230911.1827)
 -->
<!-- Title: dependency&#45;cruiser output Pages: 1 -->
<svg width="1595pt" height="657pt"
 viewBox="0.00 0.00 1595.00 657.00" xmlns="http://www.w3.org/2000/svg" xmlns:xlink="http://www.w3.org/1999/xlink">
<g id="graph0" class="graph" transform="scale(1 1) rotate(0) translate(4 653)">
<title>dependency&#45;cruiser output</title>
<polygon fill="white" stroke="none" points="-4,4 -4,-653 1591,-653 1591,4 -4,4"/>
<g id="clust1" class="cluster">
<title>cluster_src</title>
<path fill="#ffffff" stroke="black" stroke-width="2" d="M20,-8C20,-8 1567,-8 1567,-8 1573,-8 1579,-14 1579,-20 1579,-20 1579,-629 1579,-629 1579,-635 1573,-641 1567,-641 1567,-641 20,-641 20,-641 14,-641 8,-635 8,-629 8,-629 8,-20 8,-20 8,-14 14,-8 20,-8"/>
<text text-anchor="middle" x="793.5" y="-628.45" font-family="Helvetica,sans-Serif" font-weight="bold" font-size="9.00">src</text>
</g>
<g id="clust2" class="cluster">
<title>cluster_src/application</title>
<path fill="#ffffff" stroke="black" stroke-width="2" d="M512.25,-222C512.25,-222 949.5,-222 949.5,-222 955.5,-222 961.5,-228 961.5,-234 961.5,-234 961.5,-362 961.5,-362 961.5,-368 955.5,-374 949.5,-374 949.5,-374 512.25,-374 512.25,-374 506.25,-374 500.25,-368 500.25,-362 500.25,-362 500.25,-234 500.25,-234 500.25,-228 506.25,-222 512.25,-222"/>
<text text-anchor="middle" x="730.88" y="-361.45" font-family="Helvetica,sans-Serif" font-weight="bold" font-size="9.00">application</text>
</g>
<g id="clust3" class="cluster">
<title>cluster_src/application/services</title>
<path fill="#ffffff" stroke="black" stroke-width="2" d="M582.25,-230C582.25,-230 941.5,-230 941.5,-230 947.5,-230 953.5,-236 953.5,-242 953.5,-242 953.5,-335 953.5,-335 953.5,-341 947.5,-347 941.5,-347 941.5,-347 582.25,-347 582.25,-347 576.25,-347 570.25,-341 570.25,-335 570.25,-335 570.25,-242 570.25,-242 570.25,-236 576.25,-230 582.25,-230"/>
<text text-anchor="middle" x="761.88" y="-334.45" font-family="Helvetica,sans-Serif" font-weight="bold" font-size="9.00">services</text>
</g>
<g id="clust4" class="cluster">
<title>cluster_src/components</title>
<path fill="#ffffff" stroke="black" stroke-width="2" d="M265.25,-318C265.25,-318 480.25,-318 480.25,-318 486.25,-318 492.25,-324 492.25,-330 492.25,-330 492.25,-487 492.25,-487 492.25,-493 486.25,-499 480.25,-499 480.25,-499 265.25,-499 265.25,-499 259.25,-499 253.25,-493 253.25,-487 253.25,-487 253.25,-330 253.25,-330 253.25,-324 259.25,-318 265.25,-318"/>
<text text-anchor="middle" x="372.75" y="-486.45" font-family="Helvetica,sans-Serif" font-weight="bold" font-size="9.00">components</text>
</g>
<g id="clust6" class="cluster">
<title>cluster_src/components/utils</title>
<path fill="#ffffff" stroke="black" stroke-width="2" d="M273.25,-389C273.25,-389 371.25,-389 371.25,-389 377.25,-389 383.25,-395 383.25,-401 383.25,-401 383.25,-432 383.25,-432 383.25,-438 377.25,-444 371.25,-444 371.25,-444 273.25,-444 273.25,-444 267.25,-444 261.25,-438 261.25,-432 261.25,-432 261.25,-401 261.25,-401 261.25,-395 267.25,-389 273.25,-389"/>
<text text-anchor="middle" x="322.25" y="-431.45" font-family="Helvetica,sans-Serif" font-weight="bold" font-size="9.00">utils</text>
</g>
<g id="clust5" class="cluster">
<title>cluster_src/components/inputs</title>
<path fill="#ffffff" stroke="black" stroke-width="2" d="M292.38,-326C292.38,-326 352.12,-326 352.12,-326 358.12,-326 364.12,-332 364.12,-338 364.12,-338 364.12,-369 364.12,-369 364.12,-375 358.12,-381 352.12,-381 352.12,-381 292.38,-381 292.38,-381 286.38,-381 280.38,-375 280.38,-369 280.38,-369 280.38,-338 280.38,-338 280.38,-332 286.38,-326 292.38,-326"/>
<text text-anchor="middle" x="322.25" y="-368.45" font-family="Helvetica,sans-Serif" font-weight="bold" font-size="9.00">inputs</text>
</g>
<g id="clust7" class="cluster">
<title>cluster_src/domain</title>
<path fill="#ffffff" stroke="black" stroke-width="2" d="M1142.75,-222C1142.75,-222 1559,-222 1559,-222 1565,-222 1571,-228 1571,-234 1571,-234 1571,-602 1571,-602 1571,-608 1565,-614 1559,-614 1559,-614 1142.75,-614 1142.75,-614 1136.75,-614 1130.75,-608 1130.75,-602 1130.75,-602 1130.75,-234 1130.75,-234 1130.75,-228 1136.75,-222 1142.75,-222"/>
<text text-anchor="middle" x="1350.88" y="-601.45" font-family="Helvetica,sans-Serif" font-weight="bold" font-size="9.00">domain</text>
</g>
<g id="clust8" class="cluster">
<title>cluster_src/domain/constants</title>
<path fill="#ffffff" stroke="black" stroke-width="2" d="M1278.38,-438C1278.38,-438 1324.38,-438 1324.38,-438 1330.38,-438 1336.38,-444 1336.38,-450 1336.38,-450 1336.38,-481 1336.38,-481 1336.38,-487 1330.38,-493 1324.38,-493 1324.38,-493 1278.38,-493 1278.38,-493 1272.38,-493 1266.38,-487 1266.38,-481 1266.38,-481 1266.38,-450 1266.38,-450 1266.38,-444 1272.38,-438 1278.38,-438"/>
<text text-anchor="middle" x="1301.38" y="-480.45" font-family="Helvetica,sans-Serif" font-weight="bold" font-size="9.00">constants</text>
</g>
<g id="clust10" class="cluster">
<title>cluster_src/domain/repositories</title>
<path fill="#ffffff" stroke="black" stroke-width="2" d="M1250.5,-334C1250.5,-334 1352.25,-334 1352.25,-334 1358.25,-334 1364.25,-340 1364.25,-346 1364.25,-346 1364.25,-408 1364.25,-408 1364.25,-414 1358.25,-420 1352.25,-420 1352.25,-420 1250.5,-420 1250.5,-420 1244.5,-420 1238.5,-414 1238.5,-408 1238.5,-408 1238.5,-346 1238.5,-346 1238.5,-340 1244.5,-334 1250.5,-334"/>
<text text-anchor="middle" x="1301.38" y="-407.45" font-family="Helvetica,sans-Serif" font-weight="bold" font-size="9.00">repositories</text>
</g>
<g id="clust9" class="cluster">
<title>cluster_src/domain/entities</title>
<path fill="#ffffff" stroke="black" stroke-width="2" d="M1262.12,-501C1262.12,-501 1551,-501 1551,-501 1557,-501 1563,-507 1563,-513 1563,-513 1563,-575 1563,-575 1563,-581 1557,-587 1551,-587 1551,-587 1262.12,-587 1262.12,-587 1256.12,-587 1250.12,-581 1250.12,-575 1250.12,-575 1250.12,-513 1250.12,-513 1250.12,-507 1256.12,-501 1262.12,-501"/>
<text text-anchor="middle" x="1406.56" y="-574.45" font-family="Helvetica,sans-Serif" font-weight="bold" font-size="9.00">entities</text>
</g>
<g id="clust11" class="cluster">
<title>cluster_src/domain/valueObjects</title>
<path fill="#ffffff" stroke="black" stroke-width="2" d="M1256.12,-230C1256.12,-230 1346.62,-230 1346.62,-230 1352.62,-230 1358.62,-236 1358.62,-242 1358.62,-242 1358.62,-304 1358.62,-304 1358.62,-310 1352.62,-316 1346.62,-316 1346.62,-316 1256.12,-316 1256.12,-316 1250.12,-316 1244.12,-310 1244.12,-304 1244.12,-304 1244.12,-242 1244.12,-242 1244.12,-236 1250.12,-230 1256.12,-230"/>
<text text-anchor="middle" x="1301.38" y="-303.45" font-family="Helvetica,sans-Serif" font-weight="bold" font-size="9.00">valueObjects</text>
</g>
<g id="clust12" class="cluster">
<title>cluster_src/infrastructure</title>
<path fill="#ffffff" stroke="black" stroke-width="2" d="M859.38,-16C859.38,-16 1363.25,-16 1363.25,-16 1369.25,-16 1375.25,-22 1375.25,-28 1375.25,-28 1375.25,-202 1375.25,-202 1375.25,-208 1369.25,-214 1363.25,-214 1363.25,-214 859.38,-214 859.38,-214 853.38,-214 847.38,-208 847.38,-202 847.38,-202 847.38,-28 847.38,-28 847.38,-22 853.38,-16 859.38,-16"/>
<text text-anchor="middle" x="1111.31" y="-201.45" font-family="Helvetica,sans-Serif" font-weight="bold" font-size="9.00">infrastructure</text>
</g>
<g id="clust14" class="cluster">
<title>cluster_src/infrastructure/repository</title>
<path fill="#ffffff" stroke="black" stroke-width="2" d="M981.5,-24C981.5,-24 1081,-24 1081,-24 1087,-24 1093,-30 1093,-36 1093,-36 1093,-98 1093,-98 1093,-104 1087,-110 1081,-110 1081,-110 981.5,-110 981.5,-110 975.5,-110 969.5,-104 969.5,-98 969.5,-98 969.5,-36 969.5,-36 969.5,-30 975.5,-24 981.5,-24"/>
<text text-anchor="middle" x="1031.25" y="-97.45" font-family="Helvetica,sans-Serif" font-weight="bold" font-size="9.00">repository</text>
</g>
<g id="clust13" class="cluster">
<title>cluster_src/infrastructure/database</title>
<path fill="#ffffff" stroke="black" stroke-width="2" d="M1113,-39C1113,-39 1218.5,-39 1218.5,-39 1224.5,-39 1230.5,-45 1230.5,-51 1230.5,-51 1230.5,-82 1230.5,-82 1230.5,-88 1224.5,-94 1218.5,-94 1218.5,-94 1113,-94 1113,-94 1107,-94 1101,-88 1101,-82 1101,-82 1101,-51 1101,-51 1101,-45 1107,-39 1113,-39"/>
<text text-anchor="middle" x="1165.75" y="-81.45" font-family="Helvetica,sans-Serif" font-weight="bold" font-size="9.00">database</text>
</g>
<g id="clust15" class="cluster">
<title>cluster_src/infrastructure/video</title>
<path fill="#ffffff" stroke="black" stroke-width="2" d="M1008.25,-118C1008.25,-118 1355.25,-118 1355.25,-118 1361.25,-118 1367.25,-124 1367.25,-130 1367.25,-130 1367.25,-175 1367.25,-175 1367.25,-181 1361.25,-187 1355.25,-187 1355.25,-187 1008.25,-187 1008.25,-187 1002.25,-187 996.25,-181 996.25,-175 996.25,-175 996.25,-130 996.25,-130 996.25,-124 1002.25,-118 1008.25,-118"/>
<text text-anchor="middle" x="1181.75" y="-174.45" font-family="Helvetica,sans-Serif" font-weight="bold" font-size="9.00">video</text>
</g>
<g id="clust17" class="cluster">
<title>cluster_src/views</title>
<path fill="#ffffff" stroke="black" stroke-width="2" d="M157,-255C157,-255 233.25,-255 233.25,-255 239.25,-255 245.25,-261 245.25,-267 245.25,-267 245.25,-329 245.25,-329 245.25,-335 239.25,-341 233.25,-341 233.25,-341 157,-341 157,-341 151,-341 145,-335 145,-329 145,-329 145,-267 145,-267 145,-261 151,-255 157,-255"/>
<text text-anchor="middle" x="195.12" y="-328.45" font-family="Helvetica,sans-Serif" font-weight="bold" font-size="9.00">views</text>
</g>
<g id="clust16" class="cluster">
<title>cluster_src/stores</title>
<path fill="#ffffff" stroke="black" stroke-width="2" d="M403.25,-224C403.25,-224 479.5,-224 479.5,-224 485.5,-224 491.5,-230 491.5,-236 491.5,-236 491.5,-298 491.5,-298 491.5,-304 485.5,-310 479.5,-310 479.5,-310 403.25,-310 403.25,-310 397.25,-310 391.25,-304 391.25,-298 391.25,-298 391.25,-236 391.25,-236 391.25,-230 397.25,-224 403.25,-224"/>
<text text-anchor="middle" x="441.38" y="-297.45" font-family="Helvetica,sans-Serif" font-weight="bold" font-size="9.00">stores</text>
</g>
<!-- src/App.vue -->
<g id="node1" class="node">
<title>src/App.vue</title>
<g id="a_node1"><a xlink:href="src/App.vue" xlink:title="App.vue">
<path fill="#41f083" stroke="black" d="M130.58,-313.62C130.58,-313.62 89.42,-313.62 89.42,-313.62 86.21,-313.62 83,-310.42 83,-307.21 83,-307.21 83,-300.79 83,-300.79 83,-297.58 86.21,-294.38 89.42,-294.38 89.42,-294.38 130.58,-294.38 130.58,-294.38 133.79,-294.38 137,-297.58 137,-300.79 137,-300.79 137,-307.21 137,-307.21 137,-310.42 133.79,-313.62 130.58,-313.62"/>
<text text-anchor="start" x="93.88" y="-301.07" font-family="Helvetica,sans-Serif" font-size="9.00">App.vue</text>
</a>
</g>
</g>
<!-- src/components/utils/DiagnosticsPanel.vue -->
<g id="node2" class="node">
<title>src/components/utils/DiagnosticsPanel.vue</title>
<g id="a_node2"><a xlink:href="src/components/utils/DiagnosticsPanel.vue" xlink:title="DiagnosticsPanel.vue">
<path fill="#41f083" stroke="black" d="M368.83,-416.62C368.83,-416.62 275.67,-416.62 275.67,-416.62 272.46,-416.62 269.25,-413.42 269.25,-410.21 269.25,-410.21 269.25,-403.79 269.25,-403.79 269.25,-400.58 272.46,-397.38 275.67,-397.38 275.67,-397.38 368.83,-397.38 368.83,-397.38 372.04,-397.38 375.25,-400.58 375.25,-403.79 375.25,-403.79 375.25,-410.21 375.25,-410.21 375.25,-413.42 372.04,-416.62 368.83,-416.62"/>
<text text-anchor="start" x="277.25" y="-404.07" font-family="Helvetica,sans-Serif" font-size="9.00">DiagnosticsPanel.vue</text>
</a>
</g>
</g>
<!-- src/App.vue&#45;&gt;src/components/utils/DiagnosticsPanel.vue -->
<g id="edge1" class="edge">
<title>src/App.vue&#45;&gt;src/components/utils/DiagnosticsPanel.vue</title>
<path fill="none" stroke="#000000" stroke-width="2" stroke-opacity="0.200000" d="M117.18,-313.81C123.27,-322.78 133.35,-335.85 145,-344 180.75,-368.99 227.47,-385.1 263.83,-394.76"/>
<polygon fill="#000000" fill-opacity="0.200000" stroke="#000000" stroke-width="2" stroke-opacity="0.200000" points="263.09,-396.74 269.43,-396.21 264.14,-392.68 263.09,-396.74"/>
</g>
<!-- src/views/NavBar.vue -->
<g id="node3" class="node">
<title>src/views/NavBar.vue</title>
<g id="a_node3"><a xlink:href="src/views/NavBar.vue" xlink:title="NavBar.vue">
<path fill="#41f083" stroke="black" d="M219.96,-282.62C219.96,-282.62 170.29,-282.62 170.29,-282.62 167.08,-282.62 163.88,-279.42 163.88,-276.21 163.88,-276.21 163.88,-269.79 163.88,-269.79 163.88,-266.58 167.08,-263.38 170.29,-263.38 170.29,-263.38 219.96,-263.38 219.96,-263.38 223.17,-263.38 226.38,-266.58 226.38,-269.79 226.38,-269.79 226.38,-276.21 226.38,-276.21 226.38,-279.42 223.17,-282.62 219.96,-282.62"/>
<text text-anchor="start" x="171.88" y="-270.07" font-family="Helvetica,sans-Serif" font-size="9.00">NavBar.vue</text>
</a>
</g>
</g>
<!-- src/App.vue&#45;&gt;src/views/NavBar.vue -->
<g id="edge2" class="edge">
<title>src/App.vue&#45;&gt;src/views/NavBar.vue</title>
<path fill="none" stroke="#000000" stroke-width="2" stroke-opacity="0.200000" d="M130.93,-294.04C135.5,-291.92 140.37,-289.78 145,-288 148.23,-286.75 151.61,-285.54 155.02,-284.38"/>
<polygon fill="#000000" fill-opacity="0.200000" stroke="#000000" stroke-width="2" stroke-opacity="0.200000" points="155.57,-286.41 160.62,-282.55 154.26,-282.42 155.57,-286.41"/>
</g>
<!-- src/views/VideoGallery.vue -->
<g id="node4" class="node">
<title>src/views/VideoGallery.vue</title>
<g id="a_node4"><a xlink:href="src/views/VideoGallery.vue" xlink:title="VideoGallery.vue">
<path fill="#41f083" stroke="black" d="M230.83,-313.62C230.83,-313.62 159.42,-313.62 159.42,-313.62 156.21,-313.62 153,-310.42 153,-307.21 153,-307.21 153,-300.79 153,-300.79 153,-297.58 156.21,-294.38 159.42,-294.38 159.42,-294.38 230.83,-294.38 230.83,-294.38 234.04,-294.38 237.25,-297.58 237.25,-300.79 237.25,-300.79 237.25,-307.21 237.25,-307.21 237.25,-310.42 234.04,-313.62 230.83,-313.62"/>
<text text-anchor="start" x="161" y="-301.07" font-family="Helvetica,sans-Serif" font-size="9.00">VideoGallery.vue</text>
</a>
</g>
</g>
<!-- src/App.vue&#45;&gt;src/views/VideoGallery.vue -->
<g id="edge3" class="edge">
<title>src/App.vue&#45;&gt;src/views/VideoGallery.vue</title>
<path fill="none" stroke="#000000" stroke-width="2" stroke-opacity="0.200000" d="M137.3,-304C139.42,-304 141.61,-304 143.83,-304"/>
<polygon fill="#000000" fill-opacity="0.200000" stroke="#000000" stroke-width="2" stroke-opacity="0.200000" points="143.47,-306.1 149.47,-304 143.47,-301.9 143.47,-306.1"/>
</g>
<!-- src/application/index.ts -->
<g id="node5" class="node">
<title>src/application/index.ts</title>
<g id="a_node5"><a xlink:href="src/application/index.ts" xlink:title="index.ts">
<path fill="#ddfeff" stroke="black" d="M555.83,-288.62C555.83,-288.62 514.67,-288.62 514.67,-288.62 511.46,-288.62 508.25,-285.42 508.25,-282.21 508.25,-282.21 508.25,-275.79 508.25,-275.79 508.25,-272.58 511.46,-269.38 514.67,-269.38 514.67,-269.38 555.83,-269.38 555.83,-269.38 559.04,-269.38 562.25,-272.58 562.25,-275.79 562.25,-275.79 562.25,-282.21 562.25,-282.21 562.25,-285.42 559.04,-288.62 555.83,-288.62"/>
<text text-anchor="start" x="519.5" y="-276.07" font-family="Helvetica,sans-Serif" font-size="9.00">index.ts</text>
</a>
</g>
</g>
<!-- src/components/utils/DiagnosticsPanel.vue&#45;&gt;src/application/index.ts -->
<g id="edge21" class="edge">
<title>src/components/utils/DiagnosticsPanel.vue&#45;&gt;src/application/index.ts</title>
<path fill="none" stroke="#000000" stroke-width="2" stroke-opacity="0.200000" d="M361.73,-396.94C369.44,-393.69 377.06,-389.46 383.25,-384 388.91,-379 385.95,-374.39 391.25,-369 427.25,-332.41 449.7,-341.7 492.25,-313 500.42,-307.49 508.95,-300.78 516.17,-294.78"/>
<polygon fill="#000000" fill-opacity="0.200000" stroke="#000000" stroke-width="2" stroke-opacity="0.200000" points="517.37,-296.53 520.59,-291.05 514.65,-293.32 517.37,-296.53"/>
</g>
<!-- src/stores/appStateStore.ts -->
<g id="node17" class="node">
<title>src/stores/appStateStore.ts</title>
<g id="a_node17"><a xlink:href="src/stores/appStateStore.ts" xlink:title="appStateStore.ts">
<path fill="#ddfeff" stroke="black" d="M477.08,-251.62C477.08,-251.62 405.67,-251.62 405.67,-251.62 402.46,-251.62 399.25,-248.42 399.25,-245.21 399.25,-245.21 399.25,-238.79 399.25,-238.79 399.25,-235.58 402.46,-232.38 405.67,-232.38 405.67,-232.38 477.08,-232.38 477.08,-232.38 480.29,-232.38 483.5,-235.58 483.5,-238.79 483.5,-238.79 483.5,-245.21 483.5,-245.21 483.5,-248.42 480.29,-251.62 477.08,-251.62"/>
<text text-anchor="start" x="407.25" y="-239.07" font-family="Helvetica,sans-Serif" font-size="9.00">appStateStore.ts</text>
</a>
</g>
</g>
<!-- src/components/utils/DiagnosticsPanel.vue&#45;&gt;src/stores/appStateStore.ts -->
<g id="edge22" class="edge">
<title>src/components/utils/DiagnosticsPanel.vue&#45;&gt;src/stores/appStateStore.ts</title>
<path fill="none" stroke="#000000" stroke-width="2" stroke-opacity="0.200000" d="M367.34,-397C373.52,-393.8 379.15,-389.57 383.25,-384 400,-361.21 373.72,-279.19 391.25,-257 391.66,-256.48 392.1,-255.97 392.55,-255.48"/>
<polygon fill="#000000" fill-opacity="0.200000" stroke="#000000" stroke-width="2" stroke-opacity="0.200000" points="393.54,-257.38 396.85,-251.96 390.88,-254.13 393.54,-257.38"/>
</g>
<!-- src/stores/videosStore.ts -->
<g id="node15" class="node">
<title>src/stores/videosStore.ts</title>
<g id="a_node15"><a xlink:href="src/stores/videosStore.ts" xlink:title="videosStore.ts">
<path fill="#ddfeff" stroke="black" d="M472.21,-282.62C472.21,-282.62 410.54,-282.62 410.54,-282.62 407.33,-282.62 404.12,-279.42 404.12,-276.21 404.12,-276.21 404.12,-269.79 404.12,-269.79 404.12,-266.58 407.33,-263.38 410.54,-263.38 410.54,-263.38 472.21,-263.38 472.21,-263.38 475.42,-263.38 478.62,-266.58 478.62,-269.79 478.62,-269.79 478.62,-276.21 478.62,-276.21 478.62,-279.42 475.42,-282.62 472.21,-282.62"/>
<text text-anchor="start" x="412.12" y="-270.07" font-family="Helvetica,sans-Serif" font-size="9.00">videosStore.ts</text>
</a>
</g>
</g>
<!-- src/views/NavBar.vue&#45;&gt;src/stores/videosStore.ts -->
<g id="edge54" class="edge">
<title>src/views/NavBar.vue&#45;&gt;src/stores/videosStore.ts</title>
<path fill="none" stroke="#000000" stroke-width="2" stroke-opacity="0.200000" d="M226.57,-273C268.94,-273 346.03,-273 395.14,-273"/>
<polygon fill="#000000" fill-opacity="0.200000" stroke="#000000" stroke-width="2" stroke-opacity="0.200000" points="394.95,-275.1 400.95,-273 394.95,-270.9 394.95,-275.1"/>
</g>
<!-- src/components/inputs/FileInput.vue -->
<g id="node16" class="node">
<title>src/components/inputs/FileInput.vue</title>
<g id="a_node16"><a xlink:href="src/components/inputs/FileInput.vue" xlink:title="FileInput.vue">
<path fill="#41f083" stroke="black" d="M349.71,-353.62C349.71,-353.62 294.79,-353.62 294.79,-353.62 291.58,-353.62 288.38,-350.42 288.38,-347.21 288.38,-347.21 288.38,-340.79 288.38,-340.79 288.38,-337.58 291.58,-334.38 294.79,-334.38 294.79,-334.38 349.71,-334.38 349.71,-334.38 352.92,-334.38 356.12,-337.58 356.12,-340.79 356.12,-340.79 356.12,-347.21 356.12,-347.21 356.12,-350.42 352.92,-353.62 349.71,-353.62"/>
<text text-anchor="start" x="296.38" y="-341.07" font-family="Helvetica,sans-Serif" font-size="9.00">FileInput.vue</text>
</a>
</g>
</g>
<!-- src/views/NavBar.vue&#45;&gt;src/components/inputs/FileInput.vue -->
<g id="edge52" class="edge">
<title>src/views/NavBar.vue&#45;&gt;src/components/inputs/FileInput.vue</title>
<path fill="none" stroke="#000000" stroke-width="2" stroke-opacity="0.200000" d="M226.63,-280.56C232.94,-282.6 239.43,-285.08 245.25,-288 266.9,-298.88 288.88,-315.86 303.6,-328.28"/>
<polygon fill="#000000" fill-opacity="0.200000" stroke="#000000" stroke-width="2" stroke-opacity="0.200000" points="301.99,-329.67 307.91,-331.98 304.73,-326.48 301.99,-329.67"/>
</g>
<!-- src/views/NavBar.vue&#45;&gt;src/stores/appStateStore.ts -->
<g id="edge53" class="edge">
<title>src/views/NavBar.vue&#45;&gt;src/stores/appStateStore.ts</title>
<path fill="none" stroke="#000000" stroke-width="2" stroke-opacity="0.200000" d="M221.63,-262.96C231.37,-259.54 242.68,-256.06 253.25,-254 299.1,-245.06 352.34,-242.37 390.29,-241.74"/>
<polygon fill="#000000" fill-opacity="0.200000" stroke="#000000" stroke-width="2" stroke-opacity="0.200000" points="390.11,-243.84 396.08,-241.66 390.05,-239.64 390.11,-243.84"/>
</g>
<!-- src/components/VideoCard.vue -->
<g id="node13" class="node">
<title>src/components/VideoCard.vue</title>
<g id="a_node13"><a xlink:href="src/components/VideoCard.vue" xlink:title="VideoCard.vue">
<path fill="#41f083" stroke="black" d="M353.83,-471.62C353.83,-471.62 290.67,-471.62 290.67,-471.62 287.46,-471.62 284.25,-468.42 284.25,-465.21 284.25,-465.21 284.25,-458.79 284.25,-458.79 284.25,-455.58 287.46,-452.38 290.67,-452.38 290.67,-452.38 353.83,-452.38 353.83,-452.38 357.04,-452.38 360.25,-455.58 360.25,-458.79 360.25,-458.79 360.25,-465.21 360.25,-465.21 360.25,-468.42 357.04,-471.62 353.83,-471.62"/>
<text text-anchor="start" x="292.25" y="-459.07" font-family="Helvetica,sans-Serif" font-size="9.00">VideoCard.vue</text>
</a>
</g>
</g>
<!-- src/views/VideoGallery.vue&#45;&gt;src/components/VideoCard.vue -->
<g id="edge55" class="edge">
<title>src/views/VideoGallery.vue&#45;&gt;src/components/VideoCard.vue</title>
<path fill="none" stroke="#000000" stroke-width="2" stroke-opacity="0.200000" d="M196.97,-313.77C199.75,-339.79 211.06,-411.18 253.25,-447 259.54,-452.34 267.32,-455.9 275.34,-458.25"/>
<polygon fill="#000000" fill-opacity="0.200000" stroke="#000000" stroke-width="2" stroke-opacity="0.200000" points="274.81,-460.28 281.13,-459.64 275.79,-456.2 274.81,-460.28"/>
</g>
<!-- src/views/VideoGallery.vue&#45;&gt;src/stores/videosStore.ts -->
<g id="edge57" class="edge">
<title>src/views/VideoGallery.vue&#45;&gt;src/stores/videosStore.ts</title>
<path fill="none" stroke="#000000" stroke-width="2" stroke-opacity="0.200000" d="M237.56,-298.74C281.32,-293.19 350.12,-284.46 395.24,-278.73"/>
<polygon fill="#000000" fill-opacity="0.200000" stroke="#000000" stroke-width="2" stroke-opacity="0.200000" points="395.24,-280.85 400.93,-278.01 394.71,-276.68 395.24,-280.85"/>
</g>
<!-- src/views/VideoGallery.vue&#45;&gt;src/stores/appStateStore.ts -->
<g id="edge56" class="edge">
<title>src/views/VideoGallery.vue&#45;&gt;src/stores/appStateStore.ts</title>
<path fill="none" stroke="#000000" stroke-width="2" stroke-opacity="0.200000" d="M236.9,-294.05C239.85,-292.59 242.67,-290.92 245.25,-289 250.39,-285.17 247.9,-280.53 253.25,-277 259,-273.2 336.62,-259.51 390.07,-250.42"/>
<polygon fill="#000000" fill-opacity="0.200000" stroke="#000000" stroke-width="2" stroke-opacity="0.200000" points="390.2,-252.52 395.77,-249.45 389.5,-248.38 390.2,-252.52"/>
</g>
<!-- src/application/services/FileParserService.ts -->
<g id="node6" class="node">
<title>src/application/services/FileParserService.ts</title>
<g id="a_node6"><a xlink:href="src/application/services/FileParserService.ts" xlink:title="FileParserService.ts">
<path fill="#ddfeff" stroke="black" d="M670.33,-319.62C670.33,-319.62 584.67,-319.62 584.67,-319.62 581.46,-319.62 578.25,-316.42 578.25,-313.21 578.25,-313.21 578.25,-306.79 578.25,-306.79 578.25,-303.58 581.46,-300.38 584.67,-300.38 584.67,-300.38 670.33,-300.38 670.33,-300.38 673.54,-300.38 676.75,-303.58 676.75,-306.79 676.75,-306.79 676.75,-313.21 676.75,-313.21 676.75,-316.42 673.54,-319.62 670.33,-319.62"/>
<text text-anchor="start" x="586.25" y="-307.07" font-family="Helvetica,sans-Serif" font-size="9.00">FileParserService.ts</text>
</a>
</g>
</g>
<!-- src/application/index.ts&#45;&gt;src/application/services/FileParserService.ts -->
<g id="edge4" class="edge">
<title>src/application/index.ts&#45;&gt;src/application/services/FileParserService.ts</title>
<path fill="none" stroke="#000000" stroke-width="2" stroke-opacity="0.200000" d="M556.13,-289.08C560.7,-291.2 565.59,-293.3 585.37,-299.95"/>
<polygon fill="#000000" fill-opacity="0.200000" stroke="#000000" stroke-width="2" stroke-opacity="0.200000" points="588.18,-298.56 592.08,-306.66 583.98,-302.76 588.18,-298.56"/>
</g>
<!-- src/application/services/FiltersService.ts -->
<g id="node7" class="node">
<title>src/application/services/FiltersService.ts</title>
<g id="a_node7"><a xlink:href="src/application/services/FiltersService.ts" xlink:title="FiltersService.ts">
<path fill="#ddfeff" stroke="black" d="M661.71,-288.62C661.71,-288.62 593.29,-288.62 593.29,-288.62 590.08,-288.62 586.88,-285.42 586.88,-282.21 586.88,-282.21 586.88,-275.79 586.88,-275.79 586.88,-272.58 590.08,-269.38 593.29,-269.38 593.29,-269.38 661.71,-269.38 661.71,-269.38 664.92,-269.38 668.12,-272.58 668.12,-275.79 668.12,-275.79 668.12,-282.21 668.12,-282.21 668.12,-285.42 664.92,-288.62 661.71,-288.62"/>
<text text-anchor="start" x="594.88" y="-276.07" font-family="Helvetica,sans-Serif" font-size="9.00">FiltersService.ts</text>
</a>
</g>
</g>
<!-- src/application/index.ts&#45;&gt;src/application/services/FiltersService.ts -->
<g id="edge5" class="edge">
<title>src/application/index.ts&#45;&gt;src/application/services/FiltersService.ts</title>
<path fill="none" stroke="#000000" stroke-width="2" stroke-opacity="0.200000" d="M562.35,-279C567.22,-279 572.45,-279 577.75,-279"/>
<polygon fill="#000000" fill-opacity="0.200000" stroke="#000000" stroke-width="2" stroke-opacity="0.200000" points="577.65,-281.1 583.65,-279 577.65,-276.9 577.65,-281.1"/>
</g>
<!-- src/application/services/Hotkeys.ts -->
<g id="node8" class="node">
<title>src/application/services/Hotkeys.ts</title>
<g id="a_node8"><a xlink:href="src/application/services/Hotkeys.ts" xlink:title="Hotkeys.ts">
<path fill="#ddfeff" stroke="black" d="M650.46,-257.62C650.46,-257.62 604.54,-257.62 604.54,-257.62 601.33,-257.62 598.12,-254.42 598.12,-251.21 598.12,-251.21 598.12,-244.79 598.12,-244.79 598.12,-241.58 601.33,-238.38 604.54,-238.38 604.54,-238.38 650.46,-238.38 650.46,-238.38 653.67,-238.38 656.88,-241.58 656.88,-244.79 656.88,-244.79 656.88,-251.21 656.88,-251.21 656.88,-254.42 653.67,-257.62 650.46,-257.62"/>
<text text-anchor="start" x="606.12" y="-245.07" font-family="Helvetica,sans-Serif" font-size="9.00">Hotkeys.ts</text>
</a>
</g>
</g>
<!-- src/application/index.ts&#45;&gt;src/application/services/Hotkeys.ts -->
<g id="edge6" class="edge">
<title>src/application/index.ts&#45;&gt;src/application/services/Hotkeys.ts</title>
<path fill="none" stroke="#000000" stroke-width="2" stroke-opacity="0.200000" d="M556.13,-268.92C560.7,-266.8 565.59,-264.7 597.86,-254.58"/>
<polygon fill="#000000" fill-opacity="0.200000" stroke="#000000" stroke-width="2" stroke-opacity="0.200000" points="600.67,-253.18 604.57,-261.28 596.47,-257.38 600.67,-253.18"/>
</g>
<!-- src/application/services/VideoMetadataService.ts -->
<g id="node9" class="node">
<title>src/application/services/VideoMetadataService.ts</title>
<g id="a_node9"><a xlink:href="src/application/services/VideoMetadataService.ts" xlink:title="VideoMetadataService.ts">
<path fill="#ddfeff" stroke="black" d="M799.83,-319.62C799.83,-319.62 696.17,-319.62 696.17,-319.62 692.96,-319.62 689.75,-316.42 689.75,-313.21 689.75,-313.21 689.75,-306.79 689.75,-306.79 689.75,-303.58 692.96,-300.38 696.17,-300.38 696.17,-300.38 799.83,-300.38 799.83,-300.38 803.04,-300.38 806.25,-303.58 806.25,-306.79 806.25,-306.79 806.25,-313.21 806.25,-313.21 806.25,-316.42 803.04,-319.62 799.83,-319.62"/>
<text text-anchor="start" x="697.75" y="-307.07" font-family="Helvetica,sans-Serif" font-size="9.00">VideoMetadataService.ts</text>
</a>
</g>
</g>
<!-- src/application/index.ts&#45;&gt;src/application/services/VideoMetadataService.ts -->
<g id="edge7" class="edge">
<title>src/application/index.ts&#45;&gt;src/application/services/VideoMetadataService.ts</title>
<path fill="none" stroke="#000000" stroke-width="2" stroke-opacity="0.200000" d="M540.2,-289.11C545.25,-300.47 555.18,-318.3 570.25,-326 615.97,-349.36 677.06,-335.53 714.14,-323.03"/>
<polygon fill="#000000" fill-opacity="0.200000" stroke="#000000" stroke-width="2" stroke-opacity="0.200000" points="714.75,-325.04 719.72,-321.07 713.36,-321.07 714.75,-325.04"/>
</g>
<!-- src/application/services/FileParserService.ts&#45;&gt;src/application/services/VideoMetadataService.ts -->
<g id="edge8" class="edge">
<title>src/application/services/FileParserService.ts&#45;&gt;src/application/services/VideoMetadataService.ts</title>
<path fill="none" stroke="#000000" stroke-width="2" stroke-opacity="0.200000" d="M677.04,-310C678.19,-310 679.35,-310 680.51,-310"/>
<polygon fill="#000000" fill-opacity="0.200000" stroke="#000000" stroke-width="2" stroke-opacity="0.200000" points="680.42,-312.1 686.42,-310 680.42,-307.9 680.42,-312.1"/>
</g>
<!-- src/domain/index.ts -->
<g id="node10" class="node">
<title>src/domain/index.ts</title>
<g id="a_node10"><a xlink:href="src/domain/index.ts" xlink:title="index.ts">
<path fill="#ddfeff" stroke="black" d="M1186.33,-361.62C1186.33,-361.62 1145.17,-361.62 1145.17,-361.62 1141.96,-361.62 1138.75,-358.42 1138.75,-355.21 1138.75,-355.21 1138.75,-348.79 1138.75,-348.79 1138.75,-345.58 1141.96,-342.38 1145.17,-342.38 1145.17,-342.38 1186.33,-342.38 1186.33,-342.38 1189.54,-342.38 1192.75,-345.58 1192.75,-348.79 1192.75,-348.79 1192.75,-355.21 1192.75,-355.21 1192.75,-358.42 1189.54,-361.62 1186.33,-361.62"/>
<text text-anchor="start" x="1150" y="-349.07" font-family="Helvetica,sans-Serif" font-size="9.00">index.ts</text>
</a>
</g>
</g>
<!-- src/application/services/FileParserService.ts&#45;&gt;src/domain/index.ts -->
<g id="edge9" class="edge">
<title>src/application/services/FileParserService.ts&#45;&gt;src/domain/index.ts</title>
<path fill="none" stroke="#000000" stroke-opacity="0.200000" d="M662.26,-320.11C671.13,-322.41 680.74,-324.59 689.75,-326 853.77,-351.65 1053.08,-353.05 1131.13,-352.47"/>
<polygon fill="none" stroke="#000000" stroke-opacity="0.200000" points="1130.8,-354.57 1136.78,-352.42 1130.76,-350.37 1130.8,-354.57"/>
</g>
<!-- src/infrastructure/index.ts -->
<g id="node11" class="node">
<title>src/infrastructure/index.ts</title>
<g id="a_node11"><a xlink:href="src/infrastructure/index.ts" xlink:title="index.ts">
<path fill="#ddfeff" stroke="black" d="M902.96,-152.62C902.96,-152.62 861.79,-152.62 861.79,-152.62 858.58,-152.62 855.38,-149.42 855.38,-146.21 855.38,-146.21 855.38,-139.79 855.38,-139.79 855.38,-136.58 858.58,-133.38 861.79,-133.38 861.79,-133.38 902.96,-133.38 902.96,-133.38 906.17,-133.38 909.38,-136.58 909.38,-139.79 909.38,-139.79 909.38,-146.21 909.38,-146.21 909.38,-149.42 906.17,-152.62 902.96,-152.62"/>
<text text-anchor="start" x="866.62" y="-140.07" font-family="Helvetica,sans-Serif" font-size="9.00">index.ts</text>
</a>
</g>
</g>
<!-- src/application/services/FileParserService.ts&#45;&gt;src/infrastructure/index.ts -->
<g id="edge10" class="edge">
<title>src/application/services/FileParserService.ts&#45;&gt;src/infrastructure/index.ts</title>
<path fill="none" stroke="#000000" stroke-width="2" stroke-opacity="0.200000" d="M665.37,-299.97C669.29,-298.48 673.15,-296.83 676.75,-295 752.99,-256.26 830.73,-189.39 864.26,-158.94"/>
<polygon fill="#000000" fill-opacity="0.200000" stroke="#000000" stroke-width="2" stroke-opacity="0.200000" points="865.49,-160.66 868.5,-155.06 862.65,-157.56 865.49,-160.66"/>
</g>
<!-- src/application/services/FiltersService.ts&#45;&gt;src/domain/index.ts -->
<g id="edge11" class="edge">
<title>src/application/services/FiltersService.ts&#45;&gt;src/domain/index.ts</title>
<path fill="none" stroke="#000000" stroke-opacity="0.200000" d="M668.61,-270.29C751.5,-254.26 946.2,-226.81 1093,-286 1118.5,-296.28 1140.53,-320.09 1153.22,-336.12"/>
<polygon fill="none" stroke="#000000" stroke-opacity="0.200000" points="1151.53,-337.36 1156.85,-340.84 1154.86,-334.8 1151.53,-337.36"/>
</g>
<!-- src/application/services/VideoMetadataService.ts&#45;&gt;src/domain/index.ts -->
<g id="edge13" class="edge">
<title>src/application/services/VideoMetadataService.ts&#45;&gt;src/domain/index.ts</title>
<path fill="none" stroke="#000000" stroke-opacity="0.200000" d="M786.29,-299.88C796.86,-297.45 808.44,-295.22 819.25,-294 940.7,-280.34 976.51,-283.03 1093,-320 1108.61,-324.95 1125.36,-332.3 1138.75,-338.71"/>
<polygon fill="none" stroke="#000000" stroke-opacity="0.200000" points="1137.74,-340.55 1144.06,-341.29 1139.58,-336.78 1137.74,-340.55"/>
</g>
<!-- src/application/services/VideoMetadataService.ts&#45;&gt;src/infrastructure/index.ts -->
<g id="edge14" class="edge">
<title>src/application/services/VideoMetadataService.ts&#45;&gt;src/infrastructure/index.ts</title>
<path fill="none" stroke="#000000" stroke-width="2" stroke-opacity="0.200000" d="M756.88,-300.05C778.81,-272.39 840.71,-194.31 868.08,-159.78"/>
<polygon fill="#000000" fill-opacity="0.200000" stroke="#000000" stroke-width="2" stroke-opacity="0.200000" points="869.4,-161.48 871.48,-155.48 866.11,-158.88 869.4,-161.48"/>
</g>
<!-- src/application/services/VideoStorageDtoMapper.ts -->
<g id="node12" class="node">
<title>src/application/services/VideoStorageDtoMapper.ts</title>
<g id="a_node12"><a xlink:href="src/application/services/VideoStorageDtoMapper.ts" xlink:title="VideoStorageDtoMapper.ts">
<path fill="#ddfeff" stroke="black" d="M939.08,-319.62C939.08,-319.62 825.67,-319.62 825.67,-319.62 822.46,-319.62 819.25,-316.42 819.25,-313.21 819.25,-313.21 819.25,-306.79 819.25,-306.79 819.25,-303.58 822.46,-300.38 825.67,-300.38 825.67,-300.38 939.08,-300.38 939.08,-300.38 942.29,-300.38 945.5,-303.58 945.5,-306.79 945.5,-306.79 945.5,-313.21 945.5,-313.21 945.5,-316.42 942.29,-319.62 939.08,-319.62"/>
<text text-anchor="start" x="827.25" y="-307.07" font-family="Helvetica,sans-Serif" font-size="9.00">VideoStorageDtoMapper.ts</text>
</a>
</g>
</g>
<!-- src/application/services/VideoMetadataService.ts&#45;&gt;src/application/services/VideoStorageDtoMapper.ts -->
<g id="edge12" class="edge">
<title>src/application/services/VideoMetadataService.ts&#45;&gt;src/application/services/VideoStorageDtoMapper.ts</title>
<path fill="none" stroke="#000000" stroke-width="2" stroke-opacity="0.200000" d="M806.68,-310C807.81,-310 808.95,-310 810.09,-310"/>
<polygon fill="#000000" fill-opacity="0.200000" stroke="#000000" stroke-width="2" stroke-opacity="0.200000" points="809.84,-312.1 815.84,-310 809.84,-307.9 809.84,-312.1"/>
</g>
<!-- src/domain/constants/index.ts -->
<g id="node18" class="node">
<title>src/domain/constants/index.ts</title>
<g id="a_node18"><a xlink:href="src/domain/constants/index.ts" xlink:title="index.ts">
<path fill="#ddfeff" stroke="black" d="M1321.96,-465.62C1321.96,-465.62 1280.79,-465.62 1280.79,-465.62 1277.58,-465.62 1274.38,-462.42 1274.38,-459.21 1274.38,-459.21 1274.38,-452.79 1274.38,-452.79 1274.38,-449.58 1277.58,-446.38 1280.79,-446.38 1280.79,-446.38 1321.96,-446.38 1321.96,-446.38 1325.17,-446.38 1328.38,-449.58 1328.38,-452.79 1328.38,-452.79 1328.38,-459.21 1328.38,-459.21 1328.38,-462.42 1325.17,-465.62 1321.96,-465.62"/>
<text text-anchor="start" x="1285.62" y="-453.07" font-family="Helvetica,sans-Serif" font-size="9.00">index.ts</text>
</a>
</g>
</g>
<!-- src/domain/index.ts&#45;&gt;src/domain/constants/index.ts -->
<g id="edge26" class="edge">
<title>src/domain/index.ts&#45;&gt;src/domain/constants/index.ts</title>
<path fill="none" stroke="#000000" stroke-width="2" stroke-opacity="0.200000" d="M1171.71,-361.95C1181.64,-380.76 1205.83,-421.51 1238.5,-442 1246.49,-447.01 1256.06,-450.24 1265.25,-452.31"/>
<polygon fill="#000000" fill-opacity="0.200000" stroke="#000000" stroke-width="2" stroke-opacity="0.200000" points="1264.63,-454.33 1270.92,-453.4 1265.42,-450.2 1264.63,-454.33"/>
</g>
<!-- src/domain/entities/Metadata.ts -->
<g id="node19" class="node">
<title>src/domain/entities/Metadata.ts</title>
<g id="a_node19"><a xlink:href="src/domain/entities/Metadata.ts" xlink:title="Metadata.ts">
<path fill="#ddfeff" stroke="black" d="M1548.58,-559.62C1548.58,-559.62 1498.17,-559.62 1498.17,-559.62 1494.96,-559.62 1491.75,-556.42 1491.75,-553.21 1491.75,-553.21 1491.75,-546.79 1491.75,-546.79 1491.75,-543.58 1494.96,-540.38 1498.17,-540.38 1498.17,-540.38 1548.58,-540.38 1548.58,-540.38 1551.79,-540.38 1555,-543.58 1555,-546.79 1555,-546.79 1555,-553.21 1555,-553.21 1555,-556.42 1551.79,-559.62 1548.58,-559.62"/>
<text text-anchor="start" x="1499.75" y="-547.08" font-family="Helvetica,sans-Serif" font-size="9.00">Metadata.ts</text>
</a>
</g>
</g>
<!-- src/domain/index.ts&#45;&gt;src/domain/entities/Metadata.ts -->
<g id="edge27" class="edge">
<title>src/domain/index.ts&#45;&gt;src/domain/entities/Metadata.ts</title>
<path fill="none" stroke="#000000" stroke-opacity="0.200000" d="M1166.43,-361.93C1165.91,-397.11 1169.47,-516.34 1238.5,-566 1315.54,-621.43 1437,-584.57 1492.69,-562.78"/>
<polygon fill="none" stroke="#000000" stroke-opacity="0.200000" points="1493.26,-564.82 1498.06,-560.64 1491.7,-560.91 1493.26,-564.82"/>
</g>
<!-- src/domain/entities/ParsedVideo.ts -->
<g id="node20" class="node">
<title>src/domain/entities/ParsedVideo.ts</title>
<g id="a_node20"><a xlink:href="src/domain/entities/ParsedVideo.ts" xlink:title="ParsedVideo.ts">
<path fill="#ddfeff" stroke="black" d="M1334.46,-559.62C1334.46,-559.62 1268.29,-559.62 1268.29,-559.62 1265.08,-559.62 1261.88,-556.42 1261.88,-553.21 1261.88,-553.21 1261.88,-546.79 1261.88,-546.79 1261.88,-543.58 1265.08,-540.38 1268.29,-540.38 1268.29,-540.38 1334.46,-540.38 1334.46,-540.38 1337.67,-540.38 1340.88,-543.58 1340.88,-546.79 1340.88,-546.79 1340.88,-553.21 1340.88,-553.21 1340.88,-556.42 1337.67,-559.62 1334.46,-559.62"/>
<text text-anchor="start" x="1269.88" y="-547.08" font-family="Helvetica,sans-Serif" font-size="9.00">ParsedVideo.ts</text>
</a>
</g>
</g>
<!-- src/domain/index.ts&#45;&gt;src/domain/entities/ParsedVideo.ts -->
<g id="edge28" class="edge">
<title>src/domain/index.ts&#45;&gt;src/domain/entities/ParsedVideo.ts</title>
<path fill="none" stroke="#000000" stroke-opacity="0.200000" d="M1167.51,-361.71C1170.43,-392.26 1183.73,-487.21 1238.5,-535 1243.17,-539.07 1248.76,-542.08 1254.65,-544.3"/>
<polygon fill="none" stroke="#000000" stroke-opacity="0.200000" points="1253.86,-546.25 1260.21,-546.09 1255.14,-542.25 1253.86,-546.25"/>
</g>
<!-- src/domain/entities/VideoStorageDto.ts -->
<g id="node21" class="node">
<title>src/domain/entities/VideoStorageDto.ts</title>
<g id="a_node21"><a xlink:href="src/domain/entities/VideoStorageDto.ts" xlink:title="VideoStorageDto.ts">
<path fill="#ddfeff" stroke="black" d="M1472.33,-543.62C1472.33,-543.62 1389.67,-543.62 1389.67,-543.62 1386.46,-543.62 1383.25,-540.42 1383.25,-537.21 1383.25,-537.21 1383.25,-530.79 1383.25,-530.79 1383.25,-527.58 1386.46,-524.38 1389.67,-524.38 1389.67,-524.38 1472.33,-524.38 1472.33,-524.38 1475.54,-524.38 1478.75,-527.58 1478.75,-530.79 1478.75,-530.79 1478.75,-537.21 1478.75,-537.21 1478.75,-540.42 1475.54,-543.62 1472.33,-543.62"/>
<text text-anchor="start" x="1391.25" y="-531.08" font-family="Helvetica,sans-Serif" font-size="9.00">VideoStorageDto.ts</text>
</a>
</g>
</g>
<!-- src/domain/index.ts&#45;&gt;src/domain/entities/VideoStorageDto.ts -->
<g id="edge30" class="edge">
<title>src/domain/index.ts&#45;&gt;src/domain/entities/VideoStorageDto.ts</title>
<path fill="none" stroke="#000000" stroke-opacity="0.200000" d="M1173.28,-361.95C1184.45,-378.03 1208.92,-409.3 1238.5,-423 1266.18,-435.82 1351.81,-415.47 1375.25,-435 1385.52,-443.56 1377.69,-451.84 1383.25,-464 1392.42,-484.05 1407.02,-504.79 1417.47,-518.43"/>
<polygon fill="none" stroke="#000000" stroke-opacity="0.200000" points="1415.67,-519.53 1421.01,-522.98 1418.98,-516.95 1415.67,-519.53"/>
</g>
<!-- src/domain/entities/Video.ts -->
<g id="node22" class="node">
<title>src/domain/entities/Video.ts</title>
<g id="a_node22"><a xlink:href="src/domain/entities/Video.ts" xlink:title="Video.ts">
<path fill="#ddfeff" stroke="black" d="M1543.96,-528.62C1543.96,-528.62 1502.79,-528.62 1502.79,-528.62 1499.58,-528.62 1496.38,-525.42 1496.38,-522.21 1496.38,-522.21 1496.38,-515.79 1496.38,-515.79 1496.38,-512.58 1499.58,-509.38 1502.79,-509.38 1502.79,-509.38 1543.96,-509.38 1543.96,-509.38 1547.17,-509.38 1550.38,-512.58 1550.38,-515.79 1550.38,-515.79 1550.38,-522.21 1550.38,-522.21 1550.38,-525.42 1547.17,-528.62 1543.96,-528.62"/>
<text text-anchor="start" x="1506.88" y="-516.08" font-family="Helvetica,sans-Serif" font-size="9.00">Video.ts</text>
</a>
</g>
</g>
<!-- src/domain/index.ts&#45;&gt;src/domain/entities/Video.ts -->
<g id="edge29" class="edge">
<title>src/domain/index.ts&#45;&gt;src/domain/entities/Video.ts</title>
<path fill="none" stroke="#000000" stroke-opacity="0.200000" d="M1192.93,-342.39C1206.35,-337.96 1223.08,-333.21 1238.5,-331 1298.66,-322.38 1316.17,-316.75 1375.25,-331 1425.49,-343.12 1445.26,-344.64 1478.75,-384 1508.24,-418.66 1517.89,-473.61 1520.97,-501.51"/>
<polygon fill="none" stroke="#000000" stroke-opacity="0.200000" points="1518.88,-501.66 1521.56,-507.43 1523.06,-501.25 1518.88,-501.66"/>
</g>
<!-- src/domain/repositories/IMetadataRepository.ts -->
<g id="node24" class="node">
<title>src/domain/repositories/IMetadataRepository.ts</title>
<g id="a_node24"><a xlink:href="src/domain/repositories/IMetadataRepository.ts" xlink:title="IMetadataRepository.ts">
<path fill="#ddfeff" stroke="black" d="M1349.83,-392.62C1349.83,-392.62 1252.92,-392.62 1252.92,-392.62 1249.71,-392.62 1246.5,-389.42 1246.5,-386.21 1246.5,-386.21 1246.5,-379.79 1246.5,-379.79 1246.5,-376.58 1249.71,-373.38 1252.92,-373.38 1252.92,-373.38 1349.83,-373.38 1349.83,-373.38 1353.04,-373.38 1356.25,-376.58 1356.25,-379.79 1356.25,-379.79 1356.25,-386.21 1356.25,-386.21 1356.25,-389.42 1353.04,-392.62 1349.83,-392.62"/>
<text text-anchor="start" x="1254.5" y="-380.07" font-family="Helvetica,sans-Serif" font-size="9.00">IMetadataRepository.ts</text>
</a>
</g>
</g>
<!-- src/domain/index.ts&#45;&gt;src/domain/repositories/IMetadataRepository.ts -->
<g id="edge31" class="edge">
<title>src/domain/index.ts&#45;&gt;src/domain/repositories/IMetadataRepository.ts</title>
<path fill="none" stroke="#000000" stroke-opacity="0.200000" d="M1193.15,-358.12C1209.27,-361.86 1230.41,-366.77 1249.66,-371.24"/>
<polygon fill="none" stroke="#000000" stroke-opacity="0.200000" points="1249.14,-373.27 1255.46,-372.58 1250.09,-369.18 1249.14,-373.27"/>
</g>
<!-- src/domain/repositories/IVideoRepository.ts -->
<g id="node25" class="node">
<title>src/domain/repositories/IVideoRepository.ts</title>
<g id="a_node25"><a xlink:href="src/domain/repositories/IVideoRepository.ts" xlink:title="IVideoRepository.ts">
<path fill="#ddfeff" stroke="black" d="M1342.71,-361.62C1342.71,-361.62 1260.04,-361.62 1260.04,-361.62 1256.83,-361.62 1253.62,-358.42 1253.62,-355.21 1253.62,-355.21 1253.62,-348.79 1253.62,-348.79 1253.62,-345.58 1256.83,-342.38 1260.04,-342.38 1260.04,-342.38 1342.71,-342.38 1342.71,-342.38 1345.92,-342.38 1349.12,-345.58 1349.12,-348.79 1349.12,-348.79 1349.12,-355.21 1349.12,-355.21 1349.12,-358.42 1345.92,-361.62 1342.71,-361.62"/>
<text text-anchor="start" x="1261.62" y="-349.07" font-family="Helvetica,sans-Serif" font-size="9.00">IVideoRepository.ts</text>
</a>
</g>
</g>
<!-- src/domain/index.ts&#45;&gt;src/domain/repositories/IVideoRepository.ts -->
<g id="edge32" class="edge">
<title>src/domain/index.ts&#45;&gt;src/domain/repositories/IVideoRepository.ts</title>
<path fill="none" stroke="#000000" stroke-opacity="0.200000" d="M1193.15,-352C1208.26,-352 1227.78,-352 1246.02,-352"/>
<polygon fill="none" stroke="#000000" stroke-opacity="0.200000" points="1245.69,-354.1 1251.69,-352 1245.69,-349.9 1245.69,-354.1"/>
</g>
<!-- src/domain/valueObjects/Thumbs.ts -->
<g id="node26" class="node">
<title>src/domain/valueObjects/Thumbs.ts</title>
<g id="a_node26"><a xlink:href="src/domain/valueObjects/Thumbs.ts" xlink:title="Thumbs.ts">
<path fill="#ddfeff" stroke="black" d="M1325.08,-288.62C1325.08,-288.62 1277.67,-288.62 1277.67,-288.62 1274.46,-288.62 1271.25,-285.42 1271.25,-282.21 1271.25,-282.21 1271.25,-275.79 1271.25,-275.79 1271.25,-272.58 1274.46,-269.38 1277.67,-269.38 1277.67,-269.38 1325.08,-269.38 1325.08,-269.38 1328.29,-269.38 1331.5,-272.58 1331.5,-275.79 1331.5,-275.79 1331.5,-282.21 1331.5,-282.21 1331.5,-285.42 1328.29,-288.62 1325.08,-288.62"/>
<text text-anchor="start" x="1279.25" y="-276.07" font-family="Helvetica,sans-Serif" font-size="9.00">Thumbs.ts</text>
</a>
</g>
</g>
<!-- src/domain/index.ts&#45;&gt;src/domain/valueObjects/Thumbs.ts -->
<g id="edge33" class="edge">
<title>src/domain/index.ts&#45;&gt;src/domain/valueObjects/Thumbs.ts</title>
<path fill="none" stroke="#000000" stroke-opacity="0.200000" d="M1175.92,-341.97C1188.65,-328.69 1213.01,-305.48 1238.5,-293 1246.23,-289.22 1255,-286.44 1263.46,-284.4"/>
<polygon fill="none" stroke="#000000" stroke-opacity="0.200000" points="1263.89,-286.46 1269.3,-283.13 1262.99,-282.36 1263.89,-286.46"/>
</g>
<!-- src/infrastructure/repository/MetadataRepository.ts -->
<g id="node29" class="node">
<title>src/infrastructure/repository/MetadataRepository.ts</title>
<g id="a_node29"><a xlink:href="src/infrastructure/repository/MetadataRepository.ts" xlink:title="MetadataRepository.ts">
<path fill="#ddfeff" stroke="black" d="M1078.58,-82.62C1078.58,-82.62 983.92,-82.62 983.92,-82.62 980.71,-82.62 977.5,-79.42 977.5,-76.21 977.5,-76.21 977.5,-69.79 977.5,-69.79 977.5,-66.58 980.71,-63.38 983.92,-63.38 983.92,-63.38 1078.58,-63.38 1078.58,-63.38 1081.79,-63.38 1085,-66.58 1085,-69.79 1085,-69.79 1085,-76.21 1085,-76.21 1085,-79.42 1081.79,-82.62 1078.58,-82.62"/>
<text text-anchor="start" x="985.5" y="-70.08" font-family="Helvetica,sans-Serif" font-size="9.00">MetadataRepository.ts</text>
</a>
</g>
</g>
<!-- src/infrastructure/index.ts&#45;&gt;src/infrastructure/repository/MetadataRepository.ts -->
<g id="edge36" class="edge">
<title>src/infrastructure/index.ts&#45;&gt;src/infrastructure/repository/MetadataRepository.ts</title>
<path fill="none" stroke="#000000" stroke-width="2" stroke-opacity="0.200000" d="M904.42,-132.97C929.83,-120.86 972.71,-100.42 1001.24,-86.82"/>
<polygon fill="#000000" fill-opacity="0.200000" stroke="#000000" stroke-width="2" stroke-opacity="0.200000" points="1002,-88.79 1006.51,-84.31 1000.19,-85 1002,-88.79"/>
</g>
<!-- src/infrastructure/repository/VideoRepository.ts -->
<g id="node30" class="node">
<title>src/infrastructure/repository/VideoRepository.ts</title>
<g id="a_node30"><a xlink:href="src/infrastructure/repository/VideoRepository.ts" xlink:title="VideoRepository.ts">
<path fill="#ddfeff" stroke="black" d="M1071.46,-51.62C1071.46,-51.62 991.04,-51.62 991.04,-51.62 987.83,-51.62 984.62,-48.42 984.62,-45.21 984.62,-45.21 984.62,-38.79 984.62,-38.79 984.62,-35.58 987.83,-32.38 991.04,-32.38 991.04,-32.38 1071.46,-32.38 1071.46,-32.38 1074.67,-32.38 1077.88,-35.58 1077.88,-38.79 1077.88,-38.79 1077.88,-45.21 1077.88,-45.21 1077.88,-48.42 1074.67,-51.62 1071.46,-51.62"/>
<text text-anchor="start" x="992.62" y="-39.08" font-family="Helvetica,sans-Serif" font-size="9.00">VideoRepository.ts</text>
</a>
</g>
</g>
<!-- src/infrastructure/index.ts&#45;&gt;src/infrastructure/repository/VideoRepository.ts -->
<g id="edge37" class="edge">
<title>src/infrastructure/index.ts&#45;&gt;src/infrastructure/repository/VideoRepository.ts</title>
<path fill="none" stroke="#000000" stroke-width="2" stroke-opacity="0.200000" d="M890.41,-133.02C903.71,-114.94 934.34,-76.82 969.5,-57 971.67,-55.77 973.95,-54.65 976.28,-53.61"/>
<polygon fill="#000000" fill-opacity="0.200000" stroke="#000000" stroke-width="2" stroke-opacity="0.200000" points="976.78,-55.67 981.6,-51.54 975.25,-51.76 976.78,-55.67"/>
</g>
<!-- src/infrastructure/video/index.ts -->
<g id="node31" class="node">
<title>src/infrastructure/video/index.ts</title>
<g id="a_node31"><a xlink:href="src/infrastructure/video/index.ts" xlink:title="index.ts">
<path fill="#ddfeff" stroke="black" d="M1051.83,-152.62C1051.83,-152.62 1010.67,-152.62 1010.67,-152.62 1007.46,-152.62 1004.25,-149.42 1004.25,-146.21 1004.25,-146.21 1004.25,-139.79 1004.25,-139.79 1004.25,-136.58 1007.46,-133.38 1010.67,-133.38 1010.67,-133.38 1051.83,-133.38 1051.83,-133.38 1055.04,-133.38 1058.25,-136.58 1058.25,-139.79 1058.25,-139.79 1058.25,-146.21 1058.25,-146.21 1058.25,-149.42 1055.04,-152.62 1051.83,-152.62"/>
<text text-anchor="start" x="1015.5" y="-140.07" font-family="Helvetica,sans-Serif" font-size="9.00">index.ts</text>
</a>
</g>
</g>
<!-- src/infrastructure/index.ts&#45;&gt;src/infrastructure/video/index.ts -->
<g id="edge38" class="edge">
<title>src/infrastructure/index.ts&#45;&gt;src/infrastructure/video/index.ts</title>
<path fill="none" stroke="#000000" stroke-width="2" stroke-opacity="0.200000" d="M909.63,-143C936.37,-143 977.57,-143 1004.22,-143"/>
<polygon fill="#000000" fill-opacity="0.200000" stroke="#000000" stroke-width="2" stroke-opacity="0.200000" points="1007.03,-141.61 1010.93,-149.71 1002.83,-145.81 1007.03,-141.61"/>
</g>
<!-- src/application/services/VideoStorageDtoMapper.ts&#45;&gt;src/domain/index.ts -->
<g id="edge15" class="edge">
<title>src/application/services/VideoStorageDtoMapper.ts&#45;&gt;src/domain/index.ts</title>
<path fill="none" stroke="#000000" stroke-opacity="0.200000" d="M945.76,-319.14C987.46,-325.27 1043.52,-333.55 1093,-341 1105.49,-342.88 1119.19,-344.97 1131.25,-346.83"/>
<polygon fill="none" stroke="#000000" stroke-opacity="0.200000" points="1130.77,-348.88 1137.02,-347.71 1131.41,-344.73 1130.77,-348.88"/>
</g>
<!-- src/components/VideoCard.vue&#45;&gt;src/domain/index.ts -->
<g id="edge17" class="edge">
<title>src/components/VideoCard.vue&#45;&gt;src/domain/index.ts</title>
<path fill="none" stroke="#000000" stroke-opacity="0.200000" d="M360.45,-458.81C368.77,-456.54 376.98,-452.87 383.25,-447 391.76,-439.02 382.3,-429.49 391.25,-422 440.43,-380.86 470.14,-403 534.25,-403 534.25,-403 534.25,-403 883.38,-403 977.37,-403 1001.3,-395.65 1093,-375 1105.8,-372.12 1119.59,-367.96 1131.62,-363.97"/>
<polygon fill="none" stroke="#000000" stroke-opacity="0.200000" points="1132.04,-366.05 1137.05,-362.14 1130.69,-362.07 1132.04,-366.05"/>
</g>
<!-- src/components/VideoEmbed.vue -->
<g id="node14" class="node">
<title>src/components/VideoEmbed.vue</title>
<g id="a_node14"><a xlink:href="src/components/VideoEmbed.vue" xlink:title="VideoEmbed.vue">
<path fill="#41f083" stroke="black" d="M477.83,-447.62C477.83,-447.62 404.92,-447.62 404.92,-447.62 401.71,-447.62 398.5,-444.42 398.5,-441.21 398.5,-441.21 398.5,-434.79 398.5,-434.79 398.5,-431.58 401.71,-428.38 404.92,-428.38 404.92,-428.38 477.83,-428.38 477.83,-428.38 481.04,-428.38 484.25,-431.58 484.25,-434.79 484.25,-434.79 484.25,-441.21 484.25,-441.21 484.25,-444.42 481.04,-447.62 477.83,-447.62"/>
<text text-anchor="start" x="406.5" y="-435.07" font-family="Helvetica,sans-Serif" font-size="9.00">VideoEmbed.vue</text>
</a>
</g>
</g>
<!-- src/components/VideoCard.vue&#45;&gt;src/components/VideoEmbed.vue -->
<g id="edge16" class="edge">
<title>src/components/VideoCard.vue&#45;&gt;src/components/VideoEmbed.vue</title>
<path fill="none" stroke="#000000" stroke-width="2" stroke-opacity="0.200000" d="M360.63,-454.34C369.75,-452.47 379.67,-450.44 389.31,-448.46"/>
<polygon fill="#000000" fill-opacity="0.200000" stroke="#000000" stroke-width="2" stroke-opacity="0.200000" points="389.64,-450.54 395.09,-447.28 388.79,-446.43 389.64,-450.54"/>
</g>
<!-- src/components/VideoCard.vue&#45;&gt;src/stores/videosStore.ts -->
<g id="edge18" class="edge">
<title>src/components/VideoCard.vue&#45;&gt;src/stores/videosStore.ts</title>
<path fill="none" stroke="#000000" stroke-width="2" stroke-opacity="0.200000" d="M360.62,-460.1C369.25,-457.84 377.56,-453.86 383.25,-447 402.03,-424.39 378.15,-341.31 391.25,-315 396.62,-304.22 406.12,-295.1 415.34,-288.14"/>
<polygon fill="#000000" fill-opacity="0.200000" stroke="#000000" stroke-width="2" stroke-opacity="0.200000" points="416.42,-289.94 420.12,-284.77 414.01,-286.51 416.42,-289.94"/>
</g>
<!-- src/components/VideoEmbed.vue&#45;&gt;src/domain/index.ts -->
<g id="edge19" class="edge">
<title>src/components/VideoEmbed.vue&#45;&gt;src/domain/index.ts</title>
<path fill="none" stroke="#000000" stroke-opacity="0.200000" d="M484.39,-434.42C521.69,-431.55 577.68,-428 626.5,-428 626.5,-428 626.5,-428 883.38,-428 977.01,-428 1005.94,-441.46 1093,-407 1115.47,-398.1 1136.87,-380.01 1150.36,-367"/>
<polygon fill="none" stroke="#000000" stroke-opacity="0.200000" points="1151.77,-368.56 1154.56,-362.84 1148.82,-365.57 1151.77,-368.56"/>
</g>
<!-- src/stores/videosStore.ts&#45;&gt;src/application/index.ts -->
<g id="edge50" class="edge">
<title>src/stores/videosStore.ts&#45;&gt;src/application/index.ts</title>
<path fill="none" stroke="#000000" stroke-width="2" stroke-opacity="0.200000" d="M478.95,-275.39C485.62,-275.82 492.57,-276.28 499.2,-276.71"/>
<polygon fill="#000000" fill-opacity="0.200000" stroke="#000000" stroke-width="2" stroke-opacity="0.200000" points="498.84,-278.79 504.97,-277.09 499.12,-274.6 498.84,-278.79"/>
</g>
<!-- src/stores/videosStore.ts&#45;&gt;src/domain/index.ts -->
<g id="edge51" class="edge">
<title>src/stores/videosStore.ts&#45;&gt;src/domain/index.ts</title>
<path fill="none" stroke="#000000" stroke-opacity="0.200000" d="M459.63,-282.8C470.86,-290.15 484.77,-301.29 492.25,-315 498.91,-327.19 490.04,-367.58 500.25,-377 541.54,-415.08 570.33,-383 626.5,-383 626.5,-383 626.5,-383 883.38,-383 973.31,-383 1078.45,-367.16 1131.1,-358.12"/>
<polygon fill="none" stroke="#000000" stroke-opacity="0.200000" points="1131.43,-360.2 1136.99,-357.1 1130.72,-356.06 1131.43,-360.2"/>
</g>
<!-- src/components/inputs/FileInput.vue&#45;&gt;src/stores/videosStore.ts -->
<g id="edge20" class="edge">
<title>src/components/inputs/FileInput.vue&#45;&gt;src/stores/videosStore.ts</title>
<path fill="none" stroke="#000000" stroke-width="2" stroke-opacity="0.200000" d="M339.78,-333.98C359.75,-321.87 393.5,-301.42 416.34,-287.57"/>
<polygon fill="#000000" fill-opacity="0.200000" stroke="#000000" stroke-width="2" stroke-opacity="0.200000" points="417.3,-289.45 421.34,-284.54 415.12,-285.85 417.3,-289.45"/>
</g>
<!-- src/stores/appStateStore.ts&#45;&gt;src/application/index.ts -->
<g id="edge49" class="edge">
<title>src/stores/appStateStore.ts&#45;&gt;src/application/index.ts</title>
<path fill="none" stroke="#000000" stroke-width="2" stroke-opacity="0.200000" d="M478.89,-252.1C483.43,-253.62 487.98,-255.26 492.25,-257 497.88,-259.3 503.76,-262.1 509.28,-264.93"/>
<polygon fill="#000000" fill-opacity="0.200000" stroke="#000000" stroke-width="2" stroke-opacity="0.200000" points="508.07,-266.66 514.35,-267.62 510.03,-262.95 508.07,-266.66"/>
</g>
<!-- src/domain/entities/ParsedVideo.ts&#45;&gt;src/domain/entities/VideoStorageDto.ts -->
<g id="edge23" class="edge">
<title>src/domain/entities/ParsedVideo.ts&#45;&gt;src/domain/entities/VideoStorageDto.ts</title>
<path fill="none" stroke="#000000" stroke-opacity="0.200000" d="M1341.36,-545.11C1352.29,-543.74 1364.36,-542.23 1376,-540.77"/>
<polygon fill="none" stroke="#000000" stroke-opacity="0.200000" points="1375.97,-542.89 1381.67,-540.06 1375.45,-538.72 1375.97,-542.89"/>
</g>
<!-- src/domain/entities/VideoStorageDto.ts&#45;&gt;src/domain/entities/Metadata.ts -->
<g id="edge24" class="edge">
<title>src/domain/entities/VideoStorageDto.ts&#45;&gt;src/domain/entities/Metadata.ts</title>
<path fill="none" stroke="#000000" stroke-opacity="0.200000" d="M1479.04,-542.33C1480.92,-542.66 1482.79,-542.99 1484.64,-543.32"/>
<polygon fill="none" stroke="#000000" stroke-opacity="0.200000" points="1483.92,-545.32 1490.2,-544.3 1484.65,-541.19 1483.92,-545.32"/>
</g>
<!-- src/domain/entities/VideoStorageDto.ts&#45;&gt;src/domain/entities/Video.ts -->
<g id="edge25" class="edge">
<title>src/domain/entities/VideoStorageDto.ts&#45;&gt;src/domain/entities/Video.ts</title>
<path fill="none" stroke="#000000" stroke-opacity="0.200000" d="M1479.04,-526.19C1482.32,-525.65 1485.59,-525.11 1488.78,-524.58"/>
<polygon fill="none" stroke="#000000" stroke-opacity="0.200000" points="1488.96,-526.68 1494.53,-523.62 1488.27,-522.53 1488.96,-526.68"/>
</g>
<!-- src/domain/entities/VideoMetadata.ts -->
<g id="node23" class="node">
<title>src/domain/entities/VideoMetadata.ts</title>
<g id="a_node23"><a xlink:href="src/domain/entities/VideoMetadata.ts" xlink:title="no&#45;orphans">
<path fill="#ccffcc" stroke="orange" d="M1338.21,-528.62C1338.21,-528.62 1264.54,-528.62 1264.54,-528.62 1261.33,-528.62 1258.12,-525.42 1258.12,-522.21 1258.12,-522.21 1258.12,-515.79 1258.12,-515.79 1258.12,-512.58 1261.33,-509.38 1264.54,-509.38 1264.54,-509.38 1338.21,-509.38 1338.21,-509.38 1341.42,-509.38 1344.62,-512.58 1344.62,-515.79 1344.62,-515.79 1344.62,-522.21 1344.62,-522.21 1344.62,-525.42 1341.42,-528.62 1338.21,-528.62"/>
<text text-anchor="start" x="1266.12" y="-516.08" font-family="Helvetica,sans-Serif" font-size="9.00" fill="orange">VideoMetadata.ts</text>
</a>
</g>
</g>
<!-- src/domain/repositories/IMetadataRepository.ts&#45;&gt;src/domain/entities/Metadata.ts -->
<g id="edge34" class="edge">
<title>src/domain/repositories/IMetadataRepository.ts&#45;&gt;src/domain/entities/Metadata.ts</title>
<path fill="none" stroke="#000000" stroke-opacity="0.200000" d="M1356.42,-389.09C1363.01,-391.06 1369.46,-393.63 1375.25,-397 1436.43,-432.56 1434.24,-462.98 1478.75,-518 1484.73,-525.39 1484.39,-528.97 1491.75,-535 1492.16,-535.34 1492.58,-535.67 1493.01,-536"/>
<polygon fill="none" stroke="#000000" stroke-opacity="0.200000" points="1491.51,-537.52 1497.67,-539.11 1493.85,-534.03 1491.51,-537.52"/>
</g>
<!-- src/domain/repositories/IVideoRepository.ts&#45;&gt;src/domain/entities/Video.ts -->
<g id="edge35" class="edge">
<title>src/domain/repositories/IVideoRepository.ts&#45;&gt;src/domain/entities/Video.ts</title>
<path fill="none" stroke="#000000" stroke-opacity="0.200000" d="M1349.39,-354.66C1358.74,-357.03 1367.92,-360.87 1375.25,-367 1382.59,-373.14 1375.7,-381.11 1383.25,-387 1417.02,-413.36 1445.37,-373.15 1478.75,-400 1510.14,-425.25 1518.94,-475.24 1521.41,-501.67"/>
<polygon fill="none" stroke="#000000" stroke-opacity="0.200000" points="1519.31,-501.74 1521.88,-507.56 1523.5,-501.41 1519.31,-501.74"/>
</g>
<!-- src/domain/valueObjects/ParsedVideoData.ts -->
<g id="node27" class="node">
<title>src/domain/valueObjects/ParsedVideoData.ts</title>
<g id="a_node27"><a xlink:href="src/domain/valueObjects/ParsedVideoData.ts" xlink:title="ParsedVideoData.ts">
<path fill="#ddfeff" stroke="black" d="M1344.21,-257.62C1344.21,-257.62 1258.54,-257.62 1258.54,-257.62 1255.33,-257.62 1252.12,-254.42 1252.12,-251.21 1252.12,-251.21 1252.12,-244.79 1252.12,-244.79 1252.12,-241.58 1255.33,-238.38 1258.54,-238.38 1258.54,-238.38 1344.21,-238.38 1344.21,-238.38 1347.42,-238.38 1350.62,-241.58 1350.62,-244.79 1350.62,-244.79 1350.62,-251.21 1350.62,-251.21 1350.62,-254.42 1347.42,-257.62 1344.21,-257.62"/>
<text text-anchor="start" x="1260.12" y="-245.07" font-family="Helvetica,sans-Serif" font-size="9.00">ParsedVideoData.ts</text>
</a>
</g>
</g>
<!-- src/infrastructure/database/DatabaseConnection.ts -->
<g id="node28" class="node">
<title>src/infrastructure/database/DatabaseConnection.ts</title>
<g id="a_node28"><a xlink:href="src/infrastructure/database/DatabaseConnection.ts" xlink:title="DatabaseConnection.ts">
<path fill="#ddfeff" stroke="black" d="M1216.08,-66.62C1216.08,-66.62 1115.42,-66.62 1115.42,-66.62 1112.21,-66.62 1109,-63.42 1109,-60.21 1109,-60.21 1109,-53.79 1109,-53.79 1109,-50.58 1112.21,-47.38 1115.42,-47.38 1115.42,-47.38 1216.08,-47.38 1216.08,-47.38 1219.29,-47.38 1222.5,-50.58 1222.5,-53.79 1222.5,-53.79 1222.5,-60.21 1222.5,-60.21 1222.5,-63.42 1219.29,-66.62 1216.08,-66.62"/>
<text text-anchor="start" x="1117" y="-54.08" font-family="Helvetica,sans-Serif" font-size="9.00">DatabaseConnection.ts</text>
</a>
</g>
</g>
<!-- src/infrastructure/repository/MetadataRepository.ts&#45;&gt;src/domain/index.ts -->
<g id="edge40" class="edge">
<title>src/infrastructure/repository/MetadataRepository.ts&#45;&gt;src/domain/index.ts</title>
<path fill="none" stroke="#000000" stroke-width="2" stroke-opacity="0.200000" d="M1055.73,-83.09C1068.95,-90.06 1084.49,-100.67 1093,-115 1110.12,-143.82 1093.01,-157.44 1101,-190 1114.31,-244.27 1141.65,-304.64 1155.8,-334"/>
<polygon fill="#000000" fill-opacity="0.200000" stroke="#000000" stroke-width="2" stroke-opacity="0.200000" points="1153.9,-334.88 1158.42,-339.35 1157.67,-333.04 1153.9,-334.88"/>
</g>
<!-- src/infrastructure/repository/MetadataRepository.ts&#45;&gt;src/infrastructure/database/DatabaseConnection.ts -->
<g id="edge39" class="edge">
<title>src/infrastructure/repository/MetadataRepository.ts&#45;&gt;src/infrastructure/database/DatabaseConnection.ts</title>
<path fill="none" stroke="#000000" stroke-width="2" stroke-opacity="0.200000" d="M1085.38,-66.58C1090.15,-66.01 1095.01,-65.42 1099.87,-64.83"/>
<polygon fill="#000000" fill-opacity="0.200000" stroke="#000000" stroke-width="2" stroke-opacity="0.200000" points="1099.86,-66.95 1105.57,-64.15 1099.36,-62.78 1099.86,-66.95"/>
</g>
<!-- src/infrastructure/repository/VideoRepository.ts&#45;&gt;src/domain/index.ts -->
<g id="edge42" class="edge">
<title>src/infrastructure/repository/VideoRepository.ts&#45;&gt;src/domain/index.ts</title>
<path fill="none" stroke="#000000" stroke-width="2" stroke-opacity="0.200000" d="M1078.12,-46.47C1083.83,-48.86 1089.04,-52.24 1093,-57 1102.47,-68.38 1097.81,-175.54 1101,-190 1113.06,-244.56 1140.95,-304.8 1155.51,-334.07"/>
<polygon fill="#000000" fill-opacity="0.200000" stroke="#000000" stroke-width="2" stroke-opacity="0.200000" points="1153.63,-335 1158.21,-339.41 1157.38,-333.11 1153.63,-335"/>
</g>
<!-- src/infrastructure/repository/VideoRepository.ts&#45;&gt;src/infrastructure/database/DatabaseConnection.ts -->
<g id="edge41" class="edge">
<title>src/infrastructure/repository/VideoRepository.ts&#45;&gt;src/infrastructure/database/DatabaseConnection.ts</title>
<path fill="none" stroke="#000000" stroke-width="2" stroke-opacity="0.200000" d="M1078.22,-47.2C1085.31,-48.01 1092.75,-48.85 1100.15,-49.69"/>
<polygon fill="#000000" fill-opacity="0.200000" stroke="#000000" stroke-width="2" stroke-opacity="0.200000" points="1099.61,-51.74 1105.81,-50.33 1100.08,-47.57 1099.61,-51.74"/>
</g>
<!-- src/infrastructure/video/HTMLVideoProcessor.ts -->
<g id="node32" class="node">
<title>src/infrastructure/video/HTMLVideoProcessor.ts</title>
<g id="a_node32"><a xlink:href="src/infrastructure/video/HTMLVideoProcessor.ts" xlink:title="HTMLVideoProcessor.ts">
<path fill="#ddfeff" stroke="black" d="M1352.83,-152.62C1352.83,-152.62 1249.92,-152.62 1249.92,-152.62 1246.71,-152.62 1243.5,-149.42 1243.5,-146.21 1243.5,-146.21 1243.5,-139.79 1243.5,-139.79 1243.5,-136.58 1246.71,-133.38 1249.92,-133.38 1249.92,-133.38 1352.83,-133.38 1352.83,-133.38 1356.04,-133.38 1359.25,-136.58 1359.25,-139.79 1359.25,-139.79 1359.25,-146.21 1359.25,-146.21 1359.25,-149.42 1356.04,-152.62 1352.83,-152.62"/>
<text text-anchor="start" x="1251.5" y="-140.07" font-family="Helvetica,sans-Serif" font-size="9.00">HTMLVideoProcessor.ts</text>
</a>
</g>
</g>
<!-- src/infrastructure/video/index.ts&#45;&gt;src/infrastructure/video/HTMLVideoProcessor.ts -->
<g id="edge46" class="edge">
<title>src/infrastructure/video/index.ts&#45;&gt;src/infrastructure/video/HTMLVideoProcessor.ts</title>
<path fill="none" stroke="#000000" stroke-width="2" stroke-opacity="0.200000" d="M1058.62,-138.73C1071.38,-136.87 1086.95,-134.92 1101,-134 1158.43,-130.26 1173.06,-130.32 1243.23,-135.03"/>
<polygon fill="#000000" fill-opacity="0.200000" stroke="#000000" stroke-width="2" stroke-opacity="0.200000" points="1246.04,-133.64 1249.94,-141.74 1241.84,-137.84 1246.04,-133.64"/>
</g>
<!-- src/infrastructure/video/VideoFileParser.ts -->
<g id="node33" class="node">
<title>src/infrastructure/video/VideoFileParser.ts</title>
<g id="a_node33"><a xlink:href="src/infrastructure/video/VideoFileParser.ts" xlink:title="VideoFileParser.ts">
<path fill="#ddfeff" stroke="black" d="M1205.21,-159.62C1205.21,-159.62 1126.29,-159.62 1126.29,-159.62 1123.08,-159.62 1119.88,-156.42 1119.88,-153.21 1119.88,-153.21 1119.88,-146.79 1119.88,-146.79 1119.88,-143.58 1123.08,-140.38 1126.29,-140.38 1126.29,-140.38 1205.21,-140.38 1205.21,-140.38 1208.42,-140.38 1211.62,-143.58 1211.62,-146.79 1211.62,-146.79 1211.62,-153.21 1211.62,-153.21 1211.62,-156.42 1208.42,-159.62 1205.21,-159.62"/>
<text text-anchor="start" x="1127.88" y="-147.07" font-family="Helvetica,sans-Serif" font-size="9.00">VideoFileParser.ts</text>
</a>
</g>
</g>
<!-- src/infrastructure/video/index.ts&#45;&gt;src/infrastructure/video/VideoFileParser.ts -->
<g id="edge47" class="edge">
<title>src/infrastructure/video/index.ts&#45;&gt;src/infrastructure/video/VideoFileParser.ts</title>
<path fill="none" stroke="#000000" stroke-width="2" stroke-opacity="0.200000" d="M1058.74,-144.4C1076.11,-145.32 1099.27,-146.54 1119.51,-147.61"/>
<polygon fill="#000000" fill-opacity="0.200000" stroke="#000000" stroke-width="2" stroke-opacity="0.200000" points="1122.32,-146.22 1126.22,-154.32 1118.12,-150.42 1122.32,-146.22"/>
</g>
<!-- src/infrastructure/video/VideoFileParser.ts&#45;&gt;src/domain/entities/Video.ts -->
<g id="edge44" class="edge">
<title>src/infrastructure/video/VideoFileParser.ts&#45;&gt;src/domain/entities/Video.ts</title>
<path fill="none" stroke="#000000" stroke-opacity="0.200000" d="M1212.1,-157.12C1294.19,-170.43 1460.62,-199.49 1478.75,-219 1517.33,-260.52 1521.87,-444.51 1522.34,-501.87"/>
<polygon fill="none" stroke="#000000" stroke-opacity="0.200000" points="1520.24,-501.59 1522.38,-507.58 1524.44,-501.56 1520.24,-501.59"/>
</g>
<!-- src/infrastructure/video/VideoFileParser.ts&#45;&gt;src/domain/valueObjects/ParsedVideoData.ts -->
<g id="edge45" class="edge">
<title>src/infrastructure/video/VideoFileParser.ts&#45;&gt;src/domain/valueObjects/ParsedVideoData.ts</title>
<path fill="none" stroke="#000000" stroke-width="2" stroke-opacity="0.200000" d="M1180.55,-160.12C1204.07,-177.37 1252.08,-212.58 1279.65,-232.8"/>
<polygon fill="#000000" fill-opacity="0.200000" stroke="#000000" stroke-width="2" stroke-opacity="0.200000" points="1278.33,-234.44 1284.41,-236.29 1280.81,-231.05 1278.33,-234.44"/>
</g>
<!-- src/infrastructure/video/VideoFileParser.ts&#45;&gt;src/infrastructure/video/HTMLVideoProcessor.ts -->
<g id="edge43" class="edge">
<title>src/infrastructure/video/VideoFileParser.ts&#45;&gt;src/infrastructure/video/HTMLVideoProcessor.ts</title>
<path fill="none" stroke="#000000" stroke-width="2" stroke-opacity="0.200000" d="M1211.99,-147.63C1219.17,-147.25 1226.73,-146.86 1234.27,-146.46"/>
<polygon fill="#000000" fill-opacity="0.200000" stroke="#000000" stroke-width="2" stroke-opacity="0.200000" points="1234.2,-148.57 1240.08,-146.16 1233.98,-144.38 1234.2,-148.57"/>
</g>
<!-- src/main.ts -->
<g id="node34" class="node">
<title>src/main.ts</title>
<g id="a_node34"><a xlink:href="src/main.ts" xlink:title="main.ts">
<path fill="#ddfeff" stroke="black" d="M63.58,-313.62C63.58,-313.62 22.42,-313.62 22.42,-313.62 19.21,-313.62 16,-310.42 16,-307.21 16,-307.21 16,-300.79 16,-300.79 16,-297.58 19.21,-294.38 22.42,-294.38 22.42,-294.38 63.58,-294.38 63.58,-294.38 66.79,-294.38 70,-297.58 70,-300.79 70,-300.79 70,-307.21 70,-307.21 70,-310.42 66.79,-313.62 63.58,-313.62"/>
<text text-anchor="start" x="27.62" y="-301.07" font-family="Helvetica,sans-Serif" font-size="9.00">main.ts</text>
</a>
</g>
</g>
<!-- src/main.ts&#45;&gt;src/App.vue -->
<g id="edge48" class="edge">
<title>src/main.ts&#45;&gt;src/App.vue</title>
<path fill="none" stroke="#000000" stroke-width="2" stroke-opacity="0.200000" d="M70.44,-304C71.58,-304 72.74,-304 73.9,-304"/>
<polygon fill="#000000" fill-opacity="0.200000" stroke="#000000" stroke-width="2" stroke-opacity="0.200000" points="73.77,-306.1 79.77,-304 73.77,-301.9 73.77,-306.1"/>
</g>
</g>
</svg>
