<?xml version="1.0" encoding="UTF-8" standalone="no"?>
<!DOCTYPE svg PUBLIC "-//W3C//DTD SVG 1.1//EN"
 "http://www.w3.org/Graphics/SVG/1.1/DTD/svg11.dtd">
<!-- Generated by graphviz version 9.0.0 (20230911.1827)
 -->
<!-- Title: dependency&#45;cruiser output Pages: 1 -->
<svg width="1468pt" height="502pt"
 viewBox="0.00 0.00 1468.25 502.00" xmlns="http://www.w3.org/2000/svg" xmlns:xlink="http://www.w3.org/1999/xlink">
<g id="graph0" class="graph" transform="scale(1 1) rotate(0) translate(4 498)">
<title>dependency&#45;cruiser output</title>
<polygon fill="white" stroke="none" points="-4,4 -4,-498 1464.25,-498 1464.25,4 -4,4"/>
<g id="clust1" class="cluster">
<title>cluster_src</title>
<path fill="#ffffff" stroke="black" stroke-width="2" d="M20,-8C20,-8 1440.25,-8 1440.25,-8 1446.25,-8 1452.25,-14 1452.25,-20 1452.25,-20 1452.25,-474 1452.25,-474 1452.25,-480 1446.25,-486 1440.25,-486 1440.25,-486 20,-486 20,-486 14,-486 8,-480 8,-474 8,-474 8,-20 8,-20 8,-14 14,-8 20,-8"/>
<text text-anchor="middle" x="730.12" y="-473.45" font-family="Helvetica,sans-Serif" font-weight="bold" font-size="9.00">src</text>
</g>
<g id="clust2" class="cluster">
<title>cluster_src/application</title>
<path fill="#ffffff" stroke="black" stroke-width="2" d="M580,-83C580,-83 824.25,-83 824.25,-83 830.25,-83 836.25,-89 836.25,-95 836.25,-95 836.25,-224 836.25,-224 836.25,-230 830.25,-236 824.25,-236 824.25,-236 580,-236 580,-236 574,-236 568,-230 568,-224 568,-224 568,-95 568,-95 568,-89 574,-83 580,-83"/>
<text text-anchor="middle" x="702.12" y="-223.45" font-family="Helvetica,sans-Serif" font-weight="bold" font-size="9.00">application</text>
</g>
<g id="clust3" class="cluster">
<title>cluster_src/application/services</title>
<path fill="#ffffff" stroke="black" stroke-width="2" d="M588,-91C588,-91 816.25,-91 816.25,-91 822.25,-91 828.25,-97 828.25,-103 828.25,-103 828.25,-197 828.25,-197 828.25,-203 822.25,-209 816.25,-209 816.25,-209 588,-209 588,-209 582,-209 576,-203 576,-197 576,-197 576,-103 576,-103 576,-97 582,-91 588,-91"/>
<text text-anchor="middle" x="702.12" y="-196.45" font-family="Helvetica,sans-Serif" font-weight="bold" font-size="9.00">services</text>
</g>
<g id="clust4" class="cluster">
<title>cluster_src/application/services/filters</title>
<path fill="#ffffff" stroke="black" stroke-width="2" d="M614.38,-99C614.38,-99 785,-99 785,-99 791,-99 797,-105 797,-111 797,-111 797,-142 797,-142 797,-148 791,-154 785,-154 785,-154 614.38,-154 614.38,-154 608.38,-154 602.38,-148 602.38,-142 602.38,-142 602.38,-111 602.38,-111 602.38,-105 608.38,-99 614.38,-99"/>
<text text-anchor="middle" x="699.69" y="-141.45" font-family="Helvetica,sans-Serif" font-weight="bold" font-size="9.00">filters</text>
</g>
<g id="clust5" class="cluster">
<title>cluster_src/assets</title>
<path fill="#ffffff" stroke="black" stroke-width="2" d="M90,-325C90,-325 192.75,-325 192.75,-325 198.75,-325 204.75,-331 204.75,-337 204.75,-337 204.75,-431 204.75,-431 204.75,-437 198.75,-443 192.75,-443 192.75,-443 90,-443 90,-443 84,-443 78,-437 78,-431 78,-431 78,-337 78,-337 78,-331 84,-325 90,-325"/>
<text text-anchor="middle" x="141.38" y="-430.45" font-family="Helvetica,sans-Serif" font-weight="bold" font-size="9.00">assets</text>
</g>
<g id="clust6" class="cluster">
<title>cluster_src/assets/effects</title>
<path fill="#ffffff" stroke="black" stroke-width="2" d="M98,-361C98,-361 184.75,-361 184.75,-361 190.75,-361 196.75,-367 196.75,-373 196.75,-373 196.75,-404 196.75,-404 196.75,-410 190.75,-416 184.75,-416 184.75,-416 98,-416 98,-416 92,-416 86,-410 86,-404 86,-404 86,-373 86,-373 86,-367 92,-361 98,-361"/>
<text text-anchor="middle" x="141.38" y="-403.45" font-family="Helvetica,sans-Serif" font-weight="bold" font-size="9.00">effects</text>
</g>
<g id="clust10" class="cluster">
<title>cluster_src/domain</title>
<path fill="#ffffff" stroke="black" stroke-width="2" d="M1125.25,-275C1125.25,-275 1330.25,-275 1330.25,-275 1336.25,-275 1342.25,-281 1342.25,-287 1342.25,-287 1342.25,-447 1342.25,-447 1342.25,-453 1336.25,-459 1330.25,-459 1330.25,-459 1125.25,-459 1125.25,-459 1119.25,-459 1113.25,-453 1113.25,-447 1113.25,-447 1113.25,-287 1113.25,-287 1113.25,-281 1119.25,-275 1125.25,-275"/>
<text text-anchor="middle" x="1227.75" y="-446.45" font-family="Helvetica,sans-Serif" font-weight="bold" font-size="9.00">domain</text>
</g>
<g id="clust12" class="cluster">
<title>cluster_src/domain/entities</title>
<path fill="#ffffff" stroke="black" stroke-width="2" d="M1267,-346C1267,-346 1322.25,-346 1322.25,-346 1328.25,-346 1334.25,-352 1334.25,-358 1334.25,-358 1334.25,-420 1334.25,-420 1334.25,-426 1328.25,-432 1322.25,-432 1322.25,-432 1267,-432 1267,-432 1261,-432 1255,-426 1255,-420 1255,-420 1255,-358 1255,-358 1255,-352 1261,-346 1267,-346"/>
<text text-anchor="middle" x="1294.62" y="-419.45" font-family="Helvetica,sans-Serif" font-weight="bold" font-size="9.00">entities</text>
</g>
<g id="clust13" class="cluster">
<title>cluster_src/domain/repositories</title>
<path fill="#ffffff" stroke="black" stroke-width="2" d="M1133.25,-346C1133.25,-346 1235,-346 1235,-346 1241,-346 1247,-352 1247,-358 1247,-358 1247,-420 1247,-420 1247,-426 1241,-432 1235,-432 1235,-432 1133.25,-432 1133.25,-432 1127.25,-432 1121.25,-426 1121.25,-420 1121.25,-420 1121.25,-358 1121.25,-358 1121.25,-352 1127.25,-346 1133.25,-346"/>
<text text-anchor="middle" x="1184.12" y="-419.45" font-family="Helvetica,sans-Serif" font-weight="bold" font-size="9.00">repositories</text>
</g>
<g id="clust11" class="cluster">
<title>cluster_src/domain/constants</title>
<path fill="#ffffff" stroke="black" stroke-width="2" d="M1161.12,-283C1161.12,-283 1207.12,-283 1207.12,-283 1213.12,-283 1219.12,-289 1219.12,-295 1219.12,-295 1219.12,-326 1219.12,-326 1219.12,-332 1213.12,-338 1207.12,-338 1207.12,-338 1161.12,-338 1161.12,-338 1155.12,-338 1149.12,-332 1149.12,-326 1149.12,-326 1149.12,-295 1149.12,-295 1149.12,-289 1155.12,-283 1161.12,-283"/>
<text text-anchor="middle" x="1184.12" y="-325.45" font-family="Helvetica,sans-Serif" font-weight="bold" font-size="9.00">constants</text>
</g>
<g id="clust7" class="cluster">
<title>cluster_src/components</title>
<path fill="#ffffff" stroke="black" stroke-width="2" d="M333,-126C333,-126 548,-126 548,-126 554,-126 560,-132 560,-138 560,-138 560,-295 560,-295 560,-301 554,-307 548,-307 548,-307 333,-307 333,-307 327,-307 321,-301 321,-295 321,-295 321,-138 321,-138 321,-132 327,-126 333,-126"/>
<text text-anchor="middle" x="440.5" y="-294.45" font-family="Helvetica,sans-Serif" font-weight="bold" font-size="9.00">components</text>
</g>
<g id="clust9" class="cluster">
<title>cluster_src/components/utils</title>
<path fill="#ffffff" stroke="black" stroke-width="2" d="M341,-197C341,-197 439,-197 439,-197 445,-197 451,-203 451,-209 451,-209 451,-240 451,-240 451,-246 445,-252 439,-252 439,-252 341,-252 341,-252 335,-252 329,-246 329,-240 329,-240 329,-209 329,-209 329,-203 335,-197 341,-197"/>
<text text-anchor="middle" x="390" y="-239.45" font-family="Helvetica,sans-Serif" font-weight="bold" font-size="9.00">utils</text>
</g>
<g id="clust8" class="cluster">
<title>cluster_src/components/inputs</title>
<path fill="#ffffff" stroke="black" stroke-width="2" d="M347.75,-134C347.75,-134 432.25,-134 432.25,-134 438.25,-134 444.25,-140 444.25,-146 444.25,-146 444.25,-177 444.25,-177 444.25,-183 438.25,-189 432.25,-189 432.25,-189 347.75,-189 347.75,-189 341.75,-189 335.75,-183 335.75,-177 335.75,-177 335.75,-146 335.75,-146 335.75,-140 341.75,-134 347.75,-134"/>
<text text-anchor="middle" x="390" y="-176.45" font-family="Helvetica,sans-Serif" font-weight="bold" font-size="9.00">inputs</text>
</g>
<g id="clust14" class="cluster">
<title>cluster_src/infrastructure</title>
<path fill="#ffffff" stroke="black" stroke-width="2" d="M856.25,-16C856.25,-16 1432.25,-16 1432.25,-16 1438.25,-16 1444.25,-22 1444.25,-28 1444.25,-28 1444.25,-255 1444.25,-255 1444.25,-261 1438.25,-267 1432.25,-267 1432.25,-267 856.25,-267 856.25,-267 850.25,-267 844.25,-261 844.25,-255 844.25,-255 844.25,-28 844.25,-28 844.25,-22 850.25,-16 856.25,-16"/>
<text text-anchor="middle" x="1144.25" y="-254.45" font-family="Helvetica,sans-Serif" font-weight="bold" font-size="9.00">infrastructure</text>
</g>
<g id="clust15" class="cluster">
<title>cluster_src/infrastructure/database</title>
<path fill="#ffffff" stroke="black" stroke-width="2" d="M995.75,-24C995.75,-24 1424.25,-24 1424.25,-24 1430.25,-24 1436.25,-30 1436.25,-36 1436.25,-36 1436.25,-228 1436.25,-228 1436.25,-234 1430.25,-240 1424.25,-240 1424.25,-240 995.75,-240 995.75,-240 989.75,-240 983.75,-234 983.75,-228 983.75,-228 983.75,-36 983.75,-36 983.75,-30 989.75,-24 995.75,-24"/>
<text text-anchor="middle" x="1210" y="-227.45" font-family="Helvetica,sans-Serif" font-weight="bold" font-size="9.00">database</text>
</g>
<g id="clust16" class="cluster">
<title>cluster_src/infrastructure/database/migrations</title>
<path fill="#ffffff" stroke="black" stroke-width="2" d="M1025.5,-32C1025.5,-32 1416.25,-32 1416.25,-32 1422.25,-32 1428.25,-38 1428.25,-44 1428.25,-44 1428.25,-173 1428.25,-173 1428.25,-179 1422.25,-185 1416.25,-185 1416.25,-185 1025.5,-185 1025.5,-185 1019.5,-185 1013.5,-179 1013.5,-173 1013.5,-173 1013.5,-44 1013.5,-44 1013.5,-38 1019.5,-32 1025.5,-32"/>
<text text-anchor="middle" x="1220.88" y="-172.45" font-family="Helvetica,sans-Serif" font-weight="bold" font-size="9.00">migrations</text>
</g>
<g id="clust19" class="cluster">
<title>cluster_src/infrastructure/database/migrations/v2</title>
<path fill="#ffffff" stroke="black" stroke-width="2" d="M1271.62,-103C1271.62,-103 1317.62,-103 1317.62,-103 1323.62,-103 1329.62,-109 1329.62,-115 1329.62,-115 1329.62,-146 1329.62,-146 1329.62,-152 1323.62,-158 1317.62,-158 1317.62,-158 1271.62,-158 1271.62,-158 1265.62,-158 1259.62,-152 1259.62,-146 1259.62,-146 1259.62,-115 1259.62,-115 1259.62,-109 1265.62,-103 1271.62,-103"/>
<text text-anchor="middle" x="1294.62" y="-145.45" font-family="Helvetica,sans-Serif" font-weight="bold" font-size="9.00">v2</text>
</g>
<g id="clust18" class="cluster">
<title>cluster_src/infrastructure/database/migrations/v1</title>
<path fill="#ffffff" stroke="black" stroke-width="2" d="M1271.62,-40C1271.62,-40 1317.62,-40 1317.62,-40 1323.62,-40 1329.62,-46 1329.62,-52 1329.62,-52 1329.62,-83 1329.62,-83 1329.62,-89 1323.62,-95 1317.62,-95 1317.62,-95 1271.62,-95 1271.62,-95 1265.62,-95 1259.62,-89 1259.62,-83 1259.62,-83 1259.62,-52 1259.62,-52 1259.62,-46 1265.62,-40 1271.62,-40"/>
<text text-anchor="middle" x="1294.62" y="-82.45" font-family="Helvetica,sans-Serif" font-weight="bold" font-size="9.00">v1</text>
</g>
<g id="clust17" class="cluster">
<title>cluster_src/infrastructure/database/migrations/utils</title>
<path fill="#ffffff" stroke="black" stroke-width="2" d="M1362.25,-71C1362.25,-71 1408.25,-71 1408.25,-71 1414.25,-71 1420.25,-77 1420.25,-83 1420.25,-83 1420.25,-114 1420.25,-114 1420.25,-120 1414.25,-126 1408.25,-126 1408.25,-126 1362.25,-126 1362.25,-126 1356.25,-126 1350.25,-120 1350.25,-114 1350.25,-114 1350.25,-83 1350.25,-83 1350.25,-77 1356.25,-71 1362.25,-71"/>
<text text-anchor="middle" x="1385.25" y="-113.45" font-family="Helvetica,sans-Serif" font-weight="bold" font-size="9.00">utils</text>
</g>
<g id="clust20" class="cluster">
<title>cluster_src/infrastructure/repository</title>
<path fill="#ffffff" stroke="black" stroke-width="2" d="M864.25,-154C864.25,-154 963.75,-154 963.75,-154 969.75,-154 975.75,-160 975.75,-166 975.75,-166 975.75,-228 975.75,-228 975.75,-234 969.75,-240 963.75,-240 963.75,-240 864.25,-240 864.25,-240 858.25,-240 852.25,-234 852.25,-228 852.25,-228 852.25,-166 852.25,-166 852.25,-160 858.25,-154 864.25,-154"/>
<text text-anchor="middle" x="914" y="-227.45" font-family="Helvetica,sans-Serif" font-weight="bold" font-size="9.00">repository</text>
</g>
<g id="clust21" class="cluster">
<title>cluster_src/stores</title>
<path fill="#ffffff" stroke="black" stroke-width="2" d="M471,-32C471,-32 547.25,-32 547.25,-32 553.25,-32 559.25,-38 559.25,-44 559.25,-44 559.25,-106 559.25,-106 559.25,-112 553.25,-118 547.25,-118 547.25,-118 471,-118 471,-118 465,-118 459,-112 459,-106 459,-106 459,-44 459,-44 459,-38 465,-32 471,-32"/>
<text text-anchor="middle" x="509.12" y="-105.45" font-family="Helvetica,sans-Serif" font-weight="bold" font-size="9.00">stores</text>
</g>
<g id="clust22" class="cluster">
<title>cluster_src/views</title>
<path fill="#ffffff" stroke="black" stroke-width="2" d="M224.75,-120C224.75,-120 301,-120 301,-120 307,-120 313,-126 313,-132 313,-132 313,-194 313,-194 313,-200 307,-206 301,-206 301,-206 224.75,-206 224.75,-206 218.75,-206 212.75,-200 212.75,-194 212.75,-194 212.75,-132 212.75,-132 212.75,-126 218.75,-120 224.75,-120"/>
<text text-anchor="middle" x="262.88" y="-193.45" font-family="Helvetica,sans-Serif" font-weight="bold" font-size="9.00">views</text>
</g>
<!-- src/App.vue -->
<g id="node1" class="node">
<title>src/App.vue</title>
<g id="a_node1"><a xlink:href="src/App.vue" xlink:title="App.vue">
<path fill="#41f083" stroke="black" d="M161.96,-201.62C161.96,-201.62 120.79,-201.62 120.79,-201.62 117.58,-201.62 114.38,-198.42 114.38,-195.21 114.38,-195.21 114.38,-188.79 114.38,-188.79 114.38,-185.58 117.58,-182.38 120.79,-182.38 120.79,-182.38 161.96,-182.38 161.96,-182.38 165.17,-182.38 168.38,-185.58 168.38,-188.79 168.38,-188.79 168.38,-195.21 168.38,-195.21 168.38,-198.42 165.17,-201.62 161.96,-201.62"/>
<text text-anchor="start" x="125.25" y="-189.07" font-family="Helvetica,sans-Serif" font-size="9.00">App.vue</text>
</a>
</g>
</g>
<!-- src/components/utils/DiagnosticsPanel.vue -->
<g id="node2" class="node">
<title>src/components/utils/DiagnosticsPanel.vue</title>
<g id="a_node2"><a xlink:href="src/components/utils/DiagnosticsPanel.vue" xlink:title="DiagnosticsPanel.vue">
<path fill="#41f083" stroke="black" d="M436.58,-224.62C436.58,-224.62 343.42,-224.62 343.42,-224.62 340.21,-224.62 337,-221.42 337,-218.21 337,-218.21 337,-211.79 337,-211.79 337,-208.58 340.21,-205.38 343.42,-205.38 343.42,-205.38 436.58,-205.38 436.58,-205.38 439.79,-205.38 443,-208.58 443,-211.79 443,-211.79 443,-218.21 443,-218.21 443,-221.42 439.79,-224.62 436.58,-224.62"/>
<text text-anchor="start" x="345" y="-212.07" font-family="Helvetica,sans-Serif" font-size="9.00">DiagnosticsPanel.vue</text>
</a>
</g>
</g>
<!-- src/App.vue&#45;&gt;src/components/utils/DiagnosticsPanel.vue -->
<g id="edge1" class="edge">
<title>src/App.vue&#45;&gt;src/components/utils/DiagnosticsPanel.vue</title>
<path fill="none" stroke="#000000" stroke-width="2" stroke-opacity="0.200000" d="M168.87,-199.75C181.95,-203.23 198.05,-207 212.75,-209 250.76,-214.18 293.79,-215.73 327.81,-215.96"/>
<polygon fill="#000000" fill-opacity="0.200000" stroke="#000000" stroke-width="2" stroke-opacity="0.200000" points="327.67,-218.06 333.68,-215.98 327.69,-213.86 327.67,-218.06"/>
</g>
<!-- src/views/NavBar.vue -->
<g id="node3" class="node">
<title>src/views/NavBar.vue</title>
<g id="a_node3"><a xlink:href="src/views/NavBar.vue" xlink:title="NavBar.vue">
<path fill="#41f083" stroke="black" d="M287.71,-147.62C287.71,-147.62 238.04,-147.62 238.04,-147.62 234.83,-147.62 231.62,-144.42 231.62,-141.21 231.62,-141.21 231.62,-134.79 231.62,-134.79 231.62,-131.58 234.83,-128.38 238.04,-128.38 238.04,-128.38 287.71,-128.38 287.71,-128.38 290.92,-128.38 294.12,-131.58 294.12,-134.79 294.12,-134.79 294.12,-141.21 294.12,-141.21 294.12,-144.42 290.92,-147.62 287.71,-147.62"/>
<text text-anchor="start" x="239.62" y="-135.07" font-family="Helvetica,sans-Serif" font-size="9.00">NavBar.vue</text>
</a>
</g>
</g>
<!-- src/App.vue&#45;&gt;src/views/NavBar.vue -->
<g id="edge2" class="edge">
<title>src/App.vue&#45;&gt;src/views/NavBar.vue</title>
<path fill="none" stroke="#000000" stroke-width="2" stroke-opacity="0.200000" d="M158.1,-182.03C172.06,-173.49 193.2,-161.29 212.75,-153 216.07,-151.59 219.58,-150.25 223.12,-148.99"/>
<polygon fill="#000000" fill-opacity="0.200000" stroke="#000000" stroke-width="2" stroke-opacity="0.200000" points="223.49,-151.08 228.51,-147.18 222.16,-147.1 223.49,-151.08"/>
</g>
<!-- src/views/VideoGallery.vue -->
<g id="node4" class="node">
<title>src/views/VideoGallery.vue</title>
<g id="a_node4"><a xlink:href="src/views/VideoGallery.vue" xlink:title="VideoGallery.vue">
<path fill="#41f083" stroke="black" d="M298.58,-178.62C298.58,-178.62 227.17,-178.62 227.17,-178.62 223.96,-178.62 220.75,-175.42 220.75,-172.21 220.75,-172.21 220.75,-165.79 220.75,-165.79 220.75,-162.58 223.96,-159.38 227.17,-159.38 227.17,-159.38 298.58,-159.38 298.58,-159.38 301.79,-159.38 305,-162.58 305,-165.79 305,-165.79 305,-172.21 305,-172.21 305,-175.42 301.79,-178.62 298.58,-178.62"/>
<text text-anchor="start" x="228.75" y="-166.07" font-family="Helvetica,sans-Serif" font-size="9.00">VideoGallery.vue</text>
</a>
</g>
</g>
<!-- src/App.vue&#45;&gt;src/views/VideoGallery.vue -->
<g id="edge3" class="edge">
<title>src/App.vue&#45;&gt;src/views/VideoGallery.vue</title>
<path fill="none" stroke="#000000" stroke-width="2" stroke-opacity="0.200000" d="M168.6,-186.95C181.35,-184.5 197.11,-181.46 212.03,-178.59"/>
<polygon fill="#000000" fill-opacity="0.200000" stroke="#000000" stroke-width="2" stroke-opacity="0.200000" points="212.21,-180.7 217.71,-177.5 211.42,-176.57 212.21,-180.7"/>
</g>
<!-- src/stores/appStateStore.ts -->
<g id="node18" class="node">
<title>src/stores/appStateStore.ts</title>
<g id="a_node18"><a xlink:href="src/stores/appStateStore.ts" xlink:title="appStateStore.ts">
<path fill="#ddfeff" stroke="black" d="M544.83,-90.62C544.83,-90.62 473.42,-90.62 473.42,-90.62 470.21,-90.62 467,-87.42 467,-84.21 467,-84.21 467,-77.79 467,-77.79 467,-74.58 470.21,-71.38 473.42,-71.38 473.42,-71.38 544.83,-71.38 544.83,-71.38 548.04,-71.38 551.25,-74.58 551.25,-77.79 551.25,-77.79 551.25,-84.21 551.25,-84.21 551.25,-87.42 548.04,-90.62 544.83,-90.62"/>
<text text-anchor="start" x="475" y="-78.08" font-family="Helvetica,sans-Serif" font-size="9.00">appStateStore.ts</text>
</a>
</g>
</g>
<!-- src/components/utils/DiagnosticsPanel.vue&#45;&gt;src/stores/appStateStore.ts -->
<g id="edge13" class="edge">
<title>src/components/utils/DiagnosticsPanel.vue&#45;&gt;src/stores/appStateStore.ts</title>
<path fill="none" stroke="#000000" stroke-width="2" stroke-opacity="0.200000" d="M434.54,-204.96C440.87,-201.76 446.69,-197.55 451,-192 469.93,-167.61 444.49,-150.25 459,-123 464.74,-112.22 474.49,-103.01 483.79,-95.98"/>
<polygon fill="#000000" fill-opacity="0.200000" stroke="#000000" stroke-width="2" stroke-opacity="0.200000" points="484.92,-97.76 488.6,-92.58 482.49,-94.33 484.92,-97.76"/>
</g>
<!-- src/components/inputs/FolderSelector.vue -->
<g id="node16" class="node">
<title>src/components/inputs/FolderSelector.vue</title>
<g id="a_node16"><a xlink:href="src/components/inputs/FolderSelector.vue" xlink:title="FolderSelector.vue">
<path fill="#41f083" stroke="black" d="M429.83,-161.62C429.83,-161.62 350.17,-161.62 350.17,-161.62 346.96,-161.62 343.75,-158.42 343.75,-155.21 343.75,-155.21 343.75,-148.79 343.75,-148.79 343.75,-145.58 346.96,-142.38 350.17,-142.38 350.17,-142.38 429.83,-142.38 429.83,-142.38 433.04,-142.38 436.25,-145.58 436.25,-148.79 436.25,-148.79 436.25,-155.21 436.25,-155.21 436.25,-158.42 433.04,-161.62 429.83,-161.62"/>
<text text-anchor="start" x="351.75" y="-149.07" font-family="Helvetica,sans-Serif" font-size="9.00">FolderSelector.vue</text>
</a>
</g>
</g>
<!-- src/views/NavBar.vue&#45;&gt;src/components/inputs/FolderSelector.vue -->
<g id="edge34" class="edge">
<title>src/views/NavBar.vue&#45;&gt;src/components/inputs/FolderSelector.vue</title>
<path fill="none" stroke="#000000" stroke-width="2" stroke-opacity="0.200000" d="M294.48,-141.42C306.59,-142.78 320.88,-144.38 334.63,-145.92"/>
<polygon fill="#000000" fill-opacity="0.200000" stroke="#000000" stroke-width="2" stroke-opacity="0.200000" points="334.36,-148 340.56,-146.58 334.83,-143.83 334.36,-148"/>
</g>
<!-- src/stores/videosStore.ts -->
<g id="node17" class="node">
<title>src/stores/videosStore.ts</title>
<g id="a_node17"><a xlink:href="src/stores/videosStore.ts" xlink:title="videosStore.ts">
<path fill="#ddfeff" stroke="black" d="M539.96,-59.62C539.96,-59.62 478.29,-59.62 478.29,-59.62 475.08,-59.62 471.88,-56.42 471.88,-53.21 471.88,-53.21 471.88,-46.79 471.88,-46.79 471.88,-43.58 475.08,-40.38 478.29,-40.38 478.29,-40.38 539.96,-40.38 539.96,-40.38 543.17,-40.38 546.38,-43.58 546.38,-46.79 546.38,-46.79 546.38,-53.21 546.38,-53.21 546.38,-56.42 543.17,-59.62 539.96,-59.62"/>
<text text-anchor="start" x="479.88" y="-47.08" font-family="Helvetica,sans-Serif" font-size="9.00">videosStore.ts</text>
</a>
</g>
</g>
<!-- src/views/NavBar.vue&#45;&gt;src/stores/videosStore.ts -->
<g id="edge36" class="edge">
<title>src/views/NavBar.vue&#45;&gt;src/stores/videosStore.ts</title>
<path fill="none" stroke="#000000" stroke-width="2" stroke-opacity="0.200000" d="M272.98,-128.11C283.5,-117.31 301.82,-100.31 321,-91 366.47,-68.92 423.92,-58.6 463.09,-53.87"/>
<polygon fill="#000000" fill-opacity="0.200000" stroke="#000000" stroke-width="2" stroke-opacity="0.200000" points="462.92,-56 468.64,-53.23 462.44,-51.83 462.92,-56"/>
</g>
<!-- src/views/NavBar.vue&#45;&gt;src/stores/appStateStore.ts -->
<g id="edge35" class="edge">
<title>src/views/NavBar.vue&#45;&gt;src/stores/appStateStore.ts</title>
<path fill="none" stroke="#000000" stroke-width="2" stroke-opacity="0.200000" d="M294.32,-130.9C335.33,-121.32 408.87,-104.16 458.08,-92.68"/>
<polygon fill="#000000" fill-opacity="0.200000" stroke="#000000" stroke-width="2" stroke-opacity="0.200000" points="458.36,-94.77 463.72,-91.36 457.4,-90.68 458.36,-94.77"/>
</g>
<!-- src/components/VideoCard.vue -->
<g id="node14" class="node">
<title>src/components/VideoCard.vue</title>
<g id="a_node14"><a xlink:href="src/components/VideoCard.vue" xlink:title="VideoCard.vue">
<path fill="#41f083" stroke="black" d="M421.58,-279.62C421.58,-279.62 358.42,-279.62 358.42,-279.62 355.21,-279.62 352,-276.42 352,-273.21 352,-273.21 352,-266.79 352,-266.79 352,-263.58 355.21,-260.38 358.42,-260.38 358.42,-260.38 421.58,-260.38 421.58,-260.38 424.79,-260.38 428,-263.58 428,-266.79 428,-266.79 428,-273.21 428,-273.21 428,-276.42 424.79,-279.62 421.58,-279.62"/>
<text text-anchor="start" x="360" y="-267.07" font-family="Helvetica,sans-Serif" font-size="9.00">VideoCard.vue</text>
</a>
</g>
</g>
<!-- src/views/VideoGallery.vue&#45;&gt;src/components/VideoCard.vue -->
<g id="edge37" class="edge">
<title>src/views/VideoGallery.vue&#45;&gt;src/components/VideoCard.vue</title>
<path fill="none" stroke="#000000" stroke-width="2" stroke-opacity="0.200000" d="M305.34,-176.57C308.21,-178.31 310.82,-180.43 313,-183 333.79,-207.59 299.48,-231.05 321,-255 326.76,-261.41 334.58,-265.41 342.87,-267.85"/>
<polygon fill="#000000" fill-opacity="0.200000" stroke="#000000" stroke-width="2" stroke-opacity="0.200000" points="342.34,-269.88 348.66,-269.18 343.28,-265.79 342.34,-269.88"/>
</g>
<!-- src/views/VideoGallery.vue&#45;&gt;src/stores/videosStore.ts -->
<g id="edge38" class="edge">
<title>src/views/VideoGallery.vue&#45;&gt;src/stores/videosStore.ts</title>
<path fill="none" stroke="#000000" stroke-width="2" stroke-opacity="0.200000" d="M305.23,-159.74C308.05,-158.12 310.69,-156.23 313,-154 320.8,-146.5 313.58,-138.88 321,-131 363.92,-85.48 402.68,-116.74 451,-77 455.95,-72.93 453.86,-68.83 459,-65 460.54,-63.85 462.17,-62.79 463.86,-61.82"/>
<polygon fill="#000000" fill-opacity="0.200000" stroke="#000000" stroke-width="2" stroke-opacity="0.200000" points="464.42,-63.88 468.88,-59.35 462.57,-60.11 464.42,-63.88"/>
</g>
<!-- src/application/services/VideoMetadataService.ts -->
<g id="node5" class="node">
<title>src/application/services/VideoMetadataService.ts</title>
<g id="a_node5"><a xlink:href="src/application/services/VideoMetadataService.ts" xlink:title="VideoMetadataService.ts">
<path fill="#ddfeff" stroke="black" d="M813.83,-181.62C813.83,-181.62 710.17,-181.62 710.17,-181.62 706.96,-181.62 703.75,-178.42 703.75,-175.21 703.75,-175.21 703.75,-168.79 703.75,-168.79 703.75,-165.58 706.96,-162.38 710.17,-162.38 710.17,-162.38 813.83,-162.38 813.83,-162.38 817.04,-162.38 820.25,-165.58 820.25,-168.79 820.25,-168.79 820.25,-175.21 820.25,-175.21 820.25,-178.42 817.04,-181.62 813.83,-181.62"/>
<text text-anchor="start" x="711.75" y="-169.07" font-family="Helvetica,sans-Serif" font-size="9.00">VideoMetadataService.ts</text>
</a>
</g>
</g>
<!-- src/infrastructure/database/migrations/index.ts -->
<g id="node6" class="node">
<title>src/infrastructure/database/migrations/index.ts</title>
<g id="a_node6"><a xlink:href="src/infrastructure/database/migrations/index.ts" xlink:title="index.ts">
<path fill="#ddfeff" stroke="black" d="M1069.08,-142.62C1069.08,-142.62 1027.92,-142.62 1027.92,-142.62 1024.71,-142.62 1021.5,-139.42 1021.5,-136.21 1021.5,-136.21 1021.5,-129.79 1021.5,-129.79 1021.5,-126.58 1024.71,-123.38 1027.92,-123.38 1027.92,-123.38 1069.08,-123.38 1069.08,-123.38 1072.29,-123.38 1075.5,-126.58 1075.5,-129.79 1075.5,-129.79 1075.5,-136.21 1075.5,-136.21 1075.5,-139.42 1072.29,-142.62 1069.08,-142.62"/>
<text text-anchor="start" x="1032.75" y="-130.07" font-family="Helvetica,sans-Serif" font-size="9.00">index.ts</text>
</a>
</g>
</g>
<!-- src/application/services/VideoMetadataService.ts&#45;&gt;src/infrastructure/database/migrations/index.ts -->
<g id="edge4" class="edge">
<title>src/application/services/VideoMetadataService.ts&#45;&gt;src/infrastructure/database/migrations/index.ts</title>
<path fill="none" stroke="#000000" stroke-width="2" stroke-opacity="0.200000" d="M820.56,-162.77C825.97,-161.14 831.28,-159.24 836.25,-157 840.3,-155.18 840.1,-152.59 844.25,-151 900.07,-129.61 970.61,-128.6 1012.21,-130.39"/>
<polygon fill="#000000" fill-opacity="0.200000" stroke="#000000" stroke-width="2" stroke-opacity="0.200000" points="1012.01,-132.49 1018.11,-130.69 1012.22,-128.29 1012.01,-132.49"/>
</g>
<!-- src/infrastructure/repository/MetadataRepository.ts -->
<g id="node7" class="node">
<title>src/infrastructure/repository/MetadataRepository.ts</title>
<g id="a_node7"><a xlink:href="src/infrastructure/repository/MetadataRepository.ts" xlink:title="MetadataRepository.ts">
<path fill="#ddfeff" stroke="black" d="M961.33,-181.62C961.33,-181.62 866.67,-181.62 866.67,-181.62 863.46,-181.62 860.25,-178.42 860.25,-175.21 860.25,-175.21 860.25,-168.79 860.25,-168.79 860.25,-165.58 863.46,-162.38 866.67,-162.38 866.67,-162.38 961.33,-162.38 961.33,-162.38 964.54,-162.38 967.75,-165.58 967.75,-168.79 967.75,-168.79 967.75,-175.21 967.75,-175.21 967.75,-178.42 964.54,-181.62 961.33,-181.62"/>
<text text-anchor="start" x="868.25" y="-169.07" font-family="Helvetica,sans-Serif" font-size="9.00">MetadataRepository.ts</text>
</a>
</g>
</g>
<!-- src/application/services/VideoMetadataService.ts&#45;&gt;src/infrastructure/repository/MetadataRepository.ts -->
<g id="edge5" class="edge">
<title>src/application/services/VideoMetadataService.ts&#45;&gt;src/infrastructure/repository/MetadataRepository.ts</title>
<path fill="none" stroke="#000000" stroke-width="2" stroke-opacity="0.200000" d="M820.56,-172C830.53,-172 840.94,-172 851.02,-172"/>
<polygon fill="#000000" fill-opacity="0.200000" stroke="#000000" stroke-width="2" stroke-opacity="0.200000" points="850.75,-174.1 856.75,-172 850.75,-169.9 850.75,-174.1"/>
</g>
<!-- src/infrastructure/repository/VideoRepository.ts -->
<g id="node8" class="node">
<title>src/infrastructure/repository/VideoRepository.ts</title>
<g id="a_node8"><a xlink:href="src/infrastructure/repository/VideoRepository.ts" xlink:title="VideoRepository.ts">
<path fill="#ddfeff" stroke="black" d="M954.21,-212.62C954.21,-212.62 873.79,-212.62 873.79,-212.62 870.58,-212.62 867.38,-209.42 867.38,-206.21 867.38,-206.21 867.38,-199.79 867.38,-199.79 867.38,-196.58 870.58,-193.38 873.79,-193.38 873.79,-193.38 954.21,-193.38 954.21,-193.38 957.42,-193.38 960.62,-196.58 960.62,-199.79 960.62,-199.79 960.62,-206.21 960.62,-206.21 960.62,-209.42 957.42,-212.62 954.21,-212.62"/>
<text text-anchor="start" x="875.38" y="-200.07" font-family="Helvetica,sans-Serif" font-size="9.00">VideoRepository.ts</text>
</a>
</g>
</g>
<!-- src/application/services/VideoMetadataService.ts&#45;&gt;src/infrastructure/repository/VideoRepository.ts -->
<g id="edge6" class="edge">
<title>src/application/services/VideoMetadataService.ts&#45;&gt;src/infrastructure/repository/VideoRepository.ts</title>
<path fill="none" stroke="#000000" stroke-width="2" stroke-opacity="0.200000" d="M811.7,-182.06C826.57,-185.14 843.03,-188.54 858.27,-191.69"/>
<polygon fill="#000000" fill-opacity="0.200000" stroke="#000000" stroke-width="2" stroke-opacity="0.200000" points="857.83,-193.74 864.13,-192.9 858.68,-189.63 857.83,-193.74"/>
</g>
<!-- src/infrastructure/database/migrations/migrations.ts -->
<g id="node25" class="node">
<title>src/infrastructure/database/migrations/migrations.ts</title>
<g id="a_node25"><a xlink:href="src/infrastructure/database/migrations/migrations.ts" xlink:title="migrations.ts">
<path fill="#ddfeff" stroke="black" d="M1212.71,-130.62C1212.71,-130.62 1155.54,-130.62 1155.54,-130.62 1152.33,-130.62 1149.12,-127.42 1149.12,-124.21 1149.12,-124.21 1149.12,-117.79 1149.12,-117.79 1149.12,-114.58 1152.33,-111.38 1155.54,-111.38 1155.54,-111.38 1212.71,-111.38 1212.71,-111.38 1215.92,-111.38 1219.12,-114.58 1219.12,-117.79 1219.12,-117.79 1219.12,-124.21 1219.12,-124.21 1219.12,-127.42 1215.92,-130.62 1212.71,-130.62"/>
<text text-anchor="start" x="1157.12" y="-118.08" font-family="Helvetica,sans-Serif" font-size="9.00">migrations.ts</text>
</a>
</g>
</g>
<!-- src/infrastructure/database/migrations/index.ts&#45;&gt;src/infrastructure/database/migrations/migrations.ts -->
<g id="edge17" class="edge">
<title>src/infrastructure/database/migrations/index.ts&#45;&gt;src/infrastructure/database/migrations/migrations.ts</title>
<path fill="none" stroke="#000000" stroke-width="2" stroke-opacity="0.200000" d="M1075.9,-130.63C1096.74,-128.76 1125.98,-126.13 1148.67,-124.09"/>
<polygon fill="#000000" fill-opacity="0.200000" stroke="#000000" stroke-width="2" stroke-opacity="0.200000" points="1151.47,-122.7 1155.37,-130.8 1147.27,-126.9 1151.47,-122.7"/>
</g>
<!-- src/domain/constants/index.ts -->
<g id="node19" class="node">
<title>src/domain/constants/index.ts</title>
<g id="a_node19"><a xlink:href="src/domain/constants/index.ts" xlink:title="index.ts">
<path fill="#ddfeff" stroke="black" d="M1204.71,-310.62C1204.71,-310.62 1163.54,-310.62 1163.54,-310.62 1160.33,-310.62 1157.12,-307.42 1157.12,-304.21 1157.12,-304.21 1157.12,-297.79 1157.12,-297.79 1157.12,-294.58 1160.33,-291.38 1163.54,-291.38 1163.54,-291.38 1204.71,-291.38 1204.71,-291.38 1207.92,-291.38 1211.12,-294.58 1211.12,-297.79 1211.12,-297.79 1211.12,-304.21 1211.12,-304.21 1211.12,-307.42 1207.92,-310.62 1204.71,-310.62"/>
<text text-anchor="start" x="1168.38" y="-298.07" font-family="Helvetica,sans-Serif" font-size="9.00">index.ts</text>
</a>
</g>
</g>
<!-- src/infrastructure/repository/MetadataRepository.ts&#45;&gt;src/domain/constants/index.ts -->
<g id="edge22" class="edge">
<title>src/infrastructure/repository/MetadataRepository.ts&#45;&gt;src/domain/constants/index.ts</title>
<path fill="none" stroke="#000000" stroke-width="2" stroke-opacity="0.200000" d="M968.06,-180.61C970.89,-182.39 973.49,-184.5 975.75,-187 992.62,-205.65 967.27,-224.01 983.75,-243 1024.98,-290.5 1102.62,-300.2 1147.89,-301.55"/>
<polygon fill="#000000" fill-opacity="0.200000" stroke="#000000" stroke-width="2" stroke-opacity="0.200000" points="1147.7,-303.65 1153.74,-301.66 1147.78,-299.45 1147.7,-303.65"/>
</g>
<!-- src/domain/entities/Metadata.ts -->
<g id="node20" class="node">
<title>src/domain/entities/Metadata.ts</title>
<g id="a_node20"><a xlink:href="src/domain/entities/Metadata.ts" xlink:title="Metadata.ts">
<path fill="#ddfeff" stroke="black" d="M1319.83,-373.62C1319.83,-373.62 1269.42,-373.62 1269.42,-373.62 1266.21,-373.62 1263,-370.42 1263,-367.21 1263,-367.21 1263,-360.79 1263,-360.79 1263,-357.58 1266.21,-354.38 1269.42,-354.38 1269.42,-354.38 1319.83,-354.38 1319.83,-354.38 1323.04,-354.38 1326.25,-357.58 1326.25,-360.79 1326.25,-360.79 1326.25,-367.21 1326.25,-367.21 1326.25,-370.42 1323.04,-373.62 1319.83,-373.62"/>
<text text-anchor="start" x="1271" y="-361.07" font-family="Helvetica,sans-Serif" font-size="9.00">Metadata.ts</text>
</a>
</g>
</g>
<!-- src/infrastructure/repository/MetadataRepository.ts&#45;&gt;src/domain/entities/Metadata.ts -->
<g id="edge23" class="edge">
<title>src/infrastructure/repository/MetadataRepository.ts&#45;&gt;src/domain/entities/Metadata.ts</title>
<path fill="none" stroke="#000000" stroke-opacity="0.200000" d="M968.02,-180.23C970.9,-182.1 973.52,-184.33 975.75,-187 994.01,-208.88 971.54,-289.25 983.75,-315 1017.38,-385.89 1040.2,-406.36 1113.25,-435 1140.92,-445.85 1224.55,-454.47 1247,-435 1265.99,-418.53 1239.37,-398.69 1255,-379 1255.67,-378.15 1256.4,-377.36 1257.17,-376.6"/>
<polygon fill="none" stroke="#000000" stroke-opacity="0.200000" points="1258.14,-378.5 1261.62,-373.18 1255.58,-375.18 1258.14,-378.5"/>
</g>
<!-- src/domain/repositories/IMetadataRepository.ts -->
<g id="node22" class="node">
<title>src/domain/repositories/IMetadataRepository.ts</title>
<g id="a_node22"><a xlink:href="src/domain/repositories/IMetadataRepository.ts" xlink:title="IMetadataRepository.ts">
<path fill="#ddfeff" stroke="black" d="M1232.58,-373.62C1232.58,-373.62 1135.67,-373.62 1135.67,-373.62 1132.46,-373.62 1129.25,-370.42 1129.25,-367.21 1129.25,-367.21 1129.25,-360.79 1129.25,-360.79 1129.25,-357.58 1132.46,-354.38 1135.67,-354.38 1135.67,-354.38 1232.58,-354.38 1232.58,-354.38 1235.79,-354.38 1239,-357.58 1239,-360.79 1239,-360.79 1239,-367.21 1239,-367.21 1239,-370.42 1235.79,-373.62 1232.58,-373.62"/>
<text text-anchor="start" x="1137.25" y="-361.07" font-family="Helvetica,sans-Serif" font-size="9.00">IMetadataRepository.ts</text>
</a>
</g>
</g>
<!-- src/infrastructure/repository/MetadataRepository.ts&#45;&gt;src/domain/repositories/IMetadataRepository.ts -->
<g id="edge24" class="edge">
<title>src/infrastructure/repository/MetadataRepository.ts&#45;&gt;src/domain/repositories/IMetadataRepository.ts</title>
<path fill="none" stroke="#000000" stroke-opacity="0.200000" d="M968.2,-180.48C971,-182.29 973.55,-184.45 975.75,-187 988.41,-201.72 972.91,-257.89 983.75,-274 1014.75,-320.05 1075.36,-342.86 1121.65,-353.95"/>
<polygon fill="none" stroke="#000000" stroke-opacity="0.200000" points="1121.16,-355.99 1127.47,-355.29 1122.1,-351.9 1121.16,-355.99"/>
</g>
<!-- src/infrastructure/database/DatabaseConnection.ts -->
<g id="node24" class="node">
<title>src/infrastructure/database/DatabaseConnection.ts</title>
<g id="a_node24"><a xlink:href="src/infrastructure/database/DatabaseConnection.ts" xlink:title="DatabaseConnection.ts">
<path fill="#ddfeff" stroke="black" d="M1098.83,-212.62C1098.83,-212.62 998.17,-212.62 998.17,-212.62 994.96,-212.62 991.75,-209.42 991.75,-206.21 991.75,-206.21 991.75,-199.79 991.75,-199.79 991.75,-196.58 994.96,-193.38 998.17,-193.38 998.17,-193.38 1098.83,-193.38 1098.83,-193.38 1102.04,-193.38 1105.25,-196.58 1105.25,-199.79 1105.25,-199.79 1105.25,-206.21 1105.25,-206.21 1105.25,-209.42 1102.04,-212.62 1098.83,-212.62"/>
<text text-anchor="start" x="999.75" y="-200.07" font-family="Helvetica,sans-Serif" font-size="9.00">DatabaseConnection.ts</text>
</a>
</g>
</g>
<!-- src/infrastructure/repository/MetadataRepository.ts&#45;&gt;src/infrastructure/database/DatabaseConnection.ts -->
<g id="edge25" class="edge">
<title>src/infrastructure/repository/MetadataRepository.ts&#45;&gt;src/infrastructure/database/DatabaseConnection.ts</title>
<path fill="none" stroke="#000000" stroke-width="2" stroke-opacity="0.200000" d="M958.02,-182.06C970.05,-184.88 983.26,-187.97 995.74,-190.89"/>
<polygon fill="#000000" fill-opacity="0.200000" stroke="#000000" stroke-width="2" stroke-opacity="0.200000" points="994.98,-192.87 1001.3,-192.19 995.93,-188.78 994.98,-192.87"/>
</g>
<!-- src/infrastructure/repository/VideoRepository.ts&#45;&gt;src/domain/constants/index.ts -->
<g id="edge26" class="edge">
<title>src/infrastructure/repository/VideoRepository.ts&#45;&gt;src/domain/constants/index.ts</title>
<path fill="none" stroke="#000000" stroke-width="2" stroke-opacity="0.200000" d="M920.67,-213.01C930.85,-229.92 953.97,-263.77 983.75,-279 1036.21,-305.83 1106.42,-306.8 1148,-304.38"/>
<polygon fill="#000000" fill-opacity="0.200000" stroke="#000000" stroke-width="2" stroke-opacity="0.200000" points="1148.06,-306.48 1153.9,-303.98 1147.78,-302.29 1148.06,-306.48"/>
</g>
<!-- src/domain/entities/Video.ts -->
<g id="node21" class="node">
<title>src/domain/entities/Video.ts</title>
<g id="a_node21"><a xlink:href="src/domain/entities/Video.ts" xlink:title="Video.ts">
<path fill="#ddfeff" stroke="black" d="M1315.21,-404.62C1315.21,-404.62 1274.04,-404.62 1274.04,-404.62 1270.83,-404.62 1267.62,-401.42 1267.62,-398.21 1267.62,-398.21 1267.62,-391.79 1267.62,-391.79 1267.62,-388.58 1270.83,-385.38 1274.04,-385.38 1274.04,-385.38 1315.21,-385.38 1315.21,-385.38 1318.42,-385.38 1321.62,-388.58 1321.62,-391.79 1321.62,-391.79 1321.62,-398.21 1321.62,-398.21 1321.62,-401.42 1318.42,-404.62 1315.21,-404.62"/>
<text text-anchor="start" x="1278.12" y="-392.07" font-family="Helvetica,sans-Serif" font-size="9.00">Video.ts</text>
</a>
</g>
</g>
<!-- src/infrastructure/repository/VideoRepository.ts&#45;&gt;src/domain/entities/Video.ts -->
<g id="edge27" class="edge">
<title>src/infrastructure/repository/VideoRepository.ts&#45;&gt;src/domain/entities/Video.ts</title>
<path fill="none" stroke="#000000" stroke-opacity="0.200000" d="M918.41,-213.05C926.79,-236.78 950.2,-297.4 983.75,-339 1030.27,-396.67 1043.41,-419.24 1113.25,-444 1169.28,-463.86 1192.37,-467.43 1247,-444 1262.66,-437.28 1275.55,-422.43 1283.78,-410.83"/>
<polygon fill="none" stroke="#000000" stroke-opacity="0.200000" points="1285.39,-412.2 1287.01,-406.05 1281.91,-409.85 1285.39,-412.2"/>
</g>
<!-- src/domain/repositories/IVideoRepository.ts -->
<g id="node23" class="node">
<title>src/domain/repositories/IVideoRepository.ts</title>
<g id="a_node23"><a xlink:href="src/domain/repositories/IVideoRepository.ts" xlink:title="IVideoRepository.ts">
<path fill="#ddfeff" stroke="black" d="M1225.46,-404.62C1225.46,-404.62 1142.79,-404.62 1142.79,-404.62 1139.58,-404.62 1136.38,-401.42 1136.38,-398.21 1136.38,-398.21 1136.38,-391.79 1136.38,-391.79 1136.38,-388.58 1139.58,-385.38 1142.79,-385.38 1142.79,-385.38 1225.46,-385.38 1225.46,-385.38 1228.67,-385.38 1231.88,-388.58 1231.88,-391.79 1231.88,-391.79 1231.88,-398.21 1231.88,-398.21 1231.88,-401.42 1228.67,-404.62 1225.46,-404.62"/>
<text text-anchor="start" x="1144.38" y="-392.07" font-family="Helvetica,sans-Serif" font-size="9.00">IVideoRepository.ts</text>
</a>
</g>
</g>
<!-- src/infrastructure/repository/VideoRepository.ts&#45;&gt;src/domain/repositories/IVideoRepository.ts -->
<g id="edge28" class="edge">
<title>src/infrastructure/repository/VideoRepository.ts&#45;&gt;src/domain/repositories/IVideoRepository.ts</title>
<path fill="none" stroke="#000000" stroke-opacity="0.200000" d="M920.64,-212.86C931.29,-230.89 955.82,-269.72 983.75,-296 1033.72,-343 1049.89,-353.7 1113.25,-380 1118.33,-382.11 1123.74,-383.93 1129.22,-385.51"/>
<polygon fill="none" stroke="#000000" stroke-opacity="0.200000" points="1128.37,-387.46 1134.71,-386.99 1129.46,-383.41 1128.37,-387.46"/>
</g>
<!-- src/infrastructure/repository/VideoRepository.ts&#45;&gt;src/infrastructure/database/DatabaseConnection.ts -->
<g id="edge29" class="edge">
<title>src/infrastructure/repository/VideoRepository.ts&#45;&gt;src/infrastructure/database/DatabaseConnection.ts</title>
<path fill="none" stroke="#000000" stroke-width="2" stroke-opacity="0.200000" d="M960.97,-203C968.06,-203 975.5,-203 982.9,-203"/>
<polygon fill="#000000" fill-opacity="0.200000" stroke="#000000" stroke-width="2" stroke-opacity="0.200000" points="982.54,-205.1 988.54,-203 982.54,-200.9 982.54,-205.1"/>
</g>
<!-- src/application/services/VideoParserService.ts -->
<g id="node9" class="node">
<title>src/application/services/VideoParserService.ts</title>
<g id="a_node9"><a xlink:href="src/application/services/VideoParserService.ts" xlink:title="VideoParserService.ts">
<path fill="#ddfeff" stroke="black" d="M684.33,-181.62C684.33,-181.62 590.42,-181.62 590.42,-181.62 587.21,-181.62 584,-178.42 584,-175.21 584,-175.21 584,-168.79 584,-168.79 584,-165.58 587.21,-162.38 590.42,-162.38 590.42,-162.38 684.33,-162.38 684.33,-162.38 687.54,-162.38 690.75,-165.58 690.75,-168.79 690.75,-168.79 690.75,-175.21 690.75,-175.21 690.75,-178.42 687.54,-181.62 684.33,-181.62"/>
<text text-anchor="start" x="592" y="-169.07" font-family="Helvetica,sans-Serif" font-size="9.00">VideoParserService.ts</text>
</a>
</g>
</g>
<!-- src/application/services/VideoParserService.ts&#45;&gt;src/application/services/VideoMetadataService.ts -->
<g id="edge7" class="edge">
<title>src/application/services/VideoParserService.ts&#45;&gt;src/application/services/VideoMetadataService.ts</title>
<path fill="none" stroke="#000000" stroke-width="2" stroke-opacity="0.200000" d="M691.09,-172C692.39,-172 693.69,-172 695,-172"/>
<polygon fill="#000000" fill-opacity="0.200000" stroke="#000000" stroke-width="2" stroke-opacity="0.200000" points="694.61,-174.1 700.61,-172 694.61,-169.9 694.61,-174.1"/>
</g>
<!-- src/application/services/filters/Filters.ts -->
<g id="node10" class="node">
<title>src/application/services/filters/Filters.ts</title>
<g id="a_node10"><a xlink:href="src/application/services/filters/Filters.ts" xlink:title="Filters.ts">
<path fill="#ddfeff" stroke="black" d="M782.58,-126.62C782.58,-126.62 741.42,-126.62 741.42,-126.62 738.21,-126.62 735,-123.42 735,-120.21 735,-120.21 735,-113.79 735,-113.79 735,-110.58 738.21,-107.38 741.42,-107.38 741.42,-107.38 782.58,-107.38 782.58,-107.38 785.79,-107.38 789,-110.58 789,-113.79 789,-113.79 789,-120.21 789,-120.21 789,-123.42 785.79,-126.62 782.58,-126.62"/>
<text text-anchor="start" x="744.38" y="-114.08" font-family="Helvetica,sans-Serif" font-size="9.00">Filters.ts</text>
</a>
</g>
</g>
<!-- src/application/services/filters/index.ts -->
<g id="node11" class="node">
<title>src/application/services/filters/index.ts</title>
<g id="a_node11"><a xlink:href="src/application/services/filters/index.ts" xlink:title="index.ts">
<path fill="#ddfeff" stroke="black" d="M657.96,-126.62C657.96,-126.62 616.79,-126.62 616.79,-126.62 613.58,-126.62 610.38,-123.42 610.38,-120.21 610.38,-120.21 610.38,-113.79 610.38,-113.79 610.38,-110.58 613.58,-107.38 616.79,-107.38 616.79,-107.38 657.96,-107.38 657.96,-107.38 661.17,-107.38 664.38,-110.58 664.38,-113.79 664.38,-113.79 664.38,-120.21 664.38,-120.21 664.38,-123.42 661.17,-126.62 657.96,-126.62"/>
<text text-anchor="start" x="621.62" y="-114.08" font-family="Helvetica,sans-Serif" font-size="9.00">index.ts</text>
</a>
</g>
</g>
<!-- src/application/services/filters/index.ts&#45;&gt;src/application/services/filters/Filters.ts -->
<g id="edge8" class="edge">
<title>src/application/services/filters/index.ts&#45;&gt;src/application/services/filters/Filters.ts</title>
<path fill="none" stroke="#000000" stroke-width="2" stroke-opacity="0.200000" d="M664.68,-117C685.37,-117 714.06,-117 734.74,-117"/>
<polygon fill="#000000" fill-opacity="0.200000" stroke="#000000" stroke-width="2" stroke-opacity="0.200000" points="737.54,-115.61 741.44,-123.71 733.34,-119.81 737.54,-115.61"/>
</g>
<!-- src/assets/effects/FadeTransition.vue -->
<g id="node12" class="node">
<title>src/assets/effects/FadeTransition.vue</title>
<g id="a_node12"><a xlink:href="src/assets/effects/FadeTransition.vue" xlink:title="no&#45;orphans">
<path fill="#ccffcc" stroke="orange" d="M182.33,-388.62C182.33,-388.62 100.42,-388.62 100.42,-388.62 97.21,-388.62 94,-385.42 94,-382.21 94,-382.21 94,-375.79 94,-375.79 94,-372.58 97.21,-369.38 100.42,-369.38 100.42,-369.38 182.33,-369.38 182.33,-369.38 185.54,-369.38 188.75,-372.58 188.75,-375.79 188.75,-375.79 188.75,-382.21 188.75,-382.21 188.75,-385.42 185.54,-388.62 182.33,-388.62"/>
<text text-anchor="start" x="102" y="-376.07" font-family="Helvetica,sans-Serif" font-size="9.00" fill="orange">FadeTransition.vue</text>
</a>
</g>
</g>
<!-- src/assets/main.css -->
<g id="node13" class="node">
<title>src/assets/main.css</title>
<g id="a_node13"><a xlink:href="src/assets/main.css" xlink:title="main.css">
<path fill="#ffffcc" stroke="black" d="M162.08,-352.62C162.08,-352.62 120.67,-352.62 120.67,-352.62 117.46,-352.62 114.25,-349.42 114.25,-346.21 114.25,-346.21 114.25,-339.79 114.25,-339.79 114.25,-336.58 117.46,-333.38 120.67,-333.38 120.67,-333.38 162.08,-333.38 162.08,-333.38 165.29,-333.38 168.5,-336.58 168.5,-339.79 168.5,-339.79 168.5,-346.21 168.5,-346.21 168.5,-349.42 165.29,-352.62 162.08,-352.62"/>
<text text-anchor="start" x="122.25" y="-340.07" font-family="Helvetica,sans-Serif" font-size="9.00">main.css</text>
</a>
</g>
</g>
<!-- src/components/VideoCard.vue&#45;&gt;src/application/services/VideoMetadataService.ts -->
<g id="edge10" class="edge">
<title>src/components/VideoCard.vue&#45;&gt;src/application/services/VideoMetadataService.ts</title>
<path fill="none" stroke="#000000" stroke-width="2" stroke-opacity="0.200000" d="M428.48,-272.5C463.1,-273.87 515.72,-273.52 560,-263 627.56,-246.95 700.23,-208 736.9,-186.63"/>
<polygon fill="#000000" fill-opacity="0.200000" stroke="#000000" stroke-width="2" stroke-opacity="0.200000" points="737.87,-188.49 741.97,-183.63 735.74,-184.87 737.87,-188.49"/>
</g>
<!-- src/components/VideoEmbed.vue -->
<g id="node15" class="node">
<title>src/components/VideoEmbed.vue</title>
<g id="a_node15"><a xlink:href="src/components/VideoEmbed.vue" xlink:title="VideoEmbed.vue">
<path fill="#41f083" stroke="black" d="M545.58,-256.62C545.58,-256.62 472.67,-256.62 472.67,-256.62 469.46,-256.62 466.25,-253.42 466.25,-250.21 466.25,-250.21 466.25,-243.79 466.25,-243.79 466.25,-240.58 469.46,-237.38 472.67,-237.38 472.67,-237.38 545.58,-237.38 545.58,-237.38 548.79,-237.38 552,-240.58 552,-243.79 552,-243.79 552,-250.21 552,-250.21 552,-253.42 548.79,-256.62 545.58,-256.62"/>
<text text-anchor="start" x="474.25" y="-244.07" font-family="Helvetica,sans-Serif" font-size="9.00">VideoEmbed.vue</text>
</a>
</g>
</g>
<!-- src/components/VideoCard.vue&#45;&gt;src/components/VideoEmbed.vue -->
<g id="edge9" class="edge">
<title>src/components/VideoCard.vue&#45;&gt;src/components/VideoEmbed.vue</title>
<path fill="none" stroke="#000000" stroke-width="2" stroke-opacity="0.200000" d="M428.38,-262.66C437.5,-260.87 447.42,-258.92 457.06,-257.03"/>
<polygon fill="#000000" fill-opacity="0.200000" stroke="#000000" stroke-width="2" stroke-opacity="0.200000" points="457.35,-259.11 462.84,-255.89 456.55,-254.99 457.35,-259.11"/>
</g>
<!-- src/components/inputs/FolderSelector.vue&#45;&gt;src/application/services/VideoParserService.ts -->
<g id="edge11" class="edge">
<title>src/components/inputs/FolderSelector.vue&#45;&gt;src/application/services/VideoParserService.ts</title>
<path fill="none" stroke="#000000" stroke-width="2" stroke-opacity="0.200000" d="M436.58,-155.71C475.52,-158.89 531.91,-163.48 574.85,-166.99"/>
<polygon fill="#000000" fill-opacity="0.200000" stroke="#000000" stroke-width="2" stroke-opacity="0.200000" points="574.63,-169.07 580.78,-167.47 574.97,-164.89 574.63,-169.07"/>
</g>
<!-- src/components/inputs/FolderSelector.vue&#45;&gt;src/stores/videosStore.ts -->
<g id="edge12" class="edge">
<title>src/components/inputs/FolderSelector.vue&#45;&gt;src/stores/videosStore.ts</title>
<path fill="none" stroke="#000000" stroke-width="2" stroke-opacity="0.200000" d="M417.21,-141.96C429.38,-135.96 442.92,-127.11 451,-115 463.49,-96.28 444.22,-81.97 459,-65 460.49,-63.29 462.16,-61.78 463.97,-60.43"/>
<polygon fill="#000000" fill-opacity="0.200000" stroke="#000000" stroke-width="2" stroke-opacity="0.200000" points="464.77,-62.4 468.9,-57.56 462.66,-58.77 464.77,-62.4"/>
</g>
<!-- src/stores/videosStore.ts&#45;&gt;src/application/services/filters/index.ts -->
<g id="edge33" class="edge">
<title>src/stores/videosStore.ts&#45;&gt;src/application/services/filters/index.ts</title>
<path fill="none" stroke="#000000" stroke-width="2" stroke-opacity="0.200000" d="M546.84,-59.63C551.35,-61.23 555.84,-63.02 560,-65 580.9,-74.97 602.52,-90.23 617.4,-101.65"/>
<polygon fill="#000000" fill-opacity="0.200000" stroke="#000000" stroke-width="2" stroke-opacity="0.200000" points="615.72,-103 621.74,-105.04 618.31,-99.69 615.72,-103"/>
</g>
<!-- src/domain/repositories/IMetadataRepository.ts&#45;&gt;src/domain/entities/Metadata.ts -->
<g id="edge14" class="edge">
<title>src/domain/repositories/IMetadataRepository.ts&#45;&gt;src/domain/entities/Metadata.ts</title>
<path fill="none" stroke="#000000" stroke-opacity="0.200000" d="M1239.38,-364C1244.71,-364 1250.05,-364 1255.19,-364"/>
<polygon fill="none" stroke="#000000" stroke-opacity="0.200000" points="1255.02,-366.1 1261.02,-364 1255.02,-361.9 1255.02,-366.1"/>
</g>
<!-- src/domain/repositories/IVideoRepository.ts&#45;&gt;src/domain/entities/Video.ts -->
<g id="edge15" class="edge">
<title>src/domain/repositories/IVideoRepository.ts&#45;&gt;src/domain/entities/Video.ts</title>
<path fill="none" stroke="#000000" stroke-opacity="0.200000" d="M1232.08,-395C1241.39,-395 1250.98,-395 1259.74,-395"/>
<polygon fill="none" stroke="#000000" stroke-opacity="0.200000" points="1259.69,-397.1 1265.69,-395 1259.69,-392.9 1259.69,-397.1"/>
</g>
<!-- src/infrastructure/database/DatabaseConnection.ts&#45;&gt;src/domain/constants/index.ts -->
<g id="edge16" class="edge">
<title>src/infrastructure/database/DatabaseConnection.ts&#45;&gt;src/domain/constants/index.ts</title>
<path fill="none" stroke="#000000" stroke-width="2" stroke-opacity="0.200000" d="M1063.3,-213.12C1086.82,-230.37 1134.83,-265.58 1162.4,-285.8"/>
<polygon fill="#000000" fill-opacity="0.200000" stroke="#000000" stroke-width="2" stroke-opacity="0.200000" points="1161.08,-287.44 1167.16,-289.29 1163.56,-284.05 1161.08,-287.44"/>
</g>
<!-- src/infrastructure/database/migrations/v1/index.ts -->
<g id="node26" class="node">
<title>src/infrastructure/database/migrations/v1/index.ts</title>
<g id="a_node26"><a xlink:href="src/infrastructure/database/migrations/v1/index.ts" xlink:title="index.ts">
<path fill="#ddfeff" stroke="black" d="M1315.21,-67.62C1315.21,-67.62 1274.04,-67.62 1274.04,-67.62 1270.83,-67.62 1267.62,-64.42 1267.62,-61.21 1267.62,-61.21 1267.62,-54.79 1267.62,-54.79 1267.62,-51.58 1270.83,-48.38 1274.04,-48.38 1274.04,-48.38 1315.21,-48.38 1315.21,-48.38 1318.42,-48.38 1321.62,-51.58 1321.62,-54.79 1321.62,-54.79 1321.62,-61.21 1321.62,-61.21 1321.62,-64.42 1318.42,-67.62 1315.21,-67.62"/>
<text text-anchor="start" x="1278.88" y="-55.08" font-family="Helvetica,sans-Serif" font-size="9.00">index.ts</text>
</a>
</g>
</g>
<!-- src/infrastructure/database/migrations/migrations.ts&#45;&gt;src/infrastructure/database/migrations/v1/index.ts -->
<g id="edge18" class="edge">
<title>src/infrastructure/database/migrations/migrations.ts&#45;&gt;src/infrastructure/database/migrations/v1/index.ts</title>
<path fill="none" stroke="#000000" stroke-width="2" stroke-opacity="0.200000" d="M1202.56,-110.88C1220.43,-100.5 1248.4,-84.26 1268.63,-72.51"/>
<polygon fill="#000000" fill-opacity="0.200000" stroke="#000000" stroke-width="2" stroke-opacity="0.200000" points="1269.48,-74.45 1273.62,-69.62 1267.37,-70.81 1269.48,-74.45"/>
</g>
<!-- src/infrastructure/database/migrations/v2/index.ts -->
<g id="node27" class="node">
<title>src/infrastructure/database/migrations/v2/index.ts</title>
<g id="a_node27"><a xlink:href="src/infrastructure/database/migrations/v2/index.ts" xlink:title="index.ts">
<path fill="#ddfeff" stroke="black" d="M1315.21,-130.62C1315.21,-130.62 1274.04,-130.62 1274.04,-130.62 1270.83,-130.62 1267.62,-127.42 1267.62,-124.21 1267.62,-124.21 1267.62,-117.79 1267.62,-117.79 1267.62,-114.58 1270.83,-111.38 1274.04,-111.38 1274.04,-111.38 1315.21,-111.38 1315.21,-111.38 1318.42,-111.38 1321.62,-114.58 1321.62,-117.79 1321.62,-117.79 1321.62,-124.21 1321.62,-124.21 1321.62,-127.42 1318.42,-130.62 1315.21,-130.62"/>
<text text-anchor="start" x="1278.88" y="-118.08" font-family="Helvetica,sans-Serif" font-size="9.00">index.ts</text>
</a>
</g>
</g>
<!-- src/infrastructure/database/migrations/migrations.ts&#45;&gt;src/infrastructure/database/migrations/v2/index.ts -->
<g id="edge19" class="edge">
<title>src/infrastructure/database/migrations/migrations.ts&#45;&gt;src/infrastructure/database/migrations/v2/index.ts</title>
<path fill="none" stroke="#000000" stroke-width="2" stroke-opacity="0.200000" d="M1219.46,-121C1231.94,-121 1246.07,-121 1258.62,-121"/>
<polygon fill="#000000" fill-opacity="0.200000" stroke="#000000" stroke-width="2" stroke-opacity="0.200000" points="1258.4,-123.1 1264.4,-121 1258.4,-118.9 1258.4,-123.1"/>
</g>
<!-- src/infrastructure/database/migrations/utils/index.ts -->
<g id="node28" class="node">
<title>src/infrastructure/database/migrations/utils/index.ts</title>
<g id="a_node28"><a xlink:href="src/infrastructure/database/migrations/utils/index.ts" xlink:title="index.ts">
<path fill="#ddfeff" stroke="black" d="M1405.83,-98.62C1405.83,-98.62 1364.67,-98.62 1364.67,-98.62 1361.46,-98.62 1358.25,-95.42 1358.25,-92.21 1358.25,-92.21 1358.25,-85.79 1358.25,-85.79 1358.25,-82.58 1361.46,-79.38 1364.67,-79.38 1364.67,-79.38 1405.83,-79.38 1405.83,-79.38 1409.04,-79.38 1412.25,-82.58 1412.25,-85.79 1412.25,-85.79 1412.25,-92.21 1412.25,-92.21 1412.25,-95.42 1409.04,-98.62 1405.83,-98.62"/>
<text text-anchor="start" x="1369.5" y="-86.08" font-family="Helvetica,sans-Serif" font-size="9.00">index.ts</text>
</a>
</g>
</g>
<!-- src/infrastructure/database/migrations/v1/index.ts&#45;&gt;src/infrastructure/database/migrations/utils/index.ts -->
<g id="edge20" class="edge">
<title>src/infrastructure/database/migrations/v1/index.ts&#45;&gt;src/infrastructure/database/migrations/utils/index.ts</title>
<path fill="none" stroke="#000000" stroke-width="2" stroke-opacity="0.200000" d="M1321.74,-67.13C1330.49,-70.2 1340.4,-73.66 1349.7,-76.91"/>
<polygon fill="#000000" fill-opacity="0.200000" stroke="#000000" stroke-width="2" stroke-opacity="0.200000" points="1348.81,-78.83 1355.16,-78.83 1350.19,-74.86 1348.81,-78.83"/>
</g>
<!-- src/infrastructure/database/migrations/v2/index.ts&#45;&gt;src/infrastructure/database/migrations/utils/index.ts -->
<g id="edge21" class="edge">
<title>src/infrastructure/database/migrations/v2/index.ts&#45;&gt;src/infrastructure/database/migrations/utils/index.ts</title>
<path fill="none" stroke="#000000" stroke-width="2" stroke-opacity="0.200000" d="M1321.74,-111.57C1330.49,-108.41 1340.4,-104.83 1349.7,-101.48"/>
<polygon fill="#000000" fill-opacity="0.200000" stroke="#000000" stroke-width="2" stroke-opacity="0.200000" points="1350.24,-103.51 1355.17,-99.5 1348.82,-99.56 1350.24,-103.51"/>
</g>
<!-- src/main.ts -->
<g id="node29" class="node">
<title>src/main.ts</title>
<g id="a_node29"><a xlink:href="src/main.ts" xlink:title="main.ts">
<path fill="#ddfeff" stroke="black" d="M63.58,-325.62C63.58,-325.62 22.42,-325.62 22.42,-325.62 19.21,-325.62 16,-322.42 16,-319.21 16,-319.21 16,-312.79 16,-312.79 16,-309.58 19.21,-306.38 22.42,-306.38 22.42,-306.38 63.58,-306.38 63.58,-306.38 66.79,-306.38 70,-309.58 70,-312.79 70,-312.79 70,-319.21 70,-319.21 70,-322.42 66.79,-325.62 63.58,-325.62"/>
<text text-anchor="start" x="27.62" y="-313.07" font-family="Helvetica,sans-Serif" font-size="9.00">main.ts</text>
</a>
</g>
</g>
<!-- src/main.ts&#45;&gt;src/App.vue -->
<g id="edge30" class="edge">
<title>src/main.ts&#45;&gt;src/App.vue</title>
<path fill="none" stroke="#000000" stroke-width="2" stroke-opacity="0.200000" d="M51.56,-306.27C67.88,-285.28 106.57,-235.5 127.08,-209.11"/>
<polygon fill="#000000" fill-opacity="0.200000" stroke="#000000" stroke-width="2" stroke-opacity="0.200000" points="128.7,-210.45 130.72,-204.42 125.38,-207.87 128.7,-210.45"/>
</g>
<!-- src/main.ts&#45;&gt;src/application/services/VideoMetadataService.ts -->
<g id="edge32" class="edge">
<title>src/main.ts&#45;&gt;src/application/services/VideoMetadataService.ts</title>
<path fill="none" stroke="#000000" stroke-width="2" stroke-opacity="0.200000" d="M70.5,-316C111.51,-316 192.84,-316 261.88,-316 261.88,-316 261.88,-316 510.12,-316 597.22,-316 620.39,-291.33 690.75,-240 711.96,-224.52 733.19,-202.92 746.67,-188.25"/>
<polygon fill="#000000" fill-opacity="0.200000" stroke="#000000" stroke-width="2" stroke-opacity="0.200000" points="748.13,-189.76 750.6,-183.9 745.01,-186.95 748.13,-189.76"/>
</g>
<!-- src/main.ts&#45;&gt;src/assets/main.css -->
<g id="edge31" class="edge">
<title>src/main.ts&#45;&gt;src/assets/main.css</title>
<path fill="none" stroke="#000000" stroke-width="2" stroke-opacity="0.200000" d="M69.11,-326.07C72.09,-327.12 75.1,-328.12 78,-329 86.69,-331.62 96.19,-333.99 105.09,-336.01"/>
<polygon fill="#000000" fill-opacity="0.200000" stroke="#000000" stroke-width="2" stroke-opacity="0.200000" points="104.48,-338.03 110.79,-337.26 105.38,-333.93 104.48,-338.03"/>
</g>
</g>
</svg>
