<?xml version="1.0" encoding="UTF-8" standalone="no"?>
<!DOCTYPE svg PUBLIC "-//W3C//DTD SVG 1.1//EN"
 "http://www.w3.org/Graphics/SVG/1.1/DTD/svg11.dtd">
<!-- Generated by graphviz version 9.0.0 (20230911.1827)
 -->
<!-- Title: dependency&#45;cruiser output Pages: 1 -->
<svg width="1592pt" height="643pt"
 viewBox="0.00 0.00 1592.00 643.00" xmlns="http://www.w3.org/2000/svg" xmlns:xlink="http://www.w3.org/1999/xlink">
<g id="graph0" class="graph" transform="scale(1 1) rotate(0) translate(4 639)">
<title>dependency&#45;cruiser output</title>
<polygon fill="white" stroke="none" points="-4,4 -4,-639 1588,-639 1588,4 -4,4"/>
<g id="clust1" class="cluster">
<title>cluster_src</title>
<path fill="#ffffff" stroke="black" stroke-width="2" d="M20,-8C20,-8 1564,-8 1564,-8 1570,-8 1576,-14 1576,-20 1576,-20 1576,-615 1576,-615 1576,-621 1570,-627 1564,-627 1564,-627 20,-627 20,-627 14,-627 8,-621 8,-615 8,-615 8,-20 8,-20 8,-14 14,-8 20,-8"/>
<text text-anchor="middle" x="792" y="-614.45" font-family="Helvetica,sans-Serif" font-weight="bold" font-size="9.00">src</text>
</g>
<g id="clust2" class="cluster">
<title>cluster_src/application</title>
<path fill="#ffffff" stroke="black" stroke-width="2" d="M512.25,-208C512.25,-208 949.5,-208 949.5,-208 955.5,-208 961.5,-214 961.5,-220 961.5,-220 961.5,-348 961.5,-348 961.5,-354 955.5,-360 949.5,-360 949.5,-360 512.25,-360 512.25,-360 506.25,-360 500.25,-354 500.25,-348 500.25,-348 500.25,-220 500.25,-220 500.25,-214 506.25,-208 512.25,-208"/>
<text text-anchor="middle" x="730.88" y="-347.45" font-family="Helvetica,sans-Serif" font-weight="bold" font-size="9.00">application</text>
</g>
<g id="clust3" class="cluster">
<title>cluster_src/application/services</title>
<path fill="#ffffff" stroke="black" stroke-width="2" d="M582.25,-216C582.25,-216 941.5,-216 941.5,-216 947.5,-216 953.5,-222 953.5,-228 953.5,-228 953.5,-321 953.5,-321 953.5,-327 947.5,-333 941.5,-333 941.5,-333 582.25,-333 582.25,-333 576.25,-333 570.25,-327 570.25,-321 570.25,-321 570.25,-228 570.25,-228 570.25,-222 576.25,-216 582.25,-216"/>
<text text-anchor="middle" x="761.88" y="-320.45" font-family="Helvetica,sans-Serif" font-weight="bold" font-size="9.00">services</text>
</g>
<g id="clust4" class="cluster">
<title>cluster_src/components</title>
<path fill="#ffffff" stroke="black" stroke-width="2" d="M265.25,-304C265.25,-304 480.25,-304 480.25,-304 486.25,-304 492.25,-310 492.25,-316 492.25,-316 492.25,-473 492.25,-473 492.25,-479 486.25,-485 480.25,-485 480.25,-485 265.25,-485 265.25,-485 259.25,-485 253.25,-479 253.25,-473 253.25,-473 253.25,-316 253.25,-316 253.25,-310 259.25,-304 265.25,-304"/>
<text text-anchor="middle" x="372.75" y="-472.45" font-family="Helvetica,sans-Serif" font-weight="bold" font-size="9.00">components</text>
</g>
<g id="clust5" class="cluster">
<title>cluster_src/components/inputs</title>
<path fill="#ffffff" stroke="black" stroke-width="2" d="M292.38,-312C292.38,-312 352.12,-312 352.12,-312 358.12,-312 364.12,-318 364.12,-324 364.12,-324 364.12,-355 364.12,-355 364.12,-361 358.12,-367 352.12,-367 352.12,-367 292.38,-367 292.38,-367 286.38,-367 280.38,-361 280.38,-355 280.38,-355 280.38,-324 280.38,-324 280.38,-318 286.38,-312 292.38,-312"/>
<text text-anchor="middle" x="322.25" y="-354.45" font-family="Helvetica,sans-Serif" font-weight="bold" font-size="9.00">inputs</text>
</g>
<g id="clust6" class="cluster">
<title>cluster_src/components/utils</title>
<path fill="#ffffff" stroke="black" stroke-width="2" d="M273.25,-375C273.25,-375 371.25,-375 371.25,-375 377.25,-375 383.25,-381 383.25,-387 383.25,-387 383.25,-418 383.25,-418 383.25,-424 377.25,-430 371.25,-430 371.25,-430 273.25,-430 273.25,-430 267.25,-430 261.25,-424 261.25,-418 261.25,-418 261.25,-387 261.25,-387 261.25,-381 267.25,-375 273.25,-375"/>
<text text-anchor="middle" x="322.25" y="-417.45" font-family="Helvetica,sans-Serif" font-weight="bold" font-size="9.00">utils</text>
</g>
<g id="clust7" class="cluster">
<title>cluster_src/domain</title>
<path fill="#ffffff" stroke="black" stroke-width="2" d="M1142.75,-208C1142.75,-208 1556,-208 1556,-208 1562,-208 1568,-214 1568,-220 1568,-220 1568,-588 1568,-588 1568,-594 1562,-600 1556,-600 1556,-600 1142.75,-600 1142.75,-600 1136.75,-600 1130.75,-594 1130.75,-588 1130.75,-588 1130.75,-220 1130.75,-220 1130.75,-214 1136.75,-208 1142.75,-208"/>
<text text-anchor="middle" x="1349.38" y="-587.45" font-family="Helvetica,sans-Serif" font-weight="bold" font-size="9.00">domain</text>
</g>
<g id="clust8" class="cluster">
<title>cluster_src/domain/constants</title>
<path fill="#ffffff" stroke="black" stroke-width="2" d="M1286.38,-424C1286.38,-424 1332.38,-424 1332.38,-424 1338.38,-424 1344.38,-430 1344.38,-436 1344.38,-436 1344.38,-467 1344.38,-467 1344.38,-473 1338.38,-479 1332.38,-479 1332.38,-479 1286.38,-479 1286.38,-479 1280.38,-479 1274.38,-473 1274.38,-467 1274.38,-467 1274.38,-436 1274.38,-436 1274.38,-430 1280.38,-424 1286.38,-424"/>
<text text-anchor="middle" x="1309.38" y="-466.45" font-family="Helvetica,sans-Serif" font-weight="bold" font-size="9.00">constants</text>
</g>
<g id="clust10" class="cluster">
<title>cluster_src/domain/repositories</title>
<path fill="#ffffff" stroke="black" stroke-width="2" d="M1258.5,-320C1258.5,-320 1360.25,-320 1360.25,-320 1366.25,-320 1372.25,-326 1372.25,-332 1372.25,-332 1372.25,-394 1372.25,-394 1372.25,-400 1366.25,-406 1360.25,-406 1360.25,-406 1258.5,-406 1258.5,-406 1252.5,-406 1246.5,-400 1246.5,-394 1246.5,-394 1246.5,-332 1246.5,-332 1246.5,-326 1252.5,-320 1258.5,-320"/>
<text text-anchor="middle" x="1309.38" y="-393.45" font-family="Helvetica,sans-Serif" font-weight="bold" font-size="9.00">repositories</text>
</g>
<g id="clust9" class="cluster">
<title>cluster_src/domain/entities</title>
<path fill="#ffffff" stroke="black" stroke-width="2" d="M1270.12,-487C1270.12,-487 1548,-487 1548,-487 1554,-487 1560,-493 1560,-499 1560,-499 1560,-561 1560,-561 1560,-567 1554,-573 1548,-573 1548,-573 1270.12,-573 1270.12,-573 1264.12,-573 1258.12,-567 1258.12,-561 1258.12,-561 1258.12,-499 1258.12,-499 1258.12,-493 1264.12,-487 1270.12,-487"/>
<text text-anchor="middle" x="1409.06" y="-560.45" font-family="Helvetica,sans-Serif" font-weight="bold" font-size="9.00">entities</text>
</g>
<g id="clust11" class="cluster">
<title>cluster_src/domain/valueObjects</title>
<path fill="#ffffff" stroke="black" stroke-width="2" d="M1264.12,-216C1264.12,-216 1354.62,-216 1354.62,-216 1360.62,-216 1366.62,-222 1366.62,-228 1366.62,-228 1366.62,-290 1366.62,-290 1366.62,-296 1360.62,-302 1354.62,-302 1354.62,-302 1264.12,-302 1264.12,-302 1258.12,-302 1252.12,-296 1252.12,-290 1252.12,-290 1252.12,-228 1252.12,-228 1252.12,-222 1258.12,-216 1264.12,-216"/>
<text text-anchor="middle" x="1309.38" y="-289.45" font-family="Helvetica,sans-Serif" font-weight="bold" font-size="9.00">valueObjects</text>
</g>
<g id="clust12" class="cluster">
<title>cluster_src/infrastructure</title>
<path fill="#ffffff" stroke="black" stroke-width="2" d="M859.38,-16C859.38,-16 1226.5,-16 1226.5,-16 1232.5,-16 1238.5,-22 1238.5,-28 1238.5,-28 1238.5,-188 1238.5,-188 1238.5,-194 1232.5,-200 1226.5,-200 1226.5,-200 859.38,-200 859.38,-200 853.38,-200 847.38,-194 847.38,-188 847.38,-188 847.38,-28 847.38,-28 847.38,-22 853.38,-16 859.38,-16"/>
<text text-anchor="middle" x="1042.94" y="-187.45" font-family="Helvetica,sans-Serif" font-weight="bold" font-size="9.00">infrastructure</text>
</g>
<g id="clust14" class="cluster">
<title>cluster_src/infrastructure/repository</title>
<path fill="#ffffff" stroke="black" stroke-width="2" d="M981.5,-24C981.5,-24 1081,-24 1081,-24 1087,-24 1093,-30 1093,-36 1093,-36 1093,-98 1093,-98 1093,-104 1087,-110 1081,-110 1081,-110 981.5,-110 981.5,-110 975.5,-110 969.5,-104 969.5,-98 969.5,-98 969.5,-36 969.5,-36 969.5,-30 975.5,-24 981.5,-24"/>
<text text-anchor="middle" x="1031.25" y="-97.45" font-family="Helvetica,sans-Serif" font-weight="bold" font-size="9.00">repository</text>
</g>
<g id="clust13" class="cluster">
<title>cluster_src/infrastructure/database</title>
<path fill="#ffffff" stroke="black" stroke-width="2" d="M1113,-39C1113,-39 1218.5,-39 1218.5,-39 1224.5,-39 1230.5,-45 1230.5,-51 1230.5,-51 1230.5,-82 1230.5,-82 1230.5,-88 1224.5,-94 1218.5,-94 1218.5,-94 1113,-94 1113,-94 1107,-94 1101,-88 1101,-82 1101,-82 1101,-51 1101,-51 1101,-45 1107,-39 1113,-39"/>
<text text-anchor="middle" x="1165.75" y="-81.45" font-family="Helvetica,sans-Serif" font-weight="bold" font-size="9.00">database</text>
</g>
<g id="clust15" class="cluster">
<title>cluster_src/infrastructure/video</title>
<path fill="#ffffff" stroke="black" stroke-width="2" d="M1008.25,-118C1008.25,-118 1207.62,-118 1207.62,-118 1213.62,-118 1219.62,-124 1219.62,-130 1219.62,-130 1219.62,-161 1219.62,-161 1219.62,-167 1213.62,-173 1207.62,-173 1207.62,-173 1008.25,-173 1008.25,-173 1002.25,-173 996.25,-167 996.25,-161 996.25,-161 996.25,-130 996.25,-130 996.25,-124 1002.25,-118 1008.25,-118"/>
<text text-anchor="middle" x="1107.94" y="-160.45" font-family="Helvetica,sans-Serif" font-weight="bold" font-size="9.00">video</text>
</g>
<g id="clust16" class="cluster">
<title>cluster_src/stores</title>
<path fill="#ffffff" stroke="black" stroke-width="2" d="M403.25,-210C403.25,-210 479.5,-210 479.5,-210 485.5,-210 491.5,-216 491.5,-222 491.5,-222 491.5,-284 491.5,-284 491.5,-290 485.5,-296 479.5,-296 479.5,-296 403.25,-296 403.25,-296 397.25,-296 391.25,-290 391.25,-284 391.25,-284 391.25,-222 391.25,-222 391.25,-216 397.25,-210 403.25,-210"/>
<text text-anchor="middle" x="441.38" y="-283.45" font-family="Helvetica,sans-Serif" font-weight="bold" font-size="9.00">stores</text>
</g>
<g id="clust17" class="cluster">
<title>cluster_src/views</title>
<path fill="#ffffff" stroke="black" stroke-width="2" d="M157,-241C157,-241 233.25,-241 233.25,-241 239.25,-241 245.25,-247 245.25,-253 245.25,-253 245.25,-315 245.25,-315 245.25,-321 239.25,-327 233.25,-327 233.25,-327 157,-327 157,-327 151,-327 145,-321 145,-315 145,-315 145,-253 145,-253 145,-247 151,-241 157,-241"/>
<text text-anchor="middle" x="195.12" y="-314.45" font-family="Helvetica,sans-Serif" font-weight="bold" font-size="9.00">views</text>
</g>
<!-- src/App.vue -->
<g id="node1" class="node">
<title>src/App.vue</title>
<g id="a_node1"><a xlink:href="src/App.vue" xlink:title="App.vue">
<path fill="#41f083" stroke="black" d="M130.58,-299.62C130.58,-299.62 89.42,-299.62 89.42,-299.62 86.21,-299.62 83,-296.42 83,-293.21 83,-293.21 83,-286.79 83,-286.79 83,-283.58 86.21,-280.38 89.42,-280.38 89.42,-280.38 130.58,-280.38 130.58,-280.38 133.79,-280.38 137,-283.58 137,-286.79 137,-286.79 137,-293.21 137,-293.21 137,-296.42 133.79,-299.62 130.58,-299.62"/>
<text text-anchor="start" x="93.88" y="-287.07" font-family="Helvetica,sans-Serif" font-size="9.00">App.vue</text>
</a>
</g>
</g>
<!-- src/components/utils/DiagnosticsPanel.vue -->
<g id="node2" class="node">
<title>src/components/utils/DiagnosticsPanel.vue</title>
<g id="a_node2"><a xlink:href="src/components/utils/DiagnosticsPanel.vue" xlink:title="DiagnosticsPanel.vue">
<path fill="#41f083" stroke="black" d="M368.83,-402.62C368.83,-402.62 275.67,-402.62 275.67,-402.62 272.46,-402.62 269.25,-399.42 269.25,-396.21 269.25,-396.21 269.25,-389.79 269.25,-389.79 269.25,-386.58 272.46,-383.38 275.67,-383.38 275.67,-383.38 368.83,-383.38 368.83,-383.38 372.04,-383.38 375.25,-386.58 375.25,-389.79 375.25,-389.79 375.25,-396.21 375.25,-396.21 375.25,-399.42 372.04,-402.62 368.83,-402.62"/>
<text text-anchor="start" x="277.25" y="-390.07" font-family="Helvetica,sans-Serif" font-size="9.00">DiagnosticsPanel.vue</text>
</a>
</g>
</g>
<!-- src/App.vue&#45;&gt;src/components/utils/DiagnosticsPanel.vue -->
<g id="edge1" class="edge">
<title>src/App.vue&#45;&gt;src/components/utils/DiagnosticsPanel.vue</title>
<path fill="none" stroke="#000000" stroke-width="2" stroke-opacity="0.200000" d="M117.18,-299.81C123.27,-308.78 133.35,-321.85 145,-330 180.75,-354.99 227.47,-371.1 263.83,-380.76"/>
<polygon fill="#000000" fill-opacity="0.200000" stroke="#000000" stroke-width="2" stroke-opacity="0.200000" points="263.09,-382.74 269.43,-382.21 264.14,-378.68 263.09,-382.74"/>
</g>
<!-- src/views/NavBar.vue -->
<g id="node3" class="node">
<title>src/views/NavBar.vue</title>
<g id="a_node3"><a xlink:href="src/views/NavBar.vue" xlink:title="NavBar.vue">
<path fill="#41f083" stroke="black" d="M219.96,-268.62C219.96,-268.62 170.29,-268.62 170.29,-268.62 167.08,-268.62 163.88,-265.42 163.88,-262.21 163.88,-262.21 163.88,-255.79 163.88,-255.79 163.88,-252.58 167.08,-249.38 170.29,-249.38 170.29,-249.38 219.96,-249.38 219.96,-249.38 223.17,-249.38 226.38,-252.58 226.38,-255.79 226.38,-255.79 226.38,-262.21 226.38,-262.21 226.38,-265.42 223.17,-268.62 219.96,-268.62"/>
<text text-anchor="start" x="171.88" y="-256.07" font-family="Helvetica,sans-Serif" font-size="9.00">NavBar.vue</text>
</a>
</g>
</g>
<!-- src/App.vue&#45;&gt;src/views/NavBar.vue -->
<g id="edge2" class="edge">
<title>src/App.vue&#45;&gt;src/views/NavBar.vue</title>
<path fill="none" stroke="#000000" stroke-width="2" stroke-opacity="0.200000" d="M130.93,-280.04C135.5,-277.92 140.37,-275.78 145,-274 148.23,-272.75 151.61,-271.54 155.02,-270.38"/>
<polygon fill="#000000" fill-opacity="0.200000" stroke="#000000" stroke-width="2" stroke-opacity="0.200000" points="155.57,-272.41 160.62,-268.55 154.26,-268.42 155.57,-272.41"/>
</g>
<!-- src/views/VideoGallery.vue -->
<g id="node4" class="node">
<title>src/views/VideoGallery.vue</title>
<g id="a_node4"><a xlink:href="src/views/VideoGallery.vue" xlink:title="VideoGallery.vue">
<path fill="#41f083" stroke="black" d="M230.83,-299.62C230.83,-299.62 159.42,-299.62 159.42,-299.62 156.21,-299.62 153,-296.42 153,-293.21 153,-293.21 153,-286.79 153,-286.79 153,-283.58 156.21,-280.38 159.42,-280.38 159.42,-280.38 230.83,-280.38 230.83,-280.38 234.04,-280.38 237.25,-283.58 237.25,-286.79 237.25,-286.79 237.25,-293.21 237.25,-293.21 237.25,-296.42 234.04,-299.62 230.83,-299.62"/>
<text text-anchor="start" x="161" y="-287.07" font-family="Helvetica,sans-Serif" font-size="9.00">VideoGallery.vue</text>
</a>
</g>
</g>
<!-- src/App.vue&#45;&gt;src/views/VideoGallery.vue -->
<g id="edge3" class="edge">
<title>src/App.vue&#45;&gt;src/views/VideoGallery.vue</title>
<path fill="none" stroke="#000000" stroke-width="2" stroke-opacity="0.200000" d="M137.3,-290C139.42,-290 141.61,-290 143.83,-290"/>
<polygon fill="#000000" fill-opacity="0.200000" stroke="#000000" stroke-width="2" stroke-opacity="0.200000" points="143.47,-292.1 149.47,-290 143.47,-287.9 143.47,-292.1"/>
</g>
<!-- src/application/index.ts -->
<g id="node5" class="node">
<title>src/application/index.ts</title>
<g id="a_node5"><a xlink:href="src/application/index.ts" xlink:title="index.ts">
<path fill="#ddfeff" stroke="black" d="M555.83,-274.62C555.83,-274.62 514.67,-274.62 514.67,-274.62 511.46,-274.62 508.25,-271.42 508.25,-268.21 508.25,-268.21 508.25,-261.79 508.25,-261.79 508.25,-258.58 511.46,-255.38 514.67,-255.38 514.67,-255.38 555.83,-255.38 555.83,-255.38 559.04,-255.38 562.25,-258.58 562.25,-261.79 562.25,-261.79 562.25,-268.21 562.25,-268.21 562.25,-271.42 559.04,-274.62 555.83,-274.62"/>
<text text-anchor="start" x="519.5" y="-262.07" font-family="Helvetica,sans-Serif" font-size="9.00">index.ts</text>
</a>
</g>
</g>
<!-- src/components/utils/DiagnosticsPanel.vue&#45;&gt;src/application/index.ts -->
<g id="edge21" class="edge">
<title>src/components/utils/DiagnosticsPanel.vue&#45;&gt;src/application/index.ts</title>
<path fill="none" stroke="#000000" stroke-width="2" stroke-opacity="0.200000" d="M361.73,-382.94C369.44,-379.69 377.06,-375.46 383.25,-370 388.91,-365 385.95,-360.39 391.25,-355 427.25,-318.41 449.7,-327.7 492.25,-299 500.42,-293.49 508.95,-286.78 516.17,-280.78"/>
<polygon fill="#000000" fill-opacity="0.200000" stroke="#000000" stroke-width="2" stroke-opacity="0.200000" points="517.37,-282.53 520.59,-277.05 514.65,-279.32 517.37,-282.53"/>
</g>
<!-- src/stores/appStateStore.ts -->
<g id="node17" class="node">
<title>src/stores/appStateStore.ts</title>
<g id="a_node17"><a xlink:href="src/stores/appStateStore.ts" xlink:title="appStateStore.ts">
<path fill="#ddfeff" stroke="black" d="M477.08,-237.62C477.08,-237.62 405.67,-237.62 405.67,-237.62 402.46,-237.62 399.25,-234.42 399.25,-231.21 399.25,-231.21 399.25,-224.79 399.25,-224.79 399.25,-221.58 402.46,-218.38 405.67,-218.38 405.67,-218.38 477.08,-218.38 477.08,-218.38 480.29,-218.38 483.5,-221.58 483.5,-224.79 483.5,-224.79 483.5,-231.21 483.5,-231.21 483.5,-234.42 480.29,-237.62 477.08,-237.62"/>
<text text-anchor="start" x="407.25" y="-225.07" font-family="Helvetica,sans-Serif" font-size="9.00">appStateStore.ts</text>
</a>
</g>
</g>
<!-- src/components/utils/DiagnosticsPanel.vue&#45;&gt;src/stores/appStateStore.ts -->
<g id="edge22" class="edge">
<title>src/components/utils/DiagnosticsPanel.vue&#45;&gt;src/stores/appStateStore.ts</title>
<path fill="none" stroke="#000000" stroke-width="2" stroke-opacity="0.200000" d="M367.34,-383C373.52,-379.8 379.15,-375.57 383.25,-370 400,-347.21 373.72,-265.19 391.25,-243 391.66,-242.48 392.1,-241.97 392.55,-241.48"/>
<polygon fill="#000000" fill-opacity="0.200000" stroke="#000000" stroke-width="2" stroke-opacity="0.200000" points="393.54,-243.38 396.85,-237.96 390.88,-240.13 393.54,-243.38"/>
</g>
<!-- src/stores/videosStore.ts -->
<g id="node15" class="node">
<title>src/stores/videosStore.ts</title>
<g id="a_node15"><a xlink:href="src/stores/videosStore.ts" xlink:title="videosStore.ts">
<path fill="#ddfeff" stroke="black" d="M472.21,-268.62C472.21,-268.62 410.54,-268.62 410.54,-268.62 407.33,-268.62 404.12,-265.42 404.12,-262.21 404.12,-262.21 404.12,-255.79 404.12,-255.79 404.12,-252.58 407.33,-249.38 410.54,-249.38 410.54,-249.38 472.21,-249.38 472.21,-249.38 475.42,-249.38 478.62,-252.58 478.62,-255.79 478.62,-255.79 478.62,-262.21 478.62,-262.21 478.62,-265.42 475.42,-268.62 472.21,-268.62"/>
<text text-anchor="start" x="412.12" y="-256.07" font-family="Helvetica,sans-Serif" font-size="9.00">videosStore.ts</text>
</a>
</g>
</g>
<!-- src/views/NavBar.vue&#45;&gt;src/stores/videosStore.ts -->
<g id="edge52" class="edge">
<title>src/views/NavBar.vue&#45;&gt;src/stores/videosStore.ts</title>
<path fill="none" stroke="#000000" stroke-width="2" stroke-opacity="0.200000" d="M226.57,-259C268.94,-259 346.03,-259 395.14,-259"/>
<polygon fill="#000000" fill-opacity="0.200000" stroke="#000000" stroke-width="2" stroke-opacity="0.200000" points="394.95,-261.1 400.95,-259 394.95,-256.9 394.95,-261.1"/>
</g>
<!-- src/components/inputs/FileInput.vue -->
<g id="node16" class="node">
<title>src/components/inputs/FileInput.vue</title>
<g id="a_node16"><a xlink:href="src/components/inputs/FileInput.vue" xlink:title="FileInput.vue">
<path fill="#41f083" stroke="black" d="M349.71,-339.62C349.71,-339.62 294.79,-339.62 294.79,-339.62 291.58,-339.62 288.38,-336.42 288.38,-333.21 288.38,-333.21 288.38,-326.79 288.38,-326.79 288.38,-323.58 291.58,-320.38 294.79,-320.38 294.79,-320.38 349.71,-320.38 349.71,-320.38 352.92,-320.38 356.12,-323.58 356.12,-326.79 356.12,-326.79 356.12,-333.21 356.12,-333.21 356.12,-336.42 352.92,-339.62 349.71,-339.62"/>
<text text-anchor="start" x="296.38" y="-327.07" font-family="Helvetica,sans-Serif" font-size="9.00">FileInput.vue</text>
</a>
</g>
</g>
<!-- src/views/NavBar.vue&#45;&gt;src/components/inputs/FileInput.vue -->
<g id="edge50" class="edge">
<title>src/views/NavBar.vue&#45;&gt;src/components/inputs/FileInput.vue</title>
<path fill="none" stroke="#000000" stroke-width="2" stroke-opacity="0.200000" d="M226.63,-266.56C232.94,-268.6 239.43,-271.08 245.25,-274 266.9,-284.88 288.88,-301.86 303.6,-314.28"/>
<polygon fill="#000000" fill-opacity="0.200000" stroke="#000000" stroke-width="2" stroke-opacity="0.200000" points="301.99,-315.67 307.91,-317.98 304.73,-312.48 301.99,-315.67"/>
</g>
<!-- src/views/NavBar.vue&#45;&gt;src/stores/appStateStore.ts -->
<g id="edge51" class="edge">
<title>src/views/NavBar.vue&#45;&gt;src/stores/appStateStore.ts</title>
<path fill="none" stroke="#000000" stroke-width="2" stroke-opacity="0.200000" d="M221.63,-248.96C231.37,-245.54 242.68,-242.06 253.25,-240 299.1,-231.06 352.34,-228.37 390.29,-227.74"/>
<polygon fill="#000000" fill-opacity="0.200000" stroke="#000000" stroke-width="2" stroke-opacity="0.200000" points="390.11,-229.84 396.08,-227.66 390.05,-225.64 390.11,-229.84"/>
</g>
<!-- src/components/VideoCard.vue -->
<g id="node13" class="node">
<title>src/components/VideoCard.vue</title>
<g id="a_node13"><a xlink:href="src/components/VideoCard.vue" xlink:title="VideoCard.vue">
<path fill="#41f083" stroke="black" d="M353.83,-457.62C353.83,-457.62 290.67,-457.62 290.67,-457.62 287.46,-457.62 284.25,-454.42 284.25,-451.21 284.25,-451.21 284.25,-444.79 284.25,-444.79 284.25,-441.58 287.46,-438.38 290.67,-438.38 290.67,-438.38 353.83,-438.38 353.83,-438.38 357.04,-438.38 360.25,-441.58 360.25,-444.79 360.25,-444.79 360.25,-451.21 360.25,-451.21 360.25,-454.42 357.04,-457.62 353.83,-457.62"/>
<text text-anchor="start" x="292.25" y="-445.07" font-family="Helvetica,sans-Serif" font-size="9.00">VideoCard.vue</text>
</a>
</g>
</g>
<!-- src/views/VideoGallery.vue&#45;&gt;src/components/VideoCard.vue -->
<g id="edge53" class="edge">
<title>src/views/VideoGallery.vue&#45;&gt;src/components/VideoCard.vue</title>
<path fill="none" stroke="#000000" stroke-width="2" stroke-opacity="0.200000" d="M196.97,-299.77C199.75,-325.79 211.06,-397.18 253.25,-433 259.54,-438.34 267.32,-441.9 275.34,-444.25"/>
<polygon fill="#000000" fill-opacity="0.200000" stroke="#000000" stroke-width="2" stroke-opacity="0.200000" points="274.81,-446.28 281.13,-445.64 275.79,-442.2 274.81,-446.28"/>
</g>
<!-- src/views/VideoGallery.vue&#45;&gt;src/stores/videosStore.ts -->
<g id="edge55" class="edge">
<title>src/views/VideoGallery.vue&#45;&gt;src/stores/videosStore.ts</title>
<path fill="none" stroke="#000000" stroke-width="2" stroke-opacity="0.200000" d="M237.56,-284.74C281.32,-279.19 350.12,-270.46 395.24,-264.73"/>
<polygon fill="#000000" fill-opacity="0.200000" stroke="#000000" stroke-width="2" stroke-opacity="0.200000" points="395.24,-266.85 400.93,-264.01 394.71,-262.68 395.24,-266.85"/>
</g>
<!-- src/views/VideoGallery.vue&#45;&gt;src/stores/appStateStore.ts -->
<g id="edge54" class="edge">
<title>src/views/VideoGallery.vue&#45;&gt;src/stores/appStateStore.ts</title>
<path fill="none" stroke="#000000" stroke-width="2" stroke-opacity="0.200000" d="M236.9,-280.05C239.85,-278.59 242.67,-276.92 245.25,-275 250.39,-271.17 247.9,-266.53 253.25,-263 259,-259.2 336.62,-245.51 390.07,-236.42"/>
<polygon fill="#000000" fill-opacity="0.200000" stroke="#000000" stroke-width="2" stroke-opacity="0.200000" points="390.2,-238.52 395.77,-235.45 389.5,-234.38 390.2,-238.52"/>
</g>
<!-- src/application/services/FileParserService.ts -->
<g id="node6" class="node">
<title>src/application/services/FileParserService.ts</title>
<g id="a_node6"><a xlink:href="src/application/services/FileParserService.ts" xlink:title="FileParserService.ts">
<path fill="#ddfeff" stroke="black" d="M670.33,-305.62C670.33,-305.62 584.67,-305.62 584.67,-305.62 581.46,-305.62 578.25,-302.42 578.25,-299.21 578.25,-299.21 578.25,-292.79 578.25,-292.79 578.25,-289.58 581.46,-286.38 584.67,-286.38 584.67,-286.38 670.33,-286.38 670.33,-286.38 673.54,-286.38 676.75,-289.58 676.75,-292.79 676.75,-292.79 676.75,-299.21 676.75,-299.21 676.75,-302.42 673.54,-305.62 670.33,-305.62"/>
<text text-anchor="start" x="586.25" y="-293.07" font-family="Helvetica,sans-Serif" font-size="9.00">FileParserService.ts</text>
</a>
</g>
</g>
<!-- src/application/index.ts&#45;&gt;src/application/services/FileParserService.ts -->
<g id="edge4" class="edge">
<title>src/application/index.ts&#45;&gt;src/application/services/FileParserService.ts</title>
<path fill="none" stroke="#000000" stroke-width="2" stroke-opacity="0.200000" d="M556.13,-275.08C560.7,-277.2 565.59,-279.3 585.37,-285.95"/>
<polygon fill="#000000" fill-opacity="0.200000" stroke="#000000" stroke-width="2" stroke-opacity="0.200000" points="588.18,-284.56 592.08,-292.66 583.98,-288.76 588.18,-284.56"/>
</g>
<!-- src/application/services/FiltersService.ts -->
<g id="node7" class="node">
<title>src/application/services/FiltersService.ts</title>
<g id="a_node7"><a xlink:href="src/application/services/FiltersService.ts" xlink:title="FiltersService.ts">
<path fill="#ddfeff" stroke="black" d="M661.71,-274.62C661.71,-274.62 593.29,-274.62 593.29,-274.62 590.08,-274.62 586.88,-271.42 586.88,-268.21 586.88,-268.21 586.88,-261.79 586.88,-261.79 586.88,-258.58 590.08,-255.38 593.29,-255.38 593.29,-255.38 661.71,-255.38 661.71,-255.38 664.92,-255.38 668.12,-258.58 668.12,-261.79 668.12,-261.79 668.12,-268.21 668.12,-268.21 668.12,-271.42 664.92,-274.62 661.71,-274.62"/>
<text text-anchor="start" x="594.88" y="-262.07" font-family="Helvetica,sans-Serif" font-size="9.00">FiltersService.ts</text>
</a>
</g>
</g>
<!-- src/application/index.ts&#45;&gt;src/application/services/FiltersService.ts -->
<g id="edge5" class="edge">
<title>src/application/index.ts&#45;&gt;src/application/services/FiltersService.ts</title>
<path fill="none" stroke="#000000" stroke-width="2" stroke-opacity="0.200000" d="M562.35,-265C567.22,-265 572.45,-265 577.75,-265"/>
<polygon fill="#000000" fill-opacity="0.200000" stroke="#000000" stroke-width="2" stroke-opacity="0.200000" points="577.65,-267.1 583.65,-265 577.65,-262.9 577.65,-267.1"/>
</g>
<!-- src/application/services/Hotkeys.ts -->
<g id="node8" class="node">
<title>src/application/services/Hotkeys.ts</title>
<g id="a_node8"><a xlink:href="src/application/services/Hotkeys.ts" xlink:title="Hotkeys.ts">
<path fill="#ddfeff" stroke="black" d="M650.46,-243.62C650.46,-243.62 604.54,-243.62 604.54,-243.62 601.33,-243.62 598.12,-240.42 598.12,-237.21 598.12,-237.21 598.12,-230.79 598.12,-230.79 598.12,-227.58 601.33,-224.38 604.54,-224.38 604.54,-224.38 650.46,-224.38 650.46,-224.38 653.67,-224.38 656.88,-227.58 656.88,-230.79 656.88,-230.79 656.88,-237.21 656.88,-237.21 656.88,-240.42 653.67,-243.62 650.46,-243.62"/>
<text text-anchor="start" x="606.12" y="-231.07" font-family="Helvetica,sans-Serif" font-size="9.00">Hotkeys.ts</text>
</a>
</g>
</g>
<!-- src/application/index.ts&#45;&gt;src/application/services/Hotkeys.ts -->
<g id="edge6" class="edge">
<title>src/application/index.ts&#45;&gt;src/application/services/Hotkeys.ts</title>
<path fill="none" stroke="#000000" stroke-width="2" stroke-opacity="0.200000" d="M556.13,-254.92C560.7,-252.8 565.59,-250.7 597.86,-240.58"/>
<polygon fill="#000000" fill-opacity="0.200000" stroke="#000000" stroke-width="2" stroke-opacity="0.200000" points="600.67,-239.18 604.57,-247.28 596.47,-243.38 600.67,-239.18"/>
</g>
<!-- src/application/services/VideoMetadataService.ts -->
<g id="node9" class="node">
<title>src/application/services/VideoMetadataService.ts</title>
<g id="a_node9"><a xlink:href="src/application/services/VideoMetadataService.ts" xlink:title="VideoMetadataService.ts">
<path fill="#ddfeff" stroke="black" d="M799.83,-305.62C799.83,-305.62 696.17,-305.62 696.17,-305.62 692.96,-305.62 689.75,-302.42 689.75,-299.21 689.75,-299.21 689.75,-292.79 689.75,-292.79 689.75,-289.58 692.96,-286.38 696.17,-286.38 696.17,-286.38 799.83,-286.38 799.83,-286.38 803.04,-286.38 806.25,-289.58 806.25,-292.79 806.25,-292.79 806.25,-299.21 806.25,-299.21 806.25,-302.42 803.04,-305.62 799.83,-305.62"/>
<text text-anchor="start" x="697.75" y="-293.07" font-family="Helvetica,sans-Serif" font-size="9.00">VideoMetadataService.ts</text>
</a>
</g>
</g>
<!-- src/application/index.ts&#45;&gt;src/application/services/VideoMetadataService.ts -->
<g id="edge7" class="edge">
<title>src/application/index.ts&#45;&gt;src/application/services/VideoMetadataService.ts</title>
<path fill="none" stroke="#000000" stroke-width="2" stroke-opacity="0.200000" d="M540.2,-275.11C545.25,-286.47 555.18,-304.3 570.25,-312 615.97,-335.36 677.06,-321.53 714.14,-309.03"/>
<polygon fill="#000000" fill-opacity="0.200000" stroke="#000000" stroke-width="2" stroke-opacity="0.200000" points="714.75,-311.04 719.72,-307.07 713.36,-307.07 714.75,-311.04"/>
</g>
<!-- src/application/services/FileParserService.ts&#45;&gt;src/application/services/VideoMetadataService.ts -->
<g id="edge8" class="edge">
<title>src/application/services/FileParserService.ts&#45;&gt;src/application/services/VideoMetadataService.ts</title>
<path fill="none" stroke="#000000" stroke-width="2" stroke-opacity="0.200000" d="M677.04,-296C678.19,-296 679.35,-296 680.51,-296"/>
<polygon fill="#000000" fill-opacity="0.200000" stroke="#000000" stroke-width="2" stroke-opacity="0.200000" points="680.42,-298.1 686.42,-296 680.42,-293.9 680.42,-298.1"/>
</g>
<!-- src/domain/index.ts -->
<g id="node10" class="node">
<title>src/domain/index.ts</title>
<g id="a_node10"><a xlink:href="src/domain/index.ts" xlink:title="index.ts">
<path fill="#ddfeff" stroke="black" d="M1186.33,-347.62C1186.33,-347.62 1145.17,-347.62 1145.17,-347.62 1141.96,-347.62 1138.75,-344.42 1138.75,-341.21 1138.75,-341.21 1138.75,-334.79 1138.75,-334.79 1138.75,-331.58 1141.96,-328.38 1145.17,-328.38 1145.17,-328.38 1186.33,-328.38 1186.33,-328.38 1189.54,-328.38 1192.75,-331.58 1192.75,-334.79 1192.75,-334.79 1192.75,-341.21 1192.75,-341.21 1192.75,-344.42 1189.54,-347.62 1186.33,-347.62"/>
<text text-anchor="start" x="1150" y="-335.07" font-family="Helvetica,sans-Serif" font-size="9.00">index.ts</text>
</a>
</g>
</g>
<!-- src/application/services/FileParserService.ts&#45;&gt;src/domain/index.ts -->
<g id="edge9" class="edge">
<title>src/application/services/FileParserService.ts&#45;&gt;src/domain/index.ts</title>
<path fill="none" stroke="#000000" stroke-opacity="0.200000" d="M662.26,-306.11C671.13,-308.41 680.74,-310.59 689.75,-312 853.77,-337.65 1053.08,-339.05 1131.13,-338.47"/>
<polygon fill="none" stroke="#000000" stroke-opacity="0.200000" points="1130.8,-340.57 1136.78,-338.42 1130.76,-336.37 1130.8,-340.57"/>
</g>
<!-- src/infrastructure/index.ts -->
<g id="node11" class="node">
<title>src/infrastructure/index.ts</title>
<g id="a_node11"><a xlink:href="src/infrastructure/index.ts" xlink:title="index.ts">
<path fill="#ddfeff" stroke="black" d="M902.96,-145.62C902.96,-145.62 861.79,-145.62 861.79,-145.62 858.58,-145.62 855.38,-142.42 855.38,-139.21 855.38,-139.21 855.38,-132.79 855.38,-132.79 855.38,-129.58 858.58,-126.38 861.79,-126.38 861.79,-126.38 902.96,-126.38 902.96,-126.38 906.17,-126.38 909.38,-129.58 909.38,-132.79 909.38,-132.79 909.38,-139.21 909.38,-139.21 909.38,-142.42 906.17,-145.62 902.96,-145.62"/>
<text text-anchor="start" x="866.62" y="-133.07" font-family="Helvetica,sans-Serif" font-size="9.00">index.ts</text>
</a>
</g>
</g>
<!-- src/application/services/FileParserService.ts&#45;&gt;src/infrastructure/index.ts -->
<g id="edge10" class="edge">
<title>src/application/services/FileParserService.ts&#45;&gt;src/infrastructure/index.ts</title>
<path fill="none" stroke="#000000" stroke-width="2" stroke-opacity="0.200000" d="M665.33,-285.89C669.26,-284.42 673.13,-282.79 676.75,-281 751.82,-243.9 829.58,-180.71 863.63,-151.57"/>
<polygon fill="#000000" fill-opacity="0.200000" stroke="#000000" stroke-width="2" stroke-opacity="0.200000" points="864.75,-153.37 867.92,-147.86 862,-150.19 864.75,-153.37"/>
</g>
<!-- src/application/services/FiltersService.ts&#45;&gt;src/domain/index.ts -->
<g id="edge11" class="edge">
<title>src/application/services/FiltersService.ts&#45;&gt;src/domain/index.ts</title>
<path fill="none" stroke="#000000" stroke-opacity="0.200000" d="M668.61,-256.29C751.5,-240.26 946.2,-212.81 1093,-272 1118.5,-282.28 1140.53,-306.09 1153.22,-322.12"/>
<polygon fill="none" stroke="#000000" stroke-opacity="0.200000" points="1151.53,-323.36 1156.85,-326.84 1154.86,-320.8 1151.53,-323.36"/>
</g>
<!-- src/application/services/VideoMetadataService.ts&#45;&gt;src/domain/index.ts -->
<g id="edge13" class="edge">
<title>src/application/services/VideoMetadataService.ts&#45;&gt;src/domain/index.ts</title>
<path fill="none" stroke="#000000" stroke-opacity="0.200000" d="M786.29,-285.88C796.86,-283.45 808.44,-281.22 819.25,-280 940.7,-266.34 976.51,-269.03 1093,-306 1108.61,-310.95 1125.36,-318.3 1138.75,-324.71"/>
<polygon fill="none" stroke="#000000" stroke-opacity="0.200000" points="1137.74,-326.55 1144.06,-327.29 1139.58,-322.78 1137.74,-326.55"/>
</g>
<!-- src/application/services/VideoMetadataService.ts&#45;&gt;src/infrastructure/index.ts -->
<g id="edge14" class="edge">
<title>src/application/services/VideoMetadataService.ts&#45;&gt;src/infrastructure/index.ts</title>
<path fill="none" stroke="#000000" stroke-width="2" stroke-opacity="0.200000" d="M757.28,-285.99C779.38,-259.28 839.95,-186.07 867.45,-152.83"/>
<polygon fill="#000000" fill-opacity="0.200000" stroke="#000000" stroke-width="2" stroke-opacity="0.200000" points="868.96,-154.3 871.17,-148.34 865.73,-151.62 868.96,-154.3"/>
</g>
<!-- src/application/services/VideoStorageDtoMapper.ts -->
<g id="node12" class="node">
<title>src/application/services/VideoStorageDtoMapper.ts</title>
<g id="a_node12"><a xlink:href="src/application/services/VideoStorageDtoMapper.ts" xlink:title="VideoStorageDtoMapper.ts">
<path fill="#ddfeff" stroke="black" d="M939.08,-305.62C939.08,-305.62 825.67,-305.62 825.67,-305.62 822.46,-305.62 819.25,-302.42 819.25,-299.21 819.25,-299.21 819.25,-292.79 819.25,-292.79 819.25,-289.58 822.46,-286.38 825.67,-286.38 825.67,-286.38 939.08,-286.38 939.08,-286.38 942.29,-286.38 945.5,-289.58 945.5,-292.79 945.5,-292.79 945.5,-299.21 945.5,-299.21 945.5,-302.42 942.29,-305.62 939.08,-305.62"/>
<text text-anchor="start" x="827.25" y="-293.07" font-family="Helvetica,sans-Serif" font-size="9.00">VideoStorageDtoMapper.ts</text>
</a>
</g>
</g>
<!-- src/application/services/VideoMetadataService.ts&#45;&gt;src/application/services/VideoStorageDtoMapper.ts -->
<g id="edge12" class="edge">
<title>src/application/services/VideoMetadataService.ts&#45;&gt;src/application/services/VideoStorageDtoMapper.ts</title>
<path fill="none" stroke="#000000" stroke-width="2" stroke-opacity="0.200000" d="M806.68,-296C807.81,-296 808.95,-296 810.09,-296"/>
<polygon fill="#000000" fill-opacity="0.200000" stroke="#000000" stroke-width="2" stroke-opacity="0.200000" points="809.84,-298.1 815.84,-296 809.84,-293.9 809.84,-298.1"/>
</g>
<!-- src/domain/constants/index.ts -->
<g id="node18" class="node">
<title>src/domain/constants/index.ts</title>
<g id="a_node18"><a xlink:href="src/domain/constants/index.ts" xlink:title="index.ts">
<path fill="#ddfeff" stroke="black" d="M1329.96,-451.62C1329.96,-451.62 1288.79,-451.62 1288.79,-451.62 1285.58,-451.62 1282.38,-448.42 1282.38,-445.21 1282.38,-445.21 1282.38,-438.79 1282.38,-438.79 1282.38,-435.58 1285.58,-432.38 1288.79,-432.38 1288.79,-432.38 1329.96,-432.38 1329.96,-432.38 1333.17,-432.38 1336.38,-435.58 1336.38,-438.79 1336.38,-438.79 1336.38,-445.21 1336.38,-445.21 1336.38,-448.42 1333.17,-451.62 1329.96,-451.62"/>
<text text-anchor="start" x="1293.62" y="-439.07" font-family="Helvetica,sans-Serif" font-size="9.00">index.ts</text>
</a>
</g>
</g>
<!-- src/domain/index.ts&#45;&gt;src/domain/constants/index.ts -->
<g id="edge26" class="edge">
<title>src/domain/index.ts&#45;&gt;src/domain/constants/index.ts</title>
<path fill="none" stroke="#000000" stroke-width="2" stroke-opacity="0.200000" d="M1172.56,-347.94C1184.1,-366.75 1211.82,-407.49 1246.5,-428 1254.62,-432.8 1264.23,-435.96 1273.42,-438.03"/>
<polygon fill="#000000" fill-opacity="0.200000" stroke="#000000" stroke-width="2" stroke-opacity="0.200000" points="1272.79,-440.05 1279.08,-439.13 1273.59,-435.92 1272.79,-440.05"/>
</g>
<!-- src/domain/entities/Metadata.ts -->
<g id="node19" class="node">
<title>src/domain/entities/Metadata.ts</title>
<g id="a_node19"><a xlink:href="src/domain/entities/Metadata.ts" xlink:title="Metadata.ts">
<path fill="#ddfeff" stroke="black" d="M1545.58,-545.62C1545.58,-545.62 1495.17,-545.62 1495.17,-545.62 1491.96,-545.62 1488.75,-542.42 1488.75,-539.21 1488.75,-539.21 1488.75,-532.79 1488.75,-532.79 1488.75,-529.58 1491.96,-526.38 1495.17,-526.38 1495.17,-526.38 1545.58,-526.38 1545.58,-526.38 1548.79,-526.38 1552,-529.58 1552,-532.79 1552,-532.79 1552,-539.21 1552,-539.21 1552,-542.42 1548.79,-545.62 1545.58,-545.62"/>
<text text-anchor="start" x="1496.75" y="-533.08" font-family="Helvetica,sans-Serif" font-size="9.00">Metadata.ts</text>
</a>
</g>
</g>
<!-- src/domain/index.ts&#45;&gt;src/domain/entities/Metadata.ts -->
<g id="edge27" class="edge">
<title>src/domain/index.ts&#45;&gt;src/domain/entities/Metadata.ts</title>
<path fill="none" stroke="#000000" stroke-opacity="0.200000" d="M1166.82,-347.97C1167.67,-383.28 1175.83,-502.92 1246.5,-552 1320.73,-603.56 1435.54,-569.55 1489.46,-548.75"/>
<polygon fill="none" stroke="#000000" stroke-opacity="0.200000" points="1490.13,-550.75 1494.94,-546.59 1488.59,-546.84 1490.13,-550.75"/>
</g>
<!-- src/domain/entities/ParsedVideo.ts -->
<g id="node20" class="node">
<title>src/domain/entities/ParsedVideo.ts</title>
<g id="a_node20"><a xlink:href="src/domain/entities/ParsedVideo.ts" xlink:title="ParsedVideo.ts">
<path fill="#ddfeff" stroke="black" d="M1342.46,-545.62C1342.46,-545.62 1276.29,-545.62 1276.29,-545.62 1273.08,-545.62 1269.88,-542.42 1269.88,-539.21 1269.88,-539.21 1269.88,-532.79 1269.88,-532.79 1269.88,-529.58 1273.08,-526.38 1276.29,-526.38 1276.29,-526.38 1342.46,-526.38 1342.46,-526.38 1345.67,-526.38 1348.88,-529.58 1348.88,-532.79 1348.88,-532.79 1348.88,-539.21 1348.88,-539.21 1348.88,-542.42 1345.67,-545.62 1342.46,-545.62"/>
<text text-anchor="start" x="1277.88" y="-533.08" font-family="Helvetica,sans-Serif" font-size="9.00">ParsedVideo.ts</text>
</a>
</g>
</g>
<!-- src/domain/index.ts&#45;&gt;src/domain/entities/ParsedVideo.ts -->
<g id="edge28" class="edge">
<title>src/domain/index.ts&#45;&gt;src/domain/entities/ParsedVideo.ts</title>
<path fill="none" stroke="#000000" stroke-opacity="0.200000" d="M1167.96,-347.74C1172.31,-378.36 1189.98,-473.51 1246.5,-521 1251.18,-524.94 1256.73,-527.87 1262.56,-530.05"/>
<polygon fill="none" stroke="#000000" stroke-opacity="0.200000" points="1261.69,-531.98 1268.04,-531.82 1262.98,-527.98 1261.69,-531.98"/>
</g>
<!-- src/domain/entities/VideoStorageDto.ts -->
<g id="node21" class="node">
<title>src/domain/entities/VideoStorageDto.ts</title>
<g id="a_node21"><a xlink:href="src/domain/entities/VideoStorageDto.ts" xlink:title="VideoStorageDto.ts">
<path fill="#ddfeff" stroke="black" d="M1469.33,-529.62C1469.33,-529.62 1386.67,-529.62 1386.67,-529.62 1383.46,-529.62 1380.25,-526.42 1380.25,-523.21 1380.25,-523.21 1380.25,-516.79 1380.25,-516.79 1380.25,-513.58 1383.46,-510.38 1386.67,-510.38 1386.67,-510.38 1469.33,-510.38 1469.33,-510.38 1472.54,-510.38 1475.75,-513.58 1475.75,-516.79 1475.75,-516.79 1475.75,-523.21 1475.75,-523.21 1475.75,-526.42 1472.54,-529.62 1469.33,-529.62"/>
<text text-anchor="start" x="1388.25" y="-517.08" font-family="Helvetica,sans-Serif" font-size="9.00">VideoStorageDto.ts</text>
</a>
</g>
</g>
<!-- src/domain/index.ts&#45;&gt;src/domain/entities/VideoStorageDto.ts -->
<g id="edge30" class="edge">
<title>src/domain/index.ts&#45;&gt;src/domain/entities/VideoStorageDto.ts</title>
<path fill="none" stroke="#000000" stroke-opacity="0.200000" d="M1174.29,-347.93C1187.12,-363.98 1214.9,-395.22 1246.5,-409 1272.23,-420.22 1350.75,-402.95 1372.25,-421 1382.49,-429.6 1374.69,-437.84 1380.25,-450 1389.42,-470.05 1404.02,-490.79 1414.47,-504.43"/>
<polygon fill="none" stroke="#000000" stroke-opacity="0.200000" points="1412.67,-505.53 1418.01,-508.98 1415.98,-502.95 1412.67,-505.53"/>
</g>
<!-- src/domain/entities/Video.ts -->
<g id="node22" class="node">
<title>src/domain/entities/Video.ts</title>
<g id="a_node22"><a xlink:href="src/domain/entities/Video.ts" xlink:title="Video.ts">
<path fill="#ddfeff" stroke="black" d="M1540.96,-514.62C1540.96,-514.62 1499.79,-514.62 1499.79,-514.62 1496.58,-514.62 1493.38,-511.42 1493.38,-508.21 1493.38,-508.21 1493.38,-501.79 1493.38,-501.79 1493.38,-498.58 1496.58,-495.38 1499.79,-495.38 1499.79,-495.38 1540.96,-495.38 1540.96,-495.38 1544.17,-495.38 1547.38,-498.58 1547.38,-501.79 1547.38,-501.79 1547.38,-508.21 1547.38,-508.21 1547.38,-511.42 1544.17,-514.62 1540.96,-514.62"/>
<text text-anchor="start" x="1503.88" y="-502.07" font-family="Helvetica,sans-Serif" font-size="9.00">Video.ts</text>
</a>
</g>
</g>
<!-- src/domain/index.ts&#45;&gt;src/domain/entities/Video.ts -->
<g id="edge29" class="edge">
<title>src/domain/index.ts&#45;&gt;src/domain/entities/Video.ts</title>
<path fill="none" stroke="#000000" stroke-opacity="0.200000" d="M1192.99,-329.26C1208.39,-324.6 1228.33,-319.35 1246.5,-317 1301.93,-309.82 1317.92,-303.9 1372.25,-317 1422.49,-329.12 1442.26,-330.64 1475.75,-370 1505.24,-404.66 1514.89,-459.61 1517.97,-487.51"/>
<polygon fill="none" stroke="#000000" stroke-opacity="0.200000" points="1515.88,-487.66 1518.56,-493.43 1520.06,-487.25 1515.88,-487.66"/>
</g>
<!-- src/domain/repositories/IMetadataRepository.ts -->
<g id="node24" class="node">
<title>src/domain/repositories/IMetadataRepository.ts</title>
<g id="a_node24"><a xlink:href="src/domain/repositories/IMetadataRepository.ts" xlink:title="IMetadataRepository.ts">
<path fill="#ddfeff" stroke="black" d="M1357.83,-378.62C1357.83,-378.62 1260.92,-378.62 1260.92,-378.62 1257.71,-378.62 1254.5,-375.42 1254.5,-372.21 1254.5,-372.21 1254.5,-365.79 1254.5,-365.79 1254.5,-362.58 1257.71,-359.38 1260.92,-359.38 1260.92,-359.38 1357.83,-359.38 1357.83,-359.38 1361.04,-359.38 1364.25,-362.58 1364.25,-365.79 1364.25,-365.79 1364.25,-372.21 1364.25,-372.21 1364.25,-375.42 1361.04,-378.62 1357.83,-378.62"/>
<text text-anchor="start" x="1262.5" y="-366.07" font-family="Helvetica,sans-Serif" font-size="9.00">IMetadataRepository.ts</text>
</a>
</g>
</g>
<!-- src/domain/index.ts&#45;&gt;src/domain/repositories/IMetadataRepository.ts -->
<g id="edge31" class="edge">
<title>src/domain/index.ts&#45;&gt;src/domain/repositories/IMetadataRepository.ts</title>
<path fill="none" stroke="#000000" stroke-opacity="0.200000" d="M1193.06,-343.76C1210.45,-347.57 1233.87,-352.69 1255.05,-357.33"/>
<polygon fill="none" stroke="#000000" stroke-opacity="0.200000" points="1254.35,-359.32 1260.66,-358.56 1255.25,-355.22 1254.35,-359.32"/>
</g>
<!-- src/domain/repositories/IVideoRepository.ts -->
<g id="node25" class="node">
<title>src/domain/repositories/IVideoRepository.ts</title>
<g id="a_node25"><a xlink:href="src/domain/repositories/IVideoRepository.ts" xlink:title="IVideoRepository.ts">
<path fill="#ddfeff" stroke="black" d="M1350.71,-347.62C1350.71,-347.62 1268.04,-347.62 1268.04,-347.62 1264.83,-347.62 1261.62,-344.42 1261.62,-341.21 1261.62,-341.21 1261.62,-334.79 1261.62,-334.79 1261.62,-331.58 1264.83,-328.38 1268.04,-328.38 1268.04,-328.38 1350.71,-328.38 1350.71,-328.38 1353.92,-328.38 1357.12,-331.58 1357.12,-334.79 1357.12,-334.79 1357.12,-341.21 1357.12,-341.21 1357.12,-344.42 1353.92,-347.62 1350.71,-347.62"/>
<text text-anchor="start" x="1269.62" y="-335.07" font-family="Helvetica,sans-Serif" font-size="9.00">IVideoRepository.ts</text>
</a>
</g>
</g>
<!-- src/domain/index.ts&#45;&gt;src/domain/repositories/IVideoRepository.ts -->
<g id="edge32" class="edge">
<title>src/domain/index.ts&#45;&gt;src/domain/repositories/IVideoRepository.ts</title>
<path fill="none" stroke="#000000" stroke-opacity="0.200000" d="M1193.06,-338C1210.16,-338 1233.09,-338 1253.99,-338"/>
<polygon fill="none" stroke="#000000" stroke-opacity="0.200000" points="1253.77,-340.1 1259.77,-338 1253.77,-335.9 1253.77,-340.1"/>
</g>
<!-- src/domain/valueObjects/Thumbs.ts -->
<g id="node26" class="node">
<title>src/domain/valueObjects/Thumbs.ts</title>
<g id="a_node26"><a xlink:href="src/domain/valueObjects/Thumbs.ts" xlink:title="Thumbs.ts">
<path fill="#ddfeff" stroke="black" d="M1333.08,-274.62C1333.08,-274.62 1285.67,-274.62 1285.67,-274.62 1282.46,-274.62 1279.25,-271.42 1279.25,-268.21 1279.25,-268.21 1279.25,-261.79 1279.25,-261.79 1279.25,-258.58 1282.46,-255.38 1285.67,-255.38 1285.67,-255.38 1333.08,-255.38 1333.08,-255.38 1336.29,-255.38 1339.5,-258.58 1339.5,-261.79 1339.5,-261.79 1339.5,-268.21 1339.5,-268.21 1339.5,-271.42 1336.29,-274.62 1333.08,-274.62"/>
<text text-anchor="start" x="1287.25" y="-262.07" font-family="Helvetica,sans-Serif" font-size="9.00">Thumbs.ts</text>
</a>
</g>
</g>
<!-- src/domain/index.ts&#45;&gt;src/domain/valueObjects/Thumbs.ts -->
<g id="edge33" class="edge">
<title>src/domain/index.ts&#45;&gt;src/domain/valueObjects/Thumbs.ts</title>
<path fill="none" stroke="#000000" stroke-opacity="0.200000" d="M1177.17,-328.02C1191.58,-314.78 1218.94,-291.63 1246.5,-279 1254.32,-275.42 1263.13,-272.71 1271.6,-270.69"/>
<polygon fill="none" stroke="#000000" stroke-opacity="0.200000" points="1272.03,-272.75 1277.44,-269.41 1271.13,-268.65 1272.03,-272.75"/>
</g>
<!-- src/infrastructure/repository/MetadataRepository.ts -->
<g id="node29" class="node">
<title>src/infrastructure/repository/MetadataRepository.ts</title>
<g id="a_node29"><a xlink:href="src/infrastructure/repository/MetadataRepository.ts" xlink:title="MetadataRepository.ts">
<path fill="#ddfeff" stroke="black" d="M1078.58,-82.62C1078.58,-82.62 983.92,-82.62 983.92,-82.62 980.71,-82.62 977.5,-79.42 977.5,-76.21 977.5,-76.21 977.5,-69.79 977.5,-69.79 977.5,-66.58 980.71,-63.38 983.92,-63.38 983.92,-63.38 1078.58,-63.38 1078.58,-63.38 1081.79,-63.38 1085,-66.58 1085,-69.79 1085,-69.79 1085,-76.21 1085,-76.21 1085,-79.42 1081.79,-82.62 1078.58,-82.62"/>
<text text-anchor="start" x="985.5" y="-70.08" font-family="Helvetica,sans-Serif" font-size="9.00">MetadataRepository.ts</text>
</a>
</g>
</g>
<!-- src/infrastructure/index.ts&#45;&gt;src/infrastructure/repository/MetadataRepository.ts -->
<g id="edge36" class="edge">
<title>src/infrastructure/index.ts&#45;&gt;src/infrastructure/repository/MetadataRepository.ts</title>
<path fill="none" stroke="#000000" stroke-width="2" stroke-opacity="0.200000" d="M906.97,-125.88C931.81,-115.22 971.05,-98.39 998.57,-86.59"/>
<polygon fill="#000000" fill-opacity="0.200000" stroke="#000000" stroke-width="2" stroke-opacity="0.200000" points="999.24,-88.59 1003.93,-84.29 997.59,-84.73 999.24,-88.59"/>
</g>
<!-- src/infrastructure/repository/VideoRepository.ts -->
<g id="node30" class="node">
<title>src/infrastructure/repository/VideoRepository.ts</title>
<g id="a_node30"><a xlink:href="src/infrastructure/repository/VideoRepository.ts" xlink:title="VideoRepository.ts">
<path fill="#ddfeff" stroke="black" d="M1071.46,-51.62C1071.46,-51.62 991.04,-51.62 991.04,-51.62 987.83,-51.62 984.62,-48.42 984.62,-45.21 984.62,-45.21 984.62,-38.79 984.62,-38.79 984.62,-35.58 987.83,-32.38 991.04,-32.38 991.04,-32.38 1071.46,-32.38 1071.46,-32.38 1074.67,-32.38 1077.88,-35.58 1077.88,-38.79 1077.88,-38.79 1077.88,-45.21 1077.88,-45.21 1077.88,-48.42 1074.67,-51.62 1071.46,-51.62"/>
<text text-anchor="start" x="992.62" y="-39.08" font-family="Helvetica,sans-Serif" font-size="9.00">VideoRepository.ts</text>
</a>
</g>
</g>
<!-- src/infrastructure/index.ts&#45;&gt;src/infrastructure/repository/VideoRepository.ts -->
<g id="edge37" class="edge">
<title>src/infrastructure/index.ts&#45;&gt;src/infrastructure/repository/VideoRepository.ts</title>
<path fill="none" stroke="#000000" stroke-width="2" stroke-opacity="0.200000" d="M891.26,-126.05C905.19,-109.18 935.88,-75.03 969.5,-57 971.65,-55.84 973.9,-54.78 976.2,-53.79"/>
<polygon fill="#000000" fill-opacity="0.200000" stroke="#000000" stroke-width="2" stroke-opacity="0.200000" points="976.52,-55.92 981.38,-51.81 975.03,-51.99 976.52,-55.92"/>
</g>
<!-- src/infrastructure/video/index.ts -->
<g id="node31" class="node">
<title>src/infrastructure/video/index.ts</title>
<g id="a_node31"><a xlink:href="src/infrastructure/video/index.ts" xlink:title="index.ts">
<path fill="#ddfeff" stroke="black" d="M1051.83,-145.62C1051.83,-145.62 1010.67,-145.62 1010.67,-145.62 1007.46,-145.62 1004.25,-142.42 1004.25,-139.21 1004.25,-139.21 1004.25,-132.79 1004.25,-132.79 1004.25,-129.58 1007.46,-126.38 1010.67,-126.38 1010.67,-126.38 1051.83,-126.38 1051.83,-126.38 1055.04,-126.38 1058.25,-129.58 1058.25,-132.79 1058.25,-132.79 1058.25,-139.21 1058.25,-139.21 1058.25,-142.42 1055.04,-145.62 1051.83,-145.62"/>
<text text-anchor="start" x="1015.5" y="-133.07" font-family="Helvetica,sans-Serif" font-size="9.00">index.ts</text>
</a>
</g>
</g>
<!-- src/infrastructure/index.ts&#45;&gt;src/infrastructure/video/index.ts -->
<g id="edge38" class="edge">
<title>src/infrastructure/index.ts&#45;&gt;src/infrastructure/video/index.ts</title>
<path fill="none" stroke="#000000" stroke-width="2" stroke-opacity="0.200000" d="M909.63,-136C936.37,-136 977.57,-136 1004.22,-136"/>
<polygon fill="#000000" fill-opacity="0.200000" stroke="#000000" stroke-width="2" stroke-opacity="0.200000" points="1007.03,-134.61 1010.93,-142.71 1002.83,-138.81 1007.03,-134.61"/>
</g>
<!-- src/application/services/VideoStorageDtoMapper.ts&#45;&gt;src/domain/index.ts -->
<g id="edge15" class="edge">
<title>src/application/services/VideoStorageDtoMapper.ts&#45;&gt;src/domain/index.ts</title>
<path fill="none" stroke="#000000" stroke-opacity="0.200000" d="M945.76,-305.14C987.46,-311.27 1043.52,-319.55 1093,-327 1105.49,-328.88 1119.19,-330.97 1131.25,-332.83"/>
<polygon fill="none" stroke="#000000" stroke-opacity="0.200000" points="1130.77,-334.88 1137.02,-333.71 1131.41,-330.73 1130.77,-334.88"/>
</g>
<!-- src/components/VideoCard.vue&#45;&gt;src/domain/index.ts -->
<g id="edge17" class="edge">
<title>src/components/VideoCard.vue&#45;&gt;src/domain/index.ts</title>
<path fill="none" stroke="#000000" stroke-opacity="0.200000" d="M360.45,-444.81C368.77,-442.54 376.98,-438.87 383.25,-433 391.76,-425.02 382.3,-415.49 391.25,-408 440.43,-366.86 470.14,-389 534.25,-389 534.25,-389 534.25,-389 883.38,-389 977.37,-389 1001.3,-381.65 1093,-361 1105.8,-358.12 1119.59,-353.96 1131.62,-349.97"/>
<polygon fill="none" stroke="#000000" stroke-opacity="0.200000" points="1132.04,-352.05 1137.05,-348.14 1130.69,-348.07 1132.04,-352.05"/>
</g>
<!-- src/components/VideoEmbed.vue -->
<g id="node14" class="node">
<title>src/components/VideoEmbed.vue</title>
<g id="a_node14"><a xlink:href="src/components/VideoEmbed.vue" xlink:title="VideoEmbed.vue">
<path fill="#41f083" stroke="black" d="M477.83,-433.62C477.83,-433.62 404.92,-433.62 404.92,-433.62 401.71,-433.62 398.5,-430.42 398.5,-427.21 398.5,-427.21 398.5,-420.79 398.5,-420.79 398.5,-417.58 401.71,-414.38 404.92,-414.38 404.92,-414.38 477.83,-414.38 477.83,-414.38 481.04,-414.38 484.25,-417.58 484.25,-420.79 484.25,-420.79 484.25,-427.21 484.25,-427.21 484.25,-430.42 481.04,-433.62 477.83,-433.62"/>
<text text-anchor="start" x="406.5" y="-421.07" font-family="Helvetica,sans-Serif" font-size="9.00">VideoEmbed.vue</text>
</a>
</g>
</g>
<!-- src/components/VideoCard.vue&#45;&gt;src/components/VideoEmbed.vue -->
<g id="edge16" class="edge">
<title>src/components/VideoCard.vue&#45;&gt;src/components/VideoEmbed.vue</title>
<path fill="none" stroke="#000000" stroke-width="2" stroke-opacity="0.200000" d="M360.63,-440.34C369.75,-438.47 379.67,-436.44 389.31,-434.46"/>
<polygon fill="#000000" fill-opacity="0.200000" stroke="#000000" stroke-width="2" stroke-opacity="0.200000" points="389.64,-436.54 395.09,-433.28 388.79,-432.43 389.64,-436.54"/>
</g>
<!-- src/components/VideoCard.vue&#45;&gt;src/stores/videosStore.ts -->
<g id="edge18" class="edge">
<title>src/components/VideoCard.vue&#45;&gt;src/stores/videosStore.ts</title>
<path fill="none" stroke="#000000" stroke-width="2" stroke-opacity="0.200000" d="M360.62,-446.1C369.25,-443.84 377.56,-439.86 383.25,-433 402.03,-410.39 378.15,-327.31 391.25,-301 396.62,-290.22 406.12,-281.1 415.34,-274.14"/>
<polygon fill="#000000" fill-opacity="0.200000" stroke="#000000" stroke-width="2" stroke-opacity="0.200000" points="416.42,-275.94 420.12,-270.77 414.01,-272.51 416.42,-275.94"/>
</g>
<!-- src/components/VideoEmbed.vue&#45;&gt;src/domain/index.ts -->
<g id="edge19" class="edge">
<title>src/components/VideoEmbed.vue&#45;&gt;src/domain/index.ts</title>
<path fill="none" stroke="#000000" stroke-opacity="0.200000" d="M484.39,-420.42C521.69,-417.55 577.68,-414 626.5,-414 626.5,-414 626.5,-414 883.38,-414 977.01,-414 1005.94,-427.46 1093,-393 1115.47,-384.1 1136.87,-366.01 1150.36,-353"/>
<polygon fill="none" stroke="#000000" stroke-opacity="0.200000" points="1151.77,-354.56 1154.56,-348.84 1148.82,-351.57 1151.77,-354.56"/>
</g>
<!-- src/stores/videosStore.ts&#45;&gt;src/application/index.ts -->
<g id="edge48" class="edge">
<title>src/stores/videosStore.ts&#45;&gt;src/application/index.ts</title>
<path fill="none" stroke="#000000" stroke-width="2" stroke-opacity="0.200000" d="M478.95,-261.39C485.62,-261.82 492.57,-262.28 499.2,-262.71"/>
<polygon fill="#000000" fill-opacity="0.200000" stroke="#000000" stroke-width="2" stroke-opacity="0.200000" points="498.84,-264.79 504.97,-263.09 499.12,-260.6 498.84,-264.79"/>
</g>
<!-- src/stores/videosStore.ts&#45;&gt;src/domain/index.ts -->
<g id="edge49" class="edge">
<title>src/stores/videosStore.ts&#45;&gt;src/domain/index.ts</title>
<path fill="none" stroke="#000000" stroke-opacity="0.200000" d="M459.63,-268.8C470.86,-276.15 484.77,-287.29 492.25,-301 498.91,-313.19 490.04,-353.58 500.25,-363 541.54,-401.08 570.33,-369 626.5,-369 626.5,-369 626.5,-369 883.38,-369 973.31,-369 1078.45,-353.16 1131.1,-344.12"/>
<polygon fill="none" stroke="#000000" stroke-opacity="0.200000" points="1131.43,-346.2 1136.99,-343.1 1130.72,-342.06 1131.43,-346.2"/>
</g>
<!-- src/components/inputs/FileInput.vue&#45;&gt;src/stores/videosStore.ts -->
<g id="edge20" class="edge">
<title>src/components/inputs/FileInput.vue&#45;&gt;src/stores/videosStore.ts</title>
<path fill="none" stroke="#000000" stroke-width="2" stroke-opacity="0.200000" d="M339.78,-319.98C359.75,-307.87 393.5,-287.42 416.34,-273.57"/>
<polygon fill="#000000" fill-opacity="0.200000" stroke="#000000" stroke-width="2" stroke-opacity="0.200000" points="417.3,-275.45 421.34,-270.54 415.12,-271.85 417.3,-275.45"/>
</g>
<!-- src/stores/appStateStore.ts&#45;&gt;src/application/index.ts -->
<g id="edge47" class="edge">
<title>src/stores/appStateStore.ts&#45;&gt;src/application/index.ts</title>
<path fill="none" stroke="#000000" stroke-width="2" stroke-opacity="0.200000" d="M478.89,-238.1C483.43,-239.62 487.98,-241.26 492.25,-243 497.88,-245.3 503.76,-248.1 509.28,-250.93"/>
<polygon fill="#000000" fill-opacity="0.200000" stroke="#000000" stroke-width="2" stroke-opacity="0.200000" points="508.07,-252.66 514.35,-253.62 510.03,-248.95 508.07,-252.66"/>
</g>
<!-- src/domain/entities/ParsedVideo.ts&#45;&gt;src/domain/entities/VideoStorageDto.ts -->
<g id="edge23" class="edge">
<title>src/domain/entities/ParsedVideo.ts&#45;&gt;src/domain/entities/VideoStorageDto.ts</title>
<path fill="none" stroke="#000000" stroke-opacity="0.200000" d="M1349.21,-530.67C1356.72,-529.64 1364.71,-528.55 1372.61,-527.46"/>
<polygon fill="none" stroke="#000000" stroke-opacity="0.200000" points="1372.66,-529.57 1378.32,-526.68 1372.09,-525.41 1372.66,-529.57"/>
</g>
<!-- src/domain/entities/VideoStorageDto.ts&#45;&gt;src/domain/entities/Metadata.ts -->
<g id="edge24" class="edge">
<title>src/domain/entities/VideoStorageDto.ts&#45;&gt;src/domain/entities/Metadata.ts</title>
<path fill="none" stroke="#000000" stroke-opacity="0.200000" d="M1476.04,-528.33C1477.92,-528.66 1479.79,-528.99 1481.64,-529.32"/>
<polygon fill="none" stroke="#000000" stroke-opacity="0.200000" points="1480.92,-531.32 1487.2,-530.3 1481.65,-527.19 1480.92,-531.32"/>
</g>
<!-- src/domain/entities/VideoStorageDto.ts&#45;&gt;src/domain/entities/Video.ts -->
<g id="edge25" class="edge">
<title>src/domain/entities/VideoStorageDto.ts&#45;&gt;src/domain/entities/Video.ts</title>
<path fill="none" stroke="#000000" stroke-opacity="0.200000" d="M1476.04,-512.19C1479.32,-511.65 1482.59,-511.11 1485.78,-510.58"/>
<polygon fill="none" stroke="#000000" stroke-opacity="0.200000" points="1485.96,-512.68 1491.53,-509.62 1485.27,-508.53 1485.96,-512.68"/>
</g>
<!-- src/domain/entities/VideoMetadata.ts -->
<g id="node23" class="node">
<title>src/domain/entities/VideoMetadata.ts</title>
<g id="a_node23"><a xlink:href="src/domain/entities/VideoMetadata.ts" xlink:title="no&#45;orphans">
<path fill="#ccffcc" stroke="orange" d="M1346.21,-514.62C1346.21,-514.62 1272.54,-514.62 1272.54,-514.62 1269.33,-514.62 1266.12,-511.42 1266.12,-508.21 1266.12,-508.21 1266.12,-501.79 1266.12,-501.79 1266.12,-498.58 1269.33,-495.38 1272.54,-495.38 1272.54,-495.38 1346.21,-495.38 1346.21,-495.38 1349.42,-495.38 1352.62,-498.58 1352.62,-501.79 1352.62,-501.79 1352.62,-508.21 1352.62,-508.21 1352.62,-511.42 1349.42,-514.62 1346.21,-514.62"/>
<text text-anchor="start" x="1274.12" y="-502.07" font-family="Helvetica,sans-Serif" font-size="9.00" fill="orange">VideoMetadata.ts</text>
</a>
</g>
</g>
<!-- src/domain/repositories/IMetadataRepository.ts&#45;&gt;src/domain/entities/Metadata.ts -->
<g id="edge34" class="edge">
<title>src/domain/repositories/IMetadataRepository.ts&#45;&gt;src/domain/entities/Metadata.ts</title>
<path fill="none" stroke="#000000" stroke-opacity="0.200000" d="M1364.53,-379.01C1367.21,-380.2 1369.8,-381.52 1372.25,-383 1432.84,-419.56 1431.24,-448.98 1475.75,-504 1481.73,-511.39 1481.39,-514.97 1488.75,-521 1489.16,-521.34 1489.58,-521.67 1490.01,-522"/>
<polygon fill="none" stroke="#000000" stroke-opacity="0.200000" points="1488.51,-523.52 1494.67,-525.11 1490.85,-520.03 1488.51,-523.52"/>
</g>
<!-- src/domain/repositories/IVideoRepository.ts&#45;&gt;src/domain/entities/Video.ts -->
<g id="edge35" class="edge">
<title>src/domain/repositories/IVideoRepository.ts&#45;&gt;src/domain/entities/Video.ts</title>
<path fill="none" stroke="#000000" stroke-opacity="0.200000" d="M1357.35,-344.22C1362.77,-346.38 1367.91,-349.24 1372.25,-353 1379.48,-359.27 1372.7,-367.11 1380.25,-373 1414.02,-399.36 1442.37,-359.15 1475.75,-386 1507.14,-411.25 1515.94,-461.24 1518.41,-487.67"/>
<polygon fill="none" stroke="#000000" stroke-opacity="0.200000" points="1516.31,-487.74 1518.88,-493.56 1520.5,-487.41 1516.31,-487.74"/>
</g>
<!-- src/domain/valueObjects/ParsedVideoData.ts -->
<g id="node27" class="node">
<title>src/domain/valueObjects/ParsedVideoData.ts</title>
<g id="a_node27"><a xlink:href="src/domain/valueObjects/ParsedVideoData.ts" xlink:title="ParsedVideoData.ts">
<path fill="#ddfeff" stroke="black" d="M1352.21,-243.62C1352.21,-243.62 1266.54,-243.62 1266.54,-243.62 1263.33,-243.62 1260.12,-240.42 1260.12,-237.21 1260.12,-237.21 1260.12,-230.79 1260.12,-230.79 1260.12,-227.58 1263.33,-224.38 1266.54,-224.38 1266.54,-224.38 1352.21,-224.38 1352.21,-224.38 1355.42,-224.38 1358.62,-227.58 1358.62,-230.79 1358.62,-230.79 1358.62,-237.21 1358.62,-237.21 1358.62,-240.42 1355.42,-243.62 1352.21,-243.62"/>
<text text-anchor="start" x="1268.12" y="-231.07" font-family="Helvetica,sans-Serif" font-size="9.00">ParsedVideoData.ts</text>
</a>
</g>
</g>
<!-- src/infrastructure/database/DatabaseConnection.ts -->
<g id="node28" class="node">
<title>src/infrastructure/database/DatabaseConnection.ts</title>
<g id="a_node28"><a xlink:href="src/infrastructure/database/DatabaseConnection.ts" xlink:title="DatabaseConnection.ts">
<path fill="#ddfeff" stroke="black" d="M1216.08,-66.62C1216.08,-66.62 1115.42,-66.62 1115.42,-66.62 1112.21,-66.62 1109,-63.42 1109,-60.21 1109,-60.21 1109,-53.79 1109,-53.79 1109,-50.58 1112.21,-47.38 1115.42,-47.38 1115.42,-47.38 1216.08,-47.38 1216.08,-47.38 1219.29,-47.38 1222.5,-50.58 1222.5,-53.79 1222.5,-53.79 1222.5,-60.21 1222.5,-60.21 1222.5,-63.42 1219.29,-66.62 1216.08,-66.62"/>
<text text-anchor="start" x="1117" y="-54.08" font-family="Helvetica,sans-Serif" font-size="9.00">DatabaseConnection.ts</text>
</a>
</g>
</g>
<!-- src/infrastructure/repository/MetadataRepository.ts&#45;&gt;src/domain/index.ts -->
<g id="edge40" class="edge">
<title>src/infrastructure/repository/MetadataRepository.ts&#45;&gt;src/domain/index.ts</title>
<path fill="none" stroke="#000000" stroke-width="2" stroke-opacity="0.200000" d="M1055.3,-83.01C1068.54,-90 1084.25,-100.66 1093,-115 1107.25,-138.34 1094.16,-149.52 1101,-176 1114.97,-230.1 1142.01,-290.55 1155.96,-319.96"/>
<polygon fill="#000000" fill-opacity="0.200000" stroke="#000000" stroke-width="2" stroke-opacity="0.200000" points="1154.04,-320.82 1158.53,-325.32 1157.83,-319.01 1154.04,-320.82"/>
</g>
<!-- src/infrastructure/repository/MetadataRepository.ts&#45;&gt;src/infrastructure/database/DatabaseConnection.ts -->
<g id="edge39" class="edge">
<title>src/infrastructure/repository/MetadataRepository.ts&#45;&gt;src/infrastructure/database/DatabaseConnection.ts</title>
<path fill="none" stroke="#000000" stroke-width="2" stroke-opacity="0.200000" d="M1085.38,-66.58C1090.15,-66.01 1095.01,-65.42 1099.87,-64.83"/>
<polygon fill="#000000" fill-opacity="0.200000" stroke="#000000" stroke-width="2" stroke-opacity="0.200000" points="1099.86,-66.95 1105.57,-64.15 1099.36,-62.78 1099.86,-66.95"/>
</g>
<!-- src/infrastructure/repository/VideoRepository.ts&#45;&gt;src/domain/index.ts -->
<g id="edge42" class="edge">
<title>src/infrastructure/repository/VideoRepository.ts&#45;&gt;src/domain/index.ts</title>
<path fill="none" stroke="#000000" stroke-width="2" stroke-opacity="0.200000" d="M1078.09,-46.5C1083.8,-48.88 1089.02,-52.26 1093,-57 1101.52,-67.15 1098.09,-163.07 1101,-176 1113.25,-230.52 1141.05,-290.78 1155.56,-320.06"/>
<polygon fill="#000000" fill-opacity="0.200000" stroke="#000000" stroke-width="2" stroke-opacity="0.200000" points="1153.67,-320.98 1158.24,-325.4 1157.43,-319.1 1153.67,-320.98"/>
</g>
<!-- src/infrastructure/repository/VideoRepository.ts&#45;&gt;src/infrastructure/database/DatabaseConnection.ts -->
<g id="edge41" class="edge">
<title>src/infrastructure/repository/VideoRepository.ts&#45;&gt;src/infrastructure/database/DatabaseConnection.ts</title>
<path fill="none" stroke="#000000" stroke-width="2" stroke-opacity="0.200000" d="M1078.22,-47.2C1085.31,-48.01 1092.75,-48.85 1100.15,-49.69"/>
<polygon fill="#000000" fill-opacity="0.200000" stroke="#000000" stroke-width="2" stroke-opacity="0.200000" points="1099.61,-51.74 1105.81,-50.33 1100.08,-47.57 1099.61,-51.74"/>
</g>
<!-- src/infrastructure/video/VideoFileParser.ts -->
<g id="node32" class="node">
<title>src/infrastructure/video/VideoFileParser.ts</title>
<g id="a_node32"><a xlink:href="src/infrastructure/video/VideoFileParser.ts" xlink:title="VideoFileParser.ts">
<path fill="#ddfeff" stroke="black" d="M1205.21,-145.62C1205.21,-145.62 1126.29,-145.62 1126.29,-145.62 1123.08,-145.62 1119.88,-142.42 1119.88,-139.21 1119.88,-139.21 1119.88,-132.79 1119.88,-132.79 1119.88,-129.58 1123.08,-126.38 1126.29,-126.38 1126.29,-126.38 1205.21,-126.38 1205.21,-126.38 1208.42,-126.38 1211.62,-129.58 1211.62,-132.79 1211.62,-132.79 1211.62,-139.21 1211.62,-139.21 1211.62,-142.42 1208.42,-145.62 1205.21,-145.62"/>
<text text-anchor="start" x="1127.88" y="-133.07" font-family="Helvetica,sans-Serif" font-size="9.00">VideoFileParser.ts</text>
</a>
</g>
</g>
<!-- src/infrastructure/video/index.ts&#45;&gt;src/infrastructure/video/VideoFileParser.ts -->
<g id="edge45" class="edge">
<title>src/infrastructure/video/index.ts&#45;&gt;src/infrastructure/video/VideoFileParser.ts</title>
<path fill="none" stroke="#000000" stroke-width="2" stroke-opacity="0.200000" d="M1058.74,-136C1076.11,-136 1099.27,-136 1119.51,-136"/>
<polygon fill="#000000" fill-opacity="0.200000" stroke="#000000" stroke-width="2" stroke-opacity="0.200000" points="1122.32,-134.61 1126.22,-142.71 1118.12,-138.81 1122.32,-134.61"/>
</g>
<!-- src/infrastructure/video/VideoFileParser.ts&#45;&gt;src/domain/entities/Video.ts -->
<g id="edge43" class="edge">
<title>src/infrastructure/video/VideoFileParser.ts&#45;&gt;src/domain/entities/Video.ts</title>
<path fill="none" stroke="#000000" stroke-opacity="0.200000" d="M1211.95,-131.59C1279.89,-127.71 1407.63,-131.55 1475.75,-205 1514.29,-246.56 1518.86,-430.52 1519.34,-487.87"/>
<polygon fill="none" stroke="#000000" stroke-opacity="0.200000" points="1517.24,-487.59 1519.37,-493.58 1521.44,-487.57 1517.24,-487.59"/>
</g>
<!-- src/infrastructure/video/VideoFileParser.ts&#45;&gt;src/domain/valueObjects/ParsedVideoData.ts -->
<g id="edge44" class="edge">
<title>src/infrastructure/video/VideoFileParser.ts&#45;&gt;src/domain/valueObjects/ParsedVideoData.ts</title>
<path fill="none" stroke="#000000" stroke-width="2" stroke-opacity="0.200000" d="M1181.37,-146.12C1206.42,-163.45 1257.62,-198.88 1286.79,-219.06"/>
<polygon fill="#000000" fill-opacity="0.200000" stroke="#000000" stroke-width="2" stroke-opacity="0.200000" points="1285.42,-220.67 1291.55,-222.36 1287.81,-217.22 1285.42,-220.67"/>
</g>
<!-- src/main.ts -->
<g id="node33" class="node">
<title>src/main.ts</title>
<g id="a_node33"><a xlink:href="src/main.ts" xlink:title="main.ts">
<path fill="#ddfeff" stroke="black" d="M63.58,-299.62C63.58,-299.62 22.42,-299.62 22.42,-299.62 19.21,-299.62 16,-296.42 16,-293.21 16,-293.21 16,-286.79 16,-286.79 16,-283.58 19.21,-280.38 22.42,-280.38 22.42,-280.38 63.58,-280.38 63.58,-280.38 66.79,-280.38 70,-283.58 70,-286.79 70,-286.79 70,-293.21 70,-293.21 70,-296.42 66.79,-299.62 63.58,-299.62"/>
<text text-anchor="start" x="27.62" y="-287.07" font-family="Helvetica,sans-Serif" font-size="9.00">main.ts</text>
</a>
</g>
</g>
<!-- src/main.ts&#45;&gt;src/App.vue -->
<g id="edge46" class="edge">
<title>src/main.ts&#45;&gt;src/App.vue</title>
<path fill="none" stroke="#000000" stroke-width="2" stroke-opacity="0.200000" d="M70.44,-290C71.58,-290 72.74,-290 73.9,-290"/>
<polygon fill="#000000" fill-opacity="0.200000" stroke="#000000" stroke-width="2" stroke-opacity="0.200000" points="73.77,-292.1 79.77,-290 73.77,-287.9 73.77,-292.1"/>
</g>
</g>
</svg>
