<?xml version="1.0" encoding="UTF-8" standalone="no"?>
<!DOCTYPE svg PUBLIC "-//W3C//DTD SVG 1.1//EN"
 "http://www.w3.org/Graphics/SVG/1.1/DTD/svg11.dtd">
<!-- Generated by graphviz version 9.0.0 (20230911.1827)
 -->
<!-- Title: dependency&#45;cruiser output Pages: 1 -->
<svg width="1606pt" height="590pt"
 viewBox="0.00 0.00 1606.00 590.00" xmlns="http://www.w3.org/2000/svg" xmlns:xlink="http://www.w3.org/1999/xlink">
<g id="graph0" class="graph" transform="scale(1 1) rotate(0) translate(4 586)">
<title>dependency&#45;cruiser output</title>
<polygon fill="white" stroke="none" points="-4,4 -4,-586 1602,-586 1602,4 -4,4"/>
<g id="clust1" class="cluster">
<title>cluster_src</title>
<path fill="#ffffff" stroke="black" stroke-width="2" d="M20,-8C20,-8 1578,-8 1578,-8 1584,-8 1590,-14 1590,-20 1590,-20 1590,-562 1590,-562 1590,-568 1584,-574 1578,-574 1578,-574 20,-574 20,-574 14,-574 8,-568 8,-562 8,-562 8,-20 8,-20 8,-14 14,-8 20,-8"/>
<text text-anchor="middle" x="799" y="-561.45" font-family="Helvetica,sans-Serif" font-weight="bold" font-size="9.00">src</text>
</g>
<g id="clust2" class="cluster">
<title>cluster_src/application</title>
<path fill="#ffffff" stroke="black" stroke-width="2" d="M512.25,-159C512.25,-159 949.5,-159 949.5,-159 955.5,-159 961.5,-165 961.5,-171 961.5,-171 961.5,-305 961.5,-305 961.5,-311 955.5,-317 949.5,-317 949.5,-317 512.25,-317 512.25,-317 506.25,-317 500.25,-311 500.25,-305 500.25,-305 500.25,-171 500.25,-171 500.25,-165 506.25,-159 512.25,-159"/>
<text text-anchor="middle" x="730.88" y="-304.45" font-family="Helvetica,sans-Serif" font-weight="bold" font-size="9.00">application</text>
</g>
<g id="clust3" class="cluster">
<title>cluster_src/application/services</title>
<path fill="#ffffff" stroke="black" stroke-width="2" d="M582.25,-173C582.25,-173 941.5,-173 941.5,-173 947.5,-173 953.5,-179 953.5,-185 953.5,-185 953.5,-278 953.5,-278 953.5,-284 947.5,-290 941.5,-290 941.5,-290 582.25,-290 582.25,-290 576.25,-290 570.25,-284 570.25,-278 570.25,-278 570.25,-185 570.25,-185 570.25,-179 576.25,-173 582.25,-173"/>
<text text-anchor="middle" x="761.88" y="-277.45" font-family="Helvetica,sans-Serif" font-weight="bold" font-size="9.00">services</text>
</g>
<g id="clust4" class="cluster">
<title>cluster_src/components</title>
<path fill="#ffffff" stroke="black" stroke-width="2" d="M265.25,-205C265.25,-205 480.25,-205 480.25,-205 486.25,-205 492.25,-211 492.25,-217 492.25,-217 492.25,-374 492.25,-374 492.25,-380 486.25,-386 480.25,-386 480.25,-386 265.25,-386 265.25,-386 259.25,-386 253.25,-380 253.25,-374 253.25,-374 253.25,-217 253.25,-217 253.25,-211 259.25,-205 265.25,-205"/>
<text text-anchor="middle" x="372.75" y="-373.45" font-family="Helvetica,sans-Serif" font-weight="bold" font-size="9.00">components</text>
</g>
<g id="clust6" class="cluster">
<title>cluster_src/components/utils</title>
<path fill="#ffffff" stroke="black" stroke-width="2" d="M273.25,-276C273.25,-276 371.25,-276 371.25,-276 377.25,-276 383.25,-282 383.25,-288 383.25,-288 383.25,-319 383.25,-319 383.25,-325 377.25,-331 371.25,-331 371.25,-331 273.25,-331 273.25,-331 267.25,-331 261.25,-325 261.25,-319 261.25,-319 261.25,-288 261.25,-288 261.25,-282 267.25,-276 273.25,-276"/>
<text text-anchor="middle" x="322.25" y="-318.45" font-family="Helvetica,sans-Serif" font-weight="bold" font-size="9.00">utils</text>
</g>
<g id="clust5" class="cluster">
<title>cluster_src/components/inputs</title>
<path fill="#ffffff" stroke="black" stroke-width="2" d="M292.38,-213C292.38,-213 352.12,-213 352.12,-213 358.12,-213 364.12,-219 364.12,-225 364.12,-225 364.12,-256 364.12,-256 364.12,-262 358.12,-268 352.12,-268 352.12,-268 292.38,-268 292.38,-268 286.38,-268 280.38,-262 280.38,-256 280.38,-256 280.38,-225 280.38,-225 280.38,-219 286.38,-213 292.38,-213"/>
<text text-anchor="middle" x="322.25" y="-255.45" font-family="Helvetica,sans-Serif" font-weight="bold" font-size="9.00">inputs</text>
</g>
<g id="clust7" class="cluster">
<title>cluster_src/domain</title>
<path fill="#ffffff" stroke="black" stroke-width="2" d="M1142.75,-145C1142.75,-145 1570,-145 1570,-145 1576,-145 1582,-151 1582,-157 1582,-157 1582,-535 1582,-535 1582,-541 1576,-547 1570,-547 1570,-547 1142.75,-547 1142.75,-547 1136.75,-547 1130.75,-541 1130.75,-535 1130.75,-535 1130.75,-157 1130.75,-157 1130.75,-151 1136.75,-145 1142.75,-145"/>
<text text-anchor="middle" x="1356.38" y="-534.45" font-family="Helvetica,sans-Serif" font-weight="bold" font-size="9.00">domain</text>
</g>
<g id="clust8" class="cluster">
<title>cluster_src/domain/constants</title>
<path fill="#ffffff" stroke="black" stroke-width="2" d="M1286.38,-153C1286.38,-153 1332.38,-153 1332.38,-153 1338.38,-153 1344.38,-159 1344.38,-165 1344.38,-165 1344.38,-196 1344.38,-196 1344.38,-202 1338.38,-208 1332.38,-208 1332.38,-208 1286.38,-208 1286.38,-208 1280.38,-208 1274.38,-202 1274.38,-196 1274.38,-196 1274.38,-165 1274.38,-165 1274.38,-159 1280.38,-153 1286.38,-153"/>
<text text-anchor="middle" x="1309.38" y="-195.45" font-family="Helvetica,sans-Serif" font-weight="bold" font-size="9.00">constants</text>
</g>
<g id="clust9" class="cluster">
<title>cluster_src/domain/entities</title>
<path fill="#ffffff" stroke="black" stroke-width="2" d="M1270.12,-340C1270.12,-340 1562,-340 1562,-340 1568,-340 1574,-346 1574,-352 1574,-352 1574,-414 1574,-414 1574,-420 1568,-426 1562,-426 1562,-426 1270.12,-426 1270.12,-426 1264.12,-426 1258.12,-420 1258.12,-414 1258.12,-414 1258.12,-352 1258.12,-352 1258.12,-346 1264.12,-340 1270.12,-340"/>
<text text-anchor="middle" x="1416.06" y="-413.45" font-family="Helvetica,sans-Serif" font-weight="bold" font-size="9.00">entities</text>
</g>
<g id="clust10" class="cluster">
<title>cluster_src/domain/repositories</title>
<path fill="#ffffff" stroke="black" stroke-width="2" d="M1258.5,-226C1258.5,-226 1360.25,-226 1360.25,-226 1366.25,-226 1372.25,-232 1372.25,-238 1372.25,-238 1372.25,-300 1372.25,-300 1372.25,-306 1366.25,-312 1360.25,-312 1360.25,-312 1258.5,-312 1258.5,-312 1252.5,-312 1246.5,-306 1246.5,-300 1246.5,-300 1246.5,-238 1246.5,-238 1246.5,-232 1252.5,-226 1258.5,-226"/>
<text text-anchor="middle" x="1309.38" y="-299.45" font-family="Helvetica,sans-Serif" font-weight="bold" font-size="9.00">repositories</text>
</g>
<g id="clust12" class="cluster">
<title>cluster_src/domain/valueObjects</title>
<path fill="#ffffff" stroke="black" stroke-width="2" d="M1392.25,-434C1392.25,-434 1482.75,-434 1482.75,-434 1488.75,-434 1494.75,-440 1494.75,-446 1494.75,-446 1494.75,-508 1494.75,-508 1494.75,-514 1488.75,-520 1482.75,-520 1482.75,-520 1392.25,-520 1392.25,-520 1386.25,-520 1380.25,-514 1380.25,-508 1380.25,-508 1380.25,-446 1380.25,-446 1380.25,-440 1386.25,-434 1392.25,-434"/>
<text text-anchor="middle" x="1437.5" y="-507.45" font-family="Helvetica,sans-Serif" font-weight="bold" font-size="9.00">valueObjects</text>
</g>
<g id="clust11" class="cluster">
<title>cluster_src/domain/services</title>
<path fill="#ffffff" stroke="black" stroke-width="2" d="M1267.5,-434C1267.5,-434 1351.25,-434 1351.25,-434 1357.25,-434 1363.25,-440 1363.25,-446 1363.25,-446 1363.25,-477 1363.25,-477 1363.25,-483 1357.25,-489 1351.25,-489 1351.25,-489 1267.5,-489 1267.5,-489 1261.5,-489 1255.5,-483 1255.5,-477 1255.5,-477 1255.5,-446 1255.5,-446 1255.5,-440 1261.5,-434 1267.5,-434"/>
<text text-anchor="middle" x="1309.38" y="-476.45" font-family="Helvetica,sans-Serif" font-weight="bold" font-size="9.00">services</text>
</g>
<g id="clust13" class="cluster">
<title>cluster_src/infrastructure</title>
<path fill="#ffffff" stroke="black" stroke-width="2" d="M859.38,-16C859.38,-16 1226.5,-16 1226.5,-16 1232.5,-16 1238.5,-22 1238.5,-28 1238.5,-28 1238.5,-125 1238.5,-125 1238.5,-131 1232.5,-137 1226.5,-137 1226.5,-137 859.38,-137 859.38,-137 853.38,-137 847.38,-131 847.38,-125 847.38,-125 847.38,-28 847.38,-28 847.38,-22 853.38,-16 859.38,-16"/>
<text text-anchor="middle" x="1042.94" y="-124.45" font-family="Helvetica,sans-Serif" font-weight="bold" font-size="9.00">infrastructure</text>
</g>
<g id="clust15" class="cluster">
<title>cluster_src/infrastructure/repository</title>
<path fill="#ffffff" stroke="black" stroke-width="2" d="M981.5,-24C981.5,-24 1081,-24 1081,-24 1087,-24 1093,-30 1093,-36 1093,-36 1093,-98 1093,-98 1093,-104 1087,-110 1081,-110 1081,-110 981.5,-110 981.5,-110 975.5,-110 969.5,-104 969.5,-98 969.5,-98 969.5,-36 969.5,-36 969.5,-30 975.5,-24 981.5,-24"/>
<text text-anchor="middle" x="1031.25" y="-97.45" font-family="Helvetica,sans-Serif" font-weight="bold" font-size="9.00">repository</text>
</g>
<g id="clust14" class="cluster">
<title>cluster_src/infrastructure/database</title>
<path fill="#ffffff" stroke="black" stroke-width="2" d="M1113,-39C1113,-39 1218.5,-39 1218.5,-39 1224.5,-39 1230.5,-45 1230.5,-51 1230.5,-51 1230.5,-82 1230.5,-82 1230.5,-88 1224.5,-94 1218.5,-94 1218.5,-94 1113,-94 1113,-94 1107,-94 1101,-88 1101,-82 1101,-82 1101,-51 1101,-51 1101,-45 1107,-39 1113,-39"/>
<text text-anchor="middle" x="1165.75" y="-81.45" font-family="Helvetica,sans-Serif" font-weight="bold" font-size="9.00">database</text>
</g>
<g id="clust16" class="cluster">
<title>cluster_src/stores</title>
<path fill="#ffffff" stroke="black" stroke-width="2" d="M403.25,-111C403.25,-111 479.5,-111 479.5,-111 485.5,-111 491.5,-117 491.5,-123 491.5,-123 491.5,-185 491.5,-185 491.5,-191 485.5,-197 479.5,-197 479.5,-197 403.25,-197 403.25,-197 397.25,-197 391.25,-191 391.25,-185 391.25,-185 391.25,-123 391.25,-123 391.25,-117 397.25,-111 403.25,-111"/>
<text text-anchor="middle" x="441.38" y="-184.45" font-family="Helvetica,sans-Serif" font-weight="bold" font-size="9.00">stores</text>
</g>
<g id="clust17" class="cluster">
<title>cluster_src/views</title>
<path fill="#ffffff" stroke="black" stroke-width="2" d="M157,-142C157,-142 233.25,-142 233.25,-142 239.25,-142 245.25,-148 245.25,-154 245.25,-154 245.25,-216 245.25,-216 245.25,-222 239.25,-228 233.25,-228 233.25,-228 157,-228 157,-228 151,-228 145,-222 145,-216 145,-216 145,-154 145,-154 145,-148 151,-142 157,-142"/>
<text text-anchor="middle" x="195.12" y="-215.45" font-family="Helvetica,sans-Serif" font-weight="bold" font-size="9.00">views</text>
</g>
<!-- src/App.vue -->
<g id="node1" class="node">
<title>src/App.vue</title>
<g id="a_node1"><a xlink:href="src/App.vue" xlink:title="App.vue">
<path fill="#41f083" stroke="black" d="M130.58,-200.62C130.58,-200.62 89.42,-200.62 89.42,-200.62 86.21,-200.62 83,-197.42 83,-194.21 83,-194.21 83,-187.79 83,-187.79 83,-184.58 86.21,-181.38 89.42,-181.38 89.42,-181.38 130.58,-181.38 130.58,-181.38 133.79,-181.38 137,-184.58 137,-187.79 137,-187.79 137,-194.21 137,-194.21 137,-197.42 133.79,-200.62 130.58,-200.62"/>
<text text-anchor="start" x="93.88" y="-188.07" font-family="Helvetica,sans-Serif" font-size="9.00">App.vue</text>
</a>
</g>
</g>
<!-- src/components/utils/DiagnosticsPanel.vue -->
<g id="node2" class="node">
<title>src/components/utils/DiagnosticsPanel.vue</title>
<g id="a_node2"><a xlink:href="src/components/utils/DiagnosticsPanel.vue" xlink:title="DiagnosticsPanel.vue">
<path fill="#41f083" stroke="black" d="M368.83,-303.62C368.83,-303.62 275.67,-303.62 275.67,-303.62 272.46,-303.62 269.25,-300.42 269.25,-297.21 269.25,-297.21 269.25,-290.79 269.25,-290.79 269.25,-287.58 272.46,-284.38 275.67,-284.38 275.67,-284.38 368.83,-284.38 368.83,-284.38 372.04,-284.38 375.25,-287.58 375.25,-290.79 375.25,-290.79 375.25,-297.21 375.25,-297.21 375.25,-300.42 372.04,-303.62 368.83,-303.62"/>
<text text-anchor="start" x="277.25" y="-291.07" font-family="Helvetica,sans-Serif" font-size="9.00">DiagnosticsPanel.vue</text>
</a>
</g>
</g>
<!-- src/App.vue&#45;&gt;src/components/utils/DiagnosticsPanel.vue -->
<g id="edge1" class="edge">
<title>src/App.vue&#45;&gt;src/components/utils/DiagnosticsPanel.vue</title>
<path fill="none" stroke="#000000" stroke-width="2" stroke-opacity="0.200000" d="M117.18,-200.81C123.27,-209.78 133.35,-222.85 145,-231 180.75,-255.99 227.47,-272.1 263.83,-281.76"/>
<polygon fill="#000000" fill-opacity="0.200000" stroke="#000000" stroke-width="2" stroke-opacity="0.200000" points="263.09,-283.74 269.43,-283.21 264.14,-279.68 263.09,-283.74"/>
</g>
<!-- src/views/NavBar.vue -->
<g id="node3" class="node">
<title>src/views/NavBar.vue</title>
<g id="a_node3"><a xlink:href="src/views/NavBar.vue" xlink:title="NavBar.vue">
<path fill="#41f083" stroke="black" d="M219.96,-169.62C219.96,-169.62 170.29,-169.62 170.29,-169.62 167.08,-169.62 163.88,-166.42 163.88,-163.21 163.88,-163.21 163.88,-156.79 163.88,-156.79 163.88,-153.58 167.08,-150.38 170.29,-150.38 170.29,-150.38 219.96,-150.38 219.96,-150.38 223.17,-150.38 226.38,-153.58 226.38,-156.79 226.38,-156.79 226.38,-163.21 226.38,-163.21 226.38,-166.42 223.17,-169.62 219.96,-169.62"/>
<text text-anchor="start" x="171.88" y="-157.07" font-family="Helvetica,sans-Serif" font-size="9.00">NavBar.vue</text>
</a>
</g>
</g>
<!-- src/App.vue&#45;&gt;src/views/NavBar.vue -->
<g id="edge2" class="edge">
<title>src/App.vue&#45;&gt;src/views/NavBar.vue</title>
<path fill="none" stroke="#000000" stroke-width="2" stroke-opacity="0.200000" d="M130.93,-181.04C135.5,-178.92 140.37,-176.78 145,-175 148.23,-173.75 151.61,-172.54 155.02,-171.38"/>
<polygon fill="#000000" fill-opacity="0.200000" stroke="#000000" stroke-width="2" stroke-opacity="0.200000" points="155.57,-173.41 160.62,-169.55 154.26,-169.42 155.57,-173.41"/>
</g>
<!-- src/views/VideoGallery.vue -->
<g id="node4" class="node">
<title>src/views/VideoGallery.vue</title>
<g id="a_node4"><a xlink:href="src/views/VideoGallery.vue" xlink:title="VideoGallery.vue">
<path fill="#41f083" stroke="black" d="M230.83,-200.62C230.83,-200.62 159.42,-200.62 159.42,-200.62 156.21,-200.62 153,-197.42 153,-194.21 153,-194.21 153,-187.79 153,-187.79 153,-184.58 156.21,-181.38 159.42,-181.38 159.42,-181.38 230.83,-181.38 230.83,-181.38 234.04,-181.38 237.25,-184.58 237.25,-187.79 237.25,-187.79 237.25,-194.21 237.25,-194.21 237.25,-197.42 234.04,-200.62 230.83,-200.62"/>
<text text-anchor="start" x="161" y="-188.07" font-family="Helvetica,sans-Serif" font-size="9.00">VideoGallery.vue</text>
</a>
</g>
</g>
<!-- src/App.vue&#45;&gt;src/views/VideoGallery.vue -->
<g id="edge3" class="edge">
<title>src/App.vue&#45;&gt;src/views/VideoGallery.vue</title>
<path fill="none" stroke="#000000" stroke-width="2" stroke-opacity="0.200000" d="M137.3,-191C139.42,-191 141.61,-191 143.83,-191"/>
<polygon fill="#000000" fill-opacity="0.200000" stroke="#000000" stroke-width="2" stroke-opacity="0.200000" points="143.47,-193.1 149.47,-191 143.47,-188.9 143.47,-193.1"/>
</g>
<!-- src/application/index.ts -->
<g id="node5" class="node">
<title>src/application/index.ts</title>
<g id="a_node5"><a xlink:href="src/application/index.ts" xlink:title="index.ts">
<path fill="#ddfeff" stroke="black" d="M555.83,-200.62C555.83,-200.62 514.67,-200.62 514.67,-200.62 511.46,-200.62 508.25,-197.42 508.25,-194.21 508.25,-194.21 508.25,-187.79 508.25,-187.79 508.25,-184.58 511.46,-181.38 514.67,-181.38 514.67,-181.38 555.83,-181.38 555.83,-181.38 559.04,-181.38 562.25,-184.58 562.25,-187.79 562.25,-187.79 562.25,-194.21 562.25,-194.21 562.25,-197.42 559.04,-200.62 555.83,-200.62"/>
<text text-anchor="start" x="519.5" y="-188.07" font-family="Helvetica,sans-Serif" font-size="9.00">index.ts</text>
</a>
</g>
</g>
<!-- src/components/utils/DiagnosticsPanel.vue&#45;&gt;src/application/index.ts -->
<g id="edge20" class="edge">
<title>src/components/utils/DiagnosticsPanel.vue&#45;&gt;src/application/index.ts</title>
<path fill="none" stroke="#000000" stroke-width="2" stroke-opacity="0.200000" d="M362.15,-283.93C369.75,-280.69 377.22,-276.47 383.25,-271 389.14,-265.66 385.51,-260.5 391.25,-255 421.77,-225.76 467.93,-208.44 499.49,-199.34"/>
<polygon fill="#000000" fill-opacity="0.200000" stroke="#000000" stroke-width="2" stroke-opacity="0.200000" points="499.84,-201.42 505.07,-197.79 498.72,-197.37 499.84,-201.42"/>
</g>
<!-- src/stores/appStateStore.ts -->
<g id="node17" class="node">
<title>src/stores/appStateStore.ts</title>
<g id="a_node17"><a xlink:href="src/stores/appStateStore.ts" xlink:title="appStateStore.ts">
<path fill="#ddfeff" stroke="black" d="M477.08,-138.62C477.08,-138.62 405.67,-138.62 405.67,-138.62 402.46,-138.62 399.25,-135.42 399.25,-132.21 399.25,-132.21 399.25,-125.79 399.25,-125.79 399.25,-122.58 402.46,-119.38 405.67,-119.38 405.67,-119.38 477.08,-119.38 477.08,-119.38 480.29,-119.38 483.5,-122.58 483.5,-125.79 483.5,-125.79 483.5,-132.21 483.5,-132.21 483.5,-135.42 480.29,-138.62 477.08,-138.62"/>
<text text-anchor="start" x="407.25" y="-126.08" font-family="Helvetica,sans-Serif" font-size="9.00">appStateStore.ts</text>
</a>
</g>
</g>
<!-- src/components/utils/DiagnosticsPanel.vue&#45;&gt;src/stores/appStateStore.ts -->
<g id="edge21" class="edge">
<title>src/components/utils/DiagnosticsPanel.vue&#45;&gt;src/stores/appStateStore.ts</title>
<path fill="none" stroke="#000000" stroke-width="2" stroke-opacity="0.200000" d="M367.34,-284C373.52,-280.8 379.15,-276.57 383.25,-271 400,-248.21 373.72,-166.19 391.25,-144 391.66,-143.48 392.1,-142.97 392.55,-142.48"/>
<polygon fill="#000000" fill-opacity="0.200000" stroke="#000000" stroke-width="2" stroke-opacity="0.200000" points="393.54,-144.38 396.85,-138.96 390.88,-141.13 393.54,-144.38"/>
</g>
<!-- src/stores/videosStore.ts -->
<g id="node15" class="node">
<title>src/stores/videosStore.ts</title>
<g id="a_node15"><a xlink:href="src/stores/videosStore.ts" xlink:title="videosStore.ts">
<path fill="#ddfeff" stroke="black" d="M472.21,-169.62C472.21,-169.62 410.54,-169.62 410.54,-169.62 407.33,-169.62 404.12,-166.42 404.12,-163.21 404.12,-163.21 404.12,-156.79 404.12,-156.79 404.12,-153.58 407.33,-150.38 410.54,-150.38 410.54,-150.38 472.21,-150.38 472.21,-150.38 475.42,-150.38 478.62,-153.58 478.62,-156.79 478.62,-156.79 478.62,-163.21 478.62,-163.21 478.62,-166.42 475.42,-169.62 472.21,-169.62"/>
<text text-anchor="start" x="412.12" y="-157.07" font-family="Helvetica,sans-Serif" font-size="9.00">videosStore.ts</text>
</a>
</g>
</g>
<!-- src/views/NavBar.vue&#45;&gt;src/stores/videosStore.ts -->
<g id="edge50" class="edge">
<title>src/views/NavBar.vue&#45;&gt;src/stores/videosStore.ts</title>
<path fill="none" stroke="#000000" stroke-width="2" stroke-opacity="0.200000" d="M226.57,-160C268.94,-160 346.03,-160 395.14,-160"/>
<polygon fill="#000000" fill-opacity="0.200000" stroke="#000000" stroke-width="2" stroke-opacity="0.200000" points="394.95,-162.1 400.95,-160 394.95,-157.9 394.95,-162.1"/>
</g>
<!-- src/components/inputs/FileInput.vue -->
<g id="node16" class="node">
<title>src/components/inputs/FileInput.vue</title>
<g id="a_node16"><a xlink:href="src/components/inputs/FileInput.vue" xlink:title="FileInput.vue">
<path fill="#41f083" stroke="black" d="M349.71,-240.62C349.71,-240.62 294.79,-240.62 294.79,-240.62 291.58,-240.62 288.38,-237.42 288.38,-234.21 288.38,-234.21 288.38,-227.79 288.38,-227.79 288.38,-224.58 291.58,-221.38 294.79,-221.38 294.79,-221.38 349.71,-221.38 349.71,-221.38 352.92,-221.38 356.12,-224.58 356.12,-227.79 356.12,-227.79 356.12,-234.21 356.12,-234.21 356.12,-237.42 352.92,-240.62 349.71,-240.62"/>
<text text-anchor="start" x="296.38" y="-228.07" font-family="Helvetica,sans-Serif" font-size="9.00">FileInput.vue</text>
</a>
</g>
</g>
<!-- src/views/NavBar.vue&#45;&gt;src/components/inputs/FileInput.vue -->
<g id="edge48" class="edge">
<title>src/views/NavBar.vue&#45;&gt;src/components/inputs/FileInput.vue</title>
<path fill="none" stroke="#000000" stroke-width="2" stroke-opacity="0.200000" d="M226.63,-167.56C232.94,-169.6 239.43,-172.08 245.25,-175 266.9,-185.88 288.88,-202.86 303.6,-215.28"/>
<polygon fill="#000000" fill-opacity="0.200000" stroke="#000000" stroke-width="2" stroke-opacity="0.200000" points="301.99,-216.67 307.91,-218.98 304.73,-213.48 301.99,-216.67"/>
</g>
<!-- src/views/NavBar.vue&#45;&gt;src/stores/appStateStore.ts -->
<g id="edge49" class="edge">
<title>src/views/NavBar.vue&#45;&gt;src/stores/appStateStore.ts</title>
<path fill="none" stroke="#000000" stroke-width="2" stroke-opacity="0.200000" d="M226.57,-156.14C267.5,-150.94 340.81,-141.64 390.02,-135.39"/>
<polygon fill="#000000" fill-opacity="0.200000" stroke="#000000" stroke-width="2" stroke-opacity="0.200000" points="390.23,-137.48 395.92,-134.64 389.7,-133.31 390.23,-137.48"/>
</g>
<!-- src/components/VideoCard.vue -->
<g id="node13" class="node">
<title>src/components/VideoCard.vue</title>
<g id="a_node13"><a xlink:href="src/components/VideoCard.vue" xlink:title="VideoCard.vue">
<path fill="#41f083" stroke="black" d="M353.83,-358.62C353.83,-358.62 290.67,-358.62 290.67,-358.62 287.46,-358.62 284.25,-355.42 284.25,-352.21 284.25,-352.21 284.25,-345.79 284.25,-345.79 284.25,-342.58 287.46,-339.38 290.67,-339.38 290.67,-339.38 353.83,-339.38 353.83,-339.38 357.04,-339.38 360.25,-342.58 360.25,-345.79 360.25,-345.79 360.25,-352.21 360.25,-352.21 360.25,-355.42 357.04,-358.62 353.83,-358.62"/>
<text text-anchor="start" x="292.25" y="-346.07" font-family="Helvetica,sans-Serif" font-size="9.00">VideoCard.vue</text>
</a>
</g>
</g>
<!-- src/views/VideoGallery.vue&#45;&gt;src/components/VideoCard.vue -->
<g id="edge51" class="edge">
<title>src/views/VideoGallery.vue&#45;&gt;src/components/VideoCard.vue</title>
<path fill="none" stroke="#000000" stroke-width="2" stroke-opacity="0.200000" d="M196.97,-200.77C199.75,-226.79 211.06,-298.18 253.25,-334 259.54,-339.34 267.32,-342.9 275.34,-345.25"/>
<polygon fill="#000000" fill-opacity="0.200000" stroke="#000000" stroke-width="2" stroke-opacity="0.200000" points="274.81,-347.28 281.13,-346.64 275.79,-343.2 274.81,-347.28"/>
</g>
<!-- src/views/VideoGallery.vue&#45;&gt;src/stores/videosStore.ts -->
<g id="edge53" class="edge">
<title>src/views/VideoGallery.vue&#45;&gt;src/stores/videosStore.ts</title>
<path fill="none" stroke="#000000" stroke-width="2" stroke-opacity="0.200000" d="M237.4,-191.38C275.57,-191.02 333.72,-188.66 383.25,-179 390.84,-177.52 398.82,-175.31 406.33,-172.91"/>
<polygon fill="#000000" fill-opacity="0.200000" stroke="#000000" stroke-width="2" stroke-opacity="0.200000" points="406.98,-174.9 412,-171 405.65,-170.92 406.98,-174.9"/>
</g>
<!-- src/views/VideoGallery.vue&#45;&gt;src/stores/appStateStore.ts -->
<g id="edge52" class="edge">
<title>src/views/VideoGallery.vue&#45;&gt;src/stores/appStateStore.ts</title>
<path fill="none" stroke="#000000" stroke-width="2" stroke-opacity="0.200000" d="M237.5,-182.69C284.11,-173.12 356.82,-157.49 383.25,-148 386.99,-146.66 387.56,-145.47 391.25,-144 392.86,-143.36 394.52,-142.72 396.2,-142.1"/>
<polygon fill="#000000" fill-opacity="0.200000" stroke="#000000" stroke-width="2" stroke-opacity="0.200000" points="396.89,-144.08 401.85,-140.12 395.5,-140.12 396.89,-144.08"/>
</g>
<!-- src/application/services/FileParserService.ts -->
<g id="node6" class="node">
<title>src/application/services/FileParserService.ts</title>
<g id="a_node6"><a xlink:href="src/application/services/FileParserService.ts" xlink:title="FileParserService.ts">
<path fill="#ddfeff" stroke="black" d="M670.33,-231.62C670.33,-231.62 584.67,-231.62 584.67,-231.62 581.46,-231.62 578.25,-228.42 578.25,-225.21 578.25,-225.21 578.25,-218.79 578.25,-218.79 578.25,-215.58 581.46,-212.38 584.67,-212.38 584.67,-212.38 670.33,-212.38 670.33,-212.38 673.54,-212.38 676.75,-215.58 676.75,-218.79 676.75,-218.79 676.75,-225.21 676.75,-225.21 676.75,-228.42 673.54,-231.62 670.33,-231.62"/>
<text text-anchor="start" x="586.25" y="-219.07" font-family="Helvetica,sans-Serif" font-size="9.00">FileParserService.ts</text>
</a>
</g>
</g>
<!-- src/application/index.ts&#45;&gt;src/application/services/FileParserService.ts -->
<g id="edge4" class="edge">
<title>src/application/index.ts&#45;&gt;src/application/services/FileParserService.ts</title>
<path fill="none" stroke="#000000" stroke-width="2" stroke-opacity="0.200000" d="M556.13,-201.08C560.7,-203.2 565.59,-205.3 585.37,-211.95"/>
<polygon fill="#000000" fill-opacity="0.200000" stroke="#000000" stroke-width="2" stroke-opacity="0.200000" points="588.18,-210.56 592.08,-218.66 583.98,-214.76 588.18,-210.56"/>
</g>
<!-- src/application/services/FiltersService.ts -->
<g id="node7" class="node">
<title>src/application/services/FiltersService.ts</title>
<g id="a_node7"><a xlink:href="src/application/services/FiltersService.ts" xlink:title="FiltersService.ts">
<path fill="#ddfeff" stroke="black" d="M661.71,-262.62C661.71,-262.62 593.29,-262.62 593.29,-262.62 590.08,-262.62 586.88,-259.42 586.88,-256.21 586.88,-256.21 586.88,-249.79 586.88,-249.79 586.88,-246.58 590.08,-243.38 593.29,-243.38 593.29,-243.38 661.71,-243.38 661.71,-243.38 664.92,-243.38 668.12,-246.58 668.12,-249.79 668.12,-249.79 668.12,-256.21 668.12,-256.21 668.12,-259.42 664.92,-262.62 661.71,-262.62"/>
<text text-anchor="start" x="594.88" y="-250.07" font-family="Helvetica,sans-Serif" font-size="9.00">FiltersService.ts</text>
</a>
</g>
</g>
<!-- src/application/index.ts&#45;&gt;src/application/services/FiltersService.ts -->
<g id="edge5" class="edge">
<title>src/application/index.ts&#45;&gt;src/application/services/FiltersService.ts</title>
<path fill="none" stroke="#000000" stroke-width="2" stroke-opacity="0.200000" d="M540.8,-200.83C546.27,-211.58 556.48,-228.53 570.25,-238 572.78,-239.74 575.51,-241.28 578.34,-242.64"/>
<polygon fill="#000000" fill-opacity="0.200000" stroke="#000000" stroke-width="2" stroke-opacity="0.200000" points="577.42,-244.53 583.76,-244.87 579.02,-240.65 577.42,-244.53"/>
</g>
<!-- src/application/services/Hotkeys.ts -->
<g id="node8" class="node">
<title>src/application/services/Hotkeys.ts</title>
<g id="a_node8"><a xlink:href="src/application/services/Hotkeys.ts" xlink:title="Hotkeys.ts">
<path fill="#ddfeff" stroke="black" d="M650.46,-200.62C650.46,-200.62 604.54,-200.62 604.54,-200.62 601.33,-200.62 598.12,-197.42 598.12,-194.21 598.12,-194.21 598.12,-187.79 598.12,-187.79 598.12,-184.58 601.33,-181.38 604.54,-181.38 604.54,-181.38 650.46,-181.38 650.46,-181.38 653.67,-181.38 656.88,-184.58 656.88,-187.79 656.88,-187.79 656.88,-194.21 656.88,-194.21 656.88,-197.42 653.67,-200.62 650.46,-200.62"/>
<text text-anchor="start" x="606.12" y="-188.07" font-family="Helvetica,sans-Serif" font-size="9.00">Hotkeys.ts</text>
</a>
</g>
</g>
<!-- src/application/index.ts&#45;&gt;src/application/services/Hotkeys.ts -->
<g id="edge6" class="edge">
<title>src/application/index.ts&#45;&gt;src/application/services/Hotkeys.ts</title>
<path fill="none" stroke="#000000" stroke-width="2" stroke-opacity="0.200000" d="M562.35,-191C573.49,-191 586.53,-191 597.93,-191"/>
<polygon fill="#000000" fill-opacity="0.200000" stroke="#000000" stroke-width="2" stroke-opacity="0.200000" points="600.73,-189.61 604.63,-197.71 596.53,-193.81 600.73,-189.61"/>
</g>
<!-- src/application/services/VideoMetadataService.ts -->
<g id="node9" class="node">
<title>src/application/services/VideoMetadataService.ts</title>
<g id="a_node9"><a xlink:href="src/application/services/VideoMetadataService.ts" xlink:title="VideoMetadataService.ts">
<path fill="#ddfeff" stroke="black" d="M799.83,-211.62C799.83,-211.62 696.17,-211.62 696.17,-211.62 692.96,-211.62 689.75,-208.42 689.75,-205.21 689.75,-205.21 689.75,-198.79 689.75,-198.79 689.75,-195.58 692.96,-192.38 696.17,-192.38 696.17,-192.38 799.83,-192.38 799.83,-192.38 803.04,-192.38 806.25,-195.58 806.25,-198.79 806.25,-198.79 806.25,-205.21 806.25,-205.21 806.25,-208.42 803.04,-211.62 799.83,-211.62"/>
<text text-anchor="start" x="697.75" y="-199.07" font-family="Helvetica,sans-Serif" font-size="9.00">VideoMetadataService.ts</text>
</a>
</g>
</g>
<!-- src/application/index.ts&#45;&gt;src/application/services/VideoMetadataService.ts -->
<g id="edge7" class="edge">
<title>src/application/index.ts&#45;&gt;src/application/services/VideoMetadataService.ts</title>
<path fill="none" stroke="#000000" stroke-width="2" stroke-opacity="0.200000" d="M553.72,-180.99C558.88,-178.53 564.65,-176.25 570.25,-175 616.44,-164.67 630.21,-166.36 676.75,-175 690.95,-177.63 705.97,-183.02 718.47,-188.3"/>
<polygon fill="#000000" fill-opacity="0.200000" stroke="#000000" stroke-width="2" stroke-opacity="0.200000" points="717.57,-190.2 723.91,-190.69 719.26,-186.35 717.57,-190.2"/>
</g>
<!-- src/application/services/FileParserService.ts&#45;&gt;src/application/services/VideoMetadataService.ts -->
<g id="edge8" class="edge">
<title>src/application/services/FileParserService.ts&#45;&gt;src/application/services/VideoMetadataService.ts</title>
<path fill="none" stroke="#000000" stroke-width="2" stroke-opacity="0.200000" d="M677.04,-213.81C678.32,-213.59 679.6,-213.37 680.89,-213.16"/>
<polygon fill="#000000" fill-opacity="0.200000" stroke="#000000" stroke-width="2" stroke-opacity="0.200000" points="680.89,-215.29 686.46,-212.22 680.19,-211.15 680.89,-215.29"/>
</g>
<!-- src/domain/index.ts -->
<g id="node10" class="node">
<title>src/domain/index.ts</title>
<g id="a_node10"><a xlink:href="src/domain/index.ts" xlink:title="index.ts">
<path fill="#ddfeff" stroke="black" d="M1186.33,-257.62C1186.33,-257.62 1145.17,-257.62 1145.17,-257.62 1141.96,-257.62 1138.75,-254.42 1138.75,-251.21 1138.75,-251.21 1138.75,-244.79 1138.75,-244.79 1138.75,-241.58 1141.96,-238.38 1145.17,-238.38 1145.17,-238.38 1186.33,-238.38 1186.33,-238.38 1189.54,-238.38 1192.75,-241.58 1192.75,-244.79 1192.75,-244.79 1192.75,-251.21 1192.75,-251.21 1192.75,-254.42 1189.54,-257.62 1186.33,-257.62"/>
<text text-anchor="start" x="1150" y="-245.07" font-family="Helvetica,sans-Serif" font-size="9.00">index.ts</text>
</a>
</g>
</g>
<!-- src/application/services/FileParserService.ts&#45;&gt;src/domain/index.ts -->
<g id="edge9" class="edge">
<title>src/application/services/FileParserService.ts&#45;&gt;src/domain/index.ts</title>
<path fill="none" stroke="#000000" stroke-width="2" stroke-opacity="0.200000" d="M677.03,-224.35C783.7,-229.52 1036.44,-241.78 1129.53,-246.29"/>
<polygon fill="#000000" fill-opacity="0.200000" stroke="#000000" stroke-width="2" stroke-opacity="0.200000" points="1129.17,-248.38 1135.26,-246.57 1129.37,-244.18 1129.17,-248.38"/>
</g>
<!-- src/application/services/FiltersService.ts&#45;&gt;src/domain/index.ts -->
<g id="edge10" class="edge">
<title>src/application/services/FiltersService.ts&#45;&gt;src/domain/index.ts</title>
<path fill="none" stroke="#000000" stroke-opacity="0.200000" d="M668.37,-252.63C769.87,-251.68 1036.69,-249.19 1131.08,-248.31"/>
<polygon fill="none" stroke="#000000" stroke-opacity="0.200000" points="1130.87,-250.42 1136.85,-248.26 1130.83,-246.22 1130.87,-250.42"/>
</g>
<!-- src/application/services/VideoMetadataService.ts&#45;&gt;src/domain/index.ts -->
<g id="edge12" class="edge">
<title>src/application/services/VideoMetadataService.ts&#45;&gt;src/domain/index.ts</title>
<path fill="none" stroke="#000000" stroke-opacity="0.200000" d="M788.17,-212.1C798.24,-214.37 809.1,-216.54 819.25,-218 939.91,-235.37 971.98,-220.33 1093,-235 1105.49,-236.51 1119.09,-238.81 1131.07,-241.06"/>
<polygon fill="none" stroke="#000000" stroke-opacity="0.200000" points="1130.51,-243.09 1136.8,-242.15 1131.3,-238.96 1130.51,-243.09"/>
</g>
<!-- src/application/services/VideoStorageDtoMapper.ts -->
<g id="node11" class="node">
<title>src/application/services/VideoStorageDtoMapper.ts</title>
<g id="a_node11"><a xlink:href="src/application/services/VideoStorageDtoMapper.ts" xlink:title="VideoStorageDtoMapper.ts">
<path fill="#ddfeff" stroke="black" d="M939.08,-211.62C939.08,-211.62 825.67,-211.62 825.67,-211.62 822.46,-211.62 819.25,-208.42 819.25,-205.21 819.25,-205.21 819.25,-198.79 819.25,-198.79 819.25,-195.58 822.46,-192.38 825.67,-192.38 825.67,-192.38 939.08,-192.38 939.08,-192.38 942.29,-192.38 945.5,-195.58 945.5,-198.79 945.5,-198.79 945.5,-205.21 945.5,-205.21 945.5,-208.42 942.29,-211.62 939.08,-211.62"/>
<text text-anchor="start" x="827.25" y="-199.07" font-family="Helvetica,sans-Serif" font-size="9.00">VideoStorageDtoMapper.ts</text>
</a>
</g>
</g>
<!-- src/application/services/VideoMetadataService.ts&#45;&gt;src/application/services/VideoStorageDtoMapper.ts -->
<g id="edge11" class="edge">
<title>src/application/services/VideoMetadataService.ts&#45;&gt;src/application/services/VideoStorageDtoMapper.ts</title>
<path fill="none" stroke="#000000" stroke-width="2" stroke-opacity="0.200000" d="M806.68,-202C807.81,-202 808.95,-202 810.09,-202"/>
<polygon fill="#000000" fill-opacity="0.200000" stroke="#000000" stroke-width="2" stroke-opacity="0.200000" points="809.84,-204.1 815.84,-202 809.84,-199.9 809.84,-204.1"/>
</g>
<!-- src/infrastructure/index.ts -->
<g id="node12" class="node">
<title>src/infrastructure/index.ts</title>
<g id="a_node12"><a xlink:href="src/infrastructure/index.ts" xlink:title="index.ts">
<path fill="#ddfeff" stroke="black" d="M902.96,-82.62C902.96,-82.62 861.79,-82.62 861.79,-82.62 858.58,-82.62 855.38,-79.42 855.38,-76.21 855.38,-76.21 855.38,-69.79 855.38,-69.79 855.38,-66.58 858.58,-63.38 861.79,-63.38 861.79,-63.38 902.96,-63.38 902.96,-63.38 906.17,-63.38 909.38,-66.58 909.38,-69.79 909.38,-69.79 909.38,-76.21 909.38,-76.21 909.38,-79.42 906.17,-82.62 902.96,-82.62"/>
<text text-anchor="start" x="866.62" y="-70.08" font-family="Helvetica,sans-Serif" font-size="9.00">index.ts</text>
</a>
</g>
</g>
<!-- src/application/services/VideoMetadataService.ts&#45;&gt;src/infrastructure/index.ts -->
<g id="edge13" class="edge">
<title>src/application/services/VideoMetadataService.ts&#45;&gt;src/infrastructure/index.ts</title>
<path fill="none" stroke="#000000" stroke-width="2" stroke-opacity="0.200000" d="M759.39,-191.88C782.2,-169.65 836.85,-116.39 864.6,-89.35"/>
<polygon fill="#000000" fill-opacity="0.200000" stroke="#000000" stroke-width="2" stroke-opacity="0.200000" points="866.04,-90.88 868.87,-85.19 863.11,-87.87 866.04,-90.88"/>
</g>
<!-- src/domain/constants/index.ts -->
<g id="node18" class="node">
<title>src/domain/constants/index.ts</title>
<g id="a_node18"><a xlink:href="src/domain/constants/index.ts" xlink:title="index.ts">
<path fill="#ddfeff" stroke="black" d="M1329.96,-180.62C1329.96,-180.62 1288.79,-180.62 1288.79,-180.62 1285.58,-180.62 1282.38,-177.42 1282.38,-174.21 1282.38,-174.21 1282.38,-167.79 1282.38,-167.79 1282.38,-164.58 1285.58,-161.38 1288.79,-161.38 1288.79,-161.38 1329.96,-161.38 1329.96,-161.38 1333.17,-161.38 1336.38,-164.58 1336.38,-167.79 1336.38,-167.79 1336.38,-174.21 1336.38,-174.21 1336.38,-177.42 1333.17,-180.62 1329.96,-180.62"/>
<text text-anchor="start" x="1293.62" y="-168.07" font-family="Helvetica,sans-Serif" font-size="9.00">index.ts</text>
</a>
</g>
</g>
<!-- src/domain/index.ts&#45;&gt;src/domain/constants/index.ts -->
<g id="edge25" class="edge">
<title>src/domain/index.ts&#45;&gt;src/domain/constants/index.ts</title>
<path fill="none" stroke="#000000" stroke-width="2" stroke-opacity="0.200000" d="M1176.09,-238.26C1190.06,-224.27 1217.84,-198.69 1246.5,-185 1254.77,-181.05 1264.21,-178.19 1273.18,-176.12"/>
<polygon fill="#000000" fill-opacity="0.200000" stroke="#000000" stroke-width="2" stroke-opacity="0.200000" points="1273.51,-178.2 1278.96,-174.93 1272.66,-174.09 1273.51,-178.2"/>
</g>
<!-- src/domain/entities/Metadata.ts -->
<g id="node19" class="node">
<title>src/domain/entities/Metadata.ts</title>
<g id="a_node19"><a xlink:href="src/domain/entities/Metadata.ts" xlink:title="Metadata.ts">
<path fill="#ddfeff" stroke="black" d="M1559.58,-398.62C1559.58,-398.62 1509.17,-398.62 1509.17,-398.62 1505.96,-398.62 1502.75,-395.42 1502.75,-392.21 1502.75,-392.21 1502.75,-385.79 1502.75,-385.79 1502.75,-382.58 1505.96,-379.38 1509.17,-379.38 1509.17,-379.38 1559.58,-379.38 1559.58,-379.38 1562.79,-379.38 1566,-382.58 1566,-385.79 1566,-385.79 1566,-392.21 1566,-392.21 1566,-395.42 1562.79,-398.62 1559.58,-398.62"/>
<text text-anchor="start" x="1510.75" y="-386.07" font-family="Helvetica,sans-Serif" font-size="9.00">Metadata.ts</text>
</a>
</g>
</g>
<!-- src/domain/index.ts&#45;&gt;src/domain/entities/Metadata.ts -->
<g id="edge26" class="edge">
<title>src/domain/index.ts&#45;&gt;src/domain/entities/Metadata.ts</title>
<path fill="none" stroke="#000000" stroke-opacity="0.200000" d="M1174.83,-257.89C1188.01,-273.22 1215.76,-302.26 1246.5,-315 1298.33,-336.48 1316.8,-317.5 1372.25,-326 1427.36,-334.45 1452.54,-316.58 1494.75,-353 1502.31,-359.52 1496.02,-366.62 1502.75,-374 1502.85,-374.11 1502.96,-374.23 1503.07,-374.34"/>
<polygon fill="none" stroke="#000000" stroke-opacity="0.200000" points="1501.38,-375.66 1507.31,-377.95 1504.1,-372.46 1501.38,-375.66"/>
</g>
<!-- src/domain/entities/ParsedVideo.ts -->
<g id="node20" class="node">
<title>src/domain/entities/ParsedVideo.ts</title>
<g id="a_node20"><a xlink:href="src/domain/entities/ParsedVideo.ts" xlink:title="ParsedVideo.ts">
<path fill="#ddfeff" stroke="black" d="M1342.46,-398.62C1342.46,-398.62 1276.29,-398.62 1276.29,-398.62 1273.08,-398.62 1269.88,-395.42 1269.88,-392.21 1269.88,-392.21 1269.88,-385.79 1269.88,-385.79 1269.88,-382.58 1273.08,-379.38 1276.29,-379.38 1276.29,-379.38 1342.46,-379.38 1342.46,-379.38 1345.67,-379.38 1348.88,-382.58 1348.88,-385.79 1348.88,-385.79 1348.88,-392.21 1348.88,-392.21 1348.88,-395.42 1345.67,-398.62 1342.46,-398.62"/>
<text text-anchor="start" x="1277.88" y="-386.07" font-family="Helvetica,sans-Serif" font-size="9.00">ParsedVideo.ts</text>
</a>
</g>
</g>
<!-- src/domain/index.ts&#45;&gt;src/domain/entities/ParsedVideo.ts -->
<g id="edge27" class="edge">
<title>src/domain/index.ts&#45;&gt;src/domain/entities/ParsedVideo.ts</title>
<path fill="none" stroke="#000000" stroke-opacity="0.200000" d="M1170.1,-258.03C1178.67,-282.09 1203.79,-343.37 1246.5,-374 1251.34,-377.47 1256.89,-380.15 1262.63,-382.21"/>
<polygon fill="none" stroke="#000000" stroke-opacity="0.200000" points="1261.63,-384.09 1267.98,-383.9 1262.89,-380.09 1261.63,-384.09"/>
</g>
<!-- src/domain/entities/VideoStorageDto.ts -->
<g id="node21" class="node">
<title>src/domain/entities/VideoStorageDto.ts</title>
<g id="a_node21"><a xlink:href="src/domain/entities/VideoStorageDto.ts" xlink:title="VideoStorageDto.ts">
<path fill="#ddfeff" stroke="black" d="M1478.83,-378.62C1478.83,-378.62 1396.17,-378.62 1396.17,-378.62 1392.96,-378.62 1389.75,-375.42 1389.75,-372.21 1389.75,-372.21 1389.75,-365.79 1389.75,-365.79 1389.75,-362.58 1392.96,-359.38 1396.17,-359.38 1396.17,-359.38 1478.83,-359.38 1478.83,-359.38 1482.04,-359.38 1485.25,-362.58 1485.25,-365.79 1485.25,-365.79 1485.25,-372.21 1485.25,-372.21 1485.25,-375.42 1482.04,-378.62 1478.83,-378.62"/>
<text text-anchor="start" x="1397.75" y="-366.07" font-family="Helvetica,sans-Serif" font-size="9.00">VideoStorageDto.ts</text>
</a>
</g>
</g>
<!-- src/domain/index.ts&#45;&gt;src/domain/entities/VideoStorageDto.ts -->
<g id="edge29" class="edge">
<title>src/domain/index.ts&#45;&gt;src/domain/entities/VideoStorageDto.ts</title>
<path fill="none" stroke="#000000" stroke-opacity="0.200000" d="M1173.75,-258.07C1186.19,-275.09 1213.94,-309.23 1246.5,-325 1297.26,-349.59 1324.98,-311.25 1372.25,-342 1377.94,-345.7 1374.77,-350.99 1380.25,-355 1381.14,-355.65 1382.05,-356.27 1382.99,-356.86"/>
<polygon fill="none" stroke="#000000" stroke-opacity="0.200000" points="1381.86,-358.64 1388.14,-359.64 1383.86,-354.94 1381.86,-358.64"/>
</g>
<!-- src/domain/entities/Video.ts -->
<g id="node22" class="node">
<title>src/domain/entities/Video.ts</title>
<g id="a_node22"><a xlink:href="src/domain/entities/Video.ts" xlink:title="Video.ts">
<path fill="#ddfeff" stroke="black" d="M1554.96,-367.62C1554.96,-367.62 1513.79,-367.62 1513.79,-367.62 1510.58,-367.62 1507.38,-364.42 1507.38,-361.21 1507.38,-361.21 1507.38,-354.79 1507.38,-354.79 1507.38,-351.58 1510.58,-348.38 1513.79,-348.38 1513.79,-348.38 1554.96,-348.38 1554.96,-348.38 1558.17,-348.38 1561.38,-351.58 1561.38,-354.79 1561.38,-354.79 1561.38,-361.21 1561.38,-361.21 1561.38,-364.42 1558.17,-367.62 1554.96,-367.62"/>
<text text-anchor="start" x="1517.88" y="-355.07" font-family="Helvetica,sans-Serif" font-size="9.00">Video.ts</text>
</a>
</g>
</g>
<!-- src/domain/index.ts&#45;&gt;src/domain/entities/Video.ts -->
<g id="edge28" class="edge">
<title>src/domain/index.ts&#45;&gt;src/domain/entities/Video.ts</title>
<path fill="none" stroke="#000000" stroke-opacity="0.200000" d="M1191.78,-238C1207.27,-232.35 1227.71,-225.88 1246.5,-223 1301.4,-214.6 1453.25,-215.09 1494.75,-252 1520.79,-275.16 1529.29,-317.31 1532.05,-340.88"/>
<polygon fill="none" stroke="#000000" stroke-opacity="0.200000" points="1529.94,-340.85 1532.63,-346.61 1534.12,-340.42 1529.94,-340.85"/>
</g>
<!-- src/domain/repositories/IMetadataRepository.ts -->
<g id="node24" class="node">
<title>src/domain/repositories/IMetadataRepository.ts</title>
<g id="a_node24"><a xlink:href="src/domain/repositories/IMetadataRepository.ts" xlink:title="IMetadataRepository.ts">
<path fill="#ddfeff" stroke="black" d="M1357.83,-284.62C1357.83,-284.62 1260.92,-284.62 1260.92,-284.62 1257.71,-284.62 1254.5,-281.42 1254.5,-278.21 1254.5,-278.21 1254.5,-271.79 1254.5,-271.79 1254.5,-268.58 1257.71,-265.38 1260.92,-265.38 1260.92,-265.38 1357.83,-265.38 1357.83,-265.38 1361.04,-265.38 1364.25,-268.58 1364.25,-271.79 1364.25,-271.79 1364.25,-278.21 1364.25,-278.21 1364.25,-281.42 1361.04,-284.62 1357.83,-284.62"/>
<text text-anchor="start" x="1262.5" y="-272.07" font-family="Helvetica,sans-Serif" font-size="9.00">IMetadataRepository.ts</text>
</a>
</g>
</g>
<!-- src/domain/index.ts&#45;&gt;src/domain/repositories/IMetadataRepository.ts -->
<g id="edge30" class="edge">
<title>src/domain/index.ts&#45;&gt;src/domain/repositories/IMetadataRepository.ts</title>
<path fill="none" stroke="#000000" stroke-opacity="0.200000" d="M1193.06,-253.02C1208.59,-255.98 1228.93,-259.85 1248.2,-263.53"/>
<polygon fill="none" stroke="#000000" stroke-opacity="0.200000" points="1247.74,-265.58 1254.03,-264.64 1248.53,-261.45 1247.74,-265.58"/>
</g>
<!-- src/domain/repositories/IVideoRepository.ts -->
<g id="node25" class="node">
<title>src/domain/repositories/IVideoRepository.ts</title>
<g id="a_node25"><a xlink:href="src/domain/repositories/IVideoRepository.ts" xlink:title="IVideoRepository.ts">
<path fill="#ddfeff" stroke="black" d="M1350.71,-253.62C1350.71,-253.62 1268.04,-253.62 1268.04,-253.62 1264.83,-253.62 1261.62,-250.42 1261.62,-247.21 1261.62,-247.21 1261.62,-240.79 1261.62,-240.79 1261.62,-237.58 1264.83,-234.38 1268.04,-234.38 1268.04,-234.38 1350.71,-234.38 1350.71,-234.38 1353.92,-234.38 1357.12,-237.58 1357.12,-240.79 1357.12,-240.79 1357.12,-247.21 1357.12,-247.21 1357.12,-250.42 1353.92,-253.62 1350.71,-253.62"/>
<text text-anchor="start" x="1269.62" y="-241.07" font-family="Helvetica,sans-Serif" font-size="9.00">IVideoRepository.ts</text>
</a>
</g>
</g>
<!-- src/domain/index.ts&#45;&gt;src/domain/repositories/IVideoRepository.ts -->
<g id="edge31" class="edge">
<title>src/domain/index.ts&#45;&gt;src/domain/repositories/IVideoRepository.ts</title>
<path fill="none" stroke="#000000" stroke-opacity="0.200000" d="M1193.06,-247.26C1210.16,-246.77 1233.09,-246.13 1253.99,-245.54"/>
<polygon fill="none" stroke="#000000" stroke-opacity="0.200000" points="1253.84,-247.64 1259.77,-245.37 1253.72,-243.44 1253.84,-247.64"/>
</g>
<!-- src/domain/services/FileVideoParser.ts -->
<g id="node26" class="node">
<title>src/domain/services/FileVideoParser.ts</title>
<g id="a_node26"><a xlink:href="src/domain/services/FileVideoParser.ts" xlink:title="FileVideoParser.ts">
<path fill="#ddfeff" stroke="black" d="M1348.83,-461.62C1348.83,-461.62 1269.92,-461.62 1269.92,-461.62 1266.71,-461.62 1263.5,-458.42 1263.5,-455.21 1263.5,-455.21 1263.5,-448.79 1263.5,-448.79 1263.5,-445.58 1266.71,-442.38 1269.92,-442.38 1269.92,-442.38 1348.83,-442.38 1348.83,-442.38 1352.04,-442.38 1355.25,-445.58 1355.25,-448.79 1355.25,-448.79 1355.25,-455.21 1355.25,-455.21 1355.25,-458.42 1352.04,-461.62 1348.83,-461.62"/>
<text text-anchor="start" x="1271.5" y="-449.07" font-family="Helvetica,sans-Serif" font-size="9.00">FileVideoParser.ts</text>
</a>
</g>
</g>
<!-- src/domain/index.ts&#45;&gt;src/domain/services/FileVideoParser.ts -->
<g id="edge32" class="edge">
<title>src/domain/index.ts&#45;&gt;src/domain/services/FileVideoParser.ts</title>
<path fill="none" stroke="#000000" stroke-width="2" stroke-opacity="0.200000" d="M1168.31,-257.78C1173.6,-287.71 1193.53,-379.07 1246.5,-429 1250.24,-432.52 1254.57,-435.52 1259.16,-438.06"/>
<polygon fill="#000000" fill-opacity="0.200000" stroke="#000000" stroke-width="2" stroke-opacity="0.200000" points="1258.06,-439.86 1264.37,-440.61 1259.9,-436.09 1258.06,-439.86"/>
</g>
<!-- src/domain/valueObjects/Thumbs.ts -->
<g id="node27" class="node">
<title>src/domain/valueObjects/Thumbs.ts</title>
<g id="a_node27"><a xlink:href="src/domain/valueObjects/Thumbs.ts" xlink:title="Thumbs.ts">
<path fill="#ddfeff" stroke="black" d="M1461.21,-492.62C1461.21,-492.62 1413.79,-492.62 1413.79,-492.62 1410.58,-492.62 1407.38,-489.42 1407.38,-486.21 1407.38,-486.21 1407.38,-479.79 1407.38,-479.79 1407.38,-476.58 1410.58,-473.38 1413.79,-473.38 1413.79,-473.38 1461.21,-473.38 1461.21,-473.38 1464.42,-473.38 1467.62,-476.58 1467.62,-479.79 1467.62,-479.79 1467.62,-486.21 1467.62,-486.21 1467.62,-489.42 1464.42,-492.62 1461.21,-492.62"/>
<text text-anchor="start" x="1415.38" y="-480.07" font-family="Helvetica,sans-Serif" font-size="9.00">Thumbs.ts</text>
</a>
</g>
</g>
<!-- src/domain/index.ts&#45;&gt;src/domain/valueObjects/Thumbs.ts -->
<g id="edge33" class="edge">
<title>src/domain/index.ts&#45;&gt;src/domain/valueObjects/Thumbs.ts</title>
<path fill="none" stroke="#000000" stroke-opacity="0.200000" d="M1166.32,-257.96C1165.29,-296.24 1167.31,-434.57 1246.5,-492 1293.03,-525.74 1364.12,-509.44 1404.86,-495.55"/>
<polygon fill="none" stroke="#000000" stroke-opacity="0.200000" points="1405.47,-497.56 1410.43,-493.59 1404.07,-493.6 1405.47,-497.56"/>
</g>
<!-- src/application/services/VideoStorageDtoMapper.ts&#45;&gt;src/domain/index.ts -->
<g id="edge14" class="edge">
<title>src/application/services/VideoStorageDtoMapper.ts&#45;&gt;src/domain/index.ts</title>
<path fill="none" stroke="#000000" stroke-opacity="0.200000" d="M945.98,-203.28C988.01,-205.2 1044.38,-209.86 1093,-221 1107.45,-224.31 1122.91,-229.85 1135.76,-235.05"/>
<polygon fill="none" stroke="#000000" stroke-opacity="0.200000" points="1134.86,-236.96 1141.21,-237.31 1136.47,-233.08 1134.86,-236.96"/>
</g>
<!-- src/infrastructure/repository/MetadataRepository.ts -->
<g id="node30" class="node">
<title>src/infrastructure/repository/MetadataRepository.ts</title>
<g id="a_node30"><a xlink:href="src/infrastructure/repository/MetadataRepository.ts" xlink:title="MetadataRepository.ts">
<path fill="#ddfeff" stroke="black" d="M1078.58,-51.62C1078.58,-51.62 983.92,-51.62 983.92,-51.62 980.71,-51.62 977.5,-48.42 977.5,-45.21 977.5,-45.21 977.5,-38.79 977.5,-38.79 977.5,-35.58 980.71,-32.38 983.92,-32.38 983.92,-32.38 1078.58,-32.38 1078.58,-32.38 1081.79,-32.38 1085,-35.58 1085,-38.79 1085,-38.79 1085,-45.21 1085,-45.21 1085,-48.42 1081.79,-51.62 1078.58,-51.62"/>
<text text-anchor="start" x="985.5" y="-39.08" font-family="Helvetica,sans-Serif" font-size="9.00">MetadataRepository.ts</text>
</a>
</g>
</g>
<!-- src/infrastructure/index.ts&#45;&gt;src/infrastructure/repository/MetadataRepository.ts -->
<g id="edge38" class="edge">
<title>src/infrastructure/index.ts&#45;&gt;src/infrastructure/repository/MetadataRepository.ts</title>
<path fill="none" stroke="#000000" stroke-width="2" stroke-opacity="0.200000" d="M909.63,-67.46C927.48,-63.69 951.77,-58.56 973.88,-53.9"/>
<polygon fill="#000000" fill-opacity="0.200000" stroke="#000000" stroke-width="2" stroke-opacity="0.200000" points="974.15,-55.99 979.59,-52.69 973.28,-51.88 974.15,-55.99"/>
</g>
<!-- src/infrastructure/repository/VideoRepository.ts -->
<g id="node31" class="node">
<title>src/infrastructure/repository/VideoRepository.ts</title>
<g id="a_node31"><a xlink:href="src/infrastructure/repository/VideoRepository.ts" xlink:title="VideoRepository.ts">
<path fill="#ddfeff" stroke="black" d="M1071.46,-82.62C1071.46,-82.62 991.04,-82.62 991.04,-82.62 987.83,-82.62 984.62,-79.42 984.62,-76.21 984.62,-76.21 984.62,-69.79 984.62,-69.79 984.62,-66.58 987.83,-63.38 991.04,-63.38 991.04,-63.38 1071.46,-63.38 1071.46,-63.38 1074.67,-63.38 1077.88,-66.58 1077.88,-69.79 1077.88,-69.79 1077.88,-76.21 1077.88,-76.21 1077.88,-79.42 1074.67,-82.62 1071.46,-82.62"/>
<text text-anchor="start" x="992.62" y="-70.08" font-family="Helvetica,sans-Serif" font-size="9.00">VideoRepository.ts</text>
</a>
</g>
</g>
<!-- src/infrastructure/index.ts&#45;&gt;src/infrastructure/repository/VideoRepository.ts -->
<g id="edge39" class="edge">
<title>src/infrastructure/index.ts&#45;&gt;src/infrastructure/repository/VideoRepository.ts</title>
<path fill="none" stroke="#000000" stroke-width="2" stroke-opacity="0.200000" d="M909.63,-73C927.92,-73 952.97,-73 975.5,-73"/>
<polygon fill="#000000" fill-opacity="0.200000" stroke="#000000" stroke-width="2" stroke-opacity="0.200000" points="975.29,-75.1 981.29,-73 975.29,-70.9 975.29,-75.1"/>
</g>
<!-- src/components/VideoCard.vue&#45;&gt;src/domain/index.ts -->
<g id="edge16" class="edge">
<title>src/components/VideoCard.vue&#45;&gt;src/domain/index.ts</title>
<path fill="none" stroke="#000000" stroke-opacity="0.200000" d="M360.43,-338.96C370.37,-336.63 381.16,-334.42 391.25,-333 454.26,-324.12 470.62,-326 534.25,-326 534.25,-326 534.25,-326 883.38,-326 979.48,-326 1087.56,-283.22 1137.17,-261.03"/>
<polygon fill="none" stroke="#000000" stroke-opacity="0.200000" points="1137.79,-263.05 1142.39,-258.66 1136.06,-259.22 1137.79,-263.05"/>
</g>
<!-- src/components/VideoEmbed.vue -->
<g id="node14" class="node">
<title>src/components/VideoEmbed.vue</title>
<g id="a_node14"><a xlink:href="src/components/VideoEmbed.vue" xlink:title="VideoEmbed.vue">
<path fill="#41f083" stroke="black" d="M477.83,-358.62C477.83,-358.62 404.92,-358.62 404.92,-358.62 401.71,-358.62 398.5,-355.42 398.5,-352.21 398.5,-352.21 398.5,-345.79 398.5,-345.79 398.5,-342.58 401.71,-339.38 404.92,-339.38 404.92,-339.38 477.83,-339.38 477.83,-339.38 481.04,-339.38 484.25,-342.58 484.25,-345.79 484.25,-345.79 484.25,-352.21 484.25,-352.21 484.25,-355.42 481.04,-358.62 477.83,-358.62"/>
<text text-anchor="start" x="406.5" y="-346.07" font-family="Helvetica,sans-Serif" font-size="9.00">VideoEmbed.vue</text>
</a>
</g>
</g>
<!-- src/components/VideoCard.vue&#45;&gt;src/components/VideoEmbed.vue -->
<g id="edge15" class="edge">
<title>src/components/VideoCard.vue&#45;&gt;src/components/VideoEmbed.vue</title>
<path fill="none" stroke="#000000" stroke-width="2" stroke-opacity="0.200000" d="M360.63,-349C369.75,-349 379.67,-349 389.31,-349"/>
<polygon fill="#000000" fill-opacity="0.200000" stroke="#000000" stroke-width="2" stroke-opacity="0.200000" points="389.03,-351.1 395.03,-349 389.03,-346.9 389.03,-351.1"/>
</g>
<!-- src/components/VideoCard.vue&#45;&gt;src/stores/videosStore.ts -->
<g id="edge17" class="edge">
<title>src/components/VideoCard.vue&#45;&gt;src/stores/videosStore.ts</title>
<path fill="none" stroke="#000000" stroke-width="2" stroke-opacity="0.200000" d="M360.62,-347.1C369.25,-344.84 377.56,-340.86 383.25,-334 402.03,-311.39 378.15,-228.31 391.25,-202 396.62,-191.22 406.12,-182.1 415.34,-175.14"/>
<polygon fill="#000000" fill-opacity="0.200000" stroke="#000000" stroke-width="2" stroke-opacity="0.200000" points="416.42,-176.94 420.12,-171.77 414.01,-173.51 416.42,-176.94"/>
</g>
<!-- src/components/VideoEmbed.vue&#45;&gt;src/domain/index.ts -->
<g id="edge18" class="edge">
<title>src/components/VideoEmbed.vue&#45;&gt;src/domain/index.ts</title>
<path fill="none" stroke="#000000" stroke-opacity="0.200000" d="M484.41,-347.21C521.73,-345.77 577.73,-344 626.5,-344 626.5,-344 626.5,-344 883.38,-344 976.75,-344 1009.3,-371.4 1093,-330 1121.97,-315.67 1144.23,-283.94 1155.83,-264.42"/>
<polygon fill="none" stroke="#000000" stroke-opacity="0.200000" points="1157.56,-265.64 1158.73,-259.39 1153.92,-263.54 1157.56,-265.64"/>
</g>
<!-- src/stores/videosStore.ts&#45;&gt;src/application/index.ts -->
<g id="edge46" class="edge">
<title>src/stores/videosStore.ts&#45;&gt;src/application/index.ts</title>
<path fill="none" stroke="#000000" stroke-width="2" stroke-opacity="0.200000" d="M472.2,-170.06C480.94,-173.01 490.56,-176.26 499.57,-179.3"/>
<polygon fill="#000000" fill-opacity="0.200000" stroke="#000000" stroke-width="2" stroke-opacity="0.200000" points="498.75,-181.24 505.11,-181.17 500.09,-177.26 498.75,-181.24"/>
</g>
<!-- src/stores/videosStore.ts&#45;&gt;src/domain/index.ts -->
<g id="edge47" class="edge">
<title>src/stores/videosStore.ts&#45;&gt;src/domain/index.ts</title>
<path fill="none" stroke="#000000" stroke-opacity="0.200000" d="M479.02,-156.84C516.16,-153.91 575.28,-150 626.5,-150 626.5,-150 626.5,-150 883.38,-150 979.26,-150 1005.04,-162.84 1093,-201 1112.43,-209.43 1132.41,-223 1146.34,-233.39"/>
<polygon fill="none" stroke="#000000" stroke-opacity="0.200000" points="1145.04,-235.04 1151.09,-237 1147.58,-231.7 1145.04,-235.04"/>
</g>
<!-- src/components/inputs/FileInput.vue&#45;&gt;src/stores/videosStore.ts -->
<g id="edge19" class="edge">
<title>src/components/inputs/FileInput.vue&#45;&gt;src/stores/videosStore.ts</title>
<path fill="none" stroke="#000000" stroke-width="2" stroke-opacity="0.200000" d="M339.78,-220.98C359.75,-208.87 393.5,-188.42 416.34,-174.57"/>
<polygon fill="#000000" fill-opacity="0.200000" stroke="#000000" stroke-width="2" stroke-opacity="0.200000" points="417.3,-176.45 421.34,-171.54 415.12,-172.85 417.3,-176.45"/>
</g>
<!-- src/stores/appStateStore.ts&#45;&gt;src/application/index.ts -->
<g id="edge45" class="edge">
<title>src/stores/appStateStore.ts&#45;&gt;src/application/index.ts</title>
<path fill="none" stroke="#000000" stroke-width="2" stroke-opacity="0.200000" d="M482.97,-139.09C486.21,-140.53 489.35,-142.16 492.25,-144 504.31,-151.68 515.01,-163.77 522.58,-173.76"/>
<polygon fill="#000000" fill-opacity="0.200000" stroke="#000000" stroke-width="2" stroke-opacity="0.200000" points="520.75,-174.81 525.97,-178.43 524.15,-172.34 520.75,-174.81"/>
</g>
<!-- src/domain/entities/ParsedVideo.ts&#45;&gt;src/domain/entities/VideoStorageDto.ts -->
<g id="edge22" class="edge">
<title>src/domain/entities/ParsedVideo.ts&#45;&gt;src/domain/entities/VideoStorageDto.ts</title>
<path fill="none" stroke="#000000" stroke-opacity="0.200000" d="M1349.25,-382.84C1359.7,-381.18 1371.19,-379.36 1382.31,-377.59"/>
<polygon fill="none" stroke="#000000" stroke-opacity="0.200000" points="1382.46,-379.7 1388.05,-376.68 1381.8,-375.55 1382.46,-379.7"/>
</g>
<!-- src/domain/entities/VideoStorageDto.ts&#45;&gt;src/domain/entities/Metadata.ts -->
<g id="edge23" class="edge">
<title>src/domain/entities/VideoStorageDto.ts&#45;&gt;src/domain/entities/Metadata.ts</title>
<path fill="none" stroke="#000000" stroke-opacity="0.200000" d="M1485.66,-378.94C1488.85,-379.61 1492.04,-380.29 1495.18,-380.95"/>
<polygon fill="none" stroke="#000000" stroke-opacity="0.200000" points="1494.59,-382.97 1500.89,-382.15 1495.45,-378.86 1494.59,-382.97"/>
</g>
<!-- src/domain/entities/VideoStorageDto.ts&#45;&gt;src/domain/entities/Video.ts -->
<g id="edge24" class="edge">
<title>src/domain/entities/VideoStorageDto.ts&#45;&gt;src/domain/entities/Video.ts</title>
<path fill="none" stroke="#000000" stroke-opacity="0.200000" d="M1485.66,-363.53C1490.37,-362.99 1495.08,-362.44 1499.61,-361.92"/>
<polygon fill="none" stroke="#000000" stroke-opacity="0.200000" points="1499.8,-364.01 1505.52,-361.23 1499.32,-359.83 1499.8,-364.01"/>
</g>
<!-- src/domain/entities/VideoMetadata.ts -->
<g id="node23" class="node">
<title>src/domain/entities/VideoMetadata.ts</title>
<g id="a_node23"><a xlink:href="src/domain/entities/VideoMetadata.ts" xlink:title="no&#45;orphans">
<path fill="#ccffcc" stroke="orange" d="M1346.21,-367.62C1346.21,-367.62 1272.54,-367.62 1272.54,-367.62 1269.33,-367.62 1266.12,-364.42 1266.12,-361.21 1266.12,-361.21 1266.12,-354.79 1266.12,-354.79 1266.12,-351.58 1269.33,-348.38 1272.54,-348.38 1272.54,-348.38 1346.21,-348.38 1346.21,-348.38 1349.42,-348.38 1352.62,-351.58 1352.62,-354.79 1352.62,-354.79 1352.62,-361.21 1352.62,-361.21 1352.62,-364.42 1349.42,-367.62 1346.21,-367.62"/>
<text text-anchor="start" x="1274.12" y="-355.07" font-family="Helvetica,sans-Serif" font-size="9.00" fill="orange">VideoMetadata.ts</text>
</a>
</g>
</g>
<!-- src/domain/repositories/IMetadataRepository.ts&#45;&gt;src/domain/entities/Metadata.ts -->
<g id="edge34" class="edge">
<title>src/domain/repositories/IMetadataRepository.ts&#45;&gt;src/domain/entities/Metadata.ts</title>
<path fill="none" stroke="#000000" stroke-opacity="0.200000" d="M1364.71,-273.93C1412.48,-274.24 1477.08,-278.13 1494.75,-296 1505.81,-307.18 1495.31,-350.05 1503.87,-372.43"/>
<polygon fill="none" stroke="#000000" stroke-opacity="0.200000" points="1501.95,-373.3 1506.65,-377.58 1505.65,-371.3 1501.95,-373.3"/>
</g>
<!-- src/domain/repositories/IVideoRepository.ts&#45;&gt;src/domain/entities/Video.ts -->
<g id="edge35" class="edge">
<title>src/domain/repositories/IVideoRepository.ts&#45;&gt;src/domain/entities/Video.ts</title>
<path fill="none" stroke="#000000" stroke-opacity="0.200000" d="M1357.34,-251.51C1364.99,-252.7 1372.84,-253.9 1380.25,-255 1405.66,-258.78 1474.23,-255.54 1494.75,-271 1517.12,-287.86 1526.8,-320.53 1530.79,-340.69"/>
<polygon fill="none" stroke="#000000" stroke-opacity="0.200000" points="1528.7,-340.96 1531.82,-346.5 1532.84,-340.22 1528.7,-340.96"/>
</g>
<!-- src/domain/services/FileVideoParser.ts&#45;&gt;src/domain/entities/Video.ts -->
<g id="edge36" class="edge">
<title>src/domain/services/FileVideoParser.ts&#45;&gt;src/domain/entities/Video.ts</title>
<path fill="none" stroke="#000000" stroke-opacity="0.200000" d="M1341.4,-441.9C1390.61,-425.72 1482.29,-394.78 1494.75,-385 1499.79,-381.04 1497.93,-377.22 1502.75,-373 1503.01,-372.78 1503.27,-372.55 1503.53,-372.33"/>
<polygon fill="none" stroke="#000000" stroke-opacity="0.200000" points="1504.59,-374.16 1508.26,-368.98 1502.15,-370.74 1504.59,-374.16"/>
</g>
<!-- src/domain/valueObjects/ParsedVideoData.ts -->
<g id="node28" class="node">
<title>src/domain/valueObjects/ParsedVideoData.ts</title>
<g id="a_node28"><a xlink:href="src/domain/valueObjects/ParsedVideoData.ts" xlink:title="ParsedVideoData.ts">
<path fill="#ddfeff" stroke="black" d="M1480.33,-461.62C1480.33,-461.62 1394.67,-461.62 1394.67,-461.62 1391.46,-461.62 1388.25,-458.42 1388.25,-455.21 1388.25,-455.21 1388.25,-448.79 1388.25,-448.79 1388.25,-445.58 1391.46,-442.38 1394.67,-442.38 1394.67,-442.38 1480.33,-442.38 1480.33,-442.38 1483.54,-442.38 1486.75,-445.58 1486.75,-448.79 1486.75,-448.79 1486.75,-455.21 1486.75,-455.21 1486.75,-458.42 1483.54,-461.62 1480.33,-461.62"/>
<text text-anchor="start" x="1396.25" y="-449.07" font-family="Helvetica,sans-Serif" font-size="9.00">ParsedVideoData.ts</text>
</a>
</g>
</g>
<!-- src/domain/services/FileVideoParser.ts&#45;&gt;src/domain/valueObjects/ParsedVideoData.ts -->
<g id="edge37" class="edge">
<title>src/domain/services/FileVideoParser.ts&#45;&gt;src/domain/valueObjects/ParsedVideoData.ts</title>
<path fill="none" stroke="#000000" stroke-width="2" stroke-opacity="0.200000" d="M1355.55,-452C1363.15,-452 1371.13,-452 1378.99,-452"/>
<polygon fill="#000000" fill-opacity="0.200000" stroke="#000000" stroke-width="2" stroke-opacity="0.200000" points="1378.77,-454.1 1384.77,-452 1378.77,-449.9 1378.77,-454.1"/>
</g>
<!-- src/infrastructure/database/DatabaseConnection.ts -->
<g id="node29" class="node">
<title>src/infrastructure/database/DatabaseConnection.ts</title>
<g id="a_node29"><a xlink:href="src/infrastructure/database/DatabaseConnection.ts" xlink:title="DatabaseConnection.ts">
<path fill="#ddfeff" stroke="black" d="M1216.08,-66.62C1216.08,-66.62 1115.42,-66.62 1115.42,-66.62 1112.21,-66.62 1109,-63.42 1109,-60.21 1109,-60.21 1109,-53.79 1109,-53.79 1109,-50.58 1112.21,-47.38 1115.42,-47.38 1115.42,-47.38 1216.08,-47.38 1216.08,-47.38 1219.29,-47.38 1222.5,-50.58 1222.5,-53.79 1222.5,-53.79 1222.5,-60.21 1222.5,-60.21 1222.5,-63.42 1219.29,-66.62 1216.08,-66.62"/>
<text text-anchor="start" x="1117" y="-54.08" font-family="Helvetica,sans-Serif" font-size="9.00">DatabaseConnection.ts</text>
</a>
</g>
</g>
<!-- src/infrastructure/repository/MetadataRepository.ts&#45;&gt;src/domain/index.ts -->
<g id="edge41" class="edge">
<title>src/infrastructure/repository/MetadataRepository.ts&#45;&gt;src/domain/index.ts</title>
<path fill="none" stroke="#000000" stroke-width="2" stroke-opacity="0.200000" d="M1085.43,-50.92C1088.19,-52.64 1090.75,-54.64 1093,-57 1105.53,-70.1 1095.67,-79.67 1101,-97 1116.25,-146.57 1142.1,-202.1 1155.73,-229.98"/>
<polygon fill="#000000" fill-opacity="0.200000" stroke="#000000" stroke-width="2" stroke-opacity="0.200000" points="1153.82,-230.85 1158.35,-235.3 1157.58,-228.99 1153.82,-230.85"/>
</g>
<!-- src/infrastructure/repository/MetadataRepository.ts&#45;&gt;src/infrastructure/database/DatabaseConnection.ts -->
<g id="edge40" class="edge">
<title>src/infrastructure/repository/MetadataRepository.ts&#45;&gt;src/infrastructure/database/DatabaseConnection.ts</title>
<path fill="none" stroke="#000000" stroke-width="2" stroke-opacity="0.200000" d="M1085.38,-48.01C1090.15,-48.55 1095.01,-49.11 1099.87,-49.65"/>
<polygon fill="#000000" fill-opacity="0.200000" stroke="#000000" stroke-width="2" stroke-opacity="0.200000" points="1099.37,-51.71 1105.57,-50.3 1099.84,-47.54 1099.37,-51.71"/>
</g>
<!-- src/infrastructure/repository/VideoRepository.ts&#45;&gt;src/domain/index.ts -->
<g id="edge43" class="edge">
<title>src/infrastructure/repository/VideoRepository.ts&#45;&gt;src/domain/index.ts</title>
<path fill="none" stroke="#000000" stroke-width="2" stroke-opacity="0.200000" d="M1040.76,-82.71C1052.76,-96.51 1075.16,-122.7 1093,-146 1115.2,-174.98 1139.28,-210.04 1153.14,-230.59"/>
<polygon fill="#000000" fill-opacity="0.200000" stroke="#000000" stroke-width="2" stroke-opacity="0.200000" points="1151.31,-231.64 1156.4,-235.45 1154.8,-229.3 1151.31,-231.64"/>
</g>
<!-- src/infrastructure/repository/VideoRepository.ts&#45;&gt;src/infrastructure/database/DatabaseConnection.ts -->
<g id="edge42" class="edge">
<title>src/infrastructure/repository/VideoRepository.ts&#45;&gt;src/infrastructure/database/DatabaseConnection.ts</title>
<path fill="none" stroke="#000000" stroke-width="2" stroke-opacity="0.200000" d="M1078.22,-67.45C1085.31,-66.59 1092.75,-65.69 1100.15,-64.8"/>
<polygon fill="#000000" fill-opacity="0.200000" stroke="#000000" stroke-width="2" stroke-opacity="0.200000" points="1100.1,-66.92 1105.81,-64.12 1099.6,-62.75 1100.1,-66.92"/>
</g>
<!-- src/main.ts -->
<g id="node32" class="node">
<title>src/main.ts</title>
<g id="a_node32"><a xlink:href="src/main.ts" xlink:title="main.ts">
<path fill="#ddfeff" stroke="black" d="M63.58,-200.62C63.58,-200.62 22.42,-200.62 22.42,-200.62 19.21,-200.62 16,-197.42 16,-194.21 16,-194.21 16,-187.79 16,-187.79 16,-184.58 19.21,-181.38 22.42,-181.38 22.42,-181.38 63.58,-181.38 63.58,-181.38 66.79,-181.38 70,-184.58 70,-187.79 70,-187.79 70,-194.21 70,-194.21 70,-197.42 66.79,-200.62 63.58,-200.62"/>
<text text-anchor="start" x="27.62" y="-188.07" font-family="Helvetica,sans-Serif" font-size="9.00">main.ts</text>
</a>
</g>
</g>
<!-- src/main.ts&#45;&gt;src/App.vue -->
<g id="edge44" class="edge">
<title>src/main.ts&#45;&gt;src/App.vue</title>
<path fill="none" stroke="#000000" stroke-width="2" stroke-opacity="0.200000" d="M70.44,-191C71.58,-191 72.74,-191 73.9,-191"/>
<polygon fill="#000000" fill-opacity="0.200000" stroke="#000000" stroke-width="2" stroke-opacity="0.200000" points="73.77,-193.1 79.77,-191 73.77,-188.9 73.77,-193.1"/>
</g>
</g>
</svg>
