<?xml version="1.0" encoding="UTF-8" standalone="no"?>
<!DOCTYPE svg PUBLIC "-//W3C//DTD SVG 1.1//EN"
 "http://www.w3.org/Graphics/SVG/1.1/DTD/svg11.dtd">
<!-- Generated by graphviz version 9.0.0 (20230911.1827)
 -->
<!-- Title: dependency&#45;cruiser output Pages: 1 -->
<svg width="1577pt" height="526pt"
 viewBox="0.00 0.00 1576.62 526.00" xmlns="http://www.w3.org/2000/svg" xmlns:xlink="http://www.w3.org/1999/xlink">
<g id="graph0" class="graph" transform="scale(1 1) rotate(0) translate(4 522)">
<title>dependency&#45;cruiser output</title>
<polygon fill="white" stroke="none" points="-4,4 -4,-522 1572.62,-522 1572.62,4 -4,4"/>
<g id="clust1" class="cluster">
<title>cluster_src</title>
<path fill="#ffffff" stroke="black" stroke-width="2" d="M20,-8C20,-8 1548.62,-8 1548.62,-8 1554.62,-8 1560.62,-14 1560.62,-20 1560.62,-20 1560.62,-498 1560.62,-498 1560.62,-504 1554.62,-510 1548.62,-510 1548.62,-510 20,-510 20,-510 14,-510 8,-504 8,-498 8,-498 8,-20 8,-20 8,-14 14,-8 20,-8"/>
<text text-anchor="middle" x="784.31" y="-497.45" font-family="Helvetica,sans-Serif" font-weight="bold" font-size="9.00">src</text>
</g>
<g id="clust2" class="cluster">
<title>cluster_src/application</title>
<path fill="#ffffff" stroke="black" stroke-width="2" d="M580,-115C580,-115 886.25,-115 886.25,-115 892.25,-115 898.25,-121 898.25,-127 898.25,-127 898.25,-224 898.25,-224 898.25,-230 892.25,-236 886.25,-236 886.25,-236 580,-236 580,-236 574,-236 568,-230 568,-224 568,-224 568,-127 568,-127 568,-121 574,-115 580,-115"/>
<text text-anchor="middle" x="733.12" y="-223.45" font-family="Helvetica,sans-Serif" font-weight="bold" font-size="9.00">application</text>
</g>
<g id="clust3" class="cluster">
<title>cluster_src/application/services</title>
<path fill="#ffffff" stroke="black" stroke-width="2" d="M650,-123C650,-123 878.25,-123 878.25,-123 884.25,-123 890.25,-129 890.25,-135 890.25,-135 890.25,-197 890.25,-197 890.25,-203 884.25,-209 878.25,-209 878.25,-209 650,-209 650,-209 644,-209 638,-203 638,-197 638,-197 638,-135 638,-135 638,-129 644,-123 650,-123"/>
<text text-anchor="middle" x="764.12" y="-196.45" font-family="Helvetica,sans-Serif" font-weight="bold" font-size="9.00">services</text>
</g>
<g id="clust4" class="cluster">
<title>cluster_src/assets</title>
<path fill="#ffffff" stroke="black" stroke-width="2" d="M90,-327C90,-327 192.75,-327 192.75,-327 198.75,-327 204.75,-333 204.75,-339 204.75,-339 204.75,-433 204.75,-433 204.75,-439 198.75,-445 192.75,-445 192.75,-445 90,-445 90,-445 84,-445 78,-439 78,-433 78,-433 78,-339 78,-339 78,-333 84,-327 90,-327"/>
<text text-anchor="middle" x="141.38" y="-432.45" font-family="Helvetica,sans-Serif" font-weight="bold" font-size="9.00">assets</text>
</g>
<g id="clust5" class="cluster">
<title>cluster_src/assets/effects</title>
<path fill="#ffffff" stroke="black" stroke-width="2" d="M98,-363C98,-363 184.75,-363 184.75,-363 190.75,-363 196.75,-369 196.75,-375 196.75,-375 196.75,-406 196.75,-406 196.75,-412 190.75,-418 184.75,-418 184.75,-418 98,-418 98,-418 92,-418 86,-412 86,-406 86,-406 86,-375 86,-375 86,-369 92,-363 98,-363"/>
<text text-anchor="middle" x="141.38" y="-405.45" font-family="Helvetica,sans-Serif" font-weight="bold" font-size="9.00">effects</text>
</g>
<g id="clust6" class="cluster">
<title>cluster_src/components</title>
<path fill="#ffffff" stroke="black" stroke-width="2" d="M333,-128C333,-128 548,-128 548,-128 554,-128 560,-134 560,-140 560,-140 560,-297 560,-297 560,-303 554,-309 548,-309 548,-309 333,-309 333,-309 327,-309 321,-303 321,-297 321,-297 321,-140 321,-140 321,-134 327,-128 333,-128"/>
<text text-anchor="middle" x="440.5" y="-296.45" font-family="Helvetica,sans-Serif" font-weight="bold" font-size="9.00">components</text>
</g>
<g id="clust7" class="cluster">
<title>cluster_src/components/inputs</title>
<path fill="#ffffff" stroke="black" stroke-width="2" d="M347.75,-136C347.75,-136 432.25,-136 432.25,-136 438.25,-136 444.25,-142 444.25,-148 444.25,-148 444.25,-179 444.25,-179 444.25,-185 438.25,-191 432.25,-191 432.25,-191 347.75,-191 347.75,-191 341.75,-191 335.75,-185 335.75,-179 335.75,-179 335.75,-148 335.75,-148 335.75,-142 341.75,-136 347.75,-136"/>
<text text-anchor="middle" x="390" y="-178.45" font-family="Helvetica,sans-Serif" font-weight="bold" font-size="9.00">inputs</text>
</g>
<g id="clust8" class="cluster">
<title>cluster_src/components/utils</title>
<path fill="#ffffff" stroke="black" stroke-width="2" d="M341,-199C341,-199 439,-199 439,-199 445,-199 451,-205 451,-211 451,-211 451,-242 451,-242 451,-248 445,-254 439,-254 439,-254 341,-254 341,-254 335,-254 329,-248 329,-242 329,-242 329,-211 329,-211 329,-205 335,-199 341,-199"/>
<text text-anchor="middle" x="390" y="-241.45" font-family="Helvetica,sans-Serif" font-weight="bold" font-size="9.00">utils</text>
</g>
<g id="clust9" class="cluster">
<title>cluster_src/domain</title>
<path fill="#ffffff" stroke="black" stroke-width="2" d="M1254.25,-275C1254.25,-275 1529.25,-275 1529.25,-275 1535.25,-275 1541.25,-281 1541.25,-287 1541.25,-287 1541.25,-471 1541.25,-471 1541.25,-477 1535.25,-483 1529.25,-483 1529.25,-483 1254.25,-483 1254.25,-483 1248.25,-483 1242.25,-477 1242.25,-471 1242.25,-471 1242.25,-287 1242.25,-287 1242.25,-281 1248.25,-275 1254.25,-275"/>
<text text-anchor="middle" x="1391.75" y="-470.45" font-family="Helvetica,sans-Serif" font-weight="bold" font-size="9.00">domain</text>
</g>
<g id="clust10" class="cluster">
<title>cluster_src/domain/constants</title>
<path fill="#ffffff" stroke="black" stroke-width="2" d="M1360.12,-283C1360.12,-283 1406.12,-283 1406.12,-283 1412.12,-283 1418.12,-289 1418.12,-295 1418.12,-295 1418.12,-326 1418.12,-326 1418.12,-332 1412.12,-338 1406.12,-338 1406.12,-338 1360.12,-338 1360.12,-338 1354.12,-338 1348.12,-332 1348.12,-326 1348.12,-326 1348.12,-295 1348.12,-295 1348.12,-289 1354.12,-283 1360.12,-283"/>
<text text-anchor="middle" x="1383.12" y="-325.45" font-family="Helvetica,sans-Serif" font-weight="bold" font-size="9.00">constants</text>
</g>
<g id="clust12" class="cluster">
<title>cluster_src/domain/repositories</title>
<path fill="#ffffff" stroke="black" stroke-width="2" d="M1332.25,-346C1332.25,-346 1434,-346 1434,-346 1440,-346 1446,-352 1446,-358 1446,-358 1446,-420 1446,-420 1446,-426 1440,-432 1434,-432 1434,-432 1332.25,-432 1332.25,-432 1326.25,-432 1320.25,-426 1320.25,-420 1320.25,-420 1320.25,-358 1320.25,-358 1320.25,-352 1326.25,-346 1332.25,-346"/>
<text text-anchor="middle" x="1383.12" y="-419.45" font-family="Helvetica,sans-Serif" font-weight="bold" font-size="9.00">repositories</text>
</g>
<g id="clust11" class="cluster">
<title>cluster_src/domain/entities</title>
<path fill="#ffffff" stroke="black" stroke-width="2" d="M1466,-358C1466,-358 1521.25,-358 1521.25,-358 1527.25,-358 1533.25,-364 1533.25,-370 1533.25,-370 1533.25,-432 1533.25,-432 1533.25,-438 1527.25,-444 1521.25,-444 1521.25,-444 1466,-444 1466,-444 1460,-444 1454,-438 1454,-432 1454,-432 1454,-370 1454,-370 1454,-364 1460,-358 1466,-358"/>
<text text-anchor="middle" x="1493.62" y="-431.45" font-family="Helvetica,sans-Serif" font-weight="bold" font-size="9.00">entities</text>
</g>
<g id="clust13" class="cluster">
<title>cluster_src/infrastructure</title>
<path fill="#ffffff" stroke="black" stroke-width="2" d="M918.25,-16C918.25,-16 1540.62,-16 1540.62,-16 1546.62,-16 1552.62,-22 1552.62,-28 1552.62,-28 1552.62,-255 1552.62,-255 1552.62,-261 1546.62,-267 1540.62,-267 1540.62,-267 918.25,-267 918.25,-267 912.25,-267 906.25,-261 906.25,-255 906.25,-255 906.25,-28 906.25,-28 906.25,-22 912.25,-16 918.25,-16"/>
<text text-anchor="middle" x="1229.44" y="-254.45" font-family="Helvetica,sans-Serif" font-weight="bold" font-size="9.00">infrastructure</text>
</g>
<g id="clust14" class="cluster">
<title>cluster_src/infrastructure/database</title>
<path fill="#ffffff" stroke="black" stroke-width="2" d="M1119.75,-24C1119.75,-24 1532.62,-24 1532.62,-24 1538.62,-24 1544.62,-30 1544.62,-36 1544.62,-36 1544.62,-228 1544.62,-228 1544.62,-234 1538.62,-240 1532.62,-240 1532.62,-240 1119.75,-240 1119.75,-240 1113.75,-240 1107.75,-234 1107.75,-228 1107.75,-228 1107.75,-36 1107.75,-36 1107.75,-30 1113.75,-24 1119.75,-24"/>
<text text-anchor="middle" x="1326.19" y="-227.45" font-family="Helvetica,sans-Serif" font-weight="bold" font-size="9.00">database</text>
</g>
<g id="clust15" class="cluster">
<title>cluster_src/infrastructure/database/migrations</title>
<path fill="#ffffff" stroke="black" stroke-width="2" d="M1149.5,-32C1149.5,-32 1524.62,-32 1524.62,-32 1530.62,-32 1536.62,-38 1536.62,-44 1536.62,-44 1536.62,-173 1536.62,-173 1536.62,-179 1530.62,-185 1524.62,-185 1524.62,-185 1149.5,-185 1149.5,-185 1143.5,-185 1137.5,-179 1137.5,-173 1137.5,-173 1137.5,-44 1137.5,-44 1137.5,-38 1143.5,-32 1149.5,-32"/>
<text text-anchor="middle" x="1337.06" y="-172.45" font-family="Helvetica,sans-Serif" font-weight="bold" font-size="9.00">migrations</text>
</g>
<g id="clust18" class="cluster">
<title>cluster_src/infrastructure/database/migrations/v2</title>
<path fill="#ffffff" stroke="black" stroke-width="2" d="M1360.12,-103C1360.12,-103 1406.12,-103 1406.12,-103 1412.12,-103 1418.12,-109 1418.12,-115 1418.12,-115 1418.12,-146 1418.12,-146 1418.12,-152 1412.12,-158 1406.12,-158 1406.12,-158 1360.12,-158 1360.12,-158 1354.12,-158 1348.12,-152 1348.12,-146 1348.12,-146 1348.12,-115 1348.12,-115 1348.12,-109 1354.12,-103 1360.12,-103"/>
<text text-anchor="middle" x="1383.12" y="-145.45" font-family="Helvetica,sans-Serif" font-weight="bold" font-size="9.00">v2</text>
</g>
<g id="clust17" class="cluster">
<title>cluster_src/infrastructure/database/migrations/v1</title>
<path fill="#ffffff" stroke="black" stroke-width="2" d="M1360.12,-40C1360.12,-40 1406.12,-40 1406.12,-40 1412.12,-40 1418.12,-46 1418.12,-52 1418.12,-52 1418.12,-83 1418.12,-83 1418.12,-89 1412.12,-95 1406.12,-95 1406.12,-95 1360.12,-95 1360.12,-95 1354.12,-95 1348.12,-89 1348.12,-83 1348.12,-83 1348.12,-52 1348.12,-52 1348.12,-46 1354.12,-40 1360.12,-40"/>
<text text-anchor="middle" x="1383.12" y="-82.45" font-family="Helvetica,sans-Serif" font-weight="bold" font-size="9.00">v1</text>
</g>
<g id="clust16" class="cluster">
<title>cluster_src/infrastructure/database/migrations/utils</title>
<path fill="#ffffff" stroke="black" stroke-width="2" d="M1470.62,-71C1470.62,-71 1516.62,-71 1516.62,-71 1522.62,-71 1528.62,-77 1528.62,-83 1528.62,-83 1528.62,-114 1528.62,-114 1528.62,-120 1522.62,-126 1516.62,-126 1516.62,-126 1470.62,-126 1470.62,-126 1464.62,-126 1458.62,-120 1458.62,-114 1458.62,-114 1458.62,-83 1458.62,-83 1458.62,-77 1464.62,-71 1470.62,-71"/>
<text text-anchor="middle" x="1493.62" y="-113.45" font-family="Helvetica,sans-Serif" font-weight="bold" font-size="9.00">utils</text>
</g>
<g id="clust19" class="cluster">
<title>cluster_src/infrastructure/repository</title>
<path fill="#ffffff" stroke="black" stroke-width="2" d="M988.25,-154C988.25,-154 1087.75,-154 1087.75,-154 1093.75,-154 1099.75,-160 1099.75,-166 1099.75,-166 1099.75,-228 1099.75,-228 1099.75,-234 1093.75,-240 1087.75,-240 1087.75,-240 988.25,-240 988.25,-240 982.25,-240 976.25,-234 976.25,-228 976.25,-228 976.25,-166 976.25,-166 976.25,-160 982.25,-154 988.25,-154"/>
<text text-anchor="middle" x="1038" y="-227.45" font-family="Helvetica,sans-Serif" font-weight="bold" font-size="9.00">repository</text>
</g>
<g id="clust20" class="cluster">
<title>cluster_src/stores</title>
<path fill="#ffffff" stroke="black" stroke-width="2" d="M471,-34C471,-34 547.25,-34 547.25,-34 553.25,-34 559.25,-40 559.25,-46 559.25,-46 559.25,-108 559.25,-108 559.25,-114 553.25,-120 547.25,-120 547.25,-120 471,-120 471,-120 465,-120 459,-114 459,-108 459,-108 459,-46 459,-46 459,-40 465,-34 471,-34"/>
<text text-anchor="middle" x="509.12" y="-107.45" font-family="Helvetica,sans-Serif" font-weight="bold" font-size="9.00">stores</text>
</g>
<g id="clust21" class="cluster">
<title>cluster_src/views</title>
<path fill="#ffffff" stroke="black" stroke-width="2" d="M224.75,-122C224.75,-122 301,-122 301,-122 307,-122 313,-128 313,-134 313,-134 313,-196 313,-196 313,-202 307,-208 301,-208 301,-208 224.75,-208 224.75,-208 218.75,-208 212.75,-202 212.75,-196 212.75,-196 212.75,-134 212.75,-134 212.75,-128 218.75,-122 224.75,-122"/>
<text text-anchor="middle" x="262.88" y="-195.45" font-family="Helvetica,sans-Serif" font-weight="bold" font-size="9.00">views</text>
</g>
<!-- src/App.vue -->
<g id="node1" class="node">
<title>src/App.vue</title>
<g id="a_node1"><a xlink:href="src/App.vue" xlink:title="App.vue">
<path fill="#41f083" stroke="black" d="M161.96,-203.62C161.96,-203.62 120.79,-203.62 120.79,-203.62 117.58,-203.62 114.38,-200.42 114.38,-197.21 114.38,-197.21 114.38,-190.79 114.38,-190.79 114.38,-187.58 117.58,-184.38 120.79,-184.38 120.79,-184.38 161.96,-184.38 161.96,-184.38 165.17,-184.38 168.38,-187.58 168.38,-190.79 168.38,-190.79 168.38,-197.21 168.38,-197.21 168.38,-200.42 165.17,-203.62 161.96,-203.62"/>
<text text-anchor="start" x="125.25" y="-191.07" font-family="Helvetica,sans-Serif" font-size="9.00">App.vue</text>
</a>
</g>
</g>
<!-- src/components/utils/DiagnosticsPanel.vue -->
<g id="node2" class="node">
<title>src/components/utils/DiagnosticsPanel.vue</title>
<g id="a_node2"><a xlink:href="src/components/utils/DiagnosticsPanel.vue" xlink:title="DiagnosticsPanel.vue">
<path fill="#41f083" stroke="black" d="M436.58,-226.62C436.58,-226.62 343.42,-226.62 343.42,-226.62 340.21,-226.62 337,-223.42 337,-220.21 337,-220.21 337,-213.79 337,-213.79 337,-210.58 340.21,-207.38 343.42,-207.38 343.42,-207.38 436.58,-207.38 436.58,-207.38 439.79,-207.38 443,-210.58 443,-213.79 443,-213.79 443,-220.21 443,-220.21 443,-223.42 439.79,-226.62 436.58,-226.62"/>
<text text-anchor="start" x="345" y="-214.07" font-family="Helvetica,sans-Serif" font-size="9.00">DiagnosticsPanel.vue</text>
</a>
</g>
</g>
<!-- src/App.vue&#45;&gt;src/components/utils/DiagnosticsPanel.vue -->
<g id="edge1" class="edge">
<title>src/App.vue&#45;&gt;src/components/utils/DiagnosticsPanel.vue</title>
<path fill="none" stroke="#000000" stroke-width="2" stroke-opacity="0.200000" d="M168.87,-201.75C181.95,-205.23 198.05,-209 212.75,-211 250.76,-216.18 293.79,-217.73 327.81,-217.96"/>
<polygon fill="#000000" fill-opacity="0.200000" stroke="#000000" stroke-width="2" stroke-opacity="0.200000" points="327.67,-220.06 333.68,-217.98 327.69,-215.86 327.67,-220.06"/>
</g>
<!-- src/views/NavBar.vue -->
<g id="node3" class="node">
<title>src/views/NavBar.vue</title>
<g id="a_node3"><a xlink:href="src/views/NavBar.vue" xlink:title="NavBar.vue">
<path fill="#41f083" stroke="black" d="M287.71,-149.62C287.71,-149.62 238.04,-149.62 238.04,-149.62 234.83,-149.62 231.62,-146.42 231.62,-143.21 231.62,-143.21 231.62,-136.79 231.62,-136.79 231.62,-133.58 234.83,-130.38 238.04,-130.38 238.04,-130.38 287.71,-130.38 287.71,-130.38 290.92,-130.38 294.12,-133.58 294.12,-136.79 294.12,-136.79 294.12,-143.21 294.12,-143.21 294.12,-146.42 290.92,-149.62 287.71,-149.62"/>
<text text-anchor="start" x="239.62" y="-137.07" font-family="Helvetica,sans-Serif" font-size="9.00">NavBar.vue</text>
</a>
</g>
</g>
<!-- src/App.vue&#45;&gt;src/views/NavBar.vue -->
<g id="edge2" class="edge">
<title>src/App.vue&#45;&gt;src/views/NavBar.vue</title>
<path fill="none" stroke="#000000" stroke-width="2" stroke-opacity="0.200000" d="M158.1,-184.03C172.06,-175.49 193.2,-163.29 212.75,-155 216.07,-153.59 219.58,-152.25 223.12,-150.99"/>
<polygon fill="#000000" fill-opacity="0.200000" stroke="#000000" stroke-width="2" stroke-opacity="0.200000" points="223.49,-153.08 228.51,-149.18 222.16,-149.1 223.49,-153.08"/>
</g>
<!-- src/views/VideoGallery.vue -->
<g id="node4" class="node">
<title>src/views/VideoGallery.vue</title>
<g id="a_node4"><a xlink:href="src/views/VideoGallery.vue" xlink:title="VideoGallery.vue">
<path fill="#41f083" stroke="black" d="M298.58,-180.62C298.58,-180.62 227.17,-180.62 227.17,-180.62 223.96,-180.62 220.75,-177.42 220.75,-174.21 220.75,-174.21 220.75,-167.79 220.75,-167.79 220.75,-164.58 223.96,-161.38 227.17,-161.38 227.17,-161.38 298.58,-161.38 298.58,-161.38 301.79,-161.38 305,-164.58 305,-167.79 305,-167.79 305,-174.21 305,-174.21 305,-177.42 301.79,-180.62 298.58,-180.62"/>
<text text-anchor="start" x="228.75" y="-168.07" font-family="Helvetica,sans-Serif" font-size="9.00">VideoGallery.vue</text>
</a>
</g>
</g>
<!-- src/App.vue&#45;&gt;src/views/VideoGallery.vue -->
<g id="edge3" class="edge">
<title>src/App.vue&#45;&gt;src/views/VideoGallery.vue</title>
<path fill="none" stroke="#000000" stroke-width="2" stroke-opacity="0.200000" d="M168.6,-188.95C181.35,-186.5 197.11,-183.46 212.03,-180.59"/>
<polygon fill="#000000" fill-opacity="0.200000" stroke="#000000" stroke-width="2" stroke-opacity="0.200000" points="212.21,-182.7 217.71,-179.5 211.42,-178.57 212.21,-182.7"/>
</g>
<!-- src/stores/appStateStore.ts -->
<g id="node16" class="node">
<title>src/stores/appStateStore.ts</title>
<g id="a_node16"><a xlink:href="src/stores/appStateStore.ts" xlink:title="appStateStore.ts">
<path fill="#ddfeff" stroke="black" d="M544.83,-92.62C544.83,-92.62 473.42,-92.62 473.42,-92.62 470.21,-92.62 467,-89.42 467,-86.21 467,-86.21 467,-79.79 467,-79.79 467,-76.58 470.21,-73.38 473.42,-73.38 473.42,-73.38 544.83,-73.38 544.83,-73.38 548.04,-73.38 551.25,-76.58 551.25,-79.79 551.25,-79.79 551.25,-86.21 551.25,-86.21 551.25,-89.42 548.04,-92.62 544.83,-92.62"/>
<text text-anchor="start" x="475" y="-80.08" font-family="Helvetica,sans-Serif" font-size="9.00">appStateStore.ts</text>
</a>
</g>
</g>
<!-- src/components/utils/DiagnosticsPanel.vue&#45;&gt;src/stores/appStateStore.ts -->
<g id="edge13" class="edge">
<title>src/components/utils/DiagnosticsPanel.vue&#45;&gt;src/stores/appStateStore.ts</title>
<path fill="none" stroke="#000000" stroke-width="2" stroke-opacity="0.200000" d="M434.54,-206.96C440.87,-203.76 446.69,-199.55 451,-194 469.93,-169.61 444.49,-152.25 459,-125 464.74,-114.22 474.49,-105.01 483.79,-97.98"/>
<polygon fill="#000000" fill-opacity="0.200000" stroke="#000000" stroke-width="2" stroke-opacity="0.200000" points="484.92,-99.76 488.6,-94.58 482.49,-96.33 484.92,-99.76"/>
</g>
<!-- src/components/inputs/FolderSelector.vue -->
<g id="node14" class="node">
<title>src/components/inputs/FolderSelector.vue</title>
<g id="a_node14"><a xlink:href="src/components/inputs/FolderSelector.vue" xlink:title="FolderSelector.vue">
<path fill="#41f083" stroke="black" d="M429.83,-163.62C429.83,-163.62 350.17,-163.62 350.17,-163.62 346.96,-163.62 343.75,-160.42 343.75,-157.21 343.75,-157.21 343.75,-150.79 343.75,-150.79 343.75,-147.58 346.96,-144.38 350.17,-144.38 350.17,-144.38 429.83,-144.38 429.83,-144.38 433.04,-144.38 436.25,-147.58 436.25,-150.79 436.25,-150.79 436.25,-157.21 436.25,-157.21 436.25,-160.42 433.04,-163.62 429.83,-163.62"/>
<text text-anchor="start" x="351.75" y="-151.07" font-family="Helvetica,sans-Serif" font-size="9.00">FolderSelector.vue</text>
</a>
</g>
</g>
<!-- src/views/NavBar.vue&#45;&gt;src/components/inputs/FolderSelector.vue -->
<g id="edge38" class="edge">
<title>src/views/NavBar.vue&#45;&gt;src/components/inputs/FolderSelector.vue</title>
<path fill="none" stroke="#000000" stroke-width="2" stroke-opacity="0.200000" d="M294.48,-143.42C306.59,-144.78 320.88,-146.38 334.63,-147.92"/>
<polygon fill="#000000" fill-opacity="0.200000" stroke="#000000" stroke-width="2" stroke-opacity="0.200000" points="334.36,-150 340.56,-148.58 334.83,-145.83 334.36,-150"/>
</g>
<!-- src/stores/videosStore.ts -->
<g id="node15" class="node">
<title>src/stores/videosStore.ts</title>
<g id="a_node15"><a xlink:href="src/stores/videosStore.ts" xlink:title="videosStore.ts">
<path fill="#ddfeff" stroke="black" d="M539.96,-61.62C539.96,-61.62 478.29,-61.62 478.29,-61.62 475.08,-61.62 471.88,-58.42 471.88,-55.21 471.88,-55.21 471.88,-48.79 471.88,-48.79 471.88,-45.58 475.08,-42.38 478.29,-42.38 478.29,-42.38 539.96,-42.38 539.96,-42.38 543.17,-42.38 546.38,-45.58 546.38,-48.79 546.38,-48.79 546.38,-55.21 546.38,-55.21 546.38,-58.42 543.17,-61.62 539.96,-61.62"/>
<text text-anchor="start" x="479.88" y="-49.08" font-family="Helvetica,sans-Serif" font-size="9.00">videosStore.ts</text>
</a>
</g>
</g>
<!-- src/views/NavBar.vue&#45;&gt;src/stores/videosStore.ts -->
<g id="edge40" class="edge">
<title>src/views/NavBar.vue&#45;&gt;src/stores/videosStore.ts</title>
<path fill="none" stroke="#000000" stroke-width="2" stroke-opacity="0.200000" d="M272.98,-130.11C283.5,-119.31 301.82,-102.31 321,-93 366.47,-70.92 423.92,-60.6 463.09,-55.87"/>
<polygon fill="#000000" fill-opacity="0.200000" stroke="#000000" stroke-width="2" stroke-opacity="0.200000" points="462.92,-58 468.64,-55.23 462.44,-53.83 462.92,-58"/>
</g>
<!-- src/views/NavBar.vue&#45;&gt;src/stores/appStateStore.ts -->
<g id="edge39" class="edge">
<title>src/views/NavBar.vue&#45;&gt;src/stores/appStateStore.ts</title>
<path fill="none" stroke="#000000" stroke-width="2" stroke-opacity="0.200000" d="M294.32,-132.9C335.33,-123.32 408.87,-106.16 458.08,-94.68"/>
<polygon fill="#000000" fill-opacity="0.200000" stroke="#000000" stroke-width="2" stroke-opacity="0.200000" points="458.36,-96.77 463.72,-93.36 457.4,-92.68 458.36,-96.77"/>
</g>
<!-- src/components/VideoCard.vue -->
<g id="node12" class="node">
<title>src/components/VideoCard.vue</title>
<g id="a_node12"><a xlink:href="src/components/VideoCard.vue" xlink:title="VideoCard.vue">
<path fill="#41f083" stroke="black" d="M421.58,-281.62C421.58,-281.62 358.42,-281.62 358.42,-281.62 355.21,-281.62 352,-278.42 352,-275.21 352,-275.21 352,-268.79 352,-268.79 352,-265.58 355.21,-262.38 358.42,-262.38 358.42,-262.38 421.58,-262.38 421.58,-262.38 424.79,-262.38 428,-265.58 428,-268.79 428,-268.79 428,-275.21 428,-275.21 428,-278.42 424.79,-281.62 421.58,-281.62"/>
<text text-anchor="start" x="360" y="-269.07" font-family="Helvetica,sans-Serif" font-size="9.00">VideoCard.vue</text>
</a>
</g>
</g>
<!-- src/views/VideoGallery.vue&#45;&gt;src/components/VideoCard.vue -->
<g id="edge41" class="edge">
<title>src/views/VideoGallery.vue&#45;&gt;src/components/VideoCard.vue</title>
<path fill="none" stroke="#000000" stroke-width="2" stroke-opacity="0.200000" d="M305.34,-178.57C308.21,-180.31 310.82,-182.43 313,-185 333.79,-209.59 299.48,-233.05 321,-257 326.76,-263.41 334.58,-267.41 342.87,-269.85"/>
<polygon fill="#000000" fill-opacity="0.200000" stroke="#000000" stroke-width="2" stroke-opacity="0.200000" points="342.34,-271.88 348.66,-271.18 343.28,-267.79 342.34,-271.88"/>
</g>
<!-- src/views/VideoGallery.vue&#45;&gt;src/stores/videosStore.ts -->
<g id="edge42" class="edge">
<title>src/views/VideoGallery.vue&#45;&gt;src/stores/videosStore.ts</title>
<path fill="none" stroke="#000000" stroke-width="2" stroke-opacity="0.200000" d="M305.23,-161.74C308.05,-160.12 310.69,-158.23 313,-156 320.8,-148.5 313.58,-140.88 321,-133 363.92,-87.48 402.68,-118.74 451,-79 455.95,-74.93 453.86,-70.83 459,-67 460.54,-65.85 462.17,-64.79 463.86,-63.82"/>
<polygon fill="#000000" fill-opacity="0.200000" stroke="#000000" stroke-width="2" stroke-opacity="0.200000" points="464.42,-65.88 468.88,-61.35 462.57,-62.11 464.42,-65.88"/>
</g>
<!-- src/application/index.ts -->
<g id="node5" class="node">
<title>src/application/index.ts</title>
<g id="a_node5"><a xlink:href="src/application/index.ts" xlink:title="index.ts">
<path fill="#ddfeff" stroke="black" d="M623.58,-181.62C623.58,-181.62 582.42,-181.62 582.42,-181.62 579.21,-181.62 576,-178.42 576,-175.21 576,-175.21 576,-168.79 576,-168.79 576,-165.58 579.21,-162.38 582.42,-162.38 582.42,-162.38 623.58,-162.38 623.58,-162.38 626.79,-162.38 630,-165.58 630,-168.79 630,-168.79 630,-175.21 630,-175.21 630,-178.42 626.79,-181.62 623.58,-181.62"/>
<text text-anchor="start" x="587.25" y="-169.07" font-family="Helvetica,sans-Serif" font-size="9.00">index.ts</text>
</a>
</g>
</g>
<!-- src/application/services/FiltersService.ts -->
<g id="node6" class="node">
<title>src/application/services/FiltersService.ts</title>
<g id="a_node6"><a xlink:href="src/application/services/FiltersService.ts" xlink:title="FiltersService.ts">
<path fill="#ddfeff" stroke="black" d="M733.58,-150.62C733.58,-150.62 665.17,-150.62 665.17,-150.62 661.96,-150.62 658.75,-147.42 658.75,-144.21 658.75,-144.21 658.75,-137.79 658.75,-137.79 658.75,-134.58 661.96,-131.38 665.17,-131.38 665.17,-131.38 733.58,-131.38 733.58,-131.38 736.79,-131.38 740,-134.58 740,-137.79 740,-137.79 740,-144.21 740,-144.21 740,-147.42 736.79,-150.62 733.58,-150.62"/>
<text text-anchor="start" x="666.75" y="-138.07" font-family="Helvetica,sans-Serif" font-size="9.00">FiltersService.ts</text>
</a>
</g>
</g>
<!-- src/application/index.ts&#45;&gt;src/application/services/FiltersService.ts -->
<g id="edge4" class="edge">
<title>src/application/index.ts&#45;&gt;src/application/services/FiltersService.ts</title>
<path fill="none" stroke="#000000" stroke-width="2" stroke-opacity="0.200000" d="M623.5,-162.02C628.18,-159.86 633.21,-157.71 638,-156 641.87,-154.62 645.92,-153.33 650.01,-152.11"/>
<polygon fill="#000000" fill-opacity="0.200000" stroke="#000000" stroke-width="2" stroke-opacity="0.200000" points="650.3,-154.21 655.51,-150.57 649.17,-150.17 650.3,-154.21"/>
</g>
<!-- src/application/services/VideoMetadataService.ts -->
<g id="node7" class="node">
<title>src/application/services/VideoMetadataService.ts</title>
<g id="a_node7"><a xlink:href="src/application/services/VideoMetadataService.ts" xlink:title="VideoMetadataService.ts">
<path fill="#ddfeff" stroke="black" d="M875.83,-181.62C875.83,-181.62 772.17,-181.62 772.17,-181.62 768.96,-181.62 765.75,-178.42 765.75,-175.21 765.75,-175.21 765.75,-168.79 765.75,-168.79 765.75,-165.58 768.96,-162.38 772.17,-162.38 772.17,-162.38 875.83,-162.38 875.83,-162.38 879.04,-162.38 882.25,-165.58 882.25,-168.79 882.25,-168.79 882.25,-175.21 882.25,-175.21 882.25,-178.42 879.04,-181.62 875.83,-181.62"/>
<text text-anchor="start" x="773.75" y="-169.07" font-family="Helvetica,sans-Serif" font-size="9.00">VideoMetadataService.ts</text>
</a>
</g>
</g>
<!-- src/application/index.ts&#45;&gt;src/application/services/VideoMetadataService.ts -->
<g id="edge5" class="edge">
<title>src/application/index.ts&#45;&gt;src/application/services/VideoMetadataService.ts</title>
<path fill="none" stroke="#000000" stroke-width="2" stroke-opacity="0.200000" d="M621.47,-182.01C626.63,-184.47 632.4,-186.75 638,-188 684.02,-198.29 737.85,-191.59 775.54,-183.97"/>
<polygon fill="#000000" fill-opacity="0.200000" stroke="#000000" stroke-width="2" stroke-opacity="0.200000" points="775.88,-186.04 781.32,-182.75 775.01,-181.93 775.88,-186.04"/>
</g>
<!-- src/application/services/VideoParserService.ts -->
<g id="node8" class="node">
<title>src/application/services/VideoParserService.ts</title>
<g id="a_node8"><a xlink:href="src/application/services/VideoParserService.ts" xlink:title="VideoParserService.ts">
<path fill="#ddfeff" stroke="black" d="M746.33,-181.62C746.33,-181.62 652.42,-181.62 652.42,-181.62 649.21,-181.62 646,-178.42 646,-175.21 646,-175.21 646,-168.79 646,-168.79 646,-165.58 649.21,-162.38 652.42,-162.38 652.42,-162.38 746.33,-162.38 746.33,-162.38 749.54,-162.38 752.75,-165.58 752.75,-168.79 752.75,-168.79 752.75,-175.21 752.75,-175.21 752.75,-178.42 749.54,-181.62 746.33,-181.62"/>
<text text-anchor="start" x="654" y="-169.07" font-family="Helvetica,sans-Serif" font-size="9.00">VideoParserService.ts</text>
</a>
</g>
</g>
<!-- src/application/index.ts&#45;&gt;src/application/services/VideoParserService.ts -->
<g id="edge6" class="edge">
<title>src/application/index.ts&#45;&gt;src/application/services/VideoParserService.ts</title>
<path fill="none" stroke="#000000" stroke-width="2" stroke-opacity="0.200000" d="M630.29,-172C632.39,-172 634.56,-172 636.77,-172"/>
<polygon fill="#000000" fill-opacity="0.200000" stroke="#000000" stroke-width="2" stroke-opacity="0.200000" points="636.48,-174.1 642.48,-172 636.48,-169.9 636.48,-174.1"/>
</g>
<!-- src/infrastructure/index.ts -->
<g id="node9" class="node">
<title>src/infrastructure/index.ts</title>
<g id="a_node9"><a xlink:href="src/infrastructure/index.ts" xlink:title="index.ts">
<path fill="#ddfeff" stroke="black" d="M961.83,-181.62C961.83,-181.62 920.67,-181.62 920.67,-181.62 917.46,-181.62 914.25,-178.42 914.25,-175.21 914.25,-175.21 914.25,-168.79 914.25,-168.79 914.25,-165.58 917.46,-162.38 920.67,-162.38 920.67,-162.38 961.83,-162.38 961.83,-162.38 965.04,-162.38 968.25,-165.58 968.25,-168.79 968.25,-168.79 968.25,-175.21 968.25,-175.21 968.25,-178.42 965.04,-181.62 961.83,-181.62"/>
<text text-anchor="start" x="925.5" y="-169.07" font-family="Helvetica,sans-Serif" font-size="9.00">index.ts</text>
</a>
</g>
</g>
<!-- src/application/services/VideoMetadataService.ts&#45;&gt;src/infrastructure/index.ts -->
<g id="edge7" class="edge">
<title>src/application/services/VideoMetadataService.ts&#45;&gt;src/infrastructure/index.ts</title>
<path fill="none" stroke="#000000" stroke-width="2" stroke-opacity="0.200000" d="M882.62,-172C890.3,-172 897.98,-172 905.11,-172"/>
<polygon fill="#000000" fill-opacity="0.200000" stroke="#000000" stroke-width="2" stroke-opacity="0.200000" points="904.78,-174.1 910.78,-172 904.78,-169.9 904.78,-174.1"/>
</g>
<!-- src/application/services/VideoParserService.ts&#45;&gt;src/application/services/VideoMetadataService.ts -->
<g id="edge8" class="edge">
<title>src/application/services/VideoParserService.ts&#45;&gt;src/application/services/VideoMetadataService.ts</title>
<path fill="none" stroke="#000000" stroke-width="2" stroke-opacity="0.200000" d="M753.09,-172C754.39,-172 755.69,-172 757,-172"/>
<polygon fill="#000000" fill-opacity="0.200000" stroke="#000000" stroke-width="2" stroke-opacity="0.200000" points="756.61,-174.1 762.61,-172 756.61,-169.9 756.61,-174.1"/>
</g>
<!-- src/infrastructure/database/migrations/index.ts -->
<g id="node24" class="node">
<title>src/infrastructure/database/migrations/index.ts</title>
<g id="a_node24"><a xlink:href="src/infrastructure/database/migrations/index.ts" xlink:title="index.ts">
<path fill="#ddfeff" stroke="black" d="M1193.08,-136.62C1193.08,-136.62 1151.92,-136.62 1151.92,-136.62 1148.71,-136.62 1145.5,-133.42 1145.5,-130.21 1145.5,-130.21 1145.5,-123.79 1145.5,-123.79 1145.5,-120.58 1148.71,-117.38 1151.92,-117.38 1151.92,-117.38 1193.08,-117.38 1193.08,-117.38 1196.29,-117.38 1199.5,-120.58 1199.5,-123.79 1199.5,-123.79 1199.5,-130.21 1199.5,-130.21 1199.5,-133.42 1196.29,-136.62 1193.08,-136.62"/>
<text text-anchor="start" x="1156.75" y="-124.08" font-family="Helvetica,sans-Serif" font-size="9.00">index.ts</text>
</a>
</g>
</g>
<!-- src/infrastructure/index.ts&#45;&gt;src/infrastructure/database/migrations/index.ts -->
<g id="edge27" class="edge">
<title>src/infrastructure/index.ts&#45;&gt;src/infrastructure/database/migrations/index.ts</title>
<path fill="none" stroke="#000000" stroke-width="2" stroke-opacity="0.200000" d="M955.46,-161.99C961.49,-157.92 968.92,-153.58 976.25,-151 1029.91,-132.15 1096.38,-127.67 1136.29,-126.84"/>
<polygon fill="#000000" fill-opacity="0.200000" stroke="#000000" stroke-width="2" stroke-opacity="0.200000" points="1136.11,-128.94 1142.08,-126.75 1136.05,-124.74 1136.11,-128.94"/>
</g>
<!-- src/infrastructure/repository/MetadataRepository.ts -->
<g id="node29" class="node">
<title>src/infrastructure/repository/MetadataRepository.ts</title>
<g id="a_node29"><a xlink:href="src/infrastructure/repository/MetadataRepository.ts" xlink:title="MetadataRepository.ts">
<path fill="#ddfeff" stroke="black" d="M1085.33,-212.62C1085.33,-212.62 990.67,-212.62 990.67,-212.62 987.46,-212.62 984.25,-209.42 984.25,-206.21 984.25,-206.21 984.25,-199.79 984.25,-199.79 984.25,-196.58 987.46,-193.38 990.67,-193.38 990.67,-193.38 1085.33,-193.38 1085.33,-193.38 1088.54,-193.38 1091.75,-196.58 1091.75,-199.79 1091.75,-199.79 1091.75,-206.21 1091.75,-206.21 1091.75,-209.42 1088.54,-212.62 1085.33,-212.62"/>
<text text-anchor="start" x="992.25" y="-200.07" font-family="Helvetica,sans-Serif" font-size="9.00">MetadataRepository.ts</text>
</a>
</g>
</g>
<!-- src/infrastructure/index.ts&#45;&gt;src/infrastructure/repository/MetadataRepository.ts -->
<g id="edge28" class="edge">
<title>src/infrastructure/index.ts&#45;&gt;src/infrastructure/repository/MetadataRepository.ts</title>
<path fill="none" stroke="#000000" stroke-width="2" stroke-opacity="0.200000" d="M961.75,-181.98C966.42,-184.15 971.45,-186.3 976.25,-188 978.6,-188.83 981.02,-189.64 983.48,-190.41"/>
<polygon fill="#000000" fill-opacity="0.200000" stroke="#000000" stroke-width="2" stroke-opacity="0.200000" points="982.66,-192.36 989.01,-192.07 983.86,-188.34 982.66,-192.36"/>
</g>
<!-- src/infrastructure/repository/VideoRepository.ts -->
<g id="node30" class="node">
<title>src/infrastructure/repository/VideoRepository.ts</title>
<g id="a_node30"><a xlink:href="src/infrastructure/repository/VideoRepository.ts" xlink:title="VideoRepository.ts">
<path fill="#ddfeff" stroke="black" d="M1078.21,-181.62C1078.21,-181.62 997.79,-181.62 997.79,-181.62 994.58,-181.62 991.38,-178.42 991.38,-175.21 991.38,-175.21 991.38,-168.79 991.38,-168.79 991.38,-165.58 994.58,-162.38 997.79,-162.38 997.79,-162.38 1078.21,-162.38 1078.21,-162.38 1081.42,-162.38 1084.62,-165.58 1084.62,-168.79 1084.62,-168.79 1084.62,-175.21 1084.62,-175.21 1084.62,-178.42 1081.42,-181.62 1078.21,-181.62"/>
<text text-anchor="start" x="999.38" y="-169.07" font-family="Helvetica,sans-Serif" font-size="9.00">VideoRepository.ts</text>
</a>
</g>
</g>
<!-- src/infrastructure/index.ts&#45;&gt;src/infrastructure/repository/VideoRepository.ts -->
<g id="edge29" class="edge">
<title>src/infrastructure/index.ts&#45;&gt;src/infrastructure/repository/VideoRepository.ts</title>
<path fill="none" stroke="#000000" stroke-width="2" stroke-opacity="0.200000" d="M968.64,-172C972.91,-172 977.47,-172 982.13,-172"/>
<polygon fill="#000000" fill-opacity="0.200000" stroke="#000000" stroke-width="2" stroke-opacity="0.200000" points="982.12,-174.1 988.12,-172 982.12,-169.9 982.12,-174.1"/>
</g>
<!-- src/assets/effects/FadeTransition.vue -->
<g id="node10" class="node">
<title>src/assets/effects/FadeTransition.vue</title>
<g id="a_node10"><a xlink:href="src/assets/effects/FadeTransition.vue" xlink:title="no&#45;orphans">
<path fill="#ccffcc" stroke="orange" d="M182.33,-390.62C182.33,-390.62 100.42,-390.62 100.42,-390.62 97.21,-390.62 94,-387.42 94,-384.21 94,-384.21 94,-377.79 94,-377.79 94,-374.58 97.21,-371.38 100.42,-371.38 100.42,-371.38 182.33,-371.38 182.33,-371.38 185.54,-371.38 188.75,-374.58 188.75,-377.79 188.75,-377.79 188.75,-384.21 188.75,-384.21 188.75,-387.42 185.54,-390.62 182.33,-390.62"/>
<text text-anchor="start" x="102" y="-378.07" font-family="Helvetica,sans-Serif" font-size="9.00" fill="orange">FadeTransition.vue</text>
</a>
</g>
</g>
<!-- src/assets/main.css -->
<g id="node11" class="node">
<title>src/assets/main.css</title>
<g id="a_node11"><a xlink:href="src/assets/main.css" xlink:title="main.css">
<path fill="#ffffcc" stroke="black" d="M162.08,-354.62C162.08,-354.62 120.67,-354.62 120.67,-354.62 117.46,-354.62 114.25,-351.42 114.25,-348.21 114.25,-348.21 114.25,-341.79 114.25,-341.79 114.25,-338.58 117.46,-335.38 120.67,-335.38 120.67,-335.38 162.08,-335.38 162.08,-335.38 165.29,-335.38 168.5,-338.58 168.5,-341.79 168.5,-341.79 168.5,-348.21 168.5,-348.21 168.5,-351.42 165.29,-354.62 162.08,-354.62"/>
<text text-anchor="start" x="122.25" y="-342.07" font-family="Helvetica,sans-Serif" font-size="9.00">main.css</text>
</a>
</g>
</g>
<!-- src/components/VideoCard.vue&#45;&gt;src/application/index.ts -->
<g id="edge10" class="edge">
<title>src/components/VideoCard.vue&#45;&gt;src/application/index.ts</title>
<path fill="none" stroke="#000000" stroke-width="2" stroke-opacity="0.200000" d="M428.4,-274.89C471.58,-277.47 539.31,-278.97 560,-265 584.94,-248.16 595.27,-212.72 599.4,-190.78"/>
<polygon fill="#000000" fill-opacity="0.200000" stroke="#000000" stroke-width="2" stroke-opacity="0.200000" points="601.45,-191.28 600.36,-185.02 597.31,-190.59 601.45,-191.28"/>
</g>
<!-- src/components/VideoEmbed.vue -->
<g id="node13" class="node">
<title>src/components/VideoEmbed.vue</title>
<g id="a_node13"><a xlink:href="src/components/VideoEmbed.vue" xlink:title="VideoEmbed.vue">
<path fill="#41f083" stroke="black" d="M545.58,-258.62C545.58,-258.62 472.67,-258.62 472.67,-258.62 469.46,-258.62 466.25,-255.42 466.25,-252.21 466.25,-252.21 466.25,-245.79 466.25,-245.79 466.25,-242.58 469.46,-239.38 472.67,-239.38 472.67,-239.38 545.58,-239.38 545.58,-239.38 548.79,-239.38 552,-242.58 552,-245.79 552,-245.79 552,-252.21 552,-252.21 552,-255.42 548.79,-258.62 545.58,-258.62"/>
<text text-anchor="start" x="474.25" y="-246.07" font-family="Helvetica,sans-Serif" font-size="9.00">VideoEmbed.vue</text>
</a>
</g>
</g>
<!-- src/components/VideoCard.vue&#45;&gt;src/components/VideoEmbed.vue -->
<g id="edge9" class="edge">
<title>src/components/VideoCard.vue&#45;&gt;src/components/VideoEmbed.vue</title>
<path fill="none" stroke="#000000" stroke-width="2" stroke-opacity="0.200000" d="M428.38,-264.66C437.5,-262.87 447.42,-260.92 457.06,-259.03"/>
<polygon fill="#000000" fill-opacity="0.200000" stroke="#000000" stroke-width="2" stroke-opacity="0.200000" points="457.35,-261.11 462.84,-257.89 456.55,-256.99 457.35,-261.11"/>
</g>
<!-- src/components/inputs/FolderSelector.vue&#45;&gt;src/application/index.ts -->
<g id="edge11" class="edge">
<title>src/components/inputs/FolderSelector.vue&#45;&gt;src/application/index.ts</title>
<path fill="none" stroke="#000000" stroke-width="2" stroke-opacity="0.200000" d="M436.56,-157.62C470.58,-160.36 518.21,-164.28 560,-168 562.23,-168.2 564.54,-168.41 566.85,-168.62"/>
<polygon fill="#000000" fill-opacity="0.200000" stroke="#000000" stroke-width="2" stroke-opacity="0.200000" points="566.61,-170.71 572.78,-169.17 567,-166.52 566.61,-170.71"/>
</g>
<!-- src/components/inputs/FolderSelector.vue&#45;&gt;src/stores/videosStore.ts -->
<g id="edge12" class="edge">
<title>src/components/inputs/FolderSelector.vue&#45;&gt;src/stores/videosStore.ts</title>
<path fill="none" stroke="#000000" stroke-width="2" stroke-opacity="0.200000" d="M417.21,-143.96C429.38,-137.96 442.92,-129.11 451,-117 463.49,-98.28 444.22,-83.97 459,-67 460.49,-65.29 462.16,-63.78 463.97,-62.43"/>
<polygon fill="#000000" fill-opacity="0.200000" stroke="#000000" stroke-width="2" stroke-opacity="0.200000" points="464.77,-64.4 468.9,-59.56 462.66,-60.77 464.77,-64.4"/>
</g>
<!-- src/stores/videosStore.ts&#45;&gt;src/application/index.ts -->
<g id="edge37" class="edge">
<title>src/stores/videosStore.ts&#45;&gt;src/application/index.ts</title>
<path fill="none" stroke="#000000" stroke-width="2" stroke-opacity="0.200000" d="M546.79,-58.79C551.62,-60.85 556.2,-63.52 560,-67 585.08,-89.95 595.44,-129.89 599.53,-153.34"/>
<polygon fill="#000000" fill-opacity="0.200000" stroke="#000000" stroke-width="2" stroke-opacity="0.200000" points="597.41,-153.41 600.42,-159.01 601.56,-152.76 597.41,-153.41"/>
</g>
<!-- src/domain/constants/index.ts -->
<g id="node17" class="node">
<title>src/domain/constants/index.ts</title>
<g id="a_node17"><a xlink:href="src/domain/constants/index.ts" xlink:title="index.ts">
<path fill="#ddfeff" stroke="black" d="M1403.71,-310.62C1403.71,-310.62 1362.54,-310.62 1362.54,-310.62 1359.33,-310.62 1356.12,-307.42 1356.12,-304.21 1356.12,-304.21 1356.12,-297.79 1356.12,-297.79 1356.12,-294.58 1359.33,-291.38 1362.54,-291.38 1362.54,-291.38 1403.71,-291.38 1403.71,-291.38 1406.92,-291.38 1410.12,-294.58 1410.12,-297.79 1410.12,-297.79 1410.12,-304.21 1410.12,-304.21 1410.12,-307.42 1406.92,-310.62 1403.71,-310.62"/>
<text text-anchor="start" x="1367.38" y="-298.07" font-family="Helvetica,sans-Serif" font-size="9.00">index.ts</text>
</a>
</g>
</g>
<!-- src/domain/entities/Metadata.ts -->
<g id="node18" class="node">
<title>src/domain/entities/Metadata.ts</title>
<g id="a_node18"><a xlink:href="src/domain/entities/Metadata.ts" xlink:title="Metadata.ts">
<path fill="#ddfeff" stroke="black" d="M1518.83,-385.62C1518.83,-385.62 1468.42,-385.62 1468.42,-385.62 1465.21,-385.62 1462,-382.42 1462,-379.21 1462,-379.21 1462,-372.79 1462,-372.79 1462,-369.58 1465.21,-366.38 1468.42,-366.38 1468.42,-366.38 1518.83,-366.38 1518.83,-366.38 1522.04,-366.38 1525.25,-369.58 1525.25,-372.79 1525.25,-372.79 1525.25,-379.21 1525.25,-379.21 1525.25,-382.42 1522.04,-385.62 1518.83,-385.62"/>
<text text-anchor="start" x="1470" y="-373.07" font-family="Helvetica,sans-Serif" font-size="9.00">Metadata.ts</text>
</a>
</g>
</g>
<!-- src/domain/entities/Video.ts -->
<g id="node19" class="node">
<title>src/domain/entities/Video.ts</title>
<g id="a_node19"><a xlink:href="src/domain/entities/Video.ts" xlink:title="Video.ts">
<path fill="#ddfeff" stroke="black" d="M1514.21,-416.62C1514.21,-416.62 1473.04,-416.62 1473.04,-416.62 1469.83,-416.62 1466.62,-413.42 1466.62,-410.21 1466.62,-410.21 1466.62,-403.79 1466.62,-403.79 1466.62,-400.58 1469.83,-397.38 1473.04,-397.38 1473.04,-397.38 1514.21,-397.38 1514.21,-397.38 1517.42,-397.38 1520.62,-400.58 1520.62,-403.79 1520.62,-403.79 1520.62,-410.21 1520.62,-410.21 1520.62,-413.42 1517.42,-416.62 1514.21,-416.62"/>
<text text-anchor="start" x="1477.12" y="-404.07" font-family="Helvetica,sans-Serif" font-size="9.00">Video.ts</text>
</a>
</g>
</g>
<!-- src/domain/index.ts -->
<g id="node20" class="node">
<title>src/domain/index.ts</title>
<g id="a_node20"><a xlink:href="src/domain/index.ts" xlink:title="index.ts">
<path fill="#ddfeff" stroke="black" d="M1297.83,-341.62C1297.83,-341.62 1256.67,-341.62 1256.67,-341.62 1253.46,-341.62 1250.25,-338.42 1250.25,-335.21 1250.25,-335.21 1250.25,-328.79 1250.25,-328.79 1250.25,-325.58 1253.46,-322.38 1256.67,-322.38 1256.67,-322.38 1297.83,-322.38 1297.83,-322.38 1301.04,-322.38 1304.25,-325.58 1304.25,-328.79 1304.25,-328.79 1304.25,-335.21 1304.25,-335.21 1304.25,-338.42 1301.04,-341.62 1297.83,-341.62"/>
<text text-anchor="start" x="1261.5" y="-329.07" font-family="Helvetica,sans-Serif" font-size="9.00">index.ts</text>
</a>
</g>
</g>
<!-- src/domain/index.ts&#45;&gt;src/domain/constants/index.ts -->
<g id="edge14" class="edge">
<title>src/domain/index.ts&#45;&gt;src/domain/constants/index.ts</title>
<path fill="none" stroke="#000000" stroke-width="2" stroke-opacity="0.200000" d="M1304.73,-324.1C1317.67,-320.23 1333.42,-315.54 1347.32,-311.39"/>
<polygon fill="#000000" fill-opacity="0.200000" stroke="#000000" stroke-width="2" stroke-opacity="0.200000" points="1347.64,-313.48 1352.79,-309.75 1346.44,-309.46 1347.64,-313.48"/>
</g>
<!-- src/domain/index.ts&#45;&gt;src/domain/entities/Metadata.ts -->
<g id="edge15" class="edge">
<title>src/domain/index.ts&#45;&gt;src/domain/entities/Metadata.ts</title>
<path fill="none" stroke="#000000" stroke-opacity="0.200000" d="M1278.83,-341.86C1280.67,-363.21 1288.36,-413.56 1320.25,-435 1343.44,-450.59 1424.55,-452.91 1446,-435 1461.26,-422.26 1441.35,-406.33 1454,-391 1454.53,-390.36 1455.08,-389.75 1455.67,-389.17"/>
<polygon fill="none" stroke="#000000" stroke-opacity="0.200000" points="1456.92,-390.85 1460.35,-385.5 1454.33,-387.54 1456.92,-390.85"/>
</g>
<!-- src/domain/index.ts&#45;&gt;src/domain/entities/Video.ts -->
<g id="edge16" class="edge">
<title>src/domain/index.ts&#45;&gt;src/domain/entities/Video.ts</title>
<path fill="none" stroke="#000000" stroke-opacity="0.200000" d="M1278.45,-342.08C1279.52,-365.02 1285.71,-420.99 1320.25,-445 1366.14,-476.9 1393.35,-463.74 1446,-445 1458.87,-440.42 1470.77,-430.59 1479.32,-422.08"/>
<polygon fill="none" stroke="#000000" stroke-opacity="0.200000" points="1480.5,-423.88 1483.14,-418.1 1477.47,-420.97 1480.5,-423.88"/>
</g>
<!-- src/domain/repositories/IMetadataRepository.ts -->
<g id="node21" class="node">
<title>src/domain/repositories/IMetadataRepository.ts</title>
<g id="a_node21"><a xlink:href="src/domain/repositories/IMetadataRepository.ts" xlink:title="IMetadataRepository.ts">
<path fill="#ddfeff" stroke="black" d="M1431.58,-373.62C1431.58,-373.62 1334.67,-373.62 1334.67,-373.62 1331.46,-373.62 1328.25,-370.42 1328.25,-367.21 1328.25,-367.21 1328.25,-360.79 1328.25,-360.79 1328.25,-357.58 1331.46,-354.38 1334.67,-354.38 1334.67,-354.38 1431.58,-354.38 1431.58,-354.38 1434.79,-354.38 1438,-357.58 1438,-360.79 1438,-360.79 1438,-367.21 1438,-367.21 1438,-370.42 1434.79,-373.62 1431.58,-373.62"/>
<text text-anchor="start" x="1336.25" y="-361.07" font-family="Helvetica,sans-Serif" font-size="9.00">IMetadataRepository.ts</text>
</a>
</g>
</g>
<!-- src/domain/index.ts&#45;&gt;src/domain/repositories/IMetadataRepository.ts -->
<g id="edge17" class="edge">
<title>src/domain/index.ts&#45;&gt;src/domain/repositories/IMetadataRepository.ts</title>
<path fill="none" stroke="#000000" stroke-opacity="0.200000" d="M1304.73,-340.16C1316.19,-343.69 1329.85,-347.9 1342.48,-351.79"/>
<polygon fill="none" stroke="#000000" stroke-opacity="0.200000" points="1341.57,-353.71 1347.93,-353.46 1342.81,-349.69 1341.57,-353.71"/>
</g>
<!-- src/domain/repositories/IVideoRepository.ts -->
<g id="node22" class="node">
<title>src/domain/repositories/IVideoRepository.ts</title>
<g id="a_node22"><a xlink:href="src/domain/repositories/IVideoRepository.ts" xlink:title="IVideoRepository.ts">
<path fill="#ddfeff" stroke="black" d="M1424.46,-404.62C1424.46,-404.62 1341.79,-404.62 1341.79,-404.62 1338.58,-404.62 1335.38,-401.42 1335.38,-398.21 1335.38,-398.21 1335.38,-391.79 1335.38,-391.79 1335.38,-388.58 1338.58,-385.38 1341.79,-385.38 1341.79,-385.38 1424.46,-385.38 1424.46,-385.38 1427.67,-385.38 1430.88,-388.58 1430.88,-391.79 1430.88,-391.79 1430.88,-398.21 1430.88,-398.21 1430.88,-401.42 1427.67,-404.62 1424.46,-404.62"/>
<text text-anchor="start" x="1343.38" y="-392.07" font-family="Helvetica,sans-Serif" font-size="9.00">IVideoRepository.ts</text>
</a>
</g>
</g>
<!-- src/domain/index.ts&#45;&gt;src/domain/repositories/IVideoRepository.ts -->
<g id="edge18" class="edge">
<title>src/domain/index.ts&#45;&gt;src/domain/repositories/IVideoRepository.ts</title>
<path fill="none" stroke="#000000" stroke-opacity="0.200000" d="M1284.34,-342.09C1291.54,-353.12 1304.53,-370.47 1320.25,-380 1322.8,-381.55 1325.5,-382.93 1328.3,-384.18"/>
<polygon fill="none" stroke="#000000" stroke-opacity="0.200000" points="1327.19,-386 1333.54,-386.27 1328.74,-382.1 1327.19,-386"/>
</g>
<!-- src/domain/repositories/IMetadataRepository.ts&#45;&gt;src/domain/entities/Metadata.ts -->
<g id="edge19" class="edge">
<title>src/domain/repositories/IMetadataRepository.ts&#45;&gt;src/domain/entities/Metadata.ts</title>
<path fill="none" stroke="#000000" stroke-opacity="0.200000" d="M1438.38,-370C1443.71,-370.59 1449.05,-371.18 1454.19,-371.75"/>
<polygon fill="none" stroke="#000000" stroke-opacity="0.200000" points="1453.83,-373.82 1460.03,-372.39 1454.3,-369.65 1453.83,-373.82"/>
</g>
<!-- src/domain/repositories/IVideoRepository.ts&#45;&gt;src/domain/entities/Video.ts -->
<g id="edge20" class="edge">
<title>src/domain/repositories/IVideoRepository.ts&#45;&gt;src/domain/entities/Video.ts</title>
<path fill="none" stroke="#000000" stroke-opacity="0.200000" d="M1431.08,-400.19C1440.39,-401.22 1449.98,-402.28 1458.74,-403.25"/>
<polygon fill="none" stroke="#000000" stroke-opacity="0.200000" points="1458.5,-405.34 1464.7,-403.91 1458.97,-401.16 1458.5,-405.34"/>
</g>
<!-- src/infrastructure/database/DatabaseConnection.ts -->
<g id="node23" class="node">
<title>src/infrastructure/database/DatabaseConnection.ts</title>
<g id="a_node23"><a xlink:href="src/infrastructure/database/DatabaseConnection.ts" xlink:title="DatabaseConnection.ts">
<path fill="#ddfeff" stroke="black" d="M1222.83,-212.62C1222.83,-212.62 1122.17,-212.62 1122.17,-212.62 1118.96,-212.62 1115.75,-209.42 1115.75,-206.21 1115.75,-206.21 1115.75,-199.79 1115.75,-199.79 1115.75,-196.58 1118.96,-193.38 1122.17,-193.38 1122.17,-193.38 1222.83,-193.38 1222.83,-193.38 1226.04,-193.38 1229.25,-196.58 1229.25,-199.79 1229.25,-199.79 1229.25,-206.21 1229.25,-206.21 1229.25,-209.42 1226.04,-212.62 1222.83,-212.62"/>
<text text-anchor="start" x="1123.75" y="-200.07" font-family="Helvetica,sans-Serif" font-size="9.00">DatabaseConnection.ts</text>
</a>
</g>
</g>
<!-- src/infrastructure/database/DatabaseConnection.ts&#45;&gt;src/domain/index.ts -->
<g id="edge21" class="edge">
<title>src/infrastructure/database/DatabaseConnection.ts&#45;&gt;src/domain/index.ts</title>
<path fill="none" stroke="#000000" stroke-width="2" stroke-opacity="0.200000" d="M1183.41,-212.99C1194.92,-224.77 1214.23,-245.15 1229.25,-264 1242.4,-280.52 1255.96,-300.51 1265.12,-314.52"/>
<polygon fill="#000000" fill-opacity="0.200000" stroke="#000000" stroke-width="2" stroke-opacity="0.200000" points="1263.29,-315.58 1268.32,-319.47 1266.82,-313.3 1263.29,-315.58"/>
</g>
<!-- src/infrastructure/database/migrations/migrations.ts -->
<g id="node25" class="node">
<title>src/infrastructure/database/migrations/migrations.ts</title>
<g id="a_node25"><a xlink:href="src/infrastructure/database/migrations/migrations.ts" xlink:title="migrations.ts">
<path fill="#ddfeff" stroke="black" d="M1305.83,-130.62C1305.83,-130.62 1248.67,-130.62 1248.67,-130.62 1245.46,-130.62 1242.25,-127.42 1242.25,-124.21 1242.25,-124.21 1242.25,-117.79 1242.25,-117.79 1242.25,-114.58 1245.46,-111.38 1248.67,-111.38 1248.67,-111.38 1305.83,-111.38 1305.83,-111.38 1309.04,-111.38 1312.25,-114.58 1312.25,-117.79 1312.25,-117.79 1312.25,-124.21 1312.25,-124.21 1312.25,-127.42 1309.04,-130.62 1305.83,-130.62"/>
<text text-anchor="start" x="1250.25" y="-118.08" font-family="Helvetica,sans-Serif" font-size="9.00">migrations.ts</text>
</a>
</g>
</g>
<!-- src/infrastructure/database/migrations/index.ts&#45;&gt;src/infrastructure/database/migrations/migrations.ts -->
<g id="edge22" class="edge">
<title>src/infrastructure/database/migrations/index.ts&#45;&gt;src/infrastructure/database/migrations/migrations.ts</title>
<path fill="none" stroke="#000000" stroke-width="2" stroke-opacity="0.200000" d="M1199.96,-125.45C1212.8,-124.7 1228.39,-123.79 1242.12,-122.99"/>
<polygon fill="#000000" fill-opacity="0.200000" stroke="#000000" stroke-width="2" stroke-opacity="0.200000" points="1244.92,-121.6 1248.82,-129.7 1240.72,-125.8 1244.92,-121.6"/>
</g>
<!-- src/infrastructure/database/migrations/v1/index.ts -->
<g id="node26" class="node">
<title>src/infrastructure/database/migrations/v1/index.ts</title>
<g id="a_node26"><a xlink:href="src/infrastructure/database/migrations/v1/index.ts" xlink:title="index.ts">
<path fill="#ddfeff" stroke="black" d="M1403.71,-67.62C1403.71,-67.62 1362.54,-67.62 1362.54,-67.62 1359.33,-67.62 1356.12,-64.42 1356.12,-61.21 1356.12,-61.21 1356.12,-54.79 1356.12,-54.79 1356.12,-51.58 1359.33,-48.38 1362.54,-48.38 1362.54,-48.38 1403.71,-48.38 1403.71,-48.38 1406.92,-48.38 1410.12,-51.58 1410.12,-54.79 1410.12,-54.79 1410.12,-61.21 1410.12,-61.21 1410.12,-64.42 1406.92,-67.62 1403.71,-67.62"/>
<text text-anchor="start" x="1367.38" y="-55.08" font-family="Helvetica,sans-Serif" font-size="9.00">index.ts</text>
</a>
</g>
</g>
<!-- src/infrastructure/database/migrations/migrations.ts&#45;&gt;src/infrastructure/database/migrations/v1/index.ts -->
<g id="edge23" class="edge">
<title>src/infrastructure/database/migrations/migrations.ts&#45;&gt;src/infrastructure/database/migrations/v1/index.ts</title>
<path fill="none" stroke="#000000" stroke-width="2" stroke-opacity="0.200000" d="M1294.94,-110.88C1311.98,-100.55 1338.59,-84.4 1357.94,-72.67"/>
<polygon fill="#000000" fill-opacity="0.200000" stroke="#000000" stroke-width="2" stroke-opacity="0.200000" points="1358.85,-74.57 1362.89,-69.67 1356.67,-70.98 1358.85,-74.57"/>
</g>
<!-- src/infrastructure/database/migrations/v2/index.ts -->
<g id="node27" class="node">
<title>src/infrastructure/database/migrations/v2/index.ts</title>
<g id="a_node27"><a xlink:href="src/infrastructure/database/migrations/v2/index.ts" xlink:title="index.ts">
<path fill="#ddfeff" stroke="black" d="M1403.71,-130.62C1403.71,-130.62 1362.54,-130.62 1362.54,-130.62 1359.33,-130.62 1356.12,-127.42 1356.12,-124.21 1356.12,-124.21 1356.12,-117.79 1356.12,-117.79 1356.12,-114.58 1359.33,-111.38 1362.54,-111.38 1362.54,-111.38 1403.71,-111.38 1403.71,-111.38 1406.92,-111.38 1410.12,-114.58 1410.12,-117.79 1410.12,-117.79 1410.12,-124.21 1410.12,-124.21 1410.12,-127.42 1406.92,-130.62 1403.71,-130.62"/>
<text text-anchor="start" x="1367.38" y="-118.08" font-family="Helvetica,sans-Serif" font-size="9.00">index.ts</text>
</a>
</g>
</g>
<!-- src/infrastructure/database/migrations/migrations.ts&#45;&gt;src/infrastructure/database/migrations/v2/index.ts -->
<g id="edge24" class="edge">
<title>src/infrastructure/database/migrations/migrations.ts&#45;&gt;src/infrastructure/database/migrations/v2/index.ts</title>
<path fill="none" stroke="#000000" stroke-width="2" stroke-opacity="0.200000" d="M1312.55,-121C1323.54,-121 1335.72,-121 1346.78,-121"/>
<polygon fill="#000000" fill-opacity="0.200000" stroke="#000000" stroke-width="2" stroke-opacity="0.200000" points="1346.73,-123.1 1352.73,-121 1346.73,-118.9 1346.73,-123.1"/>
</g>
<!-- src/infrastructure/database/migrations/utils/index.ts -->
<g id="node28" class="node">
<title>src/infrastructure/database/migrations/utils/index.ts</title>
<g id="a_node28"><a xlink:href="src/infrastructure/database/migrations/utils/index.ts" xlink:title="index.ts">
<path fill="#ddfeff" stroke="black" d="M1514.21,-98.62C1514.21,-98.62 1473.04,-98.62 1473.04,-98.62 1469.83,-98.62 1466.62,-95.42 1466.62,-92.21 1466.62,-92.21 1466.62,-85.79 1466.62,-85.79 1466.62,-82.58 1469.83,-79.38 1473.04,-79.38 1473.04,-79.38 1514.21,-79.38 1514.21,-79.38 1517.42,-79.38 1520.62,-82.58 1520.62,-85.79 1520.62,-85.79 1520.62,-92.21 1520.62,-92.21 1520.62,-95.42 1517.42,-98.62 1514.21,-98.62"/>
<text text-anchor="start" x="1477.88" y="-86.08" font-family="Helvetica,sans-Serif" font-size="9.00">index.ts</text>
</a>
</g>
</g>
<!-- src/infrastructure/database/migrations/v1/index.ts&#45;&gt;src/infrastructure/database/migrations/utils/index.ts -->
<g id="edge25" class="edge">
<title>src/infrastructure/database/migrations/v1/index.ts&#45;&gt;src/infrastructure/database/migrations/utils/index.ts</title>
<path fill="none" stroke="#000000" stroke-width="2" stroke-opacity="0.200000" d="M1410.39,-65.5C1424.68,-69.59 1442.53,-74.69 1457.95,-79.09"/>
<polygon fill="#000000" fill-opacity="0.200000" stroke="#000000" stroke-width="2" stroke-opacity="0.200000" points="1456.97,-81 1463.32,-80.63 1458.12,-76.96 1456.97,-81"/>
</g>
<!-- src/infrastructure/database/migrations/v2/index.ts&#45;&gt;src/infrastructure/database/migrations/utils/index.ts -->
<g id="edge26" class="edge">
<title>src/infrastructure/database/migrations/v2/index.ts&#45;&gt;src/infrastructure/database/migrations/utils/index.ts</title>
<path fill="none" stroke="#000000" stroke-width="2" stroke-opacity="0.200000" d="M1410.39,-113.25C1424.68,-109.04 1442.53,-103.77 1457.95,-99.23"/>
<polygon fill="#000000" fill-opacity="0.200000" stroke="#000000" stroke-width="2" stroke-opacity="0.200000" points="1458.16,-101.35 1463.32,-97.64 1456.97,-97.33 1458.16,-101.35"/>
</g>
<!-- src/infrastructure/repository/MetadataRepository.ts&#45;&gt;src/domain/index.ts -->
<g id="edge31" class="edge">
<title>src/infrastructure/repository/MetadataRepository.ts&#45;&gt;src/domain/index.ts</title>
<path fill="none" stroke="#000000" stroke-width="2" stroke-opacity="0.200000" d="M1046.4,-212.83C1057.97,-227.6 1081.75,-255.53 1107.75,-272 1149.95,-298.73 1205.65,-315.56 1241.22,-324.38"/>
<polygon fill="#000000" fill-opacity="0.200000" stroke="#000000" stroke-width="2" stroke-opacity="0.200000" points="1240.54,-326.37 1246.87,-325.74 1241.52,-322.29 1240.54,-326.37"/>
</g>
<!-- src/infrastructure/repository/MetadataRepository.ts&#45;&gt;src/infrastructure/database/DatabaseConnection.ts -->
<g id="edge30" class="edge">
<title>src/infrastructure/repository/MetadataRepository.ts&#45;&gt;src/infrastructure/database/DatabaseConnection.ts</title>
<path fill="none" stroke="#000000" stroke-width="2" stroke-opacity="0.200000" d="M1092.13,-203C1096.9,-203 1101.76,-203 1106.62,-203"/>
<polygon fill="#000000" fill-opacity="0.200000" stroke="#000000" stroke-width="2" stroke-opacity="0.200000" points="1106.3,-205.1 1112.3,-203 1106.3,-200.9 1106.3,-205.1"/>
</g>
<!-- src/infrastructure/repository/VideoRepository.ts&#45;&gt;src/domain/index.ts -->
<g id="edge33" class="edge">
<title>src/infrastructure/repository/VideoRepository.ts&#45;&gt;src/domain/index.ts</title>
<path fill="none" stroke="#000000" stroke-width="2" stroke-opacity="0.200000" d="M1084.83,-176.9C1090.47,-179.23 1095.67,-182.49 1099.75,-187 1116.62,-205.65 1090.88,-224.35 1107.75,-243 1145.06,-284.25 1182.42,-242.98 1229.25,-273 1245.32,-283.3 1258.33,-301 1266.55,-314.33"/>
<polygon fill="#000000" fill-opacity="0.200000" stroke="#000000" stroke-width="2" stroke-opacity="0.200000" points="1264.65,-315.24 1269.5,-319.35 1268.27,-313.11 1264.65,-315.24"/>
</g>
<!-- src/infrastructure/repository/VideoRepository.ts&#45;&gt;src/infrastructure/database/DatabaseConnection.ts -->
<g id="edge32" class="edge">
<title>src/infrastructure/repository/VideoRepository.ts&#45;&gt;src/infrastructure/database/DatabaseConnection.ts</title>
<path fill="none" stroke="#000000" stroke-width="2" stroke-opacity="0.200000" d="M1082.02,-182.06C1094.05,-184.88 1107.26,-187.97 1119.74,-190.89"/>
<polygon fill="#000000" fill-opacity="0.200000" stroke="#000000" stroke-width="2" stroke-opacity="0.200000" points="1118.98,-192.87 1125.3,-192.19 1119.93,-188.78 1118.98,-192.87"/>
</g>
<!-- src/main.ts -->
<g id="node31" class="node">
<title>src/main.ts</title>
<g id="a_node31"><a xlink:href="src/main.ts" xlink:title="main.ts">
<path fill="#ddfeff" stroke="black" d="M63.58,-327.62C63.58,-327.62 22.42,-327.62 22.42,-327.62 19.21,-327.62 16,-324.42 16,-321.21 16,-321.21 16,-314.79 16,-314.79 16,-311.58 19.21,-308.38 22.42,-308.38 22.42,-308.38 63.58,-308.38 63.58,-308.38 66.79,-308.38 70,-311.58 70,-314.79 70,-314.79 70,-321.21 70,-321.21 70,-324.42 66.79,-327.62 63.58,-327.62"/>
<text text-anchor="start" x="27.62" y="-315.07" font-family="Helvetica,sans-Serif" font-size="9.00">main.ts</text>
</a>
</g>
</g>
<!-- src/main.ts&#45;&gt;src/App.vue -->
<g id="edge34" class="edge">
<title>src/main.ts&#45;&gt;src/App.vue</title>
<path fill="none" stroke="#000000" stroke-width="2" stroke-opacity="0.200000" d="M51.56,-308.27C67.88,-287.28 106.57,-237.5 127.08,-211.11"/>
<polygon fill="#000000" fill-opacity="0.200000" stroke="#000000" stroke-width="2" stroke-opacity="0.200000" points="128.7,-212.45 130.72,-206.42 125.38,-209.87 128.7,-212.45"/>
</g>
<!-- src/main.ts&#45;&gt;src/application/index.ts -->
<g id="edge36" class="edge">
<title>src/main.ts&#45;&gt;src/application/index.ts</title>
<path fill="none" stroke="#000000" stroke-width="2" stroke-opacity="0.200000" d="M70.5,-318C111.51,-318 192.84,-318 261.88,-318 261.88,-318 261.88,-318 391,-318 466.16,-318 500.51,-357.93 560,-312 597.52,-283.04 602.65,-221.81 602.68,-190.82"/>
<polygon fill="#000000" fill-opacity="0.200000" stroke="#000000" stroke-width="2" stroke-opacity="0.200000" points="604.78,-190.89 602.59,-184.92 600.58,-190.95 604.78,-190.89"/>
</g>
<!-- src/main.ts&#45;&gt;src/assets/main.css -->
<g id="edge35" class="edge">
<title>src/main.ts&#45;&gt;src/assets/main.css</title>
<path fill="none" stroke="#000000" stroke-width="2" stroke-opacity="0.200000" d="M69.11,-328.07C72.09,-329.12 75.1,-330.12 78,-331 86.69,-333.62 96.19,-335.99 105.09,-338.01"/>
<polygon fill="#000000" fill-opacity="0.200000" stroke="#000000" stroke-width="2" stroke-opacity="0.200000" points="104.48,-340.03 110.79,-339.26 105.38,-335.93 104.48,-340.03"/>
</g>
</g>
</svg>
