<?xml version="1.0" encoding="UTF-8" standalone="no"?>
<!DOCTYPE svg PUBLIC "-//W3C//DTD SVG 1.1//EN"
 "http://www.w3.org/Graphics/SVG/1.1/DTD/svg11.dtd">
<!-- Generated by graphviz version 9.0.0 (20230911.1827)
 -->
<!-- Title: dependency&#45;cruiser output Pages: 1 -->
<svg width="1584pt" height="435pt"
 viewBox="0.00 0.00 1584.25 435.00" xmlns="http://www.w3.org/2000/svg" xmlns:xlink="http://www.w3.org/1999/xlink">
<g id="graph0" class="graph" transform="scale(1 1) rotate(0) translate(4 431)">
<title>dependency&#45;cruiser output</title>
<polygon fill="white" stroke="none" points="-4,4 -4,-431 1580.25,-431 1580.25,4 -4,4"/>
<g id="clust1" class="cluster">
<title>cluster_src</title>
<path fill="#ffffff" stroke="black" stroke-width="2" d="M20,-8C20,-8 1556.25,-8 1556.25,-8 1562.25,-8 1568.25,-14 1568.25,-20 1568.25,-20 1568.25,-407 1568.25,-407 1568.25,-413 1562.25,-419 1556.25,-419 1556.25,-419 20,-419 20,-419 14,-419 8,-413 8,-407 8,-407 8,-20 8,-20 8,-14 14,-8 20,-8"/>
<text text-anchor="middle" x="788.12" y="-406.45" font-family="Helvetica,sans-Serif" font-weight="bold" font-size="9.00">src</text>
</g>
<g id="clust2" class="cluster">
<title>cluster_src/application</title>
<path fill="#ffffff" stroke="black" stroke-width="2" d="M580,-126C580,-126 886.25,-126 886.25,-126 892.25,-126 898.25,-132 898.25,-138 898.25,-138 898.25,-235 898.25,-235 898.25,-241 892.25,-247 886.25,-247 886.25,-247 580,-247 580,-247 574,-247 568,-241 568,-235 568,-235 568,-138 568,-138 568,-132 574,-126 580,-126"/>
<text text-anchor="middle" x="733.12" y="-234.45" font-family="Helvetica,sans-Serif" font-weight="bold" font-size="9.00">application</text>
</g>
<g id="clust3" class="cluster">
<title>cluster_src/application/services</title>
<path fill="#ffffff" stroke="black" stroke-width="2" d="M650,-134C650,-134 878.25,-134 878.25,-134 884.25,-134 890.25,-140 890.25,-146 890.25,-146 890.25,-208 890.25,-208 890.25,-214 884.25,-220 878.25,-220 878.25,-220 650,-220 650,-220 644,-220 638,-214 638,-208 638,-208 638,-146 638,-146 638,-140 644,-134 650,-134"/>
<text text-anchor="middle" x="764.12" y="-207.45" font-family="Helvetica,sans-Serif" font-weight="bold" font-size="9.00">services</text>
</g>
<g id="clust6" class="cluster">
<title>cluster_src/components</title>
<path fill="#ffffff" stroke="black" stroke-width="2" d="M333,-16C333,-16 548,-16 548,-16 554,-16 560,-22 560,-28 560,-28 560,-185 560,-185 560,-191 554,-197 548,-197 548,-197 333,-197 333,-197 327,-197 321,-191 321,-185 321,-185 321,-28 321,-28 321,-22 327,-16 333,-16"/>
<text text-anchor="middle" x="440.5" y="-184.45" font-family="Helvetica,sans-Serif" font-weight="bold" font-size="9.00">components</text>
</g>
<g id="clust8" class="cluster">
<title>cluster_src/components/utils</title>
<path fill="#ffffff" stroke="black" stroke-width="2" d="M341,-24C341,-24 439,-24 439,-24 445,-24 451,-30 451,-36 451,-36 451,-67 451,-67 451,-73 445,-79 439,-79 439,-79 341,-79 341,-79 335,-79 329,-73 329,-67 329,-67 329,-36 329,-36 329,-30 335,-24 341,-24"/>
<text text-anchor="middle" x="390" y="-66.45" font-family="Helvetica,sans-Serif" font-weight="bold" font-size="9.00">utils</text>
</g>
<g id="clust7" class="cluster">
<title>cluster_src/components/inputs</title>
<path fill="#ffffff" stroke="black" stroke-width="2" d="M347.75,-115C347.75,-115 432.25,-115 432.25,-115 438.25,-115 444.25,-121 444.25,-127 444.25,-127 444.25,-158 444.25,-158 444.25,-164 438.25,-170 432.25,-170 432.25,-170 347.75,-170 347.75,-170 341.75,-170 335.75,-164 335.75,-158 335.75,-158 335.75,-127 335.75,-127 335.75,-121 341.75,-115 347.75,-115"/>
<text text-anchor="middle" x="390" y="-157.45" font-family="Helvetica,sans-Serif" font-weight="bold" font-size="9.00">inputs</text>
</g>
<g id="clust4" class="cluster">
<title>cluster_src/assets</title>
<path fill="#ffffff" stroke="black" stroke-width="2" d="M90,-160C90,-160 192.75,-160 192.75,-160 198.75,-160 204.75,-166 204.75,-172 204.75,-172 204.75,-266 204.75,-266 204.75,-272 198.75,-278 192.75,-278 192.75,-278 90,-278 90,-278 84,-278 78,-272 78,-266 78,-266 78,-172 78,-172 78,-166 84,-160 90,-160"/>
<text text-anchor="middle" x="141.38" y="-265.45" font-family="Helvetica,sans-Serif" font-weight="bold" font-size="9.00">assets</text>
</g>
<g id="clust5" class="cluster">
<title>cluster_src/assets/effects</title>
<path fill="#ffffff" stroke="black" stroke-width="2" d="M98,-196C98,-196 184.75,-196 184.75,-196 190.75,-196 196.75,-202 196.75,-208 196.75,-208 196.75,-239 196.75,-239 196.75,-245 190.75,-251 184.75,-251 184.75,-251 98,-251 98,-251 92,-251 86,-245 86,-239 86,-239 86,-208 86,-208 86,-202 92,-196 98,-196"/>
<text text-anchor="middle" x="141.38" y="-238.45" font-family="Helvetica,sans-Serif" font-weight="bold" font-size="9.00">effects</text>
</g>
<g id="clust9" class="cluster">
<title>cluster_src/domain</title>
<path fill="#ffffff" stroke="black" stroke-width="2" d="M1149.5,-184C1149.5,-184 1446.25,-184 1446.25,-184 1452.25,-184 1458.25,-190 1458.25,-196 1458.25,-196 1458.25,-380 1458.25,-380 1458.25,-386 1452.25,-392 1446.25,-392 1446.25,-392 1149.5,-392 1149.5,-392 1143.5,-392 1137.5,-386 1137.5,-380 1137.5,-380 1137.5,-196 1137.5,-196 1137.5,-190 1143.5,-184 1149.5,-184"/>
<text text-anchor="middle" x="1297.88" y="-379.45" font-family="Helvetica,sans-Serif" font-weight="bold" font-size="9.00">domain</text>
</g>
<g id="clust10" class="cluster">
<title>cluster_src/domain/constants</title>
<path fill="#ffffff" stroke="black" stroke-width="2" d="M1277.12,-192C1277.12,-192 1323.12,-192 1323.12,-192 1329.12,-192 1335.12,-198 1335.12,-204 1335.12,-204 1335.12,-235 1335.12,-235 1335.12,-241 1329.12,-247 1323.12,-247 1323.12,-247 1277.12,-247 1277.12,-247 1271.12,-247 1265.12,-241 1265.12,-235 1265.12,-235 1265.12,-204 1265.12,-204 1265.12,-198 1271.12,-192 1277.12,-192"/>
<text text-anchor="middle" x="1300.12" y="-234.45" font-family="Helvetica,sans-Serif" font-weight="bold" font-size="9.00">constants</text>
</g>
<g id="clust11" class="cluster">
<title>cluster_src/domain/entities</title>
<path fill="#ffffff" stroke="black" stroke-width="2" d="M1383,-267C1383,-267 1438.25,-267 1438.25,-267 1444.25,-267 1450.25,-273 1450.25,-279 1450.25,-279 1450.25,-341 1450.25,-341 1450.25,-347 1444.25,-353 1438.25,-353 1438.25,-353 1383,-353 1383,-353 1377,-353 1371,-347 1371,-341 1371,-341 1371,-279 1371,-279 1371,-273 1377,-267 1383,-267"/>
<text text-anchor="middle" x="1410.62" y="-340.45" font-family="Helvetica,sans-Serif" font-weight="bold" font-size="9.00">entities</text>
</g>
<g id="clust12" class="cluster">
<title>cluster_src/domain/repositories</title>
<path fill="#ffffff" stroke="black" stroke-width="2" d="M1249.25,-255C1249.25,-255 1351,-255 1351,-255 1357,-255 1363,-261 1363,-267 1363,-267 1363,-329 1363,-329 1363,-335 1357,-341 1351,-341 1351,-341 1249.25,-341 1249.25,-341 1243.25,-341 1237.25,-335 1237.25,-329 1237.25,-329 1237.25,-267 1237.25,-267 1237.25,-261 1243.25,-255 1249.25,-255"/>
<text text-anchor="middle" x="1300.12" y="-328.45" font-family="Helvetica,sans-Serif" font-weight="bold" font-size="9.00">repositories</text>
</g>
<g id="clust13" class="cluster">
<title>cluster_src/infrastructure</title>
<path fill="#ffffff" stroke="black" stroke-width="2" d="M918.25,-16C918.25,-16 1548.25,-16 1548.25,-16 1554.25,-16 1560.25,-22 1560.25,-28 1560.25,-28 1560.25,-164 1560.25,-164 1560.25,-170 1554.25,-176 1548.25,-176 1548.25,-176 918.25,-176 918.25,-176 912.25,-176 906.25,-170 906.25,-164 906.25,-164 906.25,-28 906.25,-28 906.25,-22 912.25,-16 918.25,-16"/>
<text text-anchor="middle" x="1233.25" y="-163.45" font-family="Helvetica,sans-Serif" font-weight="bold" font-size="9.00">infrastructure</text>
</g>
<g id="clust14" class="cluster">
<title>cluster_src/infrastructure/database</title>
<path fill="#ffffff" stroke="black" stroke-width="2" d="M1119.75,-24C1119.75,-24 1540.25,-24 1540.25,-24 1546.25,-24 1552.25,-30 1552.25,-36 1552.25,-36 1552.25,-137 1552.25,-137 1552.25,-143 1546.25,-149 1540.25,-149 1540.25,-149 1119.75,-149 1119.75,-149 1113.75,-149 1107.75,-143 1107.75,-137 1107.75,-137 1107.75,-36 1107.75,-36 1107.75,-30 1113.75,-24 1119.75,-24"/>
<text text-anchor="middle" x="1330" y="-136.45" font-family="Helvetica,sans-Serif" font-weight="bold" font-size="9.00">database</text>
</g>
<g id="clust15" class="cluster">
<title>cluster_src/infrastructure/database/migrations</title>
<path fill="#ffffff" stroke="black" stroke-width="2" d="M1277.12,-32C1277.12,-32 1532.25,-32 1532.25,-32 1538.25,-32 1544.25,-38 1544.25,-44 1544.25,-44 1544.25,-110 1544.25,-110 1544.25,-116 1538.25,-122 1532.25,-122 1532.25,-122 1277.12,-122 1277.12,-122 1271.12,-122 1265.12,-116 1265.12,-110 1265.12,-110 1265.12,-44 1265.12,-44 1265.12,-38 1271.12,-32 1277.12,-32"/>
<text text-anchor="middle" x="1404.69" y="-109.45" font-family="Helvetica,sans-Serif" font-weight="bold" font-size="9.00">migrations</text>
</g>
<g id="clust16" class="cluster">
<title>cluster_src/infrastructure/database/migrations/utils</title>
<path fill="#ffffff" stroke="black" stroke-width="2" d="M1478.25,-40C1478.25,-40 1524.25,-40 1524.25,-40 1530.25,-40 1536.25,-46 1536.25,-52 1536.25,-52 1536.25,-83 1536.25,-83 1536.25,-89 1530.25,-95 1524.25,-95 1524.25,-95 1478.25,-95 1478.25,-95 1472.25,-95 1466.25,-89 1466.25,-83 1466.25,-83 1466.25,-52 1466.25,-52 1466.25,-46 1472.25,-40 1478.25,-40"/>
<text text-anchor="middle" x="1501.25" y="-82.45" font-family="Helvetica,sans-Serif" font-weight="bold" font-size="9.00">utils</text>
</g>
<g id="clust17" class="cluster">
<title>cluster_src/infrastructure/repository</title>
<path fill="#ffffff" stroke="black" stroke-width="2" d="M988.25,-63C988.25,-63 1087.75,-63 1087.75,-63 1093.75,-63 1099.75,-69 1099.75,-75 1099.75,-75 1099.75,-137 1099.75,-137 1099.75,-143 1093.75,-149 1087.75,-149 1087.75,-149 988.25,-149 988.25,-149 982.25,-149 976.25,-143 976.25,-137 976.25,-137 976.25,-75 976.25,-75 976.25,-69 982.25,-63 988.25,-63"/>
<text text-anchor="middle" x="1038" y="-136.45" font-family="Helvetica,sans-Serif" font-weight="bold" font-size="9.00">repository</text>
</g>
<g id="clust19" class="cluster">
<title>cluster_src/views</title>
<path fill="#ffffff" stroke="black" stroke-width="2" d="M224.75,-124C224.75,-124 301,-124 301,-124 307,-124 313,-130 313,-136 313,-136 313,-198 313,-198 313,-204 307,-210 301,-210 301,-210 224.75,-210 224.75,-210 218.75,-210 212.75,-204 212.75,-198 212.75,-198 212.75,-136 212.75,-136 212.75,-130 218.75,-124 224.75,-124"/>
<text text-anchor="middle" x="262.88" y="-197.45" font-family="Helvetica,sans-Serif" font-weight="bold" font-size="9.00">views</text>
</g>
<g id="clust18" class="cluster">
<title>cluster_src/stores</title>
<path fill="#ffffff" stroke="black" stroke-width="2" d="M471,-205C471,-205 547.25,-205 547.25,-205 553.25,-205 559.25,-211 559.25,-217 559.25,-217 559.25,-279 559.25,-279 559.25,-285 553.25,-291 547.25,-291 547.25,-291 471,-291 471,-291 465,-291 459,-285 459,-279 459,-279 459,-217 459,-217 459,-211 465,-205 471,-205"/>
<text text-anchor="middle" x="509.12" y="-278.45" font-family="Helvetica,sans-Serif" font-weight="bold" font-size="9.00">stores</text>
</g>
<!-- src/App.vue -->
<g id="node1" class="node">
<title>src/App.vue</title>
<g id="a_node1"><a xlink:href="src/App.vue" xlink:title="App.vue">
<path fill="#41f083" stroke="black" d="M161.96,-151.62C161.96,-151.62 120.79,-151.62 120.79,-151.62 117.58,-151.62 114.38,-148.42 114.38,-145.21 114.38,-145.21 114.38,-138.79 114.38,-138.79 114.38,-135.58 117.58,-132.38 120.79,-132.38 120.79,-132.38 161.96,-132.38 161.96,-132.38 165.17,-132.38 168.38,-135.58 168.38,-138.79 168.38,-138.79 168.38,-145.21 168.38,-145.21 168.38,-148.42 165.17,-151.62 161.96,-151.62"/>
<text text-anchor="start" x="125.25" y="-139.07" font-family="Helvetica,sans-Serif" font-size="9.00">App.vue</text>
</a>
</g>
</g>
<!-- src/components/utils/DiagnosticsPanel.vue -->
<g id="node2" class="node">
<title>src/components/utils/DiagnosticsPanel.vue</title>
<g id="a_node2"><a xlink:href="src/components/utils/DiagnosticsPanel.vue" xlink:title="DiagnosticsPanel.vue">
<path fill="#41f083" stroke="black" d="M436.58,-51.62C436.58,-51.62 343.42,-51.62 343.42,-51.62 340.21,-51.62 337,-48.42 337,-45.21 337,-45.21 337,-38.79 337,-38.79 337,-35.58 340.21,-32.38 343.42,-32.38 343.42,-32.38 436.58,-32.38 436.58,-32.38 439.79,-32.38 443,-35.58 443,-38.79 443,-38.79 443,-45.21 443,-45.21 443,-48.42 439.79,-51.62 436.58,-51.62"/>
<text text-anchor="start" x="345" y="-39.08" font-family="Helvetica,sans-Serif" font-size="9.00">DiagnosticsPanel.vue</text>
</a>
</g>
</g>
<!-- src/App.vue&#45;&gt;src/components/utils/DiagnosticsPanel.vue -->
<g id="edge1" class="edge">
<title>src/App.vue&#45;&gt;src/components/utils/DiagnosticsPanel.vue</title>
<path fill="none" stroke="#000000" stroke-width="2" stroke-opacity="0.200000" d="M159.52,-131.97C190.66,-114.17 259.05,-76.94 321,-56 323.36,-55.2 325.77,-54.45 328.23,-53.72"/>
<polygon fill="#000000" fill-opacity="0.200000" stroke="#000000" stroke-width="2" stroke-opacity="0.200000" points="328.52,-55.82 333.75,-52.21 327.41,-51.77 328.52,-55.82"/>
</g>
<!-- src/views/NavBar.vue -->
<g id="node3" class="node">
<title>src/views/NavBar.vue</title>
<g id="a_node3"><a xlink:href="src/views/NavBar.vue" xlink:title="NavBar.vue">
<path fill="#41f083" stroke="black" d="M287.71,-182.62C287.71,-182.62 238.04,-182.62 238.04,-182.62 234.83,-182.62 231.62,-179.42 231.62,-176.21 231.62,-176.21 231.62,-169.79 231.62,-169.79 231.62,-166.58 234.83,-163.38 238.04,-163.38 238.04,-163.38 287.71,-163.38 287.71,-163.38 290.92,-163.38 294.12,-166.58 294.12,-169.79 294.12,-169.79 294.12,-176.21 294.12,-176.21 294.12,-179.42 290.92,-182.62 287.71,-182.62"/>
<text text-anchor="start" x="239.62" y="-170.07" font-family="Helvetica,sans-Serif" font-size="9.00">NavBar.vue</text>
</a>
</g>
</g>
<!-- src/App.vue&#45;&gt;src/views/NavBar.vue -->
<g id="edge2" class="edge">
<title>src/App.vue&#45;&gt;src/views/NavBar.vue</title>
<path fill="none" stroke="#000000" stroke-width="2" stroke-opacity="0.200000" d="M168.83,-148.13C179.95,-150.77 193,-153.94 204.75,-157 210.58,-158.52 216.72,-160.17 222.73,-161.83"/>
<polygon fill="#000000" fill-opacity="0.200000" stroke="#000000" stroke-width="2" stroke-opacity="0.200000" points="222.14,-163.84 228.48,-163.43 223.26,-159.8 222.14,-163.84"/>
</g>
<!-- src/views/VideoGallery.vue -->
<g id="node4" class="node">
<title>src/views/VideoGallery.vue</title>
<g id="a_node4"><a xlink:href="src/views/VideoGallery.vue" xlink:title="VideoGallery.vue">
<path fill="#41f083" stroke="black" d="M298.58,-151.62C298.58,-151.62 227.17,-151.62 227.17,-151.62 223.96,-151.62 220.75,-148.42 220.75,-145.21 220.75,-145.21 220.75,-138.79 220.75,-138.79 220.75,-135.58 223.96,-132.38 227.17,-132.38 227.17,-132.38 298.58,-132.38 298.58,-132.38 301.79,-132.38 305,-135.58 305,-138.79 305,-138.79 305,-145.21 305,-145.21 305,-148.42 301.79,-151.62 298.58,-151.62"/>
<text text-anchor="start" x="228.75" y="-139.07" font-family="Helvetica,sans-Serif" font-size="9.00">VideoGallery.vue</text>
</a>
</g>
</g>
<!-- src/App.vue&#45;&gt;src/views/VideoGallery.vue -->
<g id="edge3" class="edge">
<title>src/App.vue&#45;&gt;src/views/VideoGallery.vue</title>
<path fill="none" stroke="#000000" stroke-width="2" stroke-opacity="0.200000" d="M168.6,-142C181.35,-142 197.11,-142 212.03,-142"/>
<polygon fill="#000000" fill-opacity="0.200000" stroke="#000000" stroke-width="2" stroke-opacity="0.200000" points="211.65,-144.1 217.65,-142 211.65,-139.9 211.65,-144.1"/>
</g>
<!-- src/stores/appStateStore.ts -->
<g id="node16" class="node">
<title>src/stores/appStateStore.ts</title>
<g id="a_node16"><a xlink:href="src/stores/appStateStore.ts" xlink:title="appStateStore.ts">
<path fill="#ddfeff" stroke="black" d="M544.83,-232.62C544.83,-232.62 473.42,-232.62 473.42,-232.62 470.21,-232.62 467,-229.42 467,-226.21 467,-226.21 467,-219.79 467,-219.79 467,-216.58 470.21,-213.38 473.42,-213.38 473.42,-213.38 544.83,-213.38 544.83,-213.38 548.04,-213.38 551.25,-216.58 551.25,-219.79 551.25,-219.79 551.25,-226.21 551.25,-226.21 551.25,-229.42 548.04,-232.62 544.83,-232.62"/>
<text text-anchor="start" x="475" y="-220.07" font-family="Helvetica,sans-Serif" font-size="9.00">appStateStore.ts</text>
</a>
</g>
</g>
<!-- src/components/utils/DiagnosticsPanel.vue&#45;&gt;src/stores/appStateStore.ts -->
<g id="edge12" class="edge">
<title>src/components/utils/DiagnosticsPanel.vue&#45;&gt;src/stores/appStateStore.ts</title>
<path fill="none" stroke="#000000" stroke-width="2" stroke-opacity="0.200000" d="M443.37,-49.38C446.21,-51.19 448.8,-53.38 451,-56 471.61,-80.54 441.06,-173.44 459,-200 461.14,-203.16 463.82,-205.9 466.84,-208.26"/>
<polygon fill="#000000" fill-opacity="0.200000" stroke="#000000" stroke-width="2" stroke-opacity="0.200000" points="465.64,-209.99 471.82,-211.49 467.93,-206.47 465.64,-209.99"/>
</g>
<!-- src/stores/videosStore.ts -->
<g id="node14" class="node">
<title>src/stores/videosStore.ts</title>
<g id="a_node14"><a xlink:href="src/stores/videosStore.ts" xlink:title="videosStore.ts">
<path fill="#ddfeff" stroke="black" d="M539.96,-263.62C539.96,-263.62 478.29,-263.62 478.29,-263.62 475.08,-263.62 471.88,-260.42 471.88,-257.21 471.88,-257.21 471.88,-250.79 471.88,-250.79 471.88,-247.58 475.08,-244.38 478.29,-244.38 478.29,-244.38 539.96,-244.38 539.96,-244.38 543.17,-244.38 546.38,-247.58 546.38,-250.79 546.38,-250.79 546.38,-257.21 546.38,-257.21 546.38,-260.42 543.17,-263.62 539.96,-263.62"/>
<text text-anchor="start" x="479.88" y="-251.07" font-family="Helvetica,sans-Serif" font-size="9.00">videosStore.ts</text>
</a>
</g>
</g>
<!-- src/views/NavBar.vue&#45;&gt;src/stores/videosStore.ts -->
<g id="edge36" class="edge">
<title>src/views/NavBar.vue&#45;&gt;src/stores/videosStore.ts</title>
<path fill="none" stroke="#000000" stroke-width="2" stroke-opacity="0.200000" d="M269.32,-183.06C278.02,-198.02 296.59,-225.68 321,-238 365.38,-260.41 423.27,-261.8 462.84,-259.26"/>
<polygon fill="#000000" fill-opacity="0.200000" stroke="#000000" stroke-width="2" stroke-opacity="0.200000" points="462.64,-261.38 468.47,-258.85 462.33,-257.19 462.64,-261.38"/>
</g>
<!-- src/components/inputs/FolderSelector.vue -->
<g id="node15" class="node">
<title>src/components/inputs/FolderSelector.vue</title>
<g id="a_node15"><a xlink:href="src/components/inputs/FolderSelector.vue" xlink:title="FolderSelector.vue">
<path fill="#41f083" stroke="black" d="M429.83,-142.62C429.83,-142.62 350.17,-142.62 350.17,-142.62 346.96,-142.62 343.75,-139.42 343.75,-136.21 343.75,-136.21 343.75,-129.79 343.75,-129.79 343.75,-126.58 346.96,-123.38 350.17,-123.38 350.17,-123.38 429.83,-123.38 429.83,-123.38 433.04,-123.38 436.25,-126.58 436.25,-129.79 436.25,-129.79 436.25,-136.21 436.25,-136.21 436.25,-139.42 433.04,-142.62 429.83,-142.62"/>
<text text-anchor="start" x="351.75" y="-130.07" font-family="Helvetica,sans-Serif" font-size="9.00">FolderSelector.vue</text>
</a>
</g>
</g>
<!-- src/views/NavBar.vue&#45;&gt;src/components/inputs/FolderSelector.vue -->
<g id="edge34" class="edge">
<title>src/views/NavBar.vue&#45;&gt;src/components/inputs/FolderSelector.vue</title>
<path fill="none" stroke="#000000" stroke-width="2" stroke-opacity="0.200000" d="M294.57,-163.74C300.68,-161.86 307.05,-159.89 313,-158 325.15,-154.15 338.35,-149.85 350.29,-145.91"/>
<polygon fill="#000000" fill-opacity="0.200000" stroke="#000000" stroke-width="2" stroke-opacity="0.200000" points="350.81,-147.95 355.85,-144.07 349.49,-143.96 350.81,-147.95"/>
</g>
<!-- src/views/NavBar.vue&#45;&gt;src/stores/appStateStore.ts -->
<g id="edge35" class="edge">
<title>src/views/NavBar.vue&#45;&gt;src/stores/appStateStore.ts</title>
<path fill="none" stroke="#000000" stroke-width="2" stroke-opacity="0.200000" d="M294.32,-179.23C335.33,-187.63 408.87,-202.68 458.08,-212.76"/>
<polygon fill="#000000" fill-opacity="0.200000" stroke="#000000" stroke-width="2" stroke-opacity="0.200000" points="457.4,-214.76 463.7,-213.91 458.25,-210.65 457.4,-214.76"/>
</g>
<!-- src/components/VideoCard.vue -->
<g id="node12" class="node">
<title>src/components/VideoCard.vue</title>
<g id="a_node12"><a xlink:href="src/components/VideoCard.vue" xlink:title="VideoCard.vue">
<path fill="#41f083" stroke="black" d="M421.58,-106.62C421.58,-106.62 358.42,-106.62 358.42,-106.62 355.21,-106.62 352,-103.42 352,-100.21 352,-100.21 352,-93.79 352,-93.79 352,-90.58 355.21,-87.38 358.42,-87.38 358.42,-87.38 421.58,-87.38 421.58,-87.38 424.79,-87.38 428,-90.58 428,-93.79 428,-93.79 428,-100.21 428,-100.21 428,-103.42 424.79,-106.62 421.58,-106.62"/>
<text text-anchor="start" x="360" y="-94.08" font-family="Helvetica,sans-Serif" font-size="9.00">VideoCard.vue</text>
</a>
</g>
</g>
<!-- src/views/VideoGallery.vue&#45;&gt;src/components/VideoCard.vue -->
<g id="edge37" class="edge">
<title>src/views/VideoGallery.vue&#45;&gt;src/components/VideoCard.vue</title>
<path fill="none" stroke="#000000" stroke-width="2" stroke-opacity="0.200000" d="M305.39,-133.02C308.11,-131.59 310.68,-129.92 313,-128 319.12,-122.92 314.73,-116.89 321,-112 327.44,-106.98 335.22,-103.56 343.18,-101.25"/>
<polygon fill="#000000" fill-opacity="0.200000" stroke="#000000" stroke-width="2" stroke-opacity="0.200000" points="343.55,-103.32 348.89,-99.87 342.57,-99.24 343.55,-103.32"/>
</g>
<!-- src/views/VideoGallery.vue&#45;&gt;src/stores/videosStore.ts -->
<g id="edge38" class="edge">
<title>src/views/VideoGallery.vue&#45;&gt;src/stores/videosStore.ts</title>
<path fill="none" stroke="#000000" stroke-width="2" stroke-opacity="0.200000" d="M305.41,-151.86C308.12,-153.34 310.68,-155.04 313,-157 319.07,-162.13 315.33,-167.43 321,-173 369.49,-220.65 395.64,-214.34 459,-239 460.79,-239.7 462.63,-240.38 464.49,-241.05"/>
<polygon fill="#000000" fill-opacity="0.200000" stroke="#000000" stroke-width="2" stroke-opacity="0.200000" points="463.53,-242.95 469.89,-242.91 464.9,-238.97 463.53,-242.95"/>
</g>
<!-- src/application/index.ts -->
<g id="node5" class="node">
<title>src/application/index.ts</title>
<g id="a_node5"><a xlink:href="src/application/index.ts" xlink:title="index.ts">
<path fill="#ddfeff" stroke="black" d="M623.58,-203.62C623.58,-203.62 582.42,-203.62 582.42,-203.62 579.21,-203.62 576,-200.42 576,-197.21 576,-197.21 576,-190.79 576,-190.79 576,-187.58 579.21,-184.38 582.42,-184.38 582.42,-184.38 623.58,-184.38 623.58,-184.38 626.79,-184.38 630,-187.58 630,-190.79 630,-190.79 630,-197.21 630,-197.21 630,-200.42 626.79,-203.62 623.58,-203.62"/>
<text text-anchor="start" x="587.25" y="-191.07" font-family="Helvetica,sans-Serif" font-size="9.00">index.ts</text>
</a>
</g>
</g>
<!-- src/application/services/FiltersService.ts -->
<g id="node6" class="node">
<title>src/application/services/FiltersService.ts</title>
<g id="a_node6"><a xlink:href="src/application/services/FiltersService.ts" xlink:title="FiltersService.ts">
<path fill="#ddfeff" stroke="black" d="M733.58,-161.62C733.58,-161.62 665.17,-161.62 665.17,-161.62 661.96,-161.62 658.75,-158.42 658.75,-155.21 658.75,-155.21 658.75,-148.79 658.75,-148.79 658.75,-145.58 661.96,-142.38 665.17,-142.38 665.17,-142.38 733.58,-142.38 733.58,-142.38 736.79,-142.38 740,-145.58 740,-148.79 740,-148.79 740,-155.21 740,-155.21 740,-158.42 736.79,-161.62 733.58,-161.62"/>
<text text-anchor="start" x="666.75" y="-149.07" font-family="Helvetica,sans-Serif" font-size="9.00">FiltersService.ts</text>
</a>
</g>
</g>
<!-- src/application/index.ts&#45;&gt;src/application/services/FiltersService.ts -->
<g id="edge4" class="edge">
<title>src/application/index.ts&#45;&gt;src/application/services/FiltersService.ts</title>
<path fill="none" stroke="#000000" stroke-width="2" stroke-opacity="0.200000" d="M614.21,-183.96C620.58,-178.22 629.21,-171.33 638,-167 641.8,-165.13 645.85,-163.48 649.98,-162.03"/>
<polygon fill="#000000" fill-opacity="0.200000" stroke="#000000" stroke-width="2" stroke-opacity="0.200000" points="650.57,-164.05 655.65,-160.24 649.3,-160.05 650.57,-164.05"/>
</g>
<!-- src/application/services/VideoMetadataService.ts -->
<g id="node7" class="node">
<title>src/application/services/VideoMetadataService.ts</title>
<g id="a_node7"><a xlink:href="src/application/services/VideoMetadataService.ts" xlink:title="VideoMetadataService.ts">
<path fill="#ddfeff" stroke="black" d="M875.83,-192.62C875.83,-192.62 772.17,-192.62 772.17,-192.62 768.96,-192.62 765.75,-189.42 765.75,-186.21 765.75,-186.21 765.75,-179.79 765.75,-179.79 765.75,-176.58 768.96,-173.38 772.17,-173.38 772.17,-173.38 875.83,-173.38 875.83,-173.38 879.04,-173.38 882.25,-176.58 882.25,-179.79 882.25,-179.79 882.25,-186.21 882.25,-186.21 882.25,-189.42 879.04,-192.62 875.83,-192.62"/>
<text text-anchor="start" x="773.75" y="-180.07" font-family="Helvetica,sans-Serif" font-size="9.00">VideoMetadataService.ts</text>
</a>
</g>
</g>
<!-- src/application/index.ts&#45;&gt;src/application/services/VideoMetadataService.ts -->
<g id="edge5" class="edge">
<title>src/application/index.ts&#45;&gt;src/application/services/VideoMetadataService.ts</title>
<path fill="none" stroke="#000000" stroke-width="2" stroke-opacity="0.200000" d="M630.32,-198.26C632.91,-198.56 635.5,-198.82 638,-199 688.86,-202.72 702.07,-204.7 752.75,-199 760.69,-198.11 769.05,-196.66 777.11,-195"/>
<polygon fill="#000000" fill-opacity="0.200000" stroke="#000000" stroke-width="2" stroke-opacity="0.200000" points="777.34,-197.1 782.76,-193.77 776.45,-192.99 777.34,-197.1"/>
</g>
<!-- src/application/services/VideoParserService.ts -->
<g id="node8" class="node">
<title>src/application/services/VideoParserService.ts</title>
<g id="a_node8"><a xlink:href="src/application/services/VideoParserService.ts" xlink:title="VideoParserService.ts">
<path fill="#ddfeff" stroke="black" d="M746.33,-192.62C746.33,-192.62 652.42,-192.62 652.42,-192.62 649.21,-192.62 646,-189.42 646,-186.21 646,-186.21 646,-179.79 646,-179.79 646,-176.58 649.21,-173.38 652.42,-173.38 652.42,-173.38 746.33,-173.38 746.33,-173.38 749.54,-173.38 752.75,-176.58 752.75,-179.79 752.75,-179.79 752.75,-186.21 752.75,-186.21 752.75,-189.42 749.54,-192.62 746.33,-192.62"/>
<text text-anchor="start" x="654" y="-180.07" font-family="Helvetica,sans-Serif" font-size="9.00">VideoParserService.ts</text>
</a>
</g>
</g>
<!-- src/application/index.ts&#45;&gt;src/application/services/VideoParserService.ts -->
<g id="edge6" class="edge">
<title>src/application/index.ts&#45;&gt;src/application/services/VideoParserService.ts</title>
<path fill="none" stroke="#000000" stroke-width="2" stroke-opacity="0.200000" d="M630.29,-190.94C632.39,-190.69 634.56,-190.44 636.77,-190.18"/>
<polygon fill="#000000" fill-opacity="0.200000" stroke="#000000" stroke-width="2" stroke-opacity="0.200000" points="636.78,-192.29 642.5,-189.51 636.3,-188.12 636.78,-192.29"/>
</g>
<!-- src/infrastructure/index.ts -->
<g id="node9" class="node">
<title>src/infrastructure/index.ts</title>
<g id="a_node9"><a xlink:href="src/infrastructure/index.ts" xlink:title="index.ts">
<path fill="#ddfeff" stroke="black" d="M961.83,-121.62C961.83,-121.62 920.67,-121.62 920.67,-121.62 917.46,-121.62 914.25,-118.42 914.25,-115.21 914.25,-115.21 914.25,-108.79 914.25,-108.79 914.25,-105.58 917.46,-102.38 920.67,-102.38 920.67,-102.38 961.83,-102.38 961.83,-102.38 965.04,-102.38 968.25,-105.58 968.25,-108.79 968.25,-108.79 968.25,-115.21 968.25,-115.21 968.25,-118.42 965.04,-121.62 961.83,-121.62"/>
<text text-anchor="start" x="925.5" y="-109.08" font-family="Helvetica,sans-Serif" font-size="9.00">index.ts</text>
</a>
</g>
</g>
<!-- src/application/services/VideoMetadataService.ts&#45;&gt;src/infrastructure/index.ts -->
<g id="edge7" class="edge">
<title>src/application/services/VideoMetadataService.ts&#45;&gt;src/infrastructure/index.ts</title>
<path fill="none" stroke="#000000" stroke-width="2" stroke-opacity="0.200000" d="M841.03,-173.13C860.61,-161.06 893.93,-140.54 916.49,-126.63"/>
<polygon fill="#000000" fill-opacity="0.200000" stroke="#000000" stroke-width="2" stroke-opacity="0.200000" points="917.41,-128.54 921.41,-123.61 915.2,-124.96 917.41,-128.54"/>
</g>
<!-- src/application/services/VideoParserService.ts&#45;&gt;src/application/services/VideoMetadataService.ts -->
<g id="edge8" class="edge">
<title>src/application/services/VideoParserService.ts&#45;&gt;src/application/services/VideoMetadataService.ts</title>
<path fill="none" stroke="#000000" stroke-width="2" stroke-opacity="0.200000" d="M753.09,-183C754.39,-183 755.69,-183 757,-183"/>
<polygon fill="#000000" fill-opacity="0.200000" stroke="#000000" stroke-width="2" stroke-opacity="0.200000" points="756.61,-185.1 762.61,-183 756.61,-180.9 756.61,-185.1"/>
</g>
<!-- src/infrastructure/repository/MetadataRepository.ts -->
<g id="node28" class="node">
<title>src/infrastructure/repository/MetadataRepository.ts</title>
<g id="a_node28"><a xlink:href="src/infrastructure/repository/MetadataRepository.ts" xlink:title="MetadataRepository.ts">
<path fill="#ddfeff" stroke="black" d="M1085.33,-121.62C1085.33,-121.62 990.67,-121.62 990.67,-121.62 987.46,-121.62 984.25,-118.42 984.25,-115.21 984.25,-115.21 984.25,-108.79 984.25,-108.79 984.25,-105.58 987.46,-102.38 990.67,-102.38 990.67,-102.38 1085.33,-102.38 1085.33,-102.38 1088.54,-102.38 1091.75,-105.58 1091.75,-108.79 1091.75,-108.79 1091.75,-115.21 1091.75,-115.21 1091.75,-118.42 1088.54,-121.62 1085.33,-121.62"/>
<text text-anchor="start" x="992.25" y="-109.08" font-family="Helvetica,sans-Serif" font-size="9.00">MetadataRepository.ts</text>
</a>
</g>
</g>
<!-- src/infrastructure/index.ts&#45;&gt;src/infrastructure/repository/MetadataRepository.ts -->
<g id="edge25" class="edge">
<title>src/infrastructure/index.ts&#45;&gt;src/infrastructure/repository/MetadataRepository.ts</title>
<path fill="none" stroke="#000000" stroke-width="2" stroke-opacity="0.200000" d="M968.64,-112C970.75,-112 972.93,-112 975.15,-112"/>
<polygon fill="#000000" fill-opacity="0.200000" stroke="#000000" stroke-width="2" stroke-opacity="0.200000" points="974.89,-114.1 980.89,-112 974.89,-109.9 974.89,-114.1"/>
</g>
<!-- src/infrastructure/repository/VideoRepository.ts -->
<g id="node29" class="node">
<title>src/infrastructure/repository/VideoRepository.ts</title>
<g id="a_node29"><a xlink:href="src/infrastructure/repository/VideoRepository.ts" xlink:title="VideoRepository.ts">
<path fill="#ddfeff" stroke="black" d="M1078.21,-90.62C1078.21,-90.62 997.79,-90.62 997.79,-90.62 994.58,-90.62 991.38,-87.42 991.38,-84.21 991.38,-84.21 991.38,-77.79 991.38,-77.79 991.38,-74.58 994.58,-71.38 997.79,-71.38 997.79,-71.38 1078.21,-71.38 1078.21,-71.38 1081.42,-71.38 1084.62,-74.58 1084.62,-77.79 1084.62,-77.79 1084.62,-84.21 1084.62,-84.21 1084.62,-87.42 1081.42,-90.62 1078.21,-90.62"/>
<text text-anchor="start" x="999.38" y="-78.08" font-family="Helvetica,sans-Serif" font-size="9.00">VideoRepository.ts</text>
</a>
</g>
</g>
<!-- src/infrastructure/index.ts&#45;&gt;src/infrastructure/repository/VideoRepository.ts -->
<g id="edge26" class="edge">
<title>src/infrastructure/index.ts&#45;&gt;src/infrastructure/repository/VideoRepository.ts</title>
<path fill="none" stroke="#000000" stroke-width="2" stroke-opacity="0.200000" d="M961.75,-102.02C966.42,-99.85 971.45,-97.7 976.25,-96 978.6,-95.17 981.02,-94.36 983.48,-93.59"/>
<polygon fill="#000000" fill-opacity="0.200000" stroke="#000000" stroke-width="2" stroke-opacity="0.200000" points="983.86,-95.66 989.01,-91.93 982.66,-91.64 983.86,-95.66"/>
</g>
<!-- src/assets/effects/FadeTransition.vue -->
<g id="node10" class="node">
<title>src/assets/effects/FadeTransition.vue</title>
<g id="a_node10"><a xlink:href="src/assets/effects/FadeTransition.vue" xlink:title="no&#45;orphans">
<path fill="#ccffcc" stroke="orange" d="M182.33,-223.62C182.33,-223.62 100.42,-223.62 100.42,-223.62 97.21,-223.62 94,-220.42 94,-217.21 94,-217.21 94,-210.79 94,-210.79 94,-207.58 97.21,-204.38 100.42,-204.38 100.42,-204.38 182.33,-204.38 182.33,-204.38 185.54,-204.38 188.75,-207.58 188.75,-210.79 188.75,-210.79 188.75,-217.21 188.75,-217.21 188.75,-220.42 185.54,-223.62 182.33,-223.62"/>
<text text-anchor="start" x="102" y="-211.07" font-family="Helvetica,sans-Serif" font-size="9.00" fill="orange">FadeTransition.vue</text>
</a>
</g>
</g>
<!-- src/assets/main.css -->
<g id="node11" class="node">
<title>src/assets/main.css</title>
<g id="a_node11"><a xlink:href="src/assets/main.css" xlink:title="main.css">
<path fill="#ffffcc" stroke="black" d="M162.08,-187.62C162.08,-187.62 120.67,-187.62 120.67,-187.62 117.46,-187.62 114.25,-184.42 114.25,-181.21 114.25,-181.21 114.25,-174.79 114.25,-174.79 114.25,-171.58 117.46,-168.38 120.67,-168.38 120.67,-168.38 162.08,-168.38 162.08,-168.38 165.29,-168.38 168.5,-171.58 168.5,-174.79 168.5,-174.79 168.5,-181.21 168.5,-181.21 168.5,-184.42 165.29,-187.62 162.08,-187.62"/>
<text text-anchor="start" x="122.25" y="-175.07" font-family="Helvetica,sans-Serif" font-size="9.00">main.css</text>
</a>
</g>
</g>
<!-- src/components/VideoEmbed.vue -->
<g id="node13" class="node">
<title>src/components/VideoEmbed.vue</title>
<g id="a_node13"><a xlink:href="src/components/VideoEmbed.vue" xlink:title="VideoEmbed.vue">
<path fill="#41f083" stroke="black" d="M545.58,-106.62C545.58,-106.62 472.67,-106.62 472.67,-106.62 469.46,-106.62 466.25,-103.42 466.25,-100.21 466.25,-100.21 466.25,-93.79 466.25,-93.79 466.25,-90.58 469.46,-87.38 472.67,-87.38 472.67,-87.38 545.58,-87.38 545.58,-87.38 548.79,-87.38 552,-90.58 552,-93.79 552,-93.79 552,-100.21 552,-100.21 552,-103.42 548.79,-106.62 545.58,-106.62"/>
<text text-anchor="start" x="474.25" y="-94.08" font-family="Helvetica,sans-Serif" font-size="9.00">VideoEmbed.vue</text>
</a>
</g>
</g>
<!-- src/components/VideoCard.vue&#45;&gt;src/components/VideoEmbed.vue -->
<g id="edge9" class="edge">
<title>src/components/VideoCard.vue&#45;&gt;src/components/VideoEmbed.vue</title>
<path fill="none" stroke="#000000" stroke-width="2" stroke-opacity="0.200000" d="M428.38,-97C437.5,-97 447.42,-97 457.06,-97"/>
<polygon fill="#000000" fill-opacity="0.200000" stroke="#000000" stroke-width="2" stroke-opacity="0.200000" points="456.78,-99.1 462.78,-97 456.78,-94.9 456.78,-99.1"/>
</g>
<!-- src/components/VideoCard.vue&#45;&gt;src/stores/videosStore.ts -->
<g id="edge10" class="edge">
<title>src/components/VideoCard.vue&#45;&gt;src/stores/videosStore.ts</title>
<path fill="none" stroke="#000000" stroke-width="2" stroke-opacity="0.200000" d="M428.36,-98.91C436.99,-101.17 445.3,-105.15 451,-112 469.1,-133.73 441.47,-216.81 459,-239 460.45,-240.84 462.12,-242.45 463.95,-243.88"/>
<polygon fill="#000000" fill-opacity="0.200000" stroke="#000000" stroke-width="2" stroke-opacity="0.200000" points="462.83,-245.66 469.06,-246.92 464.98,-242.05 462.83,-245.66"/>
</g>
<!-- src/stores/videosStore.ts&#45;&gt;src/application/index.ts -->
<g id="edge33" class="edge">
<title>src/stores/videosStore.ts&#45;&gt;src/application/index.ts</title>
<path fill="none" stroke="#000000" stroke-width="2" stroke-opacity="0.200000" d="M546.79,-245.43C551.41,-243.65 555.93,-241.53 560,-239 571.6,-231.79 582.09,-220.56 589.68,-211.12"/>
<polygon fill="#000000" fill-opacity="0.200000" stroke="#000000" stroke-width="2" stroke-opacity="0.200000" points="591.28,-212.49 593.27,-206.45 587.95,-209.93 591.28,-212.49"/>
</g>
<!-- src/components/inputs/FolderSelector.vue&#45;&gt;src/stores/videosStore.ts -->
<g id="edge11" class="edge">
<title>src/components/inputs/FolderSelector.vue&#45;&gt;src/stores/videosStore.ts</title>
<path fill="none" stroke="#000000" stroke-width="2" stroke-opacity="0.200000" d="M396.74,-142.77C411.46,-167.71 450.03,-232.2 459,-239 460.53,-240.16 462.15,-241.23 463.84,-242.22"/>
<polygon fill="#000000" fill-opacity="0.200000" stroke="#000000" stroke-width="2" stroke-opacity="0.200000" points="462.53,-243.92 468.84,-244.7 464.4,-240.15 462.53,-243.92"/>
</g>
<!-- src/domain/constants/index.ts -->
<g id="node17" class="node">
<title>src/domain/constants/index.ts</title>
<g id="a_node17"><a xlink:href="src/domain/constants/index.ts" xlink:title="index.ts">
<path fill="#ddfeff" stroke="black" d="M1320.71,-219.62C1320.71,-219.62 1279.54,-219.62 1279.54,-219.62 1276.33,-219.62 1273.12,-216.42 1273.12,-213.21 1273.12,-213.21 1273.12,-206.79 1273.12,-206.79 1273.12,-203.58 1276.33,-200.38 1279.54,-200.38 1279.54,-200.38 1320.71,-200.38 1320.71,-200.38 1323.92,-200.38 1327.12,-203.58 1327.12,-206.79 1327.12,-206.79 1327.12,-213.21 1327.12,-213.21 1327.12,-216.42 1323.92,-219.62 1320.71,-219.62"/>
<text text-anchor="start" x="1284.38" y="-207.07" font-family="Helvetica,sans-Serif" font-size="9.00">index.ts</text>
</a>
</g>
</g>
<!-- src/domain/entities/Metadata.ts -->
<g id="node18" class="node">
<title>src/domain/entities/Metadata.ts</title>
<g id="a_node18"><a xlink:href="src/domain/entities/Metadata.ts" xlink:title="Metadata.ts">
<path fill="#ddfeff" stroke="black" d="M1435.83,-294.62C1435.83,-294.62 1385.42,-294.62 1385.42,-294.62 1382.21,-294.62 1379,-291.42 1379,-288.21 1379,-288.21 1379,-281.79 1379,-281.79 1379,-278.58 1382.21,-275.38 1385.42,-275.38 1385.42,-275.38 1435.83,-275.38 1435.83,-275.38 1439.04,-275.38 1442.25,-278.58 1442.25,-281.79 1442.25,-281.79 1442.25,-288.21 1442.25,-288.21 1442.25,-291.42 1439.04,-294.62 1435.83,-294.62"/>
<text text-anchor="start" x="1387" y="-282.07" font-family="Helvetica,sans-Serif" font-size="9.00">Metadata.ts</text>
</a>
</g>
</g>
<!-- src/domain/entities/Video.ts -->
<g id="node19" class="node">
<title>src/domain/entities/Video.ts</title>
<g id="a_node19"><a xlink:href="src/domain/entities/Video.ts" xlink:title="Video.ts">
<path fill="#ddfeff" stroke="black" d="M1431.21,-325.62C1431.21,-325.62 1390.04,-325.62 1390.04,-325.62 1386.83,-325.62 1383.62,-322.42 1383.62,-319.21 1383.62,-319.21 1383.62,-312.79 1383.62,-312.79 1383.62,-309.58 1386.83,-306.38 1390.04,-306.38 1390.04,-306.38 1431.21,-306.38 1431.21,-306.38 1434.42,-306.38 1437.62,-309.58 1437.62,-312.79 1437.62,-312.79 1437.62,-319.21 1437.62,-319.21 1437.62,-322.42 1434.42,-325.62 1431.21,-325.62"/>
<text text-anchor="start" x="1394.12" y="-313.07" font-family="Helvetica,sans-Serif" font-size="9.00">Video.ts</text>
</a>
</g>
</g>
<!-- src/domain/index.ts -->
<g id="node20" class="node">
<title>src/domain/index.ts</title>
<g id="a_node20"><a xlink:href="src/domain/index.ts" xlink:title="index.ts">
<path fill="#ddfeff" stroke="black" d="M1193.08,-282.62C1193.08,-282.62 1151.92,-282.62 1151.92,-282.62 1148.71,-282.62 1145.5,-279.42 1145.5,-276.21 1145.5,-276.21 1145.5,-269.79 1145.5,-269.79 1145.5,-266.58 1148.71,-263.38 1151.92,-263.38 1151.92,-263.38 1193.08,-263.38 1193.08,-263.38 1196.29,-263.38 1199.5,-266.58 1199.5,-269.79 1199.5,-269.79 1199.5,-276.21 1199.5,-276.21 1199.5,-279.42 1196.29,-282.62 1193.08,-282.62"/>
<text text-anchor="start" x="1156.75" y="-270.07" font-family="Helvetica,sans-Serif" font-size="9.00">index.ts</text>
</a>
</g>
</g>
<!-- src/domain/index.ts&#45;&gt;src/domain/constants/index.ts -->
<g id="edge13" class="edge">
<title>src/domain/index.ts&#45;&gt;src/domain/constants/index.ts</title>
<path fill="none" stroke="#000000" stroke-width="2" stroke-opacity="0.200000" d="M1193.68,-262.88C1214.65,-252.36 1247.63,-235.83 1271.11,-224.05"/>
<polygon fill="#000000" fill-opacity="0.200000" stroke="#000000" stroke-width="2" stroke-opacity="0.200000" points="1271.86,-226.02 1276.29,-221.45 1269.98,-222.27 1271.86,-226.02"/>
</g>
<!-- src/domain/index.ts&#45;&gt;src/domain/entities/Metadata.ts -->
<g id="edge14" class="edge">
<title>src/domain/index.ts&#45;&gt;src/domain/entities/Metadata.ts</title>
<path fill="none" stroke="#000000" stroke-opacity="0.200000" d="M1178.73,-282.94C1187.98,-299.31 1208.96,-331.38 1237.25,-344 1262.77,-355.38 1341.55,-361.91 1363,-344 1378.26,-331.26 1358.35,-315.33 1371,-300 1371.53,-299.36 1372.08,-298.75 1372.67,-298.17"/>
<polygon fill="none" stroke="#000000" stroke-opacity="0.200000" points="1373.92,-299.85 1377.35,-294.5 1371.33,-296.54 1373.92,-299.85"/>
</g>
<!-- src/domain/index.ts&#45;&gt;src/domain/entities/Video.ts -->
<g id="edge15" class="edge">
<title>src/domain/index.ts&#45;&gt;src/domain/entities/Video.ts</title>
<path fill="none" stroke="#000000" stroke-opacity="0.200000" d="M1177.83,-283.01C1186.25,-300.99 1206.69,-338.28 1237.25,-353 1287.6,-377.26 1310.23,-371.4 1363,-353 1375.61,-348.61 1387.36,-339.22 1395.92,-331.01"/>
<polygon fill="none" stroke="#000000" stroke-opacity="0.200000" points="1396.99,-332.9 1399.74,-327.17 1394.02,-329.94 1396.99,-332.9"/>
</g>
<!-- src/domain/repositories/IMetadataRepository.ts -->
<g id="node21" class="node">
<title>src/domain/repositories/IMetadataRepository.ts</title>
<g id="a_node21"><a xlink:href="src/domain/repositories/IMetadataRepository.ts" xlink:title="IMetadataRepository.ts">
<path fill="#ddfeff" stroke="black" d="M1348.58,-282.62C1348.58,-282.62 1251.67,-282.62 1251.67,-282.62 1248.46,-282.62 1245.25,-279.42 1245.25,-276.21 1245.25,-276.21 1245.25,-269.79 1245.25,-269.79 1245.25,-266.58 1248.46,-263.38 1251.67,-263.38 1251.67,-263.38 1348.58,-263.38 1348.58,-263.38 1351.79,-263.38 1355,-266.58 1355,-269.79 1355,-269.79 1355,-276.21 1355,-276.21 1355,-279.42 1351.79,-282.62 1348.58,-282.62"/>
<text text-anchor="start" x="1253.25" y="-270.07" font-family="Helvetica,sans-Serif" font-size="9.00">IMetadataRepository.ts</text>
</a>
</g>
</g>
<!-- src/domain/index.ts&#45;&gt;src/domain/repositories/IMetadataRepository.ts -->
<g id="edge16" class="edge">
<title>src/domain/index.ts&#45;&gt;src/domain/repositories/IMetadataRepository.ts</title>
<path fill="none" stroke="#000000" stroke-opacity="0.200000" d="M1199.84,-273C1210.88,-273 1224.24,-273 1237.52,-273"/>
<polygon fill="none" stroke="#000000" stroke-opacity="0.200000" points="1237.36,-275.1 1243.36,-273 1237.36,-270.9 1237.36,-275.1"/>
</g>
<!-- src/domain/repositories/IVideoRepository.ts -->
<g id="node22" class="node">
<title>src/domain/repositories/IVideoRepository.ts</title>
<g id="a_node22"><a xlink:href="src/domain/repositories/IVideoRepository.ts" xlink:title="IVideoRepository.ts">
<path fill="#ddfeff" stroke="black" d="M1341.46,-313.62C1341.46,-313.62 1258.79,-313.62 1258.79,-313.62 1255.58,-313.62 1252.38,-310.42 1252.38,-307.21 1252.38,-307.21 1252.38,-300.79 1252.38,-300.79 1252.38,-297.58 1255.58,-294.38 1258.79,-294.38 1258.79,-294.38 1341.46,-294.38 1341.46,-294.38 1344.67,-294.38 1347.88,-297.58 1347.88,-300.79 1347.88,-300.79 1347.88,-307.21 1347.88,-307.21 1347.88,-310.42 1344.67,-313.62 1341.46,-313.62"/>
<text text-anchor="start" x="1260.38" y="-301.07" font-family="Helvetica,sans-Serif" font-size="9.00">IVideoRepository.ts</text>
</a>
</g>
</g>
<!-- src/domain/index.ts&#45;&gt;src/domain/repositories/IVideoRepository.ts -->
<g id="edge17" class="edge">
<title>src/domain/index.ts&#45;&gt;src/domain/repositories/IVideoRepository.ts</title>
<path fill="none" stroke="#000000" stroke-opacity="0.200000" d="M1199.85,-279.66C1211.33,-282.56 1224.95,-285.97 1237.25,-289 1241.37,-290.02 1245.66,-291.07 1249.95,-292.12"/>
<polygon fill="none" stroke="#000000" stroke-opacity="0.200000" points="1249.38,-294.14 1255.71,-293.52 1250.37,-290.06 1249.38,-294.14"/>
</g>
<!-- src/domain/repositories/IMetadataRepository.ts&#45;&gt;src/domain/entities/Metadata.ts -->
<g id="edge18" class="edge">
<title>src/domain/repositories/IMetadataRepository.ts&#45;&gt;src/domain/entities/Metadata.ts</title>
<path fill="none" stroke="#000000" stroke-opacity="0.200000" d="M1355.38,-279C1360.71,-279.59 1366.05,-280.18 1371.19,-280.75"/>
<polygon fill="none" stroke="#000000" stroke-opacity="0.200000" points="1370.83,-282.82 1377.03,-281.39 1371.3,-278.65 1370.83,-282.82"/>
</g>
<!-- src/domain/repositories/IVideoRepository.ts&#45;&gt;src/domain/entities/Video.ts -->
<g id="edge19" class="edge">
<title>src/domain/repositories/IVideoRepository.ts&#45;&gt;src/domain/entities/Video.ts</title>
<path fill="none" stroke="#000000" stroke-opacity="0.200000" d="M1348.08,-309.19C1357.39,-310.22 1366.98,-311.28 1375.74,-312.25"/>
<polygon fill="none" stroke="#000000" stroke-opacity="0.200000" points="1375.5,-314.34 1381.7,-312.91 1375.97,-310.16 1375.5,-314.34"/>
</g>
<!-- src/infrastructure/database/DatabaseConnection.ts -->
<g id="node23" class="node">
<title>src/infrastructure/database/DatabaseConnection.ts</title>
<g id="a_node23"><a xlink:href="src/infrastructure/database/DatabaseConnection.ts" xlink:title="DatabaseConnection.ts">
<path fill="#ddfeff" stroke="black" d="M1222.83,-92.62C1222.83,-92.62 1122.17,-92.62 1122.17,-92.62 1118.96,-92.62 1115.75,-89.42 1115.75,-86.21 1115.75,-86.21 1115.75,-79.79 1115.75,-79.79 1115.75,-76.58 1118.96,-73.38 1122.17,-73.38 1122.17,-73.38 1222.83,-73.38 1222.83,-73.38 1226.04,-73.38 1229.25,-76.58 1229.25,-79.79 1229.25,-79.79 1229.25,-86.21 1229.25,-86.21 1229.25,-89.42 1226.04,-92.62 1222.83,-92.62"/>
<text text-anchor="start" x="1123.75" y="-80.08" font-family="Helvetica,sans-Serif" font-size="9.00">DatabaseConnection.ts</text>
</a>
</g>
</g>
<!-- src/infrastructure/database/migrations/index.ts -->
<g id="node24" class="node">
<title>src/infrastructure/database/migrations/index.ts</title>
<g id="a_node24"><a xlink:href="src/infrastructure/database/migrations/index.ts" xlink:title="index.ts">
<path fill="#ddfeff" stroke="black" d="M1320.71,-92.62C1320.71,-92.62 1279.54,-92.62 1279.54,-92.62 1276.33,-92.62 1273.12,-89.42 1273.12,-86.21 1273.12,-86.21 1273.12,-79.79 1273.12,-79.79 1273.12,-76.58 1276.33,-73.38 1279.54,-73.38 1279.54,-73.38 1320.71,-73.38 1320.71,-73.38 1323.92,-73.38 1327.12,-76.58 1327.12,-79.79 1327.12,-79.79 1327.12,-86.21 1327.12,-86.21 1327.12,-89.42 1323.92,-92.62 1320.71,-92.62"/>
<text text-anchor="start" x="1284.38" y="-80.08" font-family="Helvetica,sans-Serif" font-size="9.00">index.ts</text>
</a>
</g>
</g>
<!-- src/infrastructure/database/DatabaseConnection.ts&#45;&gt;src/infrastructure/database/migrations/index.ts -->
<g id="edge20" class="edge">
<title>src/infrastructure/database/DatabaseConnection.ts&#45;&gt;src/infrastructure/database/migrations/index.ts</title>
<path fill="none" stroke="#000000" stroke-width="2" stroke-opacity="0.200000" d="M1229.7,-83C1241.32,-83 1253.25,-83 1263.86,-83"/>
<polygon fill="#000000" fill-opacity="0.200000" stroke="#000000" stroke-width="2" stroke-opacity="0.200000" points="1263.79,-85.1 1269.79,-83 1263.79,-80.9 1263.79,-85.1"/>
</g>
<!-- src/infrastructure/database/migrations/v1.ts -->
<g id="node25" class="node">
<title>src/infrastructure/database/migrations/v1.ts</title>
<g id="a_node25"><a xlink:href="src/infrastructure/database/migrations/v1.ts" xlink:title="v1.ts">
<path fill="#ddfeff" stroke="black" d="M1431.21,-62.62C1431.21,-62.62 1390.04,-62.62 1390.04,-62.62 1386.83,-62.62 1383.62,-59.42 1383.62,-56.21 1383.62,-56.21 1383.62,-49.79 1383.62,-49.79 1383.62,-46.58 1386.83,-43.38 1390.04,-43.38 1390.04,-43.38 1431.21,-43.38 1431.21,-43.38 1434.42,-43.38 1437.62,-46.58 1437.62,-49.79 1437.62,-49.79 1437.62,-56.21 1437.62,-56.21 1437.62,-59.42 1434.42,-62.62 1431.21,-62.62"/>
<text text-anchor="start" x="1401.25" y="-50.08" font-family="Helvetica,sans-Serif" font-size="9.00">v1.ts</text>
</a>
</g>
</g>
<!-- src/infrastructure/database/migrations/index.ts&#45;&gt;src/infrastructure/database/migrations/v1.ts -->
<g id="edge21" class="edge">
<title>src/infrastructure/database/migrations/index.ts&#45;&gt;src/infrastructure/database/migrations/v1.ts</title>
<path fill="none" stroke="#000000" stroke-width="2" stroke-opacity="0.200000" d="M1327.39,-75.74C1341.68,-71.79 1359.53,-66.85 1374.95,-62.59"/>
<polygon fill="#000000" fill-opacity="0.200000" stroke="#000000" stroke-width="2" stroke-opacity="0.200000" points="1375.09,-64.73 1380.31,-61.11 1373.97,-60.68 1375.09,-64.73"/>
</g>
<!-- src/infrastructure/database/migrations/v2.ts -->
<g id="node26" class="node">
<title>src/infrastructure/database/migrations/v2.ts</title>
<g id="a_node26"><a xlink:href="src/infrastructure/database/migrations/v2.ts" xlink:title="v2.ts">
<path fill="#ddfeff" stroke="black" d="M1431.21,-93.62C1431.21,-93.62 1390.04,-93.62 1390.04,-93.62 1386.83,-93.62 1383.62,-90.42 1383.62,-87.21 1383.62,-87.21 1383.62,-80.79 1383.62,-80.79 1383.62,-77.58 1386.83,-74.38 1390.04,-74.38 1390.04,-74.38 1431.21,-74.38 1431.21,-74.38 1434.42,-74.38 1437.62,-77.58 1437.62,-80.79 1437.62,-80.79 1437.62,-87.21 1437.62,-87.21 1437.62,-90.42 1434.42,-93.62 1431.21,-93.62"/>
<text text-anchor="start" x="1401.25" y="-81.08" font-family="Helvetica,sans-Serif" font-size="9.00">v2.ts</text>
</a>
</g>
</g>
<!-- src/infrastructure/database/migrations/index.ts&#45;&gt;src/infrastructure/database/migrations/v2.ts -->
<g id="edge22" class="edge">
<title>src/infrastructure/database/migrations/index.ts&#45;&gt;src/infrastructure/database/migrations/v2.ts</title>
<path fill="none" stroke="#000000" stroke-width="2" stroke-opacity="0.200000" d="M1327.39,-83.24C1341.55,-83.37 1359.2,-83.54 1374.52,-83.68"/>
<polygon fill="#000000" fill-opacity="0.200000" stroke="#000000" stroke-width="2" stroke-opacity="0.200000" points="1374.18,-85.77 1380.2,-83.73 1374.22,-81.57 1374.18,-85.77"/>
</g>
<!-- src/infrastructure/database/migrations/utils/index.ts -->
<g id="node27" class="node">
<title>src/infrastructure/database/migrations/utils/index.ts</title>
<g id="a_node27"><a xlink:href="src/infrastructure/database/migrations/utils/index.ts" xlink:title="index.ts">
<path fill="#ddfeff" stroke="black" d="M1521.83,-67.62C1521.83,-67.62 1480.67,-67.62 1480.67,-67.62 1477.46,-67.62 1474.25,-64.42 1474.25,-61.21 1474.25,-61.21 1474.25,-54.79 1474.25,-54.79 1474.25,-51.58 1477.46,-48.38 1480.67,-48.38 1480.67,-48.38 1521.83,-48.38 1521.83,-48.38 1525.04,-48.38 1528.25,-51.58 1528.25,-54.79 1528.25,-54.79 1528.25,-61.21 1528.25,-61.21 1528.25,-64.42 1525.04,-67.62 1521.83,-67.62"/>
<text text-anchor="start" x="1485.5" y="-55.08" font-family="Helvetica,sans-Serif" font-size="9.00">index.ts</text>
</a>
</g>
</g>
<!-- src/infrastructure/database/migrations/v1.ts&#45;&gt;src/infrastructure/database/migrations/utils/index.ts -->
<g id="edge23" class="edge">
<title>src/infrastructure/database/migrations/v1.ts&#45;&gt;src/infrastructure/database/migrations/utils/index.ts</title>
<path fill="none" stroke="#000000" stroke-width="2" stroke-opacity="0.200000" d="M1437.74,-54.47C1446.31,-54.96 1455.99,-55.5 1465.13,-56.02"/>
<polygon fill="#000000" fill-opacity="0.200000" stroke="#000000" stroke-width="2" stroke-opacity="0.200000" points="1464.89,-58.11 1471,-56.35 1465.12,-53.91 1464.89,-58.11"/>
</g>
<!-- src/infrastructure/database/migrations/v2.ts&#45;&gt;src/infrastructure/database/migrations/utils/index.ts -->
<g id="edge24" class="edge">
<title>src/infrastructure/database/migrations/v2.ts&#45;&gt;src/infrastructure/database/migrations/utils/index.ts</title>
<path fill="none" stroke="#000000" stroke-width="2" stroke-opacity="0.200000" d="M1437.74,-76.34C1446.4,-73.8 1456.2,-70.92 1465.41,-68.22"/>
<polygon fill="#000000" fill-opacity="0.200000" stroke="#000000" stroke-width="2" stroke-opacity="0.200000" points="1465.95,-70.25 1471.11,-66.55 1464.77,-66.22 1465.95,-70.25"/>
</g>
<!-- src/infrastructure/repository/MetadataRepository.ts&#45;&gt;src/domain/index.ts -->
<g id="edge28" class="edge">
<title>src/infrastructure/repository/MetadataRepository.ts&#45;&gt;src/domain/index.ts</title>
<path fill="none" stroke="#000000" stroke-width="2" stroke-opacity="0.200000" d="M1047.29,-122.07C1069.41,-148.95 1130.03,-222.61 1157.57,-256.07"/>
<polygon fill="#000000" fill-opacity="0.200000" stroke="#000000" stroke-width="2" stroke-opacity="0.200000" points="1155.86,-257.3 1161.29,-260.6 1159.1,-254.63 1155.86,-257.3"/>
</g>
<!-- src/infrastructure/repository/MetadataRepository.ts&#45;&gt;src/infrastructure/database/DatabaseConnection.ts -->
<g id="edge27" class="edge">
<title>src/infrastructure/repository/MetadataRepository.ts&#45;&gt;src/infrastructure/database/DatabaseConnection.ts</title>
<path fill="none" stroke="#000000" stroke-width="2" stroke-opacity="0.200000" d="M1084.97,-101.94C1095.25,-99.69 1106.25,-97.28 1116.84,-94.96"/>
<polygon fill="#000000" fill-opacity="0.200000" stroke="#000000" stroke-width="2" stroke-opacity="0.200000" points="1117.24,-97.03 1122.65,-93.69 1116.34,-92.92 1117.24,-97.03"/>
</g>
<!-- src/infrastructure/repository/VideoRepository.ts&#45;&gt;src/domain/index.ts -->
<g id="edge30" class="edge">
<title>src/infrastructure/repository/VideoRepository.ts&#45;&gt;src/domain/index.ts</title>
<path fill="none" stroke="#000000" stroke-width="2" stroke-opacity="0.200000" d="M1084.83,-85.9C1090.47,-88.23 1095.67,-91.49 1099.75,-96 1116.62,-114.65 1100,-128.08 1107.75,-152 1120.46,-191.23 1145.27,-232.92 1159.91,-255.68"/>
<polygon fill="#000000" fill-opacity="0.200000" stroke="#000000" stroke-width="2" stroke-opacity="0.200000" points="1158.1,-256.76 1163.14,-260.63 1161.62,-254.46 1158.1,-256.76"/>
</g>
<!-- src/infrastructure/repository/VideoRepository.ts&#45;&gt;src/infrastructure/database/DatabaseConnection.ts -->
<g id="edge29" class="edge">
<title>src/infrastructure/repository/VideoRepository.ts&#45;&gt;src/infrastructure/database/DatabaseConnection.ts</title>
<path fill="none" stroke="#000000" stroke-width="2" stroke-opacity="0.200000" d="M1084.97,-81.69C1092.06,-81.8 1099.5,-81.91 1106.9,-82.02"/>
<polygon fill="#000000" fill-opacity="0.200000" stroke="#000000" stroke-width="2" stroke-opacity="0.200000" points="1106.51,-84.12 1112.54,-82.11 1106.57,-79.92 1106.51,-84.12"/>
</g>
<!-- src/main.ts -->
<g id="node30" class="node">
<title>src/main.ts</title>
<g id="a_node30"><a xlink:href="src/main.ts" xlink:title="main.ts">
<path fill="#ddfeff" stroke="black" d="M63.58,-169.62C63.58,-169.62 22.42,-169.62 22.42,-169.62 19.21,-169.62 16,-166.42 16,-163.21 16,-163.21 16,-156.79 16,-156.79 16,-153.58 19.21,-150.38 22.42,-150.38 22.42,-150.38 63.58,-150.38 63.58,-150.38 66.79,-150.38 70,-153.58 70,-156.79 70,-156.79 70,-163.21 70,-163.21 70,-166.42 66.79,-169.62 63.58,-169.62"/>
<text text-anchor="start" x="27.62" y="-157.07" font-family="Helvetica,sans-Serif" font-size="9.00">main.ts</text>
</a>
</g>
</g>
<!-- src/main.ts&#45;&gt;src/App.vue -->
<g id="edge31" class="edge">
<title>src/main.ts&#45;&gt;src/App.vue</title>
<path fill="none" stroke="#000000" stroke-width="2" stroke-opacity="0.200000" d="M70.33,-155.08C81.17,-153.06 93.88,-150.68 105.47,-148.52"/>
<polygon fill="#000000" fill-opacity="0.200000" stroke="#000000" stroke-width="2" stroke-opacity="0.200000" points="105.58,-150.63 111.1,-147.47 104.81,-146.51 105.58,-150.63"/>
</g>
<!-- src/main.ts&#45;&gt;src/assets/main.css -->
<g id="edge32" class="edge">
<title>src/main.ts&#45;&gt;src/assets/main.css</title>
<path fill="none" stroke="#000000" stroke-width="2" stroke-opacity="0.200000" d="M70.33,-164.92C81.17,-166.94 93.88,-169.32 105.47,-171.48"/>
<polygon fill="#000000" fill-opacity="0.200000" stroke="#000000" stroke-width="2" stroke-opacity="0.200000" points="104.81,-173.49 111.1,-172.53 105.58,-169.37 104.81,-173.49"/>
</g>
</g>
</svg>
