<?xml version="1.0" encoding="UTF-8" standalone="no"?>
<!DOCTYPE svg PUBLIC "-//W3C//DTD SVG 1.1//EN"
 "http://www.w3.org/Graphics/SVG/1.1/DTD/svg11.dtd">
<!-- Generated by graphviz version 9.0.0 (20230911.1827)
 -->
<!-- Title: dependency&#45;cruiser output Pages: 1 -->
<svg width="1431pt" height="396pt"
 viewBox="0.00 0.00 1430.50 396.00" xmlns="http://www.w3.org/2000/svg" xmlns:xlink="http://www.w3.org/1999/xlink">
<g id="graph0" class="graph" transform="scale(1 1) rotate(0) translate(4 392)">
<title>dependency&#45;cruiser output</title>
<polygon fill="white" stroke="none" points="-4,4 -4,-392 1426.5,-392 1426.5,4 -4,4"/>
<g id="clust1" class="cluster">
<title>cluster_src</title>
<path fill="#ffffff" stroke="black" stroke-width="2" d="M20,-8C20,-8 1402.5,-8 1402.5,-8 1408.5,-8 1414.5,-14 1414.5,-20 1414.5,-20 1414.5,-368 1414.5,-368 1414.5,-374 1408.5,-380 1402.5,-380 1402.5,-380 20,-380 20,-380 14,-380 8,-374 8,-368 8,-368 8,-20 8,-20 8,-14 14,-8 20,-8"/>
<text text-anchor="middle" x="711.25" y="-367.45" font-family="Helvetica,sans-Serif" font-weight="bold" font-size="9.00">src</text>
</g>
<g id="clust2" class="cluster">
<title>cluster_src/application</title>
<path fill="#ffffff" stroke="black" stroke-width="2" d="M512.25,-106C512.25,-106 818.5,-106 818.5,-106 824.5,-106 830.5,-112 830.5,-118 830.5,-118 830.5,-215 830.5,-215 830.5,-221 824.5,-227 818.5,-227 818.5,-227 512.25,-227 512.25,-227 506.25,-227 500.25,-221 500.25,-215 500.25,-215 500.25,-118 500.25,-118 500.25,-112 506.25,-106 512.25,-106"/>
<text text-anchor="middle" x="665.38" y="-214.45" font-family="Helvetica,sans-Serif" font-weight="bold" font-size="9.00">application</text>
</g>
<g id="clust3" class="cluster">
<title>cluster_src/application/services</title>
<path fill="#ffffff" stroke="black" stroke-width="2" d="M582.25,-114C582.25,-114 810.5,-114 810.5,-114 816.5,-114 822.5,-120 822.5,-126 822.5,-126 822.5,-188 822.5,-188 822.5,-194 816.5,-200 810.5,-200 810.5,-200 582.25,-200 582.25,-200 576.25,-200 570.25,-194 570.25,-188 570.25,-188 570.25,-126 570.25,-126 570.25,-120 576.25,-114 582.25,-114"/>
<text text-anchor="middle" x="696.38" y="-187.45" font-family="Helvetica,sans-Serif" font-weight="bold" font-size="9.00">services</text>
</g>
<g id="clust4" class="cluster">
<title>cluster_src/components</title>
<path fill="#ffffff" stroke="black" stroke-width="2" d="M265.25,-16C265.25,-16 480.25,-16 480.25,-16 486.25,-16 492.25,-22 492.25,-28 492.25,-28 492.25,-185 492.25,-185 492.25,-191 486.25,-197 480.25,-197 480.25,-197 265.25,-197 265.25,-197 259.25,-197 253.25,-191 253.25,-185 253.25,-185 253.25,-28 253.25,-28 253.25,-22 259.25,-16 265.25,-16"/>
<text text-anchor="middle" x="372.75" y="-184.45" font-family="Helvetica,sans-Serif" font-weight="bold" font-size="9.00">components</text>
</g>
<g id="clust5" class="cluster">
<title>cluster_src/components/inputs</title>
<path fill="#ffffff" stroke="black" stroke-width="2" d="M292.38,-115C292.38,-115 352.12,-115 352.12,-115 358.12,-115 364.12,-121 364.12,-127 364.12,-127 364.12,-158 364.12,-158 364.12,-164 358.12,-170 352.12,-170 352.12,-170 292.38,-170 292.38,-170 286.38,-170 280.38,-164 280.38,-158 280.38,-158 280.38,-127 280.38,-127 280.38,-121 286.38,-115 292.38,-115"/>
<text text-anchor="middle" x="322.25" y="-157.45" font-family="Helvetica,sans-Serif" font-weight="bold" font-size="9.00">inputs</text>
</g>
<g id="clust6" class="cluster">
<title>cluster_src/components/utils</title>
<path fill="#ffffff" stroke="black" stroke-width="2" d="M273.25,-52C273.25,-52 371.25,-52 371.25,-52 377.25,-52 383.25,-58 383.25,-64 383.25,-64 383.25,-95 383.25,-95 383.25,-101 377.25,-107 371.25,-107 371.25,-107 273.25,-107 273.25,-107 267.25,-107 261.25,-101 261.25,-95 261.25,-95 261.25,-64 261.25,-64 261.25,-58 267.25,-52 273.25,-52"/>
<text text-anchor="middle" x="322.25" y="-94.45" font-family="Helvetica,sans-Serif" font-weight="bold" font-size="9.00">utils</text>
</g>
<g id="clust7" class="cluster">
<title>cluster_src/domain</title>
<path fill="#ffffff" stroke="black" stroke-width="2" d="M1081.75,-145C1081.75,-145 1394.5,-145 1394.5,-145 1400.5,-145 1406.5,-151 1406.5,-157 1406.5,-157 1406.5,-341 1406.5,-341 1406.5,-347 1400.5,-353 1394.5,-353 1394.5,-353 1081.75,-353 1081.75,-353 1075.75,-353 1069.75,-347 1069.75,-341 1069.75,-341 1069.75,-157 1069.75,-157 1069.75,-151 1075.75,-145 1081.75,-145"/>
<text text-anchor="middle" x="1238.12" y="-340.45" font-family="Helvetica,sans-Serif" font-weight="bold" font-size="9.00">domain</text>
</g>
<g id="clust9" class="cluster">
<title>cluster_src/domain/entities</title>
<path fill="#ffffff" stroke="black" stroke-width="2" d="M1331.25,-228C1331.25,-228 1386.5,-228 1386.5,-228 1392.5,-228 1398.5,-234 1398.5,-240 1398.5,-240 1398.5,-302 1398.5,-302 1398.5,-308 1392.5,-314 1386.5,-314 1386.5,-314 1331.25,-314 1331.25,-314 1325.25,-314 1319.25,-308 1319.25,-302 1319.25,-302 1319.25,-240 1319.25,-240 1319.25,-234 1325.25,-228 1331.25,-228"/>
<text text-anchor="middle" x="1358.88" y="-301.45" font-family="Helvetica,sans-Serif" font-weight="bold" font-size="9.00">entities</text>
</g>
<g id="clust8" class="cluster">
<title>cluster_src/domain/constants</title>
<path fill="#ffffff" stroke="black" stroke-width="2" d="M1225.38,-153C1225.38,-153 1271.38,-153 1271.38,-153 1277.38,-153 1283.38,-159 1283.38,-165 1283.38,-165 1283.38,-196 1283.38,-196 1283.38,-202 1277.38,-208 1271.38,-208 1271.38,-208 1225.38,-208 1225.38,-208 1219.38,-208 1213.38,-202 1213.38,-196 1213.38,-196 1213.38,-165 1213.38,-165 1213.38,-159 1219.38,-153 1225.38,-153"/>
<text text-anchor="middle" x="1248.38" y="-195.45" font-family="Helvetica,sans-Serif" font-weight="bold" font-size="9.00">constants</text>
</g>
<g id="clust10" class="cluster">
<title>cluster_src/domain/repositories</title>
<path fill="#ffffff" stroke="black" stroke-width="2" d="M1197.5,-216C1197.5,-216 1299.25,-216 1299.25,-216 1305.25,-216 1311.25,-222 1311.25,-228 1311.25,-228 1311.25,-290 1311.25,-290 1311.25,-296 1305.25,-302 1299.25,-302 1299.25,-302 1197.5,-302 1197.5,-302 1191.5,-302 1185.5,-296 1185.5,-290 1185.5,-290 1185.5,-228 1185.5,-228 1185.5,-222 1191.5,-216 1197.5,-216"/>
<text text-anchor="middle" x="1248.38" y="-289.45" font-family="Helvetica,sans-Serif" font-weight="bold" font-size="9.00">repositories</text>
</g>
<g id="clust11" class="cluster">
<title>cluster_src/infrastructure</title>
<path fill="#ffffff" stroke="black" stroke-width="2" d="M850.5,-16C850.5,-16 1165.5,-16 1165.5,-16 1171.5,-16 1177.5,-22 1177.5,-28 1177.5,-28 1177.5,-125 1177.5,-125 1177.5,-131 1171.5,-137 1165.5,-137 1165.5,-137 850.5,-137 850.5,-137 844.5,-137 838.5,-131 838.5,-125 838.5,-125 838.5,-28 838.5,-28 838.5,-22 844.5,-16 850.5,-16"/>
<text text-anchor="middle" x="1008" y="-124.45" font-family="Helvetica,sans-Serif" font-weight="bold" font-size="9.00">infrastructure</text>
</g>
<g id="clust12" class="cluster">
<title>cluster_src/infrastructure/database</title>
<path fill="#ffffff" stroke="black" stroke-width="2" d="M1052,-39C1052,-39 1157.5,-39 1157.5,-39 1163.5,-39 1169.5,-45 1169.5,-51 1169.5,-51 1169.5,-82 1169.5,-82 1169.5,-88 1163.5,-94 1157.5,-94 1157.5,-94 1052,-94 1052,-94 1046,-94 1040,-88 1040,-82 1040,-82 1040,-51 1040,-51 1040,-45 1046,-39 1052,-39"/>
<text text-anchor="middle" x="1104.75" y="-81.45" font-family="Helvetica,sans-Serif" font-weight="bold" font-size="9.00">database</text>
</g>
<g id="clust13" class="cluster">
<title>cluster_src/infrastructure/repository</title>
<path fill="#ffffff" stroke="black" stroke-width="2" d="M920.5,-24C920.5,-24 1020,-24 1020,-24 1026,-24 1032,-30 1032,-36 1032,-36 1032,-98 1032,-98 1032,-104 1026,-110 1020,-110 1020,-110 920.5,-110 920.5,-110 914.5,-110 908.5,-104 908.5,-98 908.5,-98 908.5,-36 908.5,-36 908.5,-30 914.5,-24 920.5,-24"/>
<text text-anchor="middle" x="970.25" y="-97.45" font-family="Helvetica,sans-Serif" font-weight="bold" font-size="9.00">repository</text>
</g>
<g id="clust14" class="cluster">
<title>cluster_src/stores</title>
<path fill="#ffffff" stroke="black" stroke-width="2" d="M403.25,-205C403.25,-205 479.5,-205 479.5,-205 485.5,-205 491.5,-211 491.5,-217 491.5,-217 491.5,-279 491.5,-279 491.5,-285 485.5,-291 479.5,-291 479.5,-291 403.25,-291 403.25,-291 397.25,-291 391.25,-285 391.25,-279 391.25,-279 391.25,-217 391.25,-217 391.25,-211 397.25,-205 403.25,-205"/>
<text text-anchor="middle" x="441.38" y="-278.45" font-family="Helvetica,sans-Serif" font-weight="bold" font-size="9.00">stores</text>
</g>
<g id="clust15" class="cluster">
<title>cluster_src/views</title>
<path fill="#ffffff" stroke="black" stroke-width="2" d="M157,-174C157,-174 233.25,-174 233.25,-174 239.25,-174 245.25,-180 245.25,-186 245.25,-186 245.25,-248 245.25,-248 245.25,-254 239.25,-260 233.25,-260 233.25,-260 157,-260 157,-260 151,-260 145,-254 145,-248 145,-248 145,-186 145,-186 145,-180 151,-174 157,-174"/>
<text text-anchor="middle" x="195.12" y="-247.45" font-family="Helvetica,sans-Serif" font-weight="bold" font-size="9.00">views</text>
</g>
<!-- src/App.vue -->
<g id="node1" class="node">
<title>src/App.vue</title>
<g id="a_node1"><a xlink:href="src/App.vue" xlink:title="App.vue">
<path fill="#41f083" stroke="black" d="M130.58,-201.62C130.58,-201.62 89.42,-201.62 89.42,-201.62 86.21,-201.62 83,-198.42 83,-195.21 83,-195.21 83,-188.79 83,-188.79 83,-185.58 86.21,-182.38 89.42,-182.38 89.42,-182.38 130.58,-182.38 130.58,-182.38 133.79,-182.38 137,-185.58 137,-188.79 137,-188.79 137,-195.21 137,-195.21 137,-198.42 133.79,-201.62 130.58,-201.62"/>
<text text-anchor="start" x="93.88" y="-189.07" font-family="Helvetica,sans-Serif" font-size="9.00">App.vue</text>
</a>
</g>
</g>
<!-- src/components/utils/DiagnosticsPanel.vue -->
<g id="node2" class="node">
<title>src/components/utils/DiagnosticsPanel.vue</title>
<g id="a_node2"><a xlink:href="src/components/utils/DiagnosticsPanel.vue" xlink:title="DiagnosticsPanel.vue">
<path fill="#41f083" stroke="black" d="M368.83,-79.62C368.83,-79.62 275.67,-79.62 275.67,-79.62 272.46,-79.62 269.25,-76.42 269.25,-73.21 269.25,-73.21 269.25,-66.79 269.25,-66.79 269.25,-63.58 272.46,-60.38 275.67,-60.38 275.67,-60.38 368.83,-60.38 368.83,-60.38 372.04,-60.38 375.25,-63.58 375.25,-66.79 375.25,-66.79 375.25,-73.21 375.25,-73.21 375.25,-76.42 372.04,-79.62 368.83,-79.62"/>
<text text-anchor="start" x="277.25" y="-67.08" font-family="Helvetica,sans-Serif" font-size="9.00">DiagnosticsPanel.vue</text>
</a>
</g>
</g>
<!-- src/App.vue&#45;&gt;src/components/utils/DiagnosticsPanel.vue -->
<g id="edge1" class="edge">
<title>src/App.vue&#45;&gt;src/components/utils/DiagnosticsPanel.vue</title>
<path fill="none" stroke="#000000" stroke-width="2" stroke-opacity="0.200000" d="M126.85,-182.06C132.55,-178.53 139.04,-174.55 145,-171 198.17,-139.36 261.24,-103.65 295.67,-84.31"/>
<polygon fill="#000000" fill-opacity="0.200000" stroke="#000000" stroke-width="2" stroke-opacity="0.200000" points="296.53,-86.23 300.74,-81.47 294.48,-82.57 296.53,-86.23"/>
</g>
<!-- src/views/NavBar.vue -->
<g id="node3" class="node">
<title>src/views/NavBar.vue</title>
<g id="a_node3"><a xlink:href="src/views/NavBar.vue" xlink:title="NavBar.vue">
<path fill="#41f083" stroke="black" d="M219.96,-232.62C219.96,-232.62 170.29,-232.62 170.29,-232.62 167.08,-232.62 163.88,-229.42 163.88,-226.21 163.88,-226.21 163.88,-219.79 163.88,-219.79 163.88,-216.58 167.08,-213.38 170.29,-213.38 170.29,-213.38 219.96,-213.38 219.96,-213.38 223.17,-213.38 226.38,-216.58 226.38,-219.79 226.38,-219.79 226.38,-226.21 226.38,-226.21 226.38,-229.42 223.17,-232.62 219.96,-232.62"/>
<text text-anchor="start" x="171.88" y="-220.07" font-family="Helvetica,sans-Serif" font-size="9.00">NavBar.vue</text>
</a>
</g>
</g>
<!-- src/App.vue&#45;&gt;src/views/NavBar.vue -->
<g id="edge2" class="edge">
<title>src/App.vue&#45;&gt;src/views/NavBar.vue</title>
<path fill="none" stroke="#000000" stroke-width="2" stroke-opacity="0.200000" d="M130.93,-201.96C135.5,-204.08 140.37,-206.22 145,-208 148.23,-209.25 151.61,-210.46 155.02,-211.62"/>
<polygon fill="#000000" fill-opacity="0.200000" stroke="#000000" stroke-width="2" stroke-opacity="0.200000" points="154.26,-213.58 160.62,-213.45 155.57,-209.59 154.26,-213.58"/>
</g>
<!-- src/views/VideoGallery.vue -->
<g id="node4" class="node">
<title>src/views/VideoGallery.vue</title>
<g id="a_node4"><a xlink:href="src/views/VideoGallery.vue" xlink:title="VideoGallery.vue">
<path fill="#41f083" stroke="black" d="M230.83,-201.62C230.83,-201.62 159.42,-201.62 159.42,-201.62 156.21,-201.62 153,-198.42 153,-195.21 153,-195.21 153,-188.79 153,-188.79 153,-185.58 156.21,-182.38 159.42,-182.38 159.42,-182.38 230.83,-182.38 230.83,-182.38 234.04,-182.38 237.25,-185.58 237.25,-188.79 237.25,-188.79 237.25,-195.21 237.25,-195.21 237.25,-198.42 234.04,-201.62 230.83,-201.62"/>
<text text-anchor="start" x="161" y="-189.07" font-family="Helvetica,sans-Serif" font-size="9.00">VideoGallery.vue</text>
</a>
</g>
</g>
<!-- src/App.vue&#45;&gt;src/views/VideoGallery.vue -->
<g id="edge3" class="edge">
<title>src/App.vue&#45;&gt;src/views/VideoGallery.vue</title>
<path fill="none" stroke="#000000" stroke-width="2" stroke-opacity="0.200000" d="M137.3,-192C139.42,-192 141.61,-192 143.83,-192"/>
<polygon fill="#000000" fill-opacity="0.200000" stroke="#000000" stroke-width="2" stroke-opacity="0.200000" points="143.47,-194.1 149.47,-192 143.47,-189.9 143.47,-194.1"/>
</g>
<!-- src/stores/appStateStore.ts -->
<g id="node14" class="node">
<title>src/stores/appStateStore.ts</title>
<g id="a_node14"><a xlink:href="src/stores/appStateStore.ts" xlink:title="appStateStore.ts">
<path fill="#ddfeff" stroke="black" d="M477.08,-263.62C477.08,-263.62 405.67,-263.62 405.67,-263.62 402.46,-263.62 399.25,-260.42 399.25,-257.21 399.25,-257.21 399.25,-250.79 399.25,-250.79 399.25,-247.58 402.46,-244.38 405.67,-244.38 405.67,-244.38 477.08,-244.38 477.08,-244.38 480.29,-244.38 483.5,-247.58 483.5,-250.79 483.5,-250.79 483.5,-257.21 483.5,-257.21 483.5,-260.42 480.29,-263.62 477.08,-263.62"/>
<text text-anchor="start" x="407.25" y="-251.07" font-family="Helvetica,sans-Serif" font-size="9.00">appStateStore.ts</text>
</a>
</g>
</g>
<!-- src/components/utils/DiagnosticsPanel.vue&#45;&gt;src/stores/appStateStore.ts -->
<g id="edge12" class="edge">
<title>src/components/utils/DiagnosticsPanel.vue&#45;&gt;src/stores/appStateStore.ts</title>
<path fill="none" stroke="#000000" stroke-width="2" stroke-opacity="0.200000" d="M346.67,-80.03C359.81,-86.98 375.16,-97.59 383.25,-112 397.09,-136.66 373.72,-216.81 391.25,-239 391.66,-239.52 392.1,-240.03 392.55,-240.52"/>
<polygon fill="#000000" fill-opacity="0.200000" stroke="#000000" stroke-width="2" stroke-opacity="0.200000" points="390.88,-241.87 396.85,-244.04 393.54,-238.62 390.88,-241.87"/>
</g>
<!-- src/stores/videosStore.ts -->
<g id="node12" class="node">
<title>src/stores/videosStore.ts</title>
<g id="a_node12"><a xlink:href="src/stores/videosStore.ts" xlink:title="videosStore.ts">
<path fill="#ddfeff" stroke="black" d="M472.21,-232.62C472.21,-232.62 410.54,-232.62 410.54,-232.62 407.33,-232.62 404.12,-229.42 404.12,-226.21 404.12,-226.21 404.12,-219.79 404.12,-219.79 404.12,-216.58 407.33,-213.38 410.54,-213.38 410.54,-213.38 472.21,-213.38 472.21,-213.38 475.42,-213.38 478.62,-216.58 478.62,-219.79 478.62,-219.79 478.62,-226.21 478.62,-226.21 478.62,-229.42 475.42,-232.62 472.21,-232.62"/>
<text text-anchor="start" x="412.12" y="-220.07" font-family="Helvetica,sans-Serif" font-size="9.00">videosStore.ts</text>
</a>
</g>
</g>
<!-- src/views/NavBar.vue&#45;&gt;src/stores/videosStore.ts -->
<g id="edge30" class="edge">
<title>src/views/NavBar.vue&#45;&gt;src/stores/videosStore.ts</title>
<path fill="none" stroke="#000000" stroke-width="2" stroke-opacity="0.200000" d="M226.57,-223C268.94,-223 346.03,-223 395.14,-223"/>
<polygon fill="#000000" fill-opacity="0.200000" stroke="#000000" stroke-width="2" stroke-opacity="0.200000" points="394.95,-225.1 400.95,-223 394.95,-220.9 394.95,-225.1"/>
</g>
<!-- src/components/inputs/FileInput.vue -->
<g id="node13" class="node">
<title>src/components/inputs/FileInput.vue</title>
<g id="a_node13"><a xlink:href="src/components/inputs/FileInput.vue" xlink:title="FileInput.vue">
<path fill="#41f083" stroke="black" d="M349.71,-142.62C349.71,-142.62 294.79,-142.62 294.79,-142.62 291.58,-142.62 288.38,-139.42 288.38,-136.21 288.38,-136.21 288.38,-129.79 288.38,-129.79 288.38,-126.58 291.58,-123.38 294.79,-123.38 294.79,-123.38 349.71,-123.38 349.71,-123.38 352.92,-123.38 356.12,-126.58 356.12,-129.79 356.12,-129.79 356.12,-136.21 356.12,-136.21 356.12,-139.42 352.92,-142.62 349.71,-142.62"/>
<text text-anchor="start" x="296.38" y="-130.07" font-family="Helvetica,sans-Serif" font-size="9.00">FileInput.vue</text>
</a>
</g>
</g>
<!-- src/views/NavBar.vue&#45;&gt;src/components/inputs/FileInput.vue -->
<g id="edge28" class="edge">
<title>src/views/NavBar.vue&#45;&gt;src/components/inputs/FileInput.vue</title>
<path fill="none" stroke="#000000" stroke-width="2" stroke-opacity="0.200000" d="M226.71,-216.16C233.09,-214.06 239.58,-211.38 245.25,-208 271.03,-192.63 294.59,-166.71 308.44,-149.73"/>
<polygon fill="#000000" fill-opacity="0.200000" stroke="#000000" stroke-width="2" stroke-opacity="0.200000" points="309.77,-151.42 311.87,-145.42 306.49,-148.81 309.77,-151.42"/>
</g>
<!-- src/views/NavBar.vue&#45;&gt;src/stores/appStateStore.ts -->
<g id="edge29" class="edge">
<title>src/views/NavBar.vue&#45;&gt;src/stores/appStateStore.ts</title>
<path fill="none" stroke="#000000" stroke-width="2" stroke-opacity="0.200000" d="M221.63,-233.04C231.37,-236.46 242.68,-239.94 253.25,-242 299.1,-250.94 352.34,-253.63 390.29,-254.26"/>
<polygon fill="#000000" fill-opacity="0.200000" stroke="#000000" stroke-width="2" stroke-opacity="0.200000" points="390.05,-256.36 396.08,-254.34 390.11,-252.16 390.05,-256.36"/>
</g>
<!-- src/components/VideoCard.vue -->
<g id="node10" class="node">
<title>src/components/VideoCard.vue</title>
<g id="a_node10"><a xlink:href="src/components/VideoCard.vue" xlink:title="VideoCard.vue">
<path fill="#41f083" stroke="black" d="M353.83,-43.62C353.83,-43.62 290.67,-43.62 290.67,-43.62 287.46,-43.62 284.25,-40.42 284.25,-37.21 284.25,-37.21 284.25,-30.79 284.25,-30.79 284.25,-27.58 287.46,-24.38 290.67,-24.38 290.67,-24.38 353.83,-24.38 353.83,-24.38 357.04,-24.38 360.25,-27.58 360.25,-30.79 360.25,-30.79 360.25,-37.21 360.25,-37.21 360.25,-40.42 357.04,-43.62 353.83,-43.62"/>
<text text-anchor="start" x="292.25" y="-31.07" font-family="Helvetica,sans-Serif" font-size="9.00">VideoCard.vue</text>
</a>
</g>
</g>
<!-- src/views/VideoGallery.vue&#45;&gt;src/components/VideoCard.vue -->
<g id="edge31" class="edge">
<title>src/views/VideoGallery.vue&#45;&gt;src/components/VideoCard.vue</title>
<path fill="none" stroke="#000000" stroke-width="2" stroke-opacity="0.200000" d="M196.97,-182.23C199.75,-156.21 211.06,-84.82 253.25,-49 259.54,-43.66 267.32,-40.1 275.34,-37.75"/>
<polygon fill="#000000" fill-opacity="0.200000" stroke="#000000" stroke-width="2" stroke-opacity="0.200000" points="275.79,-39.8 281.13,-36.36 274.81,-35.72 275.79,-39.8"/>
</g>
<!-- src/views/VideoGallery.vue&#45;&gt;src/stores/videosStore.ts -->
<g id="edge33" class="edge">
<title>src/views/VideoGallery.vue&#45;&gt;src/stores/videosStore.ts</title>
<path fill="none" stroke="#000000" stroke-width="2" stroke-opacity="0.200000" d="M237.56,-197.26C281.32,-202.81 350.12,-211.54 395.24,-217.27"/>
<polygon fill="#000000" fill-opacity="0.200000" stroke="#000000" stroke-width="2" stroke-opacity="0.200000" points="394.71,-219.32 400.93,-217.99 395.24,-215.15 394.71,-219.32"/>
</g>
<!-- src/views/VideoGallery.vue&#45;&gt;src/stores/appStateStore.ts -->
<g id="edge32" class="edge">
<title>src/views/VideoGallery.vue&#45;&gt;src/stores/appStateStore.ts</title>
<path fill="none" stroke="#000000" stroke-width="2" stroke-opacity="0.200000" d="M231.79,-202.12C236.36,-203.64 240.94,-205.28 245.25,-207 248.94,-208.47 249.51,-209.66 253.25,-211 278.08,-219.92 343.75,-234.25 390.26,-243.89"/>
<polygon fill="#000000" fill-opacity="0.200000" stroke="#000000" stroke-width="2" stroke-opacity="0.200000" points="389.73,-245.92 396.04,-245.08 390.58,-241.81 389.73,-245.92"/>
</g>
<!-- src/application/index.ts -->
<g id="node5" class="node">
<title>src/application/index.ts</title>
<g id="a_node5"><a xlink:href="src/application/index.ts" xlink:title="index.ts">
<path fill="#ddfeff" stroke="black" d="M555.83,-183.62C555.83,-183.62 514.67,-183.62 514.67,-183.62 511.46,-183.62 508.25,-180.42 508.25,-177.21 508.25,-177.21 508.25,-170.79 508.25,-170.79 508.25,-167.58 511.46,-164.38 514.67,-164.38 514.67,-164.38 555.83,-164.38 555.83,-164.38 559.04,-164.38 562.25,-167.58 562.25,-170.79 562.25,-170.79 562.25,-177.21 562.25,-177.21 562.25,-180.42 559.04,-183.62 555.83,-183.62"/>
<text text-anchor="start" x="519.5" y="-171.07" font-family="Helvetica,sans-Serif" font-size="9.00">index.ts</text>
</a>
</g>
</g>
<!-- src/application/services/FiltersService.ts -->
<g id="node6" class="node">
<title>src/application/services/FiltersService.ts</title>
<g id="a_node6"><a xlink:href="src/application/services/FiltersService.ts" xlink:title="FiltersService.ts">
<path fill="#ddfeff" stroke="black" d="M665.83,-172.62C665.83,-172.62 597.42,-172.62 597.42,-172.62 594.21,-172.62 591,-169.42 591,-166.21 591,-166.21 591,-159.79 591,-159.79 591,-156.58 594.21,-153.38 597.42,-153.38 597.42,-153.38 665.83,-153.38 665.83,-153.38 669.04,-153.38 672.25,-156.58 672.25,-159.79 672.25,-159.79 672.25,-166.21 672.25,-166.21 672.25,-169.42 669.04,-172.62 665.83,-172.62"/>
<text text-anchor="start" x="599" y="-160.07" font-family="Helvetica,sans-Serif" font-size="9.00">FiltersService.ts</text>
</a>
</g>
</g>
<!-- src/application/index.ts&#45;&gt;src/application/services/FiltersService.ts -->
<g id="edge4" class="edge">
<title>src/application/index.ts&#45;&gt;src/application/services/FiltersService.ts</title>
<path fill="none" stroke="#000000" stroke-width="2" stroke-opacity="0.200000" d="M562.54,-170.94C568.67,-170.22 575.4,-169.44 582.16,-168.65"/>
<polygon fill="#000000" fill-opacity="0.200000" stroke="#000000" stroke-width="2" stroke-opacity="0.200000" points="581.98,-170.78 587.7,-168 581.49,-166.61 581.98,-170.78"/>
</g>
<!-- src/application/services/VideoMetadataService.ts -->
<g id="node7" class="node">
<title>src/application/services/VideoMetadataService.ts</title>
<g id="a_node7"><a xlink:href="src/application/services/VideoMetadataService.ts" xlink:title="VideoMetadataService.ts">
<path fill="#ddfeff" stroke="black" d="M808.08,-141.62C808.08,-141.62 704.42,-141.62 704.42,-141.62 701.21,-141.62 698,-138.42 698,-135.21 698,-135.21 698,-128.79 698,-128.79 698,-125.58 701.21,-122.38 704.42,-122.38 704.42,-122.38 808.08,-122.38 808.08,-122.38 811.29,-122.38 814.5,-125.58 814.5,-128.79 814.5,-128.79 814.5,-135.21 814.5,-135.21 814.5,-138.42 811.29,-141.62 808.08,-141.62"/>
<text text-anchor="start" x="706" y="-129.07" font-family="Helvetica,sans-Serif" font-size="9.00">VideoMetadataService.ts</text>
</a>
</g>
</g>
<!-- src/application/index.ts&#45;&gt;src/application/services/VideoMetadataService.ts -->
<g id="edge5" class="edge">
<title>src/application/index.ts&#45;&gt;src/application/services/VideoMetadataService.ts</title>
<path fill="none" stroke="#000000" stroke-width="2" stroke-opacity="0.200000" d="M562.71,-179.94C592.99,-185.59 643.71,-191.54 685,-179 705.14,-172.88 724.77,-158.87 738.13,-147.72"/>
<polygon fill="#000000" fill-opacity="0.200000" stroke="#000000" stroke-width="2" stroke-opacity="0.200000" points="739.42,-149.39 742.58,-143.87 736.67,-146.21 739.42,-149.39"/>
</g>
<!-- src/application/services/VideoParserService.ts -->
<g id="node8" class="node">
<title>src/application/services/VideoParserService.ts</title>
<g id="a_node8"><a xlink:href="src/application/services/VideoParserService.ts" xlink:title="VideoParserService.ts">
<path fill="#ddfeff" stroke="black" d="M678.58,-141.62C678.58,-141.62 584.67,-141.62 584.67,-141.62 581.46,-141.62 578.25,-138.42 578.25,-135.21 578.25,-135.21 578.25,-128.79 578.25,-128.79 578.25,-125.58 581.46,-122.38 584.67,-122.38 584.67,-122.38 678.58,-122.38 678.58,-122.38 681.79,-122.38 685,-125.58 685,-128.79 685,-128.79 685,-135.21 685,-135.21 685,-138.42 681.79,-141.62 678.58,-141.62"/>
<text text-anchor="start" x="586.25" y="-129.07" font-family="Helvetica,sans-Serif" font-size="9.00">VideoParserService.ts</text>
</a>
</g>
</g>
<!-- src/application/index.ts&#45;&gt;src/application/services/VideoParserService.ts -->
<g id="edge6" class="edge">
<title>src/application/index.ts&#45;&gt;src/application/services/VideoParserService.ts</title>
<path fill="none" stroke="#000000" stroke-width="2" stroke-opacity="0.200000" d="M546.46,-163.96C552.83,-158.22 561.46,-151.33 570.25,-147 571.43,-146.42 572.64,-145.86 573.86,-145.32"/>
<polygon fill="#000000" fill-opacity="0.200000" stroke="#000000" stroke-width="2" stroke-opacity="0.200000" points="574.54,-147.31 579.36,-143.16 573,-143.4 574.54,-147.31"/>
</g>
<!-- src/infrastructure/index.ts -->
<g id="node9" class="node">
<title>src/infrastructure/index.ts</title>
<g id="a_node9"><a xlink:href="src/infrastructure/index.ts" xlink:title="index.ts">
<path fill="#ddfeff" stroke="black" d="M894.08,-82.62C894.08,-82.62 852.92,-82.62 852.92,-82.62 849.71,-82.62 846.5,-79.42 846.5,-76.21 846.5,-76.21 846.5,-69.79 846.5,-69.79 846.5,-66.58 849.71,-63.38 852.92,-63.38 852.92,-63.38 894.08,-63.38 894.08,-63.38 897.29,-63.38 900.5,-66.58 900.5,-69.79 900.5,-69.79 900.5,-76.21 900.5,-76.21 900.5,-79.42 897.29,-82.62 894.08,-82.62"/>
<text text-anchor="start" x="857.75" y="-70.08" font-family="Helvetica,sans-Serif" font-size="9.00">index.ts</text>
</a>
</g>
</g>
<!-- src/application/services/VideoMetadataService.ts&#45;&gt;src/infrastructure/index.ts -->
<g id="edge7" class="edge">
<title>src/application/services/VideoMetadataService.ts&#45;&gt;src/infrastructure/index.ts</title>
<path fill="none" stroke="#000000" stroke-width="2" stroke-opacity="0.200000" d="M776.8,-121.99C795.51,-112.41 823.91,-97.87 844.92,-87.12"/>
<polygon fill="#000000" fill-opacity="0.200000" stroke="#000000" stroke-width="2" stroke-opacity="0.200000" points="845.78,-89.04 850.16,-84.44 843.86,-85.3 845.78,-89.04"/>
</g>
<!-- src/application/services/VideoParserService.ts&#45;&gt;src/application/services/VideoMetadataService.ts -->
<g id="edge8" class="edge">
<title>src/application/services/VideoParserService.ts&#45;&gt;src/application/services/VideoMetadataService.ts</title>
<path fill="none" stroke="#000000" stroke-width="2" stroke-opacity="0.200000" d="M685.34,-132C686.64,-132 687.94,-132 689.25,-132"/>
<polygon fill="#000000" fill-opacity="0.200000" stroke="#000000" stroke-width="2" stroke-opacity="0.200000" points="688.86,-134.1 694.86,-132 688.86,-129.9 688.86,-134.1"/>
</g>
<!-- src/infrastructure/repository/MetadataRepository.ts -->
<g id="node22" class="node">
<title>src/infrastructure/repository/MetadataRepository.ts</title>
<g id="a_node22"><a xlink:href="src/infrastructure/repository/MetadataRepository.ts" xlink:title="MetadataRepository.ts">
<path fill="#ddfeff" stroke="black" d="M1017.58,-82.62C1017.58,-82.62 922.92,-82.62 922.92,-82.62 919.71,-82.62 916.5,-79.42 916.5,-76.21 916.5,-76.21 916.5,-69.79 916.5,-69.79 916.5,-66.58 919.71,-63.38 922.92,-63.38 922.92,-63.38 1017.58,-63.38 1017.58,-63.38 1020.79,-63.38 1024,-66.58 1024,-69.79 1024,-69.79 1024,-76.21 1024,-76.21 1024,-79.42 1020.79,-82.62 1017.58,-82.62"/>
<text text-anchor="start" x="924.5" y="-70.08" font-family="Helvetica,sans-Serif" font-size="9.00">MetadataRepository.ts</text>
</a>
</g>
</g>
<!-- src/infrastructure/index.ts&#45;&gt;src/infrastructure/repository/MetadataRepository.ts -->
<g id="edge20" class="edge">
<title>src/infrastructure/index.ts&#45;&gt;src/infrastructure/repository/MetadataRepository.ts</title>
<path fill="none" stroke="#000000" stroke-width="2" stroke-opacity="0.200000" d="M900.89,-73C903,-73 905.18,-73 907.4,-73"/>
<polygon fill="#000000" fill-opacity="0.200000" stroke="#000000" stroke-width="2" stroke-opacity="0.200000" points="907.14,-75.1 913.14,-73 907.14,-70.9 907.14,-75.1"/>
</g>
<!-- src/infrastructure/repository/VideoRepository.ts -->
<g id="node23" class="node">
<title>src/infrastructure/repository/VideoRepository.ts</title>
<g id="a_node23"><a xlink:href="src/infrastructure/repository/VideoRepository.ts" xlink:title="VideoRepository.ts">
<path fill="#ddfeff" stroke="black" d="M1010.46,-51.62C1010.46,-51.62 930.04,-51.62 930.04,-51.62 926.83,-51.62 923.62,-48.42 923.62,-45.21 923.62,-45.21 923.62,-38.79 923.62,-38.79 923.62,-35.58 926.83,-32.38 930.04,-32.38 930.04,-32.38 1010.46,-32.38 1010.46,-32.38 1013.67,-32.38 1016.88,-35.58 1016.88,-38.79 1016.88,-38.79 1016.88,-45.21 1016.88,-45.21 1016.88,-48.42 1013.67,-51.62 1010.46,-51.62"/>
<text text-anchor="start" x="931.62" y="-39.08" font-family="Helvetica,sans-Serif" font-size="9.00">VideoRepository.ts</text>
</a>
</g>
</g>
<!-- src/infrastructure/index.ts&#45;&gt;src/infrastructure/repository/VideoRepository.ts -->
<g id="edge21" class="edge">
<title>src/infrastructure/index.ts&#45;&gt;src/infrastructure/repository/VideoRepository.ts</title>
<path fill="none" stroke="#000000" stroke-width="2" stroke-opacity="0.200000" d="M894,-63.02C898.67,-60.85 903.7,-58.7 908.5,-57 910.85,-56.17 913.27,-55.36 915.73,-54.59"/>
<polygon fill="#000000" fill-opacity="0.200000" stroke="#000000" stroke-width="2" stroke-opacity="0.200000" points="916.11,-56.66 921.26,-52.93 914.91,-52.64 916.11,-56.66"/>
</g>
<!-- src/components/VideoEmbed.vue -->
<g id="node11" class="node">
<title>src/components/VideoEmbed.vue</title>
<g id="a_node11"><a xlink:href="src/components/VideoEmbed.vue" xlink:title="VideoEmbed.vue">
<path fill="#41f083" stroke="black" d="M477.83,-43.62C477.83,-43.62 404.92,-43.62 404.92,-43.62 401.71,-43.62 398.5,-40.42 398.5,-37.21 398.5,-37.21 398.5,-30.79 398.5,-30.79 398.5,-27.58 401.71,-24.38 404.92,-24.38 404.92,-24.38 477.83,-24.38 477.83,-24.38 481.04,-24.38 484.25,-27.58 484.25,-30.79 484.25,-30.79 484.25,-37.21 484.25,-37.21 484.25,-40.42 481.04,-43.62 477.83,-43.62"/>
<text text-anchor="start" x="406.5" y="-31.07" font-family="Helvetica,sans-Serif" font-size="9.00">VideoEmbed.vue</text>
</a>
</g>
</g>
<!-- src/components/VideoCard.vue&#45;&gt;src/components/VideoEmbed.vue -->
<g id="edge9" class="edge">
<title>src/components/VideoCard.vue&#45;&gt;src/components/VideoEmbed.vue</title>
<path fill="none" stroke="#000000" stroke-width="2" stroke-opacity="0.200000" d="M360.63,-34C369.75,-34 379.67,-34 389.31,-34"/>
<polygon fill="#000000" fill-opacity="0.200000" stroke="#000000" stroke-width="2" stroke-opacity="0.200000" points="389.03,-36.1 395.03,-34 389.03,-31.9 389.03,-36.1"/>
</g>
<!-- src/components/VideoCard.vue&#45;&gt;src/stores/videosStore.ts -->
<g id="edge10" class="edge">
<title>src/components/VideoCard.vue&#45;&gt;src/stores/videosStore.ts</title>
<path fill="none" stroke="#000000" stroke-width="2" stroke-opacity="0.200000" d="M360.65,-35.87C369.28,-38.13 377.58,-42.12 383.25,-49 404.62,-74.93 372.47,-172.13 391.25,-200 393.32,-203.08 395.92,-205.75 398.83,-208.07"/>
<polygon fill="#000000" fill-opacity="0.200000" stroke="#000000" stroke-width="2" stroke-opacity="0.200000" points="397.41,-209.65 403.57,-211.21 399.72,-206.14 397.41,-209.65"/>
</g>
<!-- src/stores/videosStore.ts&#45;&gt;src/application/index.ts -->
<g id="edge27" class="edge">
<title>src/stores/videosStore.ts&#45;&gt;src/application/index.ts</title>
<path fill="none" stroke="#000000" stroke-width="2" stroke-opacity="0.200000" d="M465.76,-212.93C474.21,-209.1 483.77,-204.56 492.25,-200 498.62,-196.57 505.36,-192.58 511.52,-188.77"/>
<polygon fill="#000000" fill-opacity="0.200000" stroke="#000000" stroke-width="2" stroke-opacity="0.200000" points="512.44,-190.68 516.4,-185.7 510.2,-187.12 512.44,-190.68"/>
</g>
<!-- src/components/inputs/FileInput.vue&#45;&gt;src/stores/videosStore.ts -->
<g id="edge11" class="edge">
<title>src/components/inputs/FileInput.vue&#45;&gt;src/stores/videosStore.ts</title>
<path fill="none" stroke="#000000" stroke-width="2" stroke-opacity="0.200000" d="M331.2,-142.7C343.09,-156.76 366.76,-182.96 391.25,-200 396.08,-203.36 401.48,-206.45 406.88,-209.2"/>
<polygon fill="#000000" fill-opacity="0.200000" stroke="#000000" stroke-width="2" stroke-opacity="0.200000" points="405.69,-210.96 412.01,-211.67 407.51,-207.18 405.69,-210.96"/>
</g>
<!-- src/domain/constants/index.ts -->
<g id="node15" class="node">
<title>src/domain/constants/index.ts</title>
<g id="a_node15"><a xlink:href="src/domain/constants/index.ts" xlink:title="index.ts">
<path fill="#ddfeff" stroke="black" d="M1268.96,-180.62C1268.96,-180.62 1227.79,-180.62 1227.79,-180.62 1224.58,-180.62 1221.38,-177.42 1221.38,-174.21 1221.38,-174.21 1221.38,-167.79 1221.38,-167.79 1221.38,-164.58 1224.58,-161.38 1227.79,-161.38 1227.79,-161.38 1268.96,-161.38 1268.96,-161.38 1272.17,-161.38 1275.38,-164.58 1275.38,-167.79 1275.38,-167.79 1275.38,-174.21 1275.38,-174.21 1275.38,-177.42 1272.17,-180.62 1268.96,-180.62"/>
<text text-anchor="start" x="1232.62" y="-168.07" font-family="Helvetica,sans-Serif" font-size="9.00">index.ts</text>
</a>
</g>
</g>
<!-- src/domain/entities/Metadata.ts -->
<g id="node16" class="node">
<title>src/domain/entities/Metadata.ts</title>
<g id="a_node16"><a xlink:href="src/domain/entities/Metadata.ts" xlink:title="Metadata.ts">
<path fill="#ddfeff" stroke="black" d="M1384.08,-255.62C1384.08,-255.62 1333.67,-255.62 1333.67,-255.62 1330.46,-255.62 1327.25,-252.42 1327.25,-249.21 1327.25,-249.21 1327.25,-242.79 1327.25,-242.79 1327.25,-239.58 1330.46,-236.38 1333.67,-236.38 1333.67,-236.38 1384.08,-236.38 1384.08,-236.38 1387.29,-236.38 1390.5,-239.58 1390.5,-242.79 1390.5,-242.79 1390.5,-249.21 1390.5,-249.21 1390.5,-252.42 1387.29,-255.62 1384.08,-255.62"/>
<text text-anchor="start" x="1335.25" y="-243.07" font-family="Helvetica,sans-Serif" font-size="9.00">Metadata.ts</text>
</a>
</g>
</g>
<!-- src/domain/entities/Video.ts -->
<g id="node17" class="node">
<title>src/domain/entities/Video.ts</title>
<g id="a_node17"><a xlink:href="src/domain/entities/Video.ts" xlink:title="Video.ts">
<path fill="#ddfeff" stroke="black" d="M1379.46,-286.62C1379.46,-286.62 1338.29,-286.62 1338.29,-286.62 1335.08,-286.62 1331.88,-283.42 1331.88,-280.21 1331.88,-280.21 1331.88,-273.79 1331.88,-273.79 1331.88,-270.58 1335.08,-267.38 1338.29,-267.38 1338.29,-267.38 1379.46,-267.38 1379.46,-267.38 1382.67,-267.38 1385.88,-270.58 1385.88,-273.79 1385.88,-273.79 1385.88,-280.21 1385.88,-280.21 1385.88,-283.42 1382.67,-286.62 1379.46,-286.62"/>
<text text-anchor="start" x="1342.38" y="-274.07" font-family="Helvetica,sans-Serif" font-size="9.00">Video.ts</text>
</a>
</g>
</g>
<!-- src/domain/index.ts -->
<g id="node18" class="node">
<title>src/domain/index.ts</title>
<g id="a_node18"><a xlink:href="src/domain/index.ts" xlink:title="index.ts">
<path fill="#ddfeff" stroke="black" d="M1125.33,-243.62C1125.33,-243.62 1084.17,-243.62 1084.17,-243.62 1080.96,-243.62 1077.75,-240.42 1077.75,-237.21 1077.75,-237.21 1077.75,-230.79 1077.75,-230.79 1077.75,-227.58 1080.96,-224.38 1084.17,-224.38 1084.17,-224.38 1125.33,-224.38 1125.33,-224.38 1128.54,-224.38 1131.75,-227.58 1131.75,-230.79 1131.75,-230.79 1131.75,-237.21 1131.75,-237.21 1131.75,-240.42 1128.54,-243.62 1125.33,-243.62"/>
<text text-anchor="start" x="1089" y="-231.07" font-family="Helvetica,sans-Serif" font-size="9.00">index.ts</text>
</a>
</g>
</g>
<!-- src/domain/index.ts&#45;&gt;src/domain/constants/index.ts -->
<g id="edge13" class="edge">
<title>src/domain/index.ts&#45;&gt;src/domain/constants/index.ts</title>
<path fill="none" stroke="#000000" stroke-width="2" stroke-opacity="0.200000" d="M1128.5,-223.88C1152.35,-213.27 1189.97,-196.54 1216.49,-184.74"/>
<polygon fill="#000000" fill-opacity="0.200000" stroke="#000000" stroke-width="2" stroke-opacity="0.200000" points="1217.28,-186.68 1221.91,-182.33 1215.58,-182.85 1217.28,-186.68"/>
</g>
<!-- src/domain/index.ts&#45;&gt;src/domain/entities/Metadata.ts -->
<g id="edge14" class="edge">
<title>src/domain/index.ts&#45;&gt;src/domain/entities/Metadata.ts</title>
<path fill="none" stroke="#000000" stroke-opacity="0.200000" d="M1112.95,-244.01C1125.48,-260.47 1153.1,-292.67 1185.5,-305 1211.62,-314.94 1289.8,-322.91 1311.25,-305 1326.51,-292.26 1306.6,-276.33 1319.25,-261 1319.78,-260.36 1320.33,-259.75 1320.92,-259.17"/>
<polygon fill="none" stroke="#000000" stroke-opacity="0.200000" points="1322.17,-260.85 1325.6,-255.5 1319.58,-257.54 1322.17,-260.85"/>
</g>
<!-- src/domain/index.ts&#45;&gt;src/domain/entities/Video.ts -->
<g id="edge15" class="edge">
<title>src/domain/index.ts&#45;&gt;src/domain/entities/Video.ts</title>
<path fill="none" stroke="#000000" stroke-opacity="0.200000" d="M1111.87,-244.08C1123.54,-262.17 1150.91,-299.64 1185.5,-314 1237.12,-335.43 1258.48,-332.4 1311.25,-314 1323.86,-309.61 1335.61,-300.22 1344.17,-292.01"/>
<polygon fill="none" stroke="#000000" stroke-opacity="0.200000" points="1345.24,-293.9 1347.99,-288.17 1342.27,-290.94 1345.24,-293.9"/>
</g>
<!-- src/domain/repositories/IMetadataRepository.ts -->
<g id="node19" class="node">
<title>src/domain/repositories/IMetadataRepository.ts</title>
<g id="a_node19"><a xlink:href="src/domain/repositories/IMetadataRepository.ts" xlink:title="IMetadataRepository.ts">
<path fill="#ddfeff" stroke="black" d="M1296.83,-243.62C1296.83,-243.62 1199.92,-243.62 1199.92,-243.62 1196.71,-243.62 1193.5,-240.42 1193.5,-237.21 1193.5,-237.21 1193.5,-230.79 1193.5,-230.79 1193.5,-227.58 1196.71,-224.38 1199.92,-224.38 1199.92,-224.38 1296.83,-224.38 1296.83,-224.38 1300.04,-224.38 1303.25,-227.58 1303.25,-230.79 1303.25,-230.79 1303.25,-237.21 1303.25,-237.21 1303.25,-240.42 1300.04,-243.62 1296.83,-243.62"/>
<text text-anchor="start" x="1201.5" y="-231.07" font-family="Helvetica,sans-Serif" font-size="9.00">IMetadataRepository.ts</text>
</a>
</g>
</g>
<!-- src/domain/index.ts&#45;&gt;src/domain/repositories/IMetadataRepository.ts -->
<g id="edge16" class="edge">
<title>src/domain/index.ts&#45;&gt;src/domain/repositories/IMetadataRepository.ts</title>
<path fill="none" stroke="#000000" stroke-opacity="0.200000" d="M1132.06,-234C1147.17,-234 1166.83,-234 1185.62,-234"/>
<polygon fill="none" stroke="#000000" stroke-opacity="0.200000" points="1185.54,-236.1 1191.54,-234 1185.54,-231.9 1185.54,-236.1"/>
</g>
<!-- src/domain/repositories/IVideoRepository.ts -->
<g id="node20" class="node">
<title>src/domain/repositories/IVideoRepository.ts</title>
<g id="a_node20"><a xlink:href="src/domain/repositories/IVideoRepository.ts" xlink:title="IVideoRepository.ts">
<path fill="#ddfeff" stroke="black" d="M1289.71,-274.62C1289.71,-274.62 1207.04,-274.62 1207.04,-274.62 1203.83,-274.62 1200.62,-271.42 1200.62,-268.21 1200.62,-268.21 1200.62,-261.79 1200.62,-261.79 1200.62,-258.58 1203.83,-255.38 1207.04,-255.38 1207.04,-255.38 1289.71,-255.38 1289.71,-255.38 1292.92,-255.38 1296.12,-258.58 1296.12,-261.79 1296.12,-261.79 1296.12,-268.21 1296.12,-268.21 1296.12,-271.42 1292.92,-274.62 1289.71,-274.62"/>
<text text-anchor="start" x="1208.62" y="-262.07" font-family="Helvetica,sans-Serif" font-size="9.00">IVideoRepository.ts</text>
</a>
</g>
</g>
<!-- src/domain/index.ts&#45;&gt;src/domain/repositories/IVideoRepository.ts -->
<g id="edge17" class="edge">
<title>src/domain/index.ts&#45;&gt;src/domain/repositories/IVideoRepository.ts</title>
<path fill="none" stroke="#000000" stroke-opacity="0.200000" d="M1132.06,-239.76C1149.45,-243.57 1172.87,-248.69 1194.05,-253.33"/>
<polygon fill="none" stroke="#000000" stroke-opacity="0.200000" points="1193.35,-255.32 1199.66,-254.56 1194.25,-251.22 1193.35,-255.32"/>
</g>
<!-- src/domain/repositories/IMetadataRepository.ts&#45;&gt;src/domain/entities/Metadata.ts -->
<g id="edge18" class="edge">
<title>src/domain/repositories/IMetadataRepository.ts&#45;&gt;src/domain/entities/Metadata.ts</title>
<path fill="none" stroke="#000000" stroke-opacity="0.200000" d="M1303.62,-240C1308.96,-240.59 1314.3,-241.18 1319.44,-241.75"/>
<polygon fill="none" stroke="#000000" stroke-opacity="0.200000" points="1319.08,-243.82 1325.28,-242.39 1319.55,-239.65 1319.08,-243.82"/>
</g>
<!-- src/domain/repositories/IVideoRepository.ts&#45;&gt;src/domain/entities/Video.ts -->
<g id="edge19" class="edge">
<title>src/domain/repositories/IVideoRepository.ts&#45;&gt;src/domain/entities/Video.ts</title>
<path fill="none" stroke="#000000" stroke-opacity="0.200000" d="M1296.33,-270.19C1305.64,-271.22 1315.23,-272.28 1323.99,-273.25"/>
<polygon fill="none" stroke="#000000" stroke-opacity="0.200000" points="1323.75,-275.34 1329.95,-273.91 1324.22,-271.16 1323.75,-275.34"/>
</g>
<!-- src/infrastructure/database/DatabaseConnection.ts -->
<g id="node21" class="node">
<title>src/infrastructure/database/DatabaseConnection.ts</title>
<g id="a_node21"><a xlink:href="src/infrastructure/database/DatabaseConnection.ts" xlink:title="DatabaseConnection.ts">
<path fill="#ddfeff" stroke="black" d="M1155.08,-66.62C1155.08,-66.62 1054.42,-66.62 1054.42,-66.62 1051.21,-66.62 1048,-63.42 1048,-60.21 1048,-60.21 1048,-53.79 1048,-53.79 1048,-50.58 1051.21,-47.38 1054.42,-47.38 1054.42,-47.38 1155.08,-47.38 1155.08,-47.38 1158.29,-47.38 1161.5,-50.58 1161.5,-53.79 1161.5,-53.79 1161.5,-60.21 1161.5,-60.21 1161.5,-63.42 1158.29,-66.62 1155.08,-66.62"/>
<text text-anchor="start" x="1056" y="-54.08" font-family="Helvetica,sans-Serif" font-size="9.00">DatabaseConnection.ts</text>
</a>
</g>
</g>
<!-- src/infrastructure/repository/MetadataRepository.ts&#45;&gt;src/domain/index.ts -->
<g id="edge23" class="edge">
<title>src/infrastructure/repository/MetadataRepository.ts&#45;&gt;src/domain/index.ts</title>
<path fill="none" stroke="#000000" stroke-width="2" stroke-opacity="0.200000" d="M979.54,-83.07C1001.66,-109.95 1062.28,-183.61 1089.82,-217.07"/>
<polygon fill="#000000" fill-opacity="0.200000" stroke="#000000" stroke-width="2" stroke-opacity="0.200000" points="1088.11,-218.3 1093.54,-221.6 1091.35,-215.63 1088.11,-218.3"/>
</g>
<!-- src/infrastructure/repository/MetadataRepository.ts&#45;&gt;src/infrastructure/database/DatabaseConnection.ts -->
<g id="edge22" class="edge">
<title>src/infrastructure/repository/MetadataRepository.ts&#45;&gt;src/infrastructure/database/DatabaseConnection.ts</title>
<path fill="none" stroke="#000000" stroke-width="2" stroke-opacity="0.200000" d="M1024.38,-66.58C1029.15,-66.01 1034.01,-65.42 1038.87,-64.83"/>
<polygon fill="#000000" fill-opacity="0.200000" stroke="#000000" stroke-width="2" stroke-opacity="0.200000" points="1038.86,-66.95 1044.57,-64.15 1038.36,-62.78 1038.86,-66.95"/>
</g>
<!-- src/infrastructure/repository/VideoRepository.ts&#45;&gt;src/domain/index.ts -->
<g id="edge25" class="edge">
<title>src/infrastructure/repository/VideoRepository.ts&#45;&gt;src/domain/index.ts</title>
<path fill="none" stroke="#000000" stroke-width="2" stroke-opacity="0.200000" d="M1017.16,-47.23C1022.71,-49.53 1027.87,-52.68 1032,-57 1044.53,-70.1 1034.36,-79.77 1040,-97 1054.6,-141.57 1079.9,-190.71 1093.83,-216.29"/>
<polygon fill="#000000" fill-opacity="0.200000" stroke="#000000" stroke-width="2" stroke-opacity="0.200000" points="1091.9,-217.13 1096.63,-221.38 1095.58,-215.11 1091.9,-217.13"/>
</g>
<!-- src/infrastructure/repository/VideoRepository.ts&#45;&gt;src/infrastructure/database/DatabaseConnection.ts -->
<g id="edge24" class="edge">
<title>src/infrastructure/repository/VideoRepository.ts&#45;&gt;src/infrastructure/database/DatabaseConnection.ts</title>
<path fill="none" stroke="#000000" stroke-width="2" stroke-opacity="0.200000" d="M1017.22,-47.2C1024.31,-48.01 1031.75,-48.85 1039.15,-49.69"/>
<polygon fill="#000000" fill-opacity="0.200000" stroke="#000000" stroke-width="2" stroke-opacity="0.200000" points="1038.61,-51.74 1044.81,-50.33 1039.08,-47.57 1038.61,-51.74"/>
</g>
<!-- src/main.ts -->
<g id="node24" class="node">
<title>src/main.ts</title>
<g id="a_node24"><a xlink:href="src/main.ts" xlink:title="main.ts">
<path fill="#ddfeff" stroke="black" d="M63.58,-201.62C63.58,-201.62 22.42,-201.62 22.42,-201.62 19.21,-201.62 16,-198.42 16,-195.21 16,-195.21 16,-188.79 16,-188.79 16,-185.58 19.21,-182.38 22.42,-182.38 22.42,-182.38 63.58,-182.38 63.58,-182.38 66.79,-182.38 70,-185.58 70,-188.79 70,-188.79 70,-195.21 70,-195.21 70,-198.42 66.79,-201.62 63.58,-201.62"/>
<text text-anchor="start" x="27.62" y="-189.07" font-family="Helvetica,sans-Serif" font-size="9.00">main.ts</text>
</a>
</g>
</g>
<!-- src/main.ts&#45;&gt;src/App.vue -->
<g id="edge26" class="edge">
<title>src/main.ts&#45;&gt;src/App.vue</title>
<path fill="none" stroke="#000000" stroke-width="2" stroke-opacity="0.200000" d="M70.44,-192C71.58,-192 72.74,-192 73.9,-192"/>
<polygon fill="#000000" fill-opacity="0.200000" stroke="#000000" stroke-width="2" stroke-opacity="0.200000" points="73.77,-194.1 79.77,-192 73.77,-189.9 73.77,-194.1"/>
</g>
</g>
</svg>
