<?xml version="1.0" encoding="UTF-8" standalone="no"?>
<!DOCTYPE svg PUBLIC "-//W3C//DTD SVG 1.1//EN"
 "http://www.w3.org/Graphics/SVG/1.1/DTD/svg11.dtd">
<!-- Generated by graphviz version 9.0.0 (20230911.1827)
 -->
<!-- Title: dependency&#45;cruiser output Pages: 1 -->
<svg width="1600pt" height="630pt"
 viewBox="0.00 0.00 1600.25 630.00" xmlns="http://www.w3.org/2000/svg" xmlns:xlink="http://www.w3.org/1999/xlink">
<g id="graph0" class="graph" transform="scale(1 1) rotate(0) translate(4 626)">
<title>dependency&#45;cruiser output</title>
<polygon fill="white" stroke="none" points="-4,4 -4,-626 1596.25,-626 1596.25,4 -4,4"/>
<g id="clust1" class="cluster">
<title>cluster_src</title>
<path fill="#ffffff" stroke="black" stroke-width="2" d="M20,-8C20,-8 1572.25,-8 1572.25,-8 1578.25,-8 1584.25,-14 1584.25,-20 1584.25,-20 1584.25,-602 1584.25,-602 1584.25,-608 1578.25,-614 1572.25,-614 1572.25,-614 20,-614 20,-614 14,-614 8,-608 8,-602 8,-602 8,-20 8,-20 8,-14 14,-8 20,-8"/>
<text text-anchor="middle" x="796.12" y="-601.45" font-family="Helvetica,sans-Serif" font-weight="bold" font-size="9.00">src</text>
</g>
<g id="clust2" class="cluster">
<title>cluster_src/application</title>
<path fill="#ffffff" stroke="black" stroke-width="2" d="M512.25,-170C512.25,-170 957.75,-170 957.75,-170 963.75,-170 969.75,-176 969.75,-182 969.75,-182 969.75,-285 969.75,-285 969.75,-291 963.75,-297 957.75,-297 957.75,-297 512.25,-297 512.25,-297 506.25,-297 500.25,-291 500.25,-285 500.25,-285 500.25,-182 500.25,-182 500.25,-176 506.25,-170 512.25,-170"/>
<text text-anchor="middle" x="735" y="-284.45" font-family="Helvetica,sans-Serif" font-weight="bold" font-size="9.00">application</text>
</g>
<g id="clust3" class="cluster">
<title>cluster_src/application/services</title>
<path fill="#ffffff" stroke="black" stroke-width="2" d="M582.25,-184C582.25,-184 949.75,-184 949.75,-184 955.75,-184 961.75,-190 961.75,-196 961.75,-196 961.75,-258 961.75,-258 961.75,-264 955.75,-270 949.75,-270 949.75,-270 582.25,-270 582.25,-270 576.25,-270 570.25,-264 570.25,-258 570.25,-258 570.25,-196 570.25,-196 570.25,-190 576.25,-184 582.25,-184"/>
<text text-anchor="middle" x="766" y="-257.45" font-family="Helvetica,sans-Serif" font-weight="bold" font-size="9.00">services</text>
</g>
<g id="clust4" class="cluster">
<title>cluster_src/components</title>
<path fill="#ffffff" stroke="black" stroke-width="2" d="M265.25,-232C265.25,-232 480.25,-232 480.25,-232 486.25,-232 492.25,-238 492.25,-244 492.25,-244 492.25,-401 492.25,-401 492.25,-407 486.25,-413 480.25,-413 480.25,-413 265.25,-413 265.25,-413 259.25,-413 253.25,-407 253.25,-401 253.25,-401 253.25,-244 253.25,-244 253.25,-238 259.25,-232 265.25,-232"/>
<text text-anchor="middle" x="372.75" y="-400.45" font-family="Helvetica,sans-Serif" font-weight="bold" font-size="9.00">components</text>
</g>
<g id="clust5" class="cluster">
<title>cluster_src/components/inputs</title>
<path fill="#ffffff" stroke="black" stroke-width="2" d="M292.38,-240C292.38,-240 352.12,-240 352.12,-240 358.12,-240 364.12,-246 364.12,-252 364.12,-252 364.12,-283 364.12,-283 364.12,-289 358.12,-295 352.12,-295 352.12,-295 292.38,-295 292.38,-295 286.38,-295 280.38,-289 280.38,-283 280.38,-283 280.38,-252 280.38,-252 280.38,-246 286.38,-240 292.38,-240"/>
<text text-anchor="middle" x="322.25" y="-282.45" font-family="Helvetica,sans-Serif" font-weight="bold" font-size="9.00">inputs</text>
</g>
<g id="clust6" class="cluster">
<title>cluster_src/components/utils</title>
<path fill="#ffffff" stroke="black" stroke-width="2" d="M273.25,-303C273.25,-303 371.25,-303 371.25,-303 377.25,-303 383.25,-309 383.25,-315 383.25,-315 383.25,-346 383.25,-346 383.25,-352 377.25,-358 371.25,-358 371.25,-358 273.25,-358 273.25,-358 267.25,-358 261.25,-352 261.25,-346 261.25,-346 261.25,-315 261.25,-315 261.25,-309 267.25,-303 273.25,-303"/>
<text text-anchor="middle" x="322.25" y="-345.45" font-family="Helvetica,sans-Serif" font-weight="bold" font-size="9.00">utils</text>
</g>
<g id="clust7" class="cluster">
<title>cluster_src/domain</title>
<path fill="#ffffff" stroke="black" stroke-width="2" d="M1151,-145C1151,-145 1564.25,-145 1564.25,-145 1570.25,-145 1576.25,-151 1576.25,-157 1576.25,-157 1576.25,-575 1576.25,-575 1576.25,-581 1570.25,-587 1564.25,-587 1564.25,-587 1151,-587 1151,-587 1145,-587 1139,-581 1139,-575 1139,-575 1139,-157 1139,-157 1139,-151 1145,-145 1151,-145"/>
<text text-anchor="middle" x="1357.62" y="-574.45" font-family="Helvetica,sans-Serif" font-weight="bold" font-size="9.00">domain</text>
</g>
<g id="clust8" class="cluster">
<title>cluster_src/domain/constants</title>
<path fill="#ffffff" stroke="black" stroke-width="2" d="M1294.62,-153C1294.62,-153 1340.62,-153 1340.62,-153 1346.62,-153 1352.62,-159 1352.62,-165 1352.62,-165 1352.62,-196 1352.62,-196 1352.62,-202 1346.62,-208 1340.62,-208 1340.62,-208 1294.62,-208 1294.62,-208 1288.62,-208 1282.62,-202 1282.62,-196 1282.62,-196 1282.62,-165 1282.62,-165 1282.62,-159 1288.62,-153 1294.62,-153"/>
<text text-anchor="middle" x="1317.62" y="-195.45" font-family="Helvetica,sans-Serif" font-weight="bold" font-size="9.00">constants</text>
</g>
<g id="clust11" class="cluster">
<title>cluster_src/domain/services</title>
<path fill="#ffffff" stroke="black" stroke-width="2" d="M1275.75,-411C1275.75,-411 1359.5,-411 1359.5,-411 1365.5,-411 1371.5,-417 1371.5,-423 1371.5,-423 1371.5,-454 1371.5,-454 1371.5,-460 1365.5,-466 1359.5,-466 1359.5,-466 1275.75,-466 1275.75,-466 1269.75,-466 1263.75,-460 1263.75,-454 1263.75,-454 1263.75,-423 1263.75,-423 1263.75,-417 1269.75,-411 1275.75,-411"/>
<text text-anchor="middle" x="1317.62" y="-453.45" font-family="Helvetica,sans-Serif" font-weight="bold" font-size="9.00">services</text>
</g>
<g id="clust9" class="cluster">
<title>cluster_src/domain/entities</title>
<path fill="#ffffff" stroke="black" stroke-width="2" d="M1278.38,-222C1278.38,-222 1556.25,-222 1556.25,-222 1562.25,-222 1568.25,-228 1568.25,-234 1568.25,-234 1568.25,-296 1568.25,-296 1568.25,-302 1562.25,-308 1556.25,-308 1556.25,-308 1278.38,-308 1278.38,-308 1272.38,-308 1266.38,-302 1266.38,-296 1266.38,-296 1266.38,-234 1266.38,-234 1266.38,-228 1272.38,-222 1278.38,-222"/>
<text text-anchor="middle" x="1417.31" y="-295.45" font-family="Helvetica,sans-Serif" font-weight="bold" font-size="9.00">entities</text>
</g>
<g id="clust12" class="cluster">
<title>cluster_src/domain/valueObjects</title>
<path fill="#ffffff" stroke="black" stroke-width="2" d="M1272.38,-474C1272.38,-474 1362.88,-474 1362.88,-474 1368.88,-474 1374.88,-480 1374.88,-486 1374.88,-486 1374.88,-548 1374.88,-548 1374.88,-554 1368.88,-560 1362.88,-560 1362.88,-560 1272.38,-560 1272.38,-560 1266.38,-560 1260.38,-554 1260.38,-548 1260.38,-548 1260.38,-486 1260.38,-486 1260.38,-480 1266.38,-474 1272.38,-474"/>
<text text-anchor="middle" x="1317.62" y="-547.45" font-family="Helvetica,sans-Serif" font-weight="bold" font-size="9.00">valueObjects</text>
</g>
<g id="clust10" class="cluster">
<title>cluster_src/domain/repositories</title>
<path fill="#ffffff" stroke="black" stroke-width="2" d="M1266.75,-317C1266.75,-317 1368.5,-317 1368.5,-317 1374.5,-317 1380.5,-323 1380.5,-329 1380.5,-329 1380.5,-391 1380.5,-391 1380.5,-397 1374.5,-403 1368.5,-403 1368.5,-403 1266.75,-403 1266.75,-403 1260.75,-403 1254.75,-397 1254.75,-391 1254.75,-391 1254.75,-329 1254.75,-329 1254.75,-323 1260.75,-317 1266.75,-317"/>
<text text-anchor="middle" x="1317.62" y="-390.45" font-family="Helvetica,sans-Serif" font-weight="bold" font-size="9.00">repositories</text>
</g>
<g id="clust13" class="cluster">
<title>cluster_src/infrastructure</title>
<path fill="#ffffff" stroke="black" stroke-width="2" d="M867.62,-16C867.62,-16 1234.75,-16 1234.75,-16 1240.75,-16 1246.75,-22 1246.75,-28 1246.75,-28 1246.75,-125 1246.75,-125 1246.75,-131 1240.75,-137 1234.75,-137 1234.75,-137 867.62,-137 867.62,-137 861.62,-137 855.62,-131 855.62,-125 855.62,-125 855.62,-28 855.62,-28 855.62,-22 861.62,-16 867.62,-16"/>
<text text-anchor="middle" x="1051.19" y="-124.45" font-family="Helvetica,sans-Serif" font-weight="bold" font-size="9.00">infrastructure</text>
</g>
<g id="clust15" class="cluster">
<title>cluster_src/infrastructure/repository</title>
<path fill="#ffffff" stroke="black" stroke-width="2" d="M989.75,-24C989.75,-24 1089.25,-24 1089.25,-24 1095.25,-24 1101.25,-30 1101.25,-36 1101.25,-36 1101.25,-98 1101.25,-98 1101.25,-104 1095.25,-110 1089.25,-110 1089.25,-110 989.75,-110 989.75,-110 983.75,-110 977.75,-104 977.75,-98 977.75,-98 977.75,-36 977.75,-36 977.75,-30 983.75,-24 989.75,-24"/>
<text text-anchor="middle" x="1039.5" y="-97.45" font-family="Helvetica,sans-Serif" font-weight="bold" font-size="9.00">repository</text>
</g>
<g id="clust14" class="cluster">
<title>cluster_src/infrastructure/database</title>
<path fill="#ffffff" stroke="black" stroke-width="2" d="M1121.25,-39C1121.25,-39 1226.75,-39 1226.75,-39 1232.75,-39 1238.75,-45 1238.75,-51 1238.75,-51 1238.75,-82 1238.75,-82 1238.75,-88 1232.75,-94 1226.75,-94 1226.75,-94 1121.25,-94 1121.25,-94 1115.25,-94 1109.25,-88 1109.25,-82 1109.25,-82 1109.25,-51 1109.25,-51 1109.25,-45 1115.25,-39 1121.25,-39"/>
<text text-anchor="middle" x="1174" y="-81.45" font-family="Helvetica,sans-Serif" font-weight="bold" font-size="9.00">database</text>
</g>
<g id="clust17" class="cluster">
<title>cluster_src/views</title>
<path fill="#ffffff" stroke="black" stroke-width="2" d="M157,-169C157,-169 233.25,-169 233.25,-169 239.25,-169 245.25,-175 245.25,-181 245.25,-181 245.25,-243 245.25,-243 245.25,-249 239.25,-255 233.25,-255 233.25,-255 157,-255 157,-255 151,-255 145,-249 145,-243 145,-243 145,-181 145,-181 145,-175 151,-169 157,-169"/>
<text text-anchor="middle" x="195.12" y="-242.45" font-family="Helvetica,sans-Serif" font-weight="bold" font-size="9.00">views</text>
</g>
<g id="clust16" class="cluster">
<title>cluster_src/stores</title>
<path fill="#ffffff" stroke="black" stroke-width="2" d="M403.25,-138C403.25,-138 479.5,-138 479.5,-138 485.5,-138 491.5,-144 491.5,-150 491.5,-150 491.5,-212 491.5,-212 491.5,-218 485.5,-224 479.5,-224 479.5,-224 403.25,-224 403.25,-224 397.25,-224 391.25,-218 391.25,-212 391.25,-212 391.25,-150 391.25,-150 391.25,-144 397.25,-138 403.25,-138"/>
<text text-anchor="middle" x="441.38" y="-211.45" font-family="Helvetica,sans-Serif" font-weight="bold" font-size="9.00">stores</text>
</g>
<!-- src/App.vue -->
<g id="node1" class="node">
<title>src/App.vue</title>
<g id="a_node1"><a xlink:href="src/App.vue" xlink:title="App.vue">
<path fill="#41f083" stroke="black" d="M130.58,-227.62C130.58,-227.62 89.42,-227.62 89.42,-227.62 86.21,-227.62 83,-224.42 83,-221.21 83,-221.21 83,-214.79 83,-214.79 83,-211.58 86.21,-208.38 89.42,-208.38 89.42,-208.38 130.58,-208.38 130.58,-208.38 133.79,-208.38 137,-211.58 137,-214.79 137,-214.79 137,-221.21 137,-221.21 137,-224.42 133.79,-227.62 130.58,-227.62"/>
<text text-anchor="start" x="93.88" y="-215.07" font-family="Helvetica,sans-Serif" font-size="9.00">App.vue</text>
</a>
</g>
</g>
<!-- src/components/utils/DiagnosticsPanel.vue -->
<g id="node2" class="node">
<title>src/components/utils/DiagnosticsPanel.vue</title>
<g id="a_node2"><a xlink:href="src/components/utils/DiagnosticsPanel.vue" xlink:title="DiagnosticsPanel.vue">
<path fill="#41f083" stroke="black" d="M368.83,-330.62C368.83,-330.62 275.67,-330.62 275.67,-330.62 272.46,-330.62 269.25,-327.42 269.25,-324.21 269.25,-324.21 269.25,-317.79 269.25,-317.79 269.25,-314.58 272.46,-311.38 275.67,-311.38 275.67,-311.38 368.83,-311.38 368.83,-311.38 372.04,-311.38 375.25,-314.58 375.25,-317.79 375.25,-317.79 375.25,-324.21 375.25,-324.21 375.25,-327.42 372.04,-330.62 368.83,-330.62"/>
<text text-anchor="start" x="277.25" y="-318.07" font-family="Helvetica,sans-Serif" font-size="9.00">DiagnosticsPanel.vue</text>
</a>
</g>
</g>
<!-- src/App.vue&#45;&gt;src/components/utils/DiagnosticsPanel.vue -->
<g id="edge1" class="edge">
<title>src/App.vue&#45;&gt;src/components/utils/DiagnosticsPanel.vue</title>
<path fill="none" stroke="#000000" stroke-width="2" stroke-opacity="0.200000" d="M117.18,-227.81C123.27,-236.78 133.35,-249.85 145,-258 180.75,-282.99 227.47,-299.1 263.83,-308.76"/>
<polygon fill="#000000" fill-opacity="0.200000" stroke="#000000" stroke-width="2" stroke-opacity="0.200000" points="263.09,-310.74 269.43,-310.21 264.14,-306.68 263.09,-310.74"/>
</g>
<!-- src/views/NavBar.vue -->
<g id="node3" class="node">
<title>src/views/NavBar.vue</title>
<g id="a_node3"><a xlink:href="src/views/NavBar.vue" xlink:title="NavBar.vue">
<path fill="#41f083" stroke="black" d="M219.96,-196.62C219.96,-196.62 170.29,-196.62 170.29,-196.62 167.08,-196.62 163.88,-193.42 163.88,-190.21 163.88,-190.21 163.88,-183.79 163.88,-183.79 163.88,-180.58 167.08,-177.38 170.29,-177.38 170.29,-177.38 219.96,-177.38 219.96,-177.38 223.17,-177.38 226.38,-180.58 226.38,-183.79 226.38,-183.79 226.38,-190.21 226.38,-190.21 226.38,-193.42 223.17,-196.62 219.96,-196.62"/>
<text text-anchor="start" x="171.88" y="-184.07" font-family="Helvetica,sans-Serif" font-size="9.00">NavBar.vue</text>
</a>
</g>
</g>
<!-- src/App.vue&#45;&gt;src/views/NavBar.vue -->
<g id="edge2" class="edge">
<title>src/App.vue&#45;&gt;src/views/NavBar.vue</title>
<path fill="none" stroke="#000000" stroke-width="2" stroke-opacity="0.200000" d="M130.93,-208.04C135.5,-205.92 140.37,-203.78 145,-202 148.23,-200.75 151.61,-199.54 155.02,-198.38"/>
<polygon fill="#000000" fill-opacity="0.200000" stroke="#000000" stroke-width="2" stroke-opacity="0.200000" points="155.57,-200.41 160.62,-196.55 154.26,-196.42 155.57,-200.41"/>
</g>
<!-- src/views/VideoGallery.vue -->
<g id="node4" class="node">
<title>src/views/VideoGallery.vue</title>
<g id="a_node4"><a xlink:href="src/views/VideoGallery.vue" xlink:title="VideoGallery.vue">
<path fill="#41f083" stroke="black" d="M230.83,-227.62C230.83,-227.62 159.42,-227.62 159.42,-227.62 156.21,-227.62 153,-224.42 153,-221.21 153,-221.21 153,-214.79 153,-214.79 153,-211.58 156.21,-208.38 159.42,-208.38 159.42,-208.38 230.83,-208.38 230.83,-208.38 234.04,-208.38 237.25,-211.58 237.25,-214.79 237.25,-214.79 237.25,-221.21 237.25,-221.21 237.25,-224.42 234.04,-227.62 230.83,-227.62"/>
<text text-anchor="start" x="161" y="-215.07" font-family="Helvetica,sans-Serif" font-size="9.00">VideoGallery.vue</text>
</a>
</g>
</g>
<!-- src/App.vue&#45;&gt;src/views/VideoGallery.vue -->
<g id="edge3" class="edge">
<title>src/App.vue&#45;&gt;src/views/VideoGallery.vue</title>
<path fill="none" stroke="#000000" stroke-width="2" stroke-opacity="0.200000" d="M137.3,-218C139.42,-218 141.61,-218 143.83,-218"/>
<polygon fill="#000000" fill-opacity="0.200000" stroke="#000000" stroke-width="2" stroke-opacity="0.200000" points="143.47,-220.1 149.47,-218 143.47,-215.9 143.47,-220.1"/>
</g>
<!-- src/stores/appStateStore.ts -->
<g id="node16" class="node">
<title>src/stores/appStateStore.ts</title>
<g id="a_node16"><a xlink:href="src/stores/appStateStore.ts" xlink:title="appStateStore.ts">
<path fill="#ddfeff" stroke="black" d="M477.08,-165.62C477.08,-165.62 405.67,-165.62 405.67,-165.62 402.46,-165.62 399.25,-162.42 399.25,-159.21 399.25,-159.21 399.25,-152.79 399.25,-152.79 399.25,-149.58 402.46,-146.38 405.67,-146.38 405.67,-146.38 477.08,-146.38 477.08,-146.38 480.29,-146.38 483.5,-149.58 483.5,-152.79 483.5,-152.79 483.5,-159.21 483.5,-159.21 483.5,-162.42 480.29,-165.62 477.08,-165.62"/>
<text text-anchor="start" x="407.25" y="-153.07" font-family="Helvetica,sans-Serif" font-size="9.00">appStateStore.ts</text>
</a>
</g>
</g>
<!-- src/components/utils/DiagnosticsPanel.vue&#45;&gt;src/stores/appStateStore.ts -->
<g id="edge19" class="edge">
<title>src/components/utils/DiagnosticsPanel.vue&#45;&gt;src/stores/appStateStore.ts</title>
<path fill="none" stroke="#000000" stroke-width="2" stroke-opacity="0.200000" d="M367.34,-311C373.52,-307.8 379.15,-303.57 383.25,-298 400,-275.21 373.72,-193.19 391.25,-171 391.66,-170.48 392.1,-169.97 392.55,-169.48"/>
<polygon fill="#000000" fill-opacity="0.200000" stroke="#000000" stroke-width="2" stroke-opacity="0.200000" points="393.54,-171.38 396.85,-165.96 390.88,-168.13 393.54,-171.38"/>
</g>
<!-- src/stores/videosStore.ts -->
<g id="node14" class="node">
<title>src/stores/videosStore.ts</title>
<g id="a_node14"><a xlink:href="src/stores/videosStore.ts" xlink:title="videosStore.ts">
<path fill="#ddfeff" stroke="black" d="M472.21,-196.62C472.21,-196.62 410.54,-196.62 410.54,-196.62 407.33,-196.62 404.12,-193.42 404.12,-190.21 404.12,-190.21 404.12,-183.79 404.12,-183.79 404.12,-180.58 407.33,-177.38 410.54,-177.38 410.54,-177.38 472.21,-177.38 472.21,-177.38 475.42,-177.38 478.62,-180.58 478.62,-183.79 478.62,-183.79 478.62,-190.21 478.62,-190.21 478.62,-193.42 475.42,-196.62 472.21,-196.62"/>
<text text-anchor="start" x="412.12" y="-184.07" font-family="Helvetica,sans-Serif" font-size="9.00">videosStore.ts</text>
</a>
</g>
</g>
<!-- src/views/NavBar.vue&#45;&gt;src/stores/videosStore.ts -->
<g id="edge47" class="edge">
<title>src/views/NavBar.vue&#45;&gt;src/stores/videosStore.ts</title>
<path fill="none" stroke="#000000" stroke-width="2" stroke-opacity="0.200000" d="M226.57,-187C268.94,-187 346.03,-187 395.14,-187"/>
<polygon fill="#000000" fill-opacity="0.200000" stroke="#000000" stroke-width="2" stroke-opacity="0.200000" points="394.95,-189.1 400.95,-187 394.95,-184.9 394.95,-189.1"/>
</g>
<!-- src/components/inputs/FileInput.vue -->
<g id="node15" class="node">
<title>src/components/inputs/FileInput.vue</title>
<g id="a_node15"><a xlink:href="src/components/inputs/FileInput.vue" xlink:title="FileInput.vue">
<path fill="#41f083" stroke="black" d="M349.71,-267.62C349.71,-267.62 294.79,-267.62 294.79,-267.62 291.58,-267.62 288.38,-264.42 288.38,-261.21 288.38,-261.21 288.38,-254.79 288.38,-254.79 288.38,-251.58 291.58,-248.38 294.79,-248.38 294.79,-248.38 349.71,-248.38 349.71,-248.38 352.92,-248.38 356.12,-251.58 356.12,-254.79 356.12,-254.79 356.12,-261.21 356.12,-261.21 356.12,-264.42 352.92,-267.62 349.71,-267.62"/>
<text text-anchor="start" x="296.38" y="-255.07" font-family="Helvetica,sans-Serif" font-size="9.00">FileInput.vue</text>
</a>
</g>
</g>
<!-- src/views/NavBar.vue&#45;&gt;src/components/inputs/FileInput.vue -->
<g id="edge45" class="edge">
<title>src/views/NavBar.vue&#45;&gt;src/components/inputs/FileInput.vue</title>
<path fill="none" stroke="#000000" stroke-width="2" stroke-opacity="0.200000" d="M226.63,-194.56C232.94,-196.6 239.43,-199.08 245.25,-202 266.9,-212.88 288.88,-229.86 303.6,-242.28"/>
<polygon fill="#000000" fill-opacity="0.200000" stroke="#000000" stroke-width="2" stroke-opacity="0.200000" points="301.99,-243.67 307.91,-245.98 304.73,-240.48 301.99,-243.67"/>
</g>
<!-- src/views/NavBar.vue&#45;&gt;src/stores/appStateStore.ts -->
<g id="edge46" class="edge">
<title>src/views/NavBar.vue&#45;&gt;src/stores/appStateStore.ts</title>
<path fill="none" stroke="#000000" stroke-width="2" stroke-opacity="0.200000" d="M226.57,-183.14C267.5,-177.94 340.81,-168.64 390.02,-162.39"/>
<polygon fill="#000000" fill-opacity="0.200000" stroke="#000000" stroke-width="2" stroke-opacity="0.200000" points="390.23,-164.48 395.92,-161.64 389.7,-160.31 390.23,-164.48"/>
</g>
<!-- src/components/VideoCard.vue -->
<g id="node12" class="node">
<title>src/components/VideoCard.vue</title>
<g id="a_node12"><a xlink:href="src/components/VideoCard.vue" xlink:title="VideoCard.vue">
<path fill="#41f083" stroke="black" d="M353.83,-385.62C353.83,-385.62 290.67,-385.62 290.67,-385.62 287.46,-385.62 284.25,-382.42 284.25,-379.21 284.25,-379.21 284.25,-372.79 284.25,-372.79 284.25,-369.58 287.46,-366.38 290.67,-366.38 290.67,-366.38 353.83,-366.38 353.83,-366.38 357.04,-366.38 360.25,-369.58 360.25,-372.79 360.25,-372.79 360.25,-379.21 360.25,-379.21 360.25,-382.42 357.04,-385.62 353.83,-385.62"/>
<text text-anchor="start" x="292.25" y="-373.07" font-family="Helvetica,sans-Serif" font-size="9.00">VideoCard.vue</text>
</a>
</g>
</g>
<!-- src/views/VideoGallery.vue&#45;&gt;src/components/VideoCard.vue -->
<g id="edge48" class="edge">
<title>src/views/VideoGallery.vue&#45;&gt;src/components/VideoCard.vue</title>
<path fill="none" stroke="#000000" stroke-width="2" stroke-opacity="0.200000" d="M196.97,-227.77C199.75,-253.79 211.06,-325.18 253.25,-361 259.54,-366.34 267.32,-369.9 275.34,-372.25"/>
<polygon fill="#000000" fill-opacity="0.200000" stroke="#000000" stroke-width="2" stroke-opacity="0.200000" points="274.81,-374.28 281.13,-373.64 275.79,-370.2 274.81,-374.28"/>
</g>
<!-- src/views/VideoGallery.vue&#45;&gt;src/stores/videosStore.ts -->
<g id="edge50" class="edge">
<title>src/views/VideoGallery.vue&#45;&gt;src/stores/videosStore.ts</title>
<path fill="none" stroke="#000000" stroke-width="2" stroke-opacity="0.200000" d="M237.4,-218.38C275.57,-218.02 333.72,-215.66 383.25,-206 390.84,-204.52 398.82,-202.31 406.33,-199.91"/>
<polygon fill="#000000" fill-opacity="0.200000" stroke="#000000" stroke-width="2" stroke-opacity="0.200000" points="406.98,-201.9 412,-198 405.65,-197.92 406.98,-201.9"/>
</g>
<!-- src/views/VideoGallery.vue&#45;&gt;src/stores/appStateStore.ts -->
<g id="edge49" class="edge">
<title>src/views/VideoGallery.vue&#45;&gt;src/stores/appStateStore.ts</title>
<path fill="none" stroke="#000000" stroke-width="2" stroke-opacity="0.200000" d="M237.5,-209.69C284.11,-200.12 356.82,-184.49 383.25,-175 386.99,-173.66 387.56,-172.47 391.25,-171 392.86,-170.36 394.52,-169.72 396.2,-169.1"/>
<polygon fill="#000000" fill-opacity="0.200000" stroke="#000000" stroke-width="2" stroke-opacity="0.200000" points="396.89,-171.08 401.85,-167.12 395.5,-167.12 396.89,-171.08"/>
</g>
<!-- src/application/index.ts -->
<g id="node5" class="node">
<title>src/application/index.ts</title>
<g id="a_node5"><a xlink:href="src/application/index.ts" xlink:title="index.ts">
<path fill="#ddfeff" stroke="black" d="M555.83,-204.62C555.83,-204.62 514.67,-204.62 514.67,-204.62 511.46,-204.62 508.25,-201.42 508.25,-198.21 508.25,-198.21 508.25,-191.79 508.25,-191.79 508.25,-188.58 511.46,-185.38 514.67,-185.38 514.67,-185.38 555.83,-185.38 555.83,-185.38 559.04,-185.38 562.25,-188.58 562.25,-191.79 562.25,-191.79 562.25,-198.21 562.25,-198.21 562.25,-201.42 559.04,-204.62 555.83,-204.62"/>
<text text-anchor="start" x="519.5" y="-192.07" font-family="Helvetica,sans-Serif" font-size="9.00">index.ts</text>
</a>
</g>
</g>
<!-- src/application/services/FiltersService.ts -->
<g id="node6" class="node">
<title>src/application/services/FiltersService.ts</title>
<g id="a_node6"><a xlink:href="src/application/services/FiltersService.ts" xlink:title="FiltersService.ts">
<path fill="#ddfeff" stroke="black" d="M665.83,-242.62C665.83,-242.62 597.42,-242.62 597.42,-242.62 594.21,-242.62 591,-239.42 591,-236.21 591,-236.21 591,-229.79 591,-229.79 591,-226.58 594.21,-223.38 597.42,-223.38 597.42,-223.38 665.83,-223.38 665.83,-223.38 669.04,-223.38 672.25,-226.58 672.25,-229.79 672.25,-229.79 672.25,-236.21 672.25,-236.21 672.25,-239.42 669.04,-242.62 665.83,-242.62"/>
<text text-anchor="start" x="599" y="-230.07" font-family="Helvetica,sans-Serif" font-size="9.00">FiltersService.ts</text>
</a>
</g>
</g>
<!-- src/application/index.ts&#45;&gt;src/application/services/FiltersService.ts -->
<g id="edge4" class="edge">
<title>src/application/index.ts&#45;&gt;src/application/services/FiltersService.ts</title>
<path fill="none" stroke="#000000" stroke-width="2" stroke-opacity="0.200000" d="M548.86,-205.09C555.01,-209.6 562.7,-214.64 570.25,-218 574.06,-219.7 578.09,-221.22 582.19,-222.59"/>
<polygon fill="#000000" fill-opacity="0.200000" stroke="#000000" stroke-width="2" stroke-opacity="0.200000" points="581.41,-224.55 587.76,-224.3 582.64,-220.53 581.41,-224.55"/>
</g>
<!-- src/application/services/VideoMetadataService.ts -->
<g id="node7" class="node">
<title>src/application/services/VideoMetadataService.ts</title>
<g id="a_node7"><a xlink:href="src/application/services/VideoMetadataService.ts" xlink:title="VideoMetadataService.ts">
<path fill="#ddfeff" stroke="black" d="M808.08,-211.62C808.08,-211.62 704.42,-211.62 704.42,-211.62 701.21,-211.62 698,-208.42 698,-205.21 698,-205.21 698,-198.79 698,-198.79 698,-195.58 701.21,-192.38 704.42,-192.38 704.42,-192.38 808.08,-192.38 808.08,-192.38 811.29,-192.38 814.5,-195.58 814.5,-198.79 814.5,-198.79 814.5,-205.21 814.5,-205.21 814.5,-208.42 811.29,-211.62 808.08,-211.62"/>
<text text-anchor="start" x="706" y="-199.07" font-family="Helvetica,sans-Serif" font-size="9.00">VideoMetadataService.ts</text>
</a>
</g>
</g>
<!-- src/application/index.ts&#45;&gt;src/application/services/VideoMetadataService.ts -->
<g id="edge5" class="edge">
<title>src/application/index.ts&#45;&gt;src/application/services/VideoMetadataService.ts</title>
<path fill="none" stroke="#000000" stroke-width="2" stroke-opacity="0.200000" d="M562.47,-187.34C565.08,-186.8 567.71,-186.33 570.25,-186 620.82,-179.42 634.32,-180.3 685,-186 692.94,-186.89 701.3,-188.34 709.36,-190"/>
<polygon fill="#000000" fill-opacity="0.200000" stroke="#000000" stroke-width="2" stroke-opacity="0.200000" points="708.7,-192.01 715.01,-191.23 709.59,-187.9 708.7,-192.01"/>
</g>
<!-- src/application/services/VideoParserService.ts -->
<g id="node8" class="node">
<title>src/application/services/VideoParserService.ts</title>
<g id="a_node8"><a xlink:href="src/application/services/VideoParserService.ts" xlink:title="VideoParserService.ts">
<path fill="#ddfeff" stroke="black" d="M678.58,-211.62C678.58,-211.62 584.67,-211.62 584.67,-211.62 581.46,-211.62 578.25,-208.42 578.25,-205.21 578.25,-205.21 578.25,-198.79 578.25,-198.79 578.25,-195.58 581.46,-192.38 584.67,-192.38 584.67,-192.38 678.58,-192.38 678.58,-192.38 681.79,-192.38 685,-195.58 685,-198.79 685,-198.79 685,-205.21 685,-205.21 685,-208.42 681.79,-211.62 678.58,-211.62"/>
<text text-anchor="start" x="586.25" y="-199.07" font-family="Helvetica,sans-Serif" font-size="9.00">VideoParserService.ts</text>
</a>
</g>
</g>
<!-- src/application/index.ts&#45;&gt;src/application/services/VideoParserService.ts -->
<g id="edge6" class="edge">
<title>src/application/index.ts&#45;&gt;src/application/services/VideoParserService.ts</title>
<path fill="none" stroke="#000000" stroke-width="2" stroke-opacity="0.200000" d="M562.54,-196.95C564.64,-197.11 566.81,-197.27 569.02,-197.43"/>
<polygon fill="#000000" fill-opacity="0.200000" stroke="#000000" stroke-width="2" stroke-opacity="0.200000" points="568.6,-199.51 574.74,-197.85 568.91,-195.32 568.6,-199.51"/>
</g>
<!-- src/domain/index.ts -->
<g id="node9" class="node">
<title>src/domain/index.ts</title>
<g id="a_node9"><a xlink:href="src/domain/index.ts" xlink:title="index.ts">
<path fill="#ddfeff" stroke="black" d="M1194.58,-303.62C1194.58,-303.62 1153.42,-303.62 1153.42,-303.62 1150.21,-303.62 1147,-300.42 1147,-297.21 1147,-297.21 1147,-290.79 1147,-290.79 1147,-287.58 1150.21,-284.38 1153.42,-284.38 1153.42,-284.38 1194.58,-284.38 1194.58,-284.38 1197.79,-284.38 1201,-287.58 1201,-290.79 1201,-290.79 1201,-297.21 1201,-297.21 1201,-300.42 1197.79,-303.62 1194.58,-303.62"/>
<text text-anchor="start" x="1158.25" y="-291.07" font-family="Helvetica,sans-Serif" font-size="9.00">index.ts</text>
</a>
</g>
</g>
<!-- src/application/services/FiltersService.ts&#45;&gt;src/domain/index.ts -->
<g id="edge7" class="edge">
<title>src/application/services/FiltersService.ts&#45;&gt;src/domain/index.ts</title>
<path fill="none" stroke="#000000" stroke-opacity="0.200000" d="M646.9,-243.02C659.64,-251.37 679.16,-262.72 698,-268 781.14,-291.29 1045.33,-293.88 1139.37,-294.05"/>
<polygon fill="none" stroke="#000000" stroke-opacity="0.200000" points="1139.11,-296.15 1145.11,-294.05 1139.12,-291.95 1139.11,-296.15"/>
</g>
<!-- src/application/services/VideoMetadataService.ts&#45;&gt;src/domain/index.ts -->
<g id="edge9" class="edge">
<title>src/application/services/VideoMetadataService.ts&#45;&gt;src/domain/index.ts</title>
<path fill="none" stroke="#000000" stroke-opacity="0.200000" d="M774.83,-212C788.68,-219.38 808.73,-228.98 827.5,-234 945.57,-265.54 983.42,-227.57 1101.25,-260 1118.27,-264.68 1136.21,-273.19 1149.9,-280.52"/>
<polygon fill="none" stroke="#000000" stroke-opacity="0.200000" points="1148.65,-282.23 1154.93,-283.28 1150.67,-278.55 1148.65,-282.23"/>
</g>
<!-- src/application/services/VideoStorageDtoMapper.ts -->
<g id="node10" class="node">
<title>src/application/services/VideoStorageDtoMapper.ts</title>
<g id="a_node10"><a xlink:href="src/application/services/VideoStorageDtoMapper.ts" xlink:title="VideoStorageDtoMapper.ts">
<path fill="#ddfeff" stroke="black" d="M947.33,-227.62C947.33,-227.62 833.92,-227.62 833.92,-227.62 830.71,-227.62 827.5,-224.42 827.5,-221.21 827.5,-221.21 827.5,-214.79 827.5,-214.79 827.5,-211.58 830.71,-208.38 833.92,-208.38 833.92,-208.38 947.33,-208.38 947.33,-208.38 950.54,-208.38 953.75,-211.58 953.75,-214.79 953.75,-214.79 953.75,-221.21 953.75,-221.21 953.75,-224.42 950.54,-227.62 947.33,-227.62"/>
<text text-anchor="start" x="835.5" y="-215.07" font-family="Helvetica,sans-Serif" font-size="9.00">VideoStorageDtoMapper.ts</text>
</a>
</g>
</g>
<!-- src/application/services/VideoMetadataService.ts&#45;&gt;src/application/services/VideoStorageDtoMapper.ts -->
<g id="edge8" class="edge">
<title>src/application/services/VideoMetadataService.ts&#45;&gt;src/application/services/VideoStorageDtoMapper.ts</title>
<path fill="none" stroke="#000000" stroke-width="2" stroke-opacity="0.200000" d="M814.93,-208.97C816.06,-209.11 817.2,-209.25 818.34,-209.38"/>
<polygon fill="#000000" fill-opacity="0.200000" stroke="#000000" stroke-width="2" stroke-opacity="0.200000" points="817.9,-211.45 824.11,-210.08 818.41,-207.28 817.9,-211.45"/>
</g>
<!-- src/infrastructure/index.ts -->
<g id="node11" class="node">
<title>src/infrastructure/index.ts</title>
<g id="a_node11"><a xlink:href="src/infrastructure/index.ts" xlink:title="index.ts">
<path fill="#ddfeff" stroke="black" d="M911.21,-82.62C911.21,-82.62 870.04,-82.62 870.04,-82.62 866.83,-82.62 863.62,-79.42 863.62,-76.21 863.62,-76.21 863.62,-69.79 863.62,-69.79 863.62,-66.58 866.83,-63.38 870.04,-63.38 870.04,-63.38 911.21,-63.38 911.21,-63.38 914.42,-63.38 917.62,-66.58 917.62,-69.79 917.62,-69.79 917.62,-76.21 917.62,-76.21 917.62,-79.42 914.42,-82.62 911.21,-82.62"/>
<text text-anchor="start" x="874.88" y="-70.08" font-family="Helvetica,sans-Serif" font-size="9.00">index.ts</text>
</a>
</g>
</g>
<!-- src/application/services/VideoMetadataService.ts&#45;&gt;src/infrastructure/index.ts -->
<g id="edge10" class="edge">
<title>src/application/services/VideoMetadataService.ts&#45;&gt;src/infrastructure/index.ts</title>
<path fill="none" stroke="#000000" stroke-width="2" stroke-opacity="0.200000" d="M767.64,-191.88C790.45,-169.65 845.1,-116.39 872.85,-89.35"/>
<polygon fill="#000000" fill-opacity="0.200000" stroke="#000000" stroke-width="2" stroke-opacity="0.200000" points="874.29,-90.88 877.12,-85.19 871.36,-87.87 874.29,-90.88"/>
</g>
<!-- src/application/services/VideoParserService.ts&#45;&gt;src/application/services/VideoMetadataService.ts -->
<g id="edge11" class="edge">
<title>src/application/services/VideoParserService.ts&#45;&gt;src/application/services/VideoMetadataService.ts</title>
<path fill="none" stroke="#000000" stroke-width="2" stroke-opacity="0.200000" d="M685.34,-202C686.64,-202 687.94,-202 689.25,-202"/>
<polygon fill="#000000" fill-opacity="0.200000" stroke="#000000" stroke-width="2" stroke-opacity="0.200000" points="688.86,-204.1 694.86,-202 688.86,-199.9 688.86,-204.1"/>
</g>
<!-- src/application/services/VideoParserService.ts&#45;&gt;src/domain/index.ts -->
<g id="edge12" class="edge">
<title>src/application/services/VideoParserService.ts&#45;&gt;src/domain/index.ts</title>
<path fill="none" stroke="#000000" stroke-width="2" stroke-opacity="0.200000" d="M672.67,-212.08C681.02,-214.11 689.79,-216.17 698,-218 755.3,-230.76 769.65,-234.01 827.5,-244 940.78,-263.55 1075.86,-281.58 1138.25,-289.61"/>
<polygon fill="#000000" fill-opacity="0.200000" stroke="#000000" stroke-width="2" stroke-opacity="0.200000" points="1137.7,-291.65 1143.92,-290.33 1138.23,-287.49 1137.7,-291.65"/>
</g>
<!-- src/domain/constants/index.ts -->
<g id="node17" class="node">
<title>src/domain/constants/index.ts</title>
<g id="a_node17"><a xlink:href="src/domain/constants/index.ts" xlink:title="index.ts">
<path fill="#ddfeff" stroke="black" d="M1338.21,-180.62C1338.21,-180.62 1297.04,-180.62 1297.04,-180.62 1293.83,-180.62 1290.62,-177.42 1290.62,-174.21 1290.62,-174.21 1290.62,-167.79 1290.62,-167.79 1290.62,-164.58 1293.83,-161.38 1297.04,-161.38 1297.04,-161.38 1338.21,-161.38 1338.21,-161.38 1341.42,-161.38 1344.62,-164.58 1344.62,-167.79 1344.62,-167.79 1344.62,-174.21 1344.62,-174.21 1344.62,-177.42 1341.42,-180.62 1338.21,-180.62"/>
<text text-anchor="start" x="1301.88" y="-168.07" font-family="Helvetica,sans-Serif" font-size="9.00">index.ts</text>
</a>
</g>
</g>
<!-- src/domain/index.ts&#45;&gt;src/domain/constants/index.ts -->
<g id="edge23" class="edge">
<title>src/domain/index.ts&#45;&gt;src/domain/constants/index.ts</title>
<path fill="none" stroke="#000000" stroke-width="2" stroke-opacity="0.200000" d="M1179.3,-284C1189.19,-262.27 1215.74,-210.6 1254.75,-185 1262.7,-179.78 1272.34,-176.49 1281.61,-174.42"/>
<polygon fill="#000000" fill-opacity="0.200000" stroke="#000000" stroke-width="2" stroke-opacity="0.200000" points="1281.84,-176.51 1287.35,-173.34 1281.06,-172.38 1281.84,-176.51"/>
</g>
<!-- src/domain/entities/Metadata.ts -->
<g id="node18" class="node">
<title>src/domain/entities/Metadata.ts</title>
<g id="a_node18"><a xlink:href="src/domain/entities/Metadata.ts" xlink:title="Metadata.ts">
<path fill="#ddfeff" stroke="black" d="M1553.83,-249.62C1553.83,-249.62 1503.42,-249.62 1503.42,-249.62 1500.21,-249.62 1497,-246.42 1497,-243.21 1497,-243.21 1497,-236.79 1497,-236.79 1497,-233.58 1500.21,-230.38 1503.42,-230.38 1503.42,-230.38 1553.83,-230.38 1553.83,-230.38 1557.04,-230.38 1560.25,-233.58 1560.25,-236.79 1560.25,-236.79 1560.25,-243.21 1560.25,-243.21 1560.25,-246.42 1557.04,-249.62 1553.83,-249.62"/>
<text text-anchor="start" x="1505" y="-237.07" font-family="Helvetica,sans-Serif" font-size="9.00">Metadata.ts</text>
</a>
</g>
</g>
<!-- src/domain/index.ts&#45;&gt;src/domain/entities/Metadata.ts -->
<g id="edge24" class="edge">
<title>src/domain/index.ts&#45;&gt;src/domain/entities/Metadata.ts</title>
<path fill="none" stroke="#000000" stroke-opacity="0.200000" d="M1182.23,-284.13C1194.82,-267.9 1222.51,-236.14 1254.75,-224 1296.66,-208.22 1425.08,-224.4 1489.68,-234"/>
<polygon fill="none" stroke="#000000" stroke-opacity="0.200000" points="1489.11,-236.03 1495.36,-234.85 1489.74,-231.88 1489.11,-236.03"/>
</g>
<!-- src/domain/entities/ParsedVideo.ts -->
<g id="node19" class="node">
<title>src/domain/entities/ParsedVideo.ts</title>
<g id="a_node19"><a xlink:href="src/domain/entities/ParsedVideo.ts" xlink:title="ParsedVideo.ts">
<path fill="#ddfeff" stroke="black" d="M1350.71,-280.62C1350.71,-280.62 1284.54,-280.62 1284.54,-280.62 1281.33,-280.62 1278.12,-277.42 1278.12,-274.21 1278.12,-274.21 1278.12,-267.79 1278.12,-267.79 1278.12,-264.58 1281.33,-261.38 1284.54,-261.38 1284.54,-261.38 1350.71,-261.38 1350.71,-261.38 1353.92,-261.38 1357.12,-264.58 1357.12,-267.79 1357.12,-267.79 1357.12,-274.21 1357.12,-274.21 1357.12,-277.42 1353.92,-280.62 1350.71,-280.62"/>
<text text-anchor="start" x="1286.12" y="-268.07" font-family="Helvetica,sans-Serif" font-size="9.00">ParsedVideo.ts</text>
</a>
</g>
</g>
<!-- src/domain/index.ts&#45;&gt;src/domain/entities/ParsedVideo.ts -->
<g id="edge25" class="edge">
<title>src/domain/index.ts&#45;&gt;src/domain/entities/ParsedVideo.ts</title>
<path fill="none" stroke="#000000" stroke-opacity="0.200000" d="M1201.31,-289.73C1220.72,-286.57 1247.65,-282.2 1270.6,-278.47"/>
<polygon fill="none" stroke="#000000" stroke-opacity="0.200000" points="1270.82,-280.57 1276.4,-277.53 1270.14,-276.42 1270.82,-280.57"/>
</g>
<!-- src/domain/entities/VideoStorageDto.ts -->
<g id="node20" class="node">
<title>src/domain/entities/VideoStorageDto.ts</title>
<g id="a_node20"><a xlink:href="src/domain/entities/VideoStorageDto.ts" xlink:title="VideoStorageDto.ts">
<path fill="#ddfeff" stroke="black" d="M1477.58,-280.62C1477.58,-280.62 1394.92,-280.62 1394.92,-280.62 1391.71,-280.62 1388.5,-277.42 1388.5,-274.21 1388.5,-274.21 1388.5,-267.79 1388.5,-267.79 1388.5,-264.58 1391.71,-261.38 1394.92,-261.38 1394.92,-261.38 1477.58,-261.38 1477.58,-261.38 1480.79,-261.38 1484,-264.58 1484,-267.79 1484,-267.79 1484,-274.21 1484,-274.21 1484,-277.42 1480.79,-280.62 1477.58,-280.62"/>
<text text-anchor="start" x="1396.5" y="-268.07" font-family="Helvetica,sans-Serif" font-size="9.00">VideoStorageDto.ts</text>
</a>
</g>
</g>
<!-- src/domain/index.ts&#45;&gt;src/domain/entities/VideoStorageDto.ts -->
<g id="edge27" class="edge">
<title>src/domain/index.ts&#45;&gt;src/domain/entities/VideoStorageDto.ts</title>
<path fill="none" stroke="#000000" stroke-opacity="0.200000" d="M1201.48,-295.2C1240.81,-296.5 1316.88,-297.21 1380.5,-287 1382.39,-286.7 1388.13,-285.12 1395.23,-283.06"/>
<polygon fill="none" stroke="#000000" stroke-opacity="0.200000" points="1395.44,-285.19 1400.6,-281.48 1394.26,-281.16 1395.44,-285.19"/>
</g>
<!-- src/domain/entities/Video.ts -->
<g id="node21" class="node">
<title>src/domain/entities/Video.ts</title>
<g id="a_node21"><a xlink:href="src/domain/entities/Video.ts" xlink:title="Video.ts">
<path fill="#ddfeff" stroke="black" d="M1549.21,-280.62C1549.21,-280.62 1508.04,-280.62 1508.04,-280.62 1504.83,-280.62 1501.62,-277.42 1501.62,-274.21 1501.62,-274.21 1501.62,-267.79 1501.62,-267.79 1501.62,-264.58 1504.83,-261.38 1508.04,-261.38 1508.04,-261.38 1549.21,-261.38 1549.21,-261.38 1552.42,-261.38 1555.62,-264.58 1555.62,-267.79 1555.62,-267.79 1555.62,-274.21 1555.62,-274.21 1555.62,-277.42 1552.42,-280.62 1549.21,-280.62"/>
<text text-anchor="start" x="1512.12" y="-268.07" font-family="Helvetica,sans-Serif" font-size="9.00">Video.ts</text>
</a>
</g>
</g>
<!-- src/domain/index.ts&#45;&gt;src/domain/entities/Video.ts -->
<g id="edge26" class="edge">
<title>src/domain/index.ts&#45;&gt;src/domain/entities/Video.ts</title>
<path fill="none" stroke="#000000" stroke-opacity="0.200000" d="M1201.22,-294.41C1216.78,-294.63 1236.89,-294.89 1254.75,-295 1356.7,-295.64 1384.38,-308.68 1484,-287 1488.24,-286.08 1492.63,-284.83 1496.91,-283.45"/>
<polygon fill="none" stroke="#000000" stroke-opacity="0.200000" points="1497.56,-285.45 1502.54,-281.5 1496.19,-281.48 1497.56,-285.45"/>
</g>
<!-- src/domain/repositories/IMetadataRepository.ts -->
<g id="node23" class="node">
<title>src/domain/repositories/IMetadataRepository.ts</title>
<g id="a_node23"><a xlink:href="src/domain/repositories/IMetadataRepository.ts" xlink:title="IMetadataRepository.ts">
<path fill="#ddfeff" stroke="black" d="M1366.08,-344.62C1366.08,-344.62 1269.17,-344.62 1269.17,-344.62 1265.96,-344.62 1262.75,-341.42 1262.75,-338.21 1262.75,-338.21 1262.75,-331.79 1262.75,-331.79 1262.75,-328.58 1265.96,-325.38 1269.17,-325.38 1269.17,-325.38 1366.08,-325.38 1366.08,-325.38 1369.29,-325.38 1372.5,-328.58 1372.5,-331.79 1372.5,-331.79 1372.5,-338.21 1372.5,-338.21 1372.5,-341.42 1369.29,-344.62 1366.08,-344.62"/>
<text text-anchor="start" x="1270.75" y="-332.07" font-family="Helvetica,sans-Serif" font-size="9.00">IMetadataRepository.ts</text>
</a>
</g>
</g>
<!-- src/domain/index.ts&#45;&gt;src/domain/repositories/IMetadataRepository.ts -->
<g id="edge28" class="edge">
<title>src/domain/index.ts&#45;&gt;src/domain/repositories/IMetadataRepository.ts</title>
<path fill="none" stroke="#000000" stroke-opacity="0.200000" d="M1201.37,-303.7C1216.8,-309.18 1236.74,-315.93 1254.75,-321 1257.28,-321.71 1259.89,-322.42 1262.52,-323.1"/>
<polygon fill="none" stroke="#000000" stroke-opacity="0.200000" points="1261.74,-325.07 1268.07,-324.51 1262.77,-321 1261.74,-325.07"/>
</g>
<!-- src/domain/repositories/IVideoRepository.ts -->
<g id="node24" class="node">
<title>src/domain/repositories/IVideoRepository.ts</title>
<g id="a_node24"><a xlink:href="src/domain/repositories/IVideoRepository.ts" xlink:title="IVideoRepository.ts">
<path fill="#ddfeff" stroke="black" d="M1358.96,-375.62C1358.96,-375.62 1276.29,-375.62 1276.29,-375.62 1273.08,-375.62 1269.88,-372.42 1269.88,-369.21 1269.88,-369.21 1269.88,-362.79 1269.88,-362.79 1269.88,-359.58 1273.08,-356.38 1276.29,-356.38 1276.29,-356.38 1358.96,-356.38 1358.96,-356.38 1362.17,-356.38 1365.38,-359.58 1365.38,-362.79 1365.38,-362.79 1365.38,-369.21 1365.38,-369.21 1365.38,-372.42 1362.17,-375.62 1358.96,-375.62"/>
<text text-anchor="start" x="1277.88" y="-363.07" font-family="Helvetica,sans-Serif" font-size="9.00">IVideoRepository.ts</text>
</a>
</g>
</g>
<!-- src/domain/index.ts&#45;&gt;src/domain/repositories/IVideoRepository.ts -->
<g id="edge29" class="edge">
<title>src/domain/index.ts&#45;&gt;src/domain/repositories/IVideoRepository.ts</title>
<path fill="none" stroke="#000000" stroke-opacity="0.200000" d="M1186.02,-304.01C1200.66,-316.77 1227.82,-338.68 1254.75,-351 1257.41,-352.22 1260.18,-353.34 1263,-354.38"/>
<polygon fill="none" stroke="#000000" stroke-opacity="0.200000" points="1261.9,-356.22 1268.25,-356.17 1263.25,-352.25 1261.9,-356.22"/>
</g>
<!-- src/domain/services/FileVideoParser.ts -->
<g id="node25" class="node">
<title>src/domain/services/FileVideoParser.ts</title>
<g id="a_node25"><a xlink:href="src/domain/services/FileVideoParser.ts" xlink:title="FileVideoParser.ts">
<path fill="#ddfeff" stroke="black" d="M1357.08,-438.62C1357.08,-438.62 1278.17,-438.62 1278.17,-438.62 1274.96,-438.62 1271.75,-435.42 1271.75,-432.21 1271.75,-432.21 1271.75,-425.79 1271.75,-425.79 1271.75,-422.58 1274.96,-419.38 1278.17,-419.38 1278.17,-419.38 1357.08,-419.38 1357.08,-419.38 1360.29,-419.38 1363.5,-422.58 1363.5,-425.79 1363.5,-425.79 1363.5,-432.21 1363.5,-432.21 1363.5,-435.42 1360.29,-438.62 1357.08,-438.62"/>
<text text-anchor="start" x="1279.75" y="-426.07" font-family="Helvetica,sans-Serif" font-size="9.00">FileVideoParser.ts</text>
</a>
</g>
</g>
<!-- src/domain/index.ts&#45;&gt;src/domain/services/FileVideoParser.ts -->
<g id="edge30" class="edge">
<title>src/domain/index.ts&#45;&gt;src/domain/services/FileVideoParser.ts</title>
<g id="a_edge30"><a xlink:title="no&#45;circular">
<path fill="none" stroke="orange" stroke-width="2" d="M1178.2,-303.93C1187.33,-326.74 1215.34,-381.8 1254.75,-412 1254.91,-412.12 1255.06,-412.24 1255.22,-412.36"/>
<polygon fill="orange" stroke="orange" stroke-width="2" points="1262.49,-419.03 1268.73,-420.24 1264.6,-415.4 1262.49,-419.03"/>
<polyline fill="none" stroke="orange" stroke-width="2" points="1262.68,-416.71 1260.09,-415.2"/>
<ellipse fill="none" stroke="orange" stroke-width="2" cx="1257.15" cy="-413.48" rx="2.4" ry="2.4"/>
</a>
</g>
<text text-anchor="middle" x="1193.52" y="-361.52" font-family="Helvetica,sans-Serif" font-size="9.00" fill="orange">no&#45;circular</text>
</g>
<!-- src/domain/valueObjects/ParsedVideoData.ts -->
<g id="node26" class="node">
<title>src/domain/valueObjects/ParsedVideoData.ts</title>
<g id="a_node26"><a xlink:href="src/domain/valueObjects/ParsedVideoData.ts" xlink:title="ParsedVideoData.ts">
<path fill="#ddfeff" stroke="black" d="M1360.46,-532.62C1360.46,-532.62 1274.79,-532.62 1274.79,-532.62 1271.58,-532.62 1268.38,-529.42 1268.38,-526.21 1268.38,-526.21 1268.38,-519.79 1268.38,-519.79 1268.38,-516.58 1271.58,-513.38 1274.79,-513.38 1274.79,-513.38 1360.46,-513.38 1360.46,-513.38 1363.67,-513.38 1366.88,-516.58 1366.88,-519.79 1366.88,-519.79 1366.88,-526.21 1366.88,-526.21 1366.88,-529.42 1363.67,-532.62 1360.46,-532.62"/>
<text text-anchor="start" x="1276.38" y="-520.08" font-family="Helvetica,sans-Serif" font-size="9.00">ParsedVideoData.ts</text>
</a>
</g>
</g>
<!-- src/domain/index.ts&#45;&gt;src/domain/valueObjects/ParsedVideoData.ts -->
<g id="edge31" class="edge">
<title>src/domain/index.ts&#45;&gt;src/domain/valueObjects/ParsedVideoData.ts</title>
<path fill="none" stroke="#000000" stroke-width="2" stroke-opacity="0.200000" d="M1175.54,-303.88C1177.96,-337.88 1190.7,-451.15 1254.75,-508 1256.45,-509.51 1258.28,-510.87 1260.2,-512.1"/>
<polygon fill="#000000" fill-opacity="0.200000" stroke="#000000" stroke-width="2" stroke-opacity="0.200000" points="1259.05,-513.87 1265.33,-514.81 1261.01,-510.16 1259.05,-513.87"/>
</g>
<!-- src/domain/valueObjects/Thumbs.ts -->
<g id="node27" class="node">
<title>src/domain/valueObjects/Thumbs.ts</title>
<g id="a_node27"><a xlink:href="src/domain/valueObjects/Thumbs.ts" xlink:title="Thumbs.ts">
<path fill="#ddfeff" stroke="black" d="M1341.33,-501.62C1341.33,-501.62 1293.92,-501.62 1293.92,-501.62 1290.71,-501.62 1287.5,-498.42 1287.5,-495.21 1287.5,-495.21 1287.5,-488.79 1287.5,-488.79 1287.5,-485.58 1290.71,-482.38 1293.92,-482.38 1293.92,-482.38 1341.33,-482.38 1341.33,-482.38 1344.54,-482.38 1347.75,-485.58 1347.75,-488.79 1347.75,-488.79 1347.75,-495.21 1347.75,-495.21 1347.75,-498.42 1344.54,-501.62 1341.33,-501.62"/>
<text text-anchor="start" x="1295.5" y="-489.07" font-family="Helvetica,sans-Serif" font-size="9.00">Thumbs.ts</text>
</a>
</g>
</g>
<!-- src/domain/index.ts&#45;&gt;src/domain/valueObjects/Thumbs.ts -->
<g id="edge32" class="edge">
<title>src/domain/index.ts&#45;&gt;src/domain/valueObjects/Thumbs.ts</title>
<path fill="none" stroke="#000000" stroke-opacity="0.200000" d="M1176.75,-303.87C1182.44,-333.24 1203.18,-421 1254.75,-469 1261.9,-475.66 1271.16,-480.43 1280.31,-483.84"/>
<polygon fill="none" stroke="#000000" stroke-opacity="0.200000" points="1279.47,-485.77 1285.83,-485.7 1280.82,-481.79 1279.47,-485.77"/>
</g>
<!-- src/application/services/VideoStorageDtoMapper.ts&#45;&gt;src/domain/index.ts -->
<g id="edge13" class="edge">
<title>src/application/services/VideoStorageDtoMapper.ts&#45;&gt;src/domain/index.ts</title>
<path fill="none" stroke="#000000" stroke-opacity="0.200000" d="M954.1,-217.43C996.84,-218.95 1054.06,-224.79 1101.25,-243 1122.71,-251.28 1143.73,-267.45 1157.42,-279.37"/>
<polygon fill="none" stroke="#000000" stroke-opacity="0.200000" points="1155.81,-280.75 1161.69,-283.18 1158.61,-277.62 1155.81,-280.75"/>
</g>
<!-- src/infrastructure/repository/MetadataRepository.ts -->
<g id="node29" class="node">
<title>src/infrastructure/repository/MetadataRepository.ts</title>
<g id="a_node29"><a xlink:href="src/infrastructure/repository/MetadataRepository.ts" xlink:title="MetadataRepository.ts">
<path fill="#ddfeff" stroke="black" d="M1086.83,-82.62C1086.83,-82.62 992.17,-82.62 992.17,-82.62 988.96,-82.62 985.75,-79.42 985.75,-76.21 985.75,-76.21 985.75,-69.79 985.75,-69.79 985.75,-66.58 988.96,-63.38 992.17,-63.38 992.17,-63.38 1086.83,-63.38 1086.83,-63.38 1090.04,-63.38 1093.25,-66.58 1093.25,-69.79 1093.25,-69.79 1093.25,-76.21 1093.25,-76.21 1093.25,-79.42 1090.04,-82.62 1086.83,-82.62"/>
<text text-anchor="start" x="993.75" y="-70.08" font-family="Helvetica,sans-Serif" font-size="9.00">MetadataRepository.ts</text>
</a>
</g>
</g>
<!-- src/infrastructure/index.ts&#45;&gt;src/infrastructure/repository/MetadataRepository.ts -->
<g id="edge36" class="edge">
<title>src/infrastructure/index.ts&#45;&gt;src/infrastructure/repository/MetadataRepository.ts</title>
<path fill="none" stroke="#000000" stroke-width="2" stroke-opacity="0.200000" d="M917.88,-73C934.2,-73 955.9,-73 976.4,-73"/>
<polygon fill="#000000" fill-opacity="0.200000" stroke="#000000" stroke-width="2" stroke-opacity="0.200000" points="976.37,-75.1 982.37,-73 976.37,-70.9 976.37,-75.1"/>
</g>
<!-- src/infrastructure/repository/VideoRepository.ts -->
<g id="node30" class="node">
<title>src/infrastructure/repository/VideoRepository.ts</title>
<g id="a_node30"><a xlink:href="src/infrastructure/repository/VideoRepository.ts" xlink:title="VideoRepository.ts">
<path fill="#ddfeff" stroke="black" d="M1079.71,-51.62C1079.71,-51.62 999.29,-51.62 999.29,-51.62 996.08,-51.62 992.88,-48.42 992.88,-45.21 992.88,-45.21 992.88,-38.79 992.88,-38.79 992.88,-35.58 996.08,-32.38 999.29,-32.38 999.29,-32.38 1079.71,-32.38 1079.71,-32.38 1082.92,-32.38 1086.12,-35.58 1086.12,-38.79 1086.12,-38.79 1086.12,-45.21 1086.12,-45.21 1086.12,-48.42 1082.92,-51.62 1079.71,-51.62"/>
<text text-anchor="start" x="1000.88" y="-39.08" font-family="Helvetica,sans-Serif" font-size="9.00">VideoRepository.ts</text>
</a>
</g>
</g>
<!-- src/infrastructure/index.ts&#45;&gt;src/infrastructure/repository/VideoRepository.ts -->
<g id="edge37" class="edge">
<title>src/infrastructure/index.ts&#45;&gt;src/infrastructure/repository/VideoRepository.ts</title>
<path fill="none" stroke="#000000" stroke-width="2" stroke-opacity="0.200000" d="M917.88,-67.46C936.17,-63.6 961.22,-58.31 983.75,-53.56"/>
<polygon fill="#000000" fill-opacity="0.200000" stroke="#000000" stroke-width="2" stroke-opacity="0.200000" points="984.17,-55.61 989.61,-52.32 983.3,-51.5 984.17,-55.61"/>
</g>
<!-- src/components/VideoCard.vue&#45;&gt;src/domain/index.ts -->
<g id="edge15" class="edge">
<title>src/components/VideoCard.vue&#45;&gt;src/domain/index.ts</title>
<path fill="none" stroke="#000000" stroke-opacity="0.200000" d="M360.63,-372.14C368.76,-369.88 376.84,-366.39 383.25,-361 389.95,-355.37 384.17,-348.15 391.25,-343 442.94,-305.43 470.35,-328 534.25,-328 534.25,-328 534.25,-328 891.62,-328 981.67,-328 1086.76,-310.63 1139.38,-300.72"/>
<polygon fill="none" stroke="#000000" stroke-opacity="0.200000" points="1139.76,-302.78 1145.26,-299.6 1138.98,-298.66 1139.76,-302.78"/>
</g>
<!-- src/components/VideoEmbed.vue -->
<g id="node13" class="node">
<title>src/components/VideoEmbed.vue</title>
<g id="a_node13"><a xlink:href="src/components/VideoEmbed.vue" xlink:title="VideoEmbed.vue">
<path fill="#41f083" stroke="black" d="M477.83,-368.62C477.83,-368.62 404.92,-368.62 404.92,-368.62 401.71,-368.62 398.5,-365.42 398.5,-362.21 398.5,-362.21 398.5,-355.79 398.5,-355.79 398.5,-352.58 401.71,-349.38 404.92,-349.38 404.92,-349.38 477.83,-349.38 477.83,-349.38 481.04,-349.38 484.25,-352.58 484.25,-355.79 484.25,-355.79 484.25,-362.21 484.25,-362.21 484.25,-365.42 481.04,-368.62 477.83,-368.62"/>
<text text-anchor="start" x="406.5" y="-356.07" font-family="Helvetica,sans-Serif" font-size="9.00">VideoEmbed.vue</text>
</a>
</g>
</g>
<!-- src/components/VideoCard.vue&#45;&gt;src/components/VideoEmbed.vue -->
<g id="edge14" class="edge">
<title>src/components/VideoCard.vue&#45;&gt;src/components/VideoEmbed.vue</title>
<path fill="none" stroke="#000000" stroke-width="2" stroke-opacity="0.200000" d="M360.63,-370.57C369.75,-369.25 379.67,-367.81 389.31,-366.41"/>
<polygon fill="#000000" fill-opacity="0.200000" stroke="#000000" stroke-width="2" stroke-opacity="0.200000" points="389.43,-368.52 395.06,-365.58 388.82,-364.36 389.43,-368.52"/>
</g>
<!-- src/components/VideoCard.vue&#45;&gt;src/stores/videosStore.ts -->
<g id="edge16" class="edge">
<title>src/components/VideoCard.vue&#45;&gt;src/stores/videosStore.ts</title>
<path fill="none" stroke="#000000" stroke-width="2" stroke-opacity="0.200000" d="M360.62,-374.1C369.25,-371.84 377.56,-367.86 383.25,-361 402.03,-338.39 378.15,-255.31 391.25,-229 396.62,-218.22 406.12,-209.1 415.34,-202.14"/>
<polygon fill="#000000" fill-opacity="0.200000" stroke="#000000" stroke-width="2" stroke-opacity="0.200000" points="416.42,-203.94 420.12,-198.77 414.01,-200.51 416.42,-203.94"/>
</g>
<!-- src/components/VideoEmbed.vue&#45;&gt;src/domain/index.ts -->
<g id="edge17" class="edge">
<title>src/components/VideoEmbed.vue&#45;&gt;src/domain/index.ts</title>
<path fill="none" stroke="#000000" stroke-opacity="0.200000" d="M484.6,-356.18C522.73,-353.88 580.41,-351 630.62,-351 630.62,-351 630.62,-351 891.62,-351 985.17,-351 1011.57,-358.64 1101.25,-332 1119.36,-326.62 1138.18,-316.45 1152,-307.99"/>
<polygon fill="none" stroke="#000000" stroke-opacity="0.200000" points="1153.11,-309.77 1157.08,-304.8 1150.88,-306.21 1153.11,-309.77"/>
</g>
<!-- src/stores/videosStore.ts&#45;&gt;src/application/index.ts -->
<g id="edge43" class="edge">
<title>src/stores/videosStore.ts&#45;&gt;src/application/index.ts</title>
<path fill="none" stroke="#000000" stroke-width="2" stroke-opacity="0.200000" d="M478.95,-190.18C485.62,-190.77 492.57,-191.37 499.2,-191.95"/>
<polygon fill="#000000" fill-opacity="0.200000" stroke="#000000" stroke-width="2" stroke-opacity="0.200000" points="498.81,-194.02 504.97,-192.45 499.18,-189.84 498.81,-194.02"/>
</g>
<!-- src/stores/videosStore.ts&#45;&gt;src/domain/index.ts -->
<g id="edge44" class="edge">
<title>src/stores/videosStore.ts&#45;&gt;src/domain/index.ts</title>
<path fill="none" stroke="#000000" stroke-opacity="0.200000" d="M460.19,-197.09C471.36,-204.42 484.98,-215.43 492.25,-229 499.74,-243 488.66,-289.15 500.25,-300 542.6,-339.64 572.62,-306 630.62,-306 630.62,-306 630.62,-306 891.62,-306 981.1,-306 1086.44,-299.87 1139.24,-296.37"/>
<polygon fill="none" stroke="#000000" stroke-opacity="0.200000" points="1139.28,-298.47 1145.13,-295.98 1139,-294.28 1139.28,-298.47"/>
</g>
<!-- src/components/inputs/FileInput.vue&#45;&gt;src/stores/videosStore.ts -->
<g id="edge18" class="edge">
<title>src/components/inputs/FileInput.vue&#45;&gt;src/stores/videosStore.ts</title>
<path fill="none" stroke="#000000" stroke-width="2" stroke-opacity="0.200000" d="M339.78,-247.98C359.75,-235.87 393.5,-215.42 416.34,-201.57"/>
<polygon fill="#000000" fill-opacity="0.200000" stroke="#000000" stroke-width="2" stroke-opacity="0.200000" points="417.3,-203.45 421.34,-198.54 415.12,-199.85 417.3,-203.45"/>
</g>
<!-- src/domain/entities/ParsedVideo.ts&#45;&gt;src/domain/entities/VideoStorageDto.ts -->
<g id="edge20" class="edge">
<title>src/domain/entities/ParsedVideo.ts&#45;&gt;src/domain/entities/VideoStorageDto.ts</title>
<path fill="none" stroke="#000000" stroke-opacity="0.200000" d="M1357.46,-271C1364.97,-271 1372.96,-271 1380.86,-271"/>
<polygon fill="none" stroke="#000000" stroke-opacity="0.200000" points="1380.56,-273.1 1386.56,-271 1380.56,-268.9 1380.56,-273.1"/>
</g>
<!-- src/domain/entities/VideoStorageDto.ts&#45;&gt;src/domain/entities/Metadata.ts -->
<g id="edge21" class="edge">
<title>src/domain/entities/VideoStorageDto.ts&#45;&gt;src/domain/entities/Metadata.ts</title>
<path fill="none" stroke="#000000" stroke-opacity="0.200000" d="M1472.07,-260.91C1476.11,-259.64 1480.15,-258.32 1484,-257 1487.94,-255.65 1492.05,-254.15 1496.11,-252.63"/>
<polygon fill="none" stroke="#000000" stroke-opacity="0.200000" points="1496.57,-254.7 1501.42,-250.6 1495.07,-250.78 1496.57,-254.7"/>
</g>
<!-- src/domain/entities/VideoStorageDto.ts&#45;&gt;src/domain/entities/Video.ts -->
<g id="edge22" class="edge">
<title>src/domain/entities/VideoStorageDto.ts&#45;&gt;src/domain/entities/Video.ts</title>
<path fill="none" stroke="#000000" stroke-opacity="0.200000" d="M1484.29,-271C1487.57,-271 1490.84,-271 1494.03,-271"/>
<polygon fill="none" stroke="#000000" stroke-opacity="0.200000" points="1493.76,-273.1 1499.76,-271 1493.76,-268.9 1493.76,-273.1"/>
</g>
<!-- src/domain/entities/VideoMetadata.ts -->
<g id="node22" class="node">
<title>src/domain/entities/VideoMetadata.ts</title>
<g id="a_node22"><a xlink:href="src/domain/entities/VideoMetadata.ts" xlink:title="no&#45;orphans">
<path fill="#ccffcc" stroke="orange" d="M1354.46,-249.62C1354.46,-249.62 1280.79,-249.62 1280.79,-249.62 1277.58,-249.62 1274.38,-246.42 1274.38,-243.21 1274.38,-243.21 1274.38,-236.79 1274.38,-236.79 1274.38,-233.58 1277.58,-230.38 1280.79,-230.38 1280.79,-230.38 1354.46,-230.38 1354.46,-230.38 1357.67,-230.38 1360.88,-233.58 1360.88,-236.79 1360.88,-236.79 1360.88,-243.21 1360.88,-243.21 1360.88,-246.42 1357.67,-249.62 1354.46,-249.62"/>
<text text-anchor="start" x="1282.38" y="-237.07" font-family="Helvetica,sans-Serif" font-size="9.00" fill="orange">VideoMetadata.ts</text>
</a>
</g>
</g>
<!-- src/domain/repositories/IMetadataRepository.ts&#45;&gt;src/domain/entities/Metadata.ts -->
<g id="edge33" class="edge">
<title>src/domain/repositories/IMetadataRepository.ts&#45;&gt;src/domain/entities/Metadata.ts</title>
<path fill="none" stroke="#000000" stroke-opacity="0.200000" d="M1372.81,-331.7C1408.48,-326.82 1453.95,-315.05 1484,-287 1495.22,-276.52 1486.53,-266.23 1497,-255 1497.11,-254.89 1497.21,-254.77 1497.32,-254.66"/>
<polygon fill="none" stroke="#000000" stroke-opacity="0.200000" points="1498.35,-256.54 1501.6,-251.08 1495.65,-253.32 1498.35,-256.54"/>
</g>
<!-- src/domain/repositories/IVideoRepository.ts&#45;&gt;src/domain/entities/Video.ts -->
<g id="edge34" class="edge">
<title>src/domain/repositories/IVideoRepository.ts&#45;&gt;src/domain/entities/Video.ts</title>
<path fill="none" stroke="#000000" stroke-opacity="0.200000" d="M1365.78,-356.99C1400.37,-348.92 1447.48,-334.77 1484,-312 1495.4,-304.9 1506.4,-294.52 1514.5,-285.99"/>
<polygon fill="none" stroke="#000000" stroke-opacity="0.200000" points="1515.6,-287.9 1518.13,-282.07 1512.51,-285.05 1515.6,-287.9"/>
</g>
<!-- src/domain/services/FileVideoParser.ts&#45;&gt;src/domain/index.ts -->
<g id="edge35" class="edge">
<title>src/domain/services/FileVideoParser.ts&#45;&gt;src/domain/index.ts</title>
<g id="a_edge35"><a xlink:title="no&#45;circular">
<path fill="none" stroke="orange" stroke-width="2" d="M1294.42,-418.94C1281.86,-414.67 1266.39,-408.92 1254.75,-400 1226.65,-378.46 1204.33,-344.27 1190.54,-320.5"/>
<polygon fill="orange" stroke="orange" stroke-width="2" points="1187.6,-310.96 1182.83,-306.75 1183.93,-313.01 1187.6,-310.96"/>
<polyline fill="none" stroke="orange" stroke-width="2" points="1186.25,-312.85 1187.72,-315.47"/>
<ellipse fill="none" stroke="orange" stroke-width="2" cx="1189.38" cy="-318.44" rx="2.4" ry="2.4"/>
</a>
</g>
<text text-anchor="middle" x="1247.74" y="-363.42" font-family="Helvetica,sans-Serif" font-size="9.00" fill="orange">no&#45;circular</text>
</g>
<!-- src/infrastructure/database/DatabaseConnection.ts -->
<g id="node28" class="node">
<title>src/infrastructure/database/DatabaseConnection.ts</title>
<g id="a_node28"><a xlink:href="src/infrastructure/database/DatabaseConnection.ts" xlink:title="DatabaseConnection.ts">
<path fill="#ddfeff" stroke="black" d="M1224.33,-66.62C1224.33,-66.62 1123.67,-66.62 1123.67,-66.62 1120.46,-66.62 1117.25,-63.42 1117.25,-60.21 1117.25,-60.21 1117.25,-53.79 1117.25,-53.79 1117.25,-50.58 1120.46,-47.38 1123.67,-47.38 1123.67,-47.38 1224.33,-47.38 1224.33,-47.38 1227.54,-47.38 1230.75,-50.58 1230.75,-53.79 1230.75,-53.79 1230.75,-60.21 1230.75,-60.21 1230.75,-63.42 1227.54,-66.62 1224.33,-66.62"/>
<text text-anchor="start" x="1125.25" y="-54.08" font-family="Helvetica,sans-Serif" font-size="9.00">DatabaseConnection.ts</text>
</a>
</g>
</g>
<!-- src/infrastructure/repository/MetadataRepository.ts&#45;&gt;src/domain/index.ts -->
<g id="edge39" class="edge">
<title>src/infrastructure/repository/MetadataRepository.ts&#45;&gt;src/domain/index.ts</title>
<path fill="none" stroke="#000000" stroke-width="2" stroke-opacity="0.200000" d="M1046.54,-83.07C1067.32,-117.74 1136.08,-232.43 1162.52,-276.52"/>
<polygon fill="#000000" fill-opacity="0.200000" stroke="#000000" stroke-width="2" stroke-opacity="0.200000" points="1160.64,-277.46 1165.52,-281.53 1164.24,-275.3 1160.64,-277.46"/>
</g>
<!-- src/infrastructure/repository/MetadataRepository.ts&#45;&gt;src/infrastructure/database/DatabaseConnection.ts -->
<g id="edge38" class="edge">
<title>src/infrastructure/repository/MetadataRepository.ts&#45;&gt;src/infrastructure/database/DatabaseConnection.ts</title>
<path fill="none" stroke="#000000" stroke-width="2" stroke-opacity="0.200000" d="M1093.63,-66.58C1098.4,-66.01 1103.26,-65.42 1108.12,-64.83"/>
<polygon fill="#000000" fill-opacity="0.200000" stroke="#000000" stroke-width="2" stroke-opacity="0.200000" points="1108.11,-66.95 1113.82,-64.15 1107.61,-62.78 1108.11,-66.95"/>
</g>
<!-- src/infrastructure/repository/VideoRepository.ts&#45;&gt;src/domain/index.ts -->
<g id="edge41" class="edge">
<title>src/infrastructure/repository/VideoRepository.ts&#45;&gt;src/domain/index.ts</title>
<path fill="none" stroke="#000000" stroke-width="2" stroke-opacity="0.200000" d="M1086.41,-47.23C1091.96,-49.53 1097.12,-52.68 1101.25,-57 1113.78,-70.1 1104.67,-79.46 1109.25,-97 1126.74,-164.05 1154.04,-241.83 1166.46,-276.16"/>
<polygon fill="#000000" fill-opacity="0.200000" stroke="#000000" stroke-width="2" stroke-opacity="0.200000" points="1164.35,-276.51 1168.38,-281.43 1168.3,-275.08 1164.35,-276.51"/>
</g>
<!-- src/infrastructure/repository/VideoRepository.ts&#45;&gt;src/infrastructure/database/DatabaseConnection.ts -->
<g id="edge40" class="edge">
<title>src/infrastructure/repository/VideoRepository.ts&#45;&gt;src/infrastructure/database/DatabaseConnection.ts</title>
<path fill="none" stroke="#000000" stroke-width="2" stroke-opacity="0.200000" d="M1086.47,-47.2C1093.56,-48.01 1101,-48.85 1108.4,-49.69"/>
<polygon fill="#000000" fill-opacity="0.200000" stroke="#000000" stroke-width="2" stroke-opacity="0.200000" points="1107.86,-51.74 1114.06,-50.33 1108.33,-47.57 1107.86,-51.74"/>
</g>
<!-- src/main.ts -->
<g id="node31" class="node">
<title>src/main.ts</title>
<g id="a_node31"><a xlink:href="src/main.ts" xlink:title="main.ts">
<path fill="#ddfeff" stroke="black" d="M63.58,-227.62C63.58,-227.62 22.42,-227.62 22.42,-227.62 19.21,-227.62 16,-224.42 16,-221.21 16,-221.21 16,-214.79 16,-214.79 16,-211.58 19.21,-208.38 22.42,-208.38 22.42,-208.38 63.58,-208.38 63.58,-208.38 66.79,-208.38 70,-211.58 70,-214.79 70,-214.79 70,-221.21 70,-221.21 70,-224.42 66.79,-227.62 63.58,-227.62"/>
<text text-anchor="start" x="27.62" y="-215.07" font-family="Helvetica,sans-Serif" font-size="9.00">main.ts</text>
</a>
</g>
</g>
<!-- src/main.ts&#45;&gt;src/App.vue -->
<g id="edge42" class="edge">
<title>src/main.ts&#45;&gt;src/App.vue</title>
<path fill="none" stroke="#000000" stroke-width="2" stroke-opacity="0.200000" d="M70.44,-218C71.58,-218 72.74,-218 73.9,-218"/>
<polygon fill="#000000" fill-opacity="0.200000" stroke="#000000" stroke-width="2" stroke-opacity="0.200000" points="73.77,-220.1 79.77,-218 73.77,-215.9 73.77,-220.1"/>
</g>
</g>
</svg>
