<?xml version="1.0" encoding="UTF-8" standalone="no"?>
<!DOCTYPE svg PUBLIC "-//W3C//DTD SVG 1.1//EN"
 "http://www.w3.org/Graphics/SVG/1.1/DTD/svg11.dtd">
<!-- Generated by graphviz version 9.0.0 (20230911.1827)
 -->
<!-- Title: dependency&#45;cruiser output Pages: 1 -->
<svg width="1662pt" height="498pt"
 viewBox="0.00 0.00 1662.25 498.00" xmlns="http://www.w3.org/2000/svg" xmlns:xlink="http://www.w3.org/1999/xlink">
<g id="graph0" class="graph" transform="scale(1 1) rotate(0) translate(4 494)">
<title>dependency&#45;cruiser output</title>
<polygon fill="white" stroke="none" points="-4,4 -4,-494 1658.25,-494 1658.25,4 -4,4"/>
<g id="clust1" class="cluster">
<title>cluster_src</title>
<path fill="#ffffff" stroke="black" stroke-width="2" d="M20,-8C20,-8 1634.25,-8 1634.25,-8 1640.25,-8 1646.25,-14 1646.25,-20 1646.25,-20 1646.25,-470 1646.25,-470 1646.25,-476 1640.25,-482 1634.25,-482 1634.25,-482 20,-482 20,-482 14,-482 8,-476 8,-470 8,-470 8,-20 8,-20 8,-14 14,-8 20,-8"/>
<text text-anchor="middle" x="827.12" y="-469.45" font-family="Helvetica,sans-Serif" font-weight="bold" font-size="9.00">src</text>
</g>
<g id="clust2" class="cluster">
<title>cluster_src/application</title>
<path fill="#ffffff" stroke="black" stroke-width="2" d="M580,-117C580,-117 886.25,-117 886.25,-117 892.25,-117 898.25,-123 898.25,-129 898.25,-129 898.25,-226 898.25,-226 898.25,-232 892.25,-238 886.25,-238 886.25,-238 580,-238 580,-238 574,-238 568,-232 568,-226 568,-226 568,-129 568,-129 568,-123 574,-117 580,-117"/>
<text text-anchor="middle" x="733.12" y="-225.45" font-family="Helvetica,sans-Serif" font-weight="bold" font-size="9.00">application</text>
</g>
<g id="clust3" class="cluster">
<title>cluster_src/application/services</title>
<path fill="#ffffff" stroke="black" stroke-width="2" d="M650,-125C650,-125 878.25,-125 878.25,-125 884.25,-125 890.25,-131 890.25,-137 890.25,-137 890.25,-199 890.25,-199 890.25,-205 884.25,-211 878.25,-211 878.25,-211 650,-211 650,-211 644,-211 638,-205 638,-199 638,-199 638,-137 638,-137 638,-131 644,-125 650,-125"/>
<text text-anchor="middle" x="764.12" y="-198.45" font-family="Helvetica,sans-Serif" font-weight="bold" font-size="9.00">services</text>
</g>
<g id="clust4" class="cluster">
<title>cluster_src/assets</title>
<path fill="#ffffff" stroke="black" stroke-width="2" d="M90,-205C90,-205 192.75,-205 192.75,-205 198.75,-205 204.75,-211 204.75,-217 204.75,-217 204.75,-311 204.75,-311 204.75,-317 198.75,-323 192.75,-323 192.75,-323 90,-323 90,-323 84,-323 78,-317 78,-311 78,-311 78,-217 78,-217 78,-211 84,-205 90,-205"/>
<text text-anchor="middle" x="141.38" y="-310.45" font-family="Helvetica,sans-Serif" font-weight="bold" font-size="9.00">assets</text>
</g>
<g id="clust5" class="cluster">
<title>cluster_src/assets/effects</title>
<path fill="#ffffff" stroke="black" stroke-width="2" d="M98,-241C98,-241 184.75,-241 184.75,-241 190.75,-241 196.75,-247 196.75,-253 196.75,-253 196.75,-284 196.75,-284 196.75,-290 190.75,-296 184.75,-296 184.75,-296 98,-296 98,-296 92,-296 86,-290 86,-284 86,-284 86,-253 86,-253 86,-247 92,-241 98,-241"/>
<text text-anchor="middle" x="141.38" y="-283.45" font-family="Helvetica,sans-Serif" font-weight="bold" font-size="9.00">effects</text>
</g>
<g id="clust6" class="cluster">
<title>cluster_src/components</title>
<path fill="#ffffff" stroke="black" stroke-width="2" d="M333,-57C333,-57 548,-57 548,-57 554,-57 560,-63 560,-69 560,-69 560,-226 560,-226 560,-232 554,-238 548,-238 548,-238 333,-238 333,-238 327,-238 321,-232 321,-226 321,-226 321,-69 321,-69 321,-63 327,-57 333,-57"/>
<text text-anchor="middle" x="440.5" y="-225.45" font-family="Helvetica,sans-Serif" font-weight="bold" font-size="9.00">components</text>
</g>
<g id="clust8" class="cluster">
<title>cluster_src/components/utils</title>
<path fill="#ffffff" stroke="black" stroke-width="2" d="M341,-93C341,-93 439,-93 439,-93 445,-93 451,-99 451,-105 451,-105 451,-136 451,-136 451,-142 445,-148 439,-148 439,-148 341,-148 341,-148 335,-148 329,-142 329,-136 329,-136 329,-105 329,-105 329,-99 335,-93 341,-93"/>
<text text-anchor="middle" x="390" y="-135.45" font-family="Helvetica,sans-Serif" font-weight="bold" font-size="9.00">utils</text>
</g>
<g id="clust7" class="cluster">
<title>cluster_src/components/inputs</title>
<path fill="#ffffff" stroke="black" stroke-width="2" d="M347.75,-156C347.75,-156 432.25,-156 432.25,-156 438.25,-156 444.25,-162 444.25,-168 444.25,-168 444.25,-199 444.25,-199 444.25,-205 438.25,-211 432.25,-211 432.25,-211 347.75,-211 347.75,-211 341.75,-211 335.75,-205 335.75,-199 335.75,-199 335.75,-168 335.75,-168 335.75,-162 341.75,-156 347.75,-156"/>
<text text-anchor="middle" x="390" y="-198.45" font-family="Helvetica,sans-Serif" font-weight="bold" font-size="9.00">inputs</text>
</g>
<g id="clust9" class="cluster">
<title>cluster_src/domain</title>
<path fill="#ffffff" stroke="black" stroke-width="2" d="M1149.5,-247C1149.5,-247 1446.25,-247 1446.25,-247 1452.25,-247 1458.25,-253 1458.25,-259 1458.25,-259 1458.25,-443 1458.25,-443 1458.25,-449 1452.25,-455 1446.25,-455 1446.25,-455 1149.5,-455 1149.5,-455 1143.5,-455 1137.5,-449 1137.5,-443 1137.5,-443 1137.5,-259 1137.5,-259 1137.5,-253 1143.5,-247 1149.5,-247"/>
<text text-anchor="middle" x="1297.88" y="-442.45" font-family="Helvetica,sans-Serif" font-weight="bold" font-size="9.00">domain</text>
</g>
<g id="clust10" class="cluster">
<title>cluster_src/domain/constants</title>
<path fill="#ffffff" stroke="black" stroke-width="2" d="M1277.12,-255C1277.12,-255 1323.12,-255 1323.12,-255 1329.12,-255 1335.12,-261 1335.12,-267 1335.12,-267 1335.12,-298 1335.12,-298 1335.12,-304 1329.12,-310 1323.12,-310 1323.12,-310 1277.12,-310 1277.12,-310 1271.12,-310 1265.12,-304 1265.12,-298 1265.12,-298 1265.12,-267 1265.12,-267 1265.12,-261 1271.12,-255 1277.12,-255"/>
<text text-anchor="middle" x="1300.12" y="-297.45" font-family="Helvetica,sans-Serif" font-weight="bold" font-size="9.00">constants</text>
</g>
<g id="clust11" class="cluster">
<title>cluster_src/domain/entities</title>
<path fill="#ffffff" stroke="black" stroke-width="2" d="M1383,-330C1383,-330 1438.25,-330 1438.25,-330 1444.25,-330 1450.25,-336 1450.25,-342 1450.25,-342 1450.25,-404 1450.25,-404 1450.25,-410 1444.25,-416 1438.25,-416 1438.25,-416 1383,-416 1383,-416 1377,-416 1371,-410 1371,-404 1371,-404 1371,-342 1371,-342 1371,-336 1377,-330 1383,-330"/>
<text text-anchor="middle" x="1410.62" y="-403.45" font-family="Helvetica,sans-Serif" font-weight="bold" font-size="9.00">entities</text>
</g>
<g id="clust12" class="cluster">
<title>cluster_src/domain/repositories</title>
<path fill="#ffffff" stroke="black" stroke-width="2" d="M1249.25,-318C1249.25,-318 1351,-318 1351,-318 1357,-318 1363,-324 1363,-330 1363,-330 1363,-392 1363,-392 1363,-398 1357,-404 1351,-404 1351,-404 1249.25,-404 1249.25,-404 1243.25,-404 1237.25,-398 1237.25,-392 1237.25,-392 1237.25,-330 1237.25,-330 1237.25,-324 1243.25,-318 1249.25,-318"/>
<text text-anchor="middle" x="1300.12" y="-391.45" font-family="Helvetica,sans-Serif" font-weight="bold" font-size="9.00">repositories</text>
</g>
<g id="clust13" class="cluster">
<title>cluster_src/infrastructure</title>
<path fill="#ffffff" stroke="black" stroke-width="2" d="M918.25,-16C918.25,-16 1626.25,-16 1626.25,-16 1632.25,-16 1638.25,-22 1638.25,-28 1638.25,-28 1638.25,-227 1638.25,-227 1638.25,-233 1632.25,-239 1626.25,-239 1626.25,-239 918.25,-239 918.25,-239 912.25,-239 906.25,-233 906.25,-227 906.25,-227 906.25,-28 906.25,-28 906.25,-22 912.25,-16 918.25,-16"/>
<text text-anchor="middle" x="1272.25" y="-226.45" font-family="Helvetica,sans-Serif" font-weight="bold" font-size="9.00">infrastructure</text>
</g>
<g id="clust14" class="cluster">
<title>cluster_src/infrastructure/database</title>
<path fill="#ffffff" stroke="black" stroke-width="2" d="M1119.75,-24C1119.75,-24 1618.25,-24 1618.25,-24 1624.25,-24 1630.25,-30 1630.25,-36 1630.25,-36 1630.25,-200 1630.25,-200 1630.25,-206 1624.25,-212 1618.25,-212 1618.25,-212 1119.75,-212 1119.75,-212 1113.75,-212 1107.75,-206 1107.75,-200 1107.75,-200 1107.75,-36 1107.75,-36 1107.75,-30 1113.75,-24 1119.75,-24"/>
<text text-anchor="middle" x="1369" y="-199.45" font-family="Helvetica,sans-Serif" font-weight="bold" font-size="9.00">database</text>
</g>
<g id="clust15" class="cluster">
<title>cluster_src/infrastructure/database/migrations</title>
<path fill="#ffffff" stroke="black" stroke-width="2" d="M1277.12,-32C1277.12,-32 1610.25,-32 1610.25,-32 1616.25,-32 1622.25,-38 1622.25,-44 1622.25,-44 1622.25,-173 1622.25,-173 1622.25,-179 1616.25,-185 1610.25,-185 1610.25,-185 1277.12,-185 1277.12,-185 1271.12,-185 1265.12,-179 1265.12,-173 1265.12,-173 1265.12,-44 1265.12,-44 1265.12,-38 1271.12,-32 1277.12,-32"/>
<text text-anchor="middle" x="1443.69" y="-172.45" font-family="Helvetica,sans-Serif" font-weight="bold" font-size="9.00">migrations</text>
</g>
<g id="clust18" class="cluster">
<title>cluster_src/infrastructure/database/migrations/v2</title>
<path fill="#ffffff" stroke="black" stroke-width="2" d="M1478.25,-103C1478.25,-103 1524.25,-103 1524.25,-103 1530.25,-103 1536.25,-109 1536.25,-115 1536.25,-115 1536.25,-146 1536.25,-146 1536.25,-152 1530.25,-158 1524.25,-158 1524.25,-158 1478.25,-158 1478.25,-158 1472.25,-158 1466.25,-152 1466.25,-146 1466.25,-146 1466.25,-115 1466.25,-115 1466.25,-109 1472.25,-103 1478.25,-103"/>
<text text-anchor="middle" x="1501.25" y="-145.45" font-family="Helvetica,sans-Serif" font-weight="bold" font-size="9.00">v2</text>
</g>
<g id="clust16" class="cluster">
<title>cluster_src/infrastructure/database/migrations/utils</title>
<path fill="#ffffff" stroke="black" stroke-width="2" d="M1556.25,-71C1556.25,-71 1602.25,-71 1602.25,-71 1608.25,-71 1614.25,-77 1614.25,-83 1614.25,-83 1614.25,-114 1614.25,-114 1614.25,-120 1608.25,-126 1602.25,-126 1602.25,-126 1556.25,-126 1556.25,-126 1550.25,-126 1544.25,-120 1544.25,-114 1544.25,-114 1544.25,-83 1544.25,-83 1544.25,-77 1550.25,-71 1556.25,-71"/>
<text text-anchor="middle" x="1579.25" y="-113.45" font-family="Helvetica,sans-Serif" font-weight="bold" font-size="9.00">utils</text>
</g>
<g id="clust17" class="cluster">
<title>cluster_src/infrastructure/database/migrations/v1</title>
<path fill="#ffffff" stroke="black" stroke-width="2" d="M1478.25,-40C1478.25,-40 1524.25,-40 1524.25,-40 1530.25,-40 1536.25,-46 1536.25,-52 1536.25,-52 1536.25,-83 1536.25,-83 1536.25,-89 1530.25,-95 1524.25,-95 1524.25,-95 1478.25,-95 1478.25,-95 1472.25,-95 1466.25,-89 1466.25,-83 1466.25,-83 1466.25,-52 1466.25,-52 1466.25,-46 1472.25,-40 1478.25,-40"/>
<text text-anchor="middle" x="1501.25" y="-82.45" font-family="Helvetica,sans-Serif" font-weight="bold" font-size="9.00">v1</text>
</g>
<g id="clust19" class="cluster">
<title>cluster_src/infrastructure/repository</title>
<path fill="#ffffff" stroke="black" stroke-width="2" d="M988.25,-126C988.25,-126 1087.75,-126 1087.75,-126 1093.75,-126 1099.75,-132 1099.75,-138 1099.75,-138 1099.75,-200 1099.75,-200 1099.75,-206 1093.75,-212 1087.75,-212 1087.75,-212 988.25,-212 988.25,-212 982.25,-212 976.25,-206 976.25,-200 976.25,-200 976.25,-138 976.25,-138 976.25,-132 982.25,-126 988.25,-126"/>
<text text-anchor="middle" x="1038" y="-199.45" font-family="Helvetica,sans-Serif" font-weight="bold" font-size="9.00">repository</text>
</g>
<g id="clust21" class="cluster">
<title>cluster_src/views</title>
<path fill="#ffffff" stroke="black" stroke-width="2" d="M224.75,-169C224.75,-169 301,-169 301,-169 307,-169 313,-175 313,-181 313,-181 313,-243 313,-243 313,-249 307,-255 301,-255 301,-255 224.75,-255 224.75,-255 218.75,-255 212.75,-249 212.75,-243 212.75,-243 212.75,-181 212.75,-181 212.75,-175 218.75,-169 224.75,-169"/>
<text text-anchor="middle" x="262.88" y="-242.45" font-family="Helvetica,sans-Serif" font-weight="bold" font-size="9.00">views</text>
</g>
<g id="clust20" class="cluster">
<title>cluster_src/stores</title>
<path fill="#ffffff" stroke="black" stroke-width="2" d="M471,-246C471,-246 547.25,-246 547.25,-246 553.25,-246 559.25,-252 559.25,-258 559.25,-258 559.25,-320 559.25,-320 559.25,-326 553.25,-332 547.25,-332 547.25,-332 471,-332 471,-332 465,-332 459,-326 459,-320 459,-320 459,-258 459,-258 459,-252 465,-246 471,-246"/>
<text text-anchor="middle" x="509.12" y="-319.45" font-family="Helvetica,sans-Serif" font-weight="bold" font-size="9.00">stores</text>
</g>
<!-- src/App.vue -->
<g id="node1" class="node">
<title>src/App.vue</title>
<g id="a_node1"><a xlink:href="src/App.vue" xlink:title="App.vue">
<path fill="#41f083" stroke="black" d="M161.96,-196.62C161.96,-196.62 120.79,-196.62 120.79,-196.62 117.58,-196.62 114.38,-193.42 114.38,-190.21 114.38,-190.21 114.38,-183.79 114.38,-183.79 114.38,-180.58 117.58,-177.38 120.79,-177.38 120.79,-177.38 161.96,-177.38 161.96,-177.38 165.17,-177.38 168.38,-180.58 168.38,-183.79 168.38,-183.79 168.38,-190.21 168.38,-190.21 168.38,-193.42 165.17,-196.62 161.96,-196.62"/>
<text text-anchor="start" x="125.25" y="-184.07" font-family="Helvetica,sans-Serif" font-size="9.00">App.vue</text>
</a>
</g>
</g>
<!-- src/components/utils/DiagnosticsPanel.vue -->
<g id="node2" class="node">
<title>src/components/utils/DiagnosticsPanel.vue</title>
<g id="a_node2"><a xlink:href="src/components/utils/DiagnosticsPanel.vue" xlink:title="DiagnosticsPanel.vue">
<path fill="#41f083" stroke="black" d="M436.58,-120.62C436.58,-120.62 343.42,-120.62 343.42,-120.62 340.21,-120.62 337,-117.42 337,-114.21 337,-114.21 337,-107.79 337,-107.79 337,-104.58 340.21,-101.38 343.42,-101.38 343.42,-101.38 436.58,-101.38 436.58,-101.38 439.79,-101.38 443,-104.58 443,-107.79 443,-107.79 443,-114.21 443,-114.21 443,-117.42 439.79,-120.62 436.58,-120.62"/>
<text text-anchor="start" x="345" y="-108.08" font-family="Helvetica,sans-Serif" font-size="9.00">DiagnosticsPanel.vue</text>
</a>
</g>
</g>
<!-- src/App.vue&#45;&gt;src/components/utils/DiagnosticsPanel.vue -->
<g id="edge1" class="edge">
<title>src/App.vue&#45;&gt;src/components/utils/DiagnosticsPanel.vue</title>
<path fill="none" stroke="#000000" stroke-width="2" stroke-opacity="0.200000" d="M168.77,-178.87C211.64,-165.65 296.75,-139.43 347.69,-123.73"/>
<polygon fill="#000000" fill-opacity="0.200000" stroke="#000000" stroke-width="2" stroke-opacity="0.200000" points="348.17,-125.78 353.29,-122.01 346.93,-121.77 348.17,-125.78"/>
</g>
<!-- src/views/NavBar.vue -->
<g id="node3" class="node">
<title>src/views/NavBar.vue</title>
<g id="a_node3"><a xlink:href="src/views/NavBar.vue" xlink:title="NavBar.vue">
<path fill="#41f083" stroke="black" d="M287.71,-227.62C287.71,-227.62 238.04,-227.62 238.04,-227.62 234.83,-227.62 231.62,-224.42 231.62,-221.21 231.62,-221.21 231.62,-214.79 231.62,-214.79 231.62,-211.58 234.83,-208.38 238.04,-208.38 238.04,-208.38 287.71,-208.38 287.71,-208.38 290.92,-208.38 294.12,-211.58 294.12,-214.79 294.12,-214.79 294.12,-221.21 294.12,-221.21 294.12,-224.42 290.92,-227.62 287.71,-227.62"/>
<text text-anchor="start" x="239.62" y="-215.07" font-family="Helvetica,sans-Serif" font-size="9.00">NavBar.vue</text>
</a>
</g>
</g>
<!-- src/App.vue&#45;&gt;src/views/NavBar.vue -->
<g id="edge2" class="edge">
<title>src/App.vue&#45;&gt;src/views/NavBar.vue</title>
<path fill="none" stroke="#000000" stroke-width="2" stroke-opacity="0.200000" d="M168.83,-193.13C179.95,-195.77 193,-198.94 204.75,-202 210.58,-203.52 216.72,-205.17 222.73,-206.83"/>
<polygon fill="#000000" fill-opacity="0.200000" stroke="#000000" stroke-width="2" stroke-opacity="0.200000" points="222.14,-208.84 228.48,-208.43 223.26,-204.8 222.14,-208.84"/>
</g>
<!-- src/views/VideoGallery.vue -->
<g id="node4" class="node">
<title>src/views/VideoGallery.vue</title>
<g id="a_node4"><a xlink:href="src/views/VideoGallery.vue" xlink:title="VideoGallery.vue">
<path fill="#41f083" stroke="black" d="M298.58,-196.62C298.58,-196.62 227.17,-196.62 227.17,-196.62 223.96,-196.62 220.75,-193.42 220.75,-190.21 220.75,-190.21 220.75,-183.79 220.75,-183.79 220.75,-180.58 223.96,-177.38 227.17,-177.38 227.17,-177.38 298.58,-177.38 298.58,-177.38 301.79,-177.38 305,-180.58 305,-183.79 305,-183.79 305,-190.21 305,-190.21 305,-193.42 301.79,-196.62 298.58,-196.62"/>
<text text-anchor="start" x="228.75" y="-184.07" font-family="Helvetica,sans-Serif" font-size="9.00">VideoGallery.vue</text>
</a>
</g>
</g>
<!-- src/App.vue&#45;&gt;src/views/VideoGallery.vue -->
<g id="edge3" class="edge">
<title>src/App.vue&#45;&gt;src/views/VideoGallery.vue</title>
<path fill="none" stroke="#000000" stroke-width="2" stroke-opacity="0.200000" d="M168.6,-187C181.35,-187 197.11,-187 212.03,-187"/>
<polygon fill="#000000" fill-opacity="0.200000" stroke="#000000" stroke-width="2" stroke-opacity="0.200000" points="211.65,-189.1 217.65,-187 211.65,-184.9 211.65,-189.1"/>
</g>
<!-- src/stores/appStateStore.ts -->
<g id="node16" class="node">
<title>src/stores/appStateStore.ts</title>
<g id="a_node16"><a xlink:href="src/stores/appStateStore.ts" xlink:title="appStateStore.ts">
<path fill="#ddfeff" stroke="black" d="M544.83,-273.62C544.83,-273.62 473.42,-273.62 473.42,-273.62 470.21,-273.62 467,-270.42 467,-267.21 467,-267.21 467,-260.79 467,-260.79 467,-257.58 470.21,-254.38 473.42,-254.38 473.42,-254.38 544.83,-254.38 544.83,-254.38 548.04,-254.38 551.25,-257.58 551.25,-260.79 551.25,-260.79 551.25,-267.21 551.25,-267.21 551.25,-270.42 548.04,-273.62 544.83,-273.62"/>
<text text-anchor="start" x="475" y="-261.07" font-family="Helvetica,sans-Serif" font-size="9.00">appStateStore.ts</text>
</a>
</g>
</g>
<!-- src/components/utils/DiagnosticsPanel.vue&#45;&gt;src/stores/appStateStore.ts -->
<g id="edge13" class="edge">
<title>src/components/utils/DiagnosticsPanel.vue&#45;&gt;src/stores/appStateStore.ts</title>
<path fill="none" stroke="#000000" stroke-width="2" stroke-opacity="0.200000" d="M414.27,-121.12C427.37,-128.09 442.71,-138.7 451,-153 460.85,-169.99 447.72,-224.93 459,-241 461.19,-244.12 463.92,-246.83 466.96,-249.18"/>
<polygon fill="#000000" fill-opacity="0.200000" stroke="#000000" stroke-width="2" stroke-opacity="0.200000" points="465.78,-250.92 471.96,-252.4 468.05,-247.39 465.78,-250.92"/>
</g>
<!-- src/components/inputs/FolderSelector.vue -->
<g id="node14" class="node">
<title>src/components/inputs/FolderSelector.vue</title>
<g id="a_node14"><a xlink:href="src/components/inputs/FolderSelector.vue" xlink:title="FolderSelector.vue">
<path fill="#41f083" stroke="black" d="M429.83,-183.62C429.83,-183.62 350.17,-183.62 350.17,-183.62 346.96,-183.62 343.75,-180.42 343.75,-177.21 343.75,-177.21 343.75,-170.79 343.75,-170.79 343.75,-167.58 346.96,-164.38 350.17,-164.38 350.17,-164.38 429.83,-164.38 429.83,-164.38 433.04,-164.38 436.25,-167.58 436.25,-170.79 436.25,-170.79 436.25,-177.21 436.25,-177.21 436.25,-180.42 433.04,-183.62 429.83,-183.62"/>
<text text-anchor="start" x="351.75" y="-171.07" font-family="Helvetica,sans-Serif" font-size="9.00">FolderSelector.vue</text>
</a>
</g>
</g>
<!-- src/views/NavBar.vue&#45;&gt;src/components/inputs/FolderSelector.vue -->
<g id="edge36" class="edge">
<title>src/views/NavBar.vue&#45;&gt;src/components/inputs/FolderSelector.vue</title>
<path fill="none" stroke="#000000" stroke-width="2" stroke-opacity="0.200000" d="M294.38,-209.04C300.57,-207.12 307.01,-205.05 313,-203 327.03,-198.19 342.33,-192.45 355.51,-187.34"/>
<polygon fill="#000000" fill-opacity="0.200000" stroke="#000000" stroke-width="2" stroke-opacity="0.200000" points="356.18,-189.34 361,-185.2 354.65,-185.42 356.18,-189.34"/>
</g>
<!-- src/stores/videosStore.ts -->
<g id="node15" class="node">
<title>src/stores/videosStore.ts</title>
<g id="a_node15"><a xlink:href="src/stores/videosStore.ts" xlink:title="videosStore.ts">
<path fill="#ddfeff" stroke="black" d="M539.96,-304.62C539.96,-304.62 478.29,-304.62 478.29,-304.62 475.08,-304.62 471.88,-301.42 471.88,-298.21 471.88,-298.21 471.88,-291.79 471.88,-291.79 471.88,-288.58 475.08,-285.38 478.29,-285.38 478.29,-285.38 539.96,-285.38 539.96,-285.38 543.17,-285.38 546.38,-288.58 546.38,-291.79 546.38,-291.79 546.38,-298.21 546.38,-298.21 546.38,-301.42 543.17,-304.62 539.96,-304.62"/>
<text text-anchor="start" x="479.88" y="-292.07" font-family="Helvetica,sans-Serif" font-size="9.00">videosStore.ts</text>
</a>
</g>
</g>
<!-- src/views/NavBar.vue&#45;&gt;src/stores/videosStore.ts -->
<g id="edge38" class="edge">
<title>src/views/NavBar.vue&#45;&gt;src/stores/videosStore.ts</title>
<path fill="none" stroke="#000000" stroke-width="2" stroke-opacity="0.200000" d="M282.81,-228.01C293.76,-233.52 307.92,-240.21 321,-245 368.55,-262.43 424.92,-276.66 463.27,-285.42"/>
<polygon fill="#000000" fill-opacity="0.200000" stroke="#000000" stroke-width="2" stroke-opacity="0.200000" points="462.38,-287.37 468.7,-286.64 463.31,-283.27 462.38,-287.37"/>
</g>
<!-- src/views/NavBar.vue&#45;&gt;src/stores/appStateStore.ts -->
<g id="edge37" class="edge">
<title>src/views/NavBar.vue&#45;&gt;src/stores/appStateStore.ts</title>
<path fill="none" stroke="#000000" stroke-width="2" stroke-opacity="0.200000" d="M294.32,-223.73C335.33,-231.46 408.87,-245.31 458.08,-254.58"/>
<polygon fill="#000000" fill-opacity="0.200000" stroke="#000000" stroke-width="2" stroke-opacity="0.200000" points="457.41,-256.59 463.69,-255.63 458.19,-252.46 457.41,-256.59"/>
</g>
<!-- src/components/VideoCard.vue -->
<g id="node12" class="node">
<title>src/components/VideoCard.vue</title>
<g id="a_node12"><a xlink:href="src/components/VideoCard.vue" xlink:title="VideoCard.vue">
<path fill="#41f083" stroke="black" d="M421.58,-84.62C421.58,-84.62 358.42,-84.62 358.42,-84.62 355.21,-84.62 352,-81.42 352,-78.21 352,-78.21 352,-71.79 352,-71.79 352,-68.58 355.21,-65.38 358.42,-65.38 358.42,-65.38 421.58,-65.38 421.58,-65.38 424.79,-65.38 428,-68.58 428,-71.79 428,-71.79 428,-78.21 428,-78.21 428,-81.42 424.79,-84.62 421.58,-84.62"/>
<text text-anchor="start" x="360" y="-72.08" font-family="Helvetica,sans-Serif" font-size="9.00">VideoCard.vue</text>
</a>
</g>
</g>
<!-- src/views/VideoGallery.vue&#45;&gt;src/components/VideoCard.vue -->
<g id="edge39" class="edge">
<title>src/views/VideoGallery.vue&#45;&gt;src/components/VideoCard.vue</title>
<path fill="none" stroke="#000000" stroke-width="2" stroke-opacity="0.200000" d="M266.81,-176.92C273.16,-156.95 290.16,-112.39 321,-90 327.54,-85.25 335.3,-81.96 343.19,-79.69"/>
<polygon fill="#000000" fill-opacity="0.200000" stroke="#000000" stroke-width="2" stroke-opacity="0.200000" points="343.49,-81.78 348.82,-78.32 342.5,-77.7 343.49,-81.78"/>
</g>
<!-- src/views/VideoGallery.vue&#45;&gt;src/stores/videosStore.ts -->
<g id="edge40" class="edge">
<title>src/views/VideoGallery.vue&#45;&gt;src/stores/videosStore.ts</title>
<path fill="none" stroke="#000000" stroke-width="2" stroke-opacity="0.200000" d="M304.65,-196.95C307.6,-198.41 310.42,-200.08 313,-202 318.14,-205.83 315.85,-210.19 321,-214 369.49,-249.88 408.42,-210.27 451,-253 459.83,-261.86 450.19,-271.11 459,-280 460.43,-281.44 461.99,-282.74 463.65,-283.92"/>
<polygon fill="#000000" fill-opacity="0.200000" stroke="#000000" stroke-width="2" stroke-opacity="0.200000" points="462.57,-285.72 468.83,-286.84 464.63,-282.06 462.57,-285.72"/>
</g>
<!-- src/application/index.ts -->
<g id="node5" class="node">
<title>src/application/index.ts</title>
<g id="a_node5"><a xlink:href="src/application/index.ts" xlink:title="index.ts">
<path fill="#ddfeff" stroke="black" d="M623.58,-183.62C623.58,-183.62 582.42,-183.62 582.42,-183.62 579.21,-183.62 576,-180.42 576,-177.21 576,-177.21 576,-170.79 576,-170.79 576,-167.58 579.21,-164.38 582.42,-164.38 582.42,-164.38 623.58,-164.38 623.58,-164.38 626.79,-164.38 630,-167.58 630,-170.79 630,-170.79 630,-177.21 630,-177.21 630,-180.42 626.79,-183.62 623.58,-183.62"/>
<text text-anchor="start" x="587.25" y="-171.07" font-family="Helvetica,sans-Serif" font-size="9.00">index.ts</text>
</a>
</g>
</g>
<!-- src/application/services/FiltersService.ts -->
<g id="node6" class="node">
<title>src/application/services/FiltersService.ts</title>
<g id="a_node6"><a xlink:href="src/application/services/FiltersService.ts" xlink:title="FiltersService.ts">
<path fill="#ddfeff" stroke="black" d="M733.58,-183.62C733.58,-183.62 665.17,-183.62 665.17,-183.62 661.96,-183.62 658.75,-180.42 658.75,-177.21 658.75,-177.21 658.75,-170.79 658.75,-170.79 658.75,-167.58 661.96,-164.38 665.17,-164.38 665.17,-164.38 733.58,-164.38 733.58,-164.38 736.79,-164.38 740,-167.58 740,-170.79 740,-170.79 740,-177.21 740,-177.21 740,-180.42 736.79,-183.62 733.58,-183.62"/>
<text text-anchor="start" x="666.75" y="-171.07" font-family="Helvetica,sans-Serif" font-size="9.00">FiltersService.ts</text>
</a>
</g>
</g>
<!-- src/application/index.ts&#45;&gt;src/application/services/FiltersService.ts -->
<g id="edge4" class="edge">
<title>src/application/index.ts&#45;&gt;src/application/services/FiltersService.ts</title>
<path fill="none" stroke="#000000" stroke-width="2" stroke-opacity="0.200000" d="M630.29,-174C636.29,-174 642.85,-174 649.46,-174"/>
<polygon fill="#000000" fill-opacity="0.200000" stroke="#000000" stroke-width="2" stroke-opacity="0.200000" points="649.43,-176.1 655.43,-174 649.43,-171.9 649.43,-176.1"/>
</g>
<!-- src/application/services/VideoMetadataService.ts -->
<g id="node7" class="node">
<title>src/application/services/VideoMetadataService.ts</title>
<g id="a_node7"><a xlink:href="src/application/services/VideoMetadataService.ts" xlink:title="VideoMetadataService.ts">
<path fill="#ddfeff" stroke="black" d="M875.83,-168.62C875.83,-168.62 772.17,-168.62 772.17,-168.62 768.96,-168.62 765.75,-165.42 765.75,-162.21 765.75,-162.21 765.75,-155.79 765.75,-155.79 765.75,-152.58 768.96,-149.38 772.17,-149.38 772.17,-149.38 875.83,-149.38 875.83,-149.38 879.04,-149.38 882.25,-152.58 882.25,-155.79 882.25,-155.79 882.25,-162.21 882.25,-162.21 882.25,-165.42 879.04,-168.62 875.83,-168.62"/>
<text text-anchor="start" x="773.75" y="-156.07" font-family="Helvetica,sans-Serif" font-size="9.00">VideoMetadataService.ts</text>
</a>
</g>
</g>
<!-- src/application/index.ts&#45;&gt;src/application/services/VideoMetadataService.ts -->
<g id="edge5" class="edge">
<title>src/application/index.ts&#45;&gt;src/application/services/VideoMetadataService.ts</title>
<path fill="none" stroke="#000000" stroke-width="2" stroke-opacity="0.200000" d="M621.47,-184.01C626.63,-186.47 632.4,-188.75 638,-190 687.77,-201.13 702.85,-200.52 752.75,-190 768.52,-186.67 785.07,-179.58 798.13,-173.01"/>
<polygon fill="#000000" fill-opacity="0.200000" stroke="#000000" stroke-width="2" stroke-opacity="0.200000" points="798.75,-175.06 803.1,-170.43 796.81,-171.33 798.75,-175.06"/>
</g>
<!-- src/application/services/VideoParserService.ts -->
<g id="node8" class="node">
<title>src/application/services/VideoParserService.ts</title>
<g id="a_node8"><a xlink:href="src/application/services/VideoParserService.ts" xlink:title="VideoParserService.ts">
<path fill="#ddfeff" stroke="black" d="M746.33,-152.62C746.33,-152.62 652.42,-152.62 652.42,-152.62 649.21,-152.62 646,-149.42 646,-146.21 646,-146.21 646,-139.79 646,-139.79 646,-136.58 649.21,-133.38 652.42,-133.38 652.42,-133.38 746.33,-133.38 746.33,-133.38 749.54,-133.38 752.75,-136.58 752.75,-139.79 752.75,-139.79 752.75,-146.21 752.75,-146.21 752.75,-149.42 749.54,-152.62 746.33,-152.62"/>
<text text-anchor="start" x="654" y="-140.07" font-family="Helvetica,sans-Serif" font-size="9.00">VideoParserService.ts</text>
</a>
</g>
</g>
<!-- src/application/index.ts&#45;&gt;src/application/services/VideoParserService.ts -->
<g id="edge6" class="edge">
<title>src/application/index.ts&#45;&gt;src/application/services/VideoParserService.ts</title>
<path fill="none" stroke="#000000" stroke-width="2" stroke-opacity="0.200000" d="M623.5,-164.02C628.18,-161.86 633.21,-159.71 638,-158 640.34,-157.17 642.74,-156.37 645.18,-155.59"/>
<polygon fill="#000000" fill-opacity="0.200000" stroke="#000000" stroke-width="2" stroke-opacity="0.200000" points="645.52,-157.68 650.67,-153.95 644.32,-153.66 645.52,-157.68"/>
</g>
<!-- src/infrastructure/index.ts -->
<g id="node9" class="node">
<title>src/infrastructure/index.ts</title>
<g id="a_node9"><a xlink:href="src/infrastructure/index.ts" xlink:title="index.ts">
<path fill="#ddfeff" stroke="black" d="M961.83,-168.62C961.83,-168.62 920.67,-168.62 920.67,-168.62 917.46,-168.62 914.25,-165.42 914.25,-162.21 914.25,-162.21 914.25,-155.79 914.25,-155.79 914.25,-152.58 917.46,-149.38 920.67,-149.38 920.67,-149.38 961.83,-149.38 961.83,-149.38 965.04,-149.38 968.25,-152.58 968.25,-155.79 968.25,-155.79 968.25,-162.21 968.25,-162.21 968.25,-165.42 965.04,-168.62 961.83,-168.62"/>
<text text-anchor="start" x="925.5" y="-156.07" font-family="Helvetica,sans-Serif" font-size="9.00">index.ts</text>
</a>
</g>
</g>
<!-- src/application/services/VideoMetadataService.ts&#45;&gt;src/infrastructure/index.ts -->
<g id="edge7" class="edge">
<title>src/application/services/VideoMetadataService.ts&#45;&gt;src/infrastructure/index.ts</title>
<path fill="none" stroke="#000000" stroke-width="2" stroke-opacity="0.200000" d="M882.62,-159C890.3,-159 897.98,-159 905.11,-159"/>
<polygon fill="#000000" fill-opacity="0.200000" stroke="#000000" stroke-width="2" stroke-opacity="0.200000" points="904.78,-161.1 910.78,-159 904.78,-156.9 904.78,-161.1"/>
</g>
<!-- src/application/services/VideoParserService.ts&#45;&gt;src/application/services/VideoMetadataService.ts -->
<g id="edge8" class="edge">
<title>src/application/services/VideoParserService.ts&#45;&gt;src/application/services/VideoMetadataService.ts</title>
<path fill="none" stroke="#000000" stroke-width="2" stroke-opacity="0.200000" d="M753.09,-149.88C754.39,-150.05 755.69,-150.22 757,-150.39"/>
<polygon fill="#000000" fill-opacity="0.200000" stroke="#000000" stroke-width="2" stroke-opacity="0.200000" points="756.41,-152.43 762.64,-151.12 756.96,-148.26 756.41,-152.43"/>
</g>
<!-- src/infrastructure/repository/MetadataRepository.ts -->
<g id="node29" class="node">
<title>src/infrastructure/repository/MetadataRepository.ts</title>
<g id="a_node29"><a xlink:href="src/infrastructure/repository/MetadataRepository.ts" xlink:title="MetadataRepository.ts">
<path fill="#ddfeff" stroke="black" d="M1085.33,-184.62C1085.33,-184.62 990.67,-184.62 990.67,-184.62 987.46,-184.62 984.25,-181.42 984.25,-178.21 984.25,-178.21 984.25,-171.79 984.25,-171.79 984.25,-168.58 987.46,-165.38 990.67,-165.38 990.67,-165.38 1085.33,-165.38 1085.33,-165.38 1088.54,-165.38 1091.75,-168.58 1091.75,-171.79 1091.75,-171.79 1091.75,-178.21 1091.75,-178.21 1091.75,-181.42 1088.54,-184.62 1085.33,-184.62"/>
<text text-anchor="start" x="992.25" y="-172.07" font-family="Helvetica,sans-Serif" font-size="9.00">MetadataRepository.ts</text>
</a>
</g>
</g>
<!-- src/infrastructure/index.ts&#45;&gt;src/infrastructure/repository/MetadataRepository.ts -->
<g id="edge27" class="edge">
<title>src/infrastructure/index.ts&#45;&gt;src/infrastructure/repository/MetadataRepository.ts</title>
<path fill="none" stroke="#000000" stroke-width="2" stroke-opacity="0.200000" d="M968.64,-163.46C970.75,-163.81 972.93,-164.18 975.15,-164.56"/>
<polygon fill="#000000" fill-opacity="0.200000" stroke="#000000" stroke-width="2" stroke-opacity="0.200000" points="974.67,-166.6 980.94,-165.53 975.37,-162.46 974.67,-166.6"/>
</g>
<!-- src/infrastructure/repository/VideoRepository.ts -->
<g id="node30" class="node">
<title>src/infrastructure/repository/VideoRepository.ts</title>
<g id="a_node30"><a xlink:href="src/infrastructure/repository/VideoRepository.ts" xlink:title="VideoRepository.ts">
<path fill="#ddfeff" stroke="black" d="M1078.21,-153.62C1078.21,-153.62 997.79,-153.62 997.79,-153.62 994.58,-153.62 991.38,-150.42 991.38,-147.21 991.38,-147.21 991.38,-140.79 991.38,-140.79 991.38,-137.58 994.58,-134.38 997.79,-134.38 997.79,-134.38 1078.21,-134.38 1078.21,-134.38 1081.42,-134.38 1084.62,-137.58 1084.62,-140.79 1084.62,-140.79 1084.62,-147.21 1084.62,-147.21 1084.62,-150.42 1081.42,-153.62 1078.21,-153.62"/>
<text text-anchor="start" x="999.38" y="-141.07" font-family="Helvetica,sans-Serif" font-size="9.00">VideoRepository.ts</text>
</a>
</g>
</g>
<!-- src/infrastructure/index.ts&#45;&gt;src/infrastructure/repository/VideoRepository.ts -->
<g id="edge28" class="edge">
<title>src/infrastructure/index.ts&#45;&gt;src/infrastructure/repository/VideoRepository.ts</title>
<path fill="none" stroke="#000000" stroke-width="2" stroke-opacity="0.200000" d="M968.64,-154.82C973.02,-154.13 977.7,-153.39 982.48,-152.63"/>
<polygon fill="#000000" fill-opacity="0.200000" stroke="#000000" stroke-width="2" stroke-opacity="0.200000" points="982.56,-154.74 988.16,-151.73 981.91,-150.6 982.56,-154.74"/>
</g>
<!-- src/assets/effects/FadeTransition.vue -->
<g id="node10" class="node">
<title>src/assets/effects/FadeTransition.vue</title>
<g id="a_node10"><a xlink:href="src/assets/effects/FadeTransition.vue" xlink:title="no&#45;orphans">
<path fill="#ccffcc" stroke="orange" d="M182.33,-268.62C182.33,-268.62 100.42,-268.62 100.42,-268.62 97.21,-268.62 94,-265.42 94,-262.21 94,-262.21 94,-255.79 94,-255.79 94,-252.58 97.21,-249.38 100.42,-249.38 100.42,-249.38 182.33,-249.38 182.33,-249.38 185.54,-249.38 188.75,-252.58 188.75,-255.79 188.75,-255.79 188.75,-262.21 188.75,-262.21 188.75,-265.42 185.54,-268.62 182.33,-268.62"/>
<text text-anchor="start" x="102" y="-256.07" font-family="Helvetica,sans-Serif" font-size="9.00" fill="orange">FadeTransition.vue</text>
</a>
</g>
</g>
<!-- src/assets/main.css -->
<g id="node11" class="node">
<title>src/assets/main.css</title>
<g id="a_node11"><a xlink:href="src/assets/main.css" xlink:title="main.css">
<path fill="#ffffcc" stroke="black" d="M162.08,-232.62C162.08,-232.62 120.67,-232.62 120.67,-232.62 117.46,-232.62 114.25,-229.42 114.25,-226.21 114.25,-226.21 114.25,-219.79 114.25,-219.79 114.25,-216.58 117.46,-213.38 120.67,-213.38 120.67,-213.38 162.08,-213.38 162.08,-213.38 165.29,-213.38 168.5,-216.58 168.5,-219.79 168.5,-219.79 168.5,-226.21 168.5,-226.21 168.5,-229.42 165.29,-232.62 162.08,-232.62"/>
<text text-anchor="start" x="122.25" y="-220.07" font-family="Helvetica,sans-Serif" font-size="9.00">main.css</text>
</a>
</g>
</g>
<!-- src/components/VideoCard.vue&#45;&gt;src/application/index.ts -->
<g id="edge10" class="edge">
<title>src/components/VideoCard.vue&#45;&gt;src/application/index.ts</title>
<path fill="none" stroke="#000000" stroke-width="2" stroke-opacity="0.200000" d="M428.29,-82.7C435.92,-84.73 443.81,-87.16 451,-90 499.2,-109.05 551.11,-140.64 579.77,-159.17"/>
<polygon fill="#000000" fill-opacity="0.200000" stroke="#000000" stroke-width="2" stroke-opacity="0.200000" points="578.51,-160.86 584.69,-162.38 580.81,-157.34 578.51,-160.86"/>
</g>
<!-- src/components/VideoEmbed.vue -->
<g id="node13" class="node">
<title>src/components/VideoEmbed.vue</title>
<g id="a_node13"><a xlink:href="src/components/VideoEmbed.vue" xlink:title="VideoEmbed.vue">
<path fill="#41f083" stroke="black" d="M545.58,-84.62C545.58,-84.62 472.67,-84.62 472.67,-84.62 469.46,-84.62 466.25,-81.42 466.25,-78.21 466.25,-78.21 466.25,-71.79 466.25,-71.79 466.25,-68.58 469.46,-65.38 472.67,-65.38 472.67,-65.38 545.58,-65.38 545.58,-65.38 548.79,-65.38 552,-68.58 552,-71.79 552,-71.79 552,-78.21 552,-78.21 552,-81.42 548.79,-84.62 545.58,-84.62"/>
<text text-anchor="start" x="474.25" y="-72.08" font-family="Helvetica,sans-Serif" font-size="9.00">VideoEmbed.vue</text>
</a>
</g>
</g>
<!-- src/components/VideoCard.vue&#45;&gt;src/components/VideoEmbed.vue -->
<g id="edge9" class="edge">
<title>src/components/VideoCard.vue&#45;&gt;src/components/VideoEmbed.vue</title>
<path fill="none" stroke="#000000" stroke-width="2" stroke-opacity="0.200000" d="M428.38,-75C437.5,-75 447.42,-75 457.06,-75"/>
<polygon fill="#000000" fill-opacity="0.200000" stroke="#000000" stroke-width="2" stroke-opacity="0.200000" points="456.78,-77.1 462.78,-75 456.78,-72.9 456.78,-77.1"/>
</g>
<!-- src/components/inputs/FolderSelector.vue&#45;&gt;src/application/index.ts -->
<g id="edge11" class="edge">
<title>src/components/inputs/FolderSelector.vue&#45;&gt;src/application/index.ts</title>
<path fill="none" stroke="#000000" stroke-width="2" stroke-opacity="0.200000" d="M436.52,-174C475.61,-174 531.15,-174 566.88,-174"/>
<polygon fill="#000000" fill-opacity="0.200000" stroke="#000000" stroke-width="2" stroke-opacity="0.200000" points="566.49,-176.1 572.49,-174 566.49,-171.9 566.49,-176.1"/>
</g>
<!-- src/components/inputs/FolderSelector.vue&#45;&gt;src/stores/videosStore.ts -->
<g id="edge12" class="edge">
<title>src/components/inputs/FolderSelector.vue&#45;&gt;src/stores/videosStore.ts</title>
<path fill="none" stroke="#000000" stroke-width="2" stroke-opacity="0.200000" d="M402.16,-183.71C415.84,-196.24 438.69,-219.38 451,-244 458.33,-258.66 447.87,-267.97 459,-280 460.54,-281.66 462.25,-283.14 464.09,-284.46"/>
<polygon fill="#000000" fill-opacity="0.200000" stroke="#000000" stroke-width="2" stroke-opacity="0.200000" points="462.83,-286.16 469.09,-287.28 464.9,-282.5 462.83,-286.16"/>
</g>
<!-- src/stores/videosStore.ts&#45;&gt;src/application/index.ts -->
<g id="edge35" class="edge">
<title>src/stores/videosStore.ts&#45;&gt;src/application/index.ts</title>
<path fill="none" stroke="#000000" stroke-width="2" stroke-opacity="0.200000" d="M546.8,-288.22C551.63,-286.16 556.2,-283.49 560,-280 585.24,-256.82 595.55,-216.5 599.58,-192.84"/>
<polygon fill="#000000" fill-opacity="0.200000" stroke="#000000" stroke-width="2" stroke-opacity="0.200000" points="601.63,-193.33 600.46,-187.09 597.48,-192.7 601.63,-193.33"/>
</g>
<!-- src/domain/constants/index.ts -->
<g id="node17" class="node">
<title>src/domain/constants/index.ts</title>
<g id="a_node17"><a xlink:href="src/domain/constants/index.ts" xlink:title="index.ts">
<path fill="#ddfeff" stroke="black" d="M1320.71,-282.62C1320.71,-282.62 1279.54,-282.62 1279.54,-282.62 1276.33,-282.62 1273.12,-279.42 1273.12,-276.21 1273.12,-276.21 1273.12,-269.79 1273.12,-269.79 1273.12,-266.58 1276.33,-263.38 1279.54,-263.38 1279.54,-263.38 1320.71,-263.38 1320.71,-263.38 1323.92,-263.38 1327.12,-266.58 1327.12,-269.79 1327.12,-269.79 1327.12,-276.21 1327.12,-276.21 1327.12,-279.42 1323.92,-282.62 1320.71,-282.62"/>
<text text-anchor="start" x="1284.38" y="-270.07" font-family="Helvetica,sans-Serif" font-size="9.00">index.ts</text>
</a>
</g>
</g>
<!-- src/domain/entities/Metadata.ts -->
<g id="node18" class="node">
<title>src/domain/entities/Metadata.ts</title>
<g id="a_node18"><a xlink:href="src/domain/entities/Metadata.ts" xlink:title="Metadata.ts">
<path fill="#ddfeff" stroke="black" d="M1435.83,-357.62C1435.83,-357.62 1385.42,-357.62 1385.42,-357.62 1382.21,-357.62 1379,-354.42 1379,-351.21 1379,-351.21 1379,-344.79 1379,-344.79 1379,-341.58 1382.21,-338.38 1385.42,-338.38 1385.42,-338.38 1435.83,-338.38 1435.83,-338.38 1439.04,-338.38 1442.25,-341.58 1442.25,-344.79 1442.25,-344.79 1442.25,-351.21 1442.25,-351.21 1442.25,-354.42 1439.04,-357.62 1435.83,-357.62"/>
<text text-anchor="start" x="1387" y="-345.07" font-family="Helvetica,sans-Serif" font-size="9.00">Metadata.ts</text>
</a>
</g>
</g>
<!-- src/domain/entities/Video.ts -->
<g id="node19" class="node">
<title>src/domain/entities/Video.ts</title>
<g id="a_node19"><a xlink:href="src/domain/entities/Video.ts" xlink:title="Video.ts">
<path fill="#ddfeff" stroke="black" d="M1431.21,-388.62C1431.21,-388.62 1390.04,-388.62 1390.04,-388.62 1386.83,-388.62 1383.62,-385.42 1383.62,-382.21 1383.62,-382.21 1383.62,-375.79 1383.62,-375.79 1383.62,-372.58 1386.83,-369.38 1390.04,-369.38 1390.04,-369.38 1431.21,-369.38 1431.21,-369.38 1434.42,-369.38 1437.62,-372.58 1437.62,-375.79 1437.62,-375.79 1437.62,-382.21 1437.62,-382.21 1437.62,-385.42 1434.42,-388.62 1431.21,-388.62"/>
<text text-anchor="start" x="1394.12" y="-376.07" font-family="Helvetica,sans-Serif" font-size="9.00">Video.ts</text>
</a>
</g>
</g>
<!-- src/domain/index.ts -->
<g id="node20" class="node">
<title>src/domain/index.ts</title>
<g id="a_node20"><a xlink:href="src/domain/index.ts" xlink:title="index.ts">
<path fill="#ddfeff" stroke="black" d="M1193.08,-345.62C1193.08,-345.62 1151.92,-345.62 1151.92,-345.62 1148.71,-345.62 1145.5,-342.42 1145.5,-339.21 1145.5,-339.21 1145.5,-332.79 1145.5,-332.79 1145.5,-329.58 1148.71,-326.38 1151.92,-326.38 1151.92,-326.38 1193.08,-326.38 1193.08,-326.38 1196.29,-326.38 1199.5,-329.58 1199.5,-332.79 1199.5,-332.79 1199.5,-339.21 1199.5,-339.21 1199.5,-342.42 1196.29,-345.62 1193.08,-345.62"/>
<text text-anchor="start" x="1156.75" y="-333.07" font-family="Helvetica,sans-Serif" font-size="9.00">index.ts</text>
</a>
</g>
</g>
<!-- src/domain/index.ts&#45;&gt;src/domain/constants/index.ts -->
<g id="edge14" class="edge">
<title>src/domain/index.ts&#45;&gt;src/domain/constants/index.ts</title>
<path fill="none" stroke="#000000" stroke-width="2" stroke-opacity="0.200000" d="M1193.68,-325.88C1214.65,-315.36 1247.63,-298.83 1271.11,-287.05"/>
<polygon fill="#000000" fill-opacity="0.200000" stroke="#000000" stroke-width="2" stroke-opacity="0.200000" points="1271.86,-289.02 1276.29,-284.45 1269.98,-285.27 1271.86,-289.02"/>
</g>
<!-- src/domain/index.ts&#45;&gt;src/domain/entities/Metadata.ts -->
<g id="edge15" class="edge">
<title>src/domain/index.ts&#45;&gt;src/domain/entities/Metadata.ts</title>
<path fill="none" stroke="#000000" stroke-opacity="0.200000" d="M1178.73,-345.94C1187.98,-362.31 1208.96,-394.38 1237.25,-407 1262.77,-418.38 1341.55,-424.91 1363,-407 1378.26,-394.26 1358.35,-378.33 1371,-363 1371.53,-362.36 1372.08,-361.75 1372.67,-361.17"/>
<polygon fill="none" stroke="#000000" stroke-opacity="0.200000" points="1373.92,-362.85 1377.35,-357.5 1371.33,-359.54 1373.92,-362.85"/>
</g>
<!-- src/domain/index.ts&#45;&gt;src/domain/entities/Video.ts -->
<g id="edge16" class="edge">
<title>src/domain/index.ts&#45;&gt;src/domain/entities/Video.ts</title>
<path fill="none" stroke="#000000" stroke-opacity="0.200000" d="M1177.83,-346.01C1186.25,-363.99 1206.69,-401.28 1237.25,-416 1287.6,-440.26 1310.23,-434.4 1363,-416 1375.61,-411.61 1387.36,-402.22 1395.92,-394.01"/>
<polygon fill="none" stroke="#000000" stroke-opacity="0.200000" points="1396.99,-395.9 1399.74,-390.17 1394.02,-392.94 1396.99,-395.9"/>
</g>
<!-- src/domain/repositories/IMetadataRepository.ts -->
<g id="node21" class="node">
<title>src/domain/repositories/IMetadataRepository.ts</title>
<g id="a_node21"><a xlink:href="src/domain/repositories/IMetadataRepository.ts" xlink:title="IMetadataRepository.ts">
<path fill="#ddfeff" stroke="black" d="M1348.58,-345.62C1348.58,-345.62 1251.67,-345.62 1251.67,-345.62 1248.46,-345.62 1245.25,-342.42 1245.25,-339.21 1245.25,-339.21 1245.25,-332.79 1245.25,-332.79 1245.25,-329.58 1248.46,-326.38 1251.67,-326.38 1251.67,-326.38 1348.58,-326.38 1348.58,-326.38 1351.79,-326.38 1355,-329.58 1355,-332.79 1355,-332.79 1355,-339.21 1355,-339.21 1355,-342.42 1351.79,-345.62 1348.58,-345.62"/>
<text text-anchor="start" x="1253.25" y="-333.07" font-family="Helvetica,sans-Serif" font-size="9.00">IMetadataRepository.ts</text>
</a>
</g>
</g>
<!-- src/domain/index.ts&#45;&gt;src/domain/repositories/IMetadataRepository.ts -->
<g id="edge17" class="edge">
<title>src/domain/index.ts&#45;&gt;src/domain/repositories/IMetadataRepository.ts</title>
<path fill="none" stroke="#000000" stroke-opacity="0.200000" d="M1199.84,-336C1210.88,-336 1224.24,-336 1237.52,-336"/>
<polygon fill="none" stroke="#000000" stroke-opacity="0.200000" points="1237.36,-338.1 1243.36,-336 1237.36,-333.9 1237.36,-338.1"/>
</g>
<!-- src/domain/repositories/IVideoRepository.ts -->
<g id="node22" class="node">
<title>src/domain/repositories/IVideoRepository.ts</title>
<g id="a_node22"><a xlink:href="src/domain/repositories/IVideoRepository.ts" xlink:title="IVideoRepository.ts">
<path fill="#ddfeff" stroke="black" d="M1341.46,-376.62C1341.46,-376.62 1258.79,-376.62 1258.79,-376.62 1255.58,-376.62 1252.38,-373.42 1252.38,-370.21 1252.38,-370.21 1252.38,-363.79 1252.38,-363.79 1252.38,-360.58 1255.58,-357.38 1258.79,-357.38 1258.79,-357.38 1341.46,-357.38 1341.46,-357.38 1344.67,-357.38 1347.88,-360.58 1347.88,-363.79 1347.88,-363.79 1347.88,-370.21 1347.88,-370.21 1347.88,-373.42 1344.67,-376.62 1341.46,-376.62"/>
<text text-anchor="start" x="1260.38" y="-364.07" font-family="Helvetica,sans-Serif" font-size="9.00">IVideoRepository.ts</text>
</a>
</g>
</g>
<!-- src/domain/index.ts&#45;&gt;src/domain/repositories/IVideoRepository.ts -->
<g id="edge18" class="edge">
<title>src/domain/index.ts&#45;&gt;src/domain/repositories/IVideoRepository.ts</title>
<path fill="none" stroke="#000000" stroke-opacity="0.200000" d="M1199.85,-342.66C1211.33,-345.56 1224.95,-348.97 1237.25,-352 1241.37,-353.02 1245.66,-354.07 1249.95,-355.12"/>
<polygon fill="none" stroke="#000000" stroke-opacity="0.200000" points="1249.38,-357.14 1255.71,-356.52 1250.37,-353.06 1249.38,-357.14"/>
</g>
<!-- src/domain/repositories/IMetadataRepository.ts&#45;&gt;src/domain/entities/Metadata.ts -->
<g id="edge19" class="edge">
<title>src/domain/repositories/IMetadataRepository.ts&#45;&gt;src/domain/entities/Metadata.ts</title>
<path fill="none" stroke="#000000" stroke-opacity="0.200000" d="M1355.38,-342C1360.71,-342.59 1366.05,-343.18 1371.19,-343.75"/>
<polygon fill="none" stroke="#000000" stroke-opacity="0.200000" points="1370.83,-345.82 1377.03,-344.39 1371.3,-341.65 1370.83,-345.82"/>
</g>
<!-- src/domain/repositories/IVideoRepository.ts&#45;&gt;src/domain/entities/Video.ts -->
<g id="edge20" class="edge">
<title>src/domain/repositories/IVideoRepository.ts&#45;&gt;src/domain/entities/Video.ts</title>
<path fill="none" stroke="#000000" stroke-opacity="0.200000" d="M1348.08,-372.19C1357.39,-373.22 1366.98,-374.28 1375.74,-375.25"/>
<polygon fill="none" stroke="#000000" stroke-opacity="0.200000" points="1375.5,-377.34 1381.7,-375.91 1375.97,-373.16 1375.5,-377.34"/>
</g>
<!-- src/infrastructure/database/DatabaseConnection.ts -->
<g id="node23" class="node">
<title>src/infrastructure/database/DatabaseConnection.ts</title>
<g id="a_node23"><a xlink:href="src/infrastructure/database/DatabaseConnection.ts" xlink:title="DatabaseConnection.ts">
<path fill="#ddfeff" stroke="black" d="M1222.83,-153.62C1222.83,-153.62 1122.17,-153.62 1122.17,-153.62 1118.96,-153.62 1115.75,-150.42 1115.75,-147.21 1115.75,-147.21 1115.75,-140.79 1115.75,-140.79 1115.75,-137.58 1118.96,-134.38 1122.17,-134.38 1122.17,-134.38 1222.83,-134.38 1222.83,-134.38 1226.04,-134.38 1229.25,-137.58 1229.25,-140.79 1229.25,-140.79 1229.25,-147.21 1229.25,-147.21 1229.25,-150.42 1226.04,-153.62 1222.83,-153.62"/>
<text text-anchor="start" x="1123.75" y="-141.07" font-family="Helvetica,sans-Serif" font-size="9.00">DatabaseConnection.ts</text>
</a>
</g>
</g>
<!-- src/infrastructure/database/migrations/index.ts -->
<g id="node24" class="node">
<title>src/infrastructure/database/migrations/index.ts</title>
<g id="a_node24"><a xlink:href="src/infrastructure/database/migrations/index.ts" xlink:title="index.ts">
<path fill="#ddfeff" stroke="black" d="M1320.71,-142.62C1320.71,-142.62 1279.54,-142.62 1279.54,-142.62 1276.33,-142.62 1273.12,-139.42 1273.12,-136.21 1273.12,-136.21 1273.12,-129.79 1273.12,-129.79 1273.12,-126.58 1276.33,-123.38 1279.54,-123.38 1279.54,-123.38 1320.71,-123.38 1320.71,-123.38 1323.92,-123.38 1327.12,-126.58 1327.12,-129.79 1327.12,-129.79 1327.12,-136.21 1327.12,-136.21 1327.12,-139.42 1323.92,-142.62 1320.71,-142.62"/>
<text text-anchor="start" x="1284.38" y="-130.07" font-family="Helvetica,sans-Serif" font-size="9.00">index.ts</text>
</a>
</g>
</g>
<!-- src/infrastructure/database/DatabaseConnection.ts&#45;&gt;src/infrastructure/database/migrations/index.ts -->
<g id="edge21" class="edge">
<title>src/infrastructure/database/DatabaseConnection.ts&#45;&gt;src/infrastructure/database/migrations/index.ts</title>
<path fill="none" stroke="#000000" stroke-width="2" stroke-opacity="0.200000" d="M1229.7,-139.08C1241.32,-138.06 1253.25,-137.02 1263.86,-136.09"/>
<polygon fill="#000000" fill-opacity="0.200000" stroke="#000000" stroke-width="2" stroke-opacity="0.200000" points="1264.01,-138.18 1269.8,-135.57 1263.64,-134 1264.01,-138.18"/>
</g>
<!-- src/infrastructure/database/migrations/migrations.ts -->
<g id="node25" class="node">
<title>src/infrastructure/database/migrations/migrations.ts</title>
<g id="a_node25"><a xlink:href="src/infrastructure/database/migrations/migrations.ts" xlink:title="migrations.ts">
<path fill="#ddfeff" stroke="black" d="M1439.21,-130.62C1439.21,-130.62 1382.04,-130.62 1382.04,-130.62 1378.83,-130.62 1375.62,-127.42 1375.62,-124.21 1375.62,-124.21 1375.62,-117.79 1375.62,-117.79 1375.62,-114.58 1378.83,-111.38 1382.04,-111.38 1382.04,-111.38 1439.21,-111.38 1439.21,-111.38 1442.42,-111.38 1445.62,-114.58 1445.62,-117.79 1445.62,-117.79 1445.62,-124.21 1445.62,-124.21 1445.62,-127.42 1442.42,-130.62 1439.21,-130.62"/>
<text text-anchor="start" x="1383.62" y="-118.08" font-family="Helvetica,sans-Serif" font-size="9.00">migrations.ts</text>
</a>
</g>
</g>
<!-- src/infrastructure/database/migrations/index.ts&#45;&gt;src/infrastructure/database/migrations/migrations.ts -->
<g id="edge22" class="edge">
<title>src/infrastructure/database/migrations/index.ts&#45;&gt;src/infrastructure/database/migrations/migrations.ts</title>
<path fill="none" stroke="#000000" stroke-width="2" stroke-opacity="0.200000" d="M1327.39,-130.1C1341.81,-128.5 1359.87,-126.5 1375.39,-124.79"/>
<polygon fill="#000000" fill-opacity="0.200000" stroke="#000000" stroke-width="2" stroke-opacity="0.200000" points="1378.2,-123.39 1382.1,-131.49 1374,-127.59 1378.2,-123.39"/>
</g>
<!-- src/infrastructure/database/migrations/v1/index.ts -->
<g id="node26" class="node">
<title>src/infrastructure/database/migrations/v1/index.ts</title>
<g id="a_node26"><a xlink:href="src/infrastructure/database/migrations/v1/index.ts" xlink:title="index.ts">
<path fill="#ddfeff" stroke="black" d="M1521.83,-67.62C1521.83,-67.62 1480.67,-67.62 1480.67,-67.62 1477.46,-67.62 1474.25,-64.42 1474.25,-61.21 1474.25,-61.21 1474.25,-54.79 1474.25,-54.79 1474.25,-51.58 1477.46,-48.38 1480.67,-48.38 1480.67,-48.38 1521.83,-48.38 1521.83,-48.38 1525.04,-48.38 1528.25,-51.58 1528.25,-54.79 1528.25,-54.79 1528.25,-61.21 1528.25,-61.21 1528.25,-64.42 1525.04,-67.62 1521.83,-67.62"/>
<text text-anchor="start" x="1485.5" y="-55.08" font-family="Helvetica,sans-Serif" font-size="9.00">index.ts</text>
</a>
</g>
</g>
<!-- src/infrastructure/database/migrations/migrations.ts&#45;&gt;src/infrastructure/database/migrations/v1/index.ts -->
<g id="edge23" class="edge">
<title>src/infrastructure/database/migrations/migrations.ts&#45;&gt;src/infrastructure/database/migrations/v1/index.ts</title>
<path fill="none" stroke="#000000" stroke-width="2" stroke-opacity="0.200000" d="M1425.86,-110.88C1440.21,-100.68 1462.51,-84.83 1478.95,-73.14"/>
<polygon fill="#000000" fill-opacity="0.200000" stroke="#000000" stroke-width="2" stroke-opacity="0.200000" points="1479.91,-75.04 1483.58,-69.85 1477.47,-71.62 1479.91,-75.04"/>
</g>
<!-- src/infrastructure/database/migrations/v2/index.ts -->
<g id="node27" class="node">
<title>src/infrastructure/database/migrations/v2/index.ts</title>
<g id="a_node27"><a xlink:href="src/infrastructure/database/migrations/v2/index.ts" xlink:title="index.ts">
<path fill="#ddfeff" stroke="black" d="M1521.83,-130.62C1521.83,-130.62 1480.67,-130.62 1480.67,-130.62 1477.46,-130.62 1474.25,-127.42 1474.25,-124.21 1474.25,-124.21 1474.25,-117.79 1474.25,-117.79 1474.25,-114.58 1477.46,-111.38 1480.67,-111.38 1480.67,-111.38 1521.83,-111.38 1521.83,-111.38 1525.04,-111.38 1528.25,-114.58 1528.25,-117.79 1528.25,-117.79 1528.25,-124.21 1528.25,-124.21 1528.25,-127.42 1525.04,-130.62 1521.83,-130.62"/>
<text text-anchor="start" x="1485.5" y="-118.08" font-family="Helvetica,sans-Serif" font-size="9.00">index.ts</text>
</a>
</g>
</g>
<!-- src/infrastructure/database/migrations/migrations.ts&#45;&gt;src/infrastructure/database/migrations/v2/index.ts -->
<g id="edge24" class="edge">
<title>src/infrastructure/database/migrations/migrations.ts&#45;&gt;src/infrastructure/database/migrations/v2/index.ts</title>
<path fill="none" stroke="#000000" stroke-width="2" stroke-opacity="0.200000" d="M1445.89,-121C1452.11,-121 1458.6,-121 1464.85,-121"/>
<polygon fill="#000000" fill-opacity="0.200000" stroke="#000000" stroke-width="2" stroke-opacity="0.200000" points="1464.75,-123.1 1470.75,-121 1464.75,-118.9 1464.75,-123.1"/>
</g>
<!-- src/infrastructure/database/migrations/utils/index.ts -->
<g id="node28" class="node">
<title>src/infrastructure/database/migrations/utils/index.ts</title>
<g id="a_node28"><a xlink:href="src/infrastructure/database/migrations/utils/index.ts" xlink:title="index.ts">
<path fill="#ddfeff" stroke="black" d="M1599.83,-98.62C1599.83,-98.62 1558.67,-98.62 1558.67,-98.62 1555.46,-98.62 1552.25,-95.42 1552.25,-92.21 1552.25,-92.21 1552.25,-85.79 1552.25,-85.79 1552.25,-82.58 1555.46,-79.38 1558.67,-79.38 1558.67,-79.38 1599.83,-79.38 1599.83,-79.38 1603.04,-79.38 1606.25,-82.58 1606.25,-85.79 1606.25,-85.79 1606.25,-92.21 1606.25,-92.21 1606.25,-95.42 1603.04,-98.62 1599.83,-98.62"/>
<text text-anchor="start" x="1563.5" y="-86.08" font-family="Helvetica,sans-Serif" font-size="9.00">index.ts</text>
</a>
</g>
</g>
<!-- src/infrastructure/database/migrations/v1/index.ts&#45;&gt;src/infrastructure/database/migrations/utils/index.ts -->
<g id="edge25" class="edge">
<title>src/infrastructure/database/migrations/v1/index.ts&#45;&gt;src/infrastructure/database/migrations/utils/index.ts</title>
<path fill="none" stroke="#000000" stroke-width="2" stroke-opacity="0.200000" d="M1526.72,-67.98C1532.62,-70.39 1539.03,-73 1545.26,-75.54"/>
<polygon fill="#000000" fill-opacity="0.200000" stroke="#000000" stroke-width="2" stroke-opacity="0.200000" points="1544.42,-77.47 1550.77,-77.79 1546,-73.58 1544.42,-77.47"/>
</g>
<!-- src/infrastructure/database/migrations/v2/index.ts&#45;&gt;src/infrastructure/database/migrations/utils/index.ts -->
<g id="edge26" class="edge">
<title>src/infrastructure/database/migrations/v2/index.ts&#45;&gt;src/infrastructure/database/migrations/utils/index.ts</title>
<path fill="none" stroke="#000000" stroke-width="2" stroke-opacity="0.200000" d="M1526.3,-110.88C1532.6,-108.22 1539.49,-105.32 1546.14,-102.52"/>
<polygon fill="#000000" fill-opacity="0.200000" stroke="#000000" stroke-width="2" stroke-opacity="0.200000" points="1546.85,-104.5 1551.57,-100.23 1545.22,-100.63 1546.85,-104.5"/>
</g>
<!-- src/infrastructure/repository/MetadataRepository.ts&#45;&gt;src/domain/index.ts -->
<g id="edge30" class="edge">
<title>src/infrastructure/repository/MetadataRepository.ts&#45;&gt;src/domain/index.ts</title>
<path fill="none" stroke="#000000" stroke-width="2" stroke-opacity="0.200000" d="M1047.29,-185.07C1069.41,-211.95 1130.03,-285.61 1157.57,-319.07"/>
<polygon fill="#000000" fill-opacity="0.200000" stroke="#000000" stroke-width="2" stroke-opacity="0.200000" points="1155.86,-320.3 1161.29,-323.6 1159.1,-317.63 1155.86,-320.3"/>
</g>
<!-- src/infrastructure/repository/MetadataRepository.ts&#45;&gt;src/infrastructure/database/DatabaseConnection.ts -->
<g id="edge29" class="edge">
<title>src/infrastructure/repository/MetadataRepository.ts&#45;&gt;src/infrastructure/database/DatabaseConnection.ts</title>
<path fill="none" stroke="#000000" stroke-width="2" stroke-opacity="0.200000" d="M1082.02,-164.94C1094.05,-162.12 1107.26,-159.03 1119.74,-156.11"/>
<polygon fill="#000000" fill-opacity="0.200000" stroke="#000000" stroke-width="2" stroke-opacity="0.200000" points="1119.93,-158.22 1125.3,-154.81 1118.98,-154.13 1119.93,-158.22"/>
</g>
<!-- src/infrastructure/repository/VideoRepository.ts&#45;&gt;src/domain/index.ts -->
<g id="edge32" class="edge">
<title>src/infrastructure/repository/VideoRepository.ts&#45;&gt;src/domain/index.ts</title>
<path fill="none" stroke="#000000" stroke-width="2" stroke-opacity="0.200000" d="M1084.83,-148.9C1090.47,-151.23 1095.67,-154.49 1099.75,-159 1116.62,-177.65 1100,-191.08 1107.75,-215 1120.46,-254.23 1145.27,-295.92 1159.91,-318.68"/>
<polygon fill="#000000" fill-opacity="0.200000" stroke="#000000" stroke-width="2" stroke-opacity="0.200000" points="1158.1,-319.76 1163.14,-323.63 1161.62,-317.46 1158.1,-319.76"/>
</g>
<!-- src/infrastructure/repository/VideoRepository.ts&#45;&gt;src/infrastructure/database/DatabaseConnection.ts -->
<g id="edge31" class="edge">
<title>src/infrastructure/repository/VideoRepository.ts&#45;&gt;src/infrastructure/database/DatabaseConnection.ts</title>
<path fill="none" stroke="#000000" stroke-width="2" stroke-opacity="0.200000" d="M1084.97,-144C1092.06,-144 1099.5,-144 1106.9,-144"/>
<polygon fill="#000000" fill-opacity="0.200000" stroke="#000000" stroke-width="2" stroke-opacity="0.200000" points="1106.54,-146.1 1112.54,-144 1106.54,-141.9 1106.54,-146.1"/>
</g>
<!-- src/main.ts -->
<g id="node31" class="node">
<title>src/main.ts</title>
<g id="a_node31"><a xlink:href="src/main.ts" xlink:title="main.ts">
<path fill="#ddfeff" stroke="black" d="M63.58,-214.62C63.58,-214.62 22.42,-214.62 22.42,-214.62 19.21,-214.62 16,-211.42 16,-208.21 16,-208.21 16,-201.79 16,-201.79 16,-198.58 19.21,-195.38 22.42,-195.38 22.42,-195.38 63.58,-195.38 63.58,-195.38 66.79,-195.38 70,-198.58 70,-201.79 70,-201.79 70,-208.21 70,-208.21 70,-211.42 66.79,-214.62 63.58,-214.62"/>
<text text-anchor="start" x="27.62" y="-202.07" font-family="Helvetica,sans-Serif" font-size="9.00">main.ts</text>
</a>
</g>
</g>
<!-- src/main.ts&#45;&gt;src/App.vue -->
<g id="edge33" class="edge">
<title>src/main.ts&#45;&gt;src/App.vue</title>
<path fill="none" stroke="#000000" stroke-width="2" stroke-opacity="0.200000" d="M70.33,-200.08C81.17,-198.06 93.88,-195.68 105.47,-193.52"/>
<polygon fill="#000000" fill-opacity="0.200000" stroke="#000000" stroke-width="2" stroke-opacity="0.200000" points="105.58,-195.63 111.1,-192.47 104.81,-191.51 105.58,-195.63"/>
</g>
<!-- src/main.ts&#45;&gt;src/assets/main.css -->
<g id="edge34" class="edge">
<title>src/main.ts&#45;&gt;src/assets/main.css</title>
<path fill="none" stroke="#000000" stroke-width="2" stroke-opacity="0.200000" d="M70.33,-209.92C81.17,-211.94 93.88,-214.32 105.47,-216.48"/>
<polygon fill="#000000" fill-opacity="0.200000" stroke="#000000" stroke-width="2" stroke-opacity="0.200000" points="104.81,-218.49 111.1,-217.53 105.58,-214.37 104.81,-218.49"/>
</g>
</g>
</svg>
