<?xml version="1.0" encoding="UTF-8" standalone="no"?>
<!DOCTYPE svg PUBLIC "-//W3C//DTD SVG 1.1//EN"
 "http://www.w3.org/Graphics/SVG/1.1/DTD/svg11.dtd">
<!-- Generated by graphviz version 9.0.0 (20230911.1827)
 -->
<!-- Title: dependency&#45;cruiser output Pages: 1 -->
<svg width="757pt" height="499pt"
 viewBox="0.00 0.00 756.88 499.00" xmlns="http://www.w3.org/2000/svg" xmlns:xlink="http://www.w3.org/1999/xlink">
<g id="graph0" class="graph" transform="scale(1 1) rotate(0) translate(4 495)">
<title>dependency&#45;cruiser output</title>
<polygon fill="white" stroke="none" points="-4,4 -4,-495 752.88,-495 752.88,4 -4,4"/>
<g id="clust1" class="cluster">
<title>cluster_src</title>
<path fill="#ffffff" stroke="black" stroke-width="2" d="M20,-8C20,-8 728.88,-8 728.88,-8 734.88,-8 740.88,-14 740.88,-20 740.88,-20 740.88,-471 740.88,-471 740.88,-477 734.88,-483 728.88,-483 728.88,-483 20,-483 20,-483 14,-483 8,-477 8,-471 8,-471 8,-20 8,-20 8,-14 14,-8 20,-8"/>
<text text-anchor="middle" x="374.44" y="-470.45" font-family="Helvetica,sans-Serif" font-weight="bold" font-size="9.00">src</text>
</g>
<g id="clust2" class="cluster">
<title>cluster_src/application</title>
<path fill="#ffffff" stroke="black" stroke-width="2" d="M382.75,-68C382.75,-68 646.25,-68 646.25,-68 652.25,-68 658.25,-74 658.25,-80 658.25,-80 658.25,-142 658.25,-142 658.25,-148 652.25,-154 646.25,-154 646.25,-154 382.75,-154 382.75,-154 376.75,-154 370.75,-148 370.75,-142 370.75,-142 370.75,-80 370.75,-80 370.75,-74 376.75,-68 382.75,-68"/>
<text text-anchor="middle" x="514.5" y="-141.45" font-family="Helvetica,sans-Serif" font-weight="bold" font-size="9.00">application</text>
</g>
<g id="clust3" class="cluster">
<title>cluster_src/domain</title>
<path fill="#ffffff" stroke="black" stroke-width="2" d="M592.62,-162C592.62,-162 720.88,-162 720.88,-162 726.88,-162 732.88,-168 732.88,-174 732.88,-174 732.88,-298 732.88,-298 732.88,-304 726.88,-310 720.88,-310 720.88,-310 592.62,-310 592.62,-310 586.62,-310 580.62,-304 580.62,-298 580.62,-298 580.62,-174 580.62,-174 580.62,-168 586.62,-162 592.62,-162"/>
<text text-anchor="middle" x="656.75" y="-297.45" font-family="Helvetica,sans-Serif" font-weight="bold" font-size="9.00">domain</text>
</g>
<g id="clust4" class="cluster">
<title>cluster_src/infrastructure</title>
<path fill="#ffffff" stroke="black" stroke-width="2" d="M519.75,-324C519.75,-324 646.75,-324 646.75,-324 652.75,-324 658.75,-330 658.75,-336 658.75,-336 658.75,-434 658.75,-434 658.75,-440 652.75,-446 646.75,-446 646.75,-446 519.75,-446 519.75,-446 513.75,-446 507.75,-440 507.75,-434 507.75,-434 507.75,-336 507.75,-336 507.75,-330 513.75,-324 519.75,-324"/>
<text text-anchor="middle" x="583.25" y="-433.45" font-family="Helvetica,sans-Serif" font-weight="bold" font-size="9.00">infrastructure</text>
</g>
<g id="clust5" class="cluster">
<title>cluster_src/presentation</title>
<path fill="#ffffff" stroke="black" stroke-width="2" d="M157,-27C157,-27 350.75,-27 350.75,-27 356.75,-27 362.75,-33 362.75,-39 362.75,-39 362.75,-84 362.75,-84 362.75,-90 356.75,-96 350.75,-96 350.75,-96 157,-96 157,-96 151,-96 145,-90 145,-84 145,-84 145,-39 145,-39 145,-33 151,-27 157,-27"/>
<text text-anchor="middle" x="253.88" y="-83.45" font-family="Helvetica,sans-Serif" font-weight="bold" font-size="9.00">presentation</text>
</g>
<!-- src/App.vue -->
<g id="node1" class="node">
<title>src/App.vue</title>
<g id="a_node1"><a xlink:href="src/App.vue" xlink:title="App.vue">
<path fill="#41f083" stroke="black" d="M130.58,-68.62C130.58,-68.62 89.42,-68.62 89.42,-68.62 86.21,-68.62 83,-65.42 83,-62.21 83,-62.21 83,-55.79 83,-55.79 83,-52.58 86.21,-49.38 89.42,-49.38 89.42,-49.38 130.58,-49.38 130.58,-49.38 133.79,-49.38 137,-52.58 137,-55.79 137,-55.79 137,-62.21 137,-62.21 137,-65.42 133.79,-68.62 130.58,-68.62"/>
<text text-anchor="start" x="93.88" y="-56.08" font-family="Helvetica,sans-Serif" font-size="9.00">App.vue</text>
</a>
</g>
</g>
<!-- src/presentation/components -->
<g id="node2" class="node">
<title>src/presentation/components</title>
<g id="a_node2"><a xlink:href="src/presentation/components" xlink:title="components">
<polygon fill="#ffffcc" stroke="black" points="287.75,-54.62 222.14,-54.62 220,-52.49 220,-35.38 285.61,-35.38 287.75,-37.51 287.75,-54.62"/>
<polyline fill="none" stroke="black" points="285.61,-52.49 220,-52.49"/>
<polyline fill="none" stroke="black" points="285.61,-52.49 285.61,-35.38"/>
<polyline fill="none" stroke="black" points="285.61,-52.49 287.75,-54.62"/>
<text text-anchor="start" x="228" y="-42.08" font-family="Helvetica,sans-Serif" font-size="9.00">components</text>
</a>
</g>
</g>
<!-- src/App.vue&#45;&gt;src/presentation/components -->
<g id="edge1" class="edge">
<title>src/App.vue&#45;&gt;src/presentation/components</title>
<path fill="none" stroke="#000000" stroke-width="2" stroke-opacity="0.200000" d="M128.47,-48.99C133.63,-46.53 139.4,-44.25 145,-43 166.4,-38.22 190.79,-38.23 210.95,-39.65"/>
<polygon fill="#000000" fill-opacity="0.200000" stroke="#000000" stroke-width="2" stroke-opacity="0.200000" points="210.73,-41.73 216.88,-40.14 211.07,-37.55 210.73,-41.73"/>
</g>
<!-- src/presentation/views -->
<g id="node3" class="node">
<title>src/presentation/views</title>
<g id="a_node3"><a xlink:href="src/presentation/views" xlink:title="views">
<polygon fill="#ffffcc" stroke="black" points="207,-68.62 155.14,-68.62 153,-66.49 153,-49.38 204.86,-49.38 207,-51.51 207,-68.62"/>
<polyline fill="none" stroke="black" points="204.86,-66.49 153,-66.49"/>
<polyline fill="none" stroke="black" points="204.86,-66.49 204.86,-49.38"/>
<polyline fill="none" stroke="black" points="204.86,-66.49 207,-68.62"/>
<text text-anchor="start" x="168.38" y="-56.08" font-family="Helvetica,sans-Serif" font-size="9.00">views</text>
</a>
</g>
</g>
<!-- src/App.vue&#45;&gt;src/presentation/views -->
<g id="edge2" class="edge">
<title>src/App.vue&#45;&gt;src/presentation/views</title>
<path fill="none" stroke="#000000" stroke-width="2" stroke-opacity="0.200000" d="M137.49,-59C139.7,-59 141.97,-59 144.24,-59"/>
<polygon fill="#000000" fill-opacity="0.200000" stroke="#000000" stroke-width="2" stroke-opacity="0.200000" points="143.9,-61.1 149.9,-59 143.9,-56.9 143.9,-61.1"/>
</g>
<!-- src/application/usecases -->
<g id="node5" class="node">
<title>src/application/usecases</title>
<g id="a_node5"><a xlink:href="src/application/usecases" xlink:title="usecases">
<polygon fill="#ffffcc" stroke="black" points="572.62,-126.62 517.51,-126.62 515.38,-124.49 515.38,-107.38 570.49,-107.38 572.62,-109.51 572.62,-126.62"/>
<polyline fill="none" stroke="black" points="570.49,-124.49 515.38,-124.49"/>
<polyline fill="none" stroke="black" points="570.49,-124.49 570.49,-107.38"/>
<polyline fill="none" stroke="black" points="570.49,-124.49 572.62,-126.62"/>
<text text-anchor="start" x="523.38" y="-114.08" font-family="Helvetica,sans-Serif" font-size="9.00">usecases</text>
</a>
</g>
</g>
<!-- src/presentation/components&#45;&gt;src/application/usecases -->
<g id="edge34" class="edge">
<title>src/presentation/components&#45;&gt;src/application/usecases</title>
<path fill="none" stroke="#000000" stroke-opacity="0.200000" d="M288.04,-37.22C337.76,-27.46 432.91,-16.32 499.75,-55 517.32,-65.17 529.45,-85.68 536.3,-100.33"/>
<polygon fill="none" stroke="#000000" stroke-opacity="0.200000" points="534.28,-100.96 538.62,-105.6 538.12,-99.26 534.28,-100.96"/>
</g>
<!-- src/domain/entities -->
<g id="node13" class="node">
<title>src/domain/entities</title>
<g id="a_node13"><a xlink:href="src/domain/entities" xlink:title="entities">
<polygon fill="#ffffcc" stroke="black" points="724.88,-251.62 673.01,-251.62 670.88,-249.49 670.88,-232.38 722.74,-232.38 724.88,-234.51 724.88,-251.62"/>
<polyline fill="none" stroke="black" points="722.74,-249.49 670.88,-249.49"/>
<polyline fill="none" stroke="black" points="722.74,-249.49 722.74,-232.38"/>
<polyline fill="none" stroke="black" points="722.74,-249.49 724.88,-251.62"/>
<text text-anchor="start" x="682.88" y="-239.07" font-family="Helvetica,sans-Serif" font-size="9.00">entities</text>
</a>
</g>
</g>
<!-- src/presentation/components&#45;&gt;src/domain/entities -->
<g id="edge36" class="edge">
<title>src/presentation/components&#45;&gt;src/domain/entities</title>
<path fill="none" stroke="#000000" stroke-opacity="0.200000" d="M274.01,-34.95C282.06,-31.18 291.64,-27.27 300.75,-25 345.74,-13.8 358.39,-17 404.75,-17 404.75,-17 404.75,-17 545,-17 596.41,-17 622.36,-1.69 658.75,-38 684.98,-64.17 693.67,-179.99 696.08,-224.5"/>
<polygon fill="none" stroke="#000000" stroke-opacity="0.200000" points="693.98,-224.54 696.38,-230.43 698.17,-224.33 693.98,-224.54"/>
</g>
<!-- src/presentation/stores -->
<g id="node21" class="node">
<title>src/presentation/stores</title>
<g id="a_node21"><a xlink:href="src/presentation/stores" xlink:title="stores">
<polygon fill="#ffffcc" stroke="black" points="354.75,-68.62 302.89,-68.62 300.75,-66.49 300.75,-49.38 352.61,-49.38 354.75,-51.51 354.75,-68.62"/>
<polyline fill="none" stroke="black" points="352.61,-66.49 300.75,-66.49"/>
<polyline fill="none" stroke="black" points="352.61,-66.49 352.61,-49.38"/>
<polyline fill="none" stroke="black" points="352.61,-66.49 354.75,-68.62"/>
<text text-anchor="start" x="314.62" y="-56.08" font-family="Helvetica,sans-Serif" font-size="9.00">stores</text>
</a>
</g>
</g>
<!-- src/presentation/components&#45;&gt;src/presentation/stores -->
<g id="edge35" class="edge">
<title>src/presentation/components&#45;&gt;src/presentation/stores</title>
<path fill="none" stroke="#000000" stroke-width="2" stroke-opacity="0.200000" d="M287.87,-51.43C289.21,-51.69 290.55,-51.95 291.89,-52.21"/>
<polygon fill="#000000" fill-opacity="0.200000" stroke="#000000" stroke-width="2" stroke-opacity="0.200000" points="291.37,-54.25 297.66,-53.33 292.17,-50.13 291.37,-54.25"/>
</g>
<!-- src/presentation/views&#45;&gt;src/presentation/components -->
<g id="edge41" class="edge">
<title>src/presentation/views&#45;&gt;src/presentation/components</title>
<path fill="none" stroke="#000000" stroke-width="2" stroke-opacity="0.200000" d="M207.36,-53.87C208.61,-53.62 209.88,-53.38 211.16,-53.13"/>
<polygon fill="#000000" fill-opacity="0.200000" stroke="#000000" stroke-width="2" stroke-opacity="0.200000" points="211.21,-55.26 216.7,-52.05 210.41,-51.13 211.21,-55.26"/>
</g>
<!-- src/presentation/views&#45;&gt;src/presentation/stores -->
<g id="edge42" class="edge">
<title>src/presentation/views&#45;&gt;src/presentation/stores</title>
<path fill="none" stroke="#000000" stroke-width="2" stroke-opacity="0.200000" d="M207.43,-60.54C211.63,-60.73 215.93,-60.9 220,-61 250.1,-61.77 257.65,-61.77 287.75,-61 289.02,-60.97 290.31,-60.93 291.62,-60.89"/>
<polygon fill="#000000" fill-opacity="0.200000" stroke="#000000" stroke-width="2" stroke-opacity="0.200000" points="291.39,-63 297.3,-60.66 291.22,-58.8 291.39,-63"/>
</g>
<!-- src/application/di -->
<g id="node4" class="node">
<title>src/application/di</title>
<g id="a_node4"><a xlink:href="src/application/di" xlink:title="di">
<polygon fill="#ffffcc" stroke="black" points="499.75,-126.62 447.89,-126.62 445.75,-124.49 445.75,-107.38 497.61,-107.38 499.75,-109.51 499.75,-126.62"/>
<polyline fill="none" stroke="black" points="497.61,-124.49 445.75,-124.49"/>
<polyline fill="none" stroke="black" points="497.61,-124.49 497.61,-107.38"/>
<polyline fill="none" stroke="black" points="497.61,-124.49 499.75,-126.62"/>
<text text-anchor="start" x="469" y="-114.08" font-family="Helvetica,sans-Serif" font-size="9.00">di</text>
</a>
</g>
</g>
<!-- src/application/di&#45;&gt;src/application/usecases -->
<g id="edge3" class="edge">
<title>src/application/di&#45;&gt;src/application/usecases</title>
<path fill="none" stroke="#000000" stroke-width="2" stroke-opacity="0.200000" d="M499.93,-117C501.92,-117 503.95,-117 506,-117"/>
<polygon fill="#000000" fill-opacity="0.200000" stroke="#000000" stroke-width="2" stroke-opacity="0.200000" points="505.91,-119.1 511.91,-117 505.91,-114.9 505.91,-119.1"/>
</g>
<!-- src/infrastructure/adapters -->
<g id="node6" class="node">
<title>src/infrastructure/adapters</title>
<g id="a_node6"><a xlink:href="src/infrastructure/adapters" xlink:title="adapters">
<polygon fill="#ffffcc" stroke="black" points="571,-351.62 519.14,-351.62 517,-349.49 517,-332.38 568.86,-332.38 571,-334.51 571,-351.62"/>
<polyline fill="none" stroke="black" points="568.86,-349.49 517,-349.49"/>
<polyline fill="none" stroke="black" points="568.86,-349.49 568.86,-332.38"/>
<polyline fill="none" stroke="black" points="568.86,-349.49 571,-351.62"/>
<text text-anchor="start" x="525.62" y="-339.07" font-family="Helvetica,sans-Serif" font-size="9.00">adapters</text>
</a>
</g>
</g>
<!-- src/application/di&#45;&gt;src/infrastructure/adapters -->
<g id="edge4" class="edge">
<title>src/application/di&#45;&gt;src/infrastructure/adapters</title>
<path fill="none" stroke="#000000" stroke-width="2" stroke-opacity="0.200000" d="M476.81,-126.96C487.49,-161.66 523.18,-277.6 537.24,-323.28"/>
<polygon fill="#000000" fill-opacity="0.200000" stroke="#000000" stroke-width="2" stroke-opacity="0.200000" points="535.23,-323.89 539,-329.01 539.24,-322.66 535.23,-323.89"/>
</g>
<!-- src/infrastructure/database -->
<g id="node7" class="node">
<title>src/infrastructure/database</title>
<g id="a_node7"><a xlink:href="src/infrastructure/database" xlink:title="database">
<polygon fill="#ffffcc" stroke="black" points="650.75,-418.62 597.89,-418.62 595.75,-416.49 595.75,-399.38 648.61,-399.38 650.75,-401.51 650.75,-418.62"/>
<polyline fill="none" stroke="black" points="648.61,-416.49 595.75,-416.49"/>
<polyline fill="none" stroke="black" points="648.61,-416.49 648.61,-399.38"/>
<polyline fill="none" stroke="black" points="648.61,-416.49 650.75,-418.62"/>
<text text-anchor="start" x="603.75" y="-406.07" font-family="Helvetica,sans-Serif" font-size="9.00">database</text>
</a>
</g>
</g>
<!-- src/application/di&#45;&gt;src/infrastructure/database -->
<g id="edge5" class="edge">
<title>src/application/di&#45;&gt;src/infrastructure/database</title>
<path fill="none" stroke="#000000" stroke-width="2" stroke-opacity="0.200000" d="M474.06,-127C475.75,-178.19 484.61,-409.24 507.75,-430 532.73,-452.41 573.47,-436.92 599.02,-423.26"/>
<polygon fill="#000000" fill-opacity="0.200000" stroke="#000000" stroke-width="2" stroke-opacity="0.200000" points="599.89,-425.18 604.1,-420.42 597.84,-421.52 599.89,-425.18"/>
</g>
<!-- src/infrastructure/repository -->
<g id="node8" class="node">
<title>src/infrastructure/repository</title>
<g id="a_node8"><a xlink:href="src/infrastructure/repository" xlink:title="repository">
<polygon fill="#ffffcc" stroke="black" points="572.25,-382.62 517.89,-382.62 515.75,-380.49 515.75,-363.38 570.11,-363.38 572.25,-365.51 572.25,-382.62"/>
<polyline fill="none" stroke="black" points="570.11,-380.49 515.75,-380.49"/>
<polyline fill="none" stroke="black" points="570.11,-380.49 570.11,-363.38"/>
<polyline fill="none" stroke="black" points="570.11,-380.49 572.25,-382.62"/>
<text text-anchor="start" x="523.75" y="-370.07" font-family="Helvetica,sans-Serif" font-size="9.00">repository</text>
</a>
</g>
</g>
<!-- src/application/di&#45;&gt;src/infrastructure/repository -->
<g id="edge6" class="edge">
<title>src/application/di&#45;&gt;src/infrastructure/repository</title>
<path fill="none" stroke="#000000" stroke-width="2" stroke-opacity="0.200000" d="M473.88,-126.93C474.62,-167.57 479.27,-320.87 507.75,-358 508.14,-358.51 508.56,-359.01 509,-359.49"/>
<polygon fill="#000000" fill-opacity="0.200000" stroke="#000000" stroke-width="2" stroke-opacity="0.200000" points="507.21,-360.75 513.19,-362.92 509.87,-357.5 507.21,-360.75"/>
</g>
<!-- src/infrastructure/services -->
<g id="node9" class="node">
<title>src/infrastructure/services</title>
<g id="a_node9"><a xlink:href="src/infrastructure/services" xlink:title="services">
<polygon fill="#ffffcc" stroke="black" points="571,-413.62 519.14,-413.62 517,-411.49 517,-394.38 568.86,-394.38 571,-396.51 571,-413.62"/>
<polyline fill="none" stroke="black" points="568.86,-411.49 517,-411.49"/>
<polyline fill="none" stroke="black" points="568.86,-411.49 568.86,-394.38"/>
<polyline fill="none" stroke="black" points="568.86,-411.49 571,-413.62"/>
<text text-anchor="start" x="526.75" y="-401.07" font-family="Helvetica,sans-Serif" font-size="9.00">services</text>
</a>
</g>
</g>
<!-- src/application/di&#45;&gt;src/infrastructure/services -->
<g id="edge7" class="edge">
<title>src/application/di&#45;&gt;src/infrastructure/services</title>
<path fill="none" stroke="#000000" stroke-width="2" stroke-opacity="0.200000" d="M473.71,-126.99C473.7,-170.9 475.72,-346.55 507.75,-389 508.33,-389.77 508.96,-390.5 509.63,-391.19"/>
<polygon fill="#000000" fill-opacity="0.200000" stroke="#000000" stroke-width="2" stroke-opacity="0.200000" points="508.09,-392.66 514.13,-394.64 510.64,-389.33 508.09,-392.66"/>
</g>
<!-- src/infrastructure/video -->
<g id="node10" class="node">
<title>src/infrastructure/video</title>
<g id="a_node10"><a xlink:href="src/infrastructure/video" xlink:title="video">
<polygon fill="#ffffcc" stroke="black" points="650.25,-387.62 598.39,-387.62 596.25,-385.49 596.25,-368.38 648.11,-368.38 650.25,-370.51 650.25,-387.62"/>
<polyline fill="none" stroke="black" points="648.11,-385.49 596.25,-385.49"/>
<polyline fill="none" stroke="black" points="648.11,-385.49 648.11,-368.38"/>
<polyline fill="none" stroke="black" points="648.11,-385.49 650.25,-387.62"/>
<text text-anchor="start" x="612.38" y="-375.07" font-family="Helvetica,sans-Serif" font-size="9.00">video</text>
</a>
</g>
</g>
<!-- src/application/di&#45;&gt;src/infrastructure/video -->
<g id="edge8" class="edge">
<title>src/application/di&#45;&gt;src/infrastructure/video</title>
<path fill="none" stroke="#000000" stroke-width="2" stroke-opacity="0.200000" d="M474.1,-127.01C475.94,-177.22 485.36,-399.98 507.75,-420 529.24,-439.22 549.52,-437.25 572.62,-420 582.65,-412.51 572.03,-402.1 580.62,-393 582.81,-390.69 585.38,-388.73 588.15,-387.07"/>
<polygon fill="#000000" fill-opacity="0.200000" stroke="#000000" stroke-width="2" stroke-opacity="0.200000" points="588.62,-389.18 593.1,-384.67 586.79,-385.4 588.62,-389.18"/>
</g>
<!-- src/application/ports -->
<g id="node12" class="node">
<title>src/application/ports</title>
<g id="a_node12"><a xlink:href="src/application/ports" xlink:title="ports">
<polygon fill="#ffffcc" stroke="black" points="650.25,-126.62 598.39,-126.62 596.25,-124.49 596.25,-107.38 648.11,-107.38 650.25,-109.51 650.25,-126.62"/>
<polyline fill="none" stroke="black" points="648.11,-124.49 596.25,-124.49"/>
<polyline fill="none" stroke="black" points="648.11,-124.49 648.11,-107.38"/>
<polyline fill="none" stroke="black" points="648.11,-124.49 650.25,-126.62"/>
<text text-anchor="start" x="612.75" y="-114.08" font-family="Helvetica,sans-Serif" font-size="9.00">ports</text>
</a>
</g>
</g>
<!-- src/application/usecases&#45;&gt;src/application/ports -->
<g id="edge12" class="edge">
<title>src/application/usecases&#45;&gt;src/application/ports</title>
<path fill="none" stroke="#000000" stroke-opacity="0.200000" d="M572.89,-117C577.94,-117 583.26,-117 588.46,-117"/>
<polygon fill="none" stroke="#000000" stroke-opacity="0.200000" points="588.43,-119.1 594.43,-117 588.43,-114.9 588.43,-119.1"/>
</g>
<!-- src/application/usecases&#45;&gt;src/domain/entities -->
<g id="edge13" class="edge">
<title>src/application/usecases&#45;&gt;src/domain/entities</title>
<path fill="none" stroke="#000000" stroke-opacity="0.200000" d="M563.22,-107.04C587.57,-95.23 630.88,-79.66 658.75,-101 678.42,-116.06 690.27,-190.23 694.78,-224.54"/>
<polygon fill="none" stroke="#000000" stroke-opacity="0.200000" points="692.69,-224.78 695.53,-230.47 696.86,-224.25 692.69,-224.78"/>
</g>
<!-- src/domain/repositories -->
<g id="node15" class="node">
<title>src/domain/repositories</title>
<g id="a_node15"><a xlink:href="src/domain/repositories" xlink:title="repositories">
<polygon fill="#ffffcc" stroke="black" points="656,-220.62 592.64,-220.62 590.5,-218.49 590.5,-201.38 653.86,-201.38 656,-203.51 656,-220.62"/>
<polyline fill="none" stroke="black" points="653.86,-218.49 590.5,-218.49"/>
<polyline fill="none" stroke="black" points="653.86,-218.49 653.86,-201.38"/>
<polyline fill="none" stroke="black" points="653.86,-218.49 656,-220.62"/>
<text text-anchor="start" x="598.5" y="-208.07" font-family="Helvetica,sans-Serif" font-size="9.00">repositories</text>
</a>
</g>
</g>
<!-- src/application/usecases&#45;&gt;src/domain/repositories -->
<g id="edge14" class="edge">
<title>src/application/usecases&#45;&gt;src/domain/repositories</title>
<path fill="none" stroke="#000000" stroke-opacity="0.200000" d="M546.87,-126.96C550.48,-143.55 559.97,-176.89 580.62,-196 581.68,-196.98 582.81,-197.89 583.99,-198.75"/>
<polygon fill="none" stroke="#000000" stroke-opacity="0.200000" points="582.74,-200.45 588.95,-201.77 584.92,-196.86 582.74,-200.45"/>
</g>
<!-- src/infrastructure/adapters&#45;&gt;src/infrastructure/video -->
<g id="edge21" class="edge">
<title>src/infrastructure/adapters&#45;&gt;src/infrastructure/video</title>
<path fill="none" stroke="#000000" stroke-width="2" stroke-opacity="0.200000" d="M564.23,-351.97C567.09,-353.59 569.96,-355.29 572.62,-357 576.37,-359.4 576.71,-360.89 580.62,-363 582.84,-364.2 585.18,-365.33 587.56,-366.4"/>
<polygon fill="#000000" fill-opacity="0.200000" stroke="#000000" stroke-width="2" stroke-opacity="0.200000" points="586.61,-368.28 592.96,-368.64 588.22,-364.4 586.61,-368.28"/>
</g>
<!-- src/infrastructure/adapters&#45;&gt;src/application/ports -->
<g id="edge18" class="edge">
<title>src/infrastructure/adapters&#45;&gt;src/application/ports</title>
<path fill="none" stroke="#000000" stroke-opacity="0.200000" d="M544.96,-332.22C545.23,-303.73 548.84,-219.08 580.62,-159 586.16,-148.53 595.16,-138.97 603.38,-131.62"/>
<polygon fill="none" stroke="#000000" stroke-opacity="0.200000" points="604.55,-133.38 607.74,-127.89 601.82,-130.19 604.55,-133.38"/>
</g>
<!-- src/infrastructure/adapters&#45;&gt;src/domain/entities -->
<g id="edge19" class="edge">
<title>src/infrastructure/adapters&#45;&gt;src/domain/entities</title>
<path fill="none" stroke="#000000" stroke-opacity="0.200000" d="M552.06,-332.19C558.55,-323.92 568.91,-312.44 580.62,-306 611.77,-288.89 628.49,-307.63 658.75,-289 670.93,-281.5 680.94,-268.68 687.64,-258.32"/>
<polygon fill="none" stroke="#000000" stroke-opacity="0.200000" points="689.41,-259.45 690.77,-253.24 685.84,-257.25 689.41,-259.45"/>
</g>
<!-- src/infrastructure/adapters&#45;&gt;src/domain/repositories -->
<g id="edge20" class="edge">
<title>src/infrastructure/adapters&#45;&gt;src/domain/repositories</title>
<path fill="none" stroke="#000000" stroke-opacity="0.200000" d="M545.19,-332.15C546.16,-310.14 551.55,-256.5 580.62,-226 581.74,-224.83 582.96,-223.74 584.26,-222.74"/>
<polygon fill="none" stroke="#000000" stroke-opacity="0.200000" points="585.11,-224.69 589.05,-219.7 582.86,-221.14 585.11,-224.69"/>
</g>
<!-- src/infrastructure/repository&#45;&gt;src/infrastructure/database -->
<g id="edge23" class="edge">
<title>src/infrastructure/repository&#45;&gt;src/infrastructure/database</title>
<path fill="none" stroke="#000000" stroke-opacity="0.200000" d="M564.23,-382.97C567.09,-384.59 569.96,-386.29 572.62,-388 576.37,-390.4 576.71,-391.89 580.62,-394 583.21,-395.39 585.95,-396.71 588.75,-397.93"/>
<polygon fill="none" stroke="#000000" stroke-opacity="0.200000" points="587.56,-399.72 593.91,-400.05 589.16,-395.83 587.56,-399.72"/>
</g>
<!-- src/infrastructure/repository&#45;&gt;src/domain/entities -->
<g id="edge25" class="edge">
<title>src/infrastructure/repository&#45;&gt;src/domain/entities</title>
<path fill="none" stroke="#000000" stroke-opacity="0.200000" d="M567.77,-362.93C569.59,-361.48 571.26,-359.84 572.62,-358 582.94,-344.16 568.61,-332.39 580.62,-320 605.5,-294.34 629.62,-321.7 658.75,-301 673.51,-290.51 683.98,-272.34 690.16,-258.92"/>
<polygon fill="none" stroke="#000000" stroke-opacity="0.200000" points="692.08,-259.77 692.55,-253.43 688.23,-258.09 692.08,-259.77"/>
</g>
<!-- src/infrastructure/repository&#45;&gt;src/domain/repositories -->
<g id="edge26" class="edge">
<title>src/infrastructure/repository&#45;&gt;src/domain/repositories</title>
<path fill="none" stroke="#000000" stroke-opacity="0.200000" d="M568.31,-362.92C569.97,-361.47 571.45,-359.84 572.62,-358 588.41,-333.21 563.01,-249.52 580.62,-226 581.64,-224.65 582.78,-223.42 584.02,-222.31"/>
<polygon fill="none" stroke="#000000" stroke-opacity="0.200000" points="585.1,-224.11 588.81,-218.95 582.69,-220.68 585.1,-224.11"/>
</g>
<!-- src/domain/constants -->
<g id="node16" class="node">
<title>src/domain/constants</title>
<g id="a_node16"><a xlink:href="src/domain/constants" xlink:title="constants">
<polygon fill="#ffffcc" stroke="black" points="651.5,-282.62 597.14,-282.62 595,-280.49 595,-263.38 649.36,-263.38 651.5,-265.51 651.5,-282.62"/>
<polyline fill="none" stroke="black" points="649.36,-280.49 595,-280.49"/>
<polyline fill="none" stroke="black" points="649.36,-280.49 649.36,-263.38"/>
<polyline fill="none" stroke="black" points="649.36,-280.49 651.5,-282.62"/>
<text text-anchor="start" x="603" y="-270.07" font-family="Helvetica,sans-Serif" font-size="9.00">constants</text>
</a>
</g>
</g>
<!-- src/infrastructure/repository&#45;&gt;src/domain/constants -->
<g id="edge24" class="edge">
<title>src/infrastructure/repository&#45;&gt;src/domain/constants</title>
<path fill="none" stroke="#000000" stroke-width="2" stroke-opacity="0.200000" d="M567.87,-363.01C569.68,-361.54 571.31,-359.87 572.62,-358 586.08,-338.87 568.87,-326.22 580.62,-306 584.62,-299.12 590.65,-293.13 596.89,-288.22"/>
<polygon fill="#000000" fill-opacity="0.200000" stroke="#000000" stroke-width="2" stroke-opacity="0.200000" points="598.1,-289.93 601.74,-284.72 595.65,-286.52 598.1,-289.93"/>
</g>
<!-- src/infrastructure/services&#45;&gt;src/domain/entities -->
<g id="edge28" class="edge">
<title>src/infrastructure/services&#45;&gt;src/domain/entities</title>
<path fill="none" stroke="#000000" stroke-opacity="0.200000" d="M567.9,-394.03C569.7,-392.56 571.32,-390.88 572.62,-389 587.43,-367.6 562.95,-350.1 580.62,-331 604.76,-304.92 630.44,-335.48 658.75,-314 676.93,-300.21 687.33,-275.21 692.54,-258.61"/>
<polygon fill="none" stroke="#000000" stroke-opacity="0.200000" points="694.49,-259.44 694.16,-253.09 690.46,-258.26 694.49,-259.44"/>
</g>
<!-- src/infrastructure/services&#45;&gt;src/domain/repositories -->
<g id="edge29" class="edge">
<title>src/infrastructure/services&#45;&gt;src/domain/repositories</title>
<path fill="none" stroke="#000000" stroke-opacity="0.200000" d="M568.33,-393.93C569.99,-392.48 571.46,-390.85 572.62,-389 591.93,-358.3 559.06,-255.15 580.62,-226 581.63,-224.65 582.76,-223.41 584,-222.29"/>
<polygon fill="none" stroke="#000000" stroke-opacity="0.200000" points="585.08,-224.1 588.77,-218.92 582.66,-220.67 585.08,-224.1"/>
</g>
<!-- src/infrastructure/dto -->
<g id="node19" class="node">
<title>src/infrastructure/dto</title>
<g id="a_node19"><a xlink:href="src/infrastructure/dto" xlink:title="dto">
<polygon fill="#ffffcc" stroke="black" points="650.25,-356.62 598.39,-356.62 596.25,-354.49 596.25,-337.38 648.11,-337.38 650.25,-339.51 650.25,-356.62"/>
<polyline fill="none" stroke="black" points="648.11,-354.49 596.25,-354.49"/>
<polyline fill="none" stroke="black" points="648.11,-354.49 648.11,-337.38"/>
<polyline fill="none" stroke="black" points="648.11,-354.49 650.25,-356.62"/>
<text text-anchor="start" x="616.88" y="-344.07" font-family="Helvetica,sans-Serif" font-size="9.00">dto</text>
</a>
</g>
</g>
<!-- src/infrastructure/services&#45;&gt;src/infrastructure/dto -->
<g id="edge27" class="edge">
<title>src/infrastructure/services&#45;&gt;src/infrastructure/dto</title>
<path fill="none" stroke="#000000" stroke-width="2" stroke-opacity="0.200000" d="M567.35,-394.02C569.31,-392.53 571.11,-390.87 572.62,-389 580.5,-379.27 572.03,-371.1 580.62,-362 582.81,-359.69 585.38,-357.73 588.15,-356.07"/>
<polygon fill="#000000" fill-opacity="0.200000" stroke="#000000" stroke-width="2" stroke-opacity="0.200000" points="588.62,-358.18 593.1,-353.67 586.79,-354.4 588.62,-358.18"/>
</g>
<!-- src/infrastructure/video&#45;&gt;src/domain/entities -->
<g id="edge30" class="edge">
<title>src/infrastructure/video&#45;&gt;src/domain/entities</title>
<path fill="none" stroke="#000000" stroke-opacity="0.200000" d="M650.73,-369.41C653.71,-367.64 656.48,-365.52 658.75,-363 685.48,-333.31 693.47,-284.95 695.86,-259.28"/>
<polygon fill="none" stroke="#000000" stroke-opacity="0.200000" points="697.95,-259.46 696.33,-253.31 693.76,-259.12 697.95,-259.46"/>
</g>
<!-- src/domain/valueObjects -->
<g id="node18" class="node">
<title>src/domain/valueObjects</title>
<g id="a_node18"><a xlink:href="src/domain/valueObjects" xlink:title="valueObjects">
<polygon fill="#ffffcc" stroke="black" points="657.88,-251.62 590.76,-251.62 588.62,-249.49 588.62,-232.38 655.74,-232.38 657.88,-234.51 657.88,-251.62"/>
<polyline fill="none" stroke="black" points="655.74,-249.49 588.62,-249.49"/>
<polyline fill="none" stroke="black" points="655.74,-249.49 655.74,-232.38"/>
<polyline fill="none" stroke="black" points="655.74,-249.49 657.88,-251.62"/>
<text text-anchor="start" x="596.62" y="-239.07" font-family="Helvetica,sans-Serif" font-size="9.00">valueObjects</text>
</a>
</g>
</g>
<!-- src/infrastructure/video&#45;&gt;src/domain/valueObjects -->
<g id="edge31" class="edge">
<title>src/infrastructure/video&#45;&gt;src/domain/valueObjects</title>
<path fill="none" stroke="#000000" stroke-width="2" stroke-opacity="0.200000" d="M595.78,-373.75C587.18,-370.76 579.25,-365.67 576.62,-357 573.6,-347 573.6,-273 576.62,-263 577.61,-259.75 579.34,-257 581.57,-254.68"/>
<polygon fill="#000000" fill-opacity="0.200000" stroke="#000000" stroke-width="2" stroke-opacity="0.200000" points="582.54,-256.58 586.07,-251.29 580.01,-253.23 582.54,-256.58"/>
</g>
<!-- src/application/index.ts -->
<g id="node11" class="node">
<title>src/application/index.ts</title>
<g id="a_node11"><a xlink:href="src/application/index.ts" xlink:title="index.ts">
<path fill="#ddfeff" stroke="black" d="M426.33,-126.62C426.33,-126.62 385.17,-126.62 385.17,-126.62 381.96,-126.62 378.75,-123.42 378.75,-120.21 378.75,-120.21 378.75,-113.79 378.75,-113.79 378.75,-110.58 381.96,-107.38 385.17,-107.38 385.17,-107.38 426.33,-107.38 426.33,-107.38 429.54,-107.38 432.75,-110.58 432.75,-113.79 432.75,-113.79 432.75,-120.21 432.75,-120.21 432.75,-123.42 429.54,-126.62 426.33,-126.62"/>
<text text-anchor="start" x="390" y="-114.08" font-family="Helvetica,sans-Serif" font-size="9.00">index.ts</text>
</a>
</g>
</g>
<!-- src/application/index.ts&#45;&gt;src/application/di -->
<g id="edge9" class="edge">
<title>src/application/index.ts&#45;&gt;src/application/di</title>
<path fill="none" stroke="#000000" stroke-width="2" stroke-opacity="0.200000" d="M433.19,-117C437.27,-117 441.47,-117 445.55,-117"/>
<polygon fill="#000000" fill-opacity="0.200000" stroke="#000000" stroke-width="2" stroke-opacity="0.200000" points="448.35,-115.61 452.25,-123.71 444.15,-119.81 448.35,-115.61"/>
</g>
<!-- src/application/ports&#45;&gt;src/domain/entities -->
<g id="edge10" class="edge">
<title>src/application/ports&#45;&gt;src/domain/entities</title>
<path fill="none" stroke="#000000" stroke-opacity="0.200000" d="M633.53,-126.8C640.97,-134.97 651.34,-147.16 658.75,-159 672.37,-180.76 684.01,-208.19 690.73,-225.41"/>
<polygon fill="none" stroke="#000000" stroke-opacity="0.200000" points="688.65,-225.86 692.75,-230.71 692.57,-224.36 688.65,-225.86"/>
</g>
<!-- src/application/services -->
<g id="node14" class="node">
<title>src/application/services</title>
<g id="a_node14"><a xlink:href="src/application/services" xlink:title="services">
<polygon fill="#ffffcc" stroke="black" points="432.75,-95.62 380.89,-95.62 378.75,-93.49 378.75,-76.38 430.61,-76.38 432.75,-78.51 432.75,-95.62"/>
<polyline fill="none" stroke="black" points="430.61,-93.49 378.75,-93.49"/>
<polyline fill="none" stroke="black" points="430.61,-93.49 430.61,-76.38"/>
<polyline fill="none" stroke="black" points="430.61,-93.49 432.75,-95.62"/>
<text text-anchor="start" x="388.5" y="-83.08" font-family="Helvetica,sans-Serif" font-size="9.00">services</text>
</a>
</g>
</g>
<!-- src/application/services&#45;&gt;src/domain/entities -->
<g id="edge11" class="edge">
<title>src/application/services&#45;&gt;src/domain/entities</title>
<path fill="none" stroke="#000000" stroke-opacity="0.200000" d="M427.93,-96.01C429.74,-97.49 431.4,-99.15 432.75,-101 456.05,-132.96 476.98,-424.15 507.75,-449 559.96,-491.16 607.18,-491.94 658.75,-449 687.76,-424.85 694.78,-304.86 696.4,-259.45"/>
<polygon fill="none" stroke="#000000" stroke-opacity="0.200000" points="698.5,-259.7 696.59,-253.63 694.3,-259.56 698.5,-259.7"/>
</g>
<!-- src/domain/repositories&#45;&gt;src/domain/entities -->
<g id="edge15" class="edge">
<title>src/domain/repositories&#45;&gt;src/domain/entities</title>
<path fill="none" stroke="#000000" stroke-opacity="0.200000" d="M647.63,-220.98C653.72,-223.58 660.37,-226.42 666.75,-229.14"/>
<polygon fill="none" stroke="#000000" stroke-opacity="0.200000" points="665.81,-231.02 672.15,-231.45 667.45,-227.16 665.81,-231.02"/>
</g>
<!-- src/domain/services -->
<g id="node17" class="node">
<title>src/domain/services</title>
<g id="a_node17"><a xlink:href="src/domain/services" xlink:title="services">
<polygon fill="#ffffcc" stroke="black" points="650.25,-189.62 598.39,-189.62 596.25,-187.49 596.25,-170.38 648.11,-170.38 650.25,-172.51 650.25,-189.62"/>
<polyline fill="none" stroke="black" points="648.11,-187.49 596.25,-187.49"/>
<polyline fill="none" stroke="black" points="648.11,-187.49 648.11,-170.38"/>
<polyline fill="none" stroke="black" points="648.11,-187.49 650.25,-189.62"/>
<text text-anchor="start" x="606" y="-177.07" font-family="Helvetica,sans-Serif" font-size="9.00">services</text>
</a>
</g>
</g>
<!-- src/domain/services&#45;&gt;src/domain/entities -->
<g id="edge16" class="edge">
<title>src/domain/services&#45;&gt;src/domain/entities</title>
<path fill="none" stroke="#000000" stroke-opacity="0.200000" d="M650.62,-189.86C653.48,-191.39 656.25,-193.1 658.75,-195 670.01,-203.55 679.96,-216.09 686.87,-226.07"/>
<polygon fill="none" stroke="#000000" stroke-opacity="0.200000" points="685.04,-227.11 690.12,-230.93 688.53,-224.78 685.04,-227.11"/>
</g>
<!-- src/domain/valueObjects&#45;&gt;src/domain/entities -->
<g id="edge17" class="edge">
<title>src/domain/valueObjects&#45;&gt;src/domain/entities</title>
<path fill="none" stroke="#000000" stroke-opacity="0.200000" d="M658.01,-242C659.89,-242 661.78,-242 663.66,-242"/>
<polygon fill="none" stroke="#000000" stroke-opacity="0.200000" points="663.29,-244.1 669.29,-242 663.29,-239.9 663.29,-244.1"/>
</g>
<!-- src/infrastructure/dto&#45;&gt;src/domain/entities -->
<g id="edge22" class="edge">
<title>src/infrastructure/dto&#45;&gt;src/domain/entities</title>
<path fill="none" stroke="#000000" stroke-opacity="0.200000" d="M647.3,-337.07C651.47,-334.55 655.51,-331.53 658.75,-328 677.17,-307.92 687.78,-277.48 692.93,-258.72"/>
<polygon fill="none" stroke="#000000" stroke-opacity="0.200000" points="694.84,-259.71 694.31,-253.38 690.77,-258.66 694.84,-259.71"/>
</g>
<!-- src/main.ts -->
<g id="node20" class="node">
<title>src/main.ts</title>
<g id="a_node20"><a xlink:href="src/main.ts" xlink:title="main.ts">
<path fill="#ddfeff" stroke="black" d="M63.58,-94.62C63.58,-94.62 22.42,-94.62 22.42,-94.62 19.21,-94.62 16,-91.42 16,-88.21 16,-88.21 16,-81.79 16,-81.79 16,-78.58 19.21,-75.38 22.42,-75.38 22.42,-75.38 63.58,-75.38 63.58,-75.38 66.79,-75.38 70,-78.58 70,-81.79 70,-81.79 70,-88.21 70,-88.21 70,-91.42 66.79,-94.62 63.58,-94.62"/>
<text text-anchor="start" x="27.62" y="-82.08" font-family="Helvetica,sans-Serif" font-size="9.00">main.ts</text>
</a>
</g>
</g>
<!-- src/main.ts&#45;&gt;src/App.vue -->
<g id="edge32" class="edge">
<title>src/main.ts&#45;&gt;src/App.vue</title>
<path fill="none" stroke="#000000" stroke-width="2" stroke-opacity="0.200000" d="M68.94,-75.02C71.07,-74.17 73.25,-73.3 75.43,-72.43"/>
<polygon fill="#000000" fill-opacity="0.200000" stroke="#000000" stroke-width="2" stroke-opacity="0.200000" points="76.2,-74.38 80.99,-70.2 74.64,-70.48 76.2,-74.38"/>
</g>
<!-- src/main.ts&#45;&gt;src/application/index.ts -->
<g id="edge33" class="edge">
<title>src/main.ts&#45;&gt;src/application/index.ts</title>
<path fill="none" stroke="#000000" stroke-width="2" stroke-opacity="0.200000" d="M70.35,-93.16C97.35,-100.78 140.69,-111 179,-111 179,-111 179,-111 254.88,-111 294.17,-111 339.21,-113.08 369.57,-114.8"/>
<polygon fill="#000000" fill-opacity="0.200000" stroke="#000000" stroke-width="2" stroke-opacity="0.200000" points="369.37,-116.89 375.48,-115.14 369.61,-112.69 369.37,-116.89"/>
</g>
<!-- src/presentation/stores&#45;&gt;src/application/index.ts -->
<g id="edge38" class="edge">
<title>src/presentation/stores&#45;&gt;src/application/index.ts</title>
<path fill="none" stroke="#000000" stroke-width="2" stroke-opacity="0.200000" d="M354.92,-66.77C357.84,-68.46 360.55,-70.51 362.75,-73 371.61,-83.01 362.01,-91.88 370.75,-102 371.02,-102.32 371.31,-102.63 371.6,-102.93"/>
<polygon fill="#000000" fill-opacity="0.200000" stroke="#000000" stroke-width="2" stroke-opacity="0.200000" points="370.18,-104.49 376.19,-106.57 372.79,-101.2 370.18,-104.49"/>
</g>
<!-- src/presentation/stores&#45;&gt;src/domain/entities -->
<g id="edge39" class="edge">
<title>src/presentation/stores&#45;&gt;src/domain/entities</title>
<path fill="none" stroke="#000000" stroke-opacity="0.200000" d="M354.85,-52.72C360.09,-51.66 365.57,-50.68 370.75,-50 415.31,-44.16 426.81,-45 471.75,-45 471.75,-45 471.75,-45 545,-45 596.33,-45 621.77,-29.4 658.75,-65 681.63,-87.03 692.15,-184.57 695.56,-224.68"/>
<polygon fill="none" stroke="#000000" stroke-opacity="0.200000" points="693.46,-224.79 696.04,-230.6 697.65,-224.45 693.46,-224.79"/>
</g>
<!-- src/presentation/stores&#45;&gt;src/application/services -->
<g id="edge37" class="edge">
<title>src/presentation/stores&#45;&gt;src/application/services</title>
<path fill="none" stroke="#000000" stroke-width="2" stroke-opacity="0.200000" d="M354.9,-68.29C359.75,-70.01 364.87,-71.83 369.92,-73.63"/>
<polygon fill="#000000" fill-opacity="0.200000" stroke="#000000" stroke-width="2" stroke-opacity="0.200000" points="369.08,-75.56 375.44,-75.59 370.49,-71.6 369.08,-75.56"/>
</g>
<!-- src/presentation/stores&#45;&gt;src/domain/services -->
<g id="edge40" class="edge">
<title>src/presentation/stores&#45;&gt;src/domain/services</title>
<path fill="none" stroke="#000000" stroke-width="2" stroke-opacity="0.200000" d="M354.93,-55.9C397.65,-51.49 479.61,-45.87 499.75,-65 514.63,-79.13 494.07,-141.7 507.75,-157 527.34,-178.9 561.44,-183.38 587.35,-183.14"/>
<polygon fill="#000000" fill-opacity="0.200000" stroke="#000000" stroke-width="2" stroke-opacity="0.200000" points="587.17,-185.24 593.1,-182.97 587.05,-181.05 587.17,-185.24"/>
</g>
</g>
</svg>
