<?xml version="1.0" encoding="UTF-8" standalone="no"?>
<!DOCTYPE svg PUBLIC "-//W3C//DTD SVG 1.1//EN"
 "http://www.w3.org/Graphics/SVG/1.1/DTD/svg11.dtd">
<!-- Generated by graphviz version 9.0.0 (20230911.1827)
 -->
<!-- Title: dependency&#45;cruiser output Pages: 1 -->
<svg width="700pt" height="477pt"
 viewBox="0.00 0.00 699.88 476.86" xmlns="http://www.w3.org/2000/svg" xmlns:xlink="http://www.w3.org/1999/xlink">
<g id="graph0" class="graph" transform="scale(1 1) rotate(0) translate(4 472.86)">
<title>dependency&#45;cruiser output</title>
<polygon fill="white" stroke="none" points="-4,4 -4,-472.86 695.88,-472.86 695.88,4 -4,4"/>
<g id="clust1" class="cluster">
<title>cluster_src</title>
<path fill="#ffffff" stroke="black" stroke-width="2" d="M20,-27.86C20,-27.86 671.88,-27.86 671.88,-27.86 677.88,-27.86 683.88,-33.86 683.88,-39.86 683.88,-39.86 683.88,-448.86 683.88,-448.86 683.88,-454.86 677.88,-460.86 671.88,-460.86 671.88,-460.86 20,-460.86 20,-460.86 14,-460.86 8,-454.86 8,-448.86 8,-448.86 8,-39.86 8,-39.86 8,-33.86 14,-27.86 20,-27.86"/>
<text text-anchor="middle" x="345.94" y="-448.31" font-family="Helvetica,sans-Serif" font-weight="bold" font-size="9.00">src</text>
</g>
<g id="clust2" class="cluster">
<title>cluster_src/application</title>
<path fill="#ffffff" stroke="black" stroke-width="2" d="M382.75,-45.86C382.75,-45.86 589.25,-45.86 589.25,-45.86 595.25,-45.86 601.25,-51.86 601.25,-57.86 601.25,-57.86 601.25,-119.86 601.25,-119.86 601.25,-125.86 595.25,-131.86 589.25,-131.86 589.25,-131.86 382.75,-131.86 382.75,-131.86 376.75,-131.86 370.75,-125.86 370.75,-119.86 370.75,-119.86 370.75,-57.86 370.75,-57.86 370.75,-51.86 376.75,-45.86 382.75,-45.86"/>
<text text-anchor="middle" x="486" y="-119.31" font-family="Helvetica,sans-Serif" font-weight="bold" font-size="9.00">application</text>
</g>
<g id="clust4" class="cluster">
<title>cluster_src/infrastructure</title>
<path fill="#ffffff" stroke="black" stroke-width="2" d="M462.75,-301.86C462.75,-301.86 589.75,-301.86 589.75,-301.86 595.75,-301.86 601.75,-307.86 601.75,-313.86 601.75,-313.86 601.75,-411.86 601.75,-411.86 601.75,-417.86 595.75,-423.86 589.75,-423.86 589.75,-423.86 462.75,-423.86 462.75,-423.86 456.75,-423.86 450.75,-417.86 450.75,-411.86 450.75,-411.86 450.75,-313.86 450.75,-313.86 450.75,-307.86 456.75,-301.86 462.75,-301.86"/>
<text text-anchor="middle" x="526.25" y="-411.31" font-family="Helvetica,sans-Serif" font-weight="bold" font-size="9.00">infrastructure</text>
</g>
<g id="clust3" class="cluster">
<title>cluster_src/domain</title>
<path fill="#ffffff" stroke="black" stroke-width="2" d="M535.62,-139.86C535.62,-139.86 663.88,-139.86 663.88,-139.86 669.88,-139.86 675.88,-145.86 675.88,-151.86 675.88,-151.86 675.88,-275.86 675.88,-275.86 675.88,-281.86 669.88,-287.86 663.88,-287.86 663.88,-287.86 535.62,-287.86 535.62,-287.86 529.62,-287.86 523.62,-281.86 523.62,-275.86 523.62,-275.86 523.62,-151.86 523.62,-151.86 523.62,-145.86 529.62,-139.86 535.62,-139.86"/>
<text text-anchor="middle" x="599.75" y="-275.31" font-family="Helvetica,sans-Serif" font-weight="bold" font-size="9.00">domain</text>
</g>
<g id="clust5" class="cluster">
<title>cluster_src/presentation</title>
<path fill="#ffffff" stroke="black" stroke-width="2" d="M157,-80.86C157,-80.86 350.75,-80.86 350.75,-80.86 356.75,-80.86 362.75,-86.86 362.75,-92.86 362.75,-92.86 362.75,-137.86 362.75,-137.86 362.75,-143.86 356.75,-149.86 350.75,-149.86 350.75,-149.86 157,-149.86 157,-149.86 151,-149.86 145,-143.86 145,-137.86 145,-137.86 145,-92.86 145,-92.86 145,-86.86 151,-80.86 157,-80.86"/>
<text text-anchor="middle" x="253.88" y="-137.31" font-family="Helvetica,sans-Serif" font-weight="bold" font-size="9.00">presentation</text>
</g>
<!-- src/App.vue -->
<g id="node1" class="node">
<title>src/App.vue</title>
<g id="a_node1"><a xlink:href="src/App.vue" xlink:title="App.vue">
<path fill="#41f083" stroke="black" d="M130.58,-110.48C130.58,-110.48 89.42,-110.48 89.42,-110.48 86.21,-110.48 83,-107.27 83,-104.06 83,-104.06 83,-97.65 83,-97.65 83,-94.44 86.21,-91.23 89.42,-91.23 89.42,-91.23 130.58,-91.23 130.58,-91.23 133.79,-91.23 137,-94.44 137,-97.65 137,-97.65 137,-104.06 137,-104.06 137,-107.27 133.79,-110.48 130.58,-110.48"/>
<text text-anchor="start" x="93.88" y="-97.93" font-family="Helvetica,sans-Serif" font-size="9.00">App.vue</text>
</a>
</g>
</g>
<!-- src/presentation/components -->
<g id="node2" class="node">
<title>src/presentation/components</title>
<g id="a_node2"><a xlink:href="src/presentation/components" xlink:title="components">
<polygon fill="#ffffcc" stroke="black" points="287.75,-108.48 222.14,-108.48 220,-106.34 220,-89.23 285.61,-89.23 287.75,-91.37 287.75,-108.48"/>
<polyline fill="none" stroke="black" points="285.61,-106.34 220,-106.34"/>
<polyline fill="none" stroke="black" points="285.61,-106.34 285.61,-89.23"/>
<polyline fill="none" stroke="black" points="285.61,-106.34 287.75,-108.48"/>
<text text-anchor="start" x="228" y="-95.93" font-family="Helvetica,sans-Serif" font-size="9.00">components</text>
</a>
</g>
</g>
<!-- src/App.vue&#45;&gt;src/presentation/components -->
<g id="edge1" class="edge">
<title>src/App.vue&#45;&gt;src/presentation/components</title>
<path fill="none" stroke="#000000" stroke-width="2" stroke-opacity="0.200000" d="M137.33,-97.45C139.92,-97.21 142.51,-97 145,-96.86 166.73,-95.58 190.96,-95.88 210.94,-96.58"/>
<polygon fill="#000000" fill-opacity="0.200000" stroke="#000000" stroke-width="2" stroke-opacity="0.200000" points="210.7,-98.67 216.77,-96.81 210.86,-94.47 210.7,-98.67"/>
</g>
<!-- src/presentation/views -->
<g id="node3" class="node">
<title>src/presentation/views</title>
<g id="a_node3"><a xlink:href="src/presentation/views" xlink:title="views">
<polygon fill="#ffffcc" stroke="black" points="207,-122.48 155.14,-122.48 153,-120.34 153,-103.23 204.86,-103.23 207,-105.37 207,-122.48"/>
<polyline fill="none" stroke="black" points="204.86,-120.34 153,-120.34"/>
<polyline fill="none" stroke="black" points="204.86,-120.34 204.86,-103.23"/>
<polyline fill="none" stroke="black" points="204.86,-120.34 207,-122.48"/>
<text text-anchor="start" x="168.38" y="-109.93" font-family="Helvetica,sans-Serif" font-size="9.00">views</text>
</a>
</g>
</g>
<!-- src/App.vue&#45;&gt;src/presentation/views -->
<g id="edge2" class="edge">
<title>src/App.vue&#45;&gt;src/presentation/views</title>
<path fill="none" stroke="#000000" stroke-width="2" stroke-opacity="0.200000" d="M137.49,-105.53C139.7,-105.92 141.97,-106.32 144.24,-106.72"/>
<polygon fill="#000000" fill-opacity="0.200000" stroke="#000000" stroke-width="2" stroke-opacity="0.200000" points="143.67,-108.75 149.94,-107.73 144.4,-104.62 143.67,-108.75"/>
</g>
<!-- src/application/container.ts -->
<g id="node4" class="node">
<title>src/application/container.ts</title>
<g id="a_node4"><a xlink:href="src/application/container.ts" xlink:title="container.ts">
<path fill="#ddfeff" stroke="black" d="M436.33,-104.48C436.33,-104.48 385.17,-104.48 385.17,-104.48 381.96,-104.48 378.75,-101.27 378.75,-98.06 378.75,-98.06 378.75,-91.65 378.75,-91.65 378.75,-88.44 381.96,-85.23 385.17,-85.23 385.17,-85.23 436.33,-85.23 436.33,-85.23 439.54,-85.23 442.75,-88.44 442.75,-91.65 442.75,-91.65 442.75,-98.06 442.75,-98.06 442.75,-101.27 439.54,-104.48 436.33,-104.48"/>
<text text-anchor="start" x="386.75" y="-91.93" font-family="Helvetica,sans-Serif" font-size="9.00">container.ts</text>
</a>
</g>
</g>
<!-- src/presentation/components&#45;&gt;src/application/container.ts -->
<g id="edge32" class="edge">
<title>src/presentation/components&#45;&gt;src/application/container.ts</title>
<path fill="none" stroke="#000000" stroke-width="2" stroke-opacity="0.200000" d="M287.84,-91.6C292.16,-90.88 296.55,-90.26 300.75,-89.86 323.58,-87.64 349.2,-88.64 369.86,-90.31"/>
<polygon fill="#000000" fill-opacity="0.200000" stroke="#000000" stroke-width="2" stroke-opacity="0.200000" points="369.5,-92.38 375.67,-90.82 369.87,-88.2 369.5,-92.38"/>
</g>
<!-- src/domain/entities -->
<g id="node12" class="node">
<title>src/domain/entities</title>
<g id="a_node12"><a xlink:href="src/domain/entities" xlink:title="entities">
<polygon fill="#ffffcc" stroke="black" points="667.88,-229.48 616.01,-229.48 613.88,-227.34 613.88,-210.23 665.74,-210.23 667.88,-212.37 667.88,-229.48"/>
<polyline fill="none" stroke="black" points="665.74,-227.34 613.88,-227.34"/>
<polyline fill="none" stroke="black" points="665.74,-227.34 665.74,-210.23"/>
<polyline fill="none" stroke="black" points="665.74,-227.34 667.88,-229.48"/>
<text text-anchor="start" x="625.88" y="-216.93" font-family="Helvetica,sans-Serif" font-size="9.00">entities</text>
</a>
</g>
</g>
<!-- src/presentation/components&#45;&gt;src/domain/entities -->
<g id="edge34" class="edge">
<title>src/presentation/components&#45;&gt;src/domain/entities</title>
<path fill="none" stroke="#000000" stroke-opacity="0.200000" d="M254.79,-108.85C254.91,-164.43 263.06,-432.86 409.75,-432.86 409.75,-432.86 409.75,-432.86 488,-432.86 538.63,-432.86 563.71,-460.26 601.75,-426.86 630.11,-401.95 637.53,-282.43 639.33,-237.23"/>
<polygon fill="none" stroke="#000000" stroke-opacity="0.200000" points="641.42,-237.51 639.54,-231.44 637.23,-237.36 641.42,-237.51"/>
</g>
<!-- src/presentation/stores -->
<g id="node20" class="node">
<title>src/presentation/stores</title>
<g id="a_node20"><a xlink:href="src/presentation/stores" xlink:title="stores">
<polygon fill="#ffffcc" stroke="black" points="354.75,-115.48 302.89,-115.48 300.75,-113.34 300.75,-96.23 352.61,-96.23 354.75,-98.37 354.75,-115.48"/>
<polyline fill="none" stroke="black" points="352.61,-113.34 300.75,-113.34"/>
<polyline fill="none" stroke="black" points="352.61,-113.34 352.61,-96.23"/>
<polyline fill="none" stroke="black" points="352.61,-113.34 354.75,-115.48"/>
<text text-anchor="start" x="314.62" y="-102.93" font-family="Helvetica,sans-Serif" font-size="9.00">stores</text>
</a>
</g>
</g>
<!-- src/presentation/components&#45;&gt;src/presentation/stores -->
<g id="edge33" class="edge">
<title>src/presentation/components&#45;&gt;src/presentation/stores</title>
<path fill="none" stroke="#000000" stroke-width="2" stroke-opacity="0.200000" d="M287.87,-102.07C289.21,-102.2 290.55,-102.33 291.89,-102.46"/>
<polygon fill="#000000" fill-opacity="0.200000" stroke="#000000" stroke-width="2" stroke-opacity="0.200000" points="291.44,-104.53 297.62,-103.02 291.85,-100.35 291.44,-104.53"/>
</g>
<!-- src/presentation/views&#45;&gt;src/presentation/components -->
<g id="edge39" class="edge">
<title>src/presentation/views&#45;&gt;src/presentation/components</title>
<path fill="none" stroke="#000000" stroke-width="2" stroke-opacity="0.200000" d="M207.36,-107.72C208.61,-107.48 209.88,-107.23 211.16,-106.98"/>
<polygon fill="#000000" fill-opacity="0.200000" stroke="#000000" stroke-width="2" stroke-opacity="0.200000" points="211.21,-109.11 216.7,-105.9 210.41,-104.99 211.21,-109.11"/>
</g>
<!-- src/presentation/views&#45;&gt;src/presentation/stores -->
<g id="edge40" class="edge">
<title>src/presentation/views&#45;&gt;src/presentation/stores</title>
<path fill="none" stroke="#000000" stroke-width="2" stroke-opacity="0.200000" d="M207.41,-115.28C229.07,-116.81 260.49,-117.96 287.75,-114.86 289.04,-114.71 290.36,-114.53 291.68,-114.34"/>
<polygon fill="#000000" fill-opacity="0.200000" stroke="#000000" stroke-width="2" stroke-opacity="0.200000" points="291.94,-116.43 297.48,-113.31 291.2,-112.29 291.94,-116.43"/>
</g>
<!-- src/application/usecases -->
<g id="node5" class="node">
<title>src/application/usecases</title>
<g id="a_node5"><a xlink:href="src/application/usecases" xlink:title="usecases">
<polygon fill="#ffffcc" stroke="black" points="515.62,-104.48 460.51,-104.48 458.38,-102.34 458.38,-85.23 513.49,-85.23 515.62,-87.37 515.62,-104.48"/>
<polyline fill="none" stroke="black" points="513.49,-102.34 458.38,-102.34"/>
<polyline fill="none" stroke="black" points="513.49,-102.34 513.49,-85.23"/>
<polyline fill="none" stroke="black" points="513.49,-102.34 515.62,-104.48"/>
<text text-anchor="start" x="466.38" y="-91.93" font-family="Helvetica,sans-Serif" font-size="9.00">usecases</text>
</a>
</g>
</g>
<!-- src/application/container.ts&#45;&gt;src/application/usecases -->
<g id="edge3" class="edge">
<title>src/application/container.ts&#45;&gt;src/application/usecases</title>
<path fill="none" stroke="#000000" stroke-width="2" stroke-opacity="0.200000" d="M443.24,-94.86C445.23,-94.86 447.24,-94.86 449.25,-94.86"/>
<polygon fill="#000000" fill-opacity="0.200000" stroke="#000000" stroke-width="2" stroke-opacity="0.200000" points="448.97,-96.96 454.96,-94.86 448.96,-92.76 448.97,-96.96"/>
</g>
<!-- src/infrastructure/adapters -->
<g id="node6" class="node">
<title>src/infrastructure/adapters</title>
<g id="a_node6"><a xlink:href="src/infrastructure/adapters" xlink:title="adapters">
<polygon fill="#ffffcc" stroke="black" points="514,-329.48 462.14,-329.48 460,-327.34 460,-310.23 511.86,-310.23 514,-312.37 514,-329.48"/>
<polyline fill="none" stroke="black" points="511.86,-327.34 460,-327.34"/>
<polyline fill="none" stroke="black" points="511.86,-327.34 511.86,-310.23"/>
<polyline fill="none" stroke="black" points="511.86,-327.34 514,-329.48"/>
<text text-anchor="start" x="468.62" y="-316.93" font-family="Helvetica,sans-Serif" font-size="9.00">adapters</text>
</a>
</g>
</g>
<!-- src/application/container.ts&#45;&gt;src/infrastructure/adapters -->
<g id="edge4" class="edge">
<title>src/application/container.ts&#45;&gt;src/infrastructure/adapters</title>
<path fill="none" stroke="#000000" stroke-width="2" stroke-opacity="0.200000" d="M415.04,-104.81C426.51,-139.59 464.91,-255.94 479.92,-301.42"/>
<polygon fill="#000000" fill-opacity="0.200000" stroke="#000000" stroke-width="2" stroke-opacity="0.200000" points="477.84,-301.84 481.72,-306.88 481.83,-300.53 477.84,-301.84"/>
</g>
<!-- src/infrastructure/database -->
<g id="node7" class="node">
<title>src/infrastructure/database</title>
<g id="a_node7"><a xlink:href="src/infrastructure/database" xlink:title="database">
<polygon fill="#ffffcc" stroke="black" points="593.75,-396.48 540.89,-396.48 538.75,-394.34 538.75,-377.23 591.61,-377.23 593.75,-379.37 593.75,-396.48"/>
<polyline fill="none" stroke="black" points="591.61,-394.34 538.75,-394.34"/>
<polyline fill="none" stroke="black" points="591.61,-394.34 591.61,-377.23"/>
<polyline fill="none" stroke="black" points="591.61,-394.34 593.75,-396.48"/>
<text text-anchor="start" x="546.75" y="-383.93" font-family="Helvetica,sans-Serif" font-size="9.00">database</text>
</a>
</g>
</g>
<!-- src/application/container.ts&#45;&gt;src/infrastructure/database -->
<g id="edge5" class="edge">
<title>src/application/container.ts&#45;&gt;src/infrastructure/database</title>
<path fill="none" stroke="#000000" stroke-width="2" stroke-opacity="0.200000" d="M412.22,-104.9C414.74,-156.27 427.34,-388.17 450.75,-408.86 475.94,-431.11 516.62,-415.24 542.1,-401.34"/>
<polygon fill="#000000" fill-opacity="0.200000" stroke="#000000" stroke-width="2" stroke-opacity="0.200000" points="543,-403.25 547.17,-398.45 540.92,-399.6 543,-403.25"/>
</g>
<!-- src/infrastructure/repository -->
<g id="node8" class="node">
<title>src/infrastructure/repository</title>
<g id="a_node8"><a xlink:href="src/infrastructure/repository" xlink:title="repository">
<polygon fill="#ffffcc" stroke="black" points="515.25,-360.48 460.89,-360.48 458.75,-358.34 458.75,-341.23 513.11,-341.23 515.25,-343.37 515.25,-360.48"/>
<polyline fill="none" stroke="black" points="513.11,-358.34 458.75,-358.34"/>
<polyline fill="none" stroke="black" points="513.11,-358.34 513.11,-341.23"/>
<polyline fill="none" stroke="black" points="513.11,-358.34 515.25,-360.48"/>
<text text-anchor="start" x="466.75" y="-347.93" font-family="Helvetica,sans-Serif" font-size="9.00">repository</text>
</a>
</g>
</g>
<!-- src/application/container.ts&#45;&gt;src/infrastructure/repository -->
<g id="edge6" class="edge">
<title>src/application/container.ts&#45;&gt;src/infrastructure/repository</title>
<path fill="none" stroke="#000000" stroke-width="2" stroke-opacity="0.200000" d="M412.11,-104.79C413.75,-145.48 421.8,-298.9 450.75,-335.86 451.15,-336.37 451.57,-336.86 452.01,-337.34"/>
<polygon fill="#000000" fill-opacity="0.200000" stroke="#000000" stroke-width="2" stroke-opacity="0.200000" points="450.24,-338.61 456.23,-340.75 452.88,-335.34 450.24,-338.61"/>
</g>
<!-- src/infrastructure/services -->
<g id="node9" class="node">
<title>src/infrastructure/services</title>
<g id="a_node9"><a xlink:href="src/infrastructure/services" xlink:title="services">
<polygon fill="#ffffcc" stroke="black" points="514,-391.48 462.14,-391.48 460,-389.34 460,-372.23 511.86,-372.23 514,-374.37 514,-391.48"/>
<polyline fill="none" stroke="black" points="511.86,-389.34 460,-389.34"/>
<polyline fill="none" stroke="black" points="511.86,-389.34 511.86,-372.23"/>
<polyline fill="none" stroke="black" points="511.86,-389.34 514,-391.48"/>
<text text-anchor="start" x="469.75" y="-378.93" font-family="Helvetica,sans-Serif" font-size="9.00">services</text>
</a>
</g>
</g>
<!-- src/application/container.ts&#45;&gt;src/infrastructure/services -->
<g id="edge7" class="edge">
<title>src/application/container.ts&#45;&gt;src/infrastructure/services</title>
<path fill="none" stroke="#000000" stroke-width="2" stroke-opacity="0.200000" d="M411.91,-104.85C412.77,-148.8 418.26,-324.59 450.75,-366.86 451.34,-367.62 451.97,-368.35 452.65,-369.04"/>
<polygon fill="#000000" fill-opacity="0.200000" stroke="#000000" stroke-width="2" stroke-opacity="0.200000" points="451.12,-370.51 457.17,-372.47 453.66,-367.17 451.12,-370.51"/>
</g>
<!-- src/infrastructure/video -->
<g id="node10" class="node">
<title>src/infrastructure/video</title>
<g id="a_node10"><a xlink:href="src/infrastructure/video" xlink:title="video">
<polygon fill="#ffffcc" stroke="black" points="593.25,-334.48 541.39,-334.48 539.25,-332.34 539.25,-315.23 591.11,-315.23 593.25,-317.37 593.25,-334.48"/>
<polyline fill="none" stroke="black" points="591.11,-332.34 539.25,-332.34"/>
<polyline fill="none" stroke="black" points="591.11,-332.34 591.11,-315.23"/>
<polyline fill="none" stroke="black" points="591.11,-332.34 593.25,-334.48"/>
<text text-anchor="start" x="555.38" y="-321.93" font-family="Helvetica,sans-Serif" font-size="9.00">video</text>
</a>
</g>
</g>
<!-- src/application/container.ts&#45;&gt;src/infrastructure/video -->
<g id="edge8" class="edge">
<title>src/application/container.ts&#45;&gt;src/infrastructure/video</title>
<path fill="none" stroke="#000000" stroke-width="2" stroke-opacity="0.200000" d="M412.27,-104.88C414.96,-155.11 428.15,-377.98 450.75,-397.86 472.4,-416.9 493.89,-416.8 515.62,-397.86 535.24,-380.76 507.24,-360.07 523.62,-339.86 525.68,-337.32 528.2,-335.21 530.97,-333.46"/>
<polygon fill="#000000" fill-opacity="0.200000" stroke="#000000" stroke-width="2" stroke-opacity="0.200000" points="531.6,-335.49 536.05,-330.95 529.74,-331.73 531.6,-335.49"/>
</g>
<!-- src/application/ports -->
<g id="node11" class="node">
<title>src/application/ports</title>
<g id="a_node11"><a xlink:href="src/application/ports" xlink:title="ports">
<polygon fill="#ffffcc" stroke="black" points="593.25,-104.48 541.39,-104.48 539.25,-102.34 539.25,-85.23 591.11,-85.23 593.25,-87.37 593.25,-104.48"/>
<polyline fill="none" stroke="black" points="591.11,-102.34 539.25,-102.34"/>
<polyline fill="none" stroke="black" points="591.11,-102.34 591.11,-85.23"/>
<polyline fill="none" stroke="black" points="591.11,-102.34 593.25,-104.48"/>
<text text-anchor="start" x="555.75" y="-91.93" font-family="Helvetica,sans-Serif" font-size="9.00">ports</text>
</a>
</g>
</g>
<!-- src/application/usecases&#45;&gt;src/application/ports -->
<g id="edge11" class="edge">
<title>src/application/usecases&#45;&gt;src/application/ports</title>
<path fill="none" stroke="#000000" stroke-opacity="0.200000" d="M515.89,-94.86C520.94,-94.86 526.26,-94.86 531.46,-94.86"/>
<polygon fill="none" stroke="#000000" stroke-opacity="0.200000" points="531.43,-96.96 537.43,-94.86 531.43,-92.76 531.43,-96.96"/>
</g>
<!-- src/application/usecases&#45;&gt;src/domain/entities -->
<g id="edge12" class="edge">
<title>src/application/usecases&#45;&gt;src/domain/entities</title>
<path fill="none" stroke="#000000" stroke-opacity="0.200000" d="M506.22,-84.9C530.57,-73.08 573.88,-57.52 601.75,-78.86 621.42,-93.91 633.27,-168.09 637.78,-202.39"/>
<polygon fill="none" stroke="#000000" stroke-opacity="0.200000" points="635.69,-202.64 638.53,-208.32 639.86,-202.11 635.69,-202.64"/>
</g>
<!-- src/domain/repositories -->
<g id="node14" class="node">
<title>src/domain/repositories</title>
<g id="a_node14"><a xlink:href="src/domain/repositories" xlink:title="repositories">
<polygon fill="#ffffcc" stroke="black" points="599,-229.48 535.64,-229.48 533.5,-227.34 533.5,-210.23 596.86,-210.23 599,-212.37 599,-229.48"/>
<polyline fill="none" stroke="black" points="596.86,-227.34 533.5,-227.34"/>
<polyline fill="none" stroke="black" points="596.86,-227.34 596.86,-210.23"/>
<polyline fill="none" stroke="black" points="596.86,-227.34 599,-229.48"/>
<text text-anchor="start" x="541.5" y="-216.93" font-family="Helvetica,sans-Serif" font-size="9.00">repositories</text>
</a>
</g>
</g>
<!-- src/application/usecases&#45;&gt;src/domain/repositories -->
<g id="edge13" class="edge">
<title>src/application/usecases&#45;&gt;src/domain/repositories</title>
<path fill="none" stroke="#000000" stroke-opacity="0.200000" d="M488.4,-104.84C489.79,-126.11 495.98,-176.3 523.62,-204.86 524.75,-206.02 525.98,-207.1 527.28,-208.09"/>
<polygon fill="none" stroke="#000000" stroke-opacity="0.200000" points="525.9,-209.7 532.09,-211.12 528.13,-206.15 525.9,-209.7"/>
</g>
<!-- src/infrastructure/adapters&#45;&gt;src/infrastructure/video -->
<g id="edge20" class="edge">
<title>src/infrastructure/adapters&#45;&gt;src/infrastructure/video</title>
<path fill="none" stroke="#000000" stroke-width="2" stroke-opacity="0.200000" d="M514.15,-321.55C519.26,-321.88 524.69,-322.23 530.03,-322.58"/>
<polygon fill="#000000" fill-opacity="0.200000" stroke="#000000" stroke-width="2" stroke-opacity="0.200000" points="529.72,-324.66 535.84,-322.95 529.99,-320.47 529.72,-324.66"/>
</g>
<!-- src/infrastructure/adapters&#45;&gt;src/application/ports -->
<g id="edge17" class="edge">
<title>src/infrastructure/adapters&#45;&gt;src/application/ports</title>
<path fill="none" stroke="#000000" stroke-opacity="0.200000" d="M487.96,-310.07C488.23,-281.59 491.84,-196.94 523.62,-136.86 529.16,-126.39 538.16,-116.82 546.38,-109.48"/>
<polygon fill="none" stroke="#000000" stroke-opacity="0.200000" points="547.55,-111.24 550.74,-105.74 544.82,-108.05 547.55,-111.24"/>
</g>
<!-- src/infrastructure/adapters&#45;&gt;src/domain/entities -->
<g id="edge18" class="edge">
<title>src/infrastructure/adapters&#45;&gt;src/domain/entities</title>
<path fill="none" stroke="#000000" stroke-opacity="0.200000" d="M495.06,-310.05C501.55,-301.78 511.91,-290.29 523.62,-283.86 554.77,-266.74 571.49,-285.48 601.75,-266.86 613.93,-259.36 623.94,-246.54 630.64,-236.18"/>
<polygon fill="none" stroke="#000000" stroke-opacity="0.200000" points="632.41,-237.31 633.77,-231.1 628.84,-235.11 632.41,-237.31"/>
</g>
<!-- src/infrastructure/adapters&#45;&gt;src/domain/repositories -->
<g id="edge19" class="edge">
<title>src/infrastructure/adapters&#45;&gt;src/domain/repositories</title>
<path fill="none" stroke="#000000" stroke-opacity="0.200000" d="M489.49,-310C492.64,-292.48 501.59,-255.8 523.62,-234.86 524.67,-233.86 525.78,-232.94 526.95,-232.07"/>
<polygon fill="none" stroke="#000000" stroke-opacity="0.200000" points="527.89,-233.96 531.89,-229.02 525.68,-230.39 527.89,-233.96"/>
</g>
<!-- src/infrastructure/repository&#45;&gt;src/infrastructure/database -->
<g id="edge22" class="edge">
<title>src/infrastructure/repository&#45;&gt;src/infrastructure/database</title>
<path fill="none" stroke="#000000" stroke-opacity="0.200000" d="M507.23,-360.83C510.09,-362.44 512.96,-364.15 515.62,-365.86 519.37,-368.26 519.71,-369.75 523.62,-371.86 526.21,-373.25 528.95,-374.56 531.75,-375.79"/>
<polygon fill="none" stroke="#000000" stroke-opacity="0.200000" points="530.56,-377.57 536.91,-377.91 532.16,-373.69 530.56,-377.57"/>
</g>
<!-- src/infrastructure/repository&#45;&gt;src/domain/entities -->
<g id="edge24" class="edge">
<title>src/infrastructure/repository&#45;&gt;src/domain/entities</title>
<path fill="none" stroke="#000000" stroke-opacity="0.200000" d="M510.77,-340.79C512.59,-339.33 514.26,-337.69 515.62,-335.86 525.94,-322.02 511.61,-310.25 523.62,-297.86 548.5,-272.2 572.62,-299.56 601.75,-278.86 616.51,-268.37 626.98,-250.19 633.16,-236.78"/>
<polygon fill="none" stroke="#000000" stroke-opacity="0.200000" points="635.08,-237.63 635.55,-231.29 631.23,-235.95 635.08,-237.63"/>
</g>
<!-- src/infrastructure/repository&#45;&gt;src/domain/repositories -->
<g id="edge25" class="edge">
<title>src/infrastructure/repository&#45;&gt;src/domain/repositories</title>
<path fill="none" stroke="#000000" stroke-opacity="0.200000" d="M511.27,-340.75C512.94,-339.31 514.44,-337.69 515.62,-335.86 527.89,-316.98 509.96,-252.75 523.62,-234.86 524.65,-233.52 525.8,-232.3 527.05,-231.19"/>
<polygon fill="none" stroke="#000000" stroke-opacity="0.200000" points="528.13,-232.99 531.86,-227.84 525.73,-229.55 528.13,-232.99"/>
</g>
<!-- src/domain/constants -->
<g id="node15" class="node">
<title>src/domain/constants</title>
<g id="a_node15"><a xlink:href="src/domain/constants" xlink:title="constants">
<polygon fill="#ffffcc" stroke="black" points="594.5,-260.48 540.14,-260.48 538,-258.34 538,-241.23 592.36,-241.23 594.5,-243.37 594.5,-260.48"/>
<polyline fill="none" stroke="black" points="592.36,-258.34 538,-258.34"/>
<polyline fill="none" stroke="black" points="592.36,-258.34 592.36,-241.23"/>
<polyline fill="none" stroke="black" points="592.36,-258.34 594.5,-260.48"/>
<text text-anchor="start" x="546" y="-247.93" font-family="Helvetica,sans-Serif" font-size="9.00">constants</text>
</a>
</g>
</g>
<!-- src/infrastructure/repository&#45;&gt;src/domain/constants -->
<g id="edge23" class="edge">
<title>src/infrastructure/repository&#45;&gt;src/domain/constants</title>
<path fill="none" stroke="#000000" stroke-width="2" stroke-opacity="0.200000" d="M510.87,-340.87C512.68,-339.39 514.31,-337.73 515.62,-335.86 529.08,-316.73 511.87,-304.07 523.62,-283.86 527.62,-276.98 533.65,-270.99 539.89,-266.07"/>
<polygon fill="#000000" fill-opacity="0.200000" stroke="#000000" stroke-width="2" stroke-opacity="0.200000" points="541.1,-267.78 544.74,-262.57 538.65,-264.38 541.1,-267.78"/>
</g>
<!-- src/infrastructure/services&#45;&gt;src/domain/entities -->
<g id="edge27" class="edge">
<title>src/infrastructure/services&#45;&gt;src/domain/entities</title>
<path fill="none" stroke="#000000" stroke-opacity="0.200000" d="M510.9,-371.89C512.7,-370.41 514.32,-368.74 515.62,-366.86 530.43,-345.46 505.95,-327.95 523.62,-308.86 547.76,-282.78 573.44,-313.33 601.75,-291.86 619.93,-278.07 630.33,-253.07 635.54,-236.46"/>
<polygon fill="none" stroke="#000000" stroke-opacity="0.200000" points="637.49,-237.3 637.16,-230.95 633.46,-236.12 637.49,-237.3"/>
</g>
<!-- src/infrastructure/services&#45;&gt;src/domain/repositories -->
<g id="edge28" class="edge">
<title>src/infrastructure/services&#45;&gt;src/domain/repositories</title>
<path fill="none" stroke="#000000" stroke-opacity="0.200000" d="M511.31,-371.77C512.97,-370.33 514.45,-368.7 515.62,-366.86 531.41,-342.07 506.01,-258.38 523.62,-234.86 524.64,-233.51 525.78,-232.28 527.02,-231.16"/>
<polygon fill="none" stroke="#000000" stroke-opacity="0.200000" points="528.1,-232.97 531.81,-227.8 525.69,-229.53 528.1,-232.97"/>
</g>
<!-- src/infrastructure/dto -->
<g id="node18" class="node">
<title>src/infrastructure/dto</title>
<g id="a_node18"><a xlink:href="src/infrastructure/dto" xlink:title="dto">
<polygon fill="#ffffcc" stroke="black" points="593.25,-365.48 541.39,-365.48 539.25,-363.34 539.25,-346.23 591.11,-346.23 593.25,-348.37 593.25,-365.48"/>
<polyline fill="none" stroke="black" points="591.11,-363.34 539.25,-363.34"/>
<polyline fill="none" stroke="black" points="591.11,-363.34 591.11,-346.23"/>
<polyline fill="none" stroke="black" points="591.11,-363.34 593.25,-365.48"/>
<text text-anchor="start" x="559.88" y="-352.93" font-family="Helvetica,sans-Serif" font-size="9.00">dto</text>
</a>
</g>
</g>
<!-- src/infrastructure/services&#45;&gt;src/infrastructure/dto -->
<g id="edge26" class="edge">
<title>src/infrastructure/services&#45;&gt;src/infrastructure/dto</title>
<path fill="none" stroke="#000000" stroke-width="2" stroke-opacity="0.200000" d="M514.15,-373.05C519.38,-371.29 524.95,-369.42 530.42,-367.58"/>
<polygon fill="#000000" fill-opacity="0.200000" stroke="#000000" stroke-width="2" stroke-opacity="0.200000" points="530.98,-369.61 535.99,-365.7 529.64,-365.63 530.98,-369.61"/>
</g>
<!-- src/infrastructure/video&#45;&gt;src/domain/entities -->
<g id="edge29" class="edge">
<title>src/infrastructure/video&#45;&gt;src/domain/entities</title>
<path fill="none" stroke="#000000" stroke-opacity="0.200000" d="M590.3,-314.93C594.47,-312.4 598.51,-309.38 601.75,-305.86 620.17,-285.78 630.78,-255.34 635.93,-236.57"/>
<polygon fill="none" stroke="#000000" stroke-opacity="0.200000" points="637.84,-237.57 637.31,-231.24 633.77,-236.51 637.84,-237.57"/>
</g>
<!-- src/domain/valueObjects -->
<g id="node17" class="node">
<title>src/domain/valueObjects</title>
<g id="a_node17"><a xlink:href="src/domain/valueObjects" xlink:title="valueObjects">
<polygon fill="#ffffcc" stroke="black" points="600.88,-198.48 533.76,-198.48 531.62,-196.34 531.62,-179.23 598.74,-179.23 600.88,-181.37 600.88,-198.48"/>
<polyline fill="none" stroke="black" points="598.74,-196.34 531.62,-196.34"/>
<polyline fill="none" stroke="black" points="598.74,-196.34 598.74,-179.23"/>
<polyline fill="none" stroke="black" points="598.74,-196.34 600.88,-198.48"/>
<text text-anchor="start" x="539.62" y="-185.93" font-family="Helvetica,sans-Serif" font-size="9.00">valueObjects</text>
</a>
</g>
</g>
<!-- src/infrastructure/video&#45;&gt;src/domain/valueObjects -->
<g id="edge30" class="edge">
<title>src/infrastructure/video&#45;&gt;src/domain/valueObjects</title>
<path fill="none" stroke="#000000" stroke-width="2" stroke-opacity="0.200000" d="M538.88,-318.33C530.29,-314.61 522.34,-308.82 519.62,-299.86 516.73,-290.29 516.73,-219.43 519.62,-209.86 520.61,-206.61 522.34,-203.86 524.57,-201.54"/>
<polygon fill="#000000" fill-opacity="0.200000" stroke="#000000" stroke-width="2" stroke-opacity="0.200000" points="525.54,-203.44 529.07,-198.15 523.01,-200.08 525.54,-203.44"/>
</g>
<!-- src/application/ports&#45;&gt;src/domain/entities -->
<g id="edge9" class="edge">
<title>src/application/ports&#45;&gt;src/domain/entities</title>
<path fill="none" stroke="#000000" stroke-opacity="0.200000" d="M576.53,-104.65C583.97,-112.83 594.34,-125.02 601.75,-136.86 615.37,-158.62 627.01,-186.04 633.73,-203.27"/>
<polygon fill="none" stroke="#000000" stroke-opacity="0.200000" points="631.65,-203.72 635.75,-208.57 635.57,-202.22 631.65,-203.72"/>
</g>
<!-- src/application/services -->
<g id="node13" class="node">
<title>src/application/services</title>
<g id="a_node13"><a xlink:href="src/application/services" xlink:title="services">
<polygon fill="#ffffcc" stroke="black" points="437.75,-73.48 385.89,-73.48 383.75,-71.34 383.75,-54.23 435.61,-54.23 437.75,-56.37 437.75,-73.48"/>
<polyline fill="none" stroke="black" points="435.61,-71.34 383.75,-71.34"/>
<polyline fill="none" stroke="black" points="435.61,-71.34 435.61,-54.23"/>
<polyline fill="none" stroke="black" points="435.61,-71.34 437.75,-73.48"/>
<text text-anchor="start" x="393.5" y="-60.93" font-family="Helvetica,sans-Serif" font-size="9.00">services</text>
</a>
</g>
</g>
<!-- src/application/services&#45;&gt;src/domain/entities -->
<g id="edge10" class="edge">
<title>src/application/services&#45;&gt;src/domain/entities</title>
<path fill="none" stroke="#000000" stroke-opacity="0.200000" d="M438.05,-54.84C478.04,-42.95 554.47,-27.59 601.75,-64.86 623.39,-81.91 634.42,-166 638.26,-202.68"/>
<polygon fill="none" stroke="#000000" stroke-opacity="0.200000" points="636.13,-202.49 638.82,-208.25 640.31,-202.07 636.13,-202.49"/>
</g>
<!-- src/domain/repositories&#45;&gt;src/domain/entities -->
<g id="edge14" class="edge">
<title>src/domain/repositories&#45;&gt;src/domain/entities</title>
<path fill="none" stroke="#000000" stroke-opacity="0.200000" d="M599.32,-219.86C601.52,-219.86 603.75,-219.86 605.97,-219.86"/>
<polygon fill="none" stroke="#000000" stroke-opacity="0.200000" points="605.9,-221.96 611.9,-219.86 605.9,-217.76 605.9,-221.96"/>
</g>
<!-- src/domain/services -->
<g id="node16" class="node">
<title>src/domain/services</title>
<g id="a_node16"><a xlink:href="src/domain/services" xlink:title="services">
<polygon fill="#ffffcc" stroke="black" points="593.25,-167.48 541.39,-167.48 539.25,-165.34 539.25,-148.23 591.11,-148.23 593.25,-150.37 593.25,-167.48"/>
<polyline fill="none" stroke="black" points="591.11,-165.34 539.25,-165.34"/>
<polyline fill="none" stroke="black" points="591.11,-165.34 591.11,-148.23"/>
<polyline fill="none" stroke="black" points="591.11,-165.34 593.25,-167.48"/>
<text text-anchor="start" x="549" y="-154.93" font-family="Helvetica,sans-Serif" font-size="9.00">services</text>
</a>
</g>
</g>
<!-- src/domain/services&#45;&gt;src/domain/entities -->
<g id="edge15" class="edge">
<title>src/domain/services&#45;&gt;src/domain/entities</title>
<path fill="none" stroke="#000000" stroke-opacity="0.200000" d="M593.62,-167.72C596.48,-169.25 599.25,-170.96 601.75,-172.86 613.01,-181.41 622.96,-193.95 629.87,-203.93"/>
<polygon fill="none" stroke="#000000" stroke-opacity="0.200000" points="628.04,-204.97 633.12,-208.79 631.53,-202.63 628.04,-204.97"/>
</g>
<!-- src/domain/valueObjects&#45;&gt;src/domain/entities -->
<g id="edge16" class="edge">
<title>src/domain/valueObjects&#45;&gt;src/domain/entities</title>
<path fill="none" stroke="#000000" stroke-opacity="0.200000" d="M590.63,-198.84C596.72,-201.44 603.37,-204.27 609.75,-207"/>
<polygon fill="none" stroke="#000000" stroke-opacity="0.200000" points="608.81,-208.88 615.15,-209.3 610.45,-205.01 608.81,-208.88"/>
</g>
<!-- src/infrastructure/dto&#45;&gt;src/domain/entities -->
<g id="edge21" class="edge">
<title>src/infrastructure/dto&#45;&gt;src/domain/entities</title>
<path fill="none" stroke="#000000" stroke-opacity="0.200000" d="M593.73,-347.27C596.71,-345.5 599.48,-343.38 601.75,-340.86 628.48,-311.17 636.47,-262.81 638.86,-237.14"/>
<polygon fill="none" stroke="#000000" stroke-opacity="0.200000" points="640.95,-237.31 639.33,-231.16 636.76,-236.98 640.95,-237.31"/>
</g>
<!-- src/main.ts -->
<g id="node19" class="node">
<title>src/main.ts</title>
<g id="a_node19"><a xlink:href="src/main.ts" xlink:title="main.ts">
<path fill="#ddfeff" stroke="black" d="M63.58,-110.48C63.58,-110.48 22.42,-110.48 22.42,-110.48 19.21,-110.48 16,-107.27 16,-104.06 16,-104.06 16,-97.65 16,-97.65 16,-94.44 19.21,-91.23 22.42,-91.23 22.42,-91.23 63.58,-91.23 63.58,-91.23 66.79,-91.23 70,-94.44 70,-97.65 70,-97.65 70,-104.06 70,-104.06 70,-107.27 66.79,-110.48 63.58,-110.48"/>
<text text-anchor="start" x="27.62" y="-97.93" font-family="Helvetica,sans-Serif" font-size="9.00">main.ts</text>
</a>
</g>
</g>
<!-- src/main.ts&#45;&gt;src/App.vue -->
<g id="edge31" class="edge">
<title>src/main.ts&#45;&gt;src/App.vue</title>
<path fill="none" stroke="#000000" stroke-width="2" stroke-opacity="0.200000" d="M70.44,-100.86C71.58,-100.86 72.74,-100.86 73.9,-100.86"/>
<polygon fill="#000000" fill-opacity="0.200000" stroke="#000000" stroke-width="2" stroke-opacity="0.200000" points="73.77,-102.96 79.77,-100.86 73.77,-98.76 73.77,-102.96"/>
</g>
<!-- src/presentation/stores&#45;&gt;src/application/container.ts -->
<g id="edge36" class="edge">
<title>src/presentation/stores&#45;&gt;src/application/container.ts</title>
<path fill="none" stroke="#000000" stroke-width="2" stroke-opacity="0.200000" d="M354.82,-102.32C359.51,-101.68 364.49,-101 369.46,-100.33"/>
<polygon fill="#000000" fill-opacity="0.200000" stroke="#000000" stroke-width="2" stroke-opacity="0.200000" points="369.68,-102.42 375.34,-99.53 369.12,-98.26 369.68,-102.42"/>
</g>
<!-- src/presentation/stores&#45;&gt;src/domain/entities -->
<g id="edge37" class="edge">
<title>src/presentation/stores&#45;&gt;src/domain/entities</title>
<path fill="none" stroke="#000000" stroke-opacity="0.200000" d="M331.96,-95.94C337.33,-81.23 349.66,-54.15 370.75,-42.86 461.27,5.59 521.88,21.65 601.75,-42.86 626.51,-62.85 635.95,-161.96 638.82,-202.52"/>
<polygon fill="none" stroke="#000000" stroke-opacity="0.200000" points="636.71,-202.45 639.21,-208.3 640.9,-202.17 636.71,-202.45"/>
</g>
<!-- src/presentation/stores&#45;&gt;src/application/services -->
<g id="edge35" class="edge">
<title>src/presentation/stores&#45;&gt;src/application/services</title>
<path fill="none" stroke="#000000" stroke-width="2" stroke-opacity="0.200000" d="M342.71,-95.86C350.68,-90.41 361.01,-83.8 370.75,-78.86 372.25,-78.09 373.81,-77.35 375.39,-76.62"/>
<polygon fill="#000000" fill-opacity="0.200000" stroke="#000000" stroke-width="2" stroke-opacity="0.200000" points="375.97,-78.65 380.64,-74.34 374.3,-74.8 375.97,-78.65"/>
</g>
<!-- src/presentation/stores&#45;&gt;src/domain/services -->
<g id="edge38" class="edge">
<title>src/presentation/stores&#45;&gt;src/domain/services</title>
<path fill="none" stroke="#000000" stroke-width="2" stroke-opacity="0.200000" d="M340,-115.91C348,-122.45 359.31,-130.54 370.75,-134.86 423.72,-154.86 490.08,-158.57 529.99,-158.72"/>
<polygon fill="#000000" fill-opacity="0.200000" stroke="#000000" stroke-width="2" stroke-opacity="0.200000" points="529.8,-160.82 535.79,-158.71 529.79,-156.62 529.8,-160.82"/>
</g>
</g>
</svg>
