<?xml version="1.0" encoding="UTF-8" standalone="no"?>
<!DOCTYPE svg PUBLIC "-//W3C//DTD SVG 1.1//EN"
 "http://www.w3.org/Graphics/SVG/1.1/DTD/svg11.dtd">
<!-- Generated by graphviz version 9.0.0 (20230911.1827)
 -->
<!-- Title: dependency&#45;cruiser output Pages: 1 -->
<svg width="859pt" height="351pt"
 viewBox="0.00 0.00 859.12 351.00" xmlns="http://www.w3.org/2000/svg" xmlns:xlink="http://www.w3.org/1999/xlink">
<g id="graph0" class="graph" transform="scale(1 1) rotate(0) translate(4 347)">
<title>dependency&#45;cruiser output</title>
<polygon fill="white" stroke="none" points="-4,4 -4,-347 855.12,-347 855.12,4 -4,4"/>
<g id="clust1" class="cluster">
<title>cluster_src</title>
<path fill="#ffffff" stroke="black" stroke-width="2" d="M20,-8C20,-8 831.12,-8 831.12,-8 837.12,-8 843.12,-14 843.12,-20 843.12,-20 843.12,-323 843.12,-323 843.12,-329 837.12,-335 831.12,-335 831.12,-335 20,-335 20,-335 14,-335 8,-329 8,-323 8,-323 8,-20 8,-20 8,-14 14,-8 20,-8"/>
<text text-anchor="middle" x="425.56" y="-322.45" font-family="Helvetica,sans-Serif" font-weight="bold" font-size="9.00">src</text>
</g>
<g id="clust2" class="cluster">
<title>cluster_src/application</title>
<path fill="#ffffff" stroke="black" stroke-width="2" d="M382.75,-212C382.75,-212 598.38,-212 598.38,-212 604.38,-212 610.38,-218 610.38,-224 610.38,-224 610.38,-286 610.38,-286 610.38,-292 604.38,-298 598.38,-298 598.38,-298 382.75,-298 382.75,-298 376.75,-298 370.75,-292 370.75,-286 370.75,-286 370.75,-224 370.75,-224 370.75,-218 376.75,-212 382.75,-212"/>
<text text-anchor="middle" x="490.56" y="-285.45" font-family="Helvetica,sans-Serif" font-weight="bold" font-size="9.00">application</text>
</g>
<g id="clust3" class="cluster">
<title>cluster_src/domain</title>
<path fill="#ffffff" stroke="black" stroke-width="2" d="M694.88,-134C694.88,-134 823.12,-134 823.12,-134 829.12,-134 835.12,-140 835.12,-146 835.12,-146 835.12,-239 835.12,-239 835.12,-245 829.12,-251 823.12,-251 823.12,-251 694.88,-251 694.88,-251 688.88,-251 682.88,-245 682.88,-239 682.88,-239 682.88,-146 682.88,-146 682.88,-140 688.88,-134 694.88,-134"/>
<text text-anchor="middle" x="759" y="-238.45" font-family="Helvetica,sans-Serif" font-weight="bold" font-size="9.00">domain</text>
</g>
<g id="clust4" class="cluster">
<title>cluster_src/infrastructure</title>
<path fill="#ffffff" stroke="black" stroke-width="2" d="M483.75,-40C483.75,-40 749,-40 749,-40 755,-40 761,-46 761,-52 761,-52 761,-114 761,-114 761,-120 755,-126 749,-126 749,-126 483.75,-126 483.75,-126 477.75,-126 471.75,-120 471.75,-114 471.75,-114 471.75,-52 471.75,-52 471.75,-46 477.75,-40 483.75,-40"/>
<text text-anchor="middle" x="616.38" y="-113.45" font-family="Helvetica,sans-Serif" font-weight="bold" font-size="9.00">infrastructure</text>
</g>
<g id="clust5" class="cluster">
<title>cluster_src/presentation</title>
<path fill="#ffffff" stroke="black" stroke-width="2" d="M157,-205C157,-205 350.75,-205 350.75,-205 356.75,-205 362.75,-211 362.75,-217 362.75,-217 362.75,-262 362.75,-262 362.75,-268 356.75,-274 350.75,-274 350.75,-274 157,-274 157,-274 151,-274 145,-268 145,-262 145,-262 145,-217 145,-217 145,-211 151,-205 157,-205"/>
<text text-anchor="middle" x="253.88" y="-261.45" font-family="Helvetica,sans-Serif" font-weight="bold" font-size="9.00">presentation</text>
</g>
<!-- src/App.vue -->
<g id="node1" class="node">
<title>src/App.vue</title>
<g id="a_node1"><a xlink:href="src/App.vue" xlink:title="App.vue">
<path fill="#41f083" stroke="black" d="M130.58,-234.62C130.58,-234.62 89.42,-234.62 89.42,-234.62 86.21,-234.62 83,-231.42 83,-228.21 83,-228.21 83,-221.79 83,-221.79 83,-218.58 86.21,-215.38 89.42,-215.38 89.42,-215.38 130.58,-215.38 130.58,-215.38 133.79,-215.38 137,-218.58 137,-221.79 137,-221.79 137,-228.21 137,-228.21 137,-231.42 133.79,-234.62 130.58,-234.62"/>
<text text-anchor="start" x="93.88" y="-222.07" font-family="Helvetica,sans-Serif" font-size="9.00">App.vue</text>
</a>
</g>
</g>
<!-- src/presentation/components -->
<g id="node2" class="node">
<title>src/presentation/components</title>
<g id="a_node2"><a xlink:href="src/presentation/components" xlink:title="components">
<polygon fill="#ffffcc" stroke="black" points="287.75,-232.62 222.14,-232.62 220,-230.49 220,-213.38 285.61,-213.38 287.75,-215.51 287.75,-232.62"/>
<polyline fill="none" stroke="black" points="285.61,-230.49 220,-230.49"/>
<polyline fill="none" stroke="black" points="285.61,-230.49 285.61,-213.38"/>
<polyline fill="none" stroke="black" points="285.61,-230.49 287.75,-232.62"/>
<text text-anchor="start" x="228" y="-220.07" font-family="Helvetica,sans-Serif" font-size="9.00">components</text>
</a>
</g>
</g>
<!-- src/App.vue&#45;&gt;src/presentation/components -->
<g id="edge1" class="edge">
<title>src/App.vue&#45;&gt;src/presentation/components</title>
<path fill="none" stroke="#000000" stroke-width="2" stroke-opacity="0.200000" d="M137.33,-221.59C139.92,-221.35 142.51,-221.15 145,-221 166.73,-219.73 190.96,-220.02 210.94,-220.72"/>
<polygon fill="#000000" fill-opacity="0.200000" stroke="#000000" stroke-width="2" stroke-opacity="0.200000" points="210.7,-222.81 216.77,-220.95 210.86,-218.62 210.7,-222.81"/>
</g>
<!-- src/presentation/views -->
<g id="node3" class="node">
<title>src/presentation/views</title>
<g id="a_node3"><a xlink:href="src/presentation/views" xlink:title="views">
<polygon fill="#ffffcc" stroke="black" points="207,-246.62 155.14,-246.62 153,-244.49 153,-227.38 204.86,-227.38 207,-229.51 207,-246.62"/>
<polyline fill="none" stroke="black" points="204.86,-244.49 153,-244.49"/>
<polyline fill="none" stroke="black" points="204.86,-244.49 204.86,-227.38"/>
<polyline fill="none" stroke="black" points="204.86,-244.49 207,-246.62"/>
<text text-anchor="start" x="168.38" y="-234.07" font-family="Helvetica,sans-Serif" font-size="9.00">views</text>
</a>
</g>
</g>
<!-- src/App.vue&#45;&gt;src/presentation/views -->
<g id="edge2" class="edge">
<title>src/App.vue&#45;&gt;src/presentation/views</title>
<path fill="none" stroke="#000000" stroke-width="2" stroke-opacity="0.200000" d="M137.49,-229.67C139.7,-230.07 141.97,-230.46 144.24,-230.87"/>
<polygon fill="#000000" fill-opacity="0.200000" stroke="#000000" stroke-width="2" stroke-opacity="0.200000" points="143.67,-232.9 149.94,-231.87 144.4,-228.76 143.67,-232.9"/>
</g>
<!-- src/domain/entities -->
<g id="node8" class="node">
<title>src/domain/entities</title>
<g id="a_node8"><a xlink:href="src/domain/entities" xlink:title="entities">
<polygon fill="#ffffcc" stroke="black" points="827.12,-223.62 775.26,-223.62 773.12,-221.49 773.12,-204.38 824.99,-204.38 827.12,-206.51 827.12,-223.62"/>
<polyline fill="none" stroke="black" points="824.99,-221.49 773.12,-221.49"/>
<polyline fill="none" stroke="black" points="824.99,-221.49 824.99,-204.38"/>
<polyline fill="none" stroke="black" points="824.99,-221.49 827.12,-223.62"/>
<text text-anchor="start" x="785.12" y="-211.07" font-family="Helvetica,sans-Serif" font-size="9.00">entities</text>
</a>
</g>
</g>
<!-- src/presentation/components&#45;&gt;src/domain/entities -->
<g id="edge28" class="edge">
<title>src/presentation/components&#45;&gt;src/domain/entities</title>
<path fill="none" stroke="#000000" stroke-opacity="0.200000" d="M265.71,-232.94C285.11,-250.11 327.8,-285 370.75,-301 391.52,-308.74 398.09,-307 420.25,-307 420.25,-307 420.25,-307 647.62,-307 698.58,-307 719.75,-319.91 761,-290 780.55,-275.82 790.69,-248.72 795.45,-231.01"/>
<polygon fill="none" stroke="#000000" stroke-opacity="0.200000" points="797.41,-231.85 796.81,-225.52 793.33,-230.84 797.41,-231.85"/>
</g>
<!-- src/infrastructure/services -->
<g id="node13" class="node">
<title>src/infrastructure/services</title>
<g id="a_node13"><a xlink:href="src/infrastructure/services" xlink:title="services">
<polygon fill="#ffffcc" stroke="black" points="602.38,-67.62 550.51,-67.62 548.38,-65.49 548.38,-48.38 600.24,-48.38 602.38,-50.51 602.38,-67.62"/>
<polyline fill="none" stroke="black" points="600.24,-65.49 548.38,-65.49"/>
<polyline fill="none" stroke="black" points="600.24,-65.49 600.24,-48.38"/>
<polyline fill="none" stroke="black" points="600.24,-65.49 602.38,-67.62"/>
<text text-anchor="start" x="558.12" y="-55.08" font-family="Helvetica,sans-Serif" font-size="9.00">services</text>
</a>
</g>
</g>
<!-- src/presentation/components&#45;&gt;src/infrastructure/services -->
<g id="edge26" class="edge">
<title>src/presentation/components&#45;&gt;src/infrastructure/services</title>
<path fill="none" stroke="#000000" stroke-width="2" stroke-opacity="0.200000" d="M265.12,-213.23C294.51,-185.85 382.72,-108.06 471.75,-73 493.25,-64.53 518.99,-60.79 539.31,-59.15"/>
<polygon fill="#000000" fill-opacity="0.200000" stroke="#000000" stroke-width="2" stroke-opacity="0.200000" points="539.37,-61.25 545.21,-58.75 539.08,-57.06 539.37,-61.25"/>
</g>
<!-- src/presentation/stores -->
<g id="node18" class="node">
<title>src/presentation/stores</title>
<g id="a_node18"><a xlink:href="src/presentation/stores" xlink:title="stores">
<polygon fill="#ffffcc" stroke="black" points="354.75,-239.62 302.89,-239.62 300.75,-237.49 300.75,-220.38 352.61,-220.38 354.75,-222.51 354.75,-239.62"/>
<polyline fill="none" stroke="black" points="352.61,-237.49 300.75,-237.49"/>
<polyline fill="none" stroke="black" points="352.61,-237.49 352.61,-220.38"/>
<polyline fill="none" stroke="black" points="352.61,-237.49 354.75,-239.62"/>
<text text-anchor="start" x="314.62" y="-227.07" font-family="Helvetica,sans-Serif" font-size="9.00">stores</text>
</a>
</g>
</g>
<!-- src/presentation/components&#45;&gt;src/presentation/stores -->
<g id="edge27" class="edge">
<title>src/presentation/components&#45;&gt;src/presentation/stores</title>
<path fill="none" stroke="#000000" stroke-width="2" stroke-opacity="0.200000" d="M287.87,-226.21C289.21,-226.34 290.55,-226.47 291.89,-226.6"/>
<polygon fill="#000000" fill-opacity="0.200000" stroke="#000000" stroke-width="2" stroke-opacity="0.200000" points="291.44,-228.67 297.62,-227.16 291.85,-224.49 291.44,-228.67"/>
</g>
<!-- src/presentation/views&#45;&gt;src/presentation/components -->
<g id="edge32" class="edge">
<title>src/presentation/views&#45;&gt;src/presentation/components</title>
<path fill="none" stroke="#000000" stroke-width="2" stroke-opacity="0.200000" d="M207.36,-231.87C208.61,-231.62 209.88,-231.38 211.16,-231.13"/>
<polygon fill="#000000" fill-opacity="0.200000" stroke="#000000" stroke-width="2" stroke-opacity="0.200000" points="211.21,-233.26 216.7,-230.05 210.41,-229.13 211.21,-233.26"/>
</g>
<!-- src/presentation/views&#45;&gt;src/presentation/stores -->
<g id="edge33" class="edge">
<title>src/presentation/views&#45;&gt;src/presentation/stores</title>
<path fill="none" stroke="#000000" stroke-width="2" stroke-opacity="0.200000" d="M207.41,-239.43C229.07,-240.95 260.49,-242.1 287.75,-239 289.04,-238.85 290.36,-238.68 291.68,-238.48"/>
<polygon fill="#000000" fill-opacity="0.200000" stroke="#000000" stroke-width="2" stroke-opacity="0.200000" points="291.94,-240.57 297.48,-237.45 291.2,-236.43 291.94,-240.57"/>
</g>
<!-- src/application/dependencies.ts -->
<g id="node4" class="node">
<title>src/application/dependencies.ts</title>
<g id="a_node4"><a xlink:href="src/application/dependencies.ts" xlink:title="dependencies.ts">
<path fill="#ddfeff" stroke="black" d="M457.33,-239.62C457.33,-239.62 385.17,-239.62 385.17,-239.62 381.96,-239.62 378.75,-236.42 378.75,-233.21 378.75,-233.21 378.75,-226.79 378.75,-226.79 378.75,-223.58 381.96,-220.38 385.17,-220.38 385.17,-220.38 457.33,-220.38 457.33,-220.38 460.54,-220.38 463.75,-223.58 463.75,-226.79 463.75,-226.79 463.75,-233.21 463.75,-233.21 463.75,-236.42 460.54,-239.62 457.33,-239.62"/>
<text text-anchor="start" x="386.75" y="-227.07" font-family="Helvetica,sans-Serif" font-size="9.00">dependencies.ts</text>
</a>
</g>
</g>
<!-- src/application/usecases -->
<g id="node5" class="node">
<title>src/application/usecases</title>
<g id="a_node5"><a xlink:href="src/application/usecases" xlink:title="usecases">
<polygon fill="#ffffcc" stroke="black" points="535.38,-252.62 480.26,-252.62 478.12,-250.49 478.12,-233.38 533.24,-233.38 535.38,-235.51 535.38,-252.62"/>
<polyline fill="none" stroke="black" points="533.24,-250.49 478.12,-250.49"/>
<polyline fill="none" stroke="black" points="533.24,-250.49 533.24,-233.38"/>
<polyline fill="none" stroke="black" points="533.24,-250.49 535.38,-252.62"/>
<text text-anchor="start" x="486.12" y="-240.07" font-family="Helvetica,sans-Serif" font-size="9.00">usecases</text>
</a>
</g>
</g>
<!-- src/application/dependencies.ts&#45;&gt;src/application/usecases -->
<g id="edge3" class="edge">
<title>src/application/dependencies.ts&#45;&gt;src/application/usecases</title>
<path fill="none" stroke="#000000" stroke-width="2" stroke-opacity="0.200000" d="M464,-236.5C465.77,-236.78 467.55,-237.05 469.31,-237.33"/>
<polygon fill="#000000" fill-opacity="0.200000" stroke="#000000" stroke-width="2" stroke-opacity="0.200000" points="468.7,-239.36 474.95,-238.21 469.35,-235.21 468.7,-239.36"/>
</g>
<!-- src/infrastructure/adapters -->
<g id="node6" class="node">
<title>src/infrastructure/adapters</title>
<g id="a_node6"><a xlink:href="src/infrastructure/adapters" xlink:title="adapters">
<polygon fill="#ffffcc" stroke="black" points="533.75,-98.62 481.89,-98.62 479.75,-96.49 479.75,-79.38 531.61,-79.38 533.75,-81.51 533.75,-98.62"/>
<polyline fill="none" stroke="black" points="531.61,-96.49 479.75,-96.49"/>
<polyline fill="none" stroke="black" points="531.61,-96.49 531.61,-79.38"/>
<polyline fill="none" stroke="black" points="531.61,-96.49 533.75,-98.62"/>
<text text-anchor="start" x="488.38" y="-86.08" font-family="Helvetica,sans-Serif" font-size="9.00">adapters</text>
</a>
</g>
</g>
<!-- src/application/dependencies.ts&#45;&gt;src/infrastructure/adapters -->
<g id="edge4" class="edge">
<title>src/application/dependencies.ts&#45;&gt;src/infrastructure/adapters</title>
<path fill="none" stroke="#000000" stroke-width="2" stroke-opacity="0.200000" d="M427.99,-220.31C441.93,-196.76 477.74,-136.29 495.48,-106.34"/>
<polygon fill="#000000" fill-opacity="0.200000" stroke="#000000" stroke-width="2" stroke-opacity="0.200000" points="497.18,-107.6 498.43,-101.36 493.56,-105.46 497.18,-107.6"/>
</g>
<!-- src/application/ports -->
<g id="node7" class="node">
<title>src/application/ports</title>
<g id="a_node7"><a xlink:href="src/application/ports" xlink:title="ports">
<polygon fill="#ffffcc" stroke="black" points="602.38,-252.62 550.51,-252.62 548.38,-250.49 548.38,-233.38 600.24,-233.38 602.38,-235.51 602.38,-252.62"/>
<polyline fill="none" stroke="black" points="600.24,-250.49 548.38,-250.49"/>
<polyline fill="none" stroke="black" points="600.24,-250.49 600.24,-233.38"/>
<polyline fill="none" stroke="black" points="600.24,-250.49 602.38,-252.62"/>
<text text-anchor="start" x="564.88" y="-240.07" font-family="Helvetica,sans-Serif" font-size="9.00">ports</text>
</a>
</g>
</g>
<!-- src/application/usecases&#45;&gt;src/application/ports -->
<g id="edge7" class="edge">
<title>src/application/usecases&#45;&gt;src/application/ports</title>
<path fill="none" stroke="#000000" stroke-opacity="0.200000" d="M535.62,-243C537.3,-243 539,-243 540.7,-243"/>
<polygon fill="none" stroke="#000000" stroke-opacity="0.200000" points="540.6,-245.1 546.6,-243 540.6,-240.9 540.6,-245.1"/>
</g>
<!-- src/application/usecases&#45;&gt;src/domain/entities -->
<g id="edge8" class="edge">
<title>src/application/usecases&#45;&gt;src/domain/entities</title>
<path fill="none" stroke="#000000" stroke-opacity="0.200000" d="M531.65,-252.99C578.49,-270.94 684.45,-303.35 761,-265 775.21,-257.88 785.49,-242.67 791.76,-230.7"/>
<polygon fill="none" stroke="#000000" stroke-opacity="0.200000" points="793.57,-231.79 794.33,-225.48 789.8,-229.94 793.57,-231.79"/>
</g>
<!-- src/infrastructure/adapters&#45;&gt;src/application/ports -->
<g id="edge11" class="edge">
<title>src/infrastructure/adapters&#45;&gt;src/application/ports</title>
<path fill="none" stroke="#000000" stroke-opacity="0.200000" d="M510.1,-98.88C515.26,-119.66 528.72,-169.11 548.38,-207 552.05,-214.08 557,-221.32 561.6,-227.44"/>
<polygon fill="none" stroke="#000000" stroke-opacity="0.200000" points="559.75,-228.48 565.09,-231.93 563.07,-225.9 559.75,-228.48"/>
</g>
<!-- src/infrastructure/adapters&#45;&gt;src/domain/entities -->
<g id="edge12" class="edge">
<title>src/infrastructure/adapters&#45;&gt;src/domain/entities</title>
<path fill="none" stroke="#000000" stroke-opacity="0.200000" d="M518.55,-98.89C539.08,-118.21 584.04,-163.12 610.38,-209 615.76,-218.39 609.96,-225.2 618.38,-232 643.06,-251.95 730.67,-249.36 761,-240 768.69,-237.63 776.22,-233.11 782.53,-228.5"/>
<polygon fill="none" stroke="#000000" stroke-opacity="0.200000" points="783.76,-230.2 787.2,-224.86 781.17,-226.89 783.76,-230.2"/>
</g>
<!-- src/infrastructure/adapters&#45;&gt;src/infrastructure/services -->
<g id="edge13" class="edge">
<title>src/infrastructure/adapters&#45;&gt;src/infrastructure/services</title>
<path fill="none" stroke="#000000" stroke-width="2" stroke-opacity="0.200000" d="M529.2,-79.02C534.19,-76.7 539.59,-74.18 544.86,-71.73"/>
<polygon fill="#000000" fill-opacity="0.200000" stroke="#000000" stroke-width="2" stroke-opacity="0.200000" points="545.67,-73.67 550.22,-69.24 543.9,-69.86 545.67,-73.67"/>
</g>
<!-- src/infrastructure/video -->
<g id="node14" class="node">
<title>src/infrastructure/video</title>
<g id="a_node14"><a xlink:href="src/infrastructure/video" xlink:title="video">
<polygon fill="#ffffcc" stroke="black" points="602.38,-98.62 550.51,-98.62 548.38,-96.49 548.38,-79.38 600.24,-79.38 602.38,-81.51 602.38,-98.62"/>
<polyline fill="none" stroke="black" points="600.24,-96.49 548.38,-96.49"/>
<polyline fill="none" stroke="black" points="600.24,-96.49 600.24,-79.38"/>
<polyline fill="none" stroke="black" points="600.24,-96.49 602.38,-98.62"/>
<text text-anchor="start" x="564.5" y="-86.08" font-family="Helvetica,sans-Serif" font-size="9.00">video</text>
</a>
</g>
</g>
<!-- src/infrastructure/adapters&#45;&gt;src/infrastructure/video -->
<g id="edge14" class="edge">
<title>src/infrastructure/adapters&#45;&gt;src/infrastructure/video</title>
<path fill="none" stroke="#000000" stroke-width="2" stroke-opacity="0.200000" d="M534.08,-89C535.83,-89 537.6,-89 539.38,-89"/>
<polygon fill="#000000" fill-opacity="0.200000" stroke="#000000" stroke-width="2" stroke-opacity="0.200000" points="539.21,-91.1 545.21,-89 539.21,-86.9 539.21,-91.1"/>
</g>
<!-- src/application/ports&#45;&gt;src/domain/entities -->
<g id="edge5" class="edge">
<title>src/application/ports&#45;&gt;src/domain/entities</title>
<path fill="none" stroke="#000000" stroke-opacity="0.200000" d="M602.75,-252.02C639.8,-263.11 708.58,-277.84 761,-255 772.73,-249.89 782.48,-239.2 789.18,-230.01"/>
<polygon fill="none" stroke="#000000" stroke-opacity="0.200000" points="790.8,-231.36 792.46,-225.23 787.33,-228.99 790.8,-231.36"/>
</g>
<!-- src/application/services -->
<g id="node9" class="node">
<title>src/application/services</title>
<g id="a_node9"><a xlink:href="src/application/services" xlink:title="services">
<polygon fill="#ffffcc" stroke="black" points="448.25,-270.62 396.39,-270.62 394.25,-268.49 394.25,-251.38 446.11,-251.38 448.25,-253.51 448.25,-270.62"/>
<polyline fill="none" stroke="black" points="446.11,-268.49 394.25,-268.49"/>
<polyline fill="none" stroke="black" points="446.11,-268.49 446.11,-251.38"/>
<polyline fill="none" stroke="black" points="446.11,-268.49 448.25,-270.62"/>
<text text-anchor="start" x="404" y="-258.07" font-family="Helvetica,sans-Serif" font-size="9.00">services</text>
</a>
</g>
</g>
<!-- src/application/services&#45;&gt;src/domain/entities -->
<g id="edge6" class="edge">
<title>src/application/services&#45;&gt;src/domain/entities</title>
<path fill="none" stroke="#000000" stroke-opacity="0.200000" d="M448.55,-270C478.6,-279.46 529.44,-293 574.38,-293 574.38,-293 574.38,-293 647.62,-293 698.51,-293 718.53,-305.03 761,-277 777.5,-266.11 787.98,-245.38 793.69,-230.67"/>
<polygon fill="none" stroke="#000000" stroke-opacity="0.200000" points="795.52,-231.79 795.6,-225.43 791.57,-230.35 795.52,-231.79"/>
</g>
<!-- src/domain/constants -->
<g id="node10" class="node">
<title>src/domain/constants</title>
<g id="a_node10"><a xlink:href="src/domain/constants" xlink:title="constants">
<polygon fill="#ffffcc" stroke="black" points="753.75,-161.62 699.39,-161.62 697.25,-159.49 697.25,-142.38 751.61,-142.38 753.75,-144.51 753.75,-161.62"/>
<polyline fill="none" stroke="black" points="751.61,-159.49 697.25,-159.49"/>
<polyline fill="none" stroke="black" points="751.61,-159.49 751.61,-142.38"/>
<polyline fill="none" stroke="black" points="751.61,-159.49 753.75,-161.62"/>
<text text-anchor="start" x="705.25" y="-149.07" font-family="Helvetica,sans-Serif" font-size="9.00">constants</text>
</a>
</g>
</g>
<!-- src/domain/repositories -->
<g id="node11" class="node">
<title>src/domain/repositories</title>
<g id="a_node11"><a xlink:href="src/domain/repositories" xlink:title="repositories">
<polygon fill="#ffffcc" stroke="black" points="758.25,-192.62 694.89,-192.62 692.75,-190.49 692.75,-173.38 756.11,-173.38 758.25,-175.51 758.25,-192.62"/>
<polyline fill="none" stroke="black" points="756.11,-190.49 692.75,-190.49"/>
<polyline fill="none" stroke="black" points="756.11,-190.49 756.11,-173.38"/>
<polyline fill="none" stroke="black" points="756.11,-190.49 758.25,-192.62"/>
<text text-anchor="start" x="700.75" y="-180.07" font-family="Helvetica,sans-Serif" font-size="9.00">repositories</text>
</a>
</g>
</g>
<!-- src/domain/repositories&#45;&gt;src/domain/entities -->
<g id="edge9" class="edge">
<title>src/domain/repositories&#45;&gt;src/domain/entities</title>
<path fill="none" stroke="#000000" stroke-opacity="0.200000" d="M749.88,-192.98C755.97,-195.58 762.62,-198.42 769,-201.14"/>
<polygon fill="none" stroke="#000000" stroke-opacity="0.200000" points="768.06,-203.02 774.4,-203.45 769.7,-199.16 768.06,-203.02"/>
</g>
<!-- src/domain/valueObjects -->
<g id="node12" class="node">
<title>src/domain/valueObjects</title>
<g id="a_node12"><a xlink:href="src/domain/valueObjects" xlink:title="valueObjects">
<polygon fill="#ffffcc" stroke="black" points="760.12,-223.62 693.01,-223.62 690.88,-221.49 690.88,-204.38 757.99,-204.38 760.12,-206.51 760.12,-223.62"/>
<polyline fill="none" stroke="black" points="757.99,-221.49 690.88,-221.49"/>
<polyline fill="none" stroke="black" points="757.99,-221.49 757.99,-204.38"/>
<polyline fill="none" stroke="black" points="757.99,-221.49 760.12,-223.62"/>
<text text-anchor="start" x="698.88" y="-211.07" font-family="Helvetica,sans-Serif" font-size="9.00">valueObjects</text>
</a>
</g>
</g>
<!-- src/domain/valueObjects&#45;&gt;src/domain/entities -->
<g id="edge10" class="edge">
<title>src/domain/valueObjects&#45;&gt;src/domain/entities</title>
<path fill="none" stroke="#000000" stroke-opacity="0.200000" d="M760.26,-214C762.14,-214 764.03,-214 765.91,-214"/>
<polygon fill="none" stroke="#000000" stroke-opacity="0.200000" points="765.54,-216.1 771.54,-214 765.54,-211.9 765.54,-216.1"/>
</g>
<!-- src/infrastructure/services&#45;&gt;src/domain/entities -->
<g id="edge19" class="edge">
<title>src/infrastructure/services&#45;&gt;src/domain/entities</title>
<path fill="none" stroke="#000000" stroke-opacity="0.200000" d="M602.78,-51.59C642.08,-43.73 716.13,-35.67 761,-73 780.04,-88.84 792.22,-162.6 796.92,-196.67"/>
<polygon fill="none" stroke="#000000" stroke-opacity="0.200000" points="794.83,-196.88 797.71,-202.55 799,-196.32 794.83,-196.88"/>
</g>
<!-- src/infrastructure/services&#45;&gt;src/domain/repositories -->
<g id="edge20" class="edge">
<title>src/infrastructure/services&#45;&gt;src/domain/repositories</title>
<path fill="none" stroke="#000000" stroke-opacity="0.200000" d="M602.62,-66.51C605.53,-68.29 608.21,-70.43 610.38,-73 619.82,-84.21 611.08,-92.29 618.38,-105 638.32,-139.75 648.92,-146.72 682.88,-168 683.81,-168.59 684.77,-169.15 685.75,-169.7"/>
<polygon fill="none" stroke="#000000" stroke-opacity="0.200000" points="684.81,-171.58 691.12,-172.39 686.69,-167.82 684.81,-171.58"/>
</g>
<!-- src/infrastructure/services&#45;&gt;src/domain/valueObjects -->
<g id="edge21" class="edge">
<title>src/infrastructure/services&#45;&gt;src/domain/valueObjects</title>
<path fill="none" stroke="#000000" stroke-width="2" stroke-opacity="0.200000" d="M602.59,-66.06C605.58,-67.92 608.29,-70.21 610.38,-73 627.49,-96 605.53,-111.37 618.38,-137 636.2,-172.55 649.1,-178.02 682.88,-199 683.44,-199.35 684.01,-199.69 684.59,-200.03"/>
<polygon fill="#000000" fill-opacity="0.200000" stroke="#000000" stroke-width="2" stroke-opacity="0.200000" points="683.49,-201.82 689.79,-202.67 685.39,-198.08 683.49,-201.82"/>
</g>
<!-- src/infrastructure/repository -->
<g id="node16" class="node">
<title>src/infrastructure/repository</title>
<g id="a_node16"><a xlink:href="src/infrastructure/repository" xlink:title="repository">
<polygon fill="#ffffcc" stroke="black" points="674.88,-98.62 620.51,-98.62 618.38,-96.49 618.38,-79.38 672.74,-79.38 674.88,-81.51 674.88,-98.62"/>
<polyline fill="none" stroke="black" points="672.74,-96.49 618.38,-96.49"/>
<polyline fill="none" stroke="black" points="672.74,-96.49 672.74,-79.38"/>
<polyline fill="none" stroke="black" points="672.74,-96.49 674.88,-98.62"/>
<text text-anchor="start" x="626.38" y="-86.08" font-family="Helvetica,sans-Serif" font-size="9.00">repository</text>
</a>
</g>
</g>
<!-- src/infrastructure/services&#45;&gt;src/infrastructure/repository -->
<g id="edge22" class="edge">
<title>src/infrastructure/services&#45;&gt;src/infrastructure/repository</title>
<path fill="none" stroke="#000000" stroke-width="2" stroke-opacity="0.200000" d="M599.07,-67.97C602.85,-69.64 606.72,-71.37 610.38,-73 612.12,-73.78 613.91,-74.59 615.72,-75.4"/>
<polygon fill="#000000" fill-opacity="0.200000" stroke="#000000" stroke-width="2" stroke-opacity="0.200000" points="614.55,-77.18 620.88,-77.73 616.28,-73.35 614.55,-77.18"/>
</g>
<!-- src/infrastructure/video&#45;&gt;src/domain/entities -->
<g id="edge23" class="edge">
<title>src/infrastructure/video&#45;&gt;src/domain/entities</title>
<path fill="none" stroke="#000000" stroke-opacity="0.200000" d="M579.1,-98.87C586.94,-126.96 609.54,-205.85 618.38,-214 665.27,-257.24 698.47,-242.59 761,-230 764.87,-229.22 768.84,-228.04 772.68,-226.66"/>
<polygon fill="none" stroke="#000000" stroke-opacity="0.200000" points="773.19,-228.72 778.01,-224.57 771.66,-224.81 773.19,-228.72"/>
</g>
<!-- src/infrastructure/video&#45;&gt;src/domain/valueObjects -->
<g id="edge24" class="edge">
<title>src/infrastructure/video&#45;&gt;src/domain/valueObjects</title>
<path fill="none" stroke="#000000" stroke-width="2" stroke-opacity="0.200000" d="M576.77,-98.82C578.25,-121.2 585.24,-176.08 618.38,-202 636.01,-215.79 660.62,-219.24 681.7,-219.04"/>
<polygon fill="#000000" fill-opacity="0.200000" stroke="#000000" stroke-width="2" stroke-opacity="0.200000" points="681.54,-221.15 687.46,-218.85 681.4,-216.95 681.54,-221.15"/>
</g>
<!-- src/infrastructure/database -->
<g id="node15" class="node">
<title>src/infrastructure/database</title>
<g id="a_node15"><a xlink:href="src/infrastructure/database" xlink:title="database">
<polygon fill="#ffffcc" stroke="black" points="753,-98.62 700.14,-98.62 698,-96.49 698,-79.38 750.86,-79.38 753,-81.51 753,-98.62"/>
<polyline fill="none" stroke="black" points="750.86,-96.49 698,-96.49"/>
<polyline fill="none" stroke="black" points="750.86,-96.49 750.86,-79.38"/>
<polyline fill="none" stroke="black" points="750.86,-96.49 753,-98.62"/>
<text text-anchor="start" x="706" y="-86.08" font-family="Helvetica,sans-Serif" font-size="9.00">database</text>
</a>
</g>
</g>
<!-- src/infrastructure/repository&#45;&gt;src/domain/entities -->
<g id="edge17" class="edge">
<title>src/infrastructure/repository&#45;&gt;src/domain/entities</title>
<path fill="none" stroke="#000000" stroke-opacity="0.200000" d="M669.18,-98.98C673.69,-101.01 678.42,-103.11 682.88,-105 717.25,-119.61 733.59,-110.62 761,-136 779,-152.67 789.52,-179.67 794.8,-197.13"/>
<polygon fill="none" stroke="#000000" stroke-opacity="0.200000" points="792.67,-197.31 796.33,-202.51 796.71,-196.16 792.67,-197.31"/>
</g>
<!-- src/infrastructure/repository&#45;&gt;src/domain/constants -->
<g id="edge16" class="edge">
<title>src/infrastructure/repository&#45;&gt;src/domain/constants</title>
<path fill="none" stroke="#000000" stroke-width="2" stroke-opacity="0.200000" d="M654.92,-99.08C661.54,-107.74 671.91,-120.19 682.88,-129 686.74,-132.1 691.08,-135.01 695.46,-137.65"/>
<polygon fill="#000000" fill-opacity="0.200000" stroke="#000000" stroke-width="2" stroke-opacity="0.200000" points="694.4,-139.47 700.65,-140.6 696.47,-135.81 694.4,-139.47"/>
</g>
<!-- src/infrastructure/repository&#45;&gt;src/domain/repositories -->
<g id="edge18" class="edge">
<title>src/infrastructure/repository&#45;&gt;src/domain/repositories</title>
<path fill="none" stroke="#000000" stroke-opacity="0.200000" d="M653.07,-98.94C658.91,-109.81 668.22,-127.84 674.88,-144 679.16,-154.4 675.02,-159.95 682.88,-168 684.01,-169.16 685.24,-170.23 686.54,-171.22"/>
<polygon fill="none" stroke="#000000" stroke-opacity="0.200000" points="685.16,-172.84 691.36,-174.25 687.4,-169.28 685.16,-172.84"/>
</g>
<!-- src/infrastructure/repository&#45;&gt;src/infrastructure/database -->
<g id="edge15" class="edge">
<title>src/infrastructure/repository&#45;&gt;src/infrastructure/database</title>
<path fill="none" stroke="#000000" stroke-width="2" stroke-opacity="0.200000" d="M674.94,-89C679.42,-89 684.11,-89 688.74,-89"/>
<polygon fill="#000000" fill-opacity="0.200000" stroke="#000000" stroke-width="2" stroke-opacity="0.200000" points="688.5,-91.1 694.5,-89 688.5,-86.9 688.5,-91.1"/>
</g>
<!-- src/main.ts -->
<g id="node17" class="node">
<title>src/main.ts</title>
<g id="a_node17"><a xlink:href="src/main.ts" xlink:title="main.ts">
<path fill="#ddfeff" stroke="black" d="M63.58,-234.62C63.58,-234.62 22.42,-234.62 22.42,-234.62 19.21,-234.62 16,-231.42 16,-228.21 16,-228.21 16,-221.79 16,-221.79 16,-218.58 19.21,-215.38 22.42,-215.38 22.42,-215.38 63.58,-215.38 63.58,-215.38 66.79,-215.38 70,-218.58 70,-221.79 70,-221.79 70,-228.21 70,-228.21 70,-231.42 66.79,-234.62 63.58,-234.62"/>
<text text-anchor="start" x="27.62" y="-222.07" font-family="Helvetica,sans-Serif" font-size="9.00">main.ts</text>
</a>
</g>
</g>
<!-- src/main.ts&#45;&gt;src/App.vue -->
<g id="edge25" class="edge">
<title>src/main.ts&#45;&gt;src/App.vue</title>
<path fill="none" stroke="#000000" stroke-width="2" stroke-opacity="0.200000" d="M70.44,-225C71.58,-225 72.74,-225 73.9,-225"/>
<polygon fill="#000000" fill-opacity="0.200000" stroke="#000000" stroke-width="2" stroke-opacity="0.200000" points="73.77,-227.1 79.77,-225 73.77,-222.9 73.77,-227.1"/>
</g>
<!-- src/presentation/stores&#45;&gt;src/application/dependencies.ts -->
<g id="edge30" class="edge">
<title>src/presentation/stores&#45;&gt;src/application/dependencies.ts</title>
<path fill="none" stroke="#000000" stroke-width="2" stroke-opacity="0.200000" d="M355.22,-230C359.77,-230 364.63,-230 369.57,-230"/>
<polygon fill="#000000" fill-opacity="0.200000" stroke="#000000" stroke-width="2" stroke-opacity="0.200000" points="369.47,-232.1 375.47,-230 369.47,-227.9 369.47,-232.1"/>
</g>
<!-- src/presentation/stores&#45;&gt;src/domain/entities -->
<g id="edge31" class="edge">
<title>src/presentation/stores&#45;&gt;src/domain/entities</title>
<path fill="none" stroke="#000000" stroke-opacity="0.200000" d="M334.71,-220.09C356.58,-184.05 433.09,-60.91 471.75,-37 484.8,-28.93 490.41,-31 505.75,-31 505.75,-31 505.75,-31 647.62,-31 698.08,-31 722.59,-4.27 761,-37 785.22,-57.64 794.98,-156.38 798,-196.74"/>
<polygon fill="none" stroke="#000000" stroke-opacity="0.200000" points="795.89,-196.65 798.41,-202.49 800.08,-196.36 795.89,-196.65"/>
</g>
<!-- src/presentation/stores&#45;&gt;src/application/services -->
<g id="edge29" class="edge">
<title>src/presentation/stores&#45;&gt;src/application/services</title>
<path fill="none" stroke="#000000" stroke-width="2" stroke-opacity="0.200000" d="M354.41,-240.1C359.79,-242.12 365.43,-244.18 370.75,-246 375.54,-247.64 380.62,-249.28 385.63,-250.85"/>
<polygon fill="#000000" fill-opacity="0.200000" stroke="#000000" stroke-width="2" stroke-opacity="0.200000" points="384.69,-252.75 391.04,-252.51 385.93,-248.74 384.69,-252.75"/>
</g>
</g>
</svg>
