<?xml version="1.0" encoding="UTF-8" standalone="no"?>
<!DOCTYPE svg PUBLIC "-//W3C//DTD SVG 1.1//EN"
 "http://www.w3.org/Graphics/SVG/1.1/DTD/svg11.dtd">
<!-- Generated by graphviz version 9.0.0 (20230911.1827)
 -->
<!-- Title: dependency&#45;cruiser output Pages: 1 -->
<svg width="473pt" height="288pt"
 viewBox="0.00 0.00 472.50 288.00" xmlns="http://www.w3.org/2000/svg" xmlns:xlink="http://www.w3.org/1999/xlink">
<g id="graph0" class="graph" transform="scale(1 1) rotate(0) translate(4 284)">
<title>dependency&#45;cruiser output</title>
<polygon fill="white" stroke="none" points="-4,4 -4,-284 468.5,-284 468.5,4 -4,4"/>
<g id="clust1" class="cluster">
<title>cluster_src</title>
<path fill="#ffffff" stroke="black" stroke-width="2" d="M20,-8C20,-8 444.5,-8 444.5,-8 450.5,-8 456.5,-14 456.5,-20 456.5,-20 456.5,-260 456.5,-260 456.5,-266 450.5,-272 444.5,-272 444.5,-272 20,-272 20,-272 14,-272 8,-266 8,-260 8,-260 8,-20 8,-20 8,-14 14,-8 20,-8"/>
<text text-anchor="middle" x="232.25" y="-259.45" font-family="Helvetica,sans-Serif" font-weight="bold" font-size="9.00">src</text>
</g>
<g id="clust2" class="cluster">
<title>cluster_src/application</title>
<path fill="#ffffff" stroke="black" stroke-width="2" d="M390.5,-94C390.5,-94 436.5,-94 436.5,-94 442.5,-94 448.5,-100 448.5,-106 448.5,-106 448.5,-137 448.5,-137 448.5,-143 442.5,-149 436.5,-149 436.5,-149 390.5,-149 390.5,-149 384.5,-149 378.5,-143 378.5,-137 378.5,-137 378.5,-106 378.5,-106 378.5,-100 384.5,-94 390.5,-94"/>
<text text-anchor="middle" x="413.5" y="-136.45" font-family="Helvetica,sans-Serif" font-weight="bold" font-size="9.00">application</text>
</g>
<g id="clust3" class="cluster">
<title>cluster_src/components</title>
<path fill="#ffffff" stroke="black" stroke-width="2" d="M136.25,-26C136.25,-26 250.25,-26 250.25,-26 256.25,-26 262.25,-32 262.25,-38 262.25,-38 262.25,-195 262.25,-195 262.25,-201 256.25,-207 250.25,-207 250.25,-207 136.25,-207 136.25,-207 130.25,-207 124.25,-201 124.25,-195 124.25,-195 124.25,-38 124.25,-38 124.25,-32 130.25,-26 136.25,-26"/>
<text text-anchor="middle" x="193.25" y="-194.45" font-family="Helvetica,sans-Serif" font-weight="bold" font-size="9.00">components</text>
</g>
<g id="clust5" class="cluster">
<title>cluster_src/components/utils</title>
<path fill="#ffffff" stroke="black" stroke-width="2" d="M144.25,-125C144.25,-125 242.25,-125 242.25,-125 248.25,-125 254.25,-131 254.25,-137 254.25,-137 254.25,-168 254.25,-168 254.25,-174 248.25,-180 242.25,-180 242.25,-180 144.25,-180 144.25,-180 138.25,-180 132.25,-174 132.25,-168 132.25,-168 132.25,-137 132.25,-137 132.25,-131 138.25,-125 144.25,-125"/>
<text text-anchor="middle" x="193.25" y="-167.45" font-family="Helvetica,sans-Serif" font-weight="bold" font-size="9.00">utils</text>
</g>
<g id="clust4" class="cluster">
<title>cluster_src/components/inputs</title>
<path fill="#ffffff" stroke="black" stroke-width="2" d="M163.38,-62C163.38,-62 223.12,-62 223.12,-62 229.12,-62 235.12,-68 235.12,-74 235.12,-74 235.12,-105 235.12,-105 235.12,-111 229.12,-117 223.12,-117 223.12,-117 163.38,-117 163.38,-117 157.38,-117 151.38,-111 151.38,-105 151.38,-105 151.38,-74 151.38,-74 151.38,-68 157.38,-62 163.38,-62"/>
<text text-anchor="middle" x="193.25" y="-104.45" font-family="Helvetica,sans-Serif" font-weight="bold" font-size="9.00">inputs</text>
</g>
<g id="clust6" class="cluster">
<title>cluster_src/stores</title>
<path fill="#ffffff" stroke="black" stroke-width="2" d="M282.25,-94C282.25,-94 358.5,-94 358.5,-94 364.5,-94 370.5,-100 370.5,-106 370.5,-106 370.5,-168 370.5,-168 370.5,-174 364.5,-180 358.5,-180 358.5,-180 282.25,-180 282.25,-180 276.25,-180 270.25,-174 270.25,-168 270.25,-168 270.25,-106 270.25,-106 270.25,-100 276.25,-94 282.25,-94"/>
<text text-anchor="middle" x="320.38" y="-167.45" font-family="Helvetica,sans-Serif" font-weight="bold" font-size="9.00">stores</text>
</g>
<g id="clust7" class="cluster">
<title>cluster_src/views</title>
<path fill="#ffffff" stroke="black" stroke-width="2" d="M28,-110C28,-110 104.25,-110 104.25,-110 110.25,-110 116.25,-116 116.25,-122 116.25,-122 116.25,-184 116.25,-184 116.25,-190 110.25,-196 104.25,-196 104.25,-196 28,-196 28,-196 22,-196 16,-190 16,-184 16,-184 16,-122 16,-122 16,-116 22,-110 28,-110"/>
<text text-anchor="middle" x="66.12" y="-183.45" font-family="Helvetica,sans-Serif" font-weight="bold" font-size="9.00">views</text>
</g>
<!-- src/application/index.ts -->
<g id="node1" class="node">
<title>src/application/index.ts</title>
<g id="a_node1"><a xlink:href="src/application/index.ts" xlink:title="index.ts">
<path fill="#ddfeff" stroke="black" d="M434.08,-121.62C434.08,-121.62 392.92,-121.62 392.92,-121.62 389.71,-121.62 386.5,-118.42 386.5,-115.21 386.5,-115.21 386.5,-108.79 386.5,-108.79 386.5,-105.58 389.71,-102.38 392.92,-102.38 392.92,-102.38 434.08,-102.38 434.08,-102.38 437.29,-102.38 440.5,-105.58 440.5,-108.79 440.5,-108.79 440.5,-115.21 440.5,-115.21 440.5,-118.42 437.29,-121.62 434.08,-121.62"/>
<text text-anchor="start" x="397.75" y="-109.08" font-family="Helvetica,sans-Serif" font-size="9.00">index.ts</text>
</a>
</g>
</g>
<!-- src/components/VideoCard.vue -->
<g id="node2" class="node">
<title>src/components/VideoCard.vue</title>
<g id="a_node2"><a xlink:href="src/components/VideoCard.vue" xlink:title="VideoCard.vue">
<path fill="#41f083" stroke="black" d="M224.83,-53.62C224.83,-53.62 161.67,-53.62 161.67,-53.62 158.46,-53.62 155.25,-50.42 155.25,-47.21 155.25,-47.21 155.25,-40.79 155.25,-40.79 155.25,-37.58 158.46,-34.38 161.67,-34.38 161.67,-34.38 224.83,-34.38 224.83,-34.38 228.04,-34.38 231.25,-37.58 231.25,-40.79 231.25,-40.79 231.25,-47.21 231.25,-47.21 231.25,-50.42 228.04,-53.62 224.83,-53.62"/>
<text text-anchor="start" x="163.25" y="-41.08" font-family="Helvetica,sans-Serif" font-size="9.00">VideoCard.vue</text>
</a>
</g>
</g>
<!-- src/stores/videosStore.ts -->
<g id="node3" class="node">
<title>src/stores/videosStore.ts</title>
<g id="a_node3"><a xlink:href="src/stores/videosStore.ts" xlink:title="videosStore.ts">
<path fill="#ddfeff" stroke="black" d="M351.21,-121.62C351.21,-121.62 289.54,-121.62 289.54,-121.62 286.33,-121.62 283.12,-118.42 283.12,-115.21 283.12,-115.21 283.12,-108.79 283.12,-108.79 283.12,-105.58 286.33,-102.38 289.54,-102.38 289.54,-102.38 351.21,-102.38 351.21,-102.38 354.42,-102.38 357.62,-105.58 357.62,-108.79 357.62,-108.79 357.62,-115.21 357.62,-115.21 357.62,-118.42 354.42,-121.62 351.21,-121.62"/>
<text text-anchor="start" x="291.12" y="-109.08" font-family="Helvetica,sans-Serif" font-size="9.00">videosStore.ts</text>
</a>
</g>
</g>
<!-- src/components/VideoCard.vue&#45;&gt;src/stores/videosStore.ts -->
<g id="edge1" class="edge">
<title>src/components/VideoCard.vue&#45;&gt;src/stores/videosStore.ts</title>
<path fill="none" stroke="#000000" stroke-width="2" stroke-opacity="0.200000" d="M231.49,-48.52C241.85,-50.75 252.83,-54.06 262.25,-59 279.48,-68.03 295.38,-83.63 306,-95.58"/>
<polygon fill="#000000" fill-opacity="0.200000" stroke="#000000" stroke-width="2" stroke-opacity="0.200000" points="304.14,-96.64 309.64,-99.82 307.33,-93.9 304.14,-96.64"/>
</g>
<!-- src/stores/videosStore.ts&#45;&gt;src/application/index.ts -->
<g id="edge4" class="edge">
<title>src/stores/videosStore.ts&#45;&gt;src/application/index.ts</title>
<path fill="none" stroke="#000000" stroke-width="2" stroke-opacity="0.200000" d="M357.91,-112C364.23,-112 370.8,-112 377.09,-112"/>
<polygon fill="#000000" fill-opacity="0.200000" stroke="#000000" stroke-width="2" stroke-opacity="0.200000" points="377.02,-114.1 383.02,-112 377.02,-109.9 377.02,-114.1"/>
</g>
<!-- src/components/inputs/FileInput.vue -->
<g id="node4" class="node">
<title>src/components/inputs/FileInput.vue</title>
<g id="a_node4"><a xlink:href="src/components/inputs/FileInput.vue" xlink:title="FileInput.vue">
<path fill="#41f083" stroke="black" d="M220.71,-89.62C220.71,-89.62 165.79,-89.62 165.79,-89.62 162.58,-89.62 159.38,-86.42 159.38,-83.21 159.38,-83.21 159.38,-76.79 159.38,-76.79 159.38,-73.58 162.58,-70.38 165.79,-70.38 165.79,-70.38 220.71,-70.38 220.71,-70.38 223.92,-70.38 227.12,-73.58 227.12,-76.79 227.12,-76.79 227.12,-83.21 227.12,-83.21 227.12,-86.42 223.92,-89.62 220.71,-89.62"/>
<text text-anchor="start" x="167.38" y="-77.08" font-family="Helvetica,sans-Serif" font-size="9.00">FileInput.vue</text>
</a>
</g>
</g>
<!-- src/components/inputs/FileInput.vue&#45;&gt;src/stores/videosStore.ts -->
<g id="edge2" class="edge">
<title>src/components/inputs/FileInput.vue&#45;&gt;src/stores/videosStore.ts</title>
<path fill="none" stroke="#000000" stroke-width="2" stroke-opacity="0.200000" d="M227.45,-88.49C241.87,-92.18 258.98,-96.55 274.5,-100.52"/>
<polygon fill="#000000" fill-opacity="0.200000" stroke="#000000" stroke-width="2" stroke-opacity="0.200000" points="273.67,-102.48 280,-101.93 274.71,-98.41 273.67,-102.48"/>
</g>
<!-- src/components/utils/DiagnosticsPanel.vue -->
<g id="node5" class="node">
<title>src/components/utils/DiagnosticsPanel.vue</title>
<g id="a_node5"><a xlink:href="src/components/utils/DiagnosticsPanel.vue" xlink:title="DiagnosticsPanel.vue">
<path fill="#41f083" stroke="black" d="M239.83,-152.62C239.83,-152.62 146.67,-152.62 146.67,-152.62 143.46,-152.62 140.25,-149.42 140.25,-146.21 140.25,-146.21 140.25,-139.79 140.25,-139.79 140.25,-136.58 143.46,-133.38 146.67,-133.38 146.67,-133.38 239.83,-133.38 239.83,-133.38 243.04,-133.38 246.25,-136.58 246.25,-139.79 246.25,-139.79 246.25,-146.21 246.25,-146.21 246.25,-149.42 243.04,-152.62 239.83,-152.62"/>
<text text-anchor="start" x="148.25" y="-140.07" font-family="Helvetica,sans-Serif" font-size="9.00">DiagnosticsPanel.vue</text>
</a>
</g>
</g>
<!-- src/stores/appStateStore.ts -->
<g id="node6" class="node">
<title>src/stores/appStateStore.ts</title>
<g id="a_node6"><a xlink:href="src/stores/appStateStore.ts" xlink:title="appStateStore.ts">
<path fill="#ddfeff" stroke="black" d="M356.08,-152.62C356.08,-152.62 284.67,-152.62 284.67,-152.62 281.46,-152.62 278.25,-149.42 278.25,-146.21 278.25,-146.21 278.25,-139.79 278.25,-139.79 278.25,-136.58 281.46,-133.38 284.67,-133.38 284.67,-133.38 356.08,-133.38 356.08,-133.38 359.29,-133.38 362.5,-136.58 362.5,-139.79 362.5,-139.79 362.5,-146.21 362.5,-146.21 362.5,-149.42 359.29,-152.62 356.08,-152.62"/>
<text text-anchor="start" x="286.25" y="-140.07" font-family="Helvetica,sans-Serif" font-size="9.00">appStateStore.ts</text>
</a>
</g>
</g>
<!-- src/components/utils/DiagnosticsPanel.vue&#45;&gt;src/stores/appStateStore.ts -->
<g id="edge3" class="edge">
<title>src/components/utils/DiagnosticsPanel.vue&#45;&gt;src/stores/appStateStore.ts</title>
<path fill="none" stroke="#000000" stroke-width="2" stroke-opacity="0.200000" d="M246.59,-143C254.1,-143 261.81,-143 269.27,-143"/>
<polygon fill="#000000" fill-opacity="0.200000" stroke="#000000" stroke-width="2" stroke-opacity="0.200000" points="268.87,-145.1 274.87,-143 268.87,-140.9 268.87,-145.1"/>
</g>
<!-- src/views/NavBar.vue -->
<g id="node7" class="node">
<title>src/views/NavBar.vue</title>
<g id="a_node7"><a xlink:href="src/views/NavBar.vue" xlink:title="NavBar.vue">
<path fill="#41f083" stroke="black" d="M90.96,-137.62C90.96,-137.62 41.29,-137.62 41.29,-137.62 38.08,-137.62 34.88,-134.42 34.88,-131.21 34.88,-131.21 34.88,-124.79 34.88,-124.79 34.88,-121.58 38.08,-118.38 41.29,-118.38 41.29,-118.38 90.96,-118.38 90.96,-118.38 94.17,-118.38 97.38,-121.58 97.38,-124.79 97.38,-124.79 97.38,-131.21 97.38,-131.21 97.38,-134.42 94.17,-137.62 90.96,-137.62"/>
<text text-anchor="start" x="42.88" y="-125.08" font-family="Helvetica,sans-Serif" font-size="9.00">NavBar.vue</text>
</a>
</g>
</g>
<!-- src/views/NavBar.vue&#45;&gt;src/stores/videosStore.ts -->
<g id="edge7" class="edge">
<title>src/views/NavBar.vue&#45;&gt;src/stores/videosStore.ts</title>
<path fill="none" stroke="#000000" stroke-width="2" stroke-opacity="0.200000" d="M69.01,-118.17C73.77,-96.36 88.57,-44.21 124.25,-23 176.97,8.34 208.43,6.41 262.25,-23 289.62,-37.95 305.82,-72.25 313.62,-93.63"/>
<polygon fill="#000000" fill-opacity="0.200000" stroke="#000000" stroke-width="2" stroke-opacity="0.200000" points="311.63,-94.31 315.56,-99.31 315.61,-92.95 311.63,-94.31"/>
</g>
<!-- src/views/NavBar.vue&#45;&gt;src/components/inputs/FileInput.vue -->
<g id="edge5" class="edge">
<title>src/views/NavBar.vue&#45;&gt;src/components/inputs/FileInput.vue</title>
<path fill="none" stroke="#000000" stroke-width="2" stroke-opacity="0.200000" d="M93.36,-117.94C112.04,-110.77 137.34,-101.06 157.68,-93.26"/>
<polygon fill="#000000" fill-opacity="0.200000" stroke="#000000" stroke-width="2" stroke-opacity="0.200000" points="158.38,-95.24 163.23,-91.13 156.87,-91.32 158.38,-95.24"/>
</g>
<!-- src/views/NavBar.vue&#45;&gt;src/stores/appStateStore.ts -->
<g id="edge6" class="edge">
<title>src/views/NavBar.vue&#45;&gt;src/stores/appStateStore.ts</title>
<path fill="none" stroke="#000000" stroke-width="2" stroke-opacity="0.200000" d="M97.81,-131.94C104.7,-134.18 111.4,-137.65 116.25,-143 128.42,-156.44 110.23,-171.51 124.25,-183 171.68,-221.88 203.76,-201.44 262.25,-183 277.45,-178.21 292.12,-167.77 302.79,-158.76"/>
<polygon fill="#000000" fill-opacity="0.200000" stroke="#000000" stroke-width="2" stroke-opacity="0.200000" points="304.12,-160.38 307.22,-154.84 301.34,-157.24 304.12,-160.38"/>
</g>
<!-- src/views/VideoGallery.vue -->
<g id="node8" class="node">
<title>src/views/VideoGallery.vue</title>
<g id="a_node8"><a xlink:href="src/views/VideoGallery.vue" xlink:title="VideoGallery.vue">
<path fill="#41f083" stroke="black" d="M101.83,-168.62C101.83,-168.62 30.42,-168.62 30.42,-168.62 27.21,-168.62 24,-165.42 24,-162.21 24,-162.21 24,-155.79 24,-155.79 24,-152.58 27.21,-149.38 30.42,-149.38 30.42,-149.38 101.83,-149.38 101.83,-149.38 105.04,-149.38 108.25,-152.58 108.25,-155.79 108.25,-155.79 108.25,-162.21 108.25,-162.21 108.25,-165.42 105.04,-168.62 101.83,-168.62"/>
<text text-anchor="start" x="32" y="-156.07" font-family="Helvetica,sans-Serif" font-size="9.00">VideoGallery.vue</text>
</a>
</g>
</g>
<!-- src/views/VideoGallery.vue&#45;&gt;src/components/VideoCard.vue -->
<g id="edge8" class="edge">
<title>src/views/VideoGallery.vue&#45;&gt;src/components/VideoCard.vue</title>
<path fill="none" stroke="#000000" stroke-width="2" stroke-opacity="0.200000" d="M108.67,-150.61C111.52,-148.8 114.11,-146.63 116.25,-144 128.24,-129.3 111.69,-73.22 124.25,-59 129.95,-52.55 137.75,-48.52 146.03,-46.08"/>
<polygon fill="#000000" fill-opacity="0.200000" stroke="#000000" stroke-width="2" stroke-opacity="0.200000" points="146.45,-48.14 151.82,-44.74 145.5,-44.04 146.45,-48.14"/>
</g>
<!-- src/views/VideoGallery.vue&#45;&gt;src/stores/videosStore.ts -->
<g id="edge10" class="edge">
<title>src/views/VideoGallery.vue&#45;&gt;src/stores/videosStore.ts</title>
<path fill="none" stroke="#000000" stroke-width="2" stroke-opacity="0.200000" d="M85.06,-169.11C122.84,-188.9 211.33,-227.17 262.25,-183 281.24,-166.53 253.9,-146.1 270.25,-127 271.72,-125.28 273.38,-123.76 275.19,-122.4"/>
<polygon fill="#000000" fill-opacity="0.200000" stroke="#000000" stroke-width="2" stroke-opacity="0.200000" points="275.99,-124.37 280.1,-119.52 273.86,-120.75 275.99,-124.37"/>
</g>
<!-- src/views/VideoGallery.vue&#45;&gt;src/stores/appStateStore.ts -->
<g id="edge9" class="edge">
<title>src/views/VideoGallery.vue&#45;&gt;src/stores/appStateStore.ts</title>
<path fill="none" stroke="#000000" stroke-width="2" stroke-opacity="0.200000" d="M71.12,-168.9C78.6,-185.93 96.53,-220.27 124.25,-234 179.21,-261.23 208.58,-263.68 262.25,-234 290.1,-218.6 306.2,-183.3 313.85,-161.47"/>
<polygon fill="#000000" fill-opacity="0.200000" stroke="#000000" stroke-width="2" stroke-opacity="0.200000" points="315.79,-162.27 315.67,-155.92 311.8,-160.96 315.79,-162.27"/>
</g>
</g>
</svg>
