<?xml version="1.0" encoding="UTF-8" standalone="no"?>
<!DOCTYPE svg PUBLIC "-//W3C//DTD SVG 1.1//EN"
 "http://www.w3.org/Graphics/SVG/1.1/DTD/svg11.dtd">
<!-- Generated by graphviz version 9.0.0 (20230911.1827)
 -->
<!-- Title: dependency&#45;cruiser output Pages: 1 -->
<svg width="473pt" height="250pt"
 viewBox="0.00 0.00 472.50 250.00" xmlns="http://www.w3.org/2000/svg" xmlns:xlink="http://www.w3.org/1999/xlink">
<g id="graph0" class="graph" transform="scale(1 1) rotate(0) translate(4 246)">
<title>dependency&#45;cruiser output</title>
<polygon fill="white" stroke="none" points="-4,4 -4,-246 468.5,-246 468.5,4 -4,4"/>
<g id="clust1" class="cluster">
<title>cluster_src</title>
<path fill="#ffffff" stroke="black" stroke-width="2" d="M20,-8C20,-8 444.5,-8 444.5,-8 450.5,-8 456.5,-14 456.5,-20 456.5,-20 456.5,-222 456.5,-222 456.5,-228 450.5,-234 444.5,-234 444.5,-234 20,-234 20,-234 14,-234 8,-228 8,-222 8,-222 8,-20 8,-20 8,-14 14,-8 20,-8"/>
<text text-anchor="middle" x="232.25" y="-221.45" font-family="Helvetica,sans-Serif" font-weight="bold" font-size="9.00">src</text>
</g>
<g id="clust2" class="cluster">
<title>cluster_src/components</title>
<path fill="#ffffff" stroke="black" stroke-width="2" d="M136.25,-16C136.25,-16 250.25,-16 250.25,-16 256.25,-16 262.25,-22 262.25,-28 262.25,-28 262.25,-157 262.25,-157 262.25,-163 256.25,-169 250.25,-169 250.25,-169 136.25,-169 136.25,-169 130.25,-169 124.25,-163 124.25,-157 124.25,-157 124.25,-28 124.25,-28 124.25,-22 130.25,-16 136.25,-16"/>
<text text-anchor="middle" x="193.25" y="-156.45" font-family="Helvetica,sans-Serif" font-weight="bold" font-size="9.00">components</text>
</g>
<g id="clust3" class="cluster">
<title>cluster_src/components/inputs</title>
<path fill="#ffffff" stroke="black" stroke-width="2" d="M151,-24C151,-24 235.5,-24 235.5,-24 241.5,-24 247.5,-30 247.5,-36 247.5,-36 247.5,-67 247.5,-67 247.5,-73 241.5,-79 235.5,-79 235.5,-79 151,-79 151,-79 145,-79 139,-73 139,-67 139,-67 139,-36 139,-36 139,-30 145,-24 151,-24"/>
<text text-anchor="middle" x="193.25" y="-66.45" font-family="Helvetica,sans-Serif" font-weight="bold" font-size="9.00">inputs</text>
</g>
<g id="clust4" class="cluster">
<title>cluster_src/components/utils</title>
<path fill="#ffffff" stroke="black" stroke-width="2" d="M144.25,-87C144.25,-87 242.25,-87 242.25,-87 248.25,-87 254.25,-93 254.25,-99 254.25,-99 254.25,-130 254.25,-130 254.25,-136 248.25,-142 242.25,-142 242.25,-142 144.25,-142 144.25,-142 138.25,-142 132.25,-136 132.25,-130 132.25,-130 132.25,-99 132.25,-99 132.25,-93 138.25,-87 144.25,-87"/>
<text text-anchor="middle" x="193.25" y="-129.45" font-family="Helvetica,sans-Serif" font-weight="bold" font-size="9.00">utils</text>
</g>
<g id="clust5" class="cluster">
<title>cluster_src/services</title>
<path fill="#ffffff" stroke="black" stroke-width="2" d="M390.5,-89C390.5,-89 436.5,-89 436.5,-89 442.5,-89 448.5,-95 448.5,-101 448.5,-101 448.5,-132 448.5,-132 448.5,-138 442.5,-144 436.5,-144 436.5,-144 390.5,-144 390.5,-144 384.5,-144 378.5,-138 378.5,-132 378.5,-132 378.5,-101 378.5,-101 378.5,-95 384.5,-89 390.5,-89"/>
<text text-anchor="middle" x="413.5" y="-131.45" font-family="Helvetica,sans-Serif" font-weight="bold" font-size="9.00">services</text>
</g>
<g id="clust6" class="cluster">
<title>cluster_src/stores</title>
<path fill="#ffffff" stroke="black" stroke-width="2" d="M282.25,-104C282.25,-104 358.5,-104 358.5,-104 364.5,-104 370.5,-110 370.5,-116 370.5,-116 370.5,-178 370.5,-178 370.5,-184 364.5,-190 358.5,-190 358.5,-190 282.25,-190 282.25,-190 276.25,-190 270.25,-184 270.25,-178 270.25,-178 270.25,-116 270.25,-116 270.25,-110 276.25,-104 282.25,-104"/>
<text text-anchor="middle" x="320.38" y="-177.45" font-family="Helvetica,sans-Serif" font-weight="bold" font-size="9.00">stores</text>
</g>
<g id="clust7" class="cluster">
<title>cluster_src/views</title>
<path fill="#ffffff" stroke="black" stroke-width="2" d="M28,-121C28,-121 104.25,-121 104.25,-121 110.25,-121 116.25,-127 116.25,-133 116.25,-133 116.25,-195 116.25,-195 116.25,-201 110.25,-207 104.25,-207 104.25,-207 28,-207 28,-207 22,-207 16,-201 16,-195 16,-195 16,-133 16,-133 16,-127 22,-121 28,-121"/>
<text text-anchor="middle" x="66.12" y="-194.45" font-family="Helvetica,sans-Serif" font-weight="bold" font-size="9.00">views</text>
</g>
<!-- src/components/inputs/FolderSelector.vue -->
<g id="node1" class="node">
<title>src/components/inputs/FolderSelector.vue</title>
<g id="a_node1"><a xlink:href="src/components/inputs/FolderSelector.vue" xlink:title="FolderSelector.vue">
<path fill="#41f083" stroke="black" d="M233.08,-51.62C233.08,-51.62 153.42,-51.62 153.42,-51.62 150.21,-51.62 147,-48.42 147,-45.21 147,-45.21 147,-38.79 147,-38.79 147,-35.58 150.21,-32.38 153.42,-32.38 153.42,-32.38 233.08,-32.38 233.08,-32.38 236.29,-32.38 239.5,-35.58 239.5,-38.79 239.5,-38.79 239.5,-45.21 239.5,-45.21 239.5,-48.42 236.29,-51.62 233.08,-51.62"/>
<text text-anchor="start" x="155" y="-39.08" font-family="Helvetica,sans-Serif" font-size="9.00">FolderSelector.vue</text>
</a>
</g>
</g>
<!-- src/services/index.ts -->
<g id="node2" class="node">
<title>src/services/index.ts</title>
<g id="a_node2"><a xlink:href="src/services/index.ts" xlink:title="index.ts">
<path fill="#ddfeff" stroke="black" d="M434.08,-116.62C434.08,-116.62 392.92,-116.62 392.92,-116.62 389.71,-116.62 386.5,-113.42 386.5,-110.21 386.5,-110.21 386.5,-103.79 386.5,-103.79 386.5,-100.58 389.71,-97.38 392.92,-97.38 392.92,-97.38 434.08,-97.38 434.08,-97.38 437.29,-97.38 440.5,-100.58 440.5,-103.79 440.5,-103.79 440.5,-110.21 440.5,-110.21 440.5,-113.42 437.29,-116.62 434.08,-116.62"/>
<text text-anchor="start" x="397.75" y="-104.08" font-family="Helvetica,sans-Serif" font-size="9.00">index.ts</text>
</a>
</g>
</g>
<!-- src/components/inputs/FolderSelector.vue&#45;&gt;src/services/index.ts -->
<g id="edge1" class="edge">
<title>src/components/inputs/FolderSelector.vue&#45;&gt;src/services/index.ts</title>
<path fill="none" stroke="#000000" stroke-width="2" stroke-opacity="0.200000" d="M227.87,-52.01C268.42,-64.09 336.25,-84.29 377.43,-96.56"/>
<polygon fill="#000000" fill-opacity="0.200000" stroke="#000000" stroke-width="2" stroke-opacity="0.200000" points="376.8,-98.56 383.15,-98.26 378,-94.53 376.8,-98.56"/>
</g>
<!-- src/stores/videosStore.ts -->
<g id="node3" class="node">
<title>src/stores/videosStore.ts</title>
<g id="a_node3"><a xlink:href="src/stores/videosStore.ts" xlink:title="videosStore.ts">
<path fill="#ddfeff" stroke="black" d="M351.21,-162.62C351.21,-162.62 289.54,-162.62 289.54,-162.62 286.33,-162.62 283.12,-159.42 283.12,-156.21 283.12,-156.21 283.12,-149.79 283.12,-149.79 283.12,-146.58 286.33,-143.38 289.54,-143.38 289.54,-143.38 351.21,-143.38 351.21,-143.38 354.42,-143.38 357.62,-146.58 357.62,-149.79 357.62,-149.79 357.62,-156.21 357.62,-156.21 357.62,-159.42 354.42,-162.62 351.21,-162.62"/>
<text text-anchor="start" x="291.12" y="-150.07" font-family="Helvetica,sans-Serif" font-size="9.00">videosStore.ts</text>
</a>
</g>
</g>
<!-- src/components/inputs/FolderSelector.vue&#45;&gt;src/stores/videosStore.ts -->
<g id="edge2" class="edge">
<title>src/components/inputs/FolderSelector.vue&#45;&gt;src/stores/videosStore.ts</title>
<path fill="none" stroke="#000000" stroke-width="2" stroke-opacity="0.200000" d="M221.27,-52.03C235.75,-58.83 252.56,-69.28 262.25,-84 275.59,-104.26 254.42,-119.61 270.25,-138 271.73,-139.71 273.39,-141.24 275.2,-142.59"/>
<polygon fill="#000000" fill-opacity="0.200000" stroke="#000000" stroke-width="2" stroke-opacity="0.200000" points="273.88,-144.25 280.12,-145.47 276,-140.62 273.88,-144.25"/>
</g>
<!-- src/stores/videosStore.ts&#45;&gt;src/services/index.ts -->
<g id="edge4" class="edge">
<title>src/stores/videosStore.ts&#45;&gt;src/services/index.ts</title>
<path fill="none" stroke="#000000" stroke-width="2" stroke-opacity="0.200000" d="M357.87,-143.39C362.22,-141.8 366.52,-140 370.5,-138 378.88,-133.78 387.35,-127.91 394.46,-122.41"/>
<polygon fill="#000000" fill-opacity="0.200000" stroke="#000000" stroke-width="2" stroke-opacity="0.200000" points="395.35,-124.39 398.72,-119 392.72,-121.11 395.35,-124.39"/>
</g>
<!-- src/components/utils/DiagnosticsPanel.vue -->
<g id="node4" class="node">
<title>src/components/utils/DiagnosticsPanel.vue</title>
<g id="a_node4"><a xlink:href="src/components/utils/DiagnosticsPanel.vue" xlink:title="DiagnosticsPanel.vue">
<path fill="#41f083" stroke="black" d="M239.83,-114.62C239.83,-114.62 146.67,-114.62 146.67,-114.62 143.46,-114.62 140.25,-111.42 140.25,-108.21 140.25,-108.21 140.25,-101.79 140.25,-101.79 140.25,-98.58 143.46,-95.38 146.67,-95.38 146.67,-95.38 239.83,-95.38 239.83,-95.38 243.04,-95.38 246.25,-98.58 246.25,-101.79 246.25,-101.79 246.25,-108.21 246.25,-108.21 246.25,-111.42 243.04,-114.62 239.83,-114.62"/>
<text text-anchor="start" x="148.25" y="-102.08" font-family="Helvetica,sans-Serif" font-size="9.00">DiagnosticsPanel.vue</text>
</a>
</g>
</g>
<!-- src/stores/appStateStore.ts -->
<g id="node5" class="node">
<title>src/stores/appStateStore.ts</title>
<g id="a_node5"><a xlink:href="src/stores/appStateStore.ts" xlink:title="appStateStore.ts">
<path fill="#ddfeff" stroke="black" d="M356.08,-131.62C356.08,-131.62 284.67,-131.62 284.67,-131.62 281.46,-131.62 278.25,-128.42 278.25,-125.21 278.25,-125.21 278.25,-118.79 278.25,-118.79 278.25,-115.58 281.46,-112.38 284.67,-112.38 284.67,-112.38 356.08,-112.38 356.08,-112.38 359.29,-112.38 362.5,-115.58 362.5,-118.79 362.5,-118.79 362.5,-125.21 362.5,-125.21 362.5,-128.42 359.29,-131.62 356.08,-131.62"/>
<text text-anchor="start" x="286.25" y="-119.08" font-family="Helvetica,sans-Serif" font-size="9.00">appStateStore.ts</text>
</a>
</g>
</g>
<!-- src/components/utils/DiagnosticsPanel.vue&#45;&gt;src/stores/appStateStore.ts -->
<g id="edge3" class="edge">
<title>src/components/utils/DiagnosticsPanel.vue&#45;&gt;src/stores/appStateStore.ts</title>
<path fill="none" stroke="#000000" stroke-width="2" stroke-opacity="0.200000" d="M246.59,-112.11C254.1,-113.13 261.81,-114.18 269.27,-115.19"/>
<polygon fill="#000000" fill-opacity="0.200000" stroke="#000000" stroke-width="2" stroke-opacity="0.200000" points="268.67,-117.23 274.9,-115.96 269.23,-113.07 268.67,-117.23"/>
</g>
<!-- src/views/NavBar.vue -->
<g id="node6" class="node">
<title>src/views/NavBar.vue</title>
<g id="a_node6"><a xlink:href="src/views/NavBar.vue" xlink:title="NavBar.vue">
<path fill="#41f083" stroke="black" d="M90.96,-148.62C90.96,-148.62 41.29,-148.62 41.29,-148.62 38.08,-148.62 34.88,-145.42 34.88,-142.21 34.88,-142.21 34.88,-135.79 34.88,-135.79 34.88,-132.58 38.08,-129.38 41.29,-129.38 41.29,-129.38 90.96,-129.38 90.96,-129.38 94.17,-129.38 97.38,-132.58 97.38,-135.79 97.38,-135.79 97.38,-142.21 97.38,-142.21 97.38,-145.42 94.17,-148.62 90.96,-148.62"/>
<text text-anchor="start" x="42.88" y="-136.07" font-family="Helvetica,sans-Serif" font-size="9.00">NavBar.vue</text>
</a>
</g>
</g>
<!-- src/views/NavBar.vue&#45;&gt;src/components/inputs/FolderSelector.vue -->
<g id="edge5" class="edge">
<title>src/views/NavBar.vue&#45;&gt;src/components/inputs/FolderSelector.vue</title>
<path fill="none" stroke="#000000" stroke-width="2" stroke-opacity="0.200000" d="M76.26,-129C87.09,-117.43 105.98,-98.18 124.25,-84 137.32,-73.86 152.97,-64.05 165.96,-56.47"/>
<polygon fill="#000000" fill-opacity="0.200000" stroke="#000000" stroke-width="2" stroke-opacity="0.200000" points="166.87,-58.36 171.03,-53.56 164.78,-54.72 166.87,-58.36"/>
</g>
<!-- src/views/NavBar.vue&#45;&gt;src/stores/videosStore.ts -->
<g id="edge7" class="edge">
<title>src/views/NavBar.vue&#45;&gt;src/stores/videosStore.ts</title>
<path fill="none" stroke="#000000" stroke-width="2" stroke-opacity="0.200000" d="M97.77,-143.3C104.58,-145.54 111.25,-148.91 116.25,-154 125.32,-163.23 113.92,-174.21 124.25,-182 174.79,-220.12 254.08,-188.07 294.25,-167.31"/>
<polygon fill="#000000" fill-opacity="0.200000" stroke="#000000" stroke-width="2" stroke-opacity="0.200000" points="295.22,-169.17 299.53,-164.5 293.25,-165.46 295.22,-169.17"/>
</g>
<!-- src/views/NavBar.vue&#45;&gt;src/stores/appStateStore.ts -->
<g id="edge6" class="edge">
<title>src/views/NavBar.vue&#45;&gt;src/stores/appStateStore.ts</title>
<path fill="none" stroke="#000000" stroke-width="2" stroke-opacity="0.200000" d="M97.59,-147.4C137.2,-156.69 207.77,-167.57 262.25,-145 266.9,-143.08 265.94,-139.59 270.25,-137 270.82,-136.66 271.41,-136.32 271.99,-135.99"/>
<polygon fill="#000000" fill-opacity="0.200000" stroke="#000000" stroke-width="2" stroke-opacity="0.200000" points="272.8,-137.93 277.28,-133.42 270.97,-134.15 272.8,-137.93"/>
</g>
<!-- src/views/VideoGallery.vue -->
<g id="node7" class="node">
<title>src/views/VideoGallery.vue</title>
<g id="a_node7"><a xlink:href="src/views/VideoGallery.vue" xlink:title="VideoGallery.vue">
<path fill="#41f083" stroke="black" d="M101.83,-179.62C101.83,-179.62 30.42,-179.62 30.42,-179.62 27.21,-179.62 24,-176.42 24,-173.21 24,-173.21 24,-166.79 24,-166.79 24,-163.58 27.21,-160.38 30.42,-160.38 30.42,-160.38 101.83,-160.38 101.83,-160.38 105.04,-160.38 108.25,-163.58 108.25,-166.79 108.25,-166.79 108.25,-173.21 108.25,-173.21 108.25,-176.42 105.04,-179.62 101.83,-179.62"/>
<text text-anchor="start" x="32" y="-167.07" font-family="Helvetica,sans-Serif" font-size="9.00">VideoGallery.vue</text>
</a>
</g>
</g>
<!-- src/views/VideoGallery.vue&#45;&gt;src/stores/videosStore.ts -->
<g id="edge8" class="edge">
<title>src/views/VideoGallery.vue&#45;&gt;src/stores/videosStore.ts</title>
<path fill="none" stroke="#000000" stroke-width="2" stroke-opacity="0.200000" d="M85.82,-180.08C96.69,-185.37 110.86,-191.3 124.25,-194 184.37,-206.12 203.86,-212.78 262.25,-194 277.69,-189.03 292.5,-178.17 303.16,-168.88"/>
<polygon fill="#000000" fill-opacity="0.200000" stroke="#000000" stroke-width="2" stroke-opacity="0.200000" points="304.28,-170.7 307.3,-165.11 301.45,-167.6 304.28,-170.7"/>
</g>
</g>
</svg>
