<?xml version="1.0" encoding="UTF-8" standalone="no"?>
<!DOCTYPE svg PUBLIC "-//W3C//DTD SVG 1.1//EN"
 "http://www.w3.org/Graphics/SVG/1.1/DTD/svg11.dtd">
<!-- Generated by graphviz version 9.0.0 (20230911.1827)
 -->
<!-- Title: dependency&#45;cruiser output Pages: 1 -->
<svg width="489pt" height="338pt"
 viewBox="0.00 0.00 488.50 338.00" xmlns="http://www.w3.org/2000/svg" xmlns:xlink="http://www.w3.org/1999/xlink">
<g id="graph0" class="graph" transform="scale(1 1) rotate(0) translate(4 334)">
<title>dependency&#45;cruiser output</title>
<polygon fill="white" stroke="none" points="-4,4 -4,-334 484.5,-334 484.5,4 -4,4"/>
<g id="clust1" class="cluster">
<title>cluster_src</title>
<path fill="#ffffff" stroke="black" stroke-width="2" d="M20,-8C20,-8 460.5,-8 460.5,-8 466.5,-8 472.5,-14 472.5,-20 472.5,-20 472.5,-310 472.5,-310 472.5,-316 466.5,-322 460.5,-322 460.5,-322 20,-322 20,-322 14,-322 8,-316 8,-310 8,-310 8,-20 8,-20 8,-14 14,-8 20,-8"/>
<text text-anchor="middle" x="240.25" y="-309.45" font-family="Helvetica,sans-Serif" font-weight="bold" font-size="9.00">src</text>
</g>
<g id="clust2" class="cluster">
<title>cluster_src/application</title>
<path fill="#ffffff" stroke="black" stroke-width="2" d="M398.5,-240C398.5,-240 444.5,-240 444.5,-240 450.5,-240 456.5,-246 456.5,-252 456.5,-252 456.5,-283 456.5,-283 456.5,-289 450.5,-295 444.5,-295 444.5,-295 398.5,-295 398.5,-295 392.5,-295 386.5,-289 386.5,-283 386.5,-283 386.5,-252 386.5,-252 386.5,-246 392.5,-240 398.5,-240"/>
<text text-anchor="middle" x="421.5" y="-282.45" font-family="Helvetica,sans-Serif" font-weight="bold" font-size="9.00">application</text>
</g>
<g id="clust3" class="cluster">
<title>cluster_src/components</title>
<path fill="#ffffff" stroke="black" stroke-width="2" d="M136.25,-16C136.25,-16 250.25,-16 250.25,-16 256.25,-16 262.25,-22 262.25,-28 262.25,-28 262.25,-185 262.25,-185 262.25,-191 256.25,-197 250.25,-197 250.25,-197 136.25,-197 136.25,-197 130.25,-197 124.25,-191 124.25,-185 124.25,-185 124.25,-28 124.25,-28 124.25,-22 130.25,-16 136.25,-16"/>
<text text-anchor="middle" x="193.25" y="-184.45" font-family="Helvetica,sans-Serif" font-weight="bold" font-size="9.00">components</text>
</g>
<g id="clust4" class="cluster">
<title>cluster_src/components/inputs</title>
<path fill="#ffffff" stroke="black" stroke-width="2" d="M163.38,-115C163.38,-115 223.12,-115 223.12,-115 229.12,-115 235.12,-121 235.12,-127 235.12,-127 235.12,-158 235.12,-158 235.12,-164 229.12,-170 223.12,-170 223.12,-170 163.38,-170 163.38,-170 157.38,-170 151.38,-164 151.38,-158 151.38,-158 151.38,-127 151.38,-127 151.38,-121 157.38,-115 163.38,-115"/>
<text text-anchor="middle" x="193.25" y="-157.45" font-family="Helvetica,sans-Serif" font-weight="bold" font-size="9.00">inputs</text>
</g>
<g id="clust5" class="cluster">
<title>cluster_src/components/utils</title>
<path fill="#ffffff" stroke="black" stroke-width="2" d="M144.25,-52C144.25,-52 242.25,-52 242.25,-52 248.25,-52 254.25,-58 254.25,-64 254.25,-64 254.25,-95 254.25,-95 254.25,-101 248.25,-107 242.25,-107 242.25,-107 144.25,-107 144.25,-107 138.25,-107 132.25,-101 132.25,-95 132.25,-95 132.25,-64 132.25,-64 132.25,-58 138.25,-52 144.25,-52"/>
<text text-anchor="middle" x="193.25" y="-94.45" font-family="Helvetica,sans-Serif" font-weight="bold" font-size="9.00">utils</text>
</g>
<g id="clust7" class="cluster">
<title>cluster_src/infrastructure</title>
<path fill="#ffffff" stroke="black" stroke-width="2" d="M390.5,-79C390.5,-79 452.5,-79 452.5,-79 458.5,-79 464.5,-85 464.5,-91 464.5,-91 464.5,-220 464.5,-220 464.5,-226 458.5,-232 452.5,-232 452.5,-232 390.5,-232 390.5,-232 384.5,-232 378.5,-226 378.5,-220 378.5,-220 378.5,-91 378.5,-91 378.5,-85 384.5,-79 390.5,-79"/>
<text text-anchor="middle" x="421.5" y="-219.45" font-family="Helvetica,sans-Serif" font-weight="bold" font-size="9.00">infrastructure</text>
</g>
<g id="clust8" class="cluster">
<title>cluster_src/infrastructure/services</title>
<path fill="#ffffff" stroke="black" stroke-width="2" d="M398.5,-87C398.5,-87 444.5,-87 444.5,-87 450.5,-87 456.5,-93 456.5,-99 456.5,-99 456.5,-130 456.5,-130 456.5,-136 450.5,-142 444.5,-142 444.5,-142 398.5,-142 398.5,-142 392.5,-142 386.5,-136 386.5,-130 386.5,-130 386.5,-99 386.5,-99 386.5,-93 392.5,-87 398.5,-87"/>
<text text-anchor="middle" x="421.5" y="-129.45" font-family="Helvetica,sans-Serif" font-weight="bold" font-size="9.00">services</text>
</g>
<g id="clust9" class="cluster">
<title>cluster_src/infrastructure/video</title>
<path fill="#ffffff" stroke="black" stroke-width="2" d="M398.5,-150C398.5,-150 444.5,-150 444.5,-150 450.5,-150 456.5,-156 456.5,-162 456.5,-162 456.5,-193 456.5,-193 456.5,-199 450.5,-205 444.5,-205 444.5,-205 398.5,-205 398.5,-205 392.5,-205 386.5,-199 386.5,-193 386.5,-193 386.5,-162 386.5,-162 386.5,-156 392.5,-150 398.5,-150"/>
<text text-anchor="middle" x="421.5" y="-192.45" font-family="Helvetica,sans-Serif" font-weight="bold" font-size="9.00">video</text>
</g>
<g id="clust10" class="cluster">
<title>cluster_src/stores</title>
<path fill="#ffffff" stroke="black" stroke-width="2" d="M282.25,-167C282.25,-167 358.5,-167 358.5,-167 364.5,-167 370.5,-173 370.5,-179 370.5,-179 370.5,-241 370.5,-241 370.5,-247 364.5,-253 358.5,-253 358.5,-253 282.25,-253 282.25,-253 276.25,-253 270.25,-247 270.25,-241 270.25,-241 270.25,-179 270.25,-179 270.25,-173 276.25,-167 282.25,-167"/>
<text text-anchor="middle" x="320.38" y="-240.45" font-family="Helvetica,sans-Serif" font-weight="bold" font-size="9.00">stores</text>
</g>
<g id="clust6" class="cluster">
<title>cluster_src/domain</title>
<path fill="#ffffff" stroke="black" stroke-width="2" d="M398.5,-16C398.5,-16 444.5,-16 444.5,-16 450.5,-16 456.5,-22 456.5,-28 456.5,-28 456.5,-59 456.5,-59 456.5,-65 450.5,-71 444.5,-71 444.5,-71 398.5,-71 398.5,-71 392.5,-71 386.5,-65 386.5,-59 386.5,-59 386.5,-28 386.5,-28 386.5,-22 392.5,-16 398.5,-16"/>
<text text-anchor="middle" x="421.5" y="-58.45" font-family="Helvetica,sans-Serif" font-weight="bold" font-size="9.00">domain</text>
</g>
<g id="clust11" class="cluster">
<title>cluster_src/views</title>
<path fill="#ffffff" stroke="black" stroke-width="2" d="M28,-179C28,-179 104.25,-179 104.25,-179 110.25,-179 116.25,-185 116.25,-191 116.25,-191 116.25,-253 116.25,-253 116.25,-259 110.25,-265 104.25,-265 104.25,-265 28,-265 28,-265 22,-265 16,-259 16,-253 16,-253 16,-191 16,-191 16,-185 22,-179 28,-179"/>
<text text-anchor="middle" x="66.12" y="-252.45" font-family="Helvetica,sans-Serif" font-weight="bold" font-size="9.00">views</text>
</g>
<!-- src/application/index.ts -->
<g id="node1" class="node">
<title>src/application/index.ts</title>
<g id="a_node1"><a xlink:href="src/application/index.ts" xlink:title="index.ts">
<path fill="#ddfeff" stroke="black" d="M442.08,-267.62C442.08,-267.62 400.92,-267.62 400.92,-267.62 397.71,-267.62 394.5,-264.42 394.5,-261.21 394.5,-261.21 394.5,-254.79 394.5,-254.79 394.5,-251.58 397.71,-248.38 400.92,-248.38 400.92,-248.38 442.08,-248.38 442.08,-248.38 445.29,-248.38 448.5,-251.58 448.5,-254.79 448.5,-254.79 448.5,-261.21 448.5,-261.21 448.5,-264.42 445.29,-267.62 442.08,-267.62"/>
<text text-anchor="start" x="405.75" y="-255.07" font-family="Helvetica,sans-Serif" font-size="9.00">index.ts</text>
</a>
</g>
</g>
<!-- src/components/VideoCard.vue -->
<g id="node2" class="node">
<title>src/components/VideoCard.vue</title>
<g id="a_node2"><a xlink:href="src/components/VideoCard.vue" xlink:title="VideoCard.vue">
<path fill="#41f083" stroke="black" d="M224.83,-43.62C224.83,-43.62 161.67,-43.62 161.67,-43.62 158.46,-43.62 155.25,-40.42 155.25,-37.21 155.25,-37.21 155.25,-30.79 155.25,-30.79 155.25,-27.58 158.46,-24.38 161.67,-24.38 161.67,-24.38 224.83,-24.38 224.83,-24.38 228.04,-24.38 231.25,-27.58 231.25,-30.79 231.25,-30.79 231.25,-37.21 231.25,-37.21 231.25,-40.42 228.04,-43.62 224.83,-43.62"/>
<text text-anchor="start" x="163.25" y="-31.07" font-family="Helvetica,sans-Serif" font-size="9.00">VideoCard.vue</text>
</a>
</g>
</g>
<!-- src/domain/index.ts -->
<g id="node3" class="node">
<title>src/domain/index.ts</title>
<g id="a_node3"><a xlink:href="src/domain/index.ts" xlink:title="index.ts">
<path fill="#ddfeff" stroke="black" d="M442.08,-43.62C442.08,-43.62 400.92,-43.62 400.92,-43.62 397.71,-43.62 394.5,-40.42 394.5,-37.21 394.5,-37.21 394.5,-30.79 394.5,-30.79 394.5,-27.58 397.71,-24.38 400.92,-24.38 400.92,-24.38 442.08,-24.38 442.08,-24.38 445.29,-24.38 448.5,-27.58 448.5,-30.79 448.5,-30.79 448.5,-37.21 448.5,-37.21 448.5,-40.42 445.29,-43.62 442.08,-43.62"/>
<text text-anchor="start" x="405.75" y="-31.07" font-family="Helvetica,sans-Serif" font-size="9.00">index.ts</text>
</a>
</g>
</g>
<!-- src/components/VideoCard.vue&#45;&gt;src/domain/index.ts -->
<g id="edge1" class="edge">
<title>src/components/VideoCard.vue&#45;&gt;src/domain/index.ts</title>
<path fill="none" stroke="#000000" stroke-opacity="0.200000" d="M231.61,-34C274.74,-34 345.05,-34 386.64,-34"/>
<polygon fill="none" stroke="#000000" stroke-opacity="0.200000" points="386.54,-36.1 392.54,-34 386.54,-31.9 386.54,-36.1"/>
</g>
<!-- src/stores/videosStore.ts -->
<g id="node4" class="node">
<title>src/stores/videosStore.ts</title>
<g id="a_node4"><a xlink:href="src/stores/videosStore.ts" xlink:title="videosStore.ts">
<path fill="#ddfeff" stroke="black" d="M351.21,-194.62C351.21,-194.62 289.54,-194.62 289.54,-194.62 286.33,-194.62 283.12,-191.42 283.12,-188.21 283.12,-188.21 283.12,-181.79 283.12,-181.79 283.12,-178.58 286.33,-175.38 289.54,-175.38 289.54,-175.38 351.21,-175.38 351.21,-175.38 354.42,-175.38 357.62,-178.58 357.62,-181.79 357.62,-181.79 357.62,-188.21 357.62,-188.21 357.62,-191.42 354.42,-194.62 351.21,-194.62"/>
<text text-anchor="start" x="291.12" y="-182.07" font-family="Helvetica,sans-Serif" font-size="9.00">videosStore.ts</text>
</a>
</g>
</g>
<!-- src/components/VideoCard.vue&#45;&gt;src/stores/videosStore.ts -->
<g id="edge2" class="edge">
<title>src/components/VideoCard.vue&#45;&gt;src/stores/videosStore.ts</title>
<path fill="none" stroke="#000000" stroke-width="2" stroke-opacity="0.200000" d="M231.7,-35.81C242.52,-37.94 253.71,-41.88 262.25,-49 298.63,-79.34 312.26,-136.84 317.02,-166.41"/>
<polygon fill="#000000" fill-opacity="0.200000" stroke="#000000" stroke-width="2" stroke-opacity="0.200000" points="314.89,-166.33 317.84,-171.97 319.05,-165.73 314.89,-166.33"/>
</g>
<!-- src/stores/videosStore.ts&#45;&gt;src/application/index.ts -->
<g id="edge7" class="edge">
<title>src/stores/videosStore.ts&#45;&gt;src/application/index.ts</title>
<path fill="none" stroke="#000000" stroke-width="2" stroke-opacity="0.200000" d="M358.1,-193.67C362.45,-195.43 366.69,-197.52 370.5,-200 372.78,-201.49 392.57,-224.77 406.56,-241.37"/>
<polygon fill="#000000" fill-opacity="0.200000" stroke="#000000" stroke-width="2" stroke-opacity="0.200000" points="404.71,-242.44 410.18,-245.68 407.93,-239.74 404.71,-242.44"/>
</g>
<!-- src/stores/videosStore.ts&#45;&gt;src/domain/index.ts -->
<g id="edge8" class="edge">
<title>src/stores/videosStore.ts&#45;&gt;src/domain/index.ts</title>
<path fill="none" stroke="#000000" stroke-opacity="0.200000" d="M326.31,-174.89C335.56,-156.27 356.56,-115.61 378.5,-84 386.96,-71.81 397.74,-59.02 406.26,-49.43"/>
<polygon fill="none" stroke="#000000" stroke-opacity="0.200000" points="407.77,-50.89 410.23,-45.03 404.65,-48.08 407.77,-50.89"/>
</g>
<!-- src/infrastructure/services/index.ts -->
<g id="node8" class="node">
<title>src/infrastructure/services/index.ts</title>
<g id="a_node8"><a xlink:href="src/infrastructure/services/index.ts" xlink:title="index.ts">
<path fill="#ddfeff" stroke="black" d="M442.08,-114.62C442.08,-114.62 400.92,-114.62 400.92,-114.62 397.71,-114.62 394.5,-111.42 394.5,-108.21 394.5,-108.21 394.5,-101.79 394.5,-101.79 394.5,-98.58 397.71,-95.38 400.92,-95.38 400.92,-95.38 442.08,-95.38 442.08,-95.38 445.29,-95.38 448.5,-98.58 448.5,-101.79 448.5,-101.79 448.5,-108.21 448.5,-108.21 448.5,-111.42 445.29,-114.62 442.08,-114.62"/>
<text text-anchor="start" x="405.75" y="-102.08" font-family="Helvetica,sans-Serif" font-size="9.00">index.ts</text>
</a>
</g>
</g>
<!-- src/stores/videosStore.ts&#45;&gt;src/infrastructure/services/index.ts -->
<g id="edge9" class="edge">
<title>src/stores/videosStore.ts&#45;&gt;src/infrastructure/services/index.ts</title>
<path fill="none" stroke="#000000" stroke-width="2" stroke-opacity="0.200000" d="M333.53,-175.19C350.47,-161.52 381.36,-136.59 401.4,-120.41"/>
<polygon fill="#000000" fill-opacity="0.200000" stroke="#000000" stroke-width="2" stroke-opacity="0.200000" points="402.54,-122.19 405.89,-116.79 399.9,-118.93 402.54,-122.19"/>
</g>
<!-- src/infrastructure/video/index.ts -->
<g id="node9" class="node">
<title>src/infrastructure/video/index.ts</title>
<g id="a_node9"><a xlink:href="src/infrastructure/video/index.ts" xlink:title="index.ts">
<path fill="#ddfeff" stroke="black" d="M442.08,-177.62C442.08,-177.62 400.92,-177.62 400.92,-177.62 397.71,-177.62 394.5,-174.42 394.5,-171.21 394.5,-171.21 394.5,-164.79 394.5,-164.79 394.5,-161.58 397.71,-158.38 400.92,-158.38 400.92,-158.38 442.08,-158.38 442.08,-158.38 445.29,-158.38 448.5,-161.58 448.5,-164.79 448.5,-164.79 448.5,-171.21 448.5,-171.21 448.5,-174.42 445.29,-177.62 442.08,-177.62"/>
<text text-anchor="start" x="405.75" y="-165.07" font-family="Helvetica,sans-Serif" font-size="9.00">index.ts</text>
</a>
</g>
</g>
<!-- src/stores/videosStore.ts&#45;&gt;src/infrastructure/video/index.ts -->
<g id="edge10" class="edge">
<title>src/stores/videosStore.ts&#45;&gt;src/infrastructure/video/index.ts</title>
<path fill="none" stroke="#000000" stroke-width="2" stroke-opacity="0.200000" d="M358,-178.72C367.02,-177.17 376.65,-175.52 385.59,-173.99"/>
<polygon fill="#000000" fill-opacity="0.200000" stroke="#000000" stroke-width="2" stroke-opacity="0.200000" points="385.7,-176.1 391.25,-173.02 384.99,-171.96 385.7,-176.1"/>
</g>
<!-- src/components/inputs/FileInput.vue -->
<g id="node5" class="node">
<title>src/components/inputs/FileInput.vue</title>
<g id="a_node5"><a xlink:href="src/components/inputs/FileInput.vue" xlink:title="FileInput.vue">
<path fill="#41f083" stroke="black" d="M220.71,-142.62C220.71,-142.62 165.79,-142.62 165.79,-142.62 162.58,-142.62 159.38,-139.42 159.38,-136.21 159.38,-136.21 159.38,-129.79 159.38,-129.79 159.38,-126.58 162.58,-123.38 165.79,-123.38 165.79,-123.38 220.71,-123.38 220.71,-123.38 223.92,-123.38 227.12,-126.58 227.12,-129.79 227.12,-129.79 227.12,-136.21 227.12,-136.21 227.12,-139.42 223.92,-142.62 220.71,-142.62"/>
<text text-anchor="start" x="167.38" y="-130.07" font-family="Helvetica,sans-Serif" font-size="9.00">FileInput.vue</text>
</a>
</g>
</g>
<!-- src/components/inputs/FileInput.vue&#45;&gt;src/stores/videosStore.ts -->
<g id="edge3" class="edge">
<title>src/components/inputs/FileInput.vue&#45;&gt;src/stores/videosStore.ts</title>
<path fill="none" stroke="#000000" stroke-width="2" stroke-opacity="0.200000" d="M218.38,-143.03C237.94,-151.16 265.68,-162.69 287.14,-171.6"/>
<polygon fill="#000000" fill-opacity="0.200000" stroke="#000000" stroke-width="2" stroke-opacity="0.200000" points="286.18,-173.48 292.53,-173.84 287.79,-169.6 286.18,-173.48"/>
</g>
<!-- src/components/utils/DiagnosticsPanel.vue -->
<g id="node6" class="node">
<title>src/components/utils/DiagnosticsPanel.vue</title>
<g id="a_node6"><a xlink:href="src/components/utils/DiagnosticsPanel.vue" xlink:title="DiagnosticsPanel.vue">
<path fill="#41f083" stroke="black" d="M239.83,-79.62C239.83,-79.62 146.67,-79.62 146.67,-79.62 143.46,-79.62 140.25,-76.42 140.25,-73.21 140.25,-73.21 140.25,-66.79 140.25,-66.79 140.25,-63.58 143.46,-60.38 146.67,-60.38 146.67,-60.38 239.83,-60.38 239.83,-60.38 243.04,-60.38 246.25,-63.58 246.25,-66.79 246.25,-66.79 246.25,-73.21 246.25,-73.21 246.25,-76.42 243.04,-79.62 239.83,-79.62"/>
<text text-anchor="start" x="148.25" y="-67.08" font-family="Helvetica,sans-Serif" font-size="9.00">DiagnosticsPanel.vue</text>
</a>
</g>
</g>
<!-- src/stores/appStateStore.ts -->
<g id="node7" class="node">
<title>src/stores/appStateStore.ts</title>
<g id="a_node7"><a xlink:href="src/stores/appStateStore.ts" xlink:title="appStateStore.ts">
<path fill="#ddfeff" stroke="black" d="M356.08,-225.62C356.08,-225.62 284.67,-225.62 284.67,-225.62 281.46,-225.62 278.25,-222.42 278.25,-219.21 278.25,-219.21 278.25,-212.79 278.25,-212.79 278.25,-209.58 281.46,-206.38 284.67,-206.38 284.67,-206.38 356.08,-206.38 356.08,-206.38 359.29,-206.38 362.5,-209.58 362.5,-212.79 362.5,-212.79 362.5,-219.21 362.5,-219.21 362.5,-222.42 359.29,-225.62 356.08,-225.62"/>
<text text-anchor="start" x="286.25" y="-213.07" font-family="Helvetica,sans-Serif" font-size="9.00">appStateStore.ts</text>
</a>
</g>
</g>
<!-- src/components/utils/DiagnosticsPanel.vue&#45;&gt;src/stores/appStateStore.ts -->
<g id="edge4" class="edge">
<title>src/components/utils/DiagnosticsPanel.vue&#45;&gt;src/stores/appStateStore.ts</title>
<path fill="none" stroke="#000000" stroke-width="2" stroke-opacity="0.200000" d="M221.94,-79.99C236.44,-86.72 253.06,-97.13 262.25,-112 272.69,-128.89 257.73,-185.58 270.25,-201 270.52,-201.33 270.79,-201.65 271.07,-201.97"/>
<polygon fill="#000000" fill-opacity="0.200000" stroke="#000000" stroke-width="2" stroke-opacity="0.200000" points="269.55,-203.43 275.5,-205.67 272.25,-200.21 269.55,-203.43"/>
</g>
<!-- src/components/utils/DiagnosticsPanel.vue&#45;&gt;src/infrastructure/services/index.ts -->
<g id="edge5" class="edge">
<title>src/components/utils/DiagnosticsPanel.vue&#45;&gt;src/infrastructure/services/index.ts</title>
<path fill="none" stroke="#000000" stroke-width="2" stroke-opacity="0.200000" d="M246.72,-78.12C289.51,-84.74 348.72,-93.9 385.8,-99.63"/>
<polygon fill="#000000" fill-opacity="0.200000" stroke="#000000" stroke-width="2" stroke-opacity="0.200000" points="385.03,-101.64 391.28,-100.48 385.67,-97.49 385.03,-101.64"/>
</g>
<!-- src/stores/appStateStore.ts&#45;&gt;src/application/index.ts -->
<g id="edge6" class="edge">
<title>src/stores/appStateStore.ts&#45;&gt;src/application/index.ts</title>
<path fill="none" stroke="#000000" stroke-width="2" stroke-opacity="0.200000" d="M345.12,-226.06C358.14,-231.58 374.46,-238.49 388.59,-244.48"/>
<polygon fill="#000000" fill-opacity="0.200000" stroke="#000000" stroke-width="2" stroke-opacity="0.200000" points="387.48,-246.29 393.82,-246.7 389.11,-242.42 387.48,-246.29"/>
</g>
<!-- src/views/NavBar.vue -->
<g id="node10" class="node">
<title>src/views/NavBar.vue</title>
<g id="a_node10"><a xlink:href="src/views/NavBar.vue" xlink:title="NavBar.vue">
<path fill="#41f083" stroke="black" d="M90.96,-237.62C90.96,-237.62 41.29,-237.62 41.29,-237.62 38.08,-237.62 34.88,-234.42 34.88,-231.21 34.88,-231.21 34.88,-224.79 34.88,-224.79 34.88,-221.58 38.08,-218.38 41.29,-218.38 41.29,-218.38 90.96,-218.38 90.96,-218.38 94.17,-218.38 97.38,-221.58 97.38,-224.79 97.38,-224.79 97.38,-231.21 97.38,-231.21 97.38,-234.42 94.17,-237.62 90.96,-237.62"/>
<text text-anchor="start" x="42.88" y="-225.07" font-family="Helvetica,sans-Serif" font-size="9.00">NavBar.vue</text>
</a>
</g>
</g>
<!-- src/views/NavBar.vue&#45;&gt;src/stores/videosStore.ts -->
<g id="edge13" class="edge">
<title>src/views/NavBar.vue&#45;&gt;src/stores/videosStore.ts</title>
<path fill="none" stroke="#000000" stroke-width="2" stroke-opacity="0.200000" d="M97.55,-222.91C135.95,-216.47 204.01,-205.02 262.25,-195 266.09,-194.34 270.08,-193.65 274.08,-192.95"/>
<polygon fill="#000000" fill-opacity="0.200000" stroke="#000000" stroke-width="2" stroke-opacity="0.200000" points="274.28,-195.05 279.83,-191.95 273.56,-190.91 274.28,-195.05"/>
</g>
<!-- src/views/NavBar.vue&#45;&gt;src/components/inputs/FileInput.vue -->
<g id="edge11" class="edge">
<title>src/views/NavBar.vue&#45;&gt;src/components/inputs/FileInput.vue</title>
<path fill="none" stroke="#000000" stroke-width="2" stroke-opacity="0.200000" d="M97.8,-221.3C104.16,-219.19 110.64,-216.47 116.25,-213 143.05,-196.43 166.79,-168.12 180.34,-150"/>
<polygon fill="#000000" fill-opacity="0.200000" stroke="#000000" stroke-width="2" stroke-opacity="0.200000" points="181.88,-151.46 183.71,-145.37 178.48,-148.98 181.88,-151.46"/>
</g>
<!-- src/views/NavBar.vue&#45;&gt;src/stores/appStateStore.ts -->
<g id="edge12" class="edge">
<title>src/views/NavBar.vue&#45;&gt;src/stores/appStateStore.ts</title>
<path fill="none" stroke="#000000" stroke-width="2" stroke-opacity="0.200000" d="M97.83,-234.38C106.35,-235.88 115.62,-237.25 124.25,-238 185.35,-243.31 201.95,-249.21 262.25,-238 271.75,-236.23 281.71,-232.95 290.6,-229.44"/>
<polygon fill="#000000" fill-opacity="0.200000" stroke="#000000" stroke-width="2" stroke-opacity="0.200000" points="291.22,-231.46 295.96,-227.22 289.61,-227.58 291.22,-231.46"/>
</g>
<!-- src/views/VideoGallery.vue -->
<g id="node11" class="node">
<title>src/views/VideoGallery.vue</title>
<g id="a_node11"><a xlink:href="src/views/VideoGallery.vue" xlink:title="VideoGallery.vue">
<path fill="#41f083" stroke="black" d="M101.83,-206.62C101.83,-206.62 30.42,-206.62 30.42,-206.62 27.21,-206.62 24,-203.42 24,-200.21 24,-200.21 24,-193.79 24,-193.79 24,-190.58 27.21,-187.38 30.42,-187.38 30.42,-187.38 101.83,-187.38 101.83,-187.38 105.04,-187.38 108.25,-190.58 108.25,-193.79 108.25,-193.79 108.25,-200.21 108.25,-200.21 108.25,-203.42 105.04,-206.62 101.83,-206.62"/>
<text text-anchor="start" x="32" y="-194.07" font-family="Helvetica,sans-Serif" font-size="9.00">VideoGallery.vue</text>
</a>
</g>
</g>
<!-- src/views/VideoGallery.vue&#45;&gt;src/components/VideoCard.vue -->
<g id="edge14" class="edge">
<title>src/views/VideoGallery.vue&#45;&gt;src/components/VideoCard.vue</title>
<path fill="none" stroke="#000000" stroke-width="2" stroke-opacity="0.200000" d="M67.85,-186.89C70.35,-159.99 81.01,-86.15 124.25,-49 130.51,-43.62 138.27,-40.04 146.29,-37.69"/>
<polygon fill="#000000" fill-opacity="0.200000" stroke="#000000" stroke-width="2" stroke-opacity="0.200000" points="146.74,-39.74 152.08,-36.3 145.76,-35.66 146.74,-39.74"/>
</g>
<!-- src/views/VideoGallery.vue&#45;&gt;src/stores/videosStore.ts -->
<g id="edge16" class="edge">
<title>src/views/VideoGallery.vue&#45;&gt;src/stores/videosStore.ts</title>
<path fill="none" stroke="#000000" stroke-width="2" stroke-opacity="0.200000" d="M108.5,-195.03C154.06,-192.86 227.09,-189.39 274.14,-187.15"/>
<polygon fill="#000000" fill-opacity="0.200000" stroke="#000000" stroke-width="2" stroke-opacity="0.200000" points="273.98,-189.26 279.88,-186.88 273.78,-185.07 273.98,-189.26"/>
</g>
<!-- src/views/VideoGallery.vue&#45;&gt;src/stores/appStateStore.ts -->
<g id="edge15" class="edge">
<title>src/views/VideoGallery.vue&#45;&gt;src/stores/appStateStore.ts</title>
<path fill="none" stroke="#000000" stroke-width="2" stroke-opacity="0.200000" d="M108.5,-200.12C152.48,-203.43 222.07,-208.67 269.17,-212.22"/>
<polygon fill="#000000" fill-opacity="0.200000" stroke="#000000" stroke-width="2" stroke-opacity="0.200000" points="268.82,-214.3 274.96,-212.65 269.14,-210.11 268.82,-214.3"/>
</g>
</g>
</svg>
