<?xml version="1.0" encoding="UTF-8" standalone="no"?>
<!DOCTYPE svg PUBLIC "-//W3C//DTD SVG 1.1//EN"
 "http://www.w3.org/Graphics/SVG/1.1/DTD/svg11.dtd">
<!-- Generated by graphviz version 2.43.0 (0)
 -->
<!-- Title: dependency&#45;cruiser output Pages: 1 -->
<svg width="503pt" height="280pt"
 viewBox="0.00 0.00 503.00 280.32" xmlns="http://www.w3.org/2000/svg" xmlns:xlink="http://www.w3.org/1999/xlink">
<g id="graph0" class="graph" transform="scale(1 1) rotate(0) translate(4 276.32)">
<title>dependency&#45;cruiser output</title>
<polygon fill="white" stroke="transparent" points="-4,4 -4,-276.32 499,-276.32 499,4 -4,4"/>
<g id="clust1" class="cluster">
<title>cluster_src</title>
<path fill="#ffffff" stroke="black" stroke-width="2" d="M20,-10.32C20,-10.32 477,-10.32 477,-10.32 483,-10.32 489,-16.32 489,-22.32 489,-22.32 489,-252.32 489,-252.32 489,-258.32 483,-264.32 477,-264.32 477,-264.32 20,-264.32 20,-264.32 14,-264.32 8,-258.32 8,-252.32 8,-252.32 8,-22.32 8,-22.32 8,-16.32 14,-10.32 20,-10.32"/>
<text text-anchor="middle" x="248.5" y="-253.12" font-family="Helvetica,sans-Serif" font-weight="bold" font-size="9.00">src</text>
</g>
<g id="clust2" class="cluster">
<title>cluster_src/application</title>
<path fill="#ffffff" stroke="black" stroke-width="2" d="M419,-122.32C419,-122.32 469,-122.32 469,-122.32 475,-122.32 481,-128.32 481,-134.32 481,-134.32 481,-162.32 481,-162.32 481,-168.32 475,-174.32 469,-174.32 469,-174.32 419,-174.32 419,-174.32 413,-174.32 407,-168.32 407,-162.32 407,-162.32 407,-134.32 407,-134.32 407,-128.32 413,-122.32 419,-122.32"/>
<text text-anchor="middle" x="444" y="-163.12" font-family="Helvetica,sans-Serif" font-weight="bold" font-size="9.00">application</text>
</g>
<g id="clust3" class="cluster">
<title>cluster_src/components</title>
<path fill="#ffffff" stroke="black" stroke-width="2" d="M142,-28.32C142,-28.32 262,-28.32 262,-28.32 268,-28.32 274,-34.32 274,-40.32 274,-40.32 274,-188.32 274,-188.32 274,-194.32 268,-200.32 262,-200.32 262,-200.32 142,-200.32 142,-200.32 136,-200.32 130,-194.32 130,-188.32 130,-188.32 130,-40.32 130,-40.32 130,-34.32 136,-28.32 142,-28.32"/>
<text text-anchor="middle" x="202" y="-189.12" font-family="Helvetica,sans-Serif" font-weight="bold" font-size="9.00">components</text>
</g>
<g id="clust4" class="cluster">
<title>cluster_src/components/inputs</title>
<path fill="#ffffff" stroke="black" stroke-width="2" d="M168.5,-122.32C168.5,-122.32 235.5,-122.32 235.5,-122.32 241.5,-122.32 247.5,-128.32 247.5,-134.32 247.5,-134.32 247.5,-162.32 247.5,-162.32 247.5,-168.32 241.5,-174.32 235.5,-174.32 235.5,-174.32 168.5,-174.32 168.5,-174.32 162.5,-174.32 156.5,-168.32 156.5,-162.32 156.5,-162.32 156.5,-134.32 156.5,-134.32 156.5,-128.32 162.5,-122.32 168.5,-122.32"/>
<text text-anchor="middle" x="202" y="-163.12" font-family="Helvetica,sans-Serif" font-weight="bold" font-size="9.00">inputs</text>
</g>
<g id="clust5" class="cluster">
<title>cluster_src/components/utils</title>
<path fill="#ffffff" stroke="black" stroke-width="2" d="M150,-62.32C150,-62.32 254,-62.32 254,-62.32 260,-62.32 266,-68.32 266,-74.32 266,-74.32 266,-102.32 266,-102.32 266,-108.32 260,-114.32 254,-114.32 254,-114.32 150,-114.32 150,-114.32 144,-114.32 138,-108.32 138,-102.32 138,-102.32 138,-74.32 138,-74.32 138,-68.32 144,-62.32 150,-62.32"/>
<text text-anchor="middle" x="202" y="-103.12" font-family="Helvetica,sans-Serif" font-weight="bold" font-size="9.00">utils</text>
</g>
<g id="clust6" class="cluster">
<title>cluster_src/stores</title>
<path fill="#ffffff" stroke="black" stroke-width="2" d="M294,-122.32C294,-122.32 379,-122.32 379,-122.32 385,-122.32 391,-128.32 391,-134.32 391,-134.32 391,-192.32 391,-192.32 391,-198.32 385,-204.32 379,-204.32 379,-204.32 294,-204.32 294,-204.32 288,-204.32 282,-198.32 282,-192.32 282,-192.32 282,-134.32 282,-134.32 282,-128.32 288,-122.32 294,-122.32"/>
<text text-anchor="middle" x="336.5" y="-193.12" font-family="Helvetica,sans-Serif" font-weight="bold" font-size="9.00">stores</text>
</g>
<g id="clust7" class="cluster">
<title>cluster_src/views</title>
<path fill="#ffffff" stroke="black" stroke-width="2" d="M28,-139.32C28,-139.32 110,-139.32 110,-139.32 116,-139.32 122,-145.32 122,-151.32 122,-151.32 122,-209.32 122,-209.32 122,-215.32 116,-221.32 110,-221.32 110,-221.32 28,-221.32 28,-221.32 22,-221.32 16,-215.32 16,-209.32 16,-209.32 16,-151.32 16,-151.32 16,-145.32 22,-139.32 28,-139.32"/>
<text text-anchor="middle" x="69" y="-210.12" font-family="Helvetica,sans-Serif" font-weight="bold" font-size="9.00">views</text>
</g>
<!-- src/application/index.ts -->
<g id="node1" class="node">
<title>src/application/index.ts</title>
<g id="a_node1"><a xlink:href="src/application/index.ts" xlink:title="index.ts">
<path fill="#ddfeff" stroke="black" d="M465,-148.32C465,-148.32 423,-148.32 423,-148.32 420,-148.32 417,-145.32 417,-142.32 417,-142.32 417,-136.32 417,-136.32 417,-133.32 420,-130.32 423,-130.32 423,-130.32 465,-130.32 465,-130.32 468,-130.32 471,-133.32 471,-136.32 471,-136.32 471,-142.32 471,-142.32 471,-145.32 468,-148.32 465,-148.32"/>
<text text-anchor="start" x="425.5" y="-137.12" font-family="Helvetica,sans-Serif" font-size="9.00">index.ts</text>
</a>
</g>
</g>
<!-- src/components/VideoCard.vue -->
<g id="node2" class="node">
<title>src/components/VideoCard.vue</title>
<g id="a_node2"><a xlink:href="src/components/VideoCard.vue" xlink:title="VideoCard.vue">
<path fill="#41f083" stroke="black" d="M237,-54.32C237,-54.32 167,-54.32 167,-54.32 164,-54.32 161,-51.32 161,-48.32 161,-48.32 161,-42.32 161,-42.32 161,-39.32 164,-36.32 167,-36.32 167,-36.32 237,-36.32 237,-36.32 240,-36.32 243,-39.32 243,-42.32 243,-42.32 243,-48.32 243,-48.32 243,-51.32 240,-54.32 237,-54.32"/>
<text text-anchor="start" x="169" y="-43.12" font-family="Helvetica,sans-Serif" font-size="9.00">VideoCard.vue</text>
</a>
</g>
</g>
<!-- src/stores/videosStore.ts -->
<g id="node3" class="node">
<title>src/stores/videosStore.ts</title>
<g id="a_node3"><a xlink:href="src/stores/videosStore.ts" xlink:title="videosStore.ts">
<path fill="#ddfeff" stroke="black" d="M370.5,-148.32C370.5,-148.32 302.5,-148.32 302.5,-148.32 299.5,-148.32 296.5,-145.32 296.5,-142.32 296.5,-142.32 296.5,-136.32 296.5,-136.32 296.5,-133.32 299.5,-130.32 302.5,-130.32 302.5,-130.32 370.5,-130.32 370.5,-130.32 373.5,-130.32 376.5,-133.32 376.5,-136.32 376.5,-136.32 376.5,-142.32 376.5,-142.32 376.5,-145.32 373.5,-148.32 370.5,-148.32"/>
<text text-anchor="start" x="304.5" y="-137.12" font-family="Helvetica,sans-Serif" font-size="9.00">videosStore.ts</text>
</a>
</g>
</g>
<!-- src/components/VideoCard.vue&#45;&gt;src/stores/videosStore.ts -->
<g id="edge1" class="edge">
<title>src/components/VideoCard.vue&#45;&gt;src/stores/videosStore.ts</title>
<path fill="none" stroke="#000000" stroke-width="2" stroke-opacity="0.200000" d="M243.2,-48.11C253.79,-50.18 264.82,-53.62 274,-59.32 299.68,-75.24 318.68,-106.03 328.34,-124.42"/>
<polygon fill="#000000" fill-opacity="0.200000" stroke="#000000" stroke-width="2" stroke-opacity="0.200000" points="326.66,-125.75 331.25,-130.14 330.4,-123.84 326.66,-125.75"/>
</g>
<!-- src/stores/videosStore.ts&#45;&gt;src/application/index.ts -->
<g id="edge4" class="edge">
<title>src/stores/videosStore.ts&#45;&gt;src/application/index.ts</title>
<path fill="none" stroke="#000000" stroke-width="2" stroke-opacity="0.200000" d="M376.78,-139.32C387.95,-139.32 399.98,-139.32 410.68,-139.32"/>
<polygon fill="#000000" fill-opacity="0.200000" stroke="#000000" stroke-width="2" stroke-opacity="0.200000" points="410.81,-141.42 416.81,-139.32 410.81,-137.22 410.81,-141.42"/>
</g>
<!-- src/components/inputs/FileInput.vue -->
<g id="node4" class="node">
<title>src/components/inputs/FileInput.vue</title>
<g id="a_node4"><a xlink:href="src/components/inputs/FileInput.vue" xlink:title="FileInput.vue">
<path fill="#41f083" stroke="black" d="M233.5,-148.32C233.5,-148.32 170.5,-148.32 170.5,-148.32 167.5,-148.32 164.5,-145.32 164.5,-142.32 164.5,-142.32 164.5,-136.32 164.5,-136.32 164.5,-133.32 167.5,-130.32 170.5,-130.32 170.5,-130.32 233.5,-130.32 233.5,-130.32 236.5,-130.32 239.5,-133.32 239.5,-136.32 239.5,-136.32 239.5,-142.32 239.5,-142.32 239.5,-145.32 236.5,-148.32 233.5,-148.32"/>
<text text-anchor="start" x="172.5" y="-137.12" font-family="Helvetica,sans-Serif" font-size="9.00">FileInput.vue</text>
</a>
</g>
</g>
<!-- src/components/inputs/FileInput.vue&#45;&gt;src/stores/videosStore.ts -->
<g id="edge2" class="edge">
<title>src/components/inputs/FileInput.vue&#45;&gt;src/stores/videosStore.ts</title>
<path fill="none" stroke="#000000" stroke-width="2" stroke-opacity="0.200000" d="M239.56,-139.32C255.11,-139.32 273.42,-139.32 289.85,-139.32"/>
<polygon fill="#000000" fill-opacity="0.200000" stroke="#000000" stroke-width="2" stroke-opacity="0.200000" points="290.28,-141.42 296.28,-139.32 290.28,-137.22 290.28,-141.42"/>
</g>
<!-- src/components/utils/DiagnosticsPanel.vue -->
<g id="node5" class="node">
<title>src/components/utils/DiagnosticsPanel.vue</title>
<g id="a_node5"><a xlink:href="src/components/utils/DiagnosticsPanel.vue" xlink:title="DiagnosticsPanel.vue">
<path fill="#41f083" stroke="black" d="M252,-88.32C252,-88.32 152,-88.32 152,-88.32 149,-88.32 146,-85.32 146,-82.32 146,-82.32 146,-76.32 146,-76.32 146,-73.32 149,-70.32 152,-70.32 152,-70.32 252,-70.32 252,-70.32 255,-70.32 258,-73.32 258,-76.32 258,-76.32 258,-82.32 258,-82.32 258,-85.32 255,-88.32 252,-88.32"/>
<text text-anchor="start" x="154" y="-77.12" font-family="Helvetica,sans-Serif" font-size="9.00">DiagnosticsPanel.vue</text>
</a>
</g>
</g>
<!-- src/stores/appStateStore.ts -->
<g id="node6" class="node">
<title>src/stores/appStateStore.ts</title>
<g id="a_node6"><a xlink:href="src/stores/appStateStore.ts" xlink:title="appStateStore.ts">
<path fill="#ddfeff" stroke="black" d="M377,-178.32C377,-178.32 296,-178.32 296,-178.32 293,-178.32 290,-175.32 290,-172.32 290,-172.32 290,-166.32 290,-166.32 290,-163.32 293,-160.32 296,-160.32 296,-160.32 377,-160.32 377,-160.32 380,-160.32 383,-163.32 383,-166.32 383,-166.32 383,-172.32 383,-172.32 383,-175.32 380,-178.32 377,-178.32"/>
<text text-anchor="start" x="298" y="-167.12" font-family="Helvetica,sans-Serif" font-size="9.00">appStateStore.ts</text>
</a>
</g>
</g>
<!-- src/components/utils/DiagnosticsPanel.vue&#45;&gt;src/stores/appStateStore.ts -->
<g id="edge3" class="edge">
<title>src/components/utils/DiagnosticsPanel.vue&#45;&gt;src/stores/appStateStore.ts</title>
<path fill="none" stroke="#000000" stroke-width="2" stroke-opacity="0.200000" d="M230.38,-88.43C245.42,-94.81 263.17,-104.81 274,-119.32 283.54,-132.11 270.99,-142.76 282,-154.32 282.85,-155.21 283.74,-156.05 284.68,-156.84"/>
<polygon fill="#000000" fill-opacity="0.200000" stroke="#000000" stroke-width="2" stroke-opacity="0.200000" points="283.58,-158.63 289.68,-160.4 286.01,-155.21 283.58,-158.63"/>
</g>
<!-- src/views/NavBar.vue -->
<g id="node7" class="node">
<title>src/views/NavBar.vue</title>
<g id="a_node7"><a xlink:href="src/views/NavBar.vue" xlink:title="NavBar.vue">
<path fill="#41f083" stroke="black" d="M97,-165.32C97,-165.32 41,-165.32 41,-165.32 38,-165.32 35,-162.32 35,-159.32 35,-159.32 35,-153.32 35,-153.32 35,-150.32 38,-147.32 41,-147.32 41,-147.32 97,-147.32 97,-147.32 100,-147.32 103,-150.32 103,-153.32 103,-153.32 103,-159.32 103,-159.32 103,-162.32 100,-165.32 97,-165.32"/>
<text text-anchor="start" x="43" y="-154.12" font-family="Helvetica,sans-Serif" font-size="9.00">NavBar.vue</text>
</a>
</g>
</g>
<!-- src/views/NavBar.vue&#45;&gt;src/stores/videosStore.ts -->
<g id="edge7" class="edge">
<title>src/views/NavBar.vue&#45;&gt;src/stores/videosStore.ts</title>
<path fill="none" stroke="#000000" stroke-width="2" stroke-opacity="0.200000" d="M70.92,-147.19C73.97,-122.34 86.21,-53.42 130,-25.32 183.86,9.25 219.04,7.48 274,-25.32 310.32,-46.99 326.46,-98.34 332.48,-124.07"/>
<polygon fill="#000000" fill-opacity="0.200000" stroke="#000000" stroke-width="2" stroke-opacity="0.200000" points="330.45,-124.62 333.79,-130.03 334.55,-123.72 330.45,-124.62"/>
</g>
<!-- src/views/NavBar.vue&#45;&gt;src/components/inputs/FileInput.vue -->
<g id="edge5" class="edge">
<title>src/views/NavBar.vue&#45;&gt;src/components/inputs/FileInput.vue</title>
<path fill="none" stroke="#000000" stroke-width="2" stroke-opacity="0.200000" d="M103.06,-152.03C119.81,-149.85 140.35,-147.19 158.29,-144.86"/>
<polygon fill="#000000" fill-opacity="0.200000" stroke="#000000" stroke-width="2" stroke-opacity="0.200000" points="158.58,-146.94 164.26,-144.09 158.04,-142.78 158.58,-146.94"/>
</g>
<!-- src/views/NavBar.vue&#45;&gt;src/stores/appStateStore.ts -->
<g id="edge6" class="edge">
<title>src/views/NavBar.vue&#45;&gt;src/stores/appStateStore.ts</title>
<path fill="none" stroke="#000000" stroke-width="2" stroke-opacity="0.200000" d="M103.14,-163.92C109.56,-165.94 116.11,-168.39 122,-171.32 125.98,-173.3 125.78,-175.91 130,-177.32 183.91,-195.29 250.23,-187.82 292.68,-179.6"/>
<polygon fill="#000000" fill-opacity="0.200000" stroke="#000000" stroke-width="2" stroke-opacity="0.200000" points="293.29,-181.62 298.77,-178.38 292.47,-177.5 293.29,-181.62"/>
</g>
<!-- src/views/VideoGallery.vue -->
<g id="node8" class="node">
<title>src/views/VideoGallery.vue</title>
<g id="a_node8"><a xlink:href="src/views/VideoGallery.vue" xlink:title="VideoGallery.vue">
<path fill="#41f083" stroke="black" d="M108,-195.32C108,-195.32 30,-195.32 30,-195.32 27,-195.32 24,-192.32 24,-189.32 24,-189.32 24,-183.32 24,-183.32 24,-180.32 27,-177.32 30,-177.32 30,-177.32 108,-177.32 108,-177.32 111,-177.32 114,-180.32 114,-183.32 114,-183.32 114,-189.32 114,-189.32 114,-192.32 111,-195.32 108,-195.32"/>
<text text-anchor="start" x="32" y="-184.12" font-family="Helvetica,sans-Serif" font-size="9.00">VideoGallery.vue</text>
</a>
</g>
</g>
<!-- src/views/VideoGallery.vue&#45;&gt;src/components/VideoCard.vue -->
<g id="edge8" class="edge">
<title>src/views/VideoGallery.vue&#45;&gt;src/components/VideoCard.vue</title>
<path fill="none" stroke="#000000" stroke-width="2" stroke-opacity="0.200000" d="M114.01,-178.25C117.03,-176.37 119.75,-174.09 122,-171.32 137.7,-151.93 113.48,-78.02 130,-59.32 136.41,-52.07 145.39,-47.91 154.81,-45.65"/>
<polygon fill="#000000" fill-opacity="0.200000" stroke="#000000" stroke-width="2" stroke-opacity="0.200000" points="155.24,-47.7 160.71,-44.47 154.42,-43.58 155.24,-47.7"/>
</g>
<!-- src/views/VideoGallery.vue&#45;&gt;src/stores/videosStore.ts -->
<g id="edge10" class="edge">
<title>src/views/VideoGallery.vue&#45;&gt;src/stores/videosStore.ts</title>
<path fill="none" stroke="#000000" stroke-width="2" stroke-opacity="0.200000" d="M103.78,-195.4C147.62,-205.03 224.38,-214.27 274,-177.32 282.68,-170.85 274.12,-161.73 282,-154.32 284.55,-151.92 287.45,-149.91 290.55,-148.21"/>
<polygon fill="#000000" fill-opacity="0.200000" stroke="#000000" stroke-width="2" stroke-opacity="0.200000" points="291.78,-149.94 296.31,-145.48 289.99,-146.15 291.78,-149.94"/>
</g>
<!-- src/views/VideoGallery.vue&#45;&gt;src/stores/appStateStore.ts -->
<g id="edge9" class="edge">
<title>src/views/VideoGallery.vue&#45;&gt;src/stores/appStateStore.ts</title>
<path fill="none" stroke="#000000" stroke-width="2" stroke-opacity="0.200000" d="M79.61,-195.66C90.7,-205.73 109.99,-221.13 130,-227.32 191.15,-246.22 214.52,-250.94 274,-227.32 296.11,-218.54 314.88,-197.62 325.67,-183.46"/>
<polygon fill="#000000" fill-opacity="0.200000" stroke="#000000" stroke-width="2" stroke-opacity="0.200000" points="327.4,-184.66 329.28,-178.58 324.02,-182.16 327.4,-184.66"/>
</g>
</g>
</svg>
