<?xml version="1.0" encoding="UTF-8" standalone="no"?>
<!DOCTYPE svg PUBLIC "-//W3C//DTD SVG 1.1//EN"
 "http://www.w3.org/Graphics/SVG/1.1/DTD/svg11.dtd">
<!-- Generated by graphviz version 9.0.0 (20230911.1827)
 -->
<!-- Title: dependency&#45;cruiser output Pages: 1 -->
<svg width="489pt" height="373pt"
 viewBox="0.00 0.00 488.50 373.00" xmlns="http://www.w3.org/2000/svg" xmlns:xlink="http://www.w3.org/1999/xlink">
<g id="graph0" class="graph" transform="scale(1 1) rotate(0) translate(4 369)">
<title>dependency&#45;cruiser output</title>
<polygon fill="white" stroke="none" points="-4,4 -4,-369 484.5,-369 484.5,4 -4,4"/>
<g id="clust1" class="cluster">
<title>cluster_src</title>
<path fill="#ffffff" stroke="black" stroke-width="2" d="M20,-8C20,-8 460.5,-8 460.5,-8 466.5,-8 472.5,-14 472.5,-20 472.5,-20 472.5,-345 472.5,-345 472.5,-351 466.5,-357 460.5,-357 460.5,-357 20,-357 20,-357 14,-357 8,-351 8,-345 8,-345 8,-20 8,-20 8,-14 14,-8 20,-8"/>
<text text-anchor="middle" x="240.25" y="-344.45" font-family="Helvetica,sans-Serif" font-weight="bold" font-size="9.00">src</text>
</g>
<g id="clust2" class="cluster">
<title>cluster_src/application</title>
<path fill="#ffffff" stroke="black" stroke-width="2" d="M398.5,-275C398.5,-275 444.5,-275 444.5,-275 450.5,-275 456.5,-281 456.5,-287 456.5,-287 456.5,-318 456.5,-318 456.5,-324 450.5,-330 444.5,-330 444.5,-330 398.5,-330 398.5,-330 392.5,-330 386.5,-324 386.5,-318 386.5,-318 386.5,-287 386.5,-287 386.5,-281 392.5,-275 398.5,-275"/>
<text text-anchor="middle" x="421.5" y="-317.45" font-family="Helvetica,sans-Serif" font-weight="bold" font-size="9.00">application</text>
</g>
<g id="clust3" class="cluster">
<title>cluster_src/components</title>
<path fill="#ffffff" stroke="black" stroke-width="2" d="M136.25,-24C136.25,-24 250.25,-24 250.25,-24 256.25,-24 262.25,-30 262.25,-36 262.25,-36 262.25,-193 262.25,-193 262.25,-199 256.25,-205 250.25,-205 250.25,-205 136.25,-205 136.25,-205 130.25,-205 124.25,-199 124.25,-193 124.25,-193 124.25,-36 124.25,-36 124.25,-30 130.25,-24 136.25,-24"/>
<text text-anchor="middle" x="193.25" y="-192.45" font-family="Helvetica,sans-Serif" font-weight="bold" font-size="9.00">components</text>
</g>
<g id="clust4" class="cluster">
<title>cluster_src/components/inputs</title>
<path fill="#ffffff" stroke="black" stroke-width="2" d="M163.38,-123C163.38,-123 223.12,-123 223.12,-123 229.12,-123 235.12,-129 235.12,-135 235.12,-135 235.12,-166 235.12,-166 235.12,-172 229.12,-178 223.12,-178 223.12,-178 163.38,-178 163.38,-178 157.38,-178 151.38,-172 151.38,-166 151.38,-166 151.38,-135 151.38,-135 151.38,-129 157.38,-123 163.38,-123"/>
<text text-anchor="middle" x="193.25" y="-165.45" font-family="Helvetica,sans-Serif" font-weight="bold" font-size="9.00">inputs</text>
</g>
<g id="clust5" class="cluster">
<title>cluster_src/components/utils</title>
<path fill="#ffffff" stroke="black" stroke-width="2" d="M144.25,-60C144.25,-60 242.25,-60 242.25,-60 248.25,-60 254.25,-66 254.25,-72 254.25,-72 254.25,-103 254.25,-103 254.25,-109 248.25,-115 242.25,-115 242.25,-115 144.25,-115 144.25,-115 138.25,-115 132.25,-109 132.25,-103 132.25,-103 132.25,-72 132.25,-72 132.25,-66 138.25,-60 144.25,-60"/>
<text text-anchor="middle" x="193.25" y="-102.45" font-family="Helvetica,sans-Serif" font-weight="bold" font-size="9.00">utils</text>
</g>
<g id="clust8" class="cluster">
<title>cluster_src/infrastructure</title>
<path fill="#ffffff" stroke="black" stroke-width="2" d="M390.5,-114C390.5,-114 452.5,-114 452.5,-114 458.5,-114 464.5,-120 464.5,-126 464.5,-126 464.5,-255 464.5,-255 464.5,-261 458.5,-267 452.5,-267 452.5,-267 390.5,-267 390.5,-267 384.5,-267 378.5,-261 378.5,-255 378.5,-255 378.5,-126 378.5,-126 378.5,-120 384.5,-114 390.5,-114"/>
<text text-anchor="middle" x="421.5" y="-254.45" font-family="Helvetica,sans-Serif" font-weight="bold" font-size="9.00">infrastructure</text>
</g>
<g id="clust9" class="cluster">
<title>cluster_src/infrastructure/services</title>
<path fill="#ffffff" stroke="black" stroke-width="2" d="M398.5,-122C398.5,-122 444.5,-122 444.5,-122 450.5,-122 456.5,-128 456.5,-134 456.5,-134 456.5,-165 456.5,-165 456.5,-171 450.5,-177 444.5,-177 444.5,-177 398.5,-177 398.5,-177 392.5,-177 386.5,-171 386.5,-165 386.5,-165 386.5,-134 386.5,-134 386.5,-128 392.5,-122 398.5,-122"/>
<text text-anchor="middle" x="421.5" y="-164.45" font-family="Helvetica,sans-Serif" font-weight="bold" font-size="9.00">services</text>
</g>
<g id="clust10" class="cluster">
<title>cluster_src/infrastructure/video</title>
<path fill="#ffffff" stroke="black" stroke-width="2" d="M398.5,-185C398.5,-185 444.5,-185 444.5,-185 450.5,-185 456.5,-191 456.5,-197 456.5,-197 456.5,-228 456.5,-228 456.5,-234 450.5,-240 444.5,-240 444.5,-240 398.5,-240 398.5,-240 392.5,-240 386.5,-234 386.5,-228 386.5,-228 386.5,-197 386.5,-197 386.5,-191 392.5,-185 398.5,-185"/>
<text text-anchor="middle" x="421.5" y="-227.45" font-family="Helvetica,sans-Serif" font-weight="bold" font-size="9.00">video</text>
</g>
<g id="clust6" class="cluster">
<title>cluster_src/domain</title>
<path fill="#ffffff" stroke="black" stroke-width="2" d="M390.5,-16C390.5,-16 452.5,-16 452.5,-16 458.5,-16 464.5,-22 464.5,-28 464.5,-28 464.5,-94 464.5,-94 464.5,-100 458.5,-106 452.5,-106 452.5,-106 390.5,-106 390.5,-106 384.5,-106 378.5,-100 378.5,-94 378.5,-94 378.5,-28 378.5,-28 378.5,-22 384.5,-16 390.5,-16"/>
<text text-anchor="middle" x="421.5" y="-93.45" font-family="Helvetica,sans-Serif" font-weight="bold" font-size="9.00">domain</text>
</g>
<g id="clust7" class="cluster">
<title>cluster_src/domain/entities</title>
<path fill="#ffffff" stroke="black" stroke-width="2" d="M398.5,-24C398.5,-24 444.5,-24 444.5,-24 450.5,-24 456.5,-30 456.5,-36 456.5,-36 456.5,-67 456.5,-67 456.5,-73 450.5,-79 444.5,-79 444.5,-79 398.5,-79 398.5,-79 392.5,-79 386.5,-73 386.5,-67 386.5,-67 386.5,-36 386.5,-36 386.5,-30 392.5,-24 398.5,-24"/>
<text text-anchor="middle" x="421.5" y="-66.45" font-family="Helvetica,sans-Serif" font-weight="bold" font-size="9.00">entities</text>
</g>
<g id="clust12" class="cluster">
<title>cluster_src/views</title>
<path fill="#ffffff" stroke="black" stroke-width="2" d="M28,-187C28,-187 104.25,-187 104.25,-187 110.25,-187 116.25,-193 116.25,-199 116.25,-199 116.25,-261 116.25,-261 116.25,-267 110.25,-273 104.25,-273 104.25,-273 28,-273 28,-273 22,-273 16,-267 16,-261 16,-261 16,-199 16,-199 16,-193 22,-187 28,-187"/>
<text text-anchor="middle" x="66.12" y="-260.45" font-family="Helvetica,sans-Serif" font-weight="bold" font-size="9.00">views</text>
</g>
<g id="clust11" class="cluster">
<title>cluster_src/stores</title>
<path fill="#ffffff" stroke="black" stroke-width="2" d="M282.25,-189C282.25,-189 358.5,-189 358.5,-189 364.5,-189 370.5,-195 370.5,-201 370.5,-201 370.5,-263 370.5,-263 370.5,-269 364.5,-275 358.5,-275 358.5,-275 282.25,-275 282.25,-275 276.25,-275 270.25,-269 270.25,-263 270.25,-263 270.25,-201 270.25,-201 270.25,-195 276.25,-189 282.25,-189"/>
<text text-anchor="middle" x="320.38" y="-262.45" font-family="Helvetica,sans-Serif" font-weight="bold" font-size="9.00">stores</text>
</g>
<!-- src/application/index.ts -->
<g id="node1" class="node">
<title>src/application/index.ts</title>
<g id="a_node1"><a xlink:href="src/application/index.ts" xlink:title="index.ts">
<path fill="#ddfeff" stroke="black" d="M442.08,-302.62C442.08,-302.62 400.92,-302.62 400.92,-302.62 397.71,-302.62 394.5,-299.42 394.5,-296.21 394.5,-296.21 394.5,-289.79 394.5,-289.79 394.5,-286.58 397.71,-283.38 400.92,-283.38 400.92,-283.38 442.08,-283.38 442.08,-283.38 445.29,-283.38 448.5,-286.58 448.5,-289.79 448.5,-289.79 448.5,-296.21 448.5,-296.21 448.5,-299.42 445.29,-302.62 442.08,-302.62"/>
<text text-anchor="start" x="405.75" y="-290.07" font-family="Helvetica,sans-Serif" font-size="9.00">index.ts</text>
</a>
</g>
</g>
<!-- src/components/VideoCard.vue -->
<g id="node2" class="node">
<title>src/components/VideoCard.vue</title>
<g id="a_node2"><a xlink:href="src/components/VideoCard.vue" xlink:title="VideoCard.vue">
<path fill="#41f083" stroke="black" d="M224.83,-51.62C224.83,-51.62 161.67,-51.62 161.67,-51.62 158.46,-51.62 155.25,-48.42 155.25,-45.21 155.25,-45.21 155.25,-38.79 155.25,-38.79 155.25,-35.58 158.46,-32.38 161.67,-32.38 161.67,-32.38 224.83,-32.38 224.83,-32.38 228.04,-32.38 231.25,-35.58 231.25,-38.79 231.25,-38.79 231.25,-45.21 231.25,-45.21 231.25,-48.42 228.04,-51.62 224.83,-51.62"/>
<text text-anchor="start" x="163.25" y="-39.08" font-family="Helvetica,sans-Serif" font-size="9.00">VideoCard.vue</text>
</a>
</g>
</g>
<!-- src/stores/videosStore.ts -->
<g id="node3" class="node">
<title>src/stores/videosStore.ts</title>
<g id="a_node3"><a xlink:href="src/stores/videosStore.ts" xlink:title="videosStore.ts">
<path fill="#ddfeff" stroke="black" d="M351.21,-216.62C351.21,-216.62 289.54,-216.62 289.54,-216.62 286.33,-216.62 283.12,-213.42 283.12,-210.21 283.12,-210.21 283.12,-203.79 283.12,-203.79 283.12,-200.58 286.33,-197.38 289.54,-197.38 289.54,-197.38 351.21,-197.38 351.21,-197.38 354.42,-197.38 357.62,-200.58 357.62,-203.79 357.62,-203.79 357.62,-210.21 357.62,-210.21 357.62,-213.42 354.42,-216.62 351.21,-216.62"/>
<text text-anchor="start" x="291.12" y="-204.07" font-family="Helvetica,sans-Serif" font-size="9.00">videosStore.ts</text>
</a>
</g>
</g>
<!-- src/components/VideoCard.vue&#45;&gt;src/stores/videosStore.ts -->
<g id="edge1" class="edge">
<title>src/components/VideoCard.vue&#45;&gt;src/stores/videosStore.ts</title>
<path fill="none" stroke="#000000" stroke-width="2" stroke-opacity="0.200000" d="M231.5,-43.57C242.44,-45.67 253.74,-49.65 262.25,-57 302.02,-91.32 314.19,-156.43 317.85,-188.37"/>
<polygon fill="#000000" fill-opacity="0.200000" stroke="#000000" stroke-width="2" stroke-opacity="0.200000" points="315.74,-188.38 318.43,-194.14 319.92,-187.96 315.74,-188.38"/>
</g>
<!-- src/domain/entities/index.ts -->
<g id="node4" class="node">
<title>src/domain/entities/index.ts</title>
<g id="a_node4"><a xlink:href="src/domain/entities/index.ts" xlink:title="index.ts">
<path fill="#ddfeff" stroke="black" d="M442.08,-51.62C442.08,-51.62 400.92,-51.62 400.92,-51.62 397.71,-51.62 394.5,-48.42 394.5,-45.21 394.5,-45.21 394.5,-38.79 394.5,-38.79 394.5,-35.58 397.71,-32.38 400.92,-32.38 400.92,-32.38 442.08,-32.38 442.08,-32.38 445.29,-32.38 448.5,-35.58 448.5,-38.79 448.5,-38.79 448.5,-45.21 448.5,-45.21 448.5,-48.42 445.29,-51.62 442.08,-51.62"/>
<text text-anchor="start" x="405.75" y="-39.08" font-family="Helvetica,sans-Serif" font-size="9.00">index.ts</text>
</a>
</g>
</g>
<!-- src/components/VideoCard.vue&#45;&gt;src/domain/entities/index.ts -->
<g id="edge2" class="edge">
<title>src/components/VideoCard.vue&#45;&gt;src/domain/entities/index.ts</title>
<path fill="none" stroke="#000000" stroke-opacity="0.200000" d="M231.61,-42C274.74,-42 345.05,-42 386.64,-42"/>
<polygon fill="none" stroke="#000000" stroke-opacity="0.200000" points="386.54,-44.1 392.54,-42 386.54,-39.9 386.54,-44.1"/>
</g>
<!-- src/stores/videosStore.ts&#45;&gt;src/application/index.ts -->
<g id="edge7" class="edge">
<title>src/stores/videosStore.ts&#45;&gt;src/application/index.ts</title>
<path fill="none" stroke="#000000" stroke-width="2" stroke-opacity="0.200000" d="M357.8,-213.92C362.45,-215.95 366.85,-218.59 370.5,-222 377.8,-228.82 373.44,-234.39 378.5,-243 385.64,-255.15 395.75,-267.29 404.26,-276.57"/>
<polygon fill="#000000" fill-opacity="0.200000" stroke="#000000" stroke-width="2" stroke-opacity="0.200000" points="402.66,-277.93 408.3,-280.85 405.71,-275.05 402.66,-277.93"/>
</g>
<!-- src/stores/videosStore.ts&#45;&gt;src/domain/entities/index.ts -->
<g id="edge8" class="edge">
<title>src/stores/videosStore.ts&#45;&gt;src/domain/entities/index.ts</title>
<path fill="none" stroke="#000000" stroke-opacity="0.200000" d="M327.28,-197.17C343.77,-169.73 390.43,-92.05 410.8,-58.15"/>
<polygon fill="none" stroke="#000000" stroke-opacity="0.200000" points="412.43,-59.51 413.72,-53.28 408.83,-57.34 412.43,-59.51"/>
</g>
<!-- src/infrastructure/services/index.ts -->
<g id="node8" class="node">
<title>src/infrastructure/services/index.ts</title>
<g id="a_node8"><a xlink:href="src/infrastructure/services/index.ts" xlink:title="index.ts">
<path fill="#ddfeff" stroke="black" d="M442.08,-149.62C442.08,-149.62 400.92,-149.62 400.92,-149.62 397.71,-149.62 394.5,-146.42 394.5,-143.21 394.5,-143.21 394.5,-136.79 394.5,-136.79 394.5,-133.58 397.71,-130.38 400.92,-130.38 400.92,-130.38 442.08,-130.38 442.08,-130.38 445.29,-130.38 448.5,-133.58 448.5,-136.79 448.5,-136.79 448.5,-143.21 448.5,-143.21 448.5,-146.42 445.29,-149.62 442.08,-149.62"/>
<text text-anchor="start" x="405.75" y="-137.07" font-family="Helvetica,sans-Serif" font-size="9.00">index.ts</text>
</a>
</g>
</g>
<!-- src/stores/videosStore.ts&#45;&gt;src/infrastructure/services/index.ts -->
<g id="edge9" class="edge">
<title>src/stores/videosStore.ts&#45;&gt;src/infrastructure/services/index.ts</title>
<path fill="none" stroke="#000000" stroke-width="2" stroke-opacity="0.200000" d="M336,-197.11C352.47,-185.98 379.42,-167.77 398.45,-154.91"/>
<polygon fill="#000000" fill-opacity="0.200000" stroke="#000000" stroke-width="2" stroke-opacity="0.200000" points="399.51,-156.72 403.31,-151.62 397.16,-153.24 399.51,-156.72"/>
</g>
<!-- src/infrastructure/video/index.ts -->
<g id="node9" class="node">
<title>src/infrastructure/video/index.ts</title>
<g id="a_node9"><a xlink:href="src/infrastructure/video/index.ts" xlink:title="index.ts">
<path fill="#ddfeff" stroke="black" d="M442.08,-212.62C442.08,-212.62 400.92,-212.62 400.92,-212.62 397.71,-212.62 394.5,-209.42 394.5,-206.21 394.5,-206.21 394.5,-199.79 394.5,-199.79 394.5,-196.58 397.71,-193.38 400.92,-193.38 400.92,-193.38 442.08,-193.38 442.08,-193.38 445.29,-193.38 448.5,-196.58 448.5,-199.79 448.5,-199.79 448.5,-206.21 448.5,-206.21 448.5,-209.42 445.29,-212.62 442.08,-212.62"/>
<text text-anchor="start" x="405.75" y="-200.07" font-family="Helvetica,sans-Serif" font-size="9.00">index.ts</text>
</a>
</g>
</g>
<!-- src/stores/videosStore.ts&#45;&gt;src/infrastructure/video/index.ts -->
<g id="edge10" class="edge">
<title>src/stores/videosStore.ts&#45;&gt;src/infrastructure/video/index.ts</title>
<path fill="none" stroke="#000000" stroke-width="2" stroke-opacity="0.200000" d="M358,-205.52C366.93,-205.16 376.45,-204.78 385.31,-204.42"/>
<polygon fill="#000000" fill-opacity="0.200000" stroke="#000000" stroke-width="2" stroke-opacity="0.200000" points="385.3,-206.52 391.21,-204.18 385.13,-202.33 385.3,-206.52"/>
</g>
<!-- src/components/inputs/FileInput.vue -->
<g id="node5" class="node">
<title>src/components/inputs/FileInput.vue</title>
<g id="a_node5"><a xlink:href="src/components/inputs/FileInput.vue" xlink:title="FileInput.vue">
<path fill="#41f083" stroke="black" d="M220.71,-150.62C220.71,-150.62 165.79,-150.62 165.79,-150.62 162.58,-150.62 159.38,-147.42 159.38,-144.21 159.38,-144.21 159.38,-137.79 159.38,-137.79 159.38,-134.58 162.58,-131.38 165.79,-131.38 165.79,-131.38 220.71,-131.38 220.71,-131.38 223.92,-131.38 227.12,-134.58 227.12,-137.79 227.12,-137.79 227.12,-144.21 227.12,-144.21 227.12,-147.42 223.92,-150.62 220.71,-150.62"/>
<text text-anchor="start" x="167.38" y="-138.07" font-family="Helvetica,sans-Serif" font-size="9.00">FileInput.vue</text>
</a>
</g>
</g>
<!-- src/components/inputs/FileInput.vue&#45;&gt;src/stores/videosStore.ts -->
<g id="edge3" class="edge">
<title>src/components/inputs/FileInput.vue&#45;&gt;src/stores/videosStore.ts</title>
<path fill="none" stroke="#000000" stroke-width="2" stroke-opacity="0.200000" d="M213.25,-151.02C234.29,-162.12 268.37,-180.1 292.22,-192.68"/>
<polygon fill="#000000" fill-opacity="0.200000" stroke="#000000" stroke-width="2" stroke-opacity="0.200000" points="291.23,-194.53 297.51,-195.47 293.19,-190.81 291.23,-194.53"/>
</g>
<!-- src/components/utils/DiagnosticsPanel.vue -->
<g id="node6" class="node">
<title>src/components/utils/DiagnosticsPanel.vue</title>
<g id="a_node6"><a xlink:href="src/components/utils/DiagnosticsPanel.vue" xlink:title="DiagnosticsPanel.vue">
<path fill="#41f083" stroke="black" d="M239.83,-87.62C239.83,-87.62 146.67,-87.62 146.67,-87.62 143.46,-87.62 140.25,-84.42 140.25,-81.21 140.25,-81.21 140.25,-74.79 140.25,-74.79 140.25,-71.58 143.46,-68.38 146.67,-68.38 146.67,-68.38 239.83,-68.38 239.83,-68.38 243.04,-68.38 246.25,-71.58 246.25,-74.79 246.25,-74.79 246.25,-81.21 246.25,-81.21 246.25,-84.42 243.04,-87.62 239.83,-87.62"/>
<text text-anchor="start" x="148.25" y="-75.08" font-family="Helvetica,sans-Serif" font-size="9.00">DiagnosticsPanel.vue</text>
</a>
</g>
</g>
<!-- src/stores/appStateStore.ts -->
<g id="node7" class="node">
<title>src/stores/appStateStore.ts</title>
<g id="a_node7"><a xlink:href="src/stores/appStateStore.ts" xlink:title="appStateStore.ts">
<path fill="#ddfeff" stroke="black" d="M356.08,-247.62C356.08,-247.62 284.67,-247.62 284.67,-247.62 281.46,-247.62 278.25,-244.42 278.25,-241.21 278.25,-241.21 278.25,-234.79 278.25,-234.79 278.25,-231.58 281.46,-228.38 284.67,-228.38 284.67,-228.38 356.08,-228.38 356.08,-228.38 359.29,-228.38 362.5,-231.58 362.5,-234.79 362.5,-234.79 362.5,-241.21 362.5,-241.21 362.5,-244.42 359.29,-247.62 356.08,-247.62"/>
<text text-anchor="start" x="286.25" y="-235.07" font-family="Helvetica,sans-Serif" font-size="9.00">appStateStore.ts</text>
</a>
</g>
</g>
<!-- src/components/utils/DiagnosticsPanel.vue&#45;&gt;src/stores/appStateStore.ts -->
<g id="edge4" class="edge">
<title>src/components/utils/DiagnosticsPanel.vue&#45;&gt;src/stores/appStateStore.ts</title>
<path fill="none" stroke="#000000" stroke-width="2" stroke-opacity="0.200000" d="M222.35,-88.1C236.8,-94.83 253.22,-105.19 262.25,-120 274.2,-139.6 255.89,-205.09 270.25,-223 270.52,-223.33 270.79,-223.65 271.07,-223.97"/>
<polygon fill="#000000" fill-opacity="0.200000" stroke="#000000" stroke-width="2" stroke-opacity="0.200000" points="269.54,-225.43 275.47,-227.69 272.24,-222.22 269.54,-225.43"/>
</g>
<!-- src/components/utils/DiagnosticsPanel.vue&#45;&gt;src/infrastructure/services/index.ts -->
<g id="edge5" class="edge">
<title>src/components/utils/DiagnosticsPanel.vue&#45;&gt;src/infrastructure/services/index.ts</title>
<path fill="none" stroke="#000000" stroke-width="2" stroke-opacity="0.200000" d="M231.1,-88.1C273.89,-99.82 343.92,-119.02 385.78,-130.48"/>
<polygon fill="#000000" fill-opacity="0.200000" stroke="#000000" stroke-width="2" stroke-opacity="0.200000" points="385,-132.45 391.34,-132.01 386.11,-128.4 385,-132.45"/>
</g>
<!-- src/stores/appStateStore.ts&#45;&gt;src/application/index.ts -->
<g id="edge6" class="edge">
<title>src/stores/appStateStore.ts&#45;&gt;src/application/index.ts</title>
<path fill="none" stroke="#000000" stroke-width="2" stroke-opacity="0.200000" d="M339.56,-248.09C355.07,-256.69 377.54,-269.16 394.88,-278.78"/>
<polygon fill="#000000" fill-opacity="0.200000" stroke="#000000" stroke-width="2" stroke-opacity="0.200000" points="393.52,-280.43 399.79,-281.51 395.56,-276.76 393.52,-280.43"/>
</g>
<!-- src/views/NavBar.vue -->
<g id="node10" class="node">
<title>src/views/NavBar.vue</title>
<g id="a_node10"><a xlink:href="src/views/NavBar.vue" xlink:title="NavBar.vue">
<path fill="#41f083" stroke="black" d="M90.96,-245.62C90.96,-245.62 41.29,-245.62 41.29,-245.62 38.08,-245.62 34.88,-242.42 34.88,-239.21 34.88,-239.21 34.88,-232.79 34.88,-232.79 34.88,-229.58 38.08,-226.38 41.29,-226.38 41.29,-226.38 90.96,-226.38 90.96,-226.38 94.17,-226.38 97.38,-229.58 97.38,-232.79 97.38,-232.79 97.38,-239.21 97.38,-239.21 97.38,-242.42 94.17,-245.62 90.96,-245.62"/>
<text text-anchor="start" x="42.88" y="-233.07" font-family="Helvetica,sans-Serif" font-size="9.00">NavBar.vue</text>
</a>
</g>
</g>
<!-- src/views/NavBar.vue&#45;&gt;src/stores/videosStore.ts -->
<g id="edge13" class="edge">
<title>src/views/NavBar.vue&#45;&gt;src/stores/videosStore.ts</title>
<path fill="none" stroke="#000000" stroke-width="2" stroke-opacity="0.200000" d="M97.8,-232.47C141.77,-227.42 223.02,-218.08 273.96,-212.22"/>
<polygon fill="#000000" fill-opacity="0.200000" stroke="#000000" stroke-width="2" stroke-opacity="0.200000" points="274.07,-214.32 279.79,-211.55 273.59,-210.15 274.07,-214.32"/>
</g>
<!-- src/views/NavBar.vue&#45;&gt;src/components/inputs/FileInput.vue -->
<g id="edge11" class="edge">
<title>src/views/NavBar.vue&#45;&gt;src/components/inputs/FileInput.vue</title>
<path fill="none" stroke="#000000" stroke-width="2" stroke-opacity="0.200000" d="M97.8,-229.3C104.16,-227.19 110.64,-224.47 116.25,-221 143.05,-204.43 166.79,-176.12 180.34,-158"/>
<polygon fill="#000000" fill-opacity="0.200000" stroke="#000000" stroke-width="2" stroke-opacity="0.200000" points="181.88,-159.46 183.71,-153.37 178.48,-156.98 181.88,-159.46"/>
</g>
<!-- src/views/NavBar.vue&#45;&gt;src/stores/appStateStore.ts -->
<g id="edge12" class="edge">
<title>src/views/NavBar.vue&#45;&gt;src/stores/appStateStore.ts</title>
<path fill="none" stroke="#000000" stroke-width="2" stroke-opacity="0.200000" d="M97.83,-242.38C106.35,-243.88 115.62,-245.25 124.25,-246 185.35,-251.31 201.07,-250.26 262.25,-246 264.48,-245.84 266.75,-245.66 269.05,-245.44"/>
<polygon fill="#000000" fill-opacity="0.200000" stroke="#000000" stroke-width="2" stroke-opacity="0.200000" points="269.2,-247.54 274.94,-244.81 268.75,-243.36 269.2,-247.54"/>
</g>
<!-- src/views/VideoGallery.vue -->
<g id="node11" class="node">
<title>src/views/VideoGallery.vue</title>
<g id="a_node11"><a xlink:href="src/views/VideoGallery.vue" xlink:title="VideoGallery.vue">
<path fill="#41f083" stroke="black" d="M101.83,-214.62C101.83,-214.62 30.42,-214.62 30.42,-214.62 27.21,-214.62 24,-211.42 24,-208.21 24,-208.21 24,-201.79 24,-201.79 24,-198.58 27.21,-195.38 30.42,-195.38 30.42,-195.38 101.83,-195.38 101.83,-195.38 105.04,-195.38 108.25,-198.58 108.25,-201.79 108.25,-201.79 108.25,-208.21 108.25,-208.21 108.25,-211.42 105.04,-214.62 101.83,-214.62"/>
<text text-anchor="start" x="32" y="-202.07" font-family="Helvetica,sans-Serif" font-size="9.00">VideoGallery.vue</text>
</a>
</g>
</g>
<!-- src/views/VideoGallery.vue&#45;&gt;src/components/VideoCard.vue -->
<g id="edge14" class="edge">
<title>src/views/VideoGallery.vue&#45;&gt;src/components/VideoCard.vue</title>
<path fill="none" stroke="#000000" stroke-width="2" stroke-opacity="0.200000" d="M67.85,-194.89C70.35,-167.99 81.01,-94.15 124.25,-57 130.51,-51.62 138.27,-48.04 146.29,-45.69"/>
<polygon fill="#000000" fill-opacity="0.200000" stroke="#000000" stroke-width="2" stroke-opacity="0.200000" points="146.74,-47.74 152.08,-44.3 145.76,-43.66 146.74,-47.74"/>
</g>
<!-- src/views/VideoGallery.vue&#45;&gt;src/stores/videosStore.ts -->
<g id="edge16" class="edge">
<title>src/views/VideoGallery.vue&#45;&gt;src/stores/videosStore.ts</title>
<path fill="none" stroke="#000000" stroke-width="2" stroke-opacity="0.200000" d="M108.5,-205.33C154.06,-205.69 227.09,-206.27 274.14,-206.64"/>
<polygon fill="#000000" fill-opacity="0.200000" stroke="#000000" stroke-width="2" stroke-opacity="0.200000" points="273.86,-208.74 279.87,-206.69 273.89,-204.54 273.86,-208.74"/>
</g>
<!-- src/views/VideoGallery.vue&#45;&gt;src/stores/appStateStore.ts -->
<g id="edge15" class="edge">
<title>src/views/VideoGallery.vue&#45;&gt;src/stores/appStateStore.ts</title>
<path fill="none" stroke="#000000" stroke-width="2" stroke-opacity="0.200000" d="M108.5,-210.41C152.48,-216.17 222.07,-225.27 269.17,-231.43"/>
<polygon fill="#000000" fill-opacity="0.200000" stroke="#000000" stroke-width="2" stroke-opacity="0.200000" points="268.76,-233.5 274.98,-232.19 269.3,-229.33 268.76,-233.5"/>
</g>
</g>
</svg>
