<?xml version="1.0" encoding="UTF-8" standalone="no"?>
<!DOCTYPE svg PUBLIC "-//W3C//DTD SVG 1.1//EN"
 "http://www.w3.org/Graphics/SVG/1.1/DTD/svg11.dtd">
<!-- Generated by graphviz version 9.0.0 (20230911.1827)
 -->
<!-- Title: dependency&#45;cruiser output Pages: 1 -->
<svg width="473pt" height="274pt"
 viewBox="0.00 0.00 472.50 274.00" xmlns="http://www.w3.org/2000/svg" xmlns:xlink="http://www.w3.org/1999/xlink">
<g id="graph0" class="graph" transform="scale(1 1) rotate(0) translate(4 270)">
<title>dependency&#45;cruiser output</title>
<polygon fill="white" stroke="none" points="-4,4 -4,-270 468.5,-270 468.5,4 -4,4"/>
<g id="clust1" class="cluster">
<title>cluster_src</title>
<path fill="#ffffff" stroke="black" stroke-width="2" d="M20,-8C20,-8 444.5,-8 444.5,-8 450.5,-8 456.5,-14 456.5,-20 456.5,-20 456.5,-246 456.5,-246 456.5,-252 450.5,-258 444.5,-258 444.5,-258 20,-258 20,-258 14,-258 8,-252 8,-246 8,-246 8,-20 8,-20 8,-14 14,-8 20,-8"/>
<text text-anchor="middle" x="232.25" y="-245.45" font-family="Helvetica,sans-Serif" font-weight="bold" font-size="9.00">src</text>
</g>
<g id="clust2" class="cluster">
<title>cluster_src/application</title>
<path fill="#ffffff" stroke="black" stroke-width="2" d="M390.5,-78C390.5,-78 436.5,-78 436.5,-78 442.5,-78 448.5,-84 448.5,-90 448.5,-90 448.5,-121 448.5,-121 448.5,-127 442.5,-133 436.5,-133 436.5,-133 390.5,-133 390.5,-133 384.5,-133 378.5,-127 378.5,-121 378.5,-121 378.5,-90 378.5,-90 378.5,-84 384.5,-78 390.5,-78"/>
<text text-anchor="middle" x="413.5" y="-120.45" font-family="Helvetica,sans-Serif" font-weight="bold" font-size="9.00">application</text>
</g>
<g id="clust3" class="cluster">
<title>cluster_src/components</title>
<path fill="#ffffff" stroke="black" stroke-width="2" d="M136.25,-26C136.25,-26 250.25,-26 250.25,-26 256.25,-26 262.25,-32 262.25,-38 262.25,-38 262.25,-195 262.25,-195 262.25,-201 256.25,-207 250.25,-207 250.25,-207 136.25,-207 136.25,-207 130.25,-207 124.25,-201 124.25,-195 124.25,-195 124.25,-38 124.25,-38 124.25,-32 130.25,-26 136.25,-26"/>
<text text-anchor="middle" x="193.25" y="-194.45" font-family="Helvetica,sans-Serif" font-weight="bold" font-size="9.00">components</text>
</g>
<g id="clust4" class="cluster">
<title>cluster_src/components/inputs</title>
<path fill="#ffffff" stroke="black" stroke-width="2" d="M151,-125C151,-125 235.5,-125 235.5,-125 241.5,-125 247.5,-131 247.5,-137 247.5,-137 247.5,-168 247.5,-168 247.5,-174 241.5,-180 235.5,-180 235.5,-180 151,-180 151,-180 145,-180 139,-174 139,-168 139,-168 139,-137 139,-137 139,-131 145,-125 151,-125"/>
<text text-anchor="middle" x="193.25" y="-167.45" font-family="Helvetica,sans-Serif" font-weight="bold" font-size="9.00">inputs</text>
</g>
<g id="clust5" class="cluster">
<title>cluster_src/components/utils</title>
<path fill="#ffffff" stroke="black" stroke-width="2" d="M144.25,-62C144.25,-62 242.25,-62 242.25,-62 248.25,-62 254.25,-68 254.25,-74 254.25,-74 254.25,-105 254.25,-105 254.25,-111 248.25,-117 242.25,-117 242.25,-117 144.25,-117 144.25,-117 138.25,-117 132.25,-111 132.25,-105 132.25,-105 132.25,-74 132.25,-74 132.25,-68 138.25,-62 144.25,-62"/>
<text text-anchor="middle" x="193.25" y="-104.45" font-family="Helvetica,sans-Serif" font-weight="bold" font-size="9.00">utils</text>
</g>
<g id="clust6" class="cluster">
<title>cluster_src/stores</title>
<path fill="#ffffff" stroke="black" stroke-width="2" d="M282.25,-78C282.25,-78 358.5,-78 358.5,-78 364.5,-78 370.5,-84 370.5,-90 370.5,-90 370.5,-152 370.5,-152 370.5,-158 364.5,-164 358.5,-164 358.5,-164 282.25,-164 282.25,-164 276.25,-164 270.25,-158 270.25,-152 270.25,-152 270.25,-90 270.25,-90 270.25,-84 276.25,-78 282.25,-78"/>
<text text-anchor="middle" x="320.38" y="-151.45" font-family="Helvetica,sans-Serif" font-weight="bold" font-size="9.00">stores</text>
</g>
<g id="clust7" class="cluster">
<title>cluster_src/views</title>
<path fill="#ffffff" stroke="black" stroke-width="2" d="M28,-125C28,-125 104.25,-125 104.25,-125 110.25,-125 116.25,-131 116.25,-137 116.25,-137 116.25,-199 116.25,-199 116.25,-205 110.25,-211 104.25,-211 104.25,-211 28,-211 28,-211 22,-211 16,-205 16,-199 16,-199 16,-137 16,-137 16,-131 22,-125 28,-125"/>
<text text-anchor="middle" x="66.12" y="-198.45" font-family="Helvetica,sans-Serif" font-weight="bold" font-size="9.00">views</text>
</g>
<!-- src/application/index.ts -->
<g id="node1" class="node">
<title>src/application/index.ts</title>
<g id="a_node1"><a xlink:href="src/application/index.ts" xlink:title="index.ts">
<path fill="#ddfeff" stroke="black" d="M434.08,-105.62C434.08,-105.62 392.92,-105.62 392.92,-105.62 389.71,-105.62 386.5,-102.42 386.5,-99.21 386.5,-99.21 386.5,-92.79 386.5,-92.79 386.5,-89.58 389.71,-86.38 392.92,-86.38 392.92,-86.38 434.08,-86.38 434.08,-86.38 437.29,-86.38 440.5,-89.58 440.5,-92.79 440.5,-92.79 440.5,-99.21 440.5,-99.21 440.5,-102.42 437.29,-105.62 434.08,-105.62"/>
<text text-anchor="start" x="397.75" y="-93.08" font-family="Helvetica,sans-Serif" font-size="9.00">index.ts</text>
</a>
</g>
</g>
<!-- src/components/VideoCard.vue -->
<g id="node2" class="node">
<title>src/components/VideoCard.vue</title>
<g id="a_node2"><a xlink:href="src/components/VideoCard.vue" xlink:title="VideoCard.vue">
<path fill="#41f083" stroke="black" d="M224.83,-53.62C224.83,-53.62 161.67,-53.62 161.67,-53.62 158.46,-53.62 155.25,-50.42 155.25,-47.21 155.25,-47.21 155.25,-40.79 155.25,-40.79 155.25,-37.58 158.46,-34.38 161.67,-34.38 161.67,-34.38 224.83,-34.38 224.83,-34.38 228.04,-34.38 231.25,-37.58 231.25,-40.79 231.25,-40.79 231.25,-47.21 231.25,-47.21 231.25,-50.42 228.04,-53.62 224.83,-53.62"/>
<text text-anchor="start" x="163.25" y="-41.08" font-family="Helvetica,sans-Serif" font-size="9.00">VideoCard.vue</text>
</a>
</g>
</g>
<!-- src/stores/videosStore.ts -->
<g id="node3" class="node">
<title>src/stores/videosStore.ts</title>
<g id="a_node3"><a xlink:href="src/stores/videosStore.ts" xlink:title="videosStore.ts">
<path fill="#ddfeff" stroke="black" d="M351.21,-105.62C351.21,-105.62 289.54,-105.62 289.54,-105.62 286.33,-105.62 283.12,-102.42 283.12,-99.21 283.12,-99.21 283.12,-92.79 283.12,-92.79 283.12,-89.58 286.33,-86.38 289.54,-86.38 289.54,-86.38 351.21,-86.38 351.21,-86.38 354.42,-86.38 357.62,-89.58 357.62,-92.79 357.62,-92.79 357.62,-99.21 357.62,-99.21 357.62,-102.42 354.42,-105.62 351.21,-105.62"/>
<text text-anchor="start" x="291.12" y="-93.08" font-family="Helvetica,sans-Serif" font-size="9.00">videosStore.ts</text>
</a>
</g>
</g>
<!-- src/components/VideoCard.vue&#45;&gt;src/stores/videosStore.ts -->
<g id="edge1" class="edge">
<title>src/components/VideoCard.vue&#45;&gt;src/stores/videosStore.ts</title>
<path fill="none" stroke="#000000" stroke-width="2" stroke-opacity="0.200000" d="M231.69,-49.75C241.84,-51.98 252.66,-54.99 262.25,-59 275.58,-64.57 289.22,-73.27 299.82,-80.83"/>
<polygon fill="#000000" fill-opacity="0.200000" stroke="#000000" stroke-width="2" stroke-opacity="0.200000" points="298.44,-82.42 304.52,-84.28 300.93,-79.03 298.44,-82.42"/>
</g>
<!-- src/stores/videosStore.ts&#45;&gt;src/application/index.ts -->
<g id="edge4" class="edge">
<title>src/stores/videosStore.ts&#45;&gt;src/application/index.ts</title>
<path fill="none" stroke="#000000" stroke-width="2" stroke-opacity="0.200000" d="M357.91,-96C364.23,-96 370.8,-96 377.09,-96"/>
<polygon fill="#000000" fill-opacity="0.200000" stroke="#000000" stroke-width="2" stroke-opacity="0.200000" points="377.02,-98.1 383.02,-96 377.02,-93.9 377.02,-98.1"/>
</g>
<!-- src/components/inputs/FolderSelector.vue -->
<g id="node4" class="node">
<title>src/components/inputs/FolderSelector.vue</title>
<g id="a_node4"><a xlink:href="src/components/inputs/FolderSelector.vue" xlink:title="FolderSelector.vue">
<path fill="#41f083" stroke="black" d="M233.08,-152.62C233.08,-152.62 153.42,-152.62 153.42,-152.62 150.21,-152.62 147,-149.42 147,-146.21 147,-146.21 147,-139.79 147,-139.79 147,-136.58 150.21,-133.38 153.42,-133.38 153.42,-133.38 233.08,-133.38 233.08,-133.38 236.29,-133.38 239.5,-136.58 239.5,-139.79 239.5,-139.79 239.5,-146.21 239.5,-146.21 239.5,-149.42 236.29,-152.62 233.08,-152.62"/>
<text text-anchor="start" x="155" y="-140.07" font-family="Helvetica,sans-Serif" font-size="9.00">FolderSelector.vue</text>
</a>
</g>
</g>
<!-- src/components/inputs/FolderSelector.vue&#45;&gt;src/stores/videosStore.ts -->
<g id="edge2" class="edge">
<title>src/components/inputs/FolderSelector.vue&#45;&gt;src/stores/videosStore.ts</title>
<path fill="none" stroke="#000000" stroke-width="2" stroke-opacity="0.200000" d="M235.41,-132.89C244.67,-129.6 254.15,-125.37 262.25,-120 266.71,-117.04 265.75,-113.89 270.25,-111 271.69,-110.08 273.18,-109.21 274.72,-108.4"/>
<polygon fill="#000000" fill-opacity="0.200000" stroke="#000000" stroke-width="2" stroke-opacity="0.200000" points="275.37,-110.41 279.94,-105.99 273.61,-106.6 275.37,-110.41"/>
</g>
<!-- src/components/utils/DiagnosticsPanel.vue -->
<g id="node5" class="node">
<title>src/components/utils/DiagnosticsPanel.vue</title>
<g id="a_node5"><a xlink:href="src/components/utils/DiagnosticsPanel.vue" xlink:title="DiagnosticsPanel.vue">
<path fill="#41f083" stroke="black" d="M239.83,-89.62C239.83,-89.62 146.67,-89.62 146.67,-89.62 143.46,-89.62 140.25,-86.42 140.25,-83.21 140.25,-83.21 140.25,-76.79 140.25,-76.79 140.25,-73.58 143.46,-70.38 146.67,-70.38 146.67,-70.38 239.83,-70.38 239.83,-70.38 243.04,-70.38 246.25,-73.58 246.25,-76.79 246.25,-76.79 246.25,-83.21 246.25,-83.21 246.25,-86.42 243.04,-89.62 239.83,-89.62"/>
<text text-anchor="start" x="148.25" y="-77.08" font-family="Helvetica,sans-Serif" font-size="9.00">DiagnosticsPanel.vue</text>
</a>
</g>
</g>
<!-- src/stores/appStateStore.ts -->
<g id="node6" class="node">
<title>src/stores/appStateStore.ts</title>
<g id="a_node6"><a xlink:href="src/stores/appStateStore.ts" xlink:title="appStateStore.ts">
<path fill="#ddfeff" stroke="black" d="M356.08,-136.62C356.08,-136.62 284.67,-136.62 284.67,-136.62 281.46,-136.62 278.25,-133.42 278.25,-130.21 278.25,-130.21 278.25,-123.79 278.25,-123.79 278.25,-120.58 281.46,-117.38 284.67,-117.38 284.67,-117.38 356.08,-117.38 356.08,-117.38 359.29,-117.38 362.5,-120.58 362.5,-123.79 362.5,-123.79 362.5,-130.21 362.5,-130.21 362.5,-133.42 359.29,-136.62 356.08,-136.62"/>
<text text-anchor="start" x="286.25" y="-124.08" font-family="Helvetica,sans-Serif" font-size="9.00">appStateStore.ts</text>
</a>
</g>
</g>
<!-- src/components/utils/DiagnosticsPanel.vue&#45;&gt;src/stores/appStateStore.ts -->
<g id="edge3" class="edge">
<title>src/components/utils/DiagnosticsPanel.vue&#45;&gt;src/stores/appStateStore.ts</title>
<path fill="none" stroke="#000000" stroke-width="2" stroke-opacity="0.200000" d="M216.29,-89.99C231.34,-96.63 251.81,-105.32 270.25,-112 272.3,-112.74 274.42,-113.48 276.55,-114.21"/>
<polygon fill="#000000" fill-opacity="0.200000" stroke="#000000" stroke-width="2" stroke-opacity="0.200000" points="275.64,-116.12 282,-116 276.96,-112.13 275.64,-116.12"/>
</g>
<!-- src/views/NavBar.vue -->
<g id="node7" class="node">
<title>src/views/NavBar.vue</title>
<g id="a_node7"><a xlink:href="src/views/NavBar.vue" xlink:title="NavBar.vue">
<path fill="#41f083" stroke="black" d="M90.96,-152.62C90.96,-152.62 41.29,-152.62 41.29,-152.62 38.08,-152.62 34.88,-149.42 34.88,-146.21 34.88,-146.21 34.88,-139.79 34.88,-139.79 34.88,-136.58 38.08,-133.38 41.29,-133.38 41.29,-133.38 90.96,-133.38 90.96,-133.38 94.17,-133.38 97.38,-136.58 97.38,-139.79 97.38,-139.79 97.38,-146.21 97.38,-146.21 97.38,-149.42 94.17,-152.62 90.96,-152.62"/>
<text text-anchor="start" x="42.88" y="-140.07" font-family="Helvetica,sans-Serif" font-size="9.00">NavBar.vue</text>
</a>
</g>
</g>
<!-- src/views/NavBar.vue&#45;&gt;src/stores/videosStore.ts -->
<g id="edge7" class="edge">
<title>src/views/NavBar.vue&#45;&gt;src/stores/videosStore.ts</title>
<path fill="none" stroke="#000000" stroke-width="2" stroke-opacity="0.200000" d="M68.36,-132.92C71.93,-108.81 84.65,-48.01 124.25,-23 176.11,9.75 207.11,3.87 262.25,-23 285.62,-34.39 302.25,-60.48 311.33,-78.18"/>
<polygon fill="#000000" fill-opacity="0.200000" stroke="#000000" stroke-width="2" stroke-opacity="0.200000" points="309.34,-78.89 313.86,-83.37 313.12,-77.05 309.34,-78.89"/>
</g>
<!-- src/views/NavBar.vue&#45;&gt;src/components/inputs/FolderSelector.vue -->
<g id="edge5" class="edge">
<title>src/views/NavBar.vue&#45;&gt;src/components/inputs/FolderSelector.vue</title>
<path fill="none" stroke="#000000" stroke-width="2" stroke-opacity="0.200000" d="M97.73,-143C109.84,-143 124.13,-143 137.88,-143"/>
<polygon fill="#000000" fill-opacity="0.200000" stroke="#000000" stroke-width="2" stroke-opacity="0.200000" points="137.79,-145.1 143.79,-143 137.79,-140.9 137.79,-145.1"/>
</g>
<!-- src/views/NavBar.vue&#45;&gt;src/stores/appStateStore.ts -->
<g id="edge6" class="edge">
<title>src/views/NavBar.vue&#45;&gt;src/stores/appStateStore.ts</title>
<path fill="none" stroke="#000000" stroke-width="2" stroke-opacity="0.200000" d="M97.66,-147.42C104.47,-149.65 111.17,-152.99 116.25,-158 124.55,-166.19 114.83,-176.12 124.25,-183 173.79,-219.16 205.47,-206.19 262.25,-183 281.38,-175.19 297.57,-157.54 307.78,-144.13"/>
<polygon fill="#000000" fill-opacity="0.200000" stroke="#000000" stroke-width="2" stroke-opacity="0.200000" points="309.47,-145.37 311.29,-139.28 306.07,-142.9 309.47,-145.37"/>
</g>
<!-- src/views/VideoGallery.vue -->
<g id="node8" class="node">
<title>src/views/VideoGallery.vue</title>
<g id="a_node8"><a xlink:href="src/views/VideoGallery.vue" xlink:title="VideoGallery.vue">
<path fill="#41f083" stroke="black" d="M101.83,-183.62C101.83,-183.62 30.42,-183.62 30.42,-183.62 27.21,-183.62 24,-180.42 24,-177.21 24,-177.21 24,-170.79 24,-170.79 24,-167.58 27.21,-164.38 30.42,-164.38 30.42,-164.38 101.83,-164.38 101.83,-164.38 105.04,-164.38 108.25,-167.58 108.25,-170.79 108.25,-170.79 108.25,-177.21 108.25,-177.21 108.25,-180.42 105.04,-183.62 101.83,-183.62"/>
<text text-anchor="start" x="32" y="-171.07" font-family="Helvetica,sans-Serif" font-size="9.00">VideoGallery.vue</text>
</a>
</g>
</g>
<!-- src/views/VideoGallery.vue&#45;&gt;src/components/VideoCard.vue -->
<g id="edge8" class="edge">
<title>src/views/VideoGallery.vue&#45;&gt;src/components/VideoCard.vue</title>
<path fill="none" stroke="#000000" stroke-width="2" stroke-opacity="0.200000" d="M108.71,-165.64C111.55,-163.83 114.13,-161.64 116.25,-159 130.22,-141.63 109.6,-75.81 124.25,-59 130.03,-52.37 138.01,-48.3 146.49,-45.86"/>
<polygon fill="#000000" fill-opacity="0.200000" stroke="#000000" stroke-width="2" stroke-opacity="0.200000" points="146.71,-47.96 152.1,-44.6 145.79,-43.87 146.71,-47.96"/>
</g>
<!-- src/views/VideoGallery.vue&#45;&gt;src/stores/videosStore.ts -->
<g id="edge9" class="edge">
<title>src/views/VideoGallery.vue&#45;&gt;src/stores/videosStore.ts</title>
<path fill="none" stroke="#000000" stroke-width="2" stroke-opacity="0.200000" d="M89.77,-184.05C130.01,-200.2 214.24,-225.97 262.25,-183 274.25,-172.26 259.97,-123.39 270.25,-111 271.74,-109.2 273.45,-107.61 275.31,-106.21"/>
<polygon fill="#000000" fill-opacity="0.200000" stroke="#000000" stroke-width="2" stroke-opacity="0.200000" points="276.34,-108.03 280.47,-103.2 274.23,-104.4 276.34,-108.03"/>
</g>
</g>
</svg>
