<?xml version="1.0" encoding="UTF-8" standalone="no"?>
<!DOCTYPE svg PUBLIC "-//W3C//DTD SVG 1.1//EN"
 "http://www.w3.org/Graphics/SVG/1.1/DTD/svg11.dtd">
<!-- Generated by graphviz version 9.0.0 (20230911.1827)
 -->
<!-- Title: dependency&#45;cruiser output Pages: 1 -->
<svg width="473pt" height="292pt"
 viewBox="0.00 0.00 472.50 292.00" xmlns="http://www.w3.org/2000/svg" xmlns:xlink="http://www.w3.org/1999/xlink">
<g id="graph0" class="graph" transform="scale(1 1) rotate(0) translate(4 288)">
<title>dependency&#45;cruiser output</title>
<polygon fill="white" stroke="none" points="-4,4 -4,-288 468.5,-288 468.5,4 -4,4"/>
<g id="clust1" class="cluster">
<title>cluster_src</title>
<path fill="#ffffff" stroke="black" stroke-width="2" d="M20,-8C20,-8 444.5,-8 444.5,-8 450.5,-8 456.5,-14 456.5,-20 456.5,-20 456.5,-264 456.5,-264 456.5,-270 450.5,-276 444.5,-276 444.5,-276 20,-276 20,-276 14,-276 8,-270 8,-264 8,-264 8,-20 8,-20 8,-14 14,-8 20,-8"/>
<text text-anchor="middle" x="232.25" y="-263.45" font-family="Helvetica,sans-Serif" font-weight="bold" font-size="9.00">src</text>
</g>
<g id="clust2" class="cluster">
<title>cluster_src/application</title>
<path fill="#ffffff" stroke="black" stroke-width="2" d="M390.5,-123C390.5,-123 436.5,-123 436.5,-123 442.5,-123 448.5,-129 448.5,-135 448.5,-135 448.5,-166 448.5,-166 448.5,-172 442.5,-178 436.5,-178 436.5,-178 390.5,-178 390.5,-178 384.5,-178 378.5,-172 378.5,-166 378.5,-166 378.5,-135 378.5,-135 378.5,-129 384.5,-123 390.5,-123"/>
<text text-anchor="middle" x="413.5" y="-165.45" font-family="Helvetica,sans-Serif" font-weight="bold" font-size="9.00">application</text>
</g>
<g id="clust6" class="cluster">
<title>cluster_src/domain</title>
<path fill="#ffffff" stroke="black" stroke-width="2" d="M390.5,-58C390.5,-58 436.5,-58 436.5,-58 442.5,-58 448.5,-64 448.5,-70 448.5,-70 448.5,-101 448.5,-101 448.5,-107 442.5,-113 436.5,-113 436.5,-113 390.5,-113 390.5,-113 384.5,-113 378.5,-107 378.5,-101 378.5,-101 378.5,-70 378.5,-70 378.5,-64 384.5,-58 390.5,-58"/>
<text text-anchor="middle" x="413.5" y="-100.45" font-family="Helvetica,sans-Serif" font-weight="bold" font-size="9.00">domain</text>
</g>
<g id="clust3" class="cluster">
<title>cluster_src/components</title>
<path fill="#ffffff" stroke="black" stroke-width="2" d="M136.25,-16C136.25,-16 250.25,-16 250.25,-16 256.25,-16 262.25,-22 262.25,-28 262.25,-28 262.25,-185 262.25,-185 262.25,-191 256.25,-197 250.25,-197 250.25,-197 136.25,-197 136.25,-197 130.25,-197 124.25,-191 124.25,-185 124.25,-185 124.25,-28 124.25,-28 124.25,-22 130.25,-16 136.25,-16"/>
<text text-anchor="middle" x="193.25" y="-184.45" font-family="Helvetica,sans-Serif" font-weight="bold" font-size="9.00">components</text>
</g>
<g id="clust5" class="cluster">
<title>cluster_src/components/utils</title>
<path fill="#ffffff" stroke="black" stroke-width="2" d="M144.25,-115C144.25,-115 242.25,-115 242.25,-115 248.25,-115 254.25,-121 254.25,-127 254.25,-127 254.25,-158 254.25,-158 254.25,-164 248.25,-170 242.25,-170 242.25,-170 144.25,-170 144.25,-170 138.25,-170 132.25,-164 132.25,-158 132.25,-158 132.25,-127 132.25,-127 132.25,-121 138.25,-115 144.25,-115"/>
<text text-anchor="middle" x="193.25" y="-157.45" font-family="Helvetica,sans-Serif" font-weight="bold" font-size="9.00">utils</text>
</g>
<g id="clust4" class="cluster">
<title>cluster_src/components/inputs</title>
<path fill="#ffffff" stroke="black" stroke-width="2" d="M163.38,-52C163.38,-52 223.12,-52 223.12,-52 229.12,-52 235.12,-58 235.12,-64 235.12,-64 235.12,-95 235.12,-95 235.12,-101 229.12,-107 223.12,-107 223.12,-107 163.38,-107 163.38,-107 157.38,-107 151.38,-101 151.38,-95 151.38,-95 151.38,-64 151.38,-64 151.38,-58 157.38,-52 163.38,-52"/>
<text text-anchor="middle" x="193.25" y="-94.45" font-family="Helvetica,sans-Serif" font-weight="bold" font-size="9.00">inputs</text>
</g>
<g id="clust7" class="cluster">
<title>cluster_src/stores</title>
<path fill="#ffffff" stroke="black" stroke-width="2" d="M282.25,-123C282.25,-123 358.5,-123 358.5,-123 364.5,-123 370.5,-129 370.5,-135 370.5,-135 370.5,-197 370.5,-197 370.5,-203 364.5,-209 358.5,-209 358.5,-209 282.25,-209 282.25,-209 276.25,-209 270.25,-203 270.25,-197 270.25,-197 270.25,-135 270.25,-135 270.25,-129 276.25,-123 282.25,-123"/>
<text text-anchor="middle" x="320.38" y="-196.45" font-family="Helvetica,sans-Serif" font-weight="bold" font-size="9.00">stores</text>
</g>
<g id="clust8" class="cluster">
<title>cluster_src/views</title>
<path fill="#ffffff" stroke="black" stroke-width="2" d="M28,-163C28,-163 104.25,-163 104.25,-163 110.25,-163 116.25,-169 116.25,-175 116.25,-175 116.25,-237 116.25,-237 116.25,-243 110.25,-249 104.25,-249 104.25,-249 28,-249 28,-249 22,-249 16,-243 16,-237 16,-237 16,-175 16,-175 16,-169 22,-163 28,-163"/>
<text text-anchor="middle" x="66.12" y="-236.45" font-family="Helvetica,sans-Serif" font-weight="bold" font-size="9.00">views</text>
</g>
<!-- src/application/index.ts -->
<g id="node1" class="node">
<title>src/application/index.ts</title>
<g id="a_node1"><a xlink:href="src/application/index.ts" xlink:title="index.ts">
<path fill="#ddfeff" stroke="black" d="M434.08,-150.62C434.08,-150.62 392.92,-150.62 392.92,-150.62 389.71,-150.62 386.5,-147.42 386.5,-144.21 386.5,-144.21 386.5,-137.79 386.5,-137.79 386.5,-134.58 389.71,-131.38 392.92,-131.38 392.92,-131.38 434.08,-131.38 434.08,-131.38 437.29,-131.38 440.5,-134.58 440.5,-137.79 440.5,-137.79 440.5,-144.21 440.5,-144.21 440.5,-147.42 437.29,-150.62 434.08,-150.62"/>
<text text-anchor="start" x="397.75" y="-138.07" font-family="Helvetica,sans-Serif" font-size="9.00">index.ts</text>
</a>
</g>
</g>
<!-- src/components/VideoCard.vue -->
<g id="node2" class="node">
<title>src/components/VideoCard.vue</title>
<g id="a_node2"><a xlink:href="src/components/VideoCard.vue" xlink:title="VideoCard.vue">
<path fill="#41f083" stroke="black" d="M224.83,-43.62C224.83,-43.62 161.67,-43.62 161.67,-43.62 158.46,-43.62 155.25,-40.42 155.25,-37.21 155.25,-37.21 155.25,-30.79 155.25,-30.79 155.25,-27.58 158.46,-24.38 161.67,-24.38 161.67,-24.38 224.83,-24.38 224.83,-24.38 228.04,-24.38 231.25,-27.58 231.25,-30.79 231.25,-30.79 231.25,-37.21 231.25,-37.21 231.25,-40.42 228.04,-43.62 224.83,-43.62"/>
<text text-anchor="start" x="163.25" y="-31.07" font-family="Helvetica,sans-Serif" font-size="9.00">VideoCard.vue</text>
</a>
</g>
</g>
<!-- src/domain/index.ts -->
<g id="node3" class="node">
<title>src/domain/index.ts</title>
<g id="a_node3"><a xlink:href="src/domain/index.ts" xlink:title="index.ts">
<path fill="#ddfeff" stroke="black" d="M434.08,-85.62C434.08,-85.62 392.92,-85.62 392.92,-85.62 389.71,-85.62 386.5,-82.42 386.5,-79.21 386.5,-79.21 386.5,-72.79 386.5,-72.79 386.5,-69.58 389.71,-66.38 392.92,-66.38 392.92,-66.38 434.08,-66.38 434.08,-66.38 437.29,-66.38 440.5,-69.58 440.5,-72.79 440.5,-72.79 440.5,-79.21 440.5,-79.21 440.5,-82.42 437.29,-85.62 434.08,-85.62"/>
<text text-anchor="start" x="397.75" y="-73.08" font-family="Helvetica,sans-Serif" font-size="9.00">index.ts</text>
</a>
</g>
</g>
<!-- src/components/VideoCard.vue&#45;&gt;src/domain/index.ts -->
<g id="edge1" class="edge">
<title>src/components/VideoCard.vue&#45;&gt;src/domain/index.ts</title>
<path fill="none" stroke="#000000" stroke-opacity="0.200000" d="M231.27,-41.12C272.72,-49.1 339.28,-61.91 379.16,-69.58"/>
<polygon fill="none" stroke="#000000" stroke-opacity="0.200000" points="378.51,-71.6 384.8,-70.67 379.3,-67.47 378.51,-71.6"/>
</g>
<!-- src/stores/videosStore.ts -->
<g id="node4" class="node">
<title>src/stores/videosStore.ts</title>
<g id="a_node4"><a xlink:href="src/stores/videosStore.ts" xlink:title="videosStore.ts">
<path fill="#ddfeff" stroke="black" d="M351.21,-150.62C351.21,-150.62 289.54,-150.62 289.54,-150.62 286.33,-150.62 283.12,-147.42 283.12,-144.21 283.12,-144.21 283.12,-137.79 283.12,-137.79 283.12,-134.58 286.33,-131.38 289.54,-131.38 289.54,-131.38 351.21,-131.38 351.21,-131.38 354.42,-131.38 357.62,-134.58 357.62,-137.79 357.62,-137.79 357.62,-144.21 357.62,-144.21 357.62,-147.42 354.42,-150.62 351.21,-150.62"/>
<text text-anchor="start" x="291.12" y="-138.07" font-family="Helvetica,sans-Serif" font-size="9.00">videosStore.ts</text>
</a>
</g>
</g>
<!-- src/components/VideoCard.vue&#45;&gt;src/stores/videosStore.ts -->
<g id="edge2" class="edge">
<title>src/components/VideoCard.vue&#45;&gt;src/stores/videosStore.ts</title>
<path fill="none" stroke="#000000" stroke-width="2" stroke-opacity="0.200000" d="M231.74,-36.81C242.33,-38.99 253.37,-42.71 262.25,-49 288.18,-67.36 304.77,-101.57 313.05,-122.7"/>
<polygon fill="#000000" fill-opacity="0.200000" stroke="#000000" stroke-width="2" stroke-opacity="0.200000" points="311.07,-123.4 315.13,-128.3 315.01,-121.94 311.07,-123.4"/>
</g>
<!-- src/stores/videosStore.ts&#45;&gt;src/application/index.ts -->
<g id="edge5" class="edge">
<title>src/stores/videosStore.ts&#45;&gt;src/application/index.ts</title>
<path fill="none" stroke="#000000" stroke-width="2" stroke-opacity="0.200000" d="M357.91,-141C364.23,-141 370.8,-141 377.09,-141"/>
<polygon fill="#000000" fill-opacity="0.200000" stroke="#000000" stroke-width="2" stroke-opacity="0.200000" points="377.02,-143.1 383.02,-141 377.02,-138.9 377.02,-143.1"/>
</g>
<!-- src/stores/videosStore.ts&#45;&gt;src/domain/index.ts -->
<g id="edge6" class="edge">
<title>src/stores/videosStore.ts&#45;&gt;src/domain/index.ts</title>
<path fill="none" stroke="#000000" stroke-opacity="0.200000" d="M335.21,-131.13C350.47,-120.25 375.14,-102.65 392.5,-90.27"/>
<polygon fill="none" stroke="#000000" stroke-opacity="0.200000" points="393.63,-92.04 397.3,-86.84 391.19,-88.62 393.63,-92.04"/>
</g>
<!-- src/components/inputs/FileInput.vue -->
<g id="node5" class="node">
<title>src/components/inputs/FileInput.vue</title>
<g id="a_node5"><a xlink:href="src/components/inputs/FileInput.vue" xlink:title="FileInput.vue">
<path fill="#41f083" stroke="black" d="M220.71,-79.62C220.71,-79.62 165.79,-79.62 165.79,-79.62 162.58,-79.62 159.38,-76.42 159.38,-73.21 159.38,-73.21 159.38,-66.79 159.38,-66.79 159.38,-63.58 162.58,-60.38 165.79,-60.38 165.79,-60.38 220.71,-60.38 220.71,-60.38 223.92,-60.38 227.12,-63.58 227.12,-66.79 227.12,-66.79 227.12,-73.21 227.12,-73.21 227.12,-76.42 223.92,-79.62 220.71,-79.62"/>
<text text-anchor="start" x="167.38" y="-67.08" font-family="Helvetica,sans-Serif" font-size="9.00">FileInput.vue</text>
</a>
</g>
</g>
<!-- src/components/inputs/FileInput.vue&#45;&gt;src/stores/videosStore.ts -->
<g id="edge3" class="edge">
<title>src/components/inputs/FileInput.vue&#45;&gt;src/stores/videosStore.ts</title>
<path fill="none" stroke="#000000" stroke-width="2" stroke-opacity="0.200000" d="M211.91,-80.02C233.34,-92.18 269.61,-112.76 294.02,-126.61"/>
<polygon fill="#000000" fill-opacity="0.200000" stroke="#000000" stroke-width="2" stroke-opacity="0.200000" points="292.92,-128.4 299.17,-129.54 294.99,-124.75 292.92,-128.4"/>
</g>
<!-- src/components/utils/DiagnosticsPanel.vue -->
<g id="node6" class="node">
<title>src/components/utils/DiagnosticsPanel.vue</title>
<g id="a_node6"><a xlink:href="src/components/utils/DiagnosticsPanel.vue" xlink:title="DiagnosticsPanel.vue">
<path fill="#41f083" stroke="black" d="M239.83,-142.62C239.83,-142.62 146.67,-142.62 146.67,-142.62 143.46,-142.62 140.25,-139.42 140.25,-136.21 140.25,-136.21 140.25,-129.79 140.25,-129.79 140.25,-126.58 143.46,-123.38 146.67,-123.38 146.67,-123.38 239.83,-123.38 239.83,-123.38 243.04,-123.38 246.25,-126.58 246.25,-129.79 246.25,-129.79 246.25,-136.21 246.25,-136.21 246.25,-139.42 243.04,-142.62 239.83,-142.62"/>
<text text-anchor="start" x="148.25" y="-130.07" font-family="Helvetica,sans-Serif" font-size="9.00">DiagnosticsPanel.vue</text>
</a>
</g>
</g>
<!-- src/stores/appStateStore.ts -->
<g id="node7" class="node">
<title>src/stores/appStateStore.ts</title>
<g id="a_node7"><a xlink:href="src/stores/appStateStore.ts" xlink:title="appStateStore.ts">
<path fill="#ddfeff" stroke="black" d="M356.08,-181.62C356.08,-181.62 284.67,-181.62 284.67,-181.62 281.46,-181.62 278.25,-178.42 278.25,-175.21 278.25,-175.21 278.25,-168.79 278.25,-168.79 278.25,-165.58 281.46,-162.38 284.67,-162.38 284.67,-162.38 356.08,-162.38 356.08,-162.38 359.29,-162.38 362.5,-165.58 362.5,-168.79 362.5,-168.79 362.5,-175.21 362.5,-175.21 362.5,-178.42 359.29,-181.62 356.08,-181.62"/>
<text text-anchor="start" x="286.25" y="-169.07" font-family="Helvetica,sans-Serif" font-size="9.00">appStateStore.ts</text>
</a>
</g>
</g>
<!-- src/components/utils/DiagnosticsPanel.vue&#45;&gt;src/stores/appStateStore.ts -->
<g id="edge4" class="edge">
<title>src/components/utils/DiagnosticsPanel.vue&#45;&gt;src/stores/appStateStore.ts</title>
<path fill="none" stroke="#000000" stroke-width="2" stroke-opacity="0.200000" d="M226.03,-143.11C239.64,-147.42 255.71,-152.49 270.25,-157 272.65,-157.74 275.11,-158.51 277.59,-159.27"/>
<polygon fill="#000000" fill-opacity="0.200000" stroke="#000000" stroke-width="2" stroke-opacity="0.200000" points="276.82,-161.23 283.17,-160.99 278.05,-157.22 276.82,-161.23"/>
</g>
<!-- src/views/NavBar.vue -->
<g id="node8" class="node">
<title>src/views/NavBar.vue</title>
<g id="a_node8"><a xlink:href="src/views/NavBar.vue" xlink:title="NavBar.vue">
<path fill="#41f083" stroke="black" d="M90.96,-221.62C90.96,-221.62 41.29,-221.62 41.29,-221.62 38.08,-221.62 34.88,-218.42 34.88,-215.21 34.88,-215.21 34.88,-208.79 34.88,-208.79 34.88,-205.58 38.08,-202.38 41.29,-202.38 41.29,-202.38 90.96,-202.38 90.96,-202.38 94.17,-202.38 97.38,-205.58 97.38,-208.79 97.38,-208.79 97.38,-215.21 97.38,-215.21 97.38,-218.42 94.17,-221.62 90.96,-221.62"/>
<text text-anchor="start" x="42.88" y="-209.07" font-family="Helvetica,sans-Serif" font-size="9.00">NavBar.vue</text>
</a>
</g>
</g>
<!-- src/views/NavBar.vue&#45;&gt;src/stores/videosStore.ts -->
<g id="edge9" class="edge">
<title>src/views/NavBar.vue&#45;&gt;src/stores/videosStore.ts</title>
<path fill="none" stroke="#000000" stroke-width="2" stroke-opacity="0.200000" d="M97.75,-217.88C140.18,-224.13 216.74,-228.25 262.25,-188 273.23,-178.29 260.15,-166.63 270.25,-156 271.81,-154.36 273.54,-152.9 275.4,-151.59"/>
<polygon fill="#000000" fill-opacity="0.200000" stroke="#000000" stroke-width="2" stroke-opacity="0.200000" points="276.21,-153.54 280.42,-148.79 274.16,-149.88 276.21,-153.54"/>
</g>
<!-- src/views/NavBar.vue&#45;&gt;src/components/inputs/FileInput.vue -->
<g id="edge7" class="edge">
<title>src/views/NavBar.vue&#45;&gt;src/components/inputs/FileInput.vue</title>
<path fill="none" stroke="#000000" stroke-width="2" stroke-opacity="0.200000" d="M97.7,-208.57C104.76,-206.33 111.57,-202.74 116.25,-197 128.24,-182.3 114.24,-128.12 124.25,-112 131.82,-99.82 144.36,-90.62 156.62,-83.99"/>
<polygon fill="#000000" fill-opacity="0.200000" stroke="#000000" stroke-width="2" stroke-opacity="0.200000" points="157.46,-85.92 161.88,-81.36 155.58,-82.17 157.46,-85.92"/>
</g>
<!-- src/views/NavBar.vue&#45;&gt;src/stores/appStateStore.ts -->
<g id="edge8" class="edge">
<title>src/views/NavBar.vue&#45;&gt;src/stores/appStateStore.ts</title>
<path fill="none" stroke="#000000" stroke-width="2" stroke-opacity="0.200000" d="M97.72,-221.23C137.17,-231.47 207.25,-243.98 262.25,-223 280.32,-216.11 296.3,-200.58 306.73,-188.46"/>
<polygon fill="#000000" fill-opacity="0.200000" stroke="#000000" stroke-width="2" stroke-opacity="0.200000" points="308.09,-190.11 310.28,-184.15 304.84,-187.44 308.09,-190.11"/>
</g>
<!-- src/views/VideoGallery.vue -->
<g id="node9" class="node">
<title>src/views/VideoGallery.vue</title>
<g id="a_node9"><a xlink:href="src/views/VideoGallery.vue" xlink:title="VideoGallery.vue">
<path fill="#41f083" stroke="black" d="M101.83,-190.62C101.83,-190.62 30.42,-190.62 30.42,-190.62 27.21,-190.62 24,-187.42 24,-184.21 24,-184.21 24,-177.79 24,-177.79 24,-174.58 27.21,-171.38 30.42,-171.38 30.42,-171.38 101.83,-171.38 101.83,-171.38 105.04,-171.38 108.25,-174.58 108.25,-177.79 108.25,-177.79 108.25,-184.21 108.25,-184.21 108.25,-187.42 105.04,-190.62 101.83,-190.62"/>
<text text-anchor="start" x="32" y="-178.07" font-family="Helvetica,sans-Serif" font-size="9.00">VideoGallery.vue</text>
</a>
</g>
</g>
<!-- src/views/VideoGallery.vue&#45;&gt;src/components/VideoCard.vue -->
<g id="edge10" class="edge">
<title>src/views/VideoGallery.vue&#45;&gt;src/components/VideoCard.vue</title>
<path fill="none" stroke="#000000" stroke-width="2" stroke-opacity="0.200000" d="M68.37,-170.89C72.01,-145.99 84.95,-81.41 124.25,-49 130.55,-43.8 138.26,-40.3 146.2,-37.97"/>
<polygon fill="#000000" fill-opacity="0.200000" stroke="#000000" stroke-width="2" stroke-opacity="0.200000" points="146.57,-40.04 151.91,-36.58 145.58,-35.96 146.57,-40.04"/>
</g>
<!-- src/views/VideoGallery.vue&#45;&gt;src/stores/videosStore.ts -->
<g id="edge12" class="edge">
<title>src/views/VideoGallery.vue&#45;&gt;src/stores/videosStore.ts</title>
<path fill="none" stroke="#000000" stroke-width="2" stroke-opacity="0.200000" d="M108.61,-190.91C150.91,-198.54 216.63,-203.28 262.25,-173 269.21,-168.38 263.94,-161.47 270.25,-156 271.73,-154.72 273.32,-153.55 274.98,-152.48"/>
<polygon fill="#000000" fill-opacity="0.200000" stroke="#000000" stroke-width="2" stroke-opacity="0.200000" points="275.69,-154.48 280.01,-149.81 273.73,-150.76 275.69,-154.48"/>
</g>
<!-- src/views/VideoGallery.vue&#45;&gt;src/stores/appStateStore.ts -->
<g id="edge11" class="edge">
<title>src/views/VideoGallery.vue&#45;&gt;src/stores/appStateStore.ts</title>
<path fill="none" stroke="#000000" stroke-width="2" stroke-opacity="0.200000" d="M108.54,-191.01C111.27,-192.45 113.88,-194.11 116.25,-196 121.85,-200.47 118.05,-206.4 124.25,-210 177.3,-240.78 203.54,-227.74 262.25,-210 276.89,-205.58 291.21,-196.03 301.85,-187.62"/>
<polygon fill="#000000" fill-opacity="0.200000" stroke="#000000" stroke-width="2" stroke-opacity="0.200000" points="302.97,-189.42 306.26,-183.98 300.29,-186.18 302.97,-189.42"/>
</g>
</g>
</svg>
