<?xml version="1.0" encoding="UTF-8" standalone="no"?>
<!DOCTYPE svg PUBLIC "-//W3C//DTD SVG 1.1//EN"
 "http://www.w3.org/Graphics/SVG/1.1/DTD/svg11.dtd">
<!-- Generated by graphviz version 9.0.0 (20230911.1827)
 -->
<!-- Title: dependency&#45;cruiser output Pages: 1 -->
<svg width="473pt" height="292pt"
 viewBox="0.00 0.00 472.50 292.00" xmlns="http://www.w3.org/2000/svg" xmlns:xlink="http://www.w3.org/1999/xlink">
<g id="graph0" class="graph" transform="scale(1 1) rotate(0) translate(4 288)">
<title>dependency&#45;cruiser output</title>
<polygon fill="white" stroke="none" points="-4,4 -4,-288 468.5,-288 468.5,4 -4,4"/>
<g id="clust1" class="cluster">
<title>cluster_src</title>
<path fill="#ffffff" stroke="black" stroke-width="2" d="M20,-8C20,-8 444.5,-8 444.5,-8 450.5,-8 456.5,-14 456.5,-20 456.5,-20 456.5,-264 456.5,-264 456.5,-270 450.5,-276 444.5,-276 444.5,-276 20,-276 20,-276 14,-276 8,-270 8,-264 8,-264 8,-20 8,-20 8,-14 14,-8 20,-8"/>
<text text-anchor="middle" x="232.25" y="-263.45" font-family="Helvetica,sans-Serif" font-weight="bold" font-size="9.00">src</text>
</g>
<g id="clust2" class="cluster">
<title>cluster_src/application</title>
<path fill="#ffffff" stroke="black" stroke-width="2" d="M390.5,-139C390.5,-139 436.5,-139 436.5,-139 442.5,-139 448.5,-145 448.5,-151 448.5,-151 448.5,-182 448.5,-182 448.5,-188 442.5,-194 436.5,-194 436.5,-194 390.5,-194 390.5,-194 384.5,-194 378.5,-188 378.5,-182 378.5,-182 378.5,-151 378.5,-151 378.5,-145 384.5,-139 390.5,-139"/>
<text text-anchor="middle" x="413.5" y="-181.45" font-family="Helvetica,sans-Serif" font-weight="bold" font-size="9.00">application</text>
</g>
<g id="clust3" class="cluster">
<title>cluster_src/components</title>
<path fill="#ffffff" stroke="black" stroke-width="2" d="M136.25,-16C136.25,-16 250.25,-16 250.25,-16 256.25,-16 262.25,-22 262.25,-28 262.25,-28 262.25,-185 262.25,-185 262.25,-191 256.25,-197 250.25,-197 250.25,-197 136.25,-197 136.25,-197 130.25,-197 124.25,-191 124.25,-185 124.25,-185 124.25,-28 124.25,-28 124.25,-22 130.25,-16 136.25,-16"/>
<text text-anchor="middle" x="193.25" y="-184.45" font-family="Helvetica,sans-Serif" font-weight="bold" font-size="9.00">components</text>
</g>
<g id="clust4" class="cluster">
<title>cluster_src/components/inputs</title>
<path fill="#ffffff" stroke="black" stroke-width="2" d="M163.38,-115C163.38,-115 223.12,-115 223.12,-115 229.12,-115 235.12,-121 235.12,-127 235.12,-127 235.12,-158 235.12,-158 235.12,-164 229.12,-170 223.12,-170 223.12,-170 163.38,-170 163.38,-170 157.38,-170 151.38,-164 151.38,-158 151.38,-158 151.38,-127 151.38,-127 151.38,-121 157.38,-115 163.38,-115"/>
<text text-anchor="middle" x="193.25" y="-157.45" font-family="Helvetica,sans-Serif" font-weight="bold" font-size="9.00">inputs</text>
</g>
<g id="clust5" class="cluster">
<title>cluster_src/components/utils</title>
<path fill="#ffffff" stroke="black" stroke-width="2" d="M144.25,-52C144.25,-52 242.25,-52 242.25,-52 248.25,-52 254.25,-58 254.25,-64 254.25,-64 254.25,-95 254.25,-95 254.25,-101 248.25,-107 242.25,-107 242.25,-107 144.25,-107 144.25,-107 138.25,-107 132.25,-101 132.25,-95 132.25,-95 132.25,-64 132.25,-64 132.25,-58 138.25,-52 144.25,-52"/>
<text text-anchor="middle" x="193.25" y="-94.45" font-family="Helvetica,sans-Serif" font-weight="bold" font-size="9.00">utils</text>
</g>
<g id="clust6" class="cluster">
<title>cluster_src/domain</title>
<path fill="#ffffff" stroke="black" stroke-width="2" d="M390.5,-58C390.5,-58 436.5,-58 436.5,-58 442.5,-58 448.5,-64 448.5,-70 448.5,-70 448.5,-101 448.5,-101 448.5,-107 442.5,-113 436.5,-113 436.5,-113 390.5,-113 390.5,-113 384.5,-113 378.5,-107 378.5,-101 378.5,-101 378.5,-70 378.5,-70 378.5,-64 384.5,-58 390.5,-58"/>
<text text-anchor="middle" x="413.5" y="-100.45" font-family="Helvetica,sans-Serif" font-weight="bold" font-size="9.00">domain</text>
</g>
<g id="clust7" class="cluster">
<title>cluster_src/stores</title>
<path fill="#ffffff" stroke="black" stroke-width="2" d="M282.25,-139C282.25,-139 358.5,-139 358.5,-139 364.5,-139 370.5,-145 370.5,-151 370.5,-151 370.5,-213 370.5,-213 370.5,-219 364.5,-225 358.5,-225 358.5,-225 282.25,-225 282.25,-225 276.25,-225 270.25,-219 270.25,-213 270.25,-213 270.25,-151 270.25,-151 270.25,-145 276.25,-139 282.25,-139"/>
<text text-anchor="middle" x="320.38" y="-212.45" font-family="Helvetica,sans-Serif" font-weight="bold" font-size="9.00">stores</text>
</g>
<g id="clust8" class="cluster">
<title>cluster_src/views</title>
<path fill="#ffffff" stroke="black" stroke-width="2" d="M28,-163C28,-163 104.25,-163 104.25,-163 110.25,-163 116.25,-169 116.25,-175 116.25,-175 116.25,-237 116.25,-237 116.25,-243 110.25,-249 104.25,-249 104.25,-249 28,-249 28,-249 22,-249 16,-243 16,-237 16,-237 16,-175 16,-175 16,-169 22,-163 28,-163"/>
<text text-anchor="middle" x="66.12" y="-236.45" font-family="Helvetica,sans-Serif" font-weight="bold" font-size="9.00">views</text>
</g>
<!-- src/application/index.ts -->
<g id="node1" class="node">
<title>src/application/index.ts</title>
<g id="a_node1"><a xlink:href="src/application/index.ts" xlink:title="index.ts">
<path fill="#ddfeff" stroke="black" d="M434.08,-166.62C434.08,-166.62 392.92,-166.62 392.92,-166.62 389.71,-166.62 386.5,-163.42 386.5,-160.21 386.5,-160.21 386.5,-153.79 386.5,-153.79 386.5,-150.58 389.71,-147.38 392.92,-147.38 392.92,-147.38 434.08,-147.38 434.08,-147.38 437.29,-147.38 440.5,-150.58 440.5,-153.79 440.5,-153.79 440.5,-160.21 440.5,-160.21 440.5,-163.42 437.29,-166.62 434.08,-166.62"/>
<text text-anchor="start" x="397.75" y="-154.07" font-family="Helvetica,sans-Serif" font-size="9.00">index.ts</text>
</a>
</g>
</g>
<!-- src/components/VideoCard.vue -->
<g id="node2" class="node">
<title>src/components/VideoCard.vue</title>
<g id="a_node2"><a xlink:href="src/components/VideoCard.vue" xlink:title="VideoCard.vue">
<path fill="#41f083" stroke="black" d="M224.83,-43.62C224.83,-43.62 161.67,-43.62 161.67,-43.62 158.46,-43.62 155.25,-40.42 155.25,-37.21 155.25,-37.21 155.25,-30.79 155.25,-30.79 155.25,-27.58 158.46,-24.38 161.67,-24.38 161.67,-24.38 224.83,-24.38 224.83,-24.38 228.04,-24.38 231.25,-27.58 231.25,-30.79 231.25,-30.79 231.25,-37.21 231.25,-37.21 231.25,-40.42 228.04,-43.62 224.83,-43.62"/>
<text text-anchor="start" x="163.25" y="-31.07" font-family="Helvetica,sans-Serif" font-size="9.00">VideoCard.vue</text>
</a>
</g>
</g>
<!-- src/domain/index.ts -->
<g id="node3" class="node">
<title>src/domain/index.ts</title>
<g id="a_node3"><a xlink:href="src/domain/index.ts" xlink:title="index.ts">
<path fill="#ddfeff" stroke="black" d="M434.08,-85.62C434.08,-85.62 392.92,-85.62 392.92,-85.62 389.71,-85.62 386.5,-82.42 386.5,-79.21 386.5,-79.21 386.5,-72.79 386.5,-72.79 386.5,-69.58 389.71,-66.38 392.92,-66.38 392.92,-66.38 434.08,-66.38 434.08,-66.38 437.29,-66.38 440.5,-69.58 440.5,-72.79 440.5,-72.79 440.5,-79.21 440.5,-79.21 440.5,-82.42 437.29,-85.62 434.08,-85.62"/>
<text text-anchor="start" x="397.75" y="-73.08" font-family="Helvetica,sans-Serif" font-size="9.00">index.ts</text>
</a>
</g>
</g>
<!-- src/components/VideoCard.vue&#45;&gt;src/domain/index.ts -->
<g id="edge1" class="edge">
<title>src/components/VideoCard.vue&#45;&gt;src/domain/index.ts</title>
<path fill="none" stroke="#000000" stroke-opacity="0.200000" d="M231.27,-41.12C272.72,-49.1 339.28,-61.91 379.16,-69.58"/>
<polygon fill="none" stroke="#000000" stroke-opacity="0.200000" points="378.51,-71.6 384.8,-70.67 379.3,-67.47 378.51,-71.6"/>
</g>
<!-- src/stores/videosStore.ts -->
<g id="node4" class="node">
<title>src/stores/videosStore.ts</title>
<g id="a_node4"><a xlink:href="src/stores/videosStore.ts" xlink:title="videosStore.ts">
<path fill="#ddfeff" stroke="black" d="M351.21,-166.62C351.21,-166.62 289.54,-166.62 289.54,-166.62 286.33,-166.62 283.12,-163.42 283.12,-160.21 283.12,-160.21 283.12,-153.79 283.12,-153.79 283.12,-150.58 286.33,-147.38 289.54,-147.38 289.54,-147.38 351.21,-147.38 351.21,-147.38 354.42,-147.38 357.62,-150.58 357.62,-153.79 357.62,-153.79 357.62,-160.21 357.62,-160.21 357.62,-163.42 354.42,-166.62 351.21,-166.62"/>
<text text-anchor="start" x="291.12" y="-154.07" font-family="Helvetica,sans-Serif" font-size="9.00">videosStore.ts</text>
</a>
</g>
</g>
<!-- src/components/VideoCard.vue&#45;&gt;src/stores/videosStore.ts -->
<g id="edge2" class="edge">
<title>src/components/VideoCard.vue&#45;&gt;src/stores/videosStore.ts</title>
<path fill="none" stroke="#000000" stroke-width="2" stroke-opacity="0.200000" d="M231.67,-36.36C242.37,-38.51 253.5,-42.34 262.25,-49 291.9,-71.57 307.76,-114.03 314.79,-138.44"/>
<polygon fill="#000000" fill-opacity="0.200000" stroke="#000000" stroke-width="2" stroke-opacity="0.200000" points="312.75,-138.96 316.35,-144.2 316.81,-137.86 312.75,-138.96"/>
</g>
<!-- src/stores/videosStore.ts&#45;&gt;src/application/index.ts -->
<g id="edge5" class="edge">
<title>src/stores/videosStore.ts&#45;&gt;src/application/index.ts</title>
<path fill="none" stroke="#000000" stroke-width="2" stroke-opacity="0.200000" d="M357.91,-157C364.23,-157 370.8,-157 377.09,-157"/>
<polygon fill="#000000" fill-opacity="0.200000" stroke="#000000" stroke-width="2" stroke-opacity="0.200000" points="377.02,-159.1 383.02,-157 377.02,-154.9 377.02,-159.1"/>
</g>
<!-- src/stores/videosStore.ts&#45;&gt;src/domain/index.ts -->
<g id="edge6" class="edge">
<title>src/stores/videosStore.ts&#45;&gt;src/domain/index.ts</title>
<path fill="none" stroke="#000000" stroke-opacity="0.200000" d="M332.55,-147.07C348.4,-132.98 377.52,-107.09 395.9,-90.75"/>
<polygon fill="none" stroke="#000000" stroke-opacity="0.200000" points="397.01,-92.57 400.1,-87.02 394.22,-89.44 397.01,-92.57"/>
</g>
<!-- src/components/inputs/FileInput.vue -->
<g id="node5" class="node">
<title>src/components/inputs/FileInput.vue</title>
<g id="a_node5"><a xlink:href="src/components/inputs/FileInput.vue" xlink:title="FileInput.vue">
<path fill="#41f083" stroke="black" d="M220.71,-142.62C220.71,-142.62 165.79,-142.62 165.79,-142.62 162.58,-142.62 159.38,-139.42 159.38,-136.21 159.38,-136.21 159.38,-129.79 159.38,-129.79 159.38,-126.58 162.58,-123.38 165.79,-123.38 165.79,-123.38 220.71,-123.38 220.71,-123.38 223.92,-123.38 227.12,-126.58 227.12,-129.79 227.12,-129.79 227.12,-136.21 227.12,-136.21 227.12,-139.42 223.92,-142.62 220.71,-142.62"/>
<text text-anchor="start" x="167.38" y="-130.07" font-family="Helvetica,sans-Serif" font-size="9.00">FileInput.vue</text>
</a>
</g>
</g>
<!-- src/components/inputs/FileInput.vue&#45;&gt;src/stores/videosStore.ts -->
<g id="edge3" class="edge">
<title>src/components/inputs/FileInput.vue&#45;&gt;src/stores/videosStore.ts</title>
<path fill="none" stroke="#000000" stroke-width="2" stroke-opacity="0.200000" d="M227.45,-139.37C241.87,-142.13 258.98,-145.41 274.5,-148.39"/>
<polygon fill="#000000" fill-opacity="0.200000" stroke="#000000" stroke-width="2" stroke-opacity="0.200000" points="273.67,-150.37 279.96,-149.44 274.46,-146.25 273.67,-150.37"/>
</g>
<!-- src/components/utils/DiagnosticsPanel.vue -->
<g id="node6" class="node">
<title>src/components/utils/DiagnosticsPanel.vue</title>
<g id="a_node6"><a xlink:href="src/components/utils/DiagnosticsPanel.vue" xlink:title="DiagnosticsPanel.vue">
<path fill="#41f083" stroke="black" d="M239.83,-79.62C239.83,-79.62 146.67,-79.62 146.67,-79.62 143.46,-79.62 140.25,-76.42 140.25,-73.21 140.25,-73.21 140.25,-66.79 140.25,-66.79 140.25,-63.58 143.46,-60.38 146.67,-60.38 146.67,-60.38 239.83,-60.38 239.83,-60.38 243.04,-60.38 246.25,-63.58 246.25,-66.79 246.25,-66.79 246.25,-73.21 246.25,-73.21 246.25,-76.42 243.04,-79.62 239.83,-79.62"/>
<text text-anchor="start" x="148.25" y="-67.08" font-family="Helvetica,sans-Serif" font-size="9.00">DiagnosticsPanel.vue</text>
</a>
</g>
</g>
<!-- src/stores/appStateStore.ts -->
<g id="node7" class="node">
<title>src/stores/appStateStore.ts</title>
<g id="a_node7"><a xlink:href="src/stores/appStateStore.ts" xlink:title="appStateStore.ts">
<path fill="#ddfeff" stroke="black" d="M356.08,-197.62C356.08,-197.62 284.67,-197.62 284.67,-197.62 281.46,-197.62 278.25,-194.42 278.25,-191.21 278.25,-191.21 278.25,-184.79 278.25,-184.79 278.25,-181.58 281.46,-178.38 284.67,-178.38 284.67,-178.38 356.08,-178.38 356.08,-178.38 359.29,-178.38 362.5,-181.58 362.5,-184.79 362.5,-184.79 362.5,-191.21 362.5,-191.21 362.5,-194.42 359.29,-197.62 356.08,-197.62"/>
<text text-anchor="start" x="286.25" y="-185.07" font-family="Helvetica,sans-Serif" font-size="9.00">appStateStore.ts</text>
</a>
</g>
</g>
<!-- src/components/utils/DiagnosticsPanel.vue&#45;&gt;src/stores/appStateStore.ts -->
<g id="edge4" class="edge">
<title>src/components/utils/DiagnosticsPanel.vue&#45;&gt;src/stores/appStateStore.ts</title>
<path fill="none" stroke="#000000" stroke-width="2" stroke-opacity="0.200000" d="M221.36,-79.97C235.87,-86.75 252.68,-97.2 262.25,-112 277.1,-134.96 252.58,-152.13 270.25,-173 270.52,-173.32 270.8,-173.64 271.09,-173.95"/>
<polygon fill="#000000" fill-opacity="0.200000" stroke="#000000" stroke-width="2" stroke-opacity="0.200000" points="269.61,-175.45 275.59,-177.61 272.26,-172.19 269.61,-175.45"/>
</g>
<!-- src/views/NavBar.vue -->
<g id="node8" class="node">
<title>src/views/NavBar.vue</title>
<g id="a_node8"><a xlink:href="src/views/NavBar.vue" xlink:title="NavBar.vue">
<path fill="#41f083" stroke="black" d="M90.96,-221.62C90.96,-221.62 41.29,-221.62 41.29,-221.62 38.08,-221.62 34.88,-218.42 34.88,-215.21 34.88,-215.21 34.88,-208.79 34.88,-208.79 34.88,-205.58 38.08,-202.38 41.29,-202.38 41.29,-202.38 90.96,-202.38 90.96,-202.38 94.17,-202.38 97.38,-205.58 97.38,-208.79 97.38,-208.79 97.38,-215.21 97.38,-215.21 97.38,-218.42 94.17,-221.62 90.96,-221.62"/>
<text text-anchor="start" x="42.88" y="-209.07" font-family="Helvetica,sans-Serif" font-size="9.00">NavBar.vue</text>
</a>
</g>
</g>
<!-- src/views/NavBar.vue&#45;&gt;src/stores/videosStore.ts -->
<g id="edge9" class="edge">
<title>src/views/NavBar.vue&#45;&gt;src/stores/videosStore.ts</title>
<path fill="none" stroke="#000000" stroke-width="2" stroke-opacity="0.200000" d="M97.55,-213.31C137.75,-213.73 209.6,-209.82 262.25,-181 266.94,-178.43 265.75,-174.89 270.25,-172 271.69,-171.08 273.18,-170.21 274.72,-169.4"/>
<polygon fill="#000000" fill-opacity="0.200000" stroke="#000000" stroke-width="2" stroke-opacity="0.200000" points="275.37,-171.41 279.94,-166.99 273.61,-167.6 275.37,-171.41"/>
</g>
<!-- src/views/NavBar.vue&#45;&gt;src/components/inputs/FileInput.vue -->
<g id="edge7" class="edge">
<title>src/views/NavBar.vue&#45;&gt;src/components/inputs/FileInput.vue</title>
<path fill="none" stroke="#000000" stroke-width="2" stroke-opacity="0.200000" d="M97.78,-204.73C104.08,-202.67 110.53,-200.11 116.25,-197 139.64,-184.28 162.46,-163.63 176.88,-149.24"/>
<polygon fill="#000000" fill-opacity="0.200000" stroke="#000000" stroke-width="2" stroke-opacity="0.200000" points="178.07,-151.03 180.77,-145.28 175.07,-148.09 178.07,-151.03"/>
</g>
<!-- src/views/NavBar.vue&#45;&gt;src/stores/appStateStore.ts -->
<g id="edge8" class="edge">
<title>src/views/NavBar.vue&#45;&gt;src/stores/appStateStore.ts</title>
<path fill="none" stroke="#000000" stroke-width="2" stroke-opacity="0.200000" d="M83.96,-221.98C95,-227.93 109.98,-234.91 124.25,-238 184.19,-251 204.84,-259.58 262.25,-238 279.82,-231.4 295.53,-216.66 306,-204.89"/>
<polygon fill="#000000" fill-opacity="0.200000" stroke="#000000" stroke-width="2" stroke-opacity="0.200000" points="307.57,-206.28 309.85,-200.35 304.37,-203.56 307.57,-206.28"/>
</g>
<!-- src/views/VideoGallery.vue -->
<g id="node9" class="node">
<title>src/views/VideoGallery.vue</title>
<g id="a_node9"><a xlink:href="src/views/VideoGallery.vue" xlink:title="VideoGallery.vue">
<path fill="#41f083" stroke="black" d="M101.83,-190.62C101.83,-190.62 30.42,-190.62 30.42,-190.62 27.21,-190.62 24,-187.42 24,-184.21 24,-184.21 24,-177.79 24,-177.79 24,-174.58 27.21,-171.38 30.42,-171.38 30.42,-171.38 101.83,-171.38 101.83,-171.38 105.04,-171.38 108.25,-174.58 108.25,-177.79 108.25,-177.79 108.25,-184.21 108.25,-184.21 108.25,-187.42 105.04,-190.62 101.83,-190.62"/>
<text text-anchor="start" x="32" y="-178.07" font-family="Helvetica,sans-Serif" font-size="9.00">VideoGallery.vue</text>
</a>
</g>
</g>
<!-- src/views/VideoGallery.vue&#45;&gt;src/components/VideoCard.vue -->
<g id="edge10" class="edge">
<title>src/views/VideoGallery.vue&#45;&gt;src/components/VideoCard.vue</title>
<path fill="none" stroke="#000000" stroke-width="2" stroke-opacity="0.200000" d="M68.37,-170.89C72.01,-145.99 84.95,-81.41 124.25,-49 130.55,-43.8 138.26,-40.3 146.2,-37.97"/>
<polygon fill="#000000" fill-opacity="0.200000" stroke="#000000" stroke-width="2" stroke-opacity="0.200000" points="146.57,-40.04 151.91,-36.58 145.58,-35.96 146.57,-40.04"/>
</g>
<!-- src/views/VideoGallery.vue&#45;&gt;src/stores/videosStore.ts -->
<g id="edge12" class="edge">
<title>src/views/VideoGallery.vue&#45;&gt;src/stores/videosStore.ts</title>
<path fill="none" stroke="#000000" stroke-width="2" stroke-opacity="0.200000" d="M108.51,-182.07C148.2,-182.45 209.68,-181.32 262.25,-173 268.06,-172.08 274.12,-170.77 280.03,-169.3"/>
<polygon fill="#000000" fill-opacity="0.200000" stroke="#000000" stroke-width="2" stroke-opacity="0.200000" points="280.35,-171.39 285.61,-167.82 279.27,-167.33 280.35,-171.39"/>
</g>
<!-- src/views/VideoGallery.vue&#45;&gt;src/stores/appStateStore.ts -->
<g id="edge11" class="edge">
<title>src/views/VideoGallery.vue&#45;&gt;src/stores/appStateStore.ts</title>
<path fill="none" stroke="#000000" stroke-width="2" stroke-opacity="0.200000" d="M108.54,-191.01C111.27,-192.45 113.88,-194.11 116.25,-196 121.85,-200.47 118.05,-206.4 124.25,-210 177.3,-240.78 201.95,-221.21 262.25,-210 271.75,-208.23 281.71,-204.95 290.6,-201.44"/>
<polygon fill="#000000" fill-opacity="0.200000" stroke="#000000" stroke-width="2" stroke-opacity="0.200000" points="291.22,-203.46 295.96,-199.22 289.61,-199.58 291.22,-203.46"/>
</g>
</g>
</svg>
