<?xml version="1.0" encoding="UTF-8" standalone="no"?>
<!DOCTYPE svg PUBLIC "-//W3C//DTD SVG 1.1//EN"
 "http://www.w3.org/Graphics/SVG/1.1/DTD/svg11.dtd">
<!-- Generated by graphviz version 9.0.0 (20230911.1827)
 -->
<!-- Title: dependency&#45;cruiser output Pages: 1 -->
<svg width="473pt" height="276pt"
 viewBox="0.00 0.00 472.50 276.12" xmlns="http://www.w3.org/2000/svg" xmlns:xlink="http://www.w3.org/1999/xlink">
<g id="graph0" class="graph" transform="scale(1 1) rotate(0) translate(4 272.12)">
<title>dependency&#45;cruiser output</title>
<polygon fill="white" stroke="none" points="-4,4 -4,-272.12 468.5,-272.12 468.5,4 -4,4"/>
<g id="clust1" class="cluster">
<title>cluster_src</title>
<path fill="#ffffff" stroke="black" stroke-width="2" d="M20,-10.12C20,-10.12 444.5,-10.12 444.5,-10.12 450.5,-10.12 456.5,-16.12 456.5,-22.12 456.5,-22.12 456.5,-248.12 456.5,-248.12 456.5,-254.12 450.5,-260.12 444.5,-260.12 444.5,-260.12 20,-260.12 20,-260.12 14,-260.12 8,-254.12 8,-248.12 8,-248.12 8,-22.12 8,-22.12 8,-16.12 14,-10.12 20,-10.12"/>
<text text-anchor="middle" x="232.25" y="-247.57" font-family="Helvetica,sans-Serif" font-weight="bold" font-size="9.00">src</text>
</g>
<g id="clust2" class="cluster">
<title>cluster_src/application</title>
<path fill="#ffffff" stroke="black" stroke-width="2" d="M390.5,-80.12C390.5,-80.12 436.5,-80.12 436.5,-80.12 442.5,-80.12 448.5,-86.12 448.5,-92.12 448.5,-92.12 448.5,-123.12 448.5,-123.12 448.5,-129.12 442.5,-135.12 436.5,-135.12 436.5,-135.12 390.5,-135.12 390.5,-135.12 384.5,-135.12 378.5,-129.12 378.5,-123.12 378.5,-123.12 378.5,-92.12 378.5,-92.12 378.5,-86.12 384.5,-80.12 390.5,-80.12"/>
<text text-anchor="middle" x="413.5" y="-122.57" font-family="Helvetica,sans-Serif" font-weight="bold" font-size="9.00">application</text>
</g>
<g id="clust3" class="cluster">
<title>cluster_src/components</title>
<path fill="#ffffff" stroke="black" stroke-width="2" d="M136.25,-28.12C136.25,-28.12 250.25,-28.12 250.25,-28.12 256.25,-28.12 262.25,-34.12 262.25,-40.12 262.25,-40.12 262.25,-197.12 262.25,-197.12 262.25,-203.12 256.25,-209.12 250.25,-209.12 250.25,-209.12 136.25,-209.12 136.25,-209.12 130.25,-209.12 124.25,-203.12 124.25,-197.12 124.25,-197.12 124.25,-40.12 124.25,-40.12 124.25,-34.12 130.25,-28.12 136.25,-28.12"/>
<text text-anchor="middle" x="193.25" y="-196.57" font-family="Helvetica,sans-Serif" font-weight="bold" font-size="9.00">components</text>
</g>
<g id="clust5" class="cluster">
<title>cluster_src/components/utils</title>
<path fill="#ffffff" stroke="black" stroke-width="2" d="M144.25,-127.12C144.25,-127.12 242.25,-127.12 242.25,-127.12 248.25,-127.12 254.25,-133.12 254.25,-139.12 254.25,-139.12 254.25,-170.12 254.25,-170.12 254.25,-176.12 248.25,-182.12 242.25,-182.12 242.25,-182.12 144.25,-182.12 144.25,-182.12 138.25,-182.12 132.25,-176.12 132.25,-170.12 132.25,-170.12 132.25,-139.12 132.25,-139.12 132.25,-133.12 138.25,-127.12 144.25,-127.12"/>
<text text-anchor="middle" x="193.25" y="-169.57" font-family="Helvetica,sans-Serif" font-weight="bold" font-size="9.00">utils</text>
</g>
<g id="clust4" class="cluster">
<title>cluster_src/components/inputs</title>
<path fill="#ffffff" stroke="black" stroke-width="2" d="M151,-64.12C151,-64.12 235.5,-64.12 235.5,-64.12 241.5,-64.12 247.5,-70.12 247.5,-76.12 247.5,-76.12 247.5,-107.12 247.5,-107.12 247.5,-113.12 241.5,-119.12 235.5,-119.12 235.5,-119.12 151,-119.12 151,-119.12 145,-119.12 139,-113.12 139,-107.12 139,-107.12 139,-76.12 139,-76.12 139,-70.12 145,-64.12 151,-64.12"/>
<text text-anchor="middle" x="193.25" y="-106.57" font-family="Helvetica,sans-Serif" font-weight="bold" font-size="9.00">inputs</text>
</g>
<g id="clust6" class="cluster">
<title>cluster_src/stores</title>
<path fill="#ffffff" stroke="black" stroke-width="2" d="M282.25,-80.12C282.25,-80.12 358.5,-80.12 358.5,-80.12 364.5,-80.12 370.5,-86.12 370.5,-92.12 370.5,-92.12 370.5,-154.12 370.5,-154.12 370.5,-160.12 364.5,-166.12 358.5,-166.12 358.5,-166.12 282.25,-166.12 282.25,-166.12 276.25,-166.12 270.25,-160.12 270.25,-154.12 270.25,-154.12 270.25,-92.12 270.25,-92.12 270.25,-86.12 276.25,-80.12 282.25,-80.12"/>
<text text-anchor="middle" x="320.38" y="-153.57" font-family="Helvetica,sans-Serif" font-weight="bold" font-size="9.00">stores</text>
</g>
<g id="clust7" class="cluster">
<title>cluster_src/views</title>
<path fill="#ffffff" stroke="black" stroke-width="2" d="M28,-33.12C28,-33.12 104.25,-33.12 104.25,-33.12 110.25,-33.12 116.25,-39.12 116.25,-45.12 116.25,-45.12 116.25,-107.12 116.25,-107.12 116.25,-113.12 110.25,-119.12 104.25,-119.12 104.25,-119.12 28,-119.12 28,-119.12 22,-119.12 16,-113.12 16,-107.12 16,-107.12 16,-45.12 16,-45.12 16,-39.12 22,-33.12 28,-33.12"/>
<text text-anchor="middle" x="66.12" y="-106.57" font-family="Helvetica,sans-Serif" font-weight="bold" font-size="9.00">views</text>
</g>
<!-- src/application/index.ts -->
<g id="node1" class="node">
<title>src/application/index.ts</title>
<g id="a_node1"><a xlink:href="src/application/index.ts" xlink:title="index.ts">
<path fill="#ddfeff" stroke="black" d="M434.08,-107.75C434.08,-107.75 392.92,-107.75 392.92,-107.75 389.71,-107.75 386.5,-104.54 386.5,-101.33 386.5,-101.33 386.5,-94.91 386.5,-94.91 386.5,-91.7 389.71,-88.5 392.92,-88.5 392.92,-88.5 434.08,-88.5 434.08,-88.5 437.29,-88.5 440.5,-91.7 440.5,-94.91 440.5,-94.91 440.5,-101.33 440.5,-101.33 440.5,-104.54 437.29,-107.75 434.08,-107.75"/>
<text text-anchor="start" x="397.75" y="-95.2" font-family="Helvetica,sans-Serif" font-size="9.00">index.ts</text>
</a>
</g>
</g>
<!-- src/components/VideoCard.vue -->
<g id="node2" class="node">
<title>src/components/VideoCard.vue</title>
<g id="a_node2"><a xlink:href="src/components/VideoCard.vue" xlink:title="VideoCard.vue">
<path fill="#41f083" stroke="black" d="M224.83,-55.75C224.83,-55.75 161.67,-55.75 161.67,-55.75 158.46,-55.75 155.25,-52.54 155.25,-49.33 155.25,-49.33 155.25,-42.91 155.25,-42.91 155.25,-39.7 158.46,-36.5 161.67,-36.5 161.67,-36.5 224.83,-36.5 224.83,-36.5 228.04,-36.5 231.25,-39.7 231.25,-42.91 231.25,-42.91 231.25,-49.33 231.25,-49.33 231.25,-52.54 228.04,-55.75 224.83,-55.75"/>
<text text-anchor="start" x="163.25" y="-43.2" font-family="Helvetica,sans-Serif" font-size="9.00">VideoCard.vue</text>
</a>
</g>
</g>
<!-- src/stores/videosStore.ts -->
<g id="node3" class="node">
<title>src/stores/videosStore.ts</title>
<g id="a_node3"><a xlink:href="src/stores/videosStore.ts" xlink:title="videosStore.ts">
<path fill="#ddfeff" stroke="black" d="M351.21,-107.75C351.21,-107.75 289.54,-107.75 289.54,-107.75 286.33,-107.75 283.12,-104.54 283.12,-101.33 283.12,-101.33 283.12,-94.91 283.12,-94.91 283.12,-91.7 286.33,-88.5 289.54,-88.5 289.54,-88.5 351.21,-88.5 351.21,-88.5 354.42,-88.5 357.62,-91.7 357.62,-94.91 357.62,-94.91 357.62,-101.33 357.62,-101.33 357.62,-104.54 354.42,-107.75 351.21,-107.75"/>
<text text-anchor="start" x="291.12" y="-95.2" font-family="Helvetica,sans-Serif" font-size="9.00">videosStore.ts</text>
</a>
</g>
</g>
<!-- src/components/VideoCard.vue&#45;&gt;src/stores/videosStore.ts -->
<g id="edge1" class="edge">
<title>src/components/VideoCard.vue&#45;&gt;src/stores/videosStore.ts</title>
<path fill="none" stroke="#000000" stroke-width="2" stroke-opacity="0.200000" d="M231.69,-51.87C241.84,-54.1 252.66,-57.11 262.25,-61.12 275.58,-66.69 289.22,-75.39 299.82,-82.95"/>
<polygon fill="#000000" fill-opacity="0.200000" stroke="#000000" stroke-width="2" stroke-opacity="0.200000" points="298.44,-84.54 304.52,-86.4 300.93,-81.15 298.44,-84.54"/>
</g>
<!-- src/stores/videosStore.ts&#45;&gt;src/application/index.ts -->
<g id="edge4" class="edge">
<title>src/stores/videosStore.ts&#45;&gt;src/application/index.ts</title>
<path fill="none" stroke="#000000" stroke-width="2" stroke-opacity="0.200000" d="M357.91,-98.12C364.23,-98.12 370.8,-98.12 377.09,-98.12"/>
<polygon fill="#000000" fill-opacity="0.200000" stroke="#000000" stroke-width="2" stroke-opacity="0.200000" points="377.02,-100.22 383.02,-98.12 377.02,-96.02 377.02,-100.22"/>
</g>
<!-- src/components/inputs/FolderSelector.vue -->
<g id="node4" class="node">
<title>src/components/inputs/FolderSelector.vue</title>
<g id="a_node4"><a xlink:href="src/components/inputs/FolderSelector.vue" xlink:title="FolderSelector.vue">
<path fill="#41f083" stroke="black" d="M233.08,-91.75C233.08,-91.75 153.42,-91.75 153.42,-91.75 150.21,-91.75 147,-88.54 147,-85.33 147,-85.33 147,-78.91 147,-78.91 147,-75.7 150.21,-72.5 153.42,-72.5 153.42,-72.5 233.08,-72.5 233.08,-72.5 236.29,-72.5 239.5,-75.7 239.5,-78.91 239.5,-78.91 239.5,-85.33 239.5,-85.33 239.5,-88.54 236.29,-91.75 233.08,-91.75"/>
<text text-anchor="start" x="155" y="-79.2" font-family="Helvetica,sans-Serif" font-size="9.00">FolderSelector.vue</text>
</a>
</g>
</g>
<!-- src/components/inputs/FolderSelector.vue&#45;&gt;src/stores/videosStore.ts -->
<g id="edge2" class="edge">
<title>src/components/inputs/FolderSelector.vue&#45;&gt;src/stores/videosStore.ts</title>
<path fill="none" stroke="#000000" stroke-width="2" stroke-opacity="0.200000" d="M239.78,-87.94C250.91,-89.37 262.83,-90.89 273.96,-92.31"/>
<polygon fill="#000000" fill-opacity="0.200000" stroke="#000000" stroke-width="2" stroke-opacity="0.200000" points="273.47,-94.37 279.69,-93.05 274.01,-90.2 273.47,-94.37"/>
</g>
<!-- src/components/utils/DiagnosticsPanel.vue -->
<g id="node5" class="node">
<title>src/components/utils/DiagnosticsPanel.vue</title>
<g id="a_node5"><a xlink:href="src/components/utils/DiagnosticsPanel.vue" xlink:title="DiagnosticsPanel.vue">
<path fill="#41f083" stroke="black" d="M239.83,-154.75C239.83,-154.75 146.67,-154.75 146.67,-154.75 143.46,-154.75 140.25,-151.54 140.25,-148.33 140.25,-148.33 140.25,-141.91 140.25,-141.91 140.25,-138.7 143.46,-135.5 146.67,-135.5 146.67,-135.5 239.83,-135.5 239.83,-135.5 243.04,-135.5 246.25,-138.7 246.25,-141.91 246.25,-141.91 246.25,-148.33 246.25,-148.33 246.25,-151.54 243.04,-154.75 239.83,-154.75"/>
<text text-anchor="start" x="148.25" y="-142.2" font-family="Helvetica,sans-Serif" font-size="9.00">DiagnosticsPanel.vue</text>
</a>
</g>
</g>
<!-- src/stores/appStateStore.ts -->
<g id="node6" class="node">
<title>src/stores/appStateStore.ts</title>
<g id="a_node6"><a xlink:href="src/stores/appStateStore.ts" xlink:title="appStateStore.ts">
<path fill="#ddfeff" stroke="black" d="M356.08,-138.75C356.08,-138.75 284.67,-138.75 284.67,-138.75 281.46,-138.75 278.25,-135.54 278.25,-132.33 278.25,-132.33 278.25,-125.91 278.25,-125.91 278.25,-122.7 281.46,-119.5 284.67,-119.5 284.67,-119.5 356.08,-119.5 356.08,-119.5 359.29,-119.5 362.5,-122.7 362.5,-125.91 362.5,-125.91 362.5,-132.33 362.5,-132.33 362.5,-135.54 359.29,-138.75 356.08,-138.75"/>
<text text-anchor="start" x="286.25" y="-126.2" font-family="Helvetica,sans-Serif" font-size="9.00">appStateStore.ts</text>
</a>
</g>
</g>
<!-- src/components/utils/DiagnosticsPanel.vue&#45;&gt;src/stores/appStateStore.ts -->
<g id="edge3" class="edge">
<title>src/components/utils/DiagnosticsPanel.vue&#45;&gt;src/stores/appStateStore.ts</title>
<path fill="none" stroke="#000000" stroke-width="2" stroke-opacity="0.200000" d="M246.59,-138.43C254.1,-137.47 261.81,-136.48 269.27,-135.53"/>
<polygon fill="#000000" fill-opacity="0.200000" stroke="#000000" stroke-width="2" stroke-opacity="0.200000" points="269.21,-137.65 274.89,-134.81 268.67,-133.49 269.21,-137.65"/>
</g>
<!-- src/views/NavBar.vue -->
<g id="node7" class="node">
<title>src/views/NavBar.vue</title>
<g id="a_node7"><a xlink:href="src/views/NavBar.vue" xlink:title="NavBar.vue">
<path fill="#41f083" stroke="black" d="M90.96,-91.75C90.96,-91.75 41.29,-91.75 41.29,-91.75 38.08,-91.75 34.88,-88.54 34.88,-85.33 34.88,-85.33 34.88,-78.91 34.88,-78.91 34.88,-75.7 38.08,-72.5 41.29,-72.5 41.29,-72.5 90.96,-72.5 90.96,-72.5 94.17,-72.5 97.38,-75.7 97.38,-78.91 97.38,-78.91 97.38,-85.33 97.38,-85.33 97.38,-88.54 94.17,-91.75 90.96,-91.75"/>
<text text-anchor="start" x="42.88" y="-79.2" font-family="Helvetica,sans-Serif" font-size="9.00">NavBar.vue</text>
</a>
</g>
</g>
<!-- src/views/NavBar.vue&#45;&gt;src/stores/videosStore.ts -->
<g id="edge7" class="edge">
<title>src/views/NavBar.vue&#45;&gt;src/stores/videosStore.ts</title>
<path fill="none" stroke="#000000" stroke-width="2" stroke-opacity="0.200000" d="M97.85,-78.21C104.74,-75.97 111.43,-72.5 116.25,-67.12 128.94,-52.98 109.61,-37.23 124.25,-25.12 171.5,13.98 207.11,1.75 262.25,-25.12 285.62,-36.51 302.25,-62.6 311.33,-80.3"/>
<polygon fill="#000000" fill-opacity="0.200000" stroke="#000000" stroke-width="2" stroke-opacity="0.200000" points="309.34,-81.01 313.86,-85.49 313.12,-79.17 309.34,-81.01"/>
</g>
<!-- src/views/NavBar.vue&#45;&gt;src/components/inputs/FolderSelector.vue -->
<g id="edge5" class="edge">
<title>src/views/NavBar.vue&#45;&gt;src/components/inputs/FolderSelector.vue</title>
<path fill="none" stroke="#000000" stroke-width="2" stroke-opacity="0.200000" d="M97.73,-82.12C109.84,-82.12 124.13,-82.12 137.88,-82.12"/>
<polygon fill="#000000" fill-opacity="0.200000" stroke="#000000" stroke-width="2" stroke-opacity="0.200000" points="137.79,-84.22 143.79,-82.12 137.79,-80.02 137.79,-84.22"/>
</g>
<!-- src/views/NavBar.vue&#45;&gt;src/stores/appStateStore.ts -->
<g id="edge6" class="edge">
<title>src/views/NavBar.vue&#45;&gt;src/stores/appStateStore.ts</title>
<path fill="none" stroke="#000000" stroke-width="2" stroke-opacity="0.200000" d="M67.65,-92.21C69.63,-118.98 79.15,-191.81 124.25,-222.12 175.16,-256.33 208.72,-252.06 262.25,-222.12 290.61,-206.26 306.61,-169.91 314.08,-147.64"/>
<polygon fill="#000000" fill-opacity="0.200000" stroke="#000000" stroke-width="2" stroke-opacity="0.200000" points="316.08,-148.31 315.87,-141.95 312.07,-147.05 316.08,-148.31"/>
</g>
<!-- src/views/VideoGallery.vue -->
<g id="node8" class="node">
<title>src/views/VideoGallery.vue</title>
<g id="a_node8"><a xlink:href="src/views/VideoGallery.vue" xlink:title="VideoGallery.vue">
<path fill="#41f083" stroke="black" d="M101.83,-60.75C101.83,-60.75 30.42,-60.75 30.42,-60.75 27.21,-60.75 24,-57.54 24,-54.33 24,-54.33 24,-47.91 24,-47.91 24,-44.7 27.21,-41.5 30.42,-41.5 30.42,-41.5 101.83,-41.5 101.83,-41.5 105.04,-41.5 108.25,-44.7 108.25,-47.91 108.25,-47.91 108.25,-54.33 108.25,-54.33 108.25,-57.54 105.04,-60.75 101.83,-60.75"/>
<text text-anchor="start" x="32" y="-48.2" font-family="Helvetica,sans-Serif" font-size="9.00">VideoGallery.vue</text>
</a>
</g>
</g>
<!-- src/views/VideoGallery.vue&#45;&gt;src/components/VideoCard.vue -->
<g id="edge8" class="edge">
<title>src/views/VideoGallery.vue&#45;&gt;src/components/VideoCard.vue</title>
<path fill="none" stroke="#000000" stroke-width="2" stroke-opacity="0.200000" d="M108.44,-49.47C120.47,-48.99 133.69,-48.46 146,-47.97"/>
<polygon fill="#000000" fill-opacity="0.200000" stroke="#000000" stroke-width="2" stroke-opacity="0.200000" points="145.84,-50.08 151.75,-47.74 145.67,-45.88 145.84,-50.08"/>
</g>
<!-- src/views/VideoGallery.vue&#45;&gt;src/stores/videosStore.ts -->
<g id="edge9" class="edge">
<title>src/views/VideoGallery.vue&#45;&gt;src/stores/videosStore.ts</title>
<path fill="none" stroke="#000000" stroke-width="2" stroke-opacity="0.200000" d="M108.74,-59.45C111.58,-61.27 114.14,-63.47 116.25,-66.12 132.73,-86.88 104.89,-167.02 124.25,-185.12 169.05,-227.01 216.55,-226.02 262.25,-185.12 274.25,-174.38 259.97,-125.51 270.25,-113.12 271.74,-111.32 273.45,-109.73 275.31,-108.33"/>
<polygon fill="#000000" fill-opacity="0.200000" stroke="#000000" stroke-width="2" stroke-opacity="0.200000" points="276.34,-110.15 280.47,-105.32 274.23,-106.52 276.34,-110.15"/>
</g>
</g>
</svg>
