<?xml version="1.0" encoding="UTF-8" standalone="no"?>
<!DOCTYPE svg PUBLIC "-//W3C//DTD SVG 1.1//EN"
 "http://www.w3.org/Graphics/SVG/1.1/DTD/svg11.dtd">
<!-- Generated by graphviz version 9.0.0 (20230911.1827)
 -->
<!-- Title: dependency&#45;cruiser output Pages: 1 -->
<svg width="481pt" height="208pt"
 viewBox="0.00 0.00 480.75 208.00" xmlns="http://www.w3.org/2000/svg" xmlns:xlink="http://www.w3.org/1999/xlink">
<g id="graph0" class="graph" transform="scale(1 1) rotate(0) translate(4 204)">
<title>dependency&#45;cruiser output</title>
<polygon fill="white" stroke="none" points="-4,4 -4,-204 476.75,-204 476.75,4 -4,4"/>
<g id="clust1" class="cluster">
<title>cluster_src</title>
<path fill="#ffffff" stroke="black" stroke-width="2" d="M20,-8C20,-8 452.75,-8 452.75,-8 458.75,-8 464.75,-14 464.75,-20 464.75,-20 464.75,-180 464.75,-180 464.75,-186 458.75,-192 452.75,-192 452.75,-192 20,-192 20,-192 14,-192 8,-186 8,-180 8,-180 8,-20 8,-20 8,-14 14,-8 20,-8"/>
<text text-anchor="middle" x="236.38" y="-179.45" font-family="Helvetica,sans-Serif" font-weight="bold" font-size="9.00">src</text>
</g>
<g id="clust2" class="cluster">
<title>cluster_src/components</title>
<path fill="#ffffff" stroke="black" stroke-width="2" d="M28,-16C28,-16 258.5,-16 258.5,-16 264.5,-16 270.5,-22 270.5,-28 270.5,-28 270.5,-153 270.5,-153 270.5,-159 264.5,-165 258.5,-165 258.5,-165 28,-165 28,-165 22,-165 16,-159 16,-153 16,-153 16,-28 16,-28 16,-22 22,-16 28,-16"/>
<text text-anchor="middle" x="143.25" y="-152.45" font-family="Helvetica,sans-Serif" font-weight="bold" font-size="9.00">components</text>
</g>
<g id="clust3" class="cluster">
<title>cluster_src/components/FolderSelector</title>
<path fill="#ffffff" stroke="black" stroke-width="2" d="M166,-24C166,-24 250.5,-24 250.5,-24 256.5,-24 262.5,-30 262.5,-36 262.5,-36 262.5,-67 262.5,-67 262.5,-73 256.5,-79 250.5,-79 250.5,-79 166,-79 166,-79 160,-79 154,-73 154,-67 154,-67 154,-36 154,-36 154,-30 160,-24 166,-24"/>
<text text-anchor="middle" x="208.25" y="-66.45" font-family="Helvetica,sans-Serif" font-weight="bold" font-size="9.00">FolderSelector</text>
</g>
<g id="clust4" class="cluster">
<title>cluster_src/components/utils</title>
<path fill="#ffffff" stroke="black" stroke-width="2" d="M36,-83C36,-83 134,-83 134,-83 140,-83 146,-89 146,-95 146,-95 146,-126 146,-126 146,-132 140,-138 134,-138 134,-138 36,-138 36,-138 30,-138 24,-132 24,-126 24,-126 24,-95 24,-95 24,-89 30,-83 36,-83"/>
<text text-anchor="middle" x="85" y="-125.45" font-family="Helvetica,sans-Serif" font-weight="bold" font-size="9.00">utils</text>
</g>
<g id="clust6" class="cluster">
<title>cluster_src/stores</title>
<path fill="#ffffff" stroke="black" stroke-width="2" d="M290.5,-61C290.5,-61 366.75,-61 366.75,-61 372.75,-61 378.75,-67 378.75,-73 378.75,-73 378.75,-135 378.75,-135 378.75,-141 372.75,-147 366.75,-147 366.75,-147 290.5,-147 290.5,-147 284.5,-147 278.5,-141 278.5,-135 278.5,-135 278.5,-73 278.5,-73 278.5,-67 284.5,-61 290.5,-61"/>
<text text-anchor="middle" x="328.62" y="-134.45" font-family="Helvetica,sans-Serif" font-weight="bold" font-size="9.00">stores</text>
</g>
<g id="clust5" class="cluster">
<title>cluster_src/services</title>
<path fill="#ffffff" stroke="black" stroke-width="2" d="M398.75,-39C398.75,-39 444.75,-39 444.75,-39 450.75,-39 456.75,-45 456.75,-51 456.75,-51 456.75,-82 456.75,-82 456.75,-88 450.75,-94 444.75,-94 444.75,-94 398.75,-94 398.75,-94 392.75,-94 386.75,-88 386.75,-82 386.75,-82 386.75,-51 386.75,-51 386.75,-45 392.75,-39 398.75,-39"/>
<text text-anchor="middle" x="421.75" y="-81.45" font-family="Helvetica,sans-Serif" font-weight="bold" font-size="9.00">services</text>
</g>
<!-- src/components/FolderSelector/FolderSelector.vue -->
<g id="node1" class="node">
<title>src/components/FolderSelector/FolderSelector.vue</title>
<g id="a_node1"><a xlink:href="src/components/FolderSelector/FolderSelector.vue" xlink:title="FolderSelector.vue">
<path fill="#41f083" stroke="black" d="M248.08,-51.62C248.08,-51.62 168.42,-51.62 168.42,-51.62 165.21,-51.62 162,-48.42 162,-45.21 162,-45.21 162,-38.79 162,-38.79 162,-35.58 165.21,-32.38 168.42,-32.38 168.42,-32.38 248.08,-32.38 248.08,-32.38 251.29,-32.38 254.5,-35.58 254.5,-38.79 254.5,-38.79 254.5,-45.21 254.5,-45.21 254.5,-48.42 251.29,-51.62 248.08,-51.62"/>
<text text-anchor="start" x="170" y="-39.08" font-family="Helvetica,sans-Serif" font-size="9.00">FolderSelector.vue</text>
</a>
</g>
</g>
<!-- src/services/index.ts -->
<g id="node2" class="node">
<title>src/services/index.ts</title>
<g id="a_node2"><a xlink:href="src/services/index.ts" xlink:title="index.ts">
<path fill="#ddfeff" stroke="black" d="M442.33,-66.62C442.33,-66.62 401.17,-66.62 401.17,-66.62 397.96,-66.62 394.75,-63.42 394.75,-60.21 394.75,-60.21 394.75,-53.79 394.75,-53.79 394.75,-50.58 397.96,-47.38 401.17,-47.38 401.17,-47.38 442.33,-47.38 442.33,-47.38 445.54,-47.38 448.75,-50.58 448.75,-53.79 448.75,-53.79 448.75,-60.21 448.75,-60.21 448.75,-63.42 445.54,-66.62 442.33,-66.62"/>
<text text-anchor="start" x="406" y="-54.08" font-family="Helvetica,sans-Serif" font-size="9.00">index.ts</text>
</a>
</g>
</g>
<!-- src/components/FolderSelector/FolderSelector.vue&#45;&gt;src/services/index.ts -->
<g id="edge1" class="edge">
<title>src/components/FolderSelector/FolderSelector.vue&#45;&gt;src/services/index.ts</title>
<path fill="none" stroke="#000000" stroke-width="2" stroke-opacity="0.200000" d="M254.88,-45.24C294.18,-48.02 350.05,-51.99 385.86,-54.53"/>
<polygon fill="#000000" fill-opacity="0.200000" stroke="#000000" stroke-width="2" stroke-opacity="0.200000" points="385.35,-56.59 391.49,-54.92 385.65,-52.41 385.35,-56.59"/>
</g>
<!-- src/stores/videosStore.ts -->
<g id="node3" class="node">
<title>src/stores/videosStore.ts</title>
<g id="a_node3"><a xlink:href="src/stores/videosStore.ts" xlink:title="videosStore.ts">
<path fill="#ddfeff" stroke="black" d="M359.46,-88.62C359.46,-88.62 297.79,-88.62 297.79,-88.62 294.58,-88.62 291.38,-85.42 291.38,-82.21 291.38,-82.21 291.38,-75.79 291.38,-75.79 291.38,-72.58 294.58,-69.38 297.79,-69.38 297.79,-69.38 359.46,-69.38 359.46,-69.38 362.67,-69.38 365.88,-72.58 365.88,-75.79 365.88,-75.79 365.88,-82.21 365.88,-82.21 365.88,-85.42 362.67,-88.62 359.46,-88.62"/>
<text text-anchor="start" x="299.38" y="-76.08" font-family="Helvetica,sans-Serif" font-size="9.00">videosStore.ts</text>
</a>
</g>
</g>
<!-- src/components/FolderSelector/FolderSelector.vue&#45;&gt;src/stores/videosStore.ts -->
<g id="edge2" class="edge">
<title>src/components/FolderSelector/FolderSelector.vue&#45;&gt;src/stores/videosStore.ts</title>
<path fill="none" stroke="#000000" stroke-width="2" stroke-opacity="0.200000" d="M254.95,-51.61C260.23,-52.96 265.5,-54.43 270.5,-56 279.22,-58.73 288.49,-62.21 296.97,-65.62"/>
<polygon fill="#000000" fill-opacity="0.200000" stroke="#000000" stroke-width="2" stroke-opacity="0.200000" points="295.98,-67.49 302.33,-67.83 297.58,-63.6 295.98,-67.49"/>
</g>
<!-- src/stores/videosStore.ts&#45;&gt;src/services/index.ts -->
<g id="edge8" class="edge">
<title>src/stores/videosStore.ts&#45;&gt;src/services/index.ts</title>
<path fill="none" stroke="#000000" stroke-width="2" stroke-opacity="0.200000" d="M366.16,-70.18C372.63,-68.62 379.35,-66.99 385.78,-65.44"/>
<polygon fill="#000000" fill-opacity="0.200000" stroke="#000000" stroke-width="2" stroke-opacity="0.200000" points="386.02,-67.55 391.36,-64.1 385.03,-63.46 386.02,-67.55"/>
</g>
<!-- src/components/NavBar.vue -->
<g id="node4" class="node">
<title>src/components/NavBar.vue</title>
<g id="a_node4"><a xlink:href="src/components/NavBar.vue" xlink:title="NavBar.vue">
<path fill="#41f083" stroke="black" d="M109.83,-43.62C109.83,-43.62 60.17,-43.62 60.17,-43.62 56.96,-43.62 53.75,-40.42 53.75,-37.21 53.75,-37.21 53.75,-30.79 53.75,-30.79 53.75,-27.58 56.96,-24.38 60.17,-24.38 60.17,-24.38 109.83,-24.38 109.83,-24.38 113.04,-24.38 116.25,-27.58 116.25,-30.79 116.25,-30.79 116.25,-37.21 116.25,-37.21 116.25,-40.42 113.04,-43.62 109.83,-43.62"/>
<text text-anchor="start" x="61.75" y="-31.07" font-family="Helvetica,sans-Serif" font-size="9.00">NavBar.vue</text>
</a>
</g>
</g>
<!-- src/components/NavBar.vue&#45;&gt;src/components/FolderSelector/FolderSelector.vue -->
<g id="edge3" class="edge">
<title>src/components/NavBar.vue&#45;&gt;src/components/FolderSelector/FolderSelector.vue</title>
<path fill="none" stroke="#000000" stroke-width="2" stroke-opacity="0.200000" d="M116.6,-36.02C127.55,-36.74 140.25,-37.58 152.61,-38.4"/>
<polygon fill="#000000" fill-opacity="0.200000" stroke="#000000" stroke-width="2" stroke-opacity="0.200000" points="152.38,-40.48 158.51,-38.78 152.66,-36.29 152.38,-40.48"/>
</g>
<!-- src/components/NavBar.vue&#45;&gt;src/stores/videosStore.ts -->
<g id="edge5" class="edge">
<title>src/components/NavBar.vue&#45;&gt;src/stores/videosStore.ts</title>
<path fill="none" stroke="#000000" stroke-width="2" stroke-opacity="0.200000" d="M116.64,-35.32C127.19,-37.27 138.28,-41.23 146,-49 156.63,-59.71 142.14,-72.67 154,-82 173.18,-97.08 237.5,-91.9 282.23,-86.04"/>
<polygon fill="#000000" fill-opacity="0.200000" stroke="#000000" stroke-width="2" stroke-opacity="0.200000" points="282.51,-88.12 288.17,-85.23 281.94,-83.96 282.51,-88.12"/>
</g>
<!-- src/stores/appStateStore.ts -->
<g id="node5" class="node">
<title>src/stores/appStateStore.ts</title>
<g id="a_node5"><a xlink:href="src/stores/appStateStore.ts" xlink:title="appStateStore.ts">
<path fill="#ddfeff" stroke="black" d="M364.33,-119.62C364.33,-119.62 292.92,-119.62 292.92,-119.62 289.71,-119.62 286.5,-116.42 286.5,-113.21 286.5,-113.21 286.5,-106.79 286.5,-106.79 286.5,-103.58 289.71,-100.38 292.92,-100.38 292.92,-100.38 364.33,-100.38 364.33,-100.38 367.54,-100.38 370.75,-103.58 370.75,-106.79 370.75,-106.79 370.75,-113.21 370.75,-113.21 370.75,-116.42 367.54,-119.62 364.33,-119.62"/>
<text text-anchor="start" x="294.5" y="-107.08" font-family="Helvetica,sans-Serif" font-size="9.00">appStateStore.ts</text>
</a>
</g>
</g>
<!-- src/components/NavBar.vue&#45;&gt;src/stores/appStateStore.ts -->
<g id="edge4" class="edge">
<title>src/components/NavBar.vue&#45;&gt;src/stores/appStateStore.ts</title>
<path fill="none" stroke="#000000" stroke-width="2" stroke-opacity="0.200000" d="M116.52,-35.07C127.19,-36.98 138.39,-40.98 146,-49 158.78,-62.47 140.37,-77.39 154,-90 186.72,-120.26 239.06,-122.38 277.72,-118.69"/>
<polygon fill="#000000" fill-opacity="0.200000" stroke="#000000" stroke-width="2" stroke-opacity="0.200000" points="277.5,-120.83 283.24,-118.09 277.05,-116.65 277.5,-120.83"/>
</g>
<!-- src/components/VideoGallery.vue -->
<g id="node6" class="node">
<title>src/components/VideoGallery.vue</title>
<g id="a_node6"><a xlink:href="src/components/VideoGallery.vue" xlink:title="VideoGallery.vue">
<path fill="#41f083" stroke="black" d="M120.71,-74.62C120.71,-74.62 49.29,-74.62 49.29,-74.62 46.08,-74.62 42.88,-71.42 42.88,-68.21 42.88,-68.21 42.88,-61.79 42.88,-61.79 42.88,-58.58 46.08,-55.38 49.29,-55.38 49.29,-55.38 120.71,-55.38 120.71,-55.38 123.92,-55.38 127.12,-58.58 127.12,-61.79 127.12,-61.79 127.12,-68.21 127.12,-68.21 127.12,-71.42 123.92,-74.62 120.71,-74.62"/>
<text text-anchor="start" x="50.88" y="-62.08" font-family="Helvetica,sans-Serif" font-size="9.00">VideoGallery.vue</text>
</a>
</g>
</g>
<!-- src/components/VideoGallery.vue&#45;&gt;src/stores/videosStore.ts -->
<g id="edge6" class="edge">
<title>src/components/VideoGallery.vue&#45;&gt;src/stores/videosStore.ts</title>
<path fill="none" stroke="#000000" stroke-width="2" stroke-opacity="0.200000" d="M127.46,-71.08C134.03,-73.22 140.47,-76.1 146,-80 151.24,-83.69 148.35,-88.98 154,-92 199.65,-116.43 219.05,-97.78 270.5,-92 274.36,-91.57 278.33,-90.97 282.31,-90.28"/>
<polygon fill="#000000" fill-opacity="0.200000" stroke="#000000" stroke-width="2" stroke-opacity="0.200000" points="282.49,-92.38 287.98,-89.19 281.7,-88.26 282.49,-92.38"/>
</g>
<!-- src/components/utils/DiagnosticsPanel.vue -->
<g id="node7" class="node">
<title>src/components/utils/DiagnosticsPanel.vue</title>
<g id="a_node7"><a xlink:href="src/components/utils/DiagnosticsPanel.vue" xlink:title="DiagnosticsPanel.vue">
<path fill="#41f083" stroke="black" d="M131.58,-110.62C131.58,-110.62 38.42,-110.62 38.42,-110.62 35.21,-110.62 32,-107.42 32,-104.21 32,-104.21 32,-97.79 32,-97.79 32,-94.58 35.21,-91.38 38.42,-91.38 38.42,-91.38 131.58,-91.38 131.58,-91.38 134.79,-91.38 138,-94.58 138,-97.79 138,-97.79 138,-104.21 138,-104.21 138,-107.42 134.79,-110.62 131.58,-110.62"/>
<text text-anchor="start" x="40" y="-98.08" font-family="Helvetica,sans-Serif" font-size="9.00">DiagnosticsPanel.vue</text>
</a>
</g>
</g>
<!-- src/components/utils/DiagnosticsPanel.vue&#45;&gt;src/stores/appStateStore.ts -->
<g id="edge7" class="edge">
<title>src/components/utils/DiagnosticsPanel.vue&#45;&gt;src/stores/appStateStore.ts</title>
<path fill="none" stroke="#000000" stroke-width="2" stroke-opacity="0.200000" d="M108.46,-111.1C121.47,-116.39 138.33,-122.32 154,-125 205.03,-133.74 219.15,-131.63 270.5,-125 275.65,-124.34 280.99,-123.35 286.25,-122.19"/>
<polygon fill="#000000" fill-opacity="0.200000" stroke="#000000" stroke-width="2" stroke-opacity="0.200000" points="286.69,-124.24 292.04,-120.81 285.72,-120.16 286.69,-124.24"/>
</g>
</g>
</svg>
