<?xml version="1.0" encoding="UTF-8" standalone="no"?>
<!DOCTYPE svg PUBLIC "-//W3C//DTD SVG 1.1//EN"
 "http://www.w3.org/Graphics/SVG/1.1/DTD/svg11.dtd">
<!-- Generated by graphviz version 9.0.0 (20230911.1827)
 -->
<!-- Title: dependency&#45;cruiser output Pages: 1 -->
<svg width="473pt" height="278pt"
 viewBox="0.00 0.00 472.50 278.00" xmlns="http://www.w3.org/2000/svg" xmlns:xlink="http://www.w3.org/1999/xlink">
<g id="graph0" class="graph" transform="scale(1 1) rotate(0) translate(4 274)">
<title>dependency&#45;cruiser output</title>
<polygon fill="white" stroke="none" points="-4,4 -4,-274 468.5,-274 468.5,4 -4,4"/>
<g id="clust1" class="cluster">
<title>cluster_src</title>
<path fill="#ffffff" stroke="black" stroke-width="2" d="M20,-8C20,-8 444.5,-8 444.5,-8 450.5,-8 456.5,-14 456.5,-20 456.5,-20 456.5,-250 456.5,-250 456.5,-256 450.5,-262 444.5,-262 444.5,-262 20,-262 20,-262 14,-262 8,-256 8,-250 8,-250 8,-20 8,-20 8,-14 14,-8 20,-8"/>
<text text-anchor="middle" x="232.25" y="-249.45" font-family="Helvetica,sans-Serif" font-weight="bold" font-size="9.00">src</text>
</g>
<g id="clust2" class="cluster">
<title>cluster_src/application</title>
<path fill="#ffffff" stroke="black" stroke-width="2" d="M390.5,-69C390.5,-69 436.5,-69 436.5,-69 442.5,-69 448.5,-75 448.5,-81 448.5,-81 448.5,-112 448.5,-112 448.5,-118 442.5,-124 436.5,-124 436.5,-124 390.5,-124 390.5,-124 384.5,-124 378.5,-118 378.5,-112 378.5,-112 378.5,-81 378.5,-81 378.5,-75 384.5,-69 390.5,-69"/>
<text text-anchor="middle" x="413.5" y="-111.45" font-family="Helvetica,sans-Serif" font-weight="bold" font-size="9.00">application</text>
</g>
<g id="clust3" class="cluster">
<title>cluster_src/components</title>
<path fill="#ffffff" stroke="black" stroke-width="2" d="M136.25,-16C136.25,-16 250.25,-16 250.25,-16 256.25,-16 262.25,-22 262.25,-28 262.25,-28 262.25,-185 262.25,-185 262.25,-191 256.25,-197 250.25,-197 250.25,-197 136.25,-197 136.25,-197 130.25,-197 124.25,-191 124.25,-185 124.25,-185 124.25,-28 124.25,-28 124.25,-22 130.25,-16 136.25,-16"/>
<text text-anchor="middle" x="193.25" y="-184.45" font-family="Helvetica,sans-Serif" font-weight="bold" font-size="9.00">components</text>
</g>
<g id="clust5" class="cluster">
<title>cluster_src/components/utils</title>
<path fill="#ffffff" stroke="black" stroke-width="2" d="M144.25,-115C144.25,-115 242.25,-115 242.25,-115 248.25,-115 254.25,-121 254.25,-127 254.25,-127 254.25,-158 254.25,-158 254.25,-164 248.25,-170 242.25,-170 242.25,-170 144.25,-170 144.25,-170 138.25,-170 132.25,-164 132.25,-158 132.25,-158 132.25,-127 132.25,-127 132.25,-121 138.25,-115 144.25,-115"/>
<text text-anchor="middle" x="193.25" y="-157.45" font-family="Helvetica,sans-Serif" font-weight="bold" font-size="9.00">utils</text>
</g>
<g id="clust4" class="cluster">
<title>cluster_src/components/inputs</title>
<path fill="#ffffff" stroke="black" stroke-width="2" d="M151,-24C151,-24 235.5,-24 235.5,-24 241.5,-24 247.5,-30 247.5,-36 247.5,-36 247.5,-67 247.5,-67 247.5,-73 241.5,-79 235.5,-79 235.5,-79 151,-79 151,-79 145,-79 139,-73 139,-67 139,-67 139,-36 139,-36 139,-30 145,-24 151,-24"/>
<text text-anchor="middle" x="193.25" y="-66.45" font-family="Helvetica,sans-Serif" font-weight="bold" font-size="9.00">inputs</text>
</g>
<g id="clust6" class="cluster">
<title>cluster_src/stores</title>
<path fill="#ffffff" stroke="black" stroke-width="2" d="M282.25,-84C282.25,-84 358.5,-84 358.5,-84 364.5,-84 370.5,-90 370.5,-96 370.5,-96 370.5,-158 370.5,-158 370.5,-164 364.5,-170 358.5,-170 358.5,-170 282.25,-170 282.25,-170 276.25,-170 270.25,-164 270.25,-158 270.25,-158 270.25,-96 270.25,-96 270.25,-90 276.25,-84 282.25,-84"/>
<text text-anchor="middle" x="320.38" y="-157.45" font-family="Helvetica,sans-Serif" font-weight="bold" font-size="9.00">stores</text>
</g>
<g id="clust7" class="cluster">
<title>cluster_src/views</title>
<path fill="#ffffff" stroke="black" stroke-width="2" d="M28,-149C28,-149 104.25,-149 104.25,-149 110.25,-149 116.25,-155 116.25,-161 116.25,-161 116.25,-223 116.25,-223 116.25,-229 110.25,-235 104.25,-235 104.25,-235 28,-235 28,-235 22,-235 16,-229 16,-223 16,-223 16,-161 16,-161 16,-155 22,-149 28,-149"/>
<text text-anchor="middle" x="66.12" y="-222.45" font-family="Helvetica,sans-Serif" font-weight="bold" font-size="9.00">views</text>
</g>
<!-- src/application/index.ts -->
<g id="node1" class="node">
<title>src/application/index.ts</title>
<g id="a_node1"><a xlink:href="src/application/index.ts" xlink:title="index.ts">
<path fill="#ddfeff" stroke="black" d="M434.08,-96.62C434.08,-96.62 392.92,-96.62 392.92,-96.62 389.71,-96.62 386.5,-93.42 386.5,-90.21 386.5,-90.21 386.5,-83.79 386.5,-83.79 386.5,-80.58 389.71,-77.38 392.92,-77.38 392.92,-77.38 434.08,-77.38 434.08,-77.38 437.29,-77.38 440.5,-80.58 440.5,-83.79 440.5,-83.79 440.5,-90.21 440.5,-90.21 440.5,-93.42 437.29,-96.62 434.08,-96.62"/>
<text text-anchor="start" x="397.75" y="-84.08" font-family="Helvetica,sans-Serif" font-size="9.00">index.ts</text>
</a>
</g>
</g>
<!-- src/components/VideoCard.vue -->
<g id="node2" class="node">
<title>src/components/VideoCard.vue</title>
<g id="a_node2"><a xlink:href="src/components/VideoCard.vue" xlink:title="VideoCard.vue">
<path fill="#41f083" stroke="black" d="M224.83,-106.62C224.83,-106.62 161.67,-106.62 161.67,-106.62 158.46,-106.62 155.25,-103.42 155.25,-100.21 155.25,-100.21 155.25,-93.79 155.25,-93.79 155.25,-90.58 158.46,-87.38 161.67,-87.38 161.67,-87.38 224.83,-87.38 224.83,-87.38 228.04,-87.38 231.25,-90.58 231.25,-93.79 231.25,-93.79 231.25,-100.21 231.25,-100.21 231.25,-103.42 228.04,-106.62 224.83,-106.62"/>
<text text-anchor="start" x="163.25" y="-94.08" font-family="Helvetica,sans-Serif" font-size="9.00">VideoCard.vue</text>
</a>
</g>
</g>
<!-- src/stores/videosStore.ts -->
<g id="node3" class="node">
<title>src/stores/videosStore.ts</title>
<g id="a_node3"><a xlink:href="src/stores/videosStore.ts" xlink:title="videosStore.ts">
<path fill="#ddfeff" stroke="black" d="M351.21,-111.62C351.21,-111.62 289.54,-111.62 289.54,-111.62 286.33,-111.62 283.12,-108.42 283.12,-105.21 283.12,-105.21 283.12,-98.79 283.12,-98.79 283.12,-95.58 286.33,-92.38 289.54,-92.38 289.54,-92.38 351.21,-92.38 351.21,-92.38 354.42,-92.38 357.62,-95.58 357.62,-98.79 357.62,-98.79 357.62,-105.21 357.62,-105.21 357.62,-108.42 354.42,-111.62 351.21,-111.62"/>
<text text-anchor="start" x="291.12" y="-99.08" font-family="Helvetica,sans-Serif" font-size="9.00">videosStore.ts</text>
</a>
</g>
</g>
<!-- src/components/VideoCard.vue&#45;&gt;src/stores/videosStore.ts -->
<g id="edge1" class="edge">
<title>src/components/VideoCard.vue&#45;&gt;src/stores/videosStore.ts</title>
<path fill="none" stroke="#000000" stroke-width="2" stroke-opacity="0.200000" d="M231.45,-98.49C244.81,-99.02 260.02,-99.63 273.99,-100.19"/>
<polygon fill="#000000" fill-opacity="0.200000" stroke="#000000" stroke-width="2" stroke-opacity="0.200000" points="273.86,-102.28 279.94,-100.42 274.03,-98.09 273.86,-102.28"/>
</g>
<!-- src/stores/videosStore.ts&#45;&gt;src/application/index.ts -->
<g id="edge5" class="edge">
<title>src/stores/videosStore.ts&#45;&gt;src/application/index.ts</title>
<path fill="none" stroke="#000000" stroke-width="2" stroke-opacity="0.200000" d="M357.91,-95.99C364.38,-94.92 371.1,-93.81 377.53,-92.76"/>
<polygon fill="#000000" fill-opacity="0.200000" stroke="#000000" stroke-width="2" stroke-opacity="0.200000" points="377.48,-94.89 383.06,-91.85 376.8,-90.75 377.48,-94.89"/>
</g>
<!-- src/components/inputs/FolderSelector.vue -->
<g id="node4" class="node">
<title>src/components/inputs/FolderSelector.vue</title>
<g id="a_node4"><a xlink:href="src/components/inputs/FolderSelector.vue" xlink:title="FolderSelector.vue">
<path fill="#41f083" stroke="black" d="M233.08,-51.62C233.08,-51.62 153.42,-51.62 153.42,-51.62 150.21,-51.62 147,-48.42 147,-45.21 147,-45.21 147,-38.79 147,-38.79 147,-35.58 150.21,-32.38 153.42,-32.38 153.42,-32.38 233.08,-32.38 233.08,-32.38 236.29,-32.38 239.5,-35.58 239.5,-38.79 239.5,-38.79 239.5,-45.21 239.5,-45.21 239.5,-48.42 236.29,-51.62 233.08,-51.62"/>
<text text-anchor="start" x="155" y="-39.08" font-family="Helvetica,sans-Serif" font-size="9.00">FolderSelector.vue</text>
</a>
</g>
</g>
<!-- src/components/inputs/FolderSelector.vue&#45;&gt;src/application/index.ts -->
<g id="edge2" class="edge">
<title>src/components/inputs/FolderSelector.vue&#45;&gt;src/application/index.ts</title>
<path fill="none" stroke="#000000" stroke-width="2" stroke-opacity="0.200000" d="M239.97,-51.41C247.42,-52.94 255.05,-54.52 262.25,-56 301.78,-64.15 347.16,-73.51 377.61,-79.8"/>
<polygon fill="#000000" fill-opacity="0.200000" stroke="#000000" stroke-width="2" stroke-opacity="0.200000" points="376.91,-81.8 383.21,-80.95 377.76,-77.68 376.91,-81.8"/>
</g>
<!-- src/components/inputs/FolderSelector.vue&#45;&gt;src/stores/videosStore.ts -->
<g id="edge3" class="edge">
<title>src/components/inputs/FolderSelector.vue&#45;&gt;src/stores/videosStore.ts</title>
<path fill="none" stroke="#000000" stroke-width="2" stroke-opacity="0.200000" d="M239.85,-48.26C247.53,-50.19 255.27,-52.71 262.25,-56 266.61,-58.05 285.75,-73.74 300.7,-86.23"/>
<polygon fill="#000000" fill-opacity="0.200000" stroke="#000000" stroke-width="2" stroke-opacity="0.200000" points="299.35,-87.84 305.29,-90.09 302.05,-84.62 299.35,-87.84"/>
</g>
<!-- src/components/utils/DiagnosticsPanel.vue -->
<g id="node5" class="node">
<title>src/components/utils/DiagnosticsPanel.vue</title>
<g id="a_node5"><a xlink:href="src/components/utils/DiagnosticsPanel.vue" xlink:title="DiagnosticsPanel.vue">
<path fill="#41f083" stroke="black" d="M239.83,-142.62C239.83,-142.62 146.67,-142.62 146.67,-142.62 143.46,-142.62 140.25,-139.42 140.25,-136.21 140.25,-136.21 140.25,-129.79 140.25,-129.79 140.25,-126.58 143.46,-123.38 146.67,-123.38 146.67,-123.38 239.83,-123.38 239.83,-123.38 243.04,-123.38 246.25,-126.58 246.25,-129.79 246.25,-129.79 246.25,-136.21 246.25,-136.21 246.25,-139.42 243.04,-142.62 239.83,-142.62"/>
<text text-anchor="start" x="148.25" y="-130.07" font-family="Helvetica,sans-Serif" font-size="9.00">DiagnosticsPanel.vue</text>
</a>
</g>
</g>
<!-- src/stores/appStateStore.ts -->
<g id="node6" class="node">
<title>src/stores/appStateStore.ts</title>
<g id="a_node6"><a xlink:href="src/stores/appStateStore.ts" xlink:title="appStateStore.ts">
<path fill="#ddfeff" stroke="black" d="M356.08,-142.62C356.08,-142.62 284.67,-142.62 284.67,-142.62 281.46,-142.62 278.25,-139.42 278.25,-136.21 278.25,-136.21 278.25,-129.79 278.25,-129.79 278.25,-126.58 281.46,-123.38 284.67,-123.38 284.67,-123.38 356.08,-123.38 356.08,-123.38 359.29,-123.38 362.5,-126.58 362.5,-129.79 362.5,-129.79 362.5,-136.21 362.5,-136.21 362.5,-139.42 359.29,-142.62 356.08,-142.62"/>
<text text-anchor="start" x="286.25" y="-130.07" font-family="Helvetica,sans-Serif" font-size="9.00">appStateStore.ts</text>
</a>
</g>
</g>
<!-- src/components/utils/DiagnosticsPanel.vue&#45;&gt;src/stores/appStateStore.ts -->
<g id="edge4" class="edge">
<title>src/components/utils/DiagnosticsPanel.vue&#45;&gt;src/stores/appStateStore.ts</title>
<path fill="none" stroke="#000000" stroke-width="2" stroke-opacity="0.200000" d="M246.59,-133C254.1,-133 261.81,-133 269.27,-133"/>
<polygon fill="#000000" fill-opacity="0.200000" stroke="#000000" stroke-width="2" stroke-opacity="0.200000" points="268.87,-135.1 274.87,-133 268.87,-130.9 268.87,-135.1"/>
</g>
<!-- src/views/NavBar.vue -->
<g id="node7" class="node">
<title>src/views/NavBar.vue</title>
<g id="a_node7"><a xlink:href="src/views/NavBar.vue" xlink:title="NavBar.vue">
<path fill="#41f083" stroke="black" d="M90.96,-207.62C90.96,-207.62 41.29,-207.62 41.29,-207.62 38.08,-207.62 34.88,-204.42 34.88,-201.21 34.88,-201.21 34.88,-194.79 34.88,-194.79 34.88,-191.58 38.08,-188.38 41.29,-188.38 41.29,-188.38 90.96,-188.38 90.96,-188.38 94.17,-188.38 97.38,-191.58 97.38,-194.79 97.38,-194.79 97.38,-201.21 97.38,-201.21 97.38,-204.42 94.17,-207.62 90.96,-207.62"/>
<text text-anchor="start" x="42.88" y="-195.07" font-family="Helvetica,sans-Serif" font-size="9.00">NavBar.vue</text>
</a>
</g>
</g>
<!-- src/views/NavBar.vue&#45;&gt;src/stores/videosStore.ts -->
<g id="edge8" class="edge">
<title>src/views/NavBar.vue&#45;&gt;src/stores/videosStore.ts</title>
<path fill="none" stroke="#000000" stroke-width="2" stroke-opacity="0.200000" d="M97.55,-205.96C140.45,-215.17 218.36,-224.14 262.25,-182 283.25,-161.84 251.53,-139.29 270.25,-117 271.71,-115.27 273.35,-113.73 275.14,-112.37"/>
<polygon fill="#000000" fill-opacity="0.200000" stroke="#000000" stroke-width="2" stroke-opacity="0.200000" points="275.94,-114.34 280.04,-109.47 273.8,-110.72 275.94,-114.34"/>
</g>
<!-- src/views/NavBar.vue&#45;&gt;src/components/inputs/FolderSelector.vue -->
<g id="edge6" class="edge">
<title>src/views/NavBar.vue&#45;&gt;src/components/inputs/FolderSelector.vue</title>
<path fill="none" stroke="#000000" stroke-width="2" stroke-opacity="0.200000" d="M97.82,-194.66C104.88,-192.43 111.66,-188.81 116.25,-183 133.78,-160.81 105.7,-77.35 124.25,-56 128.13,-51.54 133.01,-48.27 138.38,-45.91"/>
<polygon fill="#000000" fill-opacity="0.200000" stroke="#000000" stroke-width="2" stroke-opacity="0.200000" points="138.71,-48.02 143.67,-44.05 137.32,-44.05 138.71,-48.02"/>
</g>
<!-- src/views/NavBar.vue&#45;&gt;src/stores/appStateStore.ts -->
<g id="edge7" class="edge">
<title>src/views/NavBar.vue&#45;&gt;src/stores/appStateStore.ts</title>
<path fill="none" stroke="#000000" stroke-width="2" stroke-opacity="0.200000" d="M83.96,-207.98C95,-213.93 109.98,-220.91 124.25,-224 184.19,-237 208.58,-253.68 262.25,-224 290.1,-208.6 306.2,-173.3 313.85,-151.47"/>
<polygon fill="#000000" fill-opacity="0.200000" stroke="#000000" stroke-width="2" stroke-opacity="0.200000" points="315.79,-152.27 315.67,-145.92 311.8,-150.96 315.79,-152.27"/>
</g>
<!-- src/views/VideoGallery.vue -->
<g id="node8" class="node">
<title>src/views/VideoGallery.vue</title>
<g id="a_node8"><a xlink:href="src/views/VideoGallery.vue" xlink:title="VideoGallery.vue">
<path fill="#41f083" stroke="black" d="M101.83,-176.62C101.83,-176.62 30.42,-176.62 30.42,-176.62 27.21,-176.62 24,-173.42 24,-170.21 24,-170.21 24,-163.79 24,-163.79 24,-160.58 27.21,-157.38 30.42,-157.38 30.42,-157.38 101.83,-157.38 101.83,-157.38 105.04,-157.38 108.25,-160.58 108.25,-163.79 108.25,-163.79 108.25,-170.21 108.25,-170.21 108.25,-173.42 105.04,-176.62 101.83,-176.62"/>
<text text-anchor="start" x="32" y="-164.07" font-family="Helvetica,sans-Serif" font-size="9.00">VideoGallery.vue</text>
</a>
</g>
</g>
<!-- src/views/VideoGallery.vue&#45;&gt;src/components/VideoCard.vue -->
<g id="edge9" class="edge">
<title>src/views/VideoGallery.vue&#45;&gt;src/components/VideoCard.vue</title>
<path fill="none" stroke="#000000" stroke-width="2" stroke-opacity="0.200000" d="M74.45,-157.17C84.33,-144.65 103.13,-123.31 124.25,-112 131.14,-108.31 138.88,-105.53 146.61,-103.43"/>
<polygon fill="#000000" fill-opacity="0.200000" stroke="#000000" stroke-width="2" stroke-opacity="0.200000" points="146.67,-105.58 152.01,-102.12 145.68,-101.49 146.67,-105.58"/>
</g>
<!-- src/views/VideoGallery.vue&#45;&gt;src/stores/videosStore.ts -->
<g id="edge10" class="edge">
<title>src/views/VideoGallery.vue&#45;&gt;src/stores/videosStore.ts</title>
<path fill="none" stroke="#000000" stroke-width="2" stroke-opacity="0.200000" d="M108.37,-174.54C158.78,-182.72 240.1,-192.21 262.25,-173 281.24,-156.53 253.9,-136.1 270.25,-117 271.72,-115.28 273.38,-113.76 275.19,-112.4"/>
<polygon fill="#000000" fill-opacity="0.200000" stroke="#000000" stroke-width="2" stroke-opacity="0.200000" points="275.99,-114.37 280.1,-109.52 273.86,-110.75 275.99,-114.37"/>
</g>
</g>
</svg>
