<?xml version="1.0" encoding="UTF-8" standalone="no"?>
<!DOCTYPE svg PUBLIC "-//W3C//DTD SVG 1.1//EN"
 "http://www.w3.org/Graphics/SVG/1.1/DTD/svg11.dtd">
<!-- Generated by graphviz version 9.0.0 (20230911.1827)
 -->
<!-- Title: dependency&#45;cruiser output Pages: 1 -->
<svg width="473pt" height="290pt"
 viewBox="0.00 0.00 472.50 290.08" xmlns="http://www.w3.org/2000/svg" xmlns:xlink="http://www.w3.org/1999/xlink">
<g id="graph0" class="graph" transform="scale(1 1) rotate(0) translate(4 286.08)">
<title>dependency&#45;cruiser output</title>
<polygon fill="white" stroke="none" points="-4,4 -4,-286.08 468.5,-286.08 468.5,4 -4,4"/>
<g id="clust1" class="cluster">
<title>cluster_src</title>
<path fill="#ffffff" stroke="black" stroke-width="2" d="M20,-10.08C20,-10.08 444.5,-10.08 444.5,-10.08 450.5,-10.08 456.5,-16.08 456.5,-22.08 456.5,-22.08 456.5,-262.08 456.5,-262.08 456.5,-268.08 450.5,-274.08 444.5,-274.08 444.5,-274.08 20,-274.08 20,-274.08 14,-274.08 8,-268.08 8,-262.08 8,-262.08 8,-22.08 8,-22.08 8,-16.08 14,-10.08 20,-10.08"/>
<text text-anchor="middle" x="232.25" y="-261.53" font-family="Helvetica,sans-Serif" font-weight="bold" font-size="9.00">src</text>
</g>
<g id="clust2" class="cluster">
<title>cluster_src/application</title>
<path fill="#ffffff" stroke="black" stroke-width="2" d="M390.5,-127.08C390.5,-127.08 436.5,-127.08 436.5,-127.08 442.5,-127.08 448.5,-133.08 448.5,-139.08 448.5,-139.08 448.5,-170.08 448.5,-170.08 448.5,-176.08 442.5,-182.08 436.5,-182.08 436.5,-182.08 390.5,-182.08 390.5,-182.08 384.5,-182.08 378.5,-176.08 378.5,-170.08 378.5,-170.08 378.5,-139.08 378.5,-139.08 378.5,-133.08 384.5,-127.08 390.5,-127.08"/>
<text text-anchor="middle" x="413.5" y="-169.53" font-family="Helvetica,sans-Serif" font-weight="bold" font-size="9.00">application</text>
</g>
<g id="clust3" class="cluster">
<title>cluster_src/components</title>
<path fill="#ffffff" stroke="black" stroke-width="2" d="M136.25,-28.08C136.25,-28.08 250.25,-28.08 250.25,-28.08 256.25,-28.08 262.25,-34.08 262.25,-40.08 262.25,-40.08 262.25,-197.08 262.25,-197.08 262.25,-203.08 256.25,-209.08 250.25,-209.08 250.25,-209.08 136.25,-209.08 136.25,-209.08 130.25,-209.08 124.25,-203.08 124.25,-197.08 124.25,-197.08 124.25,-40.08 124.25,-40.08 124.25,-34.08 130.25,-28.08 136.25,-28.08"/>
<text text-anchor="middle" x="193.25" y="-196.53" font-family="Helvetica,sans-Serif" font-weight="bold" font-size="9.00">components</text>
</g>
<g id="clust4" class="cluster">
<title>cluster_src/components/inputs</title>
<path fill="#ffffff" stroke="black" stroke-width="2" d="M163.38,-127.08C163.38,-127.08 223.12,-127.08 223.12,-127.08 229.12,-127.08 235.12,-133.08 235.12,-139.08 235.12,-139.08 235.12,-170.08 235.12,-170.08 235.12,-176.08 229.12,-182.08 223.12,-182.08 223.12,-182.08 163.38,-182.08 163.38,-182.08 157.38,-182.08 151.38,-176.08 151.38,-170.08 151.38,-170.08 151.38,-139.08 151.38,-139.08 151.38,-133.08 157.38,-127.08 163.38,-127.08"/>
<text text-anchor="middle" x="193.25" y="-169.53" font-family="Helvetica,sans-Serif" font-weight="bold" font-size="9.00">inputs</text>
</g>
<g id="clust5" class="cluster">
<title>cluster_src/components/utils</title>
<path fill="#ffffff" stroke="black" stroke-width="2" d="M144.25,-64.08C144.25,-64.08 242.25,-64.08 242.25,-64.08 248.25,-64.08 254.25,-70.08 254.25,-76.08 254.25,-76.08 254.25,-107.08 254.25,-107.08 254.25,-113.08 248.25,-119.08 242.25,-119.08 242.25,-119.08 144.25,-119.08 144.25,-119.08 138.25,-119.08 132.25,-113.08 132.25,-107.08 132.25,-107.08 132.25,-76.08 132.25,-76.08 132.25,-70.08 138.25,-64.08 144.25,-64.08"/>
<text text-anchor="middle" x="193.25" y="-106.53" font-family="Helvetica,sans-Serif" font-weight="bold" font-size="9.00">utils</text>
</g>
<g id="clust6" class="cluster">
<title>cluster_src/stores</title>
<path fill="#ffffff" stroke="black" stroke-width="2" d="M282.25,-127.08C282.25,-127.08 358.5,-127.08 358.5,-127.08 364.5,-127.08 370.5,-133.08 370.5,-139.08 370.5,-139.08 370.5,-201.08 370.5,-201.08 370.5,-207.08 364.5,-213.08 358.5,-213.08 358.5,-213.08 282.25,-213.08 282.25,-213.08 276.25,-213.08 270.25,-207.08 270.25,-201.08 270.25,-201.08 270.25,-139.08 270.25,-139.08 270.25,-133.08 276.25,-127.08 282.25,-127.08"/>
<text text-anchor="middle" x="320.38" y="-200.53" font-family="Helvetica,sans-Serif" font-weight="bold" font-size="9.00">stores</text>
</g>
<g id="clust7" class="cluster">
<title>cluster_src/views</title>
<path fill="#ffffff" stroke="black" stroke-width="2" d="M28,-144.08C28,-144.08 104.25,-144.08 104.25,-144.08 110.25,-144.08 116.25,-150.08 116.25,-156.08 116.25,-156.08 116.25,-218.08 116.25,-218.08 116.25,-224.08 110.25,-230.08 104.25,-230.08 104.25,-230.08 28,-230.08 28,-230.08 22,-230.08 16,-224.08 16,-218.08 16,-218.08 16,-156.08 16,-156.08 16,-150.08 22,-144.08 28,-144.08"/>
<text text-anchor="middle" x="66.12" y="-217.53" font-family="Helvetica,sans-Serif" font-weight="bold" font-size="9.00">views</text>
</g>
<!-- src/application/index.ts -->
<g id="node1" class="node">
<title>src/application/index.ts</title>
<g id="a_node1"><a xlink:href="src/application/index.ts" xlink:title="index.ts">
<path fill="#ddfeff" stroke="black" d="M434.08,-154.7C434.08,-154.7 392.92,-154.7 392.92,-154.7 389.71,-154.7 386.5,-151.49 386.5,-148.28 386.5,-148.28 386.5,-141.87 386.5,-141.87 386.5,-138.66 389.71,-135.45 392.92,-135.45 392.92,-135.45 434.08,-135.45 434.08,-135.45 437.29,-135.45 440.5,-138.66 440.5,-141.87 440.5,-141.87 440.5,-148.28 440.5,-148.28 440.5,-151.49 437.29,-154.7 434.08,-154.7"/>
<text text-anchor="start" x="397.75" y="-142.15" font-family="Helvetica,sans-Serif" font-size="9.00">index.ts</text>
</a>
</g>
</g>
<!-- src/components/VideoCard.vue -->
<g id="node2" class="node">
<title>src/components/VideoCard.vue</title>
<g id="a_node2"><a xlink:href="src/components/VideoCard.vue" xlink:title="VideoCard.vue">
<path fill="#41f083" stroke="black" d="M224.83,-55.7C224.83,-55.7 161.67,-55.7 161.67,-55.7 158.46,-55.7 155.25,-52.49 155.25,-49.28 155.25,-49.28 155.25,-42.87 155.25,-42.87 155.25,-39.66 158.46,-36.45 161.67,-36.45 161.67,-36.45 224.83,-36.45 224.83,-36.45 228.04,-36.45 231.25,-39.66 231.25,-42.87 231.25,-42.87 231.25,-49.28 231.25,-49.28 231.25,-52.49 228.04,-55.7 224.83,-55.7"/>
<text text-anchor="start" x="163.25" y="-43.15" font-family="Helvetica,sans-Serif" font-size="9.00">VideoCard.vue</text>
</a>
</g>
</g>
<!-- src/stores/videosStore.ts -->
<g id="node3" class="node">
<title>src/stores/videosStore.ts</title>
<g id="a_node3"><a xlink:href="src/stores/videosStore.ts" xlink:title="videosStore.ts">
<path fill="#ddfeff" stroke="black" d="M351.21,-154.7C351.21,-154.7 289.54,-154.7 289.54,-154.7 286.33,-154.7 283.12,-151.49 283.12,-148.28 283.12,-148.28 283.12,-141.87 283.12,-141.87 283.12,-138.66 286.33,-135.45 289.54,-135.45 289.54,-135.45 351.21,-135.45 351.21,-135.45 354.42,-135.45 357.62,-138.66 357.62,-141.87 357.62,-141.87 357.62,-148.28 357.62,-148.28 357.62,-151.49 354.42,-154.7 351.21,-154.7"/>
<text text-anchor="start" x="291.12" y="-142.15" font-family="Helvetica,sans-Serif" font-size="9.00">videosStore.ts</text>
</a>
</g>
</g>
<!-- src/components/VideoCard.vue&#45;&gt;src/stores/videosStore.ts -->
<g id="edge1" class="edge">
<title>src/components/VideoCard.vue&#45;&gt;src/stores/videosStore.ts</title>
<path fill="none" stroke="#000000" stroke-width="2" stroke-opacity="0.200000" d="M231.58,-49.12C242.16,-51.31 253.24,-54.97 262.25,-61.08 286.31,-77.37 303.06,-107.49 311.95,-126.88"/>
<polygon fill="#000000" fill-opacity="0.200000" stroke="#000000" stroke-width="2" stroke-opacity="0.200000" points="309.93,-127.52 314.26,-132.18 313.78,-125.84 309.93,-127.52"/>
</g>
<!-- src/stores/videosStore.ts&#45;&gt;src/application/index.ts -->
<g id="edge4" class="edge">
<title>src/stores/videosStore.ts&#45;&gt;src/application/index.ts</title>
<path fill="none" stroke="#000000" stroke-width="2" stroke-opacity="0.200000" d="M357.91,-145.08C364.23,-145.08 370.8,-145.08 377.09,-145.08"/>
<polygon fill="#000000" fill-opacity="0.200000" stroke="#000000" stroke-width="2" stroke-opacity="0.200000" points="377.02,-147.18 383.02,-145.08 377.02,-142.98 377.02,-147.18"/>
</g>
<!-- src/components/inputs/FileInput.vue -->
<g id="node4" class="node">
<title>src/components/inputs/FileInput.vue</title>
<g id="a_node4"><a xlink:href="src/components/inputs/FileInput.vue" xlink:title="FileInput.vue">
<path fill="#41f083" stroke="black" d="M220.71,-154.7C220.71,-154.7 165.79,-154.7 165.79,-154.7 162.58,-154.7 159.38,-151.49 159.38,-148.28 159.38,-148.28 159.38,-141.87 159.38,-141.87 159.38,-138.66 162.58,-135.45 165.79,-135.45 165.79,-135.45 220.71,-135.45 220.71,-135.45 223.92,-135.45 227.12,-138.66 227.12,-141.87 227.12,-141.87 227.12,-148.28 227.12,-148.28 227.12,-151.49 223.92,-154.7 220.71,-154.7"/>
<text text-anchor="start" x="167.38" y="-142.15" font-family="Helvetica,sans-Serif" font-size="9.00">FileInput.vue</text>
</a>
</g>
</g>
<!-- src/components/inputs/FileInput.vue&#45;&gt;src/stores/videosStore.ts -->
<g id="edge2" class="edge">
<title>src/components/inputs/FileInput.vue&#45;&gt;src/stores/videosStore.ts</title>
<path fill="none" stroke="#000000" stroke-width="2" stroke-opacity="0.200000" d="M227.45,-145.08C241.74,-145.08 258.66,-145.08 274.07,-145.08"/>
<polygon fill="#000000" fill-opacity="0.200000" stroke="#000000" stroke-width="2" stroke-opacity="0.200000" points="273.91,-147.18 279.91,-145.08 273.91,-142.98 273.91,-147.18"/>
</g>
<!-- src/components/utils/DiagnosticsPanel.vue -->
<g id="node5" class="node">
<title>src/components/utils/DiagnosticsPanel.vue</title>
<g id="a_node5"><a xlink:href="src/components/utils/DiagnosticsPanel.vue" xlink:title="DiagnosticsPanel.vue">
<path fill="#41f083" stroke="black" d="M239.83,-91.7C239.83,-91.7 146.67,-91.7 146.67,-91.7 143.46,-91.7 140.25,-88.49 140.25,-85.28 140.25,-85.28 140.25,-78.87 140.25,-78.87 140.25,-75.66 143.46,-72.45 146.67,-72.45 146.67,-72.45 239.83,-72.45 239.83,-72.45 243.04,-72.45 246.25,-75.66 246.25,-78.87 246.25,-78.87 246.25,-85.28 246.25,-85.28 246.25,-88.49 243.04,-91.7 239.83,-91.7"/>
<text text-anchor="start" x="148.25" y="-79.15" font-family="Helvetica,sans-Serif" font-size="9.00">DiagnosticsPanel.vue</text>
</a>
</g>
</g>
<!-- src/stores/appStateStore.ts -->
<g id="node6" class="node">
<title>src/stores/appStateStore.ts</title>
<g id="a_node6"><a xlink:href="src/stores/appStateStore.ts" xlink:title="appStateStore.ts">
<path fill="#ddfeff" stroke="black" d="M356.08,-185.7C356.08,-185.7 284.67,-185.7 284.67,-185.7 281.46,-185.7 278.25,-182.49 278.25,-179.28 278.25,-179.28 278.25,-172.87 278.25,-172.87 278.25,-169.66 281.46,-166.45 284.67,-166.45 284.67,-166.45 356.08,-166.45 356.08,-166.45 359.29,-166.45 362.5,-169.66 362.5,-172.87 362.5,-172.87 362.5,-179.28 362.5,-179.28 362.5,-182.49 359.29,-185.7 356.08,-185.7"/>
<text text-anchor="start" x="286.25" y="-173.15" font-family="Helvetica,sans-Serif" font-size="9.00">appStateStore.ts</text>
</a>
</g>
</g>
<!-- src/components/utils/DiagnosticsPanel.vue&#45;&gt;src/stores/appStateStore.ts -->
<g id="edge3" class="edge">
<title>src/components/utils/DiagnosticsPanel.vue&#45;&gt;src/stores/appStateStore.ts</title>
<path fill="none" stroke="#000000" stroke-width="2" stroke-opacity="0.200000" d="M220.56,-92.2C235,-99.07 252,-109.57 262.25,-124.08 271.96,-137.82 258.86,-148.69 270.25,-161.08 270.54,-161.39 270.83,-161.69 271.13,-161.99"/>
<polygon fill="#000000" fill-opacity="0.200000" stroke="#000000" stroke-width="2" stroke-opacity="0.200000" points="269.73,-163.56 275.77,-165.55 272.28,-160.23 269.73,-163.56"/>
</g>
<!-- src/views/NavBar.vue -->
<g id="node7" class="node">
<title>src/views/NavBar.vue</title>
<g id="a_node7"><a xlink:href="src/views/NavBar.vue" xlink:title="NavBar.vue">
<path fill="#41f083" stroke="black" d="M90.96,-171.7C90.96,-171.7 41.29,-171.7 41.29,-171.7 38.08,-171.7 34.88,-168.49 34.88,-165.28 34.88,-165.28 34.88,-158.87 34.88,-158.87 34.88,-155.66 38.08,-152.45 41.29,-152.45 41.29,-152.45 90.96,-152.45 90.96,-152.45 94.17,-152.45 97.38,-155.66 97.38,-158.87 97.38,-158.87 97.38,-165.28 97.38,-165.28 97.38,-168.49 94.17,-171.7 90.96,-171.7"/>
<text text-anchor="start" x="42.88" y="-159.15" font-family="Helvetica,sans-Serif" font-size="9.00">NavBar.vue</text>
</a>
</g>
</g>
<!-- src/views/NavBar.vue&#45;&gt;src/stores/videosStore.ts -->
<g id="edge7" class="edge">
<title>src/views/NavBar.vue&#45;&gt;src/stores/videosStore.ts</title>
<path fill="none" stroke="#000000" stroke-width="2" stroke-opacity="0.200000" d="M67.72,-152.19C69.91,-125.97 79.86,-54.66 124.25,-25.08 175.29,8.94 210.39,7.67 262.25,-25.08 297.68,-47.45 311.59,-98.46 316.68,-126.22"/>
<polygon fill="#000000" fill-opacity="0.200000" stroke="#000000" stroke-width="2" stroke-opacity="0.200000" points="314.59,-126.43 317.64,-132 318.73,-125.74 314.59,-126.43"/>
</g>
<!-- src/views/NavBar.vue&#45;&gt;src/components/inputs/FileInput.vue -->
<g id="edge5" class="edge">
<title>src/views/NavBar.vue&#45;&gt;src/components/inputs/FileInput.vue</title>
<path fill="none" stroke="#000000" stroke-width="2" stroke-opacity="0.200000" d="M97.73,-157.92C113.51,-155.77 132.98,-153.13 150.15,-150.8"/>
<polygon fill="#000000" fill-opacity="0.200000" stroke="#000000" stroke-width="2" stroke-opacity="0.200000" points="150.22,-152.91 155.88,-150.02 149.66,-148.74 150.22,-152.91"/>
</g>
<!-- src/views/NavBar.vue&#45;&gt;src/stores/appStateStore.ts -->
<g id="edge6" class="edge">
<title>src/views/NavBar.vue&#45;&gt;src/stores/appStateStore.ts</title>
<path fill="none" stroke="#000000" stroke-width="2" stroke-opacity="0.200000" d="M97.73,-168.89C104.1,-170.99 110.59,-173.68 116.25,-177.08 120.56,-179.66 119.6,-183.15 124.25,-185.08 173.43,-205.45 235.67,-197.45 276.46,-188.22"/>
<polygon fill="#000000" fill-opacity="0.200000" stroke="#000000" stroke-width="2" stroke-opacity="0.200000" points="276.77,-190.3 282.13,-186.87 275.81,-186.21 276.77,-190.3"/>
</g>
<!-- src/views/VideoGallery.vue -->
<g id="node8" class="node">
<title>src/views/VideoGallery.vue</title>
<g id="a_node8"><a xlink:href="src/views/VideoGallery.vue" xlink:title="VideoGallery.vue">
<path fill="#41f083" stroke="black" d="M101.83,-202.7C101.83,-202.7 30.42,-202.7 30.42,-202.7 27.21,-202.7 24,-199.49 24,-196.28 24,-196.28 24,-189.87 24,-189.87 24,-186.66 27.21,-183.45 30.42,-183.45 30.42,-183.45 101.83,-183.45 101.83,-183.45 105.04,-183.45 108.25,-186.66 108.25,-189.87 108.25,-189.87 108.25,-196.28 108.25,-196.28 108.25,-199.49 105.04,-202.7 101.83,-202.7"/>
<text text-anchor="start" x="32" y="-190.15" font-family="Helvetica,sans-Serif" font-size="9.00">VideoGallery.vue</text>
</a>
</g>
</g>
<!-- src/views/VideoGallery.vue&#45;&gt;src/components/VideoCard.vue -->
<g id="edge8" class="edge">
<title>src/views/VideoGallery.vue&#45;&gt;src/components/VideoCard.vue</title>
<path fill="none" stroke="#000000" stroke-width="2" stroke-opacity="0.200000" d="M108.74,-184.74C111.58,-182.92 114.14,-180.73 116.25,-178.08 132.46,-157.67 107.24,-80.82 124.25,-61.08 129.99,-54.41 137.96,-50.32 146.43,-47.89"/>
<polygon fill="#000000" fill-opacity="0.200000" stroke="#000000" stroke-width="2" stroke-opacity="0.200000" points="146.65,-49.99 152.04,-46.63 145.73,-45.89 146.65,-49.99"/>
</g>
<!-- src/views/VideoGallery.vue&#45;&gt;src/stores/videosStore.ts -->
<g id="edge10" class="edge">
<title>src/views/VideoGallery.vue&#45;&gt;src/stores/videosStore.ts</title>
<path fill="none" stroke="#000000" stroke-width="2" stroke-opacity="0.200000" d="M104.38,-203.13C147.07,-212.25 216.94,-219.59 262.25,-185.08 271.53,-178.01 261.95,-168.27 270.25,-160.08 271.69,-158.65 273.27,-157.36 274.94,-156.19"/>
<polygon fill="#000000" fill-opacity="0.200000" stroke="#000000" stroke-width="2" stroke-opacity="0.200000" points="275.92,-158.05 280.14,-153.29 273.88,-154.38 275.92,-158.05"/>
</g>
<!-- src/views/VideoGallery.vue&#45;&gt;src/stores/appStateStore.ts -->
<g id="edge9" class="edge">
<title>src/views/VideoGallery.vue&#45;&gt;src/stores/appStateStore.ts</title>
<path fill="none" stroke="#000000" stroke-width="2" stroke-opacity="0.200000" d="M76.1,-202.86C86.49,-213.4 104.71,-229.54 124.25,-236.08 182.42,-255.52 205.88,-260.24 262.25,-236.08 282.33,-227.47 298.69,-207.96 308.68,-193.51"/>
<polygon fill="#000000" fill-opacity="0.200000" stroke="#000000" stroke-width="2" stroke-opacity="0.200000" points="310.34,-194.8 311.89,-188.63 306.83,-192.49 310.34,-194.8"/>
</g>
</g>
</svg>
