<?xml version="1.0" encoding="UTF-8" standalone="no"?>
<!DOCTYPE svg PUBLIC "-//W3C//DTD SVG 1.1//EN"
 "http://www.w3.org/Graphics/SVG/1.1/DTD/svg11.dtd">
<!-- Generated by graphviz version 2.43.0 (0)
 -->
<!-- Title: dependency&#45;cruiser output Pages: 1 -->
<svg width="503pt" height="282pt"
 viewBox="0.00 0.00 503.00 282.00" xmlns="http://www.w3.org/2000/svg" xmlns:xlink="http://www.w3.org/1999/xlink">
<g id="graph0" class="graph" transform="scale(1 1) rotate(0) translate(4 278)">
<title>dependency&#45;cruiser output</title>
<polygon fill="white" stroke="transparent" points="-4,4 -4,-278 499,-278 499,4 -4,4"/>
<g id="clust1" class="cluster">
<title>cluster_src</title>
<path fill="#ffffff" stroke="black" stroke-width="2" d="M20,-8C20,-8 477,-8 477,-8 483,-8 489,-14 489,-20 489,-20 489,-254 489,-254 489,-260 483,-266 477,-266 477,-266 20,-266 20,-266 14,-266 8,-260 8,-254 8,-254 8,-20 8,-20 8,-14 14,-8 20,-8"/>
<text text-anchor="middle" x="248.5" y="-254.8" font-family="Helvetica,sans-Serif" font-weight="bold" font-size="9.00">src</text>
</g>
<g id="clust2" class="cluster">
<title>cluster_src/application</title>
<path fill="#ffffff" stroke="black" stroke-width="2" d="M419,-134C419,-134 469,-134 469,-134 475,-134 481,-140 481,-146 481,-146 481,-174 481,-174 481,-180 475,-186 469,-186 469,-186 419,-186 419,-186 413,-186 407,-180 407,-174 407,-174 407,-146 407,-146 407,-140 413,-134 419,-134"/>
<text text-anchor="middle" x="444" y="-174.8" font-family="Helvetica,sans-Serif" font-weight="bold" font-size="9.00">application</text>
</g>
<g id="clust3" class="cluster">
<title>cluster_src/components</title>
<path fill="#ffffff" stroke="black" stroke-width="2" d="M142,-16C142,-16 262,-16 262,-16 268,-16 274,-22 274,-28 274,-28 274,-176 274,-176 274,-182 268,-188 262,-188 262,-188 142,-188 142,-188 136,-188 130,-182 130,-176 130,-176 130,-28 130,-28 130,-22 136,-16 142,-16"/>
<text text-anchor="middle" x="202" y="-176.8" font-family="Helvetica,sans-Serif" font-weight="bold" font-size="9.00">components</text>
</g>
<g id="clust4" class="cluster">
<title>cluster_src/components/inputs</title>
<path fill="#ffffff" stroke="black" stroke-width="2" d="M168.5,-110C168.5,-110 235.5,-110 235.5,-110 241.5,-110 247.5,-116 247.5,-122 247.5,-122 247.5,-150 247.5,-150 247.5,-156 241.5,-162 235.5,-162 235.5,-162 168.5,-162 168.5,-162 162.5,-162 156.5,-156 156.5,-150 156.5,-150 156.5,-122 156.5,-122 156.5,-116 162.5,-110 168.5,-110"/>
<text text-anchor="middle" x="202" y="-150.8" font-family="Helvetica,sans-Serif" font-weight="bold" font-size="9.00">inputs</text>
</g>
<g id="clust5" class="cluster">
<title>cluster_src/components/utils</title>
<path fill="#ffffff" stroke="black" stroke-width="2" d="M150,-50C150,-50 254,-50 254,-50 260,-50 266,-56 266,-62 266,-62 266,-90 266,-90 266,-96 260,-102 254,-102 254,-102 150,-102 150,-102 144,-102 138,-96 138,-90 138,-90 138,-62 138,-62 138,-56 144,-50 150,-50"/>
<text text-anchor="middle" x="202" y="-90.8" font-family="Helvetica,sans-Serif" font-weight="bold" font-size="9.00">utils</text>
</g>
<g id="clust6" class="cluster">
<title>cluster_src/domain</title>
<path fill="#ffffff" stroke="black" stroke-width="2" d="M421,-57C421,-57 467,-57 467,-57 473,-57 479,-63 479,-69 479,-69 479,-97 479,-97 479,-103 473,-109 467,-109 467,-109 421,-109 421,-109 415,-109 409,-103 409,-97 409,-97 409,-69 409,-69 409,-63 415,-57 421,-57"/>
<text text-anchor="middle" x="444" y="-97.8" font-family="Helvetica,sans-Serif" font-weight="bold" font-size="9.00">domain</text>
</g>
<g id="clust7" class="cluster">
<title>cluster_src/stores</title>
<path fill="#ffffff" stroke="black" stroke-width="2" d="M294,-134C294,-134 379,-134 379,-134 385,-134 391,-140 391,-146 391,-146 391,-204 391,-204 391,-210 385,-216 379,-216 379,-216 294,-216 294,-216 288,-216 282,-210 282,-204 282,-204 282,-146 282,-146 282,-140 288,-134 294,-134"/>
<text text-anchor="middle" x="336.5" y="-204.8" font-family="Helvetica,sans-Serif" font-weight="bold" font-size="9.00">stores</text>
</g>
<g id="clust8" class="cluster">
<title>cluster_src/views</title>
<path fill="#ffffff" stroke="black" stroke-width="2" d="M28,-158C28,-158 110,-158 110,-158 116,-158 122,-164 122,-170 122,-170 122,-228 122,-228 122,-234 116,-240 110,-240 110,-240 28,-240 28,-240 22,-240 16,-234 16,-228 16,-228 16,-170 16,-170 16,-164 22,-158 28,-158"/>
<text text-anchor="middle" x="69" y="-228.8" font-family="Helvetica,sans-Serif" font-weight="bold" font-size="9.00">views</text>
</g>
<!-- src/application/index.ts -->
<g id="node1" class="node">
<title>src/application/index.ts</title>
<g id="a_node1"><a xlink:href="src/application/index.ts" xlink:title="index.ts">
<path fill="#ddfeff" stroke="black" d="M465,-160C465,-160 423,-160 423,-160 420,-160 417,-157 417,-154 417,-154 417,-148 417,-148 417,-145 420,-142 423,-142 423,-142 465,-142 465,-142 468,-142 471,-145 471,-148 471,-148 471,-154 471,-154 471,-157 468,-160 465,-160"/>
<text text-anchor="start" x="425.5" y="-148.8" font-family="Helvetica,sans-Serif" font-size="9.00">index.ts</text>
</a>
</g>
</g>
<!-- src/components/VideoCard.vue -->
<g id="node2" class="node">
<title>src/components/VideoCard.vue</title>
<g id="a_node2"><a xlink:href="src/components/VideoCard.vue" xlink:title="VideoCard.vue">
<path fill="#41f083" stroke="black" d="M237,-42C237,-42 167,-42 167,-42 164,-42 161,-39 161,-36 161,-36 161,-30 161,-30 161,-27 164,-24 167,-24 167,-24 237,-24 237,-24 240,-24 243,-27 243,-30 243,-30 243,-36 243,-36 243,-39 240,-42 237,-42"/>
<text text-anchor="start" x="169" y="-30.8" font-family="Helvetica,sans-Serif" font-size="9.00">VideoCard.vue</text>
</a>
</g>
</g>
<!-- src/domain/index.ts -->
<g id="node3" class="node">
<title>src/domain/index.ts</title>
<g id="a_node3"><a xlink:href="src/domain/index.ts" xlink:title="index.ts">
<path fill="#ddfeff" stroke="black" d="M465,-83C465,-83 423,-83 423,-83 420,-83 417,-80 417,-77 417,-77 417,-71 417,-71 417,-68 420,-65 423,-65 423,-65 465,-65 465,-65 468,-65 471,-68 471,-71 471,-71 471,-77 471,-77 471,-80 468,-83 465,-83"/>
<text text-anchor="start" x="425.5" y="-71.8" font-family="Helvetica,sans-Serif" font-size="9.00">index.ts</text>
</a>
</g>
</g>
<!-- src/components/VideoCard.vue&#45;&gt;src/domain/index.ts -->
<g id="edge1" class="edge">
<title>src/components/VideoCard.vue&#45;&gt;src/domain/index.ts</title>
<path fill="none" stroke="#000000" stroke-opacity="0.200000" d="M243.17,-39.86C290.23,-47.9 367.26,-61.06 410.66,-68.47"/>
<polygon fill="none" stroke="#000000" stroke-opacity="0.200000" points="410.54,-70.58 416.81,-69.53 411.25,-66.44 410.54,-70.58"/>
</g>
<!-- src/stores/videosStore.ts -->
<g id="node4" class="node">
<title>src/stores/videosStore.ts</title>
<g id="a_node4"><a xlink:href="src/stores/videosStore.ts" xlink:title="videosStore.ts">
<path fill="#ddfeff" stroke="black" d="M370.5,-160C370.5,-160 302.5,-160 302.5,-160 299.5,-160 296.5,-157 296.5,-154 296.5,-154 296.5,-148 296.5,-148 296.5,-145 299.5,-142 302.5,-142 302.5,-142 370.5,-142 370.5,-142 373.5,-142 376.5,-145 376.5,-148 376.5,-148 376.5,-154 376.5,-154 376.5,-157 373.5,-160 370.5,-160"/>
<text text-anchor="start" x="304.5" y="-148.8" font-family="Helvetica,sans-Serif" font-size="9.00">videosStore.ts</text>
</a>
</g>
</g>
<!-- src/components/VideoCard.vue&#45;&gt;src/stores/videosStore.ts -->
<g id="edge2" class="edge">
<title>src/components/VideoCard.vue&#45;&gt;src/stores/videosStore.ts</title>
<path fill="none" stroke="#000000" stroke-width="2" stroke-opacity="0.200000" d="M243.31,-34.99C254.02,-37.05 265.08,-40.69 274,-47 305.3,-69.15 323.26,-112.7 330.97,-135.79"/>
<polygon fill="#000000" fill-opacity="0.200000" stroke="#000000" stroke-width="2" stroke-opacity="0.200000" points="329.04,-136.65 332.88,-141.73 333.04,-135.37 329.04,-136.65"/>
</g>
<!-- src/stores/videosStore.ts&#45;&gt;src/application/index.ts -->
<g id="edge5" class="edge">
<title>src/stores/videosStore.ts&#45;&gt;src/application/index.ts</title>
<path fill="none" stroke="#000000" stroke-width="2" stroke-opacity="0.200000" d="M376.78,-151C387.95,-151 399.98,-151 410.68,-151"/>
<polygon fill="#000000" fill-opacity="0.200000" stroke="#000000" stroke-width="2" stroke-opacity="0.200000" points="410.81,-153.1 416.81,-151 410.81,-148.9 410.81,-153.1"/>
</g>
<!-- src/stores/videosStore.ts&#45;&gt;src/domain/index.ts -->
<g id="edge6" class="edge">
<title>src/stores/videosStore.ts&#45;&gt;src/domain/index.ts</title>
<path fill="none" stroke="#000000" stroke-opacity="0.200000" d="M350.02,-141.86C368.73,-128.2 404.09,-102.4 425.4,-86.84"/>
<polygon fill="none" stroke="#000000" stroke-opacity="0.200000" points="426.89,-88.36 430.5,-83.12 424.42,-84.96 426.89,-88.36"/>
</g>
<!-- src/components/inputs/FileInput.vue -->
<g id="node5" class="node">
<title>src/components/inputs/FileInput.vue</title>
<g id="a_node5"><a xlink:href="src/components/inputs/FileInput.vue" xlink:title="FileInput.vue">
<path fill="#41f083" stroke="black" d="M233.5,-136C233.5,-136 170.5,-136 170.5,-136 167.5,-136 164.5,-133 164.5,-130 164.5,-130 164.5,-124 164.5,-124 164.5,-121 167.5,-118 170.5,-118 170.5,-118 233.5,-118 233.5,-118 236.5,-118 239.5,-121 239.5,-124 239.5,-124 239.5,-130 239.5,-130 239.5,-133 236.5,-136 233.5,-136"/>
<text text-anchor="start" x="172.5" y="-124.8" font-family="Helvetica,sans-Serif" font-size="9.00">FileInput.vue</text>
</a>
</g>
</g>
<!-- src/components/inputs/FileInput.vue&#45;&gt;src/stores/videosStore.ts -->
<g id="edge3" class="edge">
<title>src/components/inputs/FileInput.vue&#45;&gt;src/stores/videosStore.ts</title>
<path fill="none" stroke="#000000" stroke-width="2" stroke-opacity="0.200000" d="M239.56,-133.62C255.25,-136.46 273.74,-139.81 290.28,-142.81"/>
<polygon fill="#000000" fill-opacity="0.200000" stroke="#000000" stroke-width="2" stroke-opacity="0.200000" points="290,-144.89 296.28,-143.9 290.75,-140.76 290,-144.89"/>
</g>
<!-- src/components/utils/DiagnosticsPanel.vue -->
<g id="node6" class="node">
<title>src/components/utils/DiagnosticsPanel.vue</title>
<g id="a_node6"><a xlink:href="src/components/utils/DiagnosticsPanel.vue" xlink:title="DiagnosticsPanel.vue">
<path fill="#41f083" stroke="black" d="M252,-76C252,-76 152,-76 152,-76 149,-76 146,-73 146,-70 146,-70 146,-64 146,-64 146,-61 149,-58 152,-58 152,-58 252,-58 252,-58 255,-58 258,-61 258,-64 258,-64 258,-70 258,-70 258,-73 255,-76 252,-76"/>
<text text-anchor="start" x="154" y="-64.8" font-family="Helvetica,sans-Serif" font-size="9.00">DiagnosticsPanel.vue</text>
</a>
</g>
</g>
<!-- src/stores/appStateStore.ts -->
<g id="node7" class="node">
<title>src/stores/appStateStore.ts</title>
<g id="a_node7"><a xlink:href="src/stores/appStateStore.ts" xlink:title="appStateStore.ts">
<path fill="#ddfeff" stroke="black" d="M377,-190C377,-190 296,-190 296,-190 293,-190 290,-187 290,-184 290,-184 290,-178 290,-178 290,-175 293,-172 296,-172 296,-172 377,-172 377,-172 380,-172 383,-175 383,-178 383,-178 383,-184 383,-184 383,-187 380,-190 377,-190"/>
<text text-anchor="start" x="298" y="-178.8" font-family="Helvetica,sans-Serif" font-size="9.00">appStateStore.ts</text>
</a>
</g>
</g>
<!-- src/components/utils/DiagnosticsPanel.vue&#45;&gt;src/stores/appStateStore.ts -->
<g id="edge4" class="edge">
<title>src/components/utils/DiagnosticsPanel.vue&#45;&gt;src/stores/appStateStore.ts</title>
<path fill="none" stroke="#000000" stroke-width="2" stroke-opacity="0.200000" d="M231.59,-76.06C246.63,-82.33 263.99,-92.25 274,-107 288.86,-128.9 264.63,-146.04 282,-166 282.85,-166.98 283.77,-167.9 284.73,-168.77"/>
<polygon fill="#000000" fill-opacity="0.200000" stroke="#000000" stroke-width="2" stroke-opacity="0.200000" points="283.86,-170.73 289.93,-172.61 286.35,-167.35 283.86,-170.73"/>
</g>
<!-- src/views/NavBar.vue -->
<g id="node8" class="node">
<title>src/views/NavBar.vue</title>
<g id="a_node8"><a xlink:href="src/views/NavBar.vue" xlink:title="NavBar.vue">
<path fill="#41f083" stroke="black" d="M97,-214C97,-214 41,-214 41,-214 38,-214 35,-211 35,-208 35,-208 35,-202 35,-202 35,-199 38,-196 41,-196 41,-196 97,-196 97,-196 100,-196 103,-199 103,-202 103,-202 103,-208 103,-208 103,-211 100,-214 97,-214"/>
<text text-anchor="start" x="43" y="-202.8" font-family="Helvetica,sans-Serif" font-size="9.00">NavBar.vue</text>
</a>
</g>
</g>
<!-- src/views/NavBar.vue&#45;&gt;src/stores/videosStore.ts -->
<g id="edge9" class="edge">
<title>src/views/NavBar.vue&#45;&gt;src/stores/videosStore.ts</title>
<path fill="none" stroke="#000000" stroke-width="2" stroke-opacity="0.200000" d="M103.07,-205.36C144.83,-204.61 217.98,-199.18 274,-173 278.28,-171 277.85,-168.25 282,-166 284.67,-164.56 287.49,-163.24 290.39,-162.04"/>
<polygon fill="#000000" fill-opacity="0.200000" stroke="#000000" stroke-width="2" stroke-opacity="0.200000" points="291.55,-163.84 296.41,-159.75 290.06,-159.92 291.55,-163.84"/>
</g>
<!-- src/views/NavBar.vue&#45;&gt;src/components/inputs/FileInput.vue -->
<g id="edge7" class="edge">
<title>src/views/NavBar.vue&#45;&gt;src/components/inputs/FileInput.vue</title>
<path fill="none" stroke="#000000" stroke-width="2" stroke-opacity="0.200000" d="M103.21,-197.53C109.62,-195.51 116.16,-193.02 122,-190 147.48,-176.83 172.64,-154.78 187.5,-140.57"/>
<polygon fill="#000000" fill-opacity="0.200000" stroke="#000000" stroke-width="2" stroke-opacity="0.200000" points="189.28,-141.76 192.12,-136.07 186.36,-138.75 189.28,-141.76"/>
</g>
<!-- src/views/NavBar.vue&#45;&gt;src/stores/appStateStore.ts -->
<g id="edge8" class="edge">
<title>src/views/NavBar.vue&#45;&gt;src/stores/appStateStore.ts</title>
<path fill="none" stroke="#000000" stroke-width="2" stroke-opacity="0.200000" d="M87.57,-214.1C99.26,-219.62 115.13,-226.14 130,-229 192.85,-241.1 213.48,-249.82 274,-229 293.67,-222.23 311.88,-206.3 323.3,-194.65"/>
<polygon fill="#000000" fill-opacity="0.200000" stroke="#000000" stroke-width="2" stroke-opacity="0.200000" points="324.86,-196.05 327.47,-190.26 321.81,-193.16 324.86,-196.05"/>
</g>
<!-- src/views/VideoGallery.vue -->
<g id="node9" class="node">
<title>src/views/VideoGallery.vue</title>
<g id="a_node9"><a xlink:href="src/views/VideoGallery.vue" xlink:title="VideoGallery.vue">
<path fill="#41f083" stroke="black" d="M108,-184C108,-184 30,-184 30,-184 27,-184 24,-181 24,-178 24,-178 24,-172 24,-172 24,-169 27,-166 30,-166 30,-166 108,-166 108,-166 111,-166 114,-169 114,-172 114,-172 114,-178 114,-178 114,-181 111,-184 108,-184"/>
<text text-anchor="start" x="32" y="-172.8" font-family="Helvetica,sans-Serif" font-size="9.00">VideoGallery.vue</text>
</a>
</g>
</g>
<!-- src/views/VideoGallery.vue&#45;&gt;src/components/VideoCard.vue -->
<g id="edge10" class="edge">
<title>src/views/VideoGallery.vue&#45;&gt;src/components/VideoCard.vue</title>
<path fill="none" stroke="#000000" stroke-width="2" stroke-opacity="0.200000" d="M71.41,-165.82C75.59,-142.05 90.17,-78.14 130,-47 137.08,-41.47 145.74,-37.93 154.55,-35.71"/>
<polygon fill="#000000" fill-opacity="0.200000" stroke="#000000" stroke-width="2" stroke-opacity="0.200000" points="155.24,-37.71 160.65,-34.38 154.34,-33.61 155.24,-37.71"/>
</g>
<!-- src/views/VideoGallery.vue&#45;&gt;src/stores/videosStore.ts -->
<g id="edge12" class="edge">
<title>src/views/VideoGallery.vue&#45;&gt;src/stores/videosStore.ts</title>
<path fill="none" stroke="#000000" stroke-width="2" stroke-opacity="0.200000" d="M114.38,-175.05C155.84,-174.58 219.37,-172.5 274,-165 280.64,-164.09 287.63,-162.81 294.41,-161.4"/>
<polygon fill="#000000" fill-opacity="0.200000" stroke="#000000" stroke-width="2" stroke-opacity="0.200000" points="295.15,-163.39 300.57,-160.06 294.26,-159.28 295.15,-163.39"/>
</g>
<!-- src/views/VideoGallery.vue&#45;&gt;src/stores/appStateStore.ts -->
<g id="edge11" class="edge">
<title>src/views/VideoGallery.vue&#45;&gt;src/stores/appStateStore.ts</title>
<path fill="none" stroke="#000000" stroke-width="2" stroke-opacity="0.200000" d="M111.22,-184.06C115.03,-185.72 118.69,-187.68 122,-190 126.95,-193.47 124.61,-198.26 130,-201 187.03,-230.04 210.79,-211.02 274,-201 285.22,-199.22 297.17,-195.73 307.53,-192.15"/>
<polygon fill="#000000" fill-opacity="0.200000" stroke="#000000" stroke-width="2" stroke-opacity="0.200000" points="308.48,-194.04 313.42,-190.05 307.07,-190.08 308.48,-194.04"/>
</g>
</g>
</svg>
