<?xml version="1.0" encoding="UTF-8" standalone="no"?>
<!DOCTYPE svg PUBLIC "-//W3C//DTD SVG 1.1//EN"
 "http://www.w3.org/Graphics/SVG/1.1/DTD/svg11.dtd">
<!-- Generated by graphviz version 9.0.0 (20230911.1827)
 -->
<!-- Title: dependency&#45;cruiser output Pages: 1 -->
<svg width="489pt" height="303pt"
 viewBox="0.00 0.00 488.50 303.00" xmlns="http://www.w3.org/2000/svg" xmlns:xlink="http://www.w3.org/1999/xlink">
<g id="graph0" class="graph" transform="scale(1 1) rotate(0) translate(4 299)">
<title>dependency&#45;cruiser output</title>
<polygon fill="white" stroke="none" points="-4,4 -4,-299 484.5,-299 484.5,4 -4,4"/>
<g id="clust1" class="cluster">
<title>cluster_src</title>
<path fill="#ffffff" stroke="black" stroke-width="2" d="M20,-8C20,-8 460.5,-8 460.5,-8 466.5,-8 472.5,-14 472.5,-20 472.5,-20 472.5,-275 472.5,-275 472.5,-281 466.5,-287 460.5,-287 460.5,-287 20,-287 20,-287 14,-287 8,-281 8,-275 8,-275 8,-20 8,-20 8,-14 14,-8 20,-8"/>
<text text-anchor="middle" x="240.25" y="-274.45" font-family="Helvetica,sans-Serif" font-weight="bold" font-size="9.00">src</text>
</g>
<g id="clust2" class="cluster">
<title>cluster_src/application</title>
<path fill="#ffffff" stroke="black" stroke-width="2" d="M398.5,-205C398.5,-205 444.5,-205 444.5,-205 450.5,-205 456.5,-211 456.5,-217 456.5,-217 456.5,-248 456.5,-248 456.5,-254 450.5,-260 444.5,-260 444.5,-260 398.5,-260 398.5,-260 392.5,-260 386.5,-254 386.5,-248 386.5,-248 386.5,-217 386.5,-217 386.5,-211 392.5,-205 398.5,-205"/>
<text text-anchor="middle" x="421.5" y="-247.45" font-family="Helvetica,sans-Serif" font-weight="bold" font-size="9.00">application</text>
</g>
<g id="clust3" class="cluster">
<title>cluster_src/components</title>
<path fill="#ffffff" stroke="black" stroke-width="2" d="M136.25,-16C136.25,-16 250.25,-16 250.25,-16 256.25,-16 262.25,-22 262.25,-28 262.25,-28 262.25,-185 262.25,-185 262.25,-191 256.25,-197 250.25,-197 250.25,-197 136.25,-197 136.25,-197 130.25,-197 124.25,-191 124.25,-185 124.25,-185 124.25,-28 124.25,-28 124.25,-22 130.25,-16 136.25,-16"/>
<text text-anchor="middle" x="193.25" y="-184.45" font-family="Helvetica,sans-Serif" font-weight="bold" font-size="9.00">components</text>
</g>
<g id="clust5" class="cluster">
<title>cluster_src/components/utils</title>
<path fill="#ffffff" stroke="black" stroke-width="2" d="M144.25,-52C144.25,-52 242.25,-52 242.25,-52 248.25,-52 254.25,-58 254.25,-64 254.25,-64 254.25,-95 254.25,-95 254.25,-101 248.25,-107 242.25,-107 242.25,-107 144.25,-107 144.25,-107 138.25,-107 132.25,-101 132.25,-95 132.25,-95 132.25,-64 132.25,-64 132.25,-58 138.25,-52 144.25,-52"/>
<text text-anchor="middle" x="193.25" y="-94.45" font-family="Helvetica,sans-Serif" font-weight="bold" font-size="9.00">utils</text>
</g>
<g id="clust4" class="cluster">
<title>cluster_src/components/inputs</title>
<path fill="#ffffff" stroke="black" stroke-width="2" d="M163.38,-115C163.38,-115 223.12,-115 223.12,-115 229.12,-115 235.12,-121 235.12,-127 235.12,-127 235.12,-158 235.12,-158 235.12,-164 229.12,-170 223.12,-170 223.12,-170 163.38,-170 163.38,-170 157.38,-170 151.38,-164 151.38,-158 151.38,-158 151.38,-127 151.38,-127 151.38,-121 157.38,-115 163.38,-115"/>
<text text-anchor="middle" x="193.25" y="-157.45" font-family="Helvetica,sans-Serif" font-weight="bold" font-size="9.00">inputs</text>
</g>
<g id="clust10" class="cluster">
<title>cluster_src/views</title>
<path fill="#ffffff" stroke="black" stroke-width="2" d="M28,-172C28,-172 104.25,-172 104.25,-172 110.25,-172 116.25,-178 116.25,-184 116.25,-184 116.25,-246 116.25,-246 116.25,-252 110.25,-258 104.25,-258 104.25,-258 28,-258 28,-258 22,-258 16,-252 16,-246 16,-246 16,-184 16,-184 16,-178 22,-172 28,-172"/>
<text text-anchor="middle" x="66.12" y="-245.45" font-family="Helvetica,sans-Serif" font-weight="bold" font-size="9.00">views</text>
</g>
<g id="clust6" class="cluster">
<title>cluster_src/domain</title>
<path fill="#ffffff" stroke="black" stroke-width="2" d="M398.5,-16C398.5,-16 444.5,-16 444.5,-16 450.5,-16 456.5,-22 456.5,-28 456.5,-28 456.5,-59 456.5,-59 456.5,-65 450.5,-71 444.5,-71 444.5,-71 398.5,-71 398.5,-71 392.5,-71 386.5,-65 386.5,-59 386.5,-59 386.5,-28 386.5,-28 386.5,-22 392.5,-16 398.5,-16"/>
<text text-anchor="middle" x="421.5" y="-58.45" font-family="Helvetica,sans-Serif" font-weight="bold" font-size="9.00">domain</text>
</g>
<g id="clust9" class="cluster">
<title>cluster_src/stores</title>
<path fill="#ffffff" stroke="black" stroke-width="2" d="M282.25,-158C282.25,-158 358.5,-158 358.5,-158 364.5,-158 370.5,-164 370.5,-170 370.5,-170 370.5,-232 370.5,-232 370.5,-238 364.5,-244 358.5,-244 358.5,-244 282.25,-244 282.25,-244 276.25,-244 270.25,-238 270.25,-232 270.25,-232 270.25,-170 270.25,-170 270.25,-164 276.25,-158 282.25,-158"/>
<text text-anchor="middle" x="320.38" y="-231.45" font-family="Helvetica,sans-Serif" font-weight="bold" font-size="9.00">stores</text>
</g>
<g id="clust7" class="cluster">
<title>cluster_src/infrastructure</title>
<path fill="#ffffff" stroke="black" stroke-width="2" d="M390.5,-79C390.5,-79 452.5,-79 452.5,-79 458.5,-79 464.5,-85 464.5,-91 464.5,-91 464.5,-185 464.5,-185 464.5,-191 458.5,-197 452.5,-197 452.5,-197 390.5,-197 390.5,-197 384.5,-197 378.5,-191 378.5,-185 378.5,-185 378.5,-91 378.5,-91 378.5,-85 384.5,-79 390.5,-79"/>
<text text-anchor="middle" x="421.5" y="-184.45" font-family="Helvetica,sans-Serif" font-weight="bold" font-size="9.00">infrastructure</text>
</g>
<g id="clust8" class="cluster">
<title>cluster_src/infrastructure/services</title>
<path fill="#ffffff" stroke="black" stroke-width="2" d="M398.5,-87C398.5,-87 444.5,-87 444.5,-87 450.5,-87 456.5,-93 456.5,-99 456.5,-99 456.5,-130 456.5,-130 456.5,-136 450.5,-142 444.5,-142 444.5,-142 398.5,-142 398.5,-142 392.5,-142 386.5,-136 386.5,-130 386.5,-130 386.5,-99 386.5,-99 386.5,-93 392.5,-87 398.5,-87"/>
<text text-anchor="middle" x="421.5" y="-129.45" font-family="Helvetica,sans-Serif" font-weight="bold" font-size="9.00">services</text>
</g>
<!-- src/application/index.ts -->
<g id="node1" class="node">
<title>src/application/index.ts</title>
<g id="a_node1"><a xlink:href="src/application/index.ts" xlink:title="index.ts">
<path fill="#ddfeff" stroke="black" d="M442.08,-232.62C442.08,-232.62 400.92,-232.62 400.92,-232.62 397.71,-232.62 394.5,-229.42 394.5,-226.21 394.5,-226.21 394.5,-219.79 394.5,-219.79 394.5,-216.58 397.71,-213.38 400.92,-213.38 400.92,-213.38 442.08,-213.38 442.08,-213.38 445.29,-213.38 448.5,-216.58 448.5,-219.79 448.5,-219.79 448.5,-226.21 448.5,-226.21 448.5,-229.42 445.29,-232.62 442.08,-232.62"/>
<text text-anchor="start" x="405.75" y="-220.07" font-family="Helvetica,sans-Serif" font-size="9.00">index.ts</text>
</a>
</g>
</g>
<!-- src/components/VideoCard.vue -->
<g id="node2" class="node">
<title>src/components/VideoCard.vue</title>
<g id="a_node2"><a xlink:href="src/components/VideoCard.vue" xlink:title="VideoCard.vue">
<path fill="#41f083" stroke="black" d="M224.83,-43.62C224.83,-43.62 161.67,-43.62 161.67,-43.62 158.46,-43.62 155.25,-40.42 155.25,-37.21 155.25,-37.21 155.25,-30.79 155.25,-30.79 155.25,-27.58 158.46,-24.38 161.67,-24.38 161.67,-24.38 224.83,-24.38 224.83,-24.38 228.04,-24.38 231.25,-27.58 231.25,-30.79 231.25,-30.79 231.25,-37.21 231.25,-37.21 231.25,-40.42 228.04,-43.62 224.83,-43.62"/>
<text text-anchor="start" x="163.25" y="-31.07" font-family="Helvetica,sans-Serif" font-size="9.00">VideoCard.vue</text>
</a>
</g>
</g>
<!-- src/domain/index.ts -->
<g id="node3" class="node">
<title>src/domain/index.ts</title>
<g id="a_node3"><a xlink:href="src/domain/index.ts" xlink:title="index.ts">
<path fill="#ddfeff" stroke="black" d="M442.08,-43.62C442.08,-43.62 400.92,-43.62 400.92,-43.62 397.71,-43.62 394.5,-40.42 394.5,-37.21 394.5,-37.21 394.5,-30.79 394.5,-30.79 394.5,-27.58 397.71,-24.38 400.92,-24.38 400.92,-24.38 442.08,-24.38 442.08,-24.38 445.29,-24.38 448.5,-27.58 448.5,-30.79 448.5,-30.79 448.5,-37.21 448.5,-37.21 448.5,-40.42 445.29,-43.62 442.08,-43.62"/>
<text text-anchor="start" x="405.75" y="-31.07" font-family="Helvetica,sans-Serif" font-size="9.00">index.ts</text>
</a>
</g>
</g>
<!-- src/components/VideoCard.vue&#45;&gt;src/domain/index.ts -->
<g id="edge1" class="edge">
<title>src/components/VideoCard.vue&#45;&gt;src/domain/index.ts</title>
<path fill="none" stroke="#000000" stroke-opacity="0.200000" d="M231.61,-34C274.74,-34 345.05,-34 386.64,-34"/>
<polygon fill="none" stroke="#000000" stroke-opacity="0.200000" points="386.54,-36.1 392.54,-34 386.54,-31.9 386.54,-36.1"/>
</g>
<!-- src/stores/videosStore.ts -->
<g id="node4" class="node">
<title>src/stores/videosStore.ts</title>
<g id="a_node4"><a xlink:href="src/stores/videosStore.ts" xlink:title="videosStore.ts">
<path fill="#ddfeff" stroke="black" d="M351.21,-185.62C351.21,-185.62 289.54,-185.62 289.54,-185.62 286.33,-185.62 283.12,-182.42 283.12,-179.21 283.12,-179.21 283.12,-172.79 283.12,-172.79 283.12,-169.58 286.33,-166.38 289.54,-166.38 289.54,-166.38 351.21,-166.38 351.21,-166.38 354.42,-166.38 357.62,-169.58 357.62,-172.79 357.62,-172.79 357.62,-179.21 357.62,-179.21 357.62,-182.42 354.42,-185.62 351.21,-185.62"/>
<text text-anchor="start" x="291.12" y="-173.07" font-family="Helvetica,sans-Serif" font-size="9.00">videosStore.ts</text>
</a>
</g>
</g>
<!-- src/components/VideoCard.vue&#45;&gt;src/stores/videosStore.ts -->
<g id="edge2" class="edge">
<title>src/components/VideoCard.vue&#45;&gt;src/stores/videosStore.ts</title>
<path fill="none" stroke="#000000" stroke-width="2" stroke-opacity="0.200000" d="M231.59,-35.94C242.41,-38.07 253.62,-41.98 262.25,-49 296.31,-76.69 310.8,-129 316.34,-157.07"/>
<polygon fill="#000000" fill-opacity="0.200000" stroke="#000000" stroke-width="2" stroke-opacity="0.200000" points="314.26,-157.4 317.4,-162.93 318.39,-156.65 314.26,-157.4"/>
</g>
<!-- src/stores/videosStore.ts&#45;&gt;src/application/index.ts -->
<g id="edge7" class="edge">
<title>src/stores/videosStore.ts&#45;&gt;src/application/index.ts</title>
<path fill="none" stroke="#000000" stroke-width="2" stroke-opacity="0.200000" d="M358.06,-184.73C362.42,-186.47 366.67,-188.54 370.5,-191 375,-193.89 374.31,-196.67 378.5,-200 382.5,-203.19 387,-206.17 391.53,-208.86"/>
<polygon fill="#000000" fill-opacity="0.200000" stroke="#000000" stroke-width="2" stroke-opacity="0.200000" points="390.2,-210.52 396.46,-211.62 392.26,-206.86 390.2,-210.52"/>
</g>
<!-- src/stores/videosStore.ts&#45;&gt;src/domain/index.ts -->
<g id="edge8" class="edge">
<title>src/stores/videosStore.ts&#45;&gt;src/domain/index.ts</title>
<path fill="none" stroke="#000000" stroke-opacity="0.200000" d="M326.93,-166.03C336.67,-148.82 357.76,-112.62 378.5,-84 387.2,-71.99 397.98,-59.19 406.44,-49.55"/>
<polygon fill="none" stroke="#000000" stroke-opacity="0.200000" points="407.96,-51.01 410.36,-45.13 404.81,-48.23 407.96,-51.01"/>
</g>
<!-- src/infrastructure/services/index.ts -->
<g id="node8" class="node">
<title>src/infrastructure/services/index.ts</title>
<g id="a_node8"><a xlink:href="src/infrastructure/services/index.ts" xlink:title="index.ts">
<path fill="#ddfeff" stroke="black" d="M442.08,-114.62C442.08,-114.62 400.92,-114.62 400.92,-114.62 397.71,-114.62 394.5,-111.42 394.5,-108.21 394.5,-108.21 394.5,-101.79 394.5,-101.79 394.5,-98.58 397.71,-95.38 400.92,-95.38 400.92,-95.38 442.08,-95.38 442.08,-95.38 445.29,-95.38 448.5,-98.58 448.5,-101.79 448.5,-101.79 448.5,-108.21 448.5,-108.21 448.5,-111.42 445.29,-114.62 442.08,-114.62"/>
<text text-anchor="start" x="405.75" y="-102.08" font-family="Helvetica,sans-Serif" font-size="9.00">index.ts</text>
</a>
</g>
</g>
<!-- src/stores/videosStore.ts&#45;&gt;src/infrastructure/services/index.ts -->
<g id="edge10" class="edge">
<title>src/stores/videosStore.ts&#45;&gt;src/infrastructure/services/index.ts</title>
<path fill="none" stroke="#000000" stroke-width="2" stroke-opacity="0.200000" d="M328.82,-166.14C338.82,-153.54 357.76,-131.8 378.5,-119 380.92,-117.51 383.52,-116.15 386.19,-114.93"/>
<polygon fill="#000000" fill-opacity="0.200000" stroke="#000000" stroke-width="2" stroke-opacity="0.200000" points="386.75,-116.97 391.53,-112.77 385.18,-113.07 386.75,-116.97"/>
</g>
<!-- src/infrastructure/index.ts -->
<g id="node9" class="node">
<title>src/infrastructure/index.ts</title>
<g id="a_node9"><a xlink:href="src/infrastructure/index.ts" xlink:title="index.ts">
<path fill="#ddfeff" stroke="black" d="M442.08,-169.62C442.08,-169.62 400.92,-169.62 400.92,-169.62 397.71,-169.62 394.5,-166.42 394.5,-163.21 394.5,-163.21 394.5,-156.79 394.5,-156.79 394.5,-153.58 397.71,-150.38 400.92,-150.38 400.92,-150.38 442.08,-150.38 442.08,-150.38 445.29,-150.38 448.5,-153.58 448.5,-156.79 448.5,-156.79 448.5,-163.21 448.5,-163.21 448.5,-166.42 445.29,-169.62 442.08,-169.62"/>
<text text-anchor="start" x="405.75" y="-157.07" font-family="Helvetica,sans-Serif" font-size="9.00">index.ts</text>
</a>
</g>
</g>
<!-- src/stores/videosStore.ts&#45;&gt;src/infrastructure/index.ts -->
<g id="edge9" class="edge">
<title>src/stores/videosStore.ts&#45;&gt;src/infrastructure/index.ts</title>
<path fill="none" stroke="#000000" stroke-width="2" stroke-opacity="0.200000" d="M358,-170.09C367.02,-168.63 376.65,-167.08 385.59,-165.64"/>
<polygon fill="#000000" fill-opacity="0.200000" stroke="#000000" stroke-width="2" stroke-opacity="0.200000" points="385.66,-167.75 391.25,-164.72 384.99,-163.6 385.66,-167.75"/>
</g>
<!-- src/components/inputs/FileInput.vue -->
<g id="node5" class="node">
<title>src/components/inputs/FileInput.vue</title>
<g id="a_node5"><a xlink:href="src/components/inputs/FileInput.vue" xlink:title="FileInput.vue">
<path fill="#41f083" stroke="black" d="M220.71,-142.62C220.71,-142.62 165.79,-142.62 165.79,-142.62 162.58,-142.62 159.38,-139.42 159.38,-136.21 159.38,-136.21 159.38,-129.79 159.38,-129.79 159.38,-126.58 162.58,-123.38 165.79,-123.38 165.79,-123.38 220.71,-123.38 220.71,-123.38 223.92,-123.38 227.12,-126.58 227.12,-129.79 227.12,-129.79 227.12,-136.21 227.12,-136.21 227.12,-139.42 223.92,-142.62 220.71,-142.62"/>
<text text-anchor="start" x="167.38" y="-130.07" font-family="Helvetica,sans-Serif" font-size="9.00">FileInput.vue</text>
</a>
</g>
</g>
<!-- src/components/inputs/FileInput.vue&#45;&gt;src/stores/videosStore.ts -->
<g id="edge3" class="edge">
<title>src/components/inputs/FileInput.vue&#45;&gt;src/stores/videosStore.ts</title>
<path fill="none" stroke="#000000" stroke-width="2" stroke-opacity="0.200000" d="M223.59,-143.08C241,-149.07 263.25,-156.71 281.93,-163.13"/>
<polygon fill="#000000" fill-opacity="0.200000" stroke="#000000" stroke-width="2" stroke-opacity="0.200000" points="281,-165.03 287.36,-165 282.37,-161.06 281,-165.03"/>
</g>
<!-- src/components/utils/DiagnosticsPanel.vue -->
<g id="node6" class="node">
<title>src/components/utils/DiagnosticsPanel.vue</title>
<g id="a_node6"><a xlink:href="src/components/utils/DiagnosticsPanel.vue" xlink:title="DiagnosticsPanel.vue">
<path fill="#41f083" stroke="black" d="M239.83,-79.62C239.83,-79.62 146.67,-79.62 146.67,-79.62 143.46,-79.62 140.25,-76.42 140.25,-73.21 140.25,-73.21 140.25,-66.79 140.25,-66.79 140.25,-63.58 143.46,-60.38 146.67,-60.38 146.67,-60.38 239.83,-60.38 239.83,-60.38 243.04,-60.38 246.25,-63.58 246.25,-66.79 246.25,-66.79 246.25,-73.21 246.25,-73.21 246.25,-76.42 243.04,-79.62 239.83,-79.62"/>
<text text-anchor="start" x="148.25" y="-67.08" font-family="Helvetica,sans-Serif" font-size="9.00">DiagnosticsPanel.vue</text>
</a>
</g>
</g>
<!-- src/stores/appStateStore.ts -->
<g id="node7" class="node">
<title>src/stores/appStateStore.ts</title>
<g id="a_node7"><a xlink:href="src/stores/appStateStore.ts" xlink:title="appStateStore.ts">
<path fill="#ddfeff" stroke="black" d="M356.08,-216.62C356.08,-216.62 284.67,-216.62 284.67,-216.62 281.46,-216.62 278.25,-213.42 278.25,-210.21 278.25,-210.21 278.25,-203.79 278.25,-203.79 278.25,-200.58 281.46,-197.38 284.67,-197.38 284.67,-197.38 356.08,-197.38 356.08,-197.38 359.29,-197.38 362.5,-200.58 362.5,-203.79 362.5,-203.79 362.5,-210.21 362.5,-210.21 362.5,-213.42 359.29,-216.62 356.08,-216.62"/>
<text text-anchor="start" x="286.25" y="-204.07" font-family="Helvetica,sans-Serif" font-size="9.00">appStateStore.ts</text>
</a>
</g>
</g>
<!-- src/components/utils/DiagnosticsPanel.vue&#45;&gt;src/stores/appStateStore.ts -->
<g id="edge4" class="edge">
<title>src/components/utils/DiagnosticsPanel.vue&#45;&gt;src/stores/appStateStore.ts</title>
<path fill="none" stroke="#000000" stroke-width="2" stroke-opacity="0.200000" d="M221.88,-80.02C236.37,-86.77 252.98,-97.17 262.25,-112 271.72,-127.15 258.92,-178.19 270.25,-192 270.52,-192.33 270.79,-192.65 271.08,-192.96"/>
<polygon fill="#000000" fill-opacity="0.200000" stroke="#000000" stroke-width="2" stroke-opacity="0.200000" points="269.57,-194.44 275.52,-196.66 272.25,-191.21 269.57,-194.44"/>
</g>
<!-- src/components/utils/DiagnosticsPanel.vue&#45;&gt;src/infrastructure/services/index.ts -->
<g id="edge5" class="edge">
<title>src/components/utils/DiagnosticsPanel.vue&#45;&gt;src/infrastructure/services/index.ts</title>
<path fill="none" stroke="#000000" stroke-width="2" stroke-opacity="0.200000" d="M246.72,-78.12C289.51,-84.74 348.72,-93.9 385.8,-99.63"/>
<polygon fill="#000000" fill-opacity="0.200000" stroke="#000000" stroke-width="2" stroke-opacity="0.200000" points="385.03,-101.64 391.28,-100.48 385.67,-97.49 385.03,-101.64"/>
</g>
<!-- src/stores/appStateStore.ts&#45;&gt;src/application/index.ts -->
<g id="edge6" class="edge">
<title>src/stores/appStateStore.ts&#45;&gt;src/application/index.ts</title>
<path fill="none" stroke="#000000" stroke-width="2" stroke-opacity="0.200000" d="M362.84,-213.69C370.3,-214.9 378.01,-216.14 385.27,-217.31"/>
<polygon fill="#000000" fill-opacity="0.200000" stroke="#000000" stroke-width="2" stroke-opacity="0.200000" points="384.93,-219.39 391.19,-218.27 385.6,-215.24 384.93,-219.39"/>
</g>
<!-- src/views/NavBar.vue -->
<g id="node10" class="node">
<title>src/views/NavBar.vue</title>
<g id="a_node10"><a xlink:href="src/views/NavBar.vue" xlink:title="NavBar.vue">
<path fill="#41f083" stroke="black" d="M90.96,-230.62C90.96,-230.62 41.29,-230.62 41.29,-230.62 38.08,-230.62 34.88,-227.42 34.88,-224.21 34.88,-224.21 34.88,-217.79 34.88,-217.79 34.88,-214.58 38.08,-211.38 41.29,-211.38 41.29,-211.38 90.96,-211.38 90.96,-211.38 94.17,-211.38 97.38,-214.58 97.38,-217.79 97.38,-217.79 97.38,-224.21 97.38,-224.21 97.38,-227.42 94.17,-230.62 90.96,-230.62"/>
<text text-anchor="start" x="42.88" y="-218.07" font-family="Helvetica,sans-Serif" font-size="9.00">NavBar.vue</text>
</a>
</g>
</g>
<!-- src/views/NavBar.vue&#45;&gt;src/stores/videosStore.ts -->
<g id="edge13" class="edge">
<title>src/views/NavBar.vue&#45;&gt;src/stores/videosStore.ts</title>
<path fill="none" stroke="#000000" stroke-width="2" stroke-opacity="0.200000" d="M97.57,-215.87C135.99,-209.35 204.08,-197.67 262.25,-187 266.1,-186.29 270.09,-185.55 274.09,-184.8"/>
<polygon fill="#000000" fill-opacity="0.200000" stroke="#000000" stroke-width="2" stroke-opacity="0.200000" points="274.35,-186.89 279.85,-183.7 273.56,-182.76 274.35,-186.89"/>
</g>
<!-- src/views/NavBar.vue&#45;&gt;src/components/inputs/FileInput.vue -->
<g id="edge11" class="edge">
<title>src/views/NavBar.vue&#45;&gt;src/components/inputs/FileInput.vue</title>
<path fill="none" stroke="#000000" stroke-width="2" stroke-opacity="0.200000" d="M97.68,-214.1C104.05,-212 110.56,-209.34 116.25,-206 141.43,-191.22 164.74,-166.51 178.74,-149.98"/>
<polygon fill="#000000" fill-opacity="0.200000" stroke="#000000" stroke-width="2" stroke-opacity="0.200000" points="180.35,-151.33 182.56,-145.36 177.11,-148.65 180.35,-151.33"/>
</g>
<!-- src/views/NavBar.vue&#45;&gt;src/stores/appStateStore.ts -->
<g id="edge12" class="edge">
<title>src/views/NavBar.vue&#45;&gt;src/stores/appStateStore.ts</title>
<path fill="none" stroke="#000000" stroke-width="2" stroke-opacity="0.200000" d="M95.24,-231.12C104.37,-233.93 114.63,-236.6 124.25,-238 184.94,-246.84 202.8,-253.09 262.25,-238 274.97,-234.77 287.93,-228.07 298.28,-221.73"/>
<polygon fill="#000000" fill-opacity="0.200000" stroke="#000000" stroke-width="2" stroke-opacity="0.200000" points="299.18,-223.65 303.09,-218.64 296.91,-220.11 299.18,-223.65"/>
</g>
<!-- src/views/VideoGallery.vue -->
<g id="node11" class="node">
<title>src/views/VideoGallery.vue</title>
<g id="a_node11"><a xlink:href="src/views/VideoGallery.vue" xlink:title="VideoGallery.vue">
<path fill="#41f083" stroke="black" d="M101.83,-199.62C101.83,-199.62 30.42,-199.62 30.42,-199.62 27.21,-199.62 24,-196.42 24,-193.21 24,-193.21 24,-186.79 24,-186.79 24,-183.58 27.21,-180.38 30.42,-180.38 30.42,-180.38 101.83,-180.38 101.83,-180.38 105.04,-180.38 108.25,-183.58 108.25,-186.79 108.25,-186.79 108.25,-193.21 108.25,-193.21 108.25,-196.42 105.04,-199.62 101.83,-199.62"/>
<text text-anchor="start" x="32" y="-187.07" font-family="Helvetica,sans-Serif" font-size="9.00">VideoGallery.vue</text>
</a>
</g>
</g>
<!-- src/views/VideoGallery.vue&#45;&gt;src/components/VideoCard.vue -->
<g id="edge14" class="edge">
<title>src/views/VideoGallery.vue&#45;&gt;src/components/VideoCard.vue</title>
<path fill="none" stroke="#000000" stroke-width="2" stroke-opacity="0.200000" d="M68.05,-179.98C71.03,-154.02 82.69,-84.11 124.25,-49 130.56,-43.67 138.34,-40.12 146.36,-37.77"/>
<polygon fill="#000000" fill-opacity="0.200000" stroke="#000000" stroke-width="2" stroke-opacity="0.200000" points="146.81,-39.82 152.15,-36.38 145.83,-35.74 146.81,-39.82"/>
</g>
<!-- src/views/VideoGallery.vue&#45;&gt;src/stores/videosStore.ts -->
<g id="edge16" class="edge">
<title>src/views/VideoGallery.vue&#45;&gt;src/stores/videosStore.ts</title>
<path fill="none" stroke="#000000" stroke-width="2" stroke-opacity="0.200000" d="M108.5,-187.7C154.06,-185.18 227.09,-181.12 274.14,-178.51"/>
<polygon fill="#000000" fill-opacity="0.200000" stroke="#000000" stroke-width="2" stroke-opacity="0.200000" points="274,-180.62 279.88,-178.19 273.77,-176.43 274,-180.62"/>
</g>
<!-- src/views/VideoGallery.vue&#45;&gt;src/stores/appStateStore.ts -->
<g id="edge15" class="edge">
<title>src/views/VideoGallery.vue&#45;&gt;src/stores/appStateStore.ts</title>
<path fill="none" stroke="#000000" stroke-width="2" stroke-opacity="0.200000" d="M108.5,-192.79C152.48,-195.75 222.07,-200.44 269.17,-203.62"/>
<polygon fill="#000000" fill-opacity="0.200000" stroke="#000000" stroke-width="2" stroke-opacity="0.200000" points="268.83,-205.7 274.96,-204.01 269.12,-201.51 268.83,-205.7"/>
</g>
</g>
</svg>
