<?xml version="1.0" encoding="UTF-8" standalone="no"?>
<!DOCTYPE svg PUBLIC "-//W3C//DTD SVG 1.1//EN"
 "http://www.w3.org/Graphics/SVG/1.1/DTD/svg11.dtd">
<!-- Generated by graphviz version 9.0.0 (20230911.1827)
 -->
<!-- Title: dependency&#45;cruiser output Pages: 1 -->
<svg width="483pt" height="292pt"
 viewBox="0.00 0.00 482.50 292.00" xmlns="http://www.w3.org/2000/svg" xmlns:xlink="http://www.w3.org/1999/xlink">
<g id="graph0" class="graph" transform="scale(1 1) rotate(0) translate(4 288)">
<title>dependency&#45;cruiser output</title>
<polygon fill="white" stroke="none" points="-4,4 -4,-288 478.5,-288 478.5,4 -4,4"/>
<g id="clust1" class="cluster">
<title>cluster_src</title>
<path fill="#ffffff" stroke="black" stroke-width="2" d="M20,-8C20,-8 457.5,-8 457.5,-8 463.5,-8 469.5,-14 469.5,-20 469.5,-20 469.5,-264 469.5,-264 469.5,-270 463.5,-276 457.5,-276 457.5,-276 20,-276 20,-276 14,-276 8,-270 8,-264 8,-264 8,-20 8,-20 8,-14 14,-8 20,-8"/>
<text text-anchor="middle" x="238.75" y="-263.45" font-family="Helvetica,sans-Serif" font-weight="bold" font-size="9.00">src</text>
</g>
<g id="clust2" class="cluster">
<title>cluster_src/application</title>
<path fill="#ffffff" stroke="black" stroke-width="2" d="M400.5,-103C400.5,-103 446.5,-103 446.5,-103 452.5,-103 458.5,-109 458.5,-115 458.5,-115 458.5,-146 458.5,-146 458.5,-152 452.5,-158 446.5,-158 446.5,-158 400.5,-158 400.5,-158 394.5,-158 388.5,-152 388.5,-146 388.5,-146 388.5,-115 388.5,-115 388.5,-109 394.5,-103 400.5,-103"/>
<text text-anchor="middle" x="423.5" y="-145.45" font-family="Helvetica,sans-Serif" font-weight="bold" font-size="9.00">application</text>
</g>
<g id="clust3" class="cluster">
<title>cluster_src/components</title>
<path fill="#ffffff" stroke="black" stroke-width="2" d="M136.25,-16C136.25,-16 250.25,-16 250.25,-16 256.25,-16 262.25,-22 262.25,-28 262.25,-28 262.25,-185 262.25,-185 262.25,-191 256.25,-197 250.25,-197 250.25,-197 136.25,-197 136.25,-197 130.25,-197 124.25,-191 124.25,-185 124.25,-185 124.25,-28 124.25,-28 124.25,-22 130.25,-16 136.25,-16"/>
<text text-anchor="middle" x="193.25" y="-184.45" font-family="Helvetica,sans-Serif" font-weight="bold" font-size="9.00">components</text>
</g>
<g id="clust4" class="cluster">
<title>cluster_src/components/inputs</title>
<path fill="#ffffff" stroke="black" stroke-width="2" d="M163.38,-115C163.38,-115 223.12,-115 223.12,-115 229.12,-115 235.12,-121 235.12,-127 235.12,-127 235.12,-158 235.12,-158 235.12,-164 229.12,-170 223.12,-170 223.12,-170 163.38,-170 163.38,-170 157.38,-170 151.38,-164 151.38,-158 151.38,-158 151.38,-127 151.38,-127 151.38,-121 157.38,-115 163.38,-115"/>
<text text-anchor="middle" x="193.25" y="-157.45" font-family="Helvetica,sans-Serif" font-weight="bold" font-size="9.00">inputs</text>
</g>
<g id="clust5" class="cluster">
<title>cluster_src/components/utils</title>
<path fill="#ffffff" stroke="black" stroke-width="2" d="M144.25,-52C144.25,-52 242.25,-52 242.25,-52 248.25,-52 254.25,-58 254.25,-64 254.25,-64 254.25,-95 254.25,-95 254.25,-101 248.25,-107 242.25,-107 242.25,-107 144.25,-107 144.25,-107 138.25,-107 132.25,-101 132.25,-95 132.25,-95 132.25,-64 132.25,-64 132.25,-58 138.25,-52 144.25,-52"/>
<text text-anchor="middle" x="193.25" y="-94.45" font-family="Helvetica,sans-Serif" font-weight="bold" font-size="9.00">utils</text>
</g>
<g id="clust6" class="cluster">
<title>cluster_src/domain</title>
<path fill="#ffffff" stroke="black" stroke-width="2" d="M400.5,-33C400.5,-33 446.5,-33 446.5,-33 452.5,-33 458.5,-39 458.5,-45 458.5,-45 458.5,-76 458.5,-76 458.5,-82 452.5,-88 446.5,-88 446.5,-88 400.5,-88 400.5,-88 394.5,-88 388.5,-82 388.5,-76 388.5,-76 388.5,-45 388.5,-45 388.5,-39 394.5,-33 400.5,-33"/>
<text text-anchor="middle" x="423.5" y="-75.45" font-family="Helvetica,sans-Serif" font-weight="bold" font-size="9.00">domain</text>
</g>
<g id="clust8" class="cluster">
<title>cluster_src/stores</title>
<path fill="#ffffff" stroke="black" stroke-width="2" d="M282.25,-115C282.25,-115 358.5,-115 358.5,-115 364.5,-115 370.5,-121 370.5,-127 370.5,-127 370.5,-189 370.5,-189 370.5,-195 364.5,-201 358.5,-201 358.5,-201 282.25,-201 282.25,-201 276.25,-201 270.25,-195 270.25,-189 270.25,-189 270.25,-127 270.25,-127 270.25,-121 276.25,-115 282.25,-115"/>
<text text-anchor="middle" x="320.38" y="-188.45" font-family="Helvetica,sans-Serif" font-weight="bold" font-size="9.00">stores</text>
</g>
<g id="clust9" class="cluster">
<title>cluster_src/views</title>
<path fill="#ffffff" stroke="black" stroke-width="2" d="M28,-163C28,-163 104.25,-163 104.25,-163 110.25,-163 116.25,-169 116.25,-175 116.25,-175 116.25,-237 116.25,-237 116.25,-243 110.25,-249 104.25,-249 104.25,-249 28,-249 28,-249 22,-249 16,-243 16,-237 16,-237 16,-175 16,-175 16,-169 22,-163 28,-163"/>
<text text-anchor="middle" x="66.12" y="-236.45" font-family="Helvetica,sans-Serif" font-weight="bold" font-size="9.00">views</text>
</g>
<g id="clust7" class="cluster">
<title>cluster_src/infrastructure</title>
<path fill="#ffffff" stroke="black" stroke-width="2" d="M398.5,-166C398.5,-166 449.5,-166 449.5,-166 455.5,-166 461.5,-172 461.5,-178 461.5,-178 461.5,-209 461.5,-209 461.5,-215 455.5,-221 449.5,-221 449.5,-221 398.5,-221 398.5,-221 392.5,-221 386.5,-215 386.5,-209 386.5,-209 386.5,-178 386.5,-178 386.5,-172 392.5,-166 398.5,-166"/>
<text text-anchor="middle" x="424" y="-208.45" font-family="Helvetica,sans-Serif" font-weight="bold" font-size="9.00">infrastructure</text>
</g>
<!-- src/application/index.ts -->
<g id="node1" class="node">
<title>src/application/index.ts</title>
<g id="a_node1"><a xlink:href="src/application/index.ts" xlink:title="index.ts">
<path fill="#ddfeff" stroke="black" d="M444.08,-130.62C444.08,-130.62 402.92,-130.62 402.92,-130.62 399.71,-130.62 396.5,-127.42 396.5,-124.21 396.5,-124.21 396.5,-117.79 396.5,-117.79 396.5,-114.58 399.71,-111.38 402.92,-111.38 402.92,-111.38 444.08,-111.38 444.08,-111.38 447.29,-111.38 450.5,-114.58 450.5,-117.79 450.5,-117.79 450.5,-124.21 450.5,-124.21 450.5,-127.42 447.29,-130.62 444.08,-130.62"/>
<text text-anchor="start" x="407.75" y="-118.08" font-family="Helvetica,sans-Serif" font-size="9.00">index.ts</text>
</a>
</g>
</g>
<!-- src/components/VideoCard.vue -->
<g id="node2" class="node">
<title>src/components/VideoCard.vue</title>
<g id="a_node2"><a xlink:href="src/components/VideoCard.vue" xlink:title="VideoCard.vue">
<path fill="#41f083" stroke="black" d="M224.83,-43.62C224.83,-43.62 161.67,-43.62 161.67,-43.62 158.46,-43.62 155.25,-40.42 155.25,-37.21 155.25,-37.21 155.25,-30.79 155.25,-30.79 155.25,-27.58 158.46,-24.38 161.67,-24.38 161.67,-24.38 224.83,-24.38 224.83,-24.38 228.04,-24.38 231.25,-27.58 231.25,-30.79 231.25,-30.79 231.25,-37.21 231.25,-37.21 231.25,-40.42 228.04,-43.62 224.83,-43.62"/>
<text text-anchor="start" x="163.25" y="-31.07" font-family="Helvetica,sans-Serif" font-size="9.00">VideoCard.vue</text>
</a>
</g>
</g>
<!-- src/domain/index.ts -->
<g id="node3" class="node">
<title>src/domain/index.ts</title>
<g id="a_node3"><a xlink:href="src/domain/index.ts" xlink:title="index.ts">
<path fill="#ddfeff" stroke="black" d="M444.08,-60.62C444.08,-60.62 402.92,-60.62 402.92,-60.62 399.71,-60.62 396.5,-57.42 396.5,-54.21 396.5,-54.21 396.5,-47.79 396.5,-47.79 396.5,-44.58 399.71,-41.38 402.92,-41.38 402.92,-41.38 444.08,-41.38 444.08,-41.38 447.29,-41.38 450.5,-44.58 450.5,-47.79 450.5,-47.79 450.5,-54.21 450.5,-54.21 450.5,-57.42 447.29,-60.62 444.08,-60.62"/>
<text text-anchor="start" x="407.75" y="-48.08" font-family="Helvetica,sans-Serif" font-size="9.00">index.ts</text>
</a>
</g>
</g>
<!-- src/components/VideoCard.vue&#45;&gt;src/domain/index.ts -->
<g id="edge1" class="edge">
<title>src/components/VideoCard.vue&#45;&gt;src/domain/index.ts</title>
<path fill="none" stroke="#000000" stroke-opacity="0.200000" d="M231.69,-36.79C275.26,-40.03 346.6,-45.35 388.6,-48.48"/>
<polygon fill="none" stroke="#000000" stroke-opacity="0.200000" points="388.44,-50.57 394.58,-48.92 388.76,-46.38 388.44,-50.57"/>
</g>
<!-- src/stores/videosStore.ts -->
<g id="node4" class="node">
<title>src/stores/videosStore.ts</title>
<g id="a_node4"><a xlink:href="src/stores/videosStore.ts" xlink:title="videosStore.ts">
<path fill="#ddfeff" stroke="black" d="M351.21,-142.62C351.21,-142.62 289.54,-142.62 289.54,-142.62 286.33,-142.62 283.12,-139.42 283.12,-136.21 283.12,-136.21 283.12,-129.79 283.12,-129.79 283.12,-126.58 286.33,-123.38 289.54,-123.38 289.54,-123.38 351.21,-123.38 351.21,-123.38 354.42,-123.38 357.62,-126.58 357.62,-129.79 357.62,-129.79 357.62,-136.21 357.62,-136.21 357.62,-139.42 354.42,-142.62 351.21,-142.62"/>
<text text-anchor="start" x="291.12" y="-130.07" font-family="Helvetica,sans-Serif" font-size="9.00">videosStore.ts</text>
</a>
</g>
</g>
<!-- src/components/VideoCard.vue&#45;&gt;src/stores/videosStore.ts -->
<g id="edge2" class="edge">
<title>src/components/VideoCard.vue&#45;&gt;src/stores/videosStore.ts</title>
<path fill="none" stroke="#000000" stroke-width="2" stroke-opacity="0.200000" d="M231.58,-37.04C242.16,-39.23 253.24,-42.9 262.25,-49 286.31,-65.3 303.06,-95.41 311.95,-114.81"/>
<polygon fill="#000000" fill-opacity="0.200000" stroke="#000000" stroke-width="2" stroke-opacity="0.200000" points="309.93,-115.45 314.26,-120.1 313.78,-113.76 309.93,-115.45"/>
</g>
<!-- src/stores/videosStore.ts&#45;&gt;src/application/index.ts -->
<g id="edge7" class="edge">
<title>src/stores/videosStore.ts&#45;&gt;src/application/index.ts</title>
<path fill="none" stroke="#000000" stroke-width="2" stroke-opacity="0.200000" d="M357.88,-128.67C367.49,-127.53 377.83,-126.3 387.36,-125.17"/>
<polygon fill="#000000" fill-opacity="0.200000" stroke="#000000" stroke-width="2" stroke-opacity="0.200000" points="387.48,-127.27 393.19,-124.48 386.98,-123.1 387.48,-127.27"/>
</g>
<!-- src/stores/videosStore.ts&#45;&gt;src/domain/index.ts -->
<g id="edge8" class="edge">
<title>src/stores/videosStore.ts&#45;&gt;src/domain/index.ts</title>
<path fill="none" stroke="#000000" stroke-opacity="0.200000" d="M333.77,-122.95C351.54,-108.54 384.32,-81.96 404.68,-65.45"/>
<polygon fill="none" stroke="#000000" stroke-opacity="0.200000" points="405.8,-67.24 409.14,-61.83 403.16,-63.98 405.8,-67.24"/>
</g>
<!-- src/infrastructure/index.ts -->
<g id="node8" class="node">
<title>src/infrastructure/index.ts</title>
<g id="a_node8"><a xlink:href="src/infrastructure/index.ts" xlink:title="index.ts">
<path fill="#ddfeff" stroke="black" d="M444.08,-193.62C444.08,-193.62 402.92,-193.62 402.92,-193.62 399.71,-193.62 396.5,-190.42 396.5,-187.21 396.5,-187.21 396.5,-180.79 396.5,-180.79 396.5,-177.58 399.71,-174.38 402.92,-174.38 402.92,-174.38 444.08,-174.38 444.08,-174.38 447.29,-174.38 450.5,-177.58 450.5,-180.79 450.5,-180.79 450.5,-187.21 450.5,-187.21 450.5,-190.42 447.29,-193.62 444.08,-193.62"/>
<text text-anchor="start" x="407.75" y="-181.07" font-family="Helvetica,sans-Serif" font-size="9.00">index.ts</text>
</a>
</g>
</g>
<!-- src/stores/videosStore.ts&#45;&gt;src/infrastructure/index.ts -->
<g id="edge9" class="edge">
<title>src/stores/videosStore.ts&#45;&gt;src/infrastructure/index.ts</title>
<path fill="none" stroke="#000000" stroke-width="2" stroke-opacity="0.200000" d="M357.97,-142.44C362.29,-144.05 366.56,-145.9 370.5,-148 378.59,-152.31 379.07,-155.64 386.5,-161 390.41,-163.82 394.65,-166.69 398.81,-169.41"/>
<polygon fill="#000000" fill-opacity="0.200000" stroke="#000000" stroke-width="2" stroke-opacity="0.200000" points="397.37,-170.98 403.56,-172.45 399.64,-167.45 397.37,-170.98"/>
</g>
<!-- src/components/inputs/FileInput.vue -->
<g id="node5" class="node">
<title>src/components/inputs/FileInput.vue</title>
<g id="a_node5"><a xlink:href="src/components/inputs/FileInput.vue" xlink:title="FileInput.vue">
<path fill="#41f083" stroke="black" d="M220.71,-142.62C220.71,-142.62 165.79,-142.62 165.79,-142.62 162.58,-142.62 159.38,-139.42 159.38,-136.21 159.38,-136.21 159.38,-129.79 159.38,-129.79 159.38,-126.58 162.58,-123.38 165.79,-123.38 165.79,-123.38 220.71,-123.38 220.71,-123.38 223.92,-123.38 227.12,-126.58 227.12,-129.79 227.12,-129.79 227.12,-136.21 227.12,-136.21 227.12,-139.42 223.92,-142.62 220.71,-142.62"/>
<text text-anchor="start" x="167.38" y="-130.07" font-family="Helvetica,sans-Serif" font-size="9.00">FileInput.vue</text>
</a>
</g>
</g>
<!-- src/components/inputs/FileInput.vue&#45;&gt;src/stores/videosStore.ts -->
<g id="edge3" class="edge">
<title>src/components/inputs/FileInput.vue&#45;&gt;src/stores/videosStore.ts</title>
<path fill="none" stroke="#000000" stroke-width="2" stroke-opacity="0.200000" d="M227.45,-133C241.74,-133 258.66,-133 274.07,-133"/>
<polygon fill="#000000" fill-opacity="0.200000" stroke="#000000" stroke-width="2" stroke-opacity="0.200000" points="273.91,-135.1 279.91,-133 273.91,-130.9 273.91,-135.1"/>
</g>
<!-- src/components/utils/DiagnosticsPanel.vue -->
<g id="node6" class="node">
<title>src/components/utils/DiagnosticsPanel.vue</title>
<g id="a_node6"><a xlink:href="src/components/utils/DiagnosticsPanel.vue" xlink:title="DiagnosticsPanel.vue">
<path fill="#41f083" stroke="black" d="M239.83,-79.62C239.83,-79.62 146.67,-79.62 146.67,-79.62 143.46,-79.62 140.25,-76.42 140.25,-73.21 140.25,-73.21 140.25,-66.79 140.25,-66.79 140.25,-63.58 143.46,-60.38 146.67,-60.38 146.67,-60.38 239.83,-60.38 239.83,-60.38 243.04,-60.38 246.25,-63.58 246.25,-66.79 246.25,-66.79 246.25,-73.21 246.25,-73.21 246.25,-76.42 243.04,-79.62 239.83,-79.62"/>
<text text-anchor="start" x="148.25" y="-67.08" font-family="Helvetica,sans-Serif" font-size="9.00">DiagnosticsPanel.vue</text>
</a>
</g>
</g>
<!-- src/components/utils/DiagnosticsPanel.vue&#45;&gt;src/application/index.ts -->
<g id="edge4" class="edge">
<title>src/components/utils/DiagnosticsPanel.vue&#45;&gt;src/application/index.ts</title>
<path fill="none" stroke="#000000" stroke-width="2" stroke-opacity="0.200000" d="M239.34,-80.08C282.83,-89.79 347.73,-104.29 387.46,-113.17"/>
<polygon fill="#000000" fill-opacity="0.200000" stroke="#000000" stroke-width="2" stroke-opacity="0.200000" points="386.76,-115.17 393.07,-114.42 387.67,-111.07 386.76,-115.17"/>
</g>
<!-- src/stores/appStateStore.ts -->
<g id="node7" class="node">
<title>src/stores/appStateStore.ts</title>
<g id="a_node7"><a xlink:href="src/stores/appStateStore.ts" xlink:title="appStateStore.ts">
<path fill="#ddfeff" stroke="black" d="M356.08,-173.62C356.08,-173.62 284.67,-173.62 284.67,-173.62 281.46,-173.62 278.25,-170.42 278.25,-167.21 278.25,-167.21 278.25,-160.79 278.25,-160.79 278.25,-157.58 281.46,-154.38 284.67,-154.38 284.67,-154.38 356.08,-154.38 356.08,-154.38 359.29,-154.38 362.5,-157.58 362.5,-160.79 362.5,-160.79 362.5,-167.21 362.5,-167.21 362.5,-170.42 359.29,-173.62 356.08,-173.62"/>
<text text-anchor="start" x="286.25" y="-161.07" font-family="Helvetica,sans-Serif" font-size="9.00">appStateStore.ts</text>
</a>
</g>
</g>
<!-- src/components/utils/DiagnosticsPanel.vue&#45;&gt;src/stores/appStateStore.ts -->
<g id="edge5" class="edge">
<title>src/components/utils/DiagnosticsPanel.vue&#45;&gt;src/stores/appStateStore.ts</title>
<path fill="none" stroke="#000000" stroke-width="2" stroke-opacity="0.200000" d="M220.56,-80.12C235,-87 252,-97.5 262.25,-112 271.96,-125.74 258.86,-136.62 270.25,-149 270.54,-149.31 270.83,-149.62 271.13,-149.92"/>
<polygon fill="#000000" fill-opacity="0.200000" stroke="#000000" stroke-width="2" stroke-opacity="0.200000" points="269.73,-151.49 275.77,-153.48 272.28,-148.16 269.73,-151.49"/>
</g>
<!-- src/stores/appStateStore.ts&#45;&gt;src/application/index.ts -->
<g id="edge6" class="edge">
<title>src/stores/appStateStore.ts&#45;&gt;src/application/index.ts</title>
<path fill="none" stroke="#000000" stroke-width="2" stroke-opacity="0.200000" d="M357.35,-153.92C361.83,-152.4 366.3,-150.75 370.5,-149 379.82,-145.11 389.67,-140.07 398.26,-135.34"/>
<polygon fill="#000000" fill-opacity="0.200000" stroke="#000000" stroke-width="2" stroke-opacity="0.200000" points="399.22,-137.21 403.41,-132.43 397.16,-133.55 399.22,-137.21"/>
</g>
<!-- src/views/NavBar.vue -->
<g id="node9" class="node">
<title>src/views/NavBar.vue</title>
<g id="a_node9"><a xlink:href="src/views/NavBar.vue" xlink:title="NavBar.vue">
<path fill="#41f083" stroke="black" d="M90.96,-221.62C90.96,-221.62 41.29,-221.62 41.29,-221.62 38.08,-221.62 34.88,-218.42 34.88,-215.21 34.88,-215.21 34.88,-208.79 34.88,-208.79 34.88,-205.58 38.08,-202.38 41.29,-202.38 41.29,-202.38 90.96,-202.38 90.96,-202.38 94.17,-202.38 97.38,-205.58 97.38,-208.79 97.38,-208.79 97.38,-215.21 97.38,-215.21 97.38,-218.42 94.17,-221.62 90.96,-221.62"/>
<text text-anchor="start" x="42.88" y="-209.07" font-family="Helvetica,sans-Serif" font-size="9.00">NavBar.vue</text>
</a>
</g>
</g>
<!-- src/views/NavBar.vue&#45;&gt;src/stores/videosStore.ts -->
<g id="edge12" class="edge">
<title>src/views/NavBar.vue&#45;&gt;src/stores/videosStore.ts</title>
<path fill="none" stroke="#000000" stroke-width="2" stroke-opacity="0.200000" d="M97.67,-218.34C140.35,-225.25 217.6,-230.4 262.25,-189 275.86,-176.38 257.82,-161.79 270.25,-148 271.76,-146.32 273.46,-144.82 275.29,-143.49"/>
<polygon fill="#000000" fill-opacity="0.200000" stroke="#000000" stroke-width="2" stroke-opacity="0.200000" points="276.1,-145.45 280.26,-140.65 274.01,-141.81 276.1,-145.45"/>
</g>
<!-- src/views/NavBar.vue&#45;&gt;src/components/inputs/FileInput.vue -->
<g id="edge10" class="edge">
<title>src/views/NavBar.vue&#45;&gt;src/components/inputs/FileInput.vue</title>
<path fill="none" stroke="#000000" stroke-width="2" stroke-opacity="0.200000" d="M97.78,-204.73C104.08,-202.67 110.53,-200.11 116.25,-197 139.64,-184.28 162.46,-163.63 176.88,-149.24"/>
<polygon fill="#000000" fill-opacity="0.200000" stroke="#000000" stroke-width="2" stroke-opacity="0.200000" points="178.07,-151.03 180.77,-145.28 175.07,-148.09 178.07,-151.03"/>
</g>
<!-- src/views/NavBar.vue&#45;&gt;src/stores/appStateStore.ts -->
<g id="edge11" class="edge">
<title>src/views/NavBar.vue&#45;&gt;src/stores/appStateStore.ts</title>
<path fill="none" stroke="#000000" stroke-width="2" stroke-opacity="0.200000" d="M97.63,-221.75C137.28,-232.67 207.89,-246.03 262.25,-223 282.19,-214.55 298.57,-195.36 308.61,-181.15"/>
<polygon fill="#000000" fill-opacity="0.200000" stroke="#000000" stroke-width="2" stroke-opacity="0.200000" points="310.21,-182.53 311.82,-176.38 306.73,-180.18 310.21,-182.53"/>
</g>
<!-- src/views/VideoGallery.vue -->
<g id="node10" class="node">
<title>src/views/VideoGallery.vue</title>
<g id="a_node10"><a xlink:href="src/views/VideoGallery.vue" xlink:title="VideoGallery.vue">
<path fill="#41f083" stroke="black" d="M101.83,-190.62C101.83,-190.62 30.42,-190.62 30.42,-190.62 27.21,-190.62 24,-187.42 24,-184.21 24,-184.21 24,-177.79 24,-177.79 24,-174.58 27.21,-171.38 30.42,-171.38 30.42,-171.38 101.83,-171.38 101.83,-171.38 105.04,-171.38 108.25,-174.58 108.25,-177.79 108.25,-177.79 108.25,-184.21 108.25,-184.21 108.25,-187.42 105.04,-190.62 101.83,-190.62"/>
<text text-anchor="start" x="32" y="-178.07" font-family="Helvetica,sans-Serif" font-size="9.00">VideoGallery.vue</text>
</a>
</g>
</g>
<!-- src/views/VideoGallery.vue&#45;&gt;src/components/VideoCard.vue -->
<g id="edge13" class="edge">
<title>src/views/VideoGallery.vue&#45;&gt;src/components/VideoCard.vue</title>
<path fill="none" stroke="#000000" stroke-width="2" stroke-opacity="0.200000" d="M68.37,-170.89C72.01,-145.99 84.95,-81.41 124.25,-49 130.55,-43.8 138.26,-40.3 146.2,-37.97"/>
<polygon fill="#000000" fill-opacity="0.200000" stroke="#000000" stroke-width="2" stroke-opacity="0.200000" points="146.57,-40.04 151.91,-36.58 145.58,-35.96 146.57,-40.04"/>
</g>
<!-- src/views/VideoGallery.vue&#45;&gt;src/stores/videosStore.ts -->
<g id="edge15" class="edge">
<title>src/views/VideoGallery.vue&#45;&gt;src/stores/videosStore.ts</title>
<path fill="none" stroke="#000000" stroke-width="2" stroke-opacity="0.200000" d="M104.38,-191.05C147.07,-200.18 216.94,-207.52 262.25,-173 271.53,-165.93 261.95,-156.19 270.25,-148 271.69,-146.58 273.27,-145.28 274.94,-144.12"/>
<polygon fill="#000000" fill-opacity="0.200000" stroke="#000000" stroke-width="2" stroke-opacity="0.200000" points="275.92,-145.97 280.14,-141.21 273.88,-142.31 275.92,-145.97"/>
</g>
<!-- src/views/VideoGallery.vue&#45;&gt;src/stores/appStateStore.ts -->
<g id="edge14" class="edge">
<title>src/views/VideoGallery.vue&#45;&gt;src/stores/appStateStore.ts</title>
<path fill="none" stroke="#000000" stroke-width="2" stroke-opacity="0.200000" d="M108.54,-191.01C111.27,-192.45 113.88,-194.11 116.25,-196 121.85,-200.47 118.05,-206.4 124.25,-210 177.3,-240.78 204.41,-230.39 262.25,-210 278.96,-204.11 294.38,-191.04 304.97,-180.33"/>
<polygon fill="#000000" fill-opacity="0.200000" stroke="#000000" stroke-width="2" stroke-opacity="0.200000" points="306.24,-182.05 308.84,-176.25 303.19,-179.16 306.24,-182.05"/>
</g>
</g>
</svg>
