<?xml version="1.0" encoding="UTF-8" standalone="no"?>
<!DOCTYPE svg PUBLIC "-//W3C//DTD SVG 1.1//EN"
 "http://www.w3.org/Graphics/SVG/1.1/DTD/svg11.dtd">
<!-- Generated by graphviz version 9.0.0 (20230911.1827)
 -->
<!-- Title: dependency&#45;cruiser output Pages: 1 -->
<svg width="505pt" height="250pt"
 viewBox="0.00 0.00 504.50 250.00" xmlns="http://www.w3.org/2000/svg" xmlns:xlink="http://www.w3.org/1999/xlink">
<g id="graph0" class="graph" transform="scale(1 1) rotate(0) translate(4 246)">
<title>dependency&#45;cruiser output</title>
<polygon fill="white" stroke="none" points="-4,4 -4,-246 500.5,-246 500.5,4 -4,4"/>
<g id="clust1" class="cluster">
<title>cluster_src</title>
<path fill="#ffffff" stroke="black" stroke-width="2" d="M20,-8C20,-8 476.5,-8 476.5,-8 482.5,-8 488.5,-14 488.5,-20 488.5,-20 488.5,-222 488.5,-222 488.5,-228 482.5,-234 476.5,-234 476.5,-234 20,-234 20,-234 14,-234 8,-228 8,-222 8,-222 8,-20 8,-20 8,-14 14,-8 20,-8"/>
<text text-anchor="middle" x="248.25" y="-221.45" font-family="Helvetica,sans-Serif" font-weight="bold" font-size="9.00">src</text>
</g>
<g id="clust2" class="cluster">
<title>cluster_src/application</title>
<path fill="#ffffff" stroke="black" stroke-width="2" d="M390.5,-82C390.5,-82 468.5,-82 468.5,-82 474.5,-82 480.5,-88 480.5,-94 480.5,-94 480.5,-195 480.5,-195 480.5,-201 474.5,-207 468.5,-207 468.5,-207 390.5,-207 390.5,-207 384.5,-207 378.5,-201 378.5,-195 378.5,-195 378.5,-94 378.5,-94 378.5,-88 384.5,-82 390.5,-82"/>
<text text-anchor="middle" x="429.5" y="-194.45" font-family="Helvetica,sans-Serif" font-weight="bold" font-size="9.00">application</text>
</g>
<g id="clust3" class="cluster">
<title>cluster_src/application/services</title>
<path fill="#ffffff" stroke="black" stroke-width="2" d="M398.5,-90C398.5,-90 460.5,-90 460.5,-90 466.5,-90 472.5,-96 472.5,-102 472.5,-102 472.5,-168 472.5,-168 472.5,-174 466.5,-180 460.5,-180 460.5,-180 398.5,-180 398.5,-180 392.5,-180 386.5,-174 386.5,-168 386.5,-168 386.5,-102 386.5,-102 386.5,-96 392.5,-90 398.5,-90"/>
<text text-anchor="middle" x="429.5" y="-167.45" font-family="Helvetica,sans-Serif" font-weight="bold" font-size="9.00">services</text>
</g>
<g id="clust4" class="cluster">
<title>cluster_src/application/services/filters</title>
<path fill="#ffffff" stroke="black" stroke-width="2" d="M406.5,-98C406.5,-98 452.5,-98 452.5,-98 458.5,-98 464.5,-104 464.5,-110 464.5,-110 464.5,-141 464.5,-141 464.5,-147 458.5,-153 452.5,-153 452.5,-153 406.5,-153 406.5,-153 400.5,-153 394.5,-147 394.5,-141 394.5,-141 394.5,-110 394.5,-110 394.5,-104 400.5,-98 406.5,-98"/>
<text text-anchor="middle" x="429.5" y="-140.45" font-family="Helvetica,sans-Serif" font-weight="bold" font-size="9.00">filters</text>
</g>
<g id="clust5" class="cluster">
<title>cluster_src/components</title>
<path fill="#ffffff" stroke="black" stroke-width="2" d="M136.25,-16C136.25,-16 250.25,-16 250.25,-16 256.25,-16 262.25,-22 262.25,-28 262.25,-28 262.25,-157 262.25,-157 262.25,-163 256.25,-169 250.25,-169 250.25,-169 136.25,-169 136.25,-169 130.25,-169 124.25,-163 124.25,-157 124.25,-157 124.25,-28 124.25,-28 124.25,-22 130.25,-16 136.25,-16"/>
<text text-anchor="middle" x="193.25" y="-156.45" font-family="Helvetica,sans-Serif" font-weight="bold" font-size="9.00">components</text>
</g>
<g id="clust6" class="cluster">
<title>cluster_src/components/inputs</title>
<path fill="#ffffff" stroke="black" stroke-width="2" d="M151,-87C151,-87 235.5,-87 235.5,-87 241.5,-87 247.5,-93 247.5,-99 247.5,-99 247.5,-130 247.5,-130 247.5,-136 241.5,-142 235.5,-142 235.5,-142 151,-142 151,-142 145,-142 139,-136 139,-130 139,-130 139,-99 139,-99 139,-93 145,-87 151,-87"/>
<text text-anchor="middle" x="193.25" y="-129.45" font-family="Helvetica,sans-Serif" font-weight="bold" font-size="9.00">inputs</text>
</g>
<g id="clust7" class="cluster">
<title>cluster_src/components/utils</title>
<path fill="#ffffff" stroke="black" stroke-width="2" d="M144.25,-24C144.25,-24 242.25,-24 242.25,-24 248.25,-24 254.25,-30 254.25,-36 254.25,-36 254.25,-67 254.25,-67 254.25,-73 248.25,-79 242.25,-79 242.25,-79 144.25,-79 144.25,-79 138.25,-79 132.25,-73 132.25,-67 132.25,-67 132.25,-36 132.25,-36 132.25,-30 138.25,-24 144.25,-24"/>
<text text-anchor="middle" x="193.25" y="-66.45" font-family="Helvetica,sans-Serif" font-weight="bold" font-size="9.00">utils</text>
</g>
<g id="clust9" class="cluster">
<title>cluster_src/views</title>
<path fill="#ffffff" stroke="black" stroke-width="2" d="M28,-121C28,-121 104.25,-121 104.25,-121 110.25,-121 116.25,-127 116.25,-133 116.25,-133 116.25,-195 116.25,-195 116.25,-201 110.25,-207 104.25,-207 104.25,-207 28,-207 28,-207 22,-207 16,-201 16,-195 16,-195 16,-133 16,-133 16,-127 22,-121 28,-121"/>
<text text-anchor="middle" x="66.12" y="-194.45" font-family="Helvetica,sans-Serif" font-weight="bold" font-size="9.00">views</text>
</g>
<g id="clust8" class="cluster">
<title>cluster_src/stores</title>
<path fill="#ffffff" stroke="black" stroke-width="2" d="M282.25,-94C282.25,-94 358.5,-94 358.5,-94 364.5,-94 370.5,-100 370.5,-106 370.5,-106 370.5,-168 370.5,-168 370.5,-174 364.5,-180 358.5,-180 358.5,-180 282.25,-180 282.25,-180 276.25,-180 270.25,-174 270.25,-168 270.25,-168 270.25,-106 270.25,-106 270.25,-100 276.25,-94 282.25,-94"/>
<text text-anchor="middle" x="320.38" y="-167.45" font-family="Helvetica,sans-Serif" font-weight="bold" font-size="9.00">stores</text>
</g>
<!-- src/application/services/filters/index.ts -->
<g id="node1" class="node">
<title>src/application/services/filters/index.ts</title>
<g id="a_node1"><a xlink:href="src/application/services/filters/index.ts" xlink:title="index.ts">
<path fill="#ddfeff" stroke="black" d="M450.08,-125.62C450.08,-125.62 408.92,-125.62 408.92,-125.62 405.71,-125.62 402.5,-122.42 402.5,-119.21 402.5,-119.21 402.5,-112.79 402.5,-112.79 402.5,-109.58 405.71,-106.38 408.92,-106.38 408.92,-106.38 450.08,-106.38 450.08,-106.38 453.29,-106.38 456.5,-109.58 456.5,-112.79 456.5,-112.79 456.5,-119.21 456.5,-119.21 456.5,-122.42 453.29,-125.62 450.08,-125.62"/>
<text text-anchor="start" x="413.75" y="-113.08" font-family="Helvetica,sans-Serif" font-size="9.00">index.ts</text>
</a>
</g>
</g>
<!-- src/components/inputs/FolderSelector.vue -->
<g id="node2" class="node">
<title>src/components/inputs/FolderSelector.vue</title>
<g id="a_node2"><a xlink:href="src/components/inputs/FolderSelector.vue" xlink:title="FolderSelector.vue">
<path fill="#41f083" stroke="black" d="M233.08,-114.62C233.08,-114.62 153.42,-114.62 153.42,-114.62 150.21,-114.62 147,-111.42 147,-108.21 147,-108.21 147,-101.79 147,-101.79 147,-98.58 150.21,-95.38 153.42,-95.38 153.42,-95.38 233.08,-95.38 233.08,-95.38 236.29,-95.38 239.5,-98.58 239.5,-101.79 239.5,-101.79 239.5,-108.21 239.5,-108.21 239.5,-111.42 236.29,-114.62 233.08,-114.62"/>
<text text-anchor="start" x="155" y="-102.08" font-family="Helvetica,sans-Serif" font-size="9.00">FolderSelector.vue</text>
</a>
</g>
</g>
<!-- src/stores/videosStore.ts -->
<g id="node3" class="node">
<title>src/stores/videosStore.ts</title>
<g id="a_node3"><a xlink:href="src/stores/videosStore.ts" xlink:title="videosStore.ts">
<path fill="#ddfeff" stroke="black" d="M351.21,-152.62C351.21,-152.62 289.54,-152.62 289.54,-152.62 286.33,-152.62 283.12,-149.42 283.12,-146.21 283.12,-146.21 283.12,-139.79 283.12,-139.79 283.12,-136.58 286.33,-133.38 289.54,-133.38 289.54,-133.38 351.21,-133.38 351.21,-133.38 354.42,-133.38 357.62,-136.58 357.62,-139.79 357.62,-139.79 357.62,-146.21 357.62,-146.21 357.62,-149.42 354.42,-152.62 351.21,-152.62"/>
<text text-anchor="start" x="291.12" y="-140.07" font-family="Helvetica,sans-Serif" font-size="9.00">videosStore.ts</text>
</a>
</g>
</g>
<!-- src/components/inputs/FolderSelector.vue&#45;&gt;src/stores/videosStore.ts -->
<g id="edge1" class="edge">
<title>src/components/inputs/FolderSelector.vue&#45;&gt;src/stores/videosStore.ts</title>
<path fill="none" stroke="#000000" stroke-width="2" stroke-opacity="0.200000" d="M227.45,-115.08C242.99,-119.8 261.65,-125.47 278.09,-130.46"/>
<polygon fill="#000000" fill-opacity="0.200000" stroke="#000000" stroke-width="2" stroke-opacity="0.200000" points="277.2,-132.39 283.55,-132.12 278.42,-128.37 277.2,-132.39"/>
</g>
<!-- src/stores/videosStore.ts&#45;&gt;src/application/services/filters/index.ts -->
<g id="edge3" class="edge">
<title>src/stores/videosStore.ts&#45;&gt;src/application/services/filters/index.ts</title>
<path fill="none" stroke="#000000" stroke-width="2" stroke-opacity="0.200000" d="M357.94,-133.78C369.53,-130.86 382.31,-127.64 393.77,-124.75"/>
<polygon fill="#000000" fill-opacity="0.200000" stroke="#000000" stroke-width="2" stroke-opacity="0.200000" points="393.99,-126.86 399.3,-123.36 392.97,-122.79 393.99,-126.86"/>
</g>
<!-- src/components/utils/DiagnosticsPanel.vue -->
<g id="node4" class="node">
<title>src/components/utils/DiagnosticsPanel.vue</title>
<g id="a_node4"><a xlink:href="src/components/utils/DiagnosticsPanel.vue" xlink:title="DiagnosticsPanel.vue">
<path fill="#41f083" stroke="black" d="M239.83,-51.62C239.83,-51.62 146.67,-51.62 146.67,-51.62 143.46,-51.62 140.25,-48.42 140.25,-45.21 140.25,-45.21 140.25,-38.79 140.25,-38.79 140.25,-35.58 143.46,-32.38 146.67,-32.38 146.67,-32.38 239.83,-32.38 239.83,-32.38 243.04,-32.38 246.25,-35.58 246.25,-38.79 246.25,-38.79 246.25,-45.21 246.25,-45.21 246.25,-48.42 243.04,-51.62 239.83,-51.62"/>
<text text-anchor="start" x="148.25" y="-39.08" font-family="Helvetica,sans-Serif" font-size="9.00">DiagnosticsPanel.vue</text>
</a>
</g>
</g>
<!-- src/stores/appStateStore.ts -->
<g id="node5" class="node">
<title>src/stores/appStateStore.ts</title>
<g id="a_node5"><a xlink:href="src/stores/appStateStore.ts" xlink:title="appStateStore.ts">
<path fill="#ddfeff" stroke="black" d="M356.08,-121.62C356.08,-121.62 284.67,-121.62 284.67,-121.62 281.46,-121.62 278.25,-118.42 278.25,-115.21 278.25,-115.21 278.25,-108.79 278.25,-108.79 278.25,-105.58 281.46,-102.38 284.67,-102.38 284.67,-102.38 356.08,-102.38 356.08,-102.38 359.29,-102.38 362.5,-105.58 362.5,-108.79 362.5,-108.79 362.5,-115.21 362.5,-115.21 362.5,-118.42 359.29,-121.62 356.08,-121.62"/>
<text text-anchor="start" x="286.25" y="-109.08" font-family="Helvetica,sans-Serif" font-size="9.00">appStateStore.ts</text>
</a>
</g>
</g>
<!-- src/components/utils/DiagnosticsPanel.vue&#45;&gt;src/stores/appStateStore.ts -->
<g id="edge2" class="edge">
<title>src/components/utils/DiagnosticsPanel.vue&#45;&gt;src/stores/appStateStore.ts</title>
<path fill="none" stroke="#000000" stroke-width="2" stroke-opacity="0.200000" d="M212.18,-52.03C233.55,-63.98 269.42,-84.05 293.72,-97.65"/>
<polygon fill="#000000" fill-opacity="0.200000" stroke="#000000" stroke-width="2" stroke-opacity="0.200000" points="292.58,-99.41 298.84,-100.51 294.63,-95.75 292.58,-99.41"/>
</g>
<!-- src/views/NavBar.vue -->
<g id="node6" class="node">
<title>src/views/NavBar.vue</title>
<g id="a_node6"><a xlink:href="src/views/NavBar.vue" xlink:title="NavBar.vue">
<path fill="#41f083" stroke="black" d="M90.96,-148.62C90.96,-148.62 41.29,-148.62 41.29,-148.62 38.08,-148.62 34.88,-145.42 34.88,-142.21 34.88,-142.21 34.88,-135.79 34.88,-135.79 34.88,-132.58 38.08,-129.38 41.29,-129.38 41.29,-129.38 90.96,-129.38 90.96,-129.38 94.17,-129.38 97.38,-132.58 97.38,-135.79 97.38,-135.79 97.38,-142.21 97.38,-142.21 97.38,-145.42 94.17,-148.62 90.96,-148.62"/>
<text text-anchor="start" x="42.88" y="-136.07" font-family="Helvetica,sans-Serif" font-size="9.00">NavBar.vue</text>
</a>
</g>
</g>
<!-- src/views/NavBar.vue&#45;&gt;src/components/inputs/FolderSelector.vue -->
<g id="edge4" class="edge">
<title>src/views/NavBar.vue&#45;&gt;src/components/inputs/FolderSelector.vue</title>
<path fill="none" stroke="#000000" stroke-width="2" stroke-opacity="0.200000" d="M97.73,-130.68C112.52,-126.66 130.56,-121.76 146.9,-117.32"/>
<polygon fill="#000000" fill-opacity="0.200000" stroke="#000000" stroke-width="2" stroke-opacity="0.200000" points="147.11,-119.44 152.35,-115.84 146.01,-115.39 147.11,-119.44"/>
</g>
<!-- src/views/NavBar.vue&#45;&gt;src/stores/videosStore.ts -->
<g id="edge6" class="edge">
<title>src/views/NavBar.vue&#45;&gt;src/stores/videosStore.ts</title>
<path fill="none" stroke="#000000" stroke-width="2" stroke-opacity="0.200000" d="M97.77,-143.3C104.58,-145.54 111.25,-148.91 116.25,-154 125.32,-163.23 113.92,-174.21 124.25,-182 148.73,-200.47 232.95,-191.05 262.25,-182 277.17,-177.39 291.66,-167.41 302.32,-158.7"/>
<polygon fill="#000000" fill-opacity="0.200000" stroke="#000000" stroke-width="2" stroke-opacity="0.200000" points="303.55,-160.41 306.74,-154.92 300.82,-157.22 303.55,-160.41"/>
</g>
<!-- src/views/NavBar.vue&#45;&gt;src/stores/appStateStore.ts -->
<g id="edge5" class="edge">
<title>src/views/NavBar.vue&#45;&gt;src/stores/appStateStore.ts</title>
<path fill="none" stroke="#000000" stroke-width="2" stroke-opacity="0.200000" d="M97.76,-144.07C145.77,-151.34 235.96,-162.08 262.25,-145 269.59,-140.23 263.69,-132.8 270.25,-127 270.55,-126.73 270.86,-126.47 271.17,-126.22"/>
<polygon fill="#000000" fill-opacity="0.200000" stroke="#000000" stroke-width="2" stroke-opacity="0.200000" points="271.89,-128.26 275.7,-123.17 269.55,-124.77 271.89,-128.26"/>
</g>
<!-- src/views/VideoGallery.vue -->
<g id="node7" class="node">
<title>src/views/VideoGallery.vue</title>
<g id="a_node7"><a xlink:href="src/views/VideoGallery.vue" xlink:title="VideoGallery.vue">
<path fill="#41f083" stroke="black" d="M101.83,-179.62C101.83,-179.62 30.42,-179.62 30.42,-179.62 27.21,-179.62 24,-176.42 24,-173.21 24,-173.21 24,-166.79 24,-166.79 24,-163.58 27.21,-160.38 30.42,-160.38 30.42,-160.38 101.83,-160.38 101.83,-160.38 105.04,-160.38 108.25,-163.58 108.25,-166.79 108.25,-166.79 108.25,-173.21 108.25,-173.21 108.25,-176.42 105.04,-179.62 101.83,-179.62"/>
<text text-anchor="start" x="32" y="-167.07" font-family="Helvetica,sans-Serif" font-size="9.00">VideoGallery.vue</text>
</a>
</g>
</g>
<!-- src/views/VideoGallery.vue&#45;&gt;src/stores/videosStore.ts -->
<g id="edge7" class="edge">
<title>src/views/VideoGallery.vue&#45;&gt;src/stores/videosStore.ts</title>
<path fill="none" stroke="#000000" stroke-width="2" stroke-opacity="0.200000" d="M88.87,-180.05C99.32,-184.34 112.18,-188.85 124.25,-191 184.63,-201.75 204.62,-212 262.25,-191 279.38,-184.76 294.95,-170.86 305.49,-159.62"/>
<polygon fill="#000000" fill-opacity="0.200000" stroke="#000000" stroke-width="2" stroke-opacity="0.200000" points="306.91,-161.18 309.35,-155.31 303.78,-158.38 306.91,-161.18"/>
</g>
</g>
</svg>
