<?xml version="1.0" encoding="UTF-8" standalone="no"?>
<!DOCTYPE svg PUBLIC "-//W3C//DTD SVG 1.1//EN"
 "http://www.w3.org/Graphics/SVG/1.1/DTD/svg11.dtd">
<!-- Generated by graphviz version 2.43.0 (0)
 -->
<!-- Title: dependency&#45;cruiser output Pages: 1 -->
<svg width="453pt" height="190pt"
 viewBox="0.00 0.00 453.00 190.00" xmlns="http://www.w3.org/2000/svg" xmlns:xlink="http://www.w3.org/1999/xlink">
<g id="graph0" class="graph" transform="scale(1 1) rotate(0) translate(4 186)">
<title>dependency&#45;cruiser output</title>
<polygon fill="white" stroke="transparent" points="-4,4 -4,-186 449,-186 449,4 -4,4"/>
<g id="clust1" class="cluster">
<title>cluster_src</title>
<path fill="#ffffff" stroke="black" stroke-width="2" d="M20,-8C20,-8 427,-8 427,-8 433,-8 439,-14 439,-20 439,-20 439,-162 439,-162 439,-168 433,-174 427,-174 427,-174 20,-174 20,-174 14,-174 8,-168 8,-162 8,-162 8,-20 8,-20 8,-14 14,-8 20,-8"/>
<text text-anchor="middle" x="223.5" y="-162.8" font-family="Helvetica,sans-Serif" font-weight="bold" font-size="9.00">src</text>
</g>
<g id="clust2" class="cluster">
<title>cluster_src/application</title>
<path fill="#ffffff" stroke="black" stroke-width="2" d="M369,-43C369,-43 419,-43 419,-43 425,-43 431,-49 431,-55 431,-55 431,-83 431,-83 431,-89 425,-95 419,-95 419,-95 369,-95 369,-95 363,-95 357,-89 357,-83 357,-83 357,-55 357,-55 357,-49 363,-43 369,-43"/>
<text text-anchor="middle" x="394" y="-83.8" font-family="Helvetica,sans-Serif" font-weight="bold" font-size="9.00">application</text>
</g>
<g id="clust3" class="cluster">
<title>cluster_src/components</title>
<path fill="#ffffff" stroke="black" stroke-width="2" d="M142,-26C142,-26 225,-26 225,-26 231,-26 237,-32 237,-38 237,-38 237,-126 237,-126 237,-132 231,-138 225,-138 225,-138 142,-138 142,-138 136,-138 130,-132 130,-126 130,-126 130,-38 130,-38 130,-32 136,-26 142,-26"/>
<text text-anchor="middle" x="183.5" y="-126.8" font-family="Helvetica,sans-Serif" font-weight="bold" font-size="9.00">components</text>
</g>
<g id="clust4" class="cluster">
<title>cluster_src/components/inputs</title>
<path fill="#ffffff" stroke="black" stroke-width="2" d="M150,-60C150,-60 217,-60 217,-60 223,-60 229,-66 229,-72 229,-72 229,-100 229,-100 229,-106 223,-112 217,-112 217,-112 150,-112 150,-112 144,-112 138,-106 138,-100 138,-100 138,-72 138,-72 138,-66 144,-60 150,-60"/>
<text text-anchor="middle" x="183.5" y="-100.8" font-family="Helvetica,sans-Serif" font-weight="bold" font-size="9.00">inputs</text>
</g>
<g id="clust5" class="cluster">
<title>cluster_src/stores</title>
<path fill="#ffffff" stroke="black" stroke-width="2" d="M257,-43C257,-43 329,-43 329,-43 335,-43 341,-49 341,-55 341,-55 341,-83 341,-83 341,-89 335,-95 329,-95 329,-95 257,-95 257,-95 251,-95 245,-89 245,-83 245,-83 245,-55 245,-55 245,-49 251,-43 257,-43"/>
<text text-anchor="middle" x="293" y="-83.8" font-family="Helvetica,sans-Serif" font-weight="bold" font-size="9.00">stores</text>
</g>
<g id="clust6" class="cluster">
<title>cluster_src/views</title>
<path fill="#ffffff" stroke="black" stroke-width="2" d="M28,-38C28,-38 110,-38 110,-38 116,-38 122,-44 122,-50 122,-50 122,-108 122,-108 122,-114 116,-120 110,-120 110,-120 28,-120 28,-120 22,-120 16,-114 16,-108 16,-108 16,-50 16,-50 16,-44 22,-38 28,-38"/>
<text text-anchor="middle" x="69" y="-108.8" font-family="Helvetica,sans-Serif" font-weight="bold" font-size="9.00">views</text>
</g>
<!-- src/application/index.ts -->
<g id="node1" class="node">
<title>src/application/index.ts</title>
<g id="a_node1"><a xlink:href="src/application/index.ts" xlink:title="index.ts">
<path fill="#ddfeff" stroke="black" d="M415,-69C415,-69 373,-69 373,-69 370,-69 367,-66 367,-63 367,-63 367,-57 367,-57 367,-54 370,-51 373,-51 373,-51 415,-51 415,-51 418,-51 421,-54 421,-57 421,-57 421,-63 421,-63 421,-66 418,-69 415,-69"/>
<text text-anchor="start" x="375.5" y="-57.8" font-family="Helvetica,sans-Serif" font-size="9.00">index.ts</text>
</a>
</g>
</g>
<!-- src/components/VideoCard.vue -->
<g id="node2" class="node">
<title>src/components/VideoCard.vue</title>
<g id="a_node2"><a xlink:href="src/components/VideoCard.vue" xlink:title="VideoCard.vue">
<path fill="#41f083" stroke="black" d="M218.5,-52C218.5,-52 148.5,-52 148.5,-52 145.5,-52 142.5,-49 142.5,-46 142.5,-46 142.5,-40 142.5,-40 142.5,-37 145.5,-34 148.5,-34 148.5,-34 218.5,-34 218.5,-34 221.5,-34 224.5,-37 224.5,-40 224.5,-40 224.5,-46 224.5,-46 224.5,-49 221.5,-52 218.5,-52"/>
<text text-anchor="start" x="150.5" y="-40.8" font-family="Helvetica,sans-Serif" font-size="9.00">VideoCard.vue</text>
</a>
</g>
</g>
<!-- src/stores/videosStore.ts -->
<g id="node3" class="node">
<title>src/stores/videosStore.ts</title>
<g id="a_node3"><a xlink:href="src/stores/videosStore.ts" xlink:title="videosStore.ts">
<path fill="#ddfeff" stroke="black" d="M327,-69C327,-69 259,-69 259,-69 256,-69 253,-66 253,-63 253,-63 253,-57 253,-57 253,-54 256,-51 259,-51 259,-51 327,-51 327,-51 330,-51 333,-54 333,-57 333,-57 333,-63 333,-63 333,-66 330,-69 327,-69"/>
<text text-anchor="start" x="261" y="-57.8" font-family="Helvetica,sans-Serif" font-size="9.00">videosStore.ts</text>
</a>
</g>
</g>
<!-- src/components/VideoCard.vue&#45;&gt;src/stores/videosStore.ts -->
<g id="edge1" class="edge">
<title>src/components/VideoCard.vue&#45;&gt;src/stores/videosStore.ts</title>
<path fill="none" stroke="#000000" stroke-width="2" stroke-opacity="0.200000" d="M224.53,-49.33C231.71,-50.47 239.24,-51.66 246.56,-52.81"/>
<polygon fill="#000000" fill-opacity="0.200000" stroke="#000000" stroke-width="2" stroke-opacity="0.200000" points="246.4,-54.91 252.65,-53.78 247.05,-50.77 246.4,-54.91"/>
</g>
<!-- src/stores/videosStore.ts&#45;&gt;src/application/index.ts -->
<g id="edge3" class="edge">
<title>src/stores/videosStore.ts&#45;&gt;src/application/index.ts</title>
<path fill="none" stroke="#000000" stroke-width="2" stroke-opacity="0.200000" d="M333.13,-60C342.26,-60 351.89,-60 360.69,-60"/>
<polygon fill="#000000" fill-opacity="0.200000" stroke="#000000" stroke-width="2" stroke-opacity="0.200000" points="360.93,-62.1 366.93,-60 360.93,-57.9 360.93,-62.1"/>
</g>
<!-- src/components/inputs/FileInput.vue -->
<g id="node4" class="node">
<title>src/components/inputs/FileInput.vue</title>
<g id="a_node4"><a xlink:href="src/components/inputs/FileInput.vue" xlink:title="FileInput.vue">
<path fill="#41f083" stroke="black" d="M215,-86C215,-86 152,-86 152,-86 149,-86 146,-83 146,-80 146,-80 146,-74 146,-74 146,-71 149,-68 152,-68 152,-68 215,-68 215,-68 218,-68 221,-71 221,-74 221,-74 221,-80 221,-80 221,-83 218,-86 215,-86"/>
<text text-anchor="start" x="154" y="-74.8" font-family="Helvetica,sans-Serif" font-size="9.00">FileInput.vue</text>
</a>
</g>
</g>
<!-- src/components/inputs/FileInput.vue&#45;&gt;src/stores/videosStore.ts -->
<g id="edge2" class="edge">
<title>src/components/inputs/FileInput.vue&#45;&gt;src/stores/videosStore.ts</title>
<path fill="none" stroke="#000000" stroke-width="2" stroke-opacity="0.200000" d="M221.19,-71.2C229.34,-69.91 238.06,-68.53 246.51,-67.19"/>
<polygon fill="#000000" fill-opacity="0.200000" stroke="#000000" stroke-width="2" stroke-opacity="0.200000" points="247.3,-69.19 252.9,-66.18 246.65,-65.05 247.3,-69.19"/>
</g>
<!-- src/views/NavBar.vue -->
<g id="node5" class="node">
<title>src/views/NavBar.vue</title>
<g id="a_node5"><a xlink:href="src/views/NavBar.vue" xlink:title="NavBar.vue">
<path fill="#41f083" stroke="black" d="M97,-64C97,-64 41,-64 41,-64 38,-64 35,-61 35,-58 35,-58 35,-52 35,-52 35,-49 38,-46 41,-46 41,-46 97,-46 97,-46 100,-46 103,-49 103,-52 103,-52 103,-58 103,-58 103,-61 100,-64 97,-64"/>
<text text-anchor="start" x="43" y="-52.8" font-family="Helvetica,sans-Serif" font-size="9.00">NavBar.vue</text>
</a>
</g>
</g>
<!-- src/views/NavBar.vue&#45;&gt;src/stores/videosStore.ts -->
<g id="edge5" class="edge">
<title>src/views/NavBar.vue&#45;&gt;src/stores/videosStore.ts</title>
<path fill="none" stroke="#000000" stroke-width="2" stroke-opacity="0.200000" d="M82.58,-45.91C94.23,-38.09 112.36,-27.41 130,-23 176.14,-11.47 191.51,-9.12 237,-23 252.32,-27.67 267.25,-38.21 277.67,-46.84"/>
<polygon fill="#000000" fill-opacity="0.200000" stroke="#000000" stroke-width="2" stroke-opacity="0.200000" points="276.49,-48.59 282.41,-50.9 279.22,-45.4 276.49,-48.59"/>
</g>
<!-- src/views/NavBar.vue&#45;&gt;src/components/inputs/FileInput.vue -->
<g id="edge4" class="edge">
<title>src/views/NavBar.vue&#45;&gt;src/components/inputs/FileInput.vue</title>
<path fill="none" stroke="#000000" stroke-width="2" stroke-opacity="0.200000" d="M103.15,-61.48C114.52,-63.71 127.41,-66.23 139.45,-68.58"/>
<polygon fill="#000000" fill-opacity="0.200000" stroke="#000000" stroke-width="2" stroke-opacity="0.200000" points="139.36,-70.7 145.65,-69.79 140.17,-66.58 139.36,-70.7"/>
</g>
<!-- src/views/VideoGallery.vue -->
<g id="node6" class="node">
<title>src/views/VideoGallery.vue</title>
<g id="a_node6"><a xlink:href="src/views/VideoGallery.vue" xlink:title="VideoGallery.vue">
<path fill="#41f083" stroke="black" d="M108,-94C108,-94 30,-94 30,-94 27,-94 24,-91 24,-88 24,-88 24,-82 24,-82 24,-79 27,-76 30,-76 30,-76 108,-76 108,-76 111,-76 114,-79 114,-82 114,-82 114,-88 114,-88 114,-91 111,-94 108,-94"/>
<text text-anchor="start" x="32" y="-82.8" font-family="Helvetica,sans-Serif" font-size="9.00">VideoGallery.vue</text>
</a>
</g>
</g>
<!-- src/views/VideoGallery.vue&#45;&gt;src/components/VideoCard.vue -->
<g id="edge6" class="edge">
<title>src/views/VideoGallery.vue&#45;&gt;src/components/VideoCard.vue</title>
<path fill="none" stroke="#000000" stroke-width="2" stroke-opacity="0.200000" d="M111.94,-75.96C115.51,-74.3 118.93,-72.33 122,-70 127.4,-65.89 124.56,-61.05 130,-57 132.09,-55.45 134.33,-54.07 136.68,-52.84"/>
<polygon fill="#000000" fill-opacity="0.200000" stroke="#000000" stroke-width="2" stroke-opacity="0.200000" points="137.74,-54.66 142.31,-50.24 135.98,-50.85 137.74,-54.66"/>
</g>
<!-- src/views/VideoGallery.vue&#45;&gt;src/stores/videosStore.ts -->
<g id="edge7" class="edge">
<title>src/views/VideoGallery.vue&#45;&gt;src/stores/videosStore.ts</title>
<path fill="none" stroke="#000000" stroke-width="2" stroke-opacity="0.200000" d="M83.6,-94.11C95.32,-101.38 113,-110.99 130,-115 176.28,-125.93 193.06,-133.2 237,-115 256.82,-106.79 273.23,-87.58 282.82,-74.19"/>
<polygon fill="#000000" fill-opacity="0.200000" stroke="#000000" stroke-width="2" stroke-opacity="0.200000" points="284.58,-75.33 286.27,-69.2 281.13,-72.94 284.58,-75.33"/>
</g>
</g>
</svg>
