<?xml version="1.0" encoding="UTF-8" standalone="no"?>
<!DOCTYPE svg PUBLIC "-//W3C//DTD SVG 1.1//EN"
 "http://www.w3.org/Graphics/SVG/1.1/DTD/svg11.dtd">
<!-- Generated by graphviz version 9.0.0 (20230911.1827)
 -->
<!-- Title: dependency&#45;cruiser output Pages: 1 -->
<svg width="449pt" height="197pt"
 viewBox="0.00 0.00 449.25 197.00" xmlns="http://www.w3.org/2000/svg" xmlns:xlink="http://www.w3.org/1999/xlink">
<g id="graph0" class="graph" transform="scale(1 1) rotate(0) translate(4 193)">
<title>dependency&#45;cruiser output</title>
<polygon fill="white" stroke="none" points="-4,4 -4,-193 445.25,-193 445.25,4 -4,4"/>
<g id="clust1" class="cluster">
<title>cluster_src</title>
<path fill="#ffffff" stroke="black" stroke-width="2" d="M20,-8C20,-8 421.25,-8 421.25,-8 427.25,-8 433.25,-14 433.25,-20 433.25,-20 433.25,-169 433.25,-169 433.25,-175 427.25,-181 421.25,-181 421.25,-181 20,-181 20,-181 14,-181 8,-175 8,-169 8,-169 8,-20 8,-20 8,-14 14,-8 20,-8"/>
<text text-anchor="middle" x="220.62" y="-168.45" font-family="Helvetica,sans-Serif" font-weight="bold" font-size="9.00">src</text>
</g>
<g id="clust3" class="cluster">
<title>cluster_src/components</title>
<path fill="#ffffff" stroke="black" stroke-width="2" d="M136.25,-26C136.25,-26 236.75,-26 236.75,-26 242.75,-26 248.75,-32 248.75,-38 248.75,-38 248.75,-132 248.75,-132 248.75,-138 242.75,-144 236.75,-144 236.75,-144 136.25,-144 136.25,-144 130.25,-144 124.25,-138 124.25,-132 124.25,-132 124.25,-38 124.25,-38 124.25,-32 130.25,-26 136.25,-26"/>
<text text-anchor="middle" x="186.5" y="-131.45" font-family="Helvetica,sans-Serif" font-weight="bold" font-size="9.00">components</text>
</g>
<g id="clust4" class="cluster">
<title>cluster_src/components/inputs</title>
<path fill="#ffffff" stroke="black" stroke-width="2" d="M144.25,-62C144.25,-62 228.75,-62 228.75,-62 234.75,-62 240.75,-68 240.75,-74 240.75,-74 240.75,-105 240.75,-105 240.75,-111 234.75,-117 228.75,-117 228.75,-117 144.25,-117 144.25,-117 138.25,-117 132.25,-111 132.25,-105 132.25,-105 132.25,-74 132.25,-74 132.25,-68 138.25,-62 144.25,-62"/>
<text text-anchor="middle" x="186.5" y="-104.45" font-family="Helvetica,sans-Serif" font-weight="bold" font-size="9.00">inputs</text>
</g>
<g id="clust2" class="cluster">
<title>cluster_src/application</title>
<path fill="#ffffff" stroke="black" stroke-width="2" d="M367.25,-44C367.25,-44 413.25,-44 413.25,-44 419.25,-44 425.25,-50 425.25,-56 425.25,-56 425.25,-87 425.25,-87 425.25,-93 419.25,-99 413.25,-99 413.25,-99 367.25,-99 367.25,-99 361.25,-99 355.25,-93 355.25,-87 355.25,-87 355.25,-56 355.25,-56 355.25,-50 361.25,-44 367.25,-44"/>
<text text-anchor="middle" x="390.25" y="-86.45" font-family="Helvetica,sans-Serif" font-weight="bold" font-size="9.00">application</text>
</g>
<g id="clust5" class="cluster">
<title>cluster_src/stores</title>
<path fill="#ffffff" stroke="black" stroke-width="2" d="M268.75,-44C268.75,-44 335.25,-44 335.25,-44 341.25,-44 347.25,-50 347.25,-56 347.25,-56 347.25,-87 347.25,-87 347.25,-93 341.25,-99 335.25,-99 335.25,-99 268.75,-99 268.75,-99 262.75,-99 256.75,-93 256.75,-87 256.75,-87 256.75,-56 256.75,-56 256.75,-50 262.75,-44 268.75,-44"/>
<text text-anchor="middle" x="302" y="-86.45" font-family="Helvetica,sans-Serif" font-weight="bold" font-size="9.00">stores</text>
</g>
<g id="clust6" class="cluster">
<title>cluster_src/views</title>
<path fill="#ffffff" stroke="black" stroke-width="2" d="M28,-39C28,-39 104.25,-39 104.25,-39 110.25,-39 116.25,-45 116.25,-51 116.25,-51 116.25,-113 116.25,-113 116.25,-119 110.25,-125 104.25,-125 104.25,-125 28,-125 28,-125 22,-125 16,-119 16,-113 16,-113 16,-51 16,-51 16,-45 22,-39 28,-39"/>
<text text-anchor="middle" x="66.12" y="-112.45" font-family="Helvetica,sans-Serif" font-weight="bold" font-size="9.00">views</text>
</g>
<!-- src/application/index.ts -->
<g id="node1" class="node">
<title>src/application/index.ts</title>
<g id="a_node1"><a xlink:href="src/application/index.ts" xlink:title="index.ts">
<path fill="#ddfeff" stroke="black" d="M410.83,-71.62C410.83,-71.62 369.67,-71.62 369.67,-71.62 366.46,-71.62 363.25,-68.42 363.25,-65.21 363.25,-65.21 363.25,-58.79 363.25,-58.79 363.25,-55.58 366.46,-52.38 369.67,-52.38 369.67,-52.38 410.83,-52.38 410.83,-52.38 414.04,-52.38 417.25,-55.58 417.25,-58.79 417.25,-58.79 417.25,-65.21 417.25,-65.21 417.25,-68.42 414.04,-71.62 410.83,-71.62"/>
<text text-anchor="start" x="374.5" y="-59.08" font-family="Helvetica,sans-Serif" font-size="9.00">index.ts</text>
</a>
</g>
</g>
<!-- src/components/VideoCard.vue -->
<g id="node2" class="node">
<title>src/components/VideoCard.vue</title>
<g id="a_node2"><a xlink:href="src/components/VideoCard.vue" xlink:title="VideoCard.vue">
<path fill="#41f083" stroke="black" d="M218.08,-53.62C218.08,-53.62 154.92,-53.62 154.92,-53.62 151.71,-53.62 148.5,-50.42 148.5,-47.21 148.5,-47.21 148.5,-40.79 148.5,-40.79 148.5,-37.58 151.71,-34.38 154.92,-34.38 154.92,-34.38 218.08,-34.38 218.08,-34.38 221.29,-34.38 224.5,-37.58 224.5,-40.79 224.5,-40.79 224.5,-47.21 224.5,-47.21 224.5,-50.42 221.29,-53.62 218.08,-53.62"/>
<text text-anchor="start" x="156.5" y="-41.08" font-family="Helvetica,sans-Serif" font-size="9.00">VideoCard.vue</text>
</a>
</g>
</g>
<!-- src/stores/videosStore.ts -->
<g id="node3" class="node">
<title>src/stores/videosStore.ts</title>
<g id="a_node3"><a xlink:href="src/stores/videosStore.ts" xlink:title="videosStore.ts">
<path fill="#ddfeff" stroke="black" d="M332.83,-71.62C332.83,-71.62 271.17,-71.62 271.17,-71.62 267.96,-71.62 264.75,-68.42 264.75,-65.21 264.75,-65.21 264.75,-58.79 264.75,-58.79 264.75,-55.58 267.96,-52.38 271.17,-52.38 271.17,-52.38 332.83,-52.38 332.83,-52.38 336.04,-52.38 339.25,-55.58 339.25,-58.79 339.25,-58.79 339.25,-65.21 339.25,-65.21 339.25,-68.42 336.04,-71.62 332.83,-71.62"/>
<text text-anchor="start" x="272.75" y="-59.08" font-family="Helvetica,sans-Serif" font-size="9.00">videosStore.ts</text>
</a>
</g>
</g>
<!-- src/components/VideoCard.vue&#45;&gt;src/stores/videosStore.ts -->
<g id="edge1" class="edge">
<title>src/components/VideoCard.vue&#45;&gt;src/stores/videosStore.ts</title>
<path fill="none" stroke="#000000" stroke-width="2" stroke-opacity="0.200000" d="M224.98,-49.94C234.77,-51.5 245.42,-53.19 255.58,-54.8"/>
<polygon fill="#000000" fill-opacity="0.200000" stroke="#000000" stroke-width="2" stroke-opacity="0.200000" points="255.09,-56.85 261.34,-55.71 255.75,-52.7 255.09,-56.85"/>
</g>
<!-- src/stores/videosStore.ts&#45;&gt;src/application/index.ts -->
<g id="edge3" class="edge">
<title>src/stores/videosStore.ts&#45;&gt;src/application/index.ts</title>
<path fill="none" stroke="#000000" stroke-width="2" stroke-opacity="0.200000" d="M339.58,-62C344.33,-62 349.2,-62 353.93,-62"/>
<polygon fill="#000000" fill-opacity="0.200000" stroke="#000000" stroke-width="2" stroke-opacity="0.200000" points="353.79,-64.1 359.79,-62 353.79,-59.9 353.79,-64.1"/>
</g>
<!-- src/components/inputs/FolderSelector.vue -->
<g id="node4" class="node">
<title>src/components/inputs/FolderSelector.vue</title>
<g id="a_node4"><a xlink:href="src/components/inputs/FolderSelector.vue" xlink:title="FolderSelector.vue">
<path fill="#41f083" stroke="black" d="M226.33,-89.62C226.33,-89.62 146.67,-89.62 146.67,-89.62 143.46,-89.62 140.25,-86.42 140.25,-83.21 140.25,-83.21 140.25,-76.79 140.25,-76.79 140.25,-73.58 143.46,-70.38 146.67,-70.38 146.67,-70.38 226.33,-70.38 226.33,-70.38 229.54,-70.38 232.75,-73.58 232.75,-76.79 232.75,-76.79 232.75,-83.21 232.75,-83.21 232.75,-86.42 229.54,-89.62 226.33,-89.62"/>
<text text-anchor="start" x="148.25" y="-77.08" font-family="Helvetica,sans-Serif" font-size="9.00">FolderSelector.vue</text>
</a>
</g>
</g>
<!-- src/components/inputs/FolderSelector.vue&#45;&gt;src/stores/videosStore.ts -->
<g id="edge2" class="edge">
<title>src/components/inputs/FolderSelector.vue&#45;&gt;src/stores/videosStore.ts</title>
<path fill="none" stroke="#000000" stroke-width="2" stroke-opacity="0.200000" d="M233.01,-72.78C240.55,-71.59 248.36,-70.35 255.88,-69.16"/>
<polygon fill="#000000" fill-opacity="0.200000" stroke="#000000" stroke-width="2" stroke-opacity="0.200000" points="255.97,-71.27 261.56,-68.25 255.31,-67.12 255.97,-71.27"/>
</g>
<!-- src/views/NavBar.vue -->
<g id="node5" class="node">
<title>src/views/NavBar.vue</title>
<g id="a_node5"><a xlink:href="src/views/NavBar.vue" xlink:title="NavBar.vue">
<path fill="#41f083" stroke="black" d="M90.96,-66.62C90.96,-66.62 41.29,-66.62 41.29,-66.62 38.08,-66.62 34.88,-63.42 34.88,-60.21 34.88,-60.21 34.88,-53.79 34.88,-53.79 34.88,-50.58 38.08,-47.38 41.29,-47.38 41.29,-47.38 90.96,-47.38 90.96,-47.38 94.17,-47.38 97.38,-50.58 97.38,-53.79 97.38,-53.79 97.38,-60.21 97.38,-60.21 97.38,-63.42 94.17,-66.62 90.96,-66.62"/>
<text text-anchor="start" x="42.88" y="-54.08" font-family="Helvetica,sans-Serif" font-size="9.00">NavBar.vue</text>
</a>
</g>
</g>
<!-- src/views/NavBar.vue&#45;&gt;src/stores/videosStore.ts -->
<g id="edge5" class="edge">
<title>src/views/NavBar.vue&#45;&gt;src/stores/videosStore.ts</title>
<path fill="none" stroke="#000000" stroke-width="2" stroke-opacity="0.200000" d="M79.37,-47.03C90.37,-38.77 107.34,-27.65 124.25,-23 177.6,-8.32 196.24,-5.56 248.75,-23 262.58,-27.59 275.72,-37.43 285.36,-46.08"/>
<polygon fill="#000000" fill-opacity="0.200000" stroke="#000000" stroke-width="2" stroke-opacity="0.200000" points="283.71,-47.41 289.52,-49.99 286.59,-44.35 283.71,-47.41"/>
</g>
<!-- src/views/NavBar.vue&#45;&gt;src/components/inputs/FolderSelector.vue -->
<g id="edge4" class="edge">
<title>src/views/NavBar.vue&#45;&gt;src/components/inputs/FolderSelector.vue</title>
<path fill="none" stroke="#000000" stroke-width="2" stroke-opacity="0.200000" d="M97.61,-62.92C107.87,-64.92 119.65,-67.21 131.19,-69.45"/>
<polygon fill="#000000" fill-opacity="0.200000" stroke="#000000" stroke-width="2" stroke-opacity="0.200000" points="130.67,-71.49 136.96,-70.57 131.47,-67.36 130.67,-71.49"/>
</g>
<!-- src/views/VideoGallery.vue -->
<g id="node6" class="node">
<title>src/views/VideoGallery.vue</title>
<g id="a_node6"><a xlink:href="src/views/VideoGallery.vue" xlink:title="VideoGallery.vue">
<path fill="#41f083" stroke="black" d="M101.83,-97.62C101.83,-97.62 30.42,-97.62 30.42,-97.62 27.21,-97.62 24,-94.42 24,-91.21 24,-91.21 24,-84.79 24,-84.79 24,-81.58 27.21,-78.38 30.42,-78.38 30.42,-78.38 101.83,-78.38 101.83,-78.38 105.04,-78.38 108.25,-81.58 108.25,-84.79 108.25,-84.79 108.25,-91.21 108.25,-91.21 108.25,-94.42 105.04,-97.62 101.83,-97.62"/>
<text text-anchor="start" x="32" y="-85.08" font-family="Helvetica,sans-Serif" font-size="9.00">VideoGallery.vue</text>
</a>
</g>
</g>
<!-- src/views/VideoGallery.vue&#45;&gt;src/components/VideoCard.vue -->
<g id="edge6" class="edge">
<title>src/views/VideoGallery.vue&#45;&gt;src/components/VideoCard.vue</title>
<path fill="none" stroke="#000000" stroke-width="2" stroke-opacity="0.200000" d="M108.54,-77.99C111.27,-76.55 113.88,-74.89 116.25,-73 121.85,-68.53 118.53,-63.31 124.25,-59 128.89,-55.5 134.24,-52.81 139.8,-50.74"/>
<polygon fill="#000000" fill-opacity="0.200000" stroke="#000000" stroke-width="2" stroke-opacity="0.200000" points="140.08,-52.86 145.17,-49.04 138.81,-48.85 140.08,-52.86"/>
</g>
<!-- src/views/VideoGallery.vue&#45;&gt;src/stores/videosStore.ts -->
<g id="edge7" class="edge">
<title>src/views/VideoGallery.vue&#45;&gt;src/stores/videosStore.ts</title>
<path fill="none" stroke="#000000" stroke-width="2" stroke-opacity="0.200000" d="M80.36,-98.01C91.42,-105.72 107.97,-115.75 124.25,-120 177.79,-133.97 198.2,-142.5 248.75,-120 267.38,-111.71 282.16,-93.13 291.18,-79.22"/>
<polygon fill="#000000" fill-opacity="0.200000" stroke="#000000" stroke-width="2" stroke-opacity="0.200000" points="292.88,-80.47 294.23,-74.26 289.3,-78.27 292.88,-80.47"/>
</g>
</g>
</svg>
