<?xml version="1.0" encoding="UTF-8" standalone="no"?>
<!DOCTYPE svg PUBLIC "-//W3C//DTD SVG 1.1//EN"
 "http://www.w3.org/Graphics/SVG/1.1/DTD/svg11.dtd">
<!-- Generated by graphviz version 2.43.0 (0)
 -->
<!-- Title: dependency&#45;cruiser output Pages: 1 -->
<svg width="213pt" height="200pt"
 viewBox="0.00 0.00 213.00 200.00" xmlns="http://www.w3.org/2000/svg" xmlns:xlink="http://www.w3.org/1999/xlink">
<g id="graph0" class="graph" transform="scale(1 1) rotate(0) translate(4 196)">
<title>dependency&#45;cruiser output</title>
<polygon fill="white" stroke="transparent" points="-4,4 -4,-196 209,-196 209,4 -4,4"/>
<g id="clust1" class="cluster">
<title>cluster_src</title>
<path fill="#ffffff" stroke="black" stroke-width="2" d="M14,-8C14,-8 187,-8 187,-8 193,-8 199,-14 199,-20 199,-20 199,-172 199,-172 199,-178 193,-184 187,-184 187,-184 14,-184 14,-184 8,-184 2,-178 2,-172 2,-172 2,-20 2,-20 2,-14 8,-8 14,-8"/>
<text text-anchor="middle" x="100.5" y="-172.8" font-family="Helvetica,sans-Serif" font-weight="bold" font-size="9.00">src</text>
</g>
<g id="clust2" class="cluster">
<title>cluster_src/application</title>
<path fill="#ffffff" stroke="black" stroke-width="2" d="M129,-16C129,-16 179,-16 179,-16 185,-16 191,-22 191,-28 191,-28 191,-56 191,-56 191,-62 185,-68 179,-68 179,-68 129,-68 129,-68 123,-68 117,-62 117,-56 117,-56 117,-28 117,-28 117,-22 123,-16 129,-16"/>
<text text-anchor="middle" x="154" y="-56.8" font-family="Helvetica,sans-Serif" font-weight="bold" font-size="9.00">application</text>
</g>
<g id="clust3" class="cluster">
<title>cluster_src/domain</title>
<path fill="#ffffff" stroke="black" stroke-width="2" d="M131,-76C131,-76 177,-76 177,-76 183,-76 189,-82 189,-88 189,-88 189,-146 189,-146 189,-152 183,-158 177,-158 177,-158 131,-158 131,-158 125,-158 119,-152 119,-146 119,-146 119,-88 119,-88 119,-82 125,-76 131,-76"/>
<text text-anchor="middle" x="154" y="-146.8" font-family="Helvetica,sans-Serif" font-weight="bold" font-size="9.00">domain</text>
</g>
<g id="clust4" class="cluster">
<title>cluster_src/presentation</title>
<path fill="#ffffff" stroke="black" stroke-width="2" d="M22,-76C22,-76 81,-76 81,-76 87,-76 93,-82 93,-88 93,-88 93,-116 93,-116 93,-122 87,-128 81,-128 81,-128 22,-128 22,-128 16,-128 10,-122 10,-116 10,-116 10,-88 10,-88 10,-82 16,-76 22,-76"/>
<text text-anchor="middle" x="51.5" y="-116.8" font-family="Helvetica,sans-Serif" font-weight="bold" font-size="9.00">presentation</text>
</g>
<!-- src/application/index.ts -->
<g id="node1" class="node">
<title>src/application/index.ts</title>
<g id="a_node1"><a xlink:href="src/application/index.ts" xlink:title="index.ts">
<path fill="#ddfeff" stroke="black" d="M175,-42C175,-42 133,-42 133,-42 130,-42 127,-39 127,-36 127,-36 127,-30 127,-30 127,-27 130,-24 133,-24 133,-24 175,-24 175,-24 178,-24 181,-27 181,-30 181,-30 181,-36 181,-36 181,-39 178,-42 175,-42"/>
<text text-anchor="start" x="135.5" y="-30.8" font-family="Helvetica,sans-Serif" font-size="9.00">index.ts</text>
</a>
</g>
</g>
<!-- src/domain/entities -->
<g id="node2" class="node">
<title>src/domain/entities</title>
<g id="a_node2"><a xlink:href="src/domain/entities" xlink:title="entities">
<polygon fill="#ffffcc" stroke="black" points="181,-132 129,-132 127,-130 127,-114 179,-114 181,-116 181,-132"/>
<polyline fill="none" stroke="black" points="179,-130 127,-130 "/>
<polyline fill="none" stroke="black" points="179,-130 179,-114 "/>
<polyline fill="none" stroke="black" points="179,-130 181,-132 "/>
<text text-anchor="start" x="137" y="-120.8" font-family="Helvetica,sans-Serif" font-size="9.00">entities</text>
</a>
</g>
</g>
<!-- src/domain/services -->
<g id="node3" class="node">
<title>src/domain/services</title>
<g id="a_node3"><a xlink:href="src/domain/services" xlink:title="services">
<polygon fill="#ffffcc" stroke="black" points="181,-102 129,-102 127,-100 127,-84 179,-84 181,-86 181,-102"/>
<polyline fill="none" stroke="black" points="179,-100 127,-100 "/>
<polyline fill="none" stroke="black" points="179,-100 179,-84 "/>
<polyline fill="none" stroke="black" points="179,-100 181,-102 "/>
<text text-anchor="start" x="135.5" y="-90.8" font-family="Helvetica,sans-Serif" font-size="9.00">services</text>
</a>
</g>
</g>
<!-- src/presentation/stores -->
<g id="node4" class="node">
<title>src/presentation/stores</title>
<g id="a_node4"><a xlink:href="src/presentation/stores" xlink:title="stores">
<polygon fill="#ffffcc" stroke="black" points="78,-102 26,-102 24,-100 24,-84 76,-84 78,-86 78,-102"/>
<polyline fill="none" stroke="black" points="76,-100 24,-100 "/>
<polyline fill="none" stroke="black" points="76,-100 76,-84 "/>
<polyline fill="none" stroke="black" points="76,-100 78,-102 "/>
<text text-anchor="start" x="37" y="-90.8" font-family="Helvetica,sans-Serif" font-size="9.00">stores</text>
</a>
</g>
</g>
<!-- src/presentation/stores&#45;&gt;src/application/index.ts -->
<g id="edge1" class="edge">
<title>src/presentation/stores&#45;&gt;src/application/index.ts</title>
<path fill="none" stroke="#000000" stroke-width="2" stroke-opacity="0.200000" d="M67.34,-83.89C84.79,-73.52 113.37,-56.54 132.67,-45.08"/>
<polygon fill="#000000" fill-opacity="0.200000" stroke="#000000" stroke-width="2" stroke-opacity="0.200000" points="133.76,-46.87 137.85,-42 131.62,-43.26 133.76,-46.87"/>
</g>
<!-- src/presentation/stores&#45;&gt;src/domain/entities -->
<g id="edge2" class="edge">
<title>src/presentation/stores&#45;&gt;src/domain/entities</title>
<path fill="none" stroke="#000000" stroke-opacity="0.200000" d="M78.01,-100.73C91.1,-104.61 107.09,-109.36 120.94,-113.48"/>
<polygon fill="none" stroke="#000000" stroke-opacity="0.200000" points="120.38,-115.5 126.73,-115.2 121.57,-111.47 120.38,-115.5"/>
</g>
<!-- src/presentation/stores&#45;&gt;src/domain/services -->
<g id="edge3" class="edge">
<title>src/presentation/stores&#45;&gt;src/domain/services</title>
<path fill="none" stroke="#000000" stroke-width="2" stroke-opacity="0.200000" d="M78.01,-93C90.99,-93 106.81,-93 120.57,-93"/>
<polygon fill="#000000" fill-opacity="0.200000" stroke="#000000" stroke-width="2" stroke-opacity="0.200000" points="120.73,-95.1 126.73,-93 120.73,-90.9 120.73,-95.1"/>
</g>
</g>
</svg>
