<?xml version="1.0" encoding="UTF-8" standalone="no"?>
<!DOCTYPE svg PUBLIC "-//W3C//DTD SVG 1.1//EN"
 "http://www.w3.org/Graphics/SVG/1.1/DTD/svg11.dtd">
<!-- Generated by graphviz version 9.0.0 (20230911.1827)
 -->
<!-- Title: dependency&#45;cruiser output Pages: 1 -->
<svg width="188pt" height="208pt"
 viewBox="0.00 0.00 188.00 208.00" xmlns="http://www.w3.org/2000/svg" xmlns:xlink="http://www.w3.org/1999/xlink">
<g id="graph0" class="graph" transform="scale(1 1) rotate(0) translate(4 204)">
<title>dependency&#45;cruiser output</title>
<polygon fill="white" stroke="none" points="-4,4 -4,-204 184,-204 184,4 -4,4"/>
<g id="clust1" class="cluster">
<title>cluster_src</title>
<path fill="#ffffff" stroke="black" stroke-width="2" d="M20,-8C20,-8 160,-8 160,-8 166,-8 172,-14 172,-20 172,-20 172,-180 172,-180 172,-186 166,-192 160,-192 160,-192 20,-192 20,-192 14,-192 8,-186 8,-180 8,-180 8,-20 8,-20 8,-14 14,-8 20,-8"/>
<text text-anchor="middle" x="90" y="-179.45" font-family="Helvetica,sans-Serif" font-weight="bold" font-size="9.00">src</text>
</g>
<g id="clust2" class="cluster">
<title>cluster_src/application</title>
<path fill="#ffffff" stroke="black" stroke-width="2" d="M106,-16C106,-16 152,-16 152,-16 158,-16 164,-22 164,-28 164,-28 164,-59 164,-59 164,-65 158,-71 152,-71 152,-71 106,-71 106,-71 100,-71 94,-65 94,-59 94,-59 94,-28 94,-28 94,-22 100,-16 106,-16"/>
<text text-anchor="middle" x="129" y="-58.45" font-family="Helvetica,sans-Serif" font-weight="bold" font-size="9.00">application</text>
</g>
<g id="clust3" class="cluster">
<title>cluster_src/domain</title>
<path fill="#ffffff" stroke="black" stroke-width="2" d="M106,-79C106,-79 152,-79 152,-79 158,-79 164,-85 164,-91 164,-91 164,-153 164,-153 164,-159 158,-165 152,-165 152,-165 106,-165 106,-165 100,-165 94,-159 94,-153 94,-153 94,-91 94,-91 94,-85 100,-79 106,-79"/>
<text text-anchor="middle" x="129" y="-152.45" font-family="Helvetica,sans-Serif" font-weight="bold" font-size="9.00">domain</text>
</g>
<g id="clust4" class="cluster">
<title>cluster_src/presentation</title>
<path fill="#ffffff" stroke="black" stroke-width="2" d="M28,-79C28,-79 74,-79 74,-79 80,-79 86,-85 86,-91 86,-91 86,-122 86,-122 86,-128 80,-134 74,-134 74,-134 28,-134 28,-134 22,-134 16,-128 16,-122 16,-122 16,-91 16,-91 16,-85 22,-79 28,-79"/>
<text text-anchor="middle" x="51" y="-121.45" font-family="Helvetica,sans-Serif" font-weight="bold" font-size="9.00">presentation</text>
</g>
<!-- src/application/index.ts -->
<g id="node1" class="node">
<title>src/application/index.ts</title>
<g id="a_node1"><a xlink:href="src/application/index.ts" xlink:title="index.ts">
<path fill="#ddfeff" stroke="black" d="M149.58,-43.62C149.58,-43.62 108.42,-43.62 108.42,-43.62 105.21,-43.62 102,-40.42 102,-37.21 102,-37.21 102,-30.79 102,-30.79 102,-27.58 105.21,-24.38 108.42,-24.38 108.42,-24.38 149.58,-24.38 149.58,-24.38 152.79,-24.38 156,-27.58 156,-30.79 156,-30.79 156,-37.21 156,-37.21 156,-40.42 152.79,-43.62 149.58,-43.62"/>
<text text-anchor="start" x="113.25" y="-31.07" font-family="Helvetica,sans-Serif" font-size="9.00">index.ts</text>
</a>
</g>
</g>
<!-- src/domain/entities -->
<g id="node2" class="node">
<title>src/domain/entities</title>
<g id="a_node2"><a xlink:href="src/domain/entities" xlink:title="entities">
<polygon fill="#ffffcc" stroke="black" points="156,-137.62 104.14,-137.62 102,-135.49 102,-118.38 153.86,-118.38 156,-120.51 156,-137.62"/>
<polyline fill="none" stroke="black" points="153.86,-135.49 102,-135.49"/>
<polyline fill="none" stroke="black" points="153.86,-135.49 153.86,-118.38"/>
<polyline fill="none" stroke="black" points="153.86,-135.49 156,-137.62"/>
<text text-anchor="start" x="114" y="-125.08" font-family="Helvetica,sans-Serif" font-size="9.00">entities</text>
</a>
</g>
</g>
<!-- src/domain/services -->
<g id="node3" class="node">
<title>src/domain/services</title>
<g id="a_node3"><a xlink:href="src/domain/services" xlink:title="services">
<polygon fill="#ffffcc" stroke="black" points="156,-106.62 104.14,-106.62 102,-104.49 102,-87.38 153.86,-87.38 156,-89.51 156,-106.62"/>
<polyline fill="none" stroke="black" points="153.86,-104.49 102,-104.49"/>
<polyline fill="none" stroke="black" points="153.86,-104.49 153.86,-87.38"/>
<polyline fill="none" stroke="black" points="153.86,-104.49 156,-106.62"/>
<text text-anchor="start" x="111.75" y="-94.08" font-family="Helvetica,sans-Serif" font-size="9.00">services</text>
</a>
</g>
</g>
<!-- src/presentation/stores -->
<g id="node4" class="node">
<title>src/presentation/stores</title>
<g id="a_node4"><a xlink:href="src/presentation/stores" xlink:title="stores">
<polygon fill="#ffffcc" stroke="black" points="78,-106.62 26.14,-106.62 24,-104.49 24,-87.38 75.86,-87.38 78,-89.51 78,-106.62"/>
<polyline fill="none" stroke="black" points="75.86,-104.49 24,-104.49"/>
<polyline fill="none" stroke="black" points="75.86,-104.49 75.86,-87.38"/>
<polyline fill="none" stroke="black" points="75.86,-104.49 78,-106.62"/>
<text text-anchor="start" x="37.88" y="-94.08" font-family="Helvetica,sans-Serif" font-size="9.00">stores</text>
</a>
</g>
</g>
<!-- src/presentation/stores&#45;&gt;src/application/index.ts -->
<g id="edge1" class="edge">
<title>src/presentation/stores&#45;&gt;src/application/index.ts</title>
<path fill="none" stroke="#000000" stroke-width="2" stroke-opacity="0.200000" d="M64.21,-86.88C76.36,-76.81 95.17,-61.22 109.22,-49.57"/>
<polygon fill="#000000" fill-opacity="0.200000" stroke="#000000" stroke-width="2" stroke-opacity="0.200000" points="110.46,-51.27 113.74,-45.82 107.78,-48.03 110.46,-51.27"/>
</g>
<!-- src/presentation/stores&#45;&gt;src/domain/entities -->
<g id="edge2" class="edge">
<title>src/presentation/stores&#45;&gt;src/domain/entities</title>
<path fill="none" stroke="#000000" stroke-opacity="0.200000" d="M76.47,-106.98C82.91,-109.61 89.95,-112.48 96.7,-115.23"/>
<polygon fill="none" stroke="#000000" stroke-opacity="0.200000" points="95.57,-117.04 101.92,-117.36 97.16,-113.15 95.57,-117.04"/>
</g>
<!-- src/presentation/stores&#45;&gt;src/domain/services -->
<g id="edge3" class="edge">
<title>src/presentation/stores&#45;&gt;src/domain/services</title>
<path fill="none" stroke="#000000" stroke-width="2" stroke-opacity="0.200000" d="M78.15,-97C82.88,-97 87.87,-97 92.8,-97"/>
<polygon fill="#000000" fill-opacity="0.200000" stroke="#000000" stroke-width="2" stroke-opacity="0.200000" points="92.51,-99.1 98.51,-97 92.51,-94.9 92.51,-99.1"/>
</g>
</g>
</svg>
