<?xml version="1.0" encoding="UTF-8" standalone="no"?>
<!DOCTYPE svg PUBLIC "-//W3C//DTD SVG 1.1//EN"
 "http://www.w3.org/Graphics/SVG/1.1/DTD/svg11.dtd">
<!-- Generated by graphviz version 9.0.0 (20230911.1827)
 -->
<!-- Title: dependency&#45;cruiser output Pages: 1 -->
<svg width="198pt" height="208pt"
 viewBox="0.00 0.00 198.00 208.00" xmlns="http://www.w3.org/2000/svg" xmlns:xlink="http://www.w3.org/1999/xlink">
<g id="graph0" class="graph" transform="scale(1 1) rotate(0) translate(4 204)">
<title>dependency&#45;cruiser output</title>
<polygon fill="white" stroke="none" points="-4,4 -4,-204 194,-204 194,4 -4,4"/>
<g id="clust1" class="cluster">
<title>cluster_src</title>
<path fill="#ffffff" stroke="black" stroke-width="2" d="M20,-8C20,-8 170,-8 170,-8 176,-8 182,-14 182,-20 182,-20 182,-180 182,-180 182,-186 176,-192 170,-192 170,-192 20,-192 20,-192 14,-192 8,-186 8,-180 8,-180 8,-20 8,-20 8,-14 14,-8 20,-8"/>
<text text-anchor="middle" x="95" y="-179.45" font-family="Helvetica,sans-Serif" font-weight="bold" font-size="9.00">src</text>
</g>
<g id="clust2" class="cluster">
<title>cluster_src/application</title>
<path fill="#ffffff" stroke="black" stroke-width="2" d="M106,-16C106,-16 162,-16 162,-16 168,-16 174,-22 174,-28 174,-28 174,-59 174,-59 174,-65 168,-71 162,-71 162,-71 106,-71 106,-71 100,-71 94,-65 94,-59 94,-59 94,-28 94,-28 94,-22 100,-16 106,-16"/>
<text text-anchor="middle" x="134" y="-58.45" font-family="Helvetica,sans-Serif" font-weight="bold" font-size="9.00">application</text>
</g>
<g id="clust3" class="cluster">
<title>cluster_src/domain</title>
<path fill="#ffffff" stroke="black" stroke-width="2" d="M111,-79C111,-79 157,-79 157,-79 163,-79 169,-85 169,-91 169,-91 169,-153 169,-153 169,-159 163,-165 157,-165 157,-165 111,-165 111,-165 105,-165 99,-159 99,-153 99,-153 99,-91 99,-91 99,-85 105,-79 111,-79"/>
<text text-anchor="middle" x="134" y="-152.45" font-family="Helvetica,sans-Serif" font-weight="bold" font-size="9.00">domain</text>
</g>
<g id="clust4" class="cluster">
<title>cluster_src/presentation</title>
<path fill="#ffffff" stroke="black" stroke-width="2" d="M28,-79C28,-79 74,-79 74,-79 80,-79 86,-85 86,-91 86,-91 86,-122 86,-122 86,-128 80,-134 74,-134 74,-134 28,-134 28,-134 22,-134 16,-128 16,-122 16,-122 16,-91 16,-91 16,-85 22,-79 28,-79"/>
<text text-anchor="middle" x="51" y="-121.45" font-family="Helvetica,sans-Serif" font-weight="bold" font-size="9.00">presentation</text>
</g>
<!-- src/application/container.ts -->
<g id="node1" class="node">
<title>src/application/container.ts</title>
<g id="a_node1"><a xlink:href="src/application/container.ts" xlink:title="container.ts">
<path fill="#ddfeff" stroke="black" d="M159.58,-43.62C159.58,-43.62 108.42,-43.62 108.42,-43.62 105.21,-43.62 102,-40.42 102,-37.21 102,-37.21 102,-30.79 102,-30.79 102,-27.58 105.21,-24.38 108.42,-24.38 108.42,-24.38 159.58,-24.38 159.58,-24.38 162.79,-24.38 166,-27.58 166,-30.79 166,-30.79 166,-37.21 166,-37.21 166,-40.42 162.79,-43.62 159.58,-43.62"/>
<text text-anchor="start" x="110" y="-31.07" font-family="Helvetica,sans-Serif" font-size="9.00">container.ts</text>
</a>
</g>
</g>
<!-- src/domain/entities -->
<g id="node2" class="node">
<title>src/domain/entities</title>
<g id="a_node2"><a xlink:href="src/domain/entities" xlink:title="entities">
<polygon fill="#ffffcc" stroke="black" points="161,-137.62 109.14,-137.62 107,-135.49 107,-118.38 158.86,-118.38 161,-120.51 161,-137.62"/>
<polyline fill="none" stroke="black" points="158.86,-135.49 107,-135.49"/>
<polyline fill="none" stroke="black" points="158.86,-135.49 158.86,-118.38"/>
<polyline fill="none" stroke="black" points="158.86,-135.49 161,-137.62"/>
<text text-anchor="start" x="119" y="-125.08" font-family="Helvetica,sans-Serif" font-size="9.00">entities</text>
</a>
</g>
</g>
<!-- src/domain/services -->
<g id="node3" class="node">
<title>src/domain/services</title>
<g id="a_node3"><a xlink:href="src/domain/services" xlink:title="services">
<polygon fill="#ffffcc" stroke="black" points="161,-106.62 109.14,-106.62 107,-104.49 107,-87.38 158.86,-87.38 161,-89.51 161,-106.62"/>
<polyline fill="none" stroke="black" points="158.86,-104.49 107,-104.49"/>
<polyline fill="none" stroke="black" points="158.86,-104.49 158.86,-87.38"/>
<polyline fill="none" stroke="black" points="158.86,-104.49 161,-106.62"/>
<text text-anchor="start" x="116.75" y="-94.08" font-family="Helvetica,sans-Serif" font-size="9.00">services</text>
</a>
</g>
</g>
<!-- src/presentation/stores -->
<g id="node4" class="node">
<title>src/presentation/stores</title>
<g id="a_node4"><a xlink:href="src/presentation/stores" xlink:title="stores">
<polygon fill="#ffffcc" stroke="black" points="78,-106.62 26.14,-106.62 24,-104.49 24,-87.38 75.86,-87.38 78,-89.51 78,-106.62"/>
<polyline fill="none" stroke="black" points="75.86,-104.49 24,-104.49"/>
<polyline fill="none" stroke="black" points="75.86,-104.49 75.86,-87.38"/>
<polyline fill="none" stroke="black" points="75.86,-104.49 78,-106.62"/>
<text text-anchor="start" x="37.88" y="-94.08" font-family="Helvetica,sans-Serif" font-size="9.00">stores</text>
</a>
</g>
</g>
<!-- src/presentation/stores&#45;&gt;src/application/container.ts -->
<g id="edge1" class="edge">
<title>src/presentation/stores&#45;&gt;src/application/container.ts</title>
<path fill="none" stroke="#000000" stroke-width="2" stroke-opacity="0.200000" d="M65.01,-86.88C78,-76.77 98.14,-61.12 113.13,-49.46"/>
<polygon fill="#000000" fill-opacity="0.200000" stroke="#000000" stroke-width="2" stroke-opacity="0.200000" points="114.18,-51.3 117.63,-45.96 111.6,-47.98 114.18,-51.3"/>
</g>
<!-- src/presentation/stores&#45;&gt;src/domain/entities -->
<g id="edge2" class="edge">
<title>src/presentation/stores&#45;&gt;src/domain/entities</title>
<path fill="none" stroke="#000000" stroke-opacity="0.200000" d="M78.07,-106.98C85.09,-109.66 92.76,-112.6 100.09,-115.4"/>
<polygon fill="none" stroke="#000000" stroke-opacity="0.200000" points="98.93,-117.21 105.28,-117.39 100.43,-113.29 98.93,-117.21"/>
</g>
<!-- src/presentation/stores&#45;&gt;src/domain/services -->
<g id="edge3" class="edge">
<title>src/presentation/stores&#45;&gt;src/domain/services</title>
<path fill="none" stroke="#000000" stroke-width="2" stroke-opacity="0.200000" d="M78.07,-97C84.37,-97 91.2,-97 97.84,-97"/>
<polygon fill="#000000" fill-opacity="0.200000" stroke="#000000" stroke-width="2" stroke-opacity="0.200000" points="97.67,-99.1 103.67,-97 97.67,-94.9 97.67,-99.1"/>
</g>
</g>
</svg>
