<?xml version="1.0" encoding="UTF-8" standalone="no"?>
<!DOCTYPE svg PUBLIC "-//W3C//DTD SVG 1.1//EN"
 "http://www.w3.org/Graphics/SVG/1.1/DTD/svg11.dtd">
<!-- Generated by graphviz version 9.0.0 (20230911.1827)
 -->
<!-- Title: dependency&#45;cruiser output Pages: 1 -->
<svg width="449pt" height="173pt"
 viewBox="0.00 0.00 449.25 173.00" xmlns="http://www.w3.org/2000/svg" xmlns:xlink="http://www.w3.org/1999/xlink">
<g id="graph0" class="graph" transform="scale(1 1) rotate(0) translate(4 169)">
<title>dependency&#45;cruiser output</title>
<polygon fill="white" stroke="none" points="-4,4 -4,-169 445.25,-169 445.25,4 -4,4"/>
<g id="clust1" class="cluster">
<title>cluster_src</title>
<path fill="#ffffff" stroke="black" stroke-width="2" d="M20,-8C20,-8 421.25,-8 421.25,-8 427.25,-8 433.25,-14 433.25,-20 433.25,-20 433.25,-145 433.25,-145 433.25,-151 427.25,-157 421.25,-157 421.25,-157 20,-157 20,-157 14,-157 8,-151 8,-145 8,-145 8,-20 8,-20 8,-14 14,-8 20,-8"/>
<text text-anchor="middle" x="220.62" y="-144.45" font-family="Helvetica,sans-Serif" font-weight="bold" font-size="9.00">src</text>
</g>
<g id="clust3" class="cluster">
<title>cluster_src/components</title>
<path fill="#ffffff" stroke="black" stroke-width="2" d="M136.25,-16C136.25,-16 236.75,-16 236.75,-16 242.75,-16 248.75,-22 248.75,-28 248.75,-28 248.75,-94 248.75,-94 248.75,-100 242.75,-106 236.75,-106 236.75,-106 136.25,-106 136.25,-106 130.25,-106 124.25,-100 124.25,-94 124.25,-94 124.25,-28 124.25,-28 124.25,-22 130.25,-16 136.25,-16"/>
<text text-anchor="middle" x="186.5" y="-93.45" font-family="Helvetica,sans-Serif" font-weight="bold" font-size="9.00">components</text>
</g>
<g id="clust4" class="cluster">
<title>cluster_src/components/inputs</title>
<path fill="#ffffff" stroke="black" stroke-width="2" d="M144.25,-24C144.25,-24 228.75,-24 228.75,-24 234.75,-24 240.75,-30 240.75,-36 240.75,-36 240.75,-67 240.75,-67 240.75,-73 234.75,-79 228.75,-79 228.75,-79 144.25,-79 144.25,-79 138.25,-79 132.25,-73 132.25,-67 132.25,-67 132.25,-36 132.25,-36 132.25,-30 138.25,-24 144.25,-24"/>
<text text-anchor="middle" x="186.5" y="-66.45" font-family="Helvetica,sans-Serif" font-weight="bold" font-size="9.00">inputs</text>
</g>
<g id="clust2" class="cluster">
<title>cluster_src/application</title>
<path fill="#ffffff" stroke="black" stroke-width="2" d="M367.25,-43C367.25,-43 413.25,-43 413.25,-43 419.25,-43 425.25,-49 425.25,-55 425.25,-55 425.25,-86 425.25,-86 425.25,-92 419.25,-98 413.25,-98 413.25,-98 367.25,-98 367.25,-98 361.25,-98 355.25,-92 355.25,-86 355.25,-86 355.25,-55 355.25,-55 355.25,-49 361.25,-43 367.25,-43"/>
<text text-anchor="middle" x="390.25" y="-85.45" font-family="Helvetica,sans-Serif" font-weight="bold" font-size="9.00">application</text>
</g>
<g id="clust5" class="cluster">
<title>cluster_src/stores</title>
<path fill="#ffffff" stroke="black" stroke-width="2" d="M268.75,-69C268.75,-69 335.25,-69 335.25,-69 341.25,-69 347.25,-75 347.25,-81 347.25,-81 347.25,-112 347.25,-112 347.25,-118 341.25,-124 335.25,-124 335.25,-124 268.75,-124 268.75,-124 262.75,-124 256.75,-118 256.75,-112 256.75,-112 256.75,-81 256.75,-81 256.75,-75 262.75,-69 268.75,-69"/>
<text text-anchor="middle" x="302" y="-111.45" font-family="Helvetica,sans-Serif" font-weight="bold" font-size="9.00">stores</text>
</g>
<g id="clust6" class="cluster">
<title>cluster_src/views</title>
<path fill="#ffffff" stroke="black" stroke-width="2" d="M28,-44C28,-44 104.25,-44 104.25,-44 110.25,-44 116.25,-50 116.25,-56 116.25,-56 116.25,-118 116.25,-118 116.25,-124 110.25,-130 104.25,-130 104.25,-130 28,-130 28,-130 22,-130 16,-124 16,-118 16,-118 16,-56 16,-56 16,-50 22,-44 28,-44"/>
<text text-anchor="middle" x="66.12" y="-117.45" font-family="Helvetica,sans-Serif" font-weight="bold" font-size="9.00">views</text>
</g>
<!-- src/application/index.ts -->
<g id="node1" class="node">
<title>src/application/index.ts</title>
<g id="a_node1"><a xlink:href="src/application/index.ts" xlink:title="index.ts">
<path fill="#ddfeff" stroke="black" d="M410.83,-70.62C410.83,-70.62 369.67,-70.62 369.67,-70.62 366.46,-70.62 363.25,-67.42 363.25,-64.21 363.25,-64.21 363.25,-57.79 363.25,-57.79 363.25,-54.58 366.46,-51.38 369.67,-51.38 369.67,-51.38 410.83,-51.38 410.83,-51.38 414.04,-51.38 417.25,-54.58 417.25,-57.79 417.25,-57.79 417.25,-64.21 417.25,-64.21 417.25,-67.42 414.04,-70.62 410.83,-70.62"/>
<text text-anchor="start" x="374.5" y="-58.08" font-family="Helvetica,sans-Serif" font-size="9.00">index.ts</text>
</a>
</g>
</g>
<!-- src/components/inputs/FolderSelector.vue -->
<g id="node2" class="node">
<title>src/components/inputs/FolderSelector.vue</title>
<g id="a_node2"><a xlink:href="src/components/inputs/FolderSelector.vue" xlink:title="FolderSelector.vue">
<path fill="#41f083" stroke="black" d="M226.33,-51.62C226.33,-51.62 146.67,-51.62 146.67,-51.62 143.46,-51.62 140.25,-48.42 140.25,-45.21 140.25,-45.21 140.25,-38.79 140.25,-38.79 140.25,-35.58 143.46,-32.38 146.67,-32.38 146.67,-32.38 226.33,-32.38 226.33,-32.38 229.54,-32.38 232.75,-35.58 232.75,-38.79 232.75,-38.79 232.75,-45.21 232.75,-45.21 232.75,-48.42 229.54,-51.62 226.33,-51.62"/>
<text text-anchor="start" x="148.25" y="-39.08" font-family="Helvetica,sans-Serif" font-size="9.00">FolderSelector.vue</text>
</a>
</g>
</g>
<!-- src/components/inputs/FolderSelector.vue&#45;&gt;src/application/index.ts -->
<g id="edge1" class="edge">
<title>src/components/inputs/FolderSelector.vue&#45;&gt;src/application/index.ts</title>
<path fill="none" stroke="#000000" stroke-width="2" stroke-opacity="0.200000" d="M233.03,-46.29C269.83,-49.75 320.88,-54.56 354.47,-57.72"/>
<polygon fill="#000000" fill-opacity="0.200000" stroke="#000000" stroke-width="2" stroke-opacity="0.200000" points="353.84,-59.77 360.01,-58.25 354.24,-55.59 353.84,-59.77"/>
</g>
<!-- src/stores/videosStore.ts -->
<g id="node3" class="node">
<title>src/stores/videosStore.ts</title>
<g id="a_node3"><a xlink:href="src/stores/videosStore.ts" xlink:title="videosStore.ts">
<path fill="#ddfeff" stroke="black" d="M332.83,-96.62C332.83,-96.62 271.17,-96.62 271.17,-96.62 267.96,-96.62 264.75,-93.42 264.75,-90.21 264.75,-90.21 264.75,-83.79 264.75,-83.79 264.75,-80.58 267.96,-77.38 271.17,-77.38 271.17,-77.38 332.83,-77.38 332.83,-77.38 336.04,-77.38 339.25,-80.58 339.25,-83.79 339.25,-83.79 339.25,-90.21 339.25,-90.21 339.25,-93.42 336.04,-96.62 332.83,-96.62"/>
<text text-anchor="start" x="272.75" y="-84.08" font-family="Helvetica,sans-Serif" font-size="9.00">videosStore.ts</text>
</a>
</g>
</g>
<!-- src/components/inputs/FolderSelector.vue&#45;&gt;src/stores/videosStore.ts -->
<g id="edge2" class="edge">
<title>src/components/inputs/FolderSelector.vue&#45;&gt;src/stores/videosStore.ts</title>
<path fill="none" stroke="#000000" stroke-width="2" stroke-opacity="0.200000" d="M212.97,-52.1C229.04,-58.47 249.96,-66.76 267.38,-73.67"/>
<polygon fill="#000000" fill-opacity="0.200000" stroke="#000000" stroke-width="2" stroke-opacity="0.200000" points="266.45,-75.56 272.8,-75.82 268,-71.66 266.45,-75.56"/>
</g>
<!-- src/stores/videosStore.ts&#45;&gt;src/application/index.ts -->
<g id="edge3" class="edge">
<title>src/stores/videosStore.ts&#45;&gt;src/application/index.ts</title>
<path fill="none" stroke="#000000" stroke-width="2" stroke-opacity="0.200000" d="M336.1,-77.02C342.04,-75.23 348.24,-73.36 354.23,-71.56"/>
<polygon fill="#000000" fill-opacity="0.200000" stroke="#000000" stroke-width="2" stroke-opacity="0.200000" points="354.76,-73.59 359.9,-69.85 353.54,-69.57 354.76,-73.59"/>
</g>
<!-- src/views/NavBar.vue -->
<g id="node4" class="node">
<title>src/views/NavBar.vue</title>
<g id="a_node4"><a xlink:href="src/views/NavBar.vue" xlink:title="NavBar.vue">
<path fill="#41f083" stroke="black" d="M90.96,-71.62C90.96,-71.62 41.29,-71.62 41.29,-71.62 38.08,-71.62 34.88,-68.42 34.88,-65.21 34.88,-65.21 34.88,-58.79 34.88,-58.79 34.88,-55.58 38.08,-52.38 41.29,-52.38 41.29,-52.38 90.96,-52.38 90.96,-52.38 94.17,-52.38 97.38,-55.58 97.38,-58.79 97.38,-58.79 97.38,-65.21 97.38,-65.21 97.38,-68.42 94.17,-71.62 90.96,-71.62"/>
<text text-anchor="start" x="42.88" y="-59.08" font-family="Helvetica,sans-Serif" font-size="9.00">NavBar.vue</text>
</a>
</g>
</g>
<!-- src/views/NavBar.vue&#45;&gt;src/components/inputs/FolderSelector.vue -->
<g id="edge4" class="edge">
<title>src/views/NavBar.vue&#45;&gt;src/components/inputs/FolderSelector.vue</title>
<path fill="none" stroke="#000000" stroke-width="2" stroke-opacity="0.200000" d="M97.61,-56.85C107.87,-55.12 119.65,-53.13 131.19,-51.18"/>
<polygon fill="#000000" fill-opacity="0.200000" stroke="#000000" stroke-width="2" stroke-opacity="0.200000" points="131.38,-53.27 136.94,-50.2 130.68,-49.13 131.38,-53.27"/>
</g>
<!-- src/views/NavBar.vue&#45;&gt;src/stores/videosStore.ts -->
<g id="edge5" class="edge">
<title>src/views/NavBar.vue&#45;&gt;src/stores/videosStore.ts</title>
<path fill="none" stroke="#000000" stroke-width="2" stroke-opacity="0.200000" d="M97.72,-69.98C103.97,-71.99 110.41,-74.34 116.25,-77 120.07,-78.74 120.24,-80.79 124.25,-82 167.46,-95.06 219.34,-94.76 255.68,-92.15"/>
<polygon fill="#000000" fill-opacity="0.200000" stroke="#000000" stroke-width="2" stroke-opacity="0.200000" points="255.74,-94.25 261.55,-91.68 255.4,-90.06 255.74,-94.25"/>
</g>
<!-- src/views/VideoGallery.vue -->
<g id="node5" class="node">
<title>src/views/VideoGallery.vue</title>
<g id="a_node5"><a xlink:href="src/views/VideoGallery.vue" xlink:title="VideoGallery.vue">
<path fill="#41f083" stroke="black" d="M101.83,-102.62C101.83,-102.62 30.42,-102.62 30.42,-102.62 27.21,-102.62 24,-99.42 24,-96.21 24,-96.21 24,-89.79 24,-89.79 24,-86.58 27.21,-83.38 30.42,-83.38 30.42,-83.38 101.83,-83.38 101.83,-83.38 105.04,-83.38 108.25,-86.58 108.25,-89.79 108.25,-89.79 108.25,-96.21 108.25,-96.21 108.25,-99.42 105.04,-102.62 101.83,-102.62"/>
<text text-anchor="start" x="32" y="-90.08" font-family="Helvetica,sans-Serif" font-size="9.00">VideoGallery.vue</text>
</a>
</g>
</g>
<!-- src/views/VideoGallery.vue&#45;&gt;src/stores/videosStore.ts -->
<g id="edge6" class="edge">
<title>src/views/VideoGallery.vue&#45;&gt;src/stores/videosStore.ts</title>
<path fill="none" stroke="#000000" stroke-width="2" stroke-opacity="0.200000" d="M83.96,-102.98C95,-108.93 109.98,-115.91 124.25,-119 178.33,-130.73 195.49,-134.01 248.75,-119 260.59,-115.66 272.39,-108.81 281.78,-102.3"/>
<polygon fill="#000000" fill-opacity="0.200000" stroke="#000000" stroke-width="2" stroke-opacity="0.200000" points="282.99,-104.02 286.59,-98.79 280.51,-100.63 282.99,-104.02"/>
</g>
</g>
</svg>
