<?xml version="1.0" encoding="UTF-8" standalone="no"?>
<!DOCTYPE svg PUBLIC "-//W3C//DTD SVG 1.1//EN"
 "http://www.w3.org/Graphics/SVG/1.1/DTD/svg11.dtd">
<!-- Generated by graphviz version 9.0.0 (20230911.1827)
 -->
<!-- Title: dependency&#45;cruiser output Pages: 1 -->
<svg width="425pt" height="197pt"
 viewBox="0.00 0.00 424.50 197.00" xmlns="http://www.w3.org/2000/svg" xmlns:xlink="http://www.w3.org/1999/xlink">
<g id="graph0" class="graph" transform="scale(1 1) rotate(0) translate(4 193)">
<title>dependency&#45;cruiser output</title>
<polygon fill="white" stroke="none" points="-4,4 -4,-193 420.5,-193 420.5,4 -4,4"/>
<g id="clust1" class="cluster">
<title>cluster_src</title>
<path fill="#ffffff" stroke="black" stroke-width="2" d="M20,-8C20,-8 396.5,-8 396.5,-8 402.5,-8 408.5,-14 408.5,-20 408.5,-20 408.5,-169 408.5,-169 408.5,-175 402.5,-181 396.5,-181 396.5,-181 20,-181 20,-181 14,-181 8,-175 8,-169 8,-169 8,-20 8,-20 8,-14 14,-8 20,-8"/>
<text text-anchor="middle" x="208.25" y="-168.45" font-family="Helvetica,sans-Serif" font-weight="bold" font-size="9.00">src</text>
</g>
<g id="clust2" class="cluster">
<title>cluster_src/application</title>
<path fill="#ffffff" stroke="black" stroke-width="2" d="M342.5,-61C342.5,-61 388.5,-61 388.5,-61 394.5,-61 400.5,-67 400.5,-73 400.5,-73 400.5,-104 400.5,-104 400.5,-110 394.5,-116 388.5,-116 388.5,-116 342.5,-116 342.5,-116 336.5,-116 330.5,-110 330.5,-104 330.5,-104 330.5,-73 330.5,-73 330.5,-67 336.5,-61 342.5,-61"/>
<text text-anchor="middle" x="365.5" y="-103.45" font-family="Helvetica,sans-Serif" font-weight="bold" font-size="9.00">application</text>
</g>
<g id="clust6" class="cluster">
<title>cluster_src/views</title>
<path fill="#ffffff" stroke="black" stroke-width="2" d="M28,-46C28,-46 104.25,-46 104.25,-46 110.25,-46 116.25,-52 116.25,-58 116.25,-58 116.25,-120 116.25,-120 116.25,-126 110.25,-132 104.25,-132 104.25,-132 28,-132 28,-132 22,-132 16,-126 16,-120 16,-120 16,-58 16,-58 16,-52 22,-46 28,-46"/>
<text text-anchor="middle" x="66.12" y="-119.45" font-family="Helvetica,sans-Serif" font-weight="bold" font-size="9.00">views</text>
</g>
<g id="clust5" class="cluster">
<title>cluster_src/stores</title>
<path fill="#ffffff" stroke="black" stroke-width="2" d="M244,-61C244,-61 310.5,-61 310.5,-61 316.5,-61 322.5,-67 322.5,-73 322.5,-73 322.5,-104 322.5,-104 322.5,-110 316.5,-116 310.5,-116 310.5,-116 244,-116 244,-116 238,-116 232,-110 232,-104 232,-104 232,-73 232,-73 232,-67 238,-61 244,-61"/>
<text text-anchor="middle" x="277.25" y="-103.45" font-family="Helvetica,sans-Serif" font-weight="bold" font-size="9.00">stores</text>
</g>
<g id="clust3" class="cluster">
<title>cluster_src/components</title>
<path fill="#ffffff" stroke="black" stroke-width="2" d="M136.25,-26C136.25,-26 212,-26 212,-26 218,-26 224,-32 224,-38 224,-38 224,-132 224,-132 224,-138 218,-144 212,-144 212,-144 136.25,-144 136.25,-144 130.25,-144 124.25,-138 124.25,-132 124.25,-132 124.25,-38 124.25,-38 124.25,-32 130.25,-26 136.25,-26"/>
<text text-anchor="middle" x="174.12" y="-131.45" font-family="Helvetica,sans-Serif" font-weight="bold" font-size="9.00">components</text>
</g>
<g id="clust4" class="cluster">
<title>cluster_src/components/inputs</title>
<path fill="#ffffff" stroke="black" stroke-width="2" d="M144.25,-34C144.25,-34 204,-34 204,-34 210,-34 216,-40 216,-46 216,-46 216,-77 216,-77 216,-83 210,-89 204,-89 204,-89 144.25,-89 144.25,-89 138.25,-89 132.25,-83 132.25,-77 132.25,-77 132.25,-46 132.25,-46 132.25,-40 138.25,-34 144.25,-34"/>
<text text-anchor="middle" x="174.12" y="-76.45" font-family="Helvetica,sans-Serif" font-weight="bold" font-size="9.00">inputs</text>
</g>
<!-- src/application/index.ts -->
<g id="node1" class="node">
<title>src/application/index.ts</title>
<g id="a_node1"><a xlink:href="src/application/index.ts" xlink:title="index.ts">
<path fill="#ddfeff" stroke="black" d="M386.08,-88.62C386.08,-88.62 344.92,-88.62 344.92,-88.62 341.71,-88.62 338.5,-85.42 338.5,-82.21 338.5,-82.21 338.5,-75.79 338.5,-75.79 338.5,-72.58 341.71,-69.38 344.92,-69.38 344.92,-69.38 386.08,-69.38 386.08,-69.38 389.29,-69.38 392.5,-72.58 392.5,-75.79 392.5,-75.79 392.5,-82.21 392.5,-82.21 392.5,-85.42 389.29,-88.62 386.08,-88.62"/>
<text text-anchor="start" x="349.75" y="-76.08" font-family="Helvetica,sans-Serif" font-size="9.00">index.ts</text>
</a>
</g>
</g>
<!-- src/components/VideoCard.vue -->
<g id="node2" class="node">
<title>src/components/VideoCard.vue</title>
<g id="a_node2"><a xlink:href="src/components/VideoCard.vue" xlink:title="VideoCard.vue">
<path fill="#41f083" stroke="black" d="M205.71,-116.62C205.71,-116.62 142.54,-116.62 142.54,-116.62 139.33,-116.62 136.12,-113.42 136.12,-110.21 136.12,-110.21 136.12,-103.79 136.12,-103.79 136.12,-100.58 139.33,-97.38 142.54,-97.38 142.54,-97.38 205.71,-97.38 205.71,-97.38 208.92,-97.38 212.12,-100.58 212.12,-103.79 212.12,-103.79 212.12,-110.21 212.12,-110.21 212.12,-113.42 208.92,-116.62 205.71,-116.62"/>
<text text-anchor="start" x="144.12" y="-104.08" font-family="Helvetica,sans-Serif" font-size="9.00">VideoCard.vue</text>
</a>
</g>
</g>
<!-- src/stores/videosStore.ts -->
<g id="node3" class="node">
<title>src/stores/videosStore.ts</title>
<g id="a_node3"><a xlink:href="src/stores/videosStore.ts" xlink:title="videosStore.ts">
<path fill="#ddfeff" stroke="black" d="M308.08,-88.62C308.08,-88.62 246.42,-88.62 246.42,-88.62 243.21,-88.62 240,-85.42 240,-82.21 240,-82.21 240,-75.79 240,-75.79 240,-72.58 243.21,-69.38 246.42,-69.38 246.42,-69.38 308.08,-69.38 308.08,-69.38 311.29,-69.38 314.5,-72.58 314.5,-75.79 314.5,-75.79 314.5,-82.21 314.5,-82.21 314.5,-85.42 311.29,-88.62 308.08,-88.62"/>
<text text-anchor="start" x="248" y="-76.08" font-family="Helvetica,sans-Serif" font-size="9.00">videosStore.ts</text>
</a>
</g>
</g>
<!-- src/components/VideoCard.vue&#45;&gt;src/stores/videosStore.ts -->
<g id="edge1" class="edge">
<title>src/components/VideoCard.vue&#45;&gt;src/stores/videosStore.ts</title>
<path fill="none" stroke="#000000" stroke-width="2" stroke-opacity="0.200000" d="M211.63,-96.89C218.08,-95.11 224.85,-93.23 231.49,-91.39"/>
<polygon fill="#000000" fill-opacity="0.200000" stroke="#000000" stroke-width="2" stroke-opacity="0.200000" points="231.66,-93.53 236.88,-89.9 230.53,-89.48 231.66,-93.53"/>
</g>
<!-- src/stores/videosStore.ts&#45;&gt;src/application/index.ts -->
<g id="edge3" class="edge">
<title>src/stores/videosStore.ts&#45;&gt;src/application/index.ts</title>
<path fill="none" stroke="#000000" stroke-width="2" stroke-opacity="0.200000" d="M314.83,-79C319.58,-79 324.45,-79 329.18,-79"/>
<polygon fill="#000000" fill-opacity="0.200000" stroke="#000000" stroke-width="2" stroke-opacity="0.200000" points="329.04,-81.1 335.04,-79 329.04,-76.9 329.04,-81.1"/>
</g>
<!-- src/components/inputs/FileInput.vue -->
<g id="node4" class="node">
<title>src/components/inputs/FileInput.vue</title>
<g id="a_node4"><a xlink:href="src/components/inputs/FileInput.vue" xlink:title="FileInput.vue">
<path fill="#41f083" stroke="black" d="M201.58,-61.62C201.58,-61.62 146.67,-61.62 146.67,-61.62 143.46,-61.62 140.25,-58.42 140.25,-55.21 140.25,-55.21 140.25,-48.79 140.25,-48.79 140.25,-45.58 143.46,-42.38 146.67,-42.38 146.67,-42.38 201.58,-42.38 201.58,-42.38 204.79,-42.38 208,-45.58 208,-48.79 208,-48.79 208,-55.21 208,-55.21 208,-58.42 204.79,-61.62 201.58,-61.62"/>
<text text-anchor="start" x="148.25" y="-49.08" font-family="Helvetica,sans-Serif" font-size="9.00">FileInput.vue</text>
</a>
</g>
</g>
<!-- src/components/inputs/FileInput.vue&#45;&gt;src/stores/videosStore.ts -->
<g id="edge2" class="edge">
<title>src/components/inputs/FileInput.vue&#45;&gt;src/stores/videosStore.ts</title>
<path fill="none" stroke="#000000" stroke-width="2" stroke-opacity="0.200000" d="M208.24,-60.84C215.6,-62.81 223.52,-64.92 231.27,-66.99"/>
<polygon fill="#000000" fill-opacity="0.200000" stroke="#000000" stroke-width="2" stroke-opacity="0.200000" points="230.3,-68.91 236.64,-68.42 231.39,-64.85 230.3,-68.91"/>
</g>
<!-- src/views/NavBar.vue -->
<g id="node5" class="node">
<title>src/views/NavBar.vue</title>
<g id="a_node5"><a xlink:href="src/views/NavBar.vue" xlink:title="NavBar.vue">
<path fill="#41f083" stroke="black" d="M90.96,-73.62C90.96,-73.62 41.29,-73.62 41.29,-73.62 38.08,-73.62 34.88,-70.42 34.88,-67.21 34.88,-67.21 34.88,-60.79 34.88,-60.79 34.88,-57.58 38.08,-54.38 41.29,-54.38 41.29,-54.38 90.96,-54.38 90.96,-54.38 94.17,-54.38 97.38,-57.58 97.38,-60.79 97.38,-60.79 97.38,-67.21 97.38,-67.21 97.38,-70.42 94.17,-73.62 90.96,-73.62"/>
<text text-anchor="start" x="42.88" y="-61.08" font-family="Helvetica,sans-Serif" font-size="9.00">NavBar.vue</text>
</a>
</g>
</g>
<!-- src/views/NavBar.vue&#45;&gt;src/stores/videosStore.ts -->
<g id="edge5" class="edge">
<title>src/views/NavBar.vue&#45;&gt;src/stores/videosStore.ts</title>
<path fill="none" stroke="#000000" stroke-width="2" stroke-opacity="0.200000" d="M79.86,-54C90.9,-46.01 107.66,-35.45 124.25,-31 167.07,-19.52 182.69,-14.91 224,-31 240.01,-37.24 254.08,-50.92 263.57,-62.09"/>
<polygon fill="#000000" fill-opacity="0.200000" stroke="#000000" stroke-width="2" stroke-opacity="0.200000" points="261.82,-63.26 267.23,-66.61 265.09,-60.62 261.82,-63.26"/>
</g>
<!-- src/views/NavBar.vue&#45;&gt;src/components/inputs/FileInput.vue -->
<g id="edge4" class="edge">
<title>src/views/NavBar.vue&#45;&gt;src/components/inputs/FileInput.vue</title>
<path fill="none" stroke="#000000" stroke-width="2" stroke-opacity="0.200000" d="M97.78,-60.53C108.21,-59.35 120.04,-58.01 131.19,-56.75"/>
<polygon fill="#000000" fill-opacity="0.200000" stroke="#000000" stroke-width="2" stroke-opacity="0.200000" points="131.21,-58.86 136.93,-56.1 130.73,-54.69 131.21,-58.86"/>
</g>
<!-- src/views/VideoGallery.vue -->
<g id="node6" class="node">
<title>src/views/VideoGallery.vue</title>
<g id="a_node6"><a xlink:href="src/views/VideoGallery.vue" xlink:title="VideoGallery.vue">
<path fill="#41f083" stroke="black" d="M101.83,-104.62C101.83,-104.62 30.42,-104.62 30.42,-104.62 27.21,-104.62 24,-101.42 24,-98.21 24,-98.21 24,-91.79 24,-91.79 24,-88.58 27.21,-85.38 30.42,-85.38 30.42,-85.38 101.83,-85.38 101.83,-85.38 105.04,-85.38 108.25,-88.58 108.25,-91.79 108.25,-91.79 108.25,-98.21 108.25,-98.21 108.25,-101.42 105.04,-104.62 101.83,-104.62"/>
<text text-anchor="start" x="32" y="-92.08" font-family="Helvetica,sans-Serif" font-size="9.00">VideoGallery.vue</text>
</a>
</g>
</g>
<!-- src/views/VideoGallery.vue&#45;&gt;src/components/VideoCard.vue -->
<g id="edge6" class="edge">
<title>src/views/VideoGallery.vue&#45;&gt;src/components/VideoCard.vue</title>
<path fill="none" stroke="#000000" stroke-width="2" stroke-opacity="0.200000" d="M108.71,-99.71C114.72,-100.39 120.92,-101.09 127.01,-101.78"/>
<polygon fill="#000000" fill-opacity="0.200000" stroke="#000000" stroke-width="2" stroke-opacity="0.200000" points="126.59,-103.84 132.78,-102.43 127.06,-99.67 126.59,-103.84"/>
</g>
<!-- src/views/VideoGallery.vue&#45;&gt;src/stores/videosStore.ts -->
<g id="edge7" class="edge">
<title>src/views/VideoGallery.vue&#45;&gt;src/stores/videosStore.ts</title>
<path fill="none" stroke="#000000" stroke-width="2" stroke-opacity="0.200000" d="M74.25,-105C83.92,-117.58 102.49,-138.58 124.25,-147 165.6,-163 184.23,-166.59 224,-147 245.04,-136.63 259.97,-113.27 268.34,-96.84"/>
<polygon fill="#000000" fill-opacity="0.200000" stroke="#000000" stroke-width="2" stroke-opacity="0.200000" points="270.1,-98.03 270.81,-91.71 266.32,-96.21 270.1,-98.03"/>
</g>
</g>
</svg>
