<?xml version="1.0" encoding="UTF-8" standalone="no"?>
<!DOCTYPE svg PUBLIC "-//W3C//DTD SVG 1.1//EN"
 "http://www.w3.org/Graphics/SVG/1.1/DTD/svg11.dtd">
<!-- Generated by graphviz version 9.0.0 (20230911.1827)
 -->
<!-- Title: dependency&#45;cruiser output Pages: 1 -->
<svg width="441pt" height="373pt"
 viewBox="0.00 0.00 440.50 373.00" xmlns="http://www.w3.org/2000/svg" xmlns:xlink="http://www.w3.org/1999/xlink">
<g id="graph0" class="graph" transform="scale(1 1) rotate(0) translate(4 369)">
<title>dependency&#45;cruiser output</title>
<polygon fill="white" stroke="none" points="-4,4 -4,-369 436.5,-369 436.5,4 -4,4"/>
<g id="clust1" class="cluster">
<title>cluster_src</title>
<path fill="#ffffff" stroke="black" stroke-width="2" d="M20,-8C20,-8 412.5,-8 412.5,-8 418.5,-8 424.5,-14 424.5,-20 424.5,-20 424.5,-345 424.5,-345 424.5,-351 418.5,-357 412.5,-357 412.5,-357 20,-357 20,-357 14,-357 8,-351 8,-345 8,-345 8,-20 8,-20 8,-14 14,-8 20,-8"/>
<text text-anchor="middle" x="216.25" y="-344.45" font-family="Helvetica,sans-Serif" font-weight="bold" font-size="9.00">src</text>
</g>
<g id="clust2" class="cluster">
<title>cluster_src/application</title>
<path fill="#ffffff" stroke="black" stroke-width="2" d="M350.5,-16C350.5,-16 396.5,-16 396.5,-16 402.5,-16 408.5,-22 408.5,-28 408.5,-28 408.5,-59 408.5,-59 408.5,-65 402.5,-71 396.5,-71 396.5,-71 350.5,-71 350.5,-71 344.5,-71 338.5,-65 338.5,-59 338.5,-59 338.5,-28 338.5,-28 338.5,-22 344.5,-16 350.5,-16"/>
<text text-anchor="middle" x="373.5" y="-58.45" font-family="Helvetica,sans-Serif" font-weight="bold" font-size="9.00">application</text>
</g>
<g id="clust3" class="cluster">
<title>cluster_src/components</title>
<path fill="#ffffff" stroke="black" stroke-width="2" d="M136.25,-177C136.25,-177 212,-177 212,-177 218,-177 224,-183 224,-189 224,-189 224,-283 224,-283 224,-289 218,-295 212,-295 212,-295 136.25,-295 136.25,-295 130.25,-295 124.25,-289 124.25,-283 124.25,-283 124.25,-189 124.25,-189 124.25,-183 130.25,-177 136.25,-177"/>
<text text-anchor="middle" x="174.12" y="-282.45" font-family="Helvetica,sans-Serif" font-weight="bold" font-size="9.00">components</text>
</g>
<g id="clust4" class="cluster">
<title>cluster_src/components/inputs</title>
<path fill="#ffffff" stroke="black" stroke-width="2" d="M144.25,-185C144.25,-185 204,-185 204,-185 210,-185 216,-191 216,-197 216,-197 216,-228 216,-228 216,-234 210,-240 204,-240 204,-240 144.25,-240 144.25,-240 138.25,-240 132.25,-234 132.25,-228 132.25,-228 132.25,-197 132.25,-197 132.25,-191 138.25,-185 144.25,-185"/>
<text text-anchor="middle" x="174.12" y="-227.45" font-family="Helvetica,sans-Serif" font-weight="bold" font-size="9.00">inputs</text>
</g>
<g id="clust5" class="cluster">
<title>cluster_src/domain</title>
<path fill="#ffffff" stroke="black" stroke-width="2" d="M342.5,-240C342.5,-240 404.5,-240 404.5,-240 410.5,-240 416.5,-246 416.5,-252 416.5,-252 416.5,-318 416.5,-318 416.5,-324 410.5,-330 404.5,-330 404.5,-330 342.5,-330 342.5,-330 336.5,-330 330.5,-324 330.5,-318 330.5,-318 330.5,-252 330.5,-252 330.5,-246 336.5,-240 342.5,-240"/>
<text text-anchor="middle" x="373.5" y="-317.45" font-family="Helvetica,sans-Serif" font-weight="bold" font-size="9.00">domain</text>
</g>
<g id="clust6" class="cluster">
<title>cluster_src/domain/entities</title>
<path fill="#ffffff" stroke="black" stroke-width="2" d="M350.5,-248C350.5,-248 396.5,-248 396.5,-248 402.5,-248 408.5,-254 408.5,-260 408.5,-260 408.5,-291 408.5,-291 408.5,-297 402.5,-303 396.5,-303 396.5,-303 350.5,-303 350.5,-303 344.5,-303 338.5,-297 338.5,-291 338.5,-291 338.5,-260 338.5,-260 338.5,-254 344.5,-248 350.5,-248"/>
<text text-anchor="middle" x="373.5" y="-290.45" font-family="Helvetica,sans-Serif" font-weight="bold" font-size="9.00">entities</text>
</g>
<g id="clust7" class="cluster">
<title>cluster_src/infrastructure</title>
<path fill="#ffffff" stroke="black" stroke-width="2" d="M342.5,-79C342.5,-79 404.5,-79 404.5,-79 410.5,-79 416.5,-85 416.5,-91 416.5,-91 416.5,-220 416.5,-220 416.5,-226 410.5,-232 404.5,-232 404.5,-232 342.5,-232 342.5,-232 336.5,-232 330.5,-226 330.5,-220 330.5,-220 330.5,-91 330.5,-91 330.5,-85 336.5,-79 342.5,-79"/>
<text text-anchor="middle" x="373.5" y="-219.45" font-family="Helvetica,sans-Serif" font-weight="bold" font-size="9.00">infrastructure</text>
</g>
<g id="clust8" class="cluster">
<title>cluster_src/infrastructure/services</title>
<path fill="#ffffff" stroke="black" stroke-width="2" d="M350.5,-150C350.5,-150 396.5,-150 396.5,-150 402.5,-150 408.5,-156 408.5,-162 408.5,-162 408.5,-193 408.5,-193 408.5,-199 402.5,-205 396.5,-205 396.5,-205 350.5,-205 350.5,-205 344.5,-205 338.5,-199 338.5,-193 338.5,-193 338.5,-162 338.5,-162 338.5,-156 344.5,-150 350.5,-150"/>
<text text-anchor="middle" x="373.5" y="-192.45" font-family="Helvetica,sans-Serif" font-weight="bold" font-size="9.00">services</text>
</g>
<g id="clust9" class="cluster">
<title>cluster_src/infrastructure/video</title>
<path fill="#ffffff" stroke="black" stroke-width="2" d="M350.5,-87C350.5,-87 396.5,-87 396.5,-87 402.5,-87 408.5,-93 408.5,-99 408.5,-99 408.5,-130 408.5,-130 408.5,-136 402.5,-142 396.5,-142 396.5,-142 350.5,-142 350.5,-142 344.5,-142 338.5,-136 338.5,-130 338.5,-130 338.5,-99 338.5,-99 338.5,-93 344.5,-87 350.5,-87"/>
<text text-anchor="middle" x="373.5" y="-129.45" font-family="Helvetica,sans-Serif" font-weight="bold" font-size="9.00">video</text>
</g>
<g id="clust10" class="cluster">
<title>cluster_src/stores</title>
<path fill="#ffffff" stroke="black" stroke-width="2" d="M244,-150C244,-150 310.5,-150 310.5,-150 316.5,-150 322.5,-156 322.5,-162 322.5,-162 322.5,-193 322.5,-193 322.5,-199 316.5,-205 310.5,-205 310.5,-205 244,-205 244,-205 238,-205 232,-199 232,-193 232,-193 232,-162 232,-162 232,-156 238,-150 244,-150"/>
<text text-anchor="middle" x="277.25" y="-192.45" font-family="Helvetica,sans-Serif" font-weight="bold" font-size="9.00">stores</text>
</g>
<g id="clust11" class="cluster">
<title>cluster_src/views</title>
<path fill="#ffffff" stroke="black" stroke-width="2" d="M28,-160C28,-160 104.25,-160 104.25,-160 110.25,-160 116.25,-166 116.25,-172 116.25,-172 116.25,-234 116.25,-234 116.25,-240 110.25,-246 104.25,-246 104.25,-246 28,-246 28,-246 22,-246 16,-240 16,-234 16,-234 16,-172 16,-172 16,-166 22,-160 28,-160"/>
<text text-anchor="middle" x="66.12" y="-233.45" font-family="Helvetica,sans-Serif" font-weight="bold" font-size="9.00">views</text>
</g>
<!-- src/application/index.ts -->
<g id="node1" class="node">
<title>src/application/index.ts</title>
<g id="a_node1"><a xlink:href="src/application/index.ts" xlink:title="index.ts">
<path fill="#ddfeff" stroke="black" d="M394.08,-43.62C394.08,-43.62 352.92,-43.62 352.92,-43.62 349.71,-43.62 346.5,-40.42 346.5,-37.21 346.5,-37.21 346.5,-30.79 346.5,-30.79 346.5,-27.58 349.71,-24.38 352.92,-24.38 352.92,-24.38 394.08,-24.38 394.08,-24.38 397.29,-24.38 400.5,-27.58 400.5,-30.79 400.5,-30.79 400.5,-37.21 400.5,-37.21 400.5,-40.42 397.29,-43.62 394.08,-43.62"/>
<text text-anchor="start" x="357.75" y="-31.07" font-family="Helvetica,sans-Serif" font-size="9.00">index.ts</text>
</a>
</g>
</g>
<!-- src/components/VideoCard.vue -->
<g id="node2" class="node">
<title>src/components/VideoCard.vue</title>
<g id="a_node2"><a xlink:href="src/components/VideoCard.vue" xlink:title="VideoCard.vue">
<path fill="#41f083" stroke="black" d="M205.71,-267.62C205.71,-267.62 142.54,-267.62 142.54,-267.62 139.33,-267.62 136.12,-264.42 136.12,-261.21 136.12,-261.21 136.12,-254.79 136.12,-254.79 136.12,-251.58 139.33,-248.38 142.54,-248.38 142.54,-248.38 205.71,-248.38 205.71,-248.38 208.92,-248.38 212.12,-251.58 212.12,-254.79 212.12,-254.79 212.12,-261.21 212.12,-261.21 212.12,-264.42 208.92,-267.62 205.71,-267.62"/>
<text text-anchor="start" x="144.12" y="-255.07" font-family="Helvetica,sans-Serif" font-size="9.00">VideoCard.vue</text>
</a>
</g>
</g>
<!-- src/stores/videosStore.ts -->
<g id="node3" class="node">
<title>src/stores/videosStore.ts</title>
<g id="a_node3"><a xlink:href="src/stores/videosStore.ts" xlink:title="videosStore.ts">
<path fill="#ddfeff" stroke="black" d="M308.08,-177.62C308.08,-177.62 246.42,-177.62 246.42,-177.62 243.21,-177.62 240,-174.42 240,-171.21 240,-171.21 240,-164.79 240,-164.79 240,-161.58 243.21,-158.38 246.42,-158.38 246.42,-158.38 308.08,-158.38 308.08,-158.38 311.29,-158.38 314.5,-161.58 314.5,-164.79 314.5,-164.79 314.5,-171.21 314.5,-171.21 314.5,-174.42 311.29,-177.62 308.08,-177.62"/>
<text text-anchor="start" x="248" y="-165.07" font-family="Helvetica,sans-Serif" font-size="9.00">videosStore.ts</text>
</a>
</g>
</g>
<!-- src/components/VideoCard.vue&#45;&gt;src/stores/videosStore.ts -->
<g id="edge1" class="edge">
<title>src/components/VideoCard.vue&#45;&gt;src/stores/videosStore.ts</title>
<path fill="none" stroke="#000000" stroke-width="2" stroke-opacity="0.200000" d="M212.42,-249.46C216.53,-247.69 220.49,-245.56 224,-243 244.2,-228.27 259.33,-203.27 267.97,-186.21"/>
<polygon fill="#000000" fill-opacity="0.200000" stroke="#000000" stroke-width="2" stroke-opacity="0.200000" points="269.85,-187.15 270.58,-180.84 266.07,-185.32 269.85,-187.15"/>
</g>
<!-- src/domain/entities/index.ts -->
<g id="node4" class="node">
<title>src/domain/entities/index.ts</title>
<g id="a_node4"><a xlink:href="src/domain/entities/index.ts" xlink:title="index.ts">
<path fill="#ddfeff" stroke="black" d="M394.08,-275.62C394.08,-275.62 352.92,-275.62 352.92,-275.62 349.71,-275.62 346.5,-272.42 346.5,-269.21 346.5,-269.21 346.5,-262.79 346.5,-262.79 346.5,-259.58 349.71,-256.38 352.92,-256.38 352.92,-256.38 394.08,-256.38 394.08,-256.38 397.29,-256.38 400.5,-259.58 400.5,-262.79 400.5,-262.79 400.5,-269.21 400.5,-269.21 400.5,-272.42 397.29,-275.62 394.08,-275.62"/>
<text text-anchor="start" x="357.75" y="-263.07" font-family="Helvetica,sans-Serif" font-size="9.00">index.ts</text>
</a>
</g>
</g>
<!-- src/components/VideoCard.vue&#45;&gt;src/domain/entities/index.ts -->
<g id="edge2" class="edge">
<title>src/components/VideoCard.vue&#45;&gt;src/domain/entities/index.ts</title>
<path fill="none" stroke="#000000" stroke-opacity="0.200000" d="M212.25,-259.5C248.74,-260.98 303.92,-263.22 339.08,-264.65"/>
<polygon fill="none" stroke="#000000" stroke-opacity="0.200000" points="338.67,-266.73 344.75,-264.88 338.84,-262.53 338.67,-266.73"/>
</g>
<!-- src/stores/videosStore.ts&#45;&gt;src/application/index.ts -->
<g id="edge4" class="edge">
<title>src/stores/videosStore.ts&#45;&gt;src/application/index.ts</title>
<path fill="none" stroke="#000000" stroke-width="2" stroke-opacity="0.200000" d="M283.77,-158.14C292.87,-142.13 311.84,-109.72 330.5,-84 338.88,-72.45 349.18,-60.16 357.48,-50.66"/>
<polygon fill="#000000" fill-opacity="0.200000" stroke="#000000" stroke-width="2" stroke-opacity="0.200000" points="358.96,-52.15 361.37,-46.27 355.82,-49.37 358.96,-52.15"/>
</g>
<!-- src/stores/videosStore.ts&#45;&gt;src/domain/entities/index.ts -->
<g id="edge5" class="edge">
<title>src/stores/videosStore.ts&#45;&gt;src/domain/entities/index.ts</title>
<path fill="none" stroke="#000000" stroke-opacity="0.200000" d="M287.98,-178.12C304.58,-195.37 338.44,-230.58 357.88,-250.8"/>
<polygon fill="none" stroke="#000000" stroke-opacity="0.200000" points="356.24,-252.12 361.91,-254.99 359.27,-249.21 356.24,-252.12"/>
</g>
<!-- src/infrastructure/services/index.ts -->
<g id="node6" class="node">
<title>src/infrastructure/services/index.ts</title>
<g id="a_node6"><a xlink:href="src/infrastructure/services/index.ts" xlink:title="index.ts">
<path fill="#ddfeff" stroke="black" d="M394.08,-177.62C394.08,-177.62 352.92,-177.62 352.92,-177.62 349.71,-177.62 346.5,-174.42 346.5,-171.21 346.5,-171.21 346.5,-164.79 346.5,-164.79 346.5,-161.58 349.71,-158.38 352.92,-158.38 352.92,-158.38 394.08,-158.38 394.08,-158.38 397.29,-158.38 400.5,-161.58 400.5,-164.79 400.5,-164.79 400.5,-171.21 400.5,-171.21 400.5,-174.42 397.29,-177.62 394.08,-177.62"/>
<text text-anchor="start" x="357.75" y="-165.07" font-family="Helvetica,sans-Serif" font-size="9.00">index.ts</text>
</a>
</g>
</g>
<!-- src/stores/videosStore.ts&#45;&gt;src/infrastructure/services/index.ts -->
<g id="edge6" class="edge">
<title>src/stores/videosStore.ts&#45;&gt;src/infrastructure/services/index.ts</title>
<path fill="none" stroke="#000000" stroke-width="2" stroke-opacity="0.200000" d="M314.96,-168C322.3,-168 330,-168 337.29,-168"/>
<polygon fill="#000000" fill-opacity="0.200000" stroke="#000000" stroke-width="2" stroke-opacity="0.200000" points="337.22,-170.1 343.22,-168 337.22,-165.9 337.22,-170.1"/>
</g>
<!-- src/infrastructure/video/index.ts -->
<g id="node7" class="node">
<title>src/infrastructure/video/index.ts</title>
<g id="a_node7"><a xlink:href="src/infrastructure/video/index.ts" xlink:title="index.ts">
<path fill="#ddfeff" stroke="black" d="M394.08,-114.62C394.08,-114.62 352.92,-114.62 352.92,-114.62 349.71,-114.62 346.5,-111.42 346.5,-108.21 346.5,-108.21 346.5,-101.79 346.5,-101.79 346.5,-98.58 349.71,-95.38 352.92,-95.38 352.92,-95.38 394.08,-95.38 394.08,-95.38 397.29,-95.38 400.5,-98.58 400.5,-101.79 400.5,-101.79 400.5,-108.21 400.5,-108.21 400.5,-111.42 397.29,-114.62 394.08,-114.62"/>
<text text-anchor="start" x="357.75" y="-102.08" font-family="Helvetica,sans-Serif" font-size="9.00">index.ts</text>
</a>
</g>
</g>
<!-- src/stores/videosStore.ts&#45;&gt;src/infrastructure/video/index.ts -->
<g id="edge7" class="edge">
<title>src/stores/videosStore.ts&#45;&gt;src/infrastructure/video/index.ts</title>
<path fill="none" stroke="#000000" stroke-width="2" stroke-opacity="0.200000" d="M293.39,-157.88C308.78,-147.59 332.79,-131.54 350.32,-119.83"/>
<polygon fill="#000000" fill-opacity="0.200000" stroke="#000000" stroke-width="2" stroke-opacity="0.200000" points="351.06,-121.86 354.88,-116.78 348.72,-118.37 351.06,-121.86"/>
</g>
<!-- src/components/inputs/FileInput.vue -->
<g id="node5" class="node">
<title>src/components/inputs/FileInput.vue</title>
<g id="a_node5"><a xlink:href="src/components/inputs/FileInput.vue" xlink:title="FileInput.vue">
<path fill="#41f083" stroke="black" d="M201.58,-212.62C201.58,-212.62 146.67,-212.62 146.67,-212.62 143.46,-212.62 140.25,-209.42 140.25,-206.21 140.25,-206.21 140.25,-199.79 140.25,-199.79 140.25,-196.58 143.46,-193.38 146.67,-193.38 146.67,-193.38 201.58,-193.38 201.58,-193.38 204.79,-193.38 208,-196.58 208,-199.79 208,-199.79 208,-206.21 208,-206.21 208,-209.42 204.79,-212.62 201.58,-212.62"/>
<text text-anchor="start" x="148.25" y="-200.07" font-family="Helvetica,sans-Serif" font-size="9.00">FileInput.vue</text>
</a>
</g>
</g>
<!-- src/components/inputs/FileInput.vue&#45;&gt;src/stores/videosStore.ts -->
<g id="edge3" class="edge">
<title>src/components/inputs/FileInput.vue&#45;&gt;src/stores/videosStore.ts</title>
<path fill="none" stroke="#000000" stroke-width="2" stroke-opacity="0.200000" d="M204.37,-192.88C215.07,-189.18 227.31,-184.94 238.63,-181.02"/>
<polygon fill="#000000" fill-opacity="0.200000" stroke="#000000" stroke-width="2" stroke-opacity="0.200000" points="239.22,-183.04 244.21,-179.09 237.85,-179.07 239.22,-183.04"/>
</g>
<!-- src/views/NavBar.vue -->
<g id="node8" class="node">
<title>src/views/NavBar.vue</title>
<g id="a_node8"><a xlink:href="src/views/NavBar.vue" xlink:title="NavBar.vue">
<path fill="#41f083" stroke="black" d="M90.96,-187.62C90.96,-187.62 41.29,-187.62 41.29,-187.62 38.08,-187.62 34.88,-184.42 34.88,-181.21 34.88,-181.21 34.88,-174.79 34.88,-174.79 34.88,-171.58 38.08,-168.38 41.29,-168.38 41.29,-168.38 90.96,-168.38 90.96,-168.38 94.17,-168.38 97.38,-171.58 97.38,-174.79 97.38,-174.79 97.38,-181.21 97.38,-181.21 97.38,-184.42 94.17,-187.62 90.96,-187.62"/>
<text text-anchor="start" x="42.88" y="-175.07" font-family="Helvetica,sans-Serif" font-size="9.00">NavBar.vue</text>
</a>
</g>
</g>
<!-- src/views/NavBar.vue&#45;&gt;src/stores/videosStore.ts -->
<g id="edge9" class="edge">
<title>src/views/NavBar.vue&#45;&gt;src/stores/videosStore.ts</title>
<path fill="none" stroke="#000000" stroke-width="2" stroke-opacity="0.200000" d="M97.71,-169.07C106.22,-166.98 115.53,-165.05 124.25,-164 159.91,-159.69 200.6,-161.1 230.91,-163.35"/>
<polygon fill="#000000" fill-opacity="0.200000" stroke="#000000" stroke-width="2" stroke-opacity="0.200000" points="230.4,-165.42 236.54,-163.8 230.73,-161.23 230.4,-165.42"/>
</g>
<!-- src/views/NavBar.vue&#45;&gt;src/components/inputs/FileInput.vue -->
<g id="edge8" class="edge">
<title>src/views/NavBar.vue&#45;&gt;src/components/inputs/FileInput.vue</title>
<path fill="none" stroke="#000000" stroke-width="2" stroke-opacity="0.200000" d="M97.78,-185.23C108.21,-187.69 120.04,-190.48 131.19,-193.11"/>
<polygon fill="#000000" fill-opacity="0.200000" stroke="#000000" stroke-width="2" stroke-opacity="0.200000" points="130.67,-195.15 136.99,-194.48 131.64,-191.06 130.67,-195.15"/>
</g>
<!-- src/views/VideoGallery.vue -->
<g id="node9" class="node">
<title>src/views/VideoGallery.vue</title>
<g id="a_node9"><a xlink:href="src/views/VideoGallery.vue" xlink:title="VideoGallery.vue">
<path fill="#41f083" stroke="black" d="M101.83,-218.62C101.83,-218.62 30.42,-218.62 30.42,-218.62 27.21,-218.62 24,-215.42 24,-212.21 24,-212.21 24,-205.79 24,-205.79 24,-202.58 27.21,-199.38 30.42,-199.38 30.42,-199.38 101.83,-199.38 101.83,-199.38 105.04,-199.38 108.25,-202.58 108.25,-205.79 108.25,-205.79 108.25,-212.21 108.25,-212.21 108.25,-215.42 105.04,-218.62 101.83,-218.62"/>
<text text-anchor="start" x="32" y="-206.07" font-family="Helvetica,sans-Serif" font-size="9.00">VideoGallery.vue</text>
</a>
</g>
</g>
<!-- src/views/VideoGallery.vue&#45;&gt;src/components/VideoCard.vue -->
<g id="edge10" class="edge">
<title>src/views/VideoGallery.vue&#45;&gt;src/components/VideoCard.vue</title>
<path fill="none" stroke="#000000" stroke-width="2" stroke-opacity="0.200000" d="M81.64,-218.96C92.88,-226.35 109.06,-236.26 124.25,-243 125.62,-243.61 127.02,-244.2 128.44,-244.77"/>
<polygon fill="#000000" fill-opacity="0.200000" stroke="#000000" stroke-width="2" stroke-opacity="0.200000" points="127.55,-246.68 133.9,-246.83 129.03,-242.75 127.55,-246.68"/>
</g>
<!-- src/views/VideoGallery.vue&#45;&gt;src/stores/videosStore.ts -->
<g id="edge11" class="edge">
<title>src/views/VideoGallery.vue&#45;&gt;src/stores/videosStore.ts</title>
<path fill="none" stroke="#000000" stroke-width="2" stroke-opacity="0.200000" d="M107.9,-199.05C110.85,-197.59 113.67,-195.92 116.25,-194 121.39,-190.17 118.74,-185.28 124.25,-182 141.69,-171.61 192.7,-168.64 230.85,-167.93"/>
<polygon fill="#000000" fill-opacity="0.200000" stroke="#000000" stroke-width="2" stroke-opacity="0.200000" points="230.76,-170.03 236.73,-167.85 230.7,-165.84 230.76,-170.03"/>
</g>
</g>
</svg>
