<?xml version="1.0" encoding="UTF-8" standalone="no"?>
<!DOCTYPE svg PUBLIC "-//W3C//DTD SVG 1.1//EN"
 "http://www.w3.org/Graphics/SVG/1.1/DTD/svg11.dtd">
<!-- Generated by graphviz version 9.0.0 (20230911.1827)
 -->
<!-- Title: dependency&#45;cruiser output Pages: 1 -->
<svg width="433pt" height="149pt"
 viewBox="0.00 0.00 433.25 149.00" xmlns="http://www.w3.org/2000/svg" xmlns:xlink="http://www.w3.org/1999/xlink">
<g id="graph0" class="graph" transform="scale(1 1) rotate(0) translate(4 145)">
<title>dependency&#45;cruiser output</title>
<polygon fill="white" stroke="none" points="-4,4 -4,-145 429.25,-145 429.25,4 -4,4"/>
<g id="clust1" class="cluster">
<title>cluster_src</title>
<path fill="#ffffff" stroke="black" stroke-width="2" d="M20,-8C20,-8 405.25,-8 405.25,-8 411.25,-8 417.25,-14 417.25,-20 417.25,-20 417.25,-121 417.25,-121 417.25,-127 411.25,-133 405.25,-133 405.25,-133 20,-133 20,-133 14,-133 8,-127 8,-121 8,-121 8,-20 8,-20 8,-14 14,-8 20,-8"/>
<text text-anchor="middle" x="212.62" y="-120.45" font-family="Helvetica,sans-Serif" font-weight="bold" font-size="9.00">src</text>
</g>
<g id="clust2" class="cluster">
<title>cluster_src/components</title>
<path fill="#ffffff" stroke="black" stroke-width="2" d="M28,-16C28,-16 220.75,-16 220.75,-16 226.75,-16 232.75,-22 232.75,-28 232.75,-28 232.75,-94 232.75,-94 232.75,-100 226.75,-106 220.75,-106 220.75,-106 28,-106 28,-106 22,-106 16,-100 16,-94 16,-94 16,-28 16,-28 16,-22 22,-16 28,-16"/>
<text text-anchor="middle" x="124.38" y="-93.45" font-family="Helvetica,sans-Serif" font-weight="bold" font-size="9.00">components</text>
</g>
<g id="clust3" class="cluster">
<title>cluster_src/components/FolderSelector</title>
<path fill="#ffffff" stroke="black" stroke-width="2" d="M128.25,-24C128.25,-24 212.75,-24 212.75,-24 218.75,-24 224.75,-30 224.75,-36 224.75,-36 224.75,-67 224.75,-67 224.75,-73 218.75,-79 212.75,-79 212.75,-79 128.25,-79 128.25,-79 122.25,-79 116.25,-73 116.25,-67 116.25,-67 116.25,-36 116.25,-36 116.25,-30 122.25,-24 128.25,-24"/>
<text text-anchor="middle" x="170.5" y="-66.45" font-family="Helvetica,sans-Serif" font-weight="bold" font-size="9.00">FolderSelector</text>
</g>
<g id="clust4" class="cluster">
<title>cluster_src/services</title>
<path fill="#ffffff" stroke="black" stroke-width="2" d="M351.25,-51C351.25,-51 397.25,-51 397.25,-51 403.25,-51 409.25,-57 409.25,-63 409.25,-63 409.25,-94 409.25,-94 409.25,-100 403.25,-106 397.25,-106 397.25,-106 351.25,-106 351.25,-106 345.25,-106 339.25,-100 339.25,-94 339.25,-94 339.25,-63 339.25,-63 339.25,-57 345.25,-51 351.25,-51"/>
<text text-anchor="middle" x="374.25" y="-93.45" font-family="Helvetica,sans-Serif" font-weight="bold" font-size="9.00">services</text>
</g>
<g id="clust5" class="cluster">
<title>cluster_src/stores</title>
<path fill="#ffffff" stroke="black" stroke-width="2" d="M252.75,-51C252.75,-51 319.25,-51 319.25,-51 325.25,-51 331.25,-57 331.25,-63 331.25,-63 331.25,-94 331.25,-94 331.25,-100 325.25,-106 319.25,-106 319.25,-106 252.75,-106 252.75,-106 246.75,-106 240.75,-100 240.75,-94 240.75,-94 240.75,-63 240.75,-63 240.75,-57 246.75,-51 252.75,-51"/>
<text text-anchor="middle" x="286" y="-93.45" font-family="Helvetica,sans-Serif" font-weight="bold" font-size="9.00">stores</text>
</g>
<!-- src/components/FolderSelector/FolderSelector.vue -->
<g id="node1" class="node">
<title>src/components/FolderSelector/FolderSelector.vue</title>
<g id="a_node1"><a xlink:href="src/components/FolderSelector/FolderSelector.vue" xlink:title="FolderSelector.vue">
<path fill="#41f083" stroke="black" d="M210.33,-51.62C210.33,-51.62 130.67,-51.62 130.67,-51.62 127.46,-51.62 124.25,-48.42 124.25,-45.21 124.25,-45.21 124.25,-38.79 124.25,-38.79 124.25,-35.58 127.46,-32.38 130.67,-32.38 130.67,-32.38 210.33,-32.38 210.33,-32.38 213.54,-32.38 216.75,-35.58 216.75,-38.79 216.75,-38.79 216.75,-45.21 216.75,-45.21 216.75,-48.42 213.54,-51.62 210.33,-51.62"/>
<text text-anchor="start" x="132.25" y="-39.08" font-family="Helvetica,sans-Serif" font-size="9.00">FolderSelector.vue</text>
</a>
</g>
</g>
<!-- src/stores/videosStore.ts -->
<g id="node2" class="node">
<title>src/stores/videosStore.ts</title>
<g id="a_node2"><a xlink:href="src/stores/videosStore.ts" xlink:title="videosStore.ts">
<path fill="#ddfeff" stroke="black" d="M316.83,-78.62C316.83,-78.62 255.17,-78.62 255.17,-78.62 251.96,-78.62 248.75,-75.42 248.75,-72.21 248.75,-72.21 248.75,-65.79 248.75,-65.79 248.75,-62.58 251.96,-59.38 255.17,-59.38 255.17,-59.38 316.83,-59.38 316.83,-59.38 320.04,-59.38 323.25,-62.58 323.25,-65.79 323.25,-65.79 323.25,-72.21 323.25,-72.21 323.25,-75.42 320.04,-78.62 316.83,-78.62"/>
<text text-anchor="start" x="256.75" y="-66.08" font-family="Helvetica,sans-Serif" font-size="9.00">videosStore.ts</text>
</a>
</g>
</g>
<!-- src/components/FolderSelector/FolderSelector.vue&#45;&gt;src/stores/videosStore.ts -->
<g id="edge1" class="edge">
<title>src/components/FolderSelector/FolderSelector.vue&#45;&gt;src/stores/videosStore.ts</title>
<path fill="none" stroke="#000000" stroke-width="2" stroke-opacity="0.200000" d="M216.02,-52.07C221.65,-53.38 227.34,-54.71 232.75,-56 235.14,-56.57 237.58,-57.16 240.05,-57.76"/>
<polygon fill="#000000" fill-opacity="0.200000" stroke="#000000" stroke-width="2" stroke-opacity="0.200000" points="239.21,-59.71 245.54,-59.1 240.21,-55.64 239.21,-59.71"/>
</g>
<!-- src/services/index.ts -->
<g id="node5" class="node">
<title>src/services/index.ts</title>
<g id="a_node5"><a xlink:href="src/services/index.ts" xlink:title="index.ts">
<path fill="#ddfeff" stroke="black" d="M394.83,-78.62C394.83,-78.62 353.67,-78.62 353.67,-78.62 350.46,-78.62 347.25,-75.42 347.25,-72.21 347.25,-72.21 347.25,-65.79 347.25,-65.79 347.25,-62.58 350.46,-59.38 353.67,-59.38 353.67,-59.38 394.83,-59.38 394.83,-59.38 398.04,-59.38 401.25,-62.58 401.25,-65.79 401.25,-65.79 401.25,-72.21 401.25,-72.21 401.25,-75.42 398.04,-78.62 394.83,-78.62"/>
<text text-anchor="start" x="358.5" y="-66.08" font-family="Helvetica,sans-Serif" font-size="9.00">index.ts</text>
</a>
</g>
</g>
<!-- src/stores/videosStore.ts&#45;&gt;src/services/index.ts -->
<g id="edge5" class="edge">
<title>src/stores/videosStore.ts&#45;&gt;src/services/index.ts</title>
<path fill="none" stroke="#000000" stroke-width="2" stroke-opacity="0.200000" d="M323.58,-69C328.33,-69 333.2,-69 337.93,-69"/>
<polygon fill="#000000" fill-opacity="0.200000" stroke="#000000" stroke-width="2" stroke-opacity="0.200000" points="337.79,-71.1 343.79,-69 337.79,-66.9 337.79,-71.1"/>
</g>
<!-- src/components/NavBar.vue -->
<g id="node3" class="node">
<title>src/components/NavBar.vue</title>
<g id="a_node3"><a xlink:href="src/components/NavBar.vue" xlink:title="NavBar.vue">
<path fill="#41f083" stroke="black" d="M90.96,-47.62C90.96,-47.62 41.29,-47.62 41.29,-47.62 38.08,-47.62 34.88,-44.42 34.88,-41.21 34.88,-41.21 34.88,-34.79 34.88,-34.79 34.88,-31.58 38.08,-28.38 41.29,-28.38 41.29,-28.38 90.96,-28.38 90.96,-28.38 94.17,-28.38 97.38,-31.58 97.38,-34.79 97.38,-34.79 97.38,-41.21 97.38,-41.21 97.38,-44.42 94.17,-47.62 90.96,-47.62"/>
<text text-anchor="start" x="42.88" y="-35.08" font-family="Helvetica,sans-Serif" font-size="9.00">NavBar.vue</text>
</a>
</g>
</g>
<!-- src/components/NavBar.vue&#45;&gt;src/components/FolderSelector/FolderSelector.vue -->
<g id="edge2" class="edge">
<title>src/components/NavBar.vue&#45;&gt;src/components/FolderSelector/FolderSelector.vue</title>
<path fill="none" stroke="#000000" stroke-width="2" stroke-opacity="0.200000" d="M97.84,-39.2C103.38,-39.42 109.3,-39.65 115.28,-39.88"/>
<polygon fill="#000000" fill-opacity="0.200000" stroke="#000000" stroke-width="2" stroke-opacity="0.200000" points="114.94,-41.97 121.02,-40.11 115.1,-37.77 114.94,-41.97"/>
</g>
<!-- src/components/NavBar.vue&#45;&gt;src/stores/videosStore.ts -->
<g id="edge3" class="edge">
<title>src/components/NavBar.vue&#45;&gt;src/stores/videosStore.ts</title>
<path fill="none" stroke="#000000" stroke-width="2" stroke-opacity="0.200000" d="M97.51,-45.22C101.52,-47.22 105.26,-49.76 108.25,-53 117.32,-62.83 105.61,-73.9 116.25,-82 136.85,-97.68 207.05,-85.15 232.75,-82 235.27,-81.69 237.85,-81.3 240.44,-80.85"/>
<polygon fill="#000000" fill-opacity="0.200000" stroke="#000000" stroke-width="2" stroke-opacity="0.200000" points="240.79,-82.92 246.27,-79.7 239.98,-78.8 240.79,-82.92"/>
</g>
<!-- src/components/VideoGallery.vue -->
<g id="node4" class="node">
<title>src/components/VideoGallery.vue</title>
<g id="a_node4"><a xlink:href="src/components/VideoGallery.vue" xlink:title="VideoGallery.vue">
<path fill="#41f083" stroke="black" d="M101.83,-78.62C101.83,-78.62 30.42,-78.62 30.42,-78.62 27.21,-78.62 24,-75.42 24,-72.21 24,-72.21 24,-65.79 24,-65.79 24,-62.58 27.21,-59.38 30.42,-59.38 30.42,-59.38 101.83,-59.38 101.83,-59.38 105.04,-59.38 108.25,-62.58 108.25,-65.79 108.25,-65.79 108.25,-72.21 108.25,-72.21 108.25,-75.42 105.04,-78.62 101.83,-78.62"/>
<text text-anchor="start" x="32" y="-66.08" font-family="Helvetica,sans-Serif" font-size="9.00">VideoGallery.vue</text>
</a>
</g>
</g>
<!-- src/components/VideoGallery.vue&#45;&gt;src/stores/videosStore.ts -->
<g id="edge4" class="edge">
<title>src/components/VideoGallery.vue&#45;&gt;src/stores/videosStore.ts</title>
<path fill="none" stroke="#000000" stroke-width="2" stroke-opacity="0.200000" d="M83.75,-79.02C92.97,-83.99 104.85,-89.46 116.25,-92 166.79,-103.25 182.08,-102.66 232.75,-92 241.68,-90.12 250.94,-86.62 259.14,-82.91"/>
<polygon fill="#000000" fill-opacity="0.200000" stroke="#000000" stroke-width="2" stroke-opacity="0.200000" points="260.01,-84.82 264.51,-80.33 258.2,-81.03 260.01,-84.82"/>
</g>
</g>
</svg>
