<?xml version="1.0" encoding="UTF-8" standalone="no"?>
<!DOCTYPE svg PUBLIC "-//W3C//DTD SVG 1.1//EN"
 "http://www.w3.org/Graphics/SVG/1.1/DTD/svg11.dtd">
<!-- Generated by graphviz version 9.0.0 (20230911.1827)
 -->
<!-- Title: dependency&#45;cruiser output Pages: 1 -->
<svg width="621pt" height="390pt"
 viewBox="0.00 0.00 621.00 389.51" xmlns="http://www.w3.org/2000/svg" xmlns:xlink="http://www.w3.org/1999/xlink">
<g id="graph0" class="graph" transform="scale(1 1) rotate(0) translate(4 385.51)">
<title>dependency&#45;cruiser output</title>
<polygon fill="white" stroke="none" points="-4,4 -4,-385.51 617,-385.51 617,4 -4,4"/>
<g id="clust1" class="cluster">
<title>cluster_src</title>
<path fill="#ffffff" stroke="black" stroke-width="2" d="M20,-9.51C20,-9.51 593,-9.51 593,-9.51 599,-9.51 605,-15.51 605,-21.51 605,-21.51 605,-361.51 605,-361.51 605,-367.51 599,-373.51 593,-373.51 593,-373.51 20,-373.51 20,-373.51 14,-373.51 8,-367.51 8,-361.51 8,-361.51 8,-21.51 8,-21.51 8,-15.51 14,-9.51 20,-9.51"/>
<text text-anchor="middle" x="306.5" y="-360.96" font-family="Helvetica,sans-Serif" font-weight="bold" font-size="9.00">src</text>
</g>
<g id="clust2" class="cluster">
<title>cluster_src/application</title>
<path fill="#ffffff" stroke="black" stroke-width="2" d="M28,-23.51C28,-23.51 491,-23.51 491,-23.51 497,-23.51 503,-29.51 503,-35.51 503,-35.51 503,-205.51 503,-205.51 503,-211.51 497,-217.51 491,-217.51 491,-217.51 28,-217.51 28,-217.51 22,-217.51 16,-211.51 16,-205.51 16,-205.51 16,-35.51 16,-35.51 16,-29.51 22,-23.51 28,-23.51"/>
<text text-anchor="middle" x="259.5" y="-204.96" font-family="Helvetica,sans-Serif" font-weight="bold" font-size="9.00">application</text>
</g>
<g id="clust3" class="cluster">
<title>cluster_src/application/ports</title>
<path fill="#ffffff" stroke="black" stroke-width="2" d="M407.5,-135.51C407.5,-135.51 483,-135.51 483,-135.51 489,-135.51 495,-141.51 495,-147.51 495,-147.51 495,-178.51 495,-178.51 495,-184.51 489,-190.51 483,-190.51 483,-190.51 407.5,-190.51 407.5,-190.51 401.5,-190.51 395.5,-184.51 395.5,-178.51 395.5,-178.51 395.5,-147.51 395.5,-147.51 395.5,-141.51 401.5,-135.51 407.5,-135.51"/>
<text text-anchor="middle" x="445.25" y="-177.96" font-family="Helvetica,sans-Serif" font-weight="bold" font-size="9.00">ports</text>
</g>
<g id="clust4" class="cluster">
<title>cluster_src/application/services</title>
<path fill="#ffffff" stroke="black" stroke-width="2" d="M265.5,-41.51C265.5,-41.51 311.5,-41.51 311.5,-41.51 317.5,-41.51 323.5,-47.51 323.5,-53.51 323.5,-53.51 323.5,-84.51 323.5,-84.51 323.5,-90.51 317.5,-96.51 311.5,-96.51 311.5,-96.51 265.5,-96.51 265.5,-96.51 259.5,-96.51 253.5,-90.51 253.5,-84.51 253.5,-84.51 253.5,-53.51 253.5,-53.51 253.5,-47.51 259.5,-41.51 265.5,-41.51"/>
<text text-anchor="middle" x="288.5" y="-83.96" font-family="Helvetica,sans-Serif" font-weight="bold" font-size="9.00">services</text>
</g>
<g id="clust6" class="cluster">
<title>cluster_src/application/usecases</title>
<path fill="#ffffff" stroke="black" stroke-width="2" d="M208.38,-104.51C208.38,-104.51 368.62,-104.51 368.62,-104.51 374.62,-104.51 380.62,-110.51 380.62,-116.51 380.62,-116.51 380.62,-178.51 380.62,-178.51 380.62,-184.51 374.62,-190.51 368.62,-190.51 368.62,-190.51 208.38,-190.51 208.38,-190.51 202.38,-190.51 196.38,-184.51 196.38,-178.51 196.38,-178.51 196.38,-116.51 196.38,-116.51 196.38,-110.51 202.38,-104.51 208.38,-104.51"/>
<text text-anchor="middle" x="288.5" y="-177.96" font-family="Helvetica,sans-Serif" font-weight="bold" font-size="9.00">usecases</text>
</g>
<g id="clust5" class="cluster">
<title>cluster_src/application/stores</title>
<path fill="#ffffff" stroke="black" stroke-width="2" d="M36,-104.51C36,-104.51 169.5,-104.51 169.5,-104.51 175.5,-104.51 181.5,-110.51 181.5,-116.51 181.5,-116.51 181.5,-147.51 181.5,-147.51 181.5,-153.51 175.5,-159.51 169.5,-159.51 169.5,-159.51 36,-159.51 36,-159.51 30,-159.51 24,-153.51 24,-147.51 24,-147.51 24,-116.51 24,-116.51 24,-110.51 30,-104.51 36,-104.51"/>
<text text-anchor="middle" x="102.75" y="-146.96" font-family="Helvetica,sans-Serif" font-weight="bold" font-size="9.00">stores</text>
</g>
<g id="clust7" class="cluster">
<title>cluster_src/domain</title>
<path fill="#ffffff" stroke="black" stroke-width="2" d="M523,-100.51C523,-100.51 585,-100.51 585,-100.51 591,-100.51 597,-106.51 597,-112.51 597,-112.51 597,-178.51 597,-178.51 597,-184.51 591,-190.51 585,-190.51 585,-190.51 523,-190.51 523,-190.51 517,-190.51 511,-184.51 511,-178.51 511,-178.51 511,-112.51 511,-112.51 511,-106.51 517,-100.51 523,-100.51"/>
<text text-anchor="middle" x="554" y="-177.96" font-family="Helvetica,sans-Serif" font-weight="bold" font-size="9.00">domain</text>
</g>
<g id="clust8" class="cluster">
<title>cluster_src/domain/entities</title>
<path fill="#ffffff" stroke="black" stroke-width="2" d="M531,-108.51C531,-108.51 577,-108.51 577,-108.51 583,-108.51 589,-114.51 589,-120.51 589,-120.51 589,-151.51 589,-151.51 589,-157.51 583,-163.51 577,-163.51 577,-163.51 531,-163.51 531,-163.51 525,-163.51 519,-157.51 519,-151.51 519,-151.51 519,-120.51 519,-120.51 519,-114.51 525,-108.51 531,-108.51"/>
<text text-anchor="middle" x="554" y="-150.96" font-family="Helvetica,sans-Serif" font-weight="bold" font-size="9.00">entities</text>
</g>
<g id="clust9" class="cluster">
<title>cluster_src/infrastructure</title>
<path fill="#ffffff" stroke="black" stroke-width="2" d="M201.5,-225.51C201.5,-225.51 375.5,-225.51 375.5,-225.51 381.5,-225.51 387.5,-231.51 387.5,-237.51 387.5,-237.51 387.5,-334.51 387.5,-334.51 387.5,-340.51 381.5,-346.51 375.5,-346.51 375.5,-346.51 201.5,-346.51 201.5,-346.51 195.5,-346.51 189.5,-340.51 189.5,-334.51 189.5,-334.51 189.5,-237.51 189.5,-237.51 189.5,-231.51 195.5,-225.51 201.5,-225.51"/>
<text text-anchor="middle" x="288.5" y="-333.96" font-family="Helvetica,sans-Serif" font-weight="bold" font-size="9.00">infrastructure</text>
</g>
<g id="clust10" class="cluster">
<title>cluster_src/infrastructure/adapters</title>
<path fill="#ffffff" stroke="black" stroke-width="2" d="M209.5,-233.51C209.5,-233.51 367.5,-233.51 367.5,-233.51 373.5,-233.51 379.5,-239.51 379.5,-245.51 379.5,-245.51 379.5,-307.51 379.5,-307.51 379.5,-313.51 373.5,-319.51 367.5,-319.51 367.5,-319.51 209.5,-319.51 209.5,-319.51 203.5,-319.51 197.5,-313.51 197.5,-307.51 197.5,-307.51 197.5,-245.51 197.5,-245.51 197.5,-239.51 203.5,-233.51 209.5,-233.51"/>
<text text-anchor="middle" x="288.5" y="-306.96" font-family="Helvetica,sans-Serif" font-weight="bold" font-size="9.00">adapters</text>
</g>
<!-- src/application/ports/IVideoStorage.ts -->
<g id="node1" class="node">
<title>src/application/ports/IVideoStorage.ts</title>
<g id="a_node1"><a xlink:href="src/application/ports/IVideoStorage.ts" xlink:title="IVideoStorage.ts">
<path fill="#ddfeff" stroke="black" d="M480.58,-163.14C480.58,-163.14 409.92,-163.14 409.92,-163.14 406.71,-163.14 403.5,-159.93 403.5,-156.72 403.5,-156.72 403.5,-150.31 403.5,-150.31 403.5,-147.1 406.71,-143.89 409.92,-143.89 409.92,-143.89 480.58,-143.89 480.58,-143.89 483.79,-143.89 487,-147.1 487,-150.31 487,-150.31 487,-156.72 487,-156.72 487,-159.93 483.79,-163.14 480.58,-163.14"/>
<text text-anchor="start" x="411.5" y="-150.59" font-family="Helvetica,sans-Serif" font-size="9.00">IVideoStorage.ts</text>
</a>
</g>
</g>
<!-- src/domain/entities/index.ts -->
<g id="node2" class="node">
<title>src/domain/entities/index.ts</title>
<g id="a_node2"><a xlink:href="src/domain/entities/index.ts" xlink:title="index.ts">
<path fill="#ddfeff" stroke="black" d="M574.58,-136.14C574.58,-136.14 533.42,-136.14 533.42,-136.14 530.21,-136.14 527,-132.93 527,-129.72 527,-129.72 527,-123.31 527,-123.31 527,-120.1 530.21,-116.89 533.42,-116.89 533.42,-116.89 574.58,-116.89 574.58,-116.89 577.79,-116.89 581,-120.1 581,-123.31 581,-123.31 581,-129.72 581,-129.72 581,-132.93 577.79,-136.14 574.58,-136.14"/>
<text text-anchor="start" x="538.25" y="-123.59" font-family="Helvetica,sans-Serif" font-size="9.00">index.ts</text>
</a>
</g>
</g>
<!-- src/application/ports/IVideoStorage.ts&#45;&gt;src/domain/entities/index.ts -->
<g id="edge1" class="edge">
<title>src/application/ports/IVideoStorage.ts&#45;&gt;src/domain/entities/index.ts</title>
<path fill="none" stroke="#000000" stroke-opacity="0.200000" d="M486,-143.46C496.98,-140.68 508.79,-137.7 519.38,-135.02"/>
<polygon fill="none" stroke="#000000" stroke-opacity="0.200000" points="519.73,-137.09 525.03,-133.59 518.7,-133.02 519.73,-137.09"/>
</g>
<!-- src/application/services/index.ts -->
<g id="node3" class="node">
<title>src/application/services/index.ts</title>
<g id="a_node3"><a xlink:href="src/application/services/index.ts" xlink:title="index.ts">
<path fill="#ddfeff" stroke="black" d="M309.08,-69.14C309.08,-69.14 267.92,-69.14 267.92,-69.14 264.71,-69.14 261.5,-65.93 261.5,-62.72 261.5,-62.72 261.5,-56.31 261.5,-56.31 261.5,-53.1 264.71,-49.89 267.92,-49.89 267.92,-49.89 309.08,-49.89 309.08,-49.89 312.29,-49.89 315.5,-53.1 315.5,-56.31 315.5,-56.31 315.5,-62.72 315.5,-62.72 315.5,-65.93 312.29,-69.14 309.08,-69.14"/>
<text text-anchor="start" x="272.75" y="-56.59" font-family="Helvetica,sans-Serif" font-size="9.00">index.ts</text>
</a>
</g>
</g>
<!-- src/application/stores/index.ts -->
<g id="node4" class="node">
<title>src/application/stores/index.ts</title>
<g id="a_node4"><a xlink:href="src/application/stores/index.ts" xlink:title="index.ts">
<path fill="#ddfeff" stroke="black" d="M79.58,-132.14C79.58,-132.14 38.42,-132.14 38.42,-132.14 35.21,-132.14 32,-128.93 32,-125.72 32,-125.72 32,-119.31 32,-119.31 32,-116.1 35.21,-112.89 38.42,-112.89 38.42,-112.89 79.58,-112.89 79.58,-112.89 82.79,-112.89 86,-116.1 86,-119.31 86,-119.31 86,-125.72 86,-125.72 86,-128.93 82.79,-132.14 79.58,-132.14"/>
<text text-anchor="start" x="43.25" y="-119.59" font-family="Helvetica,sans-Serif" font-size="9.00">index.ts</text>
</a>
</g>
</g>
<!-- src/application/stores/videosStore.ts -->
<g id="node5" class="node">
<title>src/application/stores/videosStore.ts</title>
<g id="a_node5"><a xlink:href="src/application/stores/videosStore.ts" xlink:title="videosStore.ts">
<path fill="#ddfeff" stroke="black" d="M167.08,-132.14C167.08,-132.14 105.42,-132.14 105.42,-132.14 102.21,-132.14 99,-128.93 99,-125.72 99,-125.72 99,-119.31 99,-119.31 99,-116.1 102.21,-112.89 105.42,-112.89 105.42,-112.89 167.08,-112.89 167.08,-112.89 170.29,-112.89 173.5,-116.1 173.5,-119.31 173.5,-119.31 173.5,-125.72 173.5,-125.72 173.5,-128.93 170.29,-132.14 167.08,-132.14"/>
<text text-anchor="start" x="107" y="-119.59" font-family="Helvetica,sans-Serif" font-size="9.00">videosStore.ts</text>
</a>
</g>
</g>
<!-- src/application/stores/index.ts&#45;&gt;src/application/stores/videosStore.ts -->
<g id="edge2" class="edge">
<title>src/application/stores/index.ts&#45;&gt;src/application/stores/videosStore.ts</title>
<path fill="none" stroke="#000000" stroke-width="2" stroke-opacity="0.200000" d="M86.32,-122.51C90.3,-122.51 94.47,-122.51 98.63,-122.51"/>
<polygon fill="#000000" fill-opacity="0.200000" stroke="#000000" stroke-width="2" stroke-opacity="0.200000" points="101.43,-121.12 105.33,-129.22 97.23,-125.32 101.43,-121.12"/>
</g>
<!-- src/application/stores/videosStore.ts&#45;&gt;src/application/ports/IVideoStorage.ts -->
<g id="edge3" class="edge">
<title>src/application/stores/videosStore.ts&#45;&gt;src/application/ports/IVideoStorage.ts</title>
<path fill="none" stroke="#000000" stroke-opacity="0.200000" d="M140.01,-112.39C145.7,-93.77 160.68,-54.53 189.5,-38.51 208.73,-27.83 368.82,-26.9 387.5,-38.51 422.26,-60.12 436.36,-110.01 441.55,-136.41"/>
<polygon fill="none" stroke="#000000" stroke-opacity="0.200000" points="439.43,-136.47 442.57,-142 443.56,-135.72 439.43,-136.47"/>
</g>
<!-- src/application/stores/videosStore.ts&#45;&gt;src/domain/entities/index.ts -->
<g id="edge7" class="edge">
<title>src/application/stores/videosStore.ts&#45;&gt;src/domain/entities/index.ts</title>
<path fill="none" stroke="#000000" stroke-opacity="0.200000" d="M139.18,-112.61C143.75,-92.17 157.36,-45.61 189.5,-26.51 265.15,18.44 302.73,-2.89 387.5,-26.51 447.58,-43.26 507.62,-88.37 536.04,-111.85"/>
<polygon fill="none" stroke="#000000" stroke-opacity="0.200000" points="534.5,-113.3 540.45,-115.54 537.2,-110.08 534.5,-113.3"/>
</g>
<!-- src/application/stores/videosStore.ts&#45;&gt;src/application/services/index.ts -->
<g id="edge4" class="edge">
<title>src/application/stores/videosStore.ts&#45;&gt;src/application/services/index.ts</title>
<path fill="none" stroke="#000000" stroke-width="2" stroke-opacity="0.200000" d="M161.39,-112.39C186.8,-101.74 226.94,-84.91 255.1,-73.1"/>
<polygon fill="#000000" fill-opacity="0.200000" stroke="#000000" stroke-width="2" stroke-opacity="0.200000" points="255.91,-75.04 260.63,-70.78 254.28,-71.16 255.91,-75.04"/>
</g>
<!-- src/application/usecases/AddVideosFromFilesUseCase.ts -->
<g id="node6" class="node">
<title>src/application/usecases/AddVideosFromFilesUseCase.ts</title>
<g id="a_node6"><a xlink:href="src/application/usecases/AddVideosFromFilesUseCase.ts" xlink:title="AddVideosFromFilesUseCase.ts">
<path fill="#ddfeff" stroke="black" d="M357.96,-132.14C357.96,-132.14 219.04,-132.14 219.04,-132.14 215.83,-132.14 212.62,-128.93 212.62,-125.72 212.62,-125.72 212.62,-119.31 212.62,-119.31 212.62,-116.1 215.83,-112.89 219.04,-112.89 219.04,-112.89 357.96,-112.89 357.96,-112.89 361.17,-112.89 364.38,-116.1 364.38,-119.31 364.38,-119.31 364.38,-125.72 364.38,-125.72 364.38,-128.93 361.17,-132.14 357.96,-132.14"/>
<text text-anchor="start" x="220.62" y="-119.59" font-family="Helvetica,sans-Serif" font-size="9.00">AddVideosFromFilesUseCase.ts</text>
</a>
</g>
</g>
<!-- src/application/stores/videosStore.ts&#45;&gt;src/application/usecases/AddVideosFromFilesUseCase.ts -->
<g id="edge5" class="edge">
<title>src/application/stores/videosStore.ts&#45;&gt;src/application/usecases/AddVideosFromFilesUseCase.ts</title>
<path fill="none" stroke="#000000" stroke-width="2" stroke-opacity="0.200000" d="M173.62,-122.51C182.78,-122.51 193,-122.51 203.45,-122.51"/>
<polygon fill="#000000" fill-opacity="0.200000" stroke="#000000" stroke-width="2" stroke-opacity="0.200000" points="203.24,-124.61 209.24,-122.51 203.24,-120.41 203.24,-124.61"/>
</g>
<!-- src/application/usecases/UpdateVideoThumbnailsUseCase.ts -->
<g id="node7" class="node">
<title>src/application/usecases/UpdateVideoThumbnailsUseCase.ts</title>
<g id="a_node7"><a xlink:href="src/application/usecases/UpdateVideoThumbnailsUseCase.ts" xlink:title="UpdateVideoThumbnailsUseCase.ts">
<path fill="#ddfeff" stroke="black" d="M366.21,-163.14C366.21,-163.14 210.79,-163.14 210.79,-163.14 207.58,-163.14 204.38,-159.93 204.38,-156.72 204.38,-156.72 204.38,-150.31 204.38,-150.31 204.38,-147.1 207.58,-143.89 210.79,-143.89 210.79,-143.89 366.21,-143.89 366.21,-143.89 369.42,-143.89 372.62,-147.1 372.62,-150.31 372.62,-150.31 372.62,-156.72 372.62,-156.72 372.62,-159.93 369.42,-163.14 366.21,-163.14"/>
<text text-anchor="start" x="212.38" y="-150.59" font-family="Helvetica,sans-Serif" font-size="9.00">UpdateVideoThumbnailsUseCase.ts</text>
</a>
</g>
</g>
<!-- src/application/stores/videosStore.ts&#45;&gt;src/application/usecases/UpdateVideoThumbnailsUseCase.ts -->
<g id="edge6" class="edge">
<title>src/application/stores/videosStore.ts&#45;&gt;src/application/usecases/UpdateVideoThumbnailsUseCase.ts</title>
<path fill="none" stroke="#000000" stroke-width="2" stroke-opacity="0.200000" d="M167.44,-132.57C174.62,-134.74 182.29,-136.87 189.5,-138.51 194.5,-139.66 199.66,-140.73 204.88,-141.75"/>
<polygon fill="#000000" fill-opacity="0.200000" stroke="#000000" stroke-width="2" stroke-opacity="0.200000" points="204.44,-143.8 210.73,-142.84 205.21,-139.68 204.44,-143.8"/>
</g>
<!-- src/infrastructure/adapters/VideoStorageAdapter.ts -->
<g id="node8" class="node">
<title>src/infrastructure/adapters/VideoStorageAdapter.ts</title>
<g id="a_node8"><a xlink:href="src/infrastructure/adapters/VideoStorageAdapter.ts" xlink:title="VideoStorageAdapter.ts">
<path fill="#ddfeff" stroke="black" d="M338.46,-292.14C338.46,-292.14 238.54,-292.14 238.54,-292.14 235.33,-292.14 232.12,-288.93 232.12,-285.72 232.12,-285.72 232.12,-279.31 232.12,-279.31 232.12,-276.1 235.33,-272.89 238.54,-272.89 238.54,-272.89 338.46,-272.89 338.46,-272.89 341.67,-272.89 344.88,-276.1 344.88,-279.31 344.88,-279.31 344.88,-285.72 344.88,-285.72 344.88,-288.93 341.67,-292.14 338.46,-292.14"/>
<text text-anchor="start" x="240.12" y="-279.59" font-family="Helvetica,sans-Serif" font-size="9.00">VideoStorageAdapter.ts</text>
</a>
</g>
</g>
<!-- src/application/stores/videosStore.ts&#45;&gt;src/infrastructure/adapters/VideoStorageAdapter.ts -->
<g id="edge8" class="edge">
<title>src/application/stores/videosStore.ts&#45;&gt;src/infrastructure/adapters/VideoStorageAdapter.ts</title>
<path fill="none" stroke="#000000" stroke-width="2" stroke-opacity="0.200000" d="M137.56,-132.55C138.96,-159.24 146.73,-232.32 189.5,-267.51 198.97,-275.3 210.75,-279.92 222.83,-282.52"/>
<polygon fill="#000000" fill-opacity="0.200000" stroke="#000000" stroke-width="2" stroke-opacity="0.200000" points="222.39,-284.58 228.67,-283.55 223.12,-280.44 222.39,-284.58"/>
</g>
<!-- src/infrastructure/adapters/VideoThumbnailGeneratorAdapter.ts -->
<g id="node9" class="node">
<title>src/infrastructure/adapters/VideoThumbnailGeneratorAdapter.ts</title>
<g id="a_node9"><a xlink:href="src/infrastructure/adapters/VideoThumbnailGeneratorAdapter.ts" xlink:title="VideoThumbnailGeneratorAdapter.ts">
<path fill="#ddfeff" stroke="black" d="M365.08,-261.14C365.08,-261.14 211.92,-261.14 211.92,-261.14 208.71,-261.14 205.5,-257.93 205.5,-254.72 205.5,-254.72 205.5,-248.31 205.5,-248.31 205.5,-245.1 208.71,-241.89 211.92,-241.89 211.92,-241.89 365.08,-241.89 365.08,-241.89 368.29,-241.89 371.5,-245.1 371.5,-248.31 371.5,-248.31 371.5,-254.72 371.5,-254.72 371.5,-257.93 368.29,-261.14 365.08,-261.14"/>
<text text-anchor="start" x="213.5" y="-248.59" font-family="Helvetica,sans-Serif" font-size="9.00">VideoThumbnailGeneratorAdapter.ts</text>
</a>
</g>
</g>
<!-- src/application/stores/videosStore.ts&#45;&gt;src/infrastructure/adapters/VideoThumbnailGeneratorAdapter.ts -->
<g id="edge9" class="edge">
<title>src/application/stores/videosStore.ts&#45;&gt;src/infrastructure/adapters/VideoThumbnailGeneratorAdapter.ts</title>
<path fill="none" stroke="#000000" stroke-width="2" stroke-opacity="0.200000" d="M142.65,-132.2C151.15,-146.83 168.84,-174.83 189.5,-193.51 209.73,-211.82 236.62,-227.24 257.12,-237.57"/>
<polygon fill="#000000" fill-opacity="0.200000" stroke="#000000" stroke-width="2" stroke-opacity="0.200000" points="256.17,-239.44 262.48,-240.21 258.02,-235.67 256.17,-239.44"/>
</g>
<!-- src/application/usecases/AddVideosFromFilesUseCase.ts&#45;&gt;src/domain/entities/index.ts -->
<g id="edge10" class="edge">
<title>src/application/usecases/AddVideosFromFilesUseCase.ts&#45;&gt;src/domain/entities/index.ts</title>
<path fill="none" stroke="#000000" stroke-opacity="0.200000" d="M364.62,-121.05C405.55,-120.62 457.07,-120.68 503,-122.51 508.26,-122.72 513.83,-123.06 519.27,-123.45"/>
<polygon fill="none" stroke="#000000" stroke-opacity="0.200000" points="518.9,-125.52 525.05,-123.89 519.22,-121.34 518.9,-125.52"/>
</g>
<!-- src/application/usecases/UpdateVideoThumbnailsUseCase.ts&#45;&gt;src/application/ports/IVideoStorage.ts -->
<g id="edge11" class="edge">
<title>src/application/usecases/UpdateVideoThumbnailsUseCase.ts&#45;&gt;src/application/ports/IVideoStorage.ts</title>
<path fill="none" stroke="#000000" stroke-opacity="0.200000" d="M372.76,-153.51C380.7,-153.51 388.56,-153.51 396,-153.51"/>
<polygon fill="none" stroke="#000000" stroke-opacity="0.200000" points="395.77,-155.61 401.77,-153.51 395.77,-151.41 395.77,-155.61"/>
</g>
<!-- src/application/usecases/UpdateVideoThumbnailsUseCase.ts&#45;&gt;src/domain/entities/index.ts -->
<g id="edge12" class="edge">
<title>src/application/usecases/UpdateVideoThumbnailsUseCase.ts&#45;&gt;src/domain/entities/index.ts</title>
<path fill="none" stroke="#000000" stroke-opacity="0.200000" d="M372.9,-143.68C377.91,-142.19 382.82,-140.48 387.5,-138.51 391.6,-136.79 391.31,-134 395.5,-132.51 417.53,-124.7 480.32,-124.64 519.64,-125.47"/>
<polygon fill="none" stroke="#000000" stroke-opacity="0.200000" points="519.13,-127.56 525.18,-125.6 519.23,-123.36 519.13,-127.56"/>
</g>
<!-- src/infrastructure/adapters/VideoStorageAdapter.ts&#45;&gt;src/application/ports/IVideoStorage.ts -->
<g id="edge13" class="edge">
<title>src/infrastructure/adapters/VideoStorageAdapter.ts&#45;&gt;src/application/ports/IVideoStorage.ts</title>
<path fill="none" stroke="#000000" stroke-opacity="0.200000" d="M345.3,-283.29C360.17,-281.13 375.43,-276.53 387.5,-267.51 394.19,-262.52 391.85,-258.02 395.5,-250.51 409.32,-222.11 425.94,-189.32 435.77,-170.07"/>
<polygon fill="none" stroke="#000000" stroke-opacity="0.200000" points="437.63,-171.03 438.49,-164.73 433.89,-169.12 437.63,-171.03"/>
</g>
<!-- src/infrastructure/adapters/VideoStorageAdapter.ts&#45;&gt;src/domain/entities/index.ts -->
<g id="edge14" class="edge">
<title>src/infrastructure/adapters/VideoStorageAdapter.ts&#45;&gt;src/domain/entities/index.ts</title>
<path fill="none" stroke="#000000" stroke-opacity="0.200000" d="M345.22,-278.09C359.31,-275.87 374.21,-272.53 387.5,-267.51 444.54,-245.99 458.38,-235.06 503,-193.51 519.4,-178.25 534.2,-157.03 543.37,-142.59"/>
<polygon fill="none" stroke="#000000" stroke-opacity="0.200000" points="544.98,-143.97 546.37,-137.77 541.42,-141.75 544.98,-143.97"/>
</g>
</g>
</svg>
