<?xml version="1.0" encoding="UTF-8" standalone="no"?>
<!DOCTYPE svg PUBLIC "-//W3C//DTD SVG 1.1//EN"
 "http://www.w3.org/Graphics/SVG/1.1/DTD/svg11.dtd">
<!-- Generated by graphviz version 9.0.0 (20230911.1827)
 -->
<!-- Title: dependency&#45;cruiser output Pages: 1 -->
<svg width="300pt" height="408pt"
 viewBox="0.00 0.00 299.50 408.00" xmlns="http://www.w3.org/2000/svg" xmlns:xlink="http://www.w3.org/1999/xlink">
<g id="graph0" class="graph" transform="scale(1 1) rotate(0) translate(4 404)">
<title>dependency&#45;cruiser output</title>
<polygon fill="white" stroke="none" points="-4,4 -4,-404 295.5,-404 295.5,4 -4,4"/>
<g id="clust1" class="cluster">
<title>cluster_src</title>
<path fill="#ffffff" stroke="black" stroke-width="2" d="M20,-8C20,-8 271.5,-8 271.5,-8 277.5,-8 283.5,-14 283.5,-20 283.5,-20 283.5,-380 283.5,-380 283.5,-386 277.5,-392 271.5,-392 271.5,-392 20,-392 20,-392 14,-392 8,-386 8,-380 8,-380 8,-20 8,-20 8,-14 14,-8 20,-8"/>
<text text-anchor="middle" x="145.75" y="-379.45" font-family="Helvetica,sans-Serif" font-weight="bold" font-size="9.00">src</text>
</g>
<g id="clust2" class="cluster">
<title>cluster_src/application</title>
<path fill="#ffffff" stroke="black" stroke-width="2" d="M28,-16C28,-16 263.5,-16 263.5,-16 269.5,-16 275.5,-22 275.5,-28 275.5,-28 275.5,-94 275.5,-94 275.5,-100 269.5,-106 263.5,-106 263.5,-106 28,-106 28,-106 22,-106 16,-100 16,-94 16,-94 16,-28 16,-28 16,-22 22,-16 28,-16"/>
<text text-anchor="middle" x="145.75" y="-93.45" font-family="Helvetica,sans-Serif" font-weight="bold" font-size="9.00">application</text>
</g>
<g id="clust3" class="cluster">
<title>cluster_src/application/services</title>
<path fill="#ffffff" stroke="black" stroke-width="2" d="M209.5,-24C209.5,-24 255.5,-24 255.5,-24 261.5,-24 267.5,-30 267.5,-36 267.5,-36 267.5,-67 267.5,-67 267.5,-73 261.5,-79 255.5,-79 255.5,-79 209.5,-79 209.5,-79 203.5,-79 197.5,-73 197.5,-67 197.5,-67 197.5,-36 197.5,-36 197.5,-30 203.5,-24 209.5,-24"/>
<text text-anchor="middle" x="232.5" y="-66.45" font-family="Helvetica,sans-Serif" font-weight="bold" font-size="9.00">services</text>
</g>
<g id="clust4" class="cluster">
<title>cluster_src/application/stores</title>
<path fill="#ffffff" stroke="black" stroke-width="2" d="M36,-24C36,-24 169.5,-24 169.5,-24 175.5,-24 181.5,-30 181.5,-36 181.5,-36 181.5,-67 181.5,-67 181.5,-73 175.5,-79 169.5,-79 169.5,-79 36,-79 36,-79 30,-79 24,-73 24,-67 24,-67 24,-36 24,-36 24,-30 30,-24 36,-24"/>
<text text-anchor="middle" x="102.75" y="-66.45" font-family="Helvetica,sans-Serif" font-weight="bold" font-size="9.00">stores</text>
</g>
<g id="clust5" class="cluster">
<title>cluster_src/domain</title>
<path fill="#ffffff" stroke="black" stroke-width="2" d="M201.5,-114C201.5,-114 263.5,-114 263.5,-114 269.5,-114 275.5,-120 275.5,-126 275.5,-126 275.5,-192 275.5,-192 275.5,-198 269.5,-204 263.5,-204 263.5,-204 201.5,-204 201.5,-204 195.5,-204 189.5,-198 189.5,-192 189.5,-192 189.5,-126 189.5,-126 189.5,-120 195.5,-114 201.5,-114"/>
<text text-anchor="middle" x="232.5" y="-191.45" font-family="Helvetica,sans-Serif" font-weight="bold" font-size="9.00">domain</text>
</g>
<g id="clust6" class="cluster">
<title>cluster_src/domain/entities</title>
<path fill="#ffffff" stroke="black" stroke-width="2" d="M209.5,-122C209.5,-122 255.5,-122 255.5,-122 261.5,-122 267.5,-128 267.5,-134 267.5,-134 267.5,-165 267.5,-165 267.5,-171 261.5,-177 255.5,-177 255.5,-177 209.5,-177 209.5,-177 203.5,-177 197.5,-171 197.5,-165 197.5,-165 197.5,-134 197.5,-134 197.5,-128 203.5,-122 209.5,-122"/>
<text text-anchor="middle" x="232.5" y="-164.45" font-family="Helvetica,sans-Serif" font-weight="bold" font-size="9.00">entities</text>
</g>
<g id="clust7" class="cluster">
<title>cluster_src/infrastructure</title>
<path fill="#ffffff" stroke="black" stroke-width="2" d="M201.5,-212C201.5,-212 263.5,-212 263.5,-212 269.5,-212 275.5,-218 275.5,-224 275.5,-224 275.5,-353 275.5,-353 275.5,-359 269.5,-365 263.5,-365 263.5,-365 201.5,-365 201.5,-365 195.5,-365 189.5,-359 189.5,-353 189.5,-353 189.5,-224 189.5,-224 189.5,-218 195.5,-212 201.5,-212"/>
<text text-anchor="middle" x="232.5" y="-352.45" font-family="Helvetica,sans-Serif" font-weight="bold" font-size="9.00">infrastructure</text>
</g>
<g id="clust8" class="cluster">
<title>cluster_src/infrastructure/services</title>
<path fill="#ffffff" stroke="black" stroke-width="2" d="M209.5,-283C209.5,-283 255.5,-283 255.5,-283 261.5,-283 267.5,-289 267.5,-295 267.5,-295 267.5,-326 267.5,-326 267.5,-332 261.5,-338 255.5,-338 255.5,-338 209.5,-338 209.5,-338 203.5,-338 197.5,-332 197.5,-326 197.5,-326 197.5,-295 197.5,-295 197.5,-289 203.5,-283 209.5,-283"/>
<text text-anchor="middle" x="232.5" y="-325.45" font-family="Helvetica,sans-Serif" font-weight="bold" font-size="9.00">services</text>
</g>
<g id="clust9" class="cluster">
<title>cluster_src/infrastructure/video</title>
<path fill="#ffffff" stroke="black" stroke-width="2" d="M209.5,-220C209.5,-220 255.5,-220 255.5,-220 261.5,-220 267.5,-226 267.5,-232 267.5,-232 267.5,-263 267.5,-263 267.5,-269 261.5,-275 255.5,-275 255.5,-275 209.5,-275 209.5,-275 203.5,-275 197.5,-269 197.5,-263 197.5,-263 197.5,-232 197.5,-232 197.5,-226 203.5,-220 209.5,-220"/>
<text text-anchor="middle" x="232.5" y="-262.45" font-family="Helvetica,sans-Serif" font-weight="bold" font-size="9.00">video</text>
</g>
<!-- src/application/services/index.ts -->
<g id="node1" class="node">
<title>src/application/services/index.ts</title>
<g id="a_node1"><a xlink:href="src/application/services/index.ts" xlink:title="index.ts">
<path fill="#ddfeff" stroke="black" d="M253.08,-51.62C253.08,-51.62 211.92,-51.62 211.92,-51.62 208.71,-51.62 205.5,-48.42 205.5,-45.21 205.5,-45.21 205.5,-38.79 205.5,-38.79 205.5,-35.58 208.71,-32.38 211.92,-32.38 211.92,-32.38 253.08,-32.38 253.08,-32.38 256.29,-32.38 259.5,-35.58 259.5,-38.79 259.5,-38.79 259.5,-45.21 259.5,-45.21 259.5,-48.42 256.29,-51.62 253.08,-51.62"/>
<text text-anchor="start" x="216.75" y="-39.08" font-family="Helvetica,sans-Serif" font-size="9.00">index.ts</text>
</a>
</g>
</g>
<!-- src/application/stores/index.ts -->
<g id="node2" class="node">
<title>src/application/stores/index.ts</title>
<g id="a_node2"><a xlink:href="src/application/stores/index.ts" xlink:title="index.ts">
<path fill="#ddfeff" stroke="black" d="M79.58,-51.62C79.58,-51.62 38.42,-51.62 38.42,-51.62 35.21,-51.62 32,-48.42 32,-45.21 32,-45.21 32,-38.79 32,-38.79 32,-35.58 35.21,-32.38 38.42,-32.38 38.42,-32.38 79.58,-32.38 79.58,-32.38 82.79,-32.38 86,-35.58 86,-38.79 86,-38.79 86,-45.21 86,-45.21 86,-48.42 82.79,-51.62 79.58,-51.62"/>
<text text-anchor="start" x="43.25" y="-39.08" font-family="Helvetica,sans-Serif" font-size="9.00">index.ts</text>
</a>
</g>
</g>
<!-- src/application/stores/videosStore.ts -->
<g id="node3" class="node">
<title>src/application/stores/videosStore.ts</title>
<g id="a_node3"><a xlink:href="src/application/stores/videosStore.ts" xlink:title="videosStore.ts">
<path fill="#ddfeff" stroke="black" d="M167.08,-51.62C167.08,-51.62 105.42,-51.62 105.42,-51.62 102.21,-51.62 99,-48.42 99,-45.21 99,-45.21 99,-38.79 99,-38.79 99,-35.58 102.21,-32.38 105.42,-32.38 105.42,-32.38 167.08,-32.38 167.08,-32.38 170.29,-32.38 173.5,-35.58 173.5,-38.79 173.5,-38.79 173.5,-45.21 173.5,-45.21 173.5,-48.42 170.29,-51.62 167.08,-51.62"/>
<text text-anchor="start" x="107" y="-39.08" font-family="Helvetica,sans-Serif" font-size="9.00">videosStore.ts</text>
</a>
</g>
</g>
<!-- src/application/stores/index.ts&#45;&gt;src/application/stores/videosStore.ts -->
<g id="edge1" class="edge">
<title>src/application/stores/index.ts&#45;&gt;src/application/stores/videosStore.ts</title>
<path fill="none" stroke="#000000" stroke-width="2" stroke-opacity="0.200000" d="M86.32,-42C90.3,-42 94.47,-42 98.63,-42"/>
<polygon fill="#000000" fill-opacity="0.200000" stroke="#000000" stroke-width="2" stroke-opacity="0.200000" points="101.43,-40.61 105.33,-48.71 97.23,-44.81 101.43,-40.61"/>
</g>
<!-- src/application/stores/videosStore.ts&#45;&gt;src/application/services/index.ts -->
<g id="edge2" class="edge">
<title>src/application/stores/videosStore.ts&#45;&gt;src/application/services/index.ts</title>
<path fill="none" stroke="#000000" stroke-width="2" stroke-opacity="0.200000" d="M173.96,-42C181.3,-42 189,-42 196.29,-42"/>
<polygon fill="#000000" fill-opacity="0.200000" stroke="#000000" stroke-width="2" stroke-opacity="0.200000" points="196.22,-44.1 202.22,-42 196.22,-39.9 196.22,-44.1"/>
</g>
<!-- src/domain/entities/index.ts -->
<g id="node4" class="node">
<title>src/domain/entities/index.ts</title>
<g id="a_node4"><a xlink:href="src/domain/entities/index.ts" xlink:title="index.ts">
<path fill="#ddfeff" stroke="black" d="M253.08,-149.62C253.08,-149.62 211.92,-149.62 211.92,-149.62 208.71,-149.62 205.5,-146.42 205.5,-143.21 205.5,-143.21 205.5,-136.79 205.5,-136.79 205.5,-133.58 208.71,-130.38 211.92,-130.38 211.92,-130.38 253.08,-130.38 253.08,-130.38 256.29,-130.38 259.5,-133.58 259.5,-136.79 259.5,-136.79 259.5,-143.21 259.5,-143.21 259.5,-146.42 256.29,-149.62 253.08,-149.62"/>
<text text-anchor="start" x="216.75" y="-137.07" font-family="Helvetica,sans-Serif" font-size="9.00">index.ts</text>
</a>
</g>
</g>
<!-- src/application/stores/videosStore.ts&#45;&gt;src/domain/entities/index.ts -->
<g id="edge3" class="edge">
<title>src/application/stores/videosStore.ts&#45;&gt;src/domain/entities/index.ts</title>
<path fill="none" stroke="#000000" stroke-opacity="0.200000" d="M146.98,-52.12C163.58,-69.37 197.44,-104.58 216.88,-124.8"/>
<polygon fill="none" stroke="#000000" stroke-opacity="0.200000" points="215.24,-126.12 220.91,-128.99 218.27,-123.21 215.24,-126.12"/>
</g>
<!-- src/infrastructure/services/index.ts -->
<g id="node5" class="node">
<title>src/infrastructure/services/index.ts</title>
<g id="a_node5"><a xlink:href="src/infrastructure/services/index.ts" xlink:title="index.ts">
<path fill="#ddfeff" stroke="black" d="M253.08,-310.62C253.08,-310.62 211.92,-310.62 211.92,-310.62 208.71,-310.62 205.5,-307.42 205.5,-304.21 205.5,-304.21 205.5,-297.79 205.5,-297.79 205.5,-294.58 208.71,-291.38 211.92,-291.38 211.92,-291.38 253.08,-291.38 253.08,-291.38 256.29,-291.38 259.5,-294.58 259.5,-297.79 259.5,-297.79 259.5,-304.21 259.5,-304.21 259.5,-307.42 256.29,-310.62 253.08,-310.62"/>
<text text-anchor="start" x="216.75" y="-298.07" font-family="Helvetica,sans-Serif" font-size="9.00">index.ts</text>
</a>
</g>
</g>
<!-- src/application/stores/videosStore.ts&#45;&gt;src/infrastructure/services/index.ts -->
<g id="edge4" class="edge">
<title>src/application/stores/videosStore.ts&#45;&gt;src/infrastructure/services/index.ts</title>
<path fill="none" stroke="#000000" stroke-width="2" stroke-opacity="0.200000" d="M136.71,-51.69C135.3,-86.24 134.84,-205.17 189.5,-278 191.87,-281.15 194.8,-283.93 198,-286.35"/>
<polygon fill="#000000" fill-opacity="0.200000" stroke="#000000" stroke-width="2" stroke-opacity="0.200000" points="196.63,-287.96 202.8,-289.47 198.91,-284.44 196.63,-287.96"/>
</g>
<!-- src/infrastructure/video/index.ts -->
<g id="node6" class="node">
<title>src/infrastructure/video/index.ts</title>
<g id="a_node6"><a xlink:href="src/infrastructure/video/index.ts" xlink:title="index.ts">
<path fill="#ddfeff" stroke="black" d="M253.08,-247.62C253.08,-247.62 211.92,-247.62 211.92,-247.62 208.71,-247.62 205.5,-244.42 205.5,-241.21 205.5,-241.21 205.5,-234.79 205.5,-234.79 205.5,-231.58 208.71,-228.38 211.92,-228.38 211.92,-228.38 253.08,-228.38 253.08,-228.38 256.29,-228.38 259.5,-231.58 259.5,-234.79 259.5,-234.79 259.5,-241.21 259.5,-241.21 259.5,-244.42 256.29,-247.62 253.08,-247.62"/>
<text text-anchor="start" x="216.75" y="-235.07" font-family="Helvetica,sans-Serif" font-size="9.00">index.ts</text>
</a>
</g>
</g>
<!-- src/application/stores/videosStore.ts&#45;&gt;src/infrastructure/video/index.ts -->
<g id="edge5" class="edge">
<title>src/application/stores/videosStore.ts&#45;&gt;src/infrastructure/video/index.ts</title>
<path fill="none" stroke="#000000" stroke-width="2" stroke-opacity="0.200000" d="M140.07,-52.1C146.79,-75.45 165.07,-134.67 189.5,-180 197.53,-194.9 208.9,-210.36 217.79,-221.57"/>
<polygon fill="#000000" fill-opacity="0.200000" stroke="#000000" stroke-width="2" stroke-opacity="0.200000" points="215.9,-222.57 221.3,-225.92 219.16,-219.93 215.9,-222.57"/>
</g>
</g>
</svg>
