<?xml version="1.0" encoding="UTF-8" standalone="no"?>
<!DOCTYPE svg PUBLIC "-//W3C//DTD SVG 1.1//EN"
 "http://www.w3.org/Graphics/SVG/1.1/DTD/svg11.dtd">
<!-- Generated by graphviz version 9.0.0 (20230911.1827)
 -->
<!-- Title: dependency&#45;cruiser output Pages: 1 -->
<svg width="300pt" height="408pt"
 viewBox="0.00 0.00 299.50 408.00" xmlns="http://www.w3.org/2000/svg" xmlns:xlink="http://www.w3.org/1999/xlink">
<g id="graph0" class="graph" transform="scale(1 1) rotate(0) translate(4 404)">
<title>dependency&#45;cruiser output</title>
<polygon fill="white" stroke="none" points="-4,4 -4,-404 295.5,-404 295.5,4 -4,4"/>
<g id="clust1" class="cluster">
<title>cluster_src</title>
<path fill="#ffffff" stroke="black" stroke-width="2" d="M20,-8C20,-8 271.5,-8 271.5,-8 277.5,-8 283.5,-14 283.5,-20 283.5,-20 283.5,-380 283.5,-380 283.5,-386 277.5,-392 271.5,-392 271.5,-392 20,-392 20,-392 14,-392 8,-386 8,-380 8,-380 8,-20 8,-20 8,-14 14,-8 20,-8"/>
<text text-anchor="middle" x="145.75" y="-379.45" font-family="Helvetica,sans-Serif" font-weight="bold" font-size="9.00">src</text>
</g>
<g id="clust2" class="cluster">
<title>cluster_src/application</title>
<path fill="#ffffff" stroke="black" stroke-width="2" d="M28,-16C28,-16 263.5,-16 263.5,-16 269.5,-16 275.5,-22 275.5,-28 275.5,-28 275.5,-157 275.5,-157 275.5,-163 269.5,-169 263.5,-169 263.5,-169 28,-169 28,-169 22,-169 16,-163 16,-157 16,-157 16,-28 16,-28 16,-22 22,-16 28,-16"/>
<text text-anchor="middle" x="145.75" y="-156.45" font-family="Helvetica,sans-Serif" font-weight="bold" font-size="9.00">application</text>
</g>
<g id="clust3" class="cluster">
<title>cluster_src/application/services</title>
<path fill="#ffffff" stroke="black" stroke-width="2" d="M209.5,-24C209.5,-24 255.5,-24 255.5,-24 261.5,-24 267.5,-30 267.5,-36 267.5,-36 267.5,-67 267.5,-67 267.5,-73 261.5,-79 255.5,-79 255.5,-79 209.5,-79 209.5,-79 203.5,-79 197.5,-73 197.5,-67 197.5,-67 197.5,-36 197.5,-36 197.5,-30 203.5,-24 209.5,-24"/>
<text text-anchor="middle" x="232.5" y="-66.45" font-family="Helvetica,sans-Serif" font-weight="bold" font-size="9.00">services</text>
</g>
<g id="clust5" class="cluster">
<title>cluster_src/application/usecases</title>
<path fill="#ffffff" stroke="black" stroke-width="2" d="M209.5,-87C209.5,-87 255.5,-87 255.5,-87 261.5,-87 267.5,-93 267.5,-99 267.5,-99 267.5,-130 267.5,-130 267.5,-136 261.5,-142 255.5,-142 255.5,-142 209.5,-142 209.5,-142 203.5,-142 197.5,-136 197.5,-130 197.5,-130 197.5,-99 197.5,-99 197.5,-93 203.5,-87 209.5,-87"/>
<text text-anchor="middle" x="232.5" y="-129.45" font-family="Helvetica,sans-Serif" font-weight="bold" font-size="9.00">usecases</text>
</g>
<g id="clust4" class="cluster">
<title>cluster_src/application/stores</title>
<path fill="#ffffff" stroke="black" stroke-width="2" d="M36,-87C36,-87 169.5,-87 169.5,-87 175.5,-87 181.5,-93 181.5,-99 181.5,-99 181.5,-130 181.5,-130 181.5,-136 175.5,-142 169.5,-142 169.5,-142 36,-142 36,-142 30,-142 24,-136 24,-130 24,-130 24,-99 24,-99 24,-93 30,-87 36,-87"/>
<text text-anchor="middle" x="102.75" y="-129.45" font-family="Helvetica,sans-Serif" font-weight="bold" font-size="9.00">stores</text>
</g>
<g id="clust6" class="cluster">
<title>cluster_src/domain</title>
<path fill="#ffffff" stroke="black" stroke-width="2" d="M201.5,-177C201.5,-177 263.5,-177 263.5,-177 269.5,-177 275.5,-183 275.5,-189 275.5,-189 275.5,-255 275.5,-255 275.5,-261 269.5,-267 263.5,-267 263.5,-267 201.5,-267 201.5,-267 195.5,-267 189.5,-261 189.5,-255 189.5,-255 189.5,-189 189.5,-189 189.5,-183 195.5,-177 201.5,-177"/>
<text text-anchor="middle" x="232.5" y="-254.45" font-family="Helvetica,sans-Serif" font-weight="bold" font-size="9.00">domain</text>
</g>
<g id="clust7" class="cluster">
<title>cluster_src/domain/entities</title>
<path fill="#ffffff" stroke="black" stroke-width="2" d="M209.5,-185C209.5,-185 255.5,-185 255.5,-185 261.5,-185 267.5,-191 267.5,-197 267.5,-197 267.5,-228 267.5,-228 267.5,-234 261.5,-240 255.5,-240 255.5,-240 209.5,-240 209.5,-240 203.5,-240 197.5,-234 197.5,-228 197.5,-228 197.5,-197 197.5,-197 197.5,-191 203.5,-185 209.5,-185"/>
<text text-anchor="middle" x="232.5" y="-227.45" font-family="Helvetica,sans-Serif" font-weight="bold" font-size="9.00">entities</text>
</g>
<g id="clust8" class="cluster">
<title>cluster_src/infrastructure</title>
<path fill="#ffffff" stroke="black" stroke-width="2" d="M201.5,-275C201.5,-275 263.5,-275 263.5,-275 269.5,-275 275.5,-281 275.5,-287 275.5,-287 275.5,-353 275.5,-353 275.5,-359 269.5,-365 263.5,-365 263.5,-365 201.5,-365 201.5,-365 195.5,-365 189.5,-359 189.5,-353 189.5,-353 189.5,-287 189.5,-287 189.5,-281 195.5,-275 201.5,-275"/>
<text text-anchor="middle" x="232.5" y="-352.45" font-family="Helvetica,sans-Serif" font-weight="bold" font-size="9.00">infrastructure</text>
</g>
<g id="clust9" class="cluster">
<title>cluster_src/infrastructure/adapters</title>
<path fill="#ffffff" stroke="black" stroke-width="2" d="M209.5,-283C209.5,-283 255.5,-283 255.5,-283 261.5,-283 267.5,-289 267.5,-295 267.5,-295 267.5,-326 267.5,-326 267.5,-332 261.5,-338 255.5,-338 255.5,-338 209.5,-338 209.5,-338 203.5,-338 197.5,-332 197.5,-326 197.5,-326 197.5,-295 197.5,-295 197.5,-289 203.5,-283 209.5,-283"/>
<text text-anchor="middle" x="232.5" y="-325.45" font-family="Helvetica,sans-Serif" font-weight="bold" font-size="9.00">adapters</text>
</g>
<!-- src/application/services/index.ts -->
<g id="node1" class="node">
<title>src/application/services/index.ts</title>
<g id="a_node1"><a xlink:href="src/application/services/index.ts" xlink:title="index.ts">
<path fill="#ddfeff" stroke="black" d="M253.08,-51.62C253.08,-51.62 211.92,-51.62 211.92,-51.62 208.71,-51.62 205.5,-48.42 205.5,-45.21 205.5,-45.21 205.5,-38.79 205.5,-38.79 205.5,-35.58 208.71,-32.38 211.92,-32.38 211.92,-32.38 253.08,-32.38 253.08,-32.38 256.29,-32.38 259.5,-35.58 259.5,-38.79 259.5,-38.79 259.5,-45.21 259.5,-45.21 259.5,-48.42 256.29,-51.62 253.08,-51.62"/>
<text text-anchor="start" x="216.75" y="-39.08" font-family="Helvetica,sans-Serif" font-size="9.00">index.ts</text>
</a>
</g>
</g>
<!-- src/application/stores/index.ts -->
<g id="node2" class="node">
<title>src/application/stores/index.ts</title>
<g id="a_node2"><a xlink:href="src/application/stores/index.ts" xlink:title="index.ts">
<path fill="#ddfeff" stroke="black" d="M79.58,-114.62C79.58,-114.62 38.42,-114.62 38.42,-114.62 35.21,-114.62 32,-111.42 32,-108.21 32,-108.21 32,-101.79 32,-101.79 32,-98.58 35.21,-95.38 38.42,-95.38 38.42,-95.38 79.58,-95.38 79.58,-95.38 82.79,-95.38 86,-98.58 86,-101.79 86,-101.79 86,-108.21 86,-108.21 86,-111.42 82.79,-114.62 79.58,-114.62"/>
<text text-anchor="start" x="43.25" y="-102.08" font-family="Helvetica,sans-Serif" font-size="9.00">index.ts</text>
</a>
</g>
</g>
<!-- src/application/stores/videosStore.ts -->
<g id="node3" class="node">
<title>src/application/stores/videosStore.ts</title>
<g id="a_node3"><a xlink:href="src/application/stores/videosStore.ts" xlink:title="videosStore.ts">
<path fill="#ddfeff" stroke="black" d="M167.08,-114.62C167.08,-114.62 105.42,-114.62 105.42,-114.62 102.21,-114.62 99,-111.42 99,-108.21 99,-108.21 99,-101.79 99,-101.79 99,-98.58 102.21,-95.38 105.42,-95.38 105.42,-95.38 167.08,-95.38 167.08,-95.38 170.29,-95.38 173.5,-98.58 173.5,-101.79 173.5,-101.79 173.5,-108.21 173.5,-108.21 173.5,-111.42 170.29,-114.62 167.08,-114.62"/>
<text text-anchor="start" x="107" y="-102.08" font-family="Helvetica,sans-Serif" font-size="9.00">videosStore.ts</text>
</a>
</g>
</g>
<!-- src/application/stores/index.ts&#45;&gt;src/application/stores/videosStore.ts -->
<g id="edge1" class="edge">
<title>src/application/stores/index.ts&#45;&gt;src/application/stores/videosStore.ts</title>
<path fill="none" stroke="#000000" stroke-width="2" stroke-opacity="0.200000" d="M86.32,-105C90.3,-105 94.47,-105 98.63,-105"/>
<polygon fill="#000000" fill-opacity="0.200000" stroke="#000000" stroke-width="2" stroke-opacity="0.200000" points="101.43,-103.61 105.33,-111.71 97.23,-107.81 101.43,-103.61"/>
</g>
<!-- src/application/stores/videosStore.ts&#45;&gt;src/application/services/index.ts -->
<g id="edge2" class="edge">
<title>src/application/stores/videosStore.ts&#45;&gt;src/application/services/index.ts</title>
<path fill="none" stroke="#000000" stroke-width="2" stroke-opacity="0.200000" d="M152.39,-94.88C167.78,-84.59 191.79,-68.54 209.32,-56.83"/>
<polygon fill="#000000" fill-opacity="0.200000" stroke="#000000" stroke-width="2" stroke-opacity="0.200000" points="210.06,-58.86 213.88,-53.78 207.72,-55.37 210.06,-58.86"/>
</g>
<!-- src/application/usecases/index.ts -->
<g id="node4" class="node">
<title>src/application/usecases/index.ts</title>
<g id="a_node4"><a xlink:href="src/application/usecases/index.ts" xlink:title="index.ts">
<path fill="#ddfeff" stroke="black" d="M253.08,-114.62C253.08,-114.62 211.92,-114.62 211.92,-114.62 208.71,-114.62 205.5,-111.42 205.5,-108.21 205.5,-108.21 205.5,-101.79 205.5,-101.79 205.5,-98.58 208.71,-95.38 211.92,-95.38 211.92,-95.38 253.08,-95.38 253.08,-95.38 256.29,-95.38 259.5,-98.58 259.5,-101.79 259.5,-101.79 259.5,-108.21 259.5,-108.21 259.5,-111.42 256.29,-114.62 253.08,-114.62"/>
<text text-anchor="start" x="216.75" y="-102.08" font-family="Helvetica,sans-Serif" font-size="9.00">index.ts</text>
</a>
</g>
</g>
<!-- src/application/stores/videosStore.ts&#45;&gt;src/application/usecases/index.ts -->
<g id="edge3" class="edge">
<title>src/application/stores/videosStore.ts&#45;&gt;src/application/usecases/index.ts</title>
<path fill="none" stroke="#000000" stroke-width="2" stroke-opacity="0.200000" d="M173.96,-105C181.3,-105 189,-105 196.29,-105"/>
<polygon fill="#000000" fill-opacity="0.200000" stroke="#000000" stroke-width="2" stroke-opacity="0.200000" points="196.22,-107.1 202.22,-105 196.22,-102.9 196.22,-107.1"/>
</g>
<!-- src/domain/entities/index.ts -->
<g id="node5" class="node">
<title>src/domain/entities/index.ts</title>
<g id="a_node5"><a xlink:href="src/domain/entities/index.ts" xlink:title="index.ts">
<path fill="#ddfeff" stroke="black" d="M253.08,-212.62C253.08,-212.62 211.92,-212.62 211.92,-212.62 208.71,-212.62 205.5,-209.42 205.5,-206.21 205.5,-206.21 205.5,-199.79 205.5,-199.79 205.5,-196.58 208.71,-193.38 211.92,-193.38 211.92,-193.38 253.08,-193.38 253.08,-193.38 256.29,-193.38 259.5,-196.58 259.5,-199.79 259.5,-199.79 259.5,-206.21 259.5,-206.21 259.5,-209.42 256.29,-212.62 253.08,-212.62"/>
<text text-anchor="start" x="216.75" y="-200.07" font-family="Helvetica,sans-Serif" font-size="9.00">index.ts</text>
</a>
</g>
</g>
<!-- src/application/stores/videosStore.ts&#45;&gt;src/domain/entities/index.ts -->
<g id="edge4" class="edge">
<title>src/application/stores/videosStore.ts&#45;&gt;src/domain/entities/index.ts</title>
<path fill="none" stroke="#000000" stroke-opacity="0.200000" d="M146.98,-115.12C163.58,-132.37 197.44,-167.58 216.88,-187.8"/>
<polygon fill="none" stroke="#000000" stroke-opacity="0.200000" points="215.24,-189.12 220.91,-191.99 218.27,-186.21 215.24,-189.12"/>
</g>
<!-- src/infrastructure/adapters/index.ts -->
<g id="node6" class="node">
<title>src/infrastructure/adapters/index.ts</title>
<g id="a_node6"><a xlink:href="src/infrastructure/adapters/index.ts" xlink:title="index.ts">
<path fill="#ddfeff" stroke="black" d="M253.08,-310.62C253.08,-310.62 211.92,-310.62 211.92,-310.62 208.71,-310.62 205.5,-307.42 205.5,-304.21 205.5,-304.21 205.5,-297.79 205.5,-297.79 205.5,-294.58 208.71,-291.38 211.92,-291.38 211.92,-291.38 253.08,-291.38 253.08,-291.38 256.29,-291.38 259.5,-294.58 259.5,-297.79 259.5,-297.79 259.5,-304.21 259.5,-304.21 259.5,-307.42 256.29,-310.62 253.08,-310.62"/>
<text text-anchor="start" x="216.75" y="-298.07" font-family="Helvetica,sans-Serif" font-size="9.00">index.ts</text>
</a>
</g>
</g>
<!-- src/application/stores/videosStore.ts&#45;&gt;src/infrastructure/adapters/index.ts -->
<g id="edge5" class="edge">
<title>src/application/stores/videosStore.ts&#45;&gt;src/infrastructure/adapters/index.ts</title>
<path fill="none" stroke="#000000" stroke-width="2" stroke-opacity="0.200000" d="M140.07,-115.1C146.79,-138.45 165.07,-197.67 189.5,-243 197.53,-257.9 208.9,-273.36 217.79,-284.57"/>
<polygon fill="#000000" fill-opacity="0.200000" stroke="#000000" stroke-width="2" stroke-opacity="0.200000" points="215.9,-285.57 221.3,-288.92 219.16,-282.93 215.9,-285.57"/>
</g>
</g>
</svg>
