<?xml version="1.0" encoding="UTF-8" standalone="no"?>
<!DOCTYPE svg PUBLIC "-//W3C//DTD SVG 1.1//EN"
 "http://www.w3.org/Graphics/SVG/1.1/DTD/svg11.dtd">
<!-- Generated by graphviz version 2.43.0 (0)
 -->
<!-- Title: dependency&#45;cruiser output Pages: 1 -->
<svg width="222pt" height="170pt"
 viewBox="0.00 0.00 222.00 170.00" xmlns="http://www.w3.org/2000/svg" xmlns:xlink="http://www.w3.org/1999/xlink">
<g id="graph0" class="graph" transform="scale(1 1) rotate(0) translate(4 166)">
<title>dependency&#45;cruiser output</title>
<polygon fill="white" stroke="transparent" points="-4,4 -4,-166 218,-166 218,4 -4,4"/>
<g id="clust1" class="cluster">
<title>cluster_src</title>
<path fill="#ffffff" stroke="black" stroke-width="2" d="M14,-8C14,-8 202,-8 202,-8 208,-8 214,-14 214,-20 214,-20 214,-142 214,-142 214,-148 208,-154 202,-154 202,-154 14,-154 14,-154 8,-154 2,-148 2,-142 2,-142 2,-20 2,-20 2,-14 8,-8 14,-8"/>
<text text-anchor="middle" x="108" y="-142.8" font-family="Helvetica,sans-Serif" font-weight="bold" font-size="9.00">src</text>
</g>
<g id="clust2" class="cluster">
<title>cluster_src/domain</title>
<path fill="#ffffff" stroke="black" stroke-width="2" d="M138,-16C138,-16 184,-16 184,-16 190,-16 196,-22 196,-28 196,-28 196,-56 196,-56 196,-62 190,-68 184,-68 184,-68 138,-68 138,-68 132,-68 126,-62 126,-56 126,-56 126,-28 126,-28 126,-22 132,-16 138,-16"/>
<text text-anchor="middle" x="161" y="-56.8" font-family="Helvetica,sans-Serif" font-weight="bold" font-size="9.00">domain</text>
</g>
<g id="clust3" class="cluster">
<title>cluster_src/infrastructure</title>
<path fill="#ffffff" stroke="black" stroke-width="2" d="M129,-76C129,-76 194,-76 194,-76 200,-76 206,-82 206,-88 206,-88 206,-116 206,-116 206,-122 200,-128 194,-128 194,-128 129,-128 129,-128 123,-128 117,-122 117,-116 117,-116 117,-88 117,-88 117,-82 123,-76 129,-76"/>
<text text-anchor="middle" x="161.5" y="-116.8" font-family="Helvetica,sans-Serif" font-weight="bold" font-size="9.00">infrastructure</text>
</g>
<g id="clust4" class="cluster">
<title>cluster_src/presentation</title>
<path fill="#ffffff" stroke="black" stroke-width="2" d="M22,-46C22,-46 81,-46 81,-46 87,-46 93,-52 93,-58 93,-58 93,-86 93,-86 93,-92 87,-98 81,-98 81,-98 22,-98 22,-98 16,-98 10,-92 10,-86 10,-86 10,-58 10,-58 10,-52 16,-46 22,-46"/>
<text text-anchor="middle" x="51.5" y="-86.8" font-family="Helvetica,sans-Serif" font-weight="bold" font-size="9.00">presentation</text>
</g>
<!-- src/domain/entities -->
<g id="node1" class="node">
<title>src/domain/entities</title>
<g id="a_node1"><a xlink:href="src/domain/entities" xlink:title="entities">
<polygon fill="#ffffcc" stroke="black" points="188,-42 136,-42 134,-40 134,-24 186,-24 188,-26 188,-42"/>
<polyline fill="none" stroke="black" points="186,-40 134,-40 "/>
<polyline fill="none" stroke="black" points="186,-40 186,-24 "/>
<polyline fill="none" stroke="black" points="186,-40 188,-42 "/>
<text text-anchor="start" x="144" y="-30.8" font-family="Helvetica,sans-Serif" font-size="9.00">entities</text>
</a>
</g>
</g>
<!-- src/infrastructure/di -->
<g id="node2" class="node">
<title>src/infrastructure/di</title>
<g id="a_node2"><a xlink:href="src/infrastructure/di" xlink:title="di">
<polygon fill="#ffffcc" stroke="black" points="188,-102 136,-102 134,-100 134,-84 186,-84 188,-86 188,-102"/>
<polyline fill="none" stroke="black" points="186,-100 134,-100 "/>
<polyline fill="none" stroke="black" points="186,-100 186,-84 "/>
<polyline fill="none" stroke="black" points="186,-100 188,-102 "/>
<text text-anchor="start" x="156.5" y="-90.8" font-family="Helvetica,sans-Serif" font-size="9.00">di</text>
</a>
</g>
</g>
<!-- src/presentation/stores -->
<g id="node3" class="node">
<title>src/presentation/stores</title>
<g id="a_node3"><a xlink:href="src/presentation/stores" xlink:title="stores">
<polygon fill="#ffffcc" stroke="black" points="78,-72 26,-72 24,-70 24,-54 76,-54 78,-56 78,-72"/>
<polyline fill="none" stroke="black" points="76,-70 24,-70 "/>
<polyline fill="none" stroke="black" points="76,-70 76,-54 "/>
<polyline fill="none" stroke="black" points="76,-70 78,-72 "/>
<text text-anchor="start" x="37" y="-60.8" font-family="Helvetica,sans-Serif" font-size="9.00">stores</text>
</a>
</g>
</g>
<!-- src/presentation/stores&#45;&gt;src/domain/entities -->
<g id="edge1" class="edge">
<title>src/presentation/stores&#45;&gt;src/domain/entities</title>
<path fill="none" stroke="#000000" stroke-opacity="0.200000" d="M78.14,-55.74C93.02,-51.6 111.79,-46.39 127.6,-42"/>
<polygon fill="none" stroke="#000000" stroke-opacity="0.200000" points="128.5,-43.93 133.72,-40.3 127.38,-39.88 128.5,-43.93"/>
</g>
<!-- src/presentation/stores&#45;&gt;src/infrastructure/di -->
<g id="edge2" class="edge">
<title>src/presentation/stores&#45;&gt;src/infrastructure/di</title>
<path fill="none" stroke="#000000" stroke-width="2" stroke-opacity="0.200000" d="M78.14,-70.26C93.02,-74.4 111.79,-79.61 127.6,-84"/>
<polygon fill="#000000" fill-opacity="0.200000" stroke="#000000" stroke-width="2" stroke-opacity="0.200000" points="127.38,-86.12 133.72,-85.7 128.5,-82.07 127.38,-86.12"/>
</g>
</g>
</svg>
