<?xml version="1.0" encoding="UTF-8" standalone="no"?>
<!DOCTYPE svg PUBLIC "-//W3C//DTD SVG 1.1//EN"
 "http://www.w3.org/Graphics/SVG/1.1/DTD/svg11.dtd">
<!-- Generated by graphviz version 9.0.0 (20230911.1827)
 -->
<!-- Title: dependency&#45;cruiser output Pages: 1 -->
<svg width="308pt" height="408pt"
 viewBox="0.00 0.00 307.50 408.00" xmlns="http://www.w3.org/2000/svg" xmlns:xlink="http://www.w3.org/1999/xlink">
<g id="graph0" class="graph" transform="scale(1 1) rotate(0) translate(4 404)">
<title>dependency&#45;cruiser output</title>
<polygon fill="white" stroke="none" points="-4,4 -4,-404 303.5,-404 303.5,4 -4,4"/>
<g id="clust1" class="cluster">
<title>cluster_src</title>
<path fill="#ffffff" stroke="black" stroke-width="2" d="M20,-8C20,-8 279.5,-8 279.5,-8 285.5,-8 291.5,-14 291.5,-20 291.5,-20 291.5,-380 291.5,-380 291.5,-386 285.5,-392 279.5,-392 279.5,-392 20,-392 20,-392 14,-392 8,-386 8,-380 8,-380 8,-20 8,-20 8,-14 14,-8 20,-8"/>
<text text-anchor="middle" x="149.75" y="-379.45" font-family="Helvetica,sans-Serif" font-weight="bold" font-size="9.00">src</text>
</g>
<g id="clust2" class="cluster">
<title>cluster_src/application</title>
<path fill="#ffffff" stroke="black" stroke-width="2" d="M209.5,-16C209.5,-16 271.5,-16 271.5,-16 277.5,-16 283.5,-22 283.5,-28 283.5,-28 283.5,-157 283.5,-157 283.5,-163 277.5,-169 271.5,-169 271.5,-169 209.5,-169 209.5,-169 203.5,-169 197.5,-163 197.5,-157 197.5,-157 197.5,-28 197.5,-28 197.5,-22 203.5,-16 209.5,-16"/>
<text text-anchor="middle" x="240.5" y="-156.45" font-family="Helvetica,sans-Serif" font-weight="bold" font-size="9.00">application</text>
</g>
<g id="clust4" class="cluster">
<title>cluster_src/application/usecases</title>
<path fill="#ffffff" stroke="black" stroke-width="2" d="M217.5,-87C217.5,-87 263.5,-87 263.5,-87 269.5,-87 275.5,-93 275.5,-99 275.5,-99 275.5,-130 275.5,-130 275.5,-136 269.5,-142 263.5,-142 263.5,-142 217.5,-142 217.5,-142 211.5,-142 205.5,-136 205.5,-130 205.5,-130 205.5,-99 205.5,-99 205.5,-93 211.5,-87 217.5,-87"/>
<text text-anchor="middle" x="240.5" y="-129.45" font-family="Helvetica,sans-Serif" font-weight="bold" font-size="9.00">usecases</text>
</g>
<g id="clust3" class="cluster">
<title>cluster_src/application/services</title>
<path fill="#ffffff" stroke="black" stroke-width="2" d="M217.5,-24C217.5,-24 263.5,-24 263.5,-24 269.5,-24 275.5,-30 275.5,-36 275.5,-36 275.5,-67 275.5,-67 275.5,-73 269.5,-79 263.5,-79 263.5,-79 217.5,-79 217.5,-79 211.5,-79 205.5,-73 205.5,-67 205.5,-67 205.5,-36 205.5,-36 205.5,-30 211.5,-24 217.5,-24"/>
<text text-anchor="middle" x="240.5" y="-66.45" font-family="Helvetica,sans-Serif" font-weight="bold" font-size="9.00">services</text>
</g>
<g id="clust5" class="cluster">
<title>cluster_src/domain</title>
<path fill="#ffffff" stroke="black" stroke-width="2" d="M209.5,-177C209.5,-177 271.5,-177 271.5,-177 277.5,-177 283.5,-183 283.5,-189 283.5,-189 283.5,-255 283.5,-255 283.5,-261 277.5,-267 271.5,-267 271.5,-267 209.5,-267 209.5,-267 203.5,-267 197.5,-261 197.5,-255 197.5,-255 197.5,-189 197.5,-189 197.5,-183 203.5,-177 209.5,-177"/>
<text text-anchor="middle" x="240.5" y="-254.45" font-family="Helvetica,sans-Serif" font-weight="bold" font-size="9.00">domain</text>
</g>
<g id="clust6" class="cluster">
<title>cluster_src/domain/entities</title>
<path fill="#ffffff" stroke="black" stroke-width="2" d="M217.5,-185C217.5,-185 263.5,-185 263.5,-185 269.5,-185 275.5,-191 275.5,-197 275.5,-197 275.5,-228 275.5,-228 275.5,-234 269.5,-240 263.5,-240 263.5,-240 217.5,-240 217.5,-240 211.5,-240 205.5,-234 205.5,-228 205.5,-228 205.5,-197 205.5,-197 205.5,-191 211.5,-185 217.5,-185"/>
<text text-anchor="middle" x="240.5" y="-227.45" font-family="Helvetica,sans-Serif" font-weight="bold" font-size="9.00">entities</text>
</g>
<g id="clust7" class="cluster">
<title>cluster_src/infrastructure</title>
<path fill="#ffffff" stroke="black" stroke-width="2" d="M209.5,-275C209.5,-275 271.5,-275 271.5,-275 277.5,-275 283.5,-281 283.5,-287 283.5,-287 283.5,-353 283.5,-353 283.5,-359 277.5,-365 271.5,-365 271.5,-365 209.5,-365 209.5,-365 203.5,-365 197.5,-359 197.5,-353 197.5,-353 197.5,-287 197.5,-287 197.5,-281 203.5,-275 209.5,-275"/>
<text text-anchor="middle" x="240.5" y="-352.45" font-family="Helvetica,sans-Serif" font-weight="bold" font-size="9.00">infrastructure</text>
</g>
<g id="clust8" class="cluster">
<title>cluster_src/infrastructure/adapters</title>
<path fill="#ffffff" stroke="black" stroke-width="2" d="M217.5,-283C217.5,-283 263.5,-283 263.5,-283 269.5,-283 275.5,-289 275.5,-295 275.5,-295 275.5,-326 275.5,-326 275.5,-332 269.5,-338 263.5,-338 263.5,-338 217.5,-338 217.5,-338 211.5,-338 205.5,-332 205.5,-326 205.5,-326 205.5,-295 205.5,-295 205.5,-289 211.5,-283 217.5,-283"/>
<text text-anchor="middle" x="240.5" y="-325.45" font-family="Helvetica,sans-Serif" font-weight="bold" font-size="9.00">adapters</text>
</g>
<g id="clust9" class="cluster">
<title>cluster_src/presentation</title>
<path fill="#ffffff" stroke="black" stroke-width="2" d="M28,-128C28,-128 177.5,-128 177.5,-128 183.5,-128 189.5,-134 189.5,-140 189.5,-140 189.5,-206 189.5,-206 189.5,-212 183.5,-218 177.5,-218 177.5,-218 28,-218 28,-218 22,-218 16,-212 16,-206 16,-206 16,-140 16,-140 16,-134 22,-128 28,-128"/>
<text text-anchor="middle" x="102.75" y="-205.45" font-family="Helvetica,sans-Serif" font-weight="bold" font-size="9.00">presentation</text>
</g>
<g id="clust10" class="cluster">
<title>cluster_src/presentation/stores</title>
<path fill="#ffffff" stroke="black" stroke-width="2" d="M36,-136C36,-136 169.5,-136 169.5,-136 175.5,-136 181.5,-142 181.5,-148 181.5,-148 181.5,-179 181.5,-179 181.5,-185 175.5,-191 169.5,-191 169.5,-191 36,-191 36,-191 30,-191 24,-185 24,-179 24,-179 24,-148 24,-148 24,-142 30,-136 36,-136"/>
<text text-anchor="middle" x="102.75" y="-178.45" font-family="Helvetica,sans-Serif" font-weight="bold" font-size="9.00">stores</text>
</g>
<!-- src/application/services/index.ts -->
<g id="node1" class="node">
<title>src/application/services/index.ts</title>
<g id="a_node1"><a xlink:href="src/application/services/index.ts" xlink:title="index.ts">
<path fill="#ddfeff" stroke="black" d="M261.08,-51.62C261.08,-51.62 219.92,-51.62 219.92,-51.62 216.71,-51.62 213.5,-48.42 213.5,-45.21 213.5,-45.21 213.5,-38.79 213.5,-38.79 213.5,-35.58 216.71,-32.38 219.92,-32.38 219.92,-32.38 261.08,-32.38 261.08,-32.38 264.29,-32.38 267.5,-35.58 267.5,-38.79 267.5,-38.79 267.5,-45.21 267.5,-45.21 267.5,-48.42 264.29,-51.62 261.08,-51.62"/>
<text text-anchor="start" x="224.75" y="-39.08" font-family="Helvetica,sans-Serif" font-size="9.00">index.ts</text>
</a>
</g>
</g>
<!-- src/application/usecases/index.ts -->
<g id="node2" class="node">
<title>src/application/usecases/index.ts</title>
<g id="a_node2"><a xlink:href="src/application/usecases/index.ts" xlink:title="index.ts">
<path fill="#ddfeff" stroke="black" d="M261.08,-114.62C261.08,-114.62 219.92,-114.62 219.92,-114.62 216.71,-114.62 213.5,-111.42 213.5,-108.21 213.5,-108.21 213.5,-101.79 213.5,-101.79 213.5,-98.58 216.71,-95.38 219.92,-95.38 219.92,-95.38 261.08,-95.38 261.08,-95.38 264.29,-95.38 267.5,-98.58 267.5,-101.79 267.5,-101.79 267.5,-108.21 267.5,-108.21 267.5,-111.42 264.29,-114.62 261.08,-114.62"/>
<text text-anchor="start" x="224.75" y="-102.08" font-family="Helvetica,sans-Serif" font-size="9.00">index.ts</text>
</a>
</g>
</g>
<!-- src/domain/entities/index.ts -->
<g id="node3" class="node">
<title>src/domain/entities/index.ts</title>
<g id="a_node3"><a xlink:href="src/domain/entities/index.ts" xlink:title="index.ts">
<path fill="#ddfeff" stroke="black" d="M261.08,-212.62C261.08,-212.62 219.92,-212.62 219.92,-212.62 216.71,-212.62 213.5,-209.42 213.5,-206.21 213.5,-206.21 213.5,-199.79 213.5,-199.79 213.5,-196.58 216.71,-193.38 219.92,-193.38 219.92,-193.38 261.08,-193.38 261.08,-193.38 264.29,-193.38 267.5,-196.58 267.5,-199.79 267.5,-199.79 267.5,-206.21 267.5,-206.21 267.5,-209.42 264.29,-212.62 261.08,-212.62"/>
<text text-anchor="start" x="224.75" y="-200.07" font-family="Helvetica,sans-Serif" font-size="9.00">index.ts</text>
</a>
</g>
</g>
<!-- src/infrastructure/adapters/index.ts -->
<g id="node4" class="node">
<title>src/infrastructure/adapters/index.ts</title>
<g id="a_node4"><a xlink:href="src/infrastructure/adapters/index.ts" xlink:title="index.ts">
<path fill="#ddfeff" stroke="black" d="M261.08,-310.62C261.08,-310.62 219.92,-310.62 219.92,-310.62 216.71,-310.62 213.5,-307.42 213.5,-304.21 213.5,-304.21 213.5,-297.79 213.5,-297.79 213.5,-294.58 216.71,-291.38 219.92,-291.38 219.92,-291.38 261.08,-291.38 261.08,-291.38 264.29,-291.38 267.5,-294.58 267.5,-297.79 267.5,-297.79 267.5,-304.21 267.5,-304.21 267.5,-307.42 264.29,-310.62 261.08,-310.62"/>
<text text-anchor="start" x="224.75" y="-298.07" font-family="Helvetica,sans-Serif" font-size="9.00">index.ts</text>
</a>
</g>
</g>
<!-- src/presentation/stores/index.ts -->
<g id="node5" class="node">
<title>src/presentation/stores/index.ts</title>
<g id="a_node5"><a xlink:href="src/presentation/stores/index.ts" xlink:title="index.ts">
<path fill="#ddfeff" stroke="black" d="M79.58,-163.62C79.58,-163.62 38.42,-163.62 38.42,-163.62 35.21,-163.62 32,-160.42 32,-157.21 32,-157.21 32,-150.79 32,-150.79 32,-147.58 35.21,-144.38 38.42,-144.38 38.42,-144.38 79.58,-144.38 79.58,-144.38 82.79,-144.38 86,-147.58 86,-150.79 86,-150.79 86,-157.21 86,-157.21 86,-160.42 82.79,-163.62 79.58,-163.62"/>
<text text-anchor="start" x="43.25" y="-151.07" font-family="Helvetica,sans-Serif" font-size="9.00">index.ts</text>
</a>
</g>
</g>
<!-- src/presentation/stores/videosStore.ts -->
<g id="node6" class="node">
<title>src/presentation/stores/videosStore.ts</title>
<g id="a_node6"><a xlink:href="src/presentation/stores/videosStore.ts" xlink:title="videosStore.ts">
<path fill="#ddfeff" stroke="black" d="M167.08,-163.62C167.08,-163.62 105.42,-163.62 105.42,-163.62 102.21,-163.62 99,-160.42 99,-157.21 99,-157.21 99,-150.79 99,-150.79 99,-147.58 102.21,-144.38 105.42,-144.38 105.42,-144.38 167.08,-144.38 167.08,-144.38 170.29,-144.38 173.5,-147.58 173.5,-150.79 173.5,-150.79 173.5,-157.21 173.5,-157.21 173.5,-160.42 170.29,-163.62 167.08,-163.62"/>
<text text-anchor="start" x="107" y="-151.07" font-family="Helvetica,sans-Serif" font-size="9.00">videosStore.ts</text>
</a>
</g>
</g>
<!-- src/presentation/stores/index.ts&#45;&gt;src/presentation/stores/videosStore.ts -->
<g id="edge1" class="edge">
<title>src/presentation/stores/index.ts&#45;&gt;src/presentation/stores/videosStore.ts</title>
<path fill="none" stroke="#000000" stroke-width="2" stroke-opacity="0.200000" d="M86.32,-154C90.3,-154 94.47,-154 98.63,-154"/>
<polygon fill="#000000" fill-opacity="0.200000" stroke="#000000" stroke-width="2" stroke-opacity="0.200000" points="101.43,-152.61 105.33,-160.71 97.23,-156.81 101.43,-152.61"/>
</g>
<!-- src/presentation/stores/videosStore.ts&#45;&gt;src/application/services/index.ts -->
<g id="edge2" class="edge">
<title>src/presentation/stores/videosStore.ts&#45;&gt;src/application/services/index.ts</title>
<path fill="none" stroke="#000000" stroke-width="2" stroke-opacity="0.200000" d="M145.21,-144.29C156.54,-130.59 178.09,-104.92 197.5,-84 205.72,-75.14 215.22,-65.59 223.1,-57.84"/>
<polygon fill="#000000" fill-opacity="0.200000" stroke="#000000" stroke-width="2" stroke-opacity="0.200000" points="224.28,-59.62 227.11,-53.92 221.35,-56.61 224.28,-59.62"/>
</g>
<!-- src/presentation/stores/videosStore.ts&#45;&gt;src/application/usecases/index.ts -->
<g id="edge3" class="edge">
<title>src/presentation/stores/videosStore.ts&#45;&gt;src/application/usecases/index.ts</title>
<path fill="none" stroke="#000000" stroke-width="2" stroke-opacity="0.200000" d="M157.94,-144.08C173.09,-136.83 193.83,-126.88 210.61,-118.84"/>
<polygon fill="#000000" fill-opacity="0.200000" stroke="#000000" stroke-width="2" stroke-opacity="0.200000" points="211.25,-120.86 215.76,-116.38 209.44,-117.08 211.25,-120.86"/>
</g>
<!-- src/presentation/stores/videosStore.ts&#45;&gt;src/domain/entities/index.ts -->
<g id="edge4" class="edge">
<title>src/presentation/stores/videosStore.ts&#45;&gt;src/domain/entities/index.ts</title>
<path fill="none" stroke="#000000" stroke-opacity="0.200000" d="M157.94,-163.92C173.5,-171.37 194.97,-181.66 211.98,-189.81"/>
<polygon fill="none" stroke="#000000" stroke-opacity="0.200000" points="210.8,-191.58 217.12,-192.28 212.62,-187.79 210.8,-191.58"/>
</g>
<!-- src/presentation/stores/videosStore.ts&#45;&gt;src/infrastructure/adapters/index.ts -->
<g id="edge5" class="edge">
<title>src/presentation/stores/videosStore.ts&#45;&gt;src/infrastructure/adapters/index.ts</title>
<path fill="none" stroke="#000000" stroke-width="2" stroke-opacity="0.200000" d="M143.84,-163.95C154.81,-180.47 177.59,-214.57 197.5,-243 207.23,-256.9 218.53,-272.47 226.95,-283.97"/>
<polygon fill="#000000" fill-opacity="0.200000" stroke="#000000" stroke-width="2" stroke-opacity="0.200000" points="225.24,-285.18 230.48,-288.78 228.62,-282.7 225.24,-285.18"/>
</g>
</g>
</svg>
