<?xml version="1.0" encoding="UTF-8" standalone="no"?>
<!DOCTYPE svg PUBLIC "-//W3C//DTD SVG 1.1//EN"
 "http://www.w3.org/Graphics/SVG/1.1/DTD/svg11.dtd">
<!-- Generated by graphviz version 9.0.0 (20230911.1827)
 -->
<!-- Title: dependency&#45;cruiser output Pages: 1 -->
<svg width="323pt" height="275pt"
 viewBox="0.00 0.00 322.50 275.00" xmlns="http://www.w3.org/2000/svg" xmlns:xlink="http://www.w3.org/1999/xlink">
<g id="graph0" class="graph" transform="scale(1 1) rotate(0) translate(4 271)">
<title>dependency&#45;cruiser output</title>
<polygon fill="white" stroke="none" points="-4,4 -4,-271 318.5,-271 318.5,4 -4,4"/>
<g id="clust1" class="cluster">
<title>cluster_src</title>
<path fill="#ffffff" stroke="black" stroke-width="2" d="M20,-8C20,-8 294.5,-8 294.5,-8 300.5,-8 306.5,-14 306.5,-20 306.5,-20 306.5,-247 306.5,-247 306.5,-253 300.5,-259 294.5,-259 294.5,-259 20,-259 20,-259 14,-259 8,-253 8,-247 8,-247 8,-20 8,-20 8,-14 14,-8 20,-8"/>
<text text-anchor="middle" x="157.25" y="-246.45" font-family="Helvetica,sans-Serif" font-weight="bold" font-size="9.00">src</text>
</g>
<g id="clust2" class="cluster">
<title>cluster_src/application</title>
<path fill="#ffffff" stroke="black" stroke-width="2" d="M209.5,-16C209.5,-16 286.5,-16 286.5,-16 292.5,-16 298.5,-22 298.5,-28 298.5,-28 298.5,-122 298.5,-122 298.5,-128 292.5,-134 286.5,-134 286.5,-134 209.5,-134 209.5,-134 203.5,-134 197.5,-128 197.5,-122 197.5,-122 197.5,-28 197.5,-28 197.5,-22 203.5,-16 209.5,-16"/>
<text text-anchor="middle" x="248" y="-121.45" font-family="Helvetica,sans-Serif" font-weight="bold" font-size="9.00">application</text>
</g>
<g id="clust3" class="cluster">
<title>cluster_src/application/services</title>
<path fill="#ffffff" stroke="black" stroke-width="2" d="M225,-52C225,-52 271,-52 271,-52 277,-52 283,-58 283,-64 283,-64 283,-95 283,-95 283,-101 277,-107 271,-107 271,-107 225,-107 225,-107 219,-107 213,-101 213,-95 213,-95 213,-64 213,-64 213,-58 219,-52 225,-52"/>
<text text-anchor="middle" x="248" y="-94.45" font-family="Helvetica,sans-Serif" font-weight="bold" font-size="9.00">services</text>
</g>
<g id="clust4" class="cluster">
<title>cluster_src/domain</title>
<path fill="#ffffff" stroke="black" stroke-width="2" d="M217,-142C217,-142 279,-142 279,-142 285,-142 291,-148 291,-154 291,-154 291,-220 291,-220 291,-226 285,-232 279,-232 279,-232 217,-232 217,-232 211,-232 205,-226 205,-220 205,-220 205,-154 205,-154 205,-148 211,-142 217,-142"/>
<text text-anchor="middle" x="248" y="-219.45" font-family="Helvetica,sans-Serif" font-weight="bold" font-size="9.00">domain</text>
</g>
<g id="clust5" class="cluster">
<title>cluster_src/domain/entities</title>
<path fill="#ffffff" stroke="black" stroke-width="2" d="M225,-150C225,-150 271,-150 271,-150 277,-150 283,-156 283,-162 283,-162 283,-193 283,-193 283,-199 277,-205 271,-205 271,-205 225,-205 225,-205 219,-205 213,-199 213,-193 213,-193 213,-162 213,-162 213,-156 219,-150 225,-150"/>
<text text-anchor="middle" x="248" y="-192.45" font-family="Helvetica,sans-Serif" font-weight="bold" font-size="9.00">entities</text>
</g>
<g id="clust6" class="cluster">
<title>cluster_src/presentation</title>
<path fill="#ffffff" stroke="black" stroke-width="2" d="M28,-44C28,-44 177.5,-44 177.5,-44 183.5,-44 189.5,-50 189.5,-56 189.5,-56 189.5,-122 189.5,-122 189.5,-128 183.5,-134 177.5,-134 177.5,-134 28,-134 28,-134 22,-134 16,-128 16,-122 16,-122 16,-56 16,-56 16,-50 22,-44 28,-44"/>
<text text-anchor="middle" x="102.75" y="-121.45" font-family="Helvetica,sans-Serif" font-weight="bold" font-size="9.00">presentation</text>
</g>
<g id="clust7" class="cluster">
<title>cluster_src/presentation/stores</title>
<path fill="#ffffff" stroke="black" stroke-width="2" d="M36,-52C36,-52 169.5,-52 169.5,-52 175.5,-52 181.5,-58 181.5,-64 181.5,-64 181.5,-95 181.5,-95 181.5,-101 175.5,-107 169.5,-107 169.5,-107 36,-107 36,-107 30,-107 24,-101 24,-95 24,-95 24,-64 24,-64 24,-58 30,-52 36,-52"/>
<text text-anchor="middle" x="102.75" y="-94.45" font-family="Helvetica,sans-Serif" font-weight="bold" font-size="9.00">stores</text>
</g>
<!-- src/application/dependencies.ts -->
<g id="node1" class="node">
<title>src/application/dependencies.ts</title>
<g id="a_node1"><a xlink:href="src/application/dependencies.ts" xlink:title="dependencies.ts">
<path fill="#ddfeff" stroke="black" d="M284.08,-43.62C284.08,-43.62 211.92,-43.62 211.92,-43.62 208.71,-43.62 205.5,-40.42 205.5,-37.21 205.5,-37.21 205.5,-30.79 205.5,-30.79 205.5,-27.58 208.71,-24.38 211.92,-24.38 211.92,-24.38 284.08,-24.38 284.08,-24.38 287.29,-24.38 290.5,-27.58 290.5,-30.79 290.5,-30.79 290.5,-37.21 290.5,-37.21 290.5,-40.42 287.29,-43.62 284.08,-43.62"/>
<text text-anchor="start" x="213.5" y="-31.07" font-family="Helvetica,sans-Serif" font-size="9.00">dependencies.ts</text>
</a>
</g>
</g>
<!-- src/application/services/index.ts -->
<g id="node2" class="node">
<title>src/application/services/index.ts</title>
<g id="a_node2"><a xlink:href="src/application/services/index.ts" xlink:title="index.ts">
<path fill="#ddfeff" stroke="black" d="M268.58,-79.62C268.58,-79.62 227.42,-79.62 227.42,-79.62 224.21,-79.62 221,-76.42 221,-73.21 221,-73.21 221,-66.79 221,-66.79 221,-63.58 224.21,-60.38 227.42,-60.38 227.42,-60.38 268.58,-60.38 268.58,-60.38 271.79,-60.38 275,-63.58 275,-66.79 275,-66.79 275,-73.21 275,-73.21 275,-76.42 271.79,-79.62 268.58,-79.62"/>
<text text-anchor="start" x="232.25" y="-67.08" font-family="Helvetica,sans-Serif" font-size="9.00">index.ts</text>
</a>
</g>
</g>
<!-- src/domain/entities/index.ts -->
<g id="node3" class="node">
<title>src/domain/entities/index.ts</title>
<g id="a_node3"><a xlink:href="src/domain/entities/index.ts" xlink:title="index.ts">
<path fill="#ddfeff" stroke="black" d="M268.58,-177.62C268.58,-177.62 227.42,-177.62 227.42,-177.62 224.21,-177.62 221,-174.42 221,-171.21 221,-171.21 221,-164.79 221,-164.79 221,-161.58 224.21,-158.38 227.42,-158.38 227.42,-158.38 268.58,-158.38 268.58,-158.38 271.79,-158.38 275,-161.58 275,-164.79 275,-164.79 275,-171.21 275,-171.21 275,-174.42 271.79,-177.62 268.58,-177.62"/>
<text text-anchor="start" x="232.25" y="-165.07" font-family="Helvetica,sans-Serif" font-size="9.00">index.ts</text>
</a>
</g>
</g>
<!-- src/presentation/stores/index.ts -->
<g id="node4" class="node">
<title>src/presentation/stores/index.ts</title>
<g id="a_node4"><a xlink:href="src/presentation/stores/index.ts" xlink:title="index.ts">
<path fill="#ddfeff" stroke="black" d="M79.58,-79.62C79.58,-79.62 38.42,-79.62 38.42,-79.62 35.21,-79.62 32,-76.42 32,-73.21 32,-73.21 32,-66.79 32,-66.79 32,-63.58 35.21,-60.38 38.42,-60.38 38.42,-60.38 79.58,-60.38 79.58,-60.38 82.79,-60.38 86,-63.58 86,-66.79 86,-66.79 86,-73.21 86,-73.21 86,-76.42 82.79,-79.62 79.58,-79.62"/>
<text text-anchor="start" x="43.25" y="-67.08" font-family="Helvetica,sans-Serif" font-size="9.00">index.ts</text>
</a>
</g>
</g>
<!-- src/presentation/stores/videosStore.ts -->
<g id="node5" class="node">
<title>src/presentation/stores/videosStore.ts</title>
<g id="a_node5"><a xlink:href="src/presentation/stores/videosStore.ts" xlink:title="videosStore.ts">
<path fill="#ddfeff" stroke="black" d="M167.08,-79.62C167.08,-79.62 105.42,-79.62 105.42,-79.62 102.21,-79.62 99,-76.42 99,-73.21 99,-73.21 99,-66.79 99,-66.79 99,-63.58 102.21,-60.38 105.42,-60.38 105.42,-60.38 167.08,-60.38 167.08,-60.38 170.29,-60.38 173.5,-63.58 173.5,-66.79 173.5,-66.79 173.5,-73.21 173.5,-73.21 173.5,-76.42 170.29,-79.62 167.08,-79.62"/>
<text text-anchor="start" x="107" y="-67.08" font-family="Helvetica,sans-Serif" font-size="9.00">videosStore.ts</text>
</a>
</g>
</g>
<!-- src/presentation/stores/index.ts&#45;&gt;src/presentation/stores/videosStore.ts -->
<g id="edge1" class="edge">
<title>src/presentation/stores/index.ts&#45;&gt;src/presentation/stores/videosStore.ts</title>
<path fill="none" stroke="#000000" stroke-width="2" stroke-opacity="0.200000" d="M86.32,-70C90.3,-70 94.47,-70 98.63,-70"/>
<polygon fill="#000000" fill-opacity="0.200000" stroke="#000000" stroke-width="2" stroke-opacity="0.200000" points="101.43,-68.61 105.33,-76.71 97.23,-72.81 101.43,-68.61"/>
</g>
<!-- src/presentation/stores/videosStore.ts&#45;&gt;src/application/dependencies.ts -->
<g id="edge2" class="edge">
<title>src/presentation/stores/videosStore.ts&#45;&gt;src/application/dependencies.ts</title>
<path fill="none" stroke="#000000" stroke-width="2" stroke-opacity="0.200000" d="M165.37,-59.93C175.47,-56.38 186.97,-52.43 197.5,-49 199.86,-48.23 202.29,-47.45 204.74,-46.68"/>
<polygon fill="#000000" fill-opacity="0.200000" stroke="#000000" stroke-width="2" stroke-opacity="0.200000" points="205.13,-48.76 210.24,-44.96 203.88,-44.75 205.13,-48.76"/>
</g>
<!-- src/presentation/stores/videosStore.ts&#45;&gt;src/application/services/index.ts -->
<g id="edge3" class="edge">
<title>src/presentation/stores/videosStore.ts&#45;&gt;src/application/services/index.ts</title>
<path fill="none" stroke="#000000" stroke-width="2" stroke-opacity="0.200000" d="M173.8,-70C186.02,-70 199.61,-70 211.74,-70"/>
<polygon fill="#000000" fill-opacity="0.200000" stroke="#000000" stroke-width="2" stroke-opacity="0.200000" points="211.65,-72.1 217.65,-70 211.65,-67.9 211.65,-72.1"/>
</g>
<!-- src/presentation/stores/videosStore.ts&#45;&gt;src/domain/entities/index.ts -->
<g id="edge4" class="edge">
<title>src/presentation/stores/videosStore.ts&#45;&gt;src/domain/entities/index.ts</title>
<path fill="none" stroke="#000000" stroke-opacity="0.200000" d="M148.58,-80.12C168.07,-97.52 208.01,-133.18 230.56,-153.32"/>
<polygon fill="none" stroke="#000000" stroke-opacity="0.200000" points="228.89,-154.64 234.76,-157.07 231.69,-151.51 228.89,-154.64"/>
</g>
</g>
</svg>
