<?xml version="1.0" encoding="UTF-8" standalone="no"?>
<!DOCTYPE svg PUBLIC "-//W3C//DTD SVG 1.1//EN"
 "http://www.w3.org/Graphics/SVG/1.1/DTD/svg11.dtd">
<!-- Generated by graphviz version 9.0.0 (20230911.1827)
 -->
<!-- Title: dependency&#45;cruiser output Pages: 1 -->
<svg width="449pt" height="201pt"
 viewBox="0.00 0.00 449.25 201.00" xmlns="http://www.w3.org/2000/svg" xmlns:xlink="http://www.w3.org/1999/xlink">
<g id="graph0" class="graph" transform="scale(1 1) rotate(0) translate(4 197)">
<title>dependency&#45;cruiser output</title>
<polygon fill="white" stroke="none" points="-4,4 -4,-197 445.25,-197 445.25,4 -4,4"/>
<g id="clust1" class="cluster">
<title>cluster_src</title>
<path fill="#ffffff" stroke="black" stroke-width="2" d="M20,-8C20,-8 421.25,-8 421.25,-8 427.25,-8 433.25,-14 433.25,-20 433.25,-20 433.25,-173 433.25,-173 433.25,-179 427.25,-185 421.25,-185 421.25,-185 20,-185 20,-185 14,-185 8,-179 8,-173 8,-173 8,-20 8,-20 8,-14 14,-8 20,-8"/>
<text text-anchor="middle" x="220.62" y="-172.45" font-family="Helvetica,sans-Serif" font-weight="bold" font-size="9.00">src</text>
</g>
<g id="clust3" class="cluster">
<title>cluster_src/components</title>
<path fill="#ffffff" stroke="black" stroke-width="2" d="M136.25,-40C136.25,-40 236.75,-40 236.75,-40 242.75,-40 248.75,-46 248.75,-52 248.75,-52 248.75,-146 248.75,-146 248.75,-152 242.75,-158 236.75,-158 236.75,-158 136.25,-158 136.25,-158 130.25,-158 124.25,-152 124.25,-146 124.25,-146 124.25,-52 124.25,-52 124.25,-46 130.25,-40 136.25,-40"/>
<text text-anchor="middle" x="186.5" y="-145.45" font-family="Helvetica,sans-Serif" font-weight="bold" font-size="9.00">components</text>
</g>
<g id="clust4" class="cluster">
<title>cluster_src/components/inputs</title>
<path fill="#ffffff" stroke="black" stroke-width="2" d="M144.25,-76C144.25,-76 228.75,-76 228.75,-76 234.75,-76 240.75,-82 240.75,-88 240.75,-88 240.75,-119 240.75,-119 240.75,-125 234.75,-131 228.75,-131 228.75,-131 144.25,-131 144.25,-131 138.25,-131 132.25,-125 132.25,-119 132.25,-119 132.25,-88 132.25,-88 132.25,-82 138.25,-76 144.25,-76"/>
<text text-anchor="middle" x="186.5" y="-118.45" font-family="Helvetica,sans-Serif" font-weight="bold" font-size="9.00">inputs</text>
</g>
<g id="clust2" class="cluster">
<title>cluster_src/application</title>
<path fill="#ffffff" stroke="black" stroke-width="2" d="M367.25,-53C367.25,-53 413.25,-53 413.25,-53 419.25,-53 425.25,-59 425.25,-65 425.25,-65 425.25,-96 425.25,-96 425.25,-102 419.25,-108 413.25,-108 413.25,-108 367.25,-108 367.25,-108 361.25,-108 355.25,-102 355.25,-96 355.25,-96 355.25,-65 355.25,-65 355.25,-59 361.25,-53 367.25,-53"/>
<text text-anchor="middle" x="390.25" y="-95.45" font-family="Helvetica,sans-Serif" font-weight="bold" font-size="9.00">application</text>
</g>
<g id="clust5" class="cluster">
<title>cluster_src/stores</title>
<path fill="#ffffff" stroke="black" stroke-width="2" d="M268.75,-30C268.75,-30 335.25,-30 335.25,-30 341.25,-30 347.25,-36 347.25,-42 347.25,-42 347.25,-73 347.25,-73 347.25,-79 341.25,-85 335.25,-85 335.25,-85 268.75,-85 268.75,-85 262.75,-85 256.75,-79 256.75,-73 256.75,-73 256.75,-42 256.75,-42 256.75,-36 262.75,-30 268.75,-30"/>
<text text-anchor="middle" x="302" y="-72.45" font-family="Helvetica,sans-Serif" font-weight="bold" font-size="9.00">stores</text>
</g>
<g id="clust6" class="cluster">
<title>cluster_src/views</title>
<path fill="#ffffff" stroke="black" stroke-width="2" d="M28,-28C28,-28 104.25,-28 104.25,-28 110.25,-28 116.25,-34 116.25,-40 116.25,-40 116.25,-102 116.25,-102 116.25,-108 110.25,-114 104.25,-114 104.25,-114 28,-114 28,-114 22,-114 16,-108 16,-102 16,-102 16,-40 16,-40 16,-34 22,-28 28,-28"/>
<text text-anchor="middle" x="66.12" y="-101.45" font-family="Helvetica,sans-Serif" font-weight="bold" font-size="9.00">views</text>
</g>
<!-- src/application/index.ts -->
<g id="node1" class="node">
<title>src/application/index.ts</title>
<g id="a_node1"><a xlink:href="src/application/index.ts" xlink:title="index.ts">
<path fill="#ddfeff" stroke="black" d="M410.83,-80.62C410.83,-80.62 369.67,-80.62 369.67,-80.62 366.46,-80.62 363.25,-77.42 363.25,-74.21 363.25,-74.21 363.25,-67.79 363.25,-67.79 363.25,-64.58 366.46,-61.38 369.67,-61.38 369.67,-61.38 410.83,-61.38 410.83,-61.38 414.04,-61.38 417.25,-64.58 417.25,-67.79 417.25,-67.79 417.25,-74.21 417.25,-74.21 417.25,-77.42 414.04,-80.62 410.83,-80.62"/>
<text text-anchor="start" x="374.5" y="-68.08" font-family="Helvetica,sans-Serif" font-size="9.00">index.ts</text>
</a>
</g>
</g>
<!-- src/components/VideoCard.vue -->
<g id="node2" class="node">
<title>src/components/VideoCard.vue</title>
<g id="a_node2"><a xlink:href="src/components/VideoCard.vue" xlink:title="VideoCard.vue">
<path fill="#41f083" stroke="black" d="M218.08,-67.62C218.08,-67.62 154.92,-67.62 154.92,-67.62 151.71,-67.62 148.5,-64.42 148.5,-61.21 148.5,-61.21 148.5,-54.79 148.5,-54.79 148.5,-51.58 151.71,-48.38 154.92,-48.38 154.92,-48.38 218.08,-48.38 218.08,-48.38 221.29,-48.38 224.5,-51.58 224.5,-54.79 224.5,-54.79 224.5,-61.21 224.5,-61.21 224.5,-64.42 221.29,-67.62 218.08,-67.62"/>
<text text-anchor="start" x="156.5" y="-55.08" font-family="Helvetica,sans-Serif" font-size="9.00">VideoCard.vue</text>
</a>
</g>
</g>
<!-- src/stores/videosStore.ts -->
<g id="node3" class="node">
<title>src/stores/videosStore.ts</title>
<g id="a_node3"><a xlink:href="src/stores/videosStore.ts" xlink:title="videosStore.ts">
<path fill="#ddfeff" stroke="black" d="M332.83,-57.62C332.83,-57.62 271.17,-57.62 271.17,-57.62 267.96,-57.62 264.75,-54.42 264.75,-51.21 264.75,-51.21 264.75,-44.79 264.75,-44.79 264.75,-41.58 267.96,-38.38 271.17,-38.38 271.17,-38.38 332.83,-38.38 332.83,-38.38 336.04,-38.38 339.25,-41.58 339.25,-44.79 339.25,-44.79 339.25,-51.21 339.25,-51.21 339.25,-54.42 336.04,-57.62 332.83,-57.62"/>
<text text-anchor="start" x="272.75" y="-45.08" font-family="Helvetica,sans-Serif" font-size="9.00">videosStore.ts</text>
</a>
</g>
</g>
<!-- src/components/VideoCard.vue&#45;&gt;src/stores/videosStore.ts -->
<g id="edge1" class="edge">
<title>src/components/VideoCard.vue&#45;&gt;src/stores/videosStore.ts</title>
<path fill="none" stroke="#000000" stroke-width="2" stroke-opacity="0.200000" d="M224.98,-54.7C234.77,-53.84 245.42,-52.9 255.58,-52"/>
<polygon fill="#000000" fill-opacity="0.200000" stroke="#000000" stroke-width="2" stroke-opacity="0.200000" points="255.53,-54.11 261.32,-51.5 255.16,-49.93 255.53,-54.11"/>
</g>
<!-- src/stores/videosStore.ts&#45;&gt;src/application/index.ts -->
<g id="edge4" class="edge">
<title>src/stores/videosStore.ts&#45;&gt;src/application/index.ts</title>
<path fill="none" stroke="#000000" stroke-width="2" stroke-opacity="0.200000" d="M339.58,-57.75C344.46,-59.05 349.45,-60.39 354.3,-61.68"/>
<polygon fill="#000000" fill-opacity="0.200000" stroke="#000000" stroke-width="2" stroke-opacity="0.200000" points="353.55,-63.65 359.89,-63.17 354.64,-59.6 353.55,-63.65"/>
</g>
<!-- src/components/inputs/FolderSelector.vue -->
<g id="node4" class="node">
<title>src/components/inputs/FolderSelector.vue</title>
<g id="a_node4"><a xlink:href="src/components/inputs/FolderSelector.vue" xlink:title="FolderSelector.vue">
<path fill="#41f083" stroke="black" d="M226.33,-103.62C226.33,-103.62 146.67,-103.62 146.67,-103.62 143.46,-103.62 140.25,-100.42 140.25,-97.21 140.25,-97.21 140.25,-90.79 140.25,-90.79 140.25,-87.58 143.46,-84.38 146.67,-84.38 146.67,-84.38 226.33,-84.38 226.33,-84.38 229.54,-84.38 232.75,-87.58 232.75,-90.79 232.75,-90.79 232.75,-97.21 232.75,-97.21 232.75,-100.42 229.54,-103.62 226.33,-103.62"/>
<text text-anchor="start" x="148.25" y="-91.08" font-family="Helvetica,sans-Serif" font-size="9.00">FolderSelector.vue</text>
</a>
</g>
</g>
<!-- src/components/inputs/FolderSelector.vue&#45;&gt;src/application/index.ts -->
<g id="edge2" class="edge">
<title>src/components/inputs/FolderSelector.vue&#45;&gt;src/application/index.ts</title>
<path fill="none" stroke="#000000" stroke-width="2" stroke-opacity="0.200000" d="M233.12,-96.44C265.36,-97.16 309.39,-96.11 347.25,-88 351.45,-87.1 355.77,-85.81 359.97,-84.34"/>
<polygon fill="#000000" fill-opacity="0.200000" stroke="#000000" stroke-width="2" stroke-opacity="0.200000" points="360.66,-86.32 365.51,-82.21 359.16,-82.4 360.66,-86.32"/>
</g>
<!-- src/components/inputs/FolderSelector.vue&#45;&gt;src/stores/videosStore.ts -->
<g id="edge3" class="edge">
<title>src/components/inputs/FolderSelector.vue&#45;&gt;src/stores/videosStore.ts</title>
<path fill="none" stroke="#000000" stroke-width="2" stroke-opacity="0.200000" d="M233.17,-85.3C238.5,-83.78 243.8,-82.02 248.75,-80 259.68,-75.55 270.95,-68.94 280.21,-62.89"/>
<polygon fill="#000000" fill-opacity="0.200000" stroke="#000000" stroke-width="2" stroke-opacity="0.200000" points="281.16,-64.78 284.96,-59.69 278.81,-61.3 281.16,-64.78"/>
</g>
<!-- src/views/NavBar.vue -->
<g id="node5" class="node">
<title>src/views/NavBar.vue</title>
<g id="a_node5"><a xlink:href="src/views/NavBar.vue" xlink:title="NavBar.vue">
<path fill="#41f083" stroke="black" d="M90.96,-86.62C90.96,-86.62 41.29,-86.62 41.29,-86.62 38.08,-86.62 34.88,-83.42 34.88,-80.21 34.88,-80.21 34.88,-73.79 34.88,-73.79 34.88,-70.58 38.08,-67.38 41.29,-67.38 41.29,-67.38 90.96,-67.38 90.96,-67.38 94.17,-67.38 97.38,-70.58 97.38,-73.79 97.38,-73.79 97.38,-80.21 97.38,-80.21 97.38,-83.42 94.17,-86.62 90.96,-86.62"/>
<text text-anchor="start" x="42.88" y="-74.08" font-family="Helvetica,sans-Serif" font-size="9.00">NavBar.vue</text>
</a>
</g>
</g>
<!-- src/views/NavBar.vue&#45;&gt;src/stores/videosStore.ts -->
<g id="edge6" class="edge">
<title>src/views/NavBar.vue&#45;&gt;src/stores/videosStore.ts</title>
<path fill="none" stroke="#000000" stroke-width="2" stroke-opacity="0.200000" d="M97.66,-72.58C104.47,-70.35 111.17,-67.01 116.25,-62 124.55,-53.81 114.83,-43.88 124.25,-37 146.6,-20.69 221.23,-34.13 248.75,-37 250.97,-37.23 253.23,-37.52 255.51,-37.84"/>
<polygon fill="#000000" fill-opacity="0.200000" stroke="#000000" stroke-width="2" stroke-opacity="0.200000" points="255.08,-39.9 261.34,-38.79 255.76,-35.75 255.08,-39.9"/>
</g>
<!-- src/views/NavBar.vue&#45;&gt;src/components/inputs/FolderSelector.vue -->
<g id="edge5" class="edge">
<title>src/views/NavBar.vue&#45;&gt;src/components/inputs/FolderSelector.vue</title>
<path fill="none" stroke="#000000" stroke-width="2" stroke-opacity="0.200000" d="M97.61,-81.38C107.87,-82.85 119.65,-84.54 131.19,-86.2"/>
<polygon fill="#000000" fill-opacity="0.200000" stroke="#000000" stroke-width="2" stroke-opacity="0.200000" points="130.69,-88.25 136.93,-87.03 131.29,-84.09 130.69,-88.25"/>
</g>
<!-- src/views/VideoGallery.vue -->
<g id="node6" class="node">
<title>src/views/VideoGallery.vue</title>
<g id="a_node6"><a xlink:href="src/views/VideoGallery.vue" xlink:title="VideoGallery.vue">
<path fill="#41f083" stroke="black" d="M101.83,-55.62C101.83,-55.62 30.42,-55.62 30.42,-55.62 27.21,-55.62 24,-52.42 24,-49.21 24,-49.21 24,-42.79 24,-42.79 24,-39.58 27.21,-36.38 30.42,-36.38 30.42,-36.38 101.83,-36.38 101.83,-36.38 105.04,-36.38 108.25,-39.58 108.25,-42.79 108.25,-42.79 108.25,-49.21 108.25,-49.21 108.25,-52.42 105.04,-55.62 101.83,-55.62"/>
<text text-anchor="start" x="32" y="-43.08" font-family="Helvetica,sans-Serif" font-size="9.00">VideoGallery.vue</text>
</a>
</g>
</g>
<!-- src/views/VideoGallery.vue&#45;&gt;src/components/VideoCard.vue -->
<g id="edge7" class="edge">
<title>src/views/VideoGallery.vue&#45;&gt;src/components/VideoCard.vue</title>
<path fill="none" stroke="#000000" stroke-width="2" stroke-opacity="0.200000" d="M108.53,-50.2C118.53,-51.21 129.28,-52.3 139.48,-53.34"/>
<polygon fill="#000000" fill-opacity="0.200000" stroke="#000000" stroke-width="2" stroke-opacity="0.200000" points="139.08,-55.41 145.26,-53.92 139.5,-51.23 139.08,-55.41"/>
</g>
<!-- src/views/VideoGallery.vue&#45;&gt;src/stores/videosStore.ts -->
<g id="edge8" class="edge">
<title>src/views/VideoGallery.vue&#45;&gt;src/stores/videosStore.ts</title>
<path fill="none" stroke="#000000" stroke-width="2" stroke-opacity="0.200000" d="M91.71,-35.9C101.64,-32.33 113.31,-28.77 124.25,-27 178.87,-18.15 194.42,-16.49 248.75,-27 256.93,-28.58 265.45,-31.44 273.18,-34.54"/>
<polygon fill="#000000" fill-opacity="0.200000" stroke="#000000" stroke-width="2" stroke-opacity="0.200000" points="272.07,-36.35 278.42,-36.77 273.72,-32.49 272.07,-36.35"/>
</g>
</g>
</svg>
