<?xml version="1.0" encoding="UTF-8" standalone="no"?>
<!DOCTYPE svg PUBLIC "-//W3C//DTD SVG 1.1//EN"
 "http://www.w3.org/Graphics/SVG/1.1/DTD/svg11.dtd">
<!-- Generated by graphviz version 9.0.0 (20230911.1827)
 -->
<!-- Title: dependency&#45;cruiser output Pages: 1 -->
<svg width="219pt" height="208pt"
 viewBox="0.00 0.00 219.00 208.00" xmlns="http://www.w3.org/2000/svg" xmlns:xlink="http://www.w3.org/1999/xlink">
<g id="graph0" class="graph" transform="scale(1 1) rotate(0) translate(4 204)">
<title>dependency&#45;cruiser output</title>
<polygon fill="white" stroke="none" points="-4,4 -4,-204 215,-204 215,4 -4,4"/>
<g id="clust1" class="cluster">
<title>cluster_src</title>
<path fill="#ffffff" stroke="black" stroke-width="2" d="M20,-8C20,-8 191,-8 191,-8 197,-8 203,-14 203,-20 203,-20 203,-180 203,-180 203,-186 197,-192 191,-192 191,-192 20,-192 20,-192 14,-192 8,-186 8,-180 8,-180 8,-20 8,-20 8,-14 14,-8 20,-8"/>
<text text-anchor="middle" x="105.5" y="-179.45" font-family="Helvetica,sans-Serif" font-weight="bold" font-size="9.00">src</text>
</g>
<g id="clust3" class="cluster">
<title>cluster_src/domain</title>
<path fill="#ffffff" stroke="black" stroke-width="2" d="M121.5,-110C121.5,-110 167.5,-110 167.5,-110 173.5,-110 179.5,-116 179.5,-122 179.5,-122 179.5,-153 179.5,-153 179.5,-159 173.5,-165 167.5,-165 167.5,-165 121.5,-165 121.5,-165 115.5,-165 109.5,-159 109.5,-153 109.5,-153 109.5,-122 109.5,-122 109.5,-116 115.5,-110 121.5,-110"/>
<text text-anchor="middle" x="144.5" y="-152.45" font-family="Helvetica,sans-Serif" font-weight="bold" font-size="9.00">domain</text>
</g>
<g id="clust2" class="cluster">
<title>cluster_src/application</title>
<path fill="#ffffff" stroke="black" stroke-width="2" d="M106,-16C106,-16 183,-16 183,-16 189,-16 195,-22 195,-28 195,-28 195,-90 195,-90 195,-96 189,-102 183,-102 183,-102 106,-102 106,-102 100,-102 94,-96 94,-90 94,-90 94,-28 94,-28 94,-22 100,-16 106,-16"/>
<text text-anchor="middle" x="144.5" y="-89.45" font-family="Helvetica,sans-Serif" font-weight="bold" font-size="9.00">application</text>
</g>
<g id="clust4" class="cluster">
<title>cluster_src/presentation</title>
<path fill="#ffffff" stroke="black" stroke-width="2" d="M28,-47C28,-47 74,-47 74,-47 80,-47 86,-53 86,-59 86,-59 86,-90 86,-90 86,-96 80,-102 74,-102 74,-102 28,-102 28,-102 22,-102 16,-96 16,-90 16,-90 16,-59 16,-59 16,-53 22,-47 28,-47"/>
<text text-anchor="middle" x="51" y="-89.45" font-family="Helvetica,sans-Serif" font-weight="bold" font-size="9.00">presentation</text>
</g>
<!-- src/application/dependencies.ts -->
<g id="node1" class="node">
<title>src/application/dependencies.ts</title>
<g id="a_node1"><a xlink:href="src/application/dependencies.ts" xlink:title="dependencies.ts">
<path fill="#ddfeff" stroke="black" d="M180.58,-74.62C180.58,-74.62 108.42,-74.62 108.42,-74.62 105.21,-74.62 102,-71.42 102,-68.21 102,-68.21 102,-61.79 102,-61.79 102,-58.58 105.21,-55.38 108.42,-55.38 108.42,-55.38 180.58,-55.38 180.58,-55.38 183.79,-55.38 187,-58.58 187,-61.79 187,-61.79 187,-68.21 187,-68.21 187,-71.42 183.79,-74.62 180.58,-74.62"/>
<text text-anchor="start" x="110" y="-62.08" font-family="Helvetica,sans-Serif" font-size="9.00">dependencies.ts</text>
</a>
</g>
</g>
<!-- src/application/services -->
<g id="node2" class="node">
<title>src/application/services</title>
<g id="a_node2"><a xlink:href="src/application/services" xlink:title="services">
<polygon fill="#ffffcc" stroke="black" points="171.5,-43.62 119.64,-43.62 117.5,-41.49 117.5,-24.38 169.36,-24.38 171.5,-26.51 171.5,-43.62"/>
<polyline fill="none" stroke="black" points="169.36,-41.49 117.5,-41.49"/>
<polyline fill="none" stroke="black" points="169.36,-41.49 169.36,-24.38"/>
<polyline fill="none" stroke="black" points="169.36,-41.49 171.5,-43.62"/>
<text text-anchor="start" x="127.25" y="-31.07" font-family="Helvetica,sans-Serif" font-size="9.00">services</text>
</a>
</g>
</g>
<!-- src/domain/entities -->
<g id="node3" class="node">
<title>src/domain/entities</title>
<g id="a_node3"><a xlink:href="src/domain/entities" xlink:title="entities">
<polygon fill="#ffffcc" stroke="black" points="171.5,-137.62 119.64,-137.62 117.5,-135.49 117.5,-118.38 169.36,-118.38 171.5,-120.51 171.5,-137.62"/>
<polyline fill="none" stroke="black" points="169.36,-135.49 117.5,-135.49"/>
<polyline fill="none" stroke="black" points="169.36,-135.49 169.36,-118.38"/>
<polyline fill="none" stroke="black" points="169.36,-135.49 171.5,-137.62"/>
<text text-anchor="start" x="129.5" y="-125.08" font-family="Helvetica,sans-Serif" font-size="9.00">entities</text>
</a>
</g>
</g>
<!-- src/presentation/stores -->
<g id="node4" class="node">
<title>src/presentation/stores</title>
<g id="a_node4"><a xlink:href="src/presentation/stores" xlink:title="stores">
<polygon fill="#ffffcc" stroke="black" points="78,-74.62 26.14,-74.62 24,-72.49 24,-55.38 75.86,-55.38 78,-57.51 78,-74.62"/>
<polyline fill="none" stroke="black" points="75.86,-72.49 24,-72.49"/>
<polyline fill="none" stroke="black" points="75.86,-72.49 75.86,-55.38"/>
<polyline fill="none" stroke="black" points="75.86,-72.49 78,-74.62"/>
<text text-anchor="start" x="37.88" y="-62.08" font-family="Helvetica,sans-Serif" font-size="9.00">stores</text>
</a>
</g>
</g>
<!-- src/presentation/stores&#45;&gt;src/application/dependencies.ts -->
<g id="edge1" class="edge">
<title>src/presentation/stores&#45;&gt;src/application/dependencies.ts</title>
<path fill="none" stroke="#000000" stroke-width="2" stroke-opacity="0.200000" d="M78.47,-65C83.02,-65 87.88,-65 92.82,-65"/>
<polygon fill="#000000" fill-opacity="0.200000" stroke="#000000" stroke-width="2" stroke-opacity="0.200000" points="92.72,-67.1 98.72,-65 92.72,-62.9 92.72,-67.1"/>
</g>
<!-- src/presentation/stores&#45;&gt;src/application/services -->
<g id="edge2" class="edge">
<title>src/presentation/stores&#45;&gt;src/application/services</title>
<path fill="none" stroke="#000000" stroke-width="2" stroke-opacity="0.200000" d="M77.66,-54.9C83.04,-52.88 88.68,-50.82 94,-49 98.79,-47.36 103.87,-45.72 108.88,-44.15"/>
<polygon fill="#000000" fill-opacity="0.200000" stroke="#000000" stroke-width="2" stroke-opacity="0.200000" points="109.18,-46.26 114.29,-42.49 107.94,-42.25 109.18,-46.26"/>
</g>
<!-- src/presentation/stores&#45;&gt;src/domain/entities -->
<g id="edge3" class="edge">
<title>src/presentation/stores&#45;&gt;src/domain/entities</title>
<path fill="none" stroke="#000000" stroke-opacity="0.200000" d="M60.59,-74.83C68.59,-83.57 81.18,-96.27 94,-105 99.24,-108.57 105.11,-111.84 110.94,-114.73"/>
<polygon fill="none" stroke="#000000" stroke-opacity="0.200000" points="110.02,-116.62 116.34,-117.29 111.82,-112.82 110.02,-116.62"/>
</g>
</g>
</svg>
