<?xml version="1.0" encoding="UTF-8" standalone="no"?>
<!DOCTYPE svg PUBLIC "-//W3C//DTD SVG 1.1//EN"
 "http://www.w3.org/Graphics/SVG/1.1/DTD/svg11.dtd">
<!-- Generated by graphviz version 9.0.0 (20230911.1827)
 -->
<!-- Title: dependency&#45;cruiser output Pages: 1 -->
<svg width="425pt" height="201pt"
 viewBox="0.00 0.00 424.50 201.00" xmlns="http://www.w3.org/2000/svg" xmlns:xlink="http://www.w3.org/1999/xlink">
<g id="graph0" class="graph" transform="scale(1 1) rotate(0) translate(4 197)">
<title>dependency&#45;cruiser output</title>
<polygon fill="white" stroke="none" points="-4,4 -4,-197 420.5,-197 420.5,4 -4,4"/>
<g id="clust1" class="cluster">
<title>cluster_src</title>
<path fill="#ffffff" stroke="black" stroke-width="2" d="M20,-8C20,-8 396.5,-8 396.5,-8 402.5,-8 408.5,-14 408.5,-20 408.5,-20 408.5,-173 408.5,-173 408.5,-179 402.5,-185 396.5,-185 396.5,-185 20,-185 20,-185 14,-185 8,-179 8,-173 8,-173 8,-20 8,-20 8,-14 14,-8 20,-8"/>
<text text-anchor="middle" x="208.25" y="-172.45" font-family="Helvetica,sans-Serif" font-weight="bold" font-size="9.00">src</text>
</g>
<g id="clust2" class="cluster">
<title>cluster_src/application</title>
<path fill="#ffffff" stroke="black" stroke-width="2" d="M342.5,-40C342.5,-40 388.5,-40 388.5,-40 394.5,-40 400.5,-46 400.5,-52 400.5,-52 400.5,-83 400.5,-83 400.5,-89 394.5,-95 388.5,-95 388.5,-95 342.5,-95 342.5,-95 336.5,-95 330.5,-89 330.5,-83 330.5,-83 330.5,-52 330.5,-52 330.5,-46 336.5,-40 342.5,-40"/>
<text text-anchor="middle" x="365.5" y="-82.45" font-family="Helvetica,sans-Serif" font-weight="bold" font-size="9.00">application</text>
</g>
<g id="clust3" class="cluster">
<title>cluster_src/components</title>
<path fill="#ffffff" stroke="black" stroke-width="2" d="M136.25,-40C136.25,-40 212,-40 212,-40 218,-40 224,-46 224,-52 224,-52 224,-146 224,-146 224,-152 218,-158 212,-158 212,-158 136.25,-158 136.25,-158 130.25,-158 124.25,-152 124.25,-146 124.25,-146 124.25,-52 124.25,-52 124.25,-46 130.25,-40 136.25,-40"/>
<text text-anchor="middle" x="174.12" y="-145.45" font-family="Helvetica,sans-Serif" font-weight="bold" font-size="9.00">components</text>
</g>
<g id="clust4" class="cluster">
<title>cluster_src/components/inputs</title>
<path fill="#ffffff" stroke="black" stroke-width="2" d="M144.25,-48C144.25,-48 204,-48 204,-48 210,-48 216,-54 216,-60 216,-60 216,-91 216,-91 216,-97 210,-103 204,-103 204,-103 144.25,-103 144.25,-103 138.25,-103 132.25,-97 132.25,-91 132.25,-91 132.25,-60 132.25,-60 132.25,-54 138.25,-48 144.25,-48"/>
<text text-anchor="middle" x="174.12" y="-90.45" font-family="Helvetica,sans-Serif" font-weight="bold" font-size="9.00">inputs</text>
</g>
<g id="clust5" class="cluster">
<title>cluster_src/domain</title>
<path fill="#ffffff" stroke="black" stroke-width="2" d="M342.5,-103C342.5,-103 388.5,-103 388.5,-103 394.5,-103 400.5,-109 400.5,-115 400.5,-115 400.5,-146 400.5,-146 400.5,-152 394.5,-158 388.5,-158 388.5,-158 342.5,-158 342.5,-158 336.5,-158 330.5,-152 330.5,-146 330.5,-146 330.5,-115 330.5,-115 330.5,-109 336.5,-103 342.5,-103"/>
<text text-anchor="middle" x="365.5" y="-145.45" font-family="Helvetica,sans-Serif" font-weight="bold" font-size="9.00">domain</text>
</g>
<g id="clust6" class="cluster">
<title>cluster_src/stores</title>
<path fill="#ffffff" stroke="black" stroke-width="2" d="M244,-44C244,-44 310.5,-44 310.5,-44 316.5,-44 322.5,-50 322.5,-56 322.5,-56 322.5,-87 322.5,-87 322.5,-93 316.5,-99 310.5,-99 310.5,-99 244,-99 244,-99 238,-99 232,-93 232,-87 232,-87 232,-56 232,-56 232,-50 238,-44 244,-44"/>
<text text-anchor="middle" x="277.25" y="-86.45" font-family="Helvetica,sans-Serif" font-weight="bold" font-size="9.00">stores</text>
</g>
<g id="clust7" class="cluster">
<title>cluster_src/views</title>
<path fill="#ffffff" stroke="black" stroke-width="2" d="M28,-32C28,-32 104.25,-32 104.25,-32 110.25,-32 116.25,-38 116.25,-44 116.25,-44 116.25,-106 116.25,-106 116.25,-112 110.25,-118 104.25,-118 104.25,-118 28,-118 28,-118 22,-118 16,-112 16,-106 16,-106 16,-44 16,-44 16,-38 22,-32 28,-32"/>
<text text-anchor="middle" x="66.12" y="-105.45" font-family="Helvetica,sans-Serif" font-weight="bold" font-size="9.00">views</text>
</g>
<!-- src/application/index.ts -->
<g id="node1" class="node">
<title>src/application/index.ts</title>
<g id="a_node1"><a xlink:href="src/application/index.ts" xlink:title="index.ts">
<path fill="#ddfeff" stroke="black" d="M386.08,-67.62C386.08,-67.62 344.92,-67.62 344.92,-67.62 341.71,-67.62 338.5,-64.42 338.5,-61.21 338.5,-61.21 338.5,-54.79 338.5,-54.79 338.5,-51.58 341.71,-48.38 344.92,-48.38 344.92,-48.38 386.08,-48.38 386.08,-48.38 389.29,-48.38 392.5,-51.58 392.5,-54.79 392.5,-54.79 392.5,-61.21 392.5,-61.21 392.5,-64.42 389.29,-67.62 386.08,-67.62"/>
<text text-anchor="start" x="349.75" y="-55.08" font-family="Helvetica,sans-Serif" font-size="9.00">index.ts</text>
</a>
</g>
</g>
<!-- src/components/VideoCard.vue -->
<g id="node2" class="node">
<title>src/components/VideoCard.vue</title>
<g id="a_node2"><a xlink:href="src/components/VideoCard.vue" xlink:title="VideoCard.vue">
<path fill="#41f083" stroke="black" d="M205.71,-130.62C205.71,-130.62 142.54,-130.62 142.54,-130.62 139.33,-130.62 136.12,-127.42 136.12,-124.21 136.12,-124.21 136.12,-117.79 136.12,-117.79 136.12,-114.58 139.33,-111.38 142.54,-111.38 142.54,-111.38 205.71,-111.38 205.71,-111.38 208.92,-111.38 212.12,-114.58 212.12,-117.79 212.12,-117.79 212.12,-124.21 212.12,-124.21 212.12,-127.42 208.92,-130.62 205.71,-130.62"/>
<text text-anchor="start" x="144.12" y="-118.08" font-family="Helvetica,sans-Serif" font-size="9.00">VideoCard.vue</text>
</a>
</g>
</g>
<!-- src/domain/index.ts -->
<g id="node3" class="node">
<title>src/domain/index.ts</title>
<g id="a_node3"><a xlink:href="src/domain/index.ts" xlink:title="index.ts">
<path fill="#ddfeff" stroke="black" d="M386.08,-130.62C386.08,-130.62 344.92,-130.62 344.92,-130.62 341.71,-130.62 338.5,-127.42 338.5,-124.21 338.5,-124.21 338.5,-117.79 338.5,-117.79 338.5,-114.58 341.71,-111.38 344.92,-111.38 344.92,-111.38 386.08,-111.38 386.08,-111.38 389.29,-111.38 392.5,-114.58 392.5,-117.79 392.5,-117.79 392.5,-124.21 392.5,-124.21 392.5,-127.42 389.29,-130.62 386.08,-130.62"/>
<text text-anchor="start" x="349.75" y="-118.08" font-family="Helvetica,sans-Serif" font-size="9.00">index.ts</text>
</a>
</g>
</g>
<!-- src/components/VideoCard.vue&#45;&gt;src/domain/index.ts -->
<g id="edge1" class="edge">
<title>src/components/VideoCard.vue&#45;&gt;src/domain/index.ts</title>
<path fill="none" stroke="#000000" stroke-opacity="0.200000" d="M212.54,-121C247.01,-121 297.71,-121 330.91,-121"/>
<polygon fill="none" stroke="#000000" stroke-opacity="0.200000" points="330.62,-123.1 336.62,-121 330.62,-118.9 330.62,-123.1"/>
</g>
<!-- src/stores/videosStore.ts -->
<g id="node4" class="node">
<title>src/stores/videosStore.ts</title>
<g id="a_node4"><a xlink:href="src/stores/videosStore.ts" xlink:title="videosStore.ts">
<path fill="#ddfeff" stroke="black" d="M308.08,-71.62C308.08,-71.62 246.42,-71.62 246.42,-71.62 243.21,-71.62 240,-68.42 240,-65.21 240,-65.21 240,-58.79 240,-58.79 240,-55.58 243.21,-52.38 246.42,-52.38 246.42,-52.38 308.08,-52.38 308.08,-52.38 311.29,-52.38 314.5,-55.58 314.5,-58.79 314.5,-58.79 314.5,-65.21 314.5,-65.21 314.5,-68.42 311.29,-71.62 308.08,-71.62"/>
<text text-anchor="start" x="248" y="-59.08" font-family="Helvetica,sans-Serif" font-size="9.00">videosStore.ts</text>
</a>
</g>
</g>
<!-- src/components/VideoCard.vue&#45;&gt;src/stores/videosStore.ts -->
<g id="edge2" class="edge">
<title>src/components/VideoCard.vue&#45;&gt;src/stores/videosStore.ts</title>
<path fill="none" stroke="#000000" stroke-width="2" stroke-opacity="0.200000" d="M212.6,-111.22C216.54,-109.69 220.41,-107.95 224,-106 237.41,-98.7 250.55,-87.61 260.29,-78.39"/>
<polygon fill="#000000" fill-opacity="0.200000" stroke="#000000" stroke-width="2" stroke-opacity="0.200000" points="261.75,-79.9 264.58,-74.21 258.82,-76.9 261.75,-79.9"/>
</g>
<!-- src/stores/videosStore.ts&#45;&gt;src/application/index.ts -->
<g id="edge4" class="edge">
<title>src/stores/videosStore.ts&#45;&gt;src/application/index.ts</title>
<path fill="none" stroke="#000000" stroke-width="2" stroke-opacity="0.200000" d="M314.83,-60.3C319.58,-60.08 324.45,-59.86 329.18,-59.64"/>
<polygon fill="#000000" fill-opacity="0.200000" stroke="#000000" stroke-width="2" stroke-opacity="0.200000" points="329.15,-61.74 335.04,-59.37 328.95,-57.55 329.15,-61.74"/>
</g>
<!-- src/stores/videosStore.ts&#45;&gt;src/domain/index.ts -->
<g id="edge5" class="edge">
<title>src/stores/videosStore.ts&#45;&gt;src/domain/index.ts</title>
<path fill="none" stroke="#000000" stroke-opacity="0.200000" d="M292.87,-72.12C303.33,-79.35 317.76,-89.3 330.5,-98 334.69,-100.86 339.18,-103.91 343.48,-106.82"/>
<polygon fill="none" stroke="#000000" stroke-opacity="0.200000" points="342.19,-108.48 348.33,-110.1 344.54,-105 342.19,-108.48"/>
</g>
<!-- src/components/inputs/FileInput.vue -->
<g id="node5" class="node">
<title>src/components/inputs/FileInput.vue</title>
<g id="a_node5"><a xlink:href="src/components/inputs/FileInput.vue" xlink:title="FileInput.vue">
<path fill="#41f083" stroke="black" d="M201.58,-75.62C201.58,-75.62 146.67,-75.62 146.67,-75.62 143.46,-75.62 140.25,-72.42 140.25,-69.21 140.25,-69.21 140.25,-62.79 140.25,-62.79 140.25,-59.58 143.46,-56.38 146.67,-56.38 146.67,-56.38 201.58,-56.38 201.58,-56.38 204.79,-56.38 208,-59.58 208,-62.79 208,-62.79 208,-69.21 208,-69.21 208,-72.42 204.79,-75.62 201.58,-75.62"/>
<text text-anchor="start" x="148.25" y="-63.08" font-family="Helvetica,sans-Serif" font-size="9.00">FileInput.vue</text>
</a>
</g>
</g>
<!-- src/components/inputs/FileInput.vue&#45;&gt;src/stores/videosStore.ts -->
<g id="edge3" class="edge">
<title>src/components/inputs/FileInput.vue&#45;&gt;src/stores/videosStore.ts</title>
<path fill="none" stroke="#000000" stroke-width="2" stroke-opacity="0.200000" d="M208.24,-64.69C215.44,-64.41 223.18,-64.1 230.77,-63.8"/>
<polygon fill="#000000" fill-opacity="0.200000" stroke="#000000" stroke-width="2" stroke-opacity="0.200000" points="230.63,-65.91 236.54,-63.57 230.46,-61.71 230.63,-65.91"/>
</g>
<!-- src/views/NavBar.vue -->
<g id="node6" class="node">
<title>src/views/NavBar.vue</title>
<g id="a_node6"><a xlink:href="src/views/NavBar.vue" xlink:title="NavBar.vue">
<path fill="#41f083" stroke="black" d="M90.96,-59.62C90.96,-59.62 41.29,-59.62 41.29,-59.62 38.08,-59.62 34.88,-56.42 34.88,-53.21 34.88,-53.21 34.88,-46.79 34.88,-46.79 34.88,-43.58 38.08,-40.38 41.29,-40.38 41.29,-40.38 90.96,-40.38 90.96,-40.38 94.17,-40.38 97.38,-43.58 97.38,-46.79 97.38,-46.79 97.38,-53.21 97.38,-53.21 97.38,-56.42 94.17,-59.62 90.96,-59.62"/>
<text text-anchor="start" x="42.88" y="-47.08" font-family="Helvetica,sans-Serif" font-size="9.00">NavBar.vue</text>
</a>
</g>
</g>
<!-- src/views/NavBar.vue&#45;&gt;src/stores/videosStore.ts -->
<g id="edge7" class="edge">
<title>src/views/NavBar.vue&#45;&gt;src/stores/videosStore.ts</title>
<path fill="none" stroke="#000000" stroke-width="2" stroke-opacity="0.200000" d="M86.65,-39.97C97.43,-35 111.23,-29.52 124.25,-27 167.77,-18.57 181.58,-14.11 224,-27 236.82,-30.9 249.36,-39.1 258.93,-46.59"/>
<polygon fill="#000000" fill-opacity="0.200000" stroke="#000000" stroke-width="2" stroke-opacity="0.200000" points="257.33,-47.98 263.3,-50.17 259.99,-44.74 257.33,-47.98"/>
</g>
<!-- src/views/NavBar.vue&#45;&gt;src/components/inputs/FileInput.vue -->
<g id="edge6" class="edge">
<title>src/views/NavBar.vue&#45;&gt;src/components/inputs/FileInput.vue</title>
<path fill="none" stroke="#000000" stroke-width="2" stroke-opacity="0.200000" d="M97.78,-54.63C108.21,-56.2 120.04,-57.99 131.19,-59.67"/>
<polygon fill="#000000" fill-opacity="0.200000" stroke="#000000" stroke-width="2" stroke-opacity="0.200000" points="130.7,-61.72 136.95,-60.54 131.33,-57.57 130.7,-61.72"/>
</g>
<!-- src/views/VideoGallery.vue -->
<g id="node7" class="node">
<title>src/views/VideoGallery.vue</title>
<g id="a_node7"><a xlink:href="src/views/VideoGallery.vue" xlink:title="VideoGallery.vue">
<path fill="#41f083" stroke="black" d="M101.83,-90.62C101.83,-90.62 30.42,-90.62 30.42,-90.62 27.21,-90.62 24,-87.42 24,-84.21 24,-84.21 24,-77.79 24,-77.79 24,-74.58 27.21,-71.38 30.42,-71.38 30.42,-71.38 101.83,-71.38 101.83,-71.38 105.04,-71.38 108.25,-74.58 108.25,-77.79 108.25,-77.79 108.25,-84.21 108.25,-84.21 108.25,-87.42 105.04,-90.62 101.83,-90.62"/>
<text text-anchor="start" x="32" y="-78.08" font-family="Helvetica,sans-Serif" font-size="9.00">VideoGallery.vue</text>
</a>
</g>
</g>
<!-- src/views/VideoGallery.vue&#45;&gt;src/components/VideoCard.vue -->
<g id="edge8" class="edge">
<title>src/views/VideoGallery.vue&#45;&gt;src/components/VideoCard.vue</title>
<path fill="none" stroke="#000000" stroke-width="2" stroke-opacity="0.200000" d="M88.59,-91.09C99.2,-95.9 112.27,-101.56 124.25,-106 126.25,-106.74 128.31,-107.48 130.4,-108.2"/>
<polygon fill="#000000" fill-opacity="0.200000" stroke="#000000" stroke-width="2" stroke-opacity="0.200000" points="129.29,-110.04 135.64,-109.96 130.62,-106.06 129.29,-110.04"/>
</g>
<!-- src/views/VideoGallery.vue&#45;&gt;src/stores/videosStore.ts -->
<g id="edge9" class="edge">
<title>src/views/VideoGallery.vue&#45;&gt;src/stores/videosStore.ts</title>
<path fill="none" stroke="#000000" stroke-width="2" stroke-opacity="0.200000" d="M108.41,-71.66C111.25,-70.06 113.9,-68.19 116.25,-66 123.55,-59.18 116.03,-50.67 124.25,-45 160.98,-19.69 214.96,-34.92 247.73,-48.38"/>
<polygon fill="#000000" fill-opacity="0.200000" stroke="#000000" stroke-width="2" stroke-opacity="0.200000" points="246.86,-50.29 253.2,-50.72 248.51,-46.43 246.86,-50.29"/>
</g>
</g>
</svg>
