<?xml version="1.0" encoding="UTF-8" standalone="no"?>
<!DOCTYPE svg PUBLIC "-//W3C//DTD SVG 1.1//EN"
 "http://www.w3.org/Graphics/SVG/1.1/DTD/svg11.dtd">
<!-- Generated by graphviz version 9.0.0 (20230911.1827)
 -->
<!-- Title: dependency&#45;cruiser output Pages: 1 -->
<svg width="621pt" height="417pt"
 viewBox="0.00 0.00 621.00 417.33" xmlns="http://www.w3.org/2000/svg" xmlns:xlink="http://www.w3.org/1999/xlink">
<g id="graph0" class="graph" transform="scale(1 1) rotate(0) translate(4 413.33)">
<title>dependency&#45;cruiser output</title>
<polygon fill="white" stroke="none" points="-4,4 -4,-413.33 617,-413.33 617,4 -4,4"/>
<g id="clust1" class="cluster">
<title>cluster_src</title>
<path fill="#ffffff" stroke="black" stroke-width="2" d="M20,-12.33C20,-12.33 593,-12.33 593,-12.33 599,-12.33 605,-18.33 605,-24.33 605,-24.33 605,-389.33 605,-389.33 605,-395.33 599,-401.33 593,-401.33 593,-401.33 20,-401.33 20,-401.33 14,-401.33 8,-395.33 8,-389.33 8,-389.33 8,-24.33 8,-24.33 8,-18.33 14,-12.33 20,-12.33"/>
<text text-anchor="middle" x="306.5" y="-388.78" font-family="Helvetica,sans-Serif" font-weight="bold" font-size="9.00">src</text>
</g>
<g id="clust2" class="cluster">
<title>cluster_src/application</title>
<path fill="#ffffff" stroke="black" stroke-width="2" d="M28,-20.33C28,-20.33 491,-20.33 491,-20.33 497,-20.33 503,-26.33 503,-32.33 503,-32.33 503,-202.33 503,-202.33 503,-208.33 497,-214.33 491,-214.33 491,-214.33 28,-214.33 28,-214.33 22,-214.33 16,-208.33 16,-202.33 16,-202.33 16,-32.33 16,-32.33 16,-26.33 22,-20.33 28,-20.33"/>
<text text-anchor="middle" x="259.5" y="-201.78" font-family="Helvetica,sans-Serif" font-weight="bold" font-size="9.00">application</text>
</g>
<g id="clust3" class="cluster">
<title>cluster_src/application/ports</title>
<path fill="#ffffff" stroke="black" stroke-width="2" d="M407.5,-132.33C407.5,-132.33 483,-132.33 483,-132.33 489,-132.33 495,-138.33 495,-144.33 495,-144.33 495,-175.33 495,-175.33 495,-181.33 489,-187.33 483,-187.33 483,-187.33 407.5,-187.33 407.5,-187.33 401.5,-187.33 395.5,-181.33 395.5,-175.33 395.5,-175.33 395.5,-144.33 395.5,-144.33 395.5,-138.33 401.5,-132.33 407.5,-132.33"/>
<text text-anchor="middle" x="445.25" y="-174.78" font-family="Helvetica,sans-Serif" font-weight="bold" font-size="9.00">ports</text>
</g>
<g id="clust6" class="cluster">
<title>cluster_src/application/usecases</title>
<path fill="#ffffff" stroke="black" stroke-width="2" d="M208.38,-101.33C208.38,-101.33 368.62,-101.33 368.62,-101.33 374.62,-101.33 380.62,-107.33 380.62,-113.33 380.62,-113.33 380.62,-175.33 380.62,-175.33 380.62,-181.33 374.62,-187.33 368.62,-187.33 368.62,-187.33 208.38,-187.33 208.38,-187.33 202.38,-187.33 196.38,-181.33 196.38,-175.33 196.38,-175.33 196.38,-113.33 196.38,-113.33 196.38,-107.33 202.38,-101.33 208.38,-101.33"/>
<text text-anchor="middle" x="288.5" y="-174.78" font-family="Helvetica,sans-Serif" font-weight="bold" font-size="9.00">usecases</text>
</g>
<g id="clust4" class="cluster">
<title>cluster_src/application/services</title>
<path fill="#ffffff" stroke="black" stroke-width="2" d="M265.5,-38.33C265.5,-38.33 311.5,-38.33 311.5,-38.33 317.5,-38.33 323.5,-44.33 323.5,-50.33 323.5,-50.33 323.5,-81.33 323.5,-81.33 323.5,-87.33 317.5,-93.33 311.5,-93.33 311.5,-93.33 265.5,-93.33 265.5,-93.33 259.5,-93.33 253.5,-87.33 253.5,-81.33 253.5,-81.33 253.5,-50.33 253.5,-50.33 253.5,-44.33 259.5,-38.33 265.5,-38.33"/>
<text text-anchor="middle" x="288.5" y="-80.78" font-family="Helvetica,sans-Serif" font-weight="bold" font-size="9.00">services</text>
</g>
<g id="clust5" class="cluster">
<title>cluster_src/application/stores</title>
<path fill="#ffffff" stroke="black" stroke-width="2" d="M36,-132.33C36,-132.33 169.5,-132.33 169.5,-132.33 175.5,-132.33 181.5,-138.33 181.5,-144.33 181.5,-144.33 181.5,-175.33 181.5,-175.33 181.5,-181.33 175.5,-187.33 169.5,-187.33 169.5,-187.33 36,-187.33 36,-187.33 30,-187.33 24,-181.33 24,-175.33 24,-175.33 24,-144.33 24,-144.33 24,-138.33 30,-132.33 36,-132.33"/>
<text text-anchor="middle" x="102.75" y="-174.78" font-family="Helvetica,sans-Serif" font-weight="bold" font-size="9.00">stores</text>
</g>
<g id="clust7" class="cluster">
<title>cluster_src/domain</title>
<path fill="#ffffff" stroke="black" stroke-width="2" d="M523,-147.33C523,-147.33 585,-147.33 585,-147.33 591,-147.33 597,-153.33 597,-159.33 597,-159.33 597,-225.33 597,-225.33 597,-231.33 591,-237.33 585,-237.33 585,-237.33 523,-237.33 523,-237.33 517,-237.33 511,-231.33 511,-225.33 511,-225.33 511,-159.33 511,-159.33 511,-153.33 517,-147.33 523,-147.33"/>
<text text-anchor="middle" x="554" y="-224.78" font-family="Helvetica,sans-Serif" font-weight="bold" font-size="9.00">domain</text>
</g>
<g id="clust8" class="cluster">
<title>cluster_src/domain/entities</title>
<path fill="#ffffff" stroke="black" stroke-width="2" d="M531,-155.33C531,-155.33 577,-155.33 577,-155.33 583,-155.33 589,-161.33 589,-167.33 589,-167.33 589,-198.33 589,-198.33 589,-204.33 583,-210.33 577,-210.33 577,-210.33 531,-210.33 531,-210.33 525,-210.33 519,-204.33 519,-198.33 519,-198.33 519,-167.33 519,-167.33 519,-161.33 525,-155.33 531,-155.33"/>
<text text-anchor="middle" x="554" y="-197.78" font-family="Helvetica,sans-Serif" font-weight="bold" font-size="9.00">entities</text>
</g>
<g id="clust9" class="cluster">
<title>cluster_src/infrastructure</title>
<path fill="#ffffff" stroke="black" stroke-width="2" d="M201.5,-222.33C201.5,-222.33 375.5,-222.33 375.5,-222.33 381.5,-222.33 387.5,-228.33 387.5,-234.33 387.5,-234.33 387.5,-362.33 387.5,-362.33 387.5,-368.33 381.5,-374.33 375.5,-374.33 375.5,-374.33 201.5,-374.33 201.5,-374.33 195.5,-374.33 189.5,-368.33 189.5,-362.33 189.5,-362.33 189.5,-234.33 189.5,-234.33 189.5,-228.33 195.5,-222.33 201.5,-222.33"/>
<text text-anchor="middle" x="288.5" y="-361.78" font-family="Helvetica,sans-Serif" font-weight="bold" font-size="9.00">infrastructure</text>
</g>
<g id="clust10" class="cluster">
<title>cluster_src/infrastructure/adapters</title>
<path fill="#ffffff" stroke="black" stroke-width="2" d="M209.5,-230.33C209.5,-230.33 367.5,-230.33 367.5,-230.33 373.5,-230.33 379.5,-236.33 379.5,-242.33 379.5,-242.33 379.5,-335.33 379.5,-335.33 379.5,-341.33 373.5,-347.33 367.5,-347.33 367.5,-347.33 209.5,-347.33 209.5,-347.33 203.5,-347.33 197.5,-341.33 197.5,-335.33 197.5,-335.33 197.5,-242.33 197.5,-242.33 197.5,-236.33 203.5,-230.33 209.5,-230.33"/>
<text text-anchor="middle" x="288.5" y="-334.78" font-family="Helvetica,sans-Serif" font-weight="bold" font-size="9.00">adapters</text>
</g>
<!-- src/application/ports/IVideoStorage.ts -->
<g id="node1" class="node">
<title>src/application/ports/IVideoStorage.ts</title>
<g id="a_node1"><a xlink:href="src/application/ports/IVideoStorage.ts" xlink:title="IVideoStorage.ts">
<path fill="#ddfeff" stroke="black" d="M480.58,-159.95C480.58,-159.95 409.92,-159.95 409.92,-159.95 406.71,-159.95 403.5,-156.74 403.5,-153.54 403.5,-153.54 403.5,-147.12 403.5,-147.12 403.5,-143.91 406.71,-140.7 409.92,-140.7 409.92,-140.7 480.58,-140.7 480.58,-140.7 483.79,-140.7 487,-143.91 487,-147.12 487,-147.12 487,-153.54 487,-153.54 487,-156.74 483.79,-159.95 480.58,-159.95"/>
<text text-anchor="start" x="411.5" y="-147.4" font-family="Helvetica,sans-Serif" font-size="9.00">IVideoStorage.ts</text>
</a>
</g>
</g>
<!-- src/domain/entities/index.ts -->
<g id="node2" class="node">
<title>src/domain/entities/index.ts</title>
<g id="a_node2"><a xlink:href="src/domain/entities/index.ts" xlink:title="index.ts">
<path fill="#ddfeff" stroke="black" d="M574.58,-182.95C574.58,-182.95 533.42,-182.95 533.42,-182.95 530.21,-182.95 527,-179.74 527,-176.54 527,-176.54 527,-170.12 527,-170.12 527,-166.91 530.21,-163.7 533.42,-163.7 533.42,-163.7 574.58,-163.7 574.58,-163.7 577.79,-163.7 581,-166.91 581,-170.12 581,-170.12 581,-176.54 581,-176.54 581,-179.74 577.79,-182.95 574.58,-182.95"/>
<text text-anchor="start" x="538.25" y="-170.4" font-family="Helvetica,sans-Serif" font-size="9.00">index.ts</text>
</a>
</g>
</g>
<!-- src/application/ports/IVideoStorage.ts&#45;&gt;src/domain/entities/index.ts -->
<g id="edge1" class="edge">
<title>src/application/ports/IVideoStorage.ts&#45;&gt;src/domain/entities/index.ts</title>
<path fill="none" stroke="#000000" stroke-opacity="0.200000" d="M487.22,-159.15C497.91,-161.46 509.31,-163.91 519.56,-166.12"/>
<polygon fill="none" stroke="#000000" stroke-opacity="0.200000" points="519,-168.15 525.31,-167.36 519.89,-164.05 519,-168.15"/>
</g>
<!-- src/application/services/index.ts -->
<g id="node3" class="node">
<title>src/application/services/index.ts</title>
<g id="a_node3"><a xlink:href="src/application/services/index.ts" xlink:title="index.ts">
<path fill="#ddfeff" stroke="black" d="M309.08,-65.95C309.08,-65.95 267.92,-65.95 267.92,-65.95 264.71,-65.95 261.5,-62.74 261.5,-59.54 261.5,-59.54 261.5,-53.12 261.5,-53.12 261.5,-49.91 264.71,-46.7 267.92,-46.7 267.92,-46.7 309.08,-46.7 309.08,-46.7 312.29,-46.7 315.5,-49.91 315.5,-53.12 315.5,-53.12 315.5,-59.54 315.5,-59.54 315.5,-62.74 312.29,-65.95 309.08,-65.95"/>
<text text-anchor="start" x="272.75" y="-53.4" font-family="Helvetica,sans-Serif" font-size="9.00">index.ts</text>
</a>
</g>
</g>
<!-- src/application/stores/index.ts -->
<g id="node4" class="node">
<title>src/application/stores/index.ts</title>
<g id="a_node4"><a xlink:href="src/application/stores/index.ts" xlink:title="index.ts">
<path fill="#ddfeff" stroke="black" d="M79.58,-159.95C79.58,-159.95 38.42,-159.95 38.42,-159.95 35.21,-159.95 32,-156.74 32,-153.54 32,-153.54 32,-147.12 32,-147.12 32,-143.91 35.21,-140.7 38.42,-140.7 38.42,-140.7 79.58,-140.7 79.58,-140.7 82.79,-140.7 86,-143.91 86,-147.12 86,-147.12 86,-153.54 86,-153.54 86,-156.74 82.79,-159.95 79.58,-159.95"/>
<text text-anchor="start" x="43.25" y="-147.4" font-family="Helvetica,sans-Serif" font-size="9.00">index.ts</text>
</a>
</g>
</g>
<!-- src/application/stores/videosStore.ts -->
<g id="node5" class="node">
<title>src/application/stores/videosStore.ts</title>
<g id="a_node5"><a xlink:href="src/application/stores/videosStore.ts" xlink:title="videosStore.ts">
<path fill="#ddfeff" stroke="black" d="M167.08,-159.95C167.08,-159.95 105.42,-159.95 105.42,-159.95 102.21,-159.95 99,-156.74 99,-153.54 99,-153.54 99,-147.12 99,-147.12 99,-143.91 102.21,-140.7 105.42,-140.7 105.42,-140.7 167.08,-140.7 167.08,-140.7 170.29,-140.7 173.5,-143.91 173.5,-147.12 173.5,-147.12 173.5,-153.54 173.5,-153.54 173.5,-156.74 170.29,-159.95 167.08,-159.95"/>
<text text-anchor="start" x="107" y="-147.4" font-family="Helvetica,sans-Serif" font-size="9.00">videosStore.ts</text>
</a>
</g>
</g>
<!-- src/application/stores/index.ts&#45;&gt;src/application/stores/videosStore.ts -->
<g id="edge2" class="edge">
<title>src/application/stores/index.ts&#45;&gt;src/application/stores/videosStore.ts</title>
<path fill="none" stroke="#000000" stroke-width="2" stroke-opacity="0.200000" d="M86.32,-150.33C90.3,-150.33 94.47,-150.33 98.63,-150.33"/>
<polygon fill="#000000" fill-opacity="0.200000" stroke="#000000" stroke-width="2" stroke-opacity="0.200000" points="101.43,-148.93 105.33,-157.03 97.23,-153.13 101.43,-148.93"/>
</g>
<!-- src/application/stores/videosStore.ts&#45;&gt;src/application/ports/IVideoStorage.ts -->
<g id="edge4" class="edge">
<title>src/application/stores/videosStore.ts&#45;&gt;src/application/ports/IVideoStorage.ts</title>
<path fill="none" stroke="#000000" stroke-opacity="0.200000" d="M138.27,-140.34C141.26,-117.05 152.26,-59.31 189.5,-35.33 263.48,12.32 312.76,11.13 387.5,-35.33 422.26,-56.94 436.36,-106.82 441.55,-133.22"/>
<polygon fill="none" stroke="#000000" stroke-opacity="0.200000" points="439.43,-133.29 442.57,-138.82 443.56,-132.54 439.43,-133.29"/>
</g>
<!-- src/application/stores/videosStore.ts&#45;&gt;src/domain/entities/index.ts -->
<g id="edge8" class="edge">
<title>src/application/stores/videosStore.ts&#45;&gt;src/domain/entities/index.ts</title>
<path fill="none" stroke="#000000" stroke-opacity="0.200000" d="M146.12,-160.14C155.7,-169.95 171.97,-184.39 189.5,-190.33 255.48,-212.68 434.27,-201.69 503,-190.33 509.11,-189.32 515.48,-187.66 521.54,-185.76"/>
<polygon fill="none" stroke="#000000" stroke-opacity="0.200000" points="522.02,-187.81 527.05,-183.92 520.7,-183.83 522.02,-187.81"/>
</g>
<!-- src/application/stores/videosStore.ts&#45;&gt;src/application/services/index.ts -->
<g id="edge5" class="edge">
<title>src/application/stores/videosStore.ts&#45;&gt;src/application/services/index.ts</title>
<path fill="none" stroke="#000000" stroke-width="2" stroke-opacity="0.200000" d="M145.21,-140.38C154.75,-128.99 171.68,-110.36 189.5,-98.33 209.01,-85.15 233.32,-74.7 252.85,-67.52"/>
<polygon fill="#000000" fill-opacity="0.200000" stroke="#000000" stroke-width="2" stroke-opacity="0.200000" points="253.38,-69.56 258.32,-65.57 251.97,-65.61 253.38,-69.56"/>
</g>
<!-- src/infrastructure/adapters/VideoParserAdapter.ts -->
<g id="node6" class="node">
<title>src/infrastructure/adapters/VideoParserAdapter.ts</title>
<g id="a_node6"><a xlink:href="src/infrastructure/adapters/VideoParserAdapter.ts" xlink:title="VideoParserAdapter.ts">
<path fill="#ddfeff" stroke="black" d="M336.21,-319.95C336.21,-319.95 240.79,-319.95 240.79,-319.95 237.58,-319.95 234.38,-316.74 234.38,-313.54 234.38,-313.54 234.38,-307.12 234.38,-307.12 234.38,-303.91 237.58,-300.7 240.79,-300.7 240.79,-300.7 336.21,-300.7 336.21,-300.7 339.42,-300.7 342.62,-303.91 342.62,-307.12 342.62,-307.12 342.62,-313.54 342.62,-313.54 342.62,-316.74 339.42,-319.95 336.21,-319.95"/>
<text text-anchor="start" x="242.38" y="-307.4" font-family="Helvetica,sans-Serif" font-size="9.00">VideoParserAdapter.ts</text>
</a>
</g>
</g>
<!-- src/application/stores/videosStore.ts&#45;&gt;src/infrastructure/adapters/VideoParserAdapter.ts -->
<g id="edge3" class="edge">
<title>src/application/stores/videosStore.ts&#45;&gt;src/infrastructure/adapters/VideoParserAdapter.ts</title>
<path fill="none" stroke="#000000" stroke-width="2" stroke-opacity="0.200000" d="M137.56,-160.36C138.96,-187.05 146.73,-260.14 189.5,-295.33 199.54,-303.59 212.2,-308.28 225.04,-310.79"/>
<polygon fill="#000000" fill-opacity="0.200000" stroke="#000000" stroke-width="2" stroke-opacity="0.200000" points="224.69,-312.86 230.95,-311.72 225.35,-308.71 224.69,-312.86"/>
</g>
<!-- src/application/usecases/AddVideosFromFilesUseCase.ts -->
<g id="node7" class="node">
<title>src/application/usecases/AddVideosFromFilesUseCase.ts</title>
<g id="a_node7"><a xlink:href="src/application/usecases/AddVideosFromFilesUseCase.ts" xlink:title="AddVideosFromFilesUseCase.ts">
<path fill="#ddfeff" stroke="black" d="M357.96,-128.95C357.96,-128.95 219.04,-128.95 219.04,-128.95 215.83,-128.95 212.62,-125.74 212.62,-122.54 212.62,-122.54 212.62,-116.12 212.62,-116.12 212.62,-112.91 215.83,-109.7 219.04,-109.7 219.04,-109.7 357.96,-109.7 357.96,-109.7 361.17,-109.7 364.38,-112.91 364.38,-116.12 364.38,-116.12 364.38,-122.54 364.38,-122.54 364.38,-125.74 361.17,-128.95 357.96,-128.95"/>
<text text-anchor="start" x="220.62" y="-116.4" font-family="Helvetica,sans-Serif" font-size="9.00">AddVideosFromFilesUseCase.ts</text>
</a>
</g>
</g>
<!-- src/application/stores/videosStore.ts&#45;&gt;src/application/usecases/AddVideosFromFilesUseCase.ts -->
<g id="edge6" class="edge">
<title>src/application/stores/videosStore.ts&#45;&gt;src/application/usecases/AddVideosFromFilesUseCase.ts</title>
<path fill="none" stroke="#000000" stroke-width="2" stroke-opacity="0.200000" d="M167.44,-140.27C174.62,-138.1 182.29,-135.98 189.5,-134.33 194.5,-133.19 199.66,-132.11 204.88,-131.09"/>
<polygon fill="#000000" fill-opacity="0.200000" stroke="#000000" stroke-width="2" stroke-opacity="0.200000" points="205.21,-133.17 210.73,-130 204.44,-129.04 205.21,-133.17"/>
</g>
<!-- src/application/usecases/UpdateVideoThumbnailsUseCase.ts -->
<g id="node8" class="node">
<title>src/application/usecases/UpdateVideoThumbnailsUseCase.ts</title>
<g id="a_node8"><a xlink:href="src/application/usecases/UpdateVideoThumbnailsUseCase.ts" xlink:title="UpdateVideoThumbnailsUseCase.ts">
<path fill="#ddfeff" stroke="black" d="M366.21,-159.95C366.21,-159.95 210.79,-159.95 210.79,-159.95 207.58,-159.95 204.38,-156.74 204.38,-153.54 204.38,-153.54 204.38,-147.12 204.38,-147.12 204.38,-143.91 207.58,-140.7 210.79,-140.7 210.79,-140.7 366.21,-140.7 366.21,-140.7 369.42,-140.7 372.62,-143.91 372.62,-147.12 372.62,-147.12 372.62,-153.54 372.62,-153.54 372.62,-156.74 369.42,-159.95 366.21,-159.95"/>
<text text-anchor="start" x="212.38" y="-147.4" font-family="Helvetica,sans-Serif" font-size="9.00">UpdateVideoThumbnailsUseCase.ts</text>
</a>
</g>
</g>
<!-- src/application/stores/videosStore.ts&#45;&gt;src/application/usecases/UpdateVideoThumbnailsUseCase.ts -->
<g id="edge7" class="edge">
<title>src/application/stores/videosStore.ts&#45;&gt;src/application/usecases/UpdateVideoThumbnailsUseCase.ts</title>
<path fill="none" stroke="#000000" stroke-width="2" stroke-opacity="0.200000" d="M173.62,-150.33C180.3,-150.33 187.54,-150.33 195.03,-150.33"/>
<polygon fill="#000000" fill-opacity="0.200000" stroke="#000000" stroke-width="2" stroke-opacity="0.200000" points="194.88,-152.43 200.88,-150.33 194.88,-148.23 194.88,-152.43"/>
</g>
<!-- src/infrastructure/adapters/VideoStorageAdapter.ts -->
<g id="node9" class="node">
<title>src/infrastructure/adapters/VideoStorageAdapter.ts</title>
<g id="a_node9"><a xlink:href="src/infrastructure/adapters/VideoStorageAdapter.ts" xlink:title="VideoStorageAdapter.ts">
<path fill="#ddfeff" stroke="black" d="M338.46,-288.95C338.46,-288.95 238.54,-288.95 238.54,-288.95 235.33,-288.95 232.12,-285.74 232.12,-282.54 232.12,-282.54 232.12,-276.12 232.12,-276.12 232.12,-272.91 235.33,-269.7 238.54,-269.7 238.54,-269.7 338.46,-269.7 338.46,-269.7 341.67,-269.7 344.88,-272.91 344.88,-276.12 344.88,-276.12 344.88,-282.54 344.88,-282.54 344.88,-285.74 341.67,-288.95 338.46,-288.95"/>
<text text-anchor="start" x="240.12" y="-276.4" font-family="Helvetica,sans-Serif" font-size="9.00">VideoStorageAdapter.ts</text>
</a>
</g>
</g>
<!-- src/application/stores/videosStore.ts&#45;&gt;src/infrastructure/adapters/VideoStorageAdapter.ts -->
<g id="edge9" class="edge">
<title>src/application/stores/videosStore.ts&#45;&gt;src/infrastructure/adapters/VideoStorageAdapter.ts</title>
<path fill="none" stroke="#000000" stroke-width="2" stroke-opacity="0.200000" d="M138.61,-160.2C142.28,-182.72 154.57,-237.97 189.5,-264.33 199.17,-271.63 210.94,-276.05 222.91,-278.62"/>
<polygon fill="#000000" fill-opacity="0.200000" stroke="#000000" stroke-width="2" stroke-opacity="0.200000" points="222.39,-280.66 228.66,-279.65 223.13,-276.52 222.39,-280.66"/>
</g>
<!-- src/infrastructure/adapters/VideoThumbnailGeneratorAdapter.ts -->
<g id="node10" class="node">
<title>src/infrastructure/adapters/VideoThumbnailGeneratorAdapter.ts</title>
<g id="a_node10"><a xlink:href="src/infrastructure/adapters/VideoThumbnailGeneratorAdapter.ts" xlink:title="VideoThumbnailGeneratorAdapter.ts">
<path fill="#ddfeff" stroke="black" d="M365.08,-257.95C365.08,-257.95 211.92,-257.95 211.92,-257.95 208.71,-257.95 205.5,-254.74 205.5,-251.54 205.5,-251.54 205.5,-245.12 205.5,-245.12 205.5,-241.91 208.71,-238.7 211.92,-238.7 211.92,-238.7 365.08,-238.7 365.08,-238.7 368.29,-238.7 371.5,-241.91 371.5,-245.12 371.5,-245.12 371.5,-251.54 371.5,-251.54 371.5,-254.74 368.29,-257.95 365.08,-257.95"/>
<text text-anchor="start" x="213.5" y="-245.4" font-family="Helvetica,sans-Serif" font-size="9.00">VideoThumbnailGeneratorAdapter.ts</text>
</a>
</g>
</g>
<!-- src/application/stores/videosStore.ts&#45;&gt;src/infrastructure/adapters/VideoThumbnailGeneratorAdapter.ts -->
<g id="edge10" class="edge">
<title>src/application/stores/videosStore.ts&#45;&gt;src/infrastructure/adapters/VideoThumbnailGeneratorAdapter.ts</title>
<path fill="none" stroke="#000000" stroke-width="2" stroke-opacity="0.200000" d="M145.75,-160.1C155.51,-170.92 172.41,-188.4 189.5,-200.33 209.48,-214.28 234.12,-226.33 253.7,-234.86"/>
<polygon fill="#000000" fill-opacity="0.200000" stroke="#000000" stroke-width="2" stroke-opacity="0.200000" points="252.62,-236.69 258.97,-237.11 254.27,-232.82 252.62,-236.69"/>
</g>
<!-- src/infrastructure/adapters/VideoParserAdapter.ts&#45;&gt;src/domain/entities/index.ts -->
<g id="edge14" class="edge">
<title>src/infrastructure/adapters/VideoParserAdapter.ts&#45;&gt;src/domain/entities/index.ts</title>
<path fill="none" stroke="#000000" stroke-opacity="0.200000" d="M343.07,-305.15C357.69,-302.93 373.38,-299.77 387.5,-295.33 442.1,-278.13 458.73,-274.62 503,-238.33 519.99,-224.39 534.67,-203.63 543.65,-189.34"/>
<polygon fill="none" stroke="#000000" stroke-opacity="0.200000" points="545.23,-190.78 546.57,-184.57 541.65,-188.59 545.23,-190.78"/>
</g>
<!-- src/application/usecases/AddVideosFromFilesUseCase.ts&#45;&gt;src/domain/entities/index.ts -->
<g id="edge11" class="edge">
<title>src/application/usecases/AddVideosFromFilesUseCase.ts&#45;&gt;src/domain/entities/index.ts</title>
<path fill="none" stroke="#000000" stroke-opacity="0.200000" d="M325.46,-109.22C369.54,-98.86 445.47,-87.67 503,-114.33 521.84,-123.06 536.17,-142.78 544.56,-157.02"/>
<polygon fill="none" stroke="#000000" stroke-opacity="0.200000" points="542.69,-157.98 547.45,-162.18 546.35,-155.92 542.69,-157.98"/>
</g>
<!-- src/application/usecases/UpdateVideoThumbnailsUseCase.ts&#45;&gt;src/application/ports/IVideoStorage.ts -->
<g id="edge12" class="edge">
<title>src/application/usecases/UpdateVideoThumbnailsUseCase.ts&#45;&gt;src/application/ports/IVideoStorage.ts</title>
<path fill="none" stroke="#000000" stroke-opacity="0.200000" d="M372.76,-150.33C380.7,-150.33 388.56,-150.33 396,-150.33"/>
<polygon fill="none" stroke="#000000" stroke-opacity="0.200000" points="395.77,-152.43 401.77,-150.33 395.77,-148.23 395.77,-152.43"/>
</g>
<!-- src/application/usecases/UpdateVideoThumbnailsUseCase.ts&#45;&gt;src/domain/entities/index.ts -->
<g id="edge13" class="edge">
<title>src/application/usecases/UpdateVideoThumbnailsUseCase.ts&#45;&gt;src/domain/entities/index.ts</title>
<path fill="none" stroke="#000000" stroke-opacity="0.200000" d="M372.9,-140.5C377.91,-139.01 382.82,-137.29 387.5,-135.33 391.6,-133.61 391.28,-130.73 395.5,-129.33 440.83,-114.22 458.3,-112.46 503,-129.33 518.01,-134.99 531.44,-147.44 540.59,-157.66"/>
<polygon fill="none" stroke="#000000" stroke-opacity="0.200000" points="538.98,-159.01 544.48,-162.2 542.17,-156.28 538.98,-159.01"/>
</g>
<!-- src/infrastructure/adapters/VideoStorageAdapter.ts&#45;&gt;src/application/ports/IVideoStorage.ts -->
<g id="edge15" class="edge">
<title>src/infrastructure/adapters/VideoStorageAdapter.ts&#45;&gt;src/application/ports/IVideoStorage.ts</title>
<path fill="none" stroke="#000000" stroke-opacity="0.200000" d="M345.3,-280.1C360.17,-277.94 375.43,-273.34 387.5,-264.33 394.19,-259.33 391.85,-254.84 395.5,-247.33 409.32,-218.92 425.94,-186.14 435.77,-166.88"/>
<polygon fill="none" stroke="#000000" stroke-opacity="0.200000" points="437.63,-167.85 438.49,-161.55 433.89,-165.93 437.63,-167.85"/>
</g>
<!-- src/infrastructure/adapters/VideoStorageAdapter.ts&#45;&gt;src/domain/entities/index.ts -->
<g id="edge16" class="edge">
<title>src/infrastructure/adapters/VideoStorageAdapter.ts&#45;&gt;src/domain/entities/index.ts</title>
<path fill="none" stroke="#000000" stroke-opacity="0.200000" d="M345.25,-274.25C359.28,-272.03 374.14,-268.87 387.5,-264.33 443.45,-245.33 502.62,-208 532.77,-187.55"/>
<polygon fill="none" stroke="#000000" stroke-opacity="0.200000" points="533.74,-189.43 537.5,-184.31 531.37,-185.96 533.74,-189.43"/>
</g>
</g>
</svg>
