<?xml version="1.0" encoding="UTF-8" standalone="no"?>
<!DOCTYPE svg PUBLIC "-//W3C//DTD SVG 1.1//EN"
 "http://www.w3.org/Graphics/SVG/1.1/DTD/svg11.dtd">
<!-- Generated by graphviz version 9.0.0 (20230911.1827)
 -->
<!-- Title: dependency&#45;cruiser output Pages: 1 -->
<svg width="435pt" height="240pt"
 viewBox="0.00 0.00 434.50 240.00" xmlns="http://www.w3.org/2000/svg" xmlns:xlink="http://www.w3.org/1999/xlink">
<g id="graph0" class="graph" transform="scale(1 1) rotate(0) translate(4 236)">
<title>dependency&#45;cruiser output</title>
<polygon fill="white" stroke="none" points="-4,4 -4,-236 430.5,-236 430.5,4 -4,4"/>
<g id="clust1" class="cluster">
<title>cluster_src</title>
<path fill="#ffffff" stroke="black" stroke-width="2" d="M20,-8C20,-8 409.5,-8 409.5,-8 415.5,-8 421.5,-14 421.5,-20 421.5,-20 421.5,-212 421.5,-212 421.5,-218 415.5,-224 409.5,-224 409.5,-224 20,-224 20,-224 14,-224 8,-218 8,-212 8,-212 8,-20 8,-20 8,-14 14,-8 20,-8"/>
<text text-anchor="middle" x="214.75" y="-211.45" font-family="Helvetica,sans-Serif" font-weight="bold" font-size="9.00">src</text>
</g>
<g id="clust2" class="cluster">
<title>cluster_src/application</title>
<path fill="#ffffff" stroke="black" stroke-width="2" d="M352.5,-16C352.5,-16 398.5,-16 398.5,-16 404.5,-16 410.5,-22 410.5,-28 410.5,-28 410.5,-59 410.5,-59 410.5,-65 404.5,-71 398.5,-71 398.5,-71 352.5,-71 352.5,-71 346.5,-71 340.5,-65 340.5,-59 340.5,-59 340.5,-28 340.5,-28 340.5,-22 346.5,-16 352.5,-16"/>
<text text-anchor="middle" x="375.5" y="-58.45" font-family="Helvetica,sans-Serif" font-weight="bold" font-size="9.00">application</text>
</g>
<g id="clust3" class="cluster">
<title>cluster_src/components</title>
<path fill="#ffffff" stroke="black" stroke-width="2" d="M136.25,-79C136.25,-79 212,-79 212,-79 218,-79 224,-85 224,-91 224,-91 224,-185 224,-185 224,-191 218,-197 212,-197 212,-197 136.25,-197 136.25,-197 130.25,-197 124.25,-191 124.25,-185 124.25,-185 124.25,-91 124.25,-91 124.25,-85 130.25,-79 136.25,-79"/>
<text text-anchor="middle" x="174.12" y="-184.45" font-family="Helvetica,sans-Serif" font-weight="bold" font-size="9.00">components</text>
</g>
<g id="clust4" class="cluster">
<title>cluster_src/components/inputs</title>
<path fill="#ffffff" stroke="black" stroke-width="2" d="M144.25,-87C144.25,-87 204,-87 204,-87 210,-87 216,-93 216,-99 216,-99 216,-130 216,-130 216,-136 210,-142 204,-142 204,-142 144.25,-142 144.25,-142 138.25,-142 132.25,-136 132.25,-130 132.25,-130 132.25,-99 132.25,-99 132.25,-93 138.25,-87 144.25,-87"/>
<text text-anchor="middle" x="174.12" y="-129.45" font-family="Helvetica,sans-Serif" font-weight="bold" font-size="9.00">inputs</text>
</g>
<g id="clust6" class="cluster">
<title>cluster_src/infrastructure</title>
<path fill="#ffffff" stroke="black" stroke-width="2" d="M350.5,-79C350.5,-79 401.5,-79 401.5,-79 407.5,-79 413.5,-85 413.5,-91 413.5,-91 413.5,-122 413.5,-122 413.5,-128 407.5,-134 401.5,-134 401.5,-134 350.5,-134 350.5,-134 344.5,-134 338.5,-128 338.5,-122 338.5,-122 338.5,-91 338.5,-91 338.5,-85 344.5,-79 350.5,-79"/>
<text text-anchor="middle" x="376" y="-121.45" font-family="Helvetica,sans-Serif" font-weight="bold" font-size="9.00">infrastructure</text>
</g>
<g id="clust5" class="cluster">
<title>cluster_src/domain</title>
<path fill="#ffffff" stroke="black" stroke-width="2" d="M352.5,-142C352.5,-142 398.5,-142 398.5,-142 404.5,-142 410.5,-148 410.5,-154 410.5,-154 410.5,-185 410.5,-185 410.5,-191 404.5,-197 398.5,-197 398.5,-197 352.5,-197 352.5,-197 346.5,-197 340.5,-191 340.5,-185 340.5,-185 340.5,-154 340.5,-154 340.5,-148 346.5,-142 352.5,-142"/>
<text text-anchor="middle" x="375.5" y="-184.45" font-family="Helvetica,sans-Serif" font-weight="bold" font-size="9.00">domain</text>
</g>
<g id="clust8" class="cluster">
<title>cluster_src/views</title>
<path fill="#ffffff" stroke="black" stroke-width="2" d="M28,-62C28,-62 104.25,-62 104.25,-62 110.25,-62 116.25,-68 116.25,-74 116.25,-74 116.25,-136 116.25,-136 116.25,-142 110.25,-148 104.25,-148 104.25,-148 28,-148 28,-148 22,-148 16,-142 16,-136 16,-136 16,-74 16,-74 16,-68 22,-62 28,-62"/>
<text text-anchor="middle" x="66.12" y="-135.45" font-family="Helvetica,sans-Serif" font-weight="bold" font-size="9.00">views</text>
</g>
<g id="clust7" class="cluster">
<title>cluster_src/stores</title>
<path fill="#ffffff" stroke="black" stroke-width="2" d="M244,-79C244,-79 310.5,-79 310.5,-79 316.5,-79 322.5,-85 322.5,-91 322.5,-91 322.5,-122 322.5,-122 322.5,-128 316.5,-134 310.5,-134 310.5,-134 244,-134 244,-134 238,-134 232,-128 232,-122 232,-122 232,-91 232,-91 232,-85 238,-79 244,-79"/>
<text text-anchor="middle" x="277.25" y="-121.45" font-family="Helvetica,sans-Serif" font-weight="bold" font-size="9.00">stores</text>
</g>
<!-- src/application/index.ts -->
<g id="node1" class="node">
<title>src/application/index.ts</title>
<g id="a_node1"><a xlink:href="src/application/index.ts" xlink:title="index.ts">
<path fill="#ddfeff" stroke="black" d="M396.08,-43.62C396.08,-43.62 354.92,-43.62 354.92,-43.62 351.71,-43.62 348.5,-40.42 348.5,-37.21 348.5,-37.21 348.5,-30.79 348.5,-30.79 348.5,-27.58 351.71,-24.38 354.92,-24.38 354.92,-24.38 396.08,-24.38 396.08,-24.38 399.29,-24.38 402.5,-27.58 402.5,-30.79 402.5,-30.79 402.5,-37.21 402.5,-37.21 402.5,-40.42 399.29,-43.62 396.08,-43.62"/>
<text text-anchor="start" x="359.75" y="-31.07" font-family="Helvetica,sans-Serif" font-size="9.00">index.ts</text>
</a>
</g>
</g>
<!-- src/components/VideoCard.vue -->
<g id="node2" class="node">
<title>src/components/VideoCard.vue</title>
<g id="a_node2"><a xlink:href="src/components/VideoCard.vue" xlink:title="VideoCard.vue">
<path fill="#41f083" stroke="black" d="M205.71,-169.62C205.71,-169.62 142.54,-169.62 142.54,-169.62 139.33,-169.62 136.12,-166.42 136.12,-163.21 136.12,-163.21 136.12,-156.79 136.12,-156.79 136.12,-153.58 139.33,-150.38 142.54,-150.38 142.54,-150.38 205.71,-150.38 205.71,-150.38 208.92,-150.38 212.12,-153.58 212.12,-156.79 212.12,-156.79 212.12,-163.21 212.12,-163.21 212.12,-166.42 208.92,-169.62 205.71,-169.62"/>
<text text-anchor="start" x="144.12" y="-157.07" font-family="Helvetica,sans-Serif" font-size="9.00">VideoCard.vue</text>
</a>
</g>
</g>
<!-- src/domain/index.ts -->
<g id="node3" class="node">
<title>src/domain/index.ts</title>
<g id="a_node3"><a xlink:href="src/domain/index.ts" xlink:title="index.ts">
<path fill="#ddfeff" stroke="black" d="M396.08,-169.62C396.08,-169.62 354.92,-169.62 354.92,-169.62 351.71,-169.62 348.5,-166.42 348.5,-163.21 348.5,-163.21 348.5,-156.79 348.5,-156.79 348.5,-153.58 351.71,-150.38 354.92,-150.38 354.92,-150.38 396.08,-150.38 396.08,-150.38 399.29,-150.38 402.5,-153.58 402.5,-156.79 402.5,-156.79 402.5,-163.21 402.5,-163.21 402.5,-166.42 399.29,-169.62 396.08,-169.62"/>
<text text-anchor="start" x="359.75" y="-157.07" font-family="Helvetica,sans-Serif" font-size="9.00">index.ts</text>
</a>
</g>
</g>
<!-- src/components/VideoCard.vue&#45;&gt;src/domain/index.ts -->
<g id="edge1" class="edge">
<title>src/components/VideoCard.vue&#45;&gt;src/domain/index.ts</title>
<path fill="none" stroke="#000000" stroke-opacity="0.200000" d="M212.16,-160C249.06,-160 305.23,-160 340.88,-160"/>
<polygon fill="none" stroke="#000000" stroke-opacity="0.200000" points="340.65,-162.1 346.65,-160 340.65,-157.9 340.65,-162.1"/>
</g>
<!-- src/stores/videosStore.ts -->
<g id="node4" class="node">
<title>src/stores/videosStore.ts</title>
<g id="a_node4"><a xlink:href="src/stores/videosStore.ts" xlink:title="videosStore.ts">
<path fill="#ddfeff" stroke="black" d="M308.08,-106.62C308.08,-106.62 246.42,-106.62 246.42,-106.62 243.21,-106.62 240,-103.42 240,-100.21 240,-100.21 240,-93.79 240,-93.79 240,-90.58 243.21,-87.38 246.42,-87.38 246.42,-87.38 308.08,-87.38 308.08,-87.38 311.29,-87.38 314.5,-90.58 314.5,-93.79 314.5,-93.79 314.5,-100.21 314.5,-100.21 314.5,-103.42 311.29,-106.62 308.08,-106.62"/>
<text text-anchor="start" x="248" y="-94.08" font-family="Helvetica,sans-Serif" font-size="9.00">videosStore.ts</text>
</a>
</g>
</g>
<!-- src/components/VideoCard.vue&#45;&gt;src/stores/videosStore.ts -->
<g id="edge2" class="edge">
<title>src/components/VideoCard.vue&#45;&gt;src/stores/videosStore.ts</title>
<path fill="none" stroke="#000000" stroke-width="2" stroke-opacity="0.200000" d="M212.43,-150.48C216.44,-148.89 220.38,-147.07 224,-145 238.41,-136.74 252.14,-123.86 261.91,-113.52"/>
<polygon fill="#000000" fill-opacity="0.200000" stroke="#000000" stroke-width="2" stroke-opacity="0.200000" points="263.46,-114.94 265.95,-109.09 260.36,-112.11 263.46,-114.94"/>
</g>
<!-- src/stores/videosStore.ts&#45;&gt;src/application/index.ts -->
<g id="edge4" class="edge">
<title>src/stores/videosStore.ts&#45;&gt;src/application/index.ts</title>
<path fill="none" stroke="#000000" stroke-width="2" stroke-opacity="0.200000" d="M293.71,-86.88C309.43,-76.59 333.95,-60.54 351.85,-48.83"/>
<polygon fill="#000000" fill-opacity="0.200000" stroke="#000000" stroke-width="2" stroke-opacity="0.200000" points="352.67,-50.8 356.54,-45.75 350.37,-47.28 352.67,-50.8"/>
</g>
<!-- src/stores/videosStore.ts&#45;&gt;src/domain/index.ts -->
<g id="edge5" class="edge">
<title>src/stores/videosStore.ts&#45;&gt;src/domain/index.ts</title>
<path fill="none" stroke="#000000" stroke-opacity="0.200000" d="M293.06,-106.94C305.23,-115.07 322.93,-126.86 338.5,-137 343.03,-139.95 347.9,-143.08 352.54,-146.06"/>
<polygon fill="none" stroke="#000000" stroke-opacity="0.200000" points="351.23,-147.71 357.41,-149.17 353.49,-144.17 351.23,-147.71"/>
</g>
<!-- src/infrastructure/index.ts -->
<g id="node6" class="node">
<title>src/infrastructure/index.ts</title>
<g id="a_node6"><a xlink:href="src/infrastructure/index.ts" xlink:title="index.ts">
<path fill="#ddfeff" stroke="black" d="M396.08,-106.62C396.08,-106.62 354.92,-106.62 354.92,-106.62 351.71,-106.62 348.5,-103.42 348.5,-100.21 348.5,-100.21 348.5,-93.79 348.5,-93.79 348.5,-90.58 351.71,-87.38 354.92,-87.38 354.92,-87.38 396.08,-87.38 396.08,-87.38 399.29,-87.38 402.5,-90.58 402.5,-93.79 402.5,-93.79 402.5,-100.21 402.5,-100.21 402.5,-103.42 399.29,-106.62 396.08,-106.62"/>
<text text-anchor="start" x="359.75" y="-94.08" font-family="Helvetica,sans-Serif" font-size="9.00">index.ts</text>
</a>
</g>
</g>
<!-- src/stores/videosStore.ts&#45;&gt;src/infrastructure/index.ts -->
<g id="edge6" class="edge">
<title>src/stores/videosStore.ts&#45;&gt;src/infrastructure/index.ts</title>
<path fill="none" stroke="#000000" stroke-width="2" stroke-opacity="0.200000" d="M314.91,-97C322.85,-97 331.24,-97 339.13,-97"/>
<polygon fill="#000000" fill-opacity="0.200000" stroke="#000000" stroke-width="2" stroke-opacity="0.200000" points="339.08,-99.1 345.08,-97 339.08,-94.9 339.08,-99.1"/>
</g>
<!-- src/components/inputs/FileInput.vue -->
<g id="node5" class="node">
<title>src/components/inputs/FileInput.vue</title>
<g id="a_node5"><a xlink:href="src/components/inputs/FileInput.vue" xlink:title="FileInput.vue">
<path fill="#41f083" stroke="black" d="M201.58,-114.62C201.58,-114.62 146.67,-114.62 146.67,-114.62 143.46,-114.62 140.25,-111.42 140.25,-108.21 140.25,-108.21 140.25,-101.79 140.25,-101.79 140.25,-98.58 143.46,-95.38 146.67,-95.38 146.67,-95.38 201.58,-95.38 201.58,-95.38 204.79,-95.38 208,-98.58 208,-101.79 208,-101.79 208,-108.21 208,-108.21 208,-111.42 204.79,-114.62 201.58,-114.62"/>
<text text-anchor="start" x="148.25" y="-102.08" font-family="Helvetica,sans-Serif" font-size="9.00">FileInput.vue</text>
</a>
</g>
</g>
<!-- src/components/inputs/FileInput.vue&#45;&gt;src/stores/videosStore.ts -->
<g id="edge3" class="edge">
<title>src/components/inputs/FileInput.vue&#45;&gt;src/stores/videosStore.ts</title>
<path fill="none" stroke="#000000" stroke-width="2" stroke-opacity="0.200000" d="M208.24,-102.38C215.44,-101.81 223.18,-101.2 230.77,-100.6"/>
<polygon fill="#000000" fill-opacity="0.200000" stroke="#000000" stroke-width="2" stroke-opacity="0.200000" points="230.73,-102.71 236.55,-100.14 230.4,-98.52 230.73,-102.71"/>
</g>
<!-- src/views/NavBar.vue -->
<g id="node7" class="node">
<title>src/views/NavBar.vue</title>
<g id="a_node7"><a xlink:href="src/views/NavBar.vue" xlink:title="NavBar.vue">
<path fill="#41f083" stroke="black" d="M90.96,-89.62C90.96,-89.62 41.29,-89.62 41.29,-89.62 38.08,-89.62 34.88,-86.42 34.88,-83.21 34.88,-83.21 34.88,-76.79 34.88,-76.79 34.88,-73.58 38.08,-70.38 41.29,-70.38 41.29,-70.38 90.96,-70.38 90.96,-70.38 94.17,-70.38 97.38,-73.58 97.38,-76.79 97.38,-76.79 97.38,-83.21 97.38,-83.21 97.38,-86.42 94.17,-89.62 90.96,-89.62"/>
<text text-anchor="start" x="42.88" y="-77.08" font-family="Helvetica,sans-Serif" font-size="9.00">NavBar.vue</text>
</a>
</g>
</g>
<!-- src/views/NavBar.vue&#45;&gt;src/stores/videosStore.ts -->
<g id="edge8" class="edge">
<title>src/views/NavBar.vue&#45;&gt;src/stores/videosStore.ts</title>
<path fill="none" stroke="#000000" stroke-width="2" stroke-opacity="0.200000" d="M97.69,-72.28C129.68,-65.5 181.1,-58.23 224,-69 234.81,-71.71 245.82,-77.14 254.93,-82.5"/>
<polygon fill="#000000" fill-opacity="0.200000" stroke="#000000" stroke-width="2" stroke-opacity="0.200000" points="253.62,-84.16 259.82,-85.53 255.83,-80.59 253.62,-84.16"/>
</g>
<!-- src/views/NavBar.vue&#45;&gt;src/components/inputs/FileInput.vue -->
<g id="edge7" class="edge">
<title>src/views/NavBar.vue&#45;&gt;src/components/inputs/FileInput.vue</title>
<path fill="none" stroke="#000000" stroke-width="2" stroke-opacity="0.200000" d="M97.78,-87.23C108.21,-89.69 120.04,-92.48 131.19,-95.11"/>
<polygon fill="#000000" fill-opacity="0.200000" stroke="#000000" stroke-width="2" stroke-opacity="0.200000" points="130.67,-97.15 136.99,-96.48 131.64,-93.06 130.67,-97.15"/>
</g>
<!-- src/views/VideoGallery.vue -->
<g id="node8" class="node">
<title>src/views/VideoGallery.vue</title>
<g id="a_node8"><a xlink:href="src/views/VideoGallery.vue" xlink:title="VideoGallery.vue">
<path fill="#41f083" stroke="black" d="M101.83,-120.62C101.83,-120.62 30.42,-120.62 30.42,-120.62 27.21,-120.62 24,-117.42 24,-114.21 24,-114.21 24,-107.79 24,-107.79 24,-104.58 27.21,-101.38 30.42,-101.38 30.42,-101.38 101.83,-101.38 101.83,-101.38 105.04,-101.38 108.25,-104.58 108.25,-107.79 108.25,-107.79 108.25,-114.21 108.25,-114.21 108.25,-117.42 105.04,-120.62 101.83,-120.62"/>
<text text-anchor="start" x="32" y="-108.08" font-family="Helvetica,sans-Serif" font-size="9.00">VideoGallery.vue</text>
</a>
</g>
</g>
<!-- src/views/VideoGallery.vue&#45;&gt;src/components/VideoCard.vue -->
<g id="edge9" class="edge">
<title>src/views/VideoGallery.vue&#45;&gt;src/components/VideoCard.vue</title>
<path fill="none" stroke="#000000" stroke-width="2" stroke-opacity="0.200000" d="M81.64,-120.96C92.88,-128.35 109.06,-138.26 124.25,-145 125.62,-145.61 127.02,-146.2 128.44,-146.77"/>
<polygon fill="#000000" fill-opacity="0.200000" stroke="#000000" stroke-width="2" stroke-opacity="0.200000" points="127.55,-148.68 133.9,-148.83 129.03,-144.75 127.55,-148.68"/>
</g>
<!-- src/views/VideoGallery.vue&#45;&gt;src/stores/videosStore.ts -->
<g id="edge10" class="edge">
<title>src/views/VideoGallery.vue&#45;&gt;src/stores/videosStore.ts</title>
<path fill="none" stroke="#000000" stroke-width="2" stroke-opacity="0.200000" d="M107.9,-101.05C110.85,-99.59 113.67,-97.92 116.25,-96 121.39,-92.17 118.6,-87.02 124.25,-84 161.33,-64.15 210.9,-73.93 243.19,-84.22"/>
<polygon fill="#000000" fill-opacity="0.200000" stroke="#000000" stroke-width="2" stroke-opacity="0.200000" points="242.19,-86.1 248.55,-86.01 243.52,-82.11 242.19,-86.1"/>
</g>
</g>
</svg>
