<?xml version="1.0" encoding="UTF-8" standalone="no"?>
<!DOCTYPE svg PUBLIC "-//W3C//DTD SVG 1.1//EN"
 "http://www.w3.org/Graphics/SVG/1.1/DTD/svg11.dtd">
<!-- Generated by graphviz version 9.0.0 (20230911.1827)
 -->
<!-- Title: dependency&#45;cruiser output Pages: 1 -->
<svg width="425pt" height="197pt"
 viewBox="0.00 0.00 424.50 197.00" xmlns="http://www.w3.org/2000/svg" xmlns:xlink="http://www.w3.org/1999/xlink">
<g id="graph0" class="graph" transform="scale(1 1) rotate(0) translate(4 193)">
<title>dependency&#45;cruiser output</title>
<polygon fill="white" stroke="none" points="-4,4 -4,-193 420.5,-193 420.5,4 -4,4"/>
<g id="clust1" class="cluster">
<title>cluster_src</title>
<path fill="#ffffff" stroke="black" stroke-width="2" d="M20,-8C20,-8 396.5,-8 396.5,-8 402.5,-8 408.5,-14 408.5,-20 408.5,-20 408.5,-169 408.5,-169 408.5,-175 402.5,-181 396.5,-181 396.5,-181 20,-181 20,-181 14,-181 8,-175 8,-169 8,-169 8,-20 8,-20 8,-14 14,-8 20,-8"/>
<text text-anchor="middle" x="208.25" y="-168.45" font-family="Helvetica,sans-Serif" font-weight="bold" font-size="9.00">src</text>
</g>
<g id="clust3" class="cluster">
<title>cluster_src/components</title>
<path fill="#ffffff" stroke="black" stroke-width="2" d="M136.25,-26C136.25,-26 212,-26 212,-26 218,-26 224,-32 224,-38 224,-38 224,-132 224,-132 224,-138 218,-144 212,-144 212,-144 136.25,-144 136.25,-144 130.25,-144 124.25,-138 124.25,-132 124.25,-132 124.25,-38 124.25,-38 124.25,-32 130.25,-26 136.25,-26"/>
<text text-anchor="middle" x="174.12" y="-131.45" font-family="Helvetica,sans-Serif" font-weight="bold" font-size="9.00">components</text>
</g>
<g id="clust4" class="cluster">
<title>cluster_src/components/inputs</title>
<path fill="#ffffff" stroke="black" stroke-width="2" d="M144.25,-62C144.25,-62 204,-62 204,-62 210,-62 216,-68 216,-74 216,-74 216,-105 216,-105 216,-111 210,-117 204,-117 204,-117 144.25,-117 144.25,-117 138.25,-117 132.25,-111 132.25,-105 132.25,-105 132.25,-74 132.25,-74 132.25,-68 138.25,-62 144.25,-62"/>
<text text-anchor="middle" x="174.12" y="-104.45" font-family="Helvetica,sans-Serif" font-weight="bold" font-size="9.00">inputs</text>
</g>
<g id="clust2" class="cluster">
<title>cluster_src/application</title>
<path fill="#ffffff" stroke="black" stroke-width="2" d="M342.5,-44C342.5,-44 388.5,-44 388.5,-44 394.5,-44 400.5,-50 400.5,-56 400.5,-56 400.5,-87 400.5,-87 400.5,-93 394.5,-99 388.5,-99 388.5,-99 342.5,-99 342.5,-99 336.5,-99 330.5,-93 330.5,-87 330.5,-87 330.5,-56 330.5,-56 330.5,-50 336.5,-44 342.5,-44"/>
<text text-anchor="middle" x="365.5" y="-86.45" font-family="Helvetica,sans-Serif" font-weight="bold" font-size="9.00">application</text>
</g>
<g id="clust6" class="cluster">
<title>cluster_src/views</title>
<path fill="#ffffff" stroke="black" stroke-width="2" d="M28,-39C28,-39 104.25,-39 104.25,-39 110.25,-39 116.25,-45 116.25,-51 116.25,-51 116.25,-113 116.25,-113 116.25,-119 110.25,-125 104.25,-125 104.25,-125 28,-125 28,-125 22,-125 16,-119 16,-113 16,-113 16,-51 16,-51 16,-45 22,-39 28,-39"/>
<text text-anchor="middle" x="66.12" y="-112.45" font-family="Helvetica,sans-Serif" font-weight="bold" font-size="9.00">views</text>
</g>
<g id="clust5" class="cluster">
<title>cluster_src/stores</title>
<path fill="#ffffff" stroke="black" stroke-width="2" d="M244,-44C244,-44 310.5,-44 310.5,-44 316.5,-44 322.5,-50 322.5,-56 322.5,-56 322.5,-87 322.5,-87 322.5,-93 316.5,-99 310.5,-99 310.5,-99 244,-99 244,-99 238,-99 232,-93 232,-87 232,-87 232,-56 232,-56 232,-50 238,-44 244,-44"/>
<text text-anchor="middle" x="277.25" y="-86.45" font-family="Helvetica,sans-Serif" font-weight="bold" font-size="9.00">stores</text>
</g>
<!-- src/application/index.ts -->
<g id="node1" class="node">
<title>src/application/index.ts</title>
<g id="a_node1"><a xlink:href="src/application/index.ts" xlink:title="index.ts">
<path fill="#ddfeff" stroke="black" d="M386.08,-71.62C386.08,-71.62 344.92,-71.62 344.92,-71.62 341.71,-71.62 338.5,-68.42 338.5,-65.21 338.5,-65.21 338.5,-58.79 338.5,-58.79 338.5,-55.58 341.71,-52.38 344.92,-52.38 344.92,-52.38 386.08,-52.38 386.08,-52.38 389.29,-52.38 392.5,-55.58 392.5,-58.79 392.5,-58.79 392.5,-65.21 392.5,-65.21 392.5,-68.42 389.29,-71.62 386.08,-71.62"/>
<text text-anchor="start" x="349.75" y="-59.08" font-family="Helvetica,sans-Serif" font-size="9.00">index.ts</text>
</a>
</g>
</g>
<!-- src/components/VideoCard.vue -->
<g id="node2" class="node">
<title>src/components/VideoCard.vue</title>
<g id="a_node2"><a xlink:href="src/components/VideoCard.vue" xlink:title="VideoCard.vue">
<path fill="#41f083" stroke="black" d="M205.71,-53.62C205.71,-53.62 142.54,-53.62 142.54,-53.62 139.33,-53.62 136.12,-50.42 136.12,-47.21 136.12,-47.21 136.12,-40.79 136.12,-40.79 136.12,-37.58 139.33,-34.38 142.54,-34.38 142.54,-34.38 205.71,-34.38 205.71,-34.38 208.92,-34.38 212.12,-37.58 212.12,-40.79 212.12,-40.79 212.12,-47.21 212.12,-47.21 212.12,-50.42 208.92,-53.62 205.71,-53.62"/>
<text text-anchor="start" x="144.12" y="-41.08" font-family="Helvetica,sans-Serif" font-size="9.00">VideoCard.vue</text>
</a>
</g>
</g>
<!-- src/stores/videosStore.ts -->
<g id="node3" class="node">
<title>src/stores/videosStore.ts</title>
<g id="a_node3"><a xlink:href="src/stores/videosStore.ts" xlink:title="videosStore.ts">
<path fill="#ddfeff" stroke="black" d="M308.08,-71.62C308.08,-71.62 246.42,-71.62 246.42,-71.62 243.21,-71.62 240,-68.42 240,-65.21 240,-65.21 240,-58.79 240,-58.79 240,-55.58 243.21,-52.38 246.42,-52.38 246.42,-52.38 308.08,-52.38 308.08,-52.38 311.29,-52.38 314.5,-55.58 314.5,-58.79 314.5,-58.79 314.5,-65.21 314.5,-65.21 314.5,-68.42 311.29,-71.62 308.08,-71.62"/>
<text text-anchor="start" x="248" y="-59.08" font-family="Helvetica,sans-Serif" font-size="9.00">videosStore.ts</text>
</a>
</g>
</g>
<!-- src/components/VideoCard.vue&#45;&gt;src/stores/videosStore.ts -->
<g id="edge1" class="edge">
<title>src/components/VideoCard.vue&#45;&gt;src/stores/videosStore.ts</title>
<path fill="none" stroke="#000000" stroke-width="2" stroke-opacity="0.200000" d="M212.49,-50.65C218.47,-51.71 224.7,-52.82 230.84,-53.92"/>
<polygon fill="#000000" fill-opacity="0.200000" stroke="#000000" stroke-width="2" stroke-opacity="0.200000" points="230.45,-55.98 236.73,-54.97 231.19,-51.85 230.45,-55.98"/>
</g>
<!-- src/stores/videosStore.ts&#45;&gt;src/application/index.ts -->
<g id="edge3" class="edge">
<title>src/stores/videosStore.ts&#45;&gt;src/application/index.ts</title>
<path fill="none" stroke="#000000" stroke-width="2" stroke-opacity="0.200000" d="M314.83,-62C319.58,-62 324.45,-62 329.18,-62"/>
<polygon fill="#000000" fill-opacity="0.200000" stroke="#000000" stroke-width="2" stroke-opacity="0.200000" points="329.04,-64.1 335.04,-62 329.04,-59.9 329.04,-64.1"/>
</g>
<!-- src/components/inputs/FileInput.vue -->
<g id="node4" class="node">
<title>src/components/inputs/FileInput.vue</title>
<g id="a_node4"><a xlink:href="src/components/inputs/FileInput.vue" xlink:title="FileInput.vue">
<path fill="#41f083" stroke="black" d="M201.58,-89.62C201.58,-89.62 146.67,-89.62 146.67,-89.62 143.46,-89.62 140.25,-86.42 140.25,-83.21 140.25,-83.21 140.25,-76.79 140.25,-76.79 140.25,-73.58 143.46,-70.38 146.67,-70.38 146.67,-70.38 201.58,-70.38 201.58,-70.38 204.79,-70.38 208,-73.58 208,-76.79 208,-76.79 208,-83.21 208,-83.21 208,-86.42 204.79,-89.62 201.58,-89.62"/>
<text text-anchor="start" x="148.25" y="-77.08" font-family="Helvetica,sans-Serif" font-size="9.00">FileInput.vue</text>
</a>
</g>
</g>
<!-- src/components/inputs/FileInput.vue&#45;&gt;src/stores/videosStore.ts -->
<g id="edge2" class="edge">
<title>src/components/inputs/FileInput.vue&#45;&gt;src/stores/videosStore.ts</title>
<path fill="none" stroke="#000000" stroke-width="2" stroke-opacity="0.200000" d="M208.24,-74.11C215.44,-72.82 223.18,-71.45 230.77,-70.1"/>
<polygon fill="#000000" fill-opacity="0.200000" stroke="#000000" stroke-width="2" stroke-opacity="0.200000" points="231.05,-72.18 236.59,-69.06 230.31,-68.04 231.05,-72.18"/>
</g>
<!-- src/views/NavBar.vue -->
<g id="node5" class="node">
<title>src/views/NavBar.vue</title>
<g id="a_node5"><a xlink:href="src/views/NavBar.vue" xlink:title="NavBar.vue">
<path fill="#41f083" stroke="black" d="M90.96,-66.62C90.96,-66.62 41.29,-66.62 41.29,-66.62 38.08,-66.62 34.88,-63.42 34.88,-60.21 34.88,-60.21 34.88,-53.79 34.88,-53.79 34.88,-50.58 38.08,-47.38 41.29,-47.38 41.29,-47.38 90.96,-47.38 90.96,-47.38 94.17,-47.38 97.38,-50.58 97.38,-53.79 97.38,-53.79 97.38,-60.21 97.38,-60.21 97.38,-63.42 94.17,-66.62 90.96,-66.62"/>
<text text-anchor="start" x="42.88" y="-54.08" font-family="Helvetica,sans-Serif" font-size="9.00">NavBar.vue</text>
</a>
</g>
</g>
<!-- src/views/NavBar.vue&#45;&gt;src/stores/videosStore.ts -->
<g id="edge5" class="edge">
<title>src/views/NavBar.vue&#45;&gt;src/stores/videosStore.ts</title>
<path fill="none" stroke="#000000" stroke-width="2" stroke-opacity="0.200000" d="M79.37,-47.03C90.37,-38.77 107.34,-27.65 124.25,-23 167,-11.24 181.93,-9.03 224,-23 237.83,-27.59 250.97,-37.43 260.61,-46.08"/>
<polygon fill="#000000" fill-opacity="0.200000" stroke="#000000" stroke-width="2" stroke-opacity="0.200000" points="258.96,-47.41 264.77,-49.99 261.84,-44.35 258.96,-47.41"/>
</g>
<!-- src/views/NavBar.vue&#45;&gt;src/components/inputs/FileInput.vue -->
<g id="edge4" class="edge">
<title>src/views/NavBar.vue&#45;&gt;src/components/inputs/FileInput.vue</title>
<path fill="none" stroke="#000000" stroke-width="2" stroke-opacity="0.200000" d="M97.78,-63.65C108.21,-65.91 120.04,-68.48 131.19,-70.9"/>
<polygon fill="#000000" fill-opacity="0.200000" stroke="#000000" stroke-width="2" stroke-opacity="0.200000" points="130.67,-72.94 136.98,-72.16 131.56,-68.83 130.67,-72.94"/>
</g>
<!-- src/views/VideoGallery.vue -->
<g id="node6" class="node">
<title>src/views/VideoGallery.vue</title>
<g id="a_node6"><a xlink:href="src/views/VideoGallery.vue" xlink:title="VideoGallery.vue">
<path fill="#41f083" stroke="black" d="M101.83,-97.62C101.83,-97.62 30.42,-97.62 30.42,-97.62 27.21,-97.62 24,-94.42 24,-91.21 24,-91.21 24,-84.79 24,-84.79 24,-81.58 27.21,-78.38 30.42,-78.38 30.42,-78.38 101.83,-78.38 101.83,-78.38 105.04,-78.38 108.25,-81.58 108.25,-84.79 108.25,-84.79 108.25,-91.21 108.25,-91.21 108.25,-94.42 105.04,-97.62 101.83,-97.62"/>
<text text-anchor="start" x="32" y="-85.08" font-family="Helvetica,sans-Serif" font-size="9.00">VideoGallery.vue</text>
</a>
</g>
</g>
<!-- src/views/VideoGallery.vue&#45;&gt;src/components/VideoCard.vue -->
<g id="edge6" class="edge">
<title>src/views/VideoGallery.vue&#45;&gt;src/components/VideoCard.vue</title>
<path fill="none" stroke="#000000" stroke-width="2" stroke-opacity="0.200000" d="M108.54,-77.99C111.27,-76.55 113.88,-74.89 116.25,-73 121.85,-68.53 118.65,-63.48 124.25,-59 125.44,-58.05 126.69,-57.15 127.99,-56.32"/>
<polygon fill="#000000" fill-opacity="0.200000" stroke="#000000" stroke-width="2" stroke-opacity="0.200000" points="128.87,-58.23 133.18,-53.55 126.9,-54.52 128.87,-58.23"/>
</g>
<!-- src/views/VideoGallery.vue&#45;&gt;src/stores/videosStore.ts -->
<g id="edge7" class="edge">
<title>src/views/VideoGallery.vue&#45;&gt;src/stores/videosStore.ts</title>
<path fill="none" stroke="#000000" stroke-width="2" stroke-opacity="0.200000" d="M80.36,-98.01C91.42,-105.72 107.97,-115.75 124.25,-120 167.15,-131.2 183.5,-138.03 224,-120 242.63,-111.71 257.41,-93.13 266.43,-79.22"/>
<polygon fill="#000000" fill-opacity="0.200000" stroke="#000000" stroke-width="2" stroke-opacity="0.200000" points="268.13,-80.47 269.48,-74.26 264.55,-78.27 268.13,-80.47"/>
</g>
</g>
</svg>
