<?xml version="1.0" encoding="UTF-8" standalone="no"?>
<!DOCTYPE svg PUBLIC "-//W3C//DTD SVG 1.1//EN"
 "http://www.w3.org/Graphics/SVG/1.1/DTD/svg11.dtd">
<!-- Generated by graphviz version 9.0.0 (20230911.1827)
 -->
<!-- Title: dependency&#45;cruiser output Pages: 1 -->
<svg width="481pt" height="184pt"
 viewBox="0.00 0.00 481.25 184.00" xmlns="http://www.w3.org/2000/svg" xmlns:xlink="http://www.w3.org/1999/xlink">
<g id="graph0" class="graph" transform="scale(1 1) rotate(0) translate(4 180)">
<title>dependency&#45;cruiser output</title>
<polygon fill="white" stroke="none" points="-4,4 -4,-180 477.25,-180 477.25,4 -4,4"/>
<g id="clust1" class="cluster">
<title>cluster_src</title>
<path fill="#ffffff" stroke="black" stroke-width="2" d="M20,-8C20,-8 453.25,-8 453.25,-8 459.25,-8 465.25,-14 465.25,-20 465.25,-20 465.25,-156 465.25,-156 465.25,-162 459.25,-168 453.25,-168 453.25,-168 20,-168 20,-168 14,-168 8,-162 8,-156 8,-156 8,-20 8,-20 8,-14 14,-8 20,-8"/>
<text text-anchor="middle" x="236.62" y="-155.45" font-family="Helvetica,sans-Serif" font-weight="bold" font-size="9.00">src</text>
</g>
<g id="clust2" class="cluster">
<title>cluster_src/application</title>
<path fill="#ffffff" stroke="black" stroke-width="2" d="M367.25,-16C367.25,-16 445.25,-16 445.25,-16 451.25,-16 457.25,-22 457.25,-28 457.25,-28 457.25,-129 457.25,-129 457.25,-135 451.25,-141 445.25,-141 445.25,-141 367.25,-141 367.25,-141 361.25,-141 355.25,-135 355.25,-129 355.25,-129 355.25,-28 355.25,-28 355.25,-22 361.25,-16 367.25,-16"/>
<text text-anchor="middle" x="406.25" y="-128.45" font-family="Helvetica,sans-Serif" font-weight="bold" font-size="9.00">application</text>
</g>
<g id="clust3" class="cluster">
<title>cluster_src/application/services</title>
<path fill="#ffffff" stroke="black" stroke-width="2" d="M375.25,-24C375.25,-24 437.25,-24 437.25,-24 443.25,-24 449.25,-30 449.25,-36 449.25,-36 449.25,-102 449.25,-102 449.25,-108 443.25,-114 437.25,-114 437.25,-114 375.25,-114 375.25,-114 369.25,-114 363.25,-108 363.25,-102 363.25,-102 363.25,-36 363.25,-36 363.25,-30 369.25,-24 375.25,-24"/>
<text text-anchor="middle" x="406.25" y="-101.45" font-family="Helvetica,sans-Serif" font-weight="bold" font-size="9.00">services</text>
</g>
<g id="clust4" class="cluster">
<title>cluster_src/application/services/filters</title>
<path fill="#ffffff" stroke="black" stroke-width="2" d="M383.25,-32C383.25,-32 429.25,-32 429.25,-32 435.25,-32 441.25,-38 441.25,-44 441.25,-44 441.25,-75 441.25,-75 441.25,-81 435.25,-87 429.25,-87 429.25,-87 383.25,-87 383.25,-87 377.25,-87 371.25,-81 371.25,-75 371.25,-75 371.25,-44 371.25,-44 371.25,-38 377.25,-32 383.25,-32"/>
<text text-anchor="middle" x="406.25" y="-74.45" font-family="Helvetica,sans-Serif" font-weight="bold" font-size="9.00">filters</text>
</g>
<g id="clust7" class="cluster">
<title>cluster_src/stores</title>
<path fill="#ffffff" stroke="black" stroke-width="2" d="M268.75,-59C268.75,-59 335.25,-59 335.25,-59 341.25,-59 347.25,-65 347.25,-71 347.25,-71 347.25,-102 347.25,-102 347.25,-108 341.25,-114 335.25,-114 335.25,-114 268.75,-114 268.75,-114 262.75,-114 256.75,-108 256.75,-102 256.75,-102 256.75,-71 256.75,-71 256.75,-65 262.75,-59 268.75,-59"/>
<text text-anchor="middle" x="302" y="-101.45" font-family="Helvetica,sans-Serif" font-weight="bold" font-size="9.00">stores</text>
</g>
<g id="clust5" class="cluster">
<title>cluster_src/components</title>
<path fill="#ffffff" stroke="black" stroke-width="2" d="M136.25,-16C136.25,-16 236.75,-16 236.75,-16 242.75,-16 248.75,-22 248.75,-28 248.75,-28 248.75,-94 248.75,-94 248.75,-100 242.75,-106 236.75,-106 236.75,-106 136.25,-106 136.25,-106 130.25,-106 124.25,-100 124.25,-94 124.25,-94 124.25,-28 124.25,-28 124.25,-22 130.25,-16 136.25,-16"/>
<text text-anchor="middle" x="186.5" y="-93.45" font-family="Helvetica,sans-Serif" font-weight="bold" font-size="9.00">components</text>
</g>
<g id="clust6" class="cluster">
<title>cluster_src/components/inputs</title>
<path fill="#ffffff" stroke="black" stroke-width="2" d="M144.25,-24C144.25,-24 228.75,-24 228.75,-24 234.75,-24 240.75,-30 240.75,-36 240.75,-36 240.75,-67 240.75,-67 240.75,-73 234.75,-79 228.75,-79 228.75,-79 144.25,-79 144.25,-79 138.25,-79 132.25,-73 132.25,-67 132.25,-67 132.25,-36 132.25,-36 132.25,-30 138.25,-24 144.25,-24"/>
<text text-anchor="middle" x="186.5" y="-66.45" font-family="Helvetica,sans-Serif" font-weight="bold" font-size="9.00">inputs</text>
</g>
<g id="clust8" class="cluster">
<title>cluster_src/views</title>
<path fill="#ffffff" stroke="black" stroke-width="2" d="M28,-55C28,-55 104.25,-55 104.25,-55 110.25,-55 116.25,-61 116.25,-67 116.25,-67 116.25,-129 116.25,-129 116.25,-135 110.25,-141 104.25,-141 104.25,-141 28,-141 28,-141 22,-141 16,-135 16,-129 16,-129 16,-67 16,-67 16,-61 22,-55 28,-55"/>
<text text-anchor="middle" x="66.12" y="-128.45" font-family="Helvetica,sans-Serif" font-weight="bold" font-size="9.00">views</text>
</g>
<!-- src/application/services/filters/index.ts -->
<g id="node1" class="node">
<title>src/application/services/filters/index.ts</title>
<g id="a_node1"><a xlink:href="src/application/services/filters/index.ts" xlink:title="index.ts">
<path fill="#ddfeff" stroke="black" d="M426.83,-59.62C426.83,-59.62 385.67,-59.62 385.67,-59.62 382.46,-59.62 379.25,-56.42 379.25,-53.21 379.25,-53.21 379.25,-46.79 379.25,-46.79 379.25,-43.58 382.46,-40.38 385.67,-40.38 385.67,-40.38 426.83,-40.38 426.83,-40.38 430.04,-40.38 433.25,-43.58 433.25,-46.79 433.25,-46.79 433.25,-53.21 433.25,-53.21 433.25,-56.42 430.04,-59.62 426.83,-59.62"/>
<text text-anchor="start" x="390.5" y="-47.08" font-family="Helvetica,sans-Serif" font-size="9.00">index.ts</text>
</a>
</g>
</g>
<!-- src/components/inputs/FolderSelector.vue -->
<g id="node2" class="node">
<title>src/components/inputs/FolderSelector.vue</title>
<g id="a_node2"><a xlink:href="src/components/inputs/FolderSelector.vue" xlink:title="FolderSelector.vue">
<path fill="#41f083" stroke="black" d="M226.33,-51.62C226.33,-51.62 146.67,-51.62 146.67,-51.62 143.46,-51.62 140.25,-48.42 140.25,-45.21 140.25,-45.21 140.25,-38.79 140.25,-38.79 140.25,-35.58 143.46,-32.38 146.67,-32.38 146.67,-32.38 226.33,-32.38 226.33,-32.38 229.54,-32.38 232.75,-35.58 232.75,-38.79 232.75,-38.79 232.75,-45.21 232.75,-45.21 232.75,-48.42 229.54,-51.62 226.33,-51.62"/>
<text text-anchor="start" x="148.25" y="-39.08" font-family="Helvetica,sans-Serif" font-size="9.00">FolderSelector.vue</text>
</a>
</g>
</g>
<!-- src/stores/videosStore.ts -->
<g id="node3" class="node">
<title>src/stores/videosStore.ts</title>
<g id="a_node3"><a xlink:href="src/stores/videosStore.ts" xlink:title="videosStore.ts">
<path fill="#ddfeff" stroke="black" d="M332.83,-86.62C332.83,-86.62 271.17,-86.62 271.17,-86.62 267.96,-86.62 264.75,-83.42 264.75,-80.21 264.75,-80.21 264.75,-73.79 264.75,-73.79 264.75,-70.58 267.96,-67.38 271.17,-67.38 271.17,-67.38 332.83,-67.38 332.83,-67.38 336.04,-67.38 339.25,-70.58 339.25,-73.79 339.25,-73.79 339.25,-80.21 339.25,-80.21 339.25,-83.42 336.04,-86.62 332.83,-86.62"/>
<text text-anchor="start" x="272.75" y="-74.08" font-family="Helvetica,sans-Serif" font-size="9.00">videosStore.ts</text>
</a>
</g>
</g>
<!-- src/components/inputs/FolderSelector.vue&#45;&gt;src/stores/videosStore.ts -->
<g id="edge1" class="edge">
<title>src/components/inputs/FolderSelector.vue&#45;&gt;src/stores/videosStore.ts</title>
<path fill="none" stroke="#000000" stroke-width="2" stroke-opacity="0.200000" d="M220.33,-52.12C232.68,-55.93 246.88,-60.31 259.9,-64.33"/>
<polygon fill="#000000" fill-opacity="0.200000" stroke="#000000" stroke-width="2" stroke-opacity="0.200000" points="259,-66.25 265.35,-66.01 260.24,-62.23 259,-66.25"/>
</g>
<!-- src/stores/videosStore.ts&#45;&gt;src/application/services/filters/index.ts -->
<g id="edge2" class="edge">
<title>src/stores/videosStore.ts&#45;&gt;src/application/services/filters/index.ts</title>
<path fill="none" stroke="#000000" stroke-width="2" stroke-opacity="0.200000" d="M339.63,-67.33C349.64,-64.68 360.47,-61.82 370.38,-59.21"/>
<polygon fill="#000000" fill-opacity="0.200000" stroke="#000000" stroke-width="2" stroke-opacity="0.200000" points="370.63,-61.31 375.89,-57.75 369.56,-57.25 370.63,-61.31"/>
</g>
<!-- src/views/NavBar.vue -->
<g id="node4" class="node">
<title>src/views/NavBar.vue</title>
<g id="a_node4"><a xlink:href="src/views/NavBar.vue" xlink:title="NavBar.vue">
<path fill="#41f083" stroke="black" d="M90.96,-82.62C90.96,-82.62 41.29,-82.62 41.29,-82.62 38.08,-82.62 34.88,-79.42 34.88,-76.21 34.88,-76.21 34.88,-69.79 34.88,-69.79 34.88,-66.58 38.08,-63.38 41.29,-63.38 41.29,-63.38 90.96,-63.38 90.96,-63.38 94.17,-63.38 97.38,-66.58 97.38,-69.79 97.38,-69.79 97.38,-76.21 97.38,-76.21 97.38,-79.42 94.17,-82.62 90.96,-82.62"/>
<text text-anchor="start" x="42.88" y="-70.08" font-family="Helvetica,sans-Serif" font-size="9.00">NavBar.vue</text>
</a>
</g>
</g>
<!-- src/views/NavBar.vue&#45;&gt;src/components/inputs/FolderSelector.vue -->
<g id="edge3" class="edge">
<title>src/views/NavBar.vue&#45;&gt;src/components/inputs/FolderSelector.vue</title>
<path fill="none" stroke="#000000" stroke-width="2" stroke-opacity="0.200000" d="M97.61,-65.02C110.09,-61.75 124.82,-57.89 138.61,-54.28"/>
<polygon fill="#000000" fill-opacity="0.200000" stroke="#000000" stroke-width="2" stroke-opacity="0.200000" points="138.85,-56.39 144.12,-52.84 137.79,-52.32 138.85,-56.39"/>
</g>
<!-- src/views/NavBar.vue&#45;&gt;src/stores/videosStore.ts -->
<g id="edge4" class="edge">
<title>src/views/NavBar.vue&#45;&gt;src/stores/videosStore.ts</title>
<path fill="none" stroke="#000000" stroke-width="2" stroke-opacity="0.200000" d="M97.85,-78.74C106.37,-80.09 115.64,-81.33 124.25,-82 179.41,-86.32 193.48,-84.64 248.75,-82 250.98,-81.89 253.26,-81.76 255.56,-81.61"/>
<polygon fill="#000000" fill-opacity="0.200000" stroke="#000000" stroke-width="2" stroke-opacity="0.200000" points="255.65,-83.71 261.47,-81.17 255.33,-79.52 255.65,-83.71"/>
</g>
<!-- src/views/VideoGallery.vue -->
<g id="node5" class="node">
<title>src/views/VideoGallery.vue</title>
<g id="a_node5"><a xlink:href="src/views/VideoGallery.vue" xlink:title="VideoGallery.vue">
<path fill="#41f083" stroke="black" d="M101.83,-113.62C101.83,-113.62 30.42,-113.62 30.42,-113.62 27.21,-113.62 24,-110.42 24,-107.21 24,-107.21 24,-100.79 24,-100.79 24,-97.58 27.21,-94.38 30.42,-94.38 30.42,-94.38 101.83,-94.38 101.83,-94.38 105.04,-94.38 108.25,-97.58 108.25,-100.79 108.25,-100.79 108.25,-107.21 108.25,-107.21 108.25,-110.42 105.04,-113.62 101.83,-113.62"/>
<text text-anchor="start" x="32" y="-101.08" font-family="Helvetica,sans-Serif" font-size="9.00">VideoGallery.vue</text>
</a>
</g>
</g>
<!-- src/views/VideoGallery.vue&#45;&gt;src/stores/videosStore.ts -->
<g id="edge5" class="edge">
<title>src/views/VideoGallery.vue&#45;&gt;src/stores/videosStore.ts</title>
<path fill="none" stroke="#000000" stroke-width="2" stroke-opacity="0.200000" d="M108.74,-101.24C145.63,-98.53 200.93,-93.8 248.75,-87 251.15,-86.66 253.61,-86.28 256.09,-85.88"/>
<polygon fill="#000000" fill-opacity="0.200000" stroke="#000000" stroke-width="2" stroke-opacity="0.200000" points="255.99,-88.03 261.55,-84.95 255.28,-83.89 255.99,-88.03"/>
</g>
</g>
</svg>
