<?xml version="1.0" encoding="UTF-8" standalone="no"?>
<!DOCTYPE svg PUBLIC "-//W3C//DTD SVG 1.1//EN"
 "http://www.w3.org/Graphics/SVG/1.1/DTD/svg11.dtd">
<!-- Generated by graphviz version 2.43.0 (0)
 -->
<!-- Title: dependency&#45;cruiser output Pages: 1 -->
<svg width="453pt" height="194pt"
 viewBox="0.00 0.00 453.00 194.00" xmlns="http://www.w3.org/2000/svg" xmlns:xlink="http://www.w3.org/1999/xlink">
<g id="graph0" class="graph" transform="scale(1 1) rotate(0) translate(4 190)">
<title>dependency&#45;cruiser output</title>
<polygon fill="white" stroke="transparent" points="-4,4 -4,-190 449,-190 449,4 -4,4"/>
<g id="clust1" class="cluster">
<title>cluster_src</title>
<path fill="#ffffff" stroke="black" stroke-width="2" d="M20,-8C20,-8 427,-8 427,-8 433,-8 439,-14 439,-20 439,-20 439,-166 439,-166 439,-172 433,-178 427,-178 427,-178 20,-178 20,-178 14,-178 8,-172 8,-166 8,-166 8,-20 8,-20 8,-14 14,-8 20,-8"/>
<text text-anchor="middle" x="223.5" y="-166.8" font-family="Helvetica,sans-Serif" font-weight="bold" font-size="9.00">src</text>
</g>
<g id="clust2" class="cluster">
<title>cluster_src/application</title>
<path fill="#ffffff" stroke="black" stroke-width="2" d="M369,-40C369,-40 419,-40 419,-40 425,-40 431,-46 431,-52 431,-52 431,-80 431,-80 431,-86 425,-92 419,-92 419,-92 369,-92 369,-92 363,-92 357,-86 357,-80 357,-80 357,-52 357,-52 357,-46 363,-40 369,-40"/>
<text text-anchor="middle" x="394" y="-80.8" font-family="Helvetica,sans-Serif" font-weight="bold" font-size="9.00">application</text>
</g>
<g id="clust3" class="cluster">
<title>cluster_src/components</title>
<path fill="#ffffff" stroke="black" stroke-width="2" d="M142,-40C142,-40 225,-40 225,-40 231,-40 237,-46 237,-52 237,-52 237,-140 237,-140 237,-146 231,-152 225,-152 225,-152 142,-152 142,-152 136,-152 130,-146 130,-140 130,-140 130,-52 130,-52 130,-46 136,-40 142,-40"/>
<text text-anchor="middle" x="183.5" y="-140.8" font-family="Helvetica,sans-Serif" font-weight="bold" font-size="9.00">components</text>
</g>
<g id="clust4" class="cluster">
<title>cluster_src/components/inputs</title>
<path fill="#ffffff" stroke="black" stroke-width="2" d="M150,-48C150,-48 217,-48 217,-48 223,-48 229,-54 229,-60 229,-60 229,-88 229,-88 229,-94 223,-100 217,-100 217,-100 150,-100 150,-100 144,-100 138,-94 138,-88 138,-88 138,-60 138,-60 138,-54 144,-48 150,-48"/>
<text text-anchor="middle" x="183.5" y="-88.8" font-family="Helvetica,sans-Serif" font-weight="bold" font-size="9.00">inputs</text>
</g>
<g id="clust5" class="cluster">
<title>cluster_src/domain</title>
<path fill="#ffffff" stroke="black" stroke-width="2" d="M371,-100C371,-100 417,-100 417,-100 423,-100 429,-106 429,-112 429,-112 429,-140 429,-140 429,-146 423,-152 417,-152 417,-152 371,-152 371,-152 365,-152 359,-146 359,-140 359,-140 359,-112 359,-112 359,-106 365,-100 371,-100"/>
<text text-anchor="middle" x="394" y="-140.8" font-family="Helvetica,sans-Serif" font-weight="bold" font-size="9.00">domain</text>
</g>
<g id="clust6" class="cluster">
<title>cluster_src/stores</title>
<path fill="#ffffff" stroke="black" stroke-width="2" d="M257,-44C257,-44 329,-44 329,-44 335,-44 341,-50 341,-56 341,-56 341,-84 341,-84 341,-90 335,-96 329,-96 329,-96 257,-96 257,-96 251,-96 245,-90 245,-84 245,-84 245,-56 245,-56 245,-50 251,-44 257,-44"/>
<text text-anchor="middle" x="293" y="-84.8" font-family="Helvetica,sans-Serif" font-weight="bold" font-size="9.00">stores</text>
</g>
<g id="clust7" class="cluster">
<title>cluster_src/views</title>
<path fill="#ffffff" stroke="black" stroke-width="2" d="M28,-32C28,-32 110,-32 110,-32 116,-32 122,-38 122,-44 122,-44 122,-102 122,-102 122,-108 116,-114 110,-114 110,-114 28,-114 28,-114 22,-114 16,-108 16,-102 16,-102 16,-44 16,-44 16,-38 22,-32 28,-32"/>
<text text-anchor="middle" x="69" y="-102.8" font-family="Helvetica,sans-Serif" font-weight="bold" font-size="9.00">views</text>
</g>
<!-- src/application/index.ts -->
<g id="node1" class="node">
<title>src/application/index.ts</title>
<g id="a_node1"><a xlink:href="src/application/index.ts" xlink:title="index.ts">
<path fill="#ddfeff" stroke="black" d="M415,-66C415,-66 373,-66 373,-66 370,-66 367,-63 367,-60 367,-60 367,-54 367,-54 367,-51 370,-48 373,-48 373,-48 415,-48 415,-48 418,-48 421,-51 421,-54 421,-54 421,-60 421,-60 421,-63 418,-66 415,-66"/>
<text text-anchor="start" x="375.5" y="-54.8" font-family="Helvetica,sans-Serif" font-size="9.00">index.ts</text>
</a>
</g>
</g>
<!-- src/components/VideoCard.vue -->
<g id="node2" class="node">
<title>src/components/VideoCard.vue</title>
<g id="a_node2"><a xlink:href="src/components/VideoCard.vue" xlink:title="VideoCard.vue">
<path fill="#41f083" stroke="black" d="M218.5,-126C218.5,-126 148.5,-126 148.5,-126 145.5,-126 142.5,-123 142.5,-120 142.5,-120 142.5,-114 142.5,-114 142.5,-111 145.5,-108 148.5,-108 148.5,-108 218.5,-108 218.5,-108 221.5,-108 224.5,-111 224.5,-114 224.5,-114 224.5,-120 224.5,-120 224.5,-123 221.5,-126 218.5,-126"/>
<text text-anchor="start" x="150.5" y="-114.8" font-family="Helvetica,sans-Serif" font-size="9.00">VideoCard.vue</text>
</a>
</g>
</g>
<!-- src/domain/index.ts -->
<g id="node3" class="node">
<title>src/domain/index.ts</title>
<g id="a_node3"><a xlink:href="src/domain/index.ts" xlink:title="index.ts">
<path fill="#ddfeff" stroke="black" d="M415,-126C415,-126 373,-126 373,-126 370,-126 367,-123 367,-120 367,-120 367,-114 367,-114 367,-111 370,-108 373,-108 373,-108 415,-108 415,-108 418,-108 421,-111 421,-114 421,-114 421,-120 421,-120 421,-123 418,-126 415,-126"/>
<text text-anchor="start" x="375.5" y="-114.8" font-family="Helvetica,sans-Serif" font-size="9.00">index.ts</text>
</a>
</g>
</g>
<!-- src/components/VideoCard.vue&#45;&gt;src/domain/index.ts -->
<g id="edge1" class="edge">
<title>src/components/VideoCard.vue&#45;&gt;src/domain/index.ts</title>
<path fill="none" stroke="#000000" stroke-opacity="0.200000" d="M224.7,-117C264.3,-117 324.03,-117 360.66,-117"/>
<polygon fill="none" stroke="#000000" stroke-opacity="0.200000" points="360.78,-119.1 366.78,-117 360.78,-114.9 360.78,-119.1"/>
</g>
<!-- src/stores/videosStore.ts -->
<g id="node4" class="node">
<title>src/stores/videosStore.ts</title>
<g id="a_node4"><a xlink:href="src/stores/videosStore.ts" xlink:title="videosStore.ts">
<path fill="#ddfeff" stroke="black" d="M327,-70C327,-70 259,-70 259,-70 256,-70 253,-67 253,-64 253,-64 253,-58 253,-58 253,-55 256,-52 259,-52 259,-52 327,-52 327,-52 330,-52 333,-55 333,-58 333,-58 333,-64 333,-64 333,-67 330,-70 327,-70"/>
<text text-anchor="start" x="261" y="-58.8" font-family="Helvetica,sans-Serif" font-size="9.00">videosStore.ts</text>
</a>
</g>
</g>
<!-- src/components/VideoCard.vue&#45;&gt;src/stores/videosStore.ts -->
<g id="edge2" class="edge">
<title>src/components/VideoCard.vue&#45;&gt;src/stores/videosStore.ts</title>
<path fill="none" stroke="#000000" stroke-width="2" stroke-opacity="0.200000" d="M224.66,-108.05C228.91,-106.59 233.1,-104.91 237,-103 252.34,-95.47 267.61,-83.34 278.15,-74.05"/>
<polygon fill="#000000" fill-opacity="0.200000" stroke="#000000" stroke-width="2" stroke-opacity="0.200000" points="279.59,-75.58 282.65,-70.01 276.78,-72.46 279.59,-75.58"/>
</g>
<!-- src/stores/videosStore.ts&#45;&gt;src/application/index.ts -->
<g id="edge4" class="edge">
<title>src/stores/videosStore.ts&#45;&gt;src/application/index.ts</title>
<path fill="none" stroke="#000000" stroke-width="2" stroke-opacity="0.200000" d="M333.13,-59.42C342.26,-59.05 351.89,-58.66 360.69,-58.31"/>
<polygon fill="#000000" fill-opacity="0.200000" stroke="#000000" stroke-width="2" stroke-opacity="0.200000" points="361.02,-60.39 366.93,-58.05 360.85,-56.2 361.02,-60.39"/>
</g>
<!-- src/stores/videosStore.ts&#45;&gt;src/domain/index.ts -->
<g id="edge5" class="edge">
<title>src/stores/videosStore.ts&#45;&gt;src/domain/index.ts</title>
<path fill="none" stroke="#000000" stroke-opacity="0.200000" d="M310.35,-70.25C327.07,-79.71 353.14,-94.45 371.52,-104.85"/>
<polygon fill="none" stroke="#000000" stroke-opacity="0.200000" points="370.7,-106.8 376.96,-107.92 372.77,-103.14 370.7,-106.8"/>
</g>
<!-- src/components/inputs/FileInput.vue -->
<g id="node5" class="node">
<title>src/components/inputs/FileInput.vue</title>
<g id="a_node5"><a xlink:href="src/components/inputs/FileInput.vue" xlink:title="FileInput.vue">
<path fill="#41f083" stroke="black" d="M215,-74C215,-74 152,-74 152,-74 149,-74 146,-71 146,-68 146,-68 146,-62 146,-62 146,-59 149,-56 152,-56 152,-56 215,-56 215,-56 218,-56 221,-59 221,-62 221,-62 221,-68 221,-68 221,-71 218,-74 215,-74"/>
<text text-anchor="start" x="154" y="-62.8" font-family="Helvetica,sans-Serif" font-size="9.00">FileInput.vue</text>
</a>
</g>
</g>
<!-- src/components/inputs/FileInput.vue&#45;&gt;src/stores/videosStore.ts -->
<g id="edge3" class="edge">
<title>src/components/inputs/FileInput.vue&#45;&gt;src/stores/videosStore.ts</title>
<path fill="none" stroke="#000000" stroke-width="2" stroke-opacity="0.200000" d="M221.19,-63.63C229.34,-63.33 238.06,-63.01 246.51,-62.69"/>
<polygon fill="#000000" fill-opacity="0.200000" stroke="#000000" stroke-width="2" stroke-opacity="0.200000" points="246.98,-64.78 252.9,-62.45 246.83,-60.58 246.98,-64.78"/>
</g>
<!-- src/views/NavBar.vue -->
<g id="node6" class="node">
<title>src/views/NavBar.vue</title>
<g id="a_node6"><a xlink:href="src/views/NavBar.vue" xlink:title="NavBar.vue">
<path fill="#41f083" stroke="black" d="M97,-58C97,-58 41,-58 41,-58 38,-58 35,-55 35,-52 35,-52 35,-46 35,-46 35,-43 38,-40 41,-40 41,-40 97,-40 97,-40 100,-40 103,-43 103,-46 103,-46 103,-52 103,-52 103,-55 100,-58 97,-58"/>
<text text-anchor="start" x="43" y="-46.8" font-family="Helvetica,sans-Serif" font-size="9.00">NavBar.vue</text>
</a>
</g>
</g>
<!-- src/views/NavBar.vue&#45;&gt;src/stores/videosStore.ts -->
<g id="edge7" class="edge">
<title>src/views/NavBar.vue&#45;&gt;src/stores/videosStore.ts</title>
<path fill="none" stroke="#000000" stroke-width="2" stroke-opacity="0.200000" d="M89.24,-39.98C100.78,-35.07 115.91,-29.5 130,-27 176.82,-18.69 191.26,-14 237,-27 251.66,-31.17 266.24,-40.48 276.7,-48.3"/>
<polygon fill="#000000" fill-opacity="0.200000" stroke="#000000" stroke-width="2" stroke-opacity="0.200000" points="275.46,-50 281.49,-52 278.02,-46.67 275.46,-50"/>
</g>
<!-- src/views/NavBar.vue&#45;&gt;src/components/inputs/FileInput.vue -->
<g id="edge6" class="edge">
<title>src/views/NavBar.vue&#45;&gt;src/components/inputs/FileInput.vue</title>
<path fill="none" stroke="#000000" stroke-width="2" stroke-opacity="0.200000" d="M103.15,-53.71C114.52,-55.33 127.41,-57.16 139.45,-58.88"/>
<polygon fill="#000000" fill-opacity="0.200000" stroke="#000000" stroke-width="2" stroke-opacity="0.200000" points="139.42,-60.99 145.65,-59.76 140.01,-56.84 139.42,-60.99"/>
</g>
<!-- src/views/VideoGallery.vue -->
<g id="node7" class="node">
<title>src/views/VideoGallery.vue</title>
<g id="a_node7"><a xlink:href="src/views/VideoGallery.vue" xlink:title="VideoGallery.vue">
<path fill="#41f083" stroke="black" d="M108,-88C108,-88 30,-88 30,-88 27,-88 24,-85 24,-82 24,-82 24,-76 24,-76 24,-73 27,-70 30,-70 30,-70 108,-70 108,-70 111,-70 114,-73 114,-76 114,-76 114,-82 114,-82 114,-85 111,-88 108,-88"/>
<text text-anchor="start" x="32" y="-76.8" font-family="Helvetica,sans-Serif" font-size="9.00">VideoGallery.vue</text>
</a>
</g>
</g>
<!-- src/views/VideoGallery.vue&#45;&gt;src/components/VideoCard.vue -->
<g id="edge8" class="edge">
<title>src/views/VideoGallery.vue&#45;&gt;src/components/VideoCard.vue</title>
<path fill="none" stroke="#000000" stroke-width="2" stroke-opacity="0.200000" d="M90.87,-88.07C102.31,-92.85 116.8,-98.62 130,-103 133.33,-104.1 136.79,-105.18 140.29,-106.22"/>
<polygon fill="#000000" fill-opacity="0.200000" stroke="#000000" stroke-width="2" stroke-opacity="0.200000" points="139.83,-108.27 146.18,-107.92 141,-104.24 139.83,-108.27"/>
</g>
<!-- src/views/VideoGallery.vue&#45;&gt;src/stores/videosStore.ts -->
<g id="edge9" class="edge">
<title>src/views/VideoGallery.vue&#45;&gt;src/stores/videosStore.ts</title>
<path fill="none" stroke="#000000" stroke-width="2" stroke-opacity="0.200000" d="M113.35,-69.92C116.47,-68.26 119.4,-66.31 122,-64 128.85,-57.91 122.37,-50.07 130,-45 171.84,-17.22 233.66,-35.72 267.56,-49.63"/>
<polygon fill="#000000" fill-opacity="0.200000" stroke="#000000" stroke-width="2" stroke-opacity="0.200000" points="266.81,-51.6 273.15,-51.99 268.44,-47.73 266.81,-51.6"/>
</g>
</g>
</svg>
