<?xml version="1.0" encoding="UTF-8" standalone="no"?>
<!DOCTYPE svg PUBLIC "-//W3C//DTD SVG 1.1//EN"
 "http://www.w3.org/Graphics/SVG/1.1/DTD/svg11.dtd">
<!-- Generated by graphviz version 9.0.0 (20230911.1827)
 -->
<!-- Title: dependency&#45;cruiser output Pages: 1 -->
<svg width="441pt" height="303pt"
 viewBox="0.00 0.00 440.50 303.00" xmlns="http://www.w3.org/2000/svg" xmlns:xlink="http://www.w3.org/1999/xlink">
<g id="graph0" class="graph" transform="scale(1 1) rotate(0) translate(4 299)">
<title>dependency&#45;cruiser output</title>
<polygon fill="white" stroke="none" points="-4,4 -4,-299 436.5,-299 436.5,4 -4,4"/>
<g id="clust1" class="cluster">
<title>cluster_src</title>
<path fill="#ffffff" stroke="black" stroke-width="2" d="M20,-8C20,-8 412.5,-8 412.5,-8 418.5,-8 424.5,-14 424.5,-20 424.5,-20 424.5,-275 424.5,-275 424.5,-281 418.5,-287 412.5,-287 412.5,-287 20,-287 20,-287 14,-287 8,-281 8,-275 8,-275 8,-20 8,-20 8,-14 14,-8 20,-8"/>
<text text-anchor="middle" x="216.25" y="-274.45" font-family="Helvetica,sans-Serif" font-weight="bold" font-size="9.00">src</text>
</g>
<g id="clust3" class="cluster">
<title>cluster_src/components</title>
<path fill="#ffffff" stroke="black" stroke-width="2" d="M136.25,-142C136.25,-142 212,-142 212,-142 218,-142 224,-148 224,-154 224,-154 224,-248 224,-248 224,-254 218,-260 212,-260 212,-260 136.25,-260 136.25,-260 130.25,-260 124.25,-254 124.25,-248 124.25,-248 124.25,-154 124.25,-154 124.25,-148 130.25,-142 136.25,-142"/>
<text text-anchor="middle" x="174.12" y="-247.45" font-family="Helvetica,sans-Serif" font-weight="bold" font-size="9.00">components</text>
</g>
<g id="clust4" class="cluster">
<title>cluster_src/components/inputs</title>
<path fill="#ffffff" stroke="black" stroke-width="2" d="M144.25,-150C144.25,-150 204,-150 204,-150 210,-150 216,-156 216,-162 216,-162 216,-193 216,-193 216,-199 210,-205 204,-205 204,-205 144.25,-205 144.25,-205 138.25,-205 132.25,-199 132.25,-193 132.25,-193 132.25,-162 132.25,-162 132.25,-156 138.25,-150 144.25,-150"/>
<text text-anchor="middle" x="174.12" y="-192.45" font-family="Helvetica,sans-Serif" font-weight="bold" font-size="9.00">inputs</text>
</g>
<g id="clust2" class="cluster">
<title>cluster_src/application</title>
<path fill="#ffffff" stroke="black" stroke-width="2" d="M350.5,-16C350.5,-16 396.5,-16 396.5,-16 402.5,-16 408.5,-22 408.5,-28 408.5,-28 408.5,-59 408.5,-59 408.5,-65 402.5,-71 396.5,-71 396.5,-71 350.5,-71 350.5,-71 344.5,-71 338.5,-65 338.5,-59 338.5,-59 338.5,-28 338.5,-28 338.5,-22 344.5,-16 350.5,-16"/>
<text text-anchor="middle" x="373.5" y="-58.45" font-family="Helvetica,sans-Serif" font-weight="bold" font-size="9.00">application</text>
</g>
<g id="clust8" class="cluster">
<title>cluster_src/stores</title>
<path fill="#ffffff" stroke="black" stroke-width="2" d="M244,-115C244,-115 310.5,-115 310.5,-115 316.5,-115 322.5,-121 322.5,-127 322.5,-127 322.5,-158 322.5,-158 322.5,-164 316.5,-170 310.5,-170 310.5,-170 244,-170 244,-170 238,-170 232,-164 232,-158 232,-158 232,-127 232,-127 232,-121 238,-115 244,-115"/>
<text text-anchor="middle" x="277.25" y="-157.45" font-family="Helvetica,sans-Serif" font-weight="bold" font-size="9.00">stores</text>
</g>
<g id="clust5" class="cluster">
<title>cluster_src/domain</title>
<path fill="#ffffff" stroke="black" stroke-width="2" d="M350.5,-205C350.5,-205 396.5,-205 396.5,-205 402.5,-205 408.5,-211 408.5,-217 408.5,-217 408.5,-248 408.5,-248 408.5,-254 402.5,-260 396.5,-260 396.5,-260 350.5,-260 350.5,-260 344.5,-260 338.5,-254 338.5,-248 338.5,-248 338.5,-217 338.5,-217 338.5,-211 344.5,-205 350.5,-205"/>
<text text-anchor="middle" x="373.5" y="-247.45" font-family="Helvetica,sans-Serif" font-weight="bold" font-size="9.00">domain</text>
</g>
<g id="clust6" class="cluster">
<title>cluster_src/infrastructure</title>
<path fill="#ffffff" stroke="black" stroke-width="2" d="M342.5,-79C342.5,-79 404.5,-79 404.5,-79 410.5,-79 416.5,-85 416.5,-91 416.5,-91 416.5,-185 416.5,-185 416.5,-191 410.5,-197 404.5,-197 404.5,-197 342.5,-197 342.5,-197 336.5,-197 330.5,-191 330.5,-185 330.5,-185 330.5,-91 330.5,-91 330.5,-85 336.5,-79 342.5,-79"/>
<text text-anchor="middle" x="373.5" y="-184.45" font-family="Helvetica,sans-Serif" font-weight="bold" font-size="9.00">infrastructure</text>
</g>
<g id="clust7" class="cluster">
<title>cluster_src/infrastructure/services</title>
<path fill="#ffffff" stroke="black" stroke-width="2" d="M350.5,-115C350.5,-115 396.5,-115 396.5,-115 402.5,-115 408.5,-121 408.5,-127 408.5,-127 408.5,-158 408.5,-158 408.5,-164 402.5,-170 396.5,-170 396.5,-170 350.5,-170 350.5,-170 344.5,-170 338.5,-164 338.5,-158 338.5,-158 338.5,-127 338.5,-127 338.5,-121 344.5,-115 350.5,-115"/>
<text text-anchor="middle" x="373.5" y="-157.45" font-family="Helvetica,sans-Serif" font-weight="bold" font-size="9.00">services</text>
</g>
<g id="clust9" class="cluster">
<title>cluster_src/views</title>
<path fill="#ffffff" stroke="black" stroke-width="2" d="M28,-125C28,-125 104.25,-125 104.25,-125 110.25,-125 116.25,-131 116.25,-137 116.25,-137 116.25,-199 116.25,-199 116.25,-205 110.25,-211 104.25,-211 104.25,-211 28,-211 28,-211 22,-211 16,-205 16,-199 16,-199 16,-137 16,-137 16,-131 22,-125 28,-125"/>
<text text-anchor="middle" x="66.12" y="-198.45" font-family="Helvetica,sans-Serif" font-weight="bold" font-size="9.00">views</text>
</g>
<!-- src/application/index.ts -->
<g id="node1" class="node">
<title>src/application/index.ts</title>
<g id="a_node1"><a xlink:href="src/application/index.ts" xlink:title="index.ts">
<path fill="#ddfeff" stroke="black" d="M394.08,-43.62C394.08,-43.62 352.92,-43.62 352.92,-43.62 349.71,-43.62 346.5,-40.42 346.5,-37.21 346.5,-37.21 346.5,-30.79 346.5,-30.79 346.5,-27.58 349.71,-24.38 352.92,-24.38 352.92,-24.38 394.08,-24.38 394.08,-24.38 397.29,-24.38 400.5,-27.58 400.5,-30.79 400.5,-30.79 400.5,-37.21 400.5,-37.21 400.5,-40.42 397.29,-43.62 394.08,-43.62"/>
<text text-anchor="start" x="357.75" y="-31.07" font-family="Helvetica,sans-Serif" font-size="9.00">index.ts</text>
</a>
</g>
</g>
<!-- src/components/VideoCard.vue -->
<g id="node2" class="node">
<title>src/components/VideoCard.vue</title>
<g id="a_node2"><a xlink:href="src/components/VideoCard.vue" xlink:title="VideoCard.vue">
<path fill="#41f083" stroke="black" d="M205.71,-232.62C205.71,-232.62 142.54,-232.62 142.54,-232.62 139.33,-232.62 136.12,-229.42 136.12,-226.21 136.12,-226.21 136.12,-219.79 136.12,-219.79 136.12,-216.58 139.33,-213.38 142.54,-213.38 142.54,-213.38 205.71,-213.38 205.71,-213.38 208.92,-213.38 212.12,-216.58 212.12,-219.79 212.12,-219.79 212.12,-226.21 212.12,-226.21 212.12,-229.42 208.92,-232.62 205.71,-232.62"/>
<text text-anchor="start" x="144.12" y="-220.07" font-family="Helvetica,sans-Serif" font-size="9.00">VideoCard.vue</text>
</a>
</g>
</g>
<!-- src/domain/index.ts -->
<g id="node3" class="node">
<title>src/domain/index.ts</title>
<g id="a_node3"><a xlink:href="src/domain/index.ts" xlink:title="index.ts">
<path fill="#ddfeff" stroke="black" d="M394.08,-232.62C394.08,-232.62 352.92,-232.62 352.92,-232.62 349.71,-232.62 346.5,-229.42 346.5,-226.21 346.5,-226.21 346.5,-219.79 346.5,-219.79 346.5,-216.58 349.71,-213.38 352.92,-213.38 352.92,-213.38 394.08,-213.38 394.08,-213.38 397.29,-213.38 400.5,-216.58 400.5,-219.79 400.5,-219.79 400.5,-226.21 400.5,-226.21 400.5,-229.42 397.29,-232.62 394.08,-232.62"/>
<text text-anchor="start" x="357.75" y="-220.07" font-family="Helvetica,sans-Serif" font-size="9.00">index.ts</text>
</a>
</g>
</g>
<!-- src/components/VideoCard.vue&#45;&gt;src/domain/index.ts -->
<g id="edge1" class="edge">
<title>src/components/VideoCard.vue&#45;&gt;src/domain/index.ts</title>
<path fill="none" stroke="#000000" stroke-opacity="0.200000" d="M212.25,-223C248.74,-223 303.92,-223 339.08,-223"/>
<polygon fill="none" stroke="#000000" stroke-opacity="0.200000" points="338.75,-225.1 344.75,-223 338.75,-220.9 338.75,-225.1"/>
</g>
<!-- src/stores/videosStore.ts -->
<g id="node4" class="node">
<title>src/stores/videosStore.ts</title>
<g id="a_node4"><a xlink:href="src/stores/videosStore.ts" xlink:title="videosStore.ts">
<path fill="#ddfeff" stroke="black" d="M308.08,-142.62C308.08,-142.62 246.42,-142.62 246.42,-142.62 243.21,-142.62 240,-139.42 240,-136.21 240,-136.21 240,-129.79 240,-129.79 240,-126.58 243.21,-123.38 246.42,-123.38 246.42,-123.38 308.08,-123.38 308.08,-123.38 311.29,-123.38 314.5,-126.58 314.5,-129.79 314.5,-129.79 314.5,-136.21 314.5,-136.21 314.5,-139.42 311.29,-142.62 308.08,-142.62"/>
<text text-anchor="start" x="248" y="-130.07" font-family="Helvetica,sans-Serif" font-size="9.00">videosStore.ts</text>
</a>
</g>
</g>
<!-- src/components/VideoCard.vue&#45;&gt;src/stores/videosStore.ts -->
<g id="edge2" class="edge">
<title>src/components/VideoCard.vue&#45;&gt;src/stores/videosStore.ts</title>
<path fill="none" stroke="#000000" stroke-width="2" stroke-opacity="0.200000" d="M212.42,-214.46C216.53,-212.69 220.49,-210.56 224,-208 244.2,-193.27 259.33,-168.27 267.97,-151.21"/>
<polygon fill="#000000" fill-opacity="0.200000" stroke="#000000" stroke-width="2" stroke-opacity="0.200000" points="269.85,-152.15 270.58,-145.84 266.07,-150.32 269.85,-152.15"/>
</g>
<!-- src/stores/videosStore.ts&#45;&gt;src/application/index.ts -->
<g id="edge4" class="edge">
<title>src/stores/videosStore.ts&#45;&gt;src/application/index.ts</title>
<path fill="none" stroke="#000000" stroke-width="2" stroke-opacity="0.200000" d="M287,-123.2C297.27,-111.75 314.9,-92.29 330.5,-76 338.86,-67.27 348.36,-57.73 356.22,-49.96"/>
<polygon fill="#000000" fill-opacity="0.200000" stroke="#000000" stroke-width="2" stroke-opacity="0.200000" points="357.41,-51.73 360.21,-46.02 354.46,-48.74 357.41,-51.73"/>
</g>
<!-- src/stores/videosStore.ts&#45;&gt;src/domain/index.ts -->
<g id="edge5" class="edge">
<title>src/stores/videosStore.ts&#45;&gt;src/domain/index.ts</title>
<path fill="none" stroke="#000000" stroke-opacity="0.200000" d="M288.7,-142.98C305.26,-158.79 337.63,-189.7 356.93,-208.13"/>
<polygon fill="none" stroke="#000000" stroke-opacity="0.200000" points="355.12,-209.31 360.91,-211.93 358.02,-206.27 355.12,-209.31"/>
</g>
<!-- src/infrastructure/index.ts -->
<g id="node6" class="node">
<title>src/infrastructure/index.ts</title>
<g id="a_node6"><a xlink:href="src/infrastructure/index.ts" xlink:title="index.ts">
<path fill="#ddfeff" stroke="black" d="M394.08,-106.62C394.08,-106.62 352.92,-106.62 352.92,-106.62 349.71,-106.62 346.5,-103.42 346.5,-100.21 346.5,-100.21 346.5,-93.79 346.5,-93.79 346.5,-90.58 349.71,-87.38 352.92,-87.38 352.92,-87.38 394.08,-87.38 394.08,-87.38 397.29,-87.38 400.5,-90.58 400.5,-93.79 400.5,-93.79 400.5,-100.21 400.5,-100.21 400.5,-103.42 397.29,-106.62 394.08,-106.62"/>
<text text-anchor="start" x="357.75" y="-94.08" font-family="Helvetica,sans-Serif" font-size="9.00">index.ts</text>
</a>
</g>
</g>
<!-- src/stores/videosStore.ts&#45;&gt;src/infrastructure/index.ts -->
<g id="edge6" class="edge">
<title>src/stores/videosStore.ts&#45;&gt;src/infrastructure/index.ts</title>
<path fill="none" stroke="#000000" stroke-width="2" stroke-opacity="0.200000" d="M302.63,-122.97C311.39,-119.43 321.36,-115.47 330.5,-112 332.88,-111.1 335.33,-110.18 337.81,-109.27"/>
<polygon fill="#000000" fill-opacity="0.200000" stroke="#000000" stroke-width="2" stroke-opacity="0.200000" points="338.46,-111.27 343.38,-107.24 337.03,-107.32 338.46,-111.27"/>
</g>
<!-- src/infrastructure/services/index.ts -->
<g id="node7" class="node">
<title>src/infrastructure/services/index.ts</title>
<g id="a_node7"><a xlink:href="src/infrastructure/services/index.ts" xlink:title="index.ts">
<path fill="#ddfeff" stroke="black" d="M394.08,-142.62C394.08,-142.62 352.92,-142.62 352.92,-142.62 349.71,-142.62 346.5,-139.42 346.5,-136.21 346.5,-136.21 346.5,-129.79 346.5,-129.79 346.5,-126.58 349.71,-123.38 352.92,-123.38 352.92,-123.38 394.08,-123.38 394.08,-123.38 397.29,-123.38 400.5,-126.58 400.5,-129.79 400.5,-129.79 400.5,-136.21 400.5,-136.21 400.5,-139.42 397.29,-142.62 394.08,-142.62"/>
<text text-anchor="start" x="357.75" y="-130.07" font-family="Helvetica,sans-Serif" font-size="9.00">index.ts</text>
</a>
</g>
</g>
<!-- src/stores/videosStore.ts&#45;&gt;src/infrastructure/services/index.ts -->
<g id="edge7" class="edge">
<title>src/stores/videosStore.ts&#45;&gt;src/infrastructure/services/index.ts</title>
<path fill="none" stroke="#000000" stroke-width="2" stroke-opacity="0.200000" d="M314.96,-133C322.3,-133 330,-133 337.29,-133"/>
<polygon fill="#000000" fill-opacity="0.200000" stroke="#000000" stroke-width="2" stroke-opacity="0.200000" points="337.22,-135.1 343.22,-133 337.22,-130.9 337.22,-135.1"/>
</g>
<!-- src/components/inputs/FileInput.vue -->
<g id="node5" class="node">
<title>src/components/inputs/FileInput.vue</title>
<g id="a_node5"><a xlink:href="src/components/inputs/FileInput.vue" xlink:title="FileInput.vue">
<path fill="#41f083" stroke="black" d="M201.58,-177.62C201.58,-177.62 146.67,-177.62 146.67,-177.62 143.46,-177.62 140.25,-174.42 140.25,-171.21 140.25,-171.21 140.25,-164.79 140.25,-164.79 140.25,-161.58 143.46,-158.38 146.67,-158.38 146.67,-158.38 201.58,-158.38 201.58,-158.38 204.79,-158.38 208,-161.58 208,-164.79 208,-164.79 208,-171.21 208,-171.21 208,-174.42 204.79,-177.62 201.58,-177.62"/>
<text text-anchor="start" x="148.25" y="-165.07" font-family="Helvetica,sans-Serif" font-size="9.00">FileInput.vue</text>
</a>
</g>
</g>
<!-- src/components/inputs/FileInput.vue&#45;&gt;src/stores/videosStore.ts -->
<g id="edge3" class="edge">
<title>src/components/inputs/FileInput.vue&#45;&gt;src/stores/videosStore.ts</title>
<path fill="none" stroke="#000000" stroke-width="2" stroke-opacity="0.200000" d="M204.37,-157.88C215.07,-154.18 227.31,-149.94 238.63,-146.02"/>
<polygon fill="#000000" fill-opacity="0.200000" stroke="#000000" stroke-width="2" stroke-opacity="0.200000" points="239.22,-148.04 244.21,-144.09 237.85,-144.07 239.22,-148.04"/>
</g>
<!-- src/views/NavBar.vue -->
<g id="node8" class="node">
<title>src/views/NavBar.vue</title>
<g id="a_node8"><a xlink:href="src/views/NavBar.vue" xlink:title="NavBar.vue">
<path fill="#41f083" stroke="black" d="M90.96,-152.62C90.96,-152.62 41.29,-152.62 41.29,-152.62 38.08,-152.62 34.88,-149.42 34.88,-146.21 34.88,-146.21 34.88,-139.79 34.88,-139.79 34.88,-136.58 38.08,-133.38 41.29,-133.38 41.29,-133.38 90.96,-133.38 90.96,-133.38 94.17,-133.38 97.38,-136.58 97.38,-139.79 97.38,-139.79 97.38,-146.21 97.38,-146.21 97.38,-149.42 94.17,-152.62 90.96,-152.62"/>
<text text-anchor="start" x="42.88" y="-140.07" font-family="Helvetica,sans-Serif" font-size="9.00">NavBar.vue</text>
</a>
</g>
</g>
<!-- src/views/NavBar.vue&#45;&gt;src/stores/videosStore.ts -->
<g id="edge9" class="edge">
<title>src/views/NavBar.vue&#45;&gt;src/stores/videosStore.ts</title>
<path fill="none" stroke="#000000" stroke-width="2" stroke-opacity="0.200000" d="M97.71,-134.07C106.22,-131.98 115.53,-130.05 124.25,-129 159.91,-124.69 200.6,-126.1 230.91,-128.35"/>
<polygon fill="#000000" fill-opacity="0.200000" stroke="#000000" stroke-width="2" stroke-opacity="0.200000" points="230.4,-130.42 236.54,-128.8 230.73,-126.23 230.4,-130.42"/>
</g>
<!-- src/views/NavBar.vue&#45;&gt;src/components/inputs/FileInput.vue -->
<g id="edge8" class="edge">
<title>src/views/NavBar.vue&#45;&gt;src/components/inputs/FileInput.vue</title>
<path fill="none" stroke="#000000" stroke-width="2" stroke-opacity="0.200000" d="M97.78,-150.23C108.21,-152.69 120.04,-155.48 131.19,-158.11"/>
<polygon fill="#000000" fill-opacity="0.200000" stroke="#000000" stroke-width="2" stroke-opacity="0.200000" points="130.67,-160.15 136.99,-159.48 131.64,-156.06 130.67,-160.15"/>
</g>
<!-- src/views/VideoGallery.vue -->
<g id="node9" class="node">
<title>src/views/VideoGallery.vue</title>
<g id="a_node9"><a xlink:href="src/views/VideoGallery.vue" xlink:title="VideoGallery.vue">
<path fill="#41f083" stroke="black" d="M101.83,-183.62C101.83,-183.62 30.42,-183.62 30.42,-183.62 27.21,-183.62 24,-180.42 24,-177.21 24,-177.21 24,-170.79 24,-170.79 24,-167.58 27.21,-164.38 30.42,-164.38 30.42,-164.38 101.83,-164.38 101.83,-164.38 105.04,-164.38 108.25,-167.58 108.25,-170.79 108.25,-170.79 108.25,-177.21 108.25,-177.21 108.25,-180.42 105.04,-183.62 101.83,-183.62"/>
<text text-anchor="start" x="32" y="-171.07" font-family="Helvetica,sans-Serif" font-size="9.00">VideoGallery.vue</text>
</a>
</g>
</g>
<!-- src/views/VideoGallery.vue&#45;&gt;src/components/VideoCard.vue -->
<g id="edge10" class="edge">
<title>src/views/VideoGallery.vue&#45;&gt;src/components/VideoCard.vue</title>
<path fill="none" stroke="#000000" stroke-width="2" stroke-opacity="0.200000" d="M81.64,-183.96C92.88,-191.35 109.06,-201.26 124.25,-208 125.62,-208.61 127.02,-209.2 128.44,-209.77"/>
<polygon fill="#000000" fill-opacity="0.200000" stroke="#000000" stroke-width="2" stroke-opacity="0.200000" points="127.55,-211.68 133.9,-211.83 129.03,-207.75 127.55,-211.68"/>
</g>
<!-- src/views/VideoGallery.vue&#45;&gt;src/stores/videosStore.ts -->
<g id="edge11" class="edge">
<title>src/views/VideoGallery.vue&#45;&gt;src/stores/videosStore.ts</title>
<path fill="none" stroke="#000000" stroke-width="2" stroke-opacity="0.200000" d="M107.9,-164.05C110.85,-162.59 113.67,-160.92 116.25,-159 121.39,-155.17 118.74,-150.28 124.25,-147 141.69,-136.61 192.7,-133.64 230.85,-132.93"/>
<polygon fill="#000000" fill-opacity="0.200000" stroke="#000000" stroke-width="2" stroke-opacity="0.200000" points="230.76,-135.03 236.73,-132.85 230.7,-130.84 230.76,-135.03"/>
</g>
</g>
</svg>
