<?xml version="1.0" encoding="UTF-8" standalone="no"?>
<!DOCTYPE svg PUBLIC "-//W3C//DTD SVG 1.1//EN"
 "http://www.w3.org/Graphics/SVG/1.1/DTD/svg11.dtd">
<!-- Generated by graphviz version 2.43.0 (0)
 -->
<!-- Title: dependency&#45;cruiser output Pages: 1 -->
<svg width="325pt" height="124pt"
 viewBox="0.00 0.00 325.00 124.00" xmlns="http://www.w3.org/2000/svg" xmlns:xlink="http://www.w3.org/1999/xlink">
<g id="graph0" class="graph" transform="scale(1 1) rotate(0) translate(4 120)">
<title>dependency&#45;cruiser output</title>
<polygon fill="white" stroke="transparent" points="-4,4 -4,-120 321,-120 321,4 -4,4"/>
<g id="clust1" class="cluster">
<title>cluster_src</title>
<path fill="#ffffff" stroke="black" stroke-width="2" d="M20,-8C20,-8 297,-8 297,-8 303,-8 309,-14 309,-20 309,-20 309,-96 309,-96 309,-102 303,-108 297,-108 297,-108 20,-108 20,-108 14,-108 8,-102 8,-96 8,-96 8,-20 8,-20 8,-14 14,-8 20,-8"/>
<text text-anchor="middle" x="158.5" y="-96.8" font-family="Helvetica,sans-Serif" font-weight="bold" font-size="9.00">src</text>
</g>
<g id="clust2" class="cluster">
<title>cluster_src/presentation</title>
<path fill="#ffffff" stroke="black" stroke-width="2" d="M90,-16C90,-16 289,-16 289,-16 295,-16 301,-22 301,-28 301,-28 301,-70 301,-70 301,-76 295,-82 289,-82 289,-82 90,-82 90,-82 84,-82 78,-76 78,-70 78,-70 78,-28 78,-28 78,-22 84,-16 90,-16"/>
<text text-anchor="middle" x="189.5" y="-70.8" font-family="Helvetica,sans-Serif" font-weight="bold" font-size="9.00">presentation</text>
</g>
<!-- src/App.vue -->
<g id="node1" class="node">
<title>src/App.vue</title>
<g id="a_node1"><a xlink:href="src/App.vue" xlink:title="App.vue">
<path fill="#41f083" stroke="black" d="M64,-49C64,-49 22,-49 22,-49 19,-49 16,-46 16,-43 16,-43 16,-37 16,-37 16,-34 19,-31 22,-31 22,-31 64,-31 64,-31 67,-31 70,-34 70,-37 70,-37 70,-43 70,-43 70,-46 67,-49 64,-49"/>
<text text-anchor="start" x="24" y="-37.8" font-family="Helvetica,sans-Serif" font-size="9.00">App.vue</text>
</a>
</g>
</g>
<!-- src/presentation/views -->
<g id="node2" class="node">
<title>src/presentation/views</title>
<g id="a_node2"><a xlink:href="src/presentation/views" xlink:title="views">
<polygon fill="#ffffcc" stroke="black" points="140,-49 88,-49 86,-47 86,-31 138,-31 140,-33 140,-49"/>
<polyline fill="none" stroke="black" points="138,-47 86,-47 "/>
<polyline fill="none" stroke="black" points="138,-47 138,-31 "/>
<polyline fill="none" stroke="black" points="138,-47 140,-49 "/>
<text text-anchor="start" x="100.5" y="-37.8" font-family="Helvetica,sans-Serif" font-size="9.00">views</text>
</a>
</g>
</g>
<!-- src/App.vue&#45;&gt;src/presentation/views -->
<g id="edge1" class="edge">
<title>src/App.vue&#45;&gt;src/presentation/views</title>
<path fill="none" stroke="#000000" stroke-width="2" stroke-opacity="0.200000" d="M70.1,-40C73.12,-40 76.23,-40 79.33,-40"/>
<polygon fill="#000000" fill-opacity="0.200000" stroke="#000000" stroke-width="2" stroke-opacity="0.200000" points="79.64,-42.1 85.64,-40 79.64,-37.9 79.64,-42.1"/>
</g>
<!-- src/presentation/components -->
<g id="node3" class="node">
<title>src/presentation/components</title>
<g id="a_node3"><a xlink:href="src/presentation/components" xlink:title="components">
<polygon fill="#ffffcc" stroke="black" points="226,-42 155,-42 153,-40 153,-24 224,-24 226,-26 226,-42"/>
<polyline fill="none" stroke="black" points="224,-40 153,-40 "/>
<polyline fill="none" stroke="black" points="224,-40 224,-24 "/>
<polyline fill="none" stroke="black" points="224,-40 226,-42 "/>
<text text-anchor="start" x="161" y="-30.8" font-family="Helvetica,sans-Serif" font-size="9.00">components</text>
</a>
</g>
</g>
<!-- src/presentation/views&#45;&gt;src/presentation/components -->
<g id="edge3" class="edge">
<title>src/presentation/views&#45;&gt;src/presentation/components</title>
<path fill="none" stroke="#000000" stroke-width="2" stroke-opacity="0.200000" d="M140.06,-37.55C142.24,-37.35 144.48,-37.14 146.75,-36.92"/>
<polygon fill="#000000" fill-opacity="0.200000" stroke="#000000" stroke-width="2" stroke-opacity="0.200000" points="146.99,-39.01 152.77,-36.36 146.6,-34.83 146.99,-39.01"/>
</g>
<!-- src/presentation/stores -->
<g id="node4" class="node">
<title>src/presentation/stores</title>
<g id="a_node4"><a xlink:href="src/presentation/stores" xlink:title="stores">
<polygon fill="#ffffcc" stroke="black" points="293,-49 241,-49 239,-47 239,-31 291,-31 293,-33 293,-49"/>
<polyline fill="none" stroke="black" points="291,-47 239,-47 "/>
<polyline fill="none" stroke="black" points="291,-47 291,-31 "/>
<polyline fill="none" stroke="black" points="291,-47 293,-49 "/>
<text text-anchor="start" x="252" y="-37.8" font-family="Helvetica,sans-Serif" font-size="9.00">stores</text>
</a>
</g>
</g>
<!-- src/presentation/views&#45;&gt;src/presentation/stores -->
<g id="edge4" class="edge">
<title>src/presentation/views&#45;&gt;src/presentation/stores</title>
<path fill="none" stroke="#000000" stroke-width="2" stroke-opacity="0.200000" d="M140.32,-46.15C144.54,-46.92 148.87,-47.58 153,-48 185.28,-51.28 193.72,-51.28 226,-48 228.19,-47.78 230.44,-47.49 232.7,-47.15"/>
<polygon fill="#000000" fill-opacity="0.200000" stroke="#000000" stroke-width="2" stroke-opacity="0.200000" points="233.11,-49.21 238.68,-46.15 232.41,-45.07 233.11,-49.21"/>
</g>
<!-- src/presentation/components&#45;&gt;src/presentation/stores -->
<g id="edge2" class="edge">
<title>src/presentation/components&#45;&gt;src/presentation/stores</title>
<path fill="none" stroke="#000000" stroke-width="2" stroke-opacity="0.200000" d="M226,-36.34C228.31,-36.55 230.63,-36.77 232.92,-36.99"/>
<polygon fill="#000000" fill-opacity="0.200000" stroke="#000000" stroke-width="2" stroke-opacity="0.200000" points="232.73,-39.08 238.9,-37.55 233.13,-34.9 232.73,-39.08"/>
</g>
</g>
</svg>
