<?xml version="1.0" encoding="UTF-8" standalone="no"?>
<!DOCTYPE svg PUBLIC "-//W3C//DTD SVG 1.1//EN"
 "http://www.w3.org/Graphics/SVG/1.1/DTD/svg11.dtd">
<!-- Generated by graphviz version 9.0.0 (20230911.1827)
 -->
<!-- Title: dependency&#45;cruiser output Pages: 1 -->
<svg width="420pt" height="212pt"
 viewBox="0.00 0.00 420.00 212.00" xmlns="http://www.w3.org/2000/svg" xmlns:xlink="http://www.w3.org/1999/xlink">
<g id="graph0" class="graph" transform="scale(1 1) rotate(0) translate(4 208)">
<title>dependency&#45;cruiser output</title>
<polygon fill="white" stroke="none" points="-4,4 -4,-208 416,-208 416,4 -4,4"/>
<g id="clust1" class="cluster">
<title>cluster_src</title>
<path fill="#ffffff" stroke="black" stroke-width="2" d="M20,-8C20,-8 392,-8 392,-8 398,-8 404,-14 404,-20 404,-20 404,-184 404,-184 404,-190 398,-196 392,-196 392,-196 20,-196 20,-196 14,-196 8,-190 8,-184 8,-184 8,-20 8,-20 8,-14 14,-8 20,-8"/>
<text text-anchor="middle" x="206" y="-183.45" font-family="Helvetica,sans-Serif" font-weight="bold" font-size="9.00">src</text>
</g>
<g id="clust2" class="cluster">
<title>cluster_src/application</title>
<path fill="#ffffff" stroke="black" stroke-width="2" d="M322,-65C322,-65 384,-65 384,-65 390,-65 396,-71 396,-77 396,-77 396,-143 396,-143 396,-149 390,-155 384,-155 384,-155 322,-155 322,-155 316,-155 310,-149 310,-143 310,-143 310,-77 310,-77 310,-71 316,-65 322,-65"/>
<text text-anchor="middle" x="353" y="-142.45" font-family="Helvetica,sans-Serif" font-weight="bold" font-size="9.00">application</text>
</g>
<g id="clust3" class="cluster">
<title>cluster_src/application/stores</title>
<path fill="#ffffff" stroke="black" stroke-width="2" d="M330,-73C330,-73 376,-73 376,-73 382,-73 388,-79 388,-85 388,-85 388,-116 388,-116 388,-122 382,-128 376,-128 376,-128 330,-128 330,-128 324,-128 318,-122 318,-116 318,-116 318,-85 318,-85 318,-79 324,-73 330,-73"/>
<text text-anchor="middle" x="353" y="-115.45" font-family="Helvetica,sans-Serif" font-weight="bold" font-size="9.00">stores</text>
</g>
<g id="clust4" class="cluster">
<title>cluster_src/presentation</title>
<path fill="#ffffff" stroke="black" stroke-width="2" d="M90,-16C90,-16 290,-16 290,-16 296,-16 302,-22 302,-28 302,-28 302,-157 302,-157 302,-163 296,-169 290,-169 290,-169 90,-169 90,-169 84,-169 78,-163 78,-157 78,-157 78,-28 78,-28 78,-22 84,-16 90,-16"/>
<text text-anchor="middle" x="190" y="-156.45" font-family="Helvetica,sans-Serif" font-weight="bold" font-size="9.00">presentation</text>
</g>
<g id="clust5" class="cluster">
<title>cluster_src/presentation/components</title>
<path fill="#ffffff" stroke="black" stroke-width="2" d="M206.25,-24C206.25,-24 282,-24 282,-24 288,-24 294,-30 294,-36 294,-36 294,-130 294,-130 294,-136 288,-142 282,-142 282,-142 206.25,-142 206.25,-142 200.25,-142 194.25,-136 194.25,-130 194.25,-130 194.25,-36 194.25,-36 194.25,-30 200.25,-24 206.25,-24"/>
<text text-anchor="middle" x="244.12" y="-129.45" font-family="Helvetica,sans-Serif" font-weight="bold" font-size="9.00">components</text>
</g>
<g id="clust6" class="cluster">
<title>cluster_src/presentation/components/inputs</title>
<path fill="#ffffff" stroke="black" stroke-width="2" d="M214.25,-60C214.25,-60 274,-60 274,-60 280,-60 286,-66 286,-72 286,-72 286,-103 286,-103 286,-109 280,-115 274,-115 274,-115 214.25,-115 214.25,-115 208.25,-115 202.25,-109 202.25,-103 202.25,-103 202.25,-72 202.25,-72 202.25,-66 208.25,-60 214.25,-60"/>
<text text-anchor="middle" x="244.12" y="-102.45" font-family="Helvetica,sans-Serif" font-weight="bold" font-size="9.00">inputs</text>
</g>
<g id="clust7" class="cluster">
<title>cluster_src/presentation/views</title>
<path fill="#ffffff" stroke="black" stroke-width="2" d="M98,-42C98,-42 174.25,-42 174.25,-42 180.25,-42 186.25,-48 186.25,-54 186.25,-54 186.25,-116 186.25,-116 186.25,-122 180.25,-128 174.25,-128 174.25,-128 98,-128 98,-128 92,-128 86,-122 86,-116 86,-116 86,-54 86,-54 86,-48 92,-42 98,-42"/>
<text text-anchor="middle" x="136.12" y="-115.45" font-family="Helvetica,sans-Serif" font-weight="bold" font-size="9.00">views</text>
</g>
<!-- src/App.vue -->
<g id="node1" class="node">
<title>src/App.vue</title>
<g id="a_node1"><a xlink:href="src/App.vue" xlink:title="App.vue">
<path fill="#41f083" stroke="black" d="M63.58,-84.62C63.58,-84.62 22.42,-84.62 22.42,-84.62 19.21,-84.62 16,-81.42 16,-78.21 16,-78.21 16,-71.79 16,-71.79 16,-68.58 19.21,-65.38 22.42,-65.38 22.42,-65.38 63.58,-65.38 63.58,-65.38 66.79,-65.38 70,-68.58 70,-71.79 70,-71.79 70,-78.21 70,-78.21 70,-81.42 66.79,-84.62 63.58,-84.62"/>
<text text-anchor="start" x="26.88" y="-72.08" font-family="Helvetica,sans-Serif" font-size="9.00">App.vue</text>
</a>
</g>
</g>
<!-- src/presentation/views/NavBar.vue -->
<g id="node2" class="node">
<title>src/presentation/views/NavBar.vue</title>
<g id="a_node2"><a xlink:href="src/presentation/views/NavBar.vue" xlink:title="NavBar.vue">
<path fill="#41f083" stroke="black" d="M160.96,-100.62C160.96,-100.62 111.29,-100.62 111.29,-100.62 108.08,-100.62 104.88,-97.42 104.88,-94.21 104.88,-94.21 104.88,-87.79 104.88,-87.79 104.88,-84.58 108.08,-81.38 111.29,-81.38 111.29,-81.38 160.96,-81.38 160.96,-81.38 164.17,-81.38 167.38,-84.58 167.38,-87.79 167.38,-87.79 167.38,-94.21 167.38,-94.21 167.38,-97.42 164.17,-100.62 160.96,-100.62"/>
<text text-anchor="start" x="112.88" y="-88.08" font-family="Helvetica,sans-Serif" font-size="9.00">NavBar.vue</text>
</a>
</g>
</g>
<!-- src/App.vue&#45;&gt;src/presentation/views/NavBar.vue -->
<g id="edge1" class="edge">
<title>src/App.vue&#45;&gt;src/presentation/views/NavBar.vue</title>
<path fill="none" stroke="#000000" stroke-width="2" stroke-opacity="0.200000" d="M70.36,-79.63C78.32,-81.03 87.23,-82.59 95.84,-84.1"/>
<polygon fill="#000000" fill-opacity="0.200000" stroke="#000000" stroke-width="2" stroke-opacity="0.200000" points="95.4,-86.16 101.67,-85.13 96.12,-82.02 95.4,-86.16"/>
</g>
<!-- src/presentation/views/VideoGallery.vue -->
<g id="node3" class="node">
<title>src/presentation/views/VideoGallery.vue</title>
<g id="a_node3"><a xlink:href="src/presentation/views/VideoGallery.vue" xlink:title="VideoGallery.vue">
<path fill="#41f083" stroke="black" d="M171.83,-69.62C171.83,-69.62 100.42,-69.62 100.42,-69.62 97.21,-69.62 94,-66.42 94,-63.21 94,-63.21 94,-56.79 94,-56.79 94,-53.58 97.21,-50.38 100.42,-50.38 100.42,-50.38 171.83,-50.38 171.83,-50.38 175.04,-50.38 178.25,-53.58 178.25,-56.79 178.25,-56.79 178.25,-63.21 178.25,-63.21 178.25,-66.42 175.04,-69.62 171.83,-69.62"/>
<text text-anchor="start" x="102" y="-57.08" font-family="Helvetica,sans-Serif" font-size="9.00">VideoGallery.vue</text>
</a>
</g>
</g>
<!-- src/App.vue&#45;&gt;src/presentation/views/VideoGallery.vue -->
<g id="edge2" class="edge">
<title>src/App.vue&#45;&gt;src/presentation/views/VideoGallery.vue</title>
<path fill="none" stroke="#000000" stroke-width="2" stroke-opacity="0.200000" d="M70.36,-70.66C74.89,-69.92 79.73,-69.12 84.66,-68.31"/>
<polygon fill="#000000" fill-opacity="0.200000" stroke="#000000" stroke-width="2" stroke-opacity="0.200000" points="84.98,-70.38 90.56,-67.34 84.3,-66.24 84.98,-70.38"/>
</g>
<!-- src/application/stores/index.ts -->
<g id="node4" class="node">
<title>src/application/stores/index.ts</title>
<g id="a_node4"><a xlink:href="src/application/stores/index.ts" xlink:title="index.ts">
<path fill="#ddfeff" stroke="black" d="M373.58,-100.62C373.58,-100.62 332.42,-100.62 332.42,-100.62 329.21,-100.62 326,-97.42 326,-94.21 326,-94.21 326,-87.79 326,-87.79 326,-84.58 329.21,-81.38 332.42,-81.38 332.42,-81.38 373.58,-81.38 373.58,-81.38 376.79,-81.38 380,-84.58 380,-87.79 380,-87.79 380,-94.21 380,-94.21 380,-97.42 376.79,-100.62 373.58,-100.62"/>
<text text-anchor="start" x="337.25" y="-88.08" font-family="Helvetica,sans-Serif" font-size="9.00">index.ts</text>
</a>
</g>
</g>
<!-- src/presentation/views/NavBar.vue&#45;&gt;src/application/stores/index.ts -->
<g id="edge5" class="edge">
<title>src/presentation/views/NavBar.vue&#45;&gt;src/application/stores/index.ts</title>
<path fill="none" stroke="#000000" stroke-width="2" stroke-opacity="0.200000" d="M142.34,-100.93C150.87,-115.94 169.38,-143.86 194.25,-155 237.96,-174.57 258.96,-175.99 302,-155 321.67,-145.4 335.87,-123.91 344,-108.48"/>
<polygon fill="#000000" fill-opacity="0.200000" stroke="#000000" stroke-width="2" stroke-opacity="0.200000" points="345.76,-109.66 346.55,-103.35 342,-107.79 345.76,-109.66"/>
</g>
<!-- src/presentation/components/inputs/FileInput.vue -->
<g id="node6" class="node">
<title>src/presentation/components/inputs/FileInput.vue</title>
<g id="a_node6"><a xlink:href="src/presentation/components/inputs/FileInput.vue" xlink:title="FileInput.vue">
<path fill="#41f083" stroke="black" d="M271.58,-87.62C271.58,-87.62 216.67,-87.62 216.67,-87.62 213.46,-87.62 210.25,-84.42 210.25,-81.21 210.25,-81.21 210.25,-74.79 210.25,-74.79 210.25,-71.58 213.46,-68.38 216.67,-68.38 216.67,-68.38 271.58,-68.38 271.58,-68.38 274.79,-68.38 278,-71.58 278,-74.79 278,-74.79 278,-81.21 278,-81.21 278,-84.42 274.79,-87.62 271.58,-87.62"/>
<text text-anchor="start" x="218.25" y="-75.08" font-family="Helvetica,sans-Serif" font-size="9.00">FileInput.vue</text>
</a>
</g>
</g>
<!-- src/presentation/views/NavBar.vue&#45;&gt;src/presentation/components/inputs/FileInput.vue -->
<g id="edge6" class="edge">
<title>src/presentation/views/NavBar.vue&#45;&gt;src/presentation/components/inputs/FileInput.vue</title>
<path fill="none" stroke="#000000" stroke-width="2" stroke-opacity="0.200000" d="M167.78,-87.24C178.21,-85.96 190.04,-84.51 201.19,-83.14"/>
<polygon fill="#000000" fill-opacity="0.200000" stroke="#000000" stroke-width="2" stroke-opacity="0.200000" points="201.24,-85.25 206.94,-82.44 200.72,-81.08 201.24,-85.25"/>
</g>
<!-- src/presentation/views/VideoGallery.vue&#45;&gt;src/application/stores/index.ts -->
<g id="edge7" class="edge">
<title>src/presentation/views/VideoGallery.vue&#45;&gt;src/application/stores/index.ts</title>
<path fill="none" stroke="#000000" stroke-width="2" stroke-opacity="0.200000" d="M178.41,-68.61C181.32,-70.37 183.99,-72.47 186.25,-75 199.2,-89.5 179.3,-105.58 194.25,-118 232.63,-149.9 294.8,-123.75 328.49,-105.3"/>
<polygon fill="#000000" fill-opacity="0.200000" stroke="#000000" stroke-width="2" stroke-opacity="0.200000" points="329.19,-107.32 333.38,-102.54 327.13,-103.66 329.19,-107.32"/>
</g>
<!-- src/presentation/components/VideoCard.vue -->
<g id="node5" class="node">
<title>src/presentation/components/VideoCard.vue</title>
<g id="a_node5"><a xlink:href="src/presentation/components/VideoCard.vue" xlink:title="VideoCard.vue">
<path fill="#41f083" stroke="black" d="M275.71,-51.62C275.71,-51.62 212.54,-51.62 212.54,-51.62 209.33,-51.62 206.12,-48.42 206.12,-45.21 206.12,-45.21 206.12,-38.79 206.12,-38.79 206.12,-35.58 209.33,-32.38 212.54,-32.38 212.54,-32.38 275.71,-32.38 275.71,-32.38 278.92,-32.38 282.12,-35.58 282.12,-38.79 282.12,-38.79 282.12,-45.21 282.12,-45.21 282.12,-48.42 278.92,-51.62 275.71,-51.62"/>
<text text-anchor="start" x="214.12" y="-39.08" font-family="Helvetica,sans-Serif" font-size="9.00">VideoCard.vue</text>
</a>
</g>
</g>
<!-- src/presentation/views/VideoGallery.vue&#45;&gt;src/presentation/components/VideoCard.vue -->
<g id="edge8" class="edge">
<title>src/presentation/views/VideoGallery.vue&#45;&gt;src/presentation/components/VideoCard.vue</title>
<path fill="none" stroke="#000000" stroke-width="2" stroke-opacity="0.200000" d="M178.71,-52.94C184.72,-51.92 190.92,-50.86 197.01,-49.83"/>
<polygon fill="#000000" fill-opacity="0.200000" stroke="#000000" stroke-width="2" stroke-opacity="0.200000" points="197.24,-51.92 202.81,-48.85 196.54,-47.78 197.24,-51.92"/>
</g>
<!-- src/presentation/components/VideoCard.vue&#45;&gt;src/application/stores/index.ts -->
<g id="edge3" class="edge">
<title>src/presentation/components/VideoCard.vue&#45;&gt;src/application/stores/index.ts</title>
<path fill="none" stroke="#000000" stroke-width="2" stroke-opacity="0.200000" d="M282.47,-49.91C289.12,-51.86 295.87,-54.21 302,-57 312.9,-61.96 324.01,-69.25 332.98,-75.81"/>
<polygon fill="#000000" fill-opacity="0.200000" stroke="#000000" stroke-width="2" stroke-opacity="0.200000" points="331.49,-77.32 337.55,-79.26 334.02,-73.97 331.49,-77.32"/>
</g>
<!-- src/presentation/components/inputs/FileInput.vue&#45;&gt;src/application/stores/index.ts -->
<g id="edge4" class="edge">
<title>src/presentation/components/inputs/FileInput.vue&#45;&gt;src/application/stores/index.ts</title>
<path fill="none" stroke="#000000" stroke-width="2" stroke-opacity="0.200000" d="M278.36,-82.04C290.58,-83.53 304.47,-85.22 316.86,-86.73"/>
<polygon fill="#000000" fill-opacity="0.200000" stroke="#000000" stroke-width="2" stroke-opacity="0.200000" points="316.36,-88.78 322.57,-87.42 316.87,-84.61 316.36,-88.78"/>
</g>
</g>
</svg>
