<?xml version="1.0" encoding="UTF-8" standalone="no"?>
<!DOCTYPE svg PUBLIC "-//W3C//DTD SVG 1.1//EN"
 "http://www.w3.org/Graphics/SVG/1.1/DTD/svg11.dtd">
<!-- Generated by graphviz version 9.0.0 (20230911.1827)
 -->
<!-- Title: dependency&#45;cruiser output Pages: 1 -->
<svg width="320pt" height="128pt"
 viewBox="0.00 0.00 319.75 128.00" xmlns="http://www.w3.org/2000/svg" xmlns:xlink="http://www.w3.org/1999/xlink">
<g id="graph0" class="graph" transform="scale(1 1) rotate(0) translate(4 124)">
<title>dependency&#45;cruiser output</title>
<polygon fill="white" stroke="none" points="-4,4 -4,-124 315.75,-124 315.75,4 -4,4"/>
<g id="clust1" class="cluster">
<title>cluster_src</title>
<path fill="#ffffff" stroke="black" stroke-width="2" d="M20,-8C20,-8 291.75,-8 291.75,-8 297.75,-8 303.75,-14 303.75,-20 303.75,-20 303.75,-100 303.75,-100 303.75,-106 297.75,-112 291.75,-112 291.75,-112 20,-112 20,-112 14,-112 8,-106 8,-100 8,-100 8,-20 8,-20 8,-14 14,-8 20,-8"/>
<text text-anchor="middle" x="155.88" y="-99.45" font-family="Helvetica,sans-Serif" font-weight="bold" font-size="9.00">src</text>
</g>
<g id="clust2" class="cluster">
<title>cluster_src/presentation</title>
<path fill="#ffffff" stroke="black" stroke-width="2" d="M90,-16C90,-16 283.75,-16 283.75,-16 289.75,-16 295.75,-22 295.75,-28 295.75,-28 295.75,-73 295.75,-73 295.75,-79 289.75,-85 283.75,-85 283.75,-85 90,-85 90,-85 84,-85 78,-79 78,-73 78,-73 78,-28 78,-28 78,-22 84,-16 90,-16"/>
<text text-anchor="middle" x="186.88" y="-72.45" font-family="Helvetica,sans-Serif" font-weight="bold" font-size="9.00">presentation</text>
</g>
<!-- src/App.vue -->
<g id="node1" class="node">
<title>src/App.vue</title>
<g id="a_node1"><a xlink:href="src/App.vue" xlink:title="App.vue">
<path fill="#41f083" stroke="black" d="M63.58,-50.62C63.58,-50.62 22.42,-50.62 22.42,-50.62 19.21,-50.62 16,-47.42 16,-44.21 16,-44.21 16,-37.79 16,-37.79 16,-34.58 19.21,-31.38 22.42,-31.38 22.42,-31.38 63.58,-31.38 63.58,-31.38 66.79,-31.38 70,-34.58 70,-37.79 70,-37.79 70,-44.21 70,-44.21 70,-47.42 66.79,-50.62 63.58,-50.62"/>
<text text-anchor="start" x="26.88" y="-38.08" font-family="Helvetica,sans-Serif" font-size="9.00">App.vue</text>
</a>
</g>
</g>
<!-- src/presentation/views -->
<g id="node2" class="node">
<title>src/presentation/views</title>
<g id="a_node2"><a xlink:href="src/presentation/views" xlink:title="views">
<polygon fill="#ffffcc" stroke="black" points="140,-50.62 88.14,-50.62 86,-48.49 86,-31.38 137.86,-31.38 140,-33.51 140,-50.62"/>
<polyline fill="none" stroke="black" points="137.86,-48.49 86,-48.49"/>
<polyline fill="none" stroke="black" points="137.86,-48.49 137.86,-31.38"/>
<polyline fill="none" stroke="black" points="137.86,-48.49 140,-50.62"/>
<text text-anchor="start" x="101.38" y="-38.08" font-family="Helvetica,sans-Serif" font-size="9.00">views</text>
</a>
</g>
</g>
<!-- src/App.vue&#45;&gt;src/presentation/views -->
<g id="edge1" class="edge">
<title>src/App.vue&#45;&gt;src/presentation/views</title>
<path fill="none" stroke="#000000" stroke-width="2" stroke-opacity="0.200000" d="M70.49,-41C72.7,-41 74.97,-41 77.24,-41"/>
<polygon fill="#000000" fill-opacity="0.200000" stroke="#000000" stroke-width="2" stroke-opacity="0.200000" points="76.9,-43.1 82.9,-41 76.9,-38.9 76.9,-43.1"/>
</g>
<!-- src/presentation/components -->
<g id="node3" class="node">
<title>src/presentation/components</title>
<g id="a_node3"><a xlink:href="src/presentation/components" xlink:title="components">
<polygon fill="#ffffcc" stroke="black" points="220.75,-43.62 155.14,-43.62 153,-41.49 153,-24.38 218.61,-24.38 220.75,-26.51 220.75,-43.62"/>
<polyline fill="none" stroke="black" points="218.61,-41.49 153,-41.49"/>
<polyline fill="none" stroke="black" points="218.61,-41.49 218.61,-24.38"/>
<polyline fill="none" stroke="black" points="218.61,-41.49 220.75,-43.62"/>
<text text-anchor="start" x="161" y="-31.07" font-family="Helvetica,sans-Serif" font-size="9.00">components</text>
</a>
</g>
</g>
<!-- src/presentation/views&#45;&gt;src/presentation/components -->
<g id="edge3" class="edge">
<title>src/presentation/views&#45;&gt;src/presentation/components</title>
<path fill="none" stroke="#000000" stroke-width="2" stroke-opacity="0.200000" d="M140.36,-38.43C141.48,-38.32 142.62,-38.21 143.77,-38.1"/>
<polygon fill="#000000" fill-opacity="0.200000" stroke="#000000" stroke-width="2" stroke-opacity="0.200000" points="143.89,-40.2 149.66,-37.53 143.48,-36.02 143.89,-40.2"/>
</g>
<!-- src/presentation/stores -->
<g id="node4" class="node">
<title>src/presentation/stores</title>
<g id="a_node4"><a xlink:href="src/presentation/stores" xlink:title="stores">
<polygon fill="#ffffcc" stroke="black" points="287.75,-50.62 235.89,-50.62 233.75,-48.49 233.75,-31.38 285.61,-31.38 287.75,-33.51 287.75,-50.62"/>
<polyline fill="none" stroke="black" points="285.61,-48.49 233.75,-48.49"/>
<polyline fill="none" stroke="black" points="285.61,-48.49 285.61,-31.38"/>
<polyline fill="none" stroke="black" points="285.61,-48.49 287.75,-50.62"/>
<text text-anchor="start" x="247.62" y="-38.08" font-family="Helvetica,sans-Serif" font-size="9.00">stores</text>
</a>
</g>
</g>
<!-- src/presentation/views&#45;&gt;src/presentation/stores -->
<g id="edge4" class="edge">
<title>src/presentation/views&#45;&gt;src/presentation/stores</title>
<path fill="none" stroke="#000000" stroke-width="2" stroke-opacity="0.200000" d="M140.29,-47.92C144.51,-48.78 148.86,-49.53 153,-50 182.92,-53.41 190.83,-53.41 220.75,-50 222.04,-49.85 223.36,-49.68 224.68,-49.48"/>
<polygon fill="#000000" fill-opacity="0.200000" stroke="#000000" stroke-width="2" stroke-opacity="0.200000" points="224.94,-51.57 230.48,-48.45 224.2,-47.43 224.94,-51.57"/>
</g>
<!-- src/presentation/components&#45;&gt;src/presentation/stores -->
<g id="edge2" class="edge">
<title>src/presentation/components&#45;&gt;src/presentation/stores</title>
<path fill="none" stroke="#000000" stroke-width="2" stroke-opacity="0.200000" d="M220.87,-37.21C222.21,-37.34 223.55,-37.47 224.89,-37.6"/>
<polygon fill="#000000" fill-opacity="0.200000" stroke="#000000" stroke-width="2" stroke-opacity="0.200000" points="224.44,-39.67 230.62,-38.16 224.85,-35.49 224.44,-39.67"/>
</g>
</g>
</svg>
