<?xml version="1.0" encoding="UTF-8" standalone="no"?>
<!DOCTYPE svg PUBLIC "-//W3C//DTD SVG 1.1//EN"
 "http://www.w3.org/Graphics/SVG/1.1/DTD/svg11.dtd">
<!-- Generated by graphviz version 9.0.0 (20230911.1827)
 -->
<!-- Title: dependency&#45;cruiser output Pages: 1 -->
<svg width="404pt" height="232pt"
 viewBox="0.00 0.00 404.00 232.00" xmlns="http://www.w3.org/2000/svg" xmlns:xlink="http://www.w3.org/1999/xlink">
<g id="graph0" class="graph" transform="scale(1 1) rotate(0) translate(4 228)">
<title>dependency&#45;cruiser output</title>
<polygon fill="white" stroke="none" points="-4,4 -4,-228 400,-228 400,4 -4,4"/>
<g id="clust1" class="cluster">
<title>cluster_src</title>
<path fill="#ffffff" stroke="black" stroke-width="2" d="M20,-8C20,-8 376,-8 376,-8 382,-8 388,-14 388,-20 388,-20 388,-204 388,-204 388,-210 382,-216 376,-216 376,-216 20,-216 20,-216 14,-216 8,-210 8,-204 8,-204 8,-20 8,-20 8,-14 14,-8 20,-8"/>
<text text-anchor="middle" x="198" y="-203.45" font-family="Helvetica,sans-Serif" font-weight="bold" font-size="9.00">src</text>
</g>
<g id="clust2" class="cluster">
<title>cluster_src/presentation</title>
<path fill="#ffffff" stroke="black" stroke-width="2" d="M90,-16C90,-16 368,-16 368,-16 374,-16 380,-22 380,-28 380,-28 380,-177 380,-177 380,-183 374,-189 368,-189 368,-189 90,-189 90,-189 84,-189 78,-183 78,-177 78,-177 78,-28 78,-28 78,-22 84,-16 90,-16"/>
<text text-anchor="middle" x="229" y="-176.45" font-family="Helvetica,sans-Serif" font-weight="bold" font-size="9.00">presentation</text>
</g>
<g id="clust3" class="cluster">
<title>cluster_src/presentation/components</title>
<path fill="#ffffff" stroke="black" stroke-width="2" d="M206.25,-34C206.25,-34 282,-34 282,-34 288,-34 294,-40 294,-46 294,-46 294,-140 294,-140 294,-146 288,-152 282,-152 282,-152 206.25,-152 206.25,-152 200.25,-152 194.25,-146 194.25,-140 194.25,-140 194.25,-46 194.25,-46 194.25,-40 200.25,-34 206.25,-34"/>
<text text-anchor="middle" x="244.12" y="-139.45" font-family="Helvetica,sans-Serif" font-weight="bold" font-size="9.00">components</text>
</g>
<g id="clust4" class="cluster">
<title>cluster_src/presentation/components/inputs</title>
<path fill="#ffffff" stroke="black" stroke-width="2" d="M214.25,-70C214.25,-70 274,-70 274,-70 280,-70 286,-76 286,-82 286,-82 286,-113 286,-113 286,-119 280,-125 274,-125 274,-125 214.25,-125 214.25,-125 208.25,-125 202.25,-119 202.25,-113 202.25,-113 202.25,-82 202.25,-82 202.25,-76 208.25,-70 214.25,-70"/>
<text text-anchor="middle" x="244.12" y="-112.45" font-family="Helvetica,sans-Serif" font-weight="bold" font-size="9.00">inputs</text>
</g>
<g id="clust5" class="cluster">
<title>cluster_src/presentation/stores</title>
<path fill="#ffffff" stroke="black" stroke-width="2" d="M314,-52C314,-52 360,-52 360,-52 366,-52 372,-58 372,-64 372,-64 372,-95 372,-95 372,-101 366,-107 360,-107 360,-107 314,-107 314,-107 308,-107 302,-101 302,-95 302,-95 302,-64 302,-64 302,-58 308,-52 314,-52"/>
<text text-anchor="middle" x="337" y="-94.45" font-family="Helvetica,sans-Serif" font-weight="bold" font-size="9.00">stores</text>
</g>
<g id="clust6" class="cluster">
<title>cluster_src/presentation/views</title>
<path fill="#ffffff" stroke="black" stroke-width="2" d="M98,-47C98,-47 174.25,-47 174.25,-47 180.25,-47 186.25,-53 186.25,-59 186.25,-59 186.25,-121 186.25,-121 186.25,-127 180.25,-133 174.25,-133 174.25,-133 98,-133 98,-133 92,-133 86,-127 86,-121 86,-121 86,-59 86,-59 86,-53 92,-47 98,-47"/>
<text text-anchor="middle" x="136.12" y="-120.45" font-family="Helvetica,sans-Serif" font-weight="bold" font-size="9.00">views</text>
</g>
<!-- src/App.vue -->
<g id="node1" class="node">
<title>src/App.vue</title>
<g id="a_node1"><a xlink:href="src/App.vue" xlink:title="App.vue">
<path fill="#41f083" stroke="black" d="M63.58,-89.62C63.58,-89.62 22.42,-89.62 22.42,-89.62 19.21,-89.62 16,-86.42 16,-83.21 16,-83.21 16,-76.79 16,-76.79 16,-73.58 19.21,-70.38 22.42,-70.38 22.42,-70.38 63.58,-70.38 63.58,-70.38 66.79,-70.38 70,-73.58 70,-76.79 70,-76.79 70,-83.21 70,-83.21 70,-86.42 66.79,-89.62 63.58,-89.62"/>
<text text-anchor="start" x="26.88" y="-77.08" font-family="Helvetica,sans-Serif" font-size="9.00">App.vue</text>
</a>
</g>
</g>
<!-- src/presentation/views/NavBar.vue -->
<g id="node2" class="node">
<title>src/presentation/views/NavBar.vue</title>
<g id="a_node2"><a xlink:href="src/presentation/views/NavBar.vue" xlink:title="NavBar.vue">
<path fill="#41f083" stroke="black" d="M160.96,-74.62C160.96,-74.62 111.29,-74.62 111.29,-74.62 108.08,-74.62 104.88,-71.42 104.88,-68.21 104.88,-68.21 104.88,-61.79 104.88,-61.79 104.88,-58.58 108.08,-55.38 111.29,-55.38 111.29,-55.38 160.96,-55.38 160.96,-55.38 164.17,-55.38 167.38,-58.58 167.38,-61.79 167.38,-61.79 167.38,-68.21 167.38,-68.21 167.38,-71.42 164.17,-74.62 160.96,-74.62"/>
<text text-anchor="start" x="112.88" y="-62.08" font-family="Helvetica,sans-Serif" font-size="9.00">NavBar.vue</text>
</a>
</g>
</g>
<!-- src/App.vue&#45;&gt;src/presentation/views/NavBar.vue -->
<g id="edge1" class="edge">
<title>src/App.vue&#45;&gt;src/presentation/views/NavBar.vue</title>
<path fill="none" stroke="#000000" stroke-width="2" stroke-opacity="0.200000" d="M70.36,-75.66C78.32,-74.35 87.23,-72.88 95.84,-71.47"/>
<polygon fill="#000000" fill-opacity="0.200000" stroke="#000000" stroke-width="2" stroke-opacity="0.200000" points="96.08,-73.55 101.66,-70.51 95.4,-69.41 96.08,-73.55"/>
</g>
<!-- src/presentation/views/VideoGallery.vue -->
<g id="node3" class="node">
<title>src/presentation/views/VideoGallery.vue</title>
<g id="a_node3"><a xlink:href="src/presentation/views/VideoGallery.vue" xlink:title="VideoGallery.vue">
<path fill="#41f083" stroke="black" d="M171.83,-105.62C171.83,-105.62 100.42,-105.62 100.42,-105.62 97.21,-105.62 94,-102.42 94,-99.21 94,-99.21 94,-92.79 94,-92.79 94,-89.58 97.21,-86.38 100.42,-86.38 100.42,-86.38 171.83,-86.38 171.83,-86.38 175.04,-86.38 178.25,-89.58 178.25,-92.79 178.25,-92.79 178.25,-99.21 178.25,-99.21 178.25,-102.42 175.04,-105.62 171.83,-105.62"/>
<text text-anchor="start" x="102" y="-93.08" font-family="Helvetica,sans-Serif" font-size="9.00">VideoGallery.vue</text>
</a>
</g>
</g>
<!-- src/App.vue&#45;&gt;src/presentation/views/VideoGallery.vue -->
<g id="edge2" class="edge">
<title>src/App.vue&#45;&gt;src/presentation/views/VideoGallery.vue</title>
<path fill="none" stroke="#000000" stroke-width="2" stroke-opacity="0.200000" d="M70.36,-84.63C75,-85.44 79.98,-86.32 85.03,-87.2"/>
<polygon fill="#000000" fill-opacity="0.200000" stroke="#000000" stroke-width="2" stroke-opacity="0.200000" points="84.29,-89.21 90.57,-88.18 85.02,-85.07 84.29,-89.21"/>
</g>
<!-- src/presentation/stores/index.ts -->
<g id="node5" class="node">
<title>src/presentation/stores/index.ts</title>
<g id="a_node5"><a xlink:href="src/presentation/stores/index.ts" xlink:title="index.ts">
<path fill="#ddfeff" stroke="black" d="M357.58,-79.62C357.58,-79.62 316.42,-79.62 316.42,-79.62 313.21,-79.62 310,-76.42 310,-73.21 310,-73.21 310,-66.79 310,-66.79 310,-63.58 313.21,-60.38 316.42,-60.38 316.42,-60.38 357.58,-60.38 357.58,-60.38 360.79,-60.38 364,-63.58 364,-66.79 364,-66.79 364,-73.21 364,-73.21 364,-76.42 360.79,-79.62 357.58,-79.62"/>
<text text-anchor="start" x="321.25" y="-67.08" font-family="Helvetica,sans-Serif" font-size="9.00">index.ts</text>
</a>
</g>
</g>
<!-- src/presentation/views/NavBar.vue&#45;&gt;src/presentation/stores/index.ts -->
<g id="edge6" class="edge">
<title>src/presentation/views/NavBar.vue&#45;&gt;src/presentation/stores/index.ts</title>
<path fill="none" stroke="#000000" stroke-width="2" stroke-opacity="0.200000" d="M149.37,-55.03C160.37,-46.77 177.34,-35.65 194.25,-31 237,-19.24 252.73,-14.8 294,-31 305.58,-35.55 315.86,-44.95 323.36,-53.39"/>
<polygon fill="#000000" fill-opacity="0.200000" stroke="#000000" stroke-width="2" stroke-opacity="0.200000" points="321.57,-54.52 327.03,-57.79 324.8,-51.84 321.57,-54.52"/>
</g>
<!-- src/presentation/components/inputs/FileInput.vue -->
<g id="node6" class="node">
<title>src/presentation/components/inputs/FileInput.vue</title>
<g id="a_node6"><a xlink:href="src/presentation/components/inputs/FileInput.vue" xlink:title="FileInput.vue">
<path fill="#41f083" stroke="black" d="M271.58,-97.62C271.58,-97.62 216.67,-97.62 216.67,-97.62 213.46,-97.62 210.25,-94.42 210.25,-91.21 210.25,-91.21 210.25,-84.79 210.25,-84.79 210.25,-81.58 213.46,-78.38 216.67,-78.38 216.67,-78.38 271.58,-78.38 271.58,-78.38 274.79,-78.38 278,-81.58 278,-84.79 278,-84.79 278,-91.21 278,-91.21 278,-94.42 274.79,-97.62 271.58,-97.62"/>
<text text-anchor="start" x="218.25" y="-85.08" font-family="Helvetica,sans-Serif" font-size="9.00">FileInput.vue</text>
</a>
</g>
</g>
<!-- src/presentation/views/NavBar.vue&#45;&gt;src/presentation/components/inputs/FileInput.vue -->
<g id="edge5" class="edge">
<title>src/presentation/views/NavBar.vue&#45;&gt;src/presentation/components/inputs/FileInput.vue</title>
<path fill="none" stroke="#000000" stroke-width="2" stroke-opacity="0.200000" d="M167.78,-71.65C178.21,-73.91 190.04,-76.48 201.19,-78.9"/>
<polygon fill="#000000" fill-opacity="0.200000" stroke="#000000" stroke-width="2" stroke-opacity="0.200000" points="200.67,-80.94 206.98,-80.16 201.56,-76.83 200.67,-80.94"/>
</g>
<!-- src/presentation/components/VideoCard.vue -->
<g id="node4" class="node">
<title>src/presentation/components/VideoCard.vue</title>
<g id="a_node4"><a xlink:href="src/presentation/components/VideoCard.vue" xlink:title="VideoCard.vue">
<path fill="#41f083" stroke="black" d="M275.71,-61.62C275.71,-61.62 212.54,-61.62 212.54,-61.62 209.33,-61.62 206.12,-58.42 206.12,-55.21 206.12,-55.21 206.12,-48.79 206.12,-48.79 206.12,-45.58 209.33,-42.38 212.54,-42.38 212.54,-42.38 275.71,-42.38 275.71,-42.38 278.92,-42.38 282.12,-45.58 282.12,-48.79 282.12,-48.79 282.12,-55.21 282.12,-55.21 282.12,-58.42 278.92,-61.62 275.71,-61.62"/>
<text text-anchor="start" x="214.12" y="-49.08" font-family="Helvetica,sans-Serif" font-size="9.00">VideoCard.vue</text>
</a>
</g>
</g>
<!-- src/presentation/views/VideoGallery.vue&#45;&gt;src/presentation/components/VideoCard.vue -->
<g id="edge7" class="edge">
<title>src/presentation/views/VideoGallery.vue&#45;&gt;src/presentation/components/VideoCard.vue</title>
<path fill="none" stroke="#000000" stroke-width="2" stroke-opacity="0.200000" d="M178.54,-85.99C181.27,-84.55 183.88,-82.89 186.25,-81 191.85,-76.53 188.65,-71.48 194.25,-67 195.44,-66.05 196.69,-65.15 197.99,-64.32"/>
<polygon fill="#000000" fill-opacity="0.200000" stroke="#000000" stroke-width="2" stroke-opacity="0.200000" points="198.87,-66.23 203.18,-61.55 196.9,-62.52 198.87,-66.23"/>
</g>
<!-- src/presentation/views/VideoGallery.vue&#45;&gt;src/presentation/stores/index.ts -->
<g id="edge8" class="edge">
<title>src/presentation/views/VideoGallery.vue&#45;&gt;src/presentation/stores/index.ts</title>
<path fill="none" stroke="#000000" stroke-width="2" stroke-opacity="0.200000" d="M150.36,-106.01C161.42,-113.72 177.97,-123.75 194.25,-128 237.15,-139.2 254.51,-148.16 294,-128 310.32,-119.67 321.77,-101.7 328.55,-87.96"/>
<polygon fill="#000000" fill-opacity="0.200000" stroke="#000000" stroke-width="2" stroke-opacity="0.200000" points="330.31,-89.15 330.91,-82.82 326.5,-87.4 330.31,-89.15"/>
</g>
<!-- src/presentation/components/VideoCard.vue&#45;&gt;src/presentation/stores/index.ts -->
<g id="edge3" class="edge">
<title>src/presentation/components/VideoCard.vue&#45;&gt;src/presentation/stores/index.ts</title>
<path fill="none" stroke="#000000" stroke-width="2" stroke-opacity="0.200000" d="M282.61,-59.43C288.72,-60.64 295.03,-61.88 301.08,-63.08"/>
<polygon fill="#000000" fill-opacity="0.200000" stroke="#000000" stroke-width="2" stroke-opacity="0.200000" points="300.43,-65.09 306.72,-64.2 301.24,-60.97 300.43,-65.09"/>
</g>
<!-- src/presentation/components/inputs/FileInput.vue&#45;&gt;src/presentation/stores/index.ts -->
<g id="edge4" class="edge">
<title>src/presentation/components/inputs/FileInput.vue&#45;&gt;src/presentation/stores/index.ts</title>
<path fill="none" stroke="#000000" stroke-width="2" stroke-opacity="0.200000" d="M278.45,-81.4C285.8,-79.94 293.61,-78.4 301.03,-76.93"/>
<polygon fill="#000000" fill-opacity="0.200000" stroke="#000000" stroke-width="2" stroke-opacity="0.200000" points="301.06,-79.06 306.54,-75.84 300.24,-74.94 301.06,-79.06"/>
</g>
</g>
</svg>
