<?xml version="1.0" encoding="UTF-8" standalone="no"?>
<!DOCTYPE svg PUBLIC "-//W3C//DTD SVG 1.1//EN"
 "http://www.w3.org/Graphics/SVG/1.1/DTD/svg11.dtd">
<!-- Generated by graphviz version 9.0.0 (20230911.1827)
 -->
<!-- Title: dependency&#45;cruiser output Pages: 1 -->
<svg width="418pt" height="225pt"
 viewBox="0.00 0.00 418.25 225.00" xmlns="http://www.w3.org/2000/svg" xmlns:xlink="http://www.w3.org/1999/xlink">
<g id="graph0" class="graph" transform="scale(1 1) rotate(0) translate(4 221)">
<title>dependency&#45;cruiser output</title>
<polygon fill="white" stroke="none" points="-4,4 -4,-221 414.25,-221 414.25,4 -4,4"/>
<g id="clust1" class="cluster">
<title>cluster_src</title>
<path fill="#ffffff" stroke="black" stroke-width="2" d="M20,-8C20,-8 390.25,-8 390.25,-8 396.25,-8 402.25,-14 402.25,-20 402.25,-20 402.25,-197 402.25,-197 402.25,-203 396.25,-209 390.25,-209 390.25,-209 20,-209 20,-209 14,-209 8,-203 8,-197 8,-197 8,-20 8,-20 8,-14 14,-8 20,-8"/>
<text text-anchor="middle" x="205.12" y="-196.45" font-family="Helvetica,sans-Serif" font-weight="bold" font-size="9.00">src</text>
</g>
<g id="clust4" class="cluster">
<title>cluster_src/stores</title>
<path fill="#ffffff" stroke="black" stroke-width="2" d="M306,-79C306,-79 382.25,-79 382.25,-79 388.25,-79 394.25,-85 394.25,-91 394.25,-91 394.25,-153 394.25,-153 394.25,-159 388.25,-165 382.25,-165 382.25,-165 306,-165 306,-165 300,-165 294,-159 294,-153 294,-153 294,-91 294,-91 294,-85 300,-79 306,-79"/>
<text text-anchor="middle" x="344.12" y="-152.45" font-family="Helvetica,sans-Serif" font-weight="bold" font-size="9.00">stores</text>
</g>
<g id="clust2" class="cluster">
<title>cluster_src/components</title>
<path fill="#ffffff" stroke="black" stroke-width="2" d="M198.25,-26C198.25,-26 274,-26 274,-26 280,-26 286,-32 286,-38 286,-38 286,-132 286,-132 286,-138 280,-144 274,-144 274,-144 198.25,-144 198.25,-144 192.25,-144 186.25,-138 186.25,-132 186.25,-132 186.25,-38 186.25,-38 186.25,-32 192.25,-26 198.25,-26"/>
<text text-anchor="middle" x="236.12" y="-131.45" font-family="Helvetica,sans-Serif" font-weight="bold" font-size="9.00">components</text>
</g>
<g id="clust3" class="cluster">
<title>cluster_src/components/inputs</title>
<path fill="#ffffff" stroke="black" stroke-width="2" d="M206.25,-62C206.25,-62 266,-62 266,-62 272,-62 278,-68 278,-74 278,-74 278,-105 278,-105 278,-111 272,-117 266,-117 266,-117 206.25,-117 206.25,-117 200.25,-117 194.25,-111 194.25,-105 194.25,-105 194.25,-74 194.25,-74 194.25,-68 200.25,-62 206.25,-62"/>
<text text-anchor="middle" x="236.12" y="-104.45" font-family="Helvetica,sans-Serif" font-weight="bold" font-size="9.00">inputs</text>
</g>
<g id="clust5" class="cluster">
<title>cluster_src/views</title>
<path fill="#ffffff" stroke="black" stroke-width="2" d="M90,-79C90,-79 166.25,-79 166.25,-79 172.25,-79 178.25,-85 178.25,-91 178.25,-91 178.25,-153 178.25,-153 178.25,-159 172.25,-165 166.25,-165 166.25,-165 90,-165 90,-165 84,-165 78,-159 78,-153 78,-153 78,-91 78,-91 78,-85 84,-79 90,-79"/>
<text text-anchor="middle" x="128.12" y="-152.45" font-family="Helvetica,sans-Serif" font-weight="bold" font-size="9.00">views</text>
</g>
<!-- src/App.vue -->
<g id="node1" class="node">
<title>src/App.vue</title>
<g id="a_node1"><a xlink:href="src/App.vue" xlink:title="App.vue">
<path fill="#41f083" stroke="black" d="M63.58,-121.62C63.58,-121.62 22.42,-121.62 22.42,-121.62 19.21,-121.62 16,-118.42 16,-115.21 16,-115.21 16,-108.79 16,-108.79 16,-105.58 19.21,-102.38 22.42,-102.38 22.42,-102.38 63.58,-102.38 63.58,-102.38 66.79,-102.38 70,-105.58 70,-108.79 70,-108.79 70,-115.21 70,-115.21 70,-118.42 66.79,-121.62 63.58,-121.62"/>
<text text-anchor="start" x="26.88" y="-109.08" font-family="Helvetica,sans-Serif" font-size="9.00">App.vue</text>
</a>
</g>
</g>
<!-- src/views/NavBar.vue -->
<g id="node2" class="node">
<title>src/views/NavBar.vue</title>
<g id="a_node2"><a xlink:href="src/views/NavBar.vue" xlink:title="NavBar.vue">
<path fill="#41f083" stroke="black" d="M152.96,-106.62C152.96,-106.62 103.29,-106.62 103.29,-106.62 100.08,-106.62 96.88,-103.42 96.88,-100.21 96.88,-100.21 96.88,-93.79 96.88,-93.79 96.88,-90.58 100.08,-87.38 103.29,-87.38 103.29,-87.38 152.96,-87.38 152.96,-87.38 156.17,-87.38 159.38,-90.58 159.38,-93.79 159.38,-93.79 159.38,-100.21 159.38,-100.21 159.38,-103.42 156.17,-106.62 152.96,-106.62"/>
<text text-anchor="start" x="104.88" y="-94.08" font-family="Helvetica,sans-Serif" font-size="9.00">NavBar.vue</text>
</a>
</g>
</g>
<!-- src/App.vue&#45;&gt;src/views/NavBar.vue -->
<g id="edge1" class="edge">
<title>src/App.vue&#45;&gt;src/views/NavBar.vue</title>
<path fill="none" stroke="#000000" stroke-width="2" stroke-opacity="0.200000" d="M70.3,-107.25C75.93,-106.24 81.98,-105.15 87.97,-104.06"/>
<polygon fill="#000000" fill-opacity="0.200000" stroke="#000000" stroke-width="2" stroke-opacity="0.200000" points="88.13,-106.17 93.67,-103.04 87.39,-102.04 88.13,-106.17"/>
</g>
<!-- src/views/VideoGallery.vue -->
<g id="node3" class="node">
<title>src/views/VideoGallery.vue</title>
<g id="a_node3"><a xlink:href="src/views/VideoGallery.vue" xlink:title="VideoGallery.vue">
<path fill="#41f083" stroke="black" d="M163.83,-137.62C163.83,-137.62 92.42,-137.62 92.42,-137.62 89.21,-137.62 86,-134.42 86,-131.21 86,-131.21 86,-124.79 86,-124.79 86,-121.58 89.21,-118.38 92.42,-118.38 92.42,-118.38 163.83,-118.38 163.83,-118.38 167.04,-118.38 170.25,-121.58 170.25,-124.79 170.25,-124.79 170.25,-131.21 170.25,-131.21 170.25,-134.42 167.04,-137.62 163.83,-137.62"/>
<text text-anchor="start" x="94" y="-125.08" font-family="Helvetica,sans-Serif" font-size="9.00">VideoGallery.vue</text>
</a>
</g>
</g>
<!-- src/App.vue&#45;&gt;src/views/VideoGallery.vue -->
<g id="edge2" class="edge">
<title>src/App.vue&#45;&gt;src/views/VideoGallery.vue</title>
<path fill="none" stroke="#000000" stroke-width="2" stroke-opacity="0.200000" d="M70.3,-117.06C72.42,-117.47 74.61,-117.89 76.83,-118.32"/>
<polygon fill="#000000" fill-opacity="0.200000" stroke="#000000" stroke-width="2" stroke-opacity="0.200000" points="76.24,-120.34 82.53,-119.42 77.03,-116.22 76.24,-120.34"/>
</g>
<!-- src/stores/videosStore.ts -->
<g id="node5" class="node">
<title>src/stores/videosStore.ts</title>
<g id="a_node5"><a xlink:href="src/stores/videosStore.ts" xlink:title="videosStore.ts">
<path fill="#ddfeff" stroke="black" d="M374.96,-106.62C374.96,-106.62 313.29,-106.62 313.29,-106.62 310.08,-106.62 306.88,-103.42 306.88,-100.21 306.88,-100.21 306.88,-93.79 306.88,-93.79 306.88,-90.58 310.08,-87.38 313.29,-87.38 313.29,-87.38 374.96,-87.38 374.96,-87.38 378.17,-87.38 381.38,-90.58 381.38,-93.79 381.38,-93.79 381.38,-100.21 381.38,-100.21 381.38,-103.42 378.17,-106.62 374.96,-106.62"/>
<text text-anchor="start" x="314.88" y="-94.08" font-family="Helvetica,sans-Serif" font-size="9.00">videosStore.ts</text>
</a>
</g>
</g>
<!-- src/views/NavBar.vue&#45;&gt;src/stores/videosStore.ts -->
<g id="edge7" class="edge">
<title>src/views/NavBar.vue&#45;&gt;src/stores/videosStore.ts</title>
<path fill="none" stroke="#000000" stroke-width="2" stroke-opacity="0.200000" d="M133.28,-86.96C140.89,-70.06 158.86,-36.46 186.25,-23 226.04,-3.45 246.21,-3.45 286,-23 309.53,-34.56 326.12,-61 335.15,-78.94"/>
<polygon fill="#000000" fill-opacity="0.200000" stroke="#000000" stroke-width="2" stroke-opacity="0.200000" points="333.19,-79.71 337.67,-84.23 336.98,-77.91 333.19,-79.71"/>
</g>
<!-- src/components/inputs/FileInput.vue -->
<g id="node6" class="node">
<title>src/components/inputs/FileInput.vue</title>
<g id="a_node6"><a xlink:href="src/components/inputs/FileInput.vue" xlink:title="FileInput.vue">
<path fill="#41f083" stroke="black" d="M263.58,-89.62C263.58,-89.62 208.67,-89.62 208.67,-89.62 205.46,-89.62 202.25,-86.42 202.25,-83.21 202.25,-83.21 202.25,-76.79 202.25,-76.79 202.25,-73.58 205.46,-70.38 208.67,-70.38 208.67,-70.38 263.58,-70.38 263.58,-70.38 266.79,-70.38 270,-73.58 270,-76.79 270,-76.79 270,-83.21 270,-83.21 270,-86.42 266.79,-89.62 263.58,-89.62"/>
<text text-anchor="start" x="210.25" y="-77.08" font-family="Helvetica,sans-Serif" font-size="9.00">FileInput.vue</text>
</a>
</g>
</g>
<!-- src/views/NavBar.vue&#45;&gt;src/components/inputs/FileInput.vue -->
<g id="edge5" class="edge">
<title>src/views/NavBar.vue&#45;&gt;src/components/inputs/FileInput.vue</title>
<path fill="none" stroke="#000000" stroke-width="2" stroke-opacity="0.200000" d="M159.78,-92.08C170.21,-90.41 182.04,-88.51 193.19,-86.73"/>
<polygon fill="#000000" fill-opacity="0.200000" stroke="#000000" stroke-width="2" stroke-opacity="0.200000" points="193.36,-88.83 198.95,-85.8 192.69,-84.68 193.36,-88.83"/>
</g>
<!-- src/stores/appStateStore.ts -->
<g id="node7" class="node">
<title>src/stores/appStateStore.ts</title>
<g id="a_node7"><a xlink:href="src/stores/appStateStore.ts" xlink:title="appStateStore.ts">
<path fill="#ddfeff" stroke="black" d="M379.83,-137.62C379.83,-137.62 308.42,-137.62 308.42,-137.62 305.21,-137.62 302,-134.42 302,-131.21 302,-131.21 302,-124.79 302,-124.79 302,-121.58 305.21,-118.38 308.42,-118.38 308.42,-118.38 379.83,-118.38 379.83,-118.38 383.04,-118.38 386.25,-121.58 386.25,-124.79 386.25,-124.79 386.25,-131.21 386.25,-131.21 386.25,-134.42 383.04,-137.62 379.83,-137.62"/>
<text text-anchor="start" x="310" y="-125.08" font-family="Helvetica,sans-Serif" font-size="9.00">appStateStore.ts</text>
</a>
</g>
</g>
<!-- src/views/NavBar.vue&#45;&gt;src/stores/appStateStore.ts -->
<g id="edge6" class="edge">
<title>src/views/NavBar.vue&#45;&gt;src/stores/appStateStore.ts</title>
<path fill="none" stroke="#000000" stroke-width="2" stroke-opacity="0.200000" d="M159.73,-103.81C166.1,-105.92 172.59,-108.6 178.25,-112 182.56,-114.59 181.65,-117.96 186.25,-120 219.62,-134.83 261,-136.33 292.89,-134.4"/>
<polygon fill="#000000" fill-opacity="0.200000" stroke="#000000" stroke-width="2" stroke-opacity="0.200000" points="292.76,-136.51 298.59,-133.98 292.46,-132.32 292.76,-136.51"/>
</g>
<!-- src/components/VideoCard.vue -->
<g id="node4" class="node">
<title>src/components/VideoCard.vue</title>
<g id="a_node4"><a xlink:href="src/components/VideoCard.vue" xlink:title="VideoCard.vue">
<path fill="#41f083" stroke="black" d="M267.71,-53.62C267.71,-53.62 204.54,-53.62 204.54,-53.62 201.33,-53.62 198.12,-50.42 198.12,-47.21 198.12,-47.21 198.12,-40.79 198.12,-40.79 198.12,-37.58 201.33,-34.38 204.54,-34.38 204.54,-34.38 267.71,-34.38 267.71,-34.38 270.92,-34.38 274.12,-37.58 274.12,-40.79 274.12,-40.79 274.12,-47.21 274.12,-47.21 274.12,-50.42 270.92,-53.62 267.71,-53.62"/>
<text text-anchor="start" x="206.12" y="-41.08" font-family="Helvetica,sans-Serif" font-size="9.00">VideoCard.vue</text>
</a>
</g>
</g>
<!-- src/views/VideoGallery.vue&#45;&gt;src/components/VideoCard.vue -->
<g id="edge8" class="edge">
<title>src/views/VideoGallery.vue&#45;&gt;src/components/VideoCard.vue</title>
<path fill="none" stroke="#000000" stroke-width="2" stroke-opacity="0.200000" d="M170.51,-119.48C173.4,-117.7 176.04,-115.57 178.25,-113 194.08,-94.61 170.43,-77.4 186.25,-59 187.42,-57.64 188.71,-56.4 190.1,-55.27"/>
<polygon fill="#000000" fill-opacity="0.200000" stroke="#000000" stroke-width="2" stroke-opacity="0.200000" points="191.17,-57.07 195.13,-52.1 188.93,-53.52 191.17,-57.07"/>
</g>
<!-- src/views/VideoGallery.vue&#45;&gt;src/stores/videosStore.ts -->
<g id="edge10" class="edge">
<title>src/views/VideoGallery.vue&#45;&gt;src/stores/videosStore.ts</title>
<path fill="none" stroke="#000000" stroke-width="2" stroke-opacity="0.200000" d="M170.64,-133.77C203.39,-136.5 249.49,-136.22 286,-120 290.6,-117.96 289.69,-114.59 294,-112 295.46,-111.12 296.98,-110.29 298.54,-109.51"/>
<polygon fill="#000000" fill-opacity="0.200000" stroke="#000000" stroke-width="2" stroke-opacity="0.200000" points="299.17,-111.52 303.8,-107.17 297.47,-107.68 299.17,-111.52"/>
</g>
<!-- src/views/VideoGallery.vue&#45;&gt;src/stores/appStateStore.ts -->
<g id="edge9" class="edge">
<title>src/views/VideoGallery.vue&#45;&gt;src/stores/appStateStore.ts</title>
<path fill="none" stroke="#000000" stroke-width="2" stroke-opacity="0.200000" d="M138.1,-137.78C148.49,-148.33 166.71,-164.47 186.25,-171 228.3,-185.06 243.95,-185.06 286,-171 302.03,-165.64 317.17,-153.82 327.83,-143.92"/>
<polygon fill="#000000" fill-opacity="0.200000" stroke="#000000" stroke-width="2" stroke-opacity="0.200000" points="329.14,-145.58 331.98,-139.89 326.21,-142.56 329.14,-145.58"/>
</g>
<!-- src/components/VideoCard.vue&#45;&gt;src/stores/videosStore.ts -->
<g id="edge3" class="edge">
<title>src/components/VideoCard.vue&#45;&gt;src/stores/videosStore.ts</title>
<path fill="none" stroke="#000000" stroke-width="2" stroke-opacity="0.200000" d="M274.12,-54.1C278.2,-55.58 282.23,-57.21 286,-59 299.17,-65.24 312.79,-74.19 323.43,-81.84"/>
<polygon fill="#000000" fill-opacity="0.200000" stroke="#000000" stroke-width="2" stroke-opacity="0.200000" points="322.09,-83.46 328.17,-85.32 324.58,-80.07 322.09,-83.46"/>
</g>
<!-- src/components/inputs/FileInput.vue&#45;&gt;src/stores/videosStore.ts -->
<g id="edge4" class="edge">
<title>src/components/inputs/FileInput.vue&#45;&gt;src/stores/videosStore.ts</title>
<path fill="none" stroke="#000000" stroke-width="2" stroke-opacity="0.200000" d="M270.37,-85.33C279.12,-86.73 288.69,-88.27 297.95,-89.75"/>
<polygon fill="#000000" fill-opacity="0.200000" stroke="#000000" stroke-width="2" stroke-opacity="0.200000" points="297.44,-91.8 303.69,-90.68 298.1,-87.65 297.44,-91.8"/>
</g>
</g>
</svg>
